<?xml version="1.0" standalone="no"?>
<!DOCTYPE svg PUBLIC "-//W3C//DTD SVG 1.1//EN" "http://www.w3.org/Graphics/SVG/1.1/DTD/svg11.dtd" >
<svg xmlns="http://www.w3.org/2000/svg">
<metadata>
This is a custom SVG webfont generated by Font Squirrel.
Copyright   : c 2000 Nick Curtis All Rights Reserved Generated by Fontographer 352 
</metadata>
<defs>
<font id="webfont26NJ1GKY" horiz-adv-x="1024" >
<font-face units-per-em="2048" ascent="1638" descent="-410" />
<missing-glyph horiz-adv-x="454" />
<glyph unicode=" "  horiz-adv-x="454" />
<glyph unicode="&#x09;" horiz-adv-x="454" />
<glyph unicode="&#xa0;" horiz-adv-x="454" />
<glyph unicode="!" horiz-adv-x="571" d="M27 1346h518l-148 -1055h-223zM94 106q0 53 56.5 91.5t136.5 38.5q78 0 134 -38t56 -91.5t-56 -91.5t-134 -38q-80 0 -136.5 38t-56.5 91z" />
<glyph unicode="&#x22;" horiz-adv-x="645" d="M16 1407h605l-91 -334h-137l-74 273l-12 -42q-12 -42 -24 -94l-27 -94l-12 -43h-138z" />
<glyph unicode="#" />
<glyph unicode="$" horiz-adv-x="813" d="M2 612v8q0 3 2 5v7v5q10 115 97 177.5t194 78.5v180h111v-172h194v-219h-194v-64q6 0 11 -2t11 -2q117 -27 215 -107.5t98 -211.5v-4v-3q-4 -130 -102 -197.5t-215 -84.5q-4 0 -9 -1t-9 -1v-358h-111v354h-114h-113v219h113h114v74q-2 0 -3 1t-3 1q-106 35 -196.5 116.5 t-90.5 200.5z" />
<glyph unicode="%" />
<glyph unicode="&#x26;" horiz-adv-x="1546" d="M70 473q4 143 59 222t152 136q-31 45 -45.5 93.5t-14.5 97.5q0 133 95.5 238.5t244.5 105.5h311v-219h-143h-8h-8q-55 -6 -100.5 -37t-45.5 -90v-2q0 -45 40 -71.5t89 -37.5q16 -4 34 -6t34 -2l2 -219q-74 -2 -140.5 -29.5t-97.5 -103.5q-10 -27 -16 -53.5t-4 -51.5 q0 -102 85 -163.5t200 -61.5q141 0 247.5 79t106.5 234q0 143 -99.5 229.5t-234.5 86.5v219h18h3h643v-219h-215q49 -66 76.5 -145.5t27.5 -170.5q0 -45 -8 -89t-25 -85q-59 -154 -220 -256t-402 -102q-242 0 -439.5 138t-201.5 335z" />
<glyph unicode="'" horiz-adv-x="350" d="M16 1407h318l-90 -334h-138z" />
<glyph unicode="(" horiz-adv-x="649" d="M29 348v328q0 70 11 154.5t36 170.5q57 201 188 367t357 168v-205q-37 -4 -61.5 -47t-39.5 -94q-10 -37 -14 -72t-4 -53v-1106q0 -16 4 -51t14 -72q14 -51 39 -94t62 -47v-207q-227 4 -358.5 170t-186.5 365q-25 86 -36 170.5t-11 154.5z" />
<glyph unicode=")" horiz-adv-x="649" d="M27 -307q37 6 61.5 49t38.5 94q10 37 14 72t4 53v1104q0 18 -4 53t-14 72q-14 51 -39 94t-61 47v205q225 -2 356 -168t188 -367q25 -86 36 -171t11 -154v-328q0 -70 -11 -154.5t-36 -170.5q-55 -199 -186 -365t-358 -168v-2v205z" />
<glyph unicode="*" horiz-adv-x="501" d="M23 1096l81 47l-81 47l73 127l82 -47v94h146v-94l82 47l71 -127l-82 -47l82 -47l-71 -125l-82 45v-94h-146v96l-82 -47z" />
<glyph unicode="+" />
<glyph unicode="," horiz-adv-x="428" d="M14 106q0 53 56.5 91.5t134.5 38.5q80 0 136 -38t56 -92q0 -18 -8 -34.5t-20 -32.5l-211 -254l-138 164l54 63q-27 16 -43.5 41.5t-16.5 52.5z" />
<glyph unicode="-" horiz-adv-x="483" d="M23 494v219h440v-219h-440z" />
<glyph unicode="." horiz-adv-x="421" d="M27 106q0 53 56 91.5t136 38.5q78 0 134.5 -38t56.5 -91.5t-56.5 -91.5t-134.5 -38q-80 0 -136 38t-56 91z" />
<glyph unicode="/" />
<glyph unicode="0" horiz-adv-x="1275" d="M4 451q0 184 140.5 294.5t308.5 143.5q33 6 66.5 9t66.5 3t67.5 -3t69.5 -11q166 -33 304 -142.5t138 -294t-138 -294t-304 -142.5q-35 -8 -70 -11t-67 -3q-33 0 -67 3t-66 9q-168 33 -308.5 144t-140.5 295zM453 451q0 -18 3 -45t11 -54q14 -49 43 -91t76 -42t75.5 42 t40.5 93q8 27 11.5 52.5t3.5 44t-3 44t-12 52.5q-12 51 -40.5 93t-75.5 42t-76 -42t-43 -91q-8 -27 -11 -53.5t-3 -44.5z" />
<glyph unicode="1" horiz-adv-x="1003" d="M-10 614l692 347v-742h219v-219h-895v219h221v268l-139 -69z" />
<glyph unicode="2" horiz-adv-x="995" d="M0 0v205l212 123l210 125q29 16 53.5 47.5t32.5 66.5q2 8 3 15.5t1 15.5q0 16 -4 29.5t-14 25.5q-8 10 -16.5 16.5t-18.5 10.5q-4 2 -10.5 3t-12.5 1q-25 0 -43 -19.5t-20 -52.5h-371q2 117 93 183.5t200 91.5q35 6 67.5 10t63.5 4q33 0 72 -3t80 -9q53 -8 103 -23.5 t87 -40.5q66 -45 99.5 -107.5t33.5 -139.5q0 -104 -63.5 -162t-159.5 -107l-26 -12l-25 -12q-14 -8 -37 -16l-47 -15q-25 -8 -48.5 -17.5t-37.5 -17.5h448v-219h-905z" />
<glyph unicode="3" horiz-adv-x="1218" d="M8 -11v54h408q0 -6 1 -12t1 -13q2 -12 3 -21t1 -20q6 -49 18.5 -94t42.5 -84q18 -23 37 -32t37 -9q23 0 43.5 13.5t38.5 38.5q27 37 39 84t12 98v8v8q-2 43 -15 84t-36 74q-16 25 -36.5 39t-43.5 14h-115v219h78q57 0 81 36t26 81v5v5v5v5q-2 25 -8.5 48.5t-16.5 35.5 q-8 14 -25.5 20.5t-37.5 4.5h-5h-6q-27 -2 -49 -17.5t-24 -41.5h-334v3v3v4q0 100 83 159.5t181 84.5q45 12 87 17t77 5q14 0 27.5 -1t27.5 -1q68 -6 134.5 -26.5t123.5 -57.5q74 -49 114 -117.5t38 -140.5q0 -57 -24.5 -112.5t-78.5 -102.5q109 -66 166.5 -161t57.5 -195 v-13v-10q-6 -82 -51.5 -160.5t-131.5 -142.5v-2q-82 -57 -187 -88t-214 -31h-12h-15q-90 4 -177 28.5t-159 74.5q-82 51 -130 126.5t-50 165.5q-2 27 -2 55z" />
<glyph unicode="4" horiz-adv-x="1320" d="M2 -219l692 1120h295v-901h238v-219h-238v-244h-454v244h-533zM391 0h144v213z" />
<glyph unicode="5" horiz-adv-x="1230" d="M-6 43h407q0 -6 1 -12t1 -13l3.5 -21t1.5 -20q6 -49 18 -94t43 -84q18 -23 36.5 -32t37.5 -9q23 0 43 13.5t39 38.5q27 37 39 84t12 98v8v8q-2 43 -15.5 84t-35.5 74q-14 20 -35 36.5t-47 16.5h-492v682h889v-219h-467v-244h17h18h17h18q115 0 217 -32.5t180 -88.5 q84 -61 133 -146t49 -181v-2q0 -182 -138 -292t-304 -142q-35 -8 -70 -11.5t-67 -3.5q-37 0 -76 4t-78 13q-145 33 -267 125t-124 253z" />
<glyph unicode="6" horiz-adv-x="1271" d="M4 623v19v20q6 121 47 236.5t111 203.5q80 100 176 154.5t194 78.5q82 20 161 25.5t149 5.5h123v-219h-123q-139 0 -248 -62.5t-162 -197.5q41 6 81 10t79 4q109 0 213 -28.5t192 -92.5q86 -61 125 -136t39 -173v-19q0 -9 -2 -20q-6 -90 -45 -173t-117 -138 q-82 -59 -182 -90t-203 -31q-111 0 -216 36t-191 107q-104 88 -152.5 215.5t-48.5 264.5zM471 449q0 -86 33 -158t96 -72q66 0 98.5 73t32.5 161q0 86 -32.5 157.5t-98.5 71.5q-63 0 -96 -72.5t-33 -160.5z" />
<glyph unicode="7" horiz-adv-x="1193" d="M-6 682v219h1130l-594 -1364h-477l518 1145h-577z" />
<glyph unicode="8" horiz-adv-x="1273" d="M4 428v9v12q0 100 54.5 194t160.5 160q-49 41 -74.5 90t-31.5 98q-2 8 -2 16v13q0 74 41 142.5t116 117.5q61 41 143.5 63.5t172.5 22.5q18 0 37.5 -1t37.5 -3q63 -8 125 -27.5t117 -54.5q76 -47 117 -115.5t41 -142.5q-2 -57 -28.5 -114.5t-82.5 -104.5 q106 -66 160.5 -160t54.5 -194q0 -88 -45 -174.5t-137 -153.5q-84 -61 -187.5 -91t-211.5 -30h-13h-12q-100 4 -196.5 33.5t-174.5 87.5q-86 61 -131 142t-51 165zM451 451q0 -18 4 -45t10 -54q14 -49 43 -91t76 -42q66 0 97.5 70.5t33.5 154.5v3v4q0 88 -34 159.5t-99 71.5 q-45 0 -74 -41t-43 -90q-6 -29 -10 -55.5t-4 -44.5zM498 1016q2 -43 23.5 -79t62.5 -36q43 0 64.5 39t21.5 86v3v3q-2 43 -23.5 79t-62.5 36q-43 0 -64.5 -39t-21.5 -86v-3v-3z" />
<glyph unicode="9" horiz-adv-x="1271" d="M4 430v20q0 9 2 19q6 90 46 173t116 138q84 59 183.5 90t201.5 31q111 0 216 -36t192 -107q104 -88 152 -215t48 -264v-20v-19q-6 -121 -47 -236t-110 -203v-2q-80 -98 -176.5 -152.5t-194.5 -78.5q-82 -20 -161 -25.5t-148 -5.5l-121 -2v219h121q139 2 247.5 64.5 t161.5 195.5q-39 -6 -79 -10t-81 -4q-109 0 -213 28.5t-192 92.5q-84 61 -124 136t-40 173zM434 449q0 -86 34 -158t97 -72q66 0 97.5 73t31.5 161q0 86 -31.5 157.5t-97.5 71.5t-98.5 -72.5t-32.5 -160.5z" />
<glyph unicode=":" horiz-adv-x="421" d="M27 106q0 53 56 91.5t136 38.5q78 0 134.5 -38t56.5 -91.5t-56.5 -91.5t-134.5 -38q-80 0 -136 38t-56 91zM27 578q0 53 56 91t136 38q78 0 134.5 -38t56.5 -91.5t-56.5 -92.5t-134.5 -39q-80 0 -136 39.5t-56 92.5z" />
<glyph unicode=";" horiz-adv-x="428" d="M14 106q0 53 56.5 91.5t134.5 38.5q80 0 136 -38t56 -92q0 -18 -8 -34.5t-20 -32.5l-211 -254l-138 164l54 63q-27 16 -43.5 41.5t-16.5 52.5zM27 578q0 53 56 91t136 38q78 0 134.5 -38t56.5 -91.5t-56.5 -92.5t-134.5 -39q-80 0 -136 39.5t-56 92.5z" />
<glyph unicode="&#x3c;" />
<glyph unicode="=" />
<glyph unicode="&#x3e;" />
<glyph unicode="?" horiz-adv-x="1198" d="M10 877v31q0 15 2 30v32v29q4 145 108.5 228.5t229.5 115.5q47 12 91 17.5t83 5.5q195 0 324 -64.5t194 -160.5q37 -51 54.5 -109.5t17.5 -118.5q0 -49 -12 -97t-35 -95q-55 -106 -172 -189t-293 -106q-29 -4 -42 -27.5t-17 -52.5q-4 -14 -5 -26.5t-3 -22.5h-218v10 q0 8 -2 19q-4 39 -7 75.5t-3 69.5q0 100 45 183t191 153l8 4q4 2 6 4q47 27 85 72t36 102v7v8q0 4 -1 7t-1 7q-10 57 -54.5 83.5t-95.5 26.5h-8h-10q-27 -4 -51.5 -14t-44.5 -29q-27 -25 -34 -58.5t-7 -68.5v-20q0 -10 2 -20v-21v-20h-361zM252 106q0 53 56.5 91.5 t135.5 38.5q78 0 134.5 -38t56.5 -91.5t-56.5 -91.5t-134.5 -38q-80 0 -136 38t-56 91z" />
<glyph unicode="@" />
<glyph unicode="A" horiz-adv-x="1316" d="M0 0q0 96 1 192.5t1 192.5t1 192.5t1 192.5q2 244 176 420t420 176q244 0 420 -175t176 -423v-768h-469v682h-254v-682h-473zM473 901h254v119q0 53 -37 90t-90 37q-51 0 -89 -37t-38 -90v-119z" />
<glyph unicode="B" horiz-adv-x="1333" d="M2 0v1366h743q102 0 181.5 -52t120.5 -130q20 -39 30 -80t10 -84q0 -12 -1 -24.5t-3 -22.5q-4 -37 -18 -73t-37 -69q96 -61 152.5 -163.5t56.5 -216.5q0 -186 -132 -318.5t-319 -132.5h-784zM440 219h166q43 0 73 30t30 73v130v128q0 47 -33 74.5t-76 27.5h-160v-463z M440 901h105q51 0 76.5 39t25.5 84q0 47 -25.5 85t-78.5 38h-103v-246z" />
<glyph unicode="C" horiz-adv-x="1220" d="M2 580v241q0 240 171 411t411 171h21q11 0 22 -2q180 -14 330.5 -135t152.5 -318v-110h-408v225q0 49 -34.5 85t-83.5 36q-51 0 -86 -36t-35 -85v-725q0 -49 34.5 -84t84.5 -35h530v-219h-530q-238 0 -409 170t-171 410z" />
<glyph unicode="D" horiz-adv-x="1265" d="M-2 0v1366h582q238 0 408.5 -171t170.5 -411v-101v-103q0 -236 -169 -407t-406 -173h-3h-1h-582zM459 219h121q49 0 83.5 35t34.5 84v344v344q0 49 -34.5 85t-83.5 36h-121v-928z" />
<glyph unicode="E" horiz-adv-x="1239" d="M2 451q0 115 57.5 217t153.5 163q-31 47 -46 96q-14 42 -14 85q0 6 1 12q0 41 10 81t29 77q43 80 121.5 132t181.5 52h632v-219h-395q-51 0 -76.5 -38t-25.5 -85q0 -45 25.5 -84t76.5 -39h395v-219h-395q-100 0 -150.5 -71.5t-50.5 -159.5t50.5 -160t150.5 -72h395v-219 h-673q-186 0 -319.5 132.5t-133.5 318.5z" />
<glyph unicode="F" horiz-adv-x="1255" d="M4 682v219h242v465h872v-219h-413v-246h442v-219h-442v-434q0 -100 -73 -174t-175 -74h-422v219h211v463h-242z" />
<glyph unicode="G" horiz-adv-x="1249" d="M-6 821q2 240 171 411t408 171q23 0 46.5 -1t48.5 -5q174 -20 318 -121.5t142 -300.5v-74h-434v162q0 49 -35.5 85t-85.5 36q-49 0 -83.5 -36t-34.5 -85v-725q0 -49 34.5 -84t83.5 -35t85 35t36 84v428h432v-981q0 -100 -71.5 -173t-173.5 -73l-424 -2v219h239v256 q-29 -6 -59.5 -9t-63.5 -3q-240 0 -408.5 170t-168.5 410z" />
<glyph unicode="H" horiz-adv-x="1247" d="M4 0v1366h461v-465h211v465h463v-1366h-463v682h-211v-682h-461z" />
<glyph unicode="I" horiz-adv-x="583" d="M-4 0v1366h463v-1366h-463z" />
<glyph unicode="J" horiz-adv-x="776" d="M-27 -244h211v1391h-184v219h643v-1583q0 -100 -72.5 -172t-175.5 -72l-422 -2v219z" />
<glyph unicode="K" horiz-adv-x="1468" d="M4 0v1362h455v-383l473 383h348l-569 -461h168q109 0 187.5 -78t78.5 -188v-416h215v-219h-420q-109 0 -187.5 78t-78.5 188v416h-215v-682h-455z" />
<glyph unicode="L" horiz-adv-x="1159" d="M0 0v1362h455v-1143h598v-219h-1053z" />
<glyph unicode="M" horiz-adv-x="1761" d="M0 0v879q0 160 81 279.5t204 182.5q57 29 119.5 44.5t125.5 15.5q18 0 37 -1t37 -5q57 -6 111.5 -27.5t105.5 -56.5q57 39 121 61.5t129 26.5q10 2 22 2h21q66 0 127.5 -15.5t116.5 -44.5q123 -61 203.5 -181t80.5 -281v-879h-462v276v283v283v276q0 33 -19.5 49.5 t-44.5 16.5t-44 -16.5t-19 -49.5v-1118h-461v1118q0 33 -20.5 49.5t-45.5 16.5h-3h-3q-20 -2 -38.5 -18.5t-18.5 -47.5v-1118h-463z" />
<glyph unicode="N" horiz-adv-x="1251" d="M4 0v1366h291l381 -463v463h463v-1366h-463v559l-211 254v-813h-461z" />
<glyph unicode="O" horiz-adv-x="1277" d="M-2 821q2 240 172 411t410 171q238 0 408.5 -170t170.5 -412v-278q0 -238 -170 -408t-409 -170q-240 0 -410 170t-170 408zM459 301q0 -49 35.5 -84t85.5 -35q49 0 83.5 35t34.5 84v762q0 49 -34.5 85t-83.5 36t-85 -36t-36 -85v-762z" />
<glyph unicode="P" horiz-adv-x="1234" d="M4 0v1366h173h173h173h173q186 0 318.5 -132t132.5 -318.5t-132 -318.5t-319 -132h-227v-465h-465zM469 684h76q41 0 71.5 29.5t30.5 72.5v130v128q0 41 -30.5 72t-71.5 31h-76v-463z" />
<glyph unicode="Q" horiz-adv-x="1277" d="M4 543v278q0 240 171 411t411 171q238 0 408.5 -170t170.5 -412v-278q0 -199 -121.5 -354.5t-308.5 -202.5v-23h230v-219h-285q-100 2 -171 71.5t-75 170.5q-186 49 -308 203.5t-122 353.5zM465 301q0 -49 36 -84t85 -35t84 35t35 84v762q0 49 -35 85t-84 36t-85 -36 t-36 -85v-762z" />
<glyph unicode="R" horiz-adv-x="1341" d="M2 0v1366h694q184 0 317.5 -132t133.5 -319q0 -88 -32 -165.5t-87 -139.5q2 -2 4 -2l1 -1l1 -1q35 -37 56.5 -85t21.5 -103v-199h131v-219h-336q-111 0 -188.5 79t-77.5 187v199h-172v-465h-467zM469 684h82q41 4 67.5 34t26.5 68v130v128q0 41 -29.5 72t-72.5 31h-74 v-463z" />
<glyph unicode="S" horiz-adv-x="1226" d="M2 303v109h360v-18v-17q-2 -10 -2 -19v-18q0 -33 7.5 -63.5t33.5 -53.5q20 -18 49 -28.5t60 -12.5h6h8q47 0 88 16.5t66 49.5q10 12 15 26.5t5 28.5v8q0 4 -2 8q0 4 -2 9l-4 8q-14 31 -53 57.5t-107 40.5q-143 33 -247.5 107.5t-167.5 158.5q-14 20 -26.5 40t-22.5 38 q-23 43 -34.5 89t-11.5 91q0 59 21.5 118t64.5 110q70 80 193 130t301 50h385v-219h-385q-57 0 -95 -36t-42 -91v-5v-5q0 -45 26.5 -72t75.5 -37q193 -35 321 -127t187 -199q20 -33 31.5 -68.5t15.5 -72.5q2 -10 3 -22.5t1 -24.5q0 -57 -17 -110.5t-54 -102.5 q-66 -90 -200 -149.5t-337 -59.5q-41 0 -86 5t-92 18q-125 29 -228.5 105.5t-107.5 209.5z" />
<glyph unicode="T" horiz-adv-x="1048" d="M-2 1147v219h952v-219h-243v-1147h-463v1147h-246z" />
<glyph unicode="U" horiz-adv-x="1312" d="M0 514v852h469v-1057q0 -51 38 -89t89 -38q53 0 91 38t38 89v1057h469v-852q0 -250 -178 -399.5t-420 -149.5q-238 0 -417 147.5t-179 401.5z" />
<glyph unicode="V" horiz-adv-x="1292" d="M-4 1366h455v-1143q123 20 193.5 92t70.5 234v817h456v-598q0 -172 -64.5 -312.5t-176.5 -242.5q-115 -104 -269.5 -159.5t-330.5 -55.5h-83h-83h-85h-81z" />
<glyph unicode="W" horiz-adv-x="1757" d="M-4 1364h463v-1118q0 -33 20.5 -49.5t44.5 -14.5q25 0 44.5 15.5t19.5 48.5v1118h461v-1118q0 -33 20.5 -49.5t44.5 -14.5q23 0 42.5 15.5t19.5 48.5v276v283v282v277h462v-877q0 -236 -163.5 -379t-366.5 -143q-76 0 -149.5 21.5t-141.5 66.5q-51 -35 -105.5 -54 t-111.5 -28q-18 -4 -36.5 -5t-37.5 -1q-205 0 -366.5 143.5t-161.5 378.5z" />
<glyph unicode="X" horiz-adv-x="1312" d="M6 0v350q0 133 60.5 250t169.5 193q-109 76 -169.5 190.5t-60.5 249.5v133h469v-169v-169q0 -51 38 -89t89 -38q53 0 91 38t38 89v338h469v-133q0 -133 -60.5 -249t-168.5 -191q109 -76 169 -192t60 -251v-350h-469v555q0 53 -37 90t-90 37q-51 0 -90 -37t-39 -90v-555 h-469z" />
<glyph unicode="Y" horiz-adv-x="1277" d="M-2 1366h463v-1065q0 -49 34.5 -84t86.5 -35q47 0 82.5 34t35.5 83v1067h459v-1581q0 -100 -71.5 -173t-174.5 -73l-450 -2v219h237v219q-33 -6 -67.5 -9t-71.5 -3q-18 0 -35.5 1t-36.5 3q-92 8 -178 38t-149 81q-76 59 -119 150.5t-43 216.5z" />
<glyph unicode="Z" horiz-adv-x="1439" d="M4 0l590 1147h-459v219h1215l-590 -1147h514v-219h-1270z" />
<glyph unicode="[" />
<glyph unicode="\" />
<glyph unicode="]" />
<glyph unicode="^" />
<glyph unicode="_" d="M2 -4h1034v-178h-1034v178z" />
<glyph unicode="`" horiz-adv-x="634" d="M23 1538l96 227l389 -229l-59 -139z" />
<glyph unicode="a" horiz-adv-x="1615" d="M2 451q0 98 49 183t133 146q74 53 166 84t187 37h21h22q43 0 86 -5t82 -15v18h438v-680h481q0 -90 -65.5 -154.5t-155.5 -64.5h-453q-43 0 -83 14.5t-70 40.5l-11.5 -4t-9.5 -4q-4 -4 -9 -6t-11 -4q-51 -18 -106.5 -27.5t-112.5 -9.5h-22q-11 0 -21 2q-94 4 -186.5 35 t-166.5 84q-84 61 -133 146.5t-49 183.5zM449 451q0 -94 46 -162q45 -66 129 -66h5q27 0 56.5 7.5t62.5 21.5v397q-33 16 -63 24q-23 6 -46 5h-12q-86 0 -132 -65.5t-46 -161.5z" />
<glyph unicode="b" horiz-adv-x="1636" d="M2 125v1243h440v-481q6 0 11.5 1t9.5 3q23 4 45 7t45 3h1139q0 -90 -64.5 -154.5t-154.5 -64.5h-381q29 -37 47 -84t26 -96q4 -18 5 -35.5t1 -34.5v-13q0 -7 -2 -16q-6 -90 -54 -176t-126 -143q-84 -61 -180 -88t-197 -31h-16h-16q-70 0 -138.5 9.5t-134.5 25.5 q-70 14 -131 37.5t-121 56.5l-25 16zM442 195l56 -9q29 -4 57 -4q37 0 70.5 11.5t58.5 37.5q23 29 34 81.5t13 109.5v5v5v17v16q-4 78 -38 144.5t-124 72.5q-33 -2 -65.5 -7t-61.5 -13v-467z" />
<glyph unicode="c" horiz-adv-x="1562" d="M2 451q0 100 52 186t147 149q92 61 197.5 87t211.5 28h20h17q49 0 96.5 -8t90.5 -21v74l313 -2v-455h-186q-23 74 -83 135q-58 58 -185 58h-9q-94 0 -163.5 -66.5t-69.5 -164.5q0 -94 66.5 -162t160.5 -70h4h928q-2 -90 -66.5 -154.5t-154.5 -64.5h-742h-17h-20 q-106 4 -211.5 28.5t-197.5 86.5q-94 63 -146.5 149.5t-52.5 186.5z" />
<glyph unicode="d" horiz-adv-x="1669" d="M4 451q0 98 50 183t134 146q80 57 174.5 87t190.5 34h15h14q51 0 100 -6t96 -21v488h441v-1143h522q0 -90 -64.5 -154.5t-154.5 -64.5h-498q-45 0 -85 15.5t-73 41.5l-27 -12q-13 -6 -30 -10q-53 -16 -110.5 -25.5t-116.5 -9.5q-106 0 -208 29.5t-186 91.5 q-84 61 -134 146.5t-50 183.5zM442 451q0 -111 51 -170q49 -57 132 -58h6q33 0 69.5 8.5t77.5 24.5v389q-41 16 -78 26q-30 8 -59 7h-12q-86 0 -136.5 -58t-50.5 -169z" />
<glyph unicode="e" horiz-adv-x="1421" d="M2 451q0 90 46 177t138 152q72 53 166 85t193 36h19h20q102 0 196 -28.5t170 -90.5q76 -63 116 -149t40 -182v-65v-67h-631q23 -51 67 -75.5t101 -24.5h860q-2 -90 -66.5 -154.5t-154.5 -64.5h-635h-2q-125 0 -239.5 22.5t-219.5 98.5q-92 66 -138 153t-46 177zM457 539 h252q-4 31 -13.5 56.5t-21.5 45.5q-14 18 -36 28.5t-44 12.5h-7h-5q-27 0 -50.5 -10t-37.5 -31q-14 -20 -23.5 -45.5t-13.5 -56.5z" />
<glyph unicode="f" horiz-adv-x="1499" d="M0 743v222h225v53q0 190 135.5 326.5t323.5 136.5h221v-221h-162q-33 -8 -55 -36t-22 -63v-196h893q-2 -88 -67 -155t-155 -67h-422q27 -14 50.5 -31.5t44.5 -39.5q63 -63 99 -146.5t36 -179.5v-295q0 -186 -134 -321.5t-325 -135.5q-190 0 -325.5 135.5t-135.5 321.5 v692h-225zM666 -8q0 -39 29.5 -70t70.5 -31t71.5 31t30.5 72v-2v467q0 41 -30.5 71.5t-71.5 30.5h-100v-569z" />
<glyph unicode="g" horiz-adv-x="1529" d="M2 449q0 98 49 183t133 146q86 61 188.5 91t209.5 30q39 0 75.5 -3t73.5 -11v14h414v-680h446q-2 -90 -66.5 -154.5t-154.5 -64.5h-225v-127q0 -76 -40 -142.5t-110 -111.5q-66 -45 -145.5 -66.5t-163.5 -21.5q-82 0 -159.5 22.5t-143.5 65.5q-72 47 -112 115.5 t-40 142.5q0 45 17.5 90t50.5 88q-119 51 -208 154t-89 240zM438 449q0 -106 47 -168q46 -59 134 -60h6q25 0 51 4t55 13v421q-29 10 -56 15q-18 3 -36 3q-9 0 -16 -1q-90 0 -137.5 -59t-47.5 -168zM464.5 -163.5q12.5 -18.5 39.5 -37.5q31 -20 67.5 -31.5t73.5 -15.5 q10 0 21.5 -1t21.5 -1h22q11 0 21 2v-2v248h-24q-47 0 -93 -6q-57 -8 -110 -41q-27 -18 -40 -38q-12 -17 -12 -35q0 -23 12.5 -41.5z" />
<glyph unicode="h" horiz-adv-x="1429" d="M2 0v1362h455v-490q57 16 116.5 26.5t118.5 10.5q82 0 160 -19.5t145 -64.5q78 -51 126 -129t48 -172v-305h324q0 -90 -64.5 -154.5t-154.5 -64.5h-543v489q0 14 -1 31t-3 35q-4 29 -13 55.5t-28 44.5q-14 14 -33.5 20.5t-42.5 6.5q-10 0 -20 -1t-21 -3q-20 -4 -41 -11 l-38 -14l-19 -7q-8 -3 -16 -7v-639h-455z" />
<glyph unicode="i" horiz-adv-x="757" d="M-2 1200q0 68 68.5 115t166.5 47t168 -47t70 -115q0 -66 -69.5 -114t-168.5 -48q-98 0 -166.5 48t-68.5 114zM0 248v651h440v-680h385q-2 -90 -66.5 -154.5t-154.5 -64.5h-356q-102 0 -175 73t-73 175z" />
<glyph unicode="j" horiz-adv-x="1251" d="M2 -125q0 70 38 136.5t112 117.5q80 53 168 70.5t182 17.5v682h413v-680h414q0 -90 -64.5 -154.5t-154.5 -64.5h-195v-127q0 -76 -39.5 -142.5t-109.5 -111.5q-66 -45 -145.5 -66.5t-163.5 -21.5h-13h-12q-76 4 -148.5 26.5t-131.5 61.5q-76 51 -113 117.5t-37 138.5z M236 -164q12 -18 38 -37q31 -20 68 -31.5t74 -15.5q10 0 21.5 -1t21.5 -1h21q11 0 22 2v-2v248h-24q-47 0 -93 -6q-57 -8 -111 -41q-27 -18 -40 -37q-12 -16 -11 -34q0 -25 13 -44zM457 1200q0 68 69.5 115t167.5 47t168 -47t70 -115q0 -66 -69.5 -114t-168.5 -48 q-98 0 -167.5 48t-69.5 114z" />
<glyph unicode="k" horiz-adv-x="1351" d="M0 0v1362h455v-694l352 233h395l-426 -285h19q102 0 173.5 -71.5t71.5 -173.5v-152h410q0 -90 -64.5 -154.5t-156.5 -64.5h-381q-100 0 -173 72.5t-73 175.5v149h-147v-397h-455z" />
<glyph unicode="l" horiz-adv-x="905" d="M-4 1360h440v-1141h545q0 -90 -65.5 -154.5t-155.5 -64.5h-516q-100 0 -173 72.5t-73 175.5z" />
<glyph unicode="m" horiz-adv-x="2142" d="M2 0v901h455v-20q37 10 75.5 17t77.5 9q14 2 28 2h26q84 0 166.5 -22.5t152.5 -71.5q74 41 161 65.5t175 28.5h16h17q84 0 161.5 -20.5t145.5 -63.5q78 -51 126 -129t48 -172v-305h391q0 -90 -64.5 -154.5t-154.5 -64.5h-306h-304v489q0 14 -1 31t-3 35q-4 29 -13.5 55.5 t-27.5 44.5q-14 14 -34 20.5t-42 6.5q-8 0 -16.5 -1t-16.5 -3q-23 -4 -45 -10t-41 -15l-18 -7q-8 -3 -17 -7l8 -29q4 -14 7 -28q2 -14 3 -28.5t1 -29.5v-524h-437v489q0 14 -1 31t-3 35q-4 29 -13 55.5t-28 44.5q-14 14 -33.5 20.5t-41.5 6.5h-9q-4 0 -8 -2q-23 -2 -44 -8 t-40 -13q-8 -2 -13 -4t-11 -4v-651h-455z" />
<glyph unicode="n" horiz-adv-x="1521" d="M2 0v901h455v-29q55 16 114.5 26.5t118.5 10.5q82 0 160 -19.5t147 -64.5q78 -51 125 -129t47 -172v-305h430q-2 -90 -66.5 -154.5t-154.5 -64.5h-647v489q0 14 -1 31t-3 35q-2 29 -12 55.5t-29 44.5q-14 14 -33.5 20.5t-42.5 6.5q-8 0 -16 -1t-16 -3q-23 -4 -45.5 -10 t-40.5 -15l-19 -7q-8 -3 -16 -7v-639h-455z" />
<glyph unicode="o" horiz-adv-x="1499" d="M6 434q0 96 46 188.5t138 157.5q78 55 180.5 88t215.5 33h1001q-2 -90 -66.5 -154.5t-154.5 -64.5h-281q41 -53 61.5 -114.5t20.5 -127.5v-8v-6q-4 -98 -52 -189.5t-132 -152.5t-187.5 -90t-211.5 -29q-106 0 -208 30t-186 89q-90 66 -137 159t-47 191zM455 432 q0 -20 4 -50t12 -60q14 -51 42 -95.5t73 -44.5h2q45 0 72.5 44t41.5 96q8 31 12.5 60.5t4.5 50t-4 50t-13 60.5q-14 51 -41.5 95t-72.5 44t-74 -43t-43 -96q-8 -31 -12 -61t-4 -50z" />
<glyph unicode="p" horiz-adv-x="1460" d="M0 -465v1366h440v-14q37 8 75 11t77 3h13h16q96 -4 191 -33.5t173 -87.5q86 -61 135 -146t49 -183q0 -63 -21.5 -122t-60.5 -110h463q0 -90 -64.5 -154.5t-154.5 -64.5h-63h-160h-108h-115h-296h-149v-467zM440 231q23 -2 44.5 -5t41.5 -3q102 2 152.5 56.5t50.5 171.5 q0 109 -46 169t-136 60q-23 0 -50.5 -4t-56.5 -14v-431z" />
<glyph unicode="q" horiz-adv-x="1615" d="M0 451q0 98 49 183t135 146q74 53 164 83t182 36q12 2 25 2h25q39 0 75.5 -3t73.5 -11v14h440v-682h551q0 -90 -64.5 -154.5t-154.5 -64.5h-332v-465h-440v475l-37 -4l-35 -4q-18 0 -36.5 -1t-36.5 -1q-106 0 -208 27.5t-192 93.5q-86 61 -135 146.5t-49 183.5zM440 451 q0 -117 52.5 -172.5t154.5 -55.5q18 2 40 4l42 4v431q-31 10 -57.5 14t-50.5 4q-88 0 -134.5 -60t-46.5 -169z" />
<glyph unicode="r" horiz-adv-x="1507" d="M-2 0v219h192q10 0 18.5 8.5t8.5 20.5v434h-201v219h1131v-682h452q0 -90 -64.5 -154.5t-154.5 -64.5h-426q-100 0 -173.5 72.5t-73.5 175.5v434h-271v-434q0 -100 -71.5 -174t-174.5 -74h-192z" />
<glyph unicode="s" horiz-adv-x="1544" d="M-4 0v219h174l541 787l180 -125l-35 -50q14 -6 28.5 -13t28.5 -15q113 -61 206 -166t93 -234q0 -51 -17 -97t-50 -87h485q0 -90 -65.5 -154.5t-155.5 -64.5h-879q-66 0 -104.5 11.5t-65.5 23.5q-10 6 -20 11l-18 9l-7 -8l-30 -47h-289zM449 238q39 -14 79.5 -16.5 t81.5 -2.5q14 0 29.5 1t30.5 3q29 4 54.5 14.5t39.5 30.5q10 14 14 31.5t4 38.5q0 16 -3 34.5t-7 37.5q-6 27 -17.5 54.5l-21.5 49.5q-8 16 -16 30l-15 23l-4 4q-2 2 -2 7l-4 4l-4 4z" />
<glyph unicode="t" horiz-adv-x="935" d="M2 248v1112h440v-459h209v-219h-209v-463h576q0 -90 -64.5 -154.5t-154.5 -64.5h-551q-100 0 -173 73t-73 175z" />
<glyph unicode="u" horiz-adv-x="1441" d="M-4 901h438v-536q0 -51 8.5 -83t24.5 -46q12 -10 29.5 -15.5t38.5 -5.5q12 0 25 2l26 4q20 4 40.5 10.5t37.5 12.5q14 6 25 10t20 8v639h454v-682h396q0 -90 -66 -154.5t-156 -64.5h-628v29q-63 -20 -130 -28.5t-135 -8.5q-18 0 -37.5 1t-39.5 3q-127 12 -235.5 77.5 t-131.5 205.5q0 16 -1 28t-1 25z" />
<glyph unicode="v" horiz-adv-x="1548" d="M-2 0v901h455v-682h59l174 434q39 96 100.5 172t198.5 76h617q0 -90 -66 -154.5t-156 -64.5h-235l-174 -434q-39 -94 -134.5 -171t-234.5 -77h-604z" />
<glyph unicode="w" horiz-adv-x="2183" d="M-6 901h438v-526q0 -14 1 -30.5t3 -35.5q4 -29 13.5 -55.5t27.5 -44.5q16 -14 35.5 -20.5t40.5 -6.5q8 0 17.5 1t19.5 3l33 9q16 4 30 10l13 4l12 4v688h455v-684q6 -2 12 -5t14 -5q14 -6 32.5 -11.5t37.5 -9.5q10 -2 19 -3t20 -1q23 0 41 6.5t32 20.5q18 18 27.5 45 t13.5 55q2 18 3 34.5t1 31.5v526h875q0 -90 -64.5 -154.5t-154.5 -64.5h-217v-342q0 -94 -47 -172t-127 -129q-61 -39 -139 -60.5t-169 -21.5h-15h-13q-109 4 -213.5 38t-192.5 93q-82 -55 -184 -89t-207 -40q-12 -2 -23 -2h-22q-82 0 -159.5 20.5t-145.5 61.5 q-78 51 -125 129t-47 172z" />
<glyph unicode="x" horiz-adv-x="1765" d="M80 682v219h440q14 0 27.5 -1t27.5 -5q76 -14 148 -61.5t117 -104.5l159 172h299l-325 -350l244 -332h469q-2 -90 -67 -154.5t-155 -64.5h-432q-12 0 -25.5 1t-25.5 3q-80 14 -154.5 65.5t-119.5 112.5l-35 45l-211 -227h-297l377 406l-205 276h-256z" />
<glyph unicode="y" horiz-adv-x="1519" d="M0 451v450h436v-111v-114v-114v-111q0 -59 11.5 -106.5t37.5 -76.5q23 -27 55.5 -38t67.5 -11h13q6 0 12 2q25 2 49.5 7t44.5 12v661h414v-682h481q-2 -90 -66.5 -154.5t-154.5 -64.5h-260v-125q0 -76 -40 -142.5t-110 -111.5q-66 -45 -145.5 -66.5t-163.5 -21.5 q-82 0 -160 22.5t-143 65.5q-72 47 -112 115.5t-40 142.5q0 45 17.5 90t50.5 88q-119 51 -207 154t-88 240zM450 -135q1 -6 5 -12q4 -12 16 -25.5t29 -24.5q31 -23 67.5 -34t73.5 -15q10 0 21.5 -1t21.5 -1h22q11 0 21 2v-2v248q-59 0 -116.5 -7t-110.5 -40q-27 -18 -40 -37 q-12 -16 -12 -33q1 -10 2 -18z" />
<glyph unicode="z" horiz-adv-x="1607" d="M2 682v219h1255l-438 -682h873q-2 -90 -66.5 -154.5t-155.5 -64.5h-1466l438 682h-440z" />
<glyph unicode="{" />
<glyph unicode="|" />
<glyph unicode="}" />
<glyph unicode="~" />
<glyph unicode="&#xa1;" horiz-adv-x="571" d="M25 -416l147 1055h223l148 -1055h-518zM92 823.5q0 53.5 56.5 92t134.5 38.5q80 0 136 -38.5t56 -92.5q0 -53 -56.5 -91t-135.5 -38q-78 0 -134.5 38t-56.5 91.5z" />
<glyph unicode="&#xa2;" horiz-adv-x="788" d="M6 551q0 74 37 136.5t104 107.5q55 37 118 54t126 21q8 2 17 2h16v201h111v-209q53 -8 101 -29.5t89 -56.5l-137 -170q-8 6 -19 13l-20 12q-4 2 -7 3t-7 3v-193h61h63v-219h-124v-227h-111v227q-82 2 -152.5 23.5t-124.5 56.5q-68 45 -104.5 107.5t-36.5 136.5zM373 551 q0 -8 1 -16.5t3 -16.5q6 -20 17.5 -38.5t29.5 -26.5v196q-16 -8 -27.5 -25.5t-17.5 -35.5q-4 -10 -5 -19.5t-1 -17.5z" />
<glyph unicode="&#xa3;" horiz-adv-x="907" d="M0 498v108h115v154q0 102 72.5 175t172.5 73h422v-220h-229v-182h147v-108h-147v-76q0 -51 -18.5 -95t-53.5 -79l-8 -8q-4 -4 -8 -7q-4 -4 -8 -7t-8 -7h376v-219h-815v219h105v279h-115z" />
<glyph unicode="&#xa4;" horiz-adv-x="1007" d="M2 303l61 111h50q0 4 -1 8t-1 8v8v8h-95l62 111h49q20 66 63 122t105 101q78 55 179 88t216 33h2h2h25q12 0 24 -2q25 -2 50.5 -5t48.5 -9q33 -6 62.5 -15.5t56.5 -19.5l-152 -277q-4 8 -9 16.5t-12 16.5q-18 29 -41.5 52.5t-58.5 23.5q-55 0 -85 -38t-40 -87h236 l-60 -111h-188v-8q0 -4 2 -8v-8v-8h168l-62 -111h-84q16 -35 43 -59.5t72 -24.5h137v-219h-137q-115 0 -216 33t-179 88q-51 37 -91 84t-63 98h-139z" />
<glyph unicode="&#xa5;" horiz-adv-x="1161" d="M0 303v111h213l-17 13l-20 15q0 2 -2 2l-1 1l-173 1v111h88q-27 47 -41 101.5t-14 115.5v127h418v-289q0 -33 22.5 -55t54.5 -22q31 0 54.5 22.5t23.5 54.5v289h416v-127q0 -61 -13.5 -115.5t-39.5 -101.5h86v-111h-172l-1 -1l-1 -1q-2 0 -2 -1q-8 -9 -17.5 -16 t-19.5 -13h213v-111h-322v-303h-411v303h-322z" />
<glyph unicode="&#xa6;" />
<glyph unicode="&#xa7;" />
<glyph unicode="&#xa8;" horiz-adv-x="634" d="M35 1376v185h186v-185h-186zM276 1376v185h185v-185h-185z" />
<glyph unicode="&#xa9;" />
<glyph unicode="&#xaa;" horiz-adv-x="933" d="M8 1114q0 53 26.5 101.5t74.5 80.5q41 29 92 46.5t104 21.5h9h12q25 0 48 -3t44 -9v8h239v-373h267q0 -51 -36 -86t-87 -35h-248q-25 0 -46.5 8.5t-37.5 22.5q-2 -2 -5 -3t-7 -1q-2 -2 -5 -3t-6 -3q-29 -10 -59.5 -15.5t-62.5 -5.5h-20q-9 0 -19 2q-47 4 -93.5 20.5 t-82.5 43.5q-47 35 -74 82t-27 100zM252 1114q0 -51 26.5 -88t73.5 -37q14 0 30.5 4t35.5 13v217q-18 10 -34.5 13t-33.5 3q-47 0 -72.5 -36t-25.5 -89z" />
<glyph unicode="&#xab;" horiz-adv-x="952" d="M27 633l389 389l153 -156l-231 -233l231 -234l-153 -153zM395 633l389 389l154 -156l-231 -233l231 -234l-154 -153z" />
<glyph unicode="&#xac;" />
<glyph unicode="&#xad;" />
<glyph unicode="&#xae;" />
<glyph unicode="&#xaf;" horiz-adv-x="454" />
<glyph unicode="&#xb0;" />
<glyph unicode="&#xb1;" />
<glyph unicode="&#xb2;" />
<glyph unicode="&#xb3;" />
<glyph unicode="&#xb4;" horiz-adv-x="634" d="M41 1536l389 229l96 -227l-426 -141z" />
<glyph unicode="&#xb5;" />
<glyph unicode="&#xb6;" />
<glyph unicode="&#xb7;" horiz-adv-x="454" />
<glyph unicode="&#xb8;" horiz-adv-x="634" d="M182 -446l29 116q6 0 13 -3l16 -7q4 -2 9 -4t11 -4q8 -2 17.5 -4t17.5 -2q41 0 60.5 24.5t19.5 59.5t-19.5 63.5t-60.5 28.5l-105 -2v229h148v-84q102 2 165.5 -66.5t63.5 -168.5v-2q0 -96 -63.5 -167t-165.5 -71q-45 0 -86 17.5t-70 46.5z" />
<glyph unicode="&#xb9;" />
<glyph unicode="&#xba;" horiz-adv-x="901" d="M4 1120v8v11q4 47 28.5 93t71.5 79q43 29 99.5 47t118.5 18h550q0 -49 -35.5 -85t-84.5 -36h-154q18 -23 28.5 -49t14.5 -55q2 -6 2 -13v-14q0 -57 -27.5 -109t-74.5 -87q-41 -31 -92.5 -47.5t-104.5 -20.5h-10h-12q-57 0 -113.5 17.5t-104.5 50.5q-51 35 -75.5 86 t-24.5 106zM250 1118q0 -10 2 -26.5t6 -34.5q8 -29 23.5 -52.5t40.5 -23.5h2q25 0 40 24.5t23 51.5q4 18 6 34.5t2 26.5t-2 26.5t-6 35.5q-8 29 -23.5 52t-39.5 23q-27 0 -42.5 -23.5t-23.5 -51.5q-4 -18 -6 -35t-2 -27z" />
<glyph unicode="&#xbb;" horiz-adv-x="968" d="M25 399l231 234l-231 233l153 156l389 -389l-389 -387zM393 399l232 234l-232 233l154 156l389 -389l-389 -387z" />
<glyph unicode="&#xbc;" />
<glyph unicode="&#xbd;" />
<glyph unicode="&#xbe;" />
<glyph unicode="&#xbf;" horiz-adv-x="1198" d="M8 16q0 49 12.5 98.5t34.5 94.5q55 109 173 190.5t292 104.5q29 4 42 27.5t18 52.5q4 14 5 26.5t3 22.5h217v-10q0 -8 2 -19q4 -39 7 -74.5t3 -70.5q0 -100 -45 -182t-190 -154l-9 -4q-4 -2 -6 -4q-47 -27 -85 -71t-36 -101v-8v-7q0 -4 1.5 -7t1.5 -7q10 -57 54 -84 t95 -27h8h10q27 4 51.5 14.5t45.5 28.5q27 25 34 59t7 68v20v19q-2 10 -2 21v20h360v-29v-30q-2 -16 -2 -32v-30q-4 -145 -108.5 -228t-229.5 -116q-47 -12 -91 -17t-83 -5q-193 0 -323 64.5t-195 160.5q-37 51 -54.5 109.5t-17.5 115.5zM487 823.5q0 53.5 56.5 92 t134.5 38.5q80 0 136 -38.5t56 -92.5q0 -53 -56 -91t-136 -38q-78 0 -134.5 38t-56.5 91.5z" />
<glyph unicode="&#xc0;" horiz-adv-x="1316" d="M0 0q0 96 1 192.5t1 192.5t1 192.5t1 192.5q2 244 176 420t420 176q244 0 420 -175t176 -423v-768h-469v682h-254v-682h-473zM248 1538l96 227l389 -229l-59 -139zM473 901h254v119q0 53 -37 90t-90 37q-51 0 -89 -37t-38 -90v-119z" />
<glyph unicode="&#xc1;" horiz-adv-x="1316" d="M0 0q0 96 1 192.5t1 192.5t1 192.5t1 192.5q2 244 176 420t420 176q244 0 420 -175t176 -423v-768h-469v682h-254v-682h-473zM473 901h254v119q0 53 -37 90t-90 37q-51 0 -89 -37t-38 -90v-119zM512 1536l389 229l96 -227l-426 -141z" />
<glyph unicode="&#xc2;" horiz-adv-x="1316" d="M0 0q0 96 1 192.5t1 192.5t1 192.5t1 192.5q2 244 176 420t420 176q244 0 420 -175t176 -423v-768h-469v682h-254v-682h-473zM342 1401v47l262 229l266 -231v-45h-196l-70 51l-67 -51h-195zM473 901h254v119q0 53 -37 90t-90 37q-51 0 -89 -37t-38 -90v-119z" />
<glyph unicode="&#xc3;" horiz-adv-x="1316" d="M0 0q0 96 1 192.5t1 192.5t1 192.5t1 192.5q2 244 176 420t420 176q244 0 420 -175t176 -423v-768h-469v682h-254v-682h-473zM315 1399v160q0 29 12.5 55t37.5 43q16 12 33.5 17t35.5 5q10 0 20.5 -1t18.5 -5l287 -86v74h133v-160q0 -8 -1 -17t-3 -20q-6 -18 -16.5 -34.5 t-26.5 -26.5t-34.5 -16.5t-39.5 -6.5q-8 0 -17.5 2l-19.5 4l-284 87v-74h-136zM473 901h254v119q0 53 -37 90t-90 37q-51 0 -89 -37t-38 -90v-119z" />
<glyph unicode="&#xc4;" horiz-adv-x="1316" d="M0 0q0 96 1 192.5t1 192.5t1 192.5t1 192.5q2 244 176 420t420 176q244 0 420 -175t176 -423v-768h-469v682h-254v-682h-473zM403 1397v184h187v-184h-187zM473 901h254v119q0 53 -37 90t-90 37q-51 0 -89 -37t-38 -90v-119zM645 1397v184h184v-184h-184z" />
<glyph unicode="&#xc5;" horiz-adv-x="1316" d="M0 0q0 96 1 192.5t1 192.5t1 192.5t1 192.5q2 244 176 420t420 176q244 0 420 -175t176 -423v-768h-469v682h-254v-682h-473zM451 1552q0 68 48 116t113 48q68 0 115 -48t47 -116q0 -66 -47 -113.5t-115 -47.5q-66 0 -113.5 47.5t-47.5 113.5zM473 901h254v119 q0 53 -37 90t-90 37q-51 0 -89 -37t-38 -90v-119zM563 1552q0 -20 14.5 -34.5t34.5 -14.5q23 0 37.5 14.5t14.5 34.5q0 23 -14.5 37.5t-37.5 14.5q-20 0 -34.5 -14.5t-14.5 -37.5z" />
<glyph unicode="&#xc6;" horiz-adv-x="2021" d="M4 0q0 96 1 192.5t1 192.5t1 192.5t1 192.5q0 244 175 420t421 176q109 0 205 -36t174 -101q45 61 114.5 99t157.5 38h633v-219h-395q-51 0 -77.5 -39t-24.5 -86v-3v-3q2 -43 27.5 -79t74.5 -36h395v-219h-395q-98 0 -148.5 -70.5t-52.5 -154.5v-3v-3q0 -88 50.5 -160 t150.5 -72h395v-219h-1157v682h-254v-682h-473zM477 901h254v119q0 53 -37 90t-90 37q-51 0 -89 -37t-38 -90v-119z" />
<glyph unicode="&#xc7;" horiz-adv-x="1220" d="M2 580v241q0 240 171 411t411 171h21q11 0 22 -2q180 -14 330.5 -135t152.5 -318v-110h-408v225q0 49 -34.5 85t-83.5 36q-51 0 -86 -36t-35 -85v-725q0 -49 34.5 -84t84.5 -35h530v-219h-530q-238 0 -409 170t-171 410zM551 -446l29 116q6 0 13 -3t15 -7q4 -2 9.5 -4 l11.5 -4q10 -2 18 -4t17 -2q41 0 60 24.5t19 59.5t-19 63.5t-60 28.5l-105 -2v229h148v-84q102 2 165.5 -66.5t63.5 -168.5v-2q0 -96 -63.5 -167t-165.5 -71q-45 0 -86 17.5t-70 46.5z" />
<glyph unicode="&#xc8;" horiz-adv-x="1239" d="M2 451q0 115 57.5 217t153.5 163q-31 47 -46 95.5t-13 97.5q0 41 10 81t29 77q43 80 121.5 132t181.5 52h632v-219h-395q-51 0 -76.5 -38t-25.5 -85q0 -45 25.5 -84t76.5 -39h395v-219h-395q-100 0 -150.5 -71.5t-50.5 -159.5t50.5 -160t150.5 -72h395v-219h-673 q-186 0 -319.5 132.5t-133.5 318.5zM330 1538l96 227l389 -229l-59 -139z" />
<glyph unicode="&#xc9;" horiz-adv-x="1239" d="M2 451q0 115 57.5 217t153.5 163q-31 47 -46 95.5t-13 97.5q0 41 10 81t29 77q43 80 121.5 132t181.5 52h632v-219h-395q-51 0 -76.5 -38t-25.5 -85q0 -45 25.5 -84t76.5 -39h395v-219h-395q-100 0 -150.5 -71.5t-50.5 -159.5t50.5 -160t150.5 -72h395v-219h-673 q-186 0 -319.5 132.5t-133.5 318.5zM614 1536l390 229l96 -227l-426 -141z" />
<glyph unicode="&#xca;" horiz-adv-x="1239" d="M2 451q0 115 57.5 217t153.5 163q-31 47 -46 95.5t-13 97.5q0 41 10 81t29 77q43 80 121.5 132t181.5 52h632v-219h-395q-51 0 -76.5 -38t-25.5 -85q0 -45 25.5 -84t76.5 -39h395v-219h-395q-100 0 -150.5 -71.5t-50.5 -159.5t50.5 -160t150.5 -72h395v-219h-673 q-186 0 -319.5 132.5t-133.5 318.5zM424 1401v47l262 229l266 -231v-45h-196l-70 51l-68 -51h-194z" />
<glyph unicode="&#xcb;" horiz-adv-x="1239" d="M2 451q0 115 57.5 217t153.5 163q-31 47 -46 95.5t-13 97.5q0 41 10 81t29 77q43 80 121.5 132t181.5 52h632v-219h-395q-51 0 -76.5 -38t-25.5 -85q0 -45 25.5 -84t76.5 -39h395v-219h-395q-100 0 -150.5 -71.5t-50.5 -159.5t50.5 -160t150.5 -72h395v-219h-673 q-186 0 -319.5 132.5t-133.5 318.5zM506 1397v184h186v-184h-186zM748 1397v184h184v-184h-184z" />
<glyph unicode="&#xcc;" horiz-adv-x="583" d="M-141 1538l96 227l389 -229l-59 -139zM-4 0v1366h463v-1366h-463z" />
<glyph unicode="&#xcd;" horiz-adv-x="583" d="M-4 0v1366h463v-1366h-463zM41 1536l389 229l96 -227l-426 -141z" />
<glyph unicode="&#xce;" horiz-adv-x="583" d="M-27 1401v47l263 229l266 -231v-45h-197l-69 51l-68 -51h-195zM-4 0v1366h463v-1366h-463z" />
<glyph unicode="&#xcf;" horiz-adv-x="583" d="M-4 0v1366h463v-1366h-463zM20 1403v184h187v-184h-187zM262 1403v184h184v-184h-184z" />
<glyph unicode="&#xd0;" horiz-adv-x="1361" d="M2 494v219h98v653h582q238 0 409 -171t171 -411v-101v-103q0 -236 -169 -407t-407 -173h-3h-1h-582v494h-98zM561 219h121q49 0 84 35t35 84v344v344q0 49 -35 85t-84 36h-121v-434h107v-219h-107v-275z" />
<glyph unicode="&#xd1;" horiz-adv-x="1251" d="M4 0v1366h291l381 -463v463h463v-1366h-463v559l-211 254v-813h-461zM233 1399v160q0 29 12.5 55t37.5 43q16 12 33.5 17t35.5 5q10 0 20.5 -1t18.5 -5l287 -86v74h133v-160q0 -8 -1 -17t-3 -20q-6 -18 -16.5 -34.5t-26.5 -26.5t-34.5 -16.5t-39.5 -6.5q-8 0 -17 2t-20 4 l-284 87v-74h-136z" />
<glyph unicode="&#xd2;" horiz-adv-x="454" />
<glyph unicode="&#xd3;" horiz-adv-x="1277" d="M-2 821q2 240 172 411t410 171q238 0 408.5 -170t170.5 -412v-278q0 -238 -170 -408t-409 -170q-240 0 -410 170t-170 408zM459 301q0 -49 35.5 -84t85.5 -35q49 0 83.5 35t34.5 84v762q0 49 -34.5 85t-83.5 36t-85 -36t-36 -85v-762zM471 1577l389 229l96 -227 l-426 -141z" />
<glyph unicode="&#xd4;" horiz-adv-x="1277" d="M-2 821q2 240 172 411t410 171q238 0 408.5 -170t170.5 -412v-278q0 -238 -170 -408t-409 -170q-240 0 -410 170t-170 408zM322 1442v47l262 229l266 -231v-45h-197l-69 51l-68 -51h-194zM459 301q0 -49 35.5 -84t85.5 -35q49 0 83.5 35t34.5 84v762q0 49 -34.5 85 t-83.5 36t-85 -36t-36 -85v-762z" />
<glyph unicode="&#xd5;" horiz-adv-x="1277" d="M-2 821q2 240 172 411t410 171q238 0 408.5 -170t170.5 -412v-278q0 -238 -170 -408t-409 -170q-240 0 -410 170t-170 408zM287 1436v159q0 29 12 55.5t37 43.5q16 12 33.5 17t36.5 5q10 0 20 -1t18 -5l287 -86v74h133v-160q0 -8 -1 -17.5t-3 -19.5q-6 -18 -16 -34.5 t-27 -26.5q-16 -10 -34.5 -16.5t-39.5 -6.5q-8 0 -17 2t-19 4l-285 86v-73h-135zM459 301q0 -49 35.5 -84t85.5 -35q49 0 83.5 35t34.5 84v762q0 49 -34.5 85t-83.5 36t-85 -36t-36 -85v-762z" />
<glyph unicode="&#xd6;" horiz-adv-x="1277" d="M-2 821q2 240 172 411t410 171q238 0 408.5 -170t170.5 -412v-278q0 -238 -170 -408t-409 -170q-240 0 -410 170t-170 408zM381 1448v184h186v-184h-186zM459 301q0 -49 35.5 -84t85.5 -35q49 0 83.5 35t34.5 84v762q0 49 -34.5 85t-83.5 36t-85 -36t-36 -85v-762z M623 1448v184h184v-184h-184z" />
<glyph unicode="&#xd7;" />
<glyph unicode="&#xd8;" horiz-adv-x="1277" d="M-2 784q2 240 172 411t410 171q76 0 146.5 -19.5t131.5 -54.5l66 119h104l-92 -170q102 -80 162.5 -198.5t60.5 -258.5v-245q0 -238 -170 -408t-409 -170q-76 0 -147 18.5t-134 51.5l-63 -117h-105l90 168q-100 80 -160.5 199.5t-60.5 257.5zM459 297q0 -49 35.5 -84 t85.5 -35q49 0 83.5 35t34.5 84v508l-239 -479v-29zM459 518l239 481v27q0 49 -34.5 85t-83.5 36t-85 -36t-36 -85v-508z" />
<glyph unicode="&#xd9;" horiz-adv-x="1312" d="M0 514v852h469v-1057q0 -51 38 -89t89 -38q53 0 91 38t38 89v1057h469v-852q0 -250 -178 -399.5t-420 -149.5q-238 0 -417 147.5t-179 401.5zM207 1538l96 227l389 -229l-59 -139z" />
<glyph unicode="&#xda;" horiz-adv-x="1312" d="M0 514v852h469v-1057q0 -51 38 -89t89 -38q53 0 91 38t38 89v1057h469v-852q0 -250 -178 -399.5t-420 -149.5q-238 0 -417 147.5t-179 401.5zM492 1536l389 229l96 -227l-426 -141z" />
<glyph unicode="&#xdb;" horiz-adv-x="1312" d="M0 514v852h469v-1057q0 -51 38 -89t89 -38q53 0 91 38t38 89v1057h469v-852q0 -250 -178 -399.5t-420 -149.5q-238 0 -417 147.5t-179 401.5zM342 1401v47l262 229l266 -231v-45h-196l-70 51l-67 -51h-195z" />
<glyph unicode="&#xdc;" horiz-adv-x="1312" d="M0 514v852h469v-1057q0 -51 38 -89t89 -38q53 0 91 38t38 89v1057h469v-852q0 -250 -178 -399.5t-420 -149.5q-238 0 -417 147.5t-179 401.5zM383 1397v184h186v-184h-186zM625 1397v184h184v-184h-184z" />
<glyph unicode="&#xdd;" horiz-adv-x="454" />
<glyph unicode="&#xde;" horiz-adv-x="1257" d="M57 0v1366h465v-252h114h114q186 0 318 -132t132 -318.5t-132 -318.5t-318 -132h-228v-213h-465zM522 432h76q41 0 71.5 30t30.5 70v132v129q0 41 -30.5 71.5t-71.5 30.5h-76v-463z" />
<glyph unicode="&#xdf;" horiz-adv-x="1593" d="M2 0v756q0 240 171 409.5t411 169.5q135 0 236.5 -96t101.5 -235q0 -63 -25 -123t-70 -105q-8 -10 -14 -21.5t-6 -21.5v-3q0 -1 2 -3v-3v-1q4 -12 14.5 -21.5t28.5 -11.5t36.5 -5t37.5 -9q129 -31 236.5 -119t105.5 -229v-3v-4v-4q-2 -27 -6.5 -51t-14.5 -47h434 q0 -90 -64.5 -154.5t-154.5 -64.5h-915v219h266q43 0 64.5 13.5t23.5 29.5v4q0 2 -2 6q-4 14 -25.5 29.5t-58.5 24.5q-6 2 -13 4t-16 2q-98 29 -188 87t-133 152v-571h-463zM465 817q33 66 91 108t128 62h3q1 0 1 2q6 0 10 4t4 11q0 47 -35.5 79.5t-82.5 32.5 q-49 0 -84 -34.5t-35 -84.5v-45v-45v-45v-45z" />
<glyph unicode="&#xe0;" horiz-adv-x="1615" d="M2 451q0 98 49 183t133 146q74 53 166 84t187 37h21h22q43 0 86 -5t82 -15v18h438v-680h481q0 -90 -65.5 -154.5t-155.5 -64.5h-453q-43 0 -83 14.5t-70 40.5l-11.5 -4t-9.5 -4q-4 -4 -9 -6t-11 -4q-51 -18 -106.5 -27.5t-112.5 -9.5h-22q-11 0 -21 2q-94 4 -186.5 35 t-166.5 84q-84 61 -133 146.5t-49 183.5zM367 1083l96 228l389 -230l-59 -139zM449 451q0 -94 46 -162t134 -66q27 0 56.5 7.5t62.5 21.5v397q-33 16 -63 23.5t-58 5.5q-86 0 -132 -65.5t-46 -161.5z" />
<glyph unicode="&#xe1;" horiz-adv-x="1615" d="M2 451q0 98 49 183t133 146q74 53 166 84t187 37h21h22q43 0 86 -5t82 -15v18h438v-680h481q0 -90 -65.5 -154.5t-155.5 -64.5h-453q-43 0 -83 14.5t-70 40.5l-11.5 -4t-9.5 -4q-4 -4 -9 -6t-11 -4q-51 -18 -106.5 -27.5t-112.5 -9.5h-22q-11 0 -21 2q-94 4 -186.5 35 t-166.5 84q-84 61 -133 146.5t-49 183.5zM449 451q0 -94 46 -162t134 -66q27 0 56.5 7.5t62.5 21.5v397q-33 16 -63 23.5t-58 5.5q-86 0 -132 -65.5t-46 -161.5zM563 1081l389 230l97 -228l-426 -141z" />
<glyph unicode="&#xe2;" horiz-adv-x="1615" d="M2 451q0 98 49 183t133 146q74 53 166 84t187 37h21h22q43 0 86 -5t82 -15v18h438v-680h481q0 -90 -65.5 -154.5t-155.5 -64.5h-453q-43 0 -83 14.5t-70 40.5l-11.5 -4t-9.5 -4q-4 -4 -9 -6t-11 -4q-51 -18 -106.5 -27.5t-112.5 -9.5h-22q-11 0 -21 2q-94 4 -186.5 35 t-166.5 84q-84 61 -133 146.5t-49 183.5zM344 946v47l262 230l266 -232v-45h-196l-70 51l-67 -51h-195zM449 451q0 -94 46 -162t134 -66q27 0 56.5 7.5t62.5 21.5v397q-33 16 -63 23.5t-58 5.5q-86 0 -132 -65.5t-46 -161.5z" />
<glyph unicode="&#xe3;" horiz-adv-x="1615" d="M2 451q0 98 49 183t133 146q74 53 166 84t187 37h21h22q43 0 86 -5t82 -15v18h438v-680h481q0 -90 -65.5 -154.5t-155.5 -64.5h-453q-43 0 -83 14.5t-70 40.5l-11.5 -4t-9.5 -4q-4 -4 -9 -6t-11 -4q-51 -18 -106.5 -27.5t-112.5 -9.5h-22q-11 0 -21 2q-94 4 -186.5 35 t-166.5 84q-84 61 -133 146.5t-49 183.5zM317 969v159q0 29 12.5 55.5t37.5 43.5q16 12 33.5 17t35.5 5q10 0 20.5 -1t18.5 -5l287 -86v74h133v-160q0 -8 -1 -17.5t-3 -19.5q-6 -18 -16.5 -34.5t-26.5 -26.5t-34.5 -16.5t-39.5 -6.5q-8 0 -17 2t-20 4l-284 86v-73h-136z M449 451q0 -94 46 -162t134 -66q27 0 56.5 7.5t62.5 21.5v397q-33 16 -63 23.5t-58 5.5q-86 0 -132 -65.5t-46 -161.5z" />
<glyph unicode="&#xe4;" horiz-adv-x="1615" d="M2 451q0 98 49 183t133 146q74 53 166 84t187 37h21h22q43 0 86 -5t82 -15v18h438v-680h481q0 -90 -65.5 -154.5t-155.5 -64.5h-453q-43 0 -83 14.5t-70 40.5l-11.5 -4t-9.5 -4q-4 -4 -9 -6t-11 -4q-51 -18 -106.5 -27.5t-112.5 -9.5h-22q-11 0 -21 2q-94 4 -186.5 35 t-166.5 84q-84 61 -133 146.5t-49 183.5zM449 451q0 -94 46 -162t134 -66q27 0 56.5 7.5t62.5 21.5v397q-33 16 -63 23.5t-58 5.5q-86 0 -132 -65.5t-46 -161.5zM496 952v185h186v-185h-186zM737 952v185h185v-185h-185z" />
<glyph unicode="&#xe5;" horiz-adv-x="1615" d="M2 451q0 98 49 183t133 146q74 53 166 84t187 37h21h22q43 0 86 -5t82 -15v18h438v-680h481q0 -90 -65.5 -154.5t-155.5 -64.5h-453q-43 0 -83 14.5t-70 40.5l-11.5 -4t-9.5 -4q-4 -4 -9 -6t-11 -4q-51 -18 -106.5 -27.5t-112.5 -9.5h-22q-11 0 -21 2q-94 4 -186.5 35 t-166.5 84q-84 61 -133 146.5t-49 183.5zM420 1102q0 68 48 116t114 48q68 0 114.5 -48.5t46.5 -115.5q0 -66 -47 -114t-114 -48q-66 0 -114 48t-48 114zM449 451q0 -94 46 -162t134 -66q27 0 56.5 7.5t62.5 21.5v397q-33 16 -63 23.5t-58 5.5q-86 0 -132 -65.5t-46 -161.5z M532 1102q0 -20 14.5 -34.5t35.5 -14.5q23 0 37 14t14 35q0 23 -14.5 37t-36.5 14q-20 0 -35 -14t-15 -37z" />
<glyph unicode="&#xe6;" horiz-adv-x="2160" d="M-6 451q0 98 49 183t133 146q70 51 157 82t177 37q14 2 30 2h29q43 0 86 -5t82 -15v18h441v-12q35 8 71.5 11t73.5 3q100 0 195.5 -28.5t169.5 -90.5q76 -63 115.5 -149t39.5 -182v-65v-67h-631q23 -51 68 -75.5t102 -24.5h883q0 -90 -65.5 -154.5t-155.5 -64.5h-660h-2 q-119 0 -230.5 20.5t-213.5 90.5q-12 -6 -24.5 -13.5t-24.5 -13.5l-48 -25q-24 -12 -50 -22q-51 -18 -106.5 -27.5t-113.5 -9.5h-21q-11 0 -22 2q-94 4 -186 35t-166 84q-84 61 -133 146.5t-49 183.5zM440 451q0 -94 46 -162t132 -66q27 0 57 7.5t62 21.5v397 q-33 16 -62.5 23.5t-56.5 5.5q-86 0 -132 -65.5t-46 -161.5zM1194 539h254q-6 31 -14.5 56.5t-22.5 45.5q-14 23 -38.5 32t-53.5 9q-27 0 -50.5 -10t-37.5 -31q-14 -20 -23.5 -45.5t-13.5 -56.5z" />
<glyph unicode="&#xe7;" horiz-adv-x="1562" d="M2 451q0 100 52 186t147 149q92 61 197.5 87t211.5 28h20h17q49 0 96.5 -8t90.5 -21v74l313 -2v-455h-186q-23 74 -83.5 134.5t-193.5 58.5q-94 0 -163.5 -66.5t-69.5 -164.5q0 -94 66.5 -162t160.5 -70h4h928q-2 -90 -66.5 -154.5t-154.5 -64.5h-742h-17h-20 q-106 4 -211.5 28.5t-197.5 86.5q-94 63 -146.5 149.5t-52.5 186.5zM571 -446l29 116q6 0 13.5 -3t15.5 -7q4 -2 9 -4t11 -4q10 -2 18.5 -4t16.5 -2q41 0 60.5 24.5t19.5 59.5t-19.5 63.5t-60.5 28.5l-104 -2v229h147v-84q102 2 165.5 -66.5t63.5 -168.5v-2 q0 -96 -63.5 -167t-165.5 -71q-45 0 -86 17.5t-70 46.5z" />
<glyph unicode="&#xe8;" horiz-adv-x="1421" d="M2 451q0 90 46 177t138 152q72 53 166 85t193 36h19h20q102 0 196 -28.5t170 -90.5q76 -63 116 -149t40 -182v-65v-67h-631q23 -51 67 -75.5t101 -24.5h860q-2 -90 -66.5 -154.5t-154.5 -64.5h-635h-2q-125 0 -239.5 22.5t-219.5 98.5q-92 66 -138 153t-46 177zM152 1083 l96 228l389 -230l-59 -139zM457 539h252q-4 31 -13.5 56.5t-21.5 45.5q-14 18 -36 28.5t-44 12.5h-7h-5q-27 0 -50.5 -10t-37.5 -31q-14 -20 -23.5 -45.5t-13.5 -56.5z" />
<glyph unicode="&#xe9;" horiz-adv-x="1421" d="M2 451q0 90 46 177t138 152q72 53 166 85t193 36h19h20q102 0 196 -28.5t170 -90.5q76 -63 116 -149t40 -182v-65v-67h-631q23 -51 67 -75.5t101 -24.5h860q-2 -90 -66.5 -154.5t-154.5 -64.5h-635h-2q-125 0 -239.5 22.5t-219.5 98.5q-92 66 -138 153t-46 177zM457 539 h252q-4 31 -13.5 56.5t-21.5 45.5q-14 18 -36 28.5t-44 12.5h-7h-5q-27 0 -50.5 -10t-37.5 -31q-14 -20 -23.5 -45.5t-13.5 -56.5zM514 1081l389 230l96 -228l-426 -141z" />
<glyph unicode="&#xea;" horiz-adv-x="1421" d="M2 451q0 90 46 177t138 152q72 53 166 85t193 36h19h20q102 0 196 -28.5t170 -90.5q76 -63 116 -149t40 -182v-65v-67h-631q23 -51 67 -75.5t101 -24.5h860q-2 -90 -66.5 -154.5t-154.5 -64.5h-635h-2q-125 0 -239.5 22.5t-219.5 98.5q-92 66 -138 153t-46 177zM319 946 v47l263 230l266 -232v-45h-197l-69 51l-68 -51h-195zM457 539h252q-4 31 -13.5 56.5t-21.5 45.5q-14 18 -36 28.5t-44 12.5h-7h-5q-27 0 -50.5 -10t-37.5 -31q-14 -20 -23.5 -45.5t-13.5 -56.5z" />
<glyph unicode="&#xeb;" horiz-adv-x="1421" d="M2 451q0 90 46 177t138 152q72 53 166 85t193 36h19h20q102 0 196 -28.5t170 -90.5q76 -63 116 -149t40 -182v-65v-67h-631q23 -51 67 -75.5t101 -24.5h860q-2 -90 -66.5 -154.5t-154.5 -64.5h-635h-2q-125 0 -239.5 22.5t-219.5 98.5q-92 66 -138 153t-46 177zM397 940 v184h187v-184h-187zM457 539h252q-4 31 -13.5 56.5t-21.5 45.5q-14 18 -36 28.5t-44 12.5h-7h-5q-27 0 -50.5 -10t-37.5 -31q-14 -20 -23.5 -45.5t-13.5 -56.5zM639 940v184h184v-184h-184z" />
<glyph unicode="&#xec;" horiz-adv-x="757" d="M-162 1083l96 228l390 -230l-60 -139zM0 248v651h440v-680h385q-2 -90 -66.5 -154.5t-154.5 -64.5h-356q-102 0 -175 73t-73 175z" />
<glyph unicode="&#xed;" horiz-adv-x="757" d="M0 248v651h440v-680h385q-2 -90 -66.5 -154.5t-154.5 -64.5h-356q-102 0 -175 73t-73 175zM158 1075l389 230l96 -228l-426 -141z" />
<glyph unicode="&#xee;" horiz-adv-x="757" d="M-37 942v47l262 230l267 -232v-45h-197l-70 51l-67 -51h-195zM0 248v651h440v-680h385q-2 -90 -66.5 -154.5t-154.5 -64.5h-356q-102 0 -175 73t-73 175z" />
<glyph unicode="&#xef;" horiz-adv-x="757" d="M0 248v651h440v-680h385q-2 -90 -66.5 -154.5t-154.5 -64.5h-356q-102 0 -175 73t-73 175zM6 940v184h187v-184h-187zM248 940v184h184v-184h-184z" />
<glyph unicode="&#xf0;" horiz-adv-x="1443" d="M-2 432v11v10q0 90 44 176t136 151q78 55 180.5 88t216.5 33h140v105h-187l45 69h142v66h-230v219h422q102 0 175 -73t73 -175v-37h176l-45 -69h-131v-560q-2 -61 -22.5 -118.5t-59.5 -108.5h473q0 -86 -57 -152.5t-141 -66.5h-381q-39 0 -73 12.5t-63 32.5 q-49 -18 -103 -29.5t-110 -13.5q-12 -2 -23 -2h-22h-12h-12q-100 4 -196.5 33.5t-174.5 87.5q-86 61 -131 143t-49 168zM442 451q0 -18 3.5 -45t11.5 -54q14 -49 42.5 -91t75.5 -42h3q45 0 73.5 41t42.5 90q6 29 10.5 55.5t4.5 45t-4.5 45t-10.5 53.5q-14 49 -42.5 91 t-76.5 42q-47 0 -75.5 -41t-42.5 -90q-6 -29 -10.5 -55.5t-4.5 -44.5z" />
<glyph unicode="&#xf1;" horiz-adv-x="1521" d="M2 0v901h455v-29q55 16 114.5 26.5t118.5 10.5q82 0 160 -19.5t147 -64.5q78 -51 125 -129t47 -172v-305h430q-2 -90 -66.5 -154.5t-154.5 -64.5h-647v489q0 14 -1 31t-3 35q-2 29 -12 55.5t-29 44.5q-14 14 -33.5 20.5t-42.5 6.5q-8 0 -16 -1t-16 -3q-23 -4 -45.5 -10 t-40.5 -15l-19 -7q-8 -3 -16 -7v-639h-455zM262 963v159q0 29 12.5 55.5t36.5 43.5q16 12 33.5 17t36.5 5q10 0 20.5 -1t18.5 -5l287 -86v74h133v-160q0 -8 -1 -17.5t-3 -19.5q-6 -18 -16.5 -34.5t-26.5 -26.5t-35 -16.5t-39 -6.5q-8 0 -17.5 2l-19.5 4l-285 86v-73h-135z " />
<glyph unicode="&#xf2;" horiz-adv-x="1499" d="M6 434q0 96 46 188.5t138 157.5q78 55 180.5 88t215.5 33h1001q-2 -90 -66.5 -154.5t-154.5 -64.5h-281q41 -53 61.5 -114.5t20.5 -127.5v-8v-6q-4 -98 -52 -189.5t-132 -152.5t-187.5 -90t-211.5 -29q-106 0 -208 30t-186 89q-90 66 -137 159t-47 191zM244 1083l96 228 l389 -230l-59 -139zM455 432q0 -20 4 -50t12 -60q14 -51 42 -95.5t73 -44.5h2q45 0 72.5 44t41.5 96q8 31 12.5 60.5t4.5 50t-4 50t-13 60.5q-14 51 -41.5 95t-72.5 44t-74 -43t-43 -96q-8 -31 -12 -61t-4 -50z" />
<glyph unicode="&#xf3;" horiz-adv-x="1499" d="M6 434q0 96 46 188.5t138 157.5q78 55 180.5 88t215.5 33h1001q-2 -90 -66.5 -154.5t-154.5 -64.5h-281q41 -53 61.5 -114.5t20.5 -127.5v-8v-6q-4 -98 -52 -189.5t-132 -152.5t-187.5 -90t-211.5 -29q-106 0 -208 30t-186 89q-90 66 -137 159t-47 191zM455 432 q0 -20 4 -50t12 -60q14 -51 42 -95.5t73 -44.5h2q45 0 72.5 44t41.5 96q8 31 12.5 60.5t4.5 50t-4 50t-13 60.5q-14 51 -41.5 95t-72.5 44t-74 -43t-43 -96q-8 -31 -12 -61t-4 -50zM582 1081l389 230l96 -228l-426 -141z" />
<glyph unicode="&#xf4;" horiz-adv-x="1499" d="M6 434q0 96 46 188.5t138 157.5q78 55 180.5 88t215.5 33h1001q-2 -90 -66.5 -154.5t-154.5 -64.5h-281q41 -53 61.5 -114.5t20.5 -127.5v-8v-6q-4 -98 -52 -189.5t-132 -152.5t-187.5 -90t-211.5 -29q-106 0 -208 30t-186 89q-90 66 -137 159t-47 191zM338 946v47 l262 230l266 -232v-45h-196l-70 51l-68 -51h-194zM455 432q0 -20 4 -50t12 -60q14 -51 42 -95.5t73 -44.5h2q45 0 72.5 44t41.5 96q8 31 12.5 60.5t4.5 50t-4 50t-13 60.5q-14 51 -41.5 95t-72.5 44t-74 -43t-43 -96q-8 -31 -12 -61t-4 -50z" />
<glyph unicode="&#xf5;" horiz-adv-x="1499" d="M6 434q0 96 46 188.5t138 157.5q78 55 180.5 88t215.5 33h1001q-2 -90 -66.5 -154.5t-154.5 -64.5h-281q41 -53 61.5 -114.5t20.5 -127.5v-8v-6q-4 -98 -52 -189.5t-132 -152.5t-187.5 -90t-211.5 -29q-106 0 -208 30t-186 89q-90 66 -137 159t-47 191zM317 963v159 q0 29 12.5 55.5t37.5 43.5q16 12 33.5 17t35.5 5q10 0 20.5 -1t18.5 -5l287 -86v74h133v-160q0 -8 -1 -17.5t-3 -19.5q-6 -18 -16.5 -34.5t-26.5 -26.5t-34.5 -16.5t-39.5 -6.5q-8 0 -17 2t-20 4l-284 86v-73h-136zM455 432q0 -20 4 -50t12 -60q14 -51 42 -95.5t73 -44.5h2 q45 0 72.5 44t41.5 96q8 31 12.5 60.5t4.5 50t-4 50t-13 60.5q-14 51 -41.5 95t-72.5 44t-74 -43t-43 -96q-8 -31 -12 -61t-4 -50z" />
<glyph unicode="&#xf6;" horiz-adv-x="1499" d="M6 434q0 96 46 188.5t138 157.5q78 55 180.5 88t215.5 33h1001q-2 -90 -66.5 -154.5t-154.5 -64.5h-281q41 -53 61.5 -114.5t20.5 -127.5v-8v-6q-4 -98 -52 -189.5t-132 -152.5t-187.5 -90t-211.5 -29q-106 0 -208 30t-186 89q-90 66 -137 159t-47 191zM422 940v184h186 v-184h-186zM455 432q0 -20 4 -50t12 -60q14 -51 42 -95.5t73 -44.5h2q45 0 72.5 44t41.5 96q8 31 12.5 60.5t4.5 50t-4 50t-13 60.5q-14 51 -41.5 95t-72.5 44t-74 -43t-43 -96q-8 -31 -12 -61t-4 -50zM664 940v184h184v-184h-184z" />
<glyph unicode="&#xf7;" />
<glyph unicode="&#xf8;" horiz-adv-x="1501" d="M-33 -109l223 224l-3 3q-1 1 -5 3q-90 66 -136 152.5t-46 179.5v11v9q6 84 51 165t131 142q78 55 180.5 88t217.5 33h397l176 176h121l-174 -176h485q0 -90 -64.5 -154.5t-154.5 -64.5h-287q33 -43 52.5 -89t25.5 -93q2 -12 3 -23.5t1 -23.5q0 -94 -48 -181.5 t-136 -150.5q-84 -59 -187.5 -90t-211.5 -31q-82 0 -160 17.5t-150 52.5l-178 -179h-123zM446 451q0 -14 3.5 -33t5.5 -39l223 223q-14 35 -39 57.5t-59 22.5q-45 0 -74 -41t-43 -90q-8 -29 -12.5 -55.5t-4.5 -44.5zM487 289q16 -31 39 -50.5t56 -19.5q45 0 73.5 41t42.5 90 q6 29 10.5 55.5t4.5 45.5q0 12 -1 27.5t-5 29.5z" />
<glyph unicode="&#xf9;" horiz-adv-x="1441" d="M-4 901h438v-536q0 -51 8.5 -83t24.5 -46q12 -10 29.5 -15.5t38.5 -5.5q12 0 25 2l26 4q20 4 40.5 10.5t37.5 12.5q14 6 25 10t20 8v639h454v-682h396q0 -90 -66 -154.5t-156 -64.5h-628v29q-63 -20 -130 -28.5t-135 -8.5q-18 0 -37.5 1t-39.5 3q-127 12 -235.5 77.5 t-131.5 205.5q0 16 -1 28t-1 25zM188 1083l97 228l389 -230l-60 -139z" />
<glyph unicode="&#xfa;" horiz-adv-x="1441" d="M-4 901h438v-536q0 -51 8.5 -83t24.5 -46q12 -10 29.5 -15.5t38.5 -5.5q12 0 25 2l26 4q20 4 40.5 10.5t37.5 12.5q14 6 25 10t20 8v639h454v-682h396q0 -90 -66 -154.5t-156 -64.5h-628v29q-63 -20 -130 -28.5t-135 -8.5q-18 0 -37.5 1t-39.5 3q-127 12 -235.5 77.5 t-131.5 205.5q0 16 -1 28t-1 25zM489 1075l390 230l96 -228l-426 -141z" />
<glyph unicode="&#xfb;" horiz-adv-x="1441" d="M-4 901h438v-536q0 -51 8.5 -83t24.5 -46q12 -10 29.5 -15.5t38.5 -5.5q12 0 25 2l26 4q20 4 40.5 10.5t37.5 12.5q14 6 25 10t20 8v639h454v-682h396q0 -90 -66 -154.5t-156 -64.5h-628v29q-63 -20 -130 -28.5t-135 -8.5q-18 0 -37.5 1t-39.5 3q-127 12 -235.5 77.5 t-131.5 205.5q0 16 -1 28t-1 25zM307 946v47l262 230l267 -232v-45h-197l-70 51l-67 -51h-195z" />
<glyph unicode="&#xfc;" horiz-adv-x="1441" d="M-4 901h438v-536q0 -51 8.5 -83t24.5 -46q12 -10 29.5 -15.5t38.5 -5.5q12 0 25 2l26 4q20 4 40.5 10.5t37.5 12.5q14 6 25 10t20 8v639h454v-682h396q0 -90 -66 -154.5t-156 -64.5h-628v29q-63 -20 -130 -28.5t-135 -8.5q-18 0 -37.5 1t-39.5 3q-127 12 -235.5 77.5 t-131.5 205.5q0 16 -1 28t-1 25zM360 952v185h187v-185h-187zM602 952v185h184v-185h-184z" />
<glyph unicode="&#xfd;" horiz-adv-x="454" />
<glyph unicode="&#xfe;" horiz-adv-x="1468" d="M-2 -465v1827h438v-475q37 8 75 11t77 3h15h15q96 -4 190.5 -33.5t174.5 -87.5q84 -61 134 -146t50 -183q0 -63 -20.5 -122t-61.5 -110h492q0 -90 -64.5 -154.5t-156.5 -64.5h-920v-467zM436 231q23 -2 44.5 -5t41.5 -3q102 2 153.5 56.5t51.5 171.5q0 109 -46 169 t-138 60q-23 0 -50.5 -4t-56.5 -14v-431z" />
<glyph unicode="&#xff;" horiz-adv-x="1519" d="M0 451v450h436v-111v-114v-114v-111q0 -59 11.5 -106.5t37.5 -76.5q23 -27 55.5 -38t67.5 -11h13q6 0 12 2q25 2 49.5 7t44.5 12v661h414v-682h481q-2 -90 -66.5 -154.5t-154.5 -64.5h-260v-125q0 -76 -40 -142.5t-110 -111.5q-66 -45 -145.5 -66.5t-163.5 -21.5 q-82 0 -160 22.5t-143 65.5q-72 47 -112 115.5t-40 142.5q0 45 17.5 90t50.5 88q-119 51 -207 154t-88 240zM385 946v184h186v-184h-186zM449 -123q0 -6 1 -12t5 -12q4 -12 16 -25.5t29 -24.5q31 -23 67.5 -34t73.5 -15q10 0 21.5 -1t21.5 -1h22q11 0 21 2v-2v248 q-59 0 -116.5 -7t-110.5 -40q-27 -18 -40 -37t-11 -39zM627 946v184h184v-184h-184z" />
<glyph unicode="&#x152;" horiz-adv-x="1949" d="M2 580v204q0 240 170 411t410 171q102 0 192 -33t166 -92q45 55 112.5 90t149.5 35h633v-219h-395q-51 0 -78 -39t-25 -86v-3v-3q2 -43 28 -79t75 -36h395v-219h-395q-100 0 -151.5 -72.5t-49.5 -160.5q0 -86 50 -158t151 -72h395v-219h-674q-76 0 -144.5 23.5 t-125.5 66.5q-68 -43 -145.5 -66.5t-163.5 -23.5q-240 0 -410 170t-170 410zM463 338q0 -49 34.5 -84t84.5 -35q49 0 84.5 35t35.5 84v688q0 49 -35.5 85t-84.5 36t-84 -36t-35 -85v-688z" />
<glyph unicode="&#x153;" horiz-adv-x="2164" d="M8 453v11v9q6 84 52 165t133 142q78 55 179 88t216 33h796q84 0 159 -33.5t136 -85.5q76 -63 116 -149t40 -182v-65v-67h-631q23 -51 68 -75.5t102 -24.5h910q0 -90 -66 -154.5t-156 -64.5h-686q-115 0 -221 18.5t-205 79.5q-74 -45 -158.5 -69.5t-170.5 -28.5h-17h-16 q-106 0 -209 30.5t-186 90.5q-90 66 -137.5 153t-47.5 179zM457 451q0 -18 3 -45t11 -54q14 -49 42 -91t75 -42h2q45 0 73.5 41t43.5 90q6 29 10 55.5t4 45t-3 45t-11 53.5q-14 49 -43 91t-76 42q-45 0 -74 -41t-43 -90q-6 -29 -10 -55.5t-4 -44.5zM1186 539h254 q-6 31 -14.5 56.5t-22.5 45.5t-37 29.5t-47 11.5h-12q-25 -2 -47.5 -11t-36.5 -30q-14 -20 -22.5 -45.5t-14.5 -56.5z" />
<glyph unicode="&#x178;" horiz-adv-x="1277" d="M-2 1366h463v-1065q0 -49 34.5 -84t86.5 -35q47 0 82.5 34t35.5 83v1067h459v-1581q0 -100 -71.5 -173t-174.5 -73l-450 -2v219h237v219q-33 -6 -67.5 -9t-71.5 -3q-18 0 -35.5 1t-36.5 3q-92 8 -178 38t-149 81q-76 59 -119 150.5t-43 216.5zM403 1376v185h187v-185 h-187zM645 1376v185h184v-185h-184z" />
<glyph unicode="&#x2c6;" horiz-adv-x="634" d="M29 1399v160q0 29 12 55t37 43q16 12 33.5 17t35.5 5q10 0 20.5 -1t18.5 -5l287 -86v74h133v-160q0 -8 -1 -17t-3 -20q-6 -18 -16.5 -34.5t-26.5 -26.5t-34.5 -16.5t-39.5 -6.5q-8 0 -17 2t-19 4l-285 87v-74h-135z" />
<glyph unicode="&#x2dc;" horiz-adv-x="634" d="M55 1401v47l262 229l267 -231v-45h-197l-70 51l-67 -51h-195z" />
<glyph unicode="&#x2000;" horiz-adv-x="903" />
<glyph unicode="&#x2001;" horiz-adv-x="1806" />
<glyph unicode="&#x2002;" horiz-adv-x="903" />
<glyph unicode="&#x2003;" horiz-adv-x="1806" />
<glyph unicode="&#x2004;" horiz-adv-x="602" />
<glyph unicode="&#x2005;" horiz-adv-x="450" />
<glyph unicode="&#x2006;" horiz-adv-x="301" />
<glyph unicode="&#x2007;" horiz-adv-x="301" />
<glyph unicode="&#x2008;" horiz-adv-x="225" />
<glyph unicode="&#x2009;" horiz-adv-x="360" />
<glyph unicode="&#x200a;" horiz-adv-x="100" />
<glyph unicode="&#x2010;" horiz-adv-x="483" d="M23 494v219h440v-219h-440z" />
<glyph unicode="&#x2011;" horiz-adv-x="483" d="M23 494v219h440v-219h-440z" />
<glyph unicode="&#x2012;" horiz-adv-x="483" d="M23 494v219h440v-219h-440z" />
<glyph unicode="&#x2013;" horiz-adv-x="927" d="M29 494v219h880v-219h-880z" />
<glyph unicode="&#x2014;" horiz-adv-x="1730" d="M-2 494v219h1761v-219h-1761z" />
<glyph unicode="&#x2018;" horiz-adv-x="376" d="M10 1122q0 18 8.5 36t18.5 32l184 254l121 -164l-47 -63q25 -16 39 -41t14 -54q0 -53 -49 -91t-119 -38t-120 38t-50 91z" />
<glyph unicode="&#x2019;" horiz-adv-x="376" d="M12 1274q0 53 49.5 91t118.5 38q72 0 121 -38t49 -91q0 -18 -8 -34.5t-18 -33.5l-185 -254l-121 164l48 64q-25 16 -39.5 41.5t-14.5 52.5z" />
<glyph unicode="&#x201a;" horiz-adv-x="376" d="M12 86q0 53 49.5 91t118.5 38q72 0 121 -38t49 -91q0 -18 -8 -34.5t-18 -33.5l-185 -254l-121 164l48 64q-25 16 -39.5 41.5t-14.5 52.5z" />
<glyph unicode="&#x201c;" horiz-adv-x="759" d="M12 1274q0 53 49.5 91t118.5 38q72 0 121 -38t49 -91q0 -18 -8 -34.5t-18 -33.5l-185 -254l-121 164l48 64q-25 16 -39.5 41.5t-14.5 52.5zM381 1274q0 53 49 91t119 38q72 0 121 -38t49 -91q0 -18 -8.5 -34.5t-18.5 -33.5l-184 -254l-121 164l47 64q-25 16 -39 41.5 t-14 52.5z" />
<glyph unicode="&#x201d;" horiz-adv-x="739" d="M10 1122q0 18 8.5 36t18.5 32l184 254l121 -164l-47 -63q25 -16 39 -41t14 -54q0 -53 -49 -91t-119 -38t-120 38t-50 91zM379 1122q0 18 8 36t19 32l184 254l121 -164l-47 -63q25 -16 39 -41t14 -54q0 -53 -49.5 -91t-118.5 -38q-70 0 -120 38t-50 91z" />
<glyph unicode="&#x201e;" horiz-adv-x="747" d="M12 66q0 53 49.5 91t118.5 38q72 0 121 -38t49 -91q0 -18 -8 -35t-18 -31l-185 -256l-121 164l48 63q-25 18 -39.5 43t-14.5 52zM381 66q0 53 49 91t119 38q72 0 121 -38t49 -91q0 -18 -8.5 -35t-18.5 -31l-184 -256l-121 164l47 63q-25 18 -39 43t-14 52z" />
<glyph unicode="&#x2022;" horiz-adv-x="552" d="M49 602q0 96 68.5 165t165.5 69q96 0 164.5 -69t68.5 -165t-68.5 -164.5t-164.5 -68.5t-165 68.5t-69 164.5z" />
<glyph unicode="&#x2026;" horiz-adv-x="1048" d="M63 106q0 53 43.5 91.5t102.5 38.5t101 -38t42 -91.5t-42 -91.5t-101 -38t-102.5 38t-43.5 91zM401 106q0 53 43 91.5t103 38.5q59 0 101 -38t42 -91.5t-42 -91.5t-101 -38t-102.5 38t-43.5 91zM739 106q0 53 43 91.5t103 38.5q59 0 101 -38t42 -91.5t-42 -91.5t-101 -38 t-102.5 38t-43.5 91z" />
<glyph unicode="&#x202f;" horiz-adv-x="360" />
<glyph unicode="&#x2039;" horiz-adv-x="598" d="M27 633l389 389l153 -156l-231 -233l231 -234l-153 -153z" />
<glyph unicode="&#x203a;" horiz-adv-x="598" d="M25 399l231 234l-231 233l153 156l389 -389l-389 -387z" />
<glyph unicode="&#x205f;" horiz-adv-x="450" />
<glyph unicode="&#x2122;" />
<glyph unicode="&#xe000;" horiz-adv-x="900" d="M0 900h900v-900h-900v900z" />
<glyph unicode="&#xfb01;" horiz-adv-x="2256" d="M1497 1200q0 68 68.5 115t166.5 47t168 -47t70 -115q0 -66 -69.5 -114t-168.5 -48q-98 0 -166.5 48t-68.5 114zM1499 248v651h440v-680h385q-2 -90 -66.5 -154.5t-154.5 -64.5h-356q-102 0 -175 73t-73 175zM0 743v222h225v53q0 190 135.5 326.5t323.5 136.5h221v-221 h-162q-33 -8 -55 -36t-22 -63v-196h893q-2 -88 -67 -155t-155 -67h-422q27 -14 50.5 -31.5t44.5 -39.5q63 -63 99 -146.5t36 -179.5v-295q0 -186 -134 -321.5t-325 -135.5q-190 0 -325.5 135.5t-135.5 321.5v692h-225zM666 -8q0 -39 29.5 -70t70.5 -31t71.5 31t30.5 72v-2 v467q0 41 -30.5 71.5t-71.5 30.5h-100v-569z" />
<glyph unicode="&#xfb02;" horiz-adv-x="2404" d="M1495 1360h440v-1141h545q0 -90 -65.5 -154.5t-155.5 -64.5h-516q-100 0 -173 72.5t-73 175.5zM0 743v222h225v53q0 190 135.5 326.5t323.5 136.5h221v-221h-162q-33 -8 -55 -36t-22 -63v-196h893q-2 -88 -67 -155t-155 -67h-422q27 -14 50.5 -31.5t44.5 -39.5 q63 -63 99 -146.5t36 -179.5v-295q0 -186 -134 -321.5t-325 -135.5q-190 0 -325.5 135.5t-135.5 321.5v692h-225zM666 -8q0 -39 29.5 -70t70.5 -31t71.5 31t30.5 72v-2v467q0 41 -30.5 71.5t-71.5 30.5h-100v-569z" />
<glyph unicode="&#xfb03;" horiz-adv-x="3756" d="M2996 1200q0 68 68.5 115t166.5 47t168 -47t70 -115q0 -66 -69.5 -114t-168.5 -48q-98 0 -166.5 48t-68.5 114zM2998 248v651h440v-680h385q-2 -90 -66.5 -154.5t-154.5 -64.5h-356q-102 0 -175 73t-73 175zM1499 743v222h225v53q0 190 135.5 326.5t323.5 136.5h221v-221 h-162q-33 -8 -55 -36t-22 -63v-196h893q-2 -88 -67 -155t-155 -67h-422q27 -14 50.5 -31.5t44.5 -39.5q63 -63 99 -146.5t36 -179.5v-295q0 -186 -134 -321.5t-325 -135.5q-190 0 -325.5 135.5t-135.5 321.5v692h-225zM2165 -8q0 -39 29.5 -70t70.5 -31t71.5 31t30.5 72v-2 v467q0 41 -30.5 71.5t-71.5 30.5h-100v-569zM0 743v222h225v53q0 190 135.5 326.5t323.5 136.5h221v-221h-162q-33 -8 -55 -36t-22 -63v-196h893q-2 -88 -67 -155t-155 -67h-422q27 -14 50.5 -31.5t44.5 -39.5q63 -63 99 -146.5t36 -179.5v-295q0 -186 -134 -321.5 t-325 -135.5q-190 0 -325.5 135.5t-135.5 321.5v692h-225zM666 -8q0 -39 29.5 -70t70.5 -31t71.5 31t30.5 72v-2v467q0 41 -30.5 71.5t-71.5 30.5h-100v-569z" />
<glyph unicode="&#xfb04;" horiz-adv-x="3903" d="M2994 1360h440v-1141h545q0 -90 -65.5 -154.5t-155.5 -64.5h-516q-100 0 -173 72.5t-73 175.5zM1499 743v222h225v53q0 190 135.5 326.5t323.5 136.5h221v-221h-162q-33 -8 -55 -36t-22 -63v-196h893q-2 -88 -67 -155t-155 -67h-422q27 -14 50.5 -31.5t44.5 -39.5 q63 -63 99 -146.5t36 -179.5v-295q0 -186 -134 -321.5t-325 -135.5q-190 0 -325.5 135.5t-135.5 321.5v692h-225zM2165 -8q0 -39 29.5 -70t70.5 -31t71.5 31t30.5 72v-2v467q0 41 -30.5 71.5t-71.5 30.5h-100v-569zM0 743v222h225v53q0 190 135.5 326.5t323.5 136.5h221 v-221h-162q-33 -8 -55 -36t-22 -63v-196h893q-2 -88 -67 -155t-155 -67h-422q27 -14 50.5 -31.5t44.5 -39.5q63 -63 99 -146.5t36 -179.5v-295q0 -186 -134 -321.5t-325 -135.5q-190 0 -325.5 135.5t-135.5 321.5v692h-225zM666 -8q0 -39 29.5 -70t70.5 -31t71.5 31t30.5 72 v-2v467q0 41 -30.5 71.5t-71.5 30.5h-100v-569z" />
</font>
</defs>
</svg>
