<?xml version="1.0" standalone="no"?>
<!DOCTYPE svg PUBLIC "-//W3C//DTD SVG 1.1//EN" "http://www.w3.org/Graphics/SVG/1.1/DTD/svg11.dtd" >
<svg>
<metadata>
Created by FontForge 20110222 at Tue Feb 24 17:20:31 2015
 By deploy user
Copyright (c) 1987 Adobe Systems Incorporated. All rights reserved.Univers is a registered trademark of Linotype Company.
</metadata>
<defs>
<font id="Univers65Bold" horiz-adv-x="1139" >
  <font-face 
    font-family="Univers 65 Bold"
    font-weight="400"
    font-stretch="normal"
    units-per-em="2048"
    panose-1="2 11 8 0 0 0 0 0 0 0"
    ascent="1638"
    descent="-410"
    x-height="1028"
    cap-height="1479"
    bbox="-309 -451 2048 2044"
    underline-thickness="56"
    underline-position="-68"
    unicode-range="U+0020-F002"
  />
<missing-glyph horiz-adv-x="1536" 
d="M256 0v1280h1024v-1280h-1024zM1247 33v1214h-958v-1214h958z" />
    <glyph glyph-name=".notdef" horiz-adv-x="1536" 
d="M256 0v1280h1024v-1280h-1024zM1247 33v1214h-958v-1214h958z" />
    <glyph glyph-name=".null" horiz-adv-x="0" 
 />
    <glyph glyph-name="nonmarkingreturn" horiz-adv-x="569" 
 />
    <glyph glyph-name="space" unicode=" " horiz-adv-x="569" 
 />
    <glyph glyph-name="exclam" unicode="!" horiz-adv-x="797" 
d="M537 1481l-27 -1078h-211l-37 1078h275zM537 0h-261v272h261v-272z" />
    <glyph glyph-name="quotedbl" unicode="&#x22;" horiz-adv-x="971" 
d="M100 1479h287v-533h-287v533zM584 1479h286v-533h-286v533z" />
    <glyph glyph-name="numbersign" unicode="#" 
d="M412 1417h204l-75 -395h198l76 395h203l-76 -395h156v-205h-191l-47 -272h184v-205h-231l-63 -340h-205l63 340h-198l-64 -340h-205l64 340h-180v205h223l47 272h-191v205h232zM500 817l-47 -272h200l52 272h-205z" />
    <glyph glyph-name="dollar" unicode="$" 
d="M625 551v-346q145 16 145 168q0 78 -41 121q-31 32 -104 57zM625 1509v-92q432 -39 432 -399v-8h-297q-6 194 -135 202v-378q215 -50 317 -123q145 -105 145 -293q0 -187 -145 -307q-133 -111 -305 -111h-12v-92h-113v92h-16q-207 0 -326 113q-121 112 -121 315v12h297
v-16q0 -82 37 -141q47 -74 129 -78v370q-244 70 -326 132q-123 96 -123 303q0 164 144 286q135 113 305 121v92h113zM512 864v348q-61 0 -96 -55q-35 -57 -35 -131q0 -115 131 -162z" />
    <glyph glyph-name="percent" unicode="%" horiz-adv-x="1821" 
d="M1386 1575l-778 -1598h-153l778 1598h153zM1397 756q338 0 338 -394q0 -393 -338 -393t-338 393q0 394 338 394zM1282 362q0 -215 100 -215q7 0 15 3q114 0 114 212q0 213 -114 213q-8 3 -15 3q-100 0 -100 -216zM465 1448q338 0 338 -393t-338 -393t-338 393t338 393z
M350 1055q0 -215 101 -215q6 0 14 2q115 0 115 213t-115 213q-8 2 -14 2q-101 0 -101 -215z" />
    <glyph glyph-name="ampersand" unicode="&#x26;" horiz-adv-x="1593" 
d="M645 973q150 102 150 215q0 117 -158 117q-64 0 -105 -37q-40 -37 -40 -90q0 -76 153 -205zM1217 0l-115 133q-82 -76 -219 -121q-127 -43 -248 -43q-229 0 -389 99q-193 114 -193 329q0 277 320 473q-178 138 -178 320q0 164 151 250q121 69 297 69t299 -69
q150 -86 150 -250q0 -119 -91 -225q-77 -91 -198 -152l299 -301q59 96 74 264q10 113 10 144h317v-19q0 -47 -16 -139q-43 -236 -189 -455l301 -307h-382zM915 297l-385 391q-139 -119 -139 -268q0 -103 78 -164q70 -57 174 -57q64 0 145 30q82 29 127 68z" />
    <glyph glyph-name="quotesingle" unicode="'" horiz-adv-x="487" 
d="M100 1479h287v-533h-287v533z" />
    <glyph glyph-name="parenleft" unicode="(" horiz-adv-x="682" 
d="M350 1479h209q-153 -467 -153 -877q0 -295 151 -799h-207q-190 488 -190 818q0 215 55 438q39 160 135 420z" />
    <glyph glyph-name="parenright" unicode=")" horiz-adv-x="682" 
d="M332 -197h-209q153 467 153 877q0 295 -151 799h207q190 -488 190 -817q0 -216 -55 -439q-39 -160 -135 -420z" />
    <glyph glyph-name="asterisk" unicode="*" 
d="M455 993l-310 -41v217l312 -45l-193 244l191 105l114 -283l121 289l191 -113l-201 -242l313 37l-4 -217l-305 47l193 -252l-191 -104l-119 289l-118 -291l-185 110z" />
    <glyph glyph-name="plus" unicode="+" horiz-adv-x="1196" 
d="M475 991h246v-373h373v-245h-373v-373h-246v373h-373v245h373v373z" />
    <glyph glyph-name="comma" unicode="," horiz-adv-x="569" 
d="M57 -229l152 501h303l-244 -501h-211z" />
    <glyph glyph-name="hyphen" unicode="-" horiz-adv-x="682" 
d="M596 426h-508v229h508v-229z" />
    <glyph glyph-name="period" unicode="." horiz-adv-x="569" 
d="M416 0h-260v272h260v-272z" />
    <glyph glyph-name="slash" unicode="/" horiz-adv-x="909" 
d="M823 1479l-497 -1676h-240l500 1676h237z" />
    <glyph glyph-name="zero" unicode="0" 
d="M752 707q0 536 -183 536q-182 0 -182 -536q0 -533 182 -533q183 0 183 533zM1069 707q0 -308 -102 -498q-129 -240 -404 -240q-266 0 -393 240q-100 190 -100 498q0 307 100 499q127 242 393 242q275 0 404 -242q102 -190 102 -499z" />
    <glyph glyph-name="one" unicode="1" 
d="M195 928v282q184 78 356 207h287v-1417h-308v1110q-157 -113 -335 -182z" />
    <glyph glyph-name="two" unicode="2" 
d="M51 0v289q197 178 391 356q295 281 295 412q0 78 -49 133q-49 53 -125 53q-82 0 -129 -65q-49 -68 -49 -154h-313v20q0 195 139 302q133 102 346 102q205 0 336 -94q151 -107 151 -303q0 -156 -133 -324q-88 -111 -286 -281q-211 -180 -267 -241h697v-205h-1004z" />
    <glyph glyph-name="three" unicode="3" 
d="M45 389h311v-12q0 -70 50 -131q53 -72 126 -72q84 0 138 66q51 65 51 155q0 228 -309 228h-39v204q155 9 227 41q117 52 117 181q0 84 -45 139t-125 55q-68 0 -121 -61q-49 -58 -49 -123v-10h-314q9 200 150 305q125 94 332 94q172 0 313 -88q166 -105 166 -270
q0 -144 -74 -234q-76 -92 -198 -123q276 -80 276 -383q0 -160 -160 -274q-151 -107 -340 -107q-481 0 -483 420z" />
    <glyph glyph-name="four" unicode="4" 
d="M610 516l-4 477l-262 -477h266zM1104 287h-197v-287h-297v287h-528v229l518 901h307v-901h197v-229z" />
    <glyph glyph-name="five" unicode="5" 
d="M63 352h304q6 -76 57 -127t123 -51q104 0 162 107q43 84 43 198q0 99 -50 172q-55 84 -147 84q-137 0 -182 -162l-297 9l33 835h866v-205h-596l-19 -372q101 100 263 100q198 0 313 -119q123 -127 123 -366q0 -199 -152 -342q-151 -144 -368 -144q-201 0 -326 90
q-141 101 -150 293z" />
    <glyph glyph-name="six" unicode="6" 
d="M776 451q0 108 -41 178q-51 86 -151 86q-92 0 -146 -90q-47 -76 -47 -174q0 -105 43 -183q51 -94 150 -94q96 0 149 92q43 78 43 185zM1059 1075h-303q-6 168 -164 168q-201 0 -201 -428q96 105 266 105q197 0 318 -121q119 -123 119 -318q0 -215 -115 -344
q-59 -67 -168 -114q-121 -54 -244 -54q-493 0 -493 619q0 385 90 581q131 279 465 279q184 0 303 -94q127 -99 127 -279z" />
    <glyph glyph-name="seven" unicode="7" 
d="M76 1417h913v-266l-436 -1151h-301l450 1188h-626v229z" />
    <glyph glyph-name="eight" unicode="8" 
d="M365 397q0 -98 57 -159q55 -64 153 -64q84 0 141.5 63.5t57.5 159.5q0 99 -55 161.5t-150 62.5q-86 0 -145 -62q-59 -61 -59 -162zM365 1053q0 -86 61 -135q61 -52 160 -52q80 0 135 52q53 51 53 135q0 86 -59 139q-60 51 -158 51q-80 0 -135 -53q-57 -53 -57 -137z
M352 752q-274 73 -274 323q0 166 162 275q145 98 331 98q195 0 330 -86q160 -100 160 -287q0 -121 -82 -213t-199 -110q135 -31 219 -127q82 -99 82 -234q0 -188 -161 -309q-150 -113 -349 -113q-211 0 -352 103q-162 116 -162 319q0 133 88 232q80 90 207 129z" />
    <glyph glyph-name="nine" unicode="9" 
d="M66 348h311q24 -174 151 -174q217 0 217 356q0 45 -4 97q-104 -88 -276 -88q-174 0 -299 129q-125 127 -125 297q0 215 145 350q144 133 361 133q512 0 512 -631q0 -385 -78 -567q-119 -281 -449 -281q-456 0 -466 379zM358 985q0 -242 199 -242q184 0 184 242
q0 109 -43 178q-47 80 -141 80q-102 0 -154 -80q-45 -67 -45 -178z" />
    <glyph glyph-name="colon" unicode=":" horiz-adv-x="569" 
d="M416 0h-260v272h260v-272zM416 758h-260v272h260v-272z" />
    <glyph glyph-name="semicolon" unicode=";" horiz-adv-x="569" 
d="M57 -229l152 501h303l-244 -501h-211zM455 764h-260v272h260v-272z" />
    <glyph glyph-name="less" unicode="&#x3c;" horiz-adv-x="1196" 
d="M82 373v245l1001 373v-266l-643 -231l643 -228v-266z" />
    <glyph glyph-name="equal" unicode="=" horiz-adv-x="1196" 
d="M102 844h992v-246h-992v246zM102 352h992v-246h-992v246z" />
    <glyph glyph-name="greater" unicode="&#x3e;" horiz-adv-x="1196" 
d="M1083 618v-245l-1001 -373v266l643 232l-643 227v266z" />
    <glyph glyph-name="question" unicode="?" horiz-adv-x="1024" 
d="M522 332h-229v225q0 70 57 137q53 58 109 113q153 182 153 272q0 224 -243 224q-111 0 -273 -50v213q150 41 346 41q189 0 326 -86q162 -102 162 -280q0 -137 -88 -254q-51 -68 -193 -193q-69 -61 -90 -86q-29 -37 -37 -90v-186zM532 0h-260v272h260v-272z" />
    <glyph glyph-name="at" unicode="@" horiz-adv-x="1997" 
d="M1319 1026h184l-172 -618q-4 -21 -4 -37q0 -74 82 -88q18 -4 37 -4q133 0 219 176q72 145 72 295q0 270 -219 426q-183 129 -433 129h-45q-338 -15 -553 -254q-194 -217 -194 -508v-35q10 -281 203 -445q184 -155 479 -167h37q200 0 403 84l60 -183q-207 -106 -506 -106
q-379 0 -639 223q-271 233 -273 608q0 402 314 697q309 290 737 290h41q344 -10 569 -231q224 -217 224 -547v-29q-7 -229 -154 -413q-150 -189 -350 -189q-17 0 -33 2q-88 7 -141.5 36.5t-94.5 101.5q-180 -146 -305 -146q-155 0 -246 90q-86 84 -86 222v20q9 217 144 405
q149 207 356 218h17q71 0 135 -31q78 -41 106 -113zM1212 614q7 33 7 66q0 100 -58 160q-51 51 -119 51h-18q-96 0 -182 -143q-74 -127 -84 -244q-2 -25 -2 -45q0 -72 22 -111q29 -49 99 -65q20 -4 41 -4q108 0 198 120q76 103 96 215z" />
    <glyph glyph-name="A" unicode="A" horiz-adv-x="1479" 
d="M330 0h-303l534 1479h377l514 -1479h-319l-107 313h-586zM522 559h424l-207 631z" />
    <glyph glyph-name="B" unicode="B" horiz-adv-x="1366" 
d="M457 246h248q126 0 182 35q69 43 69 161q0 119 -69 162q-56 35 -182 35h-248v-393zM457 885h248q206 0 206 174t-206 174h-248v-348zM698 0h-559v1479h555q226 0 367 -84q168 -99 168 -299q0 -117 -74 -205q-70 -80 -186 -123q147 -31 233 -125q92 -104 92 -260
q0 -197 -213 -301q-166 -82 -383 -82z" />
    <glyph glyph-name="C" unicode="C" horiz-adv-x="1366" 
d="M1311 999h-338v9q0 116 -72 194q-74 78 -211 78q-151 0 -225 -193q-57 -147 -57 -348q0 -200 57 -348q74 -192 225 -192q137 0 213 82q70 73 70 190v8h338q-11 -264 -189 -393q-157 -117 -432 -117q-307 0 -471 224q-149 204 -149 546t149 547q164 223 471 223
q275 0 432 -116q178 -129 189 -394z" />
    <glyph glyph-name="D" unicode="D" horiz-adv-x="1479" 
d="M451 1233v-987h163q254 0 359 157q74 117 74 336t-74 336q-105 158 -359 158h-163zM133 0v1479h504q747 0 747 -740q0 -739 -747 -739h-504z" />
    <glyph glyph-name="E" unicode="E" horiz-adv-x="1251" 
d="M119 0v1479h991v-246h-674v-346h631v-246h-631v-395h697v-246h-1014z" />
    <glyph glyph-name="F" unicode="F" 
d="M459 0h-318v1479h955v-246h-637v-356h594v-246h-594v-631z" />
    <glyph glyph-name="G" unicode="G" horiz-adv-x="1593" 
d="M1126 543h-288v245h606v-739q-156 -49 -332 -65q-164 -15 -340 -15q-268 0 -457 164q-237 207 -237 606q0 400 237 607q189 163 457 163q692 0 694 -481h-338q0 252 -297 252q-206 0 -311 -141q-104 -144 -104 -400t102 -395q107 -145 313 -145q127 0 295 32v312z" />
    <glyph glyph-name="H" unicode="H" horiz-adv-x="1479" 
d="M459 0h-318v1479h318v-584h559v584h321v-1479h-317v649h-563v-649z" />
    <glyph glyph-name="I" unicode="I" horiz-adv-x="569" 
d="M444 1479v-1479h-317v1479h317z" />
    <glyph glyph-name="J" unicode="J" 
d="M692 1479h318v-987q0 -261 -146 -398q-133 -125 -350 -125q-260 0 -377 142q-98 116 -119 362h318q6 -274 178 -274q178 0 178 299v981z" />
    <glyph glyph-name="K" unicode="K" horiz-adv-x="1366" 
d="M455 1479l4 -639l491 639h371l-543 -662l590 -817h-395l-518 754v-754h-318v1479h318z" />
    <glyph glyph-name="L" unicode="L" 
d="M1100 0h-959v1479h318v-1233h641v-246z" />
    <glyph glyph-name="M" unicode="M" horiz-adv-x="1933" 
d="M1493 1270l-414 -1270h-264l-391 1270l-4 -4v-1266h-297v1479h520l313 -1076l336 1076h502v-1479h-297z" />
    <glyph glyph-name="N" unicode="N" horiz-adv-x="1593" 
d="M1470 0h-450l-584 1229l-4 -4v-1225h-297v1479h471l563 -1164l5 4v1160h296v-1479z" />
    <glyph glyph-name="O" unicode="O" horiz-adv-x="1593" 
d="M797 -31q-353 0 -539 221q-172 203 -172 549t172 549q186 221 539 221q352 0 538 -221q172 -203 172 -549t-172 -549q-186 -221 -538 -221zM797 1280q-373 0 -373 -541q0 -540 373 -540q372 0 372 540q0 541 -372 541z" />
    <glyph glyph-name="P" unicode="P" horiz-adv-x="1251" 
d="M451 0h-318v1479h457q282 0 426 -86q178 -109 178 -369q0 -205 -135 -330t-377 -125h-231v-569zM451 1233v-418h184q104 2 156 41q65 47 65 168t-65 168q-52 39 -156 41h-184z" />
    <glyph glyph-name="Q" unicode="Q" horiz-adv-x="1593" 
d="M797 199q372 0 372 540q0 541 -372 541q-373 0 -373 -541q0 -540 373 -540zM1577 229v-229h-623q-92 -31 -157 -31q-353 0 -539 221q-172 203 -172 549t172 549q186 221 539 221q352 0 538 -221q172 -205 172 -549q0 -123 -67 -284q-70 -164 -154 -238l4 -4q49 16 183 16
h104z" />
    <glyph glyph-name="R" unicode="R" horiz-adv-x="1366" 
d="M440 1233v-391h267q221 0 221 202q0 189 -221 189h-267zM440 596v-596h-317v1479h629q221 0 352 -80q162 -99 162 -305q0 -142 -82 -234q-84 -94 -226 -129q162 -18 216 -123q26 -53 55 -258q22 -162 24 -180q23 -117 62 -170h-350q-29 139 -56 397q-20 199 -133 199
h-336z" />
    <glyph glyph-name="S" unicode="S" horiz-adv-x="1366" 
d="M1235 1057h-305q-19 223 -246 223q-96 0 -162 -47q-73 -53 -73 -143q0 -105 88 -152q34 -20 182 -57q268 -68 362 -119q195 -105 195 -299q0 -254 -199 -385q-170 -109 -438 -109q-567 0 -567 480v24h323q-2 -16 -2 -33q0 -102 60 -166q67 -75 190 -75q119 0 195 39
q100 51 100 157q0 111 -121 164q-10 4 -219 56.5t-319 123.5q-168 109 -168 283q0 238 194 371q170 116 420 116q223 0 362 -114q148 -123 148 -338z" />
    <glyph glyph-name="T" unicode="T" horiz-adv-x="1251" 
d="M27 1233v246h1198v-246h-441v-1233h-317v1233h-440z" />
    <glyph glyph-name="U" unicode="U" horiz-adv-x="1593" 
d="M1120 1479h318v-926q0 -283 -187 -438q-172 -146 -454 -146q-283 0 -455 146q-186 155 -186 438v926h317v-803q0 -238 45 -332q70 -145 279 -145t278 145q45 94 45 332v803z" />
    <glyph glyph-name="V" unicode="V" horiz-adv-x="1479" 
d="M567 0l-544 1479h346l389 -1166l387 1166h313l-545 -1479h-346z" />
    <glyph glyph-name="W" unicode="W" horiz-adv-x="2048" 
d="M580 367l286 1112h359l262 -1112l237 1112h304l-377 -1479h-353l-270 1126l-287 -1126h-360l-361 1479h328l227 -1112h5z" />
    <glyph glyph-name="X" unicode="X" horiz-adv-x="1479" 
d="M727 557l-354 -557h-340l520 766l-485 713h391l299 -502l319 502h340l-487 -711l516 -768h-389z" />
    <glyph glyph-name="Y" unicode="Y" horiz-adv-x="1366" 
d="M524 0v483l-497 996h370l305 -678l312 678h325l-497 -996v-483h-318z" />
    <glyph glyph-name="Z" unicode="Z" horiz-adv-x="1251" 
d="M59 0v246l734 987h-687v246h1072v-246l-732 -987h748v-246h-1135z" />
    <glyph glyph-name="bracketleft" unicode="[" horiz-adv-x="682" 
d="M119 1479h438v-185h-192v-1306h192v-185h-438v1676z" />
    <glyph glyph-name="backslash" unicode="\" horiz-adv-x="569" 
d="M-61 1479h229l463 -1479h-230z" />
    <glyph glyph-name="bracketright" unicode="]" horiz-adv-x="682" 
d="M563 -197h-438v185h192v1306h-192v185h438v-1676z" />
    <glyph glyph-name="asciicircum" unicode="^" horiz-adv-x="1196" 
d="M127 547l342 870h254l348 -870h-231l-242 612l-240 -612h-231z" />
    <glyph glyph-name="underscore" unicode="_" horiz-adv-x="1024" 
d="M1024 -139v-115h-1024v115h1024z" />
    <glyph glyph-name="grave" unicode="`" horiz-adv-x="569" 
d="M-37 1479h275l170 -295h-164z" />
    <glyph glyph-name="a" unicode="a" 
d="M705 483h-23q-303 0 -303 -161q0 -64 43 -105q41 -43 106 -43q113 0 152 109q25 67 25 200zM426 737h-295q2 176 139 256q113 66 303 66q439 0 439 -385v-561l14 -113h-276q-11 78 -15 137q-98 -168 -315 -168q-150 0 -240 80q-96 84 -96 232q0 81 39 159q57 113 180 166
q131 56 346 56h56v96q0 43 -31 80q-39 47 -111 47q-71 0 -110 -56q-27 -38 -27 -79v-13z" />
    <glyph glyph-name="b" unicode="b" horiz-adv-x="1251" 
d="M410 514q0 -129 49 -223q59 -117 172 -117q221 0 221 340t-221 340q-113 0 -172 -117q-49 -94 -49 -223zM102 205v1274h308l4 -570q43 66 121 109q75 41 153 41q227 0 361 -168q120 -154 120 -377q0 -219 -108 -371q-123 -174 -334 -174q-217 0 -319 176q0 -47 -9 -145
h-307q10 170 10 205z" />
    <glyph glyph-name="c" unicode="c" horiz-adv-x="1024" 
d="M981 668h-303q-4 186 -156 186q-84 0 -116 -133q-15 -57 -21 -193q14 -170 25 -213q32 -141 116 -141q80 0 121 70q33 53 35 131h299q-8 -197 -125 -301.5t-330 -104.5q-217 0 -344 170q-114 154 -114 375t114 375q127 170 344 170q201 0 330 -107q125 -104 125 -284z
" />
    <glyph glyph-name="d" unicode="d" horiz-adv-x="1251" 
d="M399 514q0 -340 222 -340q112 0 172 117q49 94 49 223t-49 223q-60 117 -172 117q-222 0 -222 -340zM842 909v570h307v-1274q0 -35 10 -205h-307q-8 98 -12 145q-99 -176 -316 -176q-211 0 -334 174q-108 152 -108 371q0 223 121 377q133 168 360 168q78 0 156 -41
q76 -43 123 -109z" />
    <glyph glyph-name="e" unicode="e" 
d="M1077 432h-674q0 -119 27 -176q41 -82 150 -82q147 0 188 133h276q-34 -338 -464 -338q-494 0 -494 543q0 240 129 389q135 158 365 158q319 0 438 -246q59 -123 59 -381zM403 637h357q0 217 -180 217q-168 0 -177 -217z" />
    <glyph glyph-name="f" unicode="f" horiz-adv-x="682" 
d="M674 1495v-190q-33 4 -60 4q-94 0 -127 -52q-28 -40 -28 -145q0 -31 2 -84h186v-205h-186v-823h-307v823h-154v205h154v51q0 213 47 299q75 131 305 131q72 0 168 -14z" />
    <glyph glyph-name="g" unicode="g" horiz-adv-x="1251" 
d="M420 530q0 -305 198 -305q199 0 199 305q0 324 -199 324q-198 0 -198 -324zM1124 1028v-936q0 -227 -82 -340q-116 -158 -413 -158h-8q-469 3 -478 332h291q6 -127 170 -127q217 0 217 262q0 39 -8 101q-90 -142 -289 -142q-196 0 -315 162q-107 146 -107 350
q0 213 111 363q123 164 326 164q204 0 278 -150v119h307z" />
    <glyph glyph-name="h" unicode="h" horiz-adv-x="1251" 
d="M442 0h-307v1479h305l4 -576q105 156 316 156q92 0 192 -58q121 -65 146 -167q20 -82 20 -164v-670h-307v618q0 236 -184 236q-76 0 -129 -63q-56 -64 -56 -173v-618z" />
    <glyph glyph-name="i" unicode="i" horiz-adv-x="569" 
d="M131 1028h307v-1028h-307v1028zM121 1479h328v-265h-328v265z" />
    <glyph glyph-name="j" unicode="j" horiz-adv-x="569" 
d="M440 1028v-1067q0 -190 -71 -274q-78 -88 -267 -88q-69 0 -104 8v194h12q51 0 86 33q37 35 37 96v1098h307zM123 1479h328v-265h-328v265z" />
    <glyph glyph-name="k" unicode="k" 
d="M444 1479l5 -871l303 432h342l-355 -450l377 -590h-358l-309 563l-5 -4v-559h-307v1479h307z" />
    <glyph glyph-name="l" unicode="l" horiz-adv-x="569" 
d="M131 1479h307v-1479h-307v1479z" />
    <glyph glyph-name="m" unicode="m" horiz-adv-x="1933" 
d="M442 1028l4 -121q107 152 316 152q92 0 190 -55q107 -60 138 -140q141 195 348 195q92 0 194 -58q101 -57 133 -135q31 -80 31 -248v-618h-307v618q0 236 -184 236q-76 0 -129 -63q-56 -64 -56 -173v-618h-307v618q0 236 -184 236q-76 0 -129 -63q-56 -64 -56 -173v-618
h-307v1028h305z" />
    <glyph glyph-name="n" unicode="n" horiz-adv-x="1251" 
d="M440 1028v-119l4 -6q105 156 316 156q92 0 192 -58q121 -65 146 -167q20 -82 20 -164v-670h-307v618q0 236 -184 236q-76 0 -129 -63q-56 -64 -56 -173v-618h-307v1028h305z" />
    <glyph glyph-name="o" unicode="o" horiz-adv-x="1251" 
d="M1163 514q0 -246 -143 -395.5t-393 -149.5t-394 150q-143 149 -143 395t143 395q144 150 394 150t393 -150q143 -149 143 -395zM408 514q0 -340 219 -340t219 340t-219 340t-219 -340z" />
    <glyph glyph-name="p" unicode="p" horiz-adv-x="1251" 
d="M403 1028l11 -119q43 66 121 109q75 41 153 41q227 0 361 -168q120 -154 120 -377q0 -219 -108 -371q-123 -174 -334 -174q-217 0 -317 176v-538h-308v1216q0 37 -10 205h311zM410 514q0 -129 49 -223q59 -117 172 -117q221 0 221 340t-221 340q-113 0 -172 -117
q-49 -94 -49 -223z" />
    <glyph glyph-name="q" unicode="q" horiz-adv-x="1251" 
d="M842 514q0 129 -49 223q-60 117 -172 117q-222 0 -222 -340t222 -340q112 0 172 117q49 94 49 223zM1149 821v-1216h-307l-4 540q-97 -176 -314 -176q-211 0 -334 174q-108 152 -108 371q0 223 121 377q133 168 360 168q78 0 156 -41q76 -43 119 -109l4 -2l6 121h311
q-10 -174 -10 -207z" />
    <glyph glyph-name="r" unicode="r" horiz-adv-x="797" 
d="M109 1028h280l10 -186q82 198 334 198h17v-272h-134q-96 0 -149 -76q-41 -71 -41 -182v-510h-305l-2 823q0 17 -10 205z" />
    <glyph glyph-name="s" unicode="s" horiz-adv-x="1024" 
d="M928 754h-277q-6 100 -139 100q-123 0 -123 -92q0 -62 152 -105q223 -61 284 -96q152 -88 152 -254q0 -155 -162 -254q-137 -84 -303 -84q-195 0 -315 76q-136 88 -138 254h285q4 -59 51 -92t117 -33q147 0 147 115q0 82 -208 131q-193 45 -265 92q-114 78 -114 238
q0 147 153 235q127 74 287 74q397 0 416 -305z" />
    <glyph glyph-name="t" unicode="t" horiz-adv-x="797" 
d="M2 1028h207v203l307 110v-313h232v-205h-232v-477q0 -94 16 -125q25 -47 111 -47l98 6v-180q-22 -10 -116 -23q-84 -8 -125 -8q-170 0 -236 90q-55 78 -55 258v506h-207v205z" />
    <glyph glyph-name="u" unicode="u" horiz-adv-x="1251" 
d="M815 0l-12 127q-111 -158 -318 -158q-92 0 -192 58q-121 67 -146 170q-20 82 -20 163v668h307v-616q0 -238 184 -238q76 0 132 66q53 63 53 172v616h307v-844q0 -61 12 -184h-307z" />
    <glyph glyph-name="v" unicode="v" 
d="M406 0l-379 1028h325l234 -696l235 696h293l-373 -1028h-335z" />
    <glyph glyph-name="w" unicode="w" horiz-adv-x="1821" 
d="M1083 1028l215 -774h5l200 774h301l-354 -1028h-330l-215 766l-215 -766h-334l-338 1028h322l192 -774l218 774h333z" />
    <glyph glyph-name="x" unicode="x" 
d="M768 530l346 -530h-358l-209 379l-211 -379h-318l347 555l-332 473h358l195 -332l202 332h316z" />
    <glyph glyph-name="y" unicode="y" 
d="M586 317l229 711h301l-516 -1419h-305l131 389l-397 1030h327z" />
    <glyph glyph-name="z" unicode="z" horiz-adv-x="1024" 
d="M954 0h-882v205l565 618h-551v205h848v-205l-565 -618h585v-205z" />
    <glyph glyph-name="braceleft" unicode="{" horiz-adv-x="682" 
d="M111 567v164q147 0 147 88v414q0 115 78 186q63 60 125 60h153v-185h-39q-57 0 -73 -28q-8 -11 -15 -64v-379q0 -159 -165 -176q165 -18 165 -188v-379q0 -92 88 -92h39v-185h-153q-62 0 -125 60q-78 71 -78 186v414q0 104 -147 104z" />
    <glyph glyph-name="bar" unicode="|" horiz-adv-x="569" 
d="M408 1479v-1479h-246v1479h246z" />
    <glyph glyph-name="braceright" unicode="}" horiz-adv-x="682" 
d="M571 715v-164q-147 0 -147 -88v-414q0 -115 -78 -186q-63 -60 -125 -60h-153v185h38q58 0 76 28q6 11 13 64v379q0 159 165 176q-165 18 -165 188v379q0 92 -89 92h-38v185h153q62 0 125 -60q78 -71 78 -186v-414q0 -104 147 -104z" />
    <glyph glyph-name="asciitilde" unicode="~" horiz-adv-x="1196" 
d="M299 393h-170q4 142 75.5 240t174.5 104h8q59 0 162 -59q92 -53 184 -109q51 -26 88 -26q80 0 80 94q0 12 -2 27h170q-4 -144 -76 -242q-71 -98 -174 -105h-8q-59 0 -162 60q-92 53 -184 108q-51 27 -88 27q-80 0 -80 -92q0 -12 2 -27z" />
    <glyph glyph-name="dagger" unicode="&#x2020;" 
d="M451 0v952h-332v205h332v322h245v-322h324v-205h-324v-952h-245z" />
    <glyph glyph-name="cent" unicode="&#xa2;" 
d="M518 -29l-67 -272h-140l74 297q-145 51 -229 203q-76 139 -76 315q0 221 115 375q127 170 344 170q53 0 110 -10l64 256h143l-76 -297q213 -105 213 -340h-303q-4 186 -155 186q-84 0 -117 -133q-15 -57 -21 -193q15 -170 25 -213q33 -141 117 -141q79 0 120 70
q33 53 35 131h299q-8 -197 -125 -301q-116 -105 -329 -105q-15 0 -21 2z" />
    <glyph glyph-name="sterling" unicode="&#xa3;" 
d="M1067 0h-1006v205h158v422h-180v204h182v240q0 178 148 283q131 94 315 94q76 0 162 -27q94 -28 145 -73q64 -58 88 -134q13 -36 29 -157h-307q-2 76 -33 127q-37 59 -106 59q-140 0 -140 -227q0 -29 2 -98q2 -39 2 -66v-21h346v-204h-346v-422h541v-205z" />
    <glyph glyph-name="section" unicode="&#xa7;" 
d="M551 901q-39 0 -78 -55q-41 -55 -41 -111q0 -47 47 -88q39 -37 88 -49q49 10 92 59q41 48 41 99q0 67 -47 106q-49 39 -102 39zM909 1450v-227q-194 82 -301 82q-112 0 -112 -91q0 -73 125 -120q213 -76 231 -86q125 -74 125 -215q0 -187 -182 -267q190 -100 190 -254
q0 -141 -135 -225q-123 -78 -309 -78q-95 0 -336 60v229q178 -84 301 -84q162 0 162 100q0 52 -58 82q-16 11 -100 37q-172 58 -240 105q-114 80 -114 217q0 176 198 260q-176 80 -176 248q0 129 137 213q119 73 254 73q195 0 340 -59z" />
    <glyph glyph-name="bullet" unicode="&#x2022;" horiz-adv-x="717" 
d="M614 614q0 -106 -73 -180q-76 -76 -183 -76q-106 0 -180 76q-76 74 -76 180q0 107 76 183q74 73 180 73q107 0 183 -73q73 -76 73 -183z" />
    <glyph glyph-name="paragraph" unicode="&#xb6;" 
d="M1083 1479v-142h-114v-1751h-185v1749h-133v-1749h-184v942q-203 2 -328 166q-98 129 -98 273q0 18 2 37q-2 18 -2 36q0 144 98 275q125 164 324 164h620z" />
    <glyph glyph-name="germandbls" unicode="&#xdf;" horiz-adv-x="1366" 
d="M111 0v1104q0 125 45 203q45 75 154.5 138.5t316.5 63.5q180 0 315 -63q172 -82 172 -238q0 -94 -67 -161q-15 -13 -129 -95q-68 -49 -68 -96q0 -49 104 -115q213 -133 238 -153q119 -103 119 -248q0 -188 -131 -285q-117 -86 -320 -86q-168 0 -248 78t-96 248h268
q0 -49 25 -82q29 -39 76 -39q108 0 108 139q0 86 -63 148q-29 24 -146 98q-118 72 -161 115q-66 65 -66 147q0 129 139 236q101 76 101 145q0 45 -47.5 74t-110.5 29q-111 0 -168 -72q-53 -64 -53 -172v-1061h-307z" />
    <glyph glyph-name="acute" unicode="&#xb4;" horiz-adv-x="569" 
d="M332 1479h274l-280 -295h-164z" />
    <glyph glyph-name="dieresis" unicode="&#xa8;" horiz-adv-x="569" 
d="M565 1235h-209v244h209v-244zM213 1235h-209v244h209v-244z" />
    <glyph glyph-name="AE" unicode="&#xc6;" horiz-adv-x="2048" 
d="M-14 0l817 1479h1120v-246h-686l53 -356h596v-246h-563l57 -385h562v-246h-852l-46 315h-557l-161 -315h-340zM612 561h402l-88 635z" />
    <glyph glyph-name="Oslash" unicode="&#xd8;" horiz-adv-x="1593" 
d="M453 485l618 668q-94 127 -274 127q-373 0 -373 -541q0 -151 29 -254zM1135 1022l-625 -676q92 -147 287 -147q372 0 372 540q0 168 -34 283zM4 0l219 238q-137 190 -137 501q0 346 172 549q186 221 539 221q288 0 465 -149l190 207l98 -97l-194 -208q151 -201 151 -523
q0 -346 -172 -549q-186 -221 -538 -221q-305 0 -484 166l-211 -229z" />
    <glyph glyph-name="yen" unicode="&#xa5;" 
d="M709 0h-318v279h-354v204h354v60l-35 75h-317l-2 205h256l-262 594h327l213 -616l215 616h322l-260 -594h213v-205h-318l-34 -75v-60h352v-204h-352v-279z" />
    <glyph glyph-name="ordfeminine" unicode="&#xaa;" horiz-adv-x="684" 
d="M252 1067q0 -88 92 -88q109 0 109 180q-201 0 -201 -92zM657 1278v-336q0 -20 11 -68h-209q-4 27 -4 44q0 18 4 28h-10q-25 -90 -177 -90q-96 0 -159 51q-66 51 -66 140q0 235 369 235h37v47q0 57 -91 57q-36 0 -61 -22q-25 -21 -25 -47h-190q4 192 287 192
q284 0 284 -231zM668 778v-123h-621v123h621z" />
    <glyph glyph-name="ordmasculine" unicode="&#xba;" horiz-adv-x="752" 
d="M756 1184q0 -148 -92 -238q-95 -90 -256 -90q-162 0 -254 90q-95 90 -95 238q0 147 95 237q92 88 254 88q161 0 256 -88q92 -90 92 -237zM264 1184q0 -205 144 -205q143 0 143 205q0 202 -143 202q-144 0 -144 -202zM756 778v-123h-697v123h697z" />
    <glyph glyph-name="ae" unicode="&#xe6;" horiz-adv-x="1821" 
d="M1077 637h357q0 217 -181 217q-168 0 -176 -217zM717 657v101q0 43 -31 80q-41 47 -117 47q-55 0 -94 -54q-37 -49 -37 -86v-8h-295q4 314 443 322h12q215 0 328 -156q57 80 159 123q80 33 160 33h8q324 -6 439 -246q59 -123 59 -381h-674q0 -119 27 -176q41 -82 149 -82
q148 0 189 133h276q-35 -338 -465 -338q-98 0 -190 43q-113 51 -166 148q-131 -191 -432 -191h-33q-151 4 -246 86q-100 86 -100 232q0 227 227 317q140 53 346 53h58zM403 322q0 -66 37 -107t101 -41q112 0 151 109q25 67 25 200h-21q-293 0 -293 -161z" />
    <glyph glyph-name="oslash" unicode="&#xf8;" horiz-adv-x="1251" 
d="M786 778q-55 76 -159 76q-219 0 -219 -340q0 -68 8 -117zM268 88l-155 -160l-84 72l164 168q-103 141 -103 346q0 246 143 395q144 150 394 150q200 0 336 -101l155 162l82 -71l-160 -164q123 -148 123 -371q0 -246 -143 -395.5t-393 -149.5q-217 0 -359 119zM451 276
q51 -102 176 -102q219 0 219 340q0 86 -15 156z" />
    <glyph glyph-name="questiondown" unicode="&#xbf;" horiz-adv-x="1024" 
d="M502 782h229v-225q0 -70 -57 -137q-53 -58 -109 -113q-153 -182 -153 -272q0 -223 243 -223q111 0 273 49v-213q-150 -41 -346 -41q-189 0 -326 86q-162 102 -162 280q0 138 88 254q51 68 193 193q69 61 90 86q29 37 37 90v186zM741 862h-260v273h260v-273z" />
    <glyph glyph-name="exclamdown" unicode="&#xa1;" horiz-adv-x="797" 
d="M260 -393l27 1077h211l37 -1077h-275zM530 809h-260v272h260v-272z" />
    <glyph glyph-name="florin" unicode="&#x192;" 
d="M721 924h147l-30 -205h-156l-182 -905q-23 -109 -129 -168q-88 -49 -195 -49h-16q-25 2 -64 6t-51 4l43 229q16 -2 31 -2q94 0 108 74l162 811h-133l39 205h133q55 250 80 309q76 201 209 209l96 6q68 0 160 -14l-45 -215q-21 2 -39 2q-101 0 -129 -93q-21 -102 -39 -204
z" />
    <glyph glyph-name="guillemotleft" unicode="&#xab;" 
d="M285 156l-228 395l228 395h270l-211 -395l211 -395h-270zM782 156l-227 395l227 395h271l-211 -395l211 -395h-271z" />
    <glyph glyph-name="guillemotright" unicode="&#xbb;" 
d="M356 946l228 -395l-228 -395h-270l211 395l-211 395h270zM854 946l227 -395l-227 -395h-270l211 395l-211 395h270z" />
    <glyph glyph-name="ellipsis" unicode="&#x2026;" horiz-adv-x="2048" 
d="M473 0h-260v272h260v-272zM1155 0h-260v272h260v-272zM1837 0h-260v272h260v-272z" />
    <glyph glyph-name="OE" unicode="&#x152;" horiz-adv-x="2048" 
d="M1972 0h-821q-381 0 -489 10q-295 27 -451 232q-145 190 -145 497q0 308 145 498q156 205 451 231q108 11 489 11h797v-246h-605v-356h586v-246h-588v-385h631v-246zM1024 246v987q-80 4 -137 4q-262 0 -365 -94q-119 -109 -119 -404q0 -256 84 -370q70 -95 222 -115
q34 -4 315 -8z" />
    <glyph glyph-name="oe" unicode="&#x153;" horiz-adv-x="1933" 
d="M408 514q0 -340 219 -340t219 340t-219 340t-219 -340zM1184 637h356q0 217 -180 217q-168 0 -176 -217zM1548 307h277q-35 -336 -463 -338q-92 0 -191 45q-114 52 -161 140q-150 -185 -383 -185q-250 2 -394 152q-143 147 -143 393t143 395q144 150 394 150t385 -191
q43 93 147 144q94 47 203 47q317 0 436 -246q60 -123 60 -381h-674q0 -119 26 -176q41 -82 150 -82q147 0 188 133z" />
    <glyph glyph-name="endash" unicode="&#x2013;" horiz-adv-x="1024" 
d="M1024 436h-1024v230h1024v-230z" />
    <glyph glyph-name="emdash" unicode="&#x2014;" horiz-adv-x="2048" 
d="M2048 436h-2048v230h2048v-230z" />
    <glyph glyph-name="quotedblleft" unicode="&#x201c;" 
d="M985 1479l-151 -502h-304l244 502h211zM582 1479l-152 -502h-303l244 502h211z" />
    <glyph glyph-name="quotedblright" unicode="&#x201d;" 
d="M557 977l152 502h303l-244 -502h-211zM154 977l151 502h303l-243 -502h-211z" />
    <glyph glyph-name="quoteleft" unicode="&#x2018;" horiz-adv-x="569" 
d="M498 1479l-152 -502h-303l244 502h211z" />
    <glyph glyph-name="quoteright" unicode="&#x2019;" horiz-adv-x="569" 
d="M72 977l151 502h303l-243 -502h-211z" />
    <glyph glyph-name="fraction" unicode="&#x2044;" horiz-adv-x="342" 
d="M-137 0h-172l792 1448h170z" />
    <glyph glyph-name="currency" unicode="&#xa4;" 
d="M915 508l158 -158l-131 -133l-158 156q-82 -60 -209 -66h-16q-113 0 -205 70l-164 -162l-131 137l160 156q-74 115 -74 229v8q2 97 68 191l-160 156l142 141l159 -160q92 70 205 70h16q127 -6 209 -66l162 160l139 -139l-163 -162q30 -45 43 -74q22 -51 24 -117v-8
q0 -114 -74 -229zM784 735q0 64 -47 125q-61 78 -170 78q-108 0 -170 -78q-47 -61 -47 -125v-20q0 -64 47 -123q62 -80 170 -80q109 0 170 80q47 59 47 123v20z" />
    <glyph glyph-name="guilsinglleft" unicode="&#x2039;" horiz-adv-x="569" 
d="M264 156l-227 395l227 395h271l-211 -395l211 -395h-271z" />
    <glyph glyph-name="guilsinglright" unicode="&#x203a;" horiz-adv-x="569" 
d="M305 946l227 -395l-227 -395h-270l211 395l-211 395h270z" />
    <glyph glyph-name="fi" unicode="&#xf001;" horiz-adv-x="1251" 
d="M815 1028h307v-1018h-307v1018zM805 1479h328v-265h-328v265zM461 0h-307v823h-154v205h154v51q0 213 47 299q75 131 305 131q72 0 168 -14v-190q-33 4 -60 4q-94 0 -127 -52q-28 -40 -28 -145q0 -31 2 -84h186v-205h-186v-823z" />
    <glyph glyph-name="fl" unicode="&#xf002;" horiz-adv-x="1251" 
d="M813 1479h307v-1479h-307v1479zM461 0h-307v823h-154v205h154v51q0 213 47 299q75 131 305 131q72 0 168 -14v-190q-33 4 -60 4q-94 0 -127 -52q-28 -40 -28 -145q0 -31 2 -84h186v-205h-186v-823z" />
    <glyph glyph-name="daggerdbl" unicode="&#x2021;" 
d="M694 1479v-301h328v-205h-328v-455h328v-205h-328v-313h-245v313h-326v205h326v455h-332v205h332v301h245z" />
    <glyph glyph-name="periodcentered" unicode="&#xb7;" horiz-adv-x="569" 
d="M416 360h-260v273h260v-273z" />
    <glyph glyph-name="quotesinglbase" unicode="&#x201a;" horiz-adv-x="569" 
d="M57 -229l152 501h303l-244 -501h-211z" />
    <glyph glyph-name="quotedblbase" unicode="&#x201e;" 
d="M545 -229l151 501h303l-243 -501h-211zM141 -229l152 501h303l-244 -501h-211z" />
    <glyph glyph-name="perthousand" unicode="&#x2030;" horiz-adv-x="2048" 
d="M1042 123q91 0 91 196q0 197 -91 197q-90 0 -90 -197q0 -196 90 -196zM1448 319q0 351 287 351q286 0 286 -351q0 -350 -286 -350q-287 0 -287 350zM1735 123q90 0 90 196q0 197 -90 197t-90 -197q0 -196 90 -196zM16 1098q0 350 287 350t287 -350t-287 -350t-287 350z
M145 -31l875 1520h170l-871 -1520h-174zM303 901q90 0 90 197q0 196 -90 196t-90 -196q0 -197 90 -197zM756 319q0 351 286 351q287 0 287 -351q0 -350 -287 -350q-286 0 -286 350z" />
    <glyph glyph-name="dotlessi" unicode="&#x131;" horiz-adv-x="569" 
d="M438 0h-307v1028h307v-1028z" />
    <glyph glyph-name="circumflex" unicode="&#x2c6;" horiz-adv-x="569" 
d="M422 1184l-139 174l-144 -174h-182l223 295h211l213 -295h-182z" />
    <glyph glyph-name="tilde" unicode="&#x2dc;" horiz-adv-x="569" 
d="M45 1214h-104q16 105 73 172q68 78 166 78q56 0 152 -39q94 -39 143 -39q62 0 90 93h105q-8 -105 -66 -172q-63 -74 -166 -74q-51 0 -143 37q-94 37 -139 37q-72 0 -111 -93z" />
    <glyph glyph-name="macron" unicode="&#xaf;" horiz-adv-x="569" 
d="M635 1479v-144h-698v144h698z" />
    <glyph glyph-name="breve" unicode="&#x2d8;" horiz-adv-x="569" 
d="M-27 1479h142q8 -72 55 -113q45 -43 109 -43q141 0 176 156h141q-12 -142 -96 -219.5t-226 -77.5q-135 0 -219 82q-82 77 -82 206v9z" />
    <glyph glyph-name="dotaccent" unicode="&#x2d9;" horiz-adv-x="569" 
d="M389 1235h-209v244h209v-244z" />
    <glyph glyph-name="ring" unicode="&#x2da;" horiz-adv-x="569" 
d="M78 1384q0 84 61 148q62 61 148 61q84 0 145 -61q60 -64 60 -148q0 -86 -60 -147q-59 -61 -145 -61t-148 61q-61 61 -61 147zM178 1384q0 -45 33 -75q31 -33 76 -33t75 33q29 30 29 75q0 46 -29.5 77.5t-74.5 31.5t-76 -31q-33 -32 -33 -78z" />
    <glyph glyph-name="cedilla" unicode="&#xb8;" horiz-adv-x="569" 
d="M123 -178l135 190h98l-102 -135l4 -4q25 10 57 10q183 0 183 -151q0 -88 -86 -140q-72 -43 -166 -43q-103 0 -205 45q20 37 43 87q45 -19 137 -37q43 0 82 20q37 19 37 60q0 34 -29 55q-28 18 -65 18q-31 0 -51 -8l-23 -8q-10 0 -49 41z" />
    <glyph glyph-name="hungarumlaut" unicode="&#x2dd;" 
d="M330 1479h274l-280 -295h-164zM705 1479h274l-281 -295h-163z" />
    <glyph glyph-name="ogonek" unicode="&#x2db;" horiz-adv-x="569" 
d="M502 -236v-110q-119 -45 -219 -45q-93 0 -158 43q-80 51 -80 147q0 68 94 127q78 51 174 74l121 -4q-221 -76 -221 -178q0 -94 115 -94q57 0 174 40z" />
    <glyph glyph-name="caron" unicode="&#x2c7;" horiz-adv-x="569" 
d="M289 1294l143 185h191l-217 -295h-240l-211 295h190z" />
    <glyph glyph-name="Lslash" unicode="&#x141;" 
d="M1100 246v-246h-959v694l-225 -73v170l225 73v615h318v-510l278 90v-172l-278 -90v-551h641z" />
    <glyph glyph-name="lslash" unicode="&#x142;" horiz-adv-x="569" 
d="M131 1479h307v-478l180 58v-172l-180 -58v-829h-307v729l-180 -59v172l180 59v578z" />
    <glyph glyph-name="Eth" unicode="&#xd0;" horiz-adv-x="1479" 
d="M451 1233v-393h153v-123h-153v-471h163q254 0 359 157q74 117 74 336t-74 336q-105 158 -359 158h-163zM133 840v639h504q747 0 747 -740q0 -739 -747 -739h-504v717h-143v123h143z" />
    <glyph glyph-name="eth" unicode="&#xf0;" horiz-adv-x="1251" 
d="M391 514q0 -340 219 -340t219 340q0 309 -219 309t-219 -309zM74 514q0 248 137 375q102 94 283 123q110 8 223 16q-35 84 -174 178l-226 -129l-51 101l166 94q-115 61 -229 92l164 115q141 -43 254 -99l174 99l51 -101l-111 -63q414 -264 414 -787q0 -264 -150 -415
q-145 -144 -389 -144q-250 0 -393 149.5t-143 395.5z" />
    <glyph glyph-name="Scaron" unicode="&#x160;" horiz-adv-x="1366" 
d="M1235 1057h-305q-19 223 -246 223q-96 0 -162 -47q-73 -53 -73 -143q0 -105 88 -152q34 -20 182 -57q268 -68 362 -119q195 -105 195 -299q0 -254 -199 -385q-170 -109 -438 -109q-567 0 -567 480v24h323q-2 -16 -2 -33q0 -102 60 -166q67 -75 190 -75q119 0 195 39
q100 51 100 157q0 111 -121 164q-10 4 -219 56.5t-319 123.5q-168 109 -168 283q0 238 194 371q170 116 420 116q223 0 362 -114q148 -123 148 -338zM688 1745l143 185h191l-217 -295h-240l-211 295h190z" />
    <glyph glyph-name="scaron" unicode="&#x161;" horiz-adv-x="1024" 
d="M928 754h-277q-6 100 -139 100q-123 0 -123 -92q0 -62 152 -105q223 -61 284 -96q152 -88 152 -254q0 -155 -162 -254q-137 -84 -303 -84q-195 0 -315 76q-136 88 -138 254h285q4 -59 51 -92t117 -33q147 0 147 115q0 82 -208 131q-193 45 -265 92q-114 78 -114 238
q0 147 153 235q127 74 287 74q397 0 416 -305zM516 1294l143 185h191l-217 -295h-240l-211 295h190z" />
    <glyph glyph-name="Yacute" unicode="&#xdd;" horiz-adv-x="1366" 
d="M524 0v483l-497 996h370l305 -678l312 678h325l-497 -996v-483h-318zM731 1930h274l-280 -295h-164z" />
    <glyph glyph-name="yacute" unicode="&#xfd;" 
d="M586 317l229 711h301l-516 -1419h-305l131 389l-397 1030h327zM617 1479h274l-280 -295h-164z" />
    <glyph glyph-name="Thorn" unicode="&#xde;" horiz-adv-x="1251" 
d="M451 0h-318v1479h318v-205h139q282 0 426 -86q178 -109 178 -369q0 -205 -135 -330q-135 -124 -377 -124h-231v-365zM451 1028v-418h184q104 2 156 41q65 47 65 168t-65 168q-52 39 -156 41h-184z" />
    <glyph glyph-name="thorn" unicode="&#xfe;" horiz-adv-x="1251" 
d="M410 1479l4 -570q43 66 121 109q75 41 153 41q227 0 361 -168q120 -154 120 -377q0 -219 -108 -371q-123 -174 -334 -174q-217 0 -317 176v-538h-308v1872h308zM410 514q0 -129 49 -223q59 -117 172 -117q221 0 221 340t-221 340q-113 0 -172 -117q-49 -94 -49 -223z" />
    <glyph glyph-name="Zcaron" unicode="&#x17d;" horiz-adv-x="1251" 
d="M59 0v246l734 987h-687v246h1072v-246l-732 -987h748v-246h-1135zM631 1745l143 185h191l-217 -295h-240l-211 295h190z" />
    <glyph glyph-name="zcaron" unicode="&#x17e;" horiz-adv-x="1024" 
d="M954 0h-882v205l565 618h-551v205h848v-205l-565 -618h585v-205zM516 1294l143 185h191l-217 -295h-240l-211 295h190z" />
    <glyph glyph-name="onehalf" unicode="&#xbd;" horiz-adv-x="1708" 
d="M188 1128v181q115 43 232 123h196v-850h-210v655q-103 -66 -218 -109zM526 0h-172l793 1448h170zM1608 133v-133h-664v174q127 107 254 213q193 168 193 248q0 98 -103 98q-55 0 -86 -35q-31 -34 -31 -84l-202 4q0 130 96 193q82 55 219 55q133 0 219 -55q99 -63 99 -180
q0 -129 -175 -281q-137 -108 -272 -217h453z" />
    <glyph glyph-name="onequarter" unicode="&#xbc;" horiz-adv-x="1708" 
d="M1638 186h-137v-186h-190v186h-340v123l340 541h190v-531h137v-133zM1311 319l-4 273l-170 -273h174zM332 1128v181q114 43 231 123h197v-850h-211v655q-103 -66 -217 -109zM690 0h-172l793 1448h170z" />
    <glyph glyph-name="onesuperior" unicode="&#xb9;" horiz-adv-x="682" 
d="M111 1128v181q114 43 231 123h197v-850h-211v655q-103 -66 -217 -109z" />
    <glyph glyph-name="threequarters" unicode="&#xbe;" horiz-adv-x="1708" 
d="M1638 186h-137v-186h-190v186h-340v123l340 541h190v-531h137v-133zM1311 319l-4 273l-170 -273h174zM172 815h201q0 -47 35 -82q32 -37 81 -37q111 0 111 123q0 125 -190 125h-25v133q100 6 143 25q70 31 70 108q0 105 -98 105q-47 0 -80 -31q-33 -29 -33 -74h-203
q13 238 314 238q112 0 204 -51q107 -62 107 -162q0 -174 -176 -215q178 -47 178 -227q0 -97 -100 -162q-103 -68 -224 -68q-313 0 -315 252zM670 0h-172l792 1448h170z" />
    <glyph glyph-name="threesuperior" unicode="&#xb3;" horiz-adv-x="682" 
d="M16 815h201q0 -47 35 -82q33 -37 82 -37q110 0 110 123q0 125 -190 125h-25v133q101 6 144 25q69 31 69 108q0 105 -98 105q-47 0 -80 -31q-33 -29 -33 -74h-202q12 238 313 238q113 0 205 -51q106 -62 106 -162q0 -174 -176 -215q178 -47 178 -227q0 -97 -100 -162
q-102 -68 -223 -68q-314 0 -316 252z" />
    <glyph glyph-name="twosuperior" unicode="&#xb2;" horiz-adv-x="682" 
d="M670 715v-133h-664v174q127 106 254 213q193 168 193 248q0 98 -103 98q-55 0 -86 -35t-31 -84h-202v10q0 117 90 183q86 59 225 59q133 0 219 -55q99 -64 99 -181q0 -129 -175 -280q-137 -109 -272 -217h453z" />
    <glyph glyph-name="brokenbar" unicode="&#xa6;" horiz-adv-x="569" 
d="M408 1479v-590h-246v590h246zM162 0v590h246v-590h-246z" />
    <glyph glyph-name="minus" unicode="&#xad;" horiz-adv-x="1196" 
d="M102 373v245h992v-245h-992z" />
    <glyph glyph-name="multiply" unicode="&#xd7;" horiz-adv-x="1196" 
d="M102 797l174 174l322 -322l322 322l174 -174l-322 -322l322 -321l-174 -174l-322 321l-322 -321l-174 174l322 321z" />
    <glyph glyph-name="Adieresis" unicode="&#xc4;" horiz-adv-x="1479" 
d="M330 0h-303l534 1479h377l514 -1479h-319l-107 313h-586zM522 559h424l-207 631zM1020 1686h-209v244h209v-244zM668 1686h-209v244h209v-244z" />
    <glyph glyph-name="Aring" unicode="&#xc5;" horiz-adv-x="1479" 
d="M330 0h-303l534 1479h377l514 -1479h-319l-107 313h-586zM522 559h424l-207 631zM533 1835q0 84 61 148q62 61 148 61q84 0 145 -61q60 -64 60 -148q0 -86 -60 -147q-59 -61 -145 -61t-148 61q-61 61 -61 147zM633 1835q0 -45 33 -75q31 -33 76 -33t75 33q29 30 29 75
q0 46 -29.5 77.5t-74.5 31.5t-76 -31q-33 -32 -33 -78z" />
    <glyph glyph-name="Ccedilla" unicode="&#xc7;" horiz-adv-x="1366" 
d="M1311 999h-338v9q0 116 -72 194q-74 78 -211 78q-151 0 -225 -193q-57 -147 -57 -348q0 -200 57 -348q74 -192 225 -192q137 0 213 82q70 73 70 190v8h338q-11 -264 -189 -393q-157 -117 -432 -117q-307 0 -471 224q-149 204 -149 546t149 547q164 223 471 223
q275 0 432 -116q178 -129 189 -394zM522 -178l135 190h98l-102 -135l4 -4q25 10 57 10q183 0 183 -151q0 -88 -86 -140q-72 -43 -166 -43q-103 0 -205 45q20 37 43 87q45 -19 137 -37q43 0 82 20q37 19 37 60q0 34 -29 55q-28 18 -65 18q-31 0 -51 -8l-23 -8q-10 0 -49 41z
" />
    <glyph glyph-name="Eacute" unicode="&#xc9;" horiz-adv-x="1251" 
d="M119 0v1479h991v-246h-674v-346h631v-246h-631v-395h697v-246h-1014zM674 1930h274l-280 -295h-164z" />
    <glyph glyph-name="Ntilde" unicode="&#xd1;" horiz-adv-x="1593" 
d="M1470 0h-450l-584 1229l-4 -4v-1225h-297v1479h471l563 -1164l5 4v1160h296v-1479zM557 1665h-104q16 105 73 172q68 78 166 78q56 0 152 -39q94 -39 143 -39q62 0 90 93h105q-8 -105 -66 -172q-63 -74 -166 -74q-51 0 -143 37q-94 37 -139 37q-72 0 -111 -93z" />
    <glyph glyph-name="Odieresis" unicode="&#xd6;" horiz-adv-x="1593" 
d="M797 -31q-353 0 -539 221q-172 203 -172 549t172 549q186 221 539 221q352 0 538 -221q172 -203 172 -549t-172 -549q-186 -221 -538 -221zM797 1280q-373 0 -373 -541q0 -540 373 -540q372 0 372 540q0 541 -372 541zM1077 1686h-209v244h209v-244zM725 1686h-209v244
h209v-244z" />
    <glyph glyph-name="Udieresis" unicode="&#xdc;" horiz-adv-x="1593" 
d="M1120 1479h318v-926q0 -283 -187 -438q-172 -146 -454 -146q-283 0 -455 146q-186 155 -186 438v926h317v-803q0 -238 45 -332q70 -145 279 -145t278 145q45 94 45 332v803zM1077 1686h-209v244h209v-244zM725 1686h-209v244h209v-244z" />
    <glyph glyph-name="aacute" unicode="&#xe1;" 
d="M705 483h-23q-303 0 -303 -161q0 -64 43 -105q41 -43 106 -43q113 0 152 109q25 67 25 200zM426 737h-295q2 176 139 256q113 66 303 66q439 0 439 -385v-561l14 -113h-276q-11 78 -15 137q-98 -168 -315 -168q-150 0 -240 80q-96 84 -96 232q0 81 39 159q57 113 180 166
q131 56 346 56h56v96q0 43 -31 80q-39 47 -111 47q-71 0 -110 -56q-27 -38 -27 -79v-13zM617 1479h274l-280 -295h-164z" />
    <glyph glyph-name="agrave" unicode="&#xe0;" 
d="M705 483h-23q-303 0 -303 -161q0 -64 43 -105q41 -43 106 -43q113 0 152 109q25 67 25 200zM426 737h-295q2 176 139 256q113 66 303 66q439 0 439 -385v-561l14 -113h-276q-11 78 -15 137q-98 -168 -315 -168q-150 0 -240 80q-96 84 -96 232q0 81 39 159q57 113 180 166
q131 56 346 56h56v96q0 43 -31 80q-39 47 -111 47q-71 0 -110 -56q-27 -38 -27 -79v-13zM248 1479h275l170 -295h-164z" />
    <glyph glyph-name="acircumflex" unicode="&#xe2;" 
d="M705 483h-23q-303 0 -303 -161q0 -64 43 -105q41 -43 106 -43q113 0 152 109q25 67 25 200zM426 737h-295q2 176 139 256q113 66 303 66q439 0 439 -385v-561l14 -113h-276q-11 78 -15 137q-98 -168 -315 -168q-150 0 -240 80q-96 84 -96 232q0 81 39 159q57 113 180 166
q131 56 346 56h56v96q0 43 -31 80q-39 47 -111 47q-71 0 -110 -56q-27 -38 -27 -79v-13zM707 1184l-139 174l-144 -174h-182l223 295h211l213 -295h-182z" />
    <glyph glyph-name="adieresis" unicode="&#xe4;" 
d="M705 483h-23q-303 0 -303 -161q0 -64 43 -105q41 -43 106 -43q113 0 152 109q25 67 25 200zM426 737h-295q2 176 139 256q113 66 303 66q439 0 439 -385v-561l14 -113h-276q-11 78 -15 137q-98 -168 -315 -168q-150 0 -240 80q-96 84 -96 232q0 81 39 159q57 113 180 166
q131 56 346 56h56v96q0 43 -31 80q-39 47 -111 47q-71 0 -110 -56q-27 -38 -27 -79v-13zM850 1235h-209v244h209v-244zM498 1235h-209v244h209v-244z" />
    <glyph glyph-name="atilde" unicode="&#xe3;" 
d="M705 483h-23q-303 0 -303 -161q0 -64 43 -105q41 -43 106 -43q113 0 152 109q25 67 25 200zM426 737h-295q2 176 139 256q113 66 303 66q439 0 439 -385v-561l14 -113h-276q-11 78 -15 137q-98 -168 -315 -168q-150 0 -240 80q-96 84 -96 232q0 81 39 159q57 113 180 166
q131 56 346 56h56v96q0 43 -31 80q-39 47 -111 47q-71 0 -110 -56q-27 -38 -27 -79v-13zM330 1214h-104q16 105 73 172q68 78 166 78q56 0 152 -39q94 -39 143 -39q62 0 90 93h105q-8 -105 -66 -172q-63 -74 -166 -74q-51 0 -143 37q-94 37 -139 37q-72 0 -111 -93z" />
    <glyph glyph-name="aring" unicode="&#xe5;" 
d="M705 483h-23q-303 0 -303 -161q0 -64 43 -105q41 -43 106 -43q113 0 152 109q25 67 25 200zM426 737h-295q2 176 139 256q113 66 303 66q439 0 439 -385v-561l14 -113h-276q-11 78 -15 137q-98 -168 -315 -168q-150 0 -240 80q-96 84 -96 232q0 81 39 159q57 113 180 166
q131 56 346 56h56v96q0 43 -31 80q-39 47 -111 47q-71 0 -110 -56q-27 -38 -27 -79v-13zM363 1384q0 84 61 148q62 61 148 61q84 0 145 -61q60 -64 60 -148q0 -86 -60 -147q-59 -61 -145 -61t-148 61q-61 61 -61 147zM463 1384q0 -45 33 -75q31 -33 76 -33t75 33
q29 30 29 75q0 46 -29.5 77.5t-74.5 31.5t-76 -31q-33 -32 -33 -78z" />
    <glyph glyph-name="ccedilla" unicode="&#xe7;" horiz-adv-x="1024" 
d="M981 668h-303q-4 186 -156 186q-84 0 -116 -133q-15 -57 -21 -193q14 -170 25 -213q32 -141 116 -141q80 0 121 70q33 53 35 131h299q-8 -197 -125 -301.5t-330 -104.5q-217 0 -344 170q-114 154 -114 375t114 375q127 170 344 170q201 0 330 -107q125 -104 125 -284z
M350 -178l135 190h98l-102 -135l4 -4q25 10 57 10q183 0 183 -151q0 -88 -86 -140q-72 -43 -166 -43q-103 0 -205 45q20 37 43 87q45 -19 137 -37q43 0 82 20q37 19 37 60q0 34 -29 55q-28 18 -65 18q-31 0 -51 -8l-23 -8q-10 0 -49 41z" />
    <glyph glyph-name="eacute" unicode="&#xe9;" 
d="M1077 432h-674q0 -119 27 -176q41 -82 150 -82q147 0 188 133h276q-34 -338 -464 -338q-494 0 -494 543q0 240 129 389q135 158 365 158q319 0 438 -246q59 -123 59 -381zM403 637h357q0 217 -180 217q-168 0 -177 -217zM617 1479h274l-280 -295h-164z" />
    <glyph glyph-name="egrave" unicode="&#xe8;" 
d="M1077 432h-674q0 -119 27 -176q41 -82 150 -82q147 0 188 133h276q-34 -338 -464 -338q-494 0 -494 543q0 240 129 389q135 158 365 158q319 0 438 -246q59 -123 59 -381zM403 637h357q0 217 -180 217q-168 0 -177 -217zM248 1479h275l170 -295h-164z" />
    <glyph glyph-name="ecircumflex" unicode="&#xea;" 
d="M1077 432h-674q0 -119 27 -176q41 -82 150 -82q147 0 188 133h276q-34 -338 -464 -338q-494 0 -494 543q0 240 129 389q135 158 365 158q319 0 438 -246q59 -123 59 -381zM403 637h357q0 217 -180 217q-168 0 -177 -217zM707 1184l-139 174l-144 -174h-182l223 295h211
l213 -295h-182z" />
    <glyph glyph-name="edieresis" unicode="&#xeb;" 
d="M1077 432h-674q0 -119 27 -176q41 -82 150 -82q147 0 188 133h276q-34 -338 -464 -338q-494 0 -494 543q0 240 129 389q135 158 365 158q319 0 438 -246q59 -123 59 -381zM403 637h357q0 217 -180 217q-168 0 -177 -217zM850 1235h-209v244h209v-244zM498 1235h-209v244
h209v-244z" />
    <glyph glyph-name="iacute" unicode="&#xed;" horiz-adv-x="569" 
d="M438 0h-307v1028h307v-1028zM332 1479h274l-280 -295h-164z" />
    <glyph glyph-name="igrave" unicode="&#xec;" horiz-adv-x="569" 
d="M438 0h-307v1028h307v-1028zM-37 1479h275l170 -295h-164z" />
    <glyph glyph-name="icircumflex" unicode="&#xee;" horiz-adv-x="569" 
d="M438 0h-307v1028h307v-1028zM422 1184l-139 174l-144 -174h-182l223 295h211l213 -295h-182z" />
    <glyph glyph-name="idieresis" unicode="&#xef;" horiz-adv-x="569" 
d="M438 0h-307v1028h307v-1028zM565 1235h-209v244h209v-244zM213 1235h-209v244h209v-244z" />
    <glyph glyph-name="ntilde" unicode="&#xf1;" horiz-adv-x="1251" 
d="M440 1028v-119l4 -6q105 156 316 156q92 0 192 -58q121 -65 146 -167q20 -82 20 -164v-670h-307v618q0 236 -184 236q-76 0 -129 -63q-56 -64 -56 -173v-618h-307v1028h305zM387 1214h-104q16 105 73 172q68 78 166 78q56 0 152 -39q94 -39 143 -39q62 0 90 93h105
q-8 -105 -66 -172q-63 -74 -166 -74q-51 0 -143 37q-94 37 -139 37q-72 0 -111 -93z" />
    <glyph glyph-name="oacute" unicode="&#xf3;" horiz-adv-x="1251" 
d="M1163 514q0 -246 -143 -395.5t-393 -149.5t-394 150q-143 149 -143 395t143 395q144 150 394 150t393 -150q143 -149 143 -395zM408 514q0 -340 219 -340t219 340t-219 340t-219 -340zM674 1479h274l-280 -295h-164z" />
    <glyph glyph-name="ograve" unicode="&#xf2;" horiz-adv-x="1251" 
d="M1163 514q0 -246 -143 -395.5t-393 -149.5t-394 150q-143 149 -143 395t143 395q144 150 394 150t393 -150q143 -149 143 -395zM408 514q0 -340 219 -340t219 340t-219 340t-219 -340zM305 1479h275l170 -295h-164z" />
    <glyph glyph-name="ocircumflex" unicode="&#xf4;" horiz-adv-x="1251" 
d="M1163 514q0 -246 -143 -395.5t-393 -149.5t-394 150q-143 149 -143 395t143 395q144 150 394 150t393 -150q143 -149 143 -395zM408 514q0 -340 219 -340t219 340t-219 340t-219 -340zM764 1184l-139 174l-144 -174h-182l223 295h211l213 -295h-182z" />
    <glyph glyph-name="odieresis" unicode="&#xf6;" horiz-adv-x="1251" 
d="M1163 514q0 -246 -143 -395.5t-393 -149.5t-394 150q-143 149 -143 395t143 395q144 150 394 150t393 -150q143 -149 143 -395zM408 514q0 -340 219 -340t219 340t-219 340t-219 -340zM907 1235h-209v244h209v-244zM555 1235h-209v244h209v-244z" />
    <glyph glyph-name="otilde" unicode="&#xf5;" horiz-adv-x="1251" 
d="M1163 514q0 -246 -143 -395.5t-393 -149.5t-394 150q-143 149 -143 395t143 395q144 150 394 150t393 -150q143 -149 143 -395zM408 514q0 -340 219 -340t219 340t-219 340t-219 -340zM387 1214h-104q16 105 73 172q68 78 166 78q56 0 152 -39q94 -39 143 -39q62 0 90 93
h105q-8 -105 -66 -172q-63 -74 -166 -74q-51 0 -143 37q-94 37 -139 37q-72 0 -111 -93z" />
    <glyph glyph-name="uacute" unicode="&#xfa;" horiz-adv-x="1251" 
d="M815 0l-12 127q-111 -158 -318 -158q-92 0 -192 58q-121 67 -146 170q-20 82 -20 163v668h307v-616q0 -238 184 -238q76 0 132 66q53 63 53 172v616h307v-844q0 -61 12 -184h-307zM674 1479h274l-280 -295h-164z" />
    <glyph glyph-name="ugrave" unicode="&#xf9;" horiz-adv-x="1251" 
d="M815 0l-12 127q-111 -158 -318 -158q-92 0 -192 58q-121 67 -146 170q-20 82 -20 163v668h307v-616q0 -238 184 -238q76 0 132 66q53 63 53 172v616h307v-844q0 -61 12 -184h-307zM305 1479h275l170 -295h-164z" />
    <glyph glyph-name="ucircumflex" unicode="&#xfb;" horiz-adv-x="1251" 
d="M815 0l-12 127q-111 -158 -318 -158q-92 0 -192 58q-121 67 -146 170q-20 82 -20 163v668h307v-616q0 -238 184 -238q76 0 132 66q53 63 53 172v616h307v-844q0 -61 12 -184h-307zM764 1184l-139 174l-144 -174h-182l223 295h211l213 -295h-182z" />
    <glyph glyph-name="udieresis" unicode="&#xfc;" horiz-adv-x="1251" 
d="M815 0l-12 127q-111 -158 -318 -158q-92 0 -192 58q-121 67 -146 170q-20 82 -20 163v668h307v-616q0 -238 184 -238q76 0 132 66q53 63 53 172v616h307v-844q0 -61 12 -184h-307zM907 1235h-209v244h209v-244zM555 1235h-209v244h209v-244z" />
    <glyph glyph-name="degree" unicode="&#xb0;" horiz-adv-x="819" 
d="M717 1178q0 -127 -90 -217.5t-217 -90.5t-217.5 90.5t-90.5 217.5t90.5 217t217.5 90t217 -90t90 -217zM246 1178q0 -70 49 -117q47 -47 115 -47q67 0 116 49q47 47 47 115q0 67 -49 116q-49 47 -116 47q-66 0 -113 -47q-49 -49 -49 -116z" />
    <glyph glyph-name="registered" unicode="&#xae;" horiz-adv-x="1638" 
d="M819 -31q-319 0 -545 228q-225 225 -225 542q0 318 225 545q226 225 545 225q318 0 545 -225q225 -227 225 -545q0 -317 -225 -542q-227 -228 -545 -228zM819 1305q-231 0 -395 -160q-170 -164 -170 -406q0 -241 170 -405q164 -160 395 -160q228 0 398 164
q167 162 167 401q0 242 -172 406q-163 160 -393 160zM680 684v-342h-184v840h401q162 0 225 -39q99 -60 99 -225q0 -205 -228 -234l203 -342h-211l-184 342h-121zM680 838h221q68 0 96 20q29 21 29 84q0 57 -53 76q-31 10 -113 10h-180v-190z" />
    <glyph glyph-name="copyright" unicode="&#xa9;" horiz-adv-x="1638" 
d="M819 -31q-319 0 -545 226q-225 225 -225 544q0 320 225 545q226 225 545 225q318 0 545 -225q225 -225 225 -545q0 -319 -225 -544q-227 -226 -545 -226zM819 1305q-231 0 -395 -160q-170 -164 -170 -406q0 -241 170 -405q164 -160 395 -160q228 0 398 164
q167 162 167 401q0 242 -172 406q-163 160 -393 160zM1024 602h186q-14 -137 -120 -219q-99 -80 -238 -80q-190 0 -309 129q-117 123 -117 313q0 197 115 322q114 123 307 123q141 0 242 -78q98 -78 120 -213h-186q-27 137 -178 137q-107 0 -166 -82q-59 -84 -59 -204
q0 -115 61 -201q68 -92 170 -92q162 0 172 145z" />
    <glyph glyph-name="trademark" unicode="&#x2122;" horiz-adv-x="2048" 
d="M1907 1479v-828h-185l-4 664l-235 -664h-115l-235 664h-5v-664h-184v828h291l190 -490l183 490h299zM848 1479v-164h-248v-664h-205v664h-250v164h703z" />
    <glyph glyph-name="plusminus" unicode="&#xb1;" horiz-adv-x="1196" 
d="M475 991h246v-198h352v-246h-352v-199h-246v199h-352v246h352v198zM102 0v246h992v-246h-992z" />
    <glyph glyph-name="mu" unicode="&#xb5;" horiz-adv-x="1251" 
d="M805 0l-12 127q-95 -135 -271 -135q-45 0 -98 8v-393h-307v1421h307v-616q0 -238 184 -238q76 0 131 66q54 63 54 172v616h307v-844q0 -61 12 -184h-307z" />
    <glyph glyph-name="logicalnot" unicode="&#xac;" horiz-adv-x="1196" 
d="M848 248v350h-746v246h992v-596h-246z" />
    <glyph glyph-name="Agrave" unicode="&#xc0;" horiz-adv-x="1479" 
d="M330 0h-303l534 1479h377l514 -1479h-319l-107 313h-586zM522 559h424l-207 631zM418 1930h275l170 -295h-164z" />
    <glyph glyph-name="Atilde" unicode="&#xc3;" horiz-adv-x="1479" 
d="M330 0h-303l534 1479h377l514 -1479h-319l-107 313h-586zM522 559h424l-207 631zM500 1665h-104q16 105 73 172q68 78 166 78q56 0 152 -39q94 -39 143 -39q62 0 90 93h105q-8 -105 -66 -172q-63 -74 -166 -74q-51 0 -143 37q-94 37 -139 37q-72 0 -111 -93z" />
    <glyph glyph-name="Otilde" unicode="&#xd5;" horiz-adv-x="1593" 
d="M797 -31q-353 0 -539 221q-172 203 -172 549t172 549q186 221 539 221q352 0 538 -221q172 -203 172 -549t-172 -549q-186 -221 -538 -221zM797 1280q-373 0 -373 -541q0 -540 373 -540q372 0 372 540q0 541 -372 541zM557 1665h-104q16 105 73 172q68 78 166 78
q56 0 152 -39q94 -39 143 -39q62 0 90 93h105q-8 -105 -66 -172q-63 -74 -166 -74q-51 0 -143 37q-94 37 -139 37q-72 0 -111 -93z" />
    <glyph glyph-name="divide" unicode="&#xf7;" horiz-adv-x="1196" 
d="M1094 598v-246h-992v246h992zM475 -20v245h246v-245h-246zM475 725v246h246v-246h-246z" />
    <glyph glyph-name="ydieresis" unicode="&#xff;" 
d="M586 317l229 711h301l-516 -1419h-305l131 389l-397 1030h327zM850 1235h-209v244h209v-244zM498 1235h-209v244h209v-244z" />
    <glyph glyph-name="Ydieresis" unicode="&#x178;" horiz-adv-x="1366" 
d="M524 0v483l-497 996h370l305 -678l312 678h325l-497 -996v-483h-318zM964 1686h-209v244h209v-244zM612 1686h-209v244h209v-244z" />
    <glyph glyph-name="Acircumflex" unicode="&#xc2;" horiz-adv-x="1479" 
d="M330 0h-303l534 1479h377l514 -1479h-319l-107 313h-586zM522 559h424l-207 631zM877 1635l-139 174l-144 -174h-182l223 295h211l213 -295h-182z" />
    <glyph glyph-name="Ecircumflex" unicode="&#xca;" horiz-adv-x="1251" 
d="M119 0v1479h991v-246h-674v-346h631v-246h-631v-395h697v-246h-1014zM764 1635l-139 174l-144 -174h-182l223 295h211l213 -295h-182z" />
    <glyph glyph-name="Aacute" unicode="&#xc1;" horiz-adv-x="1479" 
d="M330 0h-303l534 1479h377l514 -1479h-319l-107 313h-586zM522 559h424l-207 631zM787 1930h274l-280 -295h-164z" />
    <glyph glyph-name="Edieresis" unicode="&#xcb;" horiz-adv-x="1251" 
d="M119 0v1479h991v-246h-674v-346h631v-246h-631v-395h697v-246h-1014zM907 1686h-209v244h209v-244zM555 1686h-209v244h209v-244z" />
    <glyph glyph-name="Egrave" unicode="&#xc8;" horiz-adv-x="1251" 
d="M119 0v1479h991v-246h-674v-346h631v-246h-631v-395h697v-246h-1014zM305 1930h275l170 -295h-164z" />
    <glyph glyph-name="Iacute" unicode="&#xcd;" horiz-adv-x="569" 
d="M444 1479v-1479h-317v1479h317zM332 1930h274l-280 -295h-164z" />
    <glyph glyph-name="Icircumflex" unicode="&#xce;" horiz-adv-x="569" 
d="M444 1479v-1479h-317v1479h317zM422 1635l-139 174l-144 -174h-182l223 295h211l213 -295h-182z" />
    <glyph glyph-name="Idieresis" unicode="&#xcf;" horiz-adv-x="569" 
d="M444 1479v-1479h-317v1479h317zM565 1686h-209v244h209v-244zM213 1686h-209v244h209v-244z" />
    <glyph glyph-name="Igrave" unicode="&#xcc;" horiz-adv-x="569" 
d="M444 1479v-1479h-317v1479h317zM-37 1930h275l170 -295h-164z" />
    <glyph glyph-name="Oacute" unicode="&#xd3;" horiz-adv-x="1593" 
d="M797 -31q-353 0 -539 221q-172 203 -172 549t172 549q186 221 539 221q352 0 538 -221q172 -203 172 -549t-172 -549q-186 -221 -538 -221zM797 1280q-373 0 -373 -541q0 -540 373 -540q372 0 372 540q0 541 -372 541zM844 1930h274l-280 -295h-164z" />
    <glyph glyph-name="Ocircumflex" unicode="&#xd4;" horiz-adv-x="1593" 
d="M797 -31q-353 0 -539 221q-172 203 -172 549t172 549q186 221 539 221q352 0 538 -221q172 -203 172 -549t-172 -549q-186 -221 -538 -221zM797 1280q-373 0 -373 -541q0 -540 373 -540q372 0 372 540q0 541 -372 541zM934 1635l-139 174l-144 -174h-182l223 295h211
l213 -295h-182z" />
    <glyph glyph-name="Ograve" unicode="&#xd2;" horiz-adv-x="1593" 
d="M797 -31q-353 0 -539 221q-172 203 -172 549t172 549q186 221 539 221q352 0 538 -221q172 -203 172 -549t-172 -549q-186 -221 -538 -221zM797 1280q-373 0 -373 -541q0 -540 373 -540q372 0 372 540q0 541 -372 541zM475 1930h275l170 -295h-164z" />
    <glyph glyph-name="Uacute" unicode="&#xda;" horiz-adv-x="1593" 
d="M1120 1479h318v-926q0 -283 -187 -438q-172 -146 -454 -146q-283 0 -455 146q-186 155 -186 438v926h317v-803q0 -238 45 -332q70 -145 279 -145t278 145q45 94 45 332v803zM844 1930h274l-280 -295h-164z" />
    <glyph glyph-name="Ucircumflex" unicode="&#xdb;" horiz-adv-x="1593" 
d="M1120 1479h318v-926q0 -283 -187 -438q-172 -146 -454 -146q-283 0 -455 146q-186 155 -186 438v926h317v-803q0 -238 45 -332q70 -145 279 -145t278 145q45 94 45 332v803zM934 1635l-139 174l-144 -174h-182l223 295h211l213 -295h-182z" />
    <glyph glyph-name="Ugrave" unicode="&#xd9;" horiz-adv-x="1593" 
d="M1120 1479h318v-926q0 -283 -187 -438q-172 -146 -454 -146q-283 0 -455 146q-186 155 -186 438v926h317v-803q0 -238 45 -332q70 -145 279 -145t278 145q45 94 45 332v803zM475 1930h275l170 -295h-164z" />
    <glyph glyph-name="_extra1" horiz-adv-x="569" 
 />
    <glyph glyph-name="c128" horiz-adv-x="1536" 
d="M1454 1208l-100 -213q-135 203 -422 203q-322 0 -410 -246h811l-98 -204h-750q-4 -41 -4 -70q0 -23 4 -64h686l-96 -204h-532q32 -93 135 -158q113 -72 264 -72q262 0 410 168v-246q-58 -47 -162 -82q-133 -45 -279 -45q-254 0 -426 129q-151 113 -219 306h-256l103 204
h104q-2 29 -2 66q0 39 2 68h-207l103 204h153q56 199 232 322q184 129 444 129q318 0 512 -195z" />
    <glyph glyph-name="u20AC" unicode="&#x20ac;" horiz-adv-x="1536" 
d="M1454 1208l-100 -213q-135 203 -422 203q-322 0 -410 -246h811l-98 -204h-750q-4 -41 -4 -70q0 -23 4 -64h686l-96 -204h-532q32 -93 135 -158q113 -72 264 -72q262 0 410 168v-246q-58 -47 -162 -82q-133 -45 -279 -45q-254 0 -426 129q-151 113 -219 306h-256l103 204
h104q-2 29 -2 66q0 39 2 68h-207l103 204h153q56 199 232 322q184 129 444 129q318 0 512 -195z" />
    <glyph glyph-name="_extra2" unicode="&#x2c9;" horiz-adv-x="569" 
d="M635 1479v-144h-698v144h698z" />
    <glyph glyph-name="_extra3" unicode="&#x3bc;" horiz-adv-x="1251" 
d="M805 0l-12 127q-95 -135 -271 -135q-45 0 -98 8v-393h-307v1421h307v-616q0 -238 184 -238q76 0 131 66q54 63 54 172v616h307v-844q0 -61 12 -184h-307z" />
    <glyph glyph-name="_extra4" unicode="&#x2010;" horiz-adv-x="682" 
d="M596 426h-508v229h508v-229z" />
    <glyph glyph-name="minus.0" unicode="&#x2212;" horiz-adv-x="1196" 
d="M102 373v245h992v-245h-992z" />
    <glyph glyph-name="periodcentered.0" unicode="&#x2219;" horiz-adv-x="569" 
d="M416 360h-260v273h260v-273z" />
  </font>
</defs>
</svg>
