<?xml version="1.0" encoding="utf-8"?>
<!-- Generator: Adobe Illustrator 16.0.0, SVG Export Plug-In . SVG Version: 6.00 Build 0)  -->
<!DOCTYPE svg PUBLIC "-//W3C//DTD SVG 1.1//EN" "http://www.w3.org/Graphics/SVG/1.1/DTD/svg11.dtd">
<svg version="1.1" id="Layer_1" xmlns="http://www.w3.org/2000/svg" xmlns:xlink="http://www.w3.org/1999/xlink" x="0px" y="0px"
	 width="1289.162px" height="1229.696px" viewBox="0 0 1289.162 1229.696" enable-background="new 0 0 1289.162 1229.696"
	 xml:space="preserve">
<path fill="none" stroke="#000000" stroke-linejoin="round" stroke-miterlimit="10" d="M1219.48,1168.891
	c3.066-1.01,6.345-1.555,9.75-1.555c17.22,0,31.18,13.959,31.18,31.18s-13.96,31.18-31.18,31.18
	c-17.222,0-31.182-13.959-31.182-31.18c0-5.561,1.456-10.781,4.008-15.303c-0.206-1.955-2.559-1.324-3.83-1.133
	c-5.336,2.441-11.85,3.965-19.793,3.965c-39.918,0-1022.344,0.496-1065.104,0c-42.761-0.494-45.874-38.5-45.874-38.5
	S5.459,73.006,0.618,41.996C-5.938,0,41.823,0,41.823,0h1211.622c0,0,37.834,4.169,35.623,40.724
	c-2.211,36.555-66.949,1106.87-66.949,1106.87s-0.962,9.809-7.054,19.516C1215.055,1169.84,1217.698,1169.061,1219.48,1168.891z"/>
</svg>
