<?xml version="1.0" encoding="utf-8"?>
<!-- Generator: Adobe Illustrator 16.0.0, SVG Export Plug-In . SVG Version: 6.00 Build 0)  -->
<!DOCTYPE svg PUBLIC "-//W3C//DTD SVG 1.1//EN" "http://www.w3.org/Graphics/SVG/1.1/DTD/svg11.dtd">
<svg version="1.1" id="Layer_1" xmlns="http://www.w3.org/2000/svg" xmlns:xlink="http://www.w3.org/1999/xlink" x="0px" y="0px"
	 width="967.739px" height="331.609px" viewBox="0 0 967.739 331.609" enable-background="new 0 0 967.739 331.609"
	 xml:space="preserve">
<path fill="none" stroke="#000000" stroke-linejoin="round" stroke-miterlimit="10" d="M926.577,270.884
	c3.135-1.059,6.492-1.633,9.982-1.633c17.219,0,31.18,13.96,31.18,31.181c0,17.22-13.961,31.179-31.18,31.179
	s-31.18-13.959-31.18-31.179c0-5.549,1.447-10.758,3.988-15.271c0-0.619-0.012-1.259-0.678-1.496
	c-0.529-0.188-1.148-0.04-1.691-0.007c-12.307,7.194-25.533,7.131-25.533,7.131s-786.759,0-834.009,0S0,243,0,243V41
	C0,41-0.543,0,41.462,0s840.007,0,840.007,0s46.16,5,46.16,45s2.164,158,0,202c-0.41,8.327-2.318,15.071-5.143,20.532
	C922.401,270.427,924.045,270.811,926.577,270.884z"/>
</svg>
