<?xml version="1.0" encoding="utf-8"?>
<!-- Generator: Adobe Illustrator 16.0.0, SVG Export Plug-In . SVG Version: 6.00 Build 0)  -->
<!DOCTYPE svg PUBLIC "-//W3C//DTD SVG 1.1//EN" "http://www.w3.org/Graphics/SVG/1.1/DTD/svg11.dtd">
<svg version="1.1" id="Layer_1" xmlns="http://www.w3.org/2000/svg" xmlns:xlink="http://www.w3.org/1999/xlink" x="0px" y="0px"
	 width="903.18px" height="615.625px" viewBox="0 0 903.18 615.625" enable-background="new 0 0 903.18 615.625"
	 xml:space="preserve">
<path fill="none" stroke="#000000" stroke-linejoin="round" stroke-miterlimit="10" d="M60.423,42.03
	c1.254-3.379,1.939-7.034,1.939-10.849C62.362,13.96,48.402,0,31.181,0C13.96,0,0,13.96,0,31.181
	c0,17.221,13.96,31.181,31.181,31.181c5.053,0,9.826-1.202,14.046-3.335c3.986-0.894,6.56,2.26,7.56,5.724v541.007
	c0,5.449,3.394,9.867,7.581,9.867h835.229c4.188,0,7.581-4.418,7.581-9.867V58.562c0-5.449-3.394-9.867-7.581-9.867H68.965
	C64.997,47.704,60.422,47.118,60.423,42.03L60.423,42.03z"/>
</svg>
