<?xml version="1.0" encoding="utf-8"?>
<!-- Generator: Adobe Illustrator 16.0.0, SVG Export Plug-In . SVG Version: 6.00 Build 0)  -->
<!DOCTYPE svg PUBLIC "-//W3C//DTD SVG 1.1//EN" "http://www.w3.org/Graphics/SVG/1.1/DTD/svg11.dtd">
<svg version="1.1" id="Layer_1" xmlns="http://www.w3.org/2000/svg" xmlns:xlink="http://www.w3.org/1999/xlink" x="0px" y="0px"
	 width="1027.742px" height="1052.485px" viewBox="0 0 1027.742 1052.485" enable-background="new 0 0 1027.742 1052.485"
	 xml:space="preserve">
<path fill="none" stroke="#000000" stroke-linejoin="round" stroke-miterlimit="10" d="M976.995,61.902
	c2.979-1.519,1.749-5.145-0.432-6.758c-1.694-1.253-3.188-3.046-4.523-4.669c-2.771-3.367-4.667-7.56-5.741-11.761
	c-0.627-2.452-0.916-5.002-0.916-7.533c0-17.22,13.96-31.18,31.181-31.18c17.22,0,31.18,13.96,31.18,31.18
	c0,17.22-13.96,31.18-31.18,31.18c-0.99,0-1.971-0.046-2.938-0.138c-1.828,0-3.309,1.73-3.307,3.869
	c1.163,2.658,1.809,6.215,1.809,10.62v944.115c0,17.414-14.248,31.662-31.662,31.662H16.351
	c-17.414-0.002-21.588-10.076-9.275-22.391L969.737,67.439C972.273,64.901,974.715,63.064,976.995,61.902z"/>
</svg>
