<?xml version="1.0" encoding="utf-8"?>
<!-- Generator: Adobe Illustrator 16.0.0, SVG Export Plug-In . SVG Version: 6.00 Build 0)  -->
<!DOCTYPE svg PUBLIC "-//W3C//DTD SVG 1.1//EN" "http://www.w3.org/Graphics/SVG/1.1/DTD/svg11.dtd">
<svg version="1.1" id="Layer_1" xmlns="http://www.w3.org/2000/svg" xmlns:xlink="http://www.w3.org/1999/xlink" x="0px" y="0px"
	 width="1467.277px" height="184.816px" viewBox="0 0 1467.277 184.816" enable-background="new 0 0 1467.277 184.816"
	 xml:space="preserve">
<path fill="none" stroke="#000000" stroke-linejoin="round" stroke-miterlimit="10" d="M49.341,56.53c0.891,0,1.61,1.159,1.61,2.59
	H50.95c-0.647,2.104-0.998,4.332-0.998,6.64v96.381c0,12.473,10.205,22.678,22.677,22.678h1371.971
	c12.475,0,22.68-10.205,22.68-22.678V65.76c-0.001-12.471-10.206-22.677-22.68-22.677H72.629c-3.469,0-6.762,0.79-9.709,2.197
	c-1.379,0-2.495-1.457-2.494-3.257c1.253-3.376,1.938-7.029,1.938-10.842C62.363,13.96,48.403,0,31.182,0
	C13.961,0,0.001,13.96,0.001,31.181c0,17.221,13.96,31.181,31.182,31.181C37.957,62.362,44.227,60.201,49.341,56.53L49.341,56.53z"
	/>
</svg>
