<?xml version="1.0" encoding="utf-8"?>
<!-- Generator: Adobe Illustrator 16.0.0, SVG Export Plug-In . SVG Version: 6.00 Build 0)  -->
<!DOCTYPE svg PUBLIC "-//W3C//DTD SVG 1.1//EN" "http://www.w3.org/Graphics/SVG/1.1/DTD/svg11.dtd">
<svg version="1.1" id="Layer_1" xmlns="http://www.w3.org/2000/svg" xmlns:xlink="http://www.w3.org/1999/xlink" x="0px" y="0px"
	 width="1177.199px" height="617.074px" viewBox="0 0 1177.199 617.074" enable-background="new 0 0 1177.199 617.074"
	 xml:space="preserve">
<path fill="none" stroke="#000000" stroke-linejoin="round" stroke-miterlimit="10" d="M46.587,61.165
	c0.374-0.628-0.214-1.662-0.787-1.96c-0.796-0.415-1.723,0.284-2.418,0.63c-2.338,1.166-5.005,1.798-7.581,2.208
	c-1.512,0.241-3.088,0.319-4.619,0.319c-17.221,0-31.181-13.96-31.181-31.181C0.001,13.96,13.961,0,31.182,0
	s31.181,13.96,31.181,31.181c0,5.258-1.363,10.358-3.815,14.995c-0.739,1.397-3.232,3.702-0.934,5.091
	c0.125,0.076,0.648,0.146,0.705,0.23c2.407-0.876,5-1.354,7.7-1.354h1088.504c12.474,0,22.678,10.205,22.681,22.677v521.574
	c0,12.477-10.205,22.682-22.681,22.682H66.018c-12.472,0-22.677-10.205-22.677-22.682V72.82c0-4.276,1.199-8.285,3.278-11.708
	C46.619,61.112,46.587,61.166,46.587,61.165z"/>
</svg>
