<?xml version="1.0" encoding="utf-8"?>
<!-- Generator: Adobe Illustrator 16.0.0, SVG Export Plug-In . SVG Version: 6.00 Build 0)  -->
<!DOCTYPE svg PUBLIC "-//W3C//DTD SVG 1.1//EN" "http://www.w3.org/Graphics/SVG/1.1/DTD/svg11.dtd">
<svg version="1.1" id="Layer_1" xmlns="http://www.w3.org/2000/svg" xmlns:xlink="http://www.w3.org/1999/xlink" x="0px" y="0px"
	 width="1033.65px" height="618.033px" viewBox="0 0 1033.65 618.033" enable-background="new 0 0 1033.65 618.033"
	 xml:space="preserve">
<path fill="none" stroke="#000000" stroke-linejoin="round" stroke-miterlimit="10" d="M58.963,51.722
	c-1.43,0-2.587-0.97-2.587-2.169l0.002,0.001c3.765-5.152,5.986-11.503,5.985-18.373C62.363,13.96,48.403,0,31.182,0
	C13.961,0,0.001,13.96,0.001,31.181c0,17.221,13.96,31.181,31.182,31.181c3.904,0,7.642-0.717,11.086-2.028v-0.002
	c0.854,0,1.546,1.589,1.546,3.554c-1.465,2.994-2.288,6.354-2.289,9.896v521.575c0,12.473,10.205,22.678,22.677,22.678h946.771
	c12.474,0,22.679-10.205,22.679-22.678V73.78c-0.001-12.471-10.206-22.676-22.677-22.676H64.202c-1.802,0-3.557,0.213-5.24,0.616
	L58.963,51.722z"/>
</svg>
