<?xml version="1.0" encoding="utf-8"?>
<!-- Generator: Adobe Illustrator 16.0.0, SVG Export Plug-In . SVG Version: 6.00 Build 0)  -->
<!DOCTYPE svg PUBLIC "-//W3C//DTD SVG 1.1//EN" "http://www.w3.org/Graphics/SVG/1.1/DTD/svg11.dtd">
<svg version="1.1" id="Layer_1" xmlns="http://www.w3.org/2000/svg" xmlns:xlink="http://www.w3.org/1999/xlink" x="0px" y="0px"
	 width="613.549px" height="471.947px" viewBox="0 0 613.549 471.947" enable-background="new 0 0 613.549 471.947"
	 xml:space="preserve">
<path fill="none" stroke="#000000" stroke-linejoin="round" stroke-miterlimit="10" d="M59.755,48.869
	c-0.995,0.465-1.559-0.552-1.704-1.375c-0.218-1.227,0.865-2.019,1.383-3.02c1.287-2.489,2.09-5.484,2.513-8.241
	c0.258-1.678,0.414-3.354,0.414-5.052C62.362,13.96,48.402,0,31.181,0S0,13.96,0,31.181c0,17.221,13.96,31.181,31.181,31.181
	c4.932,0,9.855-1.164,14.228-3.45c0.603-0.315,1.195-0.584,1.761-0.968c1.116-0.758,1.823,0.386,1.821,1.419
	c-1.517,3.037-2.37,6.455-2.37,10.062v379.843c0,12.477,10.205,22.682,22.677,22.682h521.575c12.473,0,22.678-10.205,22.678-22.682
	V69.426c0-12.472-10.205-22.677-22.678-22.677H69.296C65.893,46.749,62.659,47.509,59.755,48.869z"/>
</svg>
