<?xml version="1.0" encoding="utf-8"?>
<!-- Generator: Adobe Illustrator 16.0.0, SVG Export Plug-In . SVG Version: 6.00 Build 0)  -->
<!DOCTYPE svg PUBLIC "-//W3C//DTD SVG 1.1//EN" "http://www.w3.org/Graphics/SVG/1.1/DTD/svg11.dtd">
<svg version="1.1" id="Layer_1" xmlns="http://www.w3.org/2000/svg" xmlns:xlink="http://www.w3.org/1999/xlink" x="0px" y="0px"
	 width="1461.941px" height="334.214px" viewBox="0 0 1461.941 334.214" enable-background="new 0 0 1461.941 334.214"
	 xml:space="preserve">
<path fill="none" stroke="#000000" stroke-linejoin="round" stroke-miterlimit="10" d="M58.788,46.514
	c0.185-0.98,0.626-1.964,1-2.849c1.062-2.516,1.8-5.136,2.229-7.832c0.245-1.534,0.345-3.099,0.345-4.652
	C62.362,13.96,48.402,0,31.181,0S0,13.96,0,31.181c0,17.221,13.96,31.181,31.181,31.181c2.247,0,4.496-0.238,6.692-0.721
	c1.06-0.233,2.104-0.519,3.135-0.86c1.026-0.339,2.358-1.638,3.376-0.576c0.645,0.672,1.084,2.175,0.836,3.082
	c-0.391,1.426-0.6,2.925-0.6,4.47v249.45c0,9.354,7.652,17.008,17.008,17.008h1383.308c9.354,0,17.008-7.651,17.008-17.008V67.757
	c-0.002-9.355-7.656-17.008-17.008-17.008c0,0-1382.585,0-1382.965,0c-1.014,0-1.916-0.519-2.548-1.287
	C58.683,48.561,58.595,47.539,58.788,46.514z"/>
</svg>
