<?xml version="1.0" encoding="utf-8"?>
<!-- Generator: Adobe Illustrator 16.0.0, SVG Export Plug-In . SVG Version: 6.00 Build 0)  -->
<!DOCTYPE svg PUBLIC "-//W3C//DTD SVG 1.1//EN" "http://www.w3.org/Graphics/SVG/1.1/DTD/svg11.dtd">
<svg version="1.1" id="Layer_1" xmlns="http://www.w3.org/2000/svg" xmlns:xlink="http://www.w3.org/1999/xlink" x="0px" y="0px"
	 width="1452.098px" height="1503.725px" viewBox="0 0 1452.098 1503.725" enable-background="new 0 0 1452.098 1503.725"
	 xml:space="preserve">
<path fill="none" stroke="#1D1D1B" stroke-linejoin="round" stroke-miterlimit="10" d="M60.762,41.124
	c0.14-1.148,0.686-2.35,0.903-3.364c0.462-2.161,0.696-4.368,0.696-6.579C62.361,13.96,48.401,0,31.18,0
	C13.959,0-0.001,13.96-0.001,31.181c0,17.221,13.96,31.181,31.181,31.181c2.658,0,5.31-0.337,7.882-1.008
	c1.229-0.321,2.43-0.718,3.613-1.181c1.162-0.455,2.26-1.5,3.571-1.479c0.675,0.011,2.182,0.506,1.526,1.429
	c-8.548,12.032-13.586,26.711-13.586,42.509v1327.392c0,40.536,33.166,73.701,73.701,73.701h1270.509
	c40.535,0,73.7-33.165,73.7-73.701V102.632c0-40.535-33.165-73.701-73.7-73.701H107.887c-16.626,0-32.012,5.58-44.378,14.959
	c-0.67,0.508-1.837-0.038-2.263-0.603C60.755,42.638,60.667,41.893,60.762,41.124z"/>
</svg>
