<?xml version="1.0" encoding="utf-8"?>
<!-- Generator: Adobe Illustrator 16.0.0, SVG Export Plug-In . SVG Version: 6.00 Build 0)  -->
<!DOCTYPE svg PUBLIC "-//W3C//DTD SVG 1.1//EN" "http://www.w3.org/Graphics/SVG/1.1/DTD/svg11.dtd">
<svg version="1.1" id="Layer_1" xmlns="http://www.w3.org/2000/svg" xmlns:xlink="http://www.w3.org/1999/xlink" x="0px" y="0px"
	 width="3212.273px" height="1218.232px" viewBox="0 0 3212.273 1218.232" enable-background="new 0 0 3212.273 1218.232"
	 xml:space="preserve">
<path fill="none" stroke="#000000" stroke-miterlimit="10" d="M3152.208,856.021c-3.621-0.858-8.798,0.589-11.286,0.729
	c-9.132,0.525-18.326,1.126-27.471,1.451c-7.198,0.256-14.374,0.667-21.566,1.021c-67.402,3.328-135.104,1.304-202.287,8.372
	l-87.091,7.271c-107.289,8.953-214.981,11.488-322.396,18.526c-76.062,4.982-152.314,6.291-228.394,11.035
	c-36.021,2.254-73.805,6.61-109.883,4.974c-23.033-1.049-52.748-6.723-45.403-37.15l2.555-10.621
	c1.531-6.204,2.146-9.633,1.898-10.311l-1.45-4.068l-5.229-10.366c-0.201-9.569-11.479-8.559-18.11-5.766
	c-2.681,1.128-14.765-11.27-16.923-13.058c-18.625-15.429-35.28-32.903-51.854-50.69l-7.666-8.195
	c-13.129-14.036-36.008-38.5-38.371-43.025c-2.854-5.479-10.895-13.631-17.02-19.843c-5.635-5.714-10.676-7.196-15.037-4.646
	c-2.001,1.17-4.502,4.162-6.468,6.514l-4.558,5.447c-2.844,3.385-9.771,5.171-20.813,5.29c-12.863,0.157-45.918-2.492-99.207-7.857
	c-10.226-1.015-21.265-1.734-33.157-2.077c-6.557-0.183-10.27-0.309-11.074-0.402c-3.646-0.436-8.892-0.674-12.341,0.688
	c-9.612,3.8,2.611,14.951,6.044,18.305c17.488,17.073,32.004,36.843,48.012,55.26c23.478,27.006,53.971,62.088,72.854,78.807
	c15.92,14.1,33.167,26.901,52.848,35.188c11.695,4.923,26.612,9.229,44.706,13.017c8.481,1.774,24.209,5.287,25.5,5.042
	c5.512-1.051,9.666,0.524,12.397,4.748c1.271,1.966,0.351,4.654-1.938,5.278c-3.623,0.985-7.349,1.476-11.058,1.577
	c-6.965,0.189-32.629-2.955-55.207-9.881c-16.85-5.227-30.678-10.765-41.396-16.802c-24.844-13.911-42.947-26.941-54.252-39.116
	l-15.822-16.062c-9.995-9.582-23.702-25.803-35.012-39.185l-7.546-8.93c-16.652-19.709-33.68-39.116-51.793-57.503
	c-5.27-5.35-10.379-10.854-15.243-16.574c-8.827-10.383-13.933-15.896-15.313-16.778c-4.566-2.729-19.159-4.196-21.818-4.367
	c-29.393-1.896-52.891-2.735-76.902-6.416c-36.859-5.65-97.812-6.66-146.706-3.212c-14.063,0.991-28.173,1.789-42.215,2.884
	c-1.583,0.124-3.64,0.114-5.142,0.445c-2.457,0.542-4.472,2.688-5.55,4.882c2.277,4.627,4.663,9.201,7.046,13.773
	c6.131,11.765,12.33,23.491,18.534,35.218c8.311,15.705,16.649,31.396,25.003,47.074c9.031,16.951,18.081,33.895,27.167,50.812
	c8.022,14.938,16.084,29.854,24.17,44.759c0.894,1.646,1.782,3.288,2.676,4.933c1.98,3.639,4.433,7.021,6.147,10.802
	c30.003,66.079,60.534,147.605,146.389,139.177c11.656-1.181,22.698-2.37,33.078-3.704c16.964-2.182,34.106-2.964,50.957-5.965
	c41.248-7.348,88.795-7.669,129.463,2.291c47.189,11.558,92.255,34.479,136.359,54.356c14.67,6.609,44.021,20.296,88.092,41.183
	c5.521,2.616,11.875,5.853,19.105,9.617c28.757,14.973,58.25,28.472,87.219,43.021c24.695,12.404,70.687,34.872,74.027,37.334
	c3.008,2.215,19.135,4.562,22.521,3.354l10.854-3.872l3.967-4.094c1.248-1.243,15.187-17.354,22.728-26.075
	c0,0,8.224-9.509,8.228-9.514c16.032-18.536,34.313-38.562,52.249-55.493c58.814-55.52,140.525-86.056,214.896-114.253
	c12.365-4.688,30.627-11.611,37.342-13.401l67.021-18.271c23.528-5.665,64.36-14.3,67.729-14.992l77.843-15.765
	c43.866-8.883,102.438-20.744,131.883-25.181l124.22-18.722c0,0,20.588-3.589,20.621-3.595c8.162-1.423,11.414-6.242,13.272-13.835
	c1.072-4.383,1.124-8.906,2.244-13.266c0.562-2.185,2.265-5.056,1.976-7.354C3155.76,857.693,3154.227,856.5,3152.208,856.021z
	 M1461.605,673.612c14.397-0.728,28.812-1.21,43.267-1.297c59.298-0.356,118.379,3.098,177.44,8.084
	c16.604,1.399,33.201,2.872,49.798,4.379c34.732,3.148,68.277,6.672,100.635,10.56c20.839,2.504,41.88,6.106,62.701,1.448
	c8.787-1.965,18.708-5.409,25.128-11.948c8.842-9.007,2.121-18.064-4.355-25.89c-29.722-35.903-56.501-74.774-84.521-112.025
	c-25.804-34.304-51.538-68.66-77.172-103.091c-21.411-28.759-42.752-57.57-64.044-86.418c-16.387-22.201-32.743-44.423-49.11-66.638
	c-12.798-17.369-25.604-34.729-38.421-52.084c-1.438-1.945-2.882-3.884-4.311-5.835c-6.947-9.499-12.426-16.533-16.428-21.098
	c-6.267-7.151-12.531-12.85-18.795-17.097c-0.952-0.646-1.688-1.116-2.211-1.41c-0.816,0.114-1.588,0.382-2.314,0.801
	c-2.498,2.635-6.459,5.147-11.877,7.538c-2.605,1.15-4.41,2.055-5.409,2.714c-1.694,1.121-3.572,1.759-5.635,1.913
	c-5.753,0.431-12.663-3.516-20.729-11.839c-3.832-3.952-8.956-10.041-15.377-18.266c-39.638-50.766-103.951-72.931-158.556-103.174
	c-63.089-34.94-128.399-61.815-200.816-68.936c-36.104-3.55-73.199-4.739-111.297-3.566c-10.605,0.326-23.907,1.088-39.901,2.284
	c0,0-26.074,2-26.088,2.001c-11.697,0.875-21.652,1.507-29.864,1.897l-15.661,0.959c-25.646,1.921-53.97,5.791-84.971,11.61
	c-21.099,3.96-49.25,10.049-84.453,18.267c-42.882,10.01-79.604,19.035-110.171,27.076L536.271,92.963
	c-10.338,3.271-20.812,6.452-31.43,9.542c-22.042,6.415-59.936,18.912-113.68,37.491c-27.855,9.63-45.268,15.41-52.236,17.342
	c-16.135,4.473-35.051,10.811-56.749,19.017c-12.964,4.902-32.307,12.618-58.027,23.146c-13.232,5.417-76.784,29.524-190.656,72.323
	L0,284.413c6.446,1.821,16.628,4.001,30.548,6.54c11.266,2.055,25.442,5.037,42.525,8.943c13.751,3.146,22.342,5.204,25.773,6.177
	l17.016,4.633c14.152,3.768,24.739,6.807,31.769,9.12l66.742,22.03c0.066,0.022,0.131,0.045,0.197,0.068
	c18.128,6.57,38.336,16.135,60.621,28.693c14.734,8.303,31.682,19.935,50.844,34.896c7.182,5.607,16.937,14.358,29.267,26.251
	c7.261,7.008,14.979,15.741,23.151,26.21L385.5,467c2.483,3.181,5.351,7.432,8.606,12.753
	c16.146,26.412,29.323,50.136,39.529,71.171c7.847,16.166,17.126,34.542,27.853,55.129c5.999,11.521,12.242,18.543,18.729,21.074
	c2.337,0.912,6.917,1.113,13.737,0.604c4.493-0.337,9.778-0.999,15.854-1.988c8.782-1.431,21.96-3.445,39.534-6.047
	c32.863-4.863,57.409-8.924,73.641-12.184c48.772-9.788,99.338-17.771,151.688-23.952c27.446-3.239,68.563-8.723,123.354-16.438
	c53.798-7.578,94.192-12.973,121.191-16.185c19.877-2.365,37.082-4.094,51.613-5.182c10.354-0.771,19.429-1.229,27.221-1.367
	c51.064-0.903,101.843,6.532,152.34,22.315c27.404,8.565,53.86,23.354,79.368,44.367c19.458,16.027,38.221,34.338,56.289,54.926
	c5.485,6.249,9.275,10.229,11.372,11.938C1418.828,676.304,1440.2,674.691,1461.605,673.612z"/>
</svg>
