<?xml version="1.0" encoding="utf-8"?>
<!-- Generator: Adobe Illustrator 16.0.0, SVG Export Plug-In . SVG Version: 6.00 Build 0)  -->
<!DOCTYPE svg PUBLIC "-//W3C//DTD SVG 1.1//EN" "http://www.w3.org/Graphics/SVG/1.1/DTD/svg11.dtd">
<svg version="1.1" id="Layer_1" xmlns="http://www.w3.org/2000/svg" xmlns:xlink="http://www.w3.org/1999/xlink" x="0px" y="0px"
	 width="3212.781px" height="1215.113px" viewBox="0 0 3212.781 1215.113" enable-background="new 0 0 3212.781 1215.113"
	 xml:space="preserve">
<path fill="none" stroke="#000000" stroke-linejoin="round" stroke-miterlimit="10" d="M61.886,882.871
	c-3.54-6.131-2.958-15.982-6.782-28.775c-0.677-2.264,3.521-2.088,3.952-3.694c6.488,0.65,19.428,1.494,38.876,2.57"/>
<path fill="none" stroke="#000000" stroke-linejoin="round" stroke-miterlimit="10" d="M1286.208,673.443
	c0.009,0.085,0.019,0.17,0.029,0.255c0.774,6.002,9.641,13.637,14.945,15.967c12.876,5.656,24.747,9.377,38.91,8.025
	c12.99-1.24,25.955-2.775,38.914-4.302c32.36-3.807,65.916-7.237,100.659-10.307c70.681-6.236,120.312-9.877,148.893-10.924
	c23.881-0.875,59.988-1.222,108.332-1.037c1.096,0.004,5.539,0.307,13.35,0.912l64.136,5.057"/>
<path fill="none" stroke="#000000" stroke-linejoin="round" stroke-miterlimit="10" d="M1277.712,688.264
	c1.691-0.102,3.303,0.301,4.83,1.198c1.997,1.176,4.49,4.174,6.45,6.529l4.54,5.459c2.835,3.393,9.761,5.194,20.804,5.344
	c12.863,0.189,45.927-2.377,99.229-7.606c10.228-0.986,21.268-1.687,33.162-1.994c6.562-0.164,10.276-0.281,11.078-0.377
	c0,0,12.062,0.282,12.291,0.291c10.501,0.252-3.317,16.18-6.045,18.715c-17.529,17.031-32.097,36.764-48.147,55.139
	c-23.543,26.949-54.125,61.953-73.053,78.625c-15.956,14.055-33.233,26.818-52.938,35.053c-11.708,4.896-26.636,9.164-44.738,12.904
	c-8.483,1.752-24.222,5.227-25.511,4.979c-5.51-1.062-9.669,0.5-12.41,4.72c-1.274,1.963-0.362,4.649,1.925,5.283
	c3.621,0.993,7.347,1.491,11.057,1.604c6.964,0.211,32.636-2.873,55.229-9.74c16.862-5.182,30.703-10.686,41.438-16.69
	c24.878-13.855,43.018-26.84,54.35-38.982l15.865-16.021c10.02-9.562,23.768-25.742,35.105-39.099l7.566-8.908
	c16.704-19.666,33.777-39.03,51.938-57.37c5.281-5.336,10.404-10.83,15.285-16.537c4.854-5.681,9.202-12.677,15.803-16.523
	c6.15-3.588,14.411-4.098,21.386-4.531c29.396-1.819,52.896-2.602,76.92-6.223c36.875-5.559,97.826-6.414,146.713-2.844
	c0.416,0.028,0.832,0.061,1.248,0.09c2.316,0.17,4.635,0.34,6.951,0.508c3.608,0.265,7.221,0.527,10.83,0.791
	c4.053,0.297,8.104,0.592,12.155,0.89c3.646,0.268,7.291,0.532,10.937,0.799c1.402,0.104,2.807,0.205,4.211,0.309
	c3.063,0.223,5.558,2.283,5.757,4.98"/>
</svg>
