<?xml version="1.0" encoding="utf-8"?>
<!-- Generator: Adobe Illustrator 16.0.0, SVG Export Plug-In . SVG Version: 6.00 Build 0)  -->
<!DOCTYPE svg PUBLIC "-//W3C//DTD SVG 1.1//EN" "http://www.w3.org/Graphics/SVG/1.1/DTD/svg11.dtd">
<svg version="1.1" id="Layer_1" xmlns="http://www.w3.org/2000/svg" xmlns:xlink="http://www.w3.org/1999/xlink" x="0px" y="0px"
	 width="2383.623px" height="1168.795px" viewBox="0 0 2383.623 1168.795" enable-background="new 0 0 2383.623 1168.795"
	 xml:space="preserve">
<path fill="none" stroke="#000001" stroke-linejoin="round" stroke-miterlimit="10" d="M967.168,614.394
	c3.718,0,6.73,3.016,6.73,6.732s-3.014,6.732-6.73,6.732c-3.72,0-6.732-3.016-6.732-6.732S963.448,614.394,967.168,614.394z
	 M967.168,562.394c3.718,0,6.73,3.016,6.73,6.732s-3.014,6.732-6.73,6.732c-3.72,0-6.732-3.016-6.732-6.732
	S963.448,562.394,967.168,562.394z M1023.739,614.394c3.719,0,6.732,3.016,6.732,6.732s-3.014,6.732-6.732,6.732
	c-3.718,0-6.73-3.016-6.73-6.732S1020.021,614.394,1023.739,614.394z M1023.739,562.394c3.719,0,6.732,3.016,6.732,6.732
	s-3.014,6.732-6.732,6.732c-3.718,0-6.73-3.016-6.73-6.732S1020.021,562.394,1023.739,562.394z M1023.739,510.394
	c3.719,0,6.732,3.016,6.732,6.732s-3.014,6.732-6.732,6.732c-3.718,0-6.73-3.016-6.73-6.732S1020.021,510.394,1023.739,510.394z
	 M1080.311,614.394c3.718,0,6.732,3.016,6.732,6.732s-3.016,6.732-6.732,6.732s-6.732-3.016-6.732-6.732
	S1076.593,614.394,1080.311,614.394z M1080.311,562.394c3.718,0,6.732,3.016,6.732,6.732s-3.016,6.732-6.732,6.732
	s-6.732-3.016-6.732-6.732S1076.593,562.394,1080.311,562.394z M1080.311,510.394c3.718,0,6.732,3.016,6.732,6.732
	s-3.016,6.732-6.732,6.732s-6.732-3.016-6.732-6.732S1076.593,510.394,1080.311,510.394z M1080.311,458.394
	c3.718,0,6.732,3.016,6.732,6.732s-3.016,6.732-6.732,6.732s-6.732-3.016-6.732-6.732S1076.593,458.394,1080.311,458.394z
	 M1080.311,406.394c3.718,0,6.732,3.014,6.732,6.732s-3.016,6.732-6.732,6.732s-6.732-3.014-6.732-6.732
	S1076.593,406.394,1080.311,406.394z M1136.88,614.394c3.718,0,6.73,3.016,6.73,6.732s-3.014,6.732-6.73,6.732
	c-3.72,0-6.732-3.016-6.732-6.732S1133.16,614.394,1136.88,614.394z M1136.88,562.394c3.718,0,6.73,3.016,6.73,6.732
	s-3.014,6.732-6.73,6.732c-3.72,0-6.732-3.016-6.732-6.732S1133.16,562.394,1136.88,562.394z M1136.88,510.394
	c3.718,0,6.73,3.016,6.73,6.732s-3.014,6.732-6.73,6.732c-3.72,0-6.732-3.016-6.732-6.732S1133.16,510.394,1136.88,510.394z
	 M1136.88,458.394c3.718,0,6.73,3.016,6.73,6.732s-3.014,6.732-6.73,6.732c-3.72,0-6.732-3.016-6.732-6.732
	S1133.16,458.394,1136.88,458.394z M1136.88,406.394c3.718,0,6.73,3.014,6.73,6.732s-3.014,6.732-6.73,6.732
	c-3.72,0-6.732-3.014-6.732-6.732S1133.16,406.394,1136.88,406.394z M1136.88,354.394c3.718,0,6.73,3.014,6.73,6.732
	s-3.014,6.732-6.73,6.732c-3.72,0-6.732-3.014-6.732-6.732S1133.16,354.394,1136.88,354.394z M1193.448,614.394
	c3.719,0,6.732,3.016,6.732,6.732s-3.014,6.732-6.732,6.732c-3.718,0-6.73-3.016-6.73-6.732S1189.73,614.394,1193.448,614.394z
	 M1193.448,562.394c3.719,0,6.732,3.016,6.732,6.732s-3.014,6.732-6.732,6.732c-3.718,0-6.73-3.016-6.73-6.732
	S1189.73,562.394,1193.448,562.394z M1193.448,510.394c3.719,0,6.732,3.016,6.732,6.732s-3.014,6.732-6.732,6.732
	c-3.718,0-6.73-3.016-6.73-6.732S1189.73,510.394,1193.448,510.394z M1193.448,458.394c3.719,0,6.732,3.016,6.732,6.732
	s-3.014,6.732-6.732,6.732c-3.718,0-6.73-3.016-6.73-6.732S1189.73,458.394,1193.448,458.394z M1193.448,406.394
	c3.719,0,6.732,3.014,6.732,6.732s-3.014,6.732-6.732,6.732c-3.718,0-6.73-3.014-6.73-6.732S1189.73,406.394,1193.448,406.394z
	 M1193.448,354.394c3.719,0,6.732,3.014,6.732,6.732s-3.014,6.732-6.732,6.732c-3.718,0-6.73-3.014-6.73-6.732
	S1189.73,354.394,1193.448,354.394z M1193.448,302.394c3.719,0,6.732,3.014,6.732,6.732s-3.014,6.732-6.732,6.732
	c-3.718,0-6.73-3.014-6.73-6.732S1189.73,302.394,1193.448,302.394z M1193.448,250.394c3.719,0,6.732,3.014,6.732,6.732
	s-3.014,6.732-6.732,6.732c-3.718,0-6.73-3.014-6.73-6.732S1189.73,250.394,1193.448,250.394z M1250.021,627.858
	c-3.722,0-6.732-3.021-6.732-6.732s3.019-6.732,6.732-6.732s6.729,3.021,6.729,6.732S1253.74,627.858,1250.021,627.858z
	 M1250.021,575.858c-3.722,0-6.732-3.021-6.732-6.732s3.019-6.732,6.732-6.732s6.729,3.021,6.729,6.732
	S1253.74,575.858,1250.021,575.858z M1250.021,523.858c-3.722,0-6.732-3.021-6.732-6.732s3.019-6.732,6.732-6.732
	s6.729,3.021,6.729,6.732S1253.74,523.858,1250.021,523.858z M1250.021,471.858c-3.722,0-6.732-3.021-6.732-6.732
	s3.019-6.732,6.732-6.732s6.729,3.021,6.729,6.732S1253.74,471.858,1250.021,471.858z M1250.021,419.858
	c-3.722,0-6.732-3.017-6.732-6.732s3.019-6.732,6.732-6.732s6.729,3.017,6.729,6.732S1253.74,419.858,1250.021,419.858z
	 M1250.021,367.858c-3.722,0-6.732-3.015-6.732-6.732s3.019-6.732,6.732-6.732s6.729,3.015,6.729,6.732
	S1253.74,367.858,1250.021,367.858z M1250.021,315.858c-3.722,0-6.732-3.015-6.732-6.732s3.019-6.732,6.732-6.732
	s6.729,3.014,6.729,6.732S1253.74,315.858,1250.021,315.858z M1250.021,263.858c-3.722,0-6.732-3.014-6.732-6.732
	s3.019-6.732,6.732-6.732s6.729,3.014,6.729,6.732S1253.74,263.858,1250.021,263.858z M1250.021,211.858
	c-3.722,0-6.732-3.014-6.732-6.732s3.019-6.732,6.732-6.732s6.729,3.014,6.729,6.732S1253.74,211.858,1250.021,211.858z
	 M1306.591,614.394c3.718,0,6.73,3.016,6.73,6.732s-3.014,6.732-6.73,6.732c-3.72,0-6.732-3.016-6.732-6.732
	S1302.871,614.394,1306.591,614.394z M1306.591,562.394c3.718,0,6.73,3.016,6.73,6.732s-3.014,6.732-6.73,6.732
	c-3.72,0-6.732-3.016-6.732-6.732S1302.871,562.394,1306.591,562.394z M1306.591,510.394c3.718,0,6.73,3.016,6.73,6.732
	s-3.014,6.732-6.73,6.732c-3.72,0-6.732-3.016-6.732-6.732S1302.871,510.394,1306.591,510.394z M1306.591,458.394
	c3.718,0,6.73,3.016,6.73,6.732s-3.014,6.732-6.73,6.732c-3.72,0-6.732-3.016-6.732-6.732S1302.871,458.394,1306.591,458.394z
	 M1306.591,406.394c3.718,0,6.73,3.014,6.73,6.732s-3.014,6.732-6.73,6.732c-3.72,0-6.732-3.014-6.732-6.732
	S1302.871,406.394,1306.591,406.394z M1306.591,354.394c3.718,0,6.73,3.014,6.73,6.732s-3.014,6.732-6.73,6.732
	c-3.72,0-6.732-3.014-6.732-6.732S1302.871,354.394,1306.591,354.394z M1306.591,302.394c3.718,0,6.73,3.014,6.73,6.732
	s-3.014,6.732-6.73,6.732c-3.72,0-6.732-3.014-6.732-6.732S1302.871,302.394,1306.591,302.394z M1306.591,250.394
	c3.718,0,6.73,3.014,6.73,6.732s-3.014,6.732-6.73,6.732c-3.72,0-6.732-3.014-6.732-6.732S1302.871,250.394,1306.591,250.394z
	 M1306.591,198.394c3.718,0,6.73,3.014,6.73,6.732s-3.014,6.732-6.73,6.732c-3.72,0-6.732-3.014-6.732-6.732
	S1302.871,198.394,1306.591,198.394z M1363.157,614.394c3.72,0,6.732,3.016,6.732,6.732s-3.015,6.732-6.732,6.732
	s-6.73-3.016-6.73-6.732S1359.441,614.394,1363.157,614.394z M1363.157,562.394c3.72,0,6.732,3.016,6.732,6.732
	s-3.015,6.732-6.732,6.732s-6.73-3.016-6.73-6.732S1359.441,562.394,1363.157,562.394z M1363.157,510.394
	c3.72,0,6.732,3.016,6.732,6.732s-3.015,6.732-6.732,6.732s-6.73-3.016-6.73-6.732S1359.441,510.394,1363.157,510.394z
	 M1363.157,458.394c3.72,0,6.732,3.016,6.732,6.732s-3.015,6.732-6.732,6.732s-6.73-3.016-6.73-6.732
	S1359.441,458.394,1363.157,458.394z M1363.157,406.394c3.72,0,6.732,3.014,6.732,6.732s-3.015,6.732-6.732,6.732
	s-6.73-3.014-6.73-6.732S1359.441,406.394,1363.157,406.394z M1363.157,354.394c3.72,0,6.732,3.014,6.732,6.732
	s-3.015,6.732-6.732,6.732s-6.73-3.014-6.73-6.732S1359.441,354.394,1363.157,354.394z M1363.157,302.394
	c3.72,0,6.732,3.014,6.732,6.732s-3.015,6.732-6.732,6.732s-6.73-3.014-6.73-6.732S1359.441,302.394,1363.157,302.394z
	 M1363.157,250.394c3.72,0,6.732,3.014,6.732,6.732s-3.015,6.732-6.732,6.732s-6.73-3.014-6.73-6.732
	S1359.441,250.394,1363.157,250.394z M1363.157,198.394c3.72,0,6.732,3.014,6.732,6.732s-3.015,6.732-6.732,6.732
	s-6.73-3.014-6.73-6.732S1359.441,198.394,1363.157,198.394z M1419.732,627.858c-3.722,0-6.729-3.021-6.729-6.732
	s3.014-6.732,6.729-6.732s6.729,3.021,6.729,6.732S1423.448,627.858,1419.732,627.858z M1419.732,575.858
	c-3.722,0-6.729-3.021-6.729-6.732s3.014-6.732,6.729-6.732s6.729,3.021,6.729,6.732S1423.448,575.858,1419.732,575.858z
	 M1419.732,523.858c-3.722,0-6.729-3.021-6.729-6.732s3.014-6.732,6.729-6.732s6.729,3.021,6.729,6.732
	S1423.448,523.858,1419.732,523.858z M1419.732,471.858c-3.722,0-6.729-3.021-6.729-6.732s3.014-6.732,6.729-6.732
	s6.729,3.021,6.729,6.732S1423.448,471.858,1419.732,471.858z M1419.732,419.858c-3.722,0-6.729-3.017-6.729-6.732
	s3.014-6.732,6.729-6.732s6.729,3.017,6.729,6.732S1423.448,419.858,1419.732,419.858z M1419.732,367.858
	c-3.722,0-6.729-3.015-6.729-6.732s3.014-6.732,6.729-6.732s6.729,3.015,6.729,6.732S1423.448,367.858,1419.732,367.858z
	 M1419.732,315.858c-3.722,0-6.729-3.015-6.729-6.732s3.014-6.732,6.729-6.732s6.729,3.014,6.729,6.732
	S1423.448,315.858,1419.732,315.858z M1419.732,263.858c-3.722,0-6.729-3.014-6.729-6.732s3.014-6.732,6.729-6.732
	s6.729,3.014,6.729,6.732S1423.448,263.858,1419.732,263.858z M1419.732,211.858c-3.722,0-6.729-3.014-6.729-6.732
	s3.014-6.732,6.729-6.732s6.729,3.014,6.729,6.732S1423.448,211.858,1419.732,211.858z M1419.732,159.858
	c-3.722,0-6.729-3.014-6.729-6.732s3.014-6.732,6.729-6.732s6.729,3.014,6.729,6.732S1423.448,159.858,1419.732,159.858z
	 M1476.302,562.394c3.718,0,6.73,3.016,6.73,6.732s-3.014,6.732-6.73,6.732s-6.732-3.016-6.732-6.732
	S1472.584,562.394,1476.302,562.394z M1476.302,510.394c3.718,0,6.73,3.016,6.73,6.732s-3.014,6.732-6.73,6.732
	s-6.732-3.016-6.732-6.732S1472.584,510.394,1476.302,510.394z M1476.302,458.394c3.718,0,6.73,3.016,6.73,6.732
	s-3.014,6.732-6.73,6.732s-6.732-3.016-6.732-6.732S1472.584,458.394,1476.302,458.394z M1476.302,406.394
	c3.718,0,6.73,3.014,6.73,6.732s-3.014,6.732-6.73,6.732s-6.732-3.014-6.732-6.732S1472.584,406.394,1476.302,406.394z
	 M1476.302,354.394c3.718,0,6.73,3.014,6.73,6.732s-3.014,6.732-6.73,6.732s-6.732-3.014-6.732-6.732
	S1472.584,354.394,1476.302,354.394z M1476.302,302.394c3.718,0,6.73,3.014,6.73,6.732s-3.014,6.732-6.73,6.732
	s-6.732-3.014-6.732-6.732S1472.584,302.394,1476.302,302.394z M1476.302,250.394c3.718,0,6.73,3.014,6.73,6.732
	s-3.014,6.732-6.73,6.732s-6.732-3.014-6.732-6.732S1472.584,250.394,1476.302,250.394z M1476.302,198.394
	c3.718,0,6.73,3.014,6.73,6.732s-3.014,6.732-6.73,6.732s-6.732-3.014-6.732-6.732S1472.584,198.394,1476.302,198.394z
	 M1476.302,146.394c3.718,0,6.73,3.014,6.73,6.732s-3.014,6.732-6.73,6.732s-6.732-3.014-6.732-6.732
	S1472.584,146.394,1476.302,146.394z M1476.302,94.394c3.718,0,6.73,3.014,6.73,6.732s-3.014,6.732-6.73,6.732
	s-6.732-3.014-6.732-6.732S1472.584,94.394,1476.302,94.394z M1532.873,510.394c3.718,0,6.73,3.016,6.73,6.732
	s-3.014,6.732-6.73,6.732c-3.72,0-6.732-3.016-6.732-6.732S1529.155,510.394,1532.873,510.394z M1532.873,458.394
	c3.718,0,6.73,3.016,6.73,6.732s-3.014,6.732-6.73,6.732c-3.72,0-6.732-3.016-6.732-6.732S1529.155,458.394,1532.873,458.394z
	 M1532.873,406.394c3.718,0,6.73,3.014,6.73,6.732s-3.014,6.732-6.73,6.732c-3.72,0-6.732-3.014-6.732-6.732
	S1529.155,406.394,1532.873,406.394z M1532.873,354.394c3.718,0,6.73,3.014,6.73,6.732s-3.014,6.732-6.73,6.732
	c-3.72,0-6.732-3.014-6.732-6.732S1529.155,354.394,1532.873,354.394z M1532.873,302.394c3.718,0,6.73,3.014,6.73,6.732
	s-3.014,6.732-6.73,6.732c-3.72,0-6.732-3.014-6.732-6.732S1529.155,302.394,1532.873,302.394z M1532.873,250.394
	c3.718,0,6.73,3.014,6.73,6.732s-3.014,6.732-6.73,6.732c-3.72,0-6.732-3.014-6.732-6.732S1529.155,250.394,1532.873,250.394z
	 M1532.873,198.394c3.718,0,6.73,3.014,6.73,6.732s-3.014,6.732-6.73,6.732c-3.72,0-6.732-3.014-6.732-6.732
	S1529.155,198.394,1532.873,198.394z M1532.873,146.394c3.718,0,6.73,3.014,6.73,6.732s-3.014,6.732-6.73,6.732
	c-3.72,0-6.732-3.014-6.732-6.732S1529.155,146.394,1532.873,146.394z M1532.873,94.394c3.718,0,6.73,3.014,6.73,6.732
	s-3.014,6.732-6.73,6.732c-3.72,0-6.732-3.014-6.732-6.732S1529.155,94.394,1532.873,94.394z M1532.873,42.394
	c3.718,0,6.73,3.014,6.73,6.732s-3.014,6.732-6.73,6.732c-3.72,0-6.732-3.014-6.732-6.732S1529.155,42.394,1532.873,42.394z
	 M1589.443,523.858c-3.722,0-6.729-3.021-6.729-6.732s3.014-6.732,6.729-6.732s6.729,3.021,6.729,6.732
	S1593.157,523.858,1589.443,523.858z M1589.443,471.858c-3.722,0-6.729-3.021-6.729-6.732s3.014-6.732,6.729-6.732
	s6.729,3.021,6.729,6.732S1593.157,471.858,1589.443,471.858z M1589.443,419.858c-3.722,0-6.729-3.017-6.729-6.732
	s3.014-6.732,6.729-6.732s6.729,3.017,6.729,6.732S1593.157,419.858,1589.443,419.858z M1589.443,367.858
	c-3.722,0-6.729-3.015-6.729-6.732s3.014-6.732,6.729-6.732s6.729,3.015,6.729,6.732S1593.157,367.858,1589.443,367.858z
	 M1589.443,315.858c-3.722,0-6.729-3.015-6.729-6.732s3.014-6.732,6.729-6.732s6.729,3.014,6.729,6.732
	S1593.157,315.858,1589.443,315.858z M1589.443,263.858c-3.722,0-6.729-3.014-6.729-6.732s3.014-6.732,6.729-6.732
	s6.729,3.014,6.729,6.732S1593.157,263.858,1589.443,263.858z M1589.443,211.858c-3.722,0-6.729-3.014-6.729-6.732
	s3.014-6.732,6.729-6.732s6.729,3.014,6.729,6.732S1593.157,211.858,1589.443,211.858z M1589.443,159.858
	c-3.722,0-6.729-3.014-6.729-6.732s3.014-6.732,6.729-6.732s6.729,3.014,6.729,6.732S1593.157,159.858,1589.443,159.858z
	 M1589.443,107.858c-3.722,0-6.729-3.014-6.729-6.732s3.014-6.732,6.729-6.732s6.729,3.014,6.729,6.732
	S1593.157,107.858,1589.443,107.858z M1589.443,55.858c-3.722,0-6.729-3.014-6.729-6.732s3.014-6.732,6.729-6.732
	s6.729,3.014,6.729,6.732S1593.157,55.858,1589.443,55.858z M1646.013,510.394c3.718,0,6.73,3.016,6.73,6.732
	s-3.014,6.732-6.73,6.732s-6.732-3.016-6.732-6.732S1642.295,510.394,1646.013,510.394z M1646.013,458.394
	c3.718,0,6.73,3.016,6.73,6.732s-3.014,6.732-6.73,6.732s-6.732-3.016-6.732-6.732S1642.295,458.394,1646.013,458.394z
	 M1646.013,406.394c3.718,0,6.73,3.014,6.73,6.732s-3.014,6.732-6.73,6.732s-6.732-3.014-6.732-6.732
	S1642.295,406.394,1646.013,406.394z M1646.013,354.394c3.718,0,6.73,3.014,6.73,6.732s-3.014,6.732-6.73,6.732
	s-6.732-3.014-6.732-6.732S1642.295,354.394,1646.013,354.394z M1646.013,302.394c3.718,0,6.73,3.014,6.73,6.732
	s-3.014,6.732-6.73,6.732s-6.732-3.014-6.732-6.732S1642.295,302.394,1646.013,302.394z M1646.013,250.394
	c3.718,0,6.73,3.014,6.73,6.732s-3.014,6.732-6.73,6.732s-6.732-3.014-6.732-6.732S1642.295,250.394,1646.013,250.394z
	 M1646.013,198.394c3.718,0,6.73,3.014,6.73,6.732s-3.014,6.732-6.73,6.732s-6.732-3.014-6.732-6.732
	S1642.295,198.394,1646.013,198.394z M1646.013,146.394c3.718,0,6.73,3.014,6.73,6.732s-3.014,6.732-6.73,6.732
	s-6.732-3.014-6.732-6.732S1642.295,146.394,1646.013,146.394z M1646.013,94.394c3.718,0,6.73,3.014,6.73,6.732
	s-3.014,6.732-6.73,6.732s-6.732-3.014-6.732-6.732S1642.295,94.394,1646.013,94.394z M1646.013,42.394
	c3.718,0,6.73,3.014,6.73,6.732s-3.014,6.732-6.73,6.732s-6.732-3.014-6.732-6.732S1642.295,42.394,1646.013,42.394z
	 M1702.582,510.394c3.718,0,6.73,3.016,6.73,6.732s-3.014,6.732-6.73,6.732c-3.72,0-6.732-3.016-6.732-6.732
	S1698.864,510.394,1702.582,510.394z M1702.582,458.394c3.718,0,6.73,3.016,6.73,6.732s-3.014,6.732-6.73,6.732
	c-3.72,0-6.732-3.016-6.732-6.732S1698.864,458.394,1702.582,458.394z M1702.582,406.394c3.718,0,6.73,3.014,6.73,6.732
	s-3.014,6.732-6.73,6.732c-3.72,0-6.732-3.014-6.732-6.732S1698.864,406.394,1702.582,406.394z M1702.582,354.394
	c3.718,0,6.73,3.014,6.73,6.732s-3.014,6.732-6.73,6.732c-3.72,0-6.732-3.014-6.732-6.732S1698.864,354.394,1702.582,354.394z
	 M1702.582,302.394c3.718,0,6.73,3.014,6.73,6.732s-3.014,6.732-6.73,6.732c-3.72,0-6.732-3.014-6.732-6.732
	S1698.864,302.394,1702.582,302.394z M1702.582,250.394c3.718,0,6.73,3.014,6.73,6.732s-3.014,6.732-6.73,6.732
	c-3.72,0-6.732-3.014-6.732-6.732S1698.864,250.394,1702.582,250.394z M1702.582,198.394c3.718,0,6.73,3.014,6.73,6.732
	s-3.014,6.732-6.73,6.732c-3.72,0-6.732-3.014-6.732-6.732S1698.864,198.394,1702.582,198.394z M1702.582,146.394
	c3.718,0,6.73,3.014,6.73,6.732s-3.014,6.732-6.73,6.732c-3.72,0-6.732-3.014-6.732-6.732S1698.864,146.394,1702.582,146.394z
	 M1702.582,94.394c3.718,0,6.73,3.014,6.73,6.732s-3.014,6.732-6.73,6.732c-3.72,0-6.732-3.014-6.732-6.732
	S1698.864,94.394,1702.582,94.394z M1702.582,42.394c3.718,0,6.73,3.014,6.73,6.732s-3.014,6.732-6.73,6.732
	c-3.72,0-6.732-3.014-6.732-6.732S1698.864,42.394,1702.582,42.394z M1759.154,510.394c3.718,0,6.732,3.016,6.732,6.732
	s-3.015,6.732-6.732,6.732c-3.717,0-6.73-3.016-6.73-6.732S1755.436,510.394,1759.154,510.394z M1759.154,458.394
	c3.718,0,6.732,3.016,6.732,6.732s-3.015,6.732-6.732,6.732c-3.717,0-6.73-3.016-6.73-6.732S1755.436,458.394,1759.154,458.394z
	 M1759.154,406.394c3.718,0,6.732,3.014,6.732,6.732s-3.015,6.732-6.732,6.732c-3.717,0-6.73-3.014-6.73-6.732
	S1755.436,406.394,1759.154,406.394z M1759.154,354.394c3.718,0,6.732,3.014,6.732,6.732s-3.015,6.732-6.732,6.732
	c-3.717,0-6.73-3.014-6.73-6.732S1755.436,354.394,1759.154,354.394z M1759.154,302.394c3.718,0,6.732,3.014,6.732,6.732
	s-3.015,6.732-6.732,6.732c-3.717,0-6.73-3.014-6.73-6.732S1755.436,302.394,1759.154,302.394z M1759.154,250.394
	c3.718,0,6.732,3.014,6.732,6.732s-3.015,6.732-6.732,6.732c-3.717,0-6.73-3.014-6.73-6.732S1755.436,250.394,1759.154,250.394z
	 M1759.154,198.394c3.718,0,6.732,3.014,6.732,6.732s-3.015,6.732-6.732,6.732c-3.717,0-6.73-3.014-6.73-6.732
	S1755.436,198.394,1759.154,198.394z M1759.154,146.394c3.718,0,6.732,3.014,6.732,6.732s-3.015,6.732-6.732,6.732
	c-3.717,0-6.73-3.014-6.73-6.732S1755.436,146.394,1759.154,146.394z M1759.154,94.394c3.718,0,6.732,3.014,6.732,6.732
	s-3.015,6.732-6.732,6.732c-3.717,0-6.73-3.014-6.73-6.732S1755.436,94.394,1759.154,94.394z M1759.154,42.394
	c3.718,0,6.732,3.014,6.732,6.732s-3.015,6.732-6.732,6.732c-3.717,0-6.73-3.014-6.73-6.732S1755.436,42.394,1759.154,42.394z
	 M1815.724,523.858c-3.719,0-6.729-3.021-6.729-6.732s3.019-6.732,6.729-6.732c3.721,0,6.729,3.021,6.729,6.732
	S1819.443,523.858,1815.724,523.858z M1815.724,471.858c-3.719,0-6.729-3.021-6.729-6.732s3.019-6.732,6.729-6.732
	c3.721,0,6.729,3.021,6.729,6.732S1819.443,471.858,1815.724,471.858z M1815.724,419.858c-3.719,0-6.729-3.017-6.729-6.732
	s3.019-6.732,6.729-6.732c3.721,0,6.729,3.017,6.729,6.732S1819.443,419.858,1815.724,419.858z M1815.724,367.858
	c-3.719,0-6.729-3.015-6.729-6.732s3.019-6.732,6.729-6.732c3.721,0,6.729,3.015,6.729,6.732S1819.443,367.858,1815.724,367.858z
	 M1815.724,315.858c-3.719,0-6.729-3.015-6.729-6.732s3.019-6.732,6.729-6.732c3.721,0,6.729,3.014,6.729,6.732
	S1819.443,315.858,1815.724,315.858z M1815.724,263.858c-3.719,0-6.729-3.014-6.729-6.732s3.019-6.732,6.729-6.732
	c3.721,0,6.729,3.014,6.729,6.732S1819.443,263.858,1815.724,263.858z M1815.724,211.858c-3.719,0-6.729-3.014-6.729-6.732
	s3.019-6.732,6.729-6.732c3.721,0,6.729,3.014,6.729,6.732S1819.443,211.858,1815.724,211.858z M1815.724,159.858
	c-3.719,0-6.729-3.014-6.729-6.732s3.019-6.732,6.729-6.732c3.721,0,6.729,3.014,6.729,6.732S1819.443,159.858,1815.724,159.858z
	 M1815.724,107.858c-3.719,0-6.729-3.014-6.729-6.732s3.019-6.732,6.729-6.732c3.721,0,6.729,3.014,6.729,6.732
	S1819.443,107.858,1815.724,107.858z M1815.724,55.858c-3.719,0-6.729-3.014-6.729-6.732s3.019-6.732,6.729-6.732
	c3.721,0,6.729,3.014,6.729,6.732S1819.443,55.858,1815.724,55.858z M1872.293,510.394c3.718,0,6.73,3.016,6.73,6.732
	s-3.014,6.732-6.73,6.732c-3.72,0-6.732-3.016-6.732-6.732S1868.573,510.394,1872.293,510.394z M1872.293,458.394
	c3.718,0,6.73,3.016,6.73,6.732s-3.014,6.732-6.73,6.732c-3.72,0-6.732-3.016-6.732-6.732S1868.573,458.394,1872.293,458.394z
	 M1872.293,406.394c3.718,0,6.73,3.014,6.73,6.732s-3.014,6.732-6.73,6.732c-3.72,0-6.732-3.014-6.732-6.732
	S1868.573,406.394,1872.293,406.394z M1872.293,354.394c3.718,0,6.73,3.014,6.73,6.732s-3.014,6.732-6.73,6.732
	c-3.72,0-6.732-3.014-6.732-6.732S1868.573,354.394,1872.293,354.394z M1872.293,302.394c3.718,0,6.73,3.014,6.73,6.732
	s-3.014,6.732-6.73,6.732c-3.72,0-6.732-3.014-6.732-6.732S1868.573,302.394,1872.293,302.394z M1872.293,250.394
	c3.718,0,6.73,3.014,6.73,6.732s-3.014,6.732-6.73,6.732c-3.72,0-6.732-3.014-6.732-6.732S1868.573,250.394,1872.293,250.394z
	 M1872.293,198.394c3.718,0,6.73,3.014,6.73,6.732s-3.014,6.732-6.73,6.732c-3.72,0-6.732-3.014-6.732-6.732
	S1868.573,198.394,1872.293,198.394z M1872.293,146.394c3.718,0,6.73,3.014,6.73,6.732s-3.014,6.732-6.73,6.732
	c-3.72,0-6.732-3.014-6.732-6.732S1868.573,146.394,1872.293,146.394z M1872.293,94.394c3.718,0,6.73,3.014,6.73,6.732
	s-3.014,6.732-6.73,6.732c-3.72,0-6.732-3.014-6.732-6.732S1868.573,94.394,1872.293,94.394z M1872.293,42.394
	c3.718,0,6.73,3.014,6.73,6.732s-3.014,6.732-6.73,6.732c-3.72,0-6.732-3.014-6.732-6.732S1868.573,42.394,1872.293,42.394z
	 M1928.865,510.394c3.718,0,6.732,3.016,6.732,6.732s-3.015,6.732-6.732,6.732c-3.717,0-6.73-3.016-6.73-6.732
	S1925.147,510.394,1928.865,510.394z M1928.865,458.394c3.718,0,6.732,3.016,6.732,6.732s-3.015,6.732-6.732,6.732
	c-3.717,0-6.73-3.016-6.73-6.732S1925.147,458.394,1928.865,458.394z M1928.865,406.394c3.718,0,6.732,3.014,6.732,6.732
	s-3.015,6.732-6.732,6.732c-3.717,0-6.73-3.014-6.73-6.732S1925.147,406.394,1928.865,406.394z M1928.865,354.394
	c3.718,0,6.732,3.014,6.732,6.732s-3.015,6.732-6.732,6.732c-3.717,0-6.73-3.014-6.73-6.732S1925.147,354.394,1928.865,354.394z
	 M1928.865,302.394c3.718,0,6.732,3.014,6.732,6.732s-3.015,6.732-6.732,6.732c-3.717,0-6.73-3.014-6.73-6.732
	S1925.147,302.394,1928.865,302.394z M1928.865,250.394c3.718,0,6.732,3.014,6.732,6.732s-3.015,6.732-6.732,6.732
	c-3.717,0-6.73-3.014-6.73-6.732S1925.147,250.394,1928.865,250.394z M1928.865,198.394c3.718,0,6.732,3.014,6.732,6.732
	s-3.015,6.732-6.732,6.732c-3.717,0-6.73-3.014-6.73-6.732S1925.147,198.394,1928.865,198.394z M1928.865,146.394
	c3.718,0,6.732,3.014,6.732,6.732s-3.015,6.732-6.732,6.732c-3.717,0-6.73-3.014-6.73-6.732S1925.147,146.394,1928.865,146.394z
	 M1928.865,94.394c3.718,0,6.732,3.014,6.732,6.732s-3.015,6.732-6.732,6.732c-3.717,0-6.73-3.014-6.73-6.732
	S1925.147,94.394,1928.865,94.394z M1928.865,42.394c3.718,0,6.732,3.014,6.732,6.732s-3.015,6.732-6.732,6.732
	c-3.717,0-6.73-3.014-6.73-6.732S1925.147,42.394,1928.865,42.394z M1985.436,510.394c3.718,0,6.732,3.016,6.732,6.732
	s-3.016,6.732-6.732,6.732s-6.732-3.016-6.732-6.732S1981.718,510.394,1985.436,510.394z M1985.436,458.394
	c3.718,0,6.732,3.016,6.732,6.732s-3.016,6.732-6.732,6.732s-6.732-3.016-6.732-6.732S1981.718,458.394,1985.436,458.394z
	 M1985.436,406.394c3.718,0,6.732,3.014,6.732,6.732s-3.016,6.732-6.732,6.732s-6.732-3.014-6.732-6.732
	S1981.718,406.394,1985.436,406.394z M1985.436,354.394c3.718,0,6.732,3.014,6.732,6.732s-3.016,6.732-6.732,6.732
	s-6.732-3.014-6.732-6.732S1981.718,354.394,1985.436,354.394z M1985.436,302.394c3.718,0,6.732,3.014,6.732,6.732
	s-3.016,6.732-6.732,6.732s-6.732-3.014-6.732-6.732S1981.718,302.394,1985.436,302.394z M1985.436,250.394
	c3.718,0,6.732,3.014,6.732,6.732s-3.016,6.732-6.732,6.732s-6.732-3.014-6.732-6.732S1981.718,250.394,1985.436,250.394z
	 M1985.436,198.394c3.718,0,6.732,3.014,6.732,6.732s-3.016,6.732-6.732,6.732s-6.732-3.014-6.732-6.732
	S1981.718,198.394,1985.436,198.394z M1985.436,146.394c3.718,0,6.732,3.014,6.732,6.732s-3.016,6.732-6.732,6.732
	s-6.732-3.014-6.732-6.732S1981.718,146.394,1985.436,146.394z M1985.436,94.394c3.718,0,6.732,3.014,6.732,6.732
	s-3.016,6.732-6.732,6.732s-6.732-3.014-6.732-6.732S1981.718,94.394,1985.436,94.394z M1985.436,42.394
	c3.718,0,6.732,3.014,6.732,6.732s-3.016,6.732-6.732,6.732s-6.732-3.014-6.732-6.732S1981.718,42.394,1985.436,42.394z
	 M2042.005,510.394c3.718,0,6.73,3.016,6.73,6.732s-3.014,6.732-6.73,6.732c-3.72,0-6.732-3.016-6.732-6.732
	S2038.285,510.394,2042.005,510.394z M2042.005,458.394c3.718,0,6.73,3.016,6.73,6.732s-3.014,6.732-6.73,6.732
	c-3.72,0-6.732-3.016-6.732-6.732S2038.285,458.394,2042.005,458.394z M2042.005,406.394c3.718,0,6.73,3.014,6.73,6.732
	s-3.014,6.732-6.73,6.732c-3.72,0-6.732-3.014-6.732-6.732S2038.285,406.394,2042.005,406.394z M2042.005,354.394
	c3.718,0,6.73,3.014,6.73,6.732s-3.014,6.732-6.73,6.732c-3.72,0-6.732-3.014-6.732-6.732S2038.285,354.394,2042.005,354.394z
	 M2042.005,302.394c3.718,0,6.73,3.014,6.73,6.732s-3.014,6.732-6.73,6.732c-3.72,0-6.732-3.014-6.732-6.732
	S2038.285,302.394,2042.005,302.394z M2042.005,250.394c3.718,0,6.73,3.014,6.73,6.732s-3.014,6.732-6.73,6.732
	c-3.72,0-6.732-3.014-6.732-6.732S2038.285,250.394,2042.005,250.394z M2042.005,198.394c3.718,0,6.73,3.014,6.73,6.732
	s-3.014,6.732-6.73,6.732c-3.72,0-6.732-3.014-6.732-6.732S2038.285,198.394,2042.005,198.394z M2042.005,146.394
	c3.718,0,6.73,3.014,6.73,6.732s-3.014,6.732-6.73,6.732c-3.72,0-6.732-3.014-6.732-6.732S2038.285,146.394,2042.005,146.394z
	 M2042.005,94.394c3.718,0,6.73,3.014,6.73,6.732s-3.014,6.732-6.73,6.732c-3.72,0-6.732-3.014-6.732-6.732
	S2038.285,94.394,2042.005,94.394z M2098.573,562.394c3.719,0,6.732,3.016,6.732,6.732s-3.014,6.732-6.732,6.732
	c-3.718,0-6.73-3.016-6.73-6.732S2094.855,562.394,2098.573,562.394z M2098.573,510.394c3.719,0,6.732,3.016,6.732,6.732
	s-3.014,6.732-6.732,6.732c-3.718,0-6.73-3.016-6.73-6.732S2094.855,510.394,2098.573,510.394z M2098.573,458.394
	c3.719,0,6.732,3.016,6.732,6.732s-3.014,6.732-6.732,6.732c-3.718,0-6.73-3.016-6.73-6.732S2094.855,458.394,2098.573,458.394z
	 M2098.573,406.394c3.719,0,6.732,3.014,6.732,6.732s-3.014,6.732-6.732,6.732c-3.718,0-6.73-3.014-6.73-6.732
	S2094.855,406.394,2098.573,406.394z M2098.573,354.394c3.719,0,6.732,3.014,6.732,6.732s-3.014,6.732-6.732,6.732
	c-3.718,0-6.73-3.014-6.73-6.732S2094.855,354.394,2098.573,354.394z M2098.573,302.394c3.719,0,6.732,3.014,6.732,6.732
	s-3.014,6.732-6.732,6.732c-3.718,0-6.73-3.014-6.73-6.732S2094.855,302.394,2098.573,302.394z M2098.573,250.394
	c3.719,0,6.732,3.014,6.732,6.732s-3.014,6.732-6.732,6.732c-3.718,0-6.73-3.014-6.73-6.732S2094.855,250.394,2098.573,250.394z
	 M2098.573,198.394c3.719,0,6.732,3.014,6.732,6.732s-3.014,6.732-6.732,6.732c-3.718,0-6.73-3.014-6.73-6.732
	S2094.855,198.394,2098.573,198.394z M2098.573,146.394c3.719,0,6.732,3.014,6.732,6.732s-3.014,6.732-6.732,6.732
	c-3.718,0-6.73-3.014-6.73-6.732S2094.855,146.394,2098.573,146.394z M2098.573,94.394c3.719,0,6.732,3.014,6.732,6.732
	s-3.014,6.732-6.732,6.732c-3.718,0-6.73-3.014-6.73-6.732S2094.855,94.394,2098.573,94.394z M2155.146,575.858
	c-3.722,0-6.731-3.021-6.731-6.732s3.018-6.732,6.731-6.732s6.729,3.021,6.729,6.732S2158.865,575.858,2155.146,575.858z
	 M2155.146,523.858c-3.722,0-6.731-3.021-6.731-6.732s3.018-6.732,6.731-6.732s6.729,3.021,6.729,6.732
	S2158.865,523.858,2155.146,523.858z M2155.146,471.858c-3.722,0-6.731-3.021-6.731-6.732s3.018-6.732,6.731-6.732
	s6.729,3.021,6.729,6.732S2158.865,471.858,2155.146,471.858z M2155.146,419.858c-3.722,0-6.731-3.017-6.731-6.732
	s3.018-6.732,6.731-6.732s6.729,3.017,6.729,6.732S2158.865,419.858,2155.146,419.858z M2155.146,367.858
	c-3.722,0-6.731-3.015-6.731-6.732s3.018-6.732,6.731-6.732s6.729,3.015,6.729,6.732S2158.865,367.858,2155.146,367.858z
	 M2155.146,315.858c-3.722,0-6.731-3.015-6.731-6.732s3.018-6.732,6.731-6.732s6.729,3.014,6.729,6.732
	S2158.865,315.858,2155.146,315.858z M2155.146,263.858c-3.722,0-6.731-3.014-6.731-6.732s3.018-6.732,6.731-6.732
	s6.729,3.014,6.729,6.732S2158.865,263.858,2155.146,263.858z M2155.146,211.858c-3.722,0-6.731-3.014-6.731-6.732
	s3.018-6.732,6.731-6.732s6.729,3.014,6.729,6.732S2158.865,211.858,2155.146,211.858z M2155.146,159.858
	c-3.722,0-6.731-3.014-6.731-6.732s3.018-6.732,6.731-6.732s6.729,3.014,6.729,6.732S2158.865,159.858,2155.146,159.858z
	 M2155.146,107.858c-3.722,0-6.731-3.014-6.731-6.732s3.018-6.732,6.731-6.732s6.729,3.014,6.729,6.732
	S2158.865,107.858,2155.146,107.858z M2211.716,562.394c3.718,0,6.73,3.016,6.73,6.732s-3.014,6.732-6.73,6.732
	c-3.718,0-6.732-3.016-6.732-6.732S2207.998,562.394,2211.716,562.394z M2211.716,510.394c3.718,0,6.73,3.016,6.73,6.732
	s-3.014,6.732-6.73,6.732c-3.718,0-6.732-3.016-6.732-6.732S2207.998,510.394,2211.716,510.394z M2211.716,458.394
	c3.718,0,6.73,3.016,6.73,6.732s-3.014,6.732-6.73,6.732c-3.718,0-6.732-3.016-6.732-6.732S2207.998,458.394,2211.716,458.394z
	 M2211.716,406.394c3.718,0,6.73,3.014,6.73,6.732s-3.014,6.732-6.73,6.732c-3.718,0-6.732-3.014-6.732-6.732
	S2207.998,406.394,2211.716,406.394z M2211.716,354.394c3.718,0,6.73,3.014,6.73,6.732s-3.014,6.732-6.73,6.732
	c-3.718,0-6.732-3.014-6.732-6.732S2207.998,354.394,2211.716,354.394z M2211.716,302.394c3.718,0,6.73,3.014,6.73,6.732
	s-3.014,6.732-6.73,6.732c-3.718,0-6.732-3.014-6.732-6.732S2207.998,302.394,2211.716,302.394z M2211.716,250.394
	c3.718,0,6.73,3.014,6.73,6.732s-3.014,6.732-6.73,6.732c-3.718,0-6.732-3.014-6.732-6.732S2207.998,250.394,2211.716,250.394z
	 M2211.716,198.394c3.718,0,6.73,3.014,6.73,6.732s-3.014,6.732-6.73,6.732c-3.718,0-6.732-3.014-6.732-6.732
	S2207.998,198.394,2211.716,198.394z M2268.287,562.394c3.718,0,6.73,3.016,6.73,6.732s-3.014,6.732-6.73,6.732
	c-3.72,0-6.732-3.016-6.732-6.732S2264.569,562.394,2268.287,562.394z M2268.287,510.394c3.718,0,6.73,3.016,6.73,6.732
	s-3.014,6.732-6.73,6.732c-3.72,0-6.732-3.016-6.732-6.732S2264.569,510.394,2268.287,510.394z M2268.287,458.394
	c3.718,0,6.73,3.016,6.73,6.732s-3.014,6.732-6.73,6.732c-3.72,0-6.732-3.016-6.732-6.732S2264.569,458.394,2268.287,458.394z
	 M2268.287,406.394c3.718,0,6.73,3.014,6.73,6.732s-3.014,6.732-6.73,6.732c-3.72,0-6.732-3.014-6.732-6.732
	S2264.569,406.394,2268.287,406.394z M2268.287,354.394c3.718,0,6.73,3.014,6.73,6.732s-3.014,6.732-6.73,6.732
	c-3.72,0-6.732-3.014-6.732-6.732S2264.569,354.394,2268.287,354.394z M2268.287,302.394c3.718,0,6.73,3.014,6.73,6.732
	s-3.014,6.732-6.73,6.732c-3.72,0-6.732-3.014-6.732-6.732S2264.569,302.394,2268.287,302.394z M2324.857,471.858
	c-3.722,0-6.731-3.021-6.731-6.732s3.018-6.732,6.731-6.732s6.729,3.021,6.729,6.732S2328.573,471.858,2324.857,471.858z
	 M2324.857,419.858c-3.722,0-6.731-3.017-6.731-6.732s3.018-6.732,6.731-6.732s6.729,3.017,6.729,6.732
	S2328.573,419.858,2324.857,419.858z M2324.857,367.858c-3.722,0-6.731-3.015-6.731-6.732s3.018-6.732,6.731-6.732
	s6.729,3.015,6.729,6.732S2328.573,367.858,2324.857,367.858z M821.523,682.506c-8.294-5.604-13.747-15.093-13.747-25.854
	c0-17.226,13.96-31.187,31.182-31.187c8,0,15.302,3.019,20.816,7.969v0.005c6.938,4.938,15.994,3.797,22.779-0.801
	c128.835-168.677,314.892-412.039,335.834-438.492c8.514-10.846,10.74-15.568,34.582-20.103c8.328-1.591,21.043-1.962,38.146-2.722
	c38.382-1.583,66.365-26.516,79.026-38.084c18.229-16.577,44.45-39.409,82.906-67.306c37.955-27.547,90.021-44.393,122.453-50.764
	c96.93-18.665,167.016-18.412,264.539-8.378c44.033,4.469,200.047,34.339,298.812,59.219c18.629,4.63,33.404,12.012,44.188,29.507
	c73.977,120.22,116.27,189.977,193.65,313.656c10.075,16.126,8.312,20.711,0.153,29.13c-45.338,46.858-74.459,99.158-93.363,170.102
	c-2.978,11.391-8.938,13.688-20.271,11.604c-207.998-38.971-564.807-88.688-626.641-84.77
	c-62.347,3.899-131.086,11.714-212.756,111.928c-4.971,6.129-9.854,8.746-15.944,9.342l0.001-0.003
	c-9.197,0-16.645,9.405-16.645,21.028l0.006-0.002c0.66,4.554-2.507,10.463-5.66,16.788c-8.604,17.11-88.65,163.319-169.009,305.896
	c-13.479,24.002-28.688,19.467-43.787,17.586c-26.819-3.381-90.39-11.101-200.313-22.539c-28.718-2.98-62.263,7.575-84.361,17.104
	c-178.812,76.937-260.078,114.041-339.271,150.188c-14.104,6.488-24.578,9.896-33.979,0.246
	c-27.335-28.043-97.067-90.688-176.146-134.957c-58.431-32.476-115.887-57.687-316.166-116.205
	C-5.18,903.416-4.677,900.58,9.74,893.127c14.987-7.793,135.302-69.541,150.966-77.432c8.772-4.515,16.48-4.681,35.716-3.446
	c39.688,2.597,67.429,4.095,104.672,6.04c31.091,1.581,47.675,10.308,72.445,12.885c17.003,1.855,42.678,6.35,58.185,3.037
	c22.483-4.703,38.767-7,50.915-6.667c34.091,1.165,87.745,2.956,145.979,4.903c7.546,0.312,14.436,4.759,15.271,16.896
	c0.833,10.533-0.746,18.59-0.939,29.157c-0.096,11.611,0.562,11.214,12.438,13.11c11.96,1.833,89.439,6.979,146.677,12.047
	c15.197,1.312,54.982-1.995,99.292-28.271c7.675-4.479,19.897-14.012,17.454-23.296c-1.971-7.005-8.104-13.215-15.117-17.388
	c-5.229-3.051-10.729,2.771-15.015,5.887c-5.201,3.754-19.096,13.203-25.576,15.932c-19.051,8.021-26.052,6.266-33.665,7.541
	c-7.543,1.291-95,9.062-102.685,10.325c-7.529,1.226-23.184-10.705,2.451-20.771c8.104-3.238,10.396-3.781,10.037-15.326
	c-0.309-7.734-1.516-15.335-3.067-24.68c-1.91-11.455,1.699-21.057,15.143-31.682c48.062-38.475,66.404-65.146,74.413-77.855
	c2.435-7.501,1.169-16.562-4.869-22.045L821.523,682.506z"/>
</svg>
