<?xml version="1.0" encoding="utf-8"?>
<!-- Generator: Adobe Illustrator 16.0.0, SVG Export Plug-In . SVG Version: 6.00 Build 0)  -->
<!DOCTYPE svg PUBLIC "-//W3C//DTD SVG 1.1//EN" "http://www.w3.org/Graphics/SVG/1.1/DTD/svg11.dtd">
<svg version="1.1" id="Layer_1" xmlns="http://www.w3.org/2000/svg" xmlns:xlink="http://www.w3.org/1999/xlink" x="0px" y="0px"
	 width="646.217px" height="864.175px" viewBox="0 0 646.217 864.175" enable-background="new 0 0 646.217 864.175"
	 xml:space="preserve">
<path fill="none" stroke="#000000" stroke-linejoin="round" stroke-miterlimit="10" d="M593.403,773.839
	c-27.479-103.395-52.854-207.34-76.024-311.783c-6.288-28.344-26.007-108.115-39.35-162.095l-18.937-76.587
	c-5.958-24.104-16.301-69.309-18.933-72.039c-3.257-3.38-5.975-5.503-8.15-6.369l-19.86-8.46
	C390.694,127.372,197.041,59.574,89.23,21.831C68.35,14.519,47.128,8.239,25.812,2.329C21.9,1.244,17.771,1.305,13.831,0.352
	C2.534-2.377-1.667,11.393,0.586,19.848c9.12,34.233,14.544,60.8,24.029,90.618c0.424,1.333,8.8,29.918,17.688,55.487
	c12.961,37.287,28.287,81.375,42.203,110.624c7.398,15.55,12.442,25.45,15.266,29.643c1.904,2.787,6.744,8.385,14.433,16.598
	c13.917,14.863,26.453,30.953,40.062,46.094c19.102,21.252,31.138,34.646,36.035,40.379c10.739,12.388,17.89,20.442,21.507,24.292
	c8.238,8.76,13.19,14.076,14.734,15.842c24.329,26.84,46.62,50.402,66.873,70.689c16.854,16.881,34.48,32.965,51.431,49.744
	c68.576,67.885,139.252,133.59,210.032,199.158c7.343,6.805,14.704,13.562,21.814,20.635c8.888,8.832,16.251,18.127,23.479,15.764
	C601.787,804.888,597.197,788.123,593.403,773.839z"/>
</svg>
