<?xml version="1.0" encoding="utf-8"?>
<!-- Generator: Adobe Illustrator 16.0.0, SVG Export Plug-In . SVG Version: 6.00 Build 0)  -->
<!DOCTYPE svg PUBLIC "-//W3C//DTD SVG 1.1//EN" "http://www.w3.org/Graphics/SVG/1.1/DTD/svg11.dtd">
<svg version="1.1" id="Layer_1" xmlns="http://www.w3.org/2000/svg" xmlns:xlink="http://www.w3.org/1999/xlink" x="0px" y="0px"
	 width="1670.062px" height="754.916px" viewBox="0 0 1670.062 754.916" enable-background="new 0 0 1670.062 754.916"
	 xml:space="preserve">
<path d="M628.738,148.519c26.693,26.652,53.165,53.538,78.563,81.432l0,0l35.896,38.851l0,0
	c8.888,9.692,18.082,19.102,26.882,28.874c2.142,2.375,9.19,5.944,14.401,5.261c9.865-1.293,19.764,0.922,29.654,0.795
	c4.944-0.063,10.952-0.14,14.837,0.188c26.318,2.225,52.646-1.499,78.977-2.1c13.215-0.301,31.125-0.71,39.644,0.348
	c0.64,0.079,15.138-0.132,43.489-0.634c54.301-0.961,108.609-1.041,162.906-2.028c39.129-0.711,87.416-1.589,117.342,2.243
	c25.267,3.236,66.771,17.021,101.252,36.423c19.199,10.788,41.797,24.528,67.688,41.241c6.072,3.92,11.363,8.874,16.507,13.926
	c6.274,6.166,9.832,9.396,10.571,9.719c2.789,1.201,9.14,0.411,13.679-0.148c3.396-0.424,13.637-1.908,30.709-4.559
	c10.139-1.574,20.223-3.519,30.409-4.76c16.507-2.014,32.931-4.661,49.418-6.812c38.257-4.98,60.521-7.377,66.69-7.16
	c3.888,0.135,13.779,0.479,11.462-1.627l0,0l-69.022-62.627l0,0c-9.537-8.652-24.875-1.591-35.254-8.499
	c-11.328-7.539-176.793-29.319-265.267-43.521c-12.502-2.007-27.779-4.132-45.772-6.333c-30.998-3.794-61.777-9.197-92.769-13.046
	c-19.007-2.361-109.041-15.724-163.526-23.812c-2.677-0.397-12.265-1.847-28.658-4.37c-36.887-5.675-73.883-10.615-110.744-16.446
	c-9.545-1.51-19.149-3.839-28.857-6.927c-4.07-1.295-9.021-2.751-13.543-4.083c-4.193-1.235-9.894-7.62-17.328-19.058l0,0
	l-4.479-7.045l0,0c-1.1-1.597-6.753-4.667-9.888-4.245c-2.819,0.379-7.779,1.047-8.269,2.023c-0.576,1.157-2.688,0.615-3.032,1.959
	l0,0l-3.329,5.913l0,0c-1.865,2.803-3.415,5.798-5.165,8.671c-0.938,1.538-16.438,25.734-46.193,19.506
	c-30.998-6.445-71.562-40.88-67.959-79.303c0.416-4.653,1.512-9.287,3.228-13.941c1.312-3.536,2.332-5.713,2.891-6.552
	c0.561-0.839,11.274-10.314,12.492-10.974l0,0l14.95-8.559l0.236-0.36l0,0c1.014-1.519,6.609-3.874,10.144-5.359
	c13.692-5.762,19.541-9.481,9.846-23.631l0,0l-4.396-5.868l0,0c-6.344-8.46-13.062-16.628-19.513-25.006l0,0l-4.775-6.206l0,0
	c-6.775-8.662-14.526-11.83-23.271-9.607c-0.736,0.201-5.188,2.341-13.271,6.302c-19.967,9.78-40.051,19.313-60.268,28.563
	c-15.171,6.941-23.794,11.581-25.929,13.879c-4.688,5.095-5.242,11.646-1.604,19.69C553.719,74.214,602.594,122.417,628.738,148.519
	L628.738,148.519 M875.885,390.528l-65.575-5.543l0,0c-5.959-0.504-11.922-0.969-17.894-1.354l0,0l-97.28-6.284l0,0
	c-17.575-1.136-35.033-3.56-52.575-5.077c-11.202-0.969-23.152-1.876-35.992-2.75c-20.42-1.39-40.707-4.304-61.125-5.707l0,0
	l-96.476-6.628l0,0c-8.438-0.579-16.828-1.664-25.25-2.393l0,0l-63.094-5.46l0,0c-25.427-2.201-50.926-3.418-76.381-5.251
	c-3.697-0.266-11.442-0.873-23.097-1.79c-14.562-1.091-22.31-1.698-23.197-1.666c-12.646,0.464-25.128-1.925-37.457-4.531l0,0
	l-8.171-1.727l0,0c-6.34-1.34-11.188-3.836-14.69-7.446l0,0l-5.358-5.622l0,0c-2.271-2.377-6.684-0.932-9.89,0.118
	c-2.218,0.727-4.248,1.914-6.079,3.351c-2.732,2.145-8.032,7.722-15.953,16.645c-21.017,23.675-41.931,47.448-61.942,71.979
	c-18.693,22.909-39.067,44.405-57.603,67.449c-3.371,4.192-6.868,8.285-10.471,12.284c-3.745,4.158-8.606,9.562-9.723,13.62
	c-3.854,14.052,10.452,27.155,42.996,39.259c22.854,8.51,34.97,12.871,36.119,13.301c29.607,11.041,60.77,22.83,91.318,33.799
	c31.674,11.369,90.366,32.277,94.813,34.686c2.906,1.571,25.579,9.896,68.089,24.986c6.43,2.312,15.528,5.562,27.272,9.887l0,0
	l47.667,17.506l0,0c10.646,3.911,25.999,9.549,31.982,11.617c14.483,5.004,28.896,10.213,43.183,15.749l0,0l53.057,20.56l0,0
	c21.559,8.354,43.509,15.646,65.225,23.572c0.479,0.174,1.013,0.436,1.489,0.608c10.104,4.418,17.997,3.289,23.675-3.39
	c0.188-0.182,6.101-11.438,17.777-33.626c3.554-6.751,6.365-13.858,9.812-20.666l0,0l31.188-61.554l0,0
	c3.385-6.682,7.069-13.207,10.524-19.854c7.064-13.595,15.128-26.312,24.234-38.074c3.536-4.566,6.917-9.252,10.56-13.738
	c19.926-24.562,43.417-46.139,70.539-62.51c15.353-9.267,36.136-18.119,62.364-26.631c4.47-1.449,12.595-4.086,13.42-4.306
	c2.806-0.729,15.029-4.255,36.677-10.568c4.633-1.376,9.547-2.692,14.771-4.093c8.879-2.314,16.176-4.455,21.871-6.344
	c-3.859-3.314-17.438-16.711-40.685-40.096c-8.199-8.208-12.935-13.33-14.25-15.446c-2.498-0.015-4.912-0.082-7.345-0.08
	C885.12,391.312,880.237,390.896,875.885,390.528L875.885,390.528 M60.392,520.464c-2.654-35.146,43.032-53.896,62.631-22.308
	c8.825,14.303,6.235,35.244-9.23,47.502C92.424,562.592,62.376,546.744,60.392,520.464L60.392,520.464 M222.079,411.551
	c-3.162,2.181-29.802,13.571-45.361-9.952c-16.946-25.662,4.774-54.625,27.12-55.203c12.953-0.354,24.654,6.609,25.979,8.36
	c4.229,5.603,7.785,11.75,9.698,18.534C242.227,382.918,236.874,401.369,222.079,411.551L222.079,411.551 M389.907,515.927
	c15.991,3.38,45.298,10.604,88.079,21.633c9.758,2.577,16.345,5.887,19.746,9.986c1.659,1.896,2.895,4.07,3.729,6.382
	c1.107,3.104,1.532,5.621,1.229,7.398c-1.097,7.271-6.041,19.181-14.92,35.771c-3.969,7.42-11.334,21.185-12.243,22.066
	c-7.407,7.191-17.117,9.26-29.088,6.361c-11.604-2.896-48.348-14.636-110.129-35.347c-1.183-0.32-5.696-1.938-13.73-4.669
	c-60.604-21.051-92.453-32.271-95.475-33.646c-9.133-4.14-13.13-9.251-12.032-15.495c0.579,0.049,1.005-0.229,1.18-0.707l0,0
	l43.502,12.138l0,0c8.5,2.372,17.979,3.857,25.957,4.975c1.029,0.144,6.495,0.479,11.604-2.476
	c1.146-0.661,6.934-6.174,10.488-9.784c0.396-0.397,13.604-14.935,12.417-21.146c-0.797-4.585-4.655-6.872-4.868-6.917l0,0
	L248.45,496.84l0,0c-2.239-0.545-9.131-6.934-3.703-11.379c2.192-1.795,5.16-1.631,7.792-1.003l0,0l70.554,16.825l0,0
	C342.083,505.819,367.599,511.213,389.907,515.927L389.907,515.927 M361.971,490.374l-46.812-11.807l0,0
	c-2.685-0.567-5.242-1.623-7.927-2.19c-4.067-0.859-8.016-2.209-12.083-3.069l0,0l-9.229-1.946l0,0
	c-6.833-1.443-11.733-5.06-14.553-10.878l0,0l0.506-2.396l0,0c3.354-0.542,5.896-0.74,7.616-0.522l0,0l7.768,1.199l0,0
	c4.776,0.737,20.297,2.565,34.409,4.159c23.312,2.631,18.508,2.757,31.438,3.943c3.346,0.305,8.578-5.771,16.183-14.242
	c0.587-0.688,2.287-2.461,4.943-5.284l0,0l5.015-5.269l0,0c3.409-3.582,5.676-11.096-0.755-12.449
	c-3.168-0.67-6.033-2.418-9.245-2.911l0,0l-50.819-7.797l0,0c-0.689-0.104-9.264-0.988-13.896-1.466
	c-4.753-0.488-6.208-8.229-4.924-9.432l0,0l5.333-4.688l0,0c2.167-1.896,28.923,1.033,80.283,8.725l0,0l7.271,1.098l7.274,1.098l0,0
	c6.837,1.076,28.705,4.152,65.604,9.229c30.541,4.177,53.562,8.082,69.056,11.729c7.578,1.749,12.862,3.896,15.729,6.342l0,0
	l4.295,3.704l0,0c3.472,2.992,4.819,7.653,4.062,12.118l0,0l-1.207,7.104l0,0c-3.088,18.176-12.676,34.375-25.608,47.354
	c-6.726,6.747-18.064,10.973-26.752,10.978c-2.898,0.001-5.771-0.479-8.604-1.082l0,0l-7.045-1.486l0,0
	c-1.328-0.279-7.131-1.78-10.688-2.699l0,0l-21.841-5.647l0,0c-4.648-1.199-9.312-2.35-14-3.396l0,0L361.971,490.374
	L361.971,490.374 M278.899,304.223l-77.167-5.192l-18.216-0.452c-2.944-0.215-4.87,0.845-5.918,3.101
	c-0.622,2.42-0.381,4.812,0.738,7.026c0.919,1.849,13.813,12.422,23.58,16.14c6.656,2.487,28.122,5.764,64.479,9.693
	c40.229,4.333,61.887,6.612,64.977,6.833c10.391,0.748,20.604,3.426,31.052,3.384c1.874-0.008,24.883,2.184,37.321,3.304
	l57.417,5.169c7.792,0.702,42.491,2.769,63.743,4.034l134.647,7.553c14.839,0.721,29.685,1.298,44.521,2.019
	c76.257,3.706,152.562,6.287,228.838,9.534c2.159,0.092,4.318,0.197,6.479,0.275c5.714,0.207,11.437-0.044,17.146,0.242
	c1.361,0.068,2.727,0.133,4.087,0.197c1.529,0.072,3.062,0.141,4.594,0.209c1.686,0.075,3.371,0.148,5.057,0.22
	c1.828,0.078,3.656,0.154,5.484,0.229c1.956,0.08,3.913,0.159,5.87,0.234c2.069,0.082,4.145,0.162,6.217,0.24
	c2.175,0.084,4.35,0.166,6.521,0.246c2.268,0.084,4.528,0.167,6.793,0.249c2.342,0.084,4.683,0.167,7.021,0.249
	c2.402,0.084,4.806,0.167,7.209,0.249c2.453,0.083,4.905,0.166,7.355,0.247c2.489,0.082,4.979,0.163,7.471,0.242
	c2.513,0.08,5.022,0.16,7.537,0.238c2.521,0.078,5.046,0.152,7.565,0.229c2.521,0.075,5.039,0.148,7.562,0.223
	c2.503,0.071,5.006,0.146,7.51,0.213c2.474,0.067,4.947,0.135,7.421,0.2c2.432,0.062,4.86,0.125,7.293,0.188
	c2.375,0.06,4.75,0.115,7.125,0.173c2.307,0.054,4.61,0.104,6.917,0.155c2.224,0.049,4.447,0.095,6.671,0.139
	c2.129,0.042,4.257,0.081,6.385,0.118c0.832,0.015,1.663,0.026,2.495,0.042c57.296,0.933,114.591,2.18,171.826,4.961
	c10.645,0.52,30.215,1.251,28.097-14.494c-0.373-2.684-18.271-48.247-22.002-53.042c-1.082-1.494-6.788-5.664-17.125-12.509
	c-3.841-2.566-5.865-3.89-6.011-3.897c-1.037-0.052-13.823,0.6-20.732,0.938c-32.55,1.596-65.123,2.515-97.693,3.398
	c-55.005,1.491-152.371,4.13-165.031,3.515c-0.357-0.017-15.797,0.241-46.246,0.853c-15.728,0.244-30.228,0.477-43.426,0.629
	c-42.873,0.492-92.981,1.068-128.619,0.887c-10.085-0.052-20.165-0.468-30.25-0.534c-61.816-0.404-123.626-2.105-185.449-2.021
	c-1.438,0.002-42.26-1.116-122.673-3.293c-1.294-0.062-8.504-0.053-21.62-0.113C355.449,306.719,313.086,306.522,278.899,304.223"/>
</svg>
