<?xml version="1.0" encoding="utf-8"?>
<!-- Generator: Adobe Illustrator 16.0.0, SVG Export Plug-In . SVG Version: 6.00 Build 0)  -->
<!DOCTYPE svg PUBLIC "-//W3C//DTD SVG 1.1//EN" "http://www.w3.org/Graphics/SVG/1.1/DTD/svg11.dtd">
<svg version="1.1" id="Layer_1" xmlns="http://www.w3.org/2000/svg" xmlns:xlink="http://www.w3.org/1999/xlink" x="0px" y="0px"
	 width="898.688px" height="210.168px" viewBox="0 0 898.688 210.168" enable-background="new 0 0 898.688 210.168"
	 xml:space="preserve">
<path fill="none" stroke="#000000" stroke-linejoin="round" stroke-miterlimit="10" d="M894.05,1.748
	c-1.312-2.129-5.894-1.807-8.968-1.591l-63.388,4.46c-16.658,1.172-33.193,3.608-49.812,5.227
	c-31.741,3.089-63.611,4.519-95.409,6.921L517.87,30.445c-39.847,3.438-79.696,6.832-119.58,9.826
	c-38.604,2.898-100.771,7.565-115.73,9.769c-2.952,0.435-39.639,3.31-59.464,4.902C170.999,59.125,73.692,65.85,67.065,70.282
	c-6.56,4.387-6.223,9.141,0.794,14.293c0.981,0.729,23.143,8.891,25.473,8.402c1.819-0.382,21.472,7.306,32.033,11.438l14.055,5.498
	c19.696,7.728,33.651,13.528,41.936,17.403c14.06,6.517,27.439,13.353,40.229,20.638c19.917,11.346,38.23,25.188,55.982,39.646
	c9.84,8.012,15.695,12.68,17.707,13.981c11.224,7.521,23.179,10.123,36,7.728c4.556-0.854,9.139-1.562,13.674-2.521
	c36.766-7.814,65.172-13.094,85.291-15.84c49.935-6.846,76.679-10.564,80.354-11.324c26.938-5.566,79.64-13.33,119.578-19.213
	l59.697-9.74c30.187-4.924,60.207-10.832,90.467-15.289l67.387-9.926c7.766-1.145,12.898-2.336,15.555-3.602
	c5.223-2.593,8.516-6.422,9.878-11.498c6.595-24.566,16.539-61.616,21.074-73.333c0.896-2.315,1.712-4.691,2.521-7.067
	C899.953,20.6,899.274,10.222,894.05,1.748z"/>
</svg>
