<?xml version="1.0" encoding="utf-8"?>
<!-- Generator: Adobe Illustrator 16.0.0, SVG Export Plug-In . SVG Version: 6.00 Build 0)  -->
<!DOCTYPE svg PUBLIC "-//W3C//DTD SVG 1.1//EN" "http://www.w3.org/Graphics/SVG/1.1/DTD/svg11.dtd">
<svg version="1.1" id="Layer_1" xmlns="http://www.w3.org/2000/svg" xmlns:xlink="http://www.w3.org/1999/xlink" x="0px" y="0px"
	 width="1848.191px" height="754.914px" viewBox="0 0 1848.191 754.914" enable-background="new 0 0 1848.191 754.914"
	 xml:space="preserve">
<path fill="none" stroke="#000000" stroke-linejoin="round" stroke-miterlimit="10" d="M1493.779,312.91
	c-16.77-5.735-32.366-9.631-44.324-11.162c-29.926-3.832-78.213-2.954-117.342-2.243c-54.297,0.987-108.608,1.067-162.906,2.028
	c-66.511,1.176-133.053-1.748-199.544,0.876c-7.438,0.293-15.855,1.491-21.459-4.734c-8.801-9.772-17.993-19.182-26.882-28.874
	l-35.896-38.851c-25.397-27.894-51.87-54.78-78.562-81.432c-26.146-26.102-75.021-74.305-77.318-79.397
	c-1.82-4.022-2.591-7.671-2.322-10.951"/>
<path fill="none" stroke="#000000" stroke-linejoin="round" stroke-miterlimit="10" d="M185.226,496.783
	c1.096-1.276,2.209-2.513,3.237-3.654c3.6-3.999,7.097-8.092,10.47-12.284c18.534-23.044,38.908-44.54,57.601-67.451
	c20.013-24.529,40.927-48.304,61.942-71.979c7.921-8.923,13.221-14.5,15.954-16.646c1.832-1.437,3.862-2.624,6.08-3.351
	c3.206-1.05,7.619-2.495,9.888-0.118l5.36,5.622c3.504,3.61,8.35,6.106,14.69,7.446l8.171,1.727
	c20.173,4.264,40.17,4.661,60.65,6.196c11.657,0.917,19.402,1.524,23.1,1.79c25.455,1.833,50.954,3.05,76.381,5.251l63.091,5.46
	c8.422,0.729,16.814,1.814,25.25,2.393l96.477,6.629c20.418,1.402,40.706,4.316,61.125,5.707c12.841,0.873,24.791,1.78,35.991,2.75
	c17.542,1.517,35,3.94,52.575,5.076l97.283,6.284c5.969,0.385,11.933,0.851,17.891,1.354l65.576,5.543
	c4.354,0.367,9.236,0.781,13.078,0.775c2.43-0.002,4.843,0.066,7.343,0.08c1.318,2.117,6.051,7.239,14.249,15.447
	c23.245,23.385,36.825,36.779,40.687,40.096"/>
<path fill="none" stroke="#000000" stroke-linejoin="round" stroke-miterlimit="10" d="M717.219,64.771
	c2.382,1.499,4.67,3.346,6.866,5.541c1.619,1.617,6.521,6.99,14.614,16.078c28.826,32.372,58.933,63.576,89.982,93.817
	c27.883,27.153,54.022,56.026,81.522,83.559l5.239,5.245l5.236,5.245c5.324,5.331,14.479,14.497,15.52,16.426
	c2.86,5.318,2.744,15.871-5.825,15.632c-2.259-0.063-4.037-0.077-5.133-0.122l-5.107-0.054l-9.346-0.055l-82.449-2.595
	c-13.188-0.415-40.29-0.783-60.437-1.054c-46.595-0.632-93.176-1.846-139.75-3.308c-9.517-0.298-21.626-0.53-36.239-0.656
	c-12.219-0.104-96.752-1.472-145.128-2.254c-49.396-0.8-77.434-0.965-83.995-0.387c-4.698,0.413-9.444,1.245-13.562,3.635
	c-0.418,0.243-0.925,0.279-1.346,0.514c-7.567,4.198-14.915,10.393-21.929,18.465c-19.879,22.875-39.216,46.212-58.195,69.838
	c-21.886,27.244-42.973,55.117-64.697,82.495c-4.787,6.029-9.869,14.588-17.411,17.5c-2.115,0.816-4.31,0.87-6.489,0.427"/>
<path fill="none" stroke="#000000" stroke-linejoin="round" stroke-miterlimit="10" d="M1451.756,386.633
	c10.834,0.496,29.041,0.669,26.995-14.549c-0.846-5.991-3.712-12.396-6.485-18.439"/>
<path fill="none" stroke="#000001" stroke-linejoin="round" stroke-miterlimit="10" d="M1463.666,334.058
	c-0.083-0.169-0.165-0.338-0.247-0.506c-5.39-10.995-11.591-18.932-23.796-27.016c-3.841-2.566-5.866-3.89-6.012-3.897
	c-1.036-0.052-13.822,0.6-20.732,0.938c-32.548,1.596-65.123,2.515-97.695,3.397c-55.004,1.491-152.371,4.131-165.029,3.516
	c-0.358-0.018-15.799,0.241-46.246,0.853c-15.729,0.244-30.229,0.478-43.428,0.629c-42.872,0.492-92.98,1.068-128.619,0.888
	c-10.085-0.053-20.164-0.469-30.25-0.534c-61.817-0.404-123.625-2.105-185.447-2.021c-1.441,0.002-42.262-1.115-122.674-3.293
	c-1.295-0.062-8.505-0.053-21.619-0.112c-38.297-0.181-80.661-0.377-114.847-2.676l-77.168-5.192l-18.216-0.452
	c-2.944-0.215-4.869,0.845-5.917,3.101c-0.622,2.42-0.378,4.812,0.74,7.026c0.919,1.849,13.813,12.422,23.58,16.14
	c6.655,2.487,28.122,5.765,64.478,9.693c40.229,4.333,61.89,6.612,64.979,6.833c10.387,0.748,20.604,3.426,31.048,3.384
	c1.875-0.008,24.884,2.185,37.324,3.304l57.417,5.17c7.792,0.701,42.491,2.769,63.743,4.033l134.646,7.554
	c14.839,0.721,29.686,1.298,44.523,2.019c32.003,1.515,64.01,2.914,96.021,4.204c32.015,1.29,64.027,2.519,96.039,3.809
	c8.958,0.361,17.915,0.729,26.872,1.104c14.533,0.607,29.082,0.761,43.614,1.404c2.91,0.128,5.819,0.251,8.73,0.37"/>
</svg>
