<?xml version="1.0" encoding="utf-8"?>
<!-- Generator: Adobe Illustrator 16.0.0, SVG Export Plug-In . SVG Version: 6.00 Build 0)  -->
<!DOCTYPE svg PUBLIC "-//W3C//DTD SVG 1.1//EN" "http://www.w3.org/Graphics/SVG/1.1/DTD/svg11.dtd">
<svg version="1.1" id="Layer_1" xmlns="http://www.w3.org/2000/svg" xmlns:xlink="http://www.w3.org/1999/xlink" x="0px" y="0px"
	 width="1848.191px" height="754.914px" viewBox="0 0 1848.191 754.914" enable-background="new 0 0 1848.191 754.914"
	 xml:space="preserve">
<path fill="none" stroke="#000000" stroke-linejoin="round" stroke-miterlimit="10" d="M806.863,148.518
	c26.692,26.652,53.165,53.538,78.562,81.432l35.896,38.851c8.889,9.692,18.081,19.102,26.882,28.874
	c5.604,6.225,14.021,5.027,21.459,4.734c66.491-2.624,133.033,0.3,199.544-0.876c54.298-0.961,108.609-1.041,162.906-2.028
	c39.129-0.711,87.416-1.589,117.342,2.243c25.264,3.236,66.771,17.021,101.253,36.423c19.199,10.788,41.795,24.528,67.689,41.241
	c6.069,3.92,11.361,8.874,16.505,13.926c6.273,6.166,9.832,9.398,10.572,9.717c2.787,1.203,9.139,0.413,13.678-0.148
	c3.395-0.424,13.638-1.908,30.709-4.559c10.139-1.574,20.223-3.517,30.409-4.758c16.508-2.014,32.931-4.662,49.419-6.811
	c38.257-4.982,60.521-7.377,66.689-7.162c3.889,0.135,13.782,0.479,11.461-1.626l-69.021-62.628
	c-9.537-8.652-24.874-1.591-35.253-8.499c-11.329-7.539-176.794-29.319-265.269-43.52c-12.502-2.007-27.777-4.132-45.771-6.333
	c-30.998-3.794-61.777-9.197-92.769-13.046c-19.007-2.361-109.041-15.724-163.526-23.812c-2.676-0.397-12.264-1.847-28.659-4.37
	c-36.886-5.675-73.881-10.615-110.742-16.446c-9.547-1.51-19.153-3.839-28.858-6.927c-4.071-1.295-9.021-2.751-13.543-4.083
	c-4.194-1.235-9.893-7.62-17.33-19.058c0,0-4.479-7.045-4.479-7.046c-2.922-4.239-8.43-4.572-13.025-3.936
	c-6.084,0.843-8.595,4.435-11.489,9.587c-1.865,2.803-3.415,5.798-5.165,8.671c-0.938,1.538-16.436,25.734-46.193,19.506
	c-30.998-6.445-71.562-40.879-67.959-79.302c0.85-9.056,4.569-18.289,10.678-25.076c10.143-11.269,27.607-17.456,40.816-24.369
	c9.336-4.886,7.859-11.8,2.288-19.931l-4.396-5.868c-6.342-8.46-13.062-16.628-19.511-25.006l-4.777-6.206
	c-6.775-8.662-14.525-11.83-23.271-9.607c-0.738,0.201-5.189,2.341-13.273,6.302c-19.965,9.78-40.049,19.314-60.265,28.564
	c-15.171,6.941-23.794,11.581-25.929,13.879c-4.688,5.095-5.242,11.646-1.603,19.69C731.843,74.213,780.718,122.416,806.863,148.518
	 M1054.009,390.529l-65.575-5.543c-5.959-0.504-11.923-0.969-17.892-1.354l-97.283-6.284c-17.575-1.136-35.033-3.56-52.575-5.077
	c-11.2-0.969-23.15-1.876-35.991-2.75c-20.419-1.39-40.707-4.304-61.125-5.707l-96.477-6.628c-8.436-0.579-16.828-1.664-25.25-2.393
	l-63.091-5.46c-25.427-2.201-50.926-3.418-76.381-5.251c-3.697-0.266-11.442-0.873-23.1-1.79c-20.48-1.535-40.478-1.933-60.65-6.196
	l-8.171-1.727c-6.34-1.34-11.187-3.836-14.69-7.446l-5.359-5.622c-2.27-2.377-6.683-0.932-9.889,0.118
	c-2.218,0.727-4.248,1.914-6.08,3.351c-2.732,2.145-8.032,7.722-15.954,16.645c-21.015,23.675-41.929,47.449-61.941,71.979
	c-18.693,22.91-39.067,44.406-57.601,67.45c-3.373,4.192-6.87,8.285-10.47,12.284c-3.745,4.158-8.609,9.562-9.723,13.62
	c-3.852,14.052,10.452,27.155,42.996,39.259c22.854,8.51,34.97,12.871,36.119,13.301c29.61,11.041,60.77,22.83,91.321,33.799
	c31.673,11.369,90.366,32.277,94.813,34.684c2.905,1.571,25.579,9.895,68.089,24.986c6.428,2.313,15.529,5.562,27.271,9.887
	l47.668,17.506c10.647,3.911,25.998,9.549,31.984,11.617c14.483,5.004,28.895,10.213,43.18,15.749l53.058,20.56
	c21.559,8.354,43.509,15.644,65.224,23.572c0.479,0.174,1.011,0.436,1.49,0.608c10.104,4.418,17.996,3.289,23.675-3.388
	c0.186-0.182,6.098-11.439,17.777-33.626c3.554-6.751,6.366-13.86,9.812-20.666l31.188-61.554
	c3.385-6.682,7.068-13.207,10.522-19.854c7.068-13.593,15.128-26.312,24.237-38.074c3.536-4.566,6.917-9.252,10.557-13.738
	c19.926-24.562,43.417-46.139,70.538-62.51c15.354-9.265,36.136-18.119,62.367-26.631c4.468-1.449,12.591-4.086,13.42-4.304
	c2.804-0.729,15.028-4.255,36.675-10.57c4.634-1.376,9.547-2.692,14.772-4.091c8.879-2.316,16.175-4.455,21.872-6.344
	c-3.861-3.316-17.441-16.711-40.687-40.096c-8.198-8.208-12.931-13.33-14.249-15.447c-2.5-0.014-4.913-0.082-7.343-0.08
	C1063.245,391.311,1058.362,390.896,1054.009,390.529 M238.517,520.463c-2.654-35.146,43.035-53.896,62.631-22.308
	c8.824,14.303,6.237,35.244-9.23,47.502C270.549,562.591,240.501,546.743,238.517,520.463L238.517,520.463 M400.204,411.55
	c-3.162,2.179-29.802,13.571-45.361-9.955c-16.949-25.659,4.774-54.625,27.122-55.2c17.589-0.479,30.938,10.106,35.672,26.894
	C420.352,382.917,414.999,401.368,400.204,411.55 M568.032,515.926c15.991,3.38,45.298,10.604,88.081,21.634
	c35.326,9.33,22.687,35.43,9.788,59.536c-14.589,27.269-28.707,32.658-57.765,23.484c-31.313-9.887-62.553-19.954-93.697-30.396
	c-1.185-0.321-5.697-1.938-13.731-4.668c-60.604-21.051-92.453-32.271-95.475-33.646c-9.135-4.138-13.13-9.251-12.032-15.495
	c0.579,0.049,1.005-0.229,1.18-0.707l43.502,12.138c8.5,2.372,17.979,3.857,25.957,4.973c1.029,0.144,6.495,0.481,11.604-2.474
	c1.145-0.662,6.933-6.174,10.486-9.783c0.396-0.4,13.606-14.936,12.417-21.146c-0.797-4.585-4.654-6.872-4.867-6.917l-66.904-15.612
	c-2.239-0.545-9.131-6.934-3.703-11.379c2.191-1.795,5.16-1.631,7.792-1.003l70.551,16.825
	C520.208,505.818,545.724,511.212,568.032,515.926 M540.096,490.373l-46.81-11.807c-2.686-0.567-5.242-1.623-7.927-2.19
	c-4.067-0.859-8.017-2.209-12.083-3.069c0,0-9.218-1.945-9.229-1.948c-3.877-0.966-7.88-2.638-10.891-5.328
	c-5.326-4.765-1.961-9.276,4.46-8.468l7.768,1.199c4.776,0.737,20.294,2.565,34.409,4.159c23.311,2.631,18.505,2.757,31.436,3.943
	c3.346,0.305,8.577-5.77,16.183-14.242c0.587-0.688,2.287-2.461,4.944-5.284l5.014-5.269c3.409-3.582,5.674-11.094-0.755-12.449
	c-3.168-0.67-6.033-2.418-9.245-2.911l-50.822-7.797c-0.688-0.105-9.261-0.988-13.895-1.465c-2.897-0.301-4.994-3.598-5.237-6.28
	c-0.299-3.324,4.528-7.438,7.3-8.424c6.262-2.226,14.729,0.345,21.197,0.991c8.759,0.875,17.424,2.477,26.128,3.761
	c10.432,1.536,20.876,2.999,31.304,4.561l7.274,1.097l7.273,1.097c6.839,1.078,28.705,4.153,65.605,9.229
	c30.541,4.175,53.559,8.082,69.053,11.727c7.578,1.749,12.864,3.896,15.732,6.342l4.295,3.704c3.469,2.992,4.819,7.653,4.062,12.118
	l-1.207,7.104c-3.088,18.175-12.676,34.375-25.607,47.354c-6.727,6.747-18.067,10.973-26.752,10.978
	c-2.901,0.001-5.771-0.481-8.604-1.082l-7.045-1.487c-1.328-0.28-7.13-1.781-10.688-2.7l-21.842-5.647
	c-4.647-1.201-9.312-2.35-14-3.397L540.096,490.373 M25.875,242.159c2.491-1.953,8.372-6.739,17.732-14.32
	c2.356-1.901,6.325-5.034,11.97-9.424c1.964-1.52,3.995-3.065,5.999-4.678c11.8-9.494,24.988-17.155,36.585-26.911
	c2.683-2.256,16.52-9.618,41.417-22.126c2.578-1.295,5.222-2.456,7.918-3.484l21.012-9.562c0.436-0.474,9.712-3.629,27.721-9.347
	c11.061-3.527,25.239-7.167,42.561-10.849c12.533-2.703,19.695-4.126,21.531-4.365l64.21-10.866
	c27.256-4.612,74.3-11.049,82.052-11.973c70.295-8.379,126.036-16.044,188.402-26.515c11.303-1.898,22.568-4.003,33.856-5.988
	c23.166-4.07,65.451-11.501,69.573-11.756c9.637-0.596,18.194,2.843,25.67,10.316c1.619,1.617,6.521,6.99,14.614,16.078
	c28.826,32.372,58.933,63.576,89.982,93.817c27.883,27.153,54.022,56.026,81.522,83.559l5.239,5.245l5.236,5.245
	c5.324,5.331,14.479,14.497,15.52,16.426c2.861,5.318,2.744,15.871-5.825,15.632c-2.259-0.063-4.037-0.077-5.133-0.122l-5.107-0.054
	l-9.346-0.055l-82.449-2.595c-13.188-0.415-40.29-0.783-60.437-1.054c-46.595-0.632-93.176-1.846-139.75-3.308
	c-9.517-0.298-21.626-0.53-36.239-0.656c-12.219-0.104-96.752-1.472-145.128-2.254c-49.396-0.8-77.435-0.965-83.995-0.387
	c-4.698,0.413-9.444,1.245-13.562,3.635c-0.418,0.243-0.925,0.279-1.346,0.514c-7.566,4.198-14.915,10.393-21.929,18.465
	c-19.879,22.875-39.216,46.212-58.195,69.838c-21.886,27.243-42.973,55.117-64.697,82.495c-4.787,6.029-9.869,14.588-17.411,17.5
	c-7.139,2.758-15.183-3.184-20.493-7.584l-9.126-7.151c-7.022-4.919-14.733-9.201-20.91-15.237
	c-8.294-8.104-8.404-14.09-1.958-23.274c22.547-32.132,28.299-42.062,43.263-62.521c16.813-22.986,25.466-34.842,26.052-35.529
	c2.904-3.401,5.521-7.033,7.994-10.757c2.058-3.101,4.458-6.717,3.174-10.459c-1.354-3.954-5.834-6.405-13.535-7.396l-7.54-0.976
	c-17.398-2.251-34.929-3.206-52.377-4.978c-37.204-3.779-74.26-8.864-111.149-14.993c-13.083-2.173-20.507-3.655-22.299-4.512
	c-2.839-1.383-4.753-2.964-5.715-4.678c-0.741-1.335-1.075-2.21-1.027-2.691l1.177-9.234l5.72-7.424
	C10.5,254.209,19.235,247.364,25.875,242.159 M457.024,304.222l-77.168-5.192l-18.217-0.452c-2.943-0.215-4.868,0.845-5.917,3.101
	c-0.622,2.42-0.378,4.812,0.74,7.026c0.919,1.849,13.813,12.422,23.58,16.14c6.655,2.487,28.122,5.764,64.479,9.693
	c40.229,4.333,61.889,6.612,64.979,6.833c10.387,0.748,20.604,3.426,31.048,3.384c1.875-0.008,24.884,2.184,37.324,3.304
	l57.417,5.169c7.792,0.702,42.491,2.769,63.743,4.034l134.646,7.553c14.839,0.721,29.686,1.298,44.523,2.019
	c32.003,1.515,64.01,2.914,96.021,4.204c32.015,1.29,64.027,2.519,96.039,3.809c8.958,0.361,17.915,0.729,26.872,1.104
	c14.533,0.608,29.082,0.761,43.614,1.404c3.991,0.176,7.98,0.341,11.975,0.501c9.483,0.381,18.97,0.733,28.454,1.067
	c21.475,0.757,42.953,1.425,64.434,1.978c11.07,0.283,22.145,0.537,33.218,0.719c57.294,0.933,114.589,2.18,171.823,4.961
	c10.646,0.52,30.216,1.251,28.099-14.496c-1.231-8.721-6.742-18.317-10.021-26.4c-7.235-17.852-12.833-28.37-29.107-39.149
	c-3.841-2.566-5.866-3.89-6.012-3.897c-1.036-0.052-13.822,0.6-20.732,0.938c-32.548,1.596-65.123,2.515-97.695,3.398
	c-55.004,1.491-152.371,4.13-165.029,3.515c-0.358-0.017-15.799,0.241-46.246,0.853c-15.729,0.244-30.229,0.477-43.428,0.629
	c-42.871,0.492-92.98,1.068-128.619,0.887c-10.085-0.052-20.164-0.468-30.25-0.534c-61.817-0.404-123.625-2.105-185.447-2.02
	c-1.441,0.002-42.262-1.116-122.674-3.293c-1.295-0.062-8.505-0.053-21.619-0.113C533.574,306.718,491.21,306.521,457.024,304.222"
	/>
</svg>
