<?xml version="1.0" encoding="utf-8"?>
<!-- Generator: Adobe Illustrator 16.0.0, SVG Export Plug-In . SVG Version: 6.00 Build 0)  -->
<!DOCTYPE svg PUBLIC "-//W3C//DTD SVG 1.1//EN" "http://www.w3.org/Graphics/SVG/1.1/DTD/svg11.dtd">
<svg version="1.1" id="Layer_1" xmlns="http://www.w3.org/2000/svg" xmlns:xlink="http://www.w3.org/1999/xlink" x="0px" y="0px"
	 width="1925.432px" height="759.545px" viewBox="0 0 1925.432 759.545" enable-background="new 0 0 1925.432 759.545"
	 xml:space="preserve">
<path fill="none" stroke="#000000" stroke-linejoin="round" stroke-miterlimit="10" d="M1473.117,312.984l77.212-4.489l18.219-0.287
	l0,0c2.946-0.188,4.862,0.89,5.89,3.155c0.6,2.426,0.334,4.813-0.805,7.021c-0.937,1.838-13.926,12.295-23.726,15.924
	c-6.679,2.425-28.174,5.508-64.563,9.105c-40.268,3.968-61.945,6.048-65.037,6.243c-10.394,0.652-20.635,3.237-31.077,3.1
	c-1.874-0.024-24.902,1.957-37.353,2.963l0,0l-57.462,4.646l0,0c-7.798,0.631-42.514,2.382-63.777,3.454l0,0l-134.711,6.326l0,0
	c-14.845,0.585-29.693,1.028-44.54,1.614c-76.287,3.011-152.611,4.896-228.916,7.449c-4.732,0.158-15.463,0.628-14.201-0.16
	c-15.424,1.033-105.394,3.469-157.627,3.844c-57.299,0.412-114.604,1.137-171.863,3.396c-10.647,0.42-30.226,0.978-27.963-14.749
	c0.397-2.682,18.711-48.08,22.485-52.84c1.094-1.484,6.84-5.602,17.238-12.354c3.863-2.53,5.901-3.835,6.045-3.841
	c1.037-0.041,13.817,0.726,20.725,1.127c32.531,1.894,65.098,3.109,97.661,4.288c54.986,1.992,152.326,5.517,164.99,5.017
	c0.359-0.014,15.795,0.386,46.238,1.274c15.723,0.388,30.221,0.752,43.418,1.024c42.865,0.883,92.968,1.915,128.604,2.058
	c10.085,0.041,20.168-0.283,30.253-0.257c61.819,0.159,123.642-0.979,185.459-0.331c1.442,0.015,42.27-0.731,122.698-2.176
	c1.295-0.051,8.503,0.025,21.62,0.083C1396.547,314.782,1438.911,314.972,1473.117,312.984L1473.117,312.984 M1197.805,57.791
	c0.85-3.656-14.18-13.061-22.351-18.174c-5.543-3.469-23.724-12.246-54.466-26.399c-9.223-4.246-17.469-10.93-27.576-12.933
	c-8.189-1.623-17.345,3.689-27.539,16.004c-15.609,18.859-37.438,45.228-45.854,57.367c-20.261,29.211-45.236,54.783-66.334,83.361
	c-3.143,4.258-8.805,13.072-13.063,19.704c-7.157,11.143-17.029,17.491-29.538,18.974l-7.273,0.891
	c-42.914,5.175-74.243,9.745-93.845,13.717c-28.496,5.776-57.521,8.21-86.259,12.486c-15.449,2.3-39.705,5.748-72.479,10.367
	c-101.342,14.279-288.857,40.576-303.916,43.57c-73.355,14.588-147.676,23.531-221.381,36.106
	c-49.699,8.479-76.075,13.447-79.125,14.833c-1.832,0.832-7.105,2.45-10.697,3.551c-12.005,3.681-21.977,10.455-30.055,20.239
	c-2.274,2.736-3.7,4.664-4.216,5.929c-1.015,2.241-1.673,4.578-1.834,7.021c7.09,2.994,48.042,8.944,122.925,17.931
	c44.812,5.414,76.396,9.015,94.745,10.876c20.423,2.143,32.604,3.452,36.469,3.925l7.227,0.909
	c6.945,0.819,11.811,0.348,14.603-1.488c12.52-8.236,34.615-22.771,37.5-24.8c9.561-6.719,19.569-12.768,29.271-19.28
	c19.179-12.876,36.175-22.216,50.984-27.948c5.387-2.084,10.632-4.512,15.959-6.739c18.626-7.791,38.183-13.28,58.521-16.411
	c8.597-1.323,17.247-2.304,25.938-2.689c15.053-0.665,49.237-0.428,102.56,0.712c37.688,0.757,62.109,1.36,73.271,1.736
	c24.339,0.821,48.729-0.895,73.047,0.711l134.584,3.116c9.746-0.079,21.935,0.005,36.583,0.036
	c13.094,0.054,26.294,1.855,39.352,0.293c13.535-1.619,21.473-6.966,31.061-16.498c19.467-19.356,38.101-39.528,57.233-59.212
	l59.38-61.091c5.117-5.268,10.166-10.603,15.195-15.954c17.586-18.711,50.008-53.435,52.772-56.117
	c9.656-9.364,26.365-25.567,26.673-30.204L1197.805,57.791 M874.465,389.585l65.68-4.121l0,0c5.97-0.375,11.941-0.709,17.916-0.965
	l0,0l97.396-4.175l0,0c17.596-0.753,35.104-2.799,52.673-3.938c11.22-0.726,23.188-1.374,36.044-1.969
	c20.445-0.948,40.79-3.421,61.234-4.381l0,0l96.596-4.536l0,0c8.446-0.396,16.859-1.298,25.297-1.845l0,0l63.193-4.091l0,0
	c25.469-1.649,50.988-2.314,76.478-3.595c3.702-0.186,11.459-0.625,23.13-1.29c14.582-0.776,22.338-1.214,23.229-1.162
	c12.632,0.738,25.163-1.38,37.545-3.718l0,0l8.207-1.549l0,0c6.367-1.203,11.266-3.592,14.849-7.127l0,0l5.48-5.504l0,0
	c2.318-2.327,6.699-0.786,9.882,0.333c2.202,0.774,4.205,2.005,6.007,3.483c2.688,2.203,7.865,7.893,15.59,16.986
	c20.497,24.125,40.891,48.347,60.367,73.304c18.192,23.312,38.096,45.243,56.126,68.685c3.281,4.266,6.688,8.432,10.202,12.509
	c3.652,4.239,8.398,9.745,9.425,13.827c3.547,14.132-11.037,26.924-43.837,38.318c-23.033,8.013-35.239,12.109-36.396,12.514
	c-29.844,10.396-61.252,21.508-92.032,31.811c-31.912,10.685-91.044,30.314-95.543,32.621c-2.939,1.508-25.787,9.338-68.613,23.506
	c-6.478,2.175-15.647,5.226-27.481,9.292l0,0l-48.033,16.47l0,0c-10.729,3.68-26.2,8.982-32.229,10.921
	c-14.588,4.688-29.106,9.585-43.512,14.811l0,0l-53.488,19.404l0,0c-21.733,7.885-43.838,14.694-65.719,22.152
	c-0.482,0.165-1.021,0.413-1.504,0.577c-10.198,4.196-18.064,2.897-23.598-3.897c-0.182-0.187-5.849-11.57-17.044-34.004
	c-3.406-6.825-6.063-13.996-9.362-20.873l0,0l-29.847-62.216l0,0c-3.238-6.754-6.779-13.356-10.092-20.075
	c-6.771-13.743-14.554-26.636-23.406-38.593c-3.436-4.642-6.716-9.398-10.256-13.963c-19.389-24.989-42.406-47.069-69.167-64.022
	c-15.146-9.597-35.733-18.898-61.773-27.978c-4.438-1.547-12.5-4.356-13.324-4.592c-2.788-0.793-14.935-4.581-36.438-11.365
	c-4.603-1.477-9.485-2.897-14.682-4.41c-8.826-2.509-16.074-4.805-21.729-6.813c3.932-3.232,17.799-16.329,41.543-39.203
	c8.376-8.029,13.217-13.047,14.581-15.137c2.5,0.041,4.914,0.025,7.342,0.08C865.214,390.165,870.105,389.858,874.465,389.585
	L874.465,389.585 M1686.95,537.159c3.414-35.082-41.857-54.817-62.132-23.658c-9.135,14.107-7.002,35.1,8.197,47.69
	C1654.013,578.583,1684.396,563.392,1686.95,537.159L1686.95,537.159 M1527.661,424.77c3.114,2.243,29.501,14.213,45.567-8.97
	c17.5-25.285-3.591-54.717-25.923-55.776c-17.466-0.854-31.182,9.545-36.245,26.114
	C1508.139,395.706,1513.09,414.269,1527.661,424.77 M1357.61,525.482c-16.062,3.031-45.519,9.619-88.526,19.72
	c-9.812,2.364-16.469,5.525-19.958,9.556c-1.7,1.859-2.979,4.007-3.866,6.3c-1.178,3.078-1.656,5.588-1.393,7.369
	c0.938,7.297,5.623,19.31,14.141,36.091c3.808,7.501,10.871,21.422,11.764,22.325c7.248,7.353,16.911,9.63,28.942,6.992
	c11.665-2.642,48.653-13.582,110.868-32.949c1.188-0.298,5.738-1.815,13.829-4.369c61.047-19.731,93.131-30.26,96.181-31.567
	c9.221-3.939,13.329-8.965,12.366-15.23c-0.58,0.035-1.001-0.251-1.165-0.731l0,0l-43.755,11.19l0,0
	c-8.55,2.188-18.058,3.467-26.06,4.407c-1.03,0.121-6.505,0.343-11.548-2.723c-1.13-0.688-6.798-6.321-10.272-10.012
	c-0.386-0.407-13.279-15.225-11.956-21.407c0.896-4.566,4.804-6.771,5.016-6.811l0,0l67.229-14.159l0,0
	c2.251-0.497,9.279-6.733,3.947-11.295c-2.151-1.844-5.121-1.742-7.768-1.172l0,0l-70.896,15.29l0,0
	C1405.645,516.413,1380.015,521.253,1357.61,525.482L1357.61,525.482 M1386.094,500.541l47.056-10.788
	c2.694-0.51,5.274-1.51,7.972-2.02c4.085-0.771,8.062-2.034,12.146-2.807c0,0,9.204-1.739,9.269-1.751
	c7.716-1.458,22.891-15.335,6.728-13.651l-7.791,1.03c-4.793,0.636-20.346,2.126-34.491,3.413
	c-23.361,2.125-18.562,2.355-31.513,3.261c-3.351,0.234-8.45-5.95-15.87-14.589c-0.571-0.697-2.23-2.508-4.823-5.386
	c-15.549-17.257,3.461-20.205,18.079-22.188c12.767-1.733,25.553-3.351,38.326-5.025c5.321-0.698,13.435,0.903,16.897-4.742
	c3.013-4.908-0.556-9.476-5.456-11.163c-4.399-1.515-9.144,0.253-13.571,0.761c-8.071,0.926-16.229,0.836-24.313,1.779
	c-13.398,1.562-26.808,3.356-40.188,5.064l-7.296,0.938l-7.297,0.938c-6.858,0.929-28.789,3.529-65.791,7.805
	c-30.624,3.511-53.72,6.919-69.289,10.227c-7.614,1.584-12.946,3.614-15.866,5.998l-4.373,3.61
	c-3.533,2.916-4.985,7.547-4.324,12.027l1.054,7.128c2.692,18.236,11.926,34.642,24.576,47.896
	c6.576,6.892,17.825,11.363,26.508,11.556c2.9,0.063,5.778-0.358,8.623-0.896l7.075-1.335c1.335-0.252,7.168-1.627,10.744-2.469
	l21.958-5.171c4.674-1.103,9.362-2.149,14.069-3.098L1386.094,500.541 M1899.996,254.361c-2.465-1.986-8.281-6.85-17.542-14.552
	c-2.332-1.931-6.258-5.117-11.846-9.581c-1.943-1.545-3.954-3.116-5.937-4.755c-11.677-9.649-24.763-17.481-36.229-27.389
	c-2.654-2.291-16.394-9.834-41.123-22.667c-2.562-1.329-5.189-2.524-7.872-3.588l-20.885-9.834c-0.431-0.48-9.664-3.757-27.598-9.71
	c-11.014-3.672-25.144-7.496-42.415-11.406c-12.495-2.866-19.64-4.384-21.472-4.646l-64.062-11.706
	c-27.193-4.969-74.149-12.021-81.89-13.047c-70.181-9.299-125.813-17.692-188.038-28.981c-11.277-2.045-22.516-4.298-33.777-6.43
	c-23.108-4.375-65.294-12.359-69.412-12.667c-9.63-0.722-18.229,2.605-25.804,9.979c-1.641,1.596-6.612,6.905-14.823,15.885
	c-29.248,31.993-59.762,62.798-91.204,92.631c-28.234,26.786-54.752,55.312-82.61,82.484l-5.308,5.175l-5.308,5.176
	c-5.394,5.259-14.668,14.306-15.729,16.221c-1.468,2.642-3.452,6.22-2.263,8.63l1.33,2.697c1.246,2.524,3.67,4.422,6.552,4.381
	c2.26-0.034,4.036-0.025,5.134-0.054l5.106,0.011l9.347,0.067l82.477-1.513c13.192-0.243,40.296-0.255,60.445-0.264
	c46.597-0.021,93.19-0.624,139.779-1.475c9.52-0.174,21.634-0.248,36.246-0.182c12.22,0.056,96.765-0.205,145.146-0.353
	c49.4-0.151,77.438,0.051,83.992,0.714c4.691,0.475,9.426,1.368,13.516,3.812c0.413,0.249,0.919,0.292,1.337,0.532
	c7.513,4.297,14.777,10.587,21.687,18.75c19.578,23.133,38.606,46.722,57.274,70.594c21.525,27.529,42.247,55.676,63.607,83.332
	c3.365,4.355,9.145,11.839,10.5,12.763c3.813,2.599,7.149,6.158,12.135,5.717c5.543-0.492,10.974-4.701,15.14-8.062l9.219-7.031
	c6.898-4.698,24.429-18.426,25.429-19.578c2.332-2.948,3.515-5.346,3.576-7.258c0.219-3.088-3.469-8.201-5.634-11.375
	c-22.124-32.424-27.745-42.428-42.439-63.081c-16.511-23.204-25.007-35.174-25.584-35.867c-2.859-3.439-5.429-7.105-7.853-10.862
	c-2.019-3.128-4.369-6.774-3.037-10.501c1.405-3.934,5.918-6.327,13.63-7.217l7.552-0.877c17.427-2.022,34.969-2.748,52.439-4.292
	c37.25-3.291,74.37-7.889,111.335-13.534c13.109-2.002,20.553-3.387,22.355-4.221c2.857-1.345,4.792-2.901,5.777-4.602
	c0.758-1.326,1.103-2.196,1.062-2.678l-1.056-9.248l-5.623-7.499C1915.211,266.612,1906.567,259.652,1899.996,254.361"/>
</svg>
