<?xml version="1.0" encoding="utf-8"?>
<!-- Generator: Adobe Illustrator 16.0.0, SVG Export Plug-In . SVG Version: 6.00 Build 0)  -->
<!DOCTYPE svg PUBLIC "-//W3C//DTD SVG 1.1//EN" "http://www.w3.org/Graphics/SVG/1.1/DTD/svg11.dtd">
<svg version="1.1" id="Layer_1" xmlns="http://www.w3.org/2000/svg" xmlns:xlink="http://www.w3.org/1999/xlink" x="0px" y="0px"
	 width="1925.426px" height="759.546px" viewBox="0 0 1925.426 759.546" enable-background="new 0 0 1925.426 759.546"
	 xml:space="preserve">
<path d="M1473.112,312.983l77.212-4.489l18.222-0.287c2.943-0.188,4.859,0.89,5.89,3.155c0.6,2.426,0.334,4.812-0.805,7.021
	c-0.938,1.838-13.929,12.295-23.729,15.924c-6.679,2.425-28.174,5.508-64.562,9.105c-40.271,3.968-61.945,6.048-65.037,6.243
	c-10.396,0.652-20.635,3.237-31.077,3.1c-1.874-0.024-24.902,1.957-37.354,2.963l-57.463,4.646
	c-7.798,0.631-42.514,2.382-63.774,3.454l-134.712,6.326c-14.846,0.585-29.692,1.028-44.539,1.614
	c-72.754,2.879-145.538,4.8-218.312,7.099c-49.22,1.555-98.443,2.766-147.682,3.594c-11.583,0.193-23.168,0.355-34.753,0.439
	c-57.301,0.412-114.604,1.137-171.863,3.396c-10.646,0.42-30.228,0.979-27.963-14.75c0.396-2.682,18.711-48.08,22.483-52.84
	c1.096-1.484,6.842-5.602,17.237-12.354c3.863-2.53,5.901-3.835,6.046-3.841c1.036-0.041,13.816,0.726,20.727,1.127
	c32.529,1.894,65.098,3.109,97.659,4.288c54.985,1.992,152.326,5.517,164.989,5.017c0.359-0.014,15.796,0.386,46.238,1.274
	c15.724,0.388,30.221,0.752,43.418,1.024c42.865,0.883,92.969,1.915,128.604,2.058c10.085,0.041,20.168-0.283,30.254-0.257
	c61.817,0.159,123.643-0.979,185.459-0.331c1.44,0.015,42.271-0.731,122.697-2.176c1.295-0.051,8.503,0.025,21.62,0.083
	C1396.543,314.781,1438.906,314.971,1473.112,312.983 M1197.802,57.79c0.85-3.656-14.181-13.061-22.354-18.174
	c-5.543-3.469-23.724-12.246-54.466-26.399c-9.223-4.246-17.469-10.93-27.574-12.933c-8.188-1.623-17.347,3.689-27.539,16.004
	c-15.608,18.859-37.438,45.228-45.854,57.367c-20.261,29.211-45.236,54.783-66.334,83.361c-3.143,4.258-8.805,13.072-13.062,19.704
	c-7.156,11.143-17.028,17.491-29.537,18.974l-7.273,0.891c-42.914,5.175-74.243,9.745-93.845,13.717
	c-28.496,5.776-57.521,8.21-86.259,12.486c-15.449,2.3-39.705,5.748-72.479,10.367c-101.342,14.279-288.855,40.576-303.916,43.57
	c-73.354,14.588-147.676,23.531-221.381,36.106c-49.699,8.479-76.075,13.447-79.125,14.833c-1.832,0.832-7.104,2.45-10.696,3.551
	c-12.006,3.681-21.978,10.455-30.056,20.239c-2.272,2.736-3.7,4.664-4.216,5.929c-1.016,2.241-1.674,4.578-1.834,7.021
	c7.09,2.994,48.042,8.944,122.925,17.932c44.812,5.414,76.396,9.016,94.745,10.877c20.423,2.143,32.604,3.451,36.469,3.926
	l7.229,0.908c6.943,0.817,11.812,0.348,14.604-1.488c12.521-8.236,34.615-22.771,37.5-24.8c9.561-6.719,19.569-12.768,29.271-19.28
	c19.18-12.876,36.176-22.216,50.982-27.948c5.387-2.084,10.632-4.512,15.959-6.739c18.626-7.791,38.184-13.28,58.521-16.411
	c8.598-1.323,17.247-2.304,25.938-2.689c15.053-0.665,49.237-0.428,102.562,0.712c37.688,0.757,62.107,1.36,73.271,1.736
	c24.339,0.821,48.729-0.895,73.047,0.711l134.584,3.116c9.746-0.079,21.938,0.005,36.583,0.036
	c13.094,0.054,26.294,1.855,39.354,0.293c13.533-1.619,21.473-6.966,31.061-16.498c19.467-19.356,38.104-39.528,57.233-59.212
	l59.38-61.091c5.117-5.268,10.166-10.603,15.193-15.954c17.588-18.711,50.01-53.435,52.771-56.117
	c9.656-9.364,26.365-25.567,26.673-30.204L1197.802,57.79 M874.462,389.583l65.68-4.121l0,0c5.97-0.375,11.94-0.709,17.916-0.965
	l0,0l97.396-4.176l0,0c17.597-0.753,35.104-2.799,52.674-3.937c11.22-0.726,23.188-1.374,36.043-1.969
	c20.443-0.948,40.791-3.421,61.232-4.381l0,0l96.598-4.536l0,0c8.444-0.396,16.857-1.298,25.298-1.845l0,0l63.19-4.091l0,0
	c25.471-1.649,50.988-2.314,76.479-3.595c3.702-0.186,11.459-0.625,23.13-1.29c14.582-0.776,22.338-1.214,23.229-1.162
	c12.635,0.738,25.163-1.38,37.547-3.718l0,0l8.207-1.549l0,0c6.365-1.203,11.267-3.592,14.85-7.127l0,0l5.479-5.504l0,0
	c2.317-2.327,6.698-0.786,9.883,0.333c2.201,0.774,4.203,2.005,6.008,3.483c2.688,2.203,7.863,7.893,15.59,16.986
	c20.497,24.125,40.891,48.347,60.367,73.304c18.189,23.312,38.096,45.242,56.125,68.686c3.279,4.266,6.688,8.432,10.201,12.51
	c3.651,4.238,8.397,9.744,9.427,13.826c3.547,14.133-11.037,26.924-43.837,38.318c-23.033,8.014-35.239,12.107-36.396,12.514
	c-29.844,10.396-61.252,21.508-92.032,31.811c-31.911,10.689-91.043,30.314-95.543,32.621c-2.938,1.508-25.786,9.338-68.61,23.506
	c-6.479,2.178-15.647,5.23-27.481,9.293l0,0l-48.032,16.473l0,0c-10.729,3.68-26.199,8.979-32.229,10.922
	c-14.588,4.688-29.105,9.584-43.513,14.811l0,0l-53.487,19.404l0,0c-21.733,7.885-43.838,14.693-65.72,22.15
	c-0.481,0.162-1.021,0.41-1.504,0.574c-10.197,4.197-18.063,2.898-23.6-3.895c-0.182-0.189-5.849-11.57-17.044-34.004
	c-3.406-6.826-6.062-13.996-9.36-20.873l0,0l-29.849-62.217l0,0c-3.238-6.754-6.779-13.355-10.092-20.074
	c-6.771-13.744-14.555-26.637-23.406-38.594c-3.437-4.643-6.716-9.398-10.256-13.965c-19.39-24.986-42.406-47.066-69.167-64.02
	c-15.146-9.598-35.733-18.898-61.772-27.98c-4.438-1.547-12.5-4.354-13.323-4.592c-2.787-0.793-14.937-4.58-36.438-11.363
	c-4.604-1.479-9.483-2.896-14.682-4.41c-8.826-2.51-16.074-4.807-21.729-6.812c3.934-3.23,17.8-16.33,41.544-39.202
	c8.375-8.029,13.218-13.048,14.58-15.138c2.5,0.041,4.914,0.024,7.344,0.08C865.211,390.166,870.101,389.857,874.462,389.583
	L874.462,389.583 M1686.945,537.16c3.414-35.082-41.854-54.818-62.132-23.658c-9.135,14.107-7.002,35.1,8.197,47.689
	C1654.01,578.583,1684.392,563.39,1686.945,537.16L1686.945,537.16 M1527.656,424.767c3.114,2.244,29.501,14.217,45.567-8.969
	c17.5-25.284-3.591-54.716-25.923-55.775c-17.466-0.854-31.184,9.545-36.245,26.114
	C1508.135,395.707,1513.087,414.268,1527.656,424.767 M1357.606,525.482c-16.062,3.027-45.52,9.615-88.525,19.721
	c-9.812,2.363-16.47,5.521-19.959,9.555c-1.697,1.859-2.979,4.008-3.863,6.301c-1.18,3.078-1.656,5.588-1.396,7.369
	c0.938,7.297,5.623,19.311,14.144,36.09c3.808,7.502,10.869,21.422,11.764,22.326c7.248,7.354,16.911,9.629,28.941,6.992
	c11.666-2.643,48.651-13.582,110.867-32.949c1.188-0.299,5.737-1.814,13.828-4.369c61.049-19.73,93.133-30.26,96.184-31.566
	c9.221-3.939,13.328-8.965,12.365-15.23c-0.58,0.035-1.002-0.25-1.166-0.729l0,0l-43.756,11.188l0,0
	c-8.55,2.189-18.058,3.471-26.06,4.408c-1.03,0.121-6.505,0.342-11.548-2.723c-1.131-0.689-6.799-6.322-10.272-10.014
	c-0.386-0.406-13.277-15.225-11.956-21.406c0.896-4.566,4.806-6.771,5.018-6.812l0,0l67.229-14.156l0,0
	c2.251-0.498,9.279-6.732,3.947-11.297c-2.151-1.844-5.121-1.74-7.769-1.172l0,0l-70.896,15.289l0,0
	C1405.641,516.414,1380.011,521.251,1357.606,525.482L1357.606,525.482 M1386.091,500.541l47.056-10.787
	c2.694-0.51,5.274-1.51,7.972-2.02c4.087-0.771,8.062-2.035,12.146-2.811c0,0,9.204-1.74,9.27-1.752
	c7.718-1.457,22.893-15.334,6.729-13.646l-7.791,1.025c-4.793,0.641-20.346,2.127-34.491,3.414
	c-23.358,2.125-18.562,2.355-31.513,3.26c-3.352,0.234-8.45-5.945-15.87-14.588c-0.571-0.693-2.229-2.508-4.823-5.387
	c-15.549-17.256,3.463-20.205,18.079-22.188c12.769-1.732,25.554-3.352,38.326-5.025c5.321-0.697,13.437,0.904,16.896-4.742
	c3.014-4.906-0.558-9.477-5.456-11.162c-4.398-1.516-9.146,0.254-13.57,0.762c-8.071,0.928-16.229,0.838-24.313,1.777
	c-13.396,1.562-26.808,3.356-40.188,5.064l-7.296,0.938l-7.298,0.939c-6.857,0.928-28.788,3.527-65.791,7.805
	c-30.624,3.51-53.722,6.918-69.288,10.227c-7.614,1.586-12.946,3.613-15.866,5.998l-4.373,3.609
	c-3.533,2.916-4.985,7.547-4.324,12.027l1.056,7.129c2.69,18.232,11.927,34.641,24.574,47.895
	c6.576,6.896,17.825,11.363,26.51,11.561c2.898,0.061,5.776-0.359,8.623-0.896l7.073-1.336c1.335-0.252,7.168-1.627,10.744-2.469
	l21.958-5.17c4.674-1.105,9.362-2.15,14.069-3.102L1386.091,500.541 M1899.99,254.36c-2.465-1.986-8.279-6.85-17.542-14.552
	c-2.332-1.931-6.258-5.117-11.846-9.581c-1.942-1.545-3.954-3.116-5.937-4.755c-11.68-9.649-24.766-17.481-36.229-27.389
	c-2.654-2.291-16.394-9.834-41.123-22.667c-2.562-1.329-5.188-2.524-7.872-3.588l-20.885-9.834c-0.432-0.48-9.664-3.757-27.598-9.71
	c-11.017-3.672-25.146-7.496-42.416-11.406c-12.494-2.866-19.642-4.384-21.474-4.646l-64.062-11.706
	c-27.193-4.969-74.149-12.021-81.893-13.047c-70.181-9.299-125.812-17.692-188.037-28.981c-11.275-2.045-22.517-4.298-33.775-6.43
	c-23.108-4.375-65.294-12.359-69.412-12.667c-9.63-0.722-18.229,2.605-25.804,9.979c-1.644,1.596-6.612,6.905-14.823,15.885
	c-29.248,31.993-59.762,62.798-91.204,92.631c-28.234,26.786-54.752,55.312-82.609,82.484l-5.309,5.175l-5.308,5.176
	c-5.396,5.259-14.668,14.306-15.729,16.221c-1.467,2.642-3.452,6.22-2.264,8.63l1.331,2.697c1.246,2.524,3.67,4.422,6.552,4.381
	c2.26-0.034,4.036-0.025,5.134-0.054l5.106,0.011l9.347,0.067l82.479-1.513c13.19-0.243,40.297-0.255,60.443-0.264
	c46.6-0.021,93.19-0.624,139.779-1.475c9.521-0.174,21.634-0.248,36.246-0.182c12.22,0.056,96.765-0.205,145.146-0.353
	c49.4-0.151,77.438,0.051,83.992,0.714c4.691,0.475,9.426,1.368,13.516,3.812c0.413,0.249,0.921,0.292,1.339,0.532
	c7.514,4.297,14.775,10.587,21.688,18.75c19.578,23.133,38.605,46.722,57.274,70.593c21.522,27.529,42.247,55.676,63.604,83.332
	c3.365,4.355,9.146,11.838,10.5,12.762c3.813,2.604,7.149,6.158,12.136,5.721c5.543-0.492,10.976-4.701,15.142-8.062l9.219-7.031
	c6.898-4.695,24.429-18.426,25.429-19.576c2.332-2.947,3.518-5.348,3.576-7.26c0.22-3.088-3.469-8.199-5.634-11.375
	c-22.124-32.424-27.745-42.428-42.438-63.079c-16.513-23.205-25.009-35.175-25.584-35.868c-2.858-3.439-5.431-7.105-7.854-10.862
	c-2.02-3.128-4.369-6.774-3.037-10.501c1.405-3.934,5.918-6.327,13.63-7.217l7.553-0.877c17.429-2.022,34.971-2.748,52.438-4.292
	c37.25-3.291,74.37-7.889,111.335-13.534c13.109-2.002,20.553-3.387,22.354-4.221c2.855-1.345,4.791-2.901,5.775-4.602
	c0.758-1.326,1.104-2.196,1.062-2.678l-1.058-9.248l-5.623-7.499C1915.207,266.611,1906.563,259.651,1899.99,254.36"/>
</svg>
