<?xml version="1.0" encoding="utf-8"?>
<!-- Generator: Adobe Illustrator 16.0.0, SVG Export Plug-In . SVG Version: 6.00 Build 0)  -->
<!DOCTYPE svg PUBLIC "-//W3C//DTD SVG 1.1//EN" "http://www.w3.org/Graphics/SVG/1.1/DTD/svg11.dtd">
<svg version="1.1" id="Layer_1" xmlns="http://www.w3.org/2000/svg" xmlns:xlink="http://www.w3.org/1999/xlink" x="0px" y="0px"
	 width="1848.191px" height="754.914px" viewBox="0 0 1848.191 754.914" enable-background="new 0 0 1848.191 754.914"
	 xml:space="preserve">
<path fill="none" stroke="#000000" stroke-linejoin="round" stroke-miterlimit="10" d="M1502.505,316.023
	c-20.033-7.441-39.039-12.48-53.051-14.275c-29.926-3.832-78.213-2.954-117.342-2.243c-54.298,0.987-108.607,1.067-162.906,2.028
	c-28.354,0.502-42.851,0.713-43.491,0.634c-8.518-1.058-26.427-0.649-39.641-0.348c-26.331,0.601-52.657,4.325-78.979,2.1
	c-3.886-0.328-9.892-0.251-14.837-0.188c-9.89,0.127-19.79-2.088-29.654-0.795c-5.212,0.683-12.262-2.886-14.4-5.261
	c-8.801-9.771-17.992-19.182-26.882-28.874l0,0l-35.896-38.851l0,0c-25.396-27.894-51.87-54.78-78.562-81.432l0,0
	c-26.146-26.102-75.021-74.305-77.322-79.399c-1.727-3.817-2.509-7.299-2.354-10.448 M184.363,497.799
	c1.365-1.635,2.8-3.228,4.1-4.671c3.601-3.999,7.098-8.092,10.471-12.284c18.533-23.044,38.907-44.54,57.601-67.451
	c20.012-24.528,40.926-48.304,61.941-71.979c7.922-8.923,13.222-14.5,15.954-16.646c1.832-1.437,3.862-2.624,6.08-3.351
	c3.206-1.05,7.619-2.495,9.889-0.118l0,0l5.359,5.622l0,0c3.503,3.61,8.35,6.106,14.689,7.446l0,0l8.171,1.727l0,0
	c12.329,2.606,24.812,4.995,37.457,4.531c0.889-0.032,8.636,0.575,23.197,1.666c11.654,0.917,19.399,1.524,23.097,1.79
	c25.455,1.833,50.954,3.05,76.382,5.251l0,0l63.091,5.46l0,0c8.422,0.729,16.813,1.814,25.25,2.393l0,0l96.478,6.629l0,0
	c20.418,1.402,40.706,4.316,61.125,5.707c12.841,0.873,24.791,1.78,35.99,2.75c17.542,1.517,35,3.94,52.575,5.076l0,0l97.282,6.284
	l0,0c5.97,0.385,11.934,0.852,17.892,1.354l0,0l65.576,5.543l0,0c4.354,0.367,9.235,0.781,13.077,0.774
	c2.43-0.002,4.843,0.065,7.343,0.08c1.317,2.116,6.052,7.238,14.249,15.446c23.246,23.385,36.826,36.78,40.688,40.096
	 M180.199,488.99c1.479,0.38,2.567,0.445,3.083,0.205c1.324-0.621,3.285,0.305,4.215-1.07c1.287-1.898,2.988-3.467,4.903-4.721
	c1.355-0.893,7.244-8.312,10.67-12.627c21.722-27.375,42.809-55.248,64.694-82.493c18.979-23.625,38.315-46.962,58.195-69.837
	c7.015-8.072,14.36-14.266,21.93-18.465c0.421-0.234,0.929-0.271,1.347-0.514c4.117-2.391,8.863-3.223,13.562-3.635
	c6.562-0.578,34.601-0.414,83.995,0.387c48.375,0.781,132.909,2.15,145.129,2.254c14.61,0.127,26.723,0.359,36.237,0.656
	c46.572,1.461,93.156,2.676,139.75,3.309c20.146,0.271,47.248,0.639,60.438,1.053l82.449,2.596l9.346,0.055l5.106,0.055
	c1.097,0.045,2.873,0.059,5.134,0.121c2.881,0.08,5.328-1.787,6.606-4.293l1.362-2.68c1.224-2.395-0.717-5.998-2.146-8.66
	c-1.044-1.932-10.198-11.1-15.522-16.429l-5.235-5.245l-5.238-5.245c-27.5-27.533-53.641-56.406-81.521-83.559
	c-31.054-30.241-61.156-61.445-89.982-93.817c-8.094-9.088-12.995-14.461-14.614-16.078c-1.987-1.987-4.053-3.689-6.191-5.105
	 M1469.783,348.283c-5.188-12.911-11.073-26.718-13.038-29.241c-1.081-1.494-6.789-5.664-17.125-12.509
	c-3.841-2.566-5.865-3.89-6.012-3.897c-1.036-0.052-13.822,0.6-20.732,0.938c-32.548,1.596-65.123,2.515-97.694,3.396
	c-55.004,1.491-152.371,4.13-165.028,3.516c-0.357-0.018-15.8,0.241-46.246,0.853c-15.729,0.244-30.229,0.478-43.429,0.629
	c-42.872,0.492-92.979,1.068-128.617,0.888c-10.087-0.053-20.164-0.469-30.25-0.534c-61.817-0.404-123.625-2.105-185.447-2.021
	c-1.441,0.002-42.262-1.115-122.674-3.293c-1.294-0.062-8.504-0.053-21.619-0.112c-38.296-0.179-80.659-0.375-114.846-2.674l0,0
	l-77.168-5.192l-18.217-0.452l0,0c-2.943-0.215-4.868,0.845-5.917,3.101c-0.622,2.42-0.378,4.812,0.74,7.026
	c0.919,1.849,13.812,12.422,23.58,16.14c6.654,2.487,28.122,5.765,64.478,9.693c40.229,4.333,61.892,6.612,64.979,6.833
	c10.387,0.748,20.604,3.426,31.048,3.384c1.875-0.008,24.884,2.185,37.324,3.304l0,0l57.417,5.17l0,0
	c7.792,0.701,42.49,2.769,63.742,4.033l0,0l134.646,7.554l0,0c14.839,0.721,29.687,1.298,44.522,2.019
	c76.257,3.706,152.562,6.287,228.839,9.534c4.729,0.202,15.457,0.77,14.202-0.03c4.407,0.335,14.905,0.841,28.873,1.412
	 M1450.65,386.578c10.645,0.518,30.216,1.251,28.098-14.494c-0.116-0.835-1.931-5.826-4.487-12.448"/>
</svg>
