<?xml version="1.0" encoding="utf-8"?>
<!-- Generator: Adobe Illustrator 16.0.0, SVG Export Plug-In . SVG Version: 6.00 Build 0)  -->
<!DOCTYPE svg PUBLIC "-//W3C//DTD SVG 1.1//EN" "http://www.w3.org/Graphics/SVG/1.1/DTD/svg11.dtd">
<svg version="1.1" id="Layer_1" xmlns="http://www.w3.org/2000/svg" xmlns:xlink="http://www.w3.org/1999/xlink" x="0px" y="0px"
	 width="1848.191px" height="754.914px" viewBox="0 0 1848.191 754.914" enable-background="new 0 0 1848.191 754.914"
	 xml:space="preserve">
<path fill="none" stroke="#000001" stroke-linejoin="round" stroke-miterlimit="10" d="M238.517,520.463
	c-2.654-35.146,43.035-53.896,62.631-22.308c8.825,14.303,6.238,35.244-9.23,47.502
	C270.549,562.591,240.501,546.743,238.517,520.463L238.517,520.463z M400.204,411.55c-3.157,2.179-29.802,13.571-45.356-9.954
	c-16.949-25.66,4.771-54.625,27.12-55.201c12.95-0.354,24.649,6.609,25.979,8.36c4.229,5.604,7.782,11.75,9.695,18.534
	C420.352,382.917,414.999,401.368,400.204,411.55L400.204,411.55z M568.032,515.926c15.991,3.38,45.298,10.604,88.079,21.633
	c9.758,2.577,16.345,5.891,19.746,9.986c1.657,1.896,2.894,4.07,3.729,6.382c1.105,3.104,1.53,5.621,1.229,7.398
	c-1.099,7.271-6.041,19.181-14.92,35.771c-3.971,7.42-11.334,21.188-12.243,22.066c-7.407,7.189-17.117,9.26-29.088,6.361
	c-11.604-2.896-48.35-14.64-110.128-35.351c-1.188-0.316-5.697-1.938-13.731-4.669c-60.604-21.051-92.448-32.271-95.475-33.646
	c-9.135-4.144-13.132-9.251-12.032-15.495c0.579,0.049,1.005-0.229,1.185-0.707l0,0l43.502,12.138l0,0
	c8.5,2.372,17.979,3.857,25.957,4.979c1.024,0.144,6.491,0.479,11.604-2.479c1.146-0.661,6.938-6.174,10.485-9.784
	c0.396-0.396,13.604-14.935,12.417-21.146c-0.797-4.585-4.653-6.872-4.868-6.917l0,0l-66.902-15.612l0,0
	c-2.235-0.545-9.131-6.934-3.703-11.379c2.189-1.795,5.16-1.631,7.792-1.003l0,0l70.556,16.825l0,0
	C520.208,505.818,545.724,511.212,568.032,515.926L568.032,515.926z M540.096,490.373l-46.812-11.807l0,0
	c-2.687-0.567-5.237-1.623-7.927-2.19c-4.066-0.859-8.018-2.209-12.083-3.069l0,0l-9.229-1.942l0,0
	c-6.833-1.443-11.734-5.062-14.558-10.878l0,0l0.507-2.396l0,0c3.354-0.542,5.896-0.74,7.615-0.521l0,0l7.771,1.196l0,0
	c4.771,0.737,20.294,2.565,34.405,4.159c23.312,2.631,18.509,2.757,31.438,3.943c3.347,0.305,8.577-5.771,16.184-14.242
	c0.59-0.688,2.287-2.461,4.943-5.284l0,0l5.015-5.269l0,0c3.409-3.582,5.679-11.1-0.755-12.449c-3.168-0.67-6.033-2.418-9.245-2.911
	l0,0l-50.817-7.797l0,0c-0.688-0.104-9.266-0.988-13.896-1.469c-4.753-0.485-6.208-8.229-4.927-9.434l0,0l5.333-4.687l0,0
	c2.167-1.896,28.926,1.032,80.283,8.725l0,0l7.271,1.101l7.272,1.099l0,0c6.837,1.078,28.705,4.151,65.604,9.229
	c30.541,4.179,53.562,8.08,69.058,11.729c7.574,1.749,12.859,3.896,15.729,6.342l0,0l4.295,3.704l0,0
	c3.47,2.992,4.817,7.653,4.062,12.118l0,0l-1.207,7.104l0,0c-3.089,18.18-12.677,34.375-25.606,47.354
	c-6.728,6.747-18.062,10.973-26.752,10.978c-2.897,0.001-5.771-0.479-8.604-1.082l0,0l-7.047-1.482l0,0
	c-1.326-0.279-7.132-1.78-10.688-2.699l0,0l-21.843-5.646l0,0c-4.646-1.198-9.312-2.353-14-3.396l0,0L540.096,490.373
	L540.096,490.373z M71.598,259.324c3.718,0,6.73,3.014,6.73,6.732c0,3.718-3.014,6.732-6.73,6.732c-3.72,0-6.732-3.014-6.732-6.732
	C64.866,262.338,67.88,259.324,71.598,259.324z M128.168,259.324c3.72,0,6.732,3.014,6.732,6.732c0,3.718-3.014,6.732-6.732,6.732
	c-3.718,0-6.73-3.014-6.73-6.732C121.436,262.338,124.45,259.324,128.168,259.324z M128.168,207.325c3.72,0,6.732,3.014,6.732,6.732
	c0,3.718-3.014,6.732-6.732,6.732c-3.718,0-6.73-3.014-6.73-6.732C121.436,210.339,124.45,207.325,128.168,207.325z
	 M184.739,259.324c3.718,0,6.732,3.014,6.732,6.732c0,3.718-3.016,6.732-6.732,6.732s-6.732-3.014-6.732-6.732
	C178.007,262.338,181.021,259.324,184.739,259.324z M184.739,207.325c3.718,0,6.732,3.014,6.732,6.732
	c0,3.718-3.016,6.732-6.732,6.732s-6.732-3.014-6.732-6.732C178.007,210.339,181.021,207.325,184.739,207.325z M184.739,415.326
	c3.718,0,6.731,3.014,6.731,6.729c0,3.719-3.015,6.731-6.731,6.731s-6.731-3.014-6.731-6.731
	C178.008,418.34,181.021,415.326,184.739,415.326z M241.309,363.324c3.718,0,6.73,3.014,6.73,6.732c0,3.718-3.014,6.732-6.73,6.732
	c-3.72,0-6.732-3.014-6.732-6.732C234.577,366.338,237.591,363.324,241.309,363.324z M241.309,311.324
	c3.718,0,6.73,3.014,6.73,6.732c0,3.718-3.014,6.732-6.73,6.732c-3.72,0-6.732-3.014-6.732-6.732
	C234.577,314.338,237.591,311.324,241.309,311.324z M241.309,259.324c3.718,0,6.73,3.014,6.73,6.732c0,3.718-3.014,6.732-6.73,6.732
	c-3.72,0-6.732-3.014-6.732-6.732C234.577,262.338,237.591,259.324,241.309,259.324z M241.309,207.325
	c3.718,0,6.73,3.014,6.73,6.732c0,3.718-3.014,6.732-6.73,6.732c-3.72,0-6.732-3.014-6.732-6.732
	C234.577,210.339,237.591,207.325,241.309,207.325z M241.309,155.325c3.718,0,6.73,3.014,6.73,6.732c0,3.718-3.014,6.732-6.73,6.732
	c-3.72,0-6.732-3.014-6.732-6.732C234.577,158.339,237.591,155.325,241.309,155.325z M297.884,311.324
	c3.718,0,6.73,3.014,6.73,6.732c0,3.718-3.014,6.732-6.73,6.732c-3.72,0-6.732-3.014-6.732-6.732
	C291.15,314.338,294.164,311.324,297.884,311.324z M297.884,259.324c3.718,0,6.73,3.014,6.73,6.732c0,3.718-3.014,6.732-6.73,6.732
	c-3.72,0-6.732-3.014-6.732-6.732C291.15,262.338,294.164,259.324,297.884,259.324z M297.884,207.325c3.718,0,6.73,3.014,6.73,6.732
	c0,3.718-3.014,6.732-6.73,6.732c-3.72,0-6.732-3.014-6.732-6.732C291.15,210.339,294.164,207.325,297.884,207.325z
	 M297.884,155.325c3.718,0,6.73,3.014,6.73,6.732c0,3.718-3.014,6.732-6.73,6.732c-3.72,0-6.732-3.014-6.732-6.732
	C291.15,158.339,294.164,155.325,297.884,155.325z M354.45,259.324c3.72,0,6.732,3.014,6.732,6.732c0,3.718-3.014,6.732-6.732,6.732
	c-3.718,0-6.73-3.014-6.73-6.732C347.719,262.338,350.732,259.324,354.45,259.324z M354.45,207.325c3.72,0,6.732,3.014,6.732,6.732
	c0,3.718-3.014,6.732-6.732,6.732c-3.718,0-6.73-3.014-6.73-6.732C347.719,210.339,350.732,207.325,354.45,207.325z M354.45,155.325
	c3.72,0,6.732,3.014,6.732,6.732c0,3.718-3.014,6.732-6.732,6.732c-3.718,0-6.73-3.014-6.73-6.732
	C347.719,158.339,350.732,155.325,354.45,155.325z M411.02,272.788c-3.719,0-6.729-3.014-6.729-6.732
	c0-3.718,3.019-6.732,6.729-6.732c3.721,0,6.732,3.015,6.732,6.732C417.757,269.774,414.739,272.788,411.02,272.788z
	 M411.02,220.789c-3.719,0-6.729-3.014-6.729-6.732c0-3.718,3.019-6.732,6.729-6.732c3.721,0,6.732,3.014,6.732,6.732
	C417.757,217.775,414.739,220.789,411.02,220.789z M411.02,168.789c-3.719,0-6.729-3.014-6.729-6.732
	c0-3.718,3.019-6.732,6.729-6.732c3.721,0,6.732,3.014,6.732,6.732C417.757,165.775,414.739,168.789,411.02,168.789z
	 M467.594,259.324c3.718,0,6.73,3.014,6.73,6.732c0,3.718-3.014,6.732-6.73,6.732s-6.732-3.014-6.732-6.732
	C460.861,262.338,463.877,259.324,467.594,259.324z M467.594,207.325c3.718,0,6.73,3.014,6.73,6.732c0,3.718-3.014,6.732-6.73,6.732
	s-6.732-3.014-6.732-6.732C460.861,210.339,463.877,207.325,467.594,207.325z M467.594,155.325c3.718,0,6.73,3.014,6.73,6.732
	c0,3.718-3.014,6.732-6.73,6.732s-6.732-3.014-6.732-6.732C460.861,158.339,463.877,155.325,467.594,155.325z M524.161,259.324
	c3.72,0,6.732,3.014,6.732,6.732c0,3.718-3.014,6.732-6.732,6.732c-3.718,0-6.73-3.014-6.73-6.732
	C517.429,262.338,520.443,259.324,524.161,259.324z M524.161,207.325c3.72,0,6.732,3.014,6.732,6.732
	c0,3.718-3.014,6.732-6.732,6.732c-3.718,0-6.73-3.014-6.73-6.732C517.429,210.339,520.443,207.325,524.161,207.325z
	 M524.161,155.325c3.72,0,6.732,3.014,6.732,6.732c0,3.718-3.014,6.732-6.732,6.732c-3.718,0-6.73-3.014-6.73-6.732
	C517.429,158.339,520.443,155.325,524.161,155.325z M524.161,103.325c3.72,0,6.732,3.014,6.732,6.732
	c0,3.718-3.014,6.732-6.732,6.732c-3.718,0-6.73-3.014-6.73-6.732C517.429,106.339,520.443,103.325,524.161,103.325z
	 M580.731,272.788c-3.722,0-6.732-3.014-6.732-6.732c0-3.718,3.019-6.732,6.732-6.732s6.729,3.015,6.729,6.732
	C587.468,269.774,584.45,272.788,580.731,272.788z M580.731,220.789c-3.722,0-6.732-3.014-6.732-6.732
	c0-3.718,3.019-6.732,6.732-6.732s6.729,3.014,6.729,6.732C587.468,217.775,584.45,220.789,580.731,220.789z M580.731,168.789
	c-3.722,0-6.732-3.014-6.732-6.732c0-3.718,3.019-6.732,6.732-6.732s6.729,3.014,6.729,6.732
	C587.468,165.775,584.45,168.789,580.731,168.789z M580.731,116.789c-3.722,0-6.732-3.014-6.732-6.732
	c0-3.718,3.019-6.732,6.732-6.732s6.729,3.014,6.729,6.732C587.468,113.775,584.45,116.789,580.731,116.789z M637.302,259.324
	c3.718,0,6.73,3.014,6.73,6.732c0,3.718-3.014,6.732-6.73,6.732c-3.718,0-6.732-3.014-6.732-6.732
	C630.57,262.338,633.586,259.324,637.302,259.324z M637.302,207.325c3.718,0,6.73,3.014,6.73,6.732c0,3.718-3.014,6.732-6.73,6.732
	c-3.718,0-6.732-3.014-6.732-6.732C630.57,210.339,633.586,207.325,637.302,207.325z M637.302,155.325
	c3.718,0,6.73,3.014,6.73,6.732c0,3.718-3.014,6.732-6.73,6.732c-3.718,0-6.732-3.014-6.732-6.732
	C630.57,158.339,633.586,155.325,637.302,155.325z M637.302,103.325c3.718,0,6.73,3.014,6.73,6.732c0,3.718-3.014,6.732-6.73,6.732
	c-3.718,0-6.732-3.014-6.732-6.732C630.57,106.339,633.586,103.325,637.302,103.325z M693.872,259.324
	c3.72,0,6.732,3.014,6.732,6.732c0,3.718-3.014,6.732-6.732,6.732c-3.718,0-6.73-3.014-6.73-6.732
	C687.14,262.338,690.154,259.324,693.872,259.324z M693.872,207.325c3.72,0,6.732,3.014,6.732,6.732
	c0,3.718-3.014,6.732-6.732,6.732c-3.718,0-6.73-3.014-6.73-6.732C687.14,210.339,690.154,207.325,693.872,207.325z
	 M693.872,155.325c3.72,0,6.732,3.014,6.732,6.732c0,3.718-3.014,6.732-6.732,6.732c-3.718,0-6.73-3.014-6.73-6.732
	C687.14,158.339,690.154,155.325,693.872,155.325z M693.872,103.325c3.72,0,6.732,3.014,6.732,6.732
	c0,3.718-3.014,6.732-6.732,6.732c-3.718,0-6.73-3.014-6.73-6.732C687.14,106.339,690.154,103.325,693.872,103.325z
	 M750.442,272.788c-3.722,0-6.729-3.014-6.729-6.732c0-3.718,3.014-6.732,6.729-6.732s6.729,3.015,6.729,6.732
	C757.177,269.774,754.161,272.788,750.442,272.788z M750.442,220.789c-3.722,0-6.729-3.014-6.729-6.732
	c0-3.718,3.014-6.732,6.729-6.732s6.729,3.014,6.729,6.732C757.177,217.775,754.161,220.789,750.442,220.789z M750.442,168.789
	c-3.722,0-6.729-3.014-6.729-6.732c0-3.718,3.014-6.732,6.729-6.732s6.729,3.014,6.729,6.732
	C757.177,165.775,754.161,168.789,750.442,168.789z M807.012,272.788c-3.719,0-6.729-3.014-6.729-6.732
	c0-3.718,3.019-6.732,6.729-6.732c3.721,0,6.729,3.015,6.729,6.732C813.745,269.774,810.731,272.788,807.012,272.788z
	 M807.012,220.789c-3.719,0-6.729-3.014-6.729-6.732c0-3.718,3.019-6.732,6.729-6.732c3.721,0,6.729,3.014,6.729,6.732
	C813.744,217.775,810.731,220.789,807.012,220.789z M863.583,259.324c3.72,0,6.732,3.014,6.732,6.732
	c0,3.718-3.014,6.732-6.732,6.732c-3.718,0-6.73-3.014-6.73-6.732C856.851,262.338,859.865,259.324,863.583,259.324z
	 M1502.51,316.025c-18.089,0-32.729,14.427-32.729,32.256l0.001,0.001c1.604,3.99,3.146,7.895,4.479,11.354h-0.003
	c3.956,4.897,14.209,8.381,26.25,8.381l-0.001-0.008c0.794-0.061,1.597-0.091,2.4-0.091c17.226,0,31.186,13.96,31.186,31.182
	c0,17.225-13.96,31.186-31.186,31.186c-15.662,0-28.63-11.555-30.847-26.602l0.003,0.002c0-9.479-9.996-17.147-22.349-17.147
	l0.002,0.001c-56.929-2.751-113.911-3.989-170.896-4.917c-37.297-0.604-93.823-2.438-128.712-3.867
	c-11.469,0-20.749,30.938-20.749,69.176c-5.697,1.894-12.993,4.028-21.872,6.349c-5.225,1.396-10.141,2.716-14.771,4.092
	c-21.646,6.312-33.871,9.841-36.679,10.566c-0.826,0.222-8.948,2.854-13.421,4.308c-26.229,8.512-47.013,17.364-62.364,26.631
	c-27.119,16.371-50.608,37.948-70.536,62.51c-3.645,4.486-7.021,9.172-10.562,13.738c-9.104,11.763-17.169,24.479-24.233,38.075
	c-3.453,6.646-7.141,13.171-10.521,19.853l0,0l-31.185,61.55l0,0c-3.447,6.812-6.261,13.915-9.812,20.666
	c-11.68,22.188-17.589,33.444-17.775,33.628c-5.681,6.681-13.568,7.81-23.677,3.392c-0.479-0.173-1.011-0.438-1.485-0.608
	c-21.719-7.928-43.665-15.218-65.229-23.568l0,0l-53.059-20.562l0,0c-14.284-5.536-28.696-10.745-43.184-15.749
	c-5.981-2.066-21.338-7.706-31.981-11.617l0,0L539.35,662.67l0,0c-11.742-4.325-20.846-7.574-27.271-9.887
	c-42.51-15.091-65.184-23.415-68.089-24.986c-4.444-2.407-63.14-23.314-94.812-34.686c-30.556-10.972-61.716-22.761-91.321-33.801
	c-1.149-0.432-13.27-4.791-36.119-13.303c-32.544-12.104-46.85-25.207-42.996-39.259c0.729-2.648,3.054-5.873,5.623-8.949
	c0.001-4.868-1.861-8.81-4.165-8.809c-3.58-0.917-9.449-3.663-15.035-8.293l-9.126-7.152c-6.837-4.789-24.186-18.744-25.17-19.91
	c-2.292-2.979-3.443-5.391-3.479-7.303c-0.182-3.092,3.572-8.155,5.779-11.301c22.551-32.134,28.302-42.062,43.268-62.521
	c16.812-22.985,25.466-34.841,26.052-35.529c2.902-3.4,5.52-7.032,7.994-10.758c2.058-3.1,4.457-6.717,3.174-10.459
	c-1.354-3.953-5.834-6.403-13.534-7.396l-7.54-0.976c-17.396-2.251-34.93-3.208-52.378-4.979
	c-37.203-3.779-74.259-8.865-111.146-14.994c-13.083-2.172-20.511-3.655-22.302-4.512c-2.84-1.383-4.754-2.965-5.716-4.678
	c-0.74-1.336-1.074-2.211-1.024-2.691l1.18-9.234l5.72-7.424c3.602-4.67,12.333-11.515,18.976-16.72
	c2.488-1.953,8.371-6.739,17.729-14.32c2.355-1.902,6.325-5.034,11.97-9.424c1.967-1.52,3.994-3.065,5.999-4.678
	c11.803-9.494,24.987-17.155,36.585-26.911c2.688-2.256,16.521-9.618,41.417-22.126c2.578-1.295,5.227-2.455,7.919-3.484
	l21.016-9.562c0.436-0.474,9.712-3.629,27.721-9.347c11.062-3.528,25.24-7.167,42.562-10.849
	c12.529-2.703,19.692-4.126,21.528-4.365l64.213-10.866c27.258-4.613,74.302-11.05,82.055-11.973
	C476.9,95.877,532.64,88.212,595.006,77.741c11.3-1.898,22.564-4.004,33.854-5.988c23.164-4.07,65.449-11.502,69.572-11.756
	c7.074-0.438,13.563,1.299,19.479,5.21l0.001,0.002c5.135,0,9.288-2.924,9.288-6.538h-0.002c0.172-3.486,1.493-6.565,3.956-9.242
	c2.137-2.298,10.76-6.938,25.932-13.879c20.218-9.25,40.302-18.783,60.269-28.562c8.084-3.961,12.533-6.101,13.271-6.302
	c8.745-2.223,16.495,0.945,23.271,9.607l0,0l4.773,6.206l0,0c6.446,8.378,13.171,16.546,19.514,25.006l0,0l4.396,5.868l0,0
	c9.695,14.15,3.85,17.869-9.847,23.631c-3.532,1.485-9.13,3.84-10.143,5.359l0,0l-0.236,0.36l-14.95,8.559l0,0
	c-1.217,0.66-11.933,10.135-12.49,10.974c-0.561,0.839-1.577,3.016-2.892,6.552c-1.717,4.654-2.812,9.288-3.229,13.941
	c-3.604,38.423,36.961,72.858,67.959,79.303c29.76,6.229,45.255-17.968,46.191-19.506c1.75-2.873,3.301-5.868,5.165-8.671l0,0
	l3.33-5.913l0,0c0.347-1.344,2.455-0.802,3.032-1.959c0.485-0.976,5.445-1.644,8.268-2.022c3.137-0.422,8.788,2.647,9.89,4.245l0,0
	l4.479,7.045l0,0c7.438,11.438,13.136,17.823,17.329,19.058c4.521,1.332,9.473,2.788,13.543,4.083
	c9.706,3.088,19.312,5.417,28.854,6.927c36.859,5.831,73.854,10.771,110.742,16.446c16.396,2.523,25.98,3.973,28.658,4.37
	c54.481,8.088,144.52,21.451,163.522,23.812c30.991,3.849,61.771,9.252,92.771,13.046c17.993,2.201,33.271,4.326,45.771,6.333
	c88.479,14.201,253.939,35.981,265.271,43.52c10.381,6.908,25.718-0.153,35.255,8.499l0,0l69.021,62.628l0,0
	c2.317,2.104-7.572,1.761-11.464,1.626c-6.168-0.219-28.433,2.18-66.688,7.16c-16.487,2.146-32.91,4.799-49.42,6.812
	c-10.188,1.241-20.271,3.188-30.407,4.76c-17.071,2.649-27.312,4.14-30.709,4.562c-4.539,0.562-10.892,1.353-13.681,0.146
	c-0.737-0.315-4.298-3.553-10.569-9.719c-5.146-5.052-10.438-10.006-16.507-13.926c-25.896-16.713-48.488-30.453-67.688-41.241
	C1535.355,329.53,1518.601,322.003,1502.51,316.025L1502.51,316.025L1502.51,316.025z"/>
</svg>
