<?xml version="1.0" encoding="utf-8"?>
<!-- Generator: Adobe Illustrator 16.0.0, SVG Export Plug-In . SVG Version: 6.00 Build 0)  -->
<!DOCTYPE svg PUBLIC "-//W3C//DTD SVG 1.1//EN" "http://www.w3.org/Graphics/SVG/1.1/DTD/svg11.dtd">
<svg version="1.1" id="Layer_1" xmlns="http://www.w3.org/2000/svg" xmlns:xlink="http://www.w3.org/1999/xlink" x="0px" y="0px"
	 width="1848.191px" height="754.914px" viewBox="0 0 1848.191 754.914" enable-background="new 0 0 1848.191 754.914"
	 xml:space="preserve">
<path fill="none" stroke="#000000" stroke-linejoin="round" stroke-miterlimit="10" d="M806.863,148.518
	c26.691,26.652,53.165,53.538,78.562,81.432l0,0l35.896,38.851l0,0c8.889,9.692,18.081,19.102,26.882,28.874
	c2.139,2.375,9.189,5.944,14.4,5.261c9.864-1.293,19.766,0.922,29.654,0.795c4.946-0.063,10.951-0.14,14.837,0.188
	c26.321,2.225,52.648-1.499,78.979-2.1c13.214-0.301,31.123-0.71,39.64,0.348c0.642,0.079,15.137-0.132,43.492-0.634
	c54.298-0.961,108.608-1.041,162.906-2.028c39.129-0.711,87.416-1.589,117.342,2.243c25.264,3.236,66.771,17.021,101.253,36.423
	c19.199,10.788,41.795,24.528,67.688,41.241c6.07,3.92,11.362,8.874,16.507,13.926c6.272,6.166,9.832,9.398,10.57,9.717
	c2.788,1.203,9.141,0.413,13.68-0.147c3.395-0.423,13.638-1.908,30.709-4.56c10.139-1.572,20.223-3.517,30.407-4.758
	c16.51-2.014,32.933-4.662,49.42-6.811c38.258-4.982,60.521-7.377,66.689-7.162c3.888,0.135,13.782,0.479,11.461-1.626l0,0
	l-69.021-62.628l0,0c-9.537-8.652-24.874-1.591-35.255-8.499c-11.327-7.539-176.793-29.319-265.268-43.521
	c-12.502-2.007-27.778-4.132-45.771-6.333c-30.998-3.794-61.776-9.197-92.769-13.046c-19.007-2.361-109.041-15.724-163.526-23.812
	c-2.677-0.397-12.264-1.847-28.658-4.37c-36.888-5.675-73.883-10.615-110.742-16.446c-9.547-1.51-19.153-3.839-28.859-6.927
	c-4.07-1.295-9.021-2.751-13.543-4.083c-4.193-1.235-9.892-7.62-17.329-19.058l0,0l-4.479-7.045l0,0
	c-1.102-1.597-6.753-4.667-9.89-4.245c-2.817,0.379-7.777,1.047-8.266,2.023c-0.578,1.157-2.688,0.615-3.034,1.959l0,0l-3.33,5.913
	l0,0c-1.864,2.803-3.415,5.798-5.165,8.671c-0.938,1.538-16.435,25.734-46.191,19.506c-30.998-6.445-71.562-40.88-67.959-79.303
	c0.416-4.653,1.51-9.287,3.226-13.941c1.314-3.536,2.331-5.713,2.892-6.552c0.559-0.839,11.273-10.314,12.49-10.974l0,0l14.95-8.559
	l0.238-0.36l0,0c1.011-1.519,6.608-3.874,10.141-5.359c13.693-5.762,19.542-9.481,9.847-23.631l0,0l-4.396-5.868l0,0
	c-6.341-8.46-13.062-16.628-19.51-25.006l0,0l-4.777-6.206l0,0c-6.775-8.662-14.525-11.83-23.271-9.607
	c-0.738,0.201-5.189,2.341-13.273,6.302c-19.965,9.78-40.049,19.312-60.265,28.562c-15.171,6.941-23.794,11.581-25.931,13.879
	c-4.688,5.095-5.24,11.646-1.603,19.69C731.843,74.213,780.718,122.416,806.863,148.518L806.863,148.518 M1054.009,390.529
	l-65.575-5.543l0,0c-5.959-0.504-11.923-0.969-17.892-1.354l0,0l-97.283-6.284l0,0c-17.575-1.136-35.033-3.56-52.575-5.077
	c-11.199-0.969-23.149-1.876-35.99-2.75c-20.419-1.39-40.707-4.304-61.125-5.707l0,0l-96.478-6.628l0,0
	c-8.436-0.579-16.828-1.664-25.25-2.393l0,0l-63.091-5.46l0,0c-25.427-2.201-50.926-3.418-76.381-5.251
	c-3.697-0.266-11.442-0.873-23.097-1.79c-14.562-1.091-22.31-1.698-23.197-1.666c-12.646,0.464-25.128-1.925-37.457-4.531l0,0
	l-8.171-1.727l0,0c-6.34-1.34-11.188-3.836-14.69-7.446l0,0l-5.358-5.622l0,0c-2.271-2.377-6.684-0.932-9.89,0.118
	c-2.218,0.727-4.248,1.914-6.08,3.351c-2.731,2.145-8.031,7.722-15.954,16.645c-21.015,23.675-41.929,47.449-61.94,71.979
	c-18.693,22.911-39.067,44.407-57.601,67.451c-3.373,4.192-6.87,8.285-10.47,12.284c-3.745,4.158-8.609,9.562-9.723,13.62
	c-3.852,14.052,10.452,27.155,42.996,39.259c22.854,8.51,34.97,12.871,36.119,13.301c29.61,11.041,60.77,22.83,91.321,33.798
	c31.673,11.37,90.366,32.278,94.813,34.686c2.905,1.571,25.579,9.896,68.089,24.986c6.428,2.312,15.529,5.562,27.271,9.887l0,0
	l47.666,17.506l0,0c10.648,3.911,26,9.549,31.985,11.617c14.483,5.004,28.896,10.213,43.18,15.749l0,0l53.059,20.56l0,0
	c21.559,8.354,43.509,15.645,65.224,23.572c0.479,0.174,1.011,0.436,1.49,0.608c10.104,4.418,17.996,3.289,23.675-3.389
	c0.188-0.182,6.098-11.438,17.777-33.626c3.554-6.751,6.364-13.859,9.812-20.666l0,0l31.188-61.554l0,0
	c3.385-6.682,7.067-13.207,10.521-19.853c7.068-13.595,15.128-26.312,24.237-38.075c3.536-4.566,6.917-9.252,10.557-13.738
	c19.928-24.562,43.417-46.139,70.538-62.51c15.354-9.266,36.138-18.119,62.367-26.631c4.468-1.449,12.591-4.087,13.42-4.305
	c2.804-0.729,15.028-4.255,36.675-10.569c4.632-1.376,9.548-2.692,14.772-4.092c8.879-2.315,16.175-4.455,21.872-6.344
	c-3.861-3.315-17.441-16.711-40.688-40.096c-8.197-8.208-12.931-13.33-14.249-15.446c-2.5-0.015-4.913-0.082-7.343-0.08
	C1063.245,391.311,1058.362,390.896,1054.009,390.529L1054.009,390.529 M238.517,520.463c-2.654-35.146,43.035-53.896,62.631-22.308
	c8.824,14.303,6.237,35.244-9.23,47.502C270.549,562.591,240.501,546.743,238.517,520.463L238.517,520.463 M400.204,411.55
	c-3.162,2.179-29.802,13.571-45.361-9.955c-16.949-25.659,4.774-54.625,27.12-55.2c12.953-0.354,24.654,6.609,25.979,8.36
	c4.229,5.603,7.782,11.75,9.695,18.534C420.352,382.917,414.999,401.368,400.204,411.55L400.204,411.55 M568.032,515.926
	c15.991,3.38,45.298,10.604,88.079,21.633c9.758,2.577,16.345,5.886,19.746,9.986c1.657,1.896,2.894,4.07,3.729,6.382
	c1.11,3.104,1.535,5.621,1.232,7.398c-1.099,7.271-6.041,19.181-14.92,35.772c-3.971,7.42-11.334,21.184-12.243,22.066
	c-7.407,7.191-17.117,9.26-29.088,6.361c-11.604-2.896-48.35-14.635-110.128-35.346c-1.186-0.321-5.697-1.938-13.731-4.669
	c-60.605-21.051-92.453-32.271-95.475-33.646c-9.136-4.139-13.133-9.251-12.032-15.495c0.579,0.049,1.005-0.229,1.18-0.707l0,0
	l43.502,12.138l0,0c8.5,2.372,17.979,3.857,25.957,4.974c1.029,0.144,6.495,0.48,11.604-2.475c1.145-0.661,6.933-6.174,10.485-9.784
	c0.396-0.398,13.606-14.935,12.417-21.146c-0.797-4.585-4.653-6.872-4.868-6.917l0,0l-66.902-15.612l0,0
	c-2.239-0.545-9.131-6.934-3.703-11.379c2.189-1.795,5.16-1.631,7.792-1.003l0,0l70.551,16.825l0,0
	C520.208,505.818,545.724,511.212,568.032,515.926L568.032,515.926 M540.096,490.373l-46.81-11.807l0,0
	c-2.687-0.567-5.242-1.623-7.927-2.19c-4.067-0.859-8.018-2.209-12.083-3.069l0,0l-9.229-1.947l0,0
	c-6.833-1.443-11.734-5.059-14.553-10.879l0,0l0.506-2.396l0,0c3.352-0.542,5.896-0.74,7.616-0.522l0,0l7.768,1.199l0,0
	c4.776,0.737,20.294,2.565,34.409,4.159c23.311,2.631,18.505,2.757,31.436,3.943c3.347,0.305,8.577-5.771,16.184-14.242
	c0.587-0.688,2.287-2.461,4.943-5.284l0,0l5.015-5.269l0,0c3.409-3.582,5.674-11.095-0.755-12.449
	c-3.168-0.67-6.033-2.418-9.245-2.911l0,0l-50.822-7.797l0,0c-0.688-0.105-9.261-0.988-13.894-1.465
	c-4.753-0.489-6.208-8.229-4.927-9.434l0,0l5.333-4.686l0,0c2.167-1.897,28.926,1.033,80.283,8.725l0,0l7.274,1.098l7.272,1.097l0,0
	c6.837,1.078,28.705,4.153,65.605,9.229c30.541,4.176,53.559,8.082,69.053,11.728c7.578,1.749,12.864,3.896,15.732,6.342l0,0
	l4.295,3.704l0,0c3.469,2.992,4.817,7.653,4.062,12.118l0,0l-1.207,7.104l0,0c-3.088,18.176-12.676,34.375-25.606,47.354
	c-6.728,6.747-18.067,10.973-26.752,10.978c-2.901,0.001-5.771-0.48-8.604-1.082l0,0l-7.045-1.487l0,0
	c-1.328-0.279-7.13-1.78-10.688-2.699l0,0l-21.843-5.647l0,0c-4.646-1.201-9.312-2.35-14-3.396l0,0L540.096,490.373L540.096,490.373
	 M457.024,304.222l-77.168-5.192l-18.218-0.452l0,0c-2.942-0.215-4.868,0.845-5.917,3.101c-0.622,2.42-0.378,4.812,0.74,7.026
	c0.919,1.849,13.813,12.422,23.58,16.14c6.655,2.487,28.122,5.764,64.478,9.693c40.229,4.333,61.891,6.612,64.979,6.833
	c10.387,0.748,20.604,3.426,31.048,3.384c1.875-0.008,24.884,2.184,37.324,3.304l0,0l57.417,5.169l0,0
	c7.792,0.702,42.491,2.769,63.743,4.034l0,0l134.646,7.553l0,0c14.839,0.721,29.687,1.298,44.523,2.019
	c76.256,3.706,152.561,6.287,228.838,9.534c4.73,0.202,15.457,0.77,14.203-0.03c15.413,1.173,105.354,4.428,157.585,5.279
	c57.294,0.933,114.589,2.18,171.823,4.961c10.646,0.518,30.216,1.251,28.099-14.494c-0.374-2.684-18.271-48.247-22.003-53.042
	c-1.081-1.494-6.789-5.664-17.125-12.509c-3.841-2.566-5.866-3.89-6.012-3.897c-1.036-0.052-13.822,0.6-20.732,0.938
	c-32.548,1.596-65.123,2.515-97.695,3.398c-55.004,1.491-152.371,4.13-165.028,3.515c-0.358-0.017-15.8,0.241-46.246,0.853
	c-15.729,0.244-30.229,0.477-43.429,0.629c-42.872,0.492-92.979,1.068-128.618,0.887c-10.086-0.052-20.163-0.468-30.249-0.534
	c-61.818-0.404-123.625-2.105-185.448-2.02c-1.441,0.002-42.261-1.116-122.673-3.293c-1.294-0.062-8.504-0.053-21.62-0.113
	C533.574,306.718,491.21,306.521,457.024,304.222L457.024,304.222 M920.684,274.257l-5.235-5.245l-5.238-5.245
	c-27.5-27.533-53.641-56.406-81.521-83.559c-31.054-30.241-61.156-61.445-89.982-93.817c-8.094-9.088-12.996-14.461-14.615-16.078
	c-7.475-7.474-16.031-10.912-25.67-10.316c-4.123,0.254-46.408,7.686-69.572,11.756c-11.289,1.984-22.557,4.09-33.856,5.988
	c-62.365,10.471-118.107,18.136-188.401,26.515c-7.753,0.923-54.796,7.36-82.053,11.973l-64.21,10.866
	c-1.836,0.239-8.999,1.662-21.531,4.365c-17.322,3.682-31.5,7.321-42.562,10.849c-18.009,5.718-27.285,8.873-27.721,9.347
	l-21.012,9.562c-2.696,1.029-5.34,2.189-7.918,3.484c-24.897,12.508-38.733,19.87-41.417,22.126
	c-11.598,9.756-24.785,17.417-36.585,26.911c-2.005,1.613-4.035,3.158-5.999,4.678c-5.645,4.39-9.613,7.522-11.97,9.424
	c-9.36,7.581-15.241,12.367-17.732,14.32c-6.64,5.205-15.374,12.05-18.973,16.72l-5.72,7.424l-1.178,9.234
	c-0.047,0.48,0.287,1.355,1.027,2.691c0.962,1.713,2.876,3.295,5.716,4.678c1.791,0.857,9.216,2.34,22.299,4.512
	c36.889,6.129,73.945,11.215,111.148,14.994c17.448,1.771,34.979,2.727,52.378,4.979l7.54,0.975
	c7.7,0.992,12.181,3.443,13.534,7.396c1.283,3.742-1.116,7.359-3.174,10.459c-2.474,3.725-5.09,7.357-7.994,10.758
	c-0.586,0.688-9.238,12.543-26.052,35.529c-14.964,20.459-20.715,30.391-43.263,62.521c-2.207,3.146-5.961,8.209-5.782,11.301
	c0.037,1.912,1.188,4.324,3.48,7.303c0.984,1.166,18.333,15.121,25.17,19.91l9.126,7.152c7.893,6.543,16.353,9.324,18.118,8.498
	c1.324-0.621,3.285,0.305,4.215-1.07c1.287-1.898,2.988-3.467,4.903-4.721c1.356-0.892,7.244-8.312,10.67-12.627
	c21.722-27.375,42.809-55.248,64.694-82.493c18.979-23.625,38.316-46.962,58.195-69.837c7.015-8.072,14.361-14.266,21.93-18.465
	c0.421-0.234,0.93-0.271,1.348-0.514c4.117-2.391,8.862-3.223,13.562-3.635c6.562-0.578,34.601-0.414,83.995,0.387
	c48.375,0.781,132.91,2.15,145.129,2.254c14.611,0.127,26.723,0.359,36.238,0.656c46.572,1.461,93.156,2.676,139.75,3.309
	c20.146,0.271,47.248,0.639,60.438,1.053l82.449,2.596l9.346,0.055l5.107,0.055c1.096,0.045,2.873,0.059,5.133,0.121
	c2.881,0.08,5.328-1.787,6.607-4.293l1.362-2.68c1.224-2.395-0.717-5.998-2.146-8.66
	C935.163,288.754,926.008,279.586,920.684,274.257z M71.598,272.788c-3.719,0-6.732-3.014-6.732-6.732
	c0-3.718,3.014-6.732,6.732-6.732c3.718,0,6.732,3.015,6.732,6.732C78.331,269.774,75.317,272.788,71.598,272.788z M128.168,272.788
	c-3.719,0-6.732-3.014-6.732-6.732c0-3.718,3.014-6.732,6.732-6.732c3.718,0,6.732,3.015,6.732,6.732
	C134.901,269.774,131.887,272.788,128.168,272.788z M128.168,220.789c-3.719,0-6.732-3.014-6.732-6.732
	c0-3.718,3.014-6.732,6.732-6.732c3.718,0,6.732,3.014,6.732,6.732C134.9,217.775,131.887,220.789,128.168,220.789z
	 M184.739,272.788c-3.719,0-6.732-3.014-6.732-6.732c0-3.718,3.014-6.732,6.732-6.732c3.718,0,6.732,3.015,6.732,6.732
	C191.471,269.774,188.458,272.788,184.739,272.788z M184.739,220.789c-3.719,0-6.732-3.014-6.732-6.732
	c0-3.718,3.014-6.732,6.732-6.732c3.718,0,6.732,3.014,6.732,6.732C191.471,217.775,188.458,220.789,184.739,220.789z
	 M184.739,428.788c-3.719,0-6.732-3.014-6.732-6.732c0-3.717,3.014-6.729,6.732-6.729c3.718,0,6.732,3.016,6.732,6.729
	C191.471,425.774,188.458,428.788,184.739,428.788z M241.309,376.788c-3.719,0-6.732-3.014-6.732-6.732
	c0-3.717,3.014-6.732,6.732-6.732c3.718,0,6.732,3.016,6.732,6.732C248.042,373.774,245.028,376.788,241.309,376.788z
	 M241.309,324.788c-3.719,0-6.732-3.014-6.732-6.732c0-3.717,3.014-6.732,6.732-6.732c3.718,0,6.732,3.016,6.732,6.732
	C248.042,321.774,245.028,324.788,241.309,324.788z M241.309,272.788c-3.719,0-6.732-3.014-6.732-6.732
	c0-3.718,3.014-6.732,6.732-6.732c3.718,0,6.732,3.015,6.732,6.732C248.042,269.774,245.028,272.788,241.309,272.788z
	 M241.309,220.789c-3.719,0-6.732-3.014-6.732-6.732c0-3.718,3.014-6.732,6.732-6.732c3.718,0,6.732,3.014,6.732,6.732
	C248.041,217.775,245.028,220.789,241.309,220.789z M241.309,168.789c-3.719,0-6.732-3.014-6.732-6.732
	c0-3.718,3.014-6.732,6.732-6.732c3.718,0,6.732,3.014,6.732,6.732C248.041,165.775,245.028,168.789,241.309,168.789z
	 M297.879,324.788c-3.719,0-6.732-3.014-6.732-6.732c0-3.717,3.014-6.732,6.732-6.732s6.732,3.016,6.732,6.732
	C304.612,321.774,301.598,324.788,297.879,324.788z M297.879,272.788c-3.719,0-6.732-3.014-6.732-6.732
	c0-3.718,3.014-6.732,6.732-6.732s6.732,3.015,6.732,6.732C304.612,269.774,301.598,272.788,297.879,272.788z M297.879,220.789
	c-3.719,0-6.732-3.014-6.732-6.732c0-3.718,3.014-6.732,6.732-6.732s6.732,3.014,6.732,6.732
	C304.611,217.775,301.598,220.789,297.879,220.789z M297.879,168.789c-3.719,0-6.732-3.014-6.732-6.732
	c0-3.718,3.014-6.732,6.732-6.732s6.732,3.014,6.732,6.732C304.611,165.775,301.598,168.789,297.879,168.789z M354.45,272.788
	c-3.719,0-6.732-3.014-6.732-6.732c0-3.718,3.017-6.732,6.732-6.732s6.729,3.015,6.729,6.732
	C361.182,269.774,358.168,272.788,354.45,272.788z M354.45,220.789c-3.719,0-6.732-3.014-6.732-6.732
	c0-3.718,3.017-6.732,6.732-6.732s6.729,3.014,6.729,6.732C361.182,217.775,358.168,220.789,354.45,220.789z M354.45,168.789
	c-3.719,0-6.732-3.014-6.732-6.732c0-3.718,3.017-6.732,6.732-6.732s6.729,3.014,6.729,6.732
	C361.182,165.775,358.168,168.789,354.45,168.789z M411.02,272.788c-3.719,0-6.729-3.014-6.729-6.732
	c0-3.718,3.014-6.732,6.729-6.732c3.721,0,6.732,3.015,6.732,6.732C417.752,269.774,414.739,272.788,411.02,272.788z
	 M411.02,220.789c-3.719,0-6.729-3.014-6.729-6.732c0-3.718,3.014-6.732,6.729-6.732c3.721,0,6.732,3.014,6.732,6.732
	C417.752,217.775,414.739,220.789,411.02,220.789z M411.02,168.789c-3.719,0-6.729-3.014-6.729-6.732
	c0-3.718,3.014-6.732,6.729-6.732c3.721,0,6.732,3.014,6.732,6.732C417.752,165.775,414.739,168.789,411.02,168.789z
	 M467.59,272.788c-3.719,0-6.729-3.014-6.729-6.732c0-3.718,3.014-6.732,6.729-6.732s6.732,3.015,6.732,6.732
	C474.323,269.774,471.309,272.788,467.59,272.788z M467.59,220.789c-3.719,0-6.729-3.014-6.729-6.732
	c0-3.718,3.014-6.732,6.729-6.732s6.732,3.014,6.732,6.732C474.322,217.775,471.309,220.789,467.59,220.789z M467.59,168.789
	c-3.719,0-6.729-3.014-6.729-6.732c0-3.718,3.014-6.732,6.729-6.732s6.732,3.014,6.732,6.732
	C474.322,165.775,471.309,168.789,467.59,168.789z M524.161,272.788c-3.719,0-6.732-3.014-6.732-6.732
	c0-3.718,3.017-6.732,6.732-6.732s6.729,3.015,6.729,6.732C530.893,269.774,527.879,272.788,524.161,272.788z M524.161,220.789
	c-3.719,0-6.732-3.014-6.732-6.732c0-3.718,3.017-6.732,6.732-6.732s6.729,3.014,6.729,6.732
	C530.893,217.775,527.879,220.789,524.161,220.789z M524.161,168.789c-3.719,0-6.732-3.014-6.732-6.732
	c0-3.718,3.017-6.732,6.732-6.732s6.729,3.014,6.729,6.732C530.893,165.775,527.879,168.789,524.161,168.789z M524.161,116.789
	c-3.719,0-6.732-3.014-6.732-6.732c0-3.718,3.017-6.732,6.732-6.732s6.729,3.014,6.729,6.732
	C530.893,113.775,527.879,116.789,524.161,116.789z M580.731,272.788c-3.722,0-6.732-3.014-6.732-6.732
	c0-3.718,3.014-6.732,6.732-6.732c3.718,0,6.729,3.015,6.729,6.732C587.463,269.774,584.45,272.788,580.731,272.788z
	 M580.731,220.789c-3.722,0-6.732-3.014-6.732-6.732c0-3.718,3.014-6.732,6.732-6.732c3.718,0,6.729,3.014,6.729,6.732
	C587.463,217.775,584.45,220.789,580.731,220.789z M580.731,168.789c-3.722,0-6.732-3.014-6.732-6.732
	c0-3.718,3.014-6.732,6.732-6.732c3.718,0,6.729,3.014,6.729,6.732C587.463,165.775,584.45,168.789,580.731,168.789z
	 M580.731,116.789c-3.722,0-6.732-3.014-6.732-6.732c0-3.718,3.014-6.732,6.732-6.732c3.718,0,6.729,3.014,6.729,6.732
	C587.463,113.775,584.45,116.789,580.731,116.789z M637.301,272.788c-3.719,0-6.729-3.014-6.729-6.732
	c0-3.718,3.014-6.732,6.729-6.732c3.719,0,6.732,3.015,6.732,6.732C644.034,269.774,641.02,272.788,637.301,272.788z
	 M637.301,220.789c-3.719,0-6.729-3.014-6.729-6.732c0-3.718,3.014-6.732,6.729-6.732c3.719,0,6.732,3.014,6.732,6.732
	C644.033,217.775,641.02,220.789,637.301,220.789z M637.301,168.789c-3.719,0-6.729-3.014-6.729-6.732
	c0-3.718,3.014-6.732,6.729-6.732c3.719,0,6.732,3.014,6.732,6.732C644.033,165.775,641.02,168.789,637.301,168.789z
	 M637.301,116.789c-3.719,0-6.729-3.014-6.729-6.732c0-3.718,3.014-6.732,6.729-6.732c3.719,0,6.732,3.014,6.732,6.732
	C644.033,113.775,641.02,116.789,637.301,116.789z M693.872,272.788c-3.719,0-6.732-3.014-6.732-6.732
	c0-3.718,3.017-6.732,6.732-6.732s6.731,3.015,6.731,6.732C700.604,269.774,697.59,272.788,693.872,272.788z M693.872,220.789
	c-3.719,0-6.732-3.014-6.732-6.732c0-3.718,3.017-6.732,6.732-6.732s6.731,3.014,6.731,6.732
	C700.604,217.775,697.59,220.789,693.872,220.789z M693.872,168.789c-3.719,0-6.732-3.014-6.732-6.732
	c0-3.718,3.017-6.732,6.732-6.732s6.731,3.014,6.731,6.732C700.604,165.775,697.59,168.789,693.872,168.789z M693.872,116.789
	c-3.719,0-6.732-3.014-6.732-6.732c0-3.718,3.017-6.732,6.732-6.732s6.731,3.014,6.731,6.732
	C700.604,113.775,697.59,116.789,693.872,116.789z M750.442,272.788c-3.722,0-6.732-3.014-6.732-6.732
	c0-3.718,3.014-6.732,6.732-6.732c3.718,0,6.729,3.015,6.729,6.732C757.174,269.774,754.161,272.788,750.442,272.788z
	 M750.442,220.789c-3.722,0-6.732-3.014-6.732-6.732c0-3.718,3.014-6.732,6.732-6.732c3.718,0,6.729,3.014,6.729,6.732
	C757.174,217.775,754.161,220.789,750.442,220.789z M750.442,168.789c-3.722,0-6.732-3.014-6.732-6.732
	c0-3.718,3.014-6.732,6.732-6.732c3.718,0,6.729,3.014,6.729,6.732C757.174,165.775,754.161,168.789,750.442,168.789z
	 M807.012,272.788c-3.719,0-6.729-3.014-6.729-6.732c0-3.718,3.014-6.732,6.729-6.732c3.721,0,6.732,3.015,6.732,6.732
	C813.745,269.774,810.731,272.788,807.012,272.788z M807.012,220.789c-3.719,0-6.729-3.014-6.729-6.732
	c0-3.718,3.014-6.732,6.729-6.732c3.721,0,6.732,3.014,6.732,6.732C813.744,217.775,810.731,220.789,807.012,220.789z
	 M863.583,272.788c-3.719,0-6.732-3.014-6.732-6.732c0-3.718,3.017-6.732,6.732-6.732s6.732,3.015,6.732,6.732
	C870.315,269.774,867.301,272.788,863.583,272.788z"/>
</svg>
