<?xml version="1.0" encoding="utf-8"?>
<!-- Generator: Adobe Illustrator 16.0.0, SVG Export Plug-In . SVG Version: 6.00 Build 0)  -->
<!DOCTYPE svg PUBLIC "-//W3C//DTD SVG 1.1//EN" "http://www.w3.org/Graphics/SVG/1.1/DTD/svg11.dtd">
<svg version="1.1" id="Layer_1" xmlns="http://www.w3.org/2000/svg" xmlns:xlink="http://www.w3.org/1999/xlink" x="0px" y="0px"
	 width="1562.557px" height="702.199px" viewBox="0 0 1562.557 702.199" enable-background="new 0 0 1562.557 702.199"
	 xml:space="preserve">
<path d="M1059.85,187.568C806.483,18.702,734.228,0,734.228,0L0,179.385c0,0,497.988,277.832,558.729,316.517
	C619.47,534.585,884.486,702.2,884.486,702.2l678.068-135.697C1562.559,566.5,1313.216,356.438,1059.85,187.568z M95.4,219.076
	c-9.346,1.416-18.069-5.012-19.487-14.359c-1.416-9.349,5.014-18.075,14.358-19.492c9.351-1.417,18.074,5.013,19.488,14.36
	C111.179,208.933,104.748,217.658,95.4,219.076z"/>
</svg>
