<?xml version="1.0" encoding="utf-8"?>
<!-- Generator: Adobe Illustrator 16.0.0, SVG Export Plug-In . SVG Version: 6.00 Build 0)  -->
<!DOCTYPE svg PUBLIC "-//W3C//DTD SVG 1.1//EN" "http://www.w3.org/Graphics/SVG/1.1/DTD/svg11.dtd">
<svg version="1.1" id="Layer_1" xmlns="http://www.w3.org/2000/svg" xmlns:xlink="http://www.w3.org/1999/xlink" x="0px" y="0px"
	 width="1624.92px" height="702.199px" viewBox="0 0 1624.92 702.199" enable-background="new 0 0 1624.92 702.199"
	 xml:space="preserve">
<path fill="none" stroke="#000000" stroke-linejoin="round" stroke-miterlimit="10" d="M95.399,219.076
	c-9.346,1.416-18.071-5.012-19.489-14.359c-1.416-9.349,5.014-18.075,14.36-19.492c9.349-1.417,18.074,5.013,19.489,14.36
	C111.178,208.933,104.748,217.658,95.399,219.076z M1562.953,577.832c-0.895-1.022-1.938-1.987-2.983-2.852
	c-4.305-3.547-9.264-3.073-14.497-3.199c-2.82-0.068-5.647-0.073-8.468-0.166L884.488,702.199c0,0-265.02-167.615-325.758-206.299
	C497.99,457.217,0,179.385,0,179.385L734.227,0c0,0,72.257,18.702,325.623,187.568c210.004,139.969,417.245,308.237,482.026,361.734
	c0.767,0.34,1.54,0.664,2.309,1c6.616,2.9,15.991,10.175,23.323,5.666c5.55-8.609,15.225-14.311,26.229-14.311
	c17.221,0,31.181,13.96,31.181,31.181s-13.96,31.182-31.181,31.182c-15.521,0-28.393-11.34-30.784-26.185V577.832z"/>
</svg>
