<?xml version="1.0" encoding="utf-8"?>
<!-- Generator: Adobe Illustrator 16.0.0, SVG Export Plug-In . SVG Version: 6.00 Build 0)  -->
<!DOCTYPE svg PUBLIC "-//W3C//DTD SVG 1.1//EN" "http://www.w3.org/Graphics/SVG/1.1/DTD/svg11.dtd">
<svg version="1.1" id="Layer_1" xmlns="http://www.w3.org/2000/svg" xmlns:xlink="http://www.w3.org/1999/xlink" x="0px" y="0px"
	 width="555.847px" height="1133.111px" viewBox="0 0 555.847 1133.111" enable-background="new 0 0 555.847 1133.111"
	 xml:space="preserve">
<path fill="none" stroke="#000000" stroke-linejoin="round" stroke-miterlimit="10" d="M499.294,1069.007
	c-0.289-1.939-1.465-18.377-3.27-44.547c-4.146,2.924-9.014,4.941-14.357,5.742c-18.25,2.696-35.23-9.912-37.928-28.16
	c-2.693-18.25,9.914-35.23,28.164-37.926c7.203-1.078,14.211,0.264,20.221,3.378c-10.057-147.235-27.98-408.487-36.48-466.04
	c-11.854-80.249-58.508-428.69-63.564-452.062c-5.062-23.371-21.834-49.834-68.396-49.386C277.123,0.453,86.784,39.827,57.12,45.817
	c-29.667,5.99-59.042,24.8-57.021,71.129c2.02,46.33,50.674,484.516,53.285,513.071c2.609,28.561-13.732,92.068,6.991,145.281
	C81.099,828.511,100.231,925.371,209,997.736c108.767,72.359,232.771,84.593,266.744,86.006
	C509.716,1085.153,500.689,1078.448,499.294,1069.007z"/>
</svg>
