<?xml version="1.0" encoding="utf-8"?>
<!-- Generator: Adobe Illustrator 16.0.0, SVG Export Plug-In . SVG Version: 6.00 Build 0)  -->
<!DOCTYPE svg PUBLIC "-//W3C//DTD SVG 1.1//EN" "http://www.w3.org/Graphics/SVG/1.1/DTD/svg11.dtd">
<svg version="1.1" id="Layer_1" xmlns="http://www.w3.org/2000/svg" xmlns:xlink="http://www.w3.org/1999/xlink" x="0px" y="0px"
	 width="560.547px" height="1134.464px" viewBox="0 0 560.547 1134.464" enable-background="new 0 0 560.547 1134.464"
	 xml:space="preserve">
<path fill="none" stroke="#000000" stroke-linejoin="round" stroke-miterlimit="10" d="M59.989,1091.33
	c0.445-5.633,6.147-7.24,10.532-8.609c2.12,0,4.469-0.043,7.07-0.133c33.983-1.16,158.072-12.469,267.375-84.02
	C454.271,927.015,474.124,830.3,495.243,777.246c21.117-53.061,5.25-116.689,8.069-145.23
	c2.823-28.525,54.735-466.34,57.101-512.654c2.365-46.313-26.871-65.341-56.49-71.551C474.305,41.6,284.262,0.811,237.705,0.018
	c-46.558-0.794-63.525,25.543-68.76,48.876c-5.235,23.333-54.475,371.417-66.925,451.575
	c-8.932,57.489-28.794,318.601-39.945,465.755c6.032-3.066,13.048-4.357,20.245-3.229c18.229,2.832,30.71,19.906,27.879,38.135
	c-2.831,18.229-19.904,30.711-38.133,27.879c-5.346-0.842-10.197-2.896-14.314-5.85c-1.917,25.055-3.188,41.186-3.557,44.197
	c-2.615,3.332-5.45,7.508-10.179,7.5c-3.915-1.771-8.259-2.758-12.835-2.758c-17.222,0-31.182,13.963-31.182,31.184
	s13.96,31.182,31.182,31.182c17.221,0,31.182-13.961,31.182-31.182c0-4.234-0.844-8.271-2.372-11.951L59.989,1091.33z"/>
</svg>
