<?xml version="1.0" encoding="utf-8"?>
<!-- Generator: Adobe Illustrator 16.0.0, SVG Export Plug-In . SVG Version: 6.00 Build 0)  -->
<!DOCTYPE svg PUBLIC "-//W3C//DTD SVG 1.1//EN" "http://www.w3.org/Graphics/SVG/1.1/DTD/svg11.dtd">
<svg version="1.1" id="Layer_1" xmlns="http://www.w3.org/2000/svg" xmlns:xlink="http://www.w3.org/1999/xlink" x="0px" y="0px"
	 width="1853.601px" height="700.286px" viewBox="0 0 1853.601 700.286" enable-background="new 0 0 1853.601 700.286"
	 xml:space="preserve">
<path fill="none" stroke="#000000" stroke-linejoin="round" stroke-miterlimit="10" d="M1150.929,15.59
	c2.038,2.686,3.822,5.872,5.205,9.651c8.191,22.399,46.301,142.737,35.855,226.396c-10.445,83.661-64.123,162.781-93.859,215.578
	c-25.848,45.893-59.188,105.434-72.101,126.601"/>
<path fill="none" stroke="#000000" stroke-linejoin="round" stroke-miterlimit="10" d="M1105.339,629.037
	c-3.583,12.279-1.877,21.61,13.572,19.675c2.729-0.341,8.558-0.87,16.885-1.595"/>
<path fill="none" stroke="#000001" stroke-linejoin="round" stroke-miterlimit="10" d="M1192.266,10.818
	c-0.155,1.023-0.11,2.165,0.161,3.437l0,0c2.873,13.444,42.387,109.209,44.355,211.112
	c1.969,101.904-117.451,371.708-125.977,389.784"/>
</svg>
