<?xml version="1.0" encoding="utf-8"?>
<!-- Generator: Adobe Illustrator 16.0.0, SVG Export Plug-In . SVG Version: 6.00 Build 0)  -->
<!DOCTYPE svg PUBLIC "-//W3C//DTD SVG 1.1//EN" "http://www.w3.org/Graphics/SVG/1.1/DTD/svg11.dtd">
<svg version="1.1" id="Layer_1" xmlns="http://www.w3.org/2000/svg" xmlns:xlink="http://www.w3.org/1999/xlink" x="0px" y="0px"
	 width="1853.621px" height="697.195px" viewBox="0 0 1853.621 697.195" enable-background="new 0 0 1853.621 697.195"
	 xml:space="preserve">
<path fill="none" stroke="#000001" stroke-linejoin="round" stroke-miterlimit="10" d="M833.771,603.138
	c7.322,8.853,19.318,17.272,35.959,20.974c18.181,4.043,62.895,10.668,67.08,10.635c4.188-0.033,19.527-1.551,27.812-12.783
	c8.285-11.229,120.533-112.613,142.654-139.307c22.117-26.695,47.104-43.646,69.438-43.818
	c22.332-0.178,295.818-9.326,308.379-9.426c12.562-0.104,50.32,9.371,50.32,9.371s-327.299,87.731-352.387,92.121
	c-25.088,4.387-198.804,99.274-207.144,103.526c-8.34,4.257-22.221,14.138,8.527,19.478c30.748,5.338,234.53,6.514,360.071-2.857
	c125.543-9.371,285.886-30.184,309.562-35.953c23.686-5.771,57.066-19.989,74.91-57.815
	c17.846-37.826,86.275-208.647,103.566-316.254s22.34-174.642,20.846-187.191c-1.484-12.559-4.341-20.908-14.122-22.227l0,0
	C1828.092,30.105,739.177,1.257,733.595,1.302c-4.603,0.037-20.593,1.113-30.656,14.06l0.002,0.002
	c-3.224,1.689-9.089,2.818-15.797,2.818c-14.233,0-25.751-3.173-25.751-7.094c-1.161-9.3-18.488-9.044-32.375-7.669
	c-15.342,1.519-512.275-5.706-544.352-2.66C52.589,3.805,28.983,19.344,26.259,27.74c-2.724,8.395-21.4,117.408-25.199,166.291
	c-3.799,48.88,3.822,129.771,3.989,150.702c0.164,20.936-9.526,30.784,41.324,107.145C97.224,528.24,283.232,575.615,396.51,604.027
	c103.907,26.06,284.046,39.771,329.316,43.888c7.763,0,14.043,8.095,14.043,18.098c0,17.222,13.961,31.183,31.182,31.183
	c17.222,0,31.183-13.961,31.183-31.183c0-17.221-13.961-31.182-31.183-31.182c-10.429,0-19.452-3.588-23.853-8.826l0.008,0.001
	c-0.734-2.121-1.597-4.305-2.547-6.513l0,0.005c0-12.565,21.76-22.732,48.652-22.732c17.365,0,32.491,2.565,40.469,6.371
	L833.771,603.138z"/>
</svg>
