<?xml version="1.0" encoding="utf-8"?>
<!-- Generator: Adobe Illustrator 16.0.0, SVG Export Plug-In . SVG Version: 6.00 Build 0)  -->
<!DOCTYPE svg PUBLIC "-//W3C//DTD SVG 1.1//EN" "http://www.w3.org/Graphics/SVG/1.1/DTD/svg11.dtd">
<svg version="1.1" id="Layer_1" xmlns="http://www.w3.org/2000/svg" xmlns:xlink="http://www.w3.org/1999/xlink" x="0px" y="0px"
	 width="1355.696px" height="658.643px" viewBox="0 0 1355.696 658.643" enable-background="new 0 0 1355.696 658.643"
	 xml:space="preserve">
<path fill="none" stroke="#000000" stroke-linejoin="round" stroke-miterlimit="10" d="M1277.338,193.667l-13.959,15.357
	l-194.385,206.529l0,0c-0.021,0.021-0.039,0.044-0.062,0.065c-22.166,24.144-50.926,54.616-86.279,91.418
	c-5.598,5.823-17.443,18.639-35.551,38.448l0,0l-7.168,7.776l0,0c-2.301,2.351-5.992,5.731-11.08,10.154
	c-10.594,9.211-17.861,16.952-21.809,23.225c-3.09,4.91-7.588,8.848-13.498,11.807c-0.992,0.495-3.119,0.804-6.381,0.922
	c-5.486,0.198-9.689,1.062-12.605,2.593c-1.98,1.038-3.762,1.576-5.334,1.612l0,0l-82.734,1.921l0,0
	c-0.047,0.001-0.094,0.003-0.143,0.005c-21.805,0.938-40.029,1.38-54.688,1.336c-0.037-0.001-0.074,0-0.111,0l0,0l-87.247,1.085
	l-0.181-0.001l0,0c-13.683-0.405-34.159-0.731-61.433-0.989c-36.763-0.343-64.299-0.938-82.614-1.791
	c-53.532-2.486-90.379-4.396-110.541-5.72l0,0L220.72,588.334l0,0c-11.288-0.859-18.879-2.471-22.774-4.834
	c-2.746-1.666-4.858-4.318-6.335-7.959c-1.449-3.571-2.025-7.307-1.729-11.207c0.116-1.542,0.372-3.062,0.767-4.564
	c1.221-4.646,4.811-11.225,10.77-19.724c3.584-5.11,6.161-9.067,7.731-11.872c11.907-21.255,35.913-57.554,72.019-108.896
	c41.358-58.812,80.925-109.461,118.699-151.951c0.021-0.023,0.041-0.047,0.062-0.07l0,0l13.751-15.875l0,0
	c0.017-0.015,0.025-0.029,0.038-0.044c7.721-9.059,22.13-24.524,43.236-46.396c12.046-12.482,19.689-19.652,22.935-21.51
	c5.552-3.177,12.357-5.043,20.43-5.598c15.194-1.045,38.139-0.944,68.815,0.302c18.053,0.733,31.612,1.117,40.685,1.152
	c61.312,0.231,106.64,0.52,135.972,0.863c8.699,0.102,21.719,0.059,39.062-0.129c12.928-0.141,22.613-0.204,29.062-0.192
	c77.738,0.143,127.445-0.217,149.117-1.076l0,0l58.688-2.185l0,0c0.055-0.002,0.104-0.005,0.154-0.008l0,0l64.969-3.818l0,0
	c7.389-0.435,18.428-1.257,33.119-2.469c17.42-1.437,30.477-2.366,39.162-2.789c8.092-0.394,20.104-1.517,36.031-3.369
	c8.377-0.976,14.652-1.665,18.826-2.069l0,0l14.932-1.447l0,0c8.117-0.545,20.049-2.119,35.795-4.724
	c10.736-1.776,18.777-2.978,24.121-3.604c3.791-0.443,6.781-0.582,8.975-0.416l0,0l0,0l0,0c3.328,0.253,5.469,0.557,6.41,0.911
	c1.482,2.166,2.041,5.654,1.68,10.466c-0.006,0.02-0.02,0.045-0.035,0.077c-1.189,1.949-2.512,3.393-3.961,4.332
	c-1.463,0.946-9.531,9.491-24.205,25.635l0,0L1277.338,193.667L1277.338,193.667 M4.726,637.927
	c4.592,6.756,15.032,12.211,31.312,16.203c21.861,5.385,76.797,5.004,91.326,3.66c23.057-2.131,53.14-4.914,68.56-10.766
	c3.522-1.337,6.827-3.078,9.908-5.229c-4.054-0.756-8.108-1.514-12.149-2.109c-40.531-6.084-66.279-12.628-77.112-19.568
	c-23.519-15.054-12.44-34.851-11.486-36.011l0,0l6.925-8.732l0,0c1.747-2.314,8.396-11.319,19.853-26.977
	c20.496-27.956,36.172-48.484,47.134-61.464c31.667-37.491,62.938-75.322,93.3-113.888l0,0l6.981-8.862l18.587-23.763l0,0
	c0.871-0.964,10.058-12.496,27.751-34.679c29.664-37.188,59.907-73.906,89.619-111.053c9.311-11.64,16.456-19.968,21.569-24.931
	c9.524-9.239,18.276-19.23,27.479-28.787c16.189-16.823,34.136-35.463,50.146-48.886c21.834-18.299,72.179-53.492,64.58-55.968
	c-6.799-2.217-21.312-4.456-43.515-6.785l0,0l-21.997-2.63l0,0c-48.702-6.452-97.562-11.669-146.544-15.491
	c-36.259-2.831-72.417-6.795-108.639-10.036l0,0l-11.885-1.062l0,0c-2.536-0.279-6.458-0.044-11.604,0.693
	c-1.683,3.277-2.643,6.698-2.912,10.332c-0.034,0.454,2.702,18.373,8.125,53.958c4.757,31.014,5.859,56.21-2.233,98.555
	c-2.526,13.146-4.481,19.509-13.496,42.584c-5.426,13.887-10.492,27.915-16.238,41.673c-26.487,63.401-66.896,119.59-99.226,179.998
	c-17.376,32.466-36.465,63.995-53.485,96.649c-16.627,31.899-34.73,62.997-53.493,93.686
	C-2.041,624.636,0.802,632.155,4.726,637.927L4.726,637.927"/>
</svg>
