<?xml version="1.0" encoding="utf-8"?>
<!-- Generator: Adobe Illustrator 16.0.0, SVG Export Plug-In . SVG Version: 6.00 Build 0)  -->
<!DOCTYPE svg PUBLIC "-//W3C//DTD SVG 1.1//EN" "http://www.w3.org/Graphics/SVG/1.1/DTD/svg11.dtd">
<svg version="1.1" id="Layer_1" xmlns="http://www.w3.org/2000/svg" xmlns:xlink="http://www.w3.org/1999/xlink" x="0px" y="0px"
	 width="1961.947px" height="790.514px" viewBox="0 0 1961.947 790.514" enable-background="new 0 0 1961.947 790.514"
	 xml:space="preserve">
<path d="M1941.78,359.663c0,0-337.867-138.598-434.412-177.054c-96.543-38.455-379.094-139.351-442.483-169.115
	c-63.396-29.767-95.246-3.216-112.591,12.246c-17.349,15.463-200.857,176.012-260.898,222.334
	C631.352,294.395,460.19,415.019,419.51,443.892c-40.681,28.875-96.783,36.398-148.034,37.562
	c-51.249,1.162-224.667-35.551-248.647-39.76C-1.15,437.487-3.614,444.673,3.5,455.136
	c7.114,10.473,128.119,231.271,137.973,249.371c9.851,18.104,24.665,17.824,31.475,17.48c6.808-0.341,278.923,56.832,298.869,65.008
	c19.943,8.178,37.222,0.721,49.709-8.381C534.01,769.511,709.347,628.91,770.587,583c61.236-45.912,152.312-116.385,169.996-125.039
	c17.688-8.656,6.979-20.354-6.188-24.873c-13.174-4.518-50.29-17.241-73.452-23.848c-23.16-6.604-20.287-14.982,4.896-10.365
	c25.181,4.619,331.679,66.893,423.191,84.887c91.518,17.998,330.723,85.297,386.176,106.986
	c55.455,21.691,87.58,56.793,95.896,67.674c8.312,10.877,24.805,1.812,32.467-4.928c7.664-6.74,149.1-255.315,156.42-268.863
	C1967.303,371.088,1952.556,363.355,1941.78,359.663z"/>
</svg>
