<?xml version="1.0" encoding="utf-8"?>
<!-- Generator: Adobe Illustrator 16.0.0, SVG Export Plug-In . SVG Version: 6.00 Build 0)  -->
<!DOCTYPE svg PUBLIC "-//W3C//DTD SVG 1.1//EN" "http://www.w3.org/Graphics/SVG/1.1/DTD/svg11.dtd">
<svg version="1.1" id="Layer_1" xmlns="http://www.w3.org/2000/svg" xmlns:xlink="http://www.w3.org/1999/xlink" x="0px" y="0px"
	 width="2212.402px" height="900.594px" viewBox="0 0 2212.402 900.594" enable-background="new 0 0 2212.402 900.594"
	 xml:space="preserve">
<path d="M1494.077,900.457c57.438-1.777,85.534-2.564,95.729-2.966c10.197-0.397,31.854-9.104,46.647-20.522
	s66.271-57.117,78.181-86.021c11.91-28.905,18.308-122.334,36.205-122.724c12.719-0.271,20.614,117.195,20.614,117.195
	c0.604,11.444,33.623,56.03,39.02,65.403c5.396,9.375,13.507,11.886,30.155,11.705c16.646-0.185,258.262-5.399,272.206-6.418
	c13.942-1.021,28.312-7.235,35.405-18.67c7.095-11.437,17.33-34.935,25.879-45.322c8.552-10.396,9.184-14.344,12.32-26.407
	c3.144-12.064,29.825-418.023,25.487-436.552c-4.34-18.528-4.327-26.228-21.182-27.296c-16.854-1.069-382.705,5.398-395.4,6.212
	c-12.692,0.812-22.698,10.159-25.438,32.421c-2.741,22.263-10.146,94.047-20.351,94.446c-10.193,0.396-30.021-88.705-32.714-97.239
	c-2.688-8.536-10.584-17.498-22.029-16.893c-11.444,0.605-396.472,23.065-641.586,7.053
	c-245.113-16.014-367.24-33.072-506.146-97.397c-138.9-64.325-131.406-190.005-130.354-199.16
	c1.059-9.154-3.062-34.134-21.799-31.043c-18.731,3.091-287.398,7.64-299.052,6.996c-11.653-0.644-72.662,18.403-81.83,25.046
	C4.88,38.95,0.259,65.372,0.001,94.918c-0.256,29.55,48.886,638.532,49.271,656.429c0.389,17.898,8.707,21.658,20.354,22.306
	c11.654,0.644,34.328,5.883,43.482,6.938c9.152,1.06,15.489,70.572,18.812,75.156c3.323,4.584,0.8,20.395,49.07,25.262
	c48.271,4.865,805.121,12.156,927.694,8.613C1231.267,886.076,1436.639,902.233,1494.077,900.457z M288.493,686.705
	c-5.221-31.645,16.199-61.521,47.84-66.742c31.642-5.222,61.521,16.197,66.74,47.84c5.222,31.644-16.196,61.521-47.84,66.742
	C323.594,739.762,293.714,718.342,288.493,686.705z M543.866,735.676L537.54,466.5c-0.161-6.896,4.685-12.604,10.823-12.748
	l161.462-3.795c6.142-0.146,11.247,5.332,11.411,12.227l6.321,269.181c0.164,6.896-4.685,12.604-10.821,12.748l-161.459,3.795
	C549.135,748.049,544.027,742.576,543.866,735.676z"/>
</svg>
