<?xml version="1.0" encoding="utf-8"?>
<!-- Generator: Adobe Illustrator 16.0.0, SVG Export Plug-In . SVG Version: 6.00 Build 0)  -->
<!DOCTYPE svg PUBLIC "-//W3C//DTD SVG 1.1//EN" "http://www.w3.org/Graphics/SVG/1.1/DTD/svg11.dtd">
<svg version="1.1" id="Layer_1" xmlns="http://www.w3.org/2000/svg" xmlns:xlink="http://www.w3.org/1999/xlink" x="0px" y="0px"
	 width="2250.637px" height="920.9px" viewBox="0 0 2250.637 920.9" enable-background="new 0 0 2250.637 920.9"
	 xml:space="preserve">
<path fill="none" stroke="#000000" stroke-linejoin="round" stroke-miterlimit="10" d="M1796.061,52.933
	c1.043,9.158,8.382,134.846-130.604,199c-138.979,64.152-261.131,81.061-506.266,96.771
	c-245.138,15.709-630.132-7.227-641.575-7.846c-11.446-0.619-19.354,8.332-22.052,16.865c-2.702,8.533-22.642,97.607-32.835,97.195
	c-10.197-0.41-17.519-72.205-20.229-94.471c-2.714-22.266-12.707-31.625-25.401-32.451c-12.691-0.828-378.537-7.748-395.393-6.701
	c-16.854,1.047-16.854,8.748-21.216,27.27c-4.363,18.524,21.822,424.517,24.947,436.583c3.126,12.066,3.752,16.021,12.289,26.424
	c8.536,10.4,18.743,33.914,25.824,45.354c7.078,11.443,21.441,17.682,35.385,18.715c13.942,1.035,255.549,6.553,272.197,6.754
	c16.648,0.199,24.765-2.301,30.17-11.666c5.406-9.367,38.479-53.912,39.104-65.357c0,0,8.041-117.459,20.76-117.17
	c17.896,0.408,24.179,93.848,36.053,122.768c11.875,28.922,63.294,74.684,78.073,86.119c14.779,11.438,36.426,20.172,46.623,20.58
	c10.197,0.412,38.291,1.232,95.729,3.082c57.438,1.852,262.824-14.055,385.396-10.354c122.573,3.688,879.43-2.66,927.708-7.469
	c48.277-4.811,45.771-20.621,49.102-25.199c3.326-4.58,9.75-74.09,18.904-75.135c9.156-1.043,31.836-6.26,43.49-6.889
	c11.652-0.629,19.977-4.379,20.385-22.271c0.408-17.896,50.305-626.819,50.082-656.372c-0.221-29.551-4.809-55.977-13.969-62.633
	c-9.16-6.654-70.146-25.775-81.797-25.146c-11.654,0.629-280.312-4.254-299.043-7.367
	C1799.165,18.802,1795.014,43.776,1796.061,52.933z M1875.729,641.689c31.636,5.258,53.017,35.166,47.759,66.799
	c-5.261,31.635-35.166,53.018-66.802,47.758c-31.635-5.258-53.018-35.166-47.758-66.801
	C1814.188,657.812,1844.094,636.43,1875.729,641.689z M1031.115,453.095l3.758,194.696c0.146,7.404-6.424,13.535-14.666,13.695
	l-321.764,6.211c-8.246,0.158-15.045-5.715-15.188-13.119l-3.758-194.696c-0.146-7.403,6.424-13.535,14.668-13.691l321.764-6.212
	C1024.174,439.817,1030.973,445.69,1031.115,453.095z"/>
</svg>
