<?xml version="1.0" encoding="utf-8"?>
<!-- Generator: Adobe Illustrator 16.0.0, SVG Export Plug-In . SVG Version: 6.00 Build 0)  -->
<!DOCTYPE svg PUBLIC "-//W3C//DTD SVG 1.1//EN" "http://www.w3.org/Graphics/SVG/1.1/DTD/svg11.dtd">
<svg version="1.1" id="Layer_1" xmlns="http://www.w3.org/2000/svg" xmlns:xlink="http://www.w3.org/1999/xlink" x="0px" y="0px"
	 width="1045.791px" height="1304.622px" viewBox="0 0 1045.791 1304.622" enable-background="new 0 0 1045.791 1304.622"
	 xml:space="preserve">
<path d="M522.945,372.136c99.977,0,130.602-6.364,160.562-12.979c50.629-11.18,74.039-9.203,94.955,24.262
	c20.911,33.465,79.657,198.442,73.618,290.304c-0.521,7.941,4.468,11.396,7.529,2.512c34.064-98.76,183.668-659.881,185.771-669.27
	c1.727-7.706-2.361-8.881-5.457-4.197c-46.357,70.167-93.812,150.056-254.148,142.71c-73.01-3.345-101.156-2.584-262.832-2.584
	h-0.098c-161.675,0-189.822-0.761-262.831,2.584C99.678,152.822,52.226,72.934,5.867,2.767C2.772-1.917-1.316-0.742,0.41,6.964
	c2.104,9.389,151.707,570.51,185.771,669.269c3.065,8.887,8.051,5.432,7.529-2.512c-6.038-91.86,52.707-256.838,73.622-290.303
	s44.322-35.441,94.952-24.262c29.961,6.615,60.585,12.979,160.562,12.979L522.945,372.136L522.945,372.136z M523.14,1304.622
	c90.977,0,157.063-34.418,189.498-54.738c2.896-1.811,3.896-4.305,4.518-9c9.824-74.469,5.933-320.322-3.188-451.764
	c-0.582-8.375-2.402-11.342-9.152-3.795c-8.469,9.469-27.346,3.293-19.492-19.246c14.312-41.078,14.656-98.725,9.338-152.395
	c-0.383-3.867-2.266-6.179-7.076-6.179c-19.012,0-123.715,0-164.44,0h-0.488c-40.729,0-145.432,0-164.438,0
	c-4.813,0-6.695,2.312-7.079,6.179c-5.317,53.672-4.977,111.315,9.339,152.395c7.854,22.539-11.023,28.715-19.492,19.246
	c-6.75-7.547-8.569-4.58-9.15,3.795c-9.118,131.439-13.016,377.295-3.188,451.764c0.619,4.695,1.619,7.189,4.518,9
	c32.435,20.32,98.521,54.738,189.498,54.738H523.14z"/>
</svg>
