<?xml version="1.0" encoding="utf-8"?>
<!-- Generator: Adobe Illustrator 16.0.0, SVG Export Plug-In . SVG Version: 6.00 Build 0)  -->
<!DOCTYPE svg PUBLIC "-//W3C//DTD SVG 1.1//EN" "http://www.w3.org/Graphics/SVG/1.1/DTD/svg11.dtd">
<svg version="1.1" id="Layer_1" xmlns="http://www.w3.org/2000/svg" xmlns:xlink="http://www.w3.org/1999/xlink" x="0px" y="0px"
	 width="1195.367px" height="1875.59px" viewBox="0 0 1195.367 1875.59" enable-background="new 0 0 1195.367 1875.59"
	 xml:space="preserve">
<path fill="none" stroke="#000001" stroke-linejoin="round" stroke-miterlimit="10" d="M573.621,445.374
	c1.008-63.867,6.836-200.552,28.438-306.99c5.49-27.043,17.5-50.175,35.398-66.413c1.432-1.298-0.78-6.634-1.628-7.897
	c-0.595-0.888-1.35-1.608-2.2-2.198c-1.192-0.827-2.573-1.4-3.966-1.825c-11.896-3.634-19.678-16.893-19.678-28.87
	C609.987,13.96,623.946,0,641.166,0c4.375,0,9.216,0.996,13.187,2.815c6.782,3.108,13.251,9.771,15.981,16.741
	c1.722,4.391,1.767,9.153,1.725,13.801c-0.038,4.102-0.062,8.605,2.595,12.002c1.548,1.98,4.795,4.516,7.582,3.927
	c9.487-2.004,19.721-2.785,30.668-2.195c92.006,4.961,329.342,57.562,373.285,71.348c17.604,5.524,34.353,13.51,42.35,18.308
	c6.716,4.03,7.957,7.027,8.146,14.437c0.949,36.479,31.817,293.302,39.354,352.562c21.25,167.134,28.738,364.182,2.959,542.175
	c-21.655,149.556-58.7,263.558-92.364,346.834c-17.836,44.136-41.535,90.114-70.191,135.688c-3.734,5.933-5.604,5.562-9.604,2.896
	s-198.666-131-206.666-134s-10.168-0.334-4,5c6.166,5.332,182.348,160.529,186.014,164.363c4.287,4.479,4.986,6.305-0.67,14.039
	c-77.277,105.705-175.799,207.496-284.229,274.916c-25.562,15.892-51.062,19.254-74.438,19.621
	c-163.356,2.57-280.031-11.063-357.315-27.225c-36.166-7.562-59.808-24.787-73.407-45.698
	c-31.582-48.562-89.244-82.815-177.443-67.571c-16.875,2.916-19.932-1.459-5.348-16.043
	c14.584-14.586,243.903-262.564,324.081-349.449c45.108-48.877,80.576-102.067,110.386-160.934l4.853-9.729
	c35.135-71.592,62.381-151.516,88.635-242.166c33.931-117.146,38.054-201.751,35.005-375.79
	c-0.763-43.43-1.857-85.169-2.686-126.146C571.825,454.526,573.621,450.433,573.621,445.374z"/>
</svg>
