<?xml version="1.0" encoding="utf-8"?>
<!-- Generator: Adobe Illustrator 16.0.0, SVG Export Plug-In . SVG Version: 6.00 Build 0)  -->
<!DOCTYPE svg PUBLIC "-//W3C//DTD SVG 1.1//EN" "http://www.w3.org/Graphics/SVG/1.1/DTD/svg11.dtd">
<svg version="1.1" id="Layer_1" xmlns="http://www.w3.org/2000/svg" xmlns:xlink="http://www.w3.org/1999/xlink" x="0px" y="0px"
	 width="2167.648px" height="676.713px" viewBox="0 0 2167.648 676.713" enable-background="new 0 0 2167.648 676.713"
	 xml:space="preserve">
<path fill="none" stroke="#000000" stroke-linejoin="round" stroke-miterlimit="10" d="M2103.4,622.526
	c-50.723-50.668-257.459-219.065-317.513-258.729c-30.054-19.849-43.211-25.159-73.223-26.271
	c-123.62-4.58-422.646-72.142-655.777-138.518C970.938,174.538,640.052,87.415,561.5,66.721
	C446.167,36.335,342,13.929,293.834,6.497C213.896-5.838,147.733,1.42,122.523,11.483C75.282,30.342,21.5,53.792,2.289,62.055
	c-2.956,1.272-2.912,2.23-0.652,4.674c8.063,8.714,18.16,16.465,31.026,25.344c94.86,65.464,320.026,198.736,741.496,410.948
	c66.888,33.679,56.503,65.352,37.335,89.768c-11.363,14.478-2.789,26.252,12.783,13.39c50.122-41.396,113.345-72.866,176.336-98.479
	c106.793-43.422,202.063-42.396,285.647-31.334c185.352,24.533,420.834,70.457,488.968,85.534
	c68.132,15.078,118.487,31.257,142.332,47.622c9.011,6.188,14.409,7.07,22.975,8.355c8.446,1.271,143.083,17.56,158.322,17.854
	C2113.239,636.016,2109.597,628.716,2103.4,622.526z"/>
</svg>
