<?xml version="1.0" encoding="utf-8"?>
<!-- Generator: Adobe Illustrator 16.0.0, SVG Export Plug-In . SVG Version: 6.00 Build 0)  -->
<!DOCTYPE svg PUBLIC "-//W3C//DTD SVG 1.1//EN" "http://www.w3.org/Graphics/SVG/1.1/DTD/svg11.dtd">
<svg version="1.1" id="Layer_1" xmlns="http://www.w3.org/2000/svg" xmlns:xlink="http://www.w3.org/1999/xlink" x="0px" y="0px"
	 width="2062.829px" height="855.252px" viewBox="0 0 2062.829 855.252" enable-background="new 0 0 2062.829 855.252"
	 xml:space="preserve">
<path fill="none" stroke="#000000" stroke-linejoin="round" stroke-miterlimit="10" d="M2030.799,408.333
	c-1.246-10.505-4.373-33.575-5.738-41.289c-0.902-5.1-2.359-5.126-6.066-3.544c-42.002,17.912-190.279,72.969-256.697,87.487
	c-112.186,24.521-178.115,18.966-226.479,0.229C1379.04,390.48,974.299,115.371,809.166,3.681
	c-6.455-4.364-9.039-4.993-16.047-1.102C786.023,6.521,94.253,352.92,15.655,430.974c-17.987,17.863-25.649,33.553,5.724,63.005
	c31.135,29.229,151.729,161.146,162.927,171.992c11.198,10.852,29.206,10.406,37.569,6.83c8.363-3.574,22.981-10.223,31.201-13.799
	c6.499-2.828,12.629-2.078,18.77-0.006c13.203,4.455,27.865,11.322,53.394,1.125c18.502-7.393,111.385-44.512,200.673-80.021
	c-0.001-6.629,0.646-13.354,2.004-20.104c11.041-54.96,64.545-90.562,119.504-79.521c21.695,4.359,40.369,15.339,54.354,30.407
	c0.412-0.147,0.799-0.291,1.139-0.412c29.591-10.54,123.568-46.018,292.555,7.649c187.442,59.527,497.659,187.02,660.838,286.413
	c7.771,4.73,9.467,3.835,14.65-3.602c175.398-251.541,184.816-259.506,214.836-285.424c8.951-7.729,89.918-73.703,140.045-99.918
	C2030.448,413.179,2031.19,411.608,2030.799,408.333z M2037.948,422.378c-1.992-4.466-3.961-5.12-6.721-1.997
	c-2.787,3.155-232.566,268.938-246.975,285.932c-26.543,31.312-38.027,44.556-55.951,58.488
	c-10.469,8.137-43.799,33.818-50.668,39.049c-6.631,5.051-5.414,8.148-2.469,10.521c35.664,28.752,58.535,37.997,84.713,40.479
	c12.367,1.17,34.703,3.416,82.785-52.825c10.98-12.846,171.555-212.517,196.434-246.781c27.006-37.197,27.359-57.504,18.727-83.922
	C2055.108,463.02,2043.817,435.535,2037.948,422.378z"/>
</svg>
