<?xml version="1.0" encoding="utf-8"?>
<!-- Generator: Adobe Illustrator 16.0.0, SVG Export Plug-In . SVG Version: 6.00 Build 0)  -->
<!DOCTYPE svg PUBLIC "-//W3C//DTD SVG 1.1//EN" "http://www.w3.org/Graphics/SVG/1.1/DTD/svg11.dtd">
<svg version="1.1" id="Layer_1" xmlns="http://www.w3.org/2000/svg" xmlns:xlink="http://www.w3.org/1999/xlink" x="0px" y="0px"
	 width="2154.079px" height="1132.387px" viewBox="0 0 2154.079 1132.387" enable-background="new 0 0 2154.079 1132.387"
	 xml:space="preserve">
<path fill="none" stroke="#000001" stroke-linejoin="round" stroke-miterlimit="10" d="M4.729,651.758
	c-1.438-0.87-2.11-3.717-1.659-5.048c1.067-3.146,2.358-6.41,3.775-10.112C13,620.526,122.417,354.505,147.719,293.983
	c12.651-30.26,28.484-74.738,43.602-124.759c20.76-68.689,0.164-112.196-5.991-141.261c-12.309-58.127,1.71-9.916,33.851,4.787
	c32.141,14.702,126.854,42.408,164.81,51.973c198.187,49.94,453.676,91.35,756.685,115.229c12.688,1,13.475,1.56,16.994,20.44
	c3.174,17.014,42,146.666,114.666,144.666c72.668-2,120.334-4.085,212.668-17.333c153.332-22,205.334-146.666,213.334-165.999
	c8-19.334,15.184-28.109,33.236-27.487c50.99,1.759,136.092,3.178,230.092,1.845c25.656-0.364,49.932,2.175,71.959,7.076
	c-2.738,8.344-22.709,62.607-30.387,83.497c-2.887,7.855-6.668,8.03-24.119,8.03c-19.758,0-35.775,16.017-35.775,35.774
	s16.02,35.774,35.775,35.774c19.754,0,35.77-16.018,35.77-35.774c0-5.962-1.725-12.214-4.033-16.526
	c-3.018-5.629-4.773-11.21,3.15-19.546c12.848-13.516,49.754-51.734,70.688-73.398c31.557,15.936,53.209,38.665,59.645,65.732
	c3.822,16.066,6.166,33.659,6.99,50.94c2.053,43.102,3.916,88.485,1.855,135.983c-1.855,42.584-8.586,86.224-49.834,134.812
	c-10.195-3.517-83.623-28.753-103.207-35.457c-2.613-0.896-5.459-0.464-6.801,1.951c-1.338,2.415-0.295,5.188,1.951,6.797
	c16.227,11.597,56.227,40.505,79.234,57.089c-9.674,9.23-84.676,59.015-174.893,111.792
	c-121.203,70.909-268.32,150.341-306.633,173.757c-84.666,51.751-235.666,149.501-335.877,242.644
	c-5.717,5.312-13.438,7.09-18.811,3.435c-14.213-9.668-45.303-30.958-62.865-43.21c-2.542-1.773-3.275-3.854-2.767-5.858
	l0.002,0.001c0-104.698-12.438-189.418-27.811-189.417c-28.144-1.281-60.237-3.948-95.085-7.707
	c-13.295,0-24.053,21.773-24.052,48.681c-0.051,0.931-0.149,1.945-0.274,3.06c-0.546,4.859-2.059,18.319-3.688,32.781
	c-1.042,9.248,1.804,17.748,8.144,24.496c6.977,7.426,17.223,10.123,24.204,17.368c5.735,5.955,9.015,13.55,9.015,21.874
	c0,17.221-13.959,31.181-31.18,31.181c-8.937,0-17.371-3.89-23.313-10.526c-7.653-8.548-6.319-19.281-8.986-29.638
	c-2.737-10.633-10.427-19.769-20.79-23.64c-45.593-8.386-81.928-13.245-85.739-13.76c-4.849-0.717-9.799-1.093-14.679-0.443
	l0.001,0.002c-3.455,0.732-7.776,0.92-12.449,0.348c-13.254-1.621-553.818-67.716-721.34-101.423
	c-47.17-9.489-71.707-28.518-87.765-58.692c0,0-46.979-114.81-53.475-140.109c-2.573-10.021-3.664-18.695-3.38-23.449
	c0.229-3.836,1.086-5.236,3.935-5.486c0.828,0.001,1.499-1.166,1.499-2.609c0-1.401-0.335-2.536-0.749-2.536L4.729,651.758z"/>
</svg>
