<?xml version="1.0" encoding="utf-8"?>
<!-- Generator: Adobe Illustrator 16.0.0, SVG Export Plug-In . SVG Version: 6.00 Build 0)  -->
<!DOCTYPE svg PUBLIC "-//W3C//DTD SVG 1.1//EN" "http://www.w3.org/Graphics/SVG/1.1/DTD/svg11.dtd">
<svg version="1.1" id="Layer_1" xmlns="http://www.w3.org/2000/svg" xmlns:xlink="http://www.w3.org/1999/xlink" x="0px" y="0px"
	 width="1813.521px" height="477.879px" viewBox="0 0 1813.521 477.879" enable-background="new 0 0 1813.521 477.879"
	 xml:space="preserve">
<path fill="none" stroke="#000000" stroke-linejoin="round" stroke-miterlimit="10" d="M1787.177,386.434
	c-36.186-15.188-542.28-187.896-718.991-239.625C891.477,95.077,599.698,39.341,497.017,25.005
	C394.333,10.668,229.778-8.356,183.771,3.969C137.766,16.293,73.095,37.463,66.985,49.278c-6.109,11.814-13.701,29.907,31.902,47.32
	c45.605,17.414,833.367,372.748,833.367,372.748c26.771,12.959,50.229,11.875,91.439-8.211
	c41.211-20.088,138.824-96.449,164.51-106.951c25.688-10.5,39.562-27.105,80.367-17.457c40.812,9.65,287.562,31.535,315.066,41.355
	c27.514,9.818,54.449,36.076,67.01,39.047c12.555,2.971,133.164,11.604,149.6,12.172
	C1816.686,429.875,1823.367,401.623,1787.177,386.434z"/>
</svg>
