<?xml version="1.0" encoding="utf-8"?>
<!-- Generator: Adobe Illustrator 16.0.0, SVG Export Plug-In . SVG Version: 6.00 Build 0)  -->
<!DOCTYPE svg PUBLIC "-//W3C//DTD SVG 1.1//EN" "http://www.w3.org/Graphics/SVG/1.1/DTD/svg11.dtd">
<svg version="1.1" id="Layer_1" xmlns="http://www.w3.org/2000/svg" xmlns:xlink="http://www.w3.org/1999/xlink" x="0px" y="0px"
	 width="1751.16px" height="477.879px" viewBox="0 0 1751.16 477.879" enable-background="new 0 0 1751.16 477.879"
	 xml:space="preserve">
<path d="M1724.816,386.434c-36.188-15.188-542.281-187.896-718.992-239.625C829.116,95.077,537.338,39.341,434.656,25.005
	C331.971,10.668,167.417-8.356,121.41,3.969C75.405,16.293,10.734,37.463,4.624,49.278c-6.108,11.814-13.701,29.907,31.902,47.32
	c45.604,17.414,833.367,372.748,833.367,372.748c26.77,12.959,50.229,11.875,91.438-8.211
	c41.211-20.088,138.824-96.449,164.511-106.951c25.688-10.5,39.562-27.104,80.366-17.457c40.812,9.65,287.562,31.535,315.068,41.355
	c27.512,9.818,54.447,36.076,67.008,39.047c12.556,2.971,133.164,11.604,149.601,12.172
	C1754.324,429.875,1761.007,401.623,1724.816,386.434z"/>
</svg>
