<?xml version="1.0" encoding="utf-8"?>
<!-- Generator: Adobe Illustrator 16.0.0, SVG Export Plug-In . SVG Version: 6.00 Build 0)  -->
<!DOCTYPE svg PUBLIC "-//W3C//DTD SVG 1.1//EN" "http://www.w3.org/Graphics/SVG/1.1/DTD/svg11.dtd">
<svg version="1.1" id="Layer_1" xmlns="http://www.w3.org/2000/svg" xmlns:xlink="http://www.w3.org/1999/xlink" x="0px" y="0px"
	 width="1776.885px" height="722.736px" viewBox="0 0 1776.885 722.736" enable-background="new 0 0 1776.885 722.736"
	 xml:space="preserve">
<path fill="none" stroke="#000000" stroke-linejoin="round" stroke-miterlimit="10" d="M1766.355,613.157
	c-12.062-7.158-218.602-139.111-321.725-205.896c-103.125-66.785-280.168-205.14-288.709-213.336
	c-8.541-8.197-28.102-20.029-42.355-24.245c-14.258-4.216-82.584-23.094-82.756-31.463c-0.176-8.369,40.746-22.733,47.496-23.195
	c6.754-0.461-10.211-26.836-19.674-48.537c-9.463-21.702-15.865-51.193-19.844-56.906c-3.984-5.716-17.373-14.777-32.32-5.777
	c-14.947,9.001-350.539,148.399-446.939,186.937C340.446,278.322,71.261,403.642,71.261,403.642
	c-11.14,6.35-13.043,7.678-7.563,23.66c5.48,15.986,72.35,183.018,77.082,193.863c4.731,10.85,27.527,23.262,52.171,15.992
	c24.642-7.271,154.904-45.691,218.733-57.627c63.83-11.941,171.407-26.068,178.16-26.531c6.753-0.459,19.796-8.135,20.661-12.979
	c0.866-4.849,8.547-38.491,18.241-36.761c9.697,1.73,0.058,18.354,1.846,27.008c1.788,8.658,6.35,11.143,26.604,9.76
	c20.256-1.387,80.277-10.666,182.368,5.904c102.09,16.574,258.654,82.904,309.959,103.744
	c51.303,20.842,124.82,57.324,138.788,63.154c13.966,5.832,33.815,16.049,102.498,4.975
	c68.679-11.068,360.478-85.659,375.888-87.904C1782.109,627.646,1778.418,620.315,1766.355,613.157z M1261.33,490.468
	c-10.473,58.91-66.717,98.179-125.627,87.707c-58.91-10.475-98.18-66.721-87.705-125.631c10.473-58.91,66.717-98.177,125.627-87.705
	C1232.535,375.312,1271.801,431.558,1261.33,490.468z"/>
</svg>
