<?xml version="1.0" encoding="utf-8"?>
<!-- Generator: Adobe Illustrator 16.0.0, SVG Export Plug-In . SVG Version: 6.00 Build 0)  -->
<!DOCTYPE svg PUBLIC "-//W3C//DTD SVG 1.1//EN" "http://www.w3.org/Graphics/SVG/1.1/DTD/svg11.dtd">
<svg version="1.1" id="Layer_1" xmlns="http://www.w3.org/2000/svg" xmlns:xlink="http://www.w3.org/1999/xlink" x="0px" y="0px"
	 width="876.102px" height="416.047px" viewBox="0 0 876.102 416.047" enable-background="new 0 0 876.102 416.047"
	 xml:space="preserve">
<path d="M838.353,23.218c-15.407,2.246-124.026,12.854-214.459,15.037c-90.434,2.185-126.734-9.305-144.68-20.851
	C461.264,5.86,442.45-0.837,428.947,0.084c0,0-375.312,84.681-411.846,93.159c-36.53,8.481-5.483,30.7,9.808,38.439
	c15.294,7.734,408.344,253.056,444.234,276.144c35.896,23.088,48.135-8.072,57.771-24.691
	c9.644-16.623,174.898-232.217,229.438-257.487c22.144-10.26,52.81-15.577,70.7-22.384c17.893-6.81,34.397-33.876,44.901-55.342
	C884.466,26.456,853.763,20.97,838.353,23.218z"/>
</svg>
