<?xml version="1.0" encoding="utf-8"?>
<!-- Generator: Adobe Illustrator 16.0.0, SVG Export Plug-In . SVG Version: 6.00 Build 0)  -->
<!DOCTYPE svg PUBLIC "-//W3C//DTD SVG 1.1//EN" "http://www.w3.org/Graphics/SVG/1.1/DTD/svg11.dtd">
<svg version="1.1" id="Layer_1" xmlns="http://www.w3.org/2000/svg" xmlns:xlink="http://www.w3.org/1999/xlink" x="0px" y="0px"
	 width="742.67px" height="977.006px" viewBox="0 0 742.67 977.006" enable-background="new 0 0 742.67 977.006"
	 xml:space="preserve">
<path fill="none" stroke="#000000" stroke-linejoin="round" stroke-miterlimit="10" d="M672.766,66.015
	c-15.08,10.276-84.309,46.407-121.404,68.927c-37.102,22.52-140.387,79.067-198.031,71.429
	c-57.743,6.914-160.315-49.986-197.126-72.97C119.39,110.416,50.623,73.417,35.674,62.953C20.722,52.489-3.196,46.883,0.355,85.564
	S21.848,504.33,24.652,520.213c2.804,15.885,5.607,31.771,15.883,52.885c10.278,21.115,77.551,123.896,89.885,138.097
	c12.333,14.198,24.105,25.225,39.803,2.803c15.695-22.424,85.583-146.131,98.85-145.195c13.269,0.937-54.188,212.654-58.3,226.48
	c-4.11,13.83-5.418,43.541,6.354,54.562c11.772,11.025,32.142,33.64,32.142,33.64s56.247,58.858,68.579,73.062
	c12.334,14.201,30.639,20.461,30.639,20.461s18.383-6.973,30.895-21.02c12.51-14.045,69.494-72.195,69.494-72.195
	s20.65-22.354,32.561-33.229c11.908-10.877,10.979-40.604,7.037-54.479c-3.936-13.879-68.725-226.43-55.441-227.197
	c13.271-0.766,81.604,123.812,97.018,146.429c15.412,22.616,27.32,11.743,39.832-2.304s81.072-115.969,91.613-136.953
	c10.545-20.981,13.547-36.832,16.551-52.678c3.002-15.847,25.721-395.677,29.758-434.312
	C711.832,50.434,687.844,55.74,672.766,66.015z"/>
</svg>
