<?xml version="1.0" encoding="utf-8"?>
<!-- Generator: Adobe Illustrator 16.0.0, SVG Export Plug-In . SVG Version: 6.00 Build 0)  -->
<!DOCTYPE svg PUBLIC "-//W3C//DTD SVG 1.1//EN" "http://www.w3.org/Graphics/SVG/1.1/DTD/svg11.dtd">
<svg version="1.1" id="Layer_1" xmlns="http://www.w3.org/2000/svg" xmlns:xlink="http://www.w3.org/1999/xlink" x="0px" y="0px"
	 width="1778.51px" height="722.736px" viewBox="0 0 1778.51 722.736" enable-background="new 0 0 1778.51 722.736"
	 xml:space="preserve">
<path fill="none" stroke="#000000" stroke-linejoin="round" stroke-miterlimit="10" d="M113.973,472.089
	c-3.718,0-6.731-3.014-6.731-6.729c0-3.723,3.014-6.732,6.731-6.732c3.719,0,6.732,3.014,6.732,6.732
	C120.706,469.075,117.692,472.089,113.973,472.089z M113.973,420.089c-3.718,0-6.731-3.014-6.731-6.729
	c0-3.723,3.014-6.732,6.731-6.732c3.719,0,6.732,3.014,6.732,6.732C120.706,417.075,117.692,420.089,113.973,420.089z
	 M170.544,576.089c-3.718,0-6.731-3.014-6.731-6.729c0-3.723,3.014-6.732,6.731-6.732c3.719,0,6.732,3.014,6.732,6.732
	C177.276,573.075,174.262,576.089,170.544,576.089z M170.544,524.089c-3.718,0-6.731-3.014-6.731-6.729
	c0-3.723,3.014-6.732,6.731-6.732c3.719,0,6.732,3.014,6.732,6.732C177.276,521.075,174.262,524.089,170.544,524.089z
	 M170.544,472.089c-3.718,0-6.731-3.014-6.731-6.729c0-3.723,3.014-6.732,6.731-6.732c3.719,0,6.732,3.014,6.732,6.732
	C177.276,469.075,174.262,472.089,170.544,472.089z M170.544,420.089c-3.718,0-6.731-3.014-6.731-6.729
	c0-3.723,3.014-6.732,6.731-6.732c3.719,0,6.732,3.014,6.732,6.732C177.276,417.075,174.262,420.089,170.544,420.089z
	 M227.114,576.089c-3.718,0-6.731-3.014-6.731-6.729c0-3.723,3.014-6.732,6.731-6.732c3.719,0,6.732,3.014,6.732,6.732
	C233.846,573.075,230.833,576.089,227.114,576.089z M227.114,524.089c-3.718,0-6.731-3.014-6.731-6.729
	c0-3.723,3.014-6.732,6.731-6.732c3.719,0,6.732,3.014,6.732,6.732C233.846,521.075,230.833,524.089,227.114,524.089z
	 M227.114,472.089c-3.718,0-6.731-3.014-6.731-6.729c0-3.723,3.014-6.732,6.731-6.732c3.719,0,6.732,3.014,6.732,6.732
	C233.846,469.075,230.833,472.089,227.114,472.089z M227.114,420.089c-3.718,0-6.731-3.014-6.731-6.729
	c0-3.723,3.014-6.732,6.731-6.732c3.719,0,6.732,3.014,6.732,6.732C233.846,417.075,230.833,420.089,227.114,420.089z
	 M227.114,354.624c3.718,0,6.732,3.014,6.732,6.732c0,3.718-3.014,6.732-6.732,6.732c-3.718,0-6.732-3.014-6.732-6.732
	C220.382,357.638,223.396,354.624,227.114,354.624z M283.685,576.089c-3.718,0-6.731-3.014-6.731-6.729
	c0-3.723,3.014-6.732,6.731-6.732c3.719,0,6.733,3.014,6.733,6.732C290.417,573.075,287.403,576.089,283.685,576.089z
	 M283.685,524.089c-3.718,0-6.731-3.014-6.731-6.729c0-3.723,3.014-6.732,6.731-6.732c3.719,0,6.733,3.014,6.733,6.732
	C290.417,521.075,287.403,524.089,283.685,524.089z M283.685,472.089c-3.718,0-6.731-3.014-6.731-6.729
	c0-3.723,3.014-6.732,6.731-6.732c3.719,0,6.733,3.014,6.733,6.732C290.417,469.075,287.403,472.089,283.685,472.089z
	 M283.685,420.089c-3.718,0-6.731-3.014-6.731-6.729c0-3.723,3.014-6.732,6.731-6.732c3.719,0,6.733,3.014,6.733,6.732
	C290.417,417.075,287.403,420.089,283.685,420.089z M283.686,354.624c3.718,0,6.732,3.014,6.732,6.732
	c0,3.718-3.014,6.732-6.732,6.732c-3.718,0-6.732-3.014-6.732-6.732C276.954,357.638,279.968,354.624,283.686,354.624z
	 M340.255,576.089c-3.719,0-6.729-3.014-6.729-6.729c0-3.723,3.014-6.732,6.729-6.732s6.732,3.014,6.732,6.732
	C346.987,573.075,343.974,576.089,340.255,576.089z M340.255,524.089c-3.719,0-6.729-3.014-6.729-6.729
	c0-3.723,3.014-6.732,6.729-6.732s6.732,3.014,6.732,6.732C346.987,521.075,343.974,524.089,340.255,524.089z M340.255,472.089
	c-3.719,0-6.729-3.014-6.729-6.729c0-3.723,3.014-6.732,6.729-6.732s6.732,3.014,6.732,6.732
	C346.987,469.075,343.974,472.089,340.255,472.089z M340.255,420.089c-3.719,0-6.729-3.014-6.729-6.729
	c0-3.723,3.014-6.732,6.729-6.732s6.732,3.014,6.732,6.732C346.987,417.075,343.974,420.089,340.255,420.089z M340.255,354.624
	c3.718,0,6.732,3.014,6.732,6.732c0,3.718-3.015,6.732-6.732,6.732s-6.731-3.014-6.731-6.732
	C333.523,357.638,336.537,354.624,340.255,354.624z M340.255,302.624c3.718,0,6.732,3.014,6.732,6.732
	c0,3.718-3.015,6.732-6.732,6.732s-6.731-3.014-6.731-6.732C333.523,305.638,336.537,302.624,340.255,302.624z M396.825,524.089
	c-3.719,0-6.73-3.014-6.73-6.729c0-3.723,3.017-6.732,6.73-6.732s6.729,3.014,6.729,6.732
	C403.558,521.075,400.544,524.089,396.825,524.089z M396.825,472.089c-3.719,0-6.73-3.014-6.73-6.729
	c0-3.723,3.017-6.732,6.73-6.732s6.729,3.014,6.729,6.732C403.558,469.075,400.544,472.089,396.825,472.089z M396.825,420.089
	c-3.719,0-6.73-3.014-6.73-6.729c0-3.723,3.017-6.732,6.73-6.732s6.729,3.014,6.729,6.732
	C403.558,417.075,400.544,420.089,396.825,420.089z M396.825,368.089c-3.719,0-6.73-3.014-6.73-6.733s3.017-6.732,6.73-6.732
	s6.729,3.014,6.729,6.732C403.559,365.075,400.544,368.089,396.825,368.089z M396.825,302.624c3.718,0,6.731,3.014,6.731,6.732
	c0,3.718-3.014,6.732-6.731,6.732s-6.732-3.014-6.732-6.732C390.093,305.638,393.107,302.624,396.825,302.624z M453.396,524.089
	c-3.722,0-6.732-3.014-6.732-6.729c0-3.723,3.016-6.732,6.732-6.732c3.716,0,6.729,3.014,6.729,6.732
	C460.128,521.075,457.114,524.089,453.396,524.089z M453.396,472.089c-3.722,0-6.732-3.014-6.732-6.729
	c0-3.723,3.016-6.732,6.732-6.732c3.716,0,6.729,3.014,6.729,6.732C460.128,469.075,457.114,472.089,453.396,472.089z
	 M453.396,420.089c-3.722,0-6.732-3.014-6.732-6.729c0-3.723,3.016-6.732,6.732-6.732c3.716,0,6.729,3.014,6.729,6.732
	C460.128,417.075,457.114,420.089,453.396,420.089z M453.396,368.089c-3.722,0-6.732-3.014-6.732-6.733s3.016-6.732,6.732-6.732
	c3.716,0,6.729,3.014,6.729,6.732C460.128,365.075,457.114,368.089,453.396,368.089z M453.396,316.088
	c-3.722,0-6.732-3.014-6.732-6.732c0-3.718,3.016-6.732,6.732-6.732c3.716,0,6.729,3.014,6.729,6.732
	C460.128,313.074,457.114,316.088,453.396,316.088z M453.396,264.088c-3.722,0-6.732-3.014-6.732-6.732
	c0-3.718,3.016-6.732,6.732-6.732c3.716,0,6.729,3.014,6.729,6.732C460.128,261.074,457.114,264.088,453.396,264.088z
	 M509.967,524.089c-3.721,0-6.729-3.014-6.729-6.729c0-3.723,3.014-6.732,6.729-6.732s6.73,3.014,6.73,6.732
	C516.698,521.075,513.686,524.089,509.967,524.089z M509.967,472.089c-3.721,0-6.729-3.014-6.729-6.729
	c0-3.723,3.014-6.732,6.729-6.732s6.73,3.014,6.73,6.732C516.698,469.075,513.686,472.089,509.967,472.089z M509.967,420.089
	c-3.721,0-6.729-3.014-6.729-6.729c0-3.723,3.014-6.732,6.729-6.732s6.73,3.014,6.73,6.732
	C516.698,417.075,513.686,420.089,509.967,420.089z M509.967,368.089c-3.721,0-6.729-3.014-6.729-6.733s3.014-6.732,6.729-6.732
	s6.73,3.014,6.73,6.732C516.698,365.075,513.686,368.089,509.967,368.089z M509.967,316.088c-3.721,0-6.729-3.014-6.729-6.732
	c0-3.718,3.014-6.732,6.729-6.732s6.73,3.014,6.73,6.732C516.698,313.074,513.686,316.088,509.967,316.088z M509.967,264.088
	c-3.721,0-6.729-3.014-6.729-6.732c0-3.718,3.014-6.732,6.729-6.732s6.73,3.014,6.73,6.732
	C516.698,261.074,513.686,264.088,509.967,264.088z M566.536,524.089c-3.719,0-6.73-3.014-6.73-6.729
	c0-3.723,3.017-6.732,6.73-6.732s6.729,3.014,6.729,6.732C573.269,521.075,570.255,524.089,566.536,524.089z M566.536,472.089
	c-3.719,0-6.73-3.014-6.73-6.729c0-3.723,3.017-6.732,6.73-6.732s6.729,3.014,6.729,6.732
	C573.269,469.075,570.255,472.089,566.536,472.089z M566.536,420.089c-3.719,0-6.73-3.014-6.73-6.729
	c0-3.723,3.017-6.732,6.73-6.732s6.729,3.014,6.729,6.732C573.269,417.075,570.255,420.089,566.536,420.089z M566.536,368.089
	c-3.719,0-6.73-3.014-6.73-6.733s3.017-6.732,6.73-6.732s6.729,3.014,6.729,6.732C573.27,365.075,570.255,368.089,566.536,368.089z
	 M566.536,302.624c3.718,0,6.731,3.014,6.731,6.732c0,3.718-3.014,6.732-6.731,6.732s-6.732-3.014-6.732-6.732
	C559.804,305.638,562.818,302.624,566.536,302.624z M566.536,250.624c3.718,0,6.731,3.014,6.731,6.732
	c0,3.718-3.014,6.732-6.731,6.732s-6.732-3.014-6.732-6.732C559.804,253.638,562.818,250.624,566.536,250.624z M623.107,472.089
	c-3.722,0-6.732-3.014-6.732-6.729c0-3.723,3.016-6.732,6.732-6.732c3.716,0,6.729,3.014,6.729,6.732
	C629.84,469.075,626.825,472.089,623.107,472.089z M623.107,420.089c-3.722,0-6.732-3.014-6.732-6.729
	c0-3.723,3.016-6.732,6.732-6.732c3.716,0,6.729,3.014,6.729,6.732C629.84,417.075,626.825,420.089,623.107,420.089z
	 M623.107,368.089c-3.722,0-6.732-3.014-6.732-6.733s3.016-6.732,6.732-6.732c3.716,0,6.729,3.014,6.729,6.732
	C629.84,365.075,626.825,368.089,623.107,368.089z M623.107,316.088c-3.722,0-6.732-3.014-6.732-6.732
	c0-3.718,3.016-6.732,6.732-6.732c3.716,0,6.729,3.014,6.729,6.732C629.84,313.074,626.825,316.088,623.107,316.088z
	 M623.107,264.088c-3.722,0-6.732-3.014-6.732-6.732c0-3.718,3.016-6.732,6.732-6.732c3.716,0,6.729,3.014,6.729,6.732
	C629.84,261.074,626.825,264.088,623.107,264.088z M623.107,212.088c-3.722,0-6.732-3.014-6.732-6.732
	c0-3.718,3.016-6.732,6.732-6.732c3.716,0,6.729,3.014,6.729,6.732C629.84,209.074,626.825,212.088,623.107,212.088z
	 M679.678,524.089c-3.721,0-6.729-3.014-6.729-6.729c0-3.723,3.014-6.732,6.729-6.732c3.719,0,6.73,3.014,6.73,6.732
	C686.409,521.075,683.396,524.089,679.678,524.089z M679.678,472.089c-3.721,0-6.729-3.014-6.729-6.729
	c0-3.723,3.014-6.732,6.729-6.732c3.719,0,6.73,3.014,6.73,6.732C686.409,469.075,683.396,472.089,679.678,472.089z
	 M679.678,420.089c-3.721,0-6.729-3.014-6.729-6.729c0-3.723,3.014-6.732,6.729-6.732c3.719,0,6.73,3.014,6.73,6.732
	C686.409,417.075,683.396,420.089,679.678,420.089z M679.678,368.089c-3.721,0-6.729-3.014-6.729-6.733s3.014-6.732,6.729-6.732
	c3.719,0,6.73,3.014,6.73,6.732C686.409,365.075,683.396,368.089,679.678,368.089z M679.678,316.088
	c-3.721,0-6.729-3.014-6.729-6.732c0-3.718,3.014-6.732,6.729-6.732c3.719,0,6.73,3.014,6.73,6.732
	C686.409,313.074,683.396,316.088,679.678,316.088z M679.678,264.088c-3.721,0-6.729-3.014-6.729-6.732
	c0-3.718,3.014-6.732,6.729-6.732c3.719,0,6.73,3.014,6.73,6.732C686.409,261.074,683.396,264.088,679.678,264.088z
	 M679.678,212.088c-3.721,0-6.729-3.014-6.729-6.732c0-3.718,3.014-6.732,6.729-6.732c3.719,0,6.73,3.014,6.73,6.732
	C686.409,209.074,683.396,212.088,679.678,212.088z M736.247,524.089c-3.719,0-6.73-3.014-6.73-6.729
	c0-3.723,3.017-6.732,6.73-6.732c3.718,0,6.731,3.014,6.731,6.732C742.979,521.075,739.967,524.089,736.247,524.089z
	 M736.247,472.089c-3.719,0-6.73-3.014-6.73-6.729c0-3.723,3.017-6.732,6.73-6.732c3.718,0,6.731,3.014,6.731,6.732
	C742.979,469.075,739.967,472.089,736.247,472.089z M736.247,420.089c-3.719,0-6.73-3.014-6.73-6.729
	c0-3.723,3.017-6.732,6.73-6.732c3.718,0,6.731,3.014,6.731,6.732C742.979,417.075,739.967,420.089,736.247,420.089z
	 M736.247,354.624c3.718,0,6.731,3.014,6.731,6.732c0,3.718-3.014,6.732-6.731,6.732s-6.732-3.014-6.732-6.732
	C729.515,357.638,732.529,354.624,736.247,354.624z M736.247,302.624c3.718,0,6.731,3.014,6.731,6.732
	c0,3.718-3.014,6.732-6.731,6.732s-6.732-3.014-6.732-6.732C729.515,305.638,732.529,302.624,736.247,302.624z M736.247,250.624
	c3.718,0,6.731,3.014,6.731,6.732c0,3.718-3.014,6.732-6.731,6.732s-6.732-3.014-6.732-6.732
	C729.515,253.638,732.529,250.624,736.247,250.624z M736.247,198.624c3.718,0,6.731,3.014,6.731,6.732
	c0,3.718-3.014,6.732-6.731,6.732s-6.732-3.014-6.732-6.732C729.515,201.638,732.529,198.624,736.247,198.624z M736.247,146.624
	c3.718,0,6.731,3.014,6.731,6.732c0,3.718-3.014,6.732-6.731,6.732s-6.732-3.014-6.732-6.732
	C729.515,149.638,732.529,146.624,736.247,146.624z M792.818,524.089c-3.722,0-6.732-3.014-6.732-6.729
	c0-3.723,3.016-6.732,6.732-6.732c3.716,0,6.729,3.014,6.729,6.732C799.551,521.075,796.536,524.089,792.818,524.089z
	 M792.818,472.089c-3.722,0-6.732-3.014-6.732-6.729c0-3.723,3.016-6.732,6.732-6.732c3.716,0,6.729,3.014,6.729,6.732
	C799.551,469.075,796.536,472.089,792.818,472.089z M792.818,420.089c-3.722,0-6.732-3.014-6.732-6.729
	c0-3.723,3.016-6.732,6.732-6.732c3.716,0,6.729,3.014,6.729,6.732C799.551,417.075,796.536,420.089,792.818,420.089z
	 M792.818,354.624c3.718,0,6.731,3.014,6.731,6.732c0,3.718-3.014,6.732-6.731,6.732c-3.719,0-6.732-3.014-6.732-6.732
	C786.086,357.638,789.1,354.624,792.818,354.624z M792.818,302.624c3.718,0,6.731,3.014,6.731,6.732
	c0,3.718-3.014,6.732-6.731,6.732c-3.719,0-6.732-3.014-6.732-6.732C786.086,305.638,789.1,302.624,792.818,302.624z
	 M792.818,250.624c3.718,0,6.731,3.014,6.731,6.732c0,3.718-3.014,6.732-6.731,6.732c-3.719,0-6.732-3.014-6.732-6.732
	C786.086,253.638,789.1,250.624,792.818,250.624z M792.818,198.624c3.718,0,6.731,3.014,6.731,6.732
	c0,3.718-3.014,6.732-6.731,6.732c-3.719,0-6.732-3.014-6.732-6.732C786.086,201.638,789.1,198.624,792.818,198.624z
	 M792.818,146.624c3.718,0,6.731,3.014,6.731,6.732c0,3.718-3.014,6.732-6.731,6.732c-3.719,0-6.732-3.014-6.732-6.732
	C786.086,149.638,789.1,146.624,792.818,146.624z M849.389,524.089c-3.721,0-6.729-3.014-6.729-6.729
	c0-3.723,3.014-6.732,6.729-6.732c3.721,0,6.73,3.014,6.73,6.732C856.12,521.075,853.107,524.089,849.389,524.089z M849.389,472.089
	c-3.721,0-6.729-3.014-6.729-6.729c0-3.723,3.014-6.732,6.729-6.732c3.721,0,6.73,3.014,6.73,6.732
	C856.12,469.075,853.107,472.089,849.389,472.089z M849.389,420.089c-3.721,0-6.729-3.014-6.729-6.729
	c0-3.723,3.014-6.732,6.729-6.732c3.721,0,6.73,3.014,6.73,6.732C856.12,417.075,853.107,420.089,849.389,420.089z M849.389,368.089
	c-3.721,0-6.729-3.014-6.729-6.733s3.014-6.732,6.729-6.732c3.721,0,6.73,3.014,6.73,6.732
	C856.12,365.075,853.107,368.089,849.389,368.089z M849.389,316.088c-3.721,0-6.729-3.014-6.729-6.732
	c0-3.718,3.014-6.732,6.729-6.732c3.721,0,6.73,3.014,6.73,6.732C856.12,313.074,853.107,316.088,849.389,316.088z M849.389,264.088
	c-3.721,0-6.729-3.014-6.729-6.732c0-3.718,3.014-6.732,6.729-6.732c3.721,0,6.73,3.014,6.73,6.732
	C856.12,261.074,853.107,264.088,849.389,264.088z M849.389,212.088c-3.721,0-6.729-3.014-6.729-6.732
	c0-3.718,3.014-6.732,6.729-6.732c3.721,0,6.73,3.014,6.73,6.732C856.12,209.074,853.107,212.088,849.389,212.088z M849.389,160.088
	c-3.721,0-6.729-3.014-6.729-6.732c0-3.718,3.014-6.732,6.729-6.732c3.721,0,6.73,3.014,6.73,6.732
	C856.12,157.074,853.107,160.088,849.389,160.088z M849.389,108.088c-3.721,0-6.729-3.014-6.729-6.732
	c0-3.718,3.014-6.732,6.729-6.732c3.721,0,6.73,3.014,6.73,6.732C856.12,105.074,853.107,108.088,849.389,108.088z M905.958,524.089
	c-3.719,0-6.729-3.014-6.729-6.729c0-3.723,3.016-6.732,6.729-6.732c3.72,0,6.732,3.014,6.732,6.732
	C912.69,521.075,909.678,524.089,905.958,524.089z M905.958,472.089c-3.719,0-6.729-3.014-6.729-6.729
	c0-3.723,3.016-6.732,6.729-6.732c3.72,0,6.732,3.014,6.732,6.732C912.69,469.075,909.678,472.089,905.958,472.089z
	 M905.958,420.089c-3.719,0-6.729-3.014-6.729-6.729c0-3.723,3.016-6.732,6.729-6.732c3.72,0,6.732,3.014,6.732,6.732
	C912.69,417.075,909.678,420.089,905.958,420.089z M905.958,368.089c-3.719,0-6.729-3.014-6.729-6.733s3.016-6.732,6.729-6.732
	c3.72,0,6.732,3.014,6.732,6.732C912.691,365.075,909.678,368.089,905.958,368.089z M905.958,316.088
	c-3.719,0-6.729-3.014-6.729-6.732c0-3.718,3.016-6.732,6.729-6.732c3.72,0,6.732,3.014,6.732,6.732
	C912.69,313.074,909.678,316.088,905.958,316.088z M905.958,264.088c-3.719,0-6.729-3.014-6.729-6.732
	c0-3.718,3.016-6.732,6.729-6.732c3.72,0,6.732,3.014,6.732,6.732C912.69,261.074,909.678,264.088,905.958,264.088z
	 M905.958,212.088c-3.719,0-6.729-3.014-6.729-6.732c0-3.718,3.016-6.732,6.729-6.732c3.72,0,6.732,3.014,6.732,6.732
	C912.69,209.074,909.678,212.088,905.958,212.088z M905.958,160.088c-3.719,0-6.729-3.014-6.729-6.732
	c0-3.718,3.016-6.732,6.729-6.732c3.72,0,6.732,3.014,6.732,6.732C912.69,157.074,909.678,160.088,905.958,160.088z
	 M905.958,108.088c-3.719,0-6.729-3.014-6.729-6.732c0-3.718,3.016-6.732,6.729-6.732c3.72,0,6.732,3.014,6.732,6.732
	C912.69,105.074,909.678,108.088,905.958,108.088z M962.529,524.089c-3.722,0-6.732-3.014-6.732-6.729
	c0-3.723,3.014-6.732,6.732-6.732c3.717,0,6.729,3.014,6.729,6.732C969.262,521.075,966.248,524.089,962.529,524.089z
	 M962.529,472.089c-3.722,0-6.732-3.014-6.732-6.729c0-3.723,3.014-6.732,6.732-6.732c3.717,0,6.729,3.014,6.729,6.732
	C969.262,469.075,966.248,472.089,962.529,472.089z M962.529,420.089c-3.722,0-6.732-3.014-6.732-6.729
	c0-3.723,3.014-6.732,6.732-6.732c3.717,0,6.729,3.014,6.729,6.732C969.262,417.075,966.248,420.089,962.529,420.089z
	 M962.529,354.624c3.718,0,6.731,3.014,6.731,6.732c0,3.718-3.014,6.732-6.731,6.732c-3.719,0-6.732-3.014-6.732-6.732
	C955.797,357.638,958.811,354.624,962.529,354.624z M962.529,302.624c3.718,0,6.731,3.014,6.731,6.732
	c0,3.718-3.014,6.732-6.731,6.732c-3.719,0-6.732-3.014-6.732-6.732C955.797,305.638,958.811,302.624,962.529,302.624z
	 M962.529,250.624c3.718,0,6.731,3.014,6.731,6.732c0,3.718-3.014,6.732-6.731,6.732c-3.719,0-6.732-3.014-6.732-6.732
	C955.797,253.638,958.811,250.624,962.529,250.624z M962.529,198.624c3.718,0,6.731,3.014,6.731,6.732
	c0,3.718-3.014,6.732-6.731,6.732c-3.719,0-6.732-3.014-6.732-6.732C955.797,201.638,958.811,198.624,962.529,198.624z
	 M962.529,146.624c3.718,0,6.731,3.014,6.731,6.732c0,3.718-3.014,6.732-6.731,6.732c-3.719,0-6.732-3.014-6.732-6.732
	C955.797,149.638,958.811,146.624,962.529,146.624z M962.529,94.624c3.718,0,6.731,3.014,6.731,6.732
	c0,3.718-3.014,6.732-6.731,6.732c-3.719,0-6.732-3.014-6.732-6.732C955.797,97.638,958.811,94.624,962.529,94.624z M962.529,42.624
	c3.718,0,6.731,3.014,6.731,6.732c0,3.718-3.014,6.732-6.731,6.732c-3.719,0-6.732-3.014-6.732-6.732
	C955.797,45.638,958.811,42.624,962.529,42.624z M1019.1,576.089c-3.721,0-6.729-3.014-6.729-6.729c0-3.723,3.016-6.732,6.729-6.732
	c3.719,0,6.73,3.014,6.73,6.732C1025.83,573.075,1022.818,576.089,1019.1,576.089z M1019.1,524.089
	c-3.721,0-6.729-3.014-6.729-6.729c0-3.723,3.016-6.732,6.729-6.732c3.719,0,6.73,3.014,6.73,6.732
	C1025.83,521.075,1022.818,524.089,1019.1,524.089z M1019.1,472.089c-3.721,0-6.729-3.014-6.729-6.729
	c0-3.723,3.016-6.732,6.729-6.732c3.719,0,6.73,3.014,6.73,6.732C1025.83,469.075,1022.818,472.089,1019.1,472.089z M1019.1,420.089
	c-3.721,0-6.729-3.014-6.729-6.729c0-3.723,3.016-6.732,6.729-6.732c3.719,0,6.73,3.014,6.73,6.732
	C1025.83,417.075,1022.818,420.089,1019.1,420.089z M1019.1,368.089c-3.721,0-6.729-3.014-6.729-6.733s3.016-6.732,6.729-6.732
	c3.719,0,6.73,3.014,6.73,6.732C1025.832,365.075,1022.818,368.089,1019.1,368.089z M1019.1,316.088
	c-3.721,0-6.729-3.014-6.729-6.732c0-3.718,3.016-6.732,6.729-6.732c3.719,0,6.73,3.014,6.73,6.732
	C1025.83,313.074,1022.818,316.088,1019.1,316.088z M1019.1,264.088c-3.721,0-6.729-3.014-6.729-6.732
	c0-3.718,3.016-6.732,6.729-6.732c3.719,0,6.73,3.014,6.73,6.732C1025.83,261.074,1022.818,264.088,1019.1,264.088z M1019.1,212.088
	c-3.721,0-6.729-3.014-6.729-6.732c0-3.718,3.016-6.732,6.729-6.732c3.719,0,6.73,3.014,6.73,6.732
	C1025.83,209.074,1022.818,212.088,1019.1,212.088z M1019.1,108.088c-3.721,0-6.729-3.014-6.729-6.732
	c0-3.718,3.016-6.732,6.729-6.732c3.719,0,6.73,3.014,6.73,6.732C1025.83,105.074,1022.818,108.088,1019.1,108.088z M1019.1,56.088
	c-3.721,0-6.729-3.014-6.729-6.732c0-3.718,3.016-6.732,6.729-6.732c3.719,0,6.73,3.014,6.73,6.732
	C1025.83,53.074,1022.818,56.088,1019.1,56.088z M1245.381,302.624c3.718,0,6.732,3.014,6.732,6.732
	c0,3.718-3.015,6.732-6.732,6.732s-6.732-3.014-6.732-6.732C1238.648,305.638,1241.663,302.624,1245.381,302.624z M1245.381,354.624
	c3.718,0,6.732,3.014,6.732,6.732c0,3.718-3.015,6.732-6.732,6.732s-6.732-3.014-6.732-6.732
	C1238.648,357.638,1241.663,354.624,1245.381,354.624z M1188.811,250.624c3.722,0,6.73,3.014,6.73,6.732
	c0,3.718-3.014,6.732-6.73,6.732c-3.719,0-6.729-3.014-6.729-6.732C1182.078,253.638,1185.092,250.624,1188.811,250.624z
	 M1188.811,302.624c3.722,0,6.73,3.014,6.73,6.732c0,3.718-3.014,6.732-6.73,6.732c-3.719,0-6.729-3.014-6.729-6.732
	C1182.078,305.638,1185.092,302.624,1188.811,302.624z M1132.24,198.624c3.719,0,6.729,3.014,6.729,6.732
	c0,3.718-3.018,6.732-6.729,6.732c-3.719,0-6.732-3.014-6.732-6.732C1125.508,201.638,1128.521,198.624,1132.24,198.624z
	 M1132.24,250.624c3.719,0,6.729,3.014,6.729,6.732c0,3.718-3.018,6.732-6.729,6.732c-3.719,0-6.732-3.014-6.732-6.732
	C1125.508,253.638,1128.521,250.624,1132.24,250.624z M1132.24,302.624c3.719,0,6.729,3.014,6.729,6.732
	c0,3.718-3.018,6.732-6.729,6.732c-3.719,0-6.732-3.014-6.732-6.732C1125.508,305.638,1128.521,302.624,1132.24,302.624z
	 M1075.67,198.624c3.718,0,6.732,3.014,6.732,6.732c0,3.718-3.015,6.732-6.732,6.732s-6.732-3.014-6.732-6.732
	C1068.938,201.638,1071.952,198.624,1075.67,198.624z M1075.67,250.624c3.718,0,6.732,3.014,6.732,6.732
	c0,3.718-3.015,6.732-6.732,6.732s-6.732-3.014-6.732-6.732C1068.938,253.638,1071.952,250.624,1075.67,250.624z M1075.67,302.624
	c3.718,0,6.732,3.014,6.732,6.732c0,3.718-3.015,6.732-6.732,6.732s-6.732-3.014-6.732-6.732
	C1068.938,305.638,1071.952,302.624,1075.67,302.624z M1075.67,354.624c3.718,0,6.732,3.014,6.732,6.732
	c0,3.718-3.015,6.732-6.732,6.732s-6.732-3.014-6.732-6.732C1068.938,357.638,1071.952,354.624,1075.67,354.624z M1075.67,576.089
	c-3.719,0-6.732-3.014-6.732-6.729c0-3.723,3.017-6.732,6.732-6.732s6.732,3.014,6.732,6.732
	C1082.402,573.075,1079.389,576.089,1075.67,576.089z M1132.24,628.089c-3.719,0-6.732-3.014-6.732-6.729
	c0-3.723,3.014-6.732,6.732-6.732c3.717,0,6.729,3.014,6.729,6.732C1138.973,625.075,1135.959,628.089,1132.24,628.089z
	 M1188.811,628.089c-3.719,0-6.729-3.014-6.729-6.729c0-3.723,3.016-6.732,6.729-6.732c3.719,0,6.73,3.014,6.73,6.732
	C1195.541,625.075,1192.529,628.089,1188.811,628.089z M1245.381,680.089c-3.719,0-6.732-3.014-6.732-6.729
	c0-3.723,3.017-6.732,6.732-6.732s6.732,3.014,6.732,6.732C1252.113,677.075,1249.1,680.089,1245.381,680.089z M1245.381,628.089
	c-3.719,0-6.732-3.014-6.732-6.729c0-3.723,3.017-6.732,6.732-6.732s6.732,3.014,6.732,6.732
	C1252.113,625.075,1249.1,628.089,1245.381,628.089z M1245.381,576.089c-3.719,0-6.732-3.014-6.732-6.729
	c0-3.723,3.017-6.732,6.732-6.732s6.732,3.014,6.732,6.732C1252.113,573.075,1249.1,576.089,1245.381,576.089z M1156.289,363.168
	c59.833,0,108.338,48.505,108.338,108.338c0,59.834-48.505,108.338-108.338,108.338c-59.834,0-108.338-48.504-108.338-108.338
	C1047.951,411.673,1096.455,363.168,1156.289,363.168z M1301.951,680.089c-3.719,0-6.732-3.014-6.732-6.729
	c0-3.723,3.017-6.732,6.732-6.732s6.732,3.014,6.732,6.732C1308.684,677.075,1305.67,680.089,1301.951,680.089z M1301.951,628.089
	c-3.719,0-6.732-3.014-6.732-6.729c0-3.723,3.017-6.732,6.732-6.732s6.732,3.014,6.732,6.732
	C1308.684,625.075,1305.67,628.089,1301.951,628.089z M1301.951,576.089c-3.719,0-6.732-3.014-6.732-6.729
	c0-3.723,3.017-6.732,6.732-6.732s6.732,3.014,6.732,6.732C1308.684,573.075,1305.67,576.089,1301.951,576.089z M1301.951,524.089
	c-3.719,0-6.732-3.014-6.732-6.729c0-3.723,3.017-6.732,6.732-6.732s6.732,3.014,6.732,6.732
	C1308.684,521.075,1305.67,524.089,1301.951,524.089z M1301.951,472.089c-3.719,0-6.732-3.014-6.732-6.729
	c0-3.723,3.017-6.732,6.732-6.732s6.732,3.014,6.732,6.732C1308.684,469.075,1305.67,472.089,1301.951,472.089z M1301.951,420.089
	c-3.719,0-6.732-3.014-6.732-6.729c0-3.723,3.017-6.732,6.732-6.732s6.732,3.014,6.732,6.732
	C1308.684,417.075,1305.67,420.089,1301.951,420.089z M1301.951,354.624c3.718,0,6.732,3.014,6.732,6.732
	c0,3.718-3.015,6.732-6.732,6.732s-6.732-3.014-6.732-6.732C1295.219,357.638,1298.233,354.624,1301.951,354.624z M1358.521,680.089
	c-3.722,0-6.732-3.014-6.732-6.729c0-3.723,3.016-6.732,6.732-6.732c3.716,0,6.729,3.014,6.729,6.732
	C1365.254,677.075,1362.24,680.089,1358.521,680.089z M1358.521,628.089c-3.722,0-6.732-3.014-6.732-6.729
	c0-3.723,3.016-6.732,6.732-6.732c3.716,0,6.729,3.014,6.729,6.732C1365.254,625.075,1362.24,628.089,1358.521,628.089z
	 M1358.521,576.089c-3.722,0-6.732-3.014-6.732-6.729c0-3.723,3.016-6.732,6.732-6.732c3.716,0,6.729,3.014,6.729,6.732
	C1365.254,573.075,1362.24,576.089,1358.521,576.089z M1358.521,524.089c-3.722,0-6.732-3.014-6.732-6.729
	c0-3.723,3.016-6.732,6.732-6.732c3.716,0,6.729,3.014,6.729,6.732C1365.254,521.075,1362.24,524.089,1358.521,524.089z
	 M1358.521,472.089c-3.722,0-6.732-3.014-6.732-6.729c0-3.723,3.016-6.732,6.732-6.732c3.716,0,6.729,3.014,6.729,6.732
	C1365.254,469.075,1362.24,472.089,1358.521,472.089z M1358.521,420.089c-3.722,0-6.732-3.014-6.732-6.729
	c0-3.723,3.016-6.732,6.732-6.732c3.716,0,6.729,3.014,6.729,6.732C1365.254,417.075,1362.24,420.089,1358.521,420.089z
	 M1415.092,680.089c-3.721,0-6.729-3.014-6.729-6.729c0-3.723,3.014-6.732,6.729-6.732s6.73,3.014,6.73,6.732
	C1421.822,677.075,1418.811,680.089,1415.092,680.089z M1415.092,628.089c-3.721,0-6.729-3.014-6.729-6.729
	c0-3.723,3.014-6.732,6.729-6.732s6.73,3.014,6.73,6.732C1421.822,625.075,1418.811,628.089,1415.092,628.089z M1415.092,576.089
	c-3.721,0-6.729-3.014-6.729-6.729c0-3.723,3.014-6.732,6.729-6.732s6.73,3.014,6.73,6.732
	C1421.822,573.075,1418.811,576.089,1415.092,576.089z M1415.092,524.089c-3.721,0-6.729-3.014-6.729-6.729
	c0-3.723,3.014-6.732,6.729-6.732s6.73,3.014,6.73,6.732C1421.822,521.075,1418.811,524.089,1415.092,524.089z M1415.092,472.089
	c-3.721,0-6.729-3.014-6.729-6.729c0-3.723,3.014-6.732,6.729-6.732s6.73,3.014,6.73,6.732
	C1421.822,469.075,1418.811,472.089,1415.092,472.089z M1415.092,420.089c-3.721,0-6.729-3.014-6.729-6.729
	c0-3.723,3.014-6.732,6.729-6.732s6.73,3.014,6.73,6.732C1421.822,417.075,1418.811,420.089,1415.092,420.089z M1471.662,680.089
	c-3.719,0-6.732-3.014-6.732-6.729c0-3.723,3.017-6.732,6.732-6.732s6.732,3.014,6.732,6.732
	C1478.395,677.075,1475.381,680.089,1471.662,680.089z M1471.662,628.089c-3.719,0-6.732-3.014-6.732-6.729
	c0-3.723,3.017-6.732,6.732-6.732s6.732,3.014,6.732,6.732C1478.395,625.075,1475.381,628.089,1471.662,628.089z M1471.662,576.089
	c-3.719,0-6.732-3.014-6.732-6.729c0-3.723,3.017-6.732,6.732-6.732s6.732,3.014,6.732,6.732
	C1478.395,573.075,1475.381,576.089,1471.662,576.089z M1471.662,524.089c-3.719,0-6.732-3.014-6.732-6.729
	c0-3.723,3.017-6.732,6.732-6.732s6.732,3.014,6.732,6.732C1478.395,521.075,1475.381,524.089,1471.662,524.089z M1471.662,472.089
	c-3.719,0-6.732-3.014-6.732-6.729c0-3.723,3.017-6.732,6.732-6.732s6.732,3.014,6.732,6.732
	C1478.395,469.075,1475.381,472.089,1471.662,472.089z M1528.232,628.089c-3.722,0-6.732-3.014-6.732-6.729
	c0-3.723,3.016-6.732,6.732-6.732c3.716,0,6.729,3.014,6.729,6.732C1534.965,625.075,1531.951,628.089,1528.232,628.089z
	 M1528.232,576.089c-3.722,0-6.732-3.014-6.732-6.729c0-3.723,3.016-6.732,6.732-6.732c3.716,0,6.729,3.014,6.729,6.732
	C1534.965,573.075,1531.951,576.089,1528.232,576.089z M1528.232,524.089c-3.722,0-6.732-3.014-6.732-6.729
	c0-3.723,3.016-6.732,6.732-6.732c3.716,0,6.729,3.014,6.729,6.732C1534.965,521.075,1531.951,524.089,1528.232,524.089z
	 M1584.803,628.089c-3.721,0-6.729-3.014-6.729-6.729c0-3.723,3.014-6.732,6.729-6.732s6.73,3.014,6.73,6.732
	C1591.533,625.075,1588.521,628.089,1584.803,628.089z M1584.803,576.089c-3.721,0-6.729-3.014-6.729-6.729
	c0-3.723,3.014-6.732,6.729-6.732s6.73,3.014,6.73,6.732C1591.533,573.075,1588.521,576.089,1584.803,576.089z M1584.803,524.089
	c-3.721,0-6.729-3.014-6.729-6.729c0-3.723,3.014-6.732,6.729-6.732s6.73,3.014,6.73,6.732
	C1591.533,521.075,1588.521,524.089,1584.803,524.089z M1641.373,628.089c-3.719,0-6.732-3.014-6.732-6.729
	c0-3.723,3.017-6.732,6.732-6.732s6.732,3.014,6.732,6.732C1648.105,625.075,1645.092,628.089,1641.373,628.089z M1641.373,576.089
	c-3.719,0-6.732-3.014-6.732-6.729c0-3.723,3.017-6.732,6.732-6.732s6.732,3.014,6.732,6.732
	C1648.105,573.075,1645.092,576.089,1641.373,576.089z M1697.943,628.089c-3.722,0-6.732-3.014-6.732-6.729
	c0-3.723,3.016-6.732,6.732-6.732c3.716,0,6.729,3.014,6.729,6.732C1704.676,625.075,1701.662,628.089,1697.943,628.089z
	 M64.901,426.056c-1.894-1.782-4.042-3.909-6.732-2.145c-5.396,9.299-15.462,15.553-26.988,15.553
	C13.96,439.464,0,425.504,0,408.283c0-17.222,13.96-31.181,31.181-31.181c14.98,0,27.493,10.562,30.495,24.647
	c2.244,3.634,5.616,3.776,9.479,2.883c0.55-0.317,1.127-0.647,1.731-0.993c0,0,269.185-125.319,488.268-212.903
	C657.554,152.2,993.146,12.802,1008.093,3.801c14.947-9,28.336,0.061,32.32,5.777c3.979,5.713,10.381,35.204,19.844,56.906
	c9.463,21.701,26.428,48.076,19.674,48.537c-6.75,0.462-47.672,14.826-47.496,23.195c0.173,8.369,68.498,27.247,82.757,31.463
	c14.254,4.216,33.813,16.048,42.354,24.245c8.541,8.196,185.584,146.551,288.709,213.336
	c103.123,66.785,309.662,198.738,321.725,205.896c12.063,7.158,15.755,14.488,0.344,16.742
	c-15.41,2.244-307.209,76.836-375.889,87.903c-68.683,11.074-88.532,0.857-102.498-4.975c-13.968-5.83-87.484-42.312-138.788-63.154
	c-51.305-20.84-207.869-87.17-309.959-103.744c-102.091-16.569-162.111-7.291-182.367-5.903
	c-20.256,1.383-24.816-1.103-26.604-9.761c-1.788-8.652,7.853-25.276-1.846-27.008c-9.694-1.729-17.375,31.912-18.241,36.761
	c-0.865,4.846-13.908,12.521-20.661,12.979c-6.753,0.463-114.33,14.59-178.16,26.531c-63.829,11.936-194.092,50.354-218.733,57.627
	c-24.644,7.27-47.44-5.144-52.171-15.992c-4.732-10.846-71.602-177.877-77.082-193.863c-0.146-0.425-0.286-0.84-0.421-1.244H64.901z
	"/>
</svg>
