<?xml version="1.0" encoding="utf-8"?>
<!-- Generator: Adobe Illustrator 16.0.0, SVG Export Plug-In . SVG Version: 6.00 Build 0)  -->
<!DOCTYPE svg PUBLIC "-//W3C//DTD SVG 1.1//EN" "http://www.w3.org/Graphics/SVG/1.1/DTD/svg11.dtd">
<svg version="1.1" id="Layer_1" xmlns="http://www.w3.org/2000/svg" xmlns:xlink="http://www.w3.org/1999/xlink" x="0px" y="0px"
	 width="1078.226px" height="367.73px" viewBox="0 0 1078.226 367.73" enable-background="new 0 0 1078.226 367.73"
	 xml:space="preserve">
<path fill="none" stroke="#000000" stroke-linejoin="round" stroke-miterlimit="10" d="M76.885,64.654
	c-5.473-3.992-14.399-12.285-21.286-6.312C49.887,65.525,41.072,70.13,31.181,70.13C13.96,70.13,0,56.17,0,38.949
	S13.96,7.768,31.181,7.768c16.772,0,30.451,13.242,31.151,29.843c2.284,8.398,13.201,5.625,19.473,5.625c0.627,0,1.254,0,1.882,0
	L293.237,0c0,0,131.639,77.518,161.291,93.647c94.203,51.25,110.99,12.629,200.599,10.045c198.244-5.713,423.1-80.688,423.1-80.688
	S966.955,128.081,907.388,212.56c-59.57,84.483-110.996,132.219-122.193,143.553c-11.195,11.334-27.789,17.34-56.41,3.994
	c-28.623-13.349-296.819-148.406-364.522-166.021c-67.703-17.611-141.203-0.642-163.807-12.521
	C183.08,172.435,109.837,98.41,76.882,64.65L76.885,64.654z"/>
</svg>
