<?xml version="1.0" encoding="utf-8"?>
<!-- Generator: Adobe Illustrator 16.0.0, SVG Export Plug-In . SVG Version: 6.00 Build 0)  -->
<!DOCTYPE svg PUBLIC "-//W3C//DTD SVG 1.1//EN" "http://www.w3.org/Graphics/SVG/1.1/DTD/svg11.dtd">
<svg version="1.1" id="Layer_1" xmlns="http://www.w3.org/2000/svg" xmlns:xlink="http://www.w3.org/1999/xlink" x="0px" y="0px"
	 width="524.399px" height="696.464px" viewBox="0 0 524.399 696.464" enable-background="new 0 0 524.399 696.464"
	 xml:space="preserve">
<path fill="none" stroke="#000000" stroke-linejoin="round" stroke-miterlimit="10" d="M485.18,635.146
	c2.562-0.682,5.258-1.045,8.037-1.045c17.221,0,31.182,13.961,31.182,31.182s-13.961,31.182-31.182,31.182
	s-31.182-13.961-31.182-31.182c0-6.166,1.791-11.914,4.879-16.754c0.686-2.582-1.139-4.562-3.508-5.244
	c-5.691-0.357-12.867-2.395-21.879-6.047C330.958,592.412,178.616,517.107,106.513,371.6
	C73.552,305.084,20.643,133.609,4.222,91.271C-11.244,51.402,18.07,31.489,55.016,26.856C74.449,24.42,377.299,0,377.299,0
	s17.439,124.229,26.164,165.821c8.727,41.595,78.918,376.429,80.246,424.782c0.479,17.379,0.139,30.305-2.283,39.01
	C481.446,632.542,481.696,634.835,485.18,635.146z"/>
</svg>
