<?xml version="1.0" encoding="utf-8"?>
<!-- Generator: Adobe Illustrator 16.0.0, SVG Export Plug-In . SVG Version: 6.00 Build 0)  -->
<!DOCTYPE svg PUBLIC "-//W3C//DTD SVG 1.1//EN" "http://www.w3.org/Graphics/SVG/1.1/DTD/svg11.dtd">
<svg version="1.1" id="Layer_1" xmlns="http://www.w3.org/2000/svg" xmlns:xlink="http://www.w3.org/1999/xlink" x="0px" y="0px"
	 width="1300.752px" height="618.496px" viewBox="0 0 1300.752 618.496" enable-background="new 0 0 1300.752 618.496"
	 xml:space="preserve">
<path fill="none" stroke="#000000" stroke-linejoin="round" stroke-miterlimit="10" d="M32.621,367.857
	c-3.719,0-6.732-3.019-6.732-6.731s3.014-6.731,6.732-6.731c3.718,0,6.732,3.019,6.732,6.731S36.338,367.857,32.621,367.857z
	 M32.621,315.857c-3.719,0-6.732-3.018-6.732-6.731s3.014-6.732,6.732-6.732c3.718,0,6.732,3.014,6.732,6.732
	S36.338,315.857,32.621,315.857z M32.621,250.394c3.718,0,6.732,3.014,6.732,6.732s-3.014,6.732-6.732,6.732
	c-3.718,0-6.732-3.014-6.732-6.732S28.903,250.394,32.621,250.394z M89.19,471.858c-3.719,0-6.732-3.02-6.732-6.732
	s3.014-6.731,6.732-6.731c3.718,0,6.732,3.019,6.732,6.731S92.91,471.858,89.19,471.858z M89.19,419.857
	c-3.719,0-6.732-3.019-6.732-6.731s3.014-6.731,6.732-6.731c3.718,0,6.732,3.019,6.732,6.731S92.91,419.857,89.19,419.857z
	 M89.19,367.857c-3.719,0-6.732-3.019-6.732-6.731s3.014-6.731,6.732-6.731c3.718,0,6.732,3.019,6.732,6.731
	S92.91,367.857,89.19,367.857z M89.19,315.857c-3.719,0-6.732-3.018-6.732-6.731s3.014-6.732,6.732-6.732
	c3.718,0,6.732,3.014,6.732,6.732S92.91,315.857,89.19,315.857z M89.19,250.394c3.718,0,6.732,3.014,6.732,6.732
	s-3.014,6.732-6.732,6.732c-3.718,0-6.732-3.014-6.732-6.732S85.472,250.394,89.19,250.394z M89.19,198.394
	c3.718,0,6.732,3.014,6.732,6.732s-3.014,6.732-6.732,6.732c-3.718,0-6.732-3.014-6.732-6.732S85.472,198.394,89.19,198.394z
	 M89.19,146.394c3.718,0,6.732,3.014,6.732,6.732s-3.014,6.732-6.732,6.732c-3.718,0-6.732-3.014-6.732-6.732
	S85.472,146.394,89.19,146.394z M145.76,523.858c-3.719,0-6.732-3.02-6.732-6.732s3.014-6.732,6.732-6.732
	c3.718,0,6.732,3.02,6.732,6.732S149.479,523.858,145.76,523.858z M145.76,471.858c-3.719,0-6.732-3.02-6.732-6.732
	s3.014-6.731,6.732-6.731c3.718,0,6.732,3.019,6.732,6.731S149.479,471.858,145.76,471.858z M145.76,419.857
	c-3.719,0-6.732-3.019-6.732-6.731s3.014-6.731,6.732-6.731c3.718,0,6.732,3.019,6.732,6.731S149.479,419.857,145.76,419.857z
	 M145.76,367.857c-3.719,0-6.732-3.019-6.732-6.731s3.014-6.731,6.732-6.731c3.718,0,6.732,3.019,6.732,6.731
	S149.479,367.857,145.76,367.857z M145.76,315.857c-3.719,0-6.732-3.018-6.732-6.731s3.014-6.732,6.732-6.732
	c3.718,0,6.732,3.014,6.732,6.732S149.479,315.857,145.76,315.857z M145.76,250.394c3.718,0,6.732,3.014,6.732,6.732
	s-3.014,6.732-6.732,6.732c-3.718,0-6.732-3.014-6.732-6.732S142.042,250.394,145.76,250.394z M145.76,198.394
	c3.718,0,6.732,3.014,6.732,6.732s-3.014,6.732-6.732,6.732c-3.718,0-6.732-3.014-6.732-6.732S142.042,198.394,145.76,198.394z
	 M145.76,146.394c3.718,0,6.732,3.014,6.732,6.732s-3.014,6.732-6.732,6.732c-3.718,0-6.732-3.014-6.732-6.732
	S142.042,146.394,145.76,146.394z M145.76,94.394c3.718,0,6.732,3.014,6.732,6.732s-3.014,6.732-6.732,6.732
	c-3.718,0-6.732-3.014-6.732-6.732S142.042,94.394,145.76,94.394z M202.332,471.858c-3.719,0-6.732-3.02-6.732-6.732
	s3.014-6.731,6.732-6.731s6.732,3.019,6.732,6.731S206.049,471.858,202.332,471.858z M202.332,419.857
	c-3.719,0-6.732-3.019-6.732-6.731s3.014-6.731,6.732-6.731s6.732,3.019,6.732,6.731S206.049,419.857,202.332,419.857z
	 M202.332,367.857c-3.719,0-6.732-3.019-6.732-6.731s3.014-6.731,6.732-6.731s6.732,3.019,6.732,6.731
	S206.049,367.857,202.332,367.857z M202.332,315.857c-3.719,0-6.732-3.018-6.732-6.731s3.014-6.732,6.732-6.732
	s6.732,3.014,6.732,6.732S206.049,315.857,202.332,315.857z M202.332,250.394c3.718,0,6.732,3.014,6.732,6.732
	s-3.014,6.732-6.732,6.732s-6.732-3.014-6.732-6.732S198.614,250.394,202.332,250.394z M202.332,198.394
	c3.718,0,6.732,3.014,6.732,6.732s-3.014,6.732-6.732,6.732s-6.732-3.014-6.732-6.732S198.614,198.394,202.332,198.394z
	 M202.332,146.394c3.718,0,6.732,3.014,6.732,6.732s-3.014,6.732-6.732,6.732s-6.732-3.014-6.732-6.732
	S198.614,146.394,202.332,146.394z M202.332,94.394c3.718,0,6.732,3.014,6.732,6.732s-3.014,6.732-6.732,6.732
	s-6.732-3.014-6.732-6.732S198.614,94.394,202.332,94.394z M258.901,471.858c-3.719,0-6.732-3.02-6.732-6.732
	s3.014-6.731,6.732-6.731c3.718,0,6.732,3.019,6.732,6.731S262.621,471.858,258.901,471.858z M258.901,419.857
	c-3.719,0-6.732-3.019-6.732-6.731s3.014-6.731,6.732-6.731c3.718,0,6.732,3.019,6.732,6.731S262.621,419.857,258.901,419.857z
	 M258.901,367.857c-3.719,0-6.732-3.019-6.732-6.731s3.014-6.731,6.732-6.731c3.718,0,6.732,3.019,6.732,6.731
	S262.621,367.857,258.901,367.857z M258.901,315.857c-3.719,0-6.732-3.018-6.732-6.731s3.014-6.732,6.732-6.732
	c3.718,0,6.732,3.014,6.732,6.732S262.621,315.857,258.901,315.857z M258.901,250.394c3.718,0,6.732,3.014,6.732,6.732
	s-3.014,6.732-6.732,6.732c-3.718,0-6.732-3.014-6.732-6.732S255.183,250.394,258.901,250.394z M258.901,198.394
	c3.718,0,6.732,3.014,6.732,6.732s-3.014,6.732-6.732,6.732c-3.718,0-6.732-3.014-6.732-6.732S255.183,198.394,258.901,198.394z
	 M258.901,146.394c3.718,0,6.732,3.014,6.732,6.732s-3.014,6.732-6.732,6.732c-3.718,0-6.732-3.014-6.732-6.732
	S255.183,146.394,258.901,146.394z M258.901,94.394c3.718,0,6.732,3.014,6.732,6.732s-3.014,6.732-6.732,6.732
	c-3.718,0-6.732-3.014-6.732-6.732S255.183,94.394,258.901,94.394z M315.471,419.857c-3.719,0-6.729-3.019-6.729-6.731
	s3.014-6.731,6.729-6.731c3.723,0,6.732,3.019,6.732,6.731S319.191,419.857,315.471,419.857z M315.471,367.857
	c-3.719,0-6.729-3.019-6.729-6.731s3.014-6.731,6.729-6.731c3.723,0,6.732,3.019,6.732,6.731S319.191,367.857,315.471,367.857z
	 M315.471,315.857c-3.719,0-6.729-3.018-6.729-6.731s3.014-6.732,6.729-6.732c3.723,0,6.732,3.014,6.732,6.732
	S319.191,315.857,315.471,315.857z M315.471,263.858c-3.719,0-6.729-3.014-6.729-6.732s3.014-6.732,6.729-6.732
	c3.723,0,6.732,3.014,6.732,6.732S319.191,263.858,315.471,263.858z M315.471,211.858c-3.719,0-6.729-3.014-6.729-6.732
	s3.014-6.732,6.729-6.732c3.723,0,6.732,3.014,6.732,6.732S319.191,211.858,315.471,211.858z M315.471,159.858
	c-3.719,0-6.729-3.014-6.729-6.732s3.014-6.732,6.729-6.732c3.723,0,6.732,3.014,6.732,6.732S319.191,159.858,315.471,159.858z
	 M315.471,107.858c-3.719,0-6.729-3.014-6.729-6.732s3.014-6.732,6.729-6.732c3.723,0,6.732,3.014,6.732,6.732
	S319.191,107.858,315.471,107.858z M372.042,419.857c-3.719,0-6.732-3.019-6.732-6.731s3.019-6.731,6.732-6.731
	s6.732,3.019,6.732,6.731S375.76,419.857,372.042,419.857z M372.042,367.857c-3.719,0-6.732-3.019-6.732-6.731
	s3.019-6.731,6.732-6.731s6.732,3.019,6.732,6.731S375.76,367.857,372.042,367.857z M372.042,315.857
	c-3.719,0-6.732-3.018-6.732-6.731s3.019-6.732,6.732-6.732s6.732,3.014,6.732,6.732S375.76,315.857,372.042,315.857z
	 M372.042,263.858c-3.719,0-6.732-3.014-6.732-6.732s3.019-6.732,6.732-6.732s6.732,3.014,6.732,6.732
	S375.76,263.858,372.042,263.858z M372.042,211.858c-3.719,0-6.732-3.014-6.732-6.732s3.019-6.732,6.732-6.732
	s6.732,3.014,6.732,6.732S375.76,211.858,372.042,211.858z M372.042,159.858c-3.719,0-6.732-3.014-6.732-6.732
	s3.019-6.732,6.732-6.732s6.732,3.014,6.732,6.732S375.76,159.858,372.042,159.858z M372.042,107.858
	c-3.719,0-6.732-3.014-6.732-6.732s3.019-6.732,6.732-6.732s6.732,3.014,6.732,6.732S375.76,107.858,372.042,107.858z
	 M372.042,55.858c-3.719,0-6.732-3.014-6.732-6.732s3.019-6.732,6.732-6.732s6.732,3.014,6.732,6.732S375.76,55.858,372.042,55.858z
	 M428.613,419.857c-3.724,0-6.732-3.019-6.732-6.731s3.014-6.731,6.732-6.731c3.718,0,6.729,3.019,6.729,6.731
	S432.332,419.857,428.613,419.857z M428.613,367.857c-3.724,0-6.732-3.019-6.732-6.731s3.014-6.731,6.732-6.731
	c3.718,0,6.729,3.019,6.729,6.731S432.332,367.857,428.613,367.857z M428.613,315.857c-3.724,0-6.732-3.018-6.732-6.731
	s3.014-6.732,6.732-6.732c3.718,0,6.729,3.014,6.729,6.732S432.332,315.857,428.613,315.857z M428.613,263.858
	c-3.724,0-6.732-3.014-6.732-6.732s3.014-6.732,6.732-6.732c3.718,0,6.729,3.014,6.729,6.732S432.332,263.858,428.613,263.858z
	 M428.613,211.858c-3.724,0-6.732-3.014-6.732-6.732s3.014-6.732,6.732-6.732c3.718,0,6.729,3.014,6.729,6.732
	S432.332,211.858,428.613,211.858z M428.613,159.858c-3.724,0-6.732-3.014-6.732-6.732s3.014-6.732,6.732-6.732
	c3.718,0,6.729,3.014,6.729,6.732S432.332,159.858,428.613,159.858z M428.613,107.858c-3.724,0-6.732-3.014-6.732-6.732
	s3.014-6.732,6.732-6.732c3.718,0,6.729,3.014,6.729,6.732S432.332,107.858,428.613,107.858z M428.613,55.858
	c-3.724,0-6.732-3.014-6.732-6.732s3.014-6.732,6.732-6.732c3.718,0,6.729,3.014,6.729,6.732S432.332,55.858,428.613,55.858z
	 M485.182,419.857c-3.719,0-6.729-3.019-6.729-6.731s3.014-6.731,6.729-6.731c3.723,0,6.732,3.019,6.732,6.731
	S488.902,419.857,485.182,419.857z M485.182,367.857c-3.719,0-6.729-3.019-6.729-6.731s3.014-6.731,6.729-6.731
	c3.723,0,6.732,3.019,6.732,6.731S488.902,367.857,485.182,367.857z M485.182,315.857c-3.719,0-6.729-3.018-6.729-6.731
	s3.014-6.732,6.729-6.732c3.723,0,6.732,3.014,6.732,6.732S488.902,315.857,485.182,315.857z M485.182,263.858
	c-3.719,0-6.729-3.014-6.729-6.732s3.014-6.732,6.729-6.732c3.723,0,6.732,3.014,6.732,6.732S488.902,263.858,485.182,263.858z
	 M485.182,211.858c-3.719,0-6.729-3.014-6.729-6.732s3.014-6.732,6.729-6.732c3.723,0,6.732,3.014,6.732,6.732
	S488.902,211.858,485.182,211.858z M485.182,159.858c-3.719,0-6.729-3.014-6.729-6.732s3.014-6.732,6.729-6.732
	c3.723,0,6.732,3.014,6.732,6.732S488.902,159.858,485.182,159.858z M485.182,107.858c-3.719,0-6.729-3.014-6.729-6.732
	s3.014-6.732,6.729-6.732c3.723,0,6.732,3.014,6.732,6.732S488.902,107.858,485.182,107.858z M485.182,55.858
	c-3.719,0-6.729-3.014-6.729-6.732s3.014-6.732,6.729-6.732c3.723,0,6.732,3.014,6.732,6.732S488.902,55.858,485.182,55.858z
	 M541.752,419.857c-3.719,0-6.732-3.019-6.732-6.731s3.019-6.731,6.732-6.731s6.732,3.019,6.732,6.731
	S545.471,419.857,541.752,419.857z M541.752,367.857c-3.719,0-6.732-3.019-6.732-6.731s3.019-6.731,6.732-6.731
	s6.732,3.019,6.732,6.731S545.471,367.857,541.752,367.857z M541.752,315.857c-3.719,0-6.732-3.018-6.732-6.731
	s3.019-6.732,6.732-6.732s6.732,3.014,6.732,6.732S545.471,315.857,541.752,315.857z M541.752,263.858
	c-3.719,0-6.732-3.014-6.732-6.732s3.019-6.732,6.732-6.732s6.732,3.014,6.732,6.732S545.471,263.858,541.752,263.858z
	 M541.752,211.858c-3.719,0-6.732-3.014-6.732-6.732s3.019-6.732,6.732-6.732s6.732,3.014,6.732,6.732
	S545.471,211.858,541.752,211.858z M541.752,159.858c-3.719,0-6.732-3.014-6.732-6.732s3.019-6.732,6.732-6.732
	s6.732,3.014,6.732,6.732S545.471,159.858,541.752,159.858z M541.752,107.858c-3.719,0-6.732-3.014-6.732-6.732
	s3.019-6.732,6.732-6.732s6.732,3.014,6.732,6.732S545.471,107.858,541.752,107.858z M541.752,55.858
	c-3.719,0-6.732-3.014-6.732-6.732s3.019-6.732,6.732-6.732s6.732,3.014,6.732,6.732S545.471,55.858,541.752,55.858z
	 M598.324,419.857c-3.723,0-6.732-3.019-6.732-6.731s3.019-6.731,6.732-6.731s6.729,3.019,6.729,6.731
	S602.042,419.857,598.324,419.857z M598.324,367.857c-3.723,0-6.732-3.019-6.732-6.731s3.019-6.731,6.732-6.731
	s6.729,3.019,6.729,6.731S602.042,367.857,598.324,367.857z M598.324,315.857c-3.723,0-6.732-3.018-6.732-6.731
	s3.019-6.732,6.732-6.732s6.729,3.014,6.729,6.732S602.042,315.857,598.324,315.857z M598.324,263.858
	c-3.723,0-6.732-3.014-6.732-6.732s3.019-6.732,6.732-6.732s6.729,3.014,6.729,6.732S602.042,263.858,598.324,263.858z
	 M598.324,211.858c-3.723,0-6.732-3.014-6.732-6.732s3.019-6.732,6.732-6.732s6.729,3.014,6.729,6.732
	S602.042,211.858,598.324,211.858z M598.324,159.858c-3.723,0-6.732-3.014-6.732-6.732s3.019-6.732,6.732-6.732
	s6.729,3.014,6.729,6.732S602.042,159.858,598.324,159.858z M598.324,107.858c-3.723,0-6.732-3.014-6.732-6.732
	s3.019-6.732,6.732-6.732s6.729,3.014,6.729,6.732S602.042,107.858,598.324,107.858z M598.324,55.858
	c-3.723,0-6.732-3.014-6.732-6.732s3.019-6.732,6.732-6.732s6.729,3.014,6.729,6.732S602.042,55.858,598.324,55.858z
	 M654.893,419.857c-3.719,0-6.729-3.019-6.729-6.731s3.014-6.731,6.729-6.731c3.723,0,6.732,3.019,6.732,6.731
	S658.612,419.857,654.893,419.857z M654.893,367.857c-3.719,0-6.729-3.019-6.729-6.731s3.014-6.731,6.729-6.731
	c3.723,0,6.732,3.019,6.732,6.731S658.612,367.857,654.893,367.857z M654.893,315.857c-3.719,0-6.729-3.018-6.729-6.731
	s3.014-6.732,6.729-6.732c3.723,0,6.732,3.014,6.732,6.732S658.612,315.857,654.893,315.857z M654.893,263.858
	c-3.719,0-6.729-3.014-6.729-6.732s3.014-6.732,6.729-6.732c3.723,0,6.732,3.014,6.732,6.732S658.612,263.858,654.893,263.858z
	 M654.893,211.858c-3.719,0-6.729-3.014-6.729-6.732s3.014-6.732,6.729-6.732c3.723,0,6.732,3.014,6.732,6.732
	S658.612,211.858,654.893,211.858z M654.893,159.858c-3.719,0-6.729-3.014-6.729-6.732s3.014-6.732,6.729-6.732
	c3.723,0,6.732,3.014,6.732,6.732S658.612,159.858,654.893,159.858z M654.893,107.858c-3.719,0-6.729-3.014-6.729-6.732
	s3.014-6.732,6.729-6.732c3.723,0,6.732,3.014,6.732,6.732S658.612,107.858,654.893,107.858z M711.463,471.858
	c-3.719,0-6.729-3.02-6.729-6.732s3.014-6.731,6.729-6.731s6.732,3.019,6.732,6.731S715.182,471.858,711.463,471.858z
	 M711.463,419.857c-3.719,0-6.729-3.019-6.729-6.731s3.014-6.731,6.729-6.731s6.732,3.019,6.732,6.731
	S715.182,419.857,711.463,419.857z M711.463,367.857c-3.719,0-6.729-3.019-6.729-6.731s3.014-6.731,6.729-6.731
	s6.732,3.019,6.732,6.731S715.182,367.857,711.463,367.857z M711.463,315.857c-3.719,0-6.729-3.018-6.729-6.731
	s3.014-6.732,6.729-6.732s6.732,3.014,6.732,6.732S715.182,315.857,711.463,315.857z M711.463,250.394
	c3.718,0,6.732,3.014,6.732,6.732s-3.015,6.732-6.732,6.732s-6.731-3.014-6.731-6.732S707.745,250.394,711.463,250.394z
	 M711.463,198.394c3.718,0,6.732,3.014,6.732,6.732s-3.015,6.732-6.732,6.732s-6.731-3.014-6.731-6.732
	S707.745,198.394,711.463,198.394z M711.463,146.394c3.718,0,6.732,3.014,6.732,6.732s-3.015,6.732-6.732,6.732
	s-6.731-3.014-6.731-6.732S707.745,146.394,711.463,146.394z M711.463,94.394c3.718,0,6.732,3.014,6.732,6.732
	s-3.015,6.732-6.732,6.732s-6.731-3.014-6.731-6.732S707.745,94.394,711.463,94.394z M768.034,523.858
	c-3.719,0-6.732-3.02-6.732-6.732s3.019-6.732,6.732-6.732s6.729,3.02,6.729,6.732S771.752,523.858,768.034,523.858z
	 M768.034,471.858c-3.719,0-6.732-3.02-6.732-6.732s3.019-6.731,6.732-6.731s6.729,3.019,6.729,6.731
	S771.752,471.858,768.034,471.858z M768.034,419.857c-3.719,0-6.732-3.019-6.732-6.731s3.019-6.731,6.732-6.731
	s6.729,3.019,6.729,6.731S771.752,419.857,768.034,419.857z M768.034,367.857c-3.719,0-6.732-3.019-6.732-6.731
	s3.019-6.731,6.732-6.731s6.729,3.019,6.729,6.731S771.752,367.857,768.034,367.857z M768.034,315.857
	c-3.719,0-6.732-3.018-6.732-6.731s3.019-6.732,6.732-6.732s6.729,3.014,6.729,6.732S771.752,315.857,768.034,315.857z
	 M768.034,263.858c-3.719,0-6.732-3.014-6.732-6.732s3.019-6.732,6.732-6.732s6.729,3.014,6.729,6.732
	S771.752,263.858,768.034,263.858z M768.034,211.858c-3.719,0-6.732-3.014-6.732-6.732s3.019-6.732,6.732-6.732
	s6.729,3.014,6.729,6.732S771.752,211.858,768.034,211.858z M768.034,159.858c-3.719,0-6.732-3.014-6.732-6.732
	s3.019-6.732,6.732-6.732s6.729,3.014,6.729,6.732S771.752,159.858,768.034,159.858z M824.604,575.858
	c-3.719,0-6.729-3.02-6.729-6.732s3.014-6.732,6.729-6.732c3.723,0,6.732,3.02,6.732,6.732S828.323,575.858,824.604,575.858z
	 M824.604,523.858c-3.719,0-6.729-3.02-6.729-6.732s3.014-6.732,6.729-6.732c3.723,0,6.732,3.02,6.732,6.732
	S828.323,523.858,824.604,523.858z M824.604,471.858c-3.719,0-6.729-3.02-6.729-6.732s3.014-6.731,6.729-6.731
	c3.723,0,6.732,3.019,6.732,6.731S828.323,471.858,824.604,471.858z M824.604,419.857c-3.719,0-6.729-3.019-6.729-6.731
	s3.014-6.731,6.729-6.731c3.723,0,6.732,3.019,6.732,6.731S828.323,419.857,824.604,419.857z M824.604,367.857
	c-3.719,0-6.729-3.019-6.729-6.731s3.014-6.731,6.729-6.731c3.723,0,6.732,3.019,6.732,6.731S828.323,367.857,824.604,367.857z
	 M824.604,315.857c-3.719,0-6.729-3.018-6.729-6.731s3.014-6.732,6.729-6.732c3.723,0,6.732,3.014,6.732,6.732
	S828.323,315.857,824.604,315.857z M824.604,263.858c-3.719,0-6.729-3.014-6.729-6.732s3.014-6.732,6.729-6.732
	c3.723,0,6.732,3.014,6.732,6.732S828.323,263.858,824.604,263.858z M824.604,211.858c-3.719,0-6.729-3.014-6.729-6.732
	s3.014-6.732,6.729-6.732c3.723,0,6.732,3.014,6.732,6.732S828.323,211.858,824.604,211.858z M881.174,575.858
	c-3.719,0-6.729-3.02-6.729-6.732s3.014-6.732,6.729-6.732s6.732,3.02,6.732,6.732S884.893,575.858,881.174,575.858z
	 M881.174,523.858c-3.719,0-6.729-3.02-6.729-6.732s3.014-6.732,6.729-6.732s6.732,3.02,6.732,6.732
	S884.893,523.858,881.174,523.858z M881.174,471.858c-3.719,0-6.729-3.02-6.729-6.732s3.014-6.731,6.729-6.731
	s6.732,3.019,6.732,6.731S884.893,471.858,881.174,471.858z M881.174,419.857c-3.719,0-6.729-3.019-6.729-6.731
	s3.014-6.731,6.729-6.731s6.732,3.019,6.732,6.731S884.893,419.857,881.174,419.857z M881.174,367.857
	c-3.719,0-6.729-3.019-6.729-6.731s3.014-6.731,6.729-6.731s6.732,3.019,6.732,6.731S884.893,367.857,881.174,367.857z
	 M881.174,315.857c-3.719,0-6.729-3.018-6.729-6.731s3.014-6.732,6.729-6.732s6.732,3.014,6.732,6.732
	S884.893,315.857,881.174,315.857z M881.174,250.394c3.718,0,6.732,3.014,6.732,6.732s-3.015,6.732-6.732,6.732
	s-6.731-3.014-6.731-6.732S877.456,250.394,881.174,250.394z M1164.026,510.395c3.719,0,6.729,3.019,6.729,6.731
	s-3.014,6.732-6.729,6.732c-3.723,0-6.732-3.02-6.732-6.732S1160.307,510.395,1164.026,510.395z M1107.456,458.395
	c3.719,0,6.732,3.019,6.732,6.731s-3.019,6.732-6.732,6.732s-6.732-3.02-6.732-6.732S1103.737,458.395,1107.456,458.395z
	 M1107.456,510.395c3.719,0,6.732,3.019,6.732,6.731s-3.019,6.732-6.732,6.732s-6.732-3.02-6.732-6.732
	S1103.737,510.395,1107.456,510.395z M1050.885,406.395c3.719,0,6.732,3.019,6.732,6.731s-3.014,6.731-6.732,6.731
	c-3.718,0-6.729-3.019-6.729-6.731S1047.167,406.395,1050.885,406.395z M1050.885,458.395c3.719,0,6.732,3.019,6.732,6.731
	s-3.014,6.732-6.732,6.732c-3.718,0-6.729-3.02-6.729-6.732S1047.167,458.395,1050.885,458.395z M1050.885,510.395
	c3.719,0,6.732,3.019,6.732,6.731s-3.014,6.732-6.732,6.732c-3.718,0-6.729-3.02-6.729-6.732S1047.167,510.395,1050.885,510.395z
	 M994.314,354.395c3.72,0,6.729,3.019,6.729,6.731s-3.014,6.731-6.729,6.731c-3.722,0-6.731-3.019-6.731-6.731
	S990.596,354.395,994.314,354.395z M994.314,406.395c3.72,0,6.729,3.019,6.729,6.731s-3.014,6.731-6.729,6.731
	c-3.722,0-6.731-3.019-6.731-6.731S990.596,406.395,994.314,406.395z M994.314,458.395c3.72,0,6.729,3.019,6.729,6.731
	s-3.014,6.732-6.729,6.732c-3.722,0-6.731-3.02-6.731-6.732S990.596,458.395,994.314,458.395z M994.314,510.395
	c3.72,0,6.729,3.019,6.729,6.731s-3.014,6.732-6.729,6.732c-3.722,0-6.731-3.02-6.731-6.732S990.596,510.395,994.314,510.395z
	 M994.314,562.394c3.72,0,6.729,3.02,6.729,6.732s-3.014,6.732-6.729,6.732c-3.722,0-6.731-3.02-6.731-6.732
	S990.596,562.394,994.314,562.394z M937.745,302.394c3.719,0,6.729,3.014,6.729,6.732s-3.014,6.731-6.729,6.731
	s-6.732-3.018-6.732-6.731S934.026,302.394,937.745,302.394z M937.745,354.395c3.719,0,6.729,3.019,6.729,6.731
	s-3.014,6.731-6.729,6.731s-6.732-3.019-6.732-6.731S934.026,354.395,937.745,354.395z M937.745,406.395
	c3.719,0,6.729,3.019,6.729,6.731s-3.014,6.731-6.729,6.731s-6.732-3.019-6.732-6.731S934.026,406.395,937.745,406.395z
	 M937.745,458.395c3.719,0,6.729,3.019,6.729,6.731s-3.014,6.732-6.729,6.732s-6.732-3.02-6.732-6.732
	S934.026,458.395,937.745,458.395z M937.745,510.395c3.719,0,6.729,3.019,6.729,6.731s-3.014,6.732-6.729,6.732
	s-6.732-3.02-6.732-6.732S934.026,510.395,937.745,510.395z M937.745,562.394c3.719,0,6.729,3.02,6.729,6.732
	s-3.014,6.732-6.729,6.732s-6.732-3.02-6.732-6.732S934.026,562.394,937.745,562.394z M1243.695,526.879
	c5.602-8.312,15.101-13.777,25.876-13.777c17.221,0,31.181,13.962,31.181,31.183s-13.96,31.181-31.181,31.181
	c-15.766,0-28.798-11.697-30.89-26.889c-2.225-5.021-8.496-5.012-13.158-5.012c-3.285,0-6.57-0.002-9.855-0.003l-362.854,74.936
	c0,0-106.321-86.417-171.497-129.883c-65.179-43.465-164.416-42.599-199.601-45.601c-70.477-6.016-288.092,87.729-310.812,96.252
	c-22.719,8.531-43.904,15.591-70.26-16.526c-26.354-32.114-142.572-182.597-84.688-289.53
	C73.84,126.273,95.703,87.681,181.112,63.218c85.414-24.461,310.14-64.714,346.917-63.175
	c36.773,1.539,99.623,13.403,144.768,45.171c45.139,31.768,75.967,65.482,96.771,76.446
	c20.799,10.964,80.603,59.573,150.727,117.417c58.812,48.513,242.721,226.521,300.523,282.69c0.651,0.293,1.31,0.571,1.963,0.86
	C1228.93,525.354,1236.998,531.701,1243.695,526.879z"/>
</svg>
