<?xml version="1.0" encoding="utf-8"?>
<!-- Generator: Adobe Illustrator 16.0.0, SVG Export Plug-In . SVG Version: 6.00 Build 0)  -->
<!DOCTYPE svg PUBLIC "-//W3C//DTD SVG 1.1//EN" "http://www.w3.org/Graphics/SVG/1.1/DTD/svg11.dtd">
<svg version="1.1" id="Layer_1" xmlns="http://www.w3.org/2000/svg" xmlns:xlink="http://www.w3.org/1999/xlink" x="0px" y="0px"
	 width="2364.102px" height="862.184px" viewBox="0 0 2364.102 862.184" enable-background="new 0 0 2364.102 862.184"
	 xml:space="preserve">
<path d="M2337.355,428.441c-58.344-14.296-151.509-38.646-314.241-93.041c-3.688,0.325-471.417-168.6-514.143-185.532
	c-42.719-16.933-83.084-31.359-126.739-47.607c-26.459-9.845-54.264-17.4-81.425-25.499c24.688,13.876,42.938,38.594,47.447,68.763
	c7.76,51.857-28.011,100.205-79.865,107.963c-51.857,7.759-100.207-28.008-107.963-79.865
	c-7.762-51.86,28.006-100.208,79.862-107.968c8.18-1.223,16.271-1.361,24.123-0.528c-4.842-1.698-9.639-3.45-14.358-5.292
	c-21.12-8.238-43.562-12.095-65.504-20.643c-15.571-6.067-51.127-16.788-68.265-19.431c-25.663-3.956-45.054-8.258-71.519-11.735
	C964.991-4.679,888.713,1.785,809.43,0.697c-142.855,0.957-233.444,25.487-300.078,75.21c-25.942,14.544-40.42,28.346-53.532,69.458
	c-3.226,10.1-12.157,23.712-20.159,34.65c-36.263,49.58-90.48,105.858-181.823,190.148C167.172,445.16,82.12,515.369,0,577.037
	l113.258,285.146c103.672-85.1,227.184-179.647,325.688-251.104c46.935-34.041,66.792-47.947,110.351-50.984
	c27.765-1.936,67.764,13.982,98.249,24.189c26.891,8.996,68.614,23.344,82.54,20.645l11.144-2.155
	C784,594.34,835.238,512.01,927.725,494.116c64.79-12.541,163.984,4.383,221.521,9.293c70.657,6.022,142.13,15.414,209.861,27.822
	c53.604,9.823,53.953,13.329,99.053-15.236c29.506-18.695,63.988-34.883,98.044-50.396c55.435-25.252,171.565-62.802,427.089-26.498
	c142.812,20.287,261.382,24.457,341.355,32.433C2366.705,475.709,2381.42,439.236,2337.355,428.441z M139.47,824.453
	c-21.299,4.121-41.886-9.803-46.003-31.082c-4.117-21.283,9.804-41.883,31.066-45.994c21.297-4.123,41.884,9.797,46.002,31.08
	C174.653,799.738,160.733,820.336,139.47,824.453z M1432.003,470.217c-24.854,4.812-48.908-11.44-53.722-36.303
	c-4.812-24.85,11.441-48.908,36.304-53.719c24.852-4.81,48.906,11.446,53.719,36.297
	C1473.114,441.348,1456.857,465.41,1432.003,470.217z"/>
</svg>
