<?xml version="1.0" encoding="utf-8"?>
<!-- Generator: Adobe Illustrator 16.0.0, SVG Export Plug-In . SVG Version: 6.00 Build 0)  -->
<!DOCTYPE svg PUBLIC "-//W3C//DTD SVG 1.1//EN" "http://www.w3.org/Graphics/SVG/1.1/DTD/svg11.dtd">
<svg version="1.1" id="Layer_1" xmlns="http://www.w3.org/2000/svg" xmlns:xlink="http://www.w3.org/1999/xlink" x="0px" y="0px"
	 width="2426.463px" height="862.183px" viewBox="0 0 2426.463 862.183" enable-background="new 0 0 2426.463 862.183"
	 xml:space="preserve">
<path fill="none" stroke="#000000" stroke-miterlimit="10" d="M2337.355,428.439c-58.346-14.297-151.511-38.646-314.241-93.04
	c-3.69,0.325-471.417-168.6-514.145-185.532c-42.719-16.933-83.084-31.359-126.737-47.607c-26.459-9.845-54.266-17.4-81.427-25.499
	c24.688,13.876,42.938,38.594,47.448,68.763c7.759,51.857-28.009,100.205-79.866,107.963
	c-51.855,7.759-100.207-28.008-107.963-79.865c-7.759-51.86,28.006-100.208,79.865-107.968c8.177-1.223,16.268-1.361,24.123-0.528
	c-4.842-1.698-9.64-3.45-14.361-5.292c-21.12-8.238-43.561-12.095-65.504-20.643c-15.571-6.067-51.127-16.788-68.262-19.431
	c-25.664-3.956-45.054-8.258-71.521-11.735C964.993-4.68,888.715,1.784,809.43,0.696c-142.854,0.957-233.442,25.487-300.078,75.21
	c-25.94,14.544-40.42,28.346-53.53,69.458c-3.228,10.1-12.157,23.712-20.159,34.65c-36.263,49.58-90.483,105.858-181.825,190.148
	C167.172,445.158,82.12,515.367,0,577.035l113.258,285.148c103.671-85.1,227.185-179.65,325.69-251.107
	c46.932-34.041,66.792-47.947,110.348-50.984c27.765-1.936,67.764,13.982,98.249,24.189c26.891,8.996,68.617,23.344,82.54,20.645
	l11.144-2.156c42.771-8.432,94.01-90.762,186.495-108.654c64.79-12.541,163.985,4.383,221.522,9.293
	c70.657,6.021,142.128,15.414,209.861,27.82c53.604,9.824,53.951,13.33,99.053-15.234c29.506-18.695,63.988-34.883,98.044-50.396
	c55.432-25.252,171.563-62.803,427.089-26.498c142.811,20.287,261.379,24.457,341.355,32.43
	C2366.705,475.708,2381.42,439.234,2337.355,428.439z M139.47,824.451c-21.298,4.121-41.885-9.803-46.002-31.082
	c-4.118-21.283,9.803-41.883,31.066-45.994c21.297-4.123,41.884,9.797,46.002,31.08C174.653,799.736,160.733,820.335,139.47,824.451
	z M1432.002,470.216c-24.854,4.812-48.908-11.443-53.719-36.303c-4.812-24.85,11.439-48.909,36.302-53.72
	c24.851-4.81,48.908,11.446,53.718,36.297C1473.114,441.347,1456.857,465.408,1432.002,470.216z"/>
</svg>
