<?xml version="1.0" encoding="utf-8"?>
<!-- Generator: Adobe Illustrator 16.0.0, SVG Export Plug-In . SVG Version: 6.00 Build 0)  -->
<!DOCTYPE svg PUBLIC "-//W3C//DTD SVG 1.1//EN" "http://www.w3.org/Graphics/SVG/1.1/DTD/svg11.dtd">
<svg version="1.1" id="Layer_1" xmlns="http://www.w3.org/2000/svg" xmlns:xlink="http://www.w3.org/1999/xlink" x="0px" y="0px"
	 width="1550.938px" height="587.77px" viewBox="0 0 1550.938 587.77" enable-background="new 0 0 1550.938 587.77"
	 xml:space="preserve">
<path fill="none" stroke="#000000" stroke-linejoin="round" stroke-miterlimit="10" d="M1439.648,274.86l-3.229-5.916
	l-38.453,13.805l-0.176,0.039c-13.135,2.86-26.396,4.598-39.851,5.412c-13.272,0.796-26.611,0.713-39.918,0.315l-0.262-0.002
	l-0.232-0.05c-9.854-2.008-19.743-4.011-29.604-6.037c-24.233-4.98-48.489-10.033-72.664-15.357
	c-22.604-4.97-45.155-10.17-67.576-15.885c-24.668-6.29-49.397-12.833-74.374-17.805c-71.108-14.155-141.026-33.55-211.64-49.878
	l-0.039-0.008l-0.003-0.014c-76.6-19.63-153.256-39.042-228.974-61.862C573.715,103.85,515.71,83.094,457.007,64.623
	c-4.248-1.329-8.475-2.866-12.601-4.449c-4.244-1.615-8.551-3.329-12.654-5.276c-15.851-7.594-32.673-14.622-47.06-24.839
	c-2.74-1.97-5.608-3.854-8.405-5.754c-4.438-2.998-8.873-5.997-13.28-9.029c-4.842-3.291-9.654-6.615-14.35-10.065
	c-1.753-1.263-3.479-2.557-5.144-3.912c-0.462-0.378-1.017-0.824-1.54-1.299c-1.956,0.622-3.97,1.158-5.956,1.66
	c-3.169,0.804-6.359,1.521-9.527,2.178c-3.485,0.722-6.95,1.38-10.435,1.959c-2.667,0.443-5.41,0.873-8.127,1.108
	c-2.971,0.252-6.009,0.991-8.929,1.604c-2.709,0.569-5.463,1.105-8.201,1.26c-44.155,5.658-88.292,11.994-132.184,19.176
	c-7.397,1.214-14.754,2.444-22.138,3.713c-5.699,1.5-11.516,2.526-17.286,3.583c-6.16,1.129-12.271,2.315-18.298,3.981
	c-12.37,3.416-24.872,6.291-37.09,10.324c-0.27,0.099-0.952,0.337-1.444,0.591c0.702,1.049,2.609,2.789,3.181,3.311
	c4.776,4.383,9.354,9.165,13.835,13.846c6.62,6.917,13.153,13.936,19.655,20.976c16.45,17.862,32.723,35.913,48.99,53.934
	c15.5,17.16,31.001,34.33,46.651,51.346l0.009,0.039c3.474,3.897,6.687,8.235,10.605,11.694c3.316,2.956,6.563,5.177,9.101,8.883
	c1.89,1.67,3.799,2.962,6.308,3.538c1.53,0.357,3.181,0.446,4.756,0.534c2.287,0.126,4.537,0.247,6.824,0.517
	c21.106,2.482,41.871,7.785,62.646,12.079c13.645,2.824,27.03,6.714,40.652,9.602c13.735,2.904,27.468,5.637,41.266,8.182
	c55.27,10.203,110.803,19.39,165.393,33.012c68.312,17.065,138.093,27.464,207.582,38.34
	c83.307,13.035,163.062,43.576,238.799,79.857c8.989,3.77,17.44,8.653,26.505,12.259c33.625,13.381,65.304,32.239,95.166,52.589
	c25.426,17.355,49.858,36.095,74.239,54.914c1.688,1.305,3.445,2.734,5.298,3.789c1.97,1.093,4.188,1.836,6.28,2.531
	c6.188,1.388,12.404,2.604,18.679,3.585c5.043,0.8,10.116,1.425,15.216,1.997c8.26,0.938,16.477,1.848,24.709,3.136
	c12.695,1.983,25.307,4.661,37.768,7.643c21.912,4.264,43.873,8.406,65.475,13.945c21.438,5.497,43.271,9.421,64.707,14.896
	c10.613,2.702,21.408,4.774,31.896,8.004c2.484,0.771,5.007,1.396,7.538,2.062c2.853,0.765,5.577,1.62,8.359,2.705
	c17.859,7.048,36.383,0.056,52.203-8.732c4.006-2.229,6.854-5.229,10.386-8.034c3.56-2.831,7.255-5.562,10.964-8.234
	c2.26-1.646,4.589-3.311,6.938-4.884L1439.648,274.86z"/>
</svg>
