<?xml version="1.0" encoding="utf-8"?>
<!-- Generator: Adobe Illustrator 16.0.0, SVG Export Plug-In . SVG Version: 6.00 Build 0)  -->
<!DOCTYPE svg PUBLIC "-//W3C//DTD SVG 1.1//EN" "http://www.w3.org/Graphics/SVG/1.1/DTD/svg11.dtd">
<svg version="1.1" id="Layer_1" xmlns="http://www.w3.org/2000/svg" xmlns:xlink="http://www.w3.org/1999/xlink" x="0px" y="0px"
	 width="1380.618px" height="1721.976px" viewBox="0 0 1380.618 1721.976" enable-background="new 0 0 1380.618 1721.976"
	 xml:space="preserve">
<path fill="none" stroke="#000000" stroke-linejoin="round" stroke-miterlimit="10" d="M256.737,455.419l-49.405-2.961
	c62.049,161.197,43.896,259.957,83,410.678c4.176-1.811,14.103,9.801,18.602,12.816c19.438-6.453,51.642-9.258,87.861-10.17
	c125.85,0.75,256.417,4.846,354.389,3.088l1.23-0.025l2.02-0.039l0.611-0.012c1.08-0.025,2.18-0.051,3.297-0.074l0.213-0.004
	c1.023-0.023,2.062-0.051,3.115-0.076l0.676-0.02c1.092-0.025,2.205-0.062,3.33-0.088l0.527-0.018
	c7.145-0.193,14.857-0.439,23.018-0.707l1.365-0.047l1.506-0.047l7.463-0.244l1.355-0.047h0.018
	c11.939-0.393,24.611-0.793,37.643-1.137l3.266-0.086l3.051-0.074l0.516-0.012c6.436-0.154,12.938-0.295,19.471-0.404l0.523-0.01
	c1.938-0.033,3.877-0.062,5.816-0.094l0.658-0.008c2.965-0.043,5.926-0.074,8.889-0.104l1.305-0.014
	c3.061-0.025,6.123-0.047,9.178-0.059l0.807-0.004c3.193-0.01,6.381-0.01,9.553,0.004h0.111c3.209,0.012,6.402,0.033,9.578,0.062
	l0.508,0.004c2.041,0.023,4.07,0.053,6.094,0.082l0.146,0.006c0.967,0.016,1.93,0.031,2.889,0.051l0.803,0.014
	c1.982,0.041,3.955,0.084,5.914,0.137c36.227,0.91,68.432,3.717,87.863,10.168c4.494-3.01,14.422-14.622,18.596-12.811
	c39.104-150.721,20.951-249.479,82.996-410.678l-49.4,2.961"/>
<path fill="none" stroke="#000000" stroke-linejoin="round" stroke-miterlimit="10" d="M1310.388,66.891
	c3.21-9.008,6.537-17.896,9.212-26.88c-2.162-1.599-36.904-9.684-39.904-8.756"/>
<path fill="none" stroke="#000000" stroke-linejoin="round" stroke-miterlimit="10" d="M366.739,1583.757
	c-17.447-5.885-30.932-16.355-42.663-30.697c-5.2-6.359-8-12.912-11.604-20.066c-3.771-7.484-6.446-12.947-9.061-20.666
	c-41.205-121.764-57.663-238.506-77.156-372.586c-2.902-13.941-4.975-33.604-6.37-47.959c-1.544-15.939-4.379-32.227-5.335-48.473
	c-0.943-16.08-2.972-32.561-4.248-49.014c-0.679-8.771-1.062-16.139-1.555-25.066c-0.094-1.744-0.247-3.555-0.417-5.404
	c-0.661-23.146-1.32-47.021-2.079-69.768c-4.008-120.775,5.131,19.67,8.852,55.586c0.18,36.559,8.788,101.584,16.879,138.232
	c2.541-7.586,12.65-32.797,17.081-36.211l3.82-55.855c-1.961-9.395,9.29-79.666,14.934-97.27c1.808-4.287,2.767-9.383,7.865-10.529
	c0.175-0.043,0.354-0.109,0.529-0.201c0.209,0.02,0.426,0.051,0.647,0.096c1.854-3.609,4.009-6.502,5.378-10.479l0.107-0.209
	l-0.017-0.053l0.021-0.062c-1.374-5.02-4.338-10.643-5.972-16.822c-1.377-5.213-1.7-10.098-2.373-15.492
	c-0.536-7.723-1.017-16.015-1.967-23.02c-2.535-18.682-3.735-38.164-5.83-57.212c-4.172-37.904-9.052-76.093-15.444-112.948
	c-6.737-38.856-14.143-71.51-24.243-108.227c-4.526-16.467-11.174-35.299-17.808-50.778c-2.228-5.195-18.977-48.261-18.852-50.216
	l60.549-0.679"/>
<path fill="none" stroke="#000001" stroke-linejoin="round" stroke-miterlimit="10" d="M1072.665,442.362l60.555,0.153
	c0.141,1.957-16.234,45.16-18.414,50.378c-6.498,15.537-12.988,34.43-17.373,50.93c-9.777,36.81-16.902,69.521-23.301,108.436
	c-6.072,36.912-10.621,75.142-14.463,113.083c-1.932,19.062-2.963,38.56-5.336,57.26c-0.896,7.013-1.301,15.312-1.771,23.034
	c-0.625,5.402-0.902,10.287-2.238,15.514c-1.578,6.192-4.494,11.838-5.824,16.875l0.021,0.061l-0.02,0.053l0.107,0.209
	c1.406,3.965,3.586,6.838,5.471,10.434c0.221-0.047,0.439-0.08,0.646-0.104c0.182,0.09,0.355,0.156,0.531,0.195
	c5.107,1.104,6.109,6.188,7.957,10.465c5.795,17.561,17.656,87.73,15.773,97.143l4.309,55.812
	c4.455,3.375,14.785,28.498,17.396,36.061c7.77-36.717,15.811-101.811,15.678-138.375c3.41-35.941,11.33-176.465,8.369-55.656
	c-0.562,22.752-1.02,46.633-1.48,69.781c-0.146,1.852-0.287,3.662-0.365,5.412c-0.416,8.928-0.73,16.293-1.34,25.072
	c-1.137,16.465-3.02,32.963-3.818,49.047c-0.812,16.256-3.512,32.564-4.916,48.52c-1.271,14.367-3.174,34.047-5.953,48.014
	c-18.328,134.244-33.773,251.129-73.924,373.246c-2.549,7.73-5.176,13.219-8.883,20.74c-3.545,7.188-6.285,13.764-11.434,20.162
	c-11.604,14.445-24.996,25.029-42.391,31.07"/>
</svg>
