<?xml version="1.0" encoding="utf-8"?>
<!-- Generator: Adobe Illustrator 16.0.0, SVG Export Plug-In . SVG Version: 6.00 Build 0)  -->
<!DOCTYPE svg PUBLIC "-//W3C//DTD SVG 1.1//EN" "http://www.w3.org/Graphics/SVG/1.1/DTD/svg11.dtd">
<svg version="1.1" id="Layer_1" xmlns="http://www.w3.org/2000/svg" xmlns:xlink="http://www.w3.org/1999/xlink" x="0px" y="0px"
	 width="1860.027px" height="1492.871px" viewBox="0 0 1860.027 1492.871" enable-background="new 0 0 1860.027 1492.871"
	 xml:space="preserve">
<path fill="none" stroke="#000000" stroke-linejoin="round" stroke-miterlimit="10" d="M1382.523,312.049
	c3.624-10.781,7.599-21.832,11.972-33.192l-49.4,2.961"/>
<path fill="none" stroke="#000000" stroke-linejoin="round" stroke-miterlimit="10" d="M1487.911,312.665l56.67,21.335
	c-0.554,1.883-31.012,36.623-34.881,40.748c-11.522,12.281-24.214,27.706-34.098,41.629c-22.038,31.059-40.161,59.21-59.771,93.423
	c-18.604,32.453-36.243,66.673-53.119,100.872c-8.479,17.182-16.271,35.082-25.037,51.771c-3.286,6.256-6.574,13.888-9.715,20.959
	c-2.478,4.843-4.448,9.317-7.525,13.746c-3.646,5.25-8.354,9.519-11.361,13.77v0.064l-0.036,0.043l0.028,0.23
	c-0.067,4.207,0.968,7.66,1.475,11.688c0.224,0.029,0.438,0.073,0.64,0.129c0.139,0.146,0.279,0.27,0.434,0.37
	c4.396,2.821,3.558,7.938,3.791,12.587c-0.717,18.476-14.16,88.357-19.217,96.52l-15.496,53.792
	c2.992,4.724,3.877,31.87,3.676,39.868c20.125-31.676,50.441-89.844,63.107-124.14c15.771-32.479,72.365-161.346,27.316-49.21
	c-8.484,21.113-17.269,43.325-25.803,64.854c-0.79,1.678-1.552,3.33-2.238,4.94c-3.514,8.217-6.388,15.008-10.025,23.021
	c-6.826,15.026-14.364,29.822-20.745,44.607c-6.45,14.94-14.685,29.276-21.584,43.728c-6.22,13.021-14.886,30.785-22.378,42.896
	c-64.146,119.343-119.521,223.431-199.863,323.774c-5.091,6.355-9.471,10.574-15.575,16.323
	c-5.836,5.493-10.708,10.692-17.765,14.892c-15.93,9.472-32.178,14.697-50.583,14.271c0.723,45.376,1.38,105.177,2.649,142.031
	l-0.267,4.671"/>
<path fill="none" stroke="#000000" stroke-linejoin="round" stroke-miterlimit="10" d="M295.774,273.375
	c3.601,2.366,7.252,4.62,10.644,6.648c8.62,5.153,15.874,11.1,24.63,15.812c8.631,4.65,16.234,9.929,25.45,14.07
	c3.241,1.459,11.387,4.633,12.823,6.918c6.705,10.643,8.077,4.117,12.04,8.623l-55.947,23.164
	c0.611,1.86,32.184,35.597,36.186,39.592c11.921,11.897,25.1,26.905,35.43,40.505c23.039,30.321,42.062,57.869,62.775,91.429
	c19.65,31.831,38.395,65.458,56.371,99.089c9.033,16.898,17.397,34.536,26.703,50.935c3.488,6.146,7.021,13.664,10.395,20.631
	c2.634,4.761,4.75,9.173,7.969,13.499c3.813,5.128,8.659,9.241,11.804,13.392l0.004,0.064l0.035,0.043l-0.021,0.233
	c0.209,4.198-0.718,7.686-1.095,11.729c-0.223,0.039-0.436,0.09-0.637,0.15c-0.129,0.148-0.27,0.277-0.416,0.385
	c-4.305,2.964-3.299,8.049-3.381,12.701c1.313,18.44,17.022,87.854,22.341,95.845l17.239,53.26
	c-2.842,4.818-2.842,31.981-2.378,39.967c-21.149-31.006-53.339-88.154-67.111-122.021c-16.819-31.949-77.57-158.906-28.902-48.298
	c9.169,20.829,18.666,42.743,27.896,63.979c0.847,1.653,1.663,3.277,2.397,4.861c3.779,8.104,6.879,14.797,10.771,22.688
	c7.308,14.798,15.324,29.339,22.184,43.909c6.937,14.728,15.625,28.784,22.991,43.007c6.64,12.807,15.878,30.28,23.761,42.145
	c67.992,117.193,126.719,219.427,210.276,317.105c5.296,6.19,9.812,10.268,16.104,15.812c6.008,5.3,11.045,10.341,18.235,14.309
	c16.229,8.946,32.642,13.646,51.021,12.618c0.754,45.376,2.037,105.167,1.965,142.044l0.416,4.658"/>
<path fill="none" stroke="#000001" stroke-linejoin="round" stroke-miterlimit="10" d="M484.727,278.856
	c62.049,161.198,43.896,259.958,83,410.679c4.178-1.812,14.104,9.801,18.604,12.813c19.424-6.449,51.628-9.252,87.851-10.165
	c125.853,0.751,256.417,4.847,354.392,3.09l1.229-0.025l2.022-0.039l0.608-0.012c1.081-0.025,2.184-0.053,3.298-0.075l0.215-0.003
	c1.021-0.025,2.062-0.051,3.112-0.076l0.679-0.021c1.092-0.023,2.206-0.059,3.331-0.087l0.524-0.015
	c7.146-0.197,14.857-0.442,23.021-0.708l1.362-0.047l1.508-0.046l7.463-0.245c0,0,1.354-0.047,1.374-0.047
	c11.938-0.394,24.609-0.793,37.641-1.135l3.267-0.087l3.052-0.075l0.512-0.013c6.437-0.152,12.938-0.295,19.471-0.403l0.524-0.009
	c1.938-0.034,3.877-0.063,5.818-0.095l0.657-0.008c2.964-0.043,5.925-0.075,8.891-0.104l1.302-0.013
	c3.062-0.026,6.123-0.047,9.177-0.059l0.808-0.003c3.191-0.014,6.381-0.014,9.554,0.003h0.108c3.209,0.012,6.403,0.033,9.579,0.062
	l0.507,0.003c2.041,0.025,4.071,0.054,6.096,0.084l0.146,0.005c0.967,0.016,1.931,0.03,2.89,0.051l0.804,0.015
	c1.98,0.04,3.954,0.083,5.913,0.133c36.226,0.913,68.431,3.718,87.862,10.169c4.499-3.016,14.429-14.628,18.604-12.813
	c36.061-138.997,23.429-233.799,69.904-374.138"/>
</svg>
