<?xml version="1.0" encoding="utf-8"?>
<!-- Generator: Adobe Illustrator 16.0.0, SVG Export Plug-In . SVG Version: 6.00 Build 0)  -->
<!DOCTYPE svg PUBLIC "-//W3C//DTD SVG 1.1//EN" "http://www.w3.org/Graphics/SVG/1.1/DTD/svg11.dtd">
<svg version="1.1" id="Layer_1" xmlns="http://www.w3.org/2000/svg" xmlns:xlink="http://www.w3.org/1999/xlink" x="0px" y="0px"
	 width="1485.062px" height="686.389px" viewBox="0 0 1485.062 686.389" enable-background="new 0 0 1485.062 686.389"
	 xml:space="preserve">
<path fill="none" stroke="#000000" stroke-linejoin="round" stroke-miterlimit="10" d="M1483.946,493.529
	c-14.188-35.031-53.451-121.563-53.955-122.79c-2.751-6.82-5.929-13.891-9.071-20.982
	c-36.326-81.805-78.639-171.496-120.889-256.635l-15.047-25.376c-3.447-5.665-14.971-8.58-23.221,0.067l-28.564,26.084
	l-44.418,46.501l-26.107-1.761l-13.817-0.325c-96.255-4.871-186.895-15.893-277.264-19.344c-12.116,0.331-27.371,4.753-38.078,7.556
	c-12.07,3.161-23.975,6.271-35.595,9.918c-47.179,14.798-151.956,32.015-219.501,60.135c-49.264,21.429-93.988,30.6-133.11,44.7
	C331.541,285.283,258.454,265.32,176.35,269.48l-41.129,1.56c-3.047,0.552-3.168,2.917-6.665,3.325l-8.28,0.967
	c-7.279,0.851-8.993-0.183-15.719,2.008c-4.321,1.408-9.821,3.556-13.765,4.791c-8.586,2.674-18.083,7.78-24.38,12.095
	c-14.441,9.844-28.09,18.427-36.922,32.938c-4.553,7.474-8.462,13.646-12.062,21.849c-3.427,7.83-5.828,15.764-9.514,23.853
	c-24.428,53.794,11.91,213.113,51.639,260.249c5.331,6.316,13.52,17.566,19.455,22.246c2.235,1.783,21.42,17.693,21.924,18.283
	c13.098-1.527,27.258,0.152,39.884-0.454c52.304-2.517,108.074,4.812,159.946,10.37c6.814,0.729,51.005,2.162,50.357-3.391
	l-2.096-103.104l36.516,97.68l6.111-1.57l5.55-0.492l22.839-1.119l20.586,0.947c112.528,12.281,246.292,17.139,374.501,11.615
	c97.456-6.806,207.956-6,296.111-15.621c10.646-1.771,7.888,1.867,14.927-5.379c3.389-3.513,8.662-4.818,15.456-4.871
	c35.491-0.277,71.774-0.894,107.114-4.021c43.896-3.89,75.576-43.919,105.123-72.778c4.674-4.578,13.489-12.699,18.451-16.391
	c5.558-4.15,11.468-12.084,17.479-16.639c11.562-8.791,22.938-24.771,35.528-33.41l16.66-2.282l31.06-3.56
	C1483.931,508.266,1487,501.092,1483.946,493.529z"/>
</svg>
