<?xml version="1.0" encoding="utf-8"?>
<!-- Generator: Adobe Illustrator 16.0.0, SVG Export Plug-In . SVG Version: 6.00 Build 0)  -->
<!DOCTYPE svg PUBLIC "-//W3C//DTD SVG 1.1//EN" "http://www.w3.org/Graphics/SVG/1.1/DTD/svg11.dtd">
<svg version="1.1" id="Layer_1" xmlns="http://www.w3.org/2000/svg" xmlns:xlink="http://www.w3.org/1999/xlink" x="0px" y="0px"
	 width="1485.062px" height="686.389px" viewBox="0 0 1485.062 686.389" enable-background="new 0 0 1485.062 686.389"
	 xml:space="preserve">
<path fill="none" stroke="#000000" stroke-linejoin="round" stroke-miterlimit="10" d="M1265.807,57.048
	c-8.306-5.602-13.767-15.097-13.767-25.868C1252.04,13.96,1266,0,1283.22,0c17.222,0,31.182,13.96,31.182,31.18
	c0,15.633-11.507,28.579-26.512,30.832c-1.168,1.1-2.438,2.034-2.547,3.768c-0.097,1.561,0.782,3.067,1.167,4.539l13.521,22.803
	c42.25,85.139,84.562,174.83,120.889,256.635c3.143,7.092,6.32,14.162,9.071,20.982c0.504,1.227,39.767,87.759,53.955,122.79
	c3.054,7.562-0.017,14.735-10.91,15.645l-31.061,3.561l-16.659,2.281c-12.591,8.641-23.968,24.619-35.528,33.41
	c-6.012,4.555-11.922,12.488-17.479,16.639c-4.962,3.691-13.776,11.812-18.451,16.392c-29.547,28.858-61.228,68.889-105.123,72.778
	c-35.34,3.127-71.623,3.742-107.113,4.021c-6.794,0.053-12.067,1.358-15.456,4.871c-7.039,7.246-4.281,3.608-14.927,5.379
	c-88.155,9.621-198.655,8.815-296.111,15.621c-128.209,5.522-261.973,0.666-374.501-11.615l-20.586-0.947l-22.839,1.119
	l-5.551,0.492l-6.11,1.57l-36.517-97.681l2.097,103.104c0.646,5.553-43.543,4.119-50.357,3.391
	c-51.872-5.559-107.642-12.887-159.946-10.37c-12.626,0.606-26.786-1.072-39.884,0.454c-0.504-0.59-19.689-16.5-21.924-18.282
	c-5.935-4.681-14.124-15.931-19.455-22.246c-39.729-47.137-76.068-206.456-51.64-260.25c3.686-8.089,6.087-16.022,9.514-23.854
	c3.6-8.203,7.509-14.375,12.062-21.849c8.832-14.511,22.481-23.094,36.922-32.938c6.297-4.315,15.794-9.421,24.38-12.095
	c3.944-1.235,9.444-3.383,13.765-4.791c6.726-2.191,8.44-1.157,15.719-2.008l8.28-0.967c3.497-0.408,3.618-2.773,6.665-3.325
	l41.129-1.56c82.104-4.16,155.191,15.803,268.958-28.203c39.123-14.1,83.849-23.271,133.111-44.7
	c67.545-28.12,172.322-45.337,219.501-60.135c11.62-3.647,23.524-6.757,35.595-9.918c10.707-2.803,25.962-7.225,38.078-7.556
	c90.369,3.451,181.009,14.473,277.265,19.344l13.816,0.325l26.107,1.761l44.418-46.501l28.563-26.084
	c0.938-0.982,1.917-1.816,2.923-2.512C1266.539,62.915,1267.537,59.779,1265.807,57.048z"/>
</svg>
