<?xml version="1.0" encoding="utf-8"?>
<!-- Generator: Adobe Illustrator 16.0.0, SVG Export Plug-In . SVG Version: 6.00 Build 0)  -->
<!DOCTYPE svg PUBLIC "-//W3C//DTD SVG 1.1//EN" "http://www.w3.org/Graphics/SVG/1.1/DTD/svg11.dtd">
<svg version="1.1" id="Layer_1" xmlns="http://www.w3.org/2000/svg" xmlns:xlink="http://www.w3.org/1999/xlink" x="0px" y="0px"
	 width="2364.102px" height="862.184px" viewBox="0 0 2364.102 862.184" enable-background="new 0 0 2364.102 862.184"
	 xml:space="preserve">
<path d="M2337.355,428.441c-58.344-14.296-151.51-38.646-314.242-93.041c-3.688,0.325-471.416-168.6-514.143-185.532
	c-42.72-16.933-83.084-31.359-126.738-47.607c-26.459-9.845-54.264-17.4-81.425-25.499c24.687,13.876,42.938,38.594,47.447,68.763
	c7.76,51.857-28.012,100.205-79.865,107.963c-51.858,7.759-100.209-28.008-107.963-79.865
	c-7.762-51.86,28.006-100.208,79.862-107.968c8.181-1.223,16.271-1.361,24.123-0.528c-4.842-1.698-9.639-3.45-14.358-5.292
	c-21.12-8.238-43.562-12.095-65.503-20.643c-15.57-6.067-51.127-16.788-68.265-19.431c-25.664-3.956-45.054-8.258-71.52-11.735
	C964.991-4.679,888.713,1.785,809.43,0.697c-142.855,0.957-233.444,25.487-300.078,75.21c-25.942,14.544-40.42,28.346-53.532,69.458
	c-3.226,10.1-12.157,23.712-20.159,34.65c-36.263,49.58-90.48,105.858-181.823,190.148C167.172,445.16,82.12,515.369,0,577.037
	l113.258,285.146c103.672-85.1,227.184-179.647,325.688-251.104c46.935-34.041,66.792-47.947,110.351-50.984
	c27.765-1.936,67.764,13.982,98.249,24.189c26.891,8.996,68.614,23.344,82.54,20.645l11.144-2.155
	C784,594.34,835.238,512.01,927.725,494.116c64.79-12.541,163.984,4.383,221.521,9.293c70.657,6.022,142.127,15.414,209.861,27.822
	c53.604,9.823,53.954,13.329,99.054-15.236c29.506-18.695,63.987-34.883,98.043-50.396c55.435-25.252,171.566-62.802,427.09-26.498
	c142.812,20.287,261.381,24.457,341.354,32.433C2366.705,475.709,2381.42,439.236,2337.355,428.441z M1130.875,71.188
	c1.156-3.534,4.962-5.459,8.493-4.302c3.534,1.158,5.459,4.961,4.304,8.494c-1.158,3.534-4.96,5.459-8.494,4.301
	C1131.643,78.522,1129.719,74.719,1130.875,71.188z M1077.117,53.569c1.158-3.533,4.96-5.458,8.494-4.301
	c3.534,1.158,5.459,4.96,4.303,8.495c-1.157,3.533-4.962,5.458-8.493,4.3C1077.886,60.907,1075.959,57.104,1077.117,53.569z
	 M1023.361,35.955c1.158-3.534,4.96-5.459,8.495-4.302c3.534,1.158,5.459,4.961,4.3,8.495c-1.155,3.533-4.959,5.459-8.493,4.301
	C1024.129,43.291,1022.201,39.486,1023.361,35.955z M1007.169,85.369c1.155-3.534,4.96-5.459,8.491-4.301
	c3.534,1.158,5.459,4.96,4.304,8.494c-1.158,3.534-4.96,5.459-8.495,4.301C1007.935,92.705,1006.01,88.9,1007.169,85.369z
	 M953.409,67.751c1.158-3.533,4.96-5.459,8.494-4.3c3.534,1.158,5.459,4.96,4.301,8.494c-1.155,3.533-4.96,5.458-8.491,4.301
	C954.178,75.086,952.253,71.286,953.409,67.751z M899.653,50.134c1.156-3.533,4.96-5.458,8.494-4.301
	c3.532,1.158,5.459,4.961,4.301,8.494c-1.158,3.534-4.96,5.459-8.494,4.301C900.421,57.47,898.493,53.668,899.653,50.134z
	 M883.46,99.548c1.155-3.534,4.96-5.459,8.491-4.301c3.534,1.158,5.459,4.961,4.304,8.494c-1.158,3.534-4.961,5.459-8.494,4.302
	C884.227,106.885,882.302,103.083,883.46,99.548z M845.896,32.52c1.156-3.533,4.96-5.459,8.492-4.301
	c3.534,1.158,5.459,4.96,4.304,8.494c-1.158,3.533-4.962,5.458-8.494,4.301C846.661,39.855,844.737,36.051,845.896,32.52z
	 M829.7,81.934c1.159-3.534,4.96-5.459,8.495-4.301c3.534,1.159,5.459,4.96,4.302,8.494c-1.156,3.534-4.961,5.459-8.492,4.301
	C830.469,89.27,828.545,85.466,829.7,81.934z M813.51,131.348c1.156-3.533,4.96-5.459,8.495-4.301
	c3.53,1.158,5.458,4.96,4.301,8.494c-1.158,3.533-4.96,5.459-8.494,4.301C814.276,138.685,812.351,134.88,813.51,131.348z
	 M775.945,64.315c1.158-3.534,4.96-5.459,8.494-4.301c3.532,1.158,5.459,4.96,4.302,8.494c-1.158,3.534-4.961,5.459-8.495,4.302
	C776.712,71.652,774.784,67.851,775.945,64.315z M759.75,113.73c1.157-3.534,4.962-5.459,8.493-4.301
	c3.534,1.158,5.459,4.961,4.304,8.494c-1.158,3.534-4.961,5.459-8.494,4.302C760.519,121.066,758.594,117.265,759.75,113.73z
	 M743.558,163.146c1.158-3.534,4.96-5.459,8.495-4.301c3.534,1.158,5.458,4.96,4.301,8.494c-1.156,3.534-4.96,5.459-8.492,4.302
	C744.324,170.481,742.4,166.678,743.558,163.146z M722.188,46.701c1.158-3.534,4.962-5.459,8.494-4.3
	c3.534,1.158,5.459,4.96,4.303,8.494c-1.158,3.534-4.96,5.459-8.494,4.301C722.952,54.037,721.029,50.233,722.188,46.701z
	 M705.992,96.113c1.158-3.533,4.961-5.459,8.495-4.301c3.534,1.158,5.459,4.96,4.301,8.494c-1.155,3.533-4.961,5.459-8.491,4.301
	C706.761,103.452,704.837,99.647,705.992,96.113z M689.802,145.528c1.158-3.533,4.96-5.459,8.494-4.301
	c3.531,1.158,5.459,4.96,4.302,8.494c-1.156,3.533-4.961,5.459-8.495,4.301C690.568,152.866,688.643,149.063,689.802,145.528z
	 M668.43,29.084c1.158-3.534,4.96-5.459,8.494-4.301c3.533,1.158,5.459,4.96,4.301,8.494c-1.156,3.534-4.96,5.459-8.492,4.302
	C669.198,36.419,667.271,32.619,668.43,29.084z M652.236,78.499c1.158-3.534,4.96-5.459,8.494-4.301
	c3.532,1.158,5.459,4.961,4.302,8.494c-1.158,3.534-4.96,5.459-8.495,4.302C653.004,85.834,651.077,82.032,652.236,78.499z
	 M636.044,127.914c1.155-3.534,4.96-5.459,8.491-4.301c3.534,1.158,5.459,4.961,4.304,8.494c-1.158,3.534-4.96,5.459-8.494,4.302
	C636.811,135.25,634.885,131.445,636.044,127.914z M598.479,60.88c1.159-3.533,4.962-5.459,8.494-4.301
	c3.534,1.158,5.459,4.96,4.303,8.494c-1.158,3.533-4.96,5.459-8.494,4.301C599.245,68.217,597.321,64.416,598.479,60.88z
	 M582.284,110.295c1.158-3.533,4.96-5.459,8.494-4.301c3.534,1.158,5.459,4.96,4.301,8.494c-1.155,3.533-4.96,5.459-8.492,4.301
	C583.054,117.631,581.129,113.831,582.284,110.295z M528.529,92.681c1.158-3.534,4.96-5.459,8.494-4.301
	c3.532,1.158,5.459,4.961,4.301,8.494c-1.155,3.534-4.96,5.459-8.495,4.302C529.297,100.017,527.369,96.212,528.529,92.681z
	 M512.336,142.093c1.155-3.534,4.96-5.459,8.491-4.301c3.534,1.158,5.459,4.961,4.304,8.494c-1.158,3.534-4.959,5.459-8.494,4.301
	C513.104,149.431,511.178,145.626,512.336,142.093z M151.567,516.359c1.158-3.533,4.96-5.457,8.493-4.308
	c3.534,1.16,5.459,4.961,4.301,8.494c-1.156,3.535-4.96,5.461-8.492,4.303C152.334,523.697,150.41,519.891,151.567,516.359z
	 M165.239,677.918c3.534,1.158,5.458,4.961,4.303,8.494c-1.157,3.535-4.96,5.459-8.495,4.303c-3.531-1.158-5.458-4.961-4.3-8.494
	C157.903,678.682,161.706,676.758,165.239,677.918z M135.374,565.773c1.158-3.531,4.96-5.459,8.493-4.306
	c3.532,1.158,5.459,4.959,4.301,8.494c-1.158,3.533-4.96,5.459-8.494,4.301C136.142,573.111,134.216,569.305,135.374,565.773z
	 M119.181,615.186c1.156-3.528,4.96-5.461,8.492-4.303c3.534,1.16,5.459,4.961,4.302,8.494c-1.158,3.535-4.961,5.461-8.494,4.303
	C119.948,622.523,118.022,618.719,119.181,615.186z M102.988,664.6c1.158-3.528,4.96-5.459,8.493-4.301
	c3.534,1.156,5.459,4.959,4.303,8.494c-1.158,3.533-4.962,5.459-8.494,4.301C103.755,671.939,101.83,668.133,102.988,664.6z
	 M62.025,651.176c-1.156,3.533-4.961,5.459-8.494,4.303c-3.531-1.153-5.456-4.961-4.3-8.489c1.158-3.533,4.96-5.459,8.493-4.308
	C61.258,643.84,63.183,647.643,62.025,651.176z M78.218,601.762c-1.157,3.533-4.96,5.459-8.493,4.308
	c-3.533-1.158-5.458-4.966-4.3-8.494c1.157-3.535,4.959-5.459,8.492-4.308C77.451,594.426,79.376,598.23,78.218,601.762z
	 M81.617,548.158c1.156-3.533,4.961-5.459,8.491-4.303c3.534,1.153,5.459,4.963,4.303,8.489c-1.158,3.533-4.96,5.459-8.495,4.308
	C82.384,555.494,80.458,551.689,81.617,548.158z M86.794,714.014c1.158-3.53,4.961-5.459,8.494-4.301
	c3.532,1.156,5.459,4.959,4.3,8.494c-1.157,3.533-4.959,5.459-8.492,4.301S85.637,717.549,86.794,714.014z M139.47,824.453
	c-21.299,4.121-41.886-9.803-46.003-31.082c-4.117-21.283,9.804-41.883,31.066-45.994c21.297-4.123,41.884,9.797,46.002,31.08
	C174.653,799.738,160.733,820.336,139.47,824.453z M167.761,466.945c1.157-3.533,4.96-5.459,8.492-4.308
	c3.534,1.16,5.459,4.961,4.302,8.496c-1.158,3.533-4.96,5.459-8.494,4.301C168.528,474.283,166.602,470.477,167.761,466.945z
	 M185.733,636.998c-1.156,3.533-4.96,5.459-8.494,4.301c-3.531-1.158-5.458-4.959-4.301-8.494c1.158-3.533,4.96-5.457,8.494-4.301
	C184.966,629.662,186.891,633.461,185.733,636.998z M189.132,583.387c1.158-3.533,4.96-5.459,8.493-4.301
	c3.534,1.158,5.459,4.961,4.303,8.494c-1.159,3.533-4.962,5.459-8.495,4.301S187.973,586.922,189.132,583.387z M207.104,753.443
	c-1.158,3.526-4.96,5.459-8.494,4.301c-3.531-1.158-5.458-4.961-4.3-8.494c1.157-3.533,4.96-5.459,8.493-4.301
	C206.337,746.105,208.263,749.91,207.104,753.443z M205.325,533.973c1.156-3.528,4.961-5.459,8.492-4.301
	c3.534,1.158,5.458,4.961,4.303,8.494c-1.158,3.533-4.961,5.459-8.495,4.301C206.092,541.309,204.167,537.506,205.325,533.973z
	 M223.297,704.029c-1.157,3.528-4.96,5.459-8.493,4.301c-3.533-1.156-5.458-4.961-4.301-8.494c1.158-3.533,4.96-5.459,8.493-4.301
	C222.529,696.693,224.456,700.496,223.297,704.029z M221.518,484.559c1.157-3.528,4.961-5.459,8.494-4.301
	c3.533,1.156,5.459,4.959,4.301,8.492c-1.157,3.535-4.959,5.461-8.494,4.303C222.285,491.895,220.36,488.092,221.518,484.559z
	 M239.491,654.615c-1.158,3.528-4.962,5.459-8.495,4.301c-3.533-1.156-5.458-4.961-4.302-8.494c1.158-3.533,4.96-5.459,8.493-4.301
	C238.723,647.279,240.648,651.082,239.491,654.615z M237.711,435.145c1.158-3.528,4.96-5.458,8.493-4.3
	c3.532,1.158,5.459,4.958,4.302,8.494s-4.961,5.461-8.494,4.301C238.479,442.484,236.553,438.678,237.711,435.145z M255.684,605.199
	c-1.158,3.533-4.96,5.461-8.494,4.303c-3.531-1.158-5.458-4.961-4.3-8.494c1.157-3.533,4.96-5.461,8.492-4.303
	C254.917,597.865,256.841,601.668,255.684,605.199z M271.877,555.787c-1.157,3.533-4.96,5.459-8.494,4.301
	c-3.532-1.158-5.458-4.961-4.3-8.494s4.96-5.459,8.493-4.303C271.11,548.451,273.035,552.252,271.877,555.787z M275.275,502.174
	c1.158-3.533,4.96-5.457,8.493-4.301c3.535,1.16,5.46,4.961,4.302,8.494c-1.156,3.535-4.961,5.459-8.493,4.303
	C276.042,509.512,274.117,505.709,275.275,502.174z M293.248,672.23c-1.158,3.53-4.96,5.459-8.494,4.303
	c-3.533-1.158-5.459-4.959-4.301-8.494c1.156-3.533,4.96-5.459,8.493-4.301C292.481,664.891,294.406,668.697,293.248,672.23z
	 M291.468,452.76c1.158-3.533,4.962-5.459,8.495-4.301c3.532,1.158,5.459,4.961,4.302,8.494c-1.158,3.533-4.961,5.459-8.495,4.301
	S290.311,456.295,291.468,452.76z M309.441,622.818c-1.158,3.526-4.96,5.455-8.494,4.299c-3.532-1.158-5.459-4.959-4.3-8.494
	c1.158-3.533,4.959-5.457,8.494-4.299C308.675,615.48,310.599,619.283,309.441,622.818z M307.66,403.348
	c1.158-3.534,4.96-5.459,8.493-4.301c3.535,1.158,5.46,4.96,4.302,8.495c-1.155,3.533-4.96,5.459-8.492,4.301
	C308.429,410.684,306.504,406.881,307.66,403.348z M325.635,573.402c-1.158,3.528-4.96,5.461-8.494,4.301
	c-3.531-1.158-5.459-4.959-4.301-8.492c1.155-3.535,4.96-5.461,8.493-4.303C324.865,566.066,326.79,569.869,325.635,573.402z
	 M323.855,353.934c1.156-3.534,4.96-5.459,8.491-4.301c3.534,1.158,5.459,4.96,4.304,8.495c-1.158,3.534-4.96,5.459-8.495,4.301
	C324.62,361.271,322.697,357.466,323.855,353.934z M341.826,523.988c-1.156,3.528-4.961,5.459-8.491,4.301
	c-3.534-1.158-5.46-4.961-4.305-8.494c1.158-3.533,4.96-5.459,8.495-4.301S342.986,520.455,341.826,523.988z M345.226,470.377
	c1.158-3.535,4.96-5.459,8.494-4.301s5.459,4.961,4.303,8.494c-1.158,3.53-4.962,5.459-8.494,4.301
	C345.991,477.713,344.067,473.914,345.226,470.377z M363.198,640.43c-1.157,3.535-4.96,5.459-8.495,4.306
	c-3.531-1.156-5.458-4.959-4.3-8.492c1.158-3.535,4.96-5.461,8.494-4.308C362.432,633.094,364.356,636.898,363.198,640.43z
	 M361.419,420.963c1.156-3.534,4.961-5.459,8.491-4.301c3.534,1.158,5.459,4.961,4.305,8.495c-1.158,3.534-4.961,5.459-8.495,4.301
	C362.186,428.299,360.26,424.498,361.419,420.963z M379.392,591.016c-1.156,3.533-4.959,5.459-8.492,4.306
	c-3.534-1.156-5.459-4.959-4.303-8.494c1.158-3.533,4.96-5.459,8.494-4.303C378.624,583.68,380.551,587.484,379.392,591.016z
	 M377.612,371.549c1.156-3.534,4.961-5.459,8.494-4.302c3.532,1.158,5.459,4.961,4.301,8.495c-1.158,3.534-4.961,5.459-8.494,4.301
	C378.381,378.885,376.452,375.084,377.612,371.549z M395.586,541.602c-1.159,3.533-4.96,5.459-8.495,4.306
	c-3.534-1.156-5.459-4.961-4.304-8.494c1.158-3.533,4.96-5.459,8.494-4.301C394.818,534.266,396.741,538.07,395.586,541.602z
	 M393.805,322.134c1.158-3.534,4.96-5.459,8.494-4.301c3.531,1.158,5.459,4.96,4.301,8.494c-1.156,3.534-4.96,5.459-8.492,4.301
	C394.572,329.473,392.647,325.668,393.805,322.134z M411.778,492.189c-1.158,3.53-4.96,5.461-8.494,4.303
	c-3.531-1.158-5.459-4.959-4.301-8.494c1.156-3.533,4.96-5.459,8.495-4.301C411.011,484.85,412.936,488.656,411.778,492.189z
	 M409.996,272.721c1.158-3.533,4.964-5.459,8.494-4.301c3.534,1.158,5.459,4.96,4.305,8.494c-1.158,3.534-4.96,5.459-8.495,4.301
	C410.765,280.058,408.841,276.253,409.996,272.721z M427.971,442.775c-1.155,3.528-4.96,5.459-8.494,4.301
	c-3.532-1.158-5.459-4.959-4.301-8.494c1.158-3.533,4.96-5.459,8.494-4.301C427.202,435.439,429.131,439.242,427.971,442.775z
	 M426.192,223.308c1.156-3.533,4.96-5.459,8.492-4.301c3.534,1.158,5.459,4.961,4.303,8.494c-1.158,3.534-4.96,5.459-8.494,4.301
	C426.96,230.644,425.032,226.839,426.192,223.308z M431.368,389.167c1.158-3.534,4.96-5.459,8.494-4.302
	c3.534,1.158,5.459,4.96,4.302,8.495c-1.155,3.534-4.961,5.459-8.492,4.301C432.137,396.503,430.212,392.701,431.368,389.167z
	 M449.344,559.217c-1.159,3.535-4.96,5.461-8.495,4.303c-3.531-1.153-5.459-4.961-4.301-8.489c1.155-3.535,4.96-5.459,8.493-4.308
	C448.573,551.881,450.501,555.684,449.344,559.217z M447.562,339.751c1.156-3.534,4.961-5.459,8.493-4.302
	c3.534,1.158,5.459,4.96,4.303,8.495c-1.158,3.534-4.96,5.459-8.494,4.301C448.328,347.087,446.405,343.287,447.562,339.751z
	 M465.534,509.803c-1.155,3.533-4.96,5.459-8.493,4.308c-3.532-1.16-5.46-4.968-4.302-8.494c1.158-3.535,4.96-5.459,8.495-4.308
	C464.769,502.467,466.694,506.27,465.534,509.803z M463.756,290.336c1.155-3.534,4.961-5.459,8.495-4.302
	c3.531,1.159,5.459,4.961,4.301,8.495c-1.158,3.533-4.96,5.459-8.494,4.301C464.523,297.672,462.598,293.872,463.756,290.336z
	 M481.729,460.389c-1.156,3.533-4.96,5.459-8.492,4.308c-3.534-1.158-5.459-4.961-4.303-8.494c1.158-3.535,4.96-5.459,8.494-4.308
	C480.962,453.053,482.887,456.859,481.729,460.389z M479.948,240.922c1.158-3.533,4.96-5.459,8.494-4.301
	c3.532,1.158,5.459,4.96,4.302,8.494c-1.155,3.533-4.96,5.459-8.493,4.301C480.716,248.258,478.789,244.457,479.948,240.922z
	 M497.923,410.976c-1.158,3.534-4.96,5.459-8.494,4.303c-3.534-1.157-5.46-4.96-4.301-8.494c1.155-3.534,4.96-5.459,8.491-4.302
	C497.154,403.639,499.078,407.442,497.923,410.976z M496.143,191.508c1.158-3.534,4.96-5.459,8.494-4.301s5.459,4.96,4.301,8.494
	c-1.156,3.534-4.96,5.459-8.493,4.301C496.908,198.844,494.985,195.042,496.143,191.508z M501.32,357.369
	c1.156-3.534,4.96-5.459,8.495-4.302c3.532,1.158,5.459,4.961,4.301,8.495s-4.96,5.459-8.494,4.301
	C502.088,364.706,500.16,360.901,501.32,357.369z M519.294,527.42c-1.158,3.533-4.962,5.459-8.495,4.301
	c-3.534-1.151-5.459-4.961-4.304-8.494c1.158-3.528,4.962-5.459,8.494-4.301C518.525,520.084,520.449,523.885,519.294,527.42z
	 M517.513,307.955c1.158-3.533,4.96-5.459,8.494-4.301c3.534,1.158,5.459,4.961,4.302,8.494c-1.156,3.534-4.961,5.459-8.493,4.301
	C518.28,315.291,516.355,311.486,517.513,307.955z M535.486,478.006c-1.158,3.533-4.96,5.457-8.494,4.301
	c-3.534-1.153-5.459-4.961-4.301-8.491c1.157-3.531,4.96-5.464,8.493-4.306C534.719,470.67,536.645,474.471,535.486,478.006z
	 M533.704,258.54c1.158-3.533,4.962-5.459,8.495-4.301c3.534,1.158,5.459,4.96,4.304,8.494c-1.158,3.534-4.962,5.459-8.495,4.301
	C534.474,265.876,532.549,262.073,533.704,258.54z M551.679,428.591c-1.156,3.536-4.96,5.458-8.494,4.299
	c-3.531-1.151-5.458-4.958-4.3-8.492c1.158-3.537,4.96-5.459,8.494-4.305C550.91,421.255,552.838,425.057,551.679,428.591z
	 M554.199,217.62c-3.533-1.158-5.459-4.96-4.301-8.494c1.156-3.533,4.961-5.459,8.492-4.301c3.534,1.158,5.459,4.96,4.303,8.494
	C561.535,216.853,557.735,218.776,554.199,217.62z M567.871,379.177c-1.155,3.534-4.96,5.459-8.491,4.301
	c-3.534-1.158-5.459-4.96-4.304-8.494c1.158-3.534,4.96-5.459,8.494-4.302C567.105,371.84,569.031,375.645,567.871,379.177z
	 M566.094,159.709c1.158-3.533,4.96-5.459,8.494-4.301c3.531,1.158,5.459,4.96,4.301,8.494c-1.156,3.534-4.96,5.459-8.492,4.302
	C566.86,167.045,564.935,163.245,566.094,159.709z M571.271,325.569c1.156-3.534,4.96-5.459,8.493-4.302
	c3.533,1.158,5.458,4.961,4.303,8.495c-1.158,3.533-4.96,5.459-8.494,4.301C572.036,332.905,570.113,329.104,571.271,325.569z
	 M589.242,495.625c-1.155,3.533-4.96,5.459-8.492,4.301c-3.533-1.156-5.459-4.961-4.303-8.494c1.158-3.53,4.96-5.459,8.494-4.301
	S590.402,492.088,589.242,495.625z M587.465,276.155c1.155-3.534,4.96-5.459,8.492-4.301c3.533,1.158,5.459,4.96,4.303,8.494
	c-1.158,3.533-4.96,5.459-8.494,4.301C588.231,283.493,586.306,279.689,587.465,276.155z M605.438,446.209
	c-1.157,3.533-4.961,5.459-8.494,4.301s-5.459-4.961-4.302-8.494c1.158-3.528,4.96-5.459,8.494-4.301
	C604.67,438.875,606.595,442.674,605.438,446.209z M603.656,226.743c1.158-3.534,4.96-5.459,8.494-4.301
	c3.532,1.158,5.459,4.96,4.302,8.494c-1.155,3.533-4.961,5.459-8.494,4.301C604.425,234.079,602.497,230.273,603.656,226.743z
	 M621.631,396.793c-1.158,3.534-4.959,5.459-8.494,4.301c-3.534-1.158-5.459-4.96-4.303-8.494c1.157-3.534,4.962-5.459,8.494-4.302
	C620.863,389.458,622.787,393.259,621.631,396.793z M619.85,177.328c1.158-3.534,4.961-5.459,8.495-4.301
	c3.534,1.158,5.459,4.96,4.302,8.494s-4.961,5.459-8.493,4.301C620.616,184.664,618.692,180.859,619.85,177.328z M625.028,343.188
	c1.156-3.534,4.96-5.459,8.494-4.302c3.532,1.158,5.459,4.961,4.301,8.495c-1.158,3.534-4.96,5.459-8.494,4.301
	C625.796,350.522,623.868,346.719,625.028,343.188z M643,513.242c-1.156,3.533-4.961,5.459-8.493,4.301
	c-3.534-1.158-5.459-4.961-4.304-8.494c1.158-3.533,4.961-5.459,8.495-4.303C642.234,505.906,644.157,509.707,643,513.242z
	 M641.221,293.772c1.158-3.533,4.96-5.459,8.494-4.301c3.533,1.158,5.459,4.96,4.301,8.494c-1.156,3.534-4.96,5.459-8.492,4.301
	C641.988,301.107,640.062,297.307,641.221,293.772z M659.194,463.828c-1.158,3.533-4.96,5.459-8.494,4.301s-5.459-4.961-4.302-8.496
	c1.158-3.533,4.961-5.457,8.493-4.301C658.427,456.49,660.354,460.293,659.194,463.828z M657.413,244.357
	c1.158-3.533,4.962-5.459,8.494-4.301c3.534,1.158,5.458,4.96,4.304,8.494c-1.157,3.534-4.961,5.459-8.494,4.301
	C658.182,251.693,656.257,247.892,657.413,244.357z M675.388,414.412c-1.156,3.534-4.96,5.459-8.494,4.301
	c-3.532-1.158-5.459-4.96-4.301-8.494c1.155-3.534,4.96-5.459,8.494-4.301C674.618,407.075,676.547,410.876,675.388,414.412z
	 M673.608,194.942c1.156-3.533,4.96-5.459,8.492-4.301c3.534,1.158,5.459,4.96,4.303,8.494c-1.158,3.533-4.96,5.459-8.494,4.301
	C674.375,202.278,672.448,198.478,673.608,194.942z M678.784,360.802c1.158-3.533,4.96-5.459,8.494-4.301s5.459,4.961,4.301,8.495
	c-1.155,3.533-4.96,5.459-8.492,4.301C679.553,368.14,677.629,364.335,678.784,360.802z M696.76,530.855
	c-1.158,3.53-4.96,5.463-8.494,4.305s-5.459-4.961-4.302-8.494c1.155-3.535,4.961-5.461,8.492-4.303
	C695.99,523.518,697.916,527.324,696.76,530.855z M694.979,311.39c1.158-3.534,4.962-5.459,8.495-4.301
	c3.534,1.158,5.458,4.96,4.303,8.494c-1.158,3.533-4.96,5.459-8.494,4.301C695.744,318.726,693.821,314.921,694.979,311.39z
	 M712.95,481.443c-1.155,3.528-4.961,5.461-8.494,4.301c-3.532-1.158-5.459-4.961-4.302-8.492c1.158-3.535,4.96-5.461,8.494-4.303
	C712.184,474.104,714.11,477.91,712.95,481.443z M711.173,261.976c1.155-3.534,4.959-5.459,8.493-4.301
	c3.532,1.158,5.459,4.96,4.302,8.494c-1.158,3.533-4.96,5.459-8.495,4.301C711.939,269.311,710.014,265.506,711.173,261.976z
	 M729.145,432.029c-1.156,3.528-4.96,5.459-8.492,4.301c-3.534-1.158-5.459-4.96-4.303-8.496c1.158-3.534,4.961-5.459,8.495-4.302
	C728.378,424.691,730.304,428.494,729.145,432.029z M727.365,212.561c1.158-3.534,4.96-5.459,8.494-4.301
	c3.531,1.158,5.459,4.96,4.301,8.494c-1.155,3.533-4.96,5.459-8.491,4.301C728.134,219.896,726.206,216.092,727.365,212.561z
	 M732.544,378.418c1.155-3.534,4.96-5.459,8.491-4.302c3.534,1.158,5.459,4.961,4.304,8.495c-1.158,3.534-4.96,5.459-8.494,4.301
	C733.311,385.755,731.385,381.954,732.544,378.418z M750.517,548.471c-1.156,3.533-4.961,5.459-8.493,4.308
	c-3.534-1.158-5.459-4.966-4.303-8.496c1.158-3.533,4.96-5.459,8.494-4.306C749.747,541.135,751.675,544.939,750.517,548.471z
	 M748.736,329.004c1.158-3.534,4.96-5.459,8.494-4.302c3.532,1.159,5.459,4.961,4.302,8.495c-1.158,3.534-4.96,5.459-8.495,4.301
	C749.504,336.34,747.577,332.54,748.736,329.004z M766.71,499.057c-1.158,3.533-4.964,5.459-8.494,4.308
	c-3.534-1.158-5.459-4.961-4.305-8.496c1.159-3.533,4.96-5.457,8.495-4.305C765.942,491.721,767.866,495.525,766.71,499.057z
	 M764.93,279.59c1.158-3.533,4.96-5.459,8.494-4.301c3.533,1.158,5.458,4.961,4.301,8.494c-1.156,3.534-4.96,5.459-8.493,4.301
	C765.697,286.926,763.771,283.125,764.93,279.59z M782.902,449.643c-1.158,3.533-4.96,5.459-8.494,4.306
	c-3.534-1.158-5.459-4.959-4.301-8.494c1.156-3.533,4.96-5.459,8.492-4.301C782.135,442.305,784.061,446.111,782.902,449.643z
	 M781.121,230.175c1.158-3.533,4.961-5.459,8.495-4.301c3.533,1.158,5.458,4.96,4.303,8.494c-1.158,3.534-4.962,5.459-8.494,4.301
	C781.89,237.511,779.966,233.709,781.121,230.175z M799.096,400.229c-1.158,3.533-4.96,5.46-8.495,4.303
	c-3.532-1.158-5.459-4.96-4.301-8.494c1.155-3.533,4.96-5.459,8.494-4.301C798.327,392.894,800.255,396.695,799.096,400.229z
	 M797.316,180.761c1.156-3.533,4.96-5.459,8.492-4.301c3.534,1.158,5.459,4.96,4.303,8.494c-1.159,3.533-4.96,5.459-8.495,4.301
	C798.081,188.099,796.156,184.294,797.316,180.761z M802.491,346.622c1.158-3.533,4.961-5.459,8.495-4.301
	c3.533,1.158,5.459,4.96,4.301,8.494c-1.155,3.533-4.96,5.459-8.491,4.301C803.261,353.958,801.336,350.154,802.491,346.622z
	 M820.467,516.672c-1.158,3.535-4.96,5.461-8.494,4.303c-3.534-1.153-5.459-4.961-4.301-8.491c1.155-3.533,4.959-5.464,8.491-4.306
	C819.698,509.336,821.625,513.139,820.467,516.672z M818.688,297.208c1.157-3.533,4.961-5.458,8.493-4.3
	c3.534,1.158,5.459,4.96,4.303,8.494c-1.158,3.533-4.96,5.459-8.494,4.301C819.452,304.543,817.529,300.741,818.688,297.208z
	 M836.658,467.258c-1.155,3.535-4.961,5.459-8.494,4.301c-3.531-1.151-5.459-4.961-4.301-8.487c1.156-3.533,4.96-5.459,8.494-4.308
	C835.893,459.922,837.818,463.725,836.658,467.258z M834.881,247.793c1.155-3.534,4.96-5.459,8.49-4.301
	c3.534,1.158,5.459,4.96,4.305,8.494c-1.158,3.533-4.96,5.459-8.494,4.3C835.646,255.127,833.723,251.327,834.881,247.793z
	 M852.854,417.844c-1.156,3.534-4.961,5.459-8.492,4.301c-3.534-1.156-5.459-4.958-4.304-8.492c1.158-3.534,4.962-5.459,8.495-4.304
	C852.087,410.508,854.011,414.312,852.854,417.844z M851.073,198.377c1.158-3.534,4.96-5.459,8.495-4.301
	c3.532,1.158,5.458,4.96,4.301,8.494c-1.155,3.533-4.96,5.459-8.491,4.301C851.842,205.713,849.916,201.913,851.073,198.377z
	 M869.047,368.432c-1.158,3.534-4.96,5.459-8.494,4.301c-3.534-1.158-5.459-4.961-4.303-8.494c1.157-3.534,4.962-5.459,8.493-4.301
	C868.279,361.094,870.203,364.897,869.047,368.432z M867.267,148.963c1.158-3.534,4.96-5.459,8.494-4.301
	c3.534,1.158,5.459,4.96,4.303,8.494c-1.158,3.534-4.962,5.459-8.494,4.302C868.032,156.299,866.108,152.498,867.267,148.963z
	 M872.444,314.823c1.156-3.533,4.961-5.459,8.492-4.301c3.534,1.158,5.459,4.96,4.304,8.494c-1.158,3.534-4.96,5.459-8.495,4.301
	C873.212,322.161,871.284,318.356,872.444,314.823z M890.416,484.877c-1.156,3.533-4.961,5.459-8.492,4.301
	c-3.534-1.158-5.459-4.961-4.304-8.494c1.158-3.53,4.96-5.459,8.494-4.301S891.573,481.34,890.416,484.877z M888.637,265.41
	c1.158-3.533,4.961-5.459,8.494-4.301c3.533,1.158,5.459,4.961,4.301,8.494c-1.156,3.533-4.96,5.459-8.492,4.301
	C889.405,272.746,887.479,268.941,888.637,265.41z M906.611,435.461c-1.159,3.533-4.96,5.459-8.494,4.301s-5.459-4.961-4.301-8.496
	c1.156-3.528,4.96-5.459,8.492-4.301C905.843,428.125,907.769,431.926,906.611,435.461z M904.829,215.996
	c1.158-3.533,4.962-5.459,8.494-4.301c3.534,1.158,5.459,4.96,4.304,8.494c-1.158,3.534-4.959,5.459-8.494,4.302
	C905.598,223.332,903.674,219.527,904.829,215.996z M922.804,386.046c-1.156,3.533-4.961,5.459-8.495,4.301
	c-3.532-1.158-5.459-4.96-4.301-8.494c1.158-3.533,4.96-5.459,8.495-4.301C922.035,378.71,923.963,382.515,922.804,386.046z
	 M921.024,166.581c1.156-3.533,4.96-5.459,8.492-4.301c3.534,1.158,5.459,4.96,4.304,8.494c-1.158,3.533-4.96,5.459-8.495,4.301
	C921.791,173.917,919.865,170.113,921.024,166.581z M938.995,336.632c-1.155,3.533-4.96,5.459-8.491,4.301
	c-3.534-1.158-5.459-4.96-4.305-8.494c1.159-3.534,4.96-5.459,8.495-4.301C938.23,329.296,940.155,333.1,938.995,336.632z
	 M937.218,117.167c1.158-3.534,4.96-5.459,8.495-4.301c3.531,1.159,5.459,4.96,4.301,8.494c-1.156,3.534-4.96,5.459-8.494,4.301
	C937.984,124.501,936.059,120.701,937.218,117.167z M942.395,283.024c1.158-3.533,4.962-5.459,8.494-4.301
	c3.534,1.158,5.459,4.96,4.304,8.494c-1.158,3.533-4.961,5.459-8.495,4.301C943.16,290.36,941.237,286.56,942.395,283.024z
	 M960.366,453.08c-1.156,3.533-4.96,5.459-8.494,4.301c-3.53-1.156-5.458-4.961-4.301-8.494c1.155-3.533,4.96-5.459,8.495-4.301
	C959.601,445.744,961.526,449.543,960.366,453.08z M958.589,233.61c1.155-3.534,4.961-5.459,8.493-4.301
	c3.533,1.158,5.459,4.96,4.303,8.494c-1.158,3.533-4.96,5.459-8.494,4.301C959.356,240.946,957.43,237.146,958.589,233.61z
	 M976.561,403.665c-1.156,3.534-4.96,5.459-8.492,4.301c-3.534-1.158-5.459-4.961-4.304-8.494c1.158-3.534,4.96-5.459,8.495-4.301
	C975.795,396.328,977.719,400.129,976.561,403.665z M974.781,184.196c1.158-3.534,4.961-5.459,8.495-4.301
	c3.532,1.158,5.459,4.961,4.301,8.494c-1.155,3.533-4.96,5.459-8.494,4.301C975.55,191.534,973.622,187.73,974.781,184.196z
	 M992.755,354.25c-1.158,3.534-4.96,5.459-8.494,4.301c-3.534-1.158-5.459-4.961-4.302-8.494c1.156-3.534,4.961-5.459,8.492-4.301
	C991.987,346.914,993.91,350.715,992.755,354.25z M990.975,134.783c1.158-3.534,4.96-5.459,8.494-4.301
	c3.534,1.158,5.459,4.96,4.303,8.495c-1.157,3.534-4.961,5.459-8.494,4.301C991.74,142.12,989.816,138.315,990.975,134.783z
	 M996.152,300.643c1.156-3.533,4.96-5.459,8.494-4.301c3.532,1.158,5.459,4.961,4.301,8.494c-1.157,3.533-4.961,5.459-8.495,4.301
	C996.921,307.979,994.992,304.174,996.152,300.643z M1014.125,470.697c-1.157,3.526-4.962,5.459-8.493,4.301
	c-3.534-1.158-5.459-4.961-4.304-8.494c1.158-3.533,4.96-5.459,8.494-4.301S1015.282,467.164,1014.125,470.697z M1012.345,251.229
	c1.158-3.533,4.961-5.459,8.495-4.301c3.531,1.158,5.459,4.961,4.301,8.494c-1.156,3.534-4.96,5.459-8.494,4.301
	C1013.113,258.563,1011.188,254.76,1012.345,251.229z M1030.319,421.28c-1.158,3.531-4.96,5.459-8.495,4.301
	c-3.534-1.158-5.458-4.96-4.301-8.494c1.156-3.533,4.96-5.459,8.492-4.301C1029.552,413.944,1031.477,417.748,1030.319,421.28z
	 M1028.537,201.813c1.158-3.533,4.96-5.459,8.494-4.301c3.534,1.158,5.459,4.96,4.303,8.494c-1.156,3.534-4.962,5.459-8.493,4.302
	C1029.306,209.148,1027.382,205.348,1028.537,201.813z M1046.512,371.867c-1.158,3.533-4.96,5.459-8.494,4.301
	c-3.532-1.158-5.459-4.96-4.302-8.494c1.155-3.533,4.96-5.459,8.495-4.301C1045.743,364.529,1047.668,368.333,1046.512,371.867z
	 M1044.73,152.397c1.158-3.534,4.962-5.459,8.494-4.301c3.534,1.158,5.459,4.96,4.303,8.494c-1.158,3.534-4.961,5.459-8.495,4.302
	C1045.498,159.734,1043.573,155.934,1044.73,152.397z M1062.703,322.452c-1.155,3.533-4.96,5.459-8.491,4.301
	c-3.534-1.158-5.459-4.961-4.304-8.494c1.158-3.534,4.959-5.459,8.494-4.301S1063.863,318.918,1062.703,322.452z M1060.926,102.983
	c1.159-3.533,4.96-5.459,8.494-4.3c3.533,1.158,5.459,4.96,4.301,8.494c-1.156,3.533-4.96,5.458-8.493,4.301
	C1061.693,110.319,1059.767,106.519,1060.926,102.983z M1066.104,268.843c1.157-3.534,4.959-5.459,8.493-4.301
	c3.533,1.158,5.459,4.96,4.303,8.494c-1.158,3.533-4.96,5.459-8.494,4.301C1066.868,276.18,1064.945,272.376,1066.104,268.843z
	 M1084.074,438.9c-1.156,3.526-4.96,5.459-8.493,4.301c-3.534-1.158-5.459-4.961-4.302-8.494c1.158-3.536,4.96-5.459,8.494-4.302
	C1083.309,431.559,1085.234,435.365,1084.074,438.9z M1082.297,219.431c1.155-3.534,4.961-5.459,8.494-4.301
	c3.532,1.158,5.459,4.961,4.302,8.494c-1.158,3.533-4.961,5.459-8.494,4.301C1083.062,226.767,1081.138,222.962,1082.297,219.431z
	 M1100.27,389.481c-1.156,3.534-4.959,5.459-8.493,4.301c-3.534-1.158-5.459-4.961-4.303-8.494c1.158-3.534,4.96-5.459,8.494-4.301
	C1099.503,382.146,1101.427,385.95,1100.27,389.481z M1098.489,170.016c1.157-3.534,4.96-5.459,8.494-4.301
	c3.534,1.158,5.459,4.96,4.301,8.495c-1.155,3.534-4.96,5.458-8.494,4.301C1099.257,177.353,1097.329,173.548,1098.489,170.016z
	 M1116.463,340.066c-1.158,3.534-4.96,5.459-8.495,4.302c-3.534-1.158-5.458-4.961-4.302-8.494c1.157-3.534,4.962-5.46,8.493-4.301
	C1115.695,332.73,1117.618,336.535,1116.463,340.066z M1114.683,120.602c1.158-3.534,4.96-5.459,8.494-4.301
	c3.534,1.158,5.459,4.96,4.302,8.494c-1.156,3.534-4.961,5.459-8.493,4.301C1115.448,127.938,1113.524,124.133,1114.683,120.602z
	 M1119.86,286.459c1.156-3.534,4.96-5.459,8.495-4.301c3.531,1.158,5.457,4.961,4.3,8.494c-1.158,3.533-4.959,5.459-8.494,4.301
	C1120.629,293.795,1118.701,289.995,1119.86,286.459z M1137.832,456.512c-1.156,3.533-4.959,5.459-8.492,4.308
	c-3.534-1.158-5.458-4.968-4.304-8.494c1.157-3.533,4.96-5.459,8.494-4.308C1137.066,449.176,1138.99,452.979,1137.832,456.512z
	 M1136.054,237.045c1.157-3.533,4.96-5.459,8.494-4.301c3.534,1.158,5.459,4.961,4.301,8.494c-1.159,3.534-4.96,5.459-8.493,4.302
	C1136.821,244.381,1134.896,240.581,1136.054,237.045z M1154.027,407.099c-1.158,3.533-4.96,5.459-8.495,4.303
	c-3.533-1.158-5.458-4.96-4.302-8.494c1.157-3.533,4.961-5.459,8.493-4.303C1153.26,399.762,1155.186,403.565,1154.027,407.099z
	 M1170.22,357.685c-1.157,3.533-4.96,5.459-8.494,4.301c-3.534-1.158-5.459-4.961-4.301-8.495c1.159-3.533,4.96-5.458,8.495-4.3
	C1169.451,350.349,1171.378,354.149,1170.22,357.685z M1173.616,304.078c1.158-3.534,4.96-5.459,8.494-4.301
	c3.532,1.158,5.459,4.96,4.303,8.494c-1.156,3.533-4.962,5.459-8.495,4.301C1174.385,311.414,1172.459,307.609,1173.616,304.078z
	 M1191.592,474.127c-1.158,3.535-4.962,5.461-8.495,4.303c-3.533-1.151-5.459-4.961-4.303-8.494
	c1.156-3.528,4.962-5.459,8.493-4.303C1190.823,466.793,1192.748,470.594,1191.592,474.127z M1189.812,254.664
	c1.155-3.534,4.959-5.459,8.491-4.301c3.535,1.158,5.459,4.961,4.304,8.494c-1.157,3.533-4.962,5.459-8.495,4.301
	C1190.577,261.999,1188.653,258.195,1189.812,254.664z M1207.781,424.714c-1.156,3.534-4.959,5.46-8.494,4.302
	c-3.53-1.153-5.457-4.961-4.299-8.493c1.156-3.534,4.959-5.46,8.492-4.303C1207.015,417.378,1208.941,421.182,1207.781,424.714z
	 M1223.977,375.299c-1.156,3.534-4.961,5.459-8.49,4.302c-3.535-1.158-5.461-4.961-4.305-8.495c1.158-3.534,4.963-5.459,8.494-4.301
	C1223.212,367.963,1225.135,371.769,1223.977,375.299z M1227.375,321.692c1.156-3.534,4.962-5.459,8.492-4.301
	c3.533,1.158,5.459,4.961,4.303,8.494c-1.155,3.533-4.961,5.459-8.491,4.301C1228.143,329.028,1226.218,325.227,1227.375,321.692z
	 M1245.348,491.748c-1.154,3.533-4.961,5.459-8.494,4.301c-3.531-1.158-5.459-4.961-4.301-8.492
	c1.158-3.535,4.961-5.461,8.494-4.303C1244.578,484.412,1246.507,488.211,1245.348,491.748z M1243.568,272.278
	c1.156-3.534,4.961-5.459,8.494-4.301c3.533,1.158,5.459,4.961,4.301,8.494c-1.155,3.534-4.961,5.459-8.494,4.302
	C1244.337,279.616,1242.408,275.813,1243.568,272.278z M1261.541,442.334c-1.157,3.533-4.963,5.459-8.493,4.301
	c-3.533-1.158-5.457-4.961-4.304-8.494c1.158-3.528,4.963-5.459,8.496-4.301C1260.773,434.998,1262.698,438.797,1261.541,442.334z
	 M1277.734,392.917c-1.158,3.533-4.959,5.459-8.494,4.301c-3.532-1.158-5.457-4.961-4.301-8.495
	c1.156-3.533,4.961-5.459,8.492-4.301C1276.967,385.581,1278.893,389.383,1277.734,392.917z M1293.928,343.502
	c-1.158,3.533-4.961,5.459-8.494,4.301c-3.531-1.158-5.459-4.961-4.301-8.494c1.155-3.533,4.961-5.459,8.494-4.301
	C1293.158,336.167,1295.087,339.968,1293.928,343.502z M1297.324,289.896c1.158-3.533,4.959-5.459,8.494-4.301
	c3.533,1.158,5.457,4.961,4.302,8.494c-1.156,3.533-4.962,5.459-8.493,4.301C1298.094,297.23,1296.168,293.429,1297.324,289.896z
	 M1315.3,459.949c-1.158,3.535-4.961,5.461-8.494,4.303s-5.459-4.961-4.301-8.494c1.155-3.535,4.961-5.461,8.491-4.303
	C1314.531,452.613,1316.457,456.416,1315.3,459.949z M1331.49,410.534c-1.156,3.534-4.961,5.459-8.494,4.302
	c-3.53-1.158-5.459-4.961-4.301-8.495c1.156-3.534,4.961-5.459,8.494-4.301C1330.724,403.197,1332.65,407,1331.49,410.534z
	 M1347.686,361.12c-1.156,3.534-4.961,5.459-8.492,4.302c-3.533-1.158-5.459-4.961-4.303-8.495c1.158-3.534,4.961-5.459,8.492-4.301
	C1346.918,353.784,1348.844,357.585,1347.686,361.12z M1453.421,176.884c1.155-3.534,4.961-5.459,8.493-4.301
	c3.531,1.158,5.462,4.96,4.304,8.494c-1.158,3.534-4.963,5.459-8.494,4.301C1454.188,184.221,1452.262,180.418,1453.421,176.884z
	 M1437.229,226.298c1.156-3.533,4.959-5.458,8.492-4.301c3.535,1.158,5.459,4.96,4.301,8.495c-1.156,3.533-4.959,5.459-8.492,4.301
	C1437.992,233.634,1436.068,229.833,1437.229,226.298z M1421.033,275.713c1.156-3.534,4.959-5.459,8.494-4.301
	c3.531,1.158,5.457,4.96,4.303,8.495c-1.159,3.533-4.963,5.458-8.493,4.301C1421.802,283.049,1419.878,279.249,1421.033,275.713z
	 M1417.637,329.32c-1.158,3.533-4.961,5.459-8.496,4.301c-3.529-1.158-5.457-4.96-4.299-8.494c1.158-3.533,4.959-5.459,8.494-4.301
	C1416.867,321.984,1418.793,325.789,1417.637,329.32z M1399.66,159.269c1.158-3.533,4.963-5.458,8.496-4.3
	c3.533,1.158,5.459,4.96,4.303,8.494c-1.159,3.534-4.963,5.459-8.493,4.301C1400.43,166.605,1398.507,162.801,1399.66,159.269z
	 M1383.469,208.684c1.16-3.533,4.961-5.459,8.496-4.301c3.53,1.159,5.457,4.961,4.301,8.495s-4.961,5.459-8.496,4.301
	C1384.238,216.02,1382.312,212.216,1383.469,208.684z M1351.084,307.511c1.156-3.534,4.962-5.459,8.492-4.301
	c3.533,1.158,5.459,4.961,4.303,8.494c-1.157,3.534-4.961,5.459-8.493,4.301C1351.85,314.849,1349.927,311.044,1351.084,307.511z
	 M1369.057,477.564c-1.156,3.53-4.961,5.463-8.494,4.303c-3.531-1.158-5.459-4.961-4.301-8.494s4.961-5.459,8.492-4.299
	C1368.287,470.227,1370.216,474.033,1369.057,477.564z M1371.576,266.591c-3.53-1.158-5.459-4.96-4.301-8.495
	c1.156-3.534,4.959-5.459,8.494-4.301c3.531,1.158,5.459,4.961,4.301,8.494C1378.912,265.825,1375.111,267.75,1371.576,266.591z
	 M1422.814,495.18c-1.158,3.533-4.963,5.459-8.496,4.306c-3.533-1.158-5.459-4.966-4.299-8.494c1.154-3.533,4.961-5.459,8.49-4.306
	C1422.048,487.844,1423.971,491.65,1422.814,495.18z M1432.003,470.217c-24.854,4.812-48.908-11.44-53.722-36.303
	c-4.811-24.85,11.441-48.908,36.306-53.719c24.85-4.81,48.905,11.446,53.717,36.297
	C1473.113,441.348,1456.857,465.41,1432.003,470.217z M1471.393,346.938c-1.154,3.533-4.959,5.459-8.494,4.301
	c-3.531-1.158-5.459-4.96-4.301-8.494c1.158-3.534,4.961-5.459,8.494-4.301C1470.628,339.603,1472.552,343.404,1471.393,346.938z
	 M1474.791,293.331c1.156-3.534,4.962-5.459,8.492-4.301c3.533,1.158,5.459,4.961,4.303,8.494c-1.157,3.534-4.961,5.459-8.493,4.302
	C1475.559,300.667,1473.635,296.863,1474.791,293.331z M1492.764,463.381c-1.154,3.535-4.959,5.461-8.494,4.301
	c-3.531-1.151-5.459-4.959-4.301-8.487c1.158-3.533,4.961-5.459,8.494-4.308C1491.998,456.045,1493.923,459.848,1492.764,463.381z
	 M1490.984,243.917c1.156-3.534,4.961-5.459,8.496-4.301c3.529,1.158,5.457,4.961,4.299,8.495c-1.158,3.534-4.959,5.459-8.494,4.301
	C1491.753,251.251,1489.826,247.451,1490.984,243.917z M1508.957,413.967c-1.157,3.534-4.959,5.459-8.493,4.302
	c-3.533-1.156-5.459-4.961-4.304-8.493c1.158-3.533,4.963-5.458,8.494-4.302C1508.189,406.631,1510.115,410.435,1508.957,413.967z
	 M1507.178,194.501c1.158-3.534,4.961-5.459,8.494-4.301c3.53,1.159,5.459,4.96,4.301,8.494c-1.156,3.534-4.959,5.459-8.494,4.301
	C1507.945,201.836,1506.02,198.036,1507.178,194.501z M1525.15,364.555c-1.158,3.533-4.959,5.458-8.494,4.301
	c-3.532-1.158-5.459-4.96-4.301-8.494c1.156-3.533,4.961-5.459,8.492-4.301C1524.383,357.217,1526.309,361.021,1525.15,364.555z
	 M1541.344,315.141c-1.158,3.533-4.959,5.458-8.494,4.301c-3.531-1.159-5.459-4.96-4.301-8.495c1.155-3.533,4.961-5.459,8.494-4.301
	C1540.574,307.803,1542.503,311.605,1541.344,315.141z M1544.74,261.533c1.158-3.534,4.961-5.459,8.494-4.301
	c3.531,1.158,5.459,4.96,4.301,8.495c-1.155,3.533-4.961,5.459-8.491,4.301C1545.509,268.869,1543.584,265.065,1544.74,261.533z
	 M1562.716,431.584c-1.156,3.535-4.962,5.458-8.494,4.3c-3.533-1.156-5.459-4.96-4.302-8.496c1.154-3.528,4.962-5.458,8.492-4.301
	C1561.948,424.25,1563.873,428.05,1562.716,431.584z M1560.936,212.119c1.156-3.534,4.963-5.459,8.494-4.302
	c3.533,1.159,5.459,4.96,4.303,8.495c-1.158,3.534-4.963,5.459-8.494,4.301C1561.702,219.455,1559.777,215.65,1560.936,212.119z
	 M1578.906,382.169c-1.156,3.534-4.961,5.46-8.494,4.302c-3.532-1.158-5.459-4.961-4.301-8.494c1.156-3.534,4.961-5.459,8.494-4.301
	C1578.14,374.834,1580.066,378.639,1578.906,382.169z M1595.102,332.755c-1.156,3.534-4.961,5.459-8.492,4.301
	c-3.535-1.159-5.463-4.961-4.303-8.495c1.158-3.534,4.959-5.459,8.492-4.301C1594.334,325.419,1596.26,329.224,1595.102,332.755z
	 M1611.296,283.341c-1.158,3.534-4.962,5.459-8.494,4.301c-3.533-1.158-5.459-4.96-4.302-8.495c1.156-3.534,4.962-5.459,8.492-4.301
	C1610.527,276.004,1612.451,279.809,1611.296,283.341z M1614.691,229.733c1.156-3.534,4.961-5.459,8.496-4.302
	c3.531,1.159,5.459,4.961,4.301,8.495c-1.157,3.534-4.961,5.459-8.494,4.301C1615.462,237.069,1613.533,233.269,1614.691,229.733z
	 M1632.666,399.788c-1.157,3.533-4.963,5.459-8.493,4.301c-3.535-1.158-5.459-4.961-4.306-8.494
	c1.158-3.533,4.963-5.459,8.496-4.301C1631.898,392.452,1633.823,396.253,1632.666,399.788z M1648.859,350.374
	c-1.158,3.533-4.961,5.458-8.494,4.3c-3.535-1.158-5.459-4.96-4.301-8.494c1.154-3.533,4.959-5.459,8.492-4.301
	C1648.093,343.038,1650.018,346.838,1648.859,350.374z M1665.053,300.959c-1.158,3.533-4.961,5.459-8.494,4.301
	c-3.535-1.158-5.461-4.96-4.301-8.495c1.153-3.533,4.961-5.458,8.489-4.301C1664.283,293.623,1666.209,297.423,1665.053,300.959z
	 M1668.448,247.352c1.158-3.534,4.961-5.459,8.494-4.301c3.535,1.159,5.461,4.96,4.303,8.495c-1.155,3.534-4.961,5.459-8.491,4.301
	C1669.218,254.688,1667.291,250.883,1668.448,247.352z M1686.425,417.403c-1.158,3.531-4.961,5.459-8.494,4.301
	c-3.535-1.158-5.461-4.961-4.303-8.495c1.155-3.534,4.961-5.459,8.491-4.301C1685.656,410.067,1687.582,413.87,1686.425,417.403z
	 M1702.615,367.988c-1.156,3.534-4.961,5.459-8.494,4.301c-3.532-1.158-5.461-4.96-4.303-8.494c1.157-3.534,4.961-5.459,8.494-4.301
	C1701.85,360.652,1703.775,364.457,1702.615,367.988z M1718.809,318.576c-1.154,3.534-4.959,5.459-8.494,4.301
	c-3.531-1.158-5.459-4.961-4.301-8.495c1.158-3.534,4.961-5.459,8.496-4.301C1718.043,311.237,1719.968,315.042,1718.809,318.576z
	 M1735.005,269.161c-1.158,3.534-4.962,5.459-8.496,4.301c-3.533-1.158-5.459-4.96-4.302-8.494c1.156-3.534,4.962-5.459,8.492-4.302
	C1734.236,261.825,1736.158,265.626,1735.005,269.161z M1756.375,385.605c-1.159,3.533-4.963,5.459-8.495,4.301
	c-3.533-1.158-5.459-4.96-4.304-8.494c1.158-3.533,4.963-5.458,8.494-4.301C1755.605,378.271,1757.531,382.071,1756.375,385.605z
	 M1772.566,336.19c-1.158,3.534-4.959,5.459-8.492,4.301c-3.534-1.158-5.461-4.96-4.303-8.495c1.156-3.533,4.961-5.458,8.494-4.301
	C1771.8,328.855,1773.725,332.658,1772.566,336.19z M1788.76,286.776c-1.158,3.534-4.959,5.459-8.494,4.301
	c-3.531-1.158-5.459-4.96-4.301-8.494c1.155-3.534,4.961-5.459,8.494-4.301C1787.992,279.439,1789.918,283.244,1788.76,286.776z
	 M1810.132,403.222c-1.156,3.534-4.959,5.459-8.494,4.303c-3.533-1.159-5.459-4.96-4.302-8.494c1.156-3.534,4.962-5.459,8.492-4.301
	C1809.365,395.885,1811.287,399.688,1810.132,403.222z M1826.323,353.809c-1.156,3.534-4.959,5.459-8.494,4.301
	c-3.53-1.159-5.459-4.961-4.301-8.495c1.156-3.534,4.959-5.459,8.494-4.301S1827.482,350.273,1826.323,353.809z M1842.518,304.394
	c-1.156,3.534-4.959,5.459-8.494,4.301c-3.531-1.158-5.459-4.961-4.301-8.494c1.158-3.534,4.959-5.459,8.494-4.302
	C1841.75,297.058,1843.677,300.858,1842.518,304.394z M1880.082,371.423c-1.157,3.534-4.963,5.459-8.493,4.301
	c-3.533-1.159-5.459-4.96-4.304-8.495c1.158-3.533,4.963-5.458,8.494-4.301C1879.316,364.087,1881.24,367.891,1880.082,371.423z
	 M1896.275,322.009c-1.158,3.534-4.961,5.459-8.494,4.301c-3.535-1.158-5.459-4.96-4.301-8.494c1.154-3.534,4.959-5.459,8.492-4.301
	C1895.509,314.672,1897.434,318.477,1896.275,322.009z M1933.841,389.042c-1.158,3.534-4.959,5.459-8.494,4.301
	c-3.533-1.158-5.459-4.961-4.302-8.495c1.156-3.534,4.959-5.459,8.492-4.301C1933.072,381.705,1934.998,385.505,1933.841,389.042z
	 M1950.031,339.626c-1.156,3.534-4.961,5.459-8.494,4.301c-3.532-1.158-5.459-4.961-4.303-8.494c1.16-3.534,4.961-5.459,8.496-4.302
	C1949.266,332.291,1951.191,336.091,1950.031,339.626z M1987.598,406.658c-1.156,3.534-4.961,5.459-8.494,4.301
	c-3.533-1.159-5.461-4.96-4.301-8.494c1.156-3.534,4.959-5.459,8.494-4.301C1986.828,399.321,1988.757,403.124,1987.598,406.658z
	 M2003.791,357.244c-1.157,3.534-4.963,5.459-8.493,4.301c-3.535-1.158-5.462-4.96-4.304-8.494c1.156-3.534,4.959-5.459,8.492-4.301
	C2003.023,349.905,2004.948,353.709,2003.791,357.244z M2041.354,424.274c-1.154,3.529-4.959,5.458-8.49,4.301
	c-3.535-1.158-5.459-4.961-4.305-8.494c1.158-3.534,4.963-5.459,8.494-4.301C2040.587,416.937,2042.514,420.739,2041.354,424.274z
	 M2057.55,374.858c-1.158,3.534-4.961,5.459-8.496,4.301c-3.533-1.158-5.457-4.96-4.302-8.494c1.156-3.534,4.961-5.459,8.492-4.302
	C2056.781,367.522,2058.705,371.326,2057.55,374.858z M2111.305,392.476c-1.158,3.534-4.961,5.458-8.492,4.301
	c-3.533-1.158-5.461-4.96-4.303-8.494c1.158-3.534,4.961-5.459,8.494-4.301C2110.539,385.14,2112.466,388.94,2111.305,392.476z
	 M2165.061,410.091c-1.154,3.534-4.959,5.459-8.49,4.301c-3.533-1.155-5.459-4.96-4.303-8.492c1.158-3.534,4.959-5.459,8.494-4.303
	C2164.295,402.754,2166.221,406.558,2165.061,410.091z M2218.82,427.709c-1.159,3.533-4.961,5.458-8.493,4.298
	c-3.531-1.159-5.459-4.958-4.302-8.495c1.158-3.532,4.961-5.458,8.494-4.301C2218.052,420.373,2219.979,424.173,2218.82,427.709z
	 M2272.574,445.326c-1.154,3.533-4.959,5.459-8.492,4.303c-3.53-1.158-5.457-4.961-4.303-8.496c1.158-3.533,4.961-5.459,8.496-4.301
	S2273.734,441.793,2272.574,445.326z"/>
</svg>
