<?xml version="1.0" encoding="utf-8"?>
<!-- Generator: Adobe Illustrator 16.0.0, SVG Export Plug-In . SVG Version: 6.00 Build 0)  -->
<!DOCTYPE svg PUBLIC "-//W3C//DTD SVG 1.1//EN" "http://www.w3.org/Graphics/SVG/1.1/DTD/svg11.dtd">
<svg version="1.1" id="Layer_1" xmlns="http://www.w3.org/2000/svg" xmlns:xlink="http://www.w3.org/1999/xlink" x="0px" y="0px"
	 width="2361.398px" height="877.015px" viewBox="0 0 2361.398 877.015" enable-background="new 0 0 2361.398 877.015"
	 xml:space="preserve">
<path d="M2111.39,382.523c-89.793-85.945-142.978-143.199-178.334-193.431c-7.802-11.083-16.48-24.854-19.521-35.014
	c-12.362-41.342-26.59-55.404-52.258-70.421c-65.723-50.925-155.848-77.101-298.662-80.662
	c-79.291-0.355-155.438-8.206-235.43,3.046c-26.527,2.994-45.99,6.944-71.728,10.43c-17.18,2.332-52.92,12.4-68.604,18.184
	c-22.096,8.147-44.6,11.593-65.87,19.447c-42.115,15.552-89.275,24.668-132.928,40.014c-43.943,15.447-84.565,29.137-127.589,45.286
	c-43.021,16.155-513.745,176.531-517.435,176.139c-163.695,51.419-257.29,74.07-315.885,87.3
	c-44.251,9.991-30.205,46.731,11.92,43.311c80.106-6.516,198.735-8.523,341.895-26.209c99.612-12.31,177.938-13.828,239.709-9.55
	c1.125-0.198,2.246-0.104,3.28,0.238c95.041,6.967,150.336,27.716,183.543,43.582c33.771,16.131,67.951,32.949,97.108,52.176
	c44.57,29.393,44.983,25.893,98.761,17.041c67.947-11.176,139.577-19.26,210.333-24c57.619-3.859,157.104-18.973,221.656-5.258
	c92.146,19.58,141.877,102.834,184.479,112.041l11.104,2.359c13.873,2.939,55.854-10.646,82.899-19.146
	c30.668-9.643,70.949-24.832,98.679-22.391c43.487,3.83,63.098,18.094,109.396,52.979c97.189,73.24,218.977,170.029,321.062,257.002
	l118.422-283.045C2280.41,530.818,2196.677,459.08,2111.39,382.523z M91.374,426.874c-3.547,1.112-7.325-0.863-8.437-4.41
	c-1.112-3.548,0.859-7.327,4.41-8.438c3.549-1.113,7.323,0.86,8.438,4.408C96.897,421.984,94.922,425.762,91.374,426.874z
	 M145.355,409.953c-3.547,1.112-7.325-0.863-8.438-4.411c-1.109-3.548,0.862-7.325,4.41-8.438c3.548-1.111,7.326,0.862,8.438,4.41
	C150.877,405.063,148.904,408.841,145.355,409.953z M199.335,393.033c-3.548,1.111-7.324-0.864-8.437-4.412s0.859-7.325,4.41-8.438
	c3.548-1.112,7.323,0.863,8.438,4.411C204.858,388.142,202.883,391.92,199.335,393.033z M253.316,376.111
	c-3.548,1.112-7.325-0.863-8.438-4.411c-1.111-3.548,0.86-7.326,4.409-8.438c3.55-1.112,7.325,0.863,8.438,4.411
	C258.84,371.222,256.865,374.999,253.316,376.111z M307.299,359.189c-3.551,1.112-7.326-0.862-8.438-4.411
	c-1.113-3.547,0.861-7.325,4.41-8.438c3.546-1.111,7.326,0.863,8.438,4.411C312.818,354.3,310.845,358.077,307.299,359.189z
	 M322.851,408.809c-3.549,1.113-7.325-0.86-8.438-4.408c-1.109-3.55,0.86-7.326,4.411-8.438c3.548-1.113,7.324,0.862,8.438,4.41
	C328.372,403.919,326.399,407.697,322.851,408.809z M361.277,342.269c-3.55,1.112-7.326-0.862-8.438-4.41
	c-1.112-3.548,0.858-7.326,4.407-8.438c3.552-1.111,7.326,0.863,8.438,4.411C366.802,337.379,364.825,341.156,361.277,342.269z
	 M376.83,391.888c-3.549,1.113-7.323-0.862-8.438-4.411c-1.111-3.548,0.862-7.326,4.411-8.438c3.548-1.113,7.326,0.862,8.438,4.411
	C382.354,386.998,380.382,390.776,376.83,391.888z M415.259,325.348c-3.551,1.113-7.326-0.862-8.438-4.41s0.86-7.326,4.409-8.438
	c3.551-1.113,7.325,0.862,8.438,4.41C420.78,320.458,418.806,324.235,415.259,325.348z M430.812,374.967
	c-3.548,1.113-7.324-0.862-8.438-4.41c-1.11-3.548,0.859-7.326,4.41-8.438c3.549-1.113,7.325,0.862,8.438,4.41
	C436.335,370.077,434.359,373.855,430.812,374.967z M469.238,308.427c-3.551,1.113-7.326-0.862-8.438-4.41
	c-1.112-3.548,0.859-7.326,4.409-8.438c3.55-1.112,7.324,0.863,8.438,4.41C474.761,303.537,472.785,307.314,469.238,308.427z
	 M484.791,358.046c-3.548,1.111-7.322-0.862-8.438-4.411c-1.109-3.548,0.862-7.325,4.411-8.438c3.548-1.113,7.325,0.862,8.438,4.41
	C490.314,353.156,488.342,356.934,484.791,358.046z M523.219,291.505c-3.55,1.113-7.326-0.862-8.438-4.41
	c-1.109-3.548,0.859-7.326,4.408-8.438c3.55-1.112,7.326,0.862,8.438,4.41C528.74,286.616,526.767,290.393,523.219,291.505z
	 M538.772,341.126c-3.549,1.111-7.324-0.863-8.438-4.411c-1.112-3.548,0.859-7.325,4.408-8.438c3.551-1.112,7.326,0.862,8.438,4.411
	C544.297,336.235,542.32,340.013,538.772,341.126z M554.325,390.744c-3.548,1.113-7.324-0.863-8.438-4.41
	c-1.112-3.548,0.861-7.326,4.41-8.439c3.548-1.111,7.323,0.863,8.438,4.411C559.849,385.854,557.874,389.632,554.325,390.744z
	 M577.198,274.584c-3.548,1.112-7.325-0.862-8.438-4.41c-1.112-3.548,0.859-7.326,4.411-8.438c3.549-1.113,7.323,0.862,8.438,4.41
	C582.721,269.695,580.746,273.472,577.198,274.584z M592.755,324.204c-3.552,1.112-7.327-0.863-8.439-4.41
	c-1.11-3.548,0.862-7.326,4.411-8.438c3.548-1.112,7.326,0.863,8.438,4.411C598.274,319.314,596.302,323.092,592.755,324.204z
	 M608.306,373.823c-3.548,1.112-7.326-0.862-8.438-4.41c-1.109-3.548,0.86-7.326,4.409-8.438c3.55-1.112,7.325,0.862,8.438,4.41
	C613.829,368.933,611.855,372.71,608.306,373.823z M2241.078,665.318c3.55-1.113,7.326,0.857,8.439,4.406
	c1.11,3.551-0.861,7.326-4.408,8.439c-3.551,1.113-7.326-0.863-8.438-4.41C2235.556,670.207,2237.529,666.427,2241.078,665.318z
	 M2225.525,615.699c3.549-1.111,7.324,0.857,8.438,4.41c1.11,3.547-0.861,7.322-4.41,8.438c-3.549,1.113-7.324-0.861-8.438-4.41
	C2220.003,620.587,2221.976,616.808,2225.525,615.699z M2209.97,566.08c3.549-1.113,7.323,0.861,8.438,4.41
	c1.109,3.547-0.862,7.324-4.409,8.438c-3.552,1.111-7.326-0.863-8.438-4.412C2204.447,570.968,2206.423,567.191,2209.97,566.08z
	 M2211.093,736.267c1.108,3.551-0.861,7.324-4.412,8.439c-3.547,1.111-7.324-0.863-8.438-4.41c-1.11-3.547,0.861-7.326,4.408-8.438
	C2206.199,730.746,2209.978,732.718,2211.093,736.267z M2194.417,516.458c3.551-1.111,7.325,0.863,8.438,4.412
	c1.113,3.547-0.861,7.324-4.41,8.438c-3.549,1.111-7.321-0.857-8.438-4.41C2188.894,521.347,2190.867,517.572,2194.417,516.458z
	 M1838.51,137.569c3.549-1.112,7.324,0.862,8.438,4.411c1.111,3.547-0.86,7.326-4.41,8.438c-3.551,1.113-7.326-0.862-8.438-4.41
	C1832.984,142.459,1834.96,138.682,1838.51,137.569z M1822.955,87.95c3.548-1.112,7.324,0.862,8.439,4.41
	c1.113,3.548-0.859,7.325-4.41,8.438c-3.549,1.112-7.326-0.862-8.438-4.41C1817.433,92.84,1819.406,89.063,1822.955,87.95z
	 M1784.527,154.491c3.549-1.113,7.326,0.862,8.438,4.41c1.11,3.548-0.861,7.326-4.41,8.438c-3.549,1.113-7.326-0.862-8.439-4.41
	C1779.009,159.38,1780.98,155.603,1784.527,154.491z M1768.974,104.871c3.549-1.112,7.326,0.863,8.438,4.411
	c1.109,3.548-0.858,7.326-4.409,8.438c-3.55,1.112-7.324-0.863-8.438-4.411C1763.453,109.761,1765.427,105.983,1768.974,104.871z
	 M1753.423,55.252c3.549-1.112,7.323,0.862,8.438,4.41c1.113,3.548-0.857,7.326-4.408,8.438c-3.549,1.112-7.323-0.863-8.438-4.411
	C1747.898,60.142,1749.871,56.365,1753.423,55.252z M1730.552,171.412c3.547-1.113,7.322,0.862,8.438,4.41
	c1.113,3.548-0.858,7.326-4.408,8.438c-3.551,1.112-7.325-0.862-8.438-4.41C1725.025,176.302,1726.999,172.523,1730.552,171.412z
	 M1714.994,121.792c3.552-1.112,7.326,0.863,8.438,4.411c1.111,3.547-0.859,7.325-4.41,8.438c-3.549,1.113-7.326-0.863-8.438-4.411
	C1709.472,126.682,1711.445,122.904,1714.994,121.792z M1699.441,72.173c3.549-1.112,7.324,0.862,8.438,4.41
	c1.113,3.548-0.861,7.326-4.41,8.438s-7.324-0.862-8.438-4.41C1693.919,77.063,1695.892,73.285,1699.441,72.173z M1676.568,188.333
	c3.549-1.112,7.324,0.862,8.438,4.41c1.11,3.548-0.861,7.326-4.41,8.438c-3.549,1.112-7.326-0.862-8.438-4.411
	C1671.048,193.223,1673.019,189.445,1676.568,188.333z M1661.015,138.713c3.547-1.112,7.324,0.862,8.438,4.411
	c1.109,3.548-0.858,7.325-4.409,8.438c-3.55,1.113-7.326-0.862-8.438-4.411C1655.49,143.604,1657.468,139.826,1661.015,138.713z
	 M1645.46,89.094c3.551-1.112,7.325,0.863,8.438,4.41c1.113,3.548-0.859,7.326-4.41,8.438c-3.549,1.113-7.324-0.862-8.438-4.41
	C1639.937,93.984,1641.91,90.206,1645.46,89.094z M1629.906,39.475c3.547-1.112,7.322,0.862,8.438,4.411
	c1.11,3.548-0.861,7.325-4.41,8.438c-3.549,1.112-7.326-0.863-8.438-4.41C1624.385,44.365,1626.357,40.587,1629.906,39.475z
	 M1607.033,155.634c3.549-1.112,7.326,0.862,8.438,4.41c1.111,3.548-0.861,7.326-4.41,8.438s-7.326-0.863-8.438-4.411
	C1601.511,160.524,1603.484,156.747,1607.033,155.634z M1591.48,106.015c3.547-1.113,7.326,0.862,8.438,4.411
	c1.11,3.547-0.861,7.326-4.41,8.438c-3.549,1.113-7.324-0.862-8.438-4.41C1585.958,110.905,1587.933,107.127,1591.48,106.015z
	 M1575.927,56.396c3.551-1.112,7.328,0.862,8.438,4.411c1.111,3.548-0.858,7.325-4.41,8.438c-3.549,1.112-7.326-0.862-8.438-4.41
	C1570.402,61.286,1572.378,57.508,1575.927,56.396z M1537.499,122.937c3.551-1.113,7.325,0.862,8.438,4.41
	c1.113,3.548-0.861,7.326-4.41,8.438c-3.547,1.113-7.324-0.862-8.438-4.41C1531.978,127.826,1533.949,124.048,1537.499,122.937z
	 M1521.945,73.316c3.547-1.112,7.324,0.863,8.438,4.411c1.108,3.548-0.861,7.326-4.41,8.438c-3.549,1.112-7.326-0.862-8.439-4.411
	C1516.425,78.207,1518.396,74.429,1521.945,73.316z M1506.392,23.697c3.549-1.112,7.324,0.862,8.438,4.411
	c1.109,3.548-0.86,7.326-4.411,8.438c-3.55,1.112-7.324-0.862-8.438-4.41C1500.867,28.587,1502.844,24.81,1506.392,23.697z
	 M1467.968,90.238c3.549-1.112,7.324,0.863,8.438,4.411c1.113,3.547-0.858,7.326-4.408,8.438c-3.549,1.113-7.325-0.862-8.438-4.411
	C1462.443,95.127,1464.417,91.35,1467.968,90.238z M1452.41,40.619c3.55-1.112,7.326,0.862,8.439,4.41
	c1.108,3.548-0.863,7.326-4.412,8.438c-3.549,1.113-7.322-0.862-8.438-4.41C1446.888,45.508,1448.863,41.731,1452.41,40.619z
	 M1398.431,57.54c3.549-1.112,7.326,0.862,8.438,4.41c1.109,3.548-0.858,7.326-4.409,8.438c-3.55,1.113-7.324-0.862-8.438-4.41
	C1392.908,62.429,1394.884,58.652,1398.431,57.54z M1344.449,74.461c3.549-1.113,7.324,0.862,8.439,4.41
	c1.108,3.548-0.863,7.326-4.41,8.438c-3.551,1.113-7.328-0.862-8.439-4.41C1338.929,79.351,1340.902,75.573,1344.449,74.461z
	 M1328.896,24.841c3.549-1.112,7.326,0.863,8.438,4.411c1.112,3.547-0.857,7.325-4.408,8.438c-3.549,1.112-7.324-0.863-8.438-4.411
	C1323.374,29.731,1325.347,25.954,1328.896,24.841z M1274.917,41.763c3.549-1.112,7.323,0.862,8.438,4.411
	c1.111,3.547-0.861,7.325-4.41,8.438c-3.549,1.113-7.324-0.862-8.438-4.411C1269.394,46.652,1271.367,42.875,1274.917,41.763z
	 M1220.935,58.684c3.549-1.112,7.326,0.862,8.438,4.41c1.112,3.548-0.859,7.326-4.41,8.438c-3.549,1.112-7.324-0.862-8.438-4.411
	C1215.414,63.573,1217.388,59.796,1220.935,58.684z M1166.955,75.605c3.55-1.113,7.325,0.862,8.438,4.41
	c1.109,3.548-0.862,7.326-4.411,8.438c-3.549,1.112-7.326-0.863-8.438-4.411C1161.433,80.494,1163.406,76.717,1166.955,75.605z
	 M1112.975,92.525c3.548-1.113,7.326,0.862,8.438,4.411c1.112,3.548-0.859,7.326-4.41,8.438c-3.548,1.112-7.323-0.862-8.438-4.41
	C1107.451,97.416,1109.427,93.638,1112.975,92.525z M982.142,242.527c3.549-1.112,7.326,0.863,8.438,4.411
	c1.11,3.548-0.859,7.326-4.41,8.438c-3.549,1.112-7.323-0.863-8.438-4.411C976.618,247.417,978.595,243.64,982.142,242.527z
	 M966.59,192.908c3.549-1.113,7.324,0.862,8.438,4.41c1.112,3.548-0.857,7.326-4.408,8.438c-3.551,1.112-7.325-0.862-8.438-4.41
	C961.064,197.798,963.039,194.02,966.59,192.908z M951.033,143.289c3.548-1.112,7.325,0.863,8.438,4.411
	c1.111,3.548-0.859,7.326-4.41,8.438c-3.549,1.113-7.324-0.862-8.438-4.41C945.512,148.179,947.484,144.401,951.033,143.289z
	 M943.717,309.068c3.549-1.112,7.323,0.862,8.438,4.41c1.112,3.548-0.857,7.326-4.408,8.438c-3.551,1.112-7.324-0.863-8.438-4.411
	C938.193,313.958,940.167,310.18,943.717,309.068z M928.16,259.449c3.548-1.112,7.325,0.862,8.438,4.41
	c1.111,3.548-0.86,7.326-4.41,8.438c-3.548,1.112-7.324-0.862-8.438-4.411C922.638,264.338,924.613,260.561,928.16,259.449z
	 M912.607,209.829c3.55-1.112,7.325,0.862,8.438,4.41c1.109,3.548-0.863,7.326-4.411,8.438c-3.548,1.113-7.326-0.862-8.438-4.41
	C907.085,214.719,909.059,210.941,912.607,209.829z M897.053,160.209c3.548-1.112,7.326,0.863,8.438,4.411
	c1.11,3.548-0.859,7.325-4.411,8.438c-3.549,1.112-7.323-0.863-8.438-4.41C891.531,165.1,893.507,161.322,897.053,160.209z
	 M631.179,257.664c-3.549,1.112-7.326-0.863-8.438-4.41c-1.109-3.548,0.86-7.326,4.408-8.438c3.551-1.113,7.326,0.862,8.438,4.41
	C636.7,252.773,634.728,256.551,631.179,257.664z M646.732,307.283c-3.549,1.112-7.324-0.863-8.438-4.411
	c-1.114-3.548,0.859-7.325,4.408-8.438c3.551-1.112,7.326,0.863,8.438,4.411C652.258,302.393,650.281,306.17,646.732,307.283z
	 M662.286,356.902c-3.548,1.113-7.323-0.862-8.438-4.41c-1.11-3.548,0.862-7.326,4.411-8.438c3.548-1.113,7.326,0.862,8.438,4.41
	C667.81,352.012,665.835,355.79,662.286,356.902z M685.158,240.743c-3.55,1.112-7.325-0.863-8.438-4.411
	c-1.113-3.548,0.86-7.326,4.41-8.438c3.548-1.112,7.323,0.863,8.438,4.411C690.682,235.853,688.707,239.63,685.158,240.743z
	 M700.716,290.362c-3.552,1.112-7.327-0.863-8.438-4.411c-1.107-3.548,0.862-7.325,4.411-8.438c3.548-1.112,7.326,0.862,8.438,4.411
	C706.236,285.472,704.262,289.249,700.716,290.362z M716.267,339.981c-3.548,1.113-7.326-0.862-8.438-4.41
	c-1.109-3.548,0.86-7.326,4.41-8.438c3.549-1.113,7.324,0.862,8.438,4.41C721.79,335.091,719.815,338.869,716.267,339.981z
	 M731.821,389.601c-3.55,1.112-7.325-0.862-8.438-4.411c-1.112-3.548,0.859-7.325,4.41-8.438c3.549-1.112,7.323,0.863,8.438,4.41
	C737.345,384.71,735.369,388.488,731.821,389.601z M739.139,223.821c-3.548,1.112-7.325-0.862-8.438-4.411
	c-1.109-3.548,0.86-7.325,4.411-8.438c3.548-1.112,7.323,0.863,8.438,4.41C744.661,218.931,742.688,222.709,739.139,223.821z
	 M754.693,273.44c-3.548,1.112-7.324-0.862-8.438-4.41c-1.112-3.548,0.86-7.326,4.411-8.438c3.548-1.112,7.323,0.862,8.438,4.411
	C760.218,268.551,758.241,272.328,754.693,273.44z M770.247,323.06c-3.548,1.113-7.323-0.862-8.438-4.411
	c-1.11-3.548,0.862-7.326,4.41-8.438c3.549-1.112,7.326,0.862,8.438,4.41C775.77,318.17,773.798,321.948,770.247,323.06z
	 M785.803,372.68c-3.55,1.111-7.326-0.862-8.438-4.411c-1.109-3.548,0.859-7.326,4.408-8.438c3.551-1.112,7.326,0.862,8.438,4.411
	C791.323,367.79,789.35,371.567,785.803,372.68z M784.682,202.49c-1.11-3.548,0.861-7.325,4.41-8.438
	c3.549-1.112,7.323,0.863,8.438,4.411c1.111,3.548-0.861,7.326-4.41,8.438C789.571,208.013,785.794,206.038,784.682,202.49z
	 M801.355,422.298c-3.548,1.112-7.324-0.862-8.438-4.41c-1.111-3.548,0.861-7.326,4.41-8.438c3.548-1.112,7.326,0.863,8.438,4.41
	C806.881,417.408,804.904,421.186,801.355,422.298z M808.676,256.52c-3.55,1.113-7.326-0.862-8.438-4.41
	c-1.111-3.548,0.86-7.326,4.409-8.438c3.55-1.113,7.326,0.862,8.438,4.411C814.196,251.629,812.222,255.408,808.676,256.52z
	 M824.228,306.139c-3.548,1.112-7.325-0.862-8.438-4.41c-1.11-3.548,0.862-7.325,4.411-8.438c3.548-1.113,7.326,0.862,8.438,4.41
	C829.749,301.249,827.777,305.026,824.228,306.139z M839.781,355.759c-3.548,1.111-7.326-0.863-8.438-4.412
	c-1.112-3.547,0.859-7.325,4.411-8.437c3.549-1.112,7.323,0.862,8.438,4.411C845.304,350.868,843.329,354.646,839.781,355.759z
	 M838.662,185.569c-1.109-3.548,0.859-7.325,4.41-8.438c3.549-1.112,7.323,0.862,8.438,4.411c1.109,3.548-0.862,7.325-4.41,8.438
	C843.553,191.091,839.774,189.117,838.662,185.569z M855.338,405.377c-3.551,1.113-7.326-0.862-8.438-4.411
	c-1.109-3.548,0.862-7.326,4.411-8.438c3.548-1.112,7.325,0.862,8.438,4.412C860.859,400.487,858.885,404.265,855.338,405.377z
	 M854.218,235.188c-1.112-3.548,0.859-7.326,4.411-8.438c3.548-1.113,7.323,0.862,8.438,4.41c1.113,3.548-0.86,7.327-4.408,8.438
	C859.105,240.711,855.327,238.736,854.218,235.188z M870.89,454.998c-3.548,1.113-7.326-0.861-8.438-4.41
	c-1.109-3.549,0.86-7.326,4.411-8.438c3.548-1.113,7.324,0.857,8.438,4.406C876.412,450.107,874.439,453.884,870.89,454.998z
	 M878.207,289.218c-3.548,1.112-7.323-0.862-8.438-4.41c-1.11-3.548,0.862-7.326,4.41-8.438c3.549-1.112,7.326,0.862,8.438,4.41
	C883.731,284.328,881.759,288.105,878.207,289.218z M885.323,334.427c-1.109-3.547,0.86-7.326,4.408-8.438
	c3.551-1.112,7.326,0.863,8.438,4.411c1.109,3.547-0.861,7.325-4.41,8.437C890.216,339.949,886.437,337.974,885.323,334.427z
	 M940.426,487.695c-3.55,1.109-7.326-0.861-8.438-4.41c-1.111-3.547,0.86-7.324,4.409-8.439c3.551-1.107,7.326,0.863,8.438,4.41
	C945.946,482.804,943.973,486.583,940.426,487.695z M931.599,461.099c-24.763-5.264-40.577-29.607-35.312-54.372
	c5.265-24.764,29.607-40.577,54.372-35.316c24.766,5.263,40.574,29.613,35.312,54.375
	C980.707,450.542,956.359,466.363,931.599,461.099z M994.404,470.775c-3.551,1.107-7.326-0.863-8.438-4.41
	c-1.112-3.547,0.859-7.326,4.409-8.439c3.549-1.105,7.324,0.863,8.438,4.412C999.928,465.882,997.952,469.664,994.404,470.775z
	 M1001.723,304.995c-3.548,1.113-7.325-0.862-8.438-4.41c-1.11-3.548,0.86-7.326,4.411-8.438c3.549-1.112,7.324,0.862,8.438,4.41
	C1007.245,300.105,1005.272,303.883,1001.723,304.995z M1000.604,134.806c-1.11-3.548,0.862-7.326,4.41-8.438
	c3.548-1.112,7.326,0.862,8.438,4.41c1.11,3.548-0.859,7.326-4.41,8.438C1005.492,140.329,1001.718,138.354,1000.604,134.806z
	 M1017.277,354.615c-3.55,1.112-7.326-0.863-8.438-4.411c-1.112-3.548,0.859-7.325,4.411-8.438c3.548-1.113,7.323,0.862,8.438,4.41
	C1022.802,349.724,1020.824,353.502,1017.277,354.615z M1016.157,184.425c-1.111-3.548,0.86-7.325,4.409-8.438
	c3.55-1.112,7.326,0.862,8.438,4.41c1.109,3.548-0.862,7.326-4.411,8.438C1021.05,189.948,1017.27,187.973,1016.157,184.425z
	 M1032.83,404.233c-3.548,1.11-7.325-0.863-8.438-4.411c-1.11-3.547,0.862-7.325,4.41-8.438c3.549-1.112,7.323,0.863,8.438,4.411
	C1038.355,399.343,1036.382,403.121,1032.83,404.233z M1031.712,234.044c-1.111-3.547,0.86-7.325,4.41-8.438
	c3.549-1.112,7.325,0.863,8.438,4.411c1.112,3.548-0.86,7.325-4.411,8.438C1036.602,239.566,1032.823,237.592,1031.712,234.044z
	 M1048.386,453.851c-3.549,1.113-7.326-0.859-8.438-4.406c-1.11-3.551,0.859-7.326,4.41-8.439c3.548-1.113,7.324,0.863,8.438,4.41
	C1053.907,448.962,1051.934,452.742,1048.386,453.851z M1055.703,288.074c-3.549,1.113-7.325-0.862-8.438-4.41
	c-1.11-3.548,0.862-7.326,4.41-8.438c3.549-1.112,7.326,0.862,8.438,4.41C1061.226,283.184,1059.253,286.961,1055.703,288.074z
	 M1054.585,117.885c-1.111-3.548,0.86-7.326,4.409-8.438c3.548-1.112,7.325,0.862,8.438,4.41c1.113,3.548-0.862,7.326-4.411,8.438
	C1059.473,123.407,1055.697,121.433,1054.585,117.885z M1071.26,337.694c-3.55,1.111-7.326-0.863-8.438-4.411
	c-1.111-3.548,0.86-7.326,4.409-8.438c3.55-1.112,7.326,0.863,8.438,4.411C1076.78,332.803,1074.806,336.581,1071.26,337.694z
	 M1070.138,167.503c-1.112-3.548,0.862-7.325,4.411-8.438c3.549-1.112,7.326,0.863,8.438,4.41c1.112,3.548-0.861,7.326-4.409,8.438
	C1075.027,173.027,1071.251,171.052,1070.138,167.503z M1086.812,387.312c-3.548,1.112-7.324-0.862-8.438-4.41
	c-1.109-3.548,0.862-7.326,4.411-8.438c3.548-1.112,7.324,0.862,8.438,4.41C1092.335,382.422,1090.359,386.2,1086.812,387.312z
	 M1085.691,217.123c-1.11-3.548,0.862-7.326,4.411-8.438c3.551-1.112,7.325,0.862,8.438,4.411c1.113,3.549-0.859,7.325-4.409,8.438
	C1090.581,222.646,1086.804,220.671,1085.691,217.123z M1102.365,436.931c-3.549,1.113-7.325-0.857-8.438-4.404
	c-1.112-3.552,0.862-7.326,4.411-8.438s7.326,0.863,8.438,4.411C1107.888,432.042,1105.913,435.819,1102.365,436.931z
	 M1101.246,266.743c-1.11-3.548,0.859-7.326,4.41-8.438c3.548-1.112,7.324,0.862,8.438,4.411c1.111,3.548-0.86,7.326-4.41,8.438
	C1106.137,272.266,1102.359,270.291,1101.246,266.743z M1117.922,486.55c-3.552,1.113-7.326-0.857-8.438-4.41
	c-1.111-3.549,0.861-7.322,4.41-8.438c3.548-1.113,7.325,0.854,8.438,4.41C1123.443,481.662,1121.469,485.441,1117.922,486.55z
	 M1125.238,320.772c-3.549,1.112-7.326-0.862-8.438-4.411c-1.112-3.548,0.859-7.325,4.411-8.438
	c3.549-1.113,7.323,0.862,8.438,4.411C1130.762,315.882,1128.786,319.66,1125.238,320.772z M1124.117,150.583
	c-1.109-3.548,0.862-7.325,4.41-8.438c3.549-1.112,7.327,0.863,8.438,4.411c1.109,3.548-0.862,7.325-4.41,8.438
	C1129.01,156.105,1125.231,154.131,1124.117,150.583z M1140.792,370.391c-3.549,1.112-7.324-0.862-8.438-4.41
	c-1.11-3.548,0.862-7.326,4.41-8.438c3.549-1.112,7.327,0.863,8.438,4.41C1146.314,365.501,1144.343,369.279,1140.792,370.391z
	 M1139.675,200.202c-1.112-3.548,0.859-7.326,4.407-8.438c3.552-1.113,7.326,0.862,8.438,4.41c1.112,3.548-0.86,7.326-4.411,8.438
	C1144.562,205.725,1140.784,203.751,1139.675,200.202z M1156.346,420.011c-3.549,1.113-7.326-0.861-8.438-4.41
	c-1.112-3.548,0.86-7.324,4.41-8.438c3.549-1.113,7.324,0.863,8.438,4.41C1161.867,415.121,1159.895,418.898,1156.346,420.011z
	 M1155.227,249.821c-1.11-3.548,0.862-7.325,4.411-8.438c3.549-1.113,7.326,0.862,8.438,4.41c1.11,3.548-0.858,7.326-4.411,8.438
	C1160.115,255.344,1156.341,253.37,1155.227,249.821z M1171.9,469.63c-3.549,1.111-7.324-0.863-8.438-4.41
	c-1.111-3.551,0.859-7.328,4.409-8.438c3.55-1.113,7.324,0.859,8.438,4.41C1177.424,464.744,1175.448,468.517,1171.9,469.63z
	 M1179.22,303.851c-3.549,1.112-7.327-0.862-8.438-4.411c-1.11-3.548,0.86-7.325,4.41-8.438c3.549-1.112,7.324,0.863,8.439,4.411
	C1184.74,298.961,1182.767,302.739,1179.22,303.851z M1178.099,133.662c-1.109-3.548,0.862-7.325,4.411-8.438
	c3.549-1.112,7.326,0.862,8.438,4.411c1.109,3.549-0.863,7.325-4.41,8.438C1182.988,139.184,1179.212,137.21,1178.099,133.662z
	 M1194.771,353.47c-3.549,1.113-7.322-0.862-8.438-4.41c-1.11-3.548,0.861-7.326,4.408-8.438c3.551-1.112,7.326,0.862,8.439,4.411
	C1200.298,348.58,1198.32,352.358,1194.771,353.47z M1193.652,183.281c-1.113-3.548,0.859-7.326,4.408-8.438
	c3.551-1.112,7.326,0.863,8.438,4.41c1.113,3.548-0.856,7.327-4.407,8.438C1198.542,188.804,1194.765,186.829,1193.652,183.281z
	 M1210.326,403.089c-3.549,1.113-7.325-0.863-8.438-4.41c-1.109-3.548,0.863-7.325,4.412-8.438c3.547-1.113,7.326,0.863,8.438,4.41
	C1215.849,398.199,1213.876,401.977,1210.326,403.089z M1209.208,232.9c-1.111-3.548,0.86-7.326,4.409-8.438
	c3.548-1.112,7.326,0.862,8.438,4.41c1.111,3.548-0.863,7.326-4.41,8.438C1214.095,238.423,1210.318,236.448,1209.208,232.9z
	 M1225.884,452.708c-3.551,1.111-7.326-0.861-8.439-4.412c-1.113-3.547,0.859-7.324,4.408-8.438
	c3.551-1.114,7.326,0.855,8.438,4.406C1231.402,447.82,1229.429,451.595,1225.884,452.708z M1233.199,286.93
	c-3.549,1.112-7.326-0.863-8.438-4.411c-1.113-3.548,0.86-7.325,4.41-8.438c3.549-1.112,7.323,0.862,8.438,4.411
	C1238.722,282.04,1236.749,285.817,1233.199,286.93z M1232.08,116.741c-1.11-3.548,0.857-7.326,4.41-8.438
	c3.547-1.112,7.322,0.862,8.438,4.411c1.108,3.548-0.861,7.325-4.41,8.438C1236.97,122.263,1233.191,120.288,1232.08,116.741z
	 M1248.753,336.549c-3.55,1.113-7.324-0.862-8.438-4.41c-1.109-3.548,0.861-7.326,4.41-8.438c3.549-1.112,7.326,0.863,8.438,4.41
	C1254.275,331.659,1252.302,335.437,1248.753,336.549z M1247.635,166.36c-1.113-3.548,0.858-7.326,4.408-8.438
	c3.551-1.112,7.325,0.862,8.438,4.41s-0.861,7.326-4.41,8.438C1252.521,171.883,1248.744,169.908,1247.635,166.36z
	 M1264.308,386.169c-3.549,1.111-7.328-0.863-8.439-4.411c-1.108-3.548,0.863-7.325,4.41-8.438c3.552-1.112,7.326,0.862,8.439,4.411
	C1269.828,381.278,1267.855,385.056,1264.308,386.169z M1263.187,215.979c-1.109-3.548,0.863-7.325,4.41-8.438
	c3.549-1.113,7.326,0.862,8.438,4.41c1.113,3.548-0.856,7.326-4.409,8.438C1268.076,221.502,1264.302,219.527,1263.187,215.979z
	 M1279.859,435.788c-3.549,1.111-7.324-0.862-8.438-4.411c-1.113-3.548,0.858-7.326,4.407-8.438c3.552-1.108,7.326,0.861,8.438,4.41
	C1285.385,430.898,1283.41,434.676,1279.859,435.788z M1287.179,270.009c-3.552,1.112-7.326-0.863-8.438-4.41
	c-1.113-3.548,0.859-7.327,4.41-8.439c3.549-1.112,7.322,0.863,8.438,4.411C1292.701,265.119,1290.728,268.897,1287.179,270.009z
	 M1286.06,99.819c-1.113-3.547,0.861-7.326,4.41-8.438c3.549-1.113,7.326,0.862,8.438,4.41c1.109,3.548-0.858,7.326-4.409,8.438
	C1290.949,105.343,1287.175,103.367,1286.06,99.819z M1302.732,319.628c-3.549,1.113-7.324-0.862-8.438-4.41
	c-1.109-3.548,0.862-7.326,4.41-8.438c3.553-1.112,7.325,0.862,8.438,4.41C1308.256,314.738,1306.281,318.516,1302.732,319.628z
	 M1301.613,149.439c-1.112-3.548,0.859-7.326,4.41-8.438c3.549-1.112,7.324,0.862,8.438,4.41c1.11,3.548-0.861,7.326-4.41,8.438
	C1306.503,154.961,1302.726,152.987,1301.613,149.439z M1318.287,369.248c-3.549,1.111-7.323-0.863-8.438-4.411
	c-1.109-3.548,0.86-7.325,4.41-8.438c3.549-1.112,7.323,0.862,8.438,4.41C1323.81,364.356,1321.835,368.135,1318.287,369.248z
	 M1317.167,199.058c-1.109-3.548,0.862-7.326,4.409-8.438c3.554-1.112,7.326,0.863,8.439,4.411c1.11,3.547-0.863,7.325-4.412,8.438
	C1322.056,204.582,1318.279,202.606,1317.167,199.058z M1333.844,418.866c-3.553,1.111-7.326-0.861-8.439-4.41
	c-1.113-3.548,0.861-7.326,4.41-8.438c3.549-1.11,7.324,0.862,8.439,4.411C1339.363,413.978,1337.39,417.755,1333.844,418.866z
	 M1332.722,248.677c-1.113-3.547,0.858-7.326,4.41-8.438c3.549-1.113,7.323,0.862,8.438,4.41c1.109,3.548-0.86,7.326-4.41,8.438
	C1337.611,254.2,1333.833,252.226,1332.722,248.677z M1349.394,468.488c-3.547,1.107-7.322-0.863-8.438-4.412
	c-1.11-3.547,0.859-7.324,4.408-8.439c3.551-1.107,7.328,0.863,8.439,4.41C1354.919,463.595,1352.943,467.375,1349.394,468.488z
	 M1356.716,302.707c-3.552,1.112-7.326-0.862-8.438-4.41c-1.108-3.548,0.861-7.325,4.41-8.438c3.549-1.112,7.326,0.862,8.438,4.41
	C1362.236,297.817,1360.261,301.595,1356.716,302.707z M1355.595,132.518c-1.113-3.548,0.858-7.326,4.41-8.438
	c3.549-1.113,7.323,0.862,8.438,4.41c1.111,3.548-0.858,7.326-4.41,8.438C1360.484,138.041,1356.705,136.066,1355.595,132.518z
	 M1372.267,352.327c-3.547,1.111-7.324-0.864-8.439-4.411c-1.108-3.547,0.863-7.325,4.41-8.438c3.549-1.112,7.328,0.863,8.439,4.411
	C1377.789,347.436,1375.816,351.214,1372.267,352.327z M1371.146,182.137c-1.109-3.547,0.861-7.325,4.412-8.438
	c3.547-1.112,7.324,0.863,8.438,4.411c1.111,3.548-0.858,7.326-4.409,8.438C1376.037,187.66,1372.261,185.685,1371.146,182.137z
	 M1387.82,401.945c-3.549,1.111-7.326-0.861-8.438-4.41c-1.113-3.548,0.858-7.326,4.409-8.438c3.55-1.112,7.322,0.862,8.438,4.41
	C1393.345,397.057,1391.369,400.834,1387.82,401.945z M1386.701,231.756c-1.11-3.548,0.863-7.326,4.41-8.438
	c3.549-1.113,7.324,0.862,8.439,4.41c1.108,3.548-0.863,7.326-4.412,8.438C1391.593,237.279,1387.814,235.305,1386.701,231.756z
	 M1403.376,451.566c-3.55,1.107-7.322-0.861-8.438-4.41c-1.109-3.549,0.863-7.326,4.41-8.439c3.549-1.113,7.326,0.863,8.438,4.412
	C1408.898,446.675,1406.927,450.453,1403.376,451.566z M1410.693,285.786c-3.549,1.112-7.324-0.862-8.438-4.41
	c-1.114-3.548,0.858-7.326,4.407-8.438c3.552-1.112,7.326,0.863,8.438,4.411C1416.219,280.896,1414.242,284.674,1410.693,285.786z
	 M1409.574,115.597c-1.112-3.548,0.859-7.326,4.41-8.438c3.549-1.112,7.324,0.863,8.438,4.411c1.11,3.548-0.861,7.326-4.41,8.438
	C1414.466,121.12,1410.685,119.145,1409.574,115.597z M1426.249,335.405c-3.55,1.112-7.324-0.862-8.438-4.41
	c-1.113-3.547,0.861-7.325,4.41-8.438c3.549-1.112,7.326,0.863,8.438,4.411C1431.771,330.515,1429.798,334.293,1426.249,335.405z
	 M1425.128,165.216c-1.109-3.548,0.862-7.326,4.409-8.438c3.55-1.112,7.326,0.863,8.439,4.411c1.11,3.548-0.863,7.325-4.412,8.438
	C1430.019,170.738,1426.24,168.764,1425.128,165.216z M1441.802,385.024c-3.547,1.113-7.326-0.861-8.438-4.41
	c-1.113-3.548,0.859-7.326,4.408-8.438c3.551-1.113,7.324,0.862,8.439,4.41C1447.324,380.136,1445.351,383.912,1441.802,385.024z
	 M1440.683,214.835c-1.113-3.548,0.858-7.326,4.41-8.438c3.549-1.112,7.323,0.862,8.438,4.41c1.111,3.548-0.858,7.326-4.41,8.438
	C1445.57,220.358,1441.794,218.384,1440.683,214.835z M1457.355,434.645c-3.549,1.112-7.324-0.858-8.438-4.406
	c-1.109-3.554,0.86-7.325,4.409-8.438c3.552-1.112,7.326,0.863,8.438,4.411C1462.882,429.754,1460.904,433.532,1457.355,434.645z
	 M1456.236,264.455c-1.113-3.548,0.859-7.326,4.408-8.438c3.551-1.112,7.326,0.863,8.438,4.41c1.109,3.548-0.86,7.326-4.411,8.439
	C1461.126,269.978,1457.349,268.002,1456.236,264.455z M1472.908,484.261c-3.547,1.113-7.323-0.857-8.438-4.408
	c-1.111-3.551,0.862-7.324,4.41-8.438c3.549-1.113,7.325,0.861,8.438,4.41C1478.431,479.375,1476.458,483.152,1472.908,484.261z
	 M1480.228,318.484c-3.547,1.112-7.324-0.863-8.438-4.41c-1.107-3.548,0.862-7.326,4.411-8.438c3.552-1.112,7.326,0.863,8.438,4.411
	C1485.751,313.595,1483.775,317.372,1480.228,318.484z M1479.109,148.295c-1.11-3.548,0.859-7.326,4.408-8.438
	c3.551-1.113,7.326,0.862,8.438,4.41c1.109,3.548-0.862,7.326-4.41,8.438C1483.996,153.818,1480.22,151.843,1479.109,148.295z
	 M1495.783,368.104c-3.553,1.113-7.326-0.862-8.438-4.41c-1.113-3.548,0.858-7.326,4.41-8.438c3.549-1.112,7.321,0.862,8.438,4.411
	C1501.304,363.214,1499.33,366.991,1495.783,368.104z M1494.662,197.915c-1.108-3.548,0.859-7.326,4.41-8.438
	c3.549-1.112,7.324,0.862,8.439,4.411c1.11,3.548-0.861,7.326-4.41,8.438C1499.552,203.438,1495.775,201.462,1494.662,197.915z
	 M1511.337,417.723c-3.549,1.112-7.324-0.86-8.438-4.411c-1.108-3.549,0.861-7.323,4.41-8.438c3.549-1.112,7.326,0.862,8.438,4.411
	C1516.859,412.834,1514.886,416.61,1511.337,417.723z M1510.219,247.533c-1.113-3.548,0.858-7.325,4.406-8.438
	c3.553-1.112,7.327,0.862,8.438,4.411c1.111,3.548-0.861,7.325-4.41,8.438C1515.105,253.057,1511.328,251.082,1510.219,247.533z
	 M1526.89,467.339c-3.549,1.113-7.326-0.855-8.439-4.41c-1.108-3.547,0.863-7.32,4.412-8.436c3.549-1.113,7.326,0.855,8.438,4.41
	C1532.412,462.453,1530.439,466.232,1526.89,467.339z M1525.771,297.153c-1.111-3.547,0.863-7.326,4.41-8.438
	c3.547-1.112,7.326,0.862,8.438,4.41c1.109,3.547-0.858,7.326-4.409,8.438C1530.66,302.676,1526.885,300.701,1525.771,297.153z
	 M1542.443,516.96c-3.549,1.113-7.326-0.863-8.438-4.41c-1.113-3.549,0.858-7.326,4.407-8.438c3.549-1.113,7.324,0.855,8.438,4.41
	C1547.969,512.074,1545.992,515.847,1542.443,516.96z M1549.763,351.183c-3.549,1.112-7.326-0.862-8.439-4.411
	c-1.108-3.548,0.861-7.325,4.41-8.438c3.551-1.113,7.324,0.862,8.438,4.41C1555.285,346.293,1553.312,350.07,1549.763,351.183z
	 M1548.644,180.993c-1.113-3.548,0.859-7.326,4.41-8.438c3.549-1.112,7.324,0.863,8.438,4.41c1.109,3.548-0.858,7.326-4.409,8.438
	C1553.531,186.516,1549.757,184.542,1548.644,180.993z M1565.316,400.802c-3.549,1.111-7.324-0.86-8.438-4.411
	c-1.109-3.549,0.86-7.325,4.41-8.438c3.549-1.112,7.325,0.861,8.438,4.411C1570.841,395.912,1568.865,399.689,1565.316,400.802z
	 M1564.197,230.612c-1.112-3.548,0.859-7.325,4.41-8.438c3.547-1.112,7.324,0.863,8.438,4.411c1.113,3.548-0.861,7.325-4.41,8.438
	C1569.087,236.135,1565.31,234.161,1564.197,230.612z M1580.869,450.419c-3.547,1.113-7.321-0.859-8.438-4.41
	c-1.109-3.547,0.863-7.328,4.412-8.436c3.547-1.113,7.323,0.856,8.438,4.411C1586.394,445.533,1584.419,449.308,1580.869,450.419z
	 M1579.751,280.232c-1.109-3.547,0.862-7.326,4.409-8.438c3.55-1.113,7.326,0.863,8.439,4.41c1.113,3.548-0.859,7.326-4.41,8.438
	C1584.64,285.755,1580.863,283.779,1579.751,280.232z M1596.427,500.042c-3.551,1.111-7.326-0.863-8.438-4.41
	c-1.108-3.549,0.861-7.326,4.41-8.438c3.551-1.113,7.324,0.857,8.438,4.404C1601.947,495.152,1599.974,498.927,1596.427,500.042z
	 M1595.306,329.851c-1.113-3.548,0.856-7.325,4.41-8.438c3.547-1.112,7.321,0.862,8.438,4.411c1.109,3.548-0.86,7.325-4.41,8.438
	C1600.193,335.374,1596.417,333.399,1595.306,329.851z M1611.978,549.66c-3.549,1.111-7.322-0.861-8.438-4.41
	c-1.11-3.547,0.857-7.324,4.408-8.439c3.549-1.109,7.326,0.861,8.439,4.408C1617.501,544.769,1615.527,548.546,1611.978,549.66z
	 M1619.3,383.881c-3.552,1.112-7.326-0.863-8.439-4.41c-1.109-3.549,0.861-7.327,4.408-8.439c3.553-1.112,7.326,0.862,8.438,4.411
	C1624.82,378.991,1622.845,382.769,1619.3,383.881z M1618.177,213.692c-1.111-3.548,0.858-7.326,4.41-8.439
	c3.549-1.111,7.325,0.863,8.438,4.411c1.113,3.548-0.858,7.325-4.41,8.438C1623.066,219.214,1619.289,217.239,1618.177,213.692z
	 M1634.851,433.5c-3.549,1.112-7.326-0.861-8.439-4.411c-1.108-3.548,0.863-7.326,4.41-8.438c3.549-1.112,7.324,0.86,8.439,4.408
	C1640.374,428.611,1638.4,432.388,1634.851,433.5z M1633.73,263.311c-1.107-3.547,0.863-7.326,4.412-8.438
	c3.547-1.113,7.324,0.863,8.438,4.41c1.109,3.548-0.86,7.326-4.411,8.438C1638.621,268.834,1634.844,266.858,1633.73,263.311z
	 M1650.404,483.121c-3.551,1.113-7.326-0.861-8.438-4.41c-1.112-3.549,0.86-7.326,4.412-8.438c3.547-1.113,7.321,0.857,8.438,4.406
	C1655.927,478.228,1653.953,482.005,1650.404,483.121z M1649.285,312.93c-1.112-3.549,0.859-7.325,4.41-8.438
	c3.549-1.112,7.322,0.862,8.438,4.41c1.11,3.549-0.861,7.326-4.41,8.438C1654.177,318.453,1650.396,316.479,1649.285,312.93z
	 M1665.958,532.74c-3.548,1.107-7.322-0.861-8.438-4.41c-1.109-3.549,0.863-7.326,4.41-8.439c3.551-1.109,7.326,0.861,8.438,4.41
	C1671.48,527.849,1669.51,531.625,1665.958,532.74z M1664.843,362.549c-1.113-3.548,0.856-7.326,4.408-8.437
	c3.549-1.113,7.325,0.861,8.438,4.411c1.111,3.548-0.859,7.326-4.41,8.437C1669.728,368.072,1665.951,366.098,1664.843,362.549z
	 M1681.513,582.359c-3.549,1.107-7.326-0.861-8.439-4.41c-1.108-3.549,0.859-7.326,4.412-8.439c3.547-1.111,7.322,0.863,8.438,4.412
	C1687.035,577.468,1685.06,581.246,1681.513,582.359z M1688.83,416.579c-3.547,1.113-7.321-0.862-8.438-4.41
	c-1.109-3.548,0.863-7.326,4.41-8.438c3.549-1.112,7.326,0.86,8.438,4.408C1694.355,411.69,1692.382,415.466,1688.83,416.579z
	 M1687.712,246.39c-1.109-3.548,0.862-7.325,4.41-8.438c3.549-1.112,7.325,0.863,8.438,4.41c1.111,3.548-0.859,7.326-4.412,8.438
	C1692.601,251.913,1688.824,249.938,1687.712,246.39z M1704.386,466.199c-3.549,1.109-7.326-0.861-8.439-4.41
	c-1.11-3.549,0.859-7.324,4.41-8.439c3.549-1.107,7.324,0.861,8.439,4.41C1709.908,461.308,1707.935,465.085,1704.386,466.199z
	 M1703.265,296.009c-1.109-3.548,0.863-7.326,4.412-8.438c3.547-1.112,7.321,0.862,8.438,4.411c1.109,3.547-0.862,7.325-4.41,8.438
	C1708.154,301.532,1704.378,299.557,1703.265,296.009z M1719.939,515.818c-3.551,1.109-7.324-0.861-8.438-4.41
	c-1.109-3.549,0.86-7.324,4.409-8.439c3.55-1.107,7.326,0.861,8.439,4.41C1725.466,510.927,1723.486,514.707,1719.939,515.818z
	 M1718.818,345.628c-1.11-3.548,0.861-7.325,4.408-8.438c3.553-1.112,7.326,0.862,8.438,4.411c1.113,3.548-0.858,7.326-4.407,8.437
	C1723.71,351.151,1719.933,349.177,1718.818,345.628z M1735.492,565.435c-3.547,1.113-7.323-0.857-8.438-4.406
	c-1.109-3.551,0.862-7.326,4.412-8.439c3.547-1.113,7.321,0.861,8.438,4.41C1741.015,560.546,1739.042,564.324,1735.492,565.435z
	 M1742.812,399.658c-3.549,1.11-7.324-0.862-8.438-4.411c-1.109-3.548,0.86-7.325,4.409-8.438c3.55-1.112,7.326,0.862,8.439,4.41
	C1748.335,394.769,1746.359,398.545,1742.812,399.658z M1741.691,229.469c-1.108-3.548,0.861-7.325,4.41-8.438
	c3.551-1.112,7.326,0.863,8.438,4.41c1.111,3.547-0.861,7.326-4.41,8.438C1746.58,234.991,1742.804,233.017,1741.691,229.469z
	 M1758.365,449.279c-3.551,1.107-7.326-0.861-8.438-4.41c-1.113-3.549,0.86-7.327,4.41-8.44c3.551-1.107,7.323,0.862,8.438,4.413
	C1763.888,444.386,1761.914,448.166,1758.365,449.279z M1757.246,279.087c-1.11-3.548,0.859-7.325,4.41-8.438
	c3.549-1.112,7.324,0.862,8.439,4.411c1.108,3.548-0.859,7.326-4.41,8.438C1762.136,284.611,1758.357,282.636,1757.246,279.087z
	 M1773.919,498.898c-3.548,1.107-7.322-0.863-8.438-4.41c-1.109-3.553,0.861-7.326,4.41-8.439c3.549-1.111,7.326,0.863,8.438,4.412
	C1779.443,494.005,1777.47,497.785,1773.919,498.898z M1772.802,328.708c-1.113-3.549,0.858-7.326,4.41-8.438
	c3.549-1.113,7.323,0.861,8.438,4.41c1.113,3.549-0.861,7.326-4.41,8.438C1777.689,334.23,1773.912,332.256,1772.802,328.708z
	 M1789.474,548.515c-3.549,1.113-7.326-0.859-8.439-4.406c-1.108-3.553,0.863-7.326,4.412-8.439c3.547-1.111,7.322,0.863,8.438,4.41
	C1794.996,543.626,1793.021,547.404,1789.474,548.515z M1796.792,382.737c-3.548,1.112-7.322-0.863-8.438-4.411
	c-1.109-3.548,0.863-7.326,4.412-8.438c3.547-1.112,7.324,0.862,8.438,4.411C1802.316,377.848,1800.343,381.625,1796.792,382.737z
	 M1795.675,212.548c-1.111-3.548,0.858-7.326,4.407-8.438c3.552-1.112,7.326,0.863,8.439,4.411c1.112,3.548-0.861,7.326-4.41,8.438
	C1800.562,218.07,1796.783,216.095,1795.675,212.548z M1812.347,432.356c-3.549,1.107-7.328-0.862-8.439-4.41
	c-1.108-3.55,0.859-7.326,4.41-8.438c3.549-1.112,7.324,0.861,8.438,4.411C1817.867,427.467,1815.894,431.244,1812.347,432.356z
	 M1811.226,262.167c-1.113-3.549,0.863-7.326,4.41-8.438c3.551-1.112,7.323,0.862,8.438,4.411c1.109,3.548-0.862,7.325-4.41,8.438
	C1816.115,267.69,1812.341,265.715,1811.226,262.167z M1827.9,481.974c-3.551,1.111-7.324-0.857-8.438-4.406
	c-1.115-3.553,0.858-7.326,4.407-8.439c3.552-1.113,7.326,0.861,8.438,4.41C1833.427,477.085,1831.447,480.865,1827.9,481.974z
	 M1826.781,311.786c-1.112-3.548,0.857-7.326,4.406-8.438c3.551-1.113,7.326,0.861,8.438,4.41c1.112,3.549-0.859,7.326-4.408,8.438
	C1831.673,317.309,1827.892,315.335,1826.781,311.786z M1843.453,531.593c-3.547,1.113-7.325-0.857-8.438-4.41
	c-1.109-3.547,0.86-7.322,4.41-8.438c3.549-1.113,7.323,0.861,8.438,4.41C1848.978,526.707,1847.003,530.484,1843.453,531.593z
	 M1850.771,365.816c-3.549,1.112-7.322-0.863-8.438-4.411c-1.11-3.548,0.861-7.325,4.41-8.438c3.549-1.112,7.324,0.863,8.438,4.411
	C1856.3,360.926,1854.32,364.704,1850.771,365.816z M1849.652,195.626c-1.11-3.547,0.859-7.325,4.408-8.438
	c3.551-1.112,7.326,0.863,8.438,4.411c1.111,3.548-0.86,7.326-4.409,8.438C1854.542,201.149,1850.765,199.174,1849.652,195.626z
	 M1866.326,415.436c-3.549,1.111-7.325-0.86-8.438-4.408c-1.113-3.551,0.858-7.326,4.41-8.438c3.549-1.113,7.321,0.861,8.438,4.41
	C1871.849,410.546,1869.874,414.323,1866.326,415.436z M1865.208,245.246c-1.111-3.549,0.86-7.326,4.409-8.438
	c3.548-1.112,7.324,0.861,8.438,4.41c1.113,3.549-0.859,7.326-4.408,8.438C1870.095,250.769,1866.318,248.795,1865.208,245.246z
	 M1881.882,465.052c-3.552,1.113-7.326-0.857-8.438-4.41c-1.108-3.547,0.861-7.32,4.41-8.438c3.549-1.111,7.326,0.861,8.438,4.41
	C1887.403,460.164,1885.429,463.943,1881.882,465.052z M1880.761,294.865c-1.113-3.549,0.86-7.326,4.41-8.438
	c3.549-1.112,7.323,0.863,8.438,4.411c1.111,3.548-0.86,7.326-4.41,8.438C1885.65,300.388,1881.874,298.414,1880.761,294.865z
	 M1897.435,514.673c-3.549,1.113-7.326-0.863-8.438-4.41c-1.109-3.549,0.862-7.322,4.411-8.438c3.548-1.113,7.322,0.863,8.438,4.41
	C1902.958,509.785,1900.982,513.56,1897.435,514.673z M1896.314,344.484c-1.109-3.548,0.863-7.325,4.412-8.438
	c3.547-1.112,7.324,0.862,8.438,4.411c1.109,3.548-0.86,7.325-4.409,8.438C1901.203,350.007,1897.427,348.033,1896.314,344.484z
	 M1912.988,564.292c-3.549,1.111-7.326-0.861-8.438-4.41c-1.112-3.549,0.858-7.326,4.41-8.438c3.549-1.113,7.323,0.855,8.438,4.406
	S1916.535,563.179,1912.988,564.292z M1920.308,398.514c-3.551,1.113-7.328-0.859-8.439-4.41c-1.11-3.548,0.859-7.326,4.41-8.437
	c3.549-1.113,7.324,0.861,8.439,4.41C1925.828,393.625,1923.855,397.402,1920.308,398.514z M1919.187,228.325
	c-1.111-3.549,0.861-7.326,4.41-8.438c3.549-1.113,7.326,0.861,8.438,4.41c1.113,3.548-0.858,7.326-4.409,8.438
	C1924.078,233.847,1920.302,231.873,1919.187,228.325z M1935.859,448.132c-3.549,1.111-7.324-0.857-8.438-4.41
	c-1.115-3.549,0.858-7.323,4.407-8.436c3.552-1.112,7.326,0.863,8.438,4.413C1941.385,443.246,1939.408,447.019,1935.859,448.132z
	 M1934.74,277.944c-1.108-3.548,0.859-7.325,4.41-8.438c3.549-1.112,7.324,0.863,8.438,4.41c1.11,3.549-0.861,7.326-4.41,8.438
	S1935.853,281.493,1934.74,277.944z M1951.414,497.751c-3.549,1.113-7.325-0.861-8.438-4.41s0.86-7.326,4.41-8.438
	c3.549-1.113,7.323,0.855,8.438,4.41C1956.937,492.863,1954.966,496.64,1951.414,497.751z M1950.298,327.563
	c-1.113-3.548,0.858-7.325,4.407-8.438c3.55-1.113,7.326,0.862,8.438,4.411c1.113,3.548-0.859,7.325-4.41,8.438
	C1955.185,333.086,1951.406,331.112,1950.298,327.563z M1966.97,547.373c-3.549,1.113-7.326-0.861-8.439-4.41
	c-1.11-3.549,0.859-7.326,4.41-8.438c3.549-1.111,7.324,0.857,8.439,4.406C1972.49,542.484,1970.517,546.259,1966.97,547.373z
	 M1965.849,377.183c-1.109-3.548,0.86-7.326,4.41-8.438c3.549-1.113,7.323,0.861,8.438,4.409c1.111,3.549-0.858,7.327-4.41,8.438
	C1970.738,382.706,1966.962,380.731,1965.849,377.183z M1982.521,596.992c-3.549,1.109-7.324-0.861-8.438-4.41
	c-1.113-3.549,0.861-7.326,4.41-8.439c3.55-1.111,7.324,0.861,8.438,4.41S1986.07,595.878,1982.521,596.992z M1981.402,426.802
	c-1.113-3.548,0.859-7.325,4.408-8.438c3.551-1.113,7.326,0.86,8.438,4.412c1.111,3.549-0.858,7.321-4.407,8.438
	C1986.292,432.325,1982.517,430.35,1981.402,426.802z M1998.074,646.611c-3.547,1.109-7.323-0.861-8.438-4.41
	c-1.113-3.547,0.86-7.324,4.41-8.439c3.549-1.113,7.323,0.863,8.438,4.41C2003.599,641.718,2001.626,645.5,1998.074,646.611z
	 M2005.396,480.833c-3.549,1.111-7.324-0.863-8.438-4.41c-1.109-3.551,0.862-7.326,4.411-8.438c3.55-1.113,7.324,0.855,8.439,4.404
	C2010.919,475.943,2008.943,479.718,2005.396,480.833z M2020.949,530.453c-3.549,1.111-7.326-0.863-8.438-4.412
	c-1.113-3.547,0.86-7.324,4.41-8.436c3.549-1.113,7.323,0.857,8.438,4.404C2026.472,525.56,2024.499,529.337,2020.949,530.453z
	 M2019.828,360.261c-1.11-3.548,0.863-7.326,4.412-8.438c3.547-1.112,7.322,0.862,8.438,4.41c1.108,3.549-0.861,7.326-4.41,8.438
	C2024.72,365.784,2020.943,363.811,2019.828,360.261z M2036.503,580.072c-3.55,1.107-7.324-0.863-8.438-4.412
	c-1.109-3.547,0.861-7.324,4.41-8.439c3.549-1.107,7.326,0.863,8.438,4.41C2042.025,575.179,2040.052,578.958,2036.503,580.072z
	 M2035.385,409.881c-1.113-3.549,0.858-7.325,4.408-8.438c3.551-1.112,7.325,0.86,8.438,4.411c1.113,3.548-0.859,7.323-4.408,8.438
	C2040.271,415.404,2036.494,413.429,2035.385,409.881z M2052.058,629.691c-3.551,1.109-7.326-0.863-8.438-4.41
	c-1.111-3.549,0.862-7.326,4.409-8.439c3.552-1.111,7.324,0.863,8.438,4.41C2057.581,624.798,2055.605,628.578,2052.058,629.691z
	 M2050.937,459.5c-1.111-3.549,0.863-7.326,4.412-8.438c3.547-1.113,7.324,0.857,8.438,4.408c1.108,3.547-0.863,7.326-4.412,8.439
	C2055.826,465.023,2052.052,463.048,2050.937,459.5z M2067.609,679.308c-3.549,1.111-7.324-0.859-8.438-4.408
	c-1.113-3.551,0.859-7.324,4.408-8.439c3.549-1.113,7.326,0.861,8.439,4.408C2073.135,674.417,2071.16,678.199,2067.609,679.308z
	 M2066.49,509.121c-1.11-3.549,0.863-7.326,4.412-8.439c3.55-1.105,7.322,0.863,8.438,4.412c1.113,3.549-0.861,7.324-4.41,8.439
	C2071.384,514.644,2067.603,512.667,2066.49,509.121z M2083.165,728.927c-3.55,1.111-7.324-0.859-8.438-4.41
	c-1.111-3.547,0.863-7.322,4.41-8.438c3.549-1.113,7.325,0.861,8.438,4.41C2088.687,724.039,2086.714,727.816,2083.165,728.927z
	 M2090.482,563.15c-3.549,1.109-7.322-0.861-8.438-4.41c-1.109-3.549,0.862-7.326,4.409-8.439c3.552-1.109,7.326,0.861,8.439,4.41
	C2096.005,558.259,2094.031,562.037,2090.482,563.15z M2106.038,612.769c-3.55,1.109-7.324-0.861-8.438-4.408
	c-1.113-3.551,0.861-7.326,4.41-8.439c3.547-1.113,7.323,0.863,8.438,4.41C2111.56,607.876,2109.585,611.658,2106.038,612.769z
	 M2104.917,442.58c-1.109-3.547,0.862-7.327,4.409-8.439c3.552-1.108,7.324,0.861,8.438,4.41c1.111,3.548-0.863,7.328-4.41,8.441
	C2109.808,448.101,2106.029,446.126,2104.917,442.58z M2121.594,662.386c-3.551,1.113-7.326-0.857-8.439-4.41
	c-1.111-3.547,0.861-7.322,4.408-8.438c3.551-1.111,7.326,0.863,8.438,4.41C2127.113,657.496,2125.14,661.275,2121.594,662.386z
	 M2120.472,492.199c-1.113-3.547,0.858-7.324,4.409-8.439c3.55-1.107,7.324,0.863,8.438,4.41c1.111,3.549-0.858,7.326-4.408,8.439
	C2125.361,497.72,2121.583,495.748,2120.472,492.199z M2137.144,712.005c-3.547,1.113-7.324-0.863-8.438-4.41
	c-1.11-3.547,0.859-7.32,4.408-8.438c3.551-1.115,7.326,0.857,8.439,4.41C2142.669,707.119,2140.693,710.894,2137.144,712.005z
	 M2136.025,541.818c-1.111-3.553,0.861-7.324,4.41-8.439c3.549-1.111,7.323,0.861,8.438,4.41s-0.862,7.326-4.409,8.438
	C2140.915,547.339,2137.138,545.367,2136.025,541.818z M2152.699,761.626c-3.549,1.111-7.325-0.863-8.438-4.412
	c-1.109-3.547,0.86-7.326,4.407-8.438c3.552-1.113,7.326,0.857,8.439,4.404C2158.222,756.736,2156.247,760.513,2152.699,761.626z
	 M2160.017,595.847c-3.547,1.111-7.324-0.859-8.438-4.406c-1.109-3.553,0.862-7.328,4.409-8.439c3.55-1.111,7.326,0.863,8.438,4.412
	C2165.54,590.958,2163.566,594.736,2160.017,595.847z M2175.57,645.466c-3.549,1.111-7.325-0.863-8.438-4.41
	c-1.113-3.549,0.858-7.322,4.409-8.438c3.55-1.111,7.322,0.863,8.438,4.41C2181.095,640.58,2179.119,644.353,2175.57,645.466z
	 M2174.451,475.279c-1.112-3.553,0.863-7.326,4.41-8.439c3.549-1.113,7.324,0.861,8.438,4.41c1.108,3.549-0.861,7.324-4.41,8.439
	C2179.344,480.798,2175.564,478.828,2174.451,475.279z M2182.687,690.675c-1.111-3.549,0.863-7.326,4.41-8.438
	c3.549-1.113,7.325,0.855,8.438,4.406c1.113,3.551-0.856,7.322-4.407,8.438C2187.576,696.199,2183.802,694.222,2182.687,690.675z
	 M2264.038,808.578c-4.498,21.203-25.363,34.738-46.552,30.24c-21.219-4.514-34.768-25.361-30.268-46.566
	c4.532-21.193,25.364-34.74,46.586-30.232C2254.99,766.517,2268.538,787.371,2264.038,808.578z M2260.658,727.785
	c-3.547,1.109-7.323-0.861-8.438-4.41c-1.111-3.547,0.862-7.326,4.409-8.439c3.55-1.111,7.324,0.861,8.438,4.408
	C2266.181,722.894,2264.208,726.671,2260.658,727.785z M2267.978,562.003c-3.547,1.113-7.326-0.861-8.438-4.41
	c-1.109-3.547,0.862-7.326,4.409-8.438c3.55-1.111,7.324,0.857,8.438,4.412C2273.501,557.117,2271.527,560.892,2267.978,562.003z
	 M2283.533,611.625c-3.551,1.111-7.327-0.865-8.438-4.41c-1.113-3.549,0.86-7.326,4.407-8.438c3.552-1.111,7.326,0.859,8.438,4.408
	C2289.054,606.736,2287.081,610.511,2283.533,611.625z M2299.087,661.246c-3.55,1.111-7.324-0.863-8.438-4.412
	c-1.111-3.547,0.856-7.324,4.408-8.439c3.551-1.109,7.323,0.861,8.438,4.408C2304.609,656.351,2302.636,660.13,2299.087,661.246z"/>
</svg>
