<?xml version="1.0" encoding="utf-8"?>
<!-- Generator: Adobe Illustrator 16.0.0, SVG Export Plug-In . SVG Version: 6.00 Build 0)  -->
<!DOCTYPE svg PUBLIC "-//W3C//DTD SVG 1.1//EN" "http://www.w3.org/Graphics/SVG/1.1/DTD/svg11.dtd">
<svg version="1.1" id="Layer_1" xmlns="http://www.w3.org/2000/svg" xmlns:xlink="http://www.w3.org/1999/xlink" x="0px" y="0px"
	 width="531.459px" height="749.344px" viewBox="0 0 531.459 749.344" enable-background="new 0 0 531.459 749.344"
	 xml:space="preserve">
<path fill="none" stroke="#000000" stroke-linejoin="round" stroke-miterlimit="10" d="M531.049,289.109l-4.023-16.061l-9.955-13.9
	l-36.375-51.693c-11.639-16.538-25.605-31.246-38.201-47.037c-35.75-44.823-85.33-74.788-134.438-103.201
	c-9.928-5.745-26.074-11.178-48.307-16.395c-59.24-13.901-121.576-19.204-180.174-0.354c-6.715,2.16-17.395,5.595-15.1,13.494
	l15.19,52.288L215.79,734.829c1.862,8.602,9.283,15.754,18.403,14.336c13.168-2.045,26.34-4.139,39.332-7.129l16.531-3.81
	c25.148-5.791,62.265-14.338,74.646-20.412c8.467-4.151,16.223-9.651,22.721-16.5c5.596-5.896,10.422-17.469,14.336-26.854
	l5.945-14.258c15.233-36.539,30.268-84.705,32.312-103.896c0.252-2.373,8.812-30.518,13.221-45.77
	c10.094-34.939,16.107-54.818,18.066-59.566l11.473-29.834c2.438-9.635,9.219-28.829,20.316-57.732l18.914-41.482
	C526.745,311.531,533.149,297.486,531.049,289.109z"/>
</svg>
