<?xml version="1.0" encoding="utf-8"?>
<!-- Generator: Adobe Illustrator 16.0.0, SVG Export Plug-In . SVG Version: 6.00 Build 0)  -->
<!DOCTYPE svg PUBLIC "-//W3C//DTD SVG 1.1//EN" "http://www.w3.org/Graphics/SVG/1.1/DTD/svg11.dtd">
<svg version="1.1" id="Layer_1" xmlns="http://www.w3.org/2000/svg" xmlns:xlink="http://www.w3.org/1999/xlink" x="0px" y="0px"
	 width="531.459px" height="749.344px" viewBox="0 0 531.459 749.344" enable-background="new 0 0 531.459 749.344"
	 xml:space="preserve">
<path fill="none" stroke="#000000" stroke-linejoin="round" stroke-miterlimit="10" d="M67.058,62.737
	c-0.047-0.205-0.093-0.411-0.145-0.617c-0.069-0.274-0.154-0.544-0.242-0.812c-0.127-0.387-0.235-0.837-0.44-1.192
	c-0.493-0.85-1.201-1.563-2.012-2.112c-0.887-0.601-1.898-1.007-2.945-1.225c-0.469-0.097-0.965-0.253-1.448-0.183
	c-0.616,0.09-0.849,0.538-1.244,0.951c-0.366,0.382-0.742,0.756-1.125,1.121c-0.769,0.73-1.569,1.425-2.402,2.081
	c-1.65,1.3-3.421,2.448-5.282,3.423c-4.847,2.538-10.286,3.861-15.755,3.861C15.229,68.032,0,52.803,0,34.016
	C0,15.229,15.229,0,34.016,0s34.017,15.229,34.017,34.016c0,0.535-0.014,1.067-0.037,1.596l0.037,0.004
	c0,3.412,3.378,6.172,7.558,6.186c1.392-0.5,2.755-0.939,3.985-1.334c58.598-18.85,120.934-13.547,180.174,0.354
	c22.231,5.217,38.379,10.65,48.307,16.395c49.107,28.413,98.688,58.378,134.438,103.201c12.597,15.791,26.562,30.499,38.201,47.037
	l36.375,51.693l9.955,13.9l4.023,16.061c2.101,8.377-4.305,22.422-9.043,32.813l-18.914,41.482
	c-11.099,28.901-17.879,48.097-20.316,57.731l-11.473,29.834c-1.959,4.748-7.974,24.627-18.066,59.566
	c-4.408,15.252-12.969,43.396-13.221,45.77c-2.044,19.191-17.077,67.357-32.312,103.896l-5.944,14.258
	c-3.914,9.386-8.74,20.959-14.336,26.854c-6.498,6.85-14.254,12.35-22.722,16.5c-12.383,6.074-49.498,14.621-74.646,20.412
	l-16.531,3.811c-12.991,2.99-26.164,5.084-39.332,7.129c-9.12,1.418-16.541-5.734-18.402-14.336
	c0,0-136.118-628.544-136.125-628.579c-0.005-0.024-0.015-0.047-0.021-0.071c-0.075-0.259-0.149-0.518-0.226-0.777
	c-0.149-0.516-0.299-1.031-0.449-1.547c-0.214-0.736-0.427-1.471-0.641-2.207c-0.268-0.919-0.534-1.838-0.802-2.757
	c-0.31-1.066-0.62-2.132-0.929-3.198c-0.342-1.176-0.683-2.352-1.025-3.528c-0.362-1.25-0.727-2.5-1.089-3.75
	c-0.374-1.287-0.748-2.574-1.122-3.861c-0.374-1.288-0.749-2.575-1.123-3.863c-0.362-1.252-0.727-2.503-1.091-3.755
	c-0.342-1.179-0.685-2.358-1.026-3.537c-0.312-1.07-0.622-2.14-0.934-3.21c-0.269-0.924-0.537-1.848-0.805-2.772
	c-0.216-0.742-0.431-1.484-0.647-2.226c-0.151-0.523-0.304-1.046-0.456-1.569C67.193,63.327,67.125,63.032,67.058,62.737z"/>
</svg>
