<?xml version="1.0" encoding="utf-8"?>
<!-- Generator: Adobe Illustrator 16.0.0, SVG Export Plug-In . SVG Version: 6.00 Build 0)  -->
<!DOCTYPE svg PUBLIC "-//W3C//DTD SVG 1.1//EN" "http://www.w3.org/Graphics/SVG/1.1/DTD/svg11.dtd">
<svg version="1.1" id="Layer_1" xmlns="http://www.w3.org/2000/svg" xmlns:xlink="http://www.w3.org/1999/xlink" x="0px" y="0px"
	 width="2015.439px" height="1307.643px" viewBox="0 0 2015.439 1307.643" enable-background="new 0 0 2015.439 1307.643"
	 xml:space="preserve">
<path fill="none" stroke="#000000" stroke-linejoin="round" stroke-miterlimit="10" d="M2005.08,264.624
	c7.734-14.149,23.332-30.784-10.73-40.359c-34.062-9.575-326.355-76.354-356.625-83.568c-30.264-7.216-47.683-31.722-60.646-56.622
	c-12.965-24.898-25.537-45.342-31.433-51.109c-5.896-5.767-10.084-12.58-18.737,11.526c-8.656,24.104-75.662,201.492-79.334,210.793
	c-3.671,9.302-15.332,9.43-6.679-14.677c8.652-24.105,74.095-219.312,77.767-228.613c3.672-9.302,1.185-17.165-14.148-7.736
	c-15.332,9.43-509.258,324.919-599.55,380.448c-90.292,55.527-416.341,258.387-470.594,284.706
	c-54.251,26.32-245.432,78.146-296.923,74.596c-51.491-3.553-123.153-32.268-123.153-32.268L0,753.403
	c0,0,146.831,158.584,171.192,190.561c24.36,31.98,99.23,291.166,103.42,297.982c4.19,6.812,8.254,1.967,21.227-3.664
	c12.973-5.629,66.961-24.744,89.627-22.246c22.667,2.496,46.38,6.695,58.57-7.846c12.188-14.539,75.242-114.361,190.961-197.269
	c115.719-82.904,163.949-126.649,323.161-184.646c159.213-57.996,418.271-144.525,437.797-147.146
	c19.523-2.61,456.444,146.621,467.45,149.246c11.006,2.623,22.932-4.711,33.553-37.067c10.623-32.359,36.324-97.476,34.236-131.406
	c-2.085-33.938-35.21-114.526-34.418-136.146C1897.57,502.139,1997.346,278.772,2005.08,264.624z"/>
</svg>
