<?xml version="1.0" encoding="utf-8"?>
<!-- Generator: Adobe Illustrator 16.0.0, SVG Export Plug-In . SVG Version: 6.00 Build 0)  -->
<!DOCTYPE svg PUBLIC "-//W3C//DTD SVG 1.1//EN" "http://www.w3.org/Graphics/SVG/1.1/DTD/svg11.dtd">
<svg version="1.1" id="Layer_1" xmlns="http://www.w3.org/2000/svg" xmlns:xlink="http://www.w3.org/1999/xlink" x="0px" y="0px"
	 width="1083.508px" height="715.589px" viewBox="0 0 1083.508 715.589" enable-background="new 0 0 1083.508 715.589"
	 xml:space="preserve">
<path fill="none" stroke="#020203" stroke-linejoin="round" stroke-miterlimit="10" d="M1068.141,179.013
	c-17.859,2.985-54.476,2.994-71.317-22.119c-16.849-25.114-4.171-75.885,3.379-84.312c7.549-8.428,9.104-16.525,0.567-26.071
	c-8.535-9.546-28.048-36.516-32.367-42.288c-4.323-5.771-11.873,2.656-17.205,14.967s-33.992,73.977-124.205,108.98
	c-90.216,35.004-263.173,37.483-285.143,38.691c-21.953-1.425-194.892-3.307-284.755-39.199
	C167.229,91.769,139.18,29.825,133.971,17.459C128.76,5.098,121.293-3.403,116.915,2.325c-4.38,5.728-24.157,32.506-32.787,41.965
	c-8.631,9.462-7.152,17.575,0.312,26.075c7.466,8.501,19.638,59.396,2.547,84.342c-17.091,24.946-53.704,24.576-71.537,21.415
	S0.704,187.189,0.704,187.189s168.217,403.737,222.599,461.377c54.384,57.641,253.821,43.96,315.951,43.979
	c62.126,0.592,261.431,13.938,316.381-43.165c54.95-57.101,227.146-459.157,227.146-459.157S1086.005,176.027,1068.141,179.013z"/>
</svg>
