<?xml version="1.0" encoding="utf-8"?>
<!-- Generator: Adobe Illustrator 16.0.0, SVG Export Plug-In . SVG Version: 6.00 Build 0)  -->
<!DOCTYPE svg PUBLIC "-//W3C//DTD SVG 1.1//EN" "http://www.w3.org/Graphics/SVG/1.1/DTD/svg11.dtd">
<svg version="1.1" id="Layer_1" xmlns="http://www.w3.org/2000/svg" xmlns:xlink="http://www.w3.org/1999/xlink" x="0px" y="0px"
	 width="1181.031px" height="1856.926px" viewBox="0 0 1181.031 1856.926" enable-background="new 0 0 1181.031 1856.926"
	 xml:space="preserve">
<path d="M134.207,1179.433L381.017,1353.3c0,0,54.313-519.771,48.943-745.132c-5.371-225.358-29.546-486.937-29.546-486.937
	s-87.477-43.571-191.581-77.52C104.727,9.765,0-0.001,0-0.001s81.75,121.599,106.033,161.683
	c24.28,40.084,93.438,144.608,101.37,212.564c7.933,67.956-10.5,350.403-24.231,421.153
	C169.439,866.149,134.207,1179.433,134.207,1179.433z M474.682,666.75c4.617-17.4,20.832-31.722,46.754-12.429
	s57.822,27.757,76.17,17.104c18.348-10.649,53.502-26.158,53.502-26.158s53.147-1.42,69.188-3.373
	c16.038-1.95,12.188,12.55,16.272,32.257c4.083,19.709,12.312,105.699,37.699,162.104
	c25.389,56.401,291.831,456.125,326.867,499.567c35.036,43.438,79.896,61.549,79.896,61.549l-52.852,386.407
	c0,0-30.953-23.731-47.169-9.411c-16.219,14.321-28.111,82.562-28.111,82.562s-122.923-156.775-172.046-182.227
	c-49.122-25.449-142.69-47.17-171.69-54.863c-28.999-7.691-65.337-11.127-71.729-22.135
	c-6.393-11.009-183.823-172.937-189.444-186.843c-5.623-13.905-20.715-27.227-17.104-75.934
	C434.495,1286.22,474.682,666.75,474.682,666.75z"/>
</svg>
