<?xml version="1.0" encoding="utf-8"?>
<!-- Generator: Adobe Illustrator 16.0.0, SVG Export Plug-In . SVG Version: 6.00 Build 0)  -->
<!DOCTYPE svg PUBLIC "-//W3C//DTD SVG 1.1//EN" "http://www.w3.org/Graphics/SVG/1.1/DTD/svg11.dtd">
<svg version="1.1" id="Layer_1" xmlns="http://www.w3.org/2000/svg" xmlns:xlink="http://www.w3.org/1999/xlink" x="0px" y="0px"
	 width="2393.498px" height="1121.436px" viewBox="0 0 2393.498 1121.436" enable-background="new 0 0 2393.498 1121.436"
	 xml:space="preserve">
<path fill="none" stroke="#000001" stroke-linejoin="round" stroke-miterlimit="10" d="M1990.425,646.875
	c26.47-1.518,49.156,18.709,50.672,45.178c1.521,26.475-18.712,49.156-45.178,50.674c-26.471,1.521-49.158-18.711-50.674-45.18
	S1963.958,648.391,1990.425,646.875z"/>
<path fill="none" stroke="#000001" stroke-linejoin="round" stroke-miterlimit="10" d="M136.859,476.412
	c2.557,5.585,5.114,11.171,7.671,16.757c6.85,14.963,13.7,29.927,20.55,44.89c9.911,21.652,19.823,43.304,29.734,64.955
	c11.742,25.649,23.484,51.3,35.226,76.949c12.341,26.959,24.682,53.917,37.022,80.875c11.708,25.577,23.417,51.154,35.125,76.731
	c9.845,21.506,19.69,43.012,29.535,64.518c13.131,28.684,29.731,56.631,10.523,87.127c-28.806,26.165-52.896,52.088-67.065,67.908
	c-9.719,5.585-18.202,11.903-29.798,6.495c-4.726-2.884-10.278-4.545-16.219-4.545c-17.222,0-31.182,13.961-31.182,31.182
	c0,17.222,13.96,31.182,31.182,31.182c6.402,0,12.684-1.995,17.927-5.664c4.655-3.258,7.335-8.302,10.631-12.723
	c2.223-2.981,4.726-5.68,8.303-7.354c8.193-3.835,17.516-3.827,26.225-5.645c39.787-0.354,164.724-2.278,222.506-12.621
	c24.223-4.334,25.175-6.009,86.784-22.029c61.61-16.02,144.211-24.238,267.205-35.119c147.281-13.029,476.382,3.27,601.324,7.68
	c124.938,4.412,591.59,30.402,602.361,31.209c10.77,0.809,15.408,0.135,14.064-9.139c-1.339-9.28-37.805-105.814-47.938-118.551
	c-15.036-28.854,1.199-56.54,16.756-81.013c17.569-27.641,34.709-55.557,51.99-83.379c4.025-6.481,8.11-12.925,12.115-19.418
	c0,0,107.037-177.432,152.887-321.303c45.854-143.874,113.854-373.162,118.47-397.469s7.271-30.469-25.684-28.58
	c-32.946,1.888-550.462,43.565-765.614,64.911c-215.151,21.346-610.371,47-853.686,48.922
	C502.472,116.073,33.555,61.805,33.555,61.805C15.411,59.839-11.718,58.388,5.488,96.47
	c17.209,38.083,105.921,327.508,119.446,353.782c4.747,9.22,7.998,18.156,11.922,26.164L136.859,476.412z"/>
</svg>
