<?xml version="1.0" encoding="utf-8"?>
<!-- Generator: Adobe Illustrator 16.0.0, SVG Export Plug-In . SVG Version: 6.00 Build 0)  -->
<!DOCTYPE svg PUBLIC "-//W3C//DTD SVG 1.1//EN" "http://www.w3.org/Graphics/SVG/1.1/DTD/svg11.dtd">
<svg version="1.1" id="Layer_1" xmlns="http://www.w3.org/2000/svg" xmlns:xlink="http://www.w3.org/1999/xlink" x="0px" y="0px"
	 width="1940.312px" height="1199.381px" viewBox="0 0 1940.312 1199.381" enable-background="new 0 0 1940.312 1199.381"
	 xml:space="preserve">
<path fill="none" stroke="#000000" stroke-linejoin="round" stroke-miterlimit="10" d="M1080.801,732.781
	c-152.297-27.058-251.355,17.121-301.396,36.931c-50.043,19.812-200.654,89.87-305.146,216.503
	c-104.484,126.631-146.832,210.666-181.226,210.727c-18.589,0.029-62.576,1.285-101.804,2.44
	c-19.41-13.136-40.52-27.588-55.896-35.758c-14.193-7.54-31.674-15.397-46.651-21.778c-11.31-52.014-35.202-149.432-43.386-176.144
	c-5.16-16.859-20.271-48.229-34.508-76.15C6.229,865.164,2.398,844.615,0,831.639c29.605-3.378,90.201-10.124,150.53-15.854
	c102.466,23.596,226.88,53.808,237.252,57.688c17.039,6.385,20.702-8.984-7.84-15.789c-20.877-4.976-124.604-32.185-178.792-46.436
	c4.675-0.388,9.294-0.765,13.834-1.121c98.619-7.754,197.167-58.503,246.188-82.864c5.312-2.642,10.442-5.982,15.371-9.84
	c33.137-15.971,68.521-34.91,105.958-57.382c290.062-174.127,297.924-286.272,297.924-286.272s2.617-10.978,61.062-22.565
	c58.44-11.589,169.794-40.729,352.425-8.794c182.632,31.934,336.508,87.175,401.847,105.066
	c65.335,17.895,235.523,63.104,235.523,63.104c8.777,2.093,13.272,12.444,3.549,24.047
	c-9.729,11.601-258.435,393.126-263.248,403.581c-4.812,10.453-14.012,19.857-21.748,13.375
	c-2.219-1.858-14.271-5.679-31.101-10.367c10.773-7.004,18.991-17.982,22.209-31.472c6.646-27.886-10.571-55.88-38.456-62.527
	c-27.889-6.646-55.882,10.569-62.527,38.456c-3.054,12.812-193.272-75.953-199.334-77.396
	C1336.266,807.238,1211.357,755.972,1080.801,732.781z M905.597,304.467c0,0,17.822-63.72,15.906-104.153
	c-1.914-40.43-18.286-80.817-20.591-90.23c-2.301-9.411-6.094-26.938,13.211-33.658c19.304-6.72,155.206-66.918,174.509-73.64
	c19.304-6.721,28.906-0.095,37.214,7.351c8.31,7.443,226.507-14.043,256.567-9.428c30.062,4.612,39.324,7.832,21.509,22.667
	c-17.816,14.833-44.271,18.818-59.497,32.021c-15.227,13.204-96.723,73.553-102.146,102.316
	c-5.433,28.762-7.841,88.212-4.237,96.805c3.601,8.597-4.322,19.016-14.073,17.911c-9.748-1.106-127.636,4.305-160.913,8.96
	C1029.774,286.042,905.597,304.467,905.597,304.467z"/>
</svg>
