<?xml version="1.0" encoding="utf-8"?>
<!-- Generator: Adobe Illustrator 16.0.0, SVG Export Plug-In . SVG Version: 6.00 Build 0)  -->
<!DOCTYPE svg PUBLIC "-//W3C//DTD SVG 1.1//EN" "http://www.w3.org/Graphics/SVG/1.1/DTD/svg11.dtd">
<svg version="1.1" id="Layer_1" xmlns="http://www.w3.org/2000/svg" xmlns:xlink="http://www.w3.org/1999/xlink" x="0px" y="0px"
	 width="2121.932px" height="1266.512px" viewBox="0 0 2121.932 1266.512" enable-background="new 0 0 2121.932 1266.512"
	 xml:space="preserve">
<path fill="none" stroke="#000001" stroke-linejoin="round" stroke-miterlimit="10" d="M1233.736,311.454l12,73.312
	c0,0,5.291,112.296,291.285,293.022c250.938,158.57,411.082,151.951,411.082,151.951s-184.417,44.134-213.104,50.281
	c-28.687,6.146-25.377,21.593-8.195,15.604c17.181-5.99,343.776-75.975,373.408-77.708c29.633-1.733,21.438,13.871,18.129,30.74
	c-3.313,16.862-65.257,309.416-65.257,309.416s-48.487,17.312-80.546,33.416c-32.063,16.102-89.061,58.318-104.504,61.631
	c-15.448,3.31-202.548,13.396-202.548,13.396s-379.084-401.152-534.188-446.391c-4.122-1.202-9.287-2.173-15.313-2.944l2.637-27.389
	c0.598-6.203-3.947-11.713-10.15-12.312c-6.204-0.598-11.715,3.947-12.312,10.151l-2.671,27.739
	c-79.593-3.632-231.95,11.783-270.497,20.044c-7.807,1.669-17.455,4.525-28.262,8.146l-5.63-26.271
	c-1.304-6.096-7.303-9.979-13.396-8.671c-6.096,1.303-9.978,7.302-8.669,13.396l6.242,29.142
	c-51.691,19.071-116.972,47.673-141.014,52.821c-11.993,2.57-36.445,7.81-63.128,13.747c5.988-10.643,8.275-23.421,5.515-36.299
	c-6.008-28.031-33.601-45.886-61.632-39.879c-28.027,6.006-45.885,33.599-39.878,61.631c2.905,13.558,10.868,24.724,21.48,31.971
	c-16.934,4.301-29.07,7.845-31.329,9.653c-7.88,6.305-16.866-3.309-21.438-13.871c-4.571-10.562-244.473-397.686-253.931-409.508
	c-4.454-5.567-5.762-10.785-4.976-14.946h0.001c4.808-17.447,30.549-60.001,0.793-69.136h0.001
	c-2.355-0.351-4.621-0.833-6.779-1.412l0.001-0.003c-7.073,0-12.796,4.549-12.796,10.171c0,17.222-13.96,31.182-31.181,31.182
	s-31.182-13.96-31.182-31.182c0-15.552,11.387-28.445,26.278-30.797v0.002c5.93,0,10.729-6.808,10.729-15.22
	C101.845,346.283,10.177,214.992,3.519,208.783c-8.252-7.697-0.556-15.948,8.331-17.535c0,0,63.873-27.455,341.659-102.285
	c277.788-74.83,413.233-73.801,425.135-71.342c11.901,2.46,4.049,61.177,11.507,64.429c7.459,3.254,23.403-61.493,33.086-58.637
	c9.681,2.856,29.438,10.791,123.463,23.801c94.024,13.01,106.244-21.267,115.765-32.138C1071.985,4.205,1082.697,0,1082.697,0
	s161.074,67.52,174.165,76.64c13.091,9.125,12.058,16.187,6.188,21.82c-5.873,5.634-29.275,67.128-36.021,93.55
	c-6.742,26.423-2.933,99.103,3.892,111.639c1.567,2.88,2.486,5.513,2.822,7.804L1233.736,311.454z"/>
</svg>
