<?xml version="1.0" encoding="utf-8"?>
<!-- Generator: Adobe Illustrator 16.0.0, SVG Export Plug-In . SVG Version: 6.00 Build 0)  -->
<!DOCTYPE svg PUBLIC "-//W3C//DTD SVG 1.1//EN" "http://www.w3.org/Graphics/SVG/1.1/DTD/svg11.dtd">
<svg version="1.1" id="Layer_1" xmlns="http://www.w3.org/2000/svg" xmlns:xlink="http://www.w3.org/1999/xlink" x="0px" y="0px"
	 width="2121.932px" height="1266.512px" viewBox="0 0 2121.932 1266.512" enable-background="new 0 0 2121.932 1266.512"
	 xml:space="preserve">
<path fill="none" stroke="#000000" stroke-miterlimit="10" d="M1245.736,384.767c0,0-2.364-11.034-60.526-23.959
	c-58.164-12.926-168.816-44.607-352.132-16.866c-183.316,27.74-338.418,79.44-404.147,95.834
	c-65.729,16.393-236.909,57.688-236.909,57.688c-4.67,1.001-8.193,4.34-9.075,9.013"/>
<path fill="none" stroke="#000000" stroke-miterlimit="10" d="M138.813,400.08c8.854,12.885,14.57,21.325,15.229,22.536
	c1.995,3.665,10.746,10.043,22.921,13.312"/>
<path fill="none" stroke="#000001" stroke-linejoin="round" stroke-miterlimit="10" d="M183.743,437.34
	c7.079,1.057,14.961,0.937,23.145-1.239c26.263-6.98,429.894-108.872,516.539-124.347c86.646-15.474,258.271-30.078,335.949-18.734
	c77.681,11.346,148.3,21.66,160.597,26.34c9.477,3.606,14.898-0.227,13.771-7.908"/>
</svg>
