<?xml version="1.0" encoding="utf-8"?>
<!-- Generator: Adobe Illustrator 16.0.0, SVG Export Plug-In . SVG Version: 6.00 Build 0)  -->
<!DOCTYPE svg PUBLIC "-//W3C//DTD SVG 1.1//EN" "http://www.w3.org/Graphics/SVG/1.1/DTD/svg11.dtd">
<svg version="1.1" id="Layer_1" xmlns="http://www.w3.org/2000/svg" xmlns:xlink="http://www.w3.org/1999/xlink" x="0px" y="0px"
	 width="1214.484px" height="1696.621px" viewBox="0 0 1214.484 1696.621" enable-background="new 0 0 1214.484 1696.621"
	 xml:space="preserve">
<path d="M609.35,1696.621c63.462-0.285,360.547-30.697,385.312-39.611c24.769-8.918,26.673-14.832,28.185-37.389
	c0.465-6.945,1.731-13.9,2.724-20.781c2.665-18.566,5.486-37.115,8.313-55.66c4.108-26.983,8.283-53.967,12.475-80.938
	c5.046-32.484,10.123-64.959,15.214-97.438c5.493-35.049,11.005-70.094,16.524-105.139c2.768-17.568,5.537-35.141,8.309-52.709
	c1.361-8.637,2.728-17.271,4.088-25.908c0.981-6.219,5.642-17.258-0.763-21.262c-6.95-4.35-15.201,0.863-22.198,2.486
	c-8.815,2.049-17.93,2.768-26.96,2.159c-50.661-3.391-88.979-47.207-85.593-97.866c3.391-50.662,47.207-88.984,97.869-85.597
	c11.092,0.742,22.025,3.539,32.132,8.164c5.04,2.308,9.874,5.066,14.42,8.238c3.913,2.729,8.975,7.562,14.153,6.271
	c6.203-1.543,6.133-7.561,6.941-12.719c1.06-6.711,2.111-13.42,3.166-20.131c23.696-150.979,87.062-578.749,90.179-602.71
	c3.112-23.96-4.101-51.633-41.998-26.979c-34.228,22.26-458.744,255.542-554.354,300.45
	C591.825,641.842,80.572,360.035,42.593,335.5c-37.979-24.534-45.104,3.161-41.914,27.109
	c3.188,23.95,67.897,451.521,92.071,602.424c1.074,6.707,2.149,13.414,3.229,20.121c0.827,5.155,0.774,11.174,6.982,12.696
	c5.187,1.273,10.229-3.573,14.136-6.315c4.533-3.189,9.359-5.963,14.396-8.285c10.09-4.656,21.018-7.486,32.104-8.266
	c50.649-3.549,94.589,34.635,98.138,85.285c3.55,50.649-34.634,94.588-85.285,98.139c-9.028,0.633-18.143-0.057-26.966-2.076
	c-7.002-1.604-15.271-6.787-22.207-2.418c-6.39,4.023-1.695,15.049-0.694,21.266c1.392,8.631,2.78,17.267,4.169,25.896
	c2.826,17.561,5.649,35.123,8.476,52.684c5.63,35.025,11.252,70.056,16.854,105.084c5.192,32.459,10.373,64.922,15.521,97.392
	c4.273,26.963,8.533,53.928,12.729,80.899c2.884,18.535,5.764,37.07,8.486,55.631c1.012,6.884,2.302,13.83,2.789,20.773
	c1.581,22.553,3.505,28.461,28.298,37.299C248.698,1659.675,545.888,1696.535,609.35,1696.621z M1004.338,112.413
	c-0.562-11.363-5.489-17.908-17.396-10.529c-11.905,7.378-137.789,67.307-296.854,76.726
	c-159.067,9.419-286.746-28.738-354.29-60.671c-67.544-31.935-190.772-104.06-198.726-109.8c-7.953-5.74-12.924-13.164-24.712-3.376
	C100.574,14.55,78.151,26.399,70.728,31.37c-7.423,4.969-18.681,25.468-10.349,38.86c8.334,13.394,181.297,253.325,189.325,260.597
	c8.03,7.271,297.229,209.229,367.769,208.8c70.543-0.429,288.493-121.679,304.945-130.164c16.45-8.486,83.672-106.924,91.02-113.425
	C1020.785,289.538,1004.338,112.413,1004.338,112.413z"/>
</svg>
