<?xml version="1.0" encoding="utf-8"?>
<!-- Generator: Adobe Illustrator 16.0.0, SVG Export Plug-In . SVG Version: 6.00 Build 0)  -->
<!DOCTYPE svg PUBLIC "-//W3C//DTD SVG 1.1//EN" "http://www.w3.org/Graphics/SVG/1.1/DTD/svg11.dtd">
<svg version="1.1" id="Layer_1" xmlns="http://www.w3.org/2000/svg" xmlns:xlink="http://www.w3.org/1999/xlink" x="0px" y="0px"
	 width="1600.707px" height="1498.629px" viewBox="0 0 1600.707 1498.629" enable-background="new 0 0 1600.707 1498.629"
	 xml:space="preserve">
<path fill="none" stroke="#000000" stroke-linejoin="round" stroke-miterlimit="10" d="M747.546,287.11
	c-22.229,9.021-553.361,142.742-553.361,142.742c-21.492,6.892-60.699,2.865-70.715,66.271
	C113.457,559.527-7.87,1358.198,0.404,1444.655c8.274,86.455,35.185,43.229,54.461,42.739
	c19.275-0.487,157.327-26.724,218.766-31.72c61.438-4.996,176.357-5.805,194.896-4.16c18.538,1.645,37.979-13.118,46.102-36.577
	c2.943-8.495,5.158-42.942,12.225-102.073c-23.909-14.562-34.182-48.316-22.944-80.763c7.561-21.832,23.143-38.108,40.994-45.409
	c17.185-103.322,45.709-240.377,94.892-409.078c114.471-392.647,130.479-480.248,135.562-488.039
	C780.44,281.782,769.777,278.091,747.546,287.11z M547.875,1475.038c-1.341,7.678,3.845,12.854,11.521,11.502l267.819-47.188
	c7.681-1.354,14.919-8.764,16.094-16.471c0,0,40.153-263.52,68.727-418.188c28.567-154.668,61.604-351.033,82.602-379.172
	c20.996-28.139,268.396-271.624,280.173-284.736c11.774-13.113,199.641-195.494,225.752-219.814
	c26.11-24.32,97.147-103.04,97.147-103.04c5.223-5.788,3.438-12.523-3.961-14.972c0,0-44.008-14.547-303.435,20.859
	C1033.153,58.914,861.31,130.511,861.31,130.511c-7.194,2.998-8.854,10.225-3.684,16.059c0,0,47.889,54.044,65.184,78.896
	c17.298,24.854,52.373,84.049,52.373,84.049c3.978,6.707,1.345,9.734-5.85,6.725c0,0-35.486-14.838-56.887-20.852
	c-21.398-6.012-43.066-11.227-43.066-11.227c-7.578-1.824-15.758,2.748-18.176,10.16c0,0-94.125,288.47-155.854,500.13
	C623.817,1039.745,547.875,1475.038,547.875,1475.038z"/>
</svg>
