<?xml version="1.0" encoding="utf-8"?>
<!-- Generator: Adobe Illustrator 16.0.0, SVG Export Plug-In . SVG Version: 6.00 Build 0)  -->
<!DOCTYPE svg PUBLIC "-//W3C//DTD SVG 1.1//EN" "http://www.w3.org/Graphics/SVG/1.1/DTD/svg11.dtd">
<svg version="1.1" id="Layer_1" xmlns="http://www.w3.org/2000/svg" xmlns:xlink="http://www.w3.org/1999/xlink" x="0px" y="0px"
	 width="2511.422px" height="1200.943px" viewBox="0 0 2511.422 1200.943" enable-background="new 0 0 2511.422 1200.943"
	 xml:space="preserve">
<path fill="none" stroke="#000001" stroke-linejoin="round" stroke-miterlimit="10" d="M1621.99,400.892
	c47.732,0,86.427,38.694,86.427,86.426c0,47.73-38.693,86.426-86.427,86.426c-47.73,0-86.426-38.694-86.426-86.426
	C1535.564,439.586,1574.258,400.892,1621.99,400.892z M2047.237,577c6.805-10.797,31.658-18.792,61.321-18.792
	c43.2,0,78.157,9.361,78.157,20.929c0,0.001-0.998,13.294-0.998,13.294c0,9.043-8.896,16.362-19.883,16.361
	c-0.461-0.021-0.931-0.031-1.396-0.031c-17.221,0-31.181,13.961-31.181,31.187c0,17.221,13.96,31.181,31.181,31.181
	s31.182-13.96,31.182-31.181c0-8.568,7.277-15.502,16.271-15.502l249.746,15.476c7.688,0.479,14.32-5.641,14.814-13.658
	l34.938-563.765c0.468-7.616-5.202-14.369-12.675-15.091L2242.53,22.645c-9.522,0-19.053,0-28.579,0c-23.431,0-46.86,0-70.294,0
	c-29.613,0-59.229,0-88.847,0c-28.078,0-56.157,0-84.235,0c-16.017,0-32.033-0.046-48.052-0.001
	c-12.331,0.035-23.36-4.394-31.779-13.542l-0.001-0.004c-4.254-6.008-8.749-10.434-13.242-8.722
	c-7.916,3.015-322.442,26.751-505.061,44.647c-182.61,17.9-641.123,72.914-660.531,76.685c-8.512,1.652-14.68,5.393-16.312,10.286
	l0,0c-0.906,5.366-1.814,10.732-2.728,16.099c-4.185,24.726-8.369,49.451-12.554,74.177c-2.042,12.064-4.087,24.128-6.134,36.191
	c-2.127,12.542-2.918,27.429-18.93,28.232c-15.818-1.379-24.639-2.178-24.639-2.179c-4.613-0.431-9.223-1.201-13.824-1.765
	c-13.285-1.629-26.916-3.525-39.962-5.195c-26.648-3.411-53.689-5.85-78.382-17.326l0.004-0.003
	c-5.547-2.963-11.614-4.783-17.294-7.269c-13.672-5.986-112.79-42.094-239.159-77.087C115.637,140.873,0,153.929,0,153.929
	s44.305,201.349,91.99,368.71c47.684,167.368,105.06,311.266,105.06,311.266c22.762,53.753,45.466,107.855,69.396,161.116
	c26.575,59.138,49.792,131.709,3.176,187.771c0,0,120.479,28.086,223.778,14.377c103.3-13.711,1403.312-214.162,1403.312-214.162
	l77.447-158.688l8.936-38.786c0,0,39.267-125.488,64.095-208.574L2047.237,577z"/>
</svg>
