<?xml version="1.0" encoding="utf-8"?>
<!-- Generator: Adobe Illustrator 16.0.0, SVG Export Plug-In . SVG Version: 6.00 Build 0)  -->
<!DOCTYPE svg PUBLIC "-//W3C//DTD SVG 1.1//EN" "http://www.w3.org/Graphics/SVG/1.1/DTD/svg11.dtd">
<svg version="1.1" id="Layer_1" xmlns="http://www.w3.org/2000/svg" xmlns:xlink="http://www.w3.org/1999/xlink" x="0px" y="0px"
	 width="619.234px" height="472.656px" viewBox="0 0 619.234 472.656" enable-background="new 0 0 619.234 472.656"
	 xml:space="preserve">
<path fill="none" stroke="#000000" stroke-linejoin="round" stroke-miterlimit="10" d="M581.042,61.57
	c-1.739,0.402-3.646,0.306-5.132,1.434c-1.253,0.951-1.959,2.48-2.557,3.889c-1.033,2.44-2.237,4.749-3.488,7.086
	c-16.441,38.333-135.939,329.912-155.572,355.777c-20.567,27.093-39.608,35.818-128.662,42.9
	c-89.018-7.531-108.013-16.795-128.442-43.996C136.759,401.458,8.194,82.066,1.81,68.396C-4.575,54.724,7.622,51.43,12.275,54.408
	c4.654,2.977,26.3,13.3,134.157,44.993c93.47,27.467,186.565,28.179,280.277,1.157c76.479-22.055,109.688-33.614,124.215-39.532
	c1.921-1.231,3.841-2.465,5.764-3.694c2.937-1.876,5.961-4.421,5.852-8.224v0.002c-3.57-5.072-5.667-11.255-5.667-17.929
	C556.871,13.96,570.831,0,588.052,0c17.222,0,31.183,13.96,31.183,31.181c0,17.221-13.961,31.181-31.183,31.181
	c-2.409,0-4.755-0.273-7.007-0.79L581.042,61.57z"/>
</svg>
