<?xml version="1.0" encoding="utf-8"?>
<!-- Generator: Adobe Illustrator 16.0.0, SVG Export Plug-In . SVG Version: 6.00 Build 0)  -->
<!DOCTYPE svg PUBLIC "-//W3C//DTD SVG 1.1//EN" "http://www.w3.org/Graphics/SVG/1.1/DTD/svg11.dtd">
<svg version="1.1" id="Layer_1" xmlns="http://www.w3.org/2000/svg" xmlns:xlink="http://www.w3.org/1999/xlink" x="0px" y="0px"
	 width="804.172px" height="242.311px" viewBox="0 0 804.172 242.311" enable-background="new 0 0 804.172 242.311"
	 xml:space="preserve">
<path fill="none" stroke="#000000" stroke-linejoin="round" stroke-miterlimit="10" d="M770.578,116.325
	c-8.435-4.988-16.975-9.858-25.405-14.848c-22.479-13.07-45.07-26.256-67.658-39.21c-3.204-1.854-3.047-1.883-6.389-0.248
	c-33.631,16.586-66.078,34.501-100.953,49.966c-2.425,1.082-4.587,2.542-6.915,3.804c-21.354,12.198-57.169,12.889-107.286,2.334
	c-92.213-12.487-220.31-37.68-384.308-75.504c-1.953-0.508-4.396-1.385-6.312-0.751c-14.518,5.371-7.244,13.993,22.212,26.59
	c83.388,38.104,167.258,76.354,251.012,114.495c68.182,23.063,156.607,42.465,263.604,59.049c20.23,2.188,47.354-7.17,80.529-29.301
	c35.664-19.89,70.459-39.886,105.256-59.882c2.17-1.229,4.076-2.092,6.345-3.146C810.208,142.689,809.931,138.324,770.578,116.325z"
	/>
</svg>
