<?xml version="1.0" encoding="utf-8"?>
<!-- Generator: Adobe Illustrator 16.0.0, SVG Export Plug-In . SVG Version: 6.00 Build 0)  -->
<!DOCTYPE svg PUBLIC "-//W3C//DTD SVG 1.1//EN" "http://www.w3.org/Graphics/SVG/1.1/DTD/svg11.dtd">
<svg version="1.1" id="Layer_1" xmlns="http://www.w3.org/2000/svg" xmlns:xlink="http://www.w3.org/1999/xlink" x="0px" y="0px"
	 width="1933.766px" height="676.981px" viewBox="0 0 1933.766 676.981" enable-background="new 0 0 1933.766 676.981"
	 xml:space="preserve">
<path fill="none" stroke="#000000" stroke-linejoin="round" stroke-miterlimit="10" d="M1897.093,0l-721.245,65.608
	c-32.229,1.031-63.089,11.231-92.505,31.076c-139.438,77.896-235.85,113.059-404.061,162.245
	c-164.25,36.904-377.615,61.981-604.731,66.487c-27.782-0.642-27.494,14.26-23.198,31.383
	c25.065,105.283,101.629,156.863,194.648,191.277c440.985,72.836,872.723,158.266,1334.951,119.018
	c29.418-5.906,30.491-13.385,42.804-27.346c114.284-186.209,216.182-378.049,306.666-575.083
	C1939.724,30.323,1929.932,7.941,1897.093,0z"/>
</svg>
