<?xml version="1.0" encoding="utf-8"?>
<!-- Generator: Adobe Illustrator 16.0.0, SVG Export Plug-In . SVG Version: 6.00 Build 0)  -->
<!DOCTYPE svg PUBLIC "-//W3C//DTD SVG 1.1//EN" "http://www.w3.org/Graphics/SVG/1.1/DTD/svg11.dtd">
<svg version="1.1" id="Layer_1" xmlns="http://www.w3.org/2000/svg" xmlns:xlink="http://www.w3.org/1999/xlink" x="0px" y="0px"
	 width="732.511px" height="1322.535px" viewBox="0 0 732.511 1322.535" enable-background="new 0 0 732.511 1322.535"
	 xml:space="preserve">
<path fill="none" stroke="#000000" stroke-linejoin="round" stroke-miterlimit="10" d="M36.969,62.194
	c1.773,0.947,1.442,2.198,0.294,3.59C25.281,71.862,15.217,82.343,11.63,95.797C-17.569,281.92,9.885,493.57,75.252,723.83
	c7.481,42.326,16.005,42.438,25.571,0.326l68.016-462.042c5.331-16.164,24.254-16.214,27.979,0.832
	c0.186,191.747,5.504,383.109,39.255,570.662c16.014,78.441,45.327,152.455,111.4,214.211
	c117.983,93.787,238.247,185.977,366.665,272.457c9.543,4.1,16.645,3.314,18.371-8.209
	C698.537,950.89,614.71,547.917,594.927,224.572c0.646-11.527-1.77-22.743-17.795-20.728
	C425.945,199.06,257.857,134.77,72.709,61.615c-4.199-1.308-8.719-1.849-13.341-1.691c-0.598-0.371-1.434-0.54-1.577-1.347
	c-0.162-0.912,0.661-1.641,1.044-2.38c7.625-5.685,12.563-14.773,12.563-25.016C71.399,13.96,57.439,0,40.218,0
	C22.997,0,9.037,13.96,9.037,31.181c0,16.145,12.27,29.423,27.993,31.02L36.969,62.194z"/>
</svg>
