<?xml version="1.0" encoding="utf-8"?>
<!-- Generator: Adobe Illustrator 16.0.0, SVG Export Plug-In . SVG Version: 6.00 Build 0)  -->
<!DOCTYPE svg PUBLIC "-//W3C//DTD SVG 1.1//EN" "http://www.w3.org/Graphics/SVG/1.1/DTD/svg11.dtd">
<svg version="1.1" id="Layer_1" xmlns="http://www.w3.org/2000/svg" xmlns:xlink="http://www.w3.org/1999/xlink" x="0px" y="0px"
	 width="732.516px" height="1262.637px" viewBox="0 0 732.516 1262.637" enable-background="new 0 0 732.516 1262.637"
	 xml:space="preserve">
<path d="M720.885,35.899c29.199,186.123,1.744,397.773-63.623,628.035c-7.48,42.324-16.004,42.435-25.57,0.324l-68.016-462.041
	c-5.332-16.165-24.256-16.214-27.979,0.832c-0.188,191.745-5.504,383.109-39.256,570.66
	c-16.018,78.443-45.326,152.455-111.406,214.213c-117.979,93.785-238.244,185.975-366.662,272.455
	c-9.542,4.102-16.645,3.316-18.372-8.209C33.977,890.99,117.805,488.019,137.586,164.674c-0.646-11.528,1.771-22.743,17.794-20.727
	c151.188-4.785,319.275-69.075,504.426-142.23C682.252-5.273,713.888,9.658,720.885,35.899z"/>
</svg>
