<?xml version="1.0" encoding="utf-8"?>
<!-- Generator: Adobe Illustrator 16.0.0, SVG Export Plug-In . SVG Version: 6.00 Build 0)  -->
<!DOCTYPE svg PUBLIC "-//W3C//DTD SVG 1.1//EN" "http://www.w3.org/Graphics/SVG/1.1/DTD/svg11.dtd">
<svg version="1.1" id="Layer_1" xmlns="http://www.w3.org/2000/svg" xmlns:xlink="http://www.w3.org/1999/xlink" x="0px" y="0px"
	 width="740.734px" height="1316.536px" viewBox="0 0 740.734 1316.536" enable-background="new 0 0 740.734 1316.536"
	 xml:space="preserve">
<path fill="none" stroke="#000000" stroke-linejoin="round" stroke-miterlimit="10" d="M706.077,62.17
	c1.14,0.126,2.299,0.191,3.473,0.191c17.222,0,31.182-13.96,31.182-31.181C740.73,13.96,726.771,0,709.55,0
	c-17.221,0-31.181,13.96-31.181,31.181c0,7.83,2.887,14.986,7.654,20.462l-0.004-0.001c0.727,1.674,0.375,3.467-1.561,4.004
	l-0.005-0.001c-8.396-2.248-17.049-2.395-24.649-0.028c-185.146,73.155-353.233,137.445-504.425,142.23
	c-16.023-2.016-18.441,9.199-17.794,20.727C117.805,541.918,33.977,944.889-0.001,1306.067c1.729,11.525,8.83,12.311,18.372,8.209
	c128.418-86.48,248.683-178.67,366.663-272.455c66.08-61.758,95.388-135.77,111.406-214.213
	c33.752-187.551,39.065-378.916,39.256-570.66c3.723-17.046,22.646-16.997,27.979-0.832l68.02,462.041
	c9.562,42.109,18.089,42,25.566-0.324c65.367-230.26,92.822-441.912,63.623-628.035c-2.585-9.694-8.532-17.845-16.138-23.917
	l-0.004-0.003c-0.772-1.719-0.775-3.243,1.312-3.71L706.077,62.17z"/>
</svg>
