<?xml version="1.0" encoding="utf-8"?>
<!-- Generator: Adobe Illustrator 16.0.0, SVG Export Plug-In . SVG Version: 6.00 Build 0)  -->
<!DOCTYPE svg PUBLIC "-//W3C//DTD SVG 1.1//EN" "http://www.w3.org/Graphics/SVG/1.1/DTD/svg11.dtd">
<svg version="1.1" id="Layer_1" xmlns="http://www.w3.org/2000/svg" xmlns:xlink="http://www.w3.org/1999/xlink" x="0px" y="0px"
	 width="740.734px" height="1316.536px" viewBox="0 0 740.734 1316.536" enable-background="new 0 0 740.734 1316.536"
	 xml:space="preserve">
<path fill="none" stroke="#000000" stroke-linejoin="round" stroke-miterlimit="10" d="M720.884,89.798
	c29.199,186.123,1.744,397.773-63.623,628.035c-7.479,42.324-16.004,42.434-25.567,0.324l-68.019-462.041
	c-5.332-16.165-24.256-16.214-27.979,0.832c-0.189,191.745-5.504,383.109-39.257,570.66
	c-16.018,78.443-45.325,152.455-111.405,214.213c-117.98,93.785-238.245,185.975-366.663,272.455
	c-9.542,4.102-16.643,3.316-18.372-8.209C33.977,944.889,117.805,541.918,137.587,218.573c-0.647-11.528,1.771-22.743,17.794-20.727
	c151.19-4.785,319.277-69.075,504.425-142.23C682.251,48.626,713.888,63.557,720.884,89.798z"/>
</svg>
