<?xml version="1.0" encoding="utf-8"?>
<!-- Generator: Adobe Illustrator 16.0.0, SVG Export Plug-In . SVG Version: 6.00 Build 0)  -->
<!DOCTYPE svg PUBLIC "-//W3C//DTD SVG 1.1//EN" "http://www.w3.org/Graphics/SVG/1.1/DTD/svg11.dtd">
<svg version="1.1" id="Layer_1" xmlns="http://www.w3.org/2000/svg" xmlns:xlink="http://www.w3.org/1999/xlink" x="0px" y="0px"
	 width="736.854px" height="1366.236px" viewBox="0 0 736.854 1366.236" enable-background="new 0 0 736.854 1366.236"
	 xml:space="preserve">
<path fill="none" stroke="#000000" stroke-linejoin="round" stroke-miterlimit="10" d="M357.296,949.565l-243.53-312.326
	c-5.336-10.288-1.429-15.657,9.38-10.842l203.66,146.479 M357.296,949.565c8.354,9.979,16.104,8.144,22.26,0l243.53-312.326
	c5.336-10.288,1.429-15.657-9.38-10.842L410.046,772.88c-27.404,17.673-55.055,18.213-83.24,0 M543.357,992.179l-138.906,114.604
	c-23.959,13.851-48.886,18.979-76.493,0L189.051,992.179c-5.926-4.88-12.348-0.767-8.691,8.292
	c47.966,142.354,110.443,306.908,174.176,360.787c6.682,6.217,14.312,7.045,23.337,0c63.732-53.879,126.209-218.436,174.176-360.787
	C555.705,991.412,549.283,987.299,543.357,992.179z M367.829,1237.342c-23.096,0-41.826-26.17-41.826-58.438
	c0-32.271,18.729-58.438,41.826-58.438s41.827,26.169,41.827,58.438C409.656,1211.172,390.925,1237.342,367.829,1237.342z
	 M368.617,121.793c-98.034-4.418-215.372-40.145-304.806-84.04C45.066,28.238,27.868,16.25,11.727,2.569
	C4.172-2.247,0.264-0.292,0,8.433l59.226,399.985L289.92,714.795c20.242,22.663,46.577,31.502,78.404,30.499
	c32.218,0.32,58.367-7.836,78.606-30.499l230.693-306.377L736.854,8.433c-0.265-8.725-4.173-10.68-11.728-5.863
	c-16.141,13.681-33.34,25.669-52.084,35.184c-89.434,43.896-206.771,79.622-304.806,84.04 M422.443,960.017
	c-37.366,27.667-73.476,24.585-108.035-0.007c-55.811-42.216-102.512-91.002-155.036-134.852c0.1,9.906,1.466,13.361,6.773,23.37
	l195.559,237.887c4.425,5.794,8.85,6.168,13.272,0l0,0l0.004-0.001l195.726-237.879c5.307-10.009,6.672-13.464,6.771-23.37
	C524.957,869.015,478.253,917.801,422.443,960.017z"/>
</svg>
