<?xml version="1.0" encoding="utf-8"?>
<!-- Generator: Adobe Illustrator 16.0.0, SVG Export Plug-In . SVG Version: 6.00 Build 0)  -->
<!DOCTYPE svg PUBLIC "-//W3C//DTD SVG 1.1//EN" "http://www.w3.org/Graphics/SVG/1.1/DTD/svg11.dtd">
<svg version="1.1" id="Layer_1" xmlns="http://www.w3.org/2000/svg" xmlns:xlink="http://www.w3.org/1999/xlink" x="0px" y="0px"
	 width="1325.809px" height="719.797px" viewBox="0 0 1325.809 719.797" enable-background="new 0 0 1325.809 719.797"
	 xml:space="preserve">
<path fill="none" stroke="#000000" stroke-linejoin="round" stroke-miterlimit="10" d="M1310.541,0L648.766,26.76
	c-77.428,8.65-120.496,40.457-150.573,80.609l-56.321,67.326C336.662,325.859,209.614,462.312,67.066,588.321
	c-4.454,3.314-6.035,6.879-3.479,12.012c47.314,38.742,95.63,73.119,146.728,111.633c8.105,7.035,18.341,10.076,32.376,5.996
	c134.725-27.051,291.842-55.477,457.458-83.809c93.428-13.996,237.688-37.021,338.602-13.168
	c12.062,1.439,25.509-0.533,29.869-10.787c89.738-194.792,176.129-397.964,256.338-597.692
	C1329.384-2.949,1315.341,0.789,1310.541,0z M129.983,625.858c-3.719,0-6.732-3.019-6.732-6.732s3.014-6.732,6.732-6.732
	c3.718,0,6.732,3.019,6.732,6.732S133.701,625.858,129.983,625.858z M129.983,573.858c-3.719,0-6.732-3.019-6.732-6.732
	s3.014-6.732,6.732-6.732c3.718,0,6.732,3.019,6.732,6.732S133.701,573.858,129.983,573.858z M186.553,677.858
	c-3.719,0-6.732-3.019-6.732-6.732s3.014-6.732,6.732-6.732c3.718,0,6.732,3.019,6.732,6.732S190.272,677.858,186.553,677.858z
	 M186.553,625.858c-3.719,0-6.732-3.019-6.732-6.732s3.014-6.732,6.732-6.732c3.718,0,6.732,3.019,6.732,6.732
	S190.272,625.858,186.553,625.858z M186.553,573.858c-3.719,0-6.732-3.019-6.732-6.732s3.014-6.732,6.732-6.732
	c3.718,0,6.732,3.019,6.732,6.732S190.272,573.858,186.553,573.858z M186.553,521.858c-3.719,0-6.732-3.019-6.732-6.732
	s3.014-6.732,6.732-6.732c3.718,0,6.732,3.019,6.732,6.732S190.272,521.858,186.553,521.858z M243.123,677.858
	c-3.719,0-6.732-3.019-6.732-6.732s3.014-6.732,6.732-6.732c3.718,0,6.732,3.019,6.732,6.732S246.842,677.858,243.123,677.858z
	 M243.123,625.858c-3.719,0-6.732-3.019-6.732-6.732s3.014-6.732,6.732-6.732c3.718,0,6.732,3.019,6.732,6.732
	S246.842,625.858,243.123,625.858z M243.123,573.858c-3.719,0-6.732-3.019-6.732-6.732s3.014-6.732,6.732-6.732
	c3.718,0,6.732,3.019,6.732,6.732S246.842,573.858,243.123,573.858z M243.123,521.858c-3.719,0-6.732-3.019-6.732-6.732
	s3.014-6.732,6.732-6.732c3.718,0,6.732,3.019,6.732,6.732S246.842,521.858,243.123,521.858z M243.123,469.858
	c-3.719,0-6.732-3.019-6.732-6.732s3.014-6.731,6.732-6.731c3.718,0,6.732,3.018,6.732,6.731S246.842,469.858,243.123,469.858z
	 M299.694,677.858c-3.719,0-6.732-3.019-6.732-6.732s3.014-6.732,6.732-6.732c3.718,0,6.731,3.019,6.731,6.732
	S303.412,677.858,299.694,677.858z M299.694,625.858c-3.719,0-6.732-3.019-6.732-6.732s3.014-6.732,6.732-6.732
	c3.718,0,6.731,3.019,6.731,6.732S303.412,625.858,299.694,625.858z M299.694,573.858c-3.719,0-6.732-3.019-6.732-6.732
	s3.014-6.732,6.732-6.732c3.718,0,6.731,3.019,6.731,6.732S303.412,573.858,299.694,573.858z M299.694,521.858
	c-3.719,0-6.732-3.019-6.732-6.732s3.014-6.732,6.732-6.732c3.718,0,6.731,3.019,6.731,6.732S303.412,521.858,299.694,521.858z
	 M299.694,469.858c-3.719,0-6.732-3.019-6.732-6.732s3.014-6.731,6.732-6.731c3.718,0,6.731,3.018,6.731,6.731
	S303.412,469.858,299.694,469.858z M299.694,417.857c-3.719,0-6.732-3.018-6.732-6.731s3.014-6.731,6.732-6.731
	c3.718,0,6.731,3.018,6.731,6.731S303.412,417.857,299.694,417.857z M356.264,677.858c-3.719,0-6.73-3.019-6.73-6.732
	s3.014-6.732,6.73-6.732c3.72,0,6.732,3.019,6.732,6.732S359.983,677.858,356.264,677.858z M356.264,625.858
	c-3.719,0-6.73-3.019-6.73-6.732s3.014-6.732,6.73-6.732c3.72,0,6.732,3.019,6.732,6.732S359.983,625.858,356.264,625.858z
	 M356.264,573.858c-3.719,0-6.73-3.019-6.73-6.732s3.014-6.732,6.73-6.732c3.72,0,6.732,3.019,6.732,6.732
	S359.983,573.858,356.264,573.858z M356.264,521.858c-3.719,0-6.73-3.019-6.73-6.732s3.014-6.732,6.73-6.732
	c3.72,0,6.732,3.019,6.732,6.732S359.983,521.858,356.264,521.858z M356.264,469.858c-3.719,0-6.73-3.019-6.73-6.732
	s3.014-6.731,6.73-6.731c3.72,0,6.732,3.018,6.732,6.731S359.983,469.858,356.264,469.858z M356.264,417.857
	c-3.719,0-6.73-3.018-6.73-6.731s3.014-6.731,6.73-6.731c3.72,0,6.732,3.018,6.732,6.731S359.983,417.857,356.264,417.857z
	 M356.264,365.857c-3.719,0-6.73-3.018-6.73-6.731s3.014-6.732,6.73-6.732c3.72,0,6.732,3.015,6.732,6.732
	S359.983,365.857,356.264,365.857z M412.833,625.858c-3.719,0-6.73-3.019-6.73-6.732s3.016-6.732,6.73-6.732
	c3.72,0,6.732,3.019,6.732,6.732S416.553,625.858,412.833,625.858z M412.833,573.858c-3.719,0-6.73-3.019-6.73-6.732
	s3.016-6.732,6.73-6.732c3.72,0,6.732,3.019,6.732,6.732S416.553,573.858,412.833,573.858z M412.833,521.858
	c-3.719,0-6.73-3.019-6.73-6.732s3.016-6.732,6.73-6.732c3.72,0,6.732,3.019,6.732,6.732S416.553,521.858,412.833,521.858z
	 M412.833,469.858c-3.719,0-6.73-3.019-6.73-6.732s3.016-6.731,6.73-6.731c3.72,0,6.732,3.018,6.732,6.731
	S416.553,469.858,412.833,469.858z M412.833,417.857c-3.719,0-6.73-3.018-6.73-6.731s3.016-6.731,6.73-6.731
	c3.72,0,6.732,3.018,6.732,6.731S416.553,417.857,412.833,417.857z M412.833,365.857c-3.719,0-6.73-3.018-6.73-6.731
	s3.016-6.732,6.73-6.732c3.72,0,6.732,3.015,6.732,6.732S416.553,365.857,412.833,365.857z M412.833,313.858
	c-3.719,0-6.73-3.014-6.73-6.732s3.016-6.732,6.73-6.732c3.72,0,6.732,3.014,6.732,6.732S416.553,313.858,412.833,313.858z
	 M412.833,261.858c-3.719,0-6.73-3.014-6.73-6.732s3.016-6.732,6.73-6.732c3.72,0,6.732,3.014,6.732,6.732
	S416.553,261.858,412.833,261.858z M469.405,625.858c-3.721,0-6.732-3.019-6.732-6.732s3.018-6.732,6.732-6.732
	s6.73,3.019,6.73,6.732S473.123,625.858,469.405,625.858z M469.405,573.858c-3.721,0-6.732-3.019-6.732-6.732
	s3.018-6.732,6.732-6.732s6.73,3.019,6.73,6.732S473.123,573.858,469.405,573.858z M469.405,521.858
	c-3.721,0-6.732-3.019-6.732-6.732s3.018-6.732,6.732-6.732s6.73,3.019,6.73,6.732S473.123,521.858,469.405,521.858z
	 M469.405,469.858c-3.721,0-6.732-3.019-6.732-6.732s3.018-6.731,6.732-6.731s6.73,3.018,6.73,6.731
	S473.123,469.858,469.405,469.858z M469.405,417.857c-3.721,0-6.732-3.018-6.732-6.731s3.018-6.731,6.732-6.731
	s6.73,3.018,6.73,6.731S473.123,417.857,469.405,417.857z M469.405,365.857c-3.721,0-6.732-3.018-6.732-6.731
	s3.018-6.732,6.732-6.732s6.73,3.015,6.73,6.732S473.123,365.857,469.405,365.857z M469.405,313.858
	c-3.721,0-6.732-3.014-6.732-6.732s3.018-6.732,6.732-6.732s6.73,3.014,6.73,6.732S473.123,313.858,469.405,313.858z
	 M469.405,261.858c-3.721,0-6.732-3.014-6.732-6.732s3.018-6.732,6.732-6.732s6.73,3.014,6.73,6.732
	S473.123,261.858,469.405,261.858z M469.405,209.858c-3.721,0-6.732-3.014-6.732-6.732s3.018-6.732,6.732-6.732
	s6.73,3.014,6.73,6.732S473.123,209.858,469.405,209.858z M525.975,625.858c-3.721,0-6.73-3.019-6.73-6.732s3.014-6.732,6.73-6.732
	c3.72,0,6.73,3.019,6.73,6.732S529.694,625.858,525.975,625.858z M525.975,573.858c-3.721,0-6.73-3.019-6.73-6.732
	s3.014-6.732,6.73-6.732c3.72,0,6.73,3.019,6.73,6.732S529.694,573.858,525.975,573.858z M525.975,521.858
	c-3.721,0-6.73-3.019-6.73-6.732s3.014-6.732,6.73-6.732c3.72,0,6.73,3.019,6.73,6.732S529.694,521.858,525.975,521.858z
	 M525.975,469.858c-3.721,0-6.73-3.019-6.73-6.732s3.014-6.731,6.73-6.731c3.72,0,6.73,3.018,6.73,6.731
	S529.694,469.858,525.975,469.858z M525.975,417.857c-3.721,0-6.73-3.018-6.73-6.731s3.014-6.731,6.73-6.731
	c3.72,0,6.73,3.018,6.73,6.731S529.694,417.857,525.975,417.857z M525.975,365.857c-3.721,0-6.73-3.018-6.73-6.731
	s3.014-6.732,6.73-6.732c3.72,0,6.73,3.015,6.73,6.732S529.694,365.857,525.975,365.857z M525.975,313.858
	c-3.721,0-6.73-3.014-6.73-6.732s3.014-6.732,6.73-6.732c3.72,0,6.73,3.014,6.73,6.732S529.694,313.858,525.975,313.858z
	 M525.975,261.858c-3.721,0-6.73-3.014-6.73-6.732s3.014-6.732,6.73-6.732c3.72,0,6.73,3.014,6.73,6.732
	S529.694,261.858,525.975,261.858z M525.975,209.858c-3.721,0-6.73-3.014-6.73-6.732s3.014-6.732,6.73-6.732
	c3.72,0,6.73,3.014,6.73,6.732S529.694,209.858,525.975,209.858z M525.975,157.858c-3.721,0-6.73-3.014-6.73-6.732
	s3.014-6.732,6.73-6.732c3.72,0,6.73,3.014,6.73,6.732S529.694,157.858,525.975,157.858z M582.544,625.858
	c-3.719,0-6.729-3.019-6.729-6.732s3.014-6.732,6.729-6.732c3.72,0,6.732,3.019,6.732,6.732S586.264,625.858,582.544,625.858z
	 M582.544,573.858c-3.719,0-6.729-3.019-6.729-6.732s3.014-6.732,6.729-6.732c3.72,0,6.732,3.019,6.732,6.732
	S586.264,573.858,582.544,573.858z M582.544,521.858c-3.719,0-6.729-3.019-6.729-6.732s3.014-6.732,6.729-6.732
	c3.72,0,6.732,3.019,6.732,6.732S586.264,521.858,582.544,521.858z M582.544,469.858c-3.719,0-6.729-3.019-6.729-6.732
	s3.014-6.731,6.729-6.731c3.72,0,6.732,3.018,6.732,6.731S586.264,469.858,582.544,469.858z M582.544,417.857
	c-3.719,0-6.729-3.018-6.729-6.731s3.014-6.731,6.729-6.731c3.72,0,6.732,3.018,6.732,6.731S586.264,417.857,582.544,417.857z
	 M582.544,365.857c-3.719,0-6.729-3.018-6.729-6.731s3.014-6.732,6.729-6.732c3.72,0,6.732,3.015,6.732,6.732
	S586.264,365.857,582.544,365.857z M582.544,313.858c-3.719,0-6.729-3.014-6.729-6.732s3.014-6.732,6.729-6.732
	c3.72,0,6.732,3.014,6.732,6.732S586.264,313.858,582.544,313.858z M582.544,261.858c-3.719,0-6.729-3.014-6.729-6.732
	s3.014-6.732,6.729-6.732c3.72,0,6.732,3.014,6.732,6.732S586.264,261.858,582.544,261.858z M582.544,209.858
	c-3.719,0-6.729-3.014-6.729-6.732s3.014-6.732,6.729-6.732c3.72,0,6.732,3.014,6.732,6.732S586.264,209.858,582.544,209.858z
	 M582.544,157.858c-3.719,0-6.729-3.014-6.729-6.732s3.014-6.732,6.729-6.732c3.72,0,6.732,3.014,6.732,6.732
	S586.264,157.858,582.544,157.858z M582.544,105.858c-3.719,0-6.729-3.014-6.729-6.732s3.014-6.732,6.729-6.732
	c3.72,0,6.732,3.014,6.732,6.732S586.264,105.858,582.544,105.858z M639.115,625.858c-3.719,0-6.732-3.019-6.732-6.732
	s3.018-6.732,6.732-6.732s6.73,3.019,6.73,6.732S642.833,625.858,639.115,625.858z M639.115,573.858
	c-3.719,0-6.732-3.019-6.732-6.732s3.018-6.732,6.732-6.732s6.73,3.019,6.73,6.732S642.833,573.858,639.115,573.858z
	 M639.115,521.858c-3.719,0-6.732-3.019-6.732-6.732s3.018-6.732,6.732-6.732s6.73,3.019,6.73,6.732
	S642.833,521.858,639.115,521.858z M639.115,469.858c-3.719,0-6.732-3.019-6.732-6.732s3.018-6.731,6.732-6.731
	s6.73,3.018,6.73,6.731S642.833,469.858,639.115,469.858z M639.115,417.857c-3.719,0-6.732-3.018-6.732-6.731
	s3.018-6.731,6.732-6.731s6.73,3.018,6.73,6.731S642.833,417.857,639.115,417.857z M639.115,365.857
	c-3.719,0-6.732-3.018-6.732-6.731s3.018-6.732,6.732-6.732s6.73,3.015,6.73,6.732S642.833,365.857,639.115,365.857z
	 M639.115,313.858c-3.719,0-6.732-3.014-6.732-6.732s3.018-6.732,6.732-6.732s6.73,3.014,6.73,6.732
	S642.833,313.858,639.115,313.858z M639.115,261.858c-3.719,0-6.732-3.014-6.732-6.732s3.018-6.732,6.732-6.732
	s6.73,3.014,6.73,6.732S642.833,261.858,639.115,261.858z M639.115,209.858c-3.719,0-6.732-3.014-6.732-6.732
	s3.018-6.732,6.732-6.732s6.73,3.014,6.73,6.732S642.833,209.858,639.115,209.858z M639.115,157.858
	c-3.719,0-6.732-3.014-6.732-6.732s3.018-6.732,6.732-6.732s6.73,3.014,6.73,6.732S642.833,157.858,639.115,157.858z
	 M639.115,105.858c-3.719,0-6.732-3.014-6.732-6.732s3.018-6.732,6.732-6.732s6.73,3.014,6.73,6.732
	S642.833,105.858,639.115,105.858z M639.115,53.858c-3.719,0-6.732-3.014-6.732-6.732s3.018-6.732,6.732-6.732
	s6.73,3.014,6.73,6.732S642.833,53.858,639.115,53.858z M695.685,573.858c-3.719,0-6.73-3.019-6.73-6.732s3.014-6.732,6.73-6.732
	c3.722,0,6.731,3.019,6.731,6.732S699.405,573.858,695.685,573.858z M695.685,521.858c-3.719,0-6.73-3.019-6.73-6.732
	s3.014-6.732,6.73-6.732c3.722,0,6.731,3.019,6.731,6.732S699.405,521.858,695.685,521.858z M695.685,469.858
	c-3.719,0-6.73-3.019-6.73-6.732s3.014-6.731,6.73-6.731c3.722,0,6.731,3.018,6.731,6.731S699.405,469.858,695.685,469.858z
	 M695.685,417.857c-3.719,0-6.73-3.018-6.73-6.731s3.014-6.731,6.73-6.731c3.722,0,6.731,3.018,6.731,6.731
	S699.405,417.857,695.685,417.857z M695.685,365.857c-3.719,0-6.73-3.018-6.73-6.731s3.014-6.732,6.73-6.732
	c3.722,0,6.731,3.015,6.731,6.732S699.405,365.857,695.685,365.857z M695.685,313.858c-3.719,0-6.73-3.014-6.73-6.732
	s3.014-6.732,6.73-6.732c3.722,0,6.731,3.014,6.731,6.732S699.405,313.858,695.685,313.858z M695.685,261.858
	c-3.719,0-6.73-3.014-6.73-6.732s3.014-6.732,6.73-6.732c3.722,0,6.731,3.014,6.731,6.732S699.405,261.858,695.685,261.858z
	 M695.685,209.858c-3.719,0-6.73-3.014-6.73-6.732s3.014-6.732,6.73-6.732c3.722,0,6.731,3.014,6.731,6.732
	S699.405,209.858,695.685,209.858z M695.685,157.858c-3.719,0-6.73-3.014-6.73-6.732s3.014-6.732,6.73-6.732
	c3.722,0,6.731,3.014,6.731,6.732S699.405,157.858,695.685,157.858z M695.685,105.858c-3.719,0-6.73-3.014-6.73-6.732
	s3.014-6.732,6.73-6.732c3.722,0,6.731,3.014,6.731,6.732S699.405,105.858,695.685,105.858z M695.685,53.858
	c-3.719,0-6.73-3.014-6.73-6.732s3.014-6.732,6.73-6.732c3.722,0,6.731,3.014,6.731,6.732S699.405,53.858,695.685,53.858z
	 M752.256,573.858c-3.719,0-6.729-3.019-6.729-6.732s3.014-6.732,6.729-6.732c3.72,0,6.732,3.019,6.732,6.732
	S755.975,573.858,752.256,573.858z M752.256,521.858c-3.719,0-6.729-3.019-6.729-6.732s3.014-6.732,6.729-6.732
	c3.72,0,6.732,3.019,6.732,6.732S755.975,521.858,752.256,521.858z M752.256,469.858c-3.719,0-6.729-3.019-6.729-6.732
	s3.014-6.731,6.729-6.731c3.72,0,6.732,3.018,6.732,6.731S755.975,469.858,752.256,469.858z M752.256,417.857
	c-3.719,0-6.729-3.018-6.729-6.731s3.014-6.731,6.729-6.731c3.72,0,6.732,3.018,6.732,6.731S755.975,417.857,752.256,417.857z
	 M752.256,365.857c-3.719,0-6.729-3.018-6.729-6.731s3.014-6.732,6.729-6.732c3.72,0,6.732,3.015,6.732,6.732
	S755.975,365.857,752.256,365.857z M752.256,313.858c-3.719,0-6.729-3.014-6.729-6.732s3.014-6.732,6.729-6.732
	c3.72,0,6.732,3.014,6.732,6.732S755.975,313.858,752.256,313.858z M752.256,261.858c-3.719,0-6.729-3.014-6.729-6.732
	s3.014-6.732,6.729-6.732c3.72,0,6.732,3.014,6.732,6.732S755.975,261.858,752.256,261.858z M752.256,209.858
	c-3.719,0-6.729-3.014-6.729-6.732s3.014-6.732,6.729-6.732c3.72,0,6.732,3.014,6.732,6.732S755.975,209.858,752.256,209.858z
	 M752.256,157.858c-3.719,0-6.729-3.014-6.729-6.732s3.014-6.732,6.729-6.732c3.72,0,6.732,3.014,6.732,6.732
	S755.975,157.858,752.256,157.858z M752.256,105.858c-3.719,0-6.729-3.014-6.729-6.732s3.014-6.732,6.729-6.732
	c3.72,0,6.732,3.014,6.732,6.732S755.975,105.858,752.256,105.858z M752.256,53.858c-3.719,0-6.729-3.014-6.729-6.732
	s3.014-6.732,6.729-6.732c3.72,0,6.732,3.014,6.732,6.732S755.975,53.858,752.256,53.858z M808.827,573.858
	c-3.719,0-6.73-3.019-6.73-6.732s3.016-6.732,6.73-6.732s6.73,3.019,6.73,6.732S812.545,573.858,808.827,573.858z M808.827,521.858
	c-3.719,0-6.73-3.019-6.73-6.732s3.016-6.732,6.73-6.732s6.73,3.019,6.73,6.732S812.545,521.858,808.827,521.858z M808.827,469.858
	c-3.719,0-6.73-3.019-6.73-6.732s3.016-6.731,6.73-6.731s6.73,3.018,6.73,6.731S812.545,469.858,808.827,469.858z M808.827,417.857
	c-3.719,0-6.73-3.018-6.73-6.731s3.016-6.731,6.73-6.731s6.73,3.018,6.73,6.731S812.545,417.857,808.827,417.857z M808.827,365.857
	c-3.719,0-6.73-3.018-6.73-6.731s3.016-6.732,6.73-6.732s6.73,3.015,6.73,6.732S812.545,365.857,808.827,365.857z M808.827,313.858
	c-3.719,0-6.73-3.014-6.73-6.732s3.016-6.732,6.73-6.732s6.73,3.014,6.73,6.732S812.545,313.858,808.827,313.858z M808.827,261.858
	c-3.719,0-6.73-3.014-6.73-6.732s3.016-6.732,6.73-6.732s6.73,3.014,6.73,6.732S812.545,261.858,808.827,261.858z M808.827,209.858
	c-3.719,0-6.73-3.014-6.73-6.732s3.016-6.732,6.73-6.732s6.73,3.014,6.73,6.732S812.545,209.858,808.827,209.858z M808.827,157.858
	c-3.719,0-6.73-3.014-6.73-6.732s3.016-6.732,6.73-6.732s6.73,3.014,6.73,6.732S812.545,157.858,808.827,157.858z M808.827,105.858
	c-3.719,0-6.73-3.014-6.73-6.732s3.016-6.732,6.73-6.732s6.73,3.014,6.73,6.732S812.545,105.858,808.827,105.858z M808.827,53.858
	c-3.719,0-6.73-3.014-6.73-6.732s3.016-6.732,6.73-6.732s6.73,3.014,6.73,6.732S812.545,53.858,808.827,53.858z M865.396,573.858
	c-3.72,0-6.731-3.019-6.731-6.732s3.016-6.732,6.731-6.732c3.717,0,6.729,3.019,6.729,6.732S869.116,573.858,865.396,573.858z
	 M865.396,521.858c-3.72,0-6.731-3.019-6.731-6.732s3.016-6.732,6.731-6.732c3.717,0,6.729,3.019,6.729,6.732
	S869.116,521.858,865.396,521.858z M865.396,469.858c-3.72,0-6.731-3.019-6.731-6.732s3.016-6.731,6.731-6.731
	c3.717,0,6.729,3.018,6.729,6.731S869.116,469.858,865.396,469.858z M865.396,417.857c-3.72,0-6.731-3.018-6.731-6.731
	s3.016-6.731,6.731-6.731c3.717,0,6.729,3.018,6.729,6.731S869.116,417.857,865.396,417.857z M865.396,365.857
	c-3.72,0-6.731-3.018-6.731-6.731s3.016-6.732,6.731-6.732c3.717,0,6.729,3.015,6.729,6.732S869.116,365.857,865.396,365.857z
	 M865.396,313.858c-3.72,0-6.731-3.014-6.731-6.732s3.016-6.732,6.731-6.732c3.717,0,6.729,3.014,6.729,6.732
	S869.116,313.858,865.396,313.858z M865.396,261.858c-3.72,0-6.731-3.014-6.731-6.732s3.016-6.732,6.731-6.732
	c3.717,0,6.729,3.014,6.729,6.732S869.116,261.858,865.396,261.858z M865.396,209.858c-3.72,0-6.731-3.014-6.731-6.732
	s3.016-6.732,6.731-6.732c3.717,0,6.729,3.014,6.729,6.732S869.116,209.858,865.396,209.858z M865.396,157.858
	c-3.72,0-6.731-3.014-6.731-6.732s3.016-6.732,6.731-6.732c3.717,0,6.729,3.014,6.729,6.732S869.116,157.858,865.396,157.858z
	 M865.396,105.858c-3.72,0-6.731-3.014-6.731-6.732s3.016-6.732,6.731-6.732c3.717,0,6.729,3.014,6.729,6.732
	S869.116,105.858,865.396,105.858z M865.396,53.858c-3.72,0-6.731-3.014-6.731-6.732s3.016-6.732,6.731-6.732
	c3.717,0,6.729,3.014,6.729,6.732S869.116,53.858,865.396,53.858z M921.966,573.858c-3.719,0-6.729-3.019-6.729-6.732
	s3.014-6.732,6.729-6.732c3.72,0,6.732,3.019,6.732,6.732S925.686,573.858,921.966,573.858z M921.966,521.858
	c-3.719,0-6.729-3.019-6.729-6.732s3.014-6.732,6.729-6.732c3.72,0,6.732,3.019,6.732,6.732S925.686,521.858,921.966,521.858z
	 M921.966,469.858c-3.719,0-6.729-3.019-6.729-6.732s3.014-6.731,6.729-6.731c3.72,0,6.732,3.018,6.732,6.731
	S925.686,469.858,921.966,469.858z M921.966,417.857c-3.719,0-6.729-3.018-6.729-6.731s3.014-6.731,6.729-6.731
	c3.72,0,6.732,3.018,6.732,6.731S925.686,417.857,921.966,417.857z M921.966,365.857c-3.719,0-6.729-3.018-6.729-6.731
	s3.014-6.732,6.729-6.732c3.72,0,6.732,3.015,6.732,6.732S925.686,365.857,921.966,365.857z M921.966,313.858
	c-3.719,0-6.729-3.014-6.729-6.732s3.014-6.732,6.729-6.732c3.72,0,6.732,3.014,6.732,6.732S925.686,313.858,921.966,313.858z
	 M921.966,261.858c-3.719,0-6.729-3.014-6.729-6.732s3.014-6.732,6.729-6.732c3.72,0,6.732,3.014,6.732,6.732
	S925.686,261.858,921.966,261.858z M921.966,209.858c-3.719,0-6.729-3.014-6.729-6.732s3.014-6.732,6.729-6.732
	c3.72,0,6.732,3.014,6.732,6.732S925.686,209.858,921.966,209.858z M921.966,157.858c-3.719,0-6.729-3.014-6.729-6.732
	s3.014-6.732,6.729-6.732c3.72,0,6.732,3.014,6.732,6.732S925.686,157.858,921.966,157.858z M921.966,105.858
	c-3.719,0-6.729-3.014-6.729-6.732s3.014-6.732,6.729-6.732c3.72,0,6.732,3.014,6.732,6.732S925.686,105.858,921.966,105.858z
	 M921.966,53.858c-3.719,0-6.729-3.014-6.729-6.732s3.014-6.732,6.729-6.732c3.72,0,6.732,3.014,6.732,6.732
	S925.686,53.858,921.966,53.858z M978.538,573.858c-3.719,0-6.729-3.019-6.729-6.732s3.015-6.732,6.729-6.732
	s6.731,3.019,6.731,6.732S982.256,573.858,978.538,573.858z M978.538,521.858c-3.719,0-6.729-3.019-6.729-6.732
	s3.015-6.732,6.729-6.732s6.731,3.019,6.731,6.732S982.256,521.858,978.538,521.858z M978.538,469.858
	c-3.719,0-6.729-3.019-6.729-6.732s3.015-6.731,6.729-6.731s6.731,3.018,6.731,6.731S982.256,469.858,978.538,469.858z
	 M978.538,417.857c-3.719,0-6.729-3.018-6.729-6.731s3.015-6.731,6.729-6.731s6.731,3.018,6.731,6.731
	S982.256,417.857,978.538,417.857z M978.538,365.857c-3.719,0-6.729-3.018-6.729-6.731s3.015-6.732,6.729-6.732
	s6.731,3.015,6.731,6.732S982.256,365.857,978.538,365.857z M978.538,313.858c-3.719,0-6.729-3.014-6.729-6.732
	s3.015-6.732,6.729-6.732s6.731,3.014,6.731,6.732S982.256,313.858,978.538,313.858z M978.538,261.858
	c-3.719,0-6.729-3.014-6.729-6.732s3.015-6.732,6.729-6.732s6.731,3.014,6.731,6.732S982.256,261.858,978.538,261.858z
	 M978.538,209.858c-3.719,0-6.729-3.014-6.729-6.732s3.015-6.732,6.729-6.732s6.731,3.014,6.731,6.732
	S982.256,209.858,978.538,209.858z M978.538,157.858c-3.719,0-6.729-3.014-6.729-6.732s3.015-6.732,6.729-6.732
	s6.731,3.014,6.731,6.732S982.256,157.858,978.538,157.858z M978.538,105.858c-3.719,0-6.729-3.014-6.729-6.732
	s3.015-6.732,6.729-6.732s6.731,3.014,6.731,6.732S982.256,105.858,978.538,105.858z M978.538,53.858
	c-3.719,0-6.729-3.014-6.729-6.732s3.015-6.732,6.729-6.732s6.731,3.014,6.731,6.732S982.256,53.858,978.538,53.858z
	 M1035.108,573.858c-3.721,0-6.732-3.019-6.732-6.732s3.016-6.732,6.732-6.732c3.716,0,6.729,3.019,6.729,6.732
	S1038.827,573.858,1035.108,573.858z M1035.108,521.858c-3.721,0-6.732-3.019-6.732-6.732s3.016-6.732,6.732-6.732
	c3.716,0,6.729,3.019,6.729,6.732S1038.827,521.858,1035.108,521.858z M1035.108,469.858c-3.721,0-6.732-3.019-6.732-6.732
	s3.016-6.731,6.732-6.731c3.716,0,6.729,3.018,6.729,6.731S1038.827,469.858,1035.108,469.858z M1035.108,417.857
	c-3.721,0-6.732-3.018-6.732-6.731s3.016-6.731,6.732-6.731c3.716,0,6.729,3.018,6.729,6.731S1038.827,417.857,1035.108,417.857z
	 M1035.108,365.857c-3.721,0-6.732-3.018-6.732-6.731s3.016-6.732,6.732-6.732c3.716,0,6.729,3.015,6.729,6.732
	S1038.827,365.857,1035.108,365.857z M1035.108,313.858c-3.721,0-6.732-3.014-6.732-6.732s3.016-6.732,6.732-6.732
	c3.716,0,6.729,3.014,6.729,6.732S1038.827,313.858,1035.108,313.858z M1035.108,261.858c-3.721,0-6.732-3.014-6.732-6.732
	s3.016-6.732,6.732-6.732c3.716,0,6.729,3.014,6.729,6.732S1038.827,261.858,1035.108,261.858z M1035.108,209.858
	c-3.721,0-6.732-3.014-6.732-6.732s3.016-6.732,6.732-6.732c3.716,0,6.729,3.014,6.729,6.732S1038.827,209.858,1035.108,209.858z
	 M1035.108,157.858c-3.721,0-6.732-3.014-6.732-6.732s3.016-6.732,6.732-6.732c3.716,0,6.729,3.014,6.729,6.732
	S1038.827,157.858,1035.108,157.858z M1035.108,105.858c-3.721,0-6.732-3.014-6.732-6.732s3.016-6.732,6.732-6.732
	c3.716,0,6.729,3.014,6.729,6.732S1038.827,105.858,1035.108,105.858z M1035.108,53.858c-3.721,0-6.732-3.014-6.732-6.732
	s3.016-6.732,6.732-6.732c3.716,0,6.729,3.014,6.729,6.732S1038.827,53.858,1035.108,53.858z M1091.677,521.858
	c-3.72,0-6.729-3.019-6.729-6.732s3.014-6.732,6.729-6.732c3.72,0,6.731,3.019,6.731,6.732S1095.396,521.858,1091.677,521.858z
	 M1091.677,469.858c-3.72,0-6.729-3.019-6.729-6.732s3.014-6.731,6.729-6.731c3.72,0,6.731,3.018,6.731,6.731
	S1095.396,469.858,1091.677,469.858z M1091.677,417.857c-3.72,0-6.729-3.018-6.729-6.731s3.014-6.731,6.729-6.731
	c3.72,0,6.731,3.018,6.731,6.731S1095.396,417.857,1091.677,417.857z M1091.677,365.857c-3.72,0-6.729-3.018-6.729-6.731
	s3.014-6.732,6.729-6.732c3.72,0,6.731,3.015,6.731,6.732S1095.396,365.857,1091.677,365.857z M1091.677,313.858
	c-3.72,0-6.729-3.014-6.729-6.732s3.014-6.732,6.729-6.732c3.72,0,6.731,3.014,6.731,6.732S1095.396,313.858,1091.677,313.858z
	 M1091.677,261.858c-3.72,0-6.729-3.014-6.729-6.732s3.014-6.732,6.729-6.732c3.72,0,6.731,3.014,6.731,6.732
	S1095.396,261.858,1091.677,261.858z M1091.677,209.858c-3.72,0-6.729-3.014-6.729-6.732s3.014-6.732,6.729-6.732
	c3.72,0,6.731,3.014,6.731,6.732S1095.396,209.858,1091.677,209.858z M1091.677,157.858c-3.72,0-6.729-3.014-6.729-6.732
	s3.014-6.732,6.729-6.732c3.72,0,6.731,3.014,6.731,6.732S1095.396,157.858,1091.677,157.858z M1091.677,105.858
	c-3.72,0-6.729-3.014-6.729-6.732s3.014-6.732,6.729-6.732c3.72,0,6.731,3.014,6.731,6.732S1095.396,105.858,1091.677,105.858z
	 M1091.677,53.858c-3.72,0-6.729-3.014-6.729-6.732s3.014-6.732,6.729-6.732c3.72,0,6.731,3.014,6.731,6.732
	S1095.396,53.858,1091.677,53.858z M1148.249,365.857c-3.719,0-6.729-3.018-6.729-6.731s3.015-6.732,6.729-6.732
	s6.732,3.015,6.732,6.732S1151.966,365.857,1148.249,365.857z M1148.249,313.858c-3.719,0-6.729-3.014-6.729-6.732
	s3.015-6.732,6.729-6.732s6.732,3.014,6.732,6.732S1151.966,313.858,1148.249,313.858z M1148.249,261.858
	c-3.719,0-6.729-3.014-6.729-6.732s3.015-6.732,6.729-6.732s6.732,3.014,6.732,6.732S1151.966,261.858,1148.249,261.858z
	 M1148.249,209.858c-3.719,0-6.729-3.014-6.729-6.732s3.015-6.732,6.729-6.732s6.732,3.014,6.732,6.732
	S1151.966,209.858,1148.249,209.858z M1148.249,157.858c-3.719,0-6.729-3.014-6.729-6.732s3.015-6.732,6.729-6.732
	s6.732,3.014,6.732,6.732S1151.966,157.858,1148.249,157.858z M1148.249,105.858c-3.719,0-6.729-3.014-6.729-6.732
	s3.015-6.732,6.729-6.732s6.732,3.014,6.732,6.732S1151.966,105.858,1148.249,105.858z M1148.249,53.858
	c-3.719,0-6.729-3.014-6.729-6.732s3.015-6.732,6.729-6.732s6.732,3.014,6.732,6.732S1151.966,53.858,1148.249,53.858z
	 M1204.819,261.858c-3.721,0-6.732-3.014-6.732-6.732s3.016-6.732,6.732-6.732c3.716,0,6.73,3.014,6.73,6.732
	S1208.538,261.858,1204.819,261.858z M1204.819,209.858c-3.721,0-6.732-3.014-6.732-6.732s3.016-6.732,6.732-6.732
	c3.716,0,6.73,3.014,6.73,6.732S1208.538,209.858,1204.819,209.858z M1204.819,157.858c-3.721,0-6.732-3.014-6.732-6.732
	s3.016-6.732,6.732-6.732c3.716,0,6.73,3.014,6.73,6.732S1208.538,157.858,1204.819,157.858z M1204.819,105.858
	c-3.721,0-6.732-3.014-6.732-6.732s3.016-6.732,6.732-6.732c3.716,0,6.73,3.014,6.73,6.732S1208.538,105.858,1204.819,105.858z
	 M1204.819,53.858c-3.721,0-6.732-3.014-6.732-6.732s3.016-6.732,6.732-6.732c3.716,0,6.73,3.014,6.73,6.732
	S1208.538,53.858,1204.819,53.858z M1261.389,105.858c-3.721,0-6.73-3.014-6.73-6.732s3.014-6.732,6.73-6.732
	c3.72,0,6.73,3.014,6.73,6.732S1265.108,105.858,1261.389,105.858z M1261.389,53.858c-3.721,0-6.73-3.014-6.73-6.732
	s3.014-6.732,6.73-6.732c3.72,0,6.73,3.014,6.73,6.732S1265.108,53.858,1261.389,53.858z"/>
</svg>
