<?xml version="1.0" encoding="utf-8"?>
<!-- Generator: Adobe Illustrator 16.0.0, SVG Export Plug-In . SVG Version: 6.00 Build 0)  -->
<!DOCTYPE svg PUBLIC "-//W3C//DTD SVG 1.1//EN" "http://www.w3.org/Graphics/SVG/1.1/DTD/svg11.dtd">
<svg version="1.1" id="Layer_1" xmlns="http://www.w3.org/2000/svg" xmlns:xlink="http://www.w3.org/1999/xlink" x="0px" y="0px"
	 width="1304.053px" height="757.92px" viewBox="0 0 1304.053 757.92" enable-background="new 0 0 1304.053 757.92"
	 xml:space="preserve">
<path fill="none" stroke="#000000" stroke-linejoin="round" stroke-miterlimit="10" d="M1237.252,632.34
	c-137.969-131.009-260.074-271.9-359.828-426.719l-53.887-69.29c-28.631-41.198-70.541-74.52-147.607-85.923L15.528,0.089
	C10.701,0.707-3.2-3.528,0.673,12.074c73.043,202.459,152.14,408.581,234.881,606.442c3.992,10.401,17.364,12.857,29.464,11.848
	c101.695-20.241,245.048,7.903,337.917,25.226c164.503,34.213,320.512,68.219,454.186,100.052
	c13.883,4.577,24.221,1.904,32.567-4.839c52.438-36.667,101.948-69.301,150.612-106.333
	C1243.037,639.431,1241.584,635.816,1237.252,632.34z M55.47,115.626c-3.719,0-6.732-3.014-6.732-6.732
	c0-3.718,3.014-6.732,6.732-6.732c3.718,0,6.732,3.014,6.732,6.732C62.202,112.612,59.189,115.626,55.47,115.626z M55.47,63.626
	c-3.719,0-6.732-3.014-6.732-6.732c0-3.718,3.014-6.732,6.732-6.732c3.718,0,6.732,3.014,6.732,6.732
	C62.202,60.612,59.189,63.626,55.47,63.626z M112.041,271.626c-3.719,0-6.732-3.014-6.732-6.732c0-3.718,3.014-6.732,6.732-6.732
	s6.732,3.014,6.732,6.732C118.773,268.612,115.759,271.626,112.041,271.626z M112.041,219.626c-3.719,0-6.732-3.014-6.732-6.732
	c0-3.718,3.014-6.732,6.732-6.732s6.732,3.014,6.732,6.732C118.773,216.612,115.759,219.626,112.041,219.626z M112.041,167.626
	c-3.719,0-6.732-3.014-6.732-6.732c0-3.718,3.014-6.732,6.732-6.732s6.732,3.014,6.732,6.732
	C118.773,164.612,115.759,167.626,112.041,167.626z M112.041,115.626c-3.719,0-6.732-3.014-6.732-6.732
	c0-3.718,3.014-6.732,6.732-6.732s6.732,3.014,6.732,6.732C118.773,112.612,115.759,115.626,112.041,115.626z M112.041,63.626
	c-3.719,0-6.732-3.014-6.732-6.732c0-3.718,3.014-6.732,6.732-6.732s6.732,3.014,6.732,6.732
	C118.773,60.612,115.759,63.626,112.041,63.626z M168.611,375.626c-3.719,0-6.732-3.014-6.732-6.732
	c0-3.718,3.014-6.732,6.732-6.732c3.718,0,6.732,3.014,6.732,6.732C175.343,372.612,172.33,375.626,168.611,375.626z
	 M168.611,323.626c-3.719,0-6.732-3.014-6.732-6.732c0-3.718,3.014-6.732,6.732-6.732c3.718,0,6.732,3.014,6.732,6.732
	C175.343,320.612,172.33,323.626,168.611,323.626z M168.611,271.626c-3.719,0-6.732-3.014-6.732-6.732
	c0-3.718,3.014-6.732,6.732-6.732c3.718,0,6.732,3.014,6.732,6.732C175.343,268.612,172.33,271.626,168.611,271.626z
	 M168.611,219.626c-3.719,0-6.732-3.014-6.732-6.732c0-3.718,3.014-6.732,6.732-6.732c3.718,0,6.732,3.014,6.732,6.732
	C175.343,216.612,172.33,219.626,168.611,219.626z M168.611,167.626c-3.719,0-6.732-3.014-6.732-6.732
	c0-3.718,3.014-6.732,6.732-6.732c3.718,0,6.732,3.014,6.732,6.732C175.343,164.612,172.33,167.626,168.611,167.626z
	 M168.611,115.626c-3.719,0-6.732-3.014-6.732-6.732c0-3.718,3.014-6.732,6.732-6.732c3.718,0,6.732,3.014,6.732,6.732
	C175.343,112.612,172.33,115.626,168.611,115.626z M168.611,63.626c-3.719,0-6.732-3.014-6.732-6.732
	c0-3.718,3.014-6.732,6.732-6.732c3.718,0,6.732,3.014,6.732,6.732C175.343,60.612,172.33,63.626,168.611,63.626z M225.181,531.626
	c-3.719,0-6.732-3.015-6.732-6.732c0-3.717,3.014-6.729,6.732-6.729c3.718,0,6.732,3.015,6.732,6.729
	C231.913,528.612,228.9,531.626,225.181,531.626z M225.181,479.626c-3.719,0-6.732-3.015-6.732-6.731
	c0-3.718,3.014-6.729,6.732-6.729c3.718,0,6.732,3.015,6.732,6.729C231.913,476.612,228.9,479.626,225.181,479.626z
	 M225.181,427.626c-3.719,0-6.732-3.014-6.732-6.732c0-3.718,3.014-6.729,6.732-6.729c3.718,0,6.732,3.014,6.732,6.729
	C231.913,424.613,228.9,427.626,225.181,427.626z M225.181,375.626c-3.719,0-6.732-3.014-6.732-6.732
	c0-3.718,3.014-6.732,6.732-6.732c3.718,0,6.732,3.014,6.732,6.732C231.913,372.612,228.9,375.626,225.181,375.626z
	 M225.181,323.626c-3.719,0-6.732-3.014-6.732-6.732c0-3.718,3.014-6.732,6.732-6.732c3.718,0,6.732,3.014,6.732,6.732
	C231.913,320.612,228.9,323.626,225.181,323.626z M225.181,271.626c-3.719,0-6.732-3.014-6.732-6.732
	c0-3.718,3.014-6.732,6.732-6.732c3.718,0,6.732,3.014,6.732,6.732C231.913,268.612,228.9,271.626,225.181,271.626z
	 M225.181,219.626c-3.719,0-6.732-3.014-6.732-6.732c0-3.718,3.014-6.732,6.732-6.732c3.718,0,6.732,3.014,6.732,6.732
	C231.913,216.612,228.9,219.626,225.181,219.626z M225.181,167.626c-3.719,0-6.732-3.014-6.732-6.732
	c0-3.718,3.014-6.732,6.732-6.732c3.718,0,6.732,3.014,6.732,6.732C231.913,164.612,228.9,167.626,225.181,167.626z
	 M225.181,115.626c-3.719,0-6.732-3.014-6.732-6.732c0-3.718,3.014-6.732,6.732-6.732c3.718,0,6.732,3.014,6.732,6.732
	C231.913,112.612,228.9,115.626,225.181,115.626z M225.181,63.626c-3.719,0-6.732-3.014-6.732-6.732
	c0-3.718,3.014-6.732,6.732-6.732c3.718,0,6.732,3.014,6.732,6.732C231.913,60.612,228.9,63.626,225.181,63.626z M281.751,583.626
	c-3.719,0-6.732-3.015-6.732-6.732c0-3.717,3.014-6.729,6.732-6.729s6.732,3.015,6.732,6.729
	C288.483,580.612,285.47,583.626,281.751,583.626z M281.751,531.626c-3.719,0-6.732-3.015-6.732-6.732
	c0-3.717,3.014-6.729,6.732-6.729s6.732,3.015,6.732,6.729C288.483,528.612,285.47,531.626,281.751,531.626z M281.751,479.626
	c-3.719,0-6.732-3.015-6.732-6.731c0-3.718,3.014-6.729,6.732-6.729s6.732,3.015,6.732,6.729
	C288.483,476.612,285.47,479.626,281.751,479.626z M281.751,427.626c-3.719,0-6.732-3.014-6.732-6.732
	c0-3.718,3.014-6.729,6.732-6.729s6.732,3.014,6.732,6.729C288.483,424.613,285.47,427.626,281.751,427.626z M281.751,375.626
	c-3.719,0-6.732-3.014-6.732-6.732c0-3.718,3.014-6.732,6.732-6.732s6.732,3.014,6.732,6.732
	C288.483,372.612,285.47,375.626,281.751,375.626z M281.751,323.626c-3.719,0-6.732-3.014-6.732-6.732
	c0-3.718,3.014-6.732,6.732-6.732s6.732,3.014,6.732,6.732C288.483,320.612,285.47,323.626,281.751,323.626z M281.751,271.626
	c-3.719,0-6.732-3.014-6.732-6.732c0-3.718,3.014-6.732,6.732-6.732s6.732,3.014,6.732,6.732
	C288.483,268.612,285.47,271.626,281.751,271.626z M281.751,219.626c-3.719,0-6.732-3.014-6.732-6.732
	c0-3.718,3.014-6.732,6.732-6.732s6.732,3.014,6.732,6.732C288.483,216.612,285.47,219.626,281.751,219.626z M281.751,167.626
	c-3.719,0-6.732-3.014-6.732-6.732c0-3.718,3.014-6.732,6.732-6.732s6.732,3.014,6.732,6.732
	C288.483,164.612,285.47,167.626,281.751,167.626z M281.751,115.626c-3.719,0-6.732-3.014-6.732-6.732
	c0-3.718,3.014-6.732,6.732-6.732s6.732,3.014,6.732,6.732C288.483,112.612,285.47,115.626,281.751,115.626z M281.751,63.626
	c-3.719,0-6.732-3.014-6.732-6.732c0-3.718,3.014-6.732,6.732-6.732s6.732,3.014,6.732,6.732
	C288.483,60.612,285.47,63.626,281.751,63.626z M338.322,583.626c-3.723,0-6.732-3.015-6.732-6.732c0-3.717,3.014-6.729,6.732-6.729
	c3.718,0,6.729,3.015,6.729,6.729C345.054,580.612,342.041,583.626,338.322,583.626z M338.322,531.626
	c-3.723,0-6.732-3.015-6.732-6.732c0-3.717,3.014-6.729,6.732-6.729c3.718,0,6.729,3.015,6.729,6.729
	C345.054,528.612,342.041,531.626,338.322,531.626z M338.322,479.626c-3.723,0-6.732-3.015-6.732-6.731
	c0-3.718,3.014-6.729,6.732-6.729c3.718,0,6.729,3.015,6.729,6.729C345.054,476.612,342.041,479.626,338.322,479.626z
	 M338.322,427.626c-3.723,0-6.732-3.014-6.732-6.732c0-3.718,3.014-6.729,6.732-6.729c3.718,0,6.729,3.014,6.729,6.729
	C345.054,424.613,342.041,427.626,338.322,427.626z M338.322,375.626c-3.723,0-6.732-3.014-6.732-6.732
	c0-3.718,3.014-6.732,6.732-6.732c3.718,0,6.729,3.014,6.729,6.732C345.052,372.612,342.041,375.626,338.322,375.626z
	 M338.322,323.626c-3.723,0-6.732-3.014-6.732-6.732c0-3.718,3.014-6.732,6.732-6.732c3.718,0,6.729,3.014,6.729,6.732
	C345.052,320.612,342.041,323.626,338.322,323.626z M338.322,271.626c-3.723,0-6.732-3.014-6.732-6.732
	c0-3.718,3.014-6.732,6.732-6.732c3.718,0,6.729,3.014,6.729,6.732C345.052,268.612,342.041,271.626,338.322,271.626z
	 M338.322,219.626c-3.723,0-6.732-3.014-6.732-6.732c0-3.718,3.014-6.732,6.732-6.732c3.718,0,6.729,3.014,6.729,6.732
	C345.054,216.612,342.041,219.626,338.322,219.626z M338.322,167.626c-3.723,0-6.732-3.014-6.732-6.732
	c0-3.718,3.014-6.732,6.732-6.732c3.718,0,6.729,3.014,6.729,6.732C345.054,164.612,342.041,167.626,338.322,167.626z
	 M338.322,115.626c-3.723,0-6.732-3.014-6.732-6.732c0-3.718,3.014-6.732,6.732-6.732c3.718,0,6.729,3.014,6.729,6.732
	C345.054,112.612,342.041,115.626,338.322,115.626z M338.322,63.626c-3.723,0-6.732-3.014-6.732-6.732
	c0-3.718,3.014-6.732,6.732-6.732c3.718,0,6.729,3.014,6.729,6.732C345.054,60.612,342.041,63.626,338.322,63.626z M394.892,583.626
	c-3.719,0-6.729-3.015-6.729-6.732c0-3.717,3.014-6.729,6.729-6.729c3.722,0,6.732,3.015,6.732,6.729
	C401.624,580.612,398.611,583.626,394.892,583.626z M394.892,531.626c-3.719,0-6.729-3.015-6.729-6.732
	c0-3.717,3.014-6.729,6.729-6.729c3.722,0,6.732,3.015,6.732,6.729C401.624,528.612,398.611,531.626,394.892,531.626z
	 M394.892,479.626c-3.719,0-6.729-3.015-6.729-6.731c0-3.718,3.014-6.729,6.729-6.729c3.722,0,6.732,3.015,6.732,6.729
	C401.624,476.612,398.611,479.626,394.892,479.626z M394.892,427.626c-3.719,0-6.729-3.014-6.729-6.732
	c0-3.718,3.014-6.729,6.729-6.729c3.722,0,6.732,3.014,6.732,6.729C401.624,424.613,398.611,427.626,394.892,427.626z
	 M394.892,375.626c-3.719,0-6.729-3.014-6.729-6.732c0-3.718,3.014-6.732,6.729-6.732c3.722,0,6.732,3.014,6.732,6.732
	C401.624,372.612,398.611,375.626,394.892,375.626z M394.892,323.626c-3.719,0-6.729-3.014-6.729-6.732
	c0-3.718,3.014-6.732,6.729-6.732c3.722,0,6.732,3.014,6.732,6.732C401.624,320.612,398.611,323.626,394.892,323.626z
	 M394.892,271.626c-3.719,0-6.729-3.014-6.729-6.732c0-3.718,3.014-6.732,6.729-6.732c3.722,0,6.732,3.014,6.732,6.732
	C401.624,268.612,398.611,271.626,394.892,271.626z M394.892,219.626c-3.719,0-6.729-3.014-6.729-6.732
	c0-3.718,3.014-6.732,6.729-6.732c3.722,0,6.732,3.014,6.732,6.732C401.624,216.612,398.611,219.626,394.892,219.626z
	 M394.892,167.626c-3.719,0-6.729-3.014-6.729-6.732c0-3.718,3.014-6.732,6.729-6.732c3.722,0,6.732,3.014,6.732,6.732
	C401.624,164.612,398.611,167.626,394.892,167.626z M394.892,115.626c-3.719,0-6.729-3.014-6.729-6.732
	c0-3.718,3.014-6.732,6.729-6.732c3.722,0,6.732,3.014,6.732,6.732C401.624,112.612,398.611,115.626,394.892,115.626z
	 M394.892,63.626c-3.719,0-6.729-3.014-6.729-6.732c0-3.718,3.014-6.732,6.729-6.732c3.722,0,6.732,3.014,6.732,6.732
	C401.624,60.612,398.611,63.626,394.892,63.626z M451.462,583.626c-3.719,0-6.729-3.015-6.729-6.732
	c0-3.717,3.014-6.729,6.729-6.729s6.732,3.015,6.732,6.729C458.194,580.612,455.181,583.626,451.462,583.626z M451.462,531.626
	c-3.719,0-6.729-3.015-6.729-6.732c0-3.717,3.014-6.729,6.729-6.729s6.732,3.015,6.732,6.729
	C458.194,528.612,455.181,531.626,451.462,531.626z M451.462,479.626c-3.719,0-6.729-3.015-6.729-6.731
	c0-3.718,3.014-6.729,6.729-6.729s6.732,3.015,6.732,6.729C458.194,476.612,455.181,479.626,451.462,479.626z M451.462,427.626
	c-3.719,0-6.729-3.014-6.729-6.732c0-3.718,3.014-6.729,6.729-6.729s6.732,3.014,6.732,6.729
	C458.194,424.613,455.181,427.626,451.462,427.626z M451.462,375.626c-3.719,0-6.729-3.014-6.729-6.732
	c0-3.718,3.014-6.732,6.729-6.732s6.732,3.014,6.732,6.732C458.194,372.612,455.181,375.626,451.462,375.626z M451.462,323.626
	c-3.719,0-6.729-3.014-6.729-6.732c0-3.718,3.014-6.732,6.729-6.732s6.732,3.014,6.732,6.732
	C458.194,320.612,455.181,323.626,451.462,323.626z M451.462,271.626c-3.719,0-6.729-3.014-6.729-6.732
	c0-3.718,3.014-6.732,6.729-6.732s6.732,3.014,6.732,6.732C458.194,268.612,455.181,271.626,451.462,271.626z M451.462,219.626
	c-3.719,0-6.729-3.014-6.729-6.732c0-3.718,3.014-6.732,6.729-6.732s6.732,3.014,6.732,6.732
	C458.194,216.612,455.181,219.626,451.462,219.626z M451.462,167.626c-3.719,0-6.729-3.014-6.729-6.732
	c0-3.718,3.014-6.732,6.729-6.732s6.732,3.014,6.732,6.732C458.194,164.612,455.181,167.626,451.462,167.626z M451.462,115.626
	c-3.719,0-6.729-3.014-6.729-6.732c0-3.718,3.014-6.732,6.729-6.732s6.732,3.014,6.732,6.732
	C458.194,112.612,455.181,115.626,451.462,115.626z M451.462,63.626c-3.719,0-6.729-3.014-6.729-6.732
	c0-3.718,3.014-6.732,6.729-6.732s6.732,3.014,6.732,6.732C458.194,60.612,455.181,63.626,451.462,63.626z M508.033,583.626
	c-3.719,0-6.732-3.015-6.732-6.732c0-3.717,3.018-6.729,6.732-6.729s6.729,3.015,6.729,6.729
	C514.765,580.612,511.751,583.626,508.033,583.626z M508.033,531.626c-3.719,0-6.732-3.015-6.732-6.732
	c0-3.717,3.018-6.729,6.732-6.729s6.729,3.015,6.729,6.729C514.765,528.612,511.751,531.626,508.033,531.626z M508.033,479.626
	c-3.719,0-6.732-3.015-6.732-6.731c0-3.718,3.018-6.729,6.732-6.729s6.729,3.015,6.729,6.729
	C514.765,476.612,511.751,479.626,508.033,479.626z M508.033,427.626c-3.719,0-6.732-3.014-6.732-6.732
	c0-3.718,3.018-6.729,6.732-6.729s6.729,3.014,6.729,6.729C514.765,424.613,511.751,427.626,508.033,427.626z M508.033,375.626
	c-3.719,0-6.732-3.014-6.732-6.732c0-3.718,3.018-6.732,6.732-6.732s6.729,3.014,6.729,6.732
	C514.763,372.612,511.751,375.626,508.033,375.626z M508.033,323.626c-3.719,0-6.732-3.014-6.732-6.732
	c0-3.718,3.018-6.732,6.732-6.732s6.729,3.014,6.729,6.732C514.763,320.612,511.751,323.626,508.033,323.626z M508.033,271.626
	c-3.719,0-6.732-3.014-6.732-6.732c0-3.718,3.018-6.732,6.732-6.732s6.729,3.014,6.729,6.732
	C514.763,268.612,511.751,271.626,508.033,271.626z M508.033,219.626c-3.719,0-6.732-3.014-6.732-6.732
	c0-3.718,3.018-6.732,6.732-6.732s6.729,3.014,6.729,6.732C514.765,216.612,511.751,219.626,508.033,219.626z M508.033,167.626
	c-3.719,0-6.732-3.014-6.732-6.732c0-3.718,3.018-6.732,6.732-6.732s6.729,3.014,6.729,6.732
	C514.765,164.612,511.751,167.626,508.033,167.626z M508.033,115.626c-3.719,0-6.732-3.014-6.732-6.732
	c0-3.718,3.018-6.732,6.732-6.732s6.729,3.014,6.729,6.732C514.765,112.612,511.751,115.626,508.033,115.626z M508.033,63.626
	c-3.719,0-6.732-3.014-6.732-6.732c0-3.718,3.018-6.732,6.732-6.732s6.729,3.014,6.729,6.732
	C514.765,60.612,511.751,63.626,508.033,63.626z M564.604,635.626c-3.72,0-6.729-3.015-6.729-6.732c0-3.717,3.014-6.729,6.729-6.729
	c3.721,0,6.731,3.015,6.731,6.729C571.335,632.612,568.322,635.626,564.604,635.626z M564.604,583.626
	c-3.72,0-6.729-3.015-6.729-6.732c0-3.717,3.014-6.729,6.729-6.729c3.721,0,6.731,3.015,6.731,6.729
	C571.335,580.612,568.322,583.626,564.604,583.626z M564.604,531.626c-3.72,0-6.729-3.015-6.729-6.732
	c0-3.717,3.014-6.729,6.729-6.729c3.721,0,6.731,3.015,6.731,6.729C571.335,528.612,568.322,531.626,564.604,531.626z
	 M564.604,479.626c-3.72,0-6.729-3.015-6.729-6.731c0-3.718,3.014-6.729,6.729-6.729c3.721,0,6.731,3.015,6.731,6.729
	C571.335,476.612,568.322,479.626,564.604,479.626z M564.604,427.626c-3.72,0-6.729-3.014-6.729-6.732
	c0-3.718,3.014-6.729,6.729-6.729c3.721,0,6.731,3.014,6.731,6.729C571.335,424.613,568.322,427.626,564.604,427.626z
	 M564.604,375.626c-3.72,0-6.729-3.014-6.729-6.732c0-3.718,3.014-6.732,6.729-6.732c3.721,0,6.731,3.014,6.731,6.732
	C571.335,372.612,568.322,375.626,564.604,375.626z M564.604,323.626c-3.72,0-6.729-3.014-6.729-6.732
	c0-3.718,3.014-6.732,6.729-6.732c3.721,0,6.731,3.014,6.731,6.732C571.335,320.612,568.322,323.626,564.604,323.626z
	 M564.604,271.626c-3.72,0-6.729-3.014-6.729-6.732c0-3.718,3.014-6.732,6.729-6.732c3.721,0,6.731,3.014,6.731,6.732
	C571.335,268.612,568.322,271.626,564.604,271.626z M564.604,219.626c-3.72,0-6.729-3.014-6.729-6.732
	c0-3.718,3.014-6.732,6.729-6.732c3.721,0,6.731,3.014,6.731,6.732C571.335,216.612,568.322,219.626,564.604,219.626z
	 M564.604,167.626c-3.72,0-6.729-3.014-6.729-6.732c0-3.718,3.014-6.732,6.729-6.732c3.721,0,6.731,3.014,6.731,6.732
	C571.335,164.612,568.322,167.626,564.604,167.626z M564.604,115.626c-3.72,0-6.729-3.014-6.729-6.732
	c0-3.718,3.014-6.732,6.729-6.732c3.721,0,6.731,3.014,6.731,6.732C571.335,112.612,568.322,115.626,564.604,115.626z
	 M621.174,635.626c-3.719,0-6.729-3.015-6.729-6.732c0-3.717,3.014-6.729,6.729-6.729s6.732,3.015,6.732,6.729
	C627.906,632.612,624.893,635.626,621.174,635.626z M621.174,583.626c-3.719,0-6.729-3.015-6.729-6.732
	c0-3.717,3.014-6.729,6.729-6.729s6.732,3.015,6.732,6.729C627.906,580.612,624.893,583.626,621.174,583.626z M621.174,531.626
	c-3.719,0-6.729-3.015-6.729-6.732c0-3.717,3.014-6.729,6.729-6.729s6.732,3.015,6.732,6.729
	C627.906,528.612,624.893,531.626,621.174,531.626z M621.174,479.626c-3.719,0-6.729-3.015-6.729-6.731
	c0-3.718,3.014-6.729,6.729-6.729s6.732,3.015,6.732,6.729C627.906,476.612,624.893,479.626,621.174,479.626z M621.174,427.626
	c-3.719,0-6.729-3.014-6.729-6.732c0-3.718,3.014-6.729,6.729-6.729s6.732,3.014,6.732,6.729
	C627.906,424.613,624.893,427.626,621.174,427.626z M621.174,375.626c-3.719,0-6.729-3.014-6.729-6.732
	c0-3.718,3.014-6.732,6.729-6.732s6.732,3.014,6.732,6.732C627.906,372.612,624.893,375.626,621.174,375.626z M621.174,323.626
	c-3.719,0-6.729-3.014-6.729-6.732c0-3.718,3.014-6.732,6.729-6.732s6.732,3.014,6.732,6.732
	C627.906,320.612,624.893,323.626,621.174,323.626z M621.174,271.626c-3.719,0-6.729-3.014-6.729-6.732
	c0-3.718,3.014-6.732,6.729-6.732s6.732,3.014,6.732,6.732C627.906,268.612,624.893,271.626,621.174,271.626z M621.174,219.626
	c-3.719,0-6.729-3.014-6.729-6.732c0-3.718,3.014-6.732,6.729-6.732s6.732,3.014,6.732,6.732
	C627.906,216.612,624.893,219.626,621.174,219.626z M621.174,167.626c-3.719,0-6.729-3.014-6.729-6.732
	c0-3.718,3.014-6.732,6.729-6.732s6.732,3.014,6.732,6.732C627.906,164.612,624.893,167.626,621.174,167.626z M621.174,115.626
	c-3.719,0-6.729-3.014-6.729-6.732c0-3.718,3.014-6.732,6.729-6.732s6.732,3.014,6.732,6.732
	C627.906,112.612,624.893,115.626,621.174,115.626z M677.744,635.626c-3.719,0-6.732-3.015-6.732-6.732
	c0-3.717,3.018-6.729,6.732-6.729s6.729,3.015,6.729,6.729C684.476,632.612,681.463,635.626,677.744,635.626z M677.744,583.626
	c-3.719,0-6.732-3.015-6.732-6.732c0-3.717,3.018-6.729,6.732-6.729s6.729,3.015,6.729,6.729
	C684.476,580.612,681.463,583.626,677.744,583.626z M677.744,531.626c-3.719,0-6.732-3.015-6.732-6.732
	c0-3.717,3.018-6.729,6.732-6.729s6.729,3.015,6.729,6.729C684.476,528.612,681.463,531.626,677.744,531.626z M677.744,479.626
	c-3.719,0-6.732-3.015-6.732-6.731c0-3.718,3.018-6.729,6.732-6.729s6.729,3.015,6.729,6.729
	C684.476,476.612,681.463,479.626,677.744,479.626z M677.744,427.626c-3.719,0-6.732-3.014-6.732-6.732
	c0-3.718,3.018-6.729,6.732-6.729s6.729,3.014,6.729,6.729C684.476,424.613,681.463,427.626,677.744,427.626z M677.744,375.626
	c-3.719,0-6.732-3.014-6.732-6.732c0-3.718,3.018-6.732,6.732-6.732s6.729,3.014,6.729,6.732
	C684.474,372.612,681.463,375.626,677.744,375.626z M677.744,323.626c-3.719,0-6.732-3.014-6.732-6.732
	c0-3.718,3.018-6.732,6.732-6.732s6.729,3.014,6.729,6.732C684.474,320.612,681.463,323.626,677.744,323.626z M677.744,271.626
	c-3.719,0-6.732-3.014-6.732-6.732c0-3.718,3.018-6.732,6.732-6.732s6.729,3.014,6.729,6.732
	C684.474,268.612,681.463,271.626,677.744,271.626z M677.744,219.626c-3.719,0-6.732-3.014-6.732-6.732
	c0-3.718,3.018-6.732,6.732-6.732s6.729,3.014,6.729,6.732C684.476,216.612,681.463,219.626,677.744,219.626z M677.744,167.626
	c-3.719,0-6.732-3.014-6.732-6.732c0-3.718,3.018-6.732,6.732-6.732s6.729,3.014,6.729,6.732
	C684.476,164.612,681.463,167.626,677.744,167.626z M677.744,115.626c-3.719,0-6.732-3.014-6.732-6.732
	c0-3.718,3.018-6.732,6.732-6.732s6.729,3.014,6.729,6.732C684.476,112.612,681.463,115.626,677.744,115.626z M734.314,635.626
	c-3.723,0-6.732-3.015-6.732-6.732c0-3.717,3.014-6.729,6.732-6.729c3.718,0,6.729,3.015,6.729,6.729
	C741.046,632.612,738.033,635.626,734.314,635.626z M734.314,583.626c-3.723,0-6.732-3.015-6.732-6.732
	c0-3.717,3.014-6.729,6.732-6.729c3.718,0,6.729,3.015,6.729,6.729C741.046,580.612,738.033,583.626,734.314,583.626z
	 M734.314,531.626c-3.723,0-6.732-3.015-6.732-6.732c0-3.717,3.014-6.729,6.732-6.729c3.718,0,6.729,3.015,6.729,6.729
	C741.046,528.612,738.033,531.626,734.314,531.626z M734.314,479.626c-3.723,0-6.732-3.015-6.732-6.731
	c0-3.718,3.014-6.729,6.732-6.729c3.718,0,6.729,3.015,6.729,6.729C741.046,476.612,738.033,479.626,734.314,479.626z
	 M734.314,427.626c-3.723,0-6.732-3.014-6.732-6.732c0-3.718,3.014-6.729,6.732-6.729c3.718,0,6.729,3.014,6.729,6.729
	C741.046,424.613,738.033,427.626,734.314,427.626z M734.314,375.626c-3.723,0-6.732-3.014-6.732-6.732
	c0-3.718,3.014-6.732,6.732-6.732c3.718,0,6.729,3.014,6.729,6.732C741.044,372.612,738.033,375.626,734.314,375.626z
	 M734.314,323.626c-3.723,0-6.732-3.014-6.732-6.732c0-3.718,3.014-6.732,6.732-6.732c3.718,0,6.729,3.014,6.729,6.732
	C741.044,320.612,738.033,323.626,734.314,323.626z M734.314,271.626c-3.723,0-6.732-3.014-6.732-6.732
	c0-3.718,3.014-6.732,6.732-6.732c3.718,0,6.729,3.014,6.729,6.732C741.044,268.612,738.033,271.626,734.314,271.626z
	 M734.314,219.626c-3.723,0-6.732-3.014-6.732-6.732c0-3.718,3.014-6.732,6.732-6.732c3.718,0,6.729,3.014,6.729,6.732
	C741.046,216.612,738.033,219.626,734.314,219.626z M734.314,167.626c-3.723,0-6.732-3.014-6.732-6.732
	c0-3.718,3.014-6.732,6.732-6.732c3.718,0,6.729,3.014,6.729,6.732C741.046,164.612,738.033,167.626,734.314,167.626z
	 M734.314,115.626c-3.723,0-6.732-3.014-6.732-6.732c0-3.718,3.014-6.732,6.732-6.732c3.718,0,6.729,3.014,6.729,6.732
	C741.046,112.612,738.033,115.626,734.314,115.626z M790.885,635.626c-3.719,0-6.729-3.015-6.729-6.732
	c0-3.717,3.014-6.729,6.729-6.729c3.719,0,6.732,3.015,6.732,6.729C797.617,632.612,794.604,635.626,790.885,635.626z
	 M790.885,583.626c-3.719,0-6.729-3.015-6.729-6.732c0-3.717,3.014-6.729,6.729-6.729c3.719,0,6.732,3.015,6.732,6.729
	C797.617,580.612,794.604,583.626,790.885,583.626z M790.885,531.626c-3.719,0-6.729-3.015-6.729-6.732
	c0-3.717,3.014-6.729,6.729-6.729c3.719,0,6.732,3.015,6.732,6.729C797.617,528.612,794.604,531.626,790.885,531.626z
	 M790.885,479.626c-3.719,0-6.729-3.015-6.729-6.731c0-3.718,3.014-6.729,6.729-6.729c3.719,0,6.732,3.015,6.732,6.729
	C797.617,476.612,794.604,479.626,790.885,479.626z M790.885,427.626c-3.719,0-6.729-3.014-6.729-6.732
	c0-3.718,3.014-6.729,6.729-6.729c3.719,0,6.732,3.014,6.732,6.729C797.617,424.613,794.604,427.626,790.885,427.626z
	 M790.885,375.626c-3.719,0-6.729-3.014-6.729-6.732c0-3.718,3.014-6.732,6.729-6.732c3.719,0,6.732,3.014,6.732,6.732
	C797.617,372.612,794.604,375.626,790.885,375.626z M790.885,323.626c-3.719,0-6.729-3.014-6.729-6.732
	c0-3.718,3.014-6.732,6.729-6.732c3.719,0,6.732,3.014,6.732,6.732C797.617,320.612,794.604,323.626,790.885,323.626z
	 M790.885,271.626c-3.719,0-6.729-3.014-6.729-6.732c0-3.718,3.014-6.732,6.729-6.732c3.719,0,6.732,3.014,6.732,6.732
	C797.617,268.612,794.604,271.626,790.885,271.626z M790.885,219.626c-3.719,0-6.729-3.014-6.729-6.732
	c0-3.718,3.014-6.732,6.729-6.732c3.719,0,6.732,3.014,6.732,6.732C797.617,216.612,794.604,219.626,790.885,219.626z
	 M790.885,167.626c-3.719,0-6.729-3.014-6.729-6.732c0-3.718,3.014-6.732,6.729-6.732c3.719,0,6.732,3.014,6.732,6.732
	C797.617,164.612,794.604,167.626,790.885,167.626z M847.455,687.626c-3.719,0-6.732-3.015-6.732-6.732
	c0-3.717,3.018-6.729,6.732-6.729s6.732,3.015,6.732,6.729C854.188,684.612,851.174,687.626,847.455,687.626z M847.455,635.626
	c-3.719,0-6.732-3.015-6.732-6.732c0-3.717,3.018-6.729,6.732-6.729s6.732,3.015,6.732,6.729
	C854.188,632.612,851.174,635.626,847.455,635.626z M847.455,583.626c-3.719,0-6.732-3.015-6.732-6.732
	c0-3.717,3.018-6.729,6.732-6.729s6.732,3.015,6.732,6.729C854.188,580.612,851.174,583.626,847.455,583.626z M847.455,531.626
	c-3.719,0-6.732-3.015-6.732-6.732c0-3.717,3.018-6.729,6.732-6.729s6.732,3.015,6.732,6.729
	C854.188,528.612,851.174,531.626,847.455,531.626z M847.455,479.626c-3.719,0-6.732-3.015-6.732-6.731
	c0-3.718,3.018-6.729,6.732-6.729s6.732,3.015,6.732,6.729C854.188,476.612,851.174,479.626,847.455,479.626z M847.455,427.626
	c-3.719,0-6.732-3.014-6.732-6.732c0-3.718,3.018-6.729,6.732-6.729s6.732,3.014,6.732,6.729
	C854.188,424.613,851.174,427.626,847.455,427.626z M847.455,375.626c-3.719,0-6.732-3.014-6.732-6.732
	c0-3.718,3.018-6.732,6.732-6.732s6.732,3.014,6.732,6.732C854.188,372.612,851.174,375.626,847.455,375.626z M847.455,323.626
	c-3.719,0-6.732-3.014-6.732-6.732c0-3.718,3.018-6.732,6.732-6.732s6.732,3.014,6.732,6.732
	C854.188,320.612,851.174,323.626,847.455,323.626z M847.455,271.626c-3.719,0-6.732-3.014-6.732-6.732
	c0-3.718,3.018-6.732,6.732-6.732s6.732,3.014,6.732,6.732C854.188,268.612,851.174,271.626,847.455,271.626z M847.455,219.626
	c-3.719,0-6.732-3.014-6.732-6.732c0-3.718,3.018-6.732,6.732-6.732s6.732,3.014,6.732,6.732
	C854.188,216.612,851.174,219.626,847.455,219.626z M904.025,687.626c-3.723,0-6.732-3.015-6.732-6.732
	c0-3.717,3.014-6.729,6.732-6.729c3.718,0,6.729,3.015,6.729,6.729C910.757,684.612,907.744,687.626,904.025,687.626z
	 M904.025,635.626c-3.723,0-6.732-3.015-6.732-6.732c0-3.717,3.014-6.729,6.732-6.729c3.718,0,6.729,3.015,6.729,6.729
	C910.757,632.612,907.744,635.626,904.025,635.626z M904.025,583.626c-3.723,0-6.732-3.015-6.732-6.732
	c0-3.717,3.014-6.729,6.732-6.729c3.718,0,6.729,3.015,6.729,6.729C910.757,580.612,907.744,583.626,904.025,583.626z
	 M904.025,531.626c-3.723,0-6.732-3.015-6.732-6.732c0-3.717,3.014-6.729,6.732-6.729c3.718,0,6.729,3.015,6.729,6.729
	C910.757,528.612,907.744,531.626,904.025,531.626z M904.025,479.626c-3.723,0-6.732-3.015-6.732-6.731
	c0-3.718,3.014-6.729,6.732-6.729c3.718,0,6.729,3.015,6.729,6.729C910.757,476.612,907.744,479.626,904.025,479.626z
	 M904.025,427.626c-3.723,0-6.732-3.014-6.732-6.732c0-3.718,3.014-6.729,6.732-6.729c3.718,0,6.729,3.014,6.729,6.729
	C910.757,424.613,907.744,427.626,904.025,427.626z M904.025,375.626c-3.723,0-6.732-3.014-6.732-6.732
	c0-3.718,3.014-6.732,6.732-6.732c3.718,0,6.729,3.014,6.729,6.732C910.755,372.612,907.744,375.626,904.025,375.626z
	 M904.025,323.626c-3.723,0-6.732-3.014-6.732-6.732c0-3.718,3.014-6.732,6.732-6.732c3.718,0,6.729,3.014,6.729,6.732
	C910.755,320.612,907.744,323.626,904.025,323.626z M960.596,687.626c-3.719,0-6.729-3.015-6.729-6.732
	c0-3.717,3.014-6.729,6.729-6.729c3.722,0,6.732,3.015,6.732,6.729C967.328,684.612,964.314,687.626,960.596,687.626z
	 M960.596,635.626c-3.719,0-6.729-3.015-6.729-6.732c0-3.717,3.014-6.729,6.729-6.729c3.722,0,6.732,3.015,6.732,6.729
	C967.328,632.612,964.314,635.626,960.596,635.626z M960.596,583.626c-3.719,0-6.729-3.015-6.729-6.732
	c0-3.717,3.014-6.729,6.729-6.729c3.722,0,6.732,3.015,6.732,6.729C967.328,580.612,964.314,583.626,960.596,583.626z
	 M960.596,531.626c-3.719,0-6.729-3.015-6.729-6.732c0-3.717,3.014-6.729,6.729-6.729c3.722,0,6.732,3.015,6.732,6.729
	C967.328,528.612,964.314,531.626,960.596,531.626z M960.596,479.626c-3.719,0-6.729-3.015-6.729-6.731
	c0-3.718,3.014-6.729,6.729-6.729c3.722,0,6.732,3.015,6.732,6.729C967.328,476.612,964.314,479.626,960.596,479.626z
	 M960.596,427.626c-3.719,0-6.729-3.014-6.729-6.732c0-3.718,3.014-6.729,6.729-6.729c3.722,0,6.732,3.014,6.732,6.729
	C967.328,424.613,964.314,427.626,960.596,427.626z M960.596,375.626c-3.719,0-6.729-3.014-6.729-6.732
	c0-3.718,3.014-6.732,6.729-6.732c3.722,0,6.732,3.014,6.732,6.732C967.328,372.612,964.314,375.626,960.596,375.626z
	 M1017.166,687.626c-3.719,0-6.732-3.015-6.732-6.732c0-3.717,3.018-6.729,6.732-6.729s6.732,3.015,6.732,6.729
	C1023.898,684.612,1020.885,687.626,1017.166,687.626z M1017.166,635.626c-3.719,0-6.732-3.015-6.732-6.732
	c0-3.717,3.018-6.729,6.732-6.729s6.732,3.015,6.732,6.729C1023.898,632.612,1020.885,635.626,1017.166,635.626z M1017.166,583.626
	c-3.719,0-6.732-3.015-6.732-6.732c0-3.717,3.018-6.729,6.732-6.729s6.732,3.015,6.732,6.729
	C1023.898,580.612,1020.885,583.626,1017.166,583.626z M1017.166,531.626c-3.719,0-6.732-3.015-6.732-6.732
	c0-3.717,3.018-6.729,6.732-6.729s6.732,3.015,6.732,6.729C1023.898,528.612,1020.885,531.626,1017.166,531.626z M1017.166,479.626
	c-3.719,0-6.732-3.015-6.732-6.731c0-3.718,3.018-6.729,6.732-6.729s6.732,3.015,6.732,6.729
	C1023.898,476.612,1020.885,479.626,1017.166,479.626z M1073.736,739.626c-3.723,0-6.732-3.015-6.732-6.732
	c0-3.717,3.014-6.729,6.732-6.729c3.718,0,6.729,3.015,6.729,6.729C1080.468,736.612,1077.455,739.626,1073.736,739.626z
	 M1073.736,687.626c-3.723,0-6.732-3.015-6.732-6.732c0-3.717,3.014-6.729,6.732-6.729c3.718,0,6.729,3.015,6.729,6.729
	C1080.468,684.612,1077.455,687.626,1073.736,687.626z M1073.736,635.626c-3.723,0-6.732-3.015-6.732-6.732
	c0-3.717,3.014-6.729,6.732-6.729c3.718,0,6.729,3.015,6.729,6.729C1080.468,632.612,1077.455,635.626,1073.736,635.626z
	 M1073.736,583.626c-3.723,0-6.732-3.015-6.732-6.732c0-3.717,3.014-6.729,6.732-6.729c3.718,0,6.729,3.015,6.729,6.729
	C1080.468,580.612,1077.455,583.626,1073.736,583.626z M1073.736,531.626c-3.723,0-6.732-3.015-6.732-6.732
	c0-3.717,3.014-6.729,6.732-6.729c3.718,0,6.729,3.015,6.729,6.729C1080.468,528.612,1077.455,531.626,1073.736,531.626z
	 M1130.307,687.626c-3.719,0-6.729-3.015-6.729-6.732c0-3.717,3.014-6.729,6.729-6.729c3.722,0,6.732,3.015,6.732,6.729
	C1137.039,684.612,1134.025,687.626,1130.307,687.626z M1130.307,635.626c-3.719,0-6.729-3.015-6.729-6.732
	c0-3.717,3.014-6.729,6.729-6.729c3.722,0,6.732,3.015,6.732,6.729C1137.039,632.612,1134.025,635.626,1130.307,635.626z
	 M1130.307,583.626c-3.719,0-6.729-3.015-6.729-6.732c0-3.717,3.014-6.729,6.729-6.729c3.722,0,6.732,3.015,6.732,6.729
	C1137.039,580.612,1134.025,583.626,1130.307,583.626z M1186.877,635.626c-3.719,0-6.732-3.015-6.732-6.732
	c0-3.717,3.018-6.729,6.732-6.729s6.732,3.015,6.732,6.729C1193.609,632.612,1190.596,635.626,1186.877,635.626z"/>
</svg>
