<?xml version="1.0" encoding="utf-8"?>
<!-- Generator: Adobe Illustrator 16.0.0, SVG Export Plug-In . SVG Version: 6.00 Build 0)  -->
<!DOCTYPE svg PUBLIC "-//W3C//DTD SVG 1.1//EN" "http://www.w3.org/Graphics/SVG/1.1/DTD/svg11.dtd">
<svg version="1.1" id="Layer_1" xmlns="http://www.w3.org/2000/svg" xmlns:xlink="http://www.w3.org/1999/xlink" x="0px" y="0px"
	 width="2349.398px" height="1037.203px" viewBox="0 0 2349.398 1037.203" enable-background="new 0 0 2349.398 1037.203"
	 xml:space="preserve">
<path fill="none" stroke="#000001" stroke-linejoin="round" stroke-miterlimit="10" d="M1100.938,675.757
	c-3.721,0-6.73-3.018-6.73-6.729c0-3.72,3.018-6.732,6.73-6.732c3.721,0,6.73,3.021,6.73,6.732S1104.654,675.757,1100.938,675.757z
	 M1100.938,623.757c-3.721,0-6.73-3.018-6.73-6.729c0-3.72,3.018-6.732,6.73-6.732c3.721,0,6.73,3.021,6.73,6.732
	S1104.654,623.757,1100.938,623.757z M1157.51,727.757c-3.723,0-6.729-3.018-6.729-6.729c0-3.72,3.019-6.732,6.729-6.732
	s6.729,3.021,6.729,6.732S1161.225,727.757,1157.51,727.757z M1157.51,675.757c-3.723,0-6.729-3.018-6.729-6.729
	c0-3.72,3.019-6.732,6.729-6.732s6.729,3.021,6.729,6.732S1161.225,675.757,1157.51,675.757z M1157.51,623.757
	c-3.723,0-6.729-3.018-6.729-6.729c0-3.72,3.019-6.732,6.729-6.732s6.729,3.021,6.729,6.732S1161.225,623.757,1157.51,623.757z
	 M1157.51,571.757c-3.723,0-6.729-3.018-6.729-6.729c0-3.72,3.019-6.732,6.729-6.732s6.729,3.021,6.729,6.732
	S1161.225,571.757,1157.51,571.757z M1214.076,727.757c-3.719,0-6.729-3.018-6.729-6.729c0-3.72,3.018-6.732,6.729-6.732
	c3.716,0,6.729,3.021,6.729,6.732S1217.8,727.757,1214.076,727.757z M1214.076,675.757c-3.719,0-6.729-3.018-6.729-6.729
	c0-3.72,3.018-6.732,6.729-6.732c3.716,0,6.729,3.021,6.729,6.732S1217.8,675.757,1214.076,675.757z M1214.076,623.757
	c-3.719,0-6.729-3.018-6.729-6.729c0-3.72,3.018-6.732,6.729-6.732c3.716,0,6.729,3.021,6.729,6.732
	S1217.8,623.757,1214.076,623.757z M1214.076,571.757c-3.719,0-6.729-3.018-6.729-6.729c0-3.72,3.018-6.732,6.729-6.732
	c3.716,0,6.729,3.021,6.729,6.732S1217.8,571.757,1214.076,571.757z M1214.076,519.757c-3.719,0-6.729-3.017-6.729-6.729
	s3.018-6.732,6.729-6.732c3.716,0,6.729,3.021,6.729,6.732C1220.806,516.74,1217.8,519.757,1214.076,519.757z M1270.646,727.757
	c-3.722,0-6.731-3.018-6.731-6.729c0-3.72,3.019-6.732,6.731-6.732c3.719,0,6.729,3.021,6.729,6.732
	S1274.365,727.757,1270.646,727.757z M1270.646,675.757c-3.722,0-6.731-3.018-6.731-6.729c0-3.72,3.019-6.732,6.731-6.732
	c3.719,0,6.729,3.021,6.729,6.732S1274.365,675.757,1270.646,675.757z M1270.646,623.757c-3.722,0-6.731-3.018-6.731-6.729
	c0-3.72,3.019-6.732,6.731-6.732c3.719,0,6.729,3.021,6.729,6.732S1274.365,623.757,1270.646,623.757z M1270.646,571.757
	c-3.722,0-6.731-3.018-6.731-6.729c0-3.72,3.019-6.732,6.731-6.732c3.719,0,6.729,3.021,6.729,6.732
	S1274.365,571.757,1270.646,571.757z M1270.646,519.757c-3.722,0-6.731-3.017-6.731-6.729s3.019-6.732,6.731-6.732
	c3.719,0,6.729,3.021,6.729,6.732C1277.382,516.74,1274.365,519.757,1270.646,519.757z M1270.646,467.757
	c-3.722,0-6.731-3.017-6.731-6.729c0-3.722,3.019-6.732,6.731-6.732c3.719,0,6.729,3.017,6.729,6.732
	C1277.382,464.74,1274.365,467.757,1270.646,467.757z M1327.219,727.757c-3.721,0-6.729-3.018-6.729-6.729
	c0-3.72,3.019-6.732,6.729-6.732s6.729,3.021,6.729,6.732C1333.949,724.739,1330.938,727.757,1327.219,727.757z M1327.219,675.757
	c-3.721,0-6.729-3.018-6.729-6.729c0-3.72,3.019-6.732,6.729-6.732s6.729,3.021,6.729,6.732
	C1333.949,672.739,1330.938,675.757,1327.219,675.757z M1327.219,623.757c-3.721,0-6.729-3.018-6.729-6.729
	c0-3.72,3.019-6.732,6.729-6.732s6.729,3.021,6.729,6.732C1333.949,620.739,1330.938,623.757,1327.219,623.757z M1327.219,571.757
	c-3.721,0-6.729-3.018-6.729-6.729c0-3.72,3.019-6.732,6.729-6.732s6.729,3.021,6.729,6.732
	C1333.949,568.739,1330.938,571.757,1327.219,571.757z M1327.219,519.757c-3.721,0-6.729-3.017-6.729-6.729s3.019-6.732,6.729-6.732
	s6.729,3.021,6.729,6.732C1333.949,516.74,1330.938,519.757,1327.219,519.757z M1327.219,467.757c-3.721,0-6.729-3.017-6.729-6.729
	c0-3.722,3.019-6.732,6.729-6.732s6.729,3.017,6.729,6.732C1333.949,464.74,1330.938,467.757,1327.219,467.757z M1327.219,402.293
	c3.717,0,6.729,3.014,6.729,6.731c0,3.717-3.014,6.731-6.729,6.731c-3.719,0-6.731-3.014-6.731-6.731
	C1320.488,405.307,1323.503,402.293,1327.219,402.293z M1383.787,675.757c-3.719,0-6.729-3.018-6.729-6.729
	c0-3.72,3.018-6.732,6.729-6.732c3.716,0,6.729,3.021,6.729,6.732S1387.51,675.757,1383.787,675.757z M1383.787,623.757
	c-3.719,0-6.729-3.018-6.729-6.729c0-3.72,3.018-6.732,6.729-6.732c3.716,0,6.729,3.021,6.729,6.732
	S1387.51,623.757,1383.787,623.757z M1383.787,571.757c-3.719,0-6.729-3.018-6.729-6.729c0-3.72,3.018-6.732,6.729-6.732
	c3.716,0,6.729,3.021,6.729,6.732S1387.51,571.757,1383.787,571.757z M1383.787,519.757c-3.719,0-6.729-3.017-6.729-6.729
	s3.018-6.732,6.729-6.732c3.716,0,6.729,3.021,6.729,6.732C1390.517,516.74,1387.51,519.757,1383.787,519.757z M1383.787,467.757
	c-3.719,0-6.729-3.017-6.729-6.729c0-3.722,3.018-6.732,6.729-6.732c3.716,0,6.729,3.017,6.729,6.732
	C1390.517,464.74,1387.51,467.757,1383.787,467.757z M1383.787,415.756c-3.719,0-6.729-3.015-6.729-6.73
	c0-3.719,3.018-6.732,6.729-6.732c3.716,0,6.729,3.015,6.729,6.732C1390.517,412.741,1387.51,415.756,1383.787,415.756z
	 M1383.787,363.756c-3.719,0-6.729-3.014-6.729-6.731c0-3.719,3.018-6.732,6.729-6.732c3.716,0,6.729,3.014,6.729,6.732
	C1390.517,360.742,1387.51,363.756,1383.787,363.756z M1383.787,311.756c-3.719,0-6.729-3.014-6.729-6.732
	c0-3.718,3.018-6.732,6.729-6.732c3.716,0,6.729,3.014,6.729,6.732C1390.517,308.742,1387.51,311.756,1383.787,311.756z
	 M1440.357,675.757c-3.723,0-6.729-3.018-6.729-6.729c0-3.72,3.014-6.732,6.729-6.732s6.729,3.021,6.729,6.732
	C1447.091,672.739,1444.076,675.757,1440.357,675.757z M1440.357,623.757c-3.723,0-6.729-3.018-6.729-6.729
	c0-3.72,3.014-6.732,6.729-6.732s6.729,3.021,6.729,6.732C1447.091,620.739,1444.076,623.757,1440.357,623.757z M1440.357,571.757
	c-3.723,0-6.729-3.018-6.729-6.729c0-3.72,3.014-6.732,6.729-6.732s6.729,3.021,6.729,6.732
	C1447.091,568.739,1444.076,571.757,1440.357,571.757z M1440.357,519.757c-3.723,0-6.729-3.017-6.729-6.729s3.014-6.732,6.729-6.732
	s6.729,3.021,6.729,6.732C1447.092,516.74,1444.076,519.757,1440.357,519.757z M1440.357,467.757c-3.723,0-6.729-3.017-6.729-6.729
	c0-3.722,3.014-6.732,6.729-6.732s6.729,3.017,6.729,6.732C1447.092,464.74,1444.076,467.757,1440.357,467.757z M1440.357,415.756
	c-3.723,0-6.729-3.015-6.729-6.73c0-3.719,3.014-6.732,6.729-6.732s6.729,3.015,6.729,6.732
	C1447.092,412.741,1444.076,415.756,1440.357,415.756z M1440.357,363.756c-3.723,0-6.729-3.014-6.729-6.731
	c0-3.719,3.014-6.732,6.729-6.732s6.729,3.014,6.729,6.732C1447.092,360.742,1444.076,363.756,1440.357,363.756z M1440.357,311.756
	c-3.723,0-6.729-3.014-6.729-6.732c0-3.718,3.014-6.732,6.729-6.732s6.729,3.014,6.729,6.732
	C1447.092,308.742,1444.076,311.756,1440.357,311.756z M1440.357,259.756c-3.723,0-6.729-3.014-6.729-6.732
	c0-3.718,3.014-6.732,6.729-6.732s6.729,3.014,6.729,6.732C1447.092,256.742,1444.076,259.756,1440.357,259.756z M1496.928,675.757
	c-3.719,0-6.729-3.018-6.729-6.729c0-3.72,3.019-6.732,6.729-6.732s6.729,3.021,6.729,6.732
	C1503.66,672.739,1500.646,675.757,1496.928,675.757z M1496.928,623.757c-3.719,0-6.729-3.018-6.729-6.729
	c0-3.72,3.019-6.732,6.729-6.732s6.729,3.021,6.729,6.732C1503.66,620.739,1500.646,623.757,1496.928,623.757z M1496.928,571.757
	c-3.719,0-6.729-3.018-6.729-6.729c0-3.72,3.019-6.732,6.729-6.732s6.729,3.021,6.729,6.732
	C1503.66,568.739,1500.646,571.757,1496.928,571.757z M1496.928,519.757c-3.719,0-6.729-3.017-6.729-6.729s3.019-6.732,6.729-6.732
	s6.729,3.021,6.729,6.732C1503.66,516.74,1500.646,519.757,1496.928,519.757z M1496.928,467.757c-3.719,0-6.729-3.017-6.729-6.729
	c0-3.722,3.019-6.732,6.729-6.732s6.729,3.017,6.729,6.732C1503.66,464.74,1500.646,467.757,1496.928,467.757z M1496.928,402.293
	c3.717,0,6.729,3.014,6.729,6.731c0,3.717-3.014,6.731-6.729,6.731c-3.719,0-6.731-3.014-6.731-6.731
	C1490.197,405.307,1493.212,402.293,1496.928,402.293z M1496.928,350.292c3.718,0,6.73,3.014,6.73,6.732
	c0,3.718-3.014,6.732-6.73,6.732c-3.719,0-6.732-3.014-6.732-6.732C1490.196,353.306,1493.21,350.292,1496.928,350.292z
	 M1496.928,298.292c3.718,0,6.73,3.014,6.73,6.732c0,3.718-3.014,6.732-6.73,6.732c-3.719,0-6.732-3.014-6.732-6.732
	C1490.196,301.306,1493.21,298.292,1496.928,298.292z M1496.928,246.292c3.718,0,6.73,3.014,6.73,6.732
	c0,3.718-3.014,6.732-6.73,6.732c-3.719,0-6.732-3.014-6.732-6.732C1490.196,249.306,1493.21,246.292,1496.928,246.292z
	 M1496.928,194.292c3.718,0,6.73,3.014,6.73,6.732c0,3.718-3.014,6.732-6.73,6.732c-3.719,0-6.732-3.014-6.732-6.732
	C1490.196,197.306,1493.21,194.292,1496.928,194.292z M1553.499,675.757c-3.72,0-6.729-3.018-6.729-6.729
	c0-3.72,3.018-6.732,6.729-6.732c3.718,0,6.731,3.021,6.731,6.732S1557.219,675.757,1553.499,675.757z M1553.499,623.757
	c-3.72,0-6.729-3.018-6.729-6.729c0-3.72,3.018-6.732,6.729-6.732c3.718,0,6.731,3.021,6.731,6.732
	S1557.219,623.757,1553.499,623.757z M1553.499,571.757c-3.72,0-6.729-3.018-6.729-6.729c0-3.72,3.018-6.732,6.729-6.732
	c3.718,0,6.731,3.021,6.731,6.732S1557.219,571.757,1553.499,571.757z M1553.499,519.757c-3.72,0-6.729-3.017-6.729-6.729
	s3.018-6.732,6.729-6.732c3.718,0,6.731,3.021,6.731,6.732S1557.219,519.757,1553.499,519.757z M1553.499,467.757
	c-3.72,0-6.729-3.017-6.729-6.729c0-3.722,3.018-6.732,6.729-6.732c3.718,0,6.731,3.017,6.731,6.732
	C1560.23,464.74,1557.219,467.757,1553.499,467.757z M1553.499,415.756c-3.72,0-6.729-3.015-6.729-6.73
	c0-3.719,3.018-6.732,6.729-6.732c3.718,0,6.731,3.015,6.731,6.732C1560.23,412.741,1557.219,415.756,1553.499,415.756z
	 M1553.499,363.756c-3.72,0-6.729-3.014-6.729-6.731c0-3.719,3.018-6.732,6.729-6.732c3.718,0,6.731,3.014,6.731,6.732
	C1560.23,360.742,1557.219,363.756,1553.499,363.756z M1553.499,311.756c-3.72,0-6.729-3.014-6.729-6.732
	c0-3.718,3.018-6.732,6.729-6.732c3.718,0,6.731,3.014,6.731,6.732C1560.23,308.742,1557.219,311.756,1553.499,311.756z
	 M1553.499,259.756c-3.72,0-6.729-3.014-6.729-6.732c0-3.718,3.018-6.732,6.729-6.732c3.718,0,6.731,3.014,6.731,6.732
	C1560.23,256.742,1557.219,259.756,1553.499,259.756z M1553.499,207.756c-3.72,0-6.729-3.014-6.729-6.732
	c0-3.718,3.018-6.732,6.729-6.732c3.718,0,6.731,3.014,6.731,6.732C1560.23,204.742,1557.219,207.756,1553.499,207.756z
	 M1553.499,155.756c-3.72,0-6.729-3.014-6.729-6.732c0-3.718,3.018-6.732,6.729-6.732c3.718,0,6.731,3.014,6.731,6.732
	C1560.23,152.742,1557.219,155.756,1553.499,155.756z M1610.068,675.757c-3.723,0-6.729-3.018-6.729-6.729
	c0-3.72,3.014-6.732,6.729-6.732s6.729,3.021,6.729,6.732C1616.802,672.739,1613.787,675.757,1610.068,675.757z M1610.068,623.757
	c-3.723,0-6.729-3.018-6.729-6.729c0-3.72,3.014-6.732,6.729-6.732s6.729,3.021,6.729,6.732
	C1616.802,620.739,1613.787,623.757,1610.068,623.757z M1610.068,571.757c-3.723,0-6.729-3.018-6.729-6.729
	c0-3.72,3.014-6.732,6.729-6.732s6.729,3.021,6.729,6.732C1616.802,568.739,1613.787,571.757,1610.068,571.757z M1610.068,519.757
	c-3.723,0-6.729-3.017-6.729-6.729s3.014-6.732,6.729-6.732s6.729,3.021,6.729,6.732
	C1616.802,516.74,1613.787,519.757,1610.068,519.757z M1610.068,467.757c-3.723,0-6.729-3.017-6.729-6.729
	c0-3.722,3.014-6.732,6.729-6.732s6.729,3.017,6.729,6.732C1616.802,464.74,1613.787,467.757,1610.068,467.757z M1610.068,415.756
	c-3.723,0-6.729-3.015-6.729-6.73c0-3.719,3.014-6.732,6.729-6.732s6.729,3.015,6.729,6.732
	C1616.802,412.741,1613.787,415.756,1610.068,415.756z M1610.068,363.756c-3.723,0-6.729-3.014-6.729-6.731
	c0-3.719,3.014-6.732,6.729-6.732s6.729,3.014,6.729,6.732C1616.802,360.742,1613.787,363.756,1610.068,363.756z M1610.068,311.756
	c-3.723,0-6.729-3.014-6.729-6.732c0-3.718,3.014-6.732,6.729-6.732s6.729,3.014,6.729,6.732
	C1616.802,308.742,1613.787,311.756,1610.068,311.756z M1610.068,259.756c-3.723,0-6.729-3.014-6.729-6.732
	c0-3.718,3.014-6.732,6.729-6.732s6.729,3.014,6.729,6.732C1616.802,256.742,1613.787,259.756,1610.068,259.756z M1610.068,207.756
	c-3.723,0-6.729-3.014-6.729-6.732c0-3.718,3.014-6.732,6.729-6.732s6.729,3.014,6.729,6.732
	C1616.802,204.742,1613.787,207.756,1610.068,207.756z M1610.068,155.756c-3.723,0-6.729-3.014-6.729-6.732
	c0-3.718,3.014-6.732,6.729-6.732s6.729,3.014,6.729,6.732C1616.802,152.742,1613.787,155.756,1610.068,155.756z M1610.068,103.756
	c-3.723,0-6.729-3.014-6.729-6.732c0-3.718,3.014-6.732,6.729-6.732s6.729,3.014,6.729,6.732
	C1616.802,100.742,1613.787,103.756,1610.068,103.756z M1666.638,623.757c-3.718,0-6.729-3.018-6.729-6.729
	c0-3.72,3.019-6.732,6.729-6.732c3.724,0,6.729,3.021,6.729,6.732C1673.371,620.739,1670.357,623.757,1666.638,623.757z
	 M1666.638,571.757c-3.718,0-6.729-3.018-6.729-6.729c0-3.72,3.019-6.732,6.729-6.732c3.724,0,6.729,3.021,6.729,6.732
	C1673.371,568.739,1670.357,571.757,1666.638,571.757z M1666.638,519.757c-3.718,0-6.729-3.017-6.729-6.729s3.019-6.732,6.729-6.732
	c3.724,0,6.729,3.021,6.729,6.732C1673.371,516.74,1670.357,519.757,1666.638,519.757z M1666.638,467.757
	c-3.718,0-6.729-3.017-6.729-6.729c0-3.722,3.019-6.732,6.729-6.732c3.724,0,6.729,3.017,6.729,6.732
	C1673.371,464.74,1670.357,467.757,1666.638,467.757z M1666.638,415.756c-3.718,0-6.729-3.015-6.729-6.73
	c0-3.719,3.019-6.732,6.729-6.732c3.724,0,6.729,3.015,6.729,6.732C1673.371,412.741,1670.357,415.756,1666.638,415.756z
	 M1666.638,363.756c-3.718,0-6.729-3.014-6.729-6.731c0-3.719,3.019-6.732,6.729-6.732c3.724,0,6.729,3.014,6.729,6.732
	C1673.371,360.742,1670.357,363.756,1666.638,363.756z M1666.638,311.756c-3.718,0-6.729-3.014-6.729-6.732
	c0-3.718,3.019-6.732,6.729-6.732c3.724,0,6.729,3.014,6.729,6.732C1673.371,308.742,1670.357,311.756,1666.638,311.756z
	 M1666.638,259.756c-3.718,0-6.729-3.014-6.729-6.732c0-3.718,3.019-6.732,6.729-6.732c3.724,0,6.729,3.014,6.729,6.732
	C1673.371,256.742,1670.357,259.756,1666.638,259.756z M1666.638,207.756c-3.718,0-6.729-3.014-6.729-6.732
	c0-3.718,3.019-6.732,6.729-6.732c3.724,0,6.729,3.014,6.729,6.732C1673.371,204.742,1670.357,207.756,1666.638,207.756z
	 M1666.638,155.756c-3.718,0-6.729-3.014-6.729-6.732c0-3.718,3.019-6.732,6.729-6.732c3.724,0,6.729,3.014,6.729,6.732
	C1673.371,152.742,1670.357,155.756,1666.638,155.756z M1666.638,103.756c-3.718,0-6.729-3.014-6.729-6.732
	c0-3.718,3.019-6.732,6.729-6.732c3.724,0,6.729,3.014,6.729,6.732C1673.371,100.742,1670.357,103.756,1666.638,103.756z
	 M1723.21,623.757c-3.72,0-6.729-3.018-6.729-6.729c0-3.72,3.018-6.732,6.729-6.732c3.718,0,6.731,3.021,6.731,6.732
	S1726.928,623.757,1723.21,623.757z M1723.21,571.757c-3.72,0-6.729-3.018-6.729-6.729c0-3.72,3.018-6.732,6.729-6.732
	c3.718,0,6.731,3.021,6.731,6.732S1726.928,571.757,1723.21,571.757z M1723.21,519.757c-3.72,0-6.729-3.017-6.729-6.729
	s3.018-6.732,6.729-6.732c3.718,0,6.731,3.021,6.731,6.732S1726.928,519.757,1723.21,519.757z M1723.21,467.757
	c-3.72,0-6.729-3.017-6.729-6.729c0-3.722,3.018-6.732,6.729-6.732c3.718,0,6.731,3.017,6.731,6.732
	C1729.941,464.74,1726.928,467.757,1723.21,467.757z M1723.21,415.756c-3.72,0-6.729-3.015-6.729-6.73
	c0-3.719,3.018-6.732,6.729-6.732c3.718,0,6.731,3.015,6.731,6.732C1729.941,412.741,1726.928,415.756,1723.21,415.756z
	 M1723.21,363.756c-3.72,0-6.729-3.014-6.729-6.731c0-3.719,3.018-6.732,6.729-6.732c3.718,0,6.731,3.014,6.731,6.732
	C1729.941,360.742,1726.928,363.756,1723.21,363.756z M1723.21,311.756c-3.72,0-6.729-3.014-6.729-6.732
	c0-3.718,3.018-6.732,6.729-6.732c3.718,0,6.731,3.014,6.731,6.732C1729.941,308.742,1726.928,311.756,1723.21,311.756z
	 M1723.21,259.756c-3.72,0-6.729-3.014-6.729-6.732c0-3.718,3.018-6.732,6.729-6.732c3.718,0,6.731,3.014,6.731,6.732
	C1729.941,256.742,1726.928,259.756,1723.21,259.756z M1723.21,207.756c-3.72,0-6.729-3.014-6.729-6.732
	c0-3.718,3.018-6.732,6.729-6.732c3.718,0,6.731,3.014,6.731,6.732C1729.941,204.742,1726.928,207.756,1723.21,207.756z
	 M1723.21,155.756c-3.72,0-6.729-3.014-6.729-6.732c0-3.718,3.018-6.732,6.729-6.732c3.718,0,6.731,3.014,6.731,6.732
	C1729.941,152.742,1726.928,155.756,1723.21,155.756z M1723.21,103.756c-3.72,0-6.729-3.014-6.729-6.732
	c0-3.718,3.018-6.732,6.729-6.732c3.718,0,6.731,3.014,6.731,6.732C1729.941,100.742,1726.928,103.756,1723.21,103.756z
	 M1779.779,623.757c-3.721,0-6.729-3.018-6.729-6.729c0-3.72,3.016-6.732,6.729-6.732s6.729,3.021,6.729,6.732
	C1786.51,620.739,1783.499,623.757,1779.779,623.757z M1779.779,571.757c-3.721,0-6.729-3.018-6.729-6.729
	c0-3.72,3.016-6.732,6.729-6.732s6.729,3.021,6.729,6.732C1786.51,568.739,1783.499,571.757,1779.779,571.757z M1779.779,519.757
	c-3.721,0-6.729-3.017-6.729-6.729s3.016-6.732,6.729-6.732s6.729,3.021,6.729,6.732
	C1786.51,516.74,1783.499,519.757,1779.779,519.757z M1779.779,467.757c-3.721,0-6.729-3.017-6.729-6.729
	c0-3.722,3.016-6.732,6.729-6.732s6.729,3.017,6.729,6.732C1786.51,464.74,1783.499,467.757,1779.779,467.757z M1779.779,402.293
	c3.718,0,6.731,3.014,6.731,6.731c0,3.717-3.015,6.731-6.731,6.731s-6.729-3.014-6.729-6.731
	C1773.05,405.307,1776.062,402.293,1779.779,402.293z M1779.779,350.292c3.718,0,6.732,3.014,6.732,6.732
	c0,3.718-3.015,6.732-6.732,6.732c-3.717,0-6.73-3.014-6.73-6.732C1773.049,353.306,1776.061,350.292,1779.779,350.292z
	 M1779.779,298.292c3.718,0,6.732,3.014,6.732,6.732c0,3.718-3.015,6.732-6.732,6.732c-3.717,0-6.73-3.014-6.73-6.732
	C1773.049,301.306,1776.061,298.292,1779.779,298.292z M1779.779,246.292c3.718,0,6.732,3.014,6.732,6.732
	c0,3.718-3.015,6.732-6.732,6.732c-3.717,0-6.73-3.014-6.73-6.732C1773.049,249.306,1776.061,246.292,1779.779,246.292z
	 M1779.779,194.292c3.718,0,6.732,3.014,6.732,6.732c0,3.718-3.015,6.732-6.732,6.732c-3.717,0-6.73-3.014-6.73-6.732
	C1773.049,197.306,1776.061,194.292,1779.779,194.292z M1779.779,142.292c3.718,0,6.732,3.014,6.732,6.732
	c0,3.718-3.015,6.732-6.732,6.732c-3.717,0-6.73-3.014-6.73-6.732C1773.049,145.306,1776.061,142.292,1779.779,142.292z
	 M1779.779,90.292c3.718,0,6.732,3.014,6.732,6.732c0,3.718-3.015,6.732-6.732,6.732c-3.717,0-6.73-3.014-6.73-6.732
	C1773.049,93.306,1776.061,90.292,1779.779,90.292z M1836.35,623.757c-3.719,0-6.729-3.018-6.729-6.729
	c0-3.72,3.019-6.732,6.729-6.732c3.722,0,6.732,3.021,6.732,6.732S1840.068,623.757,1836.35,623.757z M1836.35,571.757
	c-3.719,0-6.729-3.018-6.729-6.729c0-3.72,3.019-6.732,6.729-6.732c3.722,0,6.732,3.021,6.732,6.732
	S1840.068,571.757,1836.35,571.757z M1836.35,519.757c-3.719,0-6.729-3.017-6.729-6.729s3.019-6.732,6.729-6.732
	c3.722,0,6.732,3.021,6.732,6.732S1840.068,519.757,1836.35,519.757z M1836.35,467.757c-3.719,0-6.729-3.017-6.729-6.729
	c0-3.722,3.019-6.732,6.729-6.732c3.722,0,6.732,3.017,6.732,6.732C1843.083,464.74,1840.068,467.757,1836.35,467.757z
	 M1836.35,415.756c-3.719,0-6.729-3.015-6.729-6.73c0-3.719,3.019-6.732,6.729-6.732c3.722,0,6.732,3.015,6.732,6.732
	C1843.083,412.741,1840.068,415.756,1836.35,415.756z M1836.35,363.756c-3.719,0-6.729-3.014-6.729-6.731
	c0-3.719,3.019-6.732,6.729-6.732c3.722,0,6.732,3.014,6.732,6.732C1843.083,360.742,1840.068,363.756,1836.35,363.756z
	 M1836.35,311.756c-3.719,0-6.729-3.014-6.729-6.732c0-3.718,3.019-6.732,6.729-6.732c3.722,0,6.732,3.014,6.732,6.732
	C1843.083,308.742,1840.068,311.756,1836.35,311.756z M1836.35,259.756c-3.719,0-6.729-3.014-6.729-6.732
	c0-3.718,3.019-6.732,6.729-6.732c3.722,0,6.732,3.014,6.732,6.732C1843.083,256.742,1840.068,259.756,1836.35,259.756z
	 M1836.35,207.756c-3.719,0-6.729-3.014-6.729-6.732c0-3.718,3.019-6.732,6.729-6.732c3.722,0,6.732,3.014,6.732,6.732
	C1843.083,204.742,1840.068,207.756,1836.35,207.756z M1836.35,155.756c-3.719,0-6.729-3.014-6.729-6.732
	c0-3.718,3.019-6.732,6.729-6.732c3.722,0,6.732,3.014,6.732,6.732C1843.083,152.742,1840.068,155.756,1836.35,155.756z
	 M1836.35,103.756c-3.719,0-6.729-3.014-6.729-6.732c0-3.718,3.019-6.732,6.729-6.732c3.722,0,6.732,3.014,6.732,6.732
	C1843.083,100.742,1840.068,103.756,1836.35,103.756z M1892.925,623.757c-3.724,0-6.729-3.018-6.729-6.729
	c0-3.72,3.019-6.732,6.729-6.732s6.729,3.021,6.729,6.732S1896.639,623.757,1892.925,623.757z M1892.925,571.757
	c-3.724,0-6.729-3.018-6.729-6.729c0-3.72,3.019-6.732,6.729-6.732s6.729,3.021,6.729,6.732S1896.639,571.757,1892.925,571.757z
	 M1892.925,519.757c-3.724,0-6.729-3.017-6.729-6.729s3.019-6.732,6.729-6.732s6.729,3.021,6.729,6.732
	C1899.652,516.74,1896.639,519.757,1892.925,519.757z M1892.925,467.757c-3.724,0-6.729-3.017-6.729-6.729
	c0-3.722,3.019-6.732,6.729-6.732s6.729,3.017,6.729,6.732C1899.652,464.74,1896.639,467.757,1892.925,467.757z M1892.925,402.293
	c3.717,0,6.729,3.014,6.729,6.731c0,3.717-3.014,6.731-6.729,6.731c-3.719,0-6.731-3.014-6.731-6.731
	C1886.193,405.307,1889.206,402.293,1892.925,402.293z M1892.925,350.292c3.718,0,6.73,3.014,6.73,6.732
	c0,3.718-3.014,6.732-6.73,6.732c-3.72,0-6.732-3.014-6.732-6.732C1886.191,353.306,1889.205,350.292,1892.925,350.292z
	 M1892.925,298.292c3.718,0,6.73,3.014,6.73,6.732c0,3.718-3.014,6.732-6.73,6.732c-3.72,0-6.732-3.014-6.732-6.732
	C1886.191,301.306,1889.205,298.292,1892.925,298.292z M1892.925,246.292c3.718,0,6.73,3.014,6.73,6.732
	c0,3.718-3.014,6.732-6.73,6.732c-3.72,0-6.732-3.014-6.732-6.732C1886.191,249.306,1889.205,246.292,1892.925,246.292z
	 M1892.925,194.292c3.718,0,6.73,3.014,6.73,6.732c0,3.718-3.014,6.732-6.73,6.732c-3.72,0-6.732-3.014-6.732-6.732
	C1886.191,197.306,1889.205,194.292,1892.925,194.292z M1892.925,142.292c3.718,0,6.73,3.014,6.73,6.732
	c0,3.718-3.014,6.732-6.73,6.732c-3.72,0-6.732-3.014-6.732-6.732C1886.191,145.306,1889.205,142.292,1892.925,142.292z
	 M1892.925,90.292c3.718,0,6.73,3.014,6.73,6.732c0,3.718-3.014,6.732-6.73,6.732c-3.72,0-6.732-3.014-6.732-6.732
	C1886.191,93.306,1889.205,90.292,1892.925,90.292z M1949.49,623.757c-3.721,0-6.729-3.018-6.729-6.729
	c0-3.72,3.016-6.732,6.729-6.732s6.729,3.021,6.729,6.732S1953.21,623.757,1949.49,623.757z M1949.49,571.757
	c-3.721,0-6.729-3.018-6.729-6.729c0-3.72,3.016-6.732,6.729-6.732s6.729,3.021,6.729,6.732S1953.21,571.757,1949.49,571.757z
	 M1949.49,519.757c-3.721,0-6.729-3.017-6.729-6.729s3.016-6.732,6.729-6.732s6.729,3.021,6.729,6.732
	C1956.22,516.74,1953.21,519.757,1949.49,519.757z M1949.49,467.757c-3.721,0-6.729-3.017-6.729-6.729
	c0-3.722,3.016-6.732,6.729-6.732s6.729,3.017,6.729,6.732C1956.22,464.74,1953.21,467.757,1949.49,467.757z M1949.49,402.293
	c3.718,0,6.731,3.014,6.731,6.731c0,3.717-3.015,6.731-6.731,6.731s-6.729-3.014-6.729-6.731
	C1942.76,405.307,1945.773,402.293,1949.49,402.293z M1949.49,350.292c3.718,0,6.732,3.014,6.732,6.732
	c0,3.718-3.015,6.732-6.732,6.732c-3.717,0-6.73-3.014-6.73-6.732C1942.76,353.306,1945.772,350.292,1949.49,350.292z
	 M1949.49,298.292c3.718,0,6.732,3.014,6.732,6.732c0,3.718-3.015,6.732-6.732,6.732c-3.717,0-6.73-3.014-6.73-6.732
	C1942.76,301.306,1945.772,298.292,1949.49,298.292z M1949.49,246.292c3.718,0,6.732,3.014,6.732,6.732
	c0,3.718-3.015,6.732-6.732,6.732c-3.717,0-6.73-3.014-6.73-6.732C1942.76,249.306,1945.772,246.292,1949.49,246.292z
	 M1949.49,194.292c3.718,0,6.732,3.014,6.732,6.732c0,3.718-3.015,6.732-6.732,6.732c-3.717,0-6.73-3.014-6.73-6.732
	C1942.76,197.306,1945.772,194.292,1949.49,194.292z M1949.49,142.292c3.718,0,6.732,3.014,6.732,6.732
	c0,3.718-3.015,6.732-6.732,6.732c-3.717,0-6.73-3.014-6.73-6.732C1942.76,145.306,1945.772,142.292,1949.49,142.292z
	 M1949.49,90.292c3.718,0,6.732,3.014,6.732,6.732c0,3.718-3.015,6.732-6.732,6.732c-3.717,0-6.73-3.014-6.73-6.732
	C1942.76,93.306,1945.772,90.292,1949.49,90.292z M2006.062,623.757c-3.723,0-6.732-3.018-6.732-6.729
	c0-3.72,3.019-6.732,6.732-6.732s6.729,3.021,6.729,6.732S2009.779,623.757,2006.062,623.757z M2006.062,571.757
	c-3.723,0-6.732-3.018-6.732-6.729c0-3.72,3.019-6.732,6.732-6.732s6.729,3.021,6.729,6.732S2009.779,571.757,2006.062,571.757z
	 M2006.062,519.757c-3.723,0-6.732-3.017-6.732-6.729s3.019-6.732,6.732-6.732s6.729,3.021,6.729,6.732
	S2009.779,519.757,2006.062,519.757z M2006.062,467.757c-3.723,0-6.732-3.017-6.732-6.729c0-3.722,3.019-6.732,6.732-6.732
	s6.729,3.017,6.729,6.732C2012.792,464.74,2009.779,467.757,2006.062,467.757z M2006.062,415.756c-3.723,0-6.732-3.015-6.732-6.73
	c0-3.719,3.019-6.732,6.732-6.732s6.729,3.015,6.729,6.732C2012.792,412.741,2009.779,415.756,2006.062,415.756z M2006.062,363.756
	c-3.723,0-6.732-3.014-6.732-6.731c0-3.719,3.019-6.732,6.732-6.732s6.729,3.014,6.729,6.732
	C2012.792,360.742,2009.779,363.756,2006.062,363.756z M2006.062,311.756c-3.723,0-6.732-3.014-6.732-6.732
	c0-3.718,3.019-6.732,6.732-6.732s6.729,3.014,6.729,6.732C2012.792,308.742,2009.779,311.756,2006.062,311.756z M2006.062,259.756
	c-3.723,0-6.732-3.014-6.732-6.732c0-3.718,3.019-6.732,6.732-6.732s6.729,3.014,6.729,6.732
	C2012.792,256.742,2009.779,259.756,2006.062,259.756z M2006.062,207.756c-3.723,0-6.732-3.014-6.732-6.732
	c0-3.718,3.019-6.732,6.732-6.732s6.729,3.014,6.729,6.732C2012.792,204.742,2009.779,207.756,2006.062,207.756z M2006.062,155.756
	c-3.723,0-6.732-3.014-6.732-6.732c0-3.718,3.019-6.732,6.732-6.732s6.729,3.014,6.729,6.732
	C2012.792,152.742,2009.779,155.756,2006.062,155.756z M2006.062,103.756c-3.723,0-6.732-3.014-6.732-6.732
	c0-3.718,3.019-6.732,6.732-6.732s6.729,3.014,6.729,6.732C2012.792,100.742,2009.779,103.756,2006.062,103.756z M2062.635,571.757
	c-3.723,0-6.729-3.018-6.729-6.729c0-3.72,3.019-6.732,6.729-6.732c3.719,0,6.729,3.021,6.729,6.732
	S2066.352,571.757,2062.635,571.757z M2062.635,519.757c-3.723,0-6.729-3.017-6.729-6.729s3.019-6.732,6.729-6.732
	c3.719,0,6.729,3.021,6.729,6.732C2069.363,516.74,2066.352,519.757,2062.635,519.757z M2062.635,467.757
	c-3.723,0-6.729-3.017-6.729-6.729c0-3.722,3.019-6.732,6.729-6.732c3.719,0,6.729,3.017,6.729,6.732
	C2069.363,464.74,2066.352,467.757,2062.635,467.757z M2062.635,402.293c3.718,0,6.729,3.014,6.729,6.731
	c0,3.717-3.013,6.731-6.729,6.731s-6.731-3.014-6.731-6.731C2055.904,405.307,2058.917,402.293,2062.635,402.293z M2062.635,350.292
	c3.718,0,6.73,3.014,6.73,6.732c0,3.718-3.014,6.732-6.73,6.732s-6.732-3.014-6.732-6.732
	C2055.902,353.306,2058.917,350.292,2062.635,350.292z M2062.635,298.292c3.718,0,6.73,3.014,6.73,6.732
	c0,3.718-3.014,6.732-6.73,6.732s-6.732-3.014-6.732-6.732C2055.902,301.306,2058.917,298.292,2062.635,298.292z M2062.635,246.292
	c3.718,0,6.73,3.014,6.73,6.732c0,3.718-3.014,6.732-6.73,6.732s-6.732-3.014-6.732-6.732
	C2055.902,249.306,2058.917,246.292,2062.635,246.292z M2062.635,194.292c3.718,0,6.73,3.014,6.73,6.732
	c0,3.718-3.014,6.732-6.73,6.732s-6.732-3.014-6.732-6.732C2055.902,197.306,2058.917,194.292,2062.635,194.292z M2062.635,142.292
	c3.718,0,6.73,3.014,6.73,6.732c0,3.718-3.014,6.732-6.73,6.732s-6.732-3.014-6.732-6.732
	C2055.902,145.306,2058.917,142.292,2062.635,142.292z M2062.635,90.292c3.718,0,6.73,3.014,6.73,6.732
	c0,3.718-3.014,6.732-6.73,6.732s-6.732-3.014-6.732-6.732C2055.902,93.306,2058.917,90.292,2062.635,90.292z M2119.201,402.293
	c3.718,0,6.731,3.014,6.731,6.731c0,3.717-3.014,6.731-6.731,6.731c-3.717,0-6.729-3.014-6.729-6.731
	C2112.471,405.307,2115.483,402.293,2119.201,402.293z M2119.201,350.292c3.718,0,6.732,3.014,6.732,6.732
	c0,3.718-3.015,6.732-6.732,6.732c-3.717,0-6.73-3.014-6.73-6.732C2112.469,353.306,2115.483,350.292,2119.201,350.292z
	 M2119.201,298.292c3.718,0,6.732,3.014,6.732,6.732c0,3.718-3.015,6.732-6.732,6.732c-3.717,0-6.73-3.014-6.73-6.732
	C2112.469,301.306,2115.483,298.292,2119.201,298.292z M2119.201,246.292c3.718,0,6.732,3.014,6.732,6.732
	c0,3.718-3.015,6.732-6.732,6.732c-3.717,0-6.73-3.014-6.73-6.732C2112.469,249.306,2115.483,246.292,2119.201,246.292z
	 M2119.201,194.292c3.718,0,6.732,3.014,6.732,6.732c0,3.718-3.015,6.732-6.732,6.732c-3.717,0-6.73-3.014-6.73-6.732
	C2112.469,197.306,2115.483,194.292,2119.201,194.292z M2119.201,142.292c3.718,0,6.732,3.014,6.732,6.732
	c0,3.718-3.015,6.732-6.732,6.732c-3.717,0-6.73-3.014-6.73-6.732C2112.469,145.306,2115.483,142.292,2119.201,142.292z
	 M2119.201,90.292c3.718,0,6.732,3.014,6.732,6.732c0,3.718-3.015,6.732-6.732,6.732c-3.717,0-6.73-3.014-6.73-6.732
	C2112.469,93.306,2115.483,90.292,2119.201,90.292z M2175.771,311.756c-3.722,0-6.731-3.014-6.731-6.732
	c0-3.718,3.019-6.732,6.731-6.732c3.719,0,6.729,3.014,6.729,6.732C2182.503,308.742,2179.49,311.756,2175.771,311.756z
	 M2175.771,259.756c-3.722,0-6.731-3.014-6.731-6.732c0-3.718,3.019-6.732,6.731-6.732c3.719,0,6.729,3.014,6.729,6.732
	C2182.503,256.742,2179.49,259.756,2175.771,259.756z M2175.771,207.756c-3.722,0-6.731-3.014-6.731-6.732
	c0-3.718,3.019-6.732,6.731-6.732c3.719,0,6.729,3.014,6.729,6.732C2182.503,204.742,2179.49,207.756,2175.771,207.756z
	 M2175.771,155.756c-3.722,0-6.731-3.014-6.731-6.732c0-3.718,3.019-6.732,6.731-6.732c3.719,0,6.729,3.014,6.729,6.732
	C2182.503,152.742,2179.49,155.756,2175.771,155.756z M2175.771,103.756c-3.722,0-6.731-3.014-6.731-6.732
	c0-3.718,3.019-6.732,6.731-6.732c3.719,0,6.729,3.014,6.729,6.732C2182.503,100.742,2179.49,103.756,2175.771,103.756z
	 M2232.344,142.292c3.718,0,6.73,3.014,6.73,6.732c0,3.718-3.014,6.732-6.73,6.732c-3.719,0-6.732-3.014-6.732-6.732
	C2225.612,145.306,2228.626,142.292,2232.344,142.292z M2232.344,90.292c3.718,0,6.73,3.014,6.73,6.732
	c0,3.718-3.014,6.732-6.73,6.732c-3.719,0-6.732-3.014-6.732-6.732C2225.612,93.306,2228.626,90.292,2232.344,90.292z
	 M1191.772,768.07c-7.607-1.788-14.913,1.431-21.323,5.254c-2.292,1.188-5.868,2.17-9.737,3.259
	c-151.187,29.967-307.305,74.635-462.82,135.393c-83.466,31.781-173.481,78.712-244.381,119.734
	c-16.062,9.612-20.561,5.916-31.144-5.728c-16.025-17.641-31.492-45.326-44.297-61.925
	c-93.985-157.69-248.954-324.793-363.673-407.942c-21.447-22.369-15.409-34.578-4.549-34.771c4.884-0.09,20.212,3.705,27.471,5.279
	c161.199,42.127,295.154,98.699,448.729,159.579c5.44,2.38,8.685-4.959,4.271-6.688l-186.966-83.479
	c-6.855-3.834-8.744-8.784,0.034-6.438c0.394,0.108,0.809,0.198,1.238,0.312c143.302,36.102,293.385,57.208,452.401,74.77
	c45.854,7.736,114.46,10.091,167.039,5.627c34.823-2.955,61.498-9.748,73.901-16.896c1.51-0.871,6.081-2.938,7.355-3.615
	c2.144-1.134,4.01-1.298,5.687-0.896c9.463,3.057,18.12-2.604,24.813-8.775c0.623-0.646,1.354-1.273,2.188-1.896
	c142.552-126.01,269.602-262.458,374.808-413.625l56.316-67.326c30.08-40.152,73.148-71.959,150.576-80.609
	c0,0,644.41-26.059,644.646-26.068c3.812-0.154,8.545-2.53,11.664-4.569c3.42-2.236,6.68-5.229,8.615-8.867
	c1.041-1.956,1.596-4.062,2.004-6.211c0.477-2.502,0.754-5.063,1.373-7.516c1.146-4.55,3.366-8.86,6.338-12.483
	c1.678-2.044,3.688-3.837,5.889-5.304c2.217-1.478,4.818-2.885,7.358-3.713c3.264-1.063,7.158-1.927,10.604-1.927
	c17.224,0,31.185,13.96,31.185,31.181c0,17.221-13.961,31.181-31.185,31.181c-1.121,0-2.229-0.059-3.313-0.174
	c-10.699-0.335-18.987,6.6-24.873,14.854c-78.543,195.008-162.905,393.021-250.45,583.055c-4.36,10.255-17.812,12.229-29.869,10.786
	c-100.912-23.853-245.173-0.827-338.604,13.168c-165.611,28.332-322.729,56.76-457.457,83.812
	c-8.585,2.496-15.751,2.327-21.877,0.208L1191.772,768.07z"/>
</svg>
