<?xml version="1.0" encoding="utf-8"?>
<!-- Generator: Adobe Illustrator 16.0.0, SVG Export Plug-In . SVG Version: 6.00 Build 0)  -->
<!DOCTYPE svg PUBLIC "-//W3C//DTD SVG 1.1//EN" "http://www.w3.org/Graphics/SVG/1.1/DTD/svg11.dtd">
<svg version="1.1" id="Layer_1" xmlns="http://www.w3.org/2000/svg" xmlns:xlink="http://www.w3.org/1999/xlink" x="0px" y="0px"
	 width="2296.764px" height="987.304px" viewBox="0 0 2296.764 987.304" enable-background="new 0 0 2296.764 987.304"
	 xml:space="preserve">
<path d="M453.506,981.812c70.896-41.021,160.915-87.951,244.381-119.732c155.519-60.758,311.637-105.426,462.824-135.395
	c9.614-2.707,17.422-4.725,8.203-11.049c-59.089-43.018-101.487-73.934-150.84-111.941c-3.338-3.027-7.091-6.801-12.74-3.807
	c-1.279,0.68-5.854,2.744-7.36,3.615c-12.405,7.15-39.08,13.943-73.903,16.898c-52.579,4.463-121.188,2.109-167.039-5.627
	c-159.021-17.561-309.104-38.668-452.403-74.77c-0.432-0.109-0.847-0.199-1.238-0.307c-8.778-2.348-6.891,2.604-0.034,6.438
	l186.966,83.479c4.409,1.73,1.17,9.068-4.272,6.689C332.474,575.423,198.519,518.851,37.32,476.723
	c-7.259-1.573-22.587-5.369-27.471-5.278c-10.859,0.192-16.897,12.401,4.549,34.772c114.72,83.15,269.688,250.252,363.673,407.947
	c12.808,16.594,28.27,44.285,44.297,61.92C432.948,987.728,437.442,991.423,453.506,981.812z M2281.49,0l-661.771,26.76
	c-77.428,8.65-120.496,40.457-150.576,80.609l-56.318,67.326c-105.207,151.164-232.256,287.616-374.806,413.627
	c-4.452,3.314-6.033,6.879-3.479,12.014c47.314,38.74,95.633,73.117,146.729,111.633c8.104,7.035,18.343,10.076,32.377,5.996
	c134.726-27.053,291.843-55.479,457.457-83.811c93.43-13.996,237.688-37.021,338.604-13.168
	c12.062,1.439,25.511-0.533,29.869-10.787c89.736-194.792,176.129-397.965,256.341-597.693C2300.334-2.949,2286.291,0.79,2281.49,0z
	 M1100.935,625.861c-3.72,0-6.732-3.02-6.732-6.732c0-3.715,3.017-6.732,6.732-6.732c3.72,0,6.731,3.018,6.731,6.732
	C1107.666,622.841,1104.652,625.861,1100.935,625.861z M1100.935,573.861c-3.72,0-6.732-3.02-6.732-6.732
	c0-3.715,3.017-6.732,6.732-6.732c3.72,0,6.731,3.018,6.731,6.732C1107.666,570.841,1104.652,573.861,1100.935,573.861z
	 M1157.506,677.861c-3.722,0-6.73-3.02-6.73-6.732c0-3.715,3.016-6.732,6.73-6.732s6.729,3.018,6.729,6.732
	C1164.236,674.841,1161.223,677.861,1157.506,677.861z M1157.506,625.861c-3.722,0-6.73-3.02-6.73-6.732
	c0-3.715,3.016-6.732,6.73-6.732s6.729,3.018,6.729,6.732C1164.236,622.841,1161.223,625.861,1157.506,625.861z M1157.506,573.861
	c-3.722,0-6.73-3.02-6.73-6.732c0-3.715,3.016-6.732,6.73-6.732s6.729,3.018,6.729,6.732
	C1164.236,570.841,1161.223,573.861,1157.506,573.861z M1157.506,521.861c-3.722,0-6.73-3.02-6.73-6.732
	c0-3.715,3.016-6.732,6.73-6.732s6.729,3.018,6.729,6.732C1164.236,518.841,1161.223,521.861,1157.506,521.861z M1214.073,677.861
	c-3.719,0-6.729-3.02-6.729-6.732c0-3.715,3.016-6.732,6.729-6.732c3.718,0,6.73,3.018,6.73,6.732
	C1220.804,674.841,1217.795,677.861,1214.073,677.861z M1214.073,625.861c-3.719,0-6.729-3.02-6.729-6.732
	c0-3.715,3.016-6.732,6.729-6.732c3.718,0,6.73,3.018,6.73,6.732C1220.804,622.841,1217.795,625.861,1214.073,625.861z
	 M1214.073,573.861c-3.719,0-6.729-3.02-6.729-6.732c0-3.715,3.016-6.732,6.729-6.732c3.718,0,6.73,3.018,6.73,6.732
	C1220.804,570.841,1217.795,573.861,1214.073,573.861z M1214.073,521.861c-3.719,0-6.729-3.02-6.729-6.732
	c0-3.715,3.016-6.732,6.729-6.732c3.718,0,6.73,3.018,6.73,6.732C1220.804,518.841,1217.795,521.861,1214.073,521.861z
	 M1214.073,469.859c-3.719,0-6.729-3.019-6.729-6.732s3.016-6.732,6.729-6.732c3.718,0,6.73,3.019,6.73,6.732
	S1217.795,469.859,1214.073,469.859z M1270.644,677.861c-3.72,0-6.731-3.02-6.731-6.732c0-3.715,3.017-6.732,6.731-6.732
	c3.719,0,6.731,3.018,6.731,6.732C1277.375,674.841,1274.363,677.861,1270.644,677.861z M1270.644,625.861
	c-3.72,0-6.731-3.02-6.731-6.732c0-3.715,3.017-6.732,6.731-6.732c3.719,0,6.731,3.018,6.731,6.732
	C1277.375,622.841,1274.363,625.861,1270.644,625.861z M1270.644,573.861c-3.72,0-6.731-3.02-6.731-6.732
	c0-3.715,3.017-6.732,6.731-6.732c3.719,0,6.731,3.018,6.731,6.732C1277.375,570.841,1274.363,573.861,1270.644,573.861z
	 M1270.644,521.861c-3.72,0-6.731-3.02-6.731-6.732c0-3.715,3.017-6.732,6.731-6.732c3.719,0,6.731,3.018,6.731,6.732
	C1277.375,518.841,1274.363,521.861,1270.644,521.861z M1270.644,469.859c-3.72,0-6.731-3.019-6.731-6.732s3.017-6.732,6.731-6.732
	c3.719,0,6.731,3.019,6.731,6.732C1277.377,466.842,1274.363,469.859,1270.644,469.859z M1270.644,417.859
	c-3.72,0-6.731-3.017-6.731-6.73c0-3.717,3.017-6.732,6.731-6.732c3.719,0,6.731,3.017,6.731,6.732
	C1277.377,414.842,1274.363,417.859,1270.644,417.859z M1327.217,677.861c-3.721,0-6.73-3.02-6.73-6.732
	c0-3.715,3.017-6.732,6.73-6.732s6.729,3.018,6.729,6.732C1333.947,674.841,1330.935,677.861,1327.217,677.861z M1327.217,625.861
	c-3.721,0-6.73-3.02-6.73-6.732c0-3.715,3.017-6.732,6.73-6.732s6.729,3.018,6.729,6.732
	C1333.947,622.841,1330.935,625.861,1327.217,625.861z M1327.217,573.861c-3.721,0-6.73-3.02-6.73-6.732
	c0-3.715,3.017-6.732,6.73-6.732s6.729,3.018,6.729,6.732C1333.947,570.841,1330.935,573.861,1327.217,573.861z M1327.217,521.861
	c-3.721,0-6.73-3.02-6.73-6.732c0-3.715,3.017-6.732,6.73-6.732s6.729,3.018,6.729,6.732
	C1333.947,518.841,1330.935,521.861,1327.217,521.861z M1327.217,469.859c-3.721,0-6.73-3.019-6.73-6.732s3.017-6.732,6.73-6.732
	s6.729,3.019,6.729,6.732S1330.935,469.859,1327.217,469.859z M1327.217,417.859c-3.721,0-6.73-3.017-6.73-6.73
	c0-3.717,3.017-6.732,6.73-6.732s6.729,3.017,6.729,6.732C1333.947,414.842,1330.935,417.859,1327.217,417.859z M1327.217,365.858
	c-3.721,0-6.73-3.015-6.73-6.732s3.017-6.732,6.73-6.732s6.729,3.015,6.729,6.732S1330.935,365.858,1327.217,365.858z
	 M1383.784,625.861c-3.719,0-6.729-3.02-6.729-6.732c0-3.715,3.016-6.732,6.729-6.732c3.719,0,6.73,3.018,6.73,6.732
	C1390.515,622.841,1387.506,625.861,1383.784,625.861z M1383.784,573.861c-3.719,0-6.729-3.02-6.729-6.732
	c0-3.715,3.016-6.732,6.729-6.732c3.719,0,6.73,3.018,6.73,6.732C1390.515,570.841,1387.506,573.861,1383.784,573.861z
	 M1383.784,521.861c-3.719,0-6.729-3.02-6.729-6.732c0-3.715,3.016-6.732,6.729-6.732c3.719,0,6.73,3.018,6.73,6.732
	C1390.515,518.841,1387.506,521.861,1383.784,521.861z M1383.784,469.859c-3.719,0-6.729-3.019-6.729-6.732s3.016-6.732,6.729-6.732
	c3.719,0,6.73,3.019,6.73,6.732S1387.506,469.859,1383.784,469.859z M1383.784,417.859c-3.719,0-6.729-3.017-6.729-6.73
	c0-3.717,3.016-6.732,6.729-6.732c3.719,0,6.73,3.017,6.73,6.732C1390.515,414.842,1387.506,417.859,1383.784,417.859z
	 M1383.784,365.858c-3.719,0-6.729-3.015-6.729-6.732s3.016-6.732,6.729-6.732c3.719,0,6.73,3.015,6.73,6.732
	S1387.506,365.858,1383.784,365.858z M1383.784,313.858c-3.719,0-6.729-3.014-6.729-6.732s3.016-6.732,6.729-6.732
	c3.719,0,6.73,3.014,6.73,6.732S1387.506,313.858,1383.784,313.858z M1383.784,261.858c-3.719,0-6.729-3.014-6.729-6.732
	s3.016-6.732,6.729-6.732c3.719,0,6.73,3.014,6.73,6.732S1387.506,261.858,1383.784,261.858z M1440.355,625.861
	c-3.721,0-6.729-3.02-6.729-6.732c0-3.715,3.014-6.732,6.729-6.732s6.729,3.018,6.729,6.732
	C1447.084,622.841,1444.073,625.861,1440.355,625.861z M1440.355,573.861c-3.721,0-6.729-3.02-6.729-6.732
	c0-3.715,3.014-6.732,6.729-6.732s6.729,3.018,6.729,6.732C1447.084,570.841,1444.073,573.861,1440.355,573.861z M1440.355,521.861
	c-3.721,0-6.729-3.02-6.729-6.732c0-3.715,3.014-6.732,6.729-6.732s6.729,3.018,6.729,6.732
	C1447.084,518.841,1444.073,521.861,1440.355,521.861z M1440.355,469.859c-3.721,0-6.729-3.019-6.729-6.732s3.014-6.732,6.729-6.732
	s6.729,3.019,6.729,6.732C1447.087,466.842,1444.073,469.859,1440.355,469.859z M1440.355,417.859c-3.721,0-6.729-3.017-6.729-6.73
	c0-3.717,3.014-6.732,6.729-6.732s6.729,3.017,6.729,6.732C1447.087,414.842,1444.073,417.859,1440.355,417.859z M1440.355,365.858
	c-3.721,0-6.729-3.015-6.729-6.732s3.014-6.732,6.729-6.732s6.729,3.015,6.729,6.732
	C1447.087,362.843,1444.073,365.858,1440.355,365.858z M1440.355,313.858c-3.721,0-6.729-3.014-6.729-6.732s3.014-6.732,6.729-6.732
	s6.729,3.014,6.729,6.732C1447.087,310.844,1444.073,313.858,1440.355,313.858z M1440.355,261.858c-3.721,0-6.729-3.014-6.729-6.732
	s3.014-6.732,6.729-6.732s6.729,3.014,6.729,6.732C1447.087,258.844,1444.073,261.858,1440.355,261.858z M1440.355,209.858
	c-3.721,0-6.729-3.014-6.729-6.732s3.014-6.732,6.729-6.732s6.729,3.014,6.729,6.732
	C1447.087,206.844,1444.073,209.858,1440.355,209.858z M1496.927,625.861c-3.72,0-6.73-3.02-6.73-6.732
	c0-3.715,3.017-6.732,6.73-6.732s6.729,3.018,6.729,6.732C1503.656,622.841,1500.644,625.861,1496.927,625.861z M1496.927,573.861
	c-3.72,0-6.73-3.02-6.73-6.732c0-3.715,3.017-6.732,6.73-6.732s6.729,3.018,6.729,6.732
	C1503.656,570.841,1500.644,573.861,1496.927,573.861z M1496.927,521.861c-3.72,0-6.73-3.02-6.73-6.732
	c0-3.715,3.017-6.732,6.73-6.732s6.729,3.018,6.729,6.732C1503.656,518.841,1500.644,521.861,1496.927,521.861z M1496.927,469.859
	c-3.72,0-6.73-3.019-6.73-6.732s3.017-6.732,6.73-6.732s6.729,3.019,6.729,6.732
	C1503.657,466.842,1500.644,469.859,1496.927,469.859z M1496.927,417.859c-3.72,0-6.73-3.017-6.73-6.73
	c0-3.717,3.017-6.732,6.73-6.732s6.729,3.017,6.729,6.732C1503.657,414.842,1500.644,417.859,1496.927,417.859z M1496.927,365.858
	c-3.72,0-6.73-3.015-6.73-6.732s3.017-6.732,6.73-6.732s6.729,3.015,6.729,6.732
	C1503.657,362.843,1500.644,365.858,1496.927,365.858z M1496.927,313.858c-3.72,0-6.73-3.014-6.73-6.732s3.017-6.732,6.73-6.732
	s6.729,3.014,6.729,6.732C1503.657,310.844,1500.644,313.858,1496.927,313.858z M1496.927,261.858c-3.72,0-6.73-3.014-6.73-6.732
	s3.017-6.732,6.73-6.732s6.729,3.014,6.729,6.732C1503.657,258.844,1500.644,261.858,1496.927,261.858z M1496.927,209.858
	c-3.72,0-6.73-3.014-6.73-6.732s3.017-6.732,6.73-6.732s6.729,3.014,6.729,6.732
	C1503.657,206.844,1500.644,209.858,1496.927,209.858z M1496.927,157.858c-3.72,0-6.73-3.014-6.73-6.732s3.017-6.732,6.73-6.732
	s6.729,3.014,6.729,6.732C1503.657,154.844,1500.644,157.858,1496.927,157.858z M1553.496,625.861c-3.72,0-6.73-3.02-6.73-6.732
	c0-3.715,3.016-6.732,6.73-6.732c3.718,0,6.731,3.018,6.731,6.732C1560.228,622.841,1557.217,625.861,1553.496,625.861z
	 M1553.496,573.861c-3.72,0-6.73-3.02-6.73-6.732c0-3.715,3.016-6.732,6.73-6.732c3.718,0,6.731,3.018,6.731,6.732
	C1560.228,570.841,1557.217,573.861,1553.496,573.861z M1553.496,521.861c-3.72,0-6.73-3.02-6.73-6.732
	c0-3.715,3.016-6.732,6.73-6.732c3.718,0,6.731,3.018,6.731,6.732C1560.228,518.841,1557.217,521.861,1553.496,521.861z
	 M1553.496,469.859c-3.72,0-6.73-3.019-6.73-6.732s3.016-6.732,6.73-6.732c3.718,0,6.731,3.019,6.731,6.732
	S1557.217,469.859,1553.496,469.859z M1553.496,417.859c-3.72,0-6.73-3.017-6.73-6.73c0-3.717,3.016-6.732,6.73-6.732
	c3.718,0,6.731,3.017,6.731,6.732C1560.228,414.842,1557.217,417.859,1553.496,417.859z M1553.496,365.858
	c-3.72,0-6.73-3.015-6.73-6.732s3.016-6.732,6.73-6.732c3.718,0,6.731,3.015,6.731,6.732S1557.217,365.858,1553.496,365.858z
	 M1553.496,313.858c-3.72,0-6.73-3.014-6.73-6.732s3.016-6.732,6.73-6.732c3.718,0,6.731,3.014,6.731,6.732
	S1557.217,313.858,1553.496,313.858z M1553.496,261.858c-3.72,0-6.73-3.014-6.73-6.732s3.016-6.732,6.73-6.732
	c3.718,0,6.731,3.014,6.731,6.732S1557.217,261.858,1553.496,261.858z M1553.496,209.858c-3.72,0-6.73-3.014-6.73-6.732
	s3.016-6.732,6.73-6.732c3.718,0,6.731,3.014,6.731,6.732S1557.217,209.858,1553.496,209.858z M1553.496,157.858
	c-3.72,0-6.73-3.014-6.73-6.732s3.016-6.732,6.73-6.732c3.718,0,6.731,3.014,6.731,6.732S1557.217,157.858,1553.496,157.858z
	 M1553.496,105.858c-3.72,0-6.73-3.014-6.73-6.732s3.016-6.732,6.73-6.732c3.718,0,6.731,3.014,6.731,6.732
	S1557.217,105.858,1553.496,105.858z M1610.066,625.861c-3.721,0-6.729-3.02-6.729-6.732c0-3.715,3.014-6.732,6.729-6.732
	s6.73,3.018,6.73,6.732C1616.796,622.841,1613.784,625.861,1610.066,625.861z M1610.066,573.861c-3.721,0-6.729-3.02-6.729-6.732
	c0-3.715,3.014-6.732,6.729-6.732s6.73,3.018,6.73,6.732C1616.796,570.841,1613.784,573.861,1610.066,573.861z M1610.066,521.861
	c-3.721,0-6.729-3.02-6.729-6.732c0-3.715,3.014-6.732,6.729-6.732s6.73,3.018,6.73,6.732
	C1616.796,518.841,1613.784,521.861,1610.066,521.861z M1610.066,469.859c-3.721,0-6.729-3.019-6.729-6.732s3.014-6.732,6.729-6.732
	s6.73,3.019,6.73,6.732C1616.798,466.842,1613.784,469.859,1610.066,469.859z M1610.066,417.859c-3.721,0-6.729-3.017-6.729-6.73
	c0-3.717,3.014-6.732,6.729-6.732s6.73,3.017,6.73,6.732C1616.798,414.842,1613.784,417.859,1610.066,417.859z M1610.066,365.858
	c-3.721,0-6.729-3.015-6.729-6.732s3.014-6.732,6.729-6.732s6.73,3.015,6.73,6.732
	C1616.798,362.843,1613.784,365.858,1610.066,365.858z M1610.066,313.858c-3.721,0-6.729-3.014-6.729-6.732s3.014-6.732,6.729-6.732
	s6.73,3.014,6.73,6.732C1616.798,310.844,1613.784,313.858,1610.066,313.858z M1610.066,261.858c-3.721,0-6.729-3.014-6.729-6.732
	s3.014-6.732,6.729-6.732s6.73,3.014,6.73,6.732C1616.798,258.844,1613.784,261.858,1610.066,261.858z M1610.066,209.858
	c-3.721,0-6.729-3.014-6.729-6.732s3.014-6.732,6.729-6.732s6.73,3.014,6.73,6.732
	C1616.798,206.844,1613.784,209.858,1610.066,209.858z M1610.066,157.858c-3.721,0-6.729-3.014-6.729-6.732s3.014-6.732,6.729-6.732
	s6.73,3.014,6.73,6.732C1616.798,154.844,1613.784,157.858,1610.066,157.858z M1610.066,105.858c-3.721,0-6.729-3.014-6.729-6.732
	s3.014-6.732,6.729-6.732s6.73,3.014,6.73,6.732C1616.798,102.844,1613.784,105.858,1610.066,105.858z M1610.066,53.858
	c-3.721,0-6.729-3.014-6.729-6.732s3.014-6.732,6.729-6.732s6.73,3.014,6.73,6.732C1616.798,50.844,1613.784,53.858,1610.066,53.858
	z M1666.636,573.861c-3.718,0-6.729-3.02-6.729-6.732c0-3.715,3.017-6.732,6.729-6.732c3.722,0,6.73,3.018,6.73,6.732
	C1673.366,570.841,1670.355,573.861,1666.636,573.861z M1666.636,521.861c-3.718,0-6.729-3.02-6.729-6.732
	c0-3.715,3.017-6.732,6.729-6.732c3.722,0,6.73,3.018,6.73,6.732C1673.366,518.841,1670.355,521.861,1666.636,521.861z
	 M1666.636,469.859c-3.718,0-6.729-3.019-6.729-6.732s3.017-6.732,6.729-6.732c3.722,0,6.73,3.019,6.73,6.732
	C1673.368,466.842,1670.355,469.859,1666.636,469.859z M1666.636,417.859c-3.718,0-6.729-3.017-6.729-6.73
	c0-3.717,3.017-6.732,6.729-6.732c3.722,0,6.73,3.017,6.73,6.732C1673.368,414.842,1670.355,417.859,1666.636,417.859z
	 M1666.636,365.858c-3.718,0-6.729-3.015-6.729-6.732s3.017-6.732,6.729-6.732c3.722,0,6.73,3.015,6.73,6.732
	C1673.368,362.843,1670.355,365.858,1666.636,365.858z M1666.636,313.858c-3.718,0-6.729-3.014-6.729-6.732s3.017-6.732,6.729-6.732
	c3.722,0,6.73,3.014,6.73,6.732C1673.368,310.844,1670.355,313.858,1666.636,313.858z M1666.636,261.858
	c-3.718,0-6.729-3.014-6.729-6.732s3.017-6.732,6.729-6.732c3.722,0,6.73,3.014,6.73,6.732
	C1673.368,258.844,1670.355,261.858,1666.636,261.858z M1666.636,209.858c-3.718,0-6.729-3.014-6.729-6.732s3.017-6.732,6.729-6.732
	c3.722,0,6.73,3.014,6.73,6.732C1673.368,206.844,1670.355,209.858,1666.636,209.858z M1666.636,157.858
	c-3.718,0-6.729-3.014-6.729-6.732s3.017-6.732,6.729-6.732c3.722,0,6.73,3.014,6.73,6.732
	C1673.368,154.844,1670.355,157.858,1666.636,157.858z M1666.636,105.858c-3.718,0-6.729-3.014-6.729-6.732s3.017-6.732,6.729-6.732
	c3.722,0,6.73,3.014,6.73,6.732C1673.368,102.844,1670.355,105.858,1666.636,105.858z M1666.636,53.858
	c-3.718,0-6.729-3.014-6.729-6.732s3.017-6.732,6.729-6.732c3.722,0,6.73,3.014,6.73,6.732
	C1673.368,50.844,1670.355,53.858,1666.636,53.858z M1723.207,573.861c-3.72,0-6.73-3.02-6.73-6.732c0-3.715,3.016-6.732,6.73-6.732
	c3.718,0,6.731,3.018,6.731,6.732C1729.939,570.841,1726.927,573.861,1723.207,573.861z M1723.207,521.861
	c-3.72,0-6.73-3.02-6.73-6.732c0-3.715,3.016-6.732,6.73-6.732c3.718,0,6.731,3.018,6.731,6.732
	C1729.939,518.841,1726.927,521.861,1723.207,521.861z M1723.207,469.859c-3.72,0-6.73-3.019-6.73-6.732s3.016-6.732,6.73-6.732
	c3.718,0,6.731,3.019,6.731,6.732S1726.927,469.859,1723.207,469.859z M1723.207,417.859c-3.72,0-6.73-3.017-6.73-6.73
	c0-3.717,3.016-6.732,6.73-6.732c3.718,0,6.731,3.017,6.731,6.732C1729.939,414.842,1726.927,417.859,1723.207,417.859z
	 M1723.207,365.858c-3.72,0-6.73-3.015-6.73-6.732s3.016-6.732,6.73-6.732c3.718,0,6.731,3.015,6.731,6.732
	S1726.927,365.858,1723.207,365.858z M1723.207,313.858c-3.72,0-6.73-3.014-6.73-6.732s3.016-6.732,6.73-6.732
	c3.718,0,6.731,3.014,6.731,6.732S1726.927,313.858,1723.207,313.858z M1723.207,261.858c-3.72,0-6.73-3.014-6.73-6.732
	s3.016-6.732,6.73-6.732c3.718,0,6.731,3.014,6.731,6.732S1726.927,261.858,1723.207,261.858z M1723.207,209.858
	c-3.72,0-6.73-3.014-6.73-6.732s3.016-6.732,6.73-6.732c3.718,0,6.731,3.014,6.731,6.732S1726.927,209.858,1723.207,209.858z
	 M1723.207,157.858c-3.72,0-6.73-3.014-6.73-6.732s3.016-6.732,6.73-6.732c3.718,0,6.731,3.014,6.731,6.732
	S1726.927,157.858,1723.207,157.858z M1723.207,105.858c-3.72,0-6.73-3.014-6.73-6.732s3.016-6.732,6.73-6.732
	c3.718,0,6.731,3.014,6.731,6.732S1726.927,105.858,1723.207,105.858z M1723.207,53.858c-3.72,0-6.73-3.014-6.73-6.732
	s3.016-6.732,6.73-6.732c3.718,0,6.731,3.014,6.731,6.732S1726.927,53.858,1723.207,53.858z M1779.777,573.861
	c-3.72,0-6.729-3.02-6.729-6.732c0-3.715,3.015-6.732,6.729-6.732c3.718,0,6.73,3.018,6.73,6.732
	C1786.507,570.841,1783.496,573.861,1779.777,573.861z M1779.777,521.861c-3.72,0-6.729-3.02-6.729-6.732
	c0-3.715,3.015-6.732,6.729-6.732c3.718,0,6.73,3.018,6.73,6.732C1786.507,518.841,1783.496,521.861,1779.777,521.861z
	 M1779.777,469.859c-3.72,0-6.729-3.019-6.729-6.732s3.015-6.732,6.729-6.732c3.718,0,6.73,3.019,6.73,6.732
	C1786.509,466.842,1783.496,469.859,1779.777,469.859z M1779.777,417.859c-3.72,0-6.729-3.017-6.729-6.73
	c0-3.717,3.015-6.732,6.729-6.732c3.718,0,6.73,3.017,6.73,6.732C1786.509,414.842,1783.496,417.859,1779.777,417.859z
	 M1779.777,365.858c-3.72,0-6.729-3.015-6.729-6.732s3.015-6.732,6.729-6.732c3.718,0,6.73,3.015,6.73,6.732
	C1786.509,362.843,1783.496,365.858,1779.777,365.858z M1779.777,313.858c-3.72,0-6.729-3.014-6.729-6.732s3.015-6.732,6.729-6.732
	c3.718,0,6.73,3.014,6.73,6.732C1786.509,310.844,1783.496,313.858,1779.777,313.858z M1779.777,261.858
	c-3.72,0-6.729-3.014-6.729-6.732s3.015-6.732,6.729-6.732c3.718,0,6.73,3.014,6.73,6.732
	C1786.509,258.844,1783.496,261.858,1779.777,261.858z M1779.777,209.858c-3.72,0-6.729-3.014-6.729-6.732s3.015-6.732,6.729-6.732
	c3.718,0,6.73,3.014,6.73,6.732C1786.509,206.844,1783.496,209.858,1779.777,209.858z M1779.777,157.858
	c-3.72,0-6.729-3.014-6.729-6.732s3.015-6.732,6.729-6.732c3.718,0,6.73,3.014,6.73,6.732
	C1786.509,154.844,1783.496,157.858,1779.777,157.858z M1779.777,105.858c-3.72,0-6.729-3.014-6.729-6.732s3.015-6.732,6.729-6.732
	c3.718,0,6.73,3.014,6.73,6.732C1786.509,102.844,1783.496,105.858,1779.777,105.858z M1779.777,53.858
	c-3.72,0-6.729-3.014-6.729-6.732s3.015-6.732,6.729-6.732c3.718,0,6.73,3.014,6.73,6.732
	C1786.509,50.844,1783.496,53.858,1779.777,53.858z M1836.348,573.861c-3.719,0-6.73-3.02-6.73-6.732
	c0-3.715,3.017-6.732,6.73-6.732c3.72,0,6.732,3.018,6.732,6.732C1843.08,570.841,1840.066,573.861,1836.348,573.861z
	 M1836.348,521.861c-3.719,0-6.73-3.02-6.73-6.732c0-3.715,3.017-6.732,6.73-6.732c3.72,0,6.732,3.018,6.732,6.732
	C1843.08,518.841,1840.066,521.861,1836.348,521.861z M1836.348,469.859c-3.719,0-6.73-3.019-6.73-6.732s3.017-6.732,6.73-6.732
	c3.72,0,6.732,3.019,6.732,6.732S1840.066,469.859,1836.348,469.859z M1836.348,417.859c-3.719,0-6.73-3.017-6.73-6.73
	c0-3.717,3.017-6.732,6.73-6.732c3.72,0,6.732,3.017,6.732,6.732C1843.08,414.842,1840.066,417.859,1836.348,417.859z
	 M1836.348,365.858c-3.719,0-6.73-3.015-6.73-6.732s3.017-6.732,6.73-6.732c3.72,0,6.732,3.015,6.732,6.732
	S1840.066,365.858,1836.348,365.858z M1836.348,313.858c-3.719,0-6.73-3.014-6.73-6.732s3.017-6.732,6.73-6.732
	c3.72,0,6.732,3.014,6.732,6.732S1840.066,313.858,1836.348,313.858z M1836.348,261.858c-3.719,0-6.73-3.014-6.73-6.732
	s3.017-6.732,6.73-6.732c3.72,0,6.732,3.014,6.732,6.732S1840.066,261.858,1836.348,261.858z M1836.348,209.858
	c-3.719,0-6.73-3.014-6.73-6.732s3.017-6.732,6.73-6.732c3.72,0,6.732,3.014,6.732,6.732S1840.066,209.858,1836.348,209.858z
	 M1836.348,157.858c-3.719,0-6.73-3.014-6.73-6.732s3.017-6.732,6.73-6.732c3.72,0,6.732,3.014,6.732,6.732
	S1840.066,157.858,1836.348,157.858z M1836.348,105.858c-3.719,0-6.73-3.014-6.73-6.732s3.017-6.732,6.73-6.732
	c3.72,0,6.732,3.014,6.732,6.732S1840.066,105.858,1836.348,105.858z M1836.348,53.858c-3.719,0-6.73-3.014-6.73-6.732
	s3.017-6.732,6.73-6.732c3.72,0,6.732,3.014,6.732,6.732S1840.066,53.858,1836.348,53.858z M1892.92,573.861
	c-3.722,0-6.73-3.02-6.73-6.732c0-3.715,3.016-6.732,6.73-6.732s6.729,3.018,6.729,6.732
	C1899.65,570.841,1896.637,573.861,1892.92,573.861z M1892.92,521.861c-3.722,0-6.73-3.02-6.73-6.732
	c0-3.715,3.016-6.732,6.73-6.732s6.729,3.018,6.729,6.732C1899.65,518.841,1896.637,521.861,1892.92,521.861z M1892.92,469.859
	c-3.722,0-6.73-3.019-6.73-6.732s3.016-6.732,6.73-6.732s6.729,3.019,6.729,6.732S1896.637,469.859,1892.92,469.859z
	 M1892.92,417.859c-3.722,0-6.73-3.017-6.73-6.73c0-3.717,3.016-6.732,6.73-6.732s6.729,3.017,6.729,6.732
	C1899.65,414.842,1896.637,417.859,1892.92,417.859z M1892.92,365.858c-3.722,0-6.73-3.015-6.73-6.732s3.016-6.732,6.73-6.732
	s6.729,3.015,6.729,6.732S1896.637,365.858,1892.92,365.858z M1892.92,313.858c-3.722,0-6.73-3.014-6.73-6.732
	s3.016-6.732,6.73-6.732s6.729,3.014,6.729,6.732S1896.637,313.858,1892.92,313.858z M1892.92,261.858
	c-3.722,0-6.73-3.014-6.73-6.732s3.016-6.732,6.73-6.732s6.729,3.014,6.729,6.732S1896.637,261.858,1892.92,261.858z
	 M1892.92,209.858c-3.722,0-6.73-3.014-6.73-6.732s3.016-6.732,6.73-6.732s6.729,3.014,6.729,6.732
	S1896.637,209.858,1892.92,209.858z M1892.92,157.858c-3.722,0-6.73-3.014-6.73-6.732s3.016-6.732,6.73-6.732
	s6.729,3.014,6.729,6.732S1896.637,157.858,1892.92,157.858z M1892.92,105.858c-3.722,0-6.73-3.014-6.73-6.732
	s3.016-6.732,6.73-6.732s6.729,3.014,6.729,6.732S1896.637,105.858,1892.92,105.858z M1892.92,53.858
	c-3.722,0-6.73-3.014-6.73-6.732s3.016-6.732,6.73-6.732s6.729,3.014,6.729,6.732S1896.637,53.858,1892.92,53.858z
	 M1949.488,573.861c-3.72,0-6.729-3.02-6.729-6.732c0-3.715,3.015-6.732,6.729-6.732c3.718,0,6.73,3.018,6.73,6.732
	C1956.218,570.841,1953.207,573.861,1949.488,573.861z M1949.488,521.861c-3.72,0-6.729-3.02-6.729-6.732
	c0-3.715,3.015-6.732,6.729-6.732c3.718,0,6.73,3.018,6.73,6.732C1956.218,518.841,1953.207,521.861,1949.488,521.861z
	 M1949.488,469.859c-3.72,0-6.729-3.019-6.729-6.732s3.015-6.732,6.729-6.732c3.718,0,6.73,3.019,6.73,6.732
	S1953.207,469.859,1949.488,469.859z M1949.488,417.859c-3.72,0-6.729-3.017-6.729-6.73c0-3.717,3.015-6.732,6.729-6.732
	c3.718,0,6.73,3.017,6.73,6.732C1956.219,414.842,1953.207,417.859,1949.488,417.859z M1949.488,365.858
	c-3.72,0-6.729-3.015-6.729-6.732s3.015-6.732,6.729-6.732c3.718,0,6.73,3.015,6.73,6.732
	C1956.219,362.843,1953.207,365.858,1949.488,365.858z M1949.488,313.858c-3.72,0-6.729-3.014-6.729-6.732s3.015-6.732,6.729-6.732
	c3.718,0,6.73,3.014,6.73,6.732C1956.219,310.844,1953.207,313.858,1949.488,313.858z M1949.488,261.858
	c-3.72,0-6.729-3.014-6.729-6.732s3.015-6.732,6.729-6.732c3.718,0,6.73,3.014,6.73,6.732
	C1956.219,258.844,1953.207,261.858,1949.488,261.858z M1949.488,209.858c-3.72,0-6.729-3.014-6.729-6.732s3.015-6.732,6.729-6.732
	c3.718,0,6.73,3.014,6.73,6.732C1956.219,206.844,1953.207,209.858,1949.488,209.858z M1949.488,157.858
	c-3.72,0-6.729-3.014-6.729-6.732s3.015-6.732,6.729-6.732c3.718,0,6.73,3.014,6.73,6.732
	C1956.219,154.844,1953.207,157.858,1949.488,157.858z M1949.488,105.858c-3.72,0-6.729-3.014-6.729-6.732s3.015-6.732,6.729-6.732
	c3.718,0,6.73,3.014,6.73,6.732C1956.219,102.844,1953.207,105.858,1949.488,105.858z M1949.488,53.858
	c-3.72,0-6.729-3.014-6.729-6.732s3.015-6.732,6.729-6.732c3.718,0,6.73,3.014,6.73,6.732
	C1956.219,50.844,1953.207,53.858,1949.488,53.858z M2006.06,573.861c-3.721,0-6.732-3.02-6.732-6.732
	c0-3.715,3.017-6.732,6.732-6.732s6.729,3.018,6.729,6.732C2012.789,570.841,2009.777,573.861,2006.06,573.861z M2006.06,521.861
	c-3.721,0-6.732-3.02-6.732-6.732c0-3.715,3.017-6.732,6.732-6.732s6.729,3.018,6.729,6.732
	C2012.789,518.841,2009.777,521.861,2006.06,521.861z M2006.06,469.859c-3.721,0-6.732-3.019-6.732-6.732s3.017-6.732,6.732-6.732
	s6.729,3.019,6.729,6.732S2009.777,469.859,2006.06,469.859z M2006.06,417.859c-3.721,0-6.732-3.017-6.732-6.73
	c0-3.717,3.017-6.732,6.732-6.732s6.729,3.017,6.729,6.732C2012.789,414.842,2009.777,417.859,2006.06,417.859z M2006.06,365.858
	c-3.721,0-6.732-3.015-6.732-6.732s3.017-6.732,6.732-6.732s6.729,3.015,6.729,6.732S2009.777,365.858,2006.06,365.858z
	 M2006.06,313.858c-3.721,0-6.732-3.014-6.732-6.732s3.017-6.732,6.732-6.732s6.729,3.014,6.729,6.732
	S2009.777,313.858,2006.06,313.858z M2006.06,261.858c-3.721,0-6.732-3.014-6.732-6.732s3.017-6.732,6.732-6.732
	s6.729,3.014,6.729,6.732S2009.777,261.858,2006.06,261.858z M2006.06,209.858c-3.721,0-6.732-3.014-6.732-6.732
	s3.017-6.732,6.732-6.732s6.729,3.014,6.729,6.732S2009.777,209.858,2006.06,209.858z M2006.06,157.858
	c-3.721,0-6.732-3.014-6.732-6.732s3.017-6.732,6.732-6.732s6.729,3.014,6.729,6.732S2009.777,157.858,2006.06,157.858z
	 M2006.06,105.858c-3.721,0-6.732-3.014-6.732-6.732s3.017-6.732,6.732-6.732s6.729,3.014,6.729,6.732
	S2009.777,105.858,2006.06,105.858z M2006.06,53.858c-3.721,0-6.732-3.014-6.732-6.732s3.017-6.732,6.732-6.732
	s6.729,3.014,6.729,6.732S2009.777,53.858,2006.06,53.858z M2062.631,521.861c-3.721,0-6.73-3.02-6.73-6.732
	c0-3.715,3.016-6.732,6.73-6.732c3.718,0,6.729,3.018,6.729,6.732C2069.361,518.841,2066.349,521.861,2062.631,521.861z
	 M2062.631,469.859c-3.721,0-6.73-3.019-6.73-6.732s3.016-6.732,6.73-6.732c3.718,0,6.729,3.019,6.729,6.732
	S2066.349,469.859,2062.631,469.859z M2062.631,417.859c-3.721,0-6.73-3.017-6.73-6.73c0-3.717,3.016-6.732,6.73-6.732
	c3.718,0,6.729,3.017,6.729,6.732C2069.361,414.842,2066.349,417.859,2062.631,417.859z M2062.631,365.858
	c-3.721,0-6.73-3.015-6.73-6.732s3.016-6.732,6.73-6.732c3.718,0,6.729,3.015,6.729,6.732S2066.349,365.858,2062.631,365.858z
	 M2062.631,313.858c-3.721,0-6.73-3.014-6.73-6.732s3.016-6.732,6.73-6.732c3.718,0,6.729,3.014,6.729,6.732
	S2066.349,313.858,2062.631,313.858z M2062.631,261.858c-3.721,0-6.73-3.014-6.73-6.732s3.016-6.732,6.73-6.732
	c3.718,0,6.729,3.014,6.729,6.732S2066.349,261.858,2062.631,261.858z M2062.631,209.858c-3.721,0-6.73-3.014-6.73-6.732
	s3.016-6.732,6.73-6.732c3.718,0,6.729,3.014,6.729,6.732S2066.349,209.858,2062.631,209.858z M2062.631,157.858
	c-3.721,0-6.73-3.014-6.73-6.732s3.016-6.732,6.73-6.732c3.718,0,6.729,3.014,6.729,6.732S2066.349,157.858,2062.631,157.858z
	 M2062.631,105.858c-3.721,0-6.73-3.014-6.73-6.732s3.016-6.732,6.73-6.732c3.718,0,6.729,3.014,6.729,6.732
	S2066.349,105.858,2062.631,105.858z M2062.631,53.858c-3.721,0-6.73-3.014-6.73-6.732s3.016-6.732,6.73-6.732
	c3.718,0,6.729,3.014,6.729,6.732S2066.349,53.858,2062.631,53.858z M2119.198,365.858c-3.72,0-6.729-3.015-6.729-6.732
	s3.015-6.732,6.729-6.732c3.718,0,6.73,3.015,6.73,6.732S2122.918,365.858,2119.198,365.858z M2119.198,313.858
	c-3.72,0-6.729-3.014-6.729-6.732s3.015-6.732,6.729-6.732c3.718,0,6.73,3.014,6.73,6.732S2122.918,313.858,2119.198,313.858z
	 M2119.198,261.858c-3.72,0-6.729-3.014-6.729-6.732s3.015-6.732,6.729-6.732c3.718,0,6.73,3.014,6.73,6.732
	S2122.918,261.858,2119.198,261.858z M2119.198,209.858c-3.72,0-6.729-3.014-6.729-6.732s3.015-6.732,6.729-6.732
	c3.718,0,6.73,3.014,6.73,6.732S2122.918,209.858,2119.198,209.858z M2119.198,157.858c-3.72,0-6.729-3.014-6.729-6.732
	s3.015-6.732,6.729-6.732c3.718,0,6.73,3.014,6.73,6.732S2122.918,157.858,2119.198,157.858z M2119.198,105.858
	c-3.72,0-6.729-3.014-6.729-6.732s3.015-6.732,6.729-6.732c3.718,0,6.73,3.014,6.73,6.732S2122.918,105.858,2119.198,105.858z
	 M2119.198,53.858c-3.72,0-6.729-3.014-6.729-6.732s3.015-6.732,6.729-6.732c3.718,0,6.73,3.014,6.73,6.732
	S2122.918,53.858,2119.198,53.858z M2175.769,261.858c-3.72,0-6.731-3.014-6.731-6.732s3.017-6.732,6.731-6.732
	c3.719,0,6.731,3.014,6.731,6.732S2179.488,261.858,2175.769,261.858z M2175.769,209.858c-3.72,0-6.731-3.014-6.731-6.732
	s3.017-6.732,6.731-6.732c3.719,0,6.731,3.014,6.731,6.732S2179.488,209.858,2175.769,209.858z M2175.769,157.858
	c-3.72,0-6.731-3.014-6.731-6.732s3.017-6.732,6.731-6.732c3.719,0,6.731,3.014,6.731,6.732S2179.488,157.858,2175.769,157.858z
	 M2175.769,105.858c-3.72,0-6.731-3.014-6.731-6.732s3.017-6.732,6.731-6.732c3.719,0,6.731,3.014,6.731,6.732
	S2179.488,105.858,2175.769,105.858z M2175.769,53.858c-3.72,0-6.731-3.014-6.731-6.732s3.017-6.732,6.731-6.732
	c3.719,0,6.731,3.014,6.731,6.732S2179.488,53.858,2175.769,53.858z M2232.342,105.858c-3.721,0-6.73-3.014-6.73-6.732
	s3.016-6.732,6.73-6.732c3.718,0,6.729,3.014,6.729,6.732S2236.06,105.858,2232.342,105.858z M2232.342,53.858
	c-3.721,0-6.73-3.014-6.73-6.732s3.016-6.732,6.73-6.732c3.718,0,6.729,3.014,6.729,6.732S2236.06,53.858,2232.342,53.858z"/>
</svg>
