<?xml version="1.0" encoding="utf-8"?>
<!-- Generator: Adobe Illustrator 16.0.0, SVG Export Plug-In . SVG Version: 6.00 Build 0)  -->
<!DOCTYPE svg PUBLIC "-//W3C//DTD SVG 1.1//EN" "http://www.w3.org/Graphics/SVG/1.1/DTD/svg11.dtd">
<svg version="1.1" id="Layer_1" xmlns="http://www.w3.org/2000/svg" xmlns:xlink="http://www.w3.org/1999/xlink" x="0px" y="0px"
	 width="2334.078px" height="1099.119px" viewBox="0 0 2334.078 1099.119" enable-background="new 0 0 2334.078 1099.119"
	 xml:space="preserve">
<path fill="none" stroke="#000001" stroke-linejoin="round" stroke-miterlimit="10" d="M111.1,148.858
	c3.718,0,6.73,3.014,6.73,6.732c0,3.718-3.014,6.732-6.73,6.732c-3.72,0-6.732-3.014-6.732-6.732
	C104.368,151.872,107.382,148.858,111.1,148.858z M111.1,96.858c3.718,0,6.73,3.014,6.73,6.732c0,3.718-3.014,6.732-6.73,6.732
	c-3.72,0-6.732-3.014-6.732-6.732C104.368,99.872,107.382,96.858,111.1,96.858z M167.67,304.858c3.72,0,6.732,3.014,6.732,6.732
	c0,3.718-3.014,6.732-6.732,6.732c-3.718,0-6.73-3.014-6.73-6.732C160.938,307.872,163.952,304.858,167.67,304.858z M167.67,252.858
	c3.72,0,6.732,3.014,6.732,6.732c0,3.718-3.014,6.732-6.732,6.732c-3.718,0-6.73-3.014-6.73-6.732
	C160.938,255.872,163.952,252.858,167.67,252.858z M167.67,200.858c3.72,0,6.732,3.014,6.732,6.732c0,3.718-3.014,6.732-6.732,6.732
	c-3.718,0-6.73-3.014-6.73-6.732C160.938,203.872,163.952,200.858,167.67,200.858z M167.67,148.858c3.72,0,6.732,3.014,6.732,6.732
	c0,3.718-3.014,6.732-6.732,6.732c-3.718,0-6.73-3.014-6.73-6.732C160.938,151.872,163.952,148.858,167.67,148.858z M167.67,96.858
	c3.72,0,6.732,3.014,6.732,6.732c0,3.718-3.014,6.732-6.732,6.732c-3.718,0-6.73-3.014-6.73-6.732
	C160.938,99.872,163.952,96.858,167.67,96.858z M224.24,408.86c3.718,0,6.731,3.014,6.731,6.731c0,3.718-3.015,6.731-6.731,6.731
	s-6.731-3.014-6.731-6.731C217.509,411.874,220.522,408.86,224.24,408.86z M224.24,356.858c3.718,0,6.732,3.014,6.732,6.732
	c0,3.718-3.016,6.732-6.732,6.732s-6.732-3.014-6.732-6.732C217.508,359.872,220.522,356.858,224.24,356.858z M224.24,304.858
	c3.718,0,6.732,3.014,6.732,6.732c0,3.718-3.016,6.732-6.732,6.732s-6.732-3.014-6.732-6.732
	C217.508,307.872,220.522,304.858,224.24,304.858z M224.24,252.858c3.718,0,6.732,3.014,6.732,6.732
	c0,3.718-3.016,6.732-6.732,6.732s-6.732-3.014-6.732-6.732C217.508,255.872,220.522,252.858,224.24,252.858z M224.24,200.858
	c3.718,0,6.732,3.014,6.732,6.732c0,3.718-3.016,6.732-6.732,6.732s-6.732-3.014-6.732-6.732
	C217.508,203.872,220.522,200.858,224.24,200.858z M224.24,148.858c3.718,0,6.732,3.014,6.732,6.732
	c0,3.718-3.016,6.732-6.732,6.732s-6.732-3.014-6.732-6.732C217.508,151.872,220.522,148.858,224.24,148.858z M224.24,96.858
	c3.718,0,6.732,3.014,6.732,6.732c0,3.718-3.016,6.732-6.732,6.732s-6.732-3.014-6.732-6.732
	C217.508,99.872,220.522,96.858,224.24,96.858z M280.811,578.322c-3.723,0-6.731-3.021-6.731-6.732s3.018-6.729,6.731-6.729
	s6.729,3.016,6.729,6.729C287.543,575.31,284.529,578.322,280.811,578.322z M280.811,526.322c-3.723,0-6.731-3.021-6.731-6.732
	s3.018-6.729,6.731-6.729s6.729,3.016,6.729,6.729C287.543,523.309,284.529,526.322,280.811,526.322z M280.811,460.862
	c3.717,0,6.729,3.013,6.729,6.729s-3.013,6.73-6.729,6.73s-6.73-3.015-6.73-6.73S277.094,460.862,280.811,460.862z M280.811,408.86
	c3.717,0,6.729,3.014,6.729,6.731c0,3.718-3.014,6.731-6.729,6.731c-3.718,0-6.731-3.014-6.731-6.731
	C274.08,411.874,277.094,408.86,280.811,408.86z M280.811,356.858c3.718,0,6.73,3.014,6.73,6.732c0,3.718-3.014,6.732-6.73,6.732
	s-6.732-3.014-6.732-6.732C274.079,359.872,277.094,356.858,280.811,356.858z M280.811,304.858c3.718,0,6.73,3.014,6.73,6.732
	c0,3.718-3.014,6.732-6.73,6.732s-6.732-3.014-6.732-6.732C274.079,307.872,277.094,304.858,280.811,304.858z M280.811,252.858
	c3.718,0,6.73,3.014,6.73,6.732c0,3.718-3.014,6.732-6.73,6.732s-6.732-3.014-6.732-6.732
	C274.079,255.872,277.094,252.858,280.811,252.858z M280.811,200.858c3.718,0,6.73,3.014,6.73,6.732c0,3.718-3.014,6.732-6.73,6.732
	s-6.732-3.014-6.732-6.732C274.079,203.872,277.094,200.858,280.811,200.858z M280.811,148.858c3.718,0,6.73,3.014,6.73,6.732
	c0,3.718-3.014,6.732-6.73,6.732s-6.732-3.014-6.732-6.732C274.079,151.872,277.094,148.858,280.811,148.858z M280.811,96.858
	c3.718,0,6.73,3.014,6.73,6.732c0,3.718-3.014,6.732-6.73,6.732s-6.732-3.014-6.732-6.732
	C274.079,99.872,277.094,96.858,280.811,96.858z M337.384,630.322c-3.724,0-6.731-3.021-6.731-6.732s3.015-6.729,6.731-6.729
	s6.729,3.016,6.729,6.729C344.113,627.31,341.1,630.322,337.384,630.322z M337.384,578.322c-3.724,0-6.731-3.021-6.731-6.732
	s3.015-6.729,6.731-6.729s6.729,3.016,6.729,6.729C344.113,575.31,341.1,578.322,337.384,578.322z M337.384,526.322
	c-3.724,0-6.731-3.021-6.731-6.732s3.015-6.729,6.731-6.729s6.729,3.016,6.729,6.729C344.113,523.309,341.1,526.322,337.384,526.322
	z M337.384,460.862c3.717,0,6.729,3.013,6.729,6.729s-3.013,6.73-6.729,6.73c-3.717,0-6.73-3.015-6.73-6.73
	S333.666,460.862,337.384,460.862z M337.384,408.86c3.717,0,6.729,3.014,6.729,6.731c0,3.718-3.014,6.731-6.729,6.731
	c-3.719,0-6.731-3.014-6.731-6.731C330.651,411.874,333.665,408.86,337.384,408.86z M337.384,356.858c3.718,0,6.73,3.014,6.73,6.732
	c0,3.718-3.014,6.732-6.73,6.732c-3.72,0-6.732-3.014-6.732-6.732C330.65,359.872,333.664,356.858,337.384,356.858z
	 M337.384,304.858c3.718,0,6.73,3.014,6.73,6.732c0,3.718-3.014,6.732-6.73,6.732c-3.72,0-6.732-3.014-6.732-6.732
	C330.65,307.872,333.664,304.858,337.384,304.858z M337.384,252.858c3.718,0,6.73,3.014,6.73,6.732c0,3.718-3.014,6.732-6.73,6.732
	c-3.72,0-6.732-3.014-6.732-6.732C330.65,255.872,333.664,252.858,337.384,252.858z M337.384,200.858c3.718,0,6.73,3.014,6.73,6.732
	c0,3.718-3.014,6.732-6.73,6.732c-3.72,0-6.732-3.014-6.732-6.732C330.65,203.872,333.664,200.858,337.384,200.858z
	 M337.384,148.858c3.718,0,6.73,3.014,6.73,6.732c0,3.718-3.014,6.732-6.73,6.732c-3.72,0-6.732-3.014-6.732-6.732
	C330.65,151.872,333.664,148.858,337.384,148.858z M337.384,96.858c3.718,0,6.73,3.014,6.73,6.732c0,3.718-3.014,6.732-6.73,6.732
	c-3.72,0-6.732-3.014-6.732-6.732C330.65,99.872,333.664,96.858,337.384,96.858z M393.951,630.322c-3.721,0-6.729-3.021-6.729-6.732
	s3.015-6.729,6.729-6.729c3.722,0,6.729,3.016,6.729,6.729C400.683,627.31,397.674,630.322,393.951,630.322z M393.951,578.322
	c-3.721,0-6.729-3.021-6.729-6.732s3.015-6.729,6.729-6.729c3.722,0,6.729,3.016,6.729,6.729
	C400.683,575.31,397.674,578.322,393.951,578.322z M393.951,526.322c-3.721,0-6.729-3.021-6.729-6.732s3.015-6.729,6.729-6.729
	c3.722,0,6.729,3.016,6.729,6.729C400.683,523.309,397.674,526.322,393.951,526.322z M393.951,474.322
	c-3.721,0-6.729-3.021-6.729-6.732s3.015-6.729,6.729-6.729c3.722,0,6.729,3.014,6.729,6.729
	C400.683,471.309,397.674,474.322,393.951,474.322z M393.951,422.322c-3.721,0-6.729-3.016-6.729-6.732
	c0-3.716,3.015-6.73,6.729-6.73c3.722,0,6.729,3.014,6.729,6.73C400.681,419.306,397.674,422.322,393.951,422.322z M393.951,370.322
	c-3.721,0-6.729-3.015-6.729-6.732c0-3.717,3.015-6.731,6.729-6.731c3.722,0,6.729,3.014,6.729,6.731
	C400.682,367.308,397.674,370.322,393.951,370.322z M393.951,318.322c-3.721,0-6.729-3.015-6.729-6.732
	c0-3.717,3.015-6.732,6.729-6.732c3.722,0,6.729,3.013,6.729,6.732C400.682,315.309,397.674,318.322,393.951,318.322z
	 M393.951,266.322c-3.721,0-6.729-3.014-6.729-6.732c0-3.718,3.015-6.732,6.729-6.732c3.722,0,6.729,3.014,6.729,6.732
	C400.683,263.308,397.674,266.322,393.951,266.322z M393.951,214.322c-3.721,0-6.729-3.014-6.729-6.732
	c0-3.718,3.015-6.732,6.729-6.732c3.722,0,6.729,3.014,6.729,6.732C400.683,211.308,397.674,214.322,393.951,214.322z
	 M393.951,162.322c-3.721,0-6.729-3.014-6.729-6.732c0-3.718,3.015-6.732,6.729-6.732c3.722,0,6.729,3.014,6.729,6.732
	C400.683,159.308,397.674,162.322,393.951,162.322z M393.951,110.322c-3.721,0-6.729-3.014-6.729-6.732
	c0-3.718,3.015-6.732,6.729-6.732c3.722,0,6.729,3.014,6.729,6.732C400.683,107.308,397.674,110.322,393.951,110.322z
	 M450.521,630.322c-3.721,0-6.73-3.021-6.73-6.732s3.019-6.729,6.73-6.729c3.72,0,6.73,3.016,6.73,6.729
	C457.258,627.31,454.24,630.322,450.521,630.322z M450.521,578.322c-3.721,0-6.73-3.021-6.73-6.732s3.019-6.729,6.73-6.729
	c3.72,0,6.73,3.016,6.73,6.729C457.258,575.31,454.24,578.322,450.521,578.322z M450.521,526.322c-3.721,0-6.73-3.021-6.73-6.732
	s3.019-6.729,6.73-6.729c3.72,0,6.73,3.016,6.73,6.729C457.258,523.309,454.24,526.322,450.521,526.322z M450.521,474.322
	c-3.721,0-6.73-3.021-6.73-6.732s3.019-6.729,6.73-6.729c3.72,0,6.73,3.014,6.73,6.729
	C457.257,471.309,454.24,474.322,450.521,474.322z M450.521,422.322c-3.721,0-6.73-3.016-6.73-6.732c0-3.716,3.019-6.73,6.73-6.73
	c3.72,0,6.73,3.014,6.73,6.73C457.255,419.306,454.24,422.322,450.521,422.322z M450.521,370.322c-3.721,0-6.73-3.015-6.73-6.732
	c0-3.717,3.019-6.731,6.73-6.731c3.72,0,6.73,3.014,6.73,6.731C457.257,367.308,454.24,370.322,450.521,370.322z M450.521,318.322
	c-3.721,0-6.73-3.015-6.73-6.732c0-3.717,3.019-6.732,6.73-6.732c3.72,0,6.73,3.013,6.73,6.732
	C457.257,315.309,454.24,318.322,450.521,318.322z M450.521,266.322c-3.721,0-6.73-3.014-6.73-6.732c0-3.718,3.019-6.732,6.73-6.732
	c3.72,0,6.73,3.014,6.73,6.732C457.257,263.308,454.24,266.322,450.521,266.322z M450.521,214.322c-3.721,0-6.73-3.014-6.73-6.732
	c0-3.718,3.019-6.732,6.73-6.732c3.72,0,6.73,3.014,6.73,6.732C457.257,211.308,454.24,214.322,450.521,214.322z M450.521,162.322
	c-3.721,0-6.73-3.014-6.73-6.732c0-3.718,3.019-6.732,6.73-6.732c3.72,0,6.73,3.014,6.73,6.732
	C457.257,159.308,454.24,162.322,450.521,162.322z M450.521,110.322c-3.721,0-6.73-3.014-6.73-6.732c0-3.718,3.019-6.732,6.73-6.732
	c3.72,0,6.73,3.014,6.73,6.732C457.257,107.308,454.24,110.322,450.521,110.322z M507.094,630.322c-3.724,0-6.729-3.021-6.729-6.732
	s3.019-6.729,6.729-6.729s6.729,3.016,6.729,6.729C513.824,627.31,510.81,630.322,507.094,630.322z M507.094,578.322
	c-3.724,0-6.729-3.021-6.729-6.732s3.019-6.729,6.729-6.729s6.729,3.016,6.729,6.729C513.824,575.31,510.81,578.322,507.094,578.322
	z M507.094,526.322c-3.724,0-6.729-3.021-6.729-6.732s3.019-6.729,6.729-6.729s6.729,3.016,6.729,6.729
	C513.824,523.309,510.81,526.322,507.094,526.322z M507.094,460.862c3.717,0,6.729,3.013,6.729,6.729s-3.013,6.73-6.729,6.73
	s-6.73-3.015-6.73-6.73S503.378,460.862,507.094,460.862z M507.094,408.86c3.717,0,6.729,3.014,6.729,6.731
	c0,3.718-3.014,6.731-6.729,6.731c-3.719,0-6.731-3.014-6.731-6.731C500.362,411.874,503.377,408.86,507.094,408.86z
	 M507.094,356.858c3.718,0,6.73,3.014,6.73,6.732c0,3.718-3.014,6.732-6.73,6.732s-6.732-3.014-6.732-6.732
	C500.361,359.872,503.377,356.858,507.094,356.858z M507.094,304.858c3.718,0,6.73,3.014,6.73,6.732c0,3.718-3.014,6.732-6.73,6.732
	s-6.732-3.014-6.732-6.732C500.361,307.872,503.377,304.858,507.094,304.858z M507.094,252.858c3.718,0,6.73,3.014,6.73,6.732
	c0,3.718-3.014,6.732-6.73,6.732s-6.732-3.014-6.732-6.732C500.361,255.872,503.377,252.858,507.094,252.858z M507.094,200.858
	c3.718,0,6.73,3.014,6.73,6.732c0,3.718-3.014,6.732-6.73,6.732s-6.732-3.014-6.732-6.732
	C500.361,203.872,503.377,200.858,507.094,200.858z M507.094,148.858c3.718,0,6.73,3.014,6.73,6.732c0,3.718-3.014,6.732-6.73,6.732
	s-6.732-3.014-6.732-6.732C500.361,151.872,503.377,148.858,507.094,148.858z M507.094,96.858c3.718,0,6.73,3.014,6.73,6.732
	c0,3.718-3.014,6.732-6.73,6.732s-6.732-3.014-6.732-6.732C500.361,99.872,503.377,96.858,507.094,96.858z M563.662,630.322
	c-3.719,0-6.729-3.021-6.729-6.732s3.018-6.729,6.729-6.729c3.719,0,6.729,3.016,6.729,6.729
	C570.394,627.31,567.384,630.322,563.662,630.322z M563.662,578.322c-3.719,0-6.729-3.021-6.729-6.732s3.018-6.729,6.729-6.729
	c3.719,0,6.729,3.016,6.729,6.729C570.394,575.31,567.384,578.322,563.662,578.322z M563.662,526.322
	c-3.719,0-6.729-3.021-6.729-6.732s3.018-6.729,6.729-6.729c3.719,0,6.729,3.016,6.729,6.729
	C570.394,523.309,567.384,526.322,563.662,526.322z M563.662,474.322c-3.719,0-6.729-3.021-6.729-6.732s3.018-6.729,6.729-6.729
	c3.719,0,6.729,3.014,6.729,6.729C570.394,471.309,567.384,474.322,563.662,474.322z M563.662,422.322
	c-3.719,0-6.729-3.016-6.729-6.732c0-3.716,3.018-6.73,6.729-6.73c3.719,0,6.729,3.014,6.729,6.73
	C570.392,419.306,567.384,422.322,563.662,422.322z M563.662,370.322c-3.719,0-6.729-3.015-6.729-6.732
	c0-3.717,3.018-6.731,6.729-6.731c3.719,0,6.729,3.014,6.729,6.731C570.393,367.308,567.384,370.322,563.662,370.322z
	 M563.662,318.322c-3.719,0-6.729-3.015-6.729-6.732c0-3.717,3.018-6.732,6.729-6.732c3.719,0,6.729,3.013,6.729,6.732
	C570.393,315.309,567.384,318.322,563.662,318.322z M563.662,266.322c-3.719,0-6.729-3.014-6.729-6.732
	c0-3.718,3.018-6.732,6.729-6.732c3.719,0,6.729,3.014,6.729,6.732C570.394,263.308,567.384,266.322,563.662,266.322z
	 M563.662,214.322c-3.719,0-6.729-3.014-6.729-6.732c0-3.718,3.018-6.732,6.729-6.732c3.719,0,6.729,3.014,6.729,6.732
	C570.394,211.308,567.384,214.322,563.662,214.322z M563.662,162.322c-3.719,0-6.729-3.014-6.729-6.732
	c0-3.718,3.018-6.732,6.729-6.732c3.719,0,6.729,3.014,6.729,6.732C570.394,159.308,567.384,162.322,563.662,162.322z
	 M563.662,110.322c-3.719,0-6.729-3.014-6.729-6.732c0-3.718,3.018-6.732,6.729-6.732c3.719,0,6.729,3.014,6.729,6.732
	C570.394,107.308,567.384,110.322,563.662,110.322z M620.233,682.322c-3.722,0-6.729-3.021-6.729-6.732s3.014-6.729,6.729-6.729
	c3.719,0,6.729,3.016,6.729,6.729C626.968,679.31,623.951,682.322,620.233,682.322z M620.233,630.322
	c-3.722,0-6.729-3.021-6.729-6.732s3.014-6.729,6.729-6.729c3.719,0,6.729,3.016,6.729,6.729
	C626.968,627.31,623.951,630.322,620.233,630.322z M620.233,578.322c-3.722,0-6.729-3.021-6.729-6.732s3.014-6.729,6.729-6.729
	c3.719,0,6.729,3.016,6.729,6.729C626.968,575.31,623.951,578.322,620.233,578.322z M620.233,526.322
	c-3.722,0-6.729-3.021-6.729-6.732s3.014-6.729,6.729-6.729c3.719,0,6.729,3.016,6.729,6.729
	C626.968,523.309,623.951,526.322,620.233,526.322z M620.233,474.322c-3.722,0-6.729-3.021-6.729-6.732s3.014-6.729,6.729-6.729
	c3.719,0,6.729,3.014,6.729,6.729C626.968,471.309,623.951,474.322,620.233,474.322z M620.233,422.322
	c-3.722,0-6.729-3.016-6.729-6.732c0-3.716,3.014-6.73,6.729-6.73c3.719,0,6.729,3.014,6.729,6.73
	C626.966,419.306,623.951,422.322,620.233,422.322z M620.233,370.322c-3.722,0-6.729-3.015-6.729-6.732
	c0-3.717,3.014-6.731,6.729-6.731c3.719,0,6.729,3.014,6.729,6.731C626.968,367.308,623.951,370.322,620.233,370.322z
	 M620.233,318.322c-3.722,0-6.729-3.015-6.729-6.732c0-3.717,3.014-6.732,6.729-6.732c3.719,0,6.729,3.013,6.729,6.732
	C626.968,315.309,623.951,318.322,620.233,318.322z M620.233,266.322c-3.722,0-6.729-3.014-6.729-6.732
	c0-3.718,3.014-6.732,6.729-6.732c3.719,0,6.729,3.014,6.729,6.732C626.968,263.308,623.951,266.322,620.233,266.322z
	 M620.233,214.322c-3.722,0-6.729-3.014-6.729-6.732c0-3.718,3.014-6.732,6.729-6.732c3.719,0,6.729,3.014,6.729,6.732
	C626.968,211.308,623.951,214.322,620.233,214.322z M620.233,162.322c-3.722,0-6.729-3.014-6.729-6.732
	c0-3.718,3.014-6.732,6.729-6.732c3.719,0,6.729,3.014,6.729,6.732C626.968,159.308,623.951,162.322,620.233,162.322z
	 M676.802,682.322c-3.72,0-6.729-3.021-6.729-6.732s3.019-6.729,6.729-6.729s6.729,3.016,6.729,6.729
	C683.535,679.31,680.521,682.322,676.802,682.322z M676.802,630.322c-3.72,0-6.729-3.021-6.729-6.732s3.019-6.729,6.729-6.729
	s6.729,3.016,6.729,6.729C683.535,627.31,680.521,630.322,676.802,630.322z M676.802,578.322c-3.72,0-6.729-3.021-6.729-6.732
	s3.019-6.729,6.729-6.729s6.729,3.016,6.729,6.729C683.535,575.31,680.521,578.322,676.802,578.322z M676.802,526.322
	c-3.72,0-6.729-3.021-6.729-6.732s3.019-6.729,6.729-6.729s6.729,3.016,6.729,6.729
	C683.535,523.309,680.521,526.322,676.802,526.322z M676.802,460.862c3.717,0,6.729,3.013,6.729,6.729s-3.013,6.73-6.729,6.73
	s-6.73-3.015-6.73-6.73S673.087,460.862,676.802,460.862z M676.802,408.86c3.717,0,6.729,3.014,6.729,6.731
	c0,3.718-3.014,6.731-6.729,6.731c-3.718,0-6.731-3.014-6.731-6.731C670.071,411.874,673.086,408.86,676.802,408.86z
	 M676.802,356.858c3.718,0,6.73,3.014,6.73,6.732c0,3.718-3.014,6.732-6.73,6.732c-3.718,0-6.732-3.014-6.732-6.732
	C670.07,359.872,673.086,356.858,676.802,356.858z M676.802,304.858c3.718,0,6.73,3.014,6.73,6.732c0,3.718-3.014,6.732-6.73,6.732
	c-3.718,0-6.732-3.014-6.732-6.732C670.07,307.872,673.086,304.858,676.802,304.858z M676.802,252.858
	c3.718,0,6.73,3.014,6.73,6.732c0,3.718-3.014,6.732-6.73,6.732c-3.718,0-6.732-3.014-6.732-6.732
	C670.07,255.872,673.086,252.858,676.802,252.858z M676.802,200.858c3.718,0,6.73,3.014,6.73,6.732c0,3.718-3.014,6.732-6.73,6.732
	c-3.718,0-6.732-3.014-6.732-6.732C670.07,203.872,673.086,200.858,676.802,200.858z M676.802,148.858
	c3.718,0,6.73,3.014,6.73,6.732c0,3.718-3.014,6.732-6.73,6.732c-3.718,0-6.732-3.014-6.732-6.732
	C670.07,151.872,673.086,148.858,676.802,148.858z M733.373,682.322c-3.719,0-6.729-3.021-6.729-6.732s3.018-6.729,6.729-6.729
	c3.719,0,6.729,3.016,6.729,6.729C740.105,679.31,737.094,682.322,733.373,682.322z M733.373,630.322
	c-3.719,0-6.729-3.021-6.729-6.732s3.018-6.729,6.729-6.729c3.719,0,6.729,3.016,6.729,6.729
	C740.105,627.31,737.094,630.322,733.373,630.322z M733.373,578.322c-3.719,0-6.729-3.021-6.729-6.732s3.018-6.729,6.729-6.729
	c3.719,0,6.729,3.016,6.729,6.729C740.105,575.31,737.094,578.322,733.373,578.322z M733.373,526.322
	c-3.719,0-6.729-3.021-6.729-6.732s3.018-6.729,6.729-6.729c3.719,0,6.729,3.016,6.729,6.729
	C740.105,523.309,737.094,526.322,733.373,526.322z M733.373,474.322c-3.719,0-6.729-3.021-6.729-6.732s3.018-6.729,6.729-6.729
	c3.719,0,6.729,3.014,6.729,6.729C740.105,471.309,737.094,474.322,733.373,474.322z M733.373,422.322
	c-3.719,0-6.729-3.016-6.729-6.732c0-3.716,3.018-6.73,6.729-6.73c3.719,0,6.729,3.014,6.729,6.73
	C740.103,419.306,737.094,422.322,733.373,422.322z M733.373,370.322c-3.719,0-6.729-3.015-6.729-6.732
	c0-3.717,3.018-6.731,6.729-6.731c3.719,0,6.729,3.014,6.729,6.731C740.103,367.307,737.094,370.322,733.373,370.322z
	 M733.373,318.322c-3.719,0-6.729-3.015-6.729-6.732c0-3.717,3.018-6.732,6.729-6.732c3.719,0,6.729,3.013,6.729,6.732
	C740.103,315.309,737.094,318.322,733.373,318.322z M733.373,266.322c-3.719,0-6.729-3.014-6.729-6.732
	c0-3.718,3.018-6.732,6.729-6.732c3.719,0,6.729,3.014,6.729,6.732C740.105,263.308,737.094,266.322,733.373,266.322z
	 M733.373,214.322c-3.719,0-6.729-3.014-6.729-6.732c0-3.718,3.018-6.732,6.729-6.732c3.719,0,6.729,3.014,6.729,6.732
	C740.105,211.308,737.094,214.322,733.373,214.322z M733.373,162.322c-3.719,0-6.729-3.014-6.729-6.732
	c0-3.718,3.018-6.732,6.729-6.732c3.719,0,6.729,3.014,6.729,6.732C740.105,159.308,737.094,162.322,733.373,162.322z
	 M789.944,682.322c-3.723,0-6.729-3.021-6.729-6.732s3.014-6.729,6.729-6.729s6.729,3.016,6.729,6.729
	C796.677,679.31,793.662,682.322,789.944,682.322z M789.944,630.322c-3.723,0-6.729-3.021-6.729-6.732s3.014-6.729,6.729-6.729
	s6.729,3.016,6.729,6.729C796.677,627.31,793.662,630.322,789.944,630.322z M789.944,578.322c-3.723,0-6.729-3.021-6.729-6.732
	s3.014-6.729,6.729-6.729s6.729,3.016,6.729,6.729C796.677,575.31,793.662,578.322,789.944,578.322z M789.944,526.322
	c-3.723,0-6.729-3.021-6.729-6.732s3.014-6.729,6.729-6.729s6.729,3.016,6.729,6.729
	C796.677,523.309,793.662,526.322,789.944,526.322z M789.944,474.322c-3.723,0-6.729-3.021-6.729-6.732s3.014-6.729,6.729-6.729
	s6.729,3.014,6.729,6.729C796.677,471.309,793.662,474.322,789.944,474.322z M789.944,422.322c-3.723,0-6.729-3.016-6.729-6.732
	c0-3.716,3.014-6.73,6.729-6.73s6.729,3.014,6.729,6.73C796.677,419.306,793.662,422.322,789.944,422.322z M789.944,370.322
	c-3.723,0-6.729-3.015-6.729-6.732c0-3.717,3.014-6.731,6.729-6.731s6.729,3.014,6.729,6.731
	C796.677,367.308,793.662,370.322,789.944,370.322z M789.944,318.322c-3.723,0-6.729-3.015-6.729-6.732
	c0-3.717,3.014-6.732,6.729-6.732s6.729,3.013,6.729,6.732C796.677,315.309,793.662,318.322,789.944,318.322z M789.944,266.322
	c-3.723,0-6.729-3.014-6.729-6.732c0-3.718,3.014-6.732,6.729-6.732s6.729,3.014,6.729,6.732
	C796.677,263.308,793.662,266.322,789.944,266.322z M789.944,214.322c-3.723,0-6.729-3.014-6.729-6.732
	c0-3.718,3.014-6.732,6.729-6.732s6.729,3.014,6.729,6.732C796.677,211.308,793.662,214.322,789.944,214.322z M789.944,162.322
	c-3.723,0-6.729-3.014-6.729-6.732c0-3.718,3.014-6.732,6.729-6.732s6.729,3.014,6.729,6.732
	C796.677,159.308,793.662,162.322,789.944,162.322z M846.513,682.322c-3.719,0-6.729-3.021-6.729-6.732s3.019-6.729,6.729-6.729
	c3.716,0,6.729,3.016,6.729,6.729C853.246,679.31,850.233,682.322,846.513,682.322z M846.513,630.322
	c-3.719,0-6.729-3.021-6.729-6.732s3.019-6.729,6.729-6.729c3.716,0,6.729,3.016,6.729,6.729
	C853.246,627.31,850.233,630.322,846.513,630.322z M846.513,578.322c-3.719,0-6.729-3.021-6.729-6.732s3.019-6.729,6.729-6.729
	c3.716,0,6.729,3.016,6.729,6.729C853.246,575.31,850.233,578.322,846.513,578.322z M846.513,526.322
	c-3.719,0-6.729-3.021-6.729-6.732s3.019-6.729,6.729-6.729c3.716,0,6.729,3.016,6.729,6.729
	C853.246,523.309,850.233,526.322,846.513,526.322z M846.513,460.862c3.717,0,6.729,3.013,6.729,6.729s-3.013,6.73-6.729,6.73
	s-6.73-3.015-6.73-6.73S842.798,460.862,846.513,460.862z M846.513,408.86c3.717,0,6.729,3.014,6.729,6.731
	c0,3.718-3.014,6.731-6.729,6.731c-3.718,0-6.731-3.014-6.731-6.731C839.782,411.874,842.797,408.86,846.513,408.86z
	 M846.513,356.858c3.718,0,6.73,3.014,6.73,6.732c0,3.718-3.014,6.732-6.73,6.732s-6.732-3.014-6.732-6.732
	C839.781,359.872,842.797,356.858,846.513,356.858z M846.513,304.858c3.718,0,6.73,3.014,6.73,6.732c0,3.718-3.014,6.732-6.73,6.732
	s-6.732-3.014-6.732-6.732C839.781,307.872,842.797,304.858,846.513,304.858z M846.513,252.858c3.718,0,6.73,3.014,6.73,6.732
	c0,3.718-3.014,6.732-6.73,6.732s-6.732-3.014-6.732-6.732C839.781,255.872,842.797,252.858,846.513,252.858z M846.513,200.858
	c3.718,0,6.73,3.014,6.73,6.732c0,3.718-3.014,6.732-6.73,6.732s-6.732-3.014-6.732-6.732
	C839.781,203.872,842.797,200.858,846.513,200.858z M903.088,734.322c-3.724,0-6.732-3.021-6.732-6.732s3.018-6.729,6.732-6.729
	c3.714,0,6.729,3.016,6.729,6.729C909.817,731.31,906.802,734.322,903.088,734.322z M903.088,682.322
	c-3.724,0-6.732-3.021-6.732-6.732s3.018-6.729,6.732-6.729c3.714,0,6.729,3.016,6.729,6.729
	C909.817,679.31,906.802,682.322,903.088,682.322z M903.088,630.322c-3.724,0-6.732-3.021-6.732-6.732s3.018-6.729,6.732-6.729
	c3.714,0,6.729,3.016,6.729,6.729C909.817,627.31,906.802,630.322,903.088,630.322z M903.088,578.322
	c-3.724,0-6.732-3.021-6.732-6.732s3.018-6.729,6.732-6.729c3.714,0,6.729,3.016,6.729,6.729
	C909.817,575.31,906.802,578.322,903.088,578.322z M903.088,526.322c-3.724,0-6.732-3.021-6.732-6.732s3.018-6.729,6.732-6.729
	c3.714,0,6.729,3.016,6.729,6.729C909.817,523.309,906.802,526.322,903.088,526.322z M903.088,474.322
	c-3.724,0-6.732-3.021-6.732-6.732s3.018-6.729,6.732-6.729c3.714,0,6.729,3.014,6.729,6.729
	C909.817,471.309,906.802,474.322,903.088,474.322z M903.088,422.322c-3.724,0-6.732-3.016-6.732-6.732
	c0-3.716,3.018-6.73,6.732-6.73c3.714,0,6.729,3.014,6.729,6.73C909.816,419.306,906.802,422.322,903.088,422.322z M903.088,370.322
	c-3.724,0-6.732-3.015-6.732-6.732c0-3.717,3.018-6.731,6.732-6.731c3.714,0,6.729,3.014,6.729,6.731
	C909.816,367.307,906.802,370.322,903.088,370.322z M903.088,318.322c-3.724,0-6.732-3.015-6.732-6.732
	c0-3.717,3.018-6.732,6.732-6.732c3.714,0,6.729,3.013,6.729,6.732C909.816,315.309,906.802,318.322,903.088,318.322z
	 M903.088,266.322c-3.724,0-6.732-3.014-6.732-6.732c0-3.718,3.018-6.732,6.732-6.732c3.714,0,6.729,3.014,6.729,6.732
	C909.817,263.308,906.802,266.322,903.088,266.322z M959.655,734.322c-3.723,0-6.729-3.021-6.729-6.732s3.016-6.729,6.729-6.729
	s6.729,3.016,6.729,6.729C966.386,731.31,963.373,734.322,959.655,734.322z M959.655,682.322c-3.723,0-6.729-3.021-6.729-6.732
	s3.016-6.729,6.729-6.729s6.729,3.016,6.729,6.729C966.386,679.31,963.373,682.322,959.655,682.322z M959.655,630.322
	c-3.723,0-6.729-3.021-6.729-6.732s3.016-6.729,6.729-6.729s6.729,3.016,6.729,6.729
	C966.386,627.31,963.373,630.322,959.655,630.322z M959.655,578.322c-3.723,0-6.729-3.021-6.729-6.732s3.016-6.729,6.729-6.729
	s6.729,3.016,6.729,6.729C966.386,575.31,963.373,578.322,959.655,578.322z M959.655,526.322c-3.723,0-6.729-3.021-6.729-6.732
	s3.016-6.729,6.729-6.729s6.729,3.016,6.729,6.729C966.386,523.309,963.373,526.322,959.655,526.322z M959.655,474.322
	c-3.723,0-6.729-3.021-6.729-6.732s3.016-6.729,6.729-6.729s6.729,3.014,6.729,6.729
	C966.386,471.309,963.373,474.322,959.655,474.322z M959.655,422.322c-3.723,0-6.729-3.016-6.729-6.732
	c0-3.716,3.016-6.73,6.729-6.73s6.729,3.014,6.729,6.73C966.385,419.306,963.373,422.322,959.655,422.322z M959.655,370.322
	c-3.723,0-6.729-3.015-6.729-6.732c0-3.717,3.016-6.731,6.729-6.731s6.729,3.014,6.729,6.731
	C966.385,367.308,963.373,370.322,959.655,370.322z M1016.224,734.322c-3.719,0-6.729-3.021-6.729-6.732s3.019-6.729,6.729-6.729
	c3.72,0,6.729,3.016,6.729,6.729C1022.957,731.31,1019.944,734.322,1016.224,734.322z M1016.224,682.322
	c-3.719,0-6.729-3.021-6.729-6.732s3.019-6.729,6.729-6.729c3.72,0,6.729,3.016,6.729,6.729
	C1022.957,679.31,1019.944,682.322,1016.224,682.322z M1016.224,630.322c-3.719,0-6.729-3.021-6.729-6.732s3.019-6.729,6.729-6.729
	c3.72,0,6.729,3.016,6.729,6.729C1022.957,627.31,1019.944,630.322,1016.224,630.322z M1016.224,578.322
	c-3.719,0-6.729-3.021-6.729-6.732s3.019-6.729,6.729-6.729c3.72,0,6.729,3.016,6.729,6.729
	C1022.957,575.31,1019.944,578.322,1016.224,578.322z M1016.224,526.322c-3.719,0-6.729-3.021-6.729-6.732s3.019-6.729,6.729-6.729
	c3.72,0,6.729,3.016,6.729,6.729C1022.957,523.309,1019.944,526.322,1016.224,526.322z M1016.224,474.322
	c-3.719,0-6.729-3.021-6.729-6.732s3.019-6.729,6.729-6.729c3.72,0,6.729,3.014,6.729,6.729
	C1022.956,471.309,1019.944,474.322,1016.224,474.322z M1016.224,422.322c-3.719,0-6.729-3.016-6.729-6.732
	c0-3.716,3.019-6.73,6.729-6.73c3.72,0,6.729,3.014,6.729,6.73C1022.955,419.306,1019.944,422.322,1016.224,422.322z
	 M1072.799,734.322c-3.724,0-6.732-3.021-6.732-6.732s3.018-6.729,6.732-6.729c3.714,0,6.729,3.016,6.729,6.729
	C1079.528,731.31,1076.513,734.322,1072.799,734.322z M1072.799,682.322c-3.724,0-6.732-3.021-6.732-6.732s3.018-6.729,6.732-6.729
	c3.714,0,6.729,3.016,6.729,6.729C1079.528,679.31,1076.513,682.322,1072.799,682.322z M1072.799,630.322
	c-3.724,0-6.732-3.021-6.732-6.732s3.018-6.729,6.732-6.729c3.714,0,6.729,3.016,6.729,6.729
	C1079.528,627.31,1076.513,630.322,1072.799,630.322z M1072.799,578.322c-3.724,0-6.732-3.021-6.732-6.732s3.018-6.729,6.732-6.729
	c3.714,0,6.729,3.016,6.729,6.729C1079.528,575.31,1076.513,578.322,1072.799,578.322z M1072.799,526.322
	c-3.724,0-6.732-3.021-6.732-6.732s3.018-6.729,6.732-6.729c3.714,0,6.729,3.016,6.729,6.729
	C1079.528,523.309,1076.513,526.322,1072.799,526.322z M1129.365,786.322c-3.723,0-6.729-3.021-6.729-6.732s3.015-6.729,6.729-6.729
	s6.729,3.016,6.729,6.729C1136.097,783.31,1133.085,786.322,1129.365,786.322z M1129.365,734.322c-3.723,0-6.729-3.021-6.729-6.732
	s3.015-6.729,6.729-6.729s6.729,3.016,6.729,6.729C1136.097,731.31,1133.085,734.322,1129.365,734.322z M1129.365,682.322
	c-3.723,0-6.729-3.021-6.729-6.732s3.015-6.729,6.729-6.729s6.729,3.016,6.729,6.729
	C1136.097,679.31,1133.085,682.322,1129.365,682.322z M1129.365,630.322c-3.723,0-6.729-3.021-6.729-6.732s3.015-6.729,6.729-6.729
	s6.729,3.016,6.729,6.729C1136.097,627.31,1133.085,630.322,1129.365,630.322z M1129.365,578.322c-3.723,0-6.729-3.021-6.729-6.732
	s3.015-6.729,6.729-6.729s6.729,3.016,6.729,6.729C1136.097,575.31,1133.085,578.322,1129.365,578.322z M1185.936,734.322
	c-3.721,0-6.73-3.021-6.73-6.732s3.019-6.729,6.73-6.729c3.719,0,6.73,3.016,6.73,6.729
	C1192.669,731.31,1189.655,734.322,1185.936,734.322z M1185.936,682.322c-3.721,0-6.73-3.021-6.73-6.732s3.019-6.729,6.73-6.729
	c3.719,0,6.73,3.016,6.73,6.729C1192.669,679.31,1189.655,682.322,1185.936,682.322z M1185.936,630.322
	c-3.721,0-6.73-3.021-6.73-6.732s3.019-6.729,6.73-6.729c3.719,0,6.73,3.016,6.73,6.729
	C1192.669,627.31,1189.655,630.322,1185.936,630.322z M1242.51,682.322c-3.724,0-6.732-3.021-6.732-6.732s3.015-6.729,6.732-6.729
	c3.717,0,6.729,3.016,6.729,6.729C1249.239,679.31,1246.225,682.322,1242.51,682.322z M1153.249,806.477
	c0-2.93-3.271-4.597-5.646-5.249c-3.854-1.055-7.697,0.472-11.361,1.55c-6.562,2.442-14.236,2.611-23.486-0.438
	c-133.681-31.832-289.687-65.838-454.188-100.051c-92.869-17.322-236.224-45.467-337.918-25.229
	c-12.099,1.017-25.474-1.438-29.463-11.846C210.976,473.408,134.192,273.843,63.029,77.377
	c-5.479-8.673-14.002-17.211-25.143-15.742v0.003c-2.16,0.473-4.403,0.723-6.705,0.723C13.96,62.362,0,48.402,0,31.181
	C0,13.96,13.96,0,31.181,0c15.465,0,28.301,11.259,30.757,26.028h-0.003c1.438,5.906,3.873,11.763,8.622,15.78
	c5.015,4.241,10.897,5.042,17.146,6.237l643.854,49.058c77.062,11.403,118.977,44.725,147.604,85.923l53.892,69.29
	c99.754,154.819,221.858,295.71,359.832,426.72c0.893,0.716,1.662,1.438,2.3,2.177l-0.004-0.004
	c6.021,6.458,14.104,11.654,23.293,9.729l-0.003-0.005c1.953-0.666,4.135-0.629,6.66,0.826c1.252,0.729,5.748,2.95,7.229,3.874
	c12.146,7.594,38.562,15.331,73.258,19.522c52.392,6.336,121.033,6.431,167.134,0.33c159.549-11.895,310.284-27.636,454.782-58.604
	c0.437-0.096,0.854-0.169,1.246-0.263c8.854-2.03,6.793,2.847-0.192,6.435l-189.818,76.769c-4.47,1.565-1.49,9.021,4.035,6.836
	c155.645-55.37,291.524-107.141,454.122-143.49c7.312-1.316,22.771-4.562,27.646-4.301c10.846,0.583,16.443,13-5.785,34.59
	c-117.604,79.01-278.434,240.479-377.979,394.729c-13.387,16.131-29.822,43.252-46.476,60.312
	c-10.991,11.257-15.614,14.79-31.323,4.614c-69.396-43.522-157.684-93.639-239.959-128.366
	c-153.256-66.261-307.687-116.462-457.709-151.796c-6.388-2.047-11.968-3.754-12.095-6.466L1153.249,806.477L1153.249,806.477z"/>
</svg>
