<?xml version="1.0" encoding="utf-8"?>
<!-- Generator: Adobe Illustrator 16.0.0, SVG Export Plug-In . SVG Version: 6.00 Build 0)  -->
<!DOCTYPE svg PUBLIC "-//W3C//DTD SVG 1.1//EN" "http://www.w3.org/Graphics/SVG/1.1/DTD/svg11.dtd">
<svg version="1.1" id="Layer_1" xmlns="http://www.w3.org/2000/svg" xmlns:xlink="http://www.w3.org/1999/xlink" x="0px" y="0px"
	 width="1874.132px" height="810.473px" viewBox="0 0 1874.132 810.473" enable-background="new 0 0 1874.132 810.473"
	 xml:space="preserve">
<path fill="none" stroke="#000000" stroke-linejoin="round" stroke-miterlimit="10" d="M6.401,705.93
	c5.564,3.791,49.552,33.592,56.631,38.355c7.57,5.094,14.013,4.928,21.588,0.543c59.706-34.551,493.286-274.984,585.101-302.891
	c4.235-1.283,3.89-4.056,1.983-5.488c-1.985-1.504-3.646-2.744-6.771-5.045c-3.76-2.773-10.484-3.449-17.151-2.746
	c-84.205,8.871-200.38,60.529-349.368,99.598c-45.582,11.951-124.02-5.486-131.167-81.473c-2.161-22.949,1.16-73.651,1.894-85.61
	c0.697-11.353-6.019-15.851-11.873-3.344C152.624,367.745,4.327,686.795,1.207,693.5C-1.715,699.788,0.923,702.202,6.401,705.93z
	 M826.456,392.715c-212.093,107.229-220.584,79.53-538.298,262.856c-4.235,2.438-2.053,5.696,1.833,5.145
	c156.164-22.207,497.021-92.479,514.489-96.332c18.47-4.076,52.791-9.602,75.407-12.492
	c24.325-3.106,986.838-126.252,991.485-126.782c3.133-0.363,3.459-1.953,1.678-4.939c-36.781-61.672-188.258-242.63-302.855-335.618
	c-26.805-21.748-31.072-46.038-11.746-76.372c5.133-8.054-0.713-10.433-6.787-5.911
	C1441.931,83.938,1065.568,271.826,826.456,392.715z M872.146,431.438c-4.361,12.855-18.322,19.742-31.187,15.382
	c-12.854-4.361-19.745-18.322-15.382-31.185c4.363-12.857,18.325-19.746,31.183-15.385
	C869.625,404.616,876.51,418.577,872.146,431.438z M1746.113,391.75c4.889-14.403,20.527-22.119,34.932-17.23
	c14.404,4.887,22.119,20.525,17.23,34.932c-4.891,14.401-20.525,22.117-34.932,17.229
	C1748.937,421.793,1741.224,406.155,1746.113,391.75z"/>
</svg>
