<?xml version="1.0" encoding="utf-8"?>
<!-- Generator: Adobe Illustrator 16.0.0, SVG Export Plug-In . SVG Version: 6.00 Build 0)  -->
<!DOCTYPE svg PUBLIC "-//W3C//DTD SVG 1.1//EN" "http://www.w3.org/Graphics/SVG/1.1/DTD/svg11.dtd">
<svg version="1.1" id="Layer_1" xmlns="http://www.w3.org/2000/svg" xmlns:xlink="http://www.w3.org/1999/xlink" x="0px" y="0px"
	 width="1874.132px" height="810.473px" viewBox="0 0 1874.132 810.473" enable-background="new 0 0 1874.132 810.473"
	 xml:space="preserve">
<path fill="none" stroke="#000001" stroke-linejoin="round" stroke-miterlimit="10" d="M872.146,431.438
	c-4.361,12.855-18.322,19.742-31.187,15.382c-12.854-4.361-19.745-18.322-15.382-31.185c4.363-12.856,18.325-19.746,31.183-15.385
	C869.625,404.616,876.51,418.577,872.146,431.438z"/>
<path fill="none" stroke="#000001" stroke-linejoin="round" stroke-miterlimit="10" d="M1746.113,391.75
	c4.889-14.403,20.527-22.119,34.932-17.23c14.404,4.888,22.119,20.525,17.23,34.933c-4.891,14.401-20.525,22.117-34.932,17.229
	C1748.937,421.793,1741.224,406.155,1746.113,391.75z"/>
<path fill="none" stroke="#000001" stroke-linejoin="round" stroke-miterlimit="10" d="M285.861,658.293
	c-0.156,1.562,1.636,2.777,4.13,2.423c156.164-22.207,497.021-92.479,514.489-96.332c18.47-4.076,52.791-9.602,75.407-12.492
	c24.325-3.106,986.838-126.252,991.485-126.782c3.133-0.363,3.459-1.953,1.678-4.939c-36.781-61.672-188.258-242.63-302.855-335.618
	c-26.805-21.748-31.072-46.038-11.746-76.372c5.133-8.054-0.713-10.433-6.787-5.911c-109.73,81.669-486.094,269.557-725.206,390.446
	c-57.45,29.046-99.962,48.191-137.727,64.312c-8.705,0-15.749-8.394-15.749-18.766l0.008,0.002
	c-0.168-0.686-0.636-1.327-1.284-1.814c-1.985-1.504-3.646-2.744-6.771-5.045c-3.76-2.773-10.484-3.449-17.151-2.746
	c-84.205,8.871-200.38,60.528-349.368,99.598c-45.582,11.951-124.02-5.486-131.167-81.473c-2.161-22.949,1.16-73.651,1.894-85.61
	c0.697-11.353-6.019-15.851-11.873-3.344C152.624,367.745,4.327,686.795,1.207,693.5c-2.922,6.288-0.284,8.702,5.194,12.43
	c3.529,2.404,22.517,15.273,37.737,25.573c3.414,2.31,4.719,11.335,5.373,14.97c1.018,5.658,1.146,11.253-0.987,16.756
	c-2.079,5.36-4.486,10.145-4.486,16.063c0,17.221,13.96,31.181,31.181,31.181c17.221,0,31.181-13.96,31.181-31.181
	c0-5.013-1.211-10.006-3.544-14.446c-1.158-2.205-2.129-4.383-2.79-6.61c-0.892-3.006-1.219-6.103-0.678-9.478
	c0.885-5.521,2.678-11.537,6.294-15.915c34.013-19.181,95.836-53.505,166.856-92.09c7.37,0,13.332,7.846,13.332,17.541
	L285.861,658.293z"/>
</svg>
