<?xml version="1.0" encoding="utf-8"?>
<!-- Generator: Adobe Illustrator 16.0.0, SVG Export Plug-In . SVG Version: 6.00 Build 0)  -->
<!DOCTYPE svg PUBLIC "-//W3C//DTD SVG 1.1//EN" "http://www.w3.org/Graphics/SVG/1.1/DTD/svg11.dtd">
<svg version="1.1" id="Layer_1" xmlns="http://www.w3.org/2000/svg" xmlns:xlink="http://www.w3.org/1999/xlink" x="0px" y="0px"
	 width="982.205px" height="585.808px" viewBox="0 0 982.205 585.808" enable-background="new 0 0 982.205 585.808"
	 xml:space="preserve">
<path fill="none" stroke="#000000" stroke-linejoin="round" stroke-miterlimit="10" d="M60.341,205.688
	c-4.465-11.757-15.836-20.114-29.16-20.114C13.96,185.574,0,199.534,0,216.755c0,17.221,13.96,31.181,31.181,31.181
	c13.115,0,24.339-8.098,28.945-19.566c3.717-4.953,10.872-1.473,15.582-0.336c0.466,0.112,0.931,0.225,1.397,0.337
	c124.507,81.685,599.851,325.621,662.535,355.654c6.693,3.209,10.271,2.459,13.683-5.328
	c22.123-50.572,86.455-274.222,91.846-292.479c2.908-9.848,6.693-16.979,20.607-23.158c13.6-6.037,107.597-46.215,112.805-48.502
	c5.207-2.289,4.463-4.174-0.041-9.487c-26.67-31.472-189.633-179.586-217.62-200.366c-4.751-3.529-7.673-5.558-16.252-4.359
	C664.953,11.487,235.274,129.287,77.042,205.944c-0.625,0.083-1.243,0.222-1.864,0.328c-4.256,0.723-11.38,3.361-14.836-0.579
	L60.341,205.688z"/>
</svg>
