<?xml version="1.0" encoding="utf-8"?>
<!-- Generator: Adobe Illustrator 16.0.0, SVG Export Plug-In . SVG Version: 6.00 Build 0)  -->
<!DOCTYPE svg PUBLIC "-//W3C//DTD SVG 1.1//EN" "http://www.w3.org/Graphics/SVG/1.1/DTD/svg11.dtd">
<svg version="1.1" id="Layer_1" xmlns="http://www.w3.org/2000/svg" xmlns:xlink="http://www.w3.org/1999/xlink" x="0px" y="0px"
	 width="436.035px" height="237.314px" viewBox="0 0 436.035 237.314" enable-background="new 0 0 436.035 237.314"
	 xml:space="preserve">
<path d="M5.735,234.043c23.474-3.299,110.351-6.729,187.689,2.841c9.531,1.183,16.262,0.364,23.687-8.024
	c30.496-34.48,186.102-176.039,215.352-196.148c6.628-4.557,2.896-6.259-1.984-6.985C399.392,21.079,140.956,0.385,135.125,0.051
	c-5.834-0.335-8.104,0.924-9.731,6.312c-5.799,19.215-14.771,41.512-31.099,78.213c-16.325,36.701-50.658,90.169-58.937,100.034
	c-8.273,9.865-29.354,35.809-33.394,40.973C-2.073,230.743,0.569,234.771,5.735,234.043z"/>
</svg>
