<?xml version="1.0" encoding="utf-8"?>
<!-- Generator: Adobe Illustrator 16.0.0, SVG Export Plug-In . SVG Version: 6.00 Build 0)  -->
<!DOCTYPE svg PUBLIC "-//W3C//DTD SVG 1.1//EN" "http://www.w3.org/Graphics/SVG/1.1/DTD/svg11.dtd">
<svg version="1.1" id="Layer_1" xmlns="http://www.w3.org/2000/svg" xmlns:xlink="http://www.w3.org/1999/xlink" x="0px" y="0px"
	 width="498.398px" height="242.713px" viewBox="0 0 498.398 242.713" enable-background="new 0 0 498.398 242.713"
	 xml:space="preserve">
<path fill="none" stroke="#000000" stroke-linejoin="round" stroke-miterlimit="10" d="M5.736,239.442
	c23.472-3.299,110.349-6.729,187.69,2.84c9.531,1.182,16.261,0.365,23.686-8.025c30.496-34.479,186.101-176.039,215.351-196.148
	c6.627-4.557,2.896-6.259-1.984-6.987c-31.086-4.646-289.523-25.34-295.354-25.674c-5.834-0.335-8.105,0.923-9.732,6.312
	c-5.799,19.215-14.772,41.512-31.098,78.213c-16.326,36.701-50.659,90.17-58.935,100.034c-8.275,9.865-29.354,35.809-33.393,40.973
	C-2.073,236.142,0.57,240.169,5.736,239.442z"/>
</svg>
