<?xml version="1.0" encoding="utf-8"?>
<!-- Generator: Adobe Illustrator 16.0.0, SVG Export Plug-In . SVG Version: 6.00 Build 0)  -->
<!DOCTYPE svg PUBLIC "-//W3C//DTD SVG 1.1//EN" "http://www.w3.org/Graphics/SVG/1.1/DTD/svg11.dtd">
<svg version="1.1" id="Layer_1" xmlns="http://www.w3.org/2000/svg" xmlns:xlink="http://www.w3.org/1999/xlink" x="0px" y="0px"
	 width="1499.125px" height="522.904px" viewBox="0 0 1499.125 522.904" enable-background="new 0 0 1499.125 522.904"
	 xml:space="preserve">
<path fill="none" stroke="#000000" stroke-linejoin="round" stroke-miterlimit="10" d="M688.266,250.992
	c-23.544-36.36-47.088-72.72-70.561-109.152c-5.04-7.776-12.023-6.407-18.647-1.872c-12.672,8.713-25.772,17.28-38.88,25.849
	c-18.216,8.063-34.198,2.304-47.592-18c-6.912-9.36-13.752-18.648-20.664-27.937c-2.229-5.688-10.512-3.888-24.84,5.256
	c-62.855,32.616-155.735,76.176-278.352,130.681c-36.432,16.345-59.256,28.944-68.472,37.224
	c-25.704,21.672-48.24,48.744-67.68,80.642c-7.92,17.782,3.312,21.022,34.632,9.723c185.544-38.521,297.648-60.771,336.744-66.744
	c71.208-14.688,141.912-29.232,212.688-43.775C654.425,269.138,671.562,261.576,688.266,250.992L688.266,250.992 M911.681,296.931
	c72.437-42.771,155.021-98.643,247.537-167.547c7.486-5.688,5.615-21.888-6.049-47.88c-9.358-22.536-17.496-45.216-26.424-67.032
	c-1.08-5.903,5.328-8.136,30.527-9.576c13.606-1.367,28.295-3.168,43.057-4.896c13.031,0,29.809,4.104,49.752,12.024
	c50.832,18,92.592,32.256,125.279,42.695c15.623,6.12,54.069,12.312,114.692,17.713c17.713,6.552,9.435,16.56-24.479,30.168
	c-54.863,26.783-137.879,79.632-249.047,158.111c-48.312,32.041-96.556,64.513-144.865,96.912
	c-46.512,31.104-77.039,85.537-90.863,162.576c-0.504,3.021-0.287,2.733-3.385,2.664c-216.791-2.736-431.423-19.08-646.056-29.595
	c-3.024-0.145-3.168-1.225-4.969-3.741c-10.512-14.111-20.447-28.439-30.456-42.843c-3.168-3.237-10.656-6.266-22.248-8.276
	c-36.504-8.713-72.936-16.992-109.44-25.271c-7.632-5.545-2.592-9.434,15.265-11.809c124.2-24.841,248.256-49.681,372.24-74.593
	c96.336-2.02,193.395-4.032,290.522-6.051C873.451,317.664,897.068,309.097,911.681,296.931L911.681,296.931"/>
</svg>
