<?xml version="1.0" encoding="utf-8"?>
<!-- Generator: Adobe Illustrator 16.0.0, SVG Export Plug-In . SVG Version: 6.00 Build 0)  -->
<!DOCTYPE svg PUBLIC "-//W3C//DTD SVG 1.1//EN" "http://www.w3.org/Graphics/SVG/1.1/DTD/svg11.dtd">
<svg version="1.1" id="Layer_1" xmlns="http://www.w3.org/2000/svg" xmlns:xlink="http://www.w3.org/1999/xlink" x="0px" y="0px"
	 width="1448.992px" height="522.903px" viewBox="0 0 1448.992 522.903" enable-background="new 0 0 1448.992 522.903"
	 xml:space="preserve">
<path d="M638.137,250.992c-23.544-36.36-47.088-72.72-70.562-109.152c-5.04-7.776-12.021-6.407-18.646-1.872
	c-12.672,8.713-25.774,17.28-38.88,25.849c-18.217,8.063-34.2,2.304-47.593-18c-6.911-9.36-13.752-18.648-20.663-27.937
	c-2.23-5.688-10.515-3.888-24.842,5.256c-62.854,32.616-155.733,76.176-278.353,130.681c-36.434,16.346-59.257,28.943-68.474,37.225
	c-25.703,21.672-48.238,48.744-67.68,80.643c-7.92,17.781,3.312,21.021,34.632,9.721c185.544-38.521,297.647-60.771,336.743-66.742
	c71.208-14.688,141.912-29.231,212.688-43.775C604.297,269.137,621.433,261.576,638.137,250.992L638.137,250.992 M861.553,296.931
	c72.434-42.771,155.018-98.643,247.536-167.547c7.486-5.688,5.613-21.888-6.05-47.88c-9.358-22.536-17.495-45.216-26.426-67.032
	c-1.079-5.903,5.328-8.136,30.528-9.576c13.606-1.367,28.295-3.168,43.056-4.896c13.032,0,29.812,4.104,49.752,12.024
	c50.832,18,92.594,32.256,125.28,42.695c15.623,6.12,54.07,12.312,114.694,17.713c17.713,6.552,9.433,16.56-24.479,30.168
	c-54.86,26.783-137.88,79.632-249.048,158.111c-48.312,32.042-96.554,64.513-144.863,96.913
	c-46.514,31.104-77.04,85.537-90.861,162.576c-0.505,3.02-0.288,2.732-3.387,2.664c-216.792-2.736-431.425-19.08-646.057-29.596
	c-3.022-0.145-3.168-1.225-4.969-3.74c-10.512-14.111-20.447-28.439-30.455-42.844c-3.168-3.236-10.655-6.266-22.248-8.275
	c-36.505-8.713-72.938-16.992-109.439-25.271c-7.632-5.546-2.592-9.435,15.266-11.81c124.2-24.842,248.257-49.682,372.24-74.594
	c96.336-2.02,193.394-4.031,290.521-6.049C823.321,317.665,846.938,309.097,861.553,296.931L861.553,296.931"/>
</svg>
