<?xml version="1.0" encoding="utf-8"?>
<!-- Generator: Adobe Illustrator 16.0.0, SVG Export Plug-In . SVG Version: 6.00 Build 0)  -->
<!DOCTYPE svg PUBLIC "-//W3C//DTD SVG 1.1//EN" "http://www.w3.org/Graphics/SVG/1.1/DTD/svg11.dtd">
<svg version="1.1" id="Layer_1" xmlns="http://www.w3.org/2000/svg" xmlns:xlink="http://www.w3.org/1999/xlink" x="0px" y="0px"
	 width="1232.574px" height="573.566px" viewBox="0 0 1232.574 573.566" enable-background="new 0 0 1232.574 573.566"
	 xml:space="preserve">
<path fill="none" stroke="#000001" stroke-linejoin="round" stroke-miterlimit="10" d="M772.589,500.286l-16.238-7.089l-0.005-0.002
	c-0.604-0.211-1.254-0.468-1.961-0.768C693.349,466.524,188.538,221.215,2.79,156.388c-4.523-1.576-3.171-4.486,1.375-5.106
	c320.253-43.59,780.494-56.489,1027.721-90.436c8.545-3.193,14.723-10.214,13.333-19.707l-0.004,0.002
	c-1.054-3.128-1.625-6.478-1.625-9.96C1043.59,13.96,1057.55,0,1074.771,0c17.221,0,31.181,13.96,31.181,31.181
	c0,6.458-1.963,12.457-5.325,17.433l-0.021,0.03c-4.783,8.498-3.759,18.162,0,26.798c24.77,26.684,86.161,83.948,129.179,93.196
	c3.298,0.709,4.035,2.372,0.215,5.837c-33.189,30.212-147.34,240.143-190.203,369.646c-9.929,30.008-26.317,33.293-52.815,26.428
	c-47.314-12.26-88.835-24.5-165.654-51.227c-11.738-4.084-31.55-11.85-47.404-18.41c-0.526-0.218-1.006-0.442-1.436-0.679
	L772.589,500.286z"/>
</svg>
