<?xml version="1.0" encoding="utf-8"?>
<!-- Generator: Adobe Illustrator 16.0.0, SVG Export Plug-In . SVG Version: 6.00 Build 0)  -->
<!DOCTYPE svg PUBLIC "-//W3C//DTD SVG 1.1//EN" "http://www.w3.org/Graphics/SVG/1.1/DTD/svg11.dtd">
<svg version="1.1" id="Layer_1" xmlns="http://www.w3.org/2000/svg" xmlns:xlink="http://www.w3.org/1999/xlink" x="0px" y="0px"
	 width="692.45px" height="802.113px" viewBox="0 0 692.45 802.113" enable-background="new 0 0 692.45 802.113"
	 xml:space="preserve">
<path fill="none" stroke="#000000" stroke-linejoin="round" stroke-miterlimit="10" d="M534.729,740.694
	c-6.539-0.636-9.186-8.698-11.533-13.714c-0.979-2.084-2.115-4.093-3.213-6.112c-0.508-0.931-1.041-1.847-1.535-2.783l0.002,0.008
	c-29.959-96.895-63.062-226.919-78.156-345.193c-1.201-9.404,0.131-20.197,7.312-30.824c7.23-10.705,49.625-73.455,55.516-82.25
	c5.893-8.797,11.289-15.525,23.35-22.766c12.014-7.211,126.984-76.369,153.729-92.463c13.59-8.18,16.963-22.813,4.576-17.58
	c-12.389,5.234-172.127,72.75-177.15,74.855c-10.613,4.447-15.328,4.383-27.277-3.064c-12.191-7.6-142.148-88.168-169.167-104.875
	c-26.88-16.623-39.733-24.461-59.902-31.197C231.109,56,50.666,2.488,11.977,0.113C1.327-0.541-1.791,1.375,0.931,12.973
	C62.02,273.237,179.181,483.4,500.342,731.552l-0.002-0.001c1.67,1.858,3.445,3.647,5.188,5.439c2.479,2.554,4.998,5.076,7.428,7.68
	c2.244,2.406,4.52,5.325,3.572,8.818l-0.008,0.009c-3.363,4.977-5.326,10.976-5.326,17.434c0,17.223,13.959,31.184,31.182,31.184
	c17.221,0,31.182-13.961,31.182-31.184c0-17.221-13.961-31.182-31.182-31.182c-2.689,0-5.303,0.341-7.793,0.981L534.729,740.694z"/>
</svg>
