<?xml version="1.0" encoding="utf-8"?>
<!-- Generator: Adobe Illustrator 16.0.0, SVG Export Plug-In . SVG Version: 6.00 Build 0)  -->
<!DOCTYPE svg PUBLIC "-//W3C//DTD SVG 1.1//EN" "http://www.w3.org/Graphics/SVG/1.1/DTD/svg11.dtd">
<svg version="1.1" id="Layer_1" xmlns="http://www.w3.org/2000/svg" xmlns:xlink="http://www.w3.org/1999/xlink" x="0px" y="0px"
	 width="692.446px" height="800.465px" viewBox="0 0 692.446 800.465" enable-background="new 0 0 692.446 800.465"
	 xml:space="preserve">
<path fill="none" stroke="#000000" stroke-linejoin="round" stroke-miterlimit="10" d="M157.92,739.642
	c8.353-0.751,11.17-11.072,13.828-17.459c0.768-1.846,1.598-3.731,2.663-5.431c29.853-96.75,62.718-226.122,77.742-343.852
	c1.2-9.404-0.132-20.197-7.311-30.824c-7.232-10.705-49.626-73.455-55.516-82.25c-5.892-8.797-11.29-15.526-23.35-22.766
	c-12.009-7.211-126.986-76.369-153.721-92.463c-13.591-8.18-16.962-22.814-4.579-17.58c12.383,5.234,172.127,72.75,177.152,74.855
	c10.615,4.448,15.33,4.383,27.277-3.064c12.194-7.6,142.149-88.168,169.167-104.875c26.879-16.623,39.732-24.461,59.898-31.197
	C461.338,56,641.782,2.488,680.469,0.113c10.65-0.654,13.768,1.262,11.045,12.86c-61.135,260.475-178.438,470.766-500.191,719.182
	c-0.652,0.692-1.305,1.387-1.958,2.079c-3.031,3.214-6.264,6.228-9.299,9.433c-2.603,2.747-5.189,6.158-4.758,10.169h0.001
	c2.602,4.554,4.089,9.827,4.089,15.447c0,17.221-13.96,31.182-31.182,31.182c-17.221,0-31.182-13.961-31.182-31.182
	c0-17.223,13.96-31.184,31.182-31.184c3.387,0,6.648,0.54,9.703,1.539L157.92,739.642z"/>
</svg>
