<?xml version="1.0" encoding="utf-8"?>
<!-- Generator: Adobe Illustrator 16.0.0, SVG Export Plug-In . SVG Version: 6.00 Build 0)  -->
<!DOCTYPE svg PUBLIC "-//W3C//DTD SVG 1.1//EN" "http://www.w3.org/Graphics/SVG/1.1/DTD/svg11.dtd">
<svg version="1.1" id="Layer_1" xmlns="http://www.w3.org/2000/svg" xmlns:xlink="http://www.w3.org/1999/xlink" x="0px" y="0px"
	 width="692.445px" height="746.261px" viewBox="0 0 692.445 746.261" enable-background="new 0 0 692.445 746.261"
	 xml:space="preserve">
<path d="M680.469,0.113C641.78,2.488,461.338,56,441.171,62.736c-20.167,6.736-33.021,14.574-59.9,31.197
	c-27.016,16.707-156.972,97.275-169.166,104.875c-11.945,7.447-16.662,7.512-27.275,3.064
	c-5.024-2.105-164.771-69.621-177.151-74.855c-12.382-5.234-9.013,9.4,4.578,17.58c26.735,16.094,141.713,85.252,153.722,92.463
	c12.062,7.24,17.458,13.969,23.352,22.766c5.891,8.795,48.282,71.545,55.517,82.25c7.179,10.627,8.511,21.42,7.311,30.824
	c-16.185,126.824-53.071,267.158-84.597,365.668c-2.414,7.547,2.311,9.994,8.479,5.301
	C509.385,490.324,629.42,277.533,691.514,12.974C694.236,1.375,691.117-0.541,680.469,0.113z"/>
</svg>
