<?xml version="1.0" encoding="utf-8"?>
<!-- Generator: Adobe Illustrator 16.0.0, SVG Export Plug-In . SVG Version: 6.00 Build 0)  -->
<!DOCTYPE svg PUBLIC "-//W3C//DTD SVG 1.1//EN" "http://www.w3.org/Graphics/SVG/1.1/DTD/svg11.dtd">
<svg version="1.1" id="Layer_1" xmlns="http://www.w3.org/2000/svg" xmlns:xlink="http://www.w3.org/1999/xlink" x="0px" y="0px"
	 width="484.789px" height="762.093px" viewBox="0 0 484.789 762.093" enable-background="new 0 0 484.789 762.093"
	 xml:space="preserve">
<path d="M478.85,1.63c-30.695,24.176-90.578,39.34-140.104,49.738C289.222,61.765,76.56,102.732,8.776,141.944
	c-6.786,3.926-9.729,8.412-8.505,17.014c12.642,88.855,30.391,356.469,28.373,454.971c-0.108,5.396,2.049,9.637,7.31,12.301
	c5.504,2.787,249.604,126.852,260.326,132.312c10.732,5.463,13.41,5.016,17.447-4.1C496.905,341.038,469.036,211.847,484.721,6.615
	C485.178,0.628,483.382-1.938,478.85,1.63z"/>
</svg>
