<?xml version="1.0" encoding="utf-8"?>
<!-- Generator: Adobe Illustrator 16.0.0, SVG Export Plug-In . SVG Version: 6.00 Build 0)  -->
<!DOCTYPE svg PUBLIC "-//W3C//DTD SVG 1.1//EN" "http://www.w3.org/Graphics/SVG/1.1/DTD/svg11.dtd">
<svg version="1.1" id="Layer_1" xmlns="http://www.w3.org/2000/svg" xmlns:xlink="http://www.w3.org/1999/xlink" x="0px" y="0px"
	 width="581.542px" height="790.637px" viewBox="0 0 581.542 790.637" enable-background="new 0 0 581.542 790.637"
	 xml:space="preserve">
<path fill="none" stroke="#000000" stroke-linejoin="round" stroke-miterlimit="10" d="M61.185,716.963
	c-1.63,5.49-0.997,7.521,3.196,10.152c38.429,24.098,107.64,63.521,235.355,63.521h0.035c127.717,0,196.928-39.426,235.355-63.521
	c4.193-2.631,4.826-4.662,3.195-10.152c-16-53.875,42.748-709.988,43.15-713.361c0.408-3.374-1.09-5.369-3.68-1.432
	c-13.461,20.467-48.422,34.732-66.859,26.273c-2.48-1.141-8.604-4.426-9.297,5.926c-0.688,10.352-7.812,103.968-12.188,153.881
	c-5.059,57.689-62.293,129.27-189.682,129.27h-0.035c-127.387,0-184.623-71.58-189.679-129.27
	c-4.374-49.913-11.5-143.529-12.191-153.881c-0.691-10.352-6.811-7.066-9.298-5.926C70.131,36.902,35.171,22.637,21.71,2.17
	c-2.589-3.938-4.089-1.942-3.68,1.432C18.438,6.975,77.185,663.088,61.185,716.963z"/>
</svg>
