<?xml version="1.0" encoding="utf-8"?>
<!-- Generator: Adobe Illustrator 16.0.0, SVG Export Plug-In . SVG Version: 6.00 Build 0)  -->
<!DOCTYPE svg PUBLIC "-//W3C//DTD SVG 1.1//EN" "http://www.w3.org/Graphics/SVG/1.1/DTD/svg11.dtd">
<svg version="1.1" id="Layer_1" xmlns="http://www.w3.org/2000/svg" xmlns:xlink="http://www.w3.org/1999/xlink" x="0px" y="0px"
	 width="982.205px" height="585.808px" viewBox="0 0 982.205 585.808" enable-background="new 0 0 982.205 585.808"
	 xml:space="preserve">
<path fill="none" stroke="#000000" stroke-linejoin="round" stroke-miterlimit="10" d="M184.264,227.662
	c3.718,0,6.732,3.014,6.732,6.732c0,3.718-3.014,6.732-6.732,6.732c-3.718,0-6.732-3.014-6.732-6.732
	C177.532,230.676,180.546,227.662,184.264,227.662z M184.264,175.662c3.718,0,6.732,3.014,6.732,6.732
	c0,3.718-3.014,6.732-6.732,6.732c-3.718,0-6.732-3.014-6.732-6.732C177.532,178.676,180.546,175.662,184.264,175.662z
	 M240.834,279.663c3.718,0,6.732,3.014,6.732,6.732c0,3.718-3.014,6.732-6.732,6.732s-6.732-3.014-6.732-6.732
	C234.102,282.677,237.116,279.663,240.834,279.663z M240.834,227.662c3.718,0,6.732,3.014,6.732,6.732
	c0,3.718-3.014,6.732-6.732,6.732s-6.732-3.014-6.732-6.732C234.102,230.676,237.116,227.662,240.834,227.662z M240.834,175.662
	c3.718,0,6.732,3.014,6.732,6.732c0,3.718-3.014,6.732-6.732,6.732s-6.732-3.014-6.732-6.732
	C234.102,178.676,237.116,175.662,240.834,175.662z M297.405,279.663c3.718,0,6.732,3.014,6.732,6.732
	c0,3.718-3.014,6.732-6.732,6.732c-3.718,0-6.732-3.014-6.732-6.732C290.673,282.677,293.687,279.663,297.405,279.663z
	 M297.405,227.662c3.718,0,6.732,3.014,6.732,6.732c0,3.718-3.014,6.732-6.732,6.732c-3.718,0-6.732-3.014-6.732-6.732
	C290.673,230.676,293.687,227.662,297.405,227.662z M297.405,175.662c3.718,0,6.732,3.014,6.732,6.732
	c0,3.718-3.014,6.732-6.732,6.732c-3.718,0-6.732-3.014-6.732-6.732C290.673,178.676,293.687,175.662,297.405,175.662z
	 M353.975,331.664c3.717,0,6.73,3.014,6.73,6.73s-3.014,6.73-6.73,6.73s-6.729-3.014-6.729-6.73S350.258,331.664,353.975,331.664z
	 M353.975,279.663c3.719,0,6.732,3.014,6.732,6.732c0,3.718-3.014,6.732-6.732,6.732c-3.718,0-6.731-3.014-6.731-6.732
	C347.243,282.677,350.257,279.663,353.975,279.663z M353.975,227.662c3.719,0,6.732,3.014,6.732,6.732
	c0,3.718-3.014,6.732-6.732,6.732c-3.718,0-6.731-3.014-6.731-6.732C347.243,230.676,350.257,227.662,353.975,227.662z
	 M353.975,175.662c3.719,0,6.732,3.014,6.732,6.732c0,3.718-3.014,6.732-6.732,6.732c-3.718,0-6.731-3.014-6.731-6.732
	C347.243,178.676,350.257,175.662,353.975,175.662z M353.975,123.662c3.719,0,6.732,3.014,6.732,6.732
	c0,3.718-3.014,6.732-6.732,6.732c-3.718,0-6.731-3.014-6.731-6.732C347.243,126.676,350.257,123.662,353.975,123.662z
	 M410.544,397.125c-3.719,0-6.729-3.016-6.729-6.729s3.014-6.729,6.729-6.729c3.72,0,6.732,3.017,6.732,6.729
	C417.278,394.111,414.264,397.125,410.544,397.125z M410.544,345.125c-3.719,0-6.729-3.016-6.729-6.729s3.014-6.729,6.729-6.729
	c3.72,0,6.732,3.017,6.732,6.729C417.278,342.111,414.264,345.125,410.544,345.125z M410.544,293.127
	c-3.719,0-6.729-3.014-6.729-6.733s3.014-6.732,6.729-6.732c3.72,0,6.732,3.014,6.732,6.732
	C417.277,290.112,414.264,293.127,410.544,293.127z M410.544,241.126c-3.719,0-6.729-3.014-6.729-6.732
	c0-3.718,3.014-6.732,6.729-6.732c3.72,0,6.732,3.014,6.732,6.732C417.277,238.112,414.264,241.126,410.544,241.126z
	 M410.544,189.126c-3.719,0-6.729-3.014-6.729-6.732c0-3.718,3.014-6.732,6.729-6.732c3.72,0,6.732,3.014,6.732,6.732
	C417.277,186.112,414.264,189.126,410.544,189.126z M410.544,137.126c-3.719,0-6.729-3.014-6.729-6.732
	c0-3.718,3.014-6.732,6.729-6.732c3.72,0,6.732,3.014,6.732,6.732C417.277,134.112,414.264,137.126,410.544,137.126z
	 M467.115,397.125c-3.719,0-6.732-3.016-6.732-6.729s3.019-6.729,6.732-6.729s6.729,3.017,6.729,6.729
	C473.848,394.111,470.833,397.125,467.115,397.125z M467.115,345.125c-3.719,0-6.732-3.016-6.732-6.729s3.019-6.729,6.732-6.729
	s6.729,3.017,6.729,6.729C473.848,342.111,470.833,345.125,467.115,345.125z M467.115,293.127c-3.719,0-6.732-3.014-6.732-6.733
	s3.019-6.732,6.732-6.732s6.729,3.014,6.729,6.732C473.847,290.112,470.833,293.127,467.115,293.127z M467.115,241.126
	c-3.719,0-6.732-3.014-6.732-6.732c0-3.718,3.019-6.732,6.732-6.732s6.729,3.014,6.729,6.732
	C473.847,238.112,470.833,241.126,467.115,241.126z M467.115,189.126c-3.719,0-6.732-3.014-6.732-6.732
	c0-3.718,3.019-6.732,6.732-6.732s6.729,3.014,6.729,6.732C473.847,186.112,470.833,189.126,467.115,189.126z M467.115,137.126
	c-3.719,0-6.732-3.014-6.732-6.732c0-3.718,3.019-6.732,6.732-6.732s6.729,3.014,6.729,6.732
	C473.847,134.112,470.833,137.126,467.115,137.126z M523.685,449.125c-3.72,0-6.729-3.014-6.729-6.732
	c0-3.717,3.014-6.729,6.729-6.729c3.721,0,6.73,3.016,6.73,6.729C530.417,446.113,527.404,449.125,523.685,449.125z
	 M523.685,383.664c3.718,0,6.73,3.014,6.73,6.73s-3.013,6.73-6.73,6.73c-3.717,0-6.729-3.014-6.729-6.73
	S519.968,383.664,523.685,383.664z M523.685,331.664c3.718,0,6.73,3.014,6.73,6.73s-3.013,6.73-6.73,6.73
	c-3.717,0-6.729-3.014-6.729-6.73S519.968,331.664,523.685,331.664z M523.685,279.663c3.719,0,6.732,3.014,6.732,6.732
	c0,3.718-3.014,6.732-6.732,6.732c-3.718,0-6.731-3.014-6.731-6.732C516.953,282.677,519.967,279.663,523.685,279.663z
	 M523.685,227.662c3.719,0,6.732,3.014,6.732,6.732c0,3.718-3.014,6.732-6.732,6.732c-3.718,0-6.731-3.014-6.731-6.732
	C516.953,230.676,519.967,227.662,523.685,227.662z M523.685,175.662c3.719,0,6.732,3.014,6.732,6.732
	c0,3.718-3.014,6.732-6.732,6.732c-3.718,0-6.731-3.014-6.731-6.732C516.953,178.676,519.967,175.662,523.685,175.662z
	 M523.685,123.662c3.719,0,6.732,3.014,6.732,6.732c0,3.718-3.014,6.732-6.732,6.732c-3.718,0-6.731-3.014-6.731-6.732
	C516.953,126.676,519.967,123.662,523.685,123.662z M523.685,71.662c3.719,0,6.732,3.014,6.732,6.732
	c0,3.718-3.014,6.732-6.732,6.732c-3.718,0-6.731-3.014-6.731-6.732C516.953,74.676,519.967,71.662,523.685,71.662z
	 M580.255,449.125c-3.719,0-6.729-3.014-6.729-6.732c0-3.717,3.014-6.729,6.729-6.729c3.72,0,6.732,3.016,6.732,6.729
	C586.988,446.113,583.974,449.125,580.255,449.125z M580.255,397.125c-3.719,0-6.729-3.016-6.729-6.729s3.014-6.729,6.729-6.729
	c3.72,0,6.732,3.017,6.732,6.729C586.988,394.111,583.974,397.125,580.255,397.125z M580.255,345.125
	c-3.719,0-6.729-3.016-6.729-6.729s3.014-6.729,6.729-6.729c3.72,0,6.732,3.017,6.732,6.729
	C586.988,342.111,583.974,345.125,580.255,345.125z M580.255,293.127c-3.719,0-6.729-3.014-6.729-6.733s3.014-6.732,6.729-6.732
	c3.72,0,6.732,3.014,6.732,6.732C586.988,290.112,583.974,293.127,580.255,293.127z M580.255,241.126
	c-3.719,0-6.729-3.014-6.729-6.732c0-3.718,3.014-6.732,6.729-6.732c3.72,0,6.732,3.014,6.732,6.732
	C586.988,238.112,583.974,241.126,580.255,241.126z M580.255,189.126c-3.719,0-6.729-3.014-6.729-6.732
	c0-3.718,3.014-6.732,6.729-6.732c3.72,0,6.732,3.014,6.732,6.732C586.988,186.112,583.974,189.126,580.255,189.126z
	 M580.255,137.126c-3.719,0-6.729-3.014-6.729-6.732c0-3.718,3.014-6.732,6.729-6.732c3.72,0,6.732,3.014,6.732,6.732
	C586.988,134.112,583.974,137.126,580.255,137.126z M580.255,85.126c-3.719,0-6.729-3.014-6.729-6.732
	c0-3.718,3.014-6.732,6.729-6.732c3.72,0,6.732,3.014,6.732,6.732C586.988,82.112,583.974,85.126,580.255,85.126z M636.826,501.125
	c-3.719,0-6.73-3.014-6.73-6.732c0-3.717,3.017-6.729,6.73-6.729s6.729,3.016,6.729,6.729
	C643.558,498.113,640.544,501.125,636.826,501.125z M636.826,449.125c-3.719,0-6.73-3.014-6.73-6.732
	c0-3.717,3.017-6.729,6.73-6.729s6.729,3.016,6.729,6.729C643.558,446.113,640.544,449.125,636.826,449.125z M636.826,383.664
	c3.717,0,6.729,3.014,6.729,6.73s-3.013,6.73-6.729,6.73s-6.73-3.014-6.73-6.73S633.109,383.664,636.826,383.664z M636.826,331.664
	c3.717,0,6.729,3.014,6.729,6.73s-3.013,6.73-6.729,6.73s-6.73-3.014-6.73-6.73S633.109,331.664,636.826,331.664z M636.826,279.663
	c3.718,0,6.731,3.014,6.731,6.732c0,3.718-3.014,6.732-6.731,6.732s-6.732-3.014-6.732-6.732
	C630.094,282.677,633.108,279.663,636.826,279.663z M636.826,227.662c3.718,0,6.731,3.014,6.731,6.732
	c0,3.718-3.014,6.732-6.731,6.732s-6.732-3.014-6.732-6.732C630.094,230.676,633.108,227.662,636.826,227.662z M636.826,175.662
	c3.718,0,6.731,3.014,6.731,6.732c0,3.718-3.014,6.732-6.731,6.732s-6.732-3.014-6.732-6.732
	C630.094,178.676,633.108,175.662,636.826,175.662z M636.826,123.662c3.718,0,6.731,3.014,6.731,6.732
	c0,3.718-3.014,6.732-6.731,6.732s-6.732-3.014-6.732-6.732C630.094,126.676,633.108,123.662,636.826,123.662z M636.826,71.662
	c3.718,0,6.731,3.014,6.731,6.732c0,3.718-3.014,6.732-6.731,6.732s-6.732-3.014-6.732-6.732
	C630.094,74.676,633.108,71.662,636.826,71.662z M693.396,501.125c-3.722,0-6.732-3.014-6.732-6.732
	c0-3.717,3.016-6.729,6.732-6.729c3.716,0,6.729,3.016,6.729,6.729C700.128,498.113,697.115,501.125,693.396,501.125z
	 M693.396,449.125c-3.722,0-6.732-3.014-6.732-6.732c0-3.717,3.016-6.729,6.732-6.729c3.716,0,6.729,3.016,6.729,6.729
	C700.128,446.113,697.115,449.125,693.396,449.125z M693.396,397.125c-3.722,0-6.732-3.016-6.732-6.729s3.016-6.729,6.732-6.729
	c3.716,0,6.729,3.017,6.729,6.729C700.128,394.111,697.115,397.125,693.396,397.125z M693.396,345.125
	c-3.722,0-6.732-3.016-6.732-6.729s3.016-6.729,6.732-6.729c3.716,0,6.729,3.017,6.729,6.729
	C700.128,342.111,697.115,345.125,693.396,345.125z M693.396,279.663c3.718,0,6.731,3.014,6.731,6.732
	c0,3.718-3.014,6.732-6.731,6.732c-3.719,0-6.732-3.014-6.732-6.732C686.664,282.677,689.678,279.663,693.396,279.663z
	 M693.396,227.662c3.718,0,6.731,3.014,6.731,6.732c0,3.718-3.014,6.732-6.731,6.732c-3.719,0-6.732-3.014-6.732-6.732
	C686.664,230.676,689.678,227.662,693.396,227.662z M693.396,175.662c3.718,0,6.731,3.014,6.731,6.732
	c0,3.718-3.014,6.732-6.731,6.732c-3.719,0-6.732-3.014-6.732-6.732C686.664,178.676,689.678,175.662,693.396,175.662z
	 M693.396,123.662c3.718,0,6.731,3.014,6.731,6.732c0,3.718-3.014,6.732-6.731,6.732c-3.719,0-6.732-3.014-6.732-6.732
	C686.664,126.676,689.678,123.662,693.396,123.662z M693.396,71.662c3.718,0,6.731,3.014,6.731,6.732
	c0,3.718-3.014,6.732-6.731,6.732c-3.719,0-6.732-3.014-6.732-6.732C686.664,74.676,689.678,71.662,693.396,71.662z M693.396,19.662
	c3.718,0,6.731,3.014,6.731,6.732c0,3.718-3.014,6.732-6.731,6.732c-3.719,0-6.732-3.014-6.732-6.732
	C686.664,22.676,689.678,19.662,693.396,19.662z M749.966,501.125c-3.719,0-6.729-3.014-6.729-6.732
	c0-3.717,3.014-6.729,6.729-6.729c3.72,0,6.732,3.016,6.732,6.729C756.699,498.113,753.685,501.125,749.966,501.125z
	 M749.966,449.125c-3.719,0-6.729-3.014-6.729-6.732c0-3.717,3.014-6.729,6.729-6.729c3.72,0,6.732,3.016,6.732,6.729
	C756.699,446.113,753.685,449.125,749.966,449.125z M749.966,397.125c-3.719,0-6.729-3.016-6.729-6.729s3.014-6.729,6.729-6.729
	c3.72,0,6.732,3.017,6.732,6.729C756.699,394.111,753.685,397.125,749.966,397.125z M749.966,345.125
	c-3.719,0-6.729-3.016-6.729-6.729s3.014-6.729,6.729-6.729c3.72,0,6.732,3.017,6.732,6.729
	C756.699,342.111,753.685,345.125,749.966,345.125z M749.966,293.127c-3.719,0-6.729-3.014-6.729-6.733s3.014-6.732,6.729-6.732
	c3.72,0,6.732,3.014,6.732,6.732C756.699,290.112,753.685,293.127,749.966,293.127z M749.966,241.126
	c-3.719,0-6.729-3.014-6.729-6.732c0-3.718,3.014-6.732,6.729-6.732c3.72,0,6.732,3.014,6.732,6.732
	C756.699,238.112,753.685,241.126,749.966,241.126z M749.966,189.126c-3.719,0-6.729-3.014-6.729-6.732
	c0-3.718,3.014-6.732,6.729-6.732c3.72,0,6.732,3.014,6.732,6.732C756.699,186.112,753.685,189.126,749.966,189.126z
	 M749.966,137.126c-3.719,0-6.729-3.014-6.729-6.732c0-3.718,3.014-6.732,6.729-6.732c3.72,0,6.732,3.014,6.732,6.732
	C756.699,134.112,753.685,137.126,749.966,137.126z M749.966,85.126c-3.719,0-6.729-3.014-6.729-6.732
	c0-3.718,3.014-6.732,6.729-6.732c3.72,0,6.732,3.014,6.732,6.732C756.699,82.112,753.685,85.126,749.966,85.126z M749.966,33.126
	c-3.719,0-6.729-3.014-6.729-6.732c0-3.718,3.014-6.732,6.729-6.732c3.72,0,6.732,3.014,6.732,6.732
	C756.699,30.112,753.685,33.126,749.966,33.126z M806.537,331.664c3.717,0,6.729,3.014,6.729,6.73s-3.013,6.73-6.729,6.73
	s-6.73-3.014-6.73-6.73S802.82,331.664,806.537,331.664z M806.537,279.663c3.718,0,6.731,3.014,6.731,6.732
	c0,3.718-3.014,6.732-6.731,6.732s-6.732-3.014-6.732-6.732C799.805,282.677,802.819,279.663,806.537,279.663z M806.537,227.662
	c3.718,0,6.731,3.014,6.731,6.732c0,3.718-3.014,6.732-6.731,6.732s-6.732-3.014-6.732-6.732
	C799.805,230.676,802.819,227.662,806.537,227.662z M806.537,175.662c3.718,0,6.731,3.014,6.731,6.732
	c0,3.718-3.014,6.732-6.731,6.732s-6.732-3.014-6.732-6.732C799.805,178.676,802.819,175.662,806.537,175.662z M806.537,123.662
	c3.718,0,6.731,3.014,6.731,6.732c0,3.718-3.014,6.732-6.731,6.732s-6.732-3.014-6.732-6.732
	C799.805,126.676,802.819,123.662,806.537,123.662z M806.537,71.662c3.718,0,6.731,3.014,6.731,6.732
	c0,3.718-3.014,6.732-6.731,6.732s-6.732-3.014-6.732-6.732C799.805,74.676,802.819,71.662,806.537,71.662z M919.677,175.662
	c3.718,0,6.732,3.014,6.732,6.732c0,3.718-3.015,6.732-6.732,6.732s-6.731-3.014-6.731-6.732
	C912.945,178.676,915.959,175.662,919.677,175.662z M863.107,123.662c3.718,0,6.731,3.014,6.731,6.732
	c0,3.718-3.014,6.732-6.731,6.732c-3.719,0-6.732-3.014-6.732-6.732C856.375,126.676,859.389,123.662,863.107,123.662z
	 M863.107,175.662c3.718,0,6.731,3.014,6.731,6.732c0,3.718-3.014,6.732-6.731,6.732c-3.719,0-6.732-3.014-6.732-6.732
	C856.375,178.676,859.389,175.662,863.107,175.662z M863.105,227.664c3.717,0,6.729,3.013,6.729,6.73s-3.013,6.73-6.729,6.73
	c-3.718,0-6.73-3.013-6.73-6.73S859.388,227.664,863.105,227.664z M77.179,228.419c-4.81-2.102-13.16-9.037-17.475-2.515
	c-4.844,10.937-15.793,18.565-28.523,18.565C13.96,244.47,0,230.51,0,213.289c0-17.221,13.96-31.181,31.181-31.181
	c13.78,0,25.471,8.938,29.594,21.333v0.002c3.73,5.823,11.004,3.259,16.501,2.387C235.698,129.171,664.992,11.481,744.665,0.346
	c8.579-1.199,11.501,0.83,16.252,4.359c27.987,20.78,190.95,168.894,217.62,200.365c4.504,5.313,5.248,7.198,0.041,9.487
	c-5.208,2.287-99.205,42.465-112.804,48.503c-13.914,6.178-17.699,13.31-20.607,23.158c-5.391,18.257-69.723,241.907-91.846,292.479
	c-3.41,7.787-6.988,8.537-13.683,5.328c-62.671-30.029-537.831-273.869-662.458-355.604L77.179,228.419z"/>
</svg>
