<?xml version="1.0" encoding="utf-8"?>
<!-- Generator: Adobe Illustrator 16.0.0, SVG Export Plug-In . SVG Version: 6.00 Build 0)  -->
<!DOCTYPE svg PUBLIC "-//W3C//DTD SVG 1.1//EN" "http://www.w3.org/Graphics/SVG/1.1/DTD/svg11.dtd">
<svg version="1.1" id="Layer_1" xmlns="http://www.w3.org/2000/svg" xmlns:xlink="http://www.w3.org/1999/xlink" x="0px" y="0px"
	 width="2899.182px" height="1161.27px" viewBox="0 0 2899.182 1161.27" enable-background="new 0 0 2899.182 1161.27"
	 xml:space="preserve">
<path d="M6.401,966.281c5.563,3.79,49.554,33.589,56.633,38.352c7.568,5.094,14.013,4.928,21.588,0.544
	c59.706-34.552,493.284-274.982,585.102-302.89c4.232-1.285,3.886-4.053,1.98-5.49c-1.982-1.504-3.646-2.744-6.771-5.045
	c-3.76-2.771-10.488-3.448-17.155-2.745c-84.205,8.871-200.38,60.53-349.368,99.601c-45.58,11.948-124.02-5.488-131.165-81.476
	c-2.161-22.95,1.158-73.648,1.895-85.607c0.696-11.354-6.02-15.854-11.873-3.347c-4.643,9.916-152.938,328.97-156.06,335.674
	C-1.716,960.137,0.923,962.55,6.401,966.281z M415.552,234.046c23.472-3.3,110.349-6.732,187.688,2.839
	c9.531,1.18,16.264,0.365,23.688-8.027c30.496-34.477,186.1-176.039,215.35-196.147c6.627-4.558,2.896-6.259-1.984-6.989
	C809.206,21.077,550.769,0.384,544.938,0.05c-5.834-0.335-8.105,0.921-9.732,6.312c-5.799,19.216-14.771,41.513-31.098,78.214
	c-16.326,36.7-50.659,90.17-58.935,100.033c-8.275,9.865-29.354,35.81-33.396,40.973
	C407.741,230.744,410.386,234.771,415.552,234.046z M857.81,36.513C829.802,57.26,666.663,205.186,639.955,236.624
	c-4.51,5.309-5.256,7.192-0.051,9.487c5.204,2.295,99.154,42.579,112.747,48.634c13.907,6.193,17.687,13.331,20.581,23.183
	c5.369,18.263,69.441,241.985,91.506,292.586c3.396,7.788,6.977,8.543,13.675,5.347c65.011-31.059,573.637-291.405,675.156-363.152
	c3.624-2.562,3.492-6.271-1.112-8.649C1404.323,167.501,955.696,43.68,874.065,32.173C865.488,30.964,862.563,32.99,857.81,36.513z
	 M826.453,653.065c-212.092,107.226-220.584,79.528-538.296,262.853c-4.235,2.443-2.055,5.701,1.833,5.148
	c156.162-22.208,497.021-92.479,514.488-96.332c18.469-4.076,52.791-9.604,75.41-12.493
	c24.325-3.11,986.841-126.252,991.482-126.786c3.133-0.362,3.457-1.953,1.678-4.938c-36.781-61.673-188.26-242.631-302.857-335.618
	c-26.803-21.748-31.072-46.038-11.747-76.372c5.136-8.054-0.712-10.433-6.786-5.91
	C1441.932,344.287,1065.566,532.175,826.453,653.065z M872.146,691.786c-4.362,12.854-18.323,19.745-31.184,15.381
	c-12.857-4.362-19.745-18.323-15.385-31.181c4.363-12.86,18.325-19.747,31.186-15.389
	C869.622,664.965,876.51,678.925,872.146,691.786z M1746.111,652.1c4.89-14.401,20.529-22.119,34.933-17.229
	c14.403,4.887,22.118,20.523,17.229,34.931c-4.888,14.403-20.525,22.118-34.93,17.231
	C1748.938,682.144,1741.225,666.504,1746.111,652.1z M1669.396,744.092c185.748,64.827,690.56,310.137,751.595,336.04
	c5.838,2.479,7.823,2.021,11.503-3.276c2.859-4.119,274.357-402.27,289.718-423.263c5.711-7.81,6.752-9.444-6.966-7.425
	c-242.688,35.749-716.84,48.223-1044.475,92.817C1666.226,739.604,1664.873,742.515,1669.396,744.092z M2896.392,756.343
	c-50.151-10.782-125.276-86.825-138.228-103.59c-3.425-4.431-6.765-5.067-10.103-1.071c-3.104,3.72-304.447,421.121-309.26,427.812
	c-3.729,5.18-2.474,7.384,1.729,9.125c15.854,6.561,35.666,14.325,47.404,18.409c76.821,26.728,118.34,38.968,165.656,51.227
	c26.498,6.865,42.887,3.581,52.818-26.427c42.858-129.502,157.01-339.434,190.198-369.646
	C2900.427,758.715,2899.689,757.052,2896.392,756.343z"/>
</svg>
