<?xml version="1.0" encoding="utf-8"?>
<!-- Generator: Adobe Illustrator 16.0.0, SVG Export Plug-In . SVG Version: 6.00 Build 0)  -->
<!DOCTYPE svg PUBLIC "-//W3C//DTD SVG 1.1//EN" "http://www.w3.org/Graphics/SVG/1.1/DTD/svg11.dtd">
<svg version="1.1" id="Layer_1" xmlns="http://www.w3.org/2000/svg" xmlns:xlink="http://www.w3.org/1999/xlink" x="0px" y="0px"
	 width="2898.949px" height="1158.793px" viewBox="0 0 2898.949 1158.793" enable-background="new 0 0 2898.949 1158.793"
	 xml:space="preserve">
<path d="M2234.324,691.611c-3.129,2.299-4.789,3.535-6.778,5.035c-1.9,1.436-2.256,4.2,1.979,5.491
	c91.783,28.015,525.084,268.947,584.749,303.568c7.57,4.393,14.013,4.563,21.589-0.521c7.084-4.756,51.105-34.504,56.677-38.284
	c5.481-3.728,8.123-6.138,5.209-12.427c-3.111-6.707-151.039-325.934-155.668-335.854c-5.841-12.512-12.562-8.023-11.877,3.33
	c0.723,11.959,3.981,62.666,1.798,85.613c-7.237,75.975-85.694,93.321-131.265,81.315
	c-148.942-39.238-265.059-91.033-349.254-100.004C2244.816,688.176,2238.087,688.844,2234.324,691.611z M2364.848,6.372
	c-1.621-5.392-3.896-6.651-9.729-6.323c-5.831,0.327-264.294,20.719-295.385,25.327c-4.881,0.724-8.614,2.421-1.991,6.986
	c29.229,20.144,184.664,161.886,215.121,196.398c7.414,8.402,14.146,9.224,23.679,8.056c77.354-9.481,164.227-5.948,187.69-2.62
	c5.166,0.731,7.812-3.293,3.78-8.461c-4.032-5.169-25.081-31.137-33.348-41.012c-8.264-9.873-42.532-63.382-58.815-100.102
	C2379.571,47.901,2370.624,25.592,2364.848,6.372z M1027.893,683.912c4.641,0.539,967.013,124.801,991.335,127.938
	c22.615,2.918,56.931,8.482,75.394,12.578c17.467,3.877,358.242,74.541,514.381,96.935c3.886,0.557,6.069-2.699,1.838-5.146
	c-317.502-183.69-326.022-156.004-537.989-263.479c-238.975-121.167-615.117-309.491-724.75-391.291
	c-6.071-4.529-11.918-2.157-6.795,5.903c19.291,30.356,14.993,54.642-11.835,76.359
	c-114.707,92.853-266.396,273.634-303.247,335.265C1024.437,681.957,1024.761,683.547,1027.893,683.912z M2042.53,660.238
	c12.862-4.351,26.815,2.555,31.165,15.42c4.351,12.86-2.557,26.813-15.419,31.164c-12.863,4.348-26.814-2.558-31.166-15.418
	C2022.762,678.539,2029.664,664.586,2042.53,660.238z M1118.281,633.43c14.409-4.869,30.039,2.863,34.91,17.273
	c4.871,14.408-2.862,30.039-17.271,34.91c-14.41,4.869-30.041-2.861-34.911-17.271S1103.871,638.301,1118.281,633.43z
	 M1228.432,737.676c-327.581-44.975-801.717-58-1044.366-94.031c-13.715-2.032-12.676-0.396-6.976,7.421
	c15.333,21.01,286.372,419.473,289.228,423.598c3.673,5.305,5.658,5.762,11.499,3.289c61.066-25.832,566.16-270.558,751.985-335.166
	C1234.325,741.211,1232.979,738.301,1228.432,737.676z M151.24,649.121c-3.333-4-6.673-3.367-10.102,1.061
	C128.167,666.93,52.954,742.887,2.79,753.612c-3.299,0.705-4.038,2.364-0.229,5.838c33.153,30.25,147.06,240.312,189.771,369.86
	c9.896,30.021,26.279,33.322,52.788,26.488c47.331-12.203,88.864-24.395,165.719-51.033c11.738-4.067,31.562-11.812,47.424-18.354
	c4.207-1.736,5.466-3.939,1.744-9.123C455.198,1070.596,154.341,652.842,151.24,649.121z M2259.869,246
	c5.207-2.289,4.463-4.174-0.041-9.486c-26.67-31.471-189.633-179.586-217.619-200.365c-4.752-3.529-7.674-5.559-16.252-4.359
	c-81.645,11.412-530.416,134.713-678.637,211.096c-4.604,2.373-4.743,6.082-1.122,8.648
	c101.438,71.863,609.762,332.805,674.735,363.934c6.692,3.209,10.271,2.459,13.68-5.328c22.123-50.57,86.455-274.221,91.847-292.479
	c2.907-9.848,6.692-16.98,20.606-23.158C2160.665,288.465,2254.66,248.288,2259.869,246z M1465.555,272.57
	c-3.719,0-6.732-3.014-6.732-6.732c0-3.718,3.017-6.732,6.732-6.732s6.732,3.014,6.732,6.732
	C1472.288,269.557,1469.273,272.57,1465.555,272.57z M1465.555,220.57c-3.719,0-6.732-3.014-6.732-6.732
	c0-3.718,3.017-6.732,6.732-6.732s6.732,3.014,6.732,6.732C1472.288,217.557,1469.273,220.57,1465.555,220.57z M1522.126,324.57
	c-3.72,0-6.73-3.014-6.73-6.732c0-3.718,3.014-6.732,6.73-6.732c3.72,0,6.731,3.014,6.731,6.732
	C1528.857,321.557,1525.844,324.57,1522.126,324.57z M1522.126,272.57c-3.72,0-6.73-3.014-6.73-6.732
	c0-3.718,3.014-6.732,6.73-6.732c3.72,0,6.731,3.014,6.731,6.732C1528.857,269.557,1525.844,272.57,1522.126,272.57z
	 M1522.126,220.57c-3.72,0-6.73-3.014-6.73-6.732c0-3.718,3.014-6.732,6.73-6.732c3.72,0,6.731,3.014,6.731,6.732
	C1528.857,217.557,1525.844,220.57,1522.126,220.57z M1578.695,324.57c-3.719,0-6.729-3.014-6.729-6.732
	c0-3.718,3.014-6.732,6.729-6.732s6.732,3.014,6.732,6.732C1585.427,321.557,1582.414,324.57,1578.695,324.57z M1578.695,272.57
	c-3.719,0-6.729-3.014-6.729-6.732c0-3.718,3.014-6.732,6.729-6.732s6.732,3.014,6.732,6.732
	C1585.427,269.557,1582.414,272.57,1578.695,272.57z M1578.695,220.57c-3.719,0-6.729-3.014-6.729-6.732
	c0-3.718,3.014-6.732,6.729-6.732s6.732,3.014,6.732,6.732C1585.427,217.557,1582.414,220.57,1578.695,220.57z M1635.266,376.568
	c-3.719,0-6.732-3.014-6.732-6.732c0-3.717,3.017-6.732,6.732-6.732s6.732,3.016,6.732,6.732
	C1641.999,373.556,1638.984,376.568,1635.266,376.568z M1635.266,324.57c-3.719,0-6.732-3.014-6.732-6.732
	c0-3.718,3.017-6.732,6.732-6.732s6.732,3.014,6.732,6.732C1641.999,321.557,1638.984,324.57,1635.266,324.57z M1635.266,272.57
	c-3.719,0-6.732-3.014-6.732-6.732c0-3.718,3.017-6.732,6.732-6.732s6.732,3.014,6.732,6.732
	C1641.999,269.557,1638.984,272.57,1635.266,272.57z M1635.266,220.57c-3.719,0-6.732-3.014-6.732-6.732
	c0-3.718,3.017-6.732,6.732-6.732s6.732,3.014,6.732,6.732C1641.999,217.557,1638.984,220.57,1635.266,220.57z M1635.266,168.57
	c-3.719,0-6.732-3.014-6.732-6.732c0-3.718,3.017-6.732,6.732-6.732s6.732,3.014,6.732,6.732
	C1641.999,165.557,1638.984,168.57,1635.266,168.57z M1691.839,428.569c-3.722,0-6.732-3.017-6.732-6.732s3.014-6.732,6.732-6.732
	c3.718,0,6.729,3.016,6.729,6.732C1698.568,425.555,1695.555,428.569,1691.839,428.569z M1691.839,376.568
	c-3.722,0-6.732-3.014-6.732-6.732c0-3.717,3.014-6.732,6.732-6.732c3.718,0,6.729,3.016,6.729,6.732
	C1698.568,373.556,1695.555,376.568,1691.839,376.568z M1691.839,324.57c-3.722,0-6.732-3.014-6.732-6.732
	c0-3.718,3.014-6.732,6.732-6.732c3.718,0,6.729,3.014,6.729,6.732C1698.568,321.557,1695.555,324.57,1691.839,324.57z
	 M1691.839,272.57c-3.722,0-6.732-3.014-6.732-6.732c0-3.718,3.014-6.732,6.732-6.732c3.718,0,6.729,3.014,6.729,6.732
	C1698.568,269.557,1695.555,272.57,1691.839,272.57z M1691.839,220.57c-3.722,0-6.732-3.014-6.732-6.732
	c0-3.718,3.014-6.732,6.732-6.732c3.718,0,6.729,3.014,6.729,6.732C1698.568,217.557,1695.555,220.57,1691.839,220.57z
	 M1691.839,168.57c-3.722,0-6.732-3.014-6.732-6.732c0-3.718,3.014-6.732,6.732-6.732c3.718,0,6.729,3.014,6.729,6.732
	C1698.568,165.557,1695.555,168.57,1691.839,168.57z M1748.406,428.569c-3.719,0-6.729-3.017-6.729-6.732s3.014-6.732,6.729-6.732
	s6.732,3.016,6.732,6.732C1755.139,425.555,1752.126,428.569,1748.406,428.569z M1748.406,376.568c-3.719,0-6.729-3.014-6.729-6.732
	c0-3.717,3.014-6.732,6.729-6.732s6.732,3.016,6.732,6.732C1755.139,373.556,1752.126,376.568,1748.406,376.568z M1748.406,324.57
	c-3.719,0-6.729-3.014-6.729-6.732c0-3.718,3.014-6.732,6.729-6.732s6.732,3.014,6.732,6.732
	C1755.138,321.557,1752.126,324.57,1748.406,324.57z M1748.406,272.57c-3.719,0-6.729-3.014-6.729-6.732
	c0-3.718,3.014-6.732,6.729-6.732s6.732,3.014,6.732,6.732C1755.138,269.557,1752.126,272.57,1748.406,272.57z M1748.406,220.57
	c-3.719,0-6.729-3.014-6.729-6.732c0-3.718,3.014-6.732,6.729-6.732s6.732,3.014,6.732,6.732
	C1755.138,217.557,1752.126,220.57,1748.406,220.57z M1748.406,168.57c-3.719,0-6.729-3.014-6.729-6.732
	c0-3.718,3.014-6.732,6.729-6.732s6.732,3.014,6.732,6.732C1755.138,165.557,1752.126,168.57,1748.406,168.57z M1804.977,480.569
	c-3.719,0-6.732-3.017-6.732-6.732s3.017-6.731,6.732-6.731s6.732,3.018,6.732,6.731
	C1811.71,477.555,1808.695,480.569,1804.977,480.569z M1804.977,428.569c-3.719,0-6.732-3.017-6.732-6.732s3.017-6.732,6.732-6.732
	s6.732,3.016,6.732,6.732C1811.71,425.555,1808.695,428.569,1804.977,428.569z M1804.977,376.568c-3.719,0-6.732-3.014-6.732-6.732
	c0-3.717,3.017-6.732,6.732-6.732s6.732,3.016,6.732,6.732C1811.71,373.556,1808.695,376.568,1804.977,376.568z M1804.977,324.57
	c-3.719,0-6.732-3.014-6.732-6.732c0-3.718,3.017-6.732,6.732-6.732s6.732,3.014,6.732,6.732
	C1811.71,321.557,1808.695,324.57,1804.977,324.57z M1804.977,272.57c-3.719,0-6.732-3.014-6.732-6.732
	c0-3.718,3.017-6.732,6.732-6.732s6.732,3.014,6.732,6.732C1811.71,269.557,1808.695,272.57,1804.977,272.57z M1804.977,220.57
	c-3.719,0-6.732-3.014-6.732-6.732c0-3.718,3.017-6.732,6.732-6.732s6.732,3.014,6.732,6.732
	C1811.71,217.557,1808.695,220.57,1804.977,220.57z M1804.977,168.57c-3.719,0-6.732-3.014-6.732-6.732
	c0-3.718,3.017-6.732,6.732-6.732s6.732,3.014,6.732,6.732C1811.71,165.557,1808.695,168.57,1804.977,168.57z M1804.977,116.57
	c-3.719,0-6.732-3.014-6.732-6.732c0-3.718,3.017-6.732,6.732-6.732s6.732,3.014,6.732,6.732
	C1811.71,113.557,1808.695,116.57,1804.977,116.57z M1861.55,480.569c-3.722,0-6.732-3.017-6.732-6.732s3.014-6.731,6.732-6.731
	c3.718,0,6.729,3.018,6.729,6.731C1868.279,477.555,1865.266,480.569,1861.55,480.569z M1861.55,428.569
	c-3.722,0-6.732-3.017-6.732-6.732s3.014-6.732,6.732-6.732c3.718,0,6.729,3.016,6.729,6.732
	C1868.279,425.555,1865.266,428.569,1861.55,428.569z M1861.55,376.568c-3.722,0-6.732-3.014-6.732-6.732
	c0-3.717,3.014-6.732,6.732-6.732c3.718,0,6.729,3.016,6.729,6.732C1868.279,373.556,1865.266,376.568,1861.55,376.568z
	 M1861.55,324.57c-3.722,0-6.732-3.014-6.732-6.732c0-3.718,3.014-6.732,6.732-6.732c3.718,0,6.729,3.014,6.729,6.732
	C1868.279,321.557,1865.266,324.57,1861.55,324.57z M1861.55,272.57c-3.722,0-6.732-3.014-6.732-6.732
	c0-3.718,3.014-6.732,6.732-6.732c3.718,0,6.729,3.014,6.729,6.732C1868.279,269.557,1865.266,272.57,1861.55,272.57z
	 M1861.55,220.57c-3.722,0-6.732-3.014-6.732-6.732c0-3.718,3.014-6.732,6.732-6.732c3.718,0,6.729,3.014,6.729,6.732
	C1868.279,217.557,1865.266,220.57,1861.55,220.57z M1861.55,168.57c-3.722,0-6.732-3.014-6.732-6.732
	c0-3.718,3.014-6.732,6.732-6.732c3.718,0,6.729,3.014,6.729,6.732C1868.279,165.557,1865.266,168.57,1861.55,168.57z
	 M1861.55,116.57c-3.722,0-6.732-3.014-6.732-6.732c0-3.718,3.014-6.732,6.732-6.732c3.718,0,6.729,3.014,6.729,6.732
	C1868.279,113.557,1865.266,116.57,1861.55,116.57z M1918.117,532.569c-3.719,0-6.729-3.017-6.729-6.732s3.014-6.731,6.729-6.731
	s6.732,3.018,6.732,6.731C1924.85,529.555,1921.839,532.569,1918.117,532.569z M1918.117,480.569c-3.719,0-6.729-3.017-6.729-6.732
	s3.014-6.731,6.729-6.731s6.732,3.018,6.732,6.731C1924.85,477.555,1921.839,480.569,1918.117,480.569z M1918.117,428.569
	c-3.719,0-6.729-3.017-6.729-6.732s3.014-6.732,6.729-6.732s6.732,3.016,6.732,6.732
	C1924.85,425.555,1921.839,428.569,1918.117,428.569z M1918.117,376.568c-3.719,0-6.729-3.014-6.729-6.732
	c0-3.717,3.014-6.732,6.729-6.732s6.732,3.016,6.732,6.732C1924.85,373.556,1921.839,376.568,1918.117,376.568z M1918.117,324.57
	c-3.719,0-6.729-3.014-6.729-6.732c0-3.718,3.014-6.732,6.729-6.732s6.732,3.014,6.732,6.732
	C1924.849,321.557,1921.839,324.57,1918.117,324.57z M1918.117,272.57c-3.719,0-6.729-3.014-6.729-6.732
	c0-3.718,3.014-6.732,6.729-6.732s6.732,3.014,6.732,6.732C1924.849,269.557,1921.839,272.57,1918.117,272.57z M1918.117,220.57
	c-3.719,0-6.729-3.014-6.729-6.732c0-3.718,3.014-6.732,6.729-6.732s6.732,3.014,6.732,6.732
	C1924.849,217.557,1921.839,220.57,1918.117,220.57z M1918.117,168.57c-3.719,0-6.729-3.014-6.729-6.732
	c0-3.718,3.014-6.732,6.729-6.732s6.732,3.014,6.732,6.732C1924.849,165.557,1921.839,168.57,1918.117,168.57z M1918.117,116.57
	c-3.719,0-6.729-3.014-6.729-6.732c0-3.718,3.014-6.732,6.729-6.732s6.732,3.014,6.732,6.732
	C1924.849,113.557,1921.839,116.57,1918.117,116.57z M1974.688,532.569c-3.719,0-6.732-3.017-6.732-6.732s3.017-6.731,6.732-6.731
	s6.732,3.018,6.732,6.731C1981.423,529.555,1978.406,532.569,1974.688,532.569z M1974.688,480.569c-3.719,0-6.732-3.017-6.732-6.732
	s3.017-6.731,6.732-6.731s6.732,3.018,6.732,6.731C1981.423,477.555,1978.406,480.569,1974.688,480.569z M1974.688,428.569
	c-3.719,0-6.732-3.017-6.732-6.732s3.017-6.732,6.732-6.732s6.732,3.016,6.732,6.732
	C1981.423,425.555,1978.406,428.569,1974.688,428.569z M1974.688,376.568c-3.719,0-6.732-3.014-6.732-6.732
	c0-3.717,3.017-6.732,6.732-6.732s6.732,3.016,6.732,6.732C1981.423,373.556,1978.406,376.568,1974.688,376.568z M1974.688,324.57
	c-3.719,0-6.732-3.014-6.732-6.732c0-3.718,3.017-6.732,6.732-6.732s6.732,3.014,6.732,6.732
	C1981.423,321.557,1978.406,324.57,1974.688,324.57z M1974.688,272.57c-3.719,0-6.732-3.014-6.732-6.732
	c0-3.718,3.017-6.732,6.732-6.732s6.732,3.014,6.732,6.732C1981.423,269.557,1978.406,272.57,1974.688,272.57z M1974.688,220.57
	c-3.719,0-6.732-3.014-6.732-6.732c0-3.718,3.017-6.732,6.732-6.732s6.732,3.014,6.732,6.732
	C1981.423,217.557,1978.406,220.57,1974.688,220.57z M1974.688,168.57c-3.719,0-6.732-3.014-6.732-6.732
	c0-3.718,3.017-6.732,6.732-6.732s6.732,3.014,6.732,6.732C1981.423,165.557,1978.406,168.57,1974.688,168.57z M1974.688,116.57
	c-3.719,0-6.732-3.014-6.732-6.732c0-3.718,3.017-6.732,6.732-6.732s6.732,3.014,6.732,6.732
	C1981.423,113.557,1978.406,116.57,1974.688,116.57z M1974.688,64.57c-3.719,0-6.732-3.014-6.732-6.732
	c0-3.718,3.017-6.732,6.732-6.732s6.732,3.014,6.732,6.732C1981.423,61.557,1978.406,64.57,1974.688,64.57z M2031.26,532.569
	c-3.721,0-6.732-3.017-6.732-6.732s3.016-6.731,6.732-6.731s6.729,3.018,6.729,6.731
	C2037.99,529.555,2034.977,532.569,2031.26,532.569z M2031.26,480.569c-3.721,0-6.732-3.017-6.732-6.732s3.016-6.731,6.732-6.731
	s6.729,3.018,6.729,6.731C2037.99,477.555,2034.977,480.569,2031.26,480.569z M2031.26,428.569c-3.721,0-6.732-3.017-6.732-6.732
	s3.016-6.732,6.732-6.732s6.729,3.016,6.729,6.732C2037.99,425.555,2034.977,428.569,2031.26,428.569z M2031.26,376.568
	c-3.721,0-6.732-3.014-6.732-6.732c0-3.717,3.016-6.732,6.732-6.732s6.729,3.016,6.729,6.732
	C2037.99,373.556,2034.977,376.568,2031.26,376.568z M2031.26,324.57c-3.721,0-6.732-3.014-6.732-6.732
	c0-3.718,3.016-6.732,6.732-6.732s6.729,3.014,6.729,6.732C2037.99,321.557,2034.977,324.57,2031.26,324.57z M2031.26,272.57
	c-3.721,0-6.732-3.014-6.732-6.732c0-3.718,3.016-6.732,6.732-6.732s6.729,3.014,6.729,6.732
	C2037.99,269.557,2034.977,272.57,2031.26,272.57z M2031.26,220.57c-3.721,0-6.732-3.014-6.732-6.732
	c0-3.718,3.016-6.732,6.732-6.732s6.729,3.014,6.729,6.732C2037.99,217.557,2034.977,220.57,2031.26,220.57z M2031.26,168.57
	c-3.721,0-6.732-3.014-6.732-6.732c0-3.718,3.016-6.732,6.732-6.732s6.729,3.014,6.729,6.732
	C2037.99,165.557,2034.977,168.57,2031.26,168.57z M2031.26,116.57c-3.721,0-6.732-3.014-6.732-6.732
	c0-3.718,3.016-6.732,6.732-6.732s6.729,3.014,6.729,6.732C2037.99,113.557,2034.977,116.57,2031.26,116.57z M2031.26,64.57
	c-3.721,0-6.732-3.014-6.732-6.732c0-3.718,3.016-6.732,6.732-6.732s6.729,3.014,6.729,6.732
	C2037.99,61.557,2034.977,64.57,2031.26,64.57z M2087.828,376.568c-3.719,0-6.729-3.014-6.729-6.732
	c0-3.717,3.014-6.732,6.729-6.732c3.718,0,6.732,3.016,6.732,6.732C2094.561,373.556,2091.55,376.568,2087.828,376.568z
	 M2087.828,324.57c-3.719,0-6.729-3.014-6.729-6.732c0-3.718,3.014-6.732,6.729-6.732c3.718,0,6.732,3.014,6.732,6.732
	C2094.56,321.557,2091.55,324.57,2087.828,324.57z M2087.828,272.57c-3.719,0-6.729-3.014-6.729-6.732
	c0-3.718,3.014-6.732,6.729-6.732c3.718,0,6.732,3.014,6.732,6.732C2094.56,269.557,2091.55,272.57,2087.828,272.57z
	 M2087.828,220.57c-3.719,0-6.729-3.014-6.729-6.732c0-3.718,3.014-6.732,6.729-6.732c3.718,0,6.732,3.014,6.732,6.732
	C2094.56,217.557,2091.55,220.57,2087.828,220.57z M2087.828,168.57c-3.719,0-6.729-3.014-6.729-6.732
	c0-3.718,3.014-6.732,6.729-6.732c3.718,0,6.732,3.014,6.732,6.732C2094.56,165.557,2091.55,168.57,2087.828,168.57z
	 M2087.828,116.57c-3.719,0-6.729-3.014-6.729-6.732c0-3.718,3.014-6.732,6.729-6.732c3.718,0,6.732,3.014,6.732,6.732
	C2094.56,113.557,2091.55,116.57,2087.828,116.57z M2200.969,207.105c3.719,0,6.729,3.014,6.729,6.732
	c0,3.718-3.014,6.732-6.729,6.732c-3.719,0-6.732-3.014-6.732-6.732C2194.237,210.12,2197.251,207.105,2200.969,207.105z
	 M2144.398,155.105c3.719,0,6.731,3.014,6.731,6.732c0,3.718-3.016,6.732-6.731,6.732s-6.731-3.014-6.731-6.732
	C2137.667,158.12,2140.68,155.105,2144.398,155.105z M2144.398,207.105c3.719,0,6.731,3.014,6.731,6.732
	c0,3.718-3.016,6.732-6.731,6.732s-6.731-3.014-6.731-6.732C2137.667,210.12,2140.68,207.105,2144.398,207.105z M2137.667,265.838
	c0-3.719,3.016-6.732,6.731-6.732s6.731,3.014,6.731,6.732c0,3.718-3.016,6.732-6.731,6.732S2137.667,269.558,2137.667,265.838z"/>
</svg>
