<?xml version="1.0" encoding="utf-8"?>
<!-- Generator: Adobe Illustrator 16.0.0, SVG Export Plug-In . SVG Version: 6.00 Build 0)  -->
<!DOCTYPE svg PUBLIC "-//W3C//DTD SVG 1.1//EN" "http://www.w3.org/Graphics/SVG/1.1/DTD/svg11.dtd">
<svg version="1.1" id="Layer_1" xmlns="http://www.w3.org/2000/svg" xmlns:xlink="http://www.w3.org/1999/xlink" x="0px" y="0px"
	 width="2898.947px" height="1158.793px" viewBox="0 0 2898.947 1158.793" enable-background="new 0 0 2898.947 1158.793"
	 xml:space="preserve">
<path fill="none" stroke="#000000" stroke-linejoin="round" stroke-miterlimit="10" d="M2234.324,691.61
	c-3.129,2.299-4.789,3.536-6.779,5.036c-1.902,1.436-2.255,4.199,1.979,5.491c91.783,28.014,525.084,268.946,584.75,303.567
	c7.569,4.394,14.015,4.563,21.591-0.521c7.084-4.756,51.104-34.503,56.676-38.284c5.479-3.728,8.123-6.138,5.208-12.426
	c-3.112-6.708-151.038-325.934-155.667-335.854c-5.84-12.513-12.562-8.023-11.877,3.33c0.721,11.959,3.979,62.665,1.796,85.613
	c-7.237,75.974-85.694,93.32-131.263,81.314c-148.943-39.238-265.061-91.032-349.254-100.003
	C2244.816,688.175,2238.086,688.844,2234.324,691.61z M2364.848,6.371c-1.621-5.392-3.893-6.651-9.726-6.323
	c-5.831,0.327-264.294,20.719-295.386,25.327c-4.883,0.724-8.613,2.421-1.99,6.986c29.227,20.144,184.664,161.886,215.121,196.398
	c7.414,8.402,14.143,9.224,23.676,8.056c77.354-9.481,164.227-5.948,187.693-2.62c5.166,0.731,7.812-3.293,3.777-8.461
	c-4.029-5.169-25.081-31.137-33.345-41.012c-8.264-9.873-42.535-63.382-58.818-100.102
	C2379.571,47.901,2370.623,25.592,2364.848,6.371z M1027.892,683.911c4.644,0.54,967.017,124.801,991.337,127.938
	c22.614,2.919,56.933,8.482,75.396,12.579c17.464,3.876,358.242,74.541,514.38,96.935c3.884,0.557,6.07-2.7,1.838-5.146
	C2293.34,732.523,2284.818,760.21,2072.85,652.736c-238.972-121.167-615.114-309.491-724.75-391.292
	c-6.069-4.529-11.918-2.157-6.795,5.903c19.291,30.356,14.995,54.642-11.835,76.359
	c-114.707,92.853-266.394,273.635-303.247,335.265C1024.436,681.956,1024.76,683.547,1027.892,683.911z M2042.53,660.237
	c12.862-4.351,26.812,2.555,31.165,15.42c4.348,12.86-2.557,26.813-15.419,31.164c-12.864,4.349-26.817-2.558-31.166-15.418
	C2022.762,678.538,2029.664,664.586,2042.53,660.237z M1118.281,633.43c14.409-4.87,30.039,2.862,34.91,17.272
	c4.871,14.409-2.862,30.04-17.271,34.91c-14.41,4.87-30.041-2.861-34.911-17.271S1103.871,638.301,1118.281,633.43z
	 M1228.431,737.676C900.85,692.7,426.713,679.675,184.065,643.645c-13.715-2.033-12.676-0.396-6.973,7.42
	c15.333,21.011,286.369,419.474,289.228,423.599c3.673,5.304,5.655,5.761,11.499,3.289
	c61.063-25.832,566.157-270.558,751.982-335.166C1234.325,741.211,1232.979,738.3,1228.431,737.676z M151.24,649.12
	c-3.333-4-6.673-3.366-10.102,1.062C128.169,666.93,52.956,742.886,2.792,753.609c-3.299,0.705-4.038,2.364-0.232,5.839
	c33.156,30.25,147.06,240.312,189.771,369.862c9.896,30.021,26.279,33.32,52.788,26.486c47.331-12.203,88.864-24.395,165.716-51.034
	c11.741-4.066,31.565-11.812,47.424-18.354c4.207-1.735,5.466-3.938,1.744-9.123C455.197,1070.595,154.341,652.841,151.24,649.12z
	 M2259.869,246c5.207-2.289,4.463-4.174-0.041-9.486c-26.67-31.471-189.633-179.586-217.619-200.365
	c-4.752-3.529-7.674-5.559-16.252-4.359c-81.646,11.412-530.416,134.713-678.639,211.096c-4.605,2.373-4.742,6.082-1.121,8.648
	c101.438,71.863,609.762,332.805,674.732,363.934c6.695,3.209,10.273,2.459,13.682-5.328
	c22.123-50.569,86.455-274.221,91.847-292.479c2.908-9.848,6.693-16.98,20.606-23.158
	C2160.664,288.465,2254.66,248.287,2259.869,246z M1465.555,272.57c-3.719,0-6.729-3.014-6.729-6.732
	c0-3.718,3.014-6.732,6.729-6.732c3.721,0,6.732,3.014,6.732,6.732C1472.287,269.556,1469.273,272.57,1465.555,272.57z
	 M1465.555,220.57c-3.719,0-6.729-3.014-6.729-6.732c0-3.718,3.014-6.732,6.729-6.732c3.721,0,6.732,3.014,6.732,6.732
	C1472.287,217.556,1469.273,220.57,1465.555,220.57z M1522.125,324.57c-3.719,0-6.732-3.014-6.732-6.732
	c0-3.718,3.017-6.732,6.732-6.732s6.732,3.014,6.732,6.732C1528.857,321.556,1525.844,324.57,1522.125,324.57z M1522.125,272.57
	c-3.719,0-6.732-3.014-6.732-6.732c0-3.718,3.017-6.732,6.732-6.732s6.732,3.014,6.732,6.732
	C1528.857,269.556,1525.844,272.57,1522.125,272.57z M1522.125,220.57c-3.719,0-6.732-3.014-6.732-6.732
	c0-3.718,3.017-6.732,6.732-6.732s6.732,3.014,6.732,6.732C1528.857,217.556,1525.844,220.57,1522.125,220.57z M1578.695,324.57
	c-3.722,0-6.732-3.014-6.732-6.732c0-3.718,3.014-6.732,6.732-6.732c3.718,0,6.729,3.014,6.729,6.732
	C1585.427,321.556,1582.414,324.57,1578.695,324.57z M1578.695,272.57c-3.722,0-6.732-3.014-6.732-6.732
	c0-3.718,3.014-6.732,6.732-6.732c3.718,0,6.729,3.014,6.729,6.732C1585.427,269.556,1582.414,272.57,1578.695,272.57z
	 M1578.695,220.57c-3.722,0-6.732-3.014-6.732-6.732c0-3.718,3.014-6.732,6.732-6.732c3.718,0,6.729,3.014,6.729,6.732
	C1585.427,217.556,1582.414,220.57,1578.695,220.57z M1635.266,376.568c-3.719,0-6.729-3.014-6.729-6.732
	c0-3.717,3.014-6.732,6.729-6.732c3.721,0,6.732,3.016,6.732,6.732C1641.998,373.555,1638.984,376.568,1635.266,376.568z
	 M1635.266,324.57c-3.719,0-6.729-3.014-6.729-6.732c0-3.718,3.014-6.732,6.729-6.732c3.721,0,6.732,3.014,6.732,6.732
	C1641.998,321.556,1638.984,324.57,1635.266,324.57z M1635.266,272.57c-3.719,0-6.729-3.014-6.729-6.732
	c0-3.718,3.014-6.732,6.729-6.732c3.721,0,6.732,3.014,6.732,6.732C1641.998,269.556,1638.984,272.57,1635.266,272.57z
	 M1635.266,220.57c-3.719,0-6.729-3.014-6.729-6.732c0-3.718,3.014-6.732,6.729-6.732c3.721,0,6.732,3.014,6.732,6.732
	C1641.998,217.556,1638.984,220.57,1635.266,220.57z M1635.266,168.57c-3.719,0-6.729-3.014-6.729-6.732
	c0-3.718,3.014-6.732,6.729-6.732c3.721,0,6.732,3.014,6.732,6.732C1641.998,165.556,1638.984,168.57,1635.266,168.57z
	 M1691.836,428.568c-3.719,0-6.732-3.017-6.732-6.732s3.017-6.732,6.732-6.732s6.732,3.018,6.732,6.732
	C1698.568,425.555,1695.555,428.568,1691.836,428.568z M1691.836,376.568c-3.719,0-6.732-3.014-6.732-6.732
	c0-3.717,3.017-6.732,6.732-6.732s6.732,3.016,6.732,6.732C1698.568,373.555,1695.555,376.568,1691.836,376.568z M1691.836,324.57
	c-3.719,0-6.732-3.014-6.732-6.732c0-3.718,3.017-6.732,6.732-6.732s6.732,3.014,6.732,6.732
	C1698.568,321.556,1695.555,324.57,1691.836,324.57z M1691.836,272.57c-3.719,0-6.732-3.014-6.732-6.732
	c0-3.718,3.017-6.732,6.732-6.732s6.732,3.014,6.732,6.732C1698.568,269.556,1695.555,272.57,1691.836,272.57z M1691.836,220.57
	c-3.719,0-6.732-3.014-6.732-6.732c0-3.718,3.017-6.732,6.732-6.732s6.732,3.014,6.732,6.732
	C1698.568,217.556,1695.555,220.57,1691.836,220.57z M1691.836,168.57c-3.719,0-6.732-3.014-6.732-6.732
	c0-3.718,3.017-6.732,6.732-6.732s6.732,3.014,6.732,6.732C1698.568,165.556,1695.555,168.57,1691.836,168.57z M1748.406,428.568
	c-3.719,0-6.732-3.017-6.732-6.732s3.014-6.732,6.732-6.732c3.718,0,6.729,3.018,6.729,6.732
	C1755.139,425.555,1752.125,428.568,1748.406,428.568z M1748.406,376.568c-3.719,0-6.732-3.014-6.732-6.732
	c0-3.717,3.014-6.732,6.732-6.732c3.718,0,6.729,3.016,6.729,6.732C1755.139,373.555,1752.125,376.568,1748.406,376.568z
	 M1748.406,324.57c-3.719,0-6.732-3.014-6.732-6.732c0-3.718,3.014-6.732,6.732-6.732c3.718,0,6.729,3.014,6.729,6.732
	C1755.138,321.556,1752.125,324.57,1748.406,324.57z M1748.406,272.57c-3.719,0-6.732-3.014-6.732-6.732
	c0-3.718,3.014-6.732,6.732-6.732c3.718,0,6.729,3.014,6.729,6.732C1755.138,269.556,1752.125,272.57,1748.406,272.57z
	 M1748.406,220.57c-3.719,0-6.732-3.014-6.732-6.732c0-3.718,3.014-6.732,6.732-6.732c3.718,0,6.729,3.014,6.729,6.732
	C1755.138,217.556,1752.125,220.57,1748.406,220.57z M1748.406,168.57c-3.719,0-6.732-3.014-6.732-6.732
	c0-3.718,3.014-6.732,6.732-6.732c3.718,0,6.729,3.014,6.729,6.732C1755.138,165.556,1752.125,168.57,1748.406,168.57z
	 M1804.977,480.568c-3.719,0-6.729-3.017-6.729-6.732s3.014-6.732,6.729-6.732c3.721,0,6.732,3.019,6.732,6.732
	C1811.709,477.555,1808.695,480.568,1804.977,480.568z M1804.977,428.568c-3.719,0-6.729-3.017-6.729-6.732s3.014-6.732,6.729-6.732
	c3.721,0,6.732,3.018,6.732,6.732C1811.709,425.555,1808.695,428.568,1804.977,428.568z M1804.977,376.568
	c-3.719,0-6.729-3.014-6.729-6.732c0-3.717,3.014-6.732,6.729-6.732c3.721,0,6.732,3.016,6.732,6.732
	C1811.709,373.555,1808.695,376.568,1804.977,376.568z M1804.977,324.57c-3.719,0-6.729-3.014-6.729-6.732
	c0-3.718,3.014-6.732,6.729-6.732c3.721,0,6.732,3.014,6.732,6.732C1811.709,321.556,1808.695,324.57,1804.977,324.57z
	 M1804.977,272.57c-3.719,0-6.729-3.014-6.729-6.732c0-3.718,3.014-6.732,6.729-6.732c3.721,0,6.732,3.014,6.732,6.732
	C1811.709,269.556,1808.695,272.57,1804.977,272.57z M1804.977,220.57c-3.719,0-6.729-3.014-6.729-6.732
	c0-3.718,3.014-6.732,6.729-6.732c3.721,0,6.732,3.014,6.732,6.732C1811.709,217.556,1808.695,220.57,1804.977,220.57z
	 M1804.977,168.57c-3.719,0-6.729-3.014-6.729-6.732c0-3.718,3.014-6.732,6.729-6.732c3.721,0,6.732,3.014,6.732,6.732
	C1811.709,165.556,1808.695,168.57,1804.977,168.57z M1804.977,116.57c-3.719,0-6.729-3.014-6.729-6.732
	c0-3.718,3.014-6.732,6.729-6.732c3.721,0,6.732,3.014,6.732,6.732C1811.709,113.556,1808.695,116.57,1804.977,116.57z
	 M1861.547,480.568c-3.719,0-6.732-3.017-6.732-6.732s3.017-6.732,6.732-6.732s6.732,3.019,6.732,6.732
	C1868.279,477.555,1865.266,480.568,1861.547,480.568z M1861.547,428.568c-3.719,0-6.732-3.017-6.732-6.732s3.017-6.732,6.732-6.732
	s6.732,3.018,6.732,6.732C1868.279,425.555,1865.266,428.568,1861.547,428.568z M1861.547,376.568c-3.719,0-6.732-3.014-6.732-6.732
	c0-3.717,3.017-6.732,6.732-6.732s6.732,3.016,6.732,6.732C1868.279,373.555,1865.266,376.568,1861.547,376.568z M1861.547,324.57
	c-3.719,0-6.732-3.014-6.732-6.732c0-3.718,3.017-6.732,6.732-6.732s6.732,3.014,6.732,6.732
	C1868.279,321.556,1865.266,324.57,1861.547,324.57z M1861.547,272.57c-3.719,0-6.732-3.014-6.732-6.732
	c0-3.718,3.017-6.732,6.732-6.732s6.732,3.014,6.732,6.732C1868.279,269.556,1865.266,272.57,1861.547,272.57z M1861.547,220.57
	c-3.719,0-6.732-3.014-6.732-6.732c0-3.718,3.017-6.732,6.732-6.732s6.732,3.014,6.732,6.732
	C1868.279,217.556,1865.266,220.57,1861.547,220.57z M1861.547,168.57c-3.719,0-6.732-3.014-6.732-6.732
	c0-3.718,3.017-6.732,6.732-6.732s6.732,3.014,6.732,6.732C1868.279,165.556,1865.266,168.57,1861.547,168.57z M1861.547,116.57
	c-3.719,0-6.732-3.014-6.732-6.732c0-3.718,3.017-6.732,6.732-6.732s6.732,3.014,6.732,6.732
	C1868.279,113.556,1865.266,116.57,1861.547,116.57z M1918.117,532.568c-3.719,0-6.732-3.017-6.732-6.732s3.014-6.732,6.732-6.732
	c3.718,0,6.729,3.019,6.729,6.732C1924.85,529.555,1921.836,532.568,1918.117,532.568z M1918.117,480.568
	c-3.719,0-6.732-3.017-6.732-6.732s3.014-6.732,6.732-6.732c3.718,0,6.729,3.019,6.729,6.732
	C1924.85,477.555,1921.836,480.568,1918.117,480.568z M1918.117,428.568c-3.719,0-6.732-3.017-6.732-6.732s3.014-6.732,6.732-6.732
	c3.718,0,6.729,3.018,6.729,6.732C1924.85,425.555,1921.836,428.568,1918.117,428.568z M1918.117,376.568
	c-3.719,0-6.732-3.014-6.732-6.732c0-3.717,3.014-6.732,6.732-6.732c3.718,0,6.729,3.016,6.729,6.732
	C1924.85,373.555,1921.836,376.568,1918.117,376.568z M1918.117,324.57c-3.719,0-6.732-3.014-6.732-6.732
	c0-3.718,3.014-6.732,6.732-6.732c3.718,0,6.729,3.014,6.729,6.732C1924.849,321.556,1921.836,324.57,1918.117,324.57z
	 M1918.117,272.57c-3.719,0-6.732-3.014-6.732-6.732c0-3.718,3.014-6.732,6.732-6.732c3.718,0,6.729,3.014,6.729,6.732
	C1924.849,269.556,1921.836,272.57,1918.117,272.57z M1918.117,220.57c-3.719,0-6.732-3.014-6.732-6.732
	c0-3.718,3.014-6.732,6.732-6.732c3.718,0,6.729,3.014,6.729,6.732C1924.849,217.556,1921.836,220.57,1918.117,220.57z
	 M1918.117,168.57c-3.719,0-6.732-3.014-6.732-6.732c0-3.718,3.014-6.732,6.732-6.732c3.718,0,6.729,3.014,6.729,6.732
	C1924.849,165.556,1921.836,168.57,1918.117,168.57z M1918.117,116.57c-3.719,0-6.732-3.014-6.732-6.732
	c0-3.718,3.014-6.732,6.732-6.732c3.718,0,6.729,3.014,6.729,6.732C1924.849,113.556,1921.836,116.57,1918.117,116.57z
	 M1974.688,532.568c-3.719,0-6.729-3.017-6.729-6.732s3.015-6.732,6.729-6.732c3.721,0,6.732,3.019,6.732,6.732
	C1981.42,529.555,1978.406,532.568,1974.688,532.568z M1974.688,480.568c-3.719,0-6.729-3.017-6.729-6.732s3.015-6.732,6.729-6.732
	c3.721,0,6.732,3.019,6.732,6.732C1981.42,477.555,1978.406,480.568,1974.688,480.568z M1974.688,428.568
	c-3.719,0-6.729-3.017-6.729-6.732s3.015-6.732,6.729-6.732c3.721,0,6.732,3.018,6.732,6.732
	C1981.42,425.555,1978.406,428.568,1974.688,428.568z M1974.688,376.568c-3.719,0-6.729-3.014-6.729-6.732
	c0-3.717,3.015-6.732,6.729-6.732c3.721,0,6.732,3.016,6.732,6.732C1981.42,373.555,1978.406,376.568,1974.688,376.568z
	 M1974.688,324.57c-3.719,0-6.729-3.014-6.729-6.732c0-3.718,3.015-6.732,6.729-6.732c3.721,0,6.732,3.014,6.732,6.732
	C1981.42,321.556,1978.406,324.57,1974.688,324.57z M1974.688,272.57c-3.719,0-6.729-3.014-6.729-6.732
	c0-3.718,3.015-6.732,6.729-6.732c3.721,0,6.732,3.014,6.732,6.732C1981.42,269.556,1978.406,272.57,1974.688,272.57z
	 M1974.688,220.57c-3.719,0-6.729-3.014-6.729-6.732c0-3.718,3.015-6.732,6.729-6.732c3.721,0,6.732,3.014,6.732,6.732
	C1981.42,217.556,1978.406,220.57,1974.688,220.57z M1974.688,168.57c-3.719,0-6.729-3.014-6.729-6.732
	c0-3.718,3.015-6.732,6.729-6.732c3.721,0,6.732,3.014,6.732,6.732C1981.42,165.556,1978.406,168.57,1974.688,168.57z
	 M1974.688,116.57c-3.719,0-6.729-3.014-6.729-6.732c0-3.718,3.015-6.732,6.729-6.732c3.721,0,6.732,3.014,6.732,6.732
	C1981.42,113.556,1978.406,116.57,1974.688,116.57z M1974.688,64.57c-3.719,0-6.729-3.014-6.729-6.732
	c0-3.718,3.015-6.732,6.729-6.732c3.721,0,6.732,3.014,6.732,6.732C1981.42,61.556,1978.406,64.57,1974.688,64.57z
	 M2031.258,532.568c-3.719,0-6.729-3.017-6.729-6.732s3.014-6.732,6.729-6.732c3.719,0,6.732,3.019,6.732,6.732
	C2037.99,529.555,2034.977,532.568,2031.258,532.568z M2031.258,480.568c-3.719,0-6.729-3.017-6.729-6.732s3.014-6.732,6.729-6.732
	c3.719,0,6.732,3.019,6.732,6.732C2037.99,477.555,2034.977,480.568,2031.258,480.568z M2031.258,428.568
	c-3.719,0-6.729-3.017-6.729-6.732s3.014-6.732,6.729-6.732c3.719,0,6.732,3.018,6.732,6.732
	C2037.99,425.555,2034.977,428.568,2031.258,428.568z M2031.258,376.568c-3.719,0-6.729-3.014-6.729-6.732
	c0-3.717,3.014-6.732,6.729-6.732c3.719,0,6.732,3.016,6.732,6.732C2037.99,373.555,2034.977,376.568,2031.258,376.568z
	 M2031.258,324.57c-3.719,0-6.729-3.014-6.729-6.732c0-3.718,3.014-6.732,6.729-6.732c3.719,0,6.732,3.014,6.732,6.732
	C2037.99,321.556,2034.977,324.57,2031.258,324.57z M2031.258,272.57c-3.719,0-6.729-3.014-6.729-6.732
	c0-3.718,3.014-6.732,6.729-6.732c3.719,0,6.732,3.014,6.732,6.732C2037.99,269.556,2034.977,272.57,2031.258,272.57z
	 M2031.258,220.57c-3.719,0-6.729-3.014-6.729-6.732c0-3.718,3.014-6.732,6.729-6.732c3.719,0,6.732,3.014,6.732,6.732
	C2037.99,217.556,2034.977,220.57,2031.258,220.57z M2031.258,168.57c-3.719,0-6.729-3.014-6.729-6.732
	c0-3.718,3.014-6.732,6.729-6.732c3.719,0,6.732,3.014,6.732,6.732C2037.99,165.556,2034.977,168.57,2031.258,168.57z
	 M2031.258,116.57c-3.719,0-6.729-3.014-6.729-6.732c0-3.718,3.014-6.732,6.729-6.732c3.719,0,6.732,3.014,6.732,6.732
	C2037.99,113.556,2034.977,116.57,2031.258,116.57z M2031.258,64.57c-3.719,0-6.729-3.014-6.729-6.732
	c0-3.718,3.014-6.732,6.729-6.732c3.719,0,6.732,3.014,6.732,6.732C2037.99,61.556,2034.977,64.57,2031.258,64.57z
	 M2087.828,376.568c-3.719,0-6.732-3.014-6.732-6.732c0-3.717,3.014-6.732,6.732-6.732c3.718,0,6.729,3.016,6.729,6.732
	C2094.561,373.555,2091.547,376.568,2087.828,376.568z M2087.828,324.57c-3.719,0-6.732-3.014-6.732-6.732
	c0-3.718,3.014-6.732,6.732-6.732c3.718,0,6.729,3.014,6.729,6.732C2094.561,321.556,2091.547,324.57,2087.828,324.57z
	 M2087.828,272.57c-3.719,0-6.732-3.014-6.732-6.732c0-3.718,3.014-6.732,6.732-6.732c3.718,0,6.729,3.014,6.729,6.732
	C2094.561,269.556,2091.547,272.57,2087.828,272.57z M2087.828,220.57c-3.719,0-6.732-3.014-6.732-6.732
	c0-3.718,3.014-6.732,6.732-6.732c3.718,0,6.729,3.014,6.729,6.732C2094.561,217.556,2091.547,220.57,2087.828,220.57z
	 M2087.828,168.57c-3.719,0-6.732-3.014-6.732-6.732c0-3.718,3.014-6.732,6.732-6.732c3.718,0,6.729,3.014,6.729,6.732
	C2094.561,165.556,2091.547,168.57,2087.828,168.57z M2087.828,116.57c-3.719,0-6.732-3.014-6.732-6.732
	c0-3.718,3.014-6.732,6.732-6.732c3.718,0,6.729,3.014,6.729,6.732C2094.561,113.556,2091.547,116.57,2087.828,116.57z
	 M2200.969,207.105c3.719,0,6.732,3.014,6.732,6.732c0,3.718-3.014,6.732-6.732,6.732c-3.718,0-6.729-3.014-6.729-6.732
	C2194.237,210.119,2197.25,207.105,2200.969,207.105z M2144.398,155.105c3.719,0,6.729,3.014,6.729,6.732
	c0,3.718-3.014,6.732-6.729,6.732c-3.721,0-6.732-3.014-6.732-6.732C2137.666,158.119,2140.68,155.105,2144.398,155.105z
	 M2144.398,207.105c3.719,0,6.729,3.014,6.729,6.732c0,3.718-3.014,6.732-6.729,6.732c-3.721,0-6.732-3.014-6.732-6.732
	C2137.666,210.119,2140.68,207.105,2144.398,207.105z M2137.666,265.838c0-3.719,3.014-6.732,6.732-6.732
	c3.718,0,6.729,3.014,6.729,6.732c0,3.718-3.014,6.732-6.729,6.732C2140.68,272.57,2137.666,269.557,2137.666,265.838z"/>
</svg>
