<?xml version="1.0" encoding="utf-8"?>
<!-- Generator: Adobe Illustrator 16.0.0, SVG Export Plug-In . SVG Version: 6.00 Build 0)  -->
<!DOCTYPE svg PUBLIC "-//W3C//DTD SVG 1.1//EN" "http://www.w3.org/Graphics/SVG/1.1/DTD/svg11.dtd">
<svg version="1.1" id="Layer_1" xmlns="http://www.w3.org/2000/svg" xmlns:xlink="http://www.w3.org/1999/xlink" x="0px" y="0px"
	 width="2898.947px" height="1158.793px" viewBox="0 0 2898.947 1158.793" enable-background="new 0 0 2898.947 1158.793"
	 xml:space="preserve">
<path fill="none" stroke="#000001" stroke-linejoin="round" stroke-miterlimit="10" d="M2042.53,660.237
	c12.862-4.354,26.812,2.555,31.165,15.42c4.353,12.855-2.557,26.812-15.419,31.164c-12.863,4.349-26.812-2.562-31.166-15.418
	C2022.762,678.538,2029.664,664.586,2042.53,660.237z M1127.101,631.979c15.211,0,27.542,12.331,27.542,27.543
	s-12.331,27.541-27.542,27.541s-27.542-12.329-27.542-27.541S1111.89,631.979,1127.101,631.979z M1465.555,272.57
	c-3.719,0-6.729-3.014-6.729-6.732c0-3.718,3.019-6.732,6.729-6.732c3.721,0,6.732,3.014,6.732,6.732
	C1472.287,269.556,1469.273,272.57,1465.555,272.57z M1465.555,220.57c-3.719,0-6.729-3.014-6.729-6.732
	c0-3.718,3.019-6.732,6.729-6.732c3.721,0,6.732,3.014,6.732,6.732C1472.287,217.556,1469.273,220.57,1465.555,220.57z
	 M1522.126,311.106c3.72,0,6.732,3.014,6.732,6.732c0,3.718-3.014,6.732-6.732,6.732c-3.718,0-6.73-3.014-6.73-6.732
	C1515.394,314.12,1518.408,311.106,1522.126,311.106z M1522.126,259.106c3.72,0,6.732,3.014,6.732,6.732
	c0,3.718-3.014,6.732-6.732,6.732c-3.718,0-6.73-3.014-6.73-6.732C1515.394,262.12,1518.408,259.106,1522.126,259.106z
	 M1522.126,207.106c3.72,0,6.732,3.014,6.732,6.732c0,3.718-3.014,6.732-6.732,6.732c-3.718,0-6.73-3.014-6.73-6.732
	C1515.394,210.12,1518.408,207.106,1522.126,207.106z M1578.695,324.57c-3.722,0-6.729-3.015-6.729-6.732
	c0-3.717,3.014-6.731,6.729-6.731s6.729,3.014,6.729,6.731C1585.427,321.556,1582.414,324.57,1578.695,324.57z M1578.695,272.57
	c-3.722,0-6.729-3.014-6.729-6.732c0-3.718,3.014-6.732,6.729-6.732s6.729,3.014,6.729,6.732
	C1585.427,269.556,1582.414,272.57,1578.695,272.57z M1578.695,220.57c-3.722,0-6.729-3.014-6.729-6.732
	c0-3.718,3.014-6.732,6.729-6.732s6.729,3.014,6.729,6.732C1585.427,217.556,1582.414,220.57,1578.695,220.57z M1635.266,376.568
	c-3.719,0-6.729-3.015-6.729-6.732s3.019-6.732,6.729-6.732c3.721,0,6.732,3.017,6.732,6.732
	C1641.999,373.555,1638.984,376.568,1635.266,376.568z M1635.266,324.57c-3.719,0-6.729-3.015-6.729-6.732
	c0-3.717,3.019-6.731,6.729-6.731c3.721,0,6.732,3.014,6.732,6.731C1641.999,321.555,1638.984,324.57,1635.266,324.57z
	 M1635.266,272.57c-3.719,0-6.729-3.014-6.729-6.732c0-3.718,3.019-6.732,6.729-6.732c3.721,0,6.732,3.014,6.732,6.732
	C1641.999,269.556,1638.984,272.57,1635.266,272.57z M1635.266,220.57c-3.719,0-6.729-3.014-6.729-6.732
	c0-3.718,3.019-6.732,6.729-6.732c3.721,0,6.732,3.014,6.732,6.732C1641.999,217.556,1638.984,220.57,1635.266,220.57z
	 M1635.266,168.57c-3.719,0-6.729-3.014-6.729-6.732c0-3.718,3.019-6.732,6.729-6.732c3.721,0,6.732,3.014,6.732,6.732
	C1641.999,165.556,1638.984,168.57,1635.266,168.57z M1691.841,415.104c3.718,0,6.73,3.014,6.73,6.732s-3.014,6.732-6.73,6.732
	c-3.72,0-6.732-3.016-6.732-6.732S1688.121,415.104,1691.841,415.104z M1691.841,363.104c3.718,0,6.73,3.014,6.73,6.732
	c0,3.718-3.014,6.732-6.73,6.732c-3.72,0-6.732-3.014-6.732-6.732C1685.107,366.118,1688.121,363.104,1691.841,363.104z
	 M1691.841,311.106c3.718,0,6.73,3.014,6.73,6.732c0,3.718-3.014,6.732-6.73,6.732c-3.72,0-6.732-3.014-6.732-6.732
	C1685.107,314.12,1688.121,311.106,1691.841,311.106z M1691.841,259.106c3.718,0,6.73,3.014,6.73,6.732
	c0,3.718-3.014,6.732-6.73,6.732c-3.72,0-6.732-3.014-6.732-6.732C1685.107,262.12,1688.121,259.106,1691.841,259.106z
	 M1691.841,207.106c3.718,0,6.73,3.014,6.73,6.732c0,3.718-3.014,6.732-6.73,6.732c-3.72,0-6.732-3.014-6.732-6.732
	C1685.107,210.12,1688.121,207.106,1691.841,207.106z M1691.841,155.106c3.718,0,6.73,3.014,6.73,6.732
	c0,3.718-3.014,6.732-6.73,6.732c-3.72,0-6.732-3.014-6.732-6.732C1685.107,158.12,1688.121,155.106,1691.841,155.106z
	 M1748.406,428.568c-3.719,0-6.729-3.021-6.729-6.732s3.014-6.732,6.729-6.732s6.729,3.019,6.729,6.732
	C1755.139,425.555,1752.126,428.568,1748.406,428.568z M1748.406,376.568c-3.719,0-6.729-3.015-6.729-6.732s3.014-6.732,6.729-6.732
	s6.729,3.017,6.729,6.732C1755.139,373.555,1752.126,376.568,1748.406,376.568z M1748.406,311.106c3.718,0,6.732,3.014,6.732,6.732
	c0,3.718-3.015,6.732-6.732,6.732c-3.717,0-6.73-3.014-6.73-6.732C1741.676,314.12,1744.688,311.106,1748.406,311.106z
	 M1748.406,259.106c3.718,0,6.732,3.014,6.732,6.732c0,3.718-3.015,6.732-6.732,6.732c-3.717,0-6.73-3.014-6.73-6.732
	C1741.676,262.12,1744.688,259.106,1748.406,259.106z M1748.406,207.106c3.718,0,6.732,3.014,6.732,6.732
	c0,3.718-3.015,6.732-6.732,6.732c-3.717,0-6.73-3.014-6.73-6.732C1741.676,210.12,1744.688,207.106,1748.406,207.106z
	 M1748.406,155.106c3.718,0,6.732,3.014,6.732,6.732c0,3.718-3.015,6.732-6.732,6.732c-3.717,0-6.73-3.014-6.73-6.732
	C1741.676,158.12,1744.688,155.106,1748.406,155.106z M1804.977,480.568c-3.719,0-6.729-3.021-6.729-6.732s3.014-6.732,6.729-6.732
	c3.721,0,6.732,3.021,6.732,6.732C1811.71,477.555,1808.695,480.568,1804.977,480.568z M1804.977,428.568
	c-3.719,0-6.729-3.021-6.729-6.732s3.014-6.732,6.729-6.732c3.721,0,6.732,3.019,6.732,6.732
	C1811.71,425.555,1808.695,428.568,1804.977,428.568z M1804.977,376.568c-3.719,0-6.729-3.015-6.729-6.732s3.014-6.732,6.729-6.732
	c3.721,0,6.732,3.017,6.732,6.732C1811.71,373.555,1808.695,376.568,1804.977,376.568z M1804.977,324.57
	c-3.719,0-6.729-3.015-6.729-6.732c0-3.717,3.014-6.731,6.729-6.731c3.721,0,6.732,3.014,6.732,6.731
	C1811.71,321.555,1808.695,324.57,1804.977,324.57z M1804.977,272.57c-3.719,0-6.729-3.014-6.729-6.732
	c0-3.718,3.014-6.732,6.729-6.732c3.721,0,6.732,3.014,6.732,6.732C1811.71,269.556,1808.695,272.57,1804.977,272.57z
	 M1804.977,220.57c-3.719,0-6.729-3.014-6.729-6.732c0-3.718,3.014-6.732,6.729-6.732c3.721,0,6.732,3.014,6.732,6.732
	C1811.71,217.556,1808.695,220.57,1804.977,220.57z M1804.977,168.57c-3.719,0-6.729-3.014-6.729-6.732
	c0-3.718,3.014-6.732,6.729-6.732c3.721,0,6.732,3.014,6.732,6.732C1811.71,165.556,1808.695,168.57,1804.977,168.57z
	 M1804.977,116.57c-3.719,0-6.729-3.014-6.729-6.732c0-3.718,3.014-6.732,6.729-6.732c3.721,0,6.732,3.014,6.732,6.732
	C1811.71,113.556,1808.695,116.57,1804.977,116.57z M1861.552,467.104c3.718,0,6.73,3.016,6.73,6.732s-3.014,6.732-6.73,6.732
	s-6.732-3.016-6.732-6.732S1857.833,467.104,1861.552,467.104z M1861.552,415.104c3.718,0,6.73,3.014,6.73,6.732
	s-3.014,6.732-6.73,6.732s-6.732-3.016-6.732-6.732S1857.833,415.104,1861.552,415.104z M1861.552,363.104
	c3.718,0,6.73,3.014,6.73,6.732c0,3.718-3.014,6.732-6.73,6.732s-6.732-3.014-6.732-6.732
	C1854.818,366.118,1857.833,363.104,1861.552,363.104z M1861.552,311.106c3.718,0,6.73,3.014,6.73,6.732
	c0,3.718-3.014,6.732-6.73,6.732s-6.732-3.014-6.732-6.732C1854.818,314.12,1857.833,311.106,1861.552,311.106z M1861.552,259.106
	c3.718,0,6.73,3.014,6.73,6.732c0,3.718-3.014,6.732-6.73,6.732s-6.732-3.014-6.732-6.732
	C1854.818,262.12,1857.833,259.106,1861.552,259.106z M1861.552,207.106c3.718,0,6.73,3.014,6.73,6.732
	c0,3.718-3.014,6.732-6.73,6.732s-6.732-3.014-6.732-6.732C1854.818,210.12,1857.833,207.106,1861.552,207.106z M1861.552,155.106
	c3.718,0,6.73,3.014,6.73,6.732c0,3.718-3.014,6.732-6.73,6.732s-6.732-3.014-6.732-6.732
	C1854.818,158.12,1857.833,155.106,1861.552,155.106z M1861.552,103.106c3.718,0,6.73,3.014,6.73,6.732
	c0,3.718-3.014,6.732-6.73,6.732s-6.732-3.014-6.732-6.732C1854.818,106.12,1857.833,103.106,1861.552,103.106z M1918.117,532.568
	c-3.719,0-6.729-3.021-6.729-6.732s3.014-6.732,6.729-6.732s6.729,3.021,6.729,6.732
	C1924.85,529.555,1921.841,532.568,1918.117,532.568z M1918.117,480.568c-3.719,0-6.729-3.021-6.729-6.732s3.014-6.732,6.729-6.732
	s6.729,3.021,6.729,6.732C1924.85,477.555,1921.841,480.568,1918.117,480.568z M1918.117,428.568c-3.719,0-6.729-3.021-6.729-6.732
	s3.014-6.732,6.729-6.732s6.729,3.019,6.729,6.732C1924.85,425.555,1921.841,428.568,1918.117,428.568z M1918.117,376.568
	c-3.719,0-6.729-3.015-6.729-6.732s3.014-6.732,6.729-6.732s6.729,3.017,6.729,6.732
	C1924.85,373.555,1921.841,376.568,1918.117,376.568z M1918.117,311.106c3.718,0,6.732,3.014,6.732,6.732
	c0,3.718-3.015,6.732-6.732,6.732c-3.717,0-6.73-3.014-6.73-6.732C1911.385,314.12,1914.399,311.106,1918.117,311.106z
	 M1918.117,259.106c3.718,0,6.732,3.014,6.732,6.732c0,3.718-3.015,6.732-6.732,6.732c-3.717,0-6.73-3.014-6.73-6.732
	C1911.385,262.12,1914.399,259.106,1918.117,259.106z M1918.117,207.106c3.718,0,6.732,3.014,6.732,6.732
	c0,3.718-3.015,6.732-6.732,6.732c-3.717,0-6.73-3.014-6.73-6.732C1911.385,210.12,1914.399,207.106,1918.117,207.106z
	 M1918.117,155.106c3.718,0,6.732,3.014,6.732,6.732c0,3.718-3.015,6.732-6.732,6.732c-3.717,0-6.73-3.014-6.73-6.732
	C1911.385,158.12,1914.399,155.106,1918.117,155.106z M1918.117,103.106c3.718,0,6.732,3.014,6.732,6.732
	c0,3.718-3.015,6.732-6.732,6.732c-3.717,0-6.73-3.014-6.73-6.732C1911.385,106.12,1914.399,103.106,1918.117,103.106z
	 M1974.688,532.568c-3.719,0-6.729-3.021-6.729-6.732s3.014-6.732,6.729-6.732c3.721,0,6.732,3.021,6.732,6.732
	C1981.425,529.555,1978.406,532.568,1974.688,532.568z M1974.688,480.568c-3.719,0-6.729-3.021-6.729-6.732s3.014-6.732,6.729-6.732
	c3.721,0,6.732,3.021,6.732,6.732C1981.425,477.555,1978.406,480.568,1974.688,480.568z M1974.688,428.568
	c-3.719,0-6.729-3.021-6.729-6.732s3.014-6.732,6.729-6.732c3.721,0,6.732,3.019,6.732,6.732
	C1981.425,425.555,1978.406,428.568,1974.688,428.568z M1974.688,376.568c-3.719,0-6.729-3.015-6.729-6.732s3.014-6.732,6.729-6.732
	c3.721,0,6.732,3.017,6.732,6.732C1981.425,373.555,1978.406,376.568,1974.688,376.568z M1974.688,324.57
	c-3.719,0-6.729-3.015-6.729-6.732c0-3.717,3.014-6.731,6.729-6.731c3.721,0,6.732,3.014,6.732,6.731
	C1981.425,321.555,1978.406,324.57,1974.688,324.57z M1974.688,272.57c-3.719,0-6.729-3.014-6.729-6.732
	c0-3.718,3.014-6.732,6.729-6.732c3.721,0,6.732,3.014,6.732,6.732C1981.425,269.556,1978.406,272.57,1974.688,272.57z
	 M1974.688,220.57c-3.719,0-6.729-3.014-6.729-6.732c0-3.718,3.014-6.732,6.729-6.732c3.721,0,6.732,3.014,6.732,6.732
	C1981.425,217.556,1978.406,220.57,1974.688,220.57z M1974.688,168.57c-3.719,0-6.729-3.014-6.729-6.732
	c0-3.718,3.014-6.732,6.729-6.732c3.721,0,6.732,3.014,6.732,6.732C1981.425,165.556,1978.406,168.57,1974.688,168.57z
	 M1974.688,116.57c-3.719,0-6.729-3.014-6.729-6.732c0-3.718,3.014-6.732,6.729-6.732c3.721,0,6.732,3.014,6.732,6.732
	C1981.425,113.556,1978.406,116.57,1974.688,116.57z M1974.688,64.57c-3.719,0-6.729-3.014-6.729-6.732
	c0-3.718,3.014-6.732,6.729-6.732c3.721,0,6.732,3.014,6.732,6.732C1981.425,61.556,1978.406,64.57,1974.688,64.57z
	 M2031.26,519.104c3.718,0,6.73,3.016,6.73,6.732s-3.014,6.732-6.73,6.732c-3.719,0-6.732-3.016-6.732-6.732
	S2027.542,519.104,2031.26,519.104z M2031.26,467.104c3.718,0,6.73,3.016,6.73,6.732s-3.014,6.732-6.73,6.732
	c-3.719,0-6.732-3.016-6.732-6.732S2027.542,467.104,2031.26,467.104z M2031.26,415.104c3.718,0,6.73,3.014,6.73,6.732
	s-3.014,6.732-6.73,6.732c-3.719,0-6.732-3.016-6.732-6.732S2027.542,415.104,2031.26,415.104z M2031.26,363.104
	c3.718,0,6.73,3.014,6.73,6.732c0,3.718-3.014,6.732-6.73,6.732c-3.719,0-6.732-3.014-6.732-6.732
	C2024.528,366.118,2027.542,363.104,2031.26,363.104z M2031.26,311.106c3.718,0,6.73,3.014,6.73,6.732
	c0,3.718-3.014,6.732-6.73,6.732c-3.719,0-6.732-3.014-6.732-6.732C2024.528,314.12,2027.542,311.106,2031.26,311.106z
	 M2031.26,259.106c3.718,0,6.73,3.014,6.73,6.732c0,3.718-3.014,6.732-6.73,6.732c-3.719,0-6.732-3.014-6.732-6.732
	C2024.528,262.12,2027.542,259.106,2031.26,259.106z M2031.26,207.106c3.718,0,6.73,3.014,6.73,6.732
	c0,3.718-3.014,6.732-6.73,6.732c-3.719,0-6.732-3.014-6.732-6.732C2024.528,210.12,2027.542,207.106,2031.26,207.106z
	 M2031.26,155.106c3.718,0,6.73,3.014,6.73,6.732c0,3.718-3.014,6.732-6.73,6.732c-3.719,0-6.732-3.014-6.732-6.732
	C2024.528,158.12,2027.542,155.106,2031.26,155.106z M2031.26,103.106c3.718,0,6.73,3.014,6.73,6.732
	c0,3.718-3.014,6.732-6.73,6.732c-3.719,0-6.732-3.014-6.732-6.732C2024.528,106.12,2027.542,103.106,2031.26,103.106z
	 M2031.26,51.106c3.718,0,6.73,3.014,6.73,6.732c0,3.718-3.014,6.732-6.73,6.732c-3.719,0-6.732-3.014-6.732-6.732
	C2024.528,54.12,2027.542,51.106,2031.26,51.106z M2087.828,376.568c-3.719,0-6.729-3.015-6.729-6.732s3.014-6.732,6.729-6.732
	c3.718,0,6.729,3.017,6.729,6.732C2094.561,373.555,2091.552,376.568,2087.828,376.568z M2087.828,324.57
	c-3.719,0-6.729-3.015-6.729-6.732c0-3.717,3.014-6.731,6.729-6.731c3.718,0,6.729,3.014,6.729,6.731
	C2094.561,321.556,2091.552,324.57,2087.828,324.57z M2087.828,272.57c-3.719,0-6.729-3.014-6.729-6.732
	c0-3.718,3.014-6.732,6.729-6.732c3.718,0,6.729,3.014,6.729,6.732C2094.561,269.556,2091.552,272.57,2087.828,272.57z
	 M2087.828,220.57c-3.719,0-6.729-3.014-6.729-6.732c0-3.718,3.014-6.732,6.729-6.732c3.718,0,6.729,3.014,6.729,6.732
	C2094.561,217.556,2091.552,220.57,2087.828,220.57z M2087.828,168.57c-3.719,0-6.729-3.014-6.729-6.732
	c0-3.718,3.014-6.732,6.729-6.732c3.718,0,6.729,3.014,6.729,6.732C2094.561,165.556,2091.552,168.57,2087.828,168.57z
	 M2087.828,116.57c-3.719,0-6.729-3.014-6.729-6.732c0-3.718,3.014-6.732,6.729-6.732c3.718,0,6.729,3.014,6.729,6.732
	C2094.561,113.556,2091.552,116.57,2087.828,116.57z M2200.969,207.105c3.718,0,6.73,3.014,6.73,6.732
	c0,3.718-3.014,6.732-6.73,6.732c-3.719,0-6.732-3.014-6.732-6.732C2194.237,210.119,2197.251,207.105,2200.969,207.105z
	 M2144.398,155.105c3.719,0,6.729,3.014,6.729,6.732c0,3.718-3.019,6.732-6.729,6.732c-3.721,0-6.731-3.014-6.731-6.732
	C2137.667,158.119,2140.68,155.105,2144.398,155.105z M2144.398,207.105c3.719,0,6.729,3.014,6.729,6.732
	c0,3.718-3.019,6.732-6.729,6.732c-3.721,0-6.731-3.014-6.731-6.732C2137.667,210.119,2140.68,207.105,2144.398,207.105z
	 M2144.397,259.107c3.718,0,6.73,3.014,6.73,6.731c0,3.718-3.014,6.731-6.73,6.731s-6.73-3.013-6.73-6.731
	C2137.667,262.121,2140.679,259.107,2144.397,259.107z M2226.219,698.675c0.117-0.765,0.611-1.49,1.326-2.028
	c1.985-1.5,3.646-2.732,6.774-5.031c3.765-2.771,10.492-3.438,17.159-2.734c84.191,8.971,200.312,60.766,349.254,100.003
	c45.566,12.006,124.021-5.341,131.263-81.312c2.188-22.948-1.073-73.654-1.796-85.613c-0.686-11.354,6.037-15.843,11.877-3.33
	c4.629,9.92,152.559,329.146,155.667,335.854c2.915,6.286,0.271,8.696-5.208,12.429c-5.57,3.778-49.592,33.523-56.676,38.283
	c-7.576,5.084-14.021,4.913-21.592,0.521c-22.125-12.838-95.618-54.041-184.025-102.237c-9.47,0-17.133,7.134-17.133,15.943
	l0.008,0.003c-0.209,1.325-1.882,2.271-4.118,1.948c-156.138-22.396-496.916-93.062-514.38-96.938
	c-18.463-4.097-52.781-9.657-75.396-12.577c-16.854-2.175-484.068-62.5-770.991-99.523c-8.658,0-15.664,12.441-15.664,27.823
	l0.011-0.002c0.124,0.931-0.719,1.925-2.78,2.643c-185.821,64.607-690.919,309.334-751.979,335.166
	c-0.597,0.252-1.149,0.474-1.67,0.661c0-0.001-17.895,7.796-17.895,7.796c-15.854,6.542-35.683,14.287-47.424,18.354
	c-76.852,26.642-118.385,38.832-165.716,51.031c-26.514,6.834-42.896,3.534-52.788-26.481
	C149.62,999.76,35.716,789.698,2.56,759.448c-3.811-3.479-3.067-5.134,0.229-5.839c50.164-10.729,125.377-86.685,138.351-103.433
	c1.812-2.347,3.605-3.627,5.389-3.718v0.013l27.352-3.271l-0.002-0.005c1.323-0.607,4.479-0.397,10.188,0.444
	c190.907,28.353,525.105,42.455,818.484,69.087c12.511,0,22.636-14.021,22.635-31.349c0.122-0.67,0.476-1.472,1.039-2.412
	c36.854-61.63,188.54-242.412,303.247-335.265c26.83-21.717,31.126-46.003,11.835-76.359c-1.741-2.74-2.215-4.823-1.845-6.201
	l0.002,0.001l4.418-14.871l-0.015-0.004c0.444-1.239,1.577-2.423,3.448-3.387c148.227-76.38,596.995-199.681,678.643-211.093
	c4.854-0.679,7.896-0.323,10.484,0.752l0.004,0.002c3.854,0.722,7.854,1.642,11.741,0.646c2.228-0.571,5.987-2.017,5.987-4.919
	l0.002,0.063c-0.097-1.675,2.508-2.508,5.56-2.96c31.093-4.608,289.556-25,295.386-25.327c5.834-0.328,8.104,0.931,9.729,6.323
	c5.771,19.221,14.726,41.53,31.003,78.249c16.281,36.72,50.555,90.229,58.813,100.102c1.731,2.069,4.023,4.843,6.604,7.987
	c5.285,3.924,15.223,7.271,19.34,0c4.354-11.973,15.834-20.524,29.312-20.524c17.221,0,31.181,13.96,31.181,31.181
	c0,17.221-13.96,31.181-31.181,31.181c-5.209,0-10.264-1.264-15.498-0.949c-0.646,0.039-7.955,0.312-7.967,0.605
	c-0.67,0.104-1.416,0.106-2.228-0.008c-23.468-3.328-110.341-6.861-187.69,2.62c-5.808,0.711-10.568,0.685-15.082-1.341h0.006
	c-9.94,0-17.985,3.21-17.985,7.178l0.015,0.001c-0.051,1.29-1.186,2.274-3.625,3.347c-5.209,2.287-99.205,42.465-112.805,48.503
	c-13.913,6.178-17.698,13.31-20.606,23.158c-5.392,18.258-69.724,241.907-91.846,292.479c-1.888,4.312-3.827,6.466-6.315,6.985
	v-0.003c-3.481,0-6.304,4.406-6.304,9.852l0.002,0.002c17.513,8.864,34.502,17.475,50.854,25.766
	c56.874,28.837,99.101,47.938,136.579,64.013c9.268-0.001,16.764-7.985,16.764-17.854L2226.219,698.675z"/>
</svg>
