<?xml version="1.0" encoding="utf-8"?>
<!-- Generator: Adobe Illustrator 16.0.0, SVG Export Plug-In . SVG Version: 6.00 Build 0)  -->
<!DOCTYPE svg PUBLIC "-//W3C//DTD SVG 1.1//EN" "http://www.w3.org/Graphics/SVG/1.1/DTD/svg11.dtd">
<svg version="1.1" id="Layer_1" xmlns="http://www.w3.org/2000/svg" xmlns:xlink="http://www.w3.org/1999/xlink" x="0px" y="0px"
	 width="1680.846px" height="508.96px" viewBox="0 0 1680.846 508.96" enable-background="new 0 0 1680.846 508.96"
	 xml:space="preserve">
<path fill="none" stroke="#000000" stroke-linejoin="round" stroke-miterlimit="10" d="M57.495,474.503
	c7.02-5.334,15.818,2.508,22.011,5.506c21.818,15.949,65.737,36.764,138.957,25.973c120.438-17.748,704.453-133.883,933.195-122.52
	c65.197,3.24,180.104,13.711,311.479,45.703c9.953,2.424,20.08,5.227,30.382,8.545c6.596,2.125,9.521-2.473,7.939-11.52
	c-6.539-38.312-7.123-74.98-2.802-109.939c9.839-79.589,45.012-150.179,92.451-211.565c25.812-33.394,55.257-64.087,86.298-92.089
	c7.002-6.306,2.655-14.48-7.123-12.21c-38.911,9.031-82.632,20.625-125.485,33.736C1463.305,59.057,260.385,406.914,83.91,457.937
	c-7.095,0-18.521,3-22.033-5.674c-2.6-14.594-15.354-25.674-30.696-25.674c-17.222,0-31.182,13.961-31.182,31.182
	s13.96,31.182,31.182,31.182c11.063,0,20.781-5.762,26.316-14.447L57.495,474.503z"/>
</svg>
