<?xml version="1.0" encoding="utf-8"?>
<!-- Generator: Adobe Illustrator 16.0.0, SVG Export Plug-In . SVG Version: 6.00 Build 0)  -->
<!DOCTYPE svg PUBLIC "-//W3C//DTD SVG 1.1//EN" "http://www.w3.org/Graphics/SVG/1.1/DTD/svg11.dtd">
<svg version="1.1" id="Layer_1" xmlns="http://www.w3.org/2000/svg" xmlns:xlink="http://www.w3.org/1999/xlink" x="0px" y="0px"
	 width="1617.582px" height="802.95px" viewBox="0 0 1617.582 802.95" enable-background="new 0 0 1617.582 802.95"
	 xml:space="preserve">
<path fill="none" stroke="#000000" stroke-linejoin="round" stroke-miterlimit="10" d="M58.938,684.049
	c-5.17-10.07-15.659-16.961-27.757-16.961c-17.222,0-31.182,13.961-31.182,31.182s13.96,31.182,31.182,31.182
	c14.412,0,26.54-9.775,30.113-23.059c3.921-6.961,13.391-4.16,19.711-3.734c65.191,14.684,353.665,79.723,374.492,84.418
	c21.812,4.92,30.76,8.963,64.877,7.963c34.118-1,498.226-7.152,604.688-8.412c43.104-0.508,51.675,6.566,65.654,13.074
	c13.984,6.506,21.668,2.508,30.006-5.504c8.34-8.018,119.062-123.283,207.381-206.615c60.533-57.119,115.168-91.121,165.379-112.045
	c11.91-4.441,15.354-10.371,17.646-22.74c7.173-38.682,8.146-75.564,4.011-110.712c-9.124-77.441-42.958-146.551-89.266-207.189
	c-31.479-41.221-68.719-78.486-107.749-111.677c-9.089-7.683-14.387-10.57-30.479-13.516c-12.383-2.266-23.363-3.921-32.549-4.987
	C1246.221-7.922,1191.309,8.2,1122.13,14.06c-58.837,4.983-72.864,4.14-122.02,6.533c-49.153,2.393-142.075,10.432-218.995,43.41
	c-19.979,8.565-26.271,18.451-31.45,44.188c-10.464,52-19.433,81.663-33.03,115.707c-13.599,34.044-29.96,53.373-76.926,82.066
	C458.817,416.48,210.887,582.489,79.05,680.168c-2.974,1.188-5.979,2.293-8.937,3.516c-3.567,1.479-7.742,2.977-11.176,0.363
	L58.938,684.049z"/>
</svg>
