<?xml version="1.0" encoding="utf-8"?>
<!-- Generator: Adobe Illustrator 16.0.0, SVG Export Plug-In . SVG Version: 6.00 Build 0)  -->
<!DOCTYPE svg PUBLIC "-//W3C//DTD SVG 1.1//EN" "http://www.w3.org/Graphics/SVG/1.1/DTD/svg11.dtd">
<svg version="1.1" id="Layer_1" xmlns="http://www.w3.org/2000/svg" xmlns:xlink="http://www.w3.org/1999/xlink" x="0px" y="0px"
	 width="1605.2px" height="803.473px" viewBox="0 0 1605.2 803.473" enable-background="new 0 0 1605.2 803.473"
	 xml:space="preserve">
<path fill="none" stroke="#000000" stroke-linejoin="round" stroke-miterlimit="10" d="M1529.698,647.494
	c-132.104-101.633-362.391-242.421-544.24-354.942c-46.803-28.959-58.799-40.586-75.406-73.269
	c-17.664-34.761-22.844-61.581-33.014-113.639c-5.031-25.765-18.801-34.653-38.73-43.332
	c-76.727-33.414-169.603-41.978-218.741-44.65c-49.143-2.671-63.179-1.908-121.98-7.225C428.442,4.185,378.44-11.241,214.614,13.88
	c-7.414,1.138-11.394,2.596-16.496,6.931c-37.972,32.239-74.166,68.324-104.956,108.17C46.509,189.357,12.286,258.273,2.723,335.66
	c-4.374,35.433-3.683,72.688,3.568,111.759c2.094,11.279,7.626,17.612,21.225,23.486c49.014,21.325,102.193,55.332,160.848,111.31
	c87.841,83.833,197.914,199.729,206.204,207.788s15.732,11.612,29.974,5.675c19.24-8.025,26.225-28.521,69.174-24.78
	c138.314,12.06,504.605,20.042,632.775,32.312c12.033,1.146,19.818-1.657,24.686-3.742c20.033-8.59,298.734-104.32,372.557-130.044
	c0.842-0.018,1.682-0.163,2.521-0.224c5.799-0.412,13.805-2.571,17.691,3.355c3.623,13.207,15.715,22.91,30.072,22.91
	c17.221,0,31.182-13.96,31.182-31.181c0-17.222-13.961-31.182-31.182-31.182c-12.252,0-22.854,7.066-27.951,17.348
	c-5.082,4.333-11.479-1.095-16.367-2.955L1529.698,647.494z"/>
</svg>
