<?xml version="1.0" encoding="utf-8"?>
<!-- Generator: Adobe Illustrator 16.0.0, SVG Export Plug-In . SVG Version: 6.00 Build 0)  -->
<!DOCTYPE svg PUBLIC "-//W3C//DTD SVG 1.1//EN" "http://www.w3.org/Graphics/SVG/1.1/DTD/svg11.dtd">
<svg version="1.1" id="Layer_1" xmlns="http://www.w3.org/2000/svg" xmlns:xlink="http://www.w3.org/1999/xlink" x="0px" y="0px"
	 width="1282.398px" height="380.542px" viewBox="0 0 1282.398 380.542" enable-background="new 0 0 1282.398 380.542"
	 xml:space="preserve">
<path fill="none" stroke="#000000" stroke-linejoin="round" stroke-miterlimit="10" d="M1225.837,139.72
	c-1.564-4.427-5.146-9.581-11.287-15.429C1108.919,23.669,911.513,0.833,805.869,0.018c-46.473-0.359-213.205,4.888-235.719,5.51
	c-38.251,1.058-84.611-0.083-108.564-3.386c-10.927-1.505-19.936,0.115-27.125,3.579c-5.234,2.523-110.15,52.596-217.824,86.31
	C112.148,124.746,9.649,156.776,4.119,158.875c-5.821,2.209-5.412,6.032,0.848,6.653c345.59,34.331,511.188,106.235,669.32,213.946
	c4.008,2.729,17.967-0.18,21.646-4.096c12.527-13.33,29.728-31.738,37.388-40.621c18.354-21.275,71.272-68.928,174.522-112.752
	c91.267-38.736,171.516-59.527,296.23-62.994c3.042-0.084,5.919-0.424,8.538-1.013c3.854,0,6.422-0.548,8.271,3.536
	c-0.554,2.326-0.847,4.752-0.847,7.247c0,17.221,13.96,31.18,31.181,31.18c17.222,0,31.183-13.959,31.183-31.18
	c0-17.221-13.962-31.181-31.183-31.181c-6.518,0-12.567,2-17.572,5.42c-3.8,0.851-5.575-0.628-7.847-3.407L1225.837,139.72z"/>
</svg>
