<?xml version="1.0" encoding="utf-8"?>
<!-- Generator: Adobe Illustrator 16.0.0, SVG Export Plug-In . SVG Version: 6.00 Build 0)  -->
<!DOCTYPE svg PUBLIC "-//W3C//DTD SVG 1.1//EN" "http://www.w3.org/Graphics/SVG/1.1/DTD/svg11.dtd">
<svg version="1.1" id="Layer_1" xmlns="http://www.w3.org/2000/svg" xmlns:xlink="http://www.w3.org/1999/xlink" x="0px" y="0px"
	 width="675.896px" height="1805.726px" viewBox="0 0 675.896 1805.726" enable-background="new 0 0 675.896 1805.726"
	 xml:space="preserve">
<path fill="none" stroke="#000000" stroke-miterlimit="10" d="M657.042,898.321C613.596,819.86,469.596,593.86,94.595,407.86
	c-35.896-17.805-52.227-10.354-40.757,13.154C203.2,727.114,273.096,1319.361,304.495,1779.009
	c1.846,27.02,13.541,28.75,23.992,25.521c22.465-6.939,45.667-18.311,59.211-26.473c29.221-17.605,44.684-36.438,55.854-64.418
	c41.881-104.854,157.152-509.977,173.146-568.947c25.87-95.395,38.43-181.943,44.277-227.127
	C662.344,906.927,660.762,905.042,657.042,898.321z M646.616,865.249c3.938,7.051,9.02,7.85,10.549-3.678
	c17.762-133.918,20.207-193.345,18.098-262.711c-6-197.334-35.331-502.324-51.603-589.992c-1.07-5.764-5.577-9.324-12.621-8.82
	c-88.612,6.326-391.397,27.586-460.027,32.42c-29.34,2.066-38.061,19.81-25.917,50.142c68.166,170.25,118.166,238.25,221.5,367.25
	C384.174,496.771,582.622,750.673,646.616,865.249z"/>
</svg>
