<?xml version="1.0" encoding="utf-8"?>
<!-- Generator: Adobe Illustrator 16.0.0, SVG Export Plug-In . SVG Version: 6.00 Build 0)  -->
<!DOCTYPE svg PUBLIC "-//W3C//DTD SVG 1.1//EN" "http://www.w3.org/Graphics/SVG/1.1/DTD/svg11.dtd">
<svg version="1.1" id="Layer_1" xmlns="http://www.w3.org/2000/svg" xmlns:xlink="http://www.w3.org/1999/xlink" x="0px" y="0px"
	 width="1761.567px" height="629.632px" viewBox="0 0 1761.567 629.632" enable-background="new 0 0 1761.567 629.632"
	 xml:space="preserve">
<path fill="none" stroke="#000001" stroke-linejoin="round" stroke-miterlimit="10" d="M969.339,396.944
	c-12.153-37.212-31.759-100.551,19.462-117.772c5.62-0.951,11.879-2.113,18.777-3.485l0,0l287.158-44.285l0,0
	c19.887-2.724,34.078-4.509,42.514-5.392c60.918-6.38,121.58-15.16,182.619-20.38c28.455-2.434,43.361-3.871,44.684-4.251l0,0
	l126.953-12.831l11.201-1.149l0,0c33.98-3.645,52.346-6.778,55.143-9.464c1.781-1.7,3.047-3.797,3.721-6.167
	c-0.375-3.841-1.52-7.387-3.512-10.774c-3.225-5.391-23.342-21.387-26.426-23.246l0,0l-14.182-8.55l0,0
	c-12.561-7.573-25.275-14.947-38.729-20.827c-31.752-13.879-64.441-25.585-98.094-33.919c-29.471-7.299-59.338-12.879-88.861-19.946
	l0,0l-14.105-3.376l0,0c-17.984-4.305-40.715-7.916-61.197-11.17c-46.953-7.459-75.582-11.854-85.773-13.209
	c-12.855-1.695-45.021-5.369-96.676-11.036C1156.385,7.25,1062.999,2.062,953.834,0.312c-58.973-0.916-105.54,0.183-139.737,3.357
	c-36.566,3.343-91.896,13.115-95.703,14.268c-37.805,11.449-76.127,21.1-113.967,32.43c-74.285,22.241-155.81,46.653-221.116,72.166
	l0,0c-13.476,5.265-27.212,9.825-40.796,14.799c-40.706,14.904-80.527,32.097-121.013,47.576
	c-7.134,2.728-26.958,11.433-59.5,26.182c-21.13,9.553-28.779,14.567-44.608,30.012c-19.134,18.567-29.252,28.946-30.391,31.042
	c-1.88,3.518-2.442,6.677-1.658,9.49l0.009-0.005c0.969,2.765,1.936,5.53,2.903,8.295c4.466,12.769,8.932,25.537,13.403,38.305
	c3.034,8.662,7.16,17.153,9.638,25.979c1.817,6.471-0.738,12.444-7.861,13.247l-28.409-2.498c-3.778-0.34-7.222-1.279-9.728-3.328
	c-4.276-3.495-3.776-9.278-6.076-13.857c-2.047-4.077-5.075-7.773-8.685-10.564c-5.498-4.253-12.416-6.648-19.359-6.648
	c-17.222,0-31.182,13.961-31.182,31.182s13.96,31.182,31.182,31.182c3.473,0,6.857-0.602,10.141-1.714
	c3.941-1.335,7.01-4.563,10.992-5.757c3.808-1.142,8.758,0.722,11.425,3.529c1.278,1.346,10.841,7.945,11.35,7.947
	c3.936,0.02,23.079,11.527,34.134,18.172c9.434,5.674,28.319,16.068,56.58,31.199c18.143,9.777,27.641,14.859,28.424,15.256
	c25.174,12.889,77.637,42.492,116.177,64.238c34.487,19.459,71.111,35.123,104.377,56.713
	c16.907,10.967,35.004,19.904,53.335,28.232c20.474,9.301,34.402,14.859,41.991,16.645c7.507,1.727,18.878,2.479,34.102,2.189
	c31.182-0.537,50.214-1.137,57.12-1.656c64.245-4.836,128.714-1.068,193.068-2.01c13.041-0.197,26.062-0.961,39.104-1.055
	c49.11-0.344,103.174-0.721,147.319-1.713c37.607-0.844,58.125-1.213,61.639-1.045c6.693,0.32,13.271-2.549,17.039-8.172
	c5.904-8.809-3.01-21.852-3.414-22.57c-7.641-13.502-13.037-25.814-19.941-38.521l-5.656-10.41c-2.453-4.6-4.25-8.131-5.441-10.438
	l-5.25-10.611c-19.029-38.475-38.834-90.633-48.469-119.111c-0.554-1.637-1.247-3.497-2.023-5.407L969.339,396.944z"/>
</svg>
