<?xml version="1.0" encoding="utf-8"?>
<!-- Generator: Adobe Illustrator 16.0.0, SVG Export Plug-In . SVG Version: 6.00 Build 0)  -->
<!DOCTYPE svg PUBLIC "-//W3C//DTD SVG 1.1//EN" "http://www.w3.org/Graphics/SVG/1.1/DTD/svg11.dtd">
<svg version="1.1" id="Layer_1" xmlns="http://www.w3.org/2000/svg" xmlns:xlink="http://www.w3.org/1999/xlink" x="0px" y="0px"
	 width="3873.637px" height="1103.242px" viewBox="0 0 3873.637 1103.242" enable-background="new 0 0 3873.637 1103.242"
	 xml:space="preserve">
<path fill="none" stroke="#000001" stroke-linejoin="round" stroke-miterlimit="10" d="M815.812,690.95
	c0.892-0.88,2.009-1.821,3.352-2.827c128.738-96.403,385.438-268.584,571.338-382.16c46.965-28.693,63.327-48.022,76.925-82.066
	c13.599-34.044,22.567-63.707,33.031-115.707c5.179-25.737,11.471-35.623,31.45-44.188c76.92-32.978,169.842-41.017,218.995-43.41
	c49.152-2.393,63.183-1.55,122.02-6.533c69.175-5.86,124.087-21.982,232.962-9.344c9.188,1.066,20.168,2.721,32.551,4.987
	c8.072,1.478,13.428,2.94,17.908,5c7.472,2.566,15.248,4.12,23.05,5.283c7.218,1.077,14.427,2.225,21.642,3.323
	c1.659,0.253,3.317,0.514,4.977,0.765c38.859,9.251,82.512,21.093,125.293,34.447c79.685,24.875,1233.584,365.683,1446.37,428.519
	c3.055,0.902,6.806,0.896,9.975,1.205c5.825,0.568,12.098,0.923,17.582-1.502c6.19-2.737,8.851-8.228,12.71-13.331
	c1.878-2.481,4.15-4.606,6.709-6.374c5.232-3.615,11.437-5.585,17.806-5.585c17.221,0,31.181,13.96,31.181,31.181
	s-13.96,31.182-31.181,31.182c-7.012,0-14.052-2.4-19.501-6.842c-5.271-4.296-10.617-5.765-17.457-5.002
	c-5.522,0.616-11.798,1.141-16.583,4.245c-23.332,15.137-66.131,32.067-133.974,21.674
	c-120.339-18.431-703.682-137.871-932.484-127.802c-65.215,2.872-180.176,12.69-311.736,43.938
	c-9.965,2.364-20.109,5.107-30.43,8.373l-32.904,11.855c-0.968,0.443-2.004,0.87-3.113,1.284
	c-50.209,20.921-104.844,54.922-165.377,112.043c-88.316,83.332-199.043,198.599-207.381,206.615
	c-8.336,8.012-16.02,12.01-30.004,5.504c-13.98-6.508-22.551-13.582-65.659-13.072c-106.463,1.258-570.568,7.412-604.687,8.41
	c-29.396,0.861-40.106-2.019-56.459-5.98c-11.29-0.475-20.87,6.531-30.109,12.021c-1.065,0.633-2.162,1.218-3.214,1.872
	c-0.845,0.48-1.82,0.956-2.933,1.423c-238.324,99.755-347.313,148.75-455.216,225.938c-30.615,21.897-41.182,32.688-57.562,47.293
	c-33.809,30.147-60.827,40.127-110.414-5.896c-11.836-10.991-39.488-36.631-50.147-47.43c-19.741-20-75.736-63.998-181.689-100.808
	c-93.654-32.528-175.118-47.894-299.789-42.998c-20.504,0.811-34.319-10.469-12.777-33.938
	c98.648-107.479,294.08-143.492,399.433-151.387c46.343-3.473,217.729-15.533,234.8-16.732c38.172-2.675,41.619,0.858,65.584,1.061
	c23.965,0.207,38.329-9.061,58.507,1.455c7.129,3.717,20.295,9.873,31.975,15.431C806.969,697.556,811.7,694.739,815.812,690.95z"/>
</svg>
