<?xml version="1.0" encoding="utf-8"?>
<!-- Generator: Adobe Illustrator 16.0.0, SVG Export Plug-In . SVG Version: 6.00 Build 0)  -->
<!DOCTYPE svg PUBLIC "-//W3C//DTD SVG 1.1//EN" "http://www.w3.org/Graphics/SVG/1.1/DTD/svg11.dtd">
<svg version="1.1" id="Layer_1" xmlns="http://www.w3.org/2000/svg" xmlns:xlink="http://www.w3.org/1999/xlink" x="0px" y="0px"
	 width="1542.838px" height="803.473px" viewBox="0 0 1542.838 803.473" enable-background="new 0 0 1542.838 803.473"
	 xml:space="preserve">
<path d="M1537.011,653.159c-130.781-102.015-366.3-245.979-551.556-360.607c-46.803-28.959-58.799-40.586-75.403-73.269
	c-17.664-34.761-22.845-61.581-33.017-113.639c-5.028-25.766-18.801-34.653-38.729-43.332
	c-76.731-33.414-169.607-41.979-218.745-44.65c-49.139-2.671-63.175-1.908-121.979-7.225
	c-69.146-6.252-119.146-21.679-282.971,3.442c-7.414,1.139-11.395,2.597-16.494,6.932C160.144,53.049,123.95,89.134,93.16,128.981
	C46.509,189.357,12.286,258.273,2.723,335.66c-4.374,35.433-3.684,72.688,3.567,111.759c2.094,11.279,7.626,17.613,21.226,23.486
	c49.014,21.326,102.192,55.332,160.848,111.311c87.843,83.832,197.914,199.729,206.204,207.787s15.735,11.613,29.974,5.676
	c19.24-8.026,26.228-28.521,69.177-24.78c138.312,12.059,504.603,20.043,632.773,32.311c12.031,1.146,19.818-1.656,24.688-3.742
	c21.498-9.217,340.896-118.793,385.285-134.504C1544.64,662.062,1545.088,659.458,1537.011,653.159z M64.29,463.225
	c-3.72,0-6.73-3.016-6.73-6.729c0-3.715,3.016-6.732,6.73-6.732c3.719,0,6.73,3.019,6.73,6.732
	C71.022,460.209,68.008,463.225,64.29,463.225z M64.29,411.225c-3.72,0-6.73-3.016-6.73-6.729c0-3.716,3.016-6.733,6.73-6.733
	c3.719,0,6.73,3.017,6.73,6.733C71.022,408.209,68.008,411.225,64.29,411.225z M64.291,359.225c-3.721,0-6.731-3.014-6.731-6.732
	c0-3.718,3.016-6.732,6.731-6.732s6.73,3.014,6.73,6.732C71.022,356.21,68.008,359.225,64.291,359.225z M64.291,307.225
	c-3.721,0-6.731-3.015-6.731-6.732c0-3.717,3.016-6.732,6.731-6.732s6.73,3.015,6.73,6.732
	C71.022,304.21,68.008,307.225,64.291,307.225z M64.291,255.225c-3.721,0-6.731-3.015-6.731-6.732c0-3.717,3.016-6.732,6.731-6.732
	s6.73,3.015,6.73,6.732C71.022,252.21,68.008,255.225,64.291,255.225z M120.859,463.225c-3.718,0-6.729-3.016-6.729-6.729
	c0-3.715,3.015-6.732,6.729-6.732c3.721,0,6.732,3.019,6.732,6.732C127.591,460.209,124.58,463.225,120.859,463.225z
	 M120.859,411.225c-3.718,0-6.729-3.016-6.729-6.729c0-3.716,3.015-6.733,6.729-6.733c3.721,0,6.732,3.017,6.732,6.733
	C127.592,408.209,124.58,411.225,120.859,411.225z M120.86,359.225c-3.719,0-6.73-3.014-6.73-6.732c0-3.718,3.015-6.732,6.73-6.732
	c3.719,0,6.731,3.014,6.731,6.732C127.592,356.21,124.58,359.225,120.86,359.225z M120.86,307.225c-3.719,0-6.73-3.015-6.73-6.732
	c0-3.717,3.015-6.732,6.73-6.732c3.719,0,6.731,3.015,6.731,6.732C127.592,304.21,124.58,307.225,120.86,307.225z M120.86,255.225
	c-3.719,0-6.73-3.015-6.73-6.732c0-3.717,3.015-6.732,6.73-6.732c3.719,0,6.731,3.015,6.731,6.732
	C127.592,252.21,124.58,255.225,120.86,255.225z M120.86,203.225c-3.719,0-6.73-3.015-6.73-6.732c0-3.717,3.015-6.732,6.73-6.732
	c3.719,0,6.731,3.015,6.731,6.732C127.592,200.21,124.58,203.225,120.86,203.225z M120.86,151.225c-3.719,0-6.73-3.015-6.73-6.732
	c0-3.717,3.015-6.732,6.73-6.732c3.719,0,6.731,3.015,6.731,6.732C127.592,148.21,124.58,151.225,120.86,151.225z M177.431,515.225
	c-3.72,0-6.73-3.016-6.73-6.729c0-3.715,3.014-6.732,6.73-6.732s6.731,3.019,6.731,6.732
	C184.162,512.209,181.149,515.225,177.431,515.225z M177.431,463.225c-3.72,0-6.73-3.016-6.73-6.729c0-3.715,3.014-6.732,6.73-6.732
	s6.731,3.019,6.731,6.732C184.162,460.209,181.149,463.225,177.431,463.225z M177.431,411.225c-3.72,0-6.73-3.016-6.73-6.729
	c0-3.716,3.014-6.733,6.73-6.733s6.731,3.017,6.731,6.733C184.163,408.209,181.149,411.225,177.431,411.225z M177.431,359.225
	c-3.72,0-6.73-3.014-6.73-6.732c0-3.718,3.014-6.732,6.73-6.732s6.731,3.014,6.731,6.732
	C184.163,356.21,181.149,359.225,177.431,359.225z M177.431,307.225c-3.72,0-6.73-3.015-6.73-6.732c0-3.717,3.014-6.732,6.73-6.732
	s6.731,3.015,6.731,6.732C184.163,304.21,181.149,307.225,177.431,307.225z M177.431,255.225c-3.72,0-6.73-3.015-6.73-6.732
	c0-3.717,3.014-6.732,6.73-6.732s6.731,3.015,6.731,6.732C184.163,252.21,181.149,255.225,177.431,255.225z M177.431,203.225
	c-3.72,0-6.73-3.015-6.73-6.732c0-3.717,3.014-6.732,6.73-6.732s6.731,3.015,6.731,6.732
	C184.163,200.21,181.149,203.225,177.431,203.225z M177.431,151.225c-3.72,0-6.73-3.015-6.73-6.732c0-3.717,3.014-6.732,6.73-6.732
	s6.731,3.015,6.731,6.732C184.163,148.21,181.149,151.225,177.431,151.225z M177.431,99.225c-3.72,0-6.73-3.015-6.73-6.732
	c0-3.717,3.014-6.732,6.73-6.732s6.731,3.015,6.731,6.732C184.163,96.21,181.149,99.225,177.431,99.225z M234,567.225
	c-3.721,0-6.731-3.016-6.731-6.729c0-3.715,3.016-6.732,6.731-6.732s6.73,3.019,6.73,6.732
	C240.732,564.209,237.72,567.225,234,567.225z M234,515.225c-3.721,0-6.731-3.016-6.731-6.729c0-3.715,3.016-6.732,6.731-6.732
	s6.73,3.019,6.73,6.732C240.732,512.209,237.72,515.225,234,515.225z M234,463.225c-3.721,0-6.731-3.016-6.731-6.729
	c0-3.715,3.016-6.732,6.731-6.732s6.73,3.019,6.73,6.732C240.732,460.209,237.72,463.225,234,463.225z M234,411.225
	c-3.721,0-6.731-3.016-6.731-6.729c0-3.716,3.016-6.733,6.731-6.733s6.73,3.017,6.73,6.733
	C240.732,408.209,237.72,411.225,234,411.225z M234,359.225c-3.721,0-6.731-3.014-6.731-6.732c0-3.718,3.016-6.732,6.731-6.732
	s6.73,3.014,6.73,6.732C240.732,356.21,237.72,359.225,234,359.225z M234,307.225c-3.721,0-6.731-3.015-6.731-6.732
	c0-3.717,3.016-6.732,6.731-6.732s6.73,3.015,6.73,6.732C240.731,304.21,237.72,307.225,234,307.225z M234,255.225
	c-3.721,0-6.731-3.015-6.731-6.732c0-3.717,3.016-6.732,6.731-6.732s6.73,3.015,6.73,6.732
	C240.731,252.21,237.72,255.225,234,255.225z M234,203.225c-3.721,0-6.731-3.015-6.731-6.732c0-3.717,3.016-6.732,6.731-6.732
	s6.73,3.015,6.73,6.732C240.731,200.21,237.72,203.225,234,203.225z M234,151.225c-3.721,0-6.731-3.015-6.731-6.732
	c0-3.717,3.016-6.732,6.731-6.732s6.73,3.015,6.73,6.732C240.731,148.21,237.72,151.225,234,151.225z M234,99.225
	c-3.721,0-6.731-3.015-6.731-6.732c0-3.717,3.016-6.732,6.731-6.732s6.73,3.015,6.73,6.732C240.731,96.21,237.72,99.225,234,99.225z
	 M234,47.225c-3.721,0-6.731-3.015-6.731-6.732c0-3.717,3.016-6.732,6.731-6.732s6.73,3.015,6.73,6.732
	C240.731,44.21,237.72,47.225,234,47.225z M290.571,619.225c-3.719,0-6.73-3.016-6.73-6.729c0-3.715,3.015-6.732,6.73-6.732
	c3.719,0,6.732,3.019,6.732,6.732C297.303,616.209,294.291,619.225,290.571,619.225z M290.571,567.225
	c-3.719,0-6.73-3.016-6.73-6.729c0-3.715,3.015-6.732,6.73-6.732c3.719,0,6.732,3.019,6.732,6.732
	C297.303,564.209,294.291,567.225,290.571,567.225z M290.571,515.225c-3.719,0-6.73-3.016-6.73-6.729
	c0-3.715,3.015-6.732,6.73-6.732c3.719,0,6.732,3.019,6.732,6.732C297.303,512.209,294.291,515.225,290.571,515.225z
	 M290.571,463.225c-3.719,0-6.73-3.016-6.73-6.729c0-3.715,3.015-6.732,6.73-6.732c3.719,0,6.732,3.019,6.732,6.732
	C297.303,460.209,294.291,463.225,290.571,463.225z M290.571,411.225c-3.719,0-6.73-3.016-6.73-6.729
	c0-3.716,3.015-6.733,6.73-6.733c3.719,0,6.732,3.017,6.732,6.733C297.303,408.209,294.291,411.225,290.571,411.225z
	 M290.571,359.225c-3.719,0-6.73-3.014-6.73-6.732c0-3.718,3.015-6.732,6.73-6.732c3.719,0,6.732,3.014,6.732,6.732
	C297.304,356.21,294.291,359.225,290.571,359.225z M290.571,307.225c-3.719,0-6.73-3.015-6.73-6.732c0-3.717,3.015-6.732,6.73-6.732
	c3.719,0,6.732,3.015,6.732,6.732C297.304,304.21,294.291,307.225,290.571,307.225z M290.571,255.225
	c-3.719,0-6.73-3.015-6.73-6.732c0-3.717,3.015-6.732,6.73-6.732c3.719,0,6.732,3.015,6.732,6.732
	C297.304,252.21,294.291,255.225,290.571,255.225z M290.571,203.225c-3.719,0-6.73-3.015-6.73-6.732c0-3.717,3.015-6.732,6.73-6.732
	c3.719,0,6.732,3.015,6.732,6.732C297.304,200.21,294.291,203.225,290.571,203.225z M290.571,151.225
	c-3.719,0-6.73-3.015-6.73-6.732c0-3.717,3.015-6.732,6.73-6.732c3.719,0,6.732,3.015,6.732,6.732
	C297.304,148.21,294.291,151.225,290.571,151.225z M290.571,99.225c-3.719,0-6.73-3.015-6.73-6.732c0-3.717,3.015-6.732,6.73-6.732
	c3.719,0,6.732,3.015,6.732,6.732C297.304,96.21,294.291,99.225,290.571,99.225z M290.571,47.225c-3.719,0-6.73-3.015-6.73-6.732
	c0-3.717,3.015-6.732,6.73-6.732c3.719,0,6.732,3.015,6.732,6.732C297.304,44.21,294.291,47.225,290.571,47.225z M347.141,671.225
	c-3.719,0-6.73-3.016-6.73-6.729c0-3.715,3.017-6.732,6.73-6.732c3.72,0,6.729,3.019,6.729,6.732
	C353.87,668.209,350.861,671.225,347.141,671.225z M347.141,619.225c-3.719,0-6.73-3.016-6.73-6.729c0-3.715,3.017-6.732,6.73-6.732
	c3.72,0,6.729,3.019,6.729,6.732C353.87,616.209,350.861,619.225,347.141,619.225z M347.141,567.225c-3.719,0-6.73-3.016-6.73-6.729
	c0-3.715,3.017-6.732,6.73-6.732c3.72,0,6.729,3.019,6.729,6.732C353.87,564.209,350.861,567.225,347.141,567.225z M347.141,515.225
	c-3.719,0-6.73-3.016-6.73-6.729c0-3.715,3.017-6.732,6.73-6.732c3.72,0,6.729,3.019,6.729,6.732
	C353.87,512.209,350.861,515.225,347.141,515.225z M347.141,463.225c-3.719,0-6.73-3.016-6.73-6.729c0-3.715,3.017-6.732,6.73-6.732
	c3.72,0,6.729,3.019,6.729,6.732C353.87,460.209,350.861,463.225,347.141,463.225z M347.141,411.225c-3.719,0-6.73-3.016-6.73-6.729
	c0-3.716,3.017-6.733,6.73-6.733c3.72,0,6.729,3.017,6.729,6.733C353.871,408.209,350.861,411.225,347.141,411.225z
	 M347.141,359.225c-3.719,0-6.73-3.014-6.73-6.732c0-3.718,3.017-6.732,6.73-6.732c3.72,0,6.729,3.014,6.729,6.732
	C353.872,356.21,350.861,359.225,347.141,359.225z M347.141,307.225c-3.719,0-6.73-3.015-6.73-6.732c0-3.717,3.017-6.732,6.73-6.732
	c3.72,0,6.729,3.015,6.729,6.732C353.872,304.21,350.861,307.225,347.141,307.225z M347.141,255.225c-3.719,0-6.73-3.015-6.73-6.732
	c0-3.717,3.017-6.732,6.73-6.732c3.72,0,6.729,3.015,6.729,6.732C353.872,252.21,350.861,255.225,347.141,255.225z M347.141,203.225
	c-3.719,0-6.73-3.015-6.73-6.732c0-3.717,3.017-6.732,6.73-6.732c3.72,0,6.729,3.015,6.729,6.732
	C353.872,200.21,350.861,203.225,347.141,203.225z M347.141,151.225c-3.719,0-6.73-3.015-6.73-6.732c0-3.717,3.017-6.732,6.73-6.732
	c3.72,0,6.729,3.015,6.729,6.732C353.872,148.21,350.861,151.225,347.141,151.225z M347.141,99.225c-3.719,0-6.73-3.015-6.73-6.732
	c0-3.717,3.017-6.732,6.73-6.732c3.72,0,6.729,3.015,6.729,6.732C353.872,96.21,350.861,99.225,347.141,99.225z M347.141,47.225
	c-3.719,0-6.73-3.015-6.73-6.732c0-3.717,3.017-6.732,6.73-6.732c3.72,0,6.729,3.015,6.729,6.732
	C353.872,44.21,350.861,47.225,347.141,47.225z M403.712,723.225c-3.722,0-6.73-3.016-6.73-6.729c0-3.715,3.014-6.732,6.73-6.732
	c3.716,0,6.729,3.019,6.729,6.732C410.443,720.209,407.43,723.225,403.712,723.225z M403.712,671.225
	c-3.722,0-6.73-3.016-6.73-6.729c0-3.715,3.014-6.732,6.73-6.732c3.716,0,6.729,3.019,6.729,6.732
	C410.443,668.209,407.43,671.225,403.712,671.225z M403.712,619.225c-3.722,0-6.73-3.016-6.73-6.729c0-3.715,3.014-6.732,6.73-6.732
	c3.716,0,6.729,3.019,6.729,6.732C410.443,616.209,407.43,619.225,403.712,619.225z M403.712,567.225
	c-3.722,0-6.73-3.016-6.73-6.729c0-3.715,3.014-6.732,6.73-6.732c3.716,0,6.729,3.019,6.729,6.732
	C410.443,564.209,407.43,567.225,403.712,567.225z M403.712,515.225c-3.722,0-6.73-3.016-6.73-6.729c0-3.715,3.014-6.732,6.73-6.732
	c3.716,0,6.729,3.019,6.729,6.732C410.443,512.209,407.43,515.225,403.712,515.225z M403.712,463.225
	c-3.722,0-6.73-3.016-6.73-6.729c0-3.715,3.014-6.732,6.73-6.732c3.716,0,6.729,3.019,6.729,6.732
	C410.443,460.209,407.43,463.225,403.712,463.225z M403.712,411.225c-3.722,0-6.73-3.016-6.73-6.729c0-3.716,3.014-6.733,6.73-6.733
	c3.716,0,6.729,3.017,6.729,6.733C410.443,408.209,407.43,411.225,403.712,411.225z M403.712,359.225
	c-3.722,0-6.73-3.014-6.73-6.732c0-3.718,3.014-6.732,6.73-6.732c3.716,0,6.729,3.014,6.729,6.732
	C410.444,356.21,407.43,359.225,403.712,359.225z M403.712,307.225c-3.722,0-6.73-3.015-6.73-6.732c0-3.717,3.014-6.732,6.73-6.732
	c3.716,0,6.729,3.015,6.729,6.732C410.444,304.21,407.43,307.225,403.712,307.225z M403.712,255.225c-3.722,0-6.73-3.015-6.73-6.732
	c0-3.717,3.014-6.732,6.73-6.732c3.716,0,6.729,3.015,6.729,6.732C410.444,252.21,407.43,255.225,403.712,255.225z M403.712,203.225
	c-3.722,0-6.73-3.015-6.73-6.732c0-3.717,3.014-6.732,6.73-6.732c3.716,0,6.729,3.015,6.729,6.732
	C410.444,200.21,407.43,203.225,403.712,203.225z M403.712,151.225c-3.722,0-6.73-3.015-6.73-6.732c0-3.717,3.014-6.732,6.73-6.732
	c3.716,0,6.729,3.015,6.729,6.732C410.444,148.21,407.43,151.225,403.712,151.225z M403.712,99.225c-3.722,0-6.73-3.015-6.73-6.732
	c0-3.717,3.014-6.732,6.73-6.732c3.716,0,6.729,3.015,6.729,6.732C410.444,96.21,407.43,99.225,403.712,99.225z M403.712,47.225
	c-3.722,0-6.73-3.015-6.73-6.732c0-3.717,3.014-6.732,6.73-6.732c3.716,0,6.729,3.015,6.729,6.732
	C410.444,44.21,407.43,47.225,403.712,47.225z M460.281,723.225c-3.719,0-6.729-3.016-6.729-6.729c0-3.715,3.016-6.732,6.729-6.732
	s6.73,3.019,6.73,6.732C467.013,720.209,464.001,723.225,460.281,723.225z M460.281,671.225c-3.719,0-6.729-3.016-6.729-6.729
	c0-3.715,3.016-6.732,6.729-6.732s6.73,3.019,6.73,6.732C467.013,668.209,464.001,671.225,460.281,671.225z M460.281,619.225
	c-3.719,0-6.729-3.016-6.729-6.729c0-3.715,3.016-6.732,6.729-6.732s6.73,3.019,6.73,6.732
	C467.013,616.209,464.001,619.225,460.281,619.225z M460.281,567.225c-3.719,0-6.729-3.016-6.729-6.729
	c0-3.715,3.016-6.732,6.729-6.732s6.73,3.019,6.73,6.732C467.013,564.209,464.001,567.225,460.281,567.225z M460.281,515.225
	c-3.719,0-6.729-3.016-6.729-6.729c0-3.715,3.016-6.732,6.729-6.732s6.73,3.019,6.73,6.732
	C467.013,512.209,464.001,515.225,460.281,515.225z M460.281,463.225c-3.719,0-6.729-3.016-6.729-6.729
	c0-3.715,3.016-6.732,6.729-6.732s6.73,3.019,6.73,6.732C467.013,460.209,464.001,463.225,460.281,463.225z M460.281,411.225
	c-3.719,0-6.729-3.016-6.729-6.729c0-3.716,3.016-6.733,6.729-6.733s6.73,3.017,6.73,6.733
	C467.013,408.209,464.001,411.225,460.281,411.225z M460.281,359.225c-3.719,0-6.729-3.014-6.729-6.732
	c0-3.718,3.016-6.732,6.729-6.732s6.73,3.014,6.73,6.732C467.014,356.21,464.001,359.225,460.281,359.225z M460.281,307.225
	c-3.719,0-6.729-3.015-6.729-6.732c0-3.717,3.016-6.732,6.729-6.732s6.73,3.015,6.73,6.732
	C467.014,304.21,464.001,307.225,460.281,307.225z M460.281,255.225c-3.719,0-6.729-3.015-6.729-6.732
	c0-3.717,3.016-6.732,6.729-6.732s6.73,3.015,6.73,6.732C467.014,252.21,464.001,255.225,460.281,255.225z M460.281,203.225
	c-3.719,0-6.729-3.015-6.729-6.732c0-3.717,3.016-6.732,6.729-6.732s6.73,3.015,6.73,6.732
	C467.014,200.21,464.001,203.225,460.281,203.225z M460.281,151.225c-3.719,0-6.729-3.015-6.729-6.732
	c0-3.717,3.016-6.732,6.729-6.732s6.73,3.015,6.73,6.732C467.014,148.21,464.001,151.225,460.281,151.225z M460.281,99.225
	c-3.719,0-6.729-3.015-6.729-6.732c0-3.717,3.016-6.732,6.729-6.732s6.73,3.015,6.73,6.732
	C467.014,96.21,464.001,99.225,460.281,99.225z M460.281,47.225c-3.719,0-6.729-3.015-6.729-6.732c0-3.717,3.016-6.732,6.729-6.732
	s6.73,3.015,6.73,6.732C467.014,44.21,464.001,47.225,460.281,47.225z M516.853,723.225c-3.72,0-6.731-3.016-6.731-6.729
	c0-3.715,3.017-6.732,6.731-6.732c3.719,0,6.731,3.019,6.731,6.732C523.584,720.209,520.572,723.225,516.853,723.225z
	 M516.853,671.225c-3.72,0-6.731-3.016-6.731-6.729c0-3.715,3.017-6.732,6.731-6.732c3.719,0,6.731,3.019,6.731,6.732
	C523.584,668.209,520.572,671.225,516.853,671.225z M516.853,619.225c-3.72,0-6.731-3.016-6.731-6.729
	c0-3.715,3.017-6.732,6.731-6.732c3.719,0,6.731,3.019,6.731,6.732C523.584,616.209,520.572,619.225,516.853,619.225z
	 M516.853,567.225c-3.72,0-6.731-3.016-6.731-6.729c0-3.715,3.017-6.732,6.731-6.732c3.719,0,6.731,3.019,6.731,6.732
	C523.584,564.209,520.572,567.225,516.853,567.225z M516.853,515.225c-3.72,0-6.731-3.016-6.731-6.729
	c0-3.715,3.017-6.732,6.731-6.732c3.719,0,6.731,3.019,6.731,6.732C523.584,512.209,520.572,515.225,516.853,515.225z
	 M516.853,463.225c-3.72,0-6.731-3.016-6.731-6.729c0-3.715,3.017-6.732,6.731-6.732c3.719,0,6.731,3.019,6.731,6.732
	C523.584,460.209,520.572,463.225,516.853,463.225z M516.853,411.225c-3.72,0-6.731-3.016-6.731-6.729
	c0-3.716,3.017-6.733,6.731-6.733c3.719,0,6.731,3.017,6.731,6.733C523.585,408.209,520.572,411.225,516.853,411.225z
	 M516.853,359.225c-3.72,0-6.731-3.014-6.731-6.732c0-3.718,3.017-6.732,6.731-6.732c3.719,0,6.731,3.014,6.731,6.732
	C523.585,356.21,520.572,359.225,516.853,359.225z M516.853,307.225c-3.72,0-6.731-3.015-6.731-6.732
	c0-3.717,3.017-6.732,6.731-6.732c3.719,0,6.731,3.015,6.731,6.732C523.585,304.21,520.572,307.225,516.853,307.225z
	 M516.853,255.225c-3.72,0-6.731-3.015-6.731-6.732c0-3.717,3.017-6.732,6.731-6.732c3.719,0,6.731,3.015,6.731,6.732
	C523.585,252.21,520.572,255.225,516.853,255.225z M516.853,203.225c-3.72,0-6.731-3.015-6.731-6.732
	c0-3.717,3.017-6.732,6.731-6.732c3.719,0,6.731,3.015,6.731,6.732C523.585,200.21,520.572,203.225,516.853,203.225z
	 M516.853,151.225c-3.72,0-6.731-3.015-6.731-6.732c0-3.717,3.017-6.732,6.731-6.732c3.719,0,6.731,3.015,6.731,6.732
	C523.585,148.21,520.572,151.225,516.853,151.225z M516.853,99.225c-3.72,0-6.731-3.015-6.731-6.732
	c0-3.717,3.017-6.732,6.731-6.732c3.719,0,6.731,3.015,6.731,6.732C523.585,96.21,520.572,99.225,516.853,99.225z M516.853,47.225
	c-3.72,0-6.731-3.015-6.731-6.732c0-3.717,3.017-6.732,6.731-6.732c3.719,0,6.731,3.015,6.731,6.732
	C523.585,44.21,520.572,47.225,516.853,47.225z M573.423,723.225c-3.722,0-6.73-3.016-6.73-6.729c0-3.715,3.014-6.732,6.73-6.732
	c3.716,0,6.729,3.019,6.729,6.732C580.154,720.209,577.141,723.225,573.423,723.225z M573.423,671.225
	c-3.722,0-6.73-3.016-6.73-6.729c0-3.715,3.014-6.732,6.73-6.732c3.716,0,6.729,3.019,6.729,6.732
	C580.154,668.209,577.141,671.225,573.423,671.225z M573.423,619.225c-3.722,0-6.73-3.016-6.73-6.729
	c0-3.715,3.014-6.732,6.73-6.732c3.716,0,6.729,3.019,6.729,6.732C580.154,616.209,577.141,619.225,573.423,619.225z
	 M573.423,567.225c-3.722,0-6.73-3.016-6.73-6.729c0-3.715,3.014-6.732,6.73-6.732c3.716,0,6.729,3.019,6.729,6.732
	C580.154,564.209,577.141,567.225,573.423,567.225z M573.423,515.225c-3.722,0-6.73-3.016-6.73-6.729
	c0-3.715,3.014-6.732,6.73-6.732c3.716,0,6.729,3.019,6.729,6.732C580.154,512.209,577.141,515.225,573.423,515.225z
	 M573.423,463.225c-3.722,0-6.73-3.016-6.73-6.729c0-3.715,3.014-6.732,6.73-6.732c3.716,0,6.729,3.019,6.729,6.732
	C580.154,460.209,577.141,463.225,573.423,463.225z M573.423,411.225c-3.722,0-6.73-3.016-6.73-6.729
	c0-3.716,3.014-6.733,6.73-6.733c3.716,0,6.729,3.017,6.729,6.733C580.154,408.209,577.141,411.225,573.423,411.225z
	 M573.423,359.225c-3.722,0-6.73-3.014-6.73-6.732c0-3.718,3.014-6.732,6.73-6.732c3.716,0,6.729,3.014,6.729,6.732
	C580.155,356.21,577.141,359.225,573.423,359.225z M573.423,307.225c-3.722,0-6.73-3.015-6.73-6.732c0-3.717,3.014-6.732,6.73-6.732
	c3.716,0,6.729,3.015,6.729,6.732C580.155,304.21,577.141,307.225,573.423,307.225z M573.423,255.225
	c-3.722,0-6.73-3.015-6.73-6.732c0-3.717,3.014-6.732,6.73-6.732c3.716,0,6.729,3.015,6.729,6.732
	C580.155,252.21,577.141,255.225,573.423,255.225z M573.423,203.225c-3.722,0-6.73-3.015-6.73-6.732c0-3.717,3.014-6.732,6.73-6.732
	c3.716,0,6.729,3.015,6.729,6.732C580.155,200.21,577.141,203.225,573.423,203.225z M573.423,151.225
	c-3.722,0-6.73-3.015-6.73-6.732c0-3.717,3.014-6.732,6.73-6.732c3.716,0,6.729,3.015,6.729,6.732
	C580.155,148.21,577.141,151.225,573.423,151.225z M573.423,99.225c-3.722,0-6.73-3.015-6.73-6.732c0-3.717,3.014-6.732,6.73-6.732
	c3.716,0,6.729,3.015,6.729,6.732C580.155,96.21,577.141,99.225,573.423,99.225z M573.423,47.225c-3.722,0-6.73-3.015-6.73-6.732
	c0-3.717,3.014-6.732,6.73-6.732c3.716,0,6.729,3.015,6.729,6.732C580.155,44.21,577.141,47.225,573.423,47.225z M629.992,723.225
	c-3.719,0-6.729-3.016-6.729-6.729c0-3.715,3.016-6.732,6.729-6.732c3.719,0,6.73,3.019,6.73,6.732
	C636.724,720.209,633.712,723.225,629.992,723.225z M629.992,671.225c-3.719,0-6.729-3.016-6.729-6.729
	c0-3.715,3.016-6.732,6.729-6.732c3.719,0,6.73,3.019,6.73,6.732C636.724,668.209,633.712,671.225,629.992,671.225z
	 M629.992,619.225c-3.719,0-6.729-3.016-6.729-6.729c0-3.715,3.016-6.732,6.729-6.732c3.719,0,6.73,3.019,6.73,6.732
	C636.724,616.209,633.712,619.225,629.992,619.225z M629.992,567.225c-3.719,0-6.729-3.016-6.729-6.729
	c0-3.715,3.016-6.732,6.729-6.732c3.719,0,6.73,3.019,6.73,6.732C636.724,564.209,633.712,567.225,629.992,567.225z
	 M629.992,515.225c-3.719,0-6.729-3.016-6.729-6.729c0-3.715,3.016-6.732,6.729-6.732c3.719,0,6.73,3.019,6.73,6.732
	C636.724,512.209,633.712,515.225,629.992,515.225z M629.992,463.225c-3.719,0-6.729-3.016-6.729-6.729
	c0-3.715,3.016-6.732,6.729-6.732c3.719,0,6.73,3.019,6.73,6.732C636.724,460.209,633.712,463.225,629.992,463.225z
	 M629.992,411.225c-3.719,0-6.729-3.016-6.729-6.729c0-3.716,3.016-6.733,6.729-6.733c3.719,0,6.73,3.017,6.73,6.733
	C636.724,408.209,633.712,411.225,629.992,411.225z M629.992,359.225c-3.719,0-6.729-3.014-6.729-6.732
	c0-3.718,3.016-6.732,6.729-6.732c3.719,0,6.73,3.014,6.73,6.732C636.725,356.21,633.712,359.225,629.992,359.225z M629.992,307.225
	c-3.719,0-6.729-3.015-6.729-6.732c0-3.717,3.016-6.732,6.729-6.732c3.719,0,6.73,3.015,6.73,6.732
	C636.725,304.21,633.712,307.225,629.992,307.225z M629.992,255.225c-3.719,0-6.729-3.015-6.729-6.732
	c0-3.717,3.016-6.732,6.729-6.732c3.719,0,6.73,3.015,6.73,6.732C636.725,252.21,633.712,255.225,629.992,255.225z M629.992,203.225
	c-3.719,0-6.729-3.015-6.729-6.732c0-3.717,3.016-6.732,6.729-6.732c3.719,0,6.73,3.015,6.73,6.732
	C636.725,200.21,633.712,203.225,629.992,203.225z M629.992,151.225c-3.719,0-6.729-3.015-6.729-6.732
	c0-3.717,3.016-6.732,6.729-6.732c3.719,0,6.73,3.015,6.73,6.732C636.725,148.21,633.712,151.225,629.992,151.225z M629.992,99.225
	c-3.719,0-6.729-3.015-6.729-6.732c0-3.717,3.016-6.732,6.729-6.732c3.719,0,6.73,3.015,6.73,6.732
	C636.725,96.21,633.712,99.225,629.992,99.225z M629.992,47.225c-3.719,0-6.729-3.015-6.729-6.732c0-3.717,3.016-6.732,6.729-6.732
	c3.719,0,6.73,3.015,6.73,6.732C636.725,44.21,633.712,47.225,629.992,47.225z M686.564,723.225c-3.721,0-6.731-3.016-6.731-6.729
	c0-3.715,3.016-6.732,6.731-6.732s6.73,3.019,6.73,6.732C693.294,720.209,690.281,723.225,686.564,723.225z M686.564,671.225
	c-3.721,0-6.731-3.016-6.731-6.729c0-3.715,3.016-6.732,6.731-6.732s6.73,3.019,6.73,6.732
	C693.294,668.209,690.281,671.225,686.564,671.225z M686.564,619.225c-3.721,0-6.731-3.016-6.731-6.729
	c0-3.715,3.016-6.732,6.731-6.732s6.73,3.019,6.73,6.732C693.294,616.209,690.281,619.225,686.564,619.225z M686.564,567.225
	c-3.721,0-6.731-3.016-6.731-6.729c0-3.715,3.016-6.732,6.731-6.732s6.73,3.019,6.73,6.732
	C693.294,564.209,690.281,567.225,686.564,567.225z M686.564,515.225c-3.721,0-6.731-3.016-6.731-6.729
	c0-3.715,3.016-6.732,6.731-6.732s6.73,3.019,6.73,6.732C693.294,512.209,690.281,515.225,686.564,515.225z M686.564,463.225
	c-3.721,0-6.731-3.016-6.731-6.729c0-3.715,3.016-6.732,6.731-6.732s6.73,3.019,6.73,6.732
	C693.294,460.209,690.281,463.225,686.564,463.225z M686.564,411.225c-3.721,0-6.731-3.016-6.731-6.729
	c0-3.716,3.016-6.733,6.731-6.733s6.73,3.017,6.73,6.733C693.295,408.209,690.281,411.225,686.564,411.225z M686.564,359.225
	c-3.721,0-6.731-3.014-6.731-6.732c0-3.718,3.016-6.732,6.731-6.732s6.73,3.014,6.73,6.732
	C693.296,356.21,690.281,359.225,686.564,359.225z M686.564,307.225c-3.721,0-6.731-3.015-6.731-6.732
	c0-3.717,3.016-6.732,6.731-6.732s6.73,3.015,6.73,6.732C693.296,304.21,690.281,307.225,686.564,307.225z M686.564,255.225
	c-3.721,0-6.731-3.015-6.731-6.732c0-3.717,3.016-6.732,6.731-6.732s6.73,3.015,6.73,6.732
	C693.296,252.21,690.281,255.225,686.564,255.225z M686.564,203.225c-3.721,0-6.731-3.015-6.731-6.732
	c0-3.717,3.016-6.732,6.731-6.732s6.73,3.015,6.73,6.732C693.296,200.21,690.281,203.225,686.564,203.225z M686.564,151.225
	c-3.721,0-6.731-3.015-6.731-6.732c0-3.717,3.016-6.732,6.731-6.732s6.73,3.015,6.73,6.732
	C693.296,148.21,690.281,151.225,686.564,151.225z M686.564,99.225c-3.721,0-6.731-3.015-6.731-6.732
	c0-3.717,3.016-6.732,6.731-6.732s6.73,3.015,6.73,6.732C693.296,96.21,690.281,99.225,686.564,99.225z M743.134,723.225
	c-3.722,0-6.73-3.016-6.73-6.729c0-3.715,3.016-6.732,6.73-6.732s6.729,3.019,6.729,6.732
	C749.865,720.209,746.853,723.225,743.134,723.225z M743.134,671.225c-3.722,0-6.73-3.016-6.73-6.729
	c0-3.715,3.016-6.732,6.73-6.732s6.729,3.019,6.729,6.732C749.865,668.209,746.853,671.225,743.134,671.225z M743.134,619.225
	c-3.722,0-6.73-3.016-6.73-6.729c0-3.715,3.016-6.732,6.73-6.732s6.729,3.019,6.729,6.732
	C749.865,616.209,746.853,619.225,743.134,619.225z M743.134,567.225c-3.722,0-6.73-3.016-6.73-6.729
	c0-3.715,3.016-6.732,6.73-6.732s6.729,3.019,6.729,6.732C749.865,564.209,746.853,567.225,743.134,567.225z M743.134,515.225
	c-3.722,0-6.73-3.016-6.73-6.729c0-3.715,3.016-6.732,6.73-6.732s6.729,3.019,6.729,6.732
	C749.865,512.209,746.853,515.225,743.134,515.225z M743.134,463.225c-3.722,0-6.73-3.016-6.73-6.729
	c0-3.715,3.016-6.732,6.73-6.732s6.729,3.019,6.729,6.732C749.865,460.209,746.853,463.225,743.134,463.225z M743.134,411.225
	c-3.722,0-6.73-3.016-6.73-6.729c0-3.716,3.016-6.733,6.73-6.733s6.729,3.017,6.729,6.733
	C749.865,408.209,746.853,411.225,743.134,411.225z M743.134,359.225c-3.722,0-6.73-3.014-6.73-6.732
	c0-3.718,3.016-6.732,6.73-6.732s6.729,3.014,6.729,6.732C749.865,356.21,746.853,359.225,743.134,359.225z M743.134,307.225
	c-3.722,0-6.73-3.015-6.73-6.732c0-3.717,3.016-6.732,6.73-6.732s6.729,3.015,6.729,6.732
	C749.865,304.21,746.853,307.225,743.134,307.225z M743.134,255.225c-3.722,0-6.73-3.015-6.73-6.732c0-3.717,3.016-6.732,6.73-6.732
	s6.729,3.015,6.729,6.732C749.865,252.21,746.853,255.225,743.134,255.225z M743.134,203.225c-3.722,0-6.73-3.015-6.73-6.732
	c0-3.717,3.016-6.732,6.73-6.732s6.729,3.015,6.729,6.732C749.865,200.21,746.853,203.225,743.134,203.225z M743.134,151.225
	c-3.722,0-6.73-3.015-6.73-6.732c0-3.717,3.016-6.732,6.73-6.732s6.729,3.015,6.729,6.732
	C749.865,148.21,746.853,151.225,743.134,151.225z M743.134,99.225c-3.722,0-6.73-3.015-6.73-6.732c0-3.717,3.016-6.732,6.73-6.732
	s6.729,3.015,6.729,6.732C749.865,96.21,746.853,99.225,743.134,99.225z M799.703,723.225c-3.719,0-6.729-3.016-6.729-6.729
	c0-3.715,3.018-6.732,6.729-6.732c3.722,0,6.732,3.019,6.732,6.732C806.437,720.209,803.424,723.225,799.703,723.225z
	 M799.703,671.225c-3.719,0-6.729-3.016-6.729-6.729c0-3.715,3.018-6.732,6.729-6.732c3.722,0,6.732,3.019,6.732,6.732
	C806.437,668.209,803.424,671.225,799.703,671.225z M799.703,619.225c-3.719,0-6.729-3.016-6.729-6.729
	c0-3.715,3.018-6.732,6.729-6.732c3.722,0,6.732,3.019,6.732,6.732C806.437,616.209,803.424,619.225,799.703,619.225z
	 M799.703,567.225c-3.719,0-6.729-3.016-6.729-6.729c0-3.715,3.018-6.732,6.729-6.732c3.722,0,6.732,3.019,6.732,6.732
	C806.437,564.209,803.424,567.225,799.703,567.225z M799.703,515.225c-3.719,0-6.729-3.016-6.729-6.729
	c0-3.715,3.018-6.732,6.729-6.732c3.722,0,6.732,3.019,6.732,6.732C806.437,512.209,803.424,515.225,799.703,515.225z
	 M799.703,463.225c-3.719,0-6.729-3.016-6.729-6.729c0-3.715,3.018-6.732,6.729-6.732c3.722,0,6.732,3.019,6.732,6.732
	C806.437,460.209,803.424,463.225,799.703,463.225z M799.703,411.225c-3.719,0-6.729-3.016-6.729-6.729
	c0-3.716,3.018-6.733,6.729-6.733c3.722,0,6.732,3.017,6.732,6.733C806.437,408.209,803.424,411.225,799.703,411.225z
	 M799.703,359.225c-3.719,0-6.729-3.014-6.729-6.732c0-3.718,3.018-6.732,6.729-6.732c3.722,0,6.732,3.014,6.732,6.732
	C806.437,356.21,803.424,359.225,799.703,359.225z M799.703,307.225c-3.719,0-6.729-3.015-6.729-6.732
	c0-3.717,3.018-6.732,6.729-6.732c3.722,0,6.732,3.015,6.732,6.732C806.436,304.21,803.424,307.225,799.703,307.225z
	 M799.703,255.225c-3.719,0-6.729-3.015-6.729-6.732c0-3.717,3.018-6.732,6.729-6.732c3.722,0,6.732,3.015,6.732,6.732
	C806.436,252.21,803.424,255.225,799.703,255.225z M799.703,203.225c-3.719,0-6.729-3.015-6.729-6.732
	c0-3.717,3.018-6.732,6.729-6.732c3.722,0,6.732,3.015,6.732,6.732C806.436,200.21,803.424,203.225,799.703,203.225z
	 M799.703,151.225c-3.719,0-6.729-3.015-6.729-6.732c0-3.717,3.018-6.732,6.729-6.732c3.722,0,6.732,3.015,6.732,6.732
	C806.436,148.21,803.424,151.225,799.703,151.225z M799.703,99.225c-3.719,0-6.729-3.015-6.729-6.732
	c0-3.717,3.018-6.732,6.729-6.732c3.722,0,6.732,3.015,6.732,6.732C806.436,96.21,803.424,99.225,799.703,99.225z M856.275,723.225
	c-3.719,0-6.729-3.016-6.729-6.729c0-3.715,3.014-6.732,6.729-6.732s6.732,3.019,6.732,6.732
	C863.007,720.209,859.992,723.225,856.275,723.225z M856.275,671.225c-3.719,0-6.729-3.016-6.729-6.729
	c0-3.715,3.014-6.732,6.729-6.732s6.732,3.019,6.732,6.732C863.007,668.209,859.992,671.225,856.275,671.225z M856.275,619.225
	c-3.719,0-6.729-3.016-6.729-6.729c0-3.715,3.014-6.732,6.729-6.732s6.732,3.019,6.732,6.732
	C863.007,616.209,859.992,619.225,856.275,619.225z M856.275,567.225c-3.719,0-6.729-3.016-6.729-6.729
	c0-3.715,3.014-6.732,6.729-6.732s6.732,3.019,6.732,6.732C863.007,564.209,859.992,567.225,856.275,567.225z M856.275,515.225
	c-3.719,0-6.729-3.016-6.729-6.729c0-3.715,3.014-6.732,6.729-6.732s6.732,3.019,6.732,6.732
	C863.007,512.209,859.992,515.225,856.275,515.225z M856.275,463.225c-3.719,0-6.729-3.016-6.729-6.729
	c0-3.715,3.014-6.732,6.729-6.732s6.732,3.019,6.732,6.732C863.007,460.209,859.992,463.225,856.275,463.225z M856.275,411.225
	c-3.719,0-6.729-3.016-6.729-6.729c0-3.716,3.014-6.733,6.729-6.733s6.732,3.017,6.732,6.733
	C863.008,408.209,859.992,411.225,856.275,411.225z M856.275,359.225c-3.719,0-6.729-3.014-6.729-6.732
	c0-3.718,3.014-6.732,6.729-6.732s6.732,3.014,6.732,6.732C863.008,356.21,859.992,359.225,856.275,359.225z M856.275,307.225
	c-3.719,0-6.729-3.015-6.729-6.732c0-3.717,3.014-6.732,6.729-6.732s6.732,3.015,6.732,6.732
	C863.008,304.21,859.992,307.225,856.275,307.225z M856.275,255.225c-3.719,0-6.729-3.015-6.729-6.732
	c0-3.717,3.014-6.732,6.729-6.732s6.732,3.015,6.732,6.732C863.008,252.21,859.992,255.225,856.275,255.225z M856.275,203.225
	c-3.719,0-6.729-3.015-6.729-6.732c0-3.717,3.014-6.732,6.729-6.732s6.732,3.015,6.732,6.732
	C863.008,200.21,859.992,203.225,856.275,203.225z M856.275,151.225c-3.719,0-6.729-3.015-6.729-6.732
	c0-3.717,3.014-6.732,6.729-6.732s6.732,3.015,6.732,6.732C863.008,148.21,859.992,151.225,856.275,151.225z M912.845,775.225
	c-3.72,0-6.73-3.014-6.73-6.729s3.017-6.732,6.73-6.732c3.719,0,6.729,3.019,6.729,6.732S916.564,775.225,912.845,775.225z
	 M912.845,723.225c-3.72,0-6.73-3.016-6.73-6.729c0-3.715,3.017-6.732,6.73-6.732c3.719,0,6.729,3.019,6.729,6.732
	C919.574,720.209,916.564,723.225,912.845,723.225z M912.845,671.225c-3.72,0-6.73-3.016-6.73-6.729c0-3.715,3.017-6.732,6.73-6.732
	c3.719,0,6.729,3.019,6.729,6.732C919.574,668.209,916.564,671.225,912.845,671.225z M912.845,619.225
	c-3.72,0-6.73-3.016-6.73-6.729c0-3.715,3.017-6.732,6.73-6.732c3.719,0,6.729,3.019,6.729,6.732
	C919.574,616.209,916.564,619.225,912.845,619.225z M912.845,567.225c-3.72,0-6.73-3.016-6.73-6.729c0-3.715,3.017-6.732,6.73-6.732
	c3.719,0,6.729,3.019,6.729,6.732C919.574,564.209,916.564,567.225,912.845,567.225z M912.845,515.225
	c-3.72,0-6.73-3.016-6.73-6.729c0-3.715,3.017-6.732,6.73-6.732c3.719,0,6.729,3.019,6.729,6.732
	C919.574,512.209,916.564,515.225,912.845,515.225z M912.845,463.225c-3.72,0-6.73-3.016-6.73-6.729c0-3.715,3.017-6.732,6.73-6.732
	c3.719,0,6.729,3.019,6.729,6.732C919.574,460.209,916.564,463.225,912.845,463.225z M912.845,411.225
	c-3.72,0-6.73-3.016-6.73-6.729c0-3.716,3.017-6.733,6.73-6.733c3.719,0,6.729,3.017,6.729,6.733
	C919.575,408.209,916.564,411.225,912.845,411.225z M912.845,359.225c-3.72,0-6.73-3.014-6.73-6.732c0-3.718,3.017-6.732,6.73-6.732
	c3.719,0,6.729,3.014,6.729,6.732C919.576,356.21,916.564,359.225,912.845,359.225z M912.845,307.225c-3.72,0-6.73-3.015-6.73-6.732
	c0-3.717,3.017-6.732,6.73-6.732c3.719,0,6.729,3.015,6.729,6.732C919.576,304.21,916.564,307.225,912.845,307.225z
	 M969.416,775.225c-3.721,0-6.731-3.014-6.731-6.729s3.018-6.732,6.731-6.732c3.72,0,6.73,3.019,6.73,6.732
	S973.135,775.225,969.416,775.225z M969.416,723.225c-3.721,0-6.731-3.016-6.731-6.729c0-3.715,3.018-6.732,6.731-6.732
	c3.72,0,6.73,3.019,6.73,6.732C976.148,720.209,973.135,723.225,969.416,723.225z M969.416,671.225
	c-3.721,0-6.731-3.016-6.731-6.729c0-3.715,3.018-6.732,6.731-6.732c3.72,0,6.73,3.019,6.73,6.732
	C976.148,668.209,973.135,671.225,969.416,671.225z M969.416,619.225c-3.721,0-6.731-3.016-6.731-6.729
	c0-3.715,3.018-6.732,6.731-6.732c3.72,0,6.73,3.019,6.73,6.732C976.148,616.209,973.135,619.225,969.416,619.225z M969.416,567.225
	c-3.721,0-6.731-3.016-6.731-6.729c0-3.715,3.018-6.732,6.731-6.732c3.72,0,6.73,3.019,6.73,6.732
	C976.148,564.209,973.135,567.225,969.416,567.225z M969.416,515.225c-3.721,0-6.731-3.016-6.731-6.729
	c0-3.715,3.018-6.732,6.731-6.732c3.72,0,6.73,3.019,6.73,6.732C976.148,512.209,973.135,515.225,969.416,515.225z M969.416,463.225
	c-3.721,0-6.731-3.016-6.731-6.729c0-3.715,3.018-6.732,6.731-6.732c3.72,0,6.73,3.019,6.73,6.732
	C976.148,460.209,973.135,463.225,969.416,463.225z M969.416,411.225c-3.721,0-6.731-3.016-6.731-6.729
	c0-3.716,3.018-6.733,6.731-6.733c3.72,0,6.73,3.017,6.73,6.733C976.148,408.209,973.135,411.225,969.416,411.225z M969.416,359.225
	c-3.721,0-6.731-3.014-6.731-6.732c0-3.718,3.018-6.732,6.731-6.732c3.72,0,6.73,3.014,6.73,6.732
	C976.148,356.21,973.135,359.225,969.416,359.225z M1025.986,775.225c-3.719,0-6.729-3.014-6.729-6.729s3.014-6.732,6.729-6.732
	s6.732,3.019,6.732,6.732S1029.703,775.225,1025.986,775.225z M1025.986,723.225c-3.719,0-6.729-3.016-6.729-6.729
	c0-3.715,3.014-6.732,6.729-6.732s6.732,3.019,6.732,6.732C1032.718,720.209,1029.703,723.225,1025.986,723.225z M1025.986,671.225
	c-3.719,0-6.729-3.016-6.729-6.729c0-3.715,3.014-6.732,6.729-6.732s6.732,3.019,6.732,6.732
	C1032.718,668.209,1029.703,671.225,1025.986,671.225z M1025.986,619.225c-3.719,0-6.729-3.016-6.729-6.729
	c0-3.715,3.014-6.732,6.729-6.732s6.732,3.019,6.732,6.732C1032.718,616.209,1029.703,619.225,1025.986,619.225z M1025.986,567.225
	c-3.719,0-6.729-3.016-6.729-6.729c0-3.715,3.014-6.732,6.729-6.732s6.732,3.019,6.732,6.732
	C1032.718,564.209,1029.703,567.225,1025.986,567.225z M1025.986,515.225c-3.719,0-6.729-3.016-6.729-6.729
	c0-3.715,3.014-6.732,6.729-6.732s6.732,3.019,6.732,6.732C1032.718,512.209,1029.703,515.225,1025.986,515.225z M1025.986,463.225
	c-3.719,0-6.729-3.016-6.729-6.729c0-3.715,3.014-6.732,6.729-6.732s6.732,3.019,6.732,6.732
	C1032.718,460.209,1029.703,463.225,1025.986,463.225z M1025.986,411.225c-3.719,0-6.729-3.016-6.729-6.729
	c0-3.716,3.014-6.733,6.729-6.733s6.732,3.017,6.732,6.733C1032.719,408.209,1029.703,411.225,1025.986,411.225z M1025.986,359.225
	c-3.719,0-6.729-3.014-6.729-6.732c0-3.718,3.014-6.732,6.729-6.732s6.732,3.014,6.732,6.732
	C1032.719,356.21,1029.703,359.225,1025.986,359.225z M1082.556,775.225c-3.719,0-6.73-3.014-6.73-6.729s3.017-6.732,6.73-6.732
	c3.719,0,6.729,3.019,6.729,6.732S1086.275,775.225,1082.556,775.225z M1082.556,723.225c-3.719,0-6.73-3.016-6.73-6.729
	c0-3.715,3.017-6.732,6.73-6.732c3.719,0,6.729,3.019,6.729,6.732C1089.285,720.209,1086.275,723.225,1082.556,723.225z
	 M1082.556,671.225c-3.719,0-6.73-3.016-6.73-6.729c0-3.715,3.017-6.732,6.73-6.732c3.719,0,6.729,3.019,6.729,6.732
	C1089.285,668.209,1086.275,671.225,1082.556,671.225z M1082.556,619.225c-3.719,0-6.73-3.016-6.73-6.729
	c0-3.715,3.017-6.732,6.73-6.732c3.719,0,6.729,3.019,6.729,6.732C1089.285,616.209,1086.275,619.225,1082.556,619.225z
	 M1082.556,567.225c-3.719,0-6.73-3.016-6.73-6.729c0-3.715,3.017-6.732,6.73-6.732c3.719,0,6.729,3.019,6.729,6.732
	C1089.285,564.209,1086.275,567.225,1082.556,567.225z M1082.556,515.225c-3.719,0-6.73-3.016-6.73-6.729
	c0-3.715,3.017-6.732,6.73-6.732c3.719,0,6.729,3.019,6.729,6.732C1089.285,512.209,1086.275,515.225,1082.556,515.225z
	 M1082.556,463.225c-3.719,0-6.73-3.016-6.73-6.729c0-3.715,3.017-6.732,6.73-6.732c3.719,0,6.729,3.019,6.729,6.732
	C1089.285,460.209,1086.275,463.225,1082.556,463.225z M1082.556,411.225c-3.719,0-6.73-3.016-6.73-6.729
	c0-3.716,3.017-6.733,6.73-6.733c3.719,0,6.729,3.017,6.729,6.733C1089.286,408.209,1086.275,411.225,1082.556,411.225z
	 M1139.125,775.225c-3.72,0-6.73-3.014-6.73-6.729s3.016-6.732,6.73-6.732c3.721,0,6.731,3.019,6.731,6.732
	S1142.845,775.225,1139.125,775.225z M1139.125,723.225c-3.72,0-6.73-3.016-6.73-6.729c0-3.715,3.016-6.732,6.73-6.732
	c3.721,0,6.731,3.019,6.731,6.732C1145.858,720.209,1142.845,723.225,1139.125,723.225z M1139.125,671.225
	c-3.72,0-6.73-3.016-6.73-6.729c0-3.715,3.016-6.732,6.73-6.732c3.721,0,6.731,3.019,6.731,6.732
	C1145.858,668.209,1142.845,671.225,1139.125,671.225z M1139.125,619.225c-3.72,0-6.73-3.016-6.73-6.729
	c0-3.715,3.016-6.732,6.73-6.732c3.721,0,6.731,3.019,6.731,6.732C1145.858,616.209,1142.845,619.225,1139.125,619.225z
	 M1139.125,567.225c-3.72,0-6.73-3.016-6.73-6.729c0-3.715,3.016-6.732,6.73-6.732c3.721,0,6.731,3.019,6.731,6.732
	C1145.858,564.209,1142.845,567.225,1139.125,567.225z M1139.125,515.225c-3.72,0-6.73-3.016-6.73-6.729
	c0-3.715,3.016-6.732,6.73-6.732c3.721,0,6.731,3.019,6.731,6.732C1145.858,512.209,1142.845,515.225,1139.125,515.225z
	 M1139.125,463.225c-3.72,0-6.73-3.016-6.73-6.729c0-3.715,3.016-6.732,6.73-6.732c3.721,0,6.731,3.019,6.731,6.732
	C1145.858,460.209,1142.845,463.225,1139.125,463.225z M1195.697,723.225c-3.719,0-6.729-3.016-6.729-6.729
	c0-3.715,3.014-6.732,6.729-6.732s6.732,3.019,6.732,6.732C1202.429,720.209,1199.416,723.225,1195.697,723.225z M1195.697,671.225
	c-3.719,0-6.729-3.016-6.729-6.729c0-3.715,3.014-6.732,6.729-6.732s6.732,3.019,6.732,6.732
	C1202.429,668.209,1199.416,671.225,1195.697,671.225z M1195.697,619.225c-3.719,0-6.729-3.016-6.729-6.729
	c0-3.715,3.014-6.732,6.729-6.732s6.732,3.019,6.732,6.732C1202.429,616.209,1199.416,619.225,1195.697,619.225z M1195.697,567.225
	c-3.719,0-6.729-3.016-6.729-6.729c0-3.715,3.014-6.732,6.729-6.732s6.732,3.019,6.732,6.732
	C1202.429,564.209,1199.416,567.225,1195.697,567.225z M1195.697,515.225c-3.719,0-6.729-3.016-6.729-6.729
	c0-3.715,3.014-6.732,6.729-6.732s6.732,3.019,6.732,6.732C1202.429,512.209,1199.416,515.225,1195.697,515.225z M1195.697,463.225
	c-3.719,0-6.729-3.016-6.729-6.729c0-3.715,3.014-6.732,6.729-6.732s6.732,3.019,6.732,6.732
	C1202.429,460.209,1199.416,463.225,1195.697,463.225z M1252.267,723.225c-3.719,0-6.73-3.016-6.73-6.729
	c0-3.715,3.017-6.732,6.73-6.732c3.719,0,6.729,3.019,6.729,6.732C1258.996,720.209,1255.986,723.225,1252.267,723.225z
	 M1252.267,671.225c-3.719,0-6.73-3.016-6.73-6.729c0-3.715,3.017-6.732,6.73-6.732c3.719,0,6.729,3.019,6.729,6.732
	C1258.996,668.209,1255.986,671.225,1252.267,671.225z M1252.267,619.225c-3.719,0-6.73-3.016-6.73-6.729
	c0-3.715,3.017-6.732,6.73-6.732c3.719,0,6.729,3.019,6.729,6.732C1258.996,616.209,1255.986,619.225,1252.267,619.225z
	 M1252.267,567.225c-3.719,0-6.73-3.016-6.73-6.729c0-3.715,3.017-6.732,6.73-6.732c3.719,0,6.729,3.019,6.729,6.732
	C1258.996,564.209,1255.986,567.225,1252.267,567.225z M1252.267,515.225c-3.719,0-6.73-3.016-6.73-6.729
	c0-3.715,3.017-6.732,6.73-6.732c3.719,0,6.729,3.019,6.729,6.732C1258.996,512.209,1255.986,515.225,1252.267,515.225z
	 M1308.838,723.225c-3.722,0-6.732-3.016-6.732-6.729c0-3.715,3.016-6.732,6.732-6.732c3.719,0,6.729,3.019,6.729,6.732
	C1315.569,720.209,1312.556,723.225,1308.838,723.225z M1308.838,671.225c-3.722,0-6.732-3.016-6.732-6.729
	c0-3.715,3.016-6.732,6.732-6.732c3.719,0,6.729,3.019,6.729,6.732C1315.569,668.209,1312.556,671.225,1308.838,671.225z
	 M1308.838,619.225c-3.722,0-6.732-3.016-6.732-6.729c0-3.715,3.016-6.732,6.732-6.732c3.719,0,6.729,3.019,6.729,6.732
	C1315.569,616.209,1312.556,619.225,1308.838,619.225z M1308.838,567.225c-3.722,0-6.732-3.016-6.732-6.729
	c0-3.715,3.016-6.732,6.732-6.732c3.719,0,6.729,3.019,6.729,6.732C1315.569,564.209,1312.556,567.225,1308.838,567.225z
	 M1365.406,671.225c-3.719,0-6.729-3.016-6.729-6.729c0-3.715,3.014-6.732,6.729-6.732s6.732,3.019,6.732,6.732
	C1372.14,668.209,1369.125,671.225,1365.406,671.225z M1365.406,619.225c-3.719,0-6.729-3.016-6.729-6.729
	c0-3.715,3.014-6.732,6.729-6.732s6.732,3.019,6.732,6.732C1372.14,616.209,1369.125,619.225,1365.406,619.225z M1365.406,567.225
	c-3.719,0-6.729-3.016-6.729-6.729c0-3.715,3.014-6.732,6.729-6.732s6.732,3.019,6.732,6.732
	C1372.14,564.209,1369.125,567.225,1365.406,567.225z M1421.978,671.225c-3.719,0-6.729-3.016-6.729-6.729
	c0-3.715,3.016-6.732,6.729-6.732c3.719,0,6.732,3.019,6.732,6.732C1428.709,668.209,1425.697,671.225,1421.978,671.225z
	 M1421.978,619.225c-3.719,0-6.729-3.016-6.729-6.729c0-3.715,3.016-6.732,6.729-6.732c3.719,0,6.732,3.019,6.732,6.732
	C1428.709,616.209,1425.697,619.225,1421.978,619.225z M1478.549,671.225c-3.722,0-6.732-3.016-6.732-6.729
	c0-3.715,3.016-6.732,6.732-6.732c3.719,0,6.729,3.019,6.729,6.732C1485.28,668.209,1482.267,671.225,1478.549,671.225z"/>
</svg>
