<?xml version="1.0" encoding="utf-8"?>
<!-- Generator: Adobe Illustrator 16.0.0, SVG Export Plug-In . SVG Version: 6.00 Build 0)  -->
<!DOCTYPE svg PUBLIC "-//W3C//DTD SVG 1.1//EN" "http://www.w3.org/Graphics/SVG/1.1/DTD/svg11.dtd">
<svg version="1.1" id="Layer_1" xmlns="http://www.w3.org/2000/svg" xmlns:xlink="http://www.w3.org/1999/xlink" x="0px" y="0px"
	 width="3870.982px" height="1029.143px" viewBox="0 0 3870.982 1029.143" enable-background="new 0 0 3870.982 1029.143"
	 xml:space="preserve">
<path fill="none" stroke="#000000" stroke-linejoin="round" stroke-miterlimit="10" d="M3858.753,772.888
	c23.065,21.977,10.037,34.152-10.476,34.729c-124.72,3.465-204.97,24.256-296.229,62.993
	c-103.25,43.819-156.17,91.475-174.524,112.752c-7.66,8.881-24.854,27.289-37.385,40.62c-3.683,3.915-17.643,6.82-21.646,4.095
	c-158.133-107.711-323.729-179.614-669.319-213.944c-6.261-0.622-6.668-4.442-0.851-6.653c5.531-2.1,108.03-34.132,212.521-66.847
	c107.674-33.713,212.59-83.785,217.823-86.309c7.188-3.463,16.196-5.084,27.125-3.578c23.95,3.303,70.312,4.44,108.562,3.386
	c22.514-0.623,189.247-5.87,235.719-5.512C3555.716,649.431,3753.123,672.268,3858.753,772.888z M1544.798,53.291
	c42.854-13.112,86.574-24.706,125.485-33.736c9.779-2.27,14.125,5.905,7.127,12.218c-31.041,28.002-60.485,58.695-86.295,92.089
	c-47.442,61.387-82.615,131.977-92.454,211.566c-4.321,34.954-3.737,71.622,2.802,109.938c1.576,9.048-1.349,13.646-7.939,11.521
	c-10.303-3.318-20.431-6.121-30.382-8.545c-131.38-31.993-246.284-42.463-311.479-45.703
	C922.916,391.271,338.9,507.401,218.463,525.15C105.61,541.782,62.362,483.335,62.362,483.335S1456.837,80.202,1544.798,53.291z
	 M3043.087,653.158c-130.78-102.017-366.3-245.979-551.554-360.606c-46.803-28.959-58.799-40.586-75.405-73.269
	c-17.664-34.761-22.845-61.581-33.015-113.639c-5.03-25.765-18.801-34.653-38.729-43.332
	c-76.729-33.414-169.606-41.978-218.745-44.65c-49.139-2.671-63.174-1.908-121.979-7.225
	c-69.146-6.252-119.146-21.678-282.971,3.443c-7.414,1.138-11.396,2.596-16.496,6.931c-37.973,32.239-74.166,68.324-104.956,108.17
	c-46.649,60.375-80.876,129.291-90.438,206.677c-4.374,35.433-3.683,72.687,3.567,111.759c2.095,11.279,7.627,17.612,21.226,23.486
	c49.016,21.322,102.192,55.332,160.85,111.31c87.841,83.833,197.915,199.729,206.204,207.788
	c8.291,8.061,15.736,11.612,29.975,5.675c19.24-8.026,26.228-28.521,69.176-24.78c138.312,12.059,504.603,20.042,632.772,32.311
	c12.033,1.146,19.82-1.657,24.688-3.742c21.498-9.218,340.896-118.794,385.284-134.504
	C3050.716,662.062,3051.162,659.458,3043.087,653.158z M1570.364,463.225c-3.718,0-6.73-3.015-6.73-6.729s3.017-6.732,6.73-6.732
	c3.719,0,6.73,3.019,6.73,6.732S1574.083,463.225,1570.364,463.225z M1570.364,411.225c-3.718,0-6.73-3.015-6.73-6.729
	s3.017-6.732,6.73-6.732c3.719,0,6.73,3.018,6.73,6.732S1574.083,411.225,1570.364,411.225z M1570.364,359.225
	c-3.72,0-6.732-3.014-6.732-6.732c0-3.718,3.017-6.732,6.732-6.732c3.715,0,6.73,3.014,6.73,6.732
	C1577.097,356.211,1574.083,359.225,1570.364,359.225z M1570.364,307.225c-3.72,0-6.732-3.014-6.732-6.732
	c0-3.718,3.017-6.732,6.732-6.732c3.715,0,6.73,3.014,6.73,6.732C1577.097,304.211,1574.083,307.225,1570.364,307.225z
	 M1570.364,255.225c-3.72,0-6.732-3.014-6.732-6.732c0-3.718,3.017-6.732,6.732-6.732c3.715,0,6.73,3.014,6.73,6.732
	C1577.097,252.211,1574.083,255.225,1570.364,255.225z M1626.936,463.225c-3.72,0-6.73-3.015-6.73-6.729s3.016-6.732,6.73-6.732
	c3.72,0,6.73,3.019,6.73,6.732S1630.654,463.225,1626.936,463.225z M1626.936,411.225c-3.72,0-6.73-3.015-6.73-6.729
	s3.016-6.732,6.73-6.732c3.72,0,6.73,3.018,6.73,6.732S1630.654,411.225,1626.936,411.225z M1626.936,359.225
	c-3.72,0-6.73-3.014-6.73-6.732c0-3.718,3.015-6.732,6.73-6.732c3.719,0,6.73,3.014,6.73,6.732
	C1633.667,356.211,1630.654,359.225,1626.936,359.225z M1626.936,307.225c-3.72,0-6.73-3.014-6.73-6.732
	c0-3.718,3.015-6.732,6.73-6.732c3.719,0,6.73,3.014,6.73,6.732C1633.667,304.211,1630.654,307.225,1626.936,307.225z
	 M1626.936,255.225c-3.72,0-6.73-3.014-6.73-6.732c0-3.718,3.015-6.732,6.73-6.732c3.719,0,6.73,3.014,6.73,6.732
	C1633.667,252.211,1630.654,255.225,1626.936,255.225z M1626.936,203.225c-3.72,0-6.73-3.014-6.73-6.732
	c0-3.718,3.015-6.732,6.73-6.732c3.719,0,6.73,3.014,6.73,6.732C1633.667,200.211,1630.654,203.225,1626.936,203.225z
	 M1626.936,151.225c-3.72,0-6.73-3.014-6.73-6.732c0-3.718,3.015-6.732,6.73-6.732c3.719,0,6.73,3.014,6.73,6.732
	C1633.667,148.211,1630.654,151.225,1626.936,151.225z M1683.505,515.225c-3.719,0-6.729-3.015-6.729-6.729s3.014-6.732,6.729-6.732
	c3.72,0,6.732,3.019,6.732,6.732S1687.225,515.225,1683.505,515.225z M1683.505,463.225c-3.719,0-6.729-3.015-6.729-6.729
	s3.014-6.732,6.729-6.732c3.72,0,6.732,3.019,6.732,6.732S1687.225,463.225,1683.505,463.225z M1683.505,411.225
	c-3.719,0-6.729-3.015-6.729-6.729s3.014-6.732,6.729-6.732c3.72,0,6.732,3.018,6.732,6.732S1687.225,411.225,1683.505,411.225z
	 M1683.505,359.225c-3.719,0-6.729-3.014-6.729-6.732c0-3.718,3.014-6.732,6.729-6.732c3.72,0,6.732,3.014,6.732,6.732
	C1690.237,356.211,1687.225,359.225,1683.505,359.225z M1683.505,307.225c-3.719,0-6.729-3.014-6.729-6.732
	c0-3.718,3.014-6.732,6.729-6.732c3.72,0,6.732,3.014,6.732,6.732C1690.237,304.211,1687.225,307.225,1683.505,307.225z
	 M1683.505,255.225c-3.719,0-6.729-3.014-6.729-6.732c0-3.718,3.014-6.732,6.729-6.732c3.72,0,6.732,3.014,6.732,6.732
	C1690.237,252.211,1687.225,255.225,1683.505,255.225z M1683.505,203.225c-3.719,0-6.729-3.014-6.729-6.732
	c0-3.718,3.014-6.732,6.729-6.732c3.72,0,6.732,3.014,6.732,6.732C1690.237,200.211,1687.225,203.225,1683.505,203.225z
	 M1683.505,151.225c-3.719,0-6.729-3.014-6.729-6.732c0-3.718,3.014-6.732,6.729-6.732c3.72,0,6.732,3.014,6.732,6.732
	C1690.237,148.211,1687.225,151.225,1683.505,151.225z M1683.505,99.225c-3.719,0-6.729-3.014-6.729-6.732
	c0-3.718,3.014-6.732,6.729-6.732c3.72,0,6.732,3.014,6.732,6.732C1690.237,96.211,1687.225,99.225,1683.505,99.225z
	 M1740.075,567.225c-3.72,0-6.732-3.015-6.732-6.729s3.017-6.732,6.732-6.732c3.715,0,6.73,3.019,6.73,6.732
	S1743.794,567.225,1740.075,567.225z M1740.075,515.225c-3.72,0-6.732-3.015-6.732-6.729s3.017-6.732,6.732-6.732
	c3.715,0,6.73,3.019,6.73,6.732S1743.794,515.225,1740.075,515.225z M1740.075,463.225c-3.72,0-6.732-3.015-6.732-6.729
	s3.017-6.732,6.732-6.732c3.715,0,6.73,3.019,6.73,6.732S1743.794,463.225,1740.075,463.225z M1740.075,411.225
	c-3.72,0-6.732-3.015-6.732-6.729s3.017-6.732,6.732-6.732c3.715,0,6.73,3.018,6.73,6.732S1743.794,411.225,1740.075,411.225z
	 M1740.075,359.225c-3.72,0-6.732-3.014-6.732-6.732c0-3.718,3.017-6.732,6.732-6.732c3.715,0,6.73,3.014,6.73,6.732
	C1746.808,356.211,1743.794,359.225,1740.075,359.225z M1740.075,307.225c-3.72,0-6.732-3.014-6.732-6.732
	c0-3.718,3.017-6.732,6.732-6.732c3.715,0,6.73,3.014,6.73,6.732C1746.808,304.211,1743.794,307.225,1740.075,307.225z
	 M1740.075,255.225c-3.72,0-6.732-3.014-6.732-6.732c0-3.718,3.017-6.732,6.732-6.732c3.715,0,6.73,3.014,6.73,6.732
	C1746.808,252.211,1743.794,255.225,1740.075,255.225z M1740.075,203.225c-3.72,0-6.732-3.014-6.732-6.732
	c0-3.718,3.017-6.732,6.732-6.732c3.715,0,6.73,3.014,6.73,6.732C1746.808,200.211,1743.794,203.225,1740.075,203.225z
	 M1740.075,151.225c-3.72,0-6.732-3.014-6.732-6.732c0-3.718,3.017-6.732,6.732-6.732c3.715,0,6.73,3.014,6.73,6.732
	C1746.808,148.211,1743.794,151.225,1740.075,151.225z M1740.075,99.225c-3.72,0-6.732-3.014-6.732-6.732
	c0-3.718,3.017-6.732,6.732-6.732c3.715,0,6.73,3.014,6.73,6.732C1746.808,96.211,1743.794,99.225,1740.075,99.225z
	 M1740.075,47.225c-3.72,0-6.732-3.014-6.732-6.732c0-3.718,3.017-6.732,6.732-6.732c3.715,0,6.73,3.014,6.73,6.732
	C1746.808,44.211,1743.794,47.225,1740.075,47.225z M1796.646,619.225c-3.721,0-6.732-3.015-6.732-6.729s3.016-6.732,6.732-6.732
	c3.716,0,6.729,3.019,6.729,6.732S1800.364,619.225,1796.646,619.225z M1796.646,567.225c-3.721,0-6.732-3.015-6.732-6.729
	s3.016-6.732,6.732-6.732c3.716,0,6.729,3.019,6.729,6.732S1800.364,567.225,1796.646,567.225z M1796.646,515.225
	c-3.721,0-6.732-3.015-6.732-6.729s3.016-6.732,6.732-6.732c3.716,0,6.729,3.019,6.729,6.732S1800.364,515.225,1796.646,515.225z
	 M1796.646,463.225c-3.721,0-6.732-3.015-6.732-6.729s3.016-6.732,6.732-6.732c3.716,0,6.729,3.019,6.729,6.732
	S1800.364,463.225,1796.646,463.225z M1796.646,411.225c-3.721,0-6.732-3.015-6.732-6.729s3.016-6.732,6.732-6.732
	c3.716,0,6.729,3.018,6.729,6.732S1800.364,411.225,1796.646,411.225z M1796.646,359.225c-3.721,0-6.732-3.014-6.732-6.732
	c0-3.718,3.016-6.732,6.732-6.732c3.716,0,6.729,3.014,6.729,6.732C1803.378,356.211,1800.364,359.225,1796.646,359.225z
	 M1796.646,307.225c-3.721,0-6.732-3.014-6.732-6.732c0-3.718,3.016-6.732,6.732-6.732c3.716,0,6.729,3.014,6.729,6.732
	C1803.378,304.211,1800.364,307.225,1796.646,307.225z M1796.646,255.225c-3.721,0-6.732-3.014-6.732-6.732
	c0-3.718,3.016-6.732,6.732-6.732c3.716,0,6.729,3.014,6.729,6.732C1803.378,252.211,1800.364,255.225,1796.646,255.225z
	 M1796.646,203.225c-3.721,0-6.732-3.014-6.732-6.732c0-3.718,3.016-6.732,6.732-6.732c3.716,0,6.729,3.014,6.729,6.732
	C1803.378,200.211,1800.364,203.225,1796.646,203.225z M1796.646,151.225c-3.721,0-6.732-3.014-6.732-6.732
	c0-3.718,3.016-6.732,6.732-6.732c3.716,0,6.729,3.014,6.729,6.732C1803.378,148.211,1800.364,151.225,1796.646,151.225z
	 M1796.646,99.225c-3.721,0-6.732-3.014-6.732-6.732c0-3.718,3.016-6.732,6.732-6.732c3.716,0,6.729,3.014,6.729,6.732
	C1803.378,96.211,1800.364,99.225,1796.646,99.225z M1796.646,47.225c-3.721,0-6.732-3.014-6.732-6.732
	c0-3.718,3.016-6.732,6.732-6.732c3.716,0,6.729,3.014,6.729,6.732C1803.378,44.211,1800.364,47.225,1796.646,47.225z
	 M1853.216,671.225c-3.719,0-6.729-3.015-6.729-6.729s3.014-6.732,6.729-6.732c3.72,0,6.732,3.019,6.732,6.732
	S1856.936,671.225,1853.216,671.225z M1853.216,619.225c-3.719,0-6.729-3.015-6.729-6.729s3.014-6.732,6.729-6.732
	c3.72,0,6.732,3.019,6.732,6.732S1856.936,619.225,1853.216,619.225z M1853.216,567.225c-3.719,0-6.729-3.015-6.729-6.729
	s3.014-6.732,6.729-6.732c3.72,0,6.732,3.019,6.732,6.732S1856.936,567.225,1853.216,567.225z M1853.216,515.225
	c-3.719,0-6.729-3.015-6.729-6.729s3.014-6.732,6.729-6.732c3.72,0,6.732,3.019,6.732,6.732S1856.936,515.225,1853.216,515.225z
	 M1853.216,463.225c-3.719,0-6.729-3.015-6.729-6.729s3.014-6.732,6.729-6.732c3.72,0,6.732,3.019,6.732,6.732
	S1856.936,463.225,1853.216,463.225z M1853.216,411.225c-3.719,0-6.729-3.015-6.729-6.729s3.014-6.732,6.729-6.732
	c3.72,0,6.732,3.018,6.732,6.732S1856.936,411.225,1853.216,411.225z M1853.216,359.225c-3.719,0-6.729-3.014-6.729-6.732
	c0-3.718,3.014-6.732,6.729-6.732c3.72,0,6.732,3.014,6.732,6.732C1859.948,356.211,1856.936,359.225,1853.216,359.225z
	 M1853.216,307.225c-3.719,0-6.729-3.014-6.729-6.732c0-3.718,3.014-6.732,6.729-6.732c3.72,0,6.732,3.014,6.732,6.732
	C1859.948,304.211,1856.936,307.225,1853.216,307.225z M1853.216,255.225c-3.719,0-6.729-3.014-6.729-6.732
	c0-3.718,3.014-6.732,6.729-6.732c3.72,0,6.732,3.014,6.732,6.732C1859.948,252.211,1856.936,255.225,1853.216,255.225z
	 M1853.216,203.225c-3.719,0-6.729-3.014-6.729-6.732c0-3.718,3.014-6.732,6.729-6.732c3.72,0,6.732,3.014,6.732,6.732
	C1859.948,200.211,1856.936,203.225,1853.216,203.225z M1853.216,151.225c-3.719,0-6.729-3.014-6.729-6.732
	c0-3.718,3.014-6.732,6.729-6.732c3.72,0,6.732,3.014,6.732,6.732C1859.948,148.211,1856.936,151.225,1853.216,151.225z
	 M1853.216,99.225c-3.719,0-6.729-3.014-6.729-6.732c0-3.718,3.014-6.732,6.729-6.732c3.72,0,6.732,3.014,6.732,6.732
	C1859.948,96.211,1856.936,99.225,1853.216,99.225z M1853.216,47.225c-3.719,0-6.729-3.014-6.729-6.732
	c0-3.718,3.014-6.732,6.729-6.732c3.72,0,6.732,3.014,6.732,6.732C1859.948,44.211,1856.936,47.225,1853.216,47.225z
	 M1909.786,723.225c-3.719,0-6.732-3.015-6.732-6.729s3.018-6.732,6.732-6.732s6.73,3.019,6.73,6.732
	S1913.505,723.225,1909.786,723.225z M1909.786,671.225c-3.719,0-6.732-3.015-6.732-6.729s3.018-6.732,6.732-6.732
	s6.73,3.019,6.73,6.732S1913.505,671.225,1909.786,671.225z M1909.786,619.225c-3.719,0-6.732-3.015-6.732-6.729
	s3.018-6.732,6.732-6.732s6.73,3.019,6.73,6.732S1913.505,619.225,1909.786,619.225z M1909.786,567.225
	c-3.719,0-6.732-3.015-6.732-6.729s3.018-6.732,6.732-6.732s6.73,3.019,6.73,6.732S1913.505,567.225,1909.786,567.225z
	 M1909.786,515.225c-3.719,0-6.732-3.015-6.732-6.729s3.018-6.732,6.732-6.732s6.73,3.019,6.73,6.732
	S1913.505,515.225,1909.786,515.225z M1909.786,463.225c-3.719,0-6.732-3.015-6.732-6.729s3.018-6.732,6.732-6.732
	s6.73,3.019,6.73,6.732S1913.505,463.225,1909.786,463.225z M1909.786,411.225c-3.719,0-6.732-3.015-6.732-6.729
	s3.018-6.732,6.732-6.732s6.73,3.018,6.73,6.732S1913.505,411.225,1909.786,411.225z M1909.786,359.225
	c-3.719,0-6.732-3.014-6.732-6.732c0-3.718,3.018-6.732,6.732-6.732s6.73,3.014,6.73,6.732
	C1916.52,356.211,1913.505,359.225,1909.786,359.225z M1909.786,307.225c-3.719,0-6.732-3.014-6.732-6.732
	c0-3.718,3.018-6.732,6.732-6.732s6.73,3.014,6.73,6.732C1916.52,304.211,1913.505,307.225,1909.786,307.225z M1909.786,255.225
	c-3.719,0-6.732-3.014-6.732-6.732c0-3.718,3.018-6.732,6.732-6.732s6.73,3.014,6.73,6.732
	C1916.52,252.211,1913.505,255.225,1909.786,255.225z M1909.786,203.225c-3.719,0-6.732-3.014-6.732-6.732
	c0-3.718,3.018-6.732,6.732-6.732s6.73,3.014,6.73,6.732C1916.52,200.211,1913.505,203.225,1909.786,203.225z M1909.786,151.225
	c-3.719,0-6.732-3.014-6.732-6.732c0-3.718,3.018-6.732,6.732-6.732s6.73,3.014,6.73,6.732
	C1916.52,148.211,1913.505,151.225,1909.786,151.225z M1909.786,99.225c-3.719,0-6.732-3.014-6.732-6.732
	c0-3.718,3.018-6.732,6.732-6.732s6.73,3.014,6.73,6.732C1916.52,96.211,1913.505,99.225,1909.786,99.225z M1909.786,47.225
	c-3.719,0-6.732-3.014-6.732-6.732c0-3.718,3.018-6.732,6.732-6.732s6.73,3.014,6.73,6.732
	C1916.52,44.211,1913.505,47.225,1909.786,47.225z M1966.355,723.225c-3.72,0-6.731-3.015-6.731-6.729s3.017-6.732,6.731-6.732
	c3.717,0,6.731,3.019,6.731,6.732S1970.075,723.225,1966.355,723.225z M1966.355,671.225c-3.72,0-6.731-3.015-6.731-6.729
	s3.017-6.732,6.731-6.732c3.717,0,6.731,3.019,6.731,6.732S1970.075,671.225,1966.355,671.225z M1966.355,619.225
	c-3.72,0-6.731-3.015-6.731-6.729s3.017-6.732,6.731-6.732c3.717,0,6.731,3.019,6.731,6.732S1970.075,619.225,1966.355,619.225z
	 M1966.355,567.225c-3.72,0-6.731-3.015-6.731-6.729s3.017-6.732,6.731-6.732c3.717,0,6.731,3.019,6.731,6.732
	S1970.075,567.225,1966.355,567.225z M1966.355,515.225c-3.72,0-6.731-3.015-6.731-6.729s3.017-6.732,6.731-6.732
	c3.717,0,6.731,3.019,6.731,6.732S1970.075,515.225,1966.355,515.225z M1966.355,463.225c-3.72,0-6.731-3.015-6.731-6.729
	s3.017-6.732,6.731-6.732c3.717,0,6.731,3.019,6.731,6.732S1970.075,463.225,1966.355,463.225z M1966.355,411.225
	c-3.72,0-6.731-3.015-6.731-6.729s3.017-6.732,6.731-6.732c3.717,0,6.731,3.018,6.731,6.732S1970.075,411.225,1966.355,411.225z
	 M1966.355,359.225c-3.72,0-6.731-3.014-6.731-6.732c0-3.718,3.017-6.732,6.731-6.732c3.717,0,6.731,3.014,6.731,6.732
	C1973.089,356.211,1970.075,359.225,1966.355,359.225z M1966.355,307.225c-3.72,0-6.731-3.014-6.731-6.732
	c0-3.718,3.017-6.732,6.731-6.732c3.717,0,6.731,3.014,6.731,6.732C1973.089,304.211,1970.075,307.225,1966.355,307.225z
	 M1966.355,255.225c-3.72,0-6.731-3.014-6.731-6.732c0-3.718,3.017-6.732,6.731-6.732c3.717,0,6.731,3.014,6.731,6.732
	C1973.089,252.211,1970.075,255.225,1966.355,255.225z M1966.355,203.225c-3.72,0-6.731-3.014-6.731-6.732
	c0-3.718,3.017-6.732,6.731-6.732c3.717,0,6.731,3.014,6.731,6.732C1973.089,200.211,1970.075,203.225,1966.355,203.225z
	 M1966.355,151.225c-3.72,0-6.731-3.014-6.731-6.732c0-3.718,3.017-6.732,6.731-6.732c3.717,0,6.731,3.014,6.731,6.732
	C1973.089,148.211,1970.075,151.225,1966.355,151.225z M1966.355,99.225c-3.72,0-6.731-3.014-6.731-6.732
	c0-3.718,3.017-6.732,6.731-6.732c3.717,0,6.731,3.014,6.731,6.732C1973.089,96.211,1970.075,99.225,1966.355,99.225z
	 M1966.355,47.225c-3.72,0-6.731-3.014-6.731-6.732c0-3.718,3.017-6.732,6.731-6.732c3.717,0,6.731,3.014,6.731,6.732
	C1973.089,44.211,1970.075,47.225,1966.355,47.225z M2022.927,723.225c-3.721,0-6.73-3.015-6.73-6.729s3.014-6.732,6.73-6.732
	c3.718,0,6.73,3.019,6.73,6.732S2026.646,723.225,2022.927,723.225z M2022.927,671.225c-3.721,0-6.73-3.015-6.73-6.729
	s3.014-6.732,6.73-6.732c3.718,0,6.73,3.019,6.73,6.732S2026.646,671.225,2022.927,671.225z M2022.927,619.225
	c-3.721,0-6.73-3.015-6.73-6.729s3.014-6.732,6.73-6.732c3.718,0,6.73,3.019,6.73,6.732S2026.646,619.225,2022.927,619.225z
	 M2022.927,567.225c-3.721,0-6.73-3.015-6.73-6.729s3.014-6.732,6.73-6.732c3.718,0,6.73,3.019,6.73,6.732
	S2026.646,567.225,2022.927,567.225z M2022.927,515.225c-3.721,0-6.73-3.015-6.73-6.729s3.014-6.732,6.73-6.732
	c3.718,0,6.73,3.019,6.73,6.732S2026.646,515.225,2022.927,515.225z M2022.927,463.225c-3.721,0-6.73-3.015-6.73-6.729
	s3.014-6.732,6.73-6.732c3.718,0,6.73,3.019,6.73,6.732S2026.646,463.225,2022.927,463.225z M2022.927,411.225
	c-3.721,0-6.73-3.015-6.73-6.729s3.014-6.732,6.73-6.732c3.718,0,6.73,3.018,6.73,6.732S2026.646,411.225,2022.927,411.225z
	 M2022.927,359.225c-3.721,0-6.73-3.014-6.73-6.732c0-3.718,3.014-6.732,6.73-6.732c3.718,0,6.73,3.014,6.73,6.732
	C2029.658,356.211,2026.646,359.225,2022.927,359.225z M2022.927,307.225c-3.721,0-6.73-3.014-6.73-6.732
	c0-3.718,3.014-6.732,6.73-6.732c3.718,0,6.73,3.014,6.73,6.732C2029.658,304.211,2026.646,307.225,2022.927,307.225z
	 M2022.927,255.225c-3.721,0-6.73-3.014-6.73-6.732c0-3.718,3.014-6.732,6.73-6.732c3.718,0,6.73,3.014,6.73,6.732
	C2029.658,252.211,2026.646,255.225,2022.927,255.225z M2022.927,203.225c-3.721,0-6.73-3.014-6.73-6.732
	c0-3.718,3.014-6.732,6.73-6.732c3.718,0,6.73,3.014,6.73,6.732C2029.658,200.211,2026.646,203.225,2022.927,203.225z
	 M2022.927,151.225c-3.721,0-6.73-3.014-6.73-6.732c0-3.718,3.014-6.732,6.73-6.732c3.718,0,6.73,3.014,6.73,6.732
	C2029.658,148.211,2026.646,151.225,2022.927,151.225z M2022.927,99.225c-3.721,0-6.73-3.014-6.73-6.732
	c0-3.718,3.014-6.732,6.73-6.732c3.718,0,6.73,3.014,6.73,6.732C2029.658,96.211,2026.646,99.225,2022.927,99.225z M2022.927,47.225
	c-3.721,0-6.73-3.014-6.73-6.732c0-3.718,3.014-6.732,6.73-6.732c3.718,0,6.73,3.014,6.73,6.732
	C2029.658,44.211,2026.646,47.225,2022.927,47.225z M2079.497,723.225c-3.719,0-6.729-3.015-6.729-6.729s3.015-6.732,6.729-6.732
	c3.719,0,6.731,3.019,6.731,6.732S2083.216,723.225,2079.497,723.225z M2079.497,671.225c-3.719,0-6.729-3.015-6.729-6.729
	s3.015-6.732,6.729-6.732c3.719,0,6.731,3.019,6.731,6.732S2083.216,671.225,2079.497,671.225z M2079.497,619.225
	c-3.719,0-6.729-3.015-6.729-6.729s3.015-6.732,6.729-6.732c3.719,0,6.731,3.019,6.731,6.732S2083.216,619.225,2079.497,619.225z
	 M2079.497,567.225c-3.719,0-6.729-3.015-6.729-6.729s3.015-6.732,6.729-6.732c3.719,0,6.731,3.019,6.731,6.732
	S2083.216,567.225,2079.497,567.225z M2079.497,515.225c-3.719,0-6.729-3.015-6.729-6.729s3.015-6.732,6.729-6.732
	c3.719,0,6.731,3.019,6.731,6.732S2083.216,515.225,2079.497,515.225z M2079.497,463.225c-3.719,0-6.729-3.015-6.729-6.729
	s3.015-6.732,6.729-6.732c3.719,0,6.731,3.019,6.731,6.732S2083.216,463.225,2079.497,463.225z M2079.497,411.225
	c-3.719,0-6.729-3.015-6.729-6.729s3.015-6.732,6.729-6.732c3.719,0,6.731,3.018,6.731,6.732S2083.216,411.225,2079.497,411.225z
	 M2079.497,359.225c-3.719,0-6.729-3.014-6.729-6.732c0-3.718,3.015-6.732,6.729-6.732c3.719,0,6.731,3.014,6.731,6.732
	C2086.229,356.211,2083.216,359.225,2079.497,359.225z M2079.497,307.225c-3.719,0-6.729-3.014-6.729-6.732
	c0-3.718,3.015-6.732,6.729-6.732c3.719,0,6.731,3.014,6.731,6.732C2086.229,304.211,2083.216,307.225,2079.497,307.225z
	 M2079.497,255.225c-3.719,0-6.729-3.014-6.729-6.732c0-3.718,3.015-6.732,6.729-6.732c3.719,0,6.731,3.014,6.731,6.732
	C2086.229,252.211,2083.216,255.225,2079.497,255.225z M2079.497,203.225c-3.719,0-6.729-3.014-6.729-6.732
	c0-3.718,3.015-6.732,6.729-6.732c3.719,0,6.731,3.014,6.731,6.732C2086.229,200.211,2083.216,203.225,2079.497,203.225z
	 M2079.497,151.225c-3.719,0-6.729-3.014-6.729-6.732c0-3.718,3.015-6.732,6.729-6.732c3.719,0,6.731,3.014,6.731,6.732
	C2086.229,148.211,2083.216,151.225,2079.497,151.225z M2079.497,99.225c-3.719,0-6.729-3.014-6.729-6.732
	c0-3.718,3.015-6.732,6.729-6.732c3.719,0,6.731,3.014,6.731,6.732C2086.229,96.211,2083.216,99.225,2079.497,99.225z
	 M2079.497,47.225c-3.719,0-6.729-3.014-6.729-6.732c0-3.718,3.015-6.732,6.729-6.732c3.719,0,6.731,3.014,6.731,6.732
	C2086.229,44.211,2083.216,47.225,2079.497,47.225z M2136.066,723.225c-3.72,0-6.731-3.015-6.731-6.729s3.017-6.732,6.731-6.732
	c3.717,0,6.731,3.019,6.731,6.732S2139.786,723.225,2136.066,723.225z M2136.066,671.225c-3.72,0-6.731-3.015-6.731-6.729
	s3.017-6.732,6.731-6.732c3.717,0,6.731,3.019,6.731,6.732S2139.786,671.225,2136.066,671.225z M2136.066,619.225
	c-3.72,0-6.731-3.015-6.731-6.729s3.017-6.732,6.731-6.732c3.717,0,6.731,3.019,6.731,6.732S2139.786,619.225,2136.066,619.225z
	 M2136.066,567.225c-3.72,0-6.731-3.015-6.731-6.729s3.017-6.732,6.731-6.732c3.717,0,6.731,3.019,6.731,6.732
	S2139.786,567.225,2136.066,567.225z M2136.066,515.225c-3.72,0-6.731-3.015-6.731-6.729s3.017-6.732,6.731-6.732
	c3.717,0,6.731,3.019,6.731,6.732S2139.786,515.225,2136.066,515.225z M2136.066,463.225c-3.72,0-6.731-3.015-6.731-6.729
	s3.017-6.732,6.731-6.732c3.717,0,6.731,3.019,6.731,6.732S2139.786,463.225,2136.066,463.225z M2136.066,411.225
	c-3.72,0-6.731-3.015-6.731-6.729s3.017-6.732,6.731-6.732c3.717,0,6.731,3.018,6.731,6.732S2139.786,411.225,2136.066,411.225z
	 M2136.066,359.225c-3.72,0-6.731-3.014-6.731-6.732c0-3.718,3.017-6.732,6.731-6.732c3.717,0,6.731,3.014,6.731,6.732
	C2142.8,356.211,2139.786,359.225,2136.066,359.225z M2136.066,307.225c-3.72,0-6.731-3.014-6.731-6.732
	c0-3.718,3.017-6.732,6.731-6.732c3.717,0,6.731,3.014,6.731,6.732C2142.8,304.211,2139.786,307.225,2136.066,307.225z
	 M2136.066,255.225c-3.72,0-6.731-3.014-6.731-6.732c0-3.718,3.017-6.732,6.731-6.732c3.717,0,6.731,3.014,6.731,6.732
	C2142.8,252.211,2139.786,255.225,2136.066,255.225z M2136.066,203.225c-3.72,0-6.731-3.014-6.731-6.732
	c0-3.718,3.017-6.732,6.731-6.732c3.717,0,6.731,3.014,6.731,6.732C2142.8,200.211,2139.786,203.225,2136.066,203.225z
	 M2136.066,151.225c-3.72,0-6.731-3.014-6.731-6.732c0-3.718,3.017-6.732,6.731-6.732c3.717,0,6.731,3.014,6.731,6.732
	C2142.8,148.211,2139.786,151.225,2136.066,151.225z M2136.066,99.225c-3.72,0-6.731-3.014-6.731-6.732
	c0-3.718,3.017-6.732,6.731-6.732c3.717,0,6.731,3.014,6.731,6.732C2142.8,96.211,2139.786,99.225,2136.066,99.225z
	 M2136.066,47.225c-3.72,0-6.731-3.014-6.731-6.732c0-3.718,3.017-6.732,6.731-6.732c3.717,0,6.731,3.014,6.731,6.732
	C2142.8,44.211,2139.786,47.225,2136.066,47.225z M2192.638,723.225c-3.721,0-6.73-3.015-6.73-6.729s3.014-6.732,6.73-6.732
	c3.718,0,6.73,3.019,6.73,6.732S2196.355,723.225,2192.638,723.225z M2192.638,671.225c-3.721,0-6.73-3.015-6.73-6.729
	s3.014-6.732,6.73-6.732c3.718,0,6.73,3.019,6.73,6.732S2196.355,671.225,2192.638,671.225z M2192.638,619.225
	c-3.721,0-6.73-3.015-6.73-6.729s3.014-6.732,6.73-6.732c3.718,0,6.73,3.019,6.73,6.732S2196.355,619.225,2192.638,619.225z
	 M2192.638,567.225c-3.721,0-6.73-3.015-6.73-6.729s3.014-6.732,6.73-6.732c3.718,0,6.73,3.019,6.73,6.732
	S2196.355,567.225,2192.638,567.225z M2192.638,515.225c-3.721,0-6.73-3.015-6.73-6.729s3.014-6.732,6.73-6.732
	c3.718,0,6.73,3.019,6.73,6.732S2196.355,515.225,2192.638,515.225z M2192.638,463.225c-3.721,0-6.73-3.015-6.73-6.729
	s3.014-6.732,6.73-6.732c3.718,0,6.73,3.019,6.73,6.732S2196.355,463.225,2192.638,463.225z M2192.638,411.225
	c-3.721,0-6.73-3.015-6.73-6.729s3.014-6.732,6.73-6.732c3.718,0,6.73,3.018,6.73,6.732S2196.355,411.225,2192.638,411.225z
	 M2192.638,359.225c-3.721,0-6.73-3.014-6.73-6.732c0-3.718,3.014-6.732,6.73-6.732c3.718,0,6.73,3.014,6.73,6.732
	C2199.369,356.211,2196.355,359.225,2192.638,359.225z M2192.638,307.225c-3.721,0-6.73-3.014-6.73-6.732
	c0-3.718,3.014-6.732,6.73-6.732c3.718,0,6.73,3.014,6.73,6.732C2199.369,304.211,2196.355,307.225,2192.638,307.225z
	 M2192.638,255.225c-3.721,0-6.73-3.014-6.73-6.732c0-3.718,3.014-6.732,6.73-6.732c3.718,0,6.73,3.014,6.73,6.732
	C2199.369,252.211,2196.355,255.225,2192.638,255.225z M2192.638,203.225c-3.721,0-6.73-3.014-6.73-6.732
	c0-3.718,3.014-6.732,6.73-6.732c3.718,0,6.73,3.014,6.73,6.732C2199.369,200.211,2196.355,203.225,2192.638,203.225z
	 M2192.638,151.225c-3.721,0-6.73-3.014-6.73-6.732c0-3.718,3.014-6.732,6.73-6.732c3.718,0,6.73,3.014,6.73,6.732
	C2199.369,148.211,2196.355,151.225,2192.638,151.225z M2192.638,99.225c-3.721,0-6.73-3.014-6.73-6.732
	c0-3.718,3.014-6.732,6.73-6.732c3.718,0,6.73,3.014,6.73,6.732C2199.369,96.211,2196.355,99.225,2192.638,99.225z
	 M2249.208,723.225c-3.719,0-6.729-3.015-6.729-6.729s3.015-6.732,6.729-6.732c3.719,0,6.731,3.019,6.731,6.732
	S2252.927,723.225,2249.208,723.225z M2249.208,671.225c-3.719,0-6.729-3.015-6.729-6.729s3.015-6.732,6.729-6.732
	c3.719,0,6.731,3.019,6.731,6.732S2252.927,671.225,2249.208,671.225z M2249.208,619.225c-3.719,0-6.729-3.015-6.729-6.729
	s3.015-6.732,6.729-6.732c3.719,0,6.731,3.019,6.731,6.732S2252.927,619.225,2249.208,619.225z M2249.208,567.225
	c-3.719,0-6.729-3.015-6.729-6.729s3.015-6.732,6.729-6.732c3.719,0,6.731,3.019,6.731,6.732S2252.927,567.225,2249.208,567.225z
	 M2249.208,515.225c-3.719,0-6.729-3.015-6.729-6.729s3.015-6.732,6.729-6.732c3.719,0,6.731,3.019,6.731,6.732
	S2252.927,515.225,2249.208,515.225z M2249.208,463.225c-3.719,0-6.729-3.015-6.729-6.729s3.015-6.732,6.729-6.732
	c3.719,0,6.731,3.019,6.731,6.732S2252.927,463.225,2249.208,463.225z M2249.208,411.225c-3.719,0-6.729-3.015-6.729-6.729
	s3.015-6.732,6.729-6.732c3.719,0,6.731,3.018,6.731,6.732S2252.927,411.225,2249.208,411.225z M2249.208,359.225
	c-3.719,0-6.729-3.014-6.729-6.732c0-3.718,3.015-6.732,6.729-6.732c3.719,0,6.731,3.014,6.731,6.732
	C2255.939,356.211,2252.927,359.225,2249.208,359.225z M2249.208,307.225c-3.719,0-6.729-3.014-6.729-6.732
	c0-3.718,3.015-6.732,6.729-6.732c3.719,0,6.731,3.014,6.731,6.732C2255.939,304.211,2252.927,307.225,2249.208,307.225z
	 M2249.208,255.225c-3.719,0-6.729-3.014-6.729-6.732c0-3.718,3.015-6.732,6.729-6.732c3.719,0,6.731,3.014,6.731,6.732
	C2255.939,252.211,2252.927,255.225,2249.208,255.225z M2249.208,203.225c-3.719,0-6.729-3.014-6.729-6.732
	c0-3.718,3.015-6.732,6.729-6.732c3.719,0,6.731,3.014,6.731,6.732C2255.939,200.211,2252.927,203.225,2249.208,203.225z
	 M2249.208,151.225c-3.719,0-6.729-3.014-6.729-6.732c0-3.718,3.015-6.732,6.729-6.732c3.719,0,6.731,3.014,6.731,6.732
	C2255.939,148.211,2252.927,151.225,2249.208,151.225z M2249.208,99.225c-3.719,0-6.729-3.014-6.729-6.732
	c0-3.718,3.015-6.732,6.729-6.732c3.719,0,6.731,3.014,6.731,6.732C2255.939,96.211,2252.927,99.225,2249.208,99.225z
	 M2305.779,723.225c-3.719,0-6.731-3.015-6.731-6.729s3.015-6.732,6.731-6.732c3.716,0,6.729,3.019,6.729,6.732
	S2309.498,723.225,2305.779,723.225z M2305.779,671.225c-3.719,0-6.731-3.015-6.731-6.729s3.015-6.732,6.731-6.732
	c3.716,0,6.729,3.019,6.729,6.732S2309.498,671.225,2305.779,671.225z M2305.779,619.225c-3.719,0-6.731-3.015-6.731-6.729
	s3.015-6.732,6.731-6.732c3.716,0,6.729,3.019,6.729,6.732S2309.498,619.225,2305.779,619.225z M2305.779,567.225
	c-3.719,0-6.731-3.015-6.731-6.729s3.015-6.732,6.731-6.732c3.716,0,6.729,3.019,6.729,6.732S2309.498,567.225,2305.779,567.225z
	 M2305.779,515.225c-3.719,0-6.731-3.015-6.731-6.729s3.015-6.732,6.731-6.732c3.716,0,6.729,3.019,6.729,6.732
	S2309.498,515.225,2305.779,515.225z M2305.779,463.225c-3.719,0-6.731-3.015-6.731-6.729s3.015-6.732,6.731-6.732
	c3.716,0,6.729,3.019,6.729,6.732S2309.498,463.225,2305.779,463.225z M2305.779,411.225c-3.719,0-6.731-3.015-6.731-6.729
	s3.015-6.732,6.731-6.732c3.716,0,6.729,3.018,6.729,6.732S2309.498,411.225,2305.779,411.225z M2305.779,359.225
	c-3.719,0-6.731-3.014-6.731-6.732c0-3.718,3.015-6.732,6.731-6.732c3.716,0,6.729,3.014,6.729,6.732
	C2312.511,356.211,2309.498,359.225,2305.779,359.225z M2305.779,307.225c-3.719,0-6.731-3.014-6.731-6.732
	c0-3.718,3.015-6.732,6.731-6.732c3.716,0,6.729,3.014,6.729,6.732C2312.511,304.211,2309.498,307.225,2305.779,307.225z
	 M2305.779,255.225c-3.719,0-6.731-3.014-6.731-6.732c0-3.718,3.015-6.732,6.731-6.732c3.716,0,6.729,3.014,6.729,6.732
	C2312.511,252.211,2309.498,255.225,2305.779,255.225z M2305.779,203.225c-3.719,0-6.731-3.014-6.731-6.732
	c0-3.718,3.015-6.732,6.731-6.732c3.716,0,6.729,3.014,6.729,6.732C2312.511,200.211,2309.498,203.225,2305.779,203.225z
	 M2305.779,151.225c-3.719,0-6.731-3.014-6.731-6.732c0-3.718,3.015-6.732,6.731-6.732c3.716,0,6.729,3.014,6.729,6.732
	C2312.511,148.211,2309.498,151.225,2305.779,151.225z M2305.779,99.225c-3.719,0-6.731-3.014-6.731-6.732
	c0-3.718,3.015-6.732,6.731-6.732c3.716,0,6.729,3.014,6.729,6.732C2312.511,96.211,2309.498,99.225,2305.779,99.225z
	 M2362.35,723.225c-3.72,0-6.73-3.015-6.73-6.729s3.015-6.732,6.73-6.732c3.719,0,6.73,3.019,6.73,6.732
	S2366.068,723.225,2362.35,723.225z M2362.35,671.225c-3.72,0-6.73-3.015-6.73-6.729s3.015-6.732,6.73-6.732
	c3.719,0,6.73,3.019,6.73,6.732S2366.068,671.225,2362.35,671.225z M2362.35,619.225c-3.72,0-6.73-3.015-6.73-6.729
	s3.015-6.732,6.73-6.732c3.719,0,6.73,3.019,6.73,6.732S2366.068,619.225,2362.35,619.225z M2362.35,567.225
	c-3.72,0-6.73-3.015-6.73-6.729s3.015-6.732,6.73-6.732c3.719,0,6.73,3.019,6.73,6.732S2366.068,567.225,2362.35,567.225z
	 M2362.35,515.225c-3.72,0-6.73-3.015-6.73-6.729s3.015-6.732,6.73-6.732c3.719,0,6.73,3.019,6.73,6.732
	S2366.068,515.225,2362.35,515.225z M2362.35,463.225c-3.72,0-6.73-3.015-6.73-6.729s3.015-6.732,6.73-6.732
	c3.719,0,6.73,3.019,6.73,6.732S2366.068,463.225,2362.35,463.225z M2362.35,411.225c-3.72,0-6.73-3.015-6.73-6.729
	s3.015-6.732,6.73-6.732c3.719,0,6.73,3.018,6.73,6.732S2366.068,411.225,2362.35,411.225z M2362.35,359.225
	c-3.72,0-6.73-3.014-6.73-6.732c0-3.718,3.015-6.732,6.73-6.732c3.719,0,6.73,3.014,6.73,6.732
	C2369.081,356.211,2366.068,359.225,2362.35,359.225z M2362.35,307.225c-3.72,0-6.73-3.014-6.73-6.732
	c0-3.718,3.015-6.732,6.73-6.732c3.719,0,6.73,3.014,6.73,6.732C2369.081,304.211,2366.068,307.225,2362.35,307.225z
	 M2362.35,255.225c-3.72,0-6.73-3.014-6.73-6.732c0-3.718,3.015-6.732,6.73-6.732c3.719,0,6.73,3.014,6.73,6.732
	C2369.081,252.211,2366.068,255.225,2362.35,255.225z M2362.35,203.225c-3.72,0-6.73-3.014-6.73-6.732
	c0-3.718,3.015-6.732,6.73-6.732c3.719,0,6.73,3.014,6.73,6.732C2369.081,200.211,2366.068,203.225,2362.35,203.225z
	 M2362.35,151.225c-3.72,0-6.73-3.014-6.73-6.732c0-3.718,3.015-6.732,6.73-6.732c3.719,0,6.73,3.014,6.73,6.732
	C2369.081,148.211,2366.068,151.225,2362.35,151.225z M2418.921,775.225c-3.72,0-6.731-3.014-6.731-6.729s3.016-6.732,6.731-6.732
	c3.719,0,6.731,3.018,6.731,6.732S2422.638,775.225,2418.921,775.225z M2418.921,723.225c-3.72,0-6.731-3.015-6.731-6.729
	s3.016-6.732,6.731-6.732c3.719,0,6.731,3.019,6.731,6.732S2422.638,723.225,2418.921,723.225z M2418.921,671.225
	c-3.72,0-6.731-3.015-6.731-6.729s3.016-6.732,6.731-6.732c3.719,0,6.731,3.019,6.731,6.732S2422.638,671.225,2418.921,671.225z
	 M2418.921,619.225c-3.72,0-6.731-3.015-6.731-6.729s3.016-6.732,6.731-6.732c3.719,0,6.731,3.019,6.731,6.732
	S2422.638,619.225,2418.921,619.225z M2418.921,567.225c-3.72,0-6.731-3.015-6.731-6.729s3.016-6.732,6.731-6.732
	c3.719,0,6.731,3.019,6.731,6.732S2422.638,567.225,2418.921,567.225z M2418.921,515.225c-3.72,0-6.731-3.015-6.731-6.729
	s3.016-6.732,6.731-6.732c3.719,0,6.731,3.019,6.731,6.732S2422.638,515.225,2418.921,515.225z M2418.921,463.225
	c-3.72,0-6.731-3.015-6.731-6.729s3.016-6.732,6.731-6.732c3.719,0,6.731,3.019,6.731,6.732S2422.638,463.225,2418.921,463.225z
	 M2418.921,411.225c-3.72,0-6.731-3.015-6.731-6.729s3.016-6.732,6.731-6.732c3.719,0,6.731,3.018,6.731,6.732
	S2422.638,411.225,2418.921,411.225z M2418.921,359.225c-3.72,0-6.731-3.014-6.731-6.732c0-3.718,3.016-6.732,6.731-6.732
	c3.719,0,6.731,3.014,6.731,6.732C2425.652,356.211,2422.638,359.225,2418.921,359.225z M2418.921,307.225
	c-3.72,0-6.731-3.014-6.731-6.732c0-3.718,3.016-6.732,6.731-6.732c3.719,0,6.731,3.014,6.731,6.732
	C2425.652,304.211,2422.638,307.225,2418.921,307.225z M2475.49,775.225c-3.719,0-6.731-3.014-6.731-6.729s3.015-6.732,6.731-6.732
	c3.716,0,6.729,3.018,6.729,6.732S2479.209,775.225,2475.49,775.225z M2475.49,723.225c-3.719,0-6.731-3.015-6.731-6.729
	s3.015-6.732,6.731-6.732c3.716,0,6.729,3.019,6.729,6.732S2479.209,723.225,2475.49,723.225z M2475.49,671.225
	c-3.719,0-6.731-3.015-6.731-6.729s3.015-6.732,6.731-6.732c3.716,0,6.729,3.019,6.729,6.732S2479.209,671.225,2475.49,671.225z
	 M2475.49,619.225c-3.719,0-6.731-3.015-6.731-6.729s3.015-6.732,6.731-6.732c3.716,0,6.729,3.019,6.729,6.732
	S2479.209,619.225,2475.49,619.225z M2475.49,567.225c-3.719,0-6.731-3.015-6.731-6.729s3.015-6.732,6.731-6.732
	c3.716,0,6.729,3.019,6.729,6.732S2479.209,567.225,2475.49,567.225z M2475.49,515.225c-3.719,0-6.731-3.015-6.731-6.729
	s3.015-6.732,6.731-6.732c3.716,0,6.729,3.019,6.729,6.732S2479.209,515.225,2475.49,515.225z M2475.49,463.225
	c-3.719,0-6.731-3.015-6.731-6.729s3.015-6.732,6.731-6.732c3.716,0,6.729,3.019,6.729,6.732S2479.209,463.225,2475.49,463.225z
	 M2475.49,411.225c-3.719,0-6.731-3.015-6.731-6.729s3.015-6.732,6.731-6.732c3.716,0,6.729,3.018,6.729,6.732
	S2479.209,411.225,2475.49,411.225z M2475.49,359.225c-3.719,0-6.731-3.014-6.731-6.732c0-3.718,3.015-6.732,6.731-6.732
	c3.716,0,6.729,3.014,6.729,6.732C2482.222,356.211,2479.209,359.225,2475.49,359.225z M2532.061,775.225
	c-3.72,0-6.73-3.014-6.73-6.729s3.015-6.732,6.73-6.732c3.719,0,6.73,3.018,6.73,6.732S2535.779,775.225,2532.061,775.225z
	 M2532.061,723.225c-3.72,0-6.73-3.015-6.73-6.729s3.015-6.732,6.73-6.732c3.719,0,6.73,3.019,6.73,6.732
	S2535.779,723.225,2532.061,723.225z M2532.061,671.225c-3.72,0-6.73-3.015-6.73-6.729s3.015-6.732,6.73-6.732
	c3.719,0,6.73,3.019,6.73,6.732S2535.779,671.225,2532.061,671.225z M2532.061,619.225c-3.72,0-6.73-3.015-6.73-6.729
	s3.015-6.732,6.73-6.732c3.719,0,6.73,3.019,6.73,6.732S2535.779,619.225,2532.061,619.225z M2532.061,567.225
	c-3.72,0-6.73-3.015-6.73-6.729s3.015-6.732,6.73-6.732c3.719,0,6.73,3.019,6.73,6.732S2535.779,567.225,2532.061,567.225z
	 M2532.061,515.225c-3.72,0-6.73-3.015-6.73-6.729s3.015-6.732,6.73-6.732c3.719,0,6.73,3.019,6.73,6.732
	S2535.779,515.225,2532.061,515.225z M2532.061,463.225c-3.72,0-6.73-3.015-6.73-6.729s3.015-6.732,6.73-6.732
	c3.719,0,6.73,3.019,6.73,6.732S2535.779,463.225,2532.061,463.225z M2532.061,411.225c-3.72,0-6.73-3.015-6.73-6.729
	s3.015-6.732,6.73-6.732c3.719,0,6.73,3.018,6.73,6.732S2535.779,411.225,2532.061,411.225z M2532.061,359.225
	c-3.72,0-6.73-3.014-6.73-6.732c0-3.718,3.015-6.732,6.73-6.732c3.719,0,6.73,3.014,6.73,6.732
	C2538.792,356.211,2535.779,359.225,2532.061,359.225z M2588.632,775.225c-3.72,0-6.729-3.014-6.729-6.729s3.014-6.732,6.729-6.732
	c3.72,0,6.731,3.018,6.731,6.732S2592.35,775.225,2588.632,775.225z M2588.632,723.225c-3.72,0-6.729-3.015-6.729-6.729
	s3.014-6.732,6.729-6.732c3.72,0,6.731,3.019,6.731,6.732S2592.35,723.225,2588.632,723.225z M2588.632,671.225
	c-3.72,0-6.729-3.015-6.729-6.729s3.014-6.732,6.729-6.732c3.72,0,6.731,3.019,6.731,6.732S2592.35,671.225,2588.632,671.225z
	 M2588.632,619.225c-3.72,0-6.729-3.015-6.729-6.729s3.014-6.732,6.729-6.732c3.72,0,6.731,3.019,6.731,6.732
	S2592.35,619.225,2588.632,619.225z M2588.632,567.225c-3.72,0-6.729-3.015-6.729-6.729s3.014-6.732,6.729-6.732
	c3.72,0,6.731,3.019,6.731,6.732S2592.35,567.225,2588.632,567.225z M2588.632,515.225c-3.72,0-6.729-3.015-6.729-6.729
	s3.014-6.732,6.729-6.732c3.72,0,6.731,3.019,6.731,6.732S2592.35,515.225,2588.632,515.225z M2588.632,463.225
	c-3.72,0-6.729-3.015-6.729-6.729s3.014-6.732,6.729-6.732c3.72,0,6.731,3.019,6.731,6.732S2592.35,463.225,2588.632,463.225z
	 M2588.632,411.225c-3.72,0-6.729-3.015-6.729-6.729s3.014-6.732,6.729-6.732c3.72,0,6.731,3.018,6.731,6.732
	S2592.35,411.225,2588.632,411.225z M2645.201,775.225c-3.719,0-6.73-3.014-6.73-6.729s3.014-6.732,6.73-6.732
	c3.718,0,6.73,3.018,6.73,6.732S2648.921,775.225,2645.201,775.225z M2645.201,723.225c-3.719,0-6.73-3.015-6.73-6.729
	s3.014-6.732,6.73-6.732c3.718,0,6.73,3.019,6.73,6.732S2648.921,723.225,2645.201,723.225z M2645.201,671.225
	c-3.719,0-6.73-3.015-6.73-6.729s3.014-6.732,6.73-6.732c3.718,0,6.73,3.019,6.73,6.732S2648.921,671.225,2645.201,671.225z
	 M2645.201,619.225c-3.719,0-6.73-3.015-6.73-6.729s3.014-6.732,6.73-6.732c3.718,0,6.73,3.019,6.73,6.732
	S2648.921,619.225,2645.201,619.225z M2645.201,567.225c-3.719,0-6.73-3.015-6.73-6.729s3.014-6.732,6.73-6.732
	c3.718,0,6.73,3.019,6.73,6.732S2648.921,567.225,2645.201,567.225z M2645.201,515.225c-3.719,0-6.73-3.015-6.73-6.729
	s3.014-6.732,6.73-6.732c3.718,0,6.73,3.019,6.73,6.732S2648.921,515.225,2645.201,515.225z M2645.201,463.225
	c-3.719,0-6.73-3.015-6.73-6.729s3.014-6.732,6.73-6.732c3.718,0,6.73,3.019,6.73,6.732S2648.921,463.225,2645.201,463.225z
	 M2701.771,723.225c-3.722,0-6.732-3.015-6.732-6.729s3.015-6.732,6.732-6.732c3.717,0,6.729,3.019,6.729,6.732
	S2705.49,723.225,2701.771,723.225z M2701.771,671.225c-3.722,0-6.732-3.015-6.732-6.729s3.015-6.732,6.732-6.732
	c3.717,0,6.729,3.019,6.729,6.732S2705.49,671.225,2701.771,671.225z M2701.771,619.225c-3.722,0-6.732-3.015-6.732-6.729
	s3.015-6.732,6.732-6.732c3.717,0,6.729,3.019,6.729,6.732S2705.49,619.225,2701.771,619.225z M2701.771,567.225
	c-3.722,0-6.732-3.015-6.732-6.729s3.015-6.732,6.732-6.732c3.717,0,6.729,3.019,6.729,6.732S2705.49,567.225,2701.771,567.225z
	 M2701.771,515.225c-3.722,0-6.732-3.015-6.732-6.729s3.015-6.732,6.732-6.732c3.717,0,6.729,3.019,6.729,6.732
	S2705.49,515.225,2701.771,515.225z M2701.771,463.225c-3.722,0-6.732-3.015-6.732-6.729s3.015-6.732,6.732-6.732
	c3.717,0,6.729,3.019,6.729,6.732S2705.49,463.225,2701.771,463.225z M2758.341,723.225c-3.719,0-6.729-3.015-6.729-6.729
	s3.014-6.732,6.729-6.732c3.72,0,6.732,3.019,6.732,6.732S2762.061,723.225,2758.341,723.225z M2758.341,671.225
	c-3.719,0-6.729-3.015-6.729-6.729s3.014-6.732,6.729-6.732c3.72,0,6.732,3.019,6.732,6.732S2762.061,671.225,2758.341,671.225z
	 M2758.341,619.225c-3.719,0-6.729-3.015-6.729-6.729s3.014-6.732,6.729-6.732c3.72,0,6.732,3.019,6.732,6.732
	S2762.061,619.225,2758.341,619.225z M2758.341,567.225c-3.719,0-6.729-3.015-6.729-6.729s3.014-6.732,6.729-6.732
	c3.72,0,6.732,3.019,6.732,6.732S2762.061,567.225,2758.341,567.225z M2758.341,515.225c-3.719,0-6.729-3.015-6.729-6.729
	s3.014-6.732,6.729-6.732c3.72,0,6.732,3.019,6.732,6.732S2762.061,515.225,2758.341,515.225z M2814.912,723.225
	c-3.719,0-6.73-3.015-6.73-6.729s3.016-6.732,6.73-6.732c3.718,0,6.732,3.019,6.732,6.732S2818.632,723.225,2814.912,723.225z
	 M2814.912,671.225c-3.719,0-6.73-3.015-6.73-6.729s3.016-6.732,6.73-6.732c3.718,0,6.732,3.019,6.732,6.732
	S2818.632,671.225,2814.912,671.225z M2814.912,619.225c-3.719,0-6.73-3.015-6.73-6.729s3.016-6.732,6.73-6.732
	c3.718,0,6.732,3.019,6.732,6.732S2818.632,619.225,2814.912,619.225z M2814.912,567.225c-3.719,0-6.73-3.015-6.73-6.729
	s3.016-6.732,6.73-6.732c3.718,0,6.732,3.019,6.732,6.732S2818.632,567.225,2814.912,567.225z M2871.482,671.225
	c-3.721,0-6.731-3.015-6.731-6.729s3.015-6.732,6.731-6.732c3.716,0,6.729,3.019,6.729,6.732S2875.201,671.225,2871.482,671.225z
	 M2871.482,619.225c-3.721,0-6.731-3.015-6.731-6.729s3.015-6.732,6.731-6.732c3.716,0,6.729,3.019,6.729,6.732
	S2875.201,619.225,2871.482,619.225z M2871.482,567.225c-3.721,0-6.731-3.015-6.731-6.729s3.015-6.732,6.731-6.732
	c3.716,0,6.729,3.019,6.729,6.732S2875.201,567.225,2871.482,567.225z M2928.052,671.225c-3.72,0-6.729-3.015-6.729-6.729
	s3.014-6.732,6.729-6.732c3.72,0,6.731,3.019,6.731,6.732S2931.771,671.225,2928.052,671.225z M2928.052,619.225
	c-3.72,0-6.729-3.015-6.729-6.729s3.014-6.732,6.729-6.732c3.72,0,6.731,3.019,6.731,6.732S2931.771,619.225,2928.052,619.225z
	 M2984.623,671.225c-3.719,0-6.73-3.015-6.73-6.729s3.016-6.732,6.73-6.732c3.718,0,6.732,3.019,6.732,6.732
	S2988.341,671.225,2984.623,671.225z"/>
</svg>
