<?xml version="1.0" encoding="utf-8"?>
<!-- Generator: Adobe Illustrator 16.0.0, SVG Export Plug-In . SVG Version: 6.00 Build 0)  -->
<!DOCTYPE svg PUBLIC "-//W3C//DTD SVG 1.1//EN" "http://www.w3.org/Graphics/SVG/1.1/DTD/svg11.dtd">
<svg version="1.1" id="Layer_1" xmlns="http://www.w3.org/2000/svg" xmlns:xlink="http://www.w3.org/1999/xlink" x="0px" y="0px"
	 width="2007.834px" height="443.777px" viewBox="0 0 2007.834 443.777" enable-background="new 0 0 2007.834 443.777"
	 xml:space="preserve">
<path fill="none" stroke="#000000" stroke-linejoin="round" stroke-miterlimit="10" d="M1799.753,57.347
	c-33.625-0.604-286.977,26.807-312.621,28.971c-25.641,2.164-168.104,7.304-192.254,6.758c-24.149-0.544-34.985-6.516-62.73-39.469
	c-27.742-32.951-46.691-33.074-70.132-35.4c-23.438-2.324-139.28-18.373-161.649-18.205C978,0.168,954.913,2.116,930.632,10.192
	c-24.283,8.074-297.625,105.714-373.412,134.817C344.599,226.654,71.108,341.85,71.108,341.85
	C-1.09,373.77-35.682,438.244,52.23,443.32c87.912,5.078,297.121-33.41,414.136-53.701
	c117.015-20.291,396.221-43.855,422.758-50.264c26.538-6.406,119.755-37.188,130.445-33.922
	c10.688,3.264,53.006,85.092,81.465,101.436s83.274,24.215,83.274,24.215s-3.63-8.141,7.839-15.135
	c11.461-6.992,602.863-251.457,617.036-256.957c14.173-5.501,103.39-50.047,116.69-65.805
	c13.303-15.756,20.346-24.099,20.346-24.099S1833.376,57.953,1799.753,57.347z"/>
</svg>
