<?xml version="1.0" encoding="utf-8"?>
<!-- Generator: Adobe Illustrator 16.0.0, SVG Export Plug-In . SVG Version: 6.00 Build 0)  -->
<!DOCTYPE svg PUBLIC "-//W3C//DTD SVG 1.1//EN" "http://www.w3.org/Graphics/SVG/1.1/DTD/svg11.dtd">
<svg version="1.1" id="Layer_1" xmlns="http://www.w3.org/2000/svg" xmlns:xlink="http://www.w3.org/1999/xlink" x="0px" y="0px"
	 width="553.883px" height="1113.936px" viewBox="0 0 553.883 1113.936" enable-background="new 0 0 553.883 1113.936"
	 xml:space="preserve">
<path fill="none" stroke="#000000" stroke-linejoin="round" stroke-miterlimit="10" d="M493.875,1056.801
	c2.435,1.393,5.354,3.308,4.426,6.546c-4.241,5.326-6.774,12.071-6.774,19.408c0,17.221,13.96,31.181,31.181,31.181
	s31.181-13.959,31.181-31.181c0-17.221-13.96-31.181-31.181-31.181c-1.766,0-3.496,0.146-5.182,0.429
	c-4.147-0.933-4.698-4.63-4.942-8.285c0.038-2.642-0.229-5.735-0.843-9.34c-5.807-34.074-68.076-369.266-94.646-539.961
	c-26.566-170.695-43.225-397.482-51.629-413.782c-8.4-16.302-21.656-115.343-78.777-67.872
	C229.558,60.234,49.439,165.232,36.153,168.256c-13.286,3.024-37.578,7.519-36.088,55.859
	c1.489,48.343,15.928,249.291,40.356,366.751c24.429,117.463,51.06,242.098,63.46,260.354c12.401,18.256,21.544,49.396,54.895,66.09
	c33.35,16.697,312.697,132.412,312.697,132.412c7.453,2.559,15.457,5.677,22.404,7.079H493.875L493.875,1056.801z"/>
</svg>
