<?xml version="1.0" encoding="utf-8"?>
<!-- Generator: Adobe Illustrator 16.0.0, SVG Export Plug-In . SVG Version: 6.00 Build 0)  -->
<!DOCTYPE svg PUBLIC "-//W3C//DTD SVG 1.1//EN" "http://www.w3.org/Graphics/SVG/1.1/DTD/svg11.dtd">
<svg version="1.1" id="Layer_1" xmlns="http://www.w3.org/2000/svg" xmlns:xlink="http://www.w3.org/1999/xlink" x="0px" y="0px"
	 width="560.672px" height="973.075px" viewBox="0 0 560.672 973.075" enable-background="new 0 0 560.672 973.075"
	 xml:space="preserve">
<path fill="none" stroke="#000000" stroke-miterlimit="10" d="M540.58,186.499c-6.64-0.742-15.02-0.667-19.096-0.69
	c-76.641-0.431-140.578,0.248-214.879,0.332c-3.654,0.004-10.841-1.223-10.118-9.111c0.722-7.888,4.102-151.253,4.886-159.121
	c0.782-7.866-10.996-9.585-10.996-9.585L199.697,0c0,0-9.211,0.648-9.946,8.666c-0.736,8.018-19.387,211.161-19.387,211.161
	c-3.655,5.914-12.972,96.413-13.776,103.515c-9.153,80.821-19.918,161.442-31.94,241.902
	c-15.888,99.443-61.76,362.729-64.913,379.379c-5.318,28.084,15.399,28.345,15.399,28.345s168.979-65.948,259.909-108.517
	c79.36-37.152,135.117-66.527,145.95-146.664l14.87-68.284c2.055-7.483,7.762-37.076,8.867-45.229c0,0,40.054-217.427,47.433-331.25
	c1.063-16.398,3.695-54.974,0.451-74.399C551.955,194.673,545.15,187.011,540.58,186.499z M547.21,94.289L436.694,29.861
	L330.044,10.207c0,0-10.262-3.183-11.039,8.953c-0.779,12.135-5.165,136.438-5.165,136.438l-0.239,6.284
	c0,0-2.316,5.785,8.468,7.774c10.783,1.99,203.851,1.375,221.561,1.496c17.709,0.12,17.04-14.381,17.04-14.381
	s-2.345-33.781-3.132-45.086C556.755,100.379,547.21,94.289,547.21,94.289z"/>
</svg>
