<?xml version="1.0" encoding="utf-8"?>
<!-- Generator: Adobe Illustrator 16.0.0, SVG Export Plug-In . SVG Version: 6.00 Build 0)  -->
<!DOCTYPE svg PUBLIC "-//W3C//DTD SVG 1.1//EN" "http://www.w3.org/Graphics/SVG/1.1/DTD/svg11.dtd">
<svg version="1.1" id="Layer_1" xmlns="http://www.w3.org/2000/svg" xmlns:xlink="http://www.w3.org/1999/xlink" x="0px" y="0px"
	 width="1400.832px" height="607.775px" viewBox="0 0 1400.832 607.775" enable-background="new 0 0 1400.832 607.775"
	 xml:space="preserve">
<path d="M6.144,501.722c11.841-17.102,225.58-420.929,337.21-474.417c111.627-53.488,199.996-32.559,365.111,100
	c165.116,132.558,623.258,81.395,653.487,79.069c30.232-2.326,65.117,13.954,9.304,32.558
	c-55.812,18.605-269.769,86.047-313.953,153.487c-44.187,67.443,27.905,81.396,39.535,88.373
	c11.627,6.977-2.326,18.604-48.839,25.582c-46.512,6.977-862.79,97.674-911.625,100c-48.838,2.324-62.791,4.65-88.373-18.604
	C22.424,564.513-14.787,531.956,6.144,501.722z"/>
</svg>
