<?xml version="1.0" encoding="utf-8"?>
<!-- Generator: Adobe Illustrator 16.0.0, SVG Export Plug-In . SVG Version: 6.00 Build 0)  -->
<!DOCTYPE svg PUBLIC "-//W3C//DTD SVG 1.1//EN" "http://www.w3.org/Graphics/SVG/1.1/DTD/svg11.dtd">
<svg version="1.1" id="Layer_1" xmlns="http://www.w3.org/2000/svg" xmlns:xlink="http://www.w3.org/1999/xlink" x="0px" y="0px"
	 width="1477.348px" height="863.516px" viewBox="0 0 1477.348 863.516" enable-background="new 0 0 1477.348 863.516"
	 xml:space="preserve">
<path fill="none" stroke="#000000" stroke-linejoin="round" stroke-miterlimit="10" d="M170.074,367.662
	c3.718,0,6.732,3.014,6.732,6.732c0,3.718-3.014,6.732-6.732,6.732c-3.718,0-6.732-3.014-6.732-6.732
	C163.342,370.676,166.356,367.662,170.074,367.662z M170.074,315.662c3.718,0,6.732,3.014,6.732,6.732
	c0,3.718-3.014,6.732-6.732,6.732c-3.718,0-6.732-3.014-6.732-6.732C163.342,318.676,166.356,315.662,170.074,315.662z
	 M226.644,367.662c3.718,0,6.732,3.014,6.732,6.732c0,3.718-3.014,6.732-6.732,6.732c-3.718,0-6.732-3.014-6.732-6.732
	C219.912,370.676,222.926,367.662,226.644,367.662z M226.644,315.662c3.718,0,6.732,3.014,6.732,6.732
	c0,3.718-3.014,6.732-6.732,6.732c-3.718,0-6.732-3.014-6.732-6.732C219.912,318.676,222.926,315.662,226.644,315.662z
	 M283.214,419.666c3.717,0,6.73,3.013,6.73,6.73c0,3.717-3.013,6.729-6.73,6.729s-6.73-3.013-6.73-6.729
	C276.484,422.679,279.497,419.666,283.214,419.666z M283.214,367.662c3.718,0,6.732,3.014,6.732,6.732
	c0,3.718-3.014,6.732-6.732,6.732c-3.718,0-6.732-3.014-6.732-6.732C276.482,370.676,279.496,367.662,283.214,367.662z
	 M283.214,315.662c3.718,0,6.732,3.014,6.732,6.732c0,3.718-3.014,6.732-6.732,6.732c-3.718,0-6.732-3.014-6.732-6.732
	C276.482,318.676,279.496,315.662,283.214,315.662z M283.214,263.662c3.718,0,6.732,3.014,6.732,6.732
	c0,3.718-3.014,6.732-6.732,6.732c-3.718,0-6.732-3.014-6.732-6.732C276.482,266.676,279.496,263.662,283.214,263.662z
	 M339.785,433.126c-3.719,0-6.732-3.014-6.732-6.731c0-3.719,3.019-6.729,6.732-6.729s6.729,3.014,6.729,6.729
	C346.517,430.112,343.503,433.126,339.785,433.126z M339.785,381.126c-3.719,0-6.732-3.014-6.732-6.732
	c0-3.718,3.019-6.732,6.732-6.732s6.729,3.014,6.729,6.732C346.517,378.112,343.503,381.126,339.785,381.126z M339.785,329.126
	c-3.719,0-6.732-3.014-6.732-6.732c0-3.718,3.019-6.732,6.732-6.732s6.729,3.014,6.729,6.732
	C346.517,326.112,343.503,329.126,339.785,329.126z M339.785,277.126c-3.719,0-6.732-3.014-6.732-6.732
	c0-3.718,3.019-6.732,6.732-6.732s6.729,3.014,6.729,6.732C346.517,274.112,343.503,277.126,339.785,277.126z M396.355,485.126
	c-3.724,0-6.732-3.014-6.732-6.731c0-3.719,3.014-6.729,6.732-6.729c3.718,0,6.729,3.014,6.729,6.729
	C403.087,482.112,400.074,485.126,396.355,485.126z M396.355,433.126c-3.724,0-6.732-3.014-6.732-6.731
	c0-3.719,3.014-6.729,6.732-6.729c3.718,0,6.729,3.014,6.729,6.729C403.087,430.112,400.074,433.126,396.355,433.126z
	 M396.355,381.126c-3.724,0-6.732-3.014-6.732-6.732c0-3.718,3.014-6.732,6.732-6.732c3.718,0,6.729,3.014,6.729,6.732
	C403.087,378.112,400.074,381.126,396.355,381.126z M396.355,329.126c-3.724,0-6.732-3.014-6.732-6.732
	c0-3.718,3.014-6.732,6.732-6.732c3.718,0,6.729,3.014,6.729,6.732C403.087,326.112,400.074,329.126,396.355,329.126z
	 M396.355,277.126c-3.724,0-6.732-3.014-6.732-6.732c0-3.718,3.014-6.732,6.732-6.732c3.718,0,6.729,3.014,6.729,6.732
	C403.087,274.112,400.074,277.126,396.355,277.126z M396.355,225.126c-3.724,0-6.732-3.014-6.732-6.732
	c0-3.718,3.014-6.732,6.732-6.732c3.718,0,6.729,3.014,6.729,6.732C403.087,222.112,400.074,225.126,396.355,225.126z
	 M452.925,575.666c3.717,0,6.73,3.013,6.73,6.73c0,3.717-3.014,6.729-6.73,6.729s-6.729-3.013-6.729-6.729
	C446.195,578.679,449.208,575.666,452.925,575.666z M452.925,523.666c3.717,0,6.73,3.013,6.73,6.73c0,3.717-3.014,6.729-6.73,6.729
	s-6.729-3.013-6.729-6.729C446.195,526.679,449.208,523.666,452.925,523.666z M452.925,471.666c3.717,0,6.73,3.013,6.73,6.73
	c0,3.717-3.014,6.729-6.73,6.729s-6.729-3.013-6.729-6.729C446.195,474.679,449.208,471.666,452.925,471.666z M452.925,419.666
	c3.717,0,6.73,3.013,6.73,6.73c0,3.717-3.014,6.729-6.73,6.729s-6.729-3.013-6.729-6.729
	C446.195,422.679,449.208,419.666,452.925,419.666z M452.925,367.662c3.718,0,6.732,3.014,6.732,6.732
	c0,3.718-3.015,6.732-6.732,6.732s-6.731-3.014-6.731-6.732C446.193,370.676,449.207,367.662,452.925,367.662z M452.925,315.662
	c3.718,0,6.732,3.014,6.732,6.732c0,3.718-3.015,6.732-6.732,6.732s-6.731-3.014-6.731-6.732
	C446.193,318.676,449.207,315.662,452.925,315.662z M452.925,263.662c3.718,0,6.732,3.014,6.732,6.732
	c0,3.718-3.015,6.732-6.732,6.732s-6.731-3.014-6.731-6.732C446.193,266.676,449.207,263.662,452.925,263.662z M452.925,211.662
	c3.718,0,6.732,3.014,6.732,6.732c0,3.718-3.015,6.732-6.732,6.732s-6.731-3.014-6.731-6.732
	C446.193,214.676,449.207,211.662,452.925,211.662z M509.496,641.126c-3.719,0-6.732-3.014-6.732-6.732
	c0-3.718,3.019-6.729,6.732-6.729s6.732,3.014,6.732,6.729C516.229,638.112,513.214,641.126,509.496,641.126z M509.496,589.126
	c-3.719,0-6.732-3.014-6.732-6.732c0-3.718,3.019-6.729,6.732-6.729s6.732,3.014,6.732,6.729
	C516.229,586.112,513.214,589.126,509.496,589.126z M509.496,537.126c-3.719,0-6.732-3.014-6.732-6.732
	c0-3.718,3.019-6.729,6.732-6.729s6.732,3.014,6.732,6.729C516.229,534.112,513.214,537.126,509.496,537.126z M509.496,485.126
	c-3.719,0-6.732-3.014-6.732-6.731c0-3.719,3.019-6.729,6.732-6.729s6.732,3.014,6.732,6.729
	C516.229,482.112,513.214,485.126,509.496,485.126z M509.496,433.126c-3.719,0-6.732-3.014-6.732-6.731
	c0-3.719,3.019-6.729,6.732-6.729s6.732,3.014,6.732,6.729C516.229,430.112,513.214,433.126,509.496,433.126z M509.496,381.126
	c-3.719,0-6.732-3.014-6.732-6.732c0-3.718,3.019-6.732,6.732-6.732s6.732,3.014,6.732,6.732
	C516.229,378.112,513.214,381.126,509.496,381.126z M509.496,329.126c-3.719,0-6.732-3.014-6.732-6.732
	c0-3.718,3.019-6.732,6.732-6.732s6.732,3.014,6.732,6.732C516.229,326.112,513.214,329.126,509.496,329.126z M509.496,277.126
	c-3.719,0-6.732-3.014-6.732-6.732c0-3.718,3.019-6.732,6.732-6.732s6.732,3.014,6.732,6.732
	C516.229,274.112,513.214,277.126,509.496,277.126z M509.496,225.126c-3.719,0-6.732-3.014-6.732-6.732
	c0-3.718,3.019-6.732,6.732-6.732s6.732,3.014,6.732,6.732C516.229,222.112,513.214,225.126,509.496,225.126z M509.496,173.126
	c-3.719,0-6.732-3.014-6.732-6.732c0-3.718,3.019-6.732,6.732-6.732s6.732,3.014,6.732,6.732
	C516.229,170.112,513.214,173.126,509.496,173.126z M566.066,641.126c-3.724,0-6.732-3.014-6.732-6.732
	c0-3.718,3.014-6.729,6.732-6.729c3.718,0,6.729,3.014,6.729,6.729C572.798,638.112,569.785,641.126,566.066,641.126z
	 M566.066,589.126c-3.724,0-6.732-3.014-6.732-6.732c0-3.718,3.014-6.729,6.732-6.729c3.718,0,6.729,3.014,6.729,6.729
	C572.798,586.112,569.785,589.126,566.066,589.126z M566.066,537.126c-3.724,0-6.732-3.014-6.732-6.732
	c0-3.718,3.014-6.729,6.732-6.729c3.718,0,6.729,3.014,6.729,6.729C572.798,534.112,569.785,537.126,566.066,537.126z
	 M566.066,485.126c-3.724,0-6.732-3.014-6.732-6.731c0-3.719,3.014-6.729,6.732-6.729c3.718,0,6.729,3.014,6.729,6.729
	C572.798,482.112,569.785,485.126,566.066,485.126z M566.066,433.126c-3.724,0-6.732-3.014-6.732-6.731
	c0-3.719,3.014-6.729,6.732-6.729c3.718,0,6.729,3.014,6.729,6.729C572.798,430.112,569.785,433.126,566.066,433.126z
	 M566.066,381.126c-3.724,0-6.732-3.014-6.732-6.732c0-3.718,3.014-6.732,6.732-6.732c3.718,0,6.729,3.014,6.729,6.732
	C572.798,378.112,569.785,381.126,566.066,381.126z M566.066,329.126c-3.724,0-6.732-3.014-6.732-6.732
	c0-3.718,3.014-6.732,6.732-6.732c3.718,0,6.729,3.014,6.729,6.732C572.798,326.112,569.785,329.126,566.066,329.126z
	 M566.066,277.126c-3.724,0-6.732-3.014-6.732-6.732c0-3.718,3.014-6.732,6.732-6.732c3.718,0,6.729,3.014,6.729,6.732
	C572.798,274.112,569.785,277.126,566.066,277.126z M566.066,225.126c-3.724,0-6.732-3.014-6.732-6.732
	c0-3.718,3.014-6.732,6.732-6.732c3.718,0,6.729,3.014,6.729,6.732C572.798,222.112,569.785,225.126,566.066,225.126z
	 M566.066,173.126c-3.724,0-6.732-3.014-6.732-6.732c0-3.718,3.014-6.732,6.732-6.732c3.718,0,6.729,3.014,6.729,6.732
	C572.798,170.112,569.785,173.126,566.066,173.126z M622.636,627.666c3.717,0,6.73,3.013,6.73,6.73c0,3.717-3.014,6.729-6.73,6.729
	s-6.729-3.013-6.729-6.729C615.906,630.679,618.919,627.666,622.636,627.666z M622.636,575.666c3.717,0,6.73,3.013,6.73,6.73
	c0,3.717-3.014,6.729-6.73,6.729s-6.729-3.013-6.729-6.729C615.906,578.679,618.919,575.666,622.636,575.666z M622.636,523.666
	c3.717,0,6.73,3.013,6.73,6.73c0,3.717-3.014,6.729-6.73,6.729s-6.729-3.013-6.729-6.729
	C615.906,526.679,618.919,523.666,622.636,523.666z M622.636,471.666c3.717,0,6.73,3.013,6.73,6.73c0,3.717-3.014,6.729-6.73,6.729
	s-6.729-3.013-6.729-6.729C615.906,474.679,618.919,471.666,622.636,471.666z M622.636,419.666c3.717,0,6.73,3.013,6.73,6.73
	c0,3.717-3.014,6.729-6.73,6.729s-6.729-3.013-6.729-6.729C615.906,422.679,618.919,419.666,622.636,419.666z M622.636,367.662
	c3.718,0,6.732,3.014,6.732,6.732c0,3.718-3.015,6.732-6.732,6.732s-6.731-3.014-6.731-6.732
	C615.904,370.676,618.918,367.662,622.636,367.662z M622.636,315.662c3.718,0,6.732,3.014,6.732,6.732
	c0,3.718-3.015,6.732-6.732,6.732s-6.731-3.014-6.731-6.732C615.904,318.676,618.918,315.662,622.636,315.662z M622.636,263.662
	c3.718,0,6.732,3.014,6.732,6.732c0,3.718-3.015,6.732-6.732,6.732s-6.731-3.014-6.731-6.732
	C615.904,266.676,618.918,263.662,622.636,263.662z M622.636,211.662c3.718,0,6.732,3.014,6.732,6.732
	c0,3.718-3.015,6.732-6.732,6.732s-6.731-3.014-6.731-6.732C615.904,214.676,618.918,211.662,622.636,211.662z M622.636,159.662
	c3.718,0,6.732,3.014,6.732,6.732c0,3.718-3.015,6.732-6.732,6.732s-6.731-3.014-6.731-6.732
	C615.904,162.676,618.918,159.662,622.636,159.662z M622.636,107.662c3.718,0,6.732,3.014,6.732,6.732
	c0,3.718-3.015,6.732-6.732,6.732s-6.731-3.014-6.731-6.732C615.904,110.676,618.918,107.662,622.636,107.662z M679.207,693.126
	c-3.719,0-6.732-3.014-6.732-6.732c0-3.718,3.019-6.729,6.732-6.729s6.732,3.014,6.732,6.729
	C685.939,690.112,682.925,693.126,679.207,693.126z M679.207,641.126c-3.719,0-6.732-3.014-6.732-6.732
	c0-3.718,3.019-6.729,6.732-6.729s6.732,3.014,6.732,6.729C685.939,638.112,682.925,641.126,679.207,641.126z M679.207,589.126
	c-3.719,0-6.732-3.014-6.732-6.732c0-3.718,3.019-6.729,6.732-6.729s6.732,3.014,6.732,6.729
	C685.939,586.112,682.925,589.126,679.207,589.126z M679.207,537.126c-3.719,0-6.732-3.014-6.732-6.732
	c0-3.718,3.019-6.729,6.732-6.729s6.732,3.014,6.732,6.729C685.939,534.112,682.925,537.126,679.207,537.126z M679.207,485.126
	c-3.719,0-6.732-3.014-6.732-6.731c0-3.719,3.019-6.729,6.732-6.729s6.732,3.014,6.732,6.729
	C685.939,482.112,682.925,485.126,679.207,485.126z M679.207,433.126c-3.719,0-6.732-3.014-6.732-6.731
	c0-3.719,3.019-6.729,6.732-6.729s6.732,3.014,6.732,6.729C685.939,430.112,682.925,433.126,679.207,433.126z M679.207,381.126
	c-3.719,0-6.732-3.014-6.732-6.732c0-3.718,3.019-6.732,6.732-6.732s6.732,3.014,6.732,6.732
	C685.939,378.112,682.925,381.126,679.207,381.126z M679.207,329.126c-3.719,0-6.732-3.014-6.732-6.732
	c0-3.718,3.019-6.732,6.732-6.732s6.732,3.014,6.732,6.732C685.939,326.112,682.925,329.126,679.207,329.126z M679.207,277.126
	c-3.719,0-6.732-3.014-6.732-6.732c0-3.718,3.019-6.732,6.732-6.732s6.732,3.014,6.732,6.732
	C685.939,274.112,682.925,277.126,679.207,277.126z M679.207,225.126c-3.719,0-6.732-3.014-6.732-6.732
	c0-3.718,3.019-6.732,6.732-6.732s6.732,3.014,6.732,6.732C685.939,222.112,682.925,225.126,679.207,225.126z M679.207,173.126
	c-3.719,0-6.732-3.014-6.732-6.732c0-3.718,3.019-6.732,6.732-6.732s6.732,3.014,6.732,6.732
	C685.939,170.112,682.925,173.126,679.207,173.126z M679.207,121.126c-3.719,0-6.732-3.014-6.732-6.732
	c0-3.718,3.019-6.732,6.732-6.732s6.732,3.014,6.732,6.732C685.939,118.112,682.925,121.126,679.207,121.126z M735.777,693.126
	c-3.724,0-6.732-3.014-6.732-6.732c0-3.718,3.014-6.729,6.732-6.729c3.718,0,6.729,3.014,6.729,6.729
	C742.509,690.112,739.496,693.126,735.777,693.126z M735.777,641.126c-3.724,0-6.732-3.014-6.732-6.732
	c0-3.718,3.014-6.729,6.732-6.729c3.718,0,6.729,3.014,6.729,6.729C742.509,638.112,739.496,641.126,735.777,641.126z
	 M735.777,589.126c-3.724,0-6.732-3.014-6.732-6.732c0-3.718,3.014-6.729,6.732-6.729c3.718,0,6.729,3.014,6.729,6.729
	C742.509,586.112,739.496,589.126,735.777,589.126z M735.777,537.126c-3.724,0-6.732-3.014-6.732-6.732
	c0-3.718,3.014-6.729,6.732-6.729c3.718,0,6.729,3.014,6.729,6.729C742.509,534.112,739.496,537.126,735.777,537.126z
	 M735.777,485.126c-3.724,0-6.732-3.014-6.732-6.731c0-3.719,3.014-6.729,6.732-6.729c3.718,0,6.729,3.014,6.729,6.729
	C742.509,482.112,739.496,485.126,735.777,485.126z M735.777,433.126c-3.724,0-6.732-3.014-6.732-6.731
	c0-3.719,3.014-6.729,6.732-6.729c3.718,0,6.729,3.014,6.729,6.729C742.509,430.112,739.496,433.126,735.777,433.126z
	 M735.777,381.126c-3.724,0-6.732-3.014-6.732-6.732c0-3.718,3.014-6.732,6.732-6.732c3.718,0,6.729,3.014,6.729,6.732
	C742.509,378.112,739.496,381.126,735.777,381.126z M735.777,329.126c-3.724,0-6.732-3.014-6.732-6.732
	c0-3.718,3.014-6.732,6.732-6.732c3.718,0,6.729,3.014,6.729,6.732C742.509,326.112,739.496,329.126,735.777,329.126z
	 M735.777,277.126c-3.724,0-6.732-3.014-6.732-6.732c0-3.718,3.014-6.732,6.732-6.732c3.718,0,6.729,3.014,6.729,6.732
	C742.509,274.112,739.496,277.126,735.777,277.126z M735.777,225.126c-3.724,0-6.732-3.014-6.732-6.732
	c0-3.718,3.014-6.732,6.732-6.732c3.718,0,6.729,3.014,6.729,6.732C742.509,222.112,739.496,225.126,735.777,225.126z
	 M735.777,173.126c-3.724,0-6.732-3.014-6.732-6.732c0-3.718,3.014-6.732,6.732-6.732c3.718,0,6.729,3.014,6.729,6.732
	C742.509,170.112,739.496,173.126,735.777,173.126z M735.777,121.126c-3.724,0-6.732-3.014-6.732-6.732
	c0-3.718,3.014-6.732,6.732-6.732c3.718,0,6.729,3.014,6.729,6.732C742.509,118.112,739.496,121.126,735.777,121.126z
	 M735.777,69.126c-3.724,0-6.732-3.014-6.732-6.732c0-3.718,3.014-6.732,6.732-6.732c3.718,0,6.729,3.014,6.729,6.732
	C742.509,66.112,739.496,69.126,735.777,69.126z M792.348,745.126c-3.719,0-6.729-3.014-6.729-6.732
	c0-3.718,3.014-6.729,6.729-6.729c3.723,0,6.732,3.014,6.732,6.729C799.08,742.112,796.066,745.126,792.348,745.126z
	 M792.348,693.126c-3.719,0-6.729-3.014-6.729-6.732c0-3.718,3.014-6.729,6.729-6.729c3.723,0,6.732,3.014,6.732,6.729
	C799.08,690.112,796.066,693.126,792.348,693.126z M792.348,641.126c-3.719,0-6.729-3.014-6.729-6.732
	c0-3.718,3.014-6.729,6.729-6.729c3.723,0,6.732,3.014,6.732,6.729C799.08,638.112,796.066,641.126,792.348,641.126z
	 M792.348,589.126c-3.719,0-6.729-3.014-6.729-6.732c0-3.718,3.014-6.729,6.729-6.729c3.723,0,6.732,3.014,6.732,6.729
	C799.08,586.112,796.066,589.126,792.348,589.126z M792.348,537.126c-3.719,0-6.729-3.014-6.729-6.732
	c0-3.718,3.014-6.729,6.729-6.729c3.723,0,6.732,3.014,6.732,6.729C799.08,534.112,796.066,537.126,792.348,537.126z
	 M792.348,485.126c-3.719,0-6.729-3.014-6.729-6.731c0-3.719,3.014-6.729,6.729-6.729c3.723,0,6.732,3.014,6.732,6.729
	C799.08,482.112,796.066,485.126,792.348,485.126z M792.348,433.126c-3.719,0-6.729-3.014-6.729-6.731
	c0-3.719,3.014-6.729,6.729-6.729c3.723,0,6.732,3.014,6.732,6.729C799.08,430.112,796.066,433.126,792.348,433.126z
	 M792.348,381.126c-3.719,0-6.729-3.014-6.729-6.732c0-3.718,3.014-6.732,6.729-6.732c3.723,0,6.732,3.014,6.732,6.732
	C799.08,378.112,796.066,381.126,792.348,381.126z M792.348,329.126c-3.719,0-6.729-3.014-6.729-6.732
	c0-3.718,3.014-6.732,6.729-6.732c3.723,0,6.732,3.014,6.732,6.732C799.08,326.112,796.066,329.126,792.348,329.126z
	 M792.348,277.126c-3.719,0-6.729-3.014-6.729-6.732c0-3.718,3.014-6.732,6.729-6.732c3.723,0,6.732,3.014,6.732,6.732
	C799.08,274.112,796.066,277.126,792.348,277.126z M792.348,225.126c-3.719,0-6.729-3.014-6.729-6.732
	c0-3.718,3.014-6.732,6.729-6.732c3.723,0,6.732,3.014,6.732,6.732C799.08,222.112,796.066,225.126,792.348,225.126z
	 M792.348,173.126c-3.719,0-6.729-3.014-6.729-6.732c0-3.718,3.014-6.732,6.729-6.732c3.723,0,6.732,3.014,6.732,6.732
	C799.08,170.112,796.066,173.126,792.348,173.126z M792.348,121.126c-3.719,0-6.729-3.014-6.729-6.732
	c0-3.718,3.014-6.732,6.729-6.732c3.723,0,6.732,3.014,6.732,6.732C799.08,118.112,796.066,121.126,792.348,121.126z
	 M792.348,69.126c-3.719,0-6.729-3.014-6.729-6.732c0-3.718,3.014-6.732,6.729-6.732c3.723,0,6.732,3.014,6.732,6.732
	C799.08,66.112,796.066,69.126,792.348,69.126z M848.918,745.126c-3.719,0-6.732-3.014-6.732-6.732c0-3.718,3.019-6.729,6.732-6.729
	s6.732,3.014,6.732,6.729C855.65,742.112,852.637,745.126,848.918,745.126z M848.918,693.126c-3.719,0-6.732-3.014-6.732-6.732
	c0-3.718,3.019-6.729,6.732-6.729s6.732,3.014,6.732,6.729C855.65,690.112,852.637,693.126,848.918,693.126z M848.918,641.126
	c-3.719,0-6.732-3.014-6.732-6.732c0-3.718,3.019-6.729,6.732-6.729s6.732,3.014,6.732,6.729
	C855.65,638.112,852.637,641.126,848.918,641.126z M848.918,589.126c-3.719,0-6.732-3.014-6.732-6.732
	c0-3.718,3.019-6.729,6.732-6.729s6.732,3.014,6.732,6.729C855.65,586.112,852.637,589.126,848.918,589.126z M848.918,537.126
	c-3.719,0-6.732-3.014-6.732-6.732c0-3.718,3.019-6.729,6.732-6.729s6.732,3.014,6.732,6.729
	C855.65,534.112,852.637,537.126,848.918,537.126z M848.918,485.126c-3.719,0-6.732-3.014-6.732-6.731
	c0-3.719,3.019-6.729,6.732-6.729s6.732,3.014,6.732,6.729C855.65,482.112,852.637,485.126,848.918,485.126z M848.918,433.126
	c-3.719,0-6.732-3.014-6.732-6.731c0-3.719,3.019-6.729,6.732-6.729s6.732,3.014,6.732,6.729
	C855.65,430.112,852.637,433.126,848.918,433.126z M848.918,381.126c-3.719,0-6.732-3.014-6.732-6.732
	c0-3.718,3.019-6.732,6.732-6.732s6.732,3.014,6.732,6.732C855.65,378.112,852.637,381.126,848.918,381.126z M848.918,329.126
	c-3.719,0-6.732-3.014-6.732-6.732c0-3.718,3.019-6.732,6.732-6.732s6.732,3.014,6.732,6.732
	C855.65,326.112,852.637,329.126,848.918,329.126z M848.918,277.126c-3.719,0-6.732-3.014-6.732-6.732
	c0-3.718,3.019-6.732,6.732-6.732s6.732,3.014,6.732,6.732C855.65,274.112,852.637,277.126,848.918,277.126z M848.918,225.126
	c-3.719,0-6.732-3.014-6.732-6.732c0-3.718,3.019-6.732,6.732-6.732s6.732,3.014,6.732,6.732
	C855.65,222.112,852.637,225.126,848.918,225.126z M848.918,173.126c-3.719,0-6.732-3.014-6.732-6.732
	c0-3.718,3.019-6.732,6.732-6.732s6.732,3.014,6.732,6.732C855.65,170.112,852.637,173.126,848.918,173.126z M848.918,121.126
	c-3.719,0-6.732-3.014-6.732-6.732c0-3.718,3.019-6.732,6.732-6.732s6.732,3.014,6.732,6.732
	C855.65,118.112,852.637,121.126,848.918,121.126z M848.918,69.126c-3.719,0-6.732-3.014-6.732-6.732
	c0-3.718,3.019-6.732,6.732-6.732s6.732,3.014,6.732,6.732C855.65,66.112,852.637,69.126,848.918,69.126z M905.488,797.126
	c-3.724,0-6.732-3.014-6.732-6.732c0-3.718,3.014-6.729,6.732-6.729c3.718,0,6.729,3.014,6.729,6.729
	C912.22,794.112,909.207,797.126,905.488,797.126z M905.488,745.126c-3.724,0-6.732-3.014-6.732-6.732
	c0-3.718,3.014-6.729,6.732-6.729c3.718,0,6.729,3.014,6.729,6.729C912.22,742.112,909.207,745.126,905.488,745.126z
	 M905.488,693.126c-3.724,0-6.732-3.014-6.732-6.732c0-3.718,3.014-6.729,6.732-6.729c3.718,0,6.729,3.014,6.729,6.729
	C912.22,690.112,909.207,693.126,905.488,693.126z M905.488,641.126c-3.724,0-6.732-3.014-6.732-6.732
	c0-3.718,3.014-6.729,6.732-6.729c3.718,0,6.729,3.014,6.729,6.729C912.22,638.112,909.207,641.126,905.488,641.126z
	 M905.488,589.126c-3.724,0-6.732-3.014-6.732-6.732c0-3.718,3.014-6.729,6.732-6.729c3.718,0,6.729,3.014,6.729,6.729
	C912.22,586.112,909.207,589.126,905.488,589.126z M905.488,537.126c-3.724,0-6.732-3.014-6.732-6.732
	c0-3.718,3.014-6.729,6.732-6.729c3.718,0,6.729,3.014,6.729,6.729C912.22,534.112,909.207,537.126,905.488,537.126z
	 M905.488,485.126c-3.724,0-6.732-3.014-6.732-6.731c0-3.719,3.014-6.729,6.732-6.729c3.718,0,6.729,3.014,6.729,6.729
	C912.22,482.112,909.207,485.126,905.488,485.126z M905.488,433.126c-3.724,0-6.732-3.014-6.732-6.731
	c0-3.719,3.014-6.729,6.732-6.729c3.718,0,6.729,3.014,6.729,6.729C912.22,430.112,909.207,433.126,905.488,433.126z
	 M905.488,381.126c-3.724,0-6.732-3.014-6.732-6.732c0-3.718,3.014-6.732,6.732-6.732c3.718,0,6.729,3.014,6.729,6.732
	C912.22,378.112,909.207,381.126,905.488,381.126z M905.488,329.126c-3.724,0-6.732-3.014-6.732-6.732
	c0-3.718,3.014-6.732,6.732-6.732c3.718,0,6.729,3.014,6.729,6.732C912.22,326.112,909.207,329.126,905.488,329.126z
	 M905.488,277.126c-3.724,0-6.732-3.014-6.732-6.732c0-3.718,3.014-6.732,6.732-6.732c3.718,0,6.729,3.014,6.729,6.732
	C912.22,274.112,909.207,277.126,905.488,277.126z M905.488,225.126c-3.724,0-6.732-3.014-6.732-6.732
	c0-3.718,3.014-6.732,6.732-6.732c3.718,0,6.729,3.014,6.729,6.732C912.22,222.112,909.207,225.126,905.488,225.126z
	 M905.488,173.126c-3.724,0-6.732-3.014-6.732-6.732c0-3.718,3.014-6.732,6.732-6.732c3.718,0,6.729,3.014,6.729,6.732
	C912.22,170.112,909.207,173.126,905.488,173.126z M905.488,121.126c-3.724,0-6.732-3.014-6.732-6.732
	c0-3.718,3.014-6.732,6.732-6.732c3.718,0,6.729,3.014,6.729,6.732C912.22,118.112,909.207,121.126,905.488,121.126z
	 M962.059,797.126c-3.719,0-6.729-3.014-6.729-6.732c0-3.718,3.014-6.729,6.729-6.729c3.723,0,6.732,3.014,6.732,6.729
	C968.791,794.112,965.777,797.126,962.059,797.126z M962.059,745.126c-3.719,0-6.729-3.014-6.729-6.732
	c0-3.718,3.014-6.729,6.729-6.729c3.723,0,6.732,3.014,6.732,6.729C968.791,742.112,965.777,745.126,962.059,745.126z
	 M962.059,693.126c-3.719,0-6.729-3.014-6.729-6.732c0-3.718,3.014-6.729,6.729-6.729c3.723,0,6.732,3.014,6.732,6.729
	C968.791,690.112,965.777,693.126,962.059,693.126z M962.059,641.126c-3.719,0-6.729-3.014-6.729-6.732
	c0-3.718,3.014-6.729,6.729-6.729c3.723,0,6.732,3.014,6.732,6.729C968.791,638.112,965.777,641.126,962.059,641.126z
	 M962.059,589.126c-3.719,0-6.729-3.014-6.729-6.732c0-3.718,3.014-6.729,6.729-6.729c3.723,0,6.732,3.014,6.732,6.729
	C968.791,586.112,965.777,589.126,962.059,589.126z M962.059,537.126c-3.719,0-6.729-3.014-6.729-6.732
	c0-3.718,3.014-6.729,6.729-6.729c3.723,0,6.732,3.014,6.732,6.729C968.791,534.112,965.777,537.126,962.059,537.126z
	 M962.059,485.126c-3.719,0-6.729-3.014-6.729-6.731c0-3.719,3.014-6.729,6.729-6.729c3.723,0,6.732,3.014,6.732,6.729
	C968.791,482.112,965.777,485.126,962.059,485.126z M962.059,433.126c-3.719,0-6.729-3.014-6.729-6.731
	c0-3.719,3.014-6.729,6.729-6.729c3.723,0,6.732,3.014,6.732,6.729C968.791,430.112,965.777,433.126,962.059,433.126z
	 M962.059,381.126c-3.719,0-6.729-3.014-6.729-6.732c0-3.718,3.014-6.732,6.729-6.732c3.723,0,6.732,3.014,6.732,6.732
	C968.791,378.112,965.777,381.126,962.059,381.126z M962.059,329.126c-3.719,0-6.729-3.014-6.729-6.732
	c0-3.718,3.014-6.732,6.729-6.732c3.723,0,6.732,3.014,6.732,6.732C968.791,326.112,965.777,329.126,962.059,329.126z
	 M962.059,277.126c-3.719,0-6.729-3.014-6.729-6.732c0-3.718,3.014-6.732,6.729-6.732c3.723,0,6.732,3.014,6.732,6.732
	C968.791,274.112,965.777,277.126,962.059,277.126z M962.059,225.126c-3.719,0-6.729-3.014-6.729-6.732
	c0-3.718,3.014-6.732,6.729-6.732c3.723,0,6.732,3.014,6.732,6.732C968.791,222.112,965.777,225.126,962.059,225.126z
	 M1018.629,783.666c3.717,0,6.73,3.013,6.73,6.73c0,3.717-3.014,6.729-6.73,6.729s-6.729-3.013-6.729-6.729
	C1011.899,786.679,1014.912,783.666,1018.629,783.666z M1018.629,731.666c3.717,0,6.73,3.013,6.73,6.73
	c0,3.717-3.014,6.729-6.73,6.729s-6.729-3.013-6.729-6.729C1011.899,734.679,1014.912,731.666,1018.629,731.666z M1018.629,679.666
	c3.717,0,6.73,3.013,6.73,6.73c0,3.717-3.014,6.729-6.73,6.729s-6.729-3.013-6.729-6.729
	C1011.899,682.679,1014.912,679.666,1018.629,679.666z M1018.629,627.666c3.717,0,6.73,3.013,6.73,6.73
	c0,3.717-3.014,6.729-6.73,6.729s-6.729-3.013-6.729-6.729C1011.899,630.679,1014.912,627.666,1018.629,627.666z M1018.629,575.666
	c3.717,0,6.73,3.013,6.73,6.73c0,3.717-3.014,6.729-6.73,6.729s-6.729-3.013-6.729-6.729
	C1011.899,578.679,1014.912,575.666,1018.629,575.666z M1018.629,523.666c3.717,0,6.73,3.013,6.73,6.73
	c0,3.717-3.014,6.729-6.73,6.729s-6.729-3.013-6.729-6.729C1011.899,526.679,1014.912,523.666,1018.629,523.666z M1018.629,471.666
	c3.717,0,6.73,3.013,6.73,6.73c0,3.717-3.014,6.729-6.73,6.729s-6.729-3.013-6.729-6.729
	C1011.899,474.679,1014.912,471.666,1018.629,471.666z M1018.629,419.666c3.717,0,6.73,3.013,6.73,6.73
	c0,3.717-3.014,6.729-6.73,6.729s-6.729-3.013-6.729-6.729C1011.899,422.679,1014.912,419.666,1018.629,419.666z M1018.629,367.662
	c3.718,0,6.732,3.014,6.732,6.732c0,3.718-3.015,6.732-6.732,6.732s-6.732-3.014-6.732-6.732
	C1011.896,370.676,1014.911,367.662,1018.629,367.662z M1018.629,315.662c3.718,0,6.732,3.014,6.732,6.732
	c0,3.718-3.015,6.732-6.732,6.732s-6.732-3.014-6.732-6.732C1011.896,318.676,1014.911,315.662,1018.629,315.662z M1018.629,263.662
	c3.718,0,6.732,3.014,6.732,6.732c0,3.718-3.015,6.732-6.732,6.732s-6.732-3.014-6.732-6.732
	C1011.896,266.676,1014.911,263.662,1018.629,263.662z M1075.199,797.126c-3.719,0-6.732-3.014-6.732-6.732
	c0-3.718,3.014-6.729,6.732-6.729c3.718,0,6.729,3.014,6.729,6.729C1081.931,794.112,1078.918,797.126,1075.199,797.126z
	 M1075.199,745.126c-3.719,0-6.732-3.014-6.732-6.732c0-3.718,3.014-6.729,6.732-6.729c3.718,0,6.729,3.014,6.729,6.729
	C1081.931,742.112,1078.918,745.126,1075.199,745.126z M1075.199,693.126c-3.719,0-6.732-3.014-6.732-6.732
	c0-3.718,3.014-6.729,6.732-6.729c3.718,0,6.729,3.014,6.729,6.729C1081.931,690.112,1078.918,693.126,1075.199,693.126z
	 M1075.199,641.126c-3.719,0-6.732-3.014-6.732-6.732c0-3.718,3.014-6.729,6.732-6.729c3.718,0,6.729,3.014,6.729,6.729
	C1081.931,638.112,1078.918,641.126,1075.199,641.126z M1075.199,589.126c-3.719,0-6.732-3.014-6.732-6.732
	c0-3.718,3.014-6.729,6.732-6.729c3.718,0,6.729,3.014,6.729,6.729C1081.931,586.112,1078.918,589.126,1075.199,589.126z
	 M1075.199,537.126c-3.719,0-6.732-3.014-6.732-6.732c0-3.718,3.014-6.729,6.732-6.729c3.718,0,6.729,3.014,6.729,6.729
	C1081.931,534.112,1078.918,537.126,1075.199,537.126z M1075.199,485.126c-3.719,0-6.732-3.014-6.732-6.731
	c0-3.719,3.014-6.729,6.732-6.729c3.718,0,6.729,3.014,6.729,6.729C1081.931,482.112,1078.918,485.126,1075.199,485.126z
	 M1075.199,433.126c-3.719,0-6.732-3.014-6.732-6.731c0-3.719,3.014-6.729,6.732-6.729c3.718,0,6.729,3.014,6.729,6.729
	C1081.931,430.112,1078.918,433.126,1075.199,433.126z M1075.199,381.126c-3.719,0-6.732-3.014-6.732-6.732
	c0-3.718,3.014-6.732,6.732-6.732c3.718,0,6.729,3.014,6.729,6.732C1081.931,378.112,1078.918,381.126,1075.199,381.126z
	 M1075.199,329.126c-3.719,0-6.732-3.014-6.732-6.732c0-3.718,3.014-6.732,6.732-6.732c3.718,0,6.729,3.014,6.729,6.732
	C1081.931,326.112,1078.918,329.126,1075.199,329.126z M1131.77,745.126c-3.719,0-6.729-3.014-6.729-6.732
	c0-3.718,3.014-6.729,6.729-6.729c3.723,0,6.732,3.014,6.732,6.729C1138.502,742.112,1135.488,745.126,1131.77,745.126z
	 M1131.77,693.126c-3.719,0-6.729-3.014-6.729-6.732c0-3.718,3.014-6.729,6.729-6.729c3.723,0,6.732,3.014,6.732,6.729
	C1138.502,690.112,1135.488,693.126,1131.77,693.126z M1131.77,641.126c-3.719,0-6.729-3.014-6.729-6.732
	c0-3.718,3.014-6.729,6.729-6.729c3.723,0,6.732,3.014,6.732,6.729C1138.502,638.112,1135.488,641.126,1131.77,641.126z
	 M1131.77,589.126c-3.719,0-6.729-3.014-6.729-6.732c0-3.718,3.014-6.729,6.729-6.729c3.723,0,6.732,3.014,6.732,6.729
	C1138.502,586.112,1135.488,589.126,1131.77,589.126z M1131.77,537.126c-3.719,0-6.729-3.014-6.729-6.732
	c0-3.718,3.014-6.729,6.729-6.729c3.723,0,6.732,3.014,6.732,6.729C1138.502,534.112,1135.488,537.126,1131.77,537.126z
	 M1131.77,485.126c-3.719,0-6.729-3.014-6.729-6.731c0-3.719,3.014-6.729,6.729-6.729c3.723,0,6.732,3.014,6.732,6.729
	C1138.502,482.112,1135.488,485.126,1131.77,485.126z M1131.77,433.126c-3.719,0-6.729-3.014-6.729-6.731
	c0-3.719,3.014-6.729,6.729-6.729c3.723,0,6.732,3.014,6.732,6.729C1138.502,430.112,1135.488,433.126,1131.77,433.126z
	 M1188.34,745.126c-3.719,0-6.732-3.014-6.732-6.732c0-3.718,3.019-6.729,6.732-6.729s6.732,3.014,6.732,6.729
	C1195.072,742.112,1192.059,745.126,1188.34,745.126z M1188.34,693.126c-3.719,0-6.732-3.014-6.732-6.732
	c0-3.718,3.019-6.729,6.732-6.729s6.732,3.014,6.732,6.729C1195.072,690.112,1192.059,693.126,1188.34,693.126z M1188.34,641.126
	c-3.719,0-6.732-3.014-6.732-6.732c0-3.718,3.019-6.729,6.732-6.729s6.732,3.014,6.732,6.729
	C1195.072,638.112,1192.059,641.126,1188.34,641.126z M1188.34,589.126c-3.719,0-6.732-3.014-6.732-6.732
	c0-3.718,3.019-6.729,6.732-6.729s6.732,3.014,6.732,6.729C1195.072,586.112,1192.059,589.126,1188.34,589.126z M1188.34,537.126
	c-3.719,0-6.732-3.014-6.732-6.732c0-3.718,3.019-6.729,6.732-6.729s6.732,3.014,6.732,6.729
	C1195.072,534.112,1192.059,537.126,1188.34,537.126z M1188.34,485.126c-3.719,0-6.732-3.014-6.732-6.731
	c0-3.719,3.019-6.729,6.732-6.729s6.732,3.014,6.732,6.729C1195.072,482.112,1192.059,485.126,1188.34,485.126z M1244.91,745.126
	c-3.719,0-6.732-3.014-6.732-6.732c0-3.718,3.019-6.729,6.732-6.729s6.732,3.014,6.732,6.729
	C1251.643,742.112,1248.629,745.126,1244.91,745.126z M1244.91,693.126c-3.719,0-6.732-3.014-6.732-6.732
	c0-3.718,3.019-6.729,6.732-6.729s6.732,3.014,6.732,6.729C1251.643,690.112,1248.629,693.126,1244.91,693.126z M1244.91,641.126
	c-3.719,0-6.732-3.014-6.732-6.732c0-3.718,3.019-6.729,6.732-6.729s6.732,3.014,6.732,6.729
	C1251.643,638.112,1248.629,641.126,1244.91,641.126z M1244.91,589.126c-3.719,0-6.732-3.014-6.732-6.732
	c0-3.718,3.019-6.729,6.732-6.729s6.732,3.014,6.732,6.729C1251.643,586.112,1248.629,589.126,1244.91,589.126z M1244.91,537.126
	c-3.719,0-6.732-3.014-6.732-6.732c0-3.718,3.019-6.729,6.732-6.729s6.732,3.014,6.732,6.729
	C1251.643,534.112,1248.629,537.126,1244.91,537.126z M1301.48,693.126c-3.724,0-6.732-3.014-6.732-6.732
	c0-3.718,3.014-6.729,6.732-6.729c3.718,0,6.729,3.014,6.729,6.729C1308.212,690.112,1305.199,693.126,1301.48,693.126z
	 M1301.48,641.126c-3.724,0-6.732-3.014-6.732-6.732c0-3.718,3.014-6.729,6.732-6.729c3.718,0,6.729,3.014,6.729,6.729
	C1308.212,638.112,1305.199,641.126,1301.48,641.126z M1301.48,589.126c-3.724,0-6.732-3.014-6.732-6.732
	c0-3.718,3.014-6.729,6.732-6.729c3.718,0,6.729,3.014,6.729,6.729C1308.212,586.112,1305.199,589.126,1301.48,589.126z
	 M1358.051,679.666c3.717,0,6.73,3.013,6.73,6.73c0,3.717-3.014,6.729-6.73,6.729s-6.729-3.013-6.729-6.729
	C1351.321,682.679,1354.334,679.666,1358.051,679.666z M1358.051,627.666c3.717,0,6.73,3.013,6.73,6.73
	c0,3.717-3.014,6.729-6.73,6.729s-6.729-3.013-6.729-6.729C1351.321,630.679,1354.334,627.666,1358.051,627.666z M1417.264,667.993
	c-3.585-3.722-7.457-2.069-11.367,0c-10.364,13.337-27.465,33.847-39.795,41.079c-18.862,11.058-27.905,16.129-58.737,28.201
	c-30.834,12.067-314.938,123.854-314.938,123.854c-5.053,1.286-14.166,5.5-30.271-1.749
	c-16.107-7.25-352.384-176.863-436.529-194.72c-84.152-17.861-100.815-21.618-145.679-12.666
	c-44.87,8.956-67.792,22.938-74.645,13.187c-6.85-9.753,5.372-28.002,39.19-55.813c30.741-25.284,50.805-50.772,28.479-80.739
	c-22.329-29.967-43.719-38.493-58.26-47.595c-13.987-8.756-132.739-80.228-145.759-84.976
	c-36.423-13.281-151.549-31.107-157.604-31.458c-6.055-0.35-19.792-10.385-4.068-17.735
	c15.723-7.351,340.91-142.402,374.161-156.401C414.691,176.465,632.574,86.877,652.584,78.05
	c26.547-11.712,76.381-43.666,85.213-51.095C751.453,15.471,761.359,0,761.359,0s59.854,13.684,100.317,36.297
	c36.126,20.193,58.607,41.54,62.605,48.089c3.996,6.549,61.151,102.442,86.19,133.901c22.688,28.506,336.4,364.655,395.088,427.504
	v-0.002c3.859,1.682,8.102,3.614,11.34-0.305c4.389-11.904,15.836-20.395,29.265-20.395c17.221,0,31.181,13.96,31.181,31.182
	s-13.96,31.182-31.181,31.182c-13.073,0-24.267-8.045-28.9-19.455L1417.264,667.993z"/>
</svg>
