<?xml version="1.0" encoding="utf-8"?>
<!-- Generator: Adobe Illustrator 16.0.0, SVG Export Plug-In . SVG Version: 6.00 Build 0)  -->
<!DOCTYPE svg PUBLIC "-//W3C//DTD SVG 1.1//EN" "http://www.w3.org/Graphics/SVG/1.1/DTD/svg11.dtd">
<svg version="1.1" id="Layer_1" xmlns="http://www.w3.org/2000/svg" xmlns:xlink="http://www.w3.org/1999/xlink" x="0px" y="0px"
	 width="3413.578px" height="1140.875px" viewBox="0 0 3413.578 1140.875" enable-background="new 0 0 3413.578 1140.875"
	 xml:space="preserve">
<path d="M3342.456,341.634c72.205,31.904,106.812,96.371,18.898,101.468c-87.914,5.1-297.134-33.345-414.146-53.605
	c-117.021-20.264-396.231-43.768-422.771-50.166c-26.541-6.399-119.764-37.159-130.453-33.895
	c-10.688,3.268-52.983,85.105-81.438,101.457c-28.455,16.353-83.271,24.234-83.271,24.234s3.625-8.143-7.841-15.133
	c-11.463-6.99-602.924-251.321-617.096-256.818c-14.174-5.497-103.397-50.023-116.707-65.777
	c-13.309-15.753-20.354-24.094-20.354-24.094s112.85-11.162,146.473-11.773c33.622-0.613,286.979,26.739,312.625,28.898
	c25.646,2.157,168.106,7.264,192.259,6.714c24.146-0.55,34.98-6.524,62.723-39.483s46.688-33.085,70.127-35.416
	c23.438-2.33,139.277-18.404,161.646-18.242c22.36,0.16,45.448,2.104,69.731,10.174c24.285,8.07,297.647,105.646,373.44,134.731
	C3068.937,226.504,3342.456,341.634,3342.456,341.634z M1194.988,943.499c-9.897-5.137-320.153-126.504-340.604-136.271
	c-30.619-14.634-63.705-61.312-63.705-61.312s-61.125,92.125-110.354,104.338c-49.232,12.211-185.482-15.613-239.819-34.822
	c-54.336-19.205-114.151-44.897-177.261-51.936C202.427,756.717,38.516,743.719,9.446,751.6c-16.266,4.41-7.288,25.211-4.021,37.537
	c3.267,12.326,5.325,18.525,25.338,26.234c20.012,7.711,166.177,101.793,195.933,126.678
	c29.755,24.885,88.873,120.246,103.808,147.328c14.938,27.084,28.883,45.475,37.07,50.467c8.188,4.992,82.545-9.686,96.462-10.815
	c31.206-2.539,278.891-10.099,349.845-14.451c70.952-4.357,85.275-10.898,126.322-28.105
	c30.436-12.756,246.57-116.973,256.765-125.586C1207.161,952.271,1204.885,948.635,1194.988,943.499z M910.172,973.934
	l-12.591,0.229c-10.767,0.188-19.688-10.588-19.93-24.072l-0.803-44.846c-0.234-13.486,8.3-24.574,19.063-24.771l12.587-0.223
	c10.771-0.191,19.695,10.586,19.938,24.072l0.799,44.846C929.475,962.657,920.941,973.747,910.172,973.934z M2206.138,422.783
	c-15.726-7.348-340.94-142.323-374.196-156.314c-33.257-13.99-251.157-103.528-271.168-112.352
	c-26.552-11.705-76.395-43.648-85.227-51.074c-13.655-11.482-23.564-26.949-23.564-26.949s-59.854,13.696-100.312,36.318
	c-36.123,20.198-58.598,41.553-62.593,48.104c-3.995,6.55-61.133,102.457-86.163,133.922
	c-25.028,31.465-404.41,437.684-404.41,437.684s30.027,42.127,48.896,53.184c18.867,11.062,27.909,16.123,58.746,28.189
	c30.834,12.062,314.963,123.785,314.963,123.785c5.058,1.285,14.171,5.496,30.271-1.756
	c16.105-7.257,352.347-176.939,436.484-194.818c84.146-17.883,100.805-21.643,145.676-12.701
	c44.869,8.941,67.797,22.924,74.646,13.17c6.844-9.754-5.38-28.002-39.205-55.811c-30.742-25.275-50.818-50.76-28.496-80.732
	c22.319-29.971,43.709-38.502,58.25-47.604c13.979-8.757,132.721-80.252,145.737-85.003
	c36.423-13.292,151.541-31.146,157.599-31.497C2208.13,440.168,2221.863,430.129,2206.138,422.783z M849.003,717.217
	c-3.719,0-6.729-3.014-6.729-6.729s3.016-6.732,6.729-6.732c3.719,0,6.731,3.021,6.731,6.732
	C855.734,714.204,852.719,717.217,849.003,717.217z M905.572,769.217c-3.721,0-6.731-3.014-6.731-6.729s3.016-6.732,6.731-6.732
	s6.729,3.021,6.729,6.732C912.302,766.204,909.292,769.217,905.572,769.217z M905.572,717.217c-3.721,0-6.731-3.014-6.731-6.729
	s3.016-6.732,6.731-6.732s6.729,3.021,6.729,6.732C912.302,714.204,909.292,717.217,905.572,717.217z M905.572,665.217
	c-3.721,0-6.731-3.014-6.731-6.729s3.016-6.732,6.731-6.732s6.729,3.021,6.729,6.732
	C912.302,662.204,909.292,665.217,905.572,665.217z M962.142,821.217c-3.721,0-6.73-3.014-6.73-6.729s3.015-6.732,6.73-6.732
	c3.72,0,6.729,3.021,6.729,6.732C968.873,818.204,965.861,821.217,962.142,821.217z M962.142,769.217
	c-3.721,0-6.73-3.014-6.73-6.729s3.015-6.732,6.73-6.732c3.72,0,6.729,3.021,6.729,6.732
	C968.873,766.204,965.861,769.217,962.142,769.217z M962.142,717.217c-3.721,0-6.73-3.014-6.73-6.729s3.015-6.732,6.73-6.732
	c3.72,0,6.729,3.021,6.729,6.732C968.873,714.204,965.861,717.217,962.142,717.217z M962.142,665.217
	c-3.721,0-6.73-3.014-6.73-6.729s3.015-6.732,6.73-6.732c3.72,0,6.729,3.021,6.729,6.732
	C968.873,662.204,965.861,665.217,962.142,665.217z M962.142,613.217c-3.721,0-6.73-3.014-6.73-6.729s3.015-6.732,6.73-6.732
	c3.72,0,6.729,3.021,6.729,6.732C968.873,610.204,965.861,613.217,962.142,613.217z M1018.713,821.217
	c-3.72,0-6.729-3.014-6.729-6.729s3.015-6.732,6.729-6.732c3.714,0,6.731,3.021,6.731,6.732
	C1025.444,818.204,1022.43,821.217,1018.713,821.217z M1018.713,769.217c-3.72,0-6.729-3.014-6.729-6.729s3.015-6.732,6.729-6.732
	c3.714,0,6.731,3.021,6.731,6.732C1025.444,766.204,1022.43,769.217,1018.713,769.217z M1018.713,717.217
	c-3.72,0-6.729-3.014-6.729-6.729s3.015-6.732,6.729-6.732c3.714,0,6.731,3.021,6.731,6.732
	C1025.444,714.204,1022.43,717.217,1018.713,717.217z M1018.713,665.217c-3.72,0-6.729-3.014-6.729-6.729s3.015-6.732,6.729-6.732
	c3.714,0,6.731,3.021,6.731,6.732C1025.444,662.204,1022.43,665.217,1018.713,665.217z M1018.713,613.217
	c-3.72,0-6.729-3.014-6.729-6.729s3.015-6.732,6.729-6.732c3.714,0,6.731,3.021,6.731,6.732
	C1025.444,610.204,1022.43,613.217,1018.713,613.217z M1018.713,561.218c-3.72,0-6.729-3.015-6.729-6.729s3.015-6.732,6.729-6.732
	c3.714,0,6.731,3.02,6.731,6.732S1022.43,561.218,1018.713,561.218z M1075.283,821.217c-3.72,0-6.731-3.014-6.731-6.729
	s3.017-6.732,6.731-6.732c3.716,0,6.729,3.021,6.729,6.732C1082.012,818.204,1079.003,821.217,1075.283,821.217z M1075.283,769.217
	c-3.72,0-6.731-3.014-6.731-6.729s3.017-6.732,6.731-6.732c3.716,0,6.729,3.021,6.729,6.732
	C1082.012,766.204,1079.003,769.217,1075.283,769.217z M1075.283,717.217c-3.72,0-6.731-3.014-6.731-6.729s3.017-6.732,6.731-6.732
	c3.716,0,6.729,3.021,6.729,6.732C1082.012,714.204,1079.003,717.217,1075.283,717.217z M1075.283,665.217
	c-3.72,0-6.731-3.014-6.731-6.729s3.017-6.732,6.731-6.732c3.716,0,6.729,3.021,6.729,6.732
	C1082.012,662.204,1079.003,665.217,1075.283,665.217z M1075.283,613.217c-3.72,0-6.731-3.014-6.731-6.729s3.017-6.732,6.731-6.732
	c3.716,0,6.729,3.021,6.729,6.732C1082.012,610.204,1079.003,613.217,1075.283,613.217z M1075.283,561.218
	c-3.72,0-6.731-3.015-6.731-6.729s3.017-6.732,6.731-6.732c3.716,0,6.729,3.02,6.729,6.732S1079.003,561.218,1075.283,561.218z
	 M1075.283,509.218c-3.72,0-6.731-3.014-6.731-6.729s3.017-6.732,6.731-6.732c3.716,0,6.729,3.019,6.729,6.732
	S1079.003,509.218,1075.283,509.218z M1131.854,873.217c-3.722,0-6.73-3.014-6.73-6.729s3.015-6.732,6.73-6.732
	c3.719,0,6.729,3.021,6.729,6.732C1138.585,870.204,1135.572,873.217,1131.854,873.217z M1131.854,821.217
	c-3.722,0-6.73-3.014-6.73-6.729s3.015-6.732,6.73-6.732c3.719,0,6.729,3.021,6.729,6.732
	C1138.585,818.204,1135.572,821.217,1131.854,821.217z M1131.854,769.217c-3.722,0-6.73-3.014-6.73-6.729s3.015-6.732,6.73-6.732
	c3.719,0,6.729,3.021,6.729,6.732C1138.585,766.204,1135.572,769.217,1131.854,769.217z M1131.854,717.217
	c-3.722,0-6.73-3.014-6.73-6.729s3.015-6.732,6.73-6.732c3.719,0,6.729,3.021,6.729,6.732
	C1138.585,714.204,1135.572,717.217,1131.854,717.217z M1131.854,665.217c-3.722,0-6.73-3.014-6.73-6.729s3.015-6.732,6.73-6.732
	c3.719,0,6.729,3.021,6.729,6.732C1138.585,662.204,1135.572,665.217,1131.854,665.217z M1131.854,613.217
	c-3.722,0-6.73-3.014-6.73-6.729s3.015-6.732,6.73-6.732c3.719,0,6.729,3.021,6.729,6.732
	C1138.585,610.204,1135.572,613.217,1131.854,613.217z M1131.854,561.218c-3.722,0-6.73-3.015-6.73-6.729s3.015-6.732,6.73-6.732
	c3.719,0,6.729,3.02,6.729,6.732S1135.572,561.218,1131.854,561.218z M1131.854,509.218c-3.722,0-6.73-3.014-6.73-6.729
	s3.015-6.732,6.73-6.732c3.719,0,6.729,3.019,6.729,6.732S1135.572,509.218,1131.854,509.218z M1131.854,457.218
	c-3.722,0-6.73-3.014-6.73-6.729s3.015-6.732,6.73-6.732c3.719,0,6.729,3.019,6.729,6.732S1135.572,457.218,1131.854,457.218z
	 M1188.424,873.217c-3.72,0-6.729-3.014-6.729-6.729s3.014-6.732,6.729-6.732c3.715,0,6.731,3.021,6.731,6.732
	C1195.155,870.204,1192.142,873.217,1188.424,873.217z M1188.424,821.217c-3.72,0-6.729-3.014-6.729-6.729s3.014-6.732,6.729-6.732
	c3.715,0,6.731,3.021,6.731,6.732C1195.155,818.204,1192.142,821.217,1188.424,821.217z M1188.424,769.217
	c-3.72,0-6.729-3.014-6.729-6.729s3.014-6.732,6.729-6.732c3.715,0,6.731,3.021,6.731,6.732
	C1195.155,766.204,1192.142,769.217,1188.424,769.217z M1188.424,717.217c-3.72,0-6.729-3.014-6.729-6.729s3.014-6.732,6.729-6.732
	c3.715,0,6.731,3.021,6.731,6.732C1195.155,714.204,1192.142,717.217,1188.424,717.217z M1188.424,665.217
	c-3.72,0-6.729-3.014-6.729-6.729s3.014-6.732,6.729-6.732c3.715,0,6.731,3.021,6.731,6.732
	C1195.155,662.204,1192.142,665.217,1188.424,665.217z M1188.424,613.217c-3.72,0-6.729-3.014-6.729-6.729s3.014-6.732,6.729-6.732
	c3.715,0,6.731,3.021,6.731,6.732C1195.155,610.204,1192.142,613.217,1188.424,613.217z M1188.424,561.218
	c-3.72,0-6.729-3.015-6.729-6.729s3.014-6.732,6.729-6.732c3.715,0,6.731,3.02,6.731,6.732S1192.142,561.218,1188.424,561.218z
	 M1188.424,509.218c-3.72,0-6.729-3.014-6.729-6.729s3.014-6.732,6.729-6.732c3.715,0,6.731,3.019,6.731,6.732
	S1192.142,509.218,1188.424,509.218z M1188.424,457.218c-3.72,0-6.729-3.014-6.729-6.729s3.014-6.732,6.729-6.732
	c3.715,0,6.731,3.019,6.731,6.732S1192.142,457.218,1188.424,457.218z M1188.424,405.219c-3.72,0-6.729-3.014-6.729-6.73
	c0-3.718,3.014-6.732,6.729-6.732c3.715,0,6.731,3.014,6.731,6.732C1195.156,402.206,1192.142,405.219,1188.424,405.219z
	 M1188.424,353.22c-3.72,0-6.729-3.014-6.729-6.732c0-3.718,3.014-6.732,6.729-6.732c3.715,0,6.731,3.014,6.731,6.732
	C1195.156,350.206,1192.142,353.22,1188.424,353.22z M1244.994,873.217c-3.719,0-6.731-3.014-6.731-6.729s3.018-6.732,6.731-6.732
	c3.715,0,6.729,3.021,6.729,6.732C1251.723,870.204,1248.713,873.217,1244.994,873.217z M1244.994,821.217
	c-3.719,0-6.731-3.014-6.731-6.729s3.018-6.732,6.731-6.732c3.715,0,6.729,3.021,6.729,6.732
	C1251.723,818.204,1248.713,821.217,1244.994,821.217z M1244.994,769.217c-3.719,0-6.731-3.014-6.731-6.729s3.018-6.732,6.731-6.732
	c3.715,0,6.729,3.021,6.729,6.732C1251.723,766.204,1248.713,769.217,1244.994,769.217z M1244.994,717.217
	c-3.719,0-6.731-3.014-6.731-6.729s3.018-6.732,6.731-6.732c3.715,0,6.729,3.021,6.729,6.732
	C1251.723,714.204,1248.713,717.217,1244.994,717.217z M1244.994,665.217c-3.719,0-6.731-3.014-6.731-6.729s3.018-6.732,6.731-6.732
	c3.715,0,6.729,3.021,6.729,6.732C1251.723,662.204,1248.713,665.217,1244.994,665.217z M1244.994,613.217
	c-3.719,0-6.731-3.014-6.731-6.729s3.018-6.732,6.731-6.732c3.715,0,6.729,3.021,6.729,6.732
	C1251.723,610.204,1248.713,613.217,1244.994,613.217z M1244.994,561.218c-3.719,0-6.731-3.015-6.731-6.729s3.018-6.732,6.731-6.732
	c3.715,0,6.729,3.02,6.729,6.732S1248.713,561.218,1244.994,561.218z M1244.994,509.218c-3.719,0-6.731-3.014-6.731-6.729
	s3.018-6.732,6.731-6.732c3.715,0,6.729,3.019,6.729,6.732S1248.713,509.218,1244.994,509.218z M1244.994,457.218
	c-3.719,0-6.731-3.014-6.731-6.729s3.018-6.732,6.731-6.732c3.715,0,6.729,3.019,6.729,6.732S1248.713,457.218,1244.994,457.218z
	 M1244.994,405.219c-3.719,0-6.731-3.014-6.731-6.73c0-3.718,3.018-6.732,6.731-6.732c3.715,0,6.729,3.014,6.729,6.732
	C1251.725,402.206,1248.713,405.219,1244.994,405.219z M1244.994,353.22c-3.719,0-6.731-3.014-6.731-6.732
	c0-3.718,3.018-6.732,6.731-6.732c3.715,0,6.729,3.014,6.729,6.732C1251.725,350.206,1248.713,353.22,1244.994,353.22z
	 M1244.994,301.22c-3.719,0-6.731-3.014-6.731-6.731c0-3.718,3.018-6.732,6.731-6.732c3.715,0,6.729,3.014,6.729,6.732
	C1251.725,298.206,1248.713,301.22,1244.994,301.22z M1301.563,873.217c-3.722,0-6.73-3.014-6.73-6.729s3.015-6.732,6.73-6.732
	c3.719,0,6.729,3.021,6.729,6.732C1308.294,870.204,1305.283,873.217,1301.563,873.217z M1301.563,821.217
	c-3.722,0-6.73-3.014-6.73-6.729s3.015-6.732,6.73-6.732c3.719,0,6.729,3.021,6.729,6.732
	C1308.294,818.204,1305.283,821.217,1301.563,821.217z M1301.563,769.217c-3.722,0-6.73-3.014-6.73-6.729s3.015-6.732,6.73-6.732
	c3.719,0,6.729,3.021,6.729,6.732C1308.294,766.204,1305.283,769.217,1301.563,769.217z M1301.563,717.217
	c-3.722,0-6.73-3.014-6.73-6.729s3.015-6.732,6.73-6.732c3.719,0,6.729,3.021,6.729,6.732
	C1308.294,714.204,1305.283,717.217,1301.563,717.217z M1301.563,665.217c-3.722,0-6.73-3.014-6.73-6.729s3.015-6.732,6.73-6.732
	c3.719,0,6.729,3.021,6.729,6.732C1308.294,662.204,1305.283,665.217,1301.563,665.217z M1301.563,613.217
	c-3.722,0-6.73-3.014-6.73-6.729s3.015-6.732,6.73-6.732c3.719,0,6.729,3.021,6.729,6.732
	C1308.294,610.204,1305.283,613.217,1301.563,613.217z M1301.563,561.218c-3.722,0-6.73-3.015-6.73-6.729s3.015-6.732,6.73-6.732
	c3.719,0,6.729,3.02,6.729,6.732S1305.283,561.218,1301.563,561.218z M1301.563,509.218c-3.722,0-6.73-3.014-6.73-6.729
	s3.015-6.732,6.73-6.732c3.719,0,6.729,3.019,6.729,6.732S1305.283,509.218,1301.563,509.218z M1301.563,457.218
	c-3.722,0-6.73-3.014-6.73-6.729s3.015-6.732,6.73-6.732c3.719,0,6.729,3.019,6.729,6.732S1305.283,457.218,1301.563,457.218z
	 M1301.563,405.219c-3.722,0-6.73-3.014-6.73-6.73c0-3.718,3.015-6.732,6.73-6.732c3.719,0,6.729,3.014,6.729,6.732
	C1308.296,402.206,1305.283,405.219,1301.563,405.219z M1301.563,353.22c-3.722,0-6.73-3.014-6.73-6.732
	c0-3.718,3.015-6.732,6.73-6.732c3.719,0,6.729,3.014,6.729,6.732C1308.296,350.206,1305.283,353.22,1301.563,353.22z
	 M1301.563,301.22c-3.722,0-6.73-3.014-6.73-6.731c0-3.718,3.015-6.732,6.73-6.732c3.719,0,6.729,3.014,6.729,6.732
	C1308.296,298.206,1305.283,301.22,1301.563,301.22z M1301.563,249.22c-3.722,0-6.73-3.014-6.73-6.731
	c0-3.718,3.015-6.732,6.73-6.732c3.719,0,6.729,3.014,6.729,6.732C1308.296,246.206,1305.283,249.22,1301.563,249.22z
	 M1301.563,197.22c-3.722,0-6.73-3.014-6.73-6.731c0-3.718,3.015-6.732,6.73-6.732c3.719,0,6.729,3.014,6.729,6.732
	C1308.296,194.206,1305.283,197.22,1301.563,197.22z M1358.135,821.217c-3.72,0-6.729-3.014-6.729-6.729s3.015-6.732,6.729-6.732
	s6.731,3.021,6.731,6.732C1364.866,818.204,1361.854,821.217,1358.135,821.217z M1358.135,769.217c-3.72,0-6.729-3.014-6.729-6.729
	s3.015-6.732,6.729-6.732s6.731,3.021,6.731,6.732C1364.866,766.204,1361.854,769.217,1358.135,769.217z M1358.135,717.217
	c-3.72,0-6.729-3.014-6.729-6.729s3.015-6.732,6.729-6.732s6.731,3.021,6.731,6.732
	C1364.866,714.204,1361.854,717.217,1358.135,717.217z M1358.135,665.217c-3.72,0-6.729-3.014-6.729-6.729s3.015-6.732,6.729-6.732
	s6.731,3.021,6.731,6.732C1364.866,662.204,1361.854,665.217,1358.135,665.217z M1358.135,613.217c-3.72,0-6.729-3.014-6.729-6.729
	s3.015-6.732,6.729-6.732s6.731,3.021,6.731,6.732C1364.866,610.204,1361.854,613.217,1358.135,613.217z M1358.135,561.218
	c-3.72,0-6.729-3.015-6.729-6.729s3.015-6.732,6.729-6.732s6.731,3.02,6.731,6.732S1361.854,561.218,1358.135,561.218z
	 M1358.135,509.218c-3.72,0-6.729-3.014-6.729-6.729s3.015-6.732,6.729-6.732s6.731,3.019,6.731,6.732
	S1361.854,509.218,1358.135,509.218z M1358.135,457.218c-3.72,0-6.729-3.014-6.729-6.729s3.015-6.732,6.729-6.732
	s6.731,3.019,6.731,6.732S1361.854,457.218,1358.135,457.218z M1358.135,405.219c-3.72,0-6.729-3.014-6.729-6.73
	c0-3.718,3.015-6.732,6.729-6.732s6.731,3.014,6.731,6.732C1364.867,402.206,1361.854,405.219,1358.135,405.219z M1358.135,353.22
	c-3.72,0-6.729-3.014-6.729-6.732c0-3.718,3.015-6.732,6.729-6.732s6.731,3.014,6.731,6.732
	C1364.867,350.206,1361.854,353.22,1358.135,353.22z M1358.135,301.22c-3.72,0-6.729-3.014-6.729-6.731
	c0-3.718,3.015-6.732,6.729-6.732s6.731,3.014,6.731,6.732C1364.867,298.206,1361.854,301.22,1358.135,301.22z M1358.135,249.22
	c-3.72,0-6.729-3.014-6.729-6.731c0-3.718,3.015-6.732,6.729-6.732s6.731,3.014,6.731,6.732
	C1364.867,246.206,1361.854,249.22,1358.135,249.22z M1358.135,197.22c-3.72,0-6.729-3.014-6.729-6.731
	c0-3.718,3.015-6.732,6.729-6.732s6.731,3.014,6.731,6.732C1364.867,194.206,1361.854,197.22,1358.135,197.22z M1358.135,145.22
	c-3.72,0-6.729-3.014-6.729-6.731c0-3.718,3.015-6.732,6.729-6.732s6.731,3.014,6.731,6.732
	C1364.867,142.206,1361.854,145.22,1358.135,145.22z M1414.705,821.217c-3.719,0-6.729-3.014-6.729-6.729s3.016-6.732,6.729-6.732
	s6.73,3.021,6.73,6.732C1421.435,818.204,1418.424,821.217,1414.705,821.217z M1414.705,769.217c-3.719,0-6.729-3.014-6.729-6.729
	s3.016-6.732,6.729-6.732s6.73,3.021,6.73,6.732C1421.435,766.204,1418.424,769.217,1414.705,769.217z M1414.705,717.217
	c-3.719,0-6.729-3.014-6.729-6.729s3.016-6.732,6.729-6.732s6.73,3.021,6.73,6.732
	C1421.435,714.204,1418.424,717.217,1414.705,717.217z M1414.705,665.217c-3.719,0-6.729-3.014-6.729-6.729s3.016-6.732,6.729-6.732
	s6.73,3.021,6.73,6.732C1421.435,662.204,1418.424,665.217,1414.705,665.217z M1414.705,613.217c-3.719,0-6.729-3.014-6.729-6.729
	s3.016-6.732,6.729-6.732s6.73,3.021,6.73,6.732C1421.435,610.204,1418.424,613.217,1414.705,613.217z M1414.705,561.218
	c-3.719,0-6.729-3.015-6.729-6.729s3.016-6.732,6.729-6.732s6.73,3.02,6.73,6.732S1418.424,561.218,1414.705,561.218z
	 M1414.705,509.218c-3.719,0-6.729-3.014-6.729-6.729s3.016-6.732,6.729-6.732s6.73,3.019,6.73,6.732
	S1418.424,509.218,1414.705,509.218z M1414.705,457.218c-3.719,0-6.729-3.014-6.729-6.729s3.016-6.732,6.729-6.732
	s6.73,3.019,6.73,6.732S1418.424,457.218,1414.705,457.218z M1414.705,405.219c-3.719,0-6.729-3.014-6.729-6.73
	c0-3.718,3.016-6.732,6.729-6.732s6.73,3.014,6.73,6.732C1421.436,402.206,1418.424,405.219,1414.705,405.219z M1414.705,353.22
	c-3.719,0-6.729-3.014-6.729-6.732c0-3.718,3.016-6.732,6.729-6.732s6.73,3.014,6.73,6.732
	C1421.436,350.206,1418.424,353.22,1414.705,353.22z M1414.705,301.22c-3.719,0-6.729-3.014-6.729-6.731
	c0-3.718,3.016-6.732,6.729-6.732s6.73,3.014,6.73,6.732C1421.436,298.206,1418.424,301.22,1414.705,301.22z M1414.705,249.22
	c-3.719,0-6.729-3.014-6.729-6.731c0-3.718,3.016-6.732,6.729-6.732s6.73,3.014,6.73,6.732
	C1421.436,246.206,1418.424,249.22,1414.705,249.22z M1414.705,197.22c-3.719,0-6.729-3.014-6.729-6.731
	c0-3.718,3.016-6.732,6.729-6.732s6.73,3.014,6.73,6.732C1421.436,194.206,1418.424,197.22,1414.705,197.22z M1414.705,145.22
	c-3.719,0-6.729-3.014-6.729-6.731c0-3.718,3.016-6.732,6.729-6.732s6.73,3.014,6.73,6.732
	C1421.436,142.206,1418.424,145.22,1414.705,145.22z M1471.275,769.217c-3.723,0-6.731-3.014-6.731-6.729s3.015-6.732,6.731-6.732
	s6.729,3.021,6.729,6.732C1478.005,766.204,1474.994,769.217,1471.275,769.217z M1471.275,717.217c-3.723,0-6.731-3.014-6.731-6.729
	s3.015-6.732,6.731-6.732s6.729,3.021,6.729,6.732C1478.005,714.204,1474.994,717.217,1471.275,717.217z M1471.275,665.217
	c-3.723,0-6.731-3.014-6.731-6.729s3.015-6.732,6.731-6.732s6.729,3.021,6.729,6.732
	C1478.005,662.204,1474.994,665.217,1471.275,665.217z M1471.275,613.217c-3.723,0-6.731-3.014-6.731-6.729s3.015-6.732,6.731-6.732
	s6.729,3.021,6.729,6.732C1478.005,610.204,1474.994,613.217,1471.275,613.217z M1471.275,561.218c-3.723,0-6.731-3.015-6.731-6.729
	s3.015-6.732,6.731-6.732s6.729,3.02,6.729,6.732S1474.994,561.218,1471.275,561.218z M1471.275,509.218
	c-3.723,0-6.731-3.014-6.731-6.729s3.015-6.732,6.731-6.732s6.729,3.019,6.729,6.732S1474.994,509.218,1471.275,509.218z
	 M1471.275,457.218c-3.723,0-6.731-3.014-6.731-6.729s3.015-6.732,6.731-6.732s6.729,3.019,6.729,6.732
	S1474.994,457.218,1471.275,457.218z M1471.275,405.219c-3.723,0-6.731-3.014-6.731-6.73c0-3.718,3.015-6.732,6.731-6.732
	s6.729,3.014,6.729,6.732C1478.007,402.206,1474.994,405.219,1471.275,405.219z M1471.275,353.22c-3.723,0-6.731-3.014-6.731-6.732
	c0-3.718,3.015-6.732,6.731-6.732s6.729,3.014,6.729,6.732C1478.007,350.206,1474.994,353.22,1471.275,353.22z M1471.275,301.22
	c-3.723,0-6.731-3.014-6.731-6.731c0-3.718,3.015-6.732,6.731-6.732s6.729,3.014,6.729,6.732
	C1478.007,298.206,1474.994,301.22,1471.275,301.22z M1471.275,249.22c-3.723,0-6.731-3.014-6.731-6.731
	c0-3.718,3.015-6.732,6.731-6.732s6.729,3.014,6.729,6.732C1478.007,246.206,1474.994,249.22,1471.275,249.22z M1471.275,197.22
	c-3.723,0-6.731-3.014-6.731-6.731c0-3.718,3.015-6.732,6.731-6.732s6.729,3.014,6.729,6.732
	C1478.007,194.206,1474.994,197.22,1471.275,197.22z M1471.275,145.22c-3.723,0-6.731-3.014-6.731-6.731
	c0-3.718,3.015-6.732,6.731-6.732s6.729,3.014,6.729,6.732C1478.007,142.206,1474.994,145.22,1471.275,145.22z M1527.846,769.217
	c-3.721,0-6.73-3.014-6.73-6.729s3.015-6.732,6.73-6.732s6.729,3.021,6.729,6.732
	C1534.577,766.204,1531.563,769.217,1527.846,769.217z M1527.846,717.217c-3.721,0-6.73-3.014-6.73-6.729s3.015-6.732,6.73-6.732
	s6.729,3.021,6.729,6.732C1534.577,714.204,1531.563,717.217,1527.846,717.217z M1527.846,665.217c-3.721,0-6.73-3.014-6.73-6.729
	s3.015-6.732,6.73-6.732s6.729,3.021,6.729,6.732C1534.577,662.204,1531.563,665.217,1527.846,665.217z M1527.846,613.217
	c-3.721,0-6.73-3.014-6.73-6.729s3.015-6.732,6.73-6.732s6.729,3.021,6.729,6.732
	C1534.577,610.204,1531.563,613.217,1527.846,613.217z M1527.846,561.218c-3.721,0-6.73-3.015-6.73-6.729s3.015-6.732,6.73-6.732
	s6.729,3.02,6.729,6.732S1531.563,561.218,1527.846,561.218z M1527.846,509.218c-3.721,0-6.73-3.014-6.73-6.729
	s3.015-6.732,6.73-6.732s6.729,3.019,6.729,6.732S1531.563,509.218,1527.846,509.218z M1527.846,457.218
	c-3.721,0-6.73-3.014-6.73-6.729s3.015-6.732,6.73-6.732s6.729,3.019,6.729,6.732S1531.563,457.218,1527.846,457.218z
	 M1527.846,405.219c-3.721,0-6.73-3.014-6.73-6.73c0-3.718,3.015-6.732,6.73-6.732s6.729,3.014,6.729,6.732
	C1534.578,402.206,1531.563,405.219,1527.846,405.219z M1527.846,353.22c-3.721,0-6.73-3.014-6.73-6.732
	c0-3.718,3.015-6.732,6.73-6.732s6.729,3.014,6.729,6.732C1534.578,350.206,1531.563,353.22,1527.846,353.22z M1527.846,301.22
	c-3.721,0-6.73-3.014-6.73-6.731c0-3.718,3.015-6.732,6.73-6.732s6.729,3.014,6.729,6.732
	C1534.578,298.206,1531.563,301.22,1527.846,301.22z M1527.846,249.22c-3.721,0-6.73-3.014-6.73-6.731
	c0-3.718,3.015-6.732,6.73-6.732s6.729,3.014,6.729,6.732C1534.578,246.206,1531.563,249.22,1527.846,249.22z M1527.846,197.22
	c-3.721,0-6.73-3.014-6.73-6.731c0-3.718,3.015-6.732,6.73-6.732s6.729,3.014,6.729,6.732
	C1534.578,194.206,1531.563,197.22,1527.846,197.22z M1584.417,717.217c-3.72,0-6.73-3.014-6.73-6.729s3.016-6.732,6.73-6.732
	c3.714,0,6.731,3.021,6.731,6.732C1591.148,714.204,1588.135,717.217,1584.417,717.217z M1584.417,665.217
	c-3.72,0-6.73-3.014-6.73-6.729s3.016-6.732,6.73-6.732c3.714,0,6.731,3.021,6.731,6.732
	C1591.148,662.204,1588.135,665.217,1584.417,665.217z M1584.417,613.217c-3.72,0-6.73-3.014-6.73-6.729s3.016-6.732,6.73-6.732
	c3.714,0,6.731,3.021,6.731,6.732C1591.148,610.204,1588.135,613.217,1584.417,613.217z M1584.417,561.218
	c-3.72,0-6.73-3.015-6.73-6.729s3.016-6.732,6.73-6.732c3.714,0,6.731,3.02,6.731,6.732S1588.135,561.218,1584.417,561.218z
	 M1584.417,509.218c-3.72,0-6.73-3.014-6.73-6.729s3.016-6.732,6.73-6.732c3.714,0,6.731,3.019,6.731,6.732
	S1588.135,509.218,1584.417,509.218z M1584.417,457.218c-3.72,0-6.73-3.014-6.73-6.729s3.016-6.732,6.73-6.732
	c3.714,0,6.731,3.019,6.731,6.732S1588.135,457.218,1584.417,457.218z M1584.417,405.219c-3.72,0-6.73-3.014-6.73-6.73
	c0-3.718,3.016-6.732,6.73-6.732c3.714,0,6.731,3.014,6.731,6.732C1591.147,402.206,1588.135,405.219,1584.417,405.219z
	 M1584.417,353.22c-3.72,0-6.73-3.014-6.73-6.732c0-3.718,3.016-6.732,6.73-6.732c3.714,0,6.731,3.014,6.731,6.732
	C1591.147,350.206,1588.135,353.22,1584.417,353.22z M1584.417,301.22c-3.72,0-6.73-3.014-6.73-6.731
	c0-3.718,3.016-6.732,6.73-6.732c3.714,0,6.731,3.014,6.731,6.732C1591.147,298.206,1588.135,301.22,1584.417,301.22z
	 M1584.417,249.22c-3.72,0-6.73-3.014-6.73-6.731c0-3.718,3.016-6.732,6.73-6.732c3.714,0,6.731,3.014,6.731,6.732
	C1591.147,246.206,1588.135,249.22,1584.417,249.22z M1584.417,197.22c-3.72,0-6.73-3.014-6.73-6.731
	c0-3.718,3.016-6.732,6.73-6.732c3.714,0,6.731,3.014,6.731,6.732C1591.147,194.206,1588.135,197.22,1584.417,197.22z
	 M1640.986,717.217c-3.721,0-6.731-3.014-6.731-6.729s3.016-6.732,6.731-6.732s6.729,3.021,6.729,6.732
	C1647.716,714.204,1644.705,717.217,1640.986,717.217z M1640.986,665.217c-3.721,0-6.731-3.014-6.731-6.729s3.016-6.732,6.731-6.732
	s6.729,3.021,6.729,6.732C1647.716,662.204,1644.705,665.217,1640.986,665.217z M1640.986,613.217c-3.721,0-6.731-3.014-6.731-6.729
	s3.016-6.732,6.731-6.732s6.729,3.021,6.729,6.732C1647.716,610.204,1644.705,613.217,1640.986,613.217z M1640.986,561.218
	c-3.721,0-6.731-3.015-6.731-6.729s3.016-6.732,6.731-6.732s6.729,3.02,6.729,6.732S1644.705,561.218,1640.986,561.218z
	 M1640.986,509.218c-3.721,0-6.731-3.014-6.731-6.729s3.016-6.732,6.731-6.732s6.729,3.019,6.729,6.732
	S1644.705,509.218,1640.986,509.218z M1640.986,457.218c-3.721,0-6.731-3.014-6.731-6.729s3.016-6.732,6.731-6.732
	s6.729,3.019,6.729,6.732S1644.705,457.218,1640.986,457.218z M1640.986,405.219c-3.721,0-6.731-3.014-6.731-6.73
	c0-3.718,3.016-6.732,6.731-6.732s6.729,3.014,6.729,6.732C1647.718,402.206,1644.705,405.219,1640.986,405.219z M1640.986,353.22
	c-3.721,0-6.731-3.014-6.731-6.732c0-3.718,3.016-6.732,6.731-6.732s6.729,3.014,6.729,6.732
	C1647.718,350.206,1644.705,353.22,1640.986,353.22z M1640.986,301.22c-3.721,0-6.731-3.014-6.731-6.731
	c0-3.718,3.016-6.732,6.731-6.732s6.729,3.014,6.729,6.732C1647.718,298.206,1644.705,301.22,1640.986,301.22z M1640.986,249.22
	c-3.721,0-6.731-3.014-6.731-6.731c0-3.718,3.016-6.732,6.731-6.732s6.729,3.014,6.729,6.732
	C1647.718,246.206,1644.705,249.22,1640.986,249.22z M1697.555,717.217c-3.72,0-6.729-3.014-6.729-6.729s3.015-6.732,6.729-6.732
	c3.721,0,6.73,3.021,6.73,6.732C1704.287,714.204,1701.275,717.217,1697.555,717.217z M1697.555,665.217
	c-3.72,0-6.729-3.014-6.729-6.729s3.015-6.732,6.729-6.732c3.721,0,6.73,3.021,6.73,6.732
	C1704.287,662.204,1701.275,665.217,1697.555,665.217z M1697.555,613.217c-3.72,0-6.729-3.014-6.729-6.729s3.015-6.732,6.729-6.732
	c3.721,0,6.73,3.021,6.73,6.732C1704.287,610.204,1701.275,613.217,1697.555,613.217z M1697.555,561.218
	c-3.72,0-6.729-3.015-6.729-6.729s3.015-6.732,6.729-6.732c3.721,0,6.73,3.02,6.73,6.732S1701.275,561.218,1697.555,561.218z
	 M1697.555,509.218c-3.72,0-6.729-3.014-6.729-6.729s3.015-6.732,6.729-6.732c3.721,0,6.73,3.019,6.73,6.732
	S1701.275,509.218,1697.555,509.218z M1697.555,457.218c-3.72,0-6.729-3.014-6.729-6.729s3.015-6.732,6.729-6.732
	c3.721,0,6.73,3.019,6.73,6.732S1701.275,457.218,1697.555,457.218z M1697.555,405.219c-3.72,0-6.729-3.014-6.729-6.73
	c0-3.718,3.015-6.732,6.729-6.732c3.721,0,6.73,3.014,6.73,6.732C1704.289,402.206,1701.275,405.219,1697.555,405.219z
	 M1697.555,353.22c-3.72,0-6.729-3.014-6.729-6.732c0-3.718,3.015-6.732,6.729-6.732c3.721,0,6.73,3.014,6.73,6.732
	C1704.289,350.206,1701.275,353.22,1697.555,353.22z M1697.555,301.22c-3.72,0-6.729-3.014-6.729-6.731
	c0-3.718,3.015-6.732,6.729-6.732c3.721,0,6.73,3.014,6.73,6.732C1704.289,298.206,1701.275,301.22,1697.555,301.22z
	 M1697.555,249.22c-3.72,0-6.729-3.014-6.729-6.731c0-3.718,3.015-6.732,6.729-6.732c3.721,0,6.73,3.014,6.73,6.732
	C1704.289,246.206,1701.275,249.22,1697.555,249.22z M1754.128,665.217c-3.72,0-6.73-3.014-6.73-6.729s3.015-6.732,6.73-6.732
	c3.718,0,6.731,3.021,6.731,6.732C1760.86,662.204,1757.847,665.217,1754.128,665.217z M1754.128,613.217
	c-3.72,0-6.73-3.014-6.73-6.729s3.015-6.732,6.73-6.732c3.718,0,6.731,3.021,6.731,6.732
	C1760.86,610.204,1757.847,613.217,1754.128,613.217z M1754.128,561.218c-3.72,0-6.73-3.015-6.73-6.729s3.015-6.732,6.73-6.732
	c3.718,0,6.731,3.02,6.731,6.732S1757.847,561.218,1754.128,561.218z M1754.128,509.218c-3.72,0-6.73-3.014-6.73-6.729
	s3.015-6.732,6.73-6.732c3.718,0,6.731,3.019,6.731,6.732S1757.847,509.218,1754.128,509.218z M1754.128,457.218
	c-3.72,0-6.73-3.014-6.73-6.729s3.015-6.732,6.73-6.732c3.718,0,6.731,3.019,6.731,6.732S1757.847,457.218,1754.128,457.218z
	 M1754.128,405.219c-3.72,0-6.73-3.014-6.73-6.73c0-3.718,3.015-6.732,6.73-6.732c3.718,0,6.731,3.014,6.731,6.732
	C1760.861,402.206,1757.847,405.219,1754.128,405.219z M1754.128,353.22c-3.72,0-6.73-3.014-6.73-6.732
	c0-3.718,3.015-6.732,6.73-6.732c3.718,0,6.731,3.014,6.731,6.732C1760.861,350.206,1757.847,353.22,1754.128,353.22z
	 M1754.128,301.22c-3.72,0-6.73-3.014-6.73-6.731c0-3.718,3.015-6.732,6.73-6.732c3.718,0,6.731,3.014,6.731,6.732
	C1760.861,298.206,1757.847,301.22,1754.128,301.22z M1810.698,665.217c-3.721,0-6.731-3.014-6.731-6.729s3.016-6.732,6.731-6.732
	c3.717,0,6.729,3.021,6.729,6.732C1817.427,662.204,1814.417,665.217,1810.698,665.217z M1810.698,613.217
	c-3.721,0-6.731-3.014-6.731-6.729s3.016-6.732,6.731-6.732c3.717,0,6.729,3.021,6.729,6.732
	C1817.427,610.204,1814.417,613.217,1810.698,613.217z M1810.698,561.218c-3.721,0-6.731-3.015-6.731-6.729s3.016-6.732,6.731-6.732
	c3.717,0,6.729,3.02,6.729,6.732S1814.417,561.218,1810.698,561.218z M1810.698,509.218c-3.721,0-6.731-3.014-6.731-6.729
	s3.016-6.732,6.731-6.732c3.717,0,6.729,3.019,6.729,6.732S1814.417,509.218,1810.698,509.218z M1810.698,457.218
	c-3.721,0-6.731-3.014-6.731-6.729s3.016-6.732,6.731-6.732c3.717,0,6.729,3.019,6.729,6.732S1814.417,457.218,1810.698,457.218z
	 M1810.698,405.219c-3.721,0-6.731-3.014-6.731-6.73c0-3.718,3.016-6.732,6.731-6.732c3.717,0,6.729,3.014,6.729,6.732
	C1817.427,402.206,1814.417,405.219,1810.698,405.219z M1810.698,353.22c-3.721,0-6.731-3.014-6.731-6.732
	c0-3.718,3.016-6.732,6.731-6.732c3.717,0,6.729,3.014,6.729,6.732C1817.427,350.206,1814.417,353.22,1810.698,353.22z
	 M1810.698,301.22c-3.721,0-6.731-3.014-6.731-6.731c0-3.718,3.016-6.732,6.731-6.732c3.717,0,6.729,3.014,6.729,6.732
	C1817.427,298.206,1814.417,301.22,1810.698,301.22z M1867.268,509.218c-3.721,0-6.731-3.014-6.731-6.729s3.015-6.732,6.731-6.732
	c3.719,0,6.729,3.019,6.729,6.732S1870.988,509.218,1867.268,509.218z M1867.268,457.218c-3.721,0-6.731-3.014-6.731-6.729
	s3.015-6.732,6.731-6.732c3.719,0,6.729,3.019,6.729,6.732S1870.988,457.218,1867.268,457.218z M1867.268,405.219
	c-3.721,0-6.731-3.014-6.731-6.73c0-3.718,3.015-6.732,6.731-6.732c3.719,0,6.729,3.014,6.729,6.732
	C1874.001,402.206,1870.988,405.219,1867.268,405.219z M1867.268,353.22c-3.721,0-6.731-3.014-6.731-6.732
	c0-3.718,3.015-6.732,6.731-6.732c3.719,0,6.729,3.014,6.729,6.732C1874.001,350.206,1870.988,353.22,1867.268,353.22z
	 M1923.838,509.218c-3.72,0-6.729-3.014-6.729-6.729s3.014-6.732,6.729-6.732c3.719,0,6.731,3.019,6.731,6.732
	S1927.556,509.218,1923.838,509.218z M1923.838,457.218c-3.72,0-6.729-3.014-6.729-6.729s3.014-6.732,6.729-6.732
	c3.719,0,6.731,3.019,6.731,6.732S1927.556,457.218,1923.838,457.218z M1923.838,405.219c-3.72,0-6.729-3.014-6.729-6.73
	c0-3.718,3.014-6.732,6.729-6.732c3.719,0,6.731,3.014,6.731,6.732C1930.572,402.206,1927.556,405.219,1923.838,405.219z
	 M1923.838,353.22c-3.72,0-6.729-3.014-6.729-6.732c0-3.718,3.014-6.732,6.729-6.732c3.719,0,6.731,3.014,6.731,6.732
	C1930.572,350.206,1927.556,353.22,1923.838,353.22z M1980.409,457.218c-3.721,0-6.731-3.014-6.731-6.729s3.016-6.732,6.731-6.732
	c3.717,0,6.729,3.019,6.729,6.732S1984.128,457.218,1980.409,457.218z M1980.409,405.219c-3.721,0-6.731-3.014-6.731-6.73
	c0-3.718,3.016-6.732,6.731-6.732c3.717,0,6.729,3.014,6.729,6.732C1987.14,402.206,1984.128,405.219,1980.409,405.219z
	 M2036.98,457.218c-3.721,0-6.732-3.014-6.732-6.729s3.015-6.732,6.732-6.732s6.729,3.019,6.729,6.732
	S2040.698,457.218,2036.98,457.218z M2036.98,405.219c-3.721,0-6.732-3.014-6.732-6.73c0-3.718,3.015-6.732,6.732-6.732
	s6.729,3.014,6.729,6.732C2043.712,402.206,2040.698,405.219,2036.98,405.219z M2093.549,405.219c-3.72,0-6.729-3.014-6.729-6.73
	c0-3.718,3.014-6.732,6.729-6.732c3.719,0,6.731,3.014,6.731,6.732C2100.282,402.206,2097.269,405.219,2093.549,405.219z"/>
</svg>
