<?xml version="1.0" encoding="utf-8"?>
<!-- Generator: Adobe Illustrator 16.0.0, SVG Export Plug-In . SVG Version: 6.00 Build 0)  -->
<!DOCTYPE svg PUBLIC "-//W3C//DTD SVG 1.1//EN" "http://www.w3.org/Graphics/SVG/1.1/DTD/svg11.dtd">
<svg version="1.1" id="Layer_1" xmlns="http://www.w3.org/2000/svg" xmlns:xlink="http://www.w3.org/1999/xlink" x="0px" y="0px"
	 width="3474.551px" height="1142.075px" viewBox="0 0 3474.551 1142.075" enable-background="new 0 0 3474.551 1142.075"
	 xml:space="preserve">
<path fill="none" stroke="#000000" stroke-linejoin="round" stroke-miterlimit="10" d="M1184.311,431.084
	c0,0-3.631-8.141,7.837-15.134c11.461-6.993,602.866-251.458,617.038-256.958c14.168-5.501,103.386-50.048,116.689-65.805
	c13.303-15.756,20.346-24.099,20.346-24.099"/>
<path fill="none" stroke="#000000" stroke-linejoin="round" stroke-miterlimit="10" d="M2174.133,938.012
	c12.009,3.551,19.258,0.331,23.564-0.764c0,0,284.104-111.785,314.937-123.854c30.824-12.072,39.866-17.141,58.732-28.201
	c18.862-11.062,48.881-53.193,48.881-53.193"/>
<path fill="none" stroke="#000000" stroke-linejoin="round" stroke-miterlimit="10" d="M1966.628,76.122
	c0,0-9.906,15.471-23.562,26.955c-8.832,7.429-58.666,39.383-85.214,51.095c-20.01,8.827-237.893,98.415-271.144,112.412
	c-33.253,13.999-358.438,149.05-374.161,156.401c-14.218,6.646-4.348,15.488,2.15,17.376"/>
<path fill="none" stroke="#000000" stroke-linejoin="round" stroke-miterlimit="10" d="M3415.241,785.241
	c3.679-12.294,8.749-28.676-5.47-32.529c-4.527-1.227-12.327-1.945-22.499-2.26"/>
<path fill="none" stroke="#000001" stroke-linejoin="round" stroke-miterlimit="10" d="M2628.534,747.204
	c0,0-33.074,46.693-63.689,61.332c-20.442,9.77-330.674,131.209-340.569,136.348c-9.896,5.146-12.17,8.777-1.978,17.387"/>
</svg>
