<?xml version="1.0" encoding="utf-8"?>
<!-- Generator: Adobe Illustrator 16.0.0, SVG Export Plug-In . SVG Version: 6.00 Build 0)  -->
<!DOCTYPE svg PUBLIC "-//W3C//DTD SVG 1.1//EN" "http://www.w3.org/Graphics/SVG/1.1/DTD/svg11.dtd">
<svg version="1.1" id="Layer_1" xmlns="http://www.w3.org/2000/svg" xmlns:xlink="http://www.w3.org/1999/xlink" x="0px" y="0px"
	 width="1483.118px" height="832.48px" viewBox="0 0 1483.118 832.48" enable-background="new 0 0 1483.118 832.48"
	 xml:space="preserve">
<path fill="none" stroke="#000000" stroke-miterlimit="10" d="M66.71,653.881c-2.353-1.227-4.948-1.673-7.016,0.363
	c-4.849,10.924-15.792,18.543-28.514,18.543c-17.22,0-31.18-13.96-31.18-31.181c0-17.223,13.96-31.183,31.181-31.183
	c13.714,0,25.361,8.854,29.534,21.158c0.693,0.673,1.529,1.556,2.556,1.633c1.133,0.085,1.894-0.831,2.79-1.349
	c1.623-2.351,3.815-4.785,6.648-7.327c156.145-140.106,282.599-273.479,405.232-439.12c7.631-10.311,19.582-13.388,30.395-6.332
	c95.624,62.381,96.232-81.75,92.945-135.483c-0.99-16.125-6.451-24.991,9.271-28.583l62.97-14.383
	c12.064-2.755,24.838,3.812,34.19,11.917c30.204,26.163,63.427,56.244,100.421,71.095l660.93,265.29
	c29.977,12.034,6.27,64.409-17.873,51.314c-30.979-16.813-65.783-23.525-104.4-20.136c-90.08,33.045-159.703,72.358-232.779,130.976
	c-34.146,37.078-37.598,52.488,21.521,103.396c-61.314,33.053-128.256-14.644-183.078,10.209l-430.05,194.906
	c-21.442,9.717-52.955,18.461-80.065,8.428c-112.943-41.807-283.122-96.092-328.17-135.351
	c-17.52-15.267-38.53-26.717-47.454-38.801L66.71,653.881z"/>
</svg>
