<?xml version="1.0" encoding="utf-8"?>
<!-- Generator: Adobe Illustrator 16.0.0, SVG Export Plug-In . SVG Version: 6.00 Build 0)  -->
<!DOCTYPE svg PUBLIC "-//W3C//DTD SVG 1.1//EN" "http://www.w3.org/Graphics/SVG/1.1/DTD/svg11.dtd">
<svg version="1.1" id="Layer_1" xmlns="http://www.w3.org/2000/svg" xmlns:xlink="http://www.w3.org/1999/xlink" x="0px" y="0px"
	 width="1482.73px" height="832.775px" viewBox="0 0 1482.73 832.775" enable-background="new 0 0 1482.73 832.775"
	 xml:space="preserve">
<path fill="none" stroke="#000000" stroke-linejoin="round" stroke-miterlimit="10" d="M1415.844,631.575
	c-1.512-1.991-3.431-4.045-5.797-6.174c-155.943-140.324-282.21-273.88-404.602-439.693c-7.618-10.32-19.562-13.416-30.391-6.375
	c-95.715,62.245-96.113-81.887-92.754-135.615c1.016-16.124,6.482-24.983-9.229-28.597L810.125,0.647
	c-12.062-2.774-24.845,3.776-34.209,11.867c-30.241,26.122-63.507,56.157-100.521,70.953L14.087,347.816
	c-29.995,11.989-6.364,64.399,17.789,51.336c31.007-16.771,65.819-23.432,104.432-19.988
	c90.033,33.173,159.602,72.585,232.597,131.306c34.093,37.125,37.521,52.541-21.667,103.363
	c61.268,33.141,128.271-14.453,183.062,10.471l429.773,195.521c21.427,9.746,52.929,18.533,80.054,8.539
	c113.004-41.645,283.262-95.688,328.365-134.877c17.785-15.452,39.154-26.979,47.876-39.236c0.993-0.701,1.818-1.728,2.995-2.137
	c1.423-0.495,2.294,0.299,3.381,1.129l0.001,0.002c4.69,11.284,15.821,19.219,28.804,19.219c17.221,0,31.182-13.96,31.182-31.181
	c0-17.222-13.961-31.183-31.182-31.183c-13.55,0-25.081,8.644-29.382,20.717c-0.726,0.913-1.652,1.999-2.872,2.206
	c-1.406,0.24-2.335-0.837-3.454-1.451L1415.844,631.575z"/>
</svg>
