<?xml version="1.0" encoding="utf-8"?>
<!-- Generator: Adobe Illustrator 16.0.0, SVG Export Plug-In . SVG Version: 6.00 Build 0)  -->
<!DOCTYPE svg PUBLIC "-//W3C//DTD SVG 1.1//EN" "http://www.w3.org/Graphics/SVG/1.1/DTD/svg11.dtd">
<svg version="1.1" id="Layer_1" xmlns="http://www.w3.org/2000/svg" xmlns:xlink="http://www.w3.org/1999/xlink" x="0px" y="0px"
	 width="1209.705px" height="385.453px" viewBox="0 0 1209.705 385.453" enable-background="new 0 0 1209.705 385.453"
	 xml:space="preserve">
<path d="M1182.885,0.291c-173.299,27.381-338.121,78.008-509.081,117.904c-94.06,21.949-131.577,40.208-207.398-19.434
	l-79.013-62.15c-20.321-15.988-21.05-5.502-43.99,6.662c-110.75,58.744-217.8,102.463-329.558,157.279
	c-16.7,8.189-20.714,24.296,1.595,34.688l228.27,106.312c145.868,67.938,388.906,18.041,549.47,43.531
	c19.875,3.149,38.717-14.524,54.807-25.101c100.818-149.987,169.611-192.508,344.254-291
	C1219.369,53.682,1213.859-4.604,1182.885,0.291z"/>
</svg>
