<?xml version="1.0" encoding="utf-8"?>
<!-- Generator: Adobe Illustrator 16.0.0, SVG Export Plug-In . SVG Version: 6.00 Build 0)  -->
<!DOCTYPE svg PUBLIC "-//W3C//DTD SVG 1.1//EN" "http://www.w3.org/Graphics/SVG/1.1/DTD/svg11.dtd">
<svg version="1.1" id="Layer_1" xmlns="http://www.w3.org/2000/svg" xmlns:xlink="http://www.w3.org/1999/xlink" x="0px" y="0px"
	 width="1232.4px" height="445.816px" viewBox="0 0 1232.4 445.816" enable-background="new 0 0 1232.4 445.816"
	 xml:space="preserve">
<path fill="none" stroke="#000000" stroke-linejoin="round" stroke-miterlimit="10" d="M1204.358,62.206
	c-2.071,1.25-3.46,2.73-2.832,5.305c13.018,15.237,10.909,50.445-9.285,61.834c-174.646,98.492-243.438,141.013-344.254,291
	c-16.093,10.575-34.935,28.25-54.81,25.102c-160.562-25.49-403.6,24.405-549.469-43.531L15.441,295.602
	c-22.307-10.393-18.295-26.498-1.595-34.688c111.758-54.816,218.808-98.535,329.558-157.279
	c22.938-12.164,23.669-22.65,43.987-6.662l79.016,62.15c75.819,59.643,113.339,41.383,207.396,19.434
	c170.023-39.678,333.977-89.968,506.231-117.452c1.726-0.987,3.539-2.828,2.491-4.965l-0.002-0.001
	c-7.582-5.688-12.487-14.75-12.487-24.958c0-17.221,13.96-31.181,31.181-31.181c17.222,0,31.183,13.96,31.183,31.181
	c0,16.145-12.271,29.423-27.992,31.02L1204.358,62.206z"/>
</svg>
