<?xml version="1.0" encoding="utf-8"?>
<!-- Generator: Adobe Illustrator 16.0.0, SVG Export Plug-In . SVG Version: 6.00 Build 0)  -->
<!DOCTYPE svg PUBLIC "-//W3C//DTD SVG 1.1//EN" "http://www.w3.org/Graphics/SVG/1.1/DTD/svg11.dtd">
<svg version="1.1" id="Layer_1" xmlns="http://www.w3.org/2000/svg" xmlns:xlink="http://www.w3.org/1999/xlink" x="0px" y="0px"
	 width="3085.477px" height="1063.204px" viewBox="0 0 3085.477 1063.204" enable-background="new 0 0 3085.477 1063.204"
	 xml:space="preserve">
<path d="M1891.211,912.987l228.268,106.314c145.869,67.939,388.908,18.041,549.469,43.531c19.875,3.152,38.717-14.525,54.805-25.098
	c100.82-149.988,169.613-192.516,344.254-291c27.138-15.311,21.625-73.59-9.35-68.695
	c-173.299,27.381-338.121,78.008-509.08,117.904c-94.059,21.943-131.578,40.209-207.4-19.439l-79.012-62.145
	c-20.322-15.988-21.049-5.502-43.992,6.656c-110.75,58.744-217.799,102.469-329.557,157.279
	C1872.916,886.491,1868.904,902.596,1891.211,912.987 M21.883,305.414C502.988,176.793,1296.696-38.645,1531.125,5.985
	c20.646,3.93,23.031,24.952,4.467,35.016c-235.186,127.476-465.209,209.166-719.495,288.364
	c-40.175,12.513-74.214,5.928-107.688-8.67l-90.269-39.366c-26.371-11.5-60.437-13.115-94.774-10.406
	c-169.459,13.374-341.099,34.585-514.229,61.156C-10.354,335.07,4.876,309.96,21.883,305.414 M2207.045,654.038
	c-155.945-140.324-282.211-273.876-404.604-439.689c-7.619-10.32-19.562-13.416-30.387-6.375
	c-95.715,62.245-96.117-81.887-92.754-135.615c1.012-16.124,6.479-24.983-9.232-28.597l-62.947-14.473
	c-12.062-2.774-24.846,3.776-34.209,11.867c-30.241,26.122-63.507,56.157-100.521,70.953l-661.309,264.35
	c-29.992,11.989-6.361,64.399,17.789,51.336c31.009-16.77,65.819-23.432,104.435-19.988
	c90.031,33.17,159.602,72.583,232.597,131.308c34.093,37.125,37.523,52.541-21.667,103.359
	c61.268,33.145,128.275-14.449,183.063,10.475l429.772,195.52c21.426,9.746,52.928,18.533,80.053,8.539
	c113.005-41.641,283.264-95.688,328.365-134.877C2195.891,695.711,2236.758,680.774,2207.045,654.038z M906.899,387.498
	c-3.719,0-6.729-3.014-6.729-6.732c0-3.718,3.014-6.732,6.729-6.732s6.732,3.014,6.732,6.732
	C913.632,384.484,910.616,387.498,906.899,387.498z M963.47,387.498c-3.72,0-6.732-3.014-6.732-6.732
	c0-3.718,3.017-6.732,6.732-6.732s6.729,3.014,6.729,6.732C970.2,384.484,967.188,387.498,963.47,387.498z M1020.041,387.498
	c-3.722,0-6.732-3.014-6.732-6.732c0-3.718,3.014-6.732,6.732-6.732c3.718,0,6.729,3.014,6.729,6.732
	C1026.772,384.484,1023.76,387.498,1020.041,387.498z M1020.041,335.498c-3.722,0-6.732-3.014-6.732-6.732
	c0-3.718,3.014-6.732,6.732-6.732c3.718,0,6.729,3.014,6.729,6.732C1026.772,332.484,1023.76,335.498,1020.041,335.498z
	 M1076.61,439.498c-3.719,0-6.729-3.014-6.729-6.732c0-3.718,3.014-6.729,6.729-6.729s6.732,3.014,6.732,6.729
	C1083.343,436.484,1080.327,439.498,1076.61,439.498z M1076.61,387.498c-3.719,0-6.729-3.014-6.729-6.732
	c0-3.718,3.014-6.732,6.729-6.732s6.732,3.014,6.732,6.732C1083.343,384.484,1080.327,387.498,1076.61,387.498z M1076.61,335.498
	c-3.719,0-6.729-3.014-6.729-6.732c0-3.718,3.014-6.732,6.729-6.732s6.732,3.014,6.732,6.732
	C1083.343,332.484,1080.327,335.498,1076.61,335.498z M1133.181,491.498c-3.719,0-6.732-3.014-6.732-6.732
	c0-3.717,3.017-6.729,6.732-6.729s6.731,3.016,6.731,6.729C1139.911,488.484,1136.899,491.498,1133.181,491.498z M1133.181,439.498
	c-3.719,0-6.732-3.014-6.732-6.732c0-3.718,3.017-6.729,6.732-6.729s6.731,3.014,6.731,6.729
	C1139.912,436.484,1136.899,439.498,1133.181,439.498z M1133.181,387.498c-3.719,0-6.732-3.014-6.732-6.732
	c0-3.718,3.017-6.732,6.732-6.732s6.731,3.014,6.731,6.732C1139.912,384.484,1136.899,387.498,1133.181,387.498z M1133.181,335.498
	c-3.719,0-6.732-3.014-6.732-6.732c0-3.718,3.017-6.732,6.732-6.732s6.731,3.014,6.731,6.732
	C1139.912,332.484,1136.899,335.498,1133.181,335.498z M1133.181,283.498c-3.719,0-6.732-3.014-6.732-6.732
	c0-3.718,3.017-6.732,6.732-6.732s6.731,3.014,6.731,6.732C1139.912,280.484,1136.899,283.498,1133.181,283.498z M1189.752,543.497
	c-3.722,0-6.732-3.014-6.732-6.732c0-3.717,3.014-6.729,6.732-6.729c3.718,0,6.729,3.014,6.729,6.729
	C1196.483,540.483,1193.47,543.497,1189.752,543.497z M1189.752,491.498c-3.722,0-6.732-3.014-6.732-6.732
	c0-3.717,3.014-6.729,6.732-6.729c3.718,0,6.729,3.016,6.729,6.729C1196.483,488.484,1193.47,491.498,1189.752,491.498z
	 M1189.752,439.498c-3.722,0-6.732-3.014-6.732-6.732c0-3.718,3.014-6.729,6.732-6.729c3.718,0,6.729,3.014,6.729,6.729
	C1196.483,436.484,1193.47,439.498,1189.752,439.498z M1189.752,387.498c-3.722,0-6.732-3.014-6.732-6.732
	c0-3.718,3.014-6.732,6.732-6.732c3.718,0,6.729,3.014,6.729,6.732C1196.483,384.484,1193.47,387.498,1189.752,387.498z
	 M1189.752,335.498c-3.722,0-6.732-3.014-6.732-6.732c0-3.718,3.014-6.732,6.732-6.732c3.718,0,6.729,3.014,6.729,6.732
	C1196.483,332.484,1193.47,335.498,1189.752,335.498z M1189.752,283.498c-3.722,0-6.732-3.014-6.732-6.732
	c0-3.718,3.014-6.732,6.732-6.732c3.718,0,6.729,3.014,6.729,6.732C1196.483,280.484,1193.47,283.498,1189.752,283.498z
	 M1246.321,595.497c-3.719,0-6.729-3.014-6.729-6.732c0-3.717,3.014-6.729,6.729-6.729s6.732,3.016,6.732,6.729
	C1253.054,592.483,1250.041,595.497,1246.321,595.497z M1246.321,543.497c-3.719,0-6.729-3.014-6.729-6.732
	c0-3.717,3.014-6.729,6.729-6.729s6.732,3.014,6.732,6.729C1253.054,540.483,1250.041,543.497,1246.321,543.497z M1246.321,491.498
	c-3.719,0-6.729-3.014-6.729-6.732c0-3.717,3.014-6.729,6.729-6.729s6.732,3.016,6.732,6.729
	C1253.054,488.484,1250.041,491.498,1246.321,491.498z M1246.321,439.498c-3.719,0-6.729-3.014-6.729-6.732
	c0-3.718,3.014-6.729,6.729-6.729s6.732,3.014,6.732,6.729C1253.053,436.484,1250.041,439.498,1246.321,439.498z M1246.321,387.498
	c-3.719,0-6.729-3.014-6.729-6.732c0-3.718,3.014-6.732,6.729-6.732s6.732,3.014,6.732,6.732
	C1253.053,384.484,1250.041,387.498,1246.321,387.498z M1246.321,335.498c-3.719,0-6.729-3.014-6.729-6.732
	c0-3.718,3.014-6.732,6.729-6.732s6.732,3.014,6.732,6.732C1253.053,332.484,1250.041,335.498,1246.321,335.498z M1246.321,283.498
	c-3.719,0-6.729-3.014-6.729-6.732c0-3.718,3.014-6.732,6.729-6.732s6.732,3.014,6.732,6.732
	C1253.053,280.484,1250.041,283.498,1246.321,283.498z M1246.321,231.498c-3.719,0-6.729-3.014-6.729-6.732
	c0-3.718,3.014-6.732,6.729-6.732s6.732,3.014,6.732,6.732C1253.053,228.484,1250.041,231.498,1246.321,231.498z M1302.892,595.497
	c-3.719,0-6.732-3.014-6.732-6.732c0-3.717,3.017-6.729,6.732-6.729s6.731,3.016,6.731,6.729
	C1309.625,592.483,1306.61,595.497,1302.892,595.497z M1302.892,543.497c-3.719,0-6.732-3.014-6.732-6.732
	c0-3.717,3.017-6.729,6.732-6.729s6.731,3.014,6.731,6.729C1309.625,540.483,1306.61,543.497,1302.892,543.497z M1302.892,491.498
	c-3.719,0-6.732-3.014-6.732-6.732c0-3.717,3.017-6.729,6.732-6.729s6.731,3.016,6.731,6.729
	C1309.625,488.484,1306.61,491.498,1302.892,491.498z M1302.892,439.498c-3.719,0-6.732-3.014-6.732-6.732
	c0-3.718,3.017-6.729,6.732-6.729s6.731,3.014,6.731,6.729C1309.625,436.484,1306.61,439.498,1302.892,439.498z M1302.892,387.498
	c-3.719,0-6.732-3.014-6.732-6.732c0-3.718,3.017-6.732,6.732-6.732s6.731,3.014,6.731,6.732
	C1309.625,384.484,1306.61,387.498,1302.892,387.498z M1302.892,335.498c-3.719,0-6.732-3.014-6.732-6.732
	c0-3.718,3.017-6.732,6.732-6.732s6.731,3.014,6.731,6.732C1309.625,332.484,1306.61,335.498,1302.892,335.498z M1302.892,283.498
	c-3.719,0-6.732-3.014-6.732-6.732c0-3.718,3.017-6.732,6.732-6.732s6.731,3.014,6.731,6.732
	C1309.625,280.484,1306.61,283.498,1302.892,283.498z M1302.892,231.498c-3.719,0-6.732-3.014-6.732-6.732
	c0-3.718,3.017-6.732,6.732-6.732s6.731,3.014,6.731,6.732C1309.625,228.484,1306.61,231.498,1302.892,231.498z M1359.463,647.497
	c-3.722,0-6.732-3.014-6.732-6.732c0-3.717,3.014-6.729,6.732-6.729c3.718,0,6.729,3.016,6.729,6.729
	C1366.194,644.483,1363.181,647.497,1359.463,647.497z M1359.463,595.497c-3.722,0-6.732-3.014-6.732-6.732
	c0-3.717,3.014-6.729,6.732-6.729c3.718,0,6.729,3.016,6.729,6.729C1366.194,592.483,1363.181,595.497,1359.463,595.497z
	 M1359.463,543.497c-3.722,0-6.732-3.014-6.732-6.732c0-3.717,3.014-6.729,6.732-6.729c3.718,0,6.729,3.014,6.729,6.729
	C1366.194,540.483,1363.181,543.497,1359.463,543.497z M1359.463,491.498c-3.722,0-6.732-3.014-6.732-6.732
	c0-3.717,3.014-6.729,6.732-6.729c3.718,0,6.729,3.016,6.729,6.729C1366.194,488.484,1363.181,491.498,1359.463,491.498z
	 M1359.463,439.498c-3.722,0-6.732-3.014-6.732-6.732c0-3.718,3.014-6.729,6.732-6.729c3.718,0,6.729,3.014,6.729,6.729
	C1366.194,436.484,1363.181,439.498,1359.463,439.498z M1359.463,387.498c-3.722,0-6.732-3.014-6.732-6.732
	c0-3.718,3.014-6.732,6.732-6.732c3.718,0,6.729,3.014,6.729,6.732C1366.194,384.484,1363.181,387.498,1359.463,387.498z
	 M1359.463,335.498c-3.722,0-6.732-3.014-6.732-6.732c0-3.718,3.014-6.732,6.732-6.732c3.718,0,6.729,3.014,6.729,6.732
	C1366.194,332.484,1363.181,335.498,1359.463,335.498z M1359.463,283.498c-3.722,0-6.732-3.014-6.732-6.732
	c0-3.718,3.014-6.732,6.732-6.732c3.718,0,6.729,3.014,6.729,6.732C1366.194,280.484,1363.181,283.498,1359.463,283.498z
	 M1359.463,231.498c-3.722,0-6.732-3.014-6.732-6.732c0-3.718,3.014-6.732,6.732-6.732c3.718,0,6.729,3.014,6.729,6.732
	C1366.194,228.484,1363.181,231.498,1359.463,231.498z M1416.031,647.497c-3.719,0-6.729-3.014-6.729-6.732
	c0-3.717,3.014-6.729,6.729-6.729s6.732,3.016,6.732,6.729C1422.765,644.483,1419.752,647.497,1416.031,647.497z M1416.031,595.497
	c-3.719,0-6.729-3.014-6.729-6.732c0-3.717,3.014-6.729,6.729-6.729s6.732,3.016,6.732,6.729
	C1422.765,592.483,1419.752,595.497,1416.031,595.497z M1416.031,543.497c-3.719,0-6.729-3.014-6.729-6.732
	c0-3.717,3.014-6.729,6.729-6.729s6.732,3.014,6.732,6.729C1422.765,540.483,1419.752,543.497,1416.031,543.497z M1416.031,491.498
	c-3.719,0-6.729-3.014-6.729-6.732c0-3.717,3.014-6.729,6.729-6.729s6.732,3.016,6.732,6.729
	C1422.765,488.484,1419.752,491.498,1416.031,491.498z M1416.031,439.498c-3.719,0-6.729-3.014-6.729-6.732
	c0-3.718,3.014-6.729,6.729-6.729s6.732,3.014,6.732,6.729C1422.764,436.484,1419.752,439.498,1416.031,439.498z M1416.031,387.498
	c-3.719,0-6.729-3.014-6.729-6.732c0-3.718,3.014-6.732,6.729-6.732s6.732,3.014,6.732,6.732
	C1422.764,384.484,1419.752,387.498,1416.031,387.498z M1416.031,335.498c-3.719,0-6.729-3.014-6.729-6.732
	c0-3.718,3.014-6.732,6.729-6.732s6.732,3.014,6.732,6.732C1422.764,332.484,1419.752,335.498,1416.031,335.498z M1416.031,283.498
	c-3.719,0-6.729-3.014-6.729-6.732c0-3.718,3.014-6.732,6.729-6.732s6.732,3.014,6.732,6.732
	C1422.764,280.484,1419.752,283.498,1416.031,283.498z M1416.031,231.498c-3.719,0-6.729-3.014-6.729-6.732
	c0-3.718,3.014-6.732,6.729-6.732s6.732,3.014,6.732,6.732C1422.764,228.484,1419.752,231.498,1416.031,231.498z M1416.031,179.498
	c-3.719,0-6.729-3.014-6.729-6.732c0-3.718,3.014-6.732,6.729-6.732s6.732,3.014,6.732,6.732
	C1422.764,176.484,1419.752,179.498,1416.031,179.498z M1472.603,699.497c-3.719,0-6.732-3.014-6.732-6.732
	c0-3.717,3.017-6.729,6.732-6.729s6.732,3.016,6.732,6.729C1479.336,696.483,1476.321,699.497,1472.603,699.497z M1472.603,647.497
	c-3.719,0-6.732-3.014-6.732-6.732c0-3.717,3.017-6.729,6.732-6.729s6.732,3.016,6.732,6.729
	C1479.336,644.483,1476.321,647.497,1472.603,647.497z M1472.603,595.497c-3.719,0-6.732-3.014-6.732-6.732
	c0-3.717,3.017-6.729,6.732-6.729s6.732,3.016,6.732,6.729C1479.336,592.483,1476.321,595.497,1472.603,595.497z M1472.603,543.497
	c-3.719,0-6.732-3.014-6.732-6.732c0-3.717,3.017-6.729,6.732-6.729s6.732,3.014,6.732,6.729
	C1479.336,540.483,1476.321,543.497,1472.603,543.497z M1472.603,491.498c-3.719,0-6.732-3.014-6.732-6.732
	c0-3.717,3.017-6.729,6.732-6.729s6.732,3.016,6.732,6.729C1479.336,488.484,1476.321,491.498,1472.603,491.498z M1472.603,439.498
	c-3.719,0-6.732-3.014-6.732-6.732c0-3.718,3.017-6.729,6.732-6.729s6.732,3.014,6.732,6.729
	C1479.336,436.484,1476.321,439.498,1472.603,439.498z M1472.603,387.498c-3.719,0-6.732-3.014-6.732-6.732
	c0-3.718,3.017-6.732,6.732-6.732s6.732,3.014,6.732,6.732C1479.336,384.484,1476.321,387.498,1472.603,387.498z M1472.603,335.498
	c-3.719,0-6.732-3.014-6.732-6.732c0-3.718,3.017-6.732,6.732-6.732s6.732,3.014,6.732,6.732
	C1479.336,332.484,1476.321,335.498,1472.603,335.498z M1472.603,283.498c-3.719,0-6.732-3.014-6.732-6.732
	c0-3.718,3.017-6.732,6.732-6.732s6.732,3.014,6.732,6.732C1479.336,280.484,1476.321,283.498,1472.603,283.498z M1472.603,231.498
	c-3.719,0-6.732-3.014-6.732-6.732c0-3.718,3.017-6.732,6.732-6.732s6.732,3.014,6.732,6.732
	C1479.336,228.484,1476.321,231.498,1472.603,231.498z M1472.603,179.498c-3.719,0-6.732-3.014-6.732-6.732
	c0-3.718,3.017-6.732,6.732-6.732s6.732,3.014,6.732,6.732C1479.336,176.484,1476.321,179.498,1472.603,179.498z M1529.174,699.497
	c-3.722,0-6.732-3.014-6.732-6.732c0-3.717,3.014-6.729,6.732-6.729c3.718,0,6.729,3.016,6.729,6.729
	C1535.905,696.483,1532.892,699.497,1529.174,699.497z M1529.174,647.497c-3.722,0-6.732-3.014-6.732-6.732
	c0-3.717,3.014-6.729,6.732-6.729c3.718,0,6.729,3.016,6.729,6.729C1535.905,644.483,1532.892,647.497,1529.174,647.497z
	 M1529.174,595.497c-3.722,0-6.732-3.014-6.732-6.732c0-3.717,3.014-6.729,6.732-6.729c3.718,0,6.729,3.016,6.729,6.729
	C1535.905,592.483,1532.892,595.497,1529.174,595.497z M1529.174,543.497c-3.722,0-6.732-3.014-6.732-6.732
	c0-3.717,3.014-6.729,6.732-6.729c3.718,0,6.729,3.014,6.729,6.729C1535.905,540.483,1532.892,543.497,1529.174,543.497z
	 M1529.174,491.498c-3.722,0-6.732-3.014-6.732-6.732c0-3.717,3.014-6.729,6.732-6.729c3.718,0,6.729,3.016,6.729,6.729
	C1535.905,488.484,1532.892,491.498,1529.174,491.498z M1529.174,439.498c-3.722,0-6.732-3.014-6.732-6.732
	c0-3.718,3.014-6.729,6.732-6.729c3.718,0,6.729,3.014,6.729,6.729C1535.905,436.484,1532.892,439.498,1529.174,439.498z
	 M1529.174,387.498c-3.722,0-6.732-3.014-6.732-6.732c0-3.718,3.014-6.732,6.732-6.732c3.718,0,6.729,3.014,6.729,6.732
	C1535.905,384.484,1532.892,387.498,1529.174,387.498z M1529.174,335.498c-3.722,0-6.732-3.014-6.732-6.732
	c0-3.718,3.014-6.732,6.732-6.732c3.718,0,6.729,3.014,6.729,6.732C1535.905,332.484,1532.892,335.498,1529.174,335.498z
	 M1529.174,283.498c-3.722,0-6.732-3.014-6.732-6.732c0-3.718,3.014-6.732,6.732-6.732c3.718,0,6.729,3.014,6.729,6.732
	C1535.905,280.484,1532.892,283.498,1529.174,283.498z M1529.174,231.498c-3.722,0-6.732-3.014-6.732-6.732
	c0-3.718,3.014-6.732,6.732-6.732c3.718,0,6.729,3.014,6.729,6.732C1535.905,228.484,1532.892,231.498,1529.174,231.498z
	 M1529.174,179.498c-3.722,0-6.732-3.014-6.732-6.732c0-3.718,3.014-6.732,6.732-6.732c3.718,0,6.729,3.014,6.729,6.732
	C1535.905,176.484,1532.892,179.498,1529.174,179.498z M1529.174,127.498c-3.722,0-6.732-3.014-6.732-6.732
	c0-3.718,3.014-6.732,6.732-6.732c3.718,0,6.729,3.014,6.729,6.732C1535.905,124.484,1532.892,127.498,1529.174,127.498z
	 M1585.741,751.497c-3.719,0-6.729-3.014-6.729-6.732c0-3.717,3.014-6.729,6.729-6.729c3.72,0,6.732,3.016,6.732,6.729
	C1592.477,748.483,1589.463,751.497,1585.741,751.497z M1585.741,699.497c-3.719,0-6.729-3.014-6.729-6.732
	c0-3.717,3.014-6.729,6.729-6.729c3.72,0,6.732,3.016,6.732,6.729C1592.477,696.483,1589.463,699.497,1585.741,699.497z
	 M1585.741,647.497c-3.719,0-6.729-3.014-6.729-6.732c0-3.717,3.014-6.729,6.729-6.729c3.72,0,6.732,3.016,6.732,6.729
	C1592.477,644.483,1589.463,647.497,1585.741,647.497z M1585.741,595.497c-3.719,0-6.729-3.014-6.729-6.732
	c0-3.717,3.014-6.729,6.729-6.729c3.72,0,6.732,3.016,6.732,6.729C1592.477,592.483,1589.463,595.497,1585.741,595.497z
	 M1585.741,543.497c-3.719,0-6.729-3.014-6.729-6.732c0-3.717,3.014-6.729,6.729-6.729c3.72,0,6.732,3.014,6.732,6.729
	C1592.477,540.483,1589.463,543.497,1585.741,543.497z M1585.741,491.498c-3.719,0-6.729-3.014-6.729-6.732
	c0-3.717,3.014-6.729,6.729-6.729c3.72,0,6.732,3.016,6.732,6.729C1592.477,488.484,1589.463,491.498,1585.741,491.498z
	 M1585.741,439.498c-3.719,0-6.729-3.014-6.729-6.732c0-3.718,3.014-6.729,6.729-6.729c3.72,0,6.732,3.014,6.732,6.729
	C1592.476,436.484,1589.463,439.498,1585.741,439.498z M1585.741,387.498c-3.719,0-6.729-3.014-6.729-6.732
	c0-3.718,3.014-6.732,6.729-6.732c3.72,0,6.732,3.014,6.732,6.732C1592.476,384.484,1589.463,387.498,1585.741,387.498z
	 M1585.741,335.498c-3.719,0-6.729-3.014-6.729-6.732c0-3.718,3.014-6.732,6.729-6.732c3.72,0,6.732,3.014,6.732,6.732
	C1592.476,332.484,1589.463,335.498,1585.741,335.498z M1585.741,283.498c-3.719,0-6.729-3.014-6.729-6.732
	c0-3.718,3.014-6.732,6.729-6.732c3.72,0,6.732,3.014,6.732,6.732C1592.476,280.484,1589.463,283.498,1585.741,283.498z
	 M1585.741,231.498c-3.719,0-6.729-3.014-6.729-6.732c0-3.718,3.014-6.732,6.729-6.732c3.72,0,6.732,3.014,6.732,6.732
	C1592.476,228.484,1589.463,231.498,1585.741,231.498z M1585.741,179.498c-3.719,0-6.729-3.014-6.729-6.732
	c0-3.718,3.014-6.732,6.729-6.732c3.72,0,6.732,3.014,6.732,6.732C1592.476,176.484,1589.463,179.498,1585.741,179.498z
	 M1585.741,127.498c-3.719,0-6.729-3.014-6.729-6.732c0-3.718,3.014-6.732,6.729-6.732c3.72,0,6.732,3.014,6.732,6.732
	C1592.476,124.484,1589.463,127.498,1585.741,127.498z M1585.741,75.498c-3.719,0-6.729-3.014-6.729-6.732
	c0-3.718,3.014-6.732,6.729-6.732c3.72,0,6.732,3.014,6.732,6.732C1592.476,72.484,1589.463,75.498,1585.741,75.498z
	 M1642.314,751.497c-3.719,0-6.732-3.014-6.732-6.732c0-3.717,3.017-6.729,6.732-6.729s6.732,3.016,6.732,6.729
	C1649.047,748.483,1646.031,751.497,1642.314,751.497z M1642.314,699.497c-3.719,0-6.732-3.014-6.732-6.732
	c0-3.717,3.017-6.729,6.732-6.729s6.732,3.016,6.732,6.729C1649.047,696.483,1646.031,699.497,1642.314,699.497z M1642.314,647.497
	c-3.719,0-6.732-3.014-6.732-6.732c0-3.717,3.017-6.729,6.732-6.729s6.732,3.016,6.732,6.729
	C1649.047,644.483,1646.031,647.497,1642.314,647.497z M1642.314,595.497c-3.719,0-6.732-3.014-6.732-6.732
	c0-3.717,3.017-6.729,6.732-6.729s6.732,3.016,6.732,6.729C1649.047,592.483,1646.031,595.497,1642.314,595.497z M1642.314,543.497
	c-3.719,0-6.732-3.014-6.732-6.732c0-3.717,3.017-6.729,6.732-6.729s6.732,3.014,6.732,6.729
	C1649.047,540.483,1646.031,543.497,1642.314,543.497z M1642.314,491.498c-3.719,0-6.732-3.014-6.732-6.732
	c0-3.717,3.017-6.729,6.732-6.729s6.732,3.016,6.732,6.729C1649.047,488.484,1646.031,491.498,1642.314,491.498z M1642.314,439.498
	c-3.719,0-6.732-3.014-6.732-6.732c0-3.718,3.017-6.729,6.732-6.729s6.732,3.014,6.732,6.729
	C1649.046,436.484,1646.031,439.498,1642.314,439.498z M1642.314,387.498c-3.719,0-6.732-3.014-6.732-6.732
	c0-3.718,3.017-6.732,6.732-6.732s6.732,3.014,6.732,6.732C1649.046,384.484,1646.031,387.498,1642.314,387.498z M1642.314,335.498
	c-3.719,0-6.732-3.014-6.732-6.732c0-3.718,3.017-6.732,6.732-6.732s6.732,3.014,6.732,6.732
	C1649.046,332.484,1646.031,335.498,1642.314,335.498z M1642.314,283.498c-3.719,0-6.732-3.014-6.732-6.732
	c0-3.718,3.017-6.732,6.732-6.732s6.732,3.014,6.732,6.732C1649.046,280.484,1646.031,283.498,1642.314,283.498z M1642.314,231.498
	c-3.719,0-6.732-3.014-6.732-6.732c0-3.718,3.017-6.732,6.732-6.732s6.732,3.014,6.732,6.732
	C1649.046,228.484,1646.031,231.498,1642.314,231.498z M1642.314,179.498c-3.719,0-6.732-3.014-6.732-6.732
	c0-3.718,3.017-6.732,6.732-6.732s6.732,3.014,6.732,6.732C1649.046,176.484,1646.031,179.498,1642.314,179.498z M1642.314,127.498
	c-3.719,0-6.732-3.014-6.732-6.732c0-3.718,3.017-6.732,6.732-6.732s6.732,3.014,6.732,6.732
	C1649.046,124.484,1646.031,127.498,1642.314,127.498z M1642.314,75.498c-3.719,0-6.732-3.014-6.732-6.732
	c0-3.718,3.017-6.732,6.732-6.732s6.732,3.014,6.732,6.732C1649.046,72.484,1646.031,75.498,1642.314,75.498z M1698.885,803.497
	c-3.719,0-6.732-3.014-6.732-6.732c0-3.717,3.014-6.729,6.732-6.729c3.718,0,6.729,3.016,6.729,6.729
	C1705.615,800.483,1702.604,803.497,1698.885,803.497z M1698.885,751.497c-3.719,0-6.732-3.014-6.732-6.732
	c0-3.717,3.014-6.729,6.732-6.729c3.718,0,6.729,3.016,6.729,6.729C1705.615,748.483,1702.604,751.497,1698.885,751.497z
	 M1698.885,699.497c-3.719,0-6.732-3.014-6.732-6.732c0-3.717,3.014-6.729,6.732-6.729c3.718,0,6.729,3.016,6.729,6.729
	C1705.615,696.483,1702.604,699.497,1698.885,699.497z M1698.885,647.497c-3.719,0-6.732-3.014-6.732-6.732
	c0-3.717,3.014-6.729,6.732-6.729c3.718,0,6.729,3.016,6.729,6.729C1705.615,644.483,1702.604,647.497,1698.885,647.497z
	 M1698.885,595.497c-3.719,0-6.732-3.014-6.732-6.732c0-3.717,3.014-6.729,6.732-6.729c3.718,0,6.729,3.016,6.729,6.729
	C1705.615,592.483,1702.604,595.497,1698.885,595.497z M1698.885,543.497c-3.719,0-6.732-3.014-6.732-6.732
	c0-3.717,3.014-6.729,6.732-6.729c3.718,0,6.729,3.014,6.729,6.729C1705.615,540.483,1702.604,543.497,1698.885,543.497z
	 M1698.885,491.498c-3.719,0-6.732-3.014-6.732-6.732c0-3.717,3.014-6.729,6.732-6.729c3.718,0,6.729,3.016,6.729,6.729
	C1705.615,488.484,1702.604,491.498,1698.885,491.498z M1698.885,439.498c-3.719,0-6.732-3.014-6.732-6.732
	c0-3.718,3.014-6.729,6.732-6.729c3.718,0,6.729,3.014,6.729,6.729C1705.615,436.484,1702.604,439.498,1698.885,439.498z
	 M1698.885,387.498c-3.719,0-6.732-3.014-6.732-6.732c0-3.718,3.014-6.732,6.732-6.732c3.718,0,6.729,3.014,6.729,6.732
	C1705.615,384.484,1702.604,387.498,1698.885,387.498z M1698.885,335.498c-3.719,0-6.732-3.014-6.732-6.732
	c0-3.718,3.014-6.732,6.732-6.732c3.718,0,6.729,3.014,6.729,6.732C1705.615,332.484,1702.604,335.498,1698.885,335.498z
	 M1698.885,283.498c-3.719,0-6.732-3.014-6.732-6.732c0-3.718,3.014-6.732,6.732-6.732c3.718,0,6.729,3.014,6.729,6.732
	C1705.615,280.484,1702.604,283.498,1698.885,283.498z M1755.452,803.497c-3.719,0-6.729-3.014-6.729-6.732
	c0-3.717,3.014-6.729,6.729-6.729c3.721,0,6.732,3.016,6.732,6.729C1762.188,800.483,1759.174,803.497,1755.452,803.497z
	 M1755.452,751.497c-3.719,0-6.729-3.014-6.729-6.732c0-3.717,3.014-6.729,6.729-6.729c3.721,0,6.732,3.016,6.732,6.729
	C1762.188,748.483,1759.174,751.497,1755.452,751.497z M1755.452,699.497c-3.719,0-6.729-3.014-6.729-6.732
	c0-3.717,3.014-6.729,6.729-6.729c3.721,0,6.732,3.016,6.732,6.729C1762.188,696.483,1759.174,699.497,1755.452,699.497z
	 M1755.452,647.497c-3.719,0-6.729-3.014-6.729-6.732c0-3.717,3.014-6.729,6.729-6.729c3.721,0,6.732,3.016,6.732,6.729
	C1762.188,644.483,1759.174,647.497,1755.452,647.497z M1755.452,595.497c-3.719,0-6.729-3.014-6.729-6.732
	c0-3.717,3.014-6.729,6.729-6.729c3.721,0,6.732,3.016,6.732,6.729C1762.188,592.483,1759.174,595.497,1755.452,595.497z
	 M1755.452,543.497c-3.719,0-6.729-3.014-6.729-6.732c0-3.717,3.014-6.729,6.729-6.729c3.721,0,6.732,3.014,6.732,6.729
	C1762.188,540.483,1759.174,543.497,1755.452,543.497z M1755.452,491.498c-3.719,0-6.729-3.014-6.729-6.732
	c0-3.717,3.014-6.729,6.729-6.729c3.721,0,6.732,3.016,6.732,6.729C1762.188,488.484,1759.174,491.498,1755.452,491.498z
	 M1755.452,439.498c-3.719,0-6.729-3.014-6.729-6.732c0-3.718,3.014-6.729,6.729-6.729c3.721,0,6.732,3.014,6.732,6.729
	C1762.187,436.484,1759.174,439.498,1755.452,439.498z M1755.452,387.498c-3.719,0-6.729-3.014-6.729-6.732
	c0-3.718,3.014-6.732,6.729-6.732c3.721,0,6.732,3.014,6.732,6.732C1762.187,384.484,1759.174,387.498,1755.452,387.498z
	 M1755.452,335.498c-3.719,0-6.729-3.014-6.729-6.732c0-3.718,3.014-6.732,6.729-6.732c3.721,0,6.732,3.014,6.732,6.732
	C1762.187,332.484,1759.174,335.498,1755.452,335.498z M1755.452,283.498c-3.719,0-6.729-3.014-6.729-6.732
	c0-3.718,3.014-6.732,6.729-6.732c3.721,0,6.732,3.014,6.732,6.732C1762.187,280.484,1759.174,283.498,1755.452,283.498z
	 M1812.025,803.497c-3.719,0-6.729-3.014-6.729-6.732c0-3.717,3.014-6.729,6.729-6.729s6.732,3.016,6.732,6.729
	C1818.758,800.483,1815.741,803.497,1812.025,803.497z M1812.025,751.497c-3.719,0-6.729-3.014-6.729-6.732
	c0-3.717,3.014-6.729,6.729-6.729s6.732,3.016,6.732,6.729C1818.758,748.483,1815.741,751.497,1812.025,751.497z M1812.025,699.497
	c-3.719,0-6.729-3.014-6.729-6.732c0-3.717,3.014-6.729,6.729-6.729s6.732,3.016,6.732,6.729
	C1818.758,696.483,1815.741,699.497,1812.025,699.497z M1812.025,647.497c-3.719,0-6.729-3.014-6.729-6.732
	c0-3.717,3.014-6.729,6.729-6.729s6.732,3.016,6.732,6.729C1818.758,644.483,1815.741,647.497,1812.025,647.497z M1812.025,595.497
	c-3.719,0-6.729-3.014-6.729-6.732c0-3.717,3.014-6.729,6.729-6.729s6.732,3.016,6.732,6.729
	C1818.758,592.483,1815.741,595.497,1812.025,595.497z M1812.025,543.497c-3.719,0-6.729-3.014-6.729-6.732
	c0-3.717,3.014-6.729,6.729-6.729s6.732,3.014,6.732,6.729C1818.758,540.483,1815.741,543.497,1812.025,543.497z M1812.025,491.498
	c-3.719,0-6.729-3.014-6.729-6.732c0-3.717,3.014-6.729,6.729-6.729s6.732,3.016,6.732,6.729
	C1818.758,488.484,1815.741,491.498,1812.025,491.498z M1812.025,439.498c-3.719,0-6.729-3.014-6.729-6.732
	c0-3.718,3.014-6.729,6.729-6.729s6.732,3.014,6.732,6.729C1818.757,436.484,1815.741,439.498,1812.025,439.498z M1812.025,387.498
	c-3.719,0-6.729-3.014-6.729-6.732c0-3.718,3.014-6.732,6.729-6.732s6.732,3.014,6.732,6.732
	C1818.757,384.484,1815.741,387.498,1812.025,387.498z M1812.025,335.498c-3.719,0-6.729-3.014-6.729-6.732
	c0-3.718,3.014-6.732,6.729-6.732s6.732,3.014,6.732,6.732C1818.757,332.484,1815.741,335.498,1812.025,335.498z M1812.025,283.498
	c-3.719,0-6.729-3.014-6.729-6.732c0-3.718,3.014-6.732,6.729-6.732s6.732,3.014,6.732,6.732
	C1818.757,280.484,1815.741,283.498,1812.025,283.498z M1868.596,803.497c-3.719,0-6.732-3.014-6.732-6.732
	c0-3.717,3.014-6.729,6.732-6.729c3.718,0,6.729,3.016,6.729,6.729C1875.325,800.483,1872.314,803.497,1868.596,803.497z
	 M1868.596,751.497c-3.719,0-6.732-3.014-6.732-6.732c0-3.717,3.014-6.729,6.732-6.729c3.718,0,6.729,3.016,6.729,6.729
	C1875.325,748.483,1872.314,751.497,1868.596,751.497z M1868.596,699.497c-3.719,0-6.732-3.014-6.732-6.732
	c0-3.717,3.014-6.729,6.732-6.729c3.718,0,6.729,3.016,6.729,6.729C1875.325,696.483,1872.314,699.497,1868.596,699.497z
	 M1868.596,647.497c-3.719,0-6.732-3.014-6.732-6.732c0-3.717,3.014-6.729,6.732-6.729c3.718,0,6.729,3.016,6.729,6.729
	C1875.325,644.483,1872.314,647.497,1868.596,647.497z M1868.596,595.497c-3.719,0-6.732-3.014-6.732-6.732
	c0-3.717,3.014-6.729,6.732-6.729c3.718,0,6.729,3.016,6.729,6.729C1875.325,592.483,1872.314,595.497,1868.596,595.497z
	 M1868.596,543.497c-3.719,0-6.732-3.014-6.732-6.732c0-3.717,3.014-6.729,6.732-6.729c3.718,0,6.729,3.014,6.729,6.729
	C1875.325,540.483,1872.314,543.497,1868.596,543.497z M1868.596,491.498c-3.719,0-6.732-3.014-6.732-6.732
	c0-3.717,3.014-6.729,6.732-6.729c3.718,0,6.729,3.016,6.729,6.729C1875.325,488.484,1872.314,491.498,1868.596,491.498z
	 M1868.596,439.498c-3.719,0-6.732-3.014-6.732-6.732c0-3.718,3.014-6.729,6.732-6.729c3.718,0,6.729,3.014,6.729,6.729
	C1875.325,436.484,1872.314,439.498,1868.596,439.498z M1868.596,387.498c-3.719,0-6.732-3.014-6.732-6.732
	c0-3.718,3.014-6.732,6.732-6.732c3.718,0,6.729,3.014,6.729,6.732C1875.325,384.484,1872.314,387.498,1868.596,387.498z
	 M1925.166,803.497c-3.722,0-6.732-3.014-6.732-6.732c0-3.717,3.014-6.729,6.732-6.729c3.718,0,6.729,3.016,6.729,6.729
	C1931.898,800.483,1928.885,803.497,1925.166,803.497z M1925.166,751.497c-3.722,0-6.732-3.014-6.732-6.732
	c0-3.717,3.014-6.729,6.732-6.729c3.718,0,6.729,3.016,6.729,6.729C1931.898,748.483,1928.885,751.497,1925.166,751.497z
	 M1925.166,699.497c-3.722,0-6.732-3.014-6.732-6.732c0-3.717,3.014-6.729,6.732-6.729c3.718,0,6.729,3.016,6.729,6.729
	C1931.898,696.483,1928.885,699.497,1925.166,699.497z M1925.166,647.497c-3.722,0-6.732-3.014-6.732-6.732
	c0-3.717,3.014-6.729,6.732-6.729c3.718,0,6.729,3.016,6.729,6.729C1931.898,644.483,1928.885,647.497,1925.166,647.497z
	 M1925.166,595.497c-3.722,0-6.732-3.014-6.732-6.732c0-3.717,3.014-6.729,6.732-6.729c3.718,0,6.729,3.016,6.729,6.729
	C1931.898,592.483,1928.885,595.497,1925.166,595.497z M1925.166,543.497c-3.722,0-6.732-3.014-6.732-6.732
	c0-3.717,3.014-6.729,6.732-6.729c3.718,0,6.729,3.014,6.729,6.729C1931.898,540.483,1928.885,543.497,1925.166,543.497z
	 M1925.166,491.498c-3.722,0-6.732-3.014-6.732-6.732c0-3.717,3.014-6.729,6.732-6.729c3.718,0,6.729,3.016,6.729,6.729
	C1931.898,488.484,1928.885,491.498,1925.166,491.498z M1925.166,439.498c-3.722,0-6.732-3.014-6.732-6.732
	c0-3.718,3.014-6.729,6.732-6.729c3.718,0,6.729,3.014,6.729,6.729C1931.898,436.484,1928.885,439.498,1925.166,439.498z
	 M1981.736,751.497c-3.719,0-6.729-3.014-6.729-6.732c0-3.717,3.014-6.729,6.729-6.729s6.732,3.016,6.732,6.729
	C1988.469,748.483,1985.452,751.497,1981.736,751.497z M1981.736,699.497c-3.719,0-6.729-3.014-6.729-6.732
	c0-3.717,3.014-6.729,6.729-6.729s6.732,3.016,6.732,6.729C1988.469,696.483,1985.452,699.497,1981.736,699.497z M1981.736,647.497
	c-3.719,0-6.729-3.014-6.729-6.732c0-3.717,3.014-6.729,6.729-6.729s6.732,3.016,6.732,6.729
	C1988.469,644.483,1985.452,647.497,1981.736,647.497z M1981.736,595.497c-3.719,0-6.729-3.014-6.729-6.732
	c0-3.717,3.014-6.729,6.729-6.729s6.732,3.016,6.732,6.729C1988.469,592.483,1985.452,595.497,1981.736,595.497z M1981.736,543.497
	c-3.719,0-6.729-3.014-6.729-6.732c0-3.717,3.014-6.729,6.729-6.729s6.732,3.014,6.732,6.729
	C1988.469,540.483,1985.452,543.497,1981.736,543.497z M1981.736,491.498c-3.719,0-6.729-3.014-6.729-6.732
	c0-3.717,3.014-6.729,6.729-6.729s6.732,3.016,6.732,6.729C1988.469,488.484,1985.452,491.498,1981.736,491.498z M2038.307,751.497
	c-3.719,0-6.732-3.014-6.732-6.732c0-3.717,3.017-6.729,6.732-6.729s6.732,3.016,6.732,6.729
	C2045.036,748.483,2042.025,751.497,2038.307,751.497z M2038.307,699.497c-3.719,0-6.732-3.014-6.732-6.732
	c0-3.717,3.017-6.729,6.732-6.729s6.732,3.016,6.732,6.729C2045.036,696.483,2042.025,699.497,2038.307,699.497z M2038.307,647.497
	c-3.719,0-6.732-3.014-6.732-6.732c0-3.717,3.017-6.729,6.732-6.729s6.732,3.016,6.732,6.729
	C2045.036,644.483,2042.025,647.497,2038.307,647.497z M2038.307,595.497c-3.719,0-6.732-3.014-6.732-6.732
	c0-3.717,3.017-6.729,6.732-6.729s6.732,3.016,6.732,6.729C2045.036,592.483,2042.025,595.497,2038.307,595.497z M2038.307,543.497
	c-3.719,0-6.732-3.014-6.732-6.732c0-3.717,3.017-6.729,6.732-6.729s6.732,3.014,6.732,6.729
	C2045.036,540.483,2042.025,543.497,2038.307,543.497z M2094.877,699.497c-3.722,0-6.732-3.014-6.732-6.732
	c0-3.717,3.014-6.729,6.732-6.729c3.718,0,6.729,3.016,6.729,6.729C2101.609,696.483,2098.596,699.497,2094.877,699.497z
	 M2094.877,647.497c-3.722,0-6.732-3.014-6.732-6.732c0-3.717,3.014-6.729,6.732-6.729c3.718,0,6.729,3.016,6.729,6.729
	C2101.609,644.483,2098.596,647.497,2094.877,647.497z M2094.877,595.497c-3.722,0-6.732-3.014-6.732-6.732
	c0-3.717,3.014-6.729,6.732-6.729c3.718,0,6.729,3.016,6.729,6.729C2101.609,592.483,2098.596,595.497,2094.877,595.497z
	 M2151.447,699.497c-3.719,0-6.729-3.014-6.729-6.732c0-3.717,3.014-6.729,6.729-6.729c3.718,0,6.732,3.016,6.732,6.729
	C2158.18,696.483,2155.166,699.497,2151.447,699.497z M2151.447,647.497c-3.719,0-6.729-3.014-6.729-6.732
	c0-3.717,3.014-6.729,6.729-6.729c3.718,0,6.732,3.016,6.732,6.729C2158.18,644.483,2155.166,647.497,2151.447,647.497z"/>
</svg>
