<?xml version="1.0" encoding="utf-8"?>
<!-- Generator: Adobe Illustrator 16.0.0, SVG Export Plug-In . SVG Version: 6.00 Build 0)  -->
<!DOCTYPE svg PUBLIC "-//W3C//DTD SVG 1.1//EN" "http://www.w3.org/Graphics/SVG/1.1/DTD/svg11.dtd">
<svg version="1.1" id="Layer_1" xmlns="http://www.w3.org/2000/svg" xmlns:xlink="http://www.w3.org/1999/xlink" x="0px" y="0px"
	 width="3086.02px" height="1061.465px" viewBox="0 0 3086.02 1061.465" enable-background="new 0 0 3086.02 1061.465"
	 xml:space="preserve">
<path fill="none" stroke="#000001" stroke-linejoin="round" stroke-miterlimit="10" d="M935.614,682.473
	c3.719,0,6.731,3.015,6.731,6.731s-3.015,6.729-6.731,6.729s-6.729-3.013-6.729-6.729S931.897,682.473,935.614,682.473z
	 M935.614,630.473c3.719,0,6.731,3.015,6.731,6.731s-3.015,6.729-6.731,6.729s-6.729-3.013-6.729-6.729
	S931.897,630.473,935.614,630.473z M992.185,747.936c-3.719,0-6.729-3.014-6.729-6.729s3.019-6.732,6.729-6.732
	c3.721,0,6.731,3.021,6.731,6.732C998.916,744.922,995.904,747.936,992.185,747.936z M992.185,695.936
	c-3.719,0-6.729-3.014-6.729-6.729s3.019-6.732,6.729-6.732c3.721,0,6.731,3.021,6.731,6.732
	C998.916,692.922,995.904,695.936,992.185,695.936z M992.185,643.936c-3.719,0-6.729-3.014-6.729-6.729s3.019-6.732,6.729-6.732
	c3.721,0,6.731,3.021,6.731,6.732C998.916,640.922,995.904,643.936,992.185,643.936z M992.185,591.936
	c-3.719,0-6.729-3.014-6.729-6.729s3.019-6.732,6.729-6.732c3.721,0,6.731,3.021,6.731,6.732
	C998.916,588.922,995.904,591.936,992.185,591.936z M1048.755,734.473c3.717,0,6.729,3.015,6.729,6.731s-3.014,6.729-6.729,6.729
	c-3.719,0-6.731-3.013-6.731-6.729S1045.036,734.473,1048.755,734.473z M1048.755,682.473c3.717,0,6.729,3.015,6.729,6.731
	s-3.014,6.729-6.729,6.729c-3.719,0-6.731-3.013-6.731-6.729S1045.036,682.473,1048.755,682.473z M1048.755,630.473
	c3.717,0,6.729,3.015,6.729,6.731s-3.014,6.729-6.729,6.729c-3.719,0-6.731-3.013-6.731-6.729S1045.036,630.473,1048.755,630.473z
	 M1048.755,578.473c3.717,0,6.729,3.015,6.729,6.731s-3.014,6.729-6.729,6.729c-3.719,0-6.731-3.013-6.731-6.729
	S1045.036,578.473,1048.755,578.473z M1048.755,526.473c3.717,0,6.729,3.015,6.729,6.731s-3.014,6.729-6.729,6.729
	c-3.719,0-6.731-3.013-6.731-6.729S1045.036,526.473,1048.755,526.473z M1105.323,734.473c3.719,0,6.731,3.015,6.731,6.731
	s-3.015,6.729-6.731,6.729s-6.729-3.013-6.729-6.729S1101.606,734.473,1105.323,734.473z M1105.323,682.473
	c3.719,0,6.731,3.015,6.731,6.731s-3.015,6.729-6.731,6.729s-6.729-3.013-6.729-6.729S1101.606,682.473,1105.323,682.473z
	 M1105.323,630.473c3.719,0,6.731,3.015,6.731,6.731s-3.015,6.729-6.731,6.729s-6.729-3.013-6.729-6.729
	S1101.606,630.473,1105.323,630.473z M1105.323,578.473c3.719,0,6.731,3.015,6.731,6.731s-3.015,6.729-6.731,6.729
	s-6.729-3.013-6.729-6.729S1101.606,578.473,1105.323,578.473z M1105.323,526.473c3.719,0,6.731,3.015,6.731,6.731
	s-3.015,6.729-6.731,6.729s-6.729-3.013-6.729-6.729S1101.606,526.473,1105.323,526.473z M1105.323,474.473
	c3.719,0,6.731,3.015,6.731,6.731s-3.015,6.729-6.731,6.729s-6.729-3.013-6.729-6.729S1101.606,474.473,1105.323,474.473z
	 M1161.896,799.936c-3.722,0-6.732-3.014-6.732-6.729s3.019-6.732,6.732-6.732s6.729,3.021,6.729,6.732
	C1168.628,796.922,1165.615,799.936,1161.896,799.936z M1161.896,747.936c-3.722,0-6.732-3.014-6.732-6.729s3.019-6.732,6.732-6.732
	s6.729,3.021,6.729,6.732C1168.628,744.922,1165.615,747.936,1161.896,747.936z M1161.896,695.936c-3.722,0-6.732-3.014-6.732-6.729
	s3.019-6.732,6.732-6.732s6.729,3.021,6.729,6.732C1168.628,692.922,1165.615,695.936,1161.896,695.936z M1161.896,643.936
	c-3.722,0-6.732-3.014-6.732-6.729s3.019-6.732,6.732-6.732s6.729,3.021,6.729,6.732
	C1168.628,640.922,1165.615,643.936,1161.896,643.936z M1161.896,591.936c-3.722,0-6.732-3.014-6.732-6.729s3.019-6.732,6.732-6.732
	s6.729,3.021,6.729,6.732C1168.628,588.922,1165.615,591.936,1161.896,591.936z M1161.896,539.936c-3.722,0-6.732-3.014-6.732-6.729
	s3.019-6.732,6.732-6.732s6.729,3.021,6.729,6.732C1168.628,536.922,1165.615,539.936,1161.896,539.936z M1161.896,487.935
	c-3.722,0-6.732-3.014-6.732-6.729s3.019-6.732,6.732-6.732s6.729,3.021,6.729,6.732
	C1168.628,484.921,1165.615,487.935,1161.896,487.935z M1161.896,435.936c-3.722,0-6.732-3.014-6.732-6.729s3.019-6.732,6.732-6.732
	s6.729,3.021,6.729,6.732S1165.615,435.936,1161.896,435.936z M1218.466,786.473c3.717,0,6.729,3.015,6.729,6.731
	s-3.014,6.729-6.729,6.729c-3.719,0-6.731-3.013-6.731-6.729S1214.748,786.473,1218.466,786.473z M1218.466,734.473
	c3.717,0,6.729,3.015,6.729,6.731s-3.014,6.729-6.729,6.729c-3.719,0-6.731-3.013-6.731-6.729S1214.748,734.473,1218.466,734.473z
	 M1218.466,682.473c3.717,0,6.729,3.015,6.729,6.731s-3.014,6.729-6.729,6.729c-3.719,0-6.731-3.013-6.731-6.729
	S1214.748,682.473,1218.466,682.473z M1218.466,630.473c3.717,0,6.729,3.015,6.729,6.731s-3.014,6.729-6.729,6.729
	c-3.719,0-6.731-3.013-6.731-6.729S1214.748,630.473,1218.466,630.473z M1218.466,578.473c3.717,0,6.729,3.015,6.729,6.731
	s-3.014,6.729-6.729,6.729c-3.719,0-6.731-3.013-6.731-6.729S1214.748,578.473,1218.466,578.473z M1218.466,526.473
	c3.717,0,6.729,3.015,6.729,6.731s-3.014,6.729-6.729,6.729c-3.719,0-6.731-3.013-6.731-6.729S1214.748,526.473,1218.466,526.473z
	 M1218.466,474.473c3.717,0,6.729,3.015,6.729,6.731s-3.014,6.729-6.729,6.729c-3.719,0-6.731-3.013-6.731-6.729
	S1214.748,474.473,1218.466,474.473z M1218.466,422.474c3.717,0,6.729,3.015,6.729,6.731s-3.014,6.729-6.729,6.729
	c-3.719,0-6.731-3.013-6.731-6.729S1214.748,422.474,1218.466,422.474z M1218.466,370.472c3.718,0,6.73,3.014,6.73,6.732
	c0,3.718-3.014,6.732-6.73,6.732c-3.72,0-6.732-3.014-6.732-6.732C1211.734,373.486,1214.746,370.472,1218.466,370.472z
	 M1275.032,786.473c3.718,0,6.731,3.015,6.731,6.731s-3.015,6.729-6.731,6.729s-6.729-3.013-6.729-6.729
	S1271.317,786.473,1275.032,786.473z M1275.032,734.473c3.718,0,6.731,3.015,6.731,6.731s-3.015,6.729-6.731,6.729
	s-6.729-3.013-6.729-6.729S1271.317,734.473,1275.032,734.473z M1275.032,682.473c3.718,0,6.731,3.015,6.731,6.731
	s-3.015,6.729-6.731,6.729s-6.729-3.013-6.729-6.729S1271.317,682.473,1275.032,682.473z M1275.032,630.473
	c3.718,0,6.731,3.015,6.731,6.731s-3.015,6.729-6.731,6.729s-6.729-3.013-6.729-6.729S1271.317,630.473,1275.032,630.473z
	 M1275.032,578.473c3.718,0,6.731,3.015,6.731,6.731s-3.015,6.729-6.731,6.729s-6.729-3.013-6.729-6.729
	S1271.317,578.473,1275.032,578.473z M1275.032,526.473c3.718,0,6.731,3.015,6.731,6.731s-3.015,6.729-6.731,6.729
	s-6.729-3.013-6.729-6.729S1271.317,526.473,1275.032,526.473z M1275.032,474.473c3.718,0,6.731,3.015,6.731,6.731
	s-3.015,6.729-6.731,6.729s-6.729-3.013-6.729-6.729S1271.317,474.473,1275.032,474.473z M1275.032,422.474
	c3.718,0,6.731,3.015,6.731,6.731s-3.015,6.729-6.731,6.729s-6.729-3.013-6.729-6.729S1271.317,422.474,1275.032,422.474z
	 M1275.032,370.472c3.72,0,6.732,3.014,6.732,6.732c0,3.718-3.015,6.732-6.732,6.732s-6.73-3.014-6.73-6.732
	C1268.302,373.486,1271.316,370.472,1275.032,370.472z M1275.032,318.472c3.72,0,6.732,3.014,6.732,6.732
	c0,3.718-3.015,6.732-6.732,6.732s-6.73-3.014-6.73-6.732C1268.302,321.486,1271.316,318.472,1275.032,318.472z M1275.032,266.472
	c3.72,0,6.732,3.014,6.732,6.732c0,3.718-3.015,6.732-6.732,6.732s-6.73-3.014-6.73-6.732
	C1268.302,269.486,1271.316,266.472,1275.032,266.472z M1331.607,799.936c-3.722,0-6.729-3.014-6.729-6.729s3.014-6.732,6.729-6.732
	s6.729,3.021,6.729,6.732C1338.339,796.922,1335.323,799.936,1331.607,799.936z M1331.607,747.936c-3.722,0-6.729-3.014-6.729-6.729
	s3.014-6.732,6.729-6.732s6.729,3.021,6.729,6.732C1338.339,744.922,1335.323,747.936,1331.607,747.936z M1331.607,695.936
	c-3.722,0-6.729-3.014-6.729-6.729s3.014-6.732,6.729-6.732s6.729,3.021,6.729,6.732
	C1338.339,692.922,1335.323,695.936,1331.607,695.936z M1331.607,643.936c-3.722,0-6.729-3.014-6.729-6.729s3.014-6.732,6.729-6.732
	s6.729,3.021,6.729,6.732C1338.339,640.922,1335.323,643.936,1331.607,643.936z M1331.607,591.936c-3.722,0-6.729-3.014-6.729-6.729
	s3.014-6.732,6.729-6.732s6.729,3.021,6.729,6.732C1338.339,588.922,1335.323,591.936,1331.607,591.936z M1331.607,539.936
	c-3.722,0-6.729-3.014-6.729-6.729s3.014-6.732,6.729-6.732s6.729,3.021,6.729,6.732
	C1338.339,536.922,1335.323,539.936,1331.607,539.936z M1331.607,487.935c-3.722,0-6.729-3.014-6.729-6.729s3.014-6.732,6.729-6.732
	s6.729,3.021,6.729,6.732C1338.339,484.921,1335.323,487.935,1331.607,487.935z M1331.607,435.936c-3.722,0-6.729-3.014-6.729-6.729
	s3.014-6.732,6.729-6.732s6.729,3.021,6.729,6.732S1335.323,435.936,1331.607,435.936z M1331.607,383.936
	c-3.722,0-6.729-3.014-6.729-6.731s3.014-6.732,6.729-6.732s6.729,3.015,6.729,6.732
	C1338.339,380.922,1335.323,383.936,1331.607,383.936z M1331.607,331.936c-3.722,0-6.729-3.014-6.729-6.731s3.014-6.732,6.729-6.732
	s6.729,3.015,6.729,6.732C1338.339,328.922,1335.323,331.936,1331.607,331.936z M1331.607,279.936c-3.722,0-6.729-3.014-6.729-6.732
	c0-3.718,3.014-6.732,6.729-6.732s6.729,3.014,6.729,6.732C1338.339,276.922,1335.323,279.936,1331.607,279.936z M1388.177,786.473
	c3.717,0,6.729,3.015,6.729,6.731s-3.014,6.729-6.729,6.729c-3.718,0-6.731-3.013-6.731-6.729S1384.459,786.473,1388.177,786.473z
	 M1388.177,734.473c3.717,0,6.729,3.015,6.729,6.731s-3.014,6.729-6.729,6.729c-3.718,0-6.731-3.013-6.731-6.729
	S1384.459,734.473,1388.177,734.473z M1388.177,682.473c3.717,0,6.729,3.015,6.729,6.731s-3.014,6.729-6.729,6.729
	c-3.718,0-6.731-3.013-6.731-6.729S1384.459,682.473,1388.177,682.473z M1388.177,630.473c3.717,0,6.729,3.015,6.729,6.731
	s-3.014,6.729-6.729,6.729c-3.718,0-6.731-3.013-6.731-6.729S1384.459,630.473,1388.177,630.473z M1388.177,578.473
	c3.717,0,6.729,3.015,6.729,6.731s-3.014,6.729-6.729,6.729c-3.718,0-6.731-3.013-6.731-6.729S1384.459,578.473,1388.177,578.473z
	 M1388.177,526.473c3.717,0,6.729,3.015,6.729,6.731s-3.014,6.729-6.729,6.729c-3.718,0-6.731-3.013-6.731-6.729
	S1384.459,526.473,1388.177,526.473z M1388.177,474.473c3.717,0,6.729,3.015,6.729,6.731s-3.014,6.729-6.729,6.729
	c-3.718,0-6.731-3.013-6.731-6.729S1384.459,474.473,1388.177,474.473z M1388.177,422.474c3.717,0,6.729,3.015,6.729,6.731
	s-3.014,6.729-6.729,6.729c-3.718,0-6.731-3.013-6.731-6.729S1384.459,422.474,1388.177,422.474z M1388.177,370.472
	c3.718,0,6.73,3.014,6.73,6.732c0,3.718-3.014,6.732-6.73,6.732s-6.732-3.014-6.732-6.732
	C1381.445,373.486,1384.459,370.472,1388.177,370.472z M1388.177,318.472c3.718,0,6.73,3.014,6.73,6.732
	c0,3.718-3.014,6.732-6.73,6.732s-6.732-3.014-6.732-6.732C1381.445,321.486,1384.459,318.472,1388.177,318.472z M1388.177,266.472
	c3.718,0,6.73,3.014,6.73,6.732c0,3.718-3.014,6.732-6.73,6.732s-6.732-3.014-6.732-6.732
	C1381.445,269.486,1384.459,266.472,1388.177,266.472z M1444.748,734.473c3.717,0,6.729,3.015,6.729,6.731s-3.014,6.729-6.729,6.729
	c-3.719,0-6.731-3.013-6.731-6.729S1441.031,734.473,1444.748,734.473z M1444.748,682.473c3.717,0,6.729,3.015,6.729,6.731
	s-3.014,6.729-6.729,6.729c-3.719,0-6.731-3.013-6.731-6.729S1441.031,682.473,1444.748,682.473z M1444.748,630.473
	c3.717,0,6.729,3.015,6.729,6.731s-3.014,6.729-6.729,6.729c-3.719,0-6.731-3.013-6.731-6.729S1441.031,630.473,1444.748,630.473z
	 M1444.748,578.473c3.717,0,6.729,3.015,6.729,6.731s-3.014,6.729-6.729,6.729c-3.719,0-6.731-3.013-6.731-6.729
	S1441.031,578.473,1444.748,578.473z M1444.748,526.473c3.717,0,6.729,3.015,6.729,6.731s-3.014,6.729-6.729,6.729
	c-3.719,0-6.731-3.013-6.731-6.729S1441.031,526.473,1444.748,526.473z M1444.748,474.473c3.717,0,6.729,3.015,6.729,6.731
	s-3.014,6.729-6.729,6.729c-3.719,0-6.731-3.013-6.731-6.729S1441.031,474.473,1444.748,474.473z M1444.748,422.474
	c3.717,0,6.729,3.015,6.729,6.731s-3.014,6.729-6.729,6.729c-3.719,0-6.731-3.013-6.731-6.729S1441.031,422.474,1444.748,422.474z
	 M1444.748,370.472c3.718,0,6.73,3.014,6.73,6.732c0,3.718-3.014,6.732-6.73,6.732c-3.72,0-6.732-3.014-6.732-6.732
	C1438.016,373.486,1441.03,370.472,1444.748,370.472z M1444.748,318.472c3.718,0,6.73,3.014,6.73,6.732
	c0,3.718-3.014,6.732-6.73,6.732c-3.72,0-6.732-3.014-6.732-6.732C1438.016,321.486,1441.03,318.472,1444.748,318.472z
	 M1444.748,266.472c3.718,0,6.73,3.014,6.73,6.732c0,3.718-3.014,6.732-6.73,6.732c-3.72,0-6.732-3.014-6.732-6.732
	C1438.016,269.486,1441.03,266.472,1444.748,266.472z M1444.748,214.472c3.718,0,6.73,3.014,6.73,6.732
	c0,3.718-3.014,6.732-6.73,6.732c-3.72,0-6.732-3.014-6.732-6.732C1438.016,217.486,1441.03,214.472,1444.748,214.472z
	 M1444.748,162.472c3.718,0,6.73,3.014,6.73,6.732c0,3.718-3.014,6.732-6.73,6.732c-3.72,0-6.732-3.014-6.732-6.732
	C1438.016,165.486,1441.03,162.472,1444.748,162.472z M1444.748,110.472c3.718,0,6.73,3.014,6.73,6.732
	c0,3.718-3.014,6.732-6.73,6.732c-3.72,0-6.732-3.014-6.732-6.732C1438.016,113.486,1441.03,110.472,1444.748,110.472z
	 M1444.748,58.472c3.718,0,6.73,3.014,6.73,6.732c0,3.718-3.014,6.732-6.73,6.732c-3.72,0-6.732-3.014-6.732-6.732
	C1438.016,61.486,1441.03,58.472,1444.748,58.472z M1501.317,747.936c-3.722,0-6.732-3.014-6.732-6.729s3.019-6.732,6.732-6.732
	s6.729,3.021,6.729,6.732C1508.05,744.922,1505.031,747.936,1501.317,747.936z M1501.317,695.936c-3.722,0-6.732-3.014-6.732-6.729
	s3.019-6.732,6.732-6.732s6.729,3.021,6.729,6.732C1508.05,692.922,1505.031,695.936,1501.317,695.936z M1501.317,643.936
	c-3.722,0-6.732-3.014-6.732-6.729s3.019-6.732,6.732-6.732s6.729,3.021,6.729,6.732
	C1508.05,640.922,1505.031,643.936,1501.317,643.936z M1501.317,591.936c-3.722,0-6.732-3.014-6.732-6.729s3.019-6.732,6.732-6.732
	s6.729,3.021,6.729,6.732C1508.05,588.922,1505.031,591.936,1501.317,591.936z M1501.317,539.936c-3.722,0-6.732-3.014-6.732-6.729
	s3.019-6.732,6.732-6.732s6.729,3.021,6.729,6.732C1508.05,536.922,1505.031,539.936,1501.317,539.936z M1501.317,487.935
	c-3.722,0-6.732-3.014-6.732-6.729s3.019-6.732,6.732-6.732s6.729,3.021,6.729,6.732
	C1508.05,484.921,1505.031,487.935,1501.317,487.935z M1501.317,435.936c-3.722,0-6.732-3.014-6.732-6.729s3.019-6.732,6.732-6.732
	s6.729,3.021,6.729,6.732S1505.031,435.936,1501.317,435.936z M1501.317,383.936c-3.722,0-6.732-3.014-6.732-6.731
	s3.019-6.732,6.732-6.732s6.729,3.015,6.729,6.732C1508.049,380.922,1505.031,383.936,1501.317,383.936z M1501.317,331.936
	c-3.722,0-6.732-3.014-6.732-6.731s3.019-6.732,6.732-6.732s6.729,3.015,6.729,6.732
	C1508.049,328.922,1505.031,331.936,1501.317,331.936z M1501.317,279.936c-3.722,0-6.732-3.014-6.732-6.732
	c0-3.718,3.019-6.732,6.732-6.732s6.729,3.014,6.729,6.732C1508.049,276.922,1505.031,279.936,1501.317,279.936z M1501.317,227.936
	c-3.722,0-6.732-3.014-6.732-6.732c0-3.718,3.019-6.732,6.732-6.732s6.729,3.014,6.729,6.732
	C1508.049,224.922,1505.031,227.936,1501.317,227.936z M1501.317,175.936c-3.722,0-6.732-3.014-6.732-6.732
	c0-3.718,3.019-6.732,6.732-6.732s6.729,3.014,6.729,6.732C1508.049,172.922,1505.031,175.936,1501.317,175.936z M1501.317,123.936
	c-3.722,0-6.732-3.014-6.732-6.732c0-3.718,3.019-6.732,6.732-6.732s6.729,3.014,6.729,6.732
	C1508.049,120.922,1505.031,123.936,1501.317,123.936z M1501.317,71.936c-3.722,0-6.732-3.014-6.732-6.732
	c0-3.718,3.019-6.732,6.732-6.732s6.729,3.014,6.729,6.732C1508.049,68.922,1505.031,71.936,1501.317,71.936z M1557.888,682.473
	c3.717,0,6.729,3.015,6.729,6.731s-3.014,6.729-6.729,6.729c-3.718,0-6.731-3.013-6.731-6.729S1554.17,682.473,1557.888,682.473z
	 M1557.888,630.473c3.717,0,6.729,3.015,6.729,6.731s-3.014,6.729-6.729,6.729c-3.718,0-6.731-3.013-6.731-6.729
	S1554.17,630.473,1557.888,630.473z M1557.888,578.473c3.717,0,6.729,3.015,6.729,6.731s-3.014,6.729-6.729,6.729
	c-3.718,0-6.731-3.013-6.731-6.729S1554.17,578.473,1557.888,578.473z M1557.888,526.473c3.717,0,6.729,3.015,6.729,6.731
	s-3.014,6.729-6.729,6.729c-3.718,0-6.731-3.013-6.731-6.729S1554.17,526.473,1557.888,526.473z M1557.888,474.473
	c3.717,0,6.729,3.015,6.729,6.731s-3.014,6.729-6.729,6.729c-3.718,0-6.731-3.013-6.731-6.729S1554.17,474.473,1557.888,474.473z
	 M1557.888,422.474c3.717,0,6.729,3.015,6.729,6.731s-3.014,6.729-6.729,6.729c-3.718,0-6.731-3.013-6.731-6.729
	S1554.17,422.474,1557.888,422.474z M1557.888,370.472c3.718,0,6.73,3.014,6.73,6.732c0,3.718-3.014,6.732-6.73,6.732
	s-6.732-3.014-6.732-6.732C1551.156,373.486,1554.17,370.472,1557.888,370.472z M1557.888,318.472c3.718,0,6.73,3.014,6.73,6.732
	c0,3.718-3.014,6.732-6.73,6.732s-6.732-3.014-6.732-6.732C1551.156,321.486,1554.17,318.472,1557.888,318.472z M1557.888,266.472
	c3.718,0,6.73,3.014,6.73,6.732c0,3.718-3.014,6.732-6.73,6.732s-6.732-3.014-6.732-6.732
	C1551.156,269.486,1554.17,266.472,1557.888,266.472z M1557.888,214.472c3.718,0,6.73,3.014,6.73,6.732
	c0,3.718-3.014,6.732-6.73,6.732s-6.732-3.014-6.732-6.732C1551.156,217.486,1554.17,214.472,1557.888,214.472z M1557.888,162.472
	c3.718,0,6.73,3.014,6.73,6.732c0,3.718-3.014,6.732-6.73,6.732s-6.732-3.014-6.732-6.732
	C1551.156,165.486,1554.17,162.472,1557.888,162.472z M1557.888,110.472c3.718,0,6.73,3.014,6.73,6.732
	c0,3.718-3.014,6.732-6.73,6.732s-6.732-3.014-6.732-6.732C1551.156,113.486,1554.17,110.472,1557.888,110.472z M1614.459,682.473
	c3.717,0,6.729,3.015,6.729,6.731s-3.014,6.729-6.729,6.729c-3.719,0-6.731-3.013-6.731-6.729S1610.74,682.473,1614.459,682.473z
	 M1614.459,630.473c3.717,0,6.729,3.015,6.729,6.731s-3.014,6.729-6.729,6.729c-3.719,0-6.731-3.013-6.731-6.729
	S1610.74,630.473,1614.459,630.473z M1614.459,578.473c3.717,0,6.729,3.015,6.729,6.731s-3.014,6.729-6.729,6.729
	c-3.719,0-6.731-3.013-6.731-6.729S1610.74,578.473,1614.459,578.473z M1614.459,526.473c3.717,0,6.729,3.015,6.729,6.731
	s-3.014,6.729-6.729,6.729c-3.719,0-6.731-3.013-6.731-6.729S1610.74,526.473,1614.459,526.473z M1614.459,474.473
	c3.717,0,6.729,3.015,6.729,6.731s-3.014,6.729-6.729,6.729c-3.719,0-6.731-3.013-6.731-6.729S1610.74,474.473,1614.459,474.473z
	 M1614.459,422.474c3.717,0,6.729,3.015,6.729,6.731s-3.014,6.729-6.729,6.729c-3.719,0-6.731-3.013-6.731-6.729
	S1610.74,422.474,1614.459,422.474z M1614.459,370.472c3.718,0,6.73,3.014,6.73,6.732c0,3.718-3.014,6.732-6.73,6.732
	c-3.72,0-6.732-3.014-6.732-6.732C1607.727,373.486,1610.74,370.472,1614.459,370.472z M1614.459,318.472
	c3.718,0,6.73,3.014,6.73,6.732c0,3.718-3.014,6.732-6.73,6.732c-3.72,0-6.732-3.014-6.732-6.732
	C1607.727,321.486,1610.74,318.472,1614.459,318.472z M1614.459,266.472c3.718,0,6.73,3.014,6.73,6.732
	c0,3.718-3.014,6.732-6.73,6.732c-3.72,0-6.732-3.014-6.732-6.732C1607.727,269.486,1610.74,266.472,1614.459,266.472z
	 M1614.459,214.472c3.718,0,6.73,3.014,6.73,6.732c0,3.718-3.014,6.732-6.73,6.732c-3.72,0-6.732-3.014-6.732-6.732
	C1607.727,217.486,1610.74,214.472,1614.459,214.472z M1614.459,162.472c3.718,0,6.73,3.014,6.73,6.732
	c0,3.718-3.014,6.732-6.73,6.732c-3.72,0-6.732-3.014-6.732-6.732C1607.727,165.486,1610.74,162.472,1614.459,162.472z
	 M1671.029,643.936c-3.719,0-6.729-3.014-6.729-6.729s3.014-6.732,6.729-6.732s6.729,3.021,6.729,6.732
	C1677.762,640.922,1674.748,643.936,1671.029,643.936z M1671.029,591.936c-3.719,0-6.729-3.014-6.729-6.729s3.014-6.732,6.729-6.732
	s6.729,3.021,6.729,6.732C1677.762,588.922,1674.748,591.936,1671.029,591.936z M1671.029,539.936c-3.719,0-6.729-3.014-6.729-6.729
	s3.014-6.732,6.729-6.732s6.729,3.021,6.729,6.732C1677.762,536.922,1674.748,539.936,1671.029,539.936z M1671.029,487.935
	c-3.719,0-6.729-3.014-6.729-6.729s3.014-6.732,6.729-6.732s6.729,3.021,6.729,6.732
	C1677.762,484.921,1674.748,487.935,1671.029,487.935z M1671.029,422.474c3.718,0,6.731,3.015,6.731,6.731s-3.015,6.729-6.731,6.729
	s-6.729-3.013-6.729-6.729S1667.312,422.474,1671.029,422.474z M1671.029,370.472c3.718,0,6.732,3.014,6.732,6.732
	c0,3.718-3.015,6.732-6.732,6.732c-3.717,0-6.73-3.014-6.73-6.732C1664.297,373.486,1667.311,370.472,1671.029,370.472z
	 M1671.029,318.472c3.718,0,6.732,3.014,6.732,6.732c0,3.718-3.015,6.732-6.732,6.732c-3.717,0-6.73-3.014-6.73-6.732
	C1664.297,321.486,1667.311,318.472,1671.029,318.472z M1671.029,266.472c3.718,0,6.732,3.014,6.732,6.732
	c0,3.718-3.015,6.732-6.732,6.732c-3.717,0-6.73-3.014-6.73-6.732C1664.297,269.486,1667.311,266.472,1671.029,266.472z
	 M1671.029,214.472c3.718,0,6.732,3.014,6.732,6.732c0,3.718-3.015,6.732-6.732,6.732c-3.717,0-6.73-3.014-6.73-6.732
	C1664.297,217.486,1667.311,214.472,1671.029,214.472z M1671.029,162.472c3.718,0,6.732,3.014,6.732,6.732
	c0,3.718-3.015,6.732-6.732,6.732c-3.717,0-6.73-3.014-6.73-6.732C1664.297,165.486,1667.311,162.472,1671.029,162.472z
	 M1727.6,643.936c-3.719,0-6.729-3.014-6.729-6.729s3.019-6.732,6.729-6.732c3.721,0,6.732,3.021,6.732,6.732
	C1734.332,640.922,1731.318,643.936,1727.6,643.936z M1727.6,591.936c-3.719,0-6.729-3.014-6.729-6.729s3.019-6.732,6.729-6.732
	c3.721,0,6.732,3.021,6.732,6.732C1734.332,588.922,1731.318,591.936,1727.6,591.936z M1727.6,539.936
	c-3.719,0-6.729-3.014-6.729-6.729s3.019-6.732,6.729-6.732c3.721,0,6.732,3.021,6.732,6.732
	C1734.332,536.922,1731.318,539.936,1727.6,539.936z M1727.6,487.935c-3.719,0-6.729-3.014-6.729-6.729s3.019-6.732,6.729-6.732
	c3.721,0,6.732,3.021,6.732,6.732C1734.332,484.921,1731.318,487.935,1727.6,487.935z M1727.6,435.936
	c-3.719,0-6.729-3.014-6.729-6.729s3.019-6.732,6.729-6.732c3.721,0,6.732,3.021,6.732,6.732S1731.318,435.936,1727.6,435.936z
	 M1727.6,383.936c-3.719,0-6.729-3.014-6.729-6.731s3.019-6.732,6.729-6.732c3.721,0,6.732,3.015,6.732,6.732
	S1731.318,383.936,1727.6,383.936z M1727.6,331.936c-3.719,0-6.729-3.014-6.729-6.731s3.019-6.732,6.729-6.732
	c3.721,0,6.732,3.015,6.732,6.732S1731.318,331.936,1727.6,331.936z M1727.6,279.936c-3.719,0-6.729-3.014-6.729-6.732
	c0-3.718,3.019-6.732,6.729-6.732c3.721,0,6.732,3.014,6.732,6.732C1734.332,276.922,1731.318,279.936,1727.6,279.936z
	 M1727.6,227.936c-3.719,0-6.729-3.014-6.729-6.732c0-3.718,3.019-6.732,6.729-6.732c3.721,0,6.732,3.014,6.732,6.732
	C1734.332,224.922,1731.318,227.936,1727.6,227.936z M1784.17,578.473c3.717,0,6.729,3.015,6.729,6.731s-3.014,6.729-6.729,6.729
	c-3.719,0-6.731-3.013-6.731-6.729S1780.451,578.473,1784.17,578.473z M1784.17,526.473c3.717,0,6.729,3.015,6.729,6.731
	s-3.014,6.729-6.729,6.729c-3.719,0-6.731-3.013-6.731-6.729S1780.451,526.473,1784.17,526.473z M1784.17,474.473
	c3.717,0,6.729,3.015,6.729,6.731s-3.014,6.729-6.729,6.729c-3.719,0-6.731-3.013-6.731-6.729S1780.451,474.473,1784.17,474.473z
	 M1784.17,422.474c3.717,0,6.729,3.015,6.729,6.731s-3.014,6.729-6.729,6.729c-3.719,0-6.731-3.013-6.731-6.729
	S1780.451,422.474,1784.17,422.474z M1784.17,370.472c3.718,0,6.73,3.014,6.73,6.732c0,3.718-3.014,6.732-6.73,6.732
	c-3.72,0-6.732-3.014-6.732-6.732C1777.438,373.486,1780.45,370.472,1784.17,370.472z M1784.17,318.472
	c3.718,0,6.73,3.014,6.73,6.732c0,3.718-3.014,6.732-6.73,6.732c-3.72,0-6.732-3.014-6.732-6.732
	C1777.438,321.486,1780.45,318.472,1784.17,318.472z M1784.17,266.472c3.718,0,6.73,3.014,6.73,6.732
	c0,3.718-3.014,6.732-6.73,6.732c-3.72,0-6.732-3.014-6.732-6.732C1777.438,269.486,1780.45,266.472,1784.17,266.472z
	 M1784.17,214.472c3.718,0,6.73,3.014,6.73,6.732c0,3.718-3.014,6.732-6.73,6.732c-3.72,0-6.732-3.014-6.732-6.732
	C1777.438,217.486,1780.45,214.472,1784.17,214.472z M1840.74,591.936c-3.719,0-6.729-3.014-6.729-6.729s3.014-6.732,6.729-6.732
	s6.729,3.021,6.729,6.732C1847.473,588.922,1844.459,591.936,1840.74,591.936z M1840.74,539.936c-3.719,0-6.729-3.014-6.729-6.729
	s3.014-6.732,6.729-6.732s6.729,3.021,6.729,6.732C1847.473,536.922,1844.459,539.936,1840.74,539.936z M1840.74,487.935
	c-3.719,0-6.729-3.014-6.729-6.729s3.014-6.732,6.729-6.732s6.729,3.021,6.729,6.732
	C1847.473,484.921,1844.459,487.935,1840.74,487.935z M1840.74,422.474c3.718,0,6.731,3.015,6.731,6.731s-3.015,6.729-6.731,6.729
	s-6.729-3.013-6.729-6.729S1837.023,422.474,1840.74,422.474z M1840.74,370.472c3.718,0,6.732,3.014,6.732,6.732
	c0,3.718-3.015,6.732-6.732,6.732c-3.717,0-6.73-3.014-6.73-6.732C1834.008,373.486,1837.022,370.472,1840.74,370.472z
	 M1840.74,318.472c3.718,0,6.732,3.014,6.732,6.732c0,3.718-3.015,6.732-6.732,6.732c-3.717,0-6.73-3.014-6.73-6.732
	C1834.008,321.486,1837.022,318.472,1840.74,318.472z M1840.74,266.472c3.718,0,6.732,3.014,6.732,6.732
	c0,3.718-3.015,6.732-6.732,6.732c-3.717,0-6.73-3.014-6.73-6.732C1834.008,269.486,1837.022,266.472,1840.74,266.472z
	 M1897.311,539.936c-3.719,0-6.729-3.014-6.729-6.729s3.014-6.732,6.729-6.732c3.721,0,6.732,3.021,6.732,6.732
	C1904.043,536.922,1901.029,539.936,1897.311,539.936z M1897.311,487.935c-3.719,0-6.729-3.014-6.729-6.729s3.014-6.732,6.729-6.732
	c3.721,0,6.732,3.021,6.732,6.732C1904.043,484.921,1901.029,487.935,1897.311,487.935z M1897.311,435.936
	c-3.719,0-6.729-3.014-6.729-6.729s3.014-6.732,6.729-6.732c3.721,0,6.732,3.021,6.732,6.732S1901.029,435.936,1897.311,435.936z
	 M1897.311,383.936c-3.719,0-6.729-3.014-6.729-6.731s3.014-6.732,6.729-6.732c3.721,0,6.732,3.015,6.732,6.732
	S1901.029,383.936,1897.311,383.936z M1897.311,331.936c-3.719,0-6.729-3.014-6.729-6.731s3.014-6.732,6.729-6.732
	c3.721,0,6.732,3.015,6.732,6.732S1901.029,331.936,1897.311,331.936z M1897.311,279.936c-3.719,0-6.729-3.014-6.729-6.732
	c0-3.718,3.014-6.732,6.729-6.732c3.721,0,6.732,3.014,6.732,6.732C1904.043,276.922,1901.029,279.936,1897.311,279.936z
	 M1953.881,474.473c3.717,0,6.729,3.015,6.729,6.731s-3.014,6.729-6.729,6.729c-3.719,0-6.731-3.013-6.731-6.729
	S1950.162,474.473,1953.881,474.473z M1953.881,422.474c3.717,0,6.729,3.015,6.729,6.731s-3.014,6.729-6.729,6.729
	c-3.719,0-6.731-3.013-6.731-6.729S1950.162,422.474,1953.881,422.474z M1953.881,370.472c3.718,0,6.73,3.014,6.73,6.732
	c0,3.718-3.014,6.732-6.73,6.732c-3.72,0-6.732-3.014-6.732-6.732C1947.149,373.486,1950.161,370.472,1953.881,370.472z
	 M1953.881,318.472c3.718,0,6.73,3.014,6.73,6.732c0,3.718-3.014,6.732-6.73,6.732c-3.72,0-6.732-3.014-6.732-6.732
	C1947.149,321.486,1950.161,318.472,1953.881,318.472z M1953.881,266.472c3.718,0,6.73,3.014,6.73,6.732
	c0,3.718-3.014,6.732-6.73,6.732c-3.72,0-6.732-3.014-6.732-6.732C1947.149,269.486,1950.161,266.472,1953.881,266.472z
	 M2010.448,422.474c3.719,0,6.731,3.015,6.731,6.731s-3.015,6.729-6.731,6.729s-6.729-3.013-6.729-6.729
	S2006.731,422.474,2010.448,422.474z M2010.448,370.472c3.719,0,6.732,3.014,6.732,6.732c0,3.718-3.014,6.732-6.732,6.732
	c-3.718,0-6.73-3.014-6.73-6.732C2003.716,373.486,2006.73,370.472,2010.448,370.472z M2010.448,318.472
	c3.719,0,6.732,3.014,6.732,6.732c0,3.718-3.014,6.732-6.732,6.732c-3.718,0-6.73-3.014-6.73-6.732
	C2003.716,321.486,2006.73,318.472,2010.448,318.472z M2067.021,383.936c-3.722,0-6.731-3.014-6.731-6.731s3.018-6.732,6.731-6.732
	s6.729,3.015,6.729,6.732C2073.752,380.922,2070.74,383.936,2067.021,383.936z M2067.021,331.936c-3.722,0-6.731-3.014-6.731-6.731
	s3.018-6.732,6.731-6.732s6.729,3.015,6.729,6.732C2073.752,328.922,2070.74,331.936,2067.021,331.936z M2123.592,370.472
	c3.718,0,6.73,3.014,6.73,6.732c0,3.718-3.014,6.732-6.73,6.732c-3.719,0-6.732-3.014-6.732-6.732
	C2116.86,373.486,2119.873,370.472,2123.592,370.472z M2180.162,370.472c3.718,0,6.73,3.014,6.73,6.732
	c0,3.718-3.014,6.732-6.73,6.732c-3.72,0-6.732-3.014-6.732-6.732C2173.43,373.486,2176.444,370.472,2180.162,370.472z
	 M2316.219,336.941c-16.165,0-29.245,23.243-29.245,51.967h0.002c8.155,19.178-10.775,50.189-29.979,39.771
	c-30.979-16.812-65.783-23.521-104.396-20.135c-90.08,33.044-159.7,72.358-232.778,130.978
	c-34.147,37.076-37.601,52.486,21.521,103.396c-61.313,33.053-128.258-14.639-183.077,10.209l-430.054,194.908
	c-16.271,7.373-38.354,14.188-59.898,12.656v-0.009c-32.535,0-58.863,15.563-58.863,34.802h-0.021
	c-0.336,5.955-5.021,12.047-15.444,16.885l-228.419,105.986c-145.966,67.729-388.933,17.481-549.526,42.748
	c-19.88,3.127-38.695-14.576-54.771-25.181C260.651,885.797,191.92,843.176,17.42,744.439
	c-27.115-15.349-21.521-73.623,9.447-68.688c173.259,27.629,338.01,78.492,508.907,118.631
	c94.026,22.082,131.521,40.396,207.427-19.137l79.104-62.039c2.143-5.632-0.613-10.714-4.352-14.874l-0.004,0.007
	c-7.391-5.702-12.147-14.646-12.147-24.703c0-17.222,13.961-31.182,31.182-31.182c8.211,0,15.684,3.174,21.25,8.361l-0.005,0.005
	c7.127,5.379,16.475,2.514,23.744-0.967c154.556-138.975,280.046-271.598,401.768-436.007c7.632-10.311,19.581-13.388,30.396-6.332
	c95.624,62.381,96.229-81.75,92.941-135.483c-0.985-16.125-6.446-24.991,9.271-28.583l62.97-14.383
	c9.078-2.073,18.561,1.132,26.679,6.299h-0.006c6.944,2.536,14.896,3.615,21.808,0.409c5.681-2.636,10.638-8.353,10.638-14.982
	l-0.004-0.001c0.978-6.895,6.728-12.992,16.92-14.917C1789.849-38.423,2583.25,178.145,3064.168,307.45
	c17,4.57,32.19,29.702,12.705,26.684c-173.096-26.817-344.703-48.274-514.146-61.888c-34.334-2.757-68.396-1.191-94.783,10.271
	l-90.324,39.237c-19.886,8.639-39.967,14.453-61.399,15.121L2316.219,336.941L2316.219,336.941z"/>
</svg>
