<?xml version="1.0" encoding="utf-8"?>
<!-- Generator: Adobe Illustrator 16.0.0, SVG Export Plug-In . SVG Version: 6.00 Build 0)  -->
<!DOCTYPE svg PUBLIC "-//W3C//DTD SVG 1.1//EN" "http://www.w3.org/Graphics/SVG/1.1/DTD/svg11.dtd">
<svg version="1.1" id="Layer_1" xmlns="http://www.w3.org/2000/svg" xmlns:xlink="http://www.w3.org/1999/xlink" x="0px" y="0px"
	 width="3086.018px" height="1061.467px" viewBox="0 0 3086.018 1061.467" enable-background="new 0 0 3086.018 1061.467"
	 xml:space="preserve">
<path d="M1195.621,877.682c-111.68-54.975-218.667-98.848-329.335-157.748c-22.924-12.195-23.635-22.684-43.979-6.725
	l-79.103,62.039c-75.904,59.533-113.397,41.219-207.427,19.137c-170.899-40.139-335.651-91.002-508.91-118.631
	c-30.968-4.938-36.562,53.342-9.447,68.686c174.5,98.736,243.229,141.357,343.839,291.486c16.07,10.6,34.888,28.305,54.768,25.178
	c160.6-25.264,403.564,24.98,549.53-42.748l228.419-105.988C1216.301,902.006,1212.309,885.896,1195.621,877.682z M3064.166,307.452
	C2583.244,178.146,1789.847-38.421,1555.353,5.875c-20.649,3.9-23.067,24.92-4.516,35.009
	c235,127.811,464.911,209.827,719.081,289.389c40.157,12.57,74.205,6.034,107.698-8.517l90.326-39.237
	c26.385-11.462,60.451-13.028,94.785-10.271c169.441,13.614,341.051,35.07,514.145,61.888
	C3096.361,337.153,3081.166,312.021,3064.166,307.452z M2274.865,377.371l-660.929-265.29
	c-36.994-14.851-70.217-44.932-100.421-71.096c-9.354-8.105-22.126-14.672-34.193-11.917l-62.969,14.383
	c-15.72,3.592-10.259,12.458-9.271,28.583c3.285,53.733,2.68,197.864-92.944,135.483c-10.816-7.056-22.765-3.979-30.396,6.332
	c-122.629,165.639-249.083,299.013-405.228,439.118c-29.751,26.691,11.094,41.689,41.457,68.146
	c45.048,39.254,215.227,93.543,328.172,135.346c27.11,10.033,58.623,1.289,80.064-8.426l430.053-194.908
	c54.822-24.848,121.762,22.844,183.078-10.209c-59.117-50.908-55.668-66.318-21.521-103.395
	c73.078-58.62,142.7-97.934,232.78-130.978c38.617-3.39,73.422,3.322,104.4,20.135
	C2281.137,441.78,2304.845,389.403,2274.865,377.371z M935.615,695.936c-3.718,0-6.729-3.014-6.729-6.73s3.014-6.732,6.729-6.732
	c3.72,0,6.733,3.02,6.733,6.732C942.348,692.922,939.332,695.936,935.615,695.936z M935.615,643.936
	c-3.718,0-6.729-3.014-6.729-6.73s3.014-6.732,6.729-6.732c3.72,0,6.733,3.02,6.733,6.732
	C942.348,640.922,939.332,643.936,935.615,643.936z M992.186,747.936c-3.719,0-6.732-3.014-6.732-6.73s3.017-6.732,6.732-6.732
	s6.73,3.02,6.73,6.732C998.916,744.922,995.905,747.936,992.186,747.936z M992.186,695.936c-3.719,0-6.732-3.014-6.732-6.73
	s3.017-6.732,6.732-6.732s6.73,3.02,6.73,6.732C998.916,692.922,995.905,695.936,992.186,695.936z M992.186,643.936
	c-3.719,0-6.732-3.014-6.732-6.73s3.017-6.732,6.732-6.732s6.73,3.02,6.73,6.732C998.916,640.922,995.905,643.936,992.186,643.936z
	 M992.186,591.936c-3.719,0-6.732-3.014-6.732-6.73s3.017-6.732,6.732-6.732s6.73,3.02,6.73,6.732
	C998.916,588.922,995.905,591.936,992.186,591.936z M1048.757,747.936c-3.722,0-6.732-3.014-6.732-6.73s3.014-6.732,6.732-6.732
	c3.718,0,6.729,3.02,6.729,6.732C1055.489,744.922,1052.475,747.936,1048.757,747.936z M1048.757,695.936
	c-3.722,0-6.732-3.014-6.732-6.73s3.014-6.732,6.732-6.732c3.718,0,6.729,3.02,6.729,6.732
	C1055.489,692.922,1052.475,695.936,1048.757,695.936z M1048.757,643.936c-3.722,0-6.732-3.014-6.732-6.73s3.014-6.732,6.732-6.732
	c3.718,0,6.729,3.02,6.729,6.732C1055.489,640.922,1052.475,643.936,1048.757,643.936z M1048.757,591.936
	c-3.722,0-6.732-3.014-6.732-6.73s3.014-6.732,6.732-6.732c3.718,0,6.729,3.02,6.729,6.732
	C1055.489,588.922,1052.475,591.936,1048.757,591.936z M1048.757,539.936c-3.722,0-6.732-3.014-6.732-6.73
	c0-3.716,3.014-6.733,6.732-6.733c3.718,0,6.729,3.019,6.729,6.733C1055.489,536.922,1052.475,539.936,1048.757,539.936z
	 M1105.325,747.936c-3.719,0-6.729-3.014-6.729-6.73s3.014-6.732,6.729-6.732c3.721,0,6.732,3.02,6.732,6.732
	C1112.059,744.922,1109.043,747.936,1105.325,747.936z M1105.325,695.936c-3.719,0-6.729-3.014-6.729-6.73s3.014-6.732,6.729-6.732
	c3.721,0,6.732,3.02,6.732,6.732C1112.059,692.922,1109.043,695.936,1105.325,695.936z M1105.325,643.936
	c-3.719,0-6.729-3.014-6.729-6.73s3.014-6.732,6.729-6.732c3.721,0,6.732,3.02,6.732,6.732
	C1112.059,640.922,1109.043,643.936,1105.325,643.936z M1105.325,591.936c-3.719,0-6.729-3.014-6.729-6.73s3.014-6.732,6.729-6.732
	c3.721,0,6.732,3.02,6.732,6.732C1112.059,588.922,1109.043,591.936,1105.325,591.936z M1105.325,539.936
	c-3.719,0-6.729-3.014-6.729-6.73c0-3.716,3.014-6.733,6.729-6.733c3.721,0,6.732,3.019,6.732,6.733
	C1112.059,536.922,1109.043,539.936,1105.325,539.936z M1105.325,487.934c-3.719,0-6.729-3.014-6.729-6.729s3.014-6.732,6.729-6.732
	c3.721,0,6.732,3.019,6.732,6.732C1112.059,484.92,1109.043,487.934,1105.325,487.934z M1161.897,799.936
	c-3.719,0-6.732-3.014-6.732-6.73s3.017-6.732,6.732-6.732s6.732,3.02,6.732,6.732
	C1168.63,796.922,1165.615,799.936,1161.897,799.936z M1161.897,747.936c-3.719,0-6.732-3.014-6.732-6.73s3.017-6.732,6.732-6.732
	s6.732,3.02,6.732,6.732C1168.63,744.922,1165.615,747.936,1161.897,747.936z M1161.897,695.936c-3.719,0-6.732-3.014-6.732-6.73
	s3.017-6.732,6.732-6.732s6.732,3.02,6.732,6.732C1168.63,692.922,1165.615,695.936,1161.897,695.936z M1161.897,643.936
	c-3.719,0-6.732-3.014-6.732-6.73s3.017-6.732,6.732-6.732s6.732,3.02,6.732,6.732
	C1168.63,640.922,1165.615,643.936,1161.897,643.936z M1161.897,591.936c-3.719,0-6.732-3.014-6.732-6.73s3.017-6.732,6.732-6.732
	s6.732,3.02,6.732,6.732C1168.63,588.922,1165.615,591.936,1161.897,591.936z M1161.897,539.936c-3.719,0-6.732-3.014-6.732-6.73
	c0-3.716,3.017-6.733,6.732-6.733s6.732,3.019,6.732,6.733C1168.63,536.922,1165.615,539.936,1161.897,539.936z M1161.897,487.934
	c-3.719,0-6.732-3.014-6.732-6.729s3.017-6.732,6.732-6.732s6.732,3.019,6.732,6.732
	C1168.63,484.92,1165.615,487.934,1161.897,487.934z M1161.897,435.935c-3.719,0-6.732-3.014-6.732-6.729s3.017-6.732,6.732-6.732
	s6.732,3.017,6.732,6.732S1165.615,435.935,1161.897,435.935z M1218.468,799.936c-3.722,0-6.732-3.014-6.732-6.73
	s3.015-6.732,6.732-6.732s6.729,3.02,6.729,6.732C1225.198,796.922,1222.186,799.936,1218.468,799.936z M1218.468,747.936
	c-3.722,0-6.732-3.014-6.732-6.73s3.015-6.732,6.732-6.732s6.729,3.02,6.729,6.732
	C1225.198,744.922,1222.186,747.936,1218.468,747.936z M1218.468,695.936c-3.722,0-6.732-3.014-6.732-6.73s3.015-6.732,6.732-6.732
	s6.729,3.02,6.729,6.732C1225.198,692.922,1222.186,695.936,1218.468,695.936z M1218.468,643.936c-3.722,0-6.732-3.014-6.732-6.73
	s3.015-6.732,6.732-6.732s6.729,3.02,6.729,6.732C1225.198,640.922,1222.186,643.936,1218.468,643.936z M1218.468,591.936
	c-3.722,0-6.732-3.014-6.732-6.73s3.015-6.732,6.732-6.732s6.729,3.02,6.729,6.732
	C1225.198,588.922,1222.186,591.936,1218.468,591.936z M1218.468,539.936c-3.722,0-6.732-3.014-6.732-6.73
	c0-3.716,3.015-6.733,6.732-6.733s6.729,3.019,6.729,6.733C1225.198,536.922,1222.186,539.936,1218.468,539.936z M1218.468,487.934
	c-3.722,0-6.732-3.014-6.732-6.729s3.015-6.732,6.732-6.732s6.729,3.019,6.729,6.732
	C1225.198,484.92,1222.186,487.934,1218.468,487.934z M1218.468,435.935c-3.722,0-6.732-3.014-6.732-6.729s3.015-6.732,6.732-6.732
	s6.729,3.017,6.729,6.732S1222.186,435.935,1218.468,435.935z M1218.468,383.936c-3.722,0-6.732-3.014-6.732-6.732
	c0-3.718,3.015-6.732,6.732-6.732s6.729,3.014,6.729,6.732C1225.198,380.921,1222.186,383.936,1218.468,383.936z M1275.036,799.936
	c-3.719,0-6.729-3.014-6.729-6.73s3.014-6.732,6.729-6.732c3.721,0,6.732,3.02,6.732,6.732
	C1281.77,796.922,1278.757,799.936,1275.036,799.936z M1275.036,747.936c-3.719,0-6.729-3.014-6.729-6.73s3.014-6.732,6.729-6.732
	c3.721,0,6.732,3.02,6.732,6.732C1281.77,744.922,1278.757,747.936,1275.036,747.936z M1275.036,695.936
	c-3.719,0-6.729-3.014-6.729-6.73s3.014-6.732,6.729-6.732c3.721,0,6.732,3.02,6.732,6.732
	C1281.77,692.922,1278.757,695.936,1275.036,695.936z M1275.036,643.936c-3.719,0-6.729-3.014-6.729-6.73s3.014-6.732,6.729-6.732
	c3.721,0,6.732,3.02,6.732,6.732C1281.77,640.922,1278.757,643.936,1275.036,643.936z M1275.036,591.936
	c-3.719,0-6.729-3.014-6.729-6.73s3.014-6.732,6.729-6.732c3.721,0,6.732,3.02,6.732,6.732
	C1281.77,588.922,1278.757,591.936,1275.036,591.936z M1275.036,539.936c-3.719,0-6.729-3.014-6.729-6.73
	c0-3.716,3.014-6.733,6.729-6.733c3.721,0,6.732,3.019,6.732,6.733C1281.77,536.922,1278.757,539.936,1275.036,539.936z
	 M1275.036,487.934c-3.719,0-6.729-3.014-6.729-6.729s3.014-6.732,6.729-6.732c3.721,0,6.732,3.019,6.732,6.732
	C1281.77,484.92,1278.757,487.934,1275.036,487.934z M1275.036,435.935c-3.719,0-6.729-3.014-6.729-6.729s3.014-6.732,6.729-6.732
	c3.721,0,6.732,3.017,6.732,6.732S1278.757,435.935,1275.036,435.935z M1275.036,383.936c-3.719,0-6.729-3.014-6.729-6.732
	c0-3.718,3.014-6.732,6.729-6.732c3.721,0,6.732,3.014,6.732,6.732C1281.77,380.921,1278.757,383.936,1275.036,383.936z
	 M1275.036,331.936c-3.719,0-6.729-3.014-6.729-6.732c0-3.718,3.014-6.732,6.729-6.732c3.721,0,6.732,3.014,6.732,6.732
	C1281.77,328.921,1278.757,331.936,1275.036,331.936z M1275.036,279.936c-3.719,0-6.729-3.014-6.729-6.732
	c0-3.718,3.014-6.732,6.729-6.732c3.721,0,6.732,3.014,6.732,6.732C1281.77,276.921,1278.757,279.936,1275.036,279.936z
	 M1331.608,799.936c-3.719,0-6.729-3.014-6.729-6.73s3.014-6.732,6.729-6.732s6.732,3.02,6.732,6.732
	C1338.341,796.922,1335.325,799.936,1331.608,799.936z M1331.608,747.936c-3.719,0-6.729-3.014-6.729-6.73s3.014-6.732,6.729-6.732
	s6.732,3.02,6.732,6.732C1338.341,744.922,1335.325,747.936,1331.608,747.936z M1331.608,695.936c-3.719,0-6.729-3.014-6.729-6.73
	s3.014-6.732,6.729-6.732s6.732,3.02,6.732,6.732C1338.341,692.922,1335.325,695.936,1331.608,695.936z M1331.608,643.936
	c-3.719,0-6.729-3.014-6.729-6.73s3.014-6.732,6.729-6.732s6.732,3.02,6.732,6.732
	C1338.341,640.922,1335.325,643.936,1331.608,643.936z M1331.608,591.936c-3.719,0-6.729-3.014-6.729-6.73s3.014-6.732,6.729-6.732
	s6.732,3.02,6.732,6.732C1338.341,588.922,1335.325,591.936,1331.608,591.936z M1331.608,539.936c-3.719,0-6.729-3.014-6.729-6.73
	c0-3.716,3.014-6.733,6.729-6.733s6.732,3.019,6.732,6.733C1338.341,536.922,1335.325,539.936,1331.608,539.936z M1331.608,487.934
	c-3.719,0-6.729-3.014-6.729-6.729s3.014-6.732,6.729-6.732s6.732,3.019,6.732,6.732
	C1338.341,484.92,1335.325,487.934,1331.608,487.934z M1331.608,435.935c-3.719,0-6.729-3.014-6.729-6.729s3.014-6.732,6.729-6.732
	s6.732,3.017,6.732,6.732S1335.325,435.935,1331.608,435.935z M1331.608,383.936c-3.719,0-6.729-3.014-6.729-6.732
	c0-3.718,3.014-6.732,6.729-6.732s6.732,3.014,6.732,6.732C1338.341,380.921,1335.325,383.936,1331.608,383.936z M1331.608,331.936
	c-3.719,0-6.729-3.014-6.729-6.732c0-3.718,3.014-6.732,6.729-6.732s6.732,3.014,6.732,6.732
	C1338.341,328.921,1335.325,331.936,1331.608,331.936z M1331.608,279.936c-3.719,0-6.729-3.014-6.729-6.732
	c0-3.718,3.014-6.732,6.729-6.732s6.732,3.014,6.732,6.732C1338.341,276.921,1335.325,279.936,1331.608,279.936z M1388.178,799.936
	c-3.721,0-6.732-3.014-6.732-6.73s3.016-6.732,6.732-6.732s6.729,3.02,6.729,6.732
	C1394.909,796.922,1391.897,799.936,1388.178,799.936z M1388.178,747.936c-3.721,0-6.732-3.014-6.732-6.73s3.016-6.732,6.732-6.732
	s6.729,3.02,6.729,6.732C1394.909,744.922,1391.897,747.936,1388.178,747.936z M1388.178,695.936c-3.721,0-6.732-3.014-6.732-6.73
	s3.016-6.732,6.732-6.732s6.729,3.02,6.729,6.732C1394.909,692.922,1391.897,695.936,1388.178,695.936z M1388.178,643.936
	c-3.721,0-6.732-3.014-6.732-6.73s3.016-6.732,6.732-6.732s6.729,3.02,6.729,6.732
	C1394.909,640.922,1391.897,643.936,1388.178,643.936z M1388.178,591.936c-3.721,0-6.732-3.014-6.732-6.73s3.016-6.732,6.732-6.732
	s6.729,3.02,6.729,6.732C1394.909,588.922,1391.897,591.936,1388.178,591.936z M1388.178,539.936c-3.721,0-6.732-3.014-6.732-6.73
	c0-3.716,3.016-6.733,6.732-6.733s6.729,3.019,6.729,6.733C1394.909,536.922,1391.897,539.936,1388.178,539.936z M1388.178,487.934
	c-3.721,0-6.732-3.014-6.732-6.729s3.016-6.732,6.732-6.732s6.729,3.019,6.729,6.732
	C1394.909,484.92,1391.897,487.934,1388.178,487.934z M1388.178,435.935c-3.721,0-6.732-3.014-6.732-6.729s3.016-6.732,6.732-6.732
	s6.729,3.017,6.729,6.732S1391.897,435.935,1388.178,435.935z M1388.178,383.936c-3.721,0-6.732-3.014-6.732-6.732
	c0-3.718,3.016-6.732,6.732-6.732s6.729,3.014,6.729,6.732C1394.908,380.921,1391.897,383.936,1388.178,383.936z M1388.178,331.936
	c-3.721,0-6.732-3.014-6.732-6.732c0-3.718,3.016-6.732,6.732-6.732s6.729,3.014,6.729,6.732
	C1394.908,328.921,1391.897,331.936,1388.178,331.936z M1388.178,279.936c-3.721,0-6.732-3.014-6.732-6.732
	c0-3.718,3.016-6.732,6.732-6.732s6.729,3.014,6.729,6.732C1394.908,276.921,1391.897,279.936,1388.178,279.936z M1444.748,747.936
	c-3.72,0-6.73-3.014-6.73-6.73s3.014-6.732,6.73-6.732c3.72,0,6.731,3.02,6.731,6.732
	C1451.481,744.922,1448.468,747.936,1444.748,747.936z M1444.748,695.936c-3.72,0-6.73-3.014-6.73-6.73s3.014-6.732,6.73-6.732
	c3.72,0,6.731,3.02,6.731,6.732C1451.481,692.922,1448.468,695.936,1444.748,695.936z M1444.748,643.936
	c-3.72,0-6.73-3.014-6.73-6.73s3.014-6.732,6.73-6.732c3.72,0,6.731,3.02,6.731,6.732
	C1451.481,640.922,1448.468,643.936,1444.748,643.936z M1444.748,591.936c-3.72,0-6.73-3.014-6.73-6.73s3.014-6.732,6.73-6.732
	c3.72,0,6.731,3.02,6.731,6.732C1451.481,588.922,1448.468,591.936,1444.748,591.936z M1444.748,539.936
	c-3.72,0-6.73-3.014-6.73-6.73c0-3.716,3.014-6.733,6.73-6.733c3.72,0,6.731,3.019,6.731,6.733
	C1451.481,536.922,1448.468,539.936,1444.748,539.936z M1444.748,487.934c-3.72,0-6.73-3.014-6.73-6.729s3.014-6.732,6.73-6.732
	c3.72,0,6.731,3.019,6.731,6.732C1451.481,484.92,1448.468,487.934,1444.748,487.934z M1444.748,435.935
	c-3.72,0-6.73-3.014-6.73-6.729s3.014-6.732,6.73-6.732c3.72,0,6.731,3.017,6.731,6.732S1448.468,435.935,1444.748,435.935z
	 M1444.748,383.936c-3.72,0-6.73-3.014-6.73-6.732c0-3.718,3.014-6.732,6.73-6.732c3.72,0,6.731,3.014,6.731,6.732
	C1451.481,380.921,1448.468,383.936,1444.748,383.936z M1444.748,331.936c-3.72,0-6.73-3.014-6.73-6.732
	c0-3.718,3.014-6.732,6.73-6.732c3.72,0,6.731,3.014,6.731,6.732C1451.481,328.921,1448.468,331.936,1444.748,331.936z
	 M1444.748,279.936c-3.72,0-6.73-3.014-6.73-6.732c0-3.718,3.014-6.732,6.73-6.732c3.72,0,6.731,3.014,6.731,6.732
	C1451.481,276.921,1448.468,279.936,1444.748,279.936z M1444.748,227.936c-3.72,0-6.73-3.014-6.73-6.732
	c0-3.718,3.014-6.732,6.73-6.732c3.72,0,6.731,3.014,6.731,6.732C1451.481,224.921,1448.468,227.936,1444.748,227.936z
	 M1444.748,175.936c-3.72,0-6.73-3.014-6.73-6.732c0-3.718,3.014-6.732,6.73-6.732c3.72,0,6.731,3.014,6.731,6.732
	C1451.481,172.921,1448.468,175.936,1444.748,175.936z M1444.748,123.936c-3.72,0-6.73-3.014-6.73-6.732
	c0-3.718,3.014-6.732,6.73-6.732c3.72,0,6.731,3.014,6.731,6.732C1451.481,120.921,1448.468,123.936,1444.748,123.936z
	 M1444.748,71.936c-3.72,0-6.73-3.014-6.73-6.732c0-3.718,3.014-6.732,6.73-6.732c3.72,0,6.731,3.014,6.731,6.732
	C1451.481,68.921,1448.468,71.936,1444.748,71.936z M1501.318,747.936c-3.719,0-6.731-3.014-6.731-6.73s3.016-6.732,6.731-6.732
	s6.732,3.02,6.732,6.732C1508.052,744.922,1505.035,747.936,1501.318,747.936z M1501.318,695.936c-3.719,0-6.731-3.014-6.731-6.73
	s3.016-6.732,6.731-6.732s6.732,3.02,6.732,6.732C1508.052,692.922,1505.035,695.936,1501.318,695.936z M1501.318,643.936
	c-3.719,0-6.731-3.014-6.731-6.73s3.016-6.732,6.731-6.732s6.732,3.02,6.732,6.732
	C1508.052,640.922,1505.035,643.936,1501.318,643.936z M1501.318,591.936c-3.719,0-6.731-3.014-6.731-6.73s3.016-6.732,6.731-6.732
	s6.732,3.02,6.732,6.732C1508.052,588.922,1505.035,591.936,1501.318,591.936z M1501.318,539.936c-3.719,0-6.731-3.014-6.731-6.73
	c0-3.716,3.016-6.733,6.731-6.733s6.732,3.019,6.732,6.733C1508.052,536.922,1505.035,539.936,1501.318,539.936z M1501.318,487.934
	c-3.719,0-6.731-3.014-6.731-6.729s3.016-6.732,6.731-6.732s6.732,3.019,6.732,6.732
	C1508.052,484.92,1505.035,487.934,1501.318,487.934z M1501.318,435.935c-3.719,0-6.731-3.014-6.731-6.729s3.016-6.732,6.731-6.732
	s6.732,3.017,6.732,6.732S1505.035,435.935,1501.318,435.935z M1501.318,383.936c-3.719,0-6.731-3.014-6.731-6.732
	c0-3.718,3.016-6.732,6.731-6.732s6.732,3.014,6.732,6.732C1508.051,380.921,1505.035,383.936,1501.318,383.936z M1501.318,331.936
	c-3.719,0-6.731-3.014-6.731-6.732c0-3.718,3.016-6.732,6.731-6.732s6.732,3.014,6.732,6.732
	C1508.051,328.921,1505.035,331.936,1501.318,331.936z M1501.318,279.936c-3.719,0-6.731-3.014-6.731-6.732
	c0-3.718,3.016-6.732,6.731-6.732s6.732,3.014,6.732,6.732C1508.051,276.921,1505.035,279.936,1501.318,279.936z M1501.318,227.936
	c-3.719,0-6.731-3.014-6.731-6.732c0-3.718,3.016-6.732,6.731-6.732s6.732,3.014,6.732,6.732
	C1508.051,224.921,1505.035,227.936,1501.318,227.936z M1501.318,175.936c-3.719,0-6.731-3.014-6.731-6.732
	c0-3.718,3.016-6.732,6.731-6.732s6.732,3.014,6.732,6.732C1508.051,172.921,1505.035,175.936,1501.318,175.936z M1501.318,123.936
	c-3.719,0-6.731-3.014-6.731-6.732c0-3.718,3.016-6.732,6.731-6.732s6.732,3.014,6.732,6.732
	C1508.051,120.921,1505.035,123.936,1501.318,123.936z M1501.318,71.936c-3.719,0-6.731-3.014-6.731-6.732
	c0-3.718,3.016-6.732,6.731-6.732s6.732,3.014,6.732,6.732C1508.051,68.921,1505.035,71.936,1501.318,71.936z M1557.889,695.936
	c-3.72,0-6.732-3.014-6.732-6.73s3.016-6.732,6.732-6.732s6.729,3.02,6.729,6.732
	C1564.619,692.922,1561.607,695.936,1557.889,695.936z M1557.889,643.936c-3.72,0-6.732-3.014-6.732-6.73s3.016-6.732,6.732-6.732
	s6.729,3.02,6.729,6.732C1564.619,640.922,1561.607,643.936,1557.889,643.936z M1557.889,591.936c-3.72,0-6.732-3.014-6.732-6.73
	s3.016-6.732,6.732-6.732s6.729,3.02,6.729,6.732C1564.619,588.922,1561.607,591.936,1557.889,591.936z M1557.889,539.936
	c-3.72,0-6.732-3.014-6.732-6.73c0-3.716,3.016-6.733,6.732-6.733s6.729,3.019,6.729,6.733
	C1564.619,536.922,1561.607,539.936,1557.889,539.936z M1557.889,487.934c-3.72,0-6.732-3.014-6.732-6.729s3.016-6.732,6.732-6.732
	s6.729,3.019,6.729,6.732C1564.619,484.92,1561.607,487.934,1557.889,487.934z M1557.889,435.935c-3.72,0-6.732-3.014-6.732-6.729
	s3.016-6.732,6.732-6.732s6.729,3.017,6.729,6.732S1561.607,435.935,1557.889,435.935z M1557.889,383.936
	c-3.72,0-6.732-3.014-6.732-6.732c0-3.718,3.016-6.732,6.732-6.732s6.729,3.014,6.729,6.732
	C1564.619,380.921,1561.607,383.936,1557.889,383.936z M1557.889,331.936c-3.72,0-6.732-3.014-6.732-6.732
	c0-3.718,3.016-6.732,6.732-6.732s6.729,3.014,6.729,6.732C1564.619,328.921,1561.607,331.936,1557.889,331.936z M1557.889,279.936
	c-3.72,0-6.732-3.014-6.732-6.732c0-3.718,3.016-6.732,6.732-6.732s6.729,3.014,6.729,6.732
	C1564.619,276.921,1561.607,279.936,1557.889,279.936z M1557.889,227.936c-3.72,0-6.732-3.014-6.732-6.732
	c0-3.718,3.016-6.732,6.732-6.732s6.729,3.014,6.729,6.732C1564.619,224.921,1561.607,227.936,1557.889,227.936z M1557.889,175.936
	c-3.72,0-6.732-3.014-6.732-6.732c0-3.718,3.016-6.732,6.732-6.732s6.729,3.014,6.729,6.732
	C1564.619,172.921,1561.607,175.936,1557.889,175.936z M1557.889,123.936c-3.72,0-6.732-3.014-6.732-6.732
	c0-3.718,3.016-6.732,6.732-6.732s6.729,3.014,6.729,6.732C1564.619,120.921,1561.607,123.936,1557.889,123.936z M1614.459,695.936
	c-3.72,0-6.73-3.014-6.73-6.73s3.014-6.732,6.73-6.732c3.72,0,6.731,3.02,6.731,6.732
	C1621.192,692.922,1618.179,695.936,1614.459,695.936z M1614.459,643.936c-3.72,0-6.73-3.014-6.73-6.73s3.014-6.732,6.73-6.732
	c3.72,0,6.731,3.02,6.731,6.732C1621.192,640.922,1618.179,643.936,1614.459,643.936z M1614.459,591.936
	c-3.72,0-6.73-3.014-6.73-6.73s3.014-6.732,6.73-6.732c3.72,0,6.731,3.02,6.731,6.732
	C1621.192,588.922,1618.179,591.936,1614.459,591.936z M1614.459,539.936c-3.72,0-6.73-3.014-6.73-6.73
	c0-3.716,3.014-6.733,6.73-6.733c3.72,0,6.731,3.019,6.731,6.733C1621.192,536.922,1618.179,539.936,1614.459,539.936z
	 M1614.459,487.934c-3.72,0-6.73-3.014-6.73-6.729s3.014-6.732,6.73-6.732c3.72,0,6.731,3.019,6.731,6.732
	C1621.192,484.92,1618.179,487.934,1614.459,487.934z M1614.459,435.935c-3.72,0-6.73-3.014-6.73-6.729s3.014-6.732,6.73-6.732
	c3.72,0,6.731,3.017,6.731,6.732S1618.179,435.935,1614.459,435.935z M1614.459,383.936c-3.72,0-6.73-3.014-6.73-6.732
	c0-3.718,3.014-6.732,6.73-6.732c3.72,0,6.731,3.014,6.731,6.732C1621.192,380.921,1618.179,383.936,1614.459,383.936z
	 M1614.459,331.936c-3.72,0-6.73-3.014-6.73-6.732c0-3.718,3.014-6.732,6.73-6.732c3.72,0,6.731,3.014,6.731,6.732
	C1621.192,328.921,1618.179,331.936,1614.459,331.936z M1614.459,279.936c-3.72,0-6.73-3.014-6.73-6.732
	c0-3.718,3.014-6.732,6.73-6.732c3.72,0,6.731,3.014,6.731,6.732C1621.192,276.921,1618.179,279.936,1614.459,279.936z
	 M1614.459,227.936c-3.72,0-6.73-3.014-6.73-6.732c0-3.718,3.014-6.732,6.73-6.732c3.72,0,6.731,3.014,6.731,6.732
	C1621.192,224.921,1618.179,227.936,1614.459,227.936z M1614.459,175.936c-3.72,0-6.73-3.014-6.73-6.732
	c0-3.718,3.014-6.732,6.73-6.732c3.72,0,6.731,3.014,6.731,6.732C1621.192,172.921,1618.179,175.936,1614.459,175.936z
	 M1671.03,643.936c-3.719,0-6.729-3.014-6.729-6.73s3.014-6.732,6.729-6.732s6.732,3.02,6.732,6.732
	C1677.763,640.922,1674.748,643.936,1671.03,643.936z M1671.03,591.936c-3.719,0-6.729-3.014-6.729-6.73s3.014-6.732,6.729-6.732
	s6.732,3.02,6.732,6.732C1677.763,588.922,1674.748,591.936,1671.03,591.936z M1671.03,539.936c-3.719,0-6.729-3.014-6.729-6.73
	c0-3.716,3.014-6.733,6.729-6.733s6.732,3.019,6.732,6.733C1677.763,536.922,1674.748,539.936,1671.03,539.936z M1671.03,487.934
	c-3.719,0-6.729-3.014-6.729-6.729s3.014-6.732,6.729-6.732s6.732,3.019,6.732,6.732
	C1677.763,484.92,1674.748,487.934,1671.03,487.934z M1671.03,435.935c-3.719,0-6.729-3.014-6.729-6.729s3.014-6.732,6.729-6.732
	s6.732,3.017,6.732,6.732S1674.748,435.935,1671.03,435.935z M1671.03,383.936c-3.719,0-6.729-3.014-6.729-6.732
	c0-3.718,3.014-6.732,6.729-6.732s6.732,3.014,6.732,6.732C1677.762,380.921,1674.748,383.936,1671.03,383.936z M1671.03,331.936
	c-3.719,0-6.729-3.014-6.729-6.732c0-3.718,3.014-6.732,6.729-6.732s6.732,3.014,6.732,6.732
	C1677.762,328.921,1674.748,331.936,1671.03,331.936z M1671.03,279.936c-3.719,0-6.729-3.014-6.729-6.732
	c0-3.718,3.014-6.732,6.729-6.732s6.732,3.014,6.732,6.732C1677.762,276.921,1674.748,279.936,1671.03,279.936z M1671.03,227.936
	c-3.719,0-6.729-3.014-6.729-6.732c0-3.718,3.014-6.732,6.729-6.732s6.732,3.014,6.732,6.732
	C1677.762,224.921,1674.748,227.936,1671.03,227.936z M1671.03,175.936c-3.719,0-6.729-3.014-6.729-6.732
	c0-3.718,3.014-6.732,6.729-6.732s6.732,3.014,6.732,6.732C1677.762,172.921,1674.748,175.936,1671.03,175.936z M1727.601,643.936
	c-3.719,0-6.732-3.014-6.732-6.73s3.017-6.732,6.732-6.732s6.731,3.02,6.731,6.732
	C1734.332,640.922,1731.319,643.936,1727.601,643.936z M1727.601,591.936c-3.719,0-6.732-3.014-6.732-6.73s3.017-6.732,6.732-6.732
	s6.731,3.02,6.731,6.732C1734.332,588.922,1731.319,591.936,1727.601,591.936z M1727.601,539.936c-3.719,0-6.732-3.014-6.732-6.73
	c0-3.716,3.017-6.733,6.732-6.733s6.731,3.019,6.731,6.733C1734.332,536.922,1731.319,539.936,1727.601,539.936z M1727.601,487.934
	c-3.719,0-6.732-3.014-6.732-6.729s3.017-6.732,6.732-6.732s6.731,3.019,6.731,6.732
	C1734.332,484.92,1731.319,487.934,1727.601,487.934z M1727.601,435.935c-3.719,0-6.732-3.014-6.732-6.729s3.017-6.732,6.732-6.732
	s6.731,3.017,6.731,6.732S1731.319,435.935,1727.601,435.935z M1727.601,383.936c-3.719,0-6.732-3.014-6.732-6.732
	c0-3.718,3.017-6.732,6.732-6.732s6.731,3.014,6.731,6.732C1734.332,380.921,1731.319,383.936,1727.601,383.936z M1727.601,331.936
	c-3.719,0-6.732-3.014-6.732-6.732c0-3.718,3.017-6.732,6.732-6.732s6.731,3.014,6.731,6.732
	C1734.332,328.921,1731.319,331.936,1727.601,331.936z M1727.601,279.936c-3.719,0-6.732-3.014-6.732-6.732
	c0-3.718,3.017-6.732,6.732-6.732s6.731,3.014,6.731,6.732C1734.332,276.921,1731.319,279.936,1727.601,279.936z M1727.601,227.936
	c-3.719,0-6.732-3.014-6.732-6.732c0-3.718,3.017-6.732,6.732-6.732s6.731,3.014,6.731,6.732
	C1734.332,224.921,1731.319,227.936,1727.601,227.936z M1784.172,591.936c-3.722,0-6.732-3.014-6.732-6.73s3.014-6.732,6.732-6.732
	c3.718,0,6.729,3.02,6.729,6.732C1790.903,588.922,1787.89,591.936,1784.172,591.936z M1784.172,539.936
	c-3.722,0-6.732-3.014-6.732-6.73c0-3.716,3.014-6.733,6.732-6.733c3.718,0,6.729,3.019,6.729,6.733
	C1790.903,536.922,1787.89,539.936,1784.172,539.936z M1784.172,487.934c-3.722,0-6.732-3.014-6.732-6.729s3.014-6.732,6.732-6.732
	c3.718,0,6.729,3.019,6.729,6.732C1790.903,484.92,1787.89,487.934,1784.172,487.934z M1784.172,435.935
	c-3.722,0-6.732-3.014-6.732-6.729s3.014-6.732,6.732-6.732c3.718,0,6.729,3.017,6.729,6.732S1787.89,435.935,1784.172,435.935z
	 M1784.172,383.936c-3.722,0-6.732-3.014-6.732-6.732c0-3.718,3.014-6.732,6.732-6.732c3.718,0,6.729,3.014,6.729,6.732
	C1790.903,380.921,1787.89,383.936,1784.172,383.936z M1784.172,331.936c-3.722,0-6.732-3.014-6.732-6.732
	c0-3.718,3.014-6.732,6.732-6.732c3.718,0,6.729,3.014,6.729,6.732C1790.903,328.921,1787.89,331.936,1784.172,331.936z
	 M1784.172,279.936c-3.722,0-6.732-3.014-6.732-6.732c0-3.718,3.014-6.732,6.732-6.732c3.718,0,6.729,3.014,6.729,6.732
	C1790.903,276.921,1787.89,279.936,1784.172,279.936z M1784.172,227.936c-3.722,0-6.732-3.014-6.732-6.732
	c0-3.718,3.014-6.732,6.732-6.732c3.718,0,6.729,3.014,6.729,6.732C1790.903,224.921,1787.89,227.936,1784.172,227.936z
	 M1840.74,591.936c-3.719,0-6.729-3.014-6.729-6.73s3.014-6.732,6.729-6.732s6.732,3.02,6.732,6.732
	C1847.474,588.922,1844.459,591.936,1840.74,591.936z M1840.74,539.936c-3.719,0-6.729-3.014-6.729-6.73
	c0-3.716,3.014-6.733,6.729-6.733s6.732,3.019,6.732,6.733C1847.474,536.922,1844.459,539.936,1840.74,539.936z M1840.74,487.934
	c-3.719,0-6.729-3.014-6.729-6.729s3.014-6.732,6.729-6.732s6.732,3.019,6.732,6.732
	C1847.474,484.92,1844.459,487.934,1840.74,487.934z M1840.74,435.935c-3.719,0-6.729-3.014-6.729-6.729s3.014-6.732,6.729-6.732
	s6.732,3.017,6.732,6.732S1844.459,435.935,1840.74,435.935z M1840.74,383.936c-3.719,0-6.729-3.014-6.729-6.732
	c0-3.718,3.014-6.732,6.729-6.732s6.732,3.014,6.732,6.732C1847.473,380.921,1844.459,383.936,1840.74,383.936z M1840.74,331.936
	c-3.719,0-6.729-3.014-6.729-6.732c0-3.718,3.014-6.732,6.729-6.732s6.732,3.014,6.732,6.732
	C1847.473,328.921,1844.459,331.936,1840.74,331.936z M1840.74,279.936c-3.719,0-6.729-3.014-6.729-6.732
	c0-3.718,3.014-6.732,6.729-6.732s6.732,3.014,6.732,6.732C1847.473,276.921,1844.459,279.936,1840.74,279.936z M1897.312,539.936
	c-3.719,0-6.732-3.014-6.732-6.73c0-3.716,3.017-6.733,6.732-6.733s6.732,3.019,6.732,6.733
	C1904.043,536.922,1901.03,539.936,1897.312,539.936z M1897.312,487.934c-3.719,0-6.732-3.014-6.732-6.729s3.017-6.732,6.732-6.732
	s6.732,3.019,6.732,6.732C1904.043,484.92,1901.03,487.934,1897.312,487.934z M1897.312,435.935c-3.719,0-6.732-3.014-6.732-6.729
	s3.017-6.732,6.732-6.732s6.732,3.017,6.732,6.732S1901.03,435.935,1897.312,435.935z M1897.312,383.936
	c-3.719,0-6.732-3.014-6.732-6.732c0-3.718,3.017-6.732,6.732-6.732s6.732,3.014,6.732,6.732
	C1904.043,380.921,1901.03,383.936,1897.312,383.936z M1897.312,331.936c-3.719,0-6.732-3.014-6.732-6.732
	c0-3.718,3.017-6.732,6.732-6.732s6.732,3.014,6.732,6.732C1904.043,328.921,1901.03,331.936,1897.312,331.936z M1897.312,279.936
	c-3.719,0-6.732-3.014-6.732-6.732c0-3.718,3.017-6.732,6.732-6.732s6.732,3.014,6.732,6.732
	C1904.043,276.921,1901.03,279.936,1897.312,279.936z M1953.883,487.934c-3.721,0-6.732-3.014-6.732-6.729s3.014-6.732,6.732-6.732
	c3.718,0,6.729,3.019,6.729,6.732C1960.614,484.92,1957.601,487.934,1953.883,487.934z M1953.883,435.935
	c-3.721,0-6.732-3.014-6.732-6.729s3.014-6.732,6.732-6.732c3.718,0,6.729,3.017,6.729,6.732S1957.601,435.935,1953.883,435.935z
	 M1953.883,383.936c-3.721,0-6.732-3.014-6.732-6.732c0-3.718,3.014-6.732,6.732-6.732c3.718,0,6.729,3.014,6.729,6.732
	C1960.614,380.921,1957.601,383.936,1953.883,383.936z M1953.883,331.936c-3.721,0-6.732-3.014-6.732-6.732
	c0-3.718,3.014-6.732,6.732-6.732c3.718,0,6.729,3.014,6.729,6.732C1960.614,328.921,1957.601,331.936,1953.883,331.936z
	 M1953.883,279.936c-3.721,0-6.732-3.014-6.732-6.732c0-3.718,3.014-6.732,6.732-6.732c3.718,0,6.729,3.014,6.729,6.732
	C1960.614,276.921,1957.601,279.936,1953.883,279.936z M2010.45,435.935c-3.719,0-6.729-3.014-6.729-6.729s3.014-6.732,6.729-6.732
	c3.721,0,6.732,3.017,6.732,6.732S2014.172,435.935,2010.45,435.935z M2010.45,383.936c-3.719,0-6.729-3.014-6.729-6.732
	c0-3.718,3.014-6.732,6.729-6.732c3.721,0,6.732,3.014,6.732,6.732C2017.184,380.921,2014.172,383.936,2010.45,383.936z
	 M2010.45,331.936c-3.719,0-6.729-3.014-6.729-6.732c0-3.718,3.014-6.732,6.729-6.732c3.721,0,6.732,3.014,6.732,6.732
	C2017.184,328.921,2014.172,331.936,2010.45,331.936z M2067.022,383.936c-3.719,0-6.73-3.014-6.73-6.732
	c0-3.718,3.015-6.732,6.73-6.732s6.73,3.014,6.73,6.732C2073.752,380.921,2070.74,383.936,2067.022,383.936z M2067.022,331.936
	c-3.719,0-6.73-3.014-6.73-6.732c0-3.718,3.015-6.732,6.73-6.732s6.73,3.014,6.73,6.732
	C2073.752,328.921,2070.74,331.936,2067.022,331.936z M2123.594,383.936c-3.721,0-6.732-3.014-6.732-6.732
	c0-3.718,3.016-6.732,6.732-6.732s6.729,3.014,6.729,6.732C2130.323,380.921,2127.312,383.936,2123.594,383.936z M2180.162,383.936
	c-3.72,0-6.73-3.014-6.73-6.732c0-3.718,3.014-6.732,6.73-6.732c3.72,0,6.731,3.014,6.731,6.732
	C2186.895,380.921,2183.883,383.936,2180.162,383.936z"/>
</svg>
