<?xml version="1.0" encoding="utf-8"?>
<!-- Generator: Adobe Illustrator 16.0.0, SVG Export Plug-In . SVG Version: 6.00 Build 0)  -->
<!DOCTYPE svg PUBLIC "-//W3C//DTD SVG 1.1//EN" "http://www.w3.org/Graphics/SVG/1.1/DTD/svg11.dtd">
<svg version="1.1" id="Layer_1" xmlns="http://www.w3.org/2000/svg" xmlns:xlink="http://www.w3.org/1999/xlink" x="0px" y="0px"
	 width="1075.105px" height="1220.314px" viewBox="0 0 1075.105 1220.314" enable-background="new 0 0 1075.105 1220.314"
	 xml:space="preserve">
<path fill="none" stroke="#000000" stroke-linejoin="round" stroke-miterlimit="10" d="M538.39,913.318
	c0,0,22.541-2.773,45.188-7.566c22.646-4.795,60.033-28.717,74.094-29.143c14.062-0.426,19.928,18.516,15.881,26.795
	s-69.215,178.195-73.357,189.281c-4.148,11.086,7.104,10.559,10.217,2.242c3.109-8.312,65.521-153.982,68.564-160.43
	c3.047-6.443,12.037-22.033,11.547-34.225c-0.492-12.189-10.799-37.848-10.799-37.848s43.064-77.086,46.012-80.727
	c2.938-3.639,10.453-4.303,14.229-5.102c3.775-0.801,70.404-4.934,74.18-5.729c3.773-0.801,11.055,5.082,8.012,11.525
	c-3.045,6.443-23.82,62.805-24.471,80.57c-0.645,17.77-5.438,46.619-0.17,56.175c5.271,9.556,28.635,36.62,31.336,39.528
	c2.703,2.904,4.336,9.521,3.268,13.229c-1.072,3.707-37.779,60.426-43.797,71.439c-6.021,11.02-44.205,82.664-45.242,85.438
	c-1.037,2.771-3.01,5.508-9.656,8.076c-6.646,2.564-98.221,48.861-120.17,60.234c-21.949,11.375-80.435,23.227-80.435,23.227
	s-58.02-14.141-79.537-26.305c-21.521-12.163-111.354-61.756-117.9-64.562c-6.549-2.808-8.42-5.613-9.354-8.42
	c-0.938-2.811-36.498-75.795-42.107-87.021c-5.615-11.229-40.236-69.242-41.172-72.984s0.936-10.293,3.742-13.104
	c2.807-2.807,27.137-29.006,32.75-38.361c5.615-9.355,1.871-38.363,1.871-56.145s-18.713-74.855-21.521-81.406
	c-2.807-6.553,4.68-12.164,8.422-11.229c3.742,0.936,70.183,7.484,73.921,8.422c3.744,0.938,11.229,1.871,14.035,5.612
	c2.812,3.743,43.043,82.345,43.043,82.345s-11.227,25.266-12.164,37.43c-0.936,12.164,7.486,28.07,10.293,34.621
	c2.811,6.551,59.891,154.396,62.693,162.813c2.807,8.423,14.035,9.354,10.293-1.87c-3.742-11.229-62.693-183.4-66.437-191.822
	c-3.744-8.422,2.808-27.137,16.843-26.199c14.037,0.938,50.525,26.199,72.982,31.812C515.966,909.559,538.39,913.318,538.39,913.318
	z M36.926,62.722c-5.84-2.02-11.777,4.753-16.75,12.513c-4.972,7.76-1.647,59.578,3.994,79.182s206.901,540.659,210.72,548.518
	c3.82,7.857,15.422,18.736,36.836,25.816c21.416,7.08,92.672,12.768,97.557,12.822c4.885,0.053,15.562,6.037,17.475,9.967
	c1.91,3.932,44.016,82.562,49.775,91.422c5.762,8.857,13.521,13.83,19.371,14.873c5.852,1.043,67.258,14.414,88.783,11.727
	c21.513,2.785,82.979-10.367,88.837-11.385c5.854-1.02,13.637-5.955,19.438-14.787c5.803-8.832,48.258-87.273,50.188-91.193
	c1.928-3.923,12.635-9.855,17.52-9.891s76.166-5.398,97.613-12.385c21.443-6.981,33.096-17.811,36.951-25.65
	c3.854-7.842,207.453-527.987,213.184-547.564c5.73-19.578,9.285-71.381,4.35-79.164c-4.938-7.781-10.846-14.58-16.689-12.588
	c-5.854,1.994-304.086,107.568-326.543,109.674c-22.455,2.105-156.924,8.9-183.3,9.078c-26.375-0.297-160.812-7.637-183.262-9.844
	C340.525,171.656,42.766,64.741,36.926,62.722z M958.759,333.917c0,44.732-36.262,80.996-80.994,80.996
	c-44.73,0-80.996-36.264-80.996-80.996s36.266-80.996,80.996-80.996C922.497,252.921,958.759,289.185,958.759,333.917z"/>
</svg>
