<?xml version="1.0" encoding="utf-8"?>
<!-- Generator: Adobe Illustrator 16.0.0, SVG Export Plug-In . SVG Version: 6.00 Build 0)  -->
<!DOCTYPE svg PUBLIC "-//W3C//DTD SVG 1.1//EN" "http://www.w3.org/Graphics/SVG/1.1/DTD/svg11.dtd">
<svg version="1.1" id="Layer_1" xmlns="http://www.w3.org/2000/svg" xmlns:xlink="http://www.w3.org/1999/xlink" x="0px" y="0px"
	 width="416.572px" height="613.699px" viewBox="0 0 416.572 613.699" enable-background="new 0 0 416.572 613.699"
	 xml:space="preserve">
<path d="M415.867,7.059c-1.151-7.761-6.989-7.625-13.776-6.492c-6.787,1.132-124.945,27.255-178.347,33.369
	C170.344,40.05,84.837,46.915,74.134,47.165c-10.702,0.25-17.24,12.085-17.082,18.895c0,0-2.247,153.865-17.825,278.836
	C27.954,435.335,3.224,554.068,0.171,590.158c-3.052,36.092,35.552,21.561,50.979,15.354
	c15.432-6.197,261.812-127.801,282.896-141.922c21.086-14.123,28.481-30.844,35.881-47.562
	c7.396-16.725,28.229-83.405,38.151-200.458C418.004,98.519,417.025,14.819,415.867,7.059z"/>
</svg>
