<?xml version="1.0" encoding="utf-8"?>
<!-- Generator: Adobe Illustrator 16.0.0, SVG Export Plug-In . SVG Version: 6.00 Build 0)  -->
<!DOCTYPE svg PUBLIC "-//W3C//DTD SVG 1.1//EN" "http://www.w3.org/Graphics/SVG/1.1/DTD/svg11.dtd">
<svg version="1.1" id="Layer_1" xmlns="http://www.w3.org/2000/svg" xmlns:xlink="http://www.w3.org/1999/xlink" x="0px" y="0px"
	 width="549.781px" height="289.271px" viewBox="0 0 549.781 289.271" enable-background="new 0 0 549.781 289.271"
	 xml:space="preserve">
<path d="M328.54,201.285l-46.42-30.521l0,0c-2.309-1.521-31.661-18.774-47.521-28.107c-13.902-8.18-27.188-17.438-41.604-24.72l0,0
	l-47.017-23.758l0,0c-11.518-5.818-22.858-11.978-34.363-17.814l0,0l-36.52-18.543l0,0c-8.657-4.396-16.976-9.43-25.591-13.9l0,0
	L11.263,24.079l0,0c-3.725-1.932-5.924-5.695-8.902-8.521c-5.782-5.49,0.114-12.896,6.364-14.772
	C10.008,0.4,20.823-0.187,21.27,0.059c2.32,1.278,34.786,2.413,52.205,3.137c7.084,0.296,10.914,0.479,11.634,0.479
	c14.528,0.044,63.417,1.649,95.119,2.689l0,0l13.995,0.46l0,0c21.734,0.714,43.479-0.365,65.22-0.482
	c35.653-0.188,71.396-6.851,106.938-2.099c6.395,0.854,10.438,1.831,12.131,2.931c3.229,2.096,6.014,4.789,9.194,6.939
	c1.492,1.008,6.396,5.89,9.479,8.956c5.18,5.158,36.973,45.894,55.061,69.156c28.783,37.021,82.47,103.683,85.384,108.458l0,0
	l8.896,11.762l0,0c6.447,10.101,3.314,17.118-9.379,21.155l0,0l-10.234,3.277l0,0c-22.328,7.233-43.809,20.158-64.414,38.979l0,0
	l-8.069,7.35l0,0c-1.73,1.578-4.732,3.646-8.814,6.063l0,0l-10.771-0.555l-75.979-65.459l0,0
	C349.384,215.103,338.977,208.146,328.54,201.285L328.54,201.285"/>
</svg>
