<?xml version="1.0" encoding="utf-8"?>
<!-- Generator: Adobe Illustrator 16.0.0, SVG Export Plug-In . SVG Version: 6.00 Build 0)  -->
<!DOCTYPE svg PUBLIC "-//W3C//DTD SVG 1.1//EN" "http://www.w3.org/Graphics/SVG/1.1/DTD/svg11.dtd">
<svg version="1.1" id="Layer_1" xmlns="http://www.w3.org/2000/svg" xmlns:xlink="http://www.w3.org/1999/xlink" x="0px" y="0px"
	 width="741.4px" height="555.57px" viewBox="0 0 741.4 555.57" enable-background="new 0 0 741.4 555.57" xml:space="preserve">
<path fill="none" stroke="#000000" stroke-linejoin="round" stroke-miterlimit="10" d="M694.669,63.949
	c0.325-2.524,2.452-3.485,4.767-3.501c3.36,1.238,6.992,1.914,10.782,1.915c17.222,0,31.183-13.96,31.183-31.181
	C741.399,13.96,727.438,0,710.218,0s-31.181,13.96-31.181,31.181c0,5.145,1.246,9.999,3.452,14.276v-0.003
	c0,1.902-1.717,1.998-3.213,1.818l-0.005-0.003c-3.467-1.524-7.294-2.372-11.312-2.372H529.113
	c-15.592,0-27.793,12.744-27.115,28.32c0,0,3.914,90.033-34.68,134.632c-36.275,41.918-97.271,91.826-97.271,91.826
	c-12.065,9.875-31.812,9.875-43.879,0c0,0-60.996-49.908-97.271-91.826c-38.594-44.599-34.68-134.632-34.68-134.632
	c0.678-15.576-11.524-28.32-27.115-28.32H28.255C12.664,44.898-0.051,57.654,0,73.246l0.674,206.6
	c0.051,15.59,10.342,35.941,22.87,45.221l301.785,223.546c12.53,9.276,33.03,9.276,45.556,0l301.787-223.548
	c12.527-9.279,22.818-29.629,22.869-45.219l0.674-206.6c0.011-3.255-0.534-6.386-1.546-9.303V63.949z"/>
</svg>
