<?xml version="1.0" encoding="utf-8"?>
<!-- Generator: Adobe Illustrator 16.0.0, SVG Export Plug-In . SVG Version: 6.00 Build 0)  -->
<!DOCTYPE svg PUBLIC "-//W3C//DTD SVG 1.1//EN" "http://www.w3.org/Graphics/SVG/1.1/DTD/svg11.dtd">
<svg version="1.1" id="Layer_1" xmlns="http://www.w3.org/2000/svg" xmlns:xlink="http://www.w3.org/1999/xlink" x="0px" y="0px"
	 width="741.4px" height="555.57px" viewBox="0 0 741.4 555.57" enable-background="new 0 0 741.4 555.57" xml:space="preserve">
<path fill="none" stroke="#000000" stroke-miterlimit="10" d="M370.885,548.611c-12.525,9.277-33.025,9.277-45.556,0L23.544,325.066
	c-12.528-9.279-22.819-29.631-22.87-45.222L0,73.246c-0.051-15.592,12.664-28.348,28.255-28.348h138.847
	c15.591,0,27.793,12.744,27.115,28.32c0,0-3.914,90.033,34.68,134.632c36.275,41.918,97.271,91.826,97.271,91.826
	c12.066,9.875,31.812,9.875,43.879,0c0,0,60.996-49.908,97.271-91.826c38.594-44.599,34.68-134.632,34.68-134.632
	c-0.678-15.576,11.523-28.32,27.115-28.32h138.848c15.59,0,28.305,12.756,28.254,28.348l-0.674,206.6
	c-0.051,15.59-10.342,35.938-22.869,45.219L370.885,548.611z"/>
</svg>
