<?xml version="1.0" encoding="utf-8"?>
<!-- Generator: Adobe Illustrator 16.0.0, SVG Export Plug-In . SVG Version: 6.00 Build 0)  -->
<!DOCTYPE svg PUBLIC "-//W3C//DTD SVG 1.1//EN" "http://www.w3.org/Graphics/SVG/1.1/DTD/svg11.dtd">
<svg version="1.1" id="Layer_1" xmlns="http://www.w3.org/2000/svg" xmlns:xlink="http://www.w3.org/1999/xlink" x="0px" y="0px"
	 width="1521.268px" height="524.771px" viewBox="0 0 1521.268 524.771" enable-background="new 0 0 1521.268 524.771"
	 xml:space="preserve">
<path d="M1503.22,1.845c0,0-41.506-2.4-118.248-1.727c-76.74,0.676-132.229,7.337-132.229,7.337
	c-15.479,1.857-36.329,13.162-46.334,25.119c0,0-34.744,41.52-94.613,109.491c-59.865,67.97-124.818,87.148-143.361,94.287
	c-18.541,7.142-21.009-9.117-2.468-16.258c18.544-7.14,92.549-54.305,124.801-89.474c32.249-35.169,78.229-88.662,78.229-88.662
	c10.164-11.822,5.756-20.568-9.795-19.434l-124.742,9.1c-15.549,1.134-34.843,12.995-42.868,26.358
	c0,0-28.954,48.182-84.189,113.788c-55.234,65.606-143.588,68.709-211.047,66.977s-681.1-11.891-681.1-11.891
	c-15.589-0.257-19.958,9.143-9.707,20.889c0,0,37.749,43.266,72.691,49.936c34.944,6.67,347.106,66.715,382.158,85.01
	c35.047,18.302,145.396,118.976,145.396,118.976c11.518,10.506,33.642,20.305,49.164,21.771l11.06,1.05
	c15.521,1.467,39.73-2.834,53.802-9.56c0,0,326.442-155.995,358.896-167.911c32.455-11.914,195.383,2.932,223.329,7.34
	c27.946,4.397,46.489-2.736,57.934-23.771c11.443-21.027,158.407-301.986,158.407-301.986
	C1525.607,14.784,1518.785,2.745,1503.22,1.845z"/>
</svg>
