<?xml version="1.0" encoding="utf-8"?>
<!-- Generator: Adobe Illustrator 16.0.0, SVG Export Plug-In . SVG Version: 6.00 Build 0)  -->
<!DOCTYPE svg PUBLIC "-//W3C//DTD SVG 1.1//EN" "http://www.w3.org/Graphics/SVG/1.1/DTD/svg11.dtd">
<svg version="1.1" id="Layer_1" xmlns="http://www.w3.org/2000/svg" xmlns:xlink="http://www.w3.org/1999/xlink" x="0px" y="0px"
	 width="2423.578px" height="1161.791px" viewBox="0 0 2423.578 1161.791" enable-background="new 0 0 2423.578 1161.791"
	 xml:space="preserve">
<path d="M1206.406,669.596c10.005-11.957,30.856-23.262,46.334-25.119c0,0,55.491-6.658,132.232-7.336
	c76.741-0.674,118.248,1.729,118.248,1.729c15.562,0.898,22.387,12.938,15.161,26.752c0,0-146.963,280.957-158.407,301.985
	c-11.443,21.03-29.986,28.171-57.933,23.771c-27.947-4.408-190.875-19.254-223.329-7.34
	c-32.454,11.916-358.899,167.914-358.899,167.914c-14.067,6.721-38.276,11.021-53.798,9.555l-11.06-1.047
	c-15.522-1.469-37.646-11.268-49.163-21.771c0,0-110.352-100.677-145.396-118.976c-35.048-18.295-347.212-78.34-382.155-85.01
	c-34.945-6.668-72.693-49.936-72.693-49.936c-10.25-11.745-5.882-21.146,9.706-20.889c0,0,613.638,10.158,681.098,11.891
	c67.459,1.732,155.809-1.367,211.047-66.977c55.235-65.604,84.19-113.787,84.19-113.787c8.023-13.363,27.317-25.225,42.865-26.357
	l124.743-9.102c15.55-1.135,19.958,7.611,9.795,19.436c0,0-45.979,53.492-78.229,88.66
	c-32.252,35.172-106.257,82.334-124.801,89.477c-18.541,7.141-16.074,23.396,2.467,16.258
	c18.544-7.139,83.496-26.318,143.362-94.287C1171.661,711.116,1206.406,669.596,1206.406,669.596z M1356.551,170.321
	c-6.422,7.57-302.188,419.691-310.922,431.536c-8.731,11.849-26.04,45.222,15.832,41.959c41.873-3.263,340.59-35.302,384.862-32.56
	c44.273,2.742,99.106,17.984,109.121,2.375c10.017-15.604,73.774-83.788,129.187-98.493c55.407-14.705,118.177-13.312,180.459-6.159
	c62.28,7.157,461.754,65.796,469.357,67.398c7.604,1.604,28.658,4.338,37.396-19.117c8.739-23.451,37.68-103.256,40.646-115.587
	c2.969-12.327,12.694-93.742,10.859-106.472c-1.836-12.731-149.754-244.737-158.395-257.072
	c-8.642-12.333-24.328-21.387-48.104-26.28c-23.774-4.897-108.385-34.241-240.877-46.312
	c-132.493-12.074-285.092-3.583-344.906,17.525c-59.812,21.108-131.83,106.978-164.104,122.654
	c-32.271,15.676-79.105,20.458-88.716,19.651C1368.644,164.564,1361.914,164.001,1356.551,170.321z"/>
</svg>
