<?xml version="1.0" encoding="utf-8"?>
<!-- Generator: Adobe Illustrator 16.0.0, SVG Export Plug-In . SVG Version: 6.00 Build 0)  -->
<!DOCTYPE svg PUBLIC "-//W3C//DTD SVG 1.1//EN" "http://www.w3.org/Graphics/SVG/1.1/DTD/svg11.dtd">
<svg version="1.1" id="Layer_1" xmlns="http://www.w3.org/2000/svg" xmlns:xlink="http://www.w3.org/1999/xlink" x="0px" y="0px"
	 width="2423.58px" height="1161.79px" viewBox="0 0 2423.58 1161.79" enable-background="new 0 0 2423.58 1161.79"
	 xml:space="preserve">
<path fill="none" stroke="#000001" stroke-linejoin="round" stroke-miterlimit="10" d="M1021.584,614.021
	c8.275,4.13,15.905-2.527,21.313-8.149c0.949-1.508,1.88-2.864,2.729-4.018c8.734-11.844,304.5-423.965,310.922-431.535
	c5.366-6.32,12.094-5.757,21.7-4.955c9.607,0.807,56.443-3.975,88.715-19.651c32.272-15.676,104.291-101.546,164.103-122.654
	c59.816-21.108,212.413-29.599,344.907-17.525c132.494,12.071,217.103,41.415,240.877,46.312
	c23.777,4.893,39.462,13.947,48.104,26.28c8.64,12.335,156.557,244.341,158.393,257.072c1.835,12.729-7.889,94.145-10.859,106.472
	c-2.967,12.331-31.905,92.136-40.646,115.587c-8.739,23.455-29.792,20.72-37.396,19.117c-7.604-1.604-407.076-60.241-469.358-67.398
	c-62.283-7.152-125.048-8.546-180.46,6.159s-119.169,82.889-129.184,98.495c-2.599,4.049-8.212,6.021-15.874,6.676
	c-10.466-0.001-18.934,13.49-18.934,30.163l0.001-0.003c1.276,4.363,0.638,9.615-2.26,15.152c0,0-146.963,280.957-158.407,301.986
	c-11.44,21.031-29.983,28.17-57.933,23.77c-27.947-4.408-190.874-19.254-223.329-7.34
	c-32.454,11.916-358.896,167.914-358.896,167.914c-14.067,6.721-38.276,11.021-53.801,9.555l-11.059-1.047
	c-15.523-1.469-37.646-11.268-49.164-21.77c0,0-110.349-100.678-145.396-118.977c-35.05-18.295-347.211-78.34-382.157-85.01
	c-34.945-6.668-72.693-49.936-72.693-49.936c-10.25-11.744-5.882-21.145,9.706-20.889c0,0,613.637,10.158,681.097,11.891
	c67.459,1.732,155.812-1.367,211.05-66.977c55.232-65.604,84.188-113.787,84.188-113.787c4.745-7.9,13.428-15.275,22.947-20.22
	c0-2.537-1.097-4.59-2.454-4.59c-2.481,0.636-5.082,0.974-7.762,0.974c-17.222,0-31.182-13.961-31.182-31.182
	s13.96-31.182,31.182-31.182c6.387,0,12.324,1.92,17.268,5.215L1021.584,614.021z"/>
</svg>
