<?xml version="1.0" encoding="utf-8"?>
<!-- Generator: Adobe Illustrator 16.0.0, SVG Export Plug-In . SVG Version: 6.00 Build 0)  -->
<!DOCTYPE svg PUBLIC "-//W3C//DTD SVG 1.1//EN" "http://www.w3.org/Graphics/SVG/1.1/DTD/svg11.dtd">
<svg version="1.1" id="Layer_1" xmlns="http://www.w3.org/2000/svg" xmlns:xlink="http://www.w3.org/1999/xlink" x="0px" y="0px"
	 width="2423.58px" height="1161.79px" viewBox="0 0 2423.58 1161.79" enable-background="new 0 0 2423.58 1161.79"
	 xml:space="preserve">
<path fill="none" stroke="#000000" stroke-miterlimit="10" d="M1206.406,669.594c10.005-11.957,30.854-23.262,46.334-25.119
	c0,0,55.49-6.66,132.229-7.336c76.742-0.674,118.248,1.727,118.248,1.727c15.564,0.9,22.39,12.939,15.161,26.752
	c0,0-146.963,280.957-158.407,301.986c-11.44,21.031-29.983,28.17-57.933,23.77c-27.947-4.408-190.874-19.254-223.329-7.34
	c-32.454,11.916-358.896,167.914-358.896,167.914c-14.067,6.721-38.276,11.021-53.801,9.555l-11.059-1.047
	c-15.523-1.469-37.646-11.268-49.164-21.77c0,0-110.349-100.678-145.396-118.977c-35.05-18.295-347.211-78.34-382.157-85.01
	c-34.945-6.668-72.693-49.936-72.693-49.936c-10.25-11.744-5.882-21.145,9.706-20.889c0,0,613.637,10.158,681.097,11.891
	c67.459,1.732,155.812-1.367,211.05-66.977c55.232-65.604,84.188-113.787,84.188-113.787c8.026-13.363,27.32-25.225,42.868-26.357
	l124.743-9.102c15.55-1.135,19.958,7.611,9.795,19.436c0,0-45.981,53.492-78.23,88.66c-32.252,35.172-106.257,82.334-124.801,89.477
	c-18.541,7.141-16.074,23.396,2.467,16.258c18.544-7.139,83.496-26.318,143.363-94.287
	C1171.662,711.114,1206.406,669.594,1206.406,669.594z M1356.549,170.319c-6.422,7.57-302.188,419.691-310.922,431.535
	c-8.73,11.848-26.04,45.221,15.832,41.959c41.874-3.262,340.59-35.301,384.865-32.559c44.271,2.742,99.104,17.984,109.121,2.375
	c10.015-15.605,73.771-83.79,129.184-98.495s118.177-13.312,180.46-6.159c62.282,7.157,461.754,65.795,469.358,67.398
	c7.604,1.603,28.656,4.338,37.396-19.117c8.74-23.451,37.679-103.256,40.646-115.587c2.971-12.327,12.694-93.742,10.859-106.472
	c-1.836-12.731-149.753-244.737-158.393-257.072c-8.643-12.333-24.327-21.387-48.104-26.28
	c-23.774-4.896-108.383-34.241-240.877-46.312c-132.494-12.074-285.091-3.583-344.907,17.525
	c-59.812,21.108-131.83,106.978-164.103,122.654c-32.271,15.676-79.107,20.458-88.715,19.651
	C1368.643,164.562,1361.915,163.999,1356.549,170.319z"/>
</svg>
