<?xml version="1.0" encoding="utf-8"?>
<!-- Generator: Adobe Illustrator 16.0.0, SVG Export Plug-In . SVG Version: 6.00 Build 0)  -->
<!DOCTYPE svg PUBLIC "-//W3C//DTD SVG 1.1//EN" "http://www.w3.org/Graphics/SVG/1.1/DTD/svg11.dtd">
<svg version="1.1" id="Layer_1" xmlns="http://www.w3.org/2000/svg" xmlns:xlink="http://www.w3.org/1999/xlink" x="0px" y="0px"
	 width="2489.322px" height="1160.85px" viewBox="0 0 2489.322 1160.85" enable-background="new 0 0 2489.322 1160.85"
	 xml:space="preserve">
<path fill="none" stroke="#000001" stroke-linejoin="round" stroke-miterlimit="10" d="M1465.662,615.73
	c-7.418,4.65-17.452,2.797-24.001-2.541c-41.843-54.326-314.309-412.979-322.76-425.664c-8.83-13.249-31.655-18.7-41.714-18.478
	c-10.061,0.224-45.43-0.845-58.054-7.408c-12.625-6.563-99.934-87.875-137.809-107.566C843.455,34.38,768.676,6.09,686.527,1.229
	c-82.149-4.862-186.82,5.834-232.488,12.24c-45.669,6.408-229.113,48.317-240.907,53.732
	C201.335,72.614,11.998,375.11,8.343,380.908c-3.656,5.799-13.411,27.026-5.046,37.47c8.363,10.442,48.301,68.732,55.211,82.588
	c6.91,13.856,29.861,75.824,32.003,85.279c2.141,9.451,17.151,18.217,29.411,15.606c12.259-2.604,463.255-76.694,557.159-82.725
	c93.903-6.027,155.203,20.293,203.348,67.869c12.812,12.658,36.251,36.764,36.251,36.764s4.912,6.913,27.808,6.884
	c11.072-0.001,20.031,16.158,20.031,36.129h-0.004c-1.362,4.478-0.668,9.886,2.446,15.55c0,0,152.762,277.844,164.639,298.633
	c11.878,20.789,30.565,27.543,58.414,22.561c27.853-4.983,190.436-23.209,223.13-11.971c32.693,11.24,362.308,160.43,362.308,160.43
	c14.205,6.433,38.496,10.224,53.979,8.437l11.037-1.271c15.488-1.791,37.404-12.047,48.699-22.793
	c0,0,108.236-102.94,142.896-121.963c34.655-19.02,345.512-85.53,380.312-92.924c34.799-7.394,71.641-51.432,71.641-51.432
	c10.004-11.957,5.441-21.269-10.139-20.685c0,0-613.293,22.894-680.703,26.021c-67.404,3.133-155.801,1.863-212.393-62.58
	c-56.584-64.443-86.529-112.019-86.529-112.019c-4.368-6.937-11.842-13.395-20.21-18.077l0.002,0.003
	c0-6.504,2.545-11.767,5.688-11.767l0.001,0.006c1.709,0.29,3.465,0.44,5.256,0.44c17.221,0,31.181-13.96,31.181-31.181
	s-13.96-31.182-31.181-31.182c-7.302,0-14.018,2.511-19.332,6.716L1465.662,615.73z"/>
</svg>
