<?xml version="1.0" encoding="utf-8"?>
<!-- Generator: Adobe Illustrator 16.0.0, SVG Export Plug-In . SVG Version: 6.00 Build 0)  -->
<!DOCTYPE svg PUBLIC "-//W3C//DTD SVG 1.1//EN" "http://www.w3.org/Graphics/SVG/1.1/DTD/svg11.dtd">
<svg version="1.1" id="Layer_1" xmlns="http://www.w3.org/2000/svg" xmlns:xlink="http://www.w3.org/1999/xlink" x="0px" y="0px"
	 width="1389.016px" height="644.036px" viewBox="0 0 1389.016 644.036" enable-background="new 0 0 1389.016 644.036"
	 xml:space="preserve">
<path d="M1230.396,78.128c-8.643-12.333-24.327-21.387-48.104-26.28c-23.774-4.897-108.385-34.241-240.877-46.312
	C808.92-6.538,656.322,1.954,596.508,23.062C536.694,44.17,464.677,130.04,432.403,145.715
	c-32.271,15.676-79.104,20.458-88.715,19.651c-9.609-0.805-16.34-1.369-21.703,4.952c-6.422,7.57-302.188,419.69-310.922,431.536
	c-8.729,11.85-26.04,45.223,15.832,41.959c41.874-3.264,340.59-35.303,384.865-32.561c44.271,2.742,99.104,17.984,109.121,2.375
	c10.015-15.604,73.771-83.787,129.186-98.492c55.408-14.703,118.177-13.311,180.458-6.158
	c34.312,3.943,170.935,23.51,288.015,40.557c0.562-0.156,1.159-0.246,1.773-0.246c1.311,0,2.521,0.379,3.554,1.02
	c93.185,13.576,172.666,25.363,176.021,26.07c7.604,1.605,28.658,4.338,37.396-19.117c8.739-23.445,37.683-103.256,40.646-115.588
	c2.969-12.326,12.694-93.738,10.858-106.471C1386.95,322.469,1239.034,90.463,1230.396,78.128z M45.478,614.75
	c-3.718,0-6.729-3.014-6.729-6.732c0-3.717,3.014-6.73,6.729-6.73c3.722,0,6.732,3.016,6.732,6.73
	C52.211,611.737,49.198,614.75,45.478,614.75z M102.049,614.75c-3.718,0-6.731-3.014-6.731-6.732c0-3.717,3.017-6.73,6.731-6.73
	c3.719,0,6.733,3.016,6.733,6.73C108.782,611.737,105.768,614.75,102.049,614.75z M102.049,562.75c-3.718,0-6.731-3.014-6.731-6.732
	c0-3.717,3.017-6.73,6.731-6.73c3.719,0,6.733,3.016,6.733,6.73C108.782,559.737,105.768,562.75,102.049,562.75z M102.049,510.75
	c-3.718,0-6.731-3.014-6.731-6.732c0-3.717,3.017-6.73,6.731-6.73c3.719,0,6.733,3.016,6.733,6.73
	C108.782,507.737,105.768,510.75,102.049,510.75z M158.62,614.75c-3.722,0-6.732-3.014-6.732-6.732c0-3.717,3.014-6.73,6.732-6.73
	c3.718,0,6.729,3.016,6.729,6.73C165.352,611.737,162.339,614.75,158.62,614.75z M158.62,562.75c-3.722,0-6.732-3.014-6.732-6.732
	c0-3.717,3.014-6.73,6.732-6.73c3.718,0,6.729,3.016,6.729,6.73C165.352,559.737,162.339,562.75,158.62,562.75z M158.62,510.75
	c-3.722,0-6.732-3.014-6.732-6.732c0-3.717,3.014-6.73,6.732-6.73c3.718,0,6.729,3.016,6.729,6.73
	C165.352,507.737,162.339,510.75,158.62,510.75z M158.62,458.75c-3.722,0-6.732-3.014-6.732-6.732c0-3.717,3.014-6.73,6.732-6.73
	c3.718,0,6.729,3.016,6.729,6.73C165.352,455.737,162.339,458.75,158.62,458.75z M215.189,614.75c-3.719,0-6.729-3.014-6.729-6.732
	c0-3.717,3.014-6.73,6.729-6.73c3.721,0,6.732,3.016,6.732,6.73C221.923,611.737,218.909,614.75,215.189,614.75z M215.189,562.75
	c-3.719,0-6.729-3.014-6.729-6.732c0-3.717,3.014-6.73,6.729-6.73c3.721,0,6.732,3.016,6.732,6.73
	C221.923,559.737,218.909,562.75,215.189,562.75z M215.189,510.75c-3.719,0-6.729-3.014-6.729-6.732c0-3.717,3.014-6.73,6.729-6.73
	c3.721,0,6.732,3.016,6.732,6.73C221.923,507.737,218.909,510.75,215.189,510.75z M215.189,458.75c-3.719,0-6.729-3.014-6.729-6.732
	c0-3.717,3.014-6.73,6.729-6.73c3.721,0,6.732,3.016,6.732,6.73C221.923,455.737,218.909,458.75,215.189,458.75z M215.189,406.75
	c-3.719,0-6.729-3.016-6.729-6.732s3.014-6.73,6.729-6.73c3.721,0,6.732,3.017,6.732,6.73
	C221.923,403.736,218.909,406.75,215.189,406.75z M215.189,354.75c-3.719,0-6.729-3.018-6.729-6.732c0-3.717,3.014-6.73,6.729-6.73
	c3.721,0,6.732,3.017,6.732,6.73C221.923,351.736,218.909,354.75,215.189,354.75z M271.76,562.75c-3.719,0-6.732-3.014-6.732-6.732
	c0-3.717,3.017-6.73,6.732-6.73s6.73,3.016,6.73,6.73C278.491,559.737,275.479,562.75,271.76,562.75z M271.76,510.75
	c-3.719,0-6.732-3.014-6.732-6.732c0-3.717,3.017-6.73,6.732-6.73s6.73,3.016,6.73,6.73
	C278.491,507.737,275.479,510.75,271.76,510.75z M271.76,458.75c-3.719,0-6.732-3.014-6.732-6.732c0-3.717,3.017-6.73,6.732-6.73
	s6.73,3.016,6.73,6.73C278.491,455.737,275.479,458.75,271.76,458.75z M271.76,406.75c-3.719,0-6.732-3.016-6.732-6.732
	s3.017-6.73,6.732-6.73s6.73,3.017,6.73,6.73C278.491,403.736,275.479,406.75,271.76,406.75z M271.76,354.75
	c-3.719,0-6.732-3.018-6.732-6.732c0-3.717,3.017-6.73,6.732-6.73s6.73,3.017,6.73,6.73
	C278.491,351.736,275.479,354.75,271.76,354.75z M271.76,302.75c-3.719,0-6.732-3.014-6.732-6.732c0-3.718,3.017-6.732,6.732-6.732
	s6.73,3.014,6.73,6.732C278.491,299.736,275.479,302.75,271.76,302.75z M328.33,562.75c-3.721,0-6.731-3.014-6.731-6.732
	c0-3.717,3.016-6.73,6.731-6.73c3.717,0,6.729,3.016,6.729,6.73C335.062,559.737,332.05,562.75,328.33,562.75z M328.33,510.75
	c-3.721,0-6.731-3.014-6.731-6.732c0-3.717,3.016-6.73,6.731-6.73c3.717,0,6.729,3.016,6.729,6.73
	C335.062,507.737,332.05,510.75,328.33,510.75z M328.33,458.75c-3.721,0-6.731-3.014-6.731-6.732c0-3.717,3.016-6.73,6.731-6.73
	c3.717,0,6.729,3.016,6.729,6.73C335.062,455.737,332.05,458.75,328.33,458.75z M328.33,406.75c-3.721,0-6.731-3.016-6.731-6.732
	s3.016-6.73,6.731-6.73c3.717,0,6.729,3.017,6.729,6.73C335.062,403.736,332.05,406.75,328.33,406.75z M328.33,354.75
	c-3.721,0-6.731-3.018-6.731-6.732c0-3.717,3.016-6.73,6.731-6.73c3.717,0,6.729,3.017,6.729,6.73
	C335.062,351.736,332.05,354.75,328.33,354.75z M328.33,302.75c-3.721,0-6.731-3.014-6.731-6.732c0-3.718,3.016-6.732,6.731-6.732
	c3.717,0,6.729,3.014,6.729,6.732C335.062,299.736,332.05,302.75,328.33,302.75z M328.33,250.75c-3.721,0-6.731-3.014-6.731-6.732
	c0-3.718,3.016-6.732,6.731-6.732c3.717,0,6.729,3.014,6.729,6.732C335.062,247.736,332.05,250.75,328.33,250.75z M328.33,198.75
	c-3.721,0-6.731-3.014-6.731-6.732c0-3.718,3.016-6.732,6.731-6.732c3.717,0,6.729,3.014,6.729,6.732
	C335.062,195.736,332.05,198.75,328.33,198.75z M384.9,562.75c-3.721,0-6.729-3.014-6.729-6.732c0-3.717,3.014-6.73,6.729-6.73
	s6.73,3.016,6.73,6.73C391.634,559.737,388.617,562.75,384.9,562.75z M384.9,510.75c-3.721,0-6.729-3.014-6.729-6.732
	c0-3.717,3.014-6.73,6.729-6.73s6.73,3.016,6.73,6.73C391.634,507.737,388.617,510.75,384.9,510.75z M384.9,458.75
	c-3.721,0-6.729-3.014-6.729-6.732c0-3.717,3.014-6.73,6.729-6.73s6.73,3.016,6.73,6.73
	C391.634,455.737,388.617,458.75,384.9,458.75z M384.9,406.75c-3.721,0-6.729-3.016-6.729-6.732s3.014-6.73,6.729-6.73
	s6.73,3.017,6.73,6.73C391.634,403.736,388.617,406.75,384.9,406.75z M384.9,354.75c-3.721,0-6.729-3.018-6.729-6.732
	c0-3.717,3.014-6.73,6.729-6.73s6.73,3.017,6.73,6.73C391.634,351.736,388.617,354.75,384.9,354.75z M384.9,302.75
	c-3.721,0-6.729-3.014-6.729-6.732c0-3.718,3.014-6.732,6.729-6.732s6.73,3.014,6.73,6.732
	C391.633,299.736,388.617,302.75,384.9,302.75z M384.9,250.75c-3.721,0-6.729-3.014-6.729-6.732c0-3.718,3.014-6.732,6.729-6.732
	s6.73,3.014,6.73,6.732C391.633,247.736,388.617,250.75,384.9,250.75z M384.9,198.75c-3.721,0-6.729-3.014-6.729-6.732
	c0-3.718,3.014-6.732,6.729-6.732s6.73,3.014,6.73,6.732C391.633,195.736,388.617,198.75,384.9,198.75z M441.471,562.75
	c-3.719,0-6.73-3.014-6.73-6.732c0-3.717,3.017-6.73,6.73-6.73c3.72,0,6.729,3.016,6.729,6.73
	C448.201,559.737,445.189,562.75,441.471,562.75z M441.471,510.75c-3.719,0-6.73-3.014-6.73-6.732c0-3.717,3.017-6.73,6.73-6.73
	c3.72,0,6.729,3.016,6.729,6.73C448.201,507.737,445.189,510.75,441.471,510.75z M441.471,458.75c-3.719,0-6.73-3.014-6.73-6.732
	c0-3.717,3.017-6.73,6.73-6.73c3.72,0,6.729,3.016,6.729,6.73C448.201,455.737,445.189,458.75,441.471,458.75z M441.471,406.75
	c-3.719,0-6.73-3.016-6.73-6.732s3.017-6.73,6.73-6.73c3.72,0,6.729,3.017,6.729,6.73
	C448.201,403.736,445.189,406.75,441.471,406.75z M441.471,354.75c-3.719,0-6.73-3.018-6.73-6.732c0-3.717,3.017-6.73,6.73-6.73
	c3.72,0,6.729,3.017,6.729,6.73C448.201,351.736,445.189,354.75,441.471,354.75z M441.471,302.75c-3.719,0-6.73-3.014-6.73-6.732
	c0-3.718,3.017-6.732,6.73-6.732c3.72,0,6.729,3.014,6.729,6.732C448.201,299.736,445.189,302.75,441.471,302.75z M441.471,250.75
	c-3.719,0-6.73-3.014-6.73-6.732c0-3.718,3.017-6.732,6.73-6.732c3.72,0,6.729,3.014,6.729,6.732
	C448.201,247.736,445.189,250.75,441.471,250.75z M441.471,198.75c-3.719,0-6.73-3.014-6.73-6.732c0-3.718,3.017-6.732,6.73-6.732
	c3.72,0,6.729,3.014,6.729,6.732C448.201,195.736,445.189,198.75,441.471,198.75z M498.041,562.75c-3.721,0-6.731-3.014-6.731-6.732
	c0-3.717,3.016-6.73,6.731-6.73c3.717,0,6.73,3.016,6.73,6.73C504.773,559.737,501.76,562.75,498.041,562.75z M498.041,510.75
	c-3.721,0-6.731-3.014-6.731-6.732c0-3.717,3.016-6.73,6.731-6.73c3.717,0,6.73,3.016,6.73,6.73
	C504.773,507.737,501.76,510.75,498.041,510.75z M498.041,458.75c-3.721,0-6.731-3.014-6.731-6.732c0-3.717,3.016-6.73,6.731-6.73
	c3.717,0,6.73,3.016,6.73,6.73C504.773,455.737,501.76,458.75,498.041,458.75z M498.041,406.75c-3.721,0-6.731-3.016-6.731-6.732
	s3.016-6.73,6.731-6.73c3.717,0,6.73,3.017,6.73,6.73C504.773,403.736,501.76,406.75,498.041,406.75z M498.041,354.75
	c-3.721,0-6.731-3.018-6.731-6.732c0-3.717,3.016-6.73,6.731-6.73c3.717,0,6.73,3.017,6.73,6.73
	C504.773,351.736,501.76,354.75,498.041,354.75z M498.041,302.75c-3.721,0-6.731-3.014-6.731-6.732c0-3.718,3.016-6.732,6.731-6.732
	c3.717,0,6.73,3.014,6.73,6.732C504.773,299.736,501.76,302.75,498.041,302.75z M498.041,250.75c-3.721,0-6.731-3.014-6.731-6.732
	c0-3.718,3.016-6.732,6.731-6.732c3.717,0,6.73,3.014,6.73,6.732C504.773,247.736,501.76,250.75,498.041,250.75z M498.041,198.75
	c-3.721,0-6.731-3.014-6.731-6.732c0-3.718,3.016-6.732,6.731-6.732c3.717,0,6.73,3.014,6.73,6.732
	C504.773,195.736,501.76,198.75,498.041,198.75z M498.041,146.75c-3.721,0-6.731-3.014-6.731-6.732c0-3.718,3.016-6.732,6.731-6.732
	c3.717,0,6.73,3.014,6.73,6.732C504.773,143.736,501.76,146.75,498.041,146.75z M554.61,510.75c-3.721,0-6.729-3.014-6.729-6.732
	c0-3.717,3.014-6.73,6.729-6.73s6.73,3.016,6.73,6.73C561.344,507.737,558.33,510.75,554.61,510.75z M554.61,458.75
	c-3.721,0-6.729-3.014-6.729-6.732c0-3.717,3.014-6.73,6.729-6.73s6.73,3.016,6.73,6.73
	C561.344,455.737,558.33,458.75,554.61,458.75z M554.61,406.75c-3.721,0-6.729-3.016-6.729-6.732s3.014-6.73,6.729-6.73
	s6.73,3.017,6.73,6.73C561.344,403.736,558.33,406.75,554.61,406.75z M554.61,354.75c-3.721,0-6.729-3.018-6.729-6.732
	c0-3.717,3.014-6.73,6.729-6.73s6.73,3.017,6.73,6.73C561.344,351.736,558.33,354.75,554.61,354.75z M554.61,302.75
	c-3.721,0-6.729-3.014-6.729-6.732c0-3.718,3.014-6.732,6.729-6.732s6.73,3.014,6.73,6.732
	C561.344,299.736,558.33,302.75,554.61,302.75z M554.61,250.75c-3.721,0-6.729-3.014-6.729-6.732c0-3.718,3.014-6.732,6.729-6.732
	s6.73,3.014,6.73,6.732C561.344,247.736,558.33,250.75,554.61,250.75z M554.61,198.75c-3.721,0-6.729-3.014-6.729-6.732
	c0-3.718,3.014-6.732,6.729-6.732s6.73,3.014,6.73,6.732C561.344,195.736,558.33,198.75,554.61,198.75z M554.61,146.75
	c-3.721,0-6.729-3.014-6.729-6.732c0-3.718,3.014-6.732,6.729-6.732s6.73,3.014,6.73,6.732
	C561.344,143.736,558.33,146.75,554.61,146.75z M554.61,94.75c-3.721,0-6.729-3.014-6.729-6.732c0-3.718,3.014-6.732,6.729-6.732
	s6.73,3.014,6.73,6.732C561.344,91.736,558.33,94.75,554.61,94.75z M611.182,510.75c-3.719,0-6.73-3.014-6.73-6.732
	c0-3.717,3.017-6.73,6.73-6.73c3.72,0,6.731,3.016,6.731,6.73C617.914,507.737,614.9,510.75,611.182,510.75z M611.182,458.75
	c-3.719,0-6.73-3.014-6.73-6.732c0-3.717,3.017-6.73,6.73-6.73c3.72,0,6.731,3.016,6.731,6.73
	C617.914,455.737,614.9,458.75,611.182,458.75z M611.182,406.75c-3.719,0-6.73-3.016-6.73-6.732s3.017-6.73,6.73-6.73
	c3.72,0,6.731,3.017,6.731,6.73C617.914,403.736,614.9,406.75,611.182,406.75z M611.182,354.75c-3.719,0-6.73-3.018-6.73-6.732
	c0-3.717,3.017-6.73,6.73-6.73c3.72,0,6.731,3.017,6.731,6.73C617.914,351.736,614.9,354.75,611.182,354.75z M611.182,302.75
	c-3.719,0-6.73-3.014-6.73-6.732c0-3.718,3.017-6.732,6.73-6.732c3.72,0,6.731,3.014,6.731,6.732
	C617.914,299.736,614.9,302.75,611.182,302.75z M611.182,250.75c-3.719,0-6.73-3.014-6.73-6.732c0-3.718,3.017-6.732,6.73-6.732
	c3.72,0,6.731,3.014,6.731,6.732C617.914,247.736,614.9,250.75,611.182,250.75z M611.182,198.75c-3.719,0-6.73-3.014-6.73-6.732
	c0-3.718,3.017-6.732,6.73-6.732c3.72,0,6.731,3.014,6.731,6.732C617.914,195.736,614.9,198.75,611.182,198.75z M611.182,146.75
	c-3.719,0-6.73-3.014-6.73-6.732c0-3.718,3.017-6.732,6.73-6.732c3.72,0,6.731,3.014,6.731,6.732
	C617.914,143.736,614.9,146.75,611.182,146.75z M611.182,94.75c-3.719,0-6.73-3.014-6.73-6.732c0-3.718,3.017-6.732,6.73-6.732
	c3.72,0,6.731,3.014,6.731,6.732C617.914,91.736,614.9,94.75,611.182,94.75z M611.182,42.75c-3.719,0-6.73-3.014-6.73-6.732
	c0-3.718,3.017-6.732,6.73-6.732c3.72,0,6.731,3.014,6.731,6.732C617.914,39.736,614.9,42.75,611.182,42.75z M667.753,458.75
	c-3.722,0-6.732-3.014-6.732-6.732c0-3.717,3.016-6.73,6.732-6.73c3.716,0,6.729,3.016,6.729,6.73
	C674.484,455.737,671.471,458.75,667.753,458.75z M667.753,406.75c-3.722,0-6.732-3.016-6.732-6.732s3.016-6.73,6.732-6.73
	c3.716,0,6.729,3.017,6.729,6.73C674.484,403.736,671.471,406.75,667.753,406.75z M667.753,354.75c-3.722,0-6.732-3.018-6.732-6.732
	c0-3.717,3.016-6.73,6.732-6.73c3.716,0,6.729,3.017,6.729,6.73C674.484,351.736,671.471,354.75,667.753,354.75z M667.753,302.75
	c-3.722,0-6.732-3.014-6.732-6.732c0-3.718,3.016-6.732,6.732-6.732c3.716,0,6.729,3.014,6.729,6.732
	C674.484,299.736,671.471,302.75,667.753,302.75z M667.753,250.75c-3.722,0-6.732-3.014-6.732-6.732
	c0-3.718,3.016-6.732,6.732-6.732c3.716,0,6.729,3.014,6.729,6.732C674.484,247.736,671.471,250.75,667.753,250.75z M667.753,198.75
	c-3.722,0-6.732-3.014-6.732-6.732c0-3.718,3.016-6.732,6.732-6.732c3.716,0,6.729,3.014,6.729,6.732
	C674.484,195.736,671.471,198.75,667.753,198.75z M667.753,146.75c-3.722,0-6.732-3.014-6.732-6.732
	c0-3.718,3.016-6.732,6.732-6.732c3.716,0,6.729,3.014,6.729,6.732C674.484,143.736,671.471,146.75,667.753,146.75z M667.753,94.75
	c-3.722,0-6.732-3.014-6.732-6.732c0-3.718,3.016-6.732,6.732-6.732c3.716,0,6.729,3.014,6.729,6.732
	C674.484,91.736,671.471,94.75,667.753,94.75z M667.753,42.75c-3.722,0-6.732-3.014-6.732-6.732c0-3.718,3.016-6.732,6.732-6.732
	c3.716,0,6.729,3.014,6.729,6.732C674.484,39.736,671.471,42.75,667.753,42.75z M724.322,458.75c-3.72,0-6.729-3.014-6.729-6.732
	c0-3.717,3.015-6.73,6.729-6.73c3.72,0,6.729,3.016,6.729,6.73C731.055,455.737,728.041,458.75,724.322,458.75z M724.322,406.75
	c-3.72,0-6.729-3.016-6.729-6.732s3.015-6.73,6.729-6.73c3.72,0,6.729,3.017,6.729,6.73
	C731.055,403.736,728.041,406.75,724.322,406.75z M724.322,354.75c-3.72,0-6.729-3.018-6.729-6.732c0-3.717,3.015-6.73,6.729-6.73
	c3.72,0,6.729,3.017,6.729,6.73C731.055,351.736,728.041,354.75,724.322,354.75z M724.322,302.75c-3.72,0-6.729-3.014-6.729-6.732
	c0-3.718,3.015-6.732,6.729-6.732c3.72,0,6.729,3.014,6.729,6.732C731.053,299.736,728.041,302.75,724.322,302.75z M724.322,250.75
	c-3.72,0-6.729-3.014-6.729-6.732c0-3.718,3.015-6.732,6.729-6.732c3.72,0,6.729,3.014,6.729,6.732
	C731.053,247.736,728.041,250.75,724.322,250.75z M724.322,198.75c-3.72,0-6.729-3.014-6.729-6.732c0-3.718,3.015-6.732,6.729-6.732
	c3.72,0,6.729,3.014,6.729,6.732C731.053,195.736,728.041,198.75,724.322,198.75z M724.322,146.75c-3.72,0-6.729-3.014-6.729-6.732
	c0-3.718,3.015-6.732,6.729-6.732c3.72,0,6.729,3.014,6.729,6.732C731.053,143.736,728.041,146.75,724.322,146.75z M724.322,94.75
	c-3.72,0-6.729-3.014-6.729-6.732c0-3.718,3.015-6.732,6.729-6.732c3.72,0,6.729,3.014,6.729,6.732
	C731.053,91.736,728.041,94.75,724.322,94.75z M724.322,42.75c-3.72,0-6.729-3.014-6.729-6.732c0-3.718,3.015-6.732,6.729-6.732
	c3.72,0,6.729,3.014,6.729,6.732C731.053,39.736,728.041,42.75,724.322,42.75z M780.892,458.75c-3.719,0-6.731-3.014-6.731-6.732
	c0-3.717,3.017-6.73,6.731-6.73c3.719,0,6.731,3.016,6.731,6.73C787.625,455.737,784.611,458.75,780.892,458.75z M780.892,406.75
	c-3.719,0-6.731-3.016-6.731-6.732s3.017-6.73,6.731-6.73c3.719,0,6.731,3.017,6.731,6.73
	C787.625,403.736,784.611,406.75,780.892,406.75z M780.892,354.75c-3.719,0-6.731-3.018-6.731-6.732c0-3.717,3.017-6.73,6.731-6.73
	c3.719,0,6.731,3.017,6.731,6.73C787.625,351.736,784.611,354.75,780.892,354.75z M780.892,302.75c-3.719,0-6.731-3.014-6.731-6.732
	c0-3.718,3.017-6.732,6.731-6.732c3.719,0,6.731,3.014,6.731,6.732C787.625,299.736,784.611,302.75,780.892,302.75z M780.892,250.75
	c-3.719,0-6.731-3.014-6.731-6.732c0-3.718,3.017-6.732,6.731-6.732c3.719,0,6.731,3.014,6.731,6.732
	C787.625,247.736,784.611,250.75,780.892,250.75z M780.892,198.75c-3.719,0-6.731-3.014-6.731-6.732
	c0-3.718,3.017-6.732,6.731-6.732c3.719,0,6.731,3.014,6.731,6.732C787.625,195.736,784.611,198.75,780.892,198.75z M780.892,146.75
	c-3.719,0-6.731-3.014-6.731-6.732c0-3.718,3.017-6.732,6.731-6.732c3.719,0,6.731,3.014,6.731,6.732
	C787.625,143.736,784.611,146.75,780.892,146.75z M780.892,94.75c-3.719,0-6.731-3.014-6.731-6.732c0-3.718,3.017-6.732,6.731-6.732
	c3.719,0,6.731,3.014,6.731,6.732C787.625,91.736,784.611,94.75,780.892,94.75z M780.892,42.75c-3.719,0-6.731-3.014-6.731-6.732
	c0-3.718,3.017-6.732,6.731-6.732c3.719,0,6.731,3.014,6.731,6.732C787.625,39.736,784.611,42.75,780.892,42.75z M837.463,458.75
	c-3.72,0-6.731-3.014-6.731-6.732c0-3.717,3.016-6.73,6.731-6.73c3.715,0,6.729,3.016,6.729,6.73
	C844.195,455.737,841.182,458.75,837.463,458.75z M837.463,406.75c-3.72,0-6.731-3.016-6.731-6.732s3.016-6.73,6.731-6.73
	c3.715,0,6.729,3.017,6.729,6.73C844.195,403.736,841.182,406.75,837.463,406.75z M837.463,354.75c-3.72,0-6.731-3.018-6.731-6.732
	c0-3.717,3.016-6.73,6.731-6.73c3.715,0,6.729,3.017,6.729,6.73C844.195,351.736,841.182,354.75,837.463,354.75z M837.463,302.75
	c-3.72,0-6.731-3.014-6.731-6.732c0-3.718,3.016-6.732,6.731-6.732c3.715,0,6.729,3.014,6.729,6.732
	C844.195,299.736,841.182,302.75,837.463,302.75z M837.463,250.75c-3.72,0-6.731-3.014-6.731-6.732c0-3.718,3.016-6.732,6.731-6.732
	c3.715,0,6.729,3.014,6.729,6.732C844.195,247.736,841.182,250.75,837.463,250.75z M837.463,198.75c-3.72,0-6.731-3.014-6.731-6.732
	c0-3.718,3.016-6.732,6.731-6.732c3.715,0,6.729,3.014,6.729,6.732C844.195,195.736,841.182,198.75,837.463,198.75z M837.463,146.75
	c-3.72,0-6.731-3.014-6.731-6.732c0-3.718,3.016-6.732,6.731-6.732c3.715,0,6.729,3.014,6.729,6.732
	C844.195,143.736,841.182,146.75,837.463,146.75z M837.463,94.75c-3.72,0-6.731-3.014-6.731-6.732c0-3.718,3.016-6.732,6.731-6.732
	c3.715,0,6.729,3.014,6.729,6.732C844.195,91.736,841.182,94.75,837.463,94.75z M837.463,42.75c-3.72,0-6.731-3.014-6.731-6.732
	c0-3.718,3.016-6.732,6.731-6.732c3.715,0,6.729,3.014,6.729,6.732C844.195,39.736,841.182,42.75,837.463,42.75z M894.031,458.75
	c-3.719,0-6.729-3.014-6.729-6.732c0-3.717,3.015-6.73,6.729-6.73c3.719,0,6.729,3.016,6.729,6.73
	C900.766,455.737,897.752,458.75,894.031,458.75z M894.031,406.75c-3.719,0-6.729-3.016-6.729-6.732s3.015-6.73,6.729-6.73
	c3.719,0,6.729,3.017,6.729,6.73C900.766,403.736,897.752,406.75,894.031,406.75z M894.031,354.75c-3.719,0-6.729-3.018-6.729-6.732
	c0-3.717,3.015-6.73,6.729-6.73c3.719,0,6.729,3.017,6.729,6.73C900.766,351.736,897.752,354.75,894.031,354.75z M894.031,302.75
	c-3.719,0-6.729-3.014-6.729-6.732c0-3.718,3.015-6.732,6.729-6.732c3.719,0,6.729,3.014,6.729,6.732
	C900.764,299.736,897.752,302.75,894.031,302.75z M894.031,250.75c-3.719,0-6.729-3.014-6.729-6.732
	c0-3.718,3.015-6.732,6.729-6.732c3.719,0,6.729,3.014,6.729,6.732C900.764,247.736,897.752,250.75,894.031,250.75z M894.031,198.75
	c-3.719,0-6.729-3.014-6.729-6.732c0-3.718,3.015-6.732,6.729-6.732c3.719,0,6.729,3.014,6.729,6.732
	C900.764,195.736,897.752,198.75,894.031,198.75z M894.031,146.75c-3.719,0-6.729-3.014-6.729-6.732
	c0-3.718,3.015-6.732,6.729-6.732c3.719,0,6.729,3.014,6.729,6.732C900.764,143.736,897.752,146.75,894.031,146.75z M894.031,94.75
	c-3.719,0-6.729-3.014-6.729-6.732c0-3.718,3.015-6.732,6.729-6.732c3.719,0,6.729,3.014,6.729,6.732
	C900.764,91.736,897.752,94.75,894.031,94.75z M894.031,42.75c-3.719,0-6.729-3.014-6.729-6.732c0-3.718,3.015-6.732,6.729-6.732
	c3.719,0,6.729,3.014,6.729,6.732C900.764,39.736,897.752,42.75,894.031,42.75z M950.603,510.75c-3.719,0-6.731-3.014-6.731-6.732
	c0-3.717,3.017-6.73,6.731-6.73c3.719,0,6.732,3.016,6.732,6.73C957.336,507.737,954.322,510.75,950.603,510.75z M950.603,458.75
	c-3.719,0-6.731-3.014-6.731-6.732c0-3.717,3.017-6.73,6.731-6.73c3.719,0,6.732,3.016,6.732,6.73
	C957.336,455.737,954.322,458.75,950.603,458.75z M950.603,406.75c-3.719,0-6.731-3.016-6.731-6.732s3.017-6.73,6.731-6.73
	c3.719,0,6.732,3.017,6.732,6.73C957.336,403.736,954.322,406.75,950.603,406.75z M950.603,354.75c-3.719,0-6.731-3.018-6.731-6.732
	c0-3.717,3.017-6.73,6.731-6.73c3.719,0,6.732,3.017,6.732,6.73C957.336,351.736,954.322,354.75,950.603,354.75z M950.603,302.75
	c-3.719,0-6.731-3.014-6.731-6.732c0-3.718,3.017-6.732,6.731-6.732c3.719,0,6.732,3.014,6.732,6.732
	C957.336,299.736,954.322,302.75,950.603,302.75z M950.603,250.75c-3.719,0-6.731-3.014-6.731-6.732
	c0-3.718,3.017-6.732,6.731-6.732c3.719,0,6.732,3.014,6.732,6.732C957.336,247.736,954.322,250.75,950.603,250.75z M950.603,198.75
	c-3.719,0-6.731-3.014-6.731-6.732c0-3.718,3.017-6.732,6.731-6.732c3.719,0,6.732,3.014,6.732,6.732
	C957.336,195.736,954.322,198.75,950.603,198.75z M950.603,146.75c-3.719,0-6.731-3.014-6.731-6.732
	c0-3.718,3.017-6.732,6.731-6.732c3.719,0,6.732,3.014,6.732,6.732C957.336,143.736,954.322,146.75,950.603,146.75z M950.603,94.75
	c-3.719,0-6.731-3.014-6.731-6.732c0-3.718,3.017-6.732,6.731-6.732c3.719,0,6.732,3.014,6.732,6.732
	C957.336,91.736,954.322,94.75,950.603,94.75z M950.603,42.75c-3.719,0-6.731-3.014-6.731-6.732c0-3.718,3.017-6.732,6.731-6.732
	c3.719,0,6.732,3.014,6.732,6.732C957.336,39.736,954.322,42.75,950.603,42.75z M1007.174,510.75c-3.72,0-6.731-3.014-6.731-6.732
	c0-3.717,3.017-6.73,6.731-6.73s6.729,3.016,6.729,6.73C1013.906,507.737,1010.892,510.75,1007.174,510.75z M1007.174,458.75
	c-3.72,0-6.731-3.014-6.731-6.732c0-3.717,3.017-6.73,6.731-6.73s6.729,3.016,6.729,6.73
	C1013.906,455.737,1010.892,458.75,1007.174,458.75z M1007.174,406.75c-3.72,0-6.731-3.016-6.731-6.732s3.017-6.73,6.731-6.73
	s6.729,3.017,6.729,6.73C1013.906,403.736,1010.892,406.75,1007.174,406.75z M1007.174,354.75c-3.72,0-6.731-3.018-6.731-6.732
	c0-3.717,3.017-6.73,6.731-6.73s6.729,3.017,6.729,6.73C1013.906,351.736,1010.892,354.75,1007.174,354.75z M1007.174,302.75
	c-3.72,0-6.731-3.014-6.731-6.732c0-3.718,3.017-6.732,6.731-6.732s6.729,3.014,6.729,6.732
	C1013.906,299.736,1010.892,302.75,1007.174,302.75z M1007.174,250.75c-3.72,0-6.731-3.014-6.731-6.732
	c0-3.718,3.017-6.732,6.731-6.732s6.729,3.014,6.729,6.732C1013.906,247.736,1010.892,250.75,1007.174,250.75z M1007.174,198.75
	c-3.72,0-6.731-3.014-6.731-6.732c0-3.718,3.017-6.732,6.731-6.732s6.729,3.014,6.729,6.732
	C1013.906,195.736,1010.892,198.75,1007.174,198.75z M1007.174,146.75c-3.72,0-6.731-3.014-6.731-6.732
	c0-3.718,3.017-6.732,6.731-6.732s6.729,3.014,6.729,6.732C1013.906,143.736,1010.892,146.75,1007.174,146.75z M1007.174,94.75
	c-3.72,0-6.731-3.014-6.731-6.732c0-3.718,3.017-6.732,6.731-6.732s6.729,3.014,6.729,6.732
	C1013.906,91.736,1010.892,94.75,1007.174,94.75z M1007.174,42.75c-3.72,0-6.731-3.014-6.731-6.732c0-3.718,3.017-6.732,6.731-6.732
	s6.729,3.014,6.729,6.732C1013.906,39.736,1010.892,42.75,1007.174,42.75z M1063.743,510.75c-3.72,0-6.73-3.014-6.73-6.732
	c0-3.717,3.015-6.73,6.73-6.73c3.719,0,6.73,3.016,6.73,6.73C1070.476,507.737,1067.463,510.75,1063.743,510.75z M1063.743,458.75
	c-3.72,0-6.73-3.014-6.73-6.732c0-3.717,3.015-6.73,6.73-6.73c3.719,0,6.73,3.016,6.73,6.73
	C1070.476,455.737,1067.463,458.75,1063.743,458.75z M1063.743,406.75c-3.72,0-6.73-3.016-6.73-6.732s3.015-6.73,6.73-6.73
	c3.719,0,6.73,3.017,6.73,6.73C1070.476,403.736,1067.463,406.75,1063.743,406.75z M1063.743,354.75c-3.72,0-6.73-3.018-6.73-6.732
	c0-3.717,3.015-6.73,6.73-6.73c3.719,0,6.73,3.017,6.73,6.73C1070.476,351.736,1067.463,354.75,1063.743,354.75z M1063.743,302.75
	c-3.72,0-6.73-3.014-6.73-6.732c0-3.718,3.015-6.732,6.73-6.732c3.719,0,6.73,3.014,6.73,6.732
	C1070.476,299.736,1067.463,302.75,1063.743,302.75z M1063.743,250.75c-3.72,0-6.73-3.014-6.73-6.732
	c0-3.718,3.015-6.732,6.73-6.732c3.719,0,6.73,3.014,6.73,6.732C1070.476,247.736,1067.463,250.75,1063.743,250.75z
	 M1063.743,198.75c-3.72,0-6.73-3.014-6.73-6.732c0-3.718,3.015-6.732,6.73-6.732c3.719,0,6.73,3.014,6.73,6.732
	C1070.476,195.736,1067.463,198.75,1063.743,198.75z M1063.743,146.75c-3.72,0-6.73-3.014-6.73-6.732
	c0-3.718,3.015-6.732,6.73-6.732c3.719,0,6.73,3.014,6.73,6.732C1070.476,143.736,1067.463,146.75,1063.743,146.75z M1063.743,94.75
	c-3.72,0-6.73-3.014-6.73-6.732c0-3.718,3.015-6.732,6.73-6.732c3.719,0,6.73,3.014,6.73,6.732
	C1070.476,91.736,1067.463,94.75,1063.743,94.75z M1120.314,510.75c-3.721,0-6.729-3.014-6.729-6.732c0-3.717,3.015-6.73,6.729-6.73
	s6.729,3.016,6.729,6.73C1127.047,507.737,1124.031,510.75,1120.314,510.75z M1120.314,458.75c-3.721,0-6.729-3.014-6.729-6.732
	c0-3.717,3.015-6.73,6.729-6.73s6.729,3.016,6.729,6.73C1127.047,455.737,1124.031,458.75,1120.314,458.75z M1120.314,406.75
	c-3.721,0-6.729-3.016-6.729-6.732s3.015-6.73,6.729-6.73s6.729,3.017,6.729,6.73C1127.047,403.736,1124.031,406.75,1120.314,406.75
	z M1120.314,354.75c-3.721,0-6.729-3.018-6.729-6.732c0-3.717,3.015-6.73,6.729-6.73s6.729,3.017,6.729,6.73
	C1127.047,351.736,1124.031,354.75,1120.314,354.75z M1120.314,302.75c-3.721,0-6.729-3.014-6.729-6.732
	c0-3.718,3.015-6.732,6.729-6.732s6.729,3.014,6.729,6.732C1127.045,299.736,1124.031,302.75,1120.314,302.75z M1120.314,250.75
	c-3.721,0-6.729-3.014-6.729-6.732c0-3.718,3.015-6.732,6.729-6.732s6.729,3.014,6.729,6.732
	C1127.045,247.736,1124.031,250.75,1120.314,250.75z M1120.314,198.75c-3.721,0-6.729-3.014-6.729-6.732
	c0-3.718,3.015-6.732,6.729-6.732s6.729,3.014,6.729,6.732C1127.045,195.736,1124.031,198.75,1120.314,198.75z M1120.314,146.75
	c-3.721,0-6.729-3.014-6.729-6.732c0-3.718,3.015-6.732,6.729-6.732s6.729,3.014,6.729,6.732
	C1127.045,143.736,1124.031,146.75,1120.314,146.75z M1120.314,94.75c-3.721,0-6.729-3.014-6.729-6.732
	c0-3.718,3.015-6.732,6.729-6.732s6.729,3.014,6.729,6.732C1127.045,91.736,1124.031,94.75,1120.314,94.75z M1176.885,510.75
	c-3.719,0-6.731-3.014-6.731-6.732c0-3.717,3.017-6.73,6.731-6.73c3.719,0,6.731,3.016,6.731,6.73
	C1183.615,507.737,1180.603,510.75,1176.885,510.75z M1176.885,458.75c-3.719,0-6.731-3.014-6.731-6.732
	c0-3.717,3.017-6.73,6.731-6.73c3.719,0,6.731,3.016,6.731,6.73C1183.615,455.737,1180.603,458.75,1176.885,458.75z
	 M1176.885,406.75c-3.719,0-6.731-3.016-6.731-6.732s3.017-6.73,6.731-6.73c3.719,0,6.731,3.017,6.731,6.73
	C1183.615,403.736,1180.603,406.75,1176.885,406.75z M1176.885,354.75c-3.719,0-6.731-3.018-6.731-6.732
	c0-3.717,3.017-6.73,6.731-6.73c3.719,0,6.731,3.017,6.731,6.73C1183.615,351.736,1180.603,354.75,1176.885,354.75z
	 M1176.885,302.75c-3.719,0-6.731-3.014-6.731-6.732c0-3.718,3.017-6.732,6.731-6.732c3.719,0,6.731,3.014,6.731,6.732
	C1183.615,299.736,1180.603,302.75,1176.885,302.75z M1176.885,250.75c-3.719,0-6.731-3.014-6.731-6.732
	c0-3.718,3.017-6.732,6.731-6.732c3.719,0,6.731,3.014,6.731,6.732C1183.615,247.736,1180.603,250.75,1176.885,250.75z
	 M1176.885,198.75c-3.719,0-6.731-3.014-6.731-6.732c0-3.718,3.017-6.732,6.731-6.732c3.719,0,6.731,3.014,6.731,6.732
	C1183.615,195.736,1180.603,198.75,1176.885,198.75z M1176.885,146.75c-3.719,0-6.731-3.014-6.731-6.732
	c0-3.718,3.017-6.732,6.731-6.732c3.719,0,6.731,3.014,6.731,6.732C1183.615,143.736,1180.603,146.75,1176.885,146.75z
	 M1176.885,94.75c-3.719,0-6.731-3.014-6.731-6.732c0-3.718,3.017-6.732,6.731-6.732c3.719,0,6.731,3.014,6.731,6.732
	C1183.615,91.736,1180.603,94.75,1176.885,94.75z M1233.454,510.75c-3.72,0-6.73-3.014-6.73-6.732c0-3.717,3.015-6.73,6.73-6.73
	c3.719,0,6.731,3.016,6.731,6.73C1240.187,507.737,1237.174,510.75,1233.454,510.75z M1233.454,458.75
	c-3.72,0-6.73-3.014-6.73-6.732c0-3.717,3.015-6.73,6.73-6.73c3.719,0,6.731,3.016,6.731,6.73
	C1240.187,455.737,1237.174,458.75,1233.454,458.75z M1233.454,406.75c-3.72,0-6.73-3.016-6.73-6.732s3.015-6.73,6.73-6.73
	c3.719,0,6.731,3.017,6.731,6.73C1240.187,403.736,1237.174,406.75,1233.454,406.75z M1233.454,354.75
	c-3.72,0-6.73-3.018-6.73-6.732c0-3.717,3.015-6.73,6.73-6.73c3.719,0,6.731,3.017,6.731,6.73
	C1240.187,351.736,1237.174,354.75,1233.454,354.75z M1233.454,302.75c-3.72,0-6.73-3.014-6.73-6.732
	c0-3.718,3.015-6.732,6.73-6.732c3.719,0,6.731,3.014,6.731,6.732C1240.187,299.736,1237.174,302.75,1233.454,302.75z
	 M1233.454,250.75c-3.72,0-6.73-3.014-6.73-6.732c0-3.718,3.015-6.732,6.73-6.732c3.719,0,6.731,3.014,6.731,6.732
	C1240.187,247.736,1237.174,250.75,1233.454,250.75z M1233.454,198.75c-3.72,0-6.73-3.014-6.73-6.732
	c0-3.718,3.015-6.732,6.73-6.732c3.719,0,6.731,3.014,6.731,6.732C1240.187,195.736,1237.174,198.75,1233.454,198.75z
	 M1233.454,146.75c-3.72,0-6.73-3.014-6.73-6.732c0-3.718,3.015-6.732,6.73-6.732c3.719,0,6.731,3.014,6.731,6.732
	C1240.187,143.736,1237.174,146.75,1233.454,146.75z M1290.026,562.75c-3.722,0-6.729-3.014-6.729-6.732
	c0-3.717,3.014-6.73,6.729-6.73s6.729,3.016,6.729,6.73C1296.758,559.737,1293.743,562.75,1290.026,562.75z M1290.026,510.75
	c-3.722,0-6.729-3.014-6.729-6.732c0-3.717,3.014-6.73,6.729-6.73s6.729,3.016,6.729,6.73
	C1296.758,507.737,1293.743,510.75,1290.026,510.75z M1290.026,458.75c-3.722,0-6.729-3.014-6.729-6.732
	c0-3.717,3.014-6.73,6.729-6.73s6.729,3.016,6.729,6.73C1296.758,455.737,1293.743,458.75,1290.026,458.75z M1290.026,406.75
	c-3.722,0-6.729-3.016-6.729-6.732s3.014-6.73,6.729-6.73s6.729,3.017,6.729,6.73C1296.758,403.736,1293.743,406.75,1290.026,406.75
	z M1290.026,354.75c-3.722,0-6.729-3.018-6.729-6.732c0-3.717,3.014-6.73,6.729-6.73s6.729,3.017,6.729,6.73
	C1296.758,351.736,1293.743,354.75,1290.026,354.75z M1290.026,302.75c-3.722,0-6.729-3.014-6.729-6.732
	c0-3.718,3.014-6.732,6.729-6.732s6.729,3.014,6.729,6.732C1296.756,299.736,1293.743,302.75,1290.026,302.75z M1290.026,250.75
	c-3.722,0-6.729-3.014-6.729-6.732c0-3.718,3.014-6.732,6.729-6.732s6.729,3.014,6.729,6.732
	C1296.756,247.736,1293.743,250.75,1290.026,250.75z M1346.596,458.75c-3.719,0-6.731-3.014-6.731-6.732
	c0-3.717,3.017-6.73,6.731-6.73c3.719,0,6.731,3.016,6.731,6.73C1353.327,455.737,1350.314,458.75,1346.596,458.75z
	 M1346.596,406.75c-3.719,0-6.731-3.016-6.731-6.732s3.017-6.73,6.731-6.73c3.719,0,6.731,3.017,6.731,6.73
	C1353.327,403.736,1350.314,406.75,1346.596,406.75z M1346.596,354.75c-3.719,0-6.731-3.018-6.731-6.732
	c0-3.717,3.017-6.73,6.731-6.73c3.719,0,6.731,3.017,6.731,6.73C1353.327,351.736,1350.314,354.75,1346.596,354.75z"/>
</svg>
