<?xml version="1.0" encoding="utf-8"?>
<!-- Generator: Adobe Illustrator 21.0.2, SVG Export Plug-In . SVG Version: 6.00 Build 0)  -->
<svg version="1.1" id="Layer_1" xmlns="http://www.w3.org/2000/svg" xmlns:xlink="http://www.w3.org/1999/xlink" x="0px" y="0px"
	 width="2050.7px" height="806.4px" viewBox="0 0 2050.7 806.4" enable-background="new 0 0 2050.7 806.4" xml:space="preserve">
<path fill="none" stroke="#000000" stroke-linejoin="round" stroke-miterlimit="10" d="M1448.7,460l-19.5,40.9
	c-1.4,3-4.3,5.1-7.6,5.6c-0.3,0-0.6,0.1-0.8,0.1l-348.2,20.6c-3.2,0.2-6.3-1.1-8.3-3.6c-2-2.4-2.8-5.7-2-8.8l8-32.4
	c1.3-5.4,6.8-8.6,12.1-7.3c5.4,1.3,8.6,6.8,7.3,12.1l-4.8,19.2l328.7-19.4l17-35.6c2.4-5,8.3-7.1,13.3-4.7
	C1449,449,1451.1,455,1448.7,460z M1832.1,432.7c1.7-5.2,7.4-8.1,12.6-6.3c5.2,1.7,8.1,7.4,6.3,12.6l-8.8,26.7
	c-1.2,3.6-4.3,6.2-8.1,6.7c-0.2,0-0.4,0.1-0.6,0.1l-355.3,30.1c-2.8,0.2-5.6-0.7-7.7-2.7c-2.1-1.9-3.2-4.7-3.1-7.5l0.6-25.5
	c0.1-5.5,4.7-9.9,10.2-9.8s9.9,4.7,9.8,10.2l-0.3,14.3l337.6-28.6L1832.1,432.7z M873.6,271.4c0.3,1.1,0.8,2.2,1.3,3.3
	c12.5,27.8,70.8,226.7,69,243.9s115.2,241.5,122.3,261.6s21.4,30.8,37.3,24.2c16-6.5,389.9-259.3,422.5-268.2s524.6-58.7,524.6-58.7
	s-200-301.2-297.2-388.7S1626-2.8,1571.6,0.9C1524,4,977,69.5,837.9,86.2V86c-7.3,1-15.5,1.6-21-3.2c-10.2-8.9-3.7-25.8-13.4-35.5
	c-5.8-5.8-13.8-9-21.9-9c-17.2,0-31.2,14-31.2,31.2c0,5.9,1.9,12.3-0.4,18c-2.6,6.2-9.4,6.4-14.9,8.6L61.4,224.9
	c0,0-63.4,16.7-61.4,22.2c6.1,16.7,58.7,22.8,71.8,24.3c11.2,1.3,485.3-47.6,637.5-63.8c42.6,0.1,85.4,4.9,127.4,11.7
	c7.6,1.2,15.4,2.7,21.6,7.2c10.9,8.1,10.5,29.8,14.4,42L873.6,271.4z"/>
</svg>
