<?xml version="1.0" encoding="utf-8"?>
<!-- Generator: Adobe Illustrator 16.0.0, SVG Export Plug-In . SVG Version: 6.00 Build 0)  -->
<!DOCTYPE svg PUBLIC "-//W3C//DTD SVG 1.1//EN" "http://www.w3.org/Graphics/SVG/1.1/DTD/svg11.dtd">
<svg version="1.1" id="Layer_1" xmlns="http://www.w3.org/2000/svg" xmlns:xlink="http://www.w3.org/1999/xlink" x="0px" y="0px"
	 width="1140.942px" height="885.533px" viewBox="0 0 1140.942 885.533" enable-background="new 0 0 1140.942 885.533"
	 xml:space="preserve">
<path fill="none" stroke="#000000" stroke-linejoin="round" stroke-miterlimit="10" d="M358.37,637.696
	c2.952-38.494-29.118-440.014-29.118-440.014"/>
<path fill="none" stroke="#000000" stroke-linejoin="round" stroke-miterlimit="10" d="M776.715,644.227
	c-2.596-38.521,33.215-439.721,33.215-439.721"/>
<path fill="none" stroke="#000000" stroke-linejoin="round" stroke-miterlimit="10" d="M817.61,645.878
	c-2.174,4.14-3.625,6.917-4.268,8.173c-6.558,12.812-16.038,20.175-23.744,18.043"/>
<path fill="none" stroke="#000000" stroke-linejoin="round" stroke-miterlimit="10" d="M388.601,200.798
	c-1.501,1.261-2.608,3.121-3.085,5.753c-1.475,8.128,25.349,249.756,48.389,433.815"/>
<path fill="none" stroke="#000000" stroke-linejoin="round" stroke-miterlimit="10" d="M700.026,644.227
	c21.395-185.208,46.525-434.118,44.945-442.349c-0.258-1.343-0.678-2.482-1.229-3.441"/>
</svg>
