<?xml version="1.0" encoding="utf-8"?>
<!-- Generator: Adobe Illustrator 16.0.0, SVG Export Plug-In . SVG Version: 6.00 Build 0)  -->
<!DOCTYPE svg PUBLIC "-//W3C//DTD SVG 1.1//EN" "http://www.w3.org/Graphics/SVG/1.1/DTD/svg11.dtd">
<svg version="1.1" id="Layer_1" xmlns="http://www.w3.org/2000/svg" xmlns:xlink="http://www.w3.org/1999/xlink" x="0px" y="0px"
	 width="554.914px" height="858.167px" viewBox="0 0 554.914 858.167" enable-background="new 0 0 554.914 858.167"
	 xml:space="preserve">
<path fill="none" stroke="#000000" stroke-linejoin="round" stroke-miterlimit="10" d="M447.087,778.33
	c-47.412-43.729-92.988-89.389-139.879-133.668c-1.688-1.596-6.94-6.693-15.842-15.158c-39.89-38.02-81.37-79.031-124.466-122.936
	c-22.82-23.334-43.522-48.746-62.055-76.439c-12.892-19.229-22.937-37.88-30.071-55.984c-4.203-10.561-6.719-17.682-7.514-21.307
	l0,0l-5.597-21.598l0,0c-2.925-9.807-6.084-32.086-9.388-66.976c-4.7-49.619-7.727-99.381-12.343-149.008
	c-2.749-29.537-3.595-45.326-2.514-47.465c3.742-7.403,11.465-12.215,19.822-11.318c2.763,0.297,33.338,33.271,91.874,98.749
	c15.893,17.801,31.031,34.459,45.413,49.975c6.408,6.923,11.434,12.488,15.138,16.658l0,0l14.827,16.841l0,0
	c0.208,0.211,9.387,18.953,9.811,19.957c2.477,6.061,4.092,13.213,4.98,21.543c0.007,0.581,0.509,7.969,1.505,22.167
	c2.853,42.504,5.591,53.84,17.596,86.623l0,0l3.808,10.457l5.981,9.179l0,0c25.226,38.792,43.451,66.246,54.555,82.431
	c15.541,22.605,35.966,52.939,61.244,91.113c37.93,57.273,91.04,137.48,113.839,171.777c16.125,24.26,32.148,48.586,48.261,72.855
	l0,0l6.577,9.912l0,0c6.337,9.643-2.176,22.158-6.612,21.428l0,0l-11.232-1.916l0,0c-2.77-0.455-44.883-37.424-45.084-38.475
	C489.16,814.812,461.314,791.451,447.087,778.33L447.087,778.33"/>
</svg>
