<?xml version="1.0" encoding="utf-8"?>
<!-- Generator: Adobe Illustrator 16.0.0, SVG Export Plug-In . SVG Version: 6.00 Build 0)  -->
<!DOCTYPE svg PUBLIC "-//W3C//DTD SVG 1.1//EN" "http://www.w3.org/Graphics/SVG/1.1/DTD/svg11.dtd">
<svg version="1.1" id="Layer_1" xmlns="http://www.w3.org/2000/svg" xmlns:xlink="http://www.w3.org/1999/xlink" x="0px" y="0px"
	 width="1409.149px" height="1173.75px" viewBox="0 0 1409.149 1173.75" enable-background="new 0 0 1409.149 1173.75"
	 xml:space="preserve">
<path fill="none" stroke="#000000" stroke-linejoin="round" stroke-miterlimit="10" d="M540.738,418.402
	c-3.123,11.646-15.1,18.558-26.743,15.435c-11.646-3.124-18.556-15.095-15.431-26.745c3.116-11.645,15.09-18.557,26.738-15.435
	C536.949,394.776,543.862,406.755,540.738,418.402z M68.386,89.349c-3.198-1.119-6.843-2.904-9.783-0.211
	c-5.279,9.724-15.579,16.326-27.422,16.326C13.96,105.464,0,91.504,0,74.283c0-17.221,13.96-31.181,31.181-31.181
	c14.586,0,26.832,10.014,30.238,23.543c1.783,2.288,4.257,1.413,6.431,0.246c4.606-4.14,12.301-8.239,23.775-12.344
	c44.83-16.039,322.07-38.371,623.924-47.859c301.859-9.498,607.51-6.094,607.51-6.094s26.768,0.942,46.416,5.17
	c19.652,4.234,5.922,24.451,5.377,41.974c-0.539,17.525,12.305,35.523,28.32,53.323c16.016,17.805-5.223,34.972-5.223,34.972
	s-34.883,17.674-62.123,30.116c-27.238,12.447-92.111,33.568-92.111,33.568s-283.297,56.562-369.559,81.759
	c-86.27,25.207-126.814,52.222-118.459,90.836c8.354,38.62,74.859,65.805,163.93,97.993
	c89.062,32.194,267.012,93.411,280.584,97.048c13.574,3.646,53.541,1.885,71.846-0.483c18.303-2.368,42.479,8.265,42.479,8.265
	s41.08,32.845,47.795,38.8c6.717,5.961-2.926,14.812-2.926,14.812s-19.414,10.387-33.98,22.072
	c-14.561,11.686-21.523,49.303-24.465,64.112c-2.926,14.808-22.906,15.685-22.906,15.685s-203.609-4.149-301.014,10.271
	c-97.4,14.42-134.061,87.219-134.061,87.219s-161.975,290.187-179.952,316.539c-17.983,26.359-41.747,27.785-41.747,27.785
	s-69.062,1.75-100.102,1.228c-31.039-0.523-28.064-46.494-28.064-46.494s-12.78-603.612-15.593-674.521
	c-2.816-70.905-94.487-136.01-94.487-136.01S118.205,124.035,88.937,105.273c-8.629-5.53-15.833-10.813-20.553-15.926L68.386,89.349
	z"/>
</svg>
