<?xml version="1.0" encoding="utf-8"?>
<!-- Generator: Adobe Illustrator 16.0.0, SVG Export Plug-In . SVG Version: 6.00 Build 0)  -->
<!DOCTYPE svg PUBLIC "-//W3C//DTD SVG 1.1//EN" "http://www.w3.org/Graphics/SVG/1.1/DTD/svg11.dtd">
<svg version="1.1" id="Layer_1" xmlns="http://www.w3.org/2000/svg" xmlns:xlink="http://www.w3.org/1999/xlink" x="0px" y="0px"
	 width="1404.281px" height="485.711px" viewBox="0 0 1404.281 485.711" enable-background="new 0 0 1404.281 485.711"
	 xml:space="preserve">
<path fill="none" stroke="#000000" stroke-linejoin="round" stroke-miterlimit="10" d="M1313.021,67.247
	c-44.479-16.47-320.385-41.753-620.947-54.518C391.499-0.033,87.015,0,87.015,0S60.339,0.645,40.716,4.643
	c-19.622,3.999-6.163,24.29-5.817,41.751c0.348,17.46-12.644,35.246-28.787,52.802c-16.148,17.556,4.811,34.898,4.811,34.898
	s34.55,17.982,61.547,30.678c26.995,12.694,91.387,34.446,91.387,34.446s281.564,59.446,367.21,85.495
	c85.644,26.047,125.737,53.402,116.992,91.773c-8.743,38.375-75.291,64.721-164.358,95.811c-9.157,3.193-8.493,2.99-19.251,6.689
	l458.688,6.725c0.464-11.668,0.851-20.58,1.134-26.164c3.58-70.596,95.609-134.447,95.609-134.447s265.899-188.931,295.26-207.293
	C1344.501,99.44,1357.499,83.719,1313.021,67.247z M888.144,440.42c-11.638,2.98-23.483-4.033-26.466-15.67
	c-2.98-11.635,4.03-23.488,15.665-26.469c11.636-2.982,23.485,4.037,26.465,15.672C906.794,425.588,899.779,437.434,888.144,440.42z
	"/>
</svg>
