<?xml version="1.0" encoding="utf-8"?>
<!-- Generator: Adobe Illustrator 16.0.0, SVG Export Plug-In . SVG Version: 6.00 Build 0)  -->
<!DOCTYPE svg PUBLIC "-//W3C//DTD SVG 1.1//EN" "http://www.w3.org/Graphics/SVG/1.1/DTD/svg11.dtd">
<svg version="1.1" id="Layer_1" xmlns="http://www.w3.org/2000/svg" xmlns:xlink="http://www.w3.org/1999/xlink" x="0px" y="0px"
	 width="1341.916px" height="485.79px" viewBox="0 0 1341.916 485.79" enable-background="new 0 0 1341.916 485.79"
	 xml:space="preserve">
<path d="M1335.804,99.187c-16.146-17.555-29.141-35.342-28.793-52.799c0.347-17.465,13.803-37.756-5.82-41.753
	c-19.622-3.993-46.301-4.636-46.301-4.636s-304.48-0.007-605.05,12.787C349.275,25.581,73.371,50.888,28.896,67.36
	c-44.479,16.476-31.479,32.195-2.116,50.556c29.36,18.363,295.273,207.271,295.273,207.271s92.035,63.847,95.621,134.438
	c0.282,5.584,0.67,14.496,1.135,26.166l458.687-6.77c-10.756-3.695-10.095-3.49-19.25-6.688
	c-89.073-31.088-155.622-57.428-164.369-95.799c-8.748-38.369,31.346-65.729,116.985-91.783
	c85.646-26.06,367.204-85.529,367.204-85.529s64.39-21.758,91.384-34.454c26.999-12.699,61.544-30.684,61.544-30.684
	S1351.953,116.742,1335.804,99.187z M480.269,424.821c-2.979,11.637-14.828,18.645-26.468,15.67
	c-11.637-2.98-18.649-14.828-15.667-26.467c2.979-11.639,14.828-18.65,26.465-15.67
	C476.235,401.333,483.248,413.183,480.269,424.821z"/>
</svg>
