<?xml version="1.0" encoding="utf-8"?>
<!-- Generator: Adobe Illustrator 16.0.0, SVG Export Plug-In . SVG Version: 6.00 Build 0)  -->
<!DOCTYPE svg PUBLIC "-//W3C//DTD SVG 1.1//EN" "http://www.w3.org/Graphics/SVG/1.1/DTD/svg11.dtd">
<svg version="1.1" id="Layer_1" xmlns="http://www.w3.org/2000/svg" xmlns:xlink="http://www.w3.org/1999/xlink" x="0px" y="0px"
	 width="1203.582px" height="522.055px" viewBox="0 0 1203.582 522.055" enable-background="new 0 0 1203.582 522.055"
	 xml:space="preserve">
<path fill="none" stroke="#000000" stroke-linejoin="round" stroke-miterlimit="10" d="M1124.363,379.477
	c-41.855-31.885-262.453-201.334-262.453-201.334s-37.869-39.861-51.82-65.77c-13.949-25.908-39.854-81.713-93.668-101.646
	c-53.812-19.93-121.575-5.977-121.575-5.977L118.519,166.181c0,0-55.805,31.889-79.723,49.822
	c-23.914,17.941-49.824,39.863-33.881,63.776C20.862,303.695,92.61,391.389,92.61,391.389s33.879,35.875,105.627,45.844
	c71.75,9.967,143.5,17.936,197.307,29.895c53.812,11.955,133.533,39.857,133.533,39.857s79.717,19.934,123.561,13.951
	c43.849-5.979,125.57-25.25,176.67-36.785c42.459-9.59,103.849-24.729,156.162-34.965c51.004-9.979,131.478-27.676,131.478-27.676
	S1166.216,411.363,1124.363,379.477z M40.905,291.857c-3.719,0-6.732-3.016-6.732-6.73c0-3.719,3.014-6.732,6.732-6.732
	c3.718,0,6.732,3.018,6.732,6.732S44.624,291.857,40.905,291.857z M97.475,343.857c-3.719,0-6.732-3.016-6.732-6.73
	c0-3.719,3.014-6.732,6.732-6.732c3.718,0,6.732,3.018,6.732,6.732S101.194,343.857,97.475,343.857z M97.475,291.857
	c-3.719,0-6.732-3.016-6.732-6.73c0-3.719,3.014-6.732,6.732-6.732c3.718,0,6.732,3.018,6.732,6.732S101.194,291.857,97.475,291.857
	z M97.475,239.858c-3.719,0-6.732-3.014-6.732-6.732s3.014-6.732,6.732-6.732c3.718,0,6.732,3.014,6.732,6.732
	S101.194,239.858,97.475,239.858z M154.045,395.857c-3.719,0-6.732-3.016-6.732-6.73c0-3.719,3.014-6.732,6.732-6.732
	c3.718,0,6.732,3.018,6.732,6.732S157.764,395.857,154.045,395.857z M154.045,343.857c-3.719,0-6.732-3.016-6.732-6.73
	c0-3.719,3.014-6.732,6.732-6.732c3.718,0,6.732,3.018,6.732,6.732S157.764,343.857,154.045,343.857z M154.045,291.857
	c-3.719,0-6.732-3.016-6.732-6.73c0-3.719,3.014-6.732,6.732-6.732c3.718,0,6.732,3.018,6.732,6.732
	S157.764,291.857,154.045,291.857z M154.045,239.858c-3.719,0-6.732-3.014-6.732-6.732s3.014-6.732,6.732-6.732
	c3.718,0,6.732,3.014,6.732,6.732S157.764,239.858,154.045,239.858z M154.045,187.858c-3.719,0-6.732-3.014-6.732-6.732
	s3.014-6.732,6.732-6.732c3.718,0,6.732,3.014,6.732,6.732S157.764,187.858,154.045,187.858z M210.616,395.857
	c-3.719,0-6.732-3.016-6.732-6.73c0-3.719,3.014-6.732,6.732-6.732c3.718,0,6.732,3.018,6.732,6.732
	S214.334,395.857,210.616,395.857z M210.616,343.857c-3.719,0-6.732-3.016-6.732-6.73c0-3.719,3.014-6.732,6.732-6.732
	c3.718,0,6.732,3.018,6.732,6.732S214.334,343.857,210.616,343.857z M210.616,291.857c-3.719,0-6.732-3.016-6.732-6.73
	c0-3.719,3.014-6.732,6.732-6.732c3.718,0,6.732,3.018,6.732,6.732S214.334,291.857,210.616,291.857z M210.616,239.858
	c-3.719,0-6.732-3.014-6.732-6.732s3.014-6.732,6.732-6.732c3.718,0,6.732,3.014,6.732,6.732S214.334,239.858,210.616,239.858z
	 M210.616,187.858c-3.719,0-6.732-3.014-6.732-6.732s3.014-6.732,6.732-6.732c3.718,0,6.732,3.014,6.732,6.732
	S214.334,187.858,210.616,187.858z M267.186,395.857c-3.719,0-6.732-3.016-6.732-6.73c0-3.719,3.014-6.732,6.732-6.732
	c3.718,0,6.732,3.018,6.732,6.732S270.905,395.857,267.186,395.857z M267.186,343.857c-3.719,0-6.732-3.016-6.732-6.73
	c0-3.719,3.014-6.732,6.732-6.732c3.718,0,6.732,3.018,6.732,6.732S270.905,343.857,267.186,343.857z M267.186,291.857
	c-3.719,0-6.732-3.016-6.732-6.73c0-3.719,3.014-6.732,6.732-6.732c3.718,0,6.732,3.018,6.732,6.732
	S270.905,291.857,267.186,291.857z M267.186,239.858c-3.719,0-6.732-3.014-6.732-6.732s3.014-6.732,6.732-6.732
	c3.718,0,6.732,3.014,6.732,6.732S270.905,239.858,267.186,239.858z M267.186,187.858c-3.719,0-6.732-3.014-6.732-6.732
	s3.014-6.732,6.732-6.732c3.718,0,6.732,3.014,6.732,6.732S270.905,187.858,267.186,187.858z M323.756,395.857
	c-3.719,0-6.729-3.016-6.729-6.73c0-3.719,3.014-6.732,6.729-6.732s6.732,3.018,6.732,6.732S327.475,395.857,323.756,395.857z
	 M323.756,343.857c-3.719,0-6.729-3.016-6.729-6.73c0-3.719,3.014-6.732,6.729-6.732s6.732,3.018,6.732,6.732
	S327.475,343.857,323.756,343.857z M323.756,291.857c-3.719,0-6.729-3.016-6.729-6.73c0-3.719,3.014-6.732,6.729-6.732
	s6.732,3.018,6.732,6.732S327.475,291.857,323.756,291.857z M323.756,239.858c-3.719,0-6.729-3.014-6.729-6.732
	s3.014-6.732,6.729-6.732s6.732,3.014,6.732,6.732S327.475,239.858,323.756,239.858z M323.756,187.858
	c-3.719,0-6.729-3.014-6.729-6.732s3.014-6.732,6.729-6.732s6.732,3.014,6.732,6.732S327.475,187.858,323.756,187.858z
	 M323.756,135.858c-3.719,0-6.729-3.014-6.729-6.732s3.014-6.732,6.729-6.732s6.732,3.014,6.732,6.732
	S327.475,135.858,323.756,135.858z M380.327,447.859c-3.719,0-6.732-3.018-6.732-6.732c0-3.719,3.018-6.732,6.732-6.732
	s6.729,3.018,6.729,6.732C387.059,444.844,384.045,447.859,380.327,447.859z M380.327,395.857c-3.719,0-6.732-3.016-6.732-6.73
	c0-3.719,3.018-6.732,6.732-6.732s6.729,3.018,6.729,6.732C387.059,392.844,384.045,395.857,380.327,395.857z M380.327,343.857
	c-3.719,0-6.732-3.016-6.732-6.73c0-3.719,3.018-6.732,6.732-6.732s6.729,3.018,6.729,6.732
	C387.059,340.844,384.045,343.857,380.327,343.857z M380.327,291.857c-3.719,0-6.732-3.016-6.732-6.73
	c0-3.719,3.018-6.732,6.732-6.732s6.729,3.018,6.729,6.732C387.059,288.844,384.045,291.857,380.327,291.857z M380.327,239.858
	c-3.719,0-6.732-3.014-6.732-6.732s3.018-6.732,6.732-6.732s6.729,3.014,6.729,6.732S384.045,239.858,380.327,239.858z
	 M380.327,187.858c-3.719,0-6.732-3.014-6.732-6.732s3.018-6.732,6.732-6.732s6.729,3.014,6.729,6.732
	S384.045,187.858,380.327,187.858z M380.327,135.858c-3.719,0-6.732-3.014-6.732-6.732s3.018-6.732,6.732-6.732
	s6.729,3.014,6.729,6.732S384.045,135.858,380.327,135.858z M436.896,447.859c-3.722,0-6.731-3.018-6.731-6.732
	c0-3.719,3.014-6.732,6.731-6.732c3.719,0,6.729,3.018,6.729,6.732C443.629,444.844,440.616,447.859,436.896,447.859z
	 M436.896,395.857c-3.722,0-6.731-3.016-6.731-6.73c0-3.719,3.014-6.732,6.731-6.732c3.719,0,6.729,3.018,6.729,6.732
	C443.629,392.844,440.616,395.857,436.896,395.857z M436.896,343.857c-3.722,0-6.731-3.016-6.731-6.73
	c0-3.719,3.014-6.732,6.731-6.732c3.719,0,6.729,3.018,6.729,6.732C443.629,340.844,440.616,343.857,436.896,343.857z
	 M436.896,291.857c-3.722,0-6.731-3.016-6.731-6.73c0-3.719,3.014-6.732,6.731-6.732c3.719,0,6.729,3.018,6.729,6.732
	C443.629,288.844,440.616,291.857,436.896,291.857z M436.896,239.858c-3.722,0-6.731-3.014-6.731-6.732s3.014-6.732,6.731-6.732
	c3.719,0,6.729,3.014,6.729,6.732S440.616,239.858,436.896,239.858z M436.896,187.858c-3.722,0-6.731-3.014-6.731-6.732
	s3.014-6.732,6.731-6.732c3.719,0,6.729,3.014,6.729,6.732S440.616,187.858,436.896,187.858z M436.896,135.858
	c-3.722,0-6.731-3.014-6.731-6.732s3.014-6.732,6.731-6.732c3.719,0,6.729,3.014,6.729,6.732S440.616,135.858,436.896,135.858z
	 M436.896,83.858c-3.722,0-6.731-3.014-6.731-6.732s3.014-6.732,6.731-6.732c3.719,0,6.729,3.014,6.729,6.732
	S440.616,83.858,436.896,83.858z M493.467,447.859c-3.719,0-6.729-3.018-6.729-6.732c0-3.719,3.014-6.732,6.729-6.732
	s6.732,3.018,6.732,6.732S497.186,447.859,493.467,447.859z M493.467,395.857c-3.719,0-6.729-3.016-6.729-6.73
	c0-3.719,3.014-6.732,6.729-6.732s6.732,3.018,6.732,6.732S497.186,395.857,493.467,395.857z M493.467,343.857
	c-3.719,0-6.729-3.016-6.729-6.73c0-3.719,3.014-6.732,6.729-6.732s6.732,3.018,6.732,6.732S497.186,343.857,493.467,343.857z
	 M493.467,291.857c-3.719,0-6.729-3.016-6.729-6.73c0-3.719,3.014-6.732,6.729-6.732s6.732,3.018,6.732,6.732
	S497.186,291.857,493.467,291.857z M493.467,239.858c-3.719,0-6.729-3.014-6.729-6.732s3.014-6.732,6.729-6.732
	s6.732,3.014,6.732,6.732S497.186,239.858,493.467,239.858z M493.467,187.858c-3.719,0-6.729-3.014-6.729-6.732
	s3.014-6.732,6.729-6.732s6.732,3.014,6.732,6.732S497.186,187.858,493.467,187.858z M493.467,135.858
	c-3.719,0-6.729-3.014-6.729-6.732s3.014-6.732,6.729-6.732s6.732,3.014,6.732,6.732S497.186,135.858,493.467,135.858z
	 M493.467,83.858c-3.719,0-6.729-3.014-6.729-6.732s3.014-6.732,6.729-6.732s6.732,3.014,6.732,6.732S497.186,83.858,493.467,83.858
	z M550.038,499.859c-3.719,0-6.732-3.018-6.732-6.732c0-3.719,3.018-6.732,6.732-6.732s6.731,3.018,6.731,6.732
	S553.756,499.859,550.038,499.859z M550.038,447.859c-3.719,0-6.732-3.018-6.732-6.732c0-3.719,3.018-6.732,6.732-6.732
	s6.731,3.018,6.731,6.732S553.756,447.859,550.038,447.859z M550.038,395.857c-3.719,0-6.732-3.016-6.732-6.73
	c0-3.719,3.018-6.732,6.732-6.732s6.731,3.018,6.731,6.732S553.756,395.857,550.038,395.857z M550.038,343.857
	c-3.719,0-6.732-3.016-6.732-6.73c0-3.719,3.018-6.732,6.732-6.732s6.731,3.018,6.731,6.732S553.756,343.857,550.038,343.857z
	 M550.038,291.857c-3.719,0-6.732-3.016-6.732-6.73c0-3.719,3.018-6.732,6.732-6.732s6.731,3.018,6.731,6.732
	S553.756,291.857,550.038,291.857z M550.038,239.858c-3.719,0-6.732-3.014-6.732-6.732s3.018-6.732,6.732-6.732
	s6.731,3.014,6.731,6.732S553.756,239.858,550.038,239.858z M550.038,187.858c-3.719,0-6.732-3.014-6.732-6.732
	s3.018-6.732,6.732-6.732s6.731,3.014,6.731,6.732S553.756,187.858,550.038,187.858z M550.038,135.858
	c-3.719,0-6.732-3.014-6.732-6.732s3.018-6.732,6.732-6.732s6.731,3.014,6.731,6.732S553.756,135.858,550.038,135.858z
	 M550.038,83.858c-3.719,0-6.732-3.014-6.732-6.732s3.018-6.732,6.732-6.732s6.731,3.014,6.731,6.732S553.756,83.858,550.038,83.858
	z M606.609,499.859c-3.724,0-6.733-3.018-6.733-6.732c0-3.719,3.014-6.732,6.733-6.732c3.717,0,6.729,3.018,6.729,6.732
	C613.339,496.844,610.328,499.859,606.609,499.859z M606.609,447.859c-3.724,0-6.733-3.018-6.733-6.732
	c0-3.719,3.014-6.732,6.733-6.732c3.717,0,6.729,3.018,6.729,6.732C613.339,444.844,610.328,447.859,606.609,447.859z
	 M606.609,395.857c-3.724,0-6.733-3.016-6.733-6.73c0-3.719,3.014-6.732,6.733-6.732c3.717,0,6.729,3.018,6.729,6.732
	C613.339,392.844,610.328,395.857,606.609,395.857z M606.609,343.857c-3.724,0-6.733-3.016-6.733-6.73
	c0-3.719,3.014-6.732,6.733-6.732c3.717,0,6.729,3.018,6.729,6.732C613.339,340.844,610.328,343.857,606.609,343.857z
	 M606.609,291.857c-3.724,0-6.733-3.016-6.733-6.73c0-3.719,3.014-6.732,6.733-6.732c3.717,0,6.729,3.018,6.729,6.732
	C613.339,288.844,610.328,291.857,606.609,291.857z M606.609,239.858c-3.724,0-6.733-3.014-6.733-6.732s3.014-6.732,6.733-6.732
	c3.717,0,6.729,3.014,6.729,6.732S610.328,239.858,606.609,239.858z M606.609,187.858c-3.724,0-6.733-3.014-6.733-6.732
	s3.014-6.732,6.733-6.732c3.717,0,6.729,3.014,6.729,6.732S610.328,187.858,606.609,187.858z M606.609,135.858
	c-3.724,0-6.733-3.014-6.733-6.732s3.014-6.732,6.733-6.732c3.717,0,6.729,3.014,6.729,6.732S610.328,135.858,606.609,135.858z
	 M606.609,83.858c-3.724,0-6.733-3.014-6.733-6.732s3.014-6.732,6.733-6.732c3.717,0,6.729,3.014,6.729,6.732
	S610.328,83.858,606.609,83.858z M606.609,31.858c-3.724,0-6.733-3.014-6.733-6.732s3.014-6.732,6.733-6.732
	c3.717,0,6.729,3.014,6.729,6.732S610.328,31.858,606.609,31.858z M663.179,499.859c-3.719,0-6.729-3.018-6.729-6.732
	c0-3.719,3.014-6.732,6.729-6.732c3.722,0,6.732,3.018,6.732,6.732S666.896,499.859,663.179,499.859z M663.179,447.859
	c-3.719,0-6.729-3.018-6.729-6.732c0-3.719,3.014-6.732,6.729-6.732c3.722,0,6.732,3.018,6.732,6.732
	S666.896,447.859,663.179,447.859z M663.179,395.857c-3.719,0-6.729-3.016-6.729-6.73c0-3.719,3.014-6.732,6.729-6.732
	c3.722,0,6.732,3.018,6.732,6.732S666.896,395.857,663.179,395.857z M663.179,343.857c-3.719,0-6.729-3.016-6.729-6.73
	c0-3.719,3.014-6.732,6.729-6.732c3.722,0,6.732,3.018,6.732,6.732S666.896,343.857,663.179,343.857z M663.179,291.857
	c-3.719,0-6.729-3.016-6.729-6.73c0-3.719,3.014-6.732,6.729-6.732c3.722,0,6.732,3.018,6.732,6.732
	S666.896,291.857,663.179,291.857z M663.179,239.858c-3.719,0-6.729-3.014-6.729-6.732s3.014-6.732,6.729-6.732
	c3.722,0,6.732,3.014,6.732,6.732S666.896,239.858,663.179,239.858z M663.179,187.858c-3.719,0-6.729-3.014-6.729-6.732
	s3.014-6.732,6.729-6.732c3.722,0,6.732,3.014,6.732,6.732S666.896,187.858,663.179,187.858z M663.179,135.858
	c-3.719,0-6.729-3.014-6.729-6.732s3.014-6.732,6.729-6.732c3.722,0,6.732,3.014,6.732,6.732S666.896,135.858,663.179,135.858z
	 M663.179,83.858c-3.719,0-6.729-3.014-6.729-6.732s3.014-6.732,6.729-6.732c3.722,0,6.732,3.014,6.732,6.732
	S666.896,83.858,663.179,83.858z M663.179,31.858c-3.719,0-6.729-3.014-6.729-6.732s3.014-6.732,6.729-6.732
	c3.722,0,6.732,3.014,6.732,6.732S666.896,31.858,663.179,31.858z M719.75,447.859c-3.719,0-6.732-3.018-6.732-6.732
	c0-3.719,3.017-6.732,6.732-6.732c3.715,0,6.732,3.018,6.732,6.732S723.468,447.859,719.75,447.859z M719.75,395.857
	c-3.719,0-6.732-3.016-6.732-6.73c0-3.719,3.017-6.732,6.732-6.732c3.715,0,6.732,3.018,6.732,6.732S723.468,395.857,719.75,395.857
	z M719.75,343.857c-3.719,0-6.732-3.016-6.732-6.73c0-3.719,3.017-6.732,6.732-6.732c3.715,0,6.732,3.018,6.732,6.732
	S723.468,343.857,719.75,343.857z M719.75,291.857c-3.719,0-6.732-3.016-6.732-6.73c0-3.719,3.017-6.732,6.732-6.732
	c3.715,0,6.732,3.018,6.732,6.732S723.468,291.857,719.75,291.857z M719.75,239.858c-3.719,0-6.732-3.014-6.732-6.732
	s3.017-6.732,6.732-6.732c3.715,0,6.732,3.014,6.732,6.732S723.468,239.858,719.75,239.858z M719.75,187.858
	c-3.719,0-6.732-3.014-6.732-6.732s3.017-6.732,6.732-6.732c3.715,0,6.732,3.014,6.732,6.732S723.468,187.858,719.75,187.858z
	 M719.75,135.858c-3.719,0-6.732-3.014-6.732-6.732s3.017-6.732,6.732-6.732c3.715,0,6.732,3.014,6.732,6.732
	S723.468,135.858,719.75,135.858z M719.75,83.858c-3.719,0-6.732-3.014-6.732-6.732s3.017-6.732,6.732-6.732
	c3.715,0,6.732,3.014,6.732,6.732S723.468,83.858,719.75,83.858z M776.32,447.859c-3.724,0-6.732-3.018-6.732-6.732
	c0-3.719,3.014-6.732,6.732-6.732c3.717,0,6.729,3.018,6.729,6.732C783.05,444.844,780.039,447.859,776.32,447.859z M776.32,395.857
	c-3.724,0-6.732-3.016-6.732-6.73c0-3.719,3.014-6.732,6.732-6.732c3.717,0,6.729,3.018,6.729,6.732
	C783.05,392.844,780.039,395.857,776.32,395.857z M776.32,343.857c-3.724,0-6.732-3.016-6.732-6.73c0-3.719,3.014-6.732,6.732-6.732
	c3.717,0,6.729,3.018,6.729,6.732C783.05,340.844,780.039,343.857,776.32,343.857z M776.32,291.857c-3.724,0-6.732-3.016-6.732-6.73
	c0-3.719,3.014-6.732,6.732-6.732c3.717,0,6.729,3.018,6.729,6.732C783.05,288.844,780.039,291.857,776.32,291.857z M776.32,239.858
	c-3.724,0-6.732-3.014-6.732-6.732s3.014-6.732,6.732-6.732c3.717,0,6.729,3.014,6.729,6.732S780.039,239.858,776.32,239.858z
	 M776.32,187.858c-3.724,0-6.732-3.014-6.732-6.732s3.014-6.732,6.732-6.732c3.717,0,6.729,3.014,6.729,6.732
	S780.039,187.858,776.32,187.858z M776.32,135.858c-3.724,0-6.732-3.014-6.732-6.732s3.014-6.732,6.732-6.732
	c3.717,0,6.729,3.014,6.729,6.732S780.039,135.858,776.32,135.858z M832.89,447.859c-3.719,0-6.729-3.018-6.729-6.732
	c0-3.719,3.014-6.732,6.729-6.732c3.722,0,6.732,3.018,6.732,6.732S836.609,447.859,832.89,447.859z M832.89,395.857
	c-3.719,0-6.729-3.016-6.729-6.73c0-3.719,3.014-6.732,6.729-6.732c3.722,0,6.732,3.018,6.732,6.732S836.609,395.857,832.89,395.857
	z M832.89,343.857c-3.719,0-6.729-3.016-6.729-6.73c0-3.719,3.014-6.732,6.729-6.732c3.722,0,6.732,3.018,6.732,6.732
	S836.609,343.857,832.89,343.857z M832.89,291.857c-3.719,0-6.729-3.016-6.729-6.73c0-3.719,3.014-6.732,6.729-6.732
	c3.722,0,6.732,3.018,6.732,6.732S836.609,291.857,832.89,291.857z M832.89,239.858c-3.719,0-6.729-3.014-6.729-6.732
	s3.014-6.732,6.729-6.732c3.722,0,6.732,3.014,6.732,6.732S836.609,239.858,832.89,239.858z M832.89,187.858
	c-3.719,0-6.729-3.014-6.729-6.732s3.014-6.732,6.729-6.732c3.722,0,6.732,3.014,6.732,6.732S836.609,187.858,832.89,187.858z
	 M889.46,447.859c-3.719,0-6.731-3.018-6.731-6.732c0-3.719,3.016-6.732,6.731-6.732c3.715,0,6.732,3.018,6.732,6.732
	S893.179,447.859,889.46,447.859z M889.46,395.857c-3.719,0-6.731-3.016-6.731-6.73c0-3.719,3.016-6.732,6.731-6.732
	c3.715,0,6.732,3.018,6.732,6.732S893.179,395.857,889.46,395.857z M889.46,343.857c-3.719,0-6.731-3.016-6.731-6.73
	c0-3.719,3.016-6.732,6.731-6.732c3.715,0,6.732,3.018,6.732,6.732S893.179,343.857,889.46,343.857z M889.46,291.857
	c-3.719,0-6.731-3.016-6.731-6.73c0-3.719,3.016-6.732,6.731-6.732c3.715,0,6.732,3.018,6.732,6.732S893.179,291.857,889.46,291.857
	z M889.46,239.858c-3.719,0-6.731-3.014-6.731-6.732s3.016-6.732,6.731-6.732c3.715,0,6.732,3.014,6.732,6.732
	S893.179,239.858,889.46,239.858z M946.031,395.857c-3.721,0-6.732-3.016-6.732-6.73c0-3.719,3.016-6.732,6.732-6.732
	c3.715,0,6.729,3.018,6.729,6.732C952.761,392.844,949.75,395.857,946.031,395.857z M946.031,343.857
	c-3.721,0-6.732-3.016-6.732-6.73c0-3.719,3.016-6.732,6.732-6.732c3.715,0,6.729,3.018,6.729,6.732
	C952.761,340.844,949.75,343.857,946.031,343.857z M946.031,291.857c-3.721,0-6.732-3.016-6.732-6.73
	c0-3.719,3.016-6.732,6.732-6.732c3.715,0,6.729,3.018,6.729,6.732C952.761,288.844,949.75,291.857,946.031,291.857z
	 M1002.602,395.857c-3.72,0-6.73-3.016-6.73-6.73c0-3.719,3.014-6.732,6.73-6.732c3.721,0,6.731,3.018,6.731,6.732
	S1006.32,395.857,1002.602,395.857z M1002.602,343.857c-3.72,0-6.73-3.016-6.73-6.73c0-3.719,3.014-6.732,6.73-6.732
	c3.721,0,6.731,3.018,6.731,6.732S1006.32,343.857,1002.602,343.857z M1059.171,395.857c-3.719,0-6.729-3.016-6.729-6.73
	c0-3.719,3.014-6.732,6.729-6.732c3.715,0,6.732,3.018,6.732,6.732S1062.89,395.857,1059.171,395.857z"/>
</svg>
