<?xml version="1.0" encoding="utf-8"?>
<!-- Generator: Adobe Illustrator 16.0.0, SVG Export Plug-In . SVG Version: 6.00 Build 0)  -->
<!DOCTYPE svg PUBLIC "-//W3C//DTD SVG 1.1//EN" "http://www.w3.org/Graphics/SVG/1.1/DTD/svg11.dtd">
<svg version="1.1" id="Layer_1" xmlns="http://www.w3.org/2000/svg" xmlns:xlink="http://www.w3.org/1999/xlink" x="0px" y="0px"
	 width="887.188px" height="1541.875px" viewBox="0 0 887.188 1541.875" enable-background="new 0 0 887.188 1541.875"
	 xml:space="preserve">
<path fill="none" stroke="#000001" stroke-linejoin="round" stroke-miterlimit="10" d="M117.051,60.912
	c0,38.33,146.051,69.346,326.543,69.346c205.552,0,371.882-31.031,371.882-69.381c0.705-6.925,5.893-12.13,11.514-11.557
	l51.164,5.209c5.635,0.574,9.656,6.716,8.953,13.641l-63.592,624.591c-0.145,1.116-0.284,2.232-0.432,3.348
	c-1.735,13.138-1.135,25.785,3.11,38.426l0.004-0.002c1.778,3.413,2.538,7.731,2.021,13.179
	C809.03,949.36,736.28,1253.86,609.343,1416.36c-51.655,66.103-103.607,120.095-122.047,124.556
	c-10.43,2.531-23.594,0.023-31.008-7.107c-86.625-83.297-160.656-178.375-220.922-317.107
	c-63.821-150.596-106.939-306.868-129.36-468.82c-0.417-3.425-0.346-6.405,0.146-8.995l0.001,0
	c1.701-10.768,0.57-21.625-0.742-32.365c-0.378-3.095-0.769-6.188-1.148-9.282c-0.185-1.506-0.333-3.019-0.539-4.522L46.422,78.959
	c-1.819-9.587-9.41-16.769-18.512-16.769l0.083,0.01C12.27,60.604,0,47.326,0,31.181C0,13.96,13.96,0,31.181,0
	c17.221,0,31.181,13.96,31.181,31.181l-0.003-0.339c0,11.394,8.879,20.613,19.853,20.613c0,0,23.427-2.187,23.427-2.187
	c5.623-0.525,10.766,4.723,11.413,11.654V60.912z"/>
</svg>
