<?xml version="1.0" encoding="utf-8"?>
<!-- Generator: Adobe Illustrator 16.0.0, SVG Export Plug-In . SVG Version: 6.00 Build 0)  -->
<!DOCTYPE svg PUBLIC "-//W3C//DTD SVG 1.1//EN" "http://www.w3.org/Graphics/SVG/1.1/DTD/svg11.dtd">
<svg version="1.1" id="Layer_1" xmlns="http://www.w3.org/2000/svg" xmlns:xlink="http://www.w3.org/1999/xlink" x="0px" y="0px"
	 width="887.188px" height="1541.875px" viewBox="0 0 887.188 1541.875" enable-background="new 0 0 887.188 1541.875"
	 xml:space="preserve">
<path fill="none" stroke="#000000" stroke-linejoin="round" stroke-miterlimit="10" d="M685.21,950.745
	c-3.133,1.479,0.57,5.393,2.242,2.695c0.539-0.885,0.305-1.945-0.664-2.596c14.828-71.922,24.568-131.414,37.93-201.654
	c2.484-13.087,12.172-23.664,25.031-25.385c3.922-0.521,5.539-0.74,4.844-0.643c33.062,0,76.758-8.438,73.625,24.548
	C809.03,949.36,736.28,1253.86,609.343,1416.36c-51.655,66.103-103.607,120.095-122.047,124.556
	c-10.43,2.531-23.594,0.023-31.008-7.107c-86.625-83.297-160.656-178.375-220.922-317.107
	c-63.821-150.596-106.939-306.868-129.36-468.82c-3.945-32.359,35.719-24.979,62.461-24.712
	c36.945,0.358,32.547,32.108,38.883,60.077l41.555,154.836c-2.836,1.531,0.023,5.203,2.156,3.281
	c1.148-1.039,0.805-3.229-1.25-3.461c-0.719-23.086-10.039-79.057,16.297-63.789c1.094,0.633,84.094,113.143,185.891,167.818
	c12.82,6.885,27.828,8.357,38.938,0.914c50.182-34.271,105.779-90,166.846-167.211c9.279-11.508,22.664-3.182,24.227,2.18
	L685.21,950.745z M117.051,60.922l58.361,625.104c0.647,6.931-3.436,13.041-9.059,13.563l-51.207,4.779
	c-5.632,0.524-10.775-4.722-11.422-11.651L45.363,67.615c-0.647-6.931,3.436-13.04,9.068-13.566l51.207-4.781
	C111.261,48.743,116.404,53.991,117.051,60.922z M815.476,60.877l-63.59,624.592c-0.705,6.925,3.326,13.066,8.945,13.642
	l51.164,5.209c5.635,0.572,10.811-4.634,11.52-11.559L887.106,68.17c0.703-6.925-3.318-13.067-8.953-13.641l-51.164-5.209
	C821.368,48.747,816.181,53.952,815.476,60.877z"/>
</svg>
