<?xml version="1.0" encoding="utf-8"?>
<!-- Generator: Adobe Illustrator 16.0.0, SVG Export Plug-In . SVG Version: 6.00 Build 0)  -->
<!DOCTYPE svg PUBLIC "-//W3C//DTD SVG 1.1//EN" "http://www.w3.org/Graphics/SVG/1.1/DTD/svg11.dtd">
<svg version="1.1" id="Layer_1" xmlns="http://www.w3.org/2000/svg" xmlns:xlink="http://www.w3.org/1999/xlink" x="0px" y="0px"
	 width="841.891px" height="1492.645px" viewBox="0 0 841.891 1492.645" enable-background="new 0 0 841.891 1492.645"
	 xml:space="preserve">
<path d="M639.916,901.514c-3.136,1.479,0.567,5.394,2.239,2.695c0.539-0.885,0.308-1.945-0.664-2.596
	c14.828-71.922,24.568-131.414,37.933-201.655c2.481-13.087,12.172-23.664,25.028-25.385c3.925-0.521,5.539-0.74,4.847-0.644
	c33.062,0,76.758-8.438,73.625,24.548c-19.189,201.65-91.939,506.15-218.875,668.65c-51.656,66.103-103.609,120.095-122.047,124.556
	c-10.433,2.531-23.597,0.023-31.011-7.106c-86.625-83.297-160.654-178.375-220.921-317.107
	c-63.82-150.596-106.938-306.868-129.359-468.82c-3.944-32.359,35.72-24.979,62.461-24.712
	c36.945,0.357,32.548,32.107,38.884,60.076l41.555,154.836c-2.836,1.531,0.023,5.203,2.156,3.281
	c1.147-1.039,0.806-3.229-1.25-3.461c-0.719-23.086-10.039-79.057,16.297-63.789c1.096,0.633,84.094,113.144,185.892,167.818
	c12.819,6.885,27.827,8.356,38.938,0.914c50.182-34.271,105.781-90,166.846-167.211c9.279-11.508,22.664-3.183,24.229,2.18
	L639.916,901.514z M71.756,11.69l58.361,625.104c0.646,6.931-3.438,13.041-9.061,13.563l-51.207,4.778
	c-5.632,0.524-10.773-4.722-11.422-11.65L0.068,18.383c-0.646-6.931,3.438-13.04,9.068-13.566l51.207-4.781
	C65.966-0.489,71.109,4.759,71.756,11.69z M770.181,11.645l-63.59,624.592c-0.705,6.925,3.325,13.065,8.942,13.642l51.164,5.209
	c5.638,0.572,10.812-4.634,11.521-11.559L841.81,18.938c0.705-6.925-3.318-13.067-8.953-13.641l-51.164-5.209
	C776.073-0.485,770.886,4.72,770.181,11.645z"/>
</svg>
