<?xml version="1.0" encoding="utf-8"?>
<!-- Generator: Adobe Illustrator 16.0.0, SVG Export Plug-In . SVG Version: 6.00 Build 0)  -->
<!DOCTYPE svg PUBLIC "-//W3C//DTD SVG 1.1//EN" "http://www.w3.org/Graphics/SVG/1.1/DTD/svg11.dtd">
<svg version="1.1" id="Layer_1" xmlns="http://www.w3.org/2000/svg" xmlns:xlink="http://www.w3.org/1999/xlink" x="0px" y="0px"
	 width="1989.203px" height="850.45px" viewBox="0 0 1989.203 850.45" enable-background="new 0 0 1989.203 850.45"
	 xml:space="preserve">
<path fill="none" stroke="#000000" stroke-linejoin="round" stroke-miterlimit="10" d="M16.493,602.963
	c0,0,192.01-110.039,265.567-163.988c0,0,390.569-260.039,464-294.289c0,0,66.337-44.246,199.558-5.306l116.044,33.345
	c0,0,20.495,1.96,3.577,11.53c0,0-472.334,227.732-823.151,348.925L19.063,613.844C19.063,613.844-22.061,629.625,16.493,602.963z"
	/>
<path fill="none" stroke="#000000" stroke-linejoin="round" stroke-miterlimit="10" d="M1176.803,174.979l381.551-155.661
	c0,0,61.767-24.519,109.024-18.311c0,0,66.771-2.491,145.16,50.963c0,0,149.922,97.245,168.823,113.855
	c0,0,13.568,10.777,2.484,18.333c0,0-493.621,292.958-600.646,367.004l-84.763,55.891c0,0-71.045,52.857,7.976,81.166l136.125,28.98
	c0,0,16.366,5.352-1.586,14.342l-88.646,45.824c0,0-12.026,10.547-65.621-0.189l-327.854-54.959c0,0,567.875-345.741,667.91-411.779
	c0,0,51.483-27.161,3.932-35.515L1176.803,174.979z"/>
<path fill="none" stroke="#000000" stroke-linejoin="round" stroke-miterlimit="10" d="M13.765,680.317l1079.681-487.282
	l358.346,84.282c0,0,22.908,5.133,1.649,14.774c0,0-76.104,40.14,0.146,80.058c0,0,17.604,6.425-3.521,17.854
	c0,0-761.354,441.792-786.856,459.447C663.215,849.45,34.575,703.167,13.765,680.317z"/>
</svg>
