<?xml version="1.0" encoding="utf-8"?>
<!-- Generator: Adobe Illustrator 16.0.0, SVG Export Plug-In . SVG Version: 6.00 Build 0)  -->
<!DOCTYPE svg PUBLIC "-//W3C//DTD SVG 1.1//EN" "http://www.w3.org/Graphics/SVG/1.1/DTD/svg11.dtd">
<svg version="1.1" id="Layer_1" xmlns="http://www.w3.org/2000/svg" xmlns:xlink="http://www.w3.org/1999/xlink" x="0px" y="0px"
	 width="493.408px" height="1144.248px" viewBox="0 0 493.408 1144.248" enable-background="new 0 0 493.408 1144.248"
	 xml:space="preserve">
<path fill="none" stroke="#000000" stroke-linejoin="round" stroke-miterlimit="10" d="M57.769,47.479
	c2.914-4.742,4.593-10.324,4.593-16.297C62.362,13.96,48.402,0,31.181,0C13.96,0,0,13.96,0,31.181
	c0,17.221,13.96,31.181,31.181,31.181c3.115,0,6.123-0.457,8.961-1.307c6.629-0.038,7.841,6.672,8.899,11.821
	c-2.209,99.835-14.468,676.596-11.664,1057.688c0,0,253.333,37.334,371.333-11.332c0,0,92.666-87.668,54.666-637.669c0,0-4-9,8-35
	c0.001,0.001,23.001-43.667,22.001-53.333c0,0-89.814-293.266-426.042-333.452C61.439,57.846,56.694,54.318,57.769,47.479z"/>
</svg>
