<?xml version="1.0" encoding="utf-8"?>
<!-- Generator: Adobe Illustrator 16.0.0, SVG Export Plug-In . SVG Version: 6.00 Build 0)  -->
<!DOCTYPE svg PUBLIC "-//W3C//DTD SVG 1.1//EN" "http://www.w3.org/Graphics/SVG/1.1/DTD/svg11.dtd">
<svg version="1.1" id="Layer_1" xmlns="http://www.w3.org/2000/svg" xmlns:xlink="http://www.w3.org/1999/xlink" x="0px" y="0px"
	 width="423.973px" height="658.146px" viewBox="0 0 423.973 658.146" enable-background="new 0 0 423.973 658.146"
	 xml:space="preserve">
<path d="M420.359,543.381c-1.553-1.686-3.426-3.082-5.231-4.002c-5.021-2.557-10.047-5.102-15.019-7.758
	c-13.434-7.273-20.504-11.164-21.061-11.498l-47.219-29.062c-6.146-3.782-12.029-7.979-17.802-12.315
	c-20.061-15.084-40.221-30.039-60.209-45.217c-13.614-10.341-8.551-28.594-4.518-42.965l30.441-108.464
	c10.87-38.73,22.604-77.214,33.271-116.002c12.596-45.809,35.395-128.727,38.42-137.249c0.565-1.599,0.68-3.484,1.006-5.144
	c0.572-2.914,1.066-5.84,1.607-8.759c0.741-3.998,0.295-7.946-1.668-11.536c-1.255-2.297-3.765-3.597-6.363-3.386
	c-3.857,0.316-10.982,9.114-15.474,14.659c-2.241,2.769-4.754,6.552-7.639,11.373c-26.717,44.706-77.612,126.475-81.699,133.182
	c-18.222,29.892-74.315,124.77-83.731,142.881c-24.174,46.498-50.964,91.667-72.807,139.343l-22.024,48.07
	c-11.646,25.418-25.207,55.021-33.805,76.762C20.22,588.088,9.45,609.059,2.46,631.471c-1.83,5.869-2.604,9.688-2.438,11.377
	c0.622,6.451,3.896,13.107,10.581,14.713c7.077,1.701,14.249-0.827,21.389-0.973c58.239-1.172,139.314-16.963,139.712-17.062
	c50.569-12.73,101.015-26.189,150.2-43.593c21.431-7.575,43.15-14.805,64.15-23.516c6.686-2.771,13.68-4.834,20.307-7.715
	c5.693-2.477,12.979-3.438,16.445-9.238C425.304,551.281,423.468,546.752,420.359,543.381z"/>
</svg>
