<?xml version="1.0" encoding="utf-8"?>
<!-- Generator: Adobe Illustrator 16.0.0, SVG Export Plug-In . SVG Version: 6.00 Build 0)  -->
<!DOCTYPE svg PUBLIC "-//W3C//DTD SVG 1.1//EN" "http://www.w3.org/Graphics/SVG/1.1/DTD/svg11.dtd">
<svg version="1.1" id="Layer_1" xmlns="http://www.w3.org/2000/svg" xmlns:xlink="http://www.w3.org/1999/xlink" x="0px" y="0px"
	 width="1001.516px" height="1031.496px" viewBox="0 0 1001.516 1031.496" enable-background="new 0 0 1001.516 1031.496"
	 xml:space="preserve">
<path fill="none" stroke="#000000" stroke-linejoin="round" stroke-miterlimit="10" d="M996.555,127.027l-4.747-15.163
	l-68.439-49.502l-26.453,17.605C754.793,256.927,598.64,404.482,425.55,516.55l6.687,19.219
	c94.312-9.321,192.494-10.53,294.552-3.631l5.714,17.189C380.797,563.636,136.63,705.886,0,976.083
	c28.528-2.824,39.297,12.783,32.306,46.826l357.646,8.586c19.127-1.66,25.212-4.562,27.516-20.604
	c38.601-131.291,96.796-235.418,174.595-312.383c69.239-55.768,208.162-72.477,386.181-67.272l23.272-8.619L996.555,127.027z"/>
</svg>
