<?xml version="1.0" encoding="utf-8"?>
<!-- Generator: Adobe Illustrator 16.0.0, SVG Export Plug-In . SVG Version: 6.00 Build 0)  -->
<!DOCTYPE svg PUBLIC "-//W3C//DTD SVG 1.1//EN" "http://www.w3.org/Graphics/SVG/1.1/DTD/svg11.dtd">
<svg version="1.1" id="Layer_1" xmlns="http://www.w3.org/2000/svg" xmlns:xlink="http://www.w3.org/1999/xlink" x="0px" y="0px"
	 width="1215.436px" height="758.869px" viewBox="0 0 1215.436 758.869" enable-background="new 0 0 1215.436 758.869"
	 xml:space="preserve">
<path fill="none" stroke="#000000" stroke-linejoin="round" stroke-miterlimit="10" d="M1147.771,640.869
	c-78.1-160.438-372.176-388.735-510.948-481.99l-40.133-25.161C388.192-44.712,183.619-4.202,8.082,28.709
	c-30.764-0.3,36.342,45.042,34.616,54.693c127.909,60.396,264.588,220.292,405.931,415.094c6.729,22.328,0.988,48.609-34.15,52.373
	l-281.762,1.205c-28.818,6.26-45.393,21.75-49.726,46.477c81.704,93.453,138.298,146.896,169.779,160.318
	c71.143-11.053,134.283-71.307,193.784-153.924c221.124-2.344,520.933,67.553,688.865,55.088c6.499,0.945,14.764,0.711,17.664,7.942
	c-0.007,0.269-0.01,0.536-0.01,0.807c0,17.221,13.96,31.181,31.181,31.181s31.182-13.96,31.182-31.181
	c0-17.222-13.961-31.183-31.182-31.183c-8.902,0-16.934,3.73-22.614,9.716c-5.692,2.564-10.714-2.194-13.87-6.449L1147.771,640.869z
	"/>
</svg>
