<?xml version="1.0" encoding="utf-8"?>
<!-- Generator: Adobe Illustrator 16.0.0, SVG Export Plug-In . SVG Version: 6.00 Build 0)  -->
<!DOCTYPE svg PUBLIC "-//W3C//DTD SVG 1.1//EN" "http://www.w3.org/Graphics/SVG/1.1/DTD/svg11.dtd">
<svg version="1.1" id="Layer_1" xmlns="http://www.w3.org/2000/svg" xmlns:xlink="http://www.w3.org/1999/xlink" x="0px" y="0px"
	 width="925.691px" height="971.426px" viewBox="0 0 925.691 971.426" enable-background="new 0 0 925.691 971.426"
	 xml:space="preserve">
<path fill="none" stroke="#000000" stroke-linejoin="round" stroke-miterlimit="10" d="M865.664,97.146
	c-0.539-0.134-1.124-0.187-1.492-0.25c-1.188-0.205-2.342-0.471-3.507-0.789c-2.471-0.674-4.941-1.349-7.412-2.023
	c-3.114-0.85-6.228-1.7-9.341-2.549c-3.456-0.943-6.912-1.887-10.368-2.831c-3.5-0.955-7-1.911-10.499-2.866
	c-3.244-0.886-6.487-1.771-9.729-2.656c-2.688-0.734-5.378-1.468-8.063-2.201c-1.833-0.5-3.666-1.001-5.499-1.501
	c-0.679-0.186-1.356-0.371-2.035-0.556l-47.299-12.645L701.99,53.73l-35.926-8.947l-42.723-10.126l-42.535-9.408L530.62,15.181
	L491.011,8.14l-30.604-4.833L442.24,0.702c0,0-7.662-1.532-17.812-0.069c-10.146,1.463-40.255,6.171-40.255,6.171l-20.356,3.483
	l-17.438,3.167l-34.646,6.764l-27.771,5.842l-35.668,7.996l-37.491,8.926L165.351,54.4L106.79,69.847L37.829,88.714L0,99.226
	l18.161,106.333l14.589,79.037L54.422,392.76l16.886,77.414l22.884,96.435l21.153,81.387l8.466,30.662l16.153,55.703l17.479,56.395
	l16.191,48.902l14.577,41.463l15.463,41.492l11.778,29.979l3.338,8.252l1.275,3.123l1.813,2.859l1.531,1.518l2.787,1.693
	l3.383,0.879l3.547-0.137l2.036-0.564l1.875-0.901l1.392-0.984l1.545-1.598l0.924-1.423l0.67-1.551l0.47-2.047l0.098-1.574
	l-0.18-2.143l-0.671-2.688l-2.817-11.766l-9.712-46.389l-6.037-33.81l-5.499-34.442l-5.526-38.326l-4.758-36.139l-4.214-34.474
	l-4.682-41.024l-3.922-36.521l-4.941-48.627l-3.934-40.59l-1.979-21.017c8.14,7.304,17.455,15.179,28.062,23.683
	c95.679,76.696,188.817,89.549,265.054,78.338c41.501-4.984,85.747-18.75,131.116-45.726c31.812-17.85,50.229-33.711,50.229-33.711
	l0.738-2.061c10.129-8.213,19.068-15.844,26.896-22.926l-2.152,23.77l-3.785,40.604l-4.764,48.645l-3.789,36.535l-4.533,41.043
	l-4.088,34.486l-4.627,36.153l-5.385,38.347l-5.375,34.465l-5.912,33.828l-9.543,46.424l-2.773,11.777l-0.662,2.688l-0.172,2.146
	l0.104,1.571l0.477,2.044l0.677,1.551l0.931,1.418l1.551,1.59l1.395,0.98l1.88,0.896l2.038,0.557l3.549,0.125l3.381-0.893
	l2.777-1.703l1.525-1.522l1.803-2.867l1.266-3.127l3.309-8.265l11.669-30.021l15.312-41.549l14.426-41.517L711.88,791l17.273-56.461
	l15.947-55.762l8.354-30.693l20.855-81.463l22.531-96.516l16.604-77.476l21.276-108.243c0,0,14.303-79.088,14.303-79.09
	c0.021-0.123,0.041-0.247,0.062-0.37c0.149-0.894,0.299-1.788,0.448-2.682c0.275-1.652,0.552-3.304,0.828-4.957
	c0.381-2.283,0.763-4.566,1.144-6.85c0.466-2.787,0.934-5.574,1.396-8.361c0.526-3.164,1.058-6.328,1.586-9.492
	c0.568-3.414,1.141-6.828,1.71-10.241c0.591-3.537,1.182-7.073,1.771-10.61c0.591-3.532,1.182-7.064,1.771-10.597
	c0.565-3.401,1.136-6.802,1.704-10.203c0.522-3.142,1.05-6.285,1.572-9.427c0.461-2.757,0.923-5.514,1.384-8.271
	c0.374-2.244,0.749-4.489,1.124-6.733c0.257-1.538,0.511-3.077,0.779-4.613c0.158-0.901,1.036-3.192,0.553-4.06
	C866.649,97.479,866.178,97.275,865.664,97.146z"/>
</svg>
