<?xml version="1.0" encoding="utf-8"?>
<!-- Generator: Adobe Illustrator 16.0.0, SVG Export Plug-In . SVG Version: 6.00 Build 0)  -->
<!DOCTYPE svg PUBLIC "-//W3C//DTD SVG 1.1//EN" "http://www.w3.org/Graphics/SVG/1.1/DTD/svg11.dtd">
<svg version="1.1" id="Layer_1" xmlns="http://www.w3.org/2000/svg" xmlns:xlink="http://www.w3.org/1999/xlink" x="0px" y="0px"
	 width="1658.139px" height="1185.006px" viewBox="0 0 1658.139 1185.006" enable-background="new 0 0 1658.139 1185.006"
	 xml:space="preserve">
<path fill="none" stroke="#000001" stroke-linejoin="round" stroke-miterlimit="10" d="M1027.991,414.129
	c-4.212,7.48-12.616,8.344-20.194,5.562l0.001-0.002c-7.392-3.492-16.352-6.058-27.397-7.562
	C419.508,265.728,118.197,138.56,28.721,12.411C13.448-7.867,5.51-2.167,2.596,21.306c-5.749,34.95-1.623,68.31,9.152,99.663
	l0.001-0.002c2.29,13.754,2.265,27.75,2.137,41.652c-0.129,13.951,0.134,27.906,0.035,41.858c-0.022,3.153,0.107,6.322,0,9.473
	l8.988,664.473c193.899,130.907,396.961,228.178,605.167,306.583c113.098-18.18,235.712-53.38,358.494-95.307
	c8.841-0.793,11.55,8.223,12.487,15.264l2.979,19.121c36.384,31.762,86.685,44.233,146.005,55.332
	c111.248,11.791,276.42-83.255,486.271-266.824c28.334-28.798,31.396-65.278,9.188-109.436l-224.718-418.297
	c-89.06,26.492-201.476,36.15-311.783,33.947c-7.876,0.004-16.105-2.631-20.775-9.354l0.003-0.002
	c-4.976-10.609-15.752-17.957-28.245-17.957c-14.257,0-26.279,9.568-29.995,22.634L1027.991,414.129z"/>
</svg>
