<?xml version="1.0" encoding="utf-8"?>
<!-- Generator: Adobe Illustrator 16.0.0, SVG Export Plug-In . SVG Version: 6.00 Build 0)  -->
<!DOCTYPE svg PUBLIC "-//W3C//DTD SVG 1.1//EN" "http://www.w3.org/Graphics/SVG/1.1/DTD/svg11.dtd">
<svg version="1.1" id="Layer_1" xmlns="http://www.w3.org/2000/svg" xmlns:xlink="http://www.w3.org/1999/xlink" x="0px" y="0px"
	 width="1665.023px" height="1181.203px" viewBox="0 0 1665.023 1181.203" enable-background="new 0 0 1665.023 1181.203"
	 xml:space="preserve">
<path fill="none" stroke="#000001" stroke-linejoin="round" stroke-miterlimit="10" d="M675.331,1084.989
	c-9.462-1.661-16.348,4.144-18.272,13.184l-3.131,19.097c-36.636,31.468-87.037,43.534-146.442,54.155
	c-111.341,10.898-275.741-85.477-484.107-270.729c-28.099-29.029-30.868-65.531-8.306-109.512l228.083-416.471
	c88.839,27.209,201.173,37.771,311.5,36.457c8.962,0,18.226-0.034,22.785-9.18c3.467-13.44,15.671-23.371,30.194-23.371
	c16.092,0,29.338,12.192,31.005,27.842h-0.002c0,4.079,5.091,7.38,11.383,7.38l-0.002-0.002c8.181-4.565,18.461-7.816,31.733-9.517
	c562.054-141.877,864.379-266.614,954.867-392.038c15.438-20.155,23.328-14.391,26.053,9.105c5.399,34.557,1.182,67.485-9.543,98.41
	c-3.009,15.337-3.731,30.344-3.848,45.919c-0.098,13.419,0.028,26.854,0.097,40.274c0.015,3.027-0.241,6.109-0.034,9.131
	l-14.339,664.377c-194.945,129.344-398.784,224.973-607.616,301.701c-111.209-18.797-231.513-54.168-352.065-96.217
	L675.331,1084.989z"/>
</svg>
