<?xml version="1.0" encoding="utf-8"?>
<!-- Generator: Adobe Illustrator 16.0.0, SVG Export Plug-In . SVG Version: 6.00 Build 0)  -->
<!DOCTYPE svg PUBLIC "-//W3C//DTD SVG 1.1//EN" "http://www.w3.org/Graphics/SVG/1.1/DTD/svg11.dtd">
<svg version="1.1" id="Layer_1" xmlns="http://www.w3.org/2000/svg" xmlns:xlink="http://www.w3.org/1999/xlink" x="0px" y="0px"
	 width="1168.77px" height="758.578px" viewBox="0 0 1168.77 758.578" enable-background="new 0 0 1168.77 758.578"
	 xml:space="preserve">
<path d="M1160.779,33.926C986-2.806,782.361-47.767,570.022,126.074l-40.672,24.28C383.459,243.836,67.66,478.682,0,638.121
	c162.708,23.838,479.755-45.115,709.842-37.656c57.688,83.896,119.497,145.512,190.38,158.113
	c31.771-12.738,89.519-64.93,173.235-156.576c-3.793-24.816-20.021-40.664-48.698-47.549L743.09,547.1
	c-35.048-4.522-40.213-30.93-33.002-53.104c145.561-191.673,285.691-348.552,414.89-406.142
	C1123.459,78.166,1191.541,34.297,1160.779,33.926z M59.385,607.689c-3.72,0-6.731-3.021-6.731-6.732
	c0-3.719,3.015-6.732,6.731-6.732s6.731,3.019,6.731,6.732S63.104,607.689,59.385,607.689z M115.954,607.689
	c-3.72,0-6.731-3.021-6.731-6.732c0-3.719,3.015-6.732,6.731-6.732c3.718,0,6.73,3.019,6.73,6.732
	C122.688,604.674,119.674,607.689,115.954,607.689z M115.954,555.689c-3.72,0-6.731-3.021-6.731-6.732
	c0-3.719,3.015-6.732,6.731-6.732c3.718,0,6.73,3.019,6.73,6.732C122.688,552.674,119.674,555.689,115.954,555.689z
	 M172.525,607.689c-3.72,0-6.731-3.021-6.731-6.732c0-3.719,3.015-6.732,6.731-6.732c3.718,0,6.731,3.019,6.731,6.732
	C179.258,604.674,176.243,607.689,172.525,607.689z M172.525,555.689c-3.72,0-6.731-3.021-6.731-6.732
	c0-3.719,3.015-6.732,6.731-6.732c3.718,0,6.731,3.019,6.731,6.732C179.258,552.674,176.243,555.689,172.525,555.689z
	 M172.525,503.689c-3.72,0-6.731-3.021-6.731-6.732c0-3.719,3.015-6.732,6.731-6.732c3.718,0,6.731,3.019,6.731,6.732
	C179.258,500.674,176.243,503.689,172.525,503.689z M229.097,607.689c-3.72,0-6.73-3.021-6.73-6.732c0-3.719,3.015-6.732,6.73-6.732
	s6.731,3.019,6.731,6.732S232.814,607.689,229.097,607.689z M229.097,555.689c-3.72,0-6.73-3.021-6.73-6.732
	c0-3.719,3.015-6.732,6.73-6.732s6.731,3.019,6.731,6.732S232.814,555.689,229.097,555.689z M229.097,503.689
	c-3.72,0-6.73-3.021-6.73-6.732c0-3.719,3.015-6.732,6.73-6.732s6.731,3.019,6.731,6.732S232.814,503.689,229.097,503.689z
	 M229.097,451.689c-3.72,0-6.73-3.021-6.73-6.732c0-3.719,3.015-6.732,6.73-6.732s6.731,3.019,6.731,6.732
	S232.814,451.689,229.097,451.689z M285.665,607.689c-3.72,0-6.73-3.021-6.73-6.732c0-3.719,3.015-6.732,6.73-6.732
	s6.731,3.019,6.731,6.732S289.384,607.689,285.665,607.689z M285.665,555.689c-3.72,0-6.73-3.021-6.73-6.732
	c0-3.719,3.015-6.732,6.73-6.732s6.731,3.019,6.731,6.732S289.384,555.689,285.665,555.689z M285.665,503.689
	c-3.72,0-6.73-3.021-6.73-6.732c0-3.719,3.015-6.732,6.73-6.732s6.731,3.019,6.731,6.732S289.384,503.689,285.665,503.689z
	 M285.665,451.689c-3.72,0-6.73-3.021-6.73-6.732c0-3.719,3.015-6.732,6.73-6.732s6.731,3.019,6.731,6.732
	S289.384,451.689,285.665,451.689z M285.665,399.689c-3.72,0-6.73-3.021-6.73-6.732c0-3.719,3.015-6.732,6.73-6.732
	s6.731,3.019,6.731,6.732S289.384,399.689,285.665,399.689z M342.237,607.689c-3.721,0-6.731-3.021-6.731-6.732
	c0-3.719,3.016-6.732,6.731-6.732s6.729,3.019,6.729,6.732C348.968,604.674,345.953,607.689,342.237,607.689z M342.237,555.689
	c-3.721,0-6.731-3.021-6.731-6.732c0-3.719,3.016-6.732,6.731-6.732s6.729,3.019,6.729,6.732
	C348.968,552.674,345.953,555.689,342.237,555.689z M342.237,503.689c-3.721,0-6.731-3.021-6.731-6.732
	c0-3.719,3.016-6.732,6.731-6.732s6.729,3.019,6.729,6.732C348.968,500.674,345.953,503.689,342.237,503.689z M342.237,451.689
	c-3.721,0-6.731-3.021-6.731-6.732c0-3.719,3.016-6.732,6.731-6.732s6.729,3.019,6.729,6.732
	C348.968,448.674,345.953,451.689,342.237,451.689z M342.237,399.689c-3.721,0-6.731-3.021-6.731-6.732
	c0-3.719,3.016-6.732,6.731-6.732s6.729,3.019,6.729,6.732C348.968,396.674,345.953,399.689,342.237,399.689z M342.237,347.689
	c-3.721,0-6.731-3.014-6.731-6.732s3.016-6.732,6.731-6.732s6.729,3.014,6.729,6.732S345.953,347.689,342.237,347.689z
	 M398.808,555.689c-3.721,0-6.73-3.021-6.73-6.732c0-3.719,3.015-6.732,6.73-6.732c3.72,0,6.729,3.019,6.729,6.732
	S402.526,555.689,398.808,555.689z M398.808,503.689c-3.721,0-6.73-3.021-6.73-6.732c0-3.719,3.015-6.732,6.73-6.732
	c3.72,0,6.729,3.019,6.729,6.732S402.526,503.689,398.808,503.689z M398.808,451.689c-3.721,0-6.73-3.021-6.73-6.732
	c0-3.719,3.015-6.732,6.73-6.732c3.72,0,6.729,3.019,6.729,6.732S402.526,451.689,398.808,451.689z M398.808,399.689
	c-3.721,0-6.73-3.021-6.73-6.732c0-3.719,3.015-6.732,6.73-6.732c3.72,0,6.729,3.019,6.729,6.732S402.526,399.689,398.808,399.689z
	 M398.808,347.689c-3.721,0-6.73-3.014-6.73-6.732s3.015-6.732,6.73-6.732c3.72,0,6.729,3.014,6.729,6.732
	S402.526,347.689,398.808,347.689z M398.808,295.689c-3.721,0-6.73-3.014-6.73-6.732s3.015-6.732,6.73-6.732
	c3.72,0,6.729,3.014,6.729,6.732S402.526,295.689,398.808,295.689z M455.376,555.689c-3.72,0-6.73-3.021-6.73-6.732
	c0-3.719,3.016-6.732,6.73-6.732c3.714,0,6.731,3.019,6.731,6.732S459.095,555.689,455.376,555.689z M455.376,503.689
	c-3.72,0-6.73-3.021-6.73-6.732c0-3.719,3.016-6.732,6.73-6.732c3.714,0,6.731,3.019,6.731,6.732S459.095,503.689,455.376,503.689z
	 M455.376,451.689c-3.72,0-6.73-3.021-6.73-6.732c0-3.719,3.016-6.732,6.73-6.732c3.714,0,6.731,3.019,6.731,6.732
	S459.095,451.689,455.376,451.689z M455.376,399.689c-3.72,0-6.73-3.021-6.73-6.732c0-3.719,3.016-6.732,6.73-6.732
	c3.714,0,6.731,3.019,6.731,6.732S459.095,399.689,455.376,399.689z M455.376,347.689c-3.72,0-6.73-3.014-6.73-6.732
	s3.016-6.732,6.73-6.732c3.714,0,6.731,3.014,6.731,6.732S459.095,347.689,455.376,347.689z M455.376,295.689
	c-3.72,0-6.73-3.014-6.73-6.732s3.016-6.732,6.73-6.732c3.714,0,6.731,3.014,6.731,6.732S459.095,295.689,455.376,295.689z
	 M455.376,243.689c-3.72,0-6.73-3.014-6.73-6.732s3.016-6.732,6.73-6.732c3.714,0,6.731,3.014,6.731,6.732
	S459.095,243.689,455.376,243.689z M511.948,555.689c-3.721,0-6.731-3.021-6.731-6.732c0-3.719,3.018-6.732,6.731-6.732
	s6.729,3.019,6.729,6.732C518.679,552.674,515.664,555.689,511.948,555.689z M511.948,503.689c-3.721,0-6.731-3.021-6.731-6.732
	c0-3.719,3.018-6.732,6.731-6.732s6.729,3.019,6.729,6.732C518.679,500.674,515.664,503.689,511.948,503.689z M511.948,451.689
	c-3.721,0-6.731-3.021-6.731-6.732c0-3.719,3.018-6.732,6.731-6.732s6.729,3.019,6.729,6.732
	C518.679,448.674,515.664,451.689,511.948,451.689z M511.948,399.689c-3.721,0-6.731-3.021-6.731-6.732
	c0-3.719,3.018-6.732,6.731-6.732s6.729,3.019,6.729,6.732C518.679,396.674,515.664,399.689,511.948,399.689z M511.948,347.689
	c-3.721,0-6.731-3.014-6.731-6.732s3.018-6.732,6.731-6.732s6.729,3.014,6.729,6.732S515.664,347.689,511.948,347.689z
	 M511.948,295.689c-3.721,0-6.731-3.014-6.731-6.732s3.018-6.732,6.731-6.732s6.729,3.014,6.729,6.732
	S515.664,295.689,511.948,295.689z M511.948,243.689c-3.721,0-6.731-3.014-6.731-6.732s3.018-6.732,6.731-6.732
	s6.729,3.014,6.729,6.732S515.664,243.689,511.948,243.689z M511.948,191.689c-3.721,0-6.731-3.014-6.731-6.732
	s3.018-6.732,6.731-6.732s6.729,3.014,6.729,6.732S515.664,191.689,511.948,191.689z M1021.079,594.225
	c3.72,0,6.732,3.019,6.732,6.732s-3.018,6.732-6.732,6.732c-3.714,0-6.729-3.021-6.729-6.732
	C1014.347,597.238,1017.363,594.225,1021.079,594.225z M964.509,594.225c3.721,0,6.731,3.019,6.731,6.732s-3.016,6.732-6.731,6.732
	s-6.729-3.021-6.729-6.732C957.779,597.238,960.791,594.225,964.509,594.225z M964.509,646.225c3.721,0,6.731,3.019,6.731,6.732
	s-3.016,6.732-6.731,6.732s-6.729-3.021-6.729-6.732C957.779,649.238,960.791,646.225,964.509,646.225z M907.941,594.225
	c3.719,0,6.729,3.019,6.729,6.732s-3.015,6.732-6.729,6.732c-3.722,0-6.731-3.021-6.731-6.732
	C901.206,597.238,904.22,594.225,907.941,594.225z M907.941,646.225c3.719,0,6.729,3.019,6.729,6.732s-3.015,6.732-6.729,6.732
	c-3.722,0-6.731-3.021-6.731-6.732C901.206,649.238,904.22,646.225,907.941,646.225z M907.941,698.225
	c3.719,0,6.729,3.019,6.729,6.732s-3.015,6.732-6.729,6.732c-3.722,0-6.731-3.021-6.731-6.732
	C901.206,701.238,904.22,698.225,907.941,698.225z M851.368,594.225c3.72,0,6.73,3.019,6.73,6.732s-3.017,6.732-6.73,6.732
	s-6.73-3.021-6.73-6.732C844.636,597.238,847.652,594.225,851.368,594.225z M851.368,646.225c3.72,0,6.73,3.019,6.73,6.732
	s-3.017,6.732-6.73,6.732s-6.73-3.021-6.73-6.732C844.636,649.238,847.652,646.225,851.368,646.225z M851.368,698.225
	c3.72,0,6.73,3.019,6.73,6.732s-3.017,6.732-6.73,6.732s-6.73-3.021-6.73-6.732C844.636,701.238,847.652,698.225,851.368,698.225z
	 M794.798,594.225c3.721,0,6.731,3.019,6.731,6.732s-3.016,6.732-6.731,6.732c-3.717,0-6.729-3.021-6.729-6.732
	C788.068,597.238,791.079,594.225,794.798,594.225z M794.798,646.225c3.721,0,6.731,3.019,6.731,6.732s-3.016,6.732-6.731,6.732
	c-3.717,0-6.729-3.021-6.729-6.732C788.068,649.238,791.079,646.225,794.798,646.225z M738.231,594.225
	c3.72,0,6.729,3.019,6.729,6.732s-3.015,6.732-6.729,6.732c-3.721,0-6.73-3.021-6.73-6.732
	C731.495,597.238,734.509,594.225,738.231,594.225z M568.519,555.689c-3.721,0-6.73-3.021-6.73-6.732
	c0-3.719,3.015-6.732,6.73-6.732c3.72,0,6.729,3.019,6.729,6.732S572.237,555.689,568.519,555.689z M568.519,503.689
	c-3.721,0-6.73-3.021-6.73-6.732c0-3.719,3.015-6.732,6.73-6.732c3.72,0,6.729,3.019,6.729,6.732S572.237,503.689,568.519,503.689z
	 M568.519,451.689c-3.721,0-6.73-3.021-6.73-6.732c0-3.719,3.015-6.732,6.73-6.732c3.72,0,6.729,3.019,6.729,6.732
	S572.237,451.689,568.519,451.689z M568.519,399.689c-3.721,0-6.73-3.021-6.73-6.732c0-3.719,3.015-6.732,6.73-6.732
	c3.72,0,6.729,3.019,6.729,6.732S572.237,399.689,568.519,399.689z M568.519,347.689c-3.721,0-6.73-3.014-6.73-6.732
	s3.015-6.732,6.73-6.732c3.72,0,6.729,3.014,6.729,6.732S572.237,347.689,568.519,347.689z M568.519,295.689
	c-3.721,0-6.73-3.014-6.73-6.732s3.015-6.732,6.73-6.732c3.72,0,6.729,3.014,6.729,6.732S572.237,295.689,568.519,295.689z
	 M568.519,243.689c-3.721,0-6.73-3.014-6.73-6.732s3.015-6.732,6.73-6.732c3.72,0,6.729,3.014,6.729,6.732
	S572.237,243.689,568.519,243.689z M568.519,191.689c-3.721,0-6.73-3.014-6.73-6.732s3.015-6.732,6.73-6.732
	c3.72,0,6.729,3.014,6.729,6.732S572.237,191.689,568.519,191.689z M625.087,555.689c-3.72,0-6.729-3.021-6.729-6.732
	c0-3.719,3.015-6.732,6.729-6.732c3.717,0,6.731,3.019,6.731,6.732C631.822,552.674,628.808,555.689,625.087,555.689z
	 M625.087,503.689c-3.72,0-6.729-3.021-6.729-6.732c0-3.719,3.015-6.732,6.729-6.732c3.717,0,6.731,3.019,6.731,6.732
	C631.822,500.674,628.808,503.689,625.087,503.689z M625.087,451.689c-3.72,0-6.729-3.021-6.729-6.732
	c0-3.719,3.015-6.732,6.729-6.732c3.717,0,6.731,3.019,6.731,6.732C631.822,448.674,628.808,451.689,625.087,451.689z
	 M625.087,399.689c-3.72,0-6.729-3.021-6.729-6.732c0-3.719,3.015-6.732,6.729-6.732c3.717,0,6.731,3.019,6.731,6.732
	C631.822,396.674,628.808,399.689,625.087,399.689z M625.087,347.689c-3.72,0-6.729-3.014-6.729-6.732s3.015-6.732,6.729-6.732
	c3.717,0,6.731,3.014,6.731,6.732S628.808,347.689,625.087,347.689z M625.087,295.689c-3.72,0-6.729-3.014-6.729-6.732
	s3.015-6.732,6.729-6.732c3.717,0,6.731,3.014,6.731,6.732S628.808,295.689,625.087,295.689z M625.087,243.689
	c-3.72,0-6.729-3.014-6.729-6.732s3.015-6.732,6.729-6.732c3.717,0,6.731,3.014,6.731,6.732S628.808,243.689,625.087,243.689z
	 M625.087,191.689c-3.72,0-6.729-3.014-6.729-6.732s3.015-6.732,6.729-6.732c3.717,0,6.731,3.014,6.731,6.732
	S628.808,191.689,625.087,191.689z M625.087,139.689c-3.72,0-6.729-3.014-6.729-6.732s3.015-6.732,6.729-6.732
	c3.717,0,6.731,3.014,6.731,6.732S628.808,139.689,625.087,139.689z M681.658,555.689c-3.719,0-6.731-3.021-6.731-6.732
	c0-3.719,3.018-6.732,6.731-6.732s6.73,3.019,6.73,6.732C688.392,552.674,685.375,555.689,681.658,555.689z M681.658,503.689
	c-3.719,0-6.731-3.021-6.731-6.732c0-3.719,3.018-6.732,6.731-6.732s6.73,3.019,6.73,6.732
	C688.392,500.674,685.375,503.689,681.658,503.689z M681.658,451.689c-3.719,0-6.731-3.021-6.731-6.732
	c0-3.719,3.018-6.732,6.731-6.732s6.73,3.019,6.73,6.732C688.392,448.674,685.375,451.689,681.658,451.689z M681.658,399.689
	c-3.719,0-6.731-3.021-6.731-6.732c0-3.719,3.018-6.732,6.731-6.732s6.73,3.019,6.73,6.732
	C688.392,396.674,685.375,399.689,681.658,399.689z M681.658,347.689c-3.719,0-6.731-3.014-6.731-6.732s3.018-6.732,6.731-6.732
	s6.73,3.014,6.73,6.732S685.375,347.689,681.658,347.689z M681.658,295.689c-3.719,0-6.731-3.014-6.731-6.732
	s3.018-6.732,6.731-6.732s6.73,3.014,6.73,6.732S685.375,295.689,681.658,295.689z M681.658,243.689
	c-3.719,0-6.731-3.014-6.731-6.732s3.018-6.732,6.731-6.732s6.73,3.014,6.73,6.732S685.375,243.689,681.658,243.689z
	 M681.658,191.689c-3.719,0-6.731-3.014-6.731-6.732s3.018-6.732,6.731-6.732s6.73,3.014,6.73,6.732
	S685.375,191.689,681.658,191.689z M681.658,139.689c-3.719,0-6.731-3.014-6.731-6.732s3.018-6.732,6.731-6.732
	s6.73,3.014,6.73,6.732S685.375,139.689,681.658,139.689z M681.658,87.689c-3.719,0-6.731-3.014-6.731-6.732
	s3.018-6.732,6.731-6.732s6.73,3.014,6.73,6.732S685.375,87.689,681.658,87.689z M738.231,399.689c-3.722,0-6.73-3.021-6.73-6.732
	c0-3.719,3.014-6.732,6.73-6.732c3.719,0,6.729,3.019,6.729,6.732S741.948,399.689,738.231,399.689z M738.231,347.689
	c-3.722,0-6.73-3.014-6.73-6.732s3.014-6.732,6.73-6.732c3.719,0,6.729,3.014,6.729,6.732S741.948,347.689,738.231,347.689z
	 M738.231,295.689c-3.722,0-6.73-3.014-6.73-6.732s3.014-6.732,6.73-6.732c3.719,0,6.729,3.014,6.729,6.732
	S741.948,295.689,738.231,295.689z M738.231,243.689c-3.722,0-6.73-3.014-6.73-6.732s3.014-6.732,6.73-6.732
	c3.719,0,6.729,3.014,6.729,6.732S741.948,243.689,738.231,243.689z M738.231,191.689c-3.722,0-6.73-3.014-6.73-6.732
	s3.014-6.732,6.73-6.732c3.719,0,6.729,3.014,6.729,6.732S741.948,191.689,738.231,191.689z M738.231,139.689
	c-3.722,0-6.73-3.014-6.73-6.732s3.014-6.732,6.73-6.732c3.719,0,6.729,3.014,6.729,6.732S741.948,139.689,738.231,139.689z
	 M738.231,87.689c-3.722,0-6.73-3.014-6.73-6.732s3.014-6.732,6.73-6.732c3.719,0,6.729,3.014,6.729,6.732
	S741.948,87.689,738.231,87.689z M794.798,347.689c-3.72,0-6.729-3.014-6.729-6.732s3.014-6.732,6.729-6.732
	c3.718,0,6.731,3.014,6.731,6.732S798.519,347.689,794.798,347.689z M794.798,295.689c-3.72,0-6.729-3.014-6.729-6.732
	s3.014-6.732,6.729-6.732c3.718,0,6.731,3.014,6.731,6.732S798.519,295.689,794.798,295.689z M794.798,243.689
	c-3.72,0-6.729-3.014-6.729-6.732s3.014-6.732,6.729-6.732c3.718,0,6.731,3.014,6.731,6.732S798.519,243.689,794.798,243.689z
	 M794.798,191.689c-3.72,0-6.729-3.014-6.729-6.732s3.014-6.732,6.729-6.732c3.718,0,6.731,3.014,6.731,6.732
	S798.519,191.689,794.798,191.689z M794.798,139.689c-3.72,0-6.729-3.014-6.729-6.732s3.014-6.732,6.729-6.732
	c3.718,0,6.731,3.014,6.731,6.732S798.519,139.689,794.798,139.689z M794.798,87.689c-3.72,0-6.729-3.014-6.729-6.732
	s3.014-6.732,6.729-6.732c3.718,0,6.731,3.014,6.731,6.732S798.519,87.689,794.798,87.689z M794.798,35.689
	c-3.72,0-6.729-3.014-6.729-6.732s3.014-6.732,6.729-6.732c3.718,0,6.731,3.014,6.731,6.732S798.519,35.689,794.798,35.689z
	 M851.368,295.689c-3.719,0-6.73-3.014-6.73-6.732s3.017-6.732,6.73-6.732s6.73,3.014,6.73,6.732S855.087,295.689,851.368,295.689z
	 M851.368,243.689c-3.719,0-6.73-3.014-6.73-6.732s3.017-6.732,6.73-6.732s6.73,3.014,6.73,6.732S855.087,243.689,851.368,243.689z
	 M851.368,191.689c-3.719,0-6.73-3.014-6.73-6.732s3.017-6.732,6.73-6.732s6.73,3.014,6.73,6.732S855.087,191.689,851.368,191.689z
	 M851.368,139.689c-3.719,0-6.73-3.014-6.73-6.732s3.017-6.732,6.73-6.732s6.73,3.014,6.73,6.732S855.087,139.689,851.368,139.689z
	 M851.368,87.689c-3.719,0-6.73-3.014-6.73-6.732s3.017-6.732,6.73-6.732s6.73,3.014,6.73,6.732S855.087,87.689,851.368,87.689z
	 M851.368,35.689c-3.719,0-6.73-3.014-6.73-6.732s3.017-6.732,6.73-6.732s6.73,3.014,6.73,6.732S855.087,35.689,851.368,35.689z
	 M907.941,191.689c-3.723,0-6.731-3.014-6.731-6.732s3.014-6.732,6.731-6.732s6.729,3.014,6.729,6.732
	S911.658,191.689,907.941,191.689z M907.941,139.689c-3.723,0-6.731-3.014-6.731-6.732s3.014-6.732,6.731-6.732
	s6.729,3.014,6.729,6.732S911.658,139.689,907.941,139.689z M907.941,87.689c-3.723,0-6.731-3.014-6.731-6.732
	s3.014-6.732,6.731-6.732s6.729,3.014,6.729,6.732S911.658,87.689,907.941,87.689z M907.941,35.689
	c-3.723,0-6.731-3.014-6.731-6.732s3.014-6.732,6.731-6.732s6.729,3.014,6.729,6.732S911.658,35.689,907.941,35.689z
	 M964.509,139.689c-3.72,0-6.729-3.014-6.729-6.732s3.014-6.732,6.729-6.732c3.718,0,6.731,3.014,6.731,6.732
	S968.231,139.689,964.509,139.689z M964.509,87.689c-3.72,0-6.729-3.014-6.729-6.732s3.014-6.732,6.729-6.732
	c3.718,0,6.731,3.014,6.731,6.732S968.231,87.689,964.509,87.689z M964.509,35.689c-3.72,0-6.729-3.014-6.729-6.732
	s3.014-6.732,6.729-6.732c3.718,0,6.731,3.014,6.731,6.732S968.231,35.689,964.509,35.689z M1021.079,87.689
	c-3.719,0-6.729-3.014-6.729-6.732s3.016-6.732,6.729-6.732s6.732,3.014,6.732,6.732S1024.798,87.689,1021.079,87.689z
	 M1021.079,35.689c-3.719,0-6.729-3.014-6.729-6.732s3.016-6.732,6.729-6.732s6.732,3.014,6.732,6.732
	S1024.798,35.689,1021.079,35.689z"/>
</svg>
