<?xml version="1.0" encoding="utf-8"?>
<!-- Generator: Adobe Illustrator 16.0.0, SVG Export Plug-In . SVG Version: 6.00 Build 0)  -->
<!DOCTYPE svg PUBLIC "-//W3C//DTD SVG 1.1//EN" "http://www.w3.org/Graphics/SVG/1.1/DTD/svg11.dtd">
<svg version="1.1" id="Layer_1" xmlns="http://www.w3.org/2000/svg" xmlns:xlink="http://www.w3.org/1999/xlink" x="0px" y="0px"
	 width="1227.797px" height="758.578px" viewBox="0 0 1227.797 758.578" enable-background="new 0 0 1227.797 758.578"
	 xml:space="preserve">
<path fill="none" stroke="#000000" stroke-linejoin="round" stroke-miterlimit="10" d="M118.413,607.689
	c-3.719,0-6.732-3.021-6.732-6.732c0-3.719,3.014-6.732,6.732-6.732c3.718,0,6.732,3.019,6.732,6.732
	S122.132,607.689,118.413,607.689z M174.983,607.689c-3.719,0-6.732-3.021-6.732-6.732c0-3.719,3.014-6.732,6.732-6.732
	c3.718,0,6.732,3.019,6.732,6.732C181.716,604.674,178.702,607.689,174.983,607.689z M174.983,555.689
	c-3.719,0-6.732-3.021-6.732-6.732c0-3.719,3.014-6.732,6.732-6.732c3.718,0,6.732,3.019,6.732,6.732
	C181.716,552.674,178.702,555.689,174.983,555.689z M231.553,607.689c-3.719,0-6.732-3.021-6.732-6.732
	c0-3.719,3.014-6.732,6.732-6.732c3.718,0,6.732,3.019,6.732,6.732C238.286,604.674,235.272,607.689,231.553,607.689z
	 M231.553,555.689c-3.719,0-6.732-3.021-6.732-6.732c0-3.719,3.014-6.732,6.732-6.732c3.718,0,6.732,3.019,6.732,6.732
	C238.286,552.674,235.272,555.689,231.553,555.689z M231.553,503.689c-3.719,0-6.732-3.021-6.732-6.732
	c0-3.719,3.014-6.732,6.732-6.732c3.718,0,6.732,3.019,6.732,6.732C238.286,500.674,235.272,503.689,231.553,503.689z
	 M288.125,607.689c-3.719,0-6.732-3.021-6.732-6.732c0-3.719,3.014-6.732,6.732-6.732s6.732,3.019,6.732,6.732
	S291.842,607.689,288.125,607.689z M288.125,555.689c-3.719,0-6.732-3.021-6.732-6.732c0-3.719,3.014-6.732,6.732-6.732
	s6.732,3.019,6.732,6.732S291.842,555.689,288.125,555.689z M288.125,503.689c-3.719,0-6.732-3.021-6.732-6.732
	c0-3.719,3.014-6.732,6.732-6.732s6.732,3.019,6.732,6.732S291.842,503.689,288.125,503.689z M288.125,451.689
	c-3.719,0-6.732-3.021-6.732-6.732c0-3.719,3.014-6.732,6.732-6.732s6.732,3.019,6.732,6.732S291.842,451.689,288.125,451.689z
	 M344.694,607.689c-3.722,0-6.732-3.021-6.732-6.732c0-3.719,3.014-6.732,6.732-6.732c3.718,0,6.729,3.019,6.729,6.732
	S348.413,607.689,344.694,607.689z M344.694,555.689c-3.722,0-6.732-3.021-6.732-6.732c0-3.719,3.014-6.732,6.732-6.732
	c3.718,0,6.729,3.019,6.729,6.732S348.413,555.689,344.694,555.689z M344.694,503.689c-3.722,0-6.732-3.021-6.732-6.732
	c0-3.719,3.014-6.732,6.732-6.732c3.718,0,6.729,3.019,6.729,6.732S348.413,503.689,344.694,503.689z M344.694,451.689
	c-3.722,0-6.732-3.021-6.732-6.732c0-3.719,3.014-6.732,6.732-6.732c3.718,0,6.729,3.019,6.729,6.732
	S348.413,451.689,344.694,451.689z M344.694,399.689c-3.722,0-6.732-3.021-6.732-6.732c0-3.719,3.014-6.732,6.732-6.732
	c3.718,0,6.729,3.019,6.729,6.732S348.413,399.689,344.694,399.689z M401.265,607.689c-3.721,0-6.729-3.021-6.729-6.732
	c0-3.719,3.014-6.732,6.729-6.732c3.721,0,6.73,3.019,6.73,6.732C407.997,604.674,404.983,607.689,401.265,607.689z
	 M401.265,555.689c-3.721,0-6.729-3.021-6.729-6.732c0-3.719,3.014-6.732,6.729-6.732c3.721,0,6.73,3.019,6.73,6.732
	C407.997,552.674,404.983,555.689,401.265,555.689z M401.265,503.689c-3.721,0-6.729-3.021-6.729-6.732
	c0-3.719,3.014-6.732,6.729-6.732c3.721,0,6.73,3.019,6.73,6.732C407.997,500.674,404.983,503.689,401.265,503.689z
	 M401.265,451.689c-3.721,0-6.729-3.021-6.729-6.732c0-3.719,3.014-6.732,6.729-6.732c3.721,0,6.73,3.019,6.73,6.732
	C407.997,448.674,404.983,451.689,401.265,451.689z M401.265,399.689c-3.721,0-6.729-3.021-6.729-6.732
	c0-3.719,3.014-6.732,6.729-6.732c3.721,0,6.73,3.019,6.73,6.732C407.997,396.674,404.983,399.689,401.265,399.689z
	 M401.265,347.689c-3.721,0-6.729-3.014-6.729-6.732s3.014-6.732,6.729-6.732c3.721,0,6.73,3.014,6.73,6.732
	S404.983,347.689,401.265,347.689z M457.835,555.689c-3.719,0-6.729-3.021-6.729-6.732c0-3.719,3.015-6.732,6.729-6.732
	c3.72,0,6.732,3.019,6.732,6.732S461.554,555.689,457.835,555.689z M457.835,503.689c-3.719,0-6.729-3.021-6.729-6.732
	c0-3.719,3.015-6.732,6.729-6.732c3.72,0,6.732,3.019,6.732,6.732S461.554,503.689,457.835,503.689z M457.835,451.689
	c-3.719,0-6.729-3.021-6.729-6.732c0-3.719,3.015-6.732,6.729-6.732c3.72,0,6.732,3.019,6.732,6.732
	S461.554,451.689,457.835,451.689z M457.835,399.689c-3.719,0-6.729-3.021-6.729-6.732c0-3.719,3.015-6.732,6.729-6.732
	c3.72,0,6.732,3.019,6.732,6.732S461.554,399.689,457.835,399.689z M457.835,347.689c-3.719,0-6.729-3.014-6.729-6.732
	s3.015-6.732,6.729-6.732c3.72,0,6.732,3.014,6.732,6.732S461.554,347.689,457.835,347.689z M457.835,295.689
	c-3.719,0-6.729-3.014-6.729-6.732s3.015-6.732,6.729-6.732c3.72,0,6.732,3.014,6.732,6.732S461.554,295.689,457.835,295.689z
	 M514.405,555.689c-3.722,0-6.732-3.021-6.732-6.732c0-3.719,3.019-6.732,6.732-6.732s6.729,3.019,6.729,6.732
	S518.124,555.689,514.405,555.689z M514.405,503.689c-3.722,0-6.732-3.021-6.732-6.732c0-3.719,3.019-6.732,6.732-6.732
	s6.729,3.019,6.729,6.732S518.124,503.689,514.405,503.689z M514.405,451.689c-3.722,0-6.732-3.021-6.732-6.732
	c0-3.719,3.019-6.732,6.732-6.732s6.729,3.019,6.729,6.732S518.124,451.689,514.405,451.689z M514.405,399.689
	c-3.722,0-6.732-3.021-6.732-6.732c0-3.719,3.019-6.732,6.732-6.732s6.729,3.019,6.729,6.732S518.124,399.689,514.405,399.689z
	 M514.405,347.689c-3.722,0-6.732-3.014-6.732-6.732s3.019-6.732,6.732-6.732s6.729,3.014,6.729,6.732
	S518.124,347.689,514.405,347.689z M514.405,295.689c-3.722,0-6.732-3.014-6.732-6.732s3.019-6.732,6.732-6.732
	s6.729,3.014,6.729,6.732S518.124,295.689,514.405,295.689z M514.405,243.689c-3.722,0-6.732-3.014-6.732-6.732
	s3.019-6.732,6.732-6.732s6.729,3.014,6.729,6.732S518.124,243.689,514.405,243.689z M570.976,555.689
	c-3.721,0-6.729-3.021-6.729-6.732c0-3.719,3.016-6.732,6.729-6.732c3.719,0,6.73,3.019,6.73,6.732
	C577.708,552.674,574.694,555.689,570.976,555.689z M570.976,503.689c-3.721,0-6.729-3.021-6.729-6.732
	c0-3.719,3.016-6.732,6.729-6.732c3.719,0,6.73,3.019,6.73,6.732C577.708,500.674,574.694,503.689,570.976,503.689z
	 M570.976,451.689c-3.721,0-6.729-3.021-6.729-6.732c0-3.719,3.016-6.732,6.729-6.732c3.719,0,6.73,3.019,6.73,6.732
	C577.708,448.674,574.694,451.689,570.976,451.689z M570.976,399.689c-3.721,0-6.729-3.021-6.729-6.732
	c0-3.719,3.016-6.732,6.729-6.732c3.719,0,6.73,3.019,6.73,6.732C577.708,396.674,574.694,399.689,570.976,399.689z
	 M570.976,347.689c-3.721,0-6.729-3.014-6.729-6.732s3.016-6.732,6.729-6.732c3.719,0,6.73,3.014,6.73,6.732
	S574.694,347.689,570.976,347.689z M570.976,295.689c-3.721,0-6.729-3.014-6.729-6.732s3.016-6.732,6.729-6.732
	c3.719,0,6.73,3.014,6.73,6.732S574.694,295.689,570.976,295.689z M570.976,243.689c-3.721,0-6.729-3.014-6.729-6.732
	s3.016-6.732,6.729-6.732c3.719,0,6.73,3.014,6.73,6.732S574.694,243.689,570.976,243.689z M570.976,191.689
	c-3.721,0-6.729-3.014-6.729-6.732s3.016-6.732,6.729-6.732c3.719,0,6.73,3.014,6.73,6.732S574.694,191.689,570.976,191.689z
	 M1080.11,594.225c3.719,0,6.729,3.019,6.729,6.732s-3.016,6.732-6.729,6.732c-3.719,0-6.732-3.021-6.732-6.732
	C1073.375,597.238,1076.391,594.225,1080.11,594.225z M1023.538,594.225c3.719,0,6.731,3.019,6.731,6.732s-3.017,6.732-6.731,6.732
	s-6.729-3.021-6.729-6.732C1016.807,597.238,1019.821,594.225,1023.538,594.225z M1023.538,646.225c3.719,0,6.731,3.019,6.731,6.732
	s-3.017,6.732-6.731,6.732s-6.729-3.021-6.729-6.732C1016.807,649.238,1019.821,646.225,1023.538,646.225z M966.969,594.225
	c3.719,0,6.73,3.019,6.73,6.732s-3.018,6.732-6.73,6.732c-3.721,0-6.73-3.021-6.73-6.732
	C960.237,597.238,963.249,594.225,966.969,594.225z M966.969,646.225c3.719,0,6.73,3.019,6.73,6.732s-3.018,6.732-6.73,6.732
	c-3.721,0-6.73-3.021-6.73-6.732C960.237,649.238,963.249,646.225,966.969,646.225z M966.969,698.225c3.719,0,6.73,3.019,6.73,6.732
	s-3.018,6.732-6.73,6.732c-3.721,0-6.73-3.021-6.73-6.732C960.237,701.238,963.249,698.225,966.969,698.225z M910.399,594.225
	c3.719,0,6.729,3.019,6.729,6.732s-3.014,6.732-6.729,6.732c-3.719,0-6.732-3.021-6.732-6.732
	C903.665,597.238,906.68,594.225,910.399,594.225z M910.399,646.225c3.719,0,6.729,3.019,6.729,6.732s-3.014,6.732-6.729,6.732
	c-3.719,0-6.732-3.021-6.732-6.732C903.665,649.238,906.68,646.225,910.399,646.225z M910.399,698.225
	c3.719,0,6.729,3.019,6.729,6.732s-3.014,6.732-6.729,6.732c-3.719,0-6.732-3.021-6.732-6.732
	C903.665,701.238,906.68,698.225,910.399,698.225z M853.827,594.225c3.719,0,6.73,3.019,6.73,6.732s-3.016,6.732-6.73,6.732
	s-6.73-3.021-6.73-6.732C847.096,597.238,850.11,594.225,853.827,594.225z M853.827,646.225c3.719,0,6.73,3.019,6.73,6.732
	s-3.016,6.732-6.73,6.732s-6.73-3.021-6.73-6.732C847.096,649.238,850.11,646.225,853.827,646.225z M797.258,594.225
	c3.719,0,6.73,3.019,6.73,6.732s-3.016,6.732-6.73,6.732c-3.719,0-6.729-3.021-6.729-6.732
	C790.526,597.238,793.538,594.225,797.258,594.225z M627.545,555.689c-3.719,0-6.729-3.021-6.729-6.732
	c0-3.719,3.014-6.732,6.729-6.732c3.721,0,6.732,3.019,6.732,6.732S631.264,555.689,627.545,555.689z M627.545,503.689
	c-3.719,0-6.729-3.021-6.729-6.732c0-3.719,3.014-6.732,6.729-6.732c3.721,0,6.732,3.019,6.732,6.732
	S631.264,503.689,627.545,503.689z M627.545,451.689c-3.719,0-6.729-3.021-6.729-6.732c0-3.719,3.014-6.732,6.729-6.732
	c3.721,0,6.732,3.019,6.732,6.732S631.264,451.689,627.545,451.689z M627.545,399.689c-3.719,0-6.729-3.021-6.729-6.732
	c0-3.719,3.014-6.732,6.729-6.732c3.721,0,6.732,3.019,6.732,6.732S631.264,399.689,627.545,399.689z M627.545,347.689
	c-3.719,0-6.729-3.014-6.729-6.732s3.014-6.732,6.729-6.732c3.721,0,6.732,3.014,6.732,6.732S631.264,347.689,627.545,347.689z
	 M627.545,295.689c-3.719,0-6.729-3.014-6.729-6.732s3.014-6.732,6.729-6.732c3.721,0,6.732,3.014,6.732,6.732
	S631.264,295.689,627.545,295.689z M627.545,243.689c-3.719,0-6.729-3.014-6.729-6.732s3.014-6.732,6.729-6.732
	c3.721,0,6.732,3.014,6.732,6.732S631.264,243.689,627.545,243.689z M627.545,191.689c-3.719,0-6.729-3.014-6.729-6.732
	s3.014-6.732,6.729-6.732c3.721,0,6.732,3.014,6.732,6.732S631.264,191.689,627.545,191.689z M684.116,555.689
	c-3.719,0-6.73-3.021-6.73-6.732c0-3.719,3.018-6.732,6.73-6.732c3.717,0,6.73,3.019,6.73,6.732
	C690.85,552.674,687.834,555.689,684.116,555.689z M684.116,503.689c-3.719,0-6.73-3.021-6.73-6.732c0-3.719,3.018-6.732,6.73-6.732
	c3.717,0,6.73,3.019,6.73,6.732C690.85,500.674,687.834,503.689,684.116,503.689z M684.116,451.689c-3.719,0-6.73-3.021-6.73-6.732
	c0-3.719,3.018-6.732,6.73-6.732c3.717,0,6.73,3.019,6.73,6.732C690.85,448.674,687.834,451.689,684.116,451.689z M684.116,399.689
	c-3.719,0-6.73-3.021-6.73-6.732c0-3.719,3.018-6.732,6.73-6.732c3.717,0,6.73,3.019,6.73,6.732
	C690.85,396.674,687.834,399.689,684.116,399.689z M684.116,334.225c3.718,0,6.731,3.014,6.731,6.732s-3.014,6.732-6.731,6.732
	s-6.732-3.014-6.732-6.732S680.398,334.225,684.116,334.225z M684.116,282.225c3.718,0,6.731,3.014,6.731,6.732
	s-3.014,6.732-6.731,6.732s-6.732-3.014-6.732-6.732S680.398,282.225,684.116,282.225z M684.116,230.225
	c3.718,0,6.731,3.014,6.731,6.732s-3.014,6.732-6.731,6.732s-6.732-3.014-6.732-6.732S680.398,230.225,684.116,230.225z
	 M684.116,178.225c3.718,0,6.731,3.014,6.731,6.732s-3.014,6.732-6.731,6.732s-6.732-3.014-6.732-6.732
	S680.398,178.225,684.116,178.225z M684.116,126.225c3.718,0,6.731,3.014,6.731,6.732s-3.014,6.732-6.731,6.732
	s-6.732-3.014-6.732-6.732S680.398,126.225,684.116,126.225z M740.688,555.689c-3.719,0-6.73-3.021-6.73-6.732
	c0-3.719,3.016-6.732,6.73-6.732c3.718,0,6.73,3.019,6.73,6.732C747.418,552.674,744.405,555.689,740.688,555.689z M740.688,503.689
	c-3.719,0-6.73-3.021-6.73-6.732c0-3.719,3.016-6.732,6.73-6.732c3.718,0,6.73,3.019,6.73,6.732
	C747.418,500.674,744.405,503.689,740.688,503.689z M740.688,451.689c-3.719,0-6.73-3.021-6.73-6.732
	c0-3.719,3.016-6.732,6.73-6.732c3.718,0,6.73,3.019,6.73,6.732C747.418,448.674,744.405,451.689,740.688,451.689z M740.688,399.689
	c-3.719,0-6.73-3.021-6.73-6.732c0-3.719,3.016-6.732,6.73-6.732c3.718,0,6.73,3.019,6.73,6.732
	C747.418,396.674,744.405,399.689,740.688,399.689z M740.688,334.225c3.719,0,6.732,3.014,6.732,6.732s-3.014,6.732-6.732,6.732
	c-3.718,0-6.731-3.014-6.731-6.732S736.97,334.225,740.688,334.225z M740.688,282.225c3.719,0,6.732,3.014,6.732,6.732
	s-3.014,6.732-6.732,6.732c-3.718,0-6.731-3.014-6.731-6.732S736.97,282.225,740.688,282.225z M740.688,230.225
	c3.719,0,6.732,3.014,6.732,6.732s-3.014,6.732-6.732,6.732c-3.718,0-6.731-3.014-6.731-6.732S736.97,230.225,740.688,230.225z
	 M740.688,178.225c3.719,0,6.732,3.014,6.732,6.732s-3.014,6.732-6.732,6.732c-3.718,0-6.731-3.014-6.731-6.732
	S736.97,178.225,740.688,178.225z M740.688,126.225c3.719,0,6.732,3.014,6.732,6.732s-3.014,6.732-6.732,6.732
	c-3.718,0-6.731-3.014-6.731-6.732S736.97,126.225,740.688,126.225z M740.688,74.225c3.719,0,6.732,3.014,6.732,6.732
	s-3.014,6.732-6.732,6.732c-3.718,0-6.731-3.014-6.731-6.732S736.97,74.225,740.688,74.225z M797.258,399.689
	c-3.721,0-6.729-3.021-6.729-6.732c0-3.719,3.014-6.732,6.729-6.732c3.719,0,6.73,3.019,6.73,6.732S800.977,399.689,797.258,399.689
	z M797.258,347.689c-3.721,0-6.729-3.014-6.729-6.732s3.014-6.732,6.729-6.732c3.719,0,6.73,3.014,6.73,6.732
	S800.977,347.689,797.258,347.689z M797.258,295.689c-3.721,0-6.729-3.014-6.729-6.732s3.014-6.732,6.729-6.732
	c3.719,0,6.73,3.014,6.73,6.732S800.977,295.689,797.258,295.689z M797.258,243.689c-3.721,0-6.729-3.014-6.729-6.732
	s3.014-6.732,6.729-6.732c3.719,0,6.73,3.014,6.73,6.732S800.977,243.689,797.258,243.689z M797.258,191.689
	c-3.721,0-6.729-3.014-6.729-6.732s3.014-6.732,6.729-6.732c3.719,0,6.73,3.014,6.73,6.732S800.977,191.689,797.258,191.689z
	 M797.258,139.689c-3.721,0-6.729-3.014-6.729-6.732s3.014-6.732,6.729-6.732c3.719,0,6.73,3.014,6.73,6.732
	S800.977,139.689,797.258,139.689z M797.258,87.689c-3.721,0-6.729-3.014-6.729-6.732s3.014-6.732,6.729-6.732
	c3.719,0,6.73,3.014,6.73,6.732S800.977,87.689,797.258,87.689z M853.827,334.225c3.718,0,6.731,3.014,6.731,6.732
	s-3.014,6.732-6.731,6.732s-6.732-3.014-6.732-6.732S850.109,334.225,853.827,334.225z M853.827,282.225
	c3.718,0,6.731,3.014,6.731,6.732s-3.014,6.732-6.731,6.732s-6.732-3.014-6.732-6.732S850.109,282.225,853.827,282.225z
	 M853.827,230.225c3.718,0,6.731,3.014,6.731,6.732s-3.014,6.732-6.731,6.732s-6.732-3.014-6.732-6.732
	S850.109,230.225,853.827,230.225z M853.827,178.225c3.718,0,6.731,3.014,6.731,6.732s-3.014,6.732-6.731,6.732
	s-6.732-3.014-6.732-6.732S850.109,178.225,853.827,178.225z M853.827,126.225c3.718,0,6.731,3.014,6.731,6.732
	s-3.014,6.732-6.731,6.732s-6.732-3.014-6.732-6.732S850.109,126.225,853.827,126.225z M853.827,74.225
	c3.718,0,6.731,3.014,6.731,6.732s-3.014,6.732-6.731,6.732s-6.732-3.014-6.732-6.732S850.109,74.225,853.827,74.225z
	 M853.827,22.225c3.718,0,6.731,3.014,6.731,6.732s-3.014,6.732-6.731,6.732s-6.732-3.014-6.732-6.732
	S850.109,22.225,853.827,22.225z M910.399,295.689c-3.723,0-6.732-3.014-6.732-6.732s3.016-6.732,6.732-6.732
	c3.715,0,6.729,3.014,6.729,6.732S914.116,295.689,910.399,295.689z M910.399,243.689c-3.723,0-6.732-3.014-6.732-6.732
	s3.016-6.732,6.732-6.732c3.715,0,6.729,3.014,6.729,6.732S914.116,243.689,910.399,243.689z M910.399,191.689
	c-3.723,0-6.732-3.014-6.732-6.732s3.016-6.732,6.732-6.732c3.715,0,6.729,3.014,6.729,6.732S914.116,191.689,910.399,191.689z
	 M910.399,139.689c-3.723,0-6.732-3.014-6.732-6.732s3.016-6.732,6.732-6.732c3.715,0,6.729,3.014,6.729,6.732
	S914.116,139.689,910.399,139.689z M910.399,87.689c-3.723,0-6.732-3.014-6.732-6.732s3.016-6.732,6.732-6.732
	c3.715,0,6.729,3.014,6.729,6.732S914.116,87.689,910.399,87.689z M910.399,35.689c-3.723,0-6.732-3.014-6.732-6.732
	s3.016-6.732,6.732-6.732c3.715,0,6.729,3.014,6.729,6.732S914.116,35.689,910.399,35.689z M966.969,191.689
	c-3.721,0-6.73-3.014-6.73-6.732s3.014-6.732,6.73-6.732c3.719,0,6.73,3.014,6.73,6.732S970.688,191.689,966.969,191.689z
	 M966.969,139.689c-3.721,0-6.73-3.014-6.73-6.732s3.014-6.732,6.73-6.732c3.719,0,6.73,3.014,6.73,6.732
	S970.688,139.689,966.969,139.689z M966.969,87.689c-3.721,0-6.73-3.014-6.73-6.732s3.014-6.732,6.73-6.732
	c3.719,0,6.73,3.014,6.73,6.732S970.688,87.689,966.969,87.689z M966.969,35.689c-3.721,0-6.73-3.014-6.73-6.732
	s3.014-6.732,6.73-6.732c3.719,0,6.73,3.014,6.73,6.732S970.688,35.689,966.969,35.689z M1023.538,126.225
	c3.718,0,6.731,3.014,6.731,6.732s-3.014,6.732-6.731,6.732s-6.732-3.014-6.732-6.732S1019.82,126.225,1023.538,126.225z
	 M1023.538,74.225c3.718,0,6.731,3.014,6.731,6.732s-3.014,6.732-6.731,6.732s-6.732-3.014-6.732-6.732
	S1019.82,74.225,1023.538,74.225z M1023.538,22.225c3.718,0,6.731,3.014,6.731,6.732s-3.014,6.732-6.731,6.732
	s-6.732-3.014-6.732-6.732S1019.82,22.225,1023.538,22.225z M1080.11,87.689c-3.723,0-6.732-3.014-6.732-6.732
	s3.016-6.732,6.732-6.732c3.715,0,6.729,3.014,6.729,6.732S1083.827,87.689,1080.11,87.689z M1080.11,35.689
	c-3.723,0-6.732-3.014-6.732-6.732s3.016-6.732,6.732-6.732c3.715,0,6.729,3.014,6.729,6.732S1083.827,35.689,1080.11,35.689z
	 M77.226,640.347c-5.744,0.638-13.487,0.235-15.061,7.433l0.002,0.001c0.129,1.149,0.195,2.318,0.195,3.504
	c0,17.221-13.96,31.181-31.181,31.181C13.96,682.465,0,668.504,0,651.283s13.96-31.183,31.181-31.183
	c8.157,0,15.583,3.133,21.139,8.261l-0.001,0.001c6.791,2.65,11.233-4.077,15.23-8.263
	c82.306-158.626,380.345-379.728,520.828-469.747l40.672-24.28c212.34-173.841,415.981-128.88,590.758-92.148
	c30.766,0.371-37.316,44.24-35.802,53.928c-129.196,57.59-269.328,214.469-414.887,406.142c-7.211,22.174-2.047,48.58,33.002,53.104
	l281.668,7.354c28.676,6.885,44.906,22.731,48.699,47.549c-83.72,91.646-141.466,143.838-173.236,156.576
	c-70.883-12.603-132.692-74.217-190.379-158.113c-221.79-7.188-524.38,56.62-691.648,39.881L77.226,640.347z"/>
</svg>
