<?xml version="1.0" encoding="utf-8"?>
<!-- Generator: Adobe Illustrator 16.0.0, SVG Export Plug-In . SVG Version: 6.00 Build 0)  -->
<!DOCTYPE svg PUBLIC "-//W3C//DTD SVG 1.1//EN" "http://www.w3.org/Graphics/SVG/1.1/DTD/svg11.dtd">
<svg version="1.1" id="Layer_1" xmlns="http://www.w3.org/2000/svg" xmlns:xlink="http://www.w3.org/1999/xlink" x="0px" y="0px"
	 width="1658.807px" height="738.803px" viewBox="0 0 1658.807 738.803" enable-background="new 0 0 1658.807 738.803"
	 xml:space="preserve">
<path fill="none" stroke="#000001" stroke-linejoin="round" stroke-miterlimit="10" d="M1298.964,324.857
	c-17.075-17.005-29.83-85.637-29.83-167.839c-4.382-2.003-8.957-3.827-13.04-6.47c-13.156-8.513-22.223-22.915-24.294-38.377
	c-2.387-17.143,3.886-35.292,16.612-47.007c4.131-4.219,9.23-7.013,14.252-10.088c-15.145,0.785-30.311,2.312-45.366,3.378
	c-23.062,1.908-46.208,3.628-69.271,5.63c-12.229,2.46-24.78,0.644-36.957-1.251c-16.403-2.966-32.481-7.406-48.778-10.832
	C992.239,36.74,921.969,22.493,851.612,8.148c-9.945-2.099-20.095-3.647-29.816-6.759c-15.67-2.755-31.696-0.516-47.421,1.084
	C711.931,9.077,649.41,15.212,586.892,21.256c-87.728,8.436-175.441,16.5-263.221,23.636c-47.789,3.761-95.577,7.428-143.5,9.701
	c-23.218,1.069-46.405,1.211-69.605,1.724c-29.692,0.571-59.384,1.142-89.073,1.621c-3.613-0.122-6.473,2.192-9.496,3.852
	c-4.265,2.73-8.994,5.444-11.379,10.186c-1.48,2.639,0.361,5.761,2.917,6.96c6.649,3.564,14.426,3.919,21.721,4.815
	c49.532,5.016,99.183,9.292,148.737,13.659c158.896,14.043,317.742,27.723,476.581,41.283c11.684,4.064,9.742,17.032,8.846,26.79
	c-0.382,4.153-0.679,8.311-1.009,12.468c-1.09,13.715-2.181,27.431-3.271,41.146c-0.239,3.002-0.478,6.004-0.716,9.007l-0.157,1.392
	c0,0-1.722,16.842-1.721,16.842c-3.007,14.224-10.831,36.839-27.989,38.837c-9.653,1.124-17.946,6.798-22.895,15.181
	c-2.741,4.643-4.113,10.146-4.113,15.537c0,17.222,13.96,31.182,31.181,31.182c7.797,0,15.876-3.024,21.459-8.533
	c5.2-5.13,7.027-11.926,8.521-18.841c1.938-8.972,3.312-18.144,10.755-24.133c2.732-2.199,6.884-3.88,10.446-3.88l6.905,0.079
	l17.254,0.297l21.973,0.56l24.083,0.903l19.132,0.98l19.146,1.25l16.696,1.34l26.412,2.708l18.592,2.699l12.541,2.11l14.696,2.62
	l18.156,3.29l13.41,2.73l9.754,2.278l9.963,2.692l13.798,4.549l16.769,7.303l9.584,5.16l24.492,15.639l13.915,9.853l19.565,14.357
	l12.957,10.722l13.011,11.725l9.793,10.306l7.926,8.646l10.554,13.236l11.015,15.562l11.491,18.087l13.703,23.479l7.452,13.205
	l13.16,23.588l13.706,25.07l5.402,9.803l11.308,20.835l27.611,51.231l32.135,60.25l25.374,47.824l5.061-4.691l5.284-2.945
	l7.125-2.627l9.695-2.564l10.974-2.111l15.431-2.068l13.678-1.184l23.242-1.221l22.987-0.971l41.013-1.357l62.895-1.648
	l68.255-1.385l83.557-1.459l-3.635-5.254l-2.168-4.221l-1.112-2.971l-0.882-3.695l-0.313-4.148l0.444-5.445l1.251-4.635l1.821-4.064
	l2.735-4.205l3.418-3.727l5.617-4.061l4.076-1.834l7.413-1.613l6.608,0.219l5.089,1.008l2.592,0.762l2.255-3.57l0.657-1.221
	l0.287-0.953l0.022-0.793l-0.242-0.832l-0.516-0.76l-17.785-23.027l-22.769-28.854l-15.091-18.561l-23.809-28.394l-10.093-11.659
	l-12.586-14.066l-12.566-13.154l-10.882-11.318l-12.072-11.598l-10.128-9.501l-10.907-10.321l-15.971-15.104l-21.195-19.771
	l-22.266-20.143l-21.908-18.898l-18.221-14.854l-16.232-12.476l-21.321-15.213l-17.946-11.396l-18.576-10.161l-26.663-13.091
	L1298.964,324.857z"/>
</svg>
