<?xml version="1.0" encoding="utf-8"?>
<!-- Generator: Adobe Illustrator 16.0.0, SVG Export Plug-In . SVG Version: 6.00 Build 0)  -->
<!DOCTYPE svg PUBLIC "-//W3C//DTD SVG 1.1//EN" "http://www.w3.org/Graphics/SVG/1.1/DTD/svg11.dtd">
<svg version="1.1" id="Layer_1" xmlns="http://www.w3.org/2000/svg" xmlns:xlink="http://www.w3.org/1999/xlink" x="0px" y="0px"
	 width="1658.807px" height="738.801px" viewBox="0 0 1658.807 738.801" enable-background="new 0 0 1658.807 738.801"
	 xml:space="preserve">
<path d="M1052.848,161.036c50.312,1.054,100.734,1.741,151.054,0.014c21.812-0.56,43.57-2.419,65.229-4.004
	c-4.383-2.003-8.957-3.827-13.04-6.47c-13.158-8.513-22.226-22.915-24.294-38.377c-2.39-17.143,3.884-35.292,16.609-47.007
	c4.131-4.219,9.232-7.013,14.252-10.088c-15.143,0.785-30.309,2.312-45.365,3.378c-23.062,1.908-46.207,3.628-69.271,5.63
	c-12.229,2.46-24.781,0.644-36.957-1.251c-16.404-2.966-32.482-7.406-48.779-10.832C992.238,36.768,921.968,22.521,851.611,8.176
	c-9.944-2.099-20.092-3.647-29.813-6.759c-15.67-2.755-31.696-0.516-47.422,1.084C711.931,9.105,649.407,15.24,586.892,21.284
	c-87.729,8.436-175.444,16.5-263.221,23.636c-47.789,3.761-95.577,7.428-143.5,9.701c-23.218,1.069-46.405,1.211-69.605,1.724
	c-29.689,0.571-59.384,1.142-89.07,1.621c-3.613-0.122-6.476,2.192-9.496,3.852c-4.268,2.73-8.994,5.444-11.379,10.186
	c-1.48,2.639,0.358,5.761,2.917,6.96c6.646,3.564,14.426,3.919,21.721,4.815c49.532,5.016,99.183,9.292,148.737,13.659
	c197.289,17.437,394.509,34.312,591.729,51.097C861.405,154.369,957.045,158.719,1052.848,161.036z M1658.474,657.197l-0.517-0.76
	l-17.784-23.027l-22.77-28.854l-15.09-18.561l-23.809-28.393l-10.096-11.66l-12.586-14.066l-12.563-13.154l-10.882-11.318
	l-12.072-11.598l-10.128-9.501l-10.908-10.321l-15.97-15.104l-21.195-19.771l-22.266-20.145l-21.908-18.896l-18.222-14.854
	l-16.232-12.476l-21.322-15.212l-17.945-11.396l-18.575-10.162l-26.663-13.09l-16.592-7.832l-12.235-5.575l-17.828-7.598
	l-11.698-4.685l-16.809-6.31l-19.945-6.832l-28.629-8.663l-22.894-6.114l-24.579-5.739l-33.598-6.694l-46.345-7.388l-51.903-6.575
	l-57.549-6.299l-57.485-5.627l-45.3-3.771l-37.777-2.622l-24.581-1.339l-34.708-1.329l-41.146-0.049l-20.108,0.986l-11.358,1.212
	l-7.125,1.175l-4.355,0.921l-0.157,1.392l-6.332,61.921l20.905,0.144l17.976,0.206l17.254,0.297l21.972,0.56l24.084,0.903
	l19.133,0.98l19.146,1.25l16.697,1.34l26.412,2.708l18.591,2.699l12.542,2.11l14.696,2.62l18.153,3.29l13.411,2.731l9.753,2.278
	l9.963,2.693l13.801,4.548l16.768,7.303l9.584,5.16l24.493,15.639l13.915,9.853l19.562,14.356l12.957,10.723l13.014,11.725
	l9.793,10.305l7.926,8.645l10.553,13.238L1092,445.311l11.489,18.087l13.705,23.479l7.452,13.205l13.161,23.588l13.706,25.07
	l5.4,9.803l11.31,20.835l27.61,51.231l32.136,60.25l25.374,47.824l5.06-4.691l5.285-2.945l7.125-2.627l9.695-2.564l10.973-2.111
	l15.429-2.068l13.681-1.184l23.241-1.221l22.987-0.971l41.013-1.357l62.896-1.648l68.254-1.385l83.555-1.459l-3.633-5.254
	l-2.168-4.221l-1.112-2.971l-0.884-3.695l-0.311-4.148l0.442-5.445l1.252-4.635l1.821-4.064l2.736-4.205l3.418-3.727l5.617-4.061
	l4.075-1.834l7.411-1.613l6.611,0.219l5.088,1.008l2.59,0.762l2.257-3.57l0.656-1.221l0.288-0.953l0.023-0.793L1658.474,657.197z"/>
</svg>
