<?xml version="1.0" encoding="utf-8"?>
<!-- Generator: Adobe Illustrator 16.0.0, SVG Export Plug-In . SVG Version: 6.00 Build 0)  -->
<!DOCTYPE svg PUBLIC "-//W3C//DTD SVG 1.1//EN" "http://www.w3.org/Graphics/SVG/1.1/DTD/svg11.dtd">
<svg version="1.1" id="Layer_1" xmlns="http://www.w3.org/2000/svg" xmlns:xlink="http://www.w3.org/1999/xlink" x="0px" y="0px"
	 width="1948.219px" height="810.266px" viewBox="0 0 1948.219 810.266" enable-background="new 0 0 1948.219 810.266"
	 xml:space="preserve">
<path fill="none" stroke="#000000" stroke-linejoin="round" stroke-miterlimit="10" d="M1888.196,246.905
	c-0.896-0.439-1.77-1.062-2.82-0.861c-0.877,0.167-1.591,0.734-2.34,1.179c-0.821,0.489-1.688,0.914-2.537,1.355
	c-0.227,0.118-0.45,0.24-0.678,0.356v0.001c-0.109,0.059-0.223,0.115-0.337,0.171l-11.104,5.38l-23.597,7.577
	c-37.969,12.562-84.106,27.83-111.157,44.83c-44.033,27.673-73.289,71.913-93.701,119.025
	c-10.674,24.629-25.394,58.602-30.099,74.688c-0.299,1.034-4.528,12.4-12.606,34.118c-9.188,24.717-26.226,70.43-27.334,74.227
	c-3.349,11.458-12.213,24.181-25.441,20.312l-16.586-4.852c-28.893-8.449-117.898-50.836-175.855-78.44l-20.411-9.721l-22.48-10.327
	l-52.656-25.151c-41.377-19.769-83.481-37.974-124.946-57.554c-22.929-10.826-45.951-21.688-70.338-28.821
	c-32.216-9.425-65.064-17-98.602-19.391c-21.987-1.564-44.307-1.886-65.757,3.726c-15.697,4.107-31.404,8.317-46.544,14.218
	c-18.02,7.026-35.522,15.54-51.122,27.057c-10.334,7.631-18.974,14.855-25.928,21.447c-17.067,16.181-32.335,34.131-48.628,51.076
	c-32.27,33.561-61.997,69.434-90.657,106.104l-40.696,52.08l-92,116.5c-12.561,15.757-29.178,19.864-30.065,20.062
	c-9.261,2.063-14.71,3.109-22.701,2.979c-7.584-0.124-75.674-4.435-113.213-9.674c-101.962-14.231-204.611-23.731-306.004-41.812
	C1.041,753.743,4.35,752.536,7.34,739.684l7.008-33.959c0.173-1.448-3.524-9.635-5.636-14.31L0.52,674.988
	c-0.665-1.069-0.693-2.729-0.082-5.039l6.019-6.224l5.8-6.432c-1.027,1.141,311.351-263.877,485.283-405.774
	c25.07-20.454,52.844-37.226,79.088-56.09c30.034-21.589,52.257-36.641,66.664-45.085c2.505-1.467,4.383-4.392,7.488-4.443
	c3.837-0.063,8.236,0.992,12.271,1.96c13.698,3.285,39.338,10.607,41.198,9.409c9.478-6.096,18.343-13.077,27.622-19.461
	c21.074-14.497,42.212-28.996,64.857-40.952C836.658,75.78,874.49,50.68,915.83,32.355c8.361-3.706,19.267-7.644,32.87-11.841
	c13.307-4.209,20.649-6.487,21.91-6.944c2.764-1.004,26.131-5.31,39.243-7.726c14.209-2.619,28.524-4.821,42.979-5.359
	c81.021-3.014,161.658,8.251,240.318,27.307c28.371,6.873,49.551,12.168,63.609,15.905c76.481,20.329,152.006,44.016,227.002,69.246
	c37.596,12.648,75.038,25.722,112.614,38.416c45.732,15.449,92.224,35.323,137.627,54.732l33.338,14.253
	c3.851,1.646,8.35,3.568,11.902,6.083l-0.002-0.001c0.87,0.324,1.741,0.647,2.611,0.971c0.688,0.256,1.44,0.481,2.182,0.36
	c0.855-0.14,1.314-0.725,1.834-1.356c0.65-0.79,1.317-1.566,1.975-2.35c4.443-11.803,15.839-20.199,29.193-20.199
	c17.221,0,31.182,13.96,31.182,31.181c0,17.221-13.961,31.181-31.182,31.181c-13.017,0-24.171-7.976-28.841-19.306L1888.196,246.905
	L1888.196,246.905z"/>
</svg>
