<?xml version="1.0" encoding="utf-8"?>
<!-- Generator: Adobe Illustrator 16.0.0, SVG Export Plug-In . SVG Version: 6.00 Build 0)  -->
<!DOCTYPE svg PUBLIC "-//W3C//DTD SVG 1.1//EN" "http://www.w3.org/Graphics/SVG/1.1/DTD/svg11.dtd">
<svg version="1.1" id="Layer_1" xmlns="http://www.w3.org/2000/svg" xmlns:xlink="http://www.w3.org/1999/xlink" x="0px" y="0px"
	 width="3473.533px" height="1001.443px" viewBox="0 0 3473.533 1001.443" enable-background="new 0 0 3473.533 1001.443"
	 xml:space="preserve">
<path fill="none" stroke="#000001" stroke-linejoin="round" stroke-miterlimit="10" d="M1299.309,267.037
	c3.718,0,6.732,3.014,6.732,6.732c0,3.718-3.016,6.732-6.732,6.732s-6.732-3.014-6.732-6.732
	C1292.577,270.051,1295.593,267.037,1299.309,267.037z M1355.884,267.037c3.718,0,6.73,3.014,6.73,6.732
	c0,3.718-3.014,6.732-6.73,6.732c-3.719,0-6.732-3.014-6.732-6.732C1349.15,270.051,1352.164,267.037,1355.884,267.037z
	 M1412.449,319.037c3.718,0,6.732,3.014,6.732,6.732c0,3.718-3.015,6.732-6.732,6.732c-3.717,0-6.73-3.014-6.73-6.732
	C1405.719,322.051,1408.731,319.037,1412.449,319.037z M1412.449,267.037c3.718,0,6.732,3.014,6.732,6.732
	c0,3.718-3.015,6.732-6.732,6.732c-3.717,0-6.73-3.014-6.73-6.732C1405.719,270.051,1408.731,267.037,1412.449,267.037z
	 M1469.02,371.037c3.718,0,6.732,3.014,6.732,6.732c0,3.718-3.016,6.732-6.732,6.732s-6.732-3.014-6.732-6.732
	C1462.288,374.051,1465.302,371.037,1469.02,371.037z M1469.02,319.037c3.718,0,6.732,3.014,6.732,6.732
	c0,3.718-3.016,6.732-6.732,6.732s-6.732-3.014-6.732-6.732C1462.288,322.051,1465.302,319.037,1469.02,319.037z M1469.02,267.037
	c3.718,0,6.732,3.014,6.732,6.732c0,3.718-3.016,6.732-6.732,6.732s-6.732-3.014-6.732-6.732
	C1462.288,270.051,1465.302,267.037,1469.02,267.037z M1525.594,423.037c3.718,0,6.73,3.014,6.73,6.73
	c0,3.72-3.014,6.732-6.73,6.732s-6.732-3.014-6.732-6.732C1518.861,426.051,1521.876,423.037,1525.594,423.037z M1525.594,371.037
	c3.718,0,6.73,3.014,6.73,6.732c0,3.718-3.014,6.732-6.73,6.732s-6.732-3.014-6.732-6.732
	C1518.861,374.051,1521.876,371.037,1525.594,371.037z M1525.594,319.037c3.718,0,6.73,3.014,6.73,6.732
	c0,3.718-3.014,6.732-6.73,6.732s-6.732-3.014-6.732-6.732C1518.861,322.051,1521.876,319.037,1525.594,319.037z M1525.594,267.037
	c3.718,0,6.73,3.014,6.73,6.732c0,3.718-3.014,6.732-6.73,6.732s-6.732-3.014-6.732-6.732
	C1518.861,270.051,1521.876,267.037,1525.594,267.037z M1582.16,475.037c3.72,0,6.732,3.014,6.732,6.73
	c0,3.72-3.014,6.732-6.732,6.732c-3.718,0-6.73-3.014-6.73-6.732C1575.428,478.051,1578.442,475.037,1582.16,475.037z
	 M1582.16,423.037c3.72,0,6.732,3.014,6.732,6.73c0,3.72-3.014,6.732-6.732,6.732c-3.718,0-6.73-3.014-6.73-6.732
	C1575.428,426.051,1578.442,423.037,1582.16,423.037z M1582.16,371.037c3.72,0,6.732,3.014,6.732,6.732
	c0,3.718-3.014,6.732-6.732,6.732c-3.718,0-6.73-3.014-6.73-6.732C1575.428,374.051,1578.442,371.037,1582.16,371.037z
	 M1582.16,319.037c3.72,0,6.732,3.014,6.732,6.732c0,3.718-3.014,6.732-6.732,6.732c-3.718,0-6.73-3.014-6.73-6.732
	C1575.428,322.051,1578.442,319.037,1582.16,319.037z M1582.16,267.037c3.72,0,6.732,3.014,6.732,6.732
	c0,3.718-3.014,6.732-6.732,6.732c-3.718,0-6.73-3.014-6.73-6.732C1575.428,270.051,1578.442,267.037,1582.16,267.037z
	 M1638.73,527.037c3.718,0,6.732,3.014,6.732,6.73c0,3.72-3.016,6.732-6.732,6.732s-6.732-3.014-6.732-6.732
	C1631.999,530.051,1635.012,527.037,1638.73,527.037z M1638.73,475.037c3.718,0,6.732,3.014,6.732,6.73
	c0,3.72-3.016,6.732-6.732,6.732s-6.732-3.014-6.732-6.732C1631.999,478.051,1635.012,475.037,1638.73,475.037z M1638.73,423.037
	c3.718,0,6.732,3.014,6.732,6.73c0,3.72-3.016,6.732-6.732,6.732s-6.732-3.014-6.732-6.732
	C1631.999,426.051,1635.012,423.037,1638.73,423.037z M1638.73,371.037c3.718,0,6.732,3.014,6.732,6.732
	c0,3.718-3.016,6.732-6.732,6.732s-6.732-3.014-6.732-6.732C1631.999,374.051,1635.012,371.037,1638.73,371.037z M1638.73,319.037
	c3.718,0,6.732,3.014,6.732,6.732c0,3.718-3.016,6.732-6.732,6.732s-6.732-3.014-6.732-6.732
	C1631.999,322.051,1635.012,319.037,1638.73,319.037z M1638.73,267.037c3.718,0,6.732,3.014,6.732,6.732
	c0,3.718-3.016,6.732-6.732,6.732s-6.732-3.014-6.732-6.732C1631.999,270.051,1635.012,267.037,1638.73,267.037z M1695.302,735.037
	c3.718,0,6.73,3.014,6.73,6.73c0,3.72-3.014,6.732-6.73,6.732s-6.732-3.014-6.732-6.732
	C1688.57,738.051,1691.585,735.037,1695.302,735.037z M1695.302,631.037c3.718,0,6.73,3.014,6.73,6.73
	c0,3.72-3.014,6.732-6.73,6.732s-6.732-3.014-6.732-6.732C1688.57,634.051,1691.585,631.037,1695.302,631.037z M1695.302,579.037
	c3.718,0,6.73,3.014,6.73,6.73c0,3.72-3.014,6.732-6.73,6.732s-6.732-3.014-6.732-6.732
	C1688.57,582.051,1691.585,579.037,1695.302,579.037z M1695.302,527.037c3.718,0,6.73,3.014,6.73,6.73
	c0,3.72-3.014,6.732-6.73,6.732s-6.732-3.014-6.732-6.732C1688.57,530.051,1691.585,527.037,1695.302,527.037z M1695.302,475.037
	c3.718,0,6.73,3.014,6.73,6.73c0,3.72-3.014,6.732-6.73,6.732s-6.732-3.014-6.732-6.732
	C1688.57,478.051,1691.585,475.037,1695.302,475.037z M1695.302,423.037c3.718,0,6.73,3.014,6.73,6.73
	c0,3.72-3.014,6.732-6.73,6.732s-6.732-3.014-6.732-6.732C1688.57,426.051,1691.585,423.037,1695.302,423.037z M1695.302,371.037
	c3.718,0,6.73,3.014,6.73,6.732c0,3.718-3.014,6.732-6.73,6.732s-6.732-3.014-6.732-6.732
	C1688.57,374.051,1691.585,371.037,1695.302,371.037z M1695.302,319.037c3.718,0,6.73,3.014,6.73,6.732
	c0,3.718-3.014,6.732-6.73,6.732s-6.732-3.014-6.732-6.732C1688.57,322.051,1691.585,319.037,1695.302,319.037z M1695.302,267.037
	c3.718,0,6.73,3.014,6.73,6.732c0,3.718-3.014,6.732-6.73,6.732s-6.732-3.014-6.732-6.732
	C1688.57,270.051,1691.585,267.037,1695.302,267.037z M1751.871,735.037c3.72,0,6.732,3.014,6.732,6.73
	c0,3.72-3.014,6.732-6.732,6.732c-3.718,0-6.73-3.014-6.73-6.732C1745.139,738.051,1748.153,735.037,1751.871,735.037z
	 M1751.871,683.037c3.72,0,6.732,3.014,6.732,6.73c0,3.72-3.014,6.732-6.732,6.732c-3.718,0-6.73-3.014-6.73-6.732
	C1745.139,686.051,1748.153,683.037,1751.871,683.037z M1751.871,631.037c3.72,0,6.732,3.014,6.732,6.73
	c0,3.72-3.014,6.732-6.732,6.732c-3.718,0-6.73-3.014-6.73-6.732C1745.139,634.051,1748.153,631.037,1751.871,631.037z
	 M1751.871,579.037c3.72,0,6.732,3.014,6.732,6.73c0,3.72-3.014,6.732-6.732,6.732c-3.718,0-6.73-3.014-6.73-6.732
	C1745.139,582.051,1748.153,579.037,1751.871,579.037z M1751.871,527.037c3.72,0,6.732,3.014,6.732,6.73
	c0,3.72-3.014,6.732-6.732,6.732c-3.718,0-6.73-3.014-6.73-6.732C1745.139,530.051,1748.153,527.037,1751.871,527.037z
	 M1751.871,475.037c3.72,0,6.732,3.014,6.732,6.73c0,3.72-3.014,6.732-6.732,6.732c-3.718,0-6.73-3.014-6.73-6.732
	C1745.139,478.051,1748.153,475.037,1751.871,475.037z M1751.871,423.037c3.72,0,6.732,3.014,6.732,6.73
	c0,3.72-3.014,6.732-6.732,6.732c-3.718,0-6.73-3.014-6.73-6.732C1745.139,426.051,1748.153,423.037,1751.871,423.037z
	 M1751.871,371.037c3.72,0,6.732,3.014,6.732,6.732c0,3.718-3.014,6.732-6.732,6.732c-3.718,0-6.73-3.014-6.73-6.732
	C1745.139,374.051,1748.153,371.037,1751.871,371.037z M1751.871,319.037c3.72,0,6.732,3.014,6.732,6.732
	c0,3.718-3.014,6.732-6.732,6.732c-3.718,0-6.73-3.014-6.73-6.732C1745.139,322.051,1748.153,319.037,1751.871,319.037z
	 M1808.441,735.037c3.718,0,6.732,3.014,6.732,6.73c0,3.72-3.016,6.732-6.732,6.732s-6.73-3.014-6.73-6.732
	C1801.71,738.051,1804.723,735.037,1808.441,735.037z M1808.441,683.037c3.718,0,6.732,3.014,6.732,6.73
	c0,3.72-3.016,6.732-6.732,6.732s-6.73-3.014-6.73-6.732C1801.71,686.051,1804.723,683.037,1808.441,683.037z M1808.441,631.037
	c3.718,0,6.732,3.014,6.732,6.73c0,3.72-3.016,6.732-6.732,6.732s-6.73-3.014-6.73-6.732
	C1801.71,634.051,1804.723,631.037,1808.441,631.037z M1808.441,579.037c3.718,0,6.732,3.014,6.732,6.73
	c0,3.72-3.016,6.732-6.732,6.732s-6.73-3.014-6.73-6.732C1801.71,582.051,1804.723,579.037,1808.441,579.037z M1808.441,527.037
	c3.718,0,6.732,3.014,6.732,6.73c0,3.72-3.016,6.732-6.732,6.732s-6.73-3.014-6.73-6.732
	C1801.71,530.051,1804.723,527.037,1808.441,527.037z M1808.441,475.037c3.718,0,6.732,3.014,6.732,6.73
	c0,3.72-3.016,6.732-6.732,6.732s-6.73-3.014-6.73-6.732C1801.71,478.051,1804.723,475.037,1808.441,475.037z M1808.441,423.037
	c3.718,0,6.732,3.014,6.732,6.73c0,3.72-3.016,6.732-6.732,6.732s-6.73-3.014-6.73-6.732
	C1801.71,426.051,1804.723,423.037,1808.441,423.037z M1808.441,371.037c3.718,0,6.732,3.014,6.732,6.732
	c0,3.718-3.016,6.732-6.732,6.732s-6.73-3.014-6.73-6.732C1801.71,374.051,1804.723,371.037,1808.441,371.037z M1808.441,319.037
	c3.718,0,6.732,3.014,6.732,6.732c0,3.718-3.016,6.732-6.732,6.732s-6.73-3.014-6.73-6.732
	C1801.71,322.051,1804.723,319.037,1808.441,319.037z M1865.012,735.037c3.718,0,6.73,3.014,6.73,6.73
	c0,3.72-3.014,6.732-6.73,6.732c-3.719,0-6.732-3.014-6.732-6.732C1858.28,738.051,1861.294,735.037,1865.012,735.037z
	 M1865.012,683.037c3.718,0,6.73,3.014,6.73,6.73c0,3.72-3.014,6.732-6.73,6.732c-3.719,0-6.732-3.014-6.732-6.732
	C1858.28,686.051,1861.294,683.037,1865.012,683.037z M1865.012,631.037c3.718,0,6.73,3.014,6.73,6.73
	c0,3.72-3.014,6.732-6.73,6.732c-3.719,0-6.732-3.014-6.732-6.732C1858.28,634.051,1861.294,631.037,1865.012,631.037z
	 M1865.012,579.037c3.718,0,6.73,3.014,6.73,6.73c0,3.72-3.014,6.732-6.73,6.732c-3.719,0-6.732-3.014-6.732-6.732
	C1858.28,582.051,1861.294,579.037,1865.012,579.037z M1865.012,527.037c3.718,0,6.73,3.014,6.73,6.73
	c0,3.72-3.014,6.732-6.73,6.732c-3.719,0-6.732-3.014-6.732-6.732C1858.28,530.051,1861.294,527.037,1865.012,527.037z
	 M1865.012,475.037c3.718,0,6.73,3.014,6.73,6.73c0,3.72-3.014,6.732-6.73,6.732c-3.719,0-6.732-3.014-6.732-6.732
	C1858.28,478.051,1861.294,475.037,1865.012,475.037z M1865.012,423.037c3.718,0,6.73,3.014,6.73,6.73
	c0,3.72-3.014,6.732-6.73,6.732c-3.719,0-6.732-3.014-6.732-6.732C1858.28,426.051,1861.294,423.037,1865.012,423.037z
	 M1865.012,371.037c3.718,0,6.73,3.014,6.73,6.732c0,3.718-3.014,6.732-6.73,6.732c-3.719,0-6.732-3.014-6.732-6.732
	C1858.28,374.051,1861.294,371.037,1865.012,371.037z M1921.583,735.037c3.72,0,6.732,3.014,6.732,6.73
	c0,3.72-3.014,6.732-6.732,6.732c-3.718,0-6.73-3.014-6.73-6.732C1914.851,738.051,1917.865,735.037,1921.583,735.037z
	 M1921.583,683.037c3.72,0,6.732,3.014,6.732,6.73c0,3.72-3.014,6.732-6.732,6.732c-3.718,0-6.73-3.014-6.73-6.732
	C1914.851,686.051,1917.865,683.037,1921.583,683.037z M1921.583,631.037c3.72,0,6.732,3.014,6.732,6.73
	c0,3.72-3.014,6.732-6.732,6.732c-3.718,0-6.73-3.014-6.73-6.732C1914.851,634.051,1917.865,631.037,1921.583,631.037z
	 M1921.583,579.037c3.72,0,6.732,3.014,6.732,6.73c0,3.72-3.014,6.732-6.732,6.732c-3.718,0-6.73-3.014-6.73-6.732
	C1914.851,582.051,1917.865,579.037,1921.583,579.037z M1921.583,527.037c3.72,0,6.732,3.014,6.732,6.73
	c0,3.72-3.014,6.732-6.732,6.732c-3.718,0-6.73-3.014-6.73-6.732C1914.851,530.051,1917.865,527.037,1921.583,527.037z
	 M1921.583,475.037c3.72,0,6.732,3.014,6.732,6.73c0,3.72-3.014,6.732-6.732,6.732c-3.718,0-6.73-3.014-6.73-6.732
	C1914.851,478.051,1917.865,475.037,1921.583,475.037z M1921.583,423.037c3.72,0,6.732,3.014,6.732,6.73
	c0,3.72-3.014,6.732-6.732,6.732c-3.718,0-6.73-3.014-6.73-6.732C1914.851,426.051,1917.865,423.037,1921.583,423.037z
	 M1978.152,735.037c3.718,0,6.732,3.014,6.732,6.73c0,3.72-3.016,6.732-6.732,6.732s-6.73-3.014-6.73-6.732
	C1971.422,738.051,1974.434,735.037,1978.152,735.037z M1978.152,683.037c3.718,0,6.732,3.014,6.732,6.73
	c0,3.72-3.016,6.732-6.732,6.732s-6.73-3.014-6.73-6.732C1971.422,686.051,1974.434,683.037,1978.152,683.037z M1978.152,631.037
	c3.718,0,6.732,3.014,6.732,6.73c0,3.72-3.016,6.732-6.732,6.732s-6.73-3.014-6.73-6.732
	C1971.422,634.051,1974.434,631.037,1978.152,631.037z M1978.152,579.037c3.718,0,6.732,3.014,6.732,6.73
	c0,3.72-3.016,6.732-6.732,6.732s-6.73-3.014-6.73-6.732C1971.422,582.051,1974.434,579.037,1978.152,579.037z M1978.152,527.037
	c3.718,0,6.732,3.014,6.732,6.73c0,3.72-3.016,6.732-6.732,6.732s-6.73-3.014-6.73-6.732
	C1971.422,530.051,1974.434,527.037,1978.152,527.037z M1978.152,475.037c3.718,0,6.732,3.014,6.732,6.73
	c0,3.72-3.016,6.732-6.732,6.732s-6.73-3.014-6.73-6.732C1971.422,478.051,1974.434,475.037,1978.152,475.037z M2034.723,735.037
	c3.718,0,6.732,3.014,6.732,6.73c0,3.72-3.016,6.732-6.732,6.732s-6.732-3.014-6.732-6.732
	C2027.991,738.051,2031.007,735.037,2034.723,735.037z M2034.723,683.037c3.718,0,6.732,3.014,6.732,6.73
	c0,3.72-3.016,6.732-6.732,6.732s-6.732-3.014-6.732-6.732C2027.991,686.051,2031.007,683.037,2034.723,683.037z M2034.723,631.037
	c3.718,0,6.732,3.014,6.732,6.73c0,3.72-3.016,6.732-6.732,6.732s-6.732-3.014-6.732-6.732
	C2027.991,634.051,2031.007,631.037,2034.723,631.037z M2034.723,579.037c3.718,0,6.732,3.014,6.732,6.73
	c0,3.72-3.016,6.732-6.732,6.732s-6.732-3.014-6.732-6.732C2027.991,582.051,2031.007,579.037,2034.723,579.037z M2034.723,527.037
	c3.718,0,6.732,3.014,6.732,6.73c0,3.72-3.016,6.732-6.732,6.732s-6.732-3.014-6.732-6.732
	C2027.991,530.051,2031.007,527.037,2034.723,527.037z M2091.294,735.037c3.72,0,6.732,3.014,6.732,6.73
	c0,3.72-3.014,6.732-6.732,6.732c-3.718,0-6.73-3.014-6.73-6.732C2084.562,738.051,2087.576,735.037,2091.294,735.037z
	 M2091.294,683.037c3.72,0,6.732,3.014,6.732,6.73c0,3.72-3.014,6.732-6.732,6.732c-3.718,0-6.73-3.014-6.73-6.732
	C2084.562,686.051,2087.576,683.037,2091.294,683.037z M2091.294,631.037c3.72,0,6.732,3.014,6.732,6.73
	c0,3.72-3.014,6.732-6.732,6.732c-3.718,0-6.73-3.014-6.73-6.732C2084.562,634.051,2087.576,631.037,2091.294,631.037z
	 M2091.294,579.037c3.72,0,6.732,3.014,6.732,6.73c0,3.72-3.014,6.732-6.732,6.732c-3.718,0-6.73-3.014-6.73-6.732
	C2084.562,582.051,2087.576,579.037,2091.294,579.037z M2147.863,735.037c3.718,0,6.732,3.014,6.732,6.73
	c0,3.72-3.015,6.732-6.732,6.732c-3.717,0-6.73-3.014-6.73-6.732C2141.133,738.051,2144.145,735.037,2147.863,735.037z
	 M2147.863,683.037c3.718,0,6.732,3.014,6.732,6.73c0,3.72-3.015,6.732-6.732,6.732c-3.717,0-6.73-3.014-6.73-6.732
	C2141.133,686.051,2144.145,683.037,2147.863,683.037z M2147.863,631.037c3.718,0,6.732,3.014,6.732,6.73
	c0,3.72-3.015,6.732-6.732,6.732c-3.717,0-6.73-3.014-6.73-6.732C2141.133,634.051,2144.145,631.037,2147.863,631.037z
	 M2204.434,735.037c3.718,0,6.732,3.014,6.732,6.73c0,3.72-3.016,6.732-6.732,6.732s-6.732-3.014-6.732-6.732
	C2197.702,738.051,2200.718,735.037,2204.434,735.037z M2204.434,683.037c3.718,0,6.732,3.014,6.732,6.73
	c0,3.72-3.016,6.732-6.732,6.732s-6.732-3.014-6.732-6.732C2197.702,686.051,2200.718,683.037,2204.434,683.037z M2261.005,735.037
	c3.72,0,6.732,3.014,6.732,6.73c0,3.72-3.014,6.732-6.732,6.732c-3.718,0-6.73-3.014-6.73-6.732
	C2254.273,738.051,2257.288,735.037,2261.005,735.037z M1638.969,753.634c0.131,3.904,3.022,7.424,6.562,9.034
	c9.105,4.123,19.2,4.297,28.978,4.75c226.023,4.771,452.021,9.111,678.122,13.703c6.776-0.35,15.912-0.361,19.698-7.115
	c3.666-6.158,11.823-8.388,17.868-4.275c8.304,8.916,16.878,17.771,29.241,21.072c88.754,21.129,177.211,43.562,265.814,65.574
	c169.146,42.35,338.248,84.838,507.49,127.373c21.356,5.674,43.154,10.092,64.072,17.021c7.088,2.145,15-1.816,17.143-8.426
	c7.111-18.971,13.789-38.082,21.488-56.855c10.914-29.391,24.369-57.643,36.701-86.406c6.68-15.385,14.334-30.77,25.948-43.461
	c6.884-7.561,15.132-13.896,23.821-19.615c25.343-16.484,51.468-31.938,77.64-47.062c5.521-3.646,11.621-8.037,13.812-14.313
	c0.772-5.027-5.479-6.277-9.189-6.856c-16.52-1.772-33.074,1.713-49.35,2.968c-126.824,12.189-253.852,22.609-380.877,33.504
	c-30.188,2.801-60.479,3.551-90.629,5.743c-20.174,3.562-40.648-0.435-60.104-5.021c-39.1-9.555-76.15-25.436-112.908-41.217
	c-41.5-18.104-82.66-36.705-123.771-55.918c-106.42-49.986-212.843-100.904-314.334-159.856
	c-66.979-38.61-133.179-78.06-199.08-118.345c-52.268-32.141-104.727-64.189-154.55-99.577
	c-56.521-38.643-114.459-75.571-172.25-112.452c-23.368-16.729-48.845-30.723-75.188-42.669
	c-41.695-18.937-86.224-32.112-131.862-38.351c-28-3.476-56.146-5.602-84.341-8.521c-71.587-6.72-143.127-14.047-214.812-20.489
	l-37.478-2.486c-15.143,0.785-30.309,2.312-45.366,3.378c-23.062,1.908-46.208,3.628-69.271,5.63
	c-12.23,2.46-24.78,0.644-36.957-1.251c-16.404-2.966-32.482-7.406-48.778-10.832C992.238,36.74,921.969,22.493,851.611,8.148
	c-9.944-2.099-20.092-3.647-29.812-6.759c-15.67-2.755-31.696-0.516-47.422,1.084C711.931,9.077,649.41,15.212,586.892,21.256
	c-87.729,8.436-175.443,16.5-263.221,23.636c-47.794,3.761-95.577,7.428-143.505,9.701c-23.218,1.069-46.4,1.211-69.604,1.724
	c-29.692,0.571-59.384,1.142-89.073,1.621c-3.613-0.122-6.473,2.192-9.496,3.852C7.73,64.52,3.001,67.234,0.616,71.976
	c-1.479,2.639,0.361,5.761,2.917,6.96c6.649,3.564,14.426,3.919,21.721,4.815c49.532,5.016,99.188,9.292,148.737,13.659
	c169.782,15.006,339.514,29.595,509.23,44.069c9.282,0,16.793,17.328,16.793,38.743c0,24.521-8.272,44.364-18.494,44.364
	l-4.263,0.209l-11.356,1.212l-7.125,1.175l-4.354,0.922c-2.604,5.233-4.53,10.959-6.545,16.443
	c-5.731,15.593-13.112,33.329-29.616,40.1l-0.003-0.008c-13.152,3.66-22.807,15.723-22.807,30.042
	c0,17.221,13.961,31.182,31.186,31.182c17.221,0,31.182-13.961,31.182-31.182c0-12.715,9.468-23.004,21.167-23.004
	c0.001,0,7.831,0.09,7.831,0.09l17.253,0.297l21.977,0.56l24.082,0.904l19.134,0.98l19.146,1.25l16.697,1.339l26.411,2.708
	l18.592,2.7l12.542,2.11l14.696,2.62l18.15,3.29l13.411,2.729l9.753,2.278l9.967,2.691l13.801,4.549l16.768,7.303l9.583,5.161
	l24.494,15.639l13.915,9.854l19.562,14.355l12.959,10.722l13.015,11.726l9.792,10.306l7.927,8.646l10.553,13.235l11.02,15.563
	l11.487,18.087l13.703,23.479l7.451,13.205l13.162,23.588l13.706,25.07l5.4,9.803l11.31,20.835l27.61,51.231l32.136,60.25
	l25.373,47.824l5.062-4.691l5.285-2.939l7.125-2.633l9.695-2.562l10.975-2.111l15.433-2.062l13.679-1.188l23.241-1.221l22.985-0.971
	l41.016-1.357l62.896-1.646l68.253-1.388c0,0,83.511-1.458,83.561-1.459c9.081,0,16.43,18.437,16.43,41.21L1638.969,753.634
	L1638.969,753.634z"/>
</svg>
