<?xml version="1.0" encoding="utf-8"?>
<!-- Generator: Adobe Illustrator 16.0.0, SVG Export Plug-In . SVG Version: 6.00 Build 0)  -->
<!DOCTYPE svg PUBLIC "-//W3C//DTD SVG 1.1//EN" "http://www.w3.org/Graphics/SVG/1.1/DTD/svg11.dtd">
<svg version="1.1" id="Layer_1" xmlns="http://www.w3.org/2000/svg" xmlns:xlink="http://www.w3.org/1999/xlink" x="0px" y="0px"
	 width="454.002px" height="1046.264px" viewBox="0 0 454.002 1046.264" enable-background="new 0 0 454.002 1046.264"
	 xml:space="preserve">
<path fill="none" stroke="#000000" stroke-miterlimit="10" d="M301.377,724.511c-6.489-5.384-164.055-151.312-164.055-151.312
	s-16.104-8.853-14.179,10.093c1.925,18.939,48.197,333.739,48.197,333.739s3.356,15.396,12.462,24.333
	c9.107,8.936,109.712,102.502,109.712,102.502s12.317,9.971,15.341-10.723L308.08,743.53
	C308.081,743.527,307.87,729.896,301.377,724.511z M446.427,42.187c6.041-23.337,8.472-36.259,7.284-38.836
	C453.12,2.134,452.17,1.137,451.004,0c-4.242,0.63-8.183,2.192-11.823,4.615c-0.067,0.145-9.166,9.767-27.143,28.864
	c-28.635,30.394-120.482,118.555-141.275,137.039l-9.83,8.551l-9.826,8.839l-9.828,8.479l-9.686,8.765l-9.9,8.551l-9.39,9.121
	l-10.194,8.196c-2.138,1.756-15.244,13.084-39.604,34.206c-36.256,31.355-76.961,63.991-122.188,97.836L29.974,370.9l-10.415,7.766
	L8.781,386.22c-2.212,1.611-5.27,4.676-8.742,9.184c-0.062,0.794-0.05,1.658,0.033,2.521c0.565,4.891,53.633,66.578,66.924,81.103
	c28.038,30.25,52.201,55.864,72.486,76.778c36.849,37.846,81.041,81.142,132.642,129.599c15.743,14.857,25.374,23.235,28.936,25.312
	c0,0,5.112,1.333,9.067,0.836c0.227-0.034,0.459-0.067,0.698-0.107l0.18-0.029l0.006-0.001c1.314-0.219,2.801-0.508,4.485-0.884
	l0.012-0.003c11.414-2.309,66.345-15.436,75.164-17.986c0,0,13.902-3.193,10.842-8.564c-10.404-121.934-10.9-240.241-1.417-354.938
	C409.028,221.401,424.446,125.786,446.427,42.187z"/>
</svg>
