<?xml version="1.0" encoding="utf-8"?>
<!-- Generator: Adobe Illustrator 16.0.0, SVG Export Plug-In . SVG Version: 6.00 Build 0)  -->
<!DOCTYPE svg PUBLIC "-//W3C//DTD SVG 1.1//EN" "http://www.w3.org/Graphics/SVG/1.1/DTD/svg11.dtd">
<svg version="1.1" id="Layer_1" xmlns="http://www.w3.org/2000/svg" xmlns:xlink="http://www.w3.org/1999/xlink" x="0px" y="0px"
	 width="1709.156px" height="1083.205px" viewBox="0 0 1709.156 1083.205" enable-background="new 0 0 1709.156 1083.205"
	 xml:space="preserve">
<path d="M158.083,0c0.908,3.123,1.815,6.244,2.79,9.172c19.408,48.984,38.949,97.576,58.36,146.561
	c2.4,5.789,3.764,12.748,9.548,16.199c77.416,53.838,154.962,107.285,234.595,157.742c28.212,17.449,56.1,35.873,86.72,49.355
	c83.346,37.389,174.383,51.109,264.251,62.488c44.735,4.978,89.346,11.644,134.478,12.845
	c76.086,2.005,152.183-5.099,227.366-16.617c30.569-5.184,61.528-9.581,91.062-19.446c71.485-23.165,141.938-49.714,212.582-75.548
	c52.817-19.862,105.898-39.205,158.396-60.043c-29.238-39.041-59.516-77.562-89.014-116.473
	c-33.829,16.885-70.449,27.199-106.875,36.278c-73.894,18.027-149.076,29.55-224.456,39.056
	c-78.896,10.936-158.814,5.48-237.893-1.209c-104.11-9.633-207.763-25.184-311.285-40.475
	c-59.305-8.104-118.146-21.479-175.17-40.313c-52.08-16.75-102.657-37.987-152.979-59.354
	c-55.396-22.411-109.415-48.918-158.559-83.549C174.072,11.197,166.664,4.817,158.083,0z M2.183,965.235
	c-1.695,3.381-2.794,7.299-1.814,11.043c0.814,3.289,3.27,5.859,6.171,7.463c5.391,3.068,11.729,3.545,17.646,5.055
	c21.973,5.318,43.845,10.959,65.885,15.895c48.937,11.201,98.358,20.324,148.015,27.697c39.268,5.908,78.801,10.277,118.303,14.589
	c114.312,12.558,228.711,24.021,343.174,35.104c5.646,0.414,11.345,1.654,17.055,0.873c1.356-0.293,3.125-0.613,3.732-2.098
	c0.404-1.648-0.886-3.059-1.896-4.229c-3.679-3.863-8.295-6.646-12.774-9.539c-16.64-10.166-33.625-19.68-50.571-29.332
	c-63.856-35.885-128.393-70.559-193.687-103.744c-41.53-20.984-83.345-41.553-126.219-59.812
	c-61.992-26.604-124.179-52.908-186.651-78.441c-2.06-0.885-4.034-2.195-6.298-2.59c-5.896-1.25-11.941,0.797-17.003,3.754
	c-2.065,1.289-4.337,2.418-5.772,4.459C83.013,852.249,46.519,903.055,10.059,953.924C7.469,957.739,4.507,961.288,2.183,965.235z
	 M1703.897,719.409c9.242-21.127,5.938-46.582-7.027-65.438c-55.596-83.5-111.188-167-166.785-250.5
	c-6.114-8.969-11.536-18.188-18.107-26.674c-102.874,33.88-205.734,68.229-308.604,102.346
	c-78.941,26.398-158.896,50.248-239.937,68.976c-50.53,11.758-102.172,17.453-154,16.588
	c-72.706-1.439-143.729-25.896-204.61-64.709c-86.438-55.43-170.405-114.678-251.206-177.768
	c-65.458-51.342-129.561-104.359-192.518-158.352c-9.121-7.473-16.87-16.16-26.675-22.912
	c-1.226,186.857-1.507,373.922-2.026,560.757c0.368,21.086-1.137,42.229,0.4,63.277c12.174,7.623,26.151,12.85,39.008,19.75
	c184.502,91.068,369.003,182.137,553.504,273.207c21.087,7.836,44.367,2.248,65.259-4.912
	c186.893-63.238,373.245-128.805,559.861-193.438c10.681-3.592,21.093-8.342,32.281-10.533
	c-34.771,21.854-70.772,41.635-107.029,60.721c-61.893,32.479-127.788,56.158-191.929,83.775
	c49.292,18.752,99.445,34.896,149.182,52.698c22.768,9.192,49.475,8.666,71.662-2.28c46.696-22.9,93.619-46.041,139.312-71.256
	c17.525-10.111,35.526-20.002,50.107-34.721c59.317-57.014,116.705-115.85,174.812-174.232
	C1681.567,750.049,1697.386,737.643,1703.897,719.409z"/>
</svg>
