<?xml version="1.0" encoding="utf-8"?>
<!-- Generator: Adobe Illustrator 16.0.0, SVG Export Plug-In . SVG Version: 6.00 Build 0)  -->
<!DOCTYPE svg PUBLIC "-//W3C//DTD SVG 1.1//EN" "http://www.w3.org/Graphics/SVG/1.1/DTD/svg11.dtd">
<svg version="1.1" id="Layer_1" xmlns="http://www.w3.org/2000/svg" xmlns:xlink="http://www.w3.org/1999/xlink" x="0px" y="0px"
	 width="1709.158px" height="1083.204px" viewBox="0 0 1709.158 1083.204" enable-background="new 0 0 1709.158 1083.204"
	 xml:space="preserve">
<path fill="none" stroke="#000000" stroke-linejoin="round" stroke-miterlimit="10" d="M1609.793,293.84
	c9.495-3.671,18.976-7.378,28.438-11.133c-6.66-8.893-13.374-17.759-20.121-26.609"/>
<path fill="none" stroke="#000000" stroke-linejoin="round" stroke-miterlimit="10" d="M720.408,1079.954
	c-0.132-1.267-1.137-2.376-1.956-3.326c-3.679-3.863-8.295-6.645-12.777-9.539c-16.637-10.166-33.625-19.68-50.568-29.332
	c-63.858-35.885-128.396-70.559-193.688-103.744c-41.53-20.982-83.342-41.553-126.216-59.811
	c-61.993-26.604-124.179-52.908-186.652-78.441c-2.06-0.885-4.036-2.195-6.298-2.59c-5.896-1.25-11.943,0.797-17.003,3.754
	c-1.338,0.835-2.762,1.603-3.989,2.595"/>
<path fill="none" stroke="#000000" stroke-linejoin="round" stroke-miterlimit="10" d="M132.803,764.999
	c12.173,7.623,26.152,12.85,39.007,19.75c184.502,91.068,369.002,182.137,553.504,273.207c4.73,1.758,9.57,2.84,14.469,3.381"/>
<path fill="none" stroke="#000000" stroke-linejoin="round" stroke-miterlimit="10" d="M1511.976,376.798
	c-102.874,33.88-205.731,68.229-308.602,102.346c-78.944,26.398-158.897,50.248-239.937,68.974
	c-50.53,11.758-102.175,17.453-154,16.588c-72.706-1.439-143.729-25.895-204.61-64.708
	c-86.438-55.43-170.408-114.678-251.206-177.768c-65.459-51.343-129.561-104.36-192.518-158.354
	c-9.121-7.473-16.87-16.16-26.674-22.912"/>
<path fill="none" stroke="#000001" stroke-linejoin="round" stroke-miterlimit="10" d="M1500.501,335.004
	c-6.893,2.576-13.783,5.157-20.669,7.746c-70.643,25.834-141.094,52.383-212.581,75.548c-29.535,9.865-60.494,14.263-91.062,19.446
	c-75.186,11.519-151.279,18.622-227.365,16.617c-45.13-1.201-89.741-7.867-134.479-12.845
	c-89.868-11.379-180.902-25.099-264.251-62.487c-30.62-13.482-58.508-31.906-86.719-49.355
	c-79.631-50.457-157.177-103.904-234.593-157.742c-5.785-3.451-7.146-10.41-9.548-16.199
	c-19.411-48.985-38.952-97.577-58.361-146.561c-0.974-2.928-1.882-6.049-2.79-9.172"/>
</svg>
