<?xml version="1.0" encoding="utf-8"?>
<!-- Generator: Adobe Illustrator 16.0.0, SVG Export Plug-In . SVG Version: 6.00 Build 0)  -->
<!DOCTYPE svg PUBLIC "-//W3C//DTD SVG 1.1//EN" "http://www.w3.org/Graphics/SVG/1.1/DTD/svg11.dtd">
<svg version="1.1" id="Layer_1" xmlns="http://www.w3.org/2000/svg" xmlns:xlink="http://www.w3.org/1999/xlink" x="0px" y="0px"
	 width="1044.902px" height="2102.208px" viewBox="0 0 1044.902 2102.208" enable-background="new 0 0 1044.902 2102.208"
	 xml:space="preserve">
<path fill="none" stroke="#000000" stroke-miterlimit="10" d="M19.505,1099.701c0,0-17.86-91.857-17.86-91.856
	c-0.979-5.258-1.241-11.735-0.629-19.367c-1.191-24.512-2.01-61.155,1.568-89.81C8.428,851.353,38.475,356.48,38.475,356.48
	s7.99-136.309,165.809-349.59c2.865-3.87,11.742-9.566,17.436-5.471c46.256,33.274,270.195,196.858,505.953,412.066
	c2.35,2.145,6.904,7.726,5.789,17.348s-9.729,83.614-10.339,89.191l14.386,204.635l31.633,328.841
	c0.527,5.483,1.059,14.438,1.221,19.955c0,0-0.016,0.144-8.203,7.34c0,0-31.875,33.585-67.62,110.776
	c0,0-11.856,19.707,21.962,98.212c0,0,116.211,250.41,249.332,592.513l79.07,156.295l-78.155,61.572
	c-4.393,3.313-10.751,2.519-14.146-1.808L406.771,1595.64c0,0-15.357-11.918-27.127-26.366l-9.35,2.306
	c0,0-136.025-264.088-165.377-325.348c-29.275-61.322-150.943-104.468-150.943-104.468c-22.728-15.467-32.756-29.062-34.474-42.062
	H19.505z"/>
</svg>
