<?xml version="1.0" encoding="utf-8"?>
<!-- Generator: Adobe Illustrator 16.0.0, SVG Export Plug-In . SVG Version: 6.00 Build 0)  -->
<!DOCTYPE svg PUBLIC "-//W3C//DTD SVG 1.1//EN" "http://www.w3.org/Graphics/SVG/1.1/DTD/svg11.dtd">
<svg version="1.1" id="Layer_1" xmlns="http://www.w3.org/2000/svg" xmlns:xlink="http://www.w3.org/1999/xlink" x="0px" y="0px"
	 width="1403.338px" height="251.961px" viewBox="0 0 1403.338 251.961" enable-background="new 0 0 1403.338 251.961"
	 xml:space="preserve">
<path fill="none" stroke="#1D1D1B" stroke-linejoin="round" stroke-miterlimit="10" d="M692.48,150.619
	c17.582-11.204,35.951-21.219,54.642-30.419c48.785-25.144,101.324-41.368,152.418-60.605c29.636-10.614,58.828-21.926,88.24-32.89"
	/>
<path fill="none" stroke="#1D1D1B" stroke-linejoin="round" stroke-miterlimit="10" d="M1056.422,37.798
	c-17.684,0.312-32.77,1.25-42.565,3.188c-6.163,1.221-57.219,13.385-57.984,13.728L923.48,64.832
	c-56.544,15.561-110.865,37.914-163.923,62.759c-9.243,4.326-21.457,10.048-24.923,17.394c-0.684,1.44-1.007,4.158-0.942,7.863
	c0.169,9.707,9.023,16.465,21.341,21.315"/>
</svg>
