<?xml version="1.0" encoding="utf-8"?>
<!-- Generator: Adobe Illustrator 16.0.0, SVG Export Plug-In . SVG Version: 6.00 Build 0)  -->
<!DOCTYPE svg PUBLIC "-//W3C//DTD SVG 1.1//EN" "http://www.w3.org/Graphics/SVG/1.1/DTD/svg11.dtd">
<svg version="1.1" id="Layer_1" xmlns="http://www.w3.org/2000/svg" xmlns:xlink="http://www.w3.org/1999/xlink" x="0px" y="0px"
	 width="1737.393px" height="715.305px" viewBox="0 0 1737.393 715.305" enable-background="new 0 0 1737.393 715.305"
	 xml:space="preserve">
<path d="M1662.632,645.749l-8.574,13.311l-8.047,10.681l-7.797,8.647l-6.154,5.58l-8.07,5.484l-8.481,3.246l-8.207,0.268
	l-6.062-1.951l-14.691-9.051l-24.02-12.707l-14.695-7.188l-29.271-13.308l-18.914-7.977l-20.49-8.154l-30.098-11.135l-28.441-9.672
	l-30.887-9.633l-32.705-9.271l-38.961-9.854l-16.006-3.691l-37.672-7.895l-32.496-5.943l-43.617-6.756l-33.49-4.264l-45.424-4.537
	l-38.489-2.752l-36.998-1.72l-18.959-0.528l-35.354,2.061l-25.801,6.174l-51.479,13.937l-171.709,50.284l-311.366,97.041
	l-2.146,0.562l-2.573,0.266l-3.62-0.565l-3.938-0.814l-175.921-36.094l-151.615-31L0,630.208l61.421-42.744l184.811-126.188
	l247.468-168.974l4.54-2.622l4.375-1.989l9.507-4.643c0,0,7.504-3.958,8.766-4.658c1.26-0.7,11.754-6.803,11.754-6.803l13.513-8.567
	l8.049-5.492l15.062-10.995l10.479-8.229l15.04-12.704l11.857-10.811l13.502-13.235l10.984-11.559l10.969-12.311l12.613-15.211
	l13.347-17.464l10.946-15.524l11.228-17.217l8.854-14.649l8.545-15.175l8.038-15.362l6.585-13.591l7.388-16.068l7.408-17.599
	l4.698-12.429l0.986-2.79c0,0,0.271-4.466,4.417-4.583c4.145-0.116,6.297,0.241,6.297,0.241l3.747,0.853l6.852,2.191l7.712,3.124
	l10.896,4.729l108.572,47.035l99.18,43.073l244.972,106.275l258.719,112.252l162.756,74.038l21.312,10.75l20.582,12.008l7.021,3.972
	c0,0,44.02,23.366,28.195,62.503c-15.816,39.134-24.476,59.505-24.476,59.505L1662.632,645.749z"/>
</svg>
