<?xml version="1.0" encoding="utf-8"?>
<!-- Generator: Adobe Illustrator 16.0.0, SVG Export Plug-In . SVG Version: 6.00 Build 0)  -->
<!DOCTYPE svg PUBLIC "-//W3C//DTD SVG 1.1//EN" "http://www.w3.org/Graphics/SVG/1.1/DTD/svg11.dtd">
<svg version="1.1" id="Layer_1" xmlns="http://www.w3.org/2000/svg" xmlns:xlink="http://www.w3.org/1999/xlink" x="0px" y="0px"
	 width="1400.662px" height="276.812px" viewBox="0 0 1400.662 276.812" enable-background="new 0 0 1400.662 276.812"
	 xml:space="preserve">
<path d="M1394.854,0c-144.444,6.051-288.936,14.704-433.57,18.69c-69.479,2.523-138.854,5.993-208.354,6.652
	c-68.357,0.396-137.101,2.985-205.294-2.562c-15.146-1.357-30.334-0.111-45.136,3.031c-29.759,5.896-59.479,11.427-89.235,17.325
	c29.593,10.469,58.969,21.292,88.779,31.405c51.407,18.381,104.21,33.724,153.407,58.05c37.513,17.693,73.803,38.632,105.243,65.832
	c11.917,10.375,20.967,23.658,33.283,33.697c4.94,3.051,9.667-1.924,13.455-4.75c24.683-21.99,52.696-39.588,80.505-57.016
	c67.263-40.146,139.021-72.253,213.559-95.92c78.243-25.57,159.493-38.956,240.848-49.355c19.604-2.712,40.775-2.119,58.318-13.021
	C1398.608,7.969,1396.74,3.892,1394.854,0z M643.283,137.581c-53.692-23.435-108.588-44.345-165.521-58.41l-32.647-9.26
	c-0.772-0.324-52.134-11.136-58.329-12.191c-29.024-4.95-103.799,0.011-155.583,3.443c-28.983,1.922-58.055,2.59-86.979,5.322
	l-51.68,4.88c-13.05,1.233-34.58,3.267-37.401,10.938c-1.3,3.54-0.668,9.345,1.957,17.324l2.821,8.83
	c3.176,9.934,1.059,21-6.465,28.38c-6.997,6.865-16.219,11.114-26.046,11.458c-3.91,0.14-7.687,0.689-11.378,1.812
	c-6.512,1.754-9.938,3.203-10.573,4.312l-5.343,9.734c-1.021,1.969,4.954,15.938,7.295,17.996l14.509,25.018
	c9.124,15.732,18.169,27.455,28.303,46.646c2.035,3.854,7.316,15.666,17.303,20.237c3.039,1.375,7.247,2.287,12.77,2.718
	c5.969,0.51,34.409-3.634,36.327-3.869c92.465-11.48,194.497-29.211,291.388-46.047c8.019-1.396,15.19-2.591,21.472-3.438
	c46.82-6.315,93.288-14.91,139.938-22.324l23.469-3.729c28.37-4.51,77.132-12.26,76.922-35.213
	c-0.034-3.705-0.432-6.414-1.148-7.836C664.996,147.058,652.636,141.664,643.283,137.581z"/>
</svg>
