<?xml version="1.0" encoding="utf-8"?>
<!-- Generator: Adobe Illustrator 16.0.0, SVG Export Plug-In . SVG Version: 6.00 Build 0)  -->
<!DOCTYPE svg PUBLIC "-//W3C//DTD SVG 1.1//EN" "http://www.w3.org/Graphics/SVG/1.1/DTD/svg11.dtd">
<svg version="1.1" id="Layer_1" xmlns="http://www.w3.org/2000/svg" xmlns:xlink="http://www.w3.org/1999/xlink" x="0px" y="0px"
	 width="1400.66px" height="276.812px" viewBox="0 0 1400.66 276.812" enable-background="new 0 0 1400.66 276.812"
	 xml:space="preserve">
<path fill="none" stroke="#1D1D1B" stroke-linejoin="round" stroke-miterlimit="10" d="M413.265,43.137
	c29.594,10.469,58.97,21.292,88.779,31.406c51.409,18.381,104.21,33.723,153.409,58.051c20.74,9.783,41.107,20.558,60.488,32.835"/>
<path fill="none" stroke="#1D1D1B" stroke-linejoin="round" stroke-miterlimit="10" d="M651.117,183.102
	c11.079-5.075,18.771-11.809,18.688-20.954c-0.034-3.705-0.432-6.414-1.147-7.836c-3.66-7.254-16.021-12.648-25.373-16.731
	c-53.694-23.435-108.588-44.345-165.522-58.41l-32.646-9.26c-0.774-0.324-52.134-11.136-58.329-12.191
	c-8.772-1.496-21.724-2.088-36.957-2.09"/>
</svg>
