<?xml version="1.0" encoding="utf-8"?>
<!-- Generator: Adobe Illustrator 16.0.0, SVG Export Plug-In . SVG Version: 6.00 Build 0)  -->
<!DOCTYPE svg PUBLIC "-//W3C//DTD SVG 1.1//EN" "http://www.w3.org/Graphics/SVG/1.1/DTD/svg11.dtd">
<svg version="1.1" id="Layer_1" xmlns="http://www.w3.org/2000/svg" xmlns:xlink="http://www.w3.org/1999/xlink" x="0px" y="0px"
	 width="2971.062px" height="1247.551px" viewBox="0 0 2971.062 1247.551" enable-background="new 0 0 2971.062 1247.551"
	 xml:space="preserve">
<path d="M0,742.578c29.992,29.643,57.619,61.588,83.932,94.52c35.516,44.729,68.317,91.603,98.48,140.082
	c6.504,9.879,12.174,20.283,18.453,30.312c44.267,74.895,82.643,153.289,114.582,234.221c0.744,2.084,1.9,3.971,3.086,5.84
	c31.215-26.942,62.29-54.078,93.544-80.983c47.263-34.888,94.901-69.267,142.856-103.188
	c61.075-43.199,122.677-85.666,185.497-126.268c6.531-3.83,12.587-8.4,19.131-12.224c33.801-21.037,67.627-42.116,103.17-60.129
	c3.965-2.098,8.171-3.75,11.932-6.221c-5.617-1.842-11.542-2.496-17.281-3.846c-53.905-11.113-107.875-21.871-161.791-32.938
	c-87.312-17.99-174.667-35.811-261.988-53.736c-3.872-0.629-7.649-1.807-11.55-2.196c-2.63,1.006-4.613,3.151-7.034,4.539
	c-24.124,14.364-51.613,22.315-79.337,25.881c-36.981,4.735-74.596,1.739-111.007-5.738
	c-69.332-13.18-138.335-28.055-207.067-44.047C11.72,745.212,5.962,743.367,0,742.578z M2099.819,769.832l-8.576,13.311
	l-8.045,10.679l-7.797,8.649l-6.156,5.58l-8.069,5.484l-8.482,3.246l-8.207,0.268l-6.062-1.951l-14.693-9.051l-24.018-12.707
	l-14.697-7.188l-29.271-13.306l-18.911-7.977l-20.492-8.154l-30.096-11.135l-28.443-9.672l-30.887-9.633l-32.705-9.271
	l-38.961-9.854l-16.004-3.691l-37.675-7.895l-32.493-5.943l-43.619-6.756l-33.49-4.265l-45.424-4.536l-38.49-2.752l-36.998-1.718
	l-18.96-0.53l-35.352,2.061l-25.801,6.174l-51.479,13.935l-171.71,50.283l-311.367,97.041l-2.145,0.565l-2.574,0.266l-3.62-0.567
	l-3.936-0.814L668.19,801.914l-151.614-31l-79.389-16.625l61.423-42.744l184.81-126.188l247.468-168.974l4.54-2.622l4.375-1.989
	l9.507-4.643c0,0,7.503-3.958,8.765-4.658c1.261-0.7,11.754-6.803,11.754-6.803l13.512-8.567l8.049-5.492l15.062-10.995
	l10.479-8.229l15.04-12.704l11.859-10.811l13.502-13.235l10.983-11.559l10.969-12.311l12.613-15.211l13.347-17.464l10.944-15.523
	l11.229-17.217l8.854-14.649l8.546-15.175l8.037-15.362l6.585-13.591l7.392-16.068l7.408-17.599l4.697-12.429l0.987-2.79
	c0,0,0.274-4.466,4.417-4.583c4.146-0.116,6.297,0.241,6.297,0.241l3.747,0.852l6.851,2.191l7.714,3.124l10.896,4.729
	l108.573,47.035l99.178,43.073l244.97,106.275l258.722,112.252l162.756,74.037l21.311,10.749l20.582,12.009l7.023,3.972
	c0,0,44.018,23.367,28.197,62.5c-15.818,39.136-24.478,59.507-24.478,59.507L2099.819,769.832z M1199.383,113.401l927.196,399.833
	l56.041,24.977c0,0,9.848,6.663,15.975-4.685c6.127-11.351,46.025-101.582,87.898-125.064
	c41.873-23.482,89.547-45.336,159.532-37.91c69.984,7.426,177.734,27.67,253.604,64.738c75.868,37.068,93.855,49.122,116.73,47.096
	c22.875-2.022,132.904-12.66,132.904-12.66s28.385,2.471,20.375-23.311c-8.012-25.778-2.152-54.605-81.697-91.976
	c-79.547-37.37-412.28-177.52-412.28-177.52s-225.436-93.985-390.299-122.628c-164.865-28.643-301.854-51.184-415.188-52.57
	c-113.334-1.387-218.198-6.566-289.115,12.004s-92.078,26.488-92.078,26.488l-32.766,15.601l-33.854,19.998l-16.593,12.565
	l-8.218,7.512C1197.554,95.891,1180.912,107.19,1199.383,113.401z"/>
</svg>
