<?xml version="1.0" encoding="utf-8"?>
<!-- Generator: Adobe Illustrator 16.0.0, SVG Export Plug-In . SVG Version: 6.00 Build 0)  -->
<!DOCTYPE svg PUBLIC "-//W3C//DTD SVG 1.1//EN" "http://www.w3.org/Graphics/SVG/1.1/DTD/svg11.dtd">
<svg version="1.1" id="Layer_1" xmlns="http://www.w3.org/2000/svg" xmlns:xlink="http://www.w3.org/1999/xlink" x="0px" y="0px"
	 width="689.031px" height="901.879px" viewBox="0 0 689.031 901.879" enable-background="new 0 0 689.031 901.879"
	 xml:space="preserve">
<path d="M679.736,9.642c3.229-2.692,6.918-4.975,9.295-8.544c-9.407,143.728-19.026,287.461-28.752,431.167
	c-1.846,21.643-2.028,43.512-6.334,64.865c-2.324,10.662-5.283,21.459-11.165,30.762c-12.354,15.979-23.997,32.49-36.021,48.724
	c-53.103,72.383-106.184,144.789-159.539,216.973c-19.347,26.201-38.675,52.422-58.312,78.412
	c-4.933,6.211-9.2,13.109-15.438,18.154c-9.229,7.266-21.062,10.018-32.432,11.727c-9.33-2.643-19.21-4.334-27.438-9.811
	c-7.174-4.258-11.726-11.418-16.691-17.879c-24.548-32.832-48.587-66.054-72.782-99.146C182.621,718.057,141.235,661,99.892,603.907
	c-19.322-26.527-38.354-53.291-57.863-79.652c-9.584-17.746-12.08-38.26-13.65-58.074C21.667,361.25,15.414,256.294,9.06,151.345
	C6.002,100.895,2.843,50.453,0,0c46.717,37.842,98.232,69.45,151.774,96.646c60.988,30.831,125.105,55.461,191.088,73.277
	c1.34,0.394,2.746,0.241,4.087-0.097c79.48-21.16,156.368-52.127,228.309-91.992C611.613,57.592,646.844,35.174,679.736,9.642z"/>
</svg>
