<?xml version="1.0" encoding="utf-8"?>
<!-- Generator: Adobe Illustrator 16.0.0, SVG Export Plug-In . SVG Version: 6.00 Build 0)  -->
<!DOCTYPE svg PUBLIC "-//W3C//DTD SVG 1.1//EN" "http://www.w3.org/Graphics/SVG/1.1/DTD/svg11.dtd">
<svg version="1.1" id="Layer_1" xmlns="http://www.w3.org/2000/svg" xmlns:xlink="http://www.w3.org/1999/xlink" x="0px" y="0px"
	 width="1883.418px" height="693.425px" viewBox="0 0 1883.418 693.425" enable-background="new 0 0 1883.418 693.425"
	 xml:space="preserve">
<path d="M1796.027,107.146l86.229,477.193c0,0,16.541,100.662-75.186,107.029c-91.725,6.369-389.854-1.777-594.416-28.271
	c-204.561-26.488-346.752-42.811-465.396-102.664c-118.644-59.852-101.031-57.658-245.347-86.934
	C357.601,444.228,94.74,378.27,94.74,378.27l-8.544-2.985l-13.938-5.771l-7.17-3.562l-10.743-6.396l-7.625-5.589l-8.37-7.573
	l-7.177-7.857l-6.301-9.111l-4.146-11.049L5.164,125.218L0.887,55.181c0,0-12.146-60.654,53.458-54.779
	c65.603,5.876,299.62,34.688,299.62,34.688l211.826,20.93c0,0,52.869-1.453,57.11,34.912c4.239,36.364,4.492,80.167,4.492,80.167
	s4.948,29.808,9.238-2.972c4.289-32.78,5.641-79.953,5.641-79.953s-4.043-22.306,17.438-22.678
	c21.48-0.373,149.22,16.04,218.143,8.393c68.923-7.648,89.302-10.846,96.894-14.107c7.594-3.262,24.974-13.99,66.972-13.577
	c41.995,0.413,633.502,10.396,633.502,10.396l74.625-0.322C1749.842,56.275,1787.325,56.365,1796.027,107.146z"/>
</svg>
