<?xml version="1.0" encoding="utf-8"?>
<!-- Generator: Adobe Illustrator 16.0.0, SVG Export Plug-In . SVG Version: 6.00 Build 0)  -->
<!DOCTYPE svg PUBLIC "-//W3C//DTD SVG 1.1//EN" "http://www.w3.org/Graphics/SVG/1.1/DTD/svg11.dtd">
<svg version="1.1" id="Layer_1" xmlns="http://www.w3.org/2000/svg" xmlns:xlink="http://www.w3.org/1999/xlink" x="0px" y="0px"
	 width="1774.02px" height="708.351px" viewBox="0 0 1774.02 708.351" enable-background="new 0 0 1774.02 708.351"
	 xml:space="preserve">
<path fill="none" stroke="#000000" stroke-linejoin="round" stroke-miterlimit="10" d="M1652.173,585.162l-181.252-126
	l-242.699-168.719l-4.459-2.625l-4.299-1.998l-9.336-4.658c0,0-7.377-3.967-8.604-4.666c-1.238-0.701-11.543-6.809-11.543-6.809
	l-13.257-8.563l-7.896-5.483l-14.762-10.969l-10.275-8.207l-14.721-12.651l-11.615-10.765l-13.205-13.168l-10.739-11.492
	l-10.72-12.234l-12.318-15.107l-13.016-17.338l-10.67-15.404l-10.934-17.072l-8.611-14.522l-8.311-15.042l-7.8-15.226l-6.375-13.458
	l-7.161-15.904l-7.16-17.429L985.9,7.357l-0.947-2.76c0,0-0.238-4.411-4.322-4.562c-4.082-0.141-6.213,0.189-6.213,0.189
	l-3.701,0.816l-6.775,2.104l-7.633,3.009l-10.793,4.577L838.036,56.226l-98.188,41.668L497.332,200.699L241.201,309.285
	L80.049,380.968l-21.105,10.43l-20.405,11.67l-6.959,3.861c0,0-43.614,22.684-28.331,61.42
	c15.283,38.729,23.646,58.893,23.646,58.893l45.372,102.172l8.348,13.199l7.846,10.598l7.619,8.6l6.025,5.557l7.915,5.477
	l8.34,3.271l8.095,0.334l6-1.875l6.408-3.873l-0.784,0.178c0,0,3.005-1.84,8.896-5.084l0.048-0.027l0.073-0.039
	c5.464-3.006,13.385-7.207,23.664-12.264l0.059-0.033l0.108-0.051c4.382-2.154,9.194-4.465,14.426-6.904c0,0,0.027-0.014,0.042-0.02
	c13.188-6.148,29.043-13.115,47.468-20.494l0.216-0.09l0.256-0.104c6.363-2.545,13.031-5.137,19.998-7.762l0.035-0.012l0.026-0.012
	c9.309-3.504,19.148-7.066,29.517-10.645l0.227-0.08l0.309-0.102c17.852-6.15,37.252-12.348,58.148-18.383l0.227-0.066l0.17-0.045
	c10.271-2.967,20.911-5.893,31.896-8.75l0.271-0.074l0.211-0.053c12.312-3.203,25.069-6.328,38.266-9.342l0.037-0.012l0.164-0.035
	c4.97-1.133,10.007-2.25,15.104-3.35l0.552-0.123l0.218-0.043c11.938-2.572,24.206-5.043,36.809-7.395l0.195-0.037l0.281-0.051
	c10.288-1.914,20.793-3.752,31.518-5.494l0.304-0.053l0.164-0.023c13.905-2.254,28.18-4.35,42.808-6.26l0.113-0.018l0.106-0.014
	c10.704-1.396,21.601-2.691,32.679-3.881l0.287-0.033c0,0,0.244-0.023,0.249-0.023c47.983-4.533,96.327-8.555,144.546-5.848
	c92.236,5.18,185.11,44.861,273.116,71.436l306.328,98.299l2.115,0.576l2.537,0.283l3.578-0.531l3.883-0.771l173.834-34.146
	l149.803-29.322l78.445-15.742L1652.173,585.162z M72.207,568.859c-3.718,0-6.731-3.016-6.731-6.732
	c0-3.719,3.014-6.732,6.731-6.732c3.719,0,6.732,3.018,6.732,6.732C78.939,565.843,75.925,568.859,72.207,568.859z M72.207,516.859
	c-3.718,0-6.731-3.016-6.731-6.732c0-3.719,3.014-6.732,6.731-6.732c3.719,0,6.732,3.018,6.732,6.732
	C78.939,513.843,75.925,516.859,72.207,516.859z M72.207,464.859c-3.718,0-6.731-3.016-6.731-6.732c0-3.719,3.014-6.732,6.731-6.732
	c3.719,0,6.732,3.018,6.732,6.732C78.939,461.843,75.925,464.859,72.207,464.859z M128.777,620.859
	c-3.718,0-6.731-3.016-6.731-6.732c0-3.719,3.014-6.732,6.731-6.732c3.719,0,6.732,3.018,6.732,6.732
	C135.509,617.843,132.496,620.859,128.777,620.859z M128.777,568.859c-3.718,0-6.731-3.016-6.731-6.732
	c0-3.719,3.014-6.732,6.731-6.732c3.719,0,6.732,3.018,6.732,6.732C135.509,565.843,132.496,568.859,128.777,568.859z
	 M128.777,516.859c-3.718,0-6.731-3.016-6.731-6.732c0-3.719,3.014-6.732,6.731-6.732c3.719,0,6.732,3.018,6.732,6.732
	C135.509,513.843,132.496,516.859,128.777,516.859z M128.777,464.859c-3.718,0-6.731-3.016-6.731-6.732
	c0-3.719,3.014-6.732,6.731-6.732c3.719,0,6.732,3.018,6.732,6.732C135.509,461.843,132.496,464.859,128.777,464.859z
	 M128.777,412.859c-3.718,0-6.731-3.016-6.731-6.732c0-3.719,3.014-6.731,6.731-6.731c3.719,0,6.732,3.017,6.732,6.731
	C135.509,409.843,132.496,412.859,128.777,412.859z M185.347,620.859c-3.718,0-6.731-3.016-6.731-6.732
	c0-3.719,3.014-6.732,6.731-6.732c3.719,0,6.733,3.018,6.733,6.732C192.08,617.843,189.066,620.859,185.347,620.859z
	 M185.347,568.859c-3.718,0-6.731-3.016-6.731-6.732c0-3.719,3.014-6.732,6.731-6.732c3.719,0,6.733,3.018,6.733,6.732
	C192.08,565.843,189.066,568.859,185.347,568.859z M185.347,516.859c-3.718,0-6.731-3.016-6.731-6.732
	c0-3.719,3.014-6.732,6.731-6.732c3.719,0,6.733,3.018,6.733,6.732C192.08,513.843,189.066,516.859,185.347,516.859z
	 M185.347,464.859c-3.718,0-6.731-3.016-6.731-6.732c0-3.719,3.014-6.732,6.731-6.732c3.719,0,6.733,3.018,6.733,6.732
	C192.08,461.843,189.066,464.859,185.347,464.859z M185.347,412.859c-3.718,0-6.731-3.016-6.731-6.732
	c0-3.719,3.014-6.731,6.731-6.731c3.719,0,6.733,3.017,6.733,6.731C192.08,409.843,189.066,412.859,185.347,412.859z
	 M185.348,360.859c-3.719,0-6.732-3.014-6.732-6.732c0-3.719,3.014-6.733,6.732-6.733c3.718,0,6.732,3.014,6.732,6.733
	C192.08,357.845,189.066,360.859,185.348,360.859z M241.918,568.859c-3.719,0-6.732-3.016-6.732-6.732
	c0-3.719,3.014-6.732,6.732-6.732s6.732,3.018,6.732,6.732C248.65,565.843,245.637,568.859,241.918,568.859z M241.918,516.859
	c-3.719,0-6.732-3.016-6.732-6.732c0-3.719,3.014-6.732,6.732-6.732s6.732,3.018,6.732,6.732
	C248.65,513.843,245.637,516.859,241.918,516.859z M241.918,464.859c-3.719,0-6.732-3.016-6.732-6.732
	c0-3.719,3.014-6.732,6.732-6.732s6.732,3.018,6.732,6.732C248.65,461.843,245.637,464.859,241.918,464.859z M241.918,412.859
	c-3.719,0-6.732-3.016-6.732-6.732c0-3.719,3.014-6.731,6.732-6.731s6.732,3.017,6.732,6.731
	C248.65,409.843,245.637,412.859,241.918,412.859z M241.918,360.859c-3.719,0-6.732-3.014-6.732-6.732
	c0-3.719,3.014-6.733,6.732-6.733s6.732,3.014,6.732,6.733C248.65,357.845,245.637,360.859,241.918,360.859z M298.488,568.859
	c-3.719,0-6.732-3.016-6.732-6.732c0-3.719,3.014-6.732,6.732-6.732c3.718,0,6.731,3.018,6.731,6.732
	C305.221,565.843,302.207,568.859,298.488,568.859z M298.488,516.859c-3.719,0-6.732-3.016-6.732-6.732
	c0-3.719,3.014-6.732,6.732-6.732c3.718,0,6.731,3.018,6.731,6.732C305.221,513.843,302.207,516.859,298.488,516.859z
	 M298.488,464.859c-3.719,0-6.732-3.016-6.732-6.732c0-3.719,3.014-6.732,6.732-6.732c3.718,0,6.731,3.018,6.731,6.732
	C305.221,461.843,302.207,464.859,298.488,464.859z M298.488,412.859c-3.719,0-6.732-3.016-6.732-6.732
	c0-3.719,3.014-6.731,6.732-6.731c3.718,0,6.731,3.017,6.731,6.731C305.221,409.843,302.207,412.859,298.488,412.859z
	 M298.488,360.859c-3.719,0-6.732-3.014-6.732-6.732c0-3.719,3.014-6.733,6.732-6.733c3.718,0,6.731,3.014,6.731,6.733
	C305.221,357.845,302.207,360.859,298.488,360.859z M298.488,308.858c-3.719,0-6.732-3.014-6.732-6.732s3.014-6.732,6.732-6.732
	c3.718,0,6.731,3.014,6.731,6.732S302.207,308.858,298.488,308.858z M355.059,568.859c-3.719,0-6.73-3.016-6.73-6.732
	c0-3.719,3.014-6.732,6.73-6.732c3.72,0,6.732,3.018,6.732,6.732C361.791,565.843,358.777,568.859,355.059,568.859z
	 M355.059,516.859c-3.719,0-6.73-3.016-6.73-6.732c0-3.719,3.014-6.732,6.73-6.732c3.72,0,6.732,3.018,6.732,6.732
	C361.791,513.843,358.777,516.859,355.059,516.859z M355.059,464.859c-3.719,0-6.73-3.016-6.73-6.732
	c0-3.719,3.014-6.732,6.73-6.732c3.72,0,6.732,3.018,6.732,6.732C361.791,461.843,358.777,464.859,355.059,464.859z
	 M355.059,412.859c-3.719,0-6.73-3.016-6.73-6.732c0-3.719,3.014-6.731,6.73-6.731c3.72,0,6.732,3.017,6.732,6.731
	C361.791,409.843,358.777,412.859,355.059,412.859z M355.059,360.859c-3.719,0-6.73-3.014-6.73-6.732
	c0-3.719,3.014-6.733,6.73-6.733c3.72,0,6.732,3.014,6.732,6.733C361.791,357.845,358.777,360.859,355.059,360.859z
	 M355.059,308.858c-3.719,0-6.73-3.014-6.73-6.732s3.014-6.732,6.73-6.732c3.72,0,6.732,3.014,6.732,6.732
	S358.777,308.858,355.059,308.858z M411.629,516.859c-3.719,0-6.73-3.016-6.73-6.732c0-3.719,3.014-6.732,6.73-6.732
	s6.732,3.018,6.732,6.732C418.361,513.843,415.348,516.859,411.629,516.859z M411.629,464.859c-3.719,0-6.73-3.016-6.73-6.732
	c0-3.719,3.014-6.732,6.73-6.732s6.732,3.018,6.732,6.732C418.361,461.843,415.348,464.859,411.629,464.859z M411.629,412.859
	c-3.719,0-6.73-3.016-6.73-6.732c0-3.719,3.014-6.731,6.73-6.731s6.732,3.017,6.732,6.731
	C418.361,409.843,415.348,412.859,411.629,412.859z M411.629,360.859c-3.719,0-6.73-3.014-6.73-6.732
	c0-3.719,3.014-6.733,6.73-6.733s6.732,3.014,6.732,6.733C418.361,357.845,415.348,360.859,411.629,360.859z M411.629,308.858
	c-3.719,0-6.73-3.014-6.73-6.732s3.014-6.732,6.73-6.732s6.732,3.014,6.732,6.732S415.348,308.858,411.629,308.858z
	 M468.199,516.859c-3.719,0-6.732-3.016-6.732-6.732c0-3.719,3.016-6.732,6.732-6.732s6.73,3.018,6.73,6.732
	C474.932,513.843,471.918,516.859,468.199,516.859z M468.199,464.859c-3.719,0-6.732-3.016-6.732-6.732
	c0-3.719,3.016-6.732,6.732-6.732s6.73,3.018,6.73,6.732C474.932,461.843,471.918,464.859,468.199,464.859z M468.199,412.859
	c-3.719,0-6.732-3.016-6.732-6.732c0-3.719,3.016-6.731,6.732-6.731s6.73,3.017,6.73,6.731
	C474.932,409.843,471.918,412.859,468.199,412.859z M468.199,360.859c-3.719,0-6.732-3.014-6.732-6.732
	c0-3.719,3.016-6.733,6.732-6.733s6.73,3.014,6.73,6.733C474.932,357.845,471.918,360.859,468.199,360.859z M468.199,308.858
	c-3.719,0-6.732-3.014-6.732-6.732s3.016-6.732,6.732-6.732s6.73,3.014,6.73,6.732S471.918,308.858,468.199,308.858z
	 M468.199,256.858c-3.719,0-6.732-3.014-6.732-6.732s3.016-6.732,6.732-6.732s6.73,3.014,6.73,6.732
	S471.918,256.858,468.199,256.858z M524.77,516.859c-3.719,0-6.73-3.016-6.73-6.732c0-3.719,3.014-6.732,6.73-6.732
	c3.72,0,6.732,3.018,6.732,6.732C531.502,513.843,528.488,516.859,524.77,516.859z M524.77,464.859c-3.719,0-6.73-3.016-6.73-6.732
	c0-3.719,3.014-6.732,6.73-6.732c3.72,0,6.732,3.018,6.732,6.732C531.502,461.843,528.488,464.859,524.77,464.859z M524.77,412.859
	c-3.719,0-6.73-3.016-6.73-6.732c0-3.719,3.014-6.731,6.73-6.731c3.72,0,6.732,3.017,6.732,6.731
	C531.502,409.843,528.488,412.859,524.77,412.859z M524.77,360.859c-3.719,0-6.73-3.014-6.73-6.732c0-3.719,3.014-6.733,6.73-6.733
	c3.72,0,6.732,3.014,6.732,6.733C531.502,357.845,528.488,360.859,524.77,360.859z M524.77,308.858c-3.719,0-6.73-3.014-6.73-6.732
	s3.014-6.732,6.73-6.732c3.72,0,6.732,3.014,6.732,6.732S528.488,308.858,524.77,308.858z M524.77,256.858
	c-3.719,0-6.73-3.014-6.73-6.732s3.014-6.732,6.73-6.732c3.72,0,6.732,3.014,6.732,6.732S528.488,256.858,524.77,256.858z
	 M581.34,516.859c-3.719,0-6.73-3.016-6.73-6.732c0-3.719,3.014-6.732,6.73-6.732s6.732,3.018,6.732,6.732
	C588.072,513.843,585.059,516.859,581.34,516.859z M581.34,464.859c-3.719,0-6.73-3.016-6.73-6.732c0-3.719,3.014-6.732,6.73-6.732
	s6.732,3.018,6.732,6.732C588.072,461.843,585.059,464.859,581.34,464.859z M581.34,412.859c-3.719,0-6.73-3.016-6.73-6.732
	c0-3.719,3.014-6.731,6.73-6.731s6.732,3.017,6.732,6.731C588.072,409.843,585.059,412.859,581.34,412.859z M581.34,360.859
	c-3.719,0-6.73-3.014-6.73-6.732c0-3.719,3.014-6.733,6.73-6.733s6.732,3.014,6.732,6.733
	C588.072,357.845,585.059,360.859,581.34,360.859z M581.34,308.858c-3.719,0-6.73-3.014-6.73-6.732s3.014-6.732,6.73-6.732
	s6.732,3.014,6.732,6.732S585.059,308.858,581.34,308.858z M581.34,256.858c-3.719,0-6.73-3.014-6.73-6.732s3.014-6.732,6.73-6.732
	s6.732,3.014,6.732,6.732S585.059,256.858,581.34,256.858z M581.34,204.858c-3.719,0-6.73-3.014-6.73-6.732s3.014-6.732,6.73-6.732
	s6.732,3.014,6.732,6.732S585.059,204.858,581.34,204.858z M637.91,516.859c-3.719,0-6.732-3.016-6.732-6.732
	c0-3.719,3.016-6.732,6.732-6.732s6.73,3.018,6.73,6.732C644.643,513.843,641.629,516.859,637.91,516.859z M637.91,464.859
	c-3.719,0-6.732-3.016-6.732-6.732c0-3.719,3.016-6.732,6.732-6.732s6.73,3.018,6.73,6.732
	C644.643,461.843,641.629,464.859,637.91,464.859z M637.91,412.859c-3.719,0-6.732-3.016-6.732-6.732
	c0-3.719,3.016-6.731,6.732-6.731s6.73,3.017,6.73,6.731C644.643,409.843,641.629,412.859,637.91,412.859z M637.91,360.859
	c-3.719,0-6.732-3.014-6.732-6.732c0-3.719,3.016-6.733,6.732-6.733s6.73,3.014,6.73,6.733
	C644.643,357.845,641.629,360.859,637.91,360.859z M637.91,308.858c-3.719,0-6.732-3.014-6.732-6.732s3.016-6.732,6.732-6.732
	s6.73,3.014,6.73,6.732S641.629,308.858,637.91,308.858z M637.91,256.858c-3.719,0-6.732-3.014-6.732-6.732s3.016-6.732,6.732-6.732
	s6.73,3.014,6.73,6.732S641.629,256.858,637.91,256.858z M637.91,204.858c-3.719,0-6.732-3.014-6.732-6.732s3.016-6.732,6.732-6.732
	s6.73,3.014,6.73,6.732S641.629,204.858,637.91,204.858z M694.48,516.859c-3.721,0-6.732-3.016-6.732-6.732
	c0-3.719,3.014-6.732,6.732-6.732c3.718,0,6.73,3.018,6.73,6.732C701.213,513.843,698.199,516.859,694.48,516.859z M694.48,464.859
	c-3.721,0-6.732-3.016-6.732-6.732c0-3.719,3.014-6.732,6.732-6.732c3.718,0,6.73,3.018,6.73,6.732
	C701.213,461.843,698.199,464.859,694.48,464.859z M694.48,412.859c-3.721,0-6.732-3.016-6.732-6.732
	c0-3.719,3.014-6.731,6.732-6.731c3.718,0,6.73,3.017,6.73,6.731C701.213,409.843,698.199,412.859,694.48,412.859z M694.48,360.859
	c-3.721,0-6.732-3.014-6.732-6.732c0-3.719,3.014-6.733,6.732-6.733c3.718,0,6.73,3.014,6.73,6.733
	C701.213,357.845,698.199,360.859,694.48,360.859z M694.48,308.858c-3.721,0-6.732-3.014-6.732-6.732s3.014-6.732,6.732-6.732
	c3.718,0,6.73,3.014,6.73,6.732S698.199,308.858,694.48,308.858z M694.48,256.858c-3.721,0-6.732-3.014-6.732-6.732
	s3.014-6.732,6.732-6.732c3.718,0,6.73,3.014,6.73,6.732S698.199,256.858,694.48,256.858z M694.48,204.858
	c-3.721,0-6.732-3.014-6.732-6.732s3.014-6.732,6.732-6.732c3.718,0,6.73,3.014,6.73,6.732S698.199,204.858,694.48,204.858z
	 M694.48,152.858c-3.721,0-6.732-3.014-6.732-6.732s3.014-6.732,6.732-6.732c3.718,0,6.73,3.014,6.73,6.732
	S698.199,152.858,694.48,152.858z M751.051,516.859c-3.719,0-6.73-3.016-6.73-6.732c0-3.719,3.014-6.732,6.73-6.732
	c3.719,0,6.732,3.018,6.732,6.732C757.783,513.843,754.77,516.859,751.051,516.859z M751.051,464.859
	c-3.719,0-6.73-3.016-6.73-6.732c0-3.719,3.014-6.732,6.73-6.732c3.719,0,6.732,3.018,6.732,6.732
	C757.783,461.843,754.77,464.859,751.051,464.859z M751.051,412.859c-3.719,0-6.73-3.016-6.73-6.732c0-3.719,3.014-6.731,6.73-6.731
	c3.719,0,6.732,3.017,6.732,6.731C757.783,409.843,754.77,412.859,751.051,412.859z M751.051,360.859
	c-3.719,0-6.73-3.014-6.73-6.732c0-3.719,3.014-6.733,6.73-6.733c3.719,0,6.732,3.014,6.732,6.733
	C757.783,357.845,754.77,360.859,751.051,360.859z M751.051,308.858c-3.719,0-6.73-3.014-6.73-6.732s3.014-6.732,6.73-6.732
	c3.719,0,6.732,3.014,6.732,6.732S754.77,308.858,751.051,308.858z M751.051,256.858c-3.719,0-6.73-3.014-6.73-6.732
	s3.014-6.732,6.73-6.732c3.719,0,6.732,3.014,6.732,6.732S754.77,256.858,751.051,256.858z M751.051,204.858
	c-3.719,0-6.73-3.014-6.73-6.732s3.014-6.732,6.73-6.732c3.719,0,6.732,3.014,6.732,6.732S754.77,204.858,751.051,204.858z
	 M751.051,152.858c-3.719,0-6.73-3.014-6.73-6.732s3.014-6.732,6.73-6.732c3.719,0,6.732,3.014,6.732,6.732
	S754.77,152.858,751.051,152.858z M807.621,516.859c-3.719,0-6.732-3.016-6.732-6.732c0-3.719,3.016-6.732,6.732-6.732
	s6.73,3.018,6.73,6.732C814.354,513.843,811.34,516.859,807.621,516.859z M807.621,464.859c-3.719,0-6.732-3.016-6.732-6.732
	c0-3.719,3.016-6.732,6.732-6.732s6.73,3.018,6.73,6.732C814.354,461.843,811.34,464.859,807.621,464.859z M807.621,412.859
	c-3.719,0-6.732-3.016-6.732-6.732c0-3.719,3.016-6.731,6.732-6.731s6.73,3.017,6.73,6.731
	C814.354,409.843,811.34,412.859,807.621,412.859z M807.621,360.859c-3.719,0-6.732-3.014-6.732-6.732
	c0-3.719,3.016-6.733,6.732-6.733s6.73,3.014,6.73,6.733C814.354,357.845,811.34,360.859,807.621,360.859z M807.621,308.858
	c-3.719,0-6.732-3.014-6.732-6.732s3.016-6.732,6.732-6.732s6.73,3.014,6.73,6.732S811.34,308.858,807.621,308.858z
	 M807.621,256.858c-3.719,0-6.732-3.014-6.732-6.732s3.016-6.732,6.732-6.732s6.73,3.014,6.73,6.732S811.34,256.858,807.621,256.858
	z M807.621,204.858c-3.719,0-6.732-3.014-6.732-6.732s3.016-6.732,6.732-6.732s6.73,3.014,6.73,6.732
	S811.34,204.858,807.621,204.858z M807.621,152.858c-3.719,0-6.732-3.014-6.732-6.732s3.016-6.732,6.732-6.732
	s6.73,3.014,6.73,6.732S811.34,152.858,807.621,152.858z M807.621,100.858c-3.719,0-6.732-3.014-6.732-6.732
	s3.016-6.732,6.732-6.732s6.73,3.014,6.73,6.732S811.34,100.858,807.621,100.858z M864.191,516.859
	c-3.721,0-6.732-3.016-6.732-6.732c0-3.719,3.014-6.732,6.732-6.732c3.718,0,6.73,3.018,6.73,6.732
	C870.922,513.843,867.91,516.859,864.191,516.859z M864.191,464.859c-3.721,0-6.732-3.016-6.732-6.732
	c0-3.719,3.014-6.732,6.732-6.732c3.718,0,6.73,3.018,6.73,6.732C870.922,461.843,867.91,464.859,864.191,464.859z M864.191,412.859
	c-3.721,0-6.732-3.016-6.732-6.732c0-3.719,3.014-6.731,6.732-6.731c3.718,0,6.73,3.017,6.73,6.731
	C870.922,409.843,867.91,412.859,864.191,412.859z M864.191,360.859c-3.721,0-6.732-3.014-6.732-6.732
	c0-3.719,3.014-6.733,6.732-6.733c3.718,0,6.73,3.014,6.73,6.733C870.923,357.845,867.91,360.859,864.191,360.859z M864.191,308.858
	c-3.721,0-6.732-3.014-6.732-6.732s3.014-6.732,6.732-6.732c3.718,0,6.73,3.014,6.73,6.732S867.91,308.858,864.191,308.858z
	 M864.191,256.858c-3.721,0-6.732-3.014-6.732-6.732s3.014-6.732,6.732-6.732c3.718,0,6.73,3.014,6.73,6.732
	S867.91,256.858,864.191,256.858z M864.191,204.858c-3.721,0-6.732-3.014-6.732-6.732s3.014-6.732,6.732-6.732
	c3.718,0,6.73,3.014,6.73,6.732S867.91,204.858,864.191,204.858z M864.191,152.858c-3.721,0-6.732-3.014-6.732-6.732
	s3.014-6.732,6.732-6.732c3.718,0,6.73,3.014,6.73,6.732S867.91,152.858,864.191,152.858z M864.191,100.858
	c-3.721,0-6.732-3.014-6.732-6.732s3.014-6.732,6.732-6.732c3.718,0,6.73,3.014,6.73,6.732S867.91,100.858,864.191,100.858z
	 M920.761,568.859c-3.719,0-6.73-3.016-6.73-6.732c0-3.719,3.014-6.732,6.73-6.732c3.718,0,6.732,3.018,6.732,6.732
	C927.494,565.843,924.48,568.859,920.761,568.859z M920.761,516.859c-3.719,0-6.73-3.016-6.73-6.732c0-3.719,3.014-6.732,6.73-6.732
	c3.718,0,6.732,3.018,6.732,6.732C927.494,513.843,924.48,516.859,920.761,516.859z M920.761,464.859
	c-3.719,0-6.73-3.016-6.73-6.732c0-3.719,3.014-6.732,6.73-6.732c3.718,0,6.732,3.018,6.732,6.732
	C927.494,461.843,924.48,464.859,920.761,464.859z M920.761,412.859c-3.719,0-6.73-3.016-6.73-6.732c0-3.719,3.014-6.731,6.73-6.731
	c3.718,0,6.732,3.017,6.732,6.731C927.494,409.843,924.48,412.859,920.761,412.859z M920.761,360.859
	c-3.719,0-6.73-3.014-6.73-6.732c0-3.719,3.014-6.733,6.73-6.733c3.718,0,6.732,3.014,6.732,6.733
	C927.494,357.845,924.48,360.859,920.761,360.859z M920.761,308.858c-3.719,0-6.73-3.014-6.73-6.732s3.014-6.732,6.73-6.732
	c3.718,0,6.732,3.014,6.732,6.732S924.48,308.858,920.761,308.858z M920.761,256.858c-3.719,0-6.73-3.014-6.73-6.732
	s3.014-6.732,6.73-6.732c3.718,0,6.732,3.014,6.732,6.732S924.48,256.858,920.761,256.858z M920.761,204.858
	c-3.719,0-6.73-3.014-6.73-6.732s3.014-6.732,6.73-6.732c3.718,0,6.732,3.014,6.732,6.732S924.48,204.858,920.761,204.858z
	 M920.761,152.858c-3.719,0-6.73-3.014-6.73-6.732s3.014-6.732,6.73-6.732c3.718,0,6.732,3.014,6.732,6.732
	S924.48,152.858,920.761,152.858z M920.761,100.858c-3.719,0-6.73-3.014-6.73-6.732s3.014-6.732,6.73-6.732
	c3.718,0,6.732,3.014,6.732,6.732S924.48,100.858,920.761,100.858z M920.761,48.858c-3.719,0-6.73-3.014-6.73-6.732
	s3.014-6.732,6.73-6.732c3.718,0,6.732,3.014,6.732,6.732S924.48,48.858,920.761,48.858z M977.332,568.859
	c-3.719,0-6.732-3.016-6.732-6.732c0-3.719,3.016-6.732,6.732-6.732s6.732,3.018,6.732,6.732
	C984.064,565.843,981.05,568.859,977.332,568.859z M977.332,516.859c-3.719,0-6.732-3.016-6.732-6.732
	c0-3.719,3.016-6.732,6.732-6.732s6.732,3.018,6.732,6.732C984.064,513.843,981.05,516.859,977.332,516.859z M977.332,464.859
	c-3.719,0-6.732-3.016-6.732-6.732c0-3.719,3.016-6.732,6.732-6.732s6.732,3.018,6.732,6.732
	C984.064,461.843,981.05,464.859,977.332,464.859z M977.332,412.859c-3.719,0-6.732-3.016-6.732-6.732
	c0-3.719,3.016-6.731,6.732-6.731s6.732,3.017,6.732,6.731C984.064,409.843,981.05,412.859,977.332,412.859z M977.332,360.859
	c-3.719,0-6.732-3.014-6.732-6.732c0-3.719,3.016-6.733,6.732-6.733s6.732,3.014,6.732,6.733
	C984.064,357.845,981.05,360.859,977.332,360.859z M977.332,308.858c-3.719,0-6.732-3.014-6.732-6.732s3.016-6.732,6.732-6.732
	s6.732,3.014,6.732,6.732S981.05,308.858,977.332,308.858z M977.332,256.858c-3.719,0-6.732-3.014-6.732-6.732
	s3.016-6.732,6.732-6.732s6.732,3.014,6.732,6.732S981.05,256.858,977.332,256.858z M977.332,204.858
	c-3.719,0-6.732-3.014-6.732-6.732s3.016-6.732,6.732-6.732s6.732,3.014,6.732,6.732S981.05,204.858,977.332,204.858z
	 M977.332,152.858c-3.719,0-6.732-3.014-6.732-6.732s3.016-6.732,6.732-6.732s6.732,3.014,6.732,6.732
	S981.05,152.858,977.332,152.858z M977.332,100.858c-3.719,0-6.732-3.014-6.732-6.732s3.016-6.732,6.732-6.732
	s6.732,3.014,6.732,6.732S981.05,100.858,977.332,100.858z M977.332,48.858c-3.719,0-6.732-3.014-6.732-6.732
	s3.016-6.732,6.732-6.732s6.732,3.014,6.732,6.732S981.05,48.858,977.332,48.858z M1147.042,295.394
	c3.719,0,6.732,3.014,6.732,6.732s-3.016,6.732-6.732,6.732s-6.732-3.014-6.732-6.732S1143.324,295.394,1147.042,295.394z
	 M1147.042,347.394c3.719,0,6.732,3.014,6.732,6.733c0,3.719-3.016,6.732-6.732,6.732s-6.732-3.014-6.732-6.732
	C1140.311,350.407,1143.324,347.394,1147.042,347.394z M1090.472,243.394c3.721,0,6.732,3.014,6.732,6.732s-3.014,6.732-6.732,6.732
	c-3.718,0-6.73-3.014-6.73-6.732S1086.753,243.394,1090.472,243.394z M1090.472,295.394c3.721,0,6.732,3.014,6.732,6.732
	s-3.014,6.732-6.732,6.732c-3.718,0-6.73-3.014-6.73-6.732S1086.753,295.394,1090.472,295.394z M1033.902,139.394
	c3.719,0,6.73,3.014,6.73,6.732s-3.014,6.732-6.73,6.732c-3.72,0-6.732-3.014-6.732-6.732S1030.183,139.394,1033.902,139.394z
	 M1033.902,191.394c3.719,0,6.73,3.014,6.73,6.732s-3.014,6.732-6.73,6.732c-3.72,0-6.732-3.014-6.732-6.732
	S1030.183,191.394,1033.902,191.394z M1033.902,243.394c3.719,0,6.73,3.014,6.73,6.732s-3.014,6.732-6.73,6.732
	c-3.72,0-6.732-3.014-6.732-6.732S1030.183,243.394,1033.902,243.394z M1033.902,295.394c3.719,0,6.73,3.014,6.73,6.732
	s-3.014,6.732-6.73,6.732c-3.72,0-6.732-3.014-6.732-6.732S1030.183,295.394,1033.902,295.394z M1033.902,347.394
	c3.719,0,6.73,3.014,6.73,6.733c0,3.719-3.014,6.732-6.73,6.732c-3.72,0-6.732-3.014-6.732-6.732
	C1027.169,350.407,1030.183,347.394,1033.902,347.394z M1033.902,568.859c-3.721,0-6.732-3.016-6.732-6.732
	c0-3.719,3.014-6.732,6.732-6.732c3.718,0,6.73,3.018,6.73,6.732C1040.633,565.843,1037.621,568.859,1033.902,568.859z
	 M1090.472,620.859c-3.719,0-6.73-3.016-6.73-6.732c0-3.719,3.014-6.732,6.73-6.732c3.72,0,6.732,3.018,6.732,6.732
	C1097.205,617.843,1094.191,620.859,1090.472,620.859z M1147.042,620.859c-3.719,0-6.732-3.016-6.732-6.732
	c0-3.719,3.016-6.732,6.732-6.732s6.732,3.018,6.732,6.732C1153.775,617.843,1150.761,620.859,1147.042,620.859z M1133.785,547.693
	c-48.07,20.607-103.525-1.098-123.832-48.467c-20.303-47.365,2.203-102.494,50.271-123.102
	c48.072-20.607,103.52,1.094,123.832,48.465C1204.361,471.957,1181.847,527.083,1133.785,547.693z M1203.613,620.859
	c-3.719,0-6.732-3.016-6.732-6.732c0-3.719,3.014-6.732,6.732-6.732c3.718,0,6.73,3.018,6.73,6.732
	C1210.344,617.843,1207.332,620.859,1203.613,620.859z M1203.613,568.859c-3.719,0-6.732-3.016-6.732-6.732
	c0-3.719,3.014-6.732,6.732-6.732c3.718,0,6.73,3.018,6.73,6.732C1210.344,565.843,1207.332,568.859,1203.613,568.859z
	 M1203.613,516.859c-3.719,0-6.732-3.016-6.732-6.732c0-3.719,3.014-6.732,6.732-6.732c3.718,0,6.73,3.018,6.73,6.732
	C1210.344,513.843,1207.332,516.859,1203.613,516.859z M1203.613,412.859c-3.719,0-6.732-3.016-6.732-6.732
	c0-3.719,3.014-6.731,6.732-6.731c3.718,0,6.73,3.017,6.73,6.731C1210.344,409.843,1207.332,412.859,1203.613,412.859z
	 M1203.613,360.859c-3.719,0-6.732-3.014-6.732-6.732c0-3.719,3.014-6.733,6.732-6.733c3.718,0,6.73,3.014,6.73,6.733
	C1210.345,357.845,1207.332,360.859,1203.613,360.859z M1203.613,308.858c-3.719,0-6.732-3.014-6.732-6.732s3.014-6.732,6.732-6.732
	c3.718,0,6.73,3.014,6.73,6.732S1207.332,308.858,1203.613,308.858z M1260.183,672.859c-3.719,0-6.73-3.016-6.73-6.732
	c0-3.719,3.014-6.732,6.73-6.732c3.72,0,6.732,3.018,6.732,6.732C1266.916,669.843,1263.902,672.859,1260.183,672.859z
	 M1260.183,620.859c-3.719,0-6.73-3.016-6.73-6.732c0-3.719,3.014-6.732,6.73-6.732c3.72,0,6.732,3.018,6.732,6.732
	C1266.916,617.843,1263.902,620.859,1260.183,620.859z M1260.183,568.859c-3.719,0-6.73-3.016-6.73-6.732
	c0-3.719,3.014-6.732,6.73-6.732c3.72,0,6.732,3.018,6.732,6.732C1266.916,565.843,1263.902,568.859,1260.183,568.859z
	 M1260.183,516.859c-3.719,0-6.73-3.016-6.73-6.732c0-3.719,3.014-6.732,6.73-6.732c3.72,0,6.732,3.018,6.732,6.732
	C1266.916,513.843,1263.902,516.859,1260.183,516.859z M1260.183,464.859c-3.719,0-6.73-3.016-6.73-6.732
	c0-3.719,3.014-6.732,6.73-6.732c3.72,0,6.732,3.018,6.732,6.732C1266.916,461.843,1263.902,464.859,1260.183,464.859z
	 M1260.183,412.859c-3.719,0-6.73-3.016-6.73-6.732c0-3.719,3.014-6.731,6.73-6.731c3.72,0,6.732,3.017,6.732,6.731
	C1266.916,409.843,1263.902,412.859,1260.183,412.859z M1260.183,360.859c-3.719,0-6.73-3.014-6.73-6.732
	c0-3.719,3.014-6.733,6.73-6.733c3.72,0,6.732,3.014,6.732,6.733C1266.916,357.845,1263.902,360.859,1260.183,360.859z
	 M1316.753,672.859c-3.719,0-6.73-3.016-6.73-6.732c0-3.719,3.014-6.732,6.73-6.732s6.732,3.018,6.732,6.732
	C1323.486,669.843,1320.472,672.859,1316.753,672.859z M1316.753,620.859c-3.719,0-6.73-3.016-6.73-6.732
	c0-3.719,3.014-6.732,6.73-6.732s6.732,3.018,6.732,6.732C1323.486,617.843,1320.472,620.859,1316.753,620.859z M1316.753,568.859
	c-3.719,0-6.73-3.016-6.73-6.732c0-3.719,3.014-6.732,6.73-6.732s6.732,3.018,6.732,6.732
	C1323.486,565.843,1320.472,568.859,1316.753,568.859z M1316.753,516.859c-3.719,0-6.73-3.016-6.73-6.732
	c0-3.719,3.014-6.732,6.73-6.732s6.732,3.018,6.732,6.732C1323.486,513.843,1320.472,516.859,1316.753,516.859z M1316.753,464.859
	c-3.719,0-6.73-3.016-6.73-6.732c0-3.719,3.014-6.732,6.73-6.732s6.732,3.018,6.732,6.732
	C1323.486,461.843,1320.472,464.859,1316.753,464.859z M1316.753,412.859c-3.719,0-6.73-3.016-6.73-6.732
	c0-3.719,3.014-6.731,6.73-6.731s6.732,3.017,6.732,6.731C1323.486,409.843,1320.472,412.859,1316.753,412.859z M1373.324,672.859
	c-3.719,0-6.732-3.016-6.732-6.732c0-3.719,3.014-6.732,6.732-6.732c3.718,0,6.73,3.018,6.73,6.732
	C1380.055,669.843,1377.042,672.859,1373.324,672.859z M1373.324,620.859c-3.719,0-6.732-3.016-6.732-6.732
	c0-3.719,3.014-6.732,6.732-6.732c3.718,0,6.73,3.018,6.73,6.732C1380.055,617.843,1377.042,620.859,1373.324,620.859z
	 M1373.324,568.859c-3.719,0-6.732-3.016-6.732-6.732c0-3.719,3.014-6.732,6.732-6.732c3.718,0,6.73,3.018,6.73,6.732
	C1380.055,565.843,1377.042,568.859,1373.324,568.859z M1373.324,516.859c-3.719,0-6.732-3.016-6.732-6.732
	c0-3.719,3.014-6.732,6.732-6.732c3.718,0,6.73,3.018,6.73,6.732C1380.055,513.843,1377.042,516.859,1373.324,516.859z
	 M1373.324,464.859c-3.719,0-6.732-3.016-6.732-6.732c0-3.719,3.014-6.732,6.732-6.732c3.718,0,6.73,3.018,6.73,6.732
	C1380.055,461.843,1377.042,464.859,1373.324,464.859z M1429.895,620.859c-3.72,0-6.731-3.016-6.731-6.732
	c0-3.719,3.014-6.732,6.731-6.732c3.719,0,6.731,3.018,6.731,6.732C1436.626,617.843,1433.613,620.859,1429.895,620.859z
	 M1429.895,568.859c-3.72,0-6.731-3.016-6.731-6.732c0-3.719,3.014-6.732,6.731-6.732c3.719,0,6.731,3.018,6.731,6.732
	C1436.626,565.843,1433.613,568.859,1429.895,568.859z M1429.895,516.859c-3.72,0-6.731-3.016-6.731-6.732
	c0-3.719,3.014-6.732,6.731-6.732c3.719,0,6.731,3.018,6.731,6.732C1436.626,513.843,1433.613,516.859,1429.895,516.859z
	 M1429.895,464.859c-3.72,0-6.731-3.016-6.731-6.732c0-3.719,3.014-6.732,6.731-6.732c3.719,0,6.731,3.018,6.731,6.732
	C1436.626,461.843,1433.613,464.859,1429.895,464.859z M1486.464,620.859c-3.719,0-6.73-3.016-6.73-6.732
	c0-3.719,3.014-6.732,6.73-6.732s6.732,3.018,6.732,6.732C1493.197,617.843,1490.183,620.859,1486.464,620.859z M1486.464,568.859
	c-3.719,0-6.73-3.016-6.73-6.732c0-3.719,3.014-6.732,6.73-6.732s6.732,3.018,6.732,6.732
	C1493.197,565.843,1490.183,568.859,1486.464,568.859z M1486.464,516.859c-3.719,0-6.73-3.016-6.73-6.732
	c0-3.719,3.014-6.732,6.73-6.732s6.732,3.018,6.732,6.732C1493.197,513.843,1490.183,516.859,1486.464,516.859z M1543.035,620.859
	c-3.719,0-6.732-3.016-6.732-6.732c0-3.719,3.016-6.732,6.732-6.732s6.732,3.018,6.732,6.732
	C1549.767,617.843,1546.753,620.859,1543.035,620.859z M1543.035,568.859c-3.719,0-6.732-3.016-6.732-6.732
	c0-3.719,3.016-6.732,6.732-6.732s6.732,3.018,6.732,6.732C1549.767,565.843,1546.753,568.859,1543.035,568.859z M1599.605,620.859
	c-3.721,0-6.732-3.016-6.732-6.732c0-3.719,3.014-6.732,6.732-6.732c3.718,0,6.73,3.018,6.73,6.732
	C1606.336,617.843,1603.324,620.859,1599.605,620.859z"/>
</svg>
