<?xml version="1.0" encoding="utf-8"?>
<!-- Generator: Adobe Illustrator 16.0.0, SVG Export Plug-In . SVG Version: 6.00 Build 0)  -->
<!DOCTYPE svg PUBLIC "-//W3C//DTD SVG 1.1//EN" "http://www.w3.org/Graphics/SVG/1.1/DTD/svg11.dtd">
<svg version="1.1" id="Layer_1" xmlns="http://www.w3.org/2000/svg" xmlns:xlink="http://www.w3.org/1999/xlink" x="0px" y="0px"
	 width="2971.064px" height="1247.547px" viewBox="0 0 2971.064 1247.547" enable-background="new 0 0 2971.064 1247.547"
	 xml:space="preserve">
<path fill="none" stroke="#000000" stroke-linejoin="round" stroke-miterlimit="10" d="M0,742.577
	c29.992,29.643,57.619,61.588,83.93,94.52c35.516,44.729,68.319,91.602,98.482,140.082c6.504,9.88,12.174,20.283,18.453,30.312
	c44.267,74.895,82.643,153.289,114.583,234.221c0.744,2.084,1.897,3.971,3.086,5.84c31.215-26.941,62.29-54.078,93.544-80.982
	c47.26-34.889,94.898-69.268,142.854-103.188c61.075-43.199,122.68-85.666,185.497-126.268c6.531-3.83,12.587-8.4,19.134-12.223
	c33.801-21.035,67.627-42.115,103.17-60.129c3.965-2.098,8.171-3.75,11.932-6.221c-5.62-1.842-11.542-2.496-17.284-3.846
	c-53.905-11.113-107.875-21.871-161.791-32.938c-87.311-17.99-174.667-35.811-261.988-53.736c-3.872-0.629-7.646-1.807-11.55-2.195
	c-2.63,1.006-4.613,3.15-7.034,4.539c-24.124,14.363-51.61,22.314-79.337,25.881c-36.979,4.734-74.594,1.742-111.005-5.738
	c-69.333-13.18-138.335-28.055-207.069-44.047C11.72,745.213,5.962,743.366,0,742.577z M1199.381,113.4l927.198,399.833
	l56.041,24.977c0,0,9.846,6.663,15.973-4.685c6.127-11.351,46.027-101.582,87.9-125.064c41.872-23.482,89.547-45.336,159.532-37.91
	c69.982,7.426,177.732,27.67,253.603,64.738c75.87,37.068,93.856,49.122,116.731,47.096c22.875-2.022,132.902-12.66,132.902-12.66
	s28.387,2.471,20.375-23.311c-8.012-25.778-2.15-54.605-81.695-91.976c-79.547-37.37-412.28-177.52-412.28-177.52
	s-225.438-93.985-390.3-122.628c-164.864-28.643-301.854-51.184-415.188-52.57c-113.334-1.387-218.198-6.566-289.115,12.004
	s-92.078,26.488-92.078,26.488l-32.765,15.601l-33.854,19.998l-16.595,12.565l-8.217,7.512
	C1197.554,95.89,1180.913,107.189,1199.381,113.4z M2142.952,544.641l-7.023-3.971l-20.582-12.008l-21.311-10.75l-162.756-74.036
	l-258.72-112.252L1427.59,225.349l-99.178-43.073L1219.84,135.24l-10.896-4.729l-7.714-3.124l-6.853-2.191l-3.747-0.852
	c0,0-2.152-0.357-6.297-0.241c-4.145,0.116-4.418,4.583-4.418,4.583l-0.985,2.79l-4.697,12.429l-7.41,17.599l-7.391,16.068
	l-6.584,13.591l-8.038,15.362l-8.546,15.175l-8.854,14.649l-11.229,17.217l-10.943,15.523l-13.347,17.464l-12.614,15.211
	l-10.968,12.311l-10.985,11.559l-13.502,13.235l-11.859,10.811l-15.04,12.704l-10.479,8.229l-15.062,10.995l-8.049,5.492
	l-13.511,8.567c0,0-10.494,6.103-11.754,6.803c-1.261,0.7-8.765,4.658-8.765,4.658l-9.51,4.643l-4.375,1.989l-4.54,2.622
	L683.415,585.355l-184.81,126.188l-61.423,42.744l79.391,16.625l151.614,31l175.921,36.094l3.937,0.814l3.62,0.566l2.574-0.266
	l2.145-0.564l311.366-97.041l171.71-50.283l51.479-13.936l25.799-6.174l35.352-2.061l18.959,0.531l36.998,1.717l38.49,2.752
	l45.424,4.535l33.49,4.266l43.619,6.756l32.496,5.943l37.672,7.895l16.004,3.691l38.961,9.855l32.705,9.27l30.887,9.633
	l28.443,9.672l30.096,11.135l20.492,8.154l18.912,7.977l29.271,13.307l14.696,7.188l24.019,12.707l14.692,9.051l6.062,1.951
	l8.207-0.268l8.482-3.246l8.069-5.484l6.156-5.58l7.797-8.65l8.045-10.678l8.576-13.311l46.854-103.184
	c0,0,8.655-20.371,24.477-59.507C2186.97,568.008,2142.952,544.641,2142.952,544.641z M505.396,741.208
	c-3.721,0-6.731-3.016-6.731-6.732c0-3.719,3.014-6.73,6.731-6.73c3.719,0,6.729,3.014,6.729,6.73
	C512.128,738.192,509.114,741.208,505.396,741.208z M561.966,741.208c-3.718,0-6.729-3.016-6.729-6.732
	c0-3.719,3.014-6.73,6.729-6.73c3.719,0,6.732,3.014,6.732,6.73S565.685,741.208,561.966,741.208z M618.536,741.208
	c-3.718,0-6.731-3.016-6.731-6.732c0-3.719,3.017-6.73,6.731-6.73c3.719,0,6.729,3.014,6.729,6.73
	C625.269,738.192,622.255,741.208,618.536,741.208z M618.536,689.208c-3.718,0-6.731-3.016-6.731-6.732
	c0-3.719,3.017-6.73,6.731-6.73c3.719,0,6.729,3.014,6.729,6.73C625.269,686.192,622.255,689.208,618.536,689.208z M675.106,741.208
	c-3.721,0-6.731-3.016-6.731-6.732c0-3.719,3.014-6.73,6.731-6.73c3.719,0,6.729,3.014,6.729,6.73
	C681.839,738.192,678.825,741.208,675.106,741.208z M675.106,689.208c-3.721,0-6.731-3.016-6.731-6.732
	c0-3.719,3.014-6.73,6.731-6.73c3.719,0,6.729,3.014,6.729,6.73C681.839,686.192,678.825,689.208,675.106,689.208z M675.106,637.208
	c-3.721,0-6.731-3.016-6.731-6.732c0-3.719,3.014-6.73,6.731-6.73c3.719,0,6.729,3.013,6.729,6.73
	C681.839,634.192,678.825,637.208,675.106,637.208z M731.677,793.208c-3.719,0-6.729-3.016-6.729-6.732
	c0-3.719,3.014-6.73,6.729-6.73c3.718,0,6.732,3.014,6.732,6.73S735.396,793.208,731.677,793.208z M731.677,741.208
	c-3.719,0-6.729-3.016-6.729-6.732c0-3.719,3.014-6.73,6.729-6.73c3.718,0,6.732,3.014,6.732,6.73S735.396,741.208,731.677,741.208z
	 M731.677,689.208c-3.719,0-6.729-3.016-6.729-6.732c0-3.719,3.014-6.73,6.729-6.73c3.718,0,6.732,3.014,6.732,6.73
	S735.396,689.208,731.677,689.208z M731.677,637.208c-3.719,0-6.729-3.016-6.729-6.732c0-3.719,3.014-6.73,6.729-6.73
	c3.718,0,6.732,3.013,6.732,6.73C738.409,634.192,735.396,637.208,731.677,637.208z M731.677,585.207
	c-3.719,0-6.729-3.016-6.729-6.732c0-3.719,3.014-6.729,6.729-6.729c3.718,0,6.732,3.014,6.732,6.729
	C738.409,582.191,735.396,585.207,731.677,585.207z M788.247,793.208c-3.719,0-6.732-3.016-6.732-6.732
	c0-3.719,3.017-6.73,6.732-6.73s6.731,3.014,6.731,6.73S791.966,793.208,788.247,793.208z M788.247,741.208
	c-3.719,0-6.732-3.016-6.732-6.732c0-3.719,3.017-6.73,6.732-6.73s6.731,3.014,6.731,6.73S791.966,741.208,788.247,741.208z
	 M788.247,689.208c-3.719,0-6.732-3.016-6.732-6.732c0-3.719,3.017-6.73,6.732-6.73s6.731,3.014,6.731,6.73
	S791.966,689.208,788.247,689.208z M788.247,637.208c-3.719,0-6.732-3.016-6.732-6.732c0-3.719,3.017-6.73,6.732-6.73
	s6.731,3.013,6.731,6.73C794.979,634.192,791.966,637.208,788.247,637.208z M788.247,585.207c-3.719,0-6.732-3.016-6.732-6.732
	c0-3.719,3.017-6.729,6.732-6.729s6.731,3.014,6.731,6.729C794.979,582.191,791.966,585.207,788.247,585.207z M844.817,793.208
	c-3.722,0-6.732-3.016-6.732-6.732c0-3.719,3.014-6.73,6.732-6.73c3.718,0,6.729,3.014,6.729,6.73
	C851.55,790.192,848.536,793.208,844.817,793.208z M844.817,741.208c-3.722,0-6.732-3.016-6.732-6.732
	c0-3.719,3.014-6.73,6.732-6.73c3.718,0,6.729,3.014,6.729,6.73C851.55,738.192,848.536,741.208,844.817,741.208z M844.817,689.208
	c-3.722,0-6.732-3.016-6.732-6.732c0-3.719,3.014-6.73,6.732-6.73c3.718,0,6.729,3.014,6.729,6.73
	C851.55,686.192,848.536,689.208,844.817,689.208z M844.817,637.208c-3.722,0-6.732-3.016-6.732-6.732
	c0-3.719,3.014-6.73,6.732-6.73c3.718,0,6.729,3.013,6.729,6.73C851.55,634.192,848.536,637.208,844.817,637.208z M844.817,585.207
	c-3.722,0-6.732-3.016-6.732-6.732c0-3.719,3.014-6.729,6.732-6.729c3.718,0,6.729,3.014,6.729,6.729
	C851.55,582.191,848.536,585.207,844.817,585.207z M844.817,533.207c-3.722,0-6.732-3.016-6.732-6.732
	c0-3.719,3.014-6.729,6.732-6.729c3.718,0,6.729,3.014,6.729,6.729C851.55,530.191,848.536,533.207,844.817,533.207z
	 M901.388,793.208c-3.719,0-6.729-3.016-6.729-6.732c0-3.719,3.014-6.73,6.729-6.73c3.721,0,6.732,3.014,6.732,6.73
	S905.106,793.208,901.388,793.208z M901.388,741.208c-3.719,0-6.729-3.016-6.729-6.732c0-3.719,3.014-6.73,6.729-6.73
	c3.721,0,6.732,3.014,6.732,6.73S905.106,741.208,901.388,741.208z M901.388,689.208c-3.719,0-6.729-3.016-6.729-6.732
	c0-3.719,3.014-6.73,6.729-6.73c3.721,0,6.732,3.014,6.732,6.73S905.106,689.208,901.388,689.208z M901.388,637.208
	c-3.719,0-6.729-3.016-6.729-6.732c0-3.719,3.014-6.73,6.729-6.73c3.721,0,6.732,3.013,6.732,6.73
	C908.12,634.192,905.106,637.208,901.388,637.208z M901.388,585.207c-3.719,0-6.729-3.016-6.729-6.732
	c0-3.719,3.014-6.729,6.729-6.729c3.721,0,6.732,3.014,6.732,6.729C908.12,582.191,905.106,585.207,901.388,585.207z
	 M901.388,533.207c-3.719,0-6.729-3.016-6.729-6.732c0-3.719,3.014-6.729,6.729-6.729c3.721,0,6.732,3.014,6.732,6.729
	C908.12,530.191,905.106,533.207,901.388,533.207z M901.388,481.206c-3.719,0-6.729-3.014-6.729-6.732
	c0-3.718,3.014-6.729,6.729-6.729c3.721,0,6.732,3.014,6.732,6.729C908.12,478.192,905.106,481.206,901.388,481.206z
	 M957.958,793.208c-3.719,0-6.731-3.016-6.731-6.732c0-3.719,3.016-6.73,6.731-6.73s6.731,3.014,6.731,6.73
	S961.677,793.208,957.958,793.208z M957.958,741.208c-3.719,0-6.731-3.016-6.731-6.732c0-3.719,3.016-6.73,6.731-6.73
	s6.731,3.014,6.731,6.73S961.677,741.208,957.958,741.208z M957.958,689.208c-3.719,0-6.731-3.016-6.731-6.732
	c0-3.719,3.016-6.73,6.731-6.73s6.731,3.014,6.731,6.73S961.677,689.208,957.958,689.208z M957.958,637.208
	c-3.719,0-6.731-3.016-6.731-6.732c0-3.719,3.016-6.73,6.731-6.73s6.731,3.013,6.731,6.73
	C964.689,634.192,961.677,637.208,957.958,637.208z M957.958,585.207c-3.719,0-6.731-3.016-6.731-6.732
	c0-3.719,3.016-6.729,6.731-6.729s6.731,3.014,6.731,6.729C964.689,582.191,961.677,585.207,957.958,585.207z M957.958,533.207
	c-3.719,0-6.731-3.016-6.731-6.732c0-3.719,3.016-6.729,6.731-6.729s6.731,3.014,6.731,6.729
	C964.689,530.191,961.677,533.207,957.958,533.207z M957.958,481.206c-3.719,0-6.731-3.014-6.731-6.732
	c0-3.718,3.016-6.729,6.731-6.729s6.731,3.014,6.731,6.729C964.689,478.192,961.677,481.206,957.958,481.206z M957.958,429.206
	c-3.719,0-6.731-3.014-6.731-6.732c0-3.718,3.016-6.729,6.731-6.729s6.731,3.014,6.731,6.729
	C964.689,426.192,961.677,429.206,957.958,429.206z M1014.528,741.208c-3.722,0-6.732-3.016-6.732-6.732
	c0-3.719,3.015-6.73,6.732-6.73s6.729,3.014,6.729,6.73C1021.261,738.192,1018.247,741.208,1014.528,741.208z M1014.528,689.208
	c-3.722,0-6.732-3.016-6.732-6.732c0-3.719,3.015-6.73,6.732-6.73s6.729,3.014,6.729,6.73
	C1021.261,686.192,1018.247,689.208,1014.528,689.208z M1014.528,637.208c-3.722,0-6.732-3.016-6.732-6.732
	c0-3.719,3.015-6.73,6.732-6.73s6.729,3.013,6.729,6.73C1021.261,634.192,1018.247,637.208,1014.528,637.208z M1014.528,585.207
	c-3.722,0-6.732-3.016-6.732-6.732c0-3.719,3.015-6.729,6.732-6.729s6.729,3.014,6.729,6.729
	C1021.261,582.191,1018.247,585.207,1014.528,585.207z M1014.528,533.207c-3.722,0-6.732-3.016-6.732-6.732
	c0-3.719,3.015-6.729,6.732-6.729s6.729,3.014,6.729,6.729C1021.261,530.191,1018.247,533.207,1014.528,533.207z M1014.528,481.206
	c-3.722,0-6.732-3.014-6.732-6.732c0-3.718,3.015-6.729,6.732-6.729s6.729,3.014,6.729,6.729
	C1021.26,478.192,1018.247,481.206,1014.528,481.206z M1014.528,429.206c-3.722,0-6.732-3.014-6.732-6.732
	c0-3.718,3.015-6.729,6.732-6.729s6.729,3.014,6.729,6.729C1021.26,426.192,1018.247,429.206,1014.528,429.206z M1071.099,741.208
	c-3.719,0-6.729-3.016-6.729-6.732c0-3.719,3.014-6.73,6.729-6.73c3.721,0,6.732,3.014,6.732,6.73
	S1074.817,741.208,1071.099,741.208z M1071.099,689.208c-3.719,0-6.729-3.016-6.729-6.732c0-3.719,3.014-6.73,6.729-6.73
	c3.721,0,6.732,3.014,6.732,6.73S1074.817,689.208,1071.099,689.208z M1071.099,637.208c-3.719,0-6.729-3.016-6.729-6.732
	c0-3.719,3.014-6.73,6.729-6.73c3.721,0,6.732,3.013,6.732,6.73C1077.831,634.192,1074.817,637.208,1071.099,637.208z
	 M1071.099,585.207c-3.719,0-6.729-3.016-6.729-6.732c0-3.719,3.014-6.729,6.729-6.729c3.721,0,6.732,3.014,6.732,6.729
	C1077.831,582.191,1074.817,585.207,1071.099,585.207z M1071.099,533.207c-3.719,0-6.729-3.016-6.729-6.732
	c0-3.719,3.014-6.729,6.729-6.729c3.721,0,6.732,3.014,6.732,6.729C1077.831,530.191,1074.817,533.207,1071.099,533.207z
	 M1071.099,481.206c-3.719,0-6.729-3.014-6.729-6.732c0-3.718,3.014-6.729,6.729-6.729c3.721,0,6.732,3.014,6.732,6.729
	C1077.831,478.192,1074.817,481.206,1071.099,481.206z M1071.099,429.206c-3.719,0-6.729-3.014-6.729-6.732
	c0-3.718,3.014-6.729,6.729-6.729c3.721,0,6.732,3.014,6.732,6.729C1077.831,426.192,1074.817,429.206,1071.099,429.206z
	 M1071.099,377.206c-3.719,0-6.729-3.014-6.729-6.732c0-3.718,3.014-6.732,6.729-6.732c3.721,0,6.732,3.014,6.732,6.732
	C1077.831,374.192,1074.817,377.206,1071.099,377.206z M1127.669,741.208c-3.719,0-6.732-3.016-6.732-6.732
	c0-3.719,3.017-6.73,6.732-6.73s6.732,3.014,6.732,6.73S1131.388,741.208,1127.669,741.208z M1127.669,689.208
	c-3.719,0-6.732-3.016-6.732-6.732c0-3.719,3.017-6.73,6.732-6.73s6.732,3.014,6.732,6.73S1131.388,689.208,1127.669,689.208z
	 M1127.669,637.208c-3.719,0-6.732-3.016-6.732-6.732c0-3.719,3.017-6.73,6.732-6.73s6.732,3.013,6.732,6.73
	C1134.401,634.192,1131.388,637.208,1127.669,637.208z M1127.669,585.207c-3.719,0-6.732-3.016-6.732-6.732
	c0-3.719,3.017-6.729,6.732-6.729s6.732,3.014,6.732,6.729C1134.401,582.191,1131.388,585.207,1127.669,585.207z M1127.669,533.207
	c-3.719,0-6.732-3.016-6.732-6.732c0-3.719,3.017-6.729,6.732-6.729s6.732,3.014,6.732,6.729
	C1134.401,530.191,1131.388,533.207,1127.669,533.207z M1127.669,481.206c-3.719,0-6.732-3.014-6.732-6.732
	c0-3.718,3.017-6.729,6.732-6.729s6.732,3.014,6.732,6.729C1134.401,478.192,1131.388,481.206,1127.669,481.206z M1127.669,429.206
	c-3.719,0-6.732-3.014-6.732-6.732c0-3.718,3.017-6.729,6.732-6.729s6.732,3.014,6.732,6.729
	C1134.401,426.192,1131.388,429.206,1127.669,429.206z M1127.669,377.206c-3.719,0-6.732-3.014-6.732-6.732
	c0-3.718,3.017-6.732,6.732-6.732s6.732,3.014,6.732,6.732C1134.401,374.192,1131.388,377.206,1127.669,377.206z M1127.669,325.206
	c-3.719,0-6.732-3.014-6.732-6.732c0-3.718,3.017-6.732,6.732-6.732s6.732,3.014,6.732,6.732
	C1134.401,322.192,1131.388,325.206,1127.669,325.206z M1184.239,689.208c-3.72,0-6.732-3.016-6.732-6.732
	c0-3.719,3.015-6.73,6.732-6.73c3.717,0,6.729,3.014,6.729,6.73C1190.972,686.192,1187.958,689.208,1184.239,689.208z
	 M1184.239,637.208c-3.72,0-6.732-3.016-6.732-6.732c0-3.719,3.015-6.73,6.732-6.73c3.717,0,6.729,3.013,6.729,6.73
	C1190.972,634.192,1187.958,637.208,1184.239,637.208z M1184.239,585.207c-3.72,0-6.732-3.016-6.732-6.732
	c0-3.719,3.015-6.729,6.732-6.729c3.717,0,6.729,3.014,6.729,6.729C1190.972,582.191,1187.958,585.207,1184.239,585.207z
	 M1184.239,533.207c-3.72,0-6.732-3.016-6.732-6.732c0-3.719,3.015-6.729,6.732-6.729c3.717,0,6.729,3.014,6.729,6.729
	C1190.972,530.191,1187.958,533.207,1184.239,533.207z M1184.239,481.206c-3.72,0-6.732-3.014-6.732-6.732
	c0-3.718,3.015-6.729,6.732-6.729c3.717,0,6.729,3.014,6.729,6.729C1190.971,478.192,1187.958,481.206,1184.239,481.206z
	 M1184.239,429.206c-3.72,0-6.732-3.014-6.732-6.732c0-3.718,3.015-6.729,6.732-6.729c3.717,0,6.729,3.014,6.729,6.729
	C1190.971,426.192,1187.958,429.206,1184.239,429.206z M1184.239,377.206c-3.72,0-6.732-3.014-6.732-6.732
	c0-3.718,3.015-6.732,6.732-6.732c3.717,0,6.729,3.014,6.729,6.732C1190.971,374.192,1187.958,377.206,1184.239,377.206z
	 M1184.239,325.206c-3.72,0-6.732-3.014-6.732-6.732c0-3.718,3.015-6.732,6.732-6.732c3.717,0,6.729,3.014,6.729,6.732
	C1190.971,322.192,1187.958,325.206,1184.239,325.206z M1184.239,273.206c-3.72,0-6.732-3.014-6.732-6.732
	c0-3.718,3.015-6.732,6.732-6.732c3.717,0,6.729,3.014,6.729,6.732C1190.971,270.192,1187.958,273.206,1184.239,273.206z
	 M1184.239,221.206c-3.72,0-6.732-3.014-6.732-6.732c0-3.718,3.015-6.732,6.732-6.732c3.717,0,6.729,3.014,6.729,6.732
	C1190.971,218.192,1187.958,221.206,1184.239,221.206z M1184.239,169.206c-3.72,0-6.732-3.014-6.732-6.732
	c0-3.718,3.015-6.732,6.732-6.732c3.717,0,6.729,3.014,6.729,6.732C1190.971,166.192,1187.958,169.206,1184.239,169.206z
	 M1240.811,689.208c-3.72,0-6.73-3.016-6.73-6.732c0-3.719,3.014-6.73,6.73-6.73c3.72,0,6.731,3.014,6.731,6.73
	S1244.528,689.208,1240.811,689.208z M1240.811,637.208c-3.72,0-6.73-3.016-6.73-6.732c0-3.719,3.014-6.73,6.73-6.73
	c3.72,0,6.731,3.013,6.731,6.73C1247.542,634.192,1244.528,637.208,1240.811,637.208z M1240.811,585.207
	c-3.72,0-6.73-3.016-6.73-6.732c0-3.719,3.014-6.729,6.73-6.729c3.72,0,6.731,3.014,6.731,6.729
	C1247.542,582.191,1244.528,585.207,1240.811,585.207z M1240.811,533.207c-3.72,0-6.73-3.016-6.73-6.732
	c0-3.719,3.014-6.729,6.73-6.729c3.72,0,6.731,3.014,6.731,6.729C1247.542,530.191,1244.528,533.207,1240.811,533.207z
	 M1240.811,481.206c-3.72,0-6.73-3.014-6.73-6.732c0-3.718,3.014-6.729,6.73-6.729c3.72,0,6.731,3.014,6.731,6.729
	C1247.542,478.192,1244.528,481.206,1240.811,481.206z M1240.811,429.206c-3.72,0-6.73-3.014-6.73-6.732
	c0-3.718,3.014-6.729,6.73-6.729c3.72,0,6.731,3.014,6.731,6.729C1247.542,426.192,1244.528,429.206,1240.811,429.206z
	 M1240.811,377.206c-3.72,0-6.73-3.014-6.73-6.732c0-3.718,3.014-6.732,6.73-6.732c3.72,0,6.731,3.014,6.731,6.732
	C1247.542,374.192,1244.528,377.206,1240.811,377.206z M1240.811,325.206c-3.72,0-6.73-3.014-6.73-6.732
	c0-3.718,3.014-6.732,6.73-6.732c3.72,0,6.731,3.014,6.731,6.732C1247.542,322.192,1244.528,325.206,1240.811,325.206z
	 M1240.811,273.206c-3.72,0-6.73-3.014-6.73-6.732c0-3.718,3.014-6.732,6.73-6.732c3.72,0,6.731,3.014,6.731,6.732
	C1247.542,270.192,1244.528,273.206,1240.811,273.206z M1240.811,221.206c-3.72,0-6.73-3.014-6.73-6.732
	c0-3.718,3.014-6.732,6.73-6.732c3.72,0,6.731,3.014,6.731,6.732C1247.542,218.192,1244.528,221.206,1240.811,221.206z
	 M1240.811,169.206c-3.72,0-6.73-3.014-6.73-6.732c0-3.718,3.014-6.732,6.73-6.732c3.72,0,6.731,3.014,6.731,6.732
	C1247.542,166.192,1244.528,169.206,1240.811,169.206z M1297.38,689.208c-3.719,0-6.729-3.016-6.729-6.732
	c0-3.719,3.014-6.73,6.729-6.73s6.732,3.014,6.732,6.73S1301.099,689.208,1297.38,689.208z M1297.38,637.208
	c-3.719,0-6.729-3.016-6.729-6.732c0-3.719,3.014-6.73,6.729-6.73s6.732,3.013,6.732,6.73
	C1304.112,634.192,1301.099,637.208,1297.38,637.208z M1297.38,585.207c-3.719,0-6.729-3.016-6.729-6.732
	c0-3.719,3.014-6.729,6.729-6.729s6.732,3.014,6.732,6.729C1304.112,582.191,1301.099,585.207,1297.38,585.207z M1297.38,533.207
	c-3.719,0-6.729-3.016-6.729-6.732c0-3.719,3.014-6.729,6.729-6.729s6.732,3.014,6.732,6.729
	C1304.112,530.191,1301.099,533.207,1297.38,533.207z M1297.38,481.206c-3.719,0-6.729-3.014-6.729-6.732
	c0-3.718,3.014-6.729,6.729-6.729s6.732,3.014,6.732,6.729C1304.112,478.192,1301.099,481.206,1297.38,481.206z M1297.38,429.206
	c-3.719,0-6.729-3.014-6.729-6.732c0-3.718,3.014-6.729,6.729-6.729s6.732,3.014,6.732,6.729
	C1304.112,426.192,1301.099,429.206,1297.38,429.206z M1297.38,377.206c-3.719,0-6.729-3.014-6.729-6.732
	c0-3.718,3.014-6.732,6.729-6.732s6.732,3.014,6.732,6.732C1304.112,374.192,1301.099,377.206,1297.38,377.206z M1297.38,325.206
	c-3.719,0-6.729-3.014-6.729-6.732c0-3.718,3.014-6.732,6.729-6.732s6.732,3.014,6.732,6.732
	C1304.112,322.192,1301.099,325.206,1297.38,325.206z M1297.38,273.206c-3.719,0-6.729-3.014-6.729-6.732
	c0-3.718,3.014-6.732,6.729-6.732s6.732,3.014,6.732,6.732C1304.112,270.192,1301.099,273.206,1297.38,273.206z M1297.38,221.206
	c-3.719,0-6.729-3.014-6.729-6.732c0-3.718,3.014-6.732,6.729-6.732s6.732,3.014,6.732,6.732
	C1304.112,218.192,1301.099,221.206,1297.38,221.206z M1353.95,637.208c-3.72,0-6.732-3.016-6.732-6.732
	c0-3.719,3.015-6.73,6.732-6.73c3.717,0,6.729,3.013,6.729,6.73C1360.683,634.192,1357.669,637.208,1353.95,637.208z
	 M1353.95,585.207c-3.72,0-6.732-3.016-6.732-6.732c0-3.719,3.015-6.729,6.732-6.729c3.717,0,6.729,3.014,6.729,6.729
	C1360.683,582.191,1357.669,585.207,1353.95,585.207z M1353.95,533.207c-3.72,0-6.732-3.016-6.732-6.732
	c0-3.719,3.015-6.729,6.732-6.729c3.717,0,6.729,3.014,6.729,6.729C1360.683,530.191,1357.669,533.207,1353.95,533.207z
	 M1353.95,481.206c-3.72,0-6.732-3.014-6.732-6.732c0-3.718,3.015-6.729,6.732-6.729c3.717,0,6.729,3.014,6.729,6.729
	C1360.682,478.192,1357.669,481.206,1353.95,481.206z M1353.95,429.206c-3.72,0-6.732-3.014-6.732-6.732
	c0-3.718,3.015-6.729,6.732-6.729c3.717,0,6.729,3.014,6.729,6.729C1360.682,426.192,1357.669,429.206,1353.95,429.206z
	 M1353.95,377.206c-3.72,0-6.732-3.014-6.732-6.732c0-3.718,3.015-6.732,6.732-6.732c3.717,0,6.729,3.014,6.729,6.732
	C1360.682,374.192,1357.669,377.206,1353.95,377.206z M1353.95,325.206c-3.72,0-6.732-3.014-6.732-6.732
	c0-3.718,3.015-6.732,6.732-6.732c3.717,0,6.729,3.014,6.729,6.732C1360.682,322.192,1357.669,325.206,1353.95,325.206z
	 M1353.95,273.206c-3.72,0-6.732-3.014-6.732-6.732c0-3.718,3.015-6.732,6.732-6.732c3.717,0,6.729,3.014,6.729,6.732
	C1360.682,270.192,1357.669,273.206,1353.95,273.206z M1353.95,221.206c-3.72,0-6.732-3.014-6.732-6.732
	c0-3.718,3.015-6.732,6.732-6.732c3.717,0,6.729,3.014,6.729,6.732C1360.682,218.192,1357.669,221.206,1353.95,221.206z
	 M1410.521,637.208c-3.722,0-6.732-3.016-6.732-6.732c0-3.719,3.014-6.73,6.732-6.73c3.718,0,6.729,3.013,6.729,6.73
	C1417.253,634.192,1414.239,637.208,1410.521,637.208z M1410.521,585.207c-3.722,0-6.732-3.016-6.732-6.732
	c0-3.719,3.014-6.729,6.732-6.729c3.718,0,6.729,3.014,6.729,6.729C1417.253,582.191,1414.239,585.207,1410.521,585.207z
	 M1410.521,533.207c-3.722,0-6.732-3.016-6.732-6.732c0-3.719,3.014-6.729,6.732-6.729c3.718,0,6.729,3.014,6.729,6.729
	C1417.253,530.191,1414.239,533.207,1410.521,533.207z M1410.521,481.206c-3.722,0-6.732-3.014-6.732-6.732
	c0-3.718,3.014-6.729,6.732-6.729c3.718,0,6.729,3.014,6.729,6.729C1417.253,478.192,1414.239,481.206,1410.521,481.206z
	 M1410.521,429.206c-3.722,0-6.732-3.014-6.732-6.732c0-3.718,3.014-6.729,6.732-6.729c3.718,0,6.729,3.014,6.729,6.729
	C1417.253,426.192,1414.239,429.206,1410.521,429.206z M1410.521,377.206c-3.722,0-6.732-3.014-6.732-6.732
	c0-3.718,3.014-6.732,6.732-6.732c3.718,0,6.729,3.014,6.729,6.732C1417.253,374.192,1414.239,377.206,1410.521,377.206z
	 M1410.521,325.206c-3.722,0-6.732-3.014-6.732-6.732c0-3.718,3.014-6.732,6.732-6.732c3.718,0,6.729,3.014,6.729,6.732
	C1417.253,322.192,1414.239,325.206,1410.521,325.206z M1410.521,273.206c-3.722,0-6.732-3.014-6.732-6.732
	c0-3.718,3.014-6.732,6.732-6.732c3.718,0,6.729,3.014,6.729,6.732C1417.253,270.192,1414.239,273.206,1410.521,273.206z
	 M1467.091,637.208c-3.719,0-6.729-3.016-6.729-6.732c0-3.719,3.014-6.73,6.729-6.73s6.732,3.013,6.732,6.73
	C1473.823,634.192,1470.811,637.208,1467.091,637.208z M1467.091,585.207c-3.719,0-6.729-3.016-6.729-6.732
	c0-3.719,3.014-6.729,6.729-6.729s6.732,3.014,6.732,6.729C1473.823,582.191,1470.811,585.207,1467.091,585.207z M1467.091,533.207
	c-3.719,0-6.729-3.016-6.729-6.732c0-3.719,3.014-6.729,6.729-6.729s6.732,3.014,6.732,6.729
	C1473.823,530.191,1470.811,533.207,1467.091,533.207z M1467.091,481.206c-3.719,0-6.729-3.014-6.729-6.732
	c0-3.718,3.014-6.729,6.729-6.729s6.732,3.014,6.732,6.729C1473.823,478.192,1470.811,481.206,1467.091,481.206z M1467.091,429.206
	c-3.719,0-6.729-3.014-6.729-6.732c0-3.718,3.014-6.729,6.729-6.729s6.732,3.014,6.732,6.729
	C1473.823,426.192,1470.811,429.206,1467.091,429.206z M1467.091,377.206c-3.719,0-6.729-3.014-6.729-6.732
	c0-3.718,3.014-6.732,6.729-6.732s6.732,3.014,6.732,6.732C1473.823,374.192,1470.811,377.206,1467.091,377.206z M1467.091,325.206
	c-3.719,0-6.729-3.014-6.729-6.732c0-3.718,3.014-6.732,6.729-6.732s6.732,3.014,6.732,6.732
	C1473.823,322.192,1470.811,325.206,1467.091,325.206z M1467.091,273.206c-3.719,0-6.729-3.014-6.729-6.732
	c0-3.718,3.014-6.732,6.729-6.732s6.732,3.014,6.732,6.732C1473.823,270.192,1470.811,273.206,1467.091,273.206z M1523.661,637.208
	c-3.719,0-6.732-3.016-6.732-6.732c0-3.719,3.017-6.73,6.732-6.73s6.729,3.013,6.729,6.73
	C1530.395,634.192,1527.38,637.208,1523.661,637.208z M1523.661,585.207c-3.719,0-6.732-3.016-6.732-6.732
	c0-3.719,3.017-6.729,6.732-6.729s6.729,3.014,6.729,6.729C1530.395,582.191,1527.38,585.207,1523.661,585.207z M1523.661,533.207
	c-3.719,0-6.732-3.016-6.732-6.732c0-3.719,3.017-6.729,6.732-6.729s6.729,3.014,6.729,6.729
	C1530.395,530.191,1527.38,533.207,1523.661,533.207z M1523.661,481.206c-3.719,0-6.732-3.014-6.732-6.732
	c0-3.718,3.017-6.729,6.732-6.729s6.729,3.014,6.729,6.729C1530.393,478.192,1527.38,481.206,1523.661,481.206z M1523.661,429.206
	c-3.719,0-6.732-3.014-6.732-6.732c0-3.718,3.017-6.729,6.732-6.729s6.729,3.014,6.729,6.729
	C1530.393,426.192,1527.38,429.206,1523.661,429.206z M1523.661,377.206c-3.719,0-6.732-3.014-6.732-6.732
	c0-3.718,3.017-6.732,6.732-6.732s6.729,3.014,6.729,6.732C1530.393,374.192,1527.38,377.206,1523.661,377.206z M1523.661,325.206
	c-3.719,0-6.732-3.014-6.732-6.732c0-3.718,3.017-6.732,6.732-6.732s6.729,3.014,6.729,6.732
	C1530.393,322.192,1527.38,325.206,1523.661,325.206z M1580.23,637.208c-3.721,0-6.731-3.016-6.731-6.732
	c0-3.719,3.014-6.73,6.731-6.73c3.719,0,6.73,3.013,6.73,6.73C1586.964,634.192,1583.95,637.208,1580.23,637.208z M1580.23,585.207
	c-3.721,0-6.731-3.016-6.731-6.732c0-3.719,3.014-6.729,6.731-6.729c3.719,0,6.73,3.014,6.73,6.729
	C1586.964,582.191,1583.95,585.207,1580.23,585.207z M1580.23,533.207c-3.721,0-6.731-3.016-6.731-6.732
	c0-3.719,3.014-6.729,6.731-6.729c3.719,0,6.73,3.014,6.73,6.729C1586.964,530.191,1583.95,533.207,1580.23,533.207z
	 M1580.23,481.206c-3.721,0-6.731-3.014-6.731-6.732c0-3.718,3.014-6.729,6.731-6.729c3.719,0,6.73,3.014,6.73,6.729
	C1586.963,478.192,1583.95,481.206,1580.23,481.206z M1580.23,429.206c-3.721,0-6.731-3.014-6.731-6.732
	c0-3.718,3.014-6.729,6.731-6.729c3.719,0,6.73,3.014,6.73,6.729C1586.963,426.192,1583.95,429.206,1580.23,429.206z
	 M1580.23,377.206c-3.721,0-6.731-3.014-6.731-6.732c0-3.718,3.014-6.732,6.731-6.732c3.719,0,6.73,3.014,6.73,6.732
	C1586.963,374.192,1583.95,377.206,1580.23,377.206z M1580.23,325.206c-3.721,0-6.731-3.014-6.731-6.732
	c0-3.718,3.014-6.732,6.731-6.732c3.719,0,6.73,3.014,6.73,6.732C1586.963,322.192,1583.95,325.206,1580.23,325.206z
	 M1636.802,637.208c-3.719,0-6.729-3.016-6.729-6.732c0-3.719,3.014-6.73,6.729-6.73s6.732,3.013,6.732,6.73
	C1643.534,634.192,1640.521,637.208,1636.802,637.208z M1636.802,585.207c-3.719,0-6.729-3.016-6.729-6.732
	c0-3.719,3.014-6.729,6.729-6.729s6.732,3.014,6.732,6.729C1643.534,582.191,1640.521,585.207,1636.802,585.207z M1636.802,533.207
	c-3.719,0-6.729-3.016-6.729-6.732c0-3.719,3.014-6.729,6.729-6.729s6.732,3.014,6.732,6.729
	C1643.534,530.191,1640.521,533.207,1636.802,533.207z M1636.802,481.206c-3.719,0-6.729-3.014-6.729-6.732
	c0-3.718,3.014-6.729,6.729-6.729s6.732,3.014,6.732,6.729C1643.534,478.192,1640.521,481.206,1636.802,481.206z M1636.802,429.206
	c-3.719,0-6.729-3.014-6.729-6.732c0-3.718,3.014-6.729,6.729-6.729s6.732,3.014,6.732,6.729
	C1643.534,426.192,1640.521,429.206,1636.802,429.206z M1636.802,377.206c-3.719,0-6.729-3.014-6.729-6.732
	c0-3.718,3.014-6.732,6.729-6.732s6.732,3.014,6.732,6.732C1643.534,374.192,1640.521,377.206,1636.802,377.206z M1693.372,637.208
	c-3.719,0-6.732-3.016-6.732-6.732c0-3.719,3.017-6.73,6.732-6.73s6.729,3.013,6.729,6.73
	C1700.104,634.192,1697.091,637.208,1693.372,637.208z M1693.372,585.207c-3.719,0-6.732-3.016-6.732-6.732
	c0-3.719,3.017-6.729,6.732-6.729s6.729,3.014,6.729,6.729C1700.104,582.191,1697.091,585.207,1693.372,585.207z M1693.372,533.207
	c-3.719,0-6.732-3.016-6.732-6.732c0-3.719,3.017-6.729,6.732-6.729s6.729,3.014,6.729,6.729
	C1700.104,530.191,1697.091,533.207,1693.372,533.207z M1693.372,481.206c-3.719,0-6.732-3.014-6.732-6.732
	c0-3.718,3.017-6.729,6.732-6.729s6.729,3.014,6.729,6.729C1700.104,478.192,1697.091,481.206,1693.372,481.206z M1693.372,429.206
	c-3.719,0-6.732-3.014-6.732-6.732c0-3.718,3.017-6.729,6.732-6.729s6.729,3.014,6.729,6.729
	C1700.104,426.192,1697.091,429.206,1693.372,429.206z M1693.372,377.206c-3.719,0-6.732-3.014-6.732-6.732
	c0-3.718,3.017-6.732,6.732-6.732s6.729,3.014,6.729,6.732C1700.104,374.192,1697.091,377.206,1693.372,377.206z M1749.942,689.208
	c-3.722,0-6.732-3.016-6.732-6.732c0-3.719,3.014-6.73,6.732-6.73c3.718,0,6.729,3.014,6.729,6.73
	C1756.675,686.192,1753.661,689.208,1749.942,689.208z M1749.942,637.208c-3.722,0-6.732-3.016-6.732-6.732
	c0-3.719,3.014-6.73,6.732-6.73c3.718,0,6.729,3.013,6.729,6.73C1756.675,634.192,1753.661,637.208,1749.942,637.208z
	 M1749.942,585.207c-3.722,0-6.732-3.016-6.732-6.732c0-3.719,3.014-6.729,6.732-6.729c3.718,0,6.729,3.014,6.729,6.729
	C1756.675,582.191,1753.661,585.207,1749.942,585.207z M1749.942,533.207c-3.722,0-6.732-3.016-6.732-6.732
	c0-3.719,3.014-6.729,6.732-6.729c3.718,0,6.729,3.014,6.729,6.729C1756.675,530.191,1753.661,533.207,1749.942,533.207z
	 M1749.942,481.206c-3.722,0-6.732-3.014-6.732-6.732c0-3.718,3.014-6.729,6.732-6.729c3.718,0,6.729,3.014,6.729,6.729
	C1756.674,478.192,1753.661,481.206,1749.942,481.206z M1749.942,429.206c-3.722,0-6.732-3.014-6.732-6.732
	c0-3.718,3.014-6.729,6.732-6.729c3.718,0,6.729,3.014,6.729,6.729C1756.674,426.192,1753.661,429.206,1749.942,429.206z
	 M1806.513,689.208c-3.719,0-6.729-3.016-6.729-6.732c0-3.719,3.014-6.73,6.729-6.73s6.732,3.014,6.732,6.73
	S1810.23,689.208,1806.513,689.208z M1806.513,637.208c-3.719,0-6.729-3.016-6.729-6.732c0-3.719,3.014-6.73,6.729-6.73
	s6.732,3.013,6.732,6.73C1813.245,634.192,1810.23,637.208,1806.513,637.208z M1806.513,585.207c-3.719,0-6.729-3.016-6.729-6.732
	c0-3.719,3.014-6.729,6.729-6.729s6.732,3.014,6.732,6.729C1813.245,582.191,1810.23,585.207,1806.513,585.207z M1806.513,533.207
	c-3.719,0-6.729-3.016-6.729-6.732c0-3.719,3.014-6.729,6.729-6.729s6.732,3.014,6.732,6.729
	C1813.245,530.191,1810.23,533.207,1806.513,533.207z M1806.513,481.206c-3.719,0-6.729-3.014-6.729-6.732
	c0-3.718,3.014-6.729,6.729-6.729s6.732,3.014,6.732,6.729C1813.245,478.192,1810.23,481.206,1806.513,481.206z M1806.513,429.206
	c-3.719,0-6.729-3.014-6.729-6.732c0-3.718,3.014-6.729,6.729-6.729s6.732,3.014,6.732,6.729
	C1813.245,426.192,1810.23,429.206,1806.513,429.206z M1863.083,689.208c-3.719,0-6.732-3.016-6.732-6.732
	c0-3.719,3.017-6.73,6.732-6.73s6.732,3.014,6.732,6.73C1869.814,686.192,1866.802,689.208,1863.083,689.208z M1863.083,637.208
	c-3.719,0-6.732-3.016-6.732-6.732c0-3.719,3.017-6.73,6.732-6.73s6.732,3.013,6.732,6.73
	C1869.814,634.192,1866.802,637.208,1863.083,637.208z M1863.083,585.207c-3.719,0-6.732-3.016-6.732-6.732
	c0-3.719,3.017-6.729,6.732-6.729s6.732,3.014,6.732,6.729C1869.814,582.191,1866.802,585.207,1863.083,585.207z M1863.083,533.207
	c-3.719,0-6.732-3.016-6.732-6.732c0-3.719,3.017-6.729,6.732-6.729s6.732,3.014,6.732,6.729
	C1869.814,530.191,1866.802,533.207,1863.083,533.207z M1863.083,481.206c-3.719,0-6.732-3.014-6.732-6.732
	c0-3.718,3.017-6.729,6.732-6.729s6.732,3.014,6.732,6.729C1869.814,478.192,1866.802,481.206,1863.083,481.206z M1919.653,741.208
	c-3.722,0-6.732-3.016-6.732-6.732c0-3.719,3.014-6.73,6.732-6.73c3.718,0,6.729,3.014,6.729,6.73
	C1926.386,738.192,1923.372,741.208,1919.653,741.208z M1919.653,689.208c-3.722,0-6.732-3.016-6.732-6.732
	c0-3.719,3.014-6.73,6.732-6.73c3.718,0,6.729,3.014,6.729,6.73C1926.386,686.192,1923.372,689.208,1919.653,689.208z
	 M1919.653,637.208c-3.722,0-6.732-3.016-6.732-6.732c0-3.719,3.014-6.73,6.732-6.73c3.718,0,6.729,3.013,6.729,6.73
	C1926.386,634.192,1923.372,637.208,1919.653,637.208z M1919.653,585.207c-3.722,0-6.732-3.016-6.732-6.732
	c0-3.719,3.014-6.729,6.732-6.729c3.718,0,6.729,3.014,6.729,6.729C1926.386,582.191,1923.372,585.207,1919.653,585.207z
	 M1919.653,533.207c-3.722,0-6.732-3.016-6.732-6.732c0-3.719,3.014-6.729,6.732-6.729c3.718,0,6.729,3.014,6.729,6.729
	C1926.386,530.191,1923.372,533.207,1919.653,533.207z M1919.653,481.206c-3.722,0-6.732-3.014-6.732-6.732
	c0-3.718,3.014-6.729,6.732-6.729c3.718,0,6.729,3.014,6.729,6.729C1926.385,478.192,1923.372,481.206,1919.653,481.206z
	 M1976.225,741.208c-3.72,0-6.73-3.016-6.73-6.732c0-3.719,3.014-6.73,6.73-6.73c3.719,0,6.731,3.014,6.731,6.73
	S1979.941,741.208,1976.225,741.208z M1976.225,689.208c-3.72,0-6.73-3.016-6.73-6.732c0-3.719,3.014-6.73,6.73-6.73
	c3.719,0,6.731,3.014,6.731,6.73S1979.941,689.208,1976.225,689.208z M1976.225,637.208c-3.72,0-6.73-3.016-6.73-6.732
	c0-3.719,3.014-6.73,6.73-6.73c3.719,0,6.731,3.013,6.731,6.73C1982.956,634.192,1979.941,637.208,1976.225,637.208z
	 M1976.225,585.207c-3.72,0-6.73-3.016-6.73-6.732c0-3.719,3.014-6.729,6.73-6.729c3.719,0,6.731,3.014,6.731,6.729
	C1982.956,582.191,1979.941,585.207,1976.225,585.207z M1976.225,533.207c-3.72,0-6.73-3.016-6.73-6.732
	c0-3.719,3.014-6.729,6.73-6.729c3.719,0,6.731,3.014,6.731,6.729C1982.956,530.191,1979.941,533.207,1976.225,533.207z
	 M2032.794,793.208c-3.719,0-6.731-3.016-6.731-6.732c0-3.719,3.016-6.73,6.731-6.73s6.731,3.014,6.731,6.73
	S2036.513,793.208,2032.794,793.208z M2032.794,741.208c-3.719,0-6.731-3.016-6.731-6.732c0-3.719,3.016-6.73,6.731-6.73
	s6.731,3.014,6.731,6.73S2036.513,741.208,2032.794,741.208z M2032.794,689.208c-3.719,0-6.731-3.016-6.731-6.732
	c0-3.719,3.016-6.73,6.731-6.73s6.731,3.014,6.731,6.73S2036.513,689.208,2032.794,689.208z M2032.794,637.208
	c-3.719,0-6.731-3.016-6.731-6.732c0-3.719,3.016-6.73,6.731-6.73s6.731,3.013,6.731,6.73
	C2039.525,634.192,2036.513,637.208,2032.794,637.208z M2032.794,585.207c-3.719,0-6.731-3.016-6.731-6.732
	c0-3.719,3.016-6.729,6.731-6.729s6.731,3.014,6.731,6.729C2039.525,582.191,2036.513,585.207,2032.794,585.207z M2032.794,533.207
	c-3.719,0-6.731-3.016-6.731-6.732c0-3.719,3.016-6.729,6.731-6.729s6.731,3.014,6.731,6.729
	C2039.525,530.191,2036.513,533.207,2032.794,533.207z M2089.364,741.208c-3.72,0-6.732-3.016-6.732-6.732
	c0-3.719,3.015-6.73,6.732-6.73c3.717,0,6.729,3.014,6.729,6.73C2096.097,738.192,2093.083,741.208,2089.364,741.208z
	 M2089.364,689.208c-3.72,0-6.732-3.016-6.732-6.732c0-3.719,3.015-6.73,6.732-6.73c3.717,0,6.729,3.014,6.729,6.73
	C2096.097,686.192,2093.083,689.208,2089.364,689.208z M2089.364,637.208c-3.72,0-6.732-3.016-6.732-6.732
	c0-3.719,3.015-6.73,6.732-6.73c3.717,0,6.729,3.013,6.729,6.73C2096.097,634.192,2093.083,637.208,2089.364,637.208z
	 M2089.364,585.207c-3.72,0-6.732-3.016-6.732-6.732c0-3.719,3.015-6.729,6.732-6.729c3.717,0,6.729,3.014,6.729,6.729
	C2096.097,582.191,2093.083,585.207,2089.364,585.207z M2145.936,585.207c-3.72,0-6.73-3.016-6.73-6.732
	c0-3.719,3.014-6.729,6.73-6.729c3.72,0,6.731,3.014,6.731,6.729C2152.667,582.191,2149.653,585.207,2145.936,585.207z"/>
</svg>
