<?xml version="1.0" encoding="utf-8"?>
<!-- Generator: Adobe Illustrator 16.0.0, SVG Export Plug-In . SVG Version: 6.00 Build 0)  -->
<!DOCTYPE svg PUBLIC "-//W3C//DTD SVG 1.1//EN" "http://www.w3.org/Graphics/SVG/1.1/DTD/svg11.dtd">
<svg version="1.1" id="Layer_1" xmlns="http://www.w3.org/2000/svg" xmlns:xlink="http://www.w3.org/1999/xlink" x="0px" y="0px"
	 width="2971.062px" height="1247.549px" viewBox="0 0 2971.062 1247.549" enable-background="new 0 0 2971.062 1247.549"
	 xml:space="preserve">
<path d="M2971.062,742.576c-29.99,29.645-57.619,61.588-83.93,94.52c-35.519,44.73-68.318,91.603-98.482,140.082
	c-6.504,9.881-12.174,20.283-18.452,30.312c-44.267,74.893-82.644,153.287-114.582,234.219c-0.742,2.084-1.898,3.971-3.086,5.84
	c-31.218-26.943-62.291-54.076-93.545-80.984c-47.261-34.887-94.898-69.266-142.854-103.188
	c-61.076-43.199-122.678-85.666-185.498-126.268c-6.529-3.828-12.586-8.398-19.131-12.224
	c-33.803-21.037-67.627-42.117-103.17-60.129c-3.967-2.096-8.174-3.75-11.934-6.221c5.621-1.84,11.543-2.496,17.282-3.848
	c53.906-11.111,107.875-21.869,161.793-32.937c87.312-17.99,174.666-35.811,261.986-53.736c3.873-0.627,7.648-1.807,11.551-2.197
	c2.632,1.007,4.613,3.152,7.035,4.538c24.123,14.366,51.612,22.317,79.336,25.883c36.98,4.737,74.594,1.74,111.006-5.738
	c69.332-13.18,138.336-28.055,207.067-44.047C2959.344,745.212,2965.1,743.365,2971.062,742.576z M1771.682,113.401L844.485,513.235
	l-56.041,24.977c0,0-9.846,6.663-15.973-4.685c-6.127-11.351-46.027-101.581-87.9-125.064
	c-41.874-23.482-89.548-45.336-159.533-37.91c-69.981,7.426-177.731,27.67-253.602,64.739
	c-75.867,37.067-93.857,49.122-116.733,47.096c-22.875-2.023-132.903-12.66-132.903-12.66s-28.385,2.471-20.375-23.311
	c8.015-25.779,2.152-54.605,81.698-91.976s412.28-177.521,412.28-177.521S720.841,82.936,885.702,54.293
	C1050.566,25.65,1187.556,3.109,1300.89,1.722c113.334-1.387,218.197-6.566,289.115,12.004
	c70.916,18.57,92.073,26.488,92.073,26.488l32.769,15.6l33.854,19.998l16.595,12.565l8.219,7.513
	C1773.51,95.891,1790.15,107.19,1771.682,113.401z M2461.15,712.722l-181.252-126l-242.699-168.72l-4.459-2.625l-4.299-1.998
	l-9.336-4.658c0,0-7.377-3.967-8.604-4.666c-1.236-0.701-11.543-6.809-11.543-6.809l-13.257-8.563l-7.896-5.483l-14.762-10.969
	l-10.275-8.207l-14.721-12.651l-11.615-10.765l-13.205-13.168l-10.74-11.492l-10.719-12.234l-12.32-15.107l-13.014-17.338
	l-10.67-15.404l-10.934-17.072l-8.611-14.522l-8.311-15.042l-7.802-15.226l-6.375-13.458l-7.161-15.904l-7.158-17.429l-4.535-12.294
	l-0.947-2.76c0,0-0.238-4.411-4.322-4.562c-4.082-0.141-6.213,0.189-6.213,0.189l-3.701,0.816l-6.775,2.104l-7.633,3.009
	l-10.793,4.577l-107.479,45.496l-98.188,41.668L1306.31,328.26l-256.131,108.586l-161.153,71.687l-21.104,10.43l-20.405,11.67
	l-6.959,3.861c0,0-43.614,22.684-28.331,61.42c15.283,38.728,23.646,58.892,23.646,58.892l45.371,102.172l8.35,13.199l7.846,10.599
	l7.619,8.602l6.025,5.553l7.915,5.479l8.34,3.271l8.095,0.334l6-1.875l6.408-3.873l-0.784,0.18c0,0,3.005-1.841,8.896-5.084
	l0.05-0.026l0.071-0.039c5.465-3.006,13.387-7.207,23.663-12.264l0.062-0.033l0.106-0.052c4.383-2.153,9.193-4.466,14.427-6.903
	c0,0,0.025-0.015,0.043-0.021c13.188-6.146,29.043-13.113,47.468-20.493l0.216-0.091l0.256-0.101
	c6.363-2.545,13.031-5.138,19.998-7.763l0.035-0.013l0.025-0.013c9.31-3.504,19.146-7.065,29.518-10.646l0.229-0.08l0.31-0.104
	c17.853-6.148,37.252-12.344,58.149-18.379l0.226-0.07l0.17-0.045c10.271-2.965,20.911-5.889,31.897-8.75l0.271-0.072l0.211-0.055
	c12.313-3.203,25.069-6.328,38.268-9.34l0.036-0.01l0.163-0.035c4.972-1.133,10.007-2.25,15.104-3.351l0.552-0.122l0.218-0.044
	c11.938-2.571,24.206-5.043,36.812-7.396l0.192-0.037l0.281-0.051c10.288-1.914,20.793-3.752,31.519-5.494l0.304-0.053l0.164-0.023
	c13.904-2.254,28.18-4.35,42.808-6.26l0.113-0.018l0.105-0.017c10.704-1.396,21.602-2.688,32.682-3.881l0.286-0.033
	c0,0,0.241-0.021,0.248-0.021c150.061-14.181,276.688,23.016,417.664,65.588l306.328,98.299l2.113,0.576l2.537,0.283l3.578-0.531
	l3.883-0.771l173.834-34.146l149.805-29.326l78.443-15.742L2461.15,712.722z M881.183,696.418c-3.718,0-6.731-3.014-6.731-6.732
	c0-3.717,3.017-6.729,6.731-6.729c3.719,0,6.729,3.016,6.729,6.729C887.917,693.404,884.902,696.418,881.183,696.418z
	 M881.183,644.418c-3.718,0-6.731-3.014-6.731-6.732c0-3.717,3.017-6.729,6.731-6.729c3.719,0,6.729,3.016,6.729,6.729
	C887.917,641.404,884.902,644.418,881.183,644.418z M881.183,592.418c-3.718,0-6.731-3.014-6.731-6.732
	c0-3.717,3.017-6.729,6.731-6.729c3.719,0,6.729,3.016,6.729,6.729C887.917,589.404,884.902,592.418,881.183,592.418z
	 M937.756,748.418c-3.721,0-6.731-3.014-6.731-6.732c0-3.717,3.014-6.729,6.731-6.729c3.719,0,6.729,3.016,6.729,6.729
	C944.486,745.404,941.472,748.418,937.756,748.418z M937.756,696.418c-3.721,0-6.731-3.014-6.731-6.732
	c0-3.717,3.014-6.729,6.731-6.729c3.719,0,6.729,3.016,6.729,6.729C944.486,693.404,941.472,696.418,937.756,696.418z
	 M937.756,644.418c-3.721,0-6.731-3.014-6.731-6.732c0-3.717,3.014-6.729,6.731-6.729c3.719,0,6.729,3.016,6.729,6.729
	C944.486,641.404,941.472,644.418,937.756,644.418z M937.756,592.418c-3.721,0-6.731-3.014-6.731-6.732
	c0-3.717,3.014-6.729,6.731-6.729c3.719,0,6.729,3.016,6.729,6.729C944.486,589.404,941.472,592.418,937.756,592.418z
	 M937.756,540.418c-3.721,0-6.731-3.014-6.731-6.732c0-3.717,3.014-6.729,6.731-6.729c3.719,0,6.729,3.016,6.729,6.729
	C944.486,537.404,941.472,540.418,937.756,540.418z M994.324,748.418c-3.718,0-6.729-3.014-6.729-6.732
	c0-3.717,3.014-6.729,6.729-6.729c3.72,0,6.733,3.016,6.733,6.729C1001.057,745.404,998.046,748.418,994.324,748.418z
	 M994.324,696.418c-3.718,0-6.729-3.014-6.729-6.732c0-3.717,3.014-6.729,6.729-6.729c3.72,0,6.733,3.016,6.733,6.729
	C1001.057,693.404,998.046,696.418,994.324,696.418z M994.324,644.418c-3.718,0-6.729-3.014-6.729-6.732
	c0-3.717,3.014-6.729,6.729-6.729c3.72,0,6.733,3.016,6.733,6.729C1001.057,641.404,998.046,644.418,994.324,644.418z
	 M994.324,592.418c-3.718,0-6.729-3.014-6.729-6.732c0-3.717,3.014-6.729,6.729-6.729c3.72,0,6.733,3.016,6.733,6.729
	C1001.057,589.404,998.046,592.418,994.324,592.418z M994.324,540.418c-3.718,0-6.729-3.014-6.729-6.732
	c0-3.717,3.014-6.729,6.729-6.729c3.72,0,6.733,3.016,6.733,6.729C1001.057,537.404,998.046,540.418,994.324,540.418z
	 M994.324,488.418c-3.719,0-6.729-3.014-6.729-6.732c0-3.718,3.014-6.729,6.729-6.729c3.718,0,6.732,3.014,6.732,6.729
	C1001.056,485.404,998.046,488.418,994.324,488.418z M1050.895,696.418c-3.719,0-6.732-3.014-6.732-6.732
	c0-3.717,3.017-6.729,6.732-6.729s6.732,3.016,6.732,6.729C1057.63,693.404,1054.613,696.418,1050.895,696.418z M1050.895,644.418
	c-3.719,0-6.732-3.014-6.732-6.732c0-3.717,3.017-6.729,6.732-6.729s6.732,3.016,6.732,6.729
	C1057.63,641.404,1054.613,644.418,1050.895,644.418z M1050.895,592.418c-3.719,0-6.732-3.014-6.732-6.732
	c0-3.717,3.017-6.729,6.732-6.729s6.732,3.016,6.732,6.729C1057.63,589.404,1054.613,592.418,1050.895,592.418z M1050.895,540.418
	c-3.719,0-6.732-3.014-6.732-6.732c0-3.717,3.017-6.729,6.732-6.729s6.732,3.016,6.732,6.729
	C1057.63,537.404,1054.613,540.418,1050.895,540.418z M1050.895,488.418c-3.719,0-6.732-3.014-6.732-6.732
	c0-3.718,3.017-6.729,6.732-6.729s6.732,3.014,6.732,6.729C1057.63,485.404,1054.613,488.418,1050.895,488.418z M1107.468,696.418
	c-3.721,0-6.732-3.014-6.732-6.732c0-3.717,3.014-6.729,6.732-6.729c3.718,0,6.729,3.016,6.729,6.729
	C1114.197,693.404,1111.184,696.418,1107.468,696.418z M1107.468,644.418c-3.721,0-6.732-3.014-6.732-6.732
	c0-3.717,3.014-6.729,6.732-6.729c3.718,0,6.729,3.016,6.729,6.729C1114.197,641.404,1111.184,644.418,1107.468,644.418z
	 M1107.468,592.418c-3.721,0-6.732-3.014-6.732-6.732c0-3.717,3.014-6.729,6.732-6.729c3.718,0,6.729,3.016,6.729,6.729
	C1114.197,589.404,1111.184,592.418,1107.468,592.418z M1107.468,540.418c-3.721,0-6.732-3.014-6.732-6.732
	c0-3.717,3.014-6.729,6.732-6.729c3.718,0,6.729,3.016,6.729,6.729C1114.197,537.404,1111.184,540.418,1107.468,540.418z
	 M1107.468,488.418c-3.721,0-6.732-3.014-6.732-6.732c0-3.718,3.014-6.729,6.732-6.729c3.718,0,6.729,3.014,6.729,6.729
	C1114.197,485.404,1111.184,488.418,1107.468,488.418z M1107.468,436.418c-3.721,0-6.732-3.014-6.732-6.732
	c0-3.718,3.014-6.729,6.732-6.729c3.718,0,6.729,3.014,6.729,6.729C1114.197,433.404,1111.184,436.418,1107.468,436.418z
	 M1164.035,696.418c-3.719,0-6.729-3.014-6.729-6.732c0-3.717,3.014-6.729,6.729-6.729c3.721,0,6.732,3.016,6.732,6.729
	C1170.768,693.404,1167.757,696.418,1164.035,696.418z M1164.035,644.418c-3.719,0-6.729-3.014-6.729-6.732
	c0-3.717,3.014-6.729,6.729-6.729c3.721,0,6.732,3.016,6.732,6.729C1170.768,641.404,1167.757,644.418,1164.035,644.418z
	 M1164.035,592.418c-3.719,0-6.729-3.014-6.729-6.732c0-3.717,3.014-6.729,6.729-6.729c3.721,0,6.732,3.016,6.732,6.729
	C1170.768,589.404,1167.757,592.418,1164.035,592.418z M1164.035,540.418c-3.719,0-6.729-3.014-6.729-6.732
	c0-3.717,3.014-6.729,6.729-6.729c3.721,0,6.732,3.016,6.732,6.729C1170.768,537.404,1167.757,540.418,1164.035,540.418z
	 M1164.035,488.418c-3.719,0-6.729-3.014-6.729-6.732c0-3.718,3.014-6.729,6.729-6.729c3.721,0,6.732,3.014,6.732,6.729
	C1170.767,485.404,1167.757,488.418,1164.035,488.418z M1164.035,436.418c-3.719,0-6.729-3.014-6.729-6.732
	c0-3.718,3.014-6.729,6.729-6.729c3.721,0,6.732,3.014,6.732,6.729C1170.767,433.404,1167.757,436.418,1164.035,436.418z
	 M1220.605,644.418c-3.719,0-6.732-3.014-6.732-6.732c0-3.717,3.017-6.729,6.732-6.729s6.732,3.016,6.732,6.729
	C1227.341,641.404,1224.324,644.418,1220.605,644.418z M1220.605,592.418c-3.719,0-6.732-3.014-6.732-6.732
	c0-3.717,3.017-6.729,6.732-6.729s6.732,3.016,6.732,6.729C1227.341,589.404,1224.324,592.418,1220.605,592.418z M1220.605,540.418
	c-3.719,0-6.732-3.014-6.732-6.732c0-3.717,3.017-6.729,6.732-6.729s6.732,3.016,6.732,6.729
	C1227.341,537.404,1224.324,540.418,1220.605,540.418z M1220.605,488.418c-3.719,0-6.732-3.014-6.732-6.732
	c0-3.718,3.017-6.729,6.732-6.729s6.732,3.014,6.732,6.729C1227.34,485.404,1224.324,488.418,1220.605,488.418z M1220.605,436.418
	c-3.719,0-6.732-3.014-6.732-6.732c0-3.718,3.017-6.729,6.732-6.729s6.732,3.014,6.732,6.729
	C1227.34,433.404,1224.324,436.418,1220.605,436.418z M1277.177,644.418c-3.72,0-6.732-3.014-6.732-6.732
	c0-3.717,3.015-6.729,6.732-6.729c3.717,0,6.729,3.016,6.729,6.729C1283.908,641.404,1280.895,644.418,1277.177,644.418z
	 M1277.177,592.418c-3.72,0-6.732-3.014-6.732-6.732c0-3.717,3.015-6.729,6.732-6.729c3.717,0,6.729,3.016,6.729,6.729
	C1283.908,589.404,1280.895,592.418,1277.177,592.418z M1277.177,540.418c-3.72,0-6.732-3.014-6.732-6.732
	c0-3.717,3.015-6.729,6.732-6.729c3.717,0,6.729,3.016,6.729,6.729C1283.908,537.404,1280.895,540.418,1277.177,540.418z
	 M1277.177,488.418c-3.72,0-6.732-3.014-6.732-6.732c0-3.718,3.015-6.729,6.732-6.729c3.717,0,6.729,3.014,6.729,6.729
	C1283.908,485.404,1280.895,488.418,1277.177,488.418z M1277.177,436.418c-3.72,0-6.732-3.014-6.732-6.732
	c0-3.718,3.015-6.729,6.732-6.729c3.717,0,6.729,3.014,6.729,6.729C1283.908,433.404,1280.895,436.418,1277.177,436.418z
	 M1277.177,384.418c-3.72,0-6.732-3.014-6.732-6.732c0-3.718,3.015-6.732,6.732-6.732c3.717,0,6.729,3.014,6.729,6.732
	C1283.908,381.404,1280.895,384.418,1277.177,384.418z M1333.746,644.418c-3.719,0-6.729-3.014-6.729-6.732
	c0-3.717,3.014-6.729,6.729-6.729c3.721,0,6.732,3.016,6.732,6.729C1340.479,641.404,1337.468,644.418,1333.746,644.418z
	 M1333.746,592.418c-3.719,0-6.729-3.014-6.729-6.732c0-3.717,3.014-6.729,6.729-6.729c3.721,0,6.732,3.016,6.732,6.729
	C1340.479,589.404,1337.468,592.418,1333.746,592.418z M1333.746,540.418c-3.719,0-6.729-3.014-6.729-6.732
	c0-3.717,3.014-6.729,6.729-6.729c3.721,0,6.732,3.016,6.732,6.729C1340.479,537.404,1337.468,540.418,1333.746,540.418z
	 M1333.746,488.418c-3.719,0-6.729-3.014-6.729-6.732c0-3.718,3.014-6.729,6.729-6.729c3.721,0,6.732,3.014,6.732,6.729
	C1340.478,485.404,1337.468,488.418,1333.746,488.418z M1333.746,436.418c-3.719,0-6.729-3.014-6.729-6.732
	c0-3.718,3.014-6.729,6.729-6.729c3.721,0,6.732,3.014,6.732,6.729C1340.478,433.404,1337.468,436.418,1333.746,436.418z
	 M1333.746,384.418c-3.719,0-6.729-3.014-6.729-6.732c0-3.718,3.014-6.732,6.729-6.732c3.721,0,6.732,3.014,6.732,6.732
	C1340.478,381.404,1337.468,384.418,1333.746,384.418z M1390.316,644.418c-3.719,0-6.729-3.014-6.729-6.732
	c0-3.717,3.014-6.729,6.729-6.729s6.732,3.016,6.732,6.729C1397.052,641.404,1394.035,644.418,1390.316,644.418z M1390.316,592.418
	c-3.719,0-6.729-3.014-6.729-6.732c0-3.717,3.014-6.729,6.729-6.729s6.732,3.016,6.732,6.729
	C1397.052,589.404,1394.035,592.418,1390.316,592.418z M1390.316,540.418c-3.719,0-6.729-3.014-6.729-6.732
	c0-3.717,3.014-6.729,6.729-6.729s6.732,3.016,6.732,6.729C1397.052,537.404,1394.035,540.418,1390.316,540.418z M1390.316,488.418
	c-3.719,0-6.729-3.014-6.729-6.732c0-3.718,3.014-6.729,6.729-6.729s6.732,3.014,6.732,6.729
	C1397.051,485.404,1394.035,488.418,1390.316,488.418z M1390.316,436.418c-3.719,0-6.729-3.014-6.729-6.732
	c0-3.718,3.014-6.729,6.729-6.729s6.732,3.014,6.732,6.729C1397.051,433.404,1394.035,436.418,1390.316,436.418z M1390.316,384.418
	c-3.719,0-6.729-3.014-6.729-6.732c0-3.718,3.014-6.732,6.729-6.732s6.732,3.014,6.732,6.732
	C1397.051,381.404,1394.035,384.418,1390.316,384.418z M1390.316,332.418c-3.719,0-6.729-3.014-6.729-6.732
	c0-3.718,3.014-6.732,6.729-6.732s6.732,3.014,6.732,6.732C1397.051,329.404,1394.035,332.418,1390.316,332.418z M1446.887,644.418
	c-3.719,0-6.732-3.014-6.732-6.732c0-3.717,3.014-6.729,6.732-6.729c3.718,0,6.729,3.016,6.729,6.729
	C1453.619,641.404,1450.605,644.418,1446.887,644.418z M1446.887,592.418c-3.719,0-6.732-3.014-6.732-6.732
	c0-3.717,3.014-6.729,6.732-6.729c3.718,0,6.729,3.016,6.729,6.729C1453.619,589.404,1450.605,592.418,1446.887,592.418z
	 M1446.887,540.418c-3.719,0-6.732-3.014-6.732-6.732c0-3.717,3.014-6.729,6.732-6.729c3.718,0,6.729,3.016,6.729,6.729
	C1453.619,537.404,1450.605,540.418,1446.887,540.418z M1446.887,488.418c-3.719,0-6.732-3.014-6.732-6.732
	c0-3.718,3.014-6.729,6.732-6.729c3.718,0,6.729,3.014,6.729,6.729C1453.619,485.404,1450.605,488.418,1446.887,488.418z
	 M1446.887,436.418c-3.719,0-6.732-3.014-6.732-6.732c0-3.718,3.014-6.729,6.732-6.729c3.718,0,6.729,3.014,6.729,6.729
	C1453.619,433.404,1450.605,436.418,1446.887,436.418z M1446.887,384.418c-3.719,0-6.732-3.014-6.732-6.732
	c0-3.718,3.014-6.732,6.732-6.732c3.718,0,6.729,3.014,6.729,6.732C1453.619,381.404,1450.605,384.418,1446.887,384.418z
	 M1446.887,332.418c-3.719,0-6.732-3.014-6.732-6.732c0-3.718,3.014-6.732,6.732-6.732c3.718,0,6.729,3.014,6.729,6.732
	C1453.619,329.404,1450.605,332.418,1446.887,332.418z M1503.458,644.418c-3.72,0-6.73-3.014-6.73-6.732
	c0-3.717,3.014-6.729,6.73-6.729c3.72,0,6.731,3.016,6.731,6.729C1510.189,641.404,1507.177,644.418,1503.458,644.418z
	 M1503.458,592.418c-3.72,0-6.73-3.014-6.73-6.732c0-3.717,3.014-6.729,6.73-6.729c3.72,0,6.731,3.016,6.731,6.729
	C1510.189,589.404,1507.177,592.418,1503.458,592.418z M1503.458,540.418c-3.72,0-6.73-3.014-6.73-6.732
	c0-3.717,3.014-6.729,6.73-6.729c3.72,0,6.731,3.016,6.731,6.729C1510.189,537.404,1507.177,540.418,1503.458,540.418z
	 M1503.458,488.418c-3.72,0-6.73-3.014-6.73-6.732c0-3.718,3.014-6.729,6.73-6.729c3.72,0,6.731,3.014,6.731,6.729
	C1510.189,485.404,1507.177,488.418,1503.458,488.418z M1503.458,436.418c-3.72,0-6.73-3.014-6.73-6.732
	c0-3.718,3.014-6.729,6.73-6.729c3.72,0,6.731,3.014,6.731,6.729C1510.189,433.404,1507.177,436.418,1503.458,436.418z
	 M1503.458,384.418c-3.72,0-6.73-3.014-6.73-6.732c0-3.718,3.014-6.732,6.73-6.732c3.72,0,6.731,3.014,6.731,6.732
	C1510.189,381.404,1507.177,384.418,1503.458,384.418z M1503.458,332.418c-3.72,0-6.73-3.014-6.73-6.732
	c0-3.718,3.014-6.732,6.73-6.732c3.72,0,6.731,3.014,6.731,6.732C1510.189,329.404,1507.177,332.418,1503.458,332.418z
	 M1503.458,280.418c-3.72,0-6.73-3.014-6.73-6.732c0-3.718,3.014-6.732,6.73-6.732c3.72,0,6.731,3.014,6.731,6.732
	C1510.189,277.404,1507.177,280.418,1503.458,280.418z M1560.027,644.418c-3.719,0-6.729-3.014-6.729-6.732
	c0-3.717,3.014-6.729,6.729-6.729s6.732,3.016,6.732,6.729C1566.76,641.404,1563.746,644.418,1560.027,644.418z M1560.027,592.418
	c-3.719,0-6.729-3.014-6.729-6.732c0-3.717,3.014-6.729,6.729-6.729s6.732,3.016,6.732,6.729
	C1566.76,589.404,1563.746,592.418,1560.027,592.418z M1560.027,540.418c-3.719,0-6.729-3.014-6.729-6.732
	c0-3.717,3.014-6.729,6.729-6.729s6.732,3.016,6.732,6.729C1566.76,537.404,1563.746,540.418,1560.027,540.418z M1560.027,488.418
	c-3.719,0-6.729-3.014-6.729-6.732c0-3.718,3.014-6.729,6.729-6.729s6.732,3.014,6.732,6.729
	C1566.76,485.404,1563.746,488.418,1560.027,488.418z M1560.027,436.418c-3.719,0-6.729-3.014-6.729-6.732
	c0-3.718,3.014-6.729,6.729-6.729s6.732,3.014,6.732,6.729C1566.76,433.404,1563.746,436.418,1560.027,436.418z M1560.027,384.418
	c-3.719,0-6.729-3.014-6.729-6.732c0-3.718,3.014-6.732,6.729-6.732s6.732,3.014,6.732,6.732
	C1566.76,381.404,1563.746,384.418,1560.027,384.418z M1560.027,332.418c-3.719,0-6.729-3.014-6.729-6.732
	c0-3.718,3.014-6.732,6.729-6.732s6.732,3.014,6.732,6.732C1566.76,329.404,1563.746,332.418,1560.027,332.418z M1560.027,280.418
	c-3.719,0-6.729-3.014-6.729-6.732c0-3.718,3.014-6.732,6.729-6.732s6.732,3.014,6.732,6.732
	C1566.76,277.404,1563.746,280.418,1560.027,280.418z M1616.598,644.418c-3.719,0-6.732-3.014-6.732-6.732
	c0-3.717,3.017-6.729,6.732-6.729s6.732,3.016,6.732,6.729C1623.33,641.404,1620.316,644.418,1616.598,644.418z M1616.598,592.418
	c-3.719,0-6.732-3.014-6.732-6.732c0-3.717,3.017-6.729,6.732-6.729s6.732,3.016,6.732,6.729
	C1623.33,589.404,1620.316,592.418,1616.598,592.418z M1616.598,540.418c-3.719,0-6.732-3.014-6.732-6.732
	c0-3.717,3.017-6.729,6.732-6.729s6.732,3.016,6.732,6.729C1623.33,537.404,1620.316,540.418,1616.598,540.418z M1616.598,488.418
	c-3.719,0-6.732-3.014-6.732-6.732c0-3.718,3.017-6.729,6.732-6.729s6.732,3.014,6.732,6.729
	C1623.331,485.404,1620.316,488.418,1616.598,488.418z M1616.598,436.418c-3.719,0-6.732-3.014-6.732-6.732
	c0-3.718,3.017-6.729,6.732-6.729s6.732,3.014,6.732,6.729C1623.331,433.404,1620.316,436.418,1616.598,436.418z M1616.598,384.418
	c-3.719,0-6.732-3.014-6.732-6.732c0-3.718,3.017-6.732,6.732-6.732s6.732,3.014,6.732,6.732
	C1623.331,381.404,1620.316,384.418,1616.598,384.418z M1616.598,332.418c-3.719,0-6.732-3.014-6.732-6.732
	c0-3.718,3.017-6.732,6.732-6.732s6.732,3.014,6.732,6.732C1623.331,329.404,1620.316,332.418,1616.598,332.418z M1616.598,280.418
	c-3.719,0-6.732-3.014-6.732-6.732c0-3.718,3.017-6.732,6.732-6.732s6.732,3.014,6.732,6.732
	C1623.331,277.404,1620.316,280.418,1616.598,280.418z M1616.598,228.418c-3.719,0-6.732-3.014-6.732-6.732
	c0-3.718,3.017-6.732,6.732-6.732s6.732,3.014,6.732,6.732C1623.331,225.404,1620.316,228.418,1616.598,228.418z M1673.169,644.418
	c-3.72,0-6.73-3.014-6.73-6.732c0-3.717,3.014-6.729,6.73-6.729c3.72,0,6.731,3.016,6.731,6.729
	C1679.9,641.404,1676.887,644.418,1673.169,644.418z M1673.169,592.418c-3.72,0-6.73-3.014-6.73-6.732
	c0-3.717,3.014-6.729,6.73-6.729c3.72,0,6.731,3.016,6.731,6.729C1679.9,589.404,1676.887,592.418,1673.169,592.418z
	 M1673.169,540.418c-3.72,0-6.73-3.014-6.73-6.732c0-3.717,3.014-6.729,6.73-6.729c3.72,0,6.731,3.016,6.731,6.729
	C1679.9,537.404,1676.887,540.418,1673.169,540.418z M1673.169,488.418c-3.72,0-6.73-3.014-6.73-6.732
	c0-3.718,3.014-6.729,6.73-6.729c3.72,0,6.731,3.014,6.731,6.729C1679.9,485.404,1676.887,488.418,1673.169,488.418z
	 M1673.169,436.418c-3.72,0-6.73-3.014-6.73-6.732c0-3.718,3.014-6.729,6.73-6.729c3.72,0,6.731,3.014,6.731,6.729
	C1679.9,433.404,1676.887,436.418,1673.169,436.418z M1673.169,384.418c-3.72,0-6.73-3.014-6.73-6.732
	c0-3.718,3.014-6.732,6.73-6.732c3.72,0,6.731,3.014,6.731,6.732C1679.9,381.404,1676.887,384.418,1673.169,384.418z
	 M1673.169,332.418c-3.72,0-6.73-3.014-6.73-6.732c0-3.718,3.014-6.732,6.73-6.732c3.72,0,6.731,3.014,6.731,6.732
	C1679.9,329.404,1676.887,332.418,1673.169,332.418z M1673.169,280.418c-3.72,0-6.73-3.014-6.73-6.732
	c0-3.718,3.014-6.732,6.73-6.732c3.72,0,6.731,3.014,6.731,6.732C1679.9,277.404,1676.887,280.418,1673.169,280.418z
	 M1673.169,228.418c-3.72,0-6.73-3.014-6.73-6.732c0-3.718,3.014-6.732,6.73-6.732c3.72,0,6.731,3.014,6.731,6.732
	C1679.9,225.404,1676.887,228.418,1673.169,228.418z M1729.738,696.418c-3.719,0-6.729-3.014-6.729-6.732
	c0-3.717,3.014-6.729,6.729-6.729s6.732,3.016,6.732,6.729C1736.471,693.404,1733.458,696.418,1729.738,696.418z M1729.738,644.418
	c-3.719,0-6.729-3.014-6.729-6.732c0-3.717,3.014-6.729,6.729-6.729s6.732,3.016,6.732,6.729
	C1736.471,641.404,1733.458,644.418,1729.738,644.418z M1729.738,592.418c-3.719,0-6.729-3.014-6.729-6.732
	c0-3.717,3.014-6.729,6.729-6.729s6.732,3.016,6.732,6.729C1736.471,589.404,1733.458,592.418,1729.738,592.418z M1729.738,540.418
	c-3.719,0-6.729-3.014-6.729-6.732c0-3.717,3.014-6.729,6.729-6.729s6.732,3.016,6.732,6.729
	C1736.471,537.404,1733.458,540.418,1729.738,540.418z M1729.738,488.418c-3.719,0-6.729-3.014-6.729-6.732
	c0-3.718,3.014-6.729,6.729-6.729s6.732,3.014,6.732,6.729C1736.47,485.404,1733.458,488.418,1729.738,488.418z M1729.738,436.418
	c-3.719,0-6.729-3.014-6.729-6.732c0-3.718,3.014-6.729,6.729-6.729s6.732,3.014,6.732,6.729
	C1736.47,433.404,1733.458,436.418,1729.738,436.418z M1729.738,384.418c-3.719,0-6.729-3.014-6.729-6.732
	c0-3.718,3.014-6.732,6.729-6.732s6.732,3.014,6.732,6.732C1736.47,381.404,1733.458,384.418,1729.738,384.418z M1729.738,332.418
	c-3.719,0-6.729-3.014-6.729-6.732c0-3.718,3.014-6.732,6.729-6.732s6.732,3.014,6.732,6.732
	C1736.47,329.404,1733.458,332.418,1729.738,332.418z M1729.738,280.418c-3.719,0-6.729-3.014-6.729-6.732
	c0-3.718,3.014-6.732,6.729-6.732s6.732,3.014,6.732,6.732C1736.47,277.404,1733.458,280.418,1729.738,280.418z M1729.738,228.418
	c-3.719,0-6.729-3.014-6.729-6.732c0-3.718,3.014-6.732,6.729-6.732s6.732,3.014,6.732,6.732
	C1736.47,225.404,1733.458,228.418,1729.738,228.418z M1729.738,176.418c-3.719,0-6.729-3.014-6.729-6.732
	c0-3.718,3.014-6.732,6.729-6.732s6.732,3.014,6.732,6.732C1736.47,173.404,1733.458,176.418,1729.738,176.418z M1786.309,696.418
	c-3.719,0-6.732-3.014-6.732-6.732c0-3.717,3.017-6.729,6.732-6.729s6.732,3.016,6.732,6.729
	C1793.042,693.404,1790.027,696.418,1786.309,696.418z M1786.309,644.418c-3.719,0-6.732-3.014-6.732-6.732
	c0-3.717,3.017-6.729,6.732-6.729s6.732,3.016,6.732,6.729C1793.042,641.404,1790.027,644.418,1786.309,644.418z M1786.309,592.418
	c-3.719,0-6.732-3.014-6.732-6.732c0-3.717,3.017-6.729,6.732-6.729s6.732,3.016,6.732,6.729
	C1793.042,589.404,1790.027,592.418,1786.309,592.418z M1786.309,540.418c-3.719,0-6.732-3.014-6.732-6.732
	c0-3.717,3.017-6.729,6.732-6.729s6.732,3.016,6.732,6.729C1793.042,537.404,1790.027,540.418,1786.309,540.418z M1786.309,488.418
	c-3.719,0-6.732-3.014-6.732-6.732c0-3.718,3.017-6.729,6.732-6.729s6.732,3.014,6.732,6.729
	C1793.042,485.404,1790.027,488.418,1786.309,488.418z M1786.309,436.418c-3.719,0-6.732-3.014-6.732-6.732
	c0-3.718,3.017-6.729,6.732-6.729s6.732,3.014,6.732,6.729C1793.042,433.404,1790.027,436.418,1786.309,436.418z M1786.309,384.418
	c-3.719,0-6.732-3.014-6.732-6.732c0-3.718,3.017-6.732,6.732-6.732s6.732,3.014,6.732,6.732
	C1793.042,381.404,1790.027,384.418,1786.309,384.418z M1786.309,332.418c-3.719,0-6.732-3.014-6.732-6.732
	c0-3.718,3.017-6.732,6.732-6.732s6.732,3.014,6.732,6.732C1793.042,329.404,1790.027,332.418,1786.309,332.418z M1786.309,280.418
	c-3.719,0-6.732-3.014-6.732-6.732c0-3.718,3.017-6.732,6.732-6.732s6.732,3.014,6.732,6.732
	C1793.042,277.404,1790.027,280.418,1786.309,280.418z M1786.309,228.418c-3.719,0-6.732-3.014-6.732-6.732
	c0-3.718,3.017-6.732,6.732-6.732s6.732,3.014,6.732,6.732C1793.042,225.404,1790.027,228.418,1786.309,228.418z M1786.309,176.418
	c-3.719,0-6.732-3.014-6.732-6.732c0-3.718,3.017-6.732,6.732-6.732s6.732,3.014,6.732,6.732
	C1793.042,173.404,1790.027,176.418,1786.309,176.418z M1956.02,422.953c3.719,0,6.732,3.014,6.732,6.729
	c0,3.721-3.017,6.732-6.732,6.732s-6.732-3.014-6.732-6.732C1949.288,425.967,1952.302,422.953,1956.02,422.953z M1956.02,474.953
	c3.719,0,6.732,3.014,6.732,6.729c0,3.721-3.017,6.732-6.732,6.732s-6.732-3.014-6.732-6.732
	C1949.288,477.967,1952.302,474.953,1956.02,474.953z M1899.449,370.953c3.72,0,6.732,3.014,6.732,6.732
	c0,3.718-3.015,6.732-6.732,6.732c-3.717,0-6.729-3.014-6.729-6.732C1892.719,373.967,1895.73,370.953,1899.449,370.953z
	 M1899.449,422.953c3.72,0,6.732,3.014,6.732,6.729c0,3.721-3.015,6.732-6.732,6.732c-3.717,0-6.729-3.014-6.729-6.732
	C1892.719,425.967,1895.73,422.953,1899.449,422.953z M1842.882,266.953c3.719,0,6.729,3.014,6.729,6.732
	c0,3.718-3.014,6.732-6.729,6.732c-3.721,0-6.732-3.014-6.732-6.732C1836.147,269.967,1839.16,266.953,1842.882,266.953z
	 M1842.882,318.953c3.719,0,6.729,3.014,6.729,6.732c0,3.718-3.014,6.732-6.729,6.732c-3.721,0-6.732-3.014-6.732-6.732
	C1836.147,321.967,1839.16,318.953,1842.882,318.953z M1842.882,370.953c3.719,0,6.729,3.014,6.729,6.732
	c0,3.718-3.014,6.732-6.729,6.732c-3.721,0-6.732-3.014-6.732-6.732C1836.147,373.967,1839.16,370.953,1842.882,370.953z
	 M1842.882,422.953c3.719,0,6.729,3.014,6.729,6.729c0,3.721-3.014,6.732-6.729,6.732c-3.721,0-6.732-3.014-6.732-6.732
	C1836.147,425.967,1839.16,422.953,1842.882,422.953z M1842.882,474.953c3.719,0,6.729,3.014,6.729,6.729
	c0,3.721-3.014,6.732-6.729,6.732c-3.721,0-6.732-3.014-6.732-6.732C1836.147,477.967,1839.16,474.953,1842.882,474.953z
	 M1842.882,696.418c-3.722,0-6.732-3.014-6.732-6.732c0-3.717,3.014-6.729,6.732-6.729c3.718,0,6.729,3.016,6.729,6.729
	C1849.611,693.404,1846.598,696.418,1842.882,696.418z M1899.449,748.418c-3.719,0-6.729-3.014-6.729-6.732
	c0-3.717,3.014-6.729,6.729-6.729s6.732,3.016,6.732,6.729C1906.182,745.404,1903.169,748.418,1899.449,748.418z M1956.02,748.418
	c-3.719,0-6.732-3.014-6.732-6.732c0-3.717,3.017-6.729,6.732-6.729s6.732,3.016,6.732,6.729
	C1962.755,745.404,1959.738,748.418,1956.02,748.418z M1942.762,675.253c-48.07,20.607-103.525-1.098-123.832-48.467
	c-20.303-47.365,2.203-102.494,50.271-123.104c48.072-20.604,103.521,1.097,123.832,48.468
	C2013.341,599.518,1990.824,654.644,1942.762,675.253z M2012.593,748.418c-3.721,0-6.732-3.014-6.732-6.732
	c0-3.717,3.014-6.729,6.732-6.729c3.718,0,6.729,3.016,6.729,6.729C2019.322,745.404,2016.309,748.418,2012.593,748.418z
	 M2012.593,696.418c-3.721,0-6.732-3.014-6.732-6.732c0-3.717,3.014-6.729,6.732-6.729c3.718,0,6.729,3.016,6.729,6.729
	C2019.322,693.404,2016.309,696.418,2012.593,696.418z M2012.593,644.418c-3.721,0-6.732-3.014-6.732-6.732
	c0-3.717,3.014-6.729,6.732-6.729c3.718,0,6.729,3.016,6.729,6.729C2019.322,641.404,2016.309,644.418,2012.593,644.418z
	 M2012.593,540.418c-3.721,0-6.732-3.014-6.732-6.732c0-3.717,3.014-6.729,6.732-6.729c3.718,0,6.729,3.016,6.729,6.729
	C2019.322,537.404,2016.309,540.418,2012.593,540.418z M2012.593,488.418c-3.721,0-6.732-3.014-6.732-6.732
	c0-3.718,3.014-6.729,6.732-6.729c3.718,0,6.729,3.014,6.729,6.729C2019.322,485.404,2016.309,488.418,2012.593,488.418z
	 M2012.593,436.418c-3.721,0-6.732-3.014-6.732-6.732c0-3.718,3.014-6.729,6.732-6.729c3.718,0,6.729,3.014,6.729,6.729
	C2019.322,433.404,2016.309,436.418,2012.593,436.418z M2069.16,800.418c-3.719,0-6.729-3.014-6.729-6.732
	c0-3.717,3.014-6.729,6.729-6.729c3.718,0,6.732,3.016,6.732,6.729C2075.893,797.404,2072.88,800.418,2069.16,800.418z
	 M2069.16,748.418c-3.719,0-6.729-3.014-6.729-6.732c0-3.717,3.014-6.729,6.729-6.729c3.718,0,6.732,3.016,6.732,6.729
	C2075.893,745.404,2072.88,748.418,2069.16,748.418z M2069.16,696.418c-3.719,0-6.729-3.014-6.729-6.732
	c0-3.717,3.014-6.729,6.729-6.729c3.718,0,6.732,3.016,6.732,6.729C2075.893,693.404,2072.88,696.418,2069.16,696.418z
	 M2069.16,644.418c-3.719,0-6.729-3.014-6.729-6.732c0-3.717,3.014-6.729,6.729-6.729c3.718,0,6.732,3.016,6.732,6.729
	C2075.893,641.404,2072.88,644.418,2069.16,644.418z M2069.16,592.418c-3.719,0-6.729-3.014-6.729-6.732
	c0-3.717,3.014-6.729,6.729-6.729c3.718,0,6.732,3.016,6.732,6.729C2075.893,589.404,2072.88,592.418,2069.16,592.418z
	 M2069.16,540.418c-3.719,0-6.729-3.014-6.729-6.732c0-3.717,3.014-6.729,6.729-6.729c3.718,0,6.732,3.016,6.732,6.729
	C2075.893,537.404,2072.88,540.418,2069.16,540.418z M2069.16,488.418c-3.719,0-6.729-3.014-6.729-6.732
	c0-3.718,3.014-6.729,6.729-6.729c3.718,0,6.732,3.014,6.732,6.729C2075.892,485.404,2072.88,488.418,2069.16,488.418z
	 M2125.73,800.418c-3.719,0-6.731-3.014-6.731-6.732c0-3.717,3.016-6.729,6.731-6.729s6.731,3.016,6.731,6.729
	C2132.466,797.404,2129.449,800.418,2125.73,800.418z M2125.73,748.418c-3.719,0-6.731-3.014-6.731-6.732
	c0-3.717,3.016-6.729,6.731-6.729s6.731,3.016,6.731,6.729C2132.466,745.404,2129.449,748.418,2125.73,748.418z M2125.73,696.418
	c-3.719,0-6.731-3.014-6.731-6.732c0-3.717,3.016-6.729,6.731-6.729s6.731,3.016,6.731,6.729
	C2132.466,693.404,2129.449,696.418,2125.73,696.418z M2125.73,644.418c-3.719,0-6.731-3.014-6.731-6.732
	c0-3.717,3.016-6.729,6.731-6.729s6.731,3.016,6.731,6.729C2132.466,641.404,2129.449,644.418,2125.73,644.418z M2125.73,592.418
	c-3.719,0-6.731-3.014-6.731-6.732c0-3.717,3.016-6.729,6.731-6.729s6.731,3.016,6.731,6.729
	C2132.466,589.404,2129.449,592.418,2125.73,592.418z M2125.73,540.418c-3.719,0-6.731-3.014-6.731-6.732
	c0-3.717,3.016-6.729,6.731-6.729s6.731,3.016,6.731,6.729C2132.466,537.404,2129.449,540.418,2125.73,540.418z M2182.302,800.418
	c-3.72,0-6.732-3.014-6.732-6.732c0-3.717,3.015-6.729,6.732-6.729c3.717,0,6.729,3.016,6.729,6.729
	C2189.033,797.404,2186.02,800.418,2182.302,800.418z M2182.302,748.418c-3.72,0-6.732-3.014-6.732-6.732
	c0-3.717,3.015-6.729,6.732-6.729c3.717,0,6.729,3.016,6.729,6.729C2189.033,745.404,2186.02,748.418,2182.302,748.418z
	 M2182.302,696.418c-3.72,0-6.732-3.014-6.732-6.732c0-3.717,3.015-6.729,6.732-6.729c3.717,0,6.729,3.016,6.729,6.729
	C2189.033,693.404,2186.02,696.418,2182.302,696.418z M2182.302,644.418c-3.72,0-6.732-3.014-6.732-6.732
	c0-3.717,3.015-6.729,6.732-6.729c3.717,0,6.729,3.016,6.729,6.729C2189.033,641.404,2186.02,644.418,2182.302,644.418z
	 M2182.302,592.418c-3.72,0-6.732-3.014-6.732-6.732c0-3.717,3.015-6.729,6.732-6.729c3.717,0,6.729,3.016,6.729,6.729
	C2189.033,589.404,2186.02,592.418,2182.302,592.418z M2238.872,748.418c-3.72,0-6.73-3.014-6.73-6.732
	c0-3.717,3.014-6.729,6.73-6.729c3.72,0,6.731,3.016,6.731,6.729C2245.604,745.404,2242.593,748.418,2238.872,748.418z
	 M2238.872,696.418c-3.72,0-6.73-3.014-6.73-6.732c0-3.717,3.014-6.729,6.73-6.729c3.72,0,6.731,3.016,6.731,6.729
	C2245.604,693.404,2242.593,696.418,2238.872,696.418z M2238.872,644.418c-3.72,0-6.73-3.014-6.73-6.732
	c0-3.717,3.014-6.729,6.73-6.729c3.72,0,6.731,3.016,6.731,6.729C2245.604,641.404,2242.593,644.418,2238.872,644.418z
	 M2238.872,592.418c-3.72,0-6.73-3.014-6.73-6.732c0-3.717,3.014-6.729,6.73-6.729c3.72,0,6.731,3.016,6.731,6.729
	C2245.604,589.404,2242.593,592.418,2238.872,592.418z M2295.441,748.418c-3.719,0-6.731-3.014-6.731-6.732
	c0-3.717,3.016-6.729,6.731-6.729s6.731,3.016,6.731,6.729C2302.177,745.404,2299.16,748.418,2295.441,748.418z M2295.441,696.418
	c-3.719,0-6.731-3.014-6.731-6.732c0-3.717,3.016-6.729,6.731-6.729s6.731,3.016,6.731,6.729
	C2302.177,693.404,2299.16,696.418,2295.441,696.418z M2295.441,644.418c-3.719,0-6.731-3.014-6.731-6.732
	c0-3.717,3.016-6.729,6.731-6.729s6.731,3.016,6.731,6.729C2302.177,641.404,2299.16,644.418,2295.441,644.418z M2352.012,748.418
	c-3.719,0-6.732-3.014-6.732-6.732c0-3.717,3.014-6.729,6.732-6.729c3.718,0,6.729,3.016,6.729,6.729
	C2358.744,745.404,2355.73,748.418,2352.012,748.418z M2352.012,696.418c-3.719,0-6.732-3.014-6.732-6.732
	c0-3.717,3.014-6.729,6.732-6.729c3.718,0,6.729,3.016,6.729,6.729C2358.744,693.404,2355.73,696.418,2352.012,696.418z
	 M2408.583,748.418c-3.72,0-6.73-3.014-6.73-6.732c0-3.717,3.014-6.729,6.73-6.729c3.72,0,6.731,3.016,6.731,6.729
	C2415.314,745.404,2412.302,748.418,2408.583,748.418z"/>
</svg>
