<?xml version="1.0" encoding="utf-8"?>
<!-- Generator: Adobe Illustrator 16.0.0, SVG Export Plug-In . SVG Version: 6.00 Build 0)  -->
<!DOCTYPE svg PUBLIC "-//W3C//DTD SVG 1.1//EN" "http://www.w3.org/Graphics/SVG/1.1/DTD/svg11.dtd">
<svg version="1.1" id="Layer_1" xmlns="http://www.w3.org/2000/svg" xmlns:xlink="http://www.w3.org/1999/xlink" x="0px" y="0px"
	 width="1333.895px" height="668.574px" viewBox="0 0 1333.895 668.574" enable-background="new 0 0 1333.895 668.574"
	 xml:space="preserve">
<path fill="none" stroke="#000000" stroke-linejoin="round" stroke-miterlimit="10" d="M62.061,35.536
	c0.199-1.423,0.301-2.877,0.301-4.355C62.362,13.96,48.402,0,31.181,0C13.96,0,0,13.96,0,31.181
	c0,17.221,13.96,31.181,31.181,31.181c7.518,0,14.415-2.661,19.8-7.092c1.674-1.292,4.607-1.79,4.984,0.973
	c-0.871,5.16-0.84,11.098,0.346,17.929c10.177,58.61,103.824,433.042,103.824,433.042s-5.824,40.264,96.966,52.933
	C359.89,572.817,1176.11,665.12,1176.11,665.12s128.72,21.415,157.782-42.363l-45.35-495.718c0,0-2.461-42.806-84.336-48.9
	c-81.876-6.095-1083.2-55.468-1083.2-55.468s-35.617-3.383-54.381,13.75C65.098,37.317,62.579,37.856,62.061,35.536z"/>
</svg>
