<?xml version="1.0" encoding="utf-8"?>
<!-- Generator: Adobe Illustrator 16.0.0, SVG Export Plug-In . SVG Version: 6.00 Build 0)  -->
<!DOCTYPE svg PUBLIC "-//W3C//DTD SVG 1.1//EN" "http://www.w3.org/Graphics/SVG/1.1/DTD/svg11.dtd">
<svg version="1.1" id="Layer_1" xmlns="http://www.w3.org/2000/svg" xmlns:xlink="http://www.w3.org/1999/xlink" x="0px" y="0px"
	 width="658.019px" height="904.586px" viewBox="0 0 658.019 904.586" enable-background="new 0 0 658.019 904.586"
	 xml:space="preserve">
<path fill="none" stroke="#000000" stroke-linejoin="round" stroke-miterlimit="10" d="M109.615,45.02
	c-5.263-0.278-10.527-0.534-15.794-0.764L76.47,44.335l-17.691,1.109l3.323,9.587c0,0,4.483,11.211,4.768,11.925
	c2.318,5.799,4.773,11.538,7.296,17.248"/>
<path fill="none" stroke="#000000" stroke-linejoin="round" stroke-miterlimit="10" d="M592.375,297.405
	c-23.949,7.178-47.902,14.345-71.844,21.546c-120.971,29.758-238.91,33.794-359.695,0.07c-26.674-7.446-53.019-16.431-79.279-25.221
	l-10.051-3.365c0,0-1.077-0.499-2.955-1.249"/>
<path fill="none" stroke="#000001" stroke-linejoin="round" stroke-miterlimit="10" d="M551.392,198.936
	c-4.812,16.283-12.243,31.634-24.166,44.164c-30.395,31.941-76.363,47.154-119.135,51.337c-17.979,1.759-35.973,3.272-54.051,3.389
	c-53.504,0.347-107.748-5.56-158.231-24.051c-21.582-7.905-42.707-19.666-58.724-36.349c-9.958-10.372-16.263-22.659-20.972-35.762"
	/>
</svg>
