<?xml version="1.0" encoding="utf-8"?>
<!-- Generator: Adobe Illustrator 16.0.0, SVG Export Plug-In . SVG Version: 6.00 Build 0)  -->
<!DOCTYPE svg PUBLIC "-//W3C//DTD SVG 1.1//EN" "http://www.w3.org/Graphics/SVG/1.1/DTD/svg11.dtd">
<svg version="1.1" id="Layer_1" xmlns="http://www.w3.org/2000/svg" xmlns:xlink="http://www.w3.org/1999/xlink" x="0px" y="0px"
	 width="1735.189px" height="708.852px" viewBox="0 0 1735.189 708.852" enable-background="new 0 0 1735.189 708.852"
	 xml:space="preserve">
<path fill="none" stroke="#000000" stroke-linejoin="round" stroke-miterlimit="10" d="M1670.373,416.409
	c-9.588-10.615-22.03-15.636-22.03-15.636l-29.032-13.904l-235.737-113.747l-107.627-49.036l-173.021-77.751l-91.815-40.337
	L877.297,48.941L757.292,0c0,0-44.642,23.7-66.057,34.285c-21.427,10.585-25.064,19.994-25.064,19.994l-16.758,27.347
	l-15.827,23.541L616.5,122.402l-30.924,26.209l-62.777,45.18l-82.373,53.773l-93.061,58.664l-95.29,60.594l-83.623,53.896
	l-91.341,59.936c0,0-38.872,25.922-61.487,41.129C-6.981,536.986,1.597,541.33,1.597,541.33l46.909,26.706v46.914l61.837,19.76
	l89.202,27.356l88.422,21.614c0,0,89.693,17.248,132.104,23.556c42.422,6.301,47.061-7.842,47.061-7.842l31.673-18.058
	l28.043-14.459l56.489-23.061l30.533-11.824l97.33-34.695l80.883-27.134l85.463-25.562l40.701-9.044l39.612-7.922l58.228-2.562
	l64.756,3.646l55.489,5.055l50.438,8.109l87.725,19.406l31.013,8.374l59.448,15.651l76.764,21.588l45.312,14.765
	c0,0,40.238,15.179,64.812,25.372c24.586,10.193,38.482-8.883,38.482-8.883l25.295-48.765c0,0,38.891-81.052,60.247-124.977
	c5.211-10.718,6.24-19.994,4.818-27.895c-0.003-1.9,1.376-2.994,3.183-2.368l-0.003-0.002c5.434,4.604,12.464,7.379,20.144,7.379
	c17.222,0,31.183-13.96,31.183-31.182s-13.961-31.182-31.183-31.182c-17.221,0-31.181,13.96-31.181,31.182
	c0,1.377,0.089,2.733,0.263,4.064c-0.309,1.292-1.169,2.713-2.721,1.99L1670.373,416.409z"/>
</svg>
