<?xml version="1.0" encoding="utf-8"?>
<!-- Generator: Adobe Illustrator 16.0.0, SVG Export Plug-In . SVG Version: 6.00 Build 0)  -->
<!DOCTYPE svg PUBLIC "-//W3C//DTD SVG 1.1//EN" "http://www.w3.org/Graphics/SVG/1.1/DTD/svg11.dtd">
<svg version="1.1" id="Layer_1" xmlns="http://www.w3.org/2000/svg" xmlns:xlink="http://www.w3.org/1999/xlink" x="0px" y="0px"
	 width="893.324px" height="477.114px" viewBox="0 0 893.324 477.114" enable-background="new 0 0 893.324 477.114"
	 xml:space="preserve">
<path d="M885.779,153.918L774.18,222.151l-70.756,39.518l-120.033,73.004l-68.396,45.951l-68.215,47.539l-67.666,47.82
	c0,0-18.646,6.588-31.86-12.037c-13.229-18.627-24.758-36.953-24.758-36.953l-38.212-57.787l-49.72-72.983l-29.444-42.154
	l-23.625-32.893l-25.997-34.99l-31.106-37.197l-31.958-32.671l-43.93-36.828l-29.926-26.01L5.82,41.252
	c0,0-23.256-49.856,23.209-39.95c108.361,23.11,213.927,78.675,326.714,74.773c29.645-1.025,59.862-8.806,85.988-23.165
	c21.939-12.061,34.562-30.419,62.057-26.054c27.104,4.305,95.33,21.614,95.33,21.614l106.816,24.54l66.089,13.944l79.805,15.841
	C851.828,102.795,914.533,114.924,885.779,153.918z"/>
</svg>
