<?xml version="1.0" encoding="utf-8"?>
<!-- Generator: Adobe Illustrator 16.0.0, SVG Export Plug-In . SVG Version: 6.00 Build 0)  -->
<!DOCTYPE svg PUBLIC "-//W3C//DTD SVG 1.1//EN" "http://www.w3.org/Graphics/SVG/1.1/DTD/svg11.dtd">
<svg version="1.1" id="Layer_1" xmlns="http://www.w3.org/2000/svg" xmlns:xlink="http://www.w3.org/1999/xlink" x="0px" y="0px"
	 width="225.898px" height="470.293px" viewBox="0 0 225.898 470.293" enable-background="new 0 0 225.898 470.293"
	 xml:space="preserve">
<path d="M225.578,144.684c0.137-43.279,0.677-90.847-0.056-128.322c-0.145-7.192-3.139-22.273-14.778-13.898
	c-2.271,1.636-4.771,2.957-6.926,4.747c-16.685,13.881-35.033,28.37-52.627,43.999c-23.002,20.434-45.042,41.918-66.243,64.212
	c-12.21,12.839-23.965,26.104-35.245,39.766c-2.322,2.812-4.288,5.902-5.808,9.219l-5.103,11.128c-0.6,1.31-1.683,3.746-1.799,3.928
	c-0.55,0.856-1.2,2.618-1.851,5.25c-3.172,12.81-7.428,30.005-8.737,38.604c-2.521,16.549-4.396,33.186-6.196,49.828L5.586,381.831
	c-3.212,23.226-4.517,49.191-5.409,70.062c-0.203,4.824-0.436,10.193,0.592,14.447c0.302,1.246,0.763,2.486,1.349,3.627
	c0.56,0.336,1.012,0.383,1.459,0.273l3.061-0.979c16.742-5.33,32.823-11.028,49.77-17.354c1.446-0.539,48.923-30.326,50.922-33.533
	c39.648-63.604,71.509-131.735,110.936-195.478C227.721,207.598,225.494,170.978,225.578,144.684z"/>
</svg>
