<?xml version="1.0" encoding="utf-8"?>
<!-- Generator: Adobe Illustrator 16.0.0, SVG Export Plug-In . SVG Version: 6.00 Build 0)  -->
<!DOCTYPE svg PUBLIC "-//W3C//DTD SVG 1.1//EN" "http://www.w3.org/Graphics/SVG/1.1/DTD/svg11.dtd">
<svg version="1.1" id="Layer_1" xmlns="http://www.w3.org/2000/svg" xmlns:xlink="http://www.w3.org/1999/xlink" x="0px" y="0px"
	 width="3200.244px" height="1240.686px" viewBox="0 0 3200.244 1240.686" enable-background="new 0 0 3200.244 1240.686"
	 xml:space="preserve">
<path d="M3171.224,764.872c-46.461,9.906-45.471,9.604-45.471,9.604l-34.814,11.027l-49.368,14.771l-41.199,12.034l-45.803,11.64
	l-36.103,7.157l-39.682,5.148l-34.146,1.658l-24.096-0.609l-22.615-3.619l-22.846-7.639l-25.188-13.697l-15.734-12.073
	c0,0-10.6-14.148-37.701-9.851c-27.104,4.312-95.33,21.615-95.33,21.615l-106.828,24.545l-66.086,13.936l-79.793,15.851
	c0,0-62.707,12.127-33.963,51.119l111.596,68.233l70.758,39.515l120.033,73.014l68.396,45.941l68.217,47.538l67.666,47.818
	c0,0,18.646,6.603,31.873-12.037c13.217-18.625,24.744-36.938,24.744-36.938l38.223-57.799l49.719-72.978l29.437-42.162
	l23.625-32.893l25.996-34.992l31.112-37.193l31.951-32.672l43.935-36.832l29.924-26.006l12.758-12.227
	C3194.419,804.823,3217.683,754.974,3171.224,764.872z M2451.394,822.729l88.42-21.612l89.201-27.355l61.838-19.766v-46.91
	l46.92-26.705c0,0,8.577-4.348-14.037-19.555c-22.604-15.197-61.479-41.121-61.479-41.121l-91.34-59.928l-83.635-53.898
	l-95.279-60.598l-93.07-58.658l-82.373-53.778l-62.775-45.181l-30.926-26.204l-17.086-17.237l-15.824-23.542l-16.748-27.347
	c0,0-3.647-9.409-25.073-19.995c-21.414-10.586-66.06-34.286-66.06-34.286l-120.004,48.941l-133.812,57.059l-91.82,40.331
	l-173.014,77.754l-107.618,49.04l-235.75,113.746l-29.035,13.908c0,0-48.879,19.715-27.524,63.636
	c21.356,43.933,60.248,124.984,60.248,124.984l25.307,48.76c0,0,13.888,19.076,38.472,8.879
	c24.585-10.188,64.817-25.375,64.817-25.375l45.311-14.758l76.774-21.594l59.437-15.648l31.018-8.377l87.722-19.404l50.438-8.106
	l55.487-5.051l64.758-3.648l58.236,2.562l39.611,7.92l40.688,9.047l85.462,25.555l80.896,27.146l97.33,34.69l30.521,11.828
	l56.487,23.055l28.043,14.47l31.675,18.057c0,0,4.649,14.137,47.062,7.838C2361.699,839.976,2451.394,822.729,2451.394,822.729z
	 M2116.425,664.362c-53.48,0-96.861-40.146-96.861-89.644c0-49.499,43.381-89.641,96.861-89.641
	c53.486,0,96.867,40.142,96.867,89.641C2213.292,624.22,2169.911,664.362,2116.425,664.362z M1138.247,484.57l45.881-20.625
	l213.646-95.99l141.36-63.657l210.376-92.636l176.69-77.87l36.871-17.339c0,0,57.838-52.023,0.562-71.854
	c-57.271-19.833-119.519-38.968-119.519-38.968s-20.481-11.489-87.391-1.643c-66.906,9.848-197.188,36.809-197.188,36.809
	l-133.15,30.524L1120.24,150.45l-202.718,57.992l-85.382,25.51l-119.106,37.292c0,0-31.803,7.449-18.536,47.021
	c13.26,39.581,21.326,56.498,21.326,56.498s8.229,15.677,32.633,18.346c24.405,2.67,63.327,6.309,63.327,6.309l24.615,3.809
	l31.873,8.178l20.496,7.749l22.885,11.078l27.414,17.549l15.237,12.416l23.095,24.232l12.238,15.197l19.336,23.024
	c0,0,8.468,15.234,33.003,5.35c24.534-9.885,51.619-22.896,51.619-22.896L1138.247,484.57z M665.743,306.446
	c0,0-9.115-17.536-32.893-9.298c-23.785,8.238-101.109,36.562-101.109,36.562l-79.771,29.744l-130.403,49.12l-58.968,24.563
	l-85.094,34.354l-72.113,31.149l-81.943,39.523c0,0-70.025,61.938,31.942,45.451l133.632-46.521l128.003-40.461l97.069-28.824
	l107.428-29.894l98.45-20.046l57.907-13.287c0,0,22.823-2.79,12.038-35.973C679.133,339.419,665.743,306.446,665.743,306.446z"/>
</svg>
