<?xml version="1.0" encoding="utf-8"?>
<!-- Generator: Adobe Illustrator 16.0.0, SVG Export Plug-In . SVG Version: 6.00 Build 0)  -->
<!DOCTYPE svg PUBLIC "-//W3C//DTD SVG 1.1//EN" "http://www.w3.org/Graphics/SVG/1.1/DTD/svg11.dtd">
<svg version="1.1" id="Layer_1" xmlns="http://www.w3.org/2000/svg" xmlns:xlink="http://www.w3.org/1999/xlink" x="0px" y="0px"
	 width="3200.248px" height="1240.688px" viewBox="0 0 3200.248 1240.688" enable-background="new 0 0 3200.248 1240.688"
	 xml:space="preserve">
<path d="M885.779,917.493l-111.597,68.229l-70.755,39.521l-120.035,73.004l-68.396,45.951l-68.216,47.539l-67.666,47.817
	c0,0-18.646,6.59-31.863-12.035c-13.227-18.627-24.755-36.952-24.755-36.952l-38.212-57.787l-49.72-72.984l-29.441-42.154
	l-23.625-32.893l-25.997-34.99l-31.109-37.196l-31.958-32.671l-43.927-36.829l-29.928-26.009L5.82,804.827
	c0,0-23.256-49.857,23.204-39.951c46.46,9.908,45.463,9.605,45.463,9.605l34.817,11.024l49.365,14.771l41.203,12.03l45.8,11.638
	l36.103,7.164l39.683,5.149l34.145,1.654l24.095-0.611l22.615-3.616l22.845-7.636l25.188-13.701l15.747-12.069
	c0,0,10.588-14.154,37.7-9.853c27.104,4.308,95.329,21.615,95.329,21.615l106.818,24.539l66.086,13.943l79.804,15.842
	C851.825,866.37,914.531,878.499,885.779,917.493z M2016.115,463.947l-213.637-95.994l-141.369-63.655l-210.368-92.636
	l-176.69-77.87l-36.884-17.34c0,0-57.839-52.023-0.561-71.854c57.268-19.832,119.515-38.966,119.515-38.966
	s20.485-11.49,87.395-1.644c66.903,9.849,197.188,36.81,197.188,36.81l133.152,30.523l306.155,79.128l202.707,57.993l85.384,25.513
	l119.114,37.284c0,0,31.793,7.449,18.537,47.028c-13.27,39.579-21.336,56.496-21.336,56.496s-8.221,15.678-32.635,18.346
	c-24.404,2.668-63.326,6.305-63.326,6.305l-24.614,3.81l-31.863,8.176l-20.506,7.75l-22.886,11.083l-27.414,17.542l-15.235,12.419
	l-23.086,24.236l-12.248,15.191l-19.336,23.025c0,0-8.468,15.234-33.002,5.349c-24.535-9.886-51.619-22.893-51.619-22.893
	l-44.649-20.535L2016.115,463.947z M3144.849,587.616l-133.631-46.521l-127.994-40.46l-97.08-28.825l-107.428-29.889l-98.449-20.051
	l-57.908-13.286c0,0-22.812-2.783-12.024-35.975c10.774-33.191,24.166-66.162,24.166-66.162s9.117-17.534,32.902-9.295
	c23.772,8.239,101.106,36.56,101.106,36.56l79.762,29.743l130.404,49.121l58.979,24.571l85.082,34.345l72.111,31.149l81.953,39.524
	C3176.802,542.167,3246.824,604.101,3144.849,587.616z M2109.224,539.823l-29.033-13.904l-235.737-113.747l-107.627-49.036
	l-173.017-77.751l-91.819-40.337l-133.812-57.057l-120.004-48.941c0,0-44.643,23.7-66.059,34.287
	c-21.426,10.585-25.062,19.994-25.062,19.994l-16.757,27.347l-15.827,23.541l-17.086,17.235l-30.924,26.209l-62.777,45.18
	l-82.373,53.773l-93.061,58.664l-95.29,60.595l-83.623,53.896l-91.341,59.933c0,0-38.872,25.922-61.487,41.129
	c-22.605,15.205-14.027,19.549-14.027,19.549l46.91,26.705V754l61.837,19.76l89.202,27.357l88.422,21.617
	c0,0,89.691,17.248,132.104,23.551c42.421,6.301,47.061-7.838,47.061-7.838l31.673-18.06l28.043-14.459l56.489-23.061l30.533-11.828
	l97.33-34.695l80.883-27.137l85.462-25.561l40.701-9.044l39.613-7.923l58.227-2.562l64.756,3.647l55.49,5.054l50.439,8.108
	l87.721,19.406l31.014,8.375l59.447,15.65l76.764,21.588l45.312,14.766c0,0,40.24,15.181,64.812,25.371
	c24.588,10.193,38.482-8.883,38.482-8.883l25.295-48.76c0,0,38.895-81.052,60.248-124.979
	C2158.105,559.542,2109.224,539.823,2109.224,539.823z M571.787,755.177c-3.718,0-6.729-3.016-6.729-6.729
	c0-3.722,3.014-6.732,6.729-6.732c3.722,0,6.732,3.014,6.732,6.732C578.521,752.161,575.508,755.177,571.787,755.177z
	 M571.787,703.177c-3.718,0-6.729-3.016-6.729-6.729c0-3.722,3.014-6.732,6.729-6.732c3.722,0,6.732,3.014,6.732,6.732
	C578.521,700.161,575.508,703.177,571.787,703.177z M571.787,651.177c-3.718,0-6.729-3.016-6.729-6.729
	c0-3.722,3.014-6.732,6.729-6.732c3.722,0,6.732,3.014,6.732,6.732C578.521,648.161,575.508,651.177,571.787,651.177z
	 M628.359,755.177c-3.718,0-6.729-3.016-6.729-6.729c0-3.722,3.014-6.732,6.729-6.732c3.719,0,6.732,3.014,6.732,6.732
	C635.092,752.161,632.076,755.177,628.359,755.177z M628.359,703.177c-3.718,0-6.729-3.016-6.729-6.729
	c0-3.722,3.014-6.732,6.729-6.732c3.719,0,6.732,3.014,6.732,6.732C635.092,700.161,632.076,703.177,628.359,703.177z
	 M628.359,651.177c-3.718,0-6.729-3.016-6.729-6.729c0-3.722,3.014-6.732,6.729-6.732c3.719,0,6.732,3.014,6.732,6.732
	C635.092,648.161,632.076,651.177,628.359,651.177z M628.359,599.175c-3.718,0-6.729-3.015-6.729-6.729
	c0-3.72,3.014-6.732,6.729-6.732c3.719,0,6.732,3.016,6.732,6.732C635.092,596.161,632.076,599.175,628.359,599.175z
	 M684.929,755.177c-3.718,0-6.731-3.016-6.731-6.729c0-3.722,3.017-6.732,6.731-6.732c3.719,0,6.73,3.014,6.73,6.732
	C691.66,752.161,688.648,755.177,684.929,755.177z M684.929,703.177c-3.718,0-6.731-3.016-6.731-6.729
	c0-3.722,3.017-6.732,6.731-6.732c3.719,0,6.73,3.014,6.73,6.732C691.66,700.161,688.648,703.177,684.929,703.177z M684.929,651.177
	c-3.718,0-6.731-3.016-6.731-6.729c0-3.722,3.017-6.732,6.731-6.732c3.719,0,6.73,3.014,6.73,6.732
	C691.66,648.161,688.648,651.177,684.929,651.177z M684.929,599.175c-3.718,0-6.731-3.015-6.731-6.729
	c0-3.72,3.017-6.732,6.731-6.732c3.719,0,6.73,3.016,6.73,6.732C691.66,596.161,688.648,599.175,684.929,599.175z M741.5,807.177
	c-3.721,0-6.731-3.016-6.731-6.729c0-3.722,3.014-6.732,6.731-6.732c3.719,0,6.73,3.014,6.73,6.732
	C748.232,804.161,745.219,807.177,741.5,807.177z M741.5,755.177c-3.721,0-6.731-3.016-6.731-6.729c0-3.722,3.014-6.732,6.731-6.732
	c3.719,0,6.73,3.014,6.73,6.732C748.232,752.161,745.219,755.177,741.5,755.177z M741.5,703.177c-3.721,0-6.731-3.016-6.731-6.729
	c0-3.722,3.014-6.732,6.731-6.732c3.719,0,6.73,3.014,6.73,6.732C748.232,700.161,745.219,703.177,741.5,703.177z M741.5,651.177
	c-3.721,0-6.731-3.016-6.731-6.729c0-3.722,3.014-6.732,6.731-6.732c3.719,0,6.73,3.014,6.73,6.732
	C748.232,648.161,745.219,651.177,741.5,651.177z M741.5,599.175c-3.721,0-6.731-3.015-6.731-6.729c0-3.72,3.014-6.732,6.731-6.732
	c3.719,0,6.73,3.016,6.73,6.732C748.232,596.161,745.219,599.175,741.5,599.175z M741.5,547.175c-3.721,0-6.731-3.015-6.731-6.729
	c0-3.72,3.014-6.732,6.731-6.732c3.719,0,6.73,3.016,6.73,6.732C748.232,544.161,745.219,547.175,741.5,547.175z M798.07,807.177
	c-3.719,0-6.729-3.016-6.729-6.729c0-3.722,3.014-6.732,6.729-6.732s6.732,3.014,6.732,6.732
	C804.803,804.161,801.787,807.177,798.07,807.177z M798.07,755.177c-3.719,0-6.729-3.016-6.729-6.729
	c0-3.722,3.014-6.732,6.729-6.732s6.732,3.014,6.732,6.732C804.803,752.161,801.787,755.177,798.07,755.177z M798.07,703.177
	c-3.719,0-6.729-3.016-6.729-6.729c0-3.722,3.014-6.732,6.729-6.732s6.732,3.014,6.732,6.732
	C804.803,700.161,801.787,703.177,798.07,703.177z M798.07,651.177c-3.719,0-6.729-3.016-6.729-6.729
	c0-3.722,3.014-6.732,6.729-6.732s6.732,3.014,6.732,6.732C804.803,648.161,801.787,651.177,798.07,651.177z M798.07,599.175
	c-3.719,0-6.729-3.015-6.729-6.729c0-3.72,3.014-6.732,6.729-6.732s6.732,3.016,6.732,6.732
	C804.802,596.161,801.787,599.175,798.07,599.175z M798.07,547.175c-3.719,0-6.729-3.015-6.729-6.729
	c0-3.72,3.014-6.732,6.729-6.732s6.732,3.016,6.732,6.732C804.802,544.161,801.787,547.175,798.07,547.175z M798.07,495.175
	c-3.719,0-6.729-3.014-6.729-6.729c0-3.721,3.014-6.732,6.729-6.732s6.732,3.014,6.732,6.732
	C804.802,492.162,801.787,495.175,798.07,495.175z M854.641,807.177c-3.719,0-6.732-3.016-6.732-6.729
	c0-3.722,3.017-6.732,6.732-6.732s6.729,3.014,6.729,6.732C861.371,804.161,858.359,807.177,854.641,807.177z M854.641,755.177
	c-3.719,0-6.732-3.016-6.732-6.729c0-3.722,3.017-6.732,6.732-6.732s6.729,3.014,6.729,6.732
	C861.371,752.161,858.359,755.177,854.641,755.177z M854.641,703.177c-3.719,0-6.732-3.016-6.732-6.729
	c0-3.722,3.017-6.732,6.732-6.732s6.729,3.014,6.729,6.732C861.371,700.161,858.359,703.177,854.641,703.177z M854.641,651.177
	c-3.719,0-6.732-3.016-6.732-6.729c0-3.722,3.017-6.732,6.732-6.732s6.729,3.014,6.729,6.732
	C861.371,648.161,858.359,651.177,854.641,651.177z M854.641,599.175c-3.719,0-6.732-3.015-6.732-6.729
	c0-3.72,3.017-6.732,6.732-6.732s6.729,3.016,6.729,6.732C861.371,596.161,858.359,599.175,854.641,599.175z M854.641,547.175
	c-3.719,0-6.732-3.015-6.732-6.729c0-3.72,3.017-6.732,6.732-6.732s6.729,3.016,6.729,6.732
	C861.371,544.161,858.359,547.175,854.641,547.175z M854.641,495.175c-3.719,0-6.732-3.014-6.732-6.729
	c0-3.721,3.017-6.732,6.732-6.732s6.729,3.014,6.729,6.732C861.371,492.162,858.359,495.175,854.641,495.175z M854.641,443.175
	c-3.719,0-6.732-3.014-6.732-6.729c0-3.721,3.017-6.732,6.732-6.732s6.729,3.014,6.729,6.732
	C861.371,440.162,858.359,443.175,854.641,443.175z M911.212,807.177c-3.722,0-6.732-3.016-6.732-6.729
	c0-3.722,3.014-6.732,6.732-6.732c3.718,0,6.729,3.014,6.729,6.732C917.943,804.161,914.93,807.177,911.212,807.177z
	 M911.212,755.177c-3.722,0-6.732-3.016-6.732-6.729c0-3.722,3.014-6.732,6.732-6.732c3.718,0,6.729,3.014,6.729,6.732
	C917.943,752.161,914.93,755.177,911.212,755.177z M911.212,703.177c-3.722,0-6.732-3.016-6.732-6.729
	c0-3.722,3.014-6.732,6.732-6.732c3.718,0,6.729,3.014,6.729,6.732C917.943,700.161,914.93,703.177,911.212,703.177z
	 M911.212,651.177c-3.722,0-6.732-3.016-6.732-6.729c0-3.722,3.014-6.732,6.732-6.732c3.718,0,6.729,3.014,6.729,6.732
	C917.943,648.161,914.93,651.177,911.212,651.177z M911.212,599.175c-3.722,0-6.732-3.015-6.732-6.729
	c0-3.72,3.014-6.732,6.732-6.732c3.718,0,6.729,3.016,6.729,6.732C917.943,596.161,914.93,599.175,911.212,599.175z
	 M911.212,547.175c-3.722,0-6.732-3.015-6.732-6.729c0-3.72,3.014-6.732,6.732-6.732c3.718,0,6.729,3.016,6.729,6.732
	C917.943,544.161,914.93,547.175,911.212,547.175z M911.212,495.175c-3.722,0-6.732-3.014-6.732-6.729
	c0-3.721,3.014-6.732,6.732-6.732c3.718,0,6.729,3.014,6.729,6.732C917.943,492.162,914.93,495.175,911.212,495.175z
	 M911.212,443.175c-3.722,0-6.732-3.014-6.732-6.729c0-3.721,3.014-6.732,6.732-6.732c3.718,0,6.729,3.014,6.729,6.732
	C917.943,440.162,914.93,443.175,911.212,443.175z M967.781,755.177c-3.719,0-6.729-3.016-6.729-6.729
	c0-3.722,3.014-6.732,6.729-6.732c3.718,0,6.732,3.014,6.732,6.732C974.514,752.161,971.5,755.177,967.781,755.177z
	 M967.781,703.177c-3.719,0-6.729-3.016-6.729-6.729c0-3.722,3.014-6.732,6.729-6.732c3.718,0,6.732,3.014,6.732,6.732
	C974.514,700.161,971.5,703.177,967.781,703.177z M967.781,651.177c-3.719,0-6.729-3.016-6.729-6.729
	c0-3.722,3.014-6.732,6.729-6.732c3.718,0,6.732,3.014,6.732,6.732C974.514,648.161,971.5,651.177,967.781,651.177z
	 M967.781,599.175c-3.719,0-6.729-3.015-6.729-6.729c0-3.72,3.014-6.732,6.729-6.732c3.718,0,6.732,3.016,6.732,6.732
	C974.513,596.161,971.5,599.175,967.781,599.175z M967.781,547.175c-3.719,0-6.729-3.015-6.729-6.729
	c0-3.72,3.014-6.732,6.729-6.732c3.718,0,6.732,3.016,6.732,6.732C974.513,544.161,971.5,547.175,967.781,547.175z M967.781,495.175
	c-3.719,0-6.729-3.014-6.729-6.729c0-3.721,3.014-6.732,6.729-6.732c3.718,0,6.732,3.014,6.732,6.732
	C974.513,492.162,971.5,495.175,967.781,495.175z M967.781,443.175c-3.719,0-6.729-3.014-6.729-6.729
	c0-3.721,3.014-6.732,6.729-6.732c3.718,0,6.732,3.014,6.732,6.732C974.513,440.162,971.5,443.175,967.781,443.175z
	 M967.781,391.175c-3.719,0-6.729-3.014-6.729-6.732c0-3.718,3.014-6.732,6.729-6.732c3.718,0,6.732,3.014,6.732,6.732
	C974.513,388.162,971.5,391.175,967.781,391.175z M1024.352,755.177c-3.719,0-6.732-3.016-6.732-6.729
	c0-3.722,3.017-6.732,6.732-6.732s6.732,3.014,6.732,6.732C1031.084,752.161,1028.07,755.177,1024.352,755.177z M1024.352,703.177
	c-3.719,0-6.732-3.016-6.732-6.729c0-3.722,3.017-6.732,6.732-6.732s6.732,3.014,6.732,6.732
	C1031.084,700.161,1028.07,703.177,1024.352,703.177z M1024.352,651.177c-3.719,0-6.732-3.016-6.732-6.729
	c0-3.722,3.017-6.732,6.732-6.732s6.732,3.014,6.732,6.732C1031.084,648.161,1028.07,651.177,1024.352,651.177z M1024.352,599.175
	c-3.719,0-6.732-3.015-6.732-6.729c0-3.72,3.017-6.732,6.732-6.732s6.732,3.016,6.732,6.732
	C1031.084,596.161,1028.07,599.175,1024.352,599.175z M1024.352,547.175c-3.719,0-6.732-3.015-6.732-6.729
	c0-3.72,3.017-6.732,6.732-6.732s6.732,3.016,6.732,6.732C1031.084,544.161,1028.07,547.175,1024.352,547.175z M1024.352,495.175
	c-3.719,0-6.732-3.014-6.732-6.729c0-3.721,3.017-6.732,6.732-6.732s6.732,3.014,6.732,6.732
	C1031.084,492.162,1028.07,495.175,1024.352,495.175z M1024.352,443.175c-3.719,0-6.732-3.014-6.732-6.729
	c0-3.721,3.017-6.732,6.732-6.732s6.732,3.014,6.732,6.732C1031.084,440.162,1028.07,443.175,1024.352,443.175z M1024.352,391.175
	c-3.719,0-6.732-3.014-6.732-6.732c0-3.718,3.017-6.732,6.732-6.732s6.732,3.014,6.732,6.732
	C1031.084,388.162,1028.07,391.175,1024.352,391.175z M1024.352,339.175c-3.719,0-6.732-3.014-6.732-6.732
	c0-3.718,3.017-6.732,6.732-6.732s6.732,3.014,6.732,6.732C1031.084,336.162,1028.07,339.175,1024.352,339.175z M1080.923,755.177
	c-3.722,0-6.732-3.016-6.732-6.729c0-3.722,3.014-6.732,6.732-6.732c3.718,0,6.729,3.014,6.729,6.732
	C1087.654,752.161,1084.641,755.177,1080.923,755.177z M1080.923,703.177c-3.722,0-6.732-3.016-6.732-6.729
	c0-3.722,3.014-6.732,6.732-6.732c3.718,0,6.729,3.014,6.729,6.732C1087.654,700.161,1084.641,703.177,1080.923,703.177z
	 M1080.923,651.177c-3.722,0-6.732-3.016-6.732-6.729c0-3.722,3.014-6.732,6.732-6.732c3.718,0,6.729,3.014,6.729,6.732
	C1087.654,648.161,1084.641,651.177,1080.923,651.177z M1080.923,599.175c-3.722,0-6.732-3.015-6.732-6.729
	c0-3.72,3.014-6.732,6.732-6.732c3.718,0,6.729,3.016,6.729,6.732C1087.654,596.161,1084.641,599.175,1080.923,599.175z
	 M1080.923,547.175c-3.722,0-6.732-3.015-6.732-6.729c0-3.72,3.014-6.732,6.732-6.732c3.718,0,6.729,3.016,6.729,6.732
	C1087.654,544.161,1084.641,547.175,1080.923,547.175z M1080.923,495.175c-3.722,0-6.732-3.014-6.732-6.729
	c0-3.721,3.014-6.732,6.732-6.732c3.718,0,6.729,3.014,6.729,6.732C1087.654,492.162,1084.641,495.175,1080.923,495.175z
	 M1080.923,443.175c-3.722,0-6.732-3.014-6.732-6.729c0-3.721,3.014-6.732,6.732-6.732c3.718,0,6.729,3.014,6.729,6.732
	C1087.654,440.162,1084.641,443.175,1080.923,443.175z M1080.923,391.175c-3.722,0-6.732-3.014-6.732-6.732
	c0-3.718,3.014-6.732,6.732-6.732c3.718,0,6.729,3.014,6.729,6.732C1087.654,388.162,1084.641,391.175,1080.923,391.175z
	 M1080.923,339.175c-3.722,0-6.732-3.014-6.732-6.732c0-3.718,3.014-6.732,6.732-6.732c3.718,0,6.729,3.014,6.729,6.732
	C1087.654,336.162,1084.641,339.175,1080.923,339.175z M1080.923,287.175c-3.722,0-6.732-3.014-6.732-6.732
	c0-3.718,3.014-6.732,6.732-6.732c3.718,0,6.729,3.014,6.729,6.732C1087.654,284.162,1084.641,287.175,1080.923,287.175z
	 M1137.49,703.177c-3.719,0-6.729-3.016-6.729-6.729c0-3.722,3.014-6.732,6.729-6.732s6.732,3.014,6.732,6.732
	C1144.225,700.161,1141.212,703.177,1137.49,703.177z M1137.49,651.177c-3.719,0-6.729-3.016-6.729-6.729
	c0-3.722,3.014-6.732,6.729-6.732s6.732,3.014,6.732,6.732C1144.225,648.161,1141.212,651.177,1137.49,651.177z M1137.49,599.175
	c-3.719,0-6.729-3.015-6.729-6.729c0-3.72,3.014-6.732,6.729-6.732s6.732,3.016,6.732,6.732
	C1144.224,596.161,1141.212,599.175,1137.49,599.175z M1137.49,547.175c-3.719,0-6.729-3.015-6.729-6.729
	c0-3.72,3.014-6.732,6.729-6.732s6.732,3.016,6.732,6.732C1144.224,544.161,1141.212,547.175,1137.49,547.175z M1137.49,495.175
	c-3.719,0-6.729-3.014-6.729-6.729c0-3.721,3.014-6.732,6.729-6.732s6.732,3.014,6.732,6.732
	C1144.224,492.162,1141.212,495.175,1137.49,495.175z M1137.49,443.175c-3.719,0-6.729-3.014-6.729-6.729
	c0-3.721,3.014-6.732,6.729-6.732s6.732,3.014,6.732,6.732C1144.224,440.162,1141.212,443.175,1137.49,443.175z M1137.49,391.175
	c-3.719,0-6.729-3.014-6.729-6.732c0-3.718,3.014-6.732,6.729-6.732s6.732,3.014,6.732,6.732
	C1144.224,388.162,1141.212,391.175,1137.49,391.175z M1137.49,339.175c-3.719,0-6.729-3.014-6.729-6.732
	c0-3.718,3.014-6.732,6.729-6.732s6.732,3.014,6.732,6.732C1144.224,336.162,1141.212,339.175,1137.49,339.175z M1137.49,287.175
	c-3.719,0-6.729-3.014-6.729-6.732c0-3.718,3.014-6.732,6.729-6.732s6.732,3.014,6.732,6.732
	C1144.224,284.162,1141.212,287.175,1137.49,287.175z M1137.49,235.175c-3.719,0-6.729-3.014-6.729-6.732
	c0-3.718,3.014-6.732,6.729-6.732s6.732,3.014,6.732,6.732C1144.224,232.162,1141.212,235.175,1137.49,235.175z M1194.062,703.177
	c-3.719,0-6.732-3.016-6.732-6.729c0-3.722,3.017-6.732,6.732-6.732s6.732,3.014,6.732,6.732
	C1200.796,700.161,1197.781,703.177,1194.062,703.177z M1194.062,651.177c-3.719,0-6.732-3.016-6.732-6.729
	c0-3.722,3.017-6.732,6.732-6.732s6.732,3.014,6.732,6.732C1200.796,648.161,1197.781,651.177,1194.062,651.177z M1194.062,599.175
	c-3.719,0-6.732-3.015-6.732-6.729c0-3.72,3.017-6.732,6.732-6.732s6.732,3.016,6.732,6.732
	C1200.793,596.161,1197.781,599.175,1194.062,599.175z M1194.062,547.175c-3.719,0-6.732-3.015-6.732-6.729
	c0-3.72,3.017-6.732,6.732-6.732s6.732,3.016,6.732,6.732C1200.793,544.161,1197.781,547.175,1194.062,547.175z M1194.062,495.175
	c-3.719,0-6.732-3.014-6.732-6.729c0-3.721,3.017-6.732,6.732-6.732s6.732,3.014,6.732,6.732
	C1200.793,492.162,1197.781,495.175,1194.062,495.175z M1194.062,443.175c-3.719,0-6.732-3.014-6.732-6.729
	c0-3.721,3.017-6.732,6.732-6.732s6.732,3.014,6.732,6.732C1200.793,440.162,1197.781,443.175,1194.062,443.175z M1194.062,391.175
	c-3.719,0-6.732-3.014-6.732-6.732c0-3.718,3.017-6.732,6.732-6.732s6.732,3.014,6.732,6.732
	C1200.793,388.162,1197.781,391.175,1194.062,391.175z M1194.062,339.175c-3.719,0-6.732-3.014-6.732-6.732
	c0-3.718,3.017-6.732,6.732-6.732s6.732,3.014,6.732,6.732C1200.793,336.162,1197.781,339.175,1194.062,339.175z M1194.062,287.175
	c-3.719,0-6.732-3.014-6.732-6.732c0-3.718,3.017-6.732,6.732-6.732s6.732,3.014,6.732,6.732
	C1200.793,284.162,1197.781,287.175,1194.062,287.175z M1194.062,235.175c-3.719,0-6.732-3.014-6.732-6.732
	c0-3.718,3.017-6.732,6.732-6.732s6.732,3.014,6.732,6.732C1200.793,232.162,1197.781,235.175,1194.062,235.175z M1194.062,183.175
	c-3.719,0-6.732-3.014-6.732-6.732c0-3.718,3.017-6.732,6.732-6.732s6.732,3.014,6.732,6.732
	C1200.793,180.162,1197.781,183.175,1194.062,183.175z M1250.634,651.177c-3.72,0-6.732-3.016-6.732-6.729
	c0-3.722,3.015-6.732,6.732-6.732s6.729,3.014,6.729,6.732C1257.365,648.161,1254.352,651.177,1250.634,651.177z M1250.634,599.175
	c-3.72,0-6.732-3.015-6.732-6.729c0-3.72,3.015-6.732,6.732-6.732s6.729,3.016,6.729,6.732
	C1257.365,596.161,1254.352,599.175,1250.634,599.175z M1250.634,547.175c-3.72,0-6.732-3.015-6.732-6.729
	c0-3.72,3.015-6.732,6.732-6.732s6.729,3.016,6.729,6.732C1257.365,544.161,1254.352,547.175,1250.634,547.175z M1250.634,495.175
	c-3.72,0-6.732-3.014-6.732-6.729c0-3.721,3.015-6.732,6.732-6.732s6.729,3.014,6.729,6.732
	C1257.365,492.162,1254.352,495.175,1250.634,495.175z M1250.634,443.175c-3.72,0-6.732-3.014-6.732-6.729
	c0-3.721,3.015-6.732,6.732-6.732s6.729,3.014,6.729,6.732C1257.365,440.162,1254.352,443.175,1250.634,443.175z M1250.634,391.175
	c-3.72,0-6.732-3.014-6.732-6.732c0-3.718,3.015-6.732,6.732-6.732s6.729,3.014,6.729,6.732
	C1257.365,388.162,1254.352,391.175,1250.634,391.175z M1250.634,339.175c-3.72,0-6.732-3.014-6.732-6.732
	c0-3.718,3.015-6.732,6.732-6.732s6.729,3.014,6.729,6.732C1257.365,336.162,1254.352,339.175,1250.634,339.175z M1250.634,287.175
	c-3.72,0-6.732-3.014-6.732-6.732c0-3.718,3.015-6.732,6.732-6.732s6.729,3.014,6.729,6.732
	C1257.365,284.162,1254.352,287.175,1250.634,287.175z M1250.634,235.175c-3.72,0-6.732-3.014-6.732-6.732
	c0-3.718,3.015-6.732,6.732-6.732s6.729,3.014,6.729,6.732C1257.365,232.162,1254.352,235.175,1250.634,235.175z M1250.634,183.175
	c-3.72,0-6.732-3.014-6.732-6.732c0-3.718,3.015-6.732,6.732-6.732s6.729,3.014,6.729,6.732
	C1257.365,180.162,1254.352,183.175,1250.634,183.175z M1307.201,651.177c-3.718,0-6.729-3.016-6.729-6.729
	c0-3.722,3.014-6.732,6.729-6.732c3.722,0,6.732,3.014,6.732,6.732C1313.935,648.161,1310.922,651.177,1307.201,651.177z
	 M1307.201,599.175c-3.718,0-6.729-3.015-6.729-6.729c0-3.72,3.014-6.732,6.729-6.732c3.722,0,6.732,3.016,6.732,6.732
	C1313.935,596.161,1310.922,599.175,1307.201,599.175z M1307.201,547.175c-3.718,0-6.729-3.015-6.729-6.729
	c0-3.72,3.014-6.732,6.729-6.732c3.722,0,6.732,3.016,6.732,6.732C1313.935,544.161,1310.922,547.175,1307.201,547.175z
	 M1307.201,495.175c-3.718,0-6.729-3.014-6.729-6.729c0-3.721,3.014-6.732,6.729-6.732c3.722,0,6.732,3.014,6.732,6.732
	C1313.935,492.162,1310.922,495.175,1307.201,495.175z M1307.201,443.175c-3.718,0-6.729-3.014-6.729-6.729
	c0-3.721,3.014-6.732,6.729-6.732c3.722,0,6.732,3.014,6.732,6.732C1313.935,440.162,1310.922,443.175,1307.201,443.175z
	 M1307.201,391.175c-3.718,0-6.729-3.014-6.729-6.732c0-3.718,3.014-6.732,6.729-6.732c3.722,0,6.732,3.014,6.732,6.732
	C1313.935,388.162,1310.922,391.175,1307.201,391.175z M1307.201,339.175c-3.718,0-6.729-3.014-6.729-6.732
	c0-3.718,3.014-6.732,6.729-6.732c3.722,0,6.732,3.014,6.732,6.732C1313.935,336.162,1310.922,339.175,1307.201,339.175z
	 M1307.201,287.175c-3.718,0-6.729-3.014-6.729-6.732c0-3.718,3.014-6.732,6.729-6.732c3.722,0,6.732,3.014,6.732,6.732
	C1313.935,284.162,1310.922,287.175,1307.201,287.175z M1307.201,235.175c-3.718,0-6.729-3.014-6.729-6.732
	c0-3.718,3.014-6.732,6.729-6.732c3.722,0,6.732,3.014,6.732,6.732C1313.935,232.162,1310.922,235.175,1307.201,235.175z
	 M1363.773,651.177c-3.719,0-6.732-3.016-6.732-6.729c0-3.722,3.017-6.732,6.732-6.732s6.732,3.014,6.732,6.732
	C1370.506,648.161,1367.49,651.177,1363.773,651.177z M1363.773,599.175c-3.719,0-6.732-3.015-6.732-6.729
	c0-3.72,3.017-6.732,6.732-6.732s6.732,3.016,6.732,6.732C1370.506,596.161,1367.49,599.175,1363.773,599.175z M1363.773,547.175
	c-3.719,0-6.732-3.015-6.732-6.729c0-3.72,3.017-6.732,6.732-6.732s6.732,3.016,6.732,6.732
	C1370.506,544.161,1367.49,547.175,1363.773,547.175z M1363.773,495.175c-3.719,0-6.732-3.014-6.732-6.729
	c0-3.721,3.017-6.732,6.732-6.732s6.732,3.014,6.732,6.732C1370.506,492.162,1367.49,495.175,1363.773,495.175z M1363.773,443.175
	c-3.719,0-6.732-3.014-6.732-6.729c0-3.721,3.017-6.732,6.732-6.732s6.732,3.014,6.732,6.732
	C1370.506,440.162,1367.49,443.175,1363.773,443.175z M1363.773,391.175c-3.719,0-6.732-3.014-6.732-6.732
	c0-3.718,3.017-6.732,6.732-6.732s6.732,3.014,6.732,6.732C1370.506,388.162,1367.49,391.175,1363.773,391.175z M1363.773,339.175
	c-3.719,0-6.732-3.014-6.732-6.732c0-3.718,3.017-6.732,6.732-6.732s6.732,3.014,6.732,6.732
	C1370.506,336.162,1367.49,339.175,1363.773,339.175z M1363.773,287.175c-3.719,0-6.732-3.014-6.732-6.732
	c0-3.718,3.017-6.732,6.732-6.732s6.732,3.014,6.732,6.732C1370.506,284.162,1367.49,287.175,1363.773,287.175z M1363.773,235.175
	c-3.719,0-6.732-3.014-6.732-6.732c0-3.718,3.017-6.732,6.732-6.732s6.732,3.014,6.732,6.732
	C1370.506,232.162,1367.49,235.175,1363.773,235.175z M1420.344,651.177c-3.721,0-6.732-3.016-6.732-6.729
	c0-3.722,3.016-6.732,6.732-6.732s6.729,3.014,6.729,6.732C1427.074,648.161,1424.062,651.177,1420.344,651.177z M1420.344,599.175
	c-3.721,0-6.732-3.015-6.732-6.729c0-3.72,3.016-6.732,6.732-6.732s6.729,3.016,6.729,6.732
	C1427.073,596.161,1424.062,599.175,1420.344,599.175z M1420.344,547.175c-3.721,0-6.732-3.015-6.732-6.729
	c0-3.72,3.016-6.732,6.732-6.732s6.729,3.016,6.729,6.732C1427.073,544.161,1424.062,547.175,1420.344,547.175z M1420.344,495.175
	c-3.721,0-6.732-3.014-6.732-6.729c0-3.721,3.016-6.732,6.732-6.732s6.729,3.014,6.729,6.732
	C1427.073,492.162,1424.062,495.175,1420.344,495.175z M1420.344,443.175c-3.721,0-6.732-3.014-6.732-6.729
	c0-3.721,3.016-6.732,6.732-6.732s6.729,3.014,6.729,6.732C1427.073,440.162,1424.062,443.175,1420.344,443.175z M1420.344,391.175
	c-3.721,0-6.732-3.014-6.732-6.732c0-3.718,3.016-6.732,6.732-6.732s6.729,3.014,6.729,6.732
	C1427.073,388.162,1424.062,391.175,1420.344,391.175z M1420.344,339.175c-3.721,0-6.732-3.014-6.732-6.732
	c0-3.718,3.016-6.732,6.732-6.732s6.729,3.014,6.729,6.732C1427.073,336.162,1424.062,339.175,1420.344,339.175z M1420.344,287.175
	c-3.721,0-6.732-3.014-6.732-6.732c0-3.718,3.016-6.732,6.732-6.732s6.729,3.014,6.729,6.732
	C1427.073,284.162,1424.062,287.175,1420.344,287.175z M1476.912,651.177c-3.719,0-6.729-3.016-6.729-6.729
	c0-3.722,3.014-6.732,6.729-6.732c3.721,0,6.732,3.014,6.732,6.732C1483.646,648.161,1480.633,651.177,1476.912,651.177z
	 M1476.912,599.175c-3.719,0-6.729-3.015-6.729-6.729c0-3.72,3.014-6.732,6.729-6.732c3.721,0,6.732,3.016,6.732,6.732
	C1483.646,596.161,1480.633,599.175,1476.912,599.175z M1476.912,547.175c-3.719,0-6.729-3.015-6.729-6.729
	c0-3.72,3.014-6.732,6.729-6.732c3.721,0,6.732,3.016,6.732,6.732C1483.646,544.161,1480.633,547.175,1476.912,547.175z
	 M1476.912,495.175c-3.719,0-6.729-3.014-6.729-6.729c0-3.721,3.014-6.732,6.729-6.732c3.721,0,6.732,3.014,6.732,6.732
	C1483.646,492.162,1480.633,495.175,1476.912,495.175z M1476.912,443.175c-3.719,0-6.729-3.014-6.729-6.729
	c0-3.721,3.014-6.732,6.729-6.732c3.721,0,6.732,3.014,6.732,6.732C1483.646,440.162,1480.633,443.175,1476.912,443.175z
	 M1476.912,391.175c-3.719,0-6.729-3.014-6.729-6.732c0-3.718,3.014-6.732,6.729-6.732c3.721,0,6.732,3.014,6.732,6.732
	C1483.646,388.162,1480.633,391.175,1476.912,391.175z M1476.912,339.175c-3.719,0-6.729-3.014-6.729-6.732
	c0-3.718,3.014-6.732,6.729-6.732c3.721,0,6.732,3.014,6.732,6.732C1483.646,336.162,1480.633,339.175,1476.912,339.175z
	 M1476.912,287.175c-3.719,0-6.729-3.014-6.729-6.732c0-3.718,3.014-6.732,6.729-6.732c3.721,0,6.732,3.014,6.732,6.732
	C1483.646,284.162,1480.633,287.175,1476.912,287.175z M1533.484,651.177c-3.719,0-6.729-3.016-6.729-6.729
	c0-3.722,3.014-6.732,6.729-6.732s6.732,3.014,6.732,6.732C1540.217,648.161,1537.201,651.177,1533.484,651.177z M1533.484,599.175
	c-3.719,0-6.729-3.015-6.729-6.729c0-3.72,3.014-6.732,6.729-6.732s6.732,3.016,6.732,6.732
	C1540.217,596.161,1537.201,599.175,1533.484,599.175z M1533.484,547.175c-3.719,0-6.729-3.015-6.729-6.729
	c0-3.72,3.014-6.732,6.729-6.732s6.732,3.016,6.732,6.732C1540.217,544.161,1537.201,547.175,1533.484,547.175z M1533.484,495.175
	c-3.719,0-6.729-3.014-6.729-6.729c0-3.721,3.014-6.732,6.729-6.732s6.732,3.014,6.732,6.732
	C1540.217,492.162,1537.201,495.175,1533.484,495.175z M1533.484,443.175c-3.719,0-6.729-3.014-6.729-6.729
	c0-3.721,3.014-6.732,6.729-6.732s6.732,3.014,6.732,6.732C1540.217,440.162,1537.201,443.175,1533.484,443.175z M1533.484,391.175
	c-3.719,0-6.729-3.014-6.729-6.732c0-3.718,3.014-6.732,6.729-6.732s6.732,3.014,6.732,6.732
	C1540.217,388.162,1537.201,391.175,1533.484,391.175z M1533.484,339.175c-3.719,0-6.729-3.014-6.729-6.732
	c0-3.718,3.014-6.732,6.729-6.732s6.732,3.014,6.732,6.732C1540.217,336.162,1537.201,339.175,1533.484,339.175z M1590.054,651.177
	c-3.72,0-6.732-3.016-6.732-6.729c0-3.722,3.015-6.732,6.732-6.732c3.717,0,6.729,3.014,6.729,6.732
	C1596.785,648.161,1593.773,651.177,1590.054,651.177z M1590.054,599.175c-3.72,0-6.732-3.015-6.732-6.729
	c0-3.72,3.015-6.732,6.732-6.732c3.717,0,6.729,3.016,6.729,6.732C1596.784,596.161,1593.773,599.175,1590.054,599.175z
	 M1590.054,547.175c-3.72,0-6.732-3.015-6.732-6.729c0-3.72,3.015-6.732,6.732-6.732c3.717,0,6.729,3.016,6.729,6.732
	C1596.784,544.161,1593.773,547.175,1590.054,547.175z M1590.054,495.175c-3.72,0-6.732-3.014-6.732-6.729
	c0-3.721,3.015-6.732,6.732-6.732c3.717,0,6.729,3.014,6.729,6.732C1596.784,492.162,1593.773,495.175,1590.054,495.175z
	 M1590.054,443.175c-3.72,0-6.732-3.014-6.732-6.729c0-3.721,3.015-6.732,6.732-6.732c3.717,0,6.729,3.014,6.729,6.732
	C1596.784,440.162,1593.773,443.175,1590.054,443.175z M1590.054,391.175c-3.72,0-6.732-3.014-6.732-6.732
	c0-3.718,3.015-6.732,6.732-6.732c3.717,0,6.729,3.014,6.729,6.732C1596.784,388.162,1593.773,391.175,1590.054,391.175z
	 M1590.054,339.175c-3.72,0-6.732-3.014-6.732-6.732c0-3.718,3.015-6.732,6.732-6.732c3.717,0,6.729,3.014,6.729,6.732
	C1596.784,336.162,1593.773,339.175,1590.054,339.175z M1646.623,651.177c-3.721,0-6.731-3.016-6.731-6.729
	c0-3.722,3.014-6.732,6.731-6.732c3.719,0,6.73,3.014,6.73,6.732C1653.357,648.161,1650.343,651.177,1646.623,651.177z
	 M1646.623,599.175c-3.721,0-6.731-3.015-6.731-6.729c0-3.72,3.014-6.732,6.731-6.732c3.719,0,6.73,3.016,6.73,6.732
	C1653.357,596.161,1650.343,599.175,1646.623,599.175z M1646.623,547.175c-3.721,0-6.731-3.015-6.731-6.729
	c0-3.72,3.014-6.732,6.731-6.732c3.719,0,6.73,3.016,6.73,6.732C1653.357,544.161,1650.343,547.175,1646.623,547.175z
	 M1646.623,495.175c-3.721,0-6.731-3.014-6.731-6.729c0-3.721,3.014-6.732,6.731-6.732c3.719,0,6.73,3.014,6.73,6.732
	C1653.357,492.162,1650.343,495.175,1646.623,495.175z M1646.623,443.175c-3.721,0-6.731-3.014-6.731-6.729
	c0-3.721,3.014-6.732,6.731-6.732c3.719,0,6.73,3.014,6.73,6.732C1653.357,440.162,1650.343,443.175,1646.623,443.175z
	 M1646.623,391.175c-3.721,0-6.731-3.014-6.731-6.732c0-3.718,3.014-6.732,6.731-6.732c3.719,0,6.73,3.014,6.73,6.732
	C1653.357,388.162,1650.343,391.175,1646.623,391.175z M1703.195,651.177c-3.719,0-6.731-3.016-6.731-6.729
	c0-3.722,3.016-6.732,6.731-6.732s6.732,3.014,6.732,6.732C1709.927,648.161,1706.91,651.177,1703.195,651.177z M1703.195,599.175
	c-3.719,0-6.731-3.015-6.731-6.729c0-3.72,3.016-6.732,6.731-6.732s6.732,3.016,6.732,6.732
	C1709.927,596.161,1706.91,599.175,1703.195,599.175z M1703.195,547.175c-3.719,0-6.731-3.015-6.731-6.729
	c0-3.72,3.016-6.732,6.731-6.732s6.732,3.016,6.732,6.732C1709.927,544.161,1706.91,547.175,1703.195,547.175z M1703.195,495.175
	c-3.719,0-6.731-3.014-6.731-6.729c0-3.721,3.016-6.732,6.731-6.732s6.732,3.014,6.732,6.732
	C1709.927,492.162,1706.91,495.175,1703.195,495.175z M1703.195,443.175c-3.719,0-6.731-3.014-6.731-6.729
	c0-3.721,3.016-6.732,6.731-6.732s6.732,3.014,6.732,6.732C1709.927,440.162,1706.91,443.175,1703.195,443.175z M1703.195,391.175
	c-3.719,0-6.731-3.014-6.731-6.732c0-3.718,3.016-6.732,6.731-6.732s6.732,3.014,6.732,6.732
	C1709.927,388.162,1706.91,391.175,1703.195,391.175z M1759.765,651.177c-3.719,0-6.732-3.016-6.732-6.729
	c0-3.722,3.017-6.732,6.732-6.732s6.729,3.014,6.729,6.732C1766.494,648.161,1763.484,651.177,1759.765,651.177z M1759.765,599.175
	c-3.719,0-6.732-3.015-6.732-6.729c0-3.72,3.017-6.732,6.732-6.732s6.729,3.016,6.729,6.732
	C1766.494,596.161,1763.484,599.175,1759.765,599.175z M1759.765,547.175c-3.719,0-6.732-3.015-6.732-6.729
	c0-3.72,3.017-6.732,6.732-6.732s6.729,3.016,6.729,6.732C1766.494,544.161,1763.484,547.175,1759.765,547.175z M1759.765,495.175
	c-3.719,0-6.732-3.014-6.732-6.729c0-3.721,3.017-6.732,6.732-6.732s6.729,3.014,6.729,6.732
	C1766.494,492.162,1763.484,495.175,1759.765,495.175z M1759.765,443.175c-3.719,0-6.732-3.014-6.732-6.729
	c0-3.721,3.017-6.732,6.732-6.732s6.729,3.014,6.729,6.732C1766.494,440.162,1763.484,443.175,1759.765,443.175z M1816.334,703.177
	c-3.721,0-6.731-3.016-6.731-6.729c0-3.722,3.014-6.732,6.731-6.732c3.719,0,6.73,3.014,6.73,6.732
	C1823.068,700.161,1820.054,703.177,1816.334,703.177z M1816.334,651.177c-3.721,0-6.731-3.016-6.731-6.729
	c0-3.722,3.014-6.732,6.731-6.732c3.719,0,6.73,3.014,6.73,6.732C1823.068,648.161,1820.054,651.177,1816.334,651.177z
	 M1816.334,599.175c-3.721,0-6.731-3.015-6.731-6.729c0-3.72,3.014-6.732,6.731-6.732c3.719,0,6.73,3.016,6.73,6.732
	C1823.068,596.161,1820.054,599.175,1816.334,599.175z M1816.334,547.175c-3.721,0-6.731-3.015-6.731-6.729
	c0-3.72,3.014-6.732,6.731-6.732c3.719,0,6.73,3.016,6.73,6.732C1823.068,544.161,1820.054,547.175,1816.334,547.175z
	 M1816.334,495.175c-3.721,0-6.731-3.014-6.731-6.729c0-3.721,3.014-6.732,6.731-6.732c3.719,0,6.73,3.014,6.73,6.732
	C1823.068,492.162,1820.054,495.175,1816.334,495.175z M1816.334,443.175c-3.721,0-6.731-3.014-6.731-6.729
	c0-3.721,3.014-6.732,6.731-6.732c3.719,0,6.73,3.014,6.73,6.732C1823.068,440.162,1820.054,443.175,1816.334,443.175z
	 M1872.906,703.177c-3.719,0-6.729-3.016-6.729-6.729c0-3.722,3.014-6.732,6.729-6.732c3.72,0,6.732,3.014,6.732,6.732
	C1879.638,700.161,1876.623,703.177,1872.906,703.177z M1872.906,651.177c-3.719,0-6.729-3.016-6.729-6.729
	c0-3.722,3.014-6.732,6.729-6.732c3.72,0,6.732,3.014,6.732,6.732C1879.638,648.161,1876.623,651.177,1872.906,651.177z
	 M1872.906,599.175c-3.719,0-6.729-3.015-6.729-6.729c0-3.72,3.014-6.732,6.729-6.732c3.72,0,6.732,3.016,6.732,6.732
	C1879.638,596.161,1876.623,599.175,1872.906,599.175z M1872.906,547.175c-3.719,0-6.729-3.015-6.729-6.729
	c0-3.72,3.014-6.732,6.729-6.732c3.72,0,6.732,3.016,6.732,6.732C1879.638,544.161,1876.623,547.175,1872.906,547.175z
	 M1872.906,495.175c-3.719,0-6.729-3.014-6.729-6.729c0-3.721,3.014-6.732,6.729-6.732c3.72,0,6.732,3.014,6.732,6.732
	C1879.638,492.162,1876.623,495.175,1872.906,495.175z M1929.476,703.177c-3.719,0-6.732-3.016-6.732-6.729
	c0-3.722,3.017-6.732,6.732-6.732s6.729,3.014,6.729,6.732C1936.207,700.161,1933.195,703.177,1929.476,703.177z M1929.476,651.177
	c-3.719,0-6.732-3.016-6.732-6.729c0-3.722,3.017-6.732,6.732-6.732s6.729,3.014,6.729,6.732
	C1936.207,648.161,1933.195,651.177,1929.476,651.177z M1929.476,599.175c-3.719,0-6.732-3.015-6.732-6.729
	c0-3.72,3.017-6.732,6.732-6.732s6.729,3.016,6.729,6.732C1936.207,596.161,1933.195,599.175,1929.476,599.175z M1929.476,547.175
	c-3.719,0-6.732-3.015-6.732-6.729c0-3.72,3.017-6.732,6.732-6.732s6.729,3.016,6.729,6.732
	C1936.207,544.161,1933.195,547.175,1929.476,547.175z M1929.476,495.175c-3.719,0-6.732-3.014-6.732-6.729
	c0-3.721,3.017-6.732,6.732-6.732s6.729,3.014,6.729,6.732C1936.207,492.162,1933.195,495.175,1929.476,495.175z M1986.046,755.177
	c-3.722,0-6.732-3.016-6.732-6.729c0-3.722,3.014-6.732,6.732-6.732c3.718,0,6.729,3.014,6.729,6.732
	C1992.779,752.161,1989.765,755.177,1986.046,755.177z M1986.046,703.177c-3.722,0-6.732-3.016-6.732-6.729
	c0-3.722,3.014-6.732,6.732-6.732c3.718,0,6.729,3.014,6.729,6.732C1992.779,700.161,1989.765,703.177,1986.046,703.177z
	 M1986.046,651.177c-3.722,0-6.732-3.016-6.732-6.729c0-3.722,3.014-6.732,6.732-6.732c3.718,0,6.729,3.014,6.729,6.732
	C1992.779,648.161,1989.765,651.177,1986.046,651.177z M1986.046,599.175c-3.722,0-6.732-3.015-6.732-6.729
	c0-3.72,3.014-6.732,6.732-6.732c3.718,0,6.729,3.016,6.729,6.732C1992.779,596.161,1989.765,599.175,1986.046,599.175z
	 M1986.046,547.175c-3.722,0-6.732-3.015-6.732-6.729c0-3.72,3.014-6.732,6.732-6.732c3.718,0,6.729,3.016,6.729,6.732
	C1992.779,544.161,1989.765,547.175,1986.046,547.175z M2042.615,755.177c-3.719,0-6.729-3.016-6.729-6.729
	c0-3.722,3.014-6.732,6.729-6.732c3.722,0,6.732,3.014,6.732,6.732C2049.349,752.161,2046.334,755.177,2042.615,755.177z
	 M2042.615,703.177c-3.719,0-6.729-3.016-6.729-6.729c0-3.722,3.014-6.732,6.729-6.732c3.722,0,6.732,3.014,6.732,6.732
	C2049.349,700.161,2046.334,703.177,2042.615,703.177z M2042.615,651.177c-3.719,0-6.729-3.016-6.729-6.729
	c0-3.722,3.014-6.732,6.729-6.732c3.722,0,6.732,3.014,6.732,6.732C2049.349,648.161,2046.334,651.177,2042.615,651.177z
	 M2042.615,599.175c-3.719,0-6.729-3.015-6.729-6.729c0-3.72,3.014-6.732,6.729-6.732c3.722,0,6.732,3.016,6.732,6.732
	C2049.349,596.161,2046.334,599.175,2042.615,599.175z M2042.615,547.175c-3.719,0-6.729-3.015-6.729-6.729
	c0-3.72,3.014-6.732,6.729-6.732c3.722,0,6.732,3.016,6.732,6.732C2049.349,544.161,2046.334,547.175,2042.615,547.175z
	 M2099.187,599.175c-3.719,0-6.729-3.015-6.729-6.729c0-3.72,3.014-6.732,6.729-6.732s6.731,3.016,6.731,6.732
	C2105.918,596.161,2102.906,599.175,2099.187,599.175z"/>
</svg>
