<?xml version="1.0" encoding="utf-8"?>
<!-- Generator: Adobe Illustrator 16.0.0, SVG Export Plug-In . SVG Version: 6.00 Build 0)  -->
<!DOCTYPE svg PUBLIC "-//W3C//DTD SVG 1.1//EN" "http://www.w3.org/Graphics/SVG/1.1/DTD/svg11.dtd">
<svg version="1.1" id="Layer_1" xmlns="http://www.w3.org/2000/svg" xmlns:xlink="http://www.w3.org/1999/xlink" x="0px" y="0px"
	 width="458.434px" height="704.464px" viewBox="0 0 458.434 704.464" enable-background="new 0 0 458.434 704.464"
	 xml:space="preserve">
<path fill="none" stroke="#000000" stroke-linejoin="round" stroke-miterlimit="10" d="M46.702,639.404
	c-0.176-2.988,4.122-14.584,6.638-21.375l16.016-39.873c12.083-30.088,29.32-73.008,38.268-89.412
	c14.256-26.143,25.593-53.766,39.696-79.986c22.629-42.062,44.272-84.653,67.409-126.441L263.57,194.1
	c22.328-40.814,49.541-78.697,73.149-118.753c4.797-8.137,14.771-24.05,30.11-47.641l12.272-18.939l7.757-7.898L397.211,0
	c1.594,3.18,2.539,6.513,2.809,10.058c0.337,5.287-11.141,47.358-34.332,126.185c-2.009,6.989-4.081,13.945-6.028,20.967
	c-9.609,34.705-20.355,69.099-29.219,104.012c-2.401,9.462-6.584,23.76-12.259,42.639c-2.651,8.828-5.396,17.628-8.131,26.432
	c-5.261,16.937-10.59,33.851-15.748,50.822c-3.609,11.873-7.354,23.199-5.412,35.77c3,19.432,24.32,26.48,37.896,37.342
	c11.795,9.438,19.137,14.447,29.025,22.061c9.732,7.496,20.631,13.338,31.188,19.615l60.755,36.111
	c2.297,1.365,4.387,3.021,6.495,4.674c6.138,4.822,4.472,13.455,1.652,19.928c-2.209,5.08-7.322,6.469-12.563,8.609
	c-11.27,4.613-80.96,33.123-123.479,44.271c-75.823,19.879-99.267,26.344-166.28,36.115c-21.702,3.164-59.261,6.99-88.939,10.016
	c-0.712,0.072-1.405,0.092-2.079,0.061c-1.001,0.34-2.271,0.455-2.811,1.51c-0.452,0.883-0.279,2.131-0.22,3.082
	c1.819,3.959,2.833,8.363,2.833,13.006c0,17.221-13.96,31.182-31.182,31.182s-31.182-13.961-31.182-31.182
	c0-17.223,13.96-31.184,31.182-31.184c4.356,0,8.504,0.895,12.271,2.508l0.001,0.002c0.922-0.113,2.007,0.092,2.657-0.74
	c0.909-1.162,0.469-3.104,0.586-4.467H46.702z"/>
</svg>
