<?xml version="1.0" encoding="utf-8"?>
<!-- Generator: Adobe Illustrator 16.0.0, SVG Export Plug-In . SVG Version: 6.00 Build 0)  -->
<!DOCTYPE svg PUBLIC "-//W3C//DTD SVG 1.1//EN" "http://www.w3.org/Graphics/SVG/1.1/DTD/svg11.dtd">
<svg version="1.1" id="Layer_1" xmlns="http://www.w3.org/2000/svg" xmlns:xlink="http://www.w3.org/1999/xlink" x="0px" y="0px"
	 width="1908.801px" height="867.568px" viewBox="0 0 1908.801 867.568" enable-background="new 0 0 1908.801 867.568"
	 xml:space="preserve">
<path fill="none" stroke="#000000" stroke-linejoin="round" stroke-miterlimit="10" d="M665.879,572.506
	c-107.379,58.158-99.188,53.391-231.712,122.801c-10.224,4.677-23.424,6.15-31.017,1.629c-2.482-1.062-23.208-22.065-26.218-24.569
	c-8.417-7.002-14.825-13.556-23.654-21.498c-6.001-5.41-11.535-12.189-17.22-17.594c-7.019-6.669-14.142-16.953-20.941-24.304
	c-0.69-0.696-1.16-1.737-0.993-2.569c0.117-0.597,0.202-1.146,0.36-1.658c0.226-0.463,0.479-0.156,0.652-0.013
	c16.62,13.979,79.459,65.275,85.269,69.455c6.917,4.365,15.565,8.625,26.259,3.775c9.936-4.508,178.958-94.354,215.007-113.094
	c6.68-3.193,10.26-11.627,5.656-17.125c-4.076-5.586-75.114-76.508-94.051-95.062c-0.146-0.268,0.468-0.141,1.146-0.188
	c0.312-0.021,0.885-0.035,1.385-0.049c0.385-0.023,0.695,0.289,1.021,0.485c0.469,0.48,36.84,31.078,55.307,43.414
	c3.129,2.088,51.271,37.541,54.492,39.906c3.578,2.393,6.057,7.438,10.123,17.779C677.968,557.083,675.706,567.778,665.879,572.506z
	 M1047.043,360.505c-0.117,3.36-2.342,8.326-4.734,11.085c-2.789,3.885-121.357,69.691-144.222,82.312
	c-34.856,19.237-66.278,33.905-101.102,51.375c-12.021,6.026-15.072,9.612-25.11,11.61c-10.115,2.019-40.601-19.729-50.4-26
	c-11.555-7.396-17.812-11.817-24.044-16.479c-12.017-8.994-63.082-44.167-73.645-52.75c-0.56-0.462-0.888-0.891-1.194-1.661
	c-0.599-1.586-0.736-1.987-0.771-2.062c-0.02,0.018-0.101-0.179-0.746-1.842c-0.125-0.74,0.216-1.062,0.656-0.836
	c20.701,11.087,44.427,27.181,66.104,38.812c15.595,8.354,31.328,16.938,48.456,25.942c5.479,2.892,11.479,6.521,16.823,8.945
	c12.178,6.227,17.081,8.312,27.328,2.777c10.421-5.638,216.458-111.699,224.518-118.927c4.451-3.532,9.289-10.727,7.715-15.807
	c-1.184-5.65-20.166-18.919-26.055-23.474c-21.687-18.397-61.569-39.561-116.262-79.422c-0.987-0.664-1.393-1.118-1.374-1.159
	c0.011-0.767,4.705-1.514,5.981-0.796c11.972,6.695,21.995,12.973,34.385,18.645c12.921,5.914,27.447,13.266,41.557,21.084
	c22.021,12.201,46.088,21.854,69.354,38.449c3.648,2.604,18.996,11.914,22.609,16.438
	C1047.975,352.985,1047.411,355.912,1047.043,360.505z M60.225,573.159c-4.543-11.601-15.834-19.814-29.044-19.814
	C13.96,553.345,0,567.306,0,584.526c0,17.22,13.96,31.181,31.181,31.181c13.232,0,24.54-8.243,29.067-19.874
	c2.917-4.766,8.971-0.289,12.311,1.451c18.966,20.129,39.675,39.739,59.073,59.513c22.031,22.455,45.149,45.916,68.396,69.246
	c38.251,38.395,78.505,78.875,117.097,118.463c6.062,6.223,12.295,15.373,17.87,18.623c12.21,7.123,24.428,5.361,37.541-3.061
	c13.337-8.56,29.307-18.82,41.104-27.236c7.688-5.479,20.589-15.396,24.502-22.139c6.871-11.847,5.384-32.242,9.925-43.847
	c3.753-9.584,10.056-11.321,20.29-16.653c23.475-12.246,39.757-20.14,62.188-30.867c4.58-2.195,12.854-6.314,17.334-7.338
	c6.849-1.562,12.111-0.021,18.765,2.553c4.661,1.799,8.504,3.799,12.596,6.086c1.817,1.021,8.875,4.648,10.703,5.385
	c4.512,1.812,11.409-0.75,16.157-2.108c10.851-3.134,26.654-12.228,52.51-23.74c18.202-8.105,36.978-16.162,54.355-24.642
	c36.038-17.565,71.392-36.28,106.41-53.211c34.872-16.854,75.899-35.938,112.394-54.637c18.688-9.58,31.256-16.645,48.957-21.746
	c17.633-5.078,30.487-6.846,47.396-6.092c8.27,0.369,16.188,0.57,24.75,3.082c4.455,1.303,23.086,8.371,25.084,9.322
	c33.252,15.854,63.416,40.33,95.653,62.082c16.271,10.975,33.068,22.744,49.437,34.908c16.424,12.198,31.975,24.157,48.125,35.68
	c16.312,11.633,35.463,26.42,51.771,37.953c15.91,11.25,29.181,20.615,44.929,32.381c8.112,6.063,17.633,13.354,25.772,18.85
	c8.262,5.564,21.056,13.635,28.806,16.752c7.104,2.867,17.043,2.967,26.491-5.223c4.441-3.852,11.593-13.275,15.834-18.473
	c20.978-25.646,35.299-44.634,54.863-68.966c8.17-10.166,18.25-22.813,26.303-32.448c32.556-38.979,68.674-83.131,106.604-121.402
	c38.488-38.832,76.557-77.211,119.932-114.301c33.119-28.326,68.023-46.963,100.318-66.589c11.309-6.87,25.562-14.146,35.416-23.125
	c5.136-15.036-24.171-23.239-32.476-24.245c-10.975-1.328-20.057-2.461-30.363-3.375c-10.271-0.909-20.502-1.137-30.488-2.021
	c-30.775-2.729-60.764-4.601-91.521-5.391c-20.538-0.528-40.778-1.791-61.096-2.691c-20.459-0.912-101.848-3.7-122.312-4.03
	c-29.858-0.489-61.229-1.837-91.822-2.01c-9.945-0.06-23.211,0.675-30.734-3.067c-17.643-8.768-12.582-27.166-11.396-40.535
	l9.638-89.443l5.272-59.502l1.965-29.812c0.404-10.059,2.029-20.675-5.785-30.838c-4.812-6.249-8.771-5.726-15.746-6.848
	c-13.549-2.183-27.7-3.821-39.771-4.892c-53.842-4.773-107.784-11.262-159.769-15.872c-35.839-3.179-71.527-7.038-106.289-11.812
	c-16.972-2.326-35.308-2.483-53.228-3.016c-18.101-0.541-36.351-1.762-53.84-0.004c-8.874,0.895-18.048,3.178-27.028,5.1
	c-27.436,5.879-55.972,14.262-83.152,27.041c-37.158,17.461-74.426,44.185-113.724,72.034
	c-18.278,12.952-37.901,26.433-57.128,40.933c-19.169,14.459-38.289,29.289-57.676,43.271
	c-18.327,13.221-38.271,28.766-57.732,43.948c-9.709,7.579-19.128,15.661-28.896,22.312c-9.727,6.615-18.562,13.299-28.418,16.904
	c-8.218,3.006-16.936,0.835-24.59-3.203c-8.191-4.316-15.062-9.734-23.581-18.446c-34.61,27.916-70.351,53.556-105.651,80.924
	c-34.352,26.626-70.787,56.148-105.833,82.958c-17.188,13.146-35.295,26.418-52.702,40.984
	C175.149,495.17,123.631,528,77.186,570.338c-1.039,0.944-2.894,2.606-4.875,4.38c-4.404,1.568-8.875,3.172-12.087-1.562
	L60.225,573.159z"/>
</svg>
