<?xml version="1.0" encoding="utf-8"?>
<!-- Generator: Adobe Illustrator 16.0.0, SVG Export Plug-In . SVG Version: 6.00 Build 0)  -->
<!DOCTYPE svg PUBLIC "-//W3C//DTD SVG 1.1//EN" "http://www.w3.org/Graphics/SVG/1.1/DTD/svg11.dtd">
<svg version="1.1" id="Layer_1" xmlns="http://www.w3.org/2000/svg" xmlns:xlink="http://www.w3.org/1999/xlink" x="0px" y="0px"
	 width="1110.078px" height="574.113px" viewBox="0 0 1110.078 574.113" enable-background="new 0 0 1110.078 574.113"
	 xml:space="preserve">
<path d="M1105.686,263.461c2.055-8.768,4.918-19.168,4.309-27.539c-0.694-9.548-5.754-18.59-14.662-28.563
	c-4.094-4.585-10.327-10.896-14.452-15.24C1020.923,128.955,951.782,58.407,893.794,0c-38.604,36.547-81.591,74.184-117.736,97.498
	c-26.875,17.333-53.838,23.111-80.312,27.066c-9.414,1.405-18.153,1.623-27.602,1.824c-41.639,0.888-83.816-1.123-124.4-5.117
	c-14.245-1.404-28.468-2.725-42.394-4.224c-18.519-1.996-35.594-4.161-54.146-5.775c-36.877-3.211-75.729-6.48-112.688-9.573
	c-18.466-1.542-35.146-2.457-53.577-4.232c-18.521-1.782-37.241-2.938-55.756-4.787c-64.719-6.454-131.041-13.173-195.15-18.544
	c-9.365-0.78-19.726-0.196-29.073-0.229c-0.47,7.542-1.979,19.123,0.148,26.958c2.59,9.596,12.555,26.484,23.059,34.283
	c19.461,14.452,41.225,23.193,61.499,34.958c20.978,12.186,41.077,24.134,61.733,37.177c42.104,26.577,81.985,55.893,124.535,99.367
	c10.388,10.613,21.059,21.832,30.062,32.678c8.732,10.512,16.583,20.359,25.562,30.949c17.542,20.697,32.41,41.924,45.908,63.162
	c12.621,19.875,24.538,40.715,36.006,62.524c5.104,9.699,11.126,21.318,17.604,31.926c6.622,10.869,16.483,23.994,27.402,32.648
	c5.866,4.664,16.021,9.139,22.857,10.676c7.769,1.746,16.152,3.279,23.221,2.812c30.146-1.98,63.63-16.396,93.499-22.945
	c15.453-3.383,30.425-5.258,45.516-7.109c29.803-3.655,59.979-4.188,89.898-0.184c14.565,1.945,32.043,4.332,47.992,8.645
	c6.807,1.841,12.663,4.117,21.062,5.98c6.452,1.436,18.657,5.414,25.163,2.838c7.396-2.924,17.794-12.656,24.951-18.822
	c17.617-15.186,39.69-32.619,55.42-49.172c-19.402-27.395-44.5-57.766-67.767-84.797c-11.159-12.961-20.868-26.297-31.049-38.875
	c-12.987-16.017-27.006-20.33-41.323-20.59c-12.166-0.228-27.638,3.498-41.072,5.565c-13.438,2.066-26.75,3.765-39.312,6.107
	c-12.602,2.354-26.634,4.711-40.733,6.814c-5.922,0.887-12.97,2.031-19.654,3.146c-7.348,1.229-13.223,1.019-19.01-0.118
	c-6.131-1.205-10.474-3.438-15.724-8.916c-12.327-12.867-14.172-26.775-15.032-40.736c-0.927-15.09-0.562-28.107-0.966-41.733
	c-0.388-13.264-2.325-25.608-0.627-40.314c1.646-14.16,5.595-30.229,21.752-41.227c13.271-9.028,26.239-11.76,40.974-12.634
	c29.186-1.735,57.854-1.434,85.942-2.256c14.431-0.423,26.043,0.077,39.97-1.336c28.475-2.89,55.807-4.342,86.508-5.609
	c12.553-0.516,26.83-3.255,40.481,0.259c13.632,3.507,32.479,16.572,40.312,32.256c7.074,14.15,12.396,27.621,20.588,41.768
	c25.568,44.154,56.521,86.705,79.346,134.33c21.188-16.736,42.683-37.867,64.381-57.174c3.317-2.953,10.414-8.39,12.144-11.185
	c2.707-4.396,1.371-18.498,0.959-23.565c-0.592-7.296-2.521-12.417-1.676-19.583C1103.805,269.99,1105.007,266.383,1105.686,263.461
	z"/>
</svg>
