<?xml version="1.0" encoding="utf-8"?>
<!-- Generator: Adobe Illustrator 16.0.0, SVG Export Plug-In . SVG Version: 6.00 Build 0)  -->
<!DOCTYPE svg PUBLIC "-//W3C//DTD SVG 1.1//EN" "http://www.w3.org/Graphics/SVG/1.1/DTD/svg11.dtd">
<svg version="1.1" id="Layer_1" xmlns="http://www.w3.org/2000/svg" xmlns:xlink="http://www.w3.org/1999/xlink" x="0px" y="0px"
	 width="1162.758px" height="574.113px" viewBox="0 0 1162.758 574.113" enable-background="new 0 0 1162.758 574.113"
	 xml:space="preserve">
<path fill="none" stroke="#000000" stroke-linejoin="round" stroke-miterlimit="10" d="M59.69,64.898
	c1.717-3.866,2.671-8.146,2.672-12.648c0-17.221-13.96-31.181-31.181-31.181C13.96,21.069,0,35.029,0,52.25
	s13.96,31.181,31.181,31.181c4.485,0,8.75-0.947,12.603-2.652c5.673-0.982,7.264,4.546,8.904,8.735
	c-0.047,4.061,0.203,8.04,1.103,11.351c2.59,9.596,12.554,26.484,23.057,34.283c19.461,14.452,41.224,23.193,61.499,34.958
	c20.977,12.186,41.079,24.134,61.735,37.177c42.102,26.577,81.986,55.893,124.535,99.367c10.386,10.613,21.057,21.832,30.061,32.678
	c8.734,10.512,16.583,20.359,25.562,30.949c17.542,20.697,32.41,41.924,45.908,63.162c12.619,19.875,24.536,40.715,36.006,62.523
	c5.102,9.699,11.126,21.318,17.604,31.926c6.622,10.869,16.485,23.994,27.404,32.648c5.866,4.664,16.021,9.139,22.855,10.676
	c7.771,1.746,16.152,3.279,23.223,2.812c30.146-1.98,63.63-16.396,93.5-22.945c15.453-3.383,30.424-5.258,45.514-7.109
	c29.803-3.654,59.98-4.188,89.9-0.184c14.562,1.945,32.043,4.332,47.992,8.646c6.807,1.839,12.663,4.117,21.061,5.979
	c6.453,1.436,18.658,5.414,25.164,2.838c7.393-2.924,17.793-12.656,24.951-18.822c17.617-15.186,39.688-32.619,55.42-49.172
	c-19.404-27.395-44.5-57.766-67.77-84.797c-11.156-12.961-20.865-26.297-31.049-38.875c-12.984-16.018-27.006-20.33-41.321-20.59
	c-12.166-0.227-27.64,3.498-41.071,5.566c-13.439,2.066-26.75,3.764-39.312,6.107c-12.6,2.354-26.633,4.711-40.732,6.814
	c-5.924,0.887-12.971,2.03-19.654,3.146c-7.348,1.229-13.223,1.019-19.01-0.118c-6.131-1.205-10.475-3.438-15.725-8.916
	c-12.328-12.867-14.172-26.775-15.033-40.738c-0.926-15.088-0.561-28.104-0.965-41.73c-0.387-13.264-2.326-25.608-0.627-40.314
	c1.646-14.16,5.594-30.229,21.752-41.227c13.271-9.028,26.24-11.76,40.975-12.634c29.184-1.735,57.854-1.434,85.941-2.256
	c14.432-0.423,26.043,0.077,39.971-1.336c28.475-2.89,55.807-4.342,86.508-5.609c12.553-0.516,26.83-3.255,40.48,0.259
	c13.631,3.507,32.479,16.572,40.312,32.256c7.074,14.15,12.395,27.621,20.588,41.769c25.568,44.153,56.521,86.704,79.344,134.329
	c21.189-16.735,42.684-37.866,64.381-57.174c3.318-2.953,10.414-8.39,12.145-11.185c2.707-4.397,1.371-18.498,0.959-23.565
	c-0.593-7.295-2.521-12.417-1.677-19.583c0.337-2.868,1.536-6.474,2.218-9.396c2.053-8.768,4.918-19.168,4.307-27.539
	c-0.691-9.548-5.754-18.59-14.662-28.563c-4.094-4.585-10.324-10.896-14.449-15.24C1073.604,128.954,1004.461,58.406,946.473,0
	c-38.602,36.547-81.59,74.184-117.732,97.498c-26.875,17.333-53.838,23.111-80.312,27.066c-9.414,1.405-18.152,1.623-27.6,1.824
	c-41.639,0.888-83.818-1.123-124.402-5.117c-14.246-1.404-28.467-2.725-42.392-4.224c-18.521-1.996-35.595-4.161-54.146-5.775
	c-36.877-3.211-75.729-6.48-112.688-9.573c-18.466-1.542-35.146-2.457-53.577-4.232c-18.521-1.782-37.241-2.938-55.756-4.787
	c-64.718-6.454-131.041-13.173-195.15-18.544c-4.565-0.38-9.366-0.436-14.17-0.396c-2.528-0.568-5.009-0.66-6.962-2.576
	C59.892,69.503,59.167,67.235,59.69,64.898z"/>
</svg>
