<?xml version="1.0" encoding="utf-8"?>
<!-- Generator: Adobe Illustrator 16.0.0, SVG Export Plug-In . SVG Version: 6.00 Build 0)  -->
<!DOCTYPE svg PUBLIC "-//W3C//DTD SVG 1.1//EN" "http://www.w3.org/Graphics/SVG/1.1/DTD/svg11.dtd">
<svg version="1.1" id="Layer_1" xmlns="http://www.w3.org/2000/svg" xmlns:xlink="http://www.w3.org/1999/xlink" x="0px" y="0px"
	 width="1161.893px" height="575.129px" viewBox="0 0 1161.893 575.129" enable-background="new 0 0 1161.893 575.129"
	 xml:space="preserve">
<path fill="none" stroke="#000000" stroke-linejoin="round" stroke-miterlimit="10" d="M1155.387,272
	c0.332-2.866,1.521-6.479,2.193-9.402c2.025-8.775,4.857-19.181,4.221-27.552c-0.725-9.545-5.811-18.571-14.75-28.52
	c-4.109-4.569-10.361-10.863-14.5-15.192C1072.399,128.355,1003.04,58.022,944.881,0c-38.496,36.462-81.371,74.233-117.443,97.657
	c-26.818,17.417-53.766,23.278-80.229,27.315c-9.408,1.437-18.15,1.68-27.594,1.91c-41.639,1.018-83.822-0.863-124.418-4.731
	c-14.249-1.36-28.478-2.637-42.403-4.093c-18.521-1.938-35.604-4.05-54.165-5.607c-36.888-3.098-75.748-6.244-112.716-9.223
	c-18.472-1.485-35.154-2.349-53.59-4.067c-18.526-1.726-37.25-2.823-55.771-4.615C211.814,88.294,145.47,81.779,81.345,76.608
	c-9.37-0.752-19.726-0.136-29.076-0.14c-0.446,7.543-1.922,19.13,0.232,26.958c2.62,9.588,12.637,26.445,23.164,34.211
	c19.506,14.394,41.296,23.067,61.607,34.769c21.015,12.121,41.153,24.007,61.851,36.985c42.184,26.447,82.159,55.64,124.841,98.981
	c10.42,10.582,21.125,21.764,30.164,32.582c8.766,10.482,16.646,20.311,25.657,30.873c17.604,20.641,32.54,41.824,46.104,63.018
	c12.684,19.836,24.664,40.642,36.198,62.414c5.132,9.688,11.192,21.287,17.702,31.871c6.655,10.85,16.562,23.943,27.505,32.564
	c5.884,4.645,16.054,9.088,22.894,10.604c7.771,1.723,16.163,3.232,23.229,2.738c30.141-2.072,63.579-16.586,93.429-23.23
	c15.438-3.434,30.4-5.354,45.484-7.254c29.793-3.752,59.975-4.377,89.902-0.463c14.57,1.9,32.057,4.234,48.021,8.5
	c6.812,1.812,12.678,4.078,21.074,5.91c6.459,1.416,18.68,5.354,25.176,2.762c7.385-2.947,17.756-12.711,24.896-18.899
	c17.566-15.238,55.266-49.347,55.266-49.347l123.266-109.271c21.139-16.804,42.562-38,64.201-57.373
	c3.312-2.966,10.391-8.42,12.105-11.222c2.691-4.405,1.312-18.504,0.889-23.567C1156.508,284.284,1154.561,279.169,1155.387,272z"/>
</svg>
