<?xml version="1.0" encoding="utf-8"?>
<!-- Generator: Adobe Illustrator 16.0.0, SVG Export Plug-In . SVG Version: 6.00 Build 0)  -->
<!DOCTYPE svg PUBLIC "-//W3C//DTD SVG 1.1//EN" "http://www.w3.org/Graphics/SVG/1.1/DTD/svg11.dtd">
<svg version="1.1" id="Layer_1" xmlns="http://www.w3.org/2000/svg" xmlns:xlink="http://www.w3.org/1999/xlink" x="0px" y="0px"
	 width="3424.053px" height="1169.336px" viewBox="0 0 3424.053 1169.336" enable-background="new 0 0 3424.053 1169.336"
	 xml:space="preserve">
<path d="M3417.334,351.484c-8.293-11.317-18.424-24.512-26.256-35.281c-11.729-16.107-25.195-33.013-45.562-40.977
	c-21.854-8.551-46.957-13.887-71.067-20.123c-73.121-18.902-143.977-37.067-218.498-55.066
	c-97.92-23.648-195.608-48.378-294.703-71.116c-49.896-11.451-99.146-23.118-148.569-35.017
	c-12.472-3.006-25.263-5.979-37.763-8.604c-12.961-2.731-26.174-4.515-39.067-7.328c-25.021-5.456-49.688-11.667-74.648-16.765
	c-25.559-5.229-51.382-9.973-76.754-15.924c-25.018-5.869-79.772-14.996-83.088-15.514c-4.757-0.746-13.595,4.162-15.903,8.523
	c-3.277,6.162-13.99,119.089-13.99,119.089l-9.741,104.87c-1.644,14.094,2.261,17.317,5.379,19.131
	c6.45,3.733,26.138,4.612,35.175,4.559c0,0,67.719,0.865,102.555,2.304c46.953,1.935,138.938,4.782,138.938,4.782l141.72,8.212
	c95.8,7.312,189.558,13.812,288.17,25.321c48.812,5.695,98.013,10.682,148.33,16.553c47.886,5.588,98.687,9.996,147.827,18.006
	c22.729,3.71,46.45,6.588,73.198,9.71c11.395,1.329,21.634,2.866,34.727,4.394c11.907,1.381,29.722,4.908,36.519,2.753
	c1.693-0.538,9.088-5.344,9.673-8.86C3424.8,363.812,3420.968,356.438,3417.334,351.484z M2719.847,316.074
	c-10.976-1.328-20.058-2.461-30.365-3.375c-10.271-0.909-20.502-1.137-30.488-2.021c-30.776-2.729-60.764-4.601-91.522-5.391
	c-20.539-0.528-40.777-1.791-61.094-2.691c-20.459-0.912-101.847-3.7-122.312-4.03c-29.858-0.489-61.229-1.837-91.822-2.01
	c-9.946-0.06-23.211,0.675-30.735-3.067c-17.642-8.768-12.582-27.166-11.396-40.535l9.641-89.443l5.271-59.502l1.965-29.812
	c0.406-10.059,2.031-20.675-5.781-30.838c-4.812-6.249-8.771-5.726-15.746-6.848c-13.553-2.183-27.7-3.821-39.771-4.892
	c-53.842-4.773-107.785-11.262-159.769-15.872c-35.838-3.179-71.528-7.038-106.289-11.812c-16.971-2.326-35.307-2.483-53.229-3.016
	c-18.1-0.541-36.35-1.762-53.838-0.004c-8.873,0.895-18.049,3.178-27.025,5.1c-27.438,5.879-55.975,14.262-83.154,27.041
	c-37.161,17.461-74.425,44.185-113.723,72.034c-18.277,12.952-37.902,26.433-57.129,40.933
	c-19.17,14.459-38.289,29.289-57.676,43.271c-18.328,13.221-38.271,28.766-57.731,43.948c-9.709,7.579-19.128,15.661-28.896,22.312
	c-9.726,6.615-18.562,13.299-28.418,16.904c-8.217,3.006-16.935,0.835-24.59-3.203c-8.19-4.316-15.062-9.734-23.581-18.446
	c-34.609,27.916-70.35,53.556-105.652,80.924c-34.351,26.626-70.787,56.148-105.832,82.956
	c-17.188,13.148-35.295,26.417-52.701,40.985c-47.185,39.496-98.698,72.327-145.146,114.664c-2.541,2.312-9.978,8.921-12.167,10.944
	c-2.601,2.121-3.521,4.169-1.729,5.956c21.34,23.686,45.729,46.512,68.342,69.561c22.029,22.455,45.146,45.916,68.396,69.246
	c38.252,38.396,78.507,78.875,117.1,118.463c6.062,6.225,12.296,15.373,17.87,18.623c12.209,7.123,24.429,5.361,37.541-3.061
	c13.337-8.56,29.306-18.82,41.104-27.236c7.688-5.479,20.588-15.396,24.502-22.139c6.871-11.845,5.381-32.242,9.922-43.845
	c3.753-9.584,10.059-11.323,20.29-16.655c23.478-12.246,39.758-20.14,62.188-30.867c4.578-2.195,12.854-6.314,17.334-7.338
	c6.847-1.562,12.108-0.021,18.763,2.553c4.661,1.799,8.502,3.799,12.595,6.086c1.818,1.021,8.875,4.648,10.702,5.385
	c4.513,1.812,11.412-0.75,16.16-2.108c10.849-3.132,26.655-12.228,52.507-23.74c18.204-8.105,36.979-16.162,54.359-24.639
	c36.037-17.568,71.388-36.283,106.408-53.212c34.871-16.854,75.901-35.94,112.396-54.636c18.688-9.58,31.254-16.646,48.957-21.747
	c17.631-5.08,30.483-6.846,47.394-6.091c8.269,0.369,16.19,0.57,24.75,3.081c4.455,1.305,23.086,8.372,25.084,9.323
	c33.252,15.854,63.416,40.331,95.653,62.083c16.271,10.975,33.069,22.744,49.437,34.908c16.425,12.2,31.974,24.159,48.125,35.68
	c16.31,11.633,35.463,26.42,51.771,37.953c15.91,11.25,29.18,20.615,44.928,32.381c8.113,6.066,17.634,13.357,25.773,18.85
	c8.26,5.564,21.053,13.633,28.803,16.754c7.106,2.865,17.043,2.964,26.494-5.225c4.442-3.852,11.59-13.273,15.834-18.473
	c20.977-25.646,35.297-44.631,54.862-68.963c8.17-10.166,18.25-22.816,26.304-32.451c32.553-38.98,68.672-83.13,106.604-121.403
	c38.486-38.832,76.556-77.212,119.931-114.304c33.121-28.326,68.022-46.963,100.319-66.589c11.308-6.87,25.562-14.146,35.416-23.125
	C2757.457,325.283,2728.148,317.08,2719.847,316.074z M1509.993,572.505c-107.379,58.158-99.188,53.392-231.712,122.799
	c-10.226,4.679-23.424,6.15-31.02,1.629c-2.479-1.062-23.207-22.063-26.216-24.567c-8.417-7.002-14.827-13.558-23.654-21.498
	c-6-5.41-11.534-12.189-17.22-17.594c-7.02-6.672-14.143-16.953-20.94-24.306c-0.689-0.694-1.16-1.735-0.993-2.567
	c0.116-0.599,0.202-1.146,0.357-1.658c0.229-0.463,0.48-0.156,0.654-0.016c16.619,13.979,79.459,65.276,85.269,69.457
	c6.918,4.364,15.565,8.625,26.26,3.774c9.935-4.508,178.958-94.354,215.007-113.092c6.679-3.193,10.259-11.627,5.656-17.125
	c-4.076-5.586-75.113-76.508-94.053-95.062c-0.146-0.268,0.47-0.141,1.146-0.188c0.308-0.022,0.883-0.036,1.383-0.049
	c0.384-0.023,0.697,0.289,1.021,0.484c0.47,0.481,36.84,31.079,55.306,43.415c3.129,2.088,51.271,37.541,54.494,39.906
	c3.577,2.396,6.055,7.438,10.123,17.779C1522.08,557.083,1519.821,567.779,1509.993,572.505z M1891.157,360.504
	c-0.119,3.36-2.342,8.326-4.735,11.085c-2.788,3.885-121.355,69.691-144.222,82.312c-34.86,19.237-66.281,33.905-101.101,51.374
	c-12.021,6.027-15.072,9.612-25.11,11.61c-10.115,2.02-40.601-19.728-50.4-25.999c-11.554-7.396-17.812-11.818-24.045-16.479
	c-12.016-8.994-63.082-44.168-73.644-52.749c-0.557-0.462-0.887-0.888-1.194-1.661c-0.599-1.586-0.734-1.987-0.771-2.062
	c-0.017,0.016-0.099-0.179-0.746-1.842c-0.125-0.738,0.216-1.064,0.656-0.836c20.704,11.087,44.427,27.187,66.104,38.812
	c15.595,8.355,31.327,16.938,48.455,25.943c5.479,2.891,11.48,6.521,16.823,8.946c12.179,6.229,17.081,8.314,27.328,2.777
	c10.421-5.641,216.459-111.7,224.52-118.929c4.449-3.532,9.288-10.727,7.713-15.807c-1.184-5.65-20.166-18.919-26.054-23.474
	c-21.687-18.397-61.571-39.562-116.263-79.422c-0.987-0.664-1.393-1.118-1.375-1.159c0.013-0.767,4.705-1.514,5.982-0.796
	c11.973,6.695,21.998,12.973,34.387,18.645c12.92,5.914,27.444,13.266,41.556,21.084c22.02,12.201,46.089,21.854,69.354,38.449
	c3.646,2.604,18.994,11.914,22.607,16.438C1892.089,352.984,1891.527,355.912,1891.157,360.504z M1104.026,866.212
	c0.332-2.865,1.521-6.479,2.191-9.402c2.022-8.772,4.854-19.18,4.223-27.551c-0.729-9.545-5.812-18.572-14.752-28.52
	c-4.107-4.57-10.359-10.863-14.5-15.193c-60.15-62.979-129.512-133.311-187.669-191.334c-38.497,36.463-81.37,74.234-117.443,97.658
	c-26.818,17.416-53.767,23.276-80.229,27.313c-9.405,1.438-18.147,1.681-27.595,1.904c-41.638,1.021-83.821-0.856-124.419-4.729
	c-14.249-1.361-28.478-2.64-42.401-4.095c-18.521-1.938-35.604-4.053-54.165-5.606c-36.89-3.099-75.748-6.244-112.715-9.224
	c-18.474-1.483-35.154-2.352-53.592-4.065c-18.524-1.728-37.248-2.824-55.771-4.615c-64.736-6.252-131.081-12.768-195.206-17.938
	c-9.369-0.752-19.726-0.14-29.075-0.146c-0.444,7.545-1.922,19.135,0.231,26.959c2.62,9.592,12.638,26.445,23.164,34.213
	C43.81,746.24,65.6,754.91,85.909,766.615c21.017,12.121,41.152,24.006,61.853,36.983c42.184,26.443,82.159,55.642,124.841,98.979
	c10.42,10.58,21.125,21.764,30.164,32.582c8.766,10.484,16.646,20.309,25.657,30.871c17.604,20.641,32.538,41.824,46.104,63.021
	c12.683,19.834,24.663,40.642,36.199,62.414c5.13,9.688,11.189,21.283,17.701,31.869c6.652,10.854,16.562,23.943,27.506,32.564
	c5.882,4.645,16.053,9.088,22.893,10.604c7.771,1.726,16.163,3.23,23.229,2.738c30.141-2.074,63.578-16.588,93.43-23.23
	c15.439-3.434,30.402-5.354,45.486-7.256c29.793-3.752,59.973-4.375,89.899-0.463c14.572,1.902,32.06,4.236,48.021,8.502
	c6.811,1.812,12.678,4.078,21.076,5.91c6.458,1.416,18.677,5.354,25.174,2.762c7.384-2.942,17.755-12.713,24.896-18.897
	c17.566-15.24,55.267-49.346,55.267-49.346l123.266-109.271c21.14-16.805,42.562-38,64.201-57.373
	c3.312-2.965,10.39-8.42,12.105-11.223c2.691-4.404,1.312-18.502,0.889-23.566C1105.147,878.5,1103.198,873.382,1104.026,866.212z"
	/>
</svg>
