<?xml version="1.0" encoding="utf-8"?>
<!-- Generator: Adobe Illustrator 16.0.0, SVG Export Plug-In . SVG Version: 6.00 Build 0)  -->
<!DOCTYPE svg PUBLIC "-//W3C//DTD SVG 1.1//EN" "http://www.w3.org/Graphics/SVG/1.1/DTD/svg11.dtd">
<svg version="1.1" id="Layer_1" xmlns="http://www.w3.org/2000/svg" xmlns:xlink="http://www.w3.org/1999/xlink" x="0px" y="0px"
	 width="461.771px" height="674.902px" viewBox="0 0 461.771 674.902" enable-background="new 0 0 461.771 674.902"
	 xml:space="preserve">
<path fill="none" stroke="#000000" stroke-linejoin="round" stroke-miterlimit="10" d="M338.56,228.17
	c7.219-6.226,14.615-12.245,21.977-18.299c11.206-9.218,24.563-17.835,34.761-28.031l57.086-41.669
	c2.159-1.576,4.083-3.417,6.028-5.264c5.658-5.377,3.188-13.816-0.229-19.995c-2.681-4.849-7.896-5.752-13.315-7.393
	c-11.656-3.529-83.719-25.357-127.103-32.456c-77.356-12.66-101.305-16.892-168.939-20.313c-21.903-1.109-59.654-1.385-89.489-1.603
	c-9.504-0.07-14.802,8.941-16.311,17.477c-0.409,2.317,5.312,14.191,8.602,21.016l19.695,38.191
	c14.861,28.817,36.059,69.924,46.509,85.416c16.651,24.685,30.537,51.12,47.045,75.896c26.484,39.75,52.04,80.115,79.005,119.541
	l56.927,83.23c26.064,38.533,56.722,73.688,83.995,111.344c5.541,7.65,16.966,22.555,34.459,44.6
	c3.78,4.775,7.679,9.482,11.326,14.361c1.525,2.039,3.354,3.785,5.244,5.48c1.717,1.541,3.292,3.387,5.276,4.594
	c0.923,0.561,10.772,0.887,11.007,0.287c1.287-3.316,1.915-6.723,1.848-10.277c-0.164-5.297-15.547-46.102-46.051-122.396
	c-2.658-6.771-5.375-13.498-7.975-20.309c-12.835-33.646-26.77-66.881-38.874-100.803c-3.28-9.192-8.791-23.035-16.215-41.297
	c-6.96-17.121-14.231-34.11-21.312-51.182c-4.274-10.304-8.546-20.611-12.648-30.985c-3.903-9.876-8.285-19.666-5.188-30.395
	c2.971-10.292,11.075-18.593,18.591-25.829C328.917,236.655,333.696,232.366,338.56,228.17z"/>
</svg>
