<?xml version="1.0" encoding="utf-8"?>
<!-- Generator: Adobe Illustrator 16.0.0, SVG Export Plug-In . SVG Version: 6.00 Build 0)  -->
<!DOCTYPE svg PUBLIC "-//W3C//DTD SVG 1.1//EN" "http://www.w3.org/Graphics/SVG/1.1/DTD/svg11.dtd">
<svg version="1.1" id="Layer_1" xmlns="http://www.w3.org/2000/svg" xmlns:xlink="http://www.w3.org/1999/xlink" x="0px" y="0px"
	 width="1271.289px" height="565.268px" viewBox="0 0 1271.289 565.268" enable-background="new 0 0 1271.289 565.268"
	 xml:space="preserve">
<path fill="none" stroke="#000000" stroke-linejoin="round" stroke-miterlimit="10" d="M1215.179,472.085
	c-4.646,3.038-7.896-0.271-11.345-3.203c-5.015-6.905-12.543-13.564-16.918-17.037c-59.562-43.719-167.527-138.768-250.068-217.979
	C867.994,167.791,840.1,124.708,806.016,35.741C784.218-21.145,694.417,3.035,609.618,19.173
	c-111.959,21.3-450.245,116.59-577.139,208.176c-60.707,43.817-33.115,65.757,56.153,169.576
	c28.594,33.258,71.949,50.699,116.883,62.894c106.708,28.959,216.649,51.812,322.625,83.192
	c47.159,13.961,81.85,21.674,130.979,22.246c42.014,0.492,99.293-15.771,144.104-20.155c21.555-2.104,44.498-23.351,65.943-26.341
	c42.285-5.896,80.75-16.321,122.537-17.246c20.4-0.45,45.211,16.521,65.836,13.468c48.895-7.236,89.461-15.896,138.229-23.927
	c0.822-0.136,1.601-0.288,2.336-0.455c4.004-0.001,8.699-1.021,10.969,3.259l-0.002,0.001c1.529,15.794,14.841,28.141,31.036,28.141
	c17.221,0,31.181-13.96,31.181-31.181c0-17.222-13.96-31.183-31.181-31.183c-10.19,0-19.239,4.888-24.93,12.446L1215.179,472.085z"
	/>
</svg>
