<?xml version="1.0" encoding="utf-8"?>
<!-- Generator: Adobe Illustrator 16.0.0, SVG Export Plug-In . SVG Version: 6.00 Build 0)  -->
<!DOCTYPE svg PUBLIC "-//W3C//DTD SVG 1.1//EN" "http://www.w3.org/Graphics/SVG/1.1/DTD/svg11.dtd">
<svg version="1.1" id="Layer_1" xmlns="http://www.w3.org/2000/svg" xmlns:xlink="http://www.w3.org/1999/xlink" x="0px" y="0px"
	 width="1271.289px" height="565.268px" viewBox="0 0 1271.289 565.268" enable-background="new 0 0 1271.289 565.268"
	 xml:space="preserve">
<path fill="none" stroke="#000000" stroke-linejoin="round" stroke-miterlimit="10" d="M1186.916,451.845
	c-59.562-43.719-167.527-138.768-250.068-217.979C867.994,167.791,840.1,124.708,806.016,35.741
	C784.218-21.145,694.417,3.035,609.618,19.173c-111.959,21.3-450.245,116.59-577.139,208.176
	c-60.707,43.817-33.115,65.757,56.153,169.576c28.594,33.258,71.949,50.699,116.883,62.893
	c106.708,28.959,216.649,51.812,322.625,83.193c47.159,13.961,81.849,21.674,130.979,22.246
	c42.014,0.492,99.293-15.771,144.104-20.155c21.554-2.104,44.498-23.351,65.943-26.341c42.285-5.896,80.75-16.321,122.537-17.246
	c20.4-0.45,45.211,16.521,65.836,13.468c48.895-7.237,89.461-15.896,138.229-23.927
	C1225.339,486.186,1197.281,460.069,1186.916,451.845z"/>
</svg>
