<?xml version="1.0" encoding="utf-8"?>
<!-- Generator: Adobe Illustrator 16.0.0, SVG Export Plug-In . SVG Version: 6.00 Build 0)  -->
<!DOCTYPE svg PUBLIC "-//W3C//DTD SVG 1.1//EN" "http://www.w3.org/Graphics/SVG/1.1/DTD/svg11.dtd">
<svg version="1.1" id="Layer_1" xmlns="http://www.w3.org/2000/svg" xmlns:xlink="http://www.w3.org/1999/xlink" x="0px" y="0px"
	 width="1552.844px" height="1225.287px" viewBox="0 0 1552.844 1225.287" enable-background="new 0 0 1552.844 1225.287"
	 xml:space="preserve">
<path fill="none" stroke="#000000" stroke-linejoin="round" stroke-miterlimit="10" d="M1198.126,476.117l-36.929-16.084
	c-5.512,16.261-15.844,31.476-28.533,43.628c-20.292,16.831-47.93,8.723-71.875,7.831c-84.725-1.866-197.461,64.452-246.281,131.621
	c-33.596,53.795-45.12,118.106-45.285,181.131"/>
<path fill="none" stroke="#000000" stroke-linejoin="round" stroke-miterlimit="10" d="M453.188,287.411
	c52.343,13.082,105.052,24.579,157.065,36.356c161.85,36.65,325.078,68.81,490.294,85.771c21.29,1.928,51.799,1.534,60.521,26.34
	c1.512,5.834,1.342,10.979,0.021,16.842c12.211,5.524,25.402,8.332,37.608,13.854"/>
<path fill="none" stroke="#000000" stroke-linejoin="round" stroke-miterlimit="10" d="M118.66,746.07
	c-14.284,18.271-15.394,32.797,18.604,36.136"/>
<path fill="none" stroke="#000001" stroke-linejoin="round" stroke-miterlimit="10" d="M456.641,565.543
	c23.784-12.446,49.33-24.493,72.835-35.693c23.274-11.086,12.389-7.102,23.504,7.492c14.452,18.975,49.115,22.846,82.625,7.812
	c37.625-16.883,59.92-51.365,49.631-76.771c-7.331-18.092-3.502-11.19,13.063-24.91c12.904-10.682,18.78-20.215,17.443-28.955
	c10.61-4.308,55.065-22.113,80.397-33.073c17.357-7.509,16.057-9.05,34.327-5.331c60.547,12.319,120.953,21.726,181.313,25.556
	c14.817,0.938,5.373,5.368-0.799,6.086c-118.32,13.815-198.968,56.196-261.411,116.023
	c-56.388,54.022-90.792,132.336-126.634,216.639c-7.123,16.752-12.785,27.682-19.292,34.804"/>
</svg>
