<?xml version="1.0" encoding="utf-8"?>
<!-- Generator: Adobe Illustrator 16.0.0, SVG Export Plug-In . SVG Version: 6.00 Build 0)  -->
<!DOCTYPE svg PUBLIC "-//W3C//DTD SVG 1.1//EN" "http://www.w3.org/Graphics/SVG/1.1/DTD/svg11.dtd">
<svg version="1.1" id="Layer_1" xmlns="http://www.w3.org/2000/svg" xmlns:xlink="http://www.w3.org/1999/xlink" x="0px" y="0px"
	 width="1552.844px" height="1225.287px" viewBox="0 0 1552.844 1225.287" enable-background="new 0 0 1552.844 1225.287"
	 xml:space="preserve">
<path fill="none" stroke="#000000" stroke-linejoin="round" stroke-miterlimit="10" d="M1132.664,503.661
	c-20.292,16.831-47.93,8.723-71.875,7.831c-84.725-1.866-197.461,64.452-246.281,131.621
	c-33.596,53.795-45.12,118.106-45.285,181.131c0.463,15.195,6.943,27.477,13.663,40.813
	c44.645,87.812,88.968,175.787,133.432,263.693c13.825,21.771,27.881,43.381,42.209,64.84
	c11.026,15.928,28.604,23.283,47.385,25.387c34.844,3.099,69.804,4.773,104.758,6.058c15.267,0.562,24.204,1.85,24.288-17.652
	l0.096-42.121c2.494-206.479,23.854-411.906,33.678-618.045c5.034-25.543,17.207-48.369,29.396-71.1l-36.929-16.084
	C1155.686,476.294,1145.354,491.509,1132.664,503.661z M1546.885,96.47c-9.909-14.396-24.578-19.957-41.517-21.498
	c-314.133-19.023-628.704-19.264-943.275-21.955c-29.141-2.434-59.805,0.606-86.551-13.271c-15-8.783-26.378-20.248-35.467-34.904
	c-3.485-5.641-3.49-5.324-10.215-4.119C297.791,25.411,164.207,36.782,31.607,58.072c-41.11,6.862-41.41,24.854-5.019,47.964
	c60.893,36.953,123.452,71.331,188.05,101.352c124.531,57.875,262.358,86.205,395.616,116.379
	c161.85,36.65,325.078,68.809,490.294,85.771c21.29,1.928,51.799,1.534,60.521,26.34c1.512,5.834,1.342,10.979,0.021,16.842
	c12.211,5.524,25.402,8.332,37.608,13.854c10.966-29.897,29.052-54.354,51.578-76.517
	c73.846-71.058,161.982-125.164,238.711-192.918c18.769-17.011,36.612-34.625,53.677-53.354
	C1554.409,129.673,1556.229,112.399,1546.885,96.47z M198.239,154.257c-24.538,5.123-48.727-10.713-53.847-35.248
	c-5.121-24.535,10.714-48.725,35.249-53.845c24.533-5.118,48.723,10.716,53.844,35.249
	C238.607,124.948,222.774,149.136,198.239,154.257z M1011.781,401.669c-60.36-3.83-120.767-13.236-181.313-25.556
	c-18.271-3.718-16.97-2.177-34.327,5.331c-25.332,10.96-69.787,28.766-80.397,33.074c1.337,8.74-4.539,18.273-17.443,28.955
	c-16.565,13.72-20.395,6.818-13.063,24.91c10.289,25.406-12.006,59.889-49.631,76.771c-33.51,15.033-68.173,11.162-82.625-7.812
	c-11.115-14.594-0.229-18.578-23.504-7.492c-27.984,13.334-58.86,27.869-86.211,42.848c-32.388,17.74-61.963,40.103-99.852,35.732
	c-52.264-6.022-77.023,6.793-120.134,39.614l-67.058,60.568c-40.013,36.143-82.503,75.481,1.418,74.291
	c125.302-1.779,249.415,5.334,374.681,5.452c60.684,0.062,68.796,3.382,90.616-47.938c35.842-84.303,70.246-162.616,126.634-216.639
	c62.443-59.827,143.091-102.208,261.411-116.023C1017.154,407.037,1026.599,402.606,1011.781,401.669z M241.6,765.564
	c-19.517,3.17-38.026-10.168-41.194-29.688c-3.17-19.521,10.164-38.025,29.686-41.195c19.519-3.168,38.025,10.168,41.196,29.687
	C274.458,743.89,261.121,762.396,241.6,765.564z"/>
</svg>
