<?xml version="1.0" encoding="utf-8"?>
<!-- Generator: Adobe Illustrator 16.0.0, SVG Export Plug-In . SVG Version: 6.00 Build 0)  -->
<!DOCTYPE svg PUBLIC "-//W3C//DTD SVG 1.1//EN" "http://www.w3.org/Graphics/SVG/1.1/DTD/svg11.dtd">
<svg version="1.1" id="Layer_1" xmlns="http://www.w3.org/2000/svg" xmlns:xlink="http://www.w3.org/1999/xlink" x="0px" y="0px"
	 width="1212.59px" height="560.989px" viewBox="0 0 1212.59 560.989" enable-background="new 0 0 1212.59 560.989"
	 xml:space="preserve">
<path d="M1178.686,188.216C1048.709,94.33,704.502,23.923,590.407,9.445c-85.638-10.86-174.685-24.24-188.453,35.102
	c-5.081,21.906-32.3,67.671-44.257,90.585C331.334,185.664,37.068,455.579,7.79,477.329c-18.822,13.979,0.646,36.887,14.456,38.375
	c49.146,5.301,102.829,7.891,152.057,12.391c75.087,6.863,178.229,17.32,252.579,20.416c44.987,1.881,103.087,14.912,145.008,12.076
	c49.029-3.311,83.228-12.951,129.535-29.525c104.061-37.238,212.555-66.211,317.479-101.068
	c44.183-14.689,86.494-34.521,113.188-69.32C1215.418,252.022,1239.375,232.058,1178.686,188.216z M41.888,506.833
	c-3.721,0-6.732-3.016-6.732-6.732c0-3.719,3.017-6.729,6.732-6.729s6.73,3.014,6.73,6.729
	C48.619,503.817,45.606,506.833,41.888,506.833z M98.458,506.833c-3.72,0-6.73-3.016-6.73-6.732c0-3.719,3.015-6.729,6.73-6.729
	c3.72,0,6.731,3.014,6.731,6.729C105.19,503.817,102.177,506.833,98.458,506.833z M98.458,454.833c-3.72,0-6.73-3.016-6.73-6.732
	c0-3.719,3.015-6.729,6.73-6.729c3.72,0,6.731,3.014,6.731,6.729C105.19,451.817,102.177,454.833,98.458,454.833z M155.028,506.833
	c-3.719,0-6.729-3.016-6.729-6.732c0-3.719,3.014-6.729,6.729-6.729c3.717,0,6.732,3.014,6.732,6.729
	C161.76,503.817,158.747,506.833,155.028,506.833z M155.028,454.833c-3.719,0-6.729-3.016-6.729-6.732
	c0-3.719,3.014-6.729,6.729-6.729c3.717,0,6.732,3.014,6.732,6.729C161.76,451.817,158.747,454.833,155.028,454.833z
	 M155.028,402.833c-3.719,0-6.729-3.017-6.729-6.73c0-3.721,3.014-6.729,6.729-6.729c3.717,0,6.732,3.014,6.732,6.729
	S158.747,402.833,155.028,402.833z M211.598,506.833c-3.719,0-6.731-3.016-6.731-6.732c0-3.719,3.016-6.729,6.731-6.729
	s6.73,3.014,6.73,6.729C218.331,503.817,215.317,506.833,211.598,506.833z M211.598,454.833c-3.719,0-6.731-3.016-6.731-6.732
	c0-3.719,3.016-6.729,6.731-6.729s6.73,3.014,6.73,6.729C218.331,451.817,215.317,454.833,211.598,454.833z M211.598,402.833
	c-3.719,0-6.731-3.017-6.731-6.73c0-3.721,3.016-6.729,6.731-6.729s6.73,3.014,6.73,6.729
	C218.331,399.817,215.317,402.833,211.598,402.833z M211.598,350.833c-3.719,0-6.731-3.017-6.731-6.73
	c0-3.721,3.016-6.729,6.731-6.729s6.73,3.014,6.73,6.729C218.331,347.816,215.317,350.833,211.598,350.833z M268.168,506.833
	c-3.719,0-6.73-3.016-6.73-6.732c0-3.719,3.015-6.729,6.73-6.729s6.731,3.014,6.731,6.729
	C274.901,503.817,271.888,506.833,268.168,506.833z M268.168,454.833c-3.719,0-6.73-3.016-6.73-6.732
	c0-3.719,3.015-6.729,6.73-6.729s6.731,3.014,6.731,6.729C274.901,451.817,271.888,454.833,268.168,454.833z M268.168,402.833
	c-3.719,0-6.73-3.017-6.73-6.73c0-3.721,3.015-6.729,6.73-6.729s6.731,3.014,6.731,6.729
	C274.901,399.817,271.888,402.833,268.168,402.833z M268.168,350.833c-3.719,0-6.73-3.017-6.73-6.73c0-3.721,3.015-6.729,6.73-6.729
	s6.731,3.014,6.731,6.729C274.901,347.816,271.888,350.833,268.168,350.833z M268.168,298.833c-3.719,0-6.73-3.017-6.73-6.73
	c0-3.721,3.015-6.729,6.73-6.729s6.731,3.014,6.731,6.729C274.901,295.816,271.888,298.833,268.168,298.833z M324.74,506.833
	c-3.721,0-6.731-3.016-6.731-6.732c0-3.719,3.018-6.729,6.731-6.729s6.729,3.014,6.729,6.729
	C331.469,503.817,328.457,506.833,324.74,506.833z M324.74,454.833c-3.721,0-6.731-3.016-6.731-6.732
	c0-3.719,3.018-6.729,6.731-6.729s6.729,3.014,6.729,6.729C331.469,451.817,328.457,454.833,324.74,454.833z M324.74,402.833
	c-3.721,0-6.731-3.017-6.731-6.73c0-3.721,3.018-6.729,6.731-6.729s6.729,3.014,6.729,6.729S328.457,402.833,324.74,402.833z
	 M324.74,350.833c-3.721,0-6.731-3.017-6.731-6.73c0-3.721,3.018-6.729,6.731-6.729s6.729,3.014,6.729,6.729
	C331.469,347.816,328.457,350.833,324.74,350.833z M324.74,298.833c-3.721,0-6.731-3.017-6.731-6.73
	c0-3.721,3.018-6.729,6.731-6.729s6.729,3.014,6.729,6.729C331.469,295.816,328.457,298.833,324.74,298.833z M324.74,246.832
	c-3.721,0-6.731-3.014-6.731-6.732c0-3.718,3.018-6.732,6.731-6.732s6.729,3.014,6.729,6.732
	C331.469,243.818,328.457,246.832,324.74,246.832z M381.309,506.833c-3.721,0-6.73-3.016-6.73-6.732c0-3.719,3.015-6.729,6.73-6.729
	c3.72,0,6.729,3.014,6.729,6.729C388.041,503.817,385.029,506.833,381.309,506.833z M381.309,454.833
	c-3.721,0-6.73-3.016-6.73-6.732c0-3.719,3.015-6.729,6.73-6.729c3.72,0,6.729,3.014,6.729,6.729
	C388.041,451.817,385.029,454.833,381.309,454.833z M381.309,402.833c-3.721,0-6.73-3.017-6.73-6.73c0-3.721,3.015-6.729,6.73-6.729
	c3.72,0,6.729,3.014,6.729,6.729C388.041,399.817,385.029,402.833,381.309,402.833z M381.309,350.833c-3.721,0-6.73-3.017-6.73-6.73
	c0-3.721,3.015-6.729,6.73-6.729c3.72,0,6.729,3.014,6.729,6.729C388.041,347.816,385.029,350.833,381.309,350.833z
	 M381.309,298.833c-3.721,0-6.73-3.017-6.73-6.73c0-3.721,3.015-6.729,6.73-6.729c3.72,0,6.729,3.014,6.729,6.729
	C388.041,295.816,385.029,298.833,381.309,298.833z M381.309,246.832c-3.721,0-6.73-3.014-6.73-6.732
	c0-3.718,3.015-6.732,6.73-6.732c3.72,0,6.729,3.014,6.729,6.732C388.04,243.818,385.029,246.832,381.309,246.832z M381.309,194.832
	c-3.721,0-6.73-3.014-6.73-6.732c0-3.718,3.015-6.731,6.73-6.731c3.72,0,6.729,3.014,6.729,6.731
	C388.04,191.818,385.029,194.832,381.309,194.832z M381.309,142.833c-3.721,0-6.73-3.015-6.73-6.732c0-3.717,3.015-6.731,6.73-6.731
	c3.72,0,6.729,3.014,6.729,6.731C388.04,139.818,385.029,142.833,381.309,142.833z M437.878,506.833
	c-3.72,0-6.729-3.016-6.729-6.732c0-3.719,3.014-6.729,6.729-6.729c3.715,0,6.731,3.014,6.731,6.729
	C444.613,503.817,441.598,506.833,437.878,506.833z M437.878,454.833c-3.72,0-6.729-3.016-6.729-6.732
	c0-3.719,3.014-6.729,6.729-6.729c3.715,0,6.731,3.014,6.731,6.729C444.613,451.817,441.598,454.833,437.878,454.833z
	 M437.878,402.833c-3.72,0-6.729-3.017-6.729-6.73c0-3.721,3.014-6.729,6.729-6.729c3.715,0,6.731,3.014,6.731,6.729
	C444.613,399.817,441.598,402.833,437.878,402.833z M437.878,350.833c-3.72,0-6.729-3.017-6.729-6.73
	c0-3.721,3.014-6.729,6.729-6.729c3.715,0,6.731,3.014,6.731,6.729C444.613,347.816,441.598,350.833,437.878,350.833z
	 M437.878,298.833c-3.72,0-6.729-3.017-6.729-6.73c0-3.721,3.014-6.729,6.729-6.729c3.715,0,6.731,3.014,6.731,6.729
	C444.613,295.816,441.598,298.833,437.878,298.833z M437.878,246.832c-3.72,0-6.729-3.014-6.729-6.732
	c0-3.718,3.014-6.732,6.729-6.732c3.715,0,6.731,3.014,6.731,6.732C444.612,243.818,441.598,246.832,437.878,246.832z
	 M437.878,194.832c-3.72,0-6.729-3.014-6.729-6.732c0-3.718,3.014-6.731,6.729-6.731c3.715,0,6.731,3.014,6.731,6.731
	C444.612,191.818,441.598,194.832,437.878,194.832z M437.878,142.833c-3.72,0-6.729-3.015-6.729-6.732
	c0-3.717,3.014-6.731,6.729-6.731c3.715,0,6.731,3.014,6.731,6.731C444.612,139.818,441.598,142.833,437.878,142.833z
	 M437.878,90.833c-3.72,0-6.729-3.015-6.729-6.732c0-3.717,3.014-6.731,6.729-6.731c3.715,0,6.731,3.014,6.731,6.731
	C444.612,87.818,441.598,90.833,437.878,90.833z M437.878,38.833c-3.72,0-6.729-3.015-6.729-6.732c0-3.717,3.014-6.731,6.729-6.731
	c3.715,0,6.731,3.014,6.731,6.731C444.612,35.818,441.598,38.833,437.878,38.833z M494.449,506.833
	c-3.719,0-6.731-3.016-6.731-6.732c0-3.719,3.018-6.729,6.731-6.729s6.729,3.014,6.729,6.729
	C501.181,503.817,498.168,506.833,494.449,506.833z M494.449,454.833c-3.719,0-6.731-3.016-6.731-6.732
	c0-3.719,3.018-6.729,6.731-6.729s6.729,3.014,6.729,6.729C501.181,451.817,498.168,454.833,494.449,454.833z M494.449,402.833
	c-3.719,0-6.731-3.017-6.731-6.73c0-3.721,3.018-6.729,6.731-6.729s6.729,3.014,6.729,6.729
	C501.181,399.817,498.168,402.833,494.449,402.833z M494.449,350.833c-3.719,0-6.731-3.017-6.731-6.73
	c0-3.721,3.018-6.729,6.731-6.729s6.729,3.014,6.729,6.729C501.182,347.816,498.168,350.833,494.449,350.833z M494.449,298.833
	c-3.719,0-6.731-3.017-6.731-6.73c0-3.721,3.018-6.729,6.731-6.729s6.729,3.014,6.729,6.729
	C501.182,295.816,498.168,298.833,494.449,298.833z M494.449,246.832c-3.719,0-6.731-3.014-6.731-6.732
	c0-3.718,3.018-6.732,6.731-6.732s6.729,3.014,6.729,6.732C501.182,243.818,498.168,246.832,494.449,246.832z M494.449,194.832
	c-3.719,0-6.731-3.014-6.731-6.732c0-3.718,3.018-6.731,6.731-6.731s6.729,3.014,6.729,6.731
	C501.182,191.818,498.168,194.832,494.449,194.832z M494.449,142.833c-3.719,0-6.731-3.015-6.731-6.732
	c0-3.717,3.018-6.731,6.731-6.731s6.729,3.014,6.729,6.731C501.182,139.818,498.168,142.833,494.449,142.833z M494.449,90.833
	c-3.719,0-6.731-3.015-6.731-6.732c0-3.717,3.018-6.731,6.731-6.731s6.729,3.014,6.729,6.731
	C501.182,87.818,498.168,90.833,494.449,90.833z M494.449,38.833c-3.719,0-6.731-3.015-6.731-6.732c0-3.717,3.018-6.731,6.731-6.731
	s6.729,3.014,6.729,6.731C501.182,35.818,498.168,38.833,494.449,38.833z M551.02,506.833c-3.721,0-6.73-3.016-6.73-6.732
	c0-3.719,3.017-6.729,6.73-6.729c3.72,0,6.73,3.014,6.73,6.729C557.75,503.817,554.74,506.833,551.02,506.833z M551.02,454.833
	c-3.721,0-6.73-3.016-6.73-6.732c0-3.719,3.017-6.729,6.73-6.729c3.72,0,6.73,3.014,6.73,6.729
	C557.75,451.817,554.74,454.833,551.02,454.833z M551.02,402.833c-3.721,0-6.73-3.017-6.73-6.73c0-3.721,3.017-6.729,6.73-6.729
	c3.72,0,6.73,3.014,6.73,6.729S554.74,402.833,551.02,402.833z M551.02,350.833c-3.721,0-6.73-3.017-6.73-6.73
	c0-3.721,3.017-6.729,6.73-6.729c3.72,0,6.73,3.014,6.73,6.729C557.752,347.816,554.74,350.833,551.02,350.833z M551.02,298.833
	c-3.721,0-6.73-3.017-6.73-6.73c0-3.721,3.017-6.729,6.73-6.729c3.72,0,6.73,3.014,6.73,6.729
	C557.752,295.816,554.74,298.833,551.02,298.833z M551.02,246.832c-3.721,0-6.73-3.014-6.73-6.732c0-3.718,3.017-6.732,6.73-6.732
	c3.72,0,6.73,3.014,6.73,6.732C557.752,243.818,554.74,246.832,551.02,246.832z M551.02,194.832c-3.721,0-6.73-3.014-6.73-6.732
	c0-3.718,3.017-6.731,6.73-6.731c3.72,0,6.73,3.014,6.73,6.731C557.752,191.818,554.74,194.832,551.02,194.832z M551.02,142.833
	c-3.721,0-6.73-3.015-6.73-6.732c0-3.717,3.017-6.731,6.73-6.731c3.72,0,6.73,3.014,6.73,6.731
	C557.752,139.818,554.74,142.833,551.02,142.833z M551.02,90.833c-3.721,0-6.73-3.015-6.73-6.732c0-3.717,3.017-6.731,6.73-6.731
	c3.72,0,6.73,3.014,6.73,6.731C557.752,87.818,554.74,90.833,551.02,90.833z M551.02,38.833c-3.721,0-6.73-3.015-6.73-6.732
	c0-3.717,3.017-6.731,6.73-6.731c3.72,0,6.73,3.014,6.73,6.731C557.752,35.818,554.74,38.833,551.02,38.833z M607.588,506.833
	c-3.719,0-6.729-3.016-6.729-6.732c0-3.719,3.014-6.729,6.729-6.729c3.719,0,6.731,3.014,6.731,6.729
	C614.323,503.817,611.309,506.833,607.588,506.833z M607.588,454.833c-3.719,0-6.729-3.016-6.729-6.732
	c0-3.719,3.014-6.729,6.729-6.729c3.719,0,6.731,3.014,6.731,6.729C614.323,451.817,611.309,454.833,607.588,454.833z
	 M607.588,402.833c-3.719,0-6.729-3.017-6.729-6.73c0-3.721,3.014-6.729,6.729-6.729c3.719,0,6.731,3.014,6.731,6.729
	C614.323,399.817,611.309,402.833,607.588,402.833z M607.588,350.833c-3.719,0-6.729-3.017-6.729-6.73
	c0-3.721,3.014-6.729,6.729-6.729c3.719,0,6.731,3.014,6.731,6.729C614.323,347.816,611.309,350.833,607.588,350.833z
	 M607.588,298.833c-3.719,0-6.729-3.017-6.729-6.73c0-3.721,3.014-6.729,6.729-6.729c3.719,0,6.731,3.014,6.731,6.729
	C614.323,295.816,611.309,298.833,607.588,298.833z M607.588,246.832c-3.719,0-6.729-3.014-6.729-6.732
	c0-3.718,3.014-6.732,6.729-6.732c3.719,0,6.731,3.014,6.731,6.732C614.323,243.818,611.309,246.832,607.588,246.832z
	 M607.588,194.832c-3.719,0-6.729-3.014-6.729-6.732c0-3.718,3.014-6.731,6.729-6.731c3.719,0,6.731,3.014,6.731,6.731
	C614.323,191.818,611.309,194.832,607.588,194.832z M607.588,142.833c-3.719,0-6.729-3.015-6.729-6.732
	c0-3.717,3.014-6.731,6.729-6.731c3.719,0,6.731,3.014,6.731,6.731C614.323,139.818,611.309,142.833,607.588,142.833z
	 M607.588,90.833c-3.719,0-6.729-3.015-6.729-6.732c0-3.717,3.014-6.731,6.729-6.731c3.719,0,6.731,3.014,6.731,6.731
	C614.323,87.818,611.309,90.833,607.588,90.833z M607.588,38.833c-3.719,0-6.729-3.015-6.729-6.732c0-3.717,3.014-6.731,6.729-6.731
	c3.719,0,6.731,3.014,6.731,6.731C614.323,35.818,611.309,38.833,607.588,38.833z M664.159,506.833
	c-3.719,0-6.729-3.016-6.729-6.732c0-3.719,3.018-6.729,6.729-6.729c3.72,0,6.732,3.014,6.732,6.729
	C670.893,503.817,667.877,506.833,664.159,506.833z M664.159,454.833c-3.719,0-6.729-3.016-6.729-6.732
	c0-3.719,3.018-6.729,6.729-6.729c3.72,0,6.732,3.014,6.732,6.729C670.893,451.817,667.877,454.833,664.159,454.833z
	 M664.159,402.833c-3.719,0-6.729-3.017-6.729-6.73c0-3.721,3.018-6.729,6.729-6.729c3.72,0,6.732,3.014,6.732,6.729
	S667.877,402.833,664.159,402.833z M664.159,350.833c-3.719,0-6.729-3.017-6.729-6.73c0-3.721,3.018-6.729,6.729-6.729
	c3.72,0,6.732,3.014,6.732,6.729C670.893,347.816,667.877,350.833,664.159,350.833z M664.159,298.833
	c-3.719,0-6.729-3.017-6.729-6.73c0-3.721,3.018-6.729,6.729-6.729c3.72,0,6.732,3.014,6.732,6.729
	C670.893,295.816,667.877,298.833,664.159,298.833z M664.159,246.832c-3.719,0-6.729-3.014-6.729-6.732
	c0-3.718,3.018-6.732,6.729-6.732c3.72,0,6.732,3.014,6.732,6.732C670.893,243.818,667.877,246.832,664.159,246.832z
	 M664.159,194.832c-3.719,0-6.729-3.014-6.729-6.732c0-3.718,3.018-6.731,6.729-6.731c3.72,0,6.732,3.014,6.732,6.731
	C670.892,191.817,667.877,194.832,664.159,194.832z M664.159,142.833c-3.719,0-6.729-3.015-6.729-6.732
	c0-3.717,3.018-6.731,6.729-6.731c3.72,0,6.732,3.014,6.732,6.731C670.892,139.818,667.877,142.833,664.159,142.833z
	 M664.159,90.833c-3.719,0-6.729-3.015-6.729-6.732c0-3.717,3.018-6.731,6.729-6.731c3.72,0,6.732,3.014,6.732,6.731
	C670.892,87.818,667.877,90.833,664.159,90.833z M720.733,506.833c-3.723,0-6.732-3.016-6.732-6.732
	c0-3.719,3.015-6.729,6.732-6.729c3.717,0,6.729,3.014,6.729,6.729C727.461,503.817,724.448,506.833,720.733,506.833z
	 M720.733,454.833c-3.723,0-6.732-3.016-6.732-6.732c0-3.719,3.015-6.729,6.732-6.729c3.717,0,6.729,3.014,6.729,6.729
	C727.461,451.817,724.448,454.833,720.733,454.833z M720.733,402.833c-3.723,0-6.732-3.017-6.732-6.73
	c0-3.721,3.015-6.729,6.732-6.729c3.717,0,6.729,3.014,6.729,6.729S724.448,402.833,720.733,402.833z M720.733,350.833
	c-3.723,0-6.732-3.017-6.732-6.73c0-3.721,3.015-6.729,6.732-6.729c3.717,0,6.729,3.014,6.729,6.729
	C727.461,347.816,724.448,350.833,720.733,350.833z M720.733,298.833c-3.723,0-6.732-3.017-6.732-6.73
	c0-3.721,3.015-6.729,6.732-6.729c3.717,0,6.729,3.014,6.729,6.729C727.461,295.816,724.448,298.833,720.733,298.833z
	 M720.733,246.832c-3.723,0-6.732-3.014-6.732-6.732c0-3.718,3.015-6.732,6.732-6.732c3.717,0,6.729,3.014,6.729,6.732
	C727.461,243.818,724.448,246.832,720.733,246.832z M720.733,194.832c-3.723,0-6.732-3.014-6.732-6.732
	c0-3.718,3.015-6.731,6.732-6.731c3.717,0,6.729,3.014,6.729,6.731C727.462,191.817,724.448,194.832,720.733,194.832z
	 M720.733,142.833c-3.723,0-6.732-3.015-6.732-6.732c0-3.717,3.015-6.731,6.732-6.731c3.717,0,6.729,3.014,6.729,6.731
	C727.462,139.818,724.448,142.833,720.733,142.833z M720.733,90.833c-3.723,0-6.732-3.015-6.732-6.732
	c0-3.717,3.015-6.731,6.732-6.731c3.717,0,6.729,3.014,6.729,6.731C727.462,87.818,724.448,90.833,720.733,90.833z M777.299,454.833
	c-3.72,0-6.729-3.016-6.729-6.732c0-3.719,3.015-6.729,6.729-6.729c3.721,0,6.731,3.014,6.731,6.729
	C784.032,451.817,781.022,454.833,777.299,454.833z M777.299,402.833c-3.72,0-6.729-3.017-6.729-6.73
	c0-3.721,3.015-6.729,6.729-6.729c3.721,0,6.731,3.014,6.731,6.729C784.032,399.817,781.022,402.833,777.299,402.833z
	 M777.299,350.833c-3.72,0-6.729-3.017-6.729-6.73c0-3.721,3.015-6.729,6.729-6.729c3.721,0,6.731,3.014,6.731,6.729
	C784.032,347.816,781.022,350.833,777.299,350.833z M777.299,298.833c-3.72,0-6.729-3.017-6.729-6.73
	c0-3.721,3.015-6.729,6.729-6.729c3.721,0,6.731,3.014,6.731,6.729C784.032,295.816,781.022,298.833,777.299,298.833z
	 M777.299,246.832c-3.72,0-6.729-3.014-6.729-6.732c0-3.718,3.015-6.732,6.729-6.732c3.721,0,6.731,3.014,6.731,6.732
	C784.032,243.818,781.022,246.832,777.299,246.832z M777.299,194.832c-3.72,0-6.729-3.014-6.729-6.732
	c0-3.718,3.015-6.731,6.729-6.731c3.721,0,6.731,3.014,6.731,6.731C784.032,191.818,781.022,194.832,777.299,194.832z
	 M777.299,142.833c-3.72,0-6.729-3.015-6.729-6.732c0-3.717,3.015-6.731,6.729-6.731c3.721,0,6.731,3.014,6.731,6.731
	C784.032,139.818,781.022,142.833,777.299,142.833z M777.299,90.833c-3.72,0-6.729-3.015-6.729-6.732
	c0-3.717,3.015-6.731,6.729-6.731c3.721,0,6.731,3.014,6.731,6.731C784.032,87.818,781.022,90.833,777.299,90.833z M833.87,454.833
	c-3.719,0-6.729-3.016-6.729-6.732c0-3.719,3.018-6.729,6.729-6.729c3.72,0,6.732,3.014,6.732,6.729
	C840.604,451.817,837.588,454.833,833.87,454.833z M833.87,402.833c-3.719,0-6.729-3.017-6.729-6.73
	c0-3.721,3.018-6.729,6.729-6.729c3.72,0,6.732,3.014,6.732,6.729S837.588,402.833,833.87,402.833z M833.87,350.833
	c-3.719,0-6.729-3.017-6.729-6.73c0-3.721,3.018-6.729,6.729-6.729c3.72,0,6.732,3.014,6.732,6.729
	C840.604,347.816,837.588,350.833,833.87,350.833z M833.87,298.833c-3.719,0-6.729-3.017-6.729-6.73
	c0-3.721,3.018-6.729,6.729-6.729c3.72,0,6.732,3.014,6.732,6.729C840.604,295.816,837.588,298.833,833.87,298.833z M833.87,246.832
	c-3.719,0-6.729-3.014-6.729-6.732c0-3.718,3.018-6.732,6.729-6.732c3.72,0,6.732,3.014,6.732,6.732
	C840.604,243.818,837.588,246.832,833.87,246.832z M833.87,194.832c-3.719,0-6.729-3.014-6.729-6.732
	c0-3.718,3.018-6.731,6.729-6.731c3.72,0,6.732,3.014,6.732,6.731C840.603,191.817,837.588,194.832,833.87,194.832z M833.87,142.833
	c-3.719,0-6.729-3.015-6.729-6.732c0-3.717,3.018-6.731,6.729-6.731c3.72,0,6.732,3.014,6.732,6.731
	C840.603,139.818,837.588,142.833,833.87,142.833z M833.87,90.833c-3.719,0-6.729-3.015-6.729-6.732
	c0-3.717,3.018-6.731,6.729-6.731c3.72,0,6.732,3.014,6.732,6.731C840.603,87.818,837.588,90.833,833.87,90.833z M890.444,454.833
	c-3.721,0-6.731-3.016-6.731-6.732c0-3.719,3.016-6.729,6.731-6.729s6.729,3.014,6.729,6.729
	C897.172,451.817,894.159,454.833,890.444,454.833z M890.444,402.833c-3.721,0-6.731-3.017-6.731-6.73
	c0-3.721,3.016-6.729,6.731-6.729s6.729,3.014,6.729,6.729S894.159,402.833,890.444,402.833z M890.444,350.833
	c-3.721,0-6.731-3.017-6.731-6.73c0-3.721,3.016-6.729,6.731-6.729s6.729,3.014,6.729,6.729
	C897.172,347.816,894.159,350.833,890.444,350.833z M890.444,298.833c-3.721,0-6.731-3.017-6.731-6.73
	c0-3.721,3.016-6.729,6.731-6.729s6.729,3.014,6.729,6.729C897.172,295.816,894.159,298.833,890.444,298.833z M890.444,246.832
	c-3.721,0-6.731-3.014-6.731-6.732c0-3.718,3.016-6.732,6.731-6.732s6.729,3.014,6.729,6.732
	C897.172,243.818,894.159,246.832,890.444,246.832z M890.444,194.832c-3.721,0-6.731-3.014-6.731-6.732
	c0-3.718,3.016-6.731,6.731-6.731s6.729,3.014,6.729,6.731C897.173,191.817,894.159,194.832,890.444,194.832z M890.444,142.833
	c-3.721,0-6.731-3.015-6.731-6.732c0-3.717,3.016-6.731,6.731-6.731s6.729,3.014,6.729,6.731
	C897.173,139.818,894.159,142.833,890.444,142.833z M947.01,402.833c-3.719,0-6.729-3.017-6.729-6.73
	c0-3.721,3.015-6.729,6.729-6.729c3.723,0,6.731,3.014,6.731,6.729S950.733,402.833,947.01,402.833z M947.01,350.833
	c-3.719,0-6.729-3.017-6.729-6.73c0-3.721,3.015-6.729,6.729-6.729c3.723,0,6.731,3.014,6.731,6.729
	C953.743,347.816,950.733,350.833,947.01,350.833z M947.01,298.833c-3.719,0-6.729-3.017-6.729-6.73
	c0-3.721,3.015-6.729,6.729-6.729c3.723,0,6.731,3.014,6.731,6.729C953.743,295.816,950.733,298.833,947.01,298.833z
	 M947.01,246.832c-3.719,0-6.729-3.014-6.729-6.732c0-3.718,3.015-6.732,6.729-6.732c3.723,0,6.731,3.014,6.731,6.732
	C953.743,243.818,950.733,246.832,947.01,246.832z M947.01,194.832c-3.719,0-6.729-3.014-6.729-6.732
	c0-3.718,3.015-6.731,6.729-6.731c3.723,0,6.731,3.014,6.731,6.731C953.743,191.818,950.733,194.832,947.01,194.832z
	 M947.01,142.833c-3.719,0-6.729-3.015-6.729-6.732c0-3.717,3.015-6.731,6.729-6.731c3.723,0,6.731,3.014,6.731,6.731
	C953.743,139.818,950.733,142.833,947.01,142.833z M1003.581,402.833c-3.719,0-6.729-3.017-6.729-6.73
	c0-3.721,3.018-6.729,6.729-6.729c3.72,0,6.732,3.014,6.732,6.729C1010.317,399.817,1007.299,402.833,1003.581,402.833z
	 M1003.581,350.833c-3.719,0-6.729-3.017-6.729-6.73c0-3.721,3.018-6.729,6.729-6.729c3.72,0,6.732,3.014,6.732,6.729
	C1010.315,347.816,1007.299,350.833,1003.581,350.833z M1003.581,298.833c-3.719,0-6.729-3.017-6.729-6.73
	c0-3.721,3.018-6.729,6.729-6.729c3.72,0,6.732,3.014,6.732,6.729C1010.315,295.816,1007.299,298.833,1003.581,298.833z
	 M1003.581,246.832c-3.719,0-6.729-3.014-6.729-6.732c0-3.718,3.018-6.732,6.729-6.732c3.72,0,6.732,3.014,6.732,6.732
	C1010.317,243.818,1007.299,246.832,1003.581,246.832z M1003.581,194.832c-3.719,0-6.729-3.014-6.729-6.732
	c0-3.718,3.018-6.731,6.729-6.731c3.72,0,6.732,3.014,6.732,6.731C1010.317,191.818,1007.299,194.832,1003.581,194.832z
	 M1003.581,142.833c-3.719,0-6.729-3.015-6.729-6.732c0-3.717,3.018-6.731,6.729-6.731c3.72,0,6.732,3.014,6.732,6.731
	C1010.317,139.818,1007.299,142.833,1003.581,142.833z M1060.155,350.833c-3.721,0-6.731-3.017-6.731-6.73
	c0-3.721,3.016-6.729,6.731-6.729c3.717,0,6.729,3.014,6.729,6.729C1066.883,347.816,1063.87,350.833,1060.155,350.833z
	 M1060.155,298.833c-3.721,0-6.731-3.017-6.731-6.73c0-3.721,3.016-6.729,6.731-6.729c3.717,0,6.729,3.014,6.729,6.729
	C1066.883,295.816,1063.87,298.833,1060.155,298.833z M1060.155,246.832c-3.721,0-6.731-3.014-6.731-6.732
	c0-3.718,3.016-6.732,6.731-6.732c3.717,0,6.729,3.014,6.729,6.732C1066.883,243.818,1063.87,246.832,1060.155,246.832z
	 M1060.155,194.832c-3.721,0-6.731-3.014-6.731-6.732c0-3.718,3.016-6.731,6.731-6.731c3.717,0,6.729,3.014,6.729,6.731
	C1066.884,191.817,1063.87,194.832,1060.155,194.832z M1116.723,350.833c-3.721,0-6.73-3.017-6.73-6.73
	c0-3.721,3.015-6.729,6.73-6.729c3.721,0,6.729,3.014,6.729,6.729C1123.454,347.816,1120.444,350.833,1116.723,350.833z
	 M1116.723,298.833c-3.721,0-6.73-3.017-6.73-6.73c0-3.721,3.015-6.729,6.73-6.729c3.721,0,6.729,3.014,6.729,6.729
	C1123.454,295.816,1120.444,298.833,1116.723,298.833z M1116.723,246.832c-3.721,0-6.73-3.014-6.73-6.732
	c0-3.718,3.015-6.732,6.73-6.732c3.721,0,6.729,3.014,6.729,6.732C1123.454,243.818,1120.444,246.832,1116.723,246.832z
	 M1116.723,194.832c-3.721,0-6.73-3.014-6.73-6.732c0-3.718,3.015-6.731,6.73-6.731c3.721,0,6.729,3.014,6.729,6.731
	C1123.454,191.818,1120.444,194.832,1116.723,194.832z M1173.293,246.832c-3.72,0-6.73-3.014-6.73-6.732
	c0-3.718,3.016-6.732,6.73-6.732c3.719,0,6.731,3.014,6.731,6.732C1180.028,243.818,1177.012,246.832,1173.293,246.832z"/>
</svg>
