<?xml version="1.0" encoding="utf-8"?>
<!-- Generator: Adobe Illustrator 16.0.0, SVG Export Plug-In . SVG Version: 6.00 Build 0)  -->
<!DOCTYPE svg PUBLIC "-//W3C//DTD SVG 1.1//EN" "http://www.w3.org/Graphics/SVG/1.1/DTD/svg11.dtd">
<svg version="1.1" id="Layer_1" xmlns="http://www.w3.org/2000/svg" xmlns:xlink="http://www.w3.org/1999/xlink" x="0px" y="0px"
	 width="1271.289px" height="565.269px" viewBox="0 0 1271.289 565.269" enable-background="new 0 0 1271.289 565.269"
	 xml:space="preserve">
<path fill="none" stroke="#000000" stroke-linejoin="round" stroke-miterlimit="10" d="M1186.916,451.845
	c-59.562-43.719-167.527-138.768-250.068-217.978C867.994,167.792,840.1,124.709,806.016,35.742
	C784.218-21.145,694.417,3.035,609.618,19.173c-111.959,21.3-450.245,116.59-577.139,208.176
	c-60.707,43.817-33.115,65.758,56.153,169.576c28.594,33.258,71.949,50.699,116.883,62.893
	c106.708,28.959,216.649,51.811,322.625,83.193c47.159,13.961,81.849,21.674,130.979,22.246
	c42.014,0.492,99.293-15.77,144.104-20.156c21.554-2.104,44.498-23.35,65.943-26.34c42.285-5.895,80.75-16.32,122.537-17.246
	c20.4-0.449,45.211,16.521,65.836,13.471c48.895-7.24,89.461-15.896,138.229-23.93
	C1225.339,486.185,1197.281,460.068,1186.916,451.845z M67.045,345.427c-3.719,0-6.732-3.016-6.732-6.73
	c0-3.72,3.014-6.73,6.732-6.73c3.718,0,6.732,3.015,6.732,6.73C73.778,342.412,70.765,345.427,67.045,345.427z M67.045,293.427
	c-3.719,0-6.732-3.016-6.732-6.73c0-3.72,3.014-6.732,6.732-6.732c3.718,0,6.732,3.015,6.732,6.732
	C73.778,290.412,70.765,293.427,67.045,293.427z M67.045,241.427c-3.719,0-6.732-3.014-6.732-6.732c0-3.718,3.014-6.732,6.732-6.732
	c3.718,0,6.732,3.014,6.732,6.732C73.777,238.413,70.765,241.427,67.045,241.427z M123.617,397.427c-3.719,0-6.732-3.016-6.732-6.73
	c0-3.72,3.014-6.73,6.732-6.73c3.718,0,6.732,3.015,6.732,6.73C130.349,394.412,127.334,397.427,123.617,397.427z M123.617,345.427
	c-3.719,0-6.732-3.016-6.732-6.73c0-3.72,3.014-6.73,6.732-6.73c3.718,0,6.732,3.015,6.732,6.73
	C130.349,342.412,127.334,345.427,123.617,345.427z M123.617,293.427c-3.719,0-6.732-3.016-6.732-6.73
	c0-3.72,3.014-6.732,6.732-6.732c3.718,0,6.732,3.015,6.732,6.732C130.349,290.412,127.334,293.427,123.617,293.427z
	 M123.617,241.427c-3.719,0-6.732-3.014-6.732-6.732c0-3.718,3.014-6.732,6.732-6.732c3.718,0,6.732,3.014,6.732,6.732
	C130.349,238.413,127.334,241.427,123.617,241.427z M180.187,397.427c-3.719,0-6.732-3.016-6.732-6.73c0-3.72,3.014-6.73,6.732-6.73
	c3.718,0,6.732,3.015,6.732,6.73C186.919,394.412,183.905,397.427,180.187,397.427z M180.187,345.427
	c-3.719,0-6.732-3.016-6.732-6.73c0-3.72,3.014-6.73,6.732-6.73c3.718,0,6.732,3.015,6.732,6.73
	C186.919,342.412,183.905,345.427,180.187,345.427z M180.187,293.427c-3.719,0-6.732-3.016-6.732-6.73
	c0-3.72,3.014-6.732,6.732-6.732c3.718,0,6.732,3.015,6.732,6.732C186.919,290.412,183.905,293.427,180.187,293.427z
	 M180.187,241.427c-3.719,0-6.732-3.014-6.732-6.732c0-3.718,3.014-6.732,6.732-6.732c3.718,0,6.732,3.014,6.732,6.732
	C186.918,238.413,183.905,241.427,180.187,241.427z M180.187,189.427c-3.719,0-6.732-3.014-6.732-6.732
	c0-3.718,3.014-6.732,6.732-6.732c3.718,0,6.732,3.014,6.732,6.732C186.918,186.413,183.905,189.427,180.187,189.427z
	 M236.756,449.427c-3.719,0-6.732-3.016-6.732-6.729c0-3.725,3.014-6.732,6.732-6.732c3.718,0,6.732,3.014,6.732,6.732
	C243.489,446.412,240.476,449.427,236.756,449.427z M236.756,397.427c-3.719,0-6.732-3.016-6.732-6.73c0-3.72,3.014-6.73,6.732-6.73
	c3.718,0,6.732,3.015,6.732,6.73C243.489,394.412,240.476,397.427,236.756,397.427z M236.756,345.427
	c-3.719,0-6.732-3.016-6.732-6.73c0-3.72,3.014-6.73,6.732-6.73c3.718,0,6.732,3.015,6.732,6.73
	C243.489,342.412,240.476,345.427,236.756,345.427z M236.756,293.427c-3.719,0-6.732-3.016-6.732-6.73
	c0-3.72,3.014-6.732,6.732-6.732c3.718,0,6.732,3.015,6.732,6.732C243.489,290.412,240.476,293.427,236.756,293.427z
	 M236.756,241.427c-3.719,0-6.732-3.014-6.732-6.732c0-3.718,3.014-6.732,6.732-6.732c3.718,0,6.732,3.014,6.732,6.732
	C243.488,238.413,240.476,241.427,236.756,241.427z M236.756,189.427c-3.719,0-6.732-3.014-6.732-6.732
	c0-3.718,3.014-6.732,6.732-6.732c3.718,0,6.732,3.014,6.732,6.732C243.488,186.413,240.476,189.427,236.756,189.427z
	 M293.328,449.427c-3.719,0-6.732-3.016-6.732-6.729c0-3.725,3.014-6.732,6.732-6.732c3.718,0,6.731,3.014,6.731,6.732
	C300.06,446.412,297.045,449.427,293.328,449.427z M293.328,397.427c-3.719,0-6.732-3.016-6.732-6.73c0-3.72,3.014-6.73,6.732-6.73
	c3.718,0,6.731,3.015,6.731,6.73C300.06,394.412,297.045,397.427,293.328,397.427z M293.328,345.427
	c-3.719,0-6.732-3.016-6.732-6.73c0-3.72,3.014-6.73,6.732-6.73c3.718,0,6.731,3.015,6.731,6.73
	C300.06,342.412,297.045,345.427,293.328,345.427z M293.328,293.427c-3.719,0-6.732-3.016-6.732-6.73
	c0-3.72,3.014-6.732,6.732-6.732c3.718,0,6.731,3.015,6.731,6.732C300.06,290.412,297.045,293.427,293.328,293.427z
	 M293.328,241.427c-3.719,0-6.732-3.014-6.732-6.732c0-3.718,3.014-6.732,6.732-6.732c3.718,0,6.731,3.014,6.731,6.732
	C300.06,238.413,297.045,241.427,293.328,241.427z M293.328,189.427c-3.719,0-6.732-3.014-6.732-6.732
	c0-3.718,3.014-6.732,6.732-6.732c3.718,0,6.731,3.014,6.731,6.732C300.06,186.413,297.045,189.427,293.328,189.427z
	 M293.328,137.427c-3.719,0-6.732-3.014-6.732-6.732c0-3.718,3.014-6.732,6.732-6.732c3.718,0,6.731,3.014,6.731,6.732
	C300.06,134.413,297.045,137.427,293.328,137.427z M349.898,449.427c-3.723,0-6.732-3.016-6.732-6.729
	c0-3.725,3.014-6.732,6.732-6.732c3.718,0,6.729,3.014,6.729,6.732C356.629,446.412,353.617,449.427,349.898,449.427z
	 M349.898,397.427c-3.723,0-6.732-3.016-6.732-6.73c0-3.72,3.014-6.73,6.732-6.73c3.718,0,6.729,3.015,6.729,6.73
	C356.629,394.412,353.617,397.427,349.898,397.427z M349.898,345.427c-3.723,0-6.732-3.016-6.732-6.73c0-3.72,3.014-6.73,6.732-6.73
	c3.718,0,6.729,3.015,6.729,6.73C356.629,342.412,353.617,345.427,349.898,345.427z M349.898,293.427
	c-3.723,0-6.732-3.016-6.732-6.73c0-3.72,3.014-6.732,6.732-6.732c3.718,0,6.729,3.015,6.729,6.732
	C356.629,290.412,353.617,293.427,349.898,293.427z M349.898,241.427c-3.723,0-6.732-3.014-6.732-6.732
	c0-3.718,3.014-6.732,6.732-6.732c3.718,0,6.729,3.014,6.729,6.732C356.629,238.413,353.617,241.427,349.898,241.427z
	 M349.898,189.427c-3.723,0-6.732-3.014-6.732-6.732c0-3.718,3.014-6.732,6.732-6.732c3.718,0,6.729,3.014,6.729,6.732
	C356.629,186.413,353.617,189.427,349.898,189.427z M349.898,137.427c-3.723,0-6.732-3.014-6.732-6.732
	c0-3.718,3.014-6.732,6.732-6.732c3.718,0,6.729,3.014,6.729,6.732C356.629,134.413,353.617,137.427,349.898,137.427z
	 M406.467,449.427c-3.719,0-6.729-3.016-6.729-6.729c0-3.725,3.014-6.732,6.729-6.732s6.732,3.014,6.732,6.732
	C413.201,446.412,410.186,449.427,406.467,449.427z M406.467,397.427c-3.719,0-6.729-3.016-6.729-6.73c0-3.72,3.014-6.73,6.729-6.73
	s6.732,3.015,6.732,6.73C413.201,394.412,410.186,397.427,406.467,397.427z M406.467,345.427c-3.719,0-6.729-3.016-6.729-6.73
	c0-3.72,3.014-6.73,6.729-6.73s6.732,3.015,6.732,6.73C413.201,342.412,410.186,345.427,406.467,345.427z M406.467,293.427
	c-3.719,0-6.729-3.016-6.729-6.73c0-3.72,3.014-6.732,6.729-6.732s6.732,3.015,6.732,6.732
	C413.201,290.412,410.186,293.427,406.467,293.427z M406.467,241.427c-3.719,0-6.729-3.014-6.729-6.732
	c0-3.718,3.014-6.732,6.729-6.732s6.732,3.014,6.732,6.732C413.2,238.413,410.186,241.427,406.467,241.427z M406.467,189.427
	c-3.719,0-6.729-3.014-6.729-6.732c0-3.718,3.014-6.732,6.729-6.732s6.732,3.014,6.732,6.732
	C413.2,186.413,410.186,189.427,406.467,189.427z M406.467,137.427c-3.719,0-6.729-3.014-6.729-6.732
	c0-3.718,3.014-6.732,6.729-6.732s6.732,3.014,6.732,6.732C413.2,134.413,410.186,137.427,406.467,137.427z M463.039,501.427
	c-3.719,0-6.732-3.016-6.732-6.729c0-3.725,3.018-6.732,6.732-6.732s6.729,3.014,6.729,6.732
	C469.77,498.412,466.756,501.427,463.039,501.427z M463.039,449.427c-3.719,0-6.732-3.016-6.732-6.729
	c0-3.725,3.018-6.732,6.732-6.732s6.729,3.014,6.729,6.732C469.77,446.412,466.756,449.427,463.039,449.427z M463.039,397.427
	c-3.719,0-6.732-3.016-6.732-6.73c0-3.72,3.018-6.73,6.732-6.73s6.729,3.015,6.729,6.73
	C469.77,394.412,466.756,397.427,463.039,397.427z M463.039,345.427c-3.719,0-6.732-3.016-6.732-6.73c0-3.72,3.018-6.73,6.732-6.73
	s6.729,3.015,6.729,6.73C469.77,342.412,466.756,345.427,463.039,345.427z M463.039,293.427c-3.719,0-6.732-3.016-6.732-6.73
	c0-3.72,3.018-6.732,6.732-6.732s6.729,3.015,6.729,6.732C469.77,290.412,466.756,293.427,463.039,293.427z M463.039,241.427
	c-3.719,0-6.732-3.014-6.732-6.732c0-3.718,3.018-6.732,6.732-6.732s6.729,3.014,6.729,6.732
	C469.77,238.413,466.756,241.427,463.039,241.427z M463.039,189.427c-3.719,0-6.732-3.014-6.732-6.732
	c0-3.718,3.018-6.732,6.732-6.732s6.729,3.014,6.729,6.732C469.77,186.413,466.756,189.427,463.039,189.427z M463.039,137.427
	c-3.719,0-6.732-3.014-6.732-6.732c0-3.718,3.018-6.732,6.732-6.732s6.729,3.014,6.729,6.732
	C469.77,134.413,466.756,137.427,463.039,137.427z M463.039,85.427c-3.719,0-6.732-3.014-6.732-6.732
	c0-3.718,3.018-6.732,6.732-6.732s6.729,3.014,6.729,6.732C469.77,82.413,466.756,85.427,463.039,85.427z M519.609,501.427
	c-3.723,0-6.732-3.016-6.732-6.729c0-3.725,3.014-6.732,6.732-6.732c3.718,0,6.729,3.014,6.729,6.732
	C526.34,498.412,523.328,501.427,519.609,501.427z M519.609,449.427c-3.723,0-6.732-3.016-6.732-6.729
	c0-3.725,3.014-6.732,6.732-6.732c3.718,0,6.729,3.014,6.729,6.732C526.34,446.412,523.328,449.427,519.609,449.427z
	 M519.609,397.427c-3.723,0-6.732-3.016-6.732-6.73c0-3.72,3.014-6.73,6.732-6.73c3.718,0,6.729,3.015,6.729,6.73
	C526.34,394.412,523.328,397.427,519.609,397.427z M519.609,345.427c-3.723,0-6.732-3.016-6.732-6.73c0-3.72,3.014-6.73,6.732-6.73
	c3.718,0,6.729,3.015,6.729,6.73C526.34,342.412,523.328,345.427,519.609,345.427z M519.609,293.427
	c-3.723,0-6.732-3.016-6.732-6.73c0-3.72,3.014-6.732,6.732-6.732c3.718,0,6.729,3.015,6.729,6.732
	C526.34,290.412,523.328,293.427,519.609,293.427z M519.609,241.427c-3.723,0-6.732-3.014-6.732-6.732
	c0-3.718,3.014-6.732,6.732-6.732c3.718,0,6.729,3.014,6.729,6.732C526.34,238.413,523.328,241.427,519.609,241.427z
	 M519.609,189.427c-3.723,0-6.732-3.014-6.732-6.732c0-3.718,3.014-6.732,6.732-6.732c3.718,0,6.729,3.014,6.729,6.732
	C526.34,186.413,523.328,189.427,519.609,189.427z M519.609,137.427c-3.723,0-6.732-3.014-6.732-6.732
	c0-3.718,3.014-6.732,6.732-6.732c3.718,0,6.729,3.014,6.729,6.732C526.34,134.413,523.328,137.427,519.609,137.427z
	 M519.609,85.427c-3.723,0-6.732-3.014-6.732-6.732c0-3.718,3.014-6.732,6.732-6.732c3.718,0,6.729,3.014,6.729,6.732
	C526.34,82.413,523.328,85.427,519.609,85.427z M576.178,501.427c-3.719,0-6.729-3.016-6.729-6.729c0-3.725,3.014-6.732,6.729-6.732
	c3.719,0,6.732,3.014,6.732,6.732C582.912,498.412,579.896,501.427,576.178,501.427z M576.178,449.427
	c-3.719,0-6.729-3.016-6.729-6.729c0-3.725,3.014-6.732,6.729-6.732c3.719,0,6.732,3.014,6.732,6.732
	C582.912,446.412,579.896,449.427,576.178,449.427z M576.178,397.427c-3.719,0-6.729-3.016-6.729-6.73c0-3.72,3.014-6.73,6.729-6.73
	c3.719,0,6.732,3.015,6.732,6.73C582.912,394.412,579.896,397.427,576.178,397.427z M576.178,345.427
	c-3.719,0-6.729-3.016-6.729-6.73c0-3.72,3.014-6.73,6.729-6.73c3.719,0,6.732,3.015,6.732,6.73
	C582.912,342.412,579.896,345.427,576.178,345.427z M576.178,293.427c-3.719,0-6.729-3.016-6.729-6.73
	c0-3.72,3.014-6.732,6.729-6.732c3.719,0,6.732,3.015,6.732,6.732C582.912,290.412,579.896,293.427,576.178,293.427z
	 M576.178,241.427c-3.719,0-6.729-3.014-6.729-6.732c0-3.718,3.014-6.732,6.729-6.732c3.719,0,6.732,3.014,6.732,6.732
	C582.911,238.413,579.896,241.427,576.178,241.427z M576.178,189.427c-3.719,0-6.729-3.014-6.729-6.732
	c0-3.718,3.014-6.732,6.729-6.732c3.719,0,6.732,3.014,6.732,6.732C582.911,186.413,579.896,189.427,576.178,189.427z
	 M576.178,137.427c-3.719,0-6.729-3.014-6.729-6.732c0-3.718,3.014-6.732,6.729-6.732c3.719,0,6.732,3.014,6.732,6.732
	C582.911,134.413,579.896,137.427,576.178,137.427z M576.178,85.427c-3.719,0-6.729-3.014-6.729-6.732
	c0-3.718,3.014-6.732,6.729-6.732c3.719,0,6.732,3.014,6.732,6.732C582.911,82.413,579.896,85.427,576.178,85.427z M632.749,501.427
	c-3.719,0-6.732-3.016-6.732-6.729c0-3.725,3.018-6.732,6.732-6.732s6.733,3.014,6.733,6.732
	C639.482,498.412,636.466,501.427,632.749,501.427z M632.749,449.427c-3.719,0-6.732-3.016-6.732-6.729
	c0-3.725,3.018-6.732,6.732-6.732s6.733,3.014,6.733,6.732C639.482,446.412,636.466,449.427,632.749,449.427z M632.749,397.427
	c-3.719,0-6.732-3.016-6.732-6.73c0-3.72,3.018-6.73,6.732-6.73s6.733,3.015,6.733,6.73
	C639.482,394.412,636.466,397.427,632.749,397.427z M632.749,345.427c-3.719,0-6.732-3.016-6.732-6.73c0-3.72,3.018-6.73,6.732-6.73
	s6.733,3.015,6.733,6.73C639.482,342.412,636.466,345.427,632.749,345.427z M632.749,293.427c-3.719,0-6.732-3.016-6.732-6.73
	c0-3.72,3.018-6.732,6.732-6.732s6.733,3.015,6.733,6.732C639.482,290.412,636.466,293.427,632.749,293.427z M632.749,241.427
	c-3.719,0-6.732-3.014-6.732-6.732c0-3.718,3.018-6.732,6.732-6.732s6.733,3.014,6.733,6.732
	C639.482,238.413,636.466,241.427,632.749,241.427z M632.749,189.427c-3.719,0-6.732-3.014-6.732-6.732
	c0-3.718,3.018-6.732,6.732-6.732s6.733,3.014,6.733,6.732C639.482,186.413,636.466,189.427,632.749,189.427z M632.749,137.427
	c-3.719,0-6.732-3.014-6.732-6.732c0-3.718,3.018-6.732,6.732-6.732s6.733,3.014,6.733,6.732
	C639.482,134.413,636.466,137.427,632.749,137.427z M632.749,85.427c-3.719,0-6.732-3.014-6.732-6.732
	c0-3.718,3.018-6.732,6.732-6.732s6.733,3.014,6.733,6.732C639.482,82.413,636.466,85.427,632.749,85.427z M689.32,501.427
	c-3.724,0-6.732-3.016-6.732-6.729c0-3.725,3.014-6.732,6.732-6.732c3.717,0,6.729,3.014,6.729,6.732
	C696.05,498.412,693.039,501.427,689.32,501.427z M689.32,449.427c-3.724,0-6.732-3.016-6.732-6.729
	c0-3.725,3.014-6.732,6.732-6.732c3.717,0,6.729,3.014,6.729,6.732C696.05,446.412,693.039,449.427,689.32,449.427z M689.32,397.427
	c-3.724,0-6.732-3.016-6.732-6.73c0-3.72,3.014-6.73,6.732-6.73c3.717,0,6.729,3.015,6.729,6.73
	C696.05,394.412,693.039,397.427,689.32,397.427z M689.32,345.427c-3.724,0-6.732-3.016-6.732-6.73c0-3.72,3.014-6.73,6.732-6.73
	c3.717,0,6.729,3.015,6.729,6.73C696.05,342.412,693.039,345.427,689.32,345.427z M689.32,293.427c-3.724,0-6.732-3.016-6.732-6.73
	c0-3.72,3.014-6.732,6.732-6.732c3.717,0,6.729,3.015,6.729,6.732C696.05,290.412,693.039,293.427,689.32,293.427z M689.32,241.427
	c-3.724,0-6.732-3.014-6.732-6.732c0-3.718,3.014-6.732,6.732-6.732c3.717,0,6.729,3.014,6.729,6.732
	C696.05,238.413,693.039,241.427,689.32,241.427z M689.32,189.427c-3.724,0-6.732-3.014-6.732-6.732
	c0-3.718,3.014-6.732,6.732-6.732c3.717,0,6.729,3.014,6.729,6.732C696.05,186.413,693.039,189.427,689.32,189.427z M689.32,137.427
	c-3.724,0-6.732-3.014-6.732-6.732c0-3.718,3.014-6.732,6.732-6.732c3.717,0,6.729,3.014,6.729,6.732
	C696.05,134.413,693.039,137.427,689.32,137.427z M689.32,85.427c-3.724,0-6.732-3.014-6.732-6.732c0-3.718,3.014-6.732,6.732-6.732
	c3.717,0,6.729,3.014,6.729,6.732C696.05,82.413,693.039,85.427,689.32,85.427z M689.32,33.427c-3.724,0-6.732-3.014-6.732-6.732
	c0-3.718,3.014-6.732,6.732-6.732c3.717,0,6.729,3.014,6.729,6.732C696.05,30.413,693.039,33.427,689.32,33.427z M745.888,501.427
	c-3.719,0-6.729-3.016-6.729-6.729c0-3.725,3.014-6.732,6.729-6.732c3.722,0,6.732,3.014,6.732,6.732
	C752.623,498.412,749.609,501.427,745.888,501.427z M745.888,449.427c-3.719,0-6.729-3.016-6.729-6.729
	c0-3.725,3.014-6.732,6.729-6.732c3.722,0,6.732,3.014,6.732,6.732C752.623,446.412,749.609,449.427,745.888,449.427z
	 M745.888,397.427c-3.719,0-6.729-3.016-6.729-6.73c0-3.72,3.014-6.73,6.729-6.73c3.722,0,6.732,3.015,6.732,6.73
	C752.62,394.412,749.609,397.427,745.888,397.427z M745.888,345.427c-3.719,0-6.729-3.016-6.729-6.73c0-3.72,3.014-6.73,6.729-6.73
	c3.722,0,6.732,3.015,6.732,6.73C752.62,342.412,749.609,345.427,745.888,345.427z M745.888,293.427
	c-3.719,0-6.729-3.016-6.729-6.73c0-3.72,3.014-6.732,6.729-6.732c3.722,0,6.732,3.015,6.732,6.732
	C752.62,290.412,749.609,293.427,745.888,293.427z M745.888,241.427c-3.719,0-6.729-3.014-6.729-6.732
	c0-3.718,3.014-6.732,6.729-6.732c3.722,0,6.732,3.014,6.732,6.732C752.623,238.413,749.609,241.427,745.888,241.427z
	 M745.888,189.427c-3.719,0-6.729-3.014-6.729-6.732c0-3.718,3.014-6.732,6.729-6.732c3.722,0,6.732,3.014,6.732,6.732
	C752.623,186.413,749.609,189.427,745.888,189.427z M745.888,137.427c-3.719,0-6.729-3.014-6.729-6.732
	c0-3.718,3.014-6.732,6.729-6.732c3.722,0,6.732,3.014,6.732,6.732C752.623,134.413,749.609,137.427,745.888,137.427z
	 M745.888,85.427c-3.719,0-6.729-3.014-6.729-6.732c0-3.718,3.014-6.732,6.729-6.732c3.722,0,6.732,3.014,6.732,6.732
	C752.623,82.413,749.609,85.427,745.888,85.427z M745.888,33.427c-3.719,0-6.729-3.014-6.729-6.732c0-3.718,3.014-6.732,6.729-6.732
	c3.722,0,6.732,3.014,6.732,6.732C752.623,30.413,749.609,33.427,745.888,33.427z M802.458,501.427
	c-3.719,0-6.732-3.016-6.732-6.729c0-3.725,3.019-6.732,6.732-6.732c3.717,0,6.732,3.014,6.732,6.732
	C809.193,498.412,806.177,501.427,802.458,501.427z M802.458,449.427c-3.719,0-6.732-3.016-6.732-6.729
	c0-3.725,3.019-6.732,6.732-6.732c3.717,0,6.732,3.014,6.732,6.732C809.193,446.412,806.177,449.427,802.458,449.427z
	 M802.458,397.427c-3.719,0-6.732-3.016-6.732-6.73c0-3.72,3.019-6.73,6.732-6.73c3.717,0,6.732,3.015,6.732,6.73
	C809.19,394.412,806.177,397.427,802.458,397.427z M802.458,345.427c-3.719,0-6.732-3.016-6.732-6.73c0-3.72,3.019-6.73,6.732-6.73
	c3.717,0,6.732,3.015,6.732,6.73C809.19,342.412,806.177,345.427,802.458,345.427z M802.458,293.427
	c-3.719,0-6.732-3.016-6.732-6.73c0-3.72,3.019-6.732,6.732-6.732c3.717,0,6.732,3.015,6.732,6.732
	C809.19,290.412,806.177,293.427,802.458,293.427z M802.458,241.427c-3.719,0-6.732-3.014-6.732-6.732
	c0-3.718,3.019-6.732,6.732-6.732c3.717,0,6.732,3.014,6.732,6.732C809.193,238.413,806.177,241.427,802.458,241.427z
	 M802.458,189.427c-3.719,0-6.732-3.014-6.732-6.732c0-3.718,3.019-6.732,6.732-6.732c3.717,0,6.732,3.014,6.732,6.732
	C809.193,186.413,806.177,189.427,802.458,189.427z M802.458,137.427c-3.719,0-6.732-3.014-6.732-6.732
	c0-3.718,3.019-6.732,6.732-6.732c3.717,0,6.732,3.014,6.732,6.732C809.193,134.413,806.177,137.427,802.458,137.427z
	 M802.458,85.427c-3.719,0-6.732-3.014-6.732-6.732c0-3.718,3.019-6.732,6.732-6.732c3.717,0,6.732,3.014,6.732,6.732
	C809.193,82.413,806.177,85.427,802.458,85.427z M859.031,501.427c-3.724,0-6.732-3.016-6.732-6.729
	c0-3.725,3.014-6.732,6.732-6.732c3.717,0,6.729,3.014,6.729,6.732C865.761,498.412,862.75,501.427,859.031,501.427z
	 M859.031,449.427c-3.724,0-6.732-3.016-6.732-6.729c0-3.725,3.014-6.732,6.732-6.732c3.717,0,6.729,3.014,6.729,6.732
	C865.761,446.412,862.75,449.427,859.031,449.427z M859.031,397.427c-3.724,0-6.732-3.016-6.732-6.73c0-3.72,3.014-6.73,6.732-6.73
	c3.717,0,6.729,3.015,6.729,6.73C865.761,394.412,862.75,397.427,859.031,397.427z M859.031,345.427
	c-3.724,0-6.732-3.016-6.732-6.73c0-3.72,3.014-6.73,6.732-6.73c3.717,0,6.729,3.015,6.729,6.73
	C865.761,342.412,862.75,345.427,859.031,345.427z M859.031,293.427c-3.724,0-6.732-3.016-6.732-6.73
	c0-3.72,3.014-6.732,6.732-6.732c3.717,0,6.729,3.015,6.729,6.732C865.761,290.412,862.75,293.427,859.031,293.427z
	 M859.031,241.427c-3.724,0-6.732-3.014-6.732-6.732c0-3.718,3.014-6.732,6.732-6.732c3.717,0,6.729,3.014,6.729,6.732
	C865.761,238.413,862.75,241.427,859.031,241.427z M915.599,449.427c-3.719,0-6.729-3.016-6.729-6.729
	c0-3.725,3.014-6.732,6.729-6.732c3.722,0,6.732,3.014,6.732,6.732C922.333,446.412,919.32,449.427,915.599,449.427z
	 M915.599,397.427c-3.719,0-6.729-3.016-6.729-6.73c0-3.72,3.014-6.73,6.729-6.73c3.722,0,6.732,3.015,6.732,6.73
	C922.331,394.412,919.32,397.427,915.599,397.427z M915.599,345.427c-3.719,0-6.729-3.016-6.729-6.73c0-3.72,3.014-6.73,6.729-6.73
	c3.722,0,6.732,3.015,6.732,6.73C922.331,342.412,919.32,345.427,915.599,345.427z M915.599,293.427
	c-3.719,0-6.729-3.016-6.729-6.73c0-3.72,3.014-6.732,6.729-6.732c3.722,0,6.732,3.015,6.732,6.732
	C922.331,290.412,919.32,293.427,915.599,293.427z M972.169,449.427c-3.719,0-6.731-3.016-6.731-6.729
	c0-3.725,3.018-6.732,6.731-6.732c3.717,0,6.732,3.014,6.732,6.732C978.904,446.412,975.888,449.427,972.169,449.427z
	 M972.169,397.427c-3.719,0-6.731-3.016-6.731-6.73c0-3.72,3.018-6.73,6.731-6.73c3.717,0,6.732,3.015,6.732,6.73
	C978.901,394.412,975.888,397.427,972.169,397.427z M972.169,345.427c-3.719,0-6.731-3.016-6.731-6.73c0-3.72,3.018-6.73,6.731-6.73
	c3.717,0,6.732,3.015,6.732,6.73C978.901,342.412,975.888,345.427,972.169,345.427z M1028.742,449.427
	c-3.721,0-6.732-3.016-6.732-6.729c0-3.725,3.014-6.732,6.732-6.732c3.717,0,6.729,3.014,6.729,6.732
	C1035.472,446.412,1032.458,449.427,1028.742,449.427z M1028.742,397.427c-3.721,0-6.732-3.016-6.732-6.73
	c0-3.72,3.014-6.73,6.732-6.73c3.717,0,6.729,3.015,6.729,6.73C1035.472,394.412,1032.458,397.427,1028.742,397.427z
	 M1085.311,449.427c-3.72,0-6.729-3.016-6.729-6.729c0-3.725,3.014-6.732,6.729-6.732c3.721,0,6.731,3.014,6.731,6.732
	C1092.042,446.412,1089.031,449.427,1085.311,449.427z M1141.88,449.427c-3.719,0-6.731-3.016-6.731-6.729
	c0-3.725,3.018-6.732,6.731-6.732c3.717,0,6.732,3.014,6.732,6.732C1148.615,446.412,1145.599,449.427,1141.88,449.427z"/>
</svg>
