<?xml version="1.0" encoding="utf-8"?>
<!-- Generator: Adobe Illustrator 16.0.0, SVG Export Plug-In . SVG Version: 6.00 Build 0)  -->
<!DOCTYPE svg PUBLIC "-//W3C//DTD SVG 1.1//EN" "http://www.w3.org/Graphics/SVG/1.1/DTD/svg11.dtd">
<svg version="1.1" id="Layer_1" xmlns="http://www.w3.org/2000/svg" xmlns:xlink="http://www.w3.org/1999/xlink" x="0px" y="0px"
	 width="1709.516px" height="899.641px" viewBox="0 0 1709.516 899.641" enable-background="new 0 0 1709.516 899.641"
	 xml:space="preserve">
<path fill="none" stroke="#000000" stroke-linejoin="round" stroke-miterlimit="10" d="M292.11,853.667
	c25.458,2.85,52.638,5.619,81.347,8.189c162.42,14.564,355.63,28.247,433.33,33.027c7.68,0.668,13.196,1.199,17.208,1.006
	c4.255,0.24,7.802,0.438,10.571,0.562c43.057,2.004,82.011-12.519,100.849-44.405c18.842-31.891,131.808-398.329,137.487-417.055
	c6.313-20.825-7.584-46.985-60.822-65.218c-92.354-31.598-187.572-25.238-194.891-154.383
	c-2.339-41.238,14.886-82.476,51.654-123.715c3.729-42.533,9.979-34.654-31.471-34.351c-113.58,0.847-438.36-17.153-571.457-55.354
	c-23.421-6.725-20.531,3.864,0.721,30.221c45.818,56.82,37.118,107.132,0.047,190.215c-8.469,18.965-17.177,37.775-26.07,56.465
	c-2.498,2.741-4.649,5.875-6.329,9.454c-7.08,15.081-26.16,54.649-51.249,106.237c-59.751,116.221-122.319,230.4-173.68,351.673
	c-19.423,45.84-9.509,65.1,38.191,74.057C118.577,833.636,203.018,844.487,292.11,853.667z M947.61,853.113
	c18.841-31.894,131.805-398.327,137.48-417.046c16.236-53.534-0.127-43.44,54.692-29.45
	c165.822,42.295,316.852,41.06,504.928-16.271c19.928,0.617,16.748,7.229,4.26,34.33
	c-109.048,245.547-401.678,429.541-670.029,468.062c-18.778,2.688-34.387,4.485-47.071,6.571
	C915.093,902.085,928.526,887.431,947.61,853.113L947.61,853.113z"/>
</svg>
