<?xml version="1.0" encoding="utf-8"?>
<!-- Generator: Adobe Illustrator 16.0.0, SVG Export Plug-In . SVG Version: 6.00 Build 0)  -->
<!DOCTYPE svg PUBLIC "-//W3C//DTD SVG 1.1//EN" "http://www.w3.org/Graphics/SVG/1.1/DTD/svg11.dtd">
<svg version="1.1" id="Layer_1" xmlns="http://www.w3.org/2000/svg" xmlns:xlink="http://www.w3.org/1999/xlink" x="0px" y="0px"
	 width="983.121px" height="1294.825px" viewBox="0 0 983.121 1294.825" enable-background="new 0 0 983.121 1294.825"
	 xml:space="preserve">
<path fill="none" stroke="#000000" stroke-linejoin="round" stroke-miterlimit="10" d="M793.094,380.633
	c-3.35,0.426-6.143,6.715-8.873,19.317c-13.896,82.651-27.29,166.465-32.212,250.875c-6.1,45.932-38.036,43.459-65.844,50.67
	c-45.735,11.867-112.7,19.311-151.896,30.555c-10.072,2.896-42.909,5.045-43.826,19.355c-0.871,13.508,8.604,19.428,21.451,38.049
	c0.001,0,336.139,421.838,337.249,422.879c13.801,13.021,24.736,20.387,33.884,18.62 M50.342,672.069
	c9.652,15.889,21.607,26.775,36.38,30.898c96.854,27.039,186.435,42.625,292.43,50.348c10.839,0.783,19.154-0.508,26.748-8.127
	c48.244-48.512,114.316-90.73,162.998-138.659c11.95-11.774,16.397-35.155,18.938-46.819
	c20.847-95.718,117.382-192.892,150.298-243.123c17.602-26.862,18.053-23.458,19.289-32.493 M38.004,762.201
	c7.268-1.923,15.473-3.086,24.522-3.37c118.884-3.736,246.887,3.732,369.125,3.004c23.275-0.133,32.499,4.256,46.841,19.355
	c128.295,134.979,230.791,280.279,340.934,424.604c27.146,35.588,29.718,38.573,3.706,40.385"/>
</svg>
