<?xml version="1.0" encoding="utf-8"?>
<!-- Generator: Adobe Illustrator 16.0.0, SVG Export Plug-In . SVG Version: 6.00 Build 0)  -->
<!DOCTYPE svg PUBLIC "-//W3C//DTD SVG 1.1//EN" "http://www.w3.org/Graphics/SVG/1.1/DTD/svg11.dtd">
<svg version="1.1" id="Layer_1" xmlns="http://www.w3.org/2000/svg" xmlns:xlink="http://www.w3.org/1999/xlink" x="0px" y="0px"
	 width="1120.296px" height="641.145px" viewBox="0 0 1120.296 641.145" enable-background="new 0 0 1120.296 641.145"
	 xml:space="preserve">
<path fill="none" stroke="#000000" stroke-linejoin="round" stroke-miterlimit="10" d="M1057.697,104.774
	C1004.333,86.755,731.921,29.613,350.855,0.279c0,0-56.125-5.148-71.542,28.812C259.51,72.706,144.278,317.407,68.986,472.922
	c0,0-16.298,30.795-5.718,62.119c8.526,25.236,47.442,34.963,47.442,34.963s123.061,24.6,311.495,40.055
	c188.437,15.451,418.285,29.318,461.359,30.967c43.078,1.643,81.941-13.439,100.576-45.984s129.242-405.553,134.803-424.605
	C1125.125,149.235,1111.058,122.796,1057.697,104.774z"/>
</svg>
