<?xml version="1.0" encoding="utf-8"?>
<!-- Generator: Adobe Illustrator 16.0.0, SVG Export Plug-In . SVG Version: 6.00 Build 0)  -->
<!DOCTYPE svg PUBLIC "-//W3C//DTD SVG 1.1//EN" "http://www.w3.org/Graphics/SVG/1.1/DTD/svg11.dtd">
<svg version="1.1" id="Layer_1" xmlns="http://www.w3.org/2000/svg" xmlns:xlink="http://www.w3.org/1999/xlink" x="0px" y="0px"
	 width="1431.037px" height="853.207px" viewBox="0 0 1431.037 853.207" enable-background="new 0 0 1431.037 853.207"
	 xml:space="preserve">
<path d="M1320.717,853.207c-9.933,0-17.947-7.123-25.701-14.012c-1.543-1.365-3.138-2.783-4.683-4.076
	c-11.503-9.652-313.132-204.104-468.264-299.164c-58.709-35.979-99.953-57.812-129.803-68.729
	c-27.281-9.973-43.894-10.739-64.379-10.739c-1.56,0-3.131,0.004-4.729,0.006l-0.197,0.004c-1.586,0.002-3.19,0.006-4.821,0.006
	c-3.607,0-8.41-0.018-13.566-0.154c-0.568-0.016-1.146-0.021-1.76-0.021c-56.822,0-287.752,65.248-308.221,72.805
	c-11.09,4.092-17.568,5.765-22.368,5.765c-6.618-0.005-10.024-3.193-12.257-5.979l-0.125-0.158l-0.113-0.166
	c-0.521-0.754-52.447-75.863-77.02-101.396C158.731,402.27,34.589,346.464,12.518,339.46c-6.553-2.078-10.584-5.535-11.985-10.276
	c-3.023-10.224,7.073-22.495,23.805-42.827c6.389-7.763,13.629-16.562,21.271-26.607c19.705-25.9,101.826-79.429,149.021-109.032
	c70.479-44.201,136.95-81.804,160.506-92.618c11.471-5.268,22.639-11.854,34.461-18.828C420.808,20.858,456.181,0,506.415,0
	c10.531,0,21.527,0.925,32.685,2.754c66.668,10.932,123.553,29.852,173.896,57.84c43.972,24.443,77.312,52.664,106.727,77.563
	c10.905,9.229,21.203,17.947,31.666,26.211c79.396,62.713,192.244,155.777,255.317,239.584
	c34.043,45.235,113.979,109.971,175.041,156.312c68.479,51.978,130.147,93.601,136.157,96.365
	c7.199,3.316,11.486,7.84,12.745,13.443c1.521,6.778-1.406,14.271-9.215,23.582c-4.249,5.062-18.125,32.428-31.542,58.895
	c-20.224,39.875-41.131,81.109-50.7,91.314C1333.38,850.064,1327.16,853.207,1320.717,853.207L1320.717,853.207z"/>
</svg>
