<?xml version="1.0" encoding="utf-8"?>
<!-- Generator: Adobe Illustrator 16.0.0, SVG Export Plug-In . SVG Version: 6.00 Build 0)  -->
<!DOCTYPE svg PUBLIC "-//W3C//DTD SVG 1.1//EN" "http://www.w3.org/Graphics/SVG/1.1/DTD/svg11.dtd">
<svg version="1.1" id="Layer_1" xmlns="http://www.w3.org/2000/svg" xmlns:xlink="http://www.w3.org/1999/xlink" x="0px" y="0px"
	 width="1397.705px" height="1068.818px" viewBox="0 0 1397.705 1068.818" enable-background="new 0 0 1397.705 1068.818"
	 xml:space="preserve">
<path d="M718.956,1068.818c-3.987,0-6.961-1.328-8.836-3.945c-3.772-5.271-1.291-12.568,3.656-27.102
	c1.166-3.433,2.488-7.316,3.873-11.603c7.67-23.727,73.246-138.094,129.521-235.08c6.245-10.77,10.764-18.547,12.069-20.889
	c6.621-11.845,28.144-20.256,49.615-27.855c4.811-1.698,8.965-3.172,10.697-4.061c2.793-1.428,7.631-5.695,12.75-10.211
	c8.11-7.156,18.209-16.066,28.545-21.354c12-6.135,46.908-21.268,145.879-53.643c84.85-27.758,228.816-90.996,249.832-101.743
	c3.967-2.026,7.725-2.97,11.828-2.97c5.748,0,11.526,1.869,19.526,4.453c4.738,1.53,7.798,4.119,9.104,7.693
	c2.379,6.518-1.775,13.178-7.035,21.604c-1.604,2.567-3.256,5.221-4.826,8.028c-9.336,16.689-147.323,156.138-236.027,236.438
	c-19.002,17.206-35.159,32.593-50.786,47.475c-58.632,55.831-100.992,96.175-200.687,138.78
	c-97.326,41.6-131.147,47.261-151.356,50.646c-5.818,0.973-10.414,1.743-15.179,3.088
	C725.642,1068.126,721.888,1068.818,718.956,1068.818L718.956,1068.818z M465.403,941.455c10.896,0,22.501-5.135,36.579-12.842
	c19.998-10.955,253.703-133.387,272.775-141.898c1.567-0.699,3.312-1.463,5.155-2.271c29.259-12.828,42.072-20.13,40.67-29.49
	c-1.145-7.605-10.973-9.701-19.407-10.678c-38.742-4.484-252.773-49.066-273.047-55.23c-6.653-2.021-9.271-5.348-8.916-7.744
	c0.353-2.371,3.518-4.768,8.884-4.768c1.647,0,3.419,0.227,5.258,0.674c9.689,2.367,59.952,13.59,113.168,25.473
	c65.649,14.66,140.056,31.271,147.058,33.226c2.238,0.627,5.492,0.93,9.947,0.93c25.867,0,85.229-9.641,115.055-20.479
	c34.634-12.578,418.992-162.021,444.968-174.855c15.562-7.69,28.383-14.92,27.647-25.525c-0.606-8.83-10.274-15.729-32.33-23.066
	c-45.36-15.093-306.58-127.618-337.559-146.785c-25.566-15.819-54.24-22.872-92.974-22.872c-9.298,0-19.146,0.396-30.11,1.21
	c-43.367,3.228-382.673,21.477-496.648,21.477c-12.081,0-21.342-0.205-27.521-0.609c-53.149-3.474-152.739-18.979-200.6-26.431
	c-14.833-2.309-24.635-3.834-27.895-4.211c-6.639-0.768-12.511-1.143-17.956-1.143c-15.076,0-28.376,2.938-43.13,9.521
	c-2.521,1.125-5.771,2.517-9.534,4.126C24.656,348.71-2.159,363.231,0.136,378.321c2.771,18.219,41.52,159.91,74.115,222.373
	c32.636,62.543,93.979,186.259,102.361,209.33c3.811,10.486,1.646,25.57-0.097,37.691c-1.74,12.146-2.895,20.168,1.124,24.807
	c1.646,1.896,3.988,2.941,6.6,2.941c0.234,0,0.479-0.008,0.726-0.023c0.21-0.018,0.474-0.021,0.778-0.021
	c16.402,0,114.319,13.006,145.421,21.852c19.144,5.443,55.026,18.281,83.861,28.599c21.062,7.534,37.697,13.483,42.498,14.656
	C460.075,941.136,462.727,941.455,465.403,941.455L465.403,941.455z M535.741,327.519c3.329,0,6.659-0.003,9.979-0.014
	c154.684-0.442,312.35-5.101,351.465-10.385c32.951-4.456,53.08-8.346,51.779-31.214c-0.369-6.45,1.166-52.757,2.79-101.781
	c3.047-91.888,5.099-157.623,3.73-166.588C953.281,3.044,945.251,0,938.901,0c-4.334,0-8.896,1.446-12.851,2.882
	c-1.32,0.498-132.19,49.665-149.439,55.93c-10.741,3.903-14.238,7.447-17.688,11.676c-1.688,2.067-2.908,3.563-6.519,5.407
	c-5.312,2.628-105.922,39.308-222.896,80.917c-135.146,48.07-222.251,77.896-233.004,79.785
	c-26.987,4.734-120.103,35.154-134.635,43.983c-5.913,3.592-8.383,9.538-6.599,15.907c3.072,10.987,17.927,20.995,31.159,20.995
	c0.489,0,0.979-0.014,1.465-0.04c0.351-0.021,1.023-0.044,2.268-0.044c7.695,0,27.448,0.878,54.79,2.091
	c19.214,0.854,43.13,1.915,69.478,2.963C400.104,325.862,472.494,327.519,535.741,327.519L535.741,327.519z"/>
</svg>
