<?xml version="1.0" encoding="utf-8"?>
<!-- Generator: Adobe Illustrator 16.0.0, SVG Export Plug-In . SVG Version: 6.00 Build 0)  -->
<!DOCTYPE svg PUBLIC "-//W3C//DTD SVG 1.1//EN" "http://www.w3.org/Graphics/SVG/1.1/DTD/svg11.dtd">
<svg version="1.1" id="Layer_1" xmlns="http://www.w3.org/2000/svg" xmlns:xlink="http://www.w3.org/1999/xlink" x="0px" y="0px"
	 width="1397.707px" height="1068.818px" viewBox="0 0 1397.707 1068.818" enable-background="new 0 0 1397.707 1068.818"
	 xml:space="preserve">
<path fill="none" stroke="#000000" stroke-linejoin="round" stroke-miterlimit="10" d="M708.293,1058.911
	c-0.072-4.818,2.146-11.331,5.484-21.14c1.166-3.433,2.486-7.316,3.873-11.603c7.67-23.727,73.246-138.094,129.518-235.08
	c6.248-10.77,10.764-18.547,12.072-20.889c6.621-11.845,28.141-20.256,49.615-27.855c4.811-1.698,8.965-3.172,10.695-4.061
	c2.793-1.428,7.631-5.695,12.75-10.211c8.113-7.156,18.209-16.066,28.545-21.354c12-6.135,46.908-21.268,145.879-53.643
	c84.852-27.758,228.818-90.996,249.832-101.743c3.969-2.026,7.727-2.97,11.828-2.97c5.748,0,11.529,1.869,19.529,4.453
	c2.82,0.911,5.045,2.197,6.66,3.843"/>
<path fill="none" stroke="#000000" stroke-linejoin="round" stroke-miterlimit="10" d="M961.977,325.38
	c-10.37-1.436-21.514-2.127-33.645-2.127c-9.297,0-19.146,0.396-30.111,1.21c-43.363,3.229-382.672,21.478-496.646,21.478
	c-12.081,0-21.342-0.205-27.523-0.609c-53.147-3.474-152.739-18.979-200.599-26.431c-14.833-2.31-24.633-3.834-27.893-4.211
	c-6.638-0.769-12.51-1.144-17.956-1.144c-6.603,0-12.864,0.564-19.057,1.75"/>
<path fill="none" stroke="#000000" stroke-linejoin="round" stroke-miterlimit="10" d="M539.818,908.561
	c72.131-37.969,219.934-115.15,234.936-121.846c1.57-0.699,3.312-1.463,5.158-2.271c29.256-12.828,42.072-20.13,40.668-29.49
	c-1.143-7.605-10.971-9.701-19.408-10.678c-38.742-4.484-252.771-49.066-273.045-55.23c-6.654-2.021-9.271-5.348-8.917-7.744
	c0.354-2.371,3.521-4.768,8.884-4.768c1.65,0,3.419,0.227,5.26,0.674c9.688,2.367,59.95,13.59,113.168,25.473
	c65.649,14.66,140.057,31.271,147.059,33.226c2.238,0.627,5.492,0.93,9.947,0.93c25.863,0,85.227-9.641,115.055-20.479
	c34.631-12.578,418.992-162.021,444.965-174.855c14.892-7.358,27.271-14.295,27.67-24.171"/>
<path fill="none" stroke="#000000" stroke-linejoin="round" stroke-miterlimit="10" d="M170.288,276.531
	c-3.779,1.608-6.671,2.985-8.422,4.049c-5.913,3.592-8.381,9.538-6.597,15.907c3.073,10.987,17.927,20.996,31.159,20.996
	c0.49,0,0.98-0.015,1.465-0.04c0.349-0.021,1.024-0.044,2.266-0.044c7.697,0,27.45,0.878,54.79,2.091
	c19.214,0.854,43.13,1.915,69.477,2.963c85.677,3.41,158.069,5.066,221.316,5.066l0,0c3.329,0,6.659-0.003,9.979-0.014
	c154.687-0.441,312.353-5.101,351.464-10.385c31.83-4.304,51.695-8.08,51.838-28.945"/>
</svg>
