<?xml version="1.0" encoding="utf-8"?>
<!-- Generator: Adobe Illustrator 16.0.0, SVG Export Plug-In . SVG Version: 6.00 Build 0)  -->
<!DOCTYPE svg PUBLIC "-//W3C//DTD SVG 1.1//EN" "http://www.w3.org/Graphics/SVG/1.1/DTD/svg11.dtd">
<svg version="1.1" id="Layer_1" xmlns="http://www.w3.org/2000/svg" xmlns:xlink="http://www.w3.org/1999/xlink" x="0px" y="0px"
	 width="618.479px" height="1138.258px" viewBox="0 0 618.479 1138.258" enable-background="new 0 0 618.479 1138.258"
	 xml:space="preserve">
<path fill="none" stroke="#000000" stroke-linejoin="round" stroke-miterlimit="10" d="M618.479,491.88
	c0,2.467-0.12,5.127-0.362,7.906c-1.49,17.162-7.604,58.848-14.687,107.117c-7.899,53.879-16.857,114.945-22.521,162.703
	c-13.245,111.625-27.398,247.396-27.398,293.689c0,9.334,0.565,12.849,0.903,14.111c0.785,2.951,1.185,6.758,1.185,11.312
	c0,14.021-4.468,44.434-18.276,48.951c-3.96,1.297-9.988,1.064-16.202-7.41c-7.645-10.422-43.504-46.293-82.744-81.104
	c-20.717-18.377-39.291-33.684-53.717-44.256c-21.912-16.068-28.541-17.086-29.869-17.086c-3.928,2.553-7.66,5.77-11.271,8.885
	c-7.562,6.52-14.704,12.678-22.39,10.48c-6.819-1.945-9.888-9.469-11.604-14.957c-7.582-24.26-46.723-251.75-48.295-401.441
	c-0.133-12.807-0.203-26.585-0.203-40.964c0-144.691,6.684-323.66,9.523-354.775c3.064-33.582,8.959-48.961,19.711-51.418
	c11.826-2.703,22.521,12.527,29.537,24.223c26.992,44.984,110.615,147.559,155.729,194.234
	c49.569,51.277,111.438,90.176,112.057,90.562c2.164,1.353,4.691,2.437,7.371,3.576C605.432,460.712,618.479,466.296,618.479,491.88
	L618.479,491.88z M255.006,162.56c0-15.412-0.303-19.107-0.598-20.688c-2.434-13.025-10.979-28.295-24.916-50.273
	C215.496,69.527,170.746,10.98,158.355,2.88c-16.68-10.902-54.512,12.471-58.771,15.172c-10.902,6.916-12.188,18.309-13.32,28.363
	c-0.523,4.641-1.016,9.021-2.344,12.883C80.176,70.198,6.639,382.14,2.248,416.981C0.715,429.157,0,439.259,0,448.771
	c0,20.095,3.316,39.056,10.754,61.479c9.439,28.469,185.93,494.356,200.811,513.342c4.562,5.822,8.586,13.58,12.136,20.429
	c5.954,11.479,10.655,20.55,17.988,21.892c2.247,0.412,5.659,0.244,9.154-2.885l1.938-1.734l-0.05-2.598
	c-0.055-2.834-5.458-285.385-5.458-460.984c0-38.683,0.264-69.791,0.781-92.455c0.529-23.16,1.113-48.076,1.713-73.613
	C252.223,327.095,255.006,208.599,255.006,162.56L255.006,162.56z"/>
</svg>
