<?xml version="1.0" encoding="utf-8"?>
<!-- Generator: Adobe Illustrator 16.0.0, SVG Export Plug-In . SVG Version: 6.00 Build 0)  -->
<!DOCTYPE svg PUBLIC "-//W3C//DTD SVG 1.1//EN" "http://www.w3.org/Graphics/SVG/1.1/DTD/svg11.dtd">
<svg version="1.1" id="Layer_1" xmlns="http://www.w3.org/2000/svg" xmlns:xlink="http://www.w3.org/1999/xlink" x="0px" y="0px"
	 width="1431.039px" height="915.562px" viewBox="0 0 1431.039 915.562" enable-background="new 0 0 1431.039 915.562"
	 xml:space="preserve">
<path fill="none" stroke="#000000" stroke-linejoin="round" stroke-miterlimit="10" d="M86.315,329.743
	c3.718,0,6.732,3.014,6.732,6.732c0,3.718-3.014,6.732-6.732,6.732c-3.718,0-6.732-3.014-6.732-6.732
	C79.583,332.757,82.597,329.743,86.315,329.743z M86.315,277.743c3.718,0,6.732,3.014,6.732,6.732c0,3.718-3.014,6.732-6.732,6.732
	c-3.718,0-6.732-3.014-6.732-6.732C79.583,280.757,82.597,277.743,86.315,277.743z M142.887,329.743
	c3.718,0,6.732,3.014,6.732,6.732c0,3.718-3.014,6.732-6.732,6.732c-3.718,0-6.732-3.014-6.732-6.732
	C136.155,332.757,139.169,329.743,142.887,329.743z M142.887,277.743c3.718,0,6.732,3.014,6.732,6.732
	c0,3.718-3.014,6.732-6.732,6.732c-3.718,0-6.732-3.014-6.732-6.732C136.155,280.757,139.169,277.743,142.887,277.743z
	 M142.887,225.743c3.718,0,6.732,3.014,6.732,6.732c0,3.718-3.014,6.732-6.732,6.732c-3.718,0-6.732-3.014-6.732-6.732
	C136.155,228.757,139.169,225.743,142.887,225.743z M199.457,381.743c3.718,0,6.732,3.014,6.732,6.732
	c0,3.718-3.014,6.732-6.732,6.732s-6.732-3.014-6.732-6.732C192.725,384.757,195.739,381.743,199.457,381.743z M199.457,329.743
	c3.718,0,6.732,3.014,6.732,6.732c0,3.718-3.014,6.732-6.732,6.732s-6.732-3.014-6.732-6.732
	C192.725,332.757,195.739,329.743,199.457,329.743z M199.457,277.743c3.718,0,6.732,3.014,6.732,6.732
	c0,3.718-3.014,6.732-6.732,6.732s-6.732-3.014-6.732-6.732C192.725,280.757,195.739,277.743,199.457,277.743z M199.457,225.743
	c3.718,0,6.732,3.014,6.732,6.732c0,3.718-3.014,6.732-6.732,6.732s-6.732-3.014-6.732-6.732
	C192.725,228.757,195.739,225.743,199.457,225.743z M199.457,173.743c3.718,0,6.732,3.014,6.732,6.732
	c0,3.718-3.014,6.732-6.732,6.732s-6.732-3.014-6.732-6.732C192.725,176.757,195.739,173.743,199.457,173.743z M256.026,433.747
	c3.717,0,6.73,3.013,6.73,6.729s-3.013,6.73-6.73,6.73s-6.73-3.014-6.73-6.73S252.309,433.747,256.026,433.747z M256.026,381.743
	c3.718,0,6.732,3.014,6.732,6.732c0,3.718-3.014,6.732-6.732,6.732c-3.718,0-6.732-3.014-6.732-6.732
	C249.294,384.757,252.308,381.743,256.026,381.743z M256.026,329.743c3.718,0,6.732,3.014,6.732,6.732
	c0,3.718-3.014,6.732-6.732,6.732c-3.718,0-6.732-3.014-6.732-6.732C249.294,332.757,252.308,329.743,256.026,329.743z
	 M256.026,277.743c3.718,0,6.732,3.014,6.732,6.732c0,3.718-3.014,6.732-6.732,6.732c-3.718,0-6.732-3.014-6.732-6.732
	C249.294,280.757,252.308,277.743,256.026,277.743z M256.026,225.743c3.718,0,6.732,3.014,6.732,6.732
	c0,3.718-3.014,6.732-6.732,6.732c-3.718,0-6.732-3.014-6.732-6.732C249.294,228.757,252.308,225.743,256.026,225.743z
	 M256.026,173.743c3.718,0,6.732,3.014,6.732,6.732c0,3.718-3.014,6.732-6.732,6.732c-3.718,0-6.732-3.014-6.732-6.732
	C249.294,176.757,252.308,173.743,256.026,173.743z M312.597,499.207c-3.719,0-6.729-3.014-6.729-6.732
	c0-3.718,3.014-6.729,6.729-6.729c3.723,0,6.732,3.014,6.732,6.729C319.33,496.193,316.316,499.207,312.597,499.207z
	 M312.597,447.207c-3.719,0-6.729-3.014-6.729-6.732c0-3.718,3.014-6.729,6.729-6.729c3.723,0,6.732,3.014,6.732,6.729
	C319.33,444.193,316.316,447.207,312.597,447.207z M312.597,395.207c-3.719,0-6.729-3.014-6.729-6.732
	c0-3.718,3.014-6.732,6.729-6.732c3.723,0,6.732,3.014,6.732,6.732C319.33,392.193,316.316,395.207,312.597,395.207z
	 M312.597,343.207c-3.719,0-6.729-3.014-6.729-6.732c0-3.718,3.014-6.732,6.729-6.732c3.723,0,6.732,3.014,6.732,6.732
	C319.33,340.193,316.316,343.207,312.597,343.207z M312.597,291.207c-3.719,0-6.729-3.014-6.729-6.732
	c0-3.718,3.014-6.732,6.729-6.732c3.723,0,6.732,3.014,6.732,6.732C319.33,288.193,316.316,291.207,312.597,291.207z
	 M312.597,239.207c-3.719,0-6.729-3.014-6.729-6.732c0-3.718,3.014-6.732,6.729-6.732c3.723,0,6.732,3.014,6.732,6.732
	C319.33,236.193,316.316,239.207,312.597,239.207z M312.597,187.207c-3.719,0-6.729-3.014-6.729-6.732
	c0-3.718,3.014-6.732,6.729-6.732c3.723,0,6.732,3.014,6.732,6.732C319.33,184.193,316.316,187.207,312.597,187.207z
	 M312.597,135.207c-3.719,0-6.729-3.014-6.729-6.732c0-3.718,3.014-6.732,6.729-6.732c3.723,0,6.732,3.014,6.732,6.732
	C319.33,132.193,316.316,135.207,312.597,135.207z M369.167,447.207c-3.719,0-6.732-3.014-6.732-6.732
	c0-3.718,3.019-6.729,6.732-6.729s6.732,3.014,6.732,6.729C375.9,444.193,372.886,447.207,369.167,447.207z M369.167,395.207
	c-3.719,0-6.732-3.014-6.732-6.732c0-3.718,3.019-6.732,6.732-6.732s6.732,3.014,6.732,6.732
	C375.9,392.193,372.886,395.207,369.167,395.207z M369.167,343.207c-3.719,0-6.732-3.014-6.732-6.732
	c0-3.718,3.019-6.732,6.732-6.732s6.732,3.014,6.732,6.732C375.9,340.193,372.886,343.207,369.167,343.207z M369.167,291.207
	c-3.719,0-6.732-3.014-6.732-6.732c0-3.718,3.019-6.732,6.732-6.732s6.732,3.014,6.732,6.732
	C375.9,288.193,372.886,291.207,369.167,291.207z M369.167,239.207c-3.719,0-6.732-3.014-6.732-6.732
	c0-3.718,3.019-6.732,6.732-6.732s6.732,3.014,6.732,6.732C375.9,236.193,372.886,239.207,369.167,239.207z M369.167,187.207
	c-3.719,0-6.732-3.014-6.732-6.732c0-3.718,3.019-6.732,6.732-6.732s6.732,3.014,6.732,6.732
	C375.9,184.193,372.886,187.207,369.167,187.207z M369.167,135.207c-3.719,0-6.732-3.014-6.732-6.732
	c0-3.718,3.019-6.732,6.732-6.732s6.732,3.014,6.732,6.732C375.9,132.193,372.886,135.207,369.167,135.207z M369.167,83.207
	c-3.719,0-6.732-3.014-6.732-6.732c0-3.718,3.019-6.732,6.732-6.732s6.732,3.014,6.732,6.732
	C375.9,80.193,372.886,83.207,369.167,83.207z M425.738,447.207c-3.724,0-6.732-3.014-6.732-6.732c0-3.718,3.014-6.729,6.732-6.729
	c3.718,0,6.729,3.014,6.729,6.729C432.469,444.193,429.457,447.207,425.738,447.207z M425.738,395.207
	c-3.724,0-6.732-3.014-6.732-6.732c0-3.718,3.014-6.732,6.732-6.732c3.718,0,6.729,3.014,6.729,6.732
	C432.469,392.193,429.457,395.207,425.738,395.207z M425.738,343.207c-3.724,0-6.732-3.014-6.732-6.732
	c0-3.718,3.014-6.732,6.732-6.732c3.718,0,6.729,3.014,6.729,6.732C432.469,340.193,429.457,343.207,425.738,343.207z
	 M425.738,291.207c-3.724,0-6.732-3.014-6.732-6.732c0-3.718,3.014-6.732,6.732-6.732c3.718,0,6.729,3.014,6.729,6.732
	C432.469,288.193,429.457,291.207,425.738,291.207z M425.738,239.207c-3.724,0-6.732-3.014-6.732-6.732
	c0-3.718,3.014-6.732,6.732-6.732c3.718,0,6.729,3.014,6.729,6.732C432.469,236.193,429.457,239.207,425.738,239.207z
	 M425.738,187.207c-3.724,0-6.732-3.014-6.732-6.732c0-3.718,3.014-6.732,6.732-6.732c3.718,0,6.729,3.014,6.729,6.732
	C432.469,184.193,429.457,187.207,425.738,187.207z M425.738,135.207c-3.724,0-6.732-3.014-6.732-6.732
	c0-3.718,3.014-6.732,6.732-6.732c3.718,0,6.729,3.014,6.729,6.732C432.469,132.193,429.457,135.207,425.738,135.207z
	 M425.738,83.207c-3.724,0-6.732-3.014-6.732-6.732c0-3.718,3.014-6.732,6.732-6.732c3.718,0,6.729,3.014,6.729,6.732
	C432.469,80.193,429.457,83.207,425.738,83.207z M482.308,447.207c-3.719,0-6.729-3.014-6.729-6.732
	c0-3.718,3.014-6.729,6.729-6.729c3.723,0,6.732,3.014,6.732,6.729C489.041,444.193,486.027,447.207,482.308,447.207z
	 M482.308,395.207c-3.719,0-6.729-3.014-6.729-6.732c0-3.718,3.014-6.732,6.729-6.732c3.723,0,6.732,3.014,6.732,6.732
	C489.041,392.193,486.027,395.207,482.308,395.207z M482.308,343.207c-3.719,0-6.729-3.014-6.729-6.732
	c0-3.718,3.014-6.732,6.729-6.732c3.723,0,6.732,3.014,6.732,6.732C489.041,340.193,486.027,343.207,482.308,343.207z
	 M482.308,291.207c-3.719,0-6.729-3.014-6.729-6.732c0-3.718,3.014-6.732,6.729-6.732c3.723,0,6.732,3.014,6.732,6.732
	C489.041,288.193,486.027,291.207,482.308,291.207z M482.308,239.207c-3.719,0-6.729-3.014-6.729-6.732
	c0-3.718,3.014-6.732,6.729-6.732c3.723,0,6.732,3.014,6.732,6.732C489.041,236.193,486.027,239.207,482.308,239.207z
	 M482.308,187.207c-3.719,0-6.729-3.014-6.729-6.732c0-3.718,3.014-6.732,6.729-6.732c3.723,0,6.732,3.014,6.732,6.732
	C489.041,184.193,486.027,187.207,482.308,187.207z M482.308,135.207c-3.719,0-6.729-3.014-6.729-6.732
	c0-3.718,3.014-6.732,6.729-6.732c3.723,0,6.732,3.014,6.732,6.732C489.041,132.193,486.027,135.207,482.308,135.207z
	 M482.308,83.207c-3.719,0-6.729-3.014-6.729-6.732c0-3.718,3.014-6.732,6.729-6.732c3.723,0,6.732,3.014,6.732,6.732
	C489.041,80.193,486.027,83.207,482.308,83.207z M482.308,31.207c-3.719,0-6.729-3.014-6.729-6.732c0-3.718,3.014-6.732,6.729-6.732
	c3.723,0,6.732,3.014,6.732,6.732C489.041,28.193,486.027,31.207,482.308,31.207z M538.878,433.747c3.717,0,6.73,3.013,6.73,6.729
	s-3.014,6.73-6.73,6.73s-6.729-3.014-6.729-6.73S535.161,433.747,538.878,433.747z M538.878,381.743
	c3.718,0,6.732,3.014,6.732,6.732c0,3.718-3.015,6.732-6.732,6.732s-6.731-3.014-6.731-6.732
	C532.146,384.757,535.16,381.743,538.878,381.743z M538.878,329.743c3.718,0,6.732,3.014,6.732,6.732
	c0,3.718-3.015,6.732-6.732,6.732s-6.731-3.014-6.731-6.732C532.146,332.757,535.16,329.743,538.878,329.743z M538.878,277.743
	c3.718,0,6.732,3.014,6.732,6.732c0,3.718-3.015,6.732-6.732,6.732s-6.731-3.014-6.731-6.732
	C532.146,280.757,535.16,277.743,538.878,277.743z M538.878,225.743c3.718,0,6.732,3.014,6.732,6.732
	c0,3.718-3.015,6.732-6.732,6.732s-6.731-3.014-6.731-6.732C532.146,228.757,535.16,225.743,538.878,225.743z M538.878,173.743
	c3.718,0,6.732,3.014,6.732,6.732c0,3.718-3.015,6.732-6.732,6.732s-6.731-3.014-6.731-6.732
	C532.146,176.757,535.16,173.743,538.878,173.743z M538.878,121.743c3.718,0,6.732,3.014,6.732,6.732
	c0,3.718-3.015,6.732-6.732,6.732s-6.731-3.014-6.731-6.732C532.146,124.757,535.16,121.743,538.878,121.743z M538.878,69.743
	c3.718,0,6.732,3.014,6.732,6.732c0,3.718-3.015,6.732-6.732,6.732s-6.731-3.014-6.731-6.732
	C532.146,72.757,535.16,69.743,538.878,69.743z M538.878,17.743c3.718,0,6.732,3.014,6.732,6.732c0,3.718-3.015,6.732-6.732,6.732
	s-6.731-3.014-6.731-6.732C532.146,20.757,535.16,17.743,538.878,17.743z M595.449,381.743c3.718,0,6.731,3.014,6.731,6.732
	c0,3.718-3.014,6.732-6.731,6.732s-6.732-3.014-6.732-6.732C588.717,384.757,591.731,381.743,595.449,381.743z M595.449,329.743
	c3.718,0,6.731,3.014,6.731,6.732c0,3.718-3.014,6.732-6.731,6.732s-6.732-3.014-6.732-6.732
	C588.717,332.757,591.731,329.743,595.449,329.743z M595.449,277.743c3.718,0,6.731,3.014,6.731,6.732
	c0,3.718-3.014,6.732-6.731,6.732s-6.732-3.014-6.732-6.732C588.717,280.757,591.731,277.743,595.449,277.743z M595.449,225.743
	c3.718,0,6.731,3.014,6.731,6.732c0,3.718-3.014,6.732-6.731,6.732s-6.732-3.014-6.732-6.732
	C588.717,228.757,591.731,225.743,595.449,225.743z M595.449,173.743c3.718,0,6.731,3.014,6.731,6.732
	c0,3.718-3.014,6.732-6.731,6.732s-6.732-3.014-6.732-6.732C588.717,176.757,591.731,173.743,595.449,173.743z M595.449,121.743
	c3.718,0,6.731,3.014,6.731,6.732c0,3.718-3.014,6.732-6.731,6.732s-6.732-3.014-6.732-6.732
	C588.717,124.757,591.731,121.743,595.449,121.743z M595.449,69.743c3.718,0,6.731,3.014,6.731,6.732
	c0,3.718-3.014,6.732-6.731,6.732s-6.732-3.014-6.732-6.732C588.717,72.757,591.731,69.743,595.449,69.743z M652.019,395.207
	c-3.719,0-6.729-3.014-6.729-6.732c0-3.718,3.014-6.732,6.729-6.732c3.723,0,6.732,3.014,6.732,6.732
	C658.751,392.193,655.738,395.207,652.019,395.207z M652.019,343.207c-3.719,0-6.729-3.014-6.729-6.732
	c0-3.718,3.014-6.732,6.729-6.732c3.723,0,6.732,3.014,6.732,6.732C658.751,340.193,655.738,343.207,652.019,343.207z
	 M652.019,291.207c-3.719,0-6.729-3.014-6.729-6.732c0-3.718,3.014-6.732,6.729-6.732c3.723,0,6.732,3.014,6.732,6.732
	C658.751,288.193,655.738,291.207,652.019,291.207z M652.019,239.207c-3.719,0-6.729-3.014-6.729-6.732
	c0-3.718,3.014-6.732,6.729-6.732c3.723,0,6.732,3.014,6.732,6.732C658.751,236.193,655.738,239.207,652.019,239.207z
	 M652.019,187.207c-3.719,0-6.729-3.014-6.729-6.732c0-3.718,3.014-6.732,6.729-6.732c3.723,0,6.732,3.014,6.732,6.732
	C658.751,184.193,655.738,187.207,652.019,187.207z M652.019,135.207c-3.719,0-6.729-3.014-6.729-6.732
	c0-3.718,3.014-6.732,6.729-6.732c3.723,0,6.732,3.014,6.732,6.732C658.751,132.193,655.738,135.207,652.019,135.207z
	 M652.019,83.207c-3.719,0-6.729-3.014-6.729-6.732c0-3.718,3.014-6.732,6.729-6.732c3.723,0,6.732,3.014,6.732,6.732
	C658.751,80.193,655.738,83.207,652.019,83.207z M708.589,433.747c3.717,0,6.73,3.013,6.73,6.729s-3.014,6.73-6.73,6.73
	s-6.729-3.014-6.729-6.73S704.872,433.747,708.589,433.747z M708.589,381.743c3.718,0,6.732,3.014,6.732,6.732
	c0,3.718-3.015,6.732-6.732,6.732s-6.731-3.014-6.731-6.732C701.857,384.757,704.871,381.743,708.589,381.743z M708.589,329.743
	c3.718,0,6.732,3.014,6.732,6.732c0,3.718-3.015,6.732-6.732,6.732s-6.731-3.014-6.731-6.732
	C701.857,332.757,704.871,329.743,708.589,329.743z M708.589,277.743c3.718,0,6.732,3.014,6.732,6.732
	c0,3.718-3.015,6.732-6.732,6.732s-6.731-3.014-6.731-6.732C701.857,280.757,704.871,277.743,708.589,277.743z M708.589,225.743
	c3.718,0,6.732,3.014,6.732,6.732c0,3.718-3.015,6.732-6.732,6.732s-6.731-3.014-6.731-6.732
	C701.857,228.757,704.871,225.743,708.589,225.743z M708.589,173.743c3.718,0,6.732,3.014,6.732,6.732
	c0,3.718-3.015,6.732-6.732,6.732s-6.731-3.014-6.731-6.732C701.857,176.757,704.871,173.743,708.589,173.743z M708.589,121.743
	c3.718,0,6.732,3.014,6.732,6.732c0,3.718-3.015,6.732-6.732,6.732s-6.731-3.014-6.731-6.732
	C701.857,124.757,704.871,121.743,708.589,121.743z M708.589,69.743c3.718,0,6.732,3.014,6.732,6.732
	c0,3.718-3.015,6.732-6.732,6.732s-6.731-3.014-6.731-6.732C701.857,72.757,704.871,69.743,708.589,69.743z M765.162,447.207
	c-3.719,0-6.732-3.014-6.732-6.732c0-3.718,3.018-6.729,6.732-6.729s6.729,3.014,6.729,6.729
	C771.892,444.193,768.878,447.207,765.162,447.207z M765.162,395.207c-3.719,0-6.732-3.014-6.732-6.732
	c0-3.718,3.018-6.732,6.732-6.732s6.729,3.014,6.729,6.732C771.892,392.193,768.878,395.207,765.162,395.207z M765.162,343.207
	c-3.719,0-6.732-3.014-6.732-6.732c0-3.718,3.018-6.732,6.732-6.732s6.729,3.014,6.729,6.732
	C771.892,340.193,768.878,343.207,765.162,343.207z M765.162,291.207c-3.719,0-6.732-3.014-6.732-6.732
	c0-3.718,3.018-6.732,6.732-6.732s6.729,3.014,6.729,6.732C771.892,288.193,768.878,291.207,765.162,291.207z M765.162,239.207
	c-3.719,0-6.732-3.014-6.732-6.732c0-3.718,3.018-6.732,6.732-6.732s6.729,3.014,6.729,6.732
	C771.892,236.193,768.878,239.207,765.162,239.207z M765.162,187.207c-3.719,0-6.732-3.014-6.732-6.732
	c0-3.718,3.018-6.732,6.732-6.732s6.729,3.014,6.729,6.732C771.892,184.193,768.878,187.207,765.162,187.207z M765.162,135.207
	c-3.719,0-6.732-3.014-6.732-6.732c0-3.718,3.018-6.732,6.732-6.732s6.729,3.014,6.729,6.732
	C771.892,132.193,768.878,135.207,765.162,135.207z M821.732,499.207c-3.725,0-6.732-3.014-6.732-6.732
	c0-3.718,3.014-6.729,6.732-6.729c3.717,0,6.729,3.014,6.729,6.729C828.462,496.193,825.451,499.207,821.732,499.207z
	 M821.732,447.207c-3.725,0-6.732-3.014-6.732-6.732c0-3.718,3.014-6.729,6.732-6.729c3.717,0,6.729,3.014,6.729,6.729
	C828.462,444.193,825.451,447.207,821.732,447.207z M821.732,395.207c-3.725,0-6.732-3.014-6.732-6.732
	c0-3.718,3.014-6.732,6.732-6.732c3.717,0,6.729,3.014,6.729,6.732C828.462,392.193,825.451,395.207,821.732,395.207z
	 M821.732,343.207c-3.725,0-6.732-3.014-6.732-6.732c0-3.718,3.014-6.732,6.732-6.732c3.717,0,6.729,3.014,6.729,6.732
	C828.462,340.193,825.451,343.207,821.732,343.207z M821.732,291.207c-3.725,0-6.732-3.014-6.732-6.732
	c0-3.718,3.014-6.732,6.732-6.732c3.717,0,6.729,3.014,6.729,6.732C828.462,288.193,825.451,291.207,821.732,291.207z
	 M821.732,239.207c-3.725,0-6.732-3.014-6.732-6.732c0-3.718,3.014-6.732,6.732-6.732c3.717,0,6.729,3.014,6.729,6.732
	C828.462,236.193,825.451,239.207,821.732,239.207z M821.732,187.207c-3.725,0-6.732-3.014-6.732-6.732
	c0-3.718,3.014-6.732,6.732-6.732c3.717,0,6.729,3.014,6.729,6.732C828.462,184.193,825.451,187.207,821.732,187.207z
	 M878.3,551.207c-3.719,0-6.729-3.014-6.729-6.732c0-3.718,3.014-6.729,6.729-6.729c3.719,0,6.732,3.014,6.732,6.729
	C885.035,548.193,882.021,551.207,878.3,551.207z M878.3,499.207c-3.719,0-6.729-3.014-6.729-6.732c0-3.718,3.014-6.729,6.729-6.729
	c3.719,0,6.732,3.014,6.732,6.729C885.035,496.193,882.021,499.207,878.3,499.207z M878.3,447.207c-3.719,0-6.729-3.014-6.729-6.732
	c0-3.718,3.014-6.729,6.729-6.729c3.719,0,6.732,3.014,6.732,6.729C885.035,444.193,882.021,447.207,878.3,447.207z M878.3,395.207
	c-3.719,0-6.729-3.014-6.729-6.732c0-3.718,3.014-6.732,6.729-6.732c3.719,0,6.732,3.014,6.732,6.732
	C885.035,392.193,882.021,395.207,878.3,395.207z M878.3,343.207c-3.719,0-6.729-3.014-6.729-6.732c0-3.718,3.014-6.732,6.729-6.732
	c3.719,0,6.732,3.014,6.732,6.732C885.035,340.193,882.021,343.207,878.3,343.207z M878.3,291.207c-3.719,0-6.729-3.014-6.729-6.732
	c0-3.718,3.014-6.732,6.729-6.732c3.719,0,6.732,3.014,6.732,6.732C885.035,288.193,882.021,291.207,878.3,291.207z M878.3,239.207
	c-3.719,0-6.729-3.014-6.729-6.732c0-3.718,3.014-6.732,6.729-6.732c3.719,0,6.732,3.014,6.732,6.732
	C885.035,236.193,882.021,239.207,878.3,239.207z M934.873,551.207c-3.719,0-6.732-3.014-6.732-6.732
	c0-3.718,3.018-6.729,6.732-6.729s6.729,3.014,6.729,6.729C941.604,548.193,938.589,551.207,934.873,551.207z M934.873,499.207
	c-3.719,0-6.732-3.014-6.732-6.732c0-3.718,3.018-6.729,6.732-6.729s6.729,3.014,6.729,6.729
	C941.604,496.193,938.589,499.207,934.873,499.207z M934.873,447.207c-3.719,0-6.732-3.014-6.732-6.732
	c0-3.718,3.018-6.729,6.732-6.729s6.729,3.014,6.729,6.729C941.604,444.193,938.589,447.207,934.873,447.207z M934.873,395.207
	c-3.719,0-6.732-3.014-6.732-6.732c0-3.718,3.018-6.732,6.732-6.732s6.729,3.014,6.729,6.732
	C941.604,392.193,938.589,395.207,934.873,395.207z M934.873,343.207c-3.719,0-6.732-3.014-6.732-6.732
	c0-3.718,3.018-6.732,6.732-6.732s6.729,3.014,6.729,6.732C941.604,340.193,938.589,343.207,934.873,343.207z M934.873,291.207
	c-3.719,0-6.732-3.014-6.732-6.732c0-3.718,3.018-6.732,6.732-6.732s6.729,3.014,6.729,6.732
	C941.604,288.193,938.589,291.207,934.873,291.207z M991.443,603.207c-3.725,0-6.732-3.014-6.732-6.732
	c0-3.718,3.014-6.729,6.732-6.729c3.717,0,6.729,3.014,6.729,6.729C998.173,600.193,995.162,603.207,991.443,603.207z
	 M991.443,551.207c-3.725,0-6.732-3.014-6.732-6.732c0-3.718,3.014-6.729,6.732-6.729c3.717,0,6.729,3.014,6.729,6.729
	C998.173,548.193,995.162,551.207,991.443,551.207z M991.443,499.207c-3.725,0-6.732-3.014-6.732-6.732
	c0-3.718,3.014-6.729,6.732-6.729c3.717,0,6.729,3.014,6.729,6.729C998.173,496.193,995.162,499.207,991.443,499.207z
	 M991.443,447.207c-3.725,0-6.732-3.014-6.732-6.732c0-3.718,3.014-6.729,6.732-6.729c3.717,0,6.729,3.014,6.729,6.729
	C998.173,444.193,995.162,447.207,991.443,447.207z M991.443,395.207c-3.725,0-6.732-3.014-6.732-6.732
	c0-3.718,3.014-6.732,6.732-6.732c3.717,0,6.729,3.014,6.729,6.732C998.173,392.193,995.162,395.207,991.443,395.207z
	 M991.443,343.207c-3.725,0-6.732-3.014-6.732-6.732c0-3.718,3.014-6.732,6.732-6.732c3.717,0,6.729,3.014,6.729,6.732
	C998.173,340.193,995.162,343.207,991.443,343.207z M1048.011,655.207c-3.719,0-6.729-3.014-6.729-6.732
	c0-3.718,3.014-6.729,6.729-6.729c3.718,0,6.732,3.014,6.732,6.729C1054.746,652.193,1051.73,655.207,1048.011,655.207z
	 M1048.011,603.207c-3.719,0-6.729-3.014-6.729-6.732c0-3.718,3.014-6.729,6.729-6.729c3.718,0,6.732,3.014,6.732,6.729
	C1054.746,600.193,1051.73,603.207,1048.011,603.207z M1048.011,551.207c-3.719,0-6.729-3.014-6.729-6.732
	c0-3.718,3.014-6.729,6.729-6.729c3.718,0,6.732,3.014,6.732,6.729C1054.746,548.193,1051.73,551.207,1048.011,551.207z
	 M1048.011,499.207c-3.719,0-6.729-3.014-6.729-6.732c0-3.718,3.014-6.729,6.729-6.729c3.718,0,6.732,3.014,6.732,6.729
	C1054.746,496.193,1051.73,499.207,1048.011,499.207z M1048.011,447.207c-3.719,0-6.729-3.014-6.729-6.732
	c0-3.718,3.014-6.729,6.729-6.729c3.718,0,6.732,3.014,6.732,6.729C1054.746,444.193,1051.73,447.207,1048.011,447.207z
	 M1048.011,395.207c-3.719,0-6.729-3.014-6.729-6.732c0-3.718,3.014-6.732,6.729-6.732c3.718,0,6.732,3.014,6.732,6.732
	C1054.746,392.193,1051.73,395.207,1048.011,395.207z M1104.583,655.207c-3.719,0-6.732-3.014-6.732-6.732
	c0-3.718,3.018-6.729,6.732-6.729s6.732,3.014,6.732,6.729C1111.314,652.193,1108.3,655.207,1104.583,655.207z M1104.583,603.207
	c-3.719,0-6.732-3.014-6.732-6.732c0-3.718,3.018-6.729,6.732-6.729s6.732,3.014,6.732,6.729
	C1111.314,600.193,1108.3,603.207,1104.583,603.207z M1104.583,551.207c-3.719,0-6.732-3.014-6.732-6.732
	c0-3.718,3.018-6.729,6.732-6.729s6.732,3.014,6.732,6.729C1111.314,548.193,1108.3,551.207,1104.583,551.207z M1104.583,499.207
	c-3.719,0-6.732-3.014-6.732-6.732c0-3.718,3.018-6.729,6.732-6.729s6.732,3.014,6.732,6.729
	C1111.314,496.193,1108.3,499.207,1104.583,499.207z M1104.583,447.207c-3.719,0-6.732-3.014-6.732-6.732
	c0-3.718,3.018-6.729,6.732-6.729s6.732,3.014,6.732,6.729C1111.314,444.193,1108.3,447.207,1104.583,447.207z M1161.154,707.207
	c-3.725,0-6.732-3.014-6.732-6.732c0-3.718,3.014-6.729,6.732-6.729c3.717,0,6.729,3.014,6.729,6.729
	C1167.884,704.193,1164.873,707.207,1161.154,707.207z M1161.154,655.207c-3.725,0-6.732-3.014-6.732-6.732
	c0-3.718,3.014-6.729,6.732-6.729c3.717,0,6.729,3.014,6.729,6.729C1167.884,652.193,1164.873,655.207,1161.154,655.207z
	 M1161.154,603.207c-3.725,0-6.732-3.014-6.732-6.732c0-3.718,3.014-6.729,6.732-6.729c3.717,0,6.729,3.014,6.729,6.729
	C1167.884,600.193,1164.873,603.207,1161.154,603.207z M1161.154,551.207c-3.725,0-6.732-3.014-6.732-6.732
	c0-3.718,3.014-6.729,6.732-6.729c3.717,0,6.729,3.014,6.729,6.729C1167.884,548.193,1164.873,551.207,1161.154,551.207z
	 M1161.154,499.207c-3.725,0-6.732-3.014-6.732-6.732c0-3.718,3.014-6.729,6.732-6.729c3.717,0,6.729,3.014,6.729,6.729
	C1167.884,496.193,1164.873,499.207,1161.154,499.207z M1217.722,759.207c-3.719,0-6.729-3.014-6.729-6.732
	c0-3.718,3.014-6.729,6.729-6.729c3.723,0,6.732,3.014,6.732,6.729C1224.457,756.193,1221.443,759.207,1217.722,759.207z
	 M1217.722,707.207c-3.719,0-6.729-3.014-6.729-6.732c0-3.718,3.014-6.729,6.729-6.729c3.723,0,6.732,3.014,6.732,6.729
	C1224.457,704.193,1221.443,707.207,1217.722,707.207z M1217.722,655.207c-3.719,0-6.729-3.014-6.729-6.732
	c0-3.718,3.014-6.729,6.729-6.729c3.723,0,6.732,3.014,6.732,6.729C1224.457,652.193,1221.443,655.207,1217.722,655.207z
	 M1217.722,603.207c-3.719,0-6.729-3.014-6.729-6.732c0-3.718,3.014-6.729,6.729-6.729c3.723,0,6.732,3.014,6.732,6.729
	C1224.457,600.193,1221.443,603.207,1217.722,603.207z M1217.722,551.207c-3.719,0-6.729-3.014-6.729-6.732
	c0-3.718,3.014-6.729,6.729-6.729c3.723,0,6.732,3.014,6.732,6.729C1224.457,548.193,1221.443,551.207,1217.722,551.207z
	 M1274.292,759.207c-3.719,0-6.732-3.014-6.732-6.732c0-3.718,3.02-6.729,6.732-6.729c3.717,0,6.732,3.014,6.732,6.729
	C1281.027,756.193,1278.011,759.207,1274.292,759.207z M1274.292,707.207c-3.719,0-6.732-3.014-6.732-6.732
	c0-3.718,3.02-6.729,6.732-6.729c3.717,0,6.732,3.014,6.732,6.729C1281.027,704.193,1278.011,707.207,1274.292,707.207z
	 M1274.292,655.207c-3.719,0-6.732-3.014-6.732-6.732c0-3.718,3.02-6.729,6.732-6.729c3.717,0,6.732,3.014,6.732,6.729
	C1281.027,652.193,1278.011,655.207,1274.292,655.207z M1274.292,603.207c-3.719,0-6.732-3.014-6.732-6.732
	c0-3.718,3.02-6.729,6.732-6.729c3.717,0,6.732,3.014,6.732,6.729C1281.027,600.193,1278.011,603.207,1274.292,603.207z
	 M1330.865,811.207c-3.721,0-6.732-3.014-6.732-6.732c0-3.718,3.014-6.729,6.732-6.729c3.717,0,6.729,3.014,6.729,6.729
	C1337.595,808.193,1334.583,811.207,1330.865,811.207z M1330.865,759.207c-3.721,0-6.732-3.014-6.732-6.732
	c0-3.718,3.014-6.729,6.732-6.729c3.717,0,6.729,3.014,6.729,6.729C1337.595,756.193,1334.583,759.207,1330.865,759.207z
	 M1330.865,707.207c-3.721,0-6.732-3.014-6.732-6.732c0-3.718,3.014-6.729,6.732-6.729c3.717,0,6.729,3.014,6.729,6.729
	C1337.595,704.193,1334.583,707.207,1330.865,707.207z M1330.865,655.207c-3.721,0-6.732-3.014-6.732-6.732
	c0-3.718,3.014-6.729,6.732-6.729c3.717,0,6.729,3.014,6.729,6.729C1337.595,652.193,1334.583,655.207,1330.865,655.207z
	 M1387.436,707.207c-3.722,0-6.729-3.014-6.729-6.732c0-3.718,3.014-6.729,6.729-6.729c3.72,0,6.729,3.014,6.729,6.729
	C1394.167,704.193,1391.154,707.207,1387.436,707.207z M1334.827,847.878c-1.021,2.164-2.033,4.566,0,6.528l0.005,0.001
	c13.03,3.737,22.564,15.743,22.564,29.975c0,17.221-13.961,31.181-31.182,31.181s-31.181-13.96-31.181-31.181
	c0-12.224,7.032-22.805,17.273-27.916c1.226-1.49,1.589-3.581,0-4.969l0.005,0.003c-6.276-2.521-11.854-7.475-17.301-12.314
	c-1.543-1.363-3.135-2.781-4.68-4.074c-11.502-9.652-313.131-204.104-468.264-299.164c-58.709-35.979-99.953-57.815-129.805-68.729
	c-27.277-9.971-43.891-10.742-64.379-10.742c-1.557,0-3.131,0.007-4.727,0.009l-0.197,0.004c-1.586,0.002-3.193,0.006-4.824,0.006
	c-3.604,0-8.409-0.015-13.563-0.154c-0.572-0.013-1.152-0.021-1.762-0.021c-56.822,0-287.753,65.247-308.22,72.805
	c-11.09,4.092-17.57,5.764-22.369,5.764c-6.619-0.002-10.026-3.194-12.256-5.979l-0.125-0.158l-0.115-0.166
	c-0.522-0.751-52.448-75.864-77.018-101.396c-23.98-24.924-148.123-80.729-170.193-87.734c-6.55-2.078-10.584-5.535-11.986-10.276
	c-3.024-10.224,7.073-22.495,23.805-42.828c6.387-7.762,13.629-16.561,21.27-26.607c19.705-25.9,101.826-79.428,149.023-109.032
	c70.477-44.201,136.951-81.804,160.504-92.618c11.475-5.267,22.644-11.854,34.461-18.828C420.807,20.858,456.18,0,506.414,0
	c10.531,0,21.527,0.925,32.683,2.758c66.668,10.932,123.552,29.852,173.899,57.84c43.969,24.443,77.309,52.664,106.723,77.563
	c10.906,9.23,21.203,17.947,31.666,26.211c79.396,62.713,192.244,155.777,255.32,239.584
	c34.043,45.231,113.979,109.968,175.041,156.312c68.476,51.974,130.146,93.597,136.158,96.365
	c7.199,3.316,11.484,7.84,12.748,13.436c1.517,6.776-1.406,14.271-9.215,23.582c-4.248,5.063-18.125,32.428-31.541,58.895
	c-20.224,39.875-41.135,81.109-50.701,91.314c-1.454,1.548-2.935,2.905-4.437,4.071L1334.827,847.878z"/>
</svg>
