<?xml version="1.0" encoding="utf-8"?>
<!-- Generator: Adobe Illustrator 16.0.0, SVG Export Plug-In . SVG Version: 6.00 Build 0)  -->
<!DOCTYPE svg PUBLIC "-//W3C//DTD SVG 1.1//EN" "http://www.w3.org/Graphics/SVG/1.1/DTD/svg11.dtd">
<svg version="1.1" id="Layer_1" xmlns="http://www.w3.org/2000/svg" xmlns:xlink="http://www.w3.org/1999/xlink" x="0px" y="0px"
	 width="1740.508px" height="737.998px" viewBox="0 0 1740.508 737.998" enable-background="new 0 0 1740.508 737.998"
	 xml:space="preserve">
<path fill="none" stroke="#000000" stroke-linejoin="round" stroke-miterlimit="10" d="M931.607,171.708
	c91.225,0.36,186.553,13.824,278.205,27.576c265.18,39.816,498.023,112.176,498.023,112.176s20.664,6.12,28.584,1.512
	c6.551-3.813,0.646-18.504,0.646-18.504l0,0l-15.844-97.272l0,0c0,0,0.072-9.576-5.9-14.472c-5.764-4.752-23.188-6.696-23.188-6.696
	s-180.863-7.632-326.809-40.392c-192.604-43.2-315.863-94.32-315.863-94.32S940.895,11.077,889.919,3.732
	C852.19-1.74,812.302,0.42,812.302,0.42l0,0L730.51,10.5l0,0c0,0-18.937,2.736-25.271,9.936
	c-9.146,10.44-10.584,23.544-10.584,23.544s-5.832,42.192-22.824,76.896c-13.536,27.72-60.771,53.136-60.771,53.136l0,0
	l-141.405,88.704l0,0c0,0,35.496-12.312,96.336-31.104C649.654,205.765,780.838,171.132,931.607,171.708L931.607,171.708
	 M1463.328,519.613c0,0,27.145,2.52,46.654-1.439c22.393-4.537,49.535-23.473,49.535-23.473l0,0l80.854-63.648l0,0
	c0,0,31.607-18,32.111-33.623c0.434-14.76-30.24-30.312-30.24-30.312s-105.336-42.84-169.852-66.456
	c-110.52-40.392-259.057-93.888-409.752-100.224C779.756,188.558,495.428,322.19,495.428,322.19s-29.444,18.144-63.646,21.813
	c-23.903,2.521-57.959-27.792-57.959-27.792s-61.704,33.264-133.272,78.696c-49.896,31.681-103.968,72.068-148.104,99.504
	c-46.728,28.941-80.352,44.566-80.352,44.566s-10.729,5.109-11.88,9.861c-1.296,5.543,3.744,14.328,3.744,14.328
	s6.84,20.018,11.016,41.256c3.96,20.021,5.184,41.399,5.184,41.399s-0.647,14.11,3.528,22.178
	c4.32,8.354,13.536,10.655,13.536,10.655s88.92,19.728,146.232,34.92c27.504,7.345,47.376,16.56,47.376,16.56
	s17.064,8.568,32.544,6.558c14.184-1.872,38.448-20.736,38.448-20.736s51.624-30.096,139.604-62.496
	c46.228-17.062,101.232-28.08,155.16-43.416c150.12-42.695,308.592-62.712,308.592-62.712s142.059-25.848,281.447-32.76
	C1326.311,507.661,1463.328,519.613,1463.328,519.613L1463.328,519.613"/>
</svg>
