<?xml version="1.0" encoding="utf-8"?>
<!-- Generator: Adobe Illustrator 16.0.0, SVG Export Plug-In . SVG Version: 6.00 Build 0)  -->
<!DOCTYPE svg PUBLIC "-//W3C//DTD SVG 1.1//EN" "http://www.w3.org/Graphics/SVG/1.1/DTD/svg11.dtd">
<svg version="1.1" id="Layer_1" xmlns="http://www.w3.org/2000/svg" xmlns:xlink="http://www.w3.org/1999/xlink" x="0px" y="0px"
	 width="1272.355px" height="654.209px" viewBox="0 0 1272.355 654.209" enable-background="new 0 0 1272.355 654.209"
	 xml:space="preserve">
<path d="M1271.813,403.217l-1.771-14.827c-0.211-2.945-2.223-7.472-5.555-13.871c-2.863-5.162-14.646-21.209-35.201-48.117
	l-9.217-11.803c-6.572-8.562-16.947-19.446-31.237-32.375c-22.192-20.382-47.763-44.476-76.487-72.25
	c-9.147-8.878-86.924-82.268-99.258-92.717c-13.279-11.394-37.646-28.972-73.266-53.051c-31.859-21.475-53.143-34.875-63.783-40.119
	C856.175,14.326,814.919,0.609,776.565,0c-10.479-0.049-38.896,2.514-45.979,4.068l-14.779,3.38
	c-3.242,0.749-8.211,1.821-14.729,3.024l-15.109,2.675l-14.791,3.451c-9.143,2.19-14.188,3.323-15.018,3.49
	c-24.704,5.452-39.588,9.036-44.702,10.595c-11.462,3.588-34.979,13.733-70.371,30.683l-13.851,6.87l-13.856,6.431
	c-19.969,9.296-28.022,28.471-29.85,33.802l-4.896,14.625c-6.846,20.763-15.566,39.677-28.188,57.477
	c-8.213,11.583-20.521,8.881-32.317,5.387c-6.974-2.065-13.766-4.676-20.646-7.01c-3.021-1.024-6.032-2.074-9.062-3.07
	c-8.521-2.8-17.312,0.833-23.89,6.321c-2.446,2.042-4.83,4.164-7.282,6.196c-7.653,6.346-39.421,31.123-95.324,74.033
	c-63.787,48.96-128.472,96.917-197.188,138.781c-40.244,24.518-61.187,38.328-62.851,41.645c-0.896,1.611-1.481,3.562-1.863,5.615
	c-0.729,4.334,15.053,42.17,30.745,66.086l4.139,3.465l252.094,53.057c36.536,7.688,86.729,20.377,129.916,31.295
	c58.83,14.873,167.69,42.305,176.448,44.787c15.36,4.354,25.212,6.639,29.6,7.008c6.99,0.471,26.902-2.646,59.648-9.289
	c7.575-1.537,59.465-10.482,89.219-15.611c59.507-10.258,119.022-20.518,178.199-32.562c32.155-6.547,64.875-9.83,97.121-15.877
	c43.784-8.207,83.957-28.24,121.696-51.418C1216.436,500.176,1278.815,461.868,1271.813,403.217z"/>
</svg>
