<?xml version="1.0" encoding="utf-8"?>
<!-- Generator: Adobe Illustrator 16.0.0, SVG Export Plug-In . SVG Version: 6.00 Build 0)  -->
<!DOCTYPE svg PUBLIC "-//W3C//DTD SVG 1.1//EN" "http://www.w3.org/Graphics/SVG/1.1/DTD/svg11.dtd">
<svg version="1.1" id="Layer_1" xmlns="http://www.w3.org/2000/svg" xmlns:xlink="http://www.w3.org/1999/xlink" x="0px" y="0px"
	 width="3521.498px" height="935.129px" viewBox="0 0 3521.498 935.129" enable-background="new 0 0 3521.498 935.129"
	 xml:space="preserve">
<path fill="none" stroke="#000001" stroke-linejoin="round" stroke-miterlimit="10" d="M1961.97,17.429
	c0,14.774-10.287,26.729-22.999,26.729c-5.603-0.557-11.399-0.855-17.408-0.855l0,0c-10.531,0-21.525,0.926-32.685,2.75
	c-66.67,10.932-123.554,29.851-173.9,57.839c-43.972,24.441-77.312,52.663-106.725,77.562c-10.904,9.23-21.203,17.948-31.666,26.211
	c-79.397,62.717-192.253,155.787-255.32,239.587c-34.043,45.233-113.979,109.967-175.041,156.313
	c-68.48,51.97-130.147,93.593-136.154,96.358c-7.203,3.318-11.49,7.845-12.748,13.449c-0.271,1.207-0.4,2.437-0.386,3.694
	l0.002-0.001c0,6.298-5.558,11.394-12.425,11.394v-0.003c-1.339-0.191-2.772-0.287-4.297-0.287c-8.148,0-18.637,2.631-31.878,6.586
	c-13.972,4.17-69.683,12.289-121.954,12.289c-31.21,0-56.485-2.773-75.132-8.248c-64.293-18.873-408.781-139.475-463.549-163.352
	c-58.1-25.328-247.775-109.535-260.306-115.691c-5.306-2.604-10.681-4.043-15.134-4.043l0,0c-7.076,0-10,3.568-11.114,5.697
	c-2.354,4.494-1.091,10.311,3.754,17.299c12.458,17.964,138.729,94.365,168.705,106.111
	c32.502,12.733,204.184,98.522,365.362,204.712c162.306,106.934,228.626,143.596,262.826,145.299
	c4.042,0.201,9.626,0.303,16.604,0.303c46.991,0,155.013-4.762,174.287-10.516c18.923-5.65,56.018-21.314,71.084-27.785
	c1.18-0.507,2.384-1.072,3.544-1.739c7.213-3.995,16.552-10.237,24.713-4.825c4.863,4.141,9.973,6.233,15.231,6.233
	c9.932,0,17.947-7.123,25.703-14.014c1.54-1.367,3.133-2.781,4.674-4.072c11.521-9.658,313.159-204.113,468.271-299.166
	c58.703-35.973,99.948-57.812,129.801-68.723c27.279-9.976,43.892-10.746,64.379-10.746c1.55,0,3.127,0.006,4.779,0.01h0.139
	c1.548,0.002,3.113,0.006,4.705,0.006c3.648,0,8.502-0.013,13.693-0.152c0.567-0.017,1.151-0.022,1.756-0.022
	c56.824,0,287.754,65.246,308.221,72.803c11.091,4.094,17.568,5.767,22.371,5.767c6.613,0,10.023-3.196,12.252-5.979l0.127-0.158
	l0.115-0.166c0.523-0.751,52.443-75.858,77.017-101.396c23.981-24.923,148.124-80.727,170.192-87.732
	c6.55-2.081,10.586-5.539,11.988-10.277c0.256-0.865,0.417-1.745,0.488-2.643h-0.005c0-24.635,20.309-44.57,45.406-44.569
	c18.219,3.16,34.004,4.144,39.259,4.144c0.938,0,2.816,0,4.521-0.665c29.562,1.986,167.529,13.248,365.06,29.812
	c193.233,16.205,363.381,30.774,371.545,31.815c0.586,0.075,1.203,0.11,1.884,0.11c14.588,0,65.473-20.056,94.504-32.012
	c40.671-16.746,80.526-34.936,93.953-42.853c1.949-1.149,6.174-0.48,8.295-0.172c2.802,0.406,5.521,1.261,8.14,2.32
	c6.371,2.577,12.189,6.343,18.605,8.815c3.573,1.377,7.387,2.082,11.217,2.082c17.221,0,31.181-13.96,31.181-31.181
	c0-17.221-13.96-31.181-31.181-31.181c-8.173,0-15.269,3.943-22.22,7.784c-3.503,1.936-7.073,3.705-11.039,4.532
	c-2.02,0.421-4.096,0.693-6.164,0.564c-1.286-0.08-5.139-0.341-5.936-1.537c-0.561-0.447-1.129-0.897-1.702-1.352
	c-3.688-2.927-7.507-5.953-11.033-9.373c-15.239-14.788-62.793-59.71-80.78-71.765c-12.576-8.431-17.284-11.585-28.117-11.583
	c-3.888,0-8.554,0.388-15.017,0.928c-1.143,0.094-2.502,0.143-4.045,0.143c-15.894,0-49.539-5.034-88.496-10.86
	c-25.357-3.793-54.092-8.093-82.922-11.765c-37.315-4.755-123.72-20.997-243.312-43.475
	c-130.062-24.449-291.933-54.876-461.954-83.882C2292.741,11.66,2182.838-0.003,2100.934,0c-34.174,0-58.143,2.02-73.2,3.54
	c-5.214,0.524-9.985,1.057-14.192,1.527c-9.758,1.09-17.465,1.951-23.756,1.951l-0.173-0.002h-0.442
	c-14.297,0-24.324,1.459-26.775,8.571c-0.177,0.514-0.306,1.024-0.389,1.532L1961.97,17.429z"/>
</svg>
