<?xml version="1.0" encoding="utf-8"?>
<!-- Generator: Adobe Illustrator 16.0.0, SVG Export Plug-In . SVG Version: 6.00 Build 0)  -->
<!DOCTYPE svg PUBLIC "-//W3C//DTD SVG 1.1//EN" "http://www.w3.org/Graphics/SVG/1.1/DTD/svg11.dtd">
<svg version="1.1" id="Layer_1" xmlns="http://www.w3.org/2000/svg" xmlns:xlink="http://www.w3.org/1999/xlink" x="0px" y="0px"
	 width="3513.75px" height="935.133px" viewBox="0 0 3513.75 935.133" enable-background="new 0 0 3513.75 935.133"
	 xml:space="preserve">
<path fill="none" stroke="#000000" stroke-linejoin="round" stroke-miterlimit="10" d="M2409.904,896.51
	c-9.932,0-17.947-7.123-25.701-14.012c-1.543-1.365-3.135-2.783-4.68-4.076c-11.504-9.652-313.133-204.1-468.267-299.164
	c-58.707-35.975-99.952-57.812-129.803-68.727c-27.28-9.977-43.89-10.744-64.378-10.744c-1.557,0-3.131,0.004-4.727,0.006
	l-0.197,0.004c-1.586,0.002-3.193,0.006-4.824,0.006c-3.607,0-8.41-0.018-13.566-0.15c-0.566-0.02-1.146-0.023-1.76-0.023
	c-56.822,0-287.752,65.248-308.219,72.805c-11.09,4.096-17.568,5.768-22.369,5.768c-6.619-0.004-10.023-3.197-12.256-5.98
	l-0.125-0.157l-0.115-0.166c-0.521-0.755-52.445-75.86-77.018-101.396c-23.979-24.922-148.123-80.728-170.193-87.735
	c-6.551-2.078-10.584-5.535-11.984-10.276c-3.021-10.224,7.074-22.495,23.807-42.827c6.387-7.763,13.629-16.562,21.271-26.607
	c19.703-25.9,101.824-79.429,149.021-109.032c70.479-44.201,136.951-81.804,160.504-92.618
	c11.471-5.268,22.641-11.854,34.461-18.828c31.211-18.404,66.584-39.263,116.818-39.263c10.529,0,21.525,0.925,32.682,2.754
	c66.668,10.932,123.551,29.852,173.9,57.84c43.969,24.443,77.309,52.664,106.723,77.563c10.906,9.229,21.203,17.947,31.666,26.211
	c79.396,62.713,192.244,155.777,255.32,239.583c34.043,45.235,113.979,109.975,175.041,156.315
	c68.479,51.973,130.147,93.596,136.155,96.365c7.201,3.312,11.488,7.84,12.746,13.439c1.521,6.781-1.405,14.275-9.213,23.582
	c-4.25,5.064-18.125,32.431-31.543,58.896c-20.225,39.875-41.133,81.105-50.7,91.312
	C2422.566,893.368,2416.35,896.51,2409.904,896.51L2409.904,896.51z M264.562,390.488c-14.595-0.005-65.476-20.062-94.508-32.015
	c-41.638-17.146-82.421-35.804-94.863-43.397c-5.834-3.561-13.647-9.218-14.137-17.194c-0.525-8.597,7.065-14.615,15.857-21.585
	c3.689-2.926,7.506-5.953,11.033-9.375c15.243-14.787,62.802-59.713,80.774-71.756c12.584-8.435,17.292-11.59,28.128-11.59
	c3.882,0,8.552,0.389,15.014,0.927c1.143,0.097,2.502,0.144,4.046,0.144c15.902,0,49.555-5.035,88.519-10.862
	c25.349-3.793,54.076-8.092,82.896-11.763c37.316-4.755,123.743-21.001,243.359-43.486c130.053-24.445,291.9-54.868,461.901-83.871
	C1227.42,11.664,1337.322,0,1419.239,0c34.159,0,58.131,2.02,73.188,3.537c5.213,0.524,9.979,1.059,14.184,1.527
	c9.768,1.091,17.482,1.955,23.777,1.955l0.166-0.003h0.435c14.309,0,24.338,1.459,26.787,8.572
	c2.828,8.215-6.612,15.598-20.903,26.77c-1.271,0.994-2.567,2.009-3.882,3.043c-13.631,10.735-42.621,24.981-82.747,44.699
	c-24.995,12.283-53.321,26.204-85.163,42.769c-85.916,44.701-226.486,142.235-253.812,167.54
	c-25.875,23.963-91.787,29.005-103.692,29.005c-0.925,0-1.654-0.024-2.229-0.074c-0.943-0.083-1.733-0.291-2.396-0.583
	c-29.786,2.004-167.659,13.255-364.954,29.802c-193.219,16.204-363.364,30.776-371.542,31.817
	C265.859,390.452,265.241,390.488,264.562,390.488L264.562,390.488z M2695.332,935.133c-46.986,0-154.99-4.764-174.27-10.52
	c-18.984-5.666-56.037-21.318-71.084-27.785c-4.218-1.812-8.752-4.369-10.435-9.635c-1.562-4.898-0.104-10.771,4.588-18.471
	c7.709-12.646,70.438-127.663,72.896-132.174c2.691-5.562,8.242-8.385,16.502-8.385c8.15,0,18.64,2.635,31.879,6.59
	c13.974,4.17,69.683,12.291,121.955,12.291c31.207,0,56.484-2.771,75.132-8.248c64.293-18.871,408.778-139.477,463.551-163.354
	c58.098-25.332,247.772-109.536,260.305-115.692c5.312-2.604,10.683-4.043,15.136-4.043c7.075,0,10.002,3.569,11.112,5.695
	c2.354,4.493,1.091,10.312-3.756,17.299c-12.453,17.963-138.728,94.363-168.703,106.113
	c-32.5,12.729-204.187,98.521-365.361,204.711c-162.311,106.93-228.631,143.594-262.827,145.297
	C2707.908,935.028,2702.316,935.133,2695.332,935.133L2695.332,935.133z"/>
</svg>
