<?xml version="1.0" encoding="utf-8"?>
<!-- Generator: Adobe Illustrator 16.0.0, SVG Export Plug-In . SVG Version: 6.00 Build 0)  -->
<!DOCTYPE svg PUBLIC "-//W3C//DTD SVG 1.1//EN" "http://www.w3.org/Graphics/SVG/1.1/DTD/svg11.dtd">
<svg version="1.1" id="Layer_1" xmlns="http://www.w3.org/2000/svg" xmlns:xlink="http://www.w3.org/1999/xlink" x="0px" y="0px"
	 width="3521.5px" height="935.129px" viewBox="0 0 3521.5 935.129" enable-background="new 0 0 3521.5 935.129"
	 xml:space="preserve">
<path fill="none" stroke="#000000" stroke-linejoin="round" stroke-miterlimit="10" d="M2477.128,325.9
	c-23.812-3.82-52.974-11.371-68.225-25.496c-27.33-25.304-167.902-122.842-253.813-167.537
	c-31.841-16.566-60.168-30.488-85.162-42.77c-40.125-19.72-69.117-33.965-82.748-44.701c-1.31-1.033-2.604-2.044-3.871-3.034
	c-12.718-9.941-21.598-16.883-21.412-24.077"/>
<path fill="none" stroke="#000000" stroke-linejoin="round" stroke-miterlimit="10" d="M3446.604,278.969
	c7.274,5.901,12.965,11.43,12.507,18.909c-0.486,7.977-8.304,13.634-14.138,17.193c-0.14,0.085-0.283,0.171-0.43,0.259"/>
<path fill="none" stroke="#000000" stroke-linejoin="round" stroke-miterlimit="10" d="M984.902,728.515
	c5.698,0.907,9.661,3.592,11.81,8.018c2.293,4.215,65.188,119.528,72.904,132.188c4.692,7.699,6.149,13.568,4.587,18.469
	c-1.43,4.484-4.925,7.006-8.532,8.773"/>
<path fill="none" stroke="#000000" stroke-linejoin="round" stroke-miterlimit="10" d="M2428.36,366.904
	c-1.279-9.13-10.52-20.362-24.191-36.973c-6.39-7.767-13.628-16.563-21.271-26.605c-19.705-25.902-101.828-79.433-149.021-109.035
	c-70.479-44.202-136.951-81.802-160.504-92.617c-11.471-5.268-22.639-11.854-34.463-18.828
	c-28.436-16.768-60.327-35.576-103.771-38.786"/>
<path fill="none" stroke="#000000" stroke-linejoin="round" stroke-miterlimit="10" d="M997.526,718.572
	c0.456,5.488,3.574,11.546,9.548,18.668c4.247,5.061,18.117,32.418,31.531,58.875c20.228,39.883,41.142,81.127,50.711,91.33
	c0.958,1.021,1.926,1.958,2.904,2.812"/>
</svg>
