<?xml version="1.0" encoding="utf-8"?>
<!-- Generator: Adobe Illustrator 16.0.0, SVG Export Plug-In . SVG Version: 6.00 Build 0)  -->
<!DOCTYPE svg PUBLIC "-//W3C//DTD SVG 1.1//EN" "http://www.w3.org/Graphics/SVG/1.1/DTD/svg11.dtd">
<svg version="1.1" id="Layer_1" xmlns="http://www.w3.org/2000/svg" xmlns:xlink="http://www.w3.org/1999/xlink" x="0px" y="0px"
	 width="3515.084px" height="935.133px" viewBox="0 0 3515.084 935.133" enable-background="new 0 0 3515.084 935.133"
	 xml:space="preserve">
<path fill="none" stroke="#000000" stroke-linejoin="round" stroke-miterlimit="10" d="M80.269,317.229
	c-1.439-0.792-2.692-1.512-3.743-2.153c-5.834-3.562-13.647-9.218-14.137-17.194c-0.525-8.597,7.065-14.615,15.857-21.585
	c0.67-0.531,1.344-1.066,2.021-1.606"/>
<path fill="none" stroke="#000000" stroke-linejoin="round" stroke-miterlimit="10" d="M2440.328,884.427
	c-0.376-4.322,1.298-9.401,5.137-15.704c7.711-12.646,70.438-127.663,72.896-132.174c2.277-4.702,6.596-7.446,12.867-8.183"/>
<path fill="none" stroke="#000000" stroke-linejoin="round" stroke-miterlimit="10" d="M2434.007,881.671
	c10.715-15.427,28.824-51.14,46.412-85.823c13.418-26.467,27.293-53.829,31.543-58.895c5.91-7.047,9.022-13.053,9.526-18.497"/>
<path fill="none" stroke="#000000" stroke-linejoin="round" stroke-miterlimit="10" d="M1584.346,43.752
	c-43.672,3.113-75.688,21.99-104.224,38.817c-11.821,6.974-22.989,13.561-34.461,18.828
	c-23.553,10.814-90.025,48.417-160.504,92.618c-47.197,29.604-129.317,83.132-149.021,109.032
	c-7.643,10.046-14.885,18.845-21.271,26.607c-14.638,17.791-24.2,29.41-24.337,38.886"/>
<path fill="none" stroke="#181716" stroke-linejoin="round" stroke-miterlimit="10" d="M1559.575,19.316
	c-0.637,6.834-9.262,13.579-21.368,23.042c-1.271,0.994-2.567,2.009-3.882,3.043c-13.63,10.735-42.621,24.981-82.747,44.699
	c-24.995,12.283-53.321,26.204-85.163,42.769c-85.916,44.701-226.486,142.235-253.812,167.54
	c-14.434,13.367-41.327,20.847-64.353,24.848"/>
</svg>
