<?xml version="1.0" encoding="utf-8"?>
<!-- Generator: Adobe Illustrator 16.0.0, SVG Export Plug-In . SVG Version: 6.00 Build 0)  -->
<!DOCTYPE svg PUBLIC "-//W3C//DTD SVG 1.1//EN" "http://www.w3.org/Graphics/SVG/1.1/DTD/svg11.dtd">
<svg version="1.1" id="Layer_1" xmlns="http://www.w3.org/2000/svg" xmlns:xlink="http://www.w3.org/1999/xlink" x="0px" y="0px"
	 width="1358.354px" height="779.484px" viewBox="0 0 1358.354 779.484" enable-background="new 0 0 1358.354 779.484"
	 xml:space="preserve">
<path fill="none" stroke="#000000" stroke-linejoin="round" stroke-miterlimit="10" d="M1344.267,59.462
	C1234.78,49.821,735.774,5.881,669.271,0.024c-4.787-0.421-11.457,4.668-13.512,7.31
	C356.271,392.919,206.463,569.583,64.866,643.488c-3.871,2.02-2.099,12.631-2.099,12.631l170.086,121.729l10.522,1.638
	c0,0,622.83-126.041,826.222-71.05c5.72,1.548,18.215-0.055,22.177-9.28c24.056-56.062,114.134-265.984,176.771-411.959
	c0.545-1.268-1.021-4.359-2.445-4.667c-42.57-9.201-142.053-30.7-142.053-30.7s-21.969-20.707,4.076-16.317
	c0,0,103.941,15.755,146.566,22.216c2.207,0.335,7.426-2.157,8.082-3.683c36.791-85.742,59.941-139.697,72.518-168.997
	C1361.79,69.888,1357.872,60.661,1344.267,59.462z"/>
</svg>
