<?xml version="1.0" encoding="utf-8"?>
<!-- Generator: Adobe Illustrator 16.0.0, SVG Export Plug-In . SVG Version: 6.00 Build 0)  -->
<!DOCTYPE svg PUBLIC "-//W3C//DTD SVG 1.1//EN" "http://www.w3.org/Graphics/SVG/1.1/DTD/svg11.dtd">
<svg version="1.1" id="Layer_1" xmlns="http://www.w3.org/2000/svg" xmlns:xlink="http://www.w3.org/1999/xlink" x="0px" y="0px"
	 width="1428.875px" height="536.898px" viewBox="0 0 1428.875 536.898" enable-background="new 0 0 1428.875 536.898"
	 xml:space="preserve">
<path fill="none" stroke="#000000" stroke-linejoin="round" stroke-miterlimit="10" d="M1367.305,256.302
	c-2.289-2.56-5.757-2.598-8.927-2.423c-3.755,0.207-7.509,0.467-11.263,0.69c-260.857,65.69-515.818,161.083-676.722,281.015
	c-4.688,3.498-22.604-0.506-26.959-5.916C323.862,132.542,119.511,157.013,2.519,10.83C-1.224,6.155-2.117-2.212,9.292,0.545
	c96.382,23.283,555.732,134.25,631.954,152.664c6.964,1.682,6.642,0.331,0.34-3.156c-14.339-7.932-40.14-22.209-55.366-30.63
	c-7.301-4.04-1.785-5.958,3.34-5.562c304.694,23.455,455.005,63.438,598.421,9.272c2.097-0.791,13.104,2.445,13.104,2.445
	s149.231,106.805,149.231,106.804c2.116,0.592,4.231,1.19,6.348,1.788c4.807,1.358,9.503,3.04,13.905-0.277
	c5.36-9.43,15.5-15.79,27.124-15.791c17.22,0,31.18,13.959,31.18,31.18c0,17.22-13.96,31.18-31.18,31.18
	c-14.809,0-27.204-10.321-30.389-24.162V256.302L1367.305,256.302z"/>
</svg>
