<?xml version="1.0" encoding="utf-8"?>
<!-- Generator: Adobe Illustrator 16.0.0, SVG Export Plug-In . SVG Version: 6.00 Build 0)  -->
<!DOCTYPE svg PUBLIC "-//W3C//DTD SVG 1.1//EN" "http://www.w3.org/Graphics/SVG/1.1/DTD/svg11.dtd">
<svg version="1.1" id="Layer_1" xmlns="http://www.w3.org/2000/svg" xmlns:xlink="http://www.w3.org/1999/xlink" x="0px" y="0px"
	 width="1377.719px" height="1567.869px" viewBox="0 0 1377.719 1567.869" enable-background="new 0 0 1377.719 1567.869"
	 xml:space="preserve">
<path fill="none" stroke="#000001" stroke-linejoin="round" stroke-miterlimit="10" d="M19.493,1180.126
	c-5.75-0.014-10.68-0.025-14.526-0.035c-5.76-0.015-6.597,3.12-2.062,8.842c39.726,50.136,236.306,298.221,288.825,364.496
	c3.483,4.395,5.921,6.701,7.274,6.95c0,0,20.15,6.314,20.153,6.317c2.702,0.764,5.554,1.173,8.501,1.173
	c17.221,0,31.182-13.96,31.182-31.182c0-17.221-13.961-31.181-31.182-31.181c-4.355,0-8.72,0.917-12.7,2.691
	c-4.56,2.033-8.202,5.846-13.237,6.773c-5.238,0.966-14.323,0.648-16.319-5.613c-2.2-6.901-4.54-14.242-6.994-21.94
	c0-44.762,183.581-80.983,410.45-80.983c227.9,0,412.314,36.222,412.314,80.984c-9.4,29.311-17.35,54.099-22.498,70.148
	c-3.98,12.423-1.586,13.696,6.658,3.331c52.637-66.188,249.658-313.92,289.471-363.981c4.543-5.712,3.713-8.849-2.047-8.845
	c-4.026,0.003-9.242,0.007-15.342,0.011c-182.021-0.001-329.312-375.673-329.312-839.931c0,0,44.709-243.236,55.467-307.669
	c4.354-26.117-10.811-44.551-34.184-31.452c-114.83,64.352-281.059,89.965-328.527,93.587c-8.092,0.617-12.932,3.453-13.521,8.061
	c-3.396,26.417-15.168,117.927-19.311,150.145c-0.861,6.693-1.914,7.093-2.521,1.559c-3.366-30.641-13.583-123.75-16.53-150.267
	c-0.513-4.617-5.303-7.536-13.379-8.293c-47.398-4.441-213.165-32.92-326.865-99.245c-23.144-13.501-38.624,4.669-34.713,30.857
	c9.643,64.609,50.145,308.581,50.145,308.581C344.164,806.163,198.95,1180.126,19.493,1180.126z"/>
</svg>
