<?xml version="1.0" encoding="utf-8"?>
<!-- Generator: Adobe Illustrator 16.0.0, SVG Export Plug-In . SVG Version: 6.00 Build 0)  -->
<!DOCTYPE svg PUBLIC "-//W3C//DTD SVG 1.1//EN" "http://www.w3.org/Graphics/SVG/1.1/DTD/svg11.dtd">
<svg version="1.1" id="Layer_1" xmlns="http://www.w3.org/2000/svg" xmlns:xlink="http://www.w3.org/1999/xlink" x="0px" y="0px"
	 width="758.027px" height="1238.43px" viewBox="0 0 758.027 1238.43" enable-background="new 0 0 758.027 1238.43"
	 xml:space="preserve">
<path fill="none" stroke="#000000" stroke-linejoin="round" stroke-miterlimit="10" d="M241.999,45.355
	c0.359-7.425,4.875-10.713,12.634-9.392c59.792,10.186,323.702,55.146,386.878,65.908c8.729,1.486,13.72,10.907,13.816,15.625
	c4.287,207.623,70.744,955.532,102.438,1111.333c1.752,8.619-5.666,12.026-11.096,7.771
	C601.686,1123.045,389.21,943.282,244.856,782.217c-34.635-38.645-34.548-80.875-34.548-80.875S237.739,133.542,241.999,45.355z
	 M225.923,46.926c-11.494,99.315-97.925,485.25-119.576,565.286c-10.689,39.515-35.893,32.955-42.43-0.088
	C19.318,386.691,5.017,98.242,0.004,5.755C-0.131,3.254,3.015-0.789,8.98,0.134C46.728,5.972,187.292,27.712,220.2,32.802
	C224.643,33.49,226.52,41.772,225.923,46.926z"/>
</svg>
