<?xml version="1.0" encoding="utf-8"?>
<!-- Generator: Adobe Illustrator 16.0.0, SVG Export Plug-In . SVG Version: 6.00 Build 0)  -->
<!DOCTYPE svg PUBLIC "-//W3C//DTD SVG 1.1//EN" "http://www.w3.org/Graphics/SVG/1.1/DTD/svg11.dtd">
<svg version="1.1" id="Layer_1" xmlns="http://www.w3.org/2000/svg" xmlns:xlink="http://www.w3.org/1999/xlink" x="0px" y="0px"
	 width="758.027px" height="1238.43px" viewBox="0 0 758.027 1238.43" enable-background="new 0 0 758.027 1238.43"
	 xml:space="preserve">
<path d="M242,45.355c0.358-7.425,4.875-10.713,12.634-9.392c59.794,10.186,323.703,55.146,386.88,65.908
	c8.726,1.486,13.72,10.907,13.813,15.625c4.287,207.623,70.744,955.533,102.438,1111.333c1.752,8.619-5.666,12.026-11.097,7.771
	c-144.982-113.557-357.46-293.318-501.813-454.385c-34.635-38.645-34.548-80.875-34.548-80.875S237.739,133.542,242,45.355z
	 M225.924,46.926c-11.492,99.315-97.925,485.25-119.574,565.286c-10.688,39.515-35.895,32.956-42.432-0.088
	C19.318,386.691,5.017,98.243,0.005,5.755C-0.13,3.254,3.015-0.789,8.98,0.134c37.748,5.838,178.312,27.578,211.221,32.668
	C224.643,33.491,226.52,41.772,225.924,46.926z"/>
</svg>
