<?xml version="1.0" encoding="utf-8"?>
<!-- Generator: Adobe Illustrator 16.0.0, SVG Export Plug-In . SVG Version: 6.00 Build 0)  -->
<!DOCTYPE svg PUBLIC "-//W3C//DTD SVG 1.1//EN" "http://www.w3.org/Graphics/SVG/1.1/DTD/svg11.dtd">
<svg version="1.1" id="Layer_1" xmlns="http://www.w3.org/2000/svg" xmlns:xlink="http://www.w3.org/1999/xlink" x="0px" y="0px"
	 width="1739.51px" height="736.998px" viewBox="0 0 1739.51 736.998" enable-background="new 0 0 1739.51 736.998"
	 xml:space="preserve">
<path fill="none" stroke="#000000" stroke-linejoin="round" stroke-miterlimit="10" d="M807.906,171.708
	c-91.229,0.36-186.553,13.824-278.208,27.576C264.522,239.102,31.674,311.46,31.674,311.46s-20.664,6.12-28.584,1.512
	c-6.552-3.813-0.648-18.504-0.648-18.504l0,0l15.84-97.272l0,0c0,0-0.072-9.576,5.904-14.472c5.76-4.752,23.184-6.696,23.184-6.696
	s180.864-7.632,326.808-40.392c192.604-43.2,315.864-94.32,315.864-94.32s108.576-30.24,159.552-37.584
	c37.729-5.472,77.615-3.312,77.615-3.312l0,0l81.793,10.08l0,0c0,0,18.938,2.736,25.271,9.936
	c9.145,10.44,10.584,23.544,10.584,23.544s5.832,42.192,22.82,76.896c13.535,27.72,60.771,53.136,60.771,53.136l0,0l141.408,88.704
	l0,0c0,0-35.496-12.312-96.336-31.104C1089.859,205.765,958.674,171.132,807.906,171.708L807.906,171.708 M276.187,519.613
	c0,0-27.146,2.52-46.656-1.439c-22.392-4.537-49.536-23.473-49.536-23.473l0,0l-80.856-63.648l0,0c0,0-31.608-18-32.112-33.623
	c-0.432-14.76,30.24-30.312,30.24-30.312s105.336-42.84,169.848-66.456c110.521-40.392,259.056-93.888,409.752-100.224
	c282.888-11.88,567.216,121.751,567.216,121.751s29.447,18.145,63.646,21.814c23.903,2.521,57.961-27.792,57.961-27.792
	s61.702,33.264,133.271,78.694c49.896,31.683,103.969,72.069,148.104,99.506c46.729,28.94,80.354,44.565,80.354,44.565
	s10.728,5.109,11.879,9.861c1.297,5.543-3.744,14.328-3.744,14.328s-6.84,20.018-11.016,41.256
	c-3.959,20.021-5.188,41.399-5.188,41.399s0.648,14.107-3.521,22.177c-4.32,8.354-13.537,10.655-13.537,10.655
	s-88.92,19.728-146.229,34.92c-27.507,7.345-47.375,16.56-47.375,16.56s-17.063,8.568-32.548,6.559
	c-14.184-1.872-38.443-20.736-38.443-20.736s-51.623-30.096-139.607-62.496c-46.225-17.062-101.229-28.08-155.16-43.416
	c-150.118-42.694-308.592-62.711-308.592-62.711s-142.056-25.848-281.448-32.76C413.202,507.661,276.187,519.613,276.187,519.613
	L276.187,519.613"/>
</svg>
