<?xml version="1.0" encoding="utf-8"?>
<!-- Generator: Adobe Illustrator 16.0.0, SVG Export Plug-In . SVG Version: 6.00 Build 0)  -->
<!DOCTYPE svg PUBLIC "-//W3C//DTD SVG 1.1//EN" "http://www.w3.org/Graphics/SVG/1.1/DTD/svg11.dtd">
<svg version="1.1" id="Layer_1" xmlns="http://www.w3.org/2000/svg" xmlns:xlink="http://www.w3.org/1999/xlink" x="0px" y="0px"
	 width="758.025px" height="1238.433px" viewBox="0 0 758.025 1238.433" enable-background="new 0 0 758.025 1238.433"
	 xml:space="preserve">
<path d="M516.027,45.357c-0.355-7.426-4.876-10.714-12.635-9.393c-59.791,10.187-323.701,55.146-386.878,65.908
	c-8.727,1.486-13.721,10.907-13.816,15.626C98.412,325.123,31.955,1073.031,0.262,1228.832c-1.755,8.619,5.666,12.027,11.096,7.773
	c144.981-113.557,357.459-293.32,501.814-454.387c34.635-38.645,34.547-80.875,34.547-80.875S520.286,133.543,516.027,45.357z
	 M532.104,46.927c11.494,99.314,97.926,485.25,119.576,565.285c10.688,39.516,35.893,32.954,42.43-0.088
	c44.6-225.433,58.9-513.882,63.912-606.368c0.137-2.501-3.01-6.544-8.975-5.622c-37.747,5.84-178.312,27.579-211.221,32.669
	C533.385,33.492,531.51,41.773,532.104,46.927z"/>
</svg>
