<?xml version="1.0" encoding="utf-8"?>
<!-- Generator: Adobe Illustrator 16.0.0, SVG Export Plug-In . SVG Version: 6.00 Build 0)  -->
<!DOCTYPE svg PUBLIC "-//W3C//DTD SVG 1.1//EN" "http://www.w3.org/Graphics/SVG/1.1/DTD/svg11.dtd">
<svg version="1.1" id="Layer_1" xmlns="http://www.w3.org/2000/svg" xmlns:xlink="http://www.w3.org/1999/xlink" x="0px" y="0px"
	 width="2279.758px" height="1056.764px" viewBox="0 0 2279.758 1056.764" enable-background="new 0 0 2279.758 1056.764"
	 xml:space="preserve">
<path fill="none" stroke="#000001" stroke-linejoin="round" stroke-miterlimit="10" d="M1443.307,1012.004
	c-0.075-0.005-0.148-0.015-0.224-0.018c-4.023-0.149-8.104-0.02-12.13,0.022c-8.5,0.09-17.021,0.091-25.521,0.029
	c-10.032-0.072-20.06,0.014-30.092-0.104c-4.854-0.057-9.705,0.233-14.559,0.167c-4.067-0.056-8.096-0.341-12.165-0.109
	c-7.97,0.453-16.245,0.445-23.709,3.656c-9.194,4.595-21.203,7.952-36.333,7.314l-784.844,33.801c0,0-129.346,0.489-178.609-99.457
	c0,0-250.142-571.062-288.313-658.206c-0.2-0.457-0.355-0.892-0.469-1.306c0.001,0.001-35.533-89.685-35.533-89.685l-0.004,0.002
	c-1.54-3.778-1.169-9.457,3.851-15.702C38.409,150.404,126.991,40.175,154.387,6.086c5.199-6.469,19.447-7.002,25.975-5.169
	C403.149,63.46,1219.15,285.605,1492.664,322.082c5.262,0,10.113-2.705,13.138-6.947c3.808-5.341,3.183-10.378,3.183-16.615
	c0-17.221,13.96-31.182,31.182-31.182c17.221,0,31.181,13.96,31.181,31.182c0,3.274-0.74,6.936-1.688,10.058
	c-1.695,5.589-5.275,10.441-9.775,14.117c-2.222,1.815-4.687,3.309-7.345,4.394c-4.315,1.762-8.825,3.737-11.651,7.617
	c-1.902,2.611-2.964,5.697-4.286,8.636c-0.458,1.018-0.947,2.017-1.513,2.974c-6.324,10.688-14.287,23.863-14.287,23.863
	c-9.352,14.76-38.501,61.415-4.547,66.027c178.766,0.177,601.521,0.596,735.092,0.725c26.133,0.026,31.584,21.879,26.898,32.554
	c-108.896,248.099-175.07,408.377-259.318,489.899c-3.146,3.049-17.078,5.289-20.865,3.629
	c-188.656-82.688-399.348,5.36-548.422,48.312c-1.946,0.561-4.187,0.792-6.557,0.675L1443.307,1012.004z"/>
</svg>
