<?xml version="1.0" encoding="utf-8"?>
<!-- Generator: Adobe Illustrator 16.0.0, SVG Export Plug-In . SVG Version: 6.00 Build 0)  -->
<!DOCTYPE svg PUBLIC "-//W3C//DTD SVG 1.1//EN" "http://www.w3.org/Graphics/SVG/1.1/DTD/svg11.dtd">
<svg version="1.1" id="Layer_1" xmlns="http://www.w3.org/2000/svg" xmlns:xlink="http://www.w3.org/1999/xlink" x="0px" y="0px"
	 width="2279.758px" height="1056.764px" viewBox="0 0 2279.758 1056.764" enable-background="new 0 0 2279.758 1056.764"
	 xml:space="preserve">
<path fill="none" stroke="#000000" stroke-linejoin="round" stroke-miterlimit="10" d="M1536.617,343.378
	c6.194-13.957-8.982-17.183-25.768-19.058c-5.76-0.643-11.826-1.391-18.186-2.239"/>
<path fill="none" stroke="#000000" stroke-linejoin="round" stroke-miterlimit="10" d="M1516.254,436.205
	c-27.081-0.027-48.563-0.048-62.592-0.062c-11.939-0.013-18.66,5.819-18.984,16.328c-2.426,78.795-12.938,420.173-16.381,532.026
	c-0.569,18.522,13.556,26.942,24.785,27.501"/>
<path fill="none" stroke="#000000" stroke-linejoin="round" stroke-miterlimit="10" d="M1324.908,1015.649
	c16.673-8.33,24.094-20.723,24.094-20.723s3.598-378.586,4.85-510.326c0.265-27.75-28.272-45.987-45.162-47.064
	C1019.401,419.086,253.612,333.118,47.078,291.221c-5.092-1.033-12.418,0.467-10.739,6.574"/>
<path fill="none" stroke="#000000" stroke-linejoin="round" stroke-miterlimit="10" d="M0.801,208.113
	c0.993,2.437,2.781,4.083,4.629,4.579c431.828,116.088,1218.133,193.14,1423.842,181.24c21.266-1.229,71.088-7.312,91.528-23.754"/>
</svg>
