<?xml version="1.0" encoding="utf-8"?>
<!-- Generator: Adobe Illustrator 16.0.0, SVG Export Plug-In . SVG Version: 6.00 Build 0)  -->
<!DOCTYPE svg PUBLIC "-//W3C//DTD SVG 1.1//EN" "http://www.w3.org/Graphics/SVG/1.1/DTD/svg11.dtd">
<svg version="1.1" id="Layer_1" xmlns="http://www.w3.org/2000/svg" xmlns:xlink="http://www.w3.org/1999/xlink" x="0px" y="0px"
	 width="490.277px" height="548.304px" viewBox="0 0 490.277 548.304" enable-background="new 0 0 490.277 548.304"
	 xml:space="preserve">
<path d="M447.244,2.423C412.87,12.43,293.579,27.806,245.194,24.686C196.845,21.568,77.515,11.819,43.164,1.682
	C23.145-4.226-3.419,4.286,0.364,45.619C4.806,94.175,44.477,346.042,60.45,459.996c2.174,15.504,12.889,31.74,25.821,38.883
	c4.568,2.525,157.138,49.256,157.138,49.256l0.001,0.17c0.271-0.02,0.542-0.104,0.814-0.08c0.26,0.027,0.776,0.08,0.776,0.08
	l0.002-0.164c59.596-6.387,152.735-46.172,157.315-48.68c12.959-7.098,23.73-23.295,25.962-38.791
	c16.394-113.893,56.98-365.612,61.604-414.15C493.818,5.197,467.286-3.411,447.244,2.423z"/>
</svg>
