<?xml version="1.0" encoding="utf-8"?>
<!-- Generator: Adobe Illustrator 16.0.0, SVG Export Plug-In . SVG Version: 6.00 Build 0)  -->
<!DOCTYPE svg PUBLIC "-//W3C//DTD SVG 1.1//EN" "http://www.w3.org/Graphics/SVG/1.1/DTD/svg11.dtd">
<svg version="1.1" id="Layer_1" xmlns="http://www.w3.org/2000/svg" xmlns:xlink="http://www.w3.org/1999/xlink" x="0px" y="0px"
	 width="1282.691px" height="788.832px" viewBox="0 0 1282.691 788.832" enable-background="new 0 0 1282.691 788.832"
	 xml:space="preserve">
<path d="M1280.349,656.88C1140.446,579.818,994.642,399.835,703.884,7.625c-1.992-2.688-8.548-7.925-13.342-7.611
	c-66.619,4.362-566.484,37.09-676.163,44.271C0.751,45.176-3.373,54.312,2.789,69.611C14.7,99.186,36.637,153.647,71.494,240.193
	c0.62,1.54,5.783,4.148,7.997,3.863c42.758-5.502,147.026-18.921,147.026-18.921c26.137-3.804,3.71,16.405,3.71,16.405
	S130.29,260.8,87.521,269.043c-1.43,0.276-3.065,3.332-2.551,4.611C144.317,421,229.659,632.89,252.451,689.479
	c3.751,9.313,16.208,11.194,21.96,9.776c204.577-50.414,824.42,89.576,824.42,89.576l10.559-1.396l172.773-117.883
	C1282.162,669.554,1284.175,658.986,1280.349,656.88z M46.333,114.856c-3.719,0-6.73-3.014-6.73-6.732s3.015-6.732,6.73-6.732
	s6.731,3.014,6.731,6.732S50.053,114.856,46.333,114.856z M102.905,218.856c-3.719,0-6.731-3.014-6.731-6.732
	s3.016-6.732,6.731-6.732c3.719,0,6.732,3.014,6.732,6.732S106.623,218.856,102.905,218.856z M102.905,166.856
	c-3.719,0-6.731-3.014-6.731-6.732s3.016-6.732,6.731-6.732c3.719,0,6.732,3.014,6.732,6.732S106.623,166.856,102.905,166.856z
	 M102.905,114.856c-3.719,0-6.731-3.014-6.731-6.732s3.016-6.732,6.731-6.732c3.719,0,6.732,3.014,6.732,6.732
	S106.623,114.856,102.905,114.856z M102.905,62.856c-3.719,0-6.731-3.014-6.731-6.732s3.016-6.732,6.731-6.732
	c3.719,0,6.732,3.014,6.732,6.732S106.623,62.856,102.905,62.856z M159.475,218.856c-3.721,0-6.731-3.014-6.731-6.732
	s3.014-6.732,6.731-6.732c3.717,0,6.73,3.014,6.73,6.732S163.194,218.856,159.475,218.856z M159.475,166.856
	c-3.721,0-6.731-3.014-6.731-6.732s3.014-6.732,6.731-6.732c3.717,0,6.73,3.014,6.73,6.732S163.194,166.856,159.475,166.856z
	 M159.475,114.856c-3.721,0-6.731-3.014-6.731-6.732s3.014-6.732,6.731-6.732c3.717,0,6.73,3.014,6.73,6.732
	S163.194,114.856,159.475,114.856z M159.475,62.856c-3.721,0-6.731-3.014-6.731-6.732s3.014-6.732,6.731-6.732
	c3.717,0,6.73,3.014,6.73,6.732S163.194,62.856,159.475,62.856z M216.044,166.856c-3.719,0-6.73-3.014-6.73-6.732
	s3.015-6.732,6.73-6.732c3.719,0,6.731,3.014,6.731,6.732S219.764,166.856,216.044,166.856z M216.044,114.856
	c-3.719,0-6.73-3.014-6.73-6.732s3.015-6.732,6.73-6.732c3.719,0,6.731,3.014,6.731,6.732S219.764,114.856,216.044,114.856z
	 M216.044,62.856c-3.719,0-6.73-3.014-6.73-6.732s3.015-6.732,6.73-6.732c3.719,0,6.731,3.014,6.731,6.732
	S219.764,62.856,216.044,62.856z M159.475,374.856c-3.721,0-6.731-3.014-6.731-6.732s3.014-6.732,6.731-6.732
	c3.717,0,6.73,3.014,6.73,6.732S163.194,374.856,159.475,374.856z M159.475,322.856c-3.721,0-6.731-3.014-6.731-6.732
	s3.014-6.732,6.731-6.732c3.717,0,6.73,3.014,6.73,6.732S163.194,322.856,159.475,322.856z M216.044,530.859
	c-3.719,0-6.73-3.021-6.73-6.732c0-3.715,3.015-6.732,6.73-6.732c3.719,0,6.731,3.019,6.731,6.732
	C222.776,527.839,219.764,530.859,216.044,530.859z M216.044,478.859c-3.719,0-6.73-3.021-6.73-6.732
	c0-3.715,3.015-6.732,6.73-6.732c3.719,0,6.731,3.019,6.731,6.732C222.776,475.839,219.764,478.859,216.044,478.859z
	 M216.044,426.859c-3.719,0-6.73-3.021-6.73-6.732c0-3.715,3.015-6.73,6.73-6.73c3.719,0,6.731,3.017,6.731,6.73
	C222.776,423.839,219.764,426.859,216.044,426.859z M216.044,374.856c-3.719,0-6.73-3.014-6.73-6.732s3.015-6.732,6.73-6.732
	c3.719,0,6.731,3.014,6.731,6.732S219.764,374.856,216.044,374.856z M216.044,322.856c-3.719,0-6.73-3.014-6.73-6.732
	s3.015-6.732,6.73-6.732c3.719,0,6.731,3.014,6.731,6.732S219.764,322.856,216.044,322.856z M272.615,634.859
	c-3.72,0-6.732-3.021-6.732-6.732c0-3.715,3.016-6.732,6.732-6.732s6.731,3.019,6.731,6.732
	C279.347,631.839,276.333,634.859,272.615,634.859z M272.615,582.859c-3.72,0-6.732-3.021-6.732-6.732
	c0-3.715,3.016-6.732,6.732-6.732s6.731,3.019,6.731,6.732C279.347,579.839,276.333,582.859,272.615,582.859z M272.615,530.859
	c-3.72,0-6.732-3.021-6.732-6.732c0-3.715,3.016-6.732,6.732-6.732s6.731,3.019,6.731,6.732
	C279.347,527.839,276.333,530.859,272.615,530.859z M272.615,478.859c-3.72,0-6.732-3.021-6.732-6.732
	c0-3.715,3.016-6.732,6.732-6.732s6.731,3.019,6.731,6.732C279.347,475.839,276.333,478.859,272.615,478.859z M272.615,426.859
	c-3.72,0-6.732-3.021-6.732-6.732c0-3.715,3.016-6.73,6.732-6.73s6.731,3.017,6.731,6.73
	C279.347,423.839,276.333,426.859,272.615,426.859z M272.615,374.856c-3.72,0-6.732-3.014-6.732-6.732s3.016-6.732,6.732-6.732
	s6.731,3.014,6.731,6.732S276.333,374.856,272.615,374.856z M272.615,322.856c-3.72,0-6.732-3.014-6.732-6.732
	s3.016-6.732,6.732-6.732s6.731,3.014,6.731,6.732S276.333,322.856,272.615,322.856z M272.615,270.856
	c-3.72,0-6.732-3.014-6.732-6.732s3.016-6.732,6.732-6.732s6.731,3.014,6.731,6.732S276.333,270.856,272.615,270.856z
	 M272.615,218.856c-3.72,0-6.732-3.014-6.732-6.732s3.016-6.732,6.732-6.732s6.731,3.014,6.731,6.732
	S276.333,218.856,272.615,218.856z M272.615,166.856c-3.72,0-6.732-3.014-6.732-6.732s3.016-6.732,6.732-6.732
	s6.731,3.014,6.731,6.732S276.333,166.856,272.615,166.856z M272.615,114.856c-3.72,0-6.732-3.014-6.732-6.732
	s3.016-6.732,6.732-6.732s6.731,3.014,6.731,6.732S276.333,114.856,272.615,114.856z M272.615,62.856
	c-3.72,0-6.732-3.014-6.732-6.732s3.016-6.732,6.732-6.732s6.731,3.014,6.731,6.732S276.333,62.856,272.615,62.856z
	 M329.186,634.859c-3.719,0-6.73-3.021-6.73-6.732c0-3.715,3.017-6.732,6.73-6.732c3.72,0,6.732,3.019,6.732,6.732
	C335.919,631.839,332.905,634.859,329.186,634.859z M329.186,582.859c-3.719,0-6.73-3.021-6.73-6.732
	c0-3.715,3.017-6.732,6.73-6.732c3.72,0,6.732,3.019,6.732,6.732C335.919,579.839,332.905,582.859,329.186,582.859z
	 M329.186,530.859c-3.719,0-6.73-3.021-6.73-6.732c0-3.715,3.017-6.732,6.73-6.732c3.72,0,6.732,3.019,6.732,6.732
	C335.919,527.839,332.905,530.859,329.186,530.859z M329.186,478.859c-3.719,0-6.73-3.021-6.73-6.732
	c0-3.715,3.017-6.732,6.73-6.732c3.72,0,6.732,3.019,6.732,6.732C335.919,475.839,332.905,478.859,329.186,478.859z
	 M329.186,426.859c-3.719,0-6.73-3.021-6.73-6.732c0-3.715,3.017-6.73,6.73-6.73c3.72,0,6.732,3.017,6.732,6.73
	C335.919,423.839,332.905,426.859,329.186,426.859z M329.186,374.856c-3.719,0-6.73-3.014-6.73-6.732s3.017-6.732,6.73-6.732
	c3.72,0,6.732,3.014,6.732,6.732S332.905,374.856,329.186,374.856z M329.186,322.856c-3.719,0-6.73-3.014-6.73-6.732
	s3.017-6.732,6.73-6.732c3.72,0,6.732,3.014,6.732,6.732S332.905,322.856,329.186,322.856z M329.186,270.856
	c-3.719,0-6.73-3.014-6.73-6.732s3.017-6.732,6.73-6.732c3.72,0,6.732,3.014,6.732,6.732S332.905,270.856,329.186,270.856z
	 M329.186,218.856c-3.719,0-6.73-3.014-6.73-6.732s3.017-6.732,6.73-6.732c3.72,0,6.732,3.014,6.732,6.732
	S332.905,218.856,329.186,218.856z M329.186,166.856c-3.719,0-6.73-3.014-6.73-6.732s3.017-6.732,6.73-6.732
	c3.72,0,6.732,3.014,6.732,6.732S332.905,166.856,329.186,166.856z M329.186,114.856c-3.719,0-6.73-3.014-6.73-6.732
	s3.017-6.732,6.73-6.732c3.72,0,6.732,3.014,6.732,6.732S332.905,114.856,329.186,114.856z M329.186,62.856
	c-3.719,0-6.73-3.014-6.73-6.732s3.017-6.732,6.73-6.732c3.72,0,6.732,3.014,6.732,6.732S332.905,62.856,329.186,62.856z
	 M385.757,634.859c-3.722,0-6.73-3.021-6.73-6.732c0-3.715,3.014-6.732,6.73-6.732c3.716,0,6.729,3.019,6.729,6.732
	C392.487,631.839,389.475,634.859,385.757,634.859z M385.757,582.859c-3.722,0-6.73-3.021-6.73-6.732
	c0-3.715,3.014-6.732,6.73-6.732c3.716,0,6.729,3.019,6.729,6.732C392.487,579.839,389.475,582.859,385.757,582.859z
	 M385.757,530.859c-3.722,0-6.73-3.021-6.73-6.732c0-3.715,3.014-6.732,6.73-6.732c3.716,0,6.729,3.019,6.729,6.732
	C392.487,527.839,389.475,530.859,385.757,530.859z M385.757,478.859c-3.722,0-6.73-3.021-6.73-6.732
	c0-3.715,3.014-6.732,6.73-6.732c3.716,0,6.729,3.019,6.729,6.732C392.487,475.839,389.475,478.859,385.757,478.859z
	 M385.757,426.859c-3.722,0-6.73-3.021-6.73-6.732c0-3.715,3.014-6.73,6.73-6.73c3.716,0,6.729,3.017,6.729,6.73
	C392.487,423.839,389.475,426.859,385.757,426.859z M385.757,374.856c-3.722,0-6.73-3.014-6.73-6.732s3.014-6.732,6.73-6.732
	c3.716,0,6.729,3.014,6.729,6.732S389.475,374.856,385.757,374.856z M385.757,322.856c-3.722,0-6.73-3.014-6.73-6.732
	s3.014-6.732,6.73-6.732c3.716,0,6.729,3.014,6.729,6.732S389.475,322.856,385.757,322.856z M385.757,270.856
	c-3.722,0-6.73-3.014-6.73-6.732s3.014-6.732,6.73-6.732c3.716,0,6.729,3.014,6.729,6.732S389.475,270.856,385.757,270.856z
	 M385.757,218.856c-3.722,0-6.73-3.014-6.73-6.732s3.014-6.732,6.73-6.732c3.716,0,6.729,3.014,6.729,6.732
	S389.475,218.856,385.757,218.856z M385.757,166.856c-3.722,0-6.73-3.014-6.73-6.732s3.014-6.732,6.73-6.732
	c3.716,0,6.729,3.014,6.729,6.732S389.475,166.856,385.757,166.856z M385.757,114.856c-3.722,0-6.73-3.014-6.73-6.732
	s3.014-6.732,6.73-6.732c3.716,0,6.729,3.014,6.729,6.732S389.475,114.856,385.757,114.856z M385.757,62.856
	c-3.722,0-6.73-3.014-6.73-6.732s3.014-6.732,6.73-6.732c3.716,0,6.729,3.014,6.729,6.732S389.475,62.856,385.757,62.856z
	 M442.325,634.859c-3.719,0-6.729-3.021-6.729-6.732c0-3.715,3.016-6.732,6.729-6.732c3.719,0,6.73,3.019,6.73,6.732
	C449.056,631.839,446.046,634.859,442.325,634.859z M442.325,582.859c-3.719,0-6.729-3.021-6.729-6.732
	c0-3.715,3.016-6.732,6.729-6.732c3.719,0,6.73,3.019,6.73,6.732C449.056,579.839,446.046,582.859,442.325,582.859z
	 M442.325,530.859c-3.719,0-6.729-3.021-6.729-6.732c0-3.715,3.016-6.732,6.729-6.732c3.719,0,6.73,3.019,6.73,6.732
	C449.056,527.839,446.046,530.859,442.325,530.859z M442.325,478.859c-3.719,0-6.729-3.021-6.729-6.732
	c0-3.715,3.016-6.732,6.729-6.732c3.719,0,6.73,3.019,6.73,6.732C449.056,475.839,446.046,478.859,442.325,478.859z
	 M442.325,426.859c-3.719,0-6.729-3.021-6.729-6.732c0-3.715,3.016-6.73,6.729-6.73c3.719,0,6.73,3.017,6.73,6.73
	C449.056,423.839,446.046,426.859,442.325,426.859z M442.325,374.856c-3.719,0-6.729-3.014-6.729-6.732s3.016-6.732,6.729-6.732
	c3.719,0,6.73,3.014,6.73,6.732S446.046,374.856,442.325,374.856z M442.325,322.856c-3.719,0-6.729-3.014-6.729-6.732
	s3.016-6.732,6.729-6.732c3.719,0,6.73,3.014,6.73,6.732S446.046,322.856,442.325,322.856z M442.325,270.856
	c-3.719,0-6.729-3.014-6.729-6.732s3.016-6.732,6.729-6.732c3.719,0,6.73,3.014,6.73,6.732S446.046,270.856,442.325,270.856z
	 M442.325,218.856c-3.719,0-6.729-3.014-6.729-6.732s3.016-6.732,6.729-6.732c3.719,0,6.73,3.014,6.73,6.732
	S446.046,218.856,442.325,218.856z M442.325,166.856c-3.719,0-6.729-3.014-6.729-6.732s3.016-6.732,6.729-6.732
	c3.719,0,6.73,3.014,6.73,6.732S446.046,166.856,442.325,166.856z M442.325,114.856c-3.719,0-6.729-3.014-6.729-6.732
	s3.016-6.732,6.729-6.732c3.719,0,6.73,3.014,6.73,6.732S446.046,114.856,442.325,114.856z M442.325,62.856
	c-3.719,0-6.729-3.014-6.729-6.732s3.016-6.732,6.729-6.732c3.719,0,6.73,3.014,6.73,6.732S446.046,62.856,442.325,62.856z
	 M498.897,634.859c-3.721,0-6.732-3.021-6.732-6.732c0-3.715,3.017-6.732,6.732-6.732s6.73,3.019,6.73,6.732
	C505.628,631.839,502.615,634.859,498.897,634.859z M498.897,582.859c-3.721,0-6.732-3.021-6.732-6.732
	c0-3.715,3.017-6.732,6.732-6.732s6.73,3.019,6.73,6.732C505.628,579.839,502.615,582.859,498.897,582.859z M498.897,530.859
	c-3.721,0-6.732-3.021-6.732-6.732c0-3.715,3.017-6.732,6.732-6.732s6.73,3.019,6.73,6.732
	C505.628,527.839,502.615,530.859,498.897,530.859z M498.897,478.859c-3.721,0-6.732-3.021-6.732-6.732
	c0-3.715,3.017-6.732,6.732-6.732s6.73,3.019,6.73,6.732C505.628,475.839,502.615,478.859,498.897,478.859z M498.897,426.859
	c-3.721,0-6.732-3.021-6.732-6.732c0-3.715,3.017-6.73,6.732-6.73s6.73,3.017,6.73,6.73
	C505.628,423.839,502.615,426.859,498.897,426.859z M498.897,374.856c-3.721,0-6.732-3.014-6.732-6.732s3.017-6.732,6.732-6.732
	s6.73,3.014,6.73,6.732S502.615,374.856,498.897,374.856z M498.897,322.856c-3.721,0-6.732-3.014-6.732-6.732
	s3.017-6.732,6.732-6.732s6.73,3.014,6.73,6.732S502.615,322.856,498.897,322.856z M498.897,270.856
	c-3.721,0-6.732-3.014-6.732-6.732s3.017-6.732,6.732-6.732s6.73,3.014,6.73,6.732S502.615,270.856,498.897,270.856z
	 M498.897,218.856c-3.721,0-6.732-3.014-6.732-6.732s3.017-6.732,6.732-6.732s6.73,3.014,6.73,6.732
	S502.615,218.856,498.897,218.856z M498.897,166.856c-3.721,0-6.732-3.014-6.732-6.732s3.017-6.732,6.732-6.732
	s6.73,3.014,6.73,6.732S502.615,166.856,498.897,166.856z M498.897,114.856c-3.721,0-6.732-3.014-6.732-6.732
	s3.017-6.732,6.732-6.732s6.73,3.014,6.73,6.732S502.615,114.856,498.897,114.856z M498.897,62.856
	c-3.721,0-6.732-3.014-6.732-6.732s3.017-6.732,6.732-6.732s6.73,3.014,6.73,6.732S502.615,62.856,498.897,62.856z M555.468,634.859
	c-3.722,0-6.73-3.021-6.73-6.732c0-3.715,3.014-6.732,6.73-6.732c3.716,0,6.729,3.019,6.729,6.732
	C562.198,631.839,559.186,634.859,555.468,634.859z M555.468,582.859c-3.722,0-6.73-3.021-6.73-6.732
	c0-3.715,3.014-6.732,6.73-6.732c3.716,0,6.729,3.019,6.729,6.732C562.198,579.839,559.186,582.859,555.468,582.859z
	 M555.468,530.859c-3.722,0-6.73-3.021-6.73-6.732c0-3.715,3.014-6.732,6.73-6.732c3.716,0,6.729,3.019,6.729,6.732
	C562.198,527.839,559.186,530.859,555.468,530.859z M555.468,478.859c-3.722,0-6.73-3.021-6.73-6.732
	c0-3.715,3.014-6.732,6.73-6.732c3.716,0,6.729,3.019,6.729,6.732C562.198,475.839,559.186,478.859,555.468,478.859z
	 M555.468,426.859c-3.722,0-6.73-3.021-6.73-6.732c0-3.715,3.014-6.73,6.73-6.73c3.716,0,6.729,3.017,6.729,6.73
	C562.198,423.839,559.186,426.859,555.468,426.859z M555.468,374.856c-3.722,0-6.73-3.014-6.73-6.732s3.014-6.732,6.73-6.732
	c3.716,0,6.729,3.014,6.729,6.732S559.186,374.856,555.468,374.856z M555.468,322.856c-3.722,0-6.73-3.014-6.73-6.732
	s3.014-6.732,6.73-6.732c3.716,0,6.729,3.014,6.729,6.732S559.186,322.856,555.468,322.856z M555.468,270.856
	c-3.722,0-6.73-3.014-6.73-6.732s3.014-6.732,6.73-6.732c3.716,0,6.729,3.014,6.729,6.732S559.186,270.856,555.468,270.856z
	 M555.468,218.856c-3.722,0-6.73-3.014-6.73-6.732s3.014-6.732,6.73-6.732c3.716,0,6.729,3.014,6.729,6.732
	S559.186,218.856,555.468,218.856z M555.468,166.856c-3.722,0-6.73-3.014-6.73-6.732s3.014-6.732,6.73-6.732
	c3.716,0,6.729,3.014,6.729,6.732S559.186,166.856,555.468,166.856z M555.468,114.856c-3.722,0-6.73-3.014-6.73-6.732
	s3.014-6.732,6.73-6.732c3.716,0,6.729,3.014,6.729,6.732S559.186,114.856,555.468,114.856z M555.468,62.856
	c-3.722,0-6.73-3.014-6.73-6.732s3.014-6.732,6.73-6.732c3.716,0,6.729,3.014,6.729,6.732S559.186,62.856,555.468,62.856z
	 M612.036,686.859c-3.719,0-6.729-3.021-6.729-6.732c0-3.715,3.016-6.732,6.729-6.732c3.719,0,6.731,3.019,6.731,6.732
	C618.768,683.839,615.757,686.859,612.036,686.859z M612.036,634.859c-3.719,0-6.729-3.021-6.729-6.732
	c0-3.715,3.016-6.732,6.729-6.732c3.719,0,6.731,3.019,6.731,6.732C618.768,631.839,615.757,634.859,612.036,634.859z
	 M612.036,582.859c-3.719,0-6.729-3.021-6.729-6.732c0-3.715,3.016-6.732,6.729-6.732c3.719,0,6.731,3.019,6.731,6.732
	C618.768,579.839,615.757,582.859,612.036,582.859z M612.036,530.859c-3.719,0-6.729-3.021-6.729-6.732
	c0-3.715,3.016-6.732,6.729-6.732c3.719,0,6.731,3.019,6.731,6.732C618.768,527.839,615.757,530.859,612.036,530.859z
	 M612.036,478.859c-3.719,0-6.729-3.021-6.729-6.732c0-3.715,3.016-6.732,6.729-6.732c3.719,0,6.731,3.019,6.731,6.732
	C618.768,475.839,615.757,478.859,612.036,478.859z M612.036,426.859c-3.719,0-6.729-3.021-6.729-6.732
	c0-3.715,3.016-6.73,6.729-6.73c3.719,0,6.731,3.017,6.731,6.73C618.768,423.839,615.757,426.859,612.036,426.859z M612.036,374.856
	c-3.719,0-6.729-3.014-6.729-6.732s3.016-6.732,6.729-6.732c3.719,0,6.731,3.014,6.731,6.732S615.757,374.856,612.036,374.856z
	 M612.036,322.856c-3.719,0-6.729-3.014-6.729-6.732s3.016-6.732,6.729-6.732c3.719,0,6.731,3.014,6.731,6.732
	S615.757,322.856,612.036,322.856z M612.036,270.856c-3.719,0-6.729-3.014-6.729-6.732s3.016-6.732,6.729-6.732
	c3.719,0,6.731,3.014,6.731,6.732S615.757,270.856,612.036,270.856z M612.036,218.856c-3.719,0-6.729-3.014-6.729-6.732
	s3.016-6.732,6.729-6.732c3.719,0,6.731,3.014,6.731,6.732S615.757,218.856,612.036,218.856z M612.036,166.856
	c-3.719,0-6.729-3.014-6.729-6.732s3.016-6.732,6.729-6.732c3.719,0,6.731,3.014,6.731,6.732S615.757,166.856,612.036,166.856z
	 M612.036,114.856c-3.719,0-6.729-3.014-6.729-6.732s3.016-6.732,6.729-6.732c3.719,0,6.731,3.014,6.731,6.732
	S615.757,114.856,612.036,114.856z M612.036,62.856c-3.719,0-6.729-3.014-6.729-6.732s3.016-6.732,6.729-6.732
	c3.719,0,6.731,3.014,6.731,6.732S615.757,62.856,612.036,62.856z M668.606,686.859c-3.721,0-6.73-3.021-6.73-6.732
	c0-3.715,3.015-6.732,6.73-6.732s6.73,3.019,6.73,6.732C675.338,683.839,672.324,686.859,668.606,686.859z M668.606,634.859
	c-3.721,0-6.73-3.021-6.73-6.732c0-3.715,3.015-6.732,6.73-6.732s6.73,3.019,6.73,6.732
	C675.338,631.839,672.324,634.859,668.606,634.859z M668.606,582.859c-3.721,0-6.73-3.021-6.73-6.732
	c0-3.715,3.015-6.732,6.73-6.732s6.73,3.019,6.73,6.732C675.338,579.839,672.324,582.859,668.606,582.859z M668.606,530.859
	c-3.721,0-6.73-3.021-6.73-6.732c0-3.715,3.015-6.732,6.73-6.732s6.73,3.019,6.73,6.732
	C675.338,527.839,672.324,530.859,668.606,530.859z M668.606,478.859c-3.721,0-6.73-3.021-6.73-6.732
	c0-3.715,3.015-6.732,6.73-6.732s6.73,3.019,6.73,6.732C675.338,475.839,672.324,478.859,668.606,478.859z M668.606,426.859
	c-3.721,0-6.73-3.021-6.73-6.732c0-3.715,3.015-6.73,6.73-6.73s6.73,3.017,6.73,6.73
	C675.338,423.839,672.324,426.859,668.606,426.859z M668.606,374.856c-3.721,0-6.73-3.014-6.73-6.732s3.015-6.732,6.73-6.732
	s6.73,3.014,6.73,6.732S672.324,374.856,668.606,374.856z M668.606,322.856c-3.721,0-6.73-3.014-6.73-6.732s3.015-6.732,6.73-6.732
	s6.73,3.014,6.73,6.732S672.324,322.856,668.606,322.856z M668.606,270.856c-3.721,0-6.73-3.014-6.73-6.732s3.015-6.732,6.73-6.732
	s6.73,3.014,6.73,6.732S672.324,270.856,668.606,270.856z M668.606,218.856c-3.721,0-6.73-3.014-6.73-6.732s3.015-6.732,6.73-6.732
	s6.73,3.014,6.73,6.732S672.324,218.856,668.606,218.856z M668.606,166.856c-3.721,0-6.73-3.014-6.73-6.732s3.015-6.732,6.73-6.732
	s6.73,3.014,6.73,6.732S672.324,166.856,668.606,166.856z M668.606,114.856c-3.721,0-6.73-3.014-6.73-6.732s3.015-6.732,6.73-6.732
	s6.73,3.014,6.73,6.732S672.324,114.856,668.606,114.856z M668.606,62.856c-3.721,0-6.73-3.014-6.73-6.732s3.015-6.732,6.73-6.732
	s6.73,3.014,6.73,6.732S672.324,62.856,668.606,62.856z M725.177,686.859c-3.72,0-6.73-3.021-6.73-6.732
	c0-3.715,3.017-6.732,6.73-6.732c3.719,0,6.729,3.019,6.729,6.732C731.908,683.839,728.895,686.859,725.177,686.859z
	 M725.177,634.859c-3.72,0-6.73-3.021-6.73-6.732c0-3.715,3.017-6.732,6.73-6.732c3.719,0,6.729,3.019,6.729,6.732
	C731.908,631.839,728.895,634.859,725.177,634.859z M725.177,582.859c-3.72,0-6.73-3.021-6.73-6.732c0-3.715,3.017-6.732,6.73-6.732
	c3.719,0,6.729,3.019,6.729,6.732C731.908,579.839,728.895,582.859,725.177,582.859z M725.177,530.859
	c-3.72,0-6.73-3.021-6.73-6.732c0-3.715,3.017-6.732,6.73-6.732c3.719,0,6.729,3.019,6.729,6.732
	C731.908,527.839,728.895,530.859,725.177,530.859z M725.177,478.859c-3.72,0-6.73-3.021-6.73-6.732c0-3.715,3.017-6.732,6.73-6.732
	c3.719,0,6.729,3.019,6.729,6.732C731.908,475.839,728.895,478.859,725.177,478.859z M725.177,426.859
	c-3.72,0-6.73-3.021-6.73-6.732c0-3.715,3.017-6.73,6.73-6.73c3.719,0,6.729,3.017,6.729,6.73
	C731.908,423.839,728.895,426.859,725.177,426.859z M725.177,374.856c-3.72,0-6.73-3.014-6.73-6.732s3.017-6.732,6.73-6.732
	c3.719,0,6.729,3.014,6.729,6.732S728.895,374.856,725.177,374.856z M725.177,322.856c-3.72,0-6.73-3.014-6.73-6.732
	s3.017-6.732,6.73-6.732c3.719,0,6.729,3.014,6.729,6.732S728.895,322.856,725.177,322.856z M725.177,270.856
	c-3.72,0-6.73-3.014-6.73-6.732s3.017-6.732,6.73-6.732c3.719,0,6.729,3.014,6.729,6.732S728.895,270.856,725.177,270.856z
	 M725.177,218.856c-3.72,0-6.73-3.014-6.73-6.732s3.017-6.732,6.73-6.732c3.719,0,6.729,3.014,6.729,6.732
	S728.895,218.856,725.177,218.856z M725.177,166.856c-3.72,0-6.73-3.014-6.73-6.732s3.017-6.732,6.73-6.732
	c3.719,0,6.729,3.014,6.729,6.732S728.895,166.856,725.177,166.856z M725.177,114.856c-3.72,0-6.73-3.014-6.73-6.732
	s3.017-6.732,6.73-6.732c3.719,0,6.729,3.014,6.729,6.732S728.895,114.856,725.177,114.856z M781.746,686.859
	c-3.719,0-6.729-3.021-6.729-6.732c0-3.715,3.016-6.732,6.729-6.732c3.719,0,6.732,3.019,6.732,6.732
	C788.478,683.839,785.468,686.859,781.746,686.859z M781.746,634.859c-3.719,0-6.729-3.021-6.729-6.732
	c0-3.715,3.016-6.732,6.729-6.732c3.719,0,6.732,3.019,6.732,6.732C788.478,631.839,785.468,634.859,781.746,634.859z
	 M781.746,582.859c-3.719,0-6.729-3.021-6.729-6.732c0-3.715,3.016-6.732,6.729-6.732c3.719,0,6.732,3.019,6.732,6.732
	C788.478,579.839,785.468,582.859,781.746,582.859z M781.746,530.859c-3.719,0-6.729-3.021-6.729-6.732
	c0-3.715,3.016-6.732,6.729-6.732c3.719,0,6.732,3.019,6.732,6.732C788.478,527.839,785.468,530.859,781.746,530.859z
	 M781.746,478.859c-3.719,0-6.729-3.021-6.729-6.732c0-3.715,3.016-6.732,6.729-6.732c3.719,0,6.732,3.019,6.732,6.732
	C788.478,475.839,785.468,478.859,781.746,478.859z M781.746,426.859c-3.719,0-6.729-3.021-6.729-6.732
	c0-3.715,3.016-6.73,6.729-6.73c3.719,0,6.732,3.017,6.732,6.73C788.478,423.839,785.468,426.859,781.746,426.859z M781.746,374.856
	c-3.719,0-6.729-3.014-6.729-6.732s3.016-6.732,6.729-6.732c3.719,0,6.732,3.014,6.732,6.732S785.468,374.856,781.746,374.856z
	 M781.746,322.856c-3.719,0-6.729-3.014-6.729-6.732s3.016-6.732,6.729-6.732c3.719,0,6.732,3.014,6.732,6.732
	S785.468,322.856,781.746,322.856z M781.746,270.856c-3.719,0-6.729-3.014-6.729-6.732s3.016-6.732,6.729-6.732
	c3.719,0,6.732,3.014,6.732,6.732S785.468,270.856,781.746,270.856z M781.746,218.856c-3.719,0-6.729-3.014-6.729-6.732
	s3.016-6.732,6.729-6.732c3.719,0,6.732,3.014,6.732,6.732S785.468,218.856,781.746,218.856z M781.746,166.856
	c-3.719,0-6.729-3.014-6.729-6.732s3.016-6.732,6.729-6.732c3.719,0,6.732,3.014,6.732,6.732S785.468,166.856,781.746,166.856z
	 M838.317,686.859c-3.721,0-6.729-3.021-6.729-6.732c0-3.715,3.014-6.732,6.729-6.732s6.73,3.019,6.73,6.732
	C845.049,683.839,842.035,686.859,838.317,686.859z M838.317,634.859c-3.721,0-6.729-3.021-6.729-6.732
	c0-3.715,3.014-6.732,6.729-6.732s6.73,3.019,6.73,6.732C845.049,631.839,842.035,634.859,838.317,634.859z M838.317,582.859
	c-3.721,0-6.729-3.021-6.729-6.732c0-3.715,3.014-6.732,6.729-6.732s6.73,3.019,6.73,6.732
	C845.049,579.839,842.035,582.859,838.317,582.859z M838.317,530.859c-3.721,0-6.729-3.021-6.729-6.732
	c0-3.715,3.014-6.732,6.729-6.732s6.73,3.019,6.73,6.732C845.049,527.839,842.035,530.859,838.317,530.859z M838.317,478.859
	c-3.721,0-6.729-3.021-6.729-6.732c0-3.715,3.014-6.732,6.729-6.732s6.73,3.019,6.73,6.732
	C845.049,475.839,842.035,478.859,838.317,478.859z M838.317,426.859c-3.721,0-6.729-3.021-6.729-6.732
	c0-3.715,3.014-6.73,6.729-6.73s6.73,3.017,6.73,6.73C845.049,423.839,842.035,426.859,838.317,426.859z M838.317,374.856
	c-3.721,0-6.729-3.014-6.729-6.732s3.014-6.732,6.729-6.732s6.73,3.014,6.73,6.732S842.035,374.856,838.317,374.856z
	 M838.317,322.856c-3.721,0-6.729-3.014-6.729-6.732s3.014-6.732,6.729-6.732s6.73,3.014,6.73,6.732
	S842.035,322.856,838.317,322.856z M838.317,270.856c-3.721,0-6.729-3.014-6.729-6.732s3.014-6.732,6.729-6.732
	s6.73,3.014,6.73,6.732S842.035,270.856,838.317,270.856z M894.888,686.859c-3.719,0-6.73-3.021-6.73-6.732
	c0-3.715,3.017-6.732,6.73-6.732c3.72,0,6.729,3.019,6.729,6.732C901.619,683.839,898.606,686.859,894.888,686.859z
	 M894.888,634.859c-3.719,0-6.73-3.021-6.73-6.732c0-3.715,3.017-6.732,6.73-6.732c3.72,0,6.729,3.019,6.729,6.732
	C901.619,631.839,898.606,634.859,894.888,634.859z M894.888,582.859c-3.719,0-6.73-3.021-6.73-6.732
	c0-3.715,3.017-6.732,6.73-6.732c3.72,0,6.729,3.019,6.729,6.732C901.619,579.839,898.606,582.859,894.888,582.859z
	 M894.888,530.859c-3.719,0-6.73-3.021-6.73-6.732c0-3.715,3.017-6.732,6.73-6.732c3.72,0,6.729,3.019,6.729,6.732
	C901.619,527.839,898.606,530.859,894.888,530.859z M894.888,478.859c-3.719,0-6.73-3.021-6.73-6.732
	c0-3.715,3.017-6.732,6.73-6.732c3.72,0,6.729,3.019,6.729,6.732C901.619,475.839,898.606,478.859,894.888,478.859z
	 M894.888,426.859c-3.719,0-6.73-3.021-6.73-6.732c0-3.715,3.017-6.73,6.73-6.73c3.72,0,6.729,3.017,6.729,6.73
	C901.619,423.839,898.606,426.859,894.888,426.859z M894.888,374.856c-3.719,0-6.73-3.014-6.73-6.732s3.017-6.732,6.73-6.732
	c3.72,0,6.729,3.014,6.729,6.732S898.606,374.856,894.888,374.856z M894.888,322.856c-3.719,0-6.73-3.014-6.73-6.732
	s3.017-6.732,6.73-6.732c3.72,0,6.729,3.014,6.729,6.732S898.606,322.856,894.888,322.856z M951.46,738.859
	c-3.722,0-6.732-3.021-6.732-6.732c0-3.715,3.016-6.732,6.732-6.732c3.716,0,6.729,3.019,6.729,6.732
	C958.189,735.839,955.177,738.859,951.46,738.859z M951.46,686.859c-3.722,0-6.732-3.021-6.732-6.732
	c0-3.715,3.016-6.732,6.732-6.732c3.716,0,6.729,3.019,6.729,6.732C958.189,683.839,955.177,686.859,951.46,686.859z
	 M951.46,634.859c-3.722,0-6.732-3.021-6.732-6.732c0-3.715,3.016-6.732,6.732-6.732c3.716,0,6.729,3.019,6.729,6.732
	C958.189,631.839,955.177,634.859,951.46,634.859z M951.46,582.859c-3.722,0-6.732-3.021-6.732-6.732
	c0-3.715,3.016-6.732,6.732-6.732c3.716,0,6.729,3.019,6.729,6.732C958.189,579.839,955.177,582.859,951.46,582.859z
	 M951.46,530.859c-3.722,0-6.732-3.021-6.732-6.732c0-3.715,3.016-6.732,6.732-6.732c3.716,0,6.729,3.019,6.729,6.732
	C958.189,527.839,955.177,530.859,951.46,530.859z M951.46,478.859c-3.722,0-6.732-3.021-6.732-6.732
	c0-3.715,3.016-6.732,6.732-6.732c3.716,0,6.729,3.019,6.729,6.732C958.189,475.839,955.177,478.859,951.46,478.859z
	 M951.46,426.859c-3.722,0-6.732-3.021-6.732-6.732c0-3.715,3.016-6.73,6.732-6.73c3.716,0,6.729,3.017,6.729,6.73
	C958.189,423.839,955.177,426.859,951.46,426.859z M951.46,374.856c-3.722,0-6.732-3.014-6.732-6.732s3.016-6.732,6.732-6.732
	c3.716,0,6.729,3.014,6.729,6.732S955.177,374.856,951.46,374.856z M1008.028,738.859c-3.721,0-6.729-3.021-6.729-6.732
	c0-3.715,3.014-6.732,6.729-6.732s6.73,3.019,6.73,6.732C1014.76,735.839,1011.746,738.859,1008.028,738.859z M1008.028,686.859
	c-3.721,0-6.729-3.021-6.729-6.732c0-3.715,3.014-6.732,6.729-6.732s6.73,3.019,6.73,6.732
	C1014.76,683.839,1011.746,686.859,1008.028,686.859z M1008.028,634.859c-3.721,0-6.729-3.021-6.729-6.732
	c0-3.715,3.014-6.732,6.729-6.732s6.73,3.019,6.73,6.732C1014.76,631.839,1011.746,634.859,1008.028,634.859z M1008.028,582.859
	c-3.721,0-6.729-3.021-6.729-6.732c0-3.715,3.014-6.732,6.729-6.732s6.73,3.019,6.73,6.732
	C1014.76,579.839,1011.746,582.859,1008.028,582.859z M1008.028,530.859c-3.721,0-6.729-3.021-6.729-6.732
	c0-3.715,3.014-6.732,6.729-6.732s6.73,3.019,6.73,6.732C1014.76,527.839,1011.746,530.859,1008.028,530.859z M1008.028,478.859
	c-3.721,0-6.729-3.021-6.729-6.732c0-3.715,3.014-6.732,6.729-6.732s6.73,3.019,6.73,6.732
	C1014.76,475.839,1011.746,478.859,1008.028,478.859z M1064.599,738.859c-3.719,0-6.73-3.021-6.73-6.732
	c0-3.715,3.017-6.732,6.73-6.732c3.72,0,6.731,3.019,6.731,6.732C1071.333,735.839,1068.317,738.859,1064.599,738.859z
	 M1064.599,686.859c-3.719,0-6.73-3.021-6.73-6.732c0-3.715,3.017-6.732,6.73-6.732c3.72,0,6.731,3.019,6.731,6.732
	C1071.333,683.839,1068.317,686.859,1064.599,686.859z M1064.599,634.859c-3.719,0-6.73-3.021-6.73-6.732
	c0-3.715,3.017-6.732,6.73-6.732c3.72,0,6.731,3.019,6.731,6.732C1071.333,631.839,1068.317,634.859,1064.599,634.859z
	 M1064.599,582.859c-3.719,0-6.73-3.021-6.73-6.732c0-3.715,3.017-6.732,6.73-6.732c3.72,0,6.731,3.019,6.731,6.732
	C1071.333,579.839,1068.317,582.859,1064.599,582.859z M1064.599,530.859c-3.719,0-6.73-3.021-6.73-6.732
	c0-3.715,3.017-6.732,6.73-6.732c3.72,0,6.731,3.019,6.731,6.732C1071.333,527.839,1068.317,530.859,1064.599,530.859z
	 M1121.171,738.859c-3.722,0-6.732-3.021-6.732-6.732c0-3.715,3.016-6.732,6.732-6.732c3.716,0,6.729,3.019,6.729,6.732
	C1127.9,735.839,1124.888,738.859,1121.171,738.859z M1121.171,686.859c-3.722,0-6.732-3.021-6.732-6.732
	c0-3.715,3.016-6.732,6.732-6.732c3.716,0,6.729,3.019,6.729,6.732C1127.9,683.839,1124.888,686.859,1121.171,686.859z
	 M1121.171,634.859c-3.722,0-6.732-3.021-6.732-6.732c0-3.715,3.016-6.732,6.732-6.732c3.716,0,6.729,3.019,6.729,6.732
	C1127.9,631.839,1124.888,634.859,1121.171,634.859z M1121.171,582.859c-3.722,0-6.732-3.021-6.732-6.732
	c0-3.715,3.016-6.732,6.732-6.732c3.716,0,6.729,3.019,6.729,6.732C1127.9,579.839,1124.888,582.859,1121.171,582.859z
	 M1177.739,686.859c-3.719,0-6.729-3.021-6.729-6.732c0-3.715,3.014-6.732,6.729-6.732s6.73,3.019,6.73,6.732
	C1184.469,683.839,1181.46,686.859,1177.739,686.859z M1177.739,634.859c-3.719,0-6.729-3.021-6.729-6.732
	c0-3.715,3.014-6.732,6.729-6.732s6.73,3.019,6.73,6.732C1184.469,631.839,1181.46,634.859,1177.739,634.859z"/>
</svg>
