<?xml version="1.0" encoding="utf-8"?>
<!-- Generator: Adobe Illustrator 16.0.0, SVG Export Plug-In . SVG Version: 6.00 Build 0)  -->
<!DOCTYPE svg PUBLIC "-//W3C//DTD SVG 1.1//EN" "http://www.w3.org/Graphics/SVG/1.1/DTD/svg11.dtd">
<svg version="1.1" id="Layer_1" xmlns="http://www.w3.org/2000/svg" xmlns:xlink="http://www.w3.org/1999/xlink" x="0px" y="0px"
	 width="2505.781px" height="1075.004px" viewBox="0 0 2505.781 1075.004" enable-background="new 0 0 2505.781 1075.004"
	 xml:space="preserve">
<path fill="none" stroke="#000001" stroke-linejoin="round" stroke-miterlimit="10" d="M1409.265,775.852
	c104.663-20.275,625.188-116.777,807.761-67.417c5.719,1.549,18.215-0.055,22.176-9.279
	c24.055-56.062,114.133-265.985,176.771-411.96c0.545-1.268-1.022-4.359-2.446-4.667c-42.572-9.201-142.052-30.7-142.052-30.7
	s-21.97-20.707,4.075-16.317c0,0,103.941,15.755,146.566,22.216c2.207,0.335,7.426-2.157,8.082-3.683
	c36.791-85.742,59.942-139.697,72.518-168.997c6.501-15.16,2.583-24.387-11.021-25.585
	c-109.486-9.642-608.492-53.581-674.996-59.438c-4.787-0.421-11.457,4.668-13.51,7.31
	c-299.49,385.586-449.297,562.249-590.896,636.153l-24.313,17.753c-143.416,54.166-293.727,14.182-598.42-9.273
	c-5.125-0.395-10.641,1.523-3.34,5.562c15.226,8.422,41.027,22.697,55.366,30.631c6.302,3.484,6.624,4.838-0.34,3.156
	C565.024,672.901,105.674,561.934,9.292,538.651c-11.409-2.76-10.516,5.605-6.773,10.281
	c116.992,146.188,321.343,121.717,640.916,518.841c4.354,5.409,22.27,9.413,26.959,5.916
	c160.296-119.479,413.942-214.606,673.767-280.271c3.126,0,6.19,1.274,8.414,3.452c4.333,4.246,1.162,10.635,1.162,15.747
	c0,17.221,13.96,31.181,31.181,31.181s31.181-13.96,31.181-31.181c0-5.238-1.327-10.422-3.851-15.012
	c-1.364-2.481-3.171-4.649-5.188-6.625c-2.358-2.311-3.9-5.495-3.467-8.839C1403.966,779.27,1405.916,775.852,1409.265,775.852z"/>
</svg>
