<?xml version="1.0" encoding="utf-8"?>
<!-- Generator: Adobe Illustrator 16.0.0, SVG Export Plug-In . SVG Version: 6.00 Build 0)  -->
<!DOCTYPE svg PUBLIC "-//W3C//DTD SVG 1.1//EN" "http://www.w3.org/Graphics/SVG/1.1/DTD/svg11.dtd">
<svg version="1.1" id="Layer_1" xmlns="http://www.w3.org/2000/svg" xmlns:xlink="http://www.w3.org/1999/xlink" x="0px" y="0px"
	 width="710.115px" height="1188.613px" viewBox="0 0 710.115 1188.613" enable-background="new 0 0 710.115 1188.613"
	 xml:space="preserve">
<path fill="none" stroke="#000000" stroke-linejoin="round" stroke-miterlimit="10" d="M707.559,461.814l-82.225-81.648l0,0
	c0,0-14.688-19.224-31.681-23.76c-18.434-4.896-39.312,4.752-39.312,4.752l0,0l-89.713,40.536l0,0c0,0-15.981,14.472-29.593,12.6
	c-11.592-3.096-23.76-18-23.76-18s-22.249-23.184-25.632-24.696c-6.049-9,2.16-22.896,2.16-22.896l0,0l34.772-79.2l0,0
	c0,0,10.226-16.848,5.186-29.376c-5.326-13.392-27-21.384-27-21.384s-64.944-25.848-118.944-47.88
	c-48.6-19.8-70.848-38.16-70.848-38.16s140.04,38.88,146.23,40.752s56.882,25.632,73.656,22.104
	c25.774-5.544,35.566-32.616,35.566-32.616s21.022-49.32,32.11-77.904c11.16-28.584,6.266-38.088,6.266-38.088
	s-6.407-15.552-17.712-38.736c-14.688-21.456-52.346,5.904-52.346,5.904s-50.04,43.056-103.823,65.664
	c-55.44,23.4-107.856,18-129.816,26.352c-5.04,1.584-53.064,25.2-71.928,34.488c-2.377,1.152-3.097,6.12-1.009,8.712
	c4.248,5.184,30.456,1.44,47.952,39.96c20.736,51.336-34.992,58.608-34.992,58.608s-37.584,6.696-49.104-31.896
	c-8.353-28.08,3.672-50.256,10.872-60.264c2.664-3.744-7.272-5.616-7.272-5.616s-34.992,12.456-74.304,28.44
	c-39.312,15.984-12.24,47.016-12.24,47.016s62.856,60.624,95.185,130.32c30.239,65.16,27.863,118.438,30.023,139.752
	c9.576,8.712-36.288,313.345-36.288,313.345s-7.704,17.424,22.896,41.039c9.072,5.256,83.16,51.984,153.072,118.943
	c84.022,72.721,133.416,165.813,133.416,165.813s10.368,18.434,18.792,14.186c10.8-5.473,7.85-42.479,7.85-42.479
	s-21.815-157.178,2.95-301.752c20.306-151.057,55.08-285.336,55.08-285.336s14.978-49.032,44.642-63.792
	c32.11-15.84,79.128,2.448,79.128,2.448l0,0l82.01,18.069l0,0c0,0,9.216,0,11.446-3.312
	C711.879,469.014,707.559,461.814,707.559,461.814L707.559,461.814"/>
</svg>
