<?xml version="1.0" encoding="utf-8"?>
<!-- Generator: Adobe Illustrator 16.0.0, SVG Export Plug-In . SVG Version: 6.00 Build 0)  -->
<!DOCTYPE svg PUBLIC "-//W3C//DTD SVG 1.1//EN" "http://www.w3.org/Graphics/SVG/1.1/DTD/svg11.dtd">
<svg version="1.1" id="Layer_1" xmlns="http://www.w3.org/2000/svg" xmlns:xlink="http://www.w3.org/1999/xlink" x="0px" y="0px"
	 width="644.635px" height="1113.464px" viewBox="0 0 644.635 1113.464" enable-background="new 0 0 644.635 1113.464"
	 xml:space="preserve">
<path fill="none" stroke="#000000" stroke-linejoin="round" stroke-miterlimit="10" d="M350.9,218.008
	c33.932,0,61.439,27.508,61.439,61.44c0,33.932-27.508,61.44-61.439,61.44c-33.933,0-61.44-27.508-61.44-61.44
	C289.46,245.516,316.968,218.008,350.9,218.008z M58.53,1067.292c-0.217-1.395-0.538-3.02,0.181-4.318
	c0.812-1.469,2.529-1.834,3.898-2.578c0.179-0.01,0.36-0.02,0.544-0.031c16.695-1.035,202.742-21.438,311.718-76.492
	C483.85,928.81,567.384,813.224,583.843,792.488c16.464-20.736,14.396-54.127,14.396-54.127S643.035,77.038,644.33,66.112
	c1.292-10.924-0.532-40.387-25.51-45.74C593.841,15.018,104.793-2.004,85.212,0.195c-19.581,2.199-39.779,10.351-37.467,47.67
	c2.312,37.319-2.383,995.853-2.383,995.853c0.042,0.688,0.084,1.361,0.129,2.018c-0.413,2.562-0.215,6.992-3.843,7.166
	c-3.271-1.166-6.795-1.801-10.467-1.801c-17.222,0-31.182,13.961-31.182,31.182s13.96,31.182,31.182,31.182
	c17.221,0,31.182-13.961,31.182-31.182c0-5.434-1.39-10.543-3.834-14.992L58.53,1067.292z"/>
</svg>
