<?xml version="1.0" encoding="utf-8"?>
<!-- Generator: Adobe Illustrator 16.0.0, SVG Export Plug-In . SVG Version: 6.00 Build 0)  -->
<!DOCTYPE svg PUBLIC "-//W3C//DTD SVG 1.1//EN" "http://www.w3.org/Graphics/SVG/1.1/DTD/svg11.dtd">
<svg version="1.1" id="Layer_1" xmlns="http://www.w3.org/2000/svg" xmlns:xlink="http://www.w3.org/1999/xlink" x="0px" y="0px"
	 width="594.221px" height="784.463px" viewBox="0 0 594.221 784.463" enable-background="new 0 0 594.221 784.463"
	 xml:space="preserve">
<path fill="none" stroke="#000001" stroke-linejoin="round" stroke-miterlimit="10" d="M457.06,748.791
	c-0.109-1.946-0.542-3.813-1.959-5.343c-1.99-2.149-6.148-4.673-9.209-3.669c-21.403,7.019-56.008,12.013-112.342,10.748
	c-120.416-2.705-149.484-10.836-156.719-33.076C169.596,695.213,7.88,113.398,2.21,100.921
	c-5.669-12.477-0.592-26.577,17.088-27.629c17.681-1.05,70.497,8.625,83.266,7.867c12.769-0.758,21.375-5.213,28.591-16.484
	c7.216-11.27,38.278-52.542,41.915-57.688c3.638-5.144,10.455-6.536,17.331-6.944c6.876-0.408,63.213,2.159,68.183,2.85
	s18.088,5.825,16.999,20.676c-1.09,14.851,7.729,279.479,13.234,305.766c5.505,26.285,0.073,44.354,32.348,43.421
	c32.273-0.934,223.757,3.467,248.609,6.918c24.847,3.451,24.446,13.332,24.446,13.332c-4.033,10.496-97.847,276.848-112.313,316.691
	c-1.024,2.821,1.312,6.678,3.032,8.739c2.507,3.004,6.275,4.022,9.942,4.971c10.111,2.615,18.405,8.234,22.355,18.227
	c1.417,3.583,2.162,7.793,2.162,11.648c0,17.221-13.961,31.181-31.182,31.181s-31.181-13.96-31.181-31.181
	C457.037,751.817,457.144,750.28,457.06,748.791z"/>
</svg>
