<?xml version="1.0" encoding="utf-8"?>
<!-- Generator: Adobe Illustrator 16.0.0, SVG Export Plug-In . SVG Version: 6.00 Build 0)  -->
<!DOCTYPE svg PUBLIC "-//W3C//DTD SVG 1.1//EN" "http://www.w3.org/Graphics/SVG/1.1/DTD/svg11.dtd">
<svg version="1.1" id="Layer_1" xmlns="http://www.w3.org/2000/svg" xmlns:xlink="http://www.w3.org/1999/xlink" x="0px" y="0px"
	 width="594.221px" height="784.463px" viewBox="0 0 594.221 784.463" enable-background="new 0 0 594.221 784.463"
	 xml:space="preserve">
<path fill="none" stroke="#020203" stroke-linejoin="round" stroke-miterlimit="10" d="M569.774,379.674
	c-24.852-3.451-216.336-7.852-248.609-6.918c-32.275,0.932-26.843-17.136-32.348-43.421
	c-5.505-26.287-14.324-290.915-13.234-305.766c1.089-14.851-12.029-19.985-16.999-20.676s-61.307-3.258-68.183-2.85
	c-6.876,0.408-13.693,1.8-17.331,6.944c-3.637,5.146-34.699,46.418-41.915,57.688c-7.216,11.271-15.822,15.726-28.591,16.484
	c-12.769,0.758-65.585-8.917-83.266-7.867C1.618,74.344-3.459,88.444,2.21,100.921c5.67,12.477,167.386,594.292,174.621,616.53
	c7.235,22.24,36.303,30.371,156.719,33.076c120.415,2.703,141.548-23.191,146.687-36.312
	c5.134-13.119,109.72-310.114,113.984-321.209C594.221,393.006,594.621,383.125,569.774,379.674z"/>
</svg>
