<?xml version="1.0" encoding="utf-8"?>
<!-- Generator: Adobe Illustrator 16.0.0, SVG Export Plug-In . SVG Version: 6.00 Build 0)  -->
<!DOCTYPE svg PUBLIC "-//W3C//DTD SVG 1.1//EN" "http://www.w3.org/Graphics/SVG/1.1/DTD/svg11.dtd">
<svg version="1.1" id="Layer_1" xmlns="http://www.w3.org/2000/svg" xmlns:xlink="http://www.w3.org/1999/xlink" x="0px" y="0px"
	 width="2488.4px" height="893.582px" viewBox="0 0 2488.4 893.582" enable-background="new 0 0 2488.4 893.582"
	 xml:space="preserve">
<path d="M2479.77,864.193c-14.657-17.953-249.173-287.732-322.454-360.019c-73.285-72.283-309.676-300.941-317.24-311.337
	c-7.562-10.394-19.381-11.335-30.481-8.022c-11.106,3.311-355.366,114.737-447.516,147.617
	c-92.146,32.882-453.177,166.052-453.177,166.052c-11.106,3.312-22.915,19.856-5.426,28.596
	c17.487,8.738,31.907,16.529,49.398,34.01c17.494,17.482,126.241,145.047,133.569,154.025c7.328,8.977,19.617,12.754,37.104,12.746
	c6.015-0.002,76.526-11.123,169.939-26.236c-45.911-15.33-82.047-54.883-90.578-105.949
	c-12.293-73.604,37.406-143.233,111.01-155.528c73.604-12.295,143.234,37.403,155.527,111.01
	c8.596,51.461-13.117,100.979-52.118,130.313c157.476-25.729,327.944-53.842,371.858-60.426
	c85.303-12.791,125.013,15.551,154.793,36.811c29.781,21.259,234.018,196.992,250.562,208.808
	c16.548,11.807,18.679,24.565,77.283,26.436c58.604,1.871,196.37-2.194,206.295-3.854
	C2488.049,887.585,2494.427,882.146,2479.77,864.193z M1621.274,496.964c-23.49,3.924-45.713-11.938-49.637-35.428
	c-3.924-23.489,11.938-45.713,35.428-49.637c23.489-3.925,45.715,11.938,49.637,35.426
	C1660.626,470.82,1644.765,493.042,1621.274,496.964z M2068.837,570.408c-23.489,3.924-45.714-11.938-49.642-35.43
	c-3.921-23.488,11.938-45.714,35.433-49.64c23.487-3.924,45.713,11.939,49.639,35.428
	C2108.189,544.259,2092.325,566.484,2068.837,570.408z M1949.781,97.116c-8.752-26.226-74.698-72.045-108.491-82.431
	c-33.8-10.386-312.728-31.583-540.436,10.12c-90.501,16.575-300.066,122.989-300.066,122.989S457.851,413.366,382.245,449.31
	C306.642,485.255,27.132,591.697,27.132,591.697c-16.778,4.26-42.521,42.078-15.105,49.156c27.414,7.077,80.347,1.151,136.816-9.736
	c56.476-10.894,518.419-107,603.012-124.043c84.592-17.047,98.06-23.666,137.991-37.625
	c39.93-13.957,942.28-308.959,988.116-322.445C1923.802,133.517,1958.532,123.342,1949.781,97.116z"/>
</svg>
