<?xml version="1.0" encoding="utf-8"?>
<!-- Generator: Adobe Illustrator 16.0.0, SVG Export Plug-In . SVG Version: 6.00 Build 0)  -->
<!DOCTYPE svg PUBLIC "-//W3C//DTD SVG 1.1//EN" "http://www.w3.org/Graphics/SVG/1.1/DTD/svg11.dtd">
<svg version="1.1" id="Layer_1" xmlns="http://www.w3.org/2000/svg" xmlns:xlink="http://www.w3.org/1999/xlink" x="0px" y="0px"
	 width="710.115px" height="1211.979px" viewBox="0 0 710.115 1211.979" enable-background="new 0 0 710.115 1211.979"
	 xml:space="preserve">
<path fill="none" stroke="#000000" stroke-linejoin="round" stroke-miterlimit="10" d="M274.227,1150.605
	c-13.435,3.473-23.356,15.673-23.356,30.19c0,17.221,13.96,31.182,31.182,31.182c17.221,0,31.182-13.961,31.182-31.182
	c0-11.902-6.669-22.247-16.474-27.501c-0.178-0.52-0.349-1.039-0.524-1.558c-0.872-2.572,0.168-4.585,1.18-6.908
	c0.671-1.535,1.342-3.071,2.012-4.607c0.144-0.331,0.29-0.662,0.434-0.994c1.771-2.484,2.866-4.436,2.866-4.436
	s49.395-93.092,133.416-165.812c69.912-66.959,144-113.688,153.072-118.942c30.599-23.615,22.896-41.039,22.896-41.039
	s-45.864-304.632-36.288-313.344c2.158-21.314-0.22-74.592,30.021-139.752c32.331-69.696,95.188-130.32,95.188-130.32
	s27.071-31.032-12.24-47.016c-39.315-15.984-74.304-28.44-74.304-28.44s-9.937,1.872-7.271,5.616
	c7.2,10.008,19.227,32.184,10.872,60.264c-11.521,38.592-49.104,31.896-49.104,31.896s-55.728-7.272-34.991-58.608
	c17.496-38.52,43.704-34.776,47.952-39.96c2.088-2.592,1.363-7.56-1.012-8.712c-18.864-9.288-66.889-32.904-71.929-34.488
	c-21.96-8.352-74.376-2.952-129.815-26.352c-53.78-22.608-103.82-65.664-103.82-65.664s-37.656-27.36-52.344-5.904
	c-11.304,23.184-17.712,38.736-17.712,38.736s-4.896,9.504,6.264,38.088c11.088,28.584,32.112,77.904,32.112,77.904
	s9.792,27.072,35.567,32.616c16.776,3.528,67.465-20.232,73.656-22.104c6.189-1.872,146.229-40.752,146.229-40.752
	s-22.248,18.36-70.848,38.16c-54,22.032-118.944,47.88-118.944,47.88s-21.672,7.992-27,21.384
	c-5.04,12.528,5.184,29.376,5.184,29.376l0,0l34.775,79.2l0,0c0,0,8.208,13.896,2.16,22.896
	c-3.385,1.512-25.632,24.696-25.632,24.696s-12.169,14.904-23.761,18c-13.608,1.872-29.592-12.6-29.592-12.6l0,0l-89.712-40.536l0,0
	c0,0-20.88-9.648-39.312-4.752c-16.992,4.536-31.68,23.76-31.68,23.76l0,0L2.556,461.814l0,0c0,0-4.32,7.198-1.727,11.012
	c2.232,3.312,11.448,3.312,11.448,3.312l0,0l82.008-18.067l0,0c0,0,47.017-18.288,79.128-2.448
	c29.664,14.76,44.641,63.792,44.641,63.792s34.775,134.278,55.079,285.335c24.769,144.574,2.952,301.752,2.952,301.752
	s-1.417,17.759,1.304,30.49c0.022,0.326,0.047,0.65,0.07,0.978c0.113,1.538,0.229,3.075,0.337,4.614
	c0.059,0.81,0.11,1.62,0.178,2.43c0.098,1.206,0.029,2.416-0.964,3.255c-0.41,0.347-0.821,0.69-1.23,1.037
	C275.264,1149.74,274.744,1150.171,274.227,1150.605z"/>
</svg>
