<?xml version="1.0" encoding="utf-8"?>
<!-- Generator: Adobe Illustrator 16.0.0, SVG Export Plug-In . SVG Version: 6.00 Build 0)  -->
<!DOCTYPE svg PUBLIC "-//W3C//DTD SVG 1.1//EN" "http://www.w3.org/Graphics/SVG/1.1/DTD/svg11.dtd">
<svg version="1.1" id="Layer_1" xmlns="http://www.w3.org/2000/svg" xmlns:xlink="http://www.w3.org/1999/xlink" x="0px" y="0px"
	 width="1918.657px" height="692.125px" viewBox="0 0 1918.657 692.125" enable-background="new 0 0 1918.657 692.125"
	 xml:space="preserve">
<path fill="none" stroke="#000000" stroke-miterlimit="10" d="M1901.108,356.945c-17.307,0.293-549.244-60.443-578.568-64.724
	c-29.322-4.279-36.322,12.312-35.174,23.754c1.146,11.441,13.135,332.391,11.564,345.55c-1.566,13.156,12.021,19.019,27.754,17.438
	c0,0,542.936,11.96,560.385,13.098c17.451,1.141,17.443-13.307,17.727-24.893c0.283-11.585,12.203-267.035,13.486-283.055
	C1919.563,368.094,1918.415,356.652,1901.108,356.945z M1266.629,325.28c0.42-24.603-19.467-35.604-38.346-36.6
	c-18.879-0.995-429.951-23.301-462.277-28.724c-32.325-5.424-58.22-18.717-71.953-26.005
	c-13.729-7.29-200.857-144.527-200.857-144.527s-20.736,9.305-38.488-38.031C436.955,4.057,411.78-2.083,400.481,0.496
	C389.183,3.073,78.821,19.778,51.933,25.366C25.047,30.952-1.117,58.139,0.037,84.025c1.153,25.887,61.417,554.35,66.287,574.087
	c4.87,19.732,30.332,28.733,40.344,27.729c10.011-1.004,1120.723-1.246,1143.786-3.562c14.301-1.437,23.455-11.021,24.449-29.902
	C1275.897,633.5,1266.208,349.882,1266.629,325.28z M496.573,343.337c-33.175,3.331-62.771-20.863-66.101-54.038
	c-3.33-33.177,20.864-62.77,54.04-66.099c33.177-3.328,62.771,20.865,66.1,54.04C553.943,310.417,529.749,340.008,496.573,343.337z"
	/>
</svg>
