<?xml version="1.0" encoding="utf-8"?>
<!-- Generator: Adobe Illustrator 16.0.0, SVG Export Plug-In . SVG Version: 6.00 Build 0)  -->
<!DOCTYPE svg PUBLIC "-//W3C//DTD SVG 1.1//EN" "http://www.w3.org/Graphics/SVG/1.1/DTD/svg11.dtd">
<svg version="1.1" id="Layer_1" xmlns="http://www.w3.org/2000/svg" xmlns:xlink="http://www.w3.org/1999/xlink" x="0px" y="0px"
	 width="1918.656px" height="692.125px" viewBox="0 0 1918.656 692.125" enable-background="new 0 0 1918.656 692.125"
	 xml:space="preserve">
<path fill="none" stroke="#000001" stroke-linejoin="round" stroke-miterlimit="10" d="M490.544,222.899
	c33.341,0,60.368,27.029,60.368,60.37c0,33.341-27.027,60.37-60.368,60.37c-33.343,0-60.37-27.029-60.37-60.37
	C430.174,249.928,457.201,222.899,490.544,222.899z M1255.705,681.318c7.188-1.726,14.593-1.939,21.947-2.101
	c2.167-0.046,4.334-0.111,6.501-0.076c9.483,0.163,18.978-0.098,28.46-0.02c2.152,0.018,4.318-0.066,6.469,0.009v0.003
	c2.437,0.147,4.988,0.09,7.604-0.173c0,0,542.937,11.96,560.385,13.098c17.451,1.143,17.443-13.307,17.729-24.893
	c0.282-11.585,12.202-267.035,13.484-283.057c1.281-16.02,0.134-27.461-17.174-27.168c-17.149,0.291-539.771-59.36-577.661-64.594
	c-6.022,0-10.896-7.884-10.896-17.627h0.004c0.572-2.362,0.876-4.83,0.876-7.369c0-17.221-13.959-31.181-31.181-31.181
	s-31.183,13.96-31.183,31.181c0,2.915,0.4,5.736,1.148,8.412l0.004-0.002c0,7.864-6.566,14.227-14.682,14.227l-0.004-0.002
	c-3.049-0.714-6.164-1.145-9.252-1.308c-18.879-0.995-429.95-23.301-462.275-28.724c-32.325-5.424-58.221-18.717-71.953-26.005
	c-13.729-7.29-200.857-144.527-200.857-144.527s-20.734,9.305-38.487-38.031C436.954,4.057,411.78-2.083,400.481,0.496
	c-11.298,2.577-321.66,19.282-348.548,24.87C25.047,30.952-1.117,58.139,0.037,84.025c1.152,25.887,61.417,554.35,66.287,574.087
	c4.869,19.73,30.331,28.731,40.344,27.729c10.012-1.004,1120.724-1.246,1143.785-3.562c1.788-0.182,3.495-0.486,5.116-0.923
	L1255.705,681.318z"/>
</svg>
