<?xml version="1.0" encoding="utf-8"?>
<!-- Generator: Adobe Illustrator 16.0.0, SVG Export Plug-In . SVG Version: 6.00 Build 0)  -->
<!DOCTYPE svg PUBLIC "-//W3C//DTD SVG 1.1//EN" "http://www.w3.org/Graphics/SVG/1.1/DTD/svg11.dtd">
<svg version="1.1" id="Layer_1" xmlns="http://www.w3.org/2000/svg" xmlns:xlink="http://www.w3.org/1999/xlink" x="0px" y="0px"
	 width="1950.01px" height="671.691px" viewBox="0 0 1950.01 671.691" enable-background="new 0 0 1950.01 671.691"
	 xml:space="preserve">
<path d="M551.033,291.968c-1.771,26.404-26.606,49.009-53.235,48.003c-28.209,0.702-54.771-24.993-52.828-53.558
	c-0.812-17.948,8.895-35.541,24.106-44.861c17.929-11.324,42.883-11.014,60.074,1.494
	C544.137,254.122,553.73,273.125,551.033,291.968z M1949.877,347.199c0.541-9.012-0.346-18.852-7.063-25.688
	c-6.553-9.118-19.104-9.648-29.271-10.525c-235.957-11.714-471.911-23.302-707.979-34.505
	c-126.461-5.785-253.071-12.196-379.729-16.581c-36.697,0.521-75.834-3.043-107.4-23.863c-17.465-13.004-36.484-23.67-54.916-35.372
	c-46.979-29.726-94.437-58.8-138.65-92.557c-27.924-21.594-52.979-47.603-69.383-79.134c-9.123-19.908-32.316-27.122-52.64-28.748
	c-24.09-0.849-48.336,0.842-72.451,2.653C237.647,7.958,145.03,13.028,52.497,20.251c-15.017,1.334-32.075,2.243-43.416,13.566
	c-12.42,12.885-8.903,31.996-7.655,48.03c11.816,159.465,27.921,318.512,44.402,477.542c3.471,24.437,3.807,49.742,11.557,73.502
	c4.584,13.883,16.74,23.801,29.869,29.369c17.022,8.084,36.301,8.864,54.787,8.914c321.997,0.188,644.036,1.504,966.06-0.973
	c258.649-0.807,517.401-2.247,776.043-3.311c14.297-0.296,28.562,1.817,42.687,0.393c12.852-5.052,16.305-20.63,17.225-32.947
	C1945.946,538.543,1946.83,442.786,1949.877,347.199"/>
</svg>
