<?xml version="1.0" encoding="utf-8"?>
<!-- Generator: Adobe Illustrator 16.0.0, SVG Export Plug-In . SVG Version: 6.00 Build 0)  -->
<!DOCTYPE svg PUBLIC "-//W3C//DTD SVG 1.1//EN" "http://www.w3.org/Graphics/SVG/1.1/DTD/svg11.dtd">
<svg version="1.1" id="Layer_1" xmlns="http://www.w3.org/2000/svg" xmlns:xlink="http://www.w3.org/1999/xlink" x="0px" y="0px"
	 width="1396.785px" height="563.096px" viewBox="0 0 1396.785 563.096" enable-background="new 0 0 1396.785 563.096"
	 xml:space="preserve">
<path fill="none" stroke="#000000" stroke-linejoin="round" stroke-miterlimit="10" d="M594.538,441.296
	c-22.889,26.104-61.356,37.007-94.47,26.244c-33.271-9.611-58.771-40.204-63.361-74.344c-2.312-18.467,0.844-37.771,9.54-54.312
	c15.61-30.648,50.214-51.13,84.74-48.716c34.603,0.987,67.206,24.142,79.854,56.37C624.282,377.731,617.271,416.342,594.538,441.296
	z M816.697,287.89c-11.189,6.857-27.187,2.012-33.213-9.428c-4.66-7.534-5.443-17.531-1.306-25.49
	c4.642-10.316,17.312-15.911,28.125-12.623c6.611,2.334,13.033,7.034,15.65,13.773C832.018,265.655,828.211,281.438,816.697,287.89z
	 M1257.549,367.313c-13.193,4.85-29.379-3.651-33.096-17.086c-4.85-13.195,3.652-29.382,17.086-33.102
	c11.75-4.312,26.061,1.938,31.49,13.057h-0.002C1280.812,343.806,1272.576,363.222,1257.549,367.313z M57.667,317.742
	c3.664-3.621,8.022-3.021,12.299-0.954c2.677,1.295,5.354,2.59,8.03,3.884c0.585,0.283,1.171,0.566,1.756,0.851l-0.001-0.002
	c28.763,25.006,56.082,51.824,78.327,82.879c21.614,31.354,42.916,63.004,63.969,94.821c14.011,20.688,26.372,42.571,39.665,63.875
	c58.991-13.729,117.928-28.645,177.872-37.845c64.265-10.188,128.729-19.033,193.089-28.551
	c83.048-13.8,166.147-27.415,249.104-41.188c43.231-6.709,86.559-12.438,129.812-18.756c47.164-6.979,94.566-12.832,141.449-21.437
	c81.229-14.159,162.562-27.648,243.75-42.299c-107.833-104.979-215.979-209.667-323.874-314.524
	c-2.246-2.139-4.424-4.396-6.355-6.828c-13.086-17.253-25.827-34.71-39.225-51.668c-21.924,4.851-43.221,12.122-64.812,18.079
	c-45.974,11.641-90.742,27.637-136.718,39.279c-15.461,4.321-30.771,8.8-46.039,13.767c-38.735,13.692-78.861,23.083-117.539,36.654
	c-74.36,23.042-147.918,48.447-221.923,72.686c-118.795,39.401-237.442,79.293-356.227,119.006
	c-5.069,0.464-10.138,0.929-15.206,1.392c-3.228,0.297-5.616-1.778-6.904-4.565c-2.387-14.851-15.261-26.193-30.784-26.194
	C13.96,270.102,0,284.062,0,301.283c0,17.221,13.96,31.181,31.181,31.181c11.178,0,20.983-5.883,26.488-14.721L57.667,317.742z"/>
</svg>
