<?xml version="1.0" encoding="utf-8"?>
<!-- Generator: Adobe Illustrator 16.0.0, SVG Export Plug-In . SVG Version: 6.00 Build 0)  -->
<!DOCTYPE svg PUBLIC "-//W3C//DTD SVG 1.1//EN" "http://www.w3.org/Graphics/SVG/1.1/DTD/svg11.dtd">
<svg version="1.1" id="Layer_1" xmlns="http://www.w3.org/2000/svg" xmlns:xlink="http://www.w3.org/1999/xlink" x="0px" y="0px"
	 width="2093.943px" height="705.875px" viewBox="0 0 2093.943 705.875" enable-background="new 0 0 2093.943 705.875"
	 xml:space="preserve">
<path fill="none" stroke="#000000" stroke-linejoin="round" stroke-miterlimit="10" d="M1334.142,448.679l-136.659-45.101
	l-304.143-99.951l-164.702-53.056l-120.684-36.985l-89.394-25.289l-150.655-42.346 M348.292,80.166
	c9.591,13.985,19.744,27.66,29.226,41.613c0.323,0.458,0.645,0.926,0.968,1.399 M379.8,125.087
	c2.597,3.704,5.542,7.233,10.351,7.999c32.793,12.326,67.01,20.192,100.219,31.094c31.998,11.38,65.185,18.706,97.146,30.196
	c29.755,9.297,60.032,17.2,89.498,27.482c53.239,15.213,105.9,32.398,158.599,49.475
	c154.957,49.719,309.656,100.313,464.742,149.595c19.745,5.148,39.496,10.271,59.252,15.367"/>
</svg>
