<?xml version="1.0" encoding="utf-8"?>
<!-- Generator: Adobe Illustrator 16.0.0, SVG Export Plug-In . SVG Version: 6.00 Build 0)  -->
<!DOCTYPE svg PUBLIC "-//W3C//DTD SVG 1.1//EN" "http://www.w3.org/Graphics/SVG/1.1/DTD/svg11.dtd">
<svg version="1.1" id="Layer_1" xmlns="http://www.w3.org/2000/svg" xmlns:xlink="http://www.w3.org/1999/xlink" x="0px" y="0px"
	 width="1686.208px" height="664.559px" viewBox="0 0 1686.208 664.559" enable-background="new 0 0 1686.208 664.559"
	 xml:space="preserve">
<path fill="none" stroke="#000000" stroke-miterlimit="10" d="M1658.012,75.14L1399.317,1.844l0,0c0,0-27.219-6.84-52.562,5.832
	c-23.396,11.736-56.447,31.752-56.447,31.752s-15.768,8.928-41.324,15.552c-30.604,7.92-75.168,13.968-123.119,15.84
	c-99.576,3.888-212.039-16.776-212.039-16.776s-44.496-10.512-91.804-12.816c-44.928-2.16-92.732,3.816-92.732,3.816
	s-60.984,5.328-144.146,12.168C505.078,63.764,403.557,73.7,316.653,77.588c-104.904,4.752-188.496,2.808-188.496,2.808
	s-55.44,1.584-65.88,21.312c-8.568,16.272,27.576,51.264,27.576,51.264s61.344,50.184,148.32,112.176
	c200.018,142.562,525.24,377.855,525.24,377.855s25.56,17.641,43.2,21.168c14.831,2.953,51.624-11.951,51.624-11.951l0,0
	l105.189-44.137l0,0c0,0,15.771-4.104,17.137-11.16c1.367-7.484-11.734-18-11.734-18s-24.336-13.535-20.736-42.479
	c3.674-29.882,41.545-64.439,41.545-64.439s11.375-11.088,15.338-22.248c4.822-13.463,2.305-27.287,2.305-27.287
	s-9.939-50.977,8.426-77.76c13.607-19.875,56.953-17.713,56.953-17.713s23.471-3.456,57.311,0.936
	c21.672,2.811,47.447,11.306,74.594,18c130.895,32.112,310.318,89.714,310.318,89.714s33.479,13.682,49.248,2.734
	c12.814-8.854,20.088-39.889,20.088-39.889s14.615-57.603,34.199-118.081c23.545-72.936,56.521-148.824,56.521-148.824
	s14.9-26.64,10.438-41.472C1681.34,76.796,1658.012,75.14,1658.012,75.14L1658.012,75.14"/>
</svg>
