<?xml version="1.0" encoding="utf-8"?>
<!-- Generator: Adobe Illustrator 16.0.0, SVG Export Plug-In . SVG Version: 6.00 Build 0)  -->
<!DOCTYPE svg PUBLIC "-//W3C//DTD SVG 1.1//EN" "http://www.w3.org/Graphics/SVG/1.1/DTD/svg11.dtd">
<svg version="1.1" id="Layer_1" xmlns="http://www.w3.org/2000/svg" xmlns:xlink="http://www.w3.org/1999/xlink" x="0px" y="0px"
	 width="2093.943px" height="705.875px" viewBox="0 0 2093.943 705.875" enable-background="new 0 0 2093.943 705.875"
	 xml:space="preserve">
<path fill="none" stroke="#000000" stroke-linejoin="round" stroke-miterlimit="10" d="M893.34,303.627l-164.702-53.056
	l-120.682-36.985l-89.394-25.289l-150.655-42.346l-19.633,25.819l-19.377,26.011l-15.36,15.703l-20.862,20.436l-43.774,42.852
	l-47.085,46.072l-77.879,76.202l-71.874,70.392L0,520.501l149.09,25.364l156.124,25.631l210.14,29.363l281.372,44.721
	l142.728,20.386l69.143,11.629l67.794,14.565l59.466,13.715l19.404-32.206l17.814-28.552l18.089-27.437l26.036-39.022l16.651-24.608
	l15.101-20.834l19.543-22.974l14.864-15.53l25.538-24.14l25.245-21.894l-136.658-45.101L893.34,303.627z M2032.703,573.019
	c-47.193-31.404-94.359-62.922-141.413-94.404c-41.45-24.611-83.409-48.305-124.957-72.585
	c-17.672-9.928-34.699-20.854-52.739-29.938c-130.729-64.637-261.589-128.838-391.951-194.321
	c-57.595-28.381-114.793-57.718-172.625-85.693c-31.072-16.581-64.354-28.455-98.104-38.324
	c-87.855-24.149-178.319-37.76-268.774-47.323c-31.235-2.594-62.209-7.727-93.627-9.302c-91.957-5.246-185.517,7.597-270.901,42.93
	c-23.935,10.247-47.991,20.935-69.319,36.107c9.589,13.985,19.744,27.66,29.224,41.613c3.279,4.646,6.383,10.312,12.634,11.307
	c32.793,12.326,67.01,20.192,100.219,31.094c31.998,11.38,65.183,18.706,97.146,30.196c29.755,9.297,60.032,17.2,89.498,27.482
	c53.239,15.213,105.902,32.398,158.599,49.475c154.957,49.719,309.656,100.313,464.742,149.595
	c131.188,34.203,262.613,67.168,393.959,100.824c129.357,33.547,259.32,65.016,389.125,97.029c3.461,0.771,6.985,1.328,10.514,1.885
	C2073.624,604.732,2053.78,587.984,2032.703,573.019z M402.34,81.858c-3.719,0-6.729-3.014-6.729-6.732s3.014-6.732,6.729-6.732
	s6.732,3.014,6.732,6.732S406.059,81.858,402.34,81.858z M458.911,133.858c-3.719,0-6.732-3.014-6.732-6.732
	s3.017-6.732,6.732-6.732s6.729,3.014,6.729,6.732S462.629,133.858,458.911,133.858z M458.911,81.858
	c-3.719,0-6.732-3.014-6.732-6.732s3.017-6.732,6.732-6.732s6.729,3.014,6.729,6.732S462.629,81.858,458.911,81.858z
	 M515.481,133.858c-3.722,0-6.732-3.014-6.732-6.732s3.014-6.732,6.732-6.732c3.718,0,6.729,3.014,6.729,6.732
	S519.2,133.858,515.481,133.858z M515.481,81.858c-3.722,0-6.732-3.014-6.732-6.732s3.014-6.732,6.732-6.732
	c3.718,0,6.729,3.014,6.729,6.732S519.2,81.858,515.481,81.858z M572.051,133.858c-3.719,0-6.729-3.014-6.729-6.732
	s3.014-6.732,6.729-6.732c3.719,0,6.732,3.014,6.732,6.732S575.77,133.858,572.051,133.858z M572.051,81.858
	c-3.719,0-6.729-3.014-6.729-6.732s3.014-6.732,6.729-6.732c3.719,0,6.732,3.014,6.732,6.732S575.77,81.858,572.051,81.858z
	 M572.051,29.858c-3.719,0-6.729-3.014-6.729-6.732s3.014-6.732,6.729-6.732c3.719,0,6.732,3.014,6.732,6.732
	S575.77,29.858,572.051,29.858z M628.622,185.858c-3.719,0-6.732-3.014-6.732-6.732s3.017-6.732,6.732-6.732
	s6.731,3.014,6.731,6.732S632.34,185.858,628.622,185.858z M628.622,133.858c-3.719,0-6.732-3.014-6.732-6.732
	s3.017-6.732,6.732-6.732s6.731,3.014,6.731,6.732S632.34,133.858,628.622,133.858z M628.622,81.858
	c-3.719,0-6.732-3.014-6.732-6.732s3.017-6.732,6.732-6.732s6.731,3.014,6.731,6.732S632.34,81.858,628.622,81.858z M628.622,29.858
	c-3.719,0-6.732-3.014-6.732-6.732s3.017-6.732,6.732-6.732s6.731,3.014,6.731,6.732S632.34,29.858,628.622,29.858z
	 M685.192,185.858c-3.722,0-6.732-3.014-6.732-6.732s3.014-6.732,6.732-6.732c3.718,0,6.729,3.014,6.729,6.732
	S688.911,185.858,685.192,185.858z M685.192,133.858c-3.722,0-6.732-3.014-6.732-6.732s3.014-6.732,6.732-6.732
	c3.718,0,6.729,3.014,6.729,6.732S688.911,133.858,685.192,133.858z M685.192,81.858c-3.722,0-6.732-3.014-6.732-6.732
	s3.014-6.732,6.732-6.732c3.718,0,6.729,3.014,6.729,6.732S688.911,81.858,685.192,81.858z M685.192,29.858
	c-3.722,0-6.732-3.014-6.732-6.732s3.014-6.732,6.732-6.732c3.718,0,6.729,3.014,6.729,6.732S688.911,29.858,685.192,29.858z
	 M741.762,185.858c-3.719,0-6.729-3.014-6.729-6.732s3.014-6.732,6.729-6.732c3.721,0,6.732,3.014,6.732,6.732
	S745.481,185.858,741.762,185.858z M741.762,133.858c-3.719,0-6.729-3.014-6.729-6.732s3.014-6.732,6.729-6.732
	c3.721,0,6.732,3.014,6.732,6.732S745.481,133.858,741.762,133.858z M741.762,81.858c-3.719,0-6.729-3.014-6.729-6.732
	s3.014-6.732,6.729-6.732c3.721,0,6.732,3.014,6.732,6.732S745.481,81.858,741.762,81.858z M741.762,29.858
	c-3.719,0-6.729-3.014-6.729-6.732s3.014-6.732,6.729-6.732c3.721,0,6.732,3.014,6.732,6.732S745.481,29.858,741.762,29.858z
	 M798.333,237.858c-3.719,0-6.732-3.014-6.732-6.732s3.017-6.732,6.732-6.732s6.732,3.014,6.732,6.732
	S802.051,237.858,798.333,237.858z M798.333,185.858c-3.719,0-6.732-3.014-6.732-6.732s3.017-6.732,6.732-6.732
	s6.732,3.014,6.732,6.732S802.051,185.858,798.333,185.858z M798.333,133.858c-3.719,0-6.732-3.014-6.732-6.732
	s3.017-6.732,6.732-6.732s6.732,3.014,6.732,6.732S802.051,133.858,798.333,133.858z M798.333,81.858
	c-3.719,0-6.732-3.014-6.732-6.732s3.017-6.732,6.732-6.732s6.732,3.014,6.732,6.732S802.051,81.858,798.333,81.858z
	 M854.903,237.858c-3.722,0-6.732-3.014-6.732-6.732s3.014-6.732,6.732-6.732c3.718,0,6.729,3.014,6.729,6.732
	S858.622,237.858,854.903,237.858z M854.903,185.858c-3.722,0-6.732-3.014-6.732-6.732s3.014-6.732,6.732-6.732
	c3.718,0,6.729,3.014,6.729,6.732S858.622,185.858,854.903,185.858z M854.903,133.858c-3.722,0-6.732-3.014-6.732-6.732
	s3.014-6.732,6.732-6.732c3.718,0,6.729,3.014,6.729,6.732S858.622,133.858,854.903,133.858z M854.903,81.858
	c-3.722,0-6.732-3.014-6.732-6.732s3.014-6.732,6.732-6.732c3.718,0,6.729,3.014,6.729,6.732S858.622,81.858,854.903,81.858z
	 M911.473,237.858c-3.719,0-6.729-3.014-6.729-6.732s3.014-6.732,6.729-6.732c3.721,0,6.732,3.014,6.732,6.732
	S915.192,237.858,911.473,237.858z M911.473,185.858c-3.719,0-6.729-3.014-6.729-6.732s3.014-6.732,6.729-6.732
	c3.721,0,6.732,3.014,6.732,6.732S915.192,185.858,911.473,185.858z M911.473,133.858c-3.719,0-6.729-3.014-6.729-6.732
	s3.014-6.732,6.729-6.732c3.721,0,6.732,3.014,6.732,6.732S915.192,133.858,911.473,133.858z M911.473,81.858
	c-3.719,0-6.729-3.014-6.729-6.732s3.014-6.732,6.729-6.732c3.721,0,6.732,3.014,6.732,6.732S915.192,81.858,911.473,81.858z
	 M968.043,289.858c-3.719,0-6.732-3.014-6.732-6.732s3.017-6.732,6.732-6.732s6.732,3.014,6.732,6.732
	S971.762,289.858,968.043,289.858z M968.043,237.858c-3.719,0-6.732-3.014-6.732-6.732s3.017-6.732,6.732-6.732
	s6.732,3.014,6.732,6.732S971.762,237.858,968.043,237.858z M968.043,185.858c-3.719,0-6.732-3.014-6.732-6.732
	s3.017-6.732,6.732-6.732s6.732,3.014,6.732,6.732S971.762,185.858,968.043,185.858z M968.043,133.858
	c-3.719,0-6.732-3.014-6.732-6.732s3.017-6.732,6.732-6.732s6.732,3.014,6.732,6.732S971.762,133.858,968.043,133.858z
	 M968.043,81.858c-3.719,0-6.732-3.014-6.732-6.732s3.017-6.732,6.732-6.732s6.732,3.014,6.732,6.732S971.762,81.858,968.043,81.858
	z M1024.614,289.858c-3.72,0-6.732-3.014-6.732-6.732s3.017-6.732,6.732-6.732s6.729,3.014,6.729,6.732
	S1028.333,289.858,1024.614,289.858z M1024.614,237.858c-3.72,0-6.732-3.014-6.732-6.732s3.017-6.732,6.732-6.732
	s6.729,3.014,6.729,6.732S1028.333,237.858,1024.614,237.858z M1024.614,185.858c-3.72,0-6.732-3.014-6.732-6.732
	s3.017-6.732,6.732-6.732s6.729,3.014,6.729,6.732S1028.333,185.858,1024.614,185.858z M1024.614,133.858
	c-3.72,0-6.732-3.014-6.732-6.732s3.017-6.732,6.732-6.732s6.729,3.014,6.729,6.732S1028.333,133.858,1024.614,133.858z
	 M1024.614,81.858c-3.72,0-6.732-3.014-6.732-6.732s3.017-6.732,6.732-6.732s6.729,3.014,6.729,6.732
	S1028.333,81.858,1024.614,81.858z M1081.184,341.858c-3.719,0-6.729-3.015-6.729-6.732s3.014-6.732,6.729-6.732
	c3.721,0,6.732,3.015,6.732,6.732S1084.902,341.858,1081.184,341.858z M1081.184,289.858c-3.719,0-6.729-3.014-6.729-6.732
	s3.014-6.732,6.729-6.732c3.721,0,6.732,3.014,6.732,6.732S1084.902,289.858,1081.184,289.858z M1081.184,237.858
	c-3.719,0-6.729-3.014-6.729-6.732s3.014-6.732,6.729-6.732c3.721,0,6.732,3.014,6.732,6.732S1084.902,237.858,1081.184,237.858z
	 M1081.184,185.858c-3.719,0-6.729-3.014-6.729-6.732s3.014-6.732,6.729-6.732c3.721,0,6.732,3.014,6.732,6.732
	S1084.902,185.858,1081.184,185.858z M1081.184,133.858c-3.719,0-6.729-3.014-6.729-6.732s3.014-6.732,6.729-6.732
	c3.721,0,6.732,3.014,6.732,6.732S1084.902,133.858,1081.184,133.858z M1137.754,341.858c-3.719,0-6.732-3.015-6.732-6.732
	s3.017-6.732,6.732-6.732s6.732,3.015,6.732,6.732S1141.473,341.858,1137.754,341.858z M1137.754,289.858
	c-3.719,0-6.732-3.014-6.732-6.732s3.017-6.732,6.732-6.732s6.732,3.014,6.732,6.732S1141.473,289.858,1137.754,289.858z
	 M1137.754,237.858c-3.719,0-6.732-3.014-6.732-6.732s3.017-6.732,6.732-6.732s6.732,3.014,6.732,6.732
	S1141.473,237.858,1137.754,237.858z M1137.754,185.858c-3.719,0-6.732-3.014-6.732-6.732s3.017-6.732,6.732-6.732
	s6.732,3.014,6.732,6.732S1141.473,185.858,1137.754,185.858z M1137.754,133.858c-3.719,0-6.732-3.014-6.732-6.732
	s3.017-6.732,6.732-6.732s6.732,3.014,6.732,6.732S1141.473,133.858,1137.754,133.858z M1194.324,341.858
	c-3.719,0-6.732-3.015-6.732-6.732s3.014-6.732,6.732-6.732c3.718,0,6.729,3.015,6.729,6.732S1198.043,341.858,1194.324,341.858z
	 M1194.324,289.858c-3.719,0-6.732-3.014-6.732-6.732s3.014-6.732,6.732-6.732c3.718,0,6.729,3.014,6.729,6.732
	S1198.043,289.858,1194.324,289.858z M1194.324,237.858c-3.719,0-6.732-3.014-6.732-6.732s3.014-6.732,6.732-6.732
	c3.718,0,6.729,3.014,6.729,6.732S1198.043,237.858,1194.324,237.858z M1194.324,185.858c-3.719,0-6.732-3.014-6.732-6.732
	s3.014-6.732,6.732-6.732c3.718,0,6.729,3.014,6.729,6.732S1198.043,185.858,1194.324,185.858z M1250.895,393.857
	c-3.719,0-6.729-3.016-6.729-6.73s3.014-6.732,6.729-6.732c3.721,0,6.732,3.018,6.732,6.732S1254.613,393.857,1250.895,393.857z
	 M1250.895,341.858c-3.719,0-6.729-3.015-6.729-6.732s3.014-6.732,6.729-6.732c3.721,0,6.732,3.015,6.732,6.732
	S1254.613,341.858,1250.895,341.858z M1250.895,289.858c-3.719,0-6.729-3.014-6.729-6.732s3.014-6.732,6.729-6.732
	c3.721,0,6.732,3.014,6.732,6.732S1254.613,289.858,1250.895,289.858z M1250.895,237.858c-3.719,0-6.729-3.014-6.729-6.732
	s3.014-6.732,6.729-6.732c3.721,0,6.732,3.014,6.732,6.732S1254.613,237.858,1250.895,237.858z M1250.895,185.858
	c-3.719,0-6.729-3.014-6.729-6.732s3.014-6.732,6.729-6.732c3.721,0,6.732,3.014,6.732,6.732S1254.613,185.858,1250.895,185.858z
	 M1307.465,393.857c-3.719,0-6.732-3.016-6.732-6.73s3.017-6.732,6.732-6.732s6.732,3.018,6.732,6.732
	S1311.184,393.857,1307.465,393.857z M1307.465,341.858c-3.719,0-6.732-3.015-6.732-6.732s3.017-6.732,6.732-6.732
	s6.732,3.015,6.732,6.732S1311.184,341.858,1307.465,341.858z M1307.465,289.858c-3.719,0-6.732-3.014-6.732-6.732
	s3.017-6.732,6.732-6.732s6.732,3.014,6.732,6.732S1311.184,289.858,1307.465,289.858z M1307.465,237.858
	c-3.719,0-6.732-3.014-6.732-6.732s3.017-6.732,6.732-6.732s6.732,3.014,6.732,6.732S1311.184,237.858,1307.465,237.858z
	 M1364.035,393.857c-3.719,0-6.732-3.016-6.732-6.73s3.017-6.732,6.732-6.732s6.732,3.018,6.732,6.732
	S1367.754,393.857,1364.035,393.857z M1364.035,341.858c-3.719,0-6.732-3.015-6.732-6.732s3.017-6.732,6.732-6.732
	s6.732,3.015,6.732,6.732S1367.754,341.858,1364.035,341.858z M1364.035,289.858c-3.719,0-6.732-3.014-6.732-6.732
	s3.017-6.732,6.732-6.732s6.732,3.014,6.732,6.732S1367.754,289.858,1364.035,289.858z M1364.035,237.858
	c-3.719,0-6.732-3.014-6.732-6.732s3.017-6.732,6.732-6.732s6.732,3.014,6.732,6.732S1367.754,237.858,1364.035,237.858z
	 M1420.605,393.857c-3.722,0-6.732-3.016-6.732-6.73s3.014-6.732,6.732-6.732c3.718,0,6.729,3.018,6.729,6.732
	S1424.324,393.857,1420.605,393.857z M1420.605,341.858c-3.722,0-6.732-3.015-6.732-6.732s3.014-6.732,6.732-6.732
	c3.718,0,6.729,3.015,6.729,6.732S1424.324,341.858,1420.605,341.858z M1420.605,289.858c-3.722,0-6.732-3.014-6.732-6.732
	s3.014-6.732,6.732-6.732c3.718,0,6.729,3.014,6.729,6.732S1424.324,289.858,1420.605,289.858z M1477.176,445.859
	c-3.719,0-6.729-3.018-6.729-6.732s3.014-6.732,6.729-6.732c3.719,0,6.732,3.018,6.732,6.732S1480.895,445.859,1477.176,445.859z
	 M1477.176,393.857c-3.719,0-6.729-3.016-6.729-6.73s3.014-6.732,6.729-6.732c3.719,0,6.732,3.018,6.732,6.732
	S1480.895,393.857,1477.176,393.857z M1477.176,341.858c-3.719,0-6.729-3.015-6.729-6.732s3.014-6.732,6.729-6.732
	c3.719,0,6.732,3.015,6.732,6.732S1480.895,341.858,1477.176,341.858z M1477.176,289.858c-3.719,0-6.729-3.014-6.729-6.732
	s3.014-6.732,6.729-6.732c3.719,0,6.732,3.014,6.732,6.732S1480.895,289.858,1477.176,289.858z M1533.746,445.859
	c-3.719,0-6.732-3.018-6.732-6.732s3.017-6.732,6.732-6.732s6.732,3.018,6.732,6.732S1537.465,445.859,1533.746,445.859z
	 M1533.746,393.857c-3.719,0-6.732-3.016-6.732-6.73s3.017-6.732,6.732-6.732s6.732,3.018,6.732,6.732
	S1537.465,393.857,1533.746,393.857z M1533.746,341.858c-3.719,0-6.732-3.015-6.732-6.732s3.017-6.732,6.732-6.732
	s6.732,3.015,6.732,6.732S1537.465,341.858,1533.746,341.858z M1590.316,445.859c-3.722,0-6.732-3.018-6.732-6.732
	s3.014-6.732,6.732-6.732c3.718,0,6.729,3.018,6.729,6.732S1594.035,445.859,1590.316,445.859z M1590.316,393.857
	c-3.722,0-6.732-3.016-6.732-6.73s3.014-6.732,6.732-6.732c3.718,0,6.729,3.018,6.729,6.732S1594.035,393.857,1590.316,393.857z
	 M1590.316,341.858c-3.722,0-6.732-3.015-6.732-6.732s3.014-6.732,6.732-6.732c3.718,0,6.729,3.015,6.729,6.732
	S1594.035,341.858,1590.316,341.858z M1646.887,497.859c-3.719,0-6.729-3.018-6.729-6.732s3.014-6.732,6.729-6.732
	c3.719,0,6.732,3.018,6.732,6.732S1650.605,497.859,1646.887,497.859z M1646.887,445.859c-3.719,0-6.729-3.018-6.729-6.732
	s3.014-6.732,6.729-6.732c3.719,0,6.732,3.018,6.732,6.732S1650.605,445.859,1646.887,445.859z M1646.887,393.857
	c-3.719,0-6.729-3.016-6.729-6.73s3.014-6.732,6.729-6.732c3.719,0,6.732,3.018,6.732,6.732S1650.605,393.857,1646.887,393.857z
	 M1703.457,497.859c-3.719,0-6.732-3.018-6.732-6.732s3.017-6.732,6.732-6.732s6.732,3.018,6.732,6.732
	S1707.176,497.859,1703.457,497.859z M1703.457,445.859c-3.719,0-6.732-3.018-6.732-6.732s3.017-6.732,6.732-6.732
	s6.732,3.018,6.732,6.732S1707.176,445.859,1703.457,445.859z M1760.027,497.859c-3.722,0-6.732-3.018-6.732-6.732
	s3.014-6.732,6.732-6.732c3.718,0,6.729,3.018,6.729,6.732S1763.746,497.859,1760.027,497.859z M1760.027,445.859
	c-3.722,0-6.732-3.018-6.732-6.732s3.014-6.732,6.732-6.732c3.718,0,6.729,3.018,6.729,6.732S1763.746,445.859,1760.027,445.859z
	 M1816.598,497.859c-3.719,0-6.729-3.018-6.729-6.732s3.014-6.732,6.729-6.732c3.721,0,6.732,3.018,6.732,6.732
	S1820.316,497.859,1816.598,497.859z M1873.168,549.859c-3.719,0-6.732-3.018-6.732-6.732s3.017-6.732,6.732-6.732
	s6.732,3.018,6.732,6.732S1876.887,549.859,1873.168,549.859z M1873.168,497.859c-3.719,0-6.732-3.018-6.732-6.732
	s3.017-6.732,6.732-6.732s6.732,3.018,6.732,6.732S1876.887,497.859,1873.168,497.859z M1929.738,549.859
	c-3.719,0-6.732-3.018-6.732-6.732s3.014-6.732,6.732-6.732c3.718,0,6.729,3.018,6.729,6.732S1933.457,549.859,1929.738,549.859z"/>
</svg>
