<?xml version="1.0" encoding="utf-8"?>
<!-- Generator: Adobe Illustrator 16.0.0, SVG Export Plug-In . SVG Version: 6.00 Build 0)  -->
<!DOCTYPE svg PUBLIC "-//W3C//DTD SVG 1.1//EN" "http://www.w3.org/Graphics/SVG/1.1/DTD/svg11.dtd">
<svg version="1.1" id="Layer_1" xmlns="http://www.w3.org/2000/svg" xmlns:xlink="http://www.w3.org/1999/xlink" x="0px" y="0px"
	 width="2094.52px" height="707.808px" viewBox="0 0 2094.52 707.808" enable-background="new 0 0 2094.52 707.808"
	 xml:space="preserve">
<path fill="none" stroke="#000001" stroke-linejoin="round" stroke-miterlimit="10" d="M1292.273,586.007
	c-22.892,26.105-61.358,37.008-94.473,26.244c-33.271-9.611-58.771-40.203-63.359-74.342c-2.312-18.469,0.845-37.771,9.541-54.312
	c15.607-30.65,50.214-51.131,84.737-48.717c34.604,0.988,67.206,24.141,79.854,56.371
	C1322.018,522.445,1315.006,561.054,1292.273,586.007z M1514.433,432.601c-11.188,6.857-27.187,2.012-33.213-9.428
	c-4.661-7.533-5.441-17.531-1.304-25.49c4.639-10.314,17.312-15.91,28.125-12.623c6.613,2.334,13.035,7.035,15.652,13.773
	C1529.752,410.367,1525.945,426.15,1514.433,432.601z M1955.281,512.027c-13.192,4.848-29.379-3.652-33.096-17.086
	c-4.854-13.197,3.649-29.383,17.086-33.1c11.75-4.316,26.062,1.939,31.487,13.053h-0.001
	C1978.548,488.517,1970.311,507.933,1955.281,512.027z M165.193,552.859c-3.718,0-6.729-3.016-6.729-6.732
	c0-3.715,3.014-6.732,6.729-6.732c3.721,0,6.732,3.021,6.732,6.732C171.925,549.843,168.912,552.859,165.193,552.859z
	 M221.764,552.859c-3.718,0-6.729-3.016-6.729-6.732c0-3.715,3.014-6.732,6.729-6.732c3.719,0,6.733,3.021,6.733,6.732
	C228.497,549.843,225.483,552.859,221.764,552.859z M221.764,500.859c-3.718,0-6.729-3.016-6.729-6.732
	c0-3.715,3.014-6.732,6.729-6.732c3.719,0,6.733,3.021,6.733,6.732C228.497,497.843,225.483,500.859,221.764,500.859z
	 M278.334,500.859c-3.719,0-6.732-3.016-6.732-6.732c0-3.715,3.016-6.732,6.732-6.732s6.73,3.021,6.73,6.732
	C285.066,497.843,282.053,500.859,278.334,500.859z M334.905,500.859c-3.721,0-6.73-3.016-6.73-6.732
	c0-3.715,3.016-6.732,6.73-6.732s6.73,3.021,6.73,6.732C341.636,497.843,338.622,500.859,334.905,500.859z M334.905,448.859
	c-3.721,0-6.73-3.016-6.73-6.732c0-3.715,3.016-6.732,6.73-6.732s6.73,3.021,6.73,6.732
	C341.636,445.843,338.622,448.859,334.905,448.859z M391.475,500.859c-3.719,0-6.73-3.016-6.73-6.732
	c0-3.715,3.016-6.732,6.73-6.732c3.72,0,6.73,3.021,6.73,6.732C398.205,497.843,395.194,500.859,391.475,500.859z M391.475,448.859
	c-3.719,0-6.73-3.016-6.73-6.732c0-3.715,3.016-6.732,6.73-6.732c3.72,0,6.73,3.021,6.73,6.732
	C398.205,445.843,395.194,448.859,391.475,448.859z M448.045,500.859c-3.721,0-6.729-3.016-6.729-6.732
	c0-3.715,3.014-6.732,6.729-6.732c3.715,0,6.73,3.021,6.73,6.732C454.777,497.843,451.764,500.859,448.045,500.859z
	 M448.045,448.859c-3.721,0-6.729-3.016-6.729-6.732c0-3.715,3.014-6.732,6.729-6.732c3.715,0,6.73,3.021,6.73,6.732
	C454.777,445.843,451.764,448.859,448.045,448.859z M448.045,396.859c-3.721,0-6.729-3.016-6.729-6.732
	c0-3.715,3.014-6.729,6.729-6.729c3.715,0,6.73,3.02,6.73,6.729C454.777,393.843,451.764,396.859,448.045,396.859z M504.615,448.859
	c-3.719,0-6.73-3.016-6.73-6.732c0-3.715,3.017-6.732,6.73-6.732s6.729,3.021,6.729,6.732
	C511.347,445.843,508.334,448.859,504.615,448.859z M504.615,396.859c-3.719,0-6.73-3.016-6.73-6.732
	c0-3.715,3.017-6.729,6.73-6.729s6.729,3.02,6.729,6.729C511.347,393.843,508.334,396.859,504.615,396.859z M504.615,331.394
	c3.72,0,6.732,3.014,6.732,6.732s-3.015,6.732-6.732,6.732s-6.73-3.014-6.73-6.732S500.898,331.394,504.615,331.394z
	 M561.186,448.859c-3.719,0-6.729-3.016-6.729-6.732c0-3.715,3.016-6.732,6.729-6.732c3.721,0,6.732,3.021,6.732,6.732
	C567.918,445.843,564.905,448.859,561.186,448.859z M561.186,396.859c-3.719,0-6.729-3.016-6.729-6.732
	c0-3.715,3.016-6.729,6.729-6.729c3.721,0,6.732,3.02,6.732,6.729C567.918,393.843,564.905,396.859,561.186,396.859z
	 M561.186,344.858c-3.719,0-6.729-3.016-6.729-6.732s3.016-6.732,6.729-6.732c3.721,0,6.732,3.016,6.732,6.732
	S564.905,344.858,561.186,344.858z M617.756,448.859c-3.721,0-6.729-3.016-6.729-6.732c0-3.715,3.014-6.732,6.729-6.732
	c3.715,0,6.73,3.021,6.73,6.732C624.488,445.843,621.475,448.859,617.756,448.859z M617.756,396.859
	c-3.721,0-6.729-3.016-6.729-6.732c0-3.715,3.014-6.729,6.729-6.729c3.715,0,6.73,3.02,6.73,6.729
	C624.488,393.843,621.475,396.859,617.756,396.859z M617.756,331.394c3.718,0,6.73,3.014,6.73,6.732s-3.014,6.732-6.73,6.732
	c-3.72,0-6.732-3.014-6.732-6.732S614.036,331.394,617.756,331.394z M617.756,279.394c3.718,0,6.73,3.014,6.73,6.732
	s-3.014,6.732-6.73,6.732c-3.72,0-6.732-3.014-6.732-6.732S614.036,279.394,617.756,279.394z M674.325,396.859
	c-3.719,0-6.73-3.016-6.73-6.732c0-3.715,3.017-6.729,6.73-6.729s6.729,3.02,6.729,6.729
	C681.058,393.843,678.045,396.859,674.325,396.859z M674.325,331.394c3.72,0,6.732,3.014,6.732,6.732s-3.014,6.732-6.732,6.732
	c-3.718,0-6.73-3.014-6.73-6.732S670.609,331.394,674.325,331.394z M674.325,279.394c3.72,0,6.732,3.014,6.732,6.732
	s-3.014,6.732-6.732,6.732c-3.718,0-6.73-3.014-6.73-6.732S670.609,279.394,674.325,279.394z M730.896,396.859
	c-3.721,0-6.731-3.016-6.731-6.732c0-3.715,3.016-6.729,6.731-6.729c3.719,0,6.729,3.02,6.729,6.729
	C737.628,393.843,734.615,396.859,730.896,396.859z M730.896,344.858c-3.721,0-6.731-3.016-6.731-6.732s3.016-6.732,6.731-6.732
	c3.719,0,6.729,3.016,6.729,6.732S734.615,344.858,730.896,344.858z M730.896,292.858c-3.721,0-6.731-3.014-6.731-6.732
	s3.016-6.732,6.731-6.732c3.719,0,6.729,3.014,6.729,6.732S734.615,292.858,730.896,292.858z M730.896,240.858
	c-3.721,0-6.731-3.014-6.731-6.732s3.016-6.732,6.731-6.732c3.719,0,6.729,3.014,6.729,6.732S734.615,240.858,730.896,240.858z
	 M787.467,396.859c-3.721,0-6.729-3.016-6.729-6.732c0-3.715,3.016-6.729,6.729-6.729s6.73,3.02,6.73,6.729
	C794.198,393.843,791.186,396.859,787.467,396.859z M787.467,331.394c3.718,0,6.73,3.014,6.73,6.732s-3.014,6.732-6.73,6.732
	c-3.72,0-6.732-3.014-6.732-6.732S783.747,331.394,787.467,331.394z M787.467,279.394c3.718,0,6.73,3.014,6.73,6.732
	s-3.014,6.732-6.73,6.732c-3.72,0-6.732-3.014-6.732-6.732S783.747,279.394,787.467,279.394z M787.467,227.394
	c3.718,0,6.73,3.014,6.73,6.732s-3.014,6.732-6.73,6.732c-3.72,0-6.732-3.014-6.732-6.732S783.747,227.394,787.467,227.394z
	 M844.036,331.394c3.72,0,6.732,3.014,6.732,6.732s-3.014,6.732-6.732,6.732c-3.718,0-6.73-3.014-6.73-6.732
	S840.32,331.394,844.036,331.394z M844.036,279.394c3.72,0,6.732,3.014,6.732,6.732s-3.014,6.732-6.732,6.732
	c-3.718,0-6.73-3.014-6.73-6.732S840.32,279.394,844.036,279.394z M844.036,227.394c3.72,0,6.732,3.014,6.732,6.732
	s-3.014,6.732-6.732,6.732c-3.718,0-6.73-3.014-6.73-6.732S840.32,227.394,844.036,227.394z M844.036,175.394
	c3.72,0,6.732,3.014,6.732,6.732s-3.014,6.732-6.732,6.732c-3.718,0-6.73-3.014-6.73-6.732S840.32,175.394,844.036,175.394z
	 M900.607,344.858c-3.722,0-6.731-3.016-6.731-6.732s3.015-6.732,6.731-6.732s6.729,3.016,6.729,6.732
	S904.324,344.858,900.607,344.858z M900.607,292.858c-3.722,0-6.731-3.014-6.731-6.732s3.015-6.732,6.731-6.732
	s6.729,3.014,6.729,6.732S904.324,292.858,900.607,292.858z M900.607,240.858c-3.722,0-6.731-3.014-6.731-6.732
	s3.015-6.732,6.731-6.732s6.729,3.014,6.729,6.732S904.324,240.858,900.607,240.858z M900.607,188.858
	c-3.722,0-6.731-3.014-6.731-6.732s3.015-6.732,6.731-6.732s6.729,3.014,6.729,6.732S904.324,188.858,900.607,188.858z
	 M957.178,331.394c3.718,0,6.73,3.014,6.73,6.732s-3.014,6.732-6.73,6.732s-6.732-3.014-6.732-6.732S953.46,331.394,957.178,331.394
	z M957.178,279.394c3.718,0,6.73,3.014,6.73,6.732s-3.014,6.732-6.73,6.732s-6.732-3.014-6.732-6.732
	S953.46,279.394,957.178,279.394z M957.178,227.394c3.718,0,6.73,3.014,6.73,6.732s-3.014,6.732-6.73,6.732
	s-6.732-3.014-6.732-6.732S953.46,227.394,957.178,227.394z M957.178,175.394c3.718,0,6.73,3.014,6.73,6.732
	s-3.014,6.732-6.73,6.732s-6.732-3.014-6.732-6.732S953.46,175.394,957.178,175.394z M957.178,123.394
	c3.718,0,6.73,3.014,6.73,6.732s-3.014,6.732-6.73,6.732s-6.732-3.014-6.732-6.732S953.46,123.394,957.178,123.394z
	 M1013.746,279.394c3.72,0,6.732,3.014,6.732,6.732s-3.014,6.732-6.732,6.732c-3.718,0-6.73-3.014-6.73-6.732
	S1010.03,279.394,1013.746,279.394z M1013.746,227.394c3.72,0,6.732,3.014,6.732,6.732s-3.014,6.732-6.732,6.732
	c-3.718,0-6.73-3.014-6.73-6.732S1010.03,227.394,1013.746,227.394z M1013.746,175.394c3.72,0,6.732,3.014,6.732,6.732
	s-3.014,6.732-6.732,6.732c-3.718,0-6.73-3.014-6.73-6.732S1010.03,175.394,1013.746,175.394z M1013.746,123.394
	c3.72,0,6.732,3.014,6.732,6.732s-3.014,6.732-6.732,6.732c-3.718,0-6.73-3.014-6.73-6.732S1010.03,123.394,1013.746,123.394z
	 M1070.318,292.858c-3.722,0-6.73-3.014-6.73-6.732s3.014-6.732,6.73-6.732s6.729,3.014,6.729,6.732
	S1074.035,292.858,1070.318,292.858z M1070.318,240.858c-3.722,0-6.73-3.014-6.73-6.732s3.014-6.732,6.73-6.732
	s6.729,3.014,6.729,6.732S1074.035,240.858,1070.318,240.858z M1070.318,188.858c-3.722,0-6.73-3.014-6.73-6.732
	s3.014-6.732,6.73-6.732s6.729,3.014,6.729,6.732S1074.035,188.858,1070.318,188.858z M1070.318,136.858
	c-3.722,0-6.73-3.014-6.73-6.732s3.014-6.732,6.73-6.732s6.729,3.014,6.729,6.732
	C1077.048,133.844,1074.035,136.858,1070.318,136.858z M1070.318,84.858c-3.722,0-6.73-3.014-6.73-6.732s3.014-6.732,6.73-6.732
	s6.729,3.014,6.729,6.732S1074.035,84.858,1070.318,84.858z M1126.889,292.858c-3.719,0-6.729-3.014-6.729-6.732
	s3.016-6.732,6.729-6.732c3.721,0,6.732,3.014,6.732,6.732S1130.607,292.858,1126.889,292.858z M1126.889,240.858
	c-3.719,0-6.729-3.014-6.729-6.732s3.016-6.732,6.729-6.732c3.721,0,6.732,3.014,6.732,6.732S1130.607,240.858,1126.889,240.858z
	 M1126.889,188.858c-3.719,0-6.729-3.014-6.729-6.732s3.016-6.732,6.729-6.732c3.721,0,6.732,3.014,6.732,6.732
	S1130.607,188.858,1126.889,188.858z M1126.889,136.858c-3.719,0-6.729-3.014-6.729-6.732s3.016-6.732,6.729-6.732
	c3.721,0,6.732,3.014,6.732,6.732C1133.619,133.844,1130.607,136.858,1126.889,136.858z M1126.889,84.858
	c-3.719,0-6.729-3.014-6.729-6.732s3.016-6.732,6.729-6.732c3.721,0,6.732,3.014,6.732,6.732S1130.607,84.858,1126.889,84.858z
	 M1183.459,227.394c3.718,0,6.73,3.014,6.73,6.732s-3.014,6.732-6.73,6.732c-3.72,0-6.732-3.014-6.732-6.732
	S1179.74,227.394,1183.459,227.394z M1183.459,175.394c3.718,0,6.73,3.014,6.73,6.732s-3.014,6.732-6.73,6.732
	c-3.72,0-6.732-3.014-6.732-6.732S1179.74,175.394,1183.459,175.394z M1183.459,123.394c3.718,0,6.73,3.014,6.73,6.732
	s-3.014,6.732-6.73,6.732c-3.72,0-6.732-3.014-6.732-6.732S1179.74,123.394,1183.459,123.394z M1183.459,71.394
	c3.718,0,6.73,3.014,6.73,6.732s-3.014,6.732-6.73,6.732c-3.72,0-6.732-3.014-6.732-6.732S1179.74,71.394,1183.459,71.394z
	 M1240.029,227.394c3.718,0,6.732,3.014,6.732,6.732s-3.015,6.732-6.732,6.732c-3.717,0-6.73-3.014-6.73-6.732
	S1236.311,227.394,1240.029,227.394z M1240.029,175.394c3.718,0,6.732,3.014,6.732,6.732s-3.015,6.732-6.732,6.732
	c-3.717,0-6.73-3.014-6.73-6.732S1236.311,175.394,1240.029,175.394z M1240.029,123.394c3.718,0,6.732,3.014,6.732,6.732
	s-3.015,6.732-6.732,6.732c-3.717,0-6.73-3.014-6.73-6.732S1236.311,123.394,1240.029,123.394z M1240.029,71.394
	c3.718,0,6.732,3.014,6.732,6.732s-3.015,6.732-6.732,6.732c-3.717,0-6.73-3.014-6.73-6.732S1236.311,71.394,1240.029,71.394z
	 M1296.6,240.858c-3.719,0-6.729-3.014-6.729-6.732s3.016-6.732,6.729-6.732c3.721,0,6.732,3.014,6.732,6.732
	S1300.318,240.858,1296.6,240.858z M1296.6,188.858c-3.719,0-6.729-3.014-6.729-6.732s3.016-6.732,6.729-6.732
	c3.721,0,6.732,3.014,6.732,6.732S1300.318,188.858,1296.6,188.858z M1296.6,136.858c-3.719,0-6.729-3.014-6.729-6.732
	s3.016-6.732,6.729-6.732c3.721,0,6.732,3.014,6.732,6.732S1300.318,136.858,1296.6,136.858z M1296.6,84.858
	c-3.719,0-6.729-3.014-6.729-6.732s3.016-6.732,6.729-6.732c3.721,0,6.732,3.014,6.732,6.732S1300.318,84.858,1296.6,84.858z
	 M1353.17,175.394c3.718,0,6.73,3.014,6.73,6.732s-3.014,6.732-6.73,6.732c-3.72,0-6.732-3.014-6.732-6.732
	S1349.45,175.394,1353.17,175.394z M1353.17,123.394c3.718,0,6.73,3.014,6.73,6.732s-3.014,6.732-6.73,6.732
	c-3.72,0-6.732-3.014-6.732-6.732S1349.45,123.394,1353.17,123.394z M1353.17,71.394c3.718,0,6.73,3.014,6.73,6.732
	s-3.014,6.732-6.73,6.732c-3.72,0-6.732-3.014-6.732-6.732S1349.45,71.394,1353.17,71.394z M1353.17,19.394
	c3.718,0,6.73,3.014,6.73,6.732s-3.014,6.732-6.73,6.732c-3.72,0-6.732-3.014-6.732-6.732S1349.45,19.394,1353.17,19.394z
	 M1409.74,175.394c3.718,0,6.732,3.014,6.732,6.732s-3.015,6.732-6.732,6.732c-3.717,0-6.73-3.014-6.73-6.732
	S1406.022,175.394,1409.74,175.394z M1409.74,123.394c3.718,0,6.732,3.014,6.732,6.732s-3.015,6.732-6.732,6.732
	c-3.717,0-6.73-3.014-6.73-6.732S1406.022,123.394,1409.74,123.394z M1409.74,71.394c3.718,0,6.732,3.014,6.732,6.732
	s-3.015,6.732-6.732,6.732c-3.717,0-6.73-3.014-6.73-6.732S1406.022,71.394,1409.74,71.394z M1409.74,19.394
	c3.718,0,6.732,3.014,6.732,6.732s-3.015,6.732-6.732,6.732c-3.717,0-6.73-3.014-6.73-6.732S1406.022,19.394,1409.74,19.394z
	 M1466.311,188.858c-3.719,0-6.729-3.014-6.729-6.732s3.014-6.732,6.729-6.732c3.721,0,6.732,3.014,6.732,6.732
	S1470.029,188.858,1466.311,188.858z M1466.311,136.858c-3.719,0-6.729-3.014-6.729-6.732s3.014-6.732,6.729-6.732
	c3.721,0,6.732,3.014,6.732,6.732S1470.029,136.858,1466.311,136.858z M1466.311,84.858c-3.719,0-6.729-3.014-6.729-6.732
	s3.014-6.732,6.729-6.732c3.721,0,6.732,3.014,6.732,6.732S1470.029,84.858,1466.311,84.858z M1466.311,32.858
	c-3.719,0-6.729-3.014-6.729-6.732s3.014-6.732,6.729-6.732c3.721,0,6.732,3.014,6.732,6.732S1470.029,32.858,1466.311,32.858z
	 M1522.881,123.394c3.718,0,6.73,3.014,6.73,6.732s-3.014,6.732-6.73,6.732c-3.72,0-6.732-3.014-6.732-6.732
	S1519.161,123.394,1522.881,123.394z M1522.881,71.394c3.718,0,6.73,3.014,6.73,6.732s-3.014,6.732-6.73,6.732
	c-3.72,0-6.732-3.014-6.732-6.732S1519.161,71.394,1522.881,71.394z M1522.881,19.394c3.718,0,6.73,3.014,6.73,6.732
	s-3.014,6.732-6.73,6.732c-3.72,0-6.732-3.014-6.732-6.732S1519.161,19.394,1522.881,19.394z M1579.449,123.394
	c3.719,0,6.732,3.014,6.732,6.732s-3.014,6.732-6.732,6.732c-3.718,0-6.73-3.014-6.73-6.732S1575.733,123.394,1579.449,123.394z
	 M1579.449,71.394c3.719,0,6.732,3.014,6.732,6.732s-3.014,6.732-6.732,6.732c-3.718,0-6.73-3.014-6.73-6.732
	S1575.733,71.394,1579.449,71.394z M1636.021,136.858c-3.722,0-6.732-3.014-6.732-6.732s3.016-6.732,6.732-6.732
	s6.729,3.014,6.729,6.732S1639.74,136.858,1636.021,136.858z M1636.021,84.858c-3.722,0-6.732-3.014-6.732-6.732
	s3.016-6.732,6.732-6.732s6.729,3.014,6.729,6.732S1639.74,84.858,1636.021,84.858z M1692.592,71.394c3.718,0,6.73,3.014,6.73,6.732
	s-3.014,6.732-6.73,6.732c-3.719,0-6.732-3.014-6.732-6.732S1688.873,71.394,1692.592,71.394z M1739.211,135.482
	c7.032,0.772,13.383,5.006,21.29,5.006c17.221,0,31.181-13.96,31.181-31.181c0-17.221-13.96-31.181-31.181-31.181
	c-3.307,0-6.587,0.531-9.729,1.549c-3.098,1.003-4.602,0.932-7.383-0.754c-21.391-15.083-45.494-25.671-69.469-35.819
	C1588.387,8.124,1494.775-4.33,1402.842,1.297c-31.41,1.705-62.356,6.967-93.586,9.69c-90.415,9.938-180.82,23.924-268.574,48.437
	c-33.707,10.009-66.938,22.021-97.94,38.729c-57.717,28.216-114.793,57.789-172.271,86.409
	c-130.09,66.023-260.681,130.765-391.14,195.945c-18.003,9.156-34.983,20.154-52.616,30.152
	c-41.445,24.455-83.305,48.32-124.653,73.104c-46.923,31.68-93.955,63.391-141.019,94.992c-21.019,15.053-40.79,31.881-61.042,47.9
	c3.521-0.57,7.045-1.145,10.504-1.934c129.668-32.553,259.5-64.559,388.714-98.643c111.271-29.004,222.604-57.51,333.796-86.697
	c5.648-0.727,11.459-0.309,16.077,3.35c2.979,2.354,5.961,4.715,8.943,7.068c0.688,0.545,1.375,1.09,2.062,1.639
	c35.028,29.242,69.024,60.406,95.715,97.67c21.614,31.354,42.916,63.002,63.973,94.82c14.012,20.689,26.372,42.57,39.665,63.875
	c58.987-13.729,117.929-28.645,177.871-37.846c64.265-10.189,128.728-19.033,193.091-28.551
	c83.046-13.799,166.146-27.414,249.099-41.189c43.235-6.709,86.562-12.438,129.812-18.756
	c47.162-6.979,94.564-12.832,141.446-21.438c81.231-14.158,162.564-27.648,243.751-42.301
	c-107.832-104.973-215.977-209.661-323.873-314.52c-2.245-2.139-4.427-4.396-6.354-6.828c-13.084-17.253-25.826-34.71-39.226-51.668
	C1719.846,138.103,1735.697,135.096,1739.211,135.482z"/>
</svg>
