<?xml version="1.0" encoding="utf-8"?>
<!-- Generator: Adobe Illustrator 16.0.0, SVG Export Plug-In . SVG Version: 6.00 Build 0)  -->
<!DOCTYPE svg PUBLIC "-//W3C//DTD SVG 1.1//EN" "http://www.w3.org/Graphics/SVG/1.1/DTD/svg11.dtd">
<svg version="1.1" id="Layer_1" xmlns="http://www.w3.org/2000/svg" xmlns:xlink="http://www.w3.org/1999/xlink" x="0px" y="0px"
	 width="2489.625px" height="902.035px" viewBox="0 0 2489.625 902.035" enable-background="new 0 0 2489.625 902.035"
	 xml:space="preserve">
<path d="M1581.599,514.701c0,0-360.286-135.177-452.249-168.568c-91.963-33.392-435.598-146.728-446.688-150.101
	c-11.087-3.374-22.905-2.498-30.527,7.853c-7.623,10.353-245.281,237.696-318.962,309.572
	C259.491,585.332,23.481,853.802,8.725,871.675c-14.757,17.871-8.408,23.347,1.506,25.061c9.915,1.713,147.656,6.545,206.271,5
	c58.615-1.543,60.814-14.291,77.428-26.01c16.608-11.717,221.815-186.316,251.717-207.408c29.9-21.092,69.769-49.214,154.997-35.947
	c85.228,13.266,647.548,110.408,665.038,110.514c17.484,0.105,29.797-3.604,37.174-12.541
	c7.377-8.937,116.834-135.895,134.424-153.278c17.59-17.385,32.049-25.097,49.588-33.733
	C1604.406,534.688,1592.685,518.076,1581.599,514.701z M2462.695,600.529c0,0-278.918-107.99-354.321-144.355
	c-75.402-36.364-616.857-304.946-616.857-304.946S1282.541,43.648,1192.135,26.57C964.666-16.396,685.62,3.251,651.768,13.449
	C617.913,23.646,551.715,69.1,542.818,95.276c-8.896,26.179,25.777,36.543,71.541,50.284
	c45.763,13.741,946.46,313.752,986.314,327.932c39.852,14.178,53.278,20.875,137.774,38.389
	c84.496,17.518,545.9,116.188,602.314,127.395c56.412,11.203,109.309,17.424,136.76,10.497
	C2504.978,642.843,2479.445,604.882,2462.695,600.529z M608.34,83.59c-3.722,0-6.732-3.014-6.732-6.732
	c0-3.718,3.014-6.732,6.732-6.732c3.718,0,6.729,3.014,6.729,6.732C615.071,80.577,612.058,83.59,608.34,83.59z M664.907,135.59
	c-3.719,0-6.729-3.014-6.729-6.732c0-3.718,3.014-6.732,6.729-6.732c3.721,0,6.732,3.014,6.732,6.732
	C671.641,132.577,668.629,135.59,664.907,135.59z M664.907,83.59c-3.719,0-6.729-3.014-6.729-6.732c0-3.718,3.014-6.732,6.729-6.732
	c3.721,0,6.732,3.014,6.732,6.732C671.641,80.577,668.629,83.59,664.907,83.59z M721.479,135.59c-3.719,0-6.732-3.014-6.732-6.732
	c0-3.718,3.017-6.732,6.732-6.732s6.732,3.014,6.732,6.732C728.212,132.577,725.197,135.59,721.479,135.59z M721.479,83.59
	c-3.719,0-6.732-3.014-6.732-6.732c0-3.718,3.017-6.732,6.732-6.732s6.732,3.014,6.732,6.732
	C728.212,80.577,725.197,83.59,721.479,83.59z M721.479,31.59c-3.719,0-6.732-3.014-6.732-6.732c0-3.718,3.017-6.732,6.732-6.732
	s6.732,3.014,6.732,6.732C728.212,28.577,725.197,31.59,721.479,31.59z M778.051,187.59c-3.719,0-6.732-3.014-6.732-6.732
	c0-3.718,3.014-6.732,6.732-6.732c3.718,0,6.729,3.014,6.729,6.732C784.781,184.577,781.769,187.59,778.051,187.59z M778.051,135.59
	c-3.719,0-6.732-3.014-6.732-6.732c0-3.718,3.014-6.732,6.732-6.732c3.718,0,6.729,3.014,6.729,6.732
	C784.781,132.577,781.769,135.59,778.051,135.59z M778.051,83.59c-3.719,0-6.732-3.014-6.732-6.732c0-3.718,3.014-6.732,6.732-6.732
	c3.718,0,6.729,3.014,6.729,6.732C784.781,80.577,781.769,83.59,778.051,83.59z M778.051,31.59c-3.719,0-6.732-3.014-6.732-6.732
	c0-3.718,3.014-6.732,6.732-6.732c3.718,0,6.729,3.014,6.729,6.732C784.781,28.577,781.769,31.59,778.051,31.59z M834.618,187.59
	c-3.719,0-6.729-3.014-6.729-6.732c0-3.718,3.014-6.732,6.729-6.732c3.721,0,6.732,3.014,6.732,6.732
	C841.352,184.577,838.34,187.59,834.618,187.59z M834.618,135.59c-3.719,0-6.729-3.014-6.729-6.732c0-3.718,3.014-6.732,6.729-6.732
	c3.721,0,6.732,3.014,6.732,6.732C841.352,132.577,838.34,135.59,834.618,135.59z M834.618,83.59c-3.719,0-6.729-3.014-6.729-6.732
	c0-3.718,3.014-6.732,6.729-6.732c3.721,0,6.732,3.014,6.732,6.732C841.352,80.577,838.34,83.59,834.618,83.59z M834.618,31.59
	c-3.719,0-6.729-3.014-6.729-6.732c0-3.718,3.014-6.732,6.729-6.732c3.721,0,6.732,3.014,6.732,6.732
	C841.352,28.577,838.34,31.59,834.618,31.59z M891.19,187.59c-3.719,0-6.73-3.014-6.73-6.732c0-3.718,3.015-6.732,6.73-6.732
	s6.732,3.014,6.732,6.732C897.923,184.577,894.907,187.59,891.19,187.59z M891.19,135.59c-3.719,0-6.73-3.014-6.73-6.732
	c0-3.718,3.015-6.732,6.73-6.732s6.732,3.014,6.732,6.732C897.923,132.577,894.907,135.59,891.19,135.59z M891.19,83.59
	c-3.719,0-6.73-3.014-6.73-6.732c0-3.718,3.015-6.732,6.73-6.732s6.732,3.014,6.732,6.732
	C897.923,80.577,894.907,83.59,891.19,83.59z M891.19,31.59c-3.719,0-6.73-3.014-6.73-6.732c0-3.718,3.015-6.732,6.73-6.732
	s6.732,3.014,6.732,6.732C897.923,28.577,894.907,31.59,891.19,31.59z M947.761,239.59c-3.72,0-6.732-3.014-6.732-6.732
	c0-3.718,3.017-6.732,6.732-6.732s6.729,3.014,6.729,6.732C954.491,236.577,951.479,239.59,947.761,239.59z M947.761,187.59
	c-3.72,0-6.732-3.014-6.732-6.732c0-3.718,3.017-6.732,6.732-6.732s6.729,3.014,6.729,6.732
	C954.491,184.577,951.479,187.59,947.761,187.59z M947.761,135.59c-3.72,0-6.732-3.014-6.732-6.732c0-3.718,3.017-6.732,6.732-6.732
	s6.729,3.014,6.729,6.732C954.491,132.577,951.479,135.59,947.761,135.59z M947.761,83.59c-3.72,0-6.732-3.014-6.732-6.732
	c0-3.718,3.017-6.732,6.732-6.732s6.729,3.014,6.729,6.732C954.491,80.577,951.479,83.59,947.761,83.59z M947.761,31.59
	c-3.72,0-6.732-3.014-6.732-6.732c0-3.718,3.017-6.732,6.732-6.732s6.729,3.014,6.729,6.732
	C954.491,28.577,951.479,31.59,947.761,31.59z M1004.329,239.59c-3.719,0-6.729-3.014-6.729-6.732c0-3.718,3.014-6.732,6.729-6.732
	c3.721,0,6.732,3.014,6.732,6.732C1011.063,236.577,1008.051,239.59,1004.329,239.59z M1004.329,187.59
	c-3.719,0-6.729-3.014-6.729-6.732c0-3.718,3.014-6.732,6.729-6.732c3.721,0,6.732,3.014,6.732,6.732
	C1011.063,184.577,1008.051,187.59,1004.329,187.59z M1004.329,135.59c-3.719,0-6.729-3.014-6.729-6.732
	c0-3.718,3.014-6.732,6.729-6.732c3.721,0,6.732,3.014,6.732,6.732C1011.063,132.577,1008.051,135.59,1004.329,135.59z
	 M1004.329,83.59c-3.719,0-6.729-3.014-6.729-6.732c0-3.718,3.014-6.732,6.729-6.732c3.721,0,6.732,3.014,6.732,6.732
	C1011.063,80.577,1008.051,83.59,1004.329,83.59z M1004.329,31.59c-3.719,0-6.729-3.014-6.729-6.732
	c0-3.718,3.014-6.732,6.729-6.732c3.721,0,6.732,3.014,6.732,6.732C1011.063,28.577,1008.051,31.59,1004.329,31.59z
	 M1060.901,239.59c-3.719,0-6.729-3.014-6.729-6.732c0-3.718,3.014-6.732,6.729-6.732s6.732,3.014,6.732,6.732
	C1067.634,236.577,1064.618,239.59,1060.901,239.59z M1060.901,187.59c-3.719,0-6.729-3.014-6.729-6.732
	c0-3.718,3.014-6.732,6.729-6.732s6.732,3.014,6.732,6.732C1067.634,184.577,1064.618,187.59,1060.901,187.59z M1060.901,135.59
	c-3.719,0-6.729-3.014-6.729-6.732c0-3.718,3.014-6.732,6.729-6.732s6.732,3.014,6.732,6.732
	C1067.634,132.577,1064.618,135.59,1060.901,135.59z M1060.901,83.59c-3.719,0-6.729-3.014-6.729-6.732
	c0-3.718,3.014-6.732,6.729-6.732s6.732,3.014,6.732,6.732C1067.634,80.577,1064.618,83.59,1060.901,83.59z M1117.472,291.59
	c-3.719,0-6.732-3.014-6.732-6.732c0-3.718,3.017-6.732,6.732-6.732s6.731,3.014,6.731,6.732
	C1124.203,288.577,1121.19,291.59,1117.472,291.59z M1117.472,239.59c-3.719,0-6.732-3.014-6.732-6.732
	c0-3.718,3.017-6.732,6.732-6.732s6.731,3.014,6.731,6.732C1124.203,236.577,1121.19,239.59,1117.472,239.59z M1117.472,187.59
	c-3.719,0-6.732-3.014-6.732-6.732c0-3.718,3.017-6.732,6.732-6.732s6.731,3.014,6.731,6.732
	C1124.203,184.577,1121.19,187.59,1117.472,187.59z M1117.472,135.59c-3.719,0-6.732-3.014-6.732-6.732
	c0-3.718,3.017-6.732,6.732-6.732s6.731,3.014,6.731,6.732C1124.203,132.577,1121.19,135.59,1117.472,135.59z M1117.472,83.59
	c-3.719,0-6.732-3.014-6.732-6.732c0-3.718,3.017-6.732,6.732-6.732s6.731,3.014,6.731,6.732
	C1124.203,80.577,1121.19,83.59,1117.472,83.59z M1174.043,291.59c-3.722,0-6.732-3.014-6.732-6.732
	c0-3.718,3.014-6.732,6.732-6.732c3.718,0,6.729,3.014,6.729,6.732C1180.774,288.577,1177.761,291.59,1174.043,291.59z
	 M1174.043,239.59c-3.722,0-6.732-3.014-6.732-6.732c0-3.718,3.014-6.732,6.732-6.732c3.718,0,6.729,3.014,6.729,6.732
	C1180.774,236.577,1177.761,239.59,1174.043,239.59z M1174.043,187.59c-3.722,0-6.732-3.014-6.732-6.732
	c0-3.718,3.014-6.732,6.732-6.732c3.718,0,6.729,3.014,6.729,6.732C1180.774,184.577,1177.761,187.59,1174.043,187.59z
	 M1174.043,135.59c-3.722,0-6.732-3.014-6.732-6.732c0-3.718,3.014-6.732,6.732-6.732c3.718,0,6.729,3.014,6.729,6.732
	C1180.774,132.577,1177.761,135.59,1174.043,135.59z M1174.043,83.59c-3.722,0-6.732-3.014-6.732-6.732
	c0-3.718,3.014-6.732,6.732-6.732c3.718,0,6.729,3.014,6.729,6.732C1180.774,80.577,1177.761,83.59,1174.043,83.59z
	 M1230.612,291.59c-3.719,0-6.729-3.014-6.729-6.732c0-3.718,3.014-6.732,6.729-6.732s6.732,3.014,6.732,6.732
	C1237.344,288.577,1234.332,291.59,1230.612,291.59z M1230.612,239.59c-3.719,0-6.729-3.014-6.729-6.732
	c0-3.718,3.014-6.732,6.729-6.732s6.732,3.014,6.732,6.732C1237.344,236.577,1234.332,239.59,1230.612,239.59z M1230.612,187.59
	c-3.719,0-6.729-3.014-6.729-6.732c0-3.718,3.014-6.732,6.729-6.732s6.732,3.014,6.732,6.732
	C1237.344,184.577,1234.332,187.59,1230.612,187.59z M1230.612,135.59c-3.719,0-6.729-3.014-6.729-6.732
	c0-3.718,3.014-6.732,6.729-6.732s6.732,3.014,6.732,6.732C1237.344,132.577,1234.332,135.59,1230.612,135.59z M1230.612,83.59
	c-3.719,0-6.729-3.014-6.729-6.732c0-3.718,3.014-6.732,6.729-6.732s6.732,3.014,6.732,6.732
	C1237.344,80.577,1234.332,83.59,1230.612,83.59z M1287.183,343.589c-3.719,0-6.732-3.014-6.732-6.732
	c0-3.718,3.017-6.732,6.732-6.732s6.729,3.014,6.729,6.732C1293.912,340.576,1290.902,343.589,1287.183,343.589z M1287.183,291.59
	c-3.719,0-6.732-3.014-6.732-6.732c0-3.718,3.017-6.732,6.732-6.732s6.729,3.014,6.729,6.732
	C1293.912,288.577,1290.902,291.59,1287.183,291.59z M1287.183,239.59c-3.719,0-6.732-3.014-6.732-6.732
	c0-3.718,3.017-6.732,6.732-6.732s6.729,3.014,6.729,6.732C1293.912,236.577,1290.902,239.59,1287.183,239.59z M1287.183,187.59
	c-3.719,0-6.732-3.014-6.732-6.732c0-3.718,3.017-6.732,6.732-6.732s6.729,3.014,6.729,6.732
	C1293.912,184.577,1290.902,187.59,1287.183,187.59z M1287.183,135.59c-3.719,0-6.732-3.014-6.732-6.732
	c0-3.718,3.017-6.732,6.732-6.732s6.729,3.014,6.729,6.732C1293.912,132.577,1290.902,135.59,1287.183,135.59z M1287.183,83.59
	c-3.719,0-6.732-3.014-6.732-6.732c0-3.718,3.017-6.732,6.732-6.732s6.729,3.014,6.729,6.732
	C1293.912,80.577,1290.902,83.59,1287.183,83.59z M1343.753,343.589c-3.722,0-6.732-3.014-6.732-6.732
	c0-3.718,3.014-6.732,6.732-6.732c3.718,0,6.729,3.014,6.729,6.732C1350.485,340.576,1347.472,343.589,1343.753,343.589z
	 M1343.753,291.59c-3.722,0-6.732-3.014-6.732-6.732c0-3.718,3.014-6.732,6.732-6.732c3.718,0,6.729,3.014,6.729,6.732
	C1350.485,288.577,1347.472,291.59,1343.753,291.59z M1343.753,239.59c-3.722,0-6.732-3.014-6.732-6.732
	c0-3.718,3.014-6.732,6.732-6.732c3.718,0,6.729,3.014,6.729,6.732C1350.485,236.577,1347.472,239.59,1343.753,239.59z
	 M1343.753,187.59c-3.722,0-6.732-3.014-6.732-6.732c0-3.718,3.014-6.732,6.732-6.732c3.718,0,6.729,3.014,6.729,6.732
	C1350.485,184.577,1347.472,187.59,1343.753,187.59z M1343.753,135.59c-3.722,0-6.732-3.014-6.732-6.732
	c0-3.718,3.014-6.732,6.732-6.732c3.718,0,6.729,3.014,6.729,6.732C1350.485,132.577,1347.472,135.59,1343.753,135.59z
	 M1400.323,395.589c-3.719,0-6.729-3.014-6.729-6.732c0-3.718,3.014-6.732,6.729-6.732s6.732,3.014,6.732,6.732
	C1407.056,392.576,1404.041,395.589,1400.323,395.589z M1400.323,343.589c-3.719,0-6.729-3.014-6.729-6.732
	c0-3.718,3.014-6.732,6.729-6.732s6.732,3.014,6.732,6.732C1407.056,340.576,1404.041,343.589,1400.323,343.589z M1400.323,291.59
	c-3.719,0-6.729-3.014-6.729-6.732c0-3.718,3.014-6.732,6.729-6.732s6.732,3.014,6.732,6.732
	C1407.056,288.577,1404.041,291.59,1400.323,291.59z M1400.323,239.59c-3.719,0-6.729-3.014-6.729-6.732
	c0-3.718,3.014-6.732,6.729-6.732s6.732,3.014,6.732,6.732C1407.056,236.577,1404.041,239.59,1400.323,239.59z M1400.323,187.59
	c-3.719,0-6.729-3.014-6.729-6.732c0-3.718,3.014-6.732,6.729-6.732s6.732,3.014,6.732,6.732
	C1407.056,184.577,1404.041,187.59,1400.323,187.59z M1400.323,135.59c-3.719,0-6.729-3.014-6.729-6.732
	c0-3.718,3.014-6.732,6.729-6.732s6.732,3.014,6.732,6.732C1407.056,132.577,1404.041,135.59,1400.323,135.59z M1456.894,395.589
	c-3.719,0-6.732-3.014-6.732-6.732c0-3.718,3.017-6.732,6.732-6.732s6.732,3.014,6.732,6.732
	C1463.625,392.576,1460.613,395.589,1456.894,395.589z M1456.894,343.589c-3.719,0-6.732-3.014-6.732-6.732
	c0-3.718,3.017-6.732,6.732-6.732s6.732,3.014,6.732,6.732C1463.625,340.576,1460.613,343.589,1456.894,343.589z M1456.894,291.59
	c-3.719,0-6.732-3.014-6.732-6.732c0-3.718,3.017-6.732,6.732-6.732s6.732,3.014,6.732,6.732
	C1463.625,288.577,1460.613,291.59,1456.894,291.59z M1456.894,239.59c-3.719,0-6.732-3.014-6.732-6.732
	c0-3.718,3.017-6.732,6.732-6.732s6.732,3.014,6.732,6.732C1463.625,236.577,1460.613,239.59,1456.894,239.59z M1456.894,187.59
	c-3.719,0-6.732-3.014-6.732-6.732c0-3.718,3.017-6.732,6.732-6.732s6.732,3.014,6.732,6.732
	C1463.625,184.577,1460.613,187.59,1456.894,187.59z M1513.464,395.589c-3.722,0-6.732-3.014-6.732-6.732
	c0-3.718,3.014-6.732,6.732-6.732c3.718,0,6.729,3.014,6.729,6.732C1520.196,392.576,1517.183,395.589,1513.464,395.589z
	 M1513.464,343.589c-3.722,0-6.732-3.014-6.732-6.732c0-3.718,3.014-6.732,6.732-6.732c3.718,0,6.729,3.014,6.729,6.732
	C1520.196,340.576,1517.183,343.589,1513.464,343.589z M1513.464,291.59c-3.722,0-6.732-3.014-6.732-6.732
	c0-3.718,3.014-6.732,6.732-6.732c3.718,0,6.729,3.014,6.729,6.732C1520.196,288.577,1517.183,291.59,1513.464,291.59z
	 M1513.464,239.59c-3.722,0-6.732-3.014-6.732-6.732c0-3.718,3.014-6.732,6.732-6.732c3.718,0,6.729,3.014,6.729,6.732
	C1520.196,236.577,1517.183,239.59,1513.464,239.59z M1513.464,187.59c-3.722,0-6.732-3.014-6.732-6.732
	c0-3.718,3.014-6.732,6.732-6.732c3.718,0,6.729,3.014,6.729,6.732C1520.196,184.577,1517.183,187.59,1513.464,187.59z
	 M1570.032,447.589c-3.719,0-6.729-3.014-6.729-6.729c0-3.722,3.014-6.732,6.729-6.732c3.72,0,6.732,3.014,6.732,6.732
	C1576.767,444.576,1573.753,447.589,1570.032,447.589z M1570.032,395.589c-3.719,0-6.729-3.014-6.729-6.732
	c0-3.718,3.014-6.732,6.729-6.732c3.72,0,6.732,3.014,6.732,6.732C1576.767,392.576,1573.753,395.589,1570.032,395.589z
	 M1570.032,343.589c-3.719,0-6.729-3.014-6.729-6.732c0-3.718,3.014-6.732,6.729-6.732c3.72,0,6.732,3.014,6.732,6.732
	C1576.767,340.576,1573.753,343.589,1570.032,343.589z M1570.032,291.59c-3.719,0-6.729-3.014-6.729-6.732
	c0-3.718,3.014-6.732,6.729-6.732c3.72,0,6.732,3.014,6.732,6.732C1576.767,288.577,1573.753,291.59,1570.032,291.59z
	 M1570.032,239.59c-3.719,0-6.729-3.014-6.729-6.732c0-3.718,3.014-6.732,6.729-6.732c3.72,0,6.732,3.014,6.732,6.732
	C1576.767,236.577,1573.753,239.59,1570.032,239.59z M1626.605,447.589c-3.719,0-6.732-3.014-6.732-6.729
	c0-3.722,3.017-6.732,6.732-6.732s6.732,3.014,6.732,6.732C1633.337,444.576,1630.323,447.589,1626.605,447.589z M1626.605,395.589
	c-3.719,0-6.732-3.014-6.732-6.732c0-3.718,3.017-6.732,6.732-6.732s6.732,3.014,6.732,6.732
	C1633.337,392.576,1630.323,395.589,1626.605,395.589z M1626.605,343.589c-3.719,0-6.732-3.014-6.732-6.732
	c0-3.718,3.017-6.732,6.732-6.732s6.732,3.014,6.732,6.732C1633.337,340.576,1630.323,343.589,1626.605,343.589z M1626.605,291.59
	c-3.719,0-6.732-3.014-6.732-6.732c0-3.718,3.017-6.732,6.732-6.732s6.732,3.014,6.732,6.732
	C1633.337,288.577,1630.323,291.59,1626.605,291.59z M1683.175,447.589c-3.72,0-6.732-3.014-6.732-6.729
	c0-3.722,3.015-6.732,6.732-6.732c3.717,0,6.729,3.014,6.729,6.732C1689.906,444.576,1686.894,447.589,1683.175,447.589z
	 M1683.175,395.589c-3.72,0-6.732-3.014-6.732-6.732c0-3.718,3.015-6.732,6.732-6.732c3.717,0,6.729,3.014,6.729,6.732
	C1689.906,392.576,1686.894,395.589,1683.175,395.589z M1683.175,343.589c-3.72,0-6.732-3.014-6.732-6.732
	c0-3.718,3.015-6.732,6.732-6.732c3.717,0,6.729,3.014,6.729,6.732C1689.906,340.576,1686.894,343.589,1683.175,343.589z
	 M1683.175,291.59c-3.72,0-6.732-3.014-6.732-6.732c0-3.718,3.015-6.732,6.732-6.732c3.717,0,6.729,3.014,6.729,6.732
	C1689.906,288.577,1686.894,291.59,1683.175,291.59z M1739.743,499.589c-3.719,0-6.729-3.014-6.729-6.73
	c0-3.72,3.014-6.732,6.729-6.732c3.721,0,6.732,3.014,6.732,6.732C1746.477,496.575,1743.464,499.589,1739.743,499.589z
	 M1739.743,447.589c-3.719,0-6.729-3.014-6.729-6.729c0-3.722,3.014-6.732,6.729-6.732c3.721,0,6.732,3.014,6.732,6.732
	C1746.478,444.576,1743.464,447.589,1739.743,447.589z M1739.743,395.589c-3.719,0-6.729-3.014-6.729-6.732
	c0-3.718,3.014-6.732,6.729-6.732c3.721,0,6.732,3.014,6.732,6.732C1746.478,392.576,1743.464,395.589,1739.743,395.589z
	 M1739.743,343.589c-3.719,0-6.729-3.014-6.729-6.732c0-3.718,3.014-6.732,6.729-6.732c3.721,0,6.732,3.014,6.732,6.732
	C1746.478,340.576,1743.464,343.589,1739.743,343.589z M1796.316,499.589c-3.719,0-6.729-3.014-6.729-6.73
	c0-3.72,3.014-6.732,6.729-6.732s6.732,3.014,6.732,6.732C1803.048,496.575,1800.032,499.589,1796.316,499.589z M1796.316,447.589
	c-3.719,0-6.729-3.014-6.729-6.729c0-3.722,3.014-6.732,6.729-6.732s6.732,3.014,6.732,6.732
	C1803.048,444.576,1800.032,447.589,1796.316,447.589z M1796.316,395.589c-3.719,0-6.729-3.014-6.729-6.732
	c0-3.718,3.014-6.732,6.729-6.732s6.732,3.014,6.732,6.732C1803.048,392.576,1800.032,395.589,1796.316,395.589z M1796.316,343.589
	c-3.719,0-6.729-3.014-6.729-6.732c0-3.718,3.014-6.732,6.729-6.732s6.732,3.014,6.732,6.732
	C1803.048,340.576,1800.032,343.589,1796.316,343.589z M1852.886,499.589c-3.72,0-6.732-3.014-6.732-6.73
	c0-3.72,3.015-6.732,6.732-6.732c3.717,0,6.729,3.014,6.729,6.732C1859.615,496.575,1856.605,499.589,1852.886,499.589z
	 M1852.886,447.589c-3.72,0-6.732-3.014-6.732-6.729c0-3.722,3.015-6.732,6.732-6.732c3.717,0,6.729,3.014,6.729,6.732
	C1859.616,444.576,1856.605,447.589,1852.886,447.589z M1852.886,395.589c-3.72,0-6.732-3.014-6.732-6.732
	c0-3.718,3.015-6.732,6.732-6.732c3.717,0,6.729,3.014,6.729,6.732C1859.615,392.576,1856.605,395.589,1852.886,395.589z
	 M1909.457,499.589c-3.722,0-6.732-3.014-6.732-6.73c0-3.72,3.014-6.732,6.732-6.732c3.718,0,6.729,3.014,6.729,6.732
	C1916.188,496.575,1913.175,499.589,1909.457,499.589z M1909.457,447.589c-3.722,0-6.732-3.014-6.732-6.729
	c0-3.722,3.014-6.732,6.732-6.732c3.718,0,6.729,3.014,6.729,6.732C1916.189,444.576,1913.175,447.589,1909.457,447.589z
	 M1909.457,395.589c-3.722,0-6.732-3.014-6.732-6.732c0-3.718,3.014-6.732,6.732-6.732c3.718,0,6.729,3.014,6.729,6.732
	C1916.189,392.576,1913.175,395.589,1909.457,395.589z M1966.027,499.589c-3.719,0-6.729-3.014-6.729-6.73
	c0-3.72,3.014-6.732,6.729-6.732s6.732,3.014,6.732,6.732C1972.759,496.575,1969.743,499.589,1966.027,499.589z M1966.027,447.589
	c-3.719,0-6.729-3.014-6.729-6.729c0-3.722,3.014-6.732,6.729-6.732s6.732,3.014,6.732,6.732
	C1972.759,444.576,1969.743,447.589,1966.027,447.589z M2022.597,551.589c-3.719,0-6.732-3.014-6.732-6.73
	c0-3.72,3.017-6.732,6.732-6.732s6.729,3.014,6.729,6.732C2029.326,548.575,2026.316,551.589,2022.597,551.589z M2022.597,499.589
	c-3.719,0-6.732-3.014-6.732-6.73c0-3.72,3.017-6.732,6.732-6.732s6.729,3.014,6.729,6.732
	C2029.326,496.575,2026.316,499.589,2022.597,499.589z M2022.597,447.589c-3.719,0-6.732-3.014-6.732-6.729
	c0-3.722,3.017-6.732,6.732-6.732s6.729,3.014,6.729,6.732C2029.327,444.576,2026.316,447.589,2022.597,447.589z M2079.166,551.589
	c-3.721,0-6.731-3.014-6.731-6.73c0-3.72,3.014-6.732,6.731-6.732c3.719,0,6.73,3.014,6.73,6.732
	C2085.898,548.575,2082.886,551.589,2079.166,551.589z M2079.166,499.589c-3.721,0-6.731-3.014-6.731-6.73
	c0-3.72,3.014-6.732,6.731-6.732c3.719,0,6.73,3.014,6.73,6.732C2085.898,496.575,2082.886,499.589,2079.166,499.589z
	 M2135.738,551.589c-3.719,0-6.729-3.014-6.729-6.73c0-3.72,3.014-6.732,6.729-6.732c3.718,0,6.732,3.014,6.732,6.732
	C2142.47,548.575,2139.457,551.589,2135.738,551.589z M2135.738,499.589c-3.719,0-6.729-3.014-6.729-6.73
	c0-3.72,3.014-6.732,6.729-6.732c3.718,0,6.732,3.014,6.732,6.732C2142.47,496.575,2139.457,499.589,2135.738,499.589z
	 M2192.308,551.589c-3.719,0-6.731-3.014-6.731-6.73c0-3.72,3.016-6.732,6.731-6.732s6.731,3.014,6.731,6.732
	C2199.039,548.575,2196.027,551.589,2192.308,551.589z M2248.877,603.589c-3.721,0-6.731-3.014-6.731-6.73
	c0-3.718,3.014-6.732,6.731-6.732c3.719,0,6.73,3.016,6.73,6.732C2255.611,600.576,2252.597,603.589,2248.877,603.589z
	 M2248.877,551.589c-3.721,0-6.731-3.014-6.731-6.73c0-3.72,3.014-6.732,6.731-6.732c3.719,0,6.73,3.014,6.73,6.732
	C2255.609,548.575,2252.597,551.589,2248.877,551.589z M2305.448,603.589c-3.719,0-6.729-3.014-6.729-6.73
	c0-3.718,3.014-6.732,6.729-6.732c3.717,0,6.732,3.016,6.732,6.732C2312.181,600.576,2309.166,603.589,2305.448,603.589z
	 M2362.019,603.589c-3.719,0-6.731-3.014-6.731-6.73c0-3.718,3.016-6.732,6.731-6.732s6.731,3.016,6.731,6.732
	C2368.75,600.576,2365.738,603.589,2362.019,603.589z"/>
</svg>
