<?xml version="1.0" encoding="utf-8"?>
<!-- Generator: Adobe Illustrator 16.0.0, SVG Export Plug-In . SVG Version: 6.00 Build 0)  -->
<!DOCTYPE svg PUBLIC "-//W3C//DTD SVG 1.1//EN" "http://www.w3.org/Graphics/SVG/1.1/DTD/svg11.dtd">
<svg version="1.1" id="Layer_1" xmlns="http://www.w3.org/2000/svg" xmlns:xlink="http://www.w3.org/1999/xlink" x="0px" y="0px"
	 width="2488.4px" height="893.579px" viewBox="0 0 2488.4 893.579" enable-background="new 0 0 2488.4 893.579"
	 xml:space="preserve">
<path fill="none" stroke="#000001" stroke-linejoin="round" stroke-miterlimit="10" d="M1621.275,496.963
	c-23.49,3.926-45.713-11.936-49.64-35.426c-3.924-23.495,11.938-45.713,35.431-49.639c23.485-3.928,45.715,11.938,49.637,35.428
	C1660.629,470.819,1644.766,493.042,1621.275,496.963z M2068.84,570.407c-23.49,3.924-45.714-11.938-49.643-35.428
	c-3.92-23.49,11.938-45.713,35.434-49.639c23.487-3.924,45.713,11.939,49.637,35.428
	C2108.189,544.26,2092.328,566.483,2068.84,570.407z M95.482,608.856c-3.718,0-6.731-3.014-6.731-6.732
	c0-3.717,3.016-6.732,6.731-6.732c3.719,0,6.73,3.021,6.73,6.732C102.215,605.842,99.201,608.856,95.482,608.856z M152.053,608.856
	c-3.72,0-6.731-3.014-6.731-6.732c0-3.717,3.014-6.732,6.731-6.732c3.719,0,6.73,3.021,6.73,6.732
	C158.785,605.842,155.771,608.856,152.053,608.856z M208.623,556.856c-3.718,0-6.729-3.014-6.729-6.732
	c0-3.717,3.014-6.732,6.729-6.732c3.719,0,6.732,3.021,6.732,6.732C215.355,553.842,212.342,556.856,208.623,556.856z
	 M265.193,556.856c-3.718,0-6.731-3.014-6.731-6.732c0-3.717,3.016-6.732,6.731-6.732c3.719,0,6.73,3.021,6.73,6.732
	C271.926,553.842,268.912,556.856,265.193,556.856z M321.764,556.856c-3.718,0-6.729-3.014-6.729-6.732
	c0-3.717,3.016-6.732,6.729-6.732c3.721,0,6.731,3.021,6.731,6.732C328.497,553.842,325.483,556.856,321.764,556.856z
	 M321.764,504.856c-3.718,0-6.729-3.014-6.729-6.732c0-3.717,3.016-6.732,6.729-6.732c3.721,0,6.731,3.021,6.731,6.732
	C328.497,501.842,325.483,504.856,321.764,504.856z M378.336,556.856c-3.721,0-6.732-3.014-6.732-6.732
	c0-3.717,3.016-6.732,6.732-6.732c3.716,0,6.73,3.021,6.73,6.732C385.067,553.842,382.053,556.856,378.336,556.856z
	 M378.336,504.856c-3.721,0-6.732-3.014-6.732-6.732c0-3.717,3.016-6.732,6.732-6.732c3.716,0,6.73,3.021,6.73,6.732
	C385.067,501.842,382.053,504.856,378.336,504.856z M434.905,556.856c-3.722,0-6.73-3.014-6.73-6.732
	c0-3.717,3.017-6.732,6.73-6.732s6.729,3.021,6.729,6.732C441.637,553.842,438.624,556.856,434.905,556.856z M434.905,504.856
	c-3.722,0-6.73-3.014-6.73-6.732c0-3.717,3.017-6.732,6.73-6.732s6.729,3.021,6.729,6.732
	C441.637,501.842,438.624,504.856,434.905,504.856z M434.905,452.856c-3.722,0-6.73-3.014-6.73-6.732
	c0-3.717,3.017-6.732,6.73-6.732s6.729,3.021,6.729,6.732C441.637,449.842,438.624,452.856,434.905,452.856z M491.475,504.856
	c-3.719,0-6.729-3.014-6.729-6.732c0-3.717,3.016-6.732,6.729-6.732c3.721,0,6.73,3.021,6.73,6.732
	C498.208,501.842,495.194,504.856,491.475,504.856z M491.475,452.856c-3.719,0-6.729-3.014-6.729-6.732
	c0-3.717,3.016-6.732,6.729-6.732c3.721,0,6.73,3.021,6.73,6.732C498.208,449.842,495.194,452.856,491.475,452.856z
	 M548.047,504.856c-3.721,0-6.732-3.014-6.732-6.732c0-3.717,3.017-6.732,6.732-6.732c3.715,0,6.73,3.021,6.73,6.732
	C554.778,501.842,551.764,504.856,548.047,504.856z M548.047,439.392c3.718,0,6.73,3.016,6.73,6.732c0,3.718-3.014,6.732-6.73,6.732
	c-3.72,0-6.732-3.014-6.732-6.732C541.313,442.406,544.327,439.392,548.047,439.392z M548.047,387.393
	c3.718,0,6.73,3.014,6.73,6.732s-3.014,6.732-6.73,6.732c-3.72,0-6.732-3.014-6.732-6.732S544.327,387.393,548.047,387.393z
	 M604.616,504.856c-3.719,0-6.73-3.014-6.73-6.732c0-3.717,3.017-6.732,6.73-6.732s6.729,3.021,6.729,6.732
	C611.348,501.842,608.336,504.856,604.616,504.856z M604.616,439.392c3.72,0,6.732,3.016,6.732,6.732
	c0,3.718-3.014,6.732-6.732,6.732c-3.718,0-6.73-3.014-6.73-6.732C597.885,442.406,600.898,439.392,604.616,439.392z
	 M604.616,387.393c3.72,0,6.732,3.014,6.732,6.732s-3.014,6.732-6.732,6.732c-3.718,0-6.73-3.014-6.73-6.732
	S600.898,387.393,604.616,387.393z M661.186,504.856c-3.719,0-6.729-3.014-6.729-6.732c0-3.717,3.016-6.732,6.729-6.732
	c3.721,0,6.732,3.021,6.732,6.732C667.92,501.842,664.905,504.856,661.186,504.856z M661.186,452.856
	c-3.719,0-6.729-3.014-6.729-6.732c0-3.717,3.016-6.732,6.729-6.732c3.721,0,6.732,3.021,6.732,6.732
	C667.92,449.842,664.905,452.856,661.186,452.856z M661.186,400.857c-3.719,0-6.729-3.017-6.729-6.732s3.016-6.732,6.729-6.732
	c3.721,0,6.732,3.017,6.732,6.732C667.92,397.844,664.905,400.857,661.186,400.857z M661.186,348.857
	c-3.719,0-6.729-3.015-6.729-6.732s3.016-6.732,6.729-6.732c3.721,0,6.732,3.017,6.732,6.732
	C667.92,345.844,664.905,348.857,661.186,348.857z M717.758,439.392c3.718,0,6.73,3.016,6.73,6.732c0,3.718-3.014,6.732-6.73,6.732
	c-3.72,0-6.732-3.014-6.732-6.732C711.024,442.406,714.038,439.392,717.758,439.392z M717.758,387.393
	c3.718,0,6.73,3.014,6.73,6.732s-3.014,6.732-6.73,6.732c-3.72,0-6.732-3.014-6.732-6.732S714.038,387.393,717.758,387.393z
	 M717.758,335.393c3.718,0,6.73,3.014,6.73,6.732s-3.014,6.732-6.73,6.732c-3.72,0-6.732-3.014-6.732-6.732
	S714.038,335.393,717.758,335.393z M774.327,439.392c3.72,0,6.732,3.016,6.732,6.732c0,3.718-3.014,6.732-6.732,6.732
	c-3.718,0-6.73-3.014-6.73-6.732C767.595,442.406,770.609,439.392,774.327,439.392z M774.327,387.393
	c3.72,0,6.732,3.014,6.732,6.732s-3.014,6.732-6.732,6.732c-3.718,0-6.73-3.014-6.73-6.732S770.609,387.393,774.327,387.393z
	 M774.327,335.393c3.72,0,6.732,3.014,6.732,6.732s-3.014,6.732-6.732,6.732c-3.718,0-6.73-3.014-6.73-6.732
	S770.609,335.393,774.327,335.393z M774.327,283.394c3.72,0,6.732,3.014,6.732,6.732s-3.014,6.732-6.732,6.732
	c-3.718,0-6.73-3.014-6.73-6.732S770.609,283.394,774.327,283.394z M830.896,452.856c-3.721,0-6.731-3.014-6.731-6.732
	c0-3.717,3.016-6.732,6.731-6.732c3.719,0,6.729,3.021,6.729,6.732C837.631,449.842,834.616,452.856,830.896,452.856z
	 M830.896,400.857c-3.721,0-6.731-3.017-6.731-6.732s3.016-6.732,6.731-6.732c3.719,0,6.729,3.017,6.729,6.732
	C837.631,397.844,834.616,400.857,830.896,400.857z M830.896,348.857c-3.721,0-6.731-3.015-6.731-6.732s3.016-6.732,6.731-6.732
	c3.719,0,6.729,3.017,6.729,6.732C837.631,345.844,834.616,348.857,830.896,348.857z M830.896,296.858
	c-3.721,0-6.731-3.014-6.731-6.732s3.016-6.732,6.731-6.732c3.719,0,6.729,3.014,6.729,6.732S834.616,296.858,830.896,296.858z
	 M887.469,439.392c3.718,0,6.73,3.016,6.73,6.732c0,3.718-3.014,6.732-6.73,6.732c-3.72,0-6.732-3.014-6.732-6.732
	C880.735,442.406,883.749,439.392,887.469,439.392z M887.469,387.393c3.718,0,6.73,3.014,6.73,6.732s-3.014,6.732-6.73,6.732
	c-3.72,0-6.732-3.014-6.732-6.732S883.749,387.393,887.469,387.393z M887.469,335.393c3.718,0,6.73,3.014,6.73,6.732
	s-3.014,6.732-6.73,6.732c-3.72,0-6.732-3.014-6.732-6.732S883.749,335.393,887.469,335.393z M887.469,283.394
	c3.718,0,6.73,3.014,6.73,6.732s-3.014,6.732-6.73,6.732c-3.72,0-6.732-3.014-6.732-6.732S883.749,283.394,887.469,283.394z
	 M887.469,231.394c3.718,0,6.73,3.014,6.73,6.732s-3.014,6.732-6.73,6.732c-3.72,0-6.732-3.014-6.732-6.732
	S883.749,231.394,887.469,231.394z M944.038,387.393c3.72,0,6.732,3.014,6.732,6.732s-3.014,6.732-6.732,6.732
	c-3.718,0-6.73-3.014-6.73-6.732S940.32,387.393,944.038,387.393z M944.038,335.393c3.72,0,6.732,3.014,6.732,6.732
	s-3.014,6.732-6.732,6.732c-3.718,0-6.73-3.014-6.73-6.732S940.32,335.393,944.038,335.393z M944.038,283.394
	c3.72,0,6.732,3.014,6.732,6.732s-3.014,6.732-6.732,6.732c-3.718,0-6.73-3.014-6.73-6.732S940.32,283.394,944.038,283.394z
	 M944.038,231.394c3.72,0,6.732,3.014,6.732,6.732s-3.014,6.732-6.732,6.732c-3.718,0-6.73-3.014-6.73-6.732
	S940.32,231.394,944.038,231.394z M1000.608,400.857c-3.722,0-6.732-3.017-6.732-6.732s3.016-6.732,6.732-6.732
	s6.729,3.017,6.729,6.732C1007.343,397.844,1004.327,400.857,1000.608,400.857z M1000.608,348.857c-3.722,0-6.732-3.015-6.732-6.732
	s3.016-6.732,6.732-6.732s6.729,3.017,6.729,6.732C1007.343,345.844,1004.327,348.857,1000.608,348.857z M1000.608,296.858
	c-3.722,0-6.732-3.014-6.732-6.732s3.016-6.732,6.732-6.732s6.729,3.014,6.729,6.732S1004.327,296.858,1000.608,296.858z
	 M1000.608,244.858c-3.722,0-6.732-3.014-6.732-6.732s3.016-6.732,6.732-6.732s6.729,3.014,6.729,6.732
	S1004.327,244.858,1000.608,244.858z M1000.608,192.858c-3.722,0-6.732-3.014-6.732-6.732s3.016-6.732,6.732-6.732
	s6.729,3.014,6.729,6.732S1004.327,192.858,1000.608,192.858z M1057.178,387.393c3.718,0,6.73,3.014,6.73,6.732
	s-3.014,6.732-6.73,6.732c-3.719,0-6.732-3.014-6.732-6.732S1053.46,387.393,1057.178,387.393z M1057.178,335.393
	c3.718,0,6.73,3.014,6.73,6.732s-3.014,6.732-6.73,6.732c-3.719,0-6.732-3.014-6.732-6.732S1053.46,335.393,1057.178,335.393z
	 M1057.178,283.394c3.718,0,6.73,3.014,6.73,6.732s-3.014,6.732-6.73,6.732c-3.719,0-6.732-3.014-6.732-6.732
	S1053.46,283.394,1057.178,283.394z M1057.178,231.394c3.718,0,6.73,3.014,6.73,6.732s-3.014,6.732-6.73,6.732
	c-3.719,0-6.732-3.014-6.732-6.732S1053.46,231.394,1057.178,231.394z M1057.178,179.394c3.718,0,6.73,3.014,6.73,6.732
	s-3.014,6.732-6.73,6.732c-3.719,0-6.732-3.014-6.732-6.732S1053.46,179.394,1057.178,179.394z M1113.749,335.393
	c3.72,0,6.732,3.014,6.732,6.732s-3.014,6.732-6.732,6.732c-3.718,0-6.73-3.014-6.73-6.732S1110.031,335.393,1113.749,335.393z
	 M1113.749,283.394c3.72,0,6.732,3.014,6.732,6.732s-3.014,6.732-6.732,6.732c-3.718,0-6.73-3.014-6.73-6.732
	S1110.031,283.394,1113.749,283.394z M1113.749,231.394c3.72,0,6.732,3.014,6.732,6.732s-3.014,6.732-6.732,6.732
	c-3.718,0-6.73-3.014-6.73-6.732S1110.031,231.394,1113.749,231.394z M1113.749,179.394c3.72,0,6.732,3.014,6.732,6.732
	s-3.014,6.732-6.732,6.732c-3.718,0-6.73-3.014-6.73-6.732S1110.031,179.394,1113.749,179.394z M1113.749,127.394
	c3.72,0,6.732,3.014,6.732,6.732s-3.014,6.732-6.732,6.732c-3.718,0-6.73-3.014-6.73-6.732S1110.031,127.394,1113.749,127.394z
	 M1170.319,348.857c-3.722,0-6.732-3.015-6.732-6.732s3.016-6.732,6.732-6.732s6.729,3.017,6.729,6.732
	C1177.052,345.844,1174.038,348.857,1170.319,348.857z M1170.319,296.858c-3.722,0-6.732-3.014-6.732-6.732s3.016-6.732,6.732-6.732
	s6.729,3.014,6.729,6.732S1174.038,296.858,1170.319,296.858z M1170.319,244.858c-3.722,0-6.732-3.014-6.732-6.732
	s3.016-6.732,6.732-6.732s6.729,3.014,6.729,6.732S1174.038,244.858,1170.319,244.858z M1170.319,192.858
	c-3.722,0-6.732-3.014-6.732-6.732s3.016-6.732,6.732-6.732s6.729,3.014,6.729,6.732S1174.038,192.858,1170.319,192.858z
	 M1170.319,140.858c-3.722,0-6.732-3.014-6.732-6.732s3.016-6.732,6.732-6.732s6.729,3.014,6.729,6.732
	C1177.051,137.844,1174.038,140.858,1170.319,140.858z M1226.889,296.858c-3.719,0-6.729-3.014-6.729-6.732s3.016-6.732,6.729-6.732
	c3.721,0,6.732,3.014,6.732,6.732S1230.608,296.858,1226.889,296.858z M1226.889,244.858c-3.719,0-6.729-3.014-6.729-6.732
	s3.016-6.732,6.729-6.732c3.721,0,6.732,3.014,6.732,6.732S1230.608,244.858,1226.889,244.858z M1226.889,192.858
	c-3.719,0-6.729-3.014-6.729-6.732s3.016-6.732,6.729-6.732c3.721,0,6.732,3.014,6.732,6.732S1230.608,192.858,1226.889,192.858z
	 M1226.889,140.858c-3.719,0-6.729-3.014-6.729-6.732s3.016-6.732,6.729-6.732c3.721,0,6.732,3.014,6.732,6.732
	C1233.621,137.844,1230.608,140.858,1226.889,140.858z M1226.889,88.858c-3.719,0-6.729-3.014-6.729-6.732s3.016-6.732,6.729-6.732
	c3.721,0,6.732,3.014,6.732,6.732S1230.608,88.858,1226.889,88.858z M1283.46,283.394c3.719,0,6.731,3.014,6.731,6.732
	s-3.014,6.732-6.731,6.732c-3.719,0-6.731-3.014-6.731-6.732S1279.741,283.394,1283.46,283.394z M1283.46,231.394
	c3.719,0,6.731,3.014,6.731,6.732s-3.014,6.732-6.731,6.732c-3.719,0-6.731-3.014-6.731-6.732S1279.741,231.394,1283.46,231.394z
	 M1283.46,179.394c3.719,0,6.731,3.014,6.731,6.732s-3.014,6.732-6.731,6.732c-3.719,0-6.731-3.014-6.731-6.732
	S1279.741,179.394,1283.46,179.394z M1283.46,127.394c3.719,0,6.731,3.014,6.731,6.732s-3.014,6.732-6.731,6.732
	c-3.719,0-6.731-3.014-6.731-6.732S1279.741,127.394,1283.46,127.394z M1283.46,75.394c3.719,0,6.731,3.014,6.731,6.732
	s-3.014,6.732-6.731,6.732c-3.719,0-6.731-3.014-6.731-6.732S1279.741,75.394,1283.46,75.394z M1340.029,283.394
	c3.718,0,6.732,3.014,6.732,6.732s-3.015,6.732-6.732,6.732c-3.717,0-6.73-3.014-6.73-6.732S1336.311,283.394,1340.029,283.394z
	 M1340.029,231.394c3.718,0,6.732,3.014,6.732,6.732s-3.015,6.732-6.732,6.732c-3.717,0-6.73-3.014-6.73-6.732
	S1336.311,231.394,1340.029,231.394z M1340.029,179.394c3.718,0,6.732,3.014,6.732,6.732s-3.015,6.732-6.732,6.732
	c-3.717,0-6.73-3.014-6.73-6.732S1336.311,179.394,1340.029,179.394z M1340.029,127.394c3.718,0,6.732,3.014,6.732,6.732
	s-3.015,6.732-6.732,6.732c-3.717,0-6.73-3.014-6.73-6.732S1336.311,127.394,1340.029,127.394z M1340.029,75.394
	c3.718,0,6.732,3.014,6.732,6.732s-3.015,6.732-6.732,6.732c-3.717,0-6.73-3.014-6.73-6.732S1336.311,75.394,1340.029,75.394z
	 M1396.6,244.858c-3.719,0-6.729-3.014-6.729-6.732s3.016-6.732,6.729-6.732c3.721,0,6.732,3.014,6.732,6.732
	S1400.318,244.858,1396.6,244.858z M1396.6,192.858c-3.719,0-6.729-3.014-6.729-6.732s3.016-6.732,6.729-6.732
	c3.721,0,6.732,3.014,6.732,6.732S1400.318,192.858,1396.6,192.858z M1396.6,140.858c-3.719,0-6.729-3.014-6.729-6.732
	s3.016-6.732,6.729-6.732c3.721,0,6.732,3.014,6.732,6.732S1400.318,140.858,1396.6,140.858z M1396.6,88.858
	c-3.719,0-6.729-3.014-6.729-6.732s3.016-6.732,6.729-6.732c3.721,0,6.732,3.014,6.732,6.732S1400.318,88.858,1396.6,88.858z
	 M1396.6,36.858c-3.719,0-6.729-3.014-6.729-6.732s3.016-6.732,6.729-6.732c3.721,0,6.732,3.014,6.732,6.732
	S1400.318,36.858,1396.6,36.858z M1453.172,231.394c3.718,0,6.73,3.014,6.73,6.732s-3.014,6.732-6.73,6.732
	c-3.72,0-6.732-3.014-6.732-6.732S1449.452,231.394,1453.172,231.394z M1453.172,179.394c3.718,0,6.73,3.014,6.73,6.732
	s-3.014,6.732-6.73,6.732c-3.72,0-6.732-3.014-6.732-6.732S1449.452,179.394,1453.172,179.394z M1453.172,127.394
	c3.718,0,6.73,3.014,6.73,6.732s-3.014,6.732-6.73,6.732c-3.72,0-6.732-3.014-6.732-6.732S1449.452,127.394,1453.172,127.394z
	 M1453.172,75.394c3.718,0,6.73,3.014,6.73,6.732s-3.014,6.732-6.73,6.732c-3.72,0-6.732-3.014-6.732-6.732
	S1449.452,75.394,1453.172,75.394z M1453.172,23.394c3.718,0,6.73,3.014,6.73,6.732s-3.014,6.732-6.73,6.732
	c-3.72,0-6.732-3.014-6.732-6.732S1449.452,23.394,1453.172,23.394z M1509.74,231.394c3.718,0,6.732,3.014,6.732,6.732
	s-3.015,6.732-6.732,6.732c-3.717,0-6.73-3.014-6.73-6.732S1506.022,231.394,1509.74,231.394z M1509.74,179.394
	c3.718,0,6.732,3.014,6.732,6.732s-3.015,6.732-6.732,6.732c-3.717,0-6.73-3.014-6.73-6.732S1506.022,179.394,1509.74,179.394z
	 M1509.74,127.394c3.718,0,6.732,3.014,6.732,6.732s-3.015,6.732-6.732,6.732c-3.717,0-6.73-3.014-6.73-6.732
	S1506.022,127.394,1509.74,127.394z M1509.74,75.394c3.718,0,6.732,3.014,6.732,6.732s-3.015,6.732-6.732,6.732
	c-3.717,0-6.73-3.014-6.73-6.732S1506.022,75.394,1509.74,75.394z M1509.74,23.394c3.718,0,6.732,3.014,6.732,6.732
	s-3.015,6.732-6.732,6.732c-3.717,0-6.73-3.014-6.73-6.732S1506.022,23.394,1509.74,23.394z M1566.311,192.858
	c-3.719,0-6.729-3.014-6.729-6.732s3.014-6.732,6.729-6.732c3.721,0,6.732,3.014,6.732,6.732S1570.029,192.858,1566.311,192.858z
	 M1566.311,140.858c-3.719,0-6.729-3.014-6.729-6.732s3.014-6.732,6.729-6.732c3.721,0,6.732,3.014,6.732,6.732
	S1570.029,140.858,1566.311,140.858z M1566.311,88.858c-3.719,0-6.729-3.014-6.729-6.732s3.014-6.732,6.729-6.732
	c3.721,0,6.732,3.014,6.732,6.732S1570.029,88.858,1566.311,88.858z M1566.311,36.858c-3.719,0-6.729-3.014-6.729-6.732
	s3.014-6.732,6.729-6.732c3.721,0,6.732,3.014,6.732,6.732S1570.029,36.858,1566.311,36.858z M1622.883,179.394
	c3.718,0,6.73,3.014,6.73,6.732s-3.014,6.732-6.73,6.732c-3.72,0-6.732-3.014-6.732-6.732S1619.163,179.394,1622.883,179.394z
	 M1622.883,127.394c3.718,0,6.73,3.014,6.73,6.732s-3.014,6.732-6.73,6.732c-3.72,0-6.732-3.014-6.732-6.732
	S1619.163,127.394,1622.883,127.394z M1622.883,75.394c3.718,0,6.73,3.014,6.73,6.732s-3.014,6.732-6.73,6.732
	c-3.72,0-6.732-3.014-6.732-6.732S1619.163,75.394,1622.883,75.394z M1622.883,23.394c3.718,0,6.73,3.014,6.73,6.732
	s-3.014,6.732-6.73,6.732c-3.72,0-6.732-3.014-6.732-6.732S1619.163,23.394,1622.883,23.394z M1679.451,179.394
	c3.72,0,6.732,3.014,6.732,6.732s-3.014,6.732-6.732,6.732c-3.718,0-6.73-3.014-6.73-6.732S1675.733,179.394,1679.451,179.394z
	 M1679.451,127.394c3.72,0,6.732,3.014,6.732,6.732s-3.014,6.732-6.732,6.732c-3.718,0-6.73-3.014-6.73-6.732
	S1675.733,127.394,1679.451,127.394z M1679.451,75.394c3.72,0,6.732,3.014,6.732,6.732s-3.014,6.732-6.732,6.732
	c-3.718,0-6.73-3.014-6.73-6.732S1675.733,75.394,1679.451,75.394z M1679.451,23.394c3.72,0,6.732,3.014,6.732,6.732
	s-3.014,6.732-6.732,6.732c-3.718,0-6.73-3.014-6.73-6.732S1675.733,23.394,1679.451,23.394z M1736.021,140.858
	c-3.722,0-6.732-3.014-6.732-6.732s3.016-6.732,6.732-6.732s6.729,3.014,6.729,6.732S1739.74,140.858,1736.021,140.858z
	 M1736.021,88.858c-3.722,0-6.732-3.014-6.732-6.732s3.016-6.732,6.732-6.732s6.729,3.014,6.729,6.732
	S1739.74,88.858,1736.021,88.858z M1736.021,36.858c-3.722,0-6.732-3.014-6.732-6.732s3.016-6.732,6.732-6.732
	s6.729,3.014,6.729,6.732S1739.74,36.858,1736.021,36.858z M1792.594,127.394c3.718,0,6.73,3.014,6.73,6.732
	s-3.014,6.732-6.73,6.732c-3.72,0-6.732-3.014-6.732-6.732S1788.874,127.394,1792.594,127.394z M1792.594,75.394
	c3.718,0,6.73,3.014,6.73,6.732s-3.014,6.732-6.73,6.732c-3.72,0-6.732-3.014-6.732-6.732S1788.874,75.394,1792.594,75.394z
	 M1792.594,23.394c3.718,0,6.73,3.014,6.73,6.732s-3.014,6.732-6.73,6.732c-3.72,0-6.732-3.014-6.732-6.732
	S1788.874,23.394,1792.594,23.394z M1849.162,127.394c3.72,0,6.732,3.014,6.732,6.732s-3.014,6.732-6.732,6.732
	c-3.718,0-6.73-3.014-6.73-6.732S1845.444,127.394,1849.162,127.394z M1849.162,75.394c3.72,0,6.732,3.014,6.732,6.732
	s-3.014,6.732-6.732,6.732c-3.718,0-6.73-3.014-6.73-6.732S1845.444,75.394,1849.162,75.394z M1905.732,88.858
	c-3.722,0-6.73-3.014-6.73-6.732s3.014-6.732,6.73-6.732s6.729,3.014,6.729,6.732S1909.451,88.858,1905.732,88.858z
	 M1836.693,189.047c-4.952-5.386-22.333-17.749-10.901-25.474c28.118-9.053,46.56-14.92,52.168-16.571
	c29.709-8.741,54.752-16.09,66.316-27.32c7.593-5.856,17.521-6.171,26.462-3.694l-0.002,0.007c2.688,0.755,5.524,1.16,8.454,1.16
	c17.221,0,31.182-13.96,31.182-31.181c0-17.221-13.961-31.181-31.182-31.181c-11.396,0-21.367,6.115-26.806,15.243l0.002,0.002
	c-6.88,6.041-14.424,5.079-22.017,1.098l-0.001-0.001c-24.385-23.525-64.938-49.031-89.082-56.45
	c-33.799-10.386-312.727-31.583-540.434,10.12c-90.502,16.575-300.065,122.989-300.065,122.989S457.852,413.365,382.247,449.309
	C306.643,485.254,27.132,591.694,27.132,591.694c-16.777,4.262-42.521,42.08-15.104,49.158c27.414,7.078,80.345,1.152,136.815-9.738
	c19.331-3.727,86.177-17.441,169.128-34.549c1.081-0.74,2.389-1.174,3.794-1.174c0.438,0,0.868,0.045,1.283,0.125
	c158.919-32.781,373.758-77.354,428.808-88.445c59.404-11.969,83.734-18.799,106.783-26.637c6.425-1.104,11.606-0.373,15.166,5.539
	c2.132,3.543,4.34,7.041,6.581,10.518c4.493,6.971,9.122,13.854,13.544,20.869c0.83,1.316,1.662,2.633,2.491,3.949h-0.003
	c1.407,2.113,3.688,4.09,7.061,5.773c17.49,8.736,31.907,16.529,49.401,34.01c17.492,17.482,126.239,145.047,133.567,154.025
	c7.325,8.977,19.614,12.754,37.104,12.746c6.013-0.004,76.525-11.125,169.938-26.236c-45.908-15.332-82.047-54.883-90.574-105.949
	c-12.293-73.604,37.403-143.234,111.011-155.531c73.602-12.298,143.229,37.406,155.522,111.007
	c8.601,51.461-13.113,100.979-52.115,130.312c157.476-25.729,327.941-53.842,371.855-60.428
	c85.303-12.791,125.012,15.553,154.793,36.812c29.783,21.256,234.021,196.988,250.562,208.805
	c16.547,11.809,18.678,24.568,77.281,26.438c58.604,1.871,196.366-2.197,206.295-3.854c9.93-1.658,16.309-7.096,1.648-25.051
	c-14.653-17.953-249.174-287.732-322.453-360.018c-73.282-72.288-309.676-300.941-317.237-311.337
	c-1.049-1.441-2.18-2.701-3.379-3.792L1836.693,189.047z"/>
</svg>
