<?xml version="1.0" encoding="utf-8"?>
<!-- Generator: Adobe Illustrator 21.0.2, SVG Export Plug-In . SVG Version: 6.00 Build 0)  -->
<svg version="1.1" id="Layer_1" xmlns="http://www.w3.org/2000/svg" xmlns:xlink="http://www.w3.org/1999/xlink" x="0px" y="0px"
	 width="1173.611px" height="674.433px" viewBox="0 0 1173.611 674.433" enable-background="new 0 0 1173.611 674.433"
	 xml:space="preserve">
<path fill="none" stroke="#000000" stroke-miterlimit="10" d="M854.969,481.242c0.3,0.294,4.49,10.69,5.203,13.599
	c1.098,4.404,1.277,9.257,0.778,14.467c-1.34,12.484-5.662,23.815-12.479,34.11c-5.651,8.203-16.667,17.498-32.999,27.972
	c-4.109,2.649-14.836,8.239-32.012,16.662c-35.86,17.595-55.238,27.197-58.471,28.649c-63.24,28.475-97.92,42.356-163.921,52.562
	c-34.239,5.18-67.688,6.105-100.283,2.499c-68.528-7.49-135.618-25.372-201.011-53.505c-35.135-15.014-52.827-22.777-53.264-22.806
	c-28.814-13.587-46.353-21.68-52.462-24.317c-25.682-11.511-45.448-20.503-59.149-27.314c-10.711-5.065-61.087-33.475-69.552-38.966
	c-17.699-11.462-25.851-24.8-24.749-39.707c2.129-27.617,28.5-45.769,69.611-72.996c46.342-30.867,96.158-65.126,149.858-102.976
	c26.903-19.136,59.869-39.494,98.72-61.263c8.812-5.008,14.105-7.969,19.982-7.163c12.976,13.596,20.418,19.954,22.362,18.936
	l76.707-40.594l-0.002-0.001c-0.947-3.482-1.901-6.003-2.706-7.6l-3.664-7.31l0,0c-2.504-5.036-3.18-7.787-1.913-8.447l6.584-3.097
	l-0.002-0.001c2.848-1.395,5.107-2.486,6.549-3.254l6.406-3.287h-0.001c3.195-1.609,7.921-2.187,14.108-1.752l7.185,0.599l0,0
	c0.086-0.055,2.446-0.011,7.214,0.162l7.094,0.354l7.076,0.129l7.254,0.615l-0.002-0.001c0.788,0.114,3.13,0.227,7.096,0.356
	l7.198,0.231l7.198,0.231l7.181,0.302l7.197,0.232l7.13,0.51l0,0c7.341,0.562,12.128,0.664,14.329,0.744l7.129,0.216l7.127,0.214
	h-0.001c2.499,0.077,4.77,0.173,7.252,0.319c2.279,2.245,6.362,8.1,12.619,17.581c21.962,34.307,41.974,61.567,59.864,81.88
	c22.81,26.073,37.679,40.414,76.591,77.2c24.718,23.345,45.35,43.645,62.037,61.231c26.833,28.14,44.63,47.914,53.387,59.322
	c5.443,6.993,8.473,10.748,9.019,11.247L854.969,481.242L854.969,481.242z"/>
<path fill="none" stroke="#000000" stroke-miterlimit="10" d="M211.924,514.023c0.547,0.501,11.106,7.45,31.357,20.631
	c25.267,16.37,83.575,47.851,92.999,48.981c3.447,0.45,5.785,0.266,7.135-0.745c2.026-1.367,3.996-4.97,3.99-6.821
	c0.027-2.289-3.211-8.903-8.13-11.554l-6.944-3.798l0,0c-30.822-16.656-56.646-35.971-58.808-38.704
	c-0.177-0.19-1.165-2.571-3.084-6.95c-3.246-7.508-4.732-12.154-4.492-14.096c1.062-9.441,39.049-45.625,48.663-47.779
	c1.968-0.494,4.293-0.312,7.268,0.247c2.539,0.529,9.04,4.002,19.207,10.415c14.704,9.123,25.031,15.5,31.444,19.023
	c5.978,3.495,12.237,7.055,18.954,11.17c33.469,20.466,58.22,29.978,74.06,28.416c7.116-0.674,11.826-2.736,14.077-5.976
	c-3.542-8.762-20.254-25.316-50.15-49.597c-30.903-25.038-46.697-37.971-47.44-38.593c-11.709-11.443-13.015-23.372-11.379-26.832
	c0.171-0.404,1.881-1.995,5.129-5.07c15.518-14.22,27.855-21.278,37.163-21.21c4.07,0.006,10.665,2.462,20.084,7.663
	c18.507,10.246,37.133,21.56,56.205,34.089c17.758,11.847,32.316,20.339,43.975,25.778c34.082,16.023,55.005,19.222,62.666,9.723
	c0.744-8.114-4.812-18.981-16.339-32.748c-17.208-20.375-36.931-39.201-59.169-56.48c-19.735-15.351-29.677-23.339-30.225-23.84
	c-3.559-4.324-4.935-7.241-1.922-13.704c5.337-11.238,49.421-32.282,50.97-32.579c2.681-0.697,5.037-0.95,7.134-0.746
	c8.412,1.037,26.625,13.141,54.73,36.254c13.754,11.559,21.367,17.516,22.637,18.705c13.731,11.036,23.631,18.275,29.625,21.699
	l6.31,3.646l6.039,4.176h-0.001c1.267,0.894,3.575,1.145,6.698,0.779l4.618-5.414h-0.001c-0.495-5.078-1.701-9.656-3.739-13.842
	c-1.358-2.692-4.266-6.64-8.554-11.95c-16.632-20.313-34.827-38.406-54.217-53.97c-7.102-5.612-46.729-34.721-61.797-37.343
	c-8.522-1.509-22.058,2.822-40.594,12.919c-55.395,30.342-111.543,68.202-168.442,113.581
	c-43.297,34.553-78.124,64.606-104.377,90.039c-2.574,2.422-4.371,4.067-5.337,5.021c-13.926,13.117-21.436,20.432-22.258,22.016
	c-3.151,5.466-1.712,10.62,4.264,15.371L211.924,514.023z"/>
<path fill="none" stroke="#000000" stroke-miterlimit="10" d="M1166.557,417.546l-59.238-90.072l-42.521-65.254l-41.68-62.238
	c0,0-42.658-64.126-54.734-81.931C956.31,100.244,955.3,89.289,955.3,89.289l-3.195-16.674l-5.023-25.809L941.996,23.3
	c-4.051-29.16-31.289-22.031-31.289-22.031l-66.809,8.434l-72.742,9.236l-43.711,5.523l-33.703,4.227c0,0-13.16,1.631-27.322,3.609
	c-14.16,1.976-11.809,17.934-11.809,17.934l0.498,6.941l0.81,7.369l0.492,6.855l0.209,9.912l-0.469,9.902l-0.643,5.895l-1.246,5.467
	l-1.051,3.105l-1.69,4.229l-2.051,4.332l-2.584,4.658l-3.719,5.689l-3.865,5.045c0,0-3.945,4.5-7.195,7.818
	c-3.252,3.318-6.941,4.592-6.941,4.592l-4.01,1.783l-5.562,2.404l-5.068,2.377l-1.482,0.869l-0.643,0.693l-0.539,1.131l-0.389,1.328
	l-0.266,1.92l-0.107,1.57l0.307,1.75l0.773,2.883l1.75,5.524l5.049,9.477l11.768,17.582l47.9,56.17l51.041,53.779l65.113,68.732
	c0,0,35.609,38.191,54.598,57.482c18.986,19.289,35.865,16.041,35.865,16.041l10.488-0.176l86.25-1.166l71.566-0.23
	c0,0,51.854,0.307,96.529,2.322C1190.778,448.302,1166.557,417.546,1166.557,417.546z"/>
</svg>
