<?xml version="1.0" encoding="utf-8"?>
<!-- Generator: Adobe Illustrator 16.0.0, SVG Export Plug-In . SVG Version: 6.00 Build 0)  -->
<!DOCTYPE svg PUBLIC "-//W3C//DTD SVG 1.1//EN" "http://www.w3.org/Graphics/SVG/1.1/DTD/svg11.dtd">
<svg version="1.1" id="Layer_1" xmlns="http://www.w3.org/2000/svg" xmlns:xlink="http://www.w3.org/1999/xlink" x="0px" y="0px"
	 width="731.447px" height="454.738px" viewBox="0 0 731.447 454.738" enable-background="new 0 0 731.447 454.738"
	 xml:space="preserve">
<path d="M6.255,17.484c258.636-3.773,468.213-32.417,720.617-7.214c3.455,0.346,5.238,2.111,4.349,6.434
	c-8.633,41.764-16.867,75.156-20.383,118.056c-0.312,3.774-4.021,4.231-5.115,4.214c-138.765-2.117-276.935-6.117-416.88,5.438
	c-8.048,0.664-14.802,11.463-6.925,11.206c182.801-5.983,312.143,3.817,413.896,28.258c5.176,1.243,13.299,4.974,4.57,15.571
	c-66.146,80.33-137.285,156.812-217.851,237.649c-31.476,5.912-62.42,11.728-93.896,17.642c-0.638-28.75-0.505-57.461-2.438-86.15
	c-0.555-8.229-3.81-16.889-7.726-24.178c-37.146-69.145-98.837-121.022-154.108-178.586
	c50.335,60.573,111.977,108.154,150.971,182.104c4.629,8.773,8.647,18,6.694,28.633c-121.299,26.156-239.453,31.295-364.521,14.98
	c-5.865-0.768-6.796-5.293-5.812-9.119c21.174-82.584,43.556-165.469,101.33-227.647c26.688,3.812,52.098,5.307,77.896,2.765
	c1.278-3.347,1.729-8.151-1.521-11.915C105.26,108.369,58.51,58.033,3.682,25.747C-0.96,23.014-2.323,17.61,6.255,17.484z"/>
</svg>
