<?xml version="1.0" encoding="utf-8"?>
<!-- Generator: Adobe Illustrator 16.0.0, SVG Export Plug-In . SVG Version: 6.00 Build 0)  -->
<!DOCTYPE svg PUBLIC "-//W3C//DTD SVG 1.1//EN" "http://www.w3.org/Graphics/SVG/1.1/DTD/svg11.dtd">
<svg version="1.1" id="Layer_1" xmlns="http://www.w3.org/2000/svg" xmlns:xlink="http://www.w3.org/1999/xlink" x="0px" y="0px"
	 width="710.045px" height="748.039px" viewBox="0 0 710.045 748.039" enable-background="new 0 0 710.045 748.039"
	 xml:space="preserve">
<path fill="none" stroke="#000000" stroke-linejoin="round" stroke-miterlimit="10" d="M691.717,67.294
	c-5.09-2.34-10.789-4.151-16.484-6.042c-18.931-6.283-37.821-12.685-56.731-19.029c-4.955-1.662-9.905-3.344-14.859-5.009
	l-30.354-9.752l-32.894-9.809l-25.805-6.943l-21.485-5.168l-16.55-3.518l-7.828-1.18L459.76,0l-8.406,0.133l-12.02,1.662
	l-12.252,2.887L336.547,30.45l-43.096,13.826c0,0-36.723,13.059-37.433,13.311c-8.014,2.85-18.096,5.757-22.971,13.347
	c-6.186,9.631-3.145,23.978-2.902,34.801c0.177,7.895,0.092,16.362,0.542,24.004c0,0.001,2.247,38.141,2.247,38.141l4.301,58.375
	l3.281,34.197l3.699,40.34l3.94,38.986l4.82,38.731l8.056,49.801l15.384,91.658l11.495,63.615c0,0,11.614,57.682,11.646,57.842
	c7.563,37.562,16.066,64.049,53.517,79.213l41.393,14.223l34.215,9.297c0,0,37.179,11.02,91.94-4.076
	c24.04-6.629,48.575-11.426,71.997-20.189c60.867-22.77,61.529-88.566,70.181-143.631c12.607-80.23,20.319-160.643,28.158-241.429
	c0.788-8.124,1.533-16.251,2.302-24.377l9.285-114.633c2.256-27.091,4.438-54.207,6.641-81.292
	C710.786,94.872,712.395,76.803,691.717,67.294z M56.183,149.68c60.351-30.773,120.399-61.293,151.937-67.592
	c14.414,92.18,19.308,185.854,18.296,280.453L0,503.685C31.157,383.734,51.541,265.473,56.183,149.68z"/>
</svg>
