<?xml version="1.0" encoding="utf-8"?>
<!-- Generator: Adobe Illustrator 16.0.0, SVG Export Plug-In . SVG Version: 6.00 Build 0)  -->
<!DOCTYPE svg PUBLIC "-//W3C//DTD SVG 1.1//EN" "http://www.w3.org/Graphics/SVG/1.1/DTD/svg11.dtd">
<svg version="1.1" id="Layer_1" xmlns="http://www.w3.org/2000/svg" xmlns:xlink="http://www.w3.org/1999/xlink" x="0px" y="0px"
	 width="710.045px" height="748.04px" viewBox="0 0 710.045 748.04" enable-background="new 0 0 710.045 748.04"
	 xml:space="preserve">
<path d="M691.718,67.293c-5.09-2.34-10.789-4.15-16.485-6.042c-18.93-6.283-37.821-12.685-56.73-19.028
	c-4.953-1.662-9.903-3.345-14.857-5.01l-30.355-9.752l-32.893-9.809l-25.805-6.943l-21.486-5.168l-16.549-3.518l-7.828-1.181
	L459.76,0l-8.406,0.133l-12.02,1.662l-12.255,2.888L336.548,30.45l-43.097,13.826c0,0-36.725,13.059-37.435,13.311
	c-8.015,2.851-18.097,5.757-22.972,13.348c-6.188,9.631-3.146,23.978-2.901,34.801c0.177,7.895,0.092,16.362,0.542,24.004
	c0,0.001,2.247,38.141,2.247,38.141l4.301,58.375l3.281,34.197l3.698,40.34l3.938,38.986l4.82,38.731l8.056,49.801l15.386,91.658
	l11.495,63.615c0,0,11.612,57.682,11.646,57.842c7.562,37.562,16.063,64.049,53.516,79.213l41.396,14.225l34.215,9.297
	c0,0,37.178,11.02,91.938-4.076c24.04-6.629,48.575-11.426,71.997-20.189c60.867-22.77,61.529-88.564,70.184-143.631
	c12.604-80.229,20.316-160.643,28.155-241.429c0.788-8.124,1.533-16.251,2.305-24.377l9.285-114.633
	c2.256-27.091,4.438-54.207,6.641-81.292C710.784,94.872,712.395,76.802,691.718,67.293z M56.183,149.68
	c60.353-30.773,120.398-61.294,151.938-67.593c14.414,92.181,19.309,185.854,18.296,280.453L0,503.684
	C31.157,383.734,51.541,265.473,56.183,149.68z"/>
</svg>
