<?xml version="1.0" encoding="utf-8"?>
<!-- Generator: Adobe Illustrator 21.0.2, SVG Export Plug-In . SVG Version: 6.00 Build 0)  -->
<svg version="1.1" id="Layer_1" xmlns="http://www.w3.org/2000/svg" xmlns:xlink="http://www.w3.org/1999/xlink" x="0px" y="0px"
	 width="1172.611px" height="673.433px" viewBox="0 0 1172.611 673.433" enable-background="new 0 0 1172.611 673.433"
	 xml:space="preserve">
<path d="M318.141,480.742l3.6-3.225c0.547-0.499,3.577-4.254,9.019-11.247c8.757-11.408,26.553-31.182,53.387-59.322
	c16.687-17.585,37.319-37.886,62.037-61.231c38.912-36.786,53.781-51.127,76.591-77.2c17.89-20.313,37.902-47.573,59.864-81.88
	c6.256-9.481,10.34-15.336,12.619-17.581c2.481-0.146,4.753-0.242,7.251-0.319l-0.001,0l7.127-0.214l7.129-0.215
	c2.201-0.079,6.988-0.182,14.329-0.744l0,0l7.13-0.51l7.197-0.232l7.181-0.302l7.198-0.231l7.198-0.231
	c3.965-0.129,6.308-0.242,7.096-0.356l-0.002,0.001l7.254-0.615l7.076-0.129l7.094-0.354c4.768-0.173,7.129-0.217,7.214-0.162l0,0
	l7.185-0.599c6.186-0.435,10.913,0.143,14.108,1.752l-0.001,0l6.406,3.287c1.442,0.768,3.7,1.859,6.549,3.254l-0.002,0.001
	l6.584,3.097c1.267,0.66,0.59,3.411-1.913,8.447l0,0l-3.664,7.31c-0.805,1.597-1.758,4.118-2.706,7.6l-0.002,0.001l76.707,40.594
	c1.943,1.018,9.386-5.34,22.362-18.936c5.877-0.806,11.17,2.155,19.982,7.163c38.851,21.769,71.816,42.127,98.72,61.263
	c53.7,37.849,103.515,72.109,149.858,102.975c41.111,27.227,67.482,45.379,69.611,72.996c1.102,14.908-7.05,28.245-24.749,39.707
	c-8.465,5.491-58.841,33.901-69.552,38.966c-13.701,6.811-33.467,15.803-59.149,27.314c-6.109,2.637-23.648,10.729-52.462,24.317
	c-0.437,0.029-18.13,7.792-53.264,22.806c-65.393,28.133-132.483,46.015-201.011,53.505c-32.595,3.606-66.044,2.681-100.284-2.499
	c-66.001-10.205-100.68-24.087-163.921-52.562c-3.232-1.453-22.611-11.055-58.471-28.649c-17.176-8.423-27.903-14.013-32.012-16.662
	c-16.332-10.474-27.348-19.769-32.999-27.972c-6.817-10.296-11.138-21.626-12.478-34.11c-0.5-5.21-0.321-10.063,0.777-14.467
	C313.652,491.432,317.842,481.036,318.141,480.742L318.141,480.742z M961.186,513.524c5.975-4.751,7.415-9.905,4.264-15.371
	c-0.822-1.584-8.331-8.899-22.258-22.016c-0.967-0.954-2.763-2.599-5.337-5.021c-26.253-25.433-61.08-55.486-104.377-90.039
	c-56.899-45.379-113.047-83.239-168.442-113.581c-18.536-10.097-32.072-14.428-40.594-12.919
	c-15.068,2.622-54.694,31.731-61.797,37.343c-19.39,15.564-37.585,33.657-54.217,53.97c-4.288,5.31-7.197,9.258-8.554,11.95
	c-2.039,4.186-3.245,8.764-3.739,13.842l-0.001,0l4.618,5.414c3.123,0.366,5.432,0.115,6.699-0.78l-0.001,0l6.039-4.176l6.31-3.646
	c5.994-3.424,15.894-10.663,29.625-21.699c1.27-1.189,8.883-7.146,22.637-18.705c28.104-23.113,46.318-35.217,54.73-36.254
	c2.097-0.204,4.453,0.049,7.134,0.746c1.549,0.297,45.633,21.34,50.97,32.579c3.013,6.462,1.637,9.38-1.922,13.703
	c-0.548,0.501-10.49,8.489-30.225,23.84c-22.239,17.279-41.961,36.105-59.169,56.48c-11.527,13.767-17.084,24.634-16.339,32.748
	c7.661,9.499,28.585,6.3,62.666-9.723c11.658-5.438,26.216-13.931,43.975-25.778c19.072-12.529,37.698-23.843,56.205-34.089
	c9.419-5.202,16.014-7.658,20.084-7.663c9.308-0.068,21.645,6.99,37.163,21.21c3.248,3.075,4.958,4.666,5.129,5.07
	c1.635,3.46,0.329,15.389-11.379,26.832c-0.743,0.621-16.537,13.555-47.44,38.593c-29.896,24.281-46.609,40.836-50.15,49.597
	c2.251,3.24,6.961,5.302,14.077,5.976c15.84,1.562,40.591-7.95,74.06-28.416c6.717-4.115,12.976-7.675,18.954-11.17
	c6.413-3.523,16.739-9.9,31.444-19.023c10.167-6.413,16.668-9.886,19.207-10.415c2.975-0.56,5.3-0.741,7.268-0.247
	c9.614,2.154,47.602,38.339,48.663,47.779c0.24,1.942-1.246,6.588-4.492,14.096c-1.919,4.379-2.907,6.76-3.084,6.95
	c-2.162,2.733-27.986,22.048-58.808,38.704l0,0l-6.944,3.798c-4.919,2.651-8.157,9.265-8.13,11.554
	c-0.006,1.851,1.964,5.454,3.99,6.821c1.349,1.011,3.688,1.195,7.135,0.745c9.424-1.13,67.732-32.611,92.999-48.981
	c20.251-13.181,30.81-20.13,31.357-20.631L961.186,513.524z M27.011,445.789c44.676-2.016,96.529-2.322,96.529-2.322l71.566,0.23
	l86.25,1.166l10.488,0.176c0,0,16.879,3.248,35.865-16.041c18.988-19.291,54.598-57.482,54.598-57.482l65.113-68.732l51.041-53.779
	l47.9-56.17l11.768-17.582l5.049-9.477l1.75-5.524l0.773-2.883l0.307-1.75l-0.107-1.57l-0.266-1.92l-0.389-1.328l-0.539-1.131
	l-0.643-0.693l-1.482-0.869l-5.068-2.377l-5.562-2.404l-4.01-1.783c0,0-3.689-1.273-6.941-4.592
	c-3.25-3.318-7.195-7.818-7.195-7.818l-3.865-5.045l-3.719-5.689l-2.584-4.658l-2.051-4.332l-1.69-4.229l-1.051-3.105l-1.246-5.467
	l-0.643-5.895l-0.469-9.902l0.209-9.912l0.492-6.855l0.811-7.369l0.498-6.941c0,0,2.352-15.957-11.809-17.934
	c-14.162-1.979-27.322-3.609-27.322-3.609l-33.703-4.227l-43.711-5.523l-72.742-9.236l-66.809-8.434c0,0-27.238-7.129-31.287,22.033
	l-5.086,23.506l-5.023,25.809l-3.195,16.674c0,0-1.01,10.955-13.084,28.762c-12.076,17.805-54.734,81.931-54.734,81.931
	l-41.68,62.238l-42.521,65.254L6.555,417.047C6.555,417.047-17.666,447.802,27.011,445.789z M525.161,188.189
	c0-0.825,0.675-1.5,1.5-1.5h11.878l-0.099,0.148l-2.432,2.852h-9.347C525.835,189.689,525.161,189.014,525.161,188.189z
	 M525.161,161.854c0-0.825,0.675-1.5,1.5-1.5h25.373c0.825,0,1.5,0.675,1.5,1.5s-0.675,1.5-1.5,1.5h-25.373
	C525.835,163.354,525.161,162.679,525.161,161.854z M302.659,18.658c0,0.825-0.675,1.5-1.5,1.5h-25.373c-0.825,0-1.5-0.675-1.5-1.5
	c0-0.825,0.675-1.5,1.5-1.5h25.373C301.984,17.158,302.659,17.833,302.659,18.658z M273.535,71.328c0-0.825,0.675-1.5,1.5-1.5
	h25.373c0.825,0,1.5,0.675,1.5,1.5c0,0.825-0.675,1.5-1.5,1.5h-25.373C274.21,72.828,273.535,72.153,273.535,71.328z
	 M275.535,96.163h25.373c0.825,0,1.5,0.675,1.5,1.5c0,0.825-0.675,1.5-1.5,1.5h-25.373c-0.825,0-1.5-0.675-1.5-1.5
	C274.035,96.838,274.71,96.163,275.535,96.163z M303.409,123.997c0,0.825-0.675,1.5-1.5,1.5h-25.373c-0.825,0-1.5-0.675-1.5-1.5
	c0-0.825,0.675-1.5,1.5-1.5h25.373C302.734,122.497,303.409,123.172,303.409,123.997z M274.285,176.667c0-0.825,0.675-1.5,1.5-1.5
	h25.373c0.825,0,1.5,0.675,1.5,1.5c0,0.825-0.675,1.5-1.5,1.5h-25.373C274.96,178.167,274.285,177.492,274.285,176.667z
	 M275.535,201.502h25.373c0.825,0,1.5,0.675,1.5,1.5c0,0.825-0.675,1.5-1.5,1.5h-25.373c-0.825,0-1.5-0.675-1.5-1.5
	C274.035,202.177,274.71,201.502,275.535,201.502z M303.409,229.337c0,0.825-0.675,1.5-1.5,1.5h-25.373c-0.825,0-1.5-0.675-1.5-1.5
	s0.675-1.5,1.5-1.5h25.373C302.734,227.837,303.409,228.512,303.409,229.337z M274.285,282.006c0-0.825,0.675-1.5,1.5-1.5h25.373
	c0.825,0,1.5,0.675,1.5,1.5s-0.675,1.5-1.5,1.5h-25.373C274.96,283.506,274.285,282.831,274.285,282.006z M276.285,306.841h25.373
	c0.825,0,1.5,0.675,1.5,1.5s-0.675,1.5-1.5,1.5h-25.373c-0.825,0-1.5-0.675-1.5-1.5S275.46,306.841,276.285,306.841z
	 M352.909,31.826c0,0.825-0.675,1.5-1.5,1.5h-25.373c-0.825,0-1.5-0.675-1.5-1.5c0-0.825,0.675-1.5,1.5-1.5h25.373
	C352.234,30.326,352.909,31.001,352.909,31.826z M353.659,110.007c0,0.825-0.675,1.5-1.5,1.5h-25.373c-0.825,0-1.5-0.675-1.5-1.5
	c0-0.825,0.675-1.5,1.5-1.5h25.373C352.984,108.507,353.659,109.182,353.659,110.007z M353.659,137.165c0,0.825-0.675,1.5-1.5,1.5
	h-25.373c-0.825,0-1.5-0.675-1.5-1.5c0-0.825,0.675-1.5,1.5-1.5h25.373C352.984,135.665,353.659,136.34,353.659,137.165z
	 M353.659,215.347c0,0.825-0.675,1.5-1.5,1.5h-25.373c-0.825,0-1.5-0.675-1.5-1.5c0-0.825,0.675-1.5,1.5-1.5h25.373
	C352.984,213.847,353.659,214.521,353.659,215.347z M353.659,242.504c0,0.825-0.675,1.5-1.5,1.5h-25.373c-0.825,0-1.5-0.675-1.5-1.5
	c0-0.825,0.675-1.5,1.5-1.5h25.373C352.984,241.004,353.659,241.679,353.659,242.504z M354.409,320.685c0,0.825-0.675,1.5-1.5,1.5
	h-25.373c-0.825,0-1.5-0.675-1.5-1.5c0-0.825,0.675-1.5,1.5-1.5h25.373C353.734,319.185,354.409,319.86,354.409,320.685z
	 M402.409,70.505c0,0.825-0.675,1.5-1.5,1.5h-25.373c-0.825,0-1.5-0.675-1.5-1.5c0-0.825,0.675-1.5,1.5-1.5h25.373
	C401.734,69.005,402.409,69.68,402.409,70.505z M402.909,96.84c0,0.825-0.675,1.5-1.5,1.5h-25.373c-0.825,0-1.5-0.675-1.5-1.5
	c0-0.825,0.675-1.5,1.5-1.5h25.373C402.234,95.34,402.909,96.015,402.909,96.84z M403.909,123.175c0,0.825-0.675,1.5-1.5,1.5
	h-25.373c-0.825,0-1.5-0.675-1.5-1.5c0-0.825,0.675-1.5,1.5-1.5h25.373C403.234,121.675,403.909,122.35,403.909,123.175z
	 M374.785,175.844c0-0.825,0.675-1.5,1.5-1.5h25.373c0.825,0,1.5,0.675,1.5,1.5c0,0.825-0.675,1.5-1.5,1.5h-25.373
	C375.46,177.344,374.785,176.669,374.785,175.844z M376.035,200.679h25.373c0.825,0,1.5,0.675,1.5,1.5c0,0.825-0.675,1.5-1.5,1.5
	h-25.373c-0.825,0-1.5-0.675-1.5-1.5C374.535,201.354,375.21,200.679,376.035,200.679z M403.909,228.514c0,0.825-0.675,1.5-1.5,1.5
	h-25.373c-0.825,0-1.5-0.675-1.5-1.5c0-0.825,0.675-1.5,1.5-1.5h25.373C403.234,227.014,403.909,227.689,403.909,228.514z
	 M454.159,111.653c0,0.825-0.675,1.5-1.5,1.5h-25.373c-0.825,0-1.5-0.675-1.5-1.5c0-0.825,0.675-1.5,1.5-1.5h25.373
	C453.484,110.153,454.159,110.828,454.159,111.653z M454.159,136.342c0,0.825-0.675,1.5-1.5,1.5h-25.373c-0.825,0-1.5-0.675-1.5-1.5
	c0-0.825,0.675-1.5,1.5-1.5h25.373C453.484,134.842,454.159,135.516,454.159,136.342z M454.159,216.992c0,0.825-0.675,1.5-1.5,1.5
	h-25.373c-0.825,0-1.5-0.675-1.5-1.5s0.675-1.5,1.5-1.5h25.373C453.484,215.492,454.159,216.167,454.159,216.992z M504.034,96.017
	c0,0.825-0.675,1.5-1.5,1.5H477.16c-0.825,0-1.5-0.675-1.5-1.5c0-0.825,0.675-1.5,1.5-1.5h25.373
	C503.359,94.517,504.034,95.191,504.034,96.017z M502.534,123.852H477.16c-0.825,0-1.5-0.675-1.5-1.5c0-0.825,0.675-1.5,1.5-1.5
	h25.373c0.825,0,1.5,0.675,1.5,1.5C504.034,123.177,503.359,123.852,502.534,123.852z M474.91,227.69c0-0.825,0.675-1.5,1.5-1.5
	h25.373c0.825,0,1.5,0.675,1.5,1.5c0,0.164-0.033,0.319-0.082,0.467l-0.732,0.858c-0.207,0.108-0.438,0.175-0.686,0.175H476.41
	C475.585,229.19,474.91,228.516,474.91,227.69z M474.91,201.355c0-0.825,0.675-1.5,1.5-1.5h25.373c0.825,0,1.5,0.675,1.5,1.5
	c0,0.825-0.675,1.5-1.5,1.5H476.41C475.585,202.855,474.91,202.181,474.91,201.355z M474.91,175.021c0-0.825,0.675-1.5,1.5-1.5
	h25.373c0.825,0,1.5,0.675,1.5,1.5s-0.675,1.5-1.5,1.5H476.41C475.585,176.521,474.91,175.847,474.91,175.021z M474.91,148.686
	c0-0.825,0.675-1.5,1.5-1.5h25.373c0.825,0,1.5,0.675,1.5,1.5c0,0.825-0.675,1.5-1.5,1.5H476.41
	C475.585,150.186,474.91,149.512,474.91,148.686z M474.16,69.682c0-0.825,0.675-1.5,1.5-1.5h25.373c0.825,0,1.5,0.675,1.5,1.5
	c0,0.825-0.675,1.5-1.5,1.5H475.66C474.835,71.182,474.16,70.507,474.16,69.682z M474.16,43.348c0-0.825,0.675-1.5,1.5-1.5h25.373
	c0.825,0,1.5,0.675,1.5,1.5s-0.675,1.5-1.5,1.5H475.66C474.835,44.848,474.16,44.173,474.16,43.348z M452.659,243.181h-25.373
	c-0.825,0-1.5-0.675-1.5-1.5c0-0.825,0.675-1.5,1.5-1.5h25.373c0.825,0,1.5,0.675,1.5,1.5
	C454.159,242.506,453.484,243.181,452.659,243.181z M425.035,294.351c0-0.825,0.675-1.5,1.5-1.5h16.635l-2.847,3h-13.788
	C425.71,295.851,425.035,295.176,425.035,294.351z M425.035,269.662c0-0.825,0.675-1.5,1.5-1.5h25.373c0.825,0,1.5,0.675,1.5,1.5
	s-0.675,1.5-1.5,1.5h-25.373C425.71,271.162,425.035,270.487,425.035,269.662z M425.035,189.012c0-0.825,0.675-1.5,1.5-1.5h25.373
	c0.825,0,1.5,0.675,1.5,1.5c0,0.825-0.675,1.5-1.5,1.5h-25.373C425.71,190.512,425.035,189.837,425.035,189.012z M425.035,164.322
	c0-0.825,0.675-1.5,1.5-1.5h25.373c0.825,0,1.5,0.675,1.5,1.5c0,0.825-0.675,1.5-1.5,1.5h-25.373
	C425.71,165.822,425.035,165.147,425.035,164.322z M424.285,83.673c0-0.825,0.675-1.5,1.5-1.5h25.373c0.825,0,1.5,0.675,1.5,1.5
	c0,0.825-0.675,1.5-1.5,1.5h-25.373C424.96,85.173,424.285,84.498,424.285,83.673z M424.285,58.983c0-0.825,0.675-1.5,1.5-1.5
	h25.373c0.825,0,1.5,0.675,1.5,1.5c0,0.825-0.675,1.5-1.5,1.5h-25.373C424.96,60.483,424.285,59.809,424.285,58.983z
	 M376.285,333.853c0-0.825,0.675-1.5,1.5-1.5h25.373c0.716,0,1.318,0.509,1.464,1.182l-1.722,1.818h-25.116
	C376.96,335.353,376.285,334.678,376.285,333.853z M375.285,307.518c0-0.825,0.675-1.5,1.5-1.5h25.373c0.825,0,1.5,0.675,1.5,1.5
	c0,0.825-0.675,1.5-1.5,1.5h-25.373C375.96,309.018,375.285,308.343,375.285,307.518z M374.785,281.184c0-0.825,0.675-1.5,1.5-1.5
	h25.373c0.825,0,1.5,0.675,1.5,1.5s-0.675,1.5-1.5,1.5h-25.373C375.46,282.684,374.785,282.009,374.785,281.184z M373.785,254.849
	c0-0.825,0.675-1.5,1.5-1.5h25.373c0.825,0,1.5,0.675,1.5,1.5s-0.675,1.5-1.5,1.5h-25.373
	C374.46,256.349,373.785,255.674,373.785,254.849z M373.785,149.509c0-0.825,0.675-1.5,1.5-1.5h25.373c0.825,0,1.5,0.675,1.5,1.5
	s-0.675,1.5-1.5,1.5h-25.373C374.46,151.009,373.785,150.334,373.785,149.509z M373.035,44.17c0-0.825,0.675-1.5,1.5-1.5h25.373
	c0.825,0,1.5,0.675,1.5,1.5s-0.675,1.5-1.5,1.5h-25.373C373.71,45.67,373.035,44.995,373.035,44.17z M352.909,349.343h-25.373
	c-0.825,0-1.5-0.675-1.5-1.5c0-0.825,0.675-1.5,1.5-1.5h25.373c0.825,0,1.5,0.675,1.5,1.5
	C354.409,348.668,353.734,349.343,352.909,349.343z M325.285,400.513c0-0.825,0.675-1.5,1.5-1.5h16.016
	c-0.952,1.002-1.903,2.002-2.853,3h-13.163C325.96,402.013,325.285,401.338,325.285,400.513z M325.285,373.354
	c0-0.825,0.675-1.5,1.5-1.5h25.373c0.825,0,1.5,0.675,1.5,1.5s-0.675,1.5-1.5,1.5h-25.373
	C325.96,374.854,325.285,374.18,325.285,373.354z M324.535,295.174c0-0.825,0.675-1.5,1.5-1.5h25.373c0.825,0,1.5,0.675,1.5,1.5
	s-0.675,1.5-1.5,1.5h-25.373C325.21,296.674,324.535,295.999,324.535,295.174z M324.535,268.016c0-0.825,0.675-1.5,1.5-1.5h25.373
	c0.825,0,1.5,0.675,1.5,1.5s-0.675,1.5-1.5,1.5h-25.373C325.21,269.516,324.535,268.841,324.535,268.016z M324.535,189.834
	c0-0.825,0.675-1.5,1.5-1.5h25.373c0.825,0,1.5,0.675,1.5,1.5s-0.675,1.5-1.5,1.5h-25.373
	C325.21,191.334,324.535,190.659,324.535,189.834z M324.535,162.677c0-0.825,0.675-1.5,1.5-1.5h25.373c0.825,0,1.5,0.675,1.5,1.5
	c0,0.825-0.675,1.5-1.5,1.5h-25.373C325.21,164.177,324.535,163.502,324.535,162.677z M323.785,84.495c0-0.825,0.675-1.5,1.5-1.5
	h25.373c0.825,0,1.5,0.675,1.5,1.5c0,0.825-0.675,1.5-1.5,1.5h-25.373C324.46,85.995,323.785,85.32,323.785,84.495z M323.785,57.338
	c0-0.825,0.675-1.5,1.5-1.5h25.373c0.825,0,1.5,0.675,1.5,1.5c0,0.825-0.675,1.5-1.5,1.5h-25.373
	C324.46,58.838,323.785,58.163,323.785,57.338z M302.659,336.176h-25.373c-0.825,0-1.5-0.675-1.5-1.5c0-0.825,0.675-1.5,1.5-1.5
	h25.373c0.825,0,1.5,0.675,1.5,1.5C304.159,335.501,303.484,336.176,302.659,336.176z M301.909,388.845h-25.373
	c-0.825,0-1.5-0.675-1.5-1.5s0.675-1.5,1.5-1.5h25.373c0.825,0,1.5,0.675,1.5,1.5S302.734,388.845,301.909,388.845z
	 M274.035,417.961c0-0.825,0.675-1.5,1.5-1.5h25.373c0.825,0,1.5,0.675,1.5,1.5s-0.675,1.5-1.5,1.5h-25.373
	C274.71,419.461,274.035,418.786,274.035,417.961z M274.035,361.011c0-0.825,0.675-1.5,1.5-1.5h25.373c0.825,0,1.5,0.675,1.5,1.5
	c0,0.825-0.675,1.5-1.5,1.5h-25.373C274.71,362.511,274.035,361.836,274.035,361.011z M273.285,255.671c0-0.825,0.675-1.5,1.5-1.5
	h25.373c0.825,0,1.5,0.675,1.5,1.5s-0.675,1.5-1.5,1.5h-25.373C273.96,257.171,273.285,256.496,273.285,255.671z M273.285,150.332
	c0-0.825,0.675-1.5,1.5-1.5h25.373c0.825,0,1.5,0.675,1.5,1.5s-0.675,1.5-1.5,1.5h-25.373
	C273.96,151.832,273.285,151.157,273.285,150.332z M272.535,44.993c0-0.825,0.675-1.5,1.5-1.5h25.373c0.825,0,1.5,0.675,1.5,1.5
	s-0.675,1.5-1.5,1.5h-25.373C273.21,46.493,272.535,45.818,272.535,44.993z M226.286,109.33h25.373c0.825,0,1.5,0.675,1.5,1.5
	c0,0.825-0.675,1.5-1.5,1.5h-25.373c-0.825,0-1.5-0.675-1.5-1.5C224.786,110.005,225.46,109.33,226.286,109.33z M251.411,83.818
	c0.825,0,1.5,0.675,1.5,1.5c0,0.825-0.675,1.5-1.5,1.5h-23.118l0.575-3H251.411z M234.124,56.66h16.035c0.825,0,1.5,0.675,1.5,1.5
	s-0.675,1.5-1.5,1.5H233.54L234.124,56.66z M253.661,32.648c0,0.825-0.675,1.5-1.5,1.5h-13.364l0.645-3h12.719
	C252.986,31.148,253.661,31.823,253.661,32.648z M254.411,137.988c0,0.825-0.675,1.5-1.5,1.5h-25.373c-0.825,0-1.5-0.675-1.5-1.5
	c0-0.825,0.675-1.5,1.5-1.5h25.373C253.736,136.488,254.411,137.163,254.411,137.988z M225.288,190.657c0-0.825,0.675-1.5,1.5-1.5
	h25.373c0.825,0,1.5,0.675,1.5,1.5c0,0.825-0.675,1.5-1.5,1.5h-25.373C225.962,192.157,225.288,191.482,225.288,190.657z
	 M226.286,214.669h25.373c0.825,0,1.5,0.675,1.5,1.5s-0.675,1.5-1.5,1.5h-25.373c-0.825,0-1.5-0.675-1.5-1.5
	S225.46,214.669,226.286,214.669z M254.411,243.327c0,0.825-0.675,1.5-1.5,1.5h-25.373c-0.825,0-1.5-0.675-1.5-1.5
	s0.675-1.5,1.5-1.5h25.373C253.736,241.827,254.411,242.502,254.411,243.327z M225.288,295.996c0-0.825,0.675-1.5,1.5-1.5h25.373
	c0.825,0,1.5,0.675,1.5,1.5s-0.675,1.5-1.5,1.5h-25.373C225.962,297.496,225.288,296.821,225.288,295.996z M227.036,320.009h25.373
	c0.825,0,1.5,0.675,1.5,1.5c0,0.825-0.675,1.5-1.5,1.5h-25.373c-0.825,0-1.5-0.675-1.5-1.5
	C225.536,320.684,226.21,320.009,227.036,320.009z M253.661,350.166h-25.373c-0.825,0-1.5-0.675-1.5-1.5c0-0.825,0.675-1.5,1.5-1.5
	h25.373c0.825,0,1.5,0.675,1.5,1.5C255.161,349.491,254.486,350.166,253.661,350.166z M252.911,402.836h-25.373
	c-0.825,0-1.5-0.675-1.5-1.5s0.675-1.5,1.5-1.5h25.373c0.825,0,1.5,0.675,1.5,1.5S253.736,402.836,252.911,402.836z
	 M224.786,430.305c0-0.825,0.675-1.5,1.5-1.5h25.373c0.825,0,1.5,0.675,1.5,1.5c0,0.825-0.675,1.5-1.5,1.5h-25.373
	C225.46,431.805,224.786,431.13,224.786,430.305z M224.786,374.178c0-0.825,0.675-1.5,1.5-1.5h25.373c0.825,0,1.5,0.675,1.5,1.5
	s-0.675,1.5-1.5,1.5h-25.373C225.46,375.678,224.786,375.003,224.786,374.178z M224.036,268.839c0-0.825,0.675-1.5,1.5-1.5h25.373
	c0.825,0,1.5,0.675,1.5,1.5s-0.675,1.5-1.5,1.5h-25.373C224.71,270.339,224.036,269.664,224.036,268.839z M224.036,163.5
	c0-0.825,0.675-1.5,1.5-1.5h25.373c0.825,0,1.5,0.675,1.5,1.5s-0.675,1.5-1.5,1.5h-25.373C224.71,165,224.036,164.325,224.036,163.5
	z M153.911,244.149c0,0.825-0.675,1.5-1.5,1.5h-21.393l2.009-3h19.384C153.236,242.649,153.911,243.324,153.911,244.149z
	 M154.661,323.154c0,0.825-0.675,1.5-1.5,1.5h-25.373c-0.825,0-1.5-0.675-1.5-1.5s0.675-1.5,1.5-1.5h25.373
	C153.986,321.654,154.661,322.329,154.661,323.154z M203.411,177.49c0,0.825-0.675,1.5-1.5,1.5h-25.373
	c-0.3,0-0.58-0.091-0.815-0.245c0.604-0.907,1.218-1.827,1.836-2.755h24.351C202.736,175.99,203.411,176.665,203.411,177.49z
	 M204.161,203.825c0,0.825-0.675,1.5-1.5,1.5h-25.373c-0.825,0-1.5-0.675-1.5-1.5c0-0.825,0.675-1.5,1.5-1.5h25.373
	C203.486,202.325,204.161,203,204.161,203.825z M204.161,230.159c0,0.825-0.675,1.5-1.5,1.5h-25.373c-0.825,0-1.5-0.675-1.5-1.5
	c0-0.825,0.675-1.5,1.5-1.5h25.373C203.486,228.659,204.161,229.334,204.161,230.159z M204.911,309.164c0,0.825-0.675,1.5-1.5,1.5
	h-25.373c-0.825,0-1.5-0.675-1.5-1.5s0.675-1.5,1.5-1.5h25.373C204.236,307.664,204.911,308.339,204.911,309.164z M203.411,336.999
	h-25.373c-0.825,0-1.5-0.675-1.5-1.5s0.675-1.5,1.5-1.5h25.373c0.825,0,1.5,0.675,1.5,1.5S204.236,336.999,203.411,336.999z
	 M175.788,418.784c0-0.825,0.675-1.5,1.5-1.5h25.373c0.825,0,1.5,0.675,1.5,1.5s-0.675,1.5-1.5,1.5h-25.373
	C176.462,420.284,175.788,419.609,175.788,418.784z M175.788,388.168c0-0.825,0.675-1.5,1.5-1.5h25.373c0.825,0,1.5,0.675,1.5,1.5
	s-0.675,1.5-1.5,1.5h-25.373C176.462,389.668,175.788,388.993,175.788,388.168z M175.788,361.833c0-0.825,0.675-1.5,1.5-1.5h25.373
	c0.825,0,1.5,0.675,1.5,1.5s-0.675,1.5-1.5,1.5h-25.373C176.462,363.333,175.788,362.658,175.788,361.833z M175.038,282.829
	c0-0.825,0.675-1.5,1.5-1.5h25.373c0.825,0,1.5,0.675,1.5,1.5s-0.675,1.5-1.5,1.5h-25.373
	C175.712,284.329,175.038,283.654,175.038,282.829z M175.038,256.494c0-0.825,0.675-1.5,1.5-1.5h25.373c0.825,0,1.5,0.675,1.5,1.5
	c0,0.825-0.675,1.5-1.5,1.5h-25.373C175.712,257.994,175.038,257.319,175.038,256.494z M153.161,350.989h-25.373
	c-0.825,0-1.5-0.675-1.5-1.5s0.675-1.5,1.5-1.5h25.373c0.825,0,1.5,0.675,1.5,1.5S153.986,350.989,153.161,350.989z
	 M125.537,431.951c0-0.825,0.675-1.5,1.5-1.5h25.373c0.825,0,1.5,0.675,1.5,1.5c0,0.825-0.675,1.5-1.5,1.5h-25.373
	C126.212,433.451,125.537,432.776,125.537,431.951z M125.537,402.158c0-0.825,0.675-1.5,1.5-1.5h25.373c0.825,0,1.5,0.675,1.5,1.5
	s-0.675,1.5-1.5,1.5h-25.373C126.212,403.658,125.537,402.983,125.537,402.158z M125.537,375.823c0-0.825,0.675-1.5,1.5-1.5h25.373
	c0.825,0,1.5,0.675,1.5,1.5c0,0.825-0.675,1.5-1.5,1.5h-25.373C126.212,377.323,125.537,376.648,125.537,375.823z M124.787,296.819
	c0-0.825,0.675-1.5,1.5-1.5h25.373c0.825,0,1.5,0.675,1.5,1.5s-0.675,1.5-1.5,1.5h-25.373
	C125.462,298.319,124.787,297.645,124.787,296.819z M124.787,270.484c0-0.825,0.675-1.5,1.5-1.5h25.373c0.825,0,1.5,0.675,1.5,1.5
	c0,0.825-0.675,1.5-1.5,1.5h-25.373C125.462,271.984,124.787,271.31,124.787,270.484z M104.41,309.987c0,0.825-0.675,1.5-1.5,1.5
	H87.726l1.955-3h13.229C103.736,308.487,104.41,309.162,104.41,309.987z M102.91,337.821H77.537c-0.825,0-1.5-0.675-1.5-1.5
	c0-0.825,0.675-1.5,1.5-1.5h25.373c0.825,0,1.5,0.675,1.5,1.5C104.41,337.147,103.736,337.821,102.91,337.821z M75.287,419.607
	c0-0.825,0.675-1.5,1.5-1.5h25.373c0.825,0,1.5,0.675,1.5,1.5s-0.675,1.5-1.5,1.5H76.787
	C75.962,421.107,75.287,420.432,75.287,419.607z M75.287,388.991c0-0.825,0.675-1.5,1.5-1.5h25.373c0.825,0,1.5,0.675,1.5,1.5
	c0,0.825-0.675,1.5-1.5,1.5H76.787C75.962,390.491,75.287,389.816,75.287,388.991z M75.287,362.656c0-0.825,0.675-1.5,1.5-1.5
	h25.373c0.825,0,1.5,0.675,1.5,1.5c0,0.825-0.675,1.5-1.5,1.5H76.787C75.962,364.156,75.287,363.481,75.287,362.656z
	 M26.693,404.481l1.973-3h21.826c0.825,0,1.5,0.675,1.5,1.5c0,0.825-0.675,1.5-1.5,1.5H26.693z"/>
</svg>
