<?xml version="1.0" encoding="utf-8"?>
<!-- Generator: Adobe Illustrator 16.0.0, SVG Export Plug-In . SVG Version: 6.00 Build 0)  -->
<!DOCTYPE svg PUBLIC "-//W3C//DTD SVG 1.1//EN" "http://www.w3.org/Graphics/SVG/1.1/DTD/svg11.dtd">
<svg version="1.1" id="Layer_1" xmlns="http://www.w3.org/2000/svg" xmlns:xlink="http://www.w3.org/1999/xlink" x="0px" y="0px"
	 width="1525.441px" height="952.875px" viewBox="0 0 1525.441 952.875" enable-background="new 0 0 1525.441 952.875"
	 xml:space="preserve">
<path fill="none" stroke="#000000" stroke-linejoin="round" stroke-miterlimit="10" d="M98.667,162.014
	c3.037-1.262,10.688-2.845,16.072,9.688c1.999,4.651,6.309,13.478,11.767,24.652c16.435,33.643,41.27,84.486,47.438,111.322
	c2.331,10.135,5.691,32.557,9.945,60.946c10.544,70.356,28.189,188.109,51.061,253.029c30.266,85.907,72.289,195.235,91.119,220.616
	c9.056,12.203,18.612,33.384,25.567,56.654c4.262,14.252,10.556,39.521,4.851,48.633c-1.158,1.851-2.905,3.295-5.054,4.188
	c-10.743,4.467-30.214-5.424-38.085-9.881c-16.14-9.144-29.77-21.148-36.463-32.127c-1.597-2.619-4.032-6.48-7.116-11.367
	c-24.513-38.87-99.107-157.15-171.314-319.704C48.053,465.199,14.612,377.288,4.296,331.122l-0.248-1.102
	c-0.354-1.546-0.938-3.083-1.554-4.714c-2.584-6.832-5.8-15.333,5.485-28.695C19.261,283.249,79.688,186.8,80.295,185.828
	c0.962-1.539,2.018-3.38,3.134-5.332C87.915,172.662,92.551,164.556,98.667,162.014L98.667,162.014z M1425,138.352
	c6.143,2.469,10.873,10.516,15.447,18.3c1.139,1.941,2.215,3.77,3.192,5.298c0.623,0.966,62.168,96.703,73.609,109.932
	c11.438,13.229,8.322,21.77,5.816,28.632c-0.599,1.635-1.162,3.181-1.498,4.728l-0.236,1.107
	c-9.783,46.291-42.191,134.583-91.262,248.624c-70.31,163.392-143.519,282.531-167.574,321.685
	c-3.025,4.924-5.414,8.811-6.979,11.444c-6.567,11.056-20.057,23.226-36.086,32.556c-7.821,4.551-27.178,14.666-37.975,10.326
	c-2.156-0.867-3.918-2.298-5.098-4.132c-5.812-9.047,0.188-34.389,4.276-48.688c6.688-23.352,15.994-44.643,24.908-56.949
	c18.533-25.594,59.277-135.406,88.539-221.664c22.113-65.186,38.383-183.134,48.107-253.61c3.92-28.438,7.018-50.896,9.229-61.059
	c5.855-26.909,30.103-78.042,46.146-111.879c5.32-11.23,9.525-20.102,11.473-24.779C1414.282,135.628,1421.946,137.124,1425,138.352
	L1425,138.352z M999.646,0c8.263,0.032,10.435,11.428,11.25,15.721c4.808,25.236,7.525,114.176,6.507,125.457
	c-1.146,12.718-6.984,27.259-14.869,37.047c-16.789,20.841-58.761,72.646-87.125,105.06c-15.107,17.269-47.646,47.883-80.97,76.181
	c-16.618,14.116-31.633,26.104-43.409,34.666c-18.793,13.664-24.979,15.493-28.55,15.479c-0.088,0-0.172-0.002-0.254-0.007
	c-0.121,0.007-0.241,0.01-0.368,0.008c-3.576-0.014-9.771-1.857-28.582-15.446c-11.814-8.53-26.854-20.458-43.49-34.493
	c-33.392-28.166-65.983-58.635-81.104-75.819c-28.672-32.589-70.681-84.164-87.41-104.825c-7.908-9.766-13.786-24.292-14.973-37.003
	c-1.051-11.274,1.424-100.219,6.164-125.472c0.809-4.316,2.961-15.78,11.289-15.751c7.244,0.025,11.629,8.857,17.031,21.338
	c0.312,0.719,0.604,1.403,0.885,2.03c4.396,9.99,71.387,126.357,101.834,157.916c31.213,32.35,96.301,73.395,118.518,74.797
	c22.167-1.486,87.114-42.776,118.293-75.269c30.334-31.61,97.029-148.185,101.404-158.192c0.271-0.629,0.566-1.311,0.877-2.03
	C987.979,8.848,992.357-0.027,999.646,0L999.646,0z M1200.499,181.288c3.934,0.07,10.84,2.334,12.873,16.696
	c2.041,14.423,0.715,34.059-9.123,45.925c-3.992,4.816-37.246,62.285-69.406,117.859c-30.682,53.023-62.41,107.854-80.383,137.391
	c-39.721,65.271-148.662,226.884-180.248,270.812c-9.59,13.332-34.518,47.383-58.887,75.56
	c-32.996,38.153-45.111,42.903-51.979,42.78c-0.147-0.002-0.297-0.006-0.438-0.016c-0.306,0.021-0.607,0.021-0.912,0.021
	c-6.894-0.125-19.008-5.152-51.866-43.24c-23.215-26.912-46.738-58.742-58.693-75.318
	c-31.656-43.897-140.826-205.373-180.622-270.562c-18.01-29.502-49.798-84.271-80.543-137.231
	c-32.243-55.555-65.591-113.002-69.593-117.813c-9.854-11.853-11.206-31.489-9.185-45.915c2.062-14.711,9.188-16.787,13.252-16.714
	c4.511,0.081,9.149,2.954,13.798,8.54c2.246,2.701,9.972,14.458,27.229,40.792c42.446,64.76,121.457,185.31,181.381,261.84
	c38.49,49.162,84.479,98.671,126.169,135.825c40.286,35.905,73.577,57.514,89.054,57.788l0.363,0.006
	c30.262,0.14,128.76-82.604,215.375-193.544c59.815-76.613,138.664-197.271,181.021-262.091
	c17.226-26.354,24.935-38.121,27.174-40.826C1191.086,184.083,1195.862,181.205,1200.499,181.288L1200.499,181.288z"/>
</svg>
