<?xml version="1.0" encoding="utf-8"?>
<!-- Generator: Adobe Illustrator 16.0.0, SVG Export Plug-In . SVG Version: 6.00 Build 0)  -->
<!DOCTYPE svg PUBLIC "-//W3C//DTD SVG 1.1//EN" "http://www.w3.org/Graphics/SVG/1.1/DTD/svg11.dtd">
<svg version="1.1" id="Layer_1" xmlns="http://www.w3.org/2000/svg" xmlns:xlink="http://www.w3.org/1999/xlink" x="0px" y="0px"
	 width="675.41px" height="801.176px" viewBox="0 0 675.41 801.176" enable-background="new 0 0 675.41 801.176"
	 xml:space="preserve">
<path fill="none" stroke="#000000" stroke-miterlimit="10" d="M354.723,735.963c13.896-5.397,38.663-25.486,60.843-40.824
	c13.752-9.432,44.277-29.881,73.438-49.821c20.664-14.187,40.248-28.729,53.355-39.673c9.936-8.206,23.256-27.575,26.209-47.446
	c2.879-19.802,16.986-84.24,23.322-114.771c6.408-30.524,15.984-78.046,22.469-108.718c6.479-30.672,17.492-82.656,23.977-113.328
	c6.479-30.456,15.191-72.072,23.543-107.424c6.336-27.432,12.529-52.128,13.465-72.864c0.648-18.144-3.312-26.28-8.928-32.976
	c-5.113-6.048-16.488-9.072-31.32-7.848c-15.049,1.368-35.062,4.896-70.773,10.08c-31.395,4.32-59.475,8.064-84.744,11.809
	c-25.127,3.672-27,5.04-57.891,10.296c-30.021,5.112-28.008,4.824-47.592,8.064c-8.615,1.39-17.055,3.714-25.692,4.979
	c-8.787,1.287-16.848,0.667-25.479-1.147c-4.109-0.864-8.239-1.634-12.372-2.376c-3.147-0.565-6.303-1.096-9.462-1.601
	c-19.44-2.88-17.568-2.736-47.592-7.776c-30.888-5.256-32.616-6.552-57.888-10.224c-25.416-3.528-53.353-7.128-84.672-11.448
	c-35.644-5.112-55.66-8.712-70.78-10.007C25.251-0.308,13.947,2.789,8.834,8.836c-5.76,6.768-9.576,14.904-8.712,32.976
	c0.936,20.736,7.272,45.504,13.536,72.864c8.28,35.28,17.352,76.824,23.904,107.424c6.479,30.744,17.784,82.584,24.264,113.184
	c6.552,30.744,15.84,78.046,22.392,108.646c6.48,30.527,20.808,95.039,23.76,114.842c2.808,19.729,16.56,39.099,26.28,47.306
	c13.176,10.873,32.688,25.485,53.64,39.6c29.016,19.873,59.544,40.033,73.368,49.537c2.472,1.701,4.926,3.428,7.369,5.17
	c2.494,1.779,4.977,3.572,7.455,5.371c2.48,1.803,4.956,3.609,7.433,5.414c2.431,1.771,4.863,3.539,7.304,5.297
	c2.346,1.689,4.699,3.367,7.067,5.021c2.226,1.557,4.464,3.092,6.727,4.592c2.068,1.369,4.156,2.711,6.275,3.998
	c3.069,1.862,6.286,3.487,9.615,4.836c3.76,1.52,7.645,2.771,11.658,3.403c2.943,0.464,5.935,0.591,8.907,0.433
	c2.452-0.131,4.896-0.455,7.297-0.959c1.631-0.34,3.246-0.76,4.826-1.279C353.714,736.342,354.221,736.159,354.723,735.963z"/>
</svg>
