<?xml version="1.0" encoding="utf-8"?>
<!-- Generator: Adobe Illustrator 16.0.0, SVG Export Plug-In . SVG Version: 6.00 Build 0)  -->
<!DOCTYPE svg PUBLIC "-//W3C//DTD SVG 1.1//EN" "http://www.w3.org/Graphics/SVG/1.1/DTD/svg11.dtd">
<svg version="1.1" id="Layer_1" xmlns="http://www.w3.org/2000/svg" xmlns:xlink="http://www.w3.org/1999/xlink" x="0px" y="0px"
	 width="1937.008px" height="779.242px" viewBox="0 0 1937.008 779.242" enable-background="new 0 0 1937.008 779.242"
	 xml:space="preserve">
<path fill="none" stroke="#000000" stroke-miterlimit="10" d="M25.296,455.698c0.002-10.695,0.457-21.158,1.359-31.099
	c2.951-32.494,13.32-69.68,30.824-110.52c14.025-32.729,28.605-58.501,35.613-70.886c1.006-1.78,1.83-3.234,2.44-4.338
	c9.635-17.461,53.362-53.143,82.908-60.3c32.19-7.801,452.276-99.708,596.692-125.702c82.926-14.93,222.035-29.34,297.574-36.602
	c103.312-9.932,191.103-16.596,199.867-16.24c13.328,0.543,29.215,4.16,29.215,18.306c0,0.231-0.006,0.468-0.015,0.702
	c0,4.918,2.868,55.688,6.19,114.475c0.947,16.696,1.938,34.217,2.928,51.848c4.521,80.398,9.141,164.757,9.141,180.832
	c0,0.765-0.013,1.391-0.027,1.866c-0.285,6.972-2.551,12.36-6.735,16.017c-7.276,6.358-17.819,5.365-24.802,4.708
	c-1.305-0.125-2.434-0.23-3.312-0.268c-3.896-0.132-89.641,1.607-172.562,3.292c-113.039,2.295-229.923,4.67-236.771,4.394
	c-0.906-0.039-2.146,0.067-2.889,0.778c-0.41,0.397-0.646,0.979-0.646,1.604c0,1.502,1.185,2.377,3.334,2.463
	c12.131,0.488,388.134,15.754,408.353,16.572c9.062,0.366,30.277,1.229,30.277,17.014c0,2.242-0.455,4.604-1.389,7.227
	c-1.998,13.09-27.863,181.855-36.977,209.453c-10.572,32.033-31.244,31.195-51.229,30.387c-6.246-0.256-41.059-0.479-89.23-0.793
	c-102.149-0.662-273.125-1.77-339.828-4.477c-43.604-1.771-138.684-1.436-230.627-1.105c-113.348,0.4-230.555,0.818-259.676-2.61
	c-51.321-6.054-204.653-32.381-222.153-37.521c-13.813-4.053-31.006-9.102-35.312-29.859c-0.446-2.146-1.336-5.686-2.459-10.157
	C39.366,571.212,25.296,515.157,25.296,455.698L25.296,455.698z M1370.652,751.868c0-7.215,1.561-17.146,4.764-30.361
	c8.604-35.469,24.086-231.529,24.086-276.904c0-5.143-0.217-6.584-0.264-6.825c-0.76-2.646-1.146-5.425-1.146-8.242
	c0-12.709,8.047-27.062,25.725-28.547c6.895-0.578,24.418-2.154,46.604-4.15c94.221-8.476,186.947-16.72,195.734-16.361
	c1.25,0.052,2.326-0.349,3.191-1.186c0.896-0.859,1.438-2.067,1.438-3.229c0-3.988-6.361-4.559-8.312-4.638
	c-11.24-0.455-81.438,0.529-143.377,1.399c-48.402,0.683-90.211,1.269-95.656,1.048c-15.867-0.645-20.799-19.459-20.799-26.238
	c0-0.188,0.006-0.362,0.014-0.526c0.047-1.122,0.123-4.733,0.123-16.33c0-70.631-2.354-259.515-7.914-286.34
	c-1.357-6.552-2.021-12.097-2.021-16.951c0-8.745,2.188-15.091,6.68-19.405c6.121-5.879,14.969-6.346,22.812-6.026
	c14.396,0.585,233.229,25.334,283.229,40.014c15.822,4.646,57.116,17.928,98.726,40.885c43.699,24.114,72.75,50.627,86.34,78.804
	c23.088,47.871,46.385,135.99,46.385,224.938c0,23.746-1.678,46.488-4.981,67.596c-15.308,97.672-56.039,129.225-107.611,169.17
	c-4.893,3.787-9.946,7.705-15.062,11.744c-30.843,24.336-87.125,59.916-140.059,88.535
	c-37.354,20.196-105.268,54.239-140.404,55.321c-48.043,1.479-116.096-6.506-138.455-9.125c-3.627-0.43-6.76-0.795-7.362-0.827
	C1374.719,768.759,1370.652,763.122,1370.652,751.868L1370.652,751.868z M1858.979,198.458c0-13.939-10.922-25.303-24.856-25.868
	c-6.914-0.281-13.525,2.147-18.613,6.84c-5.09,4.69-8.047,11.083-8.326,17.998c-0.014,0.359-0.021,0.717-0.021,1.073
	c0,13.938,10.92,25.302,24.855,25.867c14.273,0.578,26.359-10.563,26.939-24.84C1858.968,199.17,1858.979,198.814,1858.979,198.458
	L1858.979,198.458z M1866.351,535.876c0-13.939-10.922-25.303-24.856-25.869c-14.274-0.578-26.358,10.564-26.938,24.84
	c-0.015,0.359-0.021,0.72-0.021,1.072c0,13.939,10.92,25.299,24.857,25.865c14.274,0.58,26.358-10.562,26.94-24.838
	C1866.343,536.589,1866.351,536.235,1866.351,535.876L1866.351,535.876z"/>
</svg>
