<?xml version="1.0" encoding="utf-8"?>
<!-- Generator: Adobe Illustrator 16.0.0, SVG Export Plug-In . SVG Version: 6.00 Build 0)  -->
<!DOCTYPE svg PUBLIC "-//W3C//DTD SVG 1.1//EN" "http://www.w3.org/Graphics/SVG/1.1/DTD/svg11.dtd">
<svg version="1.1" id="Layer_1" xmlns="http://www.w3.org/2000/svg" xmlns:xlink="http://www.w3.org/1999/xlink" x="0px" y="0px"
	 width="1937.512px" height="779.234px" viewBox="0 0 1937.512 779.234" enable-background="new 0 0 1937.512 779.234"
	 xml:space="preserve">
<path fill="none" stroke="#000000" stroke-linejoin="round" stroke-miterlimit="10" d="M702.005,681.926
	c-16.469-0.13-32.134-4.13-40.885-30.637c-9.108-27.594-34.969-196.346-36.971-209.455c-0.938-2.615-1.395-4.984-1.395-7.227
	c0-15.783,21.219-16.646,30.278-17.015c10.01-0.399,107.236-4.352,204.338-8.293c99.013-4.02,197.892-8.031,204.015-8.276
	c2.148-0.091,3.334-0.966,3.334-2.47c0-0.614-0.233-1.196-0.646-1.6c-0.74-0.711-1.979-0.816-2.885-0.779
	c-6.849,0.277-123.613-2.094-236.537-4.387c-83.035-1.687-168.896-3.43-172.805-3.296c-0.875,0.034-2.004,0.144-3.309,0.267
	c-6.979,0.657-17.523,1.653-24.804-4.707c-4.188-3.653-6.451-9.044-6.735-16.017c-0.021-0.479-0.029-1.104-0.029-1.866
	c0-16.04,4.619-100.41,9.143-180.829c0.984-17.637,1.979-35.161,2.926-51.86c3.326-58.783,6.197-109.55,6.197-114.425
	c-0.014-0.274-0.02-0.511-0.02-0.745c0-6.082,3.075-13.197,15.845-16.51"/>
<path fill="none" stroke="#000000" stroke-linejoin="round" stroke-miterlimit="10" d="M1891.957,593.847
	c-0.111,0.44-0.219,0.871-0.324,1.293c-1.125,4.48-2.014,8.021-2.457,10.166c-3.688,17.8-16.853,24.048-29.238,28.024"/>
<path fill="none" stroke="#000000" stroke-linejoin="round" stroke-miterlimit="10" d="M516.179,1.994
	c7.457-0.186,15.58,0.57,21.315,6.076c4.49,4.313,6.679,10.661,6.679,19.404c0,4.854-0.662,10.399-2.021,16.952
	c-5.562,26.83-7.914,215.719-7.914,286.352c0,11.589,0.076,15.198,0.121,16.319c0.006,0.162,0.012,0.338,0.012,0.524
	c0,6.781-4.932,25.598-20.797,26.238c-5.442,0.222-47.219-0.365-95.59-1.044c-61.97-0.871-132.199-1.858-143.444-1.402
	c-1.949,0.079-8.31,0.646-8.31,4.636c0,1.162,0.535,2.371,1.433,3.229c0.871,0.839,1.946,1.235,3.194,1.188
	c8.777-0.357,101.396,7.873,195.502,16.338c22.304,2.006,39.92,3.59,46.84,4.172c17.668,1.482,25.715,15.841,25.715,28.55
	c0,2.815-0.383,5.586-1.137,8.229c-0.043,0.207-0.271,1.605-0.271,6.834c0,45.373,15.483,241.439,24.088,276.91
	c3.206,13.22,4.764,23.154,4.764,30.365l0,0c-0.001,2.814-0.256,5.277-0.769,7.395"/>
</svg>
