<?xml version="1.0" encoding="utf-8"?>
<!-- Generator: Adobe Illustrator 16.0.0, SVG Export Plug-In . SVG Version: 6.00 Build 0)  -->
<!DOCTYPE svg PUBLIC "-//W3C//DTD SVG 1.1//EN" "http://www.w3.org/Graphics/SVG/1.1/DTD/svg11.dtd">
<svg version="1.1" id="Layer_1" xmlns="http://www.w3.org/2000/svg" xmlns:xlink="http://www.w3.org/1999/xlink" x="0px" y="0px"
	 width="1270.188px" height="670.964px" viewBox="0 0 1270.188 670.964" enable-background="new 0 0 1270.188 670.964"
	 xml:space="preserve">
<path fill="none" stroke="#000000" stroke-linejoin="round" stroke-miterlimit="10" d="M1196.375,464.724l-110.366-88.521
	c0-0.015,0-0.021,0.001-0.033l-48.208-38.67c-0.003,0.01-0.005,0.021-0.007,0.028L910.504,235.424
	c0.174,0.002,0.355-0.001,0.526,0.001l-11.271-8.617l-67.104-53.825c0.104-0.008,0.214-0.019,0.315-0.022l-25.097-19.854
	l-48.552-38.943c-6.05-4.785-11.128-9.823-15.358-15.016c-0.367-0.456-0.741-0.909-1.094-1.367c-0.123-0.154-0.24-0.312-0.361-0.467
	c-7.978-10.48-12.662-21.652-15.188-32.906c-1.043-5.145-1.54-10.236-1.591-15.201c0.077,0.023,0.169,0.044,0.246,0.066
	c-0.474-14.277,3.39-27.27,8.05-37.667c1.579-2.673-2.83-6.34-5.936-6.476c-7.432-1.423-15.8-2.338-24.169-3.253
	c-0.006,0.044-0.013,0.089-0.019,0.134c-7.57-0.708-15.382-1.221-23.422-1.537c-7.537-0.668-14.602-0.442-22.36-0.421
	c-0.009,0.004-0.02,0.01-0.026,0.015c-25.686,0.029-53.067,1.666-81.08,4.416c-0.075-0.105-0.163-0.211-0.229-0.318
	c-4.784,0.845-9.371,1.029-14.139,1.822c-8.008,0.885-16.044,1.85-24.098,2.891c0.01-0.119,0.016-0.236,0.021-0.355
	c-4.978,0.879-9.734,1.035-13.986,2.129c-0.009,0.032-0.025,0.062-0.036,0.097c-16.831,2.336-33.642,4.955-50.21,7.755
	c-13.05,1.621-26.585,10.167-31.673,22.008c-4.119,10.699-9.434,23.123-15.79,36.697c-0.493,0.98-0.974,1.954-1.484,2.943
	c0.032,0.002,0.063,0.003,0.099,0.004c-10.518,22.203-23.729,47.307-38.982,72.914c-0.659,1.101-1.312,2.201-1.976,3.302
	c-0.617,1.026-1.241,2.053-1.864,3.08c-1.304,2.146-2.623,4.292-3.949,6.438c-22.85,36.89-49.688,73.978-78.613,104.169
	c-7.332,7.392-14.735,14.648-22.352,21.514c-0.908,0.801-1.817,1.604-2.726,2.408c-12.882,11.363-25.548,22.814-38.007,34.361
	c0.004-0.057,0.006-0.112,0.01-0.17c-17.338,16.06-34.891,32.836-51.506,49.108c0.014,0.156,0.024,0.324,0.037,0.482
	c-7.932,7.902-15.775,15.855-23.535,23.855c-0.008-0.232-0.016-0.461-0.023-0.693c-10.088,10.777-20.248,21.799-30.396,32.779
	c-0.074,0.08-0.148,0.16-0.221,0.24c-7.142,7.727-14.276,15.432-21.375,23.014c0.014,0.145,0.024,0.303,0.038,0.451
	c-7.962,8.895-15.83,17.869-23.605,26.904c-0.022-0.189-0.05-0.395-0.09-0.607c-7.701,9.332-15.399,18.664-23.036,28.016
	C42.76,536.576,22.849,561.951,3.55,587.925c-5.03,6.361-4.659,10.396,0.766,15.938c5.716,7.195,11.646,13.672,17.578,20.145
	c0.073-0.008,0.145-0.016,0.217-0.02c7.042,7.416,14.345,14.527,21.906,21.381c-0.072,0.021-0.141,0.051-0.212,0.076
	c1.669,1.387,3.307,2.766,4.938,4.143c6.971,6.139,14.145,12.078,21.515,17.855c4.02,3.434,6.747,4.471,9.206,2.6
	c0.429-0.277,0.867-0.619,1.328-1.041c-0.015-0.074-0.029-0.154-0.045-0.23c0.541-0.656,1.08-1.463,1.625-2.439
	c8.064-12.303,14.131-26.111,20.395-39.828c-0.006,0.105-0.011,0.215-0.018,0.324c2.472-5.068,4.672-10.219,7.104-15.295
	c1.585-3.184,3.219-6.322,4.945-9.402c5.888-9.963,15.506-19.25,27.01-23.859c7.689-2.951,16.318-3.959,25.497-2.172
	c15.87,3.32,33.948,5.982,53.575,8.031c1.45,0.18,2.898,0.359,4.359,0.539c0.008-0.031,0.016-0.062,0.022-0.09
	c22.302,2.197,46.507,3.625,71.706,4.336c22.129,0.764,45.104,0.93,68.271,0.428c0.005-0.057,0.011-0.113,0.015-0.17
	c7.92-0.154,15.855-0.369,23.785-0.646c-0.002,0.014-0.002,0.021-0.002,0.027c4.76-0.156,10.242-0.1,15.002-0.256
	c0.104-0.125,0.229-0.248,0.344-0.371c31.568-1.389,62.755-3.701,91.979-6.838c2.697-0.209,5.594-0.426,8.381-0.924
	c9.449-1.08,18.663-2.252,27.602-3.502c4.456-0.238,8.514-1.217,13.021-1.365c0.016-0.188,0.056-0.373,0.096-0.561
	c5.959-0.92,11.775-1.877,17.419-2.875c29.915-5.285,57.231-2.938,82.615,4.133c1.539,0.447,3.05,0.895,4.521,1.332
	c-0.001-0.008,0-0.02-0.001-0.023c7.488,2.271,14.812,4.939,21.979,7.938c-0.013,0.061-0.021,0.117-0.032,0.182
	c2.9,1.131,5.747,2.34,8.571,3.578c21.644,9.967,41.927,22.715,61.349,36.039c-0.001,0.002-0.001,0.002-0.002,0.004
	c0.111,0.074,0.221,0.145,0.33,0.223c15.045,10.33,29.575,20.994,43.817,30.961c3.396,1.793,8.507-2.188,11.021-5.365
	c3.349-5.342,6.406-11.834,9.895-18.855c0.296-0.52,0.589-1.027,0.869-1.51c-0.038,0.002-0.081,0.004-0.119,0.004
	c12.043-24.068,29.596-53.74,80.647-64.838c11.967-2.6,24.531-4.939,37.554-7.1c3.464-0.506,6.965-0.98,10.528-1.395
	c-0.008-0.094-0.017-0.189-0.023-0.285c6.782-1.057,13.669-2.074,20.647-3.055c-0.001,0.012-0.004,0.02-0.007,0.039
	c0.823-0.133,1.646-0.254,2.469-0.383c20.305-2.822,41.35-5.385,62.679-7.898c0.032,0.059,0.066,0.111,0.104,0.172
	c18.745-2.285,37.488-4.57,56.233-6.857c0-0.004,0-0.01,0-0.014c25.564-3.146,50.964-6.537,75.407-10.574
	c0.999-0.129,1.995-0.311,2.986-0.525c0.662-0.117,1.325-0.234,1.987-0.352c0.141-0.078,0.261-0.158,0.373-0.24
	c1.1-0.312,2.183-0.686,3.252-1.098c4.216-1.109,8.141-3.838,11.354-6.781l5.324-4.701c-0.135,0.023-0.282,0.051-0.421,0.074
	l22.967-21.672c0.107,0.039,0.228,0.074,0.331,0.117l3.452-3.689C1212.002,483.503,1203.456,469.968,1196.375,464.724z"/>
</svg>
