<?xml version="1.0" encoding="utf-8"?>
<!-- Generator: Adobe Illustrator 16.0.0, SVG Export Plug-In . SVG Version: 6.00 Build 0)  -->
<!DOCTYPE svg PUBLIC "-//W3C//DTD SVG 1.1//EN" "http://www.w3.org/Graphics/SVG/1.1/DTD/svg11.dtd">
<svg version="1.1" id="Layer_1" xmlns="http://www.w3.org/2000/svg" xmlns:xlink="http://www.w3.org/1999/xlink" x="0px" y="0px"
	 width="1126.301px" height="612.183px" viewBox="0 0 1126.301 612.183" enable-background="new 0 0 1126.301 612.183"
	 xml:space="preserve">
<path d="M1123.933,34.187c-8.385-17.542-16.021-25.665-34.312-30.758c-18.345-4.641-30.886-3.851-64.853-1.83
	c-38.622,2.459-58.562,3.751-98.438,6.337c-36.694,2.251-79.257,5.643-105.241,7.276c-25.92,1.664-49.861,1.154-94.002,1.976
	c-44.015,0.72-70.128,2.294-132.021,4.161c-62.05,2.033-91.296,0.622-136.263,0.658c-42.349,0.231-65.975-0.447-93.586-2.125
	c-19.968-1.187-42.614-4.11-58.938,17.257c-13.646,17.532-21.533,28.225-30.268,41.226c-28.593,42.57-68.949,101.889-97.994,149.656
	c-28.938,48.055-65.954,108.385-89.436,147.869c-23.703,39.615-42.059,72.762-59.688,104.016
	c-13.266,23.674-25.559,49.16-28.034,63.91c-2.231,14.062-0.118,29.379,6.332,37.656c5.683,7.043,16.211,12.23,41.011,13.457
	c24.186,1.186,84.036,6.707,122.564,8.342c36.272,1.529,116.513,3.109,160.837,5.955c48.349,2.748,92.892,0.053,127.11,1.891
	c34.378,1.832,91.535,1.236,129.385-1.268c38.179-2.352,62.207-0.844,98.157-3.205c35.796-2.191,74.983-5.184,100.905-9.393
	c25.188-3.998,53.986-12.98,76.848-30.48c22.926-17.471,41.881-33.938,60.312-61.314c16.969-25.279,32.075-63.367,49.041-102.017
	c19.86-45.155,34.519-75.506,50.215-110.608c15.923-35.079,34.562-78.984,48.734-110.509c13.062-29.5,25.975-53.587,38.678-83.336
	C1122.464,72.874,1130.515,47.778,1123.933,34.187z"/>
</svg>
