<?xml version="1.0" encoding="utf-8"?>
<!-- Generator: Adobe Illustrator 16.0.0, SVG Export Plug-In . SVG Version: 6.00 Build 0)  -->
<!DOCTYPE svg PUBLIC "-//W3C//DTD SVG 1.1//EN" "http://www.w3.org/Graphics/SVG/1.1/DTD/svg11.dtd">
<svg version="1.1" id="Layer_1" xmlns="http://www.w3.org/2000/svg" xmlns:xlink="http://www.w3.org/1999/xlink" x="0px" y="0px"
	 width="2495.631px" height="833.074px" viewBox="0 0 2495.631 833.074" enable-background="new 0 0 2495.631 833.074"
	 xml:space="preserve">
<path d="M649.031,2.533L2412.49,398.651c0,0,51.011,6.004,64.319,25.43c13.311,19.427,39.021,47.646-9.452,51.643
	c-48.477,3.994-104.095,5.158-157.418-0.621c-53.325-5.775-1131.522-169.524-1259.77-209.641l-4.009-1.229
	c0,0-43.782-4.747-1.269,10.52c42.515,15.268,459.97,130.808,459.97,130.808s46.656,22.271,11.187,36.666
	c-35.475,14.396-65.509,31.604-97.974,65.604s-279.02,316.92-279.02,316.92s-9.818,19.488-13.23-1.178
	c-3.41-20.666,12.354-104.508-142.771-197.369s-299.218-205.162-460.779-151.24c-161.562,53.923-246.293,81.74-246.293,81.74
	s-31.4,16.253-53.235,0.917C200.91,542.285,6.638,411.946,6.638,411.946s-17.53-16.031,4.39-35.749
	c21.919-19.718,325.219-280.63,325.219-280.63s9.02-8.327,26.204-20.03l0.021-0.018C477.567-21.02,649.031,2.533,649.031,2.533z"/>
</svg>
