<?xml version="1.0" encoding="utf-8"?>
<!-- Generator: Adobe Illustrator 16.0.0, SVG Export Plug-In . SVG Version: 6.00 Build 0)  -->
<!DOCTYPE svg PUBLIC "-//W3C//DTD SVG 1.1//EN" "http://www.w3.org/Graphics/SVG/1.1/DTD/svg11.dtd">
<svg version="1.1" id="Layer_1" xmlns="http://www.w3.org/2000/svg" xmlns:xlink="http://www.w3.org/1999/xlink" x="0px" y="0px"
	 width="2557.994px" height="833.072px" viewBox="0 0 2557.994 833.072" enable-background="new 0 0 2557.994 833.072"
	 xml:space="preserve">
<path fill="none" stroke="#000000" stroke-linejoin="round" stroke-miterlimit="10" d="M59.425,385.104
	c-4.978-10.607-15.753-17.952-28.244-17.952C13.96,367.152,0,381.112,0,398.333s13.96,31.181,31.181,31.181
	c14.023,0,25.884-9.257,29.806-21.994c1.877-1.984,3.914,0.053,5.422,1.339c1.384,1.984,2.591,3.087,2.591,3.087
	s194.273,130.339,216.109,145.675c21.837,15.336,53.237-0.917,53.237-0.917s84.729-27.817,246.293-81.74
	c161.562-53.922,305.653,58.379,460.778,151.24s139.36,176.703,142.771,197.369c3.412,20.666,13.229,1.178,13.229,1.178
	s246.557-282.92,279.021-316.92c32.465-34,62.5-51.208,97.972-65.604c35.471-14.395-11.185-36.666-11.185-36.666
	s-417.453-115.541-459.972-130.808c-42.515-15.267,1.271-10.52,1.271-10.52l4.008,1.229
	c128.246,40.115,1206.443,203.864,1259.769,209.642c53.323,5.778,108.94,4.614,157.418,0.621
	c48.476-3.998,22.764-32.217,9.452-51.644c-13.309-19.426-64.319-25.43-64.319-25.43L711.395,2.533
	c0,0-171.466-23.553-286.562,72.986l-0.021,0.018c-17.188,11.703-26.204,20.03-26.204,20.03s-303.3,260.912-325.219,280.63
	c-4.129,3.714-6.858,7.297-8.567,10.667c-1.002,0.664-2.103,1.299-3.224,0.55c-0.901-0.602-1.48-1.514-2.176-2.316L59.425,385.104z"
	/>
</svg>
