<?xml version="1.0" encoding="utf-8"?>
<!-- Generator: Adobe Illustrator 16.0.0, SVG Export Plug-In . SVG Version: 6.00 Build 0)  -->
<!DOCTYPE svg PUBLIC "-//W3C//DTD SVG 1.1//EN" "http://www.w3.org/Graphics/SVG/1.1/DTD/svg11.dtd">
<svg version="1.1" id="Layer_1" xmlns="http://www.w3.org/2000/svg" xmlns:xlink="http://www.w3.org/1999/xlink" x="0px" y="0px"
	 width="676.492px" height="764.646px" viewBox="0 0 676.492 764.646" enable-background="new 0 0 676.492 764.646"
	 xml:space="preserve">
<path d="M512.281,21.417l-94.254,724.536c0,0-1.468,20.994,21.728,17.772c23.188-3.223,215.725-37.772,215.725-37.772
	s24.265-4.248,20.646-33.754c-3.26-26.545-30.391-442.928-35.809-526.304v-0.006v-0.008l-0.474-7.262l-2.274-16.443
	c-7.164-42.787-24.517-73.031-35.615-88.783c-3.137-4.828-6.407-9.049-9.797-12.404l-0.144-0.15v0.006
	c-1.433-1.408-2.883-2.666-4.354-3.742C558.126,15.492,523.033-17.266,512.281,21.417z M58.819,0.008l427.748,9.529
	c0,0,16.496-0.395,16.1,19.572c-0.396,19.965-95.985,722.214-95.985,722.214s-5.649,19.864-24.401,11.082
	c-18.757-8.782-315.02-127.156-315.02-127.156S0.868,589.771,0.037,525.617C-0.795,461.462,12.709,45.359,12.709,45.359
	S23.084-0.699,58.819,0.008z"/>
</svg>
