<?xml version="1.0" encoding="utf-8"?>
<!-- Generator: Adobe Illustrator 16.0.0, SVG Export Plug-In . SVG Version: 6.00 Build 0)  -->
<!DOCTYPE svg PUBLIC "-//W3C//DTD SVG 1.1//EN" "http://www.w3.org/Graphics/SVG/1.1/DTD/svg11.dtd">
<svg version="1.1" id="Layer_1" xmlns="http://www.w3.org/2000/svg" xmlns:xlink="http://www.w3.org/1999/xlink" x="0px" y="0px"
	 width="676.49px" height="819.994px" viewBox="0 0 676.49 819.994" enable-background="new 0 0 676.49 819.994"
	 xml:space="preserve">
<path fill="none" stroke="#000000" stroke-linejoin="round" stroke-miterlimit="10" d="M512.281,76.763l-94.254,724.536
	c0,0-1.47,20.994,21.725,17.773c23.189-3.223,215.725-37.773,215.725-37.773s24.267-4.248,20.646-33.754
	c-3.258-26.545-30.389-442.928-35.807-526.304v-0.006v-0.008l-0.476-7.262l-2.272-16.443c-7.164-42.787-24.519-73.031-35.615-88.783
	c-3.137-4.828-6.41-9.049-9.797-12.404l-0.146-0.15v0.006c-1.432-1.408-2.883-2.666-4.354-3.742
	C558.126,70.839,523.033,38.081,512.281,76.763z M58.819,55.355l427.75,9.529c0,0,16.494-0.395,16.1,19.572
	c-0.396,19.965-95.988,722.214-95.988,722.214s-5.647,19.864-24.399,11.082C363.522,808.97,67.26,690.596,67.26,690.596
	S0.868,645.119,0.037,580.964c-0.832-64.155,12.672-480.258,12.672-480.258S23.084,54.648,58.819,55.355z"/>
</svg>
