<?xml version="1.0" encoding="utf-8"?>
<!-- Generator: Adobe Illustrator 16.0.0, SVG Export Plug-In . SVG Version: 6.00 Build 0)  -->
<!DOCTYPE svg PUBLIC "-//W3C//DTD SVG 1.1//EN" "http://www.w3.org/Graphics/SVG/1.1/DTD/svg11.dtd">
<svg version="1.1" id="Layer_1" xmlns="http://www.w3.org/2000/svg" xmlns:xlink="http://www.w3.org/1999/xlink" x="0px" y="0px"
	 width="1975.488px" height="774.542px" viewBox="0 0 1975.488 774.542" enable-background="new 0 0 1975.488 774.542"
	 xml:space="preserve">
<path fill="none" stroke="#000000" stroke-linejoin="round" stroke-miterlimit="10" d="M180.59,87.437l63.446,578.816
	c0,0,1.575,48.297-39.786,22.027c-41.364-26.271-77.365-49.131-77.365-49.131s-23.743-15.08-34.355-50.848
	C81.918,552.548,0.572,182.179,0.572,182.179s-5.126-49.476,15.314-69.815C36.328,92.024,64,62.838,137.188,37.299l2.199-0.727
	C139.387,36.573,175.241,26.6,180.59,87.437z M297.04,220.773l1089.185-30.66c0,0,96.732-10.59,158.154-45.096
	c61.42-34.505,128.938-80.283,128.938-80.283s54.979-41.133-26.473-32.955c-81.449,8.18-352.836,31.621-464.508-4.973
	C1070.666-9.788,992.431,5.375,942.486,10.89c-49.945,5.514-353.542,17.836-353.542,17.836s-64.805,3.893-101.852-6.693
	C450.05,11.447,404.77,0.138,372.192,0.474C339.614,0.808,223.799,0.55,223.799,0.55s-46.268-5.492-39.572,18.23
	c6.696,23.723,40.969,164.264,40.969,164.264S236.136,225.617,297.04,220.773z M1971.557,100.226l-1.412-4.107L1971.557,100.226z
	 M704.667,231.972c-0.665,0.008-1.329,0.015-1.993,0.022 M702.674,231.995l1.993-0.022l12.389-0.142l-12.389,0.142L702.674,231.995
	c-8.979,0.1-17.907,0.193-26.756,0.281c-5.341,0.054-10.656,0.104-15.945,0.155c-5.288,0.049-10.55,0.097-15.779,0.143
	c-5.232,0.047-10.438,0.092-15.611,0.135s-10.316,0.084-15.428,0.123c-10.225,0.08-20.314,0.152-30.266,0.221
	c-4.975,0.034-9.912,0.066-14.812,0.098c-4.9,0.032-9.763,0.062-14.585,0.091c-9.646,0.058-19.131,0.11-28.442,0.159l-13.837,0.07
	l-26.847,0.125c0,0-12.987,0.055-12.988,0.055l-12.683,0.052l-12.367,0.048l-12.04,0.045l-11.703,0.041l-11.354,0.041l-10.989,0.038
	l-10.621,0.038l-10.24,0.037l-9.846,0.037l-9.442,0.038l-9.026,0.039l-8.6,0.04l-8.162,0.043c-2.646,0.016-5.219,0.029-7.714,0.046
	c-2.495,0.016-4.913,0.032-7.254,0.048c-2.34,0.018-4.604,0.035-6.782,0.053c-2.182,0.018-4.283,0.037-6.303,0.057
	c0,0-6.368,0.105-6.369,0.105l-0.047-0.004c0,0-0.142-0.012-0.144-0.012c0,0-0.23-0.018-0.231-0.018c0,0-0.319-0.021-0.32-0.021
	l-0.403-0.025l-0.486-0.025l-0.566-0.027c-0.201-0.01-0.416-0.018-0.643-0.025c-0.226-0.01-0.464-0.018-0.715-0.023
	c-0.25-0.008-0.512-0.014-0.784-0.02c-0.272-0.006-0.558-0.01-0.853-0.014s-0.6-0.006-0.916-0.008c-0.314,0-0.641,0-0.977,0.002
	c-0.336,0.002-0.68,0.006-1.035,0.012c-0.354,0.006-0.718,0.012-1.09,0.021c-0.373,0.01-0.754,0.021-1.143,0.035
	c-0.39,0.014-0.787,0.029-1.192,0.049s-0.817,0.039-1.237,0.064c-0.421,0.023-0.848,0.051-1.282,0.08
	c-0.435,0.029-0.874,0.062-1.321,0.1c-0.447,0.038-0.9,0.076-1.359,0.119s-0.924,0.09-1.394,0.139
	c-0.47,0.051-0.945,0.105-1.425,0.164c-0.48,0.057-0.965,0.119-1.454,0.186c-0.489,0.067-0.981,0.137-1.479,0.211
	c-0.497,0.076-0.997,0.154-1.501,0.238c-0.504,0.086-1.012,0.174-1.521,0.268c-0.509,0.094-1.023,0.191-1.538,0.297
	c-0.515,0.104-1.032,0.213-1.552,0.326c-0.519,0.115-1.039,0.234-1.562,0.359c-0.522,0.127-1.046,0.258-1.569,0.395
	c-0.524,0.137-1.049,0.279-1.574,0.428c-0.525,0.15-1.051,0.305-1.576,0.467c-0.525,0.16-1.051,0.328-1.576,0.504
	c-0.523,0.174-1.047,0.354-1.57,0.543c-0.522,0.188-1.044,0.383-1.564,0.584c-0.52,0.201-1.037,0.41-1.553,0.627
	c-0.516,0.215-1.029,0.439-1.541,0.67c-0.511,0.23-1.02,0.469-1.523,0.715c-0.506,0.248-1.008,0.502-1.506,0.764
	c-0.498,0.262-0.993,0.531-1.484,0.811c-0.49,0.277-0.977,0.564-1.458,0.859s-0.958,0.6-1.431,0.91
	c-0.472,0.312-0.938,0.635-1.4,0.965c-0.461,0.33-0.916,0.668-1.365,1.016c-0.449,0.35-0.893,0.705-1.329,1.072
	c-0.436,0.367-0.866,0.744-1.29,1.129c-0.422,0.387-0.838,0.781-1.246,1.188c-0.408,0.407-0.809,0.82-1.201,1.246
	c-0.392,0.426-0.775,0.861-1.152,1.307c-0.375,0.447-0.742,0.904-1.1,1.371c-0.359,0.467-0.707,0.943-1.047,1.432
	c-0.34,0.49-0.668,0.988-0.988,1.5c-0.319,0.51-0.629,1.031-0.928,1.564c-0.299,0.533-0.587,1.078-0.864,1.633
	c-0.277,0.557-0.544,1.123-0.798,1.703c-0.255,0.578-0.498,1.17-0.729,1.773c-0.23,0.602-0.449,1.217-0.656,1.844
	c-0.206,0.629-0.399,1.268-0.58,1.92c-0.182,0.652-0.348,1.316-0.502,1.994c-0.154,0.678-0.295,1.367-0.422,2.07
	s-0.238,1.42-0.336,2.15c-0.098,0.729-0.182,1.471-0.25,2.227s-0.121,1.525-0.159,2.309l-0.002,0.064c0,0-0.002,0.062-0.003,0.062
	c0,0-0.002,0.062-0.002,0.064l-0.002,0.062l-0.002,0.062l-0.002,0.064l-0.002,0.062l-0.002,0.064l-0.002,0.062l-0.002,0.064
	l-0.002,0.062l-0.004,0.127c0,0,0,0.064-0.001,0.064l-0.001,0.064l-0.002,0.062l-0.002,0.064l-0.001,0.064l-0.001,0.062
	l-0.002,0.064l-0.001,0.064l-0.001,0.064l-0.002,0.063l-0.001,0.064l-0.001,0.064l-0.001,0.062c0,0-0.001,0.064-0.001,0.066
	l-0.001,0.062c0,0-0.001,0.064-0.001,0.066c0,0,0,0.062,0,0.064l-0.002,0.064v0.064v0.064c0,0-0.001,0.064-0.002,0.064v0.064
	c0,0,0,0.064,0,0.066V281v0.064l-0.001,0.064v0.066v0.262c0,0,0,0.064,0.001,0.064v0.131v0.066v0.066c0,0,0.001,0.064,0.002,0.064
	v0.066v0.066l0.002,0.133l0.002,0.131c0,0,0,0.066,0.001,0.066l0.003,0.133v0.068l0.002,0.066l0.002,0.066l0.001,0.066l0.001,0.066
	l0.028,0.258l0.083,0.762l0.135,1.252l0.188,1.727l0.236,2.189l0.287,2.635l0.335,3.064l0.381,3.484l0.427,3.885l0.469,4.273
	l0.514,4.646l0.553,5.004l0.594,5.35l0.631,5.68l0.67,5.992l0.705,6.293l0.738,6.58l0.772,6.85l0.804,7.105l0.835,7.35l0.864,7.574
	l0.891,7.789l0.918,7.983l0.943,8.17c0.318,2.752,0.641,5.531,0.967,8.338s0.656,5.639,0.988,8.49l1.011,8.633l1.03,8.756
	c0.346,2.939,0.696,5.896,1.049,8.867c0.352,2.975,0.707,5.959,1.064,8.961c0.359,3.002,0.719,6.02,1.082,9.045
	c0.363,3.025,0.729,6.062,1.096,9.109c0.367,3.045,0.738,6.1,1.109,9.162c0.371,3.061,0.744,6.127,1.121,9.197
	c0.75,6.143,1.508,12.299,2.271,18.447c0.382,3.076,0.765,6.15,1.147,9.229c0.385,3.072,0.77,6.139,1.154,9.201
	c0.387,3.061,0.773,6.113,1.16,9.168c0.387,3.047,0.775,6.086,1.163,9.109c0.389,3.029,0.776,6.053,1.165,9.057
	c0.39,3.004,0.779,5.994,1.168,8.971s0.777,5.936,1.166,8.879c0.389,2.941,0.777,5.865,1.165,8.77
	c0.388,2.902,0.774,5.783,1.161,8.645c0.387,2.859,0.773,5.697,1.158,8.508c0.385,2.812,0.77,5.604,1.152,8.355
	c0.382,2.756,0.765,5.484,1.145,8.186c0.381,2.701,0.76,5.369,1.137,8.006c0.379,2.643,0.754,5.24,1.129,7.812
	c0.747,5.139,1.488,10.135,2.22,14.971c0.366,2.42,0.729,4.797,1.091,7.133c0.723,4.672,1.434,9.176,2.135,13.486
	c1.051,6.467,2.075,12.51,3.066,18.061c0.331,1.854,0.658,3.646,0.981,5.389c0.323,1.734,0.644,3.418,0.958,5.041
	c0.314,1.621,0.627,3.184,0.934,4.686c0.307,1.5,0.609,2.939,0.908,4.312c0.298,1.373,0.592,2.684,0.881,3.926
	c0.289,1.244,0.573,2.418,0.854,3.553l0.002,0.088l0.006,0.146l0.008,0.197c0,0,0.014,0.25,0.014,0.252l0.02,0.301l0.026,0.35
	l0.034,0.396l0.043,0.438c0.016,0.154,0.033,0.316,0.052,0.484c0.019,0.17,0.04,0.344,0.063,0.525
	c0.022,0.184,0.047,0.367,0.074,0.562s0.057,0.396,0.088,0.605c0.031,0.209,0.064,0.42,0.102,0.639
	c0.035,0.219,0.074,0.441,0.115,0.674c0.042,0.23,0.086,0.465,0.133,0.705s0.096,0.484,0.148,0.734
	c0.052,0.25,0.107,0.506,0.166,0.764c0.059,0.26,0.12,0.521,0.186,0.791c0.064,0.268,0.133,0.539,0.205,0.812
	c0.071,0.275,0.146,0.557,0.225,0.84c0.08,0.279,0.162,0.566,0.248,0.855c0.086,0.291,0.176,0.582,0.27,0.879
	c0.094,0.295,0.191,0.596,0.294,0.896s0.208,0.604,0.319,0.91c0.109,0.307,0.225,0.609,0.344,0.924
	c0.119,0.311,0.242,0.621,0.371,0.936c0.128,0.314,0.26,0.629,0.398,0.945c0.138,0.312,0.279,0.635,0.428,0.953
	c0.146,0.316,0.299,0.639,0.457,0.961c0.157,0.32,0.32,0.641,0.488,0.963s0.34,0.645,0.52,0.967
	c0.178,0.322,0.361,0.646,0.553,0.967c0.189,0.322,0.385,0.646,0.586,0.969c0.201,0.318,0.407,0.643,0.622,0.963
	c0.213,0.316,0.43,0.641,0.656,0.957c0.225,0.314,0.455,0.637,0.693,0.951c0.236,0.312,0.48,0.631,0.73,0.938
	c0.25,0.312,0.506,0.623,0.77,0.938c0.265,0.311,0.533,0.609,0.81,0.922c0.276,0.305,0.561,0.604,0.852,0.896
	c0.289,0.303,0.586,0.604,0.892,0.896c0.305,0.293,0.616,0.584,0.936,0.871c0.319,0.281,0.645,0.564,0.979,0.85
	c0.331,0.281,0.674,0.559,1.022,0.83c0.348,0.27,0.703,0.541,1.068,0.807c0.362,0.264,0.733,0.525,1.114,0.781
	c0.38,0.256,0.769,0.506,1.162,0.754c0.396,0.246,0.802,0.488,1.213,0.725c0.412,0.238,0.832,0.469,1.266,0.693
	c0.428,0.227,0.861,0.445,1.312,0.66c0.445,0.215,0.9,0.424,1.363,0.627s0.937,0.4,1.416,0.59c0.479,0.191,0.973,0.375,1.471,0.553
	c0.5,0.178,1.009,0.35,1.525,0.514c0.518,0.162,1.045,0.316,1.58,0.469c1.071,0.299,2.184,0.568,3.334,0.805
	c0.571,0.119,1.155,0.23,1.754,0.334c0.594,0.105,1.198,0.197,1.812,0.283c0.615,0.086,1.24,0.162,1.875,0.23
	c0.638,0.068,1.279,0.129,1.938,0.18c0.656,0.051,1.32,0.092,1.998,0.123c0.678,0.033,1.362,0.055,2.062,0.066
	c0.699,0.014,1.537,0.039,2.517,0.078c0.978,0.039,2.091,0.09,3.339,0.154c1.25,0.064,2.633,0.141,4.146,0.229
	c1.52,0.09,3.164,0.189,4.941,0.299c1.776,0.109,3.686,0.23,5.721,0.361c2.033,0.133,4.195,0.273,6.48,0.428
	c2.286,0.148,4.693,0.311,7.229,0.48l7.955,0.535l8.67,0.586l9.367,0.631c3.236,0.219,6.588,0.443,10.049,0.674
	c3.461,0.232,7.031,0.471,10.713,0.711c3.684,0.244,7.47,0.492,11.361,0.746c3.893,0.254,7.894,0.514,11.994,0.775
	s8.307,0.531,12.609,0.803c8.607,0.543,17.615,1.1,27.008,1.668c9.389,0.566,19.152,1.146,29.277,1.727
	c5.062,0.291,10.218,0.584,15.453,0.875c10.479,0.586,21.299,1.172,32.447,1.754c5.574,0.293,11.229,0.582,16.965,0.873
	c5.734,0.289,11.547,0.574,17.438,0.859c11.773,0.572,23.855,1.137,36.223,1.686c6.183,0.271,12.435,0.545,18.754,0.811
	c6.32,0.268,12.709,0.529,19.162,0.787s12.971,0.512,19.553,0.76c6.58,0.248,13.229,0.49,19.931,0.729
	c6.701,0.236,13.468,0.467,20.285,0.689c6.817,0.225,13.696,0.439,20.631,0.65c6.933,0.209,13.919,0.41,20.953,0.605
	c7.038,0.188,14.132,0.381,21.271,0.559c7.139,0.176,14.328,0.346,21.562,0.506c7.234,0.158,14.52,0.309,21.844,0.449
	c7.32,0.139,14.688,0.27,22.102,0.391c7.411,0.119,14.859,0.23,22.35,0.326c22.468,0.293,45.275,0.486,68.359,0.559
	c23.084,0.074,46.441,0.027,69.998-0.154c15.6-0.121,31.283-0.305,47.035-0.551c8.039-0.125,16.094-0.268,24.164-0.428
	c47.406-0.939,95.314-2.492,143.166-4.785c8.854-0.426,17.705-0.877,26.553-1.352c15.107-0.814,30.195-1.705,45.252-2.678
	c16.498-1.064,32.955-2.23,49.35-3.49c47.693-3.684,94.84-8.244,140.854-13.82c0,0,7.734-0.938,7.736-0.938
	c0,0,7.63-0.924,7.63-0.928c0,0,7.521-0.91,7.521-0.91l7.416-0.9l7.312-0.889l7.207-0.877l7.104-0.863l7-0.855l6.898-0.84
	l6.797-0.828l6.692-0.816c0,0,6.597-0.807,6.599-0.807l6.492-0.793l6.396-0.781l6.299-0.771l6.201-0.758c0,0,6.104-0.748,6.104-0.75
	l6.01-0.736l5.913-0.725l5.817-0.715l5.728-0.705l5.634-0.693l5.539-0.682l5.444-0.672l5.356-0.66l5.269-0.65l5.179-0.641
	l5.09-0.631l5-0.619l4.912-0.607l4.823-0.6l4.739-0.59l4.654-0.578l4.569-0.568l4.483-0.561l4.402-0.551l4.317-0.537l4.237-0.531
	l4.158-0.521l4.076-0.51l3.998-0.502l3.918-0.494l3.84-0.479l3.764-0.48l3.688-0.467l3.606-0.455l3.534-0.449l3.459-0.438
	l3.389-0.432l3.312-0.422l3.24-0.414l6.266-0.801l5.982-0.768l2.887-0.371l2.82-0.363l5.436-0.703l5.172-0.672l2.488-0.324
	l4.785-0.627c2.396-0.309,4.729-0.633,6.985-0.975l1.125-0.174l1.112-0.176l1.104-0.182l0.549-0.09l0.543-0.09l0.543-0.092
	c0,0,0.539-0.092,0.539-0.094l0.535-0.092l0.534-0.092l0.526-0.094c0,0,0.444-0.08,0.52-0.094
	c14.604-2.586,29.39-6.256,42.765-12.818c0.37-0.182,0.735-0.357,1.1-0.537c0.359-0.182,0.718-0.357,1.063-0.539
	c0.354-0.182,0.697-0.359,1.037-0.541c0.34-0.184,0.674-0.359,1.004-0.543c0.33-0.182,0.656-0.361,0.978-0.541
	c0.317-0.186,0.636-0.363,0.942-0.545c0.312-0.184,0.615-0.359,0.916-0.543c0.303-0.184,0.599-0.359,0.89-0.543
	c0.291-0.182,0.576-0.359,0.856-0.541c0.281-0.182,0.562-0.357,0.83-0.541c0.272-0.182,0.541-0.357,0.806-0.539
	c0.266-0.182,0.521-0.355,0.774-0.535s0.504-0.355,0.75-0.535s0.485-0.355,0.726-0.531c0.235-0.18,0.471-0.355,0.696-0.531
	c0.229-0.178,0.453-0.354,0.674-0.527c0.224-0.174,0.438-0.352,0.648-0.523c0.211-0.176,0.42-0.352,0.623-0.52
	c0.204-0.174,0.402-0.346,0.602-0.518c0.195-0.174,0.392-0.348,0.576-0.518c0.188-0.172,0.375-0.342,0.558-0.51
	c0.183-0.17,0.356-0.338,0.53-0.504c0.177-0.168,0.345-0.334,0.513-0.5c0.166-0.166,0.326-0.33,0.485-0.494
	c0.158-0.164,0.314-0.328,0.469-0.49c0.151-0.16,0.302-0.32,0.445-0.479c0.146-0.16,0.287-0.318,0.43-0.48
	c0.141-0.156,0.271-0.311,0.404-0.471c0.135-0.156,0.265-0.311,0.392-0.463c0.125-0.154,0.248-0.307,0.368-0.457
	c0.118-0.15,0.234-0.301,0.352-0.449c0.114-0.145,0.225-0.295,0.334-0.439c0.104-0.145,0.213-0.287,0.313-0.434
	c0.104-0.145,0.2-0.283,0.301-0.426c0.097-0.141,0.188-0.279,0.278-0.416c0.095-0.139,0.185-0.271,0.271-0.408
	c0.086-0.135,0.171-0.268,0.25-0.396c0.082-0.131,0.16-0.262,0.234-0.391c0.075-0.127,0.149-0.254,0.223-0.379
	c0.072-0.125,0.142-0.246,0.207-0.369c0.066-0.119,0.131-0.238,0.191-0.354c0.062-0.117,0.123-0.23,0.184-0.352
	c0.058-0.109,0.111-0.227,0.166-0.336c0.056-0.107,0.104-0.219,0.154-0.324c0.051-0.104,0.1-0.211,0.145-0.311
	c0.048-0.105,0.091-0.203,0.134-0.303l0.119-0.289l0.017-0.041c0,0,0.016-0.041,0.016-0.043l0.015-0.041l0.016-0.043l0.015-0.041
	l0.015-0.043c0,0,0.017-0.041,0.019-0.041l0.015-0.045l0.015-0.043l0.016-0.041l0.015-0.045l0.016-0.043l0.016-0.041l0.015-0.043
	l0.016-0.043l0.015-0.043l0.015-0.043l0.014-0.041l0.015-0.043l0.015-0.043l0.016-0.043l0.015-0.043l0.016-0.043l0.013-0.043
	c0,0,0.015-0.041,0.015-0.043l0.016-0.043l0.015-0.041l0.013-0.043l0.016-0.043l0.016-0.045l0.012-0.043l0.016-0.045l0.015-0.043
	l0.013-0.045l0.016-0.043l0.013-0.043l0.015-0.043l0.013-0.045l0.016-0.043l0.013-0.043l0.015-0.043l0.014-0.043l0.015-0.045
	l0.013-0.045l0.013-0.043l0.015-0.047l0.013-0.043l0.013-0.045l0.014-0.043l0.015-0.043l0.013-0.045l0.013-0.043l0.013-0.045
	l0.013-0.043l0.015-0.045l0.014-0.045l0.013-0.043l0.012-0.045l0.013-0.043l0.014-0.045l0.012-0.047l0.013-0.045l0.013-0.043
	l0.014-0.045c0.136-0.521,0.288-1.154,0.463-1.895c0.173-0.738,0.359-1.582,0.568-2.529c0.207-0.945,0.436-1.994,0.678-3.146
	c0.24-1.145,0.5-2.395,0.772-3.734c0.274-1.34,0.565-2.777,0.875-4.312c0.31-1.525,0.63-3.146,0.968-4.855
	c0.34-1.709,0.688-3.506,1.06-5.391c0.366-1.885,0.75-3.852,1.146-5.895c0.396-2.049,0.805-4.178,1.227-6.383
	c0.422-2.207,0.855-4.49,1.306-6.854c0.446-2.354,0.907-4.787,1.381-7.293c0.473-2.502,0.955-5.072,1.449-7.715
	c0.495-2.639,1.002-5.346,1.521-8.115c0.521-2.77,1.047-5.604,1.582-8.496c0.537-2.895,1.088-5.848,1.646-8.854
	c0.558-3.008,1.125-6.072,1.698-9.189c0.576-3.117,1.16-6.289,1.752-9.51c0.595-3.223,1.191-6.488,1.802-9.807l1.849-10.078
	l1.891-10.33l1.926-10.562l1.962-10.77l1.991-10.961l2.02-11.127l2.043-11.271l2.062-11.396l2.076-11.5l2.09-11.582l2.1-11.645
	c0,0,2.104-11.686,2.104-11.688l2.104-11.697l2.104-11.694l2.094-11.676c0,0,2.084-11.625,2.084-11.627l2.069-11.559
	c0,0,2.054-11.471,2.056-11.473l2.03-11.361l2.009-11.23l1.979-11.078l1.946-10.904l1.909-10.711l1.871-10.494l1.826-10.256
	l1.779-9.997l1.729-9.718l1.679-9.416c0,0,1.612-9.093,1.614-9.094c0,0,1.556-8.748,1.558-8.749l1.485-8.384l1.421-7.998
	c0,0,1.35-7.589,1.35-7.59l1.271-7.16c0,0,1.19-6.709,1.19-6.71c0,0,1.104-6.237,1.104-6.238l1.02-5.745l0.929-5.23l0.829-4.695
	c0,0,0.73-4.139,0.732-4.139l0.631-3.561c0,0,0.521-2.96,0.521-2.961l0.414-2.339l0.301-1.698l0.187-1.033l0.062-0.35
	c0,0,0.015-0.061,0.015-0.062c0,0,0.039-0.181,0.041-0.181l0.062-0.296l0.084-0.409l0.103-0.518
	c0.037-0.189,0.076-0.397,0.119-0.621c0.041-0.225,0.086-0.467,0.131-0.725c0.047-0.258,0.096-0.531,0.146-0.821
	c0.051-0.29,0.101-0.595,0.149-0.915c0.053-0.32,0.104-0.656,0.158-1.006c0.053-0.351,0.104-0.715,0.159-1.094
	c0.056-0.378,0.108-0.77,0.162-1.176c0.056-0.405,0.108-0.824,0.162-1.256c0.053-0.432,0.104-0.875,0.155-1.33
	c0.054-0.457,0.104-0.924,0.15-1.404c0.049-0.479,0.098-0.971,0.145-1.473c0.046-0.502,0.091-1.014,0.132-1.537
	c0.041-0.522,0.079-1.056,0.116-1.598c0.035-0.543,0.068-1.096,0.103-1.657c0.032-0.562,0.061-1.131,0.084-1.71
	c0.022-0.578,0.046-1.166,0.063-1.762c0.018-0.594,0.027-1.196,0.037-1.807c0.011-0.609,0.016-1.228,0.016-1.851
	c-0.002-0.624-0.007-1.254-0.02-1.89c-0.021-1.273-0.062-2.57-0.125-3.885c-0.032-0.658-0.071-1.32-0.116-1.987
	c-0.046-0.667-0.099-1.338-0.153-2.013c-0.061-0.674-0.123-1.352-0.195-2.032c-0.067-0.681-0.147-1.364-0.235-2.052
	c-0.173-1.371-0.377-2.754-0.614-4.14c-0.119-0.692-0.246-1.388-0.384-2.082c-0.14-0.694-0.28-1.39-0.438-2.085
	c-0.154-0.695-0.316-1.391-0.492-2.085c-0.172-0.694-0.354-1.388-0.549-2.081c-0.19-0.691-0.396-1.383-0.606-2.072l-1.412-4.107
	c-0.256-0.68-0.524-1.355-0.808-2.028c-0.278-0.673-0.569-1.341-0.877-2.005c-0.305-0.664-0.619-1.324-0.946-1.979
	c-0.328-0.655-0.671-1.306-1.024-1.95c-0.354-0.645-0.722-1.283-1.104-1.916c-0.383-0.633-0.773-1.26-1.186-1.869
	c-0.408-0.62-0.828-1.233-1.265-1.839c-0.438-0.606-0.888-1.205-1.354-1.795c-0.465-0.59-0.941-1.173-1.438-1.747
	c-0.494-0.574-1.004-1.14-1.528-1.695c-0.521-0.556-1.062-1.104-1.618-1.641c-0.559-0.538-1.13-1.065-1.718-1.582
	c-0.589-0.517-1.19-1.024-1.812-1.52s-1.262-0.981-1.914-1.454s-1.326-0.934-2.018-1.383c-0.688-0.45-1.396-0.887-2.121-1.311
	c-0.725-0.425-1.467-0.836-2.228-1.234c-0.763-0.398-1.541-0.782-2.338-1.152c-0.8-0.371-1.614-0.729-2.451-1.07
	c-0.836-0.341-1.688-0.668-2.563-0.98s-1.768-0.609-2.682-0.891c-0.914-0.28-1.85-0.545-2.804-0.794
	c-0.953-0.249-1.929-0.481-2.925-0.696c-0.993-0.215-2.014-0.412-3.049-0.593c-1.037-0.181-2.098-0.343-3.178-0.487L1920,60.065
	l-3.209-0.426l-3.186-0.421l-3.164-0.415l-3.142-0.409l-3.112-0.405l-3.091-0.399l-3.062-0.394l-3.032-0.388L1892,56.425
	l-2.976-0.377l-2.942-0.371l-2.912-0.366l-2.881-0.36l-2.847-0.354l-2.812-0.349l-2.776-0.343l-2.736-0.336l-2.702-0.33
	l-2.664-0.324l-2.625-0.318l-2.584-0.312L1856,51.98l-2.502-0.3l-2.457-0.293l-2.414-0.286l-2.369-0.281l-2.324-0.273l-2.272-0.268
	l-2.229-0.26l-2.18-0.254l-2.131-0.247l-2.08-0.241l-2.027-0.232l-1.977-0.228l-1.923-0.22l-1.866-0.213l-1.812-0.205l-1.757-0.199
	l-1.697-0.191l-1.644-0.184c0,0-1.579-0.178-1.582-0.178l-1.52-0.17l-1.462-0.162l-1.397-0.155l-1.336-0.147l-1.271-0.14
	l-1.205-0.133l-1.144-0.125l-1.071-0.116l-1.011-0.11l-0.938-0.102l-0.867-0.094l-0.799-0.087l-0.726-0.077l-0.653-0.069
	l-0.58-0.062l-0.506-0.055l-0.433-0.045l-0.354-0.038l-0.276-0.028l-0.197-0.021l-0.119-0.013l-0.041-0.005l-0.028-0.005
	l-0.084-0.015l-0.14-0.023l-0.192-0.03l-0.246-0.037l-0.299-0.043l-0.349-0.048l-0.396-0.053l-0.442-0.055l-0.492-0.057
	l-0.538-0.057l-0.582-0.059c-0.201-0.02-0.41-0.038-0.625-0.057c-0.216-0.02-0.438-0.037-0.668-0.056
	c-0.229-0.019-0.466-0.035-0.709-0.052c-0.242-0.018-0.492-0.033-0.748-0.049c-0.257-0.016-0.519-0.031-0.787-0.045
	c-0.27-0.014-0.543-0.027-0.822-0.039c-0.28-0.012-0.567-0.021-0.86-0.031c-0.293-0.01-0.592-0.018-0.896-0.025
	c-0.306-0.007-0.612-0.012-0.933-0.016c-0.312-0.004-0.637-0.008-0.963-0.008c-0.326-0.001-0.658,0-0.994,0.004
	c-0.338,0.002-0.68,0.006-1.024,0.014c-0.349,0.007-0.696,0.016-1.056,0.025c-0.355,0.012-0.719,0.025-1.084,0.04
	c-0.364,0.015-0.735,0.033-1.108,0.054c-0.375,0.02-0.754,0.043-1.138,0.068c-0.383,0.025-0.77,0.053-1.159,0.084
	c-0.391,0.031-0.785,0.064-1.187,0.102c-0.397,0.036-0.803,0.076-1.205,0.118c-0.406,0.042-0.815,0.089-1.229,0.138
	c-0.411,0.049-0.827,0.102-1.248,0.156c-0.42,0.057-0.842,0.115-1.269,0.178c-0.424,0.063-0.854,0.129-1.282,0.199
	c-0.433,0.07-0.865,0.145-1.304,0.223c-0.438,0.077-0.875,0.159-1.315,0.244c-0.438,0.086-0.885,0.176-1.329,0.271
	c-0.443,0.094-0.896,0.192-1.345,0.295c-0.448,0.103-0.899,0.209-1.354,0.32s-0.91,0.228-1.367,0.348
	c-0.457,0.121-0.916,0.246-1.375,0.377c-0.461,0.13-0.922,0.265-1.385,0.404c-0.463,0.141-0.927,0.285-1.394,0.436
	c-0.465,0.151-0.933,0.305-1.396,0.466c-0.466,0.161-0.937,0.326-1.401,0.497c-0.47,0.172-0.938,0.35-1.406,0.531
	c-0.471,0.182-0.938,0.371-1.407,0.564s-0.938,0.393-1.41,0.599c-0.474,0.206-0.938,0.417-1.41,0.635
	c-0.471,0.218-0.938,0.44-1.41,0.671c-0.469,0.23-0.938,0.467-1.407,0.709c-0.468,0.242-0.937,0.491-1.402,0.746
	c-0.469,0.256-0.936,0.518-1.397,0.787c-0.467,0.269-0.932,0.544-1.396,0.826c-0.466,0.283-0.93,0.572-1.391,0.868
	c-0.462,0.296-0.923,0.6-1.38,0.91c-0.459,0.31-0.916,0.628-1.37,0.953c-0.455,0.325-0.907,0.657-1.359,0.997
	c-0.45,0.34-0.899,0.688-1.35,1.043c-0.448,0.354-0.896,0.717-1.339,1.088c-0.441,0.37-0.885,0.748-1.321,1.135
	c-0.438,0.387-0.875,0.779-1.31,1.183c-0.437,0.402-0.862,0.812-1.291,1.231c-0.43,0.419-0.893,0.857-1.387,1.316
	c-0.494,0.457-1.023,0.935-1.59,1.431c-0.562,0.496-1.16,1.011-1.791,1.544c-0.632,0.532-1.298,1.082-1.996,1.65
	c-0.697,0.568-1.435,1.152-2.199,1.755c-0.769,0.603-1.569,1.22-2.406,1.854c0,0-5.426,3.993-5.426,3.994l-6.248,4.347
	c-1.11,0.752-2.257,1.518-3.438,2.295c-1.179,0.779-2.394,1.569-3.642,2.373c-1.248,0.803-2.529,1.617-3.849,2.443
	c-1.315,0.826-2.668,1.664-4.057,2.513c-1.386,0.849-2.808,1.707-4.263,2.577c-1.455,0.868-2.944,1.748-4.473,2.637
	c-1.524,0.889-3.084,1.786-4.681,2.693c-4.782,2.721-9.88,5.52-15.289,8.379c-3.604,1.906-7.354,3.84-11.239,5.795
	c-1.941,0.979-3.922,1.961-5.938,2.949c-2.014,0.988-4.062,1.98-6.146,2.978s-4.203,1.998-6.356,3.002
	c-2.151,1.005-4.343,2.013-6.565,3.022c-2.226,1.012-4.482,2.025-6.779,3.041c-2.296,1.016-4.625,2.033-6.99,3.052
	c-1.438,0.62-2.917,1.241-4.383,1.862l-10.862,4.517c-2.309,0.938-4.638,1.878-7.005,2.815c-2.578,1.023-5.192,2.044-7.843,3.064
	c-2.649,1.021-5.337,2.041-8.059,3.058c-2.722,1.018-5.478,2.033-8.271,3.046c-2.791,1.014-5.619,2.024-8.483,3.031
	c-2.862,1.008-5.763,2.013-8.696,3.014c-2.938,1-5.904,1.997-8.911,2.989c-3.01,0.993-6.053,1.98-9.13,2.964
	c-3.077,0.982-6.191,1.96-9.345,2.932c-3.15,0.972-6.339,1.938-9.562,2.897c-3.224,0.96-6.479,1.913-9.774,2.858
	c-3.293,0.946-6.625,1.885-9.99,2.816c-3.365,0.932-6.771,1.855-10.209,2.77c-3.438,0.916-6.913,1.822-10.426,2.719
	c-3.513,0.898-7.06,1.787-10.646,2.665c-3.582,0.879-7.203,1.747-10.859,2.606c-7.312,1.717-14.771,3.393-22.377,5.021
	c-3.803,0.813-7.641,1.616-11.516,2.406s-7.787,1.568-11.736,2.332c-3.946,0.766-7.932,1.517-11.952,2.254
	c-4.021,0.738-8.08,1.463-12.175,2.173c-4.096,0.71-8.229,1.405-12.396,2.086s-8.373,1.347-12.61,1.995
	c-4.242,0.65-8.521,1.284-12.838,1.902c-4.312,0.617-8.668,1.219-13.058,1.803s-8.812,1.152-13.276,1.702
	c-4.462,0.55-8.962,1.081-13.498,1.595c-9.072,1.027-18.296,1.982-27.662,2.857c-4.688,0.438-9.406,0.855-14.166,1.254
	c-4.763,0.397-9.558,0.775-14.392,1.131c-4.834,0.357-9.703,0.692-14.608,1.006c-4.908,0.314-9.854,0.607-14.838,0.877
	c-4.98,0.27-10,0.535-15.054,0.796c-5.054,0.261-10.14,0.517-15.259,0.769c-5.116,0.251-10.269,0.498-15.448,0.74
	c-5.183,0.243-10.394,0.48-15.634,0.715c-5.237,0.234-10.508,0.463-15.803,0.688s-10.615,0.446-15.962,0.663
	c-5.35,0.217-10.721,0.43-16.11,0.638c-5.396,0.208-10.812,0.413-16.25,0.613c-5.438,0.2-10.896,0.396-16.375,0.589
	c-5.479,0.193-10.976,0.381-16.489,0.565c-5.516,0.184-11.047,0.365-16.597,0.542c-5.547,0.178-11.11,0.352-16.688,0.521
	c-5.577,0.169-11.17,0.335-16.771,0.498c-5.604,0.163-11.217,0.321-16.842,0.477c-5.625,0.156-11.263,0.308-16.901,0.456
	c-5.646,0.148-11.295,0.293-16.953,0.435c-5.656,0.142-11.319,0.28-16.987,0.415c-5.669,0.135-11.343,0.267-17.019,0.396
	c-5.677,0.129-11.354,0.255-17.031,0.377c-5.68,0.122-11.356,0.241-17.039,0.358c-5.678,0.116-11.354,0.229-17.028,0.34
	c-22.698,0.442-45.354,0.838-67.843,1.193c-5.623,0.089-11.233,0.175-16.836,0.259c-11.199,0.167-22.353,0.325-33.438,0.474
	c-5.545,0.074-11.071,0.146-16.584,0.215c-8.056,0.103-16.058,0.198-24.027,0.29"/>
</svg>
