<?xml version="1.0" encoding="utf-8"?>
<!-- Generator: Adobe Illustrator 16.0.0, SVG Export Plug-In . SVG Version: 6.00 Build 0)  -->
<!DOCTYPE svg PUBLIC "-//W3C//DTD SVG 1.1//EN" "http://www.w3.org/Graphics/SVG/1.1/DTD/svg11.dtd">
<svg version="1.1" id="Layer_1" xmlns="http://www.w3.org/2000/svg" xmlns:xlink="http://www.w3.org/1999/xlink" x="0px" y="0px"
	 width="1121.309px" height="617.691px" viewBox="0 0 1121.309 617.691" enable-background="new 0 0 1121.309 617.691"
	 xml:space="preserve">
<path d="M1120.64,554.283c-2.51-14.947-14.635-40.605-27.471-64.136c-17.421-31.584-35.339-64.834-58.722-104.566
	c-22.989-39.746-59.396-100.407-88.035-148.836c-28.562-48.07-68.198-107.854-96.491-150.689
	c-8.601-13.046-16.269-23.984-29.769-41.713c-16.22-21.563-39.023-18.493-58.691-17.753c-27.57,1.556-51.316,1.972-93.869,1.332
	c-44.683-0.646-74.203,0.591-136.104-1.97c-62.154-2.606-87.95-4.512-131.806-5.602c-44.23-1.237-68.229-1.026-94.275-2.976
	c-25.831-1.811-68.429-5.581-104.925-8.19c-39.836-2.864-59.812-4.428-98.398-7.137C68.095-0.41,55.566-1.329,37.171,3.178
	C18.899,7.788,11.088,16.119,2.425,33.565c-6.571,13.452,1.094,38.639,12.447,64.871c12.519,29.577,25.213,54.036,37.824,83.649
	c13.821,31.991,31.973,75.923,47.372,111.31c15.479,35.037,29.955,65.479,49.375,111.212c16.6,38.636,31.247,76.948,48.027,102.279
	c18.032,27.453,36.932,44.219,59.746,61.999c22.703,17.36,51.354,26.979,76.59,31.183c25.87,4.392,64.908,7.766,100.751,10.505
	c35.892,2.479,60.032,1.183,97.995,4.088c37.916,2.611,94.938,3.938,129.416,2.328c34.473-1.614,78.983,1.855,127.006-0.623
	c44.373-2.367,124.82-3.438,160.834-4.234c38.902-1.209,98.721-6.387,122.84-7.204c24.766-0.782,35.49-6.078,41.049-13.099
	C1120.401,583.67,1122.55,568.396,1120.64,554.283z"/>
</svg>
