<?xml version="1.0" encoding="utf-8"?>
<!-- Generator: Adobe Illustrator 16.0.0, SVG Export Plug-In . SVG Version: 6.00 Build 0)  -->
<!DOCTYPE svg PUBLIC "-//W3C//DTD SVG 1.1//EN" "http://www.w3.org/Graphics/SVG/1.1/DTD/svg11.dtd">
<svg version="1.1" id="Layer_1" xmlns="http://www.w3.org/2000/svg" xmlns:xlink="http://www.w3.org/1999/xlink" x="0px" y="0px"
	 width="1076.938px" height="143.25px" viewBox="0 0 1076.938 143.25" enable-background="new 0 0 1076.938 143.25"
	 xml:space="preserve">
<path fill="none" stroke="#000000" stroke-linejoin="round" stroke-miterlimit="10" d="M1002.641,32.386
	c-4.312-0.858-8.139-0.815-8.139-0.815L517.18,31.275l0.003,0.197L20.426,31.181c0,0-34.326-0.415-13.981,23.579
	c20.346,23.995,52.719,72.292,52.719,72.292s15.035,16.222,42.736,15.904c13.553-0.154,214.755-2.752,416.756-5.365
	c193.748,2.781,382.533,5.488,395.543,5.654c27.245,0.348,42.056-15.854,42.056-15.854s31.916-48.262,51.963-72.229
	c0.454-0.544,0.881-1.075,1.282-1.594c3.515-2.245,7.703-5.08,11.938-2.875l-0.002,0.001c5.716,7.113,14.486,11.667,24.321,11.667
	c17.222,0,31.182-13.96,31.182-31.181c0-17.221-13.96-31.181-31.182-31.181c-16.524,0-30.048,12.855-31.112,29.111
	c-2.141,5.185-7.613,3.812-12.002,3.277L1002.641,32.386z"/>
</svg>
