<?xml version="1.0" encoding="utf-8"?>
<!-- Generator: Adobe Illustrator 16.0.0, SVG Export Plug-In . SVG Version: 6.00 Build 0)  -->
<!DOCTYPE svg PUBLIC "-//W3C//DTD SVG 1.1//EN" "http://www.w3.org/Graphics/SVG/1.1/DTD/svg11.dtd">
<svg version="1.1" id="Layer_1" xmlns="http://www.w3.org/2000/svg" xmlns:xlink="http://www.w3.org/1999/xlink" x="0px" y="0px"
	 width="1306.772px" height="640.773px" viewBox="0 0 1306.772 640.773" enable-background="new 0 0 1306.772 640.773"
	 xml:space="preserve">
<path fill="none" stroke="#000000" stroke-linejoin="round" stroke-miterlimit="10" d="M1237.83,571.123
	c-15.473-64.41-107.328-208.459-135.113-251.074c-49.336-75.674-155.443-219.72-188.512-263.631
	C893.041,28.323,793.389,13.054,688.852,0.739l-0.727-0.085l-0.727,0.1c-1.324,0.19-2.746,0.151-4.229-0.109
	c-31.795-5.601-39.078,26.806-41.471,37.456c-0.986,4.385-1.74,8.681-2.41,12.472c-3.531,20.043-23.642,121.136-35.167,174.087
	c-0.444,2.051-0.883,4.04-1.318,5.973c-5.182,23.057-9.707,37.682-17.502,44.213c-7.185,6.02-18.592,6.441-40.68,1.509
	c-38.025-8.496-228.188-38.134-308.185-50.483l-3.613-0.557l-1.997,3.059c-11.321,17.332-24.371,34.781-36.993,51.656
	c-3.229,4.317-6.413,8.576-9.519,12.765C148.578,340.992,52.618,412.796,14.545,425.101c-3.122,1.01-12.621,4.078-14.3,11.551
	c-0.458,2.033-0.498,5.221,1.911,8.836c13.177,19.783,97.499,39.291,145.245,47.699c18.012,3.174,43.157,7.787,72.272,13.131
	c116.642,21.4,311.864,57.223,467.137,77.348c211.279,27.387,472.406,57.975,512.996,54.041c24.174-2.346,40.143-3.891,43.838-20.32
	C1245.799,607.796,1243.264,593.73,1237.83,571.123z"/>
</svg>
