<?xml version="1.0" encoding="utf-8"?>
<!-- Generator: Adobe Illustrator 16.0.0, SVG Export Plug-In . SVG Version: 6.00 Build 0)  -->
<!DOCTYPE svg PUBLIC "-//W3C//DTD SVG 1.1//EN" "http://www.w3.org/Graphics/SVG/1.1/DTD/svg11.dtd">
<svg version="1.1" id="Layer_1" xmlns="http://www.w3.org/2000/svg" xmlns:xlink="http://www.w3.org/1999/xlink" x="0px" y="0px"
	 width="513.976px" height="714.445px" viewBox="0 0 513.976 714.445" enable-background="new 0 0 513.976 714.445"
	 xml:space="preserve">
<path fill="none" stroke="#000000" stroke-linejoin="round" stroke-miterlimit="10" d="M37.12,652.648
	c-1.922-0.371-3.908-0.565-5.938-0.565C13.96,652.083,0,666.043,0,683.264c0,17.222,13.96,31.183,31.181,31.183
	c17.221,0,31.181-13.961,31.181-31.183c0-6.957-2.278-13.382-6.13-18.567c0.324-2.934,3.477-4.062,5.75-5.202
	c4.481-0.475,8.924-1.686,13.259-2.826c12.014-3.693,23.62-8.551,35.312-13.186c23.398-9.535,44.514-23.998,63.17-40.91
	c39.218-40.129,78.345-80.434,116.444-121.693c19.689-21.812,40.225-43.129,55.953-68.133
	c18.385-28.992,33.848-59.791,47.203-91.394C428.845,229.839,464,138.231,500.177,46.999c4.559-12.243,10.77-23.954,13.471-36.863
	c0.969-3.265-0.217-7.326-3.441-8.767c-4.127-1.954-8.891-1.285-13.287-1.147C398.074,8.49,299.154,16.442,200.31,24.665
	c-6.107,0.184-12.438,2.633-15.957,7.835c-3.157,3.739-2.731,8.958-3.722,13.447c-14.469,69.896-29.142,139.753-43.667,209.632
	c-3.342,15.584-7.419,30.97-11.083,46.523c-22.748,93.025-45.444,186.102-68.563,279.096c-4.257,17.236-8.68,34.477-13.109,51.75
	c-0.725,4.788-2.055,9.918-1.418,14.814C42.028,650.463,39.909,652.294,37.12,652.648z"/>
</svg>
