<?xml version="1.0" encoding="utf-8"?>
<!-- Generator: Adobe Illustrator 16.0.0, SVG Export Plug-In . SVG Version: 6.00 Build 0)  -->
<!DOCTYPE svg PUBLIC "-//W3C//DTD SVG 1.1//EN" "http://www.w3.org/Graphics/SVG/1.1/DTD/svg11.dtd">
<svg version="1.1" id="Layer_1" xmlns="http://www.w3.org/2000/svg" xmlns:xlink="http://www.w3.org/1999/xlink" x="0px" y="0px"
	 width="2043.672px" height="731.479px" viewBox="0 0 2043.672 731.479" enable-background="new 0 0 2043.672 731.479"
	 xml:space="preserve">
<path fill="none" stroke="#000000" stroke-miterlimit="10" d="M1260.842,633.863c-46.877-6.607-688.783-61.037-881.997-188.156
	l-25.754-16.796c0,0-129.881-71.037-176.076-249.077l-0.02,0.011c0,0-22.994-90.044-34.896-103.528
	c-0.456-0.43-0.92-0.851-1.391-1.267c-0.611-0.419-1.085-0.825-1.438-1.223c-7.358-6.045-16.598-10.326-28.209-11.457l-84.256,1.92
	c0,0-40.921,5.046-21.644,66.909C24.439,193.062,70.516,544.49,279.459,596.51c208.944,52.021,51.781,27.649,593.414,86.082
	c408.196,44.036,460.795,47.328,461.938,46.278c13.408,2.985,48.938,8.874,22.678-19.788
	C1325.577,674.252,1307.719,640.469,1260.842,633.863z M2042.379,568.969l-9.842-244.079c0,0,1.424-33.207-37.299-34.408
	c-38.725-1.202-218.156,1.89-218.156,1.89s-48.875-13.223,2.035-18.038c50.912-4.815,180.645-7.284,180.645-7.284
	s42.305-12.757,8.598-26.589c-33.705-13.835-262.926-115.091-596.462-234.24l-13.297-4.3c0,0-53.065-14.435-15.13,35.832
	c37.939,50.267,91.307,123.393,93.436,141.953c0,0-9.105-3.085-14.927-10.449c-5.821-7.363-82.226-103.733-110.64-123.307
	c-28.414-19.574-39.889-30.16-78.668-32.74c-38.778-2.581-337.308-7.117-541.453-0.267c-204.145,6.851-332.44,10.642-332.44,10.642
	S234.229,34.819,206.883,75.978c-27.347,41.16-30.582,97.92,19.417,173.253c49.998,75.332,124.451,209.071,322.381,253.575
	c197.933,44.507,232.905,55.525,232.905,55.525s58.972,23.867,72.807-9.841c13.834-33.708,129.488-248.318,129.488-248.318
	L876.289,543.465c0,0-15.438,28.247,16.447,31.104c31.883,2.855,153.684,8.995,167.526,9.814
	c13.85,0.823,39.548-12.643,50.41-17.225c10.865-4.582,292.854-170.646,292.854-170.646l-208.184,146.519
	c0,0-32.975,38.623,7.02,37.011c39.987-1.613,784.797,23.597,784.797,23.597S2053.684,609.243,2042.379,568.969z"/>
</svg>
