<?xml version="1.0" encoding="utf-8"?>
<!-- Generator: Adobe Illustrator 16.0.0, SVG Export Plug-In . SVG Version: 6.00 Build 0)  -->
<!DOCTYPE svg PUBLIC "-//W3C//DTD SVG 1.1//EN" "http://www.w3.org/Graphics/SVG/1.1/DTD/svg11.dtd">
<svg version="1.1" id="Layer_1" xmlns="http://www.w3.org/2000/svg" xmlns:xlink="http://www.w3.org/1999/xlink" x="0px" y="0px"
	 width="2077.09px" height="726.701px" viewBox="0 0 2077.09 726.701" enable-background="new 0 0 2077.09 726.701"
	 xml:space="preserve">
<path fill="none" stroke="#000000" stroke-miterlimit="10" d="M954.999,577.907c-31.698-29.03-236.038-184.822-236.038-184.822
	L987.494,556.5c0,0,12.295,14.825,38.521,15.28c26.228,0.455,179.894-3.08,179.894-3.08s19.012,3.081,7.779-30.865
	c-11.229-33.946-91.529-223.198-91.529-223.198l115.352,230.584c0,0,7.039,18.567,27.451,14.658
	c16.032-3.067,263.994-31.825,417.782-117.67c13.571-4.934,32.116-16.854,57.219-38.672c0.446-0.389,0.878-0.777,1.323-1.167
	c3.852-3.272,7.595-6.594,11.148-9.993c128.479-118.274,137.33-234.414,137.33-234.414l-0.029,0.026
	c5.067-42.641-9.617-81.34-65.613-100.995c0,0-115.184-34.701-395.562-40.262C1148.186,11.176,900.02,7.41,900.02,7.41
	s-49.266-3.761-89.424,28.326c-40.154,32.087-120.646,99.276-133.067,140.99l0.284-23.206c0,0,55.44-88.786,88.328-117.238
	c0,0,39.047-48.301-20.345-33.444c-59.39,14.857-487.339,129.785-596.187,234.771C40.764,342.594,13.796,391.571,9.085,439.773
	c-4.711,48.196-9.083,90.358-9.083,90.358s-1.25,58.492,57.354,57.728c58.604-0.77,483.817-21.447,576.528-18.289
	c92.713,3.153,293.767,28.014,293.767,28.014S986.695,606.938,954.999,577.907z M2050.832,79.229l-84.217-3.167
	c-11.627,0.959-20.928,5.102-28.375,11.039c-0.36,0.393-0.839,0.792-1.457,1.202c-0.479,0.408-0.947,0.822-1.409,1.246
	c-12.101,13.306-36.425,102.999-36.425,102.999l-0.021-0.011c-48.825,177.336-179.742,246.445-179.742,246.445l-26,16.41
	C1498.113,579.64,855.472,624.566,808.501,630.479c-46.968,5.911-65.323,39.43-97.747,73.78
	c-26.682,28.271,8.931,22.908,22.382,20.121c1.127,1.067,53.771-1.445,462.572-39.438c542.438-50.41,384.933-28.369,594.623-77.291
	c209.688-48.923,260.961-399.631,281.151-461.203C2091.674,84.878,2050.832,79.229,2050.832,79.229z"/>
</svg>
