<?xml version="1.0" encoding="utf-8"?>
<!-- Generator: Adobe Illustrator 16.0.0, SVG Export Plug-In . SVG Version: 6.00 Build 0)  -->
<!DOCTYPE svg PUBLIC "-//W3C//DTD SVG 1.1//EN" "http://www.w3.org/Graphics/SVG/1.1/DTD/svg11.dtd">
<svg version="1.1" id="Layer_1" xmlns="http://www.w3.org/2000/svg" xmlns:xlink="http://www.w3.org/1999/xlink" x="0px" y="0px"
	 width="2077.09px" height="726.701px" viewBox="0 0 2077.09 726.701" enable-background="new 0 0 2077.09 726.701"
	 xml:space="preserve">
<path fill="none" stroke="#000001" stroke-linejoin="round" stroke-miterlimit="10" d="M1870.825,86.344
	c-10.517-11.93-25.706-21.979-46.704-29.349c0,0-115.184-34.701-395.562-40.262C1148.186,11.176,900.02,7.41,900.02,7.41
	s-49.266-3.761-89.424,28.326c-40.154,32.087-120.646,99.276-133.067,140.99l0.284-23.206c0,0,55.44-88.786,88.328-117.238
	c0,0,39.047-48.301-20.345-33.444c-59.39,14.857-487.339,129.785-596.187,234.771C40.764,342.594,13.796,391.571,9.085,439.773
	c-4.711,48.196-9.083,90.358-9.083,90.358s-1.25,58.492,57.354,57.728c55.961-0.734,446.21-19.623,562.02-18.575
	c45.167,0.001,81.715,67.304,81.715,150.478l0.013-0.04c-0.611,10.288,21.944,6.749,32.032,4.658
	c1.127,1.067,53.771-1.445,462.572-39.438c542.438-50.41,384.933-28.369,594.623-77.291
	c209.688-48.923,260.961-399.631,281.151-461.203c20.191-61.57-20.65-67.219-20.65-67.219l-84.217-3.167
	c-1.098,0.09-2.175,0.209-3.23,0.358c-7.854,0-14.208-4.716-14.207-10.543c0.116-1.094,0.176-2.205,0.176-3.329
	c0-17.221-13.96-31.181-31.181-31.181s-31.181,13.96-31.181,31.181c0,5.787,3.671,12.57-0.945,17.541
	c-2.259,2.432-5.438,4.394-8.623,5.307c-2.101,0.602-4.451,0.907-6.637,0.907L1870.825,86.344z"/>
</svg>
