<?xml version="1.0" encoding="utf-8"?>
<!-- Generator: Adobe Illustrator 16.0.0, SVG Export Plug-In . SVG Version: 6.00 Build 0)  -->
<!DOCTYPE svg PUBLIC "-//W3C//DTD SVG 1.1//EN" "http://www.w3.org/Graphics/SVG/1.1/DTD/svg11.dtd">
<svg version="1.1" id="Layer_1" xmlns="http://www.w3.org/2000/svg" xmlns:xlink="http://www.w3.org/1999/xlink" x="0px" y="0px"
	 width="2077.088px" height="726.703px" viewBox="0 0 2077.088 726.703" enable-background="new 0 0 2077.088 726.703"
	 xml:space="preserve">
<path d="M954.996,577.908c-31.695-29.03-236.035-184.822-236.035-184.822l268.53,163.415c0,0,12.295,14.825,38.521,15.28
	c26.225,0.455,179.891-3.08,179.891-3.08s19.015,3.081,7.782-30.865s-91.532-223.198-91.532-223.198l115.354,230.584
	c0,0,7.039,18.567,27.451,14.658c16.029-3.067,263.994-31.825,417.779-117.67c13.571-4.934,32.116-16.854,57.222-38.672
	c0.443-0.389,0.878-0.777,1.32-1.167c3.854-3.272,7.598-6.594,11.15-9.993c128.479-118.274,137.331-234.414,137.331-234.414
	l-0.032,0.026c5.07-42.641-9.614-81.34-65.61-100.995c0,0-115.185-34.701-395.562-40.262C1148.185,11.177,900.02,7.411,900.02,7.411
	s-49.266-3.761-89.424,28.326c-40.157,32.087-120.646,99.276-133.07,140.99l0.286-23.206c0,0,55.441-88.786,88.329-117.238
	c0,0,39.047-48.301-20.345-33.444C686.404,17.696,258.457,132.624,149.608,237.61C40.764,342.595,13.796,391.57,9.085,439.774
	c-4.711,48.196-9.083,90.358-9.083,90.358s-1.25,58.492,57.354,57.728c58.604-0.77,483.817-21.447,576.528-18.289
	c92.713,3.153,293.764,28.014,293.764,28.014S986.695,606.938,954.996,577.908z M2050.832,79.23l-84.22-3.167
	c-11.627,0.959-20.928,5.102-28.375,11.039c-0.357,0.393-0.839,0.792-1.457,1.202c-0.478,0.408-0.944,0.822-1.409,1.246
	c-12.101,13.306-36.425,102.999-36.425,102.999l-0.02-0.011c-48.825,177.336-179.742,246.445-179.742,246.445l-26,16.411
	C1498.114,579.641,855.472,624.567,808.5,630.479c-46.97,5.911-65.322,39.43-97.747,73.78
	c-26.684,28.271,8.932,22.908,22.383,20.121c1.127,1.067,53.77-1.445,462.571-39.438c542.438-50.41,384.934-28.369,594.623-77.291
	c209.688-48.923,260.961-399.631,281.149-461.202C2091.674,84.879,2050.832,79.23,2050.832,79.23z"/>
</svg>
