<?xml version="1.0" encoding="utf-8"?>
<!-- Generator: Adobe Illustrator 16.0.0, SVG Export Plug-In . SVG Version: 6.00 Build 0)  -->
<!DOCTYPE svg PUBLIC "-//W3C//DTD SVG 1.1//EN" "http://www.w3.org/Graphics/SVG/1.1/DTD/svg11.dtd">
<svg version="1.1" id="Layer_1" xmlns="http://www.w3.org/2000/svg" xmlns:xlink="http://www.w3.org/1999/xlink" x="0px" y="0px"
	 width="788.148px" height="429.912px" viewBox="0 0 788.148 429.912" enable-background="new 0 0 788.148 429.912"
	 xml:space="preserve">
<path d="M96.546,1.943C285.07-1.905,473.974,1.701,662.874,0.238c46.188-2.674,94.638,17.306,113.558,50.996
	c14.002,20.872,10.211,45.614,11.719,68.57c-0.771,74.529,0.342,149.061-0.434,223.587c-0.771,46.508-53.775,88.235-113.589,85.845
	c-189.28,1.164-378.562,0.539-567.844,0.215C48.743,427.351-1.974,386.205,1.066,340.295C-0.806,255.926,0.351,171.26,0.371,86.894
	C1.517,45.453,43.546,6.108,96.546,1.943z"/>
</svg>
