<?xml version="1.0" encoding="utf-8"?>
<!-- Generator: Adobe Illustrator 16.0.0, SVG Export Plug-In . SVG Version: 6.00 Build 0)  -->
<!DOCTYPE svg PUBLIC "-//W3C//DTD SVG 1.1//EN" "http://www.w3.org/Graphics/SVG/1.1/DTD/svg11.dtd">
<svg version="1.1" id="Layer_1" xmlns="http://www.w3.org/2000/svg" xmlns:xlink="http://www.w3.org/1999/xlink" x="0px" y="0px"
	 width="839.576px" height="429.911px" viewBox="0 0 839.576 429.911" enable-background="new 0 0 839.576 429.911"
	 xml:space="preserve">
<path fill="none" stroke="#000000" stroke-linejoin="round" stroke-miterlimit="10" d="M96.547,1.944
	c188.525-3.848,377.427-0.242,566.329-1.705c46.186-2.674,94.635,17.306,113.555,50.996c14.002,20.872,10.211,45.614,11.721,68.57
	c-0.773,74.529,0.342,149.061-0.436,223.589c-0.77,46.508-53.773,88.235-113.588,85.843c-189.281,1.164-378.562,0.539-567.843,0.215
	c-57.541-2.1-108.258-43.246-105.218-89.156c-1.872-84.369-0.715-169.035-0.695-253.401C1.518,45.453,43.547,6.109,96.547,1.944z"/>
</svg>
