<?xml version="1.0" encoding="utf-8"?>
<!-- Generator: Adobe Illustrator 16.0.0, SVG Export Plug-In . SVG Version: 6.00 Build 0)  -->
<!DOCTYPE svg PUBLIC "-//W3C//DTD SVG 1.1//EN" "http://www.w3.org/Graphics/SVG/1.1/DTD/svg11.dtd">
<svg version="1.1" id="Layer_1" xmlns="http://www.w3.org/2000/svg" xmlns:xlink="http://www.w3.org/1999/xlink" x="0px" y="0px"
	 width="1068.475px" height="417.082px" viewBox="0 0 1068.475 417.082" enable-background="new 0 0 1068.475 417.082"
	 xml:space="preserve">
<path fill="none" stroke="#000000" stroke-linejoin="round" stroke-miterlimit="10" d="M1014.605,343.672
	c5.687,6.028,13.748,9.791,22.688,9.791c17.221,0,31.181-13.96,31.181-31.181c0-17.222-13.959-31.181-31.181-31.181
	c-17.221,0-31.181,13.959-31.181,31.181c0,0.114,0.001,0.229,0.002,0.342c-2.813,6.033-10.321,3.783-15.667,3.844
	c-0.599,0.007-1.197-0.021-1.793-0.002l-24.28-0.985l-23.814-0.556l-22.172,1.205l-21.221,2.571l-21.402,4.104l-15.916,4.028
	l-14.323,3.791c-68.591,9.167-113.144-22.338-113.144-22.338l-147.139-74.175l-125.491-59.739L358.05,138.365L227.838,83.21
	l-92.481-36.569c0,0-110.934-40.28-125.768-45.584C-5.243-4.247,1.555,12.125,1.555,12.125l6.74,13.417L72.35,168.608l2.458,6.041
	c9.256,10.918,14.005-2.086,14.005-2.086l6.12-11.992c8.464-16.229,17.295-16.132,17.295-16.132
	c7.099-3.434,23.845,12.18,23.845,12.18c16.781,11.499,17.888,41.504,17.888,41.504l0.526,9.902c0,0,0.015,0.864-0.053,10.629
	c-0.069,9.767,11.07,7.99,11.07,7.99l10.304,0.479l13.757,0.812l23.512,1.971l21.016,2.521l15.643,2.694l16.413,3.969l84.147,25.467
	l80.356,25.891l46.902,15.296l319.457,105.674c52.16,13.312,82.023-1.028,82.023-1.028l4.354-2.184
	c40.37-16.577,93.731-48.967,111.304-59.878c2.782-1.372,5.646-2.599,8.441-3.949c3.559-1.719,7.811-2.749,11.472-0.708V343.672z"/>
</svg>
