<?xml version="1.0" encoding="utf-8"?>
<!-- Generator: Adobe Illustrator 16.0.0, SVG Export Plug-In . SVG Version: 6.00 Build 0)  -->
<!DOCTYPE svg PUBLIC "-//W3C//DTD SVG 1.1//EN" "http://www.w3.org/Graphics/SVG/1.1/DTD/svg11.dtd">
<svg version="1.1" id="Layer_1" xmlns="http://www.w3.org/2000/svg" xmlns:xlink="http://www.w3.org/1999/xlink" x="0px" y="0px"
	 width="1007.779px" height="417.082px" viewBox="0 0 1007.779 417.082" enable-background="new 0 0 1007.779 417.082"
	 xml:space="preserve">
<path d="M989.594,326.504l-25.217-1.021l-23.814-0.557l-22.172,1.205l-21.221,2.57l-21.402,4.104l-15.916,4.028l-14.326,3.791
	c-68.588,9.166-113.141-22.338-113.141-22.338l-147.142-74.177l-125.488-59.738l-101.703-46.007L227.838,83.211l-92.479-36.569
	c0,0-110.936-40.28-125.77-45.584C-5.243-4.246,1.555,12.126,1.555,12.126l6.738,13.417L72.35,168.609l2.458,6.041
	c9.256,10.918,14.005-2.086,14.005-2.086l6.12-11.992c8.464-16.229,17.295-16.132,17.295-16.132
	c7.1-3.434,23.845,12.18,23.845,12.18c16.781,11.499,17.889,41.504,17.889,41.504l0.525,9.902c0,0,0.016,0.864-0.053,10.631
	c-0.068,9.766,11.068,7.987,11.068,7.987l10.306,0.48l13.757,0.812l23.513,1.971l21.018,2.52l15.643,2.695l16.413,3.969
	l84.147,25.467l80.354,25.892l46.905,15.295l319.457,105.674c52.16,13.314,82.021-1.026,82.021-1.026l4.355-2.185
	c49.016-20.129,117.188-63.567,117.188-63.567C1021.715,326.773,989.594,326.504,989.594,326.504z"/>
</svg>
