<?xml version="1.0" encoding="utf-8"?>
<!-- Generator: Adobe Illustrator 16.0.0, SVG Export Plug-In . SVG Version: 6.00 Build 0)  -->
<!DOCTYPE svg PUBLIC "-//W3C//DTD SVG 1.1//EN" "http://www.w3.org/Graphics/SVG/1.1/DTD/svg11.dtd">
<svg version="1.1" id="Layer_1" xmlns="http://www.w3.org/2000/svg" xmlns:xlink="http://www.w3.org/1999/xlink" x="0px" y="0px"
	 width="1068.475px" height="417.082px" viewBox="0 0 1068.475 417.082" enable-background="new 0 0 1068.475 417.082"
	 xml:space="preserve">
<path fill="none" stroke="#000000" stroke-linejoin="round" stroke-miterlimit="10" d="M989.592,326.504l-25.217-1.023
	l-23.814-0.556l-22.172,1.205l-21.221,2.571l-21.402,4.104l-15.916,4.028l-14.324,3.791c-68.59,9.167-113.143-22.338-113.143-22.338
	l-147.139-74.175l-125.491-59.739L358.05,138.365L227.838,83.21l-92.481-36.569c0,0-110.934-40.28-125.768-45.584
	C-5.243-4.247,1.555,12.125,1.555,12.125l6.74,13.417L72.35,168.608l2.458,6.041c9.256,10.918,14.005-2.086,14.005-2.086
	l6.12-11.992c8.464-16.229,17.295-16.132,17.295-16.132c7.099-3.434,23.845,12.18,23.845,12.18
	c16.781,11.499,17.888,41.504,17.888,41.504l0.526,9.902c0,0,0.015,0.864-0.053,10.629c-0.069,9.767,11.07,7.99,11.07,7.99
	l10.304,0.479l13.757,0.813l23.512,1.97l21.016,2.521l15.643,2.694l16.413,3.969l84.147,25.466l80.356,25.891l46.903,15.296
	l319.457,105.674c52.16,13.313,82.023-1.028,82.023-1.028l4.354-2.184c49.018-20.128,117.189-63.567,117.189-63.567
	C1021.713,326.773,989.592,326.504,989.592,326.504z"/>
</svg>
