<?xml version="1.0" encoding="utf-8"?>
<!-- Generator: Adobe Illustrator 16.0.0, SVG Export Plug-In . SVG Version: 6.00 Build 0)  -->
<!DOCTYPE svg PUBLIC "-//W3C//DTD SVG 1.1//EN" "http://www.w3.org/Graphics/SVG/1.1/DTD/svg11.dtd">
<svg version="1.1" id="Layer_1" xmlns="http://www.w3.org/2000/svg" xmlns:xlink="http://www.w3.org/1999/xlink" x="0px" y="0px"
	 width="1235.707px" height="586.486px" viewBox="0 0 1235.707 586.486" enable-background="new 0 0 1235.707 586.486"
	 xml:space="preserve">
<path fill="none" stroke="#000001" stroke-linejoin="round" stroke-miterlimit="10" d="M1222.133,456.364
	c0.053-5.206-4.615-12.614-18.306-23.15c0,0-14.568-24.779-152.002-49c0,0-103.461-31.238-142.949-70.565
	c0,0-26.988-27.265-73.213-25.128l-665.524,4.844l-24.053,0.139c0,0-22.527-4.037-1.967-14.555l672.226-13.56
	c0,0,34.89,2.22,15.17-26.351c0,0-13.288-30.74-18.752-50.229c-5.459-19.489-20.235-71.796-21.196-163.49L791.078,7.58l-0.156-3.465
	c0,0,0.435-3.92-1.156-4.109c-1.588-0.19-529.281,4.895-662.728,13.252l-40.119,4.207l-34.92,5.221L33.19,26.237
	c0,0-33.293,1.9-32.223,33.911c1.068,32.011-0.842,385.27-0.842,385.27s-2.149,21.083,11.447,33.024
	c3.157,8.736,5.236,23.695,5.232,40.702c0.019,1.951,1.19,4.764,4.196,8.777c0,0,26.92,52.969,133.002,55.635
	s723.147,7.638,929.997-7.812c0,0,33.9-3.178,59.447-22.082c0,0,18.37-12.482,18.399-12.502c3.068-2.085,7.349-3.614,11.06-3.755
	c6.125-0.232,9.297,4.627,13.858,7.779c5.209,3.6,11.425,5.553,17.761,5.553c17.219,0,31.177-13.957,31.181-31.176
	c0.002-10.704-7.872-17.696-11.333-27.134c-4.062-11.075-2.24-24.688-2.24-36.306V456.364z"/>
</svg>
