<?xml version="1.0" encoding="utf-8"?>
<!-- Generator: Adobe Illustrator 16.0.0, SVG Export Plug-In . SVG Version: 6.00 Build 0)  -->
<!DOCTYPE svg PUBLIC "-//W3C//DTD SVG 1.1//EN" "http://www.w3.org/Graphics/SVG/1.1/DTD/svg11.dtd">
<svg version="1.1" id="Layer_1" xmlns="http://www.w3.org/2000/svg" xmlns:xlink="http://www.w3.org/1999/xlink" x="0px" y="0px"
	 width="1222.133px" height="586.486px" viewBox="0 0 1222.133 586.486" enable-background="new 0 0 1222.133 586.486"
	 xml:space="preserve">
<path d="M42.015,486.195c0,0,603.991,26.146,886.71,3.336l270.331-20.922c0,0,48.581-1.682,4.771-35.396
	c0,0-14.565-24.778-152.002-49c0,0-103.461-31.237-142.945-70.565c0,0-26.988-27.265-73.217-25.127l-665.521,4.844l-24.053,0.139
	c0,0-22.527-4.037-1.967-14.555l672.226-13.56c0,0,34.889,2.22,15.17-26.351c0,0-13.289-30.74-18.751-50.229
	c-5.46-19.489-20.237-71.796-21.198-163.49L791.079,7.58l-0.155-3.465c0,0,0.432-3.92-1.156-4.109
	c-1.589-0.19-529.281,4.895-662.729,13.252L86.92,17.465L52,22.686l-18.812,3.551c0,0-33.293,1.9-32.223,33.911
	c1.068,32.011-0.842,385.27-0.842,385.27S-4.454,490.333,42.015,486.195z M21.001,527.921c0,0,26.92,52.969,133.002,55.635
	s723.146,7.639,929.997-7.812c0,0,33.896-3.178,59.443-22.082l18.401-12.502c0,0,26.554-22.432-1.052-22.521
	c-27.604-0.09-942.687,11.727-975.072,12.113s-44.863,0.246-44.863,0.246l-15.106-0.529l-18.562-1.35l-14.694-1.752l-18.679-3.076
	l-18.297-2.953l-16.973-3.955l-8.812-1.617C29.741,515.763,7.874,510.396,21.001,527.921z"/>
</svg>
