<?xml version="1.0" encoding="utf-8"?>
<!-- Generator: Adobe Illustrator 16.0.0, SVG Export Plug-In . SVG Version: 6.00 Build 0)  -->
<!DOCTYPE svg PUBLIC "-//W3C//DTD SVG 1.1//EN" "http://www.w3.org/Graphics/SVG/1.1/DTD/svg11.dtd">
<svg version="1.1" id="Layer_1" xmlns="http://www.w3.org/2000/svg" xmlns:xlink="http://www.w3.org/1999/xlink" x="0px" y="0px"
	 width="1222.135px" height="586.488px" viewBox="0 0 1222.135 586.488" enable-background="new 0 0 1222.135 586.488"
	 xml:space="preserve">
<path d="M1180.117,486.195c0,0-603.987,26.146-886.709,3.337L23.079,468.609c0,0-48.582-1.682-4.771-35.396
	c0,0,14.568-24.777,152.002-48.999c0,0,103.461-31.241,142.949-70.567c0,0,26.987-27.265,73.213-25.125l665.524,4.842l24.055,0.141
	c0,0,22.522-4.037,1.967-14.555l-672.226-13.562c0,0-34.889,2.219-15.173-26.352c0,0,13.291-30.74,18.755-50.229
	c5.459-19.488,20.235-71.795,21.196-163.488l0.484-17.738l0.156-3.465c0,0-0.435-3.92,1.153-4.109
	c1.593-0.189,529.285,4.895,662.73,13.254l40.116,4.207l34.923,5.221l18.811,3.549c0,0,33.291,1.902,32.226,33.912
	c-1.066,32.01,0.842,385.27,0.842,385.27S1226.591,490.334,1180.117,486.195z M1201.136,527.922c0,0-26.922,52.969-133.004,55.637
	c-106.082,2.666-723.147,7.637-929.998-7.812c0,0-33.896-3.177-59.445-22.081l-18.401-12.503c0,0-26.554-22.429,1.052-22.521
	c27.603-0.091,942.687,11.727,975.073,12.112c32.39,0.394,44.857,0.248,44.857,0.248l15.111-0.531l18.559-1.35l14.695-1.75
	l18.678-3.076l18.297-2.953l16.979-3.955l8.812-1.619C1192.395,515.766,1214.263,510.396,1201.136,527.922z"/>
</svg>
