<?xml version="1.0" encoding="utf-8"?>
<!-- Generator: Adobe Illustrator 16.0.0, SVG Export Plug-In . SVG Version: 6.00 Build 0)  -->
<!DOCTYPE svg PUBLIC "-//W3C//DTD SVG 1.1//EN" "http://www.w3.org/Graphics/SVG/1.1/DTD/svg11.dtd">
<svg version="1.1" id="Layer_1" xmlns="http://www.w3.org/2000/svg" xmlns:xlink="http://www.w3.org/1999/xlink" x="0px" y="0px"
	 width="1520.543px" height="473.579px" viewBox="0 0 1520.543 473.579" enable-background="new 0 0 1520.543 473.579"
	 xml:space="preserve">
<path fill="none" stroke="#000001" stroke-linejoin="round" stroke-miterlimit="10" d="M1171.771,438.919
	c-0.726-2.519-4.45-4.434-8.941-4.433c-1.186,1.226-2.431,2.384-3.701,3.43c-1.871,1.584-4.031,3.096-6.336,4.176
	c-2.16,1.008-5.543,2.16-9.359,1.369C972.508,409.333,125.716,278.581,110.308,280.452c-12.584,1.603-36.772-25.123-46.22-49.025
	c-0.513-1.297-3.291-2.669-4.441-3.266c-1.987-1.03-4.147-1.677-6.317-2.194c-4.714-1.122-9.45,0.2-13.998,1.432
	c-2.653,0.719-5.404,1.075-8.151,1.075C13.96,228.474,0,214.514,0,197.293s13.96-31.181,31.181-31.181
	c4.938,0,9.97,1.153,14.316,3.491c3.443,1.852,6.693,4.182,9.255,7.157c2.788,3.237,3.449,7.691,6.124,10.989
	c1.935,2.385,4.729,3.739,7.636,4.542c1.627,0.449,3.289,0.805,4.964,1.016c0.88,0.111,3.11,0.64,3.921,0.226
	C130.465,166.417,339.115,77.45,473.763,31.477c13.752-4.752,49.248-17.712,106.634-25.416
	c57.312-7.777,136.151-10.226,236.59,5.904c5.83,0.936,525.091,95.256,536.396,97.848c10.213,2.356,14.942,7.775,16.271,13.611
	c0,3.163,5.415,5.722,12.107,5.721c3.926-3.471,9.864-5.928,18.759-3.13c7.775,2.448,96.121,16.2,102.023,16.704
	c7.847,0.72,12.241,7.416,13.896,10.224c1.01,1.728,1.801,3.528,2.375,4.824c0.579,1.368,1.729,5.112,1.729,5.112
	s-1.584,4.752-2.304,6.84c-0.36,1.08-0.723,2.232-1.079,3.096c-0.648,1.728-1.298,3.024-1.584,3.384
	c-10.08,15.695-184.033,265.678-200.882,289.583c-0.358,0.504-1.151,1.512-2.446,2.592s-3.023,2.303-5.4,3.24
	c-4.824,2.018-11.375,2.809-19.799,0.793c-13.897-3.244-92.522-17.209-101.377-20.02c-8.361-2.611-13.271-7.516-13.902-13.468
	H1171.771z"/>
</svg>
