<?xml version="1.0" encoding="utf-8"?>
<!-- Generator: Adobe Illustrator 16.0.0, SVG Export Plug-In . SVG Version: 6.00 Build 0)  -->
<!DOCTYPE svg PUBLIC "-//W3C//DTD SVG 1.1//EN" "http://www.w3.org/Graphics/SVG/1.1/DTD/svg11.dtd">
<svg version="1.1" id="Layer_1" xmlns="http://www.w3.org/2000/svg" xmlns:xlink="http://www.w3.org/1999/xlink" x="0px" y="0px"
	 width="838.18px" height="533.464px" viewBox="0 0 838.18 533.464" enable-background="new 0 0 838.18 533.464"
	 xml:space="preserve">
<path fill="none" stroke="#000000" stroke-linejoin="round" stroke-miterlimit="10" d="M779.45,487.664
	c-2.319,4.361-3.633,9.336-3.633,14.619c0,17.221,13.96,31.182,31.182,31.182s31.182-13.961,31.182-31.182
	s-13.96-31.182-31.182-31.182c-3.681,0-7.212,0.639-10.49,1.809c-1.245-0.156-1.674-0.5-1.532-1.809
	c7.161-8.57,12.024-19.414,12.024-32.688c0-40.262-8.547-342.229-8.547-342.229c-0.221-7.793-2.562-20.169-5.201-27.504
	c0,0-8.621-23.944-35.463-28.418C730.948,35.788,109.115,0,64.38,0C19.645,0,19.646,4.474,15.172,31.313
	C10.698,58.155,1.751,223.678,1.751,241.573c0,2.898-0.032,4.609-0.032,4.609c-0.144,7.795,6.1,14.601,13.877,15.125
	c0,0,274.359,18.508,274.37,18.508c7.101,0.728,16.782,0.757,22.531,5.459c6.979,5.709,3.637,14.798-4.856,16.509
	c-6.362,1.28-12.767,0.784-19.181,0.354c-0.546-0.04-273.3-18.437-273.3-18.437c-7.778-0.525-14.252,5.422-14.389,13.217
	c0,0-2.269,129.732,0.979,145.971c4.474,22.367-4.473,40.264,35.789,44.734c40.262,4.469,688.935,8.947,706.831,8.947
	c7.95,0,21.199-3.533,33.469-10.99C779.11,485.138,779.688,486.666,779.45,487.664z"/>
</svg>
