<?xml version="1.0" encoding="utf-8"?>
<!-- Generator: Adobe Illustrator 16.0.0, SVG Export Plug-In . SVG Version: 6.00 Build 0)  -->
<!DOCTYPE svg PUBLIC "-//W3C//DTD SVG 1.1//EN" "http://www.w3.org/Graphics/SVG/1.1/DTD/svg11.dtd">
<svg version="1.1" id="Layer_1" xmlns="http://www.w3.org/2000/svg" xmlns:xlink="http://www.w3.org/1999/xlink" x="0px" y="0px"
	 width="1370.658px" height="634.408px" viewBox="0 0 1370.658 634.408" enable-background="new 0 0 1370.658 634.408"
	 xml:space="preserve">
<path d="M1370.385,289.115c-1.127-6.202-5.588-11.198-13.256-14.851c-22.265-10.611-353.375-104.699-435.98-127.784
	c-94.11-26.303-387.26-124.737-409.594-132.992C503.366,10.46,461.701-4.36,445.85,1.26c-5.178,1.836-8.094,5.785-7.998,10.84
	c0.305,16.127,35.375,99.833,48.055,122.716c2.222,4.01,3.888,8.336,5.646,12.913c1.666,4.322,3.391,8.793,5.646,13.081
	c3.629,6.896,13.267,13.164,21.285,11.139c1.435-0.361,2.822-0.739,4.197-1.114c5.365-1.454,10-2.709,15.332-2.564
	c13.053,0.348,25.596,6.074,34.41,15.715c4.301,4.703,7.711,10.395,9.856,16.459c8.906,25.119-4.283,52.797-29.396,61.7
	c-12.285,4.354-26.023,3.515-37.693-2.305c-1.576-0.784-3.25-2.06-5.021-3.409c-3.82-2.912-8.146-6.212-13.933-6.514
	c-5.592-0.291-10.821,1.287-15.438,2.681c-1.646,0.496-3.203,0.968-4.729,1.346l-9.082,2.253
	c-24.036,5.957-48.895,12.116-73.202,18.896c-32.144,8.959-61.265,18.098-89.025,27.94c-9.087,3.222-18.119,6.555-26.847,9.908
	C172.583,353.437,19.86,420.226,18.331,420.896l-0.141,0.062l-0.133,0.065c-6.673,3.351-19.019,12.146-17.998,21.483
	c0.225,2.027,1.506,6.938,8.614,8.729c10.677,2.691,21.513,6.861,31.994,10.896c4.767,1.832,9.689,3.73,14.541,5.461
	c16.084,5.744,32.156,11.521,48.229,17.297c9.453,3.402,18.91,6.812,28.365,10.225l15.004,5.414c0.828,0.299,1.69,0.648,2.604,1.023
	c4.017,1.658,9.017,3.715,14.668,2.189c0.502-0.139,0.988-0.289,1.469-0.459c3.08-1.096,5.822-2.912,8.382-5.566
	c5.932-6.133,7.422-12.018,8.758-19.07c1.037-5.488,3.002-10.727,5.84-15.559c5.744-9.775,14.807-17.254,25.514-21.049
	c25.119-8.906,52.797,4.285,61.701,29.396c3.295,9.301,3.654,19.623,1.014,29.08c-1.26,4.521-3.678,8.531-6.235,12.785
	c-3.047,5.062-6.193,10.297-7.67,16.797c-2.781,12.283,10.573,16.621,16.994,18.703c0.897,0.291,1.733,0.562,2.461,0.826
	c9.401,3.42,18.799,6.844,28.197,10.27c18.021,6.568,36.036,13.15,54.051,19.748c30.637,11.225,63.227,23.18,95.209,35.143
	c10.854,4.059,19.901,7.453,29.271,11.082c1.156,0.445,2.354,0.879,3.558,1.311c2.971,1.068,5.776,2.076,8.116,3.42
	c6.82,3.918,13.341,4.82,19.379,2.686c6.82-2.423,12.466-8.479,17.246-18.516c3.232-6.78,34.83-46.625,75.082-91.223
	c28.691-31.785,82.762-89.084,122.518-115.699c27.68-18.531,55.358-32.582,84.625-42.955
	c37.842-13.416,78.826-20.812,128.979-23.285c60.271-2.975,86.01,3.945,101.392,8.084c4.426,1.188,7.926,2.129,11.223,2.535
	c7.496,0.928,65.675-3.562,153.578-10.521c49.095-3.885,99.854-7.902,104.483-7.609c6.248,0.398,11.892-0.326,17.25-2.229
	c0.005-0.002,0.009-0.004,0.013-0.006c6.437-2.277,12.252-6.188,17.793-11.938C1361.537,312.36,1372.535,300.934,1370.385,289.115z
	 M1046.557,269.083c-9.525,3.377-20.023-1.625-23.4-11.151s1.627-20.023,11.15-23.4c9.525-3.377,20.021,1.626,23.4,11.151
	C1061.085,255.209,1056.083,265.706,1046.557,269.083z"/>
</svg>
