<?xml version="1.0" encoding="utf-8"?>
<!-- Generator: Adobe Illustrator 16.0.0, SVG Export Plug-In . SVG Version: 6.00 Build 0)  -->
<!DOCTYPE svg PUBLIC "-//W3C//DTD SVG 1.1//EN" "http://www.w3.org/Graphics/SVG/1.1/DTD/svg11.dtd">
<svg version="1.1" id="Layer_1" xmlns="http://www.w3.org/2000/svg" xmlns:xlink="http://www.w3.org/1999/xlink" x="0px" y="0px"
	 width="1433.021px" height="634.407px" viewBox="0 0 1433.021 634.407" enable-background="new 0 0 1433.021 634.407"
	 xml:space="preserve">
<path fill="none" stroke="#000000" stroke-linejoin="round" stroke-miterlimit="10" d="M1046.557,269.083
	c-9.522,3.377-20.021-1.625-23.397-11.151s1.627-20.023,11.147-23.4c9.525-3.377,20.023,1.626,23.4,11.151
	C1061.084,255.209,1056.082,265.706,1046.557,269.083z M1366.948,281.612c-2.259-2.852-5.539-5.309-9.819-7.348
	c-22.262-10.611-353.375-104.699-435.979-127.784C827.04,120.177,533.889,21.743,511.555,13.488
	C503.367,10.46,461.703-4.36,445.85,1.261c-5.178,1.835-8.094,5.785-7.998,10.839c0.308,16.127,35.375,99.833,48.058,122.716
	c2.219,4.01,3.885,8.336,5.646,12.913c1.666,4.323,3.394,8.793,5.648,13.081c3.629,6.896,13.264,13.164,21.285,11.139
	c1.432-0.361,2.819-0.739,4.194-1.114c5.365-1.454,10-2.709,15.332-2.565c13.056,0.348,25.599,6.075,34.41,15.715
	c4.301,4.703,7.711,10.395,9.859,16.459c8.905,25.119-4.283,52.797-29.398,61.7c-12.285,4.354-26.021,3.515-37.69-2.305
	c-1.576-0.784-3.25-2.06-5.021-3.409c-3.82-2.912-8.146-6.212-13.93-6.514c-5.592-0.291-10.822,1.287-15.438,2.681
	c-1.646,0.496-3.202,0.968-4.727,1.346l-9.082,2.253c-24.037,5.957-48.896,12.116-73.203,18.896
	c-32.143,8.959-61.264,18.098-89.027,27.94c-9.085,3.222-18.119,6.555-26.846,9.908C172.582,353.436,19.86,420.225,18.33,420.897
	l-0.139,0.059l-0.133,0.068c-6.672,3.348-19.018,12.145-17.998,21.482c0.223,2.027,1.506,6.936,8.615,8.729
	c10.676,2.693,21.512,6.863,31.994,10.896c4.766,1.832,9.691,3.73,14.541,5.461c16.084,5.744,32.156,11.521,48.229,17.297
	c9.453,3.402,18.91,6.811,28.365,10.223l15.004,5.414c0.828,0.299,1.691,0.65,2.605,1.025c4.016,1.658,9.016,3.715,14.668,2.189
	c0.502-0.141,0.99-0.289,1.469-0.459c3.08-1.098,5.822-2.912,8.381-5.566c5.932-6.133,7.422-12.018,8.758-19.07
	c1.037-5.49,3.002-10.727,5.84-15.559c5.744-9.775,14.805-17.254,25.512-21.049c25.119-8.906,52.797,4.285,61.701,29.395
	c3.295,9.301,3.656,19.623,1.014,29.08c-1.26,4.521-3.678,8.531-6.236,12.785c-3.047,5.062-6.195,10.297-7.67,16.797
	c-2.781,12.283,10.574,16.621,16.994,18.703c0.898,0.291,1.734,0.562,2.461,0.826c9.402,3.42,18.798,6.844,28.197,10.27
	c18.021,6.568,36.039,13.15,54.051,19.748c30.637,11.225,63.229,23.18,95.209,35.143c10.857,4.059,19.904,7.453,29.271,11.082
	c1.156,0.445,2.352,0.879,3.555,1.311c2.971,1.068,5.779,2.076,8.119,3.42c6.82,3.918,13.338,4.82,19.377,2.686
	c6.822-2.424,12.465-8.479,17.248-18.516c3.229-6.779,34.83-46.625,75.082-91.223c28.688-31.785,82.76-89.084,122.516-115.699
	c27.683-18.532,55.361-32.582,84.625-42.955c37.842-13.416,78.826-20.812,128.979-23.286c60.268-2.974,86.008,3.946,101.389,8.084
	c4.426,1.188,7.926,2.13,11.224,2.536c7.495,0.928,65.677-3.562,153.577-10.521c49.098-3.885,99.857-7.901,104.484-7.608
	c6.248,0.397,11.891-0.326,17.25-2.229c0.004-0.002,0.008-0.004,0.012-0.006c6.438-2.276,12.252-6.188,17.793-11.938
	c4.13-4.292,9.459-9.828,12.902-15.975c1.135-1.076,2.045-2.605,3.488-3.312c1.267-0.621,2.641-0.259,3.923,0.11
	c5.324,9.567,15.538,16.039,27.264,16.04c17.221,0,31.182-13.96,31.182-31.181c0-17.221-13.961-31.181-31.182-31.181
	c-14.787,0-27.17,10.293-30.374,24.105c-1.043,1.702-2.121,3.873-4.517,3.087L1366.948,281.612z"/>
</svg>
