<?xml version="1.0" encoding="utf-8"?>
<!-- Generator: Adobe Illustrator 16.0.0, SVG Export Plug-In . SVG Version: 6.00 Build 0)  -->
<!DOCTYPE svg PUBLIC "-//W3C//DTD SVG 1.1//EN" "http://www.w3.org/Graphics/SVG/1.1/DTD/svg11.dtd">
<svg version="1.1" id="Layer_1" xmlns="http://www.w3.org/2000/svg" xmlns:xlink="http://www.w3.org/1999/xlink" x="0px" y="0px"
	 width="1519.732px" height="476.559px" viewBox="0 0 1519.732 476.559" enable-background="new 0 0 1519.732 476.559"
	 xml:space="preserve">
<path fill="none" stroke="#000001" stroke-linejoin="round" stroke-miterlimit="10" d="M139.152,132.485
	c4.921,0,8.904-2.61,8.904-5.835c0.429-9.342,8.527-14.764,16.874-16.683c11.304-2.592,530.496-97.056,536.328-97.992
	C801.699-4.153,880.538-1.705,937.85,5.999c57.386,7.704,92.952,20.664,106.704,25.344
	c134.183,45.814,341.854,134.27,395.805,161.701c3.186,1.62,8.703,1.396,12.089,0.701c2.486-0.51,4.873-1.468,6.921-2.981
	c2.386-1.763,3.771-4.236,5.645-6.465c3.582-4.262,8.596-7.402,13.844-9.158c3.107-1.04,6.416-1.537,9.694-1.537
	c17.221,0,31.182,13.96,31.182,31.181c0,17.221-13.961,31.181-31.182,31.181c-3.639,0-7.271-0.633-10.69-1.881
	c-2.703-0.987-5.188-2.083-7.742-2.747c-2.458-0.639-4.979-0.878-7.821-0.234c-3.608,0.818-7.238,2.422-10.073,4.826
	c-10.503,22.562-32.378,45.816-44.142,44.318c-15.48-1.871-862.272,129.096-1033.2,163.225c-3.744,0.791-7.128-0.357-9.288-1.369
	c-2.926-1.327-5.656-3.145-7.741-5.582c-5.189-0.001-9.389,2.137-9.389,4.779h0.001c0.138,1.426-0.108,2.913-0.929,4.478
	c-2.444,4.65-7.762,8.036-12.666,9.592c-8.862,2.811-87.407,16.778-101.303,20.018c-8.424,2.018-14.976,1.225-19.8-0.793
	c-2.376-0.934-4.176-2.16-5.472-3.24c-1.296-1.078-2.088-2.088-2.448-2.592c-16.776-23.832-190.8-273.814-200.952-289.438
	c-0.216-0.432-0.864-1.656-1.512-3.456c-0.36-0.864-0.719-1.944-1.152-3.024C1.512,170.755,0,166.003,0,166.003
	s1.152-3.744,1.728-5.185c0.504-1.296,1.296-3.024,2.376-4.824c1.584-2.736,5.976-9.504,13.896-10.152
	c5.832-0.504,94.176-14.328,101.952-16.776c2.416-0.756,5.118-1.302,7.653-1.29c3.34,0.017,6.687,1.315,9.507,3.055
	c0.826,0.51,1.512,1.087,2.102,1.717L139.152,132.485z"/>
</svg>
