<?xml version="1.0" encoding="utf-8"?>
<!-- Generator: Adobe Illustrator 16.0.0, SVG Export Plug-In . SVG Version: 6.00 Build 0)  -->
<!DOCTYPE svg PUBLIC "-//W3C//DTD SVG 1.1//EN" "http://www.w3.org/Graphics/SVG/1.1/DTD/svg11.dtd">
<svg version="1.1" id="Layer_1" xmlns="http://www.w3.org/2000/svg" xmlns:xlink="http://www.w3.org/1999/xlink" x="0px" y="0px"
	 width="1180.848px" height="245.889px" viewBox="0 0 1180.848 245.889" enable-background="new 0 0 1180.848 245.889"
	 xml:space="preserve">
<path fill="none" stroke="#000000" stroke-linejoin="round" stroke-miterlimit="10" d="M60.292,76.157
	c-4.499-11.691-15.836-19.986-29.111-19.986C13.96,56.171,0,70.131,0,87.352c0,17.222,13.96,31.183,31.181,31.183
	c13.166,0,24.426-8.161,28.999-19.7c2.531-2.767,6.244-0.179,8.739,1.179l0.002,0.001c8.849,6.832,27.3,13.041,59.219,20.428
	c44.011,10.189,545.943,123.062,551.007,124.197l5.604,1.248l1.191-5.614c0.025-0.136,3.002-13.798,11.189-20.913
	c9.396-8.166,21.469-13.805,56.166-26.237c33.342-11.953,55.023-16.811,72.496-16.229c8.799,0.29,102.021,8.844,184.271,16.393
	c79.709,7.312,148.547,13.631,155.118,13.849c6.53,0.215,10.769-0.94,13.323-3.635c1.702-1.796,2.521-4.173,2.307-6.701
	c-0.343-4.021-3.147-8.245-9.104-13.702c-10.271-9.41-92.971-59.193-133.229-79.303c-5.93-2.962-13.66-7.01-22.613-11.698
	c-52.965-27.73-151.551-79.35-217.441-85.067c-73.746-6.396-215.087-8.778-336.08-5.665C345.417,4.373,134.341,52.759,87.48,68.828
	c-6.557,2.249-13.605,5.074-18.562,8.871c-1.621,0.484-3.029,1.233-4.774,0.945c-1.579-0.26-2.906-1.223-3.853-2.489L60.292,76.157z
	"/>
</svg>
