<?xml version="1.0" encoding="utf-8"?>
<!-- Generator: Adobe Illustrator 16.0.0, SVG Export Plug-In . SVG Version: 6.00 Build 0)  -->
<!DOCTYPE svg PUBLIC "-//W3C//DTD SVG 1.1//EN" "http://www.w3.org/Graphics/SVG/1.1/DTD/svg11.dtd">
<svg version="1.1" id="Layer_1" xmlns="http://www.w3.org/2000/svg" xmlns:xlink="http://www.w3.org/1999/xlink" x="0px" y="0px"
	 width="1120.152px" height="244.633px" viewBox="0 0 1120.152 244.633" enable-background="new 0 0 1120.152 244.633"
	 xml:space="preserve">
<path d="M1095.365,77.55C1048.783,60.702,838.551,8.797,721.677,3.833c-120.922-5.132-262.282-5.11-336.124,0.056
	c-65.977,4.615-165.406,54.577-218.824,81.419c-9.036,4.539-16.84,8.462-22.816,11.323c-40.6,19.444-124.115,67.842-134.531,77.069
	c-6.085,5.391-8.967,9.594-9.343,13.631c-0.23,2.506,0.561,4.877,2.229,6.68c2.518,2.72,6.724,3.938,13.236,3.826
	c6.573-0.104,75.527-5.271,155.368-11.256c82.348-6.17,175.679-13.166,184.477-13.31c17.479-0.285,39.078,4.931,72.221,17.438
	c34.482,13.018,46.46,18.855,55.722,27.18c8.069,7.248,10.812,20.961,10.843,21.101l1.101,5.645l5.618-1.166
	c5.084-1.055,508.833-105.526,553.007-114.979c47.219-10.105,65.172-18.146,66.245-29.669c0-0.002,0-0.002,0-0.002
	C1121.083,88.252,1107.395,81.901,1095.365,77.55z"/>
</svg>
