<?xml version="1.0" encoding="utf-8"?>
<!-- Generator: Adobe Illustrator 16.0.0, SVG Export Plug-In . SVG Version: 6.00 Build 0)  -->
<!DOCTYPE svg PUBLIC "-//W3C//DTD SVG 1.1//EN" "http://www.w3.org/Graphics/SVG/1.1/DTD/svg11.dtd">
<svg version="1.1" id="Layer_1" xmlns="http://www.w3.org/2000/svg" xmlns:xlink="http://www.w3.org/1999/xlink" x="0px" y="0px"
	 width="2307.18px" height="1108.137px" viewBox="0 0 2307.18 1108.137" enable-background="new 0 0 2307.18 1108.137"
	 xml:space="preserve">
<path d="M2307.146,196.795c-0.342-4.021-3.149-8.246-9.104-13.702c-10.271-9.411-92.971-59.193-133.229-79.304
	c-5.927-2.962-13.66-7.01-22.612-11.698c-52.965-27.731-151.551-79.35-217.441-85.067c-73.743-6.398-215.084-8.78-336.078-5.666
	c-116.934,3.013-328.007,51.399-374.867,67.468c-12.146,4.166-25.979,10.311-25.076,20.939
	c0.979,11.495,18.792,19.809,65.735,30.676c44.011,10.189,545.941,123.057,551.008,124.197l5.604,1.247l1.189-5.614
	c0.029-0.136,3.003-13.797,11.193-20.914c9.396-8.166,21.469-13.805,56.166-26.242c33.342-11.954,55.022-16.806,72.498-16.229
	c8.797,0.29,102.02,8.843,184.268,16.388c79.709,7.312,148.548,13.63,155.119,13.848c6.531,0.215,10.768-0.94,13.324-3.634
	C2306.541,201.701,2307.36,199.324,2307.146,196.795z M1808.469,281.823c-0.562-6.585-4.256-10.904-4.678-11.373l-0.91-1.023
	l-1.278-0.493c-1.171-0.451-119.812-45.687-359.313-93.267c-229.123-45.521-399.782-64.417-432.403-56.388
	c-20.605,5.07-24.918,35.182-24.085,44.987c0.143,1.684,0.421,2.961,0.877,4.022c1.014,2.355,5.619,7.918,30.798,37.195
	c18.071,21.014,40.562,47.167,44.236,53.18c0.688,1.129,1.143,2.031,1.438,2.732c-0.676-0.185-1.491-0.479-2.411-0.931
	c-5.672-2.778-41.656-34.601-53.479-45.057c-4.032-3.565-6.692-5.918-7.731-6.796c-3.369-2.84-8.51-4.581-13.759-4.66
	c-5.896-0.086-11.008,1.918-14.026,5.498c-0.602,0.713-1.562,1.618-2.773,2.762c-5.653,5.323-17.416,16.402-41.673,53.331
	c-19.779,30.1-72.144,71.964-127.578,116.285c-25.862,20.677-52.604,42.058-77.01,63.042
	c-75.779,65.163-313.255,264.003-315.645,266.003l-0.218,0.18l-0.196,0.203c-0.803,0.822-81.609,82.656-181.128,120.894
	c-55.668,21.393-210.857-7.587-212.419-7.882L0,821.79l7.3,11.152l166.344,254.067l1.468,2.24l2.66,0.291
	c1.416,0.156,142.003,15.457,178.482,18.396c31.536,2.541,43.608-19.562,55.284-40.939c3.667-6.711,7.454-13.652,11.904-20.098
	c17.961-26.013,89.066-98.14,93.896-103.029c44.229-34.498,223.688-124.043,307.76-162.49
	c48.409-22.139,65.382-47.637,83.349-74.635c11.171-16.779,22.724-34.135,42.951-51.08c50.464-42.268,90.895-49.25,200.365-63.223
	c108.104-13.802,330.713-22.035,362.699-17.236c32.182,4.832,103.153,22.988,116.84,29.135c7.143,3.211,12.799,3.48,17.296,0.82
	c5.833-3.449,7.3-10.463,7.882-17.021c2.387-7.582,27.449-86.494,51.753-137.188c17.419-36.337,47.625-69.32,65.671-89.024
	c10.461-11.425,15.15-16.631,16.65-20.403c3.839-9.649,14.562-43.846,17.097-52.169
	C1808.406,286.884,1808.683,284.35,1808.469,281.823z M1019.924,159.072c-3.722,0-6.732-3.014-6.732-6.732
	c0-3.718,3.014-6.732,6.732-6.732c3.718,0,6.729,3.014,6.729,6.732C1026.655,156.058,1023.642,159.072,1019.924,159.072z
	 M114.797,939.075c-3.718,0-6.73-3.019-6.73-6.732c0-3.719,3.016-6.729,6.73-6.729c3.72,0,6.73,3.014,6.73,6.729
	C121.529,936.059,118.516,939.075,114.797,939.075z M114.797,887.075c-3.718,0-6.73-3.019-6.73-6.732
	c0-3.719,3.016-6.729,6.73-6.729c3.72,0,6.73,3.014,6.73,6.729C121.529,884.059,118.516,887.075,114.797,887.075z M171.367,1043.075
	c-3.72,0-6.73-3.019-6.73-6.732c0-3.719,3.014-6.731,6.73-6.731c3.719,0,6.73,3.016,6.73,6.731
	C178.1,1040.059,175.086,1043.075,171.367,1043.075z M171.367,991.075c-3.72,0-6.73-3.019-6.73-6.732
	c0-3.719,3.014-6.729,6.73-6.729c3.719,0,6.73,3.014,6.73,6.729C178.1,988.059,175.086,991.075,171.367,991.075z M171.367,939.075
	c-3.72,0-6.73-3.019-6.73-6.732c0-3.719,3.014-6.729,6.73-6.729c3.719,0,6.73,3.014,6.73,6.729
	C178.1,936.059,175.086,939.075,171.367,939.075z M171.367,887.075c-3.72,0-6.73-3.019-6.73-6.732c0-3.719,3.014-6.729,6.73-6.729
	c3.719,0,6.73,3.014,6.73,6.729C178.1,884.059,175.086,887.075,171.367,887.075z M227.938,1043.075
	c-3.718,0-6.729-3.019-6.729-6.732c0-3.719,3.015-6.731,6.729-6.731c3.721,0,6.732,3.016,6.732,6.731
	S231.657,1043.075,227.938,1043.075z M227.938,991.075c-3.718,0-6.729-3.019-6.729-6.732c0-3.719,3.015-6.729,6.729-6.729
	c3.721,0,6.732,3.014,6.732,6.729S231.657,991.075,227.938,991.075z M227.938,939.075c-3.718,0-6.729-3.019-6.729-6.732
	c0-3.719,3.015-6.729,6.729-6.729c3.721,0,6.732,3.014,6.732,6.729S231.657,939.075,227.938,939.075z M227.938,887.075
	c-3.718,0-6.729-3.019-6.729-6.732c0-3.719,3.015-6.729,6.729-6.729c3.721,0,6.732,3.014,6.732,6.729
	S231.657,887.075,227.938,887.075z M284.509,1043.075c-3.719,0-6.731-3.019-6.731-6.732c0-3.719,3.016-6.731,6.731-6.731
	c3.718,0,6.732,3.016,6.732,6.731S288.228,1043.075,284.509,1043.075z M284.509,991.075c-3.719,0-6.731-3.019-6.731-6.732
	c0-3.719,3.016-6.729,6.731-6.729c3.718,0,6.732,3.014,6.732,6.729S288.228,991.075,284.509,991.075z M284.509,939.075
	c-3.719,0-6.731-3.019-6.731-6.732c0-3.719,3.016-6.729,6.731-6.729c3.718,0,6.732,3.014,6.732,6.729
	S288.228,939.075,284.509,939.075z M284.509,887.075c-3.719,0-6.731-3.019-6.731-6.732c0-3.719,3.016-6.729,6.731-6.729
	c3.718,0,6.732,3.014,6.732,6.729S288.228,887.075,284.509,887.075z M284.509,835.073c-3.719,0-6.731-3.017-6.731-6.732
	s3.016-6.729,6.731-6.729c3.718,0,6.732,3.014,6.732,6.729S288.228,835.073,284.509,835.073z M341.077,1043.075
	c-3.719,0-6.729-3.019-6.729-6.732c0-3.719,3.014-6.731,6.729-6.731c3.721,0,6.732,3.016,6.732,6.731
	C347.812,1040.059,344.799,1043.075,341.077,1043.075z M341.077,991.075c-3.719,0-6.729-3.019-6.729-6.732
	c0-3.719,3.014-6.729,6.729-6.729c3.721,0,6.732,3.014,6.732,6.729C347.812,988.059,344.799,991.075,341.077,991.075z
	 M341.077,939.075c-3.719,0-6.729-3.019-6.729-6.732c0-3.719,3.014-6.729,6.729-6.729c3.721,0,6.732,3.014,6.732,6.729
	C347.812,936.059,344.799,939.075,341.077,939.075z M341.077,887.075c-3.719,0-6.729-3.019-6.729-6.732
	c0-3.719,3.014-6.729,6.729-6.729c3.721,0,6.732,3.014,6.732,6.729C347.812,884.059,344.799,887.075,341.077,887.075z
	 M341.077,835.073c-3.719,0-6.729-3.017-6.729-6.732s3.014-6.729,6.729-6.729c3.721,0,6.732,3.014,6.732,6.729
	S344.799,835.073,341.077,835.073z M397.649,1043.075c-3.719,0-6.732-3.019-6.732-6.732c0-3.719,3.017-6.731,6.732-6.731
	s6.732,3.016,6.732,6.731C404.383,1040.059,401.366,1043.075,397.649,1043.075z M397.649,991.075c-3.719,0-6.732-3.019-6.732-6.732
	c0-3.719,3.017-6.729,6.732-6.729s6.732,3.014,6.732,6.729C404.383,988.059,401.366,991.075,397.649,991.075z M397.649,939.075
	c-3.719,0-6.732-3.019-6.732-6.732c0-3.719,3.017-6.729,6.732-6.729s6.732,3.014,6.732,6.729
	C404.383,936.059,401.366,939.075,397.649,939.075z M397.649,887.075c-3.719,0-6.732-3.019-6.732-6.732
	c0-3.719,3.017-6.729,6.732-6.729s6.732,3.014,6.732,6.729C404.383,884.059,401.366,887.075,397.649,887.075z M397.649,835.073
	c-3.719,0-6.732-3.017-6.732-6.732s3.017-6.729,6.732-6.729s6.732,3.014,6.732,6.729S401.366,835.073,397.649,835.073z
	 M397.649,783.073c-3.719,0-6.732-3.017-6.732-6.732s3.017-6.729,6.732-6.729s6.732,3.014,6.732,6.729
	S401.366,783.073,397.649,783.073z M454.22,939.075c-3.719,0-6.732-3.019-6.732-6.732c0-3.719,3.017-6.729,6.732-6.729
	s6.729,3.014,6.729,6.729S457.938,939.075,454.22,939.075z M454.22,887.075c-3.719,0-6.732-3.019-6.732-6.732
	c0-3.719,3.017-6.729,6.732-6.729s6.729,3.014,6.729,6.729S457.938,887.075,454.22,887.075z M454.22,835.073
	c-3.719,0-6.732-3.017-6.732-6.732s3.017-6.729,6.732-6.729s6.729,3.014,6.729,6.729S457.938,835.073,454.22,835.073z
	 M454.22,783.073c-3.719,0-6.732-3.017-6.732-6.732s3.017-6.729,6.732-6.729s6.729,3.014,6.729,6.729
	S457.938,783.073,454.22,783.073z M454.22,731.073c-3.719,0-6.732-3.017-6.732-6.732s3.017-6.729,6.732-6.729
	s6.729,3.014,6.729,6.729S457.938,731.073,454.22,731.073z M510.788,887.075c-3.719,0-6.729-3.019-6.729-6.732
	c0-3.719,3.014-6.729,6.729-6.729c3.721,0,6.732,3.014,6.732,6.729C517.522,884.059,514.51,887.075,510.788,887.075z
	 M510.788,835.073c-3.719,0-6.729-3.017-6.729-6.732s3.014-6.729,6.729-6.729c3.721,0,6.732,3.014,6.732,6.729
	S514.51,835.073,510.788,835.073z M510.788,783.073c-3.719,0-6.729-3.017-6.729-6.732s3.014-6.729,6.729-6.729
	c3.721,0,6.732,3.014,6.732,6.729S514.51,783.073,510.788,783.073z M510.788,731.073c-3.719,0-6.729-3.017-6.729-6.732
	s3.014-6.729,6.729-6.729c3.721,0,6.732,3.014,6.732,6.729S514.51,731.073,510.788,731.073z M510.788,679.073
	c-3.719,0-6.729-3.017-6.729-6.732s3.014-6.729,6.729-6.729c3.721,0,6.732,3.014,6.732,6.729S514.51,679.073,510.788,679.073z
	 M567.36,887.075c-3.719,0-6.729-3.019-6.729-6.732c0-3.719,3.014-6.729,6.729-6.729s6.732,3.014,6.732,6.729
	C574.094,884.059,571.077,887.075,567.36,887.075z M567.36,835.073c-3.719,0-6.729-3.017-6.729-6.732s3.014-6.729,6.729-6.729
	s6.732,3.014,6.732,6.729S571.077,835.073,567.36,835.073z M567.36,783.073c-3.719,0-6.729-3.017-6.729-6.732
	s3.014-6.729,6.729-6.729s6.732,3.014,6.732,6.729S571.077,783.073,567.36,783.073z M567.36,731.073
	c-3.719,0-6.729-3.017-6.729-6.732s3.014-6.729,6.729-6.729s6.732,3.014,6.732,6.729S571.077,731.073,567.36,731.073z
	 M567.36,679.073c-3.719,0-6.729-3.017-6.729-6.732s3.014-6.729,6.729-6.729s6.732,3.014,6.732,6.729
	S571.077,679.073,567.36,679.073z M567.36,627.073c-3.719,0-6.729-3.017-6.729-6.732s3.014-6.729,6.729-6.729
	s6.732,3.014,6.732,6.729S571.077,627.073,567.36,627.073z M623.931,835.073c-3.719,0-6.732-3.017-6.732-6.732
	s3.017-6.729,6.732-6.729s6.729,3.014,6.729,6.729S627.649,835.073,623.931,835.073z M623.931,783.073
	c-3.719,0-6.732-3.017-6.732-6.732s3.017-6.729,6.732-6.729s6.729,3.014,6.729,6.729S627.649,783.073,623.931,783.073z
	 M623.931,731.073c-3.719,0-6.732-3.017-6.732-6.732s3.017-6.729,6.732-6.729s6.729,3.014,6.729,6.729
	S627.649,731.073,623.931,731.073z M623.931,679.073c-3.719,0-6.732-3.017-6.732-6.732s3.017-6.729,6.732-6.729
	s6.729,3.014,6.729,6.729S627.649,679.073,623.931,679.073z M623.931,627.073c-3.719,0-6.732-3.017-6.732-6.732
	s3.017-6.729,6.732-6.729s6.729,3.014,6.729,6.729S627.649,627.073,623.931,627.073z M623.931,575.073
	c-3.719,0-6.732-3.017-6.732-6.732s3.017-6.729,6.732-6.729s6.729,3.014,6.729,6.729S627.649,575.073,623.931,575.073z
	 M680.5,835.073c-3.72,0-6.73-3.017-6.73-6.732s3.014-6.729,6.73-6.729c3.72,0,6.731,3.014,6.731,6.729
	S684.22,835.073,680.5,835.073z M680.5,783.073c-3.72,0-6.73-3.017-6.73-6.732s3.014-6.729,6.73-6.729
	c3.72,0,6.731,3.014,6.731,6.729S684.22,783.073,680.5,783.073z M680.5,731.073c-3.72,0-6.73-3.017-6.73-6.732
	s3.014-6.729,6.73-6.729c3.72,0,6.731,3.014,6.731,6.729S684.22,731.073,680.5,731.073z M680.5,679.073
	c-3.72,0-6.73-3.017-6.73-6.732s3.014-6.729,6.73-6.729c3.72,0,6.731,3.014,6.731,6.729S684.22,679.073,680.5,679.073z
	 M680.5,627.073c-3.72,0-6.73-3.017-6.73-6.732s3.014-6.729,6.73-6.729c3.72,0,6.731,3.014,6.731,6.729
	S684.22,627.073,680.5,627.073z M680.5,575.073c-3.72,0-6.73-3.017-6.73-6.732s3.014-6.729,6.73-6.729
	c3.72,0,6.731,3.014,6.731,6.729S684.22,575.073,680.5,575.073z M680.5,523.072c-3.72,0-6.73-3.017-6.73-6.732
	s3.014-6.729,6.73-6.729c3.72,0,6.731,3.014,6.731,6.729S684.22,523.072,680.5,523.072z M737.071,783.073
	c-3.719,0-6.729-3.017-6.729-6.732s3.014-6.729,6.729-6.729s6.732,3.014,6.732,6.729S740.788,783.073,737.071,783.073z
	 M737.071,731.073c-3.719,0-6.729-3.017-6.729-6.732s3.014-6.729,6.729-6.729s6.732,3.014,6.732,6.729
	S740.788,731.073,737.071,731.073z M737.071,679.073c-3.719,0-6.729-3.017-6.729-6.732s3.014-6.729,6.729-6.729
	s6.732,3.014,6.732,6.729S740.788,679.073,737.071,679.073z M737.071,627.073c-3.719,0-6.729-3.017-6.729-6.732
	s3.014-6.729,6.729-6.729s6.732,3.014,6.732,6.729S740.788,627.073,737.071,627.073z M737.071,575.073
	c-3.719,0-6.729-3.017-6.729-6.732s3.014-6.729,6.729-6.729s6.732,3.014,6.732,6.729S740.788,575.073,737.071,575.073z
	 M737.071,523.072c-3.719,0-6.729-3.017-6.729-6.732s3.014-6.729,6.729-6.729s6.732,3.014,6.732,6.729
	S740.788,523.072,737.071,523.072z M737.071,471.072c-3.719,0-6.729-3.017-6.729-6.732s3.014-6.729,6.729-6.729
	s6.732,3.014,6.732,6.729S740.788,471.072,737.071,471.072z M793.642,783.073c-3.719,0-6.732-3.017-6.732-6.732
	s3.017-6.729,6.732-6.729s6.731,3.014,6.731,6.729S797.36,783.073,793.642,783.073z M793.642,731.073
	c-3.719,0-6.732-3.017-6.732-6.732s3.017-6.729,6.732-6.729s6.731,3.014,6.731,6.729S797.36,731.073,793.642,731.073z
	 M793.642,679.073c-3.719,0-6.732-3.017-6.732-6.732s3.017-6.729,6.732-6.729s6.731,3.014,6.731,6.729
	S797.36,679.073,793.642,679.073z M793.642,627.073c-3.719,0-6.732-3.017-6.732-6.732s3.017-6.729,6.732-6.729
	s6.731,3.014,6.731,6.729S797.36,627.073,793.642,627.073z M793.642,575.073c-3.719,0-6.732-3.017-6.732-6.732
	s3.017-6.729,6.732-6.729s6.731,3.014,6.731,6.729S797.36,575.073,793.642,575.073z M793.642,523.072
	c-3.719,0-6.732-3.017-6.732-6.732s3.017-6.729,6.732-6.729s6.731,3.014,6.731,6.729S797.36,523.072,793.642,523.072z
	 M793.642,471.072c-3.719,0-6.732-3.017-6.732-6.732s3.017-6.729,6.732-6.729s6.731,3.014,6.731,6.729
	S797.36,471.072,793.642,471.072z M793.642,419.071c-3.719,0-6.732-3.014-6.732-6.732c0-3.718,3.017-6.732,6.732-6.732
	s6.731,3.014,6.731,6.732C800.372,416.058,797.36,419.071,793.642,419.071z M850.213,731.073c-3.722,0-6.732-3.017-6.732-6.732
	s3.014-6.729,6.732-6.729c3.718,0,6.729,3.014,6.729,6.729S853.931,731.073,850.213,731.073z M850.213,679.073
	c-3.722,0-6.732-3.017-6.732-6.732s3.014-6.729,6.732-6.729c3.718,0,6.729,3.014,6.729,6.729S853.931,679.073,850.213,679.073z
	 M850.213,627.073c-3.722,0-6.732-3.017-6.732-6.732s3.014-6.729,6.732-6.729c3.718,0,6.729,3.014,6.729,6.729
	S853.931,627.073,850.213,627.073z M850.213,575.073c-3.722,0-6.732-3.017-6.732-6.732s3.014-6.729,6.732-6.729
	c3.718,0,6.729,3.014,6.729,6.729S853.931,575.073,850.213,575.073z M850.213,523.072c-3.722,0-6.732-3.017-6.732-6.732
	s3.014-6.729,6.732-6.729c3.718,0,6.729,3.014,6.729,6.729S853.931,523.072,850.213,523.072z M850.213,471.072
	c-3.722,0-6.732-3.017-6.732-6.732s3.014-6.729,6.732-6.729c3.718,0,6.729,3.014,6.729,6.729S853.931,471.072,850.213,471.072z
	 M850.213,419.071c-3.722,0-6.732-3.014-6.732-6.732c0-3.718,3.014-6.732,6.732-6.732c3.718,0,6.729,3.014,6.729,6.732
	C856.944,416.058,853.931,419.071,850.213,419.071z M906.781,679.073c-3.719,0-6.729-3.017-6.729-6.732s3.014-6.729,6.729-6.729
	c3.72,0,6.732,3.014,6.732,6.729S910.5,679.073,906.781,679.073z M906.781,627.073c-3.719,0-6.729-3.017-6.729-6.732
	s3.014-6.729,6.729-6.729c3.72,0,6.732,3.014,6.732,6.729S910.5,627.073,906.781,627.073z M906.781,575.073
	c-3.719,0-6.729-3.017-6.729-6.732s3.014-6.729,6.729-6.729c3.72,0,6.732,3.014,6.732,6.729S910.5,575.073,906.781,575.073z
	 M906.781,523.072c-3.719,0-6.729-3.017-6.729-6.732s3.014-6.729,6.729-6.729c3.72,0,6.732,3.014,6.732,6.729
	S910.5,523.072,906.781,523.072z M906.781,471.072c-3.719,0-6.729-3.017-6.729-6.732s3.014-6.729,6.729-6.729
	c3.72,0,6.732,3.014,6.732,6.729S910.5,471.072,906.781,471.072z M906.781,419.071c-3.719,0-6.729-3.014-6.729-6.732
	c0-3.718,3.014-6.732,6.729-6.732c3.72,0,6.732,3.014,6.732,6.732C913.514,416.058,910.5,419.071,906.781,419.071z M906.781,367.071
	c-3.719,0-6.729-3.014-6.729-6.732c0-3.718,3.014-6.732,6.729-6.732c3.72,0,6.732,3.014,6.732,6.732
	C913.514,364.058,910.5,367.071,906.781,367.071z M963.353,627.073c-3.719,0-6.732-3.017-6.732-6.732s3.017-6.729,6.732-6.729
	s6.732,3.014,6.732,6.729S967.071,627.073,963.353,627.073z M963.353,575.073c-3.719,0-6.732-3.017-6.732-6.732
	s3.017-6.729,6.732-6.729s6.732,3.014,6.732,6.729S967.071,575.073,963.353,575.073z M963.353,523.072
	c-3.719,0-6.732-3.017-6.732-6.732s3.017-6.729,6.732-6.729s6.732,3.014,6.732,6.729S967.071,523.072,963.353,523.072z
	 M963.353,471.072c-3.719,0-6.732-3.017-6.732-6.732s3.017-6.729,6.732-6.729s6.732,3.014,6.732,6.729
	S967.071,471.072,963.353,471.072z M963.353,419.071c-3.719,0-6.732-3.014-6.732-6.732c0-3.718,3.017-6.732,6.732-6.732
	s6.732,3.014,6.732,6.732C970.086,416.058,967.071,419.071,963.353,419.071z M963.353,367.071c-3.719,0-6.732-3.014-6.732-6.732
	c0-3.718,3.017-6.732,6.732-6.732s6.732,3.014,6.732,6.732C970.086,364.058,967.071,367.071,963.353,367.071z M963.353,315.072
	c-3.719,0-6.732-3.014-6.732-6.732c0-3.718,3.017-6.732,6.732-6.732s6.732,3.014,6.732,6.732
	C970.086,312.058,967.071,315.072,963.353,315.072z M963.353,263.072c-3.719,0-6.732-3.014-6.732-6.732
	c0-3.718,3.017-6.732,6.732-6.732s6.732,3.014,6.732,6.732C970.086,260.058,967.071,263.072,963.353,263.072z M1019.924,575.073
	c-3.722,0-6.732-3.017-6.732-6.732s3.014-6.729,6.732-6.729c3.718,0,6.729,3.014,6.729,6.729S1023.642,575.073,1019.924,575.073z
	 M1019.924,523.072c-3.722,0-6.732-3.017-6.732-6.732s3.014-6.729,6.732-6.729c3.718,0,6.729,3.014,6.729,6.729
	S1023.642,523.072,1019.924,523.072z M1019.924,471.072c-3.722,0-6.732-3.017-6.732-6.732s3.014-6.729,6.732-6.729
	c3.718,0,6.729,3.014,6.729,6.729S1023.642,471.072,1019.924,471.072z M1019.924,419.071c-3.722,0-6.732-3.014-6.732-6.732
	c0-3.718,3.014-6.732,6.732-6.732c3.718,0,6.729,3.014,6.729,6.732C1026.655,416.058,1023.642,419.071,1019.924,419.071z
	 M1019.924,367.071c-3.722,0-6.732-3.014-6.732-6.732c0-3.718,3.014-6.732,6.732-6.732c3.718,0,6.729,3.014,6.729,6.732
	C1026.655,364.058,1023.642,367.071,1019.924,367.071z M1019.924,315.072c-3.722,0-6.732-3.014-6.732-6.732
	c0-3.718,3.014-6.732,6.732-6.732c3.718,0,6.729,3.014,6.729,6.732C1026.655,312.058,1023.642,315.072,1019.924,315.072z
	 M1019.924,263.072c-3.722,0-6.732-3.014-6.732-6.732c0-3.718,3.014-6.732,6.732-6.732c3.718,0,6.729,3.014,6.729,6.732
	C1026.655,260.058,1023.642,263.072,1019.924,263.072z M1076.491,575.073c-3.719,0-6.729-3.017-6.729-6.732s3.014-6.729,6.729-6.729
	c3.72,0,6.732,3.014,6.732,6.729S1080.213,575.073,1076.491,575.073z M1076.491,523.072c-3.719,0-6.729-3.017-6.729-6.732
	s3.014-6.729,6.729-6.729c3.72,0,6.732,3.014,6.732,6.729S1080.213,523.072,1076.491,523.072z M1076.491,471.072
	c-3.719,0-6.729-3.017-6.729-6.732s3.014-6.729,6.729-6.729c3.72,0,6.732,3.014,6.732,6.729S1080.213,471.072,1076.491,471.072z
	 M1076.491,419.071c-3.719,0-6.729-3.014-6.729-6.732c0-3.718,3.014-6.732,6.729-6.732c3.72,0,6.732,3.014,6.732,6.732
	C1083.225,416.058,1080.213,419.071,1076.491,419.071z M1076.491,367.071c-3.719,0-6.729-3.014-6.729-6.732
	c0-3.718,3.014-6.732,6.729-6.732c3.72,0,6.732,3.014,6.732,6.732C1083.225,364.058,1080.213,367.071,1076.491,367.071z
	 M1076.491,315.072c-3.719,0-6.729-3.014-6.729-6.732c0-3.718,3.014-6.732,6.729-6.732c3.72,0,6.732,3.014,6.732,6.732
	C1083.225,312.058,1080.213,315.072,1076.491,315.072z M1076.491,211.072c-3.719,0-6.729-3.014-6.729-6.732
	c0-3.718,3.014-6.732,6.729-6.732c3.72,0,6.732,3.014,6.732,6.732C1083.225,208.058,1080.213,211.072,1076.491,211.072z
	 M1076.491,159.072c-3.719,0-6.729-3.014-6.729-6.732c0-3.718,3.014-6.732,6.729-6.732c3.72,0,6.732,3.014,6.732,6.732
	C1083.225,156.058,1080.213,159.072,1076.491,159.072z M1133.063,575.073c-3.719,0-6.732-3.017-6.732-6.732s3.017-6.729,6.732-6.729
	s6.732,3.014,6.732,6.729S1136.781,575.073,1133.063,575.073z M1133.063,523.072c-3.719,0-6.732-3.017-6.732-6.732
	s3.017-6.729,6.732-6.729s6.732,3.014,6.732,6.729S1136.781,523.072,1133.063,523.072z M1133.063,471.072
	c-3.719,0-6.732-3.017-6.732-6.732s3.017-6.729,6.732-6.729s6.732,3.014,6.732,6.729S1136.781,471.072,1133.063,471.072z
	 M1133.063,419.071c-3.719,0-6.732-3.014-6.732-6.732c0-3.718,3.017-6.732,6.732-6.732s6.732,3.014,6.732,6.732
	C1139.796,416.058,1136.781,419.071,1133.063,419.071z M1133.063,367.071c-3.719,0-6.732-3.014-6.732-6.732
	c0-3.718,3.017-6.732,6.732-6.732s6.732,3.014,6.732,6.732C1139.796,364.058,1136.781,367.071,1133.063,367.071z M1133.063,315.072
	c-3.719,0-6.732-3.014-6.732-6.732c0-3.718,3.017-6.732,6.732-6.732s6.732,3.014,6.732,6.732
	C1139.796,312.058,1136.781,315.072,1133.063,315.072z M1133.063,263.072c-3.719,0-6.732-3.014-6.732-6.732
	c0-3.718,3.017-6.732,6.732-6.732s6.732,3.014,6.732,6.732C1139.796,260.058,1136.781,263.072,1133.063,263.072z M1133.063,211.072
	c-3.719,0-6.732-3.014-6.732-6.732c0-3.718,3.017-6.732,6.732-6.732s6.732,3.014,6.732,6.732
	C1139.796,208.058,1136.781,211.072,1133.063,211.072z M1133.063,159.072c-3.719,0-6.732-3.014-6.732-6.732
	c0-3.718,3.017-6.732,6.732-6.732s6.732,3.014,6.732,6.732C1139.796,156.058,1136.781,159.072,1133.063,159.072z M1189.635,575.073
	c-3.721,0-6.732-3.017-6.732-6.732s3.016-6.729,6.732-6.729s6.729,3.014,6.729,6.729S1193.353,575.073,1189.635,575.073z
	 M1189.635,523.072c-3.721,0-6.732-3.017-6.732-6.732s3.016-6.729,6.732-6.729s6.729,3.014,6.729,6.729
	S1193.353,523.072,1189.635,523.072z M1189.635,471.072c-3.721,0-6.732-3.017-6.732-6.732s3.016-6.729,6.732-6.729
	s6.729,3.014,6.729,6.729S1193.353,471.072,1189.635,471.072z M1189.635,419.071c-3.721,0-6.732-3.014-6.732-6.732
	c0-3.718,3.016-6.732,6.732-6.732s6.729,3.014,6.729,6.732C1196.365,416.058,1193.353,419.071,1189.635,419.071z M1189.635,367.071
	c-3.721,0-6.732-3.014-6.732-6.732c0-3.718,3.016-6.732,6.732-6.732s6.729,3.014,6.729,6.732
	C1196.365,364.058,1193.353,367.071,1189.635,367.071z M1189.635,315.072c-3.721,0-6.732-3.014-6.732-6.732
	c0-3.718,3.016-6.732,6.732-6.732s6.729,3.014,6.729,6.732C1196.365,312.058,1193.353,315.072,1189.635,315.072z M1189.635,263.072
	c-3.721,0-6.732-3.014-6.732-6.732c0-3.718,3.016-6.732,6.732-6.732s6.729,3.014,6.729,6.732
	C1196.365,260.058,1193.353,263.072,1189.635,263.072z M1189.635,211.072c-3.721,0-6.732-3.014-6.732-6.732
	c0-3.718,3.016-6.732,6.732-6.732s6.729,3.014,6.729,6.732C1196.365,208.058,1193.353,211.072,1189.635,211.072z M1189.635,159.072
	c-3.721,0-6.732-3.014-6.732-6.732c0-3.718,3.016-6.732,6.732-6.732s6.729,3.014,6.729,6.732
	C1196.365,156.058,1193.353,159.072,1189.635,159.072z M1246.202,523.072c-3.719,0-6.729-3.017-6.729-6.732s3.014-6.729,6.729-6.729
	c3.721,0,6.732,3.014,6.732,6.729S1249.924,523.072,1246.202,523.072z M1246.202,471.072c-3.719,0-6.729-3.017-6.729-6.732
	s3.014-6.729,6.729-6.729c3.721,0,6.732,3.014,6.732,6.729S1249.924,471.072,1246.202,471.072z M1246.202,419.071
	c-3.719,0-6.729-3.014-6.729-6.732c0-3.718,3.014-6.732,6.729-6.732c3.721,0,6.732,3.014,6.732,6.732
	C1252.936,416.058,1249.924,419.071,1246.202,419.071z M1246.202,367.071c-3.719,0-6.729-3.014-6.729-6.732
	c0-3.718,3.014-6.732,6.729-6.732c3.721,0,6.732,3.014,6.732,6.732C1252.936,364.058,1249.924,367.071,1246.202,367.071z
	 M1246.202,315.072c-3.719,0-6.729-3.014-6.729-6.732c0-3.718,3.014-6.732,6.729-6.732c3.721,0,6.732,3.014,6.732,6.732
	C1252.936,312.058,1249.924,315.072,1246.202,315.072z M1246.202,263.072c-3.719,0-6.729-3.014-6.729-6.732
	c0-3.718,3.014-6.732,6.729-6.732c3.721,0,6.732,3.014,6.732,6.732C1252.936,260.058,1249.924,263.072,1246.202,263.072z
	 M1246.202,211.072c-3.719,0-6.729-3.014-6.729-6.732c0-3.718,3.014-6.732,6.729-6.732c3.721,0,6.732,3.014,6.732,6.732
	C1252.936,208.058,1249.924,211.072,1246.202,211.072z M1302.774,523.072c-3.719,0-6.732-3.017-6.732-6.732s3.017-6.729,6.732-6.729
	s6.732,3.014,6.732,6.729S1306.491,523.072,1302.774,523.072z M1302.774,471.072c-3.719,0-6.732-3.017-6.732-6.732
	s3.017-6.729,6.732-6.729s6.732,3.014,6.732,6.729S1306.491,471.072,1302.774,471.072z M1302.774,419.071
	c-3.719,0-6.732-3.014-6.732-6.732c0-3.718,3.017-6.732,6.732-6.732s6.732,3.014,6.732,6.732
	C1309.507,416.058,1306.491,419.071,1302.774,419.071z M1302.774,367.071c-3.719,0-6.732-3.014-6.732-6.732
	c0-3.718,3.017-6.732,6.732-6.732s6.732,3.014,6.732,6.732C1309.507,364.058,1306.491,367.071,1302.774,367.071z M1302.774,315.072
	c-3.719,0-6.732-3.014-6.732-6.732c0-3.718,3.017-6.732,6.732-6.732s6.732,3.014,6.732,6.732
	C1309.507,312.058,1306.491,315.072,1302.774,315.072z M1302.774,263.072c-3.719,0-6.732-3.014-6.732-6.732
	c0-3.718,3.017-6.732,6.732-6.732s6.732,3.014,6.732,6.732C1309.507,260.058,1306.491,263.072,1302.774,263.072z M1302.774,211.072
	c-3.719,0-6.732-3.014-6.732-6.732c0-3.718,3.017-6.732,6.732-6.732s6.732,3.014,6.732,6.732
	C1309.507,208.058,1306.491,211.072,1302.774,211.072z M1359.345,523.072c-3.72,0-6.732-3.017-6.732-6.732s3.015-6.729,6.732-6.729
	c3.717,0,6.729,3.014,6.729,6.729S1363.063,523.072,1359.345,523.072z M1359.345,471.072c-3.72,0-6.732-3.017-6.732-6.732
	s3.015-6.729,6.732-6.729c3.717,0,6.729,3.014,6.729,6.729S1363.063,471.072,1359.345,471.072z M1359.345,419.071
	c-3.72,0-6.732-3.014-6.732-6.732c0-3.718,3.015-6.732,6.732-6.732c3.717,0,6.729,3.014,6.729,6.732
	C1366.075,416.058,1363.063,419.071,1359.345,419.071z M1359.345,367.071c-3.72,0-6.732-3.014-6.732-6.732
	c0-3.718,3.015-6.732,6.732-6.732c3.717,0,6.729,3.014,6.729,6.732C1366.075,364.058,1363.063,367.071,1359.345,367.071z
	 M1359.345,315.072c-3.72,0-6.732-3.014-6.732-6.732c0-3.718,3.015-6.732,6.732-6.732c3.717,0,6.729,3.014,6.729,6.732
	C1366.075,312.058,1363.063,315.072,1359.345,315.072z M1359.345,263.072c-3.72,0-6.732-3.014-6.732-6.732
	c0-3.718,3.015-6.732,6.732-6.732c3.717,0,6.729,3.014,6.729,6.732C1366.075,260.058,1363.063,263.072,1359.345,263.072z
	 M1359.345,211.072c-3.72,0-6.732-3.014-6.732-6.732c0-3.718,3.015-6.732,6.732-6.732c3.717,0,6.729,3.014,6.729,6.732
	C1366.075,208.058,1363.063,211.072,1359.345,211.072z M1415.913,523.072c-3.719,0-6.729-3.017-6.729-6.732s3.014-6.729,6.729-6.729
	c3.721,0,6.732,3.014,6.732,6.729S1419.635,523.072,1415.913,523.072z M1415.913,471.072c-3.719,0-6.729-3.017-6.729-6.732
	s3.014-6.729,6.729-6.729c3.721,0,6.732,3.014,6.732,6.729S1419.635,471.072,1415.913,471.072z M1415.913,419.071
	c-3.719,0-6.729-3.014-6.729-6.732c0-3.718,3.014-6.732,6.729-6.732c3.721,0,6.732,3.014,6.732,6.732
	C1422.647,416.058,1419.635,419.071,1415.913,419.071z M1415.913,367.071c-3.719,0-6.729-3.014-6.729-6.732
	c0-3.718,3.014-6.732,6.729-6.732c3.721,0,6.732,3.014,6.732,6.732C1422.647,364.058,1419.635,367.071,1415.913,367.071z
	 M1415.913,315.072c-3.719,0-6.729-3.014-6.729-6.732c0-3.718,3.014-6.732,6.729-6.732c3.721,0,6.732,3.014,6.732,6.732
	C1422.647,312.058,1419.635,315.072,1415.913,315.072z M1415.913,263.072c-3.719,0-6.729-3.014-6.729-6.732
	c0-3.718,3.014-6.732,6.729-6.732c3.721,0,6.732,3.014,6.732,6.732C1422.647,260.058,1419.635,263.072,1415.913,263.072z
	 M1415.913,211.072c-3.719,0-6.729-3.014-6.729-6.732c0-3.718,3.014-6.732,6.729-6.732c3.721,0,6.732,3.014,6.732,6.732
	C1422.647,208.058,1419.635,211.072,1415.913,211.072z M1472.485,523.072c-3.719,0-6.732-3.017-6.732-6.732s3.017-6.729,6.732-6.729
	s6.732,3.014,6.732,6.729S1476.202,523.072,1472.485,523.072z M1472.485,471.072c-3.719,0-6.732-3.017-6.732-6.732
	s3.017-6.729,6.732-6.729s6.732,3.014,6.732,6.729S1476.202,471.072,1472.485,471.072z M1472.485,419.071
	c-3.719,0-6.732-3.014-6.732-6.732c0-3.718,3.017-6.732,6.732-6.732s6.732,3.014,6.732,6.732
	C1479.218,416.058,1476.202,419.071,1472.485,419.071z M1472.485,367.071c-3.719,0-6.732-3.014-6.732-6.732
	c0-3.718,3.017-6.732,6.732-6.732s6.732,3.014,6.732,6.732C1479.218,364.058,1476.202,367.071,1472.485,367.071z M1472.485,315.072
	c-3.719,0-6.732-3.014-6.732-6.732c0-3.718,3.017-6.732,6.732-6.732s6.732,3.014,6.732,6.732
	C1479.218,312.058,1476.202,315.072,1472.485,315.072z M1472.485,263.072c-3.719,0-6.732-3.014-6.732-6.732
	c0-3.718,3.017-6.732,6.732-6.732s6.732,3.014,6.732,6.732C1479.218,260.058,1476.202,263.072,1472.485,263.072z M1472.485,211.072
	c-3.719,0-6.732-3.014-6.732-6.732c0-3.718,3.017-6.732,6.732-6.732s6.732,3.014,6.732,6.732
	C1479.218,208.058,1476.202,211.072,1472.485,211.072z M1529.056,523.072c-3.719,0-6.732-3.017-6.732-6.732s3.017-6.729,6.732-6.729
	s6.729,3.014,6.729,6.729S1532.774,523.072,1529.056,523.072z M1529.056,471.072c-3.719,0-6.732-3.017-6.732-6.732
	s3.017-6.729,6.732-6.729s6.729,3.014,6.729,6.729S1532.774,471.072,1529.056,471.072z M1529.056,419.071
	c-3.719,0-6.732-3.014-6.732-6.732c0-3.718,3.017-6.732,6.732-6.732s6.729,3.014,6.729,6.732
	C1535.786,416.058,1532.774,419.071,1529.056,419.071z M1529.056,367.071c-3.719,0-6.732-3.014-6.732-6.732
	c0-3.718,3.017-6.732,6.732-6.732s6.729,3.014,6.729,6.732C1535.786,364.058,1532.774,367.071,1529.056,367.071z M1529.056,315.072
	c-3.719,0-6.732-3.014-6.732-6.732c0-3.718,3.017-6.732,6.732-6.732s6.729,3.014,6.729,6.732
	C1535.786,312.058,1532.774,315.072,1529.056,315.072z M1529.056,263.072c-3.719,0-6.732-3.014-6.732-6.732
	c0-3.718,3.017-6.732,6.732-6.732s6.729,3.014,6.729,6.732C1535.786,260.058,1532.774,263.072,1529.056,263.072z M1585.625,575.073
	c-3.72,0-6.73-3.017-6.73-6.732s3.014-6.729,6.73-6.729c3.72,0,6.731,3.014,6.731,6.729S1589.345,575.073,1585.625,575.073z
	 M1585.625,523.072c-3.72,0-6.73-3.017-6.73-6.732s3.014-6.729,6.73-6.729c3.72,0,6.731,3.014,6.731,6.729
	S1589.345,523.072,1585.625,523.072z M1585.625,471.072c-3.72,0-6.73-3.017-6.73-6.732s3.014-6.729,6.73-6.729
	c3.72,0,6.731,3.014,6.731,6.729S1589.345,471.072,1585.625,471.072z M1585.625,419.071c-3.72,0-6.73-3.014-6.73-6.732
	c0-3.718,3.014-6.732,6.73-6.732c3.72,0,6.731,3.014,6.731,6.732C1592.358,416.058,1589.345,419.071,1585.625,419.071z
	 M1585.625,367.071c-3.72,0-6.73-3.014-6.73-6.732c0-3.718,3.014-6.732,6.73-6.732c3.72,0,6.731,3.014,6.731,6.732
	C1592.358,364.058,1589.345,367.071,1585.625,367.071z M1585.625,315.072c-3.72,0-6.73-3.014-6.73-6.732
	c0-3.718,3.014-6.732,6.73-6.732c3.72,0,6.731,3.014,6.731,6.732C1592.358,312.058,1589.345,315.072,1585.625,315.072z
	 M1585.625,263.072c-3.72,0-6.73-3.014-6.73-6.732c0-3.718,3.014-6.732,6.73-6.732c3.72,0,6.731,3.014,6.731,6.732
	C1592.358,260.058,1589.345,263.072,1585.625,263.072z M1642.196,523.072c-3.719,0-6.729-3.017-6.729-6.732s3.014-6.729,6.729-6.729
	c3.719,0,6.732,3.014,6.732,6.729S1645.913,523.072,1642.196,523.072z M1642.196,471.072c-3.719,0-6.729-3.017-6.729-6.732
	s3.014-6.729,6.729-6.729c3.719,0,6.732,3.014,6.732,6.729S1645.913,471.072,1642.196,471.072z M1642.196,419.071
	c-3.719,0-6.729-3.014-6.729-6.732c0-3.718,3.014-6.732,6.729-6.732c3.719,0,6.732,3.014,6.732,6.732
	C1648.928,416.058,1645.913,419.071,1642.196,419.071z M1642.196,367.071c-3.719,0-6.729-3.014-6.729-6.732
	c0-3.718,3.014-6.732,6.729-6.732c3.719,0,6.732,3.014,6.732,6.732C1648.928,364.058,1645.913,367.071,1642.196,367.071z
	 M1642.196,315.072c-3.719,0-6.729-3.014-6.729-6.732c0-3.718,3.014-6.732,6.729-6.732c3.719,0,6.732,3.014,6.732,6.732
	C1648.928,312.058,1645.913,315.072,1642.196,315.072z M1642.196,263.072c-3.719,0-6.729-3.014-6.729-6.732
	c0-3.718,3.014-6.732,6.729-6.732c3.719,0,6.732,3.014,6.732,6.732C1648.928,260.058,1645.913,263.072,1642.196,263.072z
	 M1698.767,419.071c-3.719,0-6.732-3.014-6.732-6.732c0-3.718,3.017-6.732,6.732-6.732s6.729,3.014,6.729,6.732
	C1705.498,416.058,1702.485,419.071,1698.767,419.071z M1698.767,367.071c-3.719,0-6.732-3.014-6.732-6.732
	c0-3.718,3.017-6.732,6.732-6.732s6.729,3.014,6.729,6.732C1705.498,364.058,1702.485,367.071,1698.767,367.071z M1698.767,315.072
	c-3.719,0-6.732-3.014-6.732-6.732c0-3.718,3.017-6.732,6.732-6.732s6.729,3.014,6.729,6.732
	C1705.498,312.058,1702.485,315.072,1698.767,315.072z M1698.767,263.072c-3.719,0-6.732-3.014-6.732-6.732
	c0-3.718,3.017-6.732,6.732-6.732s6.729,3.014,6.729,6.732C1705.498,260.058,1702.485,263.072,1698.767,263.072z M1755.338,315.072
	c-3.722,0-6.732-3.014-6.732-6.732c0-3.718,3.014-6.732,6.732-6.732c3.718,0,6.729,3.014,6.729,6.732
	C1762.069,312.058,1759.056,315.072,1755.338,315.072z"/>
</svg>
