<?xml version="1.0" encoding="utf-8"?>
<!-- Generator: Adobe Illustrator 16.0.0, SVG Export Plug-In . SVG Version: 6.00 Build 0)  -->
<!DOCTYPE svg PUBLIC "-//W3C//DTD SVG 1.1//EN" "http://www.w3.org/Graphics/SVG/1.1/DTD/svg11.dtd">
<svg version="1.1" id="Layer_1" xmlns="http://www.w3.org/2000/svg" xmlns:xlink="http://www.w3.org/1999/xlink" x="0px" y="0px"
	 width="2308.604px" height="1111.535px" viewBox="0 0 2308.604 1111.535" enable-background="new 0 0 2308.604 1111.535"
	 xml:space="preserve">
<path fill="none" stroke="#000001" stroke-linejoin="round" stroke-miterlimit="10" d="M1293.68,136.825
	c3.722,0,6.732,3.014,6.732,6.732c0,3.718-3.016,6.732-6.732,6.732s-6.729-3.014-6.729-6.732
	C1286.948,139.839,1289.961,136.825,1293.68,136.825z M558.267,306.29c-3.719,0-6.729-3.014-6.729-6.732
	c0-3.718,3.016-6.732,6.729-6.732c3.721,0,6.731,3.014,6.731,6.732C564.997,303.276,561.985,306.29,558.267,306.29z
	 M614.837,396.828c3.717,0,6.729,3.014,6.729,6.731c0,3.717-3.014,6.731-6.729,6.731c-3.719,0-6.731-3.014-6.731-6.731
	C608.106,399.842,611.118,396.828,614.837,396.828z M614.837,344.826c3.718,0,6.73,3.014,6.73,6.732c0,3.718-3.014,6.732-6.73,6.732
	c-3.72,0-6.732-3.014-6.732-6.732C608.105,347.84,611.117,344.826,614.837,344.826z M614.837,292.826c3.718,0,6.73,3.014,6.73,6.732
	c0,3.718-3.014,6.732-6.73,6.732c-3.72,0-6.732-3.014-6.732-6.732C608.105,295.84,611.117,292.826,614.837,292.826z
	 M614.837,240.826c3.718,0,6.73,3.014,6.73,6.732c0,3.718-3.014,6.732-6.73,6.732c-3.72,0-6.732-3.014-6.732-6.732
	C608.105,243.84,611.117,240.826,614.837,240.826z M671.406,552.829c3.718,0,6.731,3.014,6.731,6.729
	c0,3.719-3.014,6.731-6.731,6.731c-3.717,0-6.729-3.014-6.729-6.731C664.676,555.843,667.69,552.829,671.406,552.829z
	 M671.406,500.828c3.718,0,6.731,3.014,6.731,6.729c0,3.719-3.014,6.731-6.731,6.731c-3.717,0-6.729-3.014-6.729-6.731
	C664.676,503.842,667.69,500.828,671.406,500.828z M671.406,448.828c3.718,0,6.731,3.014,6.731,6.729
	c0,3.719-3.014,6.731-6.731,6.731c-3.717,0-6.729-3.014-6.729-6.731C664.676,451.842,667.69,448.828,671.406,448.828z
	 M671.406,396.828c3.718,0,6.731,3.014,6.731,6.731c0,3.717-3.014,6.731-6.731,6.731c-3.717,0-6.729-3.014-6.729-6.731
	C664.676,399.842,667.69,396.828,671.406,396.828z M671.406,344.826c3.718,0,6.732,3.014,6.732,6.732
	c0,3.718-3.016,6.732-6.732,6.732s-6.73-3.014-6.73-6.732C664.675,347.84,667.689,344.826,671.406,344.826z M671.406,292.826
	c3.718,0,6.732,3.014,6.732,6.732c0,3.718-3.016,6.732-6.732,6.732s-6.73-3.014-6.73-6.732
	C664.675,295.84,667.689,292.826,671.406,292.826z M671.406,240.826c3.718,0,6.732,3.014,6.732,6.732
	c0,3.718-3.016,6.732-6.732,6.732s-6.73-3.014-6.73-6.732C664.675,243.84,667.689,240.826,671.406,240.826z M727.979,552.829
	c3.718,0,6.731,3.014,6.731,6.729c0,3.719-3.015,6.731-6.731,6.731s-6.731-3.014-6.731-6.731
	C721.246,555.843,724.261,552.829,727.979,552.829z M727.979,500.828c3.718,0,6.731,3.014,6.731,6.729
	c0,3.719-3.015,6.731-6.731,6.731s-6.731-3.014-6.731-6.731C721.246,503.842,724.261,500.828,727.979,500.828z M727.979,448.828
	c3.718,0,6.731,3.014,6.731,6.729c0,3.719-3.015,6.731-6.731,6.731s-6.731-3.014-6.731-6.731
	C721.246,451.842,724.261,448.828,727.979,448.828z M727.979,396.828c3.718,0,6.731,3.014,6.731,6.731
	c0,3.717-3.015,6.731-6.731,6.731s-6.731-3.014-6.731-6.731C721.247,399.842,724.261,396.828,727.979,396.828z M727.979,344.826
	c3.718,0,6.732,3.014,6.732,6.732c0,3.718-3.016,6.732-6.732,6.732s-6.732-3.014-6.732-6.732
	C721.245,347.84,724.261,344.826,727.979,344.826z M727.979,292.826c3.718,0,6.732,3.014,6.732,6.732
	c0,3.718-3.016,6.732-6.732,6.732s-6.732-3.014-6.732-6.732C721.245,295.84,724.261,292.826,727.979,292.826z M727.979,240.826
	c3.718,0,6.732,3.014,6.732,6.732c0,3.718-3.016,6.732-6.732,6.732s-6.732-3.014-6.732-6.732
	C721.245,243.84,724.261,240.826,727.979,240.826z M784.548,500.828c3.717,0,6.729,3.014,6.729,6.729
	c0,3.719-3.014,6.731-6.729,6.731c-3.719,0-6.731-3.014-6.731-6.731C777.817,503.842,780.829,500.828,784.548,500.828z
	 M784.548,448.828c3.717,0,6.729,3.014,6.729,6.729c0,3.719-3.014,6.731-6.729,6.731c-3.719,0-6.731-3.014-6.731-6.731
	C777.817,451.842,780.829,448.828,784.548,448.828z M784.548,396.828c3.717,0,6.729,3.014,6.729,6.731
	c0,3.717-3.014,6.731-6.729,6.731c-3.719,0-6.731-3.014-6.731-6.731C777.817,399.842,780.829,396.828,784.548,396.828z
	 M784.548,344.826c3.718,0,6.73,3.014,6.73,6.732c0,3.718-3.014,6.732-6.73,6.732c-3.72,0-6.732-3.014-6.732-6.732
	C777.816,347.84,780.828,344.826,784.548,344.826z M784.548,292.826c3.718,0,6.73,3.014,6.73,6.732c0,3.718-3.014,6.732-6.73,6.732
	c-3.72,0-6.732-3.014-6.732-6.732C777.816,295.84,780.828,292.826,784.548,292.826z M784.548,240.826c3.718,0,6.73,3.014,6.73,6.732
	c0,3.718-3.014,6.732-6.73,6.732c-3.72,0-6.732-3.014-6.732-6.732C777.816,243.84,780.828,240.826,784.548,240.826z
	 M841.116,500.828c3.719,0,6.731,3.014,6.731,6.729c0,3.719-3.014,6.731-6.731,6.731c-3.717,0-6.729-3.014-6.729-6.731
	C834.387,503.842,837.401,500.828,841.116,500.828z M841.116,448.828c3.719,0,6.731,3.014,6.731,6.729
	c0,3.719-3.014,6.731-6.731,6.731c-3.717,0-6.729-3.014-6.729-6.731C834.387,451.842,837.401,448.828,841.116,448.828z
	 M841.116,396.828c3.719,0,6.731,3.014,6.731,6.731c0,3.717-3.014,6.731-6.731,6.731c-3.717,0-6.729-3.014-6.729-6.731
	C834.387,399.842,837.401,396.828,841.116,396.828z M841.116,344.826c3.72,0,6.732,3.014,6.732,6.732
	c0,3.718-3.014,6.732-6.732,6.732c-3.718,0-6.73-3.014-6.73-6.732C834.386,347.84,837.4,344.826,841.116,344.826z M841.116,292.826
	c3.72,0,6.732,3.014,6.732,6.732c0,3.718-3.014,6.732-6.732,6.732c-3.718,0-6.73-3.014-6.73-6.732
	C834.386,295.84,837.4,292.826,841.116,292.826z M841.116,240.826c3.72,0,6.732,3.014,6.732,6.732c0,3.718-3.014,6.732-6.732,6.732
	c-3.718,0-6.73-3.014-6.73-6.732C834.386,243.84,837.4,240.826,841.116,240.826z M841.116,188.826c3.72,0,6.732,3.014,6.732,6.732
	c0,3.718-3.014,6.732-6.732,6.732c-3.718,0-6.73-3.014-6.73-6.732C834.386,191.84,837.4,188.826,841.116,188.826z M897.688,462.29
	c-3.719,0-6.729-3.014-6.729-6.732c0-3.718,3.014-6.729,6.729-6.729c3.721,0,6.732,3.014,6.732,6.729
	C904.42,459.276,901.406,462.29,897.688,462.29z M897.688,410.29c-3.719,0-6.729-3.014-6.729-6.732c0-3.718,3.014-6.729,6.729-6.729
	c3.721,0,6.732,3.014,6.732,6.729C904.42,407.276,901.406,410.29,897.688,410.29z M897.688,358.29c-3.719,0-6.729-3.014-6.729-6.732
	c0-3.718,3.014-6.731,6.729-6.731c3.721,0,6.732,3.014,6.732,6.731C904.42,355.276,901.406,358.29,897.688,358.29z M897.688,306.29
	c-3.719,0-6.729-3.014-6.729-6.732c0-3.718,3.014-6.732,6.729-6.732c3.721,0,6.732,3.014,6.732,6.732
	C904.42,303.276,901.406,306.29,897.688,306.29z M897.688,254.29c-3.719,0-6.729-3.014-6.729-6.732c0-3.718,3.014-6.732,6.729-6.732
	c3.721,0,6.732,3.014,6.732,6.732C904.42,251.276,901.406,254.29,897.688,254.29z M897.688,202.29c-3.719,0-6.729-3.014-6.729-6.732
	c0-3.718,3.014-6.732,6.729-6.732c3.721,0,6.732,3.014,6.732,6.732C904.42,199.276,901.406,202.29,897.688,202.29z M954.259,448.828
	c3.717,0,6.729,3.014,6.729,6.729c0,3.719-3.014,6.731-6.729,6.731c-3.719,0-6.731-3.014-6.731-6.731
	C947.528,451.842,950.541,448.828,954.259,448.828z M954.259,396.828c3.717,0,6.729,3.014,6.729,6.731
	c0,3.717-3.014,6.731-6.729,6.731c-3.719,0-6.731-3.014-6.731-6.731C947.528,399.842,950.541,396.828,954.259,396.828z
	 M954.259,344.826c3.718,0,6.73,3.014,6.73,6.732c0,3.718-3.014,6.732-6.73,6.732c-3.718,0-6.732-3.014-6.732-6.732
	C947.527,347.84,950.541,344.826,954.259,344.826z M954.259,292.826c3.718,0,6.73,3.014,6.73,6.732c0,3.718-3.014,6.732-6.73,6.732
	c-3.718,0-6.732-3.014-6.732-6.732C947.527,295.84,950.541,292.826,954.259,292.826z M954.259,240.826
	c3.718,0,6.73,3.014,6.73,6.732c0,3.718-3.014,6.732-6.73,6.732c-3.718,0-6.732-3.014-6.732-6.732
	C947.527,243.84,950.541,240.826,954.259,240.826z M954.259,188.826c3.718,0,6.73,3.014,6.73,6.732c0,3.718-3.014,6.732-6.73,6.732
	c-3.718,0-6.732-3.014-6.732-6.732C947.527,191.84,950.541,188.826,954.259,188.826z M1010.827,448.828
	c3.719,0,6.731,3.014,6.731,6.729c0,3.719-3.014,6.731-6.731,6.731c-3.717,0-6.729-3.014-6.729-6.731
	C1004.098,451.842,1007.112,448.828,1010.827,448.828z M1010.827,396.828c3.719,0,6.731,3.014,6.731,6.731
	c0,3.717-3.014,6.731-6.731,6.731c-3.717,0-6.729-3.014-6.729-6.731C1004.098,399.842,1007.112,396.828,1010.827,396.828z
	 M1010.827,344.826c3.72,0,6.732,3.014,6.732,6.732c0,3.718-3.014,6.732-6.732,6.732c-3.718,0-6.73-3.014-6.73-6.732
	C1004.097,347.84,1007.111,344.826,1010.827,344.826z M1010.827,292.826c3.72,0,6.732,3.014,6.732,6.732
	c0,3.718-3.014,6.732-6.732,6.732c-3.718,0-6.73-3.014-6.73-6.732C1004.097,295.84,1007.111,292.826,1010.827,292.826z
	 M1010.827,240.826c3.72,0,6.732,3.014,6.732,6.732c0,3.718-3.014,6.732-6.732,6.732c-3.718,0-6.73-3.014-6.73-6.732
	C1004.097,243.84,1007.111,240.826,1010.827,240.826z M1010.827,188.826c3.72,0,6.732,3.014,6.732,6.732
	c0,3.718-3.014,6.732-6.732,6.732c-3.718,0-6.73-3.014-6.73-6.732C1004.097,191.84,1007.111,188.826,1010.827,188.826z
	 M1067.399,462.29c-3.722,0-6.732-3.014-6.732-6.732c0-3.718,3.016-6.729,6.732-6.729s6.729,3.014,6.729,6.729
	C1074.131,459.276,1071.116,462.29,1067.399,462.29z M1067.399,410.29c-3.722,0-6.732-3.014-6.732-6.732
	c0-3.718,3.016-6.729,6.732-6.729s6.729,3.014,6.729,6.729C1074.131,407.276,1071.116,410.29,1067.399,410.29z M1067.399,358.29
	c-3.722,0-6.732-3.014-6.732-6.732c0-3.718,3.016-6.731,6.732-6.731s6.729,3.014,6.729,6.731
	C1074.131,355.276,1071.116,358.29,1067.399,358.29z M1067.399,306.29c-3.722,0-6.732-3.014-6.732-6.732
	c0-3.718,3.016-6.732,6.732-6.732s6.729,3.014,6.729,6.732C1074.131,303.276,1071.116,306.29,1067.399,306.29z M1067.399,254.29
	c-3.722,0-6.732-3.014-6.732-6.732c0-3.718,3.016-6.732,6.732-6.732s6.729,3.014,6.729,6.732
	C1074.131,251.276,1071.116,254.29,1067.399,254.29z M1067.399,202.29c-3.722,0-6.732-3.014-6.732-6.732
	c0-3.718,3.016-6.732,6.732-6.732s6.729,3.014,6.729,6.732C1074.131,199.276,1071.116,202.29,1067.399,202.29z M1123.97,552.829
	c3.717,0,6.729,3.014,6.729,6.729c0,3.719-3.014,6.731-6.729,6.731c-3.718,0-6.731-3.014-6.731-6.731
	C1117.239,555.843,1120.252,552.829,1123.97,552.829z M1123.97,500.828c3.717,0,6.729,3.014,6.729,6.729
	c0,3.719-3.014,6.731-6.729,6.731c-3.718,0-6.731-3.014-6.731-6.731C1117.239,503.842,1120.252,500.828,1123.97,500.828z
	 M1123.97,448.828c3.717,0,6.729,3.014,6.729,6.729c0,3.719-3.014,6.731-6.729,6.731c-3.718,0-6.731-3.014-6.731-6.731
	C1117.239,451.842,1120.252,448.828,1123.97,448.828z M1123.97,396.828c3.717,0,6.729,3.014,6.729,6.731
	c0,3.717-3.014,6.731-6.729,6.731c-3.718,0-6.731-3.014-6.731-6.731C1117.239,399.842,1120.252,396.828,1123.97,396.828z
	 M1123.97,344.826c3.718,0,6.73,3.014,6.73,6.732c0,3.718-3.014,6.732-6.73,6.732s-6.732-3.014-6.732-6.732
	C1117.238,347.84,1120.252,344.826,1123.97,344.826z M1123.97,292.826c3.718,0,6.73,3.014,6.73,6.732
	c0,3.718-3.014,6.732-6.73,6.732s-6.732-3.014-6.732-6.732C1117.238,295.84,1120.252,292.826,1123.97,292.826z M1123.97,240.826
	c3.718,0,6.73,3.014,6.73,6.732c0,3.718-3.014,6.732-6.73,6.732s-6.732-3.014-6.732-6.732
	C1117.238,243.84,1120.252,240.826,1123.97,240.826z M1123.97,188.826c3.718,0,6.73,3.014,6.73,6.732
	c0,3.718-3.014,6.732-6.73,6.732s-6.732-3.014-6.732-6.732C1117.238,191.84,1120.252,188.826,1123.97,188.826z M1123.97,136.826
	c3.718,0,6.73,3.014,6.73,6.732c0,3.718-3.014,6.732-6.73,6.732s-6.732-3.014-6.732-6.732
	C1117.238,139.84,1120.252,136.826,1123.97,136.826z M1180.538,552.829c3.719,0,6.731,3.014,6.731,6.729
	c0,3.719-3.014,6.731-6.731,6.731c-3.717,0-6.729-3.014-6.729-6.731C1173.809,555.843,1176.823,552.829,1180.538,552.829z
	 M1180.538,500.828c3.719,0,6.731,3.014,6.731,6.729c0,3.719-3.014,6.731-6.731,6.731c-3.717,0-6.729-3.014-6.729-6.731
	C1173.809,503.842,1176.823,500.828,1180.538,500.828z M1180.538,448.828c3.719,0,6.731,3.014,6.731,6.729
	c0,3.719-3.014,6.731-6.731,6.731c-3.717,0-6.729-3.014-6.729-6.731C1173.809,451.842,1176.823,448.828,1180.538,448.828z
	 M1180.538,396.828c3.719,0,6.731,3.014,6.731,6.731c0,3.717-3.014,6.731-6.731,6.731c-3.717,0-6.729-3.014-6.729-6.731
	C1173.809,399.842,1176.823,396.828,1180.538,396.828z M1180.538,344.826c3.72,0,6.732,3.014,6.732,6.732
	c0,3.718-3.014,6.732-6.732,6.732c-3.718,0-6.73-3.014-6.73-6.732C1173.808,347.84,1176.822,344.826,1180.538,344.826z
	 M1180.538,292.826c3.72,0,6.732,3.014,6.732,6.732c0,3.718-3.014,6.732-6.732,6.732c-3.718,0-6.73-3.014-6.73-6.732
	C1173.808,295.84,1176.822,292.826,1180.538,292.826z M1180.538,240.826c3.72,0,6.732,3.014,6.732,6.732
	c0,3.718-3.014,6.732-6.732,6.732c-3.718,0-6.73-3.014-6.73-6.732C1173.808,243.84,1176.822,240.826,1180.538,240.826z
	 M1180.538,188.826c3.72,0,6.732,3.014,6.732,6.732c0,3.718-3.014,6.732-6.732,6.732c-3.718,0-6.73-3.014-6.73-6.732
	C1173.808,191.84,1176.822,188.826,1180.538,188.826z M1180.538,136.826c3.72,0,6.732,3.014,6.732,6.732
	c0,3.718-3.014,6.732-6.732,6.732c-3.718,0-6.73-3.014-6.73-6.732C1173.808,139.84,1176.822,136.826,1180.538,136.826z
	 M1237.11,566.291c-3.722,0-6.732-3.014-6.732-6.732c0-3.718,3.016-6.729,6.732-6.729s6.729,3.014,6.729,6.729
	C1243.842,563.277,1240.827,566.291,1237.11,566.291z M1237.11,514.29c-3.722,0-6.732-3.014-6.732-6.732
	c0-3.718,3.016-6.729,6.732-6.729s6.729,3.014,6.729,6.729C1243.842,511.276,1240.827,514.29,1237.11,514.29z M1237.11,462.29
	c-3.722,0-6.732-3.014-6.732-6.732c0-3.718,3.016-6.729,6.732-6.729s6.729,3.014,6.729,6.729
	C1243.842,459.276,1240.827,462.29,1237.11,462.29z M1237.11,410.29c-3.722,0-6.732-3.014-6.732-6.732
	c0-3.718,3.016-6.729,6.732-6.729s6.729,3.014,6.729,6.729C1243.842,407.276,1240.827,410.29,1237.11,410.29z M1237.11,358.29
	c-3.722,0-6.732-3.014-6.732-6.732c0-3.718,3.016-6.731,6.732-6.731s6.729,3.014,6.729,6.731
	C1243.842,355.276,1240.827,358.29,1237.11,358.29z M1237.11,306.29c-3.722,0-6.732-3.014-6.732-6.732
	c0-3.718,3.016-6.732,6.732-6.732s6.729,3.014,6.729,6.732C1243.842,303.276,1240.827,306.29,1237.11,306.29z M1237.11,202.29
	c-3.722,0-6.732-3.014-6.732-6.732c0-3.718,3.016-6.732,6.732-6.732s6.729,3.014,6.729,6.732
	C1243.842,199.276,1240.827,202.29,1237.11,202.29z M1237.11,150.29c-3.722,0-6.732-3.014-6.732-6.732
	c0-3.718,3.016-6.732,6.732-6.732s6.729,3.014,6.729,6.732C1243.842,147.276,1240.827,150.29,1237.11,150.29z M1293.68,566.291
	c-3.719,0-6.729-3.014-6.729-6.732c0-3.718,3.016-6.729,6.729-6.729c3.721,0,6.732,3.014,6.732,6.729
	C1300.41,563.277,1297.399,566.291,1293.68,566.291z M1293.68,514.29c-3.719,0-6.729-3.014-6.729-6.732
	c0-3.718,3.016-6.729,6.729-6.729c3.721,0,6.732,3.014,6.732,6.729C1300.41,511.276,1297.399,514.29,1293.68,514.29z
	 M1293.68,462.29c-3.719,0-6.729-3.014-6.729-6.732c0-3.718,3.016-6.729,6.729-6.729c3.721,0,6.732,3.014,6.732,6.729
	C1300.41,459.276,1297.399,462.29,1293.68,462.29z M1293.68,410.29c-3.719,0-6.729-3.014-6.729-6.732
	c0-3.718,3.016-6.729,6.729-6.729c3.721,0,6.732,3.014,6.732,6.729C1300.41,407.276,1297.399,410.29,1293.68,410.29z
	 M1293.68,358.29c-3.719,0-6.729-3.014-6.729-6.732c0-3.718,3.016-6.731,6.729-6.731c3.721,0,6.732,3.014,6.732,6.731
	C1300.41,355.276,1297.399,358.29,1293.68,358.29z M1293.68,306.29c-3.719,0-6.729-3.014-6.729-6.732
	c0-3.718,3.016-6.732,6.729-6.732c3.721,0,6.732,3.014,6.732,6.732C1300.41,303.276,1297.399,306.29,1293.68,306.29z
	 M1293.68,254.29c-3.719,0-6.729-3.014-6.729-6.732c0-3.718,3.016-6.732,6.729-6.732c3.721,0,6.732,3.014,6.732,6.732
	C1300.41,251.276,1297.399,254.29,1293.68,254.29z M1350.25,604.829c3.717,0,6.729,3.014,6.729,6.729
	c0,3.719-3.014,6.731-6.729,6.731c-3.719,0-6.731-3.014-6.731-6.731C1343.519,607.843,1346.531,604.829,1350.25,604.829z
	 M1350.25,552.829c3.717,0,6.729,3.014,6.729,6.729c0,3.719-3.014,6.731-6.729,6.731c-3.719,0-6.731-3.014-6.731-6.731
	C1343.519,555.843,1346.531,552.829,1350.25,552.829z M1350.25,500.828c3.717,0,6.729,3.014,6.729,6.729
	c0,3.719-3.014,6.731-6.729,6.731c-3.719,0-6.731-3.014-6.731-6.731C1343.519,503.842,1346.531,500.828,1350.25,500.828z
	 M1350.25,448.828c3.717,0,6.729,3.014,6.729,6.729c0,3.719-3.014,6.731-6.729,6.731c-3.719,0-6.731-3.014-6.731-6.731
	C1343.519,451.842,1346.531,448.828,1350.25,448.828z M1350.25,396.828c3.717,0,6.729,3.014,6.729,6.731
	c0,3.717-3.014,6.731-6.729,6.731c-3.719,0-6.731-3.014-6.731-6.731C1343.519,399.842,1346.531,396.828,1350.25,396.828z
	 M1350.25,344.826c3.718,0,6.73,3.014,6.73,6.732c0,3.718-3.014,6.732-6.73,6.732c-3.72,0-6.732-3.014-6.732-6.732
	C1343.518,347.84,1346.531,344.826,1350.25,344.826z M1350.25,292.826c3.718,0,6.73,3.014,6.73,6.732
	c0,3.718-3.014,6.732-6.73,6.732c-3.72,0-6.732-3.014-6.732-6.732C1343.518,295.84,1346.531,292.826,1350.25,292.826z
	 M1350.25,240.826c3.718,0,6.73,3.014,6.73,6.732c0,3.718-3.014,6.732-6.73,6.732c-3.72,0-6.732-3.014-6.732-6.732
	C1343.518,243.84,1346.531,240.826,1350.25,240.826z M1406.821,670.289c-3.72,0-6.73-3.014-6.73-6.732
	c0-3.717,3.015-6.729,6.73-6.729s6.729,3.016,6.729,6.729C1413.553,667.275,1410.538,670.289,1406.821,670.289z M1406.821,604.829
	c3.719,0,6.731,3.014,6.731,6.729c0,3.719-3.015,6.731-6.731,6.731s-6.729-3.014-6.729-6.731
	C1400.09,607.843,1403.104,604.829,1406.821,604.829z M1406.821,552.829c3.719,0,6.731,3.014,6.731,6.729
	c0,3.719-3.015,6.731-6.731,6.731s-6.729-3.014-6.729-6.731C1400.09,555.843,1403.104,552.829,1406.821,552.829z M1406.821,500.828
	c3.719,0,6.731,3.014,6.731,6.729c0,3.719-3.015,6.731-6.731,6.731s-6.729-3.014-6.729-6.731
	C1400.09,503.842,1403.104,500.828,1406.821,500.828z M1406.821,448.828c3.719,0,6.731,3.014,6.731,6.729
	c0,3.719-3.015,6.731-6.731,6.731s-6.729-3.014-6.729-6.731C1400.09,451.842,1403.104,448.828,1406.821,448.828z M1406.821,396.828
	c3.719,0,6.731,3.014,6.731,6.731c0,3.717-3.015,6.731-6.731,6.731s-6.729-3.014-6.729-6.731
	C1400.091,399.842,1403.104,396.828,1406.821,396.828z M1406.821,344.826c3.719,0,6.732,3.014,6.732,6.732
	c0,3.718-3.014,6.732-6.732,6.732c-3.718,0-6.73-3.014-6.73-6.732C1400.089,347.84,1403.103,344.826,1406.821,344.826z
	 M1463.393,722.289c-3.719,0-6.729-3.014-6.729-6.732c0-3.717,3.016-6.729,6.729-6.729c3.721,0,6.732,3.016,6.732,6.729
	C1470.125,719.275,1467.112,722.289,1463.393,722.289z M1463.393,670.289c-3.719,0-6.729-3.014-6.729-6.732
	c0-3.717,3.016-6.729,6.729-6.729c3.721,0,6.732,3.016,6.732,6.729C1470.125,667.275,1467.112,670.289,1463.393,670.289z
	 M1463.393,618.291c-3.719,0-6.729-3.014-6.729-6.732c0-3.718,3.016-6.729,6.729-6.729c3.721,0,6.732,3.014,6.732,6.729
	C1470.125,615.277,1467.112,618.291,1463.393,618.291z M1463.393,566.291c-3.719,0-6.729-3.014-6.729-6.732
	c0-3.718,3.016-6.729,6.729-6.729c3.721,0,6.732,3.014,6.732,6.729C1470.125,563.277,1467.112,566.291,1463.393,566.291z
	 M1463.393,514.29c-3.719,0-6.729-3.014-6.729-6.732c0-3.718,3.016-6.729,6.729-6.729c3.721,0,6.732,3.014,6.732,6.729
	C1470.125,511.276,1467.112,514.29,1463.393,514.29z M1463.393,462.29c-3.719,0-6.729-3.014-6.729-6.732
	c0-3.718,3.016-6.729,6.729-6.729c3.721,0,6.732,3.014,6.732,6.729C1470.125,459.276,1467.112,462.29,1463.393,462.29z
	 M1463.393,410.29c-3.719,0-6.729-3.014-6.729-6.732c0-3.718,3.016-6.729,6.729-6.729c3.721,0,6.732,3.014,6.732,6.729
	C1470.125,407.276,1467.112,410.29,1463.393,410.29z M1519.963,774.289c-3.721,0-6.732-3.014-6.732-6.732
	c0-3.717,3.017-6.729,6.732-6.729c3.715,0,6.73,3.016,6.73,6.729C1526.696,771.275,1523.682,774.289,1519.963,774.289z
	 M1519.963,722.289c-3.721,0-6.732-3.014-6.732-6.732c0-3.717,3.017-6.729,6.732-6.729c3.715,0,6.73,3.016,6.73,6.729
	C1526.696,719.275,1523.682,722.289,1519.963,722.289z M1519.963,670.289c-3.721,0-6.732-3.014-6.732-6.732
	c0-3.717,3.017-6.729,6.732-6.729c3.715,0,6.73,3.016,6.73,6.729C1526.696,667.275,1523.682,670.289,1519.963,670.289z
	 M1519.963,604.829c3.717,0,6.729,3.014,6.729,6.729c0,3.719-3.014,6.731-6.729,6.731c-3.719,0-6.731-3.014-6.731-6.731
	C1513.232,607.843,1516.244,604.829,1519.963,604.829z M1519.963,552.829c3.717,0,6.729,3.014,6.729,6.729
	c0,3.719-3.014,6.731-6.729,6.731c-3.719,0-6.731-3.014-6.731-6.731C1513.232,555.843,1516.244,552.829,1519.963,552.829z
	 M1519.963,500.828c3.717,0,6.729,3.014,6.729,6.729c0,3.719-3.014,6.731-6.729,6.731c-3.719,0-6.731-3.014-6.731-6.731
	C1513.232,503.842,1516.244,500.828,1519.963,500.828z M1519.963,448.828c3.717,0,6.729,3.014,6.729,6.729
	c0,3.719-3.014,6.731-6.729,6.731c-3.719,0-6.731-3.014-6.731-6.731C1513.232,451.842,1516.244,448.828,1519.963,448.828z
	 M1576.532,774.289c-3.719,0-6.73-3.014-6.73-6.732c0-3.717,3.017-6.729,6.73-6.729c3.716,0,6.729,3.016,6.729,6.729
	C1583.266,771.275,1580.252,774.289,1576.532,774.289z M1576.532,722.289c-3.719,0-6.73-3.014-6.73-6.732
	c0-3.717,3.017-6.729,6.73-6.729c3.716,0,6.729,3.016,6.729,6.729C1583.266,719.275,1580.252,722.289,1576.532,722.289z
	 M1576.532,670.289c-3.719,0-6.73-3.014-6.73-6.732c0-3.717,3.017-6.729,6.73-6.729c3.716,0,6.729,3.016,6.729,6.729
	C1583.266,667.275,1580.252,670.289,1576.532,670.289z M1576.532,604.829c3.718,0,6.731,3.014,6.731,6.729
	c0,3.719-3.015,6.731-6.731,6.731s-6.729-3.014-6.729-6.731C1569.803,607.843,1572.817,604.829,1576.532,604.829z M1576.532,552.829
	c3.718,0,6.731,3.014,6.731,6.729c0,3.719-3.015,6.731-6.731,6.731s-6.729-3.014-6.729-6.731
	C1569.803,555.843,1572.817,552.829,1576.532,552.829z M1576.532,500.828c3.718,0,6.731,3.014,6.731,6.729
	c0,3.719-3.015,6.731-6.731,6.731s-6.729-3.014-6.729-6.731C1569.803,503.842,1572.817,500.828,1576.532,500.828z M1633.104,826.289
	c-3.719,0-6.729-3.014-6.729-6.732c0-3.717,3.014-6.729,6.729-6.729c3.721,0,6.732,3.016,6.732,6.729
	C1639.836,823.275,1636.823,826.289,1633.104,826.289z M1633.104,774.289c-3.719,0-6.729-3.014-6.729-6.732
	c0-3.717,3.014-6.729,6.729-6.729c3.721,0,6.732,3.016,6.732,6.729C1639.836,771.275,1636.823,774.289,1633.104,774.289z
	 M1633.104,722.289c-3.719,0-6.729-3.014-6.729-6.732c0-3.717,3.014-6.729,6.729-6.729c3.721,0,6.732,3.016,6.732,6.729
	C1639.836,719.275,1636.823,722.289,1633.104,722.289z M1633.104,670.289c-3.719,0-6.729-3.014-6.729-6.732
	c0-3.717,3.014-6.729,6.729-6.729c3.721,0,6.732,3.016,6.732,6.729C1639.836,667.275,1636.823,670.289,1633.104,670.289z
	 M1633.104,618.291c-3.719,0-6.729-3.014-6.729-6.732c0-3.718,3.014-6.729,6.729-6.729c3.721,0,6.732,3.014,6.732,6.729
	C1639.836,615.277,1636.823,618.291,1633.104,618.291z M1633.104,566.291c-3.719,0-6.729-3.014-6.729-6.732
	c0-3.718,3.014-6.729,6.729-6.729c3.721,0,6.732,3.014,6.732,6.729C1639.836,563.277,1636.823,566.291,1633.104,566.291z
	 M1633.104,514.29c-3.719,0-6.729-3.014-6.729-6.732c0-3.718,3.014-6.729,6.729-6.729c3.721,0,6.732,3.014,6.732,6.729
	C1639.836,511.276,1636.823,514.29,1633.104,514.29z M1689.674,826.289c-3.721,0-6.732-3.014-6.732-6.732
	c0-3.717,3.017-6.729,6.732-6.729c3.715,0,6.73,3.016,6.73,6.729C1696.406,823.275,1693.393,826.289,1689.674,826.289z
	 M1689.674,774.289c-3.721,0-6.732-3.014-6.732-6.732c0-3.717,3.017-6.729,6.732-6.729c3.715,0,6.73,3.016,6.73,6.729
	C1696.406,771.275,1693.393,774.289,1689.674,774.289z M1689.674,722.289c-3.721,0-6.732-3.014-6.732-6.732
	c0-3.717,3.017-6.729,6.732-6.729c3.715,0,6.73,3.016,6.73,6.729C1696.406,719.275,1693.393,722.289,1689.674,722.289z
	 M1689.674,670.289c-3.721,0-6.732-3.014-6.732-6.732c0-3.717,3.017-6.729,6.732-6.729c3.715,0,6.73,3.016,6.73,6.729
	C1696.406,667.275,1693.393,670.289,1689.674,670.289z M1689.674,604.829c3.717,0,6.729,3.014,6.729,6.729
	c0,3.719-3.014,6.731-6.729,6.731c-3.719,0-6.731-3.014-6.731-6.731C1682.943,607.843,1685.955,604.829,1689.674,604.829z
	 M1689.674,552.829c3.717,0,6.729,3.014,6.729,6.729c0,3.719-3.014,6.731-6.729,6.731c-3.719,0-6.731-3.014-6.731-6.731
	C1682.943,555.843,1685.955,552.829,1689.674,552.829z M1746.243,878.289c-3.719,0-6.73-3.014-6.73-6.732
	c0-3.717,3.017-6.729,6.73-6.729c3.716,0,6.729,3.016,6.729,6.729C1752.977,875.275,1749.963,878.289,1746.243,878.289z
	 M1746.243,826.289c-3.719,0-6.73-3.014-6.73-6.732c0-3.717,3.017-6.729,6.73-6.729c3.716,0,6.729,3.016,6.729,6.729
	C1752.977,823.275,1749.963,826.289,1746.243,826.289z M1746.243,774.289c-3.719,0-6.73-3.014-6.73-6.732
	c0-3.717,3.017-6.729,6.73-6.729c3.716,0,6.729,3.016,6.729,6.729C1752.977,771.275,1749.963,774.289,1746.243,774.289z
	 M1746.243,722.289c-3.719,0-6.73-3.014-6.73-6.732c0-3.717,3.017-6.729,6.73-6.729c3.716,0,6.729,3.016,6.729,6.729
	C1752.977,719.275,1749.963,722.289,1746.243,722.289z M1746.243,670.289c-3.719,0-6.73-3.014-6.73-6.732
	c0-3.717,3.017-6.729,6.73-6.729c3.716,0,6.729,3.016,6.729,6.729C1752.977,667.275,1749.963,670.289,1746.243,670.289z
	 M1746.243,604.829c3.719,0,6.731,3.014,6.731,6.729c0,3.719-3.014,6.731-6.731,6.731c-3.717,0-6.729-3.014-6.729-6.731
	C1739.514,607.843,1742.528,604.829,1746.243,604.829z M1802.814,930.289c-3.721,0-6.731-3.014-6.731-6.732
	c0-3.717,3.016-6.729,6.731-6.729c3.719,0,6.729,3.016,6.729,6.729C1809.547,927.275,1806.532,930.289,1802.814,930.289z
	 M1802.814,878.289c-3.721,0-6.731-3.014-6.731-6.732c0-3.717,3.016-6.729,6.731-6.729c3.719,0,6.729,3.016,6.729,6.729
	C1809.547,875.275,1806.532,878.289,1802.814,878.289z M1802.814,826.289c-3.721,0-6.731-3.014-6.731-6.732
	c0-3.717,3.016-6.729,6.731-6.729c3.719,0,6.729,3.016,6.729,6.729C1809.547,823.275,1806.532,826.289,1802.814,826.289z
	 M1802.814,774.289c-3.721,0-6.731-3.014-6.731-6.732c0-3.717,3.016-6.729,6.731-6.729c3.719,0,6.729,3.016,6.729,6.729
	C1809.547,771.275,1806.532,774.289,1802.814,774.289z M1802.814,722.289c-3.721,0-6.731-3.014-6.731-6.732
	c0-3.717,3.016-6.729,6.731-6.729c3.719,0,6.729,3.016,6.729,6.729C1809.547,719.275,1806.532,722.289,1802.814,722.289z
	 M1802.814,670.289c-3.721,0-6.731-3.014-6.731-6.732c0-3.717,3.016-6.729,6.731-6.729c3.719,0,6.729,3.016,6.729,6.729
	C1809.547,667.275,1806.532,670.289,1802.814,670.289z M1859.385,982.289c-3.719,0-6.729-3.014-6.729-6.732
	c0-3.717,3.016-6.729,6.729-6.729c3.719,0,6.73,3.016,6.73,6.729C1866.116,979.275,1863.104,982.289,1859.385,982.289z
	 M1859.385,930.289c-3.719,0-6.729-3.014-6.729-6.732c0-3.717,3.016-6.729,6.729-6.729c3.719,0,6.73,3.016,6.73,6.729
	C1866.116,927.275,1863.104,930.289,1859.385,930.289z M1859.385,878.289c-3.719,0-6.729-3.014-6.729-6.732
	c0-3.717,3.016-6.729,6.729-6.729c3.719,0,6.73,3.016,6.73,6.729C1866.116,875.275,1863.104,878.289,1859.385,878.289z
	 M1859.385,826.289c-3.719,0-6.729-3.014-6.729-6.732c0-3.717,3.016-6.729,6.729-6.729c3.719,0,6.73,3.016,6.73,6.729
	C1866.116,823.275,1863.104,826.289,1859.385,826.289z M1859.385,774.289c-3.719,0-6.729-3.014-6.729-6.732
	c0-3.717,3.016-6.729,6.729-6.729c3.719,0,6.73,3.016,6.73,6.729C1866.116,771.275,1863.104,774.289,1859.385,774.289z
	 M1859.385,722.289c-3.719,0-6.729-3.014-6.729-6.732c0-3.717,3.016-6.729,6.729-6.729c3.719,0,6.73,3.016,6.73,6.729
	C1866.116,719.275,1863.104,722.289,1859.385,722.289z M1915.954,1020.829c3.719,0,6.73,3.013,6.73,6.729s-3.013,6.73-6.73,6.73
	c-3.717,0-6.729-3.015-6.729-6.73S1912.239,1020.829,1915.954,1020.829z M1915.954,982.289c-3.719,0-6.73-3.014-6.73-6.732
	c0-3.717,3.017-6.729,6.73-6.729c3.716,0,6.732,3.016,6.732,6.729C1922.688,979.275,1919.674,982.289,1915.954,982.289z
	 M1915.954,930.289c-3.719,0-6.73-3.014-6.73-6.732c0-3.717,3.017-6.729,6.73-6.729c3.716,0,6.732,3.016,6.732,6.729
	C1922.688,927.275,1919.674,930.289,1915.954,930.289z M1915.954,878.289c-3.719,0-6.73-3.014-6.73-6.732
	c0-3.717,3.017-6.729,6.73-6.729c3.716,0,6.732,3.016,6.732,6.729C1922.688,875.275,1919.674,878.289,1915.954,878.289z
	 M1915.954,826.289c-3.719,0-6.73-3.014-6.73-6.732c0-3.717,3.017-6.729,6.73-6.729c3.716,0,6.732,3.016,6.732,6.729
	C1922.688,823.275,1919.674,826.289,1915.954,826.289z M1915.954,774.289c-3.719,0-6.73-3.014-6.73-6.732
	c0-3.717,3.017-6.729,6.73-6.729c3.716,0,6.732,3.016,6.732,6.729C1922.688,771.275,1919.674,774.289,1915.954,774.289z
	 M1972.526,1086.289c-3.722,0-6.732-3.014-6.732-6.732c0-3.717,3.016-6.729,6.732-6.729s6.729,3.014,6.729,6.729
	C1979.258,1083.275,1976.243,1086.289,1972.526,1086.289z M1972.526,1034.289c-3.722,0-6.732-3.014-6.732-6.732
	c0-3.717,3.016-6.729,6.732-6.729s6.729,3.014,6.729,6.729C1979.258,1031.275,1976.243,1034.289,1972.526,1034.289z
	 M1972.526,982.289c-3.722,0-6.732-3.014-6.732-6.732c0-3.717,3.016-6.729,6.732-6.729s6.729,3.016,6.729,6.729
	C1979.258,979.275,1976.243,982.289,1972.526,982.289z M1972.526,930.289c-3.722,0-6.732-3.014-6.732-6.732
	c0-3.717,3.016-6.729,6.732-6.729s6.729,3.016,6.729,6.729C1979.258,927.275,1976.243,930.289,1972.526,930.289z M1972.526,878.289
	c-3.722,0-6.732-3.014-6.732-6.732c0-3.717,3.016-6.729,6.732-6.729s6.729,3.016,6.729,6.729
	C1979.258,875.275,1976.243,878.289,1972.526,878.289z M1972.526,826.289c-3.722,0-6.732-3.014-6.732-6.732
	c0-3.717,3.016-6.729,6.732-6.729s6.729,3.016,6.729,6.729C1979.258,823.275,1976.243,826.289,1972.526,826.289z M2029.096,1072.829
	c3.717,0,6.729,3.013,6.729,6.729c0,3.717-3.013,6.73-6.729,6.73c-3.717,0-6.73-3.015-6.73-6.73
	S2025.379,1072.829,2029.096,1072.829z M2029.096,1020.829c3.717,0,6.729,3.013,6.729,6.729s-3.013,6.73-6.729,6.73
	c-3.717,0-6.73-3.015-6.73-6.73S2025.379,1020.829,2029.096,1020.829z M2029.096,982.289c-3.719,0-6.729-3.014-6.729-6.732
	c0-3.717,3.016-6.729,6.729-6.729c3.719,0,6.73,3.016,6.73,6.729C2035.827,979.275,2032.814,982.289,2029.096,982.289z
	 M2029.096,930.289c-3.719,0-6.729-3.014-6.729-6.732c0-3.717,3.016-6.729,6.729-6.729c3.719,0,6.73,3.016,6.73,6.729
	C2035.827,927.275,2032.814,930.289,2029.096,930.289z M2029.096,878.289c-3.719,0-6.729-3.014-6.729-6.732
	c0-3.717,3.016-6.729,6.729-6.729c3.719,0,6.73,3.016,6.73,6.729C2035.827,875.275,2032.814,878.289,2029.096,878.289z
	 M2085.666,1072.829c3.717,0,6.729,3.013,6.729,6.729c0,3.717-3.014,6.73-6.729,6.73c-3.717,0-6.729-3.015-6.729-6.73
	S2081.948,1072.829,2085.666,1072.829z M2085.666,1020.829c3.717,0,6.729,3.013,6.729,6.729s-3.014,6.73-6.729,6.73
	c-3.717,0-6.729-3.015-6.729-6.73S2081.948,1020.829,2085.666,1020.829z M2085.666,982.289c-3.72,0-6.73-3.014-6.73-6.732
	c0-3.717,3.016-6.729,6.73-6.729c3.713,0,6.73,3.016,6.73,6.729C2092.398,979.275,2089.385,982.289,2085.666,982.289z
	 M2085.666,930.289c-3.72,0-6.73-3.014-6.73-6.732c0-3.717,3.016-6.729,6.73-6.729c3.713,0,6.73,3.016,6.73,6.729
	C2092.398,927.275,2089.385,930.289,2085.666,930.289z M2085.666,878.289c-3.72,0-6.73-3.014-6.73-6.732
	c0-3.717,3.016-6.729,6.73-6.729c3.713,0,6.73,3.016,6.73,6.729C2092.398,875.275,2089.385,878.289,2085.666,878.289z
	 M2142.237,1020.829c3.717,0,6.73,3.013,6.73,6.729s-3.014,6.73-6.73,6.73c-3.716,0-6.729-3.015-6.729-6.73
	S2138.52,1020.829,2142.237,1020.829z M2142.237,982.289c-3.72,0-6.73-3.014-6.73-6.732c0-3.717,3.015-6.729,6.73-6.729
	c3.717,0,6.729,3.016,6.729,6.729C2148.969,979.275,2145.955,982.289,2142.237,982.289z M2142.237,930.289
	c-3.72,0-6.73-3.014-6.73-6.732c0-3.717,3.015-6.729,6.73-6.729c3.717,0,6.729,3.016,6.729,6.729
	C2148.969,927.275,2145.955,930.289,2142.237,930.289z M2142.237,878.289c-3.72,0-6.73-3.014-6.73-6.732
	c0-3.717,3.015-6.729,6.73-6.729c3.717,0,6.729,3.016,6.729,6.729C2148.969,875.275,2145.955,878.289,2142.237,878.289z
	 M2198.807,930.289c-3.719,0-6.729-3.014-6.729-6.732c0-3.717,3.015-6.729,6.729-6.729c3.719,0,6.73,3.016,6.73,6.729
	C2205.539,927.275,2202.525,930.289,2198.807,930.289z M2198.807,878.289c-3.719,0-6.729-3.014-6.729-6.732
	c0-3.717,3.015-6.729,6.729-6.729c3.719,0,6.73,3.016,6.73,6.729C2205.539,875.275,2202.525,878.289,2198.807,878.289z
	 M2255.377,878.289c-3.721,0-6.732-3.014-6.732-6.732c0-3.717,3.018-6.729,6.732-6.729c3.713,0,6.73,3.016,6.73,6.729
	C2262.11,875.275,2259.096,878.289,2255.377,878.289z M1125.916,73.564c5.651-7.935,14.93-13.109,25.412-13.109
	c17.223,0,31.183,13.96,31.183,31.181c0,7.581-2.65,13.417-6.996,19.361c-3.402,4.653-1.229,11.289,5.024,11.289
	c65.174-7.044,109.021-8.652,123.918-4.857c20.814,5.302,24.671,34.974,23.72,45.182c-0.153,1.683-0.442,2.958-0.909,4.016
	c-1.031,2.347-5.684,7.873-31.107,36.953c-18.234,20.864-40.932,46.827-44.656,52.809c-0.699,1.128-1.16,2.026-1.465,2.721
	c0.68-0.179,1.5-0.469,2.428-0.912c5.687-2.729,41.896-34.225,53.791-44.576c4.09-3.556,6.793-5.905,7.838-6.777
	c3.396-2.812,8.551-4.513,13.801-4.549c5.891-0.037,10.99,2.008,13.979,5.613c0.596,0.716,1.547,1.629,2.752,2.783
	c5.607,5.368,17.281,16.543,41.24,53.668c19.527,30.262,71.549,72.547,126.623,117.32c25.697,20.885,52.266,42.482,76.496,63.666
	c75.248,65.775,311.096,266.541,313.469,268.562l0.213,0.182l0.195,0.203c0.799,0.828,81.018,83.348,180.143,122.361
	c55.496,21.844,210.916-5.871,212.479-6.154l13.108-2.369l-7.396,11.094l-168.404,252.709l-1.481,2.229l-2.664,0.271
	c-1.414,0.141-142.121,14.298-178.627,16.942c-31.559,2.287-43.447-19.912-54.949-41.381c-3.611-6.742-7.348-13.716-11.744-20.195
	c-17.742-26.154-88.262-98.854-93.051-103.786c-43.94-34.854-222.678-125.854-306.437-164.987
	c-48.222-22.531-64.983-48.168-82.729-75.311c-11.035-16.873-22.443-34.322-42.537-51.432
	c-50.119-42.682-90.488-49.992-199.842-64.854c-14.658-1.992-32.148-3.979-51.984-5.92c-1.201-0.119-2.373-0.149-3.615-0.186
	c-4.613-0.127-10.354-0.289-15.182-5.852c-4.479-5.164-4.841-10.744-5.157-15.67c-0.085-1.334-0.167-2.59-0.319-3.857
	c-2.678-21.867-12.507-42.399-27.673-57.812c-15.562-15.812-35.286-25.246-57.021-27.268c-42.065-3.917-82.116,22.167-97.396,63.432
	c-0.927,2.508-1.677,4.283-2.278,5.71c-1.433,3.385-1.911,4.526-2.489,10.729c-0.273,2.919-5.492,10.548-6.467,11.417
	c-6.385,5.702-13.075,5.26-18.977,4.862c-1.146-0.073-2.334-0.153-3.49-0.187c-36.557-1-61.594-0.854-70.489,0.408
	c-32.228,4.573-103.346,22.146-117.073,28.186c-7.169,3.156-12.828,3.375-17.303,0.68c-5.805-3.49-7.214-10.519-7.742-17.078
	c-2.326-7.597-26.754-86.729-50.638-137.605c-17.121-36.474-47.06-69.703-64.942-89.556c-10.369-11.509-15.014-16.755-16.484-20.538
	c-3.73-9.598-14.193-43.938-16.673-52.305c-0.143-0.481-0.267-0.964-0.373-1.449h0.007l-9.732-34.94l-1.102-5.644
	c-0.028-0.136-2.771-13.848-10.843-21.098c-9.261-8.32-21.237-14.162-55.721-27.177c-33.144-12.508-54.742-17.724-72.221-17.438
	c-8.798,0.143-102.129,7.139-184.474,13.308c-79.843,5.983-148.795,11.152-155.368,11.257c-6.517,0.107-10.723-1.11-13.239-3.828
	c-1.669-1.802-2.46-4.174-2.227-6.679c0.376-4.037,3.258-8.241,9.343-13.631c10.416-9.229,93.931-57.624,134.531-77.068
	c5.976-2.862,13.778-6.785,22.814-11.324C220.148,58.468,319.577,8.506,385.555,3.89c73.843-5.166,215.2-5.188,336.123-0.056
	c116.872,4.965,327.105,56.869,373.689,73.718c1.081,0.391,2.176,0.798,3.271,1.223h-0.006c9.292,2.276,20.248,2.203,27.291-5.205
	L1125.916,73.564z"/>
</svg>
