<?xml version="1.0" encoding="utf-8"?>
<!-- Generator: Adobe Illustrator 16.0.0, SVG Export Plug-In . SVG Version: 6.00 Build 0)  -->
<!DOCTYPE svg PUBLIC "-//W3C//DTD SVG 1.1//EN" "http://www.w3.org/Graphics/SVG/1.1/DTD/svg11.dtd">
<svg version="1.1" id="Layer_1" xmlns="http://www.w3.org/2000/svg" xmlns:xlink="http://www.w3.org/1999/xlink" x="0px" y="0px"
	 width="781.395px" height="817.844px" viewBox="0 0 781.395 817.844" enable-background="new 0 0 781.395 817.844"
	 xml:space="preserve">
<path d="M780.918,80.113c-2.058-7.958-0.105-13.555-5.752-22.281c-5.65-8.727-27.884-48.822-31.119-54.776
	c-3.234-5.955-12.783-3.49-15.861,10.886c-3.076,14.376-63.969,228.776-83.961,279.704
	c-21.506,54.783-71.488,183.181-82.994,197.974c-44.607,57.352-153.797,167.021-159.34,171.85s-11.914,8.892-11.914,8.892
	s-6.358-3.25-11.895-8.095c-5.528-4.842-114.444-114.778-158.91-172.243c-11.47-14.816-61.135-143.34-82.504-198.174
	C116.802,242.869,56.443,28.318,53.4,13.934C50.358-0.451,40.814-2.939,37.564,3.007c-3.25,5.946-25.582,45.985-31.252,54.697
	c-5.67,8.713-3.73,14.314-5.808,22.268C-1.57,87.924,3.346,192.823,4.592,227.12c1.247,34.298,12.869,185.11,14.253,205.853
	c1.384,20.746,12.663,44.58,19.364,56.015c8.229,14.039,72.058,88.438,113.134,126.332
	c41.076,37.893,180.974,159.311,198.743,175.836c17.771,16.522,24.979,24.551,39.712,26.688c14.73-2.104,21.966-10.938,39.775-27.42
	c17.812-16.479,158.013-137.555,199.181-175.344c41.17-37.791,105.182-112.033,113.444-126.051
	c6.729-11.414,18.064-35.226,19.502-55.961c1.438-20.742,13.435-171.528,14.767-205.822S782.973,88.071,780.918,80.113z"/>
</svg>
