<?xml version="1.0" encoding="utf-8"?>
<!-- Generator: Adobe Illustrator 16.0.0, SVG Export Plug-In . SVG Version: 6.00 Build 0)  -->
<!DOCTYPE svg PUBLIC "-//W3C//DTD SVG 1.1//EN" "http://www.w3.org/Graphics/SVG/1.1/DTD/svg11.dtd">
<svg version="1.1" id="Layer_1" xmlns="http://www.w3.org/2000/svg" xmlns:xlink="http://www.w3.org/1999/xlink" x="0px" y="0px"
	 width="2202.672px" height="667.221px" viewBox="0 0 2202.672 667.221" enable-background="new 0 0 2202.672 667.221"
	 xml:space="preserve">
<path fill="none" stroke="#000001" stroke-linejoin="round" stroke-miterlimit="10" d="M1220.462,517.269
	c1.044-0.047,2.312-0.243,3.838-0.615c10.646-2.601,595.105-136.646,602.056-138.845c6.948-2.19,13.393-1.168,6.364,5.636
	c-7.022,6.805-331.688,271.336-337.248,273.092c-5.559,1.756-9.397,11.375,2.603,10.646c11.998-0.729,505.311-57.856,514.096-59.103
	c8.779-1.244,14.305-0.693,19.572-13.058c5.27-12.364,68.432-214.225,89.217-274.289c20.785-60.066,73.809-204.454,78.09-212.685
	c4.281-8.23,7.174-16.021-5.705-18.072c-12.877-2.05-265.875-38.365-343.174-48.359c-77.299-9.995-323.057-37.896-330.885-38.482
	c-2.913-0.218-5.37-1.003-7.846-0.986c0.001,0.001-30.548-1.842-30.549-1.843c-2.791-0.292-6.247-0.323-10.24-0.298
	c-14.853,0.094-356.37,5.946-416.498,8.55c-60.127,2.603-395.611,24.012-423.061,27.896c-27.449,3.885-55.615,11.486-71.916,16.786
	c-16.303,5.301-32.57,16.539-44.383,27.008c-11.817,10.471-124.787,111.418-202.301,183.185
	c-63.886,59.148-184.312,190.27-230.051,240.821c-10.689,7.262-23.139,18.944-37.25,14.575l0.006-0.004
	c-4.214-2.124-8.975-3.32-14.017-3.32C13.96,515.505,0,529.465,0,546.686s13.96,31.182,31.181,31.182
	c13.507,0,25.007-8.589,29.34-20.601l-0.001-0.001c8.481-16.211,29.714-17.091,45.665-18.351
	c60.92,2.847,188.852,8.986,289.032,10.611c132.178,2.139,287.389,6.363,402.449,1.188c115.058-5.178,366.616-29.771,379.975-30.598
	l42.821-2.852V517.269z"/>
</svg>
