<?xml version="1.0" encoding="utf-8"?>
<!-- Generator: Adobe Illustrator 16.0.0, SVG Export Plug-In . SVG Version: 6.00 Build 0)  -->
<!DOCTYPE svg PUBLIC "-//W3C//DTD SVG 1.1//EN" "http://www.w3.org/Graphics/SVG/1.1/DTD/svg11.dtd">
<svg version="1.1" id="Layer_1" xmlns="http://www.w3.org/2000/svg" xmlns:xlink="http://www.w3.org/1999/xlink" x="0px" y="0px"
	 width="2176.809px" height="785.465px" viewBox="0 0 2176.809 785.465" enable-background="new 0 0 2176.809 785.465"
	 xml:space="preserve">
<path fill="none" stroke="#000001" stroke-linejoin="round" stroke-miterlimit="10" d="M747.228,33.79
	c-4.891,38.237-44.957,50.392-78.045,51.202c-17.632,0.433-35.265,0.865-52.898,1.297c-20.482,0.502-40.964,1.004-61.446,1.507
	c-22.119,0.542-44.238,1.085-66.357,1.627c-22.544,0.553-45.089,1.105-67.634,1.659c-21.759,0.533-43.517,1.067-65.276,1.601
	c-19.761,0.485-39.522,0.969-59.283,1.454c-16.551,0.406-33.103,0.812-49.654,1.218c-12.13,0.298-24.26,0.595-36.39,0.893
	c-6.497,0.159-12.994,0.319-19.491,0.478c-0.764,0.019-1.527,0.038-2.291,0.056c-11.385-0.125-170.274,3.343-177.557,3.634
	c-7.28,0.294-12.827,3.872-10.274,9.315c1.992,4.246,54.387,142.987,101.785,281.87c45.77,134.114,86.605,268.503,88.055,274.249
	c2.949,11.699,15.256,12.955,28.587,14.316c11.871,1.21,389.505,48.799,478.651,59.88c14.988,3.825,31.967,8.92,39.748,23.583
	l-0.001-0.001c3.969,12.657,15.791,21.84,29.758,21.84c17.221,0,31.182-13.96,31.182-31.181s-13.961-31.182-31.182-31.182
	c-4.306,0-8.407,0.872-12.138,2.45l0.805-0.318c-18.856,5.554-36.952-5.601-53.292-13.532c-4.188-3.012-8.696-6.265-13.486-9.743
	c-15.416-36.206-5.105-77.421,11.255-111.361c13.89-28.816,31.932-57.909,60.838-73.641c13.511-7.353,30.726-12.285,46.227-12.285
	c103.338,10.479,299.418,30.086,433.028,26.088c133.607-3.998,211.774-1.592,390.76-15.225
	c178.985-13.629,526.728-60.219,526.728-60.219c12.92-1.865,25.104-6.175,15.319-16.229
	c-9.778-10.059-169.977-158.396-239.009-215.139c-69.033-56.742-238.867-186.649-251.119-196.586
	c-12.252-9.938-26.357-19.783-78.629-24.685c-52.271-4.899-191.535-2.485-370.938,2.493
	c-179.402,4.98-466.747,19.527-475.987,20.596c-6.93,0.799-9.641,2.44-10.334,7.905L747.228,33.79z"/>
</svg>
