<?xml version="1.0" encoding="utf-8"?>
<!-- Generator: Adobe Illustrator 16.0.0, SVG Export Plug-In . SVG Version: 6.00 Build 0)  -->
<!DOCTYPE svg PUBLIC "-//W3C//DTD SVG 1.1//EN" "http://www.w3.org/Graphics/SVG/1.1/DTD/svg11.dtd">
<svg version="1.1" id="Layer_1" xmlns="http://www.w3.org/2000/svg" xmlns:xlink="http://www.w3.org/1999/xlink" x="0px" y="0px"
	 width="1902.863px" height="849.395px" viewBox="0 0 1902.863 849.395" enable-background="new 0 0 1902.863 849.395"
	 xml:space="preserve">
<path fill="none" stroke="#000000" stroke-linejoin="round" stroke-miterlimit="10" d="M1568.246,779.364
	c-20.854,20.873-53.016,22.553-71.836,3.752c-18.818-18.803-17.17-50.965,3.682-71.84c20.854-20.873,53.018-22.558,71.836-3.75
	C1590.748,726.327,1589.099,758.489,1568.246,779.364z M1841.47,738.004c-2.675-4.278-8.198-3.014-12.312-2.325
	c-29.309,13.378-248.771,109.658-258.396,112.279c-10.209,2.781-14.395,1.215-18.295-2.078c-3.9-3.295-39.887-33.082-91.293-66.258
	c-51.402-33.17-128.352-78.471-193.006-112.023c-64.659-33.547-170.078-72.813-250.971-99.233
	c-80.896-26.42-171.622-30.484-204.287-26.021c-32.665,4.468-112.548,42.979-133.812,53.729
	c-21.261,10.75-28.595,12.223-35.23,9.371c-6.633-2.851-302.658-97.855-311.022-100.986c-8.36-3.131-13.996-6.707-14.3-10.303
	c-0.304-3.599-12.526-32.197-25.776-65.398c-13.251-33.2-52.648-85.723-74.66-114.134c-22.012-28.411-74.331-72.379-98.865-85.229
	C94.707,216.546,13.348,182.063,5.847,179.073c-7.499-2.989-7.968-11.05-0.352-14.252c0,0,79.412-46.572,123.55-61.6
	c44.136-15.025,88.577-26.456,145.424-32.323c56.85-5.869,457.701-37.604,533.852-42.118
	c76.146-4.515,283.395-24.156,337.229-27.851c53.834-3.695,70.283,4.295,103.58,12.354c33.297,8.06,62.973,43.923,97.627,98.338
	c34.657,54.415,469.961,581.904,485.596,600.41c0.479,0.563,0.931,1.112,1.358,1.646c0.409,0.243,0.756,0.585,1.142,0.865
	c2.762,2.013,6.349,4.209,9.265,1.146c5.233-9.872,15.615-16.599,27.567-16.599c17.221,0,31.181,13.96,31.181,31.18
	c0,17.222-13.96,31.182-31.181,31.182c-14.529,0-26.737-9.939-30.198-23.39L1841.47,738.004z"/>
</svg>
