<?xml version="1.0" encoding="utf-8"?>
<!-- Generator: Adobe Illustrator 16.0.0, SVG Export Plug-In . SVG Version: 6.00 Build 0)  -->
<!DOCTYPE svg PUBLIC "-//W3C//DTD SVG 1.1//EN" "http://www.w3.org/Graphics/SVG/1.1/DTD/svg11.dtd">
<svg version="1.1" id="Layer_1" xmlns="http://www.w3.org/2000/svg" xmlns:xlink="http://www.w3.org/1999/xlink" x="0px" y="0px"
	 width="2591.926px" height="1201.843px" viewBox="0 0 2591.926 1201.843" enable-background="new 0 0 2591.926 1201.843"
	 xml:space="preserve">
<path d="M23.782,861.728c-17.481-6.41-35.97,1.643-13.202,14.465c22.764,12.824,128.475,63.172,209.35,134.338
	c80.874,71.166,174.206,172.26,182.381,181.312c8.179,9.053,13.838,11.568,25.094,9.111c11.254-2.453,286.848-56.896,294.832-58.086
	c7.981-1.197,12.702-1.143,23.447-14.656c10.75-13.521,46.516-57.244,87.262-104.896c55.008-64.336,195.396-177.48,195.396-177.48
	L739.387,716.792c0,0-84.997,93.705-137.937,124.4c-52.938,30.688-152.854,46.611-265.848,43.18
	C222.609,880.933,23.782,861.728,23.782,861.728z M2574.815,145.958c-25.72-13.733-55.42-33.295-119.972-49.153
	c-64.55-15.858-136.317-23.225-176.168-27.026c-39.851-3.801-806.737-66.444-833.28-68.688c-26.543-2.243-66.037-1.68-88.102,8.016
	c-22.06,9.695-33.239,1.814-91.688,82.994c-58.445,81.18-239.09,291.761-257.472,314.339
	c-18.382,22.575-253.357,299.942-253.357,299.942c-4.014,4.719-7.08,10.238,1.062,13.094
	c8.145,2.857,253.357,112.156,259.823,116.025c6.464,3.869,14.604,6.727,26.26-1.248c11.654-7.975,83.221-68.25,197.032-127.555
	c113.817-59.311,223.458-105.096,337.65-138.07c114.188-32.976,176.879-29.268,205.096-28.038
	c28.217,1.23,105.812,37.119,143.584,58.662c37.771,21.542,111.354,62.153,120.647,68.424c9.295,6.277,19.534,13.355,29.819-0.648
	c10.287-14.021,153.868-237.412,200.472-291.272c46.603-53.86,76.85-81.793,129.724-112.437
	c52.875-30.645,179.292-97.121,181.84-98.206C2590.334,164.029,2600.529,159.689,2574.815,145.958z M1073.898,784.74
	c-24.875,9.434-53.521-5.283-63.984-32.871c-10.462-27.588,1.222-57.604,26.096-67.033c24.874-9.436,53.521,5.283,63.981,32.869
	C1110.451,745.292,1098.771,775.304,1073.898,784.74z"/>
</svg>
