<?xml version="1.0" encoding="utf-8"?>
<!-- Generator: Adobe Illustrator 16.0.0, SVG Export Plug-In . SVG Version: 6.00 Build 0)  -->
<!DOCTYPE svg PUBLIC "-//W3C//DTD SVG 1.1//EN" "http://www.w3.org/Graphics/SVG/1.1/DTD/svg11.dtd">
<svg version="1.1" id="Layer_1" xmlns="http://www.w3.org/2000/svg" xmlns:xlink="http://www.w3.org/1999/xlink" x="0px" y="0px"
	 width="1902.863px" height="849.395px" viewBox="0 0 1902.863 849.395" enable-background="new 0 0 1902.863 849.395"
	 xml:space="preserve">
<path fill="none" stroke="#000000" stroke-linejoin="round" stroke-miterlimit="10" d="M152.624,140.518
	c3.718,0,6.732,3.014,6.732,6.732s-3.014,6.732-6.732,6.732s-6.732-3.014-6.732-6.732S148.906,140.518,152.624,140.518z
	 M209.194,192.518c3.718,0,6.732,3.014,6.732,6.732s-3.014,6.732-6.732,6.732c-3.718,0-6.732-3.014-6.732-6.732
	S205.476,192.518,209.194,192.518z M209.194,140.518c3.718,0,6.732,3.014,6.732,6.732s-3.014,6.732-6.732,6.732
	c-3.718,0-6.732-3.014-6.732-6.732S205.476,140.518,209.194,140.518z M265.764,244.518c3.718,0,6.732,3.014,6.732,6.732
	s-3.014,6.732-6.732,6.732c-3.718,0-6.732-3.014-6.732-6.732S262.046,244.518,265.764,244.518z M265.764,192.518
	c3.718,0,6.732,3.014,6.732,6.732s-3.014,6.732-6.732,6.732c-3.718,0-6.732-3.014-6.732-6.732S262.046,192.518,265.764,192.518z
	 M265.764,140.518c3.718,0,6.732,3.014,6.732,6.732s-3.014,6.732-6.732,6.732c-3.718,0-6.732-3.014-6.732-6.732
	S262.046,140.518,265.764,140.518z M322.334,296.518c3.718,0,6.732,3.014,6.732,6.732s-3.015,6.732-6.732,6.732
	s-6.732-3.014-6.732-6.732S318.616,296.518,322.334,296.518z M322.334,244.518c3.718,0,6.732,3.014,6.732,6.732
	s-3.015,6.732-6.732,6.732s-6.732-3.014-6.732-6.732S318.616,244.518,322.334,244.518z M322.334,192.518
	c3.718,0,6.732,3.014,6.732,6.732s-3.015,6.732-6.732,6.732s-6.732-3.014-6.732-6.732S318.616,192.518,322.334,192.518z
	 M322.334,140.518c3.718,0,6.732,3.014,6.732,6.732s-3.015,6.732-6.732,6.732s-6.732-3.014-6.732-6.732
	S318.616,140.518,322.334,140.518z M322.334,88.518c3.718,0,6.732,3.014,6.732,6.732s-3.015,6.732-6.732,6.732
	s-6.732-3.014-6.732-6.732S318.616,88.518,322.334,88.518z M378.904,413.983c-3.722,0-6.732-3.018-6.732-6.732
	s3.016-6.732,6.732-6.732c3.716,0,6.729,3.018,6.729,6.732S382.623,413.983,378.904,413.983z M378.904,348.518
	c3.718,0,6.731,3.014,6.731,6.732s-3.014,6.732-6.731,6.732c-3.719,0-6.732-3.014-6.732-6.732S375.186,348.518,378.904,348.518z
	 M378.904,296.518c3.718,0,6.731,3.014,6.731,6.732s-3.014,6.732-6.731,6.732c-3.719,0-6.732-3.014-6.732-6.732
	S375.186,296.518,378.904,296.518z M378.904,244.518c3.718,0,6.731,3.014,6.731,6.732s-3.014,6.732-6.731,6.732
	c-3.719,0-6.732-3.014-6.732-6.732S375.186,244.518,378.904,244.518z M378.904,192.518c3.718,0,6.731,3.014,6.731,6.732
	s-3.014,6.732-6.731,6.732c-3.719,0-6.732-3.014-6.732-6.732S375.186,192.518,378.904,192.518z M378.904,140.518
	c3.718,0,6.731,3.014,6.731,6.732s-3.014,6.732-6.731,6.732c-3.719,0-6.732-3.014-6.732-6.732S375.186,140.518,378.904,140.518z
	 M378.904,88.518c3.718,0,6.731,3.014,6.731,6.732s-3.014,6.732-6.731,6.732c-3.719,0-6.732-3.014-6.732-6.732
	S375.186,88.518,378.904,88.518z M435.476,465.983c-3.721,0-6.729-3.019-6.729-6.732c0-3.719,3.016-6.731,6.729-6.731
	c3.719,0,6.73,3.018,6.73,6.731C442.207,462.967,439.194,465.983,435.476,465.983z M435.476,413.983
	c-3.721,0-6.729-3.018-6.729-6.732s3.016-6.732,6.729-6.732c3.719,0,6.73,3.018,6.73,6.732S439.194,413.983,435.476,413.983z
	 M435.476,361.982c-3.721,0-6.729-3.014-6.729-6.732s3.016-6.732,6.729-6.732c3.719,0,6.73,3.014,6.73,6.732
	S439.194,361.982,435.476,361.982z M435.476,309.982c-3.721,0-6.729-3.014-6.729-6.732s3.016-6.732,6.729-6.732
	c3.719,0,6.73,3.014,6.73,6.732S439.194,309.982,435.476,309.982z M435.476,257.982c-3.721,0-6.729-3.014-6.729-6.732
	s3.016-6.732,6.729-6.732c3.719,0,6.73,3.014,6.73,6.732S439.194,257.982,435.476,257.982z M435.476,205.982
	c-3.721,0-6.729-3.014-6.729-6.732s3.016-6.732,6.729-6.732c3.719,0,6.73,3.014,6.73,6.732S439.194,205.982,435.476,205.982z
	 M435.476,153.982c-3.721,0-6.729-3.014-6.729-6.732s3.016-6.732,6.729-6.732c3.719,0,6.73,3.014,6.73,6.732
	S439.194,153.982,435.476,153.982z M435.476,101.982c-3.721,0-6.729-3.014-6.729-6.732s3.016-6.732,6.729-6.732
	c3.719,0,6.73,3.014,6.73,6.732S439.194,101.982,435.476,101.982z M492.045,517.983c-3.719,0-6.729-3.019-6.729-6.732
	c0-3.719,3.014-6.732,6.729-6.732c3.72,0,6.732,3.019,6.732,6.732S495.765,517.983,492.045,517.983z M492.045,465.983
	c-3.719,0-6.729-3.019-6.729-6.732c0-3.719,3.014-6.731,6.729-6.731c3.72,0,6.732,3.018,6.732,6.731
	S495.765,465.983,492.045,465.983z M492.045,413.983c-3.719,0-6.729-3.018-6.729-6.732s3.014-6.732,6.729-6.732
	c3.72,0,6.732,3.018,6.732,6.732S495.765,413.983,492.045,413.983z M492.045,361.982c-3.719,0-6.729-3.014-6.729-6.732
	s3.014-6.732,6.729-6.732c3.72,0,6.732,3.014,6.732,6.732S495.765,361.982,492.045,361.982z M492.045,309.982
	c-3.719,0-6.729-3.014-6.729-6.732s3.014-6.732,6.729-6.732c3.72,0,6.732,3.014,6.732,6.732S495.765,309.982,492.045,309.982z
	 M492.045,257.982c-3.719,0-6.729-3.014-6.729-6.732s3.014-6.732,6.729-6.732c3.72,0,6.732,3.014,6.732,6.732
	S495.765,257.982,492.045,257.982z M492.045,205.982c-3.719,0-6.729-3.014-6.729-6.732s3.014-6.732,6.729-6.732
	c3.72,0,6.732,3.014,6.732,6.732S495.765,205.982,492.045,205.982z M492.045,153.982c-3.719,0-6.729-3.014-6.729-6.732
	s3.014-6.732,6.729-6.732c3.72,0,6.732,3.014,6.732,6.732S495.765,153.982,492.045,153.982z M492.045,101.982
	c-3.719,0-6.729-3.014-6.729-6.732s3.014-6.732,6.729-6.732c3.72,0,6.732,3.014,6.732,6.732S495.765,101.982,492.045,101.982z
	 M548.615,517.983c-3.719,0-6.73-3.019-6.73-6.732c0-3.719,3.017-6.732,6.73-6.732s6.729,3.019,6.729,6.732
	S552.334,517.983,548.615,517.983z M548.615,465.983c-3.719,0-6.73-3.019-6.73-6.732c0-3.719,3.017-6.731,6.73-6.731
	s6.729,3.018,6.729,6.731S552.334,465.983,548.615,465.983z M548.615,413.983c-3.719,0-6.73-3.018-6.73-6.732
	s3.017-6.732,6.73-6.732s6.729,3.018,6.729,6.732S552.334,413.983,548.615,413.983z M548.615,348.518
	c3.718,0,6.731,3.014,6.731,6.732s-3.014,6.732-6.731,6.732s-6.732-3.014-6.732-6.732S544.897,348.518,548.615,348.518z
	 M548.615,296.518c3.718,0,6.731,3.014,6.731,6.732s-3.014,6.732-6.731,6.732s-6.732-3.014-6.732-6.732
	S544.897,296.518,548.615,296.518z M548.615,244.518c3.718,0,6.731,3.014,6.731,6.732s-3.014,6.732-6.731,6.732
	s-6.732-3.014-6.732-6.732S544.897,244.518,548.615,244.518z M548.615,192.518c3.718,0,6.731,3.014,6.731,6.732
	s-3.014,6.732-6.731,6.732s-6.732-3.014-6.732-6.732S544.897,192.518,548.615,192.518z M548.615,140.518
	c3.718,0,6.731,3.014,6.731,6.732s-3.014,6.732-6.731,6.732s-6.732-3.014-6.732-6.732S544.897,140.518,548.615,140.518z
	 M548.615,88.518c3.718,0,6.731,3.014,6.731,6.732s-3.014,6.732-6.731,6.732s-6.732-3.014-6.732-6.732
	S544.897,88.518,548.615,88.518z M605.188,504.52c3.719,0,6.732,3.014,6.732,6.731s-3.014,6.732-6.732,6.732
	c-3.718,0-6.731-3.015-6.731-6.732S601.47,504.52,605.188,504.52z M605.188,452.52c3.719,0,6.732,3.014,6.732,6.731
	s-3.014,6.732-6.732,6.732c-3.718,0-6.731-3.015-6.731-6.732S601.47,452.52,605.188,452.52z M605.188,413.983
	c-3.72,0-6.73-3.018-6.73-6.732s3.016-6.732,6.73-6.732c3.718,0,6.729,3.018,6.729,6.732S608.904,413.983,605.188,413.983z
	 M605.188,348.518c3.719,0,6.732,3.014,6.732,6.732s-3.014,6.732-6.732,6.732c-3.718,0-6.731-3.014-6.731-6.732
	S601.47,348.518,605.188,348.518z M605.188,296.518c3.719,0,6.732,3.014,6.732,6.732s-3.014,6.732-6.732,6.732
	c-3.718,0-6.731-3.014-6.731-6.732S601.47,296.518,605.188,296.518z M605.188,244.518c3.719,0,6.732,3.014,6.732,6.732
	s-3.014,6.732-6.732,6.732c-3.718,0-6.731-3.014-6.731-6.732S601.47,244.518,605.188,244.518z M605.188,192.518
	c3.719,0,6.732,3.014,6.732,6.732s-3.014,6.732-6.732,6.732c-3.718,0-6.731-3.014-6.731-6.732S601.47,192.518,605.188,192.518z
	 M605.188,140.518c3.719,0,6.732,3.014,6.732,6.732s-3.014,6.732-6.732,6.732c-3.718,0-6.731-3.014-6.731-6.732
	S601.47,140.518,605.188,140.518z M605.188,88.518c3.719,0,6.732,3.014,6.732,6.732s-3.014,6.732-6.732,6.732
	c-3.718,0-6.731-3.014-6.731-6.732S601.47,88.518,605.188,88.518z M661.756,569.983c-3.719,0-6.729-3.019-6.729-6.732
	c0-3.719,3.014-6.732,6.729-6.732c3.72,0,6.732,3.019,6.732,6.732S665.476,569.983,661.756,569.983z M661.756,517.983
	c-3.719,0-6.729-3.019-6.729-6.732c0-3.719,3.014-6.732,6.729-6.732c3.72,0,6.732,3.019,6.732,6.732
	S665.476,517.983,661.756,517.983z M661.756,465.983c-3.719,0-6.729-3.019-6.729-6.732c0-3.719,3.014-6.731,6.729-6.731
	c3.72,0,6.732,3.018,6.732,6.731S665.476,465.983,661.756,465.983z M661.756,413.983c-3.719,0-6.729-3.018-6.729-6.732
	s3.014-6.732,6.729-6.732c3.72,0,6.732,3.018,6.732,6.732S665.476,413.983,661.756,413.983z M661.756,361.982
	c-3.719,0-6.729-3.014-6.729-6.732s3.014-6.732,6.729-6.732c3.72,0,6.732,3.014,6.732,6.732S665.476,361.982,661.756,361.982z
	 M661.756,309.982c-3.719,0-6.729-3.014-6.729-6.732s3.014-6.732,6.729-6.732c3.72,0,6.732,3.014,6.732,6.732
	S665.476,309.982,661.756,309.982z M661.756,257.982c-3.719,0-6.729-3.014-6.729-6.732s3.014-6.732,6.729-6.732
	c3.72,0,6.732,3.014,6.732,6.732S665.476,257.982,661.756,257.982z M661.756,205.982c-3.719,0-6.729-3.014-6.729-6.732
	s3.014-6.732,6.729-6.732c3.72,0,6.732,3.014,6.732,6.732S665.476,205.982,661.756,205.982z M661.756,153.982
	c-3.719,0-6.729-3.014-6.729-6.732s3.014-6.732,6.729-6.732c3.72,0,6.732,3.014,6.732,6.732S665.476,153.982,661.756,153.982z
	 M661.756,101.982c-3.719,0-6.729-3.014-6.729-6.732s3.014-6.732,6.729-6.732c3.72,0,6.732,3.014,6.732,6.732
	S665.476,101.982,661.756,101.982z M718.326,569.983c-3.719,0-6.73-3.019-6.73-6.732c0-3.719,3.017-6.732,6.73-6.732
	s6.729,3.019,6.729,6.732S722.045,569.983,718.326,569.983z M718.326,517.983c-3.719,0-6.73-3.019-6.73-6.732
	c0-3.719,3.017-6.732,6.73-6.732s6.729,3.019,6.729,6.732S722.045,517.983,718.326,517.983z M718.326,465.983
	c-3.719,0-6.73-3.019-6.73-6.732c0-3.719,3.017-6.731,6.73-6.731s6.729,3.018,6.729,6.731S722.045,465.983,718.326,465.983z
	 M718.326,413.983c-3.719,0-6.73-3.018-6.73-6.732s3.017-6.732,6.73-6.732s6.729,3.018,6.729,6.732S722.045,413.983,718.326,413.983
	z M718.326,348.518c3.718,0,6.731,3.014,6.731,6.732s-3.014,6.732-6.731,6.732s-6.732-3.014-6.732-6.732
	S714.608,348.518,718.326,348.518z M718.326,296.518c3.718,0,6.731,3.014,6.731,6.732s-3.014,6.732-6.731,6.732
	s-6.732-3.014-6.732-6.732S714.608,296.518,718.326,296.518z M718.326,244.518c3.718,0,6.731,3.014,6.731,6.732
	s-3.014,6.732-6.731,6.732s-6.732-3.014-6.732-6.732S714.608,244.518,718.326,244.518z M718.326,192.518
	c3.718,0,6.731,3.014,6.731,6.732s-3.014,6.732-6.731,6.732s-6.732-3.014-6.732-6.732S714.608,192.518,718.326,192.518z
	 M718.326,140.518c3.718,0,6.731,3.014,6.731,6.732s-3.014,6.732-6.731,6.732s-6.732-3.014-6.732-6.732
	S714.608,140.518,718.326,140.518z M718.326,88.518c3.718,0,6.731,3.014,6.731,6.732s-3.014,6.732-6.731,6.732
	s-6.732-3.014-6.732-6.732S714.608,88.518,718.326,88.518z M774.896,517.983c-3.721,0-6.731-3.019-6.731-6.732
	c0-3.719,3.016-6.732,6.731-6.732c3.717,0,6.729,3.019,6.729,6.732C781.629,514.967,778.615,517.983,774.896,517.983z
	 M774.896,465.983c-3.721,0-6.731-3.019-6.731-6.732c0-3.719,3.016-6.731,6.731-6.731c3.717,0,6.729,3.018,6.729,6.731
	C781.629,462.967,778.615,465.983,774.896,465.983z M774.896,413.983c-3.721,0-6.731-3.018-6.731-6.732s3.016-6.732,6.731-6.732
	c3.717,0,6.729,3.018,6.729,6.732S778.615,413.983,774.896,413.983z M774.896,348.518c3.718,0,6.731,3.014,6.731,6.732
	s-3.014,6.732-6.731,6.732c-3.719,0-6.732-3.014-6.732-6.732S771.178,348.518,774.896,348.518z M774.896,296.518
	c3.718,0,6.731,3.014,6.731,6.732s-3.014,6.732-6.731,6.732c-3.719,0-6.732-3.014-6.732-6.732S771.178,296.518,774.896,296.518z
	 M774.896,244.518c3.718,0,6.731,3.014,6.731,6.732s-3.014,6.732-6.731,6.732c-3.719,0-6.732-3.014-6.732-6.732
	S771.178,244.518,774.896,244.518z M774.896,192.518c3.718,0,6.731,3.014,6.731,6.732s-3.014,6.732-6.731,6.732
	c-3.719,0-6.732-3.014-6.732-6.732S771.178,192.518,774.896,192.518z M774.896,140.518c3.718,0,6.731,3.014,6.731,6.732
	s-3.014,6.732-6.731,6.732c-3.719,0-6.732-3.014-6.732-6.732S771.178,140.518,774.896,140.518z M774.896,88.518
	c3.718,0,6.731,3.014,6.731,6.732s-3.014,6.732-6.731,6.732c-3.719,0-6.732-3.014-6.732-6.732S771.178,88.518,774.896,88.518z
	 M831.468,517.983c-3.721,0-6.729-3.019-6.729-6.732c0-3.719,3.014-6.732,6.729-6.732c3.718,0,6.73,3.019,6.73,6.732
	C838.199,514.967,835.188,517.983,831.468,517.983z M831.468,465.983c-3.721,0-6.729-3.019-6.729-6.732
	c0-3.719,3.014-6.731,6.729-6.731c3.718,0,6.73,3.018,6.73,6.731C838.199,462.967,835.188,465.983,831.468,465.983z
	 M831.468,413.983c-3.721,0-6.729-3.018-6.729-6.732s3.014-6.732,6.729-6.732c3.718,0,6.73,3.018,6.73,6.732
	S835.188,413.983,831.468,413.983z M831.468,361.982c-3.721,0-6.729-3.014-6.729-6.732s3.014-6.732,6.729-6.732
	c3.718,0,6.73,3.014,6.73,6.732S835.188,361.982,831.468,361.982z M831.468,309.982c-3.721,0-6.729-3.014-6.729-6.732
	s3.014-6.732,6.729-6.732c3.718,0,6.73,3.014,6.73,6.732S835.188,309.982,831.468,309.982z M831.468,257.982
	c-3.721,0-6.729-3.014-6.729-6.732s3.014-6.732,6.729-6.732c3.718,0,6.73,3.014,6.73,6.732S835.188,257.982,831.468,257.982z
	 M831.468,205.982c-3.721,0-6.729-3.014-6.729-6.732s3.014-6.732,6.729-6.732c3.718,0,6.73,3.014,6.73,6.732
	S835.188,205.982,831.468,205.982z M831.468,153.982c-3.721,0-6.729-3.014-6.729-6.732s3.014-6.732,6.729-6.732
	c3.718,0,6.73,3.014,6.73,6.732S835.188,153.982,831.468,153.982z M831.468,101.982c-3.721,0-6.729-3.014-6.729-6.732
	s3.014-6.732,6.729-6.732c3.718,0,6.73,3.014,6.73,6.732S835.188,101.982,831.468,101.982z M888.037,517.983
	c-3.719,0-6.73-3.019-6.73-6.732c0-3.719,3.017-6.732,6.73-6.732c3.719,0,6.729,3.019,6.729,6.732S891.756,517.983,888.037,517.983z
	 M888.037,465.983c-3.719,0-6.73-3.019-6.73-6.732c0-3.719,3.017-6.731,6.73-6.731c3.719,0,6.729,3.018,6.729,6.731
	S891.756,465.983,888.037,465.983z M888.037,413.983c-3.719,0-6.73-3.018-6.73-6.732s3.017-6.732,6.73-6.732
	c3.719,0,6.729,3.018,6.729,6.732S891.756,413.983,888.037,413.983z M888.037,348.518c3.718,0,6.731,3.014,6.731,6.732
	s-3.014,6.732-6.731,6.732s-6.732-3.014-6.732-6.732S884.319,348.518,888.037,348.518z M888.037,296.518
	c3.718,0,6.731,3.014,6.731,6.732s-3.014,6.732-6.731,6.732s-6.732-3.014-6.732-6.732S884.319,296.518,888.037,296.518z
	 M888.037,244.518c3.718,0,6.731,3.014,6.731,6.732s-3.014,6.732-6.731,6.732s-6.732-3.014-6.732-6.732
	S884.319,244.518,888.037,244.518z M888.037,192.518c3.718,0,6.731,3.014,6.731,6.732s-3.014,6.732-6.731,6.732
	s-6.732-3.014-6.732-6.732S884.319,192.518,888.037,192.518z M888.037,140.518c3.718,0,6.731,3.014,6.731,6.732
	s-3.014,6.732-6.731,6.732s-6.732-3.014-6.732-6.732S884.319,140.518,888.037,140.518z M888.037,88.518
	c3.718,0,6.731,3.014,6.731,6.732s-3.014,6.732-6.731,6.732s-6.732-3.014-6.732-6.732S884.319,88.518,888.037,88.518z
	 M944.607,517.983c-3.721,0-6.731-3.019-6.731-6.732c0-3.719,3.016-6.732,6.731-6.732c3.717,0,6.729,3.019,6.729,6.732
	S948.326,517.983,944.607,517.983z M944.607,465.983c-3.721,0-6.731-3.019-6.731-6.732c0-3.719,3.016-6.731,6.731-6.731
	c3.717,0,6.729,3.018,6.729,6.731S948.326,465.983,944.607,465.983z M944.607,413.983c-3.721,0-6.731-3.018-6.731-6.732
	s3.016-6.732,6.731-6.732c3.717,0,6.729,3.018,6.729,6.732S948.326,413.983,944.607,413.983z M944.607,348.518
	c3.719,0,6.732,3.014,6.732,6.732s-3.014,6.732-6.732,6.732c-3.718,0-6.731-3.014-6.731-6.732S940.89,348.518,944.607,348.518z
	 M944.607,296.518c3.719,0,6.732,3.014,6.732,6.732s-3.014,6.732-6.732,6.732c-3.718,0-6.731-3.014-6.731-6.732
	S940.89,296.518,944.607,296.518z M944.607,244.518c3.719,0,6.732,3.014,6.732,6.732s-3.014,6.732-6.732,6.732
	c-3.718,0-6.731-3.014-6.731-6.732S940.89,244.518,944.607,244.518z M944.607,192.518c3.719,0,6.732,3.014,6.732,6.732
	s-3.014,6.732-6.732,6.732c-3.718,0-6.731-3.014-6.731-6.732S940.89,192.518,944.607,192.518z M944.607,140.518
	c3.719,0,6.732,3.014,6.732,6.732s-3.014,6.732-6.732,6.732c-3.718,0-6.731-3.014-6.731-6.732S940.89,140.518,944.607,140.518z
	 M944.607,88.518c3.719,0,6.732,3.014,6.732,6.732s-3.014,6.732-6.732,6.732c-3.718,0-6.731-3.014-6.731-6.732
	S940.89,88.518,944.607,88.518z M944.607,36.518c3.719,0,6.732,3.014,6.732,6.732s-3.014,6.732-6.732,6.732
	c-3.718,0-6.731-3.014-6.731-6.732S940.89,36.518,944.607,36.518z M1001.179,517.983c-3.722,0-6.729-3.019-6.729-6.732
	c0-3.719,3.014-6.732,6.729-6.732c3.718,0,6.729,3.019,6.729,6.732S1004.896,517.983,1001.179,517.983z M1001.179,465.983
	c-3.722,0-6.729-3.019-6.729-6.732c0-3.719,3.014-6.731,6.729-6.731c3.718,0,6.729,3.018,6.729,6.731
	S1004.896,465.983,1001.179,465.983z M1001.179,413.983c-3.722,0-6.729-3.018-6.729-6.732s3.014-6.732,6.729-6.732
	c3.718,0,6.729,3.018,6.729,6.732S1004.896,413.983,1001.179,413.983z M1001.179,361.982c-3.722,0-6.729-3.014-6.729-6.732
	s3.014-6.732,6.729-6.732c3.718,0,6.729,3.014,6.729,6.732S1004.896,361.982,1001.179,361.982z M1001.179,309.982
	c-3.722,0-6.729-3.014-6.729-6.732s3.014-6.732,6.729-6.732c3.718,0,6.729,3.014,6.729,6.732S1004.896,309.982,1001.179,309.982z
	 M1001.179,257.982c-3.722,0-6.729-3.014-6.729-6.732s3.014-6.732,6.729-6.732c3.718,0,6.729,3.014,6.729,6.732
	S1004.896,257.982,1001.179,257.982z M1001.179,205.982c-3.722,0-6.729-3.014-6.729-6.732s3.014-6.732,6.729-6.732
	c3.718,0,6.729,3.014,6.729,6.732S1004.896,205.982,1001.179,205.982z M1001.179,153.982c-3.722,0-6.729-3.014-6.729-6.732
	s3.014-6.732,6.729-6.732c3.718,0,6.729,3.014,6.729,6.732S1004.896,153.982,1001.179,153.982z M1001.179,101.982
	c-3.722,0-6.729-3.014-6.729-6.732s3.014-6.732,6.729-6.732c3.718,0,6.729,3.014,6.729,6.732S1004.896,101.982,1001.179,101.982z
	 M1001.179,49.982c-3.722,0-6.729-3.014-6.729-6.732s3.014-6.732,6.729-6.732c3.718,0,6.729,3.014,6.729,6.732
	S1004.896,49.982,1001.179,49.982z M1057.748,517.983c-3.719,0-6.73-3.019-6.73-6.732c0-3.719,3.016-6.732,6.73-6.732
	c3.719,0,6.732,3.019,6.732,6.732S1061.468,517.983,1057.748,517.983z M1057.748,465.983c-3.719,0-6.73-3.019-6.73-6.732
	c0-3.719,3.016-6.731,6.73-6.731c3.719,0,6.732,3.018,6.732,6.731S1061.468,465.983,1057.748,465.983z M1057.748,413.983
	c-3.719,0-6.73-3.018-6.73-6.732s3.016-6.732,6.73-6.732c3.719,0,6.732,3.018,6.732,6.732S1061.468,413.983,1057.748,413.983z
	 M1057.748,348.518c3.718,0,6.732,3.014,6.732,6.732s-3.015,6.732-6.732,6.732s-6.732-3.014-6.732-6.732
	S1054.03,348.518,1057.748,348.518z M1057.748,296.518c3.718,0,6.732,3.014,6.732,6.732s-3.015,6.732-6.732,6.732
	s-6.732-3.014-6.732-6.732S1054.03,296.518,1057.748,296.518z M1057.748,244.518c3.718,0,6.732,3.014,6.732,6.732
	s-3.015,6.732-6.732,6.732s-6.732-3.014-6.732-6.732S1054.03,244.518,1057.748,244.518z M1057.748,192.518
	c3.718,0,6.732,3.014,6.732,6.732s-3.015,6.732-6.732,6.732s-6.732-3.014-6.732-6.732S1054.03,192.518,1057.748,192.518z
	 M1057.748,140.518c3.718,0,6.732,3.014,6.732,6.732s-3.015,6.732-6.732,6.732s-6.732-3.014-6.732-6.732
	S1054.03,140.518,1057.748,140.518z M1057.748,88.518c3.718,0,6.732,3.014,6.732,6.732s-3.015,6.732-6.732,6.732
	s-6.732-3.014-6.732-6.732S1054.03,88.518,1057.748,88.518z M1057.748,36.518c3.718,0,6.732,3.014,6.732,6.732
	s-3.015,6.732-6.732,6.732s-6.732-3.014-6.732-6.732S1054.03,36.518,1057.748,36.518z M1114.319,517.983
	c-3.722,0-6.732-3.019-6.732-6.732c0-3.719,3.015-6.732,6.732-6.732c3.717,0,6.729,3.019,6.729,6.732
	S1118.037,517.983,1114.319,517.983z M1114.319,465.983c-3.722,0-6.732-3.019-6.732-6.732c0-3.719,3.015-6.731,6.732-6.731
	c3.717,0,6.729,3.018,6.729,6.731S1118.037,465.983,1114.319,465.983z M1114.319,413.983c-3.722,0-6.732-3.018-6.732-6.732
	s3.015-6.732,6.732-6.732c3.717,0,6.729,3.018,6.729,6.732S1118.037,413.983,1114.319,413.983z M1114.319,348.518
	c3.718,0,6.731,3.014,6.731,6.732s-3.014,6.732-6.731,6.732c-3.719,0-6.732-3.014-6.732-6.732S1110.601,348.518,1114.319,348.518z
	 M1114.319,296.518c3.718,0,6.731,3.014,6.731,6.732s-3.014,6.732-6.731,6.732c-3.719,0-6.732-3.014-6.732-6.732
	S1110.601,296.518,1114.319,296.518z M1114.319,244.518c3.718,0,6.731,3.014,6.731,6.732s-3.014,6.732-6.731,6.732
	c-3.719,0-6.732-3.014-6.732-6.732S1110.601,244.518,1114.319,244.518z M1114.319,192.518c3.718,0,6.731,3.014,6.731,6.732
	s-3.014,6.732-6.731,6.732c-3.719,0-6.732-3.014-6.732-6.732S1110.601,192.518,1114.319,192.518z M1114.319,140.518
	c3.718,0,6.731,3.014,6.731,6.732s-3.014,6.732-6.731,6.732c-3.719,0-6.732-3.014-6.732-6.732S1110.601,140.518,1114.319,140.518z
	 M1114.319,88.518c3.718,0,6.731,3.014,6.731,6.732s-3.014,6.732-6.731,6.732c-3.719,0-6.732-3.014-6.732-6.732
	S1110.601,88.518,1114.319,88.518z M1114.319,36.518c3.718,0,6.731,3.014,6.731,6.732s-3.014,6.732-6.731,6.732
	c-3.719,0-6.732-3.014-6.732-6.732S1110.601,36.518,1114.319,36.518z M1170.89,569.983c-3.722,0-6.729-3.019-6.729-6.732
	c0-3.719,3.014-6.732,6.729-6.732c3.719,0,6.729,3.019,6.729,6.732S1174.608,569.983,1170.89,569.983z M1170.89,517.983
	c-3.722,0-6.729-3.019-6.729-6.732c0-3.719,3.014-6.732,6.729-6.732c3.719,0,6.729,3.019,6.729,6.732
	S1174.608,517.983,1170.89,517.983z M1170.89,465.983c-3.722,0-6.729-3.019-6.729-6.732c0-3.719,3.014-6.731,6.729-6.731
	c3.719,0,6.729,3.018,6.729,6.731S1174.608,465.983,1170.89,465.983z M1170.89,413.983c-3.722,0-6.729-3.018-6.729-6.732
	s3.014-6.732,6.729-6.732c3.719,0,6.729,3.018,6.729,6.732S1174.608,413.983,1170.89,413.983z M1170.89,361.982
	c-3.722,0-6.729-3.014-6.729-6.732s3.014-6.732,6.729-6.732c3.719,0,6.729,3.014,6.729,6.732S1174.608,361.982,1170.89,361.982z
	 M1170.89,309.982c-3.722,0-6.729-3.014-6.729-6.732s3.014-6.732,6.729-6.732c3.719,0,6.729,3.014,6.729,6.732
	S1174.608,309.982,1170.89,309.982z M1170.89,257.982c-3.722,0-6.729-3.014-6.729-6.732s3.014-6.732,6.729-6.732
	c3.719,0,6.729,3.014,6.729,6.732S1174.608,257.982,1170.89,257.982z M1170.89,205.982c-3.722,0-6.729-3.014-6.729-6.732
	s3.014-6.732,6.729-6.732c3.719,0,6.729,3.014,6.729,6.732S1174.608,205.982,1170.89,205.982z M1170.89,153.982
	c-3.722,0-6.729-3.014-6.729-6.732s3.014-6.732,6.729-6.732c3.719,0,6.729,3.014,6.729,6.732S1174.608,153.982,1170.89,153.982z
	 M1170.89,101.982c-3.722,0-6.729-3.014-6.729-6.732s3.014-6.732,6.729-6.732c3.719,0,6.729,3.014,6.729,6.732
	S1174.608,101.982,1170.89,101.982z M1170.89,49.982c-3.722,0-6.729-3.014-6.729-6.732s3.014-6.732,6.729-6.732
	c3.719,0,6.729,3.014,6.729,6.732S1174.608,49.982,1170.89,49.982z M1227.459,556.519c3.718,0,6.732,3.015,6.732,6.732
	s-3.015,6.732-6.732,6.732s-6.732-3.015-6.732-6.732S1223.741,556.519,1227.459,556.519z M1227.459,504.52
	c3.718,0,6.732,3.014,6.732,6.731s-3.015,6.732-6.732,6.732s-6.732-3.015-6.732-6.732S1223.741,504.52,1227.459,504.52z
	 M1227.459,452.52c3.718,0,6.732,3.014,6.732,6.731s-3.015,6.732-6.732,6.732s-6.732-3.015-6.732-6.732
	S1223.741,452.52,1227.459,452.52z M1227.459,413.983c-3.719,0-6.73-3.018-6.73-6.732s3.016-6.732,6.73-6.732
	c3.719,0,6.732,3.018,6.732,6.732S1231.179,413.983,1227.459,413.983z M1227.459,348.518c3.718,0,6.732,3.014,6.732,6.732
	s-3.015,6.732-6.732,6.732s-6.732-3.014-6.732-6.732S1223.741,348.518,1227.459,348.518z M1227.459,296.518
	c3.718,0,6.732,3.014,6.732,6.732s-3.015,6.732-6.732,6.732s-6.732-3.014-6.732-6.732S1223.741,296.518,1227.459,296.518z
	 M1227.459,244.518c3.718,0,6.732,3.014,6.732,6.732s-3.015,6.732-6.732,6.732s-6.732-3.014-6.732-6.732
	S1223.741,244.518,1227.459,244.518z M1227.459,192.518c3.718,0,6.732,3.014,6.732,6.732s-3.015,6.732-6.732,6.732
	s-6.732-3.014-6.732-6.732S1223.741,192.518,1227.459,192.518z M1227.459,140.518c3.718,0,6.732,3.014,6.732,6.732
	s-3.015,6.732-6.732,6.732s-6.732-3.014-6.732-6.732S1223.741,140.518,1227.459,140.518z M1227.459,88.518
	c3.718,0,6.732,3.014,6.732,6.732s-3.015,6.732-6.732,6.732s-6.732-3.014-6.732-6.732S1223.741,88.518,1227.459,88.518z
	 M1227.459,36.518c3.718,0,6.732,3.014,6.732,6.732s-3.015,6.732-6.732,6.732s-6.732-3.014-6.732-6.732
	S1223.741,36.518,1227.459,36.518z M1284.029,621.983c-3.719,0-6.732-3.019-6.732-6.732c0-3.719,3.016-6.732,6.732-6.732
	c3.716,0,6.729,3.019,6.729,6.732C1290.763,618.967,1287.748,621.983,1284.029,621.983z M1284.029,569.983
	c-3.719,0-6.732-3.019-6.732-6.732c0-3.719,3.016-6.732,6.732-6.732c3.716,0,6.729,3.019,6.729,6.732
	C1290.763,566.967,1287.748,569.983,1284.029,569.983z M1284.029,517.983c-3.719,0-6.732-3.019-6.732-6.732
	c0-3.719,3.016-6.732,6.732-6.732c3.716,0,6.729,3.019,6.729,6.732C1290.763,514.967,1287.748,517.983,1284.029,517.983z
	 M1284.029,465.983c-3.719,0-6.732-3.019-6.732-6.732c0-3.719,3.016-6.731,6.732-6.731c3.716,0,6.729,3.018,6.729,6.731
	C1290.763,462.967,1287.748,465.983,1284.029,465.983z M1284.029,413.983c-3.719,0-6.732-3.018-6.732-6.732s3.016-6.732,6.732-6.732
	c3.716,0,6.729,3.018,6.729,6.732S1287.748,413.983,1284.029,413.983z M1284.029,348.518c3.718,0,6.731,3.014,6.731,6.732
	s-3.014,6.732-6.731,6.732c-3.719,0-6.732-3.014-6.732-6.732S1280.311,348.518,1284.029,348.518z M1284.029,296.518
	c3.718,0,6.731,3.014,6.731,6.732s-3.014,6.732-6.731,6.732c-3.719,0-6.732-3.014-6.732-6.732S1280.311,296.518,1284.029,296.518z
	 M1284.029,244.518c3.718,0,6.731,3.014,6.731,6.732s-3.014,6.732-6.731,6.732c-3.719,0-6.732-3.014-6.732-6.732
	S1280.311,244.518,1284.029,244.518z M1284.029,192.518c3.718,0,6.731,3.014,6.731,6.732s-3.014,6.732-6.731,6.732
	c-3.719,0-6.732-3.014-6.732-6.732S1280.311,192.518,1284.029,192.518z M1284.029,140.518c3.718,0,6.731,3.014,6.731,6.732
	s-3.014,6.732-6.731,6.732c-3.719,0-6.732-3.014-6.732-6.732S1280.311,140.518,1284.029,140.518z M1284.029,88.518
	c3.718,0,6.731,3.014,6.731,6.732s-3.014,6.732-6.731,6.732c-3.719,0-6.732-3.014-6.732-6.732S1280.311,88.518,1284.029,88.518z
	 M1284.029,36.518c3.718,0,6.731,3.014,6.731,6.732s-3.014,6.732-6.731,6.732c-3.719,0-6.732-3.014-6.732-6.732
	S1280.311,36.518,1284.029,36.518z M1340.601,621.983c-3.72,0-6.729-3.019-6.729-6.732c0-3.719,3.015-6.732,6.729-6.732
	c3.72,0,6.729,3.019,6.729,6.732S1344.319,621.983,1340.601,621.983z M1340.601,569.983c-3.72,0-6.729-3.019-6.729-6.732
	c0-3.719,3.015-6.732,6.729-6.732c3.72,0,6.729,3.019,6.729,6.732S1344.319,569.983,1340.601,569.983z M1340.601,517.983
	c-3.72,0-6.729-3.019-6.729-6.732c0-3.719,3.015-6.732,6.729-6.732c3.72,0,6.729,3.019,6.729,6.732
	S1344.319,517.983,1340.601,517.983z M1340.601,465.983c-3.72,0-6.729-3.019-6.729-6.732c0-3.719,3.015-6.731,6.729-6.731
	c3.72,0,6.729,3.018,6.729,6.731S1344.319,465.983,1340.601,465.983z M1340.601,413.983c-3.72,0-6.729-3.018-6.729-6.732
	s3.015-6.732,6.729-6.732c3.72,0,6.729,3.018,6.729,6.732S1344.319,413.983,1340.601,413.983z M1340.601,348.518
	c3.719,0,6.732,3.014,6.732,6.732s-3.014,6.732-6.732,6.732c-3.718,0-6.731-3.014-6.731-6.732S1336.883,348.518,1340.601,348.518z
	 M1340.601,296.518c3.719,0,6.732,3.014,6.732,6.732s-3.014,6.732-6.732,6.732c-3.718,0-6.731-3.014-6.731-6.732
	S1336.883,296.518,1340.601,296.518z M1340.601,244.518c3.719,0,6.732,3.014,6.732,6.732s-3.014,6.732-6.732,6.732
	c-3.718,0-6.731-3.014-6.731-6.732S1336.883,244.518,1340.601,244.518z M1340.601,192.518c3.719,0,6.732,3.014,6.732,6.732
	s-3.014,6.732-6.732,6.732c-3.718,0-6.731-3.014-6.731-6.732S1336.883,192.518,1340.601,192.518z M1340.601,140.518
	c3.719,0,6.732,3.014,6.732,6.732s-3.014,6.732-6.732,6.732c-3.718,0-6.731-3.014-6.731-6.732S1336.883,140.518,1340.601,140.518z
	 M1340.601,88.518c3.719,0,6.732,3.014,6.732,6.732s-3.014,6.732-6.732,6.732c-3.718,0-6.731-3.014-6.731-6.732
	S1336.883,88.518,1340.601,88.518z M1397.17,660.519c3.718,0,6.732,3.015,6.732,6.732s-3.015,6.732-6.732,6.732
	s-6.732-3.015-6.732-6.732S1393.452,660.519,1397.17,660.519z M1397.17,608.519c3.718,0,6.732,3.015,6.732,6.732
	s-3.015,6.732-6.732,6.732s-6.732-3.015-6.732-6.732S1393.452,608.519,1397.17,608.519z M1397.17,556.519
	c3.718,0,6.732,3.015,6.732,6.732s-3.015,6.732-6.732,6.732s-6.732-3.015-6.732-6.732S1393.452,556.519,1397.17,556.519z
	 M1397.17,504.52c3.718,0,6.732,3.014,6.732,6.731s-3.015,6.732-6.732,6.732s-6.732-3.015-6.732-6.732
	S1393.452,504.52,1397.17,504.52z M1397.17,452.52c3.718,0,6.732,3.014,6.732,6.731s-3.015,6.732-6.732,6.732
	s-6.732-3.015-6.732-6.732S1393.452,452.52,1397.17,452.52z M1397.17,413.983c-3.719,0-6.729-3.018-6.729-6.732
	s3.014-6.732,6.729-6.732c3.719,0,6.732,3.018,6.732,6.732S1400.89,413.983,1397.17,413.983z M1397.17,348.518
	c3.718,0,6.732,3.014,6.732,6.732s-3.015,6.732-6.732,6.732s-6.732-3.014-6.732-6.732S1393.452,348.518,1397.17,348.518z
	 M1397.17,296.518c3.718,0,6.732,3.014,6.732,6.732s-3.015,6.732-6.732,6.732s-6.732-3.014-6.732-6.732
	S1393.452,296.518,1397.17,296.518z M1397.17,244.518c3.718,0,6.732,3.014,6.732,6.732s-3.015,6.732-6.732,6.732
	s-6.732-3.014-6.732-6.732S1393.452,244.518,1397.17,244.518z M1397.17,192.518c3.718,0,6.732,3.014,6.732,6.732
	s-3.015,6.732-6.732,6.732s-6.732-3.014-6.732-6.732S1393.452,192.518,1397.17,192.518z M1397.17,140.518
	c3.718,0,6.732,3.014,6.732,6.732s-3.015,6.732-6.732,6.732s-6.732-3.014-6.732-6.732S1393.452,140.518,1397.17,140.518z
	 M1453.74,673.983c-3.719,0-6.732-3.019-6.732-6.732c0-3.719,3.016-6.732,6.732-6.732c3.716,0,6.729,3.019,6.729,6.732
	C1460.474,670.967,1457.459,673.983,1453.74,673.983z M1453.74,621.983c-3.719,0-6.732-3.019-6.732-6.732
	c0-3.719,3.016-6.732,6.732-6.732c3.716,0,6.729,3.019,6.729,6.732C1460.474,618.967,1457.459,621.983,1453.74,621.983z
	 M1453.74,569.983c-3.719,0-6.732-3.019-6.732-6.732c0-3.719,3.016-6.732,6.732-6.732c3.716,0,6.729,3.019,6.729,6.732
	C1460.474,566.967,1457.459,569.983,1453.74,569.983z M1453.74,517.983c-3.719,0-6.732-3.019-6.732-6.732
	c0-3.719,3.016-6.732,6.732-6.732c3.716,0,6.729,3.019,6.729,6.732C1460.474,514.967,1457.459,517.983,1453.74,517.983z
	 M1453.74,465.983c-3.719,0-6.732-3.019-6.732-6.732c0-3.719,3.016-6.731,6.732-6.731c3.716,0,6.729,3.018,6.729,6.731
	C1460.474,462.967,1457.459,465.983,1453.74,465.983z M1453.74,413.983c-3.719,0-6.732-3.018-6.732-6.732s3.016-6.732,6.732-6.732
	c3.716,0,6.729,3.018,6.729,6.732S1457.459,413.983,1453.74,413.983z M1453.74,348.518c3.718,0,6.731,3.014,6.731,6.732
	s-3.014,6.732-6.731,6.732c-3.719,0-6.732-3.014-6.732-6.732S1450.021,348.518,1453.74,348.518z M1453.74,296.518
	c3.718,0,6.731,3.014,6.731,6.732s-3.014,6.732-6.731,6.732c-3.719,0-6.732-3.014-6.732-6.732S1450.021,296.518,1453.74,296.518z
	 M1453.74,244.518c3.718,0,6.731,3.014,6.731,6.732s-3.014,6.732-6.731,6.732c-3.719,0-6.732-3.014-6.732-6.732
	S1450.021,244.518,1453.74,244.518z M1510.312,725.983c-3.723,0-6.732-3.019-6.732-6.732c0-3.719,3.015-6.732,6.732-6.732
	c3.717,0,6.729,3.019,6.729,6.732S1514.029,725.983,1510.312,725.983z M1510.312,673.983c-3.723,0-6.732-3.019-6.732-6.732
	c0-3.719,3.015-6.732,6.732-6.732c3.717,0,6.729,3.019,6.729,6.732S1514.029,673.983,1510.312,673.983z M1510.312,621.983
	c-3.723,0-6.732-3.019-6.732-6.732c0-3.719,3.015-6.732,6.732-6.732c3.717,0,6.729,3.019,6.729,6.732
	S1514.029,621.983,1510.312,621.983z M1510.312,569.983c-3.723,0-6.732-3.019-6.732-6.732c0-3.719,3.015-6.732,6.732-6.732
	c3.717,0,6.729,3.019,6.729,6.732S1514.029,569.983,1510.312,569.983z M1510.312,517.983c-3.723,0-6.732-3.019-6.732-6.732
	c0-3.719,3.015-6.732,6.732-6.732c3.717,0,6.729,3.019,6.729,6.732S1514.029,517.983,1510.312,517.983z M1510.312,465.983
	c-3.723,0-6.732-3.019-6.732-6.732c0-3.719,3.015-6.731,6.732-6.731c3.717,0,6.729,3.018,6.729,6.731
	S1514.029,465.983,1510.312,465.983z M1510.312,413.983c-3.723,0-6.732-3.018-6.732-6.732s3.015-6.732,6.732-6.732
	c3.717,0,6.729,3.018,6.729,6.732S1514.029,413.983,1510.312,413.983z M1510.312,361.982c-3.723,0-6.732-3.014-6.732-6.732
	s3.015-6.732,6.732-6.732c3.717,0,6.729,3.014,6.729,6.732S1514.029,361.982,1510.312,361.982z M1510.312,309.982
	c-3.723,0-6.732-3.014-6.732-6.732s3.015-6.732,6.732-6.732c3.717,0,6.729,3.014,6.729,6.732S1514.029,309.982,1510.312,309.982z
	 M1623.451,452.518c3.718,0,6.732,3.015,6.732,6.732s-3.015,6.732-6.732,6.732s-6.732-3.015-6.732-6.732
	S1619.733,452.518,1623.451,452.518z M1623.451,504.518c3.718,0,6.732,3.015,6.732,6.732s-3.015,6.732-6.732,6.732
	s-6.732-3.015-6.732-6.732S1619.733,504.518,1623.451,504.518z M1623.451,556.518c3.718,0,6.732,3.015,6.732,6.732
	s-3.015,6.732-6.732,6.732s-6.732-3.015-6.732-6.732S1619.733,556.518,1623.451,556.518z M1623.451,608.518
	c3.718,0,6.732,3.015,6.732,6.732s-3.015,6.732-6.732,6.732s-6.732-3.015-6.732-6.732S1619.733,608.518,1623.451,608.518z
	 M1623.451,660.518c3.718,0,6.732,3.015,6.732,6.732s-3.015,6.732-6.732,6.732s-6.732-3.015-6.732-6.732
	S1619.733,660.518,1623.451,660.518z M1566.881,348.519c3.718,0,6.732,3.014,6.732,6.732s-3.015,6.732-6.732,6.732
	s-6.732-3.014-6.732-6.732S1563.163,348.519,1566.881,348.519z M1566.881,400.518c3.72,0,6.732,3.018,6.732,6.732
	s-3.017,6.732-6.732,6.732s-6.729-3.018-6.729-6.732S1563.162,400.518,1566.881,400.518z M1566.881,452.518
	c3.718,0,6.732,3.015,6.732,6.732s-3.015,6.732-6.732,6.732s-6.732-3.015-6.732-6.732S1563.163,452.518,1566.881,452.518z
	 M1566.881,504.518c3.718,0,6.732,3.015,6.732,6.732s-3.015,6.732-6.732,6.732s-6.732-3.015-6.732-6.732
	S1563.163,504.518,1566.881,504.518z M1566.881,556.518c3.718,0,6.732,3.015,6.732,6.732s-3.015,6.732-6.732,6.732
	s-6.732-3.015-6.732-6.732S1563.163,556.518,1566.881,556.518z M1566.881,608.518c3.718,0,6.732,3.015,6.732,6.732
	s-3.015,6.732-6.732,6.732s-6.732-3.015-6.732-6.732S1563.163,608.518,1566.881,608.518z M1566.881,660.518
	c3.718,0,6.732,3.015,6.732,6.732s-3.015,6.732-6.732,6.732s-6.732-3.015-6.732-6.732S1563.163,660.518,1566.881,660.518z
	 M1623.451,816.519c3.718,0,6.732,3.015,6.732,6.732s-3.015,6.732-6.732,6.732s-6.732-3.015-6.732-6.732
	S1619.733,816.519,1623.451,816.519z M1630.608,779.364c-20.854,20.873-53.018,22.553-71.837,3.752
	c-18.817-18.803-17.172-50.965,3.683-71.84c20.854-20.873,53.017-22.558,71.836-3.75
	C1653.11,726.327,1651.461,758.489,1630.608,779.364z M1680.021,777.983c-3.721,0-6.731-3.019-6.731-6.732
	c0-3.719,3.015-6.732,6.731-6.732c3.718,0,6.729,3.019,6.729,6.732S1683.74,777.983,1680.021,777.983z M1680.021,725.983
	c-3.721,0-6.731-3.019-6.731-6.732c0-3.719,3.015-6.732,6.731-6.732c3.718,0,6.729,3.019,6.729,6.732
	S1683.74,725.983,1680.021,725.983z M1680.021,673.983c-3.721,0-6.731-3.019-6.731-6.732c0-3.719,3.015-6.732,6.731-6.732
	c3.718,0,6.729,3.019,6.729,6.732S1683.74,673.983,1680.021,673.983z M1680.021,621.983c-3.721,0-6.731-3.019-6.731-6.732
	c0-3.719,3.015-6.732,6.731-6.732c3.718,0,6.729,3.019,6.729,6.732S1683.74,621.983,1680.021,621.983z M1680.021,569.983
	c-3.721,0-6.731-3.019-6.731-6.732c0-3.719,3.015-6.732,6.731-6.732c3.718,0,6.729,3.019,6.729,6.732
	S1683.74,569.983,1680.021,569.983z M1680.021,517.983c-3.721,0-6.731-3.019-6.731-6.732c0-3.719,3.015-6.732,6.731-6.732
	c3.718,0,6.729,3.019,6.729,6.732S1683.74,517.983,1680.021,517.983z M1736.592,777.983c-3.721,0-6.729-3.019-6.729-6.732
	c0-3.719,3.014-6.732,6.729-6.732s6.73,3.019,6.73,6.732S1740.312,777.983,1736.592,777.983z M1736.592,725.983
	c-3.721,0-6.729-3.019-6.729-6.732c0-3.719,3.014-6.732,6.729-6.732s6.73,3.019,6.73,6.732S1740.312,725.983,1736.592,725.983z
	 M1736.592,673.983c-3.721,0-6.729-3.019-6.729-6.732c0-3.719,3.014-6.732,6.729-6.732s6.73,3.019,6.73,6.732
	S1740.312,673.983,1736.592,673.983z M1736.592,621.983c-3.721,0-6.729-3.019-6.729-6.732c0-3.719,3.014-6.732,6.729-6.732
	s6.73,3.019,6.73,6.732S1740.312,621.983,1736.592,621.983z M1736.592,569.983c-3.721,0-6.729-3.019-6.729-6.732
	c0-3.719,3.014-6.732,6.729-6.732s6.73,3.019,6.73,6.732S1740.312,569.983,1736.592,569.983z M1793.162,712.519
	c3.718,0,6.732,3.015,6.732,6.732s-3.015,6.732-6.732,6.732s-6.732-3.015-6.732-6.732S1789.444,712.519,1793.162,712.519z
	 M1793.162,660.519c3.718,0,6.732,3.015,6.732,6.732s-3.015,6.732-6.732,6.732s-6.732-3.015-6.732-6.732
	S1789.444,660.519,1793.162,660.519z M1793.162,608.519c3.718,0,6.732,3.015,6.732,6.732s-3.015,6.732-6.732,6.732
	s-6.732-3.015-6.732-6.732S1789.444,608.519,1793.162,608.519z M1849.733,725.983c-3.722,0-6.732-3.019-6.732-6.732
	c0-3.719,3.015-6.732,6.732-6.732c3.717,0,6.729,3.019,6.729,6.732S1853.451,725.983,1849.733,725.983z M60.234,161.453
	c-4.537-11.612-15.834-19.838-29.053-19.838c-17.22,0-31.18,13.959-31.18,31.18c0,17.221,13.96,31.18,31.18,31.18
	c13.287,0,24.633-8.312,29.123-20.019c4.155-5.392,10.347-2.815,15.848-1.581c22.728,9.564,84.606,36.103,105.455,47.021
	c24.534,12.85,76.853,56.818,98.865,85.229s61.409,80.934,74.66,114.134c13.25,33.201,25.472,61.804,25.776,65.398
	c0.304,3.596,5.937,7.172,14.3,10.303c8.364,3.131,304.388,98.137,311.022,100.986c6.637,2.852,13.971,1.379,35.23-9.371
	s101.146-49.262,133.812-53.729c32.662-4.465,123.392-0.399,204.285,26.021c80.895,26.42,186.312,65.688,250.973,99.236
	c64.652,33.551,141.603,78.852,193.006,112.021c51.406,33.176,87.392,62.963,91.293,66.258c3.898,3.293,8.086,4.859,18.295,2.078
	c10.212-2.781,256.662-111.004,261.546-113.762c4.878-2.751,15.676-3.663,0.042-22.167
	c-15.635-18.506-450.938-545.995-485.596-600.41c-34.654-54.415-64.33-90.278-97.627-98.338
	c-33.297-8.058-49.746-16.048-103.58-12.353S946.827,24.265,870.681,28.78c-76.146,4.514-477.002,36.249-533.849,42.118
	c-56.847,5.867-101.288,17.298-145.424,32.323c-35.276,12.011-93.085,44.172-114.875,56.602c-4.848,1.744-11.649,6.356-16.298,1.633
	L60.234,161.453L60.234,161.453z"/>
</svg>
