<?xml version="1.0" encoding="utf-8"?>
<!-- Generator: Adobe Illustrator 16.0.0, SVG Export Plug-In . SVG Version: 6.00 Build 0)  -->
<!DOCTYPE svg PUBLIC "-//W3C//DTD SVG 1.1//EN" "http://www.w3.org/Graphics/SVG/1.1/DTD/svg11.dtd">
<svg version="1.1" id="Layer_1" xmlns="http://www.w3.org/2000/svg" xmlns:xlink="http://www.w3.org/1999/xlink" x="0px" y="0px"
	 width="1902.863px" height="849.395px" viewBox="0 0 1902.863 849.395" enable-background="new 0 0 1902.863 849.395"
	 xml:space="preserve">
<path fill="none" stroke="#000000" stroke-linejoin="round" stroke-miterlimit="10" d="M1894.713,712.03
	c-15.635-18.506-450.938-545.995-485.596-600.41c-34.654-54.415-64.33-90.278-97.627-98.338
	c-33.297-8.058-49.746-16.048-103.58-12.353c-53.834,3.695-261.083,23.336-337.229,27.851
	c-76.147,4.514-477.002,36.249-533.849,42.118c-56.847,5.867-101.288,17.298-145.424,32.323
	c-44.137,15.028-123.549,61.601-123.549,61.601c-7.616,3.202-7.147,11.263,0.352,14.252c7.501,2.99,88.86,37.473,113.396,50.322
	c24.534,12.85,76.853,56.818,98.865,85.229s61.409,80.934,74.66,114.134c13.25,33.201,25.472,61.802,25.776,65.398
	c0.304,3.596,5.937,7.172,14.3,10.303c8.364,3.131,304.388,98.137,311.022,100.986c6.637,2.852,13.971,1.379,35.231-9.371
	s101.146-49.262,133.812-53.729c32.663-4.465,123.392-0.4,204.286,26.02c80.894,26.42,186.312,65.688,250.972,99.236
	c64.653,33.551,141.603,78.852,193.006,112.021c51.406,33.176,87.392,62.963,91.293,66.258c3.899,3.293,8.086,4.859,18.295,2.078
	c10.212-2.781,256.662-111.004,261.546-113.762C1899.549,731.446,1910.347,730.534,1894.713,712.03z M152.624,153.982
	c-3.719,0-6.732-3.014-6.732-6.732s3.014-6.732,6.732-6.732s6.732,3.014,6.732,6.732S156.342,153.982,152.624,153.982z
	 M209.194,205.982c-3.719,0-6.732-3.014-6.732-6.732s3.014-6.732,6.732-6.732c3.718,0,6.732,3.014,6.732,6.732
	S212.912,205.982,209.194,205.982z M209.194,153.982c-3.719,0-6.732-3.014-6.732-6.732s3.014-6.732,6.732-6.732
	c3.718,0,6.732,3.014,6.732,6.732S212.912,153.982,209.194,153.982z M265.764,257.982c-3.719,0-6.732-3.014-6.732-6.732
	s3.014-6.732,6.732-6.732c3.718,0,6.732,3.014,6.732,6.732S269.483,257.982,265.764,257.982z M265.764,205.982
	c-3.719,0-6.732-3.014-6.732-6.732s3.014-6.732,6.732-6.732c3.718,0,6.732,3.014,6.732,6.732S269.483,205.982,265.764,205.982z
	 M265.764,153.982c-3.719,0-6.732-3.014-6.732-6.732s3.014-6.732,6.732-6.732c3.718,0,6.732,3.014,6.732,6.732
	S269.483,153.982,265.764,153.982z M322.334,309.982c-3.719,0-6.732-3.014-6.732-6.732s3.016-6.732,6.732-6.732
	s6.732,3.014,6.732,6.732S326.053,309.982,322.334,309.982z M322.334,257.982c-3.719,0-6.732-3.014-6.732-6.732
	s3.016-6.732,6.732-6.732s6.732,3.014,6.732,6.732S326.053,257.982,322.334,257.982z M322.334,205.982
	c-3.719,0-6.732-3.014-6.732-6.732s3.016-6.732,6.732-6.732s6.732,3.014,6.732,6.732S326.053,205.982,322.334,205.982z
	 M322.334,153.982c-3.719,0-6.732-3.014-6.732-6.732s3.016-6.732,6.732-6.732s6.732,3.014,6.732,6.732
	S326.053,153.982,322.334,153.982z M322.334,101.982c-3.719,0-6.732-3.014-6.732-6.732s3.016-6.732,6.732-6.732
	s6.732,3.014,6.732,6.732S326.053,101.982,322.334,101.982z M378.904,413.983c-3.721,0-6.732-3.017-6.732-6.732
	s3.016-6.732,6.732-6.732c3.716,0,6.73,3.017,6.73,6.732S382.623,413.983,378.904,413.983z M378.904,361.982
	c-3.721,0-6.732-3.014-6.732-6.732s3.016-6.732,6.732-6.732c3.716,0,6.73,3.014,6.73,6.732S382.623,361.982,378.904,361.982z
	 M378.904,309.982c-3.721,0-6.732-3.014-6.732-6.732s3.016-6.732,6.732-6.732c3.716,0,6.73,3.014,6.73,6.732
	S382.623,309.982,378.904,309.982z M378.904,257.982c-3.721,0-6.732-3.014-6.732-6.732s3.016-6.732,6.732-6.732
	c3.716,0,6.73,3.014,6.73,6.732S382.623,257.982,378.904,257.982z M378.904,205.982c-3.721,0-6.732-3.014-6.732-6.732
	s3.016-6.732,6.732-6.732c3.716,0,6.73,3.014,6.73,6.732S382.623,205.982,378.904,205.982z M378.904,153.982
	c-3.721,0-6.732-3.014-6.732-6.732s3.016-6.732,6.732-6.732c3.716,0,6.73,3.014,6.73,6.732S382.623,153.982,378.904,153.982z
	 M378.904,101.982c-3.721,0-6.732-3.014-6.732-6.732s3.016-6.732,6.732-6.732c3.716,0,6.73,3.014,6.73,6.732
	S382.623,101.982,378.904,101.982z M435.476,465.983c-3.721,0-6.73-3.018-6.73-6.732c0-3.719,3.016-6.731,6.73-6.731
	c3.718,0,6.73,3.017,6.73,6.731C442.207,462.967,439.194,465.983,435.476,465.983z M435.476,413.983c-3.721,0-6.73-3.017-6.73-6.732
	s3.016-6.732,6.73-6.732c3.718,0,6.73,3.017,6.73,6.732S439.194,413.983,435.476,413.983z M435.476,361.982
	c-3.721,0-6.73-3.014-6.73-6.732s3.016-6.732,6.73-6.732c3.718,0,6.73,3.014,6.73,6.732S439.194,361.982,435.476,361.982z
	 M435.476,309.982c-3.721,0-6.73-3.014-6.73-6.732s3.016-6.732,6.73-6.732c3.718,0,6.73,3.014,6.73,6.732
	S439.194,309.982,435.476,309.982z M435.476,257.982c-3.721,0-6.73-3.014-6.73-6.732s3.016-6.732,6.73-6.732
	c3.718,0,6.73,3.014,6.73,6.732S439.194,257.982,435.476,257.982z M435.476,205.982c-3.721,0-6.73-3.014-6.73-6.732
	s3.016-6.732,6.73-6.732c3.718,0,6.73,3.014,6.73,6.732S439.194,205.982,435.476,205.982z M435.476,153.982
	c-3.721,0-6.73-3.014-6.73-6.732s3.016-6.732,6.73-6.732c3.718,0,6.73,3.014,6.73,6.732S439.194,153.982,435.476,153.982z
	 M435.476,101.982c-3.721,0-6.73-3.014-6.73-6.732s3.016-6.732,6.73-6.732c3.718,0,6.73,3.014,6.73,6.732
	S439.194,101.982,435.476,101.982z M492.045,517.983c-3.719,0-6.729-3.018-6.729-6.732c0-3.719,3.014-6.732,6.729-6.732
	c3.72,0,6.732,3.018,6.732,6.732S495.765,517.983,492.045,517.983z M492.045,465.983c-3.719,0-6.729-3.018-6.729-6.732
	c0-3.719,3.014-6.731,6.729-6.731c3.72,0,6.732,3.017,6.732,6.731S495.765,465.983,492.045,465.983z M492.045,413.983
	c-3.719,0-6.729-3.017-6.729-6.732s3.014-6.732,6.729-6.732c3.72,0,6.732,3.017,6.732,6.732S495.765,413.983,492.045,413.983z
	 M492.045,361.982c-3.719,0-6.729-3.014-6.729-6.732s3.014-6.732,6.729-6.732c3.72,0,6.732,3.014,6.732,6.732
	S495.765,361.982,492.045,361.982z M492.045,309.982c-3.719,0-6.729-3.014-6.729-6.732s3.014-6.732,6.729-6.732
	c3.72,0,6.732,3.014,6.732,6.732S495.765,309.982,492.045,309.982z M492.045,257.982c-3.719,0-6.729-3.014-6.729-6.732
	s3.014-6.732,6.729-6.732c3.72,0,6.732,3.014,6.732,6.732S495.765,257.982,492.045,257.982z M492.045,205.982
	c-3.719,0-6.729-3.014-6.729-6.732s3.014-6.732,6.729-6.732c3.72,0,6.732,3.014,6.732,6.732S495.765,205.982,492.045,205.982z
	 M492.045,153.982c-3.719,0-6.729-3.014-6.729-6.732s3.014-6.732,6.729-6.732c3.72,0,6.732,3.014,6.732,6.732
	S495.765,153.982,492.045,153.982z M492.045,101.982c-3.719,0-6.729-3.014-6.729-6.732s3.014-6.732,6.729-6.732
	c3.72,0,6.732,3.014,6.732,6.732S495.765,101.982,492.045,101.982z M548.615,517.983c-3.719,0-6.73-3.018-6.73-6.732
	c0-3.719,3.016-6.732,6.73-6.732s6.73,3.018,6.73,6.732S552.334,517.983,548.615,517.983z M548.615,465.983
	c-3.719,0-6.73-3.018-6.73-6.732c0-3.719,3.016-6.731,6.73-6.731s6.73,3.017,6.73,6.731S552.334,465.983,548.615,465.983z
	 M548.615,413.983c-3.719,0-6.73-3.017-6.73-6.732s3.016-6.732,6.73-6.732s6.73,3.017,6.73,6.732S552.334,413.983,548.615,413.983z
	 M548.615,361.982c-3.719,0-6.73-3.014-6.73-6.732s3.016-6.732,6.73-6.732s6.73,3.014,6.73,6.732S552.334,361.982,548.615,361.982z
	 M548.615,309.982c-3.719,0-6.73-3.014-6.73-6.732s3.016-6.732,6.73-6.732s6.73,3.014,6.73,6.732S552.334,309.982,548.615,309.982z
	 M548.615,257.982c-3.719,0-6.73-3.014-6.73-6.732s3.016-6.732,6.73-6.732s6.73,3.014,6.73,6.732S552.334,257.982,548.615,257.982z
	 M548.615,205.982c-3.719,0-6.73-3.014-6.73-6.732s3.016-6.732,6.73-6.732s6.73,3.014,6.73,6.732S552.334,205.982,548.615,205.982z
	 M548.615,153.982c-3.719,0-6.73-3.014-6.73-6.732s3.016-6.732,6.73-6.732s6.73,3.014,6.73,6.732S552.334,153.982,548.615,153.982z
	 M548.615,101.982c-3.719,0-6.73-3.014-6.73-6.732s3.016-6.732,6.73-6.732s6.73,3.014,6.73,6.732S552.334,101.982,548.615,101.982z
	 M605.188,517.983c-3.72,0-6.731-3.018-6.731-6.732c0-3.719,3.016-6.732,6.731-6.732c3.717,0,6.729,3.018,6.729,6.732
	C611.918,514.967,608.904,517.983,605.188,517.983z M605.188,465.983c-3.72,0-6.731-3.018-6.731-6.732
	c0-3.719,3.016-6.731,6.731-6.731c3.717,0,6.729,3.017,6.729,6.731C611.918,462.967,608.904,465.983,605.188,465.983z
	 M605.188,413.983c-3.72,0-6.731-3.017-6.731-6.732s3.016-6.732,6.731-6.732c3.717,0,6.729,3.017,6.729,6.732
	S608.904,413.983,605.188,413.983z M605.188,361.982c-3.72,0-6.731-3.014-6.731-6.732s3.016-6.732,6.731-6.732
	c3.717,0,6.729,3.014,6.729,6.732S608.904,361.982,605.188,361.982z M605.188,309.982c-3.72,0-6.731-3.014-6.731-6.732
	s3.016-6.732,6.731-6.732c3.717,0,6.729,3.014,6.729,6.732S608.904,309.982,605.188,309.982z M605.188,257.982
	c-3.72,0-6.731-3.014-6.731-6.732s3.016-6.732,6.731-6.732c3.717,0,6.729,3.014,6.729,6.732S608.904,257.982,605.188,257.982z
	 M605.188,205.982c-3.72,0-6.731-3.014-6.731-6.732s3.016-6.732,6.731-6.732c3.717,0,6.729,3.014,6.729,6.732
	S608.904,205.982,605.188,205.982z M605.188,153.982c-3.72,0-6.731-3.014-6.731-6.732s3.016-6.732,6.731-6.732
	c3.717,0,6.729,3.014,6.729,6.732S608.904,153.982,605.188,153.982z M605.188,101.982c-3.72,0-6.731-3.014-6.731-6.732
	s3.016-6.732,6.731-6.732c3.717,0,6.729,3.014,6.729,6.732S608.904,101.982,605.188,101.982z M661.756,569.983
	c-3.719,0-6.729-3.018-6.729-6.732c0-3.719,3.014-6.732,6.729-6.732c3.72,0,6.732,3.018,6.732,6.732
	S665.476,569.983,661.756,569.983z M661.756,517.983c-3.719,0-6.729-3.018-6.729-6.732c0-3.719,3.014-6.732,6.729-6.732
	c3.72,0,6.732,3.018,6.732,6.732S665.476,517.983,661.756,517.983z M661.756,465.983c-3.719,0-6.729-3.018-6.729-6.732
	c0-3.719,3.014-6.731,6.729-6.731c3.72,0,6.732,3.017,6.732,6.731S665.476,465.983,661.756,465.983z M661.756,413.983
	c-3.719,0-6.729-3.017-6.729-6.732s3.014-6.732,6.729-6.732c3.72,0,6.732,3.017,6.732,6.732S665.476,413.983,661.756,413.983z
	 M661.756,361.982c-3.719,0-6.729-3.014-6.729-6.732s3.014-6.732,6.729-6.732c3.72,0,6.732,3.014,6.732,6.732
	S665.476,361.982,661.756,361.982z M661.756,309.982c-3.719,0-6.729-3.014-6.729-6.732s3.014-6.732,6.729-6.732
	c3.72,0,6.732,3.014,6.732,6.732S665.476,309.982,661.756,309.982z M661.756,257.982c-3.719,0-6.729-3.014-6.729-6.732
	s3.014-6.732,6.729-6.732c3.72,0,6.732,3.014,6.732,6.732S665.476,257.982,661.756,257.982z M661.756,205.982
	c-3.719,0-6.729-3.014-6.729-6.732s3.014-6.732,6.729-6.732c3.72,0,6.732,3.014,6.732,6.732S665.476,205.982,661.756,205.982z
	 M661.756,153.982c-3.719,0-6.729-3.014-6.729-6.732s3.014-6.732,6.729-6.732c3.72,0,6.732,3.014,6.732,6.732
	S665.476,153.982,661.756,153.982z M661.756,101.982c-3.719,0-6.729-3.014-6.729-6.732s3.014-6.732,6.729-6.732
	c3.72,0,6.732,3.014,6.732,6.732S665.476,101.982,661.756,101.982z M718.326,569.983c-3.719,0-6.73-3.018-6.73-6.732
	c0-3.719,3.016-6.732,6.73-6.732s6.73,3.018,6.73,6.732S722.045,569.983,718.326,569.983z M718.326,517.983
	c-3.719,0-6.73-3.018-6.73-6.732c0-3.719,3.016-6.732,6.73-6.732s6.73,3.018,6.73,6.732S722.045,517.983,718.326,517.983z
	 M718.326,465.983c-3.719,0-6.73-3.018-6.73-6.732c0-3.719,3.016-6.731,6.73-6.731s6.73,3.017,6.73,6.731
	S722.045,465.983,718.326,465.983z M718.326,413.983c-3.719,0-6.73-3.017-6.73-6.732s3.016-6.732,6.73-6.732s6.73,3.017,6.73,6.732
	S722.045,413.983,718.326,413.983z M718.326,361.982c-3.719,0-6.73-3.014-6.73-6.732s3.016-6.732,6.73-6.732s6.73,3.014,6.73,6.732
	S722.045,361.982,718.326,361.982z M718.326,309.982c-3.719,0-6.73-3.014-6.73-6.732s3.016-6.732,6.73-6.732s6.73,3.014,6.73,6.732
	S722.045,309.982,718.326,309.982z M718.326,257.982c-3.719,0-6.73-3.014-6.73-6.732s3.016-6.732,6.73-6.732s6.73,3.014,6.73,6.732
	S722.045,257.982,718.326,257.982z M718.326,205.982c-3.719,0-6.73-3.014-6.73-6.732s3.016-6.732,6.73-6.732s6.73,3.014,6.73,6.732
	S722.045,205.982,718.326,205.982z M718.326,153.982c-3.719,0-6.73-3.014-6.73-6.732s3.016-6.732,6.73-6.732s6.73,3.014,6.73,6.732
	S722.045,153.982,718.326,153.982z M718.326,101.982c-3.719,0-6.73-3.014-6.73-6.732s3.016-6.732,6.73-6.732s6.73,3.014,6.73,6.732
	S722.045,101.982,718.326,101.982z M774.896,517.983c-3.72,0-6.731-3.018-6.731-6.732c0-3.719,3.016-6.732,6.731-6.732
	c3.717,0,6.729,3.018,6.729,6.732C781.629,514.967,778.615,517.983,774.896,517.983z M774.896,465.983
	c-3.72,0-6.731-3.018-6.731-6.732c0-3.719,3.016-6.731,6.731-6.731c3.717,0,6.729,3.017,6.729,6.731
	C781.629,462.967,778.615,465.983,774.896,465.983z M774.896,413.983c-3.72,0-6.731-3.017-6.731-6.732s3.016-6.732,6.731-6.732
	c3.717,0,6.729,3.017,6.729,6.732S778.615,413.983,774.896,413.983z M774.896,361.982c-3.72,0-6.731-3.014-6.731-6.732
	s3.016-6.732,6.731-6.732c3.717,0,6.729,3.014,6.729,6.732S778.615,361.982,774.896,361.982z M774.896,309.982
	c-3.72,0-6.731-3.014-6.731-6.732s3.016-6.732,6.731-6.732c3.717,0,6.729,3.014,6.729,6.732S778.615,309.982,774.896,309.982z
	 M774.896,257.982c-3.72,0-6.731-3.014-6.731-6.732s3.016-6.732,6.731-6.732c3.717,0,6.729,3.014,6.729,6.732
	S778.615,257.982,774.896,257.982z M774.896,205.982c-3.72,0-6.731-3.014-6.731-6.732s3.016-6.732,6.731-6.732
	c3.717,0,6.729,3.014,6.729,6.732S778.615,205.982,774.896,205.982z M774.896,153.982c-3.72,0-6.731-3.014-6.731-6.732
	s3.016-6.732,6.731-6.732c3.717,0,6.729,3.014,6.729,6.732S778.615,153.982,774.896,153.982z M774.896,101.982
	c-3.72,0-6.731-3.014-6.731-6.732s3.016-6.732,6.731-6.732c3.717,0,6.729,3.014,6.729,6.732S778.615,101.982,774.896,101.982z
	 M831.468,517.983c-3.721,0-6.73-3.018-6.73-6.732c0-3.719,3.014-6.732,6.73-6.732c3.718,0,6.73,3.018,6.73,6.732
	C838.199,514.967,835.188,517.983,831.468,517.983z M831.468,465.983c-3.721,0-6.73-3.018-6.73-6.732
	c0-3.719,3.014-6.731,6.73-6.731c3.718,0,6.73,3.017,6.73,6.731C838.199,462.967,835.188,465.983,831.468,465.983z M831.468,413.983
	c-3.721,0-6.73-3.017-6.73-6.732s3.014-6.732,6.73-6.732c3.718,0,6.73,3.017,6.73,6.732S835.188,413.983,831.468,413.983z
	 M831.468,361.982c-3.721,0-6.73-3.014-6.73-6.732s3.014-6.732,6.73-6.732c3.718,0,6.73,3.014,6.73,6.732
	S835.188,361.982,831.468,361.982z M831.468,309.982c-3.721,0-6.73-3.014-6.73-6.732s3.014-6.732,6.73-6.732
	c3.718,0,6.73,3.014,6.73,6.732S835.188,309.982,831.468,309.982z M831.468,257.982c-3.721,0-6.73-3.014-6.73-6.732
	s3.014-6.732,6.73-6.732c3.718,0,6.73,3.014,6.73,6.732S835.188,257.982,831.468,257.982z M831.468,205.982
	c-3.721,0-6.73-3.014-6.73-6.732s3.014-6.732,6.73-6.732c3.718,0,6.73,3.014,6.73,6.732S835.188,205.982,831.468,205.982z
	 M831.468,153.982c-3.721,0-6.73-3.014-6.73-6.732s3.014-6.732,6.73-6.732c3.718,0,6.73,3.014,6.73,6.732
	S835.188,153.982,831.468,153.982z M831.468,101.982c-3.721,0-6.73-3.014-6.73-6.732s3.014-6.732,6.73-6.732
	c3.718,0,6.73,3.014,6.73,6.732S835.188,101.982,831.468,101.982z M888.037,517.983c-3.719,0-6.73-3.018-6.73-6.732
	c0-3.719,3.016-6.732,6.73-6.732c3.719,0,6.73,3.018,6.73,6.732S891.756,517.983,888.037,517.983z M888.037,465.983
	c-3.719,0-6.73-3.018-6.73-6.732c0-3.719,3.016-6.731,6.73-6.731c3.719,0,6.73,3.017,6.73,6.731S891.756,465.983,888.037,465.983z
	 M888.037,413.983c-3.719,0-6.73-3.017-6.73-6.732s3.016-6.732,6.73-6.732c3.719,0,6.73,3.017,6.73,6.732
	S891.756,413.983,888.037,413.983z M888.037,361.982c-3.719,0-6.73-3.014-6.73-6.732s3.016-6.732,6.73-6.732
	c3.719,0,6.73,3.014,6.73,6.732S891.756,361.982,888.037,361.982z M888.037,309.982c-3.719,0-6.73-3.014-6.73-6.732
	s3.016-6.732,6.73-6.732c3.719,0,6.73,3.014,6.73,6.732S891.756,309.982,888.037,309.982z M888.037,257.982
	c-3.719,0-6.73-3.014-6.73-6.732s3.016-6.732,6.73-6.732c3.719,0,6.73,3.014,6.73,6.732S891.756,257.982,888.037,257.982z
	 M888.037,205.982c-3.719,0-6.73-3.014-6.73-6.732s3.016-6.732,6.73-6.732c3.719,0,6.73,3.014,6.73,6.732
	S891.756,205.982,888.037,205.982z M888.037,153.982c-3.719,0-6.73-3.014-6.73-6.732s3.016-6.732,6.73-6.732
	c3.719,0,6.73,3.014,6.73,6.732S891.756,153.982,888.037,153.982z M888.037,101.982c-3.719,0-6.73-3.014-6.73-6.732
	s3.016-6.732,6.73-6.732c3.719,0,6.73,3.014,6.73,6.732S891.756,101.982,888.037,101.982z M944.607,517.983
	c-3.72,0-6.731-3.018-6.731-6.732c0-3.719,3.016-6.732,6.731-6.732c3.717,0,6.73,3.018,6.73,6.732S948.326,517.983,944.607,517.983z
	 M944.607,465.983c-3.72,0-6.731-3.018-6.731-6.732c0-3.719,3.016-6.731,6.731-6.731c3.717,0,6.73,3.017,6.73,6.731
	S948.326,465.983,944.607,465.983z M944.607,413.983c-3.72,0-6.731-3.017-6.731-6.732s3.016-6.732,6.731-6.732
	c3.717,0,6.73,3.017,6.73,6.732S948.326,413.983,944.607,413.983z M944.607,361.982c-3.72,0-6.731-3.014-6.731-6.732
	s3.016-6.732,6.731-6.732c3.717,0,6.73,3.014,6.73,6.732S948.326,361.982,944.607,361.982z M944.607,309.982
	c-3.72,0-6.731-3.014-6.731-6.732s3.016-6.732,6.731-6.732c3.717,0,6.73,3.014,6.73,6.732S948.326,309.982,944.607,309.982z
	 M944.607,257.982c-3.72,0-6.731-3.014-6.731-6.732s3.016-6.732,6.731-6.732c3.717,0,6.73,3.014,6.73,6.732
	S948.326,257.982,944.607,257.982z M944.607,205.982c-3.72,0-6.731-3.014-6.731-6.732s3.016-6.732,6.731-6.732
	c3.717,0,6.73,3.014,6.73,6.732S948.326,205.982,944.607,205.982z M944.607,153.982c-3.72,0-6.731-3.014-6.731-6.732
	s3.016-6.732,6.731-6.732c3.717,0,6.73,3.014,6.73,6.732S948.326,153.982,944.607,153.982z M944.607,101.982
	c-3.72,0-6.731-3.014-6.731-6.732s3.016-6.732,6.731-6.732c3.717,0,6.73,3.014,6.73,6.732S948.326,101.982,944.607,101.982z
	 M944.607,49.982c-3.72,0-6.731-3.014-6.731-6.732s3.016-6.732,6.731-6.732c3.717,0,6.73,3.014,6.73,6.732
	S948.326,49.982,944.607,49.982z M1001.179,517.983c-3.722,0-6.73-3.018-6.73-6.732c0-3.719,3.014-6.732,6.73-6.732
	c3.718,0,6.729,3.018,6.729,6.732S1004.896,517.983,1001.179,517.983z M1001.179,465.983c-3.722,0-6.73-3.018-6.73-6.732
	c0-3.719,3.014-6.731,6.73-6.731c3.718,0,6.729,3.017,6.729,6.731S1004.896,465.983,1001.179,465.983z M1001.179,413.983
	c-3.722,0-6.73-3.017-6.73-6.732s3.014-6.732,6.73-6.732c3.718,0,6.729,3.017,6.729,6.732S1004.896,413.983,1001.179,413.983z
	 M1001.179,361.982c-3.722,0-6.73-3.014-6.73-6.732s3.014-6.732,6.73-6.732c3.718,0,6.729,3.014,6.729,6.732
	S1004.896,361.982,1001.179,361.982z M1001.179,309.982c-3.722,0-6.73-3.014-6.73-6.732s3.014-6.732,6.73-6.732
	c3.718,0,6.729,3.014,6.729,6.732S1004.896,309.982,1001.179,309.982z M1001.179,257.982c-3.722,0-6.73-3.014-6.73-6.732
	s3.014-6.732,6.73-6.732c3.718,0,6.729,3.014,6.729,6.732S1004.896,257.982,1001.179,257.982z M1001.179,205.982
	c-3.722,0-6.73-3.014-6.73-6.732s3.014-6.732,6.73-6.732c3.718,0,6.729,3.014,6.729,6.732S1004.896,205.982,1001.179,205.982z
	 M1001.179,153.982c-3.722,0-6.73-3.014-6.73-6.732s3.014-6.732,6.73-6.732c3.718,0,6.729,3.014,6.729,6.732
	S1004.896,153.982,1001.179,153.982z M1001.179,101.982c-3.722,0-6.73-3.014-6.73-6.732s3.014-6.732,6.73-6.732
	c3.718,0,6.729,3.014,6.729,6.732S1004.896,101.982,1001.179,101.982z M1001.179,49.982c-3.722,0-6.73-3.014-6.73-6.732
	s3.014-6.732,6.73-6.732c3.718,0,6.729,3.014,6.729,6.732S1004.896,49.982,1001.179,49.982z M1057.748,517.983
	c-3.719,0-6.73-3.018-6.73-6.732c0-3.719,3.015-6.732,6.73-6.732c3.719,0,6.732,3.018,6.732,6.732
	S1061.468,517.983,1057.748,517.983z M1057.748,465.983c-3.719,0-6.73-3.018-6.73-6.732c0-3.719,3.015-6.731,6.73-6.731
	c3.719,0,6.732,3.017,6.732,6.731S1061.468,465.983,1057.748,465.983z M1057.748,413.983c-3.719,0-6.73-3.017-6.73-6.732
	s3.015-6.732,6.73-6.732c3.719,0,6.732,3.017,6.732,6.732S1061.468,413.983,1057.748,413.983z M1057.748,361.982
	c-3.719,0-6.73-3.014-6.73-6.732s3.015-6.732,6.73-6.732c3.719,0,6.732,3.014,6.732,6.732S1061.468,361.982,1057.748,361.982z
	 M1057.748,309.982c-3.719,0-6.73-3.014-6.73-6.732s3.015-6.732,6.73-6.732c3.719,0,6.732,3.014,6.732,6.732
	S1061.468,309.982,1057.748,309.982z M1057.748,257.982c-3.719,0-6.73-3.014-6.73-6.732s3.015-6.732,6.73-6.732
	c3.719,0,6.732,3.014,6.732,6.732S1061.468,257.982,1057.748,257.982z M1057.748,205.982c-3.719,0-6.73-3.014-6.73-6.732
	s3.015-6.732,6.73-6.732c3.719,0,6.732,3.014,6.732,6.732S1061.468,205.982,1057.748,205.982z M1057.748,153.982
	c-3.719,0-6.73-3.014-6.73-6.732s3.015-6.732,6.73-6.732c3.719,0,6.732,3.014,6.732,6.732S1061.468,153.982,1057.748,153.982z
	 M1057.748,101.982c-3.719,0-6.73-3.014-6.73-6.732s3.015-6.732,6.73-6.732c3.719,0,6.732,3.014,6.732,6.732
	S1061.468,101.982,1057.748,101.982z M1057.748,49.982c-3.719,0-6.73-3.014-6.73-6.732s3.015-6.732,6.73-6.732
	c3.719,0,6.732,3.014,6.732,6.732S1061.468,49.982,1057.748,49.982z M1114.319,517.983c-3.721,0-6.732-3.018-6.732-6.732
	c0-3.719,3.015-6.732,6.732-6.732c3.717,0,6.73,3.018,6.73,6.732S1118.037,517.983,1114.319,517.983z M1114.319,465.983
	c-3.721,0-6.732-3.018-6.732-6.732c0-3.719,3.015-6.731,6.732-6.731c3.717,0,6.73,3.017,6.73,6.731
	S1118.037,465.983,1114.319,465.983z M1114.319,413.983c-3.721,0-6.732-3.017-6.732-6.732s3.015-6.732,6.732-6.732
	c3.717,0,6.73,3.017,6.73,6.732S1118.037,413.983,1114.319,413.983z M1114.319,361.982c-3.721,0-6.732-3.014-6.732-6.732
	s3.015-6.732,6.732-6.732c3.717,0,6.73,3.014,6.73,6.732S1118.037,361.982,1114.319,361.982z M1114.319,309.982
	c-3.721,0-6.732-3.014-6.732-6.732s3.015-6.732,6.732-6.732c3.717,0,6.73,3.014,6.73,6.732S1118.037,309.982,1114.319,309.982z
	 M1114.319,257.982c-3.721,0-6.732-3.014-6.732-6.732s3.015-6.732,6.732-6.732c3.717,0,6.73,3.014,6.73,6.732
	S1118.037,257.982,1114.319,257.982z M1114.319,205.982c-3.721,0-6.732-3.014-6.732-6.732s3.015-6.732,6.732-6.732
	c3.717,0,6.73,3.014,6.73,6.732S1118.037,205.982,1114.319,205.982z M1114.319,153.982c-3.721,0-6.732-3.014-6.732-6.732
	s3.015-6.732,6.732-6.732c3.717,0,6.73,3.014,6.73,6.732S1118.037,153.982,1114.319,153.982z M1114.319,101.982
	c-3.721,0-6.732-3.014-6.732-6.732s3.015-6.732,6.732-6.732c3.717,0,6.73,3.014,6.73,6.732S1118.037,101.982,1114.319,101.982z
	 M1114.319,49.982c-3.721,0-6.732-3.014-6.732-6.732s3.015-6.732,6.732-6.732c3.717,0,6.73,3.014,6.73,6.732
	S1118.037,49.982,1114.319,49.982z M1170.89,569.983c-3.722,0-6.73-3.018-6.73-6.732c0-3.719,3.014-6.732,6.73-6.732
	c3.718,0,6.729,3.018,6.729,6.732S1174.608,569.983,1170.89,569.983z M1170.89,517.983c-3.722,0-6.73-3.018-6.73-6.732
	c0-3.719,3.014-6.732,6.73-6.732c3.718,0,6.729,3.018,6.729,6.732S1174.608,517.983,1170.89,517.983z M1170.89,465.983
	c-3.722,0-6.73-3.018-6.73-6.732c0-3.719,3.014-6.731,6.73-6.731c3.718,0,6.729,3.017,6.729,6.731S1174.608,465.983,1170.89,465.983
	z M1170.89,413.983c-3.722,0-6.73-3.017-6.73-6.732s3.014-6.732,6.73-6.732c3.718,0,6.729,3.017,6.729,6.732
	S1174.608,413.983,1170.89,413.983z M1170.89,361.982c-3.722,0-6.73-3.014-6.73-6.732s3.014-6.732,6.73-6.732
	c3.718,0,6.729,3.014,6.729,6.732S1174.608,361.982,1170.89,361.982z M1170.89,309.982c-3.722,0-6.73-3.014-6.73-6.732
	s3.014-6.732,6.73-6.732c3.718,0,6.729,3.014,6.729,6.732S1174.608,309.982,1170.89,309.982z M1170.89,257.982
	c-3.722,0-6.73-3.014-6.73-6.732s3.014-6.732,6.73-6.732c3.718,0,6.729,3.014,6.729,6.732S1174.608,257.982,1170.89,257.982z
	 M1170.89,205.982c-3.722,0-6.73-3.014-6.73-6.732s3.014-6.732,6.73-6.732c3.718,0,6.729,3.014,6.729,6.732
	S1174.608,205.982,1170.89,205.982z M1170.89,153.982c-3.722,0-6.73-3.014-6.73-6.732s3.014-6.732,6.73-6.732
	c3.718,0,6.729,3.014,6.729,6.732S1174.608,153.982,1170.89,153.982z M1170.89,101.982c-3.722,0-6.73-3.014-6.73-6.732
	s3.014-6.732,6.73-6.732c3.718,0,6.729,3.014,6.729,6.732S1174.608,101.982,1170.89,101.982z M1170.89,49.982
	c-3.722,0-6.73-3.014-6.73-6.732s3.014-6.732,6.73-6.732c3.718,0,6.729,3.014,6.729,6.732S1174.608,49.982,1170.89,49.982z
	 M1227.459,569.983c-3.719,0-6.73-3.018-6.73-6.732c0-3.719,3.015-6.732,6.73-6.732c3.719,0,6.732,3.018,6.732,6.732
	C1234.192,566.967,1231.179,569.983,1227.459,569.983z M1227.459,517.983c-3.719,0-6.73-3.018-6.73-6.732
	c0-3.719,3.015-6.732,6.73-6.732c3.719,0,6.732,3.018,6.732,6.732C1234.192,514.967,1231.179,517.983,1227.459,517.983z
	 M1227.459,465.983c-3.719,0-6.73-3.018-6.73-6.732c0-3.719,3.015-6.731,6.73-6.731c3.719,0,6.732,3.017,6.732,6.731
	C1234.192,462.967,1231.179,465.983,1227.459,465.983z M1227.459,413.983c-3.719,0-6.73-3.017-6.73-6.732s3.015-6.732,6.73-6.732
	c3.719,0,6.732,3.017,6.732,6.732S1231.179,413.983,1227.459,413.983z M1227.459,361.982c-3.719,0-6.73-3.014-6.73-6.732
	s3.015-6.732,6.73-6.732c3.719,0,6.732,3.014,6.732,6.732S1231.179,361.982,1227.459,361.982z M1227.459,309.982
	c-3.719,0-6.73-3.014-6.73-6.732s3.015-6.732,6.73-6.732c3.719,0,6.732,3.014,6.732,6.732S1231.179,309.982,1227.459,309.982z
	 M1227.459,257.982c-3.719,0-6.73-3.014-6.73-6.732s3.015-6.732,6.73-6.732c3.719,0,6.732,3.014,6.732,6.732
	S1231.179,257.982,1227.459,257.982z M1227.459,205.982c-3.719,0-6.73-3.014-6.73-6.732s3.015-6.732,6.73-6.732
	c3.719,0,6.732,3.014,6.732,6.732S1231.179,205.982,1227.459,205.982z M1227.459,153.982c-3.719,0-6.73-3.014-6.73-6.732
	s3.015-6.732,6.73-6.732c3.719,0,6.732,3.014,6.732,6.732S1231.179,153.982,1227.459,153.982z M1227.459,101.982
	c-3.719,0-6.73-3.014-6.73-6.732s3.015-6.732,6.73-6.732c3.719,0,6.732,3.014,6.732,6.732S1231.179,101.982,1227.459,101.982z
	 M1227.459,49.982c-3.719,0-6.73-3.014-6.73-6.732s3.015-6.732,6.73-6.732c3.719,0,6.732,3.014,6.732,6.732
	S1231.179,49.982,1227.459,49.982z M1284.029,621.983c-3.719,0-6.732-3.018-6.732-6.732c0-3.719,3.016-6.732,6.732-6.732
	c3.716,0,6.73,3.018,6.73,6.732C1290.763,618.967,1287.748,621.983,1284.029,621.983z M1284.029,569.983
	c-3.719,0-6.732-3.018-6.732-6.732c0-3.719,3.016-6.732,6.732-6.732c3.716,0,6.73,3.018,6.73,6.732
	C1290.763,566.967,1287.748,569.983,1284.029,569.983z M1284.029,517.983c-3.719,0-6.732-3.018-6.732-6.732
	c0-3.719,3.016-6.732,6.732-6.732c3.716,0,6.73,3.018,6.73,6.732C1290.763,514.967,1287.748,517.983,1284.029,517.983z
	 M1284.029,465.983c-3.719,0-6.732-3.018-6.732-6.732c0-3.719,3.016-6.731,6.732-6.731c3.716,0,6.73,3.017,6.73,6.731
	C1290.763,462.967,1287.748,465.983,1284.029,465.983z M1284.029,413.983c-3.719,0-6.732-3.017-6.732-6.732s3.016-6.732,6.732-6.732
	c3.716,0,6.73,3.017,6.73,6.732S1287.748,413.983,1284.029,413.983z M1284.029,361.982c-3.719,0-6.732-3.014-6.732-6.732
	s3.016-6.732,6.732-6.732c3.716,0,6.73,3.014,6.73,6.732S1287.748,361.982,1284.029,361.982z M1284.029,309.982
	c-3.719,0-6.732-3.014-6.732-6.732s3.016-6.732,6.732-6.732c3.716,0,6.73,3.014,6.73,6.732S1287.748,309.982,1284.029,309.982z
	 M1284.029,257.982c-3.719,0-6.732-3.014-6.732-6.732s3.016-6.732,6.732-6.732c3.716,0,6.73,3.014,6.73,6.732
	S1287.748,257.982,1284.029,257.982z M1284.029,205.982c-3.719,0-6.732-3.014-6.732-6.732s3.016-6.732,6.732-6.732
	c3.716,0,6.73,3.014,6.73,6.732S1287.748,205.982,1284.029,205.982z M1284.029,153.982c-3.719,0-6.732-3.014-6.732-6.732
	s3.016-6.732,6.732-6.732c3.716,0,6.73,3.014,6.73,6.732S1287.748,153.982,1284.029,153.982z M1284.029,101.982
	c-3.719,0-6.732-3.014-6.732-6.732s3.016-6.732,6.732-6.732c3.716,0,6.73,3.014,6.73,6.732S1287.748,101.982,1284.029,101.982z
	 M1284.029,49.982c-3.719,0-6.732-3.014-6.732-6.732s3.016-6.732,6.732-6.732c3.716,0,6.73,3.014,6.73,6.732
	S1287.748,49.982,1284.029,49.982z M1340.601,621.983c-3.72,0-6.73-3.018-6.73-6.732c0-3.719,3.015-6.732,6.73-6.732
	c3.719,0,6.729,3.018,6.729,6.732S1344.319,621.983,1340.601,621.983z M1340.601,569.983c-3.72,0-6.73-3.018-6.73-6.732
	c0-3.719,3.015-6.732,6.73-6.732c3.719,0,6.729,3.018,6.729,6.732S1344.319,569.983,1340.601,569.983z M1340.601,517.983
	c-3.72,0-6.73-3.018-6.73-6.732c0-3.719,3.015-6.732,6.73-6.732c3.719,0,6.729,3.018,6.729,6.732S1344.319,517.983,1340.601,517.983
	z M1340.601,465.983c-3.72,0-6.73-3.018-6.73-6.732c0-3.719,3.015-6.731,6.73-6.731c3.719,0,6.729,3.017,6.729,6.731
	S1344.319,465.983,1340.601,465.983z M1340.601,413.983c-3.72,0-6.73-3.017-6.73-6.732s3.015-6.732,6.73-6.732
	c3.719,0,6.729,3.017,6.729,6.732S1344.319,413.983,1340.601,413.983z M1340.601,361.982c-3.72,0-6.73-3.014-6.73-6.732
	s3.015-6.732,6.73-6.732c3.719,0,6.729,3.014,6.729,6.732S1344.319,361.982,1340.601,361.982z M1340.601,309.982
	c-3.72,0-6.73-3.014-6.73-6.732s3.015-6.732,6.73-6.732c3.719,0,6.729,3.014,6.729,6.732S1344.319,309.982,1340.601,309.982z
	 M1340.601,257.982c-3.72,0-6.73-3.014-6.73-6.732s3.015-6.732,6.73-6.732c3.719,0,6.729,3.014,6.729,6.732
	S1344.319,257.982,1340.601,257.982z M1340.601,205.982c-3.72,0-6.73-3.014-6.73-6.732s3.015-6.732,6.73-6.732
	c3.719,0,6.729,3.014,6.729,6.732S1344.319,205.982,1340.601,205.982z M1340.601,153.982c-3.72,0-6.73-3.014-6.73-6.732
	s3.015-6.732,6.73-6.732c3.719,0,6.729,3.014,6.729,6.732S1344.319,153.982,1340.601,153.982z M1340.601,101.982
	c-3.72,0-6.73-3.014-6.73-6.732s3.015-6.732,6.73-6.732c3.719,0,6.729,3.014,6.729,6.732S1344.319,101.982,1340.601,101.982z
	 M1397.17,673.983c-3.719,0-6.729-3.018-6.729-6.732c0-3.719,3.014-6.732,6.729-6.732c3.719,0,6.732,3.018,6.732,6.732
	C1403.903,670.967,1400.89,673.983,1397.17,673.983z M1397.17,621.983c-3.719,0-6.729-3.018-6.729-6.732
	c0-3.719,3.014-6.732,6.729-6.732c3.719,0,6.732,3.018,6.732,6.732C1403.903,618.967,1400.89,621.983,1397.17,621.983z
	 M1397.17,569.983c-3.719,0-6.729-3.018-6.729-6.732c0-3.719,3.014-6.732,6.729-6.732c3.719,0,6.732,3.018,6.732,6.732
	C1403.903,566.967,1400.89,569.983,1397.17,569.983z M1397.17,517.983c-3.719,0-6.729-3.018-6.729-6.732
	c0-3.719,3.014-6.732,6.729-6.732c3.719,0,6.732,3.018,6.732,6.732C1403.903,514.967,1400.89,517.983,1397.17,517.983z
	 M1397.17,465.983c-3.719,0-6.729-3.018-6.729-6.732c0-3.719,3.014-6.731,6.729-6.731c3.719,0,6.732,3.017,6.732,6.731
	C1403.903,462.967,1400.89,465.983,1397.17,465.983z M1397.17,413.983c-3.719,0-6.729-3.017-6.729-6.732s3.014-6.732,6.729-6.732
	c3.719,0,6.732,3.017,6.732,6.732S1400.89,413.983,1397.17,413.983z M1397.17,361.982c-3.719,0-6.729-3.014-6.729-6.732
	s3.014-6.732,6.729-6.732c3.719,0,6.732,3.014,6.732,6.732S1400.89,361.982,1397.17,361.982z M1397.17,309.982
	c-3.719,0-6.729-3.014-6.729-6.732s3.014-6.732,6.729-6.732c3.719,0,6.732,3.014,6.732,6.732S1400.89,309.982,1397.17,309.982z
	 M1397.17,257.982c-3.719,0-6.729-3.014-6.729-6.732s3.014-6.732,6.729-6.732c3.719,0,6.732,3.014,6.732,6.732
	S1400.89,257.982,1397.17,257.982z M1397.17,205.982c-3.719,0-6.729-3.014-6.729-6.732s3.014-6.732,6.729-6.732
	c3.719,0,6.732,3.014,6.732,6.732S1400.89,205.982,1397.17,205.982z M1397.17,153.982c-3.719,0-6.729-3.014-6.729-6.732
	s3.014-6.732,6.729-6.732c3.719,0,6.732,3.014,6.732,6.732S1400.89,153.982,1397.17,153.982z M1453.74,673.983
	c-3.719,0-6.732-3.018-6.732-6.732c0-3.719,3.016-6.732,6.732-6.732c3.716,0,6.73,3.018,6.73,6.732
	C1460.474,670.967,1457.459,673.983,1453.74,673.983z M1453.74,621.983c-3.719,0-6.732-3.018-6.732-6.732
	c0-3.719,3.016-6.732,6.732-6.732c3.716,0,6.73,3.018,6.73,6.732C1460.474,618.967,1457.459,621.983,1453.74,621.983z
	 M1453.74,569.983c-3.719,0-6.732-3.018-6.732-6.732c0-3.719,3.016-6.732,6.732-6.732c3.716,0,6.73,3.018,6.73,6.732
	C1460.474,566.967,1457.459,569.983,1453.74,569.983z M1453.74,517.983c-3.719,0-6.732-3.018-6.732-6.732
	c0-3.719,3.016-6.732,6.732-6.732c3.716,0,6.73,3.018,6.73,6.732C1460.474,514.967,1457.459,517.983,1453.74,517.983z
	 M1453.74,465.983c-3.719,0-6.732-3.018-6.732-6.732c0-3.719,3.016-6.731,6.732-6.731c3.716,0,6.73,3.017,6.73,6.731
	C1460.474,462.967,1457.459,465.983,1453.74,465.983z M1453.74,413.983c-3.719,0-6.732-3.017-6.732-6.732s3.016-6.732,6.732-6.732
	c3.716,0,6.73,3.017,6.73,6.732S1457.459,413.983,1453.74,413.983z M1453.74,361.982c-3.719,0-6.732-3.014-6.732-6.732
	s3.016-6.732,6.732-6.732c3.716,0,6.73,3.014,6.73,6.732S1457.459,361.982,1453.74,361.982z M1453.74,309.982
	c-3.719,0-6.732-3.014-6.732-6.732s3.016-6.732,6.732-6.732c3.716,0,6.73,3.014,6.73,6.732S1457.459,309.982,1453.74,309.982z
	 M1453.74,257.982c-3.719,0-6.732-3.014-6.732-6.732s3.016-6.732,6.732-6.732c3.716,0,6.73,3.014,6.73,6.732
	S1457.459,257.982,1453.74,257.982z M1510.312,725.983c-3.722,0-6.732-3.018-6.732-6.732c0-3.719,3.015-6.732,6.732-6.732
	c3.717,0,6.729,3.018,6.729,6.732S1514.029,725.983,1510.312,725.983z M1510.312,673.983c-3.722,0-6.732-3.018-6.732-6.732
	c0-3.719,3.015-6.732,6.732-6.732c3.717,0,6.729,3.018,6.729,6.732S1514.029,673.983,1510.312,673.983z M1510.312,621.983
	c-3.722,0-6.732-3.018-6.732-6.732c0-3.719,3.015-6.732,6.732-6.732c3.717,0,6.729,3.018,6.729,6.732
	S1514.029,621.983,1510.312,621.983z M1510.312,569.983c-3.722,0-6.732-3.018-6.732-6.732c0-3.719,3.015-6.732,6.732-6.732
	c3.717,0,6.729,3.018,6.729,6.732S1514.029,569.983,1510.312,569.983z M1510.312,517.983c-3.722,0-6.732-3.018-6.732-6.732
	c0-3.719,3.015-6.732,6.732-6.732c3.717,0,6.729,3.018,6.729,6.732S1514.029,517.983,1510.312,517.983z M1510.312,465.983
	c-3.722,0-6.732-3.018-6.732-6.732c0-3.719,3.015-6.731,6.732-6.731c3.717,0,6.729,3.017,6.729,6.731
	S1514.029,465.983,1510.312,465.983z M1510.312,413.983c-3.722,0-6.732-3.017-6.732-6.732s3.015-6.732,6.732-6.732
	c3.717,0,6.729,3.017,6.729,6.732S1514.029,413.983,1510.312,413.983z M1510.312,361.982c-3.722,0-6.732-3.014-6.732-6.732
	s3.015-6.732,6.732-6.732c3.717,0,6.729,3.014,6.729,6.732S1514.029,361.982,1510.312,361.982z M1510.312,309.982
	c-3.722,0-6.732-3.014-6.732-6.732s3.015-6.732,6.732-6.732c3.717,0,6.729,3.014,6.729,6.732S1514.029,309.982,1510.312,309.982z
	 M1623.451,452.518c3.719,0,6.732,3.016,6.732,6.732s-3.019,6.732-6.732,6.732c-3.719,0-6.732-3.02-6.732-6.732
	C1616.72,455.532,1619.733,452.518,1623.451,452.518z M1623.451,504.518c3.719,0,6.732,3.016,6.732,6.732s-3.019,6.732-6.732,6.732
	c-3.719,0-6.732-3.02-6.732-6.732C1616.72,507.532,1619.733,504.518,1623.451,504.518z M1623.451,556.518
	c3.719,0,6.732,3.016,6.732,6.732s-3.019,6.732-6.732,6.732c-3.719,0-6.732-3.02-6.732-6.732
	C1616.72,559.532,1619.733,556.518,1623.451,556.518z M1623.451,608.518c3.719,0,6.732,3.016,6.732,6.732s-3.019,6.732-6.732,6.732
	c-3.719,0-6.732-3.02-6.732-6.732C1616.72,611.532,1619.733,608.518,1623.451,608.518z M1623.451,660.518
	c3.719,0,6.732,3.016,6.732,6.732s-3.019,6.732-6.732,6.732c-3.719,0-6.732-3.02-6.732-6.732
	C1616.72,663.532,1619.733,660.518,1623.451,660.518z M1566.881,348.519c3.72,0,6.732,3.014,6.732,6.732s-3.016,6.732-6.732,6.732
	s-6.729-3.014-6.729-6.732S1563.162,348.519,1566.881,348.519z M1566.881,400.518c3.72,0,6.732,3.017,6.732,6.732
	s-3.016,6.732-6.732,6.732s-6.729-3.017-6.729-6.732S1563.162,400.518,1566.881,400.518z M1566.881,452.518
	c3.72,0,6.732,3.016,6.732,6.732s-3.016,6.732-6.732,6.732s-6.729-3.02-6.729-6.732
	C1560.149,455.532,1563.162,452.518,1566.881,452.518z M1566.881,504.518c3.72,0,6.732,3.016,6.732,6.732s-3.016,6.732-6.732,6.732
	s-6.729-3.02-6.729-6.732C1560.149,507.532,1563.162,504.518,1566.881,504.518z M1566.881,556.518c3.72,0,6.732,3.016,6.732,6.732
	s-3.016,6.732-6.732,6.732s-6.729-3.02-6.729-6.732C1560.149,559.532,1563.162,556.518,1566.881,556.518z M1566.881,608.518
	c3.72,0,6.732,3.016,6.732,6.732s-3.016,6.732-6.732,6.732s-6.729-3.02-6.729-6.732
	C1560.149,611.532,1563.162,608.518,1566.881,608.518z M1566.881,660.518c3.72,0,6.732,3.016,6.732,6.732s-3.016,6.732-6.732,6.732
	s-6.729-3.02-6.729-6.732C1560.149,663.532,1563.162,660.518,1566.881,660.518z M1623.451,829.983c-3.719,0-6.732-3.018-6.732-6.732
	c0-3.719,3.017-6.732,6.732-6.732s6.732,3.018,6.732,6.732C1630.186,826.967,1627.17,829.983,1623.451,829.983z M1630.608,779.364
	c-20.854,20.873-53.017,22.553-71.837,3.752c-18.817-18.803-17.171-50.965,3.683-71.84c20.854-20.873,53.017-22.557,71.836-3.75
	C1653.11,726.327,1651.461,758.489,1630.608,779.364z M1680.021,777.983c-3.72,0-6.731-3.018-6.731-6.732
	c0-3.719,3.015-6.732,6.731-6.732c3.718,0,6.73,3.018,6.73,6.732S1683.74,777.983,1680.021,777.983z M1680.021,725.983
	c-3.72,0-6.731-3.018-6.731-6.732c0-3.719,3.015-6.732,6.731-6.732c3.718,0,6.73,3.018,6.73,6.732S1683.74,725.983,1680.021,725.983
	z M1680.021,673.983c-3.72,0-6.731-3.018-6.731-6.732c0-3.719,3.015-6.732,6.731-6.732c3.718,0,6.73,3.018,6.73,6.732
	S1683.74,673.983,1680.021,673.983z M1680.021,621.983c-3.72,0-6.731-3.018-6.731-6.732c0-3.719,3.015-6.732,6.731-6.732
	c3.718,0,6.73,3.018,6.73,6.732S1683.74,621.983,1680.021,621.983z M1680.021,569.983c-3.72,0-6.731-3.018-6.731-6.732
	c0-3.719,3.015-6.732,6.731-6.732c3.718,0,6.73,3.018,6.73,6.732S1683.74,569.983,1680.021,569.983z M1680.021,517.983
	c-3.72,0-6.731-3.018-6.731-6.732c0-3.719,3.015-6.732,6.731-6.732c3.718,0,6.73,3.018,6.73,6.732S1683.74,517.983,1680.021,517.983
	z M1736.592,777.983c-3.721,0-6.729-3.018-6.729-6.732c0-3.719,3.014-6.732,6.729-6.732s6.73,3.018,6.73,6.732
	S1740.312,777.983,1736.592,777.983z M1736.592,725.983c-3.721,0-6.729-3.018-6.729-6.732c0-3.719,3.014-6.732,6.729-6.732
	s6.73,3.018,6.73,6.732S1740.312,725.983,1736.592,725.983z M1736.592,673.983c-3.721,0-6.729-3.018-6.729-6.732
	c0-3.719,3.014-6.732,6.729-6.732s6.73,3.018,6.73,6.732S1740.312,673.983,1736.592,673.983z M1736.592,621.983
	c-3.721,0-6.729-3.018-6.729-6.732c0-3.719,3.014-6.732,6.729-6.732s6.73,3.018,6.73,6.732S1740.312,621.983,1736.592,621.983z
	 M1736.592,569.983c-3.721,0-6.729-3.018-6.729-6.732c0-3.719,3.014-6.732,6.729-6.732s6.73,3.018,6.73,6.732
	S1740.312,569.983,1736.592,569.983z M1793.162,725.983c-3.719,0-6.731-3.018-6.731-6.732c0-3.719,3.016-6.732,6.731-6.732
	c3.719,0,6.732,3.018,6.732,6.732C1799.896,722.967,1796.881,725.983,1793.162,725.983z M1793.162,673.983
	c-3.719,0-6.731-3.018-6.731-6.732c0-3.719,3.016-6.732,6.731-6.732c3.719,0,6.732,3.018,6.732,6.732
	C1799.896,670.967,1796.881,673.983,1793.162,673.983z M1793.162,621.983c-3.719,0-6.731-3.018-6.731-6.732
	c0-3.719,3.016-6.732,6.731-6.732c3.719,0,6.732,3.018,6.732,6.732C1799.896,618.967,1796.881,621.983,1793.162,621.983z
	 M1849.733,725.983c-3.721,0-6.732-3.018-6.732-6.732c0-3.719,3.015-6.732,6.732-6.732c3.717,0,6.729,3.018,6.729,6.732
	S1853.451,725.983,1849.733,725.983z"/>
</svg>
