<?xml version="1.0" encoding="utf-8"?>
<!-- Generator: Adobe Illustrator 16.0.0, SVG Export Plug-In . SVG Version: 6.00 Build 0)  -->
<!DOCTYPE svg PUBLIC "-//W3C//DTD SVG 1.1//EN" "http://www.w3.org/Graphics/SVG/1.1/DTD/svg11.dtd">
<svg version="1.1" id="Layer_1" xmlns="http://www.w3.org/2000/svg" xmlns:xlink="http://www.w3.org/1999/xlink" x="0px" y="0px"
	 width="2595.967px" height="1218.557px" viewBox="0 0 2595.967 1218.557" enable-background="new 0 0 2595.967 1218.557"
	 xml:space="preserve">
<path d="M2572.241,884.592c17.576-6.141,35.938,2.195,12.979,14.666c-22.959,12.477-129.437,61.188-211.396,131.093
	c-81.967,69.909-176.846,169.558-185.158,178.479c-8.312,8.926-14.012,11.354-25.229,8.725
	c-11.217-2.627-285.938-61.311-293.896-62.629c-7.967-1.314-12.688-1.33-23.227-15.016c-10.541-13.688-45.625-57.955-85.631-106.23
	c-54.008-65.178-192.637-180.475-192.637-180.475l290.905-124.568c0,0,83.543,95.007,136.002,126.518
	c52.459,31.506,152.111,48.973,265.148,47.271C2373.143,900.731,2572.241,884.592,2572.241,884.592z M1832.352,712.03
	c-15.633-18.506-450.939-545.996-485.597-600.411c-34.653-54.415-64.33-90.278-97.627-98.338
	c-33.298-8.058-49.745-16.048-103.579-12.353C1091.716,4.624,884.467,24.265,808.32,28.78
	c-76.149,4.514-477.003,36.249-533.85,42.118c-56.847,5.867-101.288,17.298-145.424,32.323
	c-44.137,15.028-123.549,61.6-123.549,61.6c-7.616,3.202-7.147,11.263,0.352,14.252c7.501,2.99,88.86,37.473,113.396,50.322
	c24.531,12.85,76.853,56.818,98.862,85.229c22.015,28.411,61.409,80.934,74.66,114.135c13.25,33.201,25.472,61.8,25.776,65.397
	c0.304,3.597,5.937,7.172,14.3,10.303c8.362,3.131,304.388,98.138,311.021,100.987c6.64,2.851,13.974,1.378,35.233-9.372
	c21.263-10.749,101.146-49.261,133.81-53.729c32.665-4.465,123.396-0.4,204.286,26.02c80.896,26.421,186.314,65.688,250.971,99.234
	c64.656,33.553,141.604,78.854,193.009,112.023c51.403,33.176,87.393,62.965,91.293,66.26c3.899,3.293,8.086,4.857,18.297,2.076
	c10.209-2.779,256.66-111.002,261.543-113.76C1837.188,731.446,1847.984,730.534,1832.352,712.03z M90.262,153.981
	c-3.719,0-6.732-3.014-6.732-6.732s3.017-6.732,6.732-6.732s6.732,3.014,6.732,6.732S93.981,153.981,90.262,153.981z
	 M146.833,205.981c-3.722,0-6.732-3.014-6.732-6.732s3.014-6.732,6.732-6.732c3.718,0,6.729,3.014,6.729,6.732
	S150.551,205.981,146.833,205.981z M146.833,153.981c-3.722,0-6.732-3.014-6.732-6.732s3.014-6.732,6.732-6.732
	c3.718,0,6.729,3.014,6.729,6.732S150.551,153.981,146.833,153.981z M203.403,257.981c-3.719,0-6.729-3.014-6.729-6.732
	s3.014-6.732,6.729-6.732c3.721,0,6.732,3.014,6.732,6.732S207.122,257.981,203.403,257.981z M203.403,205.981
	c-3.719,0-6.729-3.014-6.729-6.732s3.014-6.732,6.729-6.732c3.721,0,6.732,3.014,6.732,6.732S207.122,205.981,203.403,205.981z
	 M203.403,153.981c-3.719,0-6.729-3.014-6.729-6.732s3.014-6.732,6.729-6.732c3.721,0,6.732,3.014,6.732,6.732
	S207.122,153.981,203.403,153.981z M259.973,309.981c-3.719,0-6.731-3.014-6.731-6.732s3.016-6.732,6.731-6.732
	s6.732,3.014,6.732,6.732S263.692,309.981,259.973,309.981z M259.973,257.981c-3.719,0-6.731-3.014-6.731-6.732
	s3.016-6.732,6.731-6.732s6.732,3.014,6.732,6.732S263.692,257.981,259.973,257.981z M259.973,205.981
	c-3.719,0-6.731-3.014-6.731-6.732s3.016-6.732,6.731-6.732s6.732,3.014,6.732,6.732S263.692,205.981,259.973,205.981z
	 M259.973,153.981c-3.719,0-6.731-3.014-6.731-6.732s3.016-6.732,6.731-6.732s6.732,3.014,6.732,6.732
	S263.692,153.981,259.973,153.981z M259.973,101.981c-3.719,0-6.731-3.014-6.731-6.732s3.016-6.732,6.731-6.732
	s6.732,3.014,6.732,6.732S263.692,101.981,259.973,101.981z M316.54,413.982c-3.719,0-6.729-3.016-6.729-6.732
	s3.016-6.732,6.729-6.732c3.719,0,6.732,3.016,6.732,6.732S320.262,413.982,316.54,413.982z M316.54,361.981
	c-3.719,0-6.729-3.014-6.729-6.732s3.016-6.732,6.729-6.732c3.719,0,6.732,3.014,6.732,6.732S320.262,361.981,316.54,361.981z
	 M316.54,309.981c-3.719,0-6.729-3.014-6.729-6.732s3.016-6.732,6.729-6.732c3.719,0,6.732,3.014,6.732,6.732
	S320.262,309.981,316.54,309.981z M316.54,257.981c-3.719,0-6.729-3.014-6.729-6.732s3.016-6.732,6.729-6.732
	c3.719,0,6.732,3.014,6.732,6.732S320.262,257.981,316.54,257.981z M316.54,205.981c-3.719,0-6.729-3.014-6.729-6.732
	s3.016-6.732,6.729-6.732c3.719,0,6.732,3.014,6.732,6.732S320.262,205.981,316.54,205.981z M316.54,153.981
	c-3.719,0-6.729-3.014-6.729-6.732s3.016-6.732,6.729-6.732c3.719,0,6.732,3.014,6.732,6.732S320.262,153.981,316.54,153.981z
	 M316.54,101.981c-3.719,0-6.729-3.014-6.729-6.732s3.016-6.732,6.729-6.732c3.719,0,6.732,3.014,6.732,6.732
	S320.262,101.981,316.54,101.981z M373.114,465.983c-3.721,0-6.729-3.019-6.729-6.732s3.016-6.732,6.729-6.732
	s6.73,3.019,6.73,6.732S376.83,465.983,373.114,465.983z M373.114,413.982c-3.721,0-6.729-3.016-6.729-6.732
	s3.016-6.732,6.729-6.732s6.73,3.016,6.73,6.732S376.83,413.982,373.114,413.982z M373.114,361.981
	c-3.721,0-6.729-3.014-6.729-6.732s3.016-6.732,6.729-6.732s6.73,3.014,6.73,6.732S376.83,361.981,373.114,361.981z
	 M373.114,309.981c-3.721,0-6.729-3.014-6.729-6.732s3.016-6.732,6.729-6.732s6.73,3.014,6.73,6.732S376.83,309.981,373.114,309.981
	z M373.114,257.981c-3.721,0-6.729-3.014-6.729-6.732s3.016-6.732,6.729-6.732s6.73,3.014,6.73,6.732
	S376.83,257.981,373.114,257.981z M373.114,205.981c-3.721,0-6.729-3.014-6.729-6.732s3.016-6.732,6.729-6.732
	s6.73,3.014,6.73,6.732S376.83,205.981,373.114,205.981z M373.114,153.981c-3.721,0-6.729-3.014-6.729-6.732
	s3.016-6.732,6.729-6.732s6.73,3.014,6.73,6.732S376.83,153.981,373.114,153.981z M373.114,101.981
	c-3.721,0-6.729-3.014-6.729-6.732s3.016-6.732,6.729-6.732s6.73,3.014,6.73,6.732S376.83,101.981,373.114,101.981z
	 M429.684,517.983c-3.719,0-6.73-3.019-6.73-6.732s3.017-6.732,6.73-6.732c3.72,0,6.729,3.019,6.729,6.732
	S433.403,517.983,429.684,517.983z M429.684,465.983c-3.719,0-6.73-3.019-6.73-6.732s3.017-6.732,6.73-6.732
	c3.72,0,6.729,3.019,6.729,6.732S433.403,465.983,429.684,465.983z M429.684,413.982c-3.719,0-6.73-3.016-6.73-6.732
	s3.017-6.732,6.73-6.732c3.72,0,6.729,3.016,6.729,6.732S433.403,413.982,429.684,413.982z M429.684,361.981
	c-3.719,0-6.73-3.014-6.73-6.732s3.017-6.732,6.73-6.732c3.72,0,6.729,3.014,6.729,6.732S433.403,361.981,429.684,361.981z
	 M429.684,309.981c-3.719,0-6.73-3.014-6.73-6.732s3.017-6.732,6.73-6.732c3.72,0,6.729,3.014,6.729,6.732
	S433.403,309.981,429.684,309.981z M429.684,257.981c-3.719,0-6.73-3.014-6.73-6.732s3.017-6.732,6.73-6.732
	c3.72,0,6.729,3.014,6.729,6.732S433.403,257.981,429.684,257.981z M429.684,205.981c-3.719,0-6.73-3.014-6.73-6.732
	s3.017-6.732,6.73-6.732c3.72,0,6.729,3.014,6.729,6.732S433.403,205.981,429.684,205.981z M429.684,153.981
	c-3.719,0-6.73-3.014-6.73-6.732s3.017-6.732,6.73-6.732c3.72,0,6.729,3.014,6.729,6.732S433.403,153.981,429.684,153.981z
	 M429.684,101.981c-3.719,0-6.73-3.014-6.73-6.732s3.017-6.732,6.73-6.732c3.72,0,6.729,3.014,6.729,6.732
	S433.403,101.981,429.684,101.981z M486.254,517.983c-3.722,0-6.73-3.019-6.73-6.732s3.014-6.732,6.73-6.732
	c3.716,0,6.729,3.019,6.729,6.732S489.973,517.983,486.254,517.983z M486.254,465.983c-3.722,0-6.73-3.019-6.73-6.732
	s3.014-6.732,6.73-6.732c3.716,0,6.729,3.019,6.729,6.732S489.973,465.983,486.254,465.983z M486.254,413.982
	c-3.722,0-6.73-3.016-6.73-6.732s3.014-6.732,6.73-6.732c3.716,0,6.729,3.016,6.729,6.732S489.973,413.982,486.254,413.982z
	 M486.254,361.981c-3.722,0-6.73-3.014-6.73-6.732s3.014-6.732,6.73-6.732c3.716,0,6.729,3.014,6.729,6.732
	S489.973,361.981,486.254,361.981z M486.254,309.981c-3.722,0-6.73-3.014-6.73-6.732s3.014-6.732,6.73-6.732
	c3.716,0,6.729,3.014,6.729,6.732S489.973,309.981,486.254,309.981z M486.254,257.981c-3.722,0-6.73-3.014-6.73-6.732
	s3.014-6.732,6.73-6.732c3.716,0,6.729,3.014,6.729,6.732S489.973,257.981,486.254,257.981z M486.254,205.981
	c-3.722,0-6.73-3.014-6.73-6.732s3.014-6.732,6.73-6.732c3.716,0,6.729,3.014,6.729,6.732S489.973,205.981,486.254,205.981z
	 M486.254,153.981c-3.722,0-6.73-3.014-6.73-6.732s3.014-6.732,6.73-6.732c3.716,0,6.729,3.014,6.729,6.732
	S489.973,153.981,486.254,153.981z M486.254,101.981c-3.722,0-6.73-3.014-6.73-6.732s3.014-6.732,6.73-6.732
	c3.716,0,6.729,3.014,6.729,6.732S489.973,101.981,486.254,101.981z M542.823,517.983c-3.719,0-6.729-3.019-6.729-6.732
	s3.016-6.732,6.729-6.732s6.73,3.019,6.73,6.732S546.541,517.983,542.823,517.983z M542.823,465.983
	c-3.719,0-6.729-3.019-6.729-6.732s3.016-6.732,6.729-6.732s6.73,3.019,6.73,6.732S546.541,465.983,542.823,465.983z
	 M542.823,413.982c-3.719,0-6.729-3.016-6.729-6.732s3.016-6.732,6.729-6.732s6.73,3.016,6.73,6.732
	S546.541,413.982,542.823,413.982z M542.823,361.981c-3.719,0-6.729-3.014-6.729-6.732s3.016-6.732,6.729-6.732
	s6.73,3.014,6.73,6.732S546.541,361.981,542.823,361.981z M542.823,309.981c-3.719,0-6.729-3.014-6.729-6.732
	s3.016-6.732,6.729-6.732s6.73,3.014,6.73,6.732S546.541,309.981,542.823,309.981z M542.823,257.981
	c-3.719,0-6.729-3.014-6.729-6.732s3.016-6.732,6.729-6.732s6.73,3.014,6.73,6.732S546.541,257.981,542.823,257.981z
	 M542.823,205.981c-3.719,0-6.729-3.014-6.729-6.732s3.016-6.732,6.729-6.732s6.73,3.014,6.73,6.732
	S546.541,205.981,542.823,205.981z M542.823,153.981c-3.719,0-6.729-3.014-6.729-6.732s3.016-6.732,6.729-6.732
	s6.73,3.014,6.73,6.732S546.541,153.981,542.823,153.981z M542.823,101.981c-3.719,0-6.729-3.014-6.729-6.732
	s3.016-6.732,6.729-6.732s6.73,3.014,6.73,6.732S546.541,101.981,542.823,101.981z M599.395,569.983c-3.719,0-6.73-3.019-6.73-6.732
	s3.017-6.732,6.73-6.732c3.72,0,6.731,3.019,6.731,6.732S603.114,569.983,599.395,569.983z M599.395,517.983
	c-3.719,0-6.73-3.019-6.73-6.732s3.017-6.732,6.73-6.732c3.72,0,6.731,3.019,6.731,6.732S603.114,517.983,599.395,517.983z
	 M599.395,465.983c-3.719,0-6.73-3.019-6.73-6.732s3.017-6.732,6.73-6.732c3.72,0,6.731,3.019,6.731,6.732
	S603.114,465.983,599.395,465.983z M599.395,413.982c-3.719,0-6.73-3.016-6.73-6.732s3.017-6.732,6.73-6.732
	c3.72,0,6.731,3.016,6.731,6.732S603.114,413.982,599.395,413.982z M599.395,361.981c-3.719,0-6.73-3.014-6.73-6.732
	s3.017-6.732,6.73-6.732c3.72,0,6.731,3.014,6.731,6.732S603.114,361.981,599.395,361.981z M599.395,309.981
	c-3.719,0-6.73-3.014-6.73-6.732s3.017-6.732,6.73-6.732c3.72,0,6.731,3.014,6.731,6.732S603.114,309.981,599.395,309.981z
	 M599.395,257.981c-3.719,0-6.73-3.014-6.73-6.732s3.017-6.732,6.73-6.732c3.72,0,6.731,3.014,6.731,6.732
	S603.114,257.981,599.395,257.981z M599.395,205.981c-3.719,0-6.73-3.014-6.73-6.732s3.017-6.732,6.73-6.732
	c3.72,0,6.731,3.014,6.731,6.732S603.114,205.981,599.395,205.981z M599.395,153.981c-3.719,0-6.73-3.014-6.73-6.732
	s3.017-6.732,6.73-6.732c3.72,0,6.731,3.014,6.731,6.732S603.114,153.981,599.395,153.981z M599.395,101.981
	c-3.719,0-6.73-3.014-6.73-6.732s3.017-6.732,6.73-6.732c3.72,0,6.731,3.014,6.731,6.732S603.114,101.981,599.395,101.981z
	 M655.965,569.983c-3.722,0-6.73-3.019-6.73-6.732s3.014-6.732,6.73-6.732c3.716,0,6.729,3.019,6.729,6.732
	S659.684,569.983,655.965,569.983z M655.965,517.983c-3.722,0-6.73-3.019-6.73-6.732s3.014-6.732,6.73-6.732
	c3.716,0,6.729,3.019,6.729,6.732S659.684,517.983,655.965,517.983z M655.965,465.983c-3.722,0-6.73-3.019-6.73-6.732
	s3.014-6.732,6.73-6.732c3.716,0,6.729,3.019,6.729,6.732S659.684,465.983,655.965,465.983z M655.965,413.982
	c-3.722,0-6.73-3.016-6.73-6.732s3.014-6.732,6.73-6.732c3.716,0,6.729,3.016,6.729,6.732S659.684,413.982,655.965,413.982z
	 M655.965,361.981c-3.722,0-6.73-3.014-6.73-6.732s3.014-6.732,6.73-6.732c3.716,0,6.729,3.014,6.729,6.732
	S659.684,361.981,655.965,361.981z M655.965,309.981c-3.722,0-6.73-3.014-6.73-6.732s3.014-6.732,6.73-6.732
	c3.716,0,6.729,3.014,6.729,6.732S659.684,309.981,655.965,309.981z M655.965,257.981c-3.722,0-6.73-3.014-6.73-6.732
	s3.014-6.732,6.73-6.732c3.716,0,6.729,3.014,6.729,6.732S659.684,257.981,655.965,257.981z M655.965,205.981
	c-3.722,0-6.73-3.014-6.73-6.732s3.014-6.732,6.73-6.732c3.716,0,6.729,3.014,6.729,6.732S659.684,205.981,655.965,205.981z
	 M655.965,153.981c-3.722,0-6.73-3.014-6.73-6.732s3.014-6.732,6.73-6.732c3.716,0,6.729,3.014,6.729,6.732
	S659.684,153.981,655.965,153.981z M655.965,101.981c-3.722,0-6.73-3.014-6.73-6.732s3.014-6.732,6.73-6.732
	c3.716,0,6.729,3.014,6.729,6.732S659.684,101.981,655.965,101.981z M712.533,517.983c-3.719,0-6.729-3.019-6.729-6.732
	s3.016-6.732,6.729-6.732s6.73,3.019,6.73,6.732S716.254,517.983,712.533,517.983z M712.533,465.983
	c-3.719,0-6.729-3.019-6.729-6.732s3.016-6.732,6.729-6.732s6.73,3.019,6.73,6.732S716.254,465.983,712.533,465.983z
	 M712.533,413.982c-3.719,0-6.729-3.016-6.729-6.732s3.016-6.732,6.729-6.732s6.73,3.016,6.73,6.732
	S716.254,413.982,712.533,413.982z M712.533,361.981c-3.719,0-6.729-3.014-6.729-6.732s3.016-6.732,6.729-6.732
	s6.73,3.014,6.73,6.732S716.254,361.981,712.533,361.981z M712.533,309.981c-3.719,0-6.729-3.014-6.729-6.732
	s3.016-6.732,6.729-6.732s6.73,3.014,6.73,6.732S716.254,309.981,712.533,309.981z M712.533,257.981
	c-3.719,0-6.729-3.014-6.729-6.732s3.016-6.732,6.729-6.732s6.73,3.014,6.73,6.732S716.254,257.981,712.533,257.981z
	 M712.533,205.981c-3.719,0-6.729-3.014-6.729-6.732s3.016-6.732,6.729-6.732s6.73,3.014,6.73,6.732
	S716.254,205.981,712.533,205.981z M712.533,153.981c-3.719,0-6.729-3.014-6.729-6.732s3.016-6.732,6.729-6.732
	s6.73,3.014,6.73,6.732S716.254,153.981,712.533,153.981z M712.533,101.981c-3.719,0-6.729-3.014-6.729-6.732
	s3.016-6.732,6.729-6.732s6.73,3.014,6.73,6.732S716.254,101.981,712.533,101.981z M769.106,517.983
	c-3.721,0-6.732-3.019-6.732-6.732s3.017-6.732,6.732-6.732s6.729,3.019,6.729,6.732S772.823,517.983,769.106,517.983z
	 M769.106,465.983c-3.721,0-6.732-3.019-6.732-6.732s3.017-6.732,6.732-6.732s6.729,3.019,6.729,6.732
	S772.823,465.983,769.106,465.983z M769.106,413.982c-3.721,0-6.732-3.016-6.732-6.732s3.017-6.732,6.732-6.732
	s6.729,3.016,6.729,6.732S772.823,413.982,769.106,413.982z M769.106,361.981c-3.721,0-6.732-3.014-6.732-6.732
	s3.017-6.732,6.732-6.732s6.729,3.014,6.729,6.732S772.823,361.981,769.106,361.981z M769.106,309.981
	c-3.721,0-6.732-3.014-6.732-6.732s3.017-6.732,6.732-6.732s6.729,3.014,6.729,6.732S772.823,309.981,769.106,309.981z
	 M769.106,257.981c-3.721,0-6.732-3.014-6.732-6.732s3.017-6.732,6.732-6.732s6.729,3.014,6.729,6.732
	S772.823,257.981,769.106,257.981z M769.106,205.981c-3.721,0-6.732-3.014-6.732-6.732s3.017-6.732,6.732-6.732
	s6.729,3.014,6.729,6.732S772.823,205.981,769.106,205.981z M769.106,153.981c-3.721,0-6.732-3.014-6.732-6.732
	s3.017-6.732,6.732-6.732s6.729,3.014,6.729,6.732S772.823,153.981,769.106,153.981z M769.106,101.981
	c-3.721,0-6.732-3.014-6.732-6.732s3.017-6.732,6.732-6.732s6.729,3.014,6.729,6.732S772.823,101.981,769.106,101.981z
	 M825.676,517.983c-3.722,0-6.73-3.019-6.73-6.732s3.017-6.732,6.73-6.732c3.719,0,6.729,3.019,6.729,6.732
	S829.395,517.983,825.676,517.983z M825.676,465.983c-3.722,0-6.73-3.019-6.73-6.732s3.017-6.732,6.73-6.732
	c3.719,0,6.729,3.019,6.729,6.732S829.395,465.983,825.676,465.983z M825.676,413.982c-3.722,0-6.73-3.016-6.73-6.732
	s3.017-6.732,6.73-6.732c3.719,0,6.729,3.016,6.729,6.732S829.395,413.982,825.676,413.982z M825.676,361.981
	c-3.722,0-6.73-3.014-6.73-6.732s3.017-6.732,6.73-6.732c3.719,0,6.729,3.014,6.729,6.732S829.395,361.981,825.676,361.981z
	 M825.676,309.981c-3.722,0-6.73-3.014-6.73-6.732s3.017-6.732,6.73-6.732c3.719,0,6.729,3.014,6.729,6.732
	S829.395,309.981,825.676,309.981z M825.676,257.981c-3.722,0-6.73-3.014-6.73-6.732s3.017-6.732,6.73-6.732
	c3.719,0,6.729,3.014,6.729,6.732S829.395,257.981,825.676,257.981z M825.676,205.981c-3.722,0-6.73-3.014-6.73-6.732
	s3.017-6.732,6.73-6.732c3.719,0,6.729,3.014,6.729,6.732S829.395,205.981,825.676,205.981z M825.676,153.981
	c-3.722,0-6.73-3.014-6.73-6.732s3.017-6.732,6.73-6.732c3.719,0,6.729,3.014,6.729,6.732S829.395,153.981,825.676,153.981z
	 M825.676,101.981c-3.722,0-6.73-3.014-6.73-6.732s3.017-6.732,6.73-6.732c3.719,0,6.729,3.014,6.729,6.732
	S829.395,101.981,825.676,101.981z M882.244,517.983c-3.719,0-6.729-3.019-6.729-6.732s3.016-6.732,6.729-6.732
	c3.719,0,6.731,3.019,6.731,6.732S885.965,517.983,882.244,517.983z M882.244,465.983c-3.719,0-6.729-3.019-6.729-6.732
	s3.016-6.732,6.729-6.732c3.719,0,6.731,3.019,6.731,6.732S885.965,465.983,882.244,465.983z M882.244,413.982
	c-3.719,0-6.729-3.016-6.729-6.732s3.016-6.732,6.729-6.732c3.719,0,6.731,3.016,6.731,6.732S885.965,413.982,882.244,413.982z
	 M882.244,361.981c-3.719,0-6.729-3.014-6.729-6.732s3.016-6.732,6.729-6.732c3.719,0,6.731,3.014,6.731,6.732
	S885.965,361.981,882.244,361.981z M882.244,309.981c-3.719,0-6.729-3.014-6.729-6.732s3.016-6.732,6.729-6.732
	c3.719,0,6.731,3.014,6.731,6.732S885.965,309.981,882.244,309.981z M882.244,257.981c-3.719,0-6.729-3.014-6.729-6.732
	s3.016-6.732,6.729-6.732c3.719,0,6.731,3.014,6.731,6.732S885.965,257.981,882.244,257.981z M882.244,205.981
	c-3.719,0-6.729-3.014-6.729-6.732s3.016-6.732,6.729-6.732c3.719,0,6.731,3.014,6.731,6.732S885.965,205.981,882.244,205.981z
	 M882.244,153.981c-3.719,0-6.729-3.014-6.729-6.732s3.016-6.732,6.729-6.732c3.719,0,6.731,3.014,6.731,6.732
	S885.965,153.981,882.244,153.981z M882.244,101.981c-3.719,0-6.729-3.014-6.729-6.732s3.016-6.732,6.729-6.732
	c3.719,0,6.731,3.014,6.731,6.732S885.965,101.981,882.244,101.981z M882.244,49.981c-3.719,0-6.729-3.014-6.729-6.732
	s3.016-6.732,6.729-6.732c3.719,0,6.731,3.014,6.731,6.732S885.965,49.981,882.244,49.981z M938.816,517.983
	c-3.721,0-6.731-3.019-6.731-6.732s3.016-6.732,6.731-6.732s6.73,3.019,6.73,6.732S942.532,517.983,938.816,517.983z
	 M938.816,465.983c-3.721,0-6.731-3.019-6.731-6.732s3.016-6.732,6.731-6.732s6.73,3.019,6.73,6.732
	S942.532,465.983,938.816,465.983z M938.816,413.982c-3.721,0-6.731-3.016-6.731-6.732s3.016-6.732,6.731-6.732
	s6.73,3.016,6.73,6.732S942.532,413.982,938.816,413.982z M938.816,361.981c-3.721,0-6.731-3.014-6.731-6.732
	s3.016-6.732,6.731-6.732s6.73,3.014,6.73,6.732S942.532,361.981,938.816,361.981z M938.816,309.981
	c-3.721,0-6.731-3.014-6.731-6.732s3.016-6.732,6.731-6.732s6.73,3.014,6.73,6.732S942.532,309.981,938.816,309.981z
	 M938.816,257.981c-3.721,0-6.731-3.014-6.731-6.732s3.016-6.732,6.731-6.732s6.73,3.014,6.73,6.732
	S942.532,257.981,938.816,257.981z M938.816,205.981c-3.721,0-6.731-3.014-6.731-6.732s3.016-6.732,6.731-6.732
	s6.73,3.014,6.73,6.732S942.532,205.981,938.816,205.981z M938.816,153.981c-3.721,0-6.731-3.014-6.731-6.732
	s3.016-6.732,6.731-6.732s6.73,3.014,6.73,6.732S942.532,153.981,938.816,153.981z M938.816,101.981
	c-3.721,0-6.731-3.014-6.731-6.732s3.016-6.732,6.731-6.732s6.73,3.014,6.73,6.732S942.532,101.981,938.816,101.981z
	 M938.816,49.981c-3.721,0-6.731-3.014-6.731-6.732s3.016-6.732,6.731-6.732s6.73,3.014,6.73,6.732S942.532,49.981,938.816,49.981z
	 M995.387,517.983c-3.72,0-6.73-3.019-6.73-6.732s3.017-6.732,6.73-6.732c3.72,0,6.729,3.019,6.729,6.732
	S999.105,517.983,995.387,517.983z M995.387,465.983c-3.72,0-6.73-3.019-6.73-6.732s3.017-6.732,6.73-6.732
	c3.72,0,6.729,3.019,6.729,6.732S999.105,465.983,995.387,465.983z M995.387,413.982c-3.72,0-6.73-3.016-6.73-6.732
	s3.017-6.732,6.73-6.732c3.72,0,6.729,3.016,6.729,6.732S999.105,413.982,995.387,413.982z M995.387,361.981
	c-3.72,0-6.73-3.014-6.73-6.732s3.017-6.732,6.73-6.732c3.72,0,6.729,3.014,6.729,6.732S999.105,361.981,995.387,361.981z
	 M995.387,309.981c-3.72,0-6.73-3.014-6.73-6.732s3.017-6.732,6.73-6.732c3.72,0,6.729,3.014,6.729,6.732
	S999.105,309.981,995.387,309.981z M995.387,257.981c-3.72,0-6.73-3.014-6.73-6.732s3.017-6.732,6.73-6.732
	c3.72,0,6.729,3.014,6.729,6.732S999.105,257.981,995.387,257.981z M995.387,205.981c-3.72,0-6.73-3.014-6.73-6.732
	s3.017-6.732,6.73-6.732c3.72,0,6.729,3.014,6.729,6.732S999.105,205.981,995.387,205.981z M995.387,153.981
	c-3.72,0-6.73-3.014-6.73-6.732s3.017-6.732,6.73-6.732c3.72,0,6.729,3.014,6.729,6.732S999.105,153.981,995.387,153.981z
	 M995.387,101.981c-3.72,0-6.73-3.014-6.73-6.732s3.017-6.732,6.73-6.732c3.72,0,6.729,3.014,6.729,6.732
	S999.105,101.981,995.387,101.981z M995.387,49.981c-3.72,0-6.73-3.014-6.73-6.732s3.017-6.732,6.73-6.732
	c3.72,0,6.729,3.014,6.729,6.732S999.105,49.981,995.387,49.981z M1051.954,517.983c-3.719,0-6.729-3.019-6.729-6.732
	s3.016-6.732,6.729-6.732c3.719,0,6.732,3.019,6.732,6.732S1055.676,517.983,1051.954,517.983z M1051.954,465.983
	c-3.719,0-6.729-3.019-6.729-6.732s3.016-6.732,6.729-6.732c3.719,0,6.732,3.019,6.732,6.732S1055.676,465.983,1051.954,465.983z
	 M1051.954,413.982c-3.719,0-6.729-3.016-6.729-6.732s3.016-6.732,6.729-6.732c3.719,0,6.732,3.016,6.732,6.732
	S1055.676,413.982,1051.954,413.982z M1051.954,361.981c-3.719,0-6.729-3.014-6.729-6.732s3.016-6.732,6.729-6.732
	c3.719,0,6.732,3.014,6.732,6.732S1055.676,361.981,1051.954,361.981z M1051.954,309.981c-3.719,0-6.729-3.014-6.729-6.732
	s3.016-6.732,6.729-6.732c3.719,0,6.732,3.014,6.732,6.732S1055.676,309.981,1051.954,309.981z M1051.954,257.981
	c-3.719,0-6.729-3.014-6.729-6.732s3.016-6.732,6.729-6.732c3.719,0,6.732,3.014,6.732,6.732S1055.676,257.981,1051.954,257.981z
	 M1051.954,205.981c-3.719,0-6.729-3.014-6.729-6.732s3.016-6.732,6.729-6.732c3.719,0,6.732,3.014,6.732,6.732
	S1055.676,205.981,1051.954,205.981z M1051.954,153.981c-3.719,0-6.729-3.014-6.729-6.732s3.016-6.732,6.729-6.732
	c3.719,0,6.732,3.014,6.732,6.732S1055.676,153.981,1051.954,153.981z M1051.954,101.981c-3.719,0-6.729-3.014-6.729-6.732
	s3.016-6.732,6.729-6.732c3.719,0,6.732,3.014,6.732,6.732S1055.676,101.981,1051.954,101.981z M1051.954,49.981
	c-3.719,0-6.729-3.014-6.729-6.732s3.016-6.732,6.729-6.732c3.719,0,6.732,3.014,6.732,6.732S1055.676,49.981,1051.954,49.981z
	 M1108.527,569.983c-3.721,0-6.731-3.019-6.731-6.732s3.016-6.732,6.731-6.732s6.73,3.019,6.73,6.732
	S1112.243,569.983,1108.527,569.983z M1108.527,517.983c-3.721,0-6.731-3.019-6.731-6.732s3.016-6.732,6.731-6.732
	s6.73,3.019,6.73,6.732S1112.243,517.983,1108.527,517.983z M1108.527,465.983c-3.721,0-6.731-3.019-6.731-6.732
	s3.016-6.732,6.731-6.732s6.73,3.019,6.73,6.732S1112.243,465.983,1108.527,465.983z M1108.527,413.982
	c-3.721,0-6.731-3.016-6.731-6.732s3.016-6.732,6.731-6.732s6.73,3.016,6.73,6.732S1112.243,413.982,1108.527,413.982z
	 M1108.527,361.981c-3.721,0-6.731-3.014-6.731-6.732s3.016-6.732,6.731-6.732s6.73,3.014,6.73,6.732
	S1112.243,361.981,1108.527,361.981z M1108.527,309.981c-3.721,0-6.731-3.014-6.731-6.732s3.016-6.732,6.731-6.732
	s6.73,3.014,6.73,6.732S1112.243,309.981,1108.527,309.981z M1108.527,257.981c-3.721,0-6.731-3.014-6.731-6.732
	s3.016-6.732,6.731-6.732s6.73,3.014,6.73,6.732S1112.243,257.981,1108.527,257.981z M1108.527,205.981
	c-3.721,0-6.731-3.014-6.731-6.732s3.016-6.732,6.731-6.732s6.73,3.014,6.73,6.732S1112.243,205.981,1108.527,205.981z
	 M1108.527,153.981c-3.721,0-6.731-3.014-6.731-6.732s3.016-6.732,6.731-6.732s6.73,3.014,6.73,6.732
	S1112.243,153.981,1108.527,153.981z M1108.527,101.981c-3.721,0-6.731-3.014-6.731-6.732s3.016-6.732,6.731-6.732
	s6.73,3.014,6.73,6.732S1112.243,101.981,1108.527,101.981z M1108.527,49.981c-3.721,0-6.731-3.014-6.731-6.732
	s3.016-6.732,6.731-6.732s6.73,3.014,6.73,6.732S1112.243,49.981,1108.527,49.981z M1165.098,569.983
	c-3.719,0-6.73-3.019-6.73-6.732s3.017-6.732,6.73-6.732c3.72,0,6.729,3.019,6.729,6.732S1168.816,569.983,1165.098,569.983z
	 M1165.098,517.983c-3.719,0-6.73-3.019-6.73-6.732s3.017-6.732,6.73-6.732c3.72,0,6.729,3.019,6.729,6.732
	S1168.816,517.983,1165.098,517.983z M1165.098,465.983c-3.719,0-6.73-3.019-6.73-6.732s3.017-6.732,6.73-6.732
	c3.72,0,6.729,3.019,6.729,6.732S1168.816,465.983,1165.098,465.983z M1165.098,413.982c-3.719,0-6.73-3.016-6.73-6.732
	s3.017-6.732,6.73-6.732c3.72,0,6.729,3.016,6.729,6.732S1168.816,413.982,1165.098,413.982z M1165.098,361.981
	c-3.719,0-6.73-3.014-6.73-6.732s3.017-6.732,6.73-6.732c3.72,0,6.729,3.014,6.729,6.732S1168.816,361.981,1165.098,361.981z
	 M1165.098,309.981c-3.719,0-6.73-3.014-6.73-6.732s3.017-6.732,6.73-6.732c3.72,0,6.729,3.014,6.729,6.732
	S1168.816,309.981,1165.098,309.981z M1165.098,257.981c-3.719,0-6.73-3.014-6.73-6.732s3.017-6.732,6.73-6.732
	c3.72,0,6.729,3.014,6.729,6.732S1168.816,257.981,1165.098,257.981z M1165.098,205.981c-3.719,0-6.73-3.014-6.73-6.732
	s3.017-6.732,6.73-6.732c3.72,0,6.729,3.014,6.729,6.732S1168.816,205.981,1165.098,205.981z M1165.098,153.981
	c-3.719,0-6.73-3.014-6.73-6.732s3.017-6.732,6.73-6.732c3.72,0,6.729,3.014,6.729,6.732S1168.816,153.981,1165.098,153.981z
	 M1165.098,101.981c-3.719,0-6.73-3.014-6.73-6.732s3.017-6.732,6.73-6.732c3.72,0,6.729,3.014,6.729,6.732
	S1168.816,101.981,1165.098,101.981z M1165.098,49.981c-3.719,0-6.73-3.014-6.73-6.732s3.017-6.732,6.73-6.732
	c3.72,0,6.729,3.014,6.729,6.732S1168.816,49.981,1165.098,49.981z M1221.666,621.983c-3.72,0-6.73-3.02-6.73-6.732
	c0-3.717,3.016-6.732,6.73-6.732c3.718,0,6.731,3.016,6.731,6.732C1228.4,618.965,1225.387,621.983,1221.666,621.983z
	 M1221.666,569.983c-3.72,0-6.73-3.019-6.73-6.732s3.016-6.732,6.73-6.732c3.718,0,6.731,3.019,6.731,6.732
	S1225.387,569.983,1221.666,569.983z M1221.666,517.983c-3.72,0-6.73-3.019-6.73-6.732s3.016-6.732,6.73-6.732
	c3.718,0,6.731,3.019,6.731,6.732S1225.387,517.983,1221.666,517.983z M1221.666,465.983c-3.72,0-6.73-3.019-6.73-6.732
	s3.016-6.732,6.73-6.732c3.718,0,6.731,3.019,6.731,6.732S1225.387,465.983,1221.666,465.983z M1221.666,413.982
	c-3.72,0-6.73-3.016-6.73-6.732s3.016-6.732,6.73-6.732c3.718,0,6.731,3.016,6.731,6.732S1225.387,413.982,1221.666,413.982z
	 M1221.666,361.981c-3.72,0-6.73-3.014-6.73-6.732s3.016-6.732,6.73-6.732c3.718,0,6.731,3.014,6.731,6.732
	S1225.387,361.981,1221.666,361.981z M1221.666,309.981c-3.72,0-6.73-3.014-6.73-6.732s3.016-6.732,6.73-6.732
	c3.718,0,6.731,3.014,6.731,6.732S1225.387,309.981,1221.666,309.981z M1221.666,257.981c-3.72,0-6.73-3.014-6.73-6.732
	s3.016-6.732,6.73-6.732c3.718,0,6.731,3.014,6.731,6.732S1225.387,257.981,1221.666,257.981z M1221.666,205.981
	c-3.72,0-6.73-3.014-6.73-6.732s3.016-6.732,6.73-6.732c3.718,0,6.731,3.014,6.731,6.732S1225.387,205.981,1221.666,205.981z
	 M1221.666,153.981c-3.72,0-6.73-3.014-6.73-6.732s3.016-6.732,6.73-6.732c3.718,0,6.731,3.014,6.731,6.732
	S1225.387,153.981,1221.666,153.981z M1221.666,101.981c-3.72,0-6.73-3.014-6.73-6.732s3.016-6.732,6.73-6.732
	c3.718,0,6.731,3.014,6.731,6.732S1225.387,101.981,1221.666,101.981z M1221.666,49.981c-3.72,0-6.73-3.014-6.73-6.732
	s3.016-6.732,6.73-6.732c3.718,0,6.731,3.014,6.731,6.732S1225.387,49.981,1221.666,49.981z M1278.238,621.983
	c-3.719,0-6.729-3.02-6.729-6.732c0-3.717,3.014-6.732,6.729-6.732c3.72,0,6.73,3.016,6.73,6.732
	C1284.968,618.965,1281.954,621.983,1278.238,621.983z M1278.238,569.983c-3.719,0-6.729-3.019-6.729-6.732s3.014-6.732,6.729-6.732
	c3.72,0,6.73,3.019,6.73,6.732S1281.954,569.983,1278.238,569.983z M1278.238,517.983c-3.719,0-6.729-3.019-6.729-6.732
	s3.014-6.732,6.729-6.732c3.72,0,6.73,3.019,6.73,6.732S1281.954,517.983,1278.238,517.983z M1278.238,465.983
	c-3.719,0-6.729-3.019-6.729-6.732s3.014-6.732,6.729-6.732c3.72,0,6.73,3.019,6.73,6.732S1281.954,465.983,1278.238,465.983z
	 M1278.238,413.982c-3.719,0-6.729-3.016-6.729-6.732s3.014-6.732,6.729-6.732c3.72,0,6.73,3.016,6.73,6.732
	S1281.954,413.982,1278.238,413.982z M1278.238,361.981c-3.719,0-6.729-3.014-6.729-6.732s3.014-6.732,6.729-6.732
	c3.72,0,6.73,3.014,6.73,6.732S1281.954,361.981,1278.238,361.981z M1278.238,309.981c-3.719,0-6.729-3.014-6.729-6.732
	s3.014-6.732,6.729-6.732c3.72,0,6.73,3.014,6.73,6.732S1281.954,309.981,1278.238,309.981z M1278.238,257.981
	c-3.719,0-6.729-3.014-6.729-6.732s3.014-6.732,6.729-6.732c3.72,0,6.73,3.014,6.73,6.732S1281.954,257.981,1278.238,257.981z
	 M1278.238,205.981c-3.719,0-6.729-3.014-6.729-6.732s3.014-6.732,6.729-6.732c3.72,0,6.73,3.014,6.73,6.732
	S1281.954,205.981,1278.238,205.981z M1278.238,153.981c-3.719,0-6.729-3.014-6.729-6.732s3.014-6.732,6.729-6.732
	c3.72,0,6.73,3.014,6.73,6.732S1281.954,153.981,1278.238,153.981z M1278.238,101.981c-3.719,0-6.729-3.014-6.729-6.732
	s3.014-6.732,6.729-6.732c3.72,0,6.73,3.014,6.73,6.732S1281.954,101.981,1278.238,101.981z M1334.809,673.983
	c-3.719,0-6.73-3.02-6.73-6.732c0-3.717,3.017-6.732,6.73-6.732c3.719,0,6.729,3.018,6.729,6.732
	C1341.538,670.965,1338.527,673.983,1334.809,673.983z M1334.809,621.983c-3.719,0-6.73-3.02-6.73-6.732
	c0-3.717,3.017-6.732,6.73-6.732c3.719,0,6.729,3.016,6.729,6.732C1341.538,618.965,1338.527,621.983,1334.809,621.983z
	 M1334.809,569.983c-3.719,0-6.73-3.019-6.73-6.732s3.017-6.732,6.73-6.732c3.719,0,6.729,3.019,6.729,6.732
	S1338.527,569.983,1334.809,569.983z M1334.809,517.983c-3.719,0-6.73-3.019-6.73-6.732s3.017-6.732,6.73-6.732
	c3.719,0,6.729,3.019,6.729,6.732S1338.527,517.983,1334.809,517.983z M1334.809,465.983c-3.719,0-6.73-3.019-6.73-6.732
	s3.017-6.732,6.73-6.732c3.719,0,6.729,3.019,6.729,6.732S1338.527,465.983,1334.809,465.983z M1334.809,413.982
	c-3.719,0-6.73-3.016-6.73-6.732s3.017-6.732,6.73-6.732c3.719,0,6.729,3.016,6.729,6.732S1338.527,413.982,1334.809,413.982z
	 M1334.809,361.981c-3.719,0-6.73-3.014-6.73-6.732s3.017-6.732,6.73-6.732c3.719,0,6.729,3.014,6.729,6.732
	S1338.527,361.981,1334.809,361.981z M1334.809,309.981c-3.719,0-6.73-3.014-6.73-6.732s3.017-6.732,6.73-6.732
	c3.719,0,6.729,3.014,6.729,6.732S1338.527,309.981,1334.809,309.981z M1334.809,257.981c-3.719,0-6.73-3.014-6.73-6.732
	s3.017-6.732,6.73-6.732c3.719,0,6.729,3.014,6.729,6.732S1338.527,257.981,1334.809,257.981z M1334.809,205.981
	c-3.719,0-6.73-3.014-6.73-6.732s3.017-6.732,6.73-6.732c3.719,0,6.729,3.014,6.729,6.732S1338.527,205.981,1334.809,205.981z
	 M1334.809,153.981c-3.719,0-6.73-3.014-6.73-6.732s3.017-6.732,6.73-6.732c3.719,0,6.729,3.014,6.729,6.732
	S1338.527,153.981,1334.809,153.981z M1391.379,673.983c-3.722,0-6.732-3.02-6.732-6.732c0-3.717,3.016-6.732,6.732-6.732
	c3.719,0,6.729,3.018,6.729,6.732C1398.111,670.965,1395.098,673.983,1391.379,673.983z M1391.379,621.983
	c-3.722,0-6.732-3.02-6.732-6.732c0-3.717,3.016-6.732,6.732-6.732c3.719,0,6.729,3.016,6.729,6.732
	C1398.111,618.965,1395.098,621.983,1391.379,621.983z M1391.379,569.983c-3.722,0-6.732-3.019-6.732-6.732s3.016-6.732,6.732-6.732
	c3.719,0,6.729,3.019,6.729,6.732S1395.098,569.983,1391.379,569.983z M1391.379,517.983c-3.722,0-6.732-3.019-6.732-6.732
	s3.016-6.732,6.732-6.732c3.719,0,6.729,3.019,6.729,6.732S1395.098,517.983,1391.379,517.983z M1391.379,465.983
	c-3.722,0-6.732-3.019-6.732-6.732s3.016-6.732,6.732-6.732c3.719,0,6.729,3.019,6.729,6.732S1395.098,465.983,1391.379,465.983z
	 M1391.379,413.982c-3.722,0-6.732-3.016-6.732-6.732s3.016-6.732,6.732-6.732c3.719,0,6.729,3.016,6.729,6.732
	S1395.098,413.982,1391.379,413.982z M1391.379,361.981c-3.722,0-6.732-3.014-6.732-6.732s3.016-6.732,6.732-6.732
	c3.719,0,6.729,3.014,6.729,6.732S1395.098,361.981,1391.379,361.981z M1391.379,309.981c-3.722,0-6.732-3.014-6.732-6.732
	s3.016-6.732,6.732-6.732c3.719,0,6.729,3.014,6.729,6.732S1395.098,309.981,1391.379,309.981z M1391.379,257.981
	c-3.722,0-6.732-3.014-6.732-6.732s3.016-6.732,6.732-6.732c3.719,0,6.729,3.014,6.729,6.732S1395.098,257.981,1391.379,257.981z
	 M1447.948,725.983c-3.719,0-6.729-3.02-6.729-6.732c0-3.717,3.014-6.732,6.729-6.732c3.719,0,6.732,3.018,6.732,6.732
	C1454.681,722.965,1451.666,725.983,1447.948,725.983z M1447.948,673.983c-3.719,0-6.729-3.02-6.729-6.732
	c0-3.717,3.014-6.732,6.729-6.732c3.719,0,6.732,3.018,6.732,6.732C1454.681,670.965,1451.666,673.983,1447.948,673.983z
	 M1447.948,621.983c-3.719,0-6.729-3.02-6.729-6.732c0-3.717,3.014-6.732,6.729-6.732c3.719,0,6.732,3.016,6.732,6.732
	C1454.681,618.965,1451.666,621.983,1447.948,621.983z M1447.948,569.983c-3.719,0-6.729-3.019-6.729-6.732s3.014-6.732,6.729-6.732
	c3.719,0,6.732,3.019,6.732,6.732S1451.666,569.983,1447.948,569.983z M1447.948,517.983c-3.719,0-6.729-3.019-6.729-6.732
	s3.014-6.732,6.729-6.732c3.719,0,6.732,3.019,6.732,6.732S1451.666,517.983,1447.948,517.983z M1447.948,465.983
	c-3.719,0-6.729-3.019-6.729-6.732s3.014-6.732,6.729-6.732c3.719,0,6.732,3.019,6.732,6.732S1451.666,465.983,1447.948,465.983z
	 M1447.948,413.982c-3.719,0-6.729-3.016-6.729-6.732s3.014-6.732,6.729-6.732c3.719,0,6.732,3.016,6.732,6.732
	S1451.666,413.982,1447.948,413.982z M1447.948,361.981c-3.719,0-6.729-3.014-6.729-6.732s3.014-6.732,6.729-6.732
	c3.719,0,6.732,3.014,6.732,6.732S1451.666,361.981,1447.948,361.981z M1447.948,309.981c-3.719,0-6.729-3.014-6.729-6.732
	s3.014-6.732,6.729-6.732c3.719,0,6.732,3.014,6.732,6.732S1451.666,309.981,1447.948,309.981z M1561.09,452.517
	c3.719,0,6.729,3.019,6.729,6.732s-3.016,6.732-6.729,6.732c-3.719,0-6.732-3.019-6.732-6.732S1557.368,452.517,1561.09,452.517z
	 M1561.09,504.517c3.719,0,6.729,3.019,6.729,6.732s-3.016,6.732-6.729,6.732c-3.719,0-6.732-3.019-6.732-6.732
	S1557.368,504.517,1561.09,504.517z M1561.09,556.517c3.719,0,6.729,3.019,6.729,6.732s-3.016,6.732-6.729,6.732
	c-3.719,0-6.732-3.019-6.732-6.732S1557.368,556.517,1561.09,556.517z M1561.09,608.517c3.719,0,6.729,3.018,6.729,6.732
	c0,3.717-3.016,6.732-6.729,6.732c-3.719,0-6.732-3.018-6.732-6.732S1557.368,608.517,1561.09,608.517z M1561.09,660.516
	c3.719,0,6.729,3.02,6.729,6.732c0,3.717-3.016,6.732-6.729,6.732c-3.719,0-6.732-3.018-6.732-6.732
	C1554.358,663.534,1557.368,660.516,1561.09,660.516z M1504.52,348.519c3.721,0,6.732,3.014,6.732,6.732s-3.017,6.732-6.732,6.732
	s-6.729-3.014-6.729-6.732S1500.801,348.519,1504.52,348.519z M1504.52,400.518c3.721,0,6.732,3.016,6.732,6.732
	s-3.017,6.732-6.732,6.732s-6.729-3.016-6.729-6.732S1500.801,400.518,1504.52,400.518z M1504.52,452.517
	c3.721,0,6.732,3.019,6.732,6.732s-3.017,6.732-6.732,6.732s-6.729-3.019-6.729-6.732S1500.801,452.517,1504.52,452.517z
	 M1504.52,504.517c3.721,0,6.732,3.019,6.732,6.732s-3.017,6.732-6.732,6.732s-6.729-3.019-6.729-6.732
	S1500.801,504.517,1504.52,504.517z M1504.52,556.517c3.721,0,6.732,3.019,6.732,6.732s-3.017,6.732-6.732,6.732
	s-6.729-3.019-6.729-6.732S1500.801,556.517,1504.52,556.517z M1504.52,608.517c3.721,0,6.732,3.018,6.732,6.732
	c0,3.717-3.017,6.732-6.732,6.732s-6.729-3.018-6.729-6.732C1497.788,611.534,1500.801,608.517,1504.52,608.517z M1504.52,660.516
	c3.721,0,6.732,3.02,6.732,6.732c0,3.717-3.017,6.732-6.732,6.732s-6.729-3.018-6.729-6.732
	C1497.788,663.534,1500.801,660.516,1504.52,660.516z M1561.09,829.983c-3.722,0-6.732-3.02-6.732-6.732
	c0-3.717,3.016-6.732,6.732-6.732c3.719,0,6.729,3.018,6.729,6.732C1567.822,826.965,1564.809,829.983,1561.09,829.983z
	 M1568.243,779.364c-20.854,20.873-53.014,22.553-71.834,3.752c-18.817-18.803-17.172-50.965,3.683-71.84
	c20.854-20.873,53.02-22.559,71.836-3.75C1590.745,726.327,1589.1,758.489,1568.243,779.364z M1617.657,777.983
	c-3.719,0-6.729-3.02-6.729-6.732c0-3.717,3.018-6.732,6.729-6.732c3.72,0,6.732,3.018,6.732,6.732
	C1624.392,774.965,1621.379,777.983,1617.657,777.983z M1617.657,725.983c-3.719,0-6.729-3.02-6.729-6.732
	c0-3.717,3.018-6.732,6.729-6.732c3.72,0,6.732,3.018,6.732,6.732C1624.392,722.965,1621.379,725.983,1617.657,725.983z
	 M1617.657,673.983c-3.719,0-6.729-3.02-6.729-6.732c0-3.717,3.018-6.732,6.729-6.732c3.72,0,6.732,3.018,6.732,6.732
	C1624.392,670.965,1621.379,673.983,1617.657,673.983z M1617.657,621.983c-3.719,0-6.729-3.02-6.729-6.732
	c0-3.717,3.018-6.732,6.729-6.732c3.72,0,6.732,3.016,6.732,6.732C1624.392,618.965,1621.379,621.983,1617.657,621.983z
	 M1617.657,569.983c-3.719,0-6.729-3.019-6.729-6.732s3.018-6.732,6.729-6.732c3.72,0,6.732,3.019,6.732,6.732
	S1621.379,569.983,1617.657,569.983z M1617.657,517.983c-3.719,0-6.729-3.019-6.729-6.732s3.018-6.732,6.729-6.732
	c3.72,0,6.732,3.019,6.732,6.732S1621.379,517.983,1617.657,517.983z M1674.23,777.983c-3.719,0-6.732-3.02-6.732-6.732
	c0-3.717,3.017-6.732,6.732-6.732s6.732,3.018,6.732,6.732C1680.962,774.965,1677.948,777.983,1674.23,777.983z M1674.23,725.983
	c-3.719,0-6.732-3.02-6.732-6.732c0-3.717,3.017-6.732,6.732-6.732s6.732,3.018,6.732,6.732
	C1680.962,722.965,1677.948,725.983,1674.23,725.983z M1674.23,673.983c-3.719,0-6.732-3.02-6.732-6.732
	c0-3.717,3.017-6.732,6.732-6.732s6.732,3.018,6.732,6.732C1680.962,670.965,1677.948,673.983,1674.23,673.983z M1674.23,621.983
	c-3.719,0-6.732-3.02-6.732-6.732c0-3.717,3.017-6.732,6.732-6.732s6.732,3.016,6.732,6.732
	C1680.962,618.965,1677.948,621.983,1674.23,621.983z M1674.23,569.983c-3.719,0-6.732-3.019-6.732-6.732s3.017-6.732,6.732-6.732
	s6.732,3.019,6.732,6.732S1677.948,569.983,1674.23,569.983z M1730.801,725.983c-3.721,0-6.73-3.02-6.73-6.732
	c0-3.717,3.017-6.732,6.73-6.732c3.719,0,6.729,3.018,6.729,6.732C1737.531,722.965,1734.52,725.983,1730.801,725.983z
	 M1730.801,673.983c-3.721,0-6.73-3.02-6.73-6.732c0-3.717,3.017-6.732,6.73-6.732c3.719,0,6.729,3.018,6.729,6.732
	C1737.531,670.965,1734.52,673.983,1730.801,673.983z M1730.801,621.983c-3.721,0-6.73-3.02-6.73-6.732
	c0-3.717,3.017-6.732,6.73-6.732c3.719,0,6.729,3.016,6.729,6.732C1737.531,618.965,1734.52,621.983,1730.801,621.983z
	 M1787.368,725.983c-3.719,0-6.729-3.02-6.729-6.732c0-3.717,3.018-6.732,6.729-6.732c3.722,0,6.732,3.018,6.732,6.732
	C1794.103,722.965,1791.09,725.983,1787.368,725.983z"/>
</svg>
