<?xml version="1.0" encoding="utf-8"?>
<!-- Generator: Adobe Illustrator 16.0.0, SVG Export Plug-In . SVG Version: 6.00 Build 0)  -->
<!DOCTYPE svg PUBLIC "-//W3C//DTD SVG 1.1//EN" "http://www.w3.org/Graphics/SVG/1.1/DTD/svg11.dtd">
<svg version="1.1" id="Layer_1" xmlns="http://www.w3.org/2000/svg" xmlns:xlink="http://www.w3.org/1999/xlink" x="0px" y="0px"
	 width="2060.68px" height="768.814px" viewBox="0 0 2060.68 768.814" enable-background="new 0 0 2060.68 768.814"
	 xml:space="preserve">
<path fill="none" stroke="#000001" stroke-linejoin="round" stroke-miterlimit="10" d="M961.169,768.79
	c5.493,0.105,11.76-0.109,18.913-0.738c57.57-5.052,546.182-113.33,762.036-236.114C1957.969,409.149,2060.68,0,2060.68,0h-434.83
	c-2.84,0.78-5.784,0.738-8.703,0.737c-3.435-0.001-6.871-0.054-10.308-0.05c-3.986,0.005-7.974,0.033-11.961,0.026
	c-3.314-0.006-6.629-0.024-9.943-0.017c-1.599,0.004-3.201,0.042-4.799,0.012c-0.024,0-0.049-0.005-0.073-0.005l-375.446-0.632
	c-39.397,26.537-70.994,41.033-70.994,41.034C1026.403,91.101,782.925,169.278,305.796,171.71c0,0-57.313-11.664-80.395,28.426
	c-23.08,40.09-176.621,313.13-224.253,476.367c0,0-13.148,55.386,49.51,53.943c54.838-1.269,529.797,7.863,819.913-59.799
	c11.341-2.645,18.697,5.183,19.978,15.677c1.816,14.88-8.911,19.591-18.325,28.715c-6.134,5.943-9.68,14.024-9.68,22.595
	c0,17.221,13.96,31.181,31.181,31.181C893.725,768.814,961.169,768.814,961.169,768.79z"/>
</svg>
