<?xml version="1.0" encoding="utf-8"?>
<!-- Generator: Adobe Illustrator 16.0.0, SVG Export Plug-In . SVG Version: 6.00 Build 0)  -->
<!DOCTYPE svg PUBLIC "-//W3C//DTD SVG 1.1//EN" "http://www.w3.org/Graphics/SVG/1.1/DTD/svg11.dtd">
<svg version="1.1" id="Layer_1" xmlns="http://www.w3.org/2000/svg" xmlns:xlink="http://www.w3.org/1999/xlink" x="0px" y="0px"
	 width="2117.48px" height="985.783px" viewBox="0 0 2117.48 985.783" enable-background="new 0 0 2117.48 985.783"
	 xml:space="preserve">
<path fill="none" stroke="#000000" stroke-linejoin="round" stroke-miterlimit="10" d="M2059.826,275.931
	c-1.568-1.781-4.93-3.619-6.44-0.765c-2.987,11.696-7.679,26.003-25.362,30.97L1650.279,419.12c0,0-3.902,0.466-11.021-3.956
	c-7.119-4.425-95.999-97.307-865.207-46.995c0,0-3.374-6.19,9.73-12.369c13.1-6.176,325.949-157.571,325.949-157.571
	l-124.664,21.477c0,0-315.088,132.542-433.729,209.99c-118.636,77.45-383.556,387.255-420.186,522.148L2.037,985.721
	c0,0-5.042,1.918,0.74-15.908c5.78-17.825,166.927-412.809,177.812-531.445c0,0,5.411-98.203,121.677-129.228
	c116.271-31.019,377.192-87.223,377.192-87.223S750.657,108.1,822.146,99.566L1671.26,0.068c0,0,18.53-2.197,49.663,18.463
	l321.87,229.149c0,0,3.309,2.215,6.498,5.831l0.001,0.002c1.769,1.426,4.717,3.685,6.258,0.742
	c2.476-14.748,15.3-25.986,30.75-25.986c17.222,0,31.181,13.96,31.181,31.181c0,17.221-13.959,31.181-31.181,31.181
	c-11.169,0-20.966-5.872-26.472-14.697L2059.826,275.931z"/>
</svg>
