<?xml version="1.0" encoding="utf-8"?>
<!-- Generator: Adobe Illustrator 16.0.0, SVG Export Plug-In . SVG Version: 6.00 Build 0)  -->
<!DOCTYPE svg PUBLIC "-//W3C//DTD SVG 1.1//EN" "http://www.w3.org/Graphics/SVG/1.1/DTD/svg11.dtd">
<svg version="1.1" id="Layer_1" xmlns="http://www.w3.org/2000/svg" xmlns:xlink="http://www.w3.org/1999/xlink" x="0px" y="0px"
	 width="1176.016px" height="350.986px" viewBox="0 0 1176.016 350.986" enable-background="new 0 0 1176.016 350.986"
	 xml:space="preserve">
<path fill="none" stroke="#000000" stroke-linejoin="round" stroke-miterlimit="10" d="M1172.528,35.585
	c-11.447-13.144-30.82-40.828-62.011-34.717C1079.33,6.974,678.887,84.792,588.29,94.185l-30.36,22.109L540.702,95.66
	c0,0-0.506-2.354-10.772-4.243c-10.267-1.886-28.646-5.854-28.646-5.854s-4.468-0.401-8.111,1.754
	c-3.639,2.157-22.612,10.104-22.612,10.104l-11.834-32.668c0,0-1.607-4.052-13.729-0.695
	C432.878,67.41,63.639,176.484,63.639,176.484s-3.321,2.982,0.746,6.073c4.067,3.084,64.732,47.766,88.182,74.989
	c23.457,27.228,64.63,76.123,64.63,76.123s24.419,26.449,79.517,13.97c55.102-12.481,237.747-70.115,375.636-14.091
	c0,0,26.199,18.982,50.07,3.621c23.873-15.36,105.779-76.144,192.014-133.321c86.23-57.182,249.154-142.275,249.154-142.275
	S1183.975,48.729,1172.528,35.585z"/>
</svg>
