<?xml version="1.0" encoding="utf-8"?>
<!-- Generator: Adobe Illustrator 16.0.0, SVG Export Plug-In . SVG Version: 6.00 Build 0)  -->
<!DOCTYPE svg PUBLIC "-//W3C//DTD SVG 1.1//EN" "http://www.w3.org/Graphics/SVG/1.1/DTD/svg11.dtd">
<svg version="1.1" id="Layer_1" xmlns="http://www.w3.org/2000/svg" xmlns:xlink="http://www.w3.org/1999/xlink" x="0px" y="0px"
	 width="2829.506px" height="1258.426px" viewBox="0 0 2829.506 1258.426" enable-background="new 0 0 2829.506 1258.426"
	 xml:space="preserve">
<path fill="none" stroke="#000000" stroke-linejoin="round" stroke-miterlimit="10" d="M83.026,544.113
	c-7.097,6.714-12.751,14.085-17.204,19.233c-11.401,13.188,9.031,25.955,9.031,25.955c0,0,4.87,2.521,13.373,6.987"/>
<path fill="none" stroke="#000000" stroke-linejoin="round" stroke-miterlimit="10" d="M780.34,572.159
	c3.777,6.011,9.497,11.169,18.786,13.744l378.14,111.653c0,0,3.898,0.451,11.007-3.998c0.101-0.062,0.218-0.144,0.354-0.241"/>
<path fill="none" stroke="#000000" stroke-linejoin="round" stroke-miterlimit="10" d="M2448.297,563.897
	c-127.201-30.17-300.924-66.954-300.924-66.954s-71.592-113.564-143.111-121.851l-849.451-96.513c0,0-1.57-0.181-4.562,0.075"/>
<path fill="none" stroke="#000000" stroke-linejoin="round" stroke-miterlimit="10" d="M1152.498,273.808l1328.184,146.29
	c13.255,2.658,13.672-1.391,13.672-1.391"/>
<path fill="none" stroke="#000001" stroke-linejoin="round" stroke-miterlimit="10" d="M1175.823,705.067
	c1.795-2.555-0.626-4.712-0.626-4.712s-369.622-107.779-381.75-111.094c-12.127-3.312-13.725,0.748-13.725,0.748"/>
</svg>
