<?xml version="1.0" encoding="utf-8"?>
<!-- Generator: Adobe Illustrator 16.0.0, SVG Export Plug-In . SVG Version: 6.00 Build 0)  -->
<!DOCTYPE svg PUBLIC "-//W3C//DTD SVG 1.1//EN" "http://www.w3.org/Graphics/SVG/1.1/DTD/svg11.dtd">
<svg version="1.1" id="Layer_1" xmlns="http://www.w3.org/2000/svg" xmlns:xlink="http://www.w3.org/1999/xlink" x="0px" y="0px"
	 width="1577.333px" height="421px" viewBox="0 0 1577.333 421" enable-background="new 0 0 1577.333 421" xml:space="preserve">
<path fill="none" stroke="#000000" stroke-linejoin="round" stroke-miterlimit="10" d="M1404.725,418.708
	c0,0,161.762-270.178,170.23-282.59c8.473-12.416-8.422-16.737-8.422-16.737S959.709,26.941,873.196,13.605
	C786.682,0.27,638.575,32.39,536.916,43.618c-53.551,5.915-62.05-35.401-62.05-35.401s-5.257-9-11.563-4.012
	C456.99,9.191,430.227,0,430.227,0S97.17,237.616,77.648,252.698c-19.521,15.086-14.778,21.108-14.778,21.108l1328.187,146.287
	C1404.309,422.756,1404.725,418.708,1404.725,418.708z M158.879,243.232c-3.718,0-6.731-3.018-6.731-6.729
	c0-3.719,3.014-6.731,6.731-6.731c3.719,0,6.733,3.016,6.733,6.731C165.612,240.217,162.598,243.232,158.879,243.232z
	 M215.45,243.232c-3.719,0-6.732-3.018-6.732-6.729c0-3.719,3.014-6.731,6.732-6.731c3.718,0,6.732,3.016,6.732,6.731
	C222.182,240.217,219.169,243.232,215.45,243.232z M215.45,191.233c-3.719,0-6.732-3.014-6.732-6.732s3.014-6.732,6.732-6.732
	c3.718,0,6.732,3.014,6.732,6.732S219.169,191.233,215.45,191.233z M272.02,243.232c-3.719,0-6.732-3.018-6.732-6.729
	c0-3.719,3.014-6.731,6.732-6.731c3.718,0,6.732,3.016,6.732,6.731C278.753,240.219,275.739,243.232,272.02,243.232z
	 M272.02,191.233c-3.719,0-6.732-3.014-6.732-6.732s3.014-6.732,6.732-6.732c3.718,0,6.732,3.014,6.732,6.732
	S275.739,191.233,272.02,191.233z M328.591,243.232c-3.719,0-6.73-3.018-6.73-6.729c0-3.719,3.014-6.731,6.73-6.731
	s6.732,3.016,6.732,6.731C335.323,240.217,332.309,243.232,328.591,243.232z M328.591,191.233c-3.719,0-6.73-3.014-6.73-6.732
	s3.014-6.732,6.73-6.732s6.732,3.014,6.732,6.732S332.309,191.233,328.591,191.233z M328.591,139.233
	c-3.719,0-6.73-3.014-6.73-6.732s3.014-6.732,6.73-6.732s6.732,3.014,6.732,6.732S332.309,139.233,328.591,139.233z
	 M385.161,295.232c-3.719,0-6.73-3.018-6.73-6.729c0-3.719,3.016-6.731,6.73-6.731s6.73,3.016,6.73,6.731
	C391.893,292.217,388.879,295.232,385.161,295.232z M385.161,243.232c-3.719,0-6.73-3.018-6.73-6.729
	c0-3.719,3.016-6.731,6.73-6.731s6.73,3.016,6.73,6.731C391.893,240.217,388.879,243.232,385.161,243.232z M385.161,191.233
	c-3.719,0-6.73-3.014-6.73-6.732s3.016-6.732,6.73-6.732s6.73,3.014,6.73,6.732S388.879,191.233,385.161,191.233z M385.161,139.233
	c-3.719,0-6.73-3.014-6.73-6.732s3.016-6.732,6.73-6.732s6.73,3.014,6.73,6.732S388.879,139.233,385.161,139.233z M385.161,87.233
	c-3.719,0-6.73-3.014-6.73-6.732s3.016-6.732,6.73-6.732s6.73,3.014,6.73,6.732S388.879,87.233,385.161,87.233z M441.73,295.232
	c-3.72,0-6.731-3.018-6.731-6.729c0-3.719,3.016-6.731,6.731-6.731c3.717,0,6.729,3.016,6.729,6.731
	C448.463,292.219,445.45,295.232,441.73,295.232z M441.73,243.232c-3.72,0-6.731-3.018-6.731-6.729c0-3.719,3.016-6.731,6.731-6.731
	c3.717,0,6.729,3.016,6.729,6.731C448.463,240.219,445.45,243.232,441.73,243.232z M441.73,191.233c-3.72,0-6.731-3.014-6.731-6.732
	s3.016-6.732,6.731-6.732c3.717,0,6.729,3.014,6.729,6.732S445.45,191.233,441.73,191.233z M441.73,139.233
	c-3.72,0-6.731-3.014-6.731-6.732s3.016-6.732,6.731-6.732c3.717,0,6.729,3.014,6.729,6.732S445.45,139.233,441.73,139.233z
	 M441.73,87.233c-3.72,0-6.731-3.014-6.731-6.732s3.016-6.732,6.731-6.732c3.717,0,6.729,3.014,6.729,6.732
	S445.45,87.233,441.73,87.233z M441.73,35.233c-3.72,0-6.731-3.014-6.731-6.732s3.016-6.732,6.731-6.732
	c3.717,0,6.729,3.014,6.729,6.732S445.45,35.233,441.73,35.233z M498.3,295.232c-3.719,0-6.729-3.018-6.729-6.729
	c0-3.719,3.014-6.731,6.729-6.731c3.72,0,6.732,3.016,6.732,6.731C505.034,292.219,502.02,295.232,498.3,295.232z M498.3,243.232
	c-3.719,0-6.729-3.018-6.729-6.729c0-3.719,3.014-6.731,6.729-6.731c3.72,0,6.732,3.016,6.732,6.731
	C505.034,240.219,502.02,243.232,498.3,243.232z M498.3,191.233c-3.719,0-6.729-3.014-6.729-6.732s3.014-6.732,6.729-6.732
	c3.72,0,6.732,3.014,6.732,6.732S502.02,191.233,498.3,191.233z M498.3,139.233c-3.719,0-6.729-3.014-6.729-6.732
	s3.014-6.732,6.729-6.732c3.72,0,6.732,3.014,6.732,6.732S502.02,139.233,498.3,139.233z M498.3,87.233
	c-3.719,0-6.729-3.014-6.729-6.732s3.014-6.732,6.729-6.732c3.72,0,6.732,3.014,6.732,6.732S502.02,87.233,498.3,87.233z
	 M554.872,295.232c-3.719,0-6.73-3.018-6.73-6.729c0-3.719,3.016-6.731,6.73-6.731s6.731,3.016,6.731,6.731
	C561.604,292.217,558.59,295.232,554.872,295.232z M554.872,243.232c-3.719,0-6.73-3.018-6.73-6.729c0-3.719,3.016-6.731,6.73-6.731
	s6.731,3.016,6.731,6.731C561.604,240.217,558.59,243.232,554.872,243.232z M554.872,191.233c-3.719,0-6.73-3.014-6.73-6.732
	s3.016-6.732,6.73-6.732s6.731,3.014,6.731,6.732S558.59,191.233,554.872,191.233z M554.872,139.233c-3.719,0-6.73-3.014-6.73-6.732
	s3.016-6.732,6.73-6.732s6.731,3.014,6.731,6.732S558.59,139.233,554.872,139.233z M554.872,87.233c-3.719,0-6.73-3.014-6.73-6.732
	s3.016-6.732,6.73-6.732s6.731,3.014,6.731,6.732S558.59,87.233,554.872,87.233z M611.442,295.232c-3.721,0-6.732-3.018-6.732-6.729
	c0-3.719,3.016-6.731,6.732-6.731c3.716,0,6.729,3.016,6.729,6.731C618.175,292.219,615.161,295.232,611.442,295.232z
	 M611.442,243.232c-3.721,0-6.732-3.018-6.732-6.729c0-3.719,3.016-6.731,6.732-6.731c3.716,0,6.729,3.016,6.729,6.731
	C618.175,240.219,615.161,243.232,611.442,243.232z M611.442,191.233c-3.721,0-6.732-3.014-6.732-6.732s3.016-6.732,6.732-6.732
	c3.716,0,6.729,3.014,6.729,6.732S615.161,191.233,611.442,191.233z M611.442,139.233c-3.721,0-6.732-3.014-6.732-6.732
	s3.016-6.732,6.732-6.732c3.716,0,6.729,3.014,6.729,6.732S615.161,139.233,611.442,139.233z M611.442,87.233
	c-3.721,0-6.732-3.014-6.732-6.732s3.016-6.732,6.732-6.732c3.716,0,6.729,3.014,6.729,6.732S615.161,87.233,611.442,87.233z
	 M668.012,295.232c-3.721,0-6.73-3.018-6.73-6.729c0-3.719,3.014-6.731,6.73-6.731c3.72,0,6.73,3.016,6.73,6.731
	C674.745,292.219,671.731,295.232,668.012,295.232z M668.012,243.232c-3.721,0-6.73-3.018-6.73-6.729
	c0-3.719,3.014-6.731,6.73-6.731c3.72,0,6.73,3.016,6.73,6.731C674.745,240.219,671.731,243.232,668.012,243.232z M668.012,191.233
	c-3.721,0-6.73-3.014-6.73-6.732s3.014-6.732,6.73-6.732c3.72,0,6.73,3.014,6.73,6.732S671.731,191.233,668.012,191.233z
	 M668.012,139.233c-3.721,0-6.73-3.014-6.73-6.732s3.014-6.732,6.73-6.732c3.72,0,6.73,3.014,6.73,6.732
	S671.731,139.233,668.012,139.233z M668.012,87.233c-3.721,0-6.73-3.014-6.73-6.732s3.014-6.732,6.73-6.732
	c3.72,0,6.73,3.014,6.73,6.732S671.731,87.233,668.012,87.233z M724.583,295.232c-3.719,0-6.729-3.018-6.729-6.729
	c0-3.719,3.015-6.731,6.729-6.731c3.718,0,6.732,3.016,6.732,6.731C731.315,292.217,728.3,295.232,724.583,295.232z
	 M724.583,243.232c-3.719,0-6.729-3.018-6.729-6.729c0-3.719,3.015-6.731,6.729-6.731c3.718,0,6.732,3.016,6.732,6.731
	C731.315,240.217,728.3,243.232,724.583,243.232z M724.583,191.233c-3.719,0-6.729-3.014-6.729-6.732s3.015-6.732,6.729-6.732
	c3.718,0,6.732,3.014,6.732,6.732S728.3,191.233,724.583,191.233z M724.583,139.233c-3.719,0-6.729-3.014-6.729-6.732
	s3.015-6.732,6.729-6.732c3.718,0,6.732,3.014,6.732,6.732S728.3,139.233,724.583,139.233z M724.583,87.233
	c-3.719,0-6.729-3.014-6.729-6.732s3.015-6.732,6.729-6.732c3.718,0,6.732,3.014,6.732,6.732S728.3,87.233,724.583,87.233z
	 M781.153,295.232c-3.721,0-6.732-3.018-6.732-6.729c0-3.719,3.018-6.731,6.732-6.731s6.729,3.016,6.729,6.731
	C787.884,292.217,784.872,295.232,781.153,295.232z M781.153,243.232c-3.721,0-6.732-3.018-6.732-6.729
	c0-3.719,3.018-6.731,6.732-6.731s6.729,3.016,6.729,6.731C787.884,240.217,784.872,243.232,781.153,243.232z M781.153,191.233
	c-3.721,0-6.732-3.014-6.732-6.732s3.018-6.732,6.732-6.732s6.729,3.014,6.729,6.732S784.872,191.233,781.153,191.233z
	 M781.153,139.233c-3.721,0-6.732-3.014-6.732-6.732s3.018-6.732,6.732-6.732s6.729,3.014,6.729,6.732
	S784.872,139.233,781.153,139.233z M781.153,87.233c-3.721,0-6.732-3.014-6.732-6.732s3.018-6.732,6.732-6.732
	s6.729,3.014,6.729,6.732S784.872,87.233,781.153,87.233z M781.153,35.233c-3.721,0-6.732-3.014-6.732-6.732
	s3.018-6.732,6.732-6.732s6.729,3.014,6.729,6.732S784.872,35.233,781.153,35.233z M837.721,347.232c-3.721,0-6.73-3.018-6.73-6.729
	c0-3.719,3.014-6.731,6.73-6.731c3.719,0,6.73,3.016,6.73,6.731C844.456,344.219,841.442,347.232,837.721,347.232z M837.721,295.232
	c-3.721,0-6.73-3.018-6.73-6.729c0-3.719,3.014-6.731,6.73-6.731c3.719,0,6.73,3.016,6.73,6.731
	C844.456,292.219,841.442,295.232,837.721,295.232z M837.721,243.232c-3.721,0-6.73-3.018-6.73-6.729
	c0-3.719,3.014-6.731,6.73-6.731c3.719,0,6.73,3.016,6.73,6.731C844.456,240.219,841.442,243.232,837.721,243.232z M837.721,191.233
	c-3.721,0-6.73-3.014-6.73-6.732s3.014-6.732,6.73-6.732c3.719,0,6.73,3.014,6.73,6.732S841.442,191.233,837.721,191.233z
	 M837.721,139.233c-3.721,0-6.73-3.014-6.73-6.732s3.014-6.732,6.73-6.732c3.719,0,6.73,3.014,6.73,6.732
	S841.442,139.233,837.721,139.233z M837.721,87.233c-3.721,0-6.73-3.014-6.73-6.732s3.014-6.732,6.73-6.732
	c3.719,0,6.73,3.014,6.73,6.732S841.442,87.233,837.721,87.233z M837.721,35.233c-3.721,0-6.73-3.014-6.73-6.732
	s3.014-6.732,6.73-6.732c3.719,0,6.73,3.014,6.73,6.732S841.442,35.233,837.721,35.233z M894.292,347.232
	c-3.719,0-6.729-3.018-6.729-6.729c0-3.719,3.014-6.731,6.729-6.731c3.721,0,6.732,3.016,6.732,6.731
	C901.024,344.217,898.01,347.232,894.292,347.232z M894.292,295.232c-3.719,0-6.729-3.018-6.729-6.729
	c0-3.719,3.014-6.731,6.729-6.731c3.721,0,6.732,3.016,6.732,6.731C901.024,292.217,898.01,295.232,894.292,295.232z
	 M894.292,243.232c-3.719,0-6.729-3.018-6.729-6.729c0-3.719,3.014-6.731,6.729-6.731c3.721,0,6.732,3.016,6.732,6.731
	C901.024,240.217,898.01,243.232,894.292,243.232z M894.292,191.233c-3.719,0-6.729-3.014-6.729-6.732s3.014-6.732,6.729-6.732
	c3.721,0,6.732,3.014,6.732,6.732S898.01,191.233,894.292,191.233z M894.292,139.233c-3.719,0-6.729-3.014-6.729-6.732
	s3.014-6.732,6.729-6.732c3.721,0,6.732,3.014,6.732,6.732S898.01,139.233,894.292,139.233z M894.292,87.233
	c-3.719,0-6.729-3.014-6.729-6.732s3.014-6.732,6.729-6.732c3.721,0,6.732,3.014,6.732,6.732S898.01,87.233,894.292,87.233z
	 M950.864,347.232c-3.721,0-6.732-3.018-6.732-6.729c0-3.719,3.018-6.731,6.732-6.731s6.73,3.016,6.73,6.731
	C957.594,344.217,954.583,347.232,950.864,347.232z M950.864,295.232c-3.721,0-6.732-3.018-6.732-6.729
	c0-3.719,3.018-6.731,6.732-6.731s6.73,3.016,6.73,6.731C957.594,292.217,954.583,295.232,950.864,295.232z M950.864,243.232
	c-3.721,0-6.732-3.018-6.732-6.729c0-3.719,3.018-6.731,6.732-6.731s6.73,3.016,6.73,6.731
	C957.594,240.217,954.583,243.232,950.864,243.232z M950.864,191.233c-3.721,0-6.732-3.014-6.732-6.732s3.018-6.732,6.732-6.732
	s6.73,3.014,6.73,6.732S954.583,191.233,950.864,191.233z M950.864,139.233c-3.721,0-6.732-3.014-6.732-6.732
	s3.018-6.732,6.732-6.732s6.73,3.014,6.73,6.732S954.583,139.233,950.864,139.233z M950.864,87.233
	c-3.721,0-6.732-3.014-6.732-6.732s3.018-6.732,6.732-6.732s6.73,3.014,6.73,6.732S954.583,87.233,950.864,87.233z
	 M1007.432,347.232c-3.721,0-6.73-3.018-6.73-6.729c0-3.719,3.014-6.731,6.73-6.731c3.719,0,6.73,3.016,6.73,6.731
	C1014.167,344.219,1011.153,347.232,1007.432,347.232z M1007.432,295.232c-3.721,0-6.73-3.018-6.73-6.729
	c0-3.719,3.014-6.731,6.73-6.731c3.719,0,6.73,3.016,6.73,6.731C1014.167,292.219,1011.153,295.232,1007.432,295.232z
	 M1007.432,243.232c-3.721,0-6.73-3.018-6.73-6.729c0-3.719,3.014-6.731,6.73-6.731c3.719,0,6.73,3.016,6.73,6.731
	C1014.167,240.219,1011.153,243.232,1007.432,243.232z M1007.432,191.233c-3.721,0-6.73-3.014-6.73-6.732s3.014-6.732,6.73-6.732
	c3.719,0,6.73,3.014,6.73,6.732S1011.153,191.233,1007.432,191.233z M1007.432,139.233c-3.721,0-6.73-3.014-6.73-6.732
	s3.014-6.732,6.73-6.732c3.719,0,6.73,3.014,6.73,6.732S1011.153,139.233,1007.432,139.233z M1007.432,87.233
	c-3.721,0-6.73-3.014-6.73-6.732s3.014-6.732,6.73-6.732c3.719,0,6.73,3.014,6.73,6.732S1011.153,87.233,1007.432,87.233z
	 M1064.002,347.232c-3.719,0-6.729-3.018-6.729-6.729c0-3.719,3.014-6.731,6.729-6.731c3.721,0,6.732,3.016,6.732,6.731
	C1070.735,344.217,1067.721,347.232,1064.002,347.232z M1064.002,295.232c-3.719,0-6.729-3.018-6.729-6.729
	c0-3.719,3.014-6.731,6.729-6.731c3.721,0,6.732,3.016,6.732,6.731C1070.735,292.217,1067.721,295.232,1064.002,295.232z
	 M1064.002,243.232c-3.719,0-6.729-3.018-6.729-6.729c0-3.719,3.014-6.731,6.729-6.731c3.721,0,6.732,3.016,6.732,6.731
	C1070.735,240.217,1067.721,243.232,1064.002,243.232z M1064.002,191.233c-3.719,0-6.729-3.014-6.729-6.732s3.014-6.732,6.729-6.732
	c3.721,0,6.732,3.014,6.732,6.732S1067.721,191.233,1064.002,191.233z M1064.002,139.233c-3.719,0-6.729-3.014-6.729-6.732
	s3.014-6.732,6.729-6.732c3.721,0,6.732,3.014,6.732,6.732S1067.721,139.233,1064.002,139.233z M1064.002,87.233
	c-3.719,0-6.729-3.014-6.729-6.732s3.014-6.732,6.729-6.732c3.721,0,6.732,3.014,6.732,6.732S1067.721,87.233,1064.002,87.233z
	 M1120.575,347.232c-3.719,0-6.732-3.018-6.732-6.729c0-3.719,3.018-6.731,6.732-6.731s6.73,3.016,6.73,6.731
	C1127.305,344.217,1124.292,347.232,1120.575,347.232z M1120.575,295.232c-3.719,0-6.732-3.018-6.732-6.729
	c0-3.719,3.018-6.731,6.732-6.731s6.73,3.016,6.73,6.731C1127.305,292.217,1124.292,295.232,1120.575,295.232z M1120.575,243.232
	c-3.719,0-6.732-3.018-6.732-6.729c0-3.719,3.018-6.731,6.732-6.731s6.73,3.016,6.73,6.731
	C1127.305,240.217,1124.292,243.232,1120.575,243.232z M1120.575,191.233c-3.719,0-6.732-3.014-6.732-6.732s3.018-6.732,6.732-6.732
	s6.73,3.014,6.73,6.732S1124.292,191.233,1120.575,191.233z M1120.575,139.233c-3.719,0-6.732-3.014-6.732-6.732
	s3.018-6.732,6.732-6.732s6.73,3.014,6.73,6.732S1124.292,139.233,1120.575,139.233z M1120.575,87.233
	c-3.719,0-6.732-3.014-6.732-6.732s3.018-6.732,6.732-6.732s6.73,3.014,6.73,6.732S1124.292,87.233,1120.575,87.233z
	 M1177.145,347.232c-3.721,0-6.732-3.018-6.732-6.729c0-3.719,3.014-6.731,6.732-6.731c3.717,0,6.729,3.016,6.729,6.731
	C1183.875,344.219,1180.864,347.232,1177.145,347.232z M1177.145,295.232c-3.721,0-6.732-3.018-6.732-6.729
	c0-3.719,3.014-6.731,6.732-6.731c3.717,0,6.729,3.016,6.729,6.731C1183.875,292.219,1180.864,295.232,1177.145,295.232z
	 M1177.145,243.232c-3.721,0-6.732-3.018-6.732-6.729c0-3.719,3.014-6.731,6.732-6.731c3.717,0,6.729,3.016,6.729,6.731
	C1183.875,240.219,1180.864,243.232,1177.145,243.232z M1177.145,191.233c-3.721,0-6.732-3.014-6.732-6.732s3.014-6.732,6.732-6.732
	c3.717,0,6.729,3.014,6.729,6.732S1180.864,191.233,1177.145,191.233z M1177.145,139.233c-3.721,0-6.732-3.014-6.732-6.732
	s3.014-6.732,6.732-6.732c3.717,0,6.729,3.014,6.729,6.732S1180.864,139.233,1177.145,139.233z M1177.145,87.233
	c-3.721,0-6.732-3.014-6.732-6.732s3.014-6.732,6.732-6.732c3.717,0,6.729,3.014,6.729,6.732S1180.864,87.233,1177.145,87.233z
	 M1233.713,347.232c-3.719,0-6.729-3.018-6.729-6.729c0-3.719,3.014-6.731,6.729-6.731c3.721,0,6.732,3.016,6.732,6.731
	C1240.446,344.217,1237.432,347.232,1233.713,347.232z M1233.713,295.232c-3.719,0-6.729-3.018-6.729-6.729
	c0-3.719,3.014-6.731,6.729-6.731c3.721,0,6.732,3.016,6.732,6.731C1240.446,292.217,1237.432,295.232,1233.713,295.232z
	 M1233.713,243.232c-3.719,0-6.729-3.018-6.729-6.729c0-3.719,3.014-6.731,6.729-6.731c3.721,0,6.732,3.016,6.732,6.731
	C1240.446,240.217,1237.432,243.232,1233.713,243.232z M1233.713,191.233c-3.719,0-6.729-3.014-6.729-6.732s3.014-6.732,6.729-6.732
	c3.721,0,6.732,3.014,6.732,6.732S1237.432,191.233,1233.713,191.233z M1233.713,139.233c-3.719,0-6.729-3.014-6.729-6.732
	s3.014-6.732,6.729-6.732c3.721,0,6.732,3.014,6.732,6.732S1237.432,139.233,1233.713,139.233z M1290.286,347.232
	c-3.719,0-6.732-3.018-6.732-6.729c0-3.719,3.018-6.731,6.732-6.731s6.732,3.016,6.732,6.731
	C1297.018,344.217,1294.002,347.232,1290.286,347.232z M1290.286,295.232c-3.719,0-6.732-3.018-6.732-6.729
	c0-3.719,3.018-6.731,6.732-6.731s6.732,3.016,6.732,6.731C1297.018,292.217,1294.002,295.232,1290.286,295.232z M1290.286,243.232
	c-3.719,0-6.732-3.018-6.732-6.729c0-3.719,3.018-6.731,6.732-6.731s6.732,3.016,6.732,6.731
	C1297.018,240.217,1294.002,243.232,1290.286,243.232z M1290.286,191.233c-3.719,0-6.732-3.014-6.732-6.732s3.018-6.732,6.732-6.732
	s6.732,3.014,6.732,6.732S1294.002,191.233,1290.286,191.233z M1290.286,139.233c-3.719,0-6.732-3.014-6.732-6.732
	s3.018-6.732,6.732-6.732s6.732,3.014,6.732,6.732S1294.002,139.233,1290.286,139.233z M1346.856,399.234
	c-3.721,0-6.732-3.02-6.732-6.731c0-3.719,3.014-6.731,6.732-6.731c3.717,0,6.729,3.016,6.729,6.731
	C1353.586,396.219,1350.575,399.234,1346.856,399.234z M1346.856,347.232c-3.721,0-6.732-3.018-6.732-6.729
	c0-3.719,3.014-6.731,6.732-6.731c3.717,0,6.729,3.016,6.729,6.731C1353.586,344.219,1350.575,347.232,1346.856,347.232z
	 M1346.856,295.232c-3.721,0-6.732-3.018-6.732-6.729c0-3.719,3.014-6.731,6.732-6.731c3.717,0,6.729,3.016,6.729,6.731
	C1353.586,292.219,1350.575,295.232,1346.856,295.232z M1346.856,243.232c-3.721,0-6.732-3.018-6.732-6.729
	c0-3.719,3.014-6.731,6.732-6.731c3.717,0,6.729,3.016,6.729,6.731C1353.586,240.219,1350.575,243.232,1346.856,243.232z
	 M1346.856,191.233c-3.721,0-6.732-3.014-6.732-6.732s3.014-6.732,6.732-6.732c3.717,0,6.729,3.014,6.729,6.732
	S1350.575,191.233,1346.856,191.233z M1346.856,139.233c-3.721,0-6.732-3.014-6.732-6.732s3.014-6.732,6.732-6.732
	c3.717,0,6.729,3.014,6.729,6.732S1350.575,139.233,1346.856,139.233z M1516.567,125.768c3.719,0,6.73,3.014,6.73,6.732
	s-3.016,6.732-6.73,6.732c-3.717,0-6.732-3.014-6.732-6.732S1512.846,125.768,1516.567,125.768z M1516.567,177.768
	c3.719,0,6.73,3.014,6.73,6.732s-3.016,6.732-6.73,6.732c-3.717,0-6.732-3.014-6.732-6.732S1512.846,177.768,1516.567,177.768z
	 M1459.997,125.768c3.719,0,6.732,3.014,6.732,6.732s-3.016,6.732-6.732,6.732c-3.719,0-6.73-3.014-6.73-6.732
	S1456.278,125.768,1459.997,125.768z M1459.997,177.768c3.719,0,6.732,3.014,6.732,6.732s-3.016,6.732-6.732,6.732
	c-3.719,0-6.73-3.014-6.73-6.732S1456.278,177.768,1459.997,177.768z M1459.997,229.771c3.719,0,6.732,3.015,6.732,6.73
	c0,3.715-3.016,6.73-6.732,6.73c-3.719,0-6.73-3.019-6.73-6.73C1453.262,232.784,1456.278,229.771,1459.997,229.771z
	 M1403.424,125.768c3.721,0,6.73,3.014,6.73,6.732s-3.016,6.732-6.73,6.732c-3.719,0-6.73-3.014-6.73-6.732
	S1399.708,125.768,1403.424,125.768z M1403.424,177.768c3.721,0,6.73,3.014,6.73,6.732s-3.016,6.732-6.73,6.732
	c-3.719,0-6.73-3.014-6.73-6.732S1399.708,177.768,1403.424,177.768z M1403.424,229.771c3.721,0,6.73,3.015,6.73,6.73
	c0,3.715-3.016,6.73-6.73,6.73c-3.719,0-6.73-3.019-6.73-6.73C1396.694,232.784,1399.708,229.771,1403.424,229.771z
	 M1403.424,281.771c3.721,0,6.73,3.015,6.73,6.73c0,3.715-3.016,6.73-6.73,6.73c-3.719,0-6.73-3.019-6.73-6.73
	C1396.694,284.784,1399.708,281.771,1403.424,281.771z M1396.694,340.502c0-3.719,3.014-6.73,6.73-6.73
	c3.719,0,6.73,3.015,6.73,6.73c0,3.715-3.016,6.73-6.73,6.73C1399.708,347.232,1396.694,344.219,1396.694,340.502z"/>
</svg>
