<?xml version="1.0" encoding="utf-8"?>
<!-- Generator: Adobe Illustrator 16.0.0, SVG Export Plug-In . SVG Version: 6.00 Build 0)  -->
<!DOCTYPE svg PUBLIC "-//W3C//DTD SVG 1.1//EN" "http://www.w3.org/Graphics/SVG/1.1/DTD/svg11.dtd">
<svg version="1.1" id="Layer_1" xmlns="http://www.w3.org/2000/svg" xmlns:xlink="http://www.w3.org/1999/xlink" x="0px" y="0px"
	 width="1222.73px" height="419.046px" viewBox="0 0 1222.73 419.046" enable-background="new 0 0 1222.73 419.046"
	 xml:space="preserve">
<path fill="none" stroke="#000000" stroke-linejoin="round" stroke-miterlimit="10" d="M1150.118,40.277
	c-5.472-0.792-11.376-0.216-16.2,0.576c-4.607,0.72-9,1.8-12.021,2.448c-11.952,2.376-573.845,77.976-599.328,83.016
	c-23.4,4.536-40.464,2.304-52.488-1.368c-6.12-1.8-11.016-4.032-14.832-5.976c-4.392-2.232-7.56-4.176-9.72-5.184
	c-7.992-3.672-42.12-24.12-54.145-31.536c-18.863-11.664-31.104,0.648-35.712,10.729c-0.505,1.224-1.297,3.312-2.089,5.832
	c-0.72,2.16-1.512,4.607-2.159,6.983c-0.863,2.88-1.584,5.544-2.089,7.128c-6.19,7.776-22.176,14.76-24.264,15.624
	c-9.792,3.384-286.848,98.136-302.616,101.738c-7.056,1.654-12.96,3.601-16.775,6.406c-5.4,4.031-7.344,10.438-4.104,16.562
	c1.152,2.088,2.664,3.742,3.889,4.896c1.079,1.149,2.447,2.306,3.96,3.456c1.151,0.938,2.447,1.941,3.743,2.951
	c1.08,0.863,2.089,1.729,3.097,2.664c16.416,15.982,45.864,45.721,72.432,72.357c26.136,26.28,50.616,50.688,56.448,55.08
	c5.256,3.891,14.688,10.729,25.416,16.129c10.296,5.186,23.616,10.01,36.072,7.635c71.063-13.537,126.863-24.555,181.512-36.437
	c81.575-19.226,134.136-19.226,167.544-14.327c16.56,2.448,28.651,6.19,37.512,9.504c4.392,1.655,7.992,3.239,10.943,4.467
	c1.584,0.721,3.021,1.365,4.316,1.801c1.584,0.646,2.952,1.148,4.104,1.438c25.416,6.336,44.275,0.648,58.392-8.711
	c6.912-4.607,12.456-9.938,17.064-14.689c4.248-4.393,7.771-8.641,10.872-11.594c67.027-64.295,163.363-114.188,248.326-152.135
	c42.479-19.008,81.791-34.848,112.896-47.952c30.456-12.816,54.864-23.688,65.376-32.688c9-7.56,17.424-13.32,24.264-19.224
	c7.416-6.408,14.112-13.824,17.208-24.408C1172.725,54.029,1164.805,42.437,1150.118,40.277z"/>
</svg>
