<?xml version="1.0" encoding="utf-8"?>
<!-- Generator: Adobe Illustrator 16.0.0, SVG Export Plug-In . SVG Version: 6.00 Build 0)  -->
<!DOCTYPE svg PUBLIC "-//W3C//DTD SVG 1.1//EN" "http://www.w3.org/Graphics/SVG/1.1/DTD/svg11.dtd">
<svg version="1.1" id="Layer_1" xmlns="http://www.w3.org/2000/svg" xmlns:xlink="http://www.w3.org/1999/xlink" x="0px" y="0px"
	 width="1168.854px" height="379.148px" viewBox="0 0 1168.854 379.148" enable-background="new 0 0 1168.854 379.148"
	 xml:space="preserve">
<path d="M1150.115,0.379c-5.472-0.792-11.376-0.216-16.198,0.576c-4.606,0.72-9,1.8-12.021,2.447
	c-11.952,2.376-573.843,77.977-599.328,83.017c-23.397,4.536-40.464,2.305-52.486-1.368c-6.119-1.8-11.018-4.031-14.831-5.976
	c-4.395-2.232-7.562-4.177-9.723-5.185c-7.992-3.673-42.12-24.12-54.144-31.536c-18.864-11.664-31.104,0.647-35.712,10.729
	c-0.506,1.225-1.297,3.312-2.09,5.832c-0.722,2.16-1.514,4.606-2.158,6.982c-0.864,2.88-1.584,5.544-2.089,7.128
	c-6.191,7.775-22.179,14.761-24.267,15.624c-9.792,3.385-286.848,98.137-302.614,101.737c-7.058,1.654-12.96,3.602-16.774,6.406
	c-5.398,4.031-7.345,10.438-4.104,16.562c1.15,2.088,2.664,3.742,3.89,4.896c1.078,1.148,2.446,2.307,3.96,3.456
	c1.15,0.938,2.446,1.94,3.742,2.951c1.08,0.862,2.09,1.729,3.098,2.664c16.416,15.98,45.863,45.721,72.434,72.355
	c26.136,26.28,50.614,50.688,56.446,55.08c5.257,3.892,14.688,10.729,25.416,16.13c10.296,5.187,23.616,10.01,36.072,7.635
	c71.062-13.536,126.862-24.556,181.512-36.437c81.576-19.224,134.136-19.224,167.544-14.328c16.562,2.448,28.653,6.192,37.512,9.505
	c4.395,1.655,7.992,3.239,10.943,4.467c1.584,0.722,3.022,1.364,4.318,1.802c1.584,0.646,2.952,1.147,4.104,1.438
	c25.416,6.337,44.277,0.648,58.395-8.712c6.912-4.605,12.456-9.938,17.062-14.688c4.248-4.394,7.773-8.642,10.872-11.594
	C765.924,245.68,862.26,195.787,947.222,157.84c42.479-19.008,81.791-34.848,112.896-47.951
	c30.457-12.815,54.864-23.688,65.377-32.688c9-7.561,17.426-13.32,24.266-19.225c7.416-6.408,14.111-13.824,17.208-24.408
	C1172.723,14.131,1164.803,2.539,1150.115,0.379z"/>
</svg>
