<?xml version="1.0" encoding="utf-8"?>
<!-- Generator: Adobe Illustrator 16.0.0, SVG Export Plug-In . SVG Version: 6.00 Build 0)  -->
<!DOCTYPE svg PUBLIC "-//W3C//DTD SVG 1.1//EN" "http://www.w3.org/Graphics/SVG/1.1/DTD/svg11.dtd">
<svg version="1.1" id="Layer_1" xmlns="http://www.w3.org/2000/svg" xmlns:xlink="http://www.w3.org/1999/xlink" x="0px" y="0px"
	 width="1222.73px" height="419.046px" viewBox="0 0 1222.73 419.046" enable-background="new 0 0 1222.73 419.046"
	 xml:space="preserve">
<path fill="none" stroke="#000000" stroke-linejoin="round" stroke-miterlimit="10" d="M1161.603,39.895
	c-0.804-2.766-1.234-5.689-1.234-8.714c0-17.221,13.96-31.181,31.182-31.181c17.221,0,31.182,13.96,31.182,31.181
	c0,17.221-13.961,31.181-31.182,31.181c-5.907,0-11.432-1.643-16.14-4.496c-1.344-0.479-2.612-1.349-4.03-1.608
	c-1.781-0.326-2.116,1.733-2.627,2.935c0.35,4.138-0.197,8.907-1.787,14.275c-3.097,10.584-9.792,18-17.208,24.408
	c-6.84,5.904-15.265,11.664-24.265,19.224c-10.512,9-34.92,19.872-65.376,32.688c-31.104,13.104-70.417,28.944-112.896,47.952
	c-84.963,37.948-181.299,87.839-248.326,152.134c-3.101,2.953-6.624,7.201-10.872,11.594c-4.607,4.753-10.152,10.082-17.063,14.689
	c-14.116,9.359-32.977,15.047-58.393,8.711c-1.151-0.289-2.521-0.791-4.104-1.438c-1.296-0.436-2.732-1.08-4.316-1.801
	c-2.951-1.229-6.552-2.812-10.943-4.467c-8.859-3.313-20.951-7.057-37.512-9.504c-33.408-4.897-85.969-4.897-167.544,14.326
	c-54.648,11.883-110.449,22.898-181.512,36.438c-12.456,2.375-25.776-2.449-36.072-7.635c-10.729-5.4-20.16-12.238-25.416-16.129
	c-5.832-4.394-30.312-28.801-56.448-55.08c-26.568-26.638-56.016-56.375-72.432-72.357c-1.008-0.936-2.018-1.801-3.098-2.664
	c-1.296-1.01-2.592-2.014-3.742-2.951c-1.514-1.15-2.882-2.307-3.96-3.456c-1.226-1.153-2.737-2.808-3.89-4.896
	c-3.24-6.125-1.296-12.531,4.104-16.562c3.814-2.806,9.719-4.752,16.774-6.406c15.769-3.602,292.824-98.354,302.616-101.738
	c2.088-0.864,18.073-7.848,24.265-15.624c0.505-1.584,1.226-4.248,2.089-7.128c0.646-2.376,1.438-4.823,2.159-6.983
	c0.792-2.52,1.584-4.608,2.089-5.832c4.607-10.081,16.849-22.393,35.712-10.729c12.023,7.416,46.151,27.864,54.145,31.536
	c2.16,1.008,5.328,2.952,9.721,5.184c3.815,1.944,8.712,4.176,14.832,5.976c12.023,3.672,29.088,5.904,52.487,1.368
	c25.483-5.04,587.376-80.64,599.328-83.016c3.021-0.648,7.413-1.728,12.021-2.448c4.823-0.792,10.729-1.368,16.199-0.576
	c1.597,0.235,3.112,0.581,4.539,1.037c1.183,0.185,2.342,0.343,3.498,0.651c0.871,0.232,2.039,0.539,2.745-0.225
	c0.45-0.487,0.495-1.241,0.703-1.841L1161.603,39.895z"/>
</svg>
