<?xml version="1.0" encoding="utf-8"?>
<!-- Generator: Adobe Illustrator 16.0.0, SVG Export Plug-In . SVG Version: 6.00 Build 0)  -->
<!DOCTYPE svg PUBLIC "-//W3C//DTD SVG 1.1//EN" "http://www.w3.org/Graphics/SVG/1.1/DTD/svg11.dtd">
<svg version="1.1" id="Layer_1" xmlns="http://www.w3.org/2000/svg" xmlns:xlink="http://www.w3.org/1999/xlink" x="0px" y="0px"
	 width="2829.506px" height="1258.426px" viewBox="0 0 2829.506 1258.426" enable-background="new 0 0 2829.506 1258.426"
	 xml:space="preserve">
<path fill="none" stroke="#000001" stroke-linejoin="round" stroke-miterlimit="10" d="M1248.506,243.234
	c-3.718,0-6.729-3.016-6.729-6.732c0-3.719,3.014-6.732,6.729-6.732c3.721,0,6.733,3.014,6.733,6.732
	C1255.239,240.218,1252.226,243.234,1248.506,243.234z M1305.077,243.234c-3.719,0-6.73-3.016-6.73-6.732
	c0-3.719,3.016-6.732,6.73-6.732s6.73,3.014,6.73,6.732C1311.811,240.218,1308.797,243.234,1305.077,243.234z M1305.077,191.233
	c-3.719,0-6.73-3.014-6.73-6.732s3.016-6.732,6.73-6.732s6.73,3.014,6.73,6.732S1308.797,191.233,1305.077,191.233z
	 M1361.646,243.234c-3.72,0-6.731-3.016-6.731-6.732c0-3.719,3.016-6.732,6.731-6.732c3.717,0,6.729,3.014,6.729,6.732
	C1368.381,240.218,1365.366,243.234,1361.646,243.234z M1361.646,191.233c-3.72,0-6.731-3.014-6.731-6.732s3.016-6.732,6.731-6.732
	c3.717,0,6.729,3.014,6.729,6.732S1365.366,191.233,1361.646,191.233z M1418.217,243.234c-3.72,0-6.729-3.016-6.729-6.732
	c0-3.719,3.014-6.732,6.729-6.732c3.719,0,6.731,3.014,6.731,6.732C1424.95,240.218,1421.938,243.234,1418.217,243.234z
	 M1418.217,191.233c-3.72,0-6.729-3.014-6.729-6.732s3.014-6.732,6.729-6.732c3.719,0,6.731,3.014,6.731,6.732
	S1421.938,191.233,1418.217,191.233z M1418.217,139.233c-3.72,0-6.729-3.014-6.729-6.732s3.014-6.732,6.729-6.732
	c3.719,0,6.731,3.014,6.731,6.732C1424.948,136.219,1421.938,139.233,1418.217,139.233z M1474.788,295.234
	c-3.719,0-6.73-3.016-6.73-6.732c0-3.719,3.016-6.732,6.73-6.732s6.73,3.014,6.73,6.732
	C1481.521,292.219,1478.508,295.234,1474.788,295.234z M1474.788,243.234c-3.719,0-6.73-3.016-6.73-6.732
	c0-3.719,3.016-6.732,6.73-6.732s6.73,3.014,6.73,6.732C1481.521,240.218,1478.508,243.234,1474.788,243.234z M1474.788,191.233
	c-3.719,0-6.73-3.014-6.73-6.732s3.016-6.732,6.73-6.732s6.73,3.014,6.73,6.732S1478.508,191.233,1474.788,191.233z
	 M1474.788,139.233c-3.719,0-6.73-3.014-6.73-6.732s3.016-6.732,6.73-6.732s6.73,3.014,6.73,6.732
	C1481.519,136.219,1478.508,139.233,1474.788,139.233z M1474.788,87.233c-3.719,0-6.73-3.014-6.73-6.732s3.016-6.732,6.73-6.732
	s6.73,3.014,6.73,6.732S1478.508,87.233,1474.788,87.233z M1531.358,295.234c-3.721,0-6.732-3.016-6.732-6.732
	c0-3.719,3.016-6.732,6.732-6.732c3.716,0,6.729,3.014,6.729,6.732C1538.09,292.219,1535.077,295.234,1531.358,295.234z
	 M1531.358,243.234c-3.721,0-6.732-3.016-6.732-6.732c0-3.719,3.016-6.732,6.732-6.732c3.716,0,6.729,3.014,6.729,6.732
	C1538.09,240.218,1535.077,243.234,1531.358,243.234z M1531.358,191.233c-3.721,0-6.732-3.014-6.732-6.732s3.016-6.732,6.732-6.732
	c3.716,0,6.729,3.014,6.729,6.732S1535.077,191.233,1531.358,191.233z M1531.358,139.233c-3.721,0-6.732-3.014-6.732-6.732
	s3.016-6.732,6.732-6.732c3.716,0,6.729,3.014,6.729,6.732C1538.087,136.219,1535.077,139.233,1531.358,139.233z M1531.358,87.233
	c-3.721,0-6.732-3.014-6.732-6.732s3.016-6.732,6.732-6.732c3.716,0,6.729,3.014,6.729,6.732S1535.077,87.233,1531.358,87.233z
	 M1531.358,35.233c-3.721,0-6.732-3.014-6.732-6.732s3.016-6.732,6.732-6.732c3.716,0,6.729,3.014,6.729,6.732
	S1535.077,35.233,1531.358,35.233z M1587.929,295.234c-3.721,0-6.73-3.016-6.73-6.732c0-3.719,3.014-6.732,6.73-6.732
	s6.73,3.014,6.73,6.732C1594.661,292.219,1591.646,295.234,1587.929,295.234z M1587.929,243.234c-3.721,0-6.73-3.016-6.73-6.732
	c0-3.719,3.014-6.732,6.73-6.732s6.73,3.014,6.73,6.732C1594.661,240.218,1591.646,243.234,1587.929,243.234z M1587.929,191.233
	c-3.721,0-6.73-3.014-6.73-6.732s3.014-6.732,6.73-6.732s6.73,3.014,6.73,6.732S1591.646,191.233,1587.929,191.233z
	 M1587.929,139.233c-3.721,0-6.73-3.014-6.73-6.732s3.014-6.732,6.73-6.732s6.73,3.014,6.73,6.732
	C1594.659,136.219,1591.646,139.233,1587.929,139.233z M1587.929,87.233c-3.721,0-6.73-3.014-6.73-6.732s3.014-6.732,6.73-6.732
	s6.73,3.014,6.73,6.732S1591.646,87.233,1587.929,87.233z M1644.499,295.234c-3.719,0-6.729-3.016-6.729-6.732
	c0-3.719,3.015-6.732,6.729-6.732s6.732,3.014,6.732,6.732C1651.23,292.219,1648.217,295.234,1644.499,295.234z M1644.499,243.234
	c-3.719,0-6.729-3.016-6.729-6.732c0-3.719,3.015-6.732,6.729-6.732s6.732,3.014,6.732,6.732
	C1651.23,240.218,1648.217,243.234,1644.499,243.234z M1644.499,191.233c-3.719,0-6.729-3.014-6.729-6.732s3.015-6.732,6.729-6.732
	s6.732,3.014,6.732,6.732S1648.217,191.233,1644.499,191.233z M1644.499,139.233c-3.719,0-6.729-3.014-6.729-6.732
	s3.015-6.732,6.729-6.732s6.732,3.014,6.732,6.732C1651.231,136.219,1648.217,139.233,1644.499,139.233z M1644.499,87.233
	c-3.719,0-6.729-3.014-6.729-6.732s3.015-6.732,6.729-6.732s6.732,3.014,6.732,6.732S1648.217,87.233,1644.499,87.233z
	 M1701.069,295.234c-3.721,0-6.732-3.016-6.732-6.732c0-3.719,3.016-6.732,6.732-6.732c3.716,0,6.73,3.014,6.73,6.732
	C1707.801,292.219,1704.788,295.234,1701.069,295.234z M1701.069,243.234c-3.721,0-6.732-3.016-6.732-6.732
	c0-3.719,3.016-6.732,6.732-6.732c3.716,0,6.73,3.014,6.73,6.732C1707.801,240.218,1704.788,243.234,1701.069,243.234z
	 M1701.069,191.233c-3.721,0-6.732-3.014-6.732-6.732s3.016-6.732,6.732-6.732c3.716,0,6.73,3.014,6.73,6.732
	S1704.788,191.233,1701.069,191.233z M1701.069,139.233c-3.721,0-6.732-3.014-6.732-6.732s3.016-6.732,6.732-6.732
	c3.716,0,6.73,3.014,6.73,6.732C1707.8,136.219,1704.788,139.233,1701.069,139.233z M1701.069,87.233
	c-3.721,0-6.732-3.014-6.732-6.732s3.016-6.732,6.732-6.732c3.716,0,6.73,3.014,6.73,6.732S1704.788,87.233,1701.069,87.233z
	 M1757.64,295.234c-3.721,0-6.73-3.016-6.73-6.732c0-3.719,3.014-6.732,6.73-6.732c3.72,0,6.73,3.014,6.73,6.732
	C1764.372,292.219,1761.358,295.234,1757.64,295.234z M1757.64,243.234c-3.721,0-6.73-3.016-6.73-6.732
	c0-3.719,3.014-6.732,6.73-6.732c3.72,0,6.73,3.014,6.73,6.732C1764.372,240.218,1761.358,243.234,1757.64,243.234z
	 M1757.64,191.233c-3.721,0-6.73-3.014-6.73-6.732s3.014-6.732,6.73-6.732c3.72,0,6.73,3.014,6.73,6.732
	S1761.358,191.233,1757.64,191.233z M1757.64,139.233c-3.721,0-6.73-3.014-6.73-6.732s3.014-6.732,6.73-6.732
	c3.72,0,6.73,3.014,6.73,6.732C1764.37,136.219,1761.358,139.233,1757.64,139.233z M1757.64,87.233c-3.721,0-6.73-3.014-6.73-6.732
	s3.014-6.732,6.73-6.732c3.72,0,6.73,3.014,6.73,6.732S1761.358,87.233,1757.64,87.233z M1814.21,295.234
	c-3.719,0-6.729-3.016-6.729-6.732c0-3.719,3.015-6.732,6.729-6.732c3.72,0,6.732,3.014,6.732,6.732
	C1820.942,292.219,1817.929,295.234,1814.21,295.234z M1814.21,243.234c-3.719,0-6.729-3.016-6.729-6.732
	c0-3.719,3.015-6.732,6.729-6.732c3.72,0,6.732,3.014,6.732,6.732C1820.942,240.218,1817.929,243.234,1814.21,243.234z
	 M1814.21,191.233c-3.719,0-6.729-3.014-6.729-6.732s3.015-6.732,6.729-6.732c3.72,0,6.732,3.014,6.732,6.732
	S1817.929,191.233,1814.21,191.233z M1814.21,139.233c-3.719,0-6.729-3.014-6.729-6.732s3.015-6.732,6.729-6.732
	c3.72,0,6.732,3.014,6.732,6.732C1820.942,136.219,1817.929,139.233,1814.21,139.233z M1814.21,87.233
	c-3.719,0-6.729-3.014-6.729-6.732s3.015-6.732,6.729-6.732c3.72,0,6.732,3.014,6.732,6.732S1817.929,87.233,1814.21,87.233z
	 M1870.78,295.234c-3.72,0-6.732-3.016-6.732-6.732c0-3.719,3.017-6.732,6.732-6.732c3.715,0,6.73,3.014,6.73,6.732
	C1877.513,292.219,1874.499,295.234,1870.78,295.234z M1870.78,243.234c-3.72,0-6.732-3.016-6.732-6.732
	c0-3.719,3.017-6.732,6.732-6.732c3.715,0,6.73,3.014,6.73,6.732C1877.513,240.218,1874.499,243.234,1870.78,243.234z
	 M1870.78,191.233c-3.72,0-6.732-3.014-6.732-6.732s3.017-6.732,6.732-6.732c3.715,0,6.73,3.014,6.73,6.732
	S1874.499,191.233,1870.78,191.233z M1870.78,139.233c-3.72,0-6.732-3.014-6.732-6.732s3.017-6.732,6.732-6.732
	c3.715,0,6.73,3.014,6.73,6.732C1877.511,136.219,1874.499,139.233,1870.78,139.233z M1870.78,87.233
	c-3.72,0-6.732-3.014-6.732-6.732s3.017-6.732,6.732-6.732c3.715,0,6.73,3.014,6.73,6.732S1874.499,87.233,1870.78,87.233z
	 M1870.78,35.233c-3.72,0-6.732-3.014-6.732-6.732s3.017-6.732,6.732-6.732c3.715,0,6.73,3.014,6.73,6.732
	S1874.499,35.233,1870.78,35.233z M1927.35,347.234c-3.719,0-6.73-3.017-6.73-6.732c0-3.719,3.014-6.732,6.73-6.732
	c3.72,0,6.73,3.015,6.73,6.732C1934.082,344.219,1931.068,347.234,1927.35,347.234z M1927.35,295.234
	c-3.719,0-6.73-3.016-6.73-6.732c0-3.719,3.014-6.732,6.73-6.732c3.72,0,6.73,3.014,6.73,6.732
	C1934.082,292.219,1931.068,295.234,1927.35,295.234z M1927.35,243.234c-3.719,0-6.73-3.016-6.73-6.732
	c0-3.719,3.014-6.732,6.73-6.732c3.72,0,6.73,3.014,6.73,6.732C1934.082,240.218,1931.068,243.234,1927.35,243.234z
	 M1927.35,191.233c-3.719,0-6.73-3.014-6.73-6.732s3.014-6.732,6.73-6.732c3.72,0,6.73,3.014,6.73,6.732
	S1931.068,191.233,1927.35,191.233z M1927.35,139.233c-3.719,0-6.73-3.014-6.73-6.732s3.014-6.732,6.73-6.732
	c3.72,0,6.73,3.014,6.73,6.732C1934.08,136.219,1931.068,139.233,1927.35,139.233z M1927.35,87.233c-3.719,0-6.73-3.014-6.73-6.732
	s3.014-6.732,6.73-6.732c3.72,0,6.73,3.014,6.73,6.732S1931.068,87.233,1927.35,87.233z M1927.35,35.233
	c-3.719,0-6.73-3.014-6.73-6.732s3.014-6.732,6.73-6.732c3.72,0,6.73,3.014,6.73,6.732S1931.068,35.233,1927.35,35.233z
	 M1983.92,347.234c-3.719,0-6.729-3.017-6.729-6.732c0-3.719,3.014-6.732,6.729-6.732c3.72,0,6.732,3.015,6.732,6.732
	C1990.652,344.219,1987.639,347.234,1983.92,347.234z M1983.92,295.234c-3.719,0-6.729-3.016-6.729-6.732
	c0-3.719,3.014-6.732,6.729-6.732c3.72,0,6.732,3.014,6.732,6.732C1990.652,292.219,1987.639,295.234,1983.92,295.234z
	 M1983.92,243.234c-3.719,0-6.729-3.016-6.729-6.732c0-3.719,3.014-6.732,6.729-6.732c3.72,0,6.732,3.014,6.732,6.732
	C1990.652,240.218,1987.639,243.234,1983.92,243.234z M1983.92,191.233c-3.719,0-6.729-3.014-6.729-6.732s3.014-6.732,6.729-6.732
	c3.72,0,6.732,3.014,6.732,6.732S1987.639,191.233,1983.92,191.233z M1983.92,139.233c-3.719,0-6.729-3.014-6.729-6.732
	s3.014-6.732,6.729-6.732c3.72,0,6.732,3.014,6.732,6.732C1990.652,136.219,1987.639,139.233,1983.92,139.233z M1983.92,87.233
	c-3.719,0-6.729-3.014-6.729-6.732s3.014-6.732,6.729-6.732c3.72,0,6.732,3.014,6.732,6.732S1987.639,87.233,1983.92,87.233z
	 M2040.49,347.234c-3.719,0-6.732-3.017-6.732-6.732c0-3.719,3.016-6.732,6.732-6.732c3.716,0,6.73,3.015,6.73,6.732
	C2047.223,344.219,2044.209,347.234,2040.49,347.234z M2040.49,295.234c-3.719,0-6.732-3.016-6.732-6.732
	c0-3.719,3.016-6.732,6.732-6.732c3.716,0,6.73,3.014,6.73,6.732C2047.223,292.219,2044.209,295.234,2040.49,295.234z
	 M2040.49,243.234c-3.719,0-6.732-3.016-6.732-6.732c0-3.719,3.016-6.732,6.732-6.732c3.716,0,6.73,3.014,6.73,6.732
	C2047.223,240.218,2044.209,243.234,2040.49,243.234z M2040.49,191.233c-3.719,0-6.732-3.014-6.732-6.732s3.016-6.732,6.732-6.732
	c3.716,0,6.73,3.014,6.73,6.732S2044.209,191.233,2040.49,191.233z M2040.49,139.233c-3.719,0-6.732-3.014-6.732-6.732
	s3.016-6.732,6.732-6.732c3.716,0,6.73,3.014,6.73,6.732C2047.221,136.219,2044.209,139.233,2040.49,139.233z M2040.49,87.233
	c-3.719,0-6.732-3.014-6.732-6.732s3.016-6.732,6.732-6.732c3.716,0,6.73,3.014,6.73,6.732S2044.209,87.233,2040.49,87.233z
	 M2097.061,347.234c-3.719,0-6.73-3.017-6.73-6.732c0-3.719,3.014-6.732,6.73-6.732c3.72,0,6.73,3.015,6.73,6.732
	C2103.793,344.219,2100.779,347.234,2097.061,347.234z M2097.061,295.234c-3.719,0-6.73-3.016-6.73-6.732
	c0-3.719,3.014-6.732,6.73-6.732c3.72,0,6.73,3.014,6.73,6.732C2103.793,292.219,2100.779,295.234,2097.061,295.234z
	 M2097.061,243.234c-3.719,0-6.73-3.016-6.73-6.732c0-3.719,3.014-6.732,6.73-6.732c3.72,0,6.73,3.014,6.73,6.732
	C2103.793,240.218,2100.779,243.234,2097.061,243.234z M2097.061,191.233c-3.719,0-6.73-3.014-6.73-6.732s3.014-6.732,6.73-6.732
	c3.72,0,6.73,3.014,6.73,6.732S2100.779,191.233,2097.061,191.233z M2097.061,139.233c-3.719,0-6.73-3.014-6.73-6.732
	s3.014-6.732,6.73-6.732c3.72,0,6.73,3.014,6.73,6.732C2103.791,136.219,2100.779,139.233,2097.061,139.233z M2097.061,87.233
	c-3.719,0-6.73-3.014-6.73-6.732s3.014-6.732,6.73-6.732c3.72,0,6.73,3.014,6.73,6.732S2100.779,87.233,2097.061,87.233z
	 M2153.631,347.234c-3.719,0-6.729-3.017-6.729-6.732c0-3.719,3.014-6.732,6.729-6.732c3.721,0,6.732,3.015,6.732,6.732
	C2160.363,344.219,2157.35,347.234,2153.631,347.234z M2153.631,295.234c-3.719,0-6.729-3.016-6.729-6.732
	c0-3.719,3.014-6.732,6.729-6.732c3.721,0,6.732,3.014,6.732,6.732C2160.363,292.219,2157.35,295.234,2153.631,295.234z
	 M2153.631,243.234c-3.719,0-6.729-3.016-6.729-6.732c0-3.719,3.014-6.732,6.729-6.732c3.721,0,6.732,3.014,6.732,6.732
	C2160.363,240.218,2157.35,243.234,2153.631,243.234z M2153.631,191.233c-3.719,0-6.729-3.014-6.729-6.732s3.014-6.732,6.729-6.732
	c3.721,0,6.732,3.014,6.732,6.732S2157.35,191.233,2153.631,191.233z M2153.631,139.233c-3.719,0-6.729-3.014-6.729-6.732
	s3.014-6.732,6.729-6.732c3.721,0,6.732,3.014,6.732,6.732C2160.363,136.219,2157.35,139.233,2153.631,139.233z M2153.631,87.233
	c-3.719,0-6.729-3.014-6.729-6.732s3.014-6.732,6.729-6.732c3.721,0,6.732,3.014,6.732,6.732S2157.35,87.233,2153.631,87.233z
	 M2210.201,347.234c-3.719,0-6.73-3.017-6.73-6.732c0-3.719,3.014-6.732,6.73-6.732c3.719,0,6.73,3.015,6.73,6.732
	C2216.934,344.219,2213.92,347.234,2210.201,347.234z M2210.201,295.234c-3.719,0-6.73-3.016-6.73-6.732
	c0-3.719,3.014-6.732,6.73-6.732c3.719,0,6.73,3.014,6.73,6.732C2216.934,292.219,2213.92,295.234,2210.201,295.234z
	 M2210.201,243.234c-3.719,0-6.73-3.016-6.73-6.732c0-3.719,3.014-6.732,6.73-6.732c3.719,0,6.73,3.014,6.73,6.732
	C2216.934,240.218,2213.92,243.234,2210.201,243.234z M2210.201,191.233c-3.719,0-6.73-3.014-6.73-6.732s3.014-6.732,6.73-6.732
	c3.719,0,6.73,3.014,6.73,6.732S2213.92,191.233,2210.201,191.233z M2210.201,139.233c-3.719,0-6.73-3.014-6.73-6.732
	s3.014-6.732,6.73-6.732c3.719,0,6.73,3.014,6.73,6.732C2216.932,136.219,2213.92,139.233,2210.201,139.233z M2210.201,87.233
	c-3.719,0-6.73-3.014-6.73-6.732s3.014-6.732,6.73-6.732c3.719,0,6.73,3.014,6.73,6.732S2213.92,87.233,2210.201,87.233z
	 M2266.771,347.234c-3.721,0-6.732-3.017-6.732-6.732c0-3.719,3.014-6.732,6.732-6.732c3.718,0,6.729,3.015,6.729,6.732
	C2273.504,344.219,2270.49,347.234,2266.771,347.234z M2266.771,295.234c-3.721,0-6.732-3.016-6.732-6.732
	c0-3.719,3.014-6.732,6.732-6.732c3.718,0,6.729,3.014,6.729,6.732C2273.504,292.219,2270.49,295.234,2266.771,295.234z
	 M2266.771,243.234c-3.721,0-6.732-3.016-6.732-6.732c0-3.719,3.014-6.732,6.732-6.732c3.718,0,6.729,3.014,6.729,6.732
	C2273.504,240.218,2270.49,243.234,2266.771,243.234z M2266.771,191.233c-3.721,0-6.732-3.014-6.732-6.732s3.014-6.732,6.732-6.732
	c3.718,0,6.729,3.014,6.729,6.732S2270.49,191.233,2266.771,191.233z M2266.771,139.233c-3.721,0-6.732-3.014-6.732-6.732
	s3.014-6.732,6.732-6.732c3.718,0,6.729,3.014,6.729,6.732C2273.5,136.219,2270.49,139.233,2266.771,139.233z M2266.771,87.233
	c-3.721,0-6.732-3.014-6.732-6.732s3.014-6.732,6.732-6.732c3.718,0,6.729,3.014,6.729,6.732S2270.49,87.233,2266.771,87.233z
	 M2323.342,347.234c-3.721,0-6.73-3.017-6.73-6.732c0-3.719,3.014-6.732,6.73-6.732c3.719,0,6.73,3.015,6.73,6.732
	C2330.074,344.219,2327.061,347.234,2323.342,347.234z M2323.342,295.234c-3.721,0-6.73-3.016-6.73-6.732
	c0-3.719,3.014-6.732,6.73-6.732c3.719,0,6.73,3.014,6.73,6.732C2330.074,292.219,2327.061,295.234,2323.342,295.234z
	 M2323.342,243.234c-3.721,0-6.73-3.016-6.73-6.732c0-3.719,3.014-6.732,6.73-6.732c3.719,0,6.73,3.014,6.73,6.732
	C2330.074,240.218,2327.061,243.234,2323.342,243.234z M2323.342,191.233c-3.721,0-6.73-3.014-6.73-6.732s3.014-6.732,6.73-6.732
	c3.719,0,6.73,3.014,6.73,6.732S2327.061,191.233,2323.342,191.233z M2323.342,139.233c-3.721,0-6.73-3.014-6.73-6.732
	s3.014-6.732,6.73-6.732c3.719,0,6.73,3.014,6.73,6.732C2330.072,136.219,2327.061,139.233,2323.342,139.233z M2379.912,347.234
	c-3.719,0-6.73-3.017-6.73-6.732c0-3.719,3.016-6.732,6.73-6.732c3.719,0,6.732,3.015,6.732,6.732
	C2386.645,344.219,2383.631,347.234,2379.912,347.234z M2379.912,295.234c-3.719,0-6.73-3.016-6.73-6.732
	c0-3.719,3.016-6.732,6.73-6.732c3.719,0,6.732,3.014,6.732,6.732C2386.645,292.219,2383.631,295.234,2379.912,295.234z
	 M2379.912,243.234c-3.719,0-6.73-3.016-6.73-6.732c0-3.719,3.016-6.732,6.73-6.732c3.719,0,6.732,3.014,6.732,6.732
	C2386.645,240.218,2383.631,243.234,2379.912,243.234z M2379.912,191.233c-3.719,0-6.73-3.014-6.73-6.732s3.016-6.732,6.73-6.732
	c3.719,0,6.732,3.014,6.732,6.732S2383.631,191.233,2379.912,191.233z M2379.912,139.233c-3.719,0-6.73-3.014-6.73-6.732
	s3.016-6.732,6.73-6.732c3.719,0,6.732,3.014,6.732,6.732C2386.645,136.219,2383.631,139.233,2379.912,139.233z M2436.482,399.234
	c-3.721,0-6.732-3.02-6.732-6.732c0-3.719,3.016-6.732,6.732-6.732c3.715,0,6.73,3.015,6.73,6.732
	C2443.215,396.219,2440.201,399.234,2436.482,399.234z M2436.482,347.234c-3.721,0-6.732-3.017-6.732-6.732
	c0-3.719,3.016-6.732,6.732-6.732c3.715,0,6.73,3.015,6.73,6.732C2443.215,344.219,2440.201,347.234,2436.482,347.234z
	 M2436.482,295.234c-3.721,0-6.732-3.016-6.732-6.732c0-3.719,3.016-6.732,6.732-6.732c3.715,0,6.73,3.014,6.73,6.732
	C2443.215,292.219,2440.201,295.234,2436.482,295.234z M2436.482,243.234c-3.721,0-6.732-3.016-6.732-6.732
	c0-3.719,3.016-6.732,6.732-6.732c3.715,0,6.73,3.014,6.73,6.732C2443.215,240.218,2440.201,243.234,2436.482,243.234z
	 M2436.482,191.233c-3.721,0-6.732-3.014-6.732-6.732s3.016-6.732,6.732-6.732c3.715,0,6.73,3.014,6.73,6.732
	S2440.201,191.233,2436.482,191.233z M2436.482,139.233c-3.721,0-6.732-3.014-6.732-6.732s3.016-6.732,6.732-6.732
	c3.715,0,6.73,3.014,6.73,6.732C2443.213,136.219,2440.201,139.233,2436.482,139.233z M2606.193,125.768
	c3.719,0,6.73,3.014,6.73,6.732s-3.016,6.732-6.73,6.732s-6.732-3.014-6.732-6.732S2602.475,125.768,2606.193,125.768z
	 M2606.193,177.768c3.719,0,6.73,3.014,6.73,6.732s-3.016,6.732-6.73,6.732s-6.732-3.014-6.732-6.732
	S2602.475,177.768,2606.193,177.768z M2549.623,125.768c3.719,0,6.732,3.014,6.732,6.732s-3.016,6.732-6.732,6.732
	s-6.73-3.014-6.73-6.732S2545.904,125.768,2549.623,125.768z M2549.623,177.768c3.719,0,6.732,3.014,6.732,6.732
	s-3.016,6.732-6.732,6.732s-6.73-3.014-6.73-6.732S2545.904,177.768,2549.623,177.768z M2549.623,229.769
	c3.719,0,6.732,3.014,6.732,6.732c0,3.717-3.016,6.732-6.732,6.732s-6.73-3.016-6.73-6.732
	C2542.891,232.783,2545.904,229.769,2549.623,229.769z M2493.053,125.768c3.719,0,6.73,3.014,6.73,6.732s-3.014,6.732-6.73,6.732
	c-3.72,0-6.73-3.014-6.73-6.732S2489.334,125.768,2493.053,125.768z M2493.053,177.768c3.719,0,6.73,3.014,6.73,6.732
	s-3.014,6.732-6.73,6.732c-3.72,0-6.73-3.014-6.73-6.732S2489.334,177.768,2493.053,177.768z M2493.053,229.769
	c3.719,0,6.73,3.014,6.73,6.732c0,3.717-3.014,6.732-6.73,6.732c-3.72,0-6.73-3.016-6.73-6.732
	C2486.32,232.783,2489.334,229.769,2493.053,229.769z M2493.053,281.77c3.719,0,6.73,3.014,6.73,6.732
	c0,3.717-3.014,6.732-6.73,6.732c-3.72,0-6.73-3.016-6.73-6.732C2486.32,284.783,2489.334,281.77,2493.053,281.77z M2486.32,340.502
	c0-3.719,3.014-6.732,6.73-6.732s6.73,3.015,6.73,6.732c0,3.717-3.016,6.732-6.73,6.732
	C2489.334,347.234,2486.32,344.219,2486.32,340.502z M2580.573,606.881c-65.076-43.553-120.79-107.006-86.22-188.174
	c0,0,161.763-270.177,170.23-282.59c8.473-12.416-8.423-16.737-8.423-16.737S2049.335,26.942,1962.82,13.606
	c-86.517-13.335-234.62,18.785-336.279,30.013c-53.551,5.915-62.051-35.401-62.051-35.401s-5.257-9-11.564-4.012
	C1546.617,9.191,1519.854,0,1519.854,0s-333.058,237.615-352.577,252.697c-19.521,15.086-14.778,21.111-14.778,21.111
	c1.051,2.72-1.711,4.089-3.787,5.005c-7.835,0.934-22.92,4.639-43.504,18.401l-321.06,230.281c0,0-15.01,10.123-11.813,22.354
	c1.591,6.088,3.175,13.646,6.885,20.401c1.552,6.428,2.582,13.325,0.504,19.76l-11.719,32.708c0,0-19.006-7.878-22.648-10.021
	c-3.65-2.146-8.117-1.729-8.117-1.729s-18.368,4.029-28.625,5.952c-10.264,1.924-10.764,4.279-10.764,4.279L680.7,641.9
	l-30.438-22.007c-90.634-9.071-491.345-85.484-522.555-91.479c-6.295-1.21-12.104-1.048-17.461,0.092
	c-18.251,3.882-36.271,9.214-54.922,10.899c-8.234,0.744-15.973-0.941-24.144-0.941C13.959,538.465,0,552.424,0,569.645
	c0,17.222,13.96,31.182,31.181,31.182c5.547,0,11.142-1.521,15.88-4.415c3.857-2.356,7.746-3.981,11.655-4.928
	c9.583-2.319,19.292-0.559,28.981,4.528c40.18,21.096,164.999,87.436,236.81,134.693c86.433,56.879,168.551,117.367,192.479,132.646
	c23.926,15.273,50.058-3.799,50.058-3.799c137.692-56.512,320.542,0.479,375.687,12.771c55.144,12.289,79.469-14.246,79.469-14.246
	s41.001-49.043,64.359-76.352c23.354-27.311,83.86-72.199,87.918-75.305c1.528-1.167,2.006-2.316,2.009-3.294
	c0-3.329,1.828-6.022,4.088-6.021c1.844-0.494,4.433-1.504,7.698-3.548c7.104-4.443,95.654-97.642,865.03-50.027
	c0,0,3.354-6.201-9.771-12.336c-13.127-6.134-326.499-156.429-326.499-156.429l124.736,21.04c0,0,315.553,131.438,434.463,208.469
	c118.906,77.027,384.915,385.904,422.02,520.674l129.23,33.42c-0.004-0.001,5.047,1.899-0.797-15.907
	c-5.846-17.809-168.377-412.223-179.68-530.82c0,0-3.754-63.993-66.433-104.763V606.881z"/>
</svg>
