<?xml version="1.0" encoding="utf-8"?>
<!-- Generator: Adobe Illustrator 16.0.0, SVG Export Plug-In . SVG Version: 6.00 Build 0)  -->
<!DOCTYPE svg PUBLIC "-//W3C//DTD SVG 1.1//EN" "http://www.w3.org/Graphics/SVG/1.1/DTD/svg11.dtd">
<svg version="1.1" id="Layer_1" xmlns="http://www.w3.org/2000/svg" xmlns:xlink="http://www.w3.org/1999/xlink" x="0px" y="0px"
	 width="2767.143px" height="1258.426px" viewBox="0 0 2767.143 1258.426" enable-background="new 0 0 2767.143 1258.426"
	 xml:space="preserve">
<path d="M1112.834,700.355c0,0-369.622-107.78-381.75-111.095c-12.128-3.312-13.724,0.748-13.724,0.748l-11.719,32.708
	c0,0-19.008-7.878-22.65-10.021c-3.649-2.146-8.117-1.729-8.117-1.729s-18.367,4.029-28.625,5.952
	c-10.262,1.924-10.762,4.279-10.762,4.279l-17.15,20.702l-30.438-22.008c-90.635-9.07-491.346-85.483-522.556-91.479
	c-31.208-6.001-50.483,21.751-61.885,34.933c-11.401,13.188,9.029,25.955,9.029,25.955s163.224,84.524,249.654,141.403
	s168.551,117.367,192.478,132.646c23.927,15.273,50.061-3.799,50.061-3.799c137.689-56.512,320.542,0.479,375.685,12.771
	c55.145,12.289,79.47-14.246,79.47-14.246s41-49.043,64.359-76.353c23.354-27.311,83.861-72.198,87.919-75.305
	C1116.166,703.324,1112.834,700.355,1112.834,700.355z M2764.322,1242.461c-5.845-17.809-168.376-412.223-179.679-530.82
	c0,0-5.76-98.186-122.135-128.802c-116.379-30.605-377.498-85.896-377.498-85.896s-71.594-113.564-143.111-121.85l-849.451-96.513
	c0,0-18.541-2.134-49.604,18.634L721.783,527.495c0,0-15.008,10.123-11.812,22.354c3.196,12.231,6.362,30.394,26.793,36.055
	l378.14,111.653c0,0,3.897,0.451,11.005-3.998c7.104-4.442,95.656-97.642,865.032-50.026c0,0,3.354-6.201-9.771-12.336
	c-13.127-6.134-326.5-156.43-326.5-156.43l124.735,21.04c0,0,315.553,131.438,434.463,208.47
	c118.907,77.026,384.916,385.903,422.021,520.674l129.229,33.42C2765.115,1258.367,2770.166,1260.268,2764.322,1242.461z
	 M2431.99,418.707c0,0,161.762-270.177,170.23-282.59c8.473-12.416-8.426-16.737-8.426-16.737s-606.824-92.438-693.34-105.774
	c-86.516-13.335-234.621,18.785-336.279,30.013c-53.552,5.915-62.051-35.401-62.051-35.401s-5.257-9-11.562-4.012
	C1484.253,9.19,1457.49,0,1457.49,0s-333.058,237.615-352.579,252.697c-19.521,15.086-14.777,21.111-14.777,21.111l1328.188,146.29
	C2431.573,422.755,2431.99,418.707,2431.99,418.707z M1186.143,243.233c-3.72,0-6.729-3.016-6.729-6.732
	c0-3.719,3.016-6.732,6.729-6.732c3.721,0,6.73,3.014,6.73,6.732C1192.875,240.217,1189.863,243.233,1186.143,243.233z
	 M1242.713,243.233c-3.72,0-6.729-3.016-6.729-6.732c0-3.719,3.015-6.732,6.729-6.732c3.718,0,6.731,3.014,6.731,6.732
	C1249.447,240.217,1246.434,243.233,1242.713,243.233z M1242.713,191.232c-3.72,0-6.729-3.014-6.729-6.732s3.015-6.732,6.729-6.732
	c3.718,0,6.731,3.014,6.731,6.732S1246.434,191.232,1242.713,191.232z M1299.283,243.233c-3.719,0-6.731-3.016-6.731-6.732
	c0-3.719,3.018-6.732,6.731-6.732c3.715,0,6.73,3.014,6.73,6.732C1306.018,240.217,1303.002,243.233,1299.283,243.233z
	 M1299.283,191.232c-3.719,0-6.731-3.014-6.731-6.732s3.018-6.732,6.731-6.732c3.715,0,6.73,3.014,6.73,6.732
	S1303.002,191.232,1299.283,191.232z M1355.854,243.233c-3.721,0-6.73-3.016-6.73-6.732c0-3.719,3.016-6.732,6.73-6.732
	c3.719,0,6.729,3.014,6.729,6.732C1362.586,240.217,1359.573,243.233,1355.854,243.233z M1355.854,191.232
	c-3.721,0-6.73-3.014-6.73-6.732s3.016-6.732,6.73-6.732c3.719,0,6.729,3.014,6.729,6.732S1359.573,191.232,1355.854,191.232z
	 M1355.854,139.232c-3.721,0-6.73-3.014-6.73-6.732s3.016-6.732,6.73-6.732c3.719,0,6.729,3.014,6.729,6.732
	S1359.573,139.232,1355.854,139.232z M1412.424,295.233c-3.72,0-6.729-3.016-6.729-6.732c0-3.719,3.015-6.732,6.729-6.732
	c3.718,0,6.731,3.014,6.731,6.732C1419.157,292.218,1416.145,295.233,1412.424,295.233z M1412.424,243.233
	c-3.72,0-6.729-3.016-6.729-6.732c0-3.719,3.015-6.732,6.729-6.732c3.718,0,6.731,3.014,6.731,6.732
	C1419.157,240.217,1416.145,243.233,1412.424,243.233z M1412.424,191.232c-3.72,0-6.729-3.014-6.729-6.732s3.015-6.732,6.729-6.732
	c3.718,0,6.731,3.014,6.731,6.732S1416.145,191.232,1412.424,191.232z M1412.424,139.232c-3.72,0-6.729-3.014-6.729-6.732
	s3.015-6.732,6.729-6.732c3.718,0,6.731,3.014,6.731,6.732S1416.145,139.232,1412.424,139.232z M1412.424,87.232
	c-3.72,0-6.729-3.014-6.729-6.732s3.015-6.732,6.729-6.732c3.718,0,6.731,3.014,6.731,6.732S1416.145,87.232,1412.424,87.232z
	 M1468.994,295.233c-3.719,0-6.731-3.016-6.731-6.732c0-3.719,3.018-6.732,6.731-6.732c3.715,0,6.73,3.014,6.73,6.732
	C1475.727,292.218,1472.713,295.233,1468.994,295.233z M1468.994,243.233c-3.719,0-6.731-3.016-6.731-6.732
	c0-3.719,3.018-6.732,6.731-6.732c3.715,0,6.73,3.014,6.73,6.732C1475.727,240.217,1472.713,243.233,1468.994,243.233z
	 M1468.994,191.232c-3.719,0-6.731-3.014-6.731-6.732s3.018-6.732,6.731-6.732c3.715,0,6.73,3.014,6.73,6.732
	S1472.713,191.232,1468.994,191.232z M1468.994,139.232c-3.719,0-6.731-3.014-6.731-6.732s3.018-6.732,6.731-6.732
	c3.715,0,6.73,3.014,6.73,6.732S1472.713,139.232,1468.994,139.232z M1468.994,87.232c-3.719,0-6.731-3.014-6.731-6.732
	s3.018-6.732,6.731-6.732c3.715,0,6.73,3.014,6.73,6.732S1472.713,87.232,1468.994,87.232z M1468.994,35.232
	c-3.719,0-6.731-3.014-6.731-6.732s3.018-6.732,6.731-6.732c3.715,0,6.73,3.014,6.73,6.732S1472.713,35.232,1468.994,35.232z
	 M1525.566,295.233c-3.723,0-6.731-3.016-6.731-6.732c0-3.719,3.015-6.732,6.731-6.732s6.729,3.014,6.729,6.732
	C1532.297,292.218,1529.283,295.233,1525.566,295.233z M1525.566,243.233c-3.723,0-6.731-3.016-6.731-6.732
	c0-3.719,3.015-6.732,6.731-6.732s6.729,3.014,6.729,6.732C1532.297,240.217,1529.283,243.233,1525.566,243.233z M1525.566,191.232
	c-3.723,0-6.731-3.014-6.731-6.732s3.015-6.732,6.731-6.732s6.729,3.014,6.729,6.732S1529.283,191.232,1525.566,191.232z
	 M1525.566,139.232c-3.723,0-6.731-3.014-6.731-6.732s3.015-6.732,6.731-6.732s6.729,3.014,6.729,6.732
	S1529.283,139.232,1525.566,139.232z M1525.566,87.232c-3.723,0-6.731-3.014-6.731-6.732s3.015-6.732,6.731-6.732
	s6.729,3.014,6.729,6.732S1529.283,87.232,1525.566,87.232z M1582.135,295.233c-3.721,0-6.729-3.016-6.729-6.732
	c0-3.719,3.015-6.732,6.729-6.732c3.717,0,6.73,3.014,6.73,6.732C1588.867,292.218,1585.854,295.233,1582.135,295.233z
	 M1582.135,243.233c-3.721,0-6.729-3.016-6.729-6.732c0-3.719,3.015-6.732,6.729-6.732c3.717,0,6.73,3.014,6.73,6.732
	C1588.867,240.217,1585.854,243.233,1582.135,243.233z M1582.135,191.232c-3.721,0-6.729-3.014-6.729-6.732s3.015-6.732,6.729-6.732
	c3.717,0,6.73,3.014,6.73,6.732S1585.854,191.232,1582.135,191.232z M1582.135,139.232c-3.721,0-6.729-3.014-6.729-6.732
	s3.015-6.732,6.729-6.732c3.717,0,6.73,3.014,6.73,6.732S1585.854,139.232,1582.135,139.232z M1582.135,87.232
	c-3.721,0-6.729-3.014-6.729-6.732s3.015-6.732,6.729-6.732c3.717,0,6.73,3.014,6.73,6.732S1585.854,87.232,1582.135,87.232z
	 M1638.705,295.233c-3.719,0-6.731-3.016-6.731-6.732c0-3.719,3.018-6.732,6.731-6.732c3.715,0,6.732,3.014,6.732,6.732
	C1645.438,292.218,1642.424,295.233,1638.705,295.233z M1638.705,243.233c-3.719,0-6.731-3.016-6.731-6.732
	c0-3.719,3.018-6.732,6.731-6.732c3.715,0,6.732,3.014,6.732,6.732C1645.438,240.217,1642.424,243.233,1638.705,243.233z
	 M1638.705,191.232c-3.719,0-6.731-3.014-6.731-6.732s3.018-6.732,6.731-6.732c3.715,0,6.732,3.014,6.732,6.732
	S1642.424,191.232,1638.705,191.232z M1638.705,139.232c-3.719,0-6.731-3.014-6.731-6.732s3.018-6.732,6.731-6.732
	c3.715,0,6.732,3.014,6.732,6.732S1642.424,139.232,1638.705,139.232z M1638.705,87.232c-3.719,0-6.731-3.014-6.731-6.732
	s3.018-6.732,6.731-6.732c3.715,0,6.732,3.014,6.732,6.732S1642.424,87.232,1638.705,87.232z M1695.277,295.233
	c-3.721,0-6.731-3.016-6.731-6.732c0-3.719,3.016-6.732,6.731-6.732s6.729,3.014,6.729,6.732
	C1702.008,292.218,1698.994,295.233,1695.277,295.233z M1695.277,243.233c-3.721,0-6.731-3.016-6.731-6.732
	c0-3.719,3.016-6.732,6.731-6.732s6.729,3.014,6.729,6.732C1702.008,240.217,1698.994,243.233,1695.277,243.233z M1695.277,191.232
	c-3.721,0-6.731-3.014-6.731-6.732s3.016-6.732,6.731-6.732s6.729,3.014,6.729,6.732S1698.994,191.232,1695.277,191.232z
	 M1695.277,139.232c-3.721,0-6.731-3.014-6.731-6.732s3.016-6.732,6.731-6.732s6.729,3.014,6.729,6.732
	S1698.994,139.232,1695.277,139.232z M1695.277,87.232c-3.721,0-6.731-3.014-6.731-6.732s3.016-6.732,6.731-6.732
	s6.729,3.014,6.729,6.732S1698.994,87.232,1695.277,87.232z M1751.846,295.233c-3.721,0-6.729-3.016-6.729-6.732
	c0-3.719,3.015-6.732,6.729-6.732c3.721,0,6.73,3.014,6.73,6.732C1758.578,292.218,1755.566,295.233,1751.846,295.233z
	 M1751.846,243.233c-3.721,0-6.729-3.016-6.729-6.732c0-3.719,3.015-6.732,6.729-6.732c3.721,0,6.73,3.014,6.73,6.732
	C1758.578,240.217,1755.566,243.233,1751.846,243.233z M1751.846,191.232c-3.721,0-6.729-3.014-6.729-6.732s3.015-6.732,6.729-6.732
	c3.721,0,6.73,3.014,6.73,6.732S1755.566,191.232,1751.846,191.232z M1751.846,139.232c-3.721,0-6.729-3.014-6.729-6.732
	s3.015-6.732,6.729-6.732c3.721,0,6.73,3.014,6.73,6.732S1755.566,139.232,1751.846,139.232z M1751.846,87.232
	c-3.721,0-6.729-3.014-6.729-6.732s3.015-6.732,6.729-6.732c3.721,0,6.73,3.014,6.73,6.732S1755.566,87.232,1751.846,87.232z
	 M1808.416,295.233c-3.719,0-6.729-3.016-6.729-6.732c0-3.719,3.016-6.732,6.729-6.732c3.718,0,6.732,3.014,6.732,6.732
	C1815.15,292.218,1812.135,295.233,1808.416,295.233z M1808.416,243.233c-3.719,0-6.729-3.016-6.729-6.732
	c0-3.719,3.016-6.732,6.729-6.732c3.718,0,6.732,3.014,6.732,6.732C1815.15,240.217,1812.135,243.233,1808.416,243.233z
	 M1808.416,191.232c-3.719,0-6.729-3.014-6.729-6.732s3.016-6.732,6.729-6.732c3.718,0,6.732,3.014,6.732,6.732
	S1812.135,191.232,1808.416,191.232z M1808.416,139.232c-3.719,0-6.729-3.014-6.729-6.732s3.016-6.732,6.729-6.732
	c3.718,0,6.732,3.014,6.732,6.732S1812.135,139.232,1808.416,139.232z M1808.416,87.232c-3.719,0-6.729-3.014-6.729-6.732
	s3.016-6.732,6.729-6.732c3.718,0,6.732,3.014,6.732,6.732S1812.135,87.232,1808.416,87.232z M1808.416,35.232
	c-3.719,0-6.729-3.014-6.729-6.732s3.016-6.732,6.729-6.732c3.718,0,6.732,3.014,6.732,6.732S1812.135,35.232,1808.416,35.232z
	 M1864.987,347.233c-3.719,0-6.731-3.016-6.731-6.732c0-3.719,3.016-6.732,6.731-6.732c3.717,0,6.729,3.014,6.729,6.732
	C1871.719,344.218,1868.704,347.233,1864.987,347.233z M1864.987,295.233c-3.719,0-6.731-3.016-6.731-6.732
	c0-3.719,3.016-6.732,6.731-6.732c3.717,0,6.729,3.014,6.729,6.732C1871.719,292.218,1868.704,295.233,1864.987,295.233z
	 M1864.987,243.233c-3.719,0-6.731-3.016-6.731-6.732c0-3.719,3.016-6.732,6.731-6.732c3.717,0,6.729,3.014,6.729,6.732
	C1871.719,240.217,1868.704,243.233,1864.987,243.233z M1864.987,191.232c-3.719,0-6.731-3.014-6.731-6.732s3.016-6.732,6.731-6.732
	c3.717,0,6.729,3.014,6.729,6.732S1868.704,191.232,1864.987,191.232z M1864.987,139.232c-3.719,0-6.731-3.014-6.731-6.732
	s3.016-6.732,6.731-6.732c3.717,0,6.729,3.014,6.729,6.732S1868.704,139.232,1864.987,139.232z M1864.987,87.232
	c-3.719,0-6.731-3.014-6.731-6.732s3.016-6.732,6.731-6.732c3.717,0,6.729,3.014,6.729,6.732S1868.704,87.232,1864.987,87.232z
	 M1864.987,35.232c-3.719,0-6.731-3.014-6.731-6.732s3.016-6.732,6.731-6.732c3.717,0,6.729,3.014,6.729,6.732
	S1868.704,35.232,1864.987,35.232z M1921.557,347.233c-3.721,0-6.73-3.016-6.73-6.732c0-3.719,3.015-6.732,6.73-6.732
	c3.72,0,6.729,3.014,6.729,6.732C1928.288,344.218,1925.276,347.233,1921.557,347.233z M1921.557,295.233
	c-3.721,0-6.73-3.016-6.73-6.732c0-3.719,3.015-6.732,6.73-6.732c3.72,0,6.729,3.014,6.729,6.732
	C1928.288,292.218,1925.276,295.233,1921.557,295.233z M1921.557,243.233c-3.721,0-6.73-3.016-6.73-6.732
	c0-3.719,3.015-6.732,6.73-6.732c3.72,0,6.729,3.014,6.729,6.732C1928.288,240.217,1925.276,243.233,1921.557,243.233z
	 M1921.557,191.232c-3.721,0-6.73-3.014-6.73-6.732s3.015-6.732,6.73-6.732c3.72,0,6.729,3.014,6.729,6.732
	S1925.276,191.232,1921.557,191.232z M1921.557,139.232c-3.721,0-6.73-3.014-6.73-6.732s3.015-6.732,6.73-6.732
	c3.72,0,6.729,3.014,6.729,6.732S1925.276,139.232,1921.557,139.232z M1921.557,87.232c-3.721,0-6.73-3.014-6.73-6.732
	s3.015-6.732,6.73-6.732c3.72,0,6.729,3.014,6.729,6.732S1925.276,87.232,1921.557,87.232z M1978.127,347.233
	c-3.72,0-6.73-3.016-6.73-6.732c0-3.719,3.016-6.732,6.73-6.732c3.714,0,6.731,3.014,6.731,6.732
	C1984.86,344.218,1981.846,347.233,1978.127,347.233z M1978.127,295.233c-3.72,0-6.73-3.016-6.73-6.732
	c0-3.719,3.016-6.732,6.73-6.732c3.714,0,6.731,3.014,6.731,6.732C1984.86,292.218,1981.846,295.233,1978.127,295.233z
	 M1978.127,243.233c-3.72,0-6.73-3.016-6.73-6.732c0-3.719,3.016-6.732,6.73-6.732c3.714,0,6.731,3.014,6.731,6.732
	C1984.86,240.217,1981.846,243.233,1978.127,243.233z M1978.127,191.232c-3.72,0-6.73-3.014-6.73-6.732s3.016-6.732,6.73-6.732
	c3.714,0,6.731,3.014,6.731,6.732S1981.846,191.232,1978.127,191.232z M1978.127,139.232c-3.72,0-6.73-3.014-6.73-6.732
	s3.016-6.732,6.73-6.732c3.714,0,6.731,3.014,6.731,6.732S1981.846,139.232,1978.127,139.232z M1978.127,87.232
	c-3.72,0-6.73-3.014-6.73-6.732s3.016-6.732,6.73-6.732c3.714,0,6.731,3.014,6.731,6.732S1981.846,87.232,1978.127,87.232z
	 M2034.698,347.233c-3.719,0-6.731-3.016-6.731-6.732c0-3.719,3.016-6.732,6.731-6.732c3.717,0,6.73,3.014,6.73,6.732
	C2041.43,344.218,2038.416,347.233,2034.698,347.233z M2034.698,295.233c-3.719,0-6.731-3.016-6.731-6.732
	c0-3.719,3.016-6.732,6.731-6.732c3.717,0,6.73,3.014,6.73,6.732C2041.43,292.218,2038.416,295.233,2034.698,295.233z
	 M2034.698,243.233c-3.719,0-6.731-3.016-6.731-6.732c0-3.719,3.016-6.732,6.731-6.732c3.717,0,6.73,3.014,6.73,6.732
	C2041.43,240.217,2038.416,243.233,2034.698,243.233z M2034.698,191.232c-3.719,0-6.731-3.014-6.731-6.732s3.016-6.732,6.731-6.732
	c3.717,0,6.73,3.014,6.73,6.732S2038.416,191.232,2034.698,191.232z M2034.698,139.232c-3.719,0-6.731-3.014-6.731-6.732
	s3.016-6.732,6.731-6.732c3.717,0,6.73,3.014,6.73,6.732S2038.416,139.232,2034.698,139.232z M2034.698,87.232
	c-3.719,0-6.731-3.014-6.731-6.732s3.016-6.732,6.731-6.732c3.717,0,6.73,3.014,6.73,6.732S2038.416,87.232,2034.698,87.232z
	 M2091.268,347.233c-3.719,0-6.73-3.016-6.73-6.732c0-3.719,3.015-6.732,6.73-6.732c3.72,0,6.73,3.014,6.73,6.732
	C2098,344.218,2094.987,347.233,2091.268,347.233z M2091.268,295.233c-3.719,0-6.73-3.016-6.73-6.732
	c0-3.719,3.015-6.732,6.73-6.732c3.72,0,6.73,3.014,6.73,6.732C2098,292.218,2094.987,295.233,2091.268,295.233z M2091.268,243.233
	c-3.719,0-6.73-3.016-6.73-6.732c0-3.719,3.015-6.732,6.73-6.732c3.72,0,6.73,3.014,6.73,6.732
	C2098,240.217,2094.987,243.233,2091.268,243.233z M2091.268,191.232c-3.719,0-6.73-3.014-6.73-6.732s3.015-6.732,6.73-6.732
	c3.72,0,6.73,3.014,6.73,6.732S2094.987,191.232,2091.268,191.232z M2091.268,139.232c-3.719,0-6.73-3.014-6.73-6.732
	s3.015-6.732,6.73-6.732c3.72,0,6.73,3.014,6.73,6.732S2094.987,139.232,2091.268,139.232z M2091.268,87.232
	c-3.719,0-6.73-3.014-6.73-6.732s3.015-6.732,6.73-6.732c3.72,0,6.73,3.014,6.73,6.732S2094.987,87.232,2091.268,87.232z
	 M2147.836,347.233c-3.719,0-6.729-3.016-6.729-6.732c0-3.719,3.014-6.732,6.729-6.732c3.722,0,6.732,3.014,6.732,6.732
	C2154.571,344.218,2151.557,347.233,2147.836,347.233z M2147.836,295.233c-3.719,0-6.729-3.016-6.729-6.732
	c0-3.719,3.014-6.732,6.729-6.732c3.722,0,6.732,3.014,6.732,6.732C2154.571,292.218,2151.557,295.233,2147.836,295.233z
	 M2147.836,243.233c-3.719,0-6.729-3.016-6.729-6.732c0-3.719,3.014-6.732,6.729-6.732c3.722,0,6.732,3.014,6.732,6.732
	C2154.571,240.217,2151.557,243.233,2147.836,243.233z M2147.836,191.232c-3.719,0-6.729-3.014-6.729-6.732s3.014-6.732,6.729-6.732
	c3.722,0,6.732,3.014,6.732,6.732S2151.557,191.232,2147.836,191.232z M2147.836,139.232c-3.719,0-6.729-3.014-6.729-6.732
	s3.014-6.732,6.729-6.732c3.722,0,6.732,3.014,6.732,6.732S2151.557,139.232,2147.836,139.232z M2147.836,87.232
	c-3.719,0-6.729-3.014-6.729-6.732s3.014-6.732,6.729-6.732c3.722,0,6.732,3.014,6.732,6.732S2151.557,87.232,2147.836,87.232z
	 M2204.407,347.233c-3.719,0-6.73-3.016-6.73-6.732c0-3.719,3.015-6.732,6.73-6.732s6.729,3.014,6.729,6.732
	C2211.141,344.218,2208.127,347.233,2204.407,347.233z M2204.407,295.233c-3.719,0-6.73-3.016-6.73-6.732
	c0-3.719,3.015-6.732,6.73-6.732s6.729,3.014,6.729,6.732C2211.141,292.218,2208.127,295.233,2204.407,295.233z M2204.407,243.233
	c-3.719,0-6.73-3.016-6.73-6.732c0-3.719,3.015-6.732,6.73-6.732s6.729,3.014,6.729,6.732
	C2211.141,240.217,2208.127,243.233,2204.407,243.233z M2204.407,191.232c-3.719,0-6.73-3.014-6.73-6.732s3.015-6.732,6.73-6.732
	s6.729,3.014,6.729,6.732S2208.127,191.232,2204.407,191.232z M2204.407,139.232c-3.719,0-6.73-3.014-6.73-6.732
	s3.015-6.732,6.73-6.732s6.729,3.014,6.729,6.732S2208.127,139.232,2204.407,139.232z M2204.407,87.232
	c-3.719,0-6.73-3.014-6.73-6.732s3.015-6.732,6.73-6.732s6.729,3.014,6.729,6.732S2208.127,87.232,2204.407,87.232z
	 M2260.979,347.233c-3.721,0-6.732-3.016-6.732-6.732c0-3.719,3.015-6.732,6.732-6.732s6.729,3.014,6.729,6.732
	C2267.709,344.218,2264.698,347.233,2260.979,347.233z M2260.979,295.233c-3.721,0-6.732-3.016-6.732-6.732
	c0-3.719,3.015-6.732,6.732-6.732s6.729,3.014,6.729,6.732C2267.709,292.218,2264.698,295.233,2260.979,295.233z M2260.979,243.233
	c-3.721,0-6.732-3.016-6.732-6.732c0-3.719,3.015-6.732,6.732-6.732s6.729,3.014,6.729,6.732
	C2267.709,240.217,2264.698,243.233,2260.979,243.233z M2260.979,191.232c-3.721,0-6.732-3.014-6.732-6.732s3.015-6.732,6.732-6.732
	s6.729,3.014,6.729,6.732S2264.698,191.232,2260.979,191.232z M2260.979,139.232c-3.721,0-6.732-3.014-6.732-6.732
	s3.015-6.732,6.732-6.732s6.729,3.014,6.729,6.732S2264.698,139.232,2260.979,139.232z M2317.55,347.233
	c-3.722,0-6.73-3.016-6.73-6.732c0-3.719,3.015-6.732,6.73-6.732c3.719,0,6.729,3.014,6.729,6.732
	C2324.281,344.218,2321.268,347.233,2317.55,347.233z M2317.55,295.233c-3.722,0-6.73-3.016-6.73-6.732
	c0-3.719,3.015-6.732,6.73-6.732c3.719,0,6.729,3.014,6.729,6.732C2324.281,292.218,2321.268,295.233,2317.55,295.233z
	 M2317.55,243.233c-3.722,0-6.73-3.016-6.73-6.732c0-3.719,3.015-6.732,6.73-6.732c3.719,0,6.729,3.014,6.729,6.732
	C2324.281,240.217,2321.268,243.233,2317.55,243.233z M2317.55,191.232c-3.722,0-6.73-3.014-6.73-6.732s3.015-6.732,6.73-6.732
	c3.719,0,6.729,3.014,6.729,6.732S2321.268,191.232,2317.55,191.232z M2317.55,139.232c-3.722,0-6.73-3.014-6.73-6.732
	s3.015-6.732,6.73-6.732c3.719,0,6.729,3.014,6.729,6.732S2321.268,139.232,2317.55,139.232z M2374.118,399.233
	c-3.719,0-6.73-3.018-6.73-6.732c0-3.719,3.017-6.732,6.73-6.732s6.731,3.014,6.731,6.732
	C2380.852,396.218,2377.836,399.233,2374.118,399.233z M2374.118,347.233c-3.719,0-6.73-3.016-6.73-6.732
	c0-3.719,3.017-6.732,6.73-6.732s6.731,3.014,6.731,6.732C2380.852,344.218,2377.836,347.233,2374.118,347.233z M2374.118,295.233
	c-3.719,0-6.73-3.016-6.73-6.732c0-3.719,3.017-6.732,6.73-6.732s6.731,3.014,6.731,6.732
	C2380.852,292.218,2377.836,295.233,2374.118,295.233z M2374.118,243.233c-3.719,0-6.73-3.016-6.73-6.732
	c0-3.719,3.017-6.732,6.73-6.732s6.731,3.014,6.731,6.732C2380.852,240.217,2377.836,243.233,2374.118,243.233z M2374.118,191.232
	c-3.719,0-6.73-3.014-6.73-6.732s3.017-6.732,6.73-6.732s6.731,3.014,6.731,6.732S2377.836,191.232,2374.118,191.232z
	 M2374.118,139.232c-3.719,0-6.73-3.014-6.73-6.732s3.017-6.732,6.73-6.732s6.731,3.014,6.731,6.732
	S2377.836,139.232,2374.118,139.232z M2543.83,125.768c3.72,0,6.731,3.014,6.731,6.732s-3.019,6.732-6.731,6.732
	c-3.715,0-6.73-3.014-6.73-6.732S2540.112,125.768,2543.83,125.768z M2543.83,177.768c3.72,0,6.731,3.014,6.731,6.732
	s-3.019,6.732-6.731,6.732c-3.715,0-6.73-3.014-6.73-6.732S2540.112,177.768,2543.83,177.768z M2487.26,125.768
	c3.719,0,6.729,3.014,6.729,6.732s-3.014,6.732-6.729,6.732c-3.721,0-6.73-3.014-6.73-6.732S2483.541,125.768,2487.26,125.768z
	 M2487.26,177.768c3.719,0,6.729,3.014,6.729,6.732s-3.014,6.732-6.729,6.732c-3.721,0-6.73-3.014-6.73-6.732
	S2483.541,177.768,2487.26,177.768z M2487.26,229.769c3.719,0,6.729,3.014,6.729,6.732c0,3.717-3.014,6.732-6.729,6.732
	c-3.721,0-6.73-3.016-6.73-6.732C2480.528,232.783,2483.541,229.769,2487.26,229.769z M2430.69,125.768
	c3.719,0,6.729,3.014,6.729,6.732s-3.014,6.732-6.729,6.732c-3.721,0-6.732-3.014-6.732-6.732S2426.971,125.768,2430.69,125.768z
	 M2430.69,177.768c3.719,0,6.729,3.014,6.729,6.732s-3.014,6.732-6.729,6.732c-3.721,0-6.732-3.014-6.732-6.732
	S2426.971,177.768,2430.69,177.768z M2430.69,229.769c3.719,0,6.729,3.014,6.729,6.732c0,3.717-3.014,6.732-6.729,6.732
	c-3.721,0-6.732-3.016-6.732-6.732C2423.957,232.783,2426.971,229.769,2430.69,229.769z M2430.69,281.77
	c3.719,0,6.729,3.014,6.729,6.732c0,3.717-3.014,6.732-6.729,6.732c-3.721,0-6.732-3.016-6.732-6.732
	C2423.957,284.783,2426.971,281.77,2430.69,281.77z M2423.957,340.501c0-3.719,3.015-6.732,6.731-6.732s6.729,3.014,6.729,6.732
	c0,3.717-3.015,6.732-6.729,6.732C2426.971,347.233,2423.957,344.218,2423.957,340.501z"/>
</svg>
