<?xml version="1.0" encoding="utf-8"?>
<!-- Generator: Adobe Illustrator 16.0.0, SVG Export Plug-In . SVG Version: 6.00 Build 0)  -->
<!DOCTYPE svg PUBLIC "-//W3C//DTD SVG 1.1//EN" "http://www.w3.org/Graphics/SVG/1.1/DTD/svg11.dtd">
<svg version="1.1" id="Layer_1" xmlns="http://www.w3.org/2000/svg" xmlns:xlink="http://www.w3.org/1999/xlink" x="0px" y="0px"
	 width="1574.934px" height="424.4px" viewBox="0 0 1574.934 424.4" enable-background="new 0 0 1574.934 424.4"
	 xml:space="preserve">
<path fill="none" stroke="#000000" stroke-linejoin="round" stroke-miterlimit="10" d="M61.017,179.468
	c3.718,0,6.732,3.014,6.732,6.732c0,3.718-3.014,6.732-6.732,6.732c-3.718,0-6.732-3.014-6.732-6.732
	C54.285,182.482,57.299,179.468,61.017,179.468z M61.017,127.468c3.718,0,6.732,3.014,6.732,6.732c0,3.718-3.014,6.732-6.732,6.732
	c-3.718,0-6.732-3.014-6.732-6.732C54.285,130.482,57.299,127.468,61.017,127.468z M117.587,231.474c3.717,0,6.73,3.014,6.73,6.73
	s-3.013,6.73-6.73,6.73s-6.73-3.014-6.73-6.73S113.87,231.474,117.587,231.474z M117.587,179.468c3.718,0,6.732,3.014,6.732,6.732
	c0,3.718-3.014,6.732-6.732,6.732c-3.718,0-6.732-3.014-6.732-6.732C110.855,182.482,113.869,179.468,117.587,179.468z
	 M117.587,127.468c3.718,0,6.732,3.014,6.732,6.732c0,3.718-3.014,6.732-6.732,6.732c-3.718,0-6.732-3.014-6.732-6.732
	C110.855,130.482,113.869,127.468,117.587,127.468z M174.158,335.474c3.717,0,6.73,3.014,6.73,6.73s-3.013,6.73-6.73,6.73
	c-3.717,0-6.73-3.014-6.73-6.73S170.441,335.474,174.158,335.474z M174.158,283.474c3.717,0,6.73,3.014,6.73,6.73
	s-3.013,6.73-6.73,6.73c-3.717,0-6.73-3.014-6.73-6.73S170.441,283.474,174.158,283.474z M174.158,231.474
	c3.717,0,6.73,3.014,6.73,6.73s-3.013,6.73-6.73,6.73c-3.717,0-6.73-3.014-6.73-6.73S170.441,231.474,174.158,231.474z
	 M174.158,179.468c3.718,0,6.732,3.014,6.732,6.732c0,3.718-3.014,6.732-6.732,6.732c-3.718,0-6.732-3.014-6.732-6.732
	C167.426,182.482,170.44,179.468,174.158,179.468z M174.158,127.468c3.718,0,6.732,3.014,6.732,6.732
	c0,3.718-3.014,6.732-6.732,6.732c-3.718,0-6.732-3.014-6.732-6.732C167.426,130.482,170.44,127.468,174.158,127.468z
	 M230.728,400.935c-3.719,0-6.732-3.017-6.732-6.73c0-3.721,3.014-6.729,6.732-6.729c3.718,0,6.732,3.014,6.732,6.729
	C237.46,397.918,234.447,400.935,230.728,400.935z M230.728,335.474c3.717,0,6.73,3.014,6.73,6.73s-3.013,6.73-6.73,6.73
	s-6.73-3.014-6.73-6.73S227.011,335.474,230.728,335.474z M230.728,283.474c3.717,0,6.73,3.014,6.73,6.73s-3.013,6.73-6.73,6.73
	s-6.73-3.014-6.73-6.73S227.011,283.474,230.728,283.474z M230.728,231.474c3.717,0,6.73,3.014,6.73,6.73s-3.013,6.73-6.73,6.73
	s-6.73-3.014-6.73-6.73S227.011,231.474,230.728,231.474z M230.728,179.468c3.718,0,6.732,3.014,6.732,6.732
	c0,3.718-3.014,6.732-6.732,6.732c-3.718,0-6.732-3.014-6.732-6.732C223.996,182.482,227.01,179.468,230.728,179.468z
	 M230.728,127.468c3.718,0,6.732,3.014,6.732,6.732c0,3.718-3.014,6.732-6.732,6.732c-3.718,0-6.732-3.014-6.732-6.732
	C223.996,130.482,227.01,127.468,230.728,127.468z M287.298,335.474c3.717,0,6.73,3.014,6.73,6.73s-3.013,6.73-6.73,6.73
	s-6.73-3.014-6.73-6.73S283.581,335.474,287.298,335.474z M287.298,283.474c3.717,0,6.73,3.014,6.73,6.73s-3.013,6.73-6.73,6.73
	s-6.73-3.014-6.73-6.73S283.581,283.474,287.298,283.474z M287.298,231.474c3.717,0,6.73,3.014,6.73,6.73s-3.013,6.73-6.73,6.73
	s-6.73-3.014-6.73-6.73S283.581,231.474,287.298,231.474z M287.298,179.468c3.718,0,6.732,3.014,6.732,6.732
	c0,3.718-3.014,6.732-6.732,6.732c-3.718,0-6.732-3.014-6.732-6.732C280.566,182.482,283.58,179.468,287.298,179.468z
	 M287.298,127.468c3.718,0,6.732,3.014,6.732,6.732c0,3.718-3.014,6.732-6.732,6.732c-3.718,0-6.732-3.014-6.732-6.732
	C280.566,130.482,283.58,127.468,287.298,127.468z M343.869,348.935c-3.719,0-6.732-3.017-6.732-6.73
	c0-3.721,3.019-6.729,6.732-6.729s6.729,3.014,6.729,6.729C350.601,345.918,347.587,348.935,343.869,348.935z M343.869,296.935
	c-3.719,0-6.732-3.017-6.732-6.73c0-3.721,3.019-6.729,6.732-6.729s6.729,3.014,6.729,6.729
	C350.601,293.918,347.587,296.935,343.869,296.935z M343.869,244.935c-3.719,0-6.732-3.017-6.732-6.73
	c0-3.721,3.019-6.729,6.732-6.729s6.729,3.014,6.729,6.729C350.601,241.918,347.587,244.935,343.869,244.935z M343.869,192.932
	c-3.719,0-6.732-3.014-6.732-6.732c0-3.718,3.019-6.732,6.732-6.732s6.729,3.014,6.729,6.732
	C350.601,189.918,347.587,192.932,343.869,192.932z M343.869,140.932c-3.719,0-6.732-3.014-6.732-6.732
	c0-3.718,3.019-6.732,6.732-6.732s6.729,3.014,6.729,6.732C350.601,137.918,347.587,140.932,343.869,140.932z M400.439,348.935
	c-3.724,0-6.732-3.017-6.732-6.73c0-3.721,3.014-6.729,6.732-6.729c3.718,0,6.729,3.014,6.729,6.729
	C407.171,345.918,404.158,348.935,400.439,348.935z M400.439,296.935c-3.724,0-6.732-3.017-6.732-6.73
	c0-3.721,3.014-6.729,6.732-6.729c3.718,0,6.729,3.014,6.729,6.729C407.171,293.918,404.158,296.935,400.439,296.935z
	 M400.439,244.935c-3.724,0-6.732-3.017-6.732-6.73c0-3.721,3.014-6.729,6.732-6.729c3.718,0,6.729,3.014,6.729,6.729
	C407.171,241.918,404.158,244.935,400.439,244.935z M400.439,192.932c-3.724,0-6.732-3.014-6.732-6.732
	c0-3.718,3.014-6.732,6.732-6.732c3.718,0,6.729,3.014,6.729,6.732C407.171,189.918,404.158,192.932,400.439,192.932z
	 M400.439,140.932c-3.724,0-6.732-3.014-6.732-6.732c0-3.718,3.014-6.732,6.732-6.732c3.718,0,6.729,3.014,6.729,6.732
	C407.171,137.918,404.158,140.932,400.439,140.932z M400.439,88.932c-3.724,0-6.732-3.014-6.732-6.732
	c0-3.718,3.014-6.732,6.732-6.732c3.718,0,6.729,3.014,6.729,6.732C407.171,85.918,404.158,88.932,400.439,88.932z M457.009,335.474
	c3.717,0,6.73,3.014,6.73,6.73s-3.014,6.73-6.73,6.73s-6.729-3.014-6.729-6.73S453.292,335.474,457.009,335.474z M457.009,283.474
	c3.717,0,6.73,3.014,6.73,6.73s-3.014,6.73-6.73,6.73s-6.729-3.014-6.729-6.73S453.292,283.474,457.009,283.474z M457.009,231.474
	c3.717,0,6.73,3.014,6.73,6.73s-3.014,6.73-6.73,6.73s-6.729-3.014-6.729-6.73S453.292,231.474,457.009,231.474z M457.009,179.468
	c3.718,0,6.732,3.014,6.732,6.732c0,3.718-3.015,6.732-6.732,6.732s-6.731-3.014-6.731-6.732
	C450.277,182.482,453.291,179.468,457.009,179.468z M457.009,127.468c3.718,0,6.732,3.014,6.732,6.732
	c0,3.718-3.015,6.732-6.732,6.732s-6.731-3.014-6.731-6.732C450.277,130.482,453.291,127.468,457.009,127.468z M457.009,75.468
	c3.718,0,6.732,3.014,6.732,6.732c0,3.718-3.015,6.732-6.732,6.732s-6.731-3.014-6.731-6.732
	C450.277,78.482,453.291,75.468,457.009,75.468z M513.58,348.935c-3.719,0-6.732-3.017-6.732-6.73c0-3.721,3.019-6.729,6.732-6.729
	s6.732,3.014,6.732,6.729C520.312,345.918,517.298,348.935,513.58,348.935z M513.58,296.935c-3.719,0-6.732-3.017-6.732-6.73
	c0-3.721,3.019-6.729,6.732-6.729s6.732,3.014,6.732,6.729C520.312,293.918,517.298,296.935,513.58,296.935z M513.58,244.935
	c-3.719,0-6.732-3.017-6.732-6.73c0-3.721,3.019-6.729,6.732-6.729s6.732,3.014,6.732,6.729
	C520.312,241.918,517.298,244.935,513.58,244.935z M513.58,192.932c-3.719,0-6.732-3.014-6.732-6.732
	c0-3.718,3.019-6.732,6.732-6.732s6.732,3.014,6.732,6.732C520.312,189.918,517.298,192.932,513.58,192.932z M513.58,140.932
	c-3.719,0-6.732-3.014-6.732-6.732c0-3.718,3.019-6.732,6.732-6.732s6.732,3.014,6.732,6.732
	C520.312,137.918,517.298,140.932,513.58,140.932z M513.58,88.932c-3.719,0-6.732-3.014-6.732-6.732
	c0-3.718,3.019-6.732,6.732-6.732s6.732,3.014,6.732,6.732C520.312,85.918,517.298,88.932,513.58,88.932z M570.15,348.935
	c-3.724,0-6.732-3.017-6.732-6.73c0-3.721,3.014-6.729,6.732-6.729c3.718,0,6.729,3.014,6.729,6.729
	C576.882,345.918,573.869,348.935,570.15,348.935z M570.15,296.935c-3.724,0-6.732-3.017-6.732-6.73
	c0-3.721,3.014-6.729,6.732-6.729c3.718,0,6.729,3.014,6.729,6.729C576.882,293.918,573.869,296.935,570.15,296.935z
	 M570.15,244.935c-3.724,0-6.732-3.017-6.732-6.73c0-3.721,3.014-6.729,6.732-6.729c3.718,0,6.729,3.014,6.729,6.729
	C576.882,241.918,573.869,244.935,570.15,244.935z M570.15,192.932c-3.724,0-6.732-3.014-6.732-6.732
	c0-3.718,3.014-6.732,6.732-6.732c3.718,0,6.729,3.014,6.729,6.732C576.882,189.918,573.869,192.932,570.15,192.932z
	 M570.15,140.932c-3.724,0-6.732-3.014-6.732-6.732c0-3.718,3.014-6.732,6.732-6.732c3.718,0,6.729,3.014,6.729,6.732
	C576.882,137.918,573.869,140.932,570.15,140.932z M570.15,88.932c-3.724,0-6.732-3.014-6.732-6.732
	c0-3.718,3.014-6.732,6.732-6.732c3.718,0,6.729,3.014,6.729,6.732C576.882,85.918,573.869,88.932,570.15,88.932z M626.72,335.474
	c3.717,0,6.73,3.014,6.73,6.73s-3.014,6.73-6.73,6.73s-6.729-3.014-6.729-6.73S623.003,335.474,626.72,335.474z M626.72,283.474
	c3.717,0,6.73,3.014,6.73,6.73s-3.014,6.73-6.73,6.73s-6.729-3.014-6.729-6.73S623.003,283.474,626.72,283.474z M626.72,231.474
	c3.717,0,6.73,3.014,6.73,6.73s-3.014,6.73-6.73,6.73s-6.729-3.014-6.729-6.73S623.003,231.474,626.72,231.474z M626.72,179.468
	c3.718,0,6.732,3.014,6.732,6.732c0,3.718-3.015,6.732-6.732,6.732s-6.731-3.014-6.731-6.732
	C619.988,182.482,623.002,179.468,626.72,179.468z M626.72,127.468c3.718,0,6.732,3.014,6.732,6.732
	c0,3.718-3.015,6.732-6.732,6.732s-6.731-3.014-6.731-6.732C619.988,130.482,623.002,127.468,626.72,127.468z M626.72,75.468
	c3.718,0,6.732,3.014,6.732,6.732c0,3.718-3.015,6.732-6.732,6.732s-6.731-3.014-6.731-6.732
	C619.988,78.482,623.002,75.468,626.72,75.468z M683.291,348.935c-3.719,0-6.732-3.017-6.732-6.73c0-3.721,3.019-6.729,6.732-6.729
	s6.732,3.014,6.732,6.729C690.023,345.918,687.009,348.935,683.291,348.935z M683.291,296.935c-3.719,0-6.732-3.017-6.732-6.73
	c0-3.721,3.019-6.729,6.732-6.729s6.732,3.014,6.732,6.729C690.023,293.918,687.009,296.935,683.291,296.935z M683.291,244.935
	c-3.719,0-6.732-3.017-6.732-6.73c0-3.721,3.019-6.729,6.732-6.729s6.732,3.014,6.732,6.729
	C690.023,241.918,687.009,244.935,683.291,244.935z M683.291,192.932c-3.719,0-6.732-3.014-6.732-6.732
	c0-3.718,3.019-6.732,6.732-6.732s6.732,3.014,6.732,6.732C690.023,189.918,687.009,192.932,683.291,192.932z M683.291,140.932
	c-3.719,0-6.732-3.014-6.732-6.732c0-3.718,3.019-6.732,6.732-6.732s6.732,3.014,6.732,6.732
	C690.023,137.918,687.009,140.932,683.291,140.932z M683.291,88.932c-3.719,0-6.732-3.014-6.732-6.732
	c0-3.718,3.019-6.732,6.732-6.732s6.732,3.014,6.732,6.732C690.023,85.918,687.009,88.932,683.291,88.932z M739.861,348.935
	c-3.724,0-6.732-3.017-6.732-6.73c0-3.721,3.014-6.729,6.732-6.729c3.718,0,6.729,3.014,6.729,6.729
	C746.593,345.918,743.58,348.935,739.861,348.935z M739.861,296.935c-3.724,0-6.732-3.017-6.732-6.73
	c0-3.721,3.014-6.729,6.732-6.729c3.718,0,6.729,3.014,6.729,6.729C746.593,293.918,743.58,296.935,739.861,296.935z
	 M739.861,244.935c-3.724,0-6.732-3.017-6.732-6.73c0-3.721,3.014-6.729,6.732-6.729c3.718,0,6.729,3.014,6.729,6.729
	C746.593,241.918,743.58,244.935,739.861,244.935z M739.861,192.932c-3.724,0-6.732-3.014-6.732-6.732
	c0-3.718,3.014-6.732,6.732-6.732c3.718,0,6.729,3.014,6.729,6.732C746.593,189.918,743.58,192.932,739.861,192.932z
	 M739.861,140.932c-3.724,0-6.732-3.014-6.732-6.732c0-3.718,3.014-6.732,6.732-6.732c3.718,0,6.729,3.014,6.729,6.732
	C746.593,137.918,743.58,140.932,739.861,140.932z M739.861,88.932c-3.724,0-6.732-3.014-6.732-6.732
	c0-3.718,3.014-6.732,6.732-6.732c3.718,0,6.729,3.014,6.729,6.732C746.593,85.918,743.58,88.932,739.861,88.932z M739.861,36.932
	c-3.724,0-6.732-3.014-6.732-6.732c0-3.718,3.014-6.732,6.732-6.732c3.718,0,6.729,3.014,6.729,6.732
	C746.593,33.918,743.58,36.932,739.861,36.932z M796.432,296.935c-3.719,0-6.729-3.017-6.729-6.73c0-3.721,3.014-6.729,6.729-6.729
	c3.722,0,6.732,3.014,6.732,6.729C803.165,293.918,800.151,296.935,796.432,296.935z M796.432,244.935
	c-3.719,0-6.729-3.017-6.729-6.73c0-3.721,3.014-6.729,6.729-6.729c3.722,0,6.732,3.014,6.732,6.729
	C803.165,241.918,800.151,244.935,796.432,244.935z M796.432,192.932c-3.719,0-6.729-3.014-6.729-6.732
	c0-3.718,3.014-6.732,6.729-6.732c3.722,0,6.732,3.014,6.732,6.732C803.165,189.918,800.151,192.932,796.432,192.932z
	 M796.432,140.932c-3.719,0-6.729-3.014-6.729-6.732c0-3.718,3.014-6.732,6.729-6.732c3.722,0,6.732,3.014,6.732,6.732
	C803.165,137.918,800.151,140.932,796.432,140.932z M796.432,88.932c-3.719,0-6.729-3.014-6.729-6.732
	c0-3.718,3.014-6.732,6.729-6.732c3.722,0,6.732,3.014,6.732,6.732C803.165,85.918,800.151,88.932,796.432,88.932z M796.432,36.932
	c-3.719,0-6.729-3.014-6.729-6.732c0-3.718,3.014-6.732,6.729-6.732c3.722,0,6.732,3.014,6.732,6.732
	C803.165,33.918,800.151,36.932,796.432,36.932z M853.002,283.474c3.717,0,6.73,3.014,6.73,6.73s-3.014,6.73-6.73,6.73
	s-6.729-3.014-6.729-6.73S849.285,283.474,853.002,283.474z M853.002,231.474c3.717,0,6.73,3.014,6.73,6.73s-3.014,6.73-6.73,6.73
	s-6.729-3.014-6.729-6.73S849.285,231.474,853.002,231.474z M853.002,179.468c3.718,0,6.732,3.014,6.732,6.732
	c0,3.718-3.015,6.732-6.732,6.732s-6.732-3.014-6.732-6.732C846.27,182.482,849.284,179.468,853.002,179.468z M853.002,127.468
	c3.718,0,6.732,3.014,6.732,6.732c0,3.718-3.015,6.732-6.732,6.732s-6.732-3.014-6.732-6.732
	C846.27,130.482,849.284,127.468,853.002,127.468z M853.002,75.468c3.718,0,6.732,3.014,6.732,6.732
	c0,3.718-3.015,6.732-6.732,6.732s-6.732-3.014-6.732-6.732C846.27,78.482,849.284,75.468,853.002,75.468z M909.573,296.935
	c-3.72,0-6.732-3.017-6.732-6.73c0-3.721,3.018-6.729,6.732-6.729s6.729,3.014,6.729,6.729
	C916.305,293.918,913.292,296.935,909.573,296.935z M909.573,244.935c-3.72,0-6.732-3.017-6.732-6.73
	c0-3.721,3.018-6.729,6.732-6.729s6.729,3.014,6.729,6.729C916.305,241.918,913.292,244.935,909.573,244.935z M909.573,179.468
	c3.718,0,6.731,3.014,6.731,6.732c0,3.718-3.014,6.732-6.731,6.732s-6.732-3.014-6.732-6.732
	C902.841,182.482,905.855,179.468,909.573,179.468z M909.573,127.468c3.718,0,6.731,3.014,6.731,6.732
	c0,3.718-3.014,6.732-6.731,6.732s-6.732-3.014-6.732-6.732C902.841,130.482,905.855,127.468,909.573,127.468z M909.573,75.468
	c3.718,0,6.731,3.014,6.731,6.732c0,3.718-3.014,6.732-6.731,6.732s-6.732-3.014-6.732-6.732
	C902.841,78.482,905.855,75.468,909.573,75.468z M966.143,296.935c-3.719,0-6.729-3.017-6.729-6.73c0-3.721,3.014-6.729,6.729-6.729
	c3.722,0,6.732,3.014,6.732,6.729C972.875,293.918,969.862,296.935,966.143,296.935z M966.143,244.935
	c-3.719,0-6.729-3.017-6.729-6.73c0-3.721,3.014-6.729,6.729-6.729c3.722,0,6.732,3.014,6.732,6.729
	C972.875,241.918,969.862,244.935,966.143,244.935z M966.143,192.932c-3.719,0-6.729-3.014-6.729-6.732
	c0-3.718,3.014-6.732,6.729-6.732c3.722,0,6.732,3.014,6.732,6.732C972.875,189.918,969.862,192.932,966.143,192.932z
	 M966.143,140.932c-3.719,0-6.729-3.014-6.729-6.732c0-3.718,3.014-6.732,6.729-6.732c3.722,0,6.732,3.014,6.732,6.732
	C972.875,137.918,969.862,140.932,966.143,140.932z M966.143,88.932c-3.719,0-6.729-3.014-6.729-6.732
	c0-3.718,3.014-6.732,6.729-6.732c3.722,0,6.732,3.014,6.732,6.732C972.875,85.918,969.862,88.932,966.143,88.932z
	 M1022.713,283.474c3.717,0,6.73,3.014,6.73,6.73s-3.014,6.73-6.73,6.73s-6.729-3.014-6.729-6.73S1018.996,283.474,1022.713,283.474
	z M1022.713,231.474c3.717,0,6.73,3.014,6.73,6.73s-3.014,6.73-6.73,6.73s-6.729-3.014-6.729-6.73
	S1018.996,231.474,1022.713,231.474z M1022.713,179.468c3.718,0,6.732,3.014,6.732,6.732c0,3.718-3.015,6.732-6.732,6.732
	s-6.732-3.014-6.732-6.732C1015.98,182.482,1018.995,179.468,1022.713,179.468z M1022.713,127.468c3.718,0,6.732,3.014,6.732,6.732
	c0,3.718-3.015,6.732-6.732,6.732s-6.732-3.014-6.732-6.732C1015.98,130.482,1018.995,127.468,1022.713,127.468z M1022.713,75.468
	c3.718,0,6.732,3.014,6.732,6.732c0,3.718-3.015,6.732-6.732,6.732s-6.732-3.014-6.732-6.732
	C1015.98,78.482,1018.995,75.468,1022.713,75.468z M1079.284,296.935c-3.719,0-6.732-3.017-6.732-6.73
	c0-3.721,3.018-6.729,6.732-6.729s6.729,3.014,6.729,6.729C1086.016,293.918,1083.002,296.935,1079.284,296.935z M1079.284,244.935
	c-3.719,0-6.732-3.017-6.732-6.73c0-3.721,3.018-6.729,6.732-6.729s6.729,3.014,6.729,6.729
	C1086.016,241.918,1083.002,244.935,1079.284,244.935z M1079.284,179.468c3.718,0,6.731,3.014,6.731,6.732
	c0,3.718-3.014,6.732-6.731,6.732s-6.732-3.014-6.732-6.732C1072.552,182.482,1075.566,179.468,1079.284,179.468z M1079.284,127.468
	c3.718,0,6.731,3.014,6.731,6.732c0,3.718-3.014,6.732-6.731,6.732s-6.732-3.014-6.732-6.732
	C1072.552,130.482,1075.566,127.468,1079.284,127.468z M1079.284,75.468c3.718,0,6.731,3.014,6.731,6.732
	c0,3.718-3.014,6.732-6.731,6.732s-6.732-3.014-6.732-6.732C1072.552,78.482,1075.566,75.468,1079.284,75.468z M1135.854,296.935
	c-3.719,0-6.729-3.017-6.729-6.73c0-3.721,3.014-6.729,6.729-6.729c3.722,0,6.732,3.014,6.732,6.729
	C1142.586,293.918,1139.573,296.935,1135.854,296.935z M1135.854,244.935c-3.719,0-6.729-3.017-6.729-6.73
	c0-3.721,3.014-6.729,6.729-6.729c3.722,0,6.732,3.014,6.732,6.729C1142.586,241.918,1139.573,244.935,1135.854,244.935z
	 M1135.854,192.932c-3.719,0-6.729-3.014-6.729-6.732c0-3.718,3.014-6.732,6.729-6.732c3.722,0,6.732,3.014,6.732,6.732
	C1142.586,189.918,1139.573,192.932,1135.854,192.932z M1135.854,140.932c-3.719,0-6.729-3.014-6.729-6.732
	c0-3.718,3.014-6.732,6.729-6.732c3.722,0,6.732,3.014,6.732,6.732C1142.586,137.918,1139.573,140.932,1135.854,140.932z
	 M1135.854,88.932c-3.719,0-6.729-3.014-6.729-6.732c0-3.718,3.014-6.732,6.729-6.732c3.722,0,6.732,3.014,6.732,6.732
	C1142.586,85.918,1139.573,88.932,1135.854,88.932z M1135.854,36.932c-3.719,0-6.729-3.014-6.729-6.732
	c0-3.718,3.014-6.732,6.729-6.732c3.722,0,6.732,3.014,6.732,6.732C1142.586,33.918,1139.573,36.932,1135.854,36.932z
	 M1192.424,283.474c3.717,0,6.73,3.014,6.73,6.73s-3.014,6.73-6.73,6.73s-6.729-3.014-6.729-6.73S1188.707,283.474,1192.424,283.474
	z M1192.424,231.474c3.717,0,6.73,3.014,6.73,6.73s-3.014,6.73-6.73,6.73s-6.729-3.014-6.729-6.73
	S1188.707,231.474,1192.424,231.474z M1192.424,179.468c3.718,0,6.732,3.014,6.732,6.732c0,3.718-3.015,6.732-6.732,6.732
	s-6.732-3.014-6.732-6.732C1185.691,182.482,1188.706,179.468,1192.424,179.468z M1192.424,127.468c3.718,0,6.732,3.014,6.732,6.732
	c0,3.718-3.015,6.732-6.732,6.732s-6.732-3.014-6.732-6.732C1185.691,130.482,1188.706,127.468,1192.424,127.468z M1192.424,75.468
	c3.718,0,6.732,3.014,6.732,6.732c0,3.718-3.015,6.732-6.732,6.732s-6.732-3.014-6.732-6.732
	C1185.691,78.482,1188.706,75.468,1192.424,75.468z M1248.995,231.474c3.717,0,6.729,3.014,6.729,6.73s-3.013,6.73-6.729,6.73
	s-6.73-3.014-6.73-6.73S1245.278,231.474,1248.995,231.474z M1248.995,179.468c3.718,0,6.731,3.014,6.731,6.732
	c0,3.718-3.014,6.732-6.731,6.732s-6.732-3.014-6.732-6.732C1242.263,182.482,1245.277,179.468,1248.995,179.468z M1248.995,127.468
	c3.718,0,6.731,3.014,6.731,6.732c0,3.718-3.014,6.732-6.731,6.732s-6.732-3.014-6.732-6.732
	C1242.263,130.482,1245.277,127.468,1248.995,127.468z M1305.564,244.935c-3.724,0-6.731-3.017-6.731-6.73
	c0-3.721,3.014-6.729,6.731-6.729c3.717,0,6.729,3.014,6.729,6.729C1312.297,241.918,1309.284,244.935,1305.564,244.935z
	 M1305.564,192.932c-3.724,0-6.731-3.014-6.731-6.732c0-3.718,3.014-6.732,6.731-6.732c3.717,0,6.729,3.014,6.729,6.732
	C1312.295,189.918,1309.284,192.932,1305.564,192.932z M1305.564,140.932c-3.724,0-6.731-3.014-6.731-6.732
	c0-3.718,3.014-6.732,6.731-6.732c3.717,0,6.729,3.014,6.729,6.732C1312.295,137.918,1309.284,140.932,1305.564,140.932z
	 M1362.135,231.474c3.717,0,6.73,3.014,6.73,6.73s-3.014,6.73-6.73,6.73s-6.729-3.014-6.729-6.73S1358.418,231.474,1362.135,231.474
	z M1362.135,179.468c3.719,0,6.732,3.014,6.732,6.732c0,3.718-3.014,6.732-6.732,6.732c-3.718,0-6.731-3.014-6.731-6.732
	C1355.403,182.482,1358.417,179.468,1362.135,179.468z M1418.706,231.474c3.717,0,6.729,3.014,6.729,6.73s-3.013,6.73-6.729,6.73
	s-6.729-3.014-6.729-6.73S1414.989,231.474,1418.706,231.474z M1524.422,262.028c5.313-4.202,12.028-6.711,19.33-6.711
	c17.221,0,31.18,13.959,31.18,31.18s-13.959,31.18-31.18,31.18s-31.18-13.959-31.18-31.18c0-1.68,0.133-3.327,0.389-4.936
	c-0.85-3.723-4.812-5.229-8.232-5.535c-3.223-0.286-6.444-0.58-9.669-0.869c-0.614-0.055-1.23-0.11-1.847-0.165L187.302,423.469
	c-13.245,2.705-13.679-1.344-13.679-1.344S10.915,152.519,2.399,140.135c-8.513-12.387,8.365-16.768,8.365-16.768
	S617.261,28.799,703.727,15.16c86.469-13.64,234.688,17.96,336.387,28.831c53.568,5.728,61.924-35.62,61.924-35.62
	s5.225-9.018,11.553-4.053C1119.92,9.282,1146.652,0,1146.652,0s333.889,236.44,353.463,251.455c1.771,1.36,3.346,2.647,4.74,3.862
	c0.671,0.394,1.366,0.746,2.043,1.13C1512.214,259.468,1517.917,263.999,1524.422,262.028z"/>
</svg>
