<?xml version="1.0" encoding="utf-8"?>
<!-- Generator: Adobe Illustrator 16.0.0, SVG Export Plug-In . SVG Version: 6.00 Build 0)  -->
<!DOCTYPE svg PUBLIC "-//W3C//DTD SVG 1.1//EN" "http://www.w3.org/Graphics/SVG/1.1/DTD/svg11.dtd">
<svg version="1.1" id="Layer_1" xmlns="http://www.w3.org/2000/svg" xmlns:xlink="http://www.w3.org/1999/xlink" x="0px" y="0px"
	 width="559.158px" height="1097.965px" viewBox="0 0 559.158 1097.965" enable-background="new 0 0 559.158 1097.965"
	 xml:space="preserve">
<path d="M45.505,0.253l489.166,0.95c0,0,30.67-3.175,23.364,61.704c-7.305,64.879-65.457,510.714-65.457,510.714L453.95,787.577
	l-37.233,161.305c0,0-16.949,74.59-53.685,91.939c-36.734,17.349-95.392,56.787-186.443,57.09
	c-91.05,0.301-137.333-0.724-137.333-0.724s-22.122,5.146-24.979-32.123C11.421,1027.793,0,600.008,0,600.008L9.91,67.425
	C9.909,67.426,2.408-4.805,45.505,0.253"/>
</svg>
