<?xml version="1.0" encoding="utf-8"?>
<!-- Generator: Adobe Illustrator 16.0.0, SVG Export Plug-In . SVG Version: 6.00 Build 0)  -->
<!DOCTYPE svg PUBLIC "-//W3C//DTD SVG 1.1//EN" "http://www.w3.org/Graphics/SVG/1.1/DTD/svg11.dtd">
<svg version="1.1" id="Layer_1" xmlns="http://www.w3.org/2000/svg" xmlns:xlink="http://www.w3.org/1999/xlink" x="0px" y="0px"
	 width="2435.195px" height="658.146px" viewBox="0 0 2435.195 658.146" enable-background="new 0 0 2435.195 658.146"
	 xml:space="preserve">
<path fill="none" stroke="#000000" stroke-linejoin="round" stroke-miterlimit="10" d="M2376.003,546.593
	c-2.914-2.201-6.703-2.538-10.235-2.549c-4.065-0.013-8.137,0.015-12.204,0.021c-0.696,0.001-1.396-0.006-2.093-0.003
	c-175.566,40.805-214.855,4.159-393.082-36.936c-182.293-42.035-426.312-88.249-541.604-92.188
	c-115.289-3.94-234.758,53.852-259.437,68.46c-24.675,14.614-249.688,174.748-249.688,174.748s-13.634-0.282-31.097-4.761
	c-17.467-4.469-581.634-15.438-581.634-15.438S37.221,543.095,12.76,520.546c-24.464-22.548-7.614-6.599,0.16-27.87
	c7.775-21.269,423.812-233.854,423.812-233.854C584.517,221.761,562.885,79.944,562.943,70.654
	c0.048-9.288-13.101-37.914-13.101-37.914s11.742-11.278,20.021-25.439c8.274-14.164,21.542-3.356,21.542-3.356l30.34,9.664
	c0,0,76.604,0.314,233.883,4.076c165.291,3.954,319.354,60.854,319.354,60.854c40.084,4.833,1041.24,385.949,1179.074,443.179
	l0.002,0.001c3.531,0.867,7.048,1.803,10.569,2.707c3.085,0.793,6.934,2.387,9.484-0.425c3.823-12.896,15.763-22.304,29.898-22.304
	c17.222,0,31.181,13.96,31.181,31.181s-13.959,31.181-31.181,31.181c-12.302,0-22.938-7.123-28.014-17.471L2376.003,546.593z"/>
</svg>
