<?xml version="1.0" encoding="utf-8"?>
<!-- Generator: Adobe Illustrator 16.0.0, SVG Export Plug-In . SVG Version: 6.00 Build 0)  -->
<!DOCTYPE svg PUBLIC "-//W3C//DTD SVG 1.1//EN" "http://www.w3.org/Graphics/SVG/1.1/DTD/svg11.dtd">
<svg version="1.1" id="Layer_1" xmlns="http://www.w3.org/2000/svg" xmlns:xlink="http://www.w3.org/1999/xlink" x="0px" y="0px"
	 width="2431.61px" height="672.125px" viewBox="0 0 2431.61 672.125" enable-background="new 0 0 2431.61 672.125"
	 xml:space="preserve">
<path fill="none" stroke="#000000" stroke-linejoin="round" stroke-miterlimit="10" d="M60.087,601.568
	c-4.631-11.416-15.829-19.468-28.906-19.468C13.96,582.102,0,596.062,0,613.283s13.96,31.181,31.181,31.181
	c13.361,0,24.759-8.403,29.197-20.214c4.191-5.885,15.902-2.291,21.776-1.832c178.92,33.561,216.157-4.909,393.016-54.127
	c180.229-50.152,421.938-107.244,536.938-116.346c114.992-9.095,236.932,43.29,262.237,56.786
	c25.311,13.488,257.266,163.395,257.266,163.395s13.604-0.896,30.854-6.146c17.242-5.25,580.359-41.466,580.359-41.466
	s253.203-106.295,276.635-129.916c23.43-23.613,7.312-6.936-1.408-27.836c-8.719-20.896-433.854-214.645-433.854-214.645
	c-149.299-30.406-134.039-173.05-134.51-182.329c-0.471-9.277,11.385-38.461,11.385-38.461s-12.23-10.743-21.135-24.52
	c-8.904-13.776-21.674-2.389-21.674-2.389l-29.877,11.016c0,0-76.514,3.74-233.461,14.54
	c-164.951,11.35-316.311,75.09-316.311,75.09C1198.931,111.66,222.851,534.138,82.067,599.872
	c-5.838,1.771-16.921,8.339-21.98,1.699V601.568z"/>
</svg>
