<?xml version="1.0" encoding="utf-8"?>
<!-- Generator: Adobe Illustrator 16.0.0, SVG Export Plug-In . SVG Version: 6.00 Build 0)  -->
<!DOCTYPE svg PUBLIC "-//W3C//DTD SVG 1.1//EN" "http://www.w3.org/Graphics/SVG/1.1/DTD/svg11.dtd">
<svg version="1.1" id="Layer_1" xmlns="http://www.w3.org/2000/svg" xmlns:xlink="http://www.w3.org/1999/xlink" x="0px" y="0px"
	 width="500.008px" height="918.387px" viewBox="0 0 500.008 918.387" enable-background="new 0 0 500.008 918.387"
	 xml:space="preserve">
<path d="M439.594,58.769c0,0,2.892-25.077-27.777-34.36c-30.665-9.285-222.18-42.618-381.941-11.237c0,0-34.19,7.329-29.418,43.753
	c4.771,36.428,61.229,199.079,61.229,199.079s39.892,86.924,109.617,231.214c60.142,124.448,201.066,374.559,201.066,374.559
	s24.428,30.521,39.438,39.961c15.013,9.43,68.683,16.648,68.683,16.648s12.146-1.592,19.021-14.366
	C506.382,891.243,439.594,58.769,439.594,58.769z"/>
</svg>
