<?xml version="1.0" encoding="utf-8"?>
<!-- Generator: Adobe Illustrator 16.0.0, SVG Export Plug-In . SVG Version: 6.00 Build 0)  -->
<!DOCTYPE svg PUBLIC "-//W3C//DTD SVG 1.1//EN" "http://www.w3.org/Graphics/SVG/1.1/DTD/svg11.dtd">
<svg version="1.1" id="Layer_1" xmlns="http://www.w3.org/2000/svg" xmlns:xlink="http://www.w3.org/1999/xlink" x="0px" y="0px"
	 width="542.135px" height="969px" viewBox="0 0 542.135 969" enable-background="new 0 0 542.135 969" xml:space="preserve">
<path fill="none" stroke="#000000" stroke-linejoin="round" stroke-miterlimit="10" d="M439.596,58.77
	c0,0,2.894-25.077-27.775-34.36c-30.665-9.285-222.18-42.618-381.943-11.237c0,0-34.191,7.329-29.418,43.753
	c4.773,36.428,61.23,199.079,61.23,199.079s39.89,86.924,109.617,231.214c60.142,124.448,201.068,374.559,201.068,374.559
	s24.425,30.521,39.437,39.961c15.015,9.43,68.685,16.649,68.685,16.649s12.143-1.592,19.019-14.366
	C506.383,891.244,439.596,58.77,439.596,58.77z"/>
</svg>
