<?xml version="1.0" encoding="utf-8"?>
<!-- Generator: Adobe Illustrator 16.0.0, SVG Export Plug-In . SVG Version: 6.00 Build 0)  -->
<!DOCTYPE svg PUBLIC "-//W3C//DTD SVG 1.1//EN" "http://www.w3.org/Graphics/SVG/1.1/DTD/svg11.dtd">
<svg version="1.1" id="Layer_1" xmlns="http://www.w3.org/2000/svg" xmlns:xlink="http://www.w3.org/1999/xlink" x="0px" y="0px"
	 width="1252.623px" height="478.713px" viewBox="0 0 1252.623 478.713" enable-background="new 0 0 1252.623 478.713"
	 xml:space="preserve">
<path d="M2.212,307.069l-2.211,28.047c0,0,46.365,42.75,66.986,62.877c20.621,20.133,46.242,32.561,46.242,32.561
	s379.994,36.189,387.664,38.646c7.674,2.457,56.158,9.514,56.158,9.514s119.063-54.928,164.692-73.307
	c45.634-18.379,53.521,1.902,63.646-3.312c10.125-5.221,331.939-146.646,410.312-195.99c15.49-9.753,32.235-19.491,45.721-31.99
	c4.188-3.886,10.982-8.663,11.187-15.032c0.343-11.005-8.015-20.216-14.69-27.772c-7.688-8.698-16.07-16.864-24.396-24.948
	c-11.806-11.459-24.021-22.5-35.987-33.792c-25.563-24.127-60.951-26.487-93.911-32.552c-31.82-5.855-63.691-13.411-96.234-13.295
	c-15.256,0.054-29.943,1.657-45.193-0.339c-40.28-5.271-79.583-16.078-120.097-20.543c-8.578-0.945-17.562-2.156-26.198-1.266
	C767.912,7.46,541.109,0,541.109,0L98.176,25.707c0,0-68.709,5.918-70.643,56.887c-1.935,50.973,2.083,173.199,2.083,173.199
	L2.212,307.069z"/>
</svg>
