<?xml version="1.0" encoding="utf-8"?>
<!-- Generator: Adobe Illustrator 16.0.0, SVG Export Plug-In . SVG Version: 6.00 Build 0)  -->
<!DOCTYPE svg PUBLIC "-//W3C//DTD SVG 1.1//EN" "http://www.w3.org/Graphics/SVG/1.1/DTD/svg11.dtd">
<svg version="1.1" id="Layer_1" xmlns="http://www.w3.org/2000/svg" xmlns:xlink="http://www.w3.org/1999/xlink" x="0px" y="0px"
	 width="1314.984px" height="478.711px" viewBox="0 0 1314.984 478.711" enable-background="new 0 0 1314.984 478.711"
	 xml:space="preserve">
<path fill="none" stroke="#000000" stroke-linejoin="round" stroke-miterlimit="10" d="M2.211,307.07L0,335.116
	c0,0,46.365,42.75,66.988,62.877c20.621,20.133,46.242,32.561,46.242,32.561s379.994,36.189,387.664,38.646
	c7.676,2.457,56.158,9.514,56.158,9.514s119.066-54.928,164.695-73.307c45.631-18.38,53.52,1.901,63.646-3.312
	c10.125-5.219,331.941-146.645,410.314-195.989c15.491-9.753,32.236-19.491,45.719-31.99c4.191-3.886,10.985-8.663,11.188-15.032
	c0.343-11.005-8.017-20.216-14.692-27.772c-7.688-8.698-16.071-16.864-24.396-24.948c-11.808-11.459-24.022-22.5-35.987-33.792
	c-25.566-24.127-60.952-26.487-93.912-32.552c-31.822-5.855-63.691-13.411-96.236-13.295c-15.256,0.054-29.941,1.657-45.191-0.339
	c-40.28-5.271-79.583-16.078-120.099-20.543c-8.577-0.945-17.56-2.156-26.196-1.266C767.913,7.461,541.108,0,541.108,0
	L98.175,25.707c0,0-68.709,5.918-70.643,56.887c-1.933,50.973,2.083,173.198,2.083,173.198L2.211,307.07z"/>
</svg>
