<?xml version="1.0" encoding="utf-8"?>
<!-- Generator: Adobe Illustrator 16.0.0, SVG Export Plug-In . SVG Version: 6.00 Build 0)  -->
<!DOCTYPE svg PUBLIC "-//W3C//DTD SVG 1.1//EN" "http://www.w3.org/Graphics/SVG/1.1/DTD/svg11.dtd">
<svg version="1.1" id="Layer_1" xmlns="http://www.w3.org/2000/svg" xmlns:xlink="http://www.w3.org/1999/xlink" x="0px" y="0px"
	 width="1318.792px" height="478.957px" viewBox="0 0 1318.792 478.957" enable-background="new 0 0 1318.792 478.957"
	 xml:space="preserve">
<path fill="none" stroke="#000000" stroke-linejoin="round" stroke-miterlimit="10" d="M765.359,478.957
	c0,0,48.301-8.221,55.908-10.859c7.613-2.643,386.621-47.955,386.621-47.955s25.318-13.043,45.449-33.66
	c20.129-20.623,65.455-64.475,65.455-64.475l-2.883-27.982l-28.627-50.604c0,0,1.072-122.289-2.082-173.196
	c-3.16-50.91-71.99-55.176-71.99-55.176L769.787,0c-68.633,3.912-137.173,7.476-205.916,8.872
	c-26.036,0.529-52.214-0.534-78.124,2.644c-28.101,3.446-56.491,12.101-84.54,18.419c-29.266,6.592-56.399,5.866-85.956,6.999
	c-35.772,1.371-70.6,10.455-105.145,19.129c-18.127,4.552-36.985,7.763-53.609,16.735c-14.742,7.956-26.108,20.175-37.983,31.722
	c-12.009,11.676-23.962,23.356-35.243,35.748c-4.695,5.158-17.231,15.575-17.136,23.583c0.154,12.734-25.344,10.494,54.195,57.938
	c79.537,47.443,404.658,181.092,414.908,186.066c10.25,4.969,17.645-15.498,63.705,1.775
	C645.002,426.91,765.359,478.957,765.359,478.957z"/>
</svg>
