<?xml version="1.0" encoding="utf-8"?>
<!-- Generator: Adobe Illustrator 16.0.0, SVG Export Plug-In . SVG Version: 6.00 Build 0)  -->
<!DOCTYPE svg PUBLIC "-//W3C//DTD SVG 1.1//EN" "http://www.w3.org/Graphics/SVG/1.1/DTD/svg11.dtd">
<svg version="1.1" id="Layer_1" xmlns="http://www.w3.org/2000/svg" xmlns:xlink="http://www.w3.org/1999/xlink" x="0px" y="0px"
	 width="2435.195px" height="658.146px" viewBox="0 0 2435.195 658.146" enable-background="new 0 0 2435.195 658.146"
	 xml:space="preserve">
<path fill="none" stroke="#000000" stroke-linejoin="round" stroke-miterlimit="10" d="M2369.674,528.722
	c-9.676-9.452-1151.822-445.015-1194.69-450.183c0,0-154.063-56.9-319.354-60.854c-157.278-3.762-233.883-4.076-233.883-4.076
	l-30.34-9.664c0,0-13.267-10.808-21.542,3.356c-8.277,14.161-20.02,25.439-20.02,25.439s13.147,28.626,13.1,37.914
	c-0.059,9.29,21.573,151.107-126.211,188.168c0,0-416.037,212.585-423.812,233.854c-7.774,21.271-24.624,5.322-0.16,27.87
	c24.461,22.549,282.17,117.402,282.17,117.402s564.167,10.969,581.634,15.438c17.463,4.478,31.097,4.761,31.097,4.761
	s225.014-160.134,249.688-174.748c24.679-14.609,144.146-72.401,259.436-68.46c115.291,3.939,359.312,50.153,541.604,92.188
	c182.291,42.032,219.236,79.408,405.312,34.021C2363.7,541.15,2379.354,538.172,2369.674,528.722z M78.257,505.127
	c-3.718,0-6.731-3.014-6.731-6.732c0-3.718,3.014-6.729,6.731-6.729c3.719,0,6.732,3.014,6.732,6.729
	C84.989,502.113,81.976,505.127,78.257,505.127z M134.827,557.127c-3.718,0-6.731-3.014-6.731-6.732
	c0-3.718,3.014-6.729,6.731-6.729c3.719,0,6.732,3.014,6.732,6.729C141.559,554.113,138.546,557.127,134.827,557.127z
	 M134.827,505.127c-3.718,0-6.731-3.014-6.731-6.732c0-3.718,3.014-6.729,6.731-6.729c3.719,0,6.732,3.014,6.732,6.729
	C141.559,502.113,138.546,505.127,134.827,505.127z M134.827,453.127c-3.718,0-6.731-3.014-6.731-6.732
	c0-3.718,3.014-6.729,6.731-6.729c3.719,0,6.732,3.014,6.732,6.729C141.559,450.113,138.546,453.127,134.827,453.127z
	 M191.397,557.127c-3.718,0-6.731-3.014-6.731-6.732c0-3.718,3.014-6.729,6.731-6.729c3.719,0,6.732,3.014,6.732,6.729
	C198.129,554.113,195.116,557.127,191.397,557.127z M191.397,505.127c-3.718,0-6.731-3.014-6.731-6.732
	c0-3.718,3.014-6.729,6.731-6.729c3.719,0,6.732,3.014,6.732,6.729C198.129,502.113,195.116,505.127,191.397,505.127z
	 M191.397,453.127c-3.718,0-6.731-3.014-6.731-6.732c0-3.718,3.014-6.729,6.731-6.729c3.719,0,6.732,3.014,6.732,6.729
	C198.129,450.113,195.116,453.127,191.397,453.127z M247.968,557.127c-3.718,0-6.731-3.014-6.731-6.732
	c0-3.718,3.014-6.729,6.731-6.729c3.719,0,6.732,3.014,6.732,6.729C254.7,554.113,251.687,557.127,247.968,557.127z
	 M247.968,505.127c-3.718,0-6.731-3.014-6.731-6.732c0-3.718,3.014-6.729,6.731-6.729c3.719,0,6.732,3.014,6.732,6.729
	C254.7,502.113,251.687,505.127,247.968,505.127z M247.968,453.127c-3.718,0-6.731-3.014-6.731-6.732
	c0-3.718,3.014-6.729,6.731-6.729c3.719,0,6.732,3.014,6.732,6.729C254.7,450.113,251.687,453.127,247.968,453.127z
	 M247.968,401.127c-3.718,0-6.731-3.014-6.731-6.731c0-3.719,3.014-6.729,6.731-6.729c3.719,0,6.732,3.015,6.732,6.729
	C254.7,398.113,251.687,401.127,247.968,401.127z M304.538,609.127c-3.718,0-6.731-3.014-6.731-6.732
	c0-3.718,3.015-6.729,6.731-6.729c3.719,0,6.729,3.014,6.729,6.729C311.27,606.113,308.257,609.127,304.538,609.127z
	 M304.538,557.127c-3.718,0-6.731-3.014-6.731-6.732c0-3.718,3.015-6.729,6.731-6.729c3.719,0,6.729,3.014,6.729,6.729
	C311.27,554.113,308.257,557.127,304.538,557.127z M304.538,505.127c-3.718,0-6.731-3.014-6.731-6.732
	c0-3.718,3.015-6.729,6.731-6.729c3.719,0,6.729,3.014,6.729,6.729C311.27,502.113,308.257,505.127,304.538,505.127z
	 M304.538,453.127c-3.718,0-6.731-3.014-6.731-6.732c0-3.718,3.015-6.729,6.731-6.729c3.719,0,6.729,3.014,6.729,6.729
	C311.27,450.113,308.257,453.127,304.538,453.127z M304.538,401.127c-3.718,0-6.731-3.014-6.731-6.731
	c0-3.719,3.015-6.729,6.731-6.729c3.719,0,6.729,3.015,6.729,6.729C311.27,398.113,308.257,401.127,304.538,401.127z
	 M361.108,609.127c-3.722,0-6.731-3.014-6.731-6.732c0-3.718,3.014-6.729,6.731-6.729c3.719,0,6.729,3.014,6.729,6.729
	C367.84,606.113,364.827,609.127,361.108,609.127z M361.108,557.127c-3.722,0-6.731-3.014-6.731-6.732
	c0-3.718,3.014-6.729,6.731-6.729c3.719,0,6.729,3.014,6.729,6.729C367.84,554.113,364.827,557.127,361.108,557.127z
	 M361.108,505.127c-3.722,0-6.731-3.014-6.731-6.732c0-3.718,3.014-6.729,6.731-6.729c3.719,0,6.729,3.014,6.729,6.729
	C367.84,502.113,364.827,505.127,361.108,505.127z M361.108,453.127c-3.722,0-6.731-3.014-6.731-6.732
	c0-3.718,3.014-6.729,6.731-6.729c3.719,0,6.729,3.014,6.729,6.729C367.84,450.113,364.827,453.127,361.108,453.127z
	 M361.108,401.127c-3.722,0-6.731-3.014-6.731-6.731c0-3.719,3.014-6.729,6.731-6.729c3.719,0,6.729,3.015,6.729,6.729
	C367.84,398.113,364.827,401.127,361.108,401.127z M361.108,349.127c-3.722,0-6.731-3.015-6.731-6.731
	c0-3.719,3.014-6.729,6.731-6.729c3.719,0,6.729,3.015,6.729,6.729C367.84,346.112,364.827,349.127,361.108,349.127z
	 M417.679,609.127c-3.718,0-6.729-3.014-6.729-6.732c0-3.718,3.014-6.729,6.729-6.729c3.723,0,6.732,3.014,6.732,6.729
	C424.411,606.113,421.396,609.127,417.679,609.127z M417.679,557.127c-3.718,0-6.729-3.014-6.729-6.732
	c0-3.718,3.014-6.729,6.729-6.729c3.723,0,6.732,3.014,6.732,6.729C424.411,554.113,421.396,557.127,417.679,557.127z
	 M417.679,505.127c-3.718,0-6.729-3.014-6.729-6.732c0-3.718,3.014-6.729,6.729-6.729c3.723,0,6.732,3.014,6.732,6.729
	C424.411,502.113,421.396,505.127,417.679,505.127z M417.679,453.127c-3.718,0-6.729-3.014-6.729-6.732
	c0-3.718,3.014-6.729,6.729-6.729c3.723,0,6.732,3.014,6.732,6.729C424.411,450.113,421.396,453.127,417.679,453.127z
	 M417.679,401.127c-3.718,0-6.729-3.014-6.729-6.731c0-3.719,3.014-6.729,6.729-6.729c3.723,0,6.732,3.015,6.732,6.729
	C424.411,398.113,421.396,401.127,417.679,401.127z M417.679,349.127c-3.718,0-6.729-3.015-6.729-6.731
	c0-3.719,3.014-6.729,6.729-6.729c3.723,0,6.732,3.015,6.732,6.729C424.411,346.112,421.396,349.127,417.679,349.127z
	 M417.679,297.127c-3.719,0-6.729-3.014-6.729-6.732s3.014-6.732,6.729-6.732c3.722,0,6.732,3.014,6.732,6.732
	S421.396,297.127,417.679,297.127z M474.249,609.127c-3.719,0-6.732-3.014-6.732-6.732c0-3.718,3.018-6.729,6.732-6.729
	s6.731,3.014,6.731,6.729C480.98,606.113,477.968,609.127,474.249,609.127z M474.249,557.127c-3.719,0-6.732-3.014-6.732-6.732
	c0-3.718,3.018-6.729,6.732-6.729s6.731,3.014,6.731,6.729C480.98,554.113,477.968,557.127,474.249,557.127z M474.249,505.127
	c-3.719,0-6.732-3.014-6.732-6.732c0-3.718,3.018-6.729,6.732-6.729s6.731,3.014,6.731,6.729
	C480.98,502.113,477.968,505.127,474.249,505.127z M474.249,453.127c-3.719,0-6.732-3.014-6.732-6.732
	c0-3.718,3.018-6.729,6.732-6.729s6.731,3.014,6.731,6.729C480.98,450.113,477.968,453.127,474.249,453.127z M474.249,401.127
	c-3.719,0-6.732-3.014-6.732-6.731c0-3.719,3.018-6.729,6.732-6.729s6.731,3.015,6.731,6.729
	C480.98,398.113,477.968,401.127,474.249,401.127z M474.249,349.127c-3.719,0-6.732-3.015-6.732-6.731
	c0-3.719,3.018-6.729,6.732-6.729s6.731,3.015,6.731,6.729C480.98,346.112,477.968,349.127,474.249,349.127z M474.249,297.127
	c-3.719,0-6.732-3.014-6.732-6.732s3.018-6.732,6.732-6.732s6.731,3.014,6.731,6.732S477.968,297.127,474.249,297.127z
	 M530.819,609.127c-3.723,0-6.732-3.014-6.732-6.732c0-3.718,3.014-6.729,6.732-6.729c3.718,0,6.729,3.014,6.729,6.729
	C537.551,606.113,534.538,609.127,530.819,609.127z M530.819,557.127c-3.723,0-6.732-3.014-6.732-6.732
	c0-3.718,3.014-6.729,6.732-6.729c3.718,0,6.729,3.014,6.729,6.729C537.551,554.113,534.538,557.127,530.819,557.127z
	 M530.819,505.127c-3.723,0-6.732-3.014-6.732-6.732c0-3.718,3.014-6.729,6.732-6.729c3.718,0,6.729,3.014,6.729,6.729
	C537.551,502.113,534.538,505.127,530.819,505.127z M530.819,453.127c-3.723,0-6.732-3.014-6.732-6.732
	c0-3.718,3.014-6.729,6.732-6.729c3.718,0,6.729,3.014,6.729,6.729C537.551,450.113,534.538,453.127,530.819,453.127z
	 M530.819,401.127c-3.723,0-6.732-3.014-6.732-6.731c0-3.719,3.014-6.729,6.732-6.729c3.718,0,6.729,3.015,6.729,6.729
	C537.551,398.113,534.538,401.127,530.819,401.127z M530.819,349.127c-3.723,0-6.732-3.015-6.732-6.731
	c0-3.719,3.014-6.729,6.732-6.729c3.718,0,6.729,3.015,6.729,6.729C537.551,346.112,534.538,349.127,530.819,349.127z
	 M530.819,297.127c-3.723,0-6.732-3.014-6.732-6.732s3.014-6.732,6.732-6.732c3.718,0,6.729,3.014,6.729,6.732
	C537.551,294.113,534.538,297.127,530.819,297.127z M530.819,245.127c-3.723,0-6.732-3.014-6.732-6.732s3.014-6.732,6.732-6.732
	c3.718,0,6.729,3.014,6.729,6.732C537.551,242.113,534.538,245.127,530.819,245.127z M587.39,609.127
	c-3.719,0-6.729-3.014-6.729-6.732c0-3.718,3.014-6.729,6.729-6.729c3.722,0,6.732,3.014,6.732,6.729
	C594.122,606.113,591.108,609.127,587.39,609.127z M587.39,557.127c-3.719,0-6.729-3.014-6.729-6.732
	c0-3.718,3.014-6.729,6.729-6.729c3.722,0,6.732,3.014,6.732,6.729C594.122,554.113,591.108,557.127,587.39,557.127z
	 M587.39,505.127c-3.719,0-6.729-3.014-6.729-6.732c0-3.718,3.014-6.729,6.729-6.729c3.722,0,6.732,3.014,6.732,6.729
	C594.122,502.113,591.108,505.127,587.39,505.127z M587.39,453.127c-3.719,0-6.729-3.014-6.729-6.732
	c0-3.718,3.014-6.729,6.729-6.729c3.722,0,6.732,3.014,6.732,6.729C594.122,450.113,591.108,453.127,587.39,453.127z
	 M587.39,401.127c-3.719,0-6.729-3.014-6.729-6.731c0-3.719,3.014-6.729,6.729-6.729c3.722,0,6.732,3.015,6.732,6.729
	C594.122,398.113,591.108,401.127,587.39,401.127z M587.39,349.127c-3.719,0-6.729-3.015-6.729-6.731
	c0-3.719,3.014-6.729,6.729-6.729c3.722,0,6.732,3.015,6.732,6.729C594.122,346.112,591.108,349.127,587.39,349.127z
	 M587.39,297.127c-3.719,0-6.729-3.014-6.729-6.732s3.014-6.732,6.729-6.732c3.722,0,6.732,3.014,6.732,6.732
	S591.108,297.127,587.39,297.127z M587.39,245.127c-3.719,0-6.729-3.014-6.729-6.732s3.014-6.732,6.729-6.732
	c3.722,0,6.732,3.014,6.732,6.732S591.108,245.127,587.39,245.127z M587.39,193.127c-3.719,0-6.729-3.014-6.729-6.732
	s3.014-6.732,6.729-6.732c3.722,0,6.732,3.014,6.732,6.732S591.108,193.127,587.39,193.127z M587.39,141.127
	c-3.719,0-6.729-3.014-6.729-6.732s3.014-6.732,6.729-6.732c3.722,0,6.732,3.014,6.732,6.732S591.108,141.127,587.39,141.127z
	 M587.39,89.127c-3.719,0-6.729-3.014-6.729-6.732c0-3.718,3.014-6.732,6.729-6.732c3.722,0,6.732,3.014,6.732,6.732
	C594.122,86.113,591.108,89.127,587.39,89.127z M587.39,37.127c-3.719,0-6.729-3.014-6.729-6.732c0-3.718,3.014-6.732,6.729-6.732
	c3.722,0,6.732,3.014,6.732,6.732C594.122,34.113,591.108,37.127,587.39,37.127z M643.96,609.127c-3.719,0-6.731-3.014-6.731-6.732
	c0-3.718,3.017-6.729,6.731-6.729s6.732,3.014,6.732,6.729C650.692,606.113,647.679,609.127,643.96,609.127z M643.96,557.127
	c-3.719,0-6.731-3.014-6.731-6.732c0-3.718,3.017-6.729,6.731-6.729s6.732,3.014,6.732,6.729
	C650.692,554.113,647.679,557.127,643.96,557.127z M643.96,505.127c-3.719,0-6.731-3.014-6.731-6.732
	c0-3.718,3.017-6.729,6.731-6.729s6.732,3.014,6.732,6.729C650.692,502.113,647.679,505.127,643.96,505.127z M643.96,453.127
	c-3.719,0-6.731-3.014-6.731-6.732c0-3.718,3.017-6.729,6.731-6.729s6.732,3.014,6.732,6.729
	C650.692,450.113,647.679,453.127,643.96,453.127z M643.96,401.127c-3.719,0-6.731-3.014-6.731-6.731
	c0-3.719,3.017-6.729,6.731-6.729s6.732,3.015,6.732,6.729C650.692,398.113,647.679,401.127,643.96,401.127z M643.96,349.127
	c-3.719,0-6.731-3.015-6.731-6.731c0-3.719,3.017-6.729,6.731-6.729s6.732,3.015,6.732,6.729
	C650.692,346.112,647.679,349.127,643.96,349.127z M643.96,297.127c-3.719,0-6.731-3.014-6.731-6.732s3.017-6.732,6.731-6.732
	s6.732,3.014,6.732,6.732S647.679,297.127,643.96,297.127z M643.96,245.127c-3.719,0-6.731-3.014-6.731-6.732
	s3.017-6.732,6.731-6.732s6.732,3.014,6.732,6.732S647.679,245.127,643.96,245.127z M643.96,193.127
	c-3.719,0-6.731-3.014-6.731-6.732s3.017-6.732,6.731-6.732s6.732,3.014,6.732,6.732S647.679,193.127,643.96,193.127z
	 M643.96,141.127c-3.719,0-6.731-3.014-6.731-6.732s3.017-6.732,6.731-6.732s6.732,3.014,6.732,6.732
	S647.679,141.127,643.96,141.127z M643.96,89.127c-3.719,0-6.731-3.014-6.731-6.732c0-3.718,3.017-6.732,6.731-6.732
	s6.732,3.014,6.732,6.732C650.692,86.113,647.679,89.127,643.96,89.127z M700.53,609.127c-3.723,0-6.732-3.014-6.732-6.732
	c0-3.718,3.016-6.729,6.732-6.729s6.729,3.014,6.729,6.729C707.262,606.113,704.249,609.127,700.53,609.127z M700.53,557.127
	c-3.723,0-6.732-3.014-6.732-6.732c0-3.718,3.016-6.729,6.732-6.729s6.729,3.014,6.729,6.729
	C707.262,554.113,704.249,557.127,700.53,557.127z M700.53,505.127c-3.723,0-6.732-3.014-6.732-6.732
	c0-3.718,3.016-6.729,6.732-6.729s6.729,3.014,6.729,6.729C707.262,502.113,704.249,505.127,700.53,505.127z M700.53,453.127
	c-3.723,0-6.732-3.014-6.732-6.732c0-3.718,3.016-6.729,6.732-6.729s6.729,3.014,6.729,6.729
	C707.262,450.113,704.249,453.127,700.53,453.127z M700.53,401.127c-3.723,0-6.732-3.014-6.732-6.731
	c0-3.719,3.016-6.729,6.732-6.729s6.729,3.015,6.729,6.729C707.262,398.113,704.249,401.127,700.53,401.127z M700.53,349.127
	c-3.723,0-6.732-3.015-6.732-6.731c0-3.719,3.016-6.729,6.732-6.729s6.729,3.015,6.729,6.729
	C707.262,346.112,704.249,349.127,700.53,349.127z M700.53,297.127c-3.723,0-6.732-3.014-6.732-6.732s3.016-6.732,6.732-6.732
	s6.729,3.014,6.729,6.732C707.262,294.113,704.249,297.127,700.53,297.127z M700.53,245.127c-3.723,0-6.732-3.014-6.732-6.732
	s3.016-6.732,6.732-6.732s6.729,3.014,6.729,6.732C707.262,242.113,704.249,245.127,700.53,245.127z M700.53,193.127
	c-3.723,0-6.732-3.014-6.732-6.732s3.016-6.732,6.732-6.732s6.729,3.014,6.729,6.732
	C707.262,190.113,704.249,193.127,700.53,193.127z M700.53,141.127c-3.723,0-6.732-3.014-6.732-6.732s3.016-6.732,6.732-6.732
	s6.729,3.014,6.729,6.732C707.262,138.113,704.249,141.127,700.53,141.127z M700.53,89.127c-3.723,0-6.732-3.014-6.732-6.732
	c0-3.718,3.016-6.732,6.732-6.732s6.729,3.014,6.729,6.732C707.262,86.113,704.249,89.127,700.53,89.127z M757.101,609.127
	c-3.719,0-6.729-3.014-6.729-6.732c0-3.718,3.014-6.729,6.729-6.729c3.722,0,6.732,3.014,6.732,6.729
	C763.833,606.113,760.819,609.127,757.101,609.127z M757.101,557.127c-3.719,0-6.729-3.014-6.729-6.732
	c0-3.718,3.014-6.729,6.729-6.729c3.722,0,6.732,3.014,6.732,6.729C763.833,554.113,760.819,557.127,757.101,557.127z
	 M757.101,505.127c-3.719,0-6.729-3.014-6.729-6.732c0-3.718,3.014-6.729,6.729-6.729c3.722,0,6.732,3.014,6.732,6.729
	C763.833,502.113,760.819,505.127,757.101,505.127z M757.101,453.127c-3.719,0-6.729-3.014-6.729-6.732
	c0-3.718,3.014-6.729,6.729-6.729c3.722,0,6.732,3.014,6.732,6.729C763.833,450.113,760.819,453.127,757.101,453.127z
	 M757.101,401.127c-3.719,0-6.729-3.014-6.729-6.731c0-3.719,3.014-6.729,6.729-6.729c3.722,0,6.732,3.015,6.732,6.729
	C763.833,398.113,760.819,401.127,757.101,401.127z M757.101,349.127c-3.719,0-6.729-3.015-6.729-6.731
	c0-3.719,3.014-6.729,6.729-6.729c3.722,0,6.732,3.015,6.732,6.729C763.833,346.112,760.819,349.127,757.101,349.127z
	 M757.101,297.127c-3.719,0-6.729-3.014-6.729-6.732s3.014-6.732,6.729-6.732c3.722,0,6.732,3.014,6.732,6.732
	S760.819,297.127,757.101,297.127z M757.101,245.127c-3.719,0-6.729-3.014-6.729-6.732s3.014-6.732,6.729-6.732
	c3.722,0,6.732,3.014,6.732,6.732S760.819,245.127,757.101,245.127z M757.101,193.127c-3.719,0-6.729-3.014-6.729-6.732
	s3.014-6.732,6.729-6.732c3.722,0,6.732,3.014,6.732,6.732S760.819,193.127,757.101,193.127z M757.101,141.127
	c-3.719,0-6.729-3.014-6.729-6.732s3.014-6.732,6.729-6.732c3.722,0,6.732,3.014,6.732,6.732S760.819,141.127,757.101,141.127z
	 M757.101,89.127c-3.719,0-6.729-3.014-6.729-6.732c0-3.718,3.014-6.732,6.729-6.732c3.722,0,6.732,3.014,6.732,6.732
	C763.833,86.113,760.819,89.127,757.101,89.127z M813.671,609.127c-3.719,0-6.73-3.014-6.73-6.732c0-3.718,3.016-6.729,6.73-6.729
	s6.732,3.014,6.732,6.729C820.403,606.113,817.39,609.127,813.671,609.127z M813.671,557.127c-3.719,0-6.73-3.014-6.73-6.732
	c0-3.718,3.016-6.729,6.73-6.729s6.732,3.014,6.732,6.729C820.403,554.113,817.39,557.127,813.671,557.127z M813.671,505.127
	c-3.719,0-6.73-3.014-6.73-6.732c0-3.718,3.016-6.729,6.73-6.729s6.732,3.014,6.732,6.729
	C820.403,502.113,817.39,505.127,813.671,505.127z M813.671,453.127c-3.719,0-6.73-3.014-6.73-6.732c0-3.718,3.016-6.729,6.73-6.729
	s6.732,3.014,6.732,6.729C820.403,450.113,817.39,453.127,813.671,453.127z M813.671,401.127c-3.719,0-6.73-3.014-6.73-6.731
	c0-3.719,3.016-6.729,6.73-6.729s6.732,3.015,6.732,6.729C820.403,398.113,817.39,401.127,813.671,401.127z M813.671,349.127
	c-3.719,0-6.73-3.015-6.73-6.731c0-3.719,3.016-6.729,6.73-6.729s6.732,3.015,6.732,6.729
	C820.403,346.112,817.39,349.127,813.671,349.127z M813.671,297.127c-3.719,0-6.73-3.014-6.73-6.732s3.016-6.732,6.73-6.732
	s6.732,3.014,6.732,6.732S817.39,297.127,813.671,297.127z M813.671,245.127c-3.719,0-6.73-3.014-6.73-6.732s3.016-6.732,6.73-6.732
	s6.732,3.014,6.732,6.732S817.39,245.127,813.671,245.127z M813.671,193.127c-3.719,0-6.73-3.014-6.73-6.732s3.016-6.732,6.73-6.732
	s6.732,3.014,6.732,6.732S817.39,193.127,813.671,193.127z M813.671,141.127c-3.719,0-6.73-3.014-6.73-6.732s3.016-6.732,6.73-6.732
	s6.732,3.014,6.732,6.732S817.39,141.127,813.671,141.127z M813.671,89.127c-3.719,0-6.73-3.014-6.73-6.732
	c0-3.718,3.016-6.732,6.73-6.732s6.732,3.014,6.732,6.732C820.403,86.113,817.39,89.127,813.671,89.127z M870.241,609.127
	c-3.719,0-6.732-3.014-6.732-6.732c0-3.718,3.016-6.729,6.732-6.729s6.729,3.014,6.729,6.729
	C876.973,606.113,873.96,609.127,870.241,609.127z M870.241,557.127c-3.719,0-6.732-3.014-6.732-6.732
	c0-3.718,3.016-6.729,6.732-6.729s6.729,3.014,6.729,6.729C876.973,554.113,873.96,557.127,870.241,557.127z M870.241,505.127
	c-3.719,0-6.732-3.014-6.732-6.732c0-3.718,3.016-6.729,6.732-6.729s6.729,3.014,6.729,6.729
	C876.973,502.113,873.96,505.127,870.241,505.127z M870.241,453.127c-3.719,0-6.732-3.014-6.732-6.732
	c0-3.718,3.016-6.729,6.732-6.729s6.729,3.014,6.729,6.729C876.973,450.113,873.96,453.127,870.241,453.127z M870.241,401.127
	c-3.719,0-6.732-3.014-6.732-6.731c0-3.719,3.016-6.729,6.732-6.729s6.729,3.015,6.729,6.729
	C876.973,398.113,873.96,401.127,870.241,401.127z M870.241,349.127c-3.719,0-6.732-3.015-6.732-6.731
	c0-3.719,3.016-6.729,6.732-6.729s6.729,3.015,6.729,6.729C876.973,346.112,873.96,349.127,870.241,349.127z M870.241,297.127
	c-3.719,0-6.732-3.014-6.732-6.732s3.016-6.732,6.732-6.732s6.729,3.014,6.729,6.732
	C876.973,294.113,873.96,297.127,870.241,297.127z M870.241,245.127c-3.719,0-6.732-3.014-6.732-6.732s3.016-6.732,6.732-6.732
	s6.729,3.014,6.729,6.732C876.973,242.113,873.96,245.127,870.241,245.127z M870.241,193.127c-3.719,0-6.732-3.014-6.732-6.732
	s3.016-6.732,6.732-6.732s6.729,3.014,6.729,6.732C876.973,190.113,873.96,193.127,870.241,193.127z M870.241,141.127
	c-3.719,0-6.732-3.014-6.732-6.732s3.016-6.732,6.732-6.732s6.729,3.014,6.729,6.732
	C876.973,138.113,873.96,141.127,870.241,141.127z M870.241,89.127c-3.719,0-6.732-3.014-6.732-6.732
	c0-3.718,3.016-6.732,6.732-6.732s6.729,3.014,6.729,6.732C876.973,86.113,873.96,89.127,870.241,89.127z M926.812,609.127
	c-3.721,0-6.73-3.014-6.73-6.732c0-3.718,3.014-6.729,6.73-6.729c3.72,0,6.73,3.014,6.73,6.729
	C933.544,606.113,930.53,609.127,926.812,609.127z M926.812,557.127c-3.721,0-6.73-3.014-6.73-6.732c0-3.718,3.014-6.729,6.73-6.729
	c3.72,0,6.73,3.014,6.73,6.729C933.544,554.113,930.53,557.127,926.812,557.127z M926.812,505.127c-3.721,0-6.73-3.014-6.73-6.732
	c0-3.718,3.014-6.729,6.73-6.729c3.72,0,6.73,3.014,6.73,6.729C933.544,502.113,930.53,505.127,926.812,505.127z M926.812,453.127
	c-3.721,0-6.73-3.014-6.73-6.732c0-3.718,3.014-6.729,6.73-6.729c3.72,0,6.73,3.014,6.73,6.729
	C933.544,450.113,930.53,453.127,926.812,453.127z M926.812,401.127c-3.721,0-6.73-3.014-6.73-6.731c0-3.719,3.014-6.729,6.73-6.729
	c3.72,0,6.73,3.015,6.73,6.729C933.544,398.113,930.53,401.127,926.812,401.127z M926.812,349.127c-3.721,0-6.73-3.015-6.73-6.731
	c0-3.719,3.014-6.729,6.73-6.729c3.72,0,6.73,3.015,6.73,6.729C933.543,346.112,930.53,349.127,926.812,349.127z M926.812,297.127
	c-3.721,0-6.73-3.014-6.73-6.732s3.014-6.732,6.73-6.732c3.72,0,6.73,3.014,6.73,6.732S930.53,297.127,926.812,297.127z
	 M926.812,245.127c-3.721,0-6.73-3.014-6.73-6.732s3.014-6.732,6.73-6.732c3.72,0,6.73,3.014,6.73,6.732
	C933.544,242.113,930.53,245.127,926.812,245.127z M926.812,193.127c-3.721,0-6.73-3.014-6.73-6.732s3.014-6.732,6.73-6.732
	c3.72,0,6.73,3.014,6.73,6.732C933.544,190.113,930.53,193.127,926.812,193.127z M926.812,141.127c-3.721,0-6.73-3.014-6.73-6.732
	s3.014-6.732,6.73-6.732c3.72,0,6.73,3.014,6.73,6.732C933.544,138.113,930.53,141.127,926.812,141.127z M926.812,89.127
	c-3.721,0-6.73-3.014-6.73-6.732c0-3.718,3.014-6.732,6.73-6.732c3.72,0,6.73,3.014,6.73,6.732
	C933.544,86.113,930.53,89.127,926.812,89.127z M983.382,557.127c-3.719,0-6.729-3.014-6.729-6.732c0-3.718,3.014-6.729,6.729-6.729
	s6.732,3.014,6.732,6.729C990.114,554.113,987.102,557.127,983.382,557.127z M983.382,505.127c-3.719,0-6.729-3.014-6.729-6.732
	c0-3.718,3.014-6.729,6.729-6.729s6.732,3.014,6.732,6.729C990.114,502.113,987.102,505.127,983.382,505.127z M983.382,453.127
	c-3.719,0-6.729-3.014-6.729-6.732c0-3.718,3.014-6.729,6.729-6.729s6.732,3.014,6.732,6.729
	C990.114,450.113,987.102,453.127,983.382,453.127z M983.382,401.127c-3.719,0-6.729-3.014-6.729-6.731
	c0-3.719,3.014-6.729,6.729-6.729s6.732,3.015,6.732,6.729C990.114,398.113,987.102,401.127,983.382,401.127z M983.382,349.127
	c-3.719,0-6.729-3.015-6.729-6.731c0-3.719,3.014-6.729,6.729-6.729s6.732,3.015,6.732,6.729
	C990.114,346.112,987.102,349.127,983.382,349.127z M983.382,297.127c-3.719,0-6.729-3.014-6.729-6.732s3.014-6.732,6.729-6.732
	s6.732,3.014,6.732,6.732S987.102,297.127,983.382,297.127z M983.382,245.127c-3.719,0-6.729-3.014-6.729-6.732
	s3.014-6.732,6.729-6.732s6.732,3.014,6.732,6.732S987.102,245.127,983.382,245.127z M983.382,193.127
	c-3.719,0-6.729-3.014-6.729-6.732s3.014-6.732,6.729-6.732s6.732,3.014,6.732,6.732S987.102,193.127,983.382,193.127z
	 M983.382,141.127c-3.719,0-6.729-3.014-6.729-6.732s3.014-6.732,6.729-6.732s6.732,3.014,6.732,6.732
	S987.102,141.127,983.382,141.127z M983.382,89.127c-3.719,0-6.729-3.014-6.729-6.732c0-3.718,3.014-6.732,6.729-6.732
	s6.732,3.014,6.732,6.732C990.114,86.113,987.102,89.127,983.382,89.127z M1039.952,505.127c-3.719,0-6.732-3.014-6.732-6.732
	c0-3.718,3.018-6.729,6.732-6.729s6.73,3.014,6.73,6.729C1046.686,502.113,1043.671,505.127,1039.952,505.127z M1039.952,453.127
	c-3.719,0-6.732-3.014-6.732-6.732c0-3.718,3.018-6.729,6.732-6.729s6.73,3.014,6.73,6.729
	C1046.686,450.113,1043.671,453.127,1039.952,453.127z M1039.952,401.127c-3.719,0-6.732-3.014-6.732-6.731
	c0-3.719,3.018-6.729,6.732-6.729s6.73,3.015,6.73,6.729C1046.686,398.113,1043.671,401.127,1039.952,401.127z M1039.952,349.127
	c-3.719,0-6.732-3.015-6.732-6.731c0-3.719,3.018-6.729,6.732-6.729s6.73,3.015,6.73,6.729
	C1046.686,346.112,1043.671,349.127,1039.952,349.127z M1039.952,297.127c-3.719,0-6.732-3.014-6.732-6.732s3.018-6.732,6.732-6.732
	s6.73,3.014,6.73,6.732C1046.686,294.113,1043.671,297.127,1039.952,297.127z M1039.952,245.127c-3.719,0-6.732-3.014-6.732-6.732
	s3.018-6.732,6.732-6.732s6.73,3.014,6.73,6.732C1046.686,242.113,1043.671,245.127,1039.952,245.127z M1039.952,193.127
	c-3.719,0-6.732-3.014-6.732-6.732s3.018-6.732,6.732-6.732s6.73,3.014,6.73,6.732
	C1046.686,190.113,1043.671,193.127,1039.952,193.127z M1039.952,141.127c-3.719,0-6.732-3.014-6.732-6.732s3.018-6.732,6.732-6.732
	s6.73,3.014,6.73,6.732C1046.686,138.113,1043.671,141.127,1039.952,141.127z M1039.952,89.127c-3.719,0-6.732-3.014-6.732-6.732
	c0-3.718,3.018-6.732,6.732-6.732s6.73,3.014,6.73,6.732C1046.686,86.113,1043.671,89.127,1039.952,89.127z M1096.521,505.127
	c-3.722,0-6.731-3.014-6.731-6.732c0-3.718,3.014-6.729,6.731-6.729c3.719,0,6.729,3.014,6.729,6.729
	C1103.254,502.113,1100.241,505.127,1096.521,505.127z M1096.521,453.127c-3.722,0-6.731-3.014-6.731-6.732
	c0-3.718,3.014-6.729,6.731-6.729c3.719,0,6.729,3.014,6.729,6.729C1103.254,450.113,1100.241,453.127,1096.521,453.127z
	 M1096.521,401.127c-3.722,0-6.731-3.014-6.731-6.731c0-3.719,3.014-6.729,6.731-6.729c3.719,0,6.729,3.015,6.729,6.729
	C1103.254,398.113,1100.241,401.127,1096.521,401.127z M1096.521,349.127c-3.722,0-6.731-3.015-6.731-6.731
	c0-3.719,3.014-6.729,6.731-6.729c3.719,0,6.729,3.015,6.729,6.729C1103.254,346.112,1100.241,349.127,1096.521,349.127z
	 M1096.521,297.127c-3.722,0-6.731-3.014-6.731-6.732s3.014-6.732,6.731-6.732c3.719,0,6.729,3.014,6.729,6.732
	C1103.254,294.113,1100.241,297.127,1096.521,297.127z M1096.521,245.127c-3.722,0-6.731-3.014-6.731-6.732s3.014-6.732,6.731-6.732
	c3.719,0,6.729,3.014,6.729,6.732C1103.254,242.113,1100.241,245.127,1096.521,245.127z M1096.521,193.127
	c-3.722,0-6.731-3.014-6.731-6.732s3.014-6.732,6.731-6.732c3.719,0,6.729,3.014,6.729,6.732
	C1103.254,190.113,1100.241,193.127,1096.521,193.127z M1096.521,141.127c-3.722,0-6.731-3.014-6.731-6.732s3.014-6.732,6.731-6.732
	c3.719,0,6.729,3.014,6.729,6.732C1103.254,138.113,1100.241,141.127,1096.521,141.127z M1096.521,89.127
	c-3.722,0-6.731-3.014-6.731-6.732c0-3.718,3.014-6.732,6.731-6.732c3.719,0,6.729,3.014,6.729,6.732
	C1103.254,86.113,1100.241,89.127,1096.521,89.127z M1153.093,453.127c-3.719,0-6.729-3.014-6.729-6.732
	c0-3.718,3.014-6.729,6.729-6.729c3.72,0,6.732,3.014,6.732,6.729C1159.825,450.113,1156.812,453.127,1153.093,453.127z
	 M1153.093,401.127c-3.719,0-6.729-3.014-6.729-6.731c0-3.719,3.014-6.729,6.729-6.729c3.72,0,6.732,3.015,6.732,6.729
	C1159.825,398.113,1156.812,401.127,1153.093,401.127z M1153.093,349.127c-3.719,0-6.729-3.015-6.729-6.731
	c0-3.719,3.014-6.729,6.729-6.729c3.72,0,6.732,3.015,6.732,6.729C1159.825,346.112,1156.812,349.127,1153.093,349.127z
	 M1153.093,297.127c-3.719,0-6.729-3.014-6.729-6.732s3.014-6.732,6.729-6.732c3.72,0,6.732,3.014,6.732,6.732
	S1156.812,297.127,1153.093,297.127z M1153.093,245.127c-3.719,0-6.729-3.014-6.729-6.732s3.014-6.732,6.729-6.732
	c3.72,0,6.732,3.014,6.732,6.732S1156.812,245.127,1153.093,245.127z M1153.093,193.127c-3.719,0-6.729-3.014-6.729-6.732
	s3.014-6.732,6.729-6.732c3.72,0,6.732,3.014,6.732,6.732S1156.812,193.127,1153.093,193.127z M1153.093,141.127
	c-3.719,0-6.729-3.014-6.729-6.732s3.014-6.732,6.729-6.732c3.72,0,6.732,3.014,6.732,6.732S1156.812,141.127,1153.093,141.127z
	 M1209.663,401.127c-3.719,0-6.732-3.014-6.732-6.731c0-3.719,3.019-6.729,6.732-6.729c3.719,0,6.73,3.015,6.73,6.729
	C1216.396,398.113,1213.381,401.127,1209.663,401.127z M1209.663,349.127c-3.719,0-6.732-3.015-6.732-6.731
	c0-3.719,3.019-6.729,6.732-6.729c3.719,0,6.73,3.015,6.73,6.729C1216.396,346.112,1213.381,349.127,1209.663,349.127z
	 M1209.663,297.127c-3.719,0-6.732-3.014-6.732-6.732s3.019-6.732,6.732-6.732c3.719,0,6.73,3.014,6.73,6.732
	C1216.396,294.113,1213.381,297.127,1209.663,297.127z M1209.663,245.127c-3.719,0-6.732-3.014-6.732-6.732s3.019-6.732,6.732-6.732
	c3.719,0,6.73,3.014,6.73,6.732C1216.396,242.113,1213.381,245.127,1209.663,245.127z M1209.663,193.127
	c-3.719,0-6.732-3.014-6.732-6.732s3.019-6.732,6.732-6.732c3.719,0,6.73,3.014,6.73,6.732
	C1216.396,190.113,1213.381,193.127,1209.663,193.127z M1209.663,141.127c-3.719,0-6.732-3.014-6.732-6.732s3.019-6.732,6.732-6.732
	c3.719,0,6.73,3.014,6.73,6.732C1216.396,138.113,1213.381,141.127,1209.663,141.127z M1266.233,401.127
	c-3.722,0-6.732-3.014-6.732-6.731c0-3.719,3.014-6.729,6.732-6.729c3.718,0,6.729,3.015,6.729,6.729
	C1272.965,398.113,1269.952,401.127,1266.233,401.127z M1266.233,349.127c-3.722,0-6.732-3.015-6.732-6.731
	c0-3.719,3.014-6.729,6.732-6.729c3.718,0,6.729,3.015,6.729,6.729C1272.965,346.112,1269.952,349.127,1266.233,349.127z
	 M1266.233,297.127c-3.722,0-6.732-3.014-6.732-6.732s3.014-6.732,6.732-6.732c3.718,0,6.729,3.014,6.729,6.732
	C1272.965,294.113,1269.952,297.127,1266.233,297.127z M1266.233,245.127c-3.722,0-6.732-3.014-6.732-6.732s3.014-6.732,6.732-6.732
	c3.718,0,6.729,3.014,6.729,6.732C1272.965,242.113,1269.952,245.127,1266.233,245.127z M1266.233,193.127
	c-3.722,0-6.732-3.014-6.732-6.732s3.014-6.732,6.732-6.732c3.718,0,6.729,3.014,6.729,6.732
	C1272.965,190.113,1269.952,193.127,1266.233,193.127z M1266.233,141.127c-3.722,0-6.732-3.014-6.732-6.732s3.014-6.732,6.732-6.732
	c3.718,0,6.729,3.014,6.729,6.732C1272.965,138.113,1269.952,141.127,1266.233,141.127z M1322.803,401.127
	c-3.719,0-6.729-3.014-6.729-6.731c0-3.719,3.014-6.729,6.729-6.729c3.721,0,6.732,3.015,6.732,6.729
	C1329.536,398.113,1326.521,401.127,1322.803,401.127z M1322.803,349.127c-3.719,0-6.729-3.015-6.729-6.731
	c0-3.719,3.014-6.729,6.729-6.729c3.721,0,6.732,3.015,6.732,6.729C1329.536,346.112,1326.521,349.127,1322.803,349.127z
	 M1322.803,297.127c-3.719,0-6.729-3.014-6.729-6.732s3.014-6.732,6.729-6.732c3.721,0,6.732,3.014,6.732,6.732
	C1329.536,294.113,1326.521,297.127,1322.803,297.127z M1322.803,245.127c-3.719,0-6.729-3.014-6.729-6.732s3.014-6.732,6.729-6.732
	c3.721,0,6.732,3.014,6.732,6.732C1329.536,242.113,1326.521,245.127,1322.803,245.127z M1322.803,193.127
	c-3.719,0-6.729-3.014-6.729-6.732s3.014-6.732,6.729-6.732c3.721,0,6.732,3.014,6.732,6.732
	C1329.536,190.113,1326.521,193.127,1322.803,193.127z M1379.374,401.127c-3.719,0-6.732-3.014-6.732-6.731
	c0-3.719,3.019-6.729,6.732-6.729c3.719,0,6.732,3.015,6.732,6.729C1386.105,398.113,1383.092,401.127,1379.374,401.127z
	 M1379.374,349.127c-3.719,0-6.732-3.015-6.732-6.731c0-3.719,3.019-6.729,6.732-6.729c3.719,0,6.732,3.015,6.732,6.729
	C1386.105,346.112,1383.092,349.127,1379.374,349.127z M1379.374,297.127c-3.719,0-6.732-3.014-6.732-6.732s3.019-6.732,6.732-6.732
	c3.719,0,6.732,3.014,6.732,6.732C1386.105,294.113,1383.092,297.127,1379.374,297.127z M1379.374,245.127
	c-3.719,0-6.732-3.014-6.732-6.732s3.019-6.732,6.732-6.732c3.719,0,6.732,3.014,6.732,6.732
	C1386.105,242.113,1383.092,245.127,1379.374,245.127z M1379.374,193.127c-3.719,0-6.732-3.014-6.732-6.732s3.019-6.732,6.732-6.732
	c3.719,0,6.732,3.014,6.732,6.732C1386.105,190.113,1383.092,193.127,1379.374,193.127z M1435.944,401.127
	c-3.722,0-6.732-3.014-6.732-6.731c0-3.719,3.014-6.729,6.732-6.729c3.718,0,6.729,3.015,6.729,6.729
	C1442.676,398.113,1439.663,401.127,1435.944,401.127z M1435.944,349.127c-3.722,0-6.732-3.015-6.732-6.731
	c0-3.719,3.014-6.729,6.732-6.729c3.718,0,6.729,3.015,6.729,6.729C1442.676,346.112,1439.663,349.127,1435.944,349.127z
	 M1435.944,297.127c-3.722,0-6.732-3.014-6.732-6.732s3.014-6.732,6.732-6.732c3.718,0,6.729,3.014,6.729,6.732
	C1442.676,294.113,1439.663,297.127,1435.944,297.127z M1435.944,245.127c-3.722,0-6.732-3.014-6.732-6.732s3.014-6.732,6.732-6.732
	c3.718,0,6.729,3.014,6.729,6.732C1442.676,242.113,1439.663,245.127,1435.944,245.127z M1492.514,401.127
	c-3.719,0-6.729-3.014-6.729-6.731c0-3.719,3.014-6.729,6.729-6.729c3.722,0,6.732,3.015,6.732,6.729
	C1499.247,398.113,1496.233,401.127,1492.514,401.127z M1492.514,349.127c-3.719,0-6.729-3.015-6.729-6.731
	c0-3.719,3.014-6.729,6.729-6.729c3.722,0,6.732,3.015,6.732,6.729C1499.247,346.112,1496.233,349.127,1492.514,349.127z
	 M1492.514,297.127c-3.719,0-6.729-3.014-6.729-6.732s3.014-6.732,6.729-6.732c3.722,0,6.732,3.014,6.732,6.732
	C1499.247,294.113,1496.233,297.127,1492.514,297.127z M1492.514,245.127c-3.719,0-6.729-3.014-6.729-6.732s3.014-6.732,6.729-6.732
	c3.722,0,6.732,3.014,6.732,6.732C1499.247,242.113,1496.233,245.127,1492.514,245.127z M1549.084,401.127
	c-3.719,0-6.732-3.014-6.732-6.731c0-3.719,3.019-6.729,6.732-6.729c3.719,0,6.732,3.015,6.732,6.729
	C1555.817,398.113,1552.803,401.127,1549.084,401.127z M1549.084,349.127c-3.719,0-6.732-3.015-6.732-6.731
	c0-3.719,3.019-6.729,6.732-6.729c3.719,0,6.732,3.015,6.732,6.729C1555.817,346.112,1552.803,349.127,1549.084,349.127z
	 M1549.084,297.127c-3.719,0-6.732-3.014-6.732-6.732s3.019-6.732,6.732-6.732c3.719,0,6.732,3.014,6.732,6.732
	C1555.817,294.113,1552.803,297.127,1549.084,297.127z M1549.084,245.127c-3.719,0-6.732-3.014-6.732-6.732s3.019-6.732,6.732-6.732
	c3.719,0,6.732,3.014,6.732,6.732C1555.817,242.113,1552.803,245.127,1549.084,245.127z M1605.655,401.127
	c-3.72,0-6.732-3.014-6.732-6.731c0-3.719,3.015-6.729,6.732-6.729c3.717,0,6.729,3.015,6.729,6.729
	C1612.387,398.113,1609.374,401.127,1605.655,401.127z M1605.655,349.127c-3.72,0-6.732-3.015-6.732-6.731
	c0-3.719,3.015-6.729,6.732-6.729c3.717,0,6.729,3.015,6.729,6.729C1612.387,346.112,1609.374,349.127,1605.655,349.127z
	 M1605.655,297.127c-3.72,0-6.732-3.014-6.732-6.732s3.015-6.732,6.732-6.732c3.717,0,6.729,3.014,6.729,6.732
	C1612.387,294.113,1609.374,297.127,1605.655,297.127z M1662.225,401.127c-3.719,0-6.729-3.014-6.729-6.731
	c0-3.719,3.014-6.729,6.729-6.729c3.722,0,6.732,3.015,6.732,6.729C1668.958,398.113,1665.944,401.127,1662.225,401.127z
	 M1662.225,349.127c-3.719,0-6.729-3.015-6.729-6.731c0-3.719,3.014-6.729,6.729-6.729c3.722,0,6.732,3.015,6.732,6.729
	C1668.958,346.112,1665.944,349.127,1662.225,349.127z M1662.225,297.127c-3.719,0-6.729-3.014-6.729-6.732s3.014-6.732,6.729-6.732
	c3.722,0,6.732,3.014,6.732,6.732C1668.958,294.113,1665.944,297.127,1662.225,297.127z M1718.795,401.127
	c-3.719,0-6.732-3.014-6.732-6.731c0-3.719,3.019-6.729,6.732-6.729c3.719,0,6.732,3.015,6.732,6.729
	C1725.528,398.113,1722.514,401.127,1718.795,401.127z M1718.795,349.127c-3.719,0-6.732-3.015-6.732-6.731
	c0-3.719,3.019-6.729,6.732-6.729c3.719,0,6.732,3.015,6.732,6.729C1725.528,346.112,1722.514,349.127,1718.795,349.127z
	 M1775.366,453.127c-3.72,0-6.732-3.014-6.732-6.732c0-3.718,3.015-6.729,6.732-6.729c3.717,0,6.729,3.014,6.729,6.729
	C1782.098,450.113,1779.084,453.127,1775.366,453.127z M1775.366,401.127c-3.72,0-6.732-3.014-6.732-6.731
	c0-3.719,3.015-6.729,6.732-6.729c3.717,0,6.729,3.015,6.729,6.729C1782.098,398.113,1779.084,401.127,1775.366,401.127z
	 M1775.366,349.127c-3.72,0-6.732-3.015-6.732-6.731c0-3.719,3.015-6.729,6.732-6.729c3.717,0,6.729,3.015,6.729,6.729
	C1782.098,346.112,1779.084,349.127,1775.366,349.127z M1831.938,453.127c-3.721,0-6.729-3.014-6.729-6.732
	c0-3.718,3.014-6.729,6.729-6.729c3.72,0,6.73,3.014,6.73,6.729C1838.668,450.113,1835.655,453.127,1831.938,453.127z
	 M1831.938,401.127c-3.721,0-6.729-3.014-6.729-6.731c0-3.719,3.014-6.729,6.729-6.729c3.72,0,6.73,3.015,6.73,6.729
	C1838.668,398.113,1835.655,401.127,1831.938,401.127z M1831.938,349.127c-3.721,0-6.729-3.015-6.729-6.731
	c0-3.719,3.014-6.729,6.729-6.729c3.72,0,6.73,3.015,6.73,6.729C1838.668,346.112,1835.655,349.127,1831.938,349.127z
	 M1888.506,453.127c-3.719,0-6.729-3.014-6.729-6.732c0-3.718,3.016-6.729,6.729-6.729c3.719,0,6.732,3.014,6.732,6.729
	C1895.239,450.113,1892.225,453.127,1888.506,453.127z M1888.506,401.127c-3.719,0-6.729-3.014-6.729-6.731
	c0-3.719,3.016-6.729,6.729-6.729c3.719,0,6.732,3.015,6.732,6.729C1895.239,398.113,1892.225,401.127,1888.506,401.127z
	 M1945.077,453.127c-3.719,0-6.732-3.014-6.732-6.732c0-3.718,3.019-6.729,6.732-6.729c3.719,0,6.731,3.014,6.731,6.729
	C1951.809,450.113,1948.795,453.127,1945.077,453.127z M1945.077,401.127c-3.719,0-6.732-3.014-6.732-6.731
	c0-3.719,3.019-6.729,6.732-6.729c3.719,0,6.731,3.015,6.731,6.729C1951.809,398.113,1948.795,401.127,1945.077,401.127z
	 M2001.646,505.127c-3.721,0-6.731-3.014-6.731-6.732c0-3.718,3.015-6.729,6.731-6.729c3.719,0,6.73,3.014,6.73,6.729
	C2008.379,502.113,2005.366,505.127,2001.646,505.127z M2001.646,453.127c-3.721,0-6.731-3.014-6.731-6.732
	c0-3.718,3.015-6.729,6.731-6.729c3.719,0,6.73,3.014,6.73,6.729C2008.379,450.113,2005.366,453.127,2001.646,453.127z
	 M2058.217,505.127c-3.719,0-6.729-3.014-6.729-6.732c0-3.718,3.014-6.729,6.729-6.729c3.721,0,6.732,3.014,6.732,6.729
	C2064.95,502.113,2061.938,505.127,2058.217,505.127z M2058.217,453.127c-3.719,0-6.729-3.014-6.729-6.732
	c0-3.718,3.014-6.729,6.729-6.729c3.721,0,6.732,3.014,6.732,6.729C2064.95,450.113,2061.938,453.127,2058.217,453.127z
	 M2114.788,505.127c-3.719,0-6.731-3.014-6.731-6.732c0-3.718,3.018-6.729,6.731-6.729c3.719,0,6.731,3.014,6.731,6.729
	C2121.521,502.113,2118.506,505.127,2114.788,505.127z M2114.788,453.127c-3.719,0-6.731-3.014-6.731-6.732
	c0-3.718,3.018-6.729,6.731-6.729c3.719,0,6.731,3.014,6.731,6.729C2121.521,450.113,2118.506,453.127,2114.788,453.127z
	 M2171.357,505.127c-3.721,0-6.731-3.014-6.731-6.732c0-3.718,3.014-6.729,6.731-6.729c3.719,0,6.73,3.014,6.73,6.729
	C2178.09,502.113,2175.077,505.127,2171.357,505.127z M2227.928,505.127c-3.719,0-6.729-3.014-6.729-6.732
	c0-3.718,3.014-6.729,6.729-6.729c3.721,0,6.732,3.014,6.732,6.729C2234.661,502.113,2231.646,505.127,2227.928,505.127z"/>
</svg>
