<?xml version="1.0" encoding="utf-8"?>
<!-- Generator: Adobe Illustrator 16.0.0, SVG Export Plug-In . SVG Version: 6.00 Build 0)  -->
<!DOCTYPE svg PUBLIC "-//W3C//DTD SVG 1.1//EN" "http://www.w3.org/Graphics/SVG/1.1/DTD/svg11.dtd">
<svg version="1.1" id="Layer_1" xmlns="http://www.w3.org/2000/svg" xmlns:xlink="http://www.w3.org/1999/xlink" x="0px" y="0px"
	 width="1936.25px" height="926.167px" viewBox="0 0 1936.25 926.167" enable-background="new 0 0 1936.25 926.167"
	 xml:space="preserve">
<path fill="none" stroke="#000001" stroke-linejoin="round" stroke-miterlimit="10" d="M881.505,225.536L854.304,65.381
	L700.88,74.729l-397.649,434.11c-44.923,39.504-116.493-3.1-78.531-60.746l183.543-299.396
	c12.396-18.314,4.049-30.041-19.801-24.434c-80.613,18.647-160.994,41.445-241.021,70.548C76.042,261.58,26.903,335.761,0,417.354
	c19.967,91.523,65.271,175.64,141.461,265.31c187.52,154.061,186.166,155.969,365.444,243.502
	c19.021-0.113,35.791-26.645,53.562-26.59c255.706,27.191,516.336-8.852,803.734-90.566l25.672,21.643
	c222.369-112.707,390.929-224.456,466.833-334.553c4.586-4.89,11.677-5.76,18.033-5.766c2.753-0.004,5.321,0.205,7.846,1.149
	c0.385,0.145,0.768,0.305,1.15,0.485c2.528,1.188,4.78,2.894,7.268,4.151c4.348,2.199,9.194,3.345,14.066,3.345
	c17.221,0,31.181-13.961,31.181-31.182c0-17.22-13.96-31.181-31.181-31.181c-3.492,0-6.986,0.577-10.276,1.739
	c-5.433,1.919-9.841,5.19-13.669,9.433c-3.429,3.799-7.99,6.033-13.146,5.349c-4.746-0.63-9.476-1.938-13.455-4.686
	C1601.445,200.535,1268.999,61.693,995.219,0l-42.922,169.516c-0.821,3.216-1.643,6.432-2.464,9.648
	c-3.777,14.792-7.555,29.583-11.333,44.374c-1.861,7.29-3.723,14.579-5.585,21.868c-2.143,8.405-7.424,14.844-16.669,14.843
	c-7.639-1.51-15.289-2.968-22.948-4.375c-6.597-0.982-7.743-8.188-8.73-13.583c-0.837-4.583-1.675-9.165-2.513-13.747
	C881.872,227.542,881.688,226.539,881.505,225.536z"/>
</svg>
