<?xml version="1.0" encoding="utf-8"?>
<!-- Generator: Adobe Illustrator 16.0.0, SVG Export Plug-In . SVG Version: 6.00 Build 0)  -->
<!DOCTYPE svg PUBLIC "-//W3C//DTD SVG 1.1//EN" "http://www.w3.org/Graphics/SVG/1.1/DTD/svg11.dtd">
<svg version="1.1" id="Layer_1" xmlns="http://www.w3.org/2000/svg" xmlns:xlink="http://www.w3.org/1999/xlink" x="0px" y="0px"
	 width="1873.889px" height="926.166px" viewBox="0 0 1873.889 926.166" enable-background="new 0 0 1873.889 926.166"
	 xml:space="preserve">
<path d="M147.421,194.812c80.024-29.103,160.405-51.901,241.021-70.548c23.853-5.607,32.198,6.12,19.801,24.434L224.7,448.094
	c-37.965,57.647,33.605,100.25,78.528,60.747L700.88,74.729l153.424-9.348l27.201,160.155
	C750.471,281.359,620.11,350.77,491.079,447.045c-12.062,16.981-11.604,35.672,2.559,45.758
	c84.978,98.439,191.114,180.689,326.759,252.017c29.154,8.646,53.891,9.59,73.712-0.865
	c224.021-51.506,389.144-131.514,567.386-250.943c19.688-13.858,14.486-36.274,0.816-49.082
	c-173.797-123.866-333.779-208.554-510.014-274.413L995.219,0c280.82,63.28,623.363,207.726,878.67,468.319
	c-65.076,119.061-242.918,240.135-484.019,362.334l-25.672-21.646c-287.396,81.715-548.024,117.758-803.73,90.566
	c-17.771-0.053-34.541,26.477-53.562,26.59c-179.278-87.533-177.924-89.441-365.441-243.502
	C65.271,592.995,19.967,508.876,0,417.354C26.903,335.761,76.042,261.581,147.421,194.812z M518.244,450.562
	c-17.846,14.067-18.467,25.839-1.859,35.312c87.108,102.697,193.292,192.258,326.729,247.859
	c223.548-44.99,405.333-125.134,590.214-240.935c13.826-11.342,24.928-26.699,7.462-42.631
	c-178.21-94.191-359.724-159.814-547.489-194.293C752.784,300.472,630.426,368.848,518.244,450.562z"/>
</svg>
