<?xml version="1.0" encoding="utf-8"?>
<!-- Generator: Adobe Illustrator 16.0.0, SVG Export Plug-In . SVG Version: 6.00 Build 0)  -->
<!DOCTYPE svg PUBLIC "-//W3C//DTD SVG 1.1//EN" "http://www.w3.org/Graphics/SVG/1.1/DTD/svg11.dtd">
<svg version="1.1" id="Layer_1" xmlns="http://www.w3.org/2000/svg" xmlns:xlink="http://www.w3.org/1999/xlink" x="0px" y="0px"
	 width="2457.489px" height="676.25px" viewBox="0 0 2457.489 676.25" enable-background="new 0 0 2457.489 676.25"
	 xml:space="preserve">
<path fill="none" stroke="#000000" stroke-miterlimit="10" d="M2374.875,439.381c-29.709-21.933-66.441-38.137-94.971-53.708
	c-61.18-33.394-123.693-64.25-185.201-97.027c-59.213-31.551-118.871-62.293-177.332-95.235
	c-90.525-51.01-174.646-106.765-271.719-145.385c-29.48-11.809-136.471-34.146-183.492-40.924
	c-51.332-7.268-151.092-8.887-180.521-5.18c-36.832,4.664-128.629,16.367-215.361,40.264c-40.465,11.15-152.84,52.025-194.924,67.43
	c-38.986,14.268-227.832,112.479-232.87,115.602c-5.035,3.125-214.839,125.25-231.617,133.597
	c-16.761,8.435-207.643,127.087-219.12,133.169c-11.637,6.197-102.494,69.436-110.118,77.377
	c-7.622,7.945-11.913,18.316-11.167,21.088c0.73,2.682,7.55,2.023,10.828,0.627c3.195-1.381,160.398-64.056,188.124-74.354
	c100.815-37.312,196.151-90.027,301.992-112.389c113.264-23.93,234.159-11.812,346.145,13.337
	c75.302,16.911,149.228,39.396,222.465,63.603c70.995,23.466,141.961,47.939,217.305,51.505c80.6,3.812,161.395,2.308,242.051,3.375
	c131.693,1.742,259.363,20.074,389.527,42.471c36.402,6.263,72.895,12.146,109.596,16.391c56.865,6.6,314.875,25.994,328.373,25.807
	c11.936-0.236,32.939-15.617,34.57-28.732c1.629-13.117-35.193-97.748-41.6-108.969
	C2406.288,466.077,2391.709,451.81,2374.875,439.381z M1220.406,567.264c-2.724-2.551-54.758-31.797-67.104-37.314
	c-12.344-5.52-69.366-27.617-85.081-32.279c-15.712-4.666-114.397-25.059-133.76-27.727c-19.362-2.66-144.06-6.861-167.788-6.264
	c-23.726,0.604-69.747,7.826-106.854,12.988c-43.305,6.039-281.697,57.191-294.643,59.385
	C352.237,538.246,24.4,630.57,7.161,634.441c-8.406,1.824-8.505,8.529-4.935,11.449c2.356,1.861,12.749,4.145,20.298,4.887
	c14.342,1.477,308.781,25.281,332.517,25.465c16.375,0.18,219.935-2.113,268.076-3.586c48.136-1.475,166.211-11.896,191.771-17.182
	c21.728-4.41,90.396-20.99,121.994-36.736c14.748-7.359,68.319-32.886,88.096-38.279c33.261-9.19,69.391-2.526,86.027-0.551
	c16.617,1.889,67.778,13.487,72.917,15.528c5.989,2.409,31.787,11.495,40.037,9.409c8.25-2.086,12.563-15.641,11.7-19.057
	C1232.395,573.262,1223.125,569.814,1220.406,567.264z M515.433,655.475c-18.429,4.713-36.839-5.85-41.422-23.768
	c-4.582-17.914,6.496-36.021,24.925-40.732c18.43-4.713,36.84,5.852,41.418,23.766C544.938,632.656,533.861,650.762,515.433,655.475
	z"/>
</svg>
