<?xml version="1.0" encoding="utf-8"?>
<!-- Generator: Adobe Illustrator 16.0.0, SVG Export Plug-In . SVG Version: 6.00 Build 0)  -->
<!DOCTYPE svg PUBLIC "-//W3C//DTD SVG 1.1//EN" "http://www.w3.org/Graphics/SVG/1.1/DTD/svg11.dtd">
<svg version="1.1" id="Layer_1" xmlns="http://www.w3.org/2000/svg" xmlns:xlink="http://www.w3.org/1999/xlink" x="0px" y="0px"
	 width="1997.535px" height="868.292px" viewBox="0 0 1997.535 868.292" enable-background="new 0 0 1997.535 868.292"
	 xml:space="preserve">
<path d="M1994.419,0l-10.016,0.828c-4.39-0.074-13.076,5.244-19.146,8.17c-70.058,33.782-117.916,80.977-413.222,157.534
	c-14.172,3.674-2.409,35.06-51.043,89.127c-50.187,55.835-224.408,209.458-312.178,269.137
	c-69.929,47.535-131.188,61.924-152.354,64.076c-18.837,1.834-38.988,4.844-56.381,0.703
	c-24.35-5.779-105.438-30.477-149.991-59.602c-88.843-58.07-274.45-194.592-319.651-254.555
	c-24.444-32.427-46.33-117.744-60.988-117.07C370.38,161.986,160.08,64.17,61.686,25.636C44.964,19.089-1.251-3.764,0.026,5.569
	c1.278,9.242,50.545,56.909,66.8,70.164c16.254,13.253,152.75,131.656,152.75,131.656s55.191,42.25,66.126,51.149
	c13.81,11.24,284.188,181.79,322.076,208.77c11.271,8.029,34.19,34.072,103.315,119.621
	C797.961,694.437,931.69,849.31,997.338,864.916c40.839,9.705,74.304-3.396,91.278-15.432
	c77.646-55.021,183.465-191.434,269.824-330.766c47.836-77.182,145.026-118.841,174.948-140.992
	c29.923-22.153,198.474-141.953,210.513-149.295c9.131-5.571,73.526-56.966,73.526-56.966s139.295-117.229,155.28-130.839
	c15.986-13.519,23.493-21.877,24.541-31.081C1997.981,3.654,1997.403,1.053,1994.419,0z"/>
</svg>
