<?xml version="1.0" encoding="utf-8"?>
<!-- Generator: Adobe Illustrator 16.0.0, SVG Export Plug-In . SVG Version: 6.00 Build 0)  -->
<!DOCTYPE svg PUBLIC "-//W3C//DTD SVG 1.1//EN" "http://www.w3.org/Graphics/SVG/1.1/DTD/svg11.dtd">
<svg version="1.1" id="Layer_1" xmlns="http://www.w3.org/2000/svg" xmlns:xlink="http://www.w3.org/1999/xlink" x="0px" y="0px"
	 width="933.568px" height="548.726px" viewBox="0 0 933.568 548.726" enable-background="new 0 0 933.568 548.726"
	 xml:space="preserve">
<path fill="none" stroke="#000000" stroke-linejoin="round" stroke-miterlimit="10" d="M520.385,496.595l5.904-9.215
	c3.383-5.328,12.455-21.24,27.215-48.096c1.945-3.457,3.674-6.555,5.4-9.289c19.211-30.416,34.598-63.021,52.271-94.32
	c6.91-12.237,20.592-33.19,40.896-63c1.295-1.872,5.256-7.849,11.807-17.784c42.049-64.296,101.377-129.096,136.08-154.584
	c11.822-8.682,22.902-18.319,34.562-27.216c13.683-10.44,21.603-17.784,23.902-21.96c3.441-6.237,18.506-10.745,10.439-18.648
	l-7.125-6.983c-4.248,0.216-11.595,0.432-22.031,0.576c-106.353,1.467-212.659,7.863-319.037,5.472
	c-15.414-0.347-28.879,3.197-39.307,14.976c-6.791,7.672-20.277,20.906-30.677,31.104l-7.633,7.488
	c-1.367,1.368-12.888,10.296-34.485,26.712c-1.226,0.936-4.03,3.168-8.642,6.768c-13.896,10.944-34.633,25.704-62.209,44.353
	c-20.52,13.823-59.256,40.968-116.352,81.576c-38.553,27.419-77.5,54.314-117.792,79.127c-24.868,15.312-49.493,31.023-74.521,46.08
	c-9.865,5.934-32.865,19.438-28.512,19.438h13.536c2.521,0.289,13.392,0.504,32.399,0.725
	c83.341,0.943,166.301,10.378,249.558,13.604c52.857,2.051,112.99,19.26,128.228,76.248c2.02,6.84,4.318,18.361,6.695,34.561
	c1.152,7.199,1.801,11.021,2.017,11.664c1.368,3.24,3.672,6.623,7.127,10.08c5.399,5.479,12.457,9.287,21.1,11.447
	c15.352,3.838,32.198-1.346,40.465-15.264l5.471-9.219C512.174,514.537,515.055,504.916,520.385,496.595"/>
</svg>
