<?xml version="1.0" encoding="utf-8"?>
<!-- Generator: Adobe Illustrator 16.0.0, SVG Export Plug-In . SVG Version: 6.00 Build 0)  -->
<!DOCTYPE svg PUBLIC "-//W3C//DTD SVG 1.1//EN" "http://www.w3.org/Graphics/SVG/1.1/DTD/svg11.dtd">
<svg version="1.1" id="Layer_1" xmlns="http://www.w3.org/2000/svg" xmlns:xlink="http://www.w3.org/1999/xlink" x="0px" y="0px"
	 width="933.571px" height="542.071px" viewBox="0 0 933.571 542.071" enable-background="new 0 0 933.571 542.071"
	 xml:space="preserve">
<path fill="none" stroke="#000000" stroke-linejoin="round" stroke-miterlimit="10" d="M72.669,41.458
	c-3.113-1.64-8.396-5.856-11.46-1.849c-3.677,13.126-15.728,22.752-30.028,22.752C13.96,62.362,0,48.402,0,31.181
	C0,13.96,13.96,0,31.181,0c12.205,0,22.772,7.012,27.892,17.228l-0.002-0.004c3.669,2.801,8.527,1.62,12.764,1.624
	c4.248,0.216,11.592,0.432,22.032,0.576c106.35,1.467,212.657,7.863,319.036,5.472c14.821-0.333,29.179,3.651,39.308,14.976
	c6.79,7.672,20.278,20.906,30.67,31.104l7.635,7.488c1.365,1.368,12.891,10.296,34.486,26.712c1.229,0.936,4.031,3.168,8.645,6.768
	c13.895,10.944,34.633,25.704,62.209,44.353c20.52,13.823,59.256,40.968,116.352,81.576c38.555,27.419,77.5,54.315,117.791,79.125
	c24.869,15.312,49.492,31.022,74.521,46.08c9.859,5.936,32.861,19.438,28.514,19.438h-13.537
	c-2.521,0.289-13.391,0.504-32.396,0.724c-83.344,0.944-166.303,10.381-249.561,13.604c-31.322,1.215-62.457,6.584-90.355,21.697
	c-34.709,18.803-39.289,53.104-44.564,89.109c-1.152,7.197-1.801,11.018-2.02,11.664c-1.365,3.238-3.672,6.621-7.127,10.078
	c-5.396,5.477-12.457,9.287-21.098,11.447c-15.35,3.838-32.202-1.346-40.463-15.264l-5.473-9.219
	c-5.04-8.475-7.922-18.096-13.252-26.416l-5.902-9.215c-3.384-5.328-12.456-21.24-27.215-48.096c-1.944-3.457-3.675-6.553-5.4-9.289
	c-19.208-30.416-34.597-63.021-52.271-94.32c-6.912-12.236-20.593-33.189-40.896-63c-1.296-1.872-5.256-7.849-11.808-17.784
	c-42.05-64.295-101.378-129.095-136.082-154.583c-11.822-8.682-22.902-18.319-34.56-27.216c-13.68-10.44-21.6-17.784-23.904-21.96
	c-0.57-1.034-1.46-2.02-2.511-2.982L72.669,41.458z"/>
</svg>
