<?xml version="1.0" encoding="utf-8"?>
<!-- Generator: Adobe Illustrator 16.0.0, SVG Export Plug-In . SVG Version: 6.00 Build 0)  -->
<!DOCTYPE svg PUBLIC "-//W3C//DTD SVG 1.1//EN" "http://www.w3.org/Graphics/SVG/1.1/DTD/svg11.dtd">
<svg version="1.1" id="Layer_1" xmlns="http://www.w3.org/2000/svg" xmlns:xlink="http://www.w3.org/1999/xlink" x="0px" y="0px"
	 width="1182.266px" height="939.993px" viewBox="0 0 1182.266 939.993" enable-background="new 0 0 1182.266 939.993"
	 xml:space="preserve">
<path fill="none" stroke="#000000" stroke-linejoin="round" stroke-miterlimit="10" d="M247.688,215.723
	c11.142-2.171,25.107-4.883,41.904-8.136c17.827-3.453,37.022-7.171,53.354-10.995c3.377-0.791,53.054-2.801,65.121-2.697
	c216.433,1.858,432.835-18.711,649.196-8.158c23.104,1.126,70.072,6.362,105.037,10.26c1.562,0.174,3.173,0.428,4.754,0.804"/>
<path fill="none" stroke="#000000" stroke-linejoin="round" stroke-miterlimit="10" d="M172.433,96.215
	c-10.031-14.138-16.174-23.177-18.495-26.971c4.886-0.349,8.474-0.715,10.901-1.249c8.386-1.844,16.778-3.654,25.178-5.43"/>
<path fill="none" stroke="#000001" stroke-linejoin="round" stroke-miterlimit="10" d="M246.641,202.646
	c4.625-1.419,8.036-2.57,10.233-3.455l0,0l20.312-7.119l0,0c100.878-29.397,206.167-36.039,310.62-42.393
	c108.674-6.611,217.607-11.118,326.419-5.797c40.7,1.99,81.346,4.894,121.93,8.521c32.402,2.896,65.626,6.335,99.38,10.472l0,0
	l11.01,1.341l0,0c0.435,0.054,1.659,0.003,3.597-0.15"/>
</svg>
