<?xml version="1.0" encoding="utf-8"?>
<!-- Generator: Adobe Illustrator 16.0.0, SVG Export Plug-In . SVG Version: 6.00 Build 0)  -->
<!DOCTYPE svg PUBLIC "-//W3C//DTD SVG 1.1//EN" "http://www.w3.org/Graphics/SVG/1.1/DTD/svg11.dtd">
<svg version="1.1" id="Layer_1" xmlns="http://www.w3.org/2000/svg" xmlns:xlink="http://www.w3.org/1999/xlink" x="0px" y="0px"
	 width="635.109px" height="824.465px" viewBox="0 0 635.109 824.465" enable-background="new 0 0 635.109 824.465"
	 xml:space="preserve">
<path fill="none" stroke="#000000" stroke-linejoin="round" stroke-miterlimit="10" d="M592.537,764.25
	c3.528-1.386,7.37-2.146,11.391-2.146c17.221,0,31.182,13.961,31.182,31.182s-13.961,31.181-31.182,31.181
	c-17.222,0-31.182-13.96-31.182-31.181c0-4.844,1.104-9.43,3.076-13.521c-0.11-1.431,0.327-2.965-0.949-4.002
	c-0.979-0.794-2.331-0.979-3.484-1.396c-11.438,0.037-23.935-8.963-33.339-13.322c-15.295-7.09-30.808-13.689-46.218-20.525
	c-8.526-3.778-17.02-7.643-25.413-11.712c-25.105-12.171-49.697-25.381-73.771-39.483c-23.371-13.695-46.338-28.139-68.578-43.604
	c-21.758-15.132-42.717-31.393-62.41-49.141c-19.844-17.883-38.28-37.205-56.416-56.797c-2.185-2.36-4.479-4.66-6.566-7.107
	c-62.77-73.621-94.118-146.729-128.332-243.244c-13.933-39.301-34.229-69.046-46.297-106.592
	C11.985,145.29,8.15,99.939,2.549,59.636C0.423,44.339,0.981,25.458,0.061,9.602c-0.896-15.41,8.172-8.305,20.19-5.568
	C76.8,16.911,154.732,47.38,232.924,65.913c60.816,14.416,123.654,15.648,164.711,34.142c4.131,1.861,15.09,7.844,17.916,10.629
	c26.78,26.398,36.594,105.197,47.444,142.332c3.646,12.489,7.031,25.057,9.82,37.508c36.405,162.514,79.995,348.667,114.877,467.232
	c0.104,0.357,0.191,0.71,0.261,1.059c0.311,1,0.646,1.988,0.908,3.004c0.204,0.79,0.41,1.659,1.211,2.044
	C590.812,764.217,591.74,764.146,592.537,764.25z"/>
</svg>
