<?xml version="1.0" encoding="utf-8"?>
<!-- Generator: Adobe Illustrator 16.0.0, SVG Export Plug-In . SVG Version: 6.00 Build 0)  -->
<!DOCTYPE svg PUBLIC "-//W3C//DTD SVG 1.1//EN" "http://www.w3.org/Graphics/SVG/1.1/DTD/svg11.dtd">
<svg version="1.1" id="Layer_1" xmlns="http://www.w3.org/2000/svg" xmlns:xlink="http://www.w3.org/1999/xlink" x="0px" y="0px"
	 width="1182.265px" height="939.993px" viewBox="0 0 1182.265 939.993" enable-background="new 0 0 1182.265 939.993"
	 xml:space="preserve">
<path fill="none" stroke="#000001" stroke-linejoin="round" stroke-miterlimit="10" d="M945.796,217.912
	c13.919,2.721,21.162,4.159,21.754,4.311l0,0l202.713,42.41l0,0c4.029,0.842,12.021,2.841,12.002,2.902l0,0l-14.871,45.895
	l-15.992-6.694l-39.73-12.865l-11.816-0.194l0,0c-2.467-0.041-16.578,3.617-24.793,5.746c-10.301,2.669-20.047,7.033-29.312,12.229
	c-91.697,51.415-188.834,92.653-279.469,146.004c-48.602,28.604-101.297,49.829-148.977,80.038
	c-4.191,2.654-11.965,9.527-28.468,15.227c-0.954,0.33,29.763,243.375,45.597,364.941l0,0l1.391,10.666l0,0
	c0.293,2.365,0.461,5.826,0.502,10.607c0.051,6.057-28.859-21.408-42.004-33.658c-68.384-63.732-188.493-175.668-204.587-191.805
	c-10.083-10.111-20.923-19.436-31.104-29.447c-18.848-18.535-20.941,32.572-39.619,26.525c-7.124-2.307-14.423-3.838-21.785-4.709
	c-3.666-5.275-8.005-14.779-13.201-28.646l0,0l-43.206-99.586l0,0c-8.759-20.189-18.831-39.77-29.106-59.223
	c-1.736-3.287-3.334-6.529-4.979-9.863c-10.546-21.363-26.874-54.445-34.917-62.314c-43.913-42.964-91.105-83.429-146.805-110.127
	c-7.795-3.737-22.468-10.771-22.627-12.625l0,0l-1.265-14.789l0,0c-1.347-5.658-1.467-16.974-0.452-34.127
	c0.304-4.215,0.649-11.823,1.011-22.755c1.082-30.452,1.679-45.849,1.745-46.055c2.259-6.975,9.842-9.186,16.537-9.932
	c14.117-3.574,19.896-18.643,19.94-31.931l0,0l6.453-138.812l0,0l3.597,0.15l10.107-2.171l0,0
	c8.269-1.777,50.301-5.765,75.503-8.157C360.001-6.22,586.579-7.46,809.615,27.703c61.43,9.684,122.65,20.68,183.519,33.413
	c15.705,1.106,33.066,0.83,42.228-14.213c3.935-12.714,15.784-21.95,29.793-21.95c17.221,0,31.18,13.96,31.18,31.181
	c0,17.221-13.959,31.181-31.18,31.181c-2.703,0-5.326-0.344-7.828-0.991l0.003,0c-14.638-4.695-30.412,2.1-41.214,12.022
	c-18.319,26.172-30.312,43.316-35.852,51.506c-3.916,5.745-10.186,14.49-18.898,26.377c-9.863,13.424-15.916,22.178-17.967,26.416
	c-2.282,5.458-3.546,11.632,2.405,15.268L945.796,217.912z"/>
</svg>
