<?xml version="1.0" encoding="utf-8"?>
<!-- Generator: Adobe Illustrator 16.0.0, SVG Export Plug-In . SVG Version: 6.00 Build 0)  -->
<!DOCTYPE svg PUBLIC "-//W3C//DTD SVG 1.1//EN" "http://www.w3.org/Graphics/SVG/1.1/DTD/svg11.dtd">
<svg version="1.1" id="Layer_1" xmlns="http://www.w3.org/2000/svg" xmlns:xlink="http://www.w3.org/1999/xlink" x="0px" y="0px"
	 width="1300.242px" height="613.632px" viewBox="0 0 1300.242 613.632" enable-background="new 0 0 1300.242 613.632"
	 xml:space="preserve">
<path fill="none" stroke="#000000" stroke-linejoin="round" stroke-miterlimit="10" d="M1105.335,552.048
	c-0.968,16.943-1.246,34.291-1.008,52.217l-1.656,1.365l-10.296,0.219c-0.864,0-4.393,0.432-10.656,1.438
	c-15.191,2.232-25.848,3.672-32.04,4.176l-11.088,0.576l-10.655,1.152c-4.681,0.576-37.729,0.576-42.692,0.072
	c-28.517-2.953-75.962-21.527-83.093-25.992c-3.312-2.018-15.479-13.463-16.344-15.049c-1.656-2.809-2.592-6.119-2.732-10.01
	c-0.071-0.861,1.009-7.773,3.312-20.664c2.16-12.672,3.385-19.654,3.456-20.664c6.325-47.598,12.979-97.402,24.984-143.928
	c3.6-13.752,5.976-23.979,7.196-30.602c2.735-14.188,8.023-26.559,12.954-40.072c6.299-17.267,19.678-28.373,33.485-39.704
	c16.561-14.04,30.96-25.345,43.057-33.984c8.644-6.192,17.495-12.744,26.644-19.8l8.712-6.84l8.928-6.553
	c4.896-3.6,10.729-8.063,17.568-13.463c10.584-8.137,16.484-12.673,17.564-13.393l9.215-6.191l8.785-6.769
	c12.959-10.008,27.938-20.809,44.855-32.185c27-18.359,48.239-33.047,63.504-44.279l8.928-6.48l9.36-5.903l9-6.48
	c1.94-1.44,5.11-3.168,9.504-5.399c0.576,0.647,0.937,1.008,0.937,1.151l0.647,10.368c0.504,7.848,1.008,14.977,1.513,21.24
	c2.088,26.136,3.455,47.376,4.104,63.863c0.287,4.969,0.792,12.097,1.584,21.24c0.432,5.112,1.008,15.553,1.728,31.465l0.436,10.512
	l-6.911,8.136c-4.248,4.896-6.624,7.704-7.272,8.28c-12.6,13.896-22.104,25.056-28.512,33.408
	c-33.334,43.559-57.38,79.984-72.069,109.289C1121.108,435.974,1108.801,491.429,1105.335,552.048z M158.996,541.531
	c1.53,20.279,1.997,41.092,1.708,62.73l1.656,1.367l10.297,0.217c0.863,0,4.392,0.436,10.656,1.439
	c15.191,2.23,25.848,3.672,32.039,4.176l11.088,0.576l10.656,1.15c4.68,0.574,37.729,0.574,42.695,0.068
	c28.513-2.949,75.961-21.525,83.089-25.988c3.312-2.02,15.479-13.465,16.345-15.049c1.655-2.811,2.596-6.119,2.734-10.01
	c0.072-0.861-1.008-7.773-3.312-20.684c-6.442-37.785-12.327-75.66-18.567-113.48c-2.82-17.09-5.48-34.312-9.874-51.1
	c-10.221-39.051-12.699-75.757-45.357-103.385c-2.735-2.376-5.473-4.68-8.279-6.984c-16.561-14.04-30.961-25.344-43.057-33.983
	c-8.641-6.192-17.496-12.744-26.641-19.801l-8.711-6.84l-8.928-6.552c-4.896-3.6-10.729-8.064-17.568-13.464
	c-10.584-8.136-16.488-12.672-17.568-13.393l-9.216-6.191l-8.784-6.769c-12.96-10.008-27.936-20.808-44.855-32.184
	c-27-18.36-48.24-33.048-63.504-44.28L38.81,76.64l-9.361-5.904l-9-6.479c-1.943-1.44-5.111-3.169-9.504-5.4
	c-0.576,0.647-0.936,1.008-0.936,1.152L9.359,70.38c-0.504,7.849-1.008,14.977-1.512,21.24C5.76,117.759,4.393,139,3.744,155.488
	c-0.289,4.968-0.793,12.096-1.584,21.24c-0.432,5.111-1.008,15.552-1.729,31.464L0,218.704l6.912,8.136
	c4.248,4.896,6.623,7.704,7.271,8.28c12.6,13.896,22.104,25.056,28.512,33.408c33.335,43.56,57.384,79.991,72.071,109.293
	C142.197,432.546,154.729,484.974,158.996,541.531z"/>
</svg>
