<?xml version="1.0" encoding="utf-8"?>
<!-- Generator: Adobe Illustrator 16.0.0, SVG Export Plug-In . SVG Version: 6.00 Build 0)  -->
<!DOCTYPE svg PUBLIC "-//W3C//DTD SVG 1.1//EN" "http://www.w3.org/Graphics/SVG/1.1/DTD/svg11.dtd">
<svg version="1.1" id="Layer_1" xmlns="http://www.w3.org/2000/svg" xmlns:xlink="http://www.w3.org/1999/xlink" x="0px" y="0px"
	 width="1775.93px" height="1092.869px" viewBox="0 0 1775.93 1092.869" enable-background="new 0 0 1775.93 1092.869"
	 xml:space="preserve">
<path fill="none" stroke="#000000" stroke-linejoin="round" stroke-miterlimit="10" d="M746.908,92.005
	c-0.604,14.297-6.102,25.915-16.383,34.853l0,0l-8.223,7.14"/>
<path fill="none" stroke="#000000" stroke-linejoin="round" stroke-miterlimit="10" d="M824.786,183.147
	c1.461-0.896,4.342,14.743,6.067,22.23c0.896,3.874,5.658,21.287,14.236,52.192c12.716,45.551,21.633,80.416,26.854,104.584"/>
<path fill="none" stroke="#000000" stroke-linejoin="round" stroke-miterlimit="10" d="M200.861,1021.601
	c1.215-6.141,9.012-33.586,23.383-82.438c10.371-35.254,29.628-73.357,50.435-106.854c77.826-125.284,136.276-205.7,212.413-302.529
	c17.479-22.229,54.501-65.227,113.587-127.148c40.823-42.787,100.354-103.869,150.754-155.585
	c11.268-11.562,26.286-25.478,44.93-41.607"/>
<path fill="none" stroke="#000000" stroke-linejoin="round" stroke-miterlimit="10" d="M887.931,175.568
	c-0.809,0.292-1.297,0.704-1.433,1.246l0,0l-0.352,1.399l0,0l4.269,9.645l3.404,10.285l0,0c3.84,11.398,7.482,21.582,10.898,30.695
	c10.037,26.789,20.133,53.731,32.01,79.621c4.773,10.406,8.74,20.435,11.986,30.028"/>
<path fill="none" stroke="#000001" stroke-linejoin="round" stroke-miterlimit="10" d="M715.496,140.018
	c-21.886,19.645-75.563,69.673-161.101,150.019c-52.688,49.403-87.604,81.238-104.854,95.504
	c-30.819,25.488-61.484,51.171-91.359,77.764c-82.031,73.021-163.432,146.761-243.188,222.266L12.508,782.591"/>
</svg>
