<?xml version="1.0" encoding="utf-8"?>
<!-- Generator: Adobe Illustrator 16.0.0, SVG Export Plug-In . SVG Version: 6.00 Build 0)  -->
<!DOCTYPE svg PUBLIC "-//W3C//DTD SVG 1.1//EN" "http://www.w3.org/Graphics/SVG/1.1/DTD/svg11.dtd">
<svg version="1.1" id="Layer_1" xmlns="http://www.w3.org/2000/svg" xmlns:xlink="http://www.w3.org/1999/xlink" x="0px" y="0px"
	 width="1748.666px" height="1099.49px" viewBox="0 0 1748.666 1099.49" enable-background="new 0 0 1748.666 1099.49"
	 xml:space="preserve">
<path fill="none" stroke="#000000" stroke-linejoin="round" stroke-miterlimit="10" d="M1735.868,795.835l12.798-12.658l0,0
	c-0.056,0.059-5.561-134.459-5.505-201.746l0,0l0.009-10.844l0,0c0.002-0.509-20.045-21.086-60.195-61.681
	c-20.759-20.989-262.868-257.826-394.477-386.564l0,0L1163.925,0.483l0,0c-0.604-0.615-3.967-0.634-10.025-0.106
	c-23.661,2.056-65.493,30.996-95.288,51.608c-1.022,0.707-14.785,13.003-41.289,36.786c0.275,14.308,5.508,26.047,15.589,35.215l0,0
	l8.055,7.325l0,0c15.249,13.78,69.991,67.081,164.33,159.804c51.552,50.586,85.736,83.206,102.66,97.86
	c30.233,26.179,60.312,52.552,89.573,79.815c80.354,74.862,160.062,150.427,238.084,227.72l0,0L1735.868,795.835L1735.868,795.835
	 M1486.817,1099.488l8.854-10.51l0,0c13.23-17.229,27.105-33.941,41.003-50.634c1.546-1.854,3.789-4.672,6.688-8.502
	c-1.035-6.174-8.028-33.836-20.974-83.086c-9.342-35.541-27.479-74.188-47.301-108.274
	c-74.144-127.502-130.227-209.586-203.51-308.593c-16.822-22.729-52.579-66.782-109.834-130.404
	c-39.562-43.958-97.285-106.748-146.158-159.911c-11.464-12.469-26.979-27.652-46.408-45.379
	c-11.062-10.083-19.443-16.963-25.049-20.63c-1.436-0.939-4.771,14.611-6.717,22.044c-1.007,3.846-6.274,21.113-15.749,51.757
	c-14.04,45.158-23.968,79.75-29.887,103.757c-1.147,4.649,43.191,38.936,65.282,57.844c41.5,35.523,81.739,72.579,118.6,112.938
	c29.443,32.242,61.893,61.66,90.584,94.598c35.85,41.154,97.129,111.504,106.101,124.705c43.929,64.633,71.94,107.096,84.13,127.502
	c26.086,43.676,61.761,103.398,77.059,131.73c12.986,24.055,21.591,39.948,25.945,47.85
	C1468.823,1065.234,1486.538,1099.82,1486.817,1099.488L1486.817,1099.488 M884.583,176.629l-0.371-1.393l0,0
	c-2.312-8.645-94.479,17.723-141.205,28.994c-137.098,33.074-272.71,71.877-407.802,112.312
	C232.001,347.434,33.422,402.061,28.704,418.791c-1.172,4.153-4.819,14.285-11.105,30.653c-3.453,8.984-5.87,15.911-7.359,20.646
	c-5.604,17.84-12.527,32.042-9.503,31.271c127.792-32.678,531.562-125.756,802.566-159.688l0,0l10.756-1.348l0,0
	c2.455-0.231,5.945-1.125,10.604-2.417c3.087-9.645,6.89-19.736,11.492-30.221c11.446-26.082,21.098-53.185,30.693-80.136
	c3.269-9.166,6.74-19.41,10.398-30.87l0,0l3.23-10.338L884.583,176.629L884.583,176.629"/>
</svg>
