<?xml version="1.0" encoding="utf-8"?>
<!-- Generator: Adobe Illustrator 16.0.0, SVG Export Plug-In . SVG Version: 6.00 Build 0)  -->
<!DOCTYPE svg PUBLIC "-//W3C//DTD SVG 1.1//EN" "http://www.w3.org/Graphics/SVG/1.1/DTD/svg11.dtd">
<svg version="1.1" id="Layer_1" xmlns="http://www.w3.org/2000/svg" xmlns:xlink="http://www.w3.org/1999/xlink" x="0px" y="0px"
	 width="2110.377px" height="832.883px" viewBox="0 0 2110.377 832.883" enable-background="new 0 0 2110.377 832.883"
	 xml:space="preserve">
<path fill="none" stroke="#000000" stroke-linejoin="round" stroke-miterlimit="10" d="M584.052,211.182l-9.38,5.612l0,0
	c-43.252,25.905-65.055,39.087-65.713,39.55c-2.888,2.006-134.438,100.302-198.066,154.247
	c-11.096,9.406-21.854,19.205-33.104,28.435c-22.276,18.271-57.137,50.334-104.274,96.172
	c-31.262,30.396-58.018,64.984-87.416,97.129c-14.671,16.041-28.889,32.486-42.89,49.119c-3.535,4.193-10.658,12.439-21.521,24.479
	c-4.648,5.229-6.971,7.99-7.072,8.295c-2.599,6.943,6.425,46.189,15.288,61.502c9.097,15.725,16.844,32.168,25.378,48.193
	c1.134,2.131,3.191,5.172,6.222,8.969c2.021-2.148,8.787-10.547,20.144-24.932c6.26-7.885,23.648-26.127,52.016-54.68
	c27.902-28.082,57.844-54.035,86.352-81.49c20.232-19.486,41.534-38.824,64.009-57.918c13.747-11.678,50.313-40.814,75.647-61.002
	C393.569,525.854,428.015,499.41,465,476.74c33.975-20.826,69.34-39.225,104.846-57.279c14.611-7.431,27.499-14.138,38.608-19.967
	l0,0l47.938-25.53l0,0c7.562-4.073,14.058-7.173,19.538-9.349c-1.9-2.786-24.973-41.12-69.262-114.845
	C594.463,229.542,586.941,216.66,584.052,211.182L584.052,211.182z M395.642,0l-4.204,3.937l0,0
	c-2.94,2.757-64.122,55.503-183.597,158.29c-58.478,50.311-117.551,99.93-175.9,150.392c-8.283,7.166-13.891,11.922-16.866,14.117
	c0.961,6.398,1.476,17.062,1.49,32.14c0.05,4.688,0.21,15.29,0.482,31.803c0.292,17.707-0.065,35.417-0.067,53.125
	c0,6.213-0.328,20.822-1.092,44.025c-0.593,18.033-1.532,46.604-2.645,54.062c-3.088,20.721-4.627,41.643-7.806,62.35
	c-0.194,1.266-1.029,8.062-2.462,20.648c-0.88,8.123-1.87,14.969-2.975,20.736l0,0l0.491,0.525l163.522-155.078l91.977-86.118l0,0
	c6.116-5.728,307.104-254.534,306.887-254.79l0,0l-29.918-35.113l-8.787-6.962l0,0c-10.677-8.458-45.867-38.239-68.66-57.527
	C416.559,17.599,396.587,0.693,395.642,0L395.642,0z M1047.602,316.007c15.094-3.037,143.121-17.153,214.764-25.052
	c162.724-17.941,324.693-43.32,488.109-54.341c33.521-2.261,120.752-11.366,261.76-27.397c48.212-5.537,80.926-9.079,98.146-10.626
	c-2.662-19.261-9.287-69.299-19.885-150.189l0,0l-1.354-10.717l0,0c-0.343-2.279-1.174-5.588-2.576-10.061
	c-32.694,0.059-54.317,0.537-64.811,1.354c-25.184,1.961-50.312,4.564-75.48,6.688c-79.041,6.674-212.639,17.953-237.146,19.748
	c-34.574,2.531-92.464,9.006-173.711,19.645c-34.061,4.428-77.585,10.348-130.729,17.705
	c-58.014,8.033-116.182,14.931-174.146,23.323c-14.256,2.063-57.726,7.832-130.198,17.278l0,0l-84.621,13.604l0,0
	c-105.374,17.377-211.309,31.31-316.402,50.355c-4.619,0.837-11.89,1.946-21.801,3.4c-19.041,2.756-33.541,5.332-43.5,7.732
	c2.513,4.012,4.42,7.073,5.636,9.047c15.114,24.526,26.369,51.184,40.693,76.155c0.354,0.615,10.691,23.728,31.092,69.327
	c7.146-0.881,24.972-3.511,53.536-7.969c2.984-0.525,28.072-3.612,75.257-9.335C909.56,337.276,991.02,327.397,1047.602,316.007
	L1047.602,316.007z"/>
</svg>
