<?xml version="1.0" encoding="utf-8"?>
<!-- Generator: Adobe Illustrator 16.0.0, SVG Export Plug-In . SVG Version: 6.00 Build 0)  -->
<!DOCTYPE svg PUBLIC "-//W3C//DTD SVG 1.1//EN" "http://www.w3.org/Graphics/SVG/1.1/DTD/svg11.dtd">
<svg version="1.1" id="Layer_1" xmlns="http://www.w3.org/2000/svg" xmlns:xlink="http://www.w3.org/1999/xlink" x="0px" y="0px"
	 width="1182.266px" height="939.993px" viewBox="0 0 1182.266 939.993" enable-background="new 0 0 1182.266 939.993"
	 xml:space="preserve">
<path d="M1180.582,251.984c-1.082-30.452-1.681-45.849-1.744-46.055c-2.262-6.975-9.842-9.186-16.536-9.932
	c-34.965-3.897-81.938-9.133-105.037-10.26c-216.363-10.553-432.767,10.016-649.199,8.158c-12.064-0.104-61.744,1.906-65.121,2.697
	c-16.33,3.824-35.521,7.542-53.352,10.995c-48.853,9.462-73.759,14.349-74.877,14.635l-202.714,42.41
	c-4.029,0.843-12.021,2.842-12.001,2.902l14.858,45.894l15.996-6.694l39.729-12.865l11.816-0.194
	c2.468-0.041,16.579,3.617,24.792,5.746c10.303,2.669,20.051,7.033,29.313,12.228c91.694,51.416,188.833,92.657,279.468,146.004
	c48.6,28.603,101.296,49.83,148.976,80.039c4.189,2.652,11.968,9.525,28.471,15.227c0.954,0.33-29.766,243.375-45.6,364.941
	l-1.389,10.666c-0.294,2.363-0.46,5.824-0.501,10.605c-0.052,6.059,28.857-21.408,42.002-33.658
	c68.386-63.73,188.495-175.668,204.589-191.805c10.084-10.111,20.924-19.436,31.104-29.447c9.64-9.479,15.751,1.15,20.335,9.445
	c3.814,6.91,7.521,14.613,16.057,15.943c8.562,1.334,17.688,0.135,24.697-5.209c8.528-6.508,9.957-17.52,13.516-27.012
	l43.207-99.586c8.759-20.188,18.83-39.77,29.105-59.223c1.733-3.287,3.335-6.529,4.979-9.863
	c10.545-21.365,26.873-54.446,34.916-62.313c43.913-42.966,91.105-83.428,146.808-110.127c7.797-3.737,22.469-10.77,22.628-12.625
	l1.265-14.789c1.347-5.658,1.467-16.974,0.453-34.127C1181.286,270.524,1180.944,262.916,1180.582,251.984z M155.651,302.893
	c-3.719,0-6.729-3.014-6.729-6.732c0-3.718,3.014-6.732,6.729-6.732c3.721,0,6.732,3.014,6.732,6.732
	C162.383,299.879,159.37,302.893,155.651,302.893z M212.221,302.893c-3.719,0-6.732-3.014-6.732-6.732
	c0-3.718,3.017-6.732,6.732-6.732s6.732,3.014,6.732,6.732C218.953,299.879,215.94,302.893,212.221,302.893z M212.221,250.893
	c-3.719,0-6.732-3.014-6.732-6.732c0-3.718,3.017-6.732,6.732-6.732s6.732,3.014,6.732,6.732
	C218.953,247.879,215.94,250.893,212.221,250.893z M268.792,354.893c-3.722,0-6.732-3.014-6.732-6.732
	c0-3.718,3.015-6.732,6.732-6.732s6.729,3.014,6.729,6.732C275.524,351.879,272.51,354.893,268.792,354.893z M268.792,302.893
	c-3.722,0-6.732-3.014-6.732-6.732c0-3.718,3.015-6.732,6.732-6.732s6.729,3.014,6.729,6.732
	C275.524,299.879,272.51,302.893,268.792,302.893z M268.792,250.893c-3.722,0-6.732-3.014-6.732-6.732
	c0-3.718,3.015-6.732,6.732-6.732s6.729,3.014,6.729,6.732C275.524,247.879,272.51,250.893,268.792,250.893z M325.362,354.893
	c-3.719,0-6.729-3.014-6.729-6.732c0-3.718,3.014-6.732,6.729-6.732s6.732,3.014,6.732,6.732
	C332.094,351.879,329.078,354.893,325.362,354.893z M325.362,302.893c-3.719,0-6.729-3.014-6.729-6.732
	c0-3.718,3.014-6.732,6.729-6.732s6.732,3.014,6.732,6.732C332.094,299.879,329.078,302.893,325.362,302.893z M325.362,250.893
	c-3.719,0-6.729-3.014-6.729-6.732c0-3.718,3.014-6.732,6.729-6.732s6.732,3.014,6.732,6.732
	C332.094,247.879,329.078,250.893,325.362,250.893z M381.932,406.893c-3.719,0-6.732-3.014-6.732-6.732
	c0-3.718,3.017-6.732,6.732-6.732s6.729,3.014,6.729,6.732C388.661,403.879,385.651,406.893,381.932,406.893z M381.932,354.893
	c-3.719,0-6.732-3.014-6.732-6.732c0-3.718,3.017-6.732,6.732-6.732s6.729,3.014,6.729,6.732
	C388.661,351.879,385.651,354.893,381.932,354.893z M381.932,302.893c-3.719,0-6.732-3.014-6.732-6.732
	c0-3.718,3.017-6.732,6.732-6.732s6.729,3.014,6.729,6.732C388.661,299.879,385.651,302.893,381.932,302.893z M381.932,250.893
	c-3.719,0-6.732-3.014-6.732-6.732c0-3.718,3.017-6.732,6.732-6.732s6.729,3.014,6.729,6.732
	C388.661,247.879,385.651,250.893,381.932,250.893z M438.502,406.893c-3.722,0-6.732-3.014-6.732-6.732
	c0-3.718,3.014-6.732,6.732-6.732c3.718,0,6.729,3.014,6.729,6.732C445.234,403.879,442.221,406.893,438.502,406.893z
	 M438.502,354.893c-3.722,0-6.732-3.014-6.732-6.732c0-3.718,3.014-6.732,6.732-6.732c3.718,0,6.729,3.014,6.729,6.732
	C445.234,351.879,442.221,354.893,438.502,354.893z M438.502,302.893c-3.722,0-6.732-3.014-6.732-6.732
	c0-3.718,3.014-6.732,6.732-6.732c3.718,0,6.729,3.014,6.729,6.732C445.234,299.879,442.221,302.893,438.502,302.893z
	 M438.502,250.893c-3.722,0-6.732-3.014-6.732-6.732c0-3.718,3.014-6.732,6.732-6.732c3.718,0,6.729,3.014,6.729,6.732
	C445.234,247.879,442.221,250.893,438.502,250.893z M495.073,458.893c-3.719,0-6.729-3.014-6.729-6.729s3.014-6.732,6.729-6.732
	s6.732,3.017,6.732,6.732S498.789,458.893,495.073,458.893z M495.073,406.893c-3.719,0-6.729-3.014-6.729-6.732
	c0-3.718,3.014-6.732,6.729-6.732s6.732,3.014,6.732,6.732C501.805,403.879,498.789,406.893,495.073,406.893z M495.073,354.893
	c-3.719,0-6.729-3.014-6.729-6.732c0-3.718,3.014-6.732,6.729-6.732s6.732,3.014,6.732,6.732
	C501.805,351.879,498.789,354.893,495.073,354.893z M495.073,302.893c-3.719,0-6.729-3.014-6.729-6.732
	c0-3.718,3.014-6.732,6.729-6.732s6.732,3.014,6.732,6.732C501.805,299.879,498.789,302.893,495.073,302.893z M495.073,250.893
	c-3.719,0-6.729-3.014-6.729-6.732c0-3.718,3.014-6.732,6.729-6.732s6.732,3.014,6.732,6.732
	C501.805,247.879,498.789,250.893,495.073,250.893z M551.643,458.893c-3.719,0-6.732-3.014-6.732-6.729s3.017-6.732,6.732-6.732
	s6.73,3.017,6.73,6.732S555.362,458.893,551.643,458.893z M551.643,406.893c-3.719,0-6.732-3.014-6.732-6.732
	c0-3.718,3.017-6.732,6.732-6.732s6.73,3.014,6.73,6.732C558.372,403.879,555.362,406.893,551.643,406.893z M551.643,354.893
	c-3.719,0-6.732-3.014-6.732-6.732c0-3.718,3.017-6.732,6.732-6.732s6.73,3.014,6.73,6.732
	C558.372,351.879,555.362,354.893,551.643,354.893z M551.643,302.893c-3.719,0-6.732-3.014-6.732-6.732
	c0-3.718,3.017-6.732,6.732-6.732s6.73,3.014,6.73,6.732C558.372,299.879,555.362,302.893,551.643,302.893z M551.643,250.893
	c-3.719,0-6.732-3.014-6.732-6.732c0-3.718,3.017-6.732,6.732-6.732s6.73,3.014,6.73,6.732
	C558.372,247.879,555.362,250.893,551.643,250.893z M608.213,822.893c-3.722,0-6.732-3.014-6.732-6.732
	c0-3.717,3.014-6.732,6.732-6.732c3.718,0,6.729,3.02,6.729,6.732C614.945,819.879,611.932,822.893,608.213,822.893z
	 M608.213,770.893c-3.722,0-6.732-3.014-6.732-6.732c0-3.717,3.014-6.732,6.732-6.732c3.718,0,6.729,3.02,6.729,6.732
	C614.945,767.879,611.932,770.893,608.213,770.893z M608.213,718.893c-3.722,0-6.732-3.014-6.732-6.732
	c0-3.717,3.014-6.732,6.732-6.732c3.718,0,6.729,3.02,6.729,6.732C614.945,715.879,611.932,718.893,608.213,718.893z
	 M608.213,666.893c-3.722,0-6.732-3.014-6.732-6.732c0-3.717,3.014-6.732,6.732-6.732c3.718,0,6.729,3.02,6.729,6.732
	C614.945,663.879,611.932,666.893,608.213,666.893z M608.213,510.893c-3.722,0-6.732-3.014-6.732-6.732
	c0-3.717,3.014-6.732,6.732-6.732c3.718,0,6.729,3.02,6.729,6.732C614.945,507.879,611.932,510.893,608.213,510.893z
	 M608.213,458.893c-3.722,0-6.732-3.014-6.732-6.729s3.014-6.732,6.732-6.732c3.718,0,6.729,3.017,6.729,6.732
	S611.932,458.893,608.213,458.893z M608.213,406.893c-3.722,0-6.732-3.014-6.732-6.732c0-3.718,3.014-6.732,6.732-6.732
	c3.718,0,6.729,3.014,6.729,6.732C614.945,403.879,611.932,406.893,608.213,406.893z M608.213,354.893
	c-3.722,0-6.732-3.014-6.732-6.732c0-3.718,3.014-6.732,6.732-6.732c3.718,0,6.729,3.014,6.729,6.732
	C614.945,351.879,611.932,354.893,608.213,354.893z M608.213,302.893c-3.722,0-6.732-3.014-6.732-6.732
	c0-3.718,3.014-6.732,6.732-6.732c3.718,0,6.729,3.014,6.729,6.732C614.945,299.879,611.932,302.893,608.213,302.893z
	 M608.213,250.893c-3.722,0-6.732-3.014-6.732-6.732c0-3.718,3.014-6.732,6.732-6.732c3.718,0,6.729,3.014,6.729,6.732
	C614.945,247.879,611.932,250.893,608.213,250.893z M664.781,770.893c-3.719,0-6.729-3.014-6.729-6.732
	c0-3.717,3.014-6.732,6.729-6.732c3.72,0,6.732,3.02,6.732,6.732C671.515,767.879,668.5,770.893,664.781,770.893z M664.781,718.893
	c-3.719,0-6.729-3.014-6.729-6.732c0-3.717,3.014-6.732,6.729-6.732c3.72,0,6.732,3.02,6.732,6.732
	C671.515,715.879,668.5,718.893,664.781,718.893z M664.781,666.893c-3.719,0-6.729-3.014-6.729-6.732
	c0-3.717,3.014-6.732,6.729-6.732c3.72,0,6.732,3.02,6.732,6.732C671.515,663.879,668.5,666.893,664.781,666.893z M664.781,614.893
	c-3.719,0-6.729-3.014-6.729-6.732c0-3.717,3.014-6.732,6.729-6.732c3.72,0,6.732,3.02,6.732,6.732
	C671.515,611.879,668.5,614.893,664.781,614.893z M664.781,562.893c-3.719,0-6.729-3.014-6.729-6.732
	c0-3.717,3.014-6.732,6.729-6.732c3.72,0,6.732,3.02,6.732,6.732C671.515,559.879,668.5,562.893,664.781,562.893z M664.781,510.893
	c-3.719,0-6.729-3.014-6.729-6.732c0-3.717,3.014-6.732,6.729-6.732c3.72,0,6.732,3.02,6.732,6.732
	C671.515,507.879,668.5,510.893,664.781,510.893z M664.781,458.893c-3.719,0-6.729-3.014-6.729-6.729s3.014-6.732,6.729-6.732
	c3.72,0,6.732,3.017,6.732,6.732S668.5,458.893,664.781,458.893z M664.781,406.893c-3.719,0-6.729-3.014-6.729-6.732
	c0-3.718,3.014-6.732,6.729-6.732c3.72,0,6.732,3.014,6.732,6.732C671.515,403.879,668.5,406.893,664.781,406.893z M664.781,354.893
	c-3.719,0-6.729-3.014-6.729-6.732c0-3.718,3.014-6.732,6.729-6.732c3.72,0,6.732,3.014,6.732,6.732
	C671.515,351.879,668.5,354.893,664.781,354.893z M664.781,302.893c-3.719,0-6.729-3.014-6.729-6.732
	c0-3.718,3.014-6.732,6.729-6.732c3.72,0,6.732,3.014,6.732,6.732C671.515,299.879,668.5,302.893,664.781,302.893z M664.781,250.893
	c-3.719,0-6.729-3.014-6.729-6.732c0-3.718,3.014-6.732,6.729-6.732c3.72,0,6.732,3.014,6.732,6.732
	C671.515,247.879,668.5,250.893,664.781,250.893z M721.354,718.893c-3.719,0-6.732-3.014-6.732-6.732
	c0-3.717,3.017-6.732,6.732-6.732s6.732,3.02,6.732,6.732C728.086,715.879,725.072,718.893,721.354,718.893z M721.354,666.893
	c-3.719,0-6.732-3.014-6.732-6.732c0-3.717,3.017-6.732,6.732-6.732s6.732,3.02,6.732,6.732
	C728.086,663.879,725.072,666.893,721.354,666.893z M721.354,614.893c-3.719,0-6.732-3.014-6.732-6.732
	c0-3.717,3.017-6.732,6.732-6.732s6.732,3.02,6.732,6.732C728.086,611.879,725.072,614.893,721.354,614.893z M721.354,562.893
	c-3.719,0-6.732-3.014-6.732-6.732c0-3.717,3.017-6.732,6.732-6.732s6.732,3.02,6.732,6.732
	C728.086,559.879,725.072,562.893,721.354,562.893z M721.354,510.893c-3.719,0-6.732-3.014-6.732-6.732
	c0-3.717,3.017-6.732,6.732-6.732s6.732,3.02,6.732,6.732C728.086,507.879,725.072,510.893,721.354,510.893z M721.354,458.893
	c-3.719,0-6.732-3.014-6.732-6.729s3.017-6.732,6.732-6.732s6.732,3.017,6.732,6.732S725.072,458.893,721.354,458.893z
	 M721.354,406.893c-3.719,0-6.732-3.014-6.732-6.732c0-3.718,3.017-6.732,6.732-6.732s6.732,3.014,6.732,6.732
	C728.086,403.879,725.072,406.893,721.354,406.893z M721.354,354.893c-3.719,0-6.732-3.014-6.732-6.732
	c0-3.718,3.017-6.732,6.732-6.732s6.732,3.014,6.732,6.732C728.086,351.879,725.072,354.893,721.354,354.893z M721.354,302.893
	c-3.719,0-6.732-3.014-6.732-6.732c0-3.718,3.017-6.732,6.732-6.732s6.732,3.014,6.732,6.732
	C728.086,299.879,725.072,302.893,721.354,302.893z M721.354,250.893c-3.719,0-6.732-3.014-6.732-6.732
	c0-3.718,3.017-6.732,6.732-6.732s6.732,3.014,6.732,6.732C728.086,247.879,725.072,250.893,721.354,250.893z M777.924,666.893
	c-3.722,0-6.732-3.014-6.732-6.732c0-3.717,3.014-6.732,6.732-6.732c3.718,0,6.729,3.02,6.729,6.732
	C784.656,663.879,781.643,666.893,777.924,666.893z M777.924,614.893c-3.722,0-6.732-3.014-6.732-6.732
	c0-3.717,3.014-6.732,6.732-6.732c3.718,0,6.729,3.02,6.729,6.732C784.656,611.879,781.643,614.893,777.924,614.893z
	 M777.924,562.893c-3.722,0-6.732-3.014-6.732-6.732c0-3.717,3.014-6.732,6.732-6.732c3.718,0,6.729,3.02,6.729,6.732
	C784.656,559.879,781.643,562.893,777.924,562.893z M777.924,510.893c-3.722,0-6.732-3.014-6.732-6.732
	c0-3.717,3.014-6.732,6.732-6.732c3.718,0,6.729,3.02,6.729,6.732C784.656,507.879,781.643,510.893,777.924,510.893z
	 M777.924,458.893c-3.722,0-6.732-3.014-6.732-6.729s3.014-6.732,6.732-6.732c3.718,0,6.729,3.017,6.729,6.732
	S781.643,458.893,777.924,458.893z M777.924,406.893c-3.722,0-6.732-3.014-6.732-6.732c0-3.718,3.014-6.732,6.732-6.732
	c3.718,0,6.729,3.014,6.729,6.732C784.656,403.879,781.643,406.893,777.924,406.893z M777.924,354.893
	c-3.722,0-6.732-3.014-6.732-6.732c0-3.718,3.014-6.732,6.732-6.732c3.718,0,6.729,3.014,6.729,6.732
	C784.656,351.879,781.643,354.893,777.924,354.893z M777.924,302.893c-3.722,0-6.732-3.014-6.732-6.732
	c0-3.718,3.014-6.732,6.732-6.732c3.718,0,6.729,3.014,6.729,6.732C784.656,299.879,781.643,302.893,777.924,302.893z
	 M777.924,250.893c-3.722,0-6.732-3.014-6.732-6.732c0-3.718,3.014-6.732,6.732-6.732c3.718,0,6.729,3.014,6.729,6.732
	C784.656,247.879,781.643,250.893,777.924,250.893z M834.491,614.893c-3.719,0-6.729-3.014-6.729-6.732
	c0-3.717,3.014-6.732,6.729-6.732c3.721,0,6.732,3.02,6.732,6.732C841.226,611.879,838.213,614.893,834.491,614.893z
	 M834.491,562.893c-3.719,0-6.729-3.014-6.729-6.732c0-3.717,3.014-6.732,6.729-6.732c3.721,0,6.732,3.02,6.732,6.732
	C841.226,559.879,838.213,562.893,834.491,562.893z M834.491,510.893c-3.719,0-6.729-3.014-6.729-6.732
	c0-3.717,3.014-6.732,6.729-6.732c3.721,0,6.732,3.02,6.732,6.732C841.226,507.879,838.213,510.893,834.491,510.893z
	 M834.491,458.893c-3.719,0-6.729-3.014-6.729-6.729s3.014-6.732,6.729-6.732c3.721,0,6.732,3.017,6.732,6.732
	S838.213,458.893,834.491,458.893z M834.491,406.893c-3.719,0-6.729-3.014-6.729-6.732c0-3.718,3.014-6.732,6.729-6.732
	c3.721,0,6.732,3.014,6.732,6.732C841.226,403.879,838.213,406.893,834.491,406.893z M834.491,354.893
	c-3.719,0-6.729-3.014-6.729-6.732c0-3.718,3.014-6.732,6.729-6.732c3.721,0,6.732,3.014,6.732,6.732
	C841.226,351.879,838.213,354.893,834.491,354.893z M834.491,302.893c-3.719,0-6.729-3.014-6.729-6.732
	c0-3.718,3.014-6.732,6.729-6.732c3.721,0,6.732,3.014,6.732,6.732C841.226,299.879,838.213,302.893,834.491,302.893z
	 M834.491,250.893c-3.719,0-6.729-3.014-6.729-6.732c0-3.718,3.014-6.732,6.729-6.732c3.721,0,6.732,3.014,6.732,6.732
	C841.226,247.879,838.213,250.893,834.491,250.893z M891.064,614.893c-3.719,0-6.731-3.014-6.731-6.732
	c0-3.717,3.016-6.732,6.731-6.732s6.732,3.02,6.732,6.732C897.796,611.879,894.781,614.893,891.064,614.893z M891.064,562.893
	c-3.719,0-6.731-3.014-6.731-6.732c0-3.717,3.016-6.732,6.731-6.732s6.732,3.02,6.732,6.732
	C897.796,559.879,894.781,562.893,891.064,562.893z M891.064,510.893c-3.719,0-6.731-3.014-6.731-6.732
	c0-3.717,3.016-6.732,6.731-6.732s6.732,3.02,6.732,6.732C897.796,507.879,894.781,510.893,891.064,510.893z M891.064,458.893
	c-3.719,0-6.731-3.014-6.731-6.729s3.016-6.732,6.731-6.732s6.732,3.017,6.732,6.732S894.781,458.893,891.064,458.893z
	 M891.064,406.893c-3.719,0-6.731-3.014-6.731-6.732c0-3.718,3.016-6.732,6.731-6.732s6.732,3.014,6.732,6.732
	C897.796,403.879,894.781,406.893,891.064,406.893z M891.064,354.893c-3.719,0-6.731-3.014-6.731-6.732
	c0-3.718,3.016-6.732,6.731-6.732s6.732,3.014,6.732,6.732C897.796,351.879,894.781,354.893,891.064,354.893z M891.064,302.893
	c-3.719,0-6.731-3.014-6.731-6.732c0-3.718,3.016-6.732,6.731-6.732s6.732,3.014,6.732,6.732
	C897.796,299.879,894.781,302.893,891.064,302.893z M891.064,250.893c-3.719,0-6.731-3.014-6.731-6.732
	c0-3.718,3.016-6.732,6.731-6.732s6.732,3.014,6.732,6.732C897.796,247.879,894.781,250.893,891.064,250.893z M947.635,510.893
	c-3.722,0-6.732-3.014-6.732-6.732c0-3.717,3.014-6.732,6.732-6.732c3.718,0,6.729,3.02,6.729,6.732
	C954.365,507.879,951.354,510.893,947.635,510.893z M947.635,458.893c-3.722,0-6.732-3.014-6.732-6.729s3.014-6.732,6.732-6.732
	c3.718,0,6.729,3.017,6.729,6.732S951.354,458.893,947.635,458.893z M947.635,406.893c-3.722,0-6.732-3.014-6.732-6.732
	c0-3.718,3.014-6.732,6.732-6.732c3.718,0,6.729,3.014,6.729,6.732C954.365,403.879,951.354,406.893,947.635,406.893z
	 M947.635,354.893c-3.722,0-6.732-3.014-6.732-6.732c0-3.718,3.014-6.732,6.732-6.732c3.718,0,6.729,3.014,6.729,6.732
	C954.365,351.879,951.354,354.893,947.635,354.893z M947.635,302.893c-3.722,0-6.732-3.014-6.732-6.732
	c0-3.718,3.014-6.732,6.732-6.732c3.718,0,6.729,3.014,6.729,6.732C954.365,299.879,951.354,302.893,947.635,302.893z
	 M947.635,250.893c-3.722,0-6.732-3.014-6.732-6.732c0-3.718,3.014-6.732,6.732-6.732c3.718,0,6.729,3.014,6.729,6.732
	C954.365,247.879,951.354,250.893,947.635,250.893z M1004.202,406.893c-3.719,0-6.729-3.014-6.729-6.732
	c0-3.718,3.014-6.732,6.729-6.732c3.721,0,6.732,3.014,6.732,6.732C1010.937,403.879,1007.924,406.893,1004.202,406.893z
	 M1004.202,354.893c-3.719,0-6.729-3.014-6.729-6.732c0-3.718,3.014-6.732,6.729-6.732c3.721,0,6.732,3.014,6.732,6.732
	C1010.937,351.879,1007.924,354.893,1004.202,354.893z M1004.202,302.893c-3.719,0-6.729-3.014-6.729-6.732
	c0-3.718,3.014-6.732,6.729-6.732c3.721,0,6.732,3.014,6.732,6.732C1010.937,299.879,1007.924,302.893,1004.202,302.893z
	 M1004.202,250.893c-3.719,0-6.729-3.014-6.729-6.732c0-3.718,3.014-6.732,6.729-6.732c3.721,0,6.732,3.014,6.732,6.732
	C1010.937,247.879,1007.924,250.893,1004.202,250.893z M1060.775,354.893c-3.719,0-6.731-3.014-6.731-6.732
	c0-3.718,3.016-6.732,6.731-6.732s6.732,3.014,6.732,6.732C1067.507,351.879,1064.491,354.893,1060.775,354.893z M1060.775,302.893
	c-3.719,0-6.731-3.014-6.731-6.732c0-3.718,3.016-6.732,6.731-6.732s6.732,3.014,6.732,6.732
	C1067.507,299.879,1064.491,302.893,1060.775,302.893z M1060.775,250.893c-3.719,0-6.731-3.014-6.731-6.732
	c0-3.718,3.016-6.732,6.731-6.732s6.732,3.014,6.732,6.732C1067.507,247.879,1064.491,250.893,1060.775,250.893z M1117.346,302.893
	c-3.721,0-6.732-3.014-6.732-6.732c0-3.718,3.016-6.732,6.732-6.732s6.729,3.014,6.729,6.732
	C1124.075,299.879,1121.064,302.893,1117.346,302.893z M1117.346,250.893c-3.721,0-6.732-3.014-6.732-6.732
	c0-3.718,3.016-6.732,6.732-6.732s6.729,3.014,6.729,6.732C1124.075,247.879,1121.064,250.893,1117.346,250.893z M172.437,96.213
	c19.161,27.375,31.653,45.229,37.338,53.638c3.916,5.745,10.19,14.491,18.903,26.377c9.857,13.424,15.917,22.178,17.967,26.416
	c4.625-1.418,8.036-2.57,10.233-3.455l20.312-7.119c100.877-29.397,206.167-36.039,310.62-42.393
	c108.673-6.611,217.604-11.118,326.419-5.797c40.697,1.99,81.343,4.893,121.927,8.521c32.405,2.896,65.626,6.335,99.38,10.472
	l11.013,1.341c0.435,0.054,1.654,0.003,3.597-0.15l-6.454-138.812l-3.597,0.15l-10.107-2.171c-8.27-1.777-50.301-5.765-75.503-8.157
	C830.041-6.22,603.464-7.46,380.428,27.702c-72.229,11.386-144.167,24.585-215.585,40.291c-2.428,0.534-6.016,0.9-10.901,1.249
	C156.262,73.036,162.405,82.075,172.437,96.213z M1068.538,100.629c-3.716,0.148-6.847-2.743-6.993-6.459s2.743-6.847,6.459-6.995
	c3.718-0.148,6.849,2.743,6.995,6.459C1075.148,97.35,1072.257,100.481,1068.538,100.629z M1065.937,35.216
	c3.716-0.148,6.848,2.744,6.995,6.459c0.146,3.715-2.743,6.847-6.459,6.995s-6.85-2.744-6.995-6.459
	C1059.326,38.496,1062.221,35.364,1065.937,35.216z M1012.016,102.88c-3.716,0.148-6.847-2.744-6.995-6.459
	c-0.146-3.716,2.744-6.847,6.46-6.995c3.716-0.148,6.847,2.743,6.995,6.459C1018.62,99.601,1015.731,102.732,1012.016,102.88z
	 M1009.408,37.467c3.717-0.148,6.85,2.744,6.995,6.459c0.147,3.715-2.743,6.847-6.459,6.995s-6.848-2.744-6.995-6.459
	C1002.804,40.747,1005.695,37.615,1009.408,37.467z M955.49,105.131c-3.716,0.148-6.847-2.743-6.995-6.459
	c-0.146-3.716,2.744-6.847,6.46-6.995c3.719-0.148,6.85,2.744,6.994,6.459C962.098,101.852,959.203,104.983,955.49,105.131z
	 M952.886,39.718c3.716-0.148,6.847,2.744,6.995,6.459c0.146,3.715-2.743,6.847-6.459,6.995c-3.719,0.148-6.851-2.744-6.995-6.459
	C946.278,42.998,949.17,39.866,952.886,39.718z M898.965,107.382c-3.719,0.148-6.85-2.743-6.995-6.459
	c-0.147-3.716,2.743-6.847,6.459-6.995c3.716-0.146,6.848,2.743,6.995,6.459C905.572,104.103,902.681,107.234,898.965,107.382z
	 M896.36,41.969c3.716-0.148,6.847,2.744,6.995,6.459c0.146,3.715-2.744,6.847-6.46,6.995s-6.847-2.744-6.994-6.459
	C889.753,45.249,892.645,42.117,896.36,41.969z M842.439,109.633c-3.716,0.148-6.847-2.744-6.995-6.459
	c-0.146-3.715,2.743-6.847,6.459-6.995c3.716-0.147,6.85,2.744,6.995,6.459C849.047,106.354,846.155,109.485,842.439,109.633z
	 M839.835,44.22c3.716-0.146,6.847,2.744,6.991,6.459c0.148,3.715-2.741,6.847-6.459,6.995c-3.716,0.148-6.847-2.744-6.994-6.459
	C833.228,47.5,836.116,44.368,839.835,44.22z M785.911,111.883c-3.716,0.148-6.848-2.743-6.992-6.459
	c-0.148-3.716,2.74-6.847,6.459-6.995c3.716-0.148,6.847,2.744,6.992,6.459C792.521,108.604,789.63,111.735,785.911,111.883z
	 M783.31,46.47c3.715-0.146,6.847,2.744,6.994,6.459c0.146,3.715-2.743,6.847-6.459,6.995c-3.716,0.148-6.85-2.744-6.995-6.459
	C776.699,49.75,779.594,46.618,783.31,46.47z M729.389,114.134c-3.716,0.148-6.851-2.744-6.995-6.459
	c-0.148-3.715,2.743-6.847,6.459-6.995s6.847,2.743,6.995,6.459C735.992,110.855,733.105,113.986,729.389,114.134z M726.781,48.721
	c3.716-0.148,6.851,2.744,6.995,6.459c0.148,3.715-2.743,6.847-6.459,6.995c-3.716,0.148-6.847-2.744-6.995-6.459
	C720.177,52.001,723.067,48.869,726.781,48.721z M672.864,116.385c-3.717,0.147-6.848-2.744-6.995-6.459
	c-0.146-3.716,2.743-6.847,6.459-6.995c3.718-0.148,6.85,2.744,6.995,6.459C679.471,113.106,676.576,116.237,672.864,116.385z
	 M670.259,50.972c3.716-0.148,6.848,2.744,6.995,6.459c0.146,3.715-2.743,6.847-6.459,6.995c-3.719,0.148-6.85-2.744-6.995-6.459
	C663.652,54.251,666.541,51.12,670.259,50.972z M616.338,118.636c-3.719,0.148-6.85-2.743-6.995-6.459
	c-0.147-3.716,2.744-6.847,6.46-6.995s6.847,2.744,6.995,6.459C622.945,115.356,620.054,118.488,616.338,118.636z M613.733,53.223
	c3.716-0.148,6.848,2.744,6.995,6.459c0.146,3.715-2.743,6.847-6.459,6.995c-3.716,0.148-6.848-2.744-6.995-6.459
	C607.125,56.502,610.018,53.371,613.733,53.223z M559.812,120.887c-3.715,0.148-6.847-2.744-6.995-6.459
	c-0.146-3.715,2.743-6.847,6.459-6.995s6.847,2.743,6.995,6.459C566.419,117.608,563.528,120.739,559.812,120.887z M557.205,55.474
	c3.719-0.148,6.85,2.744,6.995,6.459c0.148,3.715-2.744,6.847-6.459,6.995c-3.715,0.148-6.847-2.744-6.995-6.459
	C550.601,58.754,553.49,55.622,557.205,55.474z M503.284,123.137c-3.716,0.148-6.847-2.743-6.993-6.459
	c-0.147-3.716,2.741-6.847,6.46-6.995c3.716-0.148,6.847,2.744,6.992,6.459C509.894,119.857,507.002,122.989,503.284,123.137z
	 M500.682,57.725c3.716-0.148,6.847,2.744,6.995,6.459c0.146,3.715-2.743,6.847-6.459,6.995c-3.718,0.148-6.85-2.744-6.995-6.459
	C494.073,61.005,496.966,57.873,500.682,57.725z M446.761,125.388c-3.716,0.148-6.85-2.743-6.995-6.459
	c-0.148-3.716,2.744-6.847,6.459-6.995s6.847,2.743,6.995,6.459C453.365,122.109,450.477,125.24,446.761,125.388z M444.156,59.975
	c3.716-0.148,6.85,2.744,6.995,6.459c0.148,3.715-2.743,6.847-6.459,6.995s-6.847-2.744-6.995-6.459
	C437.549,63.255,440.441,60.123,444.156,59.975z M390.236,127.639c-3.716,0.148-6.847-2.744-6.995-6.459
	c-0.146-3.715,2.744-6.847,6.459-6.995c3.717-0.148,6.85,2.743,6.995,6.459C396.843,124.36,393.949,127.491,390.236,127.639z
	 M387.631,62.226c3.716-0.148,6.847,2.744,6.995,6.459c0.146,3.715-2.744,6.847-6.462,6.995c-3.715,0.148-6.847-2.744-6.992-6.459
	C381.024,65.506,383.912,62.374,387.631,62.226z M333.71,129.89c-3.719,0.148-6.85-2.743-6.995-6.459
	c-0.148-3.716,2.742-6.847,6.459-6.995c3.716-0.148,6.847,2.744,6.995,6.459C340.317,126.61,337.426,129.742,333.71,129.89z
	 M331.105,64.477c3.716-0.148,6.847,2.744,6.995,6.459c0.146,3.715-2.744,6.847-6.459,6.995s-6.847-2.744-6.995-6.459
	C324.496,67.756,327.39,64.625,331.105,64.477z M277.185,132.141c-3.716,0.148-6.847-2.744-6.995-6.459
	c-0.146-3.715,2.744-6.847,6.459-6.995c3.716-0.148,6.85,2.743,6.995,6.459C283.792,128.862,280.9,131.993,277.185,132.141z
	 M274.58,66.728c3.716-0.148,6.847,2.744,6.995,6.459c0.146,3.715-2.743,6.847-6.462,6.995c-3.716,0.148-6.847-2.744-6.992-6.459
	C267.973,70.008,270.864,66.875,274.58,66.728z"/>
</svg>
