<?xml version="1.0" encoding="utf-8"?>
<!-- Generator: Adobe Illustrator 16.0.0, SVG Export Plug-In . SVG Version: 6.00 Build 0)  -->
<!DOCTYPE svg PUBLIC "-//W3C//DTD SVG 1.1//EN" "http://www.w3.org/Graphics/SVG/1.1/DTD/svg11.dtd">
<svg version="1.1" id="Layer_1" xmlns="http://www.w3.org/2000/svg" xmlns:xlink="http://www.w3.org/1999/xlink" x="0px" y="0px"
	 width="1023.307px" height="898.143px" viewBox="0 0 1023.307 898.143" enable-background="new 0 0 1023.307 898.143"
	 xml:space="preserve">
<path fill="none" stroke="#000000" stroke-linejoin="round" stroke-miterlimit="10" d="M984.229,61.353
	c-2.289-0.175-3.561,1.612-3.211,3.755h0.002c7.918,9.598,12.132,22.46,10.893,36.734l-62.57,720.808
	c-2.686,30.969-30.057,57.526-60.822,59.021l-316.474,15.352c-30.764,1.49-81.104,1.495-111.869,0.012L122.105,881.66
	c-30.763-1.488-58.086-28.045-60.715-59.021L0.205,101.853c-2.63-30.974,20.398-55.3,51.173-54.059l388.78,15.694
	c30.772,1.242,81.134,1.242,111.909,0l388.777-15.694c8.057-0.325,15.578,1.102,22.245,3.94c2.217,0.153,3.146-1.799,2.755-3.765
	c-3.103-4.846-4.9-10.607-4.9-16.788C960.944,13.96,974.904,0,992.125,0s31.181,13.96,31.181,31.181
	c0,17.221-13.96,31.181-31.181,31.181C989.396,62.362,986.75,62.011,984.229,61.353L984.229,61.353z"/>
</svg>
