<?xml version="1.0" encoding="utf-8"?>
<!-- Generator: Adobe Illustrator 16.0.0, SVG Export Plug-In . SVG Version: 6.00 Build 0)  -->
<!DOCTYPE svg PUBLIC "-//W3C//DTD SVG 1.1//EN" "http://www.w3.org/Graphics/SVG/1.1/DTD/svg11.dtd">
<svg version="1.1" id="Layer_1" xmlns="http://www.w3.org/2000/svg" xmlns:xlink="http://www.w3.org/1999/xlink" x="0px" y="0px"
	 width="544.25px" height="297.639px" viewBox="0 0 544.25 297.639" enable-background="new 0 0 544.25 297.639"
	 xml:space="preserve">
<path fill="none" stroke="#000000" stroke-linejoin="round" stroke-miterlimit="10" d="M59.912,243.57
	c-4.733,11.19-15.815,19.044-28.73,19.044C13.96,262.614,0,248.653,0,231.432s13.96-31.181,31.181-31.181
	c13.672,0,25.29,8.8,29.496,21.045c1.109,1.797,3.428,1.504,4.431-0.215c3.295-7.452,9.547-14.315,18.7-19.722L406.327,10.862
	c26.96-15.924,69.851-14.127,95.312,3.994l24.291,17.288c25.461,18.121,24.229,45.962-2.738,61.871L195.704,287.179
	c-26.97,15.909-69.311,13.379-94.09-5.623l-21.772-16.695c-8.2-6.286-13.49-13.624-15.923-21.202v0.002
	c-1.248-1.368-2.717-1.224-4.046,0L59.912,243.57z"/>
</svg>
