<?xml version="1.0" encoding="utf-8"?>
<!-- Generator: Adobe Illustrator 16.0.0, SVG Export Plug-In . SVG Version: 6.00 Build 0)  -->
<!DOCTYPE svg PUBLIC "-//W3C//DTD SVG 1.1//EN" "http://www.w3.org/Graphics/SVG/1.1/DTD/svg11.dtd">
<svg version="1.1" id="Layer_1" xmlns="http://www.w3.org/2000/svg" xmlns:xlink="http://www.w3.org/1999/xlink" x="0px" y="0px"
	 width="1501.455px" height="516.775px" viewBox="0 0 1501.455 516.775" enable-background="new 0 0 1501.455 516.775"
	 xml:space="preserve">
<path fill="none" stroke="#000000" stroke-linejoin="round" stroke-miterlimit="10" d="M42.233,211.456
	C105.137,163.975,307.227,41.138,748.234,7.207c446.776-34.375,664.535,63.325,730.688,101.325
	c15.34,8.812,22.764,8.294,22.527,40.794c-0.237,32.5-3.168,154.446-3.168,154.446s2.9,18.055-23.861,1.178
	c-63.748-39.615-266.015-134.347-712.341-106.786c-444.017,27.42-650.674,185.489-717.252,249.821
	c-17.402,16.812-25.235-4.658-25.235-4.658s0-161.5,0-186S26.632,223.232,42.233,211.456z"/>
</svg>
