<?xml version="1.0" encoding="utf-8"?>
<!-- Generator: Adobe Illustrator 16.0.0, SVG Export Plug-In . SVG Version: 6.00 Build 0)  -->
<!DOCTYPE svg PUBLIC "-//W3C//DTD SVG 1.1//EN" "http://www.w3.org/Graphics/SVG/1.1/DTD/svg11.dtd">
<svg version="1.1" id="Layer_1" xmlns="http://www.w3.org/2000/svg" xmlns:xlink="http://www.w3.org/1999/xlink" x="0px" y="0px"
	 width="4189.182px" height="2761.826px" viewBox="0 0 4189.182 2761.826" enable-background="new 0 0 4189.182 2761.826"
	 xml:space="preserve">
<path fill="none" stroke="#000000" stroke-linejoin="round" stroke-miterlimit="10" d="M1468.232,41.526
	c-0.098-0.003-0.196-0.004-0.295-0.004c-37.008-0.216-73.942-0.072-110.88,0.433c-2.697,0.049-5.048,1.589-6.235,3.85l-0.068-0.033
	h-35.738c-0.504-0.072-1.008-0.072-1.512-0.144c-1.081-0.143-2.161-0.215-3.24-0.287c-34.704-1.728-69.408-4.177-103.968-6.985
	c-37.802-2.591-75.528-5.759-113.256-9.646c-0.722-0.073-1.514-0.144-2.232-0.144c-0.938-0.073-1.656-0.073-2.521-0.073
	c-3.168,0.073-6.264,1.08-8.783,3.024c-0.635,0.381-1.103,0.874-1.549,1.429l0.048,0.038h-27.565l0.003,0.001
	c-0.331-0.334-0.675-0.656-1.034-0.964c-0.648-0.577-1.368-1.081-2.16-1.441c-0.792-0.431-1.656-0.72-2.521-0.935
	c-4.392-1.009-8.784-1.584-13.248-1.728L732.893,14.593c-2.968-0.125-5.912,0.284-8.719,1.171l0.008,0.029c0,0-28.393,0-28.392,0
	c-1.313-1.493-2.939-2.721-4.799-3.574c-5.832-2.593-12.168-4.104-18.505-4.392L512.501,0.121c-3.6-0.215-7.2-0.142-10.8,0.217
	c-4.248,0.577-7.704,3.815-8.424,8.064c-1.584,9-2.448,18.071-2.664,27.144l-1.593,96.044l0.003,0.001h-35.418l0.005,0.002
	c-2.552-3.672-6.652-6.117-11.31-6.479c-5.398-0.431-10.8-0.649-16.271-0.504c-4.32,0-7.992,3.097-8.712,7.416
	c-1.44,8.135-2.09,16.416-2.018,24.696c0,0.863,0,1.728-0.071,2.591c0,0.721,0,1.441,0,2.16c0.145,26.714-1.513,53.353-5.04,79.777
	c-2.735,21.022-8.207,41.688-16.271,61.344l-31.896,77.544c-0.432,0.938-0.72,1.943-0.936,2.952
	c-0.144,0.719-0.288,1.369-0.504,2.016c-10.368,30.528-18.216,61.851-23.4,93.603c-0.072,0.792-0.288,1.584-0.432,2.302
	c-0.216,0.866-0.432,1.658-0.504,2.521c-1.584,9.861-3.672,19.655-6.264,29.304c-1.872,7.055-6.12,13.247-12.024,17.568
	c-1.109,1.142-2.127,2.36-3.047,3.643l0.22,0h-10.753l0.002,0c-0.523-3.195-2.606-6-5.719-7.39
	c-5.112-2.375-10.296-4.464-15.696-6.266c-6.84-2.303-14.472-1.223-20.376,3.025c-1.08,0.72-2.088,1.511-3.168,2.304
	c-0.504,0.433-1.008,0.792-1.512,1.226c-12.456,9.288-27.072,15.479-42.408,17.854c-1.008,0.146-1.944,0.288-2.88,0.359
	c-0.648,0.072-1.296,0.145-1.944,0.145c-11.232,0.146-22.392-2.016-32.76-6.337c-9.144-3.743-17.568-9.143-24.84-15.839
	c-1.08-1.009-2.16-2.016-3.24-2.952c-0.504-0.432-1.008-0.864-1.512-1.296c-4.824-3.6-10.584-5.544-16.56-5.544
	c-23.976-0.146-47.952,1.08-71.784,3.671c-11.88,1.227-22.104,9.072-26.352,20.305c-3.888,10.08-6.408,20.594-7.632,31.25
	C11.669,697.297,3.029,826.537,0.077,955.994c-0.792,116.784,4.536,233.568,15.84,349.92c4.104,42.839,8.712,85.608,13.68,128.375
	c0.144,1.008,0.216,2.017,0.216,3.096c0.072,0.576,0.072,1.152,0.144,1.729c4.392,58.68,2.664,117.72-5.112,176.04
	c-4.536,40.176,1.512,80.928,17.568,118.008c14.4,33.408,32.4,65.088,53.64,94.608c33.408,46.368,70.056,90.432,109.512,131.832
	l110.16,115.486c0.36,0.433,0.72,0.791,1.008,1.224c0.576,0.576,1.08,1.151,1.656,1.729l53.136,53.136
	c2.304,2.306,5.112,3.961,8.208,4.824c2.304,0.721,4.752,0.288,6.624-1.079c1.872-1.439,3.024-3.672,2.952-6.048l0,0l0,0
	c0-5.904-1.008-11.88-2.88-17.496c-5.688-16.487-13.392-32.185-22.896-46.728c-0.576-0.793-1.08-1.656-1.584-2.521
	c-0.432-0.72-0.864-1.512-1.296-2.23c-7.992-12.385-15.264-25.271-21.6-38.593c-13.032-30.456-23.328-61.921-30.816-94.177
	c-0.216-1.08-0.504-2.088-0.72-3.096c-0.144-0.576-0.288-1.152-0.432-1.729c-6.757-27.781-14.485-55.367-23.122-82.635l-0.012-0.004
	h10.851v0.002c0.397,0.224,0.85,0.369,1.34,0.415c1.44,0.07,2.808-0.864,3.24-2.231c1.295-4.177,2.303-8.426,3.023-12.745l0,0l0,0
	c0.216-1.151,0.36-2.231,0.576-3.385c0.072-0.433,0.144-0.937,0.216-1.438c12.528-75.602,38.88-148.32,77.688-214.416
	c11.016-18.72,24.12-36,39.098-51.695c0.248-0.437,0.491-0.876,0.729-1.317h35.83l0.002-0.006c1.159,4.031,2.606,7.986,4.332,11.835
	c0.288,0.792,0.648,1.514,1.08,2.306s0.936,1.654,1.438,2.521c6.266,10.151,14.832,18.791,24.984,25.058
	c45.576,31.896,90.146,65.158,133.776,99.646c41.328,32.688,81.144,67.176,119.376,103.465c0.504,0.433,1.008,0.938,1.512,1.367
	c0.504,0.433,1.08,0.864,1.584,1.297c1.729,1.224,3.528,2.23,5.4,3.023c0.923,0.376,1.919,0.533,2.889,0.441v-0.004h26.347v-0.009
	c0,0.793,0,1.656,0.072,2.52c0.216,5.4,2.231,10.584,5.76,14.834c1.08,1.296,2.232,2.663,3.384,3.959
	c0.288,0.288,0.576,0.648,0.864,0.938c67.68,60.696,131.616,125.496,191.448,193.896c45.072,55.151,86.04,113.545,122.616,174.601
	l28.15,46.512c1.44,2.376,3.312,4.466,5.544,6.192c0.721,0.574,1.584,1.08,2.521,1.295c0.156,0.032,0.312,0.05,0.47,0.048
	l-0.002-0.004c0,0,34.558,0,34.558,0c-0.216,2.866-0.444,5.732-0.682,8.599c-0.072,1.08-0.218,2.161-0.218,3.24
	c0,0.505,0,1.008-0.07,1.584c-0.36,9.359,1.942,18.647,6.84,26.783l111.168,182.16c0.576,1.08,1.08,2.017,1.655,3.096
	c0.217,0.576,0.647,1.152,1.009,1.801c20.16,35.426,39.6,71.208,58.536,107.279c0.504,1.08,1.15,2.16,1.728,3.168
	c0.36,0.576,0.72,1.08,0.938,1.729c2.446,4.32,5.688,8.137,9.504,11.305c0.792,0.504,1.512,1.008,2.16,1.512
	c0.936,0.434,1.8,0.864,2.663,1.152c4.177,1.654,8.496,3.096,12.961,4.32c87.336,24.334,175.176,46.584,263.446,66.813
	c0.792,0.289,1.729,0.433,2.448,0.793c0.864,0.146,1.512,0.433,2.376,0.646c17.208,4.032,34.128,9.072,50.688,15.121
	c40.606,14.832,77.832,37.584,109.438,67.031c3.24,2.447,7.057,3.96,10.944,4.535c1.512,0.145,3.023,0.36,4.535,0.506
	c1.08,0.07,2.232,0.07,3.312,0.07l0,0l0,0c2.304-0.36,4.104-2.305,4.031-4.682c0-0.937-0.217-1.8-0.359-2.734
	c0-0.434-0.146-0.938-0.36-1.368l-5.397-12.743c-0.36-0.937-0.648-1.801-1.081-2.735c-0.288-0.647-0.504-1.367-0.722-2.018
	c-10.366-30.456-19.296-61.198-27.07-92.446c-0.146-0.722-0.434-1.584-0.647-2.377c-0.145-0.862-0.358-1.584-0.504-2.446
	c-10.151-41.041-27.504-79.992-51.336-115.129c-13.392-19.8-27.576-39.168-42.408-57.959c-26.854-37.298-50.903-76.395-72-117.289
	l-1.584-3.168l-0.936-1.584c-14.609-28.582-29.333-57.05-44.162-85.451l-0.33,0.002h112.826l-0.775-0.004
	c0.957,0.089,1.925-0.097,2.78-0.591c1.37-0.791,2.234-2.157,2.379-3.67l0,0l0,0c0.792-8.278,0.288-16.561-1.439-24.694
	c-3.919-25.254-7.761-50.52-11.526-75.797l0.052-0.008h8.298v0.005c0.167,0.003,0.336-0.003,0.508-0.017
	c3.459-0.362,6.699-1.729,9.291-3.889l0,0l0,0c23.832-15.48,48.24-30.097,73.152-43.704c0.729-0.684,1.403-1.415,2.019-2.188
	l-0.002-0.002h76.686l0.04-0.012c0.292,1.992,0.667,3.977,1.111,5.947c0.217,0.863,0.504,1.728,0.864,2.521
	c0.287,0.791,0.72,1.584,1.151,2.305c2.593,4.104,6.191,7.633,10.439,10.15l88.416,52.057c0.864,0.504,1.8,0.938,2.735,1.368
	c0.721,0.288,1.439,0.574,2.088,1.009c27.721,15.048,55.729,29.592,84.024,43.561c1.08,0.575,2.16,1.008,3.312,1.439
	c0.504,0.216,1.009,0.432,1.513,0.646l24.048,10.297c0.128,0.053,0.257,0.105,0.386,0.157l0,0.002c1.285,0,2.325,2.489,2.325,5.567
	c-12.25,4.204-21.054,15.824-21.054,29.499c0,17.221,13.96,31.181,31.181,31.181s31.181-13.96,31.181-31.181
	c0-13.303-8.33-24.659-20.058-29.14l0.005,0.003c0-2.655,1.001-4.804,2.236-4.804l-0.632,0.197c2.677-0.825,5.312-1.775,7.906-2.851
	l0,0l0,0c14.615-5.978,28.943-12.602,43.055-19.655c49.32-24.408,97.416-51.265,144.146-80.427c0.145-0.069,0.288-0.144,0.433-0.216
	c1.439-0.792,2.951-1.584,4.463-2.448c4.896-2.591,9.648-5.543,14.187-8.711c6.262-4.453,10.105-11.598,10.419-19.288l-0.012,0.001
	h77.565l-0.003,0.004c0.095,0.119,0.192,0.235,0.294,0.348c0.72,0.792,1.513,1.439,2.304,2.018c2.088,1.366,4.319,2.593,6.553,3.601
	c21.456,12.022,42.552,24.695,63.288,37.943c2.88,2.305,6.048,4.03,9.433,5.327c0.636,0.254,1.301,0.382,1.962,0.384
	c0.001-0.001,10.125-0.001,10.125-0.001c-4.274,28.81-8.638,57.604-13.091,86.38c-0.146,0.792-0.216,1.584-0.359,2.304
	c-0.07,0.864-0.145,1.656-0.217,2.448c-0.287,2.95-0.144,5.901,0.36,8.782c0.216,0.863,0.504,1.802,0.937,2.594
	c0.359,0.792,0.938,1.438,1.584,1.941c0.575,0.289,1.226,0.36,1.871,0.146c0.114-0.048,0.228-0.097,0.341-0.146
	c0,0,111.604,0,111.603-0.001l-5.451,10.29c-0.434,0.936-0.938,1.728-1.368,2.664c-0.216,0.72-0.575,1.512-0.937,2.158
	c-18.575,37.08-37.873,73.655-57.889,109.943c-21.168,38.592-45.721,75.168-73.225,109.656c-0.36,0.432-0.647,0.792-1.08,1.296
	c-0.863,1.08-1.655,2.304-2.592,3.456c-22.104,29.016-40.536,60.693-54.723,94.248c-8.277,20.951-14.759,42.406-19.584,64.224
	c-0.287,1.009-0.504,1.944-0.861,3.022c-0.146,0.504-0.359,1.152-0.504,1.729c-7.2,28.08-15.625,55.729-25.271,82.944
	c-2.449,4.533-4.249,9.357-5.545,14.397c-0.216,1.227,0,2.521,0.792,3.528c0.792,1.08,2.088,1.729,3.312,1.801
	c5.83,0.154,11.59-1.071,16.846-3.59l0,0l0,0c38.593-36.432,85.536-62.856,136.656-76.68c33.048-9,66.312-17.354,99.72-24.771
	c67.824-16.271,135.36-33.981,202.394-52.992c7.774-2.088,14.185-7.344,18-14.256l21.166-39.815
	c21.891-40.822,44.931-81.07,69.051-120.601l85.68-140.328c4.752-7.774,6.982-16.848,6.77-25.92
	c-0.146-1.296-0.218-2.592-0.218-3.96c-0.071-0.357-0.071-0.576-0.071-0.938c-0.255-3.502-0.5-7.007-0.735-10.513l0.002,0.001
	h34.353c0.504,0.072,0.938,0,1.367-0.215c2.38-1.439,4.468-3.382,5.979-5.758l0,0l0,0c0.647-1.008,1.366-2.088,2.017-3.096
	c0.146-0.289,0.36-0.576,0.504-0.864c37.944-65.593,79.848-128.736,125.568-189.146c23.256-29.447,47.809-57.814,73.655-85.031
	c44.641-47.159,91.151-92.664,139.319-136.297c0.791-0.72,1.584-1.513,2.375-2.23c0.722-0.792,1.515-1.584,2.232-2.376
	c3.888-4.248,6.336-9.576,6.912-15.265c0.071-0.863,0.144-1.655,0.144-2.521c0.029-0.32,0.035-0.628,0.026-0.934h0.003h26.183
	c5.759-1.873,10.942-5.187,15.047-9.577l0,0l0,0c46.584-44.137,95.472-85.682,146.593-124.487
	c36.937-28.009,74.305-55.44,112.104-82.225c11.624-9.345,19.768-22.167,23.403-36.38l-0.064-0.018c0,0,36.455,0,36.454-0.001
	c1.834,3.109,4.18,5.921,6.955,8.321c18.071,21.022,33.768,43.99,46.728,68.544c33.48,63.433,56.019,131.976,66.674,202.896
	c0.071,0.575,0.217,1.151,0.287,1.801c0.071,0.287,0.146,0.647,0.218,1.009l0.792,2.809c0.216,1.151,1.079,2.159,2.23,2.447
	c0,0,12.899,0,12.9,0.001l-17.727,60.69c-0.359,1.149-0.575,2.229-0.791,3.384c-0.072,0.504-0.218,0.936-0.288,1.438
	c-6.696,29.594-14.904,58.752-24.624,87.479c-7.92,23.473-18.864,45.792-32.472,66.527c-0.577,0.937-1.227,1.873-1.729,2.809
	c-0.433,0.72-0.792,1.368-1.226,2.018c-7.199,11.305-13.534,23.185-18.937,35.494c-3.672,8.496-6.336,17.426-7.774,26.568
	c-0.359,2.376,0,4.896,1.009,7.057c1.368,2.81,4.247,4.394,7.271,3.959c3.884-0.933,7.412-2.877,10.292-5.685l0,0l0,0
	c38.521-37.943,76.248-76.824,113.04-116.568c41.761-41.832,81.648-85.464,119.593-130.823
	c30.312-36.287,57.169-75.384,80.279-116.713c17.353-31.176,28.655-65.304,33.192-100.654c2.088-22.104,1.438-44.354-1.944-66.239
	c-0.146-1.08-0.288-2.16-0.358-3.24c0-0.504-0.071-1.08-0.146-1.584c-7.849-69.048-6.84-138.813,3.022-207.576
	c0.146-0.936,0.217-1.871,0.289-2.808c0-0.647,0.07-1.368,0.145-2.018c15.048-131.761,23.04-264.239,23.902-396.863
	c-1.008-97.272-5.76-194.401-14.256-291.312c-3.383-45.433-7.92-90.863-13.606-136.08c-1.08-8.281-3.601-16.343-7.487-23.759
	c-5.256-9.866-15.121-16.488-26.209-17.641c-23.832-2.307-47.808-3.312-71.782-3.098c-5.832,0.071-11.521,2.16-15.983,5.905
	c-0.359,0.358-0.792,0.647-1.15,1.006c-1.151,1.01-2.232,2.019-3.385,3.025c-15.266,13.969-35.137,21.671-55.802,21.814
	c-0.791,0.072-1.584,0-2.375-0.071c-0.864,0-1.655-0.146-2.448-0.217c-15.982-2.305-31.104-8.641-43.92-18.359
	c-1.438-1.08-2.879-2.159-4.318-3.167c-0.217-0.146-0.36-0.289-0.576-0.434c-6.264-4.25-14.256-5.111-21.312-2.305l-13.606,5.544
	c-3.441,1.415-5.887,4.506-6.438,8.112h-11.271l-0.042,0.033c-1.329-1.79-2.934-3.392-4.789-4.759
	c-5.904-5.328-10.008-12.384-11.735-20.159c-0.217-1.009-0.432-2.018-0.646-3.022c-0.146-0.577-0.217-1.226-0.36-1.802
	c-3.744-21.238-7.92-42.406-12.601-63.504c-7.562-34.127-18.647-67.393-33.121-99.215c-0.432-0.938-0.791-1.802-1.149-2.737
	c-0.289-0.791-0.576-1.511-0.864-2.232c-9.288-20.95-17.279-42.406-24.12-64.295c-0.145-0.361-0.216-0.792-0.357-1.151
	c-0.289-1.225-0.577-2.449-0.864-3.674c-5.473-24.192-8.497-48.815-9.072-73.583l-1.367-52.921
	c-0.146-3.528-0.863-6.983-2.088-10.295c-0.359-0.937-0.863-1.799-1.367-2.665c-0.36-0.503-0.792-0.935-1.296-1.295
	c-1.584-1.009-3.528-1.584-5.4-1.513l-15.768,0.721c-3.341,0.171-6.401,1.641-8.621,3.972c0,0.001-38.792,0.001-38.792,0.001h0.008
	c-0.69-36.011-1.428-72.017-2.209-108.015c-0.144-4.896-0.863-9.721-2.229-14.401c-1.152-3.888-4.683-6.624-8.712-6.696
	l-171.864,7.992c-6.336,0.289-12.456,2.306-17.854,5.689c-1.862,1.202-3.284,2.927-4.145,4.904l0.003,0.001
	c0,0-20.973,0-20.974-0.001c-2.177-1.628-4.761-2.745-7.58-3.179c-5.11-0.792-10.224-1.007-15.336-0.792l-298.871,13.752
	c-3.386,0.217-6.554,1.439-9.217,3.528c-0.183,0.16-0.365,0.327-0.543,0.498l0.003,0.002h-27.834l0.002,0.002
	c-2.017-2.505-4.965-4.253-8.344-4.753c-4.68-0.576-9.432-0.359-14.04,0.65c-70.632,6.55-141.552,11.879-212.472,16.126
	c-1.008,0-2.017,0.072-3.022,0.217c-0.647,0.144-1.226,0.288-1.873,0.359c-1.251,0.331-2.395,0.895-3.386,1.637l0.016,0.03h-30.824
	l0.001-0.001c-0.128-0.412-0.274-0.821-0.44-1.227c-0.791-1.585-2.304-2.736-4.03-3.169c-1.802-0.359-3.602-0.576-5.474-0.576
	c-34.92-0.504-69.769-0.648-104.688-0.359c-2.593,0-5.186,0.576-7.487,1.728c-0.778,0.475-1.453,1.081-2.008,1.77l-0.025-0.017
	c0,0-11.071,0-11.071-0.001c-0.172-0.234-0.363-0.458-0.578-0.672c-0.505-0.576-1.226-1.08-1.944-1.512
	c-3.021-1.585-6.479-2.52-9.937-2.52l-89.642-1.225c-2.592,0-5.184,0.649-7.486,1.801c-0.601,0.325-1.158,0.711-1.663,1.15h-22.64
	l0.027-0.021c-0.065-0.09-0.132-0.178-0.2-0.265c-2.81-3.456-6.912-5.688-11.375-6.265c-6.192-0.648-12.457-1.08-18.721-1.224
	c-148.753-2.808-297.504-4.608-446.185-5.184c-151.561,0.648-303.048,2.591-454.464,5.616c-4.608,0.144-9.072,1.369-13.104,3.528
	c-0.252,0.125-0.495,0.26-0.729,0.404l-0.002-0.004c0,0-30.011,0-30.012-0.001c-0.68-0.146-1.38-0.232-2.094-0.254
	c-11.881-0.288-23.832-0.361-35.783-0.144l-59.762,1.153c-1.766,0.035-3.498,0.434-5.1,1.145l0.221,0h-24.131L1468.232,41.526z"/>
</svg>
