<?xml version="1.0" encoding="utf-8"?>
<!-- Generator: Adobe Illustrator 16.0.0, SVG Export Plug-In . SVG Version: 6.00 Build 0)  -->
<!DOCTYPE svg PUBLIC "-//W3C//DTD SVG 1.1//EN" "http://www.w3.org/Graphics/SVG/1.1/DTD/svg11.dtd">
<svg version="1.1" id="Layer_1" xmlns="http://www.w3.org/2000/svg" xmlns:xlink="http://www.w3.org/1999/xlink" x="0px" y="0px"
	 width="2708.926px" height="1342.16px" viewBox="0 0 2708.926 1342.16" enable-background="new 0 0 2708.926 1342.16"
	 xml:space="preserve">
<path d="M2221.891,1166.553c-6.048-33.264-12.384-66.456-19.008-99.574c-6.48-32.186-13.248-64.366-20.376-96.406
	c-7.416-33.336-15.268-66.528-23.616-99.576c-8.136-32.186-16.488-64.296-25.057-96.408c-8.855-33.408-18.359-66.6-28.514-99.646
	c-10.009-32.979-22.393-65.159-37.08-96.407c-4.317-9.436-9.145-18.648-14.473-27.576c-9.357-14.256-20.16-27.576-32.256-39.601
	c-17.854-17.712-36.216-34.775-55.225-51.191c-14.256-12.168-28.01-24.769-41.256-37.944c-14.763-14.976-30.387-29.016-46.729-42.19
	c-19.224-15.407-40.824-27.575-64.008-36c-27.505-9.575-56.664-13.176-85.608-10.512c-17.424,1.584-34.632,4.465-51.624,8.424
	c-31.968,7.129-63.646,15.121-95.184,23.904c-31.896,8.856-63.576,18.145-95.185,27.937
	c-33.771,10.439-67.395,21.384-100.872,32.902c-31.896,10.943-63.647,22.467-95.111,34.635
	c-33.696,13.176-67.32,26.564-100.872,40.104c-32.185,12.744-63.937,26.643-95.185,41.544c-9.864,4.896-19.8,9.792-29.593,14.762
	c-55.871,28.15-111.312,57.022-166.395,86.614c-10.224,5.112-20.087,10.802-29.591,16.992c-3.961,2.521-7.417,5.616-10.368,9.216
	c-1.009,1.08-1.296,2.594-0.646,3.96c0.646,0.724,1.584,1.228,2.593,1.368c3.6,0.36,7.271,0.288,10.8-0.359l87.191-16.561
	c0.505-0.145,1.078-0.216,1.584-0.288c64.871-12.312,129.742-24.264,194.762-35.928c0.215-0.072,0.432,0,0.574,0.071
	c0.07,0.069,0.07,0.069,0.07,0.145c0,0,0,0.071-0.07,0.071c-0.07,0.07-0.218,0.145-0.359,0.217l-38.951,8.424
	c-29.232,6.336-58.393,12.816-87.625,19.296c-36.216,7.992-72.287,16.346-108.359,24.984c-29.52,7.056-58.752,15.264-87.623,24.552
	c-35.929,11.376-71.782,22.968-107.565,34.849l-88.417,29.307l-107.565,35.632c-25.128,8.641-50.615,16.2-76.465,22.536
	c-39.312,9.072-79.271,14.976-119.521,17.712c-9.504,0.72-18.937,1.368-28.438,1.872c-55.942,2.88-111.889,7.128-167.614,12.888
	c-9.435,1.225-18.938,1.801-28.439,1.729c-7.345-0.288-14.615,1.653-20.733,5.76c-5.616,4.248-10.729,9.144-15.192,14.544
	c-20.951,25.057-41.473,50.4-61.632,76.032c-4.395,5.544-7.851,11.732-10.226,18.357c-1.513,3.743-0.938,7.991,1.438,11.307
	c2.736,2.663,6.265,4.464,10.009,5.108c5.544,0.864,11.159,1.585,16.775,2.09c10.438,1.514,21.096,0.791,31.248-2.09
	c14.397-4.392,28.512-9.646,42.336-15.624c16.197-6.048,32.76-11.088,49.605-15.048c30.815-7.416,61.921-13.68,93.239-18.792
	c28.152-4.604,56.448-8.566,84.744-11.88c37.008-4.318,74.088-7.416,111.239-9.288c28.296-1.008,56.593-2.664,84.743-4.968
	c37.15-3.024,74.23-6.552,111.238-10.656c28.299-3.096,56.594-6.336,84.815-9.72c37.08-4.464,74.16-9.146,111.24-14.04
	c28.225-3.672,56.521-7.488,84.743-11.376c37.081-5.112,74.158-10.296,111.239-15.624c28.226-4.176,56.447-8.208,84.743-12.168
	c37.079-5.112,74.089-10.152,111.239-14.904c28.225-3.672,56.521-7.271,84.816-10.8c37.008-4.606,74.088-8.928,111.168-13.032
	c28.224-3.312,56.446-5.976,84.812-7.99c18.072-1.654,36.218-2.446,54.36-2.378c26.136-0.068,52.056,4.753,76.464,14.26
	c25.562,10.512,48.744,26.136,68.04,46.008c19.513,20.16,36.433,42.768,50.112,67.248c16.344,29.229,32.039,58.82,47.088,88.772
	c17.567,34.704,34.92,69.48,51.983,104.4c14.901,30.456,29.521,60.982,43.918,91.656c15.479,34.56,30.527,69.336,45,104.396
	c3.312,7.992,6.913,15.84,10.872,23.545c1.227,2.375,3.023,4.395,5.328,5.831c1.871,0.648,3.959,0.072,5.186-1.512
	c2.593-3.022,4.823-6.336,6.625-9.864c1.941-4.316,4.68-8.208,8.136-11.376c7.345-6.768,17.712-9.069,27.288-6.048
	c4.968,1.8,9.287,5.112,12.456,9.434c4.681,5.186,8.062,11.521,9.72,18.358c0,1.515,0.359,3.024,1.152,4.394
	c1.871,1.802,4.392,2.81,7.056,2.81c5.257,0,10.584-0.792,15.624-2.304c28.226-6.408,56.447-12.674,84.815-18.648
	c10.295-2.16,20.521-4.536,30.741-7.056c3.675-0.938,7.129-2.664,9.938-5.188c2.159-2.733,2.95-6.264,2.017-9.573
	c-1.226-4.031-1.729-8.209-1.513-12.387c0.288-12.6,8.425-23.613,20.376-27.574c9.864-2.951,20.592-1.297,29.088,4.465
	c1.368,1.513,3.312,2.377,5.327,2.229c1.368-0.72,2.305-2.016,2.521-3.526c0.647-4.394,0.577-8.854,0-13.248
	C2231.539,1221.705,2226.858,1194.129,2221.891,1166.553z M2381.875,783.873l-7.271-48.815
	c-7.344-49.03-14.832-98.137-22.464-147.168c-2.306-16.773-6.696-33.189-13.177-48.813c-9.575-21.384-19.151-42.84-28.584-64.368
	c-10.515-23.112-20.447-46.44-29.951-69.983c-1.512-4.681-3.312-9.217-5.473-13.681c-0.938-2.376-3.023-4.104-5.475-4.68
	c-2.809,0-5.472,0.575-7.991,1.655c-20.593,5.545-41.614,8.929-62.854,10.152c-14.616,1.08-29.304,0-43.634-3.168
	c-12.526-3.456-24.336-8.855-35.136-16.128c-17.138-11.448-33.19-24.408-48.022-38.664c-26.064-25.128-50.978-51.552-74.521-79.128
	c-5.832-7.271-12.384-14.04-19.512-20.16c-3.384-3.096-7.488-5.256-11.952-6.191c-3.168-0.721-6.336,1.224-7.271,4.319
	c-0.504,3.097-0.146,6.265,0.863,9.216c2.23,6.769,5.11,13.393,8.495,19.656c6.983,12.744,14.039,25.344,21.168,37.944
	l88.775,158.04c7.344,12.24,13.896,24.912,19.584,38.016c11.735,27.504,22.606,55.368,32.616,83.592
	c9,24.984,17.854,50.041,26.424,75.168c14.04,40.104,27.504,80.354,40.392,120.816c5.475,16.92,10.873,33.84,16.2,50.76
	c15.191,48.385,30.24,96.771,45.216,145.228l15.48,50.76c14.832,48.312,29.229,96.693,43.271,145.224
	c4.969,16.776,9.358,33.696,13.104,50.832c2.592,13.032,5.688,25.992,9.288,38.811c1.008,3.813,2.664,7.485,4.896,10.801
	c0.648,1.008,1.729,1.728,2.882,1.872c1.226,0.216,2.446-0.072,3.385-0.864c7.85-6.336,12.457-15.768,12.602-25.848
	c-0.072-8.931,0.071-17.856,0.432-26.784l0.793-77.979c0.434-27.357,1.08-54.721,2.018-82.009
	c1.15-38.088,3.602-76.104,7.271-113.976c2.088-21.024,6.121-41.832,12.168-62.064c2.018-5.615,3.673-11.376,5.041-17.136
	c1.225-7.992,1.295-16.058,0.145-24.048L2381.875,783.873z M2708.683,563.121c-2.305-14.616-4.968-29.16-8.063-43.632
	c-7.99-35.14-16.773-70.06-26.353-104.833l-9.72-35.568c-15.192-53.712-31.178-107.136-47.952-160.344l-5.112-16.416
	c-18.936-59.977-38.088-119.809-57.456-179.64c-1.512-5.616-3.526-11.089-5.832-16.416c-1.584-4.177-5.903-6.769-10.366-6.192
	c-35.138,4.248-70.346,7.776-105.625,10.584c-4.534,0.288-9,1.368-13.177,3.096c-3.096,1.944-4.752,5.688-4.03,9.36
	c1.009,6.336,2.446,12.601,4.394,18.792c4.752,15.84,8.496,32.04,11.088,48.384c2.376,15.048,1.512,30.456-2.448,45.216
	c-4.318,14.328-10.584,28.008-18.504,40.752c-16.056,25.92-33.695,50.832-52.92,74.448
	c-30.168,37.009-63.792,71.064-100.367,101.808c-3.742,2.953-7.057,6.48-9.646,10.585c-0.72,1.008-1.079,2.304-0.792,3.6
	c0.217,1.296,0.938,2.376,2.019,3.096c2.879,1.656,5.977,2.88,9.217,3.601c4.896,1.08,9.646,2.88,13.969,5.399
	c5.039,3.528,9.357,7.992,12.743,13.104c14.185,21.6,29.159,42.625,44.782,63.216c9.575,12.601,19.08,25.271,28.438,38.017
	c15.983,22.104,25.851,48.023,28.801,75.168c1.368,15.843,2.306,31.683,3.023,47.595c0.288,5.184,0.504,10.364,0.646,15.623
	c2.521,60.118,4.752,120.237,6.771,180.357c0.145,4.968,0.357,9.864,0.793,14.761c0.215,1.655,0.646,3.312,1.224,4.823
	c1.01,3.097,4.031,5.04,7.199,4.536c4.248-0.792,8.208-2.448,11.665-4.968c34.991-25.059,69.479-50.762,103.606-77.112
	c27.574-21.384,54.937-43.271,81.937-65.447c19.513-15.479,38.521-31.681,56.881-48.525c17.354-15.984,32.257-34.416,44.208-54.864
	C2707.818,578.529,2709.616,570.753,2708.683,563.121z M2463.019,769.474c-7.704,2.595-16.128,2.159-23.544-1.225
	c-13.104-5.76-21.023-19.368-19.439-33.552c1.515-14.257,12.168-25.852,26.209-28.656c16.92-3.168,33.479,7.271,37.871,23.904
	C2488.508,746.649,2479.291,763.857,2463.019,769.474z M2638.627,622.81c-7.487,2.811-15.771,2.664-23.187-0.288
	c-14.187-5.473-22.68-19.941-20.736-34.921c2.02-15.047,14.041-26.78,29.16-28.364c16.344-1.515,31.32,9.285,35.062,25.344
	C2662.676,600.633,2654.032,616.905,2638.627,622.81z"/>
</svg>
