<?xml version="1.0" encoding="utf-8"?>
<!-- Generator: Adobe Illustrator 16.0.0, SVG Export Plug-In . SVG Version: 6.00 Build 0)  -->
<!DOCTYPE svg PUBLIC "-//W3C//DTD SVG 1.1//EN" "http://www.w3.org/Graphics/SVG/1.1/DTD/svg11.dtd">
<svg version="1.1" id="Layer_1" xmlns="http://www.w3.org/2000/svg" xmlns:xlink="http://www.w3.org/1999/xlink" x="0px" y="0px"
	 width="2756.891px" height="1347.283px" viewBox="0 0 2756.891 1347.283" enable-background="new 0 0 2756.891 1347.283"
	 xml:space="preserve">
<path fill="none" stroke="#000000" stroke-linejoin="round" stroke-miterlimit="10" d="M2649.183,939.59
	c-5.111-4.681-9.863-9.72-14.256-15.12c-30.312-36.288-59.976-73.08-88.992-110.376l-61.848-80.353
	c-26.642-34.2-52.849-68.76-78.479-103.68c-13.682-18.722-26.713-37.943-39.168-57.603c-20.231-30.239-42.19-59.327-65.736-87.119
	c-0.217-0.216-0.504-0.505-0.791-0.72c-0.289-0.289-0.721-0.36-1.151-0.36c-13.752,0.071-27.504,0.722-41.187,1.944
	c-51.84,4.319-103.535,9.576-155.158,15.839c-13.608,1.585-27.217,3.241-40.823,4.896c-44.642,5.688-89.281,11.089-133.992,16.271
	c-20.664,2.304-41.328,4.607-61.992,6.84c-44.641,4.824-89.352,9.576-133.989,14.186l-61.992,6.408
	c-44.713,4.534-89.354,9-133.992,13.393l-62.064,6.047c-44.639,4.32-89.278,8.425-133.99,12.385l-61.991,5.04
	c-44.713,3.89-89.354,7.991-133.992,12.385l-61.991,6.265c-44.713,4.536-89.353,9.433-133.992,14.545
	c-20.663,2.375-41.398,4.823-62.062,7.343c-44.712,5.474-89.353,11.448-133.92,17.856c-20.736,2.952-41.4,5.977-62.063,9.07
	c-44.712,6.695-89.354,13.753-133.992,21.098c-20.664,3.456-41.328,6.982-61.991,10.729c-4.535,0.938-9.071,1.8-13.607,2.592
	c-3.889,0.576-7.849-0.216-11.159-2.23c-2.447-2.304-3.385-5.832-2.376-9.072c3.023-12.239,5.256-24.695,6.623-37.224
	c3.816-27.434,4.969-55.151,3.456-82.8c-0.646-16.562-2.088-33.12-4.247-49.607c-0.505-2.089-0.576-4.248-0.217-6.409
	c0.721-1.8,2.376-3.096,4.319-3.384c5.543-1.367,11.16-2.088,16.849-2.304l179.208-12.024l16.775-1.08l179.207-11.446l16.776-1.079
	c59.761-3.744,119.447-7.2,179.207-10.514c5.616-0.358,11.232-0.646,16.776-1.008c59.76-3.672,119.521-7.488,179.208-11.521
	l16.848-1.151l179.137-12.097l16.85-1.08c59.688-4.104,119.445-7.775,179.207-11.159c5.615-0.289,11.16-0.576,16.775-0.938
	c59.76-3.168,119.447-6.048,179.207-8.783l16.776-0.792c59.761-2.664,119.447-5.04,179.207-7.128l16.775-0.576
	c59.762-1.656,119.521-3.816,179.209-6.552c5.615-0.288,11.229-0.576,16.848-0.792c22.607-1.152,45.289-2.089,67.97-2.952
	c3.022-0.216,6.118,0.358,8.782,1.8c1.584,1.513,2.377,3.6,2.16,5.76c0,0.504,0,0.938,0,1.369c0,0.215,0.072,0.359,0.217,0.431
	c0.216,0.288,0.433,0.505,0.646,0.722c0.287,0.216,0.721,0.288,1.08,0.07c0.862-0.504,1.801-1.079,2.735-1.584
	c3.097-2.23,7.056-3.022,10.802-2.016c4.104,1.584,7.631,4.393,10.225,7.92c4.463,6.12,8.929,12.168,13.248,18.36
	c35.062,47.521,69.769,95.256,104.326,143.136c12.168,16.992,24.267,34.057,36.287,51.192
	c23.617,34.128,47.377,68.109,71.281,102.022c21.743,30.601,43.702,60.983,65.879,91.224c24.77,33.696,49.896,67.178,75.385,100.44
	c2.019,2.592,3.24,5.832,3.455,9.144c-0.07,2.521-2.017,4.608-4.533,4.896c-18.434,5.041-37.01,9.938-55.584,14.616
	c-4.178,1.15-8.496,1.513-12.815,1.08C2655.232,943.622,2651.919,942.038,2649.183,939.59L2649.183,939.59L2649.183,939.59z"/>
<path fill="none" stroke="#000000" stroke-linejoin="round" stroke-miterlimit="10" d="M89.625,1338.812
	c-1.513-3.891-1.729-8.354-0.504-12.386c2.375-5.688,5.977-10.873,10.729-14.833c24.695-23.832,48.096-48.959,70.344-75.096
	c6.408-7.704,12.528-15.84,18.072-24.408c0.071-0.216,0.071-0.574,0.071-0.792c-0.071-0.144-0.071-0.287-0.216-0.432
	c-0.289-0.217-0.505-0.36-0.647-0.504c-0.433-0.288-0.721-0.288-1.152,0c-0.792,0.792-1.656,1.584-2.447,2.376
	c-16.92,16.99-34.345,33.479-51.983,49.68c-6.984,5.473-13.896,10.872-20.882,16.128c-8.494,6.912-17.278,13.536-26.278,19.872
	c-1.872,1.296-3.89,2.307-6.048,2.88c-1.08,0-1.944-0.646-2.16-1.653c-1.656-3.603-2.521-7.562-2.592-11.594
	c-3.816-43.921-12.816-87.337-26.784-129.238c-7.632-22.25-15.624-44.568-23.688-66.745c-7.345-20.306-14.977-40.319-22.824-60.479
	c-1.225-3.456-0.647-7.344,1.513-10.367c7.92-11.521,16.704-22.318,26.496-32.329c4.464-4.896,9.144-9.646,13.968-14.255
	c3.96-2.881,8.855-4.104,13.608-3.312c7.056,0.936,14.184,1.149,21.239,0.646c13.464-1.149,26.641-3.672,39.601-7.486
	c25.344-7.271,50.544-15.695,75.238-24.983c40.97-15.12,81.288-32.04,120.746-50.472c22.968-10.585,45.574-22.104,67.606-34.347
	c13.104-8.206,25.92-16.92,38.376-25.92c26.354-18.504,54.646-33.981,84.527-45.936c30.601-12.672,61.992-23.473,93.889-32.76
	c33.695-9.793,67.752-18.434,102.023-25.992c31.247-6.912,62.496-13.248,93.96-19.08c33.982-6.191,68.04-11.952,102.022-17.496
	c31.319-5.111,62.641-10.008,94.032-14.976c33.911-5.256,67.896-10.01,102.022-14.112c31.32-3.888,62.567-7.344,93.961-10.512
	c33.982-3.456,68.039-6.696,101.951-9.648c31.319-2.736,62.713-5.328,94.104-7.92c33.912-2.736,67.896-5.328,101.951-7.704
	c31.248-2.448,62.641-4.606,93.961-6.768l101.951-6.984l94.031-6.12l102.098-6.624c31.248-2.088,62.566-4.104,93.959-5.76
	c33.984-1.729,67.969-2.808,101.953-3.456c31.394-0.576,62.639-0.864,94.031-0.504c22.176,0.144,44.278,0.792,66.385,1.872
	c16.486,0.72,32.688,4.68,47.664,11.88c14.902,7.56,28.584,17.28,40.68,28.8c28.513,26.928,54.938,56.089,78.984,87.049
	c25.848,33.335,50.256,67.607,73.366,102.89c20.23,30.6,39.89,61.632,59.326,92.734c21.24,34.127,41.979,68.399,62.496,102.815
	c12.744,21.238,25.057,42.769,36.938,64.368c2.446,4.392,4.03,9.144,4.68,14.11c0.072,4.319-2.592,8.424-6.551,10.367
	c-6.625,3.385-13.824,5.977-21.168,7.488c-22.105,6.479-44.064,13.176-66.025,20.376c-43.196,13.823-86.614,27.432-129.959,40.968
	c-21.961,6.84-43.92,13.536-65.95,20.017c-14.545,4.319-28.943,8.712-43.347,13.031c-4.391,1.801-8.928,3.312-13.463,4.608
	c-4.752,0.863-9.575-0.072-13.682-2.592c-7.774-4.754-15.047-10.152-21.887-15.984c-28.011-23.832-55.873-47.809-83.664-71.928
	c-34.058-29.594-68.4-58.824-102.89-87.984c-28.008-23.76-56.159-47.159-84.743-70.271c-22.104-17.783-44.568-35.063-67.248-52.199
	c-28.009-21.744-55.943-43.704-83.521-65.88c-14.258-10.872-28.729-21.24-43.633-31.248c-20.592-13.032-43.992-21.168-68.4-23.544
	c-21.6-2.306-43.488-2.232-65.16,0.286c-30.311,3.528-60.623,7.488-90.862,11.594c-34.992,4.822-70.058,9.646-105.191,14.832
	c-30.312,4.318-60.553,8.928-90.72,13.605c-35.208,5.329-70.271,11.161-105.266,17.138c-30.312,5.04-60.624,10.513-90.792,16.487
	c-35.136,6.912-70.198,14.399-105.19,22.176c-30.385,6.912-60.624,14.111-90.792,21.528c-35.136,8.641-70.271,17.641-105.266,27
	c-30.384,7.991-60.694,16.487-90.792,25.92c-34.703,10.729-68.902,23.328-102.312,37.729c-31.68,13.393-62.063,29.52-90.863,48.384
	c-19.512,13.032-37.656,28.009-54,44.784c-32.328,31.464-62.137,65.521-89.062,101.664c-11.88,16.344-23.111,33.264-33.191,50.832
	c-4.032,7.487-7.632,15.191-10.512,23.184c-2.161,5.978-6.841,10.729-12.744,12.816c-6.696,2.304-13.465,4.176-20.448,5.616
	L191,1326.141c-6.768,1.584-13.606,3.239-20.375,4.896c-21.312,5.256-42.625,10.296-63.937,15.264
	c-3.96,0.938-8.063,1.152-12.024,0.864c-2.016-0.144-3.672-1.584-4.176-3.527L89.625,1338.812L89.625,1338.812L89.625,1338.812z"/>
<path fill="none" stroke="#000000" stroke-linejoin="round" stroke-miterlimit="10" d="M2737.212,851.774
	c-4.03-7.634-7.92-15.12-11.735-22.823c-27.433-53.354-56.16-105.912-86.472-157.608c-7.633-12.888-15.553-25.774-23.616-38.304
	c-34.488-54-71.496-106.344-110.808-156.816c-9.793-12.6-19.803-24.982-29.952-37.224c-17.496-21.528-36-42.12-55.439-61.92
	c-10.942-11.016-22.969-21.096-35.854-29.736c-14.904-9.576-31.752-15.479-49.32-17.279c-15.695-1.729-31.607-2.736-47.592-3.168
	c-36.576-0.864-73.226-1.225-109.943-1.009l-86.041-0.071c-36.646-0.288-73.225-0.433-109.943-0.433
	c-28.729,0.288-57.385,0.721-85.969,1.656c-36.791,1.008-73.438,2.304-110.016,3.96c-27.648,1.008-55.297,2.304-82.871,3.816
	c-19.08,0.863-38.16,1.943-57.168,3.023c-45,2.592-89.855,5.256-134.785,8.28l-61.271,4.248
	c-44.641,3.672-89.207,7.128-133.918,10.368c-20.735,1.655-41.399,3.096-61.992,4.464c-44.712,3.168-89.354,6.264-134.063,9.216
	c-20.592,1.512-41.327,2.952-61.991,4.248l-128.809,8.855l-67.177,4.896c-42.983,3.6-85.896,7.704-128.735,12.384l-66.888,7.488
	l-113.186,13.176c-16.561,2.016-32.977,3.96-49.607,5.616c-4.535,0.432-9.287-0.146-13.607-1.8c-3.238-1.44-5.327-4.752-5.256-8.354
	c-0.721-6.624-1.729-13.319-3.168-19.943c-1.225-7.128-2.592-14.257-4.104-21.24c-2.376-10.729-8.208-20.448-16.704-27.576
	c-8.712-6.48-19.152-10.224-29.951-10.872c-10.297-0.72-20.593-0.576-30.816,0.648c-55.009,4.607-110.16,9.647-165.097,15.12
	c-10.296,0.863-20.663,1.8-30.889,2.735c-15.624,1.44-31.104,2.809-46.8,4.104c-3.744,0.288-7.486,0.071-11.16-0.721
	c-3.096-0.792-5.04-3.815-4.464-7.056c0.648-5.256,1.584-10.368,2.81-15.552c3.888-14.688,8.208-29.232,12.959-43.632
	c13.969-41.76,28.297-83.376,43.345-124.848c7.56-23.4,14.399-47.231,20.376-71.208c3.312-12.672,6.264-25.416,8.854-38.304
	c0.072-4.608,2.232-8.856,5.761-11.88c3.815-2.664,8.496-3.816,13.177-3.384l182.735-1.152c4.393-0.072,8.784-0.144,13.177-0.144
	l88.487-0.72l96.408-0.864l99.504-1.08c32.185-0.36,64.297-0.72,96.407-1.224l99.647-1.224l96.408-1.08l97.991-1.224
	c32.615-0.36,65.305-0.72,98.062-1.008l97.921-1.152c32.688-0.288,65.375-0.792,97.992-1.296l98.062-1.728
	c32.688-0.648,65.231-1.368,97.92-2.16c32.76-0.72,65.377-1.512,97.991-2.376c32.688-0.864,65.377-1.872,98.064-2.808
	c32.687-0.936,65.303-2.088,97.92-3.168c32.76-1.08,65.447-2.376,98.062-3.744c32.615-1.296,65.306-2.808,98.064-4.536
	c32.615-1.584,65.23-3.096,97.92-4.464l97.992-3.528c32.688-0.936,65.303-1.872,98.062-2.808l97.92-2.232
	c32.763-0.576,65.447-1.08,98.138-1.512c17.713-0.144,35.352-0.144,53.062,0.288c10.008,0.216,20.088,0.72,30.096,1.584
	c8.281,0.576,16.488,2.808,23.904,6.696c7.705,4.392,13.608,11.231,17.137,19.512c4.683,11.088,7.703,22.824,9,34.776
	c1.943,17.712,3.312,35.496,4.179,53.208c2.229,45.144,3.813,90.36,4.967,135.576c0.504,20.16,1.008,40.248,1.512,60.408
	c0.865,38.952,1.873,77.904,3.096,116.784c1.01,26.28,2.307,52.561,3.816,78.769l4.896,96.911l5.111,96.407
	c1.584,33.121,3.383,66.385,5.256,99.504l2.664,45.648c0.146,4.393-0.432,8.713-1.584,12.814c-0.504,2.232-2.159,3.96-4.393,4.682
	c-2.664,0-5.111-1.152-6.912-3.023C2741.388,857.967,2739.013,854.942,2737.212,851.774L2737.212,851.774L2737.212,851.774z"/>
</svg>
