<?xml version="1.0" encoding="utf-8"?>
<!-- Generator: Adobe Illustrator 16.0.0, SVG Export Plug-In . SVG Version: 6.00 Build 0)  -->
<!DOCTYPE svg PUBLIC "-//W3C//DTD SVG 1.1//EN" "http://www.w3.org/Graphics/SVG/1.1/DTD/svg11.dtd">
<svg version="1.1" id="Layer_1" xmlns="http://www.w3.org/2000/svg" xmlns:xlink="http://www.w3.org/1999/xlink" x="0px" y="0px"
	 width="2385.041px" height="1774.521px" viewBox="0 0 2385.041 1774.521" enable-background="new 0 0 2385.041 1774.521"
	 xml:space="preserve">
<path fill="none" stroke="#000000" stroke-linejoin="round" stroke-miterlimit="10" d="M1437.335,119.582
	c-2.104-0.226-3.456-0.163-3.801,0.287c-4.352,5.677,8.54,34.419,15.797,50.597c24.129,53.796,43.477,103.027,58.021,147.833
	c2.86,8.72,4.141,15.316,3.771,19.774c-0.19,3.247-6.737,13.049-8.919,15.49c-2.971,3.347-17.56,14.869-22.289,17.808
	c-8.51,5.363-13.374,8.717-14.532,10.146l0,0l-0.681-0.317l0,0c-0.026,0.141-0.292,0.465-0.854,0.818l0,0
	c-3.505,2.537-15.938,10.305-37.282,23.235c-28.159,17.155-43.775,26.779-46.796,28.952c-3.843,2.848-5.992,7.045-6.338,12.816"/>
<path fill="none" stroke="#000000" stroke-linejoin="round" stroke-miterlimit="10" d="M213.404,448.012
	c-0.351,13.993,0.335,21.347,2.579,24.802c4.722,7.269,13.668,9.021,21.804,9.97c1.361,0.158,28.434,5.556,81.366,16.13
	c17.809,3.583,47.25,9.203,88.461,16.869c131.062,24.379,261.771,50.682,393.038,74.004c34.738,6.173,74.996,13.057,120.763,20.579
	c9.628,1.583,26.638,4.378,30.904,2.993"/>
<path fill="none" stroke="#000000" stroke-linejoin="round" stroke-miterlimit="10" d="M1328.8,431.043
	c-2.864-1.48-9.905-3.081-21.271-4.741c-64.092-9.354-127.12-25.743-191.701-31.646c-58.819-5.376-117.095-15.365-174.655-28.544
	c-10.026-2.295-15.77-3.889-17.229-4.701c-20.286-11.29,89.909,1.179,134.587,6.231c40.604,4.597,81.451,6.708,122.098,10.926
	c5.375,0.558,36.03,2.936,39.353,1.774c1.771-0.607,3.655-1.932,5.521-3.978c0.534-3.862-71.938-131.757-77.979-142.241
	c-38.328-66.484-108.033-192.392-118.861-197.141"/>
<path fill="none" stroke="#000000" stroke-linejoin="round" stroke-miterlimit="10" d="M878.134,667.784
	c1.386-2.653,1.838-5.511,0.47-8.781c-1.993-4.763-20.479-7.812-31.285-9.599c-195.312-32.249-388.88-74.229-580.097-125.434
	c-18.902-5.062-51.417-13.77-57.599-10.956c-2.382,1.085-3.977,11.464-5.132,26.76"/>
</svg>
