<?xml version="1.0" encoding="utf-8"?>
<!-- Generator: Adobe Illustrator 16.0.0, SVG Export Plug-In . SVG Version: 6.00 Build 0)  -->
<!DOCTYPE svg PUBLIC "-//W3C//DTD SVG 1.1//EN" "http://www.w3.org/Graphics/SVG/1.1/DTD/svg11.dtd">
<svg version="1.1" id="Layer_1" xmlns="http://www.w3.org/2000/svg" xmlns:xlink="http://www.w3.org/1999/xlink" x="0px" y="0px"
	 width="4144.916px" height="3349.247px" viewBox="0 0 4144.916 3349.247" enable-background="new 0 0 4144.916 3349.247"
	 xml:space="preserve">
<path fill="none" stroke="#000000" stroke-linejoin="round" stroke-miterlimit="10" d="M4113.336,842.594
	c-0.217,0.576-1.008,1.44-2.377,2.736c-2.305,2.16-5.543,3.242-9.791,3.096c-23.327-0.576-38.952-0.792-46.801-0.792
	c-25.488,0.216-45.934,0-61.199-0.792c-36.287-1.512-56.881-2.16-61.129-2.16c-18.287-0.068-27.932,0-28.94-0.068
	c-48.601-1.803-89.426-2.091-122.328-1.011c-10.512,0.359-17.783,0-21.312-1.009l0,0l-3.603-0.936l-1.801-0.436l0,0
	c-7.92-1.296-11.375-16.774-11.306-17.348l0,0l0.722-3.601l0,0c22.317-123.192,35.426-202.824,39.674-238.896
	c4.031-34.203,7.631-64.08,11.088-89.641c2.553-18.816,4.806-35.572,6.755-50.271"/>
<path fill="none" stroke="#000000" stroke-linejoin="round" stroke-miterlimit="10" d="M1095.68,2321.555
	c-21.54-49.363-43.179-98.684-64.927-147.955l0,0c-42.712-96.768-75.783-197.402-114.971-295.594
	c-18.822-47.17-36.1-93.332-51.719-138.371c-25.913-74.776-41.426-119.017-46.575-132.633
	c-19.977-52.792-38.955-105.96-56.562-159.591c-0.045-0.141,0.352-1.706,1.262-1.702l0,0l562.788,16.28l0,0
	c2.017,0.058-2.849,19.636-4.755,29.373c-8.541,43.638-15.853,87.502-23.021,131.384c-4.684,28.668-5.954,47.879-3.858,57.723
	c5.694,26.748,14.441,67.844,18.719,79.865c29.768,83.664,60.198,167.084,91.137,250.314
	c36.49,111.609,219.732,577.619,331.541,865.723c13.441,34.637,36.587,94.275,38.176,104.705
	c6.409,42.066,11.747,72.061,15.812,89.822c1.756,7.457,2.229,12.146,1.443,14.145c-1.585,0.709-3.243,1.139-4.992,1.291"/>
<path fill="none" stroke="#000000" stroke-linejoin="round" stroke-miterlimit="10" d="M3198.807,2269.227
	c18.894-43.084,37.863-86.135,56.917-129.148l0,0c42.838-96.713,76.041-197.305,115.356-295.447
	c18.879-47.146,36.217-93.285,51.896-138.305c26.012-74.743,41.578-118.962,46.748-132.574
	c20.045-52.766,39.092-105.911,56.771-159.517c0.045-0.139-0.35-1.706-1.26-1.704l0,0l-562.812,15.546l0,0
	c-2.012,0.055,2.824,19.641,4.718,29.379c8.485,43.649,15.741,87.523,22.854,131.414c4.644,28.672,5.89,47.885,3.781,57.729
	c-5.726,26.737-14.524,67.822-18.82,79.843c-29.875,83.623-60.414,167.004-91.461,250.193
	c-36.641,111.561-220.487,577.33-332.67,865.289c-13.487,34.615-36.709,94.227-38.312,104.652
	c-6.463,42.062-11.84,72.049-15.928,89.803c-1.767,7.451-2.246,12.145-1.463,14.145c2.448,1.098,5.072,1.529,7.936,1.312"/>
<path fill="none" stroke="#000000" stroke-linejoin="round" stroke-miterlimit="10" d="M2829.912,289.363
	c-3.653,9.394-5.564,19.42-6.744,29.455c-0.75,6.374-0.703,12.376,0.229,17.876c4.707,26.989,7.99,47.081,9.99,60.295
	c14.313,94.895,26.66,173.068,37.033,234.53c7.307,43.308,12.987,86.859,18.67,130.405c3.371,25.838,11.562,95.104,24.631,207.886
	c13.438,115.943,23.219,232.295,37.301,348.168c0.857,7.054,2.439,21.425,4.605,43.084c0.955,9.582,1.682,15.57,2.037,17.938
	c5.123,0.188,15.893-0.134,32.381-0.948c9.021-0.417,28.188-1,57.562-1.729c118.793-2.965,237.326-12.278,356.08-16.276
	c14.054-0.473,35.652-1.396,64.791-2.7c13.646-0.638,30.439-1.16,50.394-1.642c10.387-0.259,16.299-0.634,17.666-1.14
	c1.795-3.73,9.861-27.604,24.272-71.6c23.89-73.156,39.941-123.5,48.023-151.057c23.662-80.69,41.199-163,62.463-244.329
	c1.021-3.903,15.031-67.54,42.15-191.104c14.229-64.854,40.641-185.134,40.021-195.12c-0.438-7.057-3.46-15.091-10.715-16.681"/>
<path fill="none" stroke="#000000" stroke-linejoin="round" stroke-miterlimit="10" d="M1676.016,346.884
	c-1.003,1.514-5.711,23.318-8.505,34.992c-32.725,136.729-92.687,389.833-98.416,410.131
	c-32.681,115.729-59.165,233.099-80.198,351.487c-3.562,20.068-6.924,37.771-10.071,53.1
	c-19.737,96.346-29.849,150.739-30.179,163.047c-0.146,5.414,44.761,10.908,67.623,13.706c42.934,5.255,85.966,9.643,128.886,14.996
	c126.648,15.812,253.938,27.379,381.642,27.711c65.105,0.169,99.242,0.298,102.41,0.385c3.541-3.146,5.502-17.065,5.656-41.554
	c0.604-94.769,8.416-285.201,9.455-284.104l0,0l0.066,0.073l0.068,0.146l12.121,325.453l0,0c16.121,0.434,32.252,0.58,48.387,0.511
	c62.33-0.269,129.865-0.56,186.93-4.446l0,0"/>
<path fill="none" stroke="#000000" stroke-linejoin="round" stroke-miterlimit="10" d="M2391.89,1412.517
	c114.936-7.831,229.854-17.693,343.434-37.354c36.05-6.24,109.349-13.479,107.841-20.376c-8.646-39.53-13.677-63.021-15.035-70.619
	c-10.609-59.244-21.771-121.568-33.271-177.467c-23.527-114.363-49.02-228.337-78.846-341.234
	c-32.371-122.532-56.945-247.015-90.324-369.288c-2.955-10.826-6.346-24.863-10.176-42.184c-1.566-7.504-5.342-11.427-11.24-11.707"
	/>
<path fill="none" stroke="#000000" stroke-linejoin="round" stroke-miterlimit="10" d="M3262.582,2308.292
	c0.015,2.127,0.518,3.393,1.649,3.512c0.729,0.074,5.728-3.111,14.92-9.594c11.68-8.229,23.411-16.385,35.187-24.473"/>
<path fill="none" stroke="#000000" stroke-linejoin="round" stroke-miterlimit="10" d="M1910.816,3094.852
	c-0.997-3.537-2.049-7.27-3.157-11.195c-8.36-29.625-28.203-85.447-24.627-89c1.807-1.795,7.279-2.209,16.274-1.174
	c10.938,1.26,31.231,4.639,60.881,10.133c33.306,6.174,66.984,10.596,100.606,15.01c34.014,4.467,68.271,6.914,102.579,7.023
	c40.604,0.131,74.389-3.576,112.202-8.354c20.89-2.668,99.48-16.023,132.341-23.336c30.188-6.672,45.752-9.936,46.688-9.855
	c0.793,0.072,4.31,3.541,4.804,6.781c0.28,2.377-1.328,10.004-4.97,22.951c-5.215,18.537-10.205,37.137-15.174,55.74"/>
<path fill="none" stroke="#000000" stroke-linejoin="round" stroke-miterlimit="10" d="M343.633,215.177
	c4.656,18.865,10.673,61.662,15.028,92.647c11.035,78.495,17.836,124.924,20.411,139.356
	c20.076,112.536,32.91,226.271,54.013,338.632c15.105,80.438,31.223,166.253,51.918,239.938
	c6.491,23.115,17.567,62.55,19.047,69.464l0,0c15.298,71.521,48.854,163.664,78.07,243.911
	c10.283,28.235,22.796,60.904,37.609,97.979c22.361,55.978,57.431,139.549,86.625,209.122
	c45.193,107.712,103.936,209.029,153.58,314.667c42.884,91.258,72.61,153.07,89.182,185.438
	c26.318,51.406,49.621,104.311,76.33,155.52c6.322,12.121,8.561,20.396,6.715,24.834c-0.454,1.092-1.473,1.539-2.832,1.549"/>
<path fill="none" stroke="#000000" stroke-linejoin="round" stroke-miterlimit="10" d="M530.048,225.684
	c-2.554,4.427-3.271,10.054-1.993,16.998c4.312,23.384,7.604,44.829,9.797,64.279c9.63,86.436,22.366,174.641,38.188,264.479
	c17.749,100.776,38.197,240.229,59.944,359.887c25.551,140.587,53.87,276.295,93.217,414.6c7.062,24.83,20.104,70.679,29.625,71.271
	c5.329,0.332,33.16,0.937,82.322,2.172c149.333,3.751,298.646,8.275,447.914,14.156l0,0l29.211,1.148l0,0
	c2.655,0.104,11.536-74.348,17.457-111.498c11.923-74.8,22.776-149.771,35.677-224.415c13.529-78.315,27.873-157.054,41.736-235.309
	l0,0"/>
<path fill="none" stroke="#000000" stroke-linejoin="round" stroke-miterlimit="10" d="M1413.143,863.452
	c1.463-5.178,5.237-25.216,11.387-60.197c16.65-94.769,35.93-189.05,53.3-283.687c1.271-6.92,18.353-91.997,27.58-137.985
	c1.146-5.706,1.58-9.303,1.475-10.676c-0.701-9.038-4.287-17.343-7.768-25.683"/>
<path fill="none" stroke="#000001" stroke-linejoin="round" stroke-miterlimit="10" d="M4138.146,899.237
	c-0.912-0.206-23.646,0.804-68.395,3.208c-33.595,1.806-67.297,1.044-100.861,3.506c-75.242,5.521-150.756,5.415-226.094,9.057
	c-2.507,0.121-14.701,3.137-21.996,4.939c-0.625,0.154-4.533,9.977-5.994,22.046c-1.533,13.381-4.133,30.509-7.865,51.366
	c-3.732,20.854-9.043,44.456-14.021,66.586c-14.541,64.625-24.764,130.271-43.129,193.981
	c-11.77,40.819-23.061,78.869-33.959,114.202c-24.246,78.234-52.946,165.135-85.991,260.501
	c-30.347,87.583-64.201,173.904-100.658,259.121c-50.812,118.766-101.115,237.771-147.147,358.479
	c-5.556,14.564-15.138,39.688-18.355,54.248"/>
<path fill="none" stroke="#000000" stroke-linejoin="round" stroke-miterlimit="10" d="M2407.366,2502.659
	c-1.819,5.346-2.844,11.26-3.067,17.67c-1.82,51.707-10.017,103.104-9.515,154.896c0.011,1.08-0.327,10.732-0.872,28.885
	c-0.148,6.842-0.613,33.27-1.245,79.432c-0.067,7.777-1.424,46.311-3.993,115.461c-0.793,21.969-1.189,33.133-1.115,33.42
	c-5.506,3.869-13.396,6.754-23.678,8.582c-12.578,2.281-29.25,5.611-49.873,9.988c-28.445,6.033-57.261,10.033-86.053,14.012
	c-14.021,1.936-54.039,3.689-67.794,3.465c-19.229-0.244-40.842-1.619-64.844-4.195c-35.894-3.85-71.334-10.951-107.079-15.881
	c-8.292-1.145-13.927-2.961-16.9-5.309c-2.976-2.42-4.504-4.135-4.587-5.213c-1.927-25.217-4.833-50.355-6.133-75.615
	c-2.041-39.654-7.481-103.252-16.251-190.795c-0.083-1.08-0.501-7.123-1.255-17.988c-1.584-22.832-4.024-45.596-5.704-68.42
	c-3.482-47.346-7.745-63.576-23.811-108.855c-41.251-116.27-90.312-229.668-129.942-346.521
	c-25.891-76.34-50.894-152.979-75.455-229.752c-11.14-34.812-22.452-72.865-33.869-114.156c-1.047-3.951-2.459-8.545-4.097-13.855
	c-2.079-6.605-8.938-30.945-20.579-72.955c-2.25-8.115-2.945-16.551-4.562-24.796c-2.804-14.304-4.199-24.584-4.188-30.923
	c0.034-11.159,0.649-21.968,1.771-32.562c1.157-10.931,4.938-38.273,7.58-57.388c0.538-3.896,2.379-14.643,5.521-32.167
	c3.279-18.321,5.771-28.857,7.325-31.684l0,0l3.378-8.022l0,0c1.919-2.61,3.191-4.928,3.749-6.948
	c5.919,1.526,34.921,7.365,85.809,12.632c20.469,2.105,73.354,5.771,158.655,10.918c22.854,1.379,45.765,1.004,68.639,1.782
	c13.182,0.448,48.106,1.045,104.784,1.936c42.216,0.663,94.141,1.479,126.646-0.867c2.303-0.166,13.172-0.562,32.533-1.182
	c53.406-1.886,123.217-5.516,209.424-11.031c19.25-1.23,38.464-2.991,57.703-4.377c33.688-2.422,67.307-5.738,101.019-7.817
	c5.541-0.343,9.14-0.593,10.793-0.752c6.905,6.771,7.879,10.436,11.664,29.624c1.815,8.98,18.896,99.396,18.717,118.189
	c-0.208,30.604-2.592,44.739-5.741,61.403c-6.438,33.76-16.004,72.16-28.834,115.342c-41.394,139.32-90.666,305.164-125.34,417.611
	C2467.382,2312.946,2423.427,2455.491,2407.366,2502.659L2407.366,2502.659"/>
<path fill="none" stroke="#000000" stroke-linejoin="round" stroke-miterlimit="10" d="M2446.009,2511.77
	c-1.146,4.539,7.347-4.588,9.127-7.348c3.261-5.045,5.538-10.635,8.401-15.898c5.479-10.074,9.613-18.768,12.472-25.863
	c13.919-34.576,27.993-69.117,44.2-102.695c14.092-29.188,24.818-59.838,37.561-89.617c2.227-5.199,5.739-14.133,10.479-26.771
	c6.743-17.992,14.851-35.438,21.867-53.324c3.954-10.074,6.656-16.738,8.021-20.039l0,0l77.423-185.604l0,0
	c1.261-3.26,6.301-15.709,15.185-37.316c1.321-3.223,3.127-7.742,5.453-13.621c2.668-6.928,10.304-24.854,22.815-53.924
	c0.724-1.576,5.767-15.348,15.341-41.109c6.562-17.789,12.521-32.451,18.03-43.979c10.03-20.979,17.918-42.881,25.713-64.77
	c1.838-5.164,3.069-8.521,3.767-10.193c2.326-5.881,5.068-18.799,8.065-38.77c1.11-7.391,2.306-14.487,3.519-21.327
	c2.311-13.017,0.468-26.28,0.908-39.416c0.198-5.923-0.365-17.813-1.695-35.678c-2.618-34.628-5.299-65.484-8.105-92.449
	c-0.367-3.599-0.916-10.687-1.707-21.3c-1.614-22.485-3.091-34.23-4.553-35.305c-1.311-0.902-12.79,3.035-34.549,12.006
	c-1.383,0.543-5.766,2.451-13.215,5.688c-4.713,2.053-20.3,8.14-46.895,18.351c-4.534,1.739-6.852,2.913-7.018,3.646
	c-0.053,0.385,0.608,3.898,1.96,10.446c2.412,11.694,5.312,38.792,8.761,81.328c3.729,46.58,4.935,78.589,3.539,96.153
	c-1.743,21.938-13.697,80.229-21.873,120.094c-2.646,12.893-13.254,53.531-31.77,121.951c-13.207,48.764-20.223,74.234-20.879,76.43
	c-4.241,13.23-12.431,39.611-24.625,79.107c-6.416,20.604-14.155,47.07-23.418,79.459c-3.164,11.029-12.896,41.91-29.338,92.736
	c-0.543,1.842-1.648,5.27-3.097,10.32c-13.8,47.023-28.091,90.383-42.776,130.041c-10.425,28.146-20.041,56.586-30.518,84.717
	c-4.655,12.502-7.871,23.658-10.075,31.674C2450.515,2496.659,2447.973,2503.987,2446.009,2511.77L2446.009,2511.77"/>
<path fill="none" stroke="#000000" stroke-linejoin="round" stroke-miterlimit="10" d="M2926.473,1694.883
	c4.646-29.042,6.769-54.049,6.206-75.035c-0.729-30.503-1.851-50.645-3.423-60.459c-1.687-10.786-5.164-37.882-10.351-81.146
	c-0.229-2.526-1.985-11.867-5.11-28.015c-1.496-7.459-2.556-13.348-3.312-17.574c-1.2-6.728-8.591-8.454-14.618-8.083
	c-7.795,0.479-24.836,1.528-51.086,2.924c-19.037,1.011-53.52,2.843-56.082,10.021c-0.713,1.996-0.6,6.773,0.257,14.198
	c3.127,27.202,7.059,61.405,9.879,81.545c0.429,3.053,6.129,59.178,8.077,85.323c0.868,12.229,1.191,20.598,0.903,25.063
	c-2.263,33.608-10.746,71.065-25.521,112.495c-1.049,2.883-6.02,15.205-14.873,36.912c-12.305,30.15-35.121,85.904-36.896,90.455
	c-14.033,35.961-33.824,69.605-45.246,106.576l0,0l-73.287,171.316l0,0c-10.061,27.309-29.527,74.838-58.449,142.68
	c-7.031,16.492-13.679,33.146-20.713,49.641c-9.562,22.408-28.314,68.928-56.332,139.576c-7.207,18.23-13.207,41.223-17.955,68.889
	c-4.493,26.436-7.197,44.232-8.113,53.4c-5.332,53.383-6.751,107.139-13.84,160.346c-3.352,25.146-5.5,50.436-8.432,75.629
	c-1.904,16.377-3.967,44.096-6.297,83.045c-0.103,2.551-0.056,4.213,0.271,4.709c0.118,0.34,3.433,2.615,6.81,3.113
	c3.444,0.473,13.418-1.105,30.08-4.715c9.938-2.152,27.598-49.021,37.515-75.344c3.838-10.188,15.961-41.191,36.53-92.998
	c15.793-39.771,28.559-80.689,44.492-120.414c6.439-16.055,25.167-66.145,56.228-150.139c18.14-49.057,47.149-127.512,54.882-147
	c22.802-57.475,43.646-115.701,65.957-173.367c36.002-93.064,68.209-187.535,102.388-281.275
	C2881.431,1830.19,2923.121,1715.84,2926.473,1694.883L2926.473,1694.883"/>
<path fill="none" stroke="#000000" stroke-linejoin="round" stroke-miterlimit="10" d="M1882.375,2499.45
	c1.379,4.473-7.572-4.203-9.494-6.865c-3.517-4.869-6.079-10.334-9.213-15.445c-5.991-9.779-10.567-18.244-13.789-25.186
	c-15.687-33.812-31.525-67.58-49.445-100.275c-15.578-28.424-27.875-58.479-42.136-87.561c-2.491-5.078-6.462-13.816-11.847-26.191
	c-7.664-17.623-16.658-34.627-24.592-52.125c-4.471-9.855-7.516-16.375-9.048-19.6l0,0l-86.902-181.359l0,0
	c-1.426-3.188-7.104-15.361-17.09-36.482c-1.485-3.146-3.522-7.566-6.148-13.318c-3.021-6.779-11.573-24.291-25.571-52.674
	c-0.804-1.535-6.55-15.029-17.441-40.268c-7.476-17.428-14.182-31.762-20.276-42.982c-11.103-20.439-20.107-41.898-29.021-63.357
	c-2.104-5.062-3.506-8.35-4.288-9.982c-2.625-5.752-6.031-18.516-10.059-38.301c-1.49-7.322-3.05-14.351-4.612-21.119
	c-2.979-12.88-1.823-26.223-2.942-39.314c-0.506-5.904-0.556-17.812-0.148-35.718c0.828-34.718,1.909-65.674,3.322-92.745
	c0.184-3.611,0.363-10.72,0.604-21.359c0.451-22.541,1.316-34.346,2.724-35.493c1.26-0.97,12.931,2.371,35.123,10.205
	c1.407,0.473,5.884,2.151,13.488,5c4.812,1.809,20.691,7.081,47.777,15.905c4.618,1.503,6.991,2.556,7.194,3.278
	c0.07,0.382-0.409,3.927-1.417,10.534c-1.807,11.806-3.303,39.017-4.55,81.673c-1.318,46.709-0.866,78.736,1.434,96.209
	c2.873,21.817,17.822,79.415,28.048,118.803c3.307,12.738,16,52.771,38.021,120.146c15.711,48.018,24.029,73.096,24.8,75.246
	c4.918,12.996,14.457,38.918,28.677,77.732c7.473,20.242,16.568,46.273,27.49,78.143c3.729,10.855,15.045,41.189,34.087,91.1
	c0.64,1.811,1.921,5.178,3.625,10.148c16.209,46.248,32.723,88.811,49.438,127.658c11.863,27.57,22.936,55.475,34.85,83.021
	c5.295,12.246,9.082,23.225,11.698,31.113C1877.096,2484.59,1880.013,2491.776,1882.375,2499.45L1882.375,2499.45"/>
<path fill="none" stroke="#000000" stroke-linejoin="round" stroke-miterlimit="10" d="M1360.368,1708.463
	c-6.139-28.762-9.55-53.626-10.071-74.613c-0.847-30.5-0.769-50.672,0.295-60.556c1.125-10.86,3.201-38.098,6.146-81.575
	c0.098-2.535,1.37-11.954,3.656-28.239c1.107-7.524,1.861-13.462,2.397-17.725c0.854-6.777,8.143-8.886,14.184-8.827
	c7.81,0.078,24.884,0.245,51.168,0.282c19.062,0.027,53.595,0.075,56.525,7.115c0.812,1.956,0.945,6.729,0.478,14.189
	c-1.719,27.327-3.877,61.688-5.653,81.946c-0.271,3.07-3.064,59.414-3.66,85.627c-0.237,12.259-0.129,20.631,0.391,25.077
	c3.995,33.448,14.402,70.417,31.299,111.028c1.193,2.82,6.793,14.875,16.76,36.096c13.842,29.475,39.51,83.977,41.519,88.428
	c15.874,35.189,37.376,67.766,50.688,104.098l0,0l82.035,167.307l0,0c11.457,26.754,33.354,73.215,65.74,139.471
	c7.875,16.107,15.371,32.398,23.25,48.506c10.705,21.885,31.837,67.369,63.465,136.48c8.14,17.832,15.316,40.482,21.488,67.871
	c5.854,26.164,9.473,43.801,10.859,52.908c8.083,53.037,12.273,106.646,22.103,159.416c4.646,24.939,8.099,50.082,12.325,75.094
	c2.748,16.258,6.236,43.832,10.576,82.605c0.229,2.543,0.271,4.205-0.028,4.721c-0.102,0.346-3.291,2.787-6.639,3.459
	c-3.416,0.65-13.458-0.408-30.284-3.152c-10.037-1.639-30.092-47.529-41.354-73.305c-4.357-9.979-18.066-40.312-41.282-90.984
	c-17.826-38.906-32.688-79.109-50.651-117.957c-7.263-15.697-28.551-64.76-63.904-147.033
	c-20.647-48.057-53.673-124.906-62.397-143.971c-25.737-56.223-49.564-113.295-74.82-169.729
	c-40.763-91.084-77.805-183.766-116.776-275.617C1412.337,1841.262,1364.798,1729.219,1360.368,1708.463L1360.368,1708.463"/>
</svg>
