<?xml version="1.0" encoding="utf-8"?>
<!-- Generator: Adobe Illustrator 16.0.0, SVG Export Plug-In . SVG Version: 6.00 Build 0)  -->
<!DOCTYPE svg PUBLIC "-//W3C//DTD SVG 1.1//EN" "http://www.w3.org/Graphics/SVG/1.1/DTD/svg11.dtd">
<svg version="1.1" id="Layer_1" xmlns="http://www.w3.org/2000/svg" xmlns:xlink="http://www.w3.org/1999/xlink" x="0px" y="0px"
	 width="3674.527px" height="1847.375px" viewBox="0 0 3674.527 1847.375" enable-background="new 0 0 3674.527 1847.375"
	 xml:space="preserve">
<path fill="none" stroke="#000000" stroke-miterlimit="10" d="M182.985,1694.505c-16.771-7.883-36.974-0.213-45.128,17.133
	c-8.154,17.349-1.17,37.798,15.6,45.685c16.771,7.883,36.976,0.213,45.129-17.135
	C206.739,1722.841,199.754,1702.388,182.985,1694.505L182.985,1694.505z M3665.363,163.667c3.109,0.43,5.281,1.236,5.425,2.659
	c0.393,3.869-4.803,19.757-15.574,47.735c-13.788,36.102-26.921,69.621-39.322,100.623c-12.636,31.673-22.311,56.31-28.964,73.763
	c-12.804,33.582-35.021,96.75-38.97,100.521c-1.407,1.345-14.107,8.53-29.838,12.282c-15.154,3.705-63.857,11.472-146.239,23.458
	c-0.496,0.113-38.556,6.426-114.021,19.07c-53.015,8.917-93.412,15.782-121.029,20.803c-28.43,5.167-57.137,8.588-85.7,12.909
	c-13.629,2.062-20.772,3.011-21.511,2.854c-1.321-0.252-9.448-5.072-24.459-14.526c-17.217-10.794-33.959-16.709-50.16-17.832
	c-74.807-5.184-283.633,24.257-424.57,44.125l0,0l-648.487,91.413l-0.005,0.217l-106.971,8.688L1543.91,712.58
	c-0.579,0.133-12.706,1.55-36.377,4.18c-37.604,4.229-48.471,7.542-90.271,27.385c-16.41,7.791-32.256,16.695-48.384,25.043
	c-4.132,2.142-11.632,6.021-12.716,5.729c-31.601,29.229-89.445,108.736-89.445,108.736c-0.438,0.758-5.276,4.771-14.442,12.072
	c-20.42,16.042-30.735,24.14-31.065,24.398c-5.63,4.435-13.758,10.839-16.434,13.856c-13.627,15.39-24.543,32.873-34.415,50.854
	c-3.76,6.846-12.696,6.709-18.973,10.198c-65.567,36.481-136.738,61.258-204.441,93.328c-47.797,22.641-78.896,37.854-93.172,45.543
	c-25.244,13.598-51.481,25.272-76.612,39.088c-39.736,21.842-81.536,39.662-121.527,61.016
	c-24.645,13.158-39.434,20.924-44.434,23.268c-36.839,17.607-66.412,37.359-88.652,59.285c-6.167,6.015-31.552,36.482-54.933,71.158
	c-40.455,59.824-72.983,113.113-97.724,159.643c-7.239,13.543-11.771,21.992-13.751,25.357
	c-44.801,79.9-77.228,141.432-97.399,184.855c-9.975,21.725-15.906,33.496-17.503,35.369c-3.037,3.584-3.761,4.274-19.526,7.688
	c-6.185,1.311-13.199,2.865-20.981,4.695c-25.249,5.475-42.84,9.219-52.682,11.192c-27.952,5.479-57.273,11.66-87.807,18.396
	c-18.942,4.174-55.292,14.854-56.945,11.975c-1.603-2.795-4.086-7.125-3.054-9.074l411.224-776.428
	c0.088-0.357,22.873-43.578,28.934-50.205c17.469-19.104,41.546-30.369,61.125-46.975c22.231-18.861,26.435-48.433,33.901-74.95
	c12.727-45.175,19.439-68.433,20.117-69.704c17.241-57.916,34.197-114.027,51.225-167.354
	c10.906-33.98,49.523-147.396,59.577-168.993c4.895-10.51,0.146-24.091,7.651-33.524c4.244-5.334,22.92-33.81,34.12-50.888
	c54.702-83.408,149.095-227.332,165.798-249.102c6.864-8.945,10.795-13.614,18.776-15.973c3.206-0.938,17.562-2.032,43.042-3.212
	c174.902-8.101,349.645-19.331,524.471-28.893c7.373-0.403,14.23-0.783,20.574-1.142c0,0,62.234-6.285,60.686-34.223l-0.004,0.001
	c-0.188-1.381-0.284-2.792-0.284-4.224c0-17.221,13.96-31.181,31.181-31.181s31.181,13.96,31.181,31.181
	c0,1.433-0.097,2.844-0.284,4.226l-0.008-0.002c-2.232,36.688,99.152,40.87,99.152,40.87c0.979-2.213,13.979-4.045,38.921-5.353
	c92.929-5.153,159.018-7.81,198.413-8.042c25.062-0.154,108.133-1.972,111.891-2.618c10.533-1.812,20.178-8.172,23.979-18.395
	c1.599-4.289,1.604-22.797,0.015-55.379c-0.377-7.735,24.145-8.231,36.896-8.49c40.658-0.824,103.273-0.671,154.913-0.545
	c123.396,0.291,246.793,1.12,370.188,1.671l0,0c64.17,0.287,128.297-6.407,192.458-3.495c89.104,4.044,178.158-5.431,267.277-4.671
	c58.968,0.503,117.935-3.119,176.894-1.274c22.888,0.716,76.99,4.135,162.238,10.264c58.825,4.229,117.655,8.43,176.501,12.412
	c16.854,1.141,26.396,2.089,28.772,2.904c6.386,2.075,11.251,8.538,14.597,19.315c6.416,20.68,18.927,59.153,18.142,62.369
	c-0.107,0.443-3.575,4.846-4.461,5.497c-1.009,0.834-2.983,1.585-5.931,2.254v-0.002c-13.338,28.147,1.262,48.129,1.262,48.129
	V163.667z"/>
</svg>
