<?xml version="1.0" encoding="utf-8"?>
<!-- Generator: Adobe Illustrator 16.0.0, SVG Export Plug-In . SVG Version: 6.00 Build 0)  -->
<!DOCTYPE svg PUBLIC "-//W3C//DTD SVG 1.1//EN" "http://www.w3.org/Graphics/SVG/1.1/DTD/svg11.dtd">
<svg version="1.1" id="Layer_1" xmlns="http://www.w3.org/2000/svg" xmlns:xlink="http://www.w3.org/1999/xlink" x="0px" y="0px"
	 width="3674.527px" height="1847.375px" viewBox="0 0 3674.527 1847.375" enable-background="new 0 0 3674.527 1847.375"
	 xml:space="preserve">
<path fill="none" stroke="#000000" stroke-miterlimit="10" d="M2637.614,9.968c64.17,0.287,128.297-6.407,192.458-3.495
	c89.104,4.044,178.158-5.431,267.277-4.671c58.968,0.503,117.935-3.119,176.894-1.274c22.888,0.716,76.99,4.135,162.238,10.264
	c58.825,4.229,117.655,8.43,176.501,12.412c16.854,1.141,26.396,2.089,28.772,2.904c6.386,2.075,11.251,8.538,14.597,19.315
	c6.416,20.68,18.927,59.153,18.142,62.369c-0.107,0.443-3.575,4.846-4.461,5.497c-2.23,1.845-9.192,3.286-20.955,4.326
	c-63.632,5.457-107.974,10.048-133.028,13.7c-35.05,5.126-79.345,10.29-132.798,15.631
	c-118.24,11.814-389.362,34.986-353.489,45.581c6.886,2.034,15.2,3.011,24.868,2.865c15.709-0.237,209.11-11.801,313.654-17.882
	c32.856-1.912,84.534-4.288,155.17-7.143c9.648-0.361,28.917-1.514,57.662-3.375c9.241-0.599,43.254-2.307,64.885-3.393
	c8.354-0.42,24.389-1.225,24.787,2.727c0.393,3.869-4.803,19.757-15.574,47.735c-13.788,36.102-26.921,69.621-39.322,100.623
	c-12.636,31.673-22.311,56.31-28.964,73.763c-12.804,33.582-35.021,96.75-38.97,100.521c-1.407,1.345-14.107,8.53-29.838,12.282
	c-15.154,3.705-63.857,11.472-146.239,23.458c-0.496,0.113-38.556,6.426-114.021,19.07c-53.015,8.917-93.412,15.782-121.029,20.803
	c-28.43,5.167-57.137,8.588-85.7,12.909c-13.629,2.062-20.772,3.011-21.511,2.854c-1.321-0.252-9.448-5.072-24.459-14.526
	c-17.217-10.794-33.959-16.709-50.16-17.832c-74.807-5.184-283.633,24.257-424.57,44.125l0,0l-648.487,91.413l-0.005,0.217
	l-106.971,8.688l0,0c-7.25,0.589,37.85-15.62,56.915-23.07c4.209-1.646,9.866-3.695,16.833-6.365
	c39.687-14.772,72.638-31.479,98.786-50.265c5.759-4.137,11.396-8.438,16.893-12.916c42.043-34.271,81.171-93.263,115.342-144.776
	c10.528-15.877,19.207-33.014,24.2-51.445c3.777-13.936,0.011-29.634-12.508-37.692c-4.604-2.966-64.211-34.705-96.336-52.022
	c-5.131-2.766-13.378-4.513-24.74-5.312c-9.274-0.615-23.396-0.317-42.509,1.033c-77.312,5.468-173.429,12.265-231.811,18.112
	c-19.493,1.953-39.487,5.628-55.368,17.704c-7.384,5.615-13.576,12.91-18.438,21.888c-36.091,66.333-70.839,133.917-104.241,202.752
	c-6.604,13.624-10.238,22.557-10.896,26.79c-3.466,22.254,6.5,43.201,17.28,62.201c3.968,6.992,9.499,14.95,16.599,23.804
	c3.583,4.535,9.107,9.185,16.646,14.014c13.72,8.79-6.213,14.002-13.705,15.718c-0.579,0.133-12.706,1.55-36.377,4.18
	c-37.604,4.229-48.471,7.542-90.271,27.385c-16.41,7.791-32.256,16.695-48.384,25.043c-4.132,2.142-11.632,6.021-12.716,5.729
	c-1.435-0.389-4.274-5.989-4.104-7.498c0.168-1.222,11.37-25.125,33.604-71.641c5.033-10.562,13.226-27.896,24.435-52.159
	c11.562-25.03,24.091-49.603,35.821-74.549c27.812-59.15,55.494-119.1,83.123-179.834c41.43-91.086,106.676-168.336,158.104-253.684
	c5.555-9.218,10.893-18.584,15.252-28.433c0.979-2.213,13.979-4.045,38.921-5.353c92.929-5.153,159.018-7.81,198.413-8.042
	c25.062-0.154,108.133-1.972,111.891-2.618c10.533-1.812,20.178-8.172,23.979-18.395c1.599-4.289,1.604-22.797,0.015-55.379
	c-0.377-7.735,24.145-8.231,36.896-8.49c40.658-0.824,103.273-0.671,154.913-0.545C2390.822,8.588,2514.219,9.417,2637.614,9.968
	L2637.614,9.968"/>
<path fill="none" stroke="#000000" stroke-miterlimit="10" d="M182.985,1694.505c-16.771-7.883-36.974-0.213-45.128,17.133
	c-8.154,17.349-1.17,37.798,15.6,45.685c16.771,7.883,36.976,0.213,45.129-17.135
	C206.739,1722.841,199.754,1702.388,182.985,1694.505L182.985,1694.505"/>
<path fill="none" stroke="#000000" stroke-miterlimit="10" d="M946.947,1088.361c-47.797,22.641-78.896,37.854-93.172,45.543
	c-25.244,13.598-51.481,25.272-76.612,39.088c-39.736,21.842-81.536,39.662-121.527,61.016
	c-24.645,13.158-39.434,20.924-44.434,23.268c-36.839,17.607-66.412,37.359-88.652,59.285c-6.167,6.015-31.552,36.482-54.933,71.158
	c-40.455,59.824-72.983,113.113-97.724,159.643c-7.239,13.543-11.771,21.992-13.751,25.357
	c-44.801,79.9-77.228,141.432-97.399,184.855c-9.975,21.725-15.906,33.496-17.503,35.369c-3.037,3.584-3.761,4.274-19.526,7.688
	c-6.185,1.311-13.199,2.865-20.981,4.695c-25.249,5.475-42.84,9.219-52.682,11.192c-27.952,5.479-57.273,11.66-87.807,18.396
	c-18.942,4.174-55.292,14.854-56.945,11.975c-1.603-2.795-4.086-7.125-3.054-9.074l411.224-776.428
	c0.088-0.357,22.873-43.578,28.934-50.205c17.469-19.104,41.546-30.369,61.125-46.975c22.231-18.861,26.435-48.433,33.901-74.95
	c12.727-45.175,19.439-68.433,20.117-69.704c17.241-57.916,34.197-114.027,51.225-167.354
	c10.906-33.98,49.523-147.396,59.577-168.993c4.895-10.51,0.146-24.091,7.651-33.524c4.244-5.334,22.92-33.81,34.12-50.888
	c54.702-83.408,149.095-227.332,165.798-249.102c6.864-8.945,10.795-13.614,18.776-15.973c3.206-0.938,17.562-2.032,43.042-3.212
	c174.902-8.101,349.645-19.331,524.471-28.893c41.293-2.259,66.446-3.794,75.351-4.726c26.337-2.626,40.667-3.651,43.007-2.917
	c0.699,0.188,6.195,5.588,5.858,11.545c-0.122,2.142-10.722,26.282-16.392,39.292c-9.617,22.071-16.408,37.515-20.465,46.371
	c-16.084,34.634-27.818,61.062-35.361,79.299c-13.369,32.353-21.396,51.253-23.99,56.662c-0.754,1.572-21.357,3.152-32.065,4.532
	c-4.827,0.622-38.187,4.314-57.28,6.429c-29.608,3.278-99.387,10.805-88.33,13.351c2.42,0.557,24.396-0.324,36.585-0.812
	c21.271-0.853,46.447-3.459,75.472-7.683c30.331-4.42,45.83-6.697,46.312-6.746c0.961-0.097,6.16-0.201,15.413-0.229
	c-2.331,5.122-7.372,17.379-15.148,36.837c-15.784,39.522-30.062,74.071-42.756,103.832
	c-38.844,91.081-73.749,183.8-113.054,274.688c-14.481,33.488-27.312,67.688-37.694,102.674c-5.771,19.45-8.755,29.331-8.95,29.642
	c-0.438,0.758-5.276,4.771-14.442,12.072c-20.42,16.042-30.735,24.14-31.065,24.398c-5.63,4.435-13.758,10.839-16.434,13.856
	c-13.627,15.39-24.543,32.873-34.415,50.854c-3.76,6.846-12.696,6.709-18.973,10.198
	C1085.821,1031.515,1014.65,1056.291,946.947,1088.361"/>
</svg>
