<?xml version="1.0" encoding="utf-8"?>
<!-- Generator: Adobe Illustrator 16.0.0, SVG Export Plug-In . SVG Version: 6.00 Build 0)  -->
<!DOCTYPE svg PUBLIC "-//W3C//DTD SVG 1.1//EN" "http://www.w3.org/Graphics/SVG/1.1/DTD/svg11.dtd">
<svg version="1.1" id="Layer_1" xmlns="http://www.w3.org/2000/svg" xmlns:xlink="http://www.w3.org/1999/xlink" x="0px" y="0px"
	 width="2621.645px" height="752.129px" viewBox="0 0 2621.645 752.129" enable-background="new 0 0 2621.645 752.129"
	 xml:space="preserve">
<path d="M603.353,9.613c170.893-1.084,341.876,7.737,512.68-0.064c15.871-0.725,35.559-1.33,58.911-1.819
	c27.675-0.425,44.71-1.546,51.396-3.352c3.765-1.018,5.501,4.096,2.4,6.054c-7.056,4.46-12.07,7.83-14.442,10.351
	c-16.393,17.418-33.66,47.255-42.614,74.511c-10.49,31.933-14.393,64.564-13.304,97.622c0.877,26.614,10.725,51.887,25.848,73.642
	c8.959,12.889,24.688,25.846,47.119,38.654c14.009,8.077,42.593,13.083,48.994,13.429l3.668,0.188
	c5.552,0.284,6.329,6.578,6.348,11.149c0.021,4.956-5.43,6.412-9.625,5.964c-25.44-2.716-51.062-1.954-76.587-1.214
	c-23.995,0.695-51.288-3.864-74.646,1.666c-22.4,5.303-27.561,23.648-28.059,45.086c-0.641,27.59-2.536,55.278-3.584,82.881
	c-0.581,15.285-0.982,30.568-1.404,45.862c-1.223,44.544,9.272,67.436,56.726,65.917c33.618-1.07,67.298-0.138,100.929-0.347
	c13.838-0.086,35.095-3.263,35.119,16.675c0.021,17.797-0.369,35.669-0.438,53.503c-0.021,5.08,0.342,10.175,0.145,15.251
	c0.04,5.62-0.283,27.293-0.818,64.879c-0.092,9.793-1.816,16.582-5.038,20.443c-124.848,0.318-199.345,0.71-223.35,1.25
	c-151.589,3.415-303.225,3.146-454.846,2.678c-118.687-0.361-237.519-2.081-356.19-3.777c-33.553-0.479-51.627-0.688-54.146-0.696
	c-6.126,0.096-11.104-1.938-14.929-6.306c-0.366-29.549-0.9-51.464-1.536-65.604c-1.626-36.18-2.638-105.336-7.609-108.365
	c-2.12-1.291-7.142-1.953-15.064-1.915c-18.478,0.094-69.04,12.646-103.102,21.104c-27.807,6.905-42.312,10.122-43.597,9.646
	c-4.324-1.595-3.155-54.793-3.534-82.229c-0.33-23.854-0.517-40.789-0.492-50.729c-0.149-77.516-0.913-140.283-2.424-188.377
	c-1.25-39.791-3.403-108.321-1.498-119.41c0.529-3.081,2.195-12.537,5.001-28.44c3.322-18.553,6.922-43.652,10.864-75.08
	c3.202-26.192,4.843-39.395,4.845-39.467c0.734-5.02,3.582-8.532,8.472-10.539c1.895-0.776,8.181,0.194,12.223,0.817
	c19.354,2.987,37.623,6.227,54.869,9.868c13.119,2.771,33.99,2.208,51.018,1.75c43.187-1.161,72.089-1.691,86.567-1.668
	C357.487,11.257,480.476,10.392,603.353,9.613 M2019.07,11.26c-170.885-1.893-341.906,6.121-512.674-2.489
	c-15.867-0.8-35.549-1.498-58.9-2.097c-27.674-0.556-44.7-1.757-51.379-3.595c-3.76-1.035-5.52,4.07-2.432,6.043
	c7.035,4.494,12.035,7.887,14.396,10.419c16.31,17.495,33.438,47.414,42.265,74.712c10.338,31.981,14.086,64.632,12.84,97.684
	c-1.002,26.609-10.97,51.835-26.194,73.519c-9.02,12.846-24.809,25.729-47.301,38.431c-14.047,8.011-42.655,12.881-49.057,13.197
	l-3.67,0.17c-5.555,0.257-6.359,6.548-6.399,11.119c-0.045,4.955,5.396,6.437,9.596,6.01c47.854-4.878,95.95,1.538,143.914,0.254
	c0,0,0.504-0.013,0.507-0.013c27.887,0.24,34.011,23.495,34.963,46.476c1.312,31.688,2.688,63.367,3.497,95.069
	c0.661,25.909,5.255,57.834-10.428,80.457c-11.471,16.549-28.892,20.283-48.252,18.384c-19.672-1.93-134.32-15.039-133.804,16.832
	c0.281,17.611,0.314,35.262,0.151,52.9c-0.046,4.939-0.691,9.949-0.288,14.881c-0.062,5.619,0.154,27.293,0.515,64.881
	c0.046,9.795,1.737,16.592,4.938,20.467c124.846,0.91,199.34,1.653,223.344,2.311c151.569,4.132,303.207,4.576,454.826,4.826
	c118.687,0.195,237.522-0.959,356.203-2.097c33.557-0.321,51.633-0.442,54.152-0.438c6.125,0.125,11.112-1.884,14.958-6.234
	c0.507-29.543,1.146-51.457,1.847-65.592c1.799-36.172,3.135-105.323,8.121-108.328c2.127-1.281,7.151-1.92,15.076-1.844
	c18.477,0.177,68.979,12.971,102.998,21.588c27.773,7.036,42.27,10.32,43.551,9.854c4.332-1.572,3.414-54.774,3.924-82.215
	c0.441-23.852,0.711-40.785,0.73-50.727c0.521-77.515,1.577-140.275,3.314-188.363c1.438-39.784,3.914-108.304,2.062-119.401
	c-0.517-3.083-2.138-12.547-4.866-28.464c-3.233-18.568-6.716-43.684-10.511-75.13c-3.077-26.207-4.655-39.417-4.657-39.489
	c-0.711-5.023-3.541-8.548-8.423-10.579c-1.888-0.786-8.179,0.155-12.224,0.759c-19.369,2.895-37.651,6.049-54.916,9.608
	c-13.134,2.708-34.002,2.047-51.023,1.509c-43.181-1.365-72.08-2.033-86.561-2.077C2264.927,14.067,2141.944,12.621,2019.07,11.26"
	/>
</svg>
