<?xml version="1.0" encoding="utf-8"?>
<!-- Generator: Adobe Illustrator 16.0.0, SVG Export Plug-In . SVG Version: 6.00 Build 0)  -->
<!DOCTYPE svg PUBLIC "-//W3C//DTD SVG 1.1//EN" "http://www.w3.org/Graphics/SVG/1.1/DTD/svg11.dtd">
<svg version="1.1" id="Layer_1" xmlns="http://www.w3.org/2000/svg" xmlns:xlink="http://www.w3.org/1999/xlink" x="0px" y="0px"
	 width="3321.314px" height="2105.786px" viewBox="0 0 3321.314 2105.786" enable-background="new 0 0 3321.314 2105.786"
	 xml:space="preserve">
<path fill="none" stroke="#000000" stroke-linejoin="round" stroke-miterlimit="10" d="M2474.077,644.256
	c-2.448,0-4.177-0.937-4.896-1.296c-17.782-8.928-100.512-58.608-139.823-101.592c-40.177-43.852-76.028-90.864-112.752-147.888
	c-3.812-5.904-3.672-10.872,0.36-14.904l0,0l0.146-0.216l0,0c1.08-1.008,3.456-3.456,7.92-3.456c1.147,0,2.229,0.145,3.237,0.288
	c22.318,3.528,62.427,9.648,81.146,10.944c20.88,1.44,60.84,1.8,77.04,1.872c7.271,0,9.216,5.184,9.646,6.84
	c0.938,3.312-0.069,5.688-0.434,6.696l0,0l-0.072,0.216l0,0c-5.543,14.112-5.543,19.656-5.472,21.024
	c0.864,0.72,3.24,1.94,8.063,2.592c1.365,0.144,5.257,0.648,7.92,4.68l0,0l0.068,0.072l0,0c1.152,1.8,1.656,3.168,1.873,5.328
	c0.575,5.904,3.312,17.568,15.336,29.448c13.823,13.68,22.467,21.168,26.354,24.479c1.512,1.296,2.664,3.1,3.096,5.04l0,0v-0.072
	l0,0c0.36,1.44,0.433,2.812,0.217,4.248c-0.433,2.448-0.289,4.248,0,5.328c0.575,0.288,2.02,0.864,4.535,0.864
	c2.592,0,7.562-0.648,12.385-4.752c3.744-3.168,7.345-5.977,10.8-8.208l0,0l0.146-0.146l0,0c0.721-0.572,2.811-2.016,5.76-2.016
	c1.803,0,3.528,0.504,5.041,1.512c1.871,1.298,4.178,3.675,4.178,7.992c0.07,11.231-1.654,36.216-4.683,68.544
	c-3.312,34.92-6.405,59.544-7.989,68.476c-0.723,4.316-3.387,6.336-5.475,7.271C2476.596,643.968,2475.373,644.256,2474.077,644.256
	L2474.077,644.256 M844.213,464.472c0.792-1.652-0.576-4.316-0.576-4.316l0,0l-17.352-46.296l0,0c0,0-0.216-0.576-0.576-0.723
	c-0.504-0.216-0.864,0-1.439,0.288c-6.188,3.096-17.854,9.576-34.056,21.168c-24.552,17.644-38.952,58.464-39.021,58.896l0,0
	l-0.792,2.16l-2.308,0.432l-14.256,2.664l-4.536,0.864L729.085,495l-14.04-295.344l0,0c0,0-0.359-2.664-1.8-3.672
	c-1.512-1.008-3.6-1.008-3.6-1.008l0,0l-131.832,2.376l-3.744,0.072l-0.36-3.744l0,0c0-0.432-3.528-40.824-7.992-83.16
	c-7.92-75.24-12.021-92.376-13.536-96.264c-16.344-1.152-154.584,12.168-249.264,21.96c-0.504,0.072-1.08,0.072-1.296,0.36
	c-0.288,0.216-0.288,0.792-0.288,1.368c-0.504,55.152-4.392,489.096-6.408,507.096c-0.216,2.304-2.88,22.68-15.624,21.888l0,0
	l-3.024-0.144l0,0c-16.128-1.152-41.472-7.416-75.312-18.648c-38.448-12.744-82.584-30.236-109.8-43.484
	c-37.8-18.436-66.312-43.636-83.376-58.684l0,0l-0.432-0.356l-0.072-0.072l-0.144-0.146l0,0c-0.144-0.144-1.296-1.364-3.024-3.236
	c-1.224-1.368-2.232-2.812-3.096-2.376c-0.864,0.432-1.08,1.296-1.008,3.312c0.072,2.376,0.144,4.824,0.216,7.345
	c0.504,12.603,1.008,26.931,0.144,39.168c-1.512,20.951,48.528,570.025,81.432,883.154c19.08,181.439,26.28,227.23,28.944,236.734
	c0.145,0.506,0.288,0.865,0.576,1.08c0.288,0.289,0.36,0.355,0.648,0.504c38.448,19.369,676.296,329.473,704.016,342.939
	c4.464-0.146,23.688-0.648,48.812-0.793c19.872-0.217,33.624,6.119,42.268,12.168c1.224,0.863,2.016,1.654,2.732,1.367
	c0.724-0.287,0.507-1.225,0.436-2.662c-1.729-27.723-6.192-93.744-13.752-183.168c-3.892-46.01-8.568-98.783-13.464-154.73
	c-12.24-139.32-27.505-312.77-39.744-477.072c-24.48-327.671-41.979-641.955-41.904-648c0-4.248,2.592-11.448,24.408-25.2
	c6.12-3.812,12.24-7.199,16.56-9.504C843.493,465.768,843.781,465.48,844.213,464.472L844.213,464.472 M2477.102,460.872
	c-0.793-1.729,0.574-4.392,0.574-4.392l0,0l17.354-46.299l0,0c0,0,0.216-0.504,0.575-0.72c0.504-0.216,0.861,0,1.438,0.288
	c6.265,3.096,17.855,9.576,34.057,21.168c24.553,17.64,38.952,58.464,39.098,58.896l0,0l0.722,2.157l2.305,0.436l14.256,2.732
	l4.535,0.864l0.217-4.605l14.04-295.417l0,0c0,0,0.359-2.664,1.803-3.672c1.513-1.008,3.601-1.008,3.601-1.008l0,0l131.832,2.376
	l3.744,0.072l0.356-3.744l0,0c0-0.36,3.528-40.824,7.991-83.088c7.921-75.312,12.022-92.448,13.537-96.336
	c16.345-1.152,154.584,12.168,249.265,22.032c0.575,0,1.08,0,1.295,0.288c0.289,0.216,0.289,0.792,0.289,1.368
	c0.504,55.152,4.465,489.096,6.407,507.096c0.287,2.304,2.879,22.68,15.695,21.96l0,0l2.95-0.216l0,0
	c16.129-1.152,41.474-7.416,75.312-18.647c38.449-12.744,82.584-30.24,109.802-43.484c37.802-18.436,66.386-43.636,83.375-58.684
	l0,0l0.436-0.356l0.071-0.072l0.145-0.146l0,0c0.145-0.144,1.297-1.364,3.023-3.168c1.225-1.366,2.305-2.808,3.097-2.444
	c0.864,0.432,1.08,1.364,1.009,3.312c-0.072,2.376-0.145,4.896-0.217,7.416c-0.432,12.603-1.008,26.856-0.072,39.096
	c1.513,20.952-48.6,570.025-81.504,883.154c-19.08,181.439-26.279,227.232-28.943,236.809c-0.145,0.434-0.288,0.791-0.576,1.08
	c-0.216,0.215-0.355,0.287-0.646,0.504c-38.447,19.299-676.296,329.398-704.019,342.863c-4.465-0.145-23.688-0.576-48.813-0.793
	c-19.871-0.143-33.623,6.193-42.264,12.24c-1.228,0.865-2.02,1.584-2.736,1.297c-0.72-0.289-0.504-1.225-0.432-2.592
	c1.729-27.793,6.188-93.816,13.752-183.24c3.889-46.008,8.564-98.785,13.464-154.729c12.24-139.32,27.504-312.771,39.744-477.072
	c24.479-327.602,41.976-641.954,41.902-648c0-4.248-2.595-11.448-24.406-25.128c-6.12-3.892-12.24-7.271-16.562-9.576
	C2477.821,462.096,2477.533,461.808,2477.102,460.872L2477.102,460.872 M2272.98,2103.409
	c-12.099-90.648-63.575-365.76-71.567-399.168c-1.656-6.697-13.177-46.439-27.72-96.77l-0.072-0.143
	c-33.479-115.562-75.312-290.305-89.137-349.85l-0.432-1.943c-19.943-86.039-80.428-263.451-86.399-279.216
	c-6.554-17.28,1.942-28.729,7.56-36.288c0.506-0.647,1.012-1.296,1.44-1.872c4.823-6.696,55.584-89.354,61.56-99
	c-1.584-1.368-8.279-5.188-36.574-9.504c-32.614-5.04-259.198-19.584-294.118-19.584h-0.507c-21.453,0.068-159.692,0-161.062,0
	c-34.849,0-261.72,14.473-294.624,19.438c-28.296,4.32-34.992,8.208-36.576,9.504c5.979,9.724,56.736,92.308,61.562,99.072
	c0.433,0.576,0.937,1.225,1.365,1.872c5.688,7.562,14.188,18.938,7.562,36.288c-5.979,15.768-66.456,193.107-86.4,279.144
	l-0.355,1.73c-13.971,59.615-53.856,234.217-87.625,349.705v0.143c-14.688,50.328-26.354,90-27.938,96.697
	c-8.136,33.264-59.76,305.928-72.357,397.799c-0.218,1.729-0.07,2.664,0.646,3.312c0.646,0.572,1.512,0.217,3.023-0.648
	c57.457-32.111,227.593-126.145,236.229-130.393c0,0,28.225-15.191,39.672-15.191c0,0,113.616-7.631,335.592-7.416
	c221.979,0.289,337.896,7.561,337.896,7.561c11.376,0,39.602,15.191,39.602,15.191c8.643,4.248,177.555,98.137,235.438,130.682
	c1.729,0.936,2.017,1.584,3.312,1.008C2273.34,2104.993,2273.125,2104.704,2272.98,2103.409z M1655.725,1851.913
	c-45.356,0-82.225-27.289-82.225-60.912c0-33.695,36.864-60.984,82.225-60.984c45.436,0,82.228,27.289,82.228,60.984
	C1737.949,1824.624,1701.157,1851.913,1655.725,1851.913z M2377.381,2018.088c-1.943,0-1.513-0.793-5.111-18.072
	c-16.922-80.137-68.832-325.801-121.104-569.16c-35.424-164.736-65.664-304.344-87.479-403.632
	c-40.752-185.396-43.06-189.72-44.207-191.808c-8.645-16.056-39.024-28.08-83.309-32.976
	c-34.703-3.816-264.672-15.192-307.584-15.192c-1.728,0-3.239,0-4.392,0.072c-2.021,0-39.892-0.217-72.724-0.217
	c-19.729,0-33.84,0.069-41.9,0.217c-32.188,0.432-276.912,11.229-311.762,15.12c-44.278,4.896-74.664,16.92-83.375,32.976
	c-1.151,2.088-3.457,6.408-44.209,191.808c-21.814,99.289-52.058,238.896-87.479,403.632
	c-53.496,249.049-105.479,493.344-121.176,568.584c-2.952,14.111-3.099,18.145-4.896,18.432c-1.8,0.289-1.584-6.408-2.304-19.008
	c-4.968-86.184-18-312.191-28.8-477.504c-12.816-196.129-56.088-795.312-61.128-864.792c-0.072-1.152-0.218-2.521,0-2.884
	c0.216-0.432,1.438-1.148,2.445-1.8c22.753-13.752,105.982-65.664,145.079-109.224c39.312-43.852,110.521-137.088,126.072-157.536
	c0.504-0.648,0.648-0.937,2.02-1.513c1.365-0.576,1.941-0.359,1.941-0.359l0,0l276.48-5.112l0,0c0,0,6.048-0.432,7.772,2.304
	c1.656,2.809-0.646,9.288-0.646,9.288l0,0L1398.181,459l-0.572,1.44l0.216,1.512l0,0c0.861,6.188,4.464,10.148,9.216,10.148
	c1.872,0,3.672-0.646,5.472-1.94c4.32-3.168,38.02-33.84,46.729-41.688l0,0l171.144-1.148h73.228l160.772,1.08l0,0
	c0,0,4.463,0.356,8.783,1.584c4.32,1.224,4.896,1.512,7.344,3.672c12.816,11.664,37.297,33.84,40.896,36.504
	c1.8,1.296,3.6,1.94,5.544,1.94c4.68,0,8.276-3.959,9.144-10.148l0,0l0.219-1.512l-0.506-1.44l-30.021-75.456l0,0
	c0,0-0.504-2.521,1.438-4.393c1.943-1.944,4.971-1.08,4.971-1.08l0,0l266.9,4.968l0,0c0,0,10.08,0.648,13.536,2.16
	c3.528,1.512,5.979,3.456,9.288,7.848c23.04,30.24,84.527,110.019,120.096,149.616c39.099,43.632,122.328,95.544,145.011,109.296
	c1.01,0.576,1.729,1.008,2.018,2.017c0.357,0.938,0.504,1.584,0.434,2.811c-5.11,70.416-48.312,668.665-61.129,864.577
	c-10.801,166.318-23.977,393.91-28.871,479.016C2378.821,2012.184,2378.821,2018.088,2377.381,2018.088L2377.381,2018.088
	 M855.949,635.472c-0.36-0.144-0.436-0.504-0.504-1.008c-1.656-9.216-4.752-34.271-7.92-67.752c-3.388-36-4.684-58.464-4.684-67.681
	c0-0.576,0.146-0.792,0.504-1.008c0.359-0.288,0.792,0.216,1.439,0.646c2.521,1.656,5.904,4.104,10.008,7.632
	c6.912,5.904,14.188,6.771,17.928,6.771c5.979,0,10.656-2.16,12.168-5.544c1.584-3.528,1.228-7.852,0.724-10.584
	c0-0.288,0-0.505,0.068-0.647c0-0.216,0.146-0.433,0.359-0.646c3.672-3.1,12.602-10.804,26.784-24.912
	c13.824-13.684,17.136-27.36,17.854-34.636c0.072-0.86,0.072-0.789,0.647-1.584c0.504-0.792,1.008-0.86,1.8-0.936
	c4.752-0.576,11.448-2.232,14.328-6.552c3.384-5.04-1.08-18.938-4.824-28.584c-0.288-0.723-0.432-1.008-0.288-1.584
	c0.146-0.576,0.722-0.576,1.515-0.576c15.623-0.072,56.445-0.36,77.613-1.872c19.228-1.368,60.408-7.632,81.864-11.016
	c2.809-0.432,2.809-0.216,3.96,1.008c1.224,1.152,0.646,2.088-0.72,4.248c-36.435,56.521-72.218,103.464-111.891,146.809
	c-37.941,41.399-119.089,90.504-137.445,99.647C856.812,635.328,856.381,635.688,855.949,635.472L855.949,635.472 M2445.637,376.272
	c-60.188-3.312-482.256-25.992-580.681-25.992l0,0h-398.088l0,0c-98.568,0-521.856,22.752-580.968,25.992
	c-1.152,0.072-2.448,0-2.812-0.36c-0.359-0.36-0.646-2.304-0.646-2.304l0,0l-14.764-97.2l-0.068-0.504l-0.146-0.504l0,0
	c-0.646-1.584-3.812-6.84-17.208-6.84c-7.128,0-16.2,1.44-26.928,4.32c-23.04,6.191-42.048,25.056-53.136,38.52
	c-1.584,1.944-3.1,2.16-3.388,2.088c-0.356-0.072-1.438-0.576-1.728-2.88c-3.168-24.696-8.643-72.864-10.368-120.528
	c-1.224-32.4-4.968-72.504-7.92-104.688c-2.521-26.28-5.04-53.352-4.608-61.632c7.416-0.288,28.08-1.296,65.308-2.952
	C944.148,14.616,1264.261,0,1311.42,0c60.192,0,243,6.264,244.8,6.264l0,0l0.072,0.072h0.072h219.096h0.072l0.072-0.072l0,0
	c1.872,0,184.68-6.264,244.8-6.264c47.16,0,367.271,14.616,504,20.808c37.152,1.656,57.816,2.664,65.232,2.952
	c0.432,8.28-2.088,35.352-4.536,61.632c-3.024,32.184-6.771,72.288-7.992,104.688c-1.872,52.128-8.28,104.76-11.16,126.792
	c-10.008-13.248-31.032-36.936-57.384-43.992c-10.801-2.88-19.872-4.32-26.928-4.32c-13.465,0-16.562,5.256-17.209,6.84l0,0
	l-0.217,0.504l-0.07,0.504l-14.688,96.552l-0.504,3.456l0,0C2448.949,376.416,2446.932,376.344,2445.637,376.272L2445.637,376.272"
	/>
</svg>
