<?xml version="1.0" encoding="utf-8"?>
<!-- Generator: Adobe Illustrator 16.0.0, SVG Export Plug-In . SVG Version: 6.00 Build 0)  -->
<!DOCTYPE svg PUBLIC "-//W3C//DTD SVG 1.1//EN" "http://www.w3.org/Graphics/SVG/1.1/DTD/svg11.dtd">
<svg version="1.1" id="Layer_1" xmlns="http://www.w3.org/2000/svg" xmlns:xlink="http://www.w3.org/1999/xlink" x="0px" y="0px"
	 width="2011.601px" height="1190.953px" viewBox="0 0 2011.601 1190.953" enable-background="new 0 0 2011.601 1190.953"
	 xml:space="preserve">
<path fill="none" stroke="#1D1D1B" stroke-linejoin="round" stroke-miterlimit="10" d="M1965.555,254.129
	c4.418-2.4,9.48-3.763,14.862-3.763c17.221,0,31.18,13.96,31.18,31.181s-13.959,31.181-31.18,31.181s-31.182-13.96-31.182-31.181
	c0-3.62,0.617-7.095,1.751-10.327c-0.532-3.109-2.952-4.683-5.615-5.913c-1.839-0.848-3.691-1.668-5.53-2.516
	c-0.651-0.3-1.305-0.602-1.957-0.895c-118.192-2.988-415.479-10.297-512.186-11.046c-19.367-0.144-41.402-0.216-65.594-0.216
	c-130.752,0-308.23,2.232-379.078,5.976c-18.434,1.008-32.114,4.68-34.49,5.544c-12.24,4.392-71.567,52.344-168.336,166.032
	c-98.424,115.704-243.072,302.4-288.864,366.984c-56.016,78.984-82.37,133.052-83.016,170.279
	c-0.721,40.607,13.176,199.656,14.976,220.104c-4.826,1.945-25.994,5.4-114.479,5.4l0,0c-59.256,0-124.848-1.514-158.688-2.455
	c-2.52-0.072-2.808-0.214-4.536-1.441c-0.864-0.571-1.512-2.014-1.656-2.659l0,0l-1.44-6.845l-0.072-0.067v-0.146l0,0
	c-10.944-42.912-48.6-190.801-72.576-289.656C19.899,689.471,6.435,619.99,3.627,596.662l0,0l-0.072-0.072v-0.072l-2.809-18.646
	V577.8v-0.144l-0.359-1.944l0,0c-1.297-6.336,1.08-10.368,1.151-10.512l0,0l0.143-0.147v-0.068l0,0
	c26.28-47.448,98.928-148.681,176.76-246.096C272.833,200.808,418.778,40.68,432.747,25.344
	C449.667,24.12,600.002,13.32,750.48,13.32c10.511,0,20.951,0.072,31.031,0.216c8.855,0.072,18.717,0.144,29.231,0.144
	c94.536,0,245.735-3.816,367.202-6.84l0,0l15.982-0.432l0,0C1325.615,3.096,1450.031,0,1524.55,0c2.018,0,3.961,0,5.832,0
	c131.76,0.288,286.199,4.248,347.83,7.778l0,0l1.08,0.072l0,0c1.008,0.72,4.537,4.176,13.537,21.024l0,0l0.432,0.864l0.146,0.288
	l0,0c1.873,3.384,4.609,8.424,8.928,21.6c5.256,15.768,11.16,37.8,17.93,63.288l0,0l0.07,0.216l0,0
	c11.377,42.408,24.912,99.288,31.969,129.456l0,0c0,0,0.091,0.377,0.091,0.378c1.349,1.711,2.563,3.522,3.914,5.232
	c1.201,1.521,2.616,3.413,4.445,4.209c1.634,0.711,3.251,0.146,4.873-0.315L1965.555,254.129z"/>
</svg>
