<?xml version="1.0" encoding="utf-8"?>
<!-- Generator: Adobe Illustrator 16.0.0, SVG Export Plug-In . SVG Version: 6.00 Build 0)  -->
<!DOCTYPE svg PUBLIC "-//W3C//DTD SVG 1.1//EN" "http://www.w3.org/Graphics/SVG/1.1/DTD/svg11.dtd">
<svg version="1.1" id="Layer_1" xmlns="http://www.w3.org/2000/svg" xmlns:xlink="http://www.w3.org/1999/xlink" x="0px" y="0px"
	 width="1956.576px" height="1190.953px" viewBox="0 0 1956.576 1190.953" enable-background="new 0 0 1956.576 1190.953"
	 xml:space="preserve">
<path d="M1649.735,1190.953c-88.486,0-109.654-3.457-114.479-5.4c1.799-20.449,15.694-179.496,14.979-220.176
	c-0.647-37.152-27-91.297-83.02-170.209c-45.791-64.656-190.438-251.351-288.862-366.984
	c-96.694-113.688-156.097-161.64-168.336-166.032c-2.377-0.864-16.058-4.608-34.487-5.544c-70.852-3.744-248.328-5.976-379.08-5.976
	c-24.191,0-46.228,0.072-65.593,0.216c-102.312,0.792-429.12,8.928-530.855,11.448l0,0l0.146-0.648l4.104-17.064l0,0
	c7.058-30.168,20.594-87.12,31.97-129.456l0,0l0.07-0.216l0,0c6.77-25.488,12.672-47.52,17.93-63.36
	c4.318-13.104,7.056-18.216,8.928-21.6l0,0l0.145-0.288l0.434-0.864l0,0c9-16.776,12.526-20.304,13.536-20.952l0,0l1.079-0.072l0,0
	C139.968,4.248,294.408,0.288,426.167,0c1.872,0,3.816,0,5.832,0c74.521,0,198.938,3.096,330.624,6.408l0,0l15.984,0.36l0,0
	c121.464,3.096,272.666,6.84,367.2,6.84c10.513,0,20.375-0.072,29.229-0.144c10.08-0.072,20.521-0.144,31.033-0.144
	c150.479,0,300.812,10.8,317.73,12.023c13.973,15.264,159.912,175.464,254.309,293.544
	c77.832,97.416,150.479,198.576,176.76,246.099l0,0l0.072,0.067l0.07,0.072l0,0c0.067,0.216,2.521,4.248,1.147,10.584l0,0
	l-0.356,1.944v0.067v0.072l-2.81,18.72v0.072h-0.072l0,0c-2.809,23.4-16.27,92.881-64.225,291.025
	c-23.979,98.854-61.631,246.738-72.576,289.727l0,0v0.072l-0.072,0.069l-1.362,6.843l0,0c-0.222,0.721-0.863,2.157-1.729,2.732
	c-1.729,1.229-2.018,1.367-4.535,1.439C1774.583,1189.369,1708.991,1190.953,1649.735,1190.953L1649.735,1190.953"/>
</svg>
