<?xml version="1.0" encoding="utf-8"?>
<!-- Generator: Adobe Illustrator 16.0.0, SVG Export Plug-In . SVG Version: 6.00 Build 0)  -->
<!DOCTYPE svg PUBLIC "-//W3C//DTD SVG 1.1//EN" "http://www.w3.org/Graphics/SVG/1.1/DTD/svg11.dtd">
<svg version="1.1" id="Layer_1" xmlns="http://www.w3.org/2000/svg" xmlns:xlink="http://www.w3.org/1999/xlink" x="0px" y="0px"
	 width="3249.033px" height="1026.864px" viewBox="0 0 3249.033 1026.864" enable-background="new 0 0 3249.033 1026.864"
	 xml:space="preserve">
<path d="M2731.54,140.766l1.312,141.828l0,0c-0.354,0.816-1.672,3.006-6.429,3.527c-2.604,0.295-18.831-0.002-39.431-0.372
	c-49.062-0.811-131.229-2.252-186.843,0.737c-14.666,0.839-27.082,1.323-38.032,1.759c-49.086,1.96-65.623,2.633-76.289,24.139
	c-9.26,18.748-38.466,69.133-52.425,93.302c-3.587,6.189-6.346,10.914-7.774,13.375c-5.688,10-9.197,9.635-24.23,8.295l0,0
	l-1.654-0.131l0,0c-7.342-0.643-50.979-1.131-101.604-1.766c-58.214-0.656-130.632-1.491-138.537-2.667
	c-1.919-1.194-6.188-8.402-8.831-12.714c-5.645-9.479-8.77-14.382-12.958-15.082c-5.042-0.84-42.397-11.011-48.327-15.285
	c-8.534-6.168-169.884-82.568-179.707-86.25c-8.368-3.22-9.113-9.257-7.54-18.703c0.189-1.136,18.646-120.979,4.826-185.185
	c-8.659-40.423-16.541-64.95-20.954-77c-0.249-0.698-0.225-1.278-0.13-1.409c0.094-0.129,0.475-0.212,1.041-0.118
	c27.911,5.531,115.441,22.539,221.26,40.187c87.78,14.639,167.438,26.32,236.937,34.624
	C2462.317,111.998,2691.355,138.371,2731.54,140.766L2731.54,140.766 M511.566,148.469c40.238-2.682,269.092-30.621,485.942-58.229
	c75.3-9.508,171.999-24.562,287.271-44.597c111.938-19.458,210.386-38.322,246.511-45.332c1.772-0.309,2.824-0.565,3.389,0.141
	c0.478,0.647-0.053,1.397-0.904,2.788c-10.287,16.917-29.057,49.776-44.633,89.241c-22.648,57.212-45.688,170.618-43.753,181.755
	c0.983,5.674-0.221,16.406-11.031,20.625c-9.729,3.736-170.551,81.238-179.113,87.477c-5.897,4.313-43.187,14.741-48.149,15.604
	c-4.188,0.728-7.35,5.661-12.929,15.183c-2.54,4.314-6.703,11.472-8.671,12.763c-8.407,1.24-80.521,2.597-138.586,3.627
	c-50.55,0.969-94.258,1.77-101.521,2.443l0,0l-1.655,0.144l0,0c-15.022,1.44-18.605,1.847-24.356-8.115
	c-1.45-2.452-4.169-7.168-7.799-13.333c-14.194-24.062-43.675-74.259-53.061-92.942c-10.812-21.434-27.354-21.993-76.454-23.617
	c-10.952-0.362-23.441-0.749-38.043-1.5c-55.698-2.596-137.786-0.604-186.914,0.553c-20.521,0.498-36.817,0.919-39.354,0.628
	c-4.833-0.476-6.091-2.668-6.452-3.482l0,0L511.566,148.469L511.566,148.469 M1271.894,768.618
	c-19.943-76.465-61.416-247.682-70.991-286.563c-6.188-25.058-16.271-31.822-28.94-31.536
	c-12.744,0.288-206.427,5.688-217.803,5.902c-11.305,0.218-25.345,3.312-15.117,18.506
	c10.224,15.189,79.128,132.625,142.413,250.128c63.288,117.572,141.844,292.105,150.479,298.941
	c8.641,6.771,94.824-0.576,94.824-0.576S1291.91,845.153,1271.894,768.618L1271.894,768.618 M1225.886,731.393h-0.146l0,0
	c-4.821,0-110.157-7.271-131.184-8.711l0,0l-4.683-0.289l-2.229-4.176l0,0c-1.08-2.09-3.385-7.346-0.864-12.455
	c1.515-3.023,4.396-5.111,7.92-5.688c3.312-0.504,54.36-0.723,100.872-0.793c-4.176-15.695-12.524-46.367-21.385-75.602
	c-6.479-21.238-13.68-42.189-18.432-56.02c-2.736-8.135-4.752-13.967-5.688-17.135c-4.177-14.256-7.416-14.545-23.04-16.057
	c-8.641-0.863-32.11-3.604-54.721-6.268c-43.058-5.186-44.136-5.689-45.792-6.48c-1.943-0.938-6.479-4.18-13.319-9.577l0,0
	l-20.229-15.983l25.772,0.791l0,0c1.011,0,103.319,3.1,122.04,3.1c0.723,0,1.368,0,1.802,0c0.506,0,1.078,0,1.654,0
	c21.456,0.068,30.604,11.017,34.488,20.16c4.752,11.377,10.8,30.168,20.951,63.072c9.646,31.318,18.646,62.354,25.849,87.264
	c5.832,20.16,11.376,39.24,12.815,42.842c2.088,3.385,2.376,7.416,0.576,10.873c-2.16,4.246-7.129,6.98-12.892,7.127l0,0h-0.14
	v0.002 M16.071,468.088c0,0,331.058,6.338,449.207,4.607c118.08-1.729,379.514-10.872,398.88-12.744
	c19.367-1.872,27.071,3.888,36.723,19.226c9.646,15.336,114.405,188.498,123.552,204.984c4.104,7.27,4.104,14.113-25.775,12.889
	c-44.278-1.801-339.12-21.168-540.646-38.303C256.482,641.61,52.866,628.723,35.874,626.561
	c-3.456-0.434-17.208-1.871-18.937-11.881c-6.912-39.098-16.92-132.84-16.92-132.84C-0.489,467.656,10.095,468.522,16.071,468.088
	L16.071,468.088 M2295.01,454.013c-11.305-0.288-204.982-6.406-217.729-6.694c-12.743-0.288-22.823,6.479-29.088,31.463
	c-9.721,38.881-51.77,209.954-72,286.346c-20.229,76.393-55.655,254.594-55.655,254.594s86.11,7.631,94.752,0.861
	s87.842-181.08,151.562-298.365c63.646-117.361,132.982-234.578,143.279-249.698C2320.355,457.397,2306.314,454.229,2295.01,454.013
	z M2235.829,509.525c-6.914,5.401-11.448,8.569-13.395,9.504c-1.656,0.793-2.736,1.297-45.793,6.336
	c-22.605,2.594-46.15,5.258-54.791,6.049c-15.552,1.514-18.793,1.803-23.113,16.059c-0.936,3.094-2.949,8.926-5.76,17.062
	c-4.752,13.824-12.021,34.705-18.504,55.943c-9,29.229-17.424,59.832-21.744,75.525c46.584,0.217,97.635,0.648,100.944,1.152
	c3.529,0.574,6.409,2.664,7.851,5.76c2.521,5.039,0.217,10.367-0.862,12.385l-2.232,4.178l-4.68,0.287
	c-21.097,1.367-126.361,8.277-131.257,8.277h-0.146h-0.067c-5.832-0.143-10.802-2.949-12.961-7.197
	c-1.729-3.457-1.439-7.486,0.646-10.873c1.438-3.602,7.059-22.682,12.96-42.77c7.344-24.912,16.416-55.941,26.208-87.189
	c10.227-32.832,16.271-51.625,21.168-63c3.888-9.146,13.032-20.089,34.487-20.019c0.646,0,1.149,0,1.653,0c0.506,0,1.08,0,1.804,0
	c18.719,0.074,121.028-2.664,122.108-2.734l25.703-0.646L2235.829,509.525z M3233.099,468.845c0,0-331.129,5.186-449.209,3.098
	c-118.151-2.16-379.512-12.168-398.879-14.111c-19.368-1.942-27.071,3.813-36.793,19.08
	c-9.72,15.336-115.056,188.062-124.271,204.552c-4.104,7.271-4.179,14.111,25.771,12.959c44.28-1.584,339.189-20.016,540.793-36.432
	c201.527-16.416,405.216-28.656,422.207-30.744c3.457-0.432,17.209-1.873,19.009-11.809c6.983-39.098,17.28-132.77,17.28-132.77
	C3249.587,468.485,3239.073,469.277,3233.099,468.845L3233.099,468.845"/>
</svg>
