<?xml version="1.0" encoding="utf-8"?>
<!-- Generator: Adobe Illustrator 16.0.0, SVG Export Plug-In . SVG Version: 6.00 Build 0)  -->
<!DOCTYPE svg PUBLIC "-//W3C//DTD SVG 1.1//EN" "http://www.w3.org/Graphics/SVG/1.1/DTD/svg11.dtd">
<svg version="1.1" id="Layer_1" xmlns="http://www.w3.org/2000/svg" xmlns:xlink="http://www.w3.org/1999/xlink" x="0px" y="0px"
	 width="3140.047px" height="2441.711px" viewBox="0 0 3140.047 2441.711" enable-background="new 0 0 3140.047 2441.711"
	 xml:space="preserve">
<path fill="none" stroke="#000000" stroke-linejoin="round" stroke-miterlimit="10" d="M2330.75,567.19
	c-6.48-1.584-27.434-9.219-35.855-19.299c-8.426-10.077-16.129-27.145-17.713-36.145c-1.512-8.496,1.514-12.023-12.959-13.104
	c-84.457-6.336-251.713-17.712-446.545-23.76c-63.287-2.016-133.486-3.672-210.6-4.68c-292.896-3.96-576.073,11.521-695.161,19.008
	c-14.472,0.864-11.447,4.395-13.031,12.888c-1.729,9-9.646,25.992-18.145,35.931c-8.568,9.936-29.592,17.352-36.146,18.861
	c-4.534,1.011-5.473,2.231-4.969,10.08l1.729,19.152c2.88,39.815,21.889,321.12,57.889,671.688
	c38.231,372.168,63.863,556.562,71.136,596.306c5.257,28.366-0.216,44.352-11.229,50.328c-11.018,5.9-17.93,7.484-14.111,27.575
	c7.128,37.728,51.912,442.295,52.775,458.276c0.145,1.804,0.216,3.388,0.358,4.824l0.071,2.521l0.146,0.146
	c1.079,7.992,3.672,9.863,15.694,10.871l0.072,0.072l6.12,0.432c36.72,2.377,81.72,5.187,129.672,8.062l390.672,24.266
	c12.601,1.08,11.017-1.943,11.664-7.271c0.646-4.605,22.463-350.207,27.432-441.069c0.723-13.394,1.15-21.099,1.15-21.099
	s0-0.145,0-0.432c0-0.072,0-0.146,0-0.146v-0.068c0-1.227-0.07-3.604-1.008-4.318c-0.938-0.721-2.23-2.16-2.594-4.033
	c0-0.072,0-0.145,0-0.287c0.072-3.096,2.664-4.248,5.041-4.318c1.01,0,2.521,0.217,3.744,1.008c0.938,0.721,1.584,1.801,1.512,3.312
	c-0.07,2.375-1.584,3.673-2.662,4.682c-1.152,1.008-1.01,3.961-1.01,3.961s0,0.215,0,0.576c0,0.143,0,0.143,0,0.143
	s0.863,22.248,2.23,56.881c2.809,69.912,4.607,189.648,8.281,280.802c2.664,65.446,4.68,115.634,4.967,120.457
	c0.072,1.728,0.145,3.237,0.359,4.532c0.287,3.816,0.07,6.121,6.91,6.268c3.527,0.432,8.855,0.145,16.922-0.287
	c20.018-1.08,347.473-15.121,509.545-23.763c20.018-1.009,20.375-2.446,21.525-18.504c1.08-15.912,50.904-419.901,58.466-457.485
	c4.104-20.09-2.81-21.744-13.752-27.793c-10.942-6.119-16.129-22.178-10.584-50.4c7.774-39.741,35.711-223.773,78.552-595.438
	c42.912-371.664,65.594-665.496,66.743-675.503c0.435-4.104,0.793-7.487,1.08-10.296l0.575-6.12
	C2336.006,569.278,2334.854,568.198,2330.75,567.19z M1582.021,1930.438c-46.226-0.285-83.594-24.693-83.377-54.574
	c0.218-29.811,37.871-53.712,84.099-53.426c46.295,0.359,83.592,24.77,83.375,54.648
	C1665.973,1906.895,1628.317,1930.797,1582.021,1930.438z M725.798,373.006c6.912-15.912,21.312-37.656,53.136-47.664
	c2.521-0.792,16.128-2.736,25.128-4.176c5.904-0.864,6.843-0.72,9.576,14.832c3.96,22.248,10.944,76.968,11.88,85.608
	c0.723,6.84-0.432,6.768,13.683,5.613c95.109-7.848,171.144-13.896,243.432-18.646c55.008-3.312,117.072-6.696,183.96-9.434
	c82.08-3.022,174.602-4.896,296.208-6.334c20.591-0.216,41.113-0.36,61.488-0.36c42.408,0.072,81.217,0.288,117.289,0.648
	c309.672,4.104,558.791,25.63,572.76,26.352c0.863,0.07,1.656,0,2.447-0.072c7.487,0.36,6.84-0.576,7.344-6.192
	c0.865-8.64,7.271-63.432,10.945-85.75c2.592-15.552,3.526-15.768,9.432-14.904c9.072,1.296,22.68,3.168,25.199,3.888
	c31.895,9.72,47.016,31.104,54.145,46.944c7.058,15.84,7.199,15.479,8.279,0.504c1.226-16.848,22.394-274.968,22.896-283.752
	c0.575-9.504-15.118-9.072-15.118-9.072c-11.811-0.36-324-13.752-537.771-22.032c-7.198-0.288-81.646,0.504-133.773,0
	c-78.555,2.376-141.191,6.48-199.226,7.2C1505.847,57,1459.479,57,1388.489,55.488c-26.354-0.432-102.312-2.88-118.656-3.384
	c-23.328-0.72-45.792-0.648-69.84,0.432c-182.81,8.568-481.824,27-493.704,27.504c0,0-15.696-0.288-14.977,9.216
	C691.887,98.04,715,355.152,716.799,372C718.526,388.702,718.886,388.918,725.798,373.006L725.798,373.006L725.798,373.006
	L725.798,373.006L725.798,373.006L725.798,373.006 M2586.062,122.015c-3.024,0-6.843-0.36-11.81-0.937
	c-18.361-2.016-99.576-9.576-104.041-9.864c-4.463-0.288-7.56,1.008-7.992,7.488c-0.432,6.48-23.325,269.568-24.047,280.008
	c-0.721,10.512-3.457,6.84-6.408,5.616c-2.95-1.226-6.912-1.44-10.151-12.672c-3.312-11.304-10.802-26.784-23.327-41.688
	c-12.527-14.832-31.031-23.544-38.304-26.568c-7.347-2.952-9.793-3.672-12.168,2.232c-2.377,5.832-10.515,29.88-13.537,37.656
	c-3.022,7.848-2.229,10.872,3.099,13.752c5.325,2.88,6.84,2.448,21.455,16.92c14.545,14.544,17.354,25.2,17.354,39.744
	c0,0-7.705,71.136-13.606,130.896c-5.978,59.763-12.24,131.979-16.92,202.824c-4.754,70.848-7.346,94.752-10.297,109.584
	s-4.248,26.28-26.568,242.28c-22.318,216-48.742,388.583-53.642,424.369c-4.821,35.782-12.673,86.328-21.168,146.446
	c-8.496,60.05-14.761,116.207-15.769,124.702c-1.08,8.428-0.647,9.938,7.562,6.48c8.278-3.457,31.752-17.928,39.239-17.928
	c7.562,0,9.574,0.145,27,1.799c1.8,0.145,3.384,0.289,4.896,0.434l0,0L2586.062,122.015L2586.062,122.015L2586.062,122.015
	L2586.062,122.015L2586.062,122.015 M2292.374,1865.854c13.176,0.863,16.848-0.938,32.187-7.99
	c17.062-7.92,656.64-290.811,656.64-290.811c20.664-9.646,18-14.832,20.088-31.752c2.159-16.848,26.643-205.703,66.239-500.688
	c39.528-295.058,69.554-582.192,72.071-605.088c2.521-22.896-5.832-17.424-18.071-6.696c-12.239,10.728-19.295,19.296-79.416,48.888
	c-60.048,29.594-142.198,51.192-165.601,56.664c-23.399,5.475-29.881-10.008-29.736-28.008
	c0.218-18.072,15.05-257.112,16.85-276.983c1.801-19.944-0.434-23.616-3.814-33.336c-3.383-9.72-4.248-11.304-2.809-25.271
	c1.438-13.896,4.823-80.856,5.832-103.824c1.008-22.968,2.016-29.952-9.436-31.176c-6.047-0.648-105.047-14.688-215.135-28.656
	c-23.328-2.952-26.425-0.864-28.298,15.552c-5.832,51.84-15.336,134.064-17.278,152.928c-0.937,9.576-2.521,12.6-11.16,12.672l0,0
	L2292.374,1865.854L2292.374,1865.854L2292.374,1865.854z M556.021,183.79c-8.643,0.072-10.227-2.952-11.307-12.528
	c-2.088-18.864-12.456-100.944-18.864-152.712c-2.016-16.416-5.109-18.504-28.438-15.264
	c-109.944,15.12-208.8,30.096-214.848,30.888c-11.376,1.368-10.368,8.28-9.072,31.248c1.224,22.968,5.328,89.856,6.912,103.752
	c1.584,13.968,0.648,15.552-2.592,25.272c-3.24,9.792-5.472,13.464-3.456,33.408c2.016,19.872,19.296,258.768,19.656,276.768
	c0.432,18.072-5.904,33.552-29.376,28.368c-23.472-5.256-105.84-25.992-166.176-55.008c-60.408-28.944-67.608-37.44-79.92-48.024
	c-12.384-10.584-20.808-15.984-18,6.912c2.736,22.824,35.712,309.672,78.336,604.224c42.552,294.624,69.048,483.192,71.352,500.04
	c2.304,16.852-0.36,22.105,20.448,31.537c0,0,642.456,276.267,659.592,283.967c15.408,6.912,19.08,8.716,32.188,7.705l0,0
	L556.021,183.79L556.021,183.79L556.021,183.79 M853.382,1808.182c1.513-0.068,3.168-0.217,4.896-0.432
	c17.424-1.656,19.438-1.801,27-1.801c7.485,0,31.029,14.398,39.312,17.854c8.208,3.457,8.643,1.943,7.562-6.551
	c-1.08-8.426-7.416-64.656-16.059-124.705c-8.64-60.047-16.56-110.592-21.525-146.375c-4.971-35.713-31.752-208.297-54.576-424.225
	c-22.752-216-24.048-227.376-27.072-242.208c-2.952-14.832-5.616-38.736-10.439-109.584
	c-4.822-70.776-11.305-143.064-17.353-202.752c-6.12-59.763-13.968-130.896-13.968-130.896c0-14.544,2.808-25.2,17.352-39.744
	c14.544-14.542,16.059-14.112,21.385-16.992c5.258-2.88,6.119-5.976,3.023-13.752c-3.023-7.776-11.16-31.824-13.607-37.656
	c-2.377-5.832-4.822-5.184-12.169-2.16c-7.271,3.024-25.773,11.736-38.229,26.64c-12.528,14.904-20.018,30.456-23.256,41.688
	c-3.24,11.229-7.2,11.52-10.152,12.744c-2.88,1.15-5.688,4.896-6.408-5.616c-0.646-10.44-24.189-273.456-24.624-279.936
	c-0.432-6.48-3.526-7.776-7.991-7.488c-4.535,0.288-85.681,8.064-104.04,10.152c-4.969,0.504-8.782,0.864-11.809,0.864l0,0
	L853.382,1808.182L853.382,1808.182L853.382,1808.182L853.382,1808.182L853.382,1808.182"/>
</svg>
