<?xml version="1.0" encoding="utf-8"?>
<!-- Generator: Adobe Illustrator 16.0.0, SVG Export Plug-In . SVG Version: 6.00 Build 0)  -->
<!DOCTYPE svg PUBLIC "-//W3C//DTD SVG 1.1//EN" "http://www.w3.org/Graphics/SVG/1.1/DTD/svg11.dtd">
<svg version="1.1" id="Layer_1" xmlns="http://www.w3.org/2000/svg" xmlns:xlink="http://www.w3.org/1999/xlink" x="0px" y="0px"
	 width="1304.914px" height="873.039px" viewBox="0 0 1304.914 873.039" enable-background="new 0 0 1304.914 873.039"
	 xml:space="preserve">
<path fill="none" stroke="#000000" stroke-linejoin="round" stroke-miterlimit="10" d="M627.735,57.851
	c17.933,0.705,35.842,1.058,53.77,1.236c150.074,1.491,299.24-16.426,444.98-53.919c18.729-4.819,39.77-7.11,49.061-3.138
	c15.479,6.621,14.599,29.694-0.66,68.291c-27.321,69.129-73.518,137.349-76.883,220.244c-1.324,32.538,25.883,35.212,51.162,31.492
	c44.479-6.685,88.219-26.771,129.949-42.145c43.61-16.061,22.407,48.199,5.362,116.457c-23.141,92.66-58.059,162.849-135.312,215.33
	v0.488c-66.531,43.146-135.053,75.629-210.969,99.352c-133.832,36.34-278.078,54.75-418.292,76.352
	c-51.959,8.006-101.407,16.439-154.129,21.17c-80.163,7.189-160.471,15.439-240.55,22.74c-34.399,3.139-77.939,4.426-84.774-37.102
	c-4.343-26.451-3.891-51.613,0.618-77.789c30.18-91.357,43.54-167.037,62.5-263.58c2.923-30.751,32.772-71.616,46.175-94.433
	C199.624,273.855,218.872,186,234.25,89.399c3.686-23.114,5.373-46.294,7.823-69.54C370.531,33.431,499.236,44.101,627.735,57.851z"
	/>
</svg>
