<?xml version="1.0" encoding="utf-8"?>
<!-- Generator: Adobe Illustrator 16.0.0, SVG Export Plug-In . SVG Version: 6.00 Build 0)  -->
<!DOCTYPE svg PUBLIC "-//W3C//DTD SVG 1.1//EN" "http://www.w3.org/Graphics/SVG/1.1/DTD/svg11.dtd">
<svg version="1.1" id="Layer_1" xmlns="http://www.w3.org/2000/svg" xmlns:xlink="http://www.w3.org/1999/xlink" x="0px" y="0px"
	 width="2015.864px" height="1108.168px" viewBox="0 0 2015.864 1108.168" enable-background="new 0 0 2015.864 1108.168"
	 xml:space="preserve">
<path fill="none" stroke="#000000" stroke-linejoin="round" stroke-miterlimit="10" d="M696.905,723.034
	c0.201-0.345,0.405-0.694,0.613-1.048c13.896-23.4,42.624-83.951,93.528-157.971C842.024,490,903.798,404.104,912.15,392.44
	c5.835-8.149,8.542-12.468,7.974-14.649"/>
<path fill="none" stroke="#000000" stroke-linejoin="round" stroke-miterlimit="10" d="M714.782,741.738
	c-2.698,7.866,1.919,9.017,16.002,6.962c0,0,11.93-1.602,30.028-3.721"/>
<path fill="none" stroke="#000001" stroke-linejoin="round" stroke-miterlimit="10" d="M717.407,735.905
	c0.885-1.693,1.938-3.569,3.152-5.641c10.584-18.068,91.945-165.959,95.762-172.87c3.815-6.912,1.8-6.479,16.632-10.439
	c14.758-3.96,121.32-34.344,121.32-34.344s-53.714,7.56-71.426,11.304c-17.64,3.744-42.264,10.296-49.896,11.88
	c-7.562,1.513-11.808,1.947-2.88-8.062c9-10.079,59.76-67.537,78.264-97.85c17.776-29.233,30.198-50.63,33.251-57.736"/>
</svg>
