<?xml version="1.0" encoding="utf-8"?>
<!-- Generator: Adobe Illustrator 16.0.0, SVG Export Plug-In . SVG Version: 6.00 Build 0)  -->
<!DOCTYPE svg PUBLIC "-//W3C//DTD SVG 1.1//EN" "http://www.w3.org/Graphics/SVG/1.1/DTD/svg11.dtd">
<svg version="1.1" id="Layer_1" xmlns="http://www.w3.org/2000/svg" xmlns:xlink="http://www.w3.org/1999/xlink" x="0px" y="0px"
	 width="1999.316px" height="1094.156px" viewBox="0 0 1999.316 1094.156" enable-background="new 0 0 1999.316 1094.156"
	 xml:space="preserve">
<path fill="none" stroke="#000000" stroke-linejoin="round" stroke-miterlimit="10" d="M69.176,1055.061
	c-0.288-0.791-1.296-6.768-3.024-17.779c-17.711-112.971-29.16-226.8-46.656-339.771c-3.456-22.464-9.216-64.224-17.208-125.208
	c-2.016-15.84-2.736-31.464-2.016-46.94c0.359-6.984,2.231-14.979,5.616-24.051c6.12-16.271,44.135-58.104,68.615-85.104
	c104.4-114.912,210.168-228.528,317.088-341.064c21.24-22.392,59.188-62.28,64.8-66.168c5.688-4.032,14.763-6.84,27.071-8.496
	c8.496-1.224,91.8,0.144,125.857,1.44c311.688,12.096,622.94,35.352,932.542,73.728c121.537,15.048,352.729,32.904,364.176,48.384
	c5.688,7.632,11.018,15.768,12.385,25.271c7.059,49.968,21.168,132.696,32.477,198.937c1.363,7.92,2.015,15.336,2.087,22.392
	C1809.706,333.117,1388,238.725,974.216,237.141c0,0-65.663,3.96-117.864,49.896c-52.197,46.008-305.424,285.984-575.062,608.616
	c0,0-30.888,34.771-22.968,94.392c4.896,37.08,9.36,71.855,13.824,104.111c-69.408-10.151-161.424-24.048-187.488-24.983
	C82.136,1069.029,71.265,1061.541,69.176,1055.061L69.176,1055.061z"/>
</svg>
