<?xml version="1.0" encoding="utf-8"?>
<!-- Generator: Adobe Illustrator 16.0.0, SVG Export Plug-In . SVG Version: 6.00 Build 0)  -->
<!DOCTYPE svg PUBLIC "-//W3C//DTD SVG 1.1//EN" "http://www.w3.org/Graphics/SVG/1.1/DTD/svg11.dtd">
<svg version="1.1" id="Layer_1" xmlns="http://www.w3.org/2000/svg" xmlns:xlink="http://www.w3.org/1999/xlink" x="0px" y="0px"
	 width="1449.317px" height="884.464px" viewBox="0 0 1449.317 884.464" enable-background="new 0 0 1449.317 884.464"
	 xml:space="preserve">
<path fill="none" stroke="#000000" stroke-linejoin="round" stroke-miterlimit="10" d="M1407.643,748.755l-2.512-15.891
	c-28.869-91.768-41.146-167.646-58.723-264.438c-2.484-30.793-31.746-72.08-44.82-95.097
	c-16.021-28.251-32.312-64.004-44.162-96.337c-13.496-36.784-20.469-71.728-26.496-115.276c-2.367-17.131-7.475-41.63-9.982-59.057
	c-3.02-20.849-4.9-43.235-6.578-66.868l-0.25-2.773c-7.73,0.703-15.461,1.399-23.191,2.084c-352.047,29.377,0,0-352.047,29.377
	c-3.645,0.333-7.273,0.671-10.926,1.009c-41.008,1.023-81.904,0.214-122.928-0.329l-6.225,0.244
	C567.928,54.861,457.168,40.341,330.005,5.68c-18.655-5.084-39.662-7.679-49.008-3.838c-15.575,6.398-11.148,28.229-0.317,68.295
	c7.087,26.205,19.646,46.339,30.614,72.14c13.233,31.14,25.057,68.022,33.985,100.93c4.818,17.759,7.803,28.968,8.99,45.438
	c4.227,58.641-76.517,28.848-107.145,16.658c-30.177-12.015-66.403-22.225-94.01-36.291c-28.694-14.622-52.222-35.043-75.665-54.813
	c-17.586-14.831-34.501-30.559-51.754-45.793c-27.485-27.533-30.57-12.848-20.253,23.811c0.093,0.108,16.756,60.099,18.469,65.795
	c11.431,37.998,31.911,84.435,49.117,120.441c13.735,28.752,26.262,58.968,39.227,88.182c3.603,8.105,41.317,38.783,72.864,62.623
	c41.108,31.08,83.376,63.76,126.541,91.615c49.225,31.75,115.34,67.162,196.512,93.789c153.062,43.924,353.48,69.252,521.154,100.68
	c96.59,9.436,193.436,21.008,290.014,31.201c34.355,3.641,77.867,5.539,85.295-35.881
	C1406.965,797.64,1410.471,764.132,1407.643,748.755z"/>
</svg>
