<?xml version="1.0" encoding="utf-8"?>
<!-- Generator: Adobe Illustrator 16.0.0, SVG Export Plug-In . SVG Version: 6.00 Build 0)  -->
<!DOCTYPE svg PUBLIC "-//W3C//DTD SVG 1.1//EN" "http://www.w3.org/Graphics/SVG/1.1/DTD/svg11.dtd">
<svg version="1.1" id="Layer_1" xmlns="http://www.w3.org/2000/svg" xmlns:xlink="http://www.w3.org/1999/xlink" x="0px" y="0px"
	 width="3087.633px" height="1913.704px" viewBox="0 0 3087.633 1913.704" enable-background="new 0 0 3087.633 1913.704"
	 xml:space="preserve">
<path d="M936.798,1762.635L845.215,91.662c0,0-4.249-29.448-35.28-34.633L30.965,0.078C13.614-1.075-6.979,10.445,2.309,35.285
	l322.632,862.201c0,0,60.696,159.981,80.208,192.524l291.096,558.725c0,0,56.307,128.947,157.824,148.969l50.76,2.951
	C904.827,1800.655,938.237,1801.803,936.798,1762.635z M124.349,148.469c-4.032,7.056-13.032,9.433-20.088,5.399
	c-7.057-4.104-9.433-13.104-5.4-20.159c4.104-7.056,13.104-9.433,20.16-5.4C126.078,132.414,128.454,141.414,124.349,148.469z
	 M382.758,839.885c-4.104,7.059-13.104,9.436-20.16,5.328c-7.059-4.032-9.435-13.032-5.4-20.088c4.104-7.056,13.104-9.504,20.16-5.4
	C384.412,823.83,386.787,832.83,382.758,839.885z M792.076,205.637c-4.104,7.056-13.104,9.433-20.157,5.4
	c-7.059-4.104-9.435-13.104-5.4-20.16c4.104-7.056,13.104-9.433,20.161-5.399C793.734,189.582,796.109,198.582,792.076,205.637z
	 M833.694,947.742c-4.104,7.056-13.104,9.504-20.16,5.396c-7.057-4.104-9.432-13.104-5.397-20.158
	c4.104-6.982,13.104-9.434,20.159-5.326C835.349,931.685,837.726,940.757,833.694,947.742z M873.654,1687.327
	c-4.104,6.984-13.104,9.432-20.16,5.328c-7.056-4.031-9.432-13.105-5.327-20.088c4.031-7.061,13.031-9.504,20.09-5.4
	C875.309,1671.27,877.686,1680.27,873.654,1687.327z M3073.928,231.957c7.992-9.359,15.981-20.016,13.104-33.695
	c-4.246-20.16-24.406-23.616-24.406-23.616l-1646.278,40.608c-83.88,3.6-216.36-3.024-216.36-3.024l-170.64-22.319
	c-33.048-3.168-32.475,27.575-32.475,27.575l83.88,1578.458c2.307,22.316,29.16,26.352,29.16,26.352l1523.592,91.152
	c78.408,4.68,145.804-55.08,150.48-133.486l-2.953-23.834L2643.08,893.999c0,0-30.238-132.264,48.168-228.456L3073.928,231.957z
	 M2956.425,241.749c0.432-8.137,7.416-14.328,15.553-13.824c8.135,0.504,14.328,7.488,13.824,15.552
	c-0.433,8.136-7.416,14.328-15.554,13.896C2962.112,256.869,2955.92,249.885,2956.425,241.749z M2692.112,540.549
	c0.504-8.136,7.488-14.328,15.625-13.896c8.064,0.505,14.256,7.485,13.824,15.624c-0.504,8.137-7.488,14.328-15.625,13.821
	C2697.802,555.597,2691.608,548.613,2692.112,540.549z M1085.793,311.158c-0.435,8.135-7.418,14.327-15.554,13.896
	c-8.136-0.504-14.328-7.488-13.823-15.624c0.434-8.137,7.416-14.328,15.554-13.824
	C1080.105,296.109,1086.297,303.093,1085.793,311.158z M1122.656,1033.387c-0.504,8.141-7.487,14.328-15.624,13.824
	c-8.136-0.504-14.328-7.488-13.822-15.551c0.505-8.137,7.486-14.328,15.553-13.824
	C1116.896,1018.268,1123.089,1025.252,1122.656,1033.387z M1227.776,1758.715c-0.503,8.137-7.488,14.328-15.624,13.824
	c-8.137-0.504-14.328-7.416-13.825-15.553c0.504-8.135,7.488-14.328,15.555-13.824
	C1222.016,1743.594,1228.207,1750.583,1227.776,1758.715z M1547.024,280.197c-0.504,8.137-7.487,14.328-15.624,13.824
	c-8.062-0.432-14.328-7.416-13.824-15.552c0.505-8.136,7.488-14.328,15.625-13.824
	C1541.337,265.078,1547.528,272.061,1547.024,280.197z M1892.119,1796.446c-0.433,8.137-7.415,14.328-15.552,13.822
	s-14.328-7.486-13.824-15.623c0.435-8.062,7.416-14.326,15.556-13.822C1886.432,1781.327,1892.625,1788.311,1892.119,1796.446z
	 M2267.817,263.205c-0.504,8.137-7.488,14.328-15.625,13.824c-8.135-0.504-14.328-7.488-13.822-15.624
	c0.504-8.136,7.486-14.327,15.551-13.823C2262.057,248.085,2268.248,255.069,2267.817,263.205z M2558.049,1834.247
	c-0.504,8.137-7.487,14.328-15.624,13.824c-8.136-0.504-14.328-7.488-13.824-15.625c0.504-8.139,7.488-14.328,15.625-13.824
	C2552.36,1819.125,2558.552,1826.11,2558.049,1834.247z M2595.199,938.493c-0.505,8.137-7.486,14.328-15.624,13.824
	c-8.137-0.505-14.327-7.487-13.823-15.624c0.504-8.063,7.487-14.328,15.625-13.824
	C2589.44,923.373,2595.633,930.357,2595.199,938.493z M2674.905,1649.495c0.504-8.137,7.488-14.328,15.623-13.824
	c8.137,0.434,14.258,7.416,13.824,15.553c-0.504,8.137-7.488,14.326-15.623,13.822
	C2680.593,1664.542,2674.401,1657.555,2674.905,1649.495z"/>
</svg>
