<?xml version="1.0" encoding="utf-8"?>
<!-- Generator: Adobe Illustrator 16.0.0, SVG Export Plug-In . SVG Version: 6.00 Build 0)  -->
<!DOCTYPE svg PUBLIC "-//W3C//DTD SVG 1.1//EN" "http://www.w3.org/Graphics/SVG/1.1/DTD/svg11.dtd">
<svg version="1.1" id="Layer_1" xmlns="http://www.w3.org/2000/svg" xmlns:xlink="http://www.w3.org/1999/xlink" x="0px" y="0px"
	 width="3087.633px" height="1913.703px" viewBox="0 0 3087.633 1913.703" enable-background="new 0 0 3087.633 1913.703"
	 xml:space="preserve">
<path fill="none" stroke="#000001" stroke-linejoin="round" stroke-miterlimit="10" d="M124.349,148.47
	c-4.032,7.056-13.032,9.433-20.088,5.399c-7.056-4.104-9.432-13.104-5.4-20.159c4.104-7.056,13.104-9.433,20.16-5.4
	C126.078,132.415,128.454,141.415,124.349,148.47z"/>
<path fill="none" stroke="#000001" stroke-linejoin="round" stroke-miterlimit="10" d="M382.757,839.886
	c-4.104,7.059-13.104,9.436-20.16,5.328c-7.056-4.032-9.432-13.032-5.398-20.088c4.104-7.056,13.104-9.504,20.16-5.4
	C384.414,823.831,386.789,832.831,382.757,839.886z"/>
<path fill="none" stroke="#000001" stroke-linejoin="round" stroke-miterlimit="10" d="M792.078,205.638
	c-4.104,7.056-13.104,9.433-20.16,5.4c-7.056-4.104-9.432-13.104-5.4-20.16c4.104-7.056,13.104-9.433,20.161-5.399
	C793.734,189.583,796.109,198.583,792.078,205.638z"/>
<path fill="none" stroke="#000001" stroke-linejoin="round" stroke-miterlimit="10" d="M833.694,947.743
	c-4.104,7.056-13.104,9.504-20.16,5.396c-7.06-4.104-9.435-13.104-5.4-20.157c4.104-6.983,13.104-9.435,20.16-5.327
	C835.349,931.686,837.726,940.758,833.694,947.743z"/>
<path fill="none" stroke="#000001" stroke-linejoin="round" stroke-miterlimit="10" d="M873.654,1687.326
	c-4.104,6.984-13.104,9.432-20.16,5.328c-7.057-4.031-9.432-13.104-5.328-20.088c4.032-7.06,13.032-9.504,20.088-5.4
	C875.309,1671.27,877.686,1680.27,873.654,1687.326z"/>
<path fill="none" stroke="#000001" stroke-linejoin="round" stroke-miterlimit="10" d="M2956.424,241.75
	c0.432-8.137,7.416-14.328,15.553-13.824c8.138,0.504,14.328,7.488,13.824,15.552c-0.432,8.136-7.416,14.328-15.553,13.896
	C2962.112,256.87,2955.92,249.886,2956.424,241.75z"/>
<path fill="none" stroke="#000001" stroke-linejoin="round" stroke-miterlimit="10" d="M2692.112,540.55
	c0.504-8.136,7.487-14.328,15.625-13.896c8.062,0.505,14.256,7.485,13.823,15.624c-0.504,8.137-7.487,14.328-15.625,13.821
	C2697.801,555.598,2691.607,548.614,2692.112,540.55z"/>
<path fill="none" stroke="#000001" stroke-linejoin="round" stroke-miterlimit="10" d="M1085.793,311.159
	c-0.433,8.135-7.417,14.327-15.552,13.896c-8.136-0.504-14.328-7.487-13.824-15.624c0.432-8.137,7.416-14.328,15.552-13.824
	C1080.105,296.11,1086.296,303.094,1085.793,311.159z"/>
<path fill="none" stroke="#000001" stroke-linejoin="round" stroke-miterlimit="10" d="M1122.657,1033.39
	c-0.504,8.139-7.488,14.328-15.624,13.824c-8.137-0.504-14.328-7.488-13.824-15.552c0.504-8.137,7.488-14.328,15.552-13.824
	C1116.896,1018.27,1123.088,1025.254,1122.657,1033.39z"/>
<path fill="none" stroke="#000001" stroke-linejoin="round" stroke-miterlimit="10" d="M1227.776,1758.718
	c-0.503,8.136-7.488,14.327-15.624,13.823c-8.14-0.504-14.328-7.416-13.825-15.552c0.504-8.136,7.488-14.328,15.552-13.824
	C1222.016,1743.597,1228.208,1750.582,1227.776,1758.718z"/>
<path fill="none" stroke="#000001" stroke-linejoin="round" stroke-miterlimit="10" d="M1547.024,280.198
	c-0.505,8.137-7.487,14.328-15.624,13.824c-8.064-0.432-14.328-7.416-13.824-15.552c0.504-8.136,7.488-14.328,15.625-13.824
	C1541.336,265.079,1547.528,272.062,1547.024,280.198z"/>
<path fill="none" stroke="#000001" stroke-linejoin="round" stroke-miterlimit="10" d="M1892.121,1796.446
	c-0.434,8.136-7.415,14.327-15.552,13.823c-8.14-0.507-14.328-7.487-13.824-15.623c0.432-8.064,7.416-14.328,15.553-13.824
	C1886.432,1781.326,1892.625,1788.311,1892.121,1796.446z"/>
<path fill="none" stroke="#000001" stroke-linejoin="round" stroke-miterlimit="10" d="M2267.816,263.206
	c-0.504,8.137-7.487,14.328-15.625,13.824c-8.137-0.504-14.327-7.488-13.821-15.624c0.504-8.136,7.485-14.327,15.551-13.823
	C2262.057,248.086,2268.249,255.07,2267.816,263.206z"/>
<path fill="none" stroke="#000001" stroke-linejoin="round" stroke-miterlimit="10" d="M2558.048,1834.246
	c-0.504,8.137-7.487,14.328-15.624,13.824c-8.135-0.504-14.328-7.488-13.824-15.624c0.504-8.139,7.488-14.328,15.625-13.824
	C2552.36,1819.125,2558.552,1826.11,2558.048,1834.246z"/>
<path fill="none" stroke="#000001" stroke-linejoin="round" stroke-miterlimit="10" d="M2595.201,938.494
	c-0.505,8.137-7.488,14.328-15.624,13.824c-8.138-0.504-14.328-7.487-13.824-15.624c0.504-8.063,7.488-14.328,15.625-13.824
	C2589.439,923.374,2595.632,930.358,2595.201,938.494z"/>
<path fill="none" stroke="#000001" stroke-linejoin="round" stroke-miterlimit="10" d="M2674.905,1649.494
	c0.504-8.136,7.487-14.328,15.623-13.824c8.137,0.434,14.258,7.416,13.823,15.553c-0.504,8.139-7.487,14.327-15.623,13.823
	C2680.592,1664.542,2674.4,1657.558,2674.905,1649.494z"/>
<path fill="none" stroke="#000001" stroke-linejoin="round" stroke-miterlimit="10" d="M917.929,1812.053
	c0-6.447-4.044-11.665-9.042-11.664c-2.469,0.32-4.058,0.266-4.058,0.266l-50.76-2.951
	c-101.521-20.02-157.824-148.969-157.824-148.969l-291.096-558.723c-19.515-32.544-80.208-192.524-80.208-192.524L2.309,35.286
	c-9.288-24.84,11.305-36.36,28.656-35.207L809.934,57.03c31.031,5.185,35.28,34.633,35.28,34.633
	c0,54.18,80.312,98.022,179.564,98.022v-0.002c1.446,0.002,2.967,0.076,4.567,0.229l170.643,22.319c0,0,132.478,6.624,216.357,3.024
	l1646.28-40.608c0,0,20.161,3.456,24.407,23.616c2.88,13.679-5.112,24.336-13.104,33.695l-382.679,433.586
	C2612.841,761.736,2643.081,894,2643.081,894l137.951,862.129l2.952,23.833c-4.679,78.407-72.071,138.167-150.479,133.487
	l-1523.592-91.152c0,0-26.856-4.035-29.16-26.352l-1.148-21.61c0-19.889-33.227-35.983-74.288-35.983
	c-37.873,0-68.52,10.862-68.52,24.286c0.127,3.452-0.017,6.591-0.384,9.445l-0.006-0.001c0,6.267,5.631,11.338,12.59,11.338
	c17.221,0,31.181,13.96,31.181,31.181c0,17.222-13.96,31.182-31.181,31.182s-31.181-13.96-31.181-31.182
	c0-0.858,0.035-1.708,0.103-2.549L917.929,1812.053z"/>
</svg>
