<?xml version="1.0" encoding="utf-8"?>
<!-- Generator: Adobe Illustrator 16.0.0, SVG Export Plug-In . SVG Version: 6.00 Build 0)  -->
<!DOCTYPE svg PUBLIC "-//W3C//DTD SVG 1.1//EN" "http://www.w3.org/Graphics/SVG/1.1/DTD/svg11.dtd">
<svg version="1.1" id="Layer_1" xmlns="http://www.w3.org/2000/svg" xmlns:xlink="http://www.w3.org/1999/xlink" x="0px" y="0px"
	 width="2741.875px" height="769.472px" viewBox="0 0 2741.875 769.472" enable-background="new 0 0 2741.875 769.472"
	 xml:space="preserve">
<path fill="none" stroke="#000001" stroke-linejoin="round" stroke-miterlimit="10" d="M1868.488,16.16
	c-18.023,14.663-41.82,13.899-55.198-5.52l0.01,0.002c-2.822-5.984-8.152-10.041-18.071-10.041L756.987,2.042L137.075,3.028
	c-6.934,0.011-12.414,4.89-15.716,10.693c-0.318,0.56-0.521,5.668-0.606,15.325c-0.137,22.706-0.254,32.938-6.65,63.455
	c-9.872,46.914-19.776,72.917-52.709,123.641c0,0-6.125,9.398-6.129,9.405c-5.317,8.159-8.79,17.511-10.67,27.072
	c-1.378,7.005,0.435,14.795-7.287,17.544c-11.727,4.173-24.792-0.528-36.631,3.865c-0.643,25.418-0.81,51.367-0.576,77.914
	c0.368,46.886,0.58,76.533,0.487,89.001c-0.37,43.17-0.484,65.443-0.337,66.75c0.234,3.689,0.836,7.256,1.726,10.836l10.143-0.896
	l7.936-0.08c2.666,0,5.26-0.006,7.926-0.006c14.781,0,14.55,11.375,14.404,23.045c-0.208,16.721-0.258,33.438-0.59,50.16
	c-0.792,42.619-1.1,64.439-0.918,65.326c2.996,14.549,18.585,16.213,30.722,16.164c4.908-0.1,12.117-0.072,21.708-0.062
	c12.209,0.049,24.479,0.348,36.683,0.041c2.178-0.055,4.226-0.325,6.156-0.786v-0.003c73.821-17.083,148.031-35.039,223.985-38.939
	c2.063-0.213,4.085-0.555,5.898-0.799c63.268-8.52,142.193-18.109,237.249-29.24c90.92-10.467,141.398-16.176,150.845-17.299
	c40.898-4.432,62.46-6.729,64.824-6.973c45.455-4.707,129.56-13.309,136.363-14.145l72.264-8.887l37.272-3.662
	c3.472-0.902,39.379-4.463,107.867-10.693c20.512-1.859,31.34-2.867,32.345-2.939c44.575-4.484,76.903-7.639,97.061-9.4
	c24.03-2.115,38.376-3.379,43.183-3.803c40.144-3.871,65.312-6.215,75.503-7.031c26.111-2.27,40.529-3.537,43.109-3.799
	c50.311-5.047,154.74-13.396,313.223-24.971l10.77-0.787c5.529-0.404,12.871,0.287,22.025,2.072
	c19.992,3.883,35.186,13.24,45.582,28.074c10.637,15.178,44.102,108.602,48.986,123.119c15.387,45.584,25.281,77.273,29.686,95.074
	c4.633,18.936,7.363,29.639,8.115,32.037c0.701,2.236,2.279,0.225,4.309-0.314c9.45-2.505,62.275-16.135,98.01-25.398
	c14.802-0.832,30.35,0.825,42.625,9.85l-0.009,0.003c5.183,10.033,15.651,16.892,27.722,16.892
	c17.221,0,31.181-13.961,31.181-31.182s-13.96-31.18-31.181-31.18c-4.653,0-9.068,1.019-13.034,2.846l0.003,0.009
	c-11.271,1.699-20.188-2.747-26.066-12.511l-0.002-0.007c-1.1-4.148-2.583-9.76-4.396-16.841c0-54.926,85.64-99.371,191.475-99.371
	c14.913,0,28.355,4.228,37.863,11.013l-0.01,0.001c4.09,6.872,8.18,13.806,12.268,20.801c23.475,40.131,36.74,65.385,39.865,75.764
	c4.125,13.5,3.695,30.486,3.111,53.662l-0.271,10.797c-0.104,4.176,2.746,11.09,4.502,12.861c1.477,1.479,3.395,2.535,5.896,3.246
	c0.287,0.08,6.41,0.016,18.301-0.26c4.684-0.098,15.775-0.105,33.275-0.025c50.84,0.271,76.693,0.42,77.559,0.369
	c11.986-0.697,59.168-0.754,88.752-0.789c65.471-0.08,98.75-0.25,99.77-0.656c4.799-1.824,7.988-5.488,9.717-11.207
	c0.867-3.004,0.854-10.926-0.119-23.842l-0.594-7.938c-0.107-1.371,1.336-10.123,4.262-26.184
	c2.264-12.418,2.74-25.076,4.619-37.551l4.643-32.727c2.584-18.225,4.119-36.59,6.998-54.777c0.939-5.953,1.467-9.613,1.57-10.979
	c0.479-7.549-1.553-12.643-6.096-15.277l-58.176-6.508l-69.057-9.084c-12.568-1.4-22.895-6.053-31.045-14.182
	c-10.965-10.791-14.467-26.148-14.494-30.758l-0.668-87.885l1.428-28.052c0.258-8.044-0.256-16.15-0.248-24.202
	c0.041-36.449-0.418-72.958-1.309-109.394c-0.439-18.011,1.035-36.078-0.26-54.056c-0.613-8.495-1.432-16.858-0.807-25.387
	c0.871-11.907,0.293-26.474,7.361-36.719c6.668-9.664,20.08-14.079,31.443-14.375c8.172-0.213,16.328-1.029,24.508-0.821
	c2.881,0.072,22.215-1.242,58.004-3.869c35.502-2.634,54.838-4.02,57.941-4.23c34.533-0.662,27.797-30.304,28.072-55.581
	c0.16-14.737,3.861-40.679-17.338-41.683c-49.076-2.325-98.811,1.511-147.969,1.238c-4.924-0.027-9.846-0.069-14.77-0.096
	c-46.465-0.26-92.934-0.288-139.4-0.312c-51.967-0.026-103.934-0.083-155.9-0.049c-50.91,0.032-101.822,0.23-152.732,0.36
	c-41.875,0.107-83.75-0.001-125.621,0.137c-29.502,0.097-59.643-3.292-89.043-0.417c-14.696,1.437-24.867,5.883-30.467,14.877
	L1868.488,16.16z"/>
</svg>
