<?xml version="1.0" encoding="utf-8"?>
<!-- Generator: Adobe Illustrator 16.0.0, SVG Export Plug-In . SVG Version: 6.00 Build 0)  -->
<!DOCTYPE svg PUBLIC "-//W3C//DTD SVG 1.1//EN" "http://www.w3.org/Graphics/SVG/1.1/DTD/svg11.dtd">
<svg version="1.1" id="Layer_1" xmlns="http://www.w3.org/2000/svg" xmlns:xlink="http://www.w3.org/1999/xlink" x="0px" y="0px"
	 width="3164.007px" height="2228.86px" viewBox="0 0 3164.007 2228.86" enable-background="new 0 0 3164.007 2228.86"
	 xml:space="preserve">
<path fill="none" stroke="#000000" stroke-linejoin="round" stroke-miterlimit="10" d="M2325.716,1705.799
	c-2.715,0.068-3.26-0.523-3.588-0.881c-0.869-0.941-3.781-5.121-4.811-19.311c-0.951-13.102-0.139-31.434,2.502-56.031
	c10.273-96.027,142.463-1465.405,157.268-1618.798c65.902,5.014,337.748,25.645,359.943,26.602
	c10.141,0.438,12.979,1.951,13.494,2.285c0.311,0.631,0.924,2.732,1.027,9.553c0.141,8.617-1.916,80.986-3.725,144.84
	c-1.869,65.961-3.633,128.262-3.506,136.41c0.098,6.135,0.355,22.426,11.613,33.238c6.863,6.594,16.145,9.789,27.586,9.508
	c0.002,0,0.004,0,0.006,0c11.121-0.275,24.361-3.832,40.48-10.867c8.127-3.543,199.393-86.934,216.094-94.738
	c3.016-1.412,6.484-2.262,9.512-2.338c4.965-0.123,7.26,1.734,8.555,3.143c2.445,2.658,7.832,11.584,5.062,36.998
	c-5.586,51.289-119.023,1029.882-124.422,1069.75c-3.631,26.793-25.135,38.27-108.32,71.996
	c-68.822,27.904-384.344,165.568-566.301,245.145l-8.791,3.846C2344.708,1700.819,2332.826,1705.624,2325.716,1705.799z
	 M851.271,1706.18c-7.079-0.059-19.078-4.773-29.885-9.381l-7.995-3.41c-182.878-78.002-500.024-212.945-569.352-240.318
	c-83.481-32.967-105.087-44.248-108.962-71.01C129.363,1342.563,6.973,364.884,0.896,313.496
	c-2.998-25.336,2.287-34.322,4.696-37.014c1.27-1.414,3.523-3.293,8.423-3.252c3.059,0.027,6.583,0.846,9.665,2.254
	c16.766,7.652,208.781,89.297,216.947,92.77c16.373,6.967,29.782,10.402,40.991,10.496c11.303,0.096,20.446-3.217,27.176-9.846
	c11.078-10.914,11.188-27.148,11.226-33.262c0.057-8.145-2.275-70.396-4.744-136.303c-2.396-63.865-5.104-136.25-5.051-144.867
	c0.043-6.828,0.641-8.934,0.944-9.566c0.506-0.338,3.333-1.879,13.469-2.406c22.185-1.162,293.834-24.273,359.691-29.887
	c16.202,153.254,160.875,1521.364,172.033,1617.292c2.854,24.543,3.841,42.842,3.016,55.943c-0.896,14.219-3.771,18.447-4.63,19.406
	C854.43,1705.61,853.896,1706.204,851.271,1706.18z M1788.384,1869.719l-0.006-0.178h-192.816h-600.71
	c13.478,134.211,41.611,351.635,41.611,351.635c125.896,9.162,389.327,8.035,545.152,6.367
	c153.119,1.752,431.007,3.305,561.375-6.188c0,0,28.137-217.428,41.609-351.641h-396.215V1869.719L1788.384,1869.719z
	 M1589.724,1742.086c-67.276,0-594.875-27.197-594.875-27.197s1.87,88.48,1.87,103.123c0,14.645,5.273,18.281,17.573,19.104
	c9.185,0.609,253.234,13.012,430.639,20.279c55.744,2.416,106.444,4.57,144.792,4.57c38.348,0,91.605-1.875,147.35-4.291
	c177.398-7.268,418.9-19.949,428.09-20.561c12.299-0.82,17.572-4.459,17.572-19.105c0-14.643,1.863-103.123,1.863-103.123
	S1657.003,1742.086,1589.724,1742.086z M1574.954,1730.198c-4.851,0.021-9.712,0.01-14.562,0.014
	c-6.19-0.02-12.39-0.053-18.598-0.094l-3.396-0.023c-2.639,0-5.268-0.02-7.896-0.053l-3.666-0.035
	c-272.341-2.564-536.424-31.717-539.062-32.02l-7.855-0.879C965.616,1580.426,843.711,582,835.117,356.638
	c37.197-21.029,49.462-65.754,51.049-72.168c0.799-2.295,3.595-8.395,10.736-8.441c0.312-0.008,0.624-0.02,0.933-0.033
	c2.83-0.207,286.666-20.619,636.469-24.408c1.851-0.021,3.654-0.045,5.457-0.057l1.528-0.021c5.396-0.055,10.796-0.102,16.221-0.164
	c1.979-0.006,3.949-0.029,5.919-0.047c2.658-0.027,5.315-0.057,7.996-0.07l8.998-0.055l3.43-0.027
	c1.803-0.008,3.602-0.012,5.395-0.02c0,0,15.582-0.043,19.1-0.049l7.291-0.012c1.773,0,3.547-0.016,5.289,0
	c349.945-0.51,633.938,16.439,636.766,16.605c0.289,0.025,0.598,0.025,0.887,0.025c0.025,0,0.043,0,0.055,0
	c8.133-0.012,10.469,7.006,10.736,7.906c1.15,4.566,13.65,50.855,52.031,71.939C2315.574,573,2205.873,1572.84,2192.99,1689.682
	l-7.863,0.992c-2.613,0.32-266.379,32.703-538.602,38.607l-3.648,0.078c-2.725,0.061-5.422,0.105-8.139,0.146l-3.172,0.062
	c-6.193,0.107-12.396,0.225-18.576,0.309l0,0c-0.043,0-0.082,0-0.137,0c-9.959,0.131-17.584,0.199-24.703,0.254l-1.494-0.008
	l-1.428,0.016C1581.809,1730.186,1578.39,1730.198,1574.954,1730.198z M2464.134,11.703c-73.729-4.229-406.809-7.566-738.801-11.1
	c-5.105-0.062-10.209-0.111-15.312-0.166l-4.59-0.043c-13.238-0.111-26.486-0.193-39.723-0.27
	c-26.773-0.133-53.312-0.16-78.861-0.078l-3.332,0.014l-3.328-0.014c-25.554-0.082-52.091-0.055-78.862,0.078
	c-13.232,0.076-26.48,0.158-39.724,0.27l-4.59,0.043c-5.104,0.055-10.209,0.104-15.312,0.166
	c-331.994,3.533-665.072,6.871-738.802,11.1l0.535,5.881c-0.175,0.01-0.369,0.016-0.535,0.029l19.068,250.602
	c0.194-3.289,1.319-6.404,3.354-9.359l0.114,1.334c0.564-1.613,1.48-3.191,2.706-4.736c42.013-43.246,301.141-50.771,849.748-53.066
	l5.624-0.029l5.631,0.029c548.605,2.295,807.732,9.82,849.742,53.066c1.23,1.545,2.152,3.123,2.705,4.736l0.119-1.334
	c2.031,2.955,3.156,6.07,3.354,9.359l19.068-250.602c-0.168-0.014-0.361-0.02-0.533-0.029L2464.134,11.703z"/>
</svg>
