<?xml version="1.0" encoding="utf-8"?>
<!-- Generator: Adobe Illustrator 16.0.0, SVG Export Plug-In . SVG Version: 6.00 Build 0)  -->
<!DOCTYPE svg PUBLIC "-//W3C//DTD SVG 1.1//EN" "http://www.w3.org/Graphics/SVG/1.1/DTD/svg11.dtd">
<svg version="1.1" id="Layer_1" xmlns="http://www.w3.org/2000/svg" xmlns:xlink="http://www.w3.org/1999/xlink" x="0px" y="0px"
	 width="1974.193px" height="1093.34px" viewBox="0 0 1974.193 1093.34" enable-background="new 0 0 1974.193 1093.34"
	 xml:space="preserve">
<path fill="none" stroke="#1D1D1B" stroke-linejoin="round" stroke-miterlimit="10" d="M1932.893,464.431
	c3.173-1.088,6.577-1.678,10.118-1.678c17.221,0,31.182,13.96,31.182,31.181s-13.961,31.182-31.182,31.182
	s-31.181-13.961-31.181-31.182c0-5.415,1.381-10.508,3.809-14.945c1.167-4.536-2.662-5.821-6.038-7.314
	c-1.868-0.092-3.968-0.276-6.324-0.58c-26.891-3.472-253.88-47.963-454.277-80.958c-165.824-27.297-326.613-45.4-361.117-50.568
	c-9.726-1.461-18.97-3.004-27.906-4.501c-61.293-10.239-103.852-27.117-181.249,16.845
	c-71.95,40.861-364.043,304.037-474.784,413.317c-20.049,19.788-35.89,36.062-40.099,40.006
	c-22.847,21.48-60.122,52.59-68.188,82.301c-2.029,7.486-3.32,14.737-3.86,21.549c-2.287,29.314-12.914,176.58-13.075,178.027
	c-0.195,1.896-0.438,4.025-0.841,5.51c-0.051,0.166-0.102,0.316-0.128,0.434c-0.862,0.197-2.853,0.471-6.648,0.105
	c-19.163-1.84-168.066-22.3-190.256-27.154c-2.631-0.576-5.032-1.061-7.226-1.518c-4.461-0.896-10.014-2.033-11.162-2.9
	c-0.244-0.276-1.719-2.361-3.524-13.176c-2.163-12.863-22.248-146.539-34.986-272.469C1.334,552.263-1.734,512.362,0.697,503.316
	c0.768-2.862,17.968-37.857,41.468-62.841c24.232-25.767,51.382-53.384,92.914-95.324c77.088-77.853,156.83-162.389,216.864-218.33
	c22.446-20.909,40.177-37.425,52.114-48.736c34.407-32.629,47.049-47.564,65.224-65.998c17.312-17.568,49.265-11.345,68.953-9.526
	c42.244,3.884,1200.893,170.36,1362.987,218.187c7.422,39.65,17.291,145.44,22.672,175.751l0.724,4.008
	c1.242,11.456,2.823,41.113,2.269,56.579c0.58,1.869,0.887,4.74,2.102,6.297C1929.967,464.641,1931.487,464.35,1932.893,464.431z"/>
</svg>
