<?xml version="1.0" encoding="utf-8"?>
<!-- Generator: Adobe Illustrator 16.0.0, SVG Export Plug-In . SVG Version: 6.00 Build 0)  -->
<!DOCTYPE svg PUBLIC "-//W3C//DTD SVG 1.1//EN" "http://www.w3.org/Graphics/SVG/1.1/DTD/svg11.dtd">
<svg version="1.1" id="Layer_1" xmlns="http://www.w3.org/2000/svg" xmlns:xlink="http://www.w3.org/1999/xlink" x="0px" y="0px"
	 width="2006.957px" height="1175.083px" viewBox="0 0 2006.957 1175.083" enable-background="new 0 0 2006.957 1175.083"
	 xml:space="preserve">
<path fill="none" stroke="#000000" stroke-linejoin="round" stroke-miterlimit="10" d="M1955.207,368.937l-1027.423,9.101
	c-19.812,0.244-37.445-4.729-47.472-18.802c-8.7-12.21-229.542-289.405-252.42-320.253c-16.242-21.9-27.771-26.507-29.946-27.221
	c-13.101-0.76-92.342-9.781-137.566-11.561c-3.535-0.147-6.684-0.2-9.633-0.201c-19.347,0.129-25.129,3.635-28.528,7.426
	c-5.63,6.275-12.396,30.312-16.164,49.104C378.068,215.475,267.813,550.963,78.329,1053.7c-9.453,25.062-16.283,43.17-17.304,46.311
	c-1.706,5.295-3.505,10.037-5.114,14.205c-0.734,1.971-1.611,4.258-2.341,6.367c26.574-0.791,262.283-26.932,307.237-29.936
	c8.979-13.375,28.784-65.643,91.831-161.691c8.041-12.273,15.468-23.842,22.653-35.029
	c66.562-103.729,124.969-146.27,279.062-159.084c625.877-52.031,1116.43-53.445,1252.604-63.762L1955.207,368.937z"/>
</svg>
