<?xml version="1.0" encoding="utf-8"?>
<!-- Generator: Adobe Illustrator 16.0.0, SVG Export Plug-In . SVG Version: 6.00 Build 0)  -->
<!DOCTYPE svg PUBLIC "-//W3C//DTD SVG 1.1//EN" "http://www.w3.org/Graphics/SVG/1.1/DTD/svg11.dtd">
<svg version="1.1" id="Layer_1" xmlns="http://www.w3.org/2000/svg" xmlns:xlink="http://www.w3.org/1999/xlink" x="0px" y="0px"
	 width="2948.469px" height="1889.461px" viewBox="0 0 2948.469 1889.461" enable-background="new 0 0 2948.469 1889.461"
	 xml:space="preserve">
<path fill="none" stroke="#000001" stroke-linejoin="round" stroke-miterlimit="10" d="M843.293,137.286
	c-3.413,7.963-18.173,13.945-35.892,13.945c-27.705,0-50.123-2.958-50.123-6.613l0.002-0.005
	c-10.943-25.044-34.117-26.261-60.136-24.635c-44.643,2.791-655.698,61.386-655.698,61.386
	c-39.237,3.754-61.387,27.903-16.741,75.335C69.35,304.13,247.92,502.235,314.889,555.248
	c66.963,53.013,78.125,72.544,66.963,139.509c-11.155,66.965-142.301,733.823-142.301,862.173
	c0,128.353,69.758,195.314,145.096,242.748c26.461,16.661,46.037,26.782,60.663,30.483c12.467,3.154,1.297,20.732,1.297,28.119
	c0,17.221,13.96,31.181,31.181,31.181s31.181-13.96,31.181-31.181c0-6.226-1.882-12.395-5.404-17.529
	c-1.885-2.747-4.354-4.226-6.99-5.49c-2.323-1.115-4.777-2.064-7.074-3.57c-5.776-3.787-8.903-10.343-8.903-17.196
	c3.22-7.299,5.505-16.896,7.286-28.766c0.353-2.352,1.122-7.031,2.272-13.847c3.498-10.608,15.064-14.774,25.378-14.129
	c10.277,0.644,20.558,1.251,30.835,1.887c19.217,1.187,38.434,2.374,57.651,3.561c4.161,0.258,8.322,0.515,12.482,0.772
	c14.594,0.988,32.872,0.54,55.526-0.565c114.398-5.58,1205.367-47.436,1342.091-50.227c136.719-2.791,248.328-41.85,357.143-267.855
	c108.82-226.008,421.322-904.026,474.338-1026.796c53.012-122.77,100.445-337.613,100.445-366.91C2946.045,22.322,2960,0,2920.938,0
	C1989.009,0,853.394,103.237,853.394,103.237c-1.565,0-5.077,12.057-10.177,34.034L843.293,137.286z"/>
</svg>
