<?xml version="1.0" encoding="utf-8"?>
<!-- Generator: Adobe Illustrator 16.0.0, SVG Export Plug-In . SVG Version: 6.00 Build 0)  -->
<!DOCTYPE svg PUBLIC "-//W3C//DTD SVG 1.1//EN" "http://www.w3.org/Graphics/SVG/1.1/DTD/svg11.dtd">
<svg version="1.1" id="Layer_1" xmlns="http://www.w3.org/2000/svg" xmlns:xlink="http://www.w3.org/1999/xlink" x="0px" y="0px"
	 width="2538.936px" height="1493.832px" viewBox="0 0 2538.936 1493.832" enable-background="new 0 0 2538.936 1493.832"
	 xml:space="preserve">
<path fill="none" stroke="#000000" stroke-linejoin="round" stroke-miterlimit="10" d="M558.391,217.693
	c-4.029-56.664-9.792-110.448-16.056-166.896c-0.792-7.2,3.24-11.448,8.136-13.969c4.248-3.239,12.456-6.768,28.08-6.768
	c27.72,0,273.24-22.032,605.232-28.44c33.189-0.647,66.744-1.151,100.368-1.368c362.808-2.663,637.632,16.633,667.079,15.984
	c15.84-0.288,24.119,3.096,28.366,6.336c4.896,2.376,8.931,6.552,8.279,13.752c-5.185,56.521-9.792,110.305-12.672,167.112
	c0,0-2.88,10.872-12.24,11.088c-3.384,0.072-5.832-1.8-8.712-4.464c-1.148-0.432-2.376-0.937-3.6-1.656
	c-13.971-7.775-6.192-9.288-63.576-17.063c-319.464-43.2-922.248-37.152-1240.85,12.456c-57.168,8.928-49.393,10.296-63.217,18.359
	c-1.224,0.647-2.376,1.225-3.456,1.729c-2.952,2.735-5.327,4.68-8.782,4.68C561.487,228.565,558.391,217.693,558.391,217.693
	L558.391,217.693 M1898.239,254.702c-46.872-7.56-243.504-24.048-601.059-28.872c-357.552-4.823-598.895,18-627.909,21.744
	c-29.091,3.744-60.843,25.056-59.904,55.44c0,0,103.32,1120.103,129.022,1131.552c25.704,11.519,19.44,34.92,38.736,36.574
	c19.297,1.657,272.738,22.248,510.265,22.684c237.529,0.504,460.011-17.932,494.643-24.051
	c34.559-6.049,13.031-39.602,38.734-46.514c25.703-6.98,122.976-1064.374,127.654-1104.334
	C1953.176,278.894,1945.111,262.263,1898.239,254.702z M1279.47,1476.254c-41.327,0-74.879-20.303-74.879-45.432
	s33.552-45.434,74.879-45.434c41.4,0,74.953,20.305,74.953,45.434S1320.87,1476.254,1279.47,1476.254z M2094.583,14.438
	l207.36,19.872l0,0c6.695,0.647,13.896,1.224,13.392,10.8c-0.504,9.576-7.848,233.712-7.128,237.816
	c0.792,4.176,5.256,17.424,25.562,14.544c20.304-2.952,155.808-62.641,184.029-78.984c22.683-13.104,30.023-4.536,27.863,11.088
	c-2.229,15.624-87.84,899.062-87.84,899.062s-2.664,13.104-9.434,16.127c-6.77,3.023-521.062,262.584-521.062,262.584
	s-5.904,2.377-5.832-9.574c0.072-11.881,160.056-1365.625,160.128-1371.959C2081.768,19.405,2086.591,14.941,2094.583,14.438
	L2094.583,14.438 M458.527,14.438L251.167,34.31l0,0c-6.696,0.647-13.824,1.224-13.392,10.8c0.504,9.576,7.92,233.712,7.128,237.816
	c-0.792,4.176-5.256,17.424-25.56,14.544c-20.304-2.952-155.808-62.641-184.032-78.984c-22.68-13.104-30.024-4.536-27.864,11.088
	c2.232,15.624,87.84,899.062,87.84,899.062s2.664,13.104,9.432,16.127c6.768,3.023,521.064,262.584,521.064,262.584
	s5.904,2.377,5.832-9.574c-0.073-11.881-160.059-1365.625-160.128-1371.96C471.343,19.405,466.591,14.941,458.527,14.438
	L458.527,14.438"/>
</svg>
