<?xml version="1.0" encoding="utf-8"?>
<!-- Generator: Adobe Illustrator 16.0.0, SVG Export Plug-In . SVG Version: 6.00 Build 0)  -->
<!DOCTYPE svg PUBLIC "-//W3C//DTD SVG 1.1//EN" "http://www.w3.org/Graphics/SVG/1.1/DTD/svg11.dtd">
<svg version="1.1" id="Layer_1" xmlns="http://www.w3.org/2000/svg" xmlns:xlink="http://www.w3.org/1999/xlink" x="0px" y="0px"
	 width="1596.027px" height="883.74px" viewBox="0 0 1596.027 883.74" enable-background="new 0 0 1596.027 883.74"
	 xml:space="preserve">
<path d="M1283.073,632.028c37.151,75.811,118.729,237.672,118.729,237.672s157.823,14.184,176.978,14.039
	c19.228-0.146,18.435-14.832,15.981-19.295c-113.978-277.416-224.276-558.722-292.604-851.33c0,0-8.496-14.328-26.424-13.031
	c-18,1.296-170.281,8.279-170.281,8.279s-187.92,249.48-199.799,266.4c-11.881,16.848-20.308,15.696-33.556,14.616
	c-13.176-1.152-634.534-6.769-690.911-3.96c-56.376,2.735-131.832,14.04-131.832,14.04S5.648,487.018,0.969,507.467
	c-4.682,20.375,8.494,36.648,19.942,33.268c18-5.4,956.017,19.939,1176.696,35.854c18.646,1.369,49.248,1.369,63.938,13.969
	c8.354,7.271,10.149,18,17.135,32.479C1280.122,626.051,1281.632,629.002,1283.073,632.028L1283.073,632.028"/>
</svg>
