<?xml version="1.0" encoding="utf-8"?>
<!-- Generator: Adobe Illustrator 16.0.0, SVG Export Plug-In . SVG Version: 6.00 Build 0)  -->
<!DOCTYPE svg PUBLIC "-//W3C//DTD SVG 1.1//EN" "http://www.w3.org/Graphics/SVG/1.1/DTD/svg11.dtd">
<svg version="1.1" id="Layer_1" xmlns="http://www.w3.org/2000/svg" xmlns:xlink="http://www.w3.org/1999/xlink" x="0px" y="0px"
	 width="1901.59px" height="1275.564px" viewBox="0 0 1901.59 1275.564" enable-background="new 0 0 1901.59 1275.564"
	 xml:space="preserve">
<path fill="none" stroke="#000000" stroke-miterlimit="10" d="M1851.987,56.342c5.162,3.785,11.53,6.02,18.421,6.02
	c17.221,0,31.181-13.96,31.181-31.181c0-17.221-13.96-31.181-31.181-31.181s-31.182,13.96-31.182,31.181
	c0,2.126,0.213,4.203,0.617,6.21c-1.418,5.995-9.039,3.909-13.369,3.909h-0.002c-50.681-5.092-318.257-31.977-335.979-33.801
	c-19.658-1.944-63.362-5.688-63.362-5.688C840.548,15.922,310.052,62.579,301.34,63.01c-8.64,0.432-7.561,8.424-7.561,8.424
	c-4.536,27.576-11.663,44.641-11.663,44.641s-74.953,162.791-78.409,173.016c-3.456,10.152,6.913,16.992,6.913,16.992
	s34.487,21.527,49.68,31.465c15.191,9.863,4.968,31.104,4.968,31.104s-94.896,177.191-99.865,184.752
	c-4.895,7.631-14.902,8.136-14.902,8.136s-107.137,9.505-113.112,9.864c-6.049,0.287-7.993,5.397-7.993,5.397
	S4.988,626.77,1.243,633.682c-3.743,6.841,2.16,12.313,2.16,12.313l0,0l0,0c0,0,151.848,197.711,157.536,205.416
	c5.761,7.703,6.913,16.346,6.913,16.346s50.976,267.336,55.656,284.832c4.608,17.494,14.903,25.486,14.903,25.486
	s91.729,91.94,96.696,96.119c5.041,4.176,9.067-2.521,9.067-2.521S790.865,609.849,808.29,578.96
	c17.423-30.959-6.769-34.271-6.769-34.271S351.812,411.346,330.355,405.803c-21.456-5.545-27.938,9.938-27.938,9.938
	S191.9,606.827,180.883,627.995c-11.017,21.168,4.896,36.074,4.896,36.074s229.825,284.186,256.542,319.68
	c26.64,35.568,20.229,40.104,20.229,40.104S169.867,672.778,160.22,661.186c-9.72-11.592-5.184-17.276-5.184-17.276
	s152.135-311.4,168.048-331.56c15.84-20.232,46.44-20.809,46.44-20.809s1273.392,9.504,1281.454,9.576
	c7.988,0.072,9.793-3.527,9.793-3.527S1812.104,90.52,1835.976,61.351c4.568-3.242,10.094-7.984,16.018-5.006L1851.987,56.342z"/>
</svg>
