<?xml version="1.0" encoding="utf-8"?>
<!-- Generator: Adobe Illustrator 16.0.0, SVG Export Plug-In . SVG Version: 6.00 Build 0)  -->
<!DOCTYPE svg PUBLIC "-//W3C//DTD SVG 1.1//EN" "http://www.w3.org/Graphics/SVG/1.1/DTD/svg11.dtd">
<svg version="1.1" id="Layer_1" xmlns="http://www.w3.org/2000/svg" xmlns:xlink="http://www.w3.org/1999/xlink" x="0px" y="0px"
	 width="1840.389px" height="1279.584px" viewBox="0 0 1840.389 1279.584" enable-background="new 0 0 1840.389 1279.584"
	 xml:space="preserve">
<path d="M1836.986,651.818L1836.986,651.818c0,0-152.93,196.848-158.688,204.551c-5.763,7.633-6.982,16.27-6.982,16.27
	s-52.416,267.119-57.168,284.543c-4.754,17.496-15.049,25.416-15.049,25.416s-92.229,91.518-97.197,95.615
	c-5.041,4.178-9.072-2.52-9.072-2.52s-443.159-664.2-460.368-695.306c-17.278-31.028,6.983-34.129,6.983-34.129
	s450.356-130.969,471.89-136.367c21.454-5.473,27.862,10.08,27.862,10.08s109.513,191.664,120.386,212.902
	c10.87,21.167-5.112,36-5.112,36s-231.334,282.961-258.188,318.312c-26.854,35.428-20.521,40.031-20.521,40.031
	s294.551-349.561,304.344-361.08c9.723-11.594,5.258-17.275,5.258-17.275s-150.479-312.123-166.248-332.427
	c-15.77-20.303-46.366-21.023-46.366-21.023s-1273.469,2.668-1281.46,2.668c-8.062,0.072-9.79-3.529-9.79-3.529
	S19.201,69.983,5.378,54.721C-8.518,39.526,8.905,38.087,8.905,38.087S333.697,7.271,353.281,5.399
	C372.938,3.526,416.713,0,416.713,0c586.438,17.279,1116.721,66.744,1125.358,67.248c8.712,0.432,7.562,8.424,7.562,8.424
	c4.395,27.648,11.446,44.713,11.446,44.713s74.088,163.223,77.472,173.447c3.457,10.152-6.981,16.92-6.981,16.92
	s-34.632,21.385-49.821,31.176c-15.268,9.793-5.186,31.104-5.186,31.104s93.959,177.696,98.854,185.328
	c4.896,7.633,14.901,8.209,14.901,8.209s107.062,10.08,113.109,10.438c5.979,0.359,7.922,5.474,7.922,5.474
	s24.119,50.11,27.793,56.95C1842.888,646.343,1836.986,651.818,1836.986,651.818L1836.986,651.818z"/>
</svg>
