<?xml version="1.0" encoding="utf-8"?>
<!-- Generator: Adobe Illustrator 16.0.0, SVG Export Plug-In . SVG Version: 6.00 Build 0)  -->
<!DOCTYPE svg PUBLIC "-//W3C//DTD SVG 1.1//EN" "http://www.w3.org/Graphics/SVG/1.1/DTD/svg11.dtd">
<svg version="1.1" id="Layer_1" xmlns="http://www.w3.org/2000/svg" xmlns:xlink="http://www.w3.org/1999/xlink" x="0px" y="0px"
	 width="1197.721px" height="529.167px" viewBox="0 0 1197.721 529.167" enable-background="new 0 0 1197.721 529.167"
	 xml:space="preserve">
<path fill="none" stroke="#000000" stroke-linejoin="round" stroke-miterlimit="10" d="M1136.782,365.058
	c-1.771,1.945-3.812,0.593-5.427-0.793C1067.104,280.569,898.761,61.28,881.344,38.589C859.986,10.768,800.08,5.7,800.08,5.7
	S401.676-40.156,46.551,128.26c0,0-62.292,30.943-42.759,56.388c69.617,90.688,226.034,294.439,249.644,325.195
	c30.237,39.391,74.772,6.361,74.772,6.361c363.94-173.395,779.869-123.56,779.869-123.56s9.212-2.155,16.93-6.513
	c4.394-1.762,9.261-2.608,13.021,0.91l-0.002-0.004c4.849,10.924,15.791,18.543,28.514,18.543c17.221,0,31.181-13.961,31.181-31.182
	s-13.959-31.181-31.181-31.181c-13.992,0-25.832,9.216-29.78,21.907L1136.782,365.058z"/>
</svg>
