<?xml version="1.0" encoding="utf-8"?>
<!-- Generator: Adobe Illustrator 16.0.0, SVG Export Plug-In . SVG Version: 6.00 Build 0)  -->
<!DOCTYPE svg PUBLIC "-//W3C//DTD SVG 1.1//EN" "http://www.w3.org/Graphics/SVG/1.1/DTD/svg11.dtd">
<svg version="1.1" id="Layer_1" xmlns="http://www.w3.org/2000/svg" xmlns:xlink="http://www.w3.org/1999/xlink" x="0px" y="0px"
	 width="538.795px" height="419.426px" viewBox="0 0 538.795 419.426" enable-background="new 0 0 538.795 419.426"
	 xml:space="preserve">
<path d="M371.215,419.371c0,0,20.801,1.627,25.981-12.783c4.519-12.561,113.229-314.839,141.019-392.102
	C542.299,3.129,523.433,0,523.433,0L462.63,11.413l-57.091,9.032l-52.03,5.06l-54.562,5.42l-29.555,1.445l-27.171-1.445
	l-49.862-4.336l-60.342-5.781c0,0-29.25-3.371-58.173-7.949c-20.524-3.25-41.106-9.4-52.472-11.411
	C-6.004-3.402,0.334,10.814,1.349,13.651C28.145,88.563,138.2,396.111,143.081,407.652c5.562,13.141,27.962,11.674,27.962,11.674
	L371.215,419.371z"/>
</svg>
