<?xml version="1.0" encoding="utf-8"?>
<!-- Generator: Adobe Illustrator 16.0.0, SVG Export Plug-In . SVG Version: 6.00 Build 0)  -->
<!DOCTYPE svg PUBLIC "-//W3C//DTD SVG 1.1//EN" "http://www.w3.org/Graphics/SVG/1.1/DTD/svg11.dtd">
<svg version="1.1" id="Layer_1" xmlns="http://www.w3.org/2000/svg" xmlns:xlink="http://www.w3.org/1999/xlink" x="0px" y="0px"
	 width="1234.689px" height="480.084px" viewBox="0 0 1234.689 480.084" enable-background="new 0 0 1234.689 480.084"
	 xml:space="preserve">
<path fill="none" stroke="#000000" stroke-linejoin="round" stroke-miterlimit="10" d="M57.728,47.546
	c2.939-4.757,4.635-10.363,4.634-16.365C62.362,13.96,48.402,0,31.181,0C13.96,0,0,13.96,0,31.181
	c0,17.221,13.96,31.181,31.181,31.181c3.821,0,7.482-0.688,10.866-1.945c1.794-0.024,3.457,1.341,3.434,3.198
	c-1.255,4.042-1.79,9.196-1.979,15.229c-0.577,18.325,39.293,38.689,39.293,38.689l4.902,2.067
	c386.807,192.564,424.018,273.229,444.82,292.227c20.808,19,51.688,9.271,51.688,9.271s12.312-2.671,69.25-14.636
	C710.394,394.5,808.82,424.35,808.82,424.35s158.412,42.441,200.119,52.93c41.71,10.48,63.048-11.771,63.048-11.771l158.332-124.95
	c14.748-19.416-12.55-26.39-12.55-26.39s-315.168-113.109-336.312-121.42c-21.141-8.31-29.367-38.378-34.447-46.945
	c-5.079-8.568-18.759,0.938-18.759,0.938l-85.746,40.868l0.9,32.131l-13.178-30.607l-19.854-0.625
	c-26.771,0.686-77.266-10.074-77.266-10.074S82.724,59.06,65.281,54.687c-1.67-0.418-3.215-0.704-4.644-0.86
	C58.118,52.746,56.995,50.143,57.728,47.546z"/>
</svg>
