<?xml version="1.0" encoding="utf-8"?>
<!-- Generator: Adobe Illustrator 16.0.0, SVG Export Plug-In . SVG Version: 6.00 Build 0)  -->
<!DOCTYPE svg PUBLIC "-//W3C//DTD SVG 1.1//EN" "http://www.w3.org/Graphics/SVG/1.1/DTD/svg11.dtd">
<svg version="1.1" id="Layer_1" xmlns="http://www.w3.org/2000/svg" xmlns:xlink="http://www.w3.org/1999/xlink" x="0px" y="0px"
	 width="1236.744px" height="478.149px" viewBox="0 0 1236.744 478.149" enable-background="new 0 0 1236.744 478.149"
	 xml:space="preserve">
<path fill="none" stroke="#000000" stroke-linejoin="round" stroke-miterlimit="10" d="M1169.412,52.755
	C1151.969,57.128,601.58,176.5,601.58,176.5s-50.491,10.76-77.264,10.074l-19.854,0.625l-13.177,30.607l0.896-32.131l-85.744-40.868
	c0,0-13.68-9.507-18.761-0.938c-5.08,8.567-13.307,38.636-34.443,46.945C332.09,199.125,16.922,312.233,16.922,312.233
	s-27.298,6.975-12.553,26.385l158.333,124.953c0,0,21.338,22.256,63.047,11.77c41.708-10.48,200.12-52.926,200.12-52.926
	s98.427-29.853,155.366-17.889c56.937,11.967,69.249,14.637,69.249,14.637s30.885,9.729,51.688-9.271
	c20.803-18.997,58.016-99.661,444.82-292.227l4.9-2.067c0,0,39.867-20.364,39.293-38.689
	C1190.615,58.585,1186.855,48.384,1169.412,52.755z"/>
</svg>
