<?xml version="1.0" encoding="utf-8"?>
<!-- Generator: Adobe Illustrator 16.0.0, SVG Export Plug-In . SVG Version: 6.00 Build 0)  -->
<!DOCTYPE svg PUBLIC "-//W3C//DTD SVG 1.1//EN" "http://www.w3.org/Graphics/SVG/1.1/DTD/svg11.dtd">
<svg version="1.1" id="Layer_1" xmlns="http://www.w3.org/2000/svg" xmlns:xlink="http://www.w3.org/1999/xlink" x="0px" y="0px"
	 width="1163.148px" height="691.613px" viewBox="0 0 1163.148 691.613" enable-background="new 0 0 1163.148 691.613"
	 xml:space="preserve">
<path fill="none" stroke="#000000" stroke-linejoin="round" stroke-miterlimit="10" d="M1079.914,55.64
	c-20.867,11.282-170.174,88.058-213.406,108.66c-43.234,20.603-201.094,92.273-326.127,152.065
	C415.35,376.158,331.99,420.417,278.812,446.289c-53.179,25.869-169.024,92.607-212.668,122.836
	c-43.644,30.223-45.086,34.43-60.804,56.52c-15.717,22.095,6.925,30.402,20.752,32.261c13.831,1.854,218.303,28.811,246.336,33.01
	c28.031,4.195,44.617-11.6,53.864-17.857c17.899-12.112,61.689-40.131,125.009-62.881c63.318-22.75,126.485-34.521,146.428-38.887
	c19.94-4.367,38.264,3.367,52.115,8.305c13.856,4.938,25.36-5.399,32.399-18.537c7.04-13.135,46.786-79.952,82.804-122.196
	C801.062,396.613,883.84,314,924.641,268.875c40.807-45.123,155.08-178.943,174.111-202.787
	C1117.785,42.237,1100.781,44.359,1079.914,55.64z"/>
</svg>
