<?xml version="1.0" encoding="utf-8"?>
<!-- Generator: Adobe Illustrator 16.0.0, SVG Export Plug-In . SVG Version: 6.00 Build 0)  -->
<!DOCTYPE svg PUBLIC "-//W3C//DTD SVG 1.1//EN" "http://www.w3.org/Graphics/SVG/1.1/DTD/svg11.dtd">
<svg version="1.1" id="Layer_1" xmlns="http://www.w3.org/2000/svg" xmlns:xlink="http://www.w3.org/1999/xlink" x="0px" y="0px"
	 width="1163.148px" height="691.613px" viewBox="0 0 1163.148 691.613" enable-background="new 0 0 1163.148 691.613"
	 xml:space="preserve">
<path fill="none" stroke="#000000" stroke-linejoin="round" stroke-miterlimit="10" d="M1117.187,58.642
	c-9.663-0.922-17.961,9.038-24.5,14.883c-30.243,36.625-130.402,153.726-168.046,195.351
	C883.841,314,801.062,396.613,765.048,438.861c-36.019,42.244-75.765,109.062-82.805,122.195
	c-7.039,13.139-18.543,23.477-32.398,18.537c-13.853-4.938-32.175-12.672-52.115-8.305c-19.942,4.366-83.109,16.137-146.428,38.887
	c-63.319,22.75-107.109,50.77-125.009,62.881c-9.247,6.259-25.833,22.054-53.864,17.857c-28.033-4.199-232.506-31.156-246.336-33.01
	c-13.827-1.858-36.47-10.166-20.753-32.262c15.719-22.09,17.16-26.297,60.805-56.52c43.644-30.229,159.488-96.967,212.668-122.836
	c53.178-25.872,136.538-70.131,261.569-129.924c125.032-59.79,282.892-131.46,326.127-152.063
	c41.372-19.715,179.884-90.874,210.018-106.849c0.944-0.4,1.807-1.043,2.704-1.536c2.249-1.233,4.508-2.45,6.756-3.685
	c5.365-2.948,13.406-5.517,16.329-11.379c-0.992-3.044-1.528-6.294-1.528-9.669c0-17.221,13.96-31.181,31.182-31.181
	c17.221,0,31.182,13.96,31.182,31.181c0,17.221-13.961,31.181-31.182,31.181c-5.349,0-10.381-1.346-14.779-3.718L1117.187,58.642z"
	/>
</svg>
