<?xml version="1.0" encoding="utf-8"?>
<!-- Generator: Adobe Illustrator 16.0.0, SVG Export Plug-In . SVG Version: 6.00 Build 0)  -->
<!DOCTYPE svg PUBLIC "-//W3C//DTD SVG 1.1//EN" "http://www.w3.org/Graphics/SVG/1.1/DTD/svg11.dtd">
<svg version="1.1" id="Layer_1" xmlns="http://www.w3.org/2000/svg" xmlns:xlink="http://www.w3.org/1999/xlink" x="0px" y="0px"
	 width="3093.196px" height="1408.467px" viewBox="0 0 3093.196 1408.467" enable-background="new 0 0 3093.196 1408.467"
	 xml:space="preserve">
<path fill="none" stroke="#000000" stroke-linejoin="round" stroke-miterlimit="10" d="M2291.09,535.354
	c5.824-5.304,17.342,2.701,17.342,2.701l85.746,40.869l-0.896,32.131l13.176-30.604l19.855-0.625
	c26.773,0.686,77.268-10.074,77.268-10.074s550.389-119.373,567.832-123.746c17.443-4.371,21.203,5.83,21.768,24.153
	c0.578,18.325-39.293,38.688-39.293,38.688l-4.898,2.066c-386.807,192.565-424.018,273.229-444.818,292.227
	c-20.805,19-51.689,9.271-51.689,9.271s-12.311-2.672-69.25-14.637c-56.938-11.965-155.363,17.887-155.363,17.887
	s-158.412,42.444-200.121,52.928c-41.711,10.485-63.049-11.771-63.049-11.771l-158.332-124.953
	c-4.514-5.942-5.086-10.719-3.709-14.486l0.002,0.001c2.113-10.442-10.602-18.143-19.555-18.125v0.001
	c-5.939,0.757-14.143-0.507-31.584-7.501c-30.166-12.098-69.822-22.01-69.822-22.01l-11.188-3.488
	c-351.918-62.937-747.915,88.672-784.994,101.236c-37.076,12.563-25.648-14.523-25.648-14.523s18.072-34.93,40.406-80.685
	c22.339-45.758-26-13.369-26-13.369c-145.832,82.285-198.798,177.863-198.798,177.863l-2.729,3.364
	c-24.188,37.069-93.547,151.971-121.787,290.405c-11.03,71.285-8.273,124.358-7.541,137.004
	c1.569,27.087-26.945,32.137-26.945,32.137s-323.277,90.983-374.798,106.271c-51.52,15.283-29.209-44.229-29.209-44.229l2.133-5.414
	c94.932-303.947,81.621-520.613,79.974-550.371c-1.646-29.758,9.808-30.104,9.808-30.104s60.556-32.75,72.929-40.762
	c12.372-8.01,1.648-8.838,1.648-8.838s-79.556,36.371-87.911,38.146c-8.354,1.775-26.561-6.475-58.436-24.635
	c-31.875-18.162-181.99-80.204-216.761-92.931c-34.769-12.726-1.484-24.412-1.484-24.412l178.126-31.778l392.604-75.926
	c7.414-4.649,0.628-14.522-4.566-17.827l0.002,0.003c-4.157-2.157-5.582-4.857-5.582-4.857S419.333,270.406,409.761,256.931
	c-9.566-13.473-33.961-11.221-33.961-11.221s-158.699,9.291-212.221,8.586c-53.522-0.704,0.803-24.481,0.803-24.481
	s292.993-68.304,310.806-73.419c8.408-2.415,13.867-0.908,17.286,1.355v0.002c5.017,2.073,11.136,0.222,13.211-5.017l-0.002-0.001
	c2.546-6.759,12.298-9.462,12.298-9.462s422.131-95.064,604.448-132.572c182.319-37.506,344.992,35.627,344.992,35.627
	s331.808,145.309,346.507,151.369c0.135,0.055,0.266,0.11,0.395,0.166c0.348,0.462,2.838-0.057,3.305-0.196
	c1.037-0.311,2.098-0.924,2.807-1.755c1.369-1.61,1.096-4.013,1.529-5.83c0.414-1.734,0.895-3.453,1.494-5.132
	c4.375-12.243,16.008-20.465,29.141-20.465c17.221,0,31.182,13.96,31.182,31.181c0,17.221-13.961,31.181-31.182,31.181
	c-5.316,0-10.604-1.361-15.232-3.979c-2.242-1.268-4.229-2.756-6.107-4.511c-1.656-1.547-3.469-2.527-5.803-2.233
	c-1.459,0.183-4.559,0.923-5.443,2.247c-0.898,1.345-2.104,3.153-3.5,5.263c-2.527,8.792,10.682,16.498,17.99,13.118
	c8.523-6.692,22.793,6.171,22.793,6.171s401.195,268.598,410.521,273.672c3.945,2.148,4.896,5.002,4.686,7.579h-0.004
	c-1.301,9.116,11.113,17.514,18.6,11.187L2291.09,535.354z"/>
</svg>
