<?xml version="1.0" encoding="utf-8"?>
<!-- Generator: Adobe Illustrator 16.0.0, SVG Export Plug-In . SVG Version: 6.00 Build 0)  -->
<!DOCTYPE svg PUBLIC "-//W3C//DTD SVG 1.1//EN" "http://www.w3.org/Graphics/SVG/1.1/DTD/svg11.dtd">
<svg version="1.1" id="Layer_1" xmlns="http://www.w3.org/2000/svg" xmlns:xlink="http://www.w3.org/1999/xlink" x="0px" y="0px"
	 width="3084.527px" height="1408.465px" viewBox="0 0 3084.527 1408.465" enable-background="new 0 0 3084.527 1408.465"
	 xml:space="preserve">
<path d="M3070.165,622.41l-178.125-31.776l-1530.745-296.03c-37.78-7.423-60.604-11.849-62.635-12.112
	c-15.229-1.981-23.068-7.944-23.068-7.944s-15.057-20.701-22.679-34.304c-7.62-13.602-25.684,2.68-25.684,2.68
	S826.036,511.52,816.715,516.593c-9.321,5.074-1.946,14.082-1.946,14.082s16.042,26.08,19.286,32.672
	c3.244,6.596,22.119,14.415,22.119,14.415l81.298,29.161c0,0,240.859,85.88,251.854,88.881c10.993,3,13.521,8.043,43.688-4.054
	c30.166-12.098,69.821-22.01,69.821-22.01l11.188-3.489c351.917-62.938,747.911,88.671,784.991,101.238
	c37.078,12.562,25.647-14.523,25.647-14.523s-18.069-34.93-40.403-80.686c-22.338-45.76,26-13.368,26-13.368
	c145.834,82.285,198.797,177.863,198.797,177.863l2.729,3.364c24.188,37.07,93.547,151.974,121.787,290.406
	c11.031,71.285,8.272,124.357,7.541,137.004c-1.563,27.086,26.945,32.135,26.945,32.135s323.276,90.984,374.799,106.271
	c51.521,15.283,29.209-44.229,29.209-44.229l-2.133-5.412c-94.933-303.946-81.621-520.612-79.976-550.37
	c1.646-29.763-9.807-30.105-9.807-30.105s-60.557-32.75-72.93-40.762c-12.373-8.01-1.648-8.838-1.648-8.838
	s79.557,36.371,87.912,38.146c8.354,1.775,26.562-6.475,58.437-24.635c31.875-18.162,181.989-80.206,216.76-92.931
	C3103.448,634.097,3070.165,622.41,3070.165,622.41z M1174.273,702.486c0,0-315.168-113.11-336.309-121.42
	c-21.144-8.312-29.367-38.379-34.447-46.945c-5.081-8.568-18.759,0.938-18.759,0.938l-85.746,40.869l0.897,32.131l-13.177-30.604
	l-19.854-0.625c-26.773,0.686-77.269-10.074-77.269-10.074S39.228,447.378,21.785,443.005c-17.442-4.371-21.203,5.83-21.779,24.158
	c-0.576,18.324,39.293,38.688,39.293,38.688l4.902,2.066C431.009,700.482,468.219,781.146,489.02,800.144
	c20.805,19,51.689,9.271,51.689,9.271s12.312-2.672,69.25-14.637c56.938-11.964,155.363,17.887,155.363,17.887
	s158.412,42.44,200.12,52.928c41.709,10.482,63.047-11.771,63.047-11.771l158.332-124.953
	C1201.571,709.459,1174.273,702.486,1174.273,702.486z M2917.962,229.815c0,0-292.991-68.304-310.805-73.419
	c-17.807-5.113-22.383,7.361-22.383,7.361s-207.711,290.392-213.729,300.146c-6.023,9.757,4.162,14.263,4.162,14.263l107.147,20.758
	c19.779,3.073,25.041-6.896,25.041-6.896s155.611-221.619,165.187-235.094c9.567-13.473,33.961-11.221,33.961-11.221
	s158.696,9.291,212.221,8.586C2972.288,253.592,2917.962,229.815,2917.962,229.815z M2424.458,477.858
	c-3.721,0-6.731-3.018-6.731-6.732s3.014-6.732,6.731-6.732c3.719,0,6.73,3.018,6.73,6.732S2428.177,477.858,2424.458,477.858z
	 M2424.458,425.858c-3.721,0-6.731-3.018-6.731-6.732s3.014-6.732,6.731-6.732c3.719,0,6.73,3.015,6.73,6.732
	S2428.177,425.858,2424.458,425.858z M2481.028,477.858c-3.719,0-6.729-3.018-6.729-6.732s3.014-6.732,6.729-6.732
	c3.719,0,6.732,3.018,6.732,6.732S2484.747,477.858,2481.028,477.858z M2481.028,425.858c-3.719,0-6.729-3.018-6.729-6.732
	s3.014-6.732,6.729-6.732c3.719,0,6.732,3.015,6.732,6.732S2484.747,425.858,2481.028,425.858z M2481.028,373.858
	c-3.719,0-6.729-3.015-6.729-6.732s3.014-6.732,6.729-6.732c3.719,0,6.732,3.015,6.732,6.732S2484.747,373.858,2481.028,373.858z
	 M2537.599,425.858c-3.719,0-6.731-3.018-6.731-6.732s3.016-6.732,6.731-6.732s6.731,3.015,6.731,6.732
	S2541.317,425.858,2537.599,425.858z M2537.599,373.858c-3.719,0-6.731-3.015-6.731-6.732s3.016-6.732,6.731-6.732
	s6.731,3.015,6.731,6.732S2541.317,373.858,2537.599,373.858z M2537.599,321.858c-3.719,0-6.731-3.015-6.731-6.732
	s3.016-6.732,6.731-6.732s6.731,3.015,6.731,6.732S2541.317,321.858,2537.599,321.858z M2537.599,269.858
	c-3.719,0-6.731-3.015-6.731-6.732s3.016-6.732,6.731-6.732s6.731,3.015,6.731,6.732S2541.317,269.858,2537.599,269.858z
	 M2594.169,321.858c-3.721,0-6.731-3.015-6.731-6.732s3.014-6.732,6.731-6.732c3.719,0,6.73,3.015,6.73,6.732
	S2597.888,321.858,2594.169,321.858z M2594.169,269.858c-3.721,0-6.731-3.015-6.731-6.732s3.014-6.732,6.731-6.732
	c3.719,0,6.73,3.015,6.73,6.732S2597.888,269.858,2594.169,269.858z M2594.169,217.858c-3.721,0-6.731-3.014-6.731-6.732
	s3.014-6.732,6.731-6.732c3.719,0,6.73,3.014,6.73,6.732S2597.888,217.858,2594.169,217.858z M2650.739,217.858
	c-3.719,0-6.729-3.014-6.729-6.732s3.014-6.732,6.729-6.732c3.719,0,6.732,3.014,6.732,6.732S2654.458,217.858,2650.739,217.858z
	 M2707.31,217.858c-3.719,0-6.731-3.014-6.731-6.732s3.016-6.732,6.731-6.732s6.731,3.014,6.731,6.732
	S2711.028,217.858,2707.31,217.858z M2564.366,143.273c0,0-422.131-95.064-604.449-132.572
	c-182.317-37.506-344.991,35.627-344.991,35.627s-331.811,145.311-346.509,151.37c-14.7,6.061-7.801,18.112-7.801,18.112
	s24.158,35.876,26.642,42.444c2.479,6.57,17.939,13.523,17.939,13.523l1042.998,202.52c4.556,0.904,8.608-7,8.608-7
	s203.731-285.158,216.45-301.596C2585.974,149.264,2564.366,143.273,2564.366,143.273z M1293.052,217.858
	c-3.72,0-6.732-3.014-6.732-6.732s3.015-6.732,6.732-6.732s6.729,3.014,6.729,6.732S1296.771,217.858,1293.052,217.858z
	 M1349.622,269.858c-3.72,0-6.73-3.015-6.73-6.732s3.014-6.732,6.73-6.732c3.72,0,6.73,3.015,6.73,6.732
	S1353.342,269.858,1349.622,269.858z M1349.622,217.858c-3.72,0-6.73-3.014-6.73-6.732s3.014-6.732,6.73-6.732
	c3.72,0,6.731,3.014,6.731,6.732S1353.342,217.858,1349.622,217.858z M1406.192,269.858c-3.718,0-6.729-3.015-6.729-6.732
	s3.014-6.732,6.729-6.732c3.719,0,6.732,3.015,6.732,6.732S1409.909,269.858,1406.192,269.858z M1406.193,217.858
	c-3.719,0-6.731-3.014-6.731-6.732s3.016-6.732,6.731-6.732s6.732,3.014,6.732,6.732S1409.91,217.858,1406.193,217.858z
	 M1406.193,165.858c-3.719,0-6.731-3.014-6.731-6.732s3.016-6.732,6.731-6.732s6.732,3.014,6.732,6.732
	S1409.91,165.858,1406.193,165.858z M1462.763,269.858c-3.718,0-6.731-3.015-6.731-6.732s3.017-6.732,6.731-6.732
	c3.719,0,6.731,3.015,6.731,6.732S1466.482,269.858,1462.763,269.858z M1462.763,217.858c-3.72,0-6.732-3.014-6.732-6.732
	s3.017-6.732,6.732-6.732s6.731,3.014,6.731,6.732S1466.482,217.858,1462.763,217.858z M1462.763,165.858
	c-3.72,0-6.732-3.014-6.732-6.732s3.017-6.732,6.732-6.732s6.731,3.014,6.731,6.732S1466.482,165.858,1462.763,165.858z
	 M1519.333,269.858c-3.721,0-6.731-3.015-6.731-6.732s3.014-6.732,6.731-6.732c3.719,0,6.73,3.015,6.73,6.732
	S1523.052,269.858,1519.333,269.858z M1519.333,217.858c-3.721,0-6.731-3.014-6.731-6.732s3.014-6.732,6.731-6.732
	c3.719,0,6.73,3.014,6.73,6.732S1523.052,217.858,1519.333,217.858z M1519.333,165.858c-3.721,0-6.731-3.014-6.731-6.732
	s3.014-6.732,6.731-6.732c3.719,0,6.73,3.014,6.73,6.732S1523.052,165.858,1519.333,165.858z M1519.333,113.858
	c-3.721,0-6.731-3.014-6.731-6.732s3.014-6.732,6.731-6.732c3.719,0,6.73,3.014,6.73,6.732S1523.052,113.858,1519.333,113.858z
	 M1575.903,269.858c-3.719,0-6.729-3.015-6.729-6.732s3.014-6.732,6.729-6.732s6.732,3.015,6.732,6.732
	S1579.622,269.858,1575.903,269.858z M1575.903,217.858c-3.719,0-6.729-3.014-6.729-6.732s3.014-6.732,6.729-6.732
	s6.732,3.014,6.732,6.732S1579.622,217.858,1575.903,217.858z M1575.903,165.858c-3.719,0-6.729-3.014-6.729-6.732
	s3.014-6.732,6.729-6.732s6.732,3.014,6.732,6.732S1579.622,165.858,1575.903,165.858z M1575.903,113.858
	c-3.719,0-6.729-3.014-6.729-6.732s3.014-6.732,6.729-6.732s6.732,3.014,6.732,6.732S1579.622,113.858,1575.903,113.858z
	 M1632.474,321.858c-3.719,0-6.732-3.015-6.732-6.732s3.017-6.732,6.732-6.732s6.731,3.015,6.731,6.732
	S1636.192,321.858,1632.474,321.858z M1632.474,269.858c-3.719,0-6.732-3.015-6.732-6.732s3.017-6.732,6.732-6.732
	s6.731,3.015,6.731,6.732S1636.192,269.858,1632.474,269.858z M1632.474,217.858c-3.719,0-6.732-3.014-6.732-6.732
	s3.017-6.732,6.732-6.732s6.731,3.014,6.731,6.732S1636.192,217.858,1632.474,217.858z M1632.474,165.858
	c-3.719,0-6.732-3.014-6.732-6.732s3.017-6.732,6.732-6.732s6.731,3.014,6.731,6.732S1636.192,165.858,1632.474,165.858z
	 M1632.474,113.858c-3.719,0-6.732-3.014-6.732-6.732s3.017-6.732,6.732-6.732s6.731,3.014,6.731,6.732
	S1636.192,113.858,1632.474,113.858z M1632.474,61.858c-3.719,0-6.732-3.015-6.732-6.732s3.017-6.731,6.732-6.731
	s6.731,3.014,6.731,6.731S1636.192,61.858,1632.474,61.858z M1689.044,321.858c-3.721,0-6.731-3.015-6.731-6.732
	s3.014-6.732,6.731-6.732c3.719,0,6.73,3.015,6.73,6.732S1692.763,321.858,1689.044,321.858z M1689.044,269.858
	c-3.721,0-6.731-3.015-6.731-6.732s3.014-6.732,6.731-6.732c3.719,0,6.73,3.015,6.73,6.732S1692.763,269.858,1689.044,269.858z
	 M1689.044,217.858c-3.721,0-6.731-3.014-6.731-6.732s3.014-6.732,6.731-6.732c3.719,0,6.73,3.014,6.73,6.732
	S1692.763,217.858,1689.044,217.858z M1689.044,165.858c-3.721,0-6.731-3.014-6.731-6.732s3.014-6.732,6.731-6.732
	c3.719,0,6.73,3.014,6.73,6.732S1692.763,165.858,1689.044,165.858z M1689.044,113.858c-3.721,0-6.731-3.014-6.731-6.732
	s3.014-6.732,6.731-6.732c3.719,0,6.73,3.014,6.73,6.732S1692.763,113.858,1689.044,113.858z M1689.044,61.858
	c-3.721,0-6.731-3.015-6.731-6.732s3.014-6.731,6.731-6.731c3.719,0,6.73,3.014,6.73,6.731S1692.763,61.858,1689.044,61.858z
	 M1745.614,321.858c-3.719,0-6.729-3.015-6.729-6.732s3.014-6.732,6.729-6.732s6.732,3.015,6.732,6.732
	S1749.333,321.858,1745.614,321.858z M1745.614,269.858c-3.719,0-6.729-3.015-6.729-6.732s3.014-6.732,6.729-6.732
	s6.732,3.015,6.732,6.732S1749.333,269.858,1745.614,269.858z M1745.614,217.858c-3.719,0-6.729-3.014-6.729-6.732
	s3.014-6.732,6.729-6.732s6.732,3.014,6.732,6.732S1749.333,217.858,1745.614,217.858z M1745.614,165.858
	c-3.719,0-6.729-3.014-6.729-6.732s3.014-6.732,6.729-6.732s6.732,3.014,6.732,6.732S1749.333,165.858,1745.614,165.858z
	 M1745.614,113.858c-3.719,0-6.729-3.014-6.729-6.732s3.014-6.732,6.729-6.732s6.732,3.014,6.732,6.732
	S1749.333,113.858,1745.614,113.858z M1745.614,61.858c-3.719,0-6.729-3.015-6.729-6.732s3.014-6.731,6.729-6.731
	s6.732,3.014,6.732,6.731S1749.333,61.858,1745.614,61.858z M1802.185,321.858c-3.719,0-6.732-3.015-6.732-6.732
	s3.017-6.732,6.732-6.732s6.732,3.015,6.732,6.732S1805.903,321.858,1802.185,321.858z M1802.185,269.858
	c-3.719,0-6.732-3.015-6.732-6.732s3.017-6.732,6.732-6.732s6.732,3.015,6.732,6.732S1805.903,269.858,1802.185,269.858z
	 M1802.185,217.858c-3.719,0-6.732-3.014-6.732-6.732s3.017-6.732,6.732-6.732s6.732,3.014,6.732,6.732
	S1805.903,217.858,1802.185,217.858z M1802.185,165.858c-3.719,0-6.732-3.014-6.732-6.732s3.017-6.732,6.732-6.732
	s6.732,3.014,6.732,6.732S1805.903,165.858,1802.185,165.858z M1802.185,113.858c-3.719,0-6.732-3.014-6.732-6.732
	s3.017-6.732,6.732-6.732s6.732,3.014,6.732,6.732S1805.903,113.858,1802.185,113.858z M1802.185,61.858
	c-3.719,0-6.732-3.015-6.732-6.732s3.017-6.731,6.732-6.731s6.732,3.014,6.732,6.731S1805.903,61.858,1802.185,61.858z
	 M1858.756,321.858c-3.722,0-6.732-3.015-6.732-6.732s3.014-6.732,6.732-6.732c3.718,0,6.729,3.015,6.729,6.732
	S1862.474,321.858,1858.756,321.858z M1858.756,269.858c-3.722,0-6.732-3.015-6.732-6.732s3.014-6.732,6.732-6.732
	c3.718,0,6.729,3.015,6.729,6.732S1862.474,269.858,1858.756,269.858z M1858.756,217.858c-3.722,0-6.732-3.014-6.732-6.732
	s3.014-6.732,6.732-6.732c3.718,0,6.729,3.014,6.729,6.732S1862.474,217.858,1858.756,217.858z M1858.756,165.858
	c-3.722,0-6.732-3.014-6.732-6.732s3.014-6.732,6.732-6.732c3.718,0,6.729,3.014,6.729,6.732S1862.474,165.858,1858.756,165.858z
	 M1858.756,113.858c-3.722,0-6.732-3.014-6.732-6.732s3.014-6.732,6.732-6.732c3.718,0,6.729,3.014,6.729,6.732
	S1862.474,113.858,1858.756,113.858z M1858.756,61.858c-3.722,0-6.732-3.015-6.732-6.732s3.014-6.731,6.732-6.731
	c3.718,0,6.729,3.014,6.729,6.731S1862.474,61.858,1858.756,61.858z M1915.323,373.858c-3.719,0-6.729-3.015-6.729-6.732
	s3.014-6.732,6.729-6.732c3.719,0,6.732,3.015,6.732,6.732S1919.044,373.858,1915.323,373.858z M1915.323,321.858
	c-3.719,0-6.729-3.015-6.729-6.732s3.014-6.732,6.729-6.732c3.719,0,6.732,3.015,6.732,6.732S1919.044,321.858,1915.323,321.858z
	 M1915.323,269.858c-3.719,0-6.729-3.015-6.729-6.732s3.014-6.732,6.729-6.732c3.719,0,6.732,3.015,6.732,6.732
	S1919.044,269.858,1915.323,269.858z M1915.323,217.858c-3.719,0-6.729-3.014-6.729-6.732s3.014-6.732,6.729-6.732
	c3.719,0,6.732,3.014,6.732,6.732S1919.044,217.858,1915.323,217.858z M1915.323,165.858c-3.719,0-6.729-3.014-6.729-6.732
	s3.014-6.732,6.729-6.732c3.719,0,6.732,3.014,6.732,6.732S1919.044,165.858,1915.323,165.858z M1915.323,113.858
	c-3.719,0-6.729-3.014-6.729-6.732s3.014-6.732,6.729-6.732c3.719,0,6.732,3.014,6.732,6.732S1919.044,113.858,1915.323,113.858z
	 M1915.323,61.858c-3.719,0-6.729-3.015-6.729-6.732s3.014-6.731,6.729-6.731c3.719,0,6.732,3.014,6.732,6.731
	S1919.044,61.858,1915.323,61.858z M1971.895,373.858c-3.719,0-6.732-3.015-6.732-6.732s3.017-6.732,6.732-6.732
	s6.732,3.015,6.732,6.732S1975.614,373.858,1971.895,373.858z M1971.895,321.858c-3.719,0-6.732-3.015-6.732-6.732
	s3.017-6.732,6.732-6.732s6.732,3.015,6.732,6.732S1975.614,321.858,1971.895,321.858z M1971.895,269.858
	c-3.719,0-6.732-3.015-6.732-6.732s3.017-6.732,6.732-6.732s6.732,3.015,6.732,6.732S1975.614,269.858,1971.895,269.858z
	 M1971.895,217.858c-3.719,0-6.732-3.014-6.732-6.732s3.017-6.732,6.732-6.732s6.732,3.014,6.732,6.732
	S1975.614,217.858,1971.895,217.858z M1971.895,165.858c-3.719,0-6.732-3.014-6.732-6.732s3.017-6.732,6.732-6.732
	s6.732,3.014,6.732,6.732S1975.614,165.858,1971.895,165.858z M1971.895,113.858c-3.719,0-6.732-3.014-6.732-6.732
	s3.017-6.732,6.732-6.732s6.732,3.014,6.732,6.732S1975.614,113.858,1971.895,113.858z M1971.895,61.858
	c-3.719,0-6.732-3.015-6.732-6.732s3.017-6.731,6.732-6.731s6.732,3.014,6.732,6.731S1975.614,61.858,1971.895,61.858z
	 M2028.467,373.858c-3.72,0-6.732-3.015-6.732-6.732s3.014-6.732,6.732-6.732c3.718,0,6.729,3.015,6.729,6.732
	S2032.185,373.858,2028.467,373.858z M2028.467,321.858c-3.72,0-6.732-3.015-6.732-6.732s3.014-6.732,6.732-6.732
	c3.718,0,6.729,3.015,6.729,6.732S2032.185,321.858,2028.467,321.858z M2028.467,269.858c-3.72,0-6.732-3.015-6.732-6.732
	s3.014-6.732,6.732-6.732c3.718,0,6.729,3.015,6.729,6.732S2032.185,269.858,2028.467,269.858z M2028.467,217.858
	c-3.72,0-6.732-3.014-6.732-6.732s3.014-6.732,6.732-6.732c3.718,0,6.729,3.014,6.729,6.732S2032.185,217.858,2028.467,217.858z
	 M2028.467,165.858c-3.72,0-6.732-3.014-6.732-6.732s3.014-6.732,6.732-6.732c3.718,0,6.729,3.014,6.729,6.732
	S2032.185,165.858,2028.467,165.858z M2028.467,113.858c-3.72,0-6.732-3.014-6.732-6.732s3.014-6.732,6.732-6.732
	c3.718,0,6.729,3.014,6.729,6.732S2032.185,113.858,2028.467,113.858z M2028.467,61.858c-3.72,0-6.732-3.015-6.732-6.732
	s3.014-6.731,6.732-6.731c3.718,0,6.729,3.014,6.729,6.731S2032.185,61.858,2028.467,61.858z M2085.036,373.858
	c-3.721,0-6.731-3.015-6.731-6.732s3.014-6.732,6.731-6.732c3.719,0,6.73,3.015,6.73,6.732S2088.755,373.858,2085.036,373.858z
	 M2085.036,321.858c-3.721,0-6.731-3.015-6.731-6.732s3.014-6.732,6.731-6.732c3.719,0,6.73,3.015,6.73,6.732
	S2088.755,321.858,2085.036,321.858z M2085.036,269.858c-3.721,0-6.731-3.015-6.731-6.732s3.014-6.732,6.731-6.732
	c3.719,0,6.73,3.015,6.73,6.732S2088.755,269.858,2085.036,269.858z M2085.036,217.858c-3.721,0-6.731-3.014-6.731-6.732
	s3.014-6.732,6.731-6.732c3.719,0,6.73,3.014,6.73,6.732S2088.755,217.858,2085.036,217.858z M2085.036,165.858
	c-3.721,0-6.731-3.014-6.731-6.732s3.014-6.732,6.731-6.732c3.719,0,6.73,3.014,6.73,6.732S2088.755,165.858,2085.036,165.858z
	 M2085.036,113.858c-3.721,0-6.731-3.014-6.731-6.732s3.014-6.732,6.731-6.732c3.719,0,6.73,3.014,6.73,6.732
	S2088.755,113.858,2085.036,113.858z M2085.036,61.858c-3.721,0-6.731-3.015-6.731-6.732s3.014-6.731,6.731-6.731
	c3.719,0,6.73,3.014,6.73,6.731S2088.755,61.858,2085.036,61.858z M2141.606,373.858c-3.719,0-6.73-3.015-6.73-6.732
	s3.015-6.732,6.73-6.732s6.73,3.015,6.73,6.732S2145.323,373.858,2141.606,373.858z M2141.606,321.858
	c-3.719,0-6.73-3.015-6.73-6.732s3.015-6.732,6.73-6.732s6.73,3.015,6.73,6.732S2145.323,321.858,2141.606,321.858z
	 M2141.606,269.858c-3.719,0-6.73-3.015-6.73-6.732s3.015-6.732,6.73-6.732s6.73,3.015,6.73,6.732
	S2145.323,269.858,2141.606,269.858z M2141.606,217.858c-3.719,0-6.73-3.014-6.73-6.732s3.015-6.732,6.73-6.732
	s6.73,3.014,6.73,6.732S2145.323,217.858,2141.606,217.858z M2141.606,165.858c-3.719,0-6.73-3.014-6.73-6.732
	s3.015-6.732,6.73-6.732s6.73,3.014,6.73,6.732S2145.323,165.858,2141.606,165.858z M2141.606,113.858
	c-3.719,0-6.73-3.014-6.73-6.732s3.015-6.732,6.73-6.732s6.73,3.014,6.73,6.732S2145.323,113.858,2141.606,113.858z
	 M2198.177,425.858c-3.72,0-6.732-3.018-6.732-6.732s3.015-6.732,6.732-6.732s6.729,3.015,6.729,6.732
	S2201.895,425.858,2198.177,425.858z M2198.177,373.858c-3.72,0-6.732-3.015-6.732-6.732s3.015-6.732,6.732-6.732
	s6.729,3.015,6.729,6.732S2201.895,373.858,2198.177,373.858z M2198.177,321.858c-3.72,0-6.732-3.015-6.732-6.732
	s3.015-6.732,6.732-6.732s6.729,3.015,6.729,6.732S2201.895,321.858,2198.177,321.858z M2198.177,269.858
	c-3.72,0-6.732-3.015-6.732-6.732s3.015-6.732,6.732-6.732s6.729,3.015,6.729,6.732S2201.895,269.858,2198.177,269.858z
	 M2198.177,217.858c-3.72,0-6.732-3.014-6.732-6.732s3.015-6.732,6.732-6.732s6.729,3.014,6.729,6.732
	S2201.895,217.858,2198.177,217.858z M2198.177,165.858c-3.72,0-6.732-3.014-6.732-6.732s3.015-6.732,6.732-6.732
	s6.729,3.014,6.729,6.732S2201.895,165.858,2198.177,165.858z M2198.177,113.858c-3.72,0-6.732-3.014-6.732-6.732
	s3.015-6.732,6.732-6.732s6.729,3.014,6.729,6.732S2201.895,113.858,2198.177,113.858z M2254.747,425.858
	c-3.721,0-6.731-3.018-6.731-6.732s3.014-6.732,6.731-6.732c3.719,0,6.73,3.015,6.73,6.732S2258.467,425.858,2254.747,425.858z
	 M2254.747,373.858c-3.721,0-6.731-3.015-6.731-6.732s3.014-6.732,6.731-6.732c3.719,0,6.73,3.015,6.73,6.732
	S2258.467,373.858,2254.747,373.858z M2254.747,321.858c-3.721,0-6.731-3.015-6.731-6.732s3.014-6.732,6.731-6.732
	c3.719,0,6.73,3.015,6.73,6.732S2258.467,321.858,2254.747,321.858z M2254.747,269.858c-3.721,0-6.731-3.015-6.731-6.732
	s3.014-6.732,6.731-6.732c3.719,0,6.73,3.015,6.73,6.732S2258.467,269.858,2254.747,269.858z M2254.747,217.858
	c-3.721,0-6.731-3.014-6.731-6.732s3.014-6.732,6.731-6.732c3.719,0,6.73,3.014,6.73,6.732S2258.467,217.858,2254.747,217.858z
	 M2254.747,165.858c-3.721,0-6.731-3.014-6.731-6.732s3.014-6.732,6.731-6.732c3.719,0,6.73,3.014,6.73,6.732
	S2258.467,165.858,2254.747,165.858z M2254.747,113.858c-3.721,0-6.731-3.014-6.731-6.732s3.014-6.732,6.731-6.732
	c3.719,0,6.73,3.014,6.73,6.732S2258.467,113.858,2254.747,113.858z M2311.317,425.858c-3.719,0-6.73-3.018-6.73-6.732
	s3.015-6.732,6.73-6.732c3.718,0,6.732,3.015,6.732,6.732S2315.036,425.858,2311.317,425.858z M2311.317,373.858
	c-3.719,0-6.73-3.015-6.73-6.732s3.015-6.732,6.73-6.732c3.718,0,6.732,3.015,6.732,6.732S2315.036,373.858,2311.317,373.858z
	 M2311.317,321.858c-3.719,0-6.73-3.015-6.73-6.732s3.015-6.732,6.73-6.732c3.718,0,6.732,3.015,6.732,6.732
	S2315.036,321.858,2311.317,321.858z M2311.317,269.858c-3.719,0-6.73-3.015-6.73-6.732s3.015-6.732,6.73-6.732
	c3.718,0,6.732,3.015,6.732,6.732S2315.036,269.858,2311.317,269.858z M2311.317,217.858c-3.719,0-6.73-3.014-6.73-6.732
	s3.015-6.732,6.73-6.732c3.718,0,6.732,3.014,6.732,6.732S2315.036,217.858,2311.317,217.858z M2311.317,165.858
	c-3.719,0-6.73-3.014-6.73-6.732s3.015-6.732,6.73-6.732c3.718,0,6.732,3.014,6.732,6.732S2315.036,165.858,2311.317,165.858z
	 M2311.317,113.858c-3.719,0-6.73-3.014-6.73-6.732s3.015-6.732,6.73-6.732c3.718,0,6.732,3.014,6.732,6.732
	S2315.036,113.858,2311.317,113.858z M2367.888,425.858c-3.72,0-6.732-3.018-6.732-6.732s3.015-6.732,6.732-6.732
	s6.729,3.015,6.729,6.732S2371.606,425.858,2367.888,425.858z M2367.888,373.858c-3.72,0-6.732-3.015-6.732-6.732
	s3.015-6.732,6.732-6.732s6.729,3.015,6.729,6.732S2371.606,373.858,2367.888,373.858z M2367.888,321.858
	c-3.72,0-6.732-3.015-6.732-6.732s3.015-6.732,6.732-6.732s6.729,3.015,6.729,6.732S2371.606,321.858,2367.888,321.858z
	 M2367.888,269.858c-3.72,0-6.732-3.015-6.732-6.732s3.015-6.732,6.732-6.732s6.729,3.015,6.729,6.732
	S2371.606,269.858,2367.888,269.858z M2367.888,217.858c-3.72,0-6.732-3.014-6.732-6.732s3.015-6.732,6.732-6.732
	s6.729,3.014,6.729,6.732S2371.606,217.858,2367.888,217.858z M2367.888,165.858c-3.72,0-6.732-3.014-6.732-6.732
	s3.015-6.732,6.732-6.732s6.729,3.014,6.729,6.732S2371.606,165.858,2367.888,165.858z M2424.458,321.858
	c-3.721,0-6.731-3.015-6.731-6.732s3.014-6.732,6.731-6.732c3.719,0,6.73,3.015,6.73,6.732S2428.177,321.858,2424.458,321.858z
	 M2424.458,269.858c-3.721,0-6.731-3.015-6.731-6.732s3.014-6.732,6.731-6.732c3.719,0,6.73,3.015,6.73,6.732
	S2428.177,269.858,2424.458,269.858z M2424.458,217.858c-3.721,0-6.731-3.014-6.731-6.732s3.014-6.732,6.731-6.732
	c3.719,0,6.73,3.014,6.73,6.732S2428.177,217.858,2424.458,217.858z M2424.458,165.858c-3.721,0-6.731-3.014-6.731-6.732
	s3.014-6.732,6.731-6.732c3.719,0,6.73,3.014,6.73,6.732S2428.177,165.858,2424.458,165.858z M2481.028,269.858
	c-3.719,0-6.729-3.015-6.729-6.732s3.014-6.732,6.729-6.732c3.719,0,6.732,3.015,6.732,6.732S2484.747,269.858,2481.028,269.858z
	 M2481.028,217.858c-3.719,0-6.729-3.014-6.729-6.732s3.014-6.732,6.729-6.732c3.719,0,6.732,3.014,6.732,6.732
	S2484.747,217.858,2481.028,217.858z M2481.028,165.858c-3.719,0-6.729-3.014-6.729-6.732s3.014-6.732,6.729-6.732
	c3.719,0,6.732,3.014,6.732,6.732S2484.747,165.858,2481.028,165.858z M2537.599,165.858c-3.719,0-6.731-3.014-6.731-6.732
	s3.016-6.732,6.731-6.732s6.731,3.014,6.731,6.732S2541.317,165.858,2537.599,165.858z"/>
</svg>
