<?xml version="1.0" encoding="utf-8"?>
<!-- Generator: Adobe Illustrator 16.0.0, SVG Export Plug-In . SVG Version: 6.00 Build 0)  -->
<!DOCTYPE svg PUBLIC "-//W3C//DTD SVG 1.1//EN" "http://www.w3.org/Graphics/SVG/1.1/DTD/svg11.dtd">
<svg version="1.1" id="Layer_1" xmlns="http://www.w3.org/2000/svg" xmlns:xlink="http://www.w3.org/1999/xlink" x="0px" y="0px"
	 width="3084.531px" height="1408.467px" viewBox="0 0 3084.531 1408.467" enable-background="new 0 0 3084.531 1408.467"
	 xml:space="preserve">
<path fill="none" stroke="#000000" stroke-linejoin="round" stroke-miterlimit="10" d="M2424.458,477.858
	c-3.719,0-6.731-3.019-6.731-6.732s3.018-6.731,6.731-6.731c3.719,0,6.731,3.018,6.731,6.731S2428.177,477.858,2424.458,477.858z
	 M2424.458,425.858c-3.719,0-6.731-3.019-6.731-6.732s3.018-6.732,6.731-6.732c3.719,0,6.731,3.018,6.731,6.732
	S2428.177,425.858,2424.458,425.858z M2481.029,477.858c-3.719,0-6.732-3.019-6.732-6.732s3.014-6.731,6.732-6.731
	c3.718,0,6.729,3.018,6.729,6.731S2484.748,477.858,2481.029,477.858z M2481.029,425.858c-3.719,0-6.732-3.019-6.732-6.732
	s3.014-6.732,6.732-6.732c3.718,0,6.729,3.018,6.729,6.732S2484.748,425.858,2481.029,425.858z M2481.029,360.394
	c3.718,0,6.731,3.014,6.731,6.732s-3.014,6.732-6.731,6.732c-3.719,0-6.732-3.014-6.732-6.732S2477.311,360.394,2481.029,360.394z
	 M2537.6,425.858c-3.72,0-6.729-3.019-6.729-6.732s3.014-6.732,6.729-6.732c3.721,0,6.731,3.018,6.731,6.732
	S2541.318,425.858,2537.6,425.858z M2537.6,373.858c-3.72,0-6.729-3.015-6.729-6.732s3.014-6.732,6.729-6.732
	c3.721,0,6.731,3.015,6.731,6.732S2541.318,373.858,2537.6,373.858z M2537.6,321.858c-3.72,0-6.729-3.015-6.729-6.732
	s3.014-6.732,6.729-6.732c3.721,0,6.731,3.015,6.731,6.732S2541.318,321.858,2537.6,321.858z M2537.6,269.858
	c-3.72,0-6.729-3.015-6.729-6.732s3.014-6.732,6.729-6.732c3.721,0,6.731,3.015,6.731,6.732S2541.318,269.858,2537.6,269.858z
	 M2594.169,308.394c3.718,0,6.731,3.014,6.731,6.732s-3.014,6.732-6.731,6.732s-6.731-3.014-6.731-6.732
	S2590.451,308.394,2594.169,308.394z M2594.169,256.394c3.718,0,6.731,3.014,6.731,6.732s-3.014,6.732-6.731,6.732
	s-6.731-3.014-6.731-6.732S2590.451,256.394,2594.169,256.394z M2594.169,204.394c3.718,0,6.731,3.014,6.731,6.732
	s-3.014,6.732-6.731,6.732s-6.731-3.014-6.731-6.732S2590.451,204.394,2594.169,204.394z M2650.74,204.394
	c3.718,0,6.731,3.014,6.731,6.732s-3.014,6.732-6.731,6.732c-3.719,0-6.732-3.014-6.732-6.732S2647.021,204.394,2650.74,204.394z
	 M2707.311,217.858c-3.72,0-6.729-3.014-6.729-6.732s3.014-6.732,6.729-6.732c3.721,0,6.731,3.014,6.731,6.732
	S2711.029,217.858,2707.311,217.858z M1293.053,204.394c3.719,0,6.732,3.014,6.732,6.732s-3.014,6.732-6.732,6.732
	c-3.718,0-6.731-3.014-6.731-6.732S1289.335,204.394,1293.053,204.394z M1349.623,256.394c3.718,0,6.732,3.014,6.732,6.732
	s-3.015,6.732-6.732,6.732s-6.732-3.014-6.732-6.732S1345.905,256.394,1349.623,256.394z M1349.624,204.394
	c3.718,0,6.732,3.014,6.732,6.732s-3.015,6.732-6.732,6.732s-6.732-3.014-6.732-6.732S1345.906,204.394,1349.624,204.394z
	 M1406.193,269.858c-3.722,0-6.731-3.015-6.731-6.732s3.015-6.732,6.731-6.732c3.719,0,6.729,3.015,6.729,6.732
	S1409.912,269.858,1406.193,269.858z M1406.194,217.858c-3.723,0-6.732-3.014-6.732-6.732s3.014-6.732,6.732-6.732
	c3.718,0,6.729,3.014,6.729,6.732S1409.913,217.858,1406.194,217.858z M1406.194,165.858c-3.723,0-6.732-3.014-6.732-6.732
	s3.014-6.732,6.732-6.732c3.718,0,6.729,3.014,6.729,6.732S1409.913,165.858,1406.194,165.858z M1462.764,269.858
	c-3.718,0-6.729-3.015-6.729-6.732s3.014-6.732,6.729-6.732c3.723,0,6.733,3.015,6.733,6.732S1466.483,269.858,1462.764,269.858z
	 M1462.764,217.858c-3.719,0-6.729-3.014-6.729-6.732s3.014-6.732,6.729-6.732c3.722,0,6.732,3.014,6.732,6.732
	S1466.483,217.858,1462.764,217.858z M1462.764,165.858c-3.719,0-6.729-3.014-6.729-6.732s3.014-6.732,6.729-6.732
	c3.722,0,6.732,3.014,6.732,6.732S1466.483,165.858,1462.764,165.858z M1519.334,256.394c3.718,0,6.732,3.014,6.732,6.732
	s-3.015,6.732-6.732,6.732s-6.732-3.014-6.732-6.732S1515.616,256.394,1519.334,256.394z M1519.334,204.394
	c3.718,0,6.732,3.014,6.732,6.732s-3.015,6.732-6.732,6.732s-6.732-3.014-6.732-6.732S1515.616,204.394,1519.334,204.394z
	 M1519.334,152.394c3.718,0,6.732,3.014,6.732,6.732s-3.015,6.732-6.732,6.732s-6.732-3.014-6.732-6.732
	S1515.616,152.394,1519.334,152.394z M1519.334,100.394c3.718,0,6.732,3.014,6.732,6.732s-3.015,6.732-6.732,6.732
	s-6.732-3.014-6.732-6.732S1515.616,100.394,1519.334,100.394z M1575.904,256.394c3.718,0,6.731,3.014,6.731,6.732
	s-3.014,6.732-6.731,6.732c-3.719,0-6.732-3.014-6.732-6.732S1572.186,256.394,1575.904,256.394z M1575.904,204.394
	c3.718,0,6.731,3.014,6.731,6.732s-3.014,6.732-6.731,6.732c-3.719,0-6.732-3.014-6.732-6.732S1572.186,204.394,1575.904,204.394z
	 M1575.904,152.394c3.718,0,6.731,3.014,6.731,6.732s-3.014,6.732-6.731,6.732c-3.719,0-6.732-3.014-6.732-6.732
	S1572.186,152.394,1575.904,152.394z M1575.904,100.394c3.718,0,6.731,3.014,6.731,6.732s-3.014,6.732-6.731,6.732
	c-3.719,0-6.732-3.014-6.732-6.732S1572.186,100.394,1575.904,100.394z M1632.474,321.858c-3.719,0-6.729-3.015-6.729-6.732
	s3.014-6.732,6.729-6.732c3.722,0,6.732,3.015,6.732,6.732S1636.193,321.858,1632.474,321.858z M1632.474,269.858
	c-3.719,0-6.729-3.015-6.729-6.732s3.014-6.732,6.729-6.732c3.722,0,6.732,3.015,6.732,6.732S1636.193,269.858,1632.474,269.858z
	 M1632.474,217.858c-3.719,0-6.729-3.014-6.729-6.732s3.014-6.732,6.729-6.732c3.722,0,6.732,3.014,6.732,6.732
	S1636.193,217.858,1632.474,217.858z M1632.474,165.858c-3.719,0-6.729-3.014-6.729-6.732s3.014-6.732,6.729-6.732
	c3.722,0,6.732,3.014,6.732,6.732S1636.193,165.858,1632.474,165.858z M1632.474,113.858c-3.719,0-6.729-3.014-6.729-6.732
	s3.014-6.732,6.729-6.732c3.722,0,6.732,3.014,6.732,6.732S1636.193,113.858,1632.474,113.858z M1632.474,61.858
	c-3.719,0-6.729-3.014-6.729-6.732s3.014-6.732,6.729-6.732c3.722,0,6.732,3.014,6.732,6.732S1636.193,61.858,1632.474,61.858z
	 M1689.044,308.394c3.718,0,6.732,3.014,6.732,6.732s-3.015,6.732-6.732,6.732s-6.732-3.014-6.732-6.732
	S1685.326,308.394,1689.044,308.394z M1689.044,256.394c3.718,0,6.732,3.014,6.732,6.732s-3.015,6.732-6.732,6.732
	s-6.732-3.014-6.732-6.732S1685.326,256.394,1689.044,256.394z M1689.044,204.394c3.718,0,6.732,3.014,6.732,6.732
	s-3.015,6.732-6.732,6.732s-6.732-3.014-6.732-6.732S1685.326,204.394,1689.044,204.394z M1689.044,152.394
	c3.718,0,6.732,3.014,6.732,6.732s-3.015,6.732-6.732,6.732s-6.732-3.014-6.732-6.732S1685.326,152.394,1689.044,152.394z
	 M1689.044,100.394c3.718,0,6.732,3.014,6.732,6.732s-3.015,6.732-6.732,6.732s-6.732-3.014-6.732-6.732
	S1685.326,100.394,1689.044,100.394z M1689.044,48.394c3.718,0,6.732,3.014,6.732,6.732s-3.015,6.732-6.732,6.732
	s-6.732-3.014-6.732-6.732S1685.326,48.394,1689.044,48.394z M1745.615,308.394c3.718,0,6.731,3.014,6.731,6.732
	s-3.014,6.732-6.731,6.732c-3.719,0-6.732-3.014-6.732-6.732S1741.896,308.394,1745.615,308.394z M1745.615,256.394
	c3.718,0,6.731,3.014,6.731,6.732s-3.014,6.732-6.731,6.732c-3.719,0-6.732-3.014-6.732-6.732S1741.896,256.394,1745.615,256.394z
	 M1745.615,204.394c3.718,0,6.731,3.014,6.731,6.732s-3.014,6.732-6.731,6.732c-3.719,0-6.732-3.014-6.732-6.732
	S1741.896,204.394,1745.615,204.394z M1745.615,152.394c3.718,0,6.731,3.014,6.731,6.732s-3.014,6.732-6.731,6.732
	c-3.719,0-6.732-3.014-6.732-6.732S1741.896,152.394,1745.615,152.394z M1745.615,100.394c3.718,0,6.731,3.014,6.731,6.732
	s-3.014,6.732-6.731,6.732c-3.719,0-6.732-3.014-6.732-6.732S1741.896,100.394,1745.615,100.394z M1745.615,48.394
	c3.718,0,6.731,3.014,6.731,6.732s-3.014,6.732-6.731,6.732c-3.719,0-6.732-3.014-6.732-6.732S1741.896,48.394,1745.615,48.394z
	 M1802.186,321.858c-3.72,0-6.729-3.015-6.729-6.732s3.014-6.732,6.729-6.732c3.721,0,6.731,3.015,6.731,6.732
	S1805.904,321.858,1802.186,321.858z M1802.186,269.858c-3.72,0-6.729-3.015-6.729-6.732s3.014-6.732,6.729-6.732
	c3.721,0,6.731,3.015,6.731,6.732S1805.904,269.858,1802.186,269.858z M1802.186,217.858c-3.72,0-6.729-3.014-6.729-6.732
	s3.014-6.732,6.729-6.732c3.721,0,6.731,3.014,6.731,6.732S1805.904,217.858,1802.186,217.858z M1802.186,165.858
	c-3.72,0-6.729-3.014-6.729-6.732s3.014-6.732,6.729-6.732c3.721,0,6.731,3.014,6.731,6.732S1805.904,165.858,1802.186,165.858z
	 M1802.186,113.858c-3.72,0-6.729-3.014-6.729-6.732s3.014-6.732,6.729-6.732c3.721,0,6.731,3.014,6.731,6.732
	S1805.904,113.858,1802.186,113.858z M1802.186,61.858c-3.72,0-6.729-3.014-6.729-6.732s3.014-6.732,6.729-6.732
	c3.721,0,6.731,3.014,6.731,6.732S1805.904,61.858,1802.186,61.858z M1858.755,308.394c3.718,0,6.732,3.014,6.732,6.732
	s-3.015,6.732-6.732,6.732s-6.731-3.014-6.731-6.732S1855.037,308.394,1858.755,308.394z M1858.755,256.394
	c3.718,0,6.732,3.014,6.732,6.732s-3.015,6.732-6.732,6.732s-6.731-3.014-6.731-6.732S1855.037,256.394,1858.755,256.394z
	 M1858.755,204.394c3.718,0,6.732,3.014,6.732,6.732s-3.015,6.732-6.732,6.732s-6.731-3.014-6.731-6.732
	S1855.037,204.394,1858.755,204.394z M1858.755,152.394c3.718,0,6.732,3.014,6.732,6.732s-3.015,6.732-6.732,6.732
	s-6.731-3.014-6.731-6.732S1855.037,152.394,1858.755,152.394z M1858.755,100.394c3.718,0,6.732,3.014,6.732,6.732
	s-3.015,6.732-6.732,6.732s-6.731-3.014-6.731-6.732S1855.037,100.394,1858.755,100.394z M1858.755,48.394
	c3.718,0,6.732,3.014,6.732,6.732s-3.015,6.732-6.732,6.732s-6.731-3.014-6.731-6.732S1855.037,48.394,1858.755,48.394z
	 M1915.326,360.394c3.718,0,6.732,3.014,6.732,6.732s-3.015,6.732-6.732,6.732s-6.732-3.014-6.732-6.732
	S1911.608,360.394,1915.326,360.394z M1915.326,308.394c3.718,0,6.732,3.014,6.732,6.732s-3.015,6.732-6.732,6.732
	s-6.732-3.014-6.732-6.732S1911.608,308.394,1915.326,308.394z M1915.326,256.394c3.718,0,6.732,3.014,6.732,6.732
	s-3.015,6.732-6.732,6.732s-6.732-3.014-6.732-6.732S1911.608,256.394,1915.326,256.394z M1915.326,204.394
	c3.718,0,6.732,3.014,6.732,6.732s-3.015,6.732-6.732,6.732s-6.732-3.014-6.732-6.732S1911.608,204.394,1915.326,204.394z
	 M1915.326,152.394c3.718,0,6.732,3.014,6.732,6.732s-3.015,6.732-6.732,6.732s-6.732-3.014-6.732-6.732
	S1911.608,152.394,1915.326,152.394z M1915.326,100.394c3.718,0,6.732,3.014,6.732,6.732s-3.015,6.732-6.732,6.732
	s-6.732-3.014-6.732-6.732S1911.608,100.394,1915.326,100.394z M1915.326,48.394c3.718,0,6.732,3.014,6.732,6.732
	s-3.015,6.732-6.732,6.732s-6.732-3.014-6.732-6.732S1911.608,48.394,1915.326,48.394z M1971.896,360.394
	c3.718,0,6.731,3.014,6.731,6.732s-3.014,6.732-6.731,6.732c-3.719,0-6.732-3.014-6.732-6.732S1968.178,360.394,1971.896,360.394z
	 M1971.896,308.394c3.718,0,6.731,3.014,6.731,6.732s-3.014,6.732-6.731,6.732c-3.719,0-6.732-3.014-6.732-6.732
	S1968.178,308.394,1971.896,308.394z M1971.896,256.394c3.718,0,6.731,3.014,6.731,6.732s-3.014,6.732-6.731,6.732
	c-3.719,0-6.732-3.014-6.732-6.732S1968.178,256.394,1971.896,256.394z M1971.896,204.394c3.718,0,6.731,3.014,6.731,6.732
	s-3.014,6.732-6.731,6.732c-3.719,0-6.732-3.014-6.732-6.732S1968.178,204.394,1971.896,204.394z M1971.896,152.394
	c3.718,0,6.731,3.014,6.731,6.732s-3.014,6.732-6.731,6.732c-3.719,0-6.732-3.014-6.732-6.732S1968.178,152.394,1971.896,152.394z
	 M1971.896,100.394c3.718,0,6.731,3.014,6.731,6.732s-3.014,6.732-6.731,6.732c-3.719,0-6.732-3.014-6.732-6.732
	S1968.178,100.394,1971.896,100.394z M1971.896,48.394c3.718,0,6.731,3.014,6.731,6.732s-3.014,6.732-6.731,6.732
	c-3.719,0-6.732-3.014-6.732-6.732S1968.178,48.394,1971.896,48.394z M2028.466,360.394c3.718,0,6.732,3.014,6.732,6.732
	s-3.015,6.732-6.732,6.732s-6.731-3.014-6.731-6.732S2024.748,360.394,2028.466,360.394z M2028.466,308.394
	c3.718,0,6.732,3.014,6.732,6.732s-3.015,6.732-6.732,6.732s-6.731-3.014-6.731-6.732S2024.748,308.394,2028.466,308.394z
	 M2028.466,256.394c3.718,0,6.732,3.014,6.732,6.732s-3.015,6.732-6.732,6.732s-6.731-3.014-6.731-6.732
	S2024.748,256.394,2028.466,256.394z M2028.466,204.394c3.718,0,6.732,3.014,6.732,6.732s-3.015,6.732-6.732,6.732
	s-6.731-3.014-6.731-6.732S2024.748,204.394,2028.466,204.394z M2028.466,152.394c3.718,0,6.732,3.014,6.732,6.732
	s-3.015,6.732-6.732,6.732s-6.731-3.014-6.731-6.732S2024.748,152.394,2028.466,152.394z M2028.466,100.394
	c3.718,0,6.732,3.014,6.732,6.732s-3.015,6.732-6.732,6.732s-6.731-3.014-6.731-6.732S2024.748,100.394,2028.466,100.394z
	 M2028.466,48.394c3.718,0,6.732,3.014,6.732,6.732s-3.015,6.732-6.732,6.732s-6.731-3.014-6.731-6.732
	S2024.748,48.394,2028.466,48.394z M2085.037,360.394c3.718,0,6.732,3.014,6.732,6.732s-3.015,6.732-6.732,6.732
	s-6.732-3.014-6.732-6.732S2081.319,360.394,2085.037,360.394z M2085.037,308.394c3.718,0,6.732,3.014,6.732,6.732
	s-3.015,6.732-6.732,6.732s-6.732-3.014-6.732-6.732S2081.319,308.394,2085.037,308.394z M2085.037,256.394
	c3.718,0,6.732,3.014,6.732,6.732s-3.015,6.732-6.732,6.732s-6.732-3.014-6.732-6.732S2081.319,256.394,2085.037,256.394z
	 M2085.037,204.394c3.718,0,6.732,3.014,6.732,6.732s-3.015,6.732-6.732,6.732s-6.732-3.014-6.732-6.732
	S2081.319,204.394,2085.037,204.394z M2085.037,152.394c3.718,0,6.732,3.014,6.732,6.732s-3.015,6.732-6.732,6.732
	s-6.732-3.014-6.732-6.732S2081.319,152.394,2085.037,152.394z M2085.037,100.394c3.718,0,6.732,3.014,6.732,6.732
	s-3.015,6.732-6.732,6.732s-6.732-3.014-6.732-6.732S2081.319,100.394,2085.037,100.394z M2085.037,48.394
	c3.718,0,6.732,3.014,6.732,6.732s-3.015,6.732-6.732,6.732s-6.732-3.014-6.732-6.732S2081.319,48.394,2085.037,48.394z
	 M2141.607,360.394c3.718,0,6.731,3.014,6.731,6.732s-3.014,6.732-6.731,6.732c-3.719,0-6.732-3.014-6.732-6.732
	S2137.889,360.394,2141.607,360.394z M2141.607,308.394c3.718,0,6.731,3.014,6.731,6.732s-3.014,6.732-6.731,6.732
	c-3.719,0-6.732-3.014-6.732-6.732S2137.889,308.394,2141.607,308.394z M2141.607,256.394c3.718,0,6.731,3.014,6.731,6.732
	s-3.014,6.732-6.731,6.732c-3.719,0-6.732-3.014-6.732-6.732S2137.889,256.394,2141.607,256.394z M2141.607,204.394
	c3.718,0,6.731,3.014,6.731,6.732s-3.014,6.732-6.731,6.732c-3.719,0-6.732-3.014-6.732-6.732S2137.889,204.394,2141.607,204.394z
	 M2141.607,152.394c3.718,0,6.731,3.014,6.731,6.732s-3.014,6.732-6.731,6.732c-3.719,0-6.732-3.014-6.732-6.732
	S2137.889,152.394,2141.607,152.394z M2141.607,100.394c3.718,0,6.731,3.014,6.731,6.732s-3.014,6.732-6.731,6.732
	c-3.719,0-6.732-3.014-6.732-6.732S2137.889,100.394,2141.607,100.394z M2198.177,425.858c-3.719,0-6.729-3.019-6.729-6.732
	s3.014-6.732,6.729-6.732c3.72,0,6.732,3.018,6.732,6.732S2201.896,425.858,2198.177,425.858z M2198.177,373.858
	c-3.719,0-6.729-3.015-6.729-6.732s3.014-6.732,6.729-6.732c3.72,0,6.732,3.015,6.732,6.732S2201.896,373.858,2198.177,373.858z
	 M2198.177,321.858c-3.719,0-6.729-3.015-6.729-6.732s3.014-6.732,6.729-6.732c3.72,0,6.732,3.015,6.732,6.732
	S2201.896,321.858,2198.177,321.858z M2198.177,269.858c-3.719,0-6.729-3.015-6.729-6.732s3.014-6.732,6.729-6.732
	c3.72,0,6.732,3.015,6.732,6.732S2201.896,269.858,2198.177,269.858z M2198.177,217.858c-3.719,0-6.729-3.014-6.729-6.732
	s3.014-6.732,6.729-6.732c3.72,0,6.732,3.014,6.732,6.732S2201.896,217.858,2198.177,217.858z M2198.177,165.858
	c-3.719,0-6.729-3.014-6.729-6.732s3.014-6.732,6.729-6.732c3.72,0,6.732,3.014,6.732,6.732S2201.896,165.858,2198.177,165.858z
	 M2198.177,113.858c-3.719,0-6.729-3.014-6.729-6.732s3.014-6.732,6.729-6.732c3.72,0,6.732,3.014,6.732,6.732
	S2201.896,113.858,2198.177,113.858z M2254.748,425.858c-3.719,0-6.732-3.019-6.732-6.732s3.019-6.732,6.732-6.732
	c3.719,0,6.732,3.018,6.732,6.732S2258.466,425.858,2254.748,425.858z M2254.748,360.394c3.718,0,6.732,3.014,6.732,6.732
	s-3.015,6.732-6.732,6.732s-6.732-3.014-6.732-6.732S2251.03,360.394,2254.748,360.394z M2254.748,308.394
	c3.718,0,6.732,3.014,6.732,6.732s-3.015,6.732-6.732,6.732s-6.732-3.014-6.732-6.732S2251.03,308.394,2254.748,308.394z
	 M2254.748,256.394c3.718,0,6.732,3.014,6.732,6.732s-3.015,6.732-6.732,6.732s-6.732-3.014-6.732-6.732
	S2251.03,256.394,2254.748,256.394z M2254.748,204.394c3.718,0,6.732,3.014,6.732,6.732s-3.015,6.732-6.732,6.732
	s-6.732-3.014-6.732-6.732S2251.03,204.394,2254.748,204.394z M2254.748,152.394c3.718,0,6.732,3.014,6.732,6.732
	s-3.015,6.732-6.732,6.732s-6.732-3.014-6.732-6.732S2251.03,152.394,2254.748,152.394z M2254.748,100.394
	c3.718,0,6.732,3.014,6.732,6.732s-3.015,6.732-6.732,6.732s-6.732-3.014-6.732-6.732S2251.03,100.394,2254.748,100.394z
	 M2311.318,425.858c-3.719,0-6.732-3.019-6.732-6.732s3.014-6.732,6.732-6.732c3.718,0,6.729,3.018,6.729,6.732
	S2315.037,425.858,2311.318,425.858z M2311.318,360.394c3.718,0,6.731,3.014,6.731,6.732s-3.014,6.732-6.731,6.732
	c-3.719,0-6.732-3.014-6.732-6.732S2307.6,360.394,2311.318,360.394z M2311.318,308.394c3.718,0,6.731,3.014,6.731,6.732
	s-3.014,6.732-6.731,6.732c-3.719,0-6.732-3.014-6.732-6.732S2307.6,308.394,2311.318,308.394z M2311.318,256.394
	c3.718,0,6.731,3.014,6.731,6.732s-3.014,6.732-6.731,6.732c-3.719,0-6.732-3.014-6.732-6.732S2307.6,256.394,2311.318,256.394z
	 M2311.318,204.394c3.718,0,6.731,3.014,6.731,6.732s-3.014,6.732-6.731,6.732c-3.719,0-6.732-3.014-6.732-6.732
	S2307.6,204.394,2311.318,204.394z M2311.318,152.394c3.718,0,6.731,3.014,6.731,6.732s-3.014,6.732-6.731,6.732
	c-3.719,0-6.732-3.014-6.732-6.732S2307.6,152.394,2311.318,152.394z M2311.318,100.394c3.718,0,6.731,3.014,6.731,6.732
	s-3.014,6.732-6.731,6.732c-3.719,0-6.732-3.014-6.732-6.732S2307.6,100.394,2311.318,100.394z M2367.888,425.858
	c-3.719,0-6.729-3.019-6.729-6.732s3.014-6.732,6.729-6.732c3.72,0,6.732,3.018,6.732,6.732S2371.607,425.858,2367.888,425.858z
	 M2367.888,373.858c-3.719,0-6.729-3.015-6.729-6.732s3.014-6.732,6.729-6.732c3.72,0,6.732,3.015,6.732,6.732
	S2371.607,373.858,2367.888,373.858z M2367.888,321.858c-3.719,0-6.729-3.015-6.729-6.732s3.014-6.732,6.729-6.732
	c3.72,0,6.732,3.015,6.732,6.732S2371.607,321.858,2367.888,321.858z M2367.888,269.858c-3.719,0-6.729-3.015-6.729-6.732
	s3.014-6.732,6.729-6.732c3.72,0,6.732,3.015,6.732,6.732S2371.607,269.858,2367.888,269.858z M2367.888,217.858
	c-3.719,0-6.729-3.014-6.729-6.732s3.014-6.732,6.729-6.732c3.72,0,6.732,3.014,6.732,6.732S2371.607,217.858,2367.888,217.858z
	 M2367.888,165.858c-3.719,0-6.729-3.014-6.729-6.732s3.014-6.732,6.729-6.732c3.72,0,6.732,3.014,6.732,6.732
	S2371.607,165.858,2367.888,165.858z M2424.458,308.394c3.718,0,6.731,3.014,6.731,6.732s-3.014,6.732-6.731,6.732
	s-6.731-3.014-6.731-6.732S2420.74,308.394,2424.458,308.394z M2424.458,256.394c3.718,0,6.731,3.014,6.731,6.732
	s-3.014,6.732-6.731,6.732s-6.731-3.014-6.731-6.732S2420.74,256.394,2424.458,256.394z M2424.458,204.394
	c3.718,0,6.731,3.014,6.731,6.732s-3.014,6.732-6.731,6.732s-6.731-3.014-6.731-6.732S2420.74,204.394,2424.458,204.394z
	 M2424.458,152.394c3.718,0,6.731,3.014,6.731,6.732s-3.014,6.732-6.731,6.732s-6.731-3.014-6.731-6.732
	S2420.74,152.394,2424.458,152.394z M2481.029,256.394c3.718,0,6.731,3.014,6.731,6.732s-3.014,6.732-6.731,6.732
	c-3.719,0-6.732-3.014-6.732-6.732S2477.311,256.394,2481.029,256.394z M2481.029,204.394c3.718,0,6.731,3.014,6.731,6.732
	s-3.014,6.732-6.731,6.732c-3.719,0-6.732-3.014-6.732-6.732S2477.311,204.394,2481.029,204.394z M2481.029,152.394
	c3.718,0,6.731,3.014,6.731,6.732s-3.014,6.732-6.731,6.732c-3.719,0-6.732-3.014-6.732-6.732S2477.311,152.394,2481.029,152.394z
	 M2537.6,165.858c-3.72,0-6.729-3.014-6.729-6.732s3.014-6.732,6.729-6.732c3.721,0,6.731,3.014,6.731,6.732
	S2541.318,165.858,2537.6,165.858z M812.263,525.599c0.789,5.784-5.781,9.46-10.536,6.447l-0.001-0.005
	c-5.926-4.654-16.969,3.018-16.969,3.018l-85.746,40.869l0.9,32.131l-13.177-30.604l-19.854-0.625
	c-26.771,0.686-77.266-10.074-77.266-10.074S39.229,447.378,21.786,443.005c-17.442-4.371-21.203,5.83-21.779,24.158
	C-0.57,485.487,39.3,505.852,39.3,505.852l4.902,2.066C431.009,700.483,468.22,781.146,489.021,800.145
	c20.806,19,51.688,9.271,51.688,9.271s12.313-2.672,69.25-14.637c56.939-11.963,155.366,17.887,155.366,17.887
	s158.412,42.441,200.12,52.928c41.709,10.482,63.047-11.771,63.047-11.771l158.332-124.953c6.452-8.492,4.855-14.604,1.019-18.793
	l-0.025-0.027c-4.088-7.249,10.494-10.761,14.883-10.673v0.001c5.851,0.427,14.081-1.121,30.311-7.628
	c30.166-12.098,69.821-22.01,69.821-22.01l11.188-3.489c351.918-62.938,747.912,88.672,784.99,101.237
	c37.078,12.562,25.65-14.523,25.65-14.523s-18.072-34.93-40.406-80.686c-22.338-45.76,26-13.368,26-13.368
	c145.834,82.285,198.797,177.862,198.797,177.862l2.731,3.364c24.188,37.07,93.547,151.975,121.787,290.406
	c11.03,71.285,8.271,124.357,7.541,137.004c-1.565,27.086,26.944,32.136,26.944,32.136s323.274,90.983,374.8,106.271
	c51.521,15.283,29.209-44.229,29.209-44.229l-2.134-5.41c-94.935-303.947-81.621-520.613-79.978-550.371
	c1.646-29.764-9.808-30.104-9.808-30.104s-60.557-32.75-72.93-40.762c-12.373-8.01-1.647-8.838-1.647-8.838
	s79.557,36.371,87.912,38.146c8.354,1.775,26.562-6.475,58.438-24.635c31.875-18.162,181.987-80.206,216.761-92.932
	c34.77-12.723,1.483-24.408,1.483-24.408l-178.125-31.776l-398.548-77.075l0.008,0.002c-6.596-5.275,1.645-13.513,6.763-15.955
	v0.002c5.36-2.219,7.136-5.578,7.136-5.578s155.61-221.619,165.185-235.094c9.57-13.473,33.961-11.221,33.961-11.221
	s158.699,9.291,212.221,8.586c53.524-0.707-0.803-24.484-0.803-24.484s-292.992-68.304-310.803-73.419
	c-10.552-3.03-16.458,0.115-19.52,3.181c-4.408,3.217-8.996-1.309-10.547-5.328l-0.006-0.038
	c-1.557-7.844-12.719-10.939-12.719-10.939s-422.131-95.064-604.451-132.572c-182.318-37.506-344.992,35.627-344.992,35.627
	s-288.797,126.474-339.467,148.357c-5.966,0.811-9.906,0.122-10.74-6.514c0.001-0.095,0.001-0.191,0.001-0.287
	c0-17.221-13.96-31.181-31.181-31.181s-31.182,13.96-31.182,31.181c0,17.221,13.961,31.181,31.182,31.181
	c5.727,0,11.094-1.544,15.706-4.239v-0.001c4.169-1.598,8.975-0.62,12.282,2.337l-0.001-0.002c0.961,1.436,2.62,3.919,4.649,6.986
	l0.003,0.006c3.427,9.351-8.615,17.206-16.528,12.322c-8.562-6.044-22.419,6.45-22.419,6.45S826.039,511.52,816.715,516.593
	c-4.66,2.537-5.146,6.059-4.468,8.944L812.263,525.599z"/>
</svg>
