<?xml version="1.0" encoding="utf-8"?>
<!-- Generator: Adobe Illustrator 16.0.0, SVG Export Plug-In . SVG Version: 6.00 Build 0)  -->
<!DOCTYPE svg PUBLIC "-//W3C//DTD SVG 1.1//EN" "http://www.w3.org/Graphics/SVG/1.1/DTD/svg11.dtd">
<svg version="1.1" id="Layer_1" xmlns="http://www.w3.org/2000/svg" xmlns:xlink="http://www.w3.org/1999/xlink" x="0px" y="0px"
	 width="1056.518px" height="835.676px" viewBox="0 0 1056.518 835.676" enable-background="new 0 0 1056.518 835.676"
	 xml:space="preserve">
<path fill="none" stroke="#000000" stroke-linejoin="round" stroke-miterlimit="10" d="M267.488,60.147
	c0.612,0.838,1.371,1.824,0.947,2.909c-0.435,1.113-1.743,1.555-2.562,2.321c-0.4,0.207-0.807,0.422-1.219,0.646
	c-10.552,5.753-25.266,13.143-37.382,21.437c-12.115,8.289-14.095,15.476-11.188,20.42c2.906,4.943,7.271,16.042,18.837,36.48
	s28.984,72.857,31.858,93.192c2.873,20.336-0.904,32.717-7.842,35.445c-6.937,2.728-14.049,7.45-15.246,13.367
	c-1.194,5.918-4.503,12.985-22.513,64.927c-6.909,19.917-14.175,34.757-24.123,50.666l19.479,12.936l-20.164-12.083
	c0,0-30.602,36.271-42.13,46.265c-20.309,17.602-122.628,76.756-142.522,89.709c-19.894,12.953-8.742,38.041-7.399,45.522
	c1.342,7.479,6.55,16.646,20.198,21.207c0,0,77.187,27.621,182.527,69.802c105.339,42.178,327.5,132.905,364.947,148.291
	c37.45,15.383,38.352,12.782,57.354,9.793c19.011-2.992,158.921-33.367,276.991-58.994
	c118.071-25.627,121.231-46.095,129.793-52.021c8.562-5.934,8-14.684,2.379-19.194c-5.617-4.521-112.563-66.244-112.563-66.244
	s101.344,34.459,116.866,40.522c15.524,6.062,14.051-7.454,13.256-13.55c-0.795-6.094-3.352-15.022-13.276-31.301
	c-9.926-16.278-33.414-53.174-70.668-93.305c-37.255-40.132-105.89-111.164-144.885-146.766
	c-38.995-35.6-75.882-72.353-133.22-104.898c-57.341-32.548-103.805-59.441-144.587-82.484
	c-40.779-23.041-69.525-30.957-112.335-38.784c-42.811-7.828-68.127-24.14-92.062-40.993
	c-23.933-16.857-42.803-37.947-52.966-51.569c-1.368-1.834-2.675-3.42-3.937-4.778c-1.043-1.75-3.404-4.084-1.772-6.209
	c0.967-1.258,2.623-1.693,3.896-2.545c11.684-4.501,19.974-15.835,19.974-29.105C310.231,13.96,296.271,0,279.05,0
	s-31.181,13.96-31.181,31.181c0,13.134,8.12,24.371,19.614,28.965L267.488,60.147z"/>
</svg>
