<?xml version="1.0" encoding="utf-8"?>
<!-- Generator: Adobe Illustrator 16.0.0, SVG Export Plug-In . SVG Version: 6.00 Build 0)  -->
<!DOCTYPE svg PUBLIC "-//W3C//DTD SVG 1.1//EN" "http://www.w3.org/Graphics/SVG/1.1/DTD/svg11.dtd">
<svg version="1.1" id="Layer_1" xmlns="http://www.w3.org/2000/svg" xmlns:xlink="http://www.w3.org/1999/xlink" x="0px" y="0px"
	 width="1996.672px" height="741.521px" viewBox="0 0 1996.672 741.521" enable-background="new 0 0 1996.672 741.521"
	 xml:space="preserve">
<path fill="none" stroke="#1D1D1B" stroke-miterlimit="10" d="M1250.564,677.16c185.844,65.365,678.033,63.312,721.435,64.346
	c43.397,1.02,16.339-43.92,16.339-43.92l-250.168-504.437c0,0-23.725-55.628-121.262-61.518c-3.579,0.08-5.631,0.25-5.631,0.25
	s-650.461-11.231-703.56-13.271c-3.58-0.14-6.871-0.11-9.922,0.07c-0.518,0.04-1.048,0.08-1.607,0.11
	c-4.684,0.359-8.74,1.09-12.26,2.08c-22.131,6.869-22.061,27.989-21.568,33.938l0.17,1.58
	C880.921,556.676,1064.723,611.814,1250.564,677.16z M7.502,104.232l0.09,0.229c0.224,0.57,0.438,1.13,0.66,1.68l0.2,0.51
	c0.181,0.45,0.354,0.89,0.538,1.33c0.118,0.29,0.236,0.58,0.354,0.87c0.132,0.309,0.264,0.61,0.382,0.91
	c0.184,0.43,0.357,0.85,0.538,1.26l0.226,0.49c0.243,0.559,0.481,1.109,0.723,1.649l0.021,0.04c4.709,10.5,9.103,17.7,9.103,17.7
	s4.517,8.349,81.486,131.916l0.038,0.061l4.479,7.188l0.037,0.068c16.877,27.08,37.069,59.408,61.188,97.998
	c17.553,28.068,38.209,53.369,60.933,76.158c0.961,0.959,1.931,1.879,2.894,2.83c1.885,1.854,3.778,3.732,5.688,5.562
	C396.74,605.1,647.682,640.399,647.682,640.399l61.761,13.312l335.897,72.387c11.75,2.07,19.489,2.451,24.303,1.701
	c20.709-3.281-13.303-27.629-13.303-27.629l-4.131-3C731.264,418.267,663.147,176.266,634.158,85.827
	c-7.688-24.009-18.05-41.319-29.115-53.798C574.412-2.46,538.385,0.04,538.385,0.04s-67.084,5.05-120.646,8.88l-7.352,0.479
	c-27.853,1.98-50.759,3.53-56.459,3.7l-0.971,0.06c-0.724-0.009-1.421,0.04-2.079,0.141l-0.521,0.029
	c-3.85,0.7-6.639,2.99-8.479,5.131l-8.854,9.869c-30.287,29.249-86.774,18.869-86.774,18.869s-101.248-9.14-194.77-13.81
	c-1.896-0.1-3.72-0.13-5.5-0.14l-0.852,0.06l0.029,0.021C-10.048,33.499-3.548,75.378,7.502,104.232z M32.81,96.577
	c-0.271-17.48,13.103-31.869,29.881-32.129c16.774-0.26,30.598,13.69,30.867,31.169c0.276,17.48-13.103,31.869-29.882,32.129
	C46.911,128.016,33.081,114.057,32.81,96.577z"/>
<circle fill="none" stroke="#1D1D1B" stroke-miterlimit="10" cx="770.017" cy="182.442" r="31.181"/>
</svg>
