<?xml version="1.0" encoding="utf-8"?>
<!-- Generator: Adobe Illustrator 16.0.0, SVG Export Plug-In . SVG Version: 6.00 Build 0)  -->
<!DOCTYPE svg PUBLIC "-//W3C//DTD SVG 1.1//EN" "http://www.w3.org/Graphics/SVG/1.1/DTD/svg11.dtd">
<svg version="1.1" id="Layer_1" xmlns="http://www.w3.org/2000/svg" xmlns:xlink="http://www.w3.org/1999/xlink" x="0px" y="0px"
	 width="792.549px" height="498.008px" viewBox="0 0 792.549 498.008" enable-background="new 0 0 792.549 498.008"
	 xml:space="preserve">
<path fill="none" stroke="#000001" stroke-linejoin="round" stroke-miterlimit="10" d="M61.981,39.738
	c0.216-2.855,0.38-5.712,0.38-8.557C62.362,13.96,48.402,0,31.181,0C13.96,0,0,13.96,0,31.181c0,11.754,6.822,19.004,15.271,26.127
	c14.15,11.928,28.322,28.121,32.053,46.817c0,0.002,23.557,121.248,23.557,121.248s5.34,31.319,18.59,43.549
	c13.239,12.222,177.745,158.896,293.861,216.954l4.331,2.55c0,0,31.068,21.899,63.918-0.51
	c32.848-22.409,140.055-76.647,287.75-213.134l3.061-3.062c0,0,17.58-16.55,23.689-47.109S792.05,82.007,792.05,82.007
	s5.104-29.029-17.309-6.62c-22.41,22.409-68.248,80.978-202.703,145.156l-147.697,59.588l-6.355,1.59l-4.725-1.779l-151.695-58.316
	c0,0-97.41-37.459-188.038-133.045c0,0-6.911-10.561-6.92-10.576C58.882,66.038,60.985,52.896,61.981,39.738z"/>
</svg>
