<?xml version="1.0" encoding="utf-8"?>
<!-- Generator: Adobe Illustrator 16.0.0, SVG Export Plug-In . SVG Version: 6.00 Build 0)  -->
<!DOCTYPE svg PUBLIC "-//W3C//DTD SVG 1.1//EN" "http://www.w3.org/Graphics/SVG/1.1/DTD/svg11.dtd">
<svg version="1.1" id="Layer_1" xmlns="http://www.w3.org/2000/svg" xmlns:xlink="http://www.w3.org/1999/xlink" x="0px" y="0px"
	 width="2334.891px" height="1173.645px" viewBox="0 0 2334.891 1173.645" enable-background="new 0 0 2334.891 1173.645"
	 xml:space="preserve">
<path fill="none" stroke="#1D1D1B" stroke-linejoin="round" stroke-miterlimit="10" d="M62.201,274.062
	c-1.597-15.724-14.876-27.994-31.02-27.994C13.96,246.069,0,260.029,0,277.25s13.96,31.181,31.181,31.181
	c10.162,0,19.188-4.861,24.88-12.384c3.643-1.933,7.536,0.072,10.553,2.224c4.047,6.617,15.164,24.89,17.804,30.254
	c3.244,6.593,22.119,14.415,22.119,14.415l81.298,29.161c0,0,240.86,85.88,251.854,88.881c10.992,3.001,13.519,8.043,43.686-4.056
	c30.166-12.098,69.822-22.01,69.822-22.01l11.188-3.489c351.917-62.937,747.91,88.673,784.99,101.237
	c37.078,12.563,25.65-14.524,25.65-14.524s-18.072-34.93-40.406-80.686c-22.338-45.757,26-13.368,26-13.368
	c145.834,82.284,198.797,177.863,198.797,177.863l2.732,3.367c24.188,37.068,93.547,151.971,121.787,290.404
	c11.029,71.285,8.271,124.357,7.541,137.005c-1.566,27.086,26.943,32.136,26.943,32.136s323.277,90.982,374.799,106.271
	c51.521,15.283,29.209-44.229,29.209-44.229l-2.133-5.414c-94.932-303.947-81.621-520.613-79.975-550.372
	c1.646-29.76-9.809-30.104-9.809-30.104s-60.555-32.75-72.928-40.761c-12.373-8.01-1.65-8.839-1.65-8.839
	s79.559,36.371,87.912,38.148c8.354,1.774,26.562-6.476,58.438-24.637c31.875-18.162,181.988-80.205,216.76-92.932
	c34.77-12.721,1.484-24.408,1.484-24.408l-178.125-31.776L611.658,59.781c-37.78-7.423-60.604-11.849-62.632-12.112
	c-15.229-1.981-23.071-7.944-23.071-7.944s-15.054-20.701-22.677-34.304c-7.622-13.602-25.685,2.68-25.685,2.68
	S126.531,243.136,73.57,277.637c-4.382,0.787-8.678,0.524-11.363-3.49L62.201,274.062z"/>
</svg>
