<?xml version="1.0" encoding="utf-8"?>
<!-- Generator: Adobe Illustrator 16.0.0, SVG Export Plug-In . SVG Version: 6.00 Build 0)  -->
<!DOCTYPE svg PUBLIC "-//W3C//DTD SVG 1.1//EN" "http://www.w3.org/Graphics/SVG/1.1/DTD/svg11.dtd">
<svg version="1.1" id="Layer_1" xmlns="http://www.w3.org/2000/svg" xmlns:xlink="http://www.w3.org/1999/xlink" x="0px" y="0px"
	 width="633.896px" height="474.945px" viewBox="0 0 633.896 474.945" enable-background="new 0 0 633.896 474.945"
	 xml:space="preserve">
<path fill="none" stroke="#181716" stroke-linejoin="round" stroke-miterlimit="10" d="M60.487,51.18
	c-0.064-0.085-0.809-0.176-0.97-0.264c-0.361-0.197-0.646-0.513-0.883-0.841c-0.928-1.286-0.612-2.968,0.091-4.275
	c0.787-1.462,1.451-3,1.984-4.573c1.096-3.229,1.649-6.638,1.649-10.046C62.36,13.96,48.4,0,31.18,0C13.96,0,0,13.96,0,31.18
	C0,48.4,13.96,62.36,31.18,62.36c2.315,0,4.632-0.255,6.892-0.765c1.079-0.244,2.145-0.545,3.191-0.904
	c1.333-0.457,3.939-1.309,3.936,1.134c-4.12,5.287-6.581,11.922-6.581,19.104v362.833c0,17.15,14.031,31.184,31.181,31.184h532.915
	c17.147,0,31.185-14.031,31.185-31.184V80.93c-0.001-17.15-14.033-31.181-31.185-31.181H69.799
	C66.559,49.749,63.43,50.25,60.487,51.18z"/>
</svg>
