<?xml version="1.0" encoding="utf-8"?>
<!-- Generator: Adobe Illustrator 16.0.0, SVG Export Plug-In . SVG Version: 6.00 Build 0)  -->
<!DOCTYPE svg PUBLIC "-//W3C//DTD SVG 1.1//EN" "http://www.w3.org/Graphics/SVG/1.1/DTD/svg11.dtd">
<svg version="1.1" id="Layer_1" xmlns="http://www.w3.org/2000/svg" xmlns:xlink="http://www.w3.org/1999/xlink" x="0px" y="0px"
	 width="468.15px" height="753.896px" viewBox="0 0 468.15 753.896" enable-background="new 0 0 468.15 753.896"
	 xml:space="preserve">
<path fill="none" stroke="#181716" stroke-linejoin="round" stroke-miterlimit="10" d="M59.023,45.234
	c2.136-4.223,3.339-8.998,3.338-14.053C62.362,13.96,48.402,0,31.181,0C13.96,0,0,13.96,0,31.181
	c0,17.221,13.96,31.181,31.182,31.181c4.68,0,9.118-1.031,13.102-2.878c1.127-0.001,2.039,1.287,2.038,2.878
	c-2.152,4.229-3.368,9.006-3.368,14.054v646.299c0,17.148,14.031,31.184,31.181,31.184h362.836c17.146,0,31.183-14.03,31.183-31.184
	V76.416c-0.001-17.15-14.032-31.182-31.183-31.182H74.134c-4.639,0-9.048,1.026-13.014,2.864
	C59.96,48.098,59.022,46.817,59.023,45.234L59.023,45.234z"/>
</svg>
