<?xml version="1.0" encoding="utf-8"?>
<!-- Generator: Adobe Illustrator 16.0.0, SVG Export Plug-In . SVG Version: 6.00 Build 0)  -->
<!DOCTYPE svg PUBLIC "-//W3C//DTD SVG 1.1//EN" "http://www.w3.org/Graphics/SVG/1.1/DTD/svg11.dtd">
<svg version="1.1" id="Layer_1" xmlns="http://www.w3.org/2000/svg" xmlns:xlink="http://www.w3.org/1999/xlink" x="0px" y="0px"
	 width="331.084px" height="193.148px" viewBox="0 0 331.084 193.148" enable-background="new 0 0 331.084 193.148"
	 xml:space="preserve">
<path fill="none" stroke="#181716" stroke-linejoin="round" stroke-miterlimit="10" d="M58.719,46.344
	c-0.173,0.774-0.165,1.569,0.213,2.432c0.598,1.362,1.833,2.64,3.429,2.64l257.382-0.001c6.235,0,11.34,5.104,11.34,11.338V181.81
	c0,6.233-5.104,11.339-11.34,11.339H58.957c-6.235,0-11.338-5.105-11.338-11.339V63.99c0-1.113-0.249-2.271-0.86-3.212
	c-0.55-0.847-1.345-1.646-2.397-1.364c-1.371,0.367-2.726,1.159-4.107,1.592c-2.929,0.917-6.003,1.355-9.072,1.355
	C13.96,62.362,0,48.402,0,31.181C0,13.96,13.96,0,31.181,0s31.181,13.96,31.181,31.183c0,2.893-0.396,5.786-1.193,8.567
	c-0.385,1.344-0.858,2.66-1.417,3.942C59.355,44.596,58.918,45.457,58.719,46.344z"/>
</svg>
