<?xml version="1.0" encoding="utf-8"?>
<!-- Generator: Adobe Illustrator 16.0.0, SVG Export Plug-In . SVG Version: 6.00 Build 0)  -->
<!DOCTYPE svg PUBLIC "-//W3C//DTD SVG 1.1//EN" "http://www.w3.org/Graphics/SVG/1.1/DTD/svg11.dtd">
<svg version="1.1" id="Layer_1" xmlns="http://www.w3.org/2000/svg" xmlns:xlink="http://www.w3.org/1999/xlink" x="0px" y="0px"
	 width="1197.721px" height="529.167px" viewBox="0 0 1197.721 529.167" enable-background="new 0 0 1197.721 529.167"
	 xml:space="preserve">
<path fill="none" stroke="#000000" stroke-linejoin="round" stroke-miterlimit="10" d="M944.283,509.843
	c23.608-30.756,180.026-234.508,249.646-325.195c19.531-25.445-42.762-56.388-42.762-56.388C796.043-40.156,397.64,5.7,397.64,5.7
	s-59.906,5.068-81.265,32.889C298.876,61.388,129.003,282.671,65.45,365.457c-14.01,18.248,24.192,27.189,24.192,27.189
	s415.929-49.836,779.869,123.559C869.512,516.205,914.047,549.234,944.283,509.843z M918.946,358.427
	c-0.754-3.643,1.588-7.205,5.229-7.957c3.646-0.754,7.203,1.588,7.957,5.23c0.754,3.641-1.589,7.202-5.229,7.957
	C923.26,364.41,919.699,362.07,918.946,358.427z M937.436,414.578c-3.646,0.754-7.202-1.586-7.957-5.229
	c-0.754-3.643,1.589-7.203,5.229-7.957c3.646-0.754,7.203,1.588,7.957,5.229C943.418,410.262,941.076,413.826,937.436,414.578z
	 M947.969,465.5c-3.646,0.754-7.203-1.588-7.957-5.229s1.588-7.203,5.229-7.957c3.646-0.754,7.203,1.588,7.957,5.229
	S951.61,464.748,947.969,465.5z M992.832,403.119c-3.641,0.754-7.202-1.586-7.954-5.229c-0.755-3.643,1.586-7.203,5.229-7.957
	c3.641-0.754,7.202,1.588,7.957,5.229C998.815,398.804,996.475,402.367,992.832,403.119z M1132.656,208.02
	c0.752,3.642-1.588,7.204-5.229,7.957c-3.642,0.753-7.203-1.587-7.957-5.229c-0.752-3.642,1.588-7.203,5.229-7.957
	C1128.341,202.037,1131.903,204.378,1132.656,208.02z M1114.166,151.869c3.644-0.753,7.203,1.587,7.957,5.229
	c0.752,3.642-1.588,7.203-5.229,7.957c-3.643,0.753-7.202-1.587-7.957-5.229C1108.184,156.184,1110.524,152.622,1114.166,151.869z
	 M1087.791,270.4c0.755,3.643-1.588,7.203-5.229,7.957c-3.645,0.754-7.204-1.588-7.957-5.229c-0.754-3.646,1.589-7.203,5.229-7.957
	C1083.477,264.418,1087.037,266.759,1087.791,270.4z M1077.258,219.479c0.754,3.642-1.59,7.204-5.229,7.957
	c-3.644,0.753-7.203-1.587-7.957-5.229s1.588-7.203,5.229-7.957C1072.944,213.496,1076.504,215.837,1077.258,219.479z
	 M1066.725,168.557c0.754,3.642-1.588,7.203-5.229,7.957c-3.643,0.753-7.202-1.587-7.957-5.229
	c-0.754-3.642,1.589-7.204,5.229-7.957C1062.41,162.574,1065.971,164.915,1066.725,168.557z M1048.235,112.405
	c3.643-0.753,7.202,1.587,7.957,5.229c0.754,3.642-1.589,7.203-5.229,7.957c-3.644,0.753-7.202-1.588-7.957-5.229
	C1042.25,116.721,1044.594,113.159,1048.235,112.405z M1042.926,332.783c0.754,3.641-1.586,7.203-5.229,7.955
	c-3.644,0.754-7.203-1.586-7.957-5.229c-0.752-3.643,1.588-7.203,5.229-7.957C1038.612,326.798,1042.174,329.14,1042.926,332.783z
	 M1032.393,281.859c0.754,3.643-1.586,7.203-5.229,7.957c-3.641,0.754-7.202-1.588-7.957-5.229c-0.752-3.646,1.589-7.205,5.23-7.957
	C1028.078,275.876,1031.641,278.218,1032.393,281.859z M1021.86,230.938c0.754,3.642-1.586,7.203-5.229,7.957
	c-3.642,0.753-7.201-1.587-7.956-5.229c-0.753-3.642,1.589-7.204,5.229-7.957C1017.545,224.955,1021.108,227.296,1021.86,230.938z
	 M1011.326,180.016c0.754,3.642-1.586,7.203-5.229,7.957c-3.644,0.753-7.203-1.587-7.957-5.229
	c-0.752-3.642,1.589-7.204,5.229-7.957C1007.012,174.033,1010.574,176.374,1011.326,180.016z M992.838,123.864
	c3.644-0.753,7.203,1.587,7.955,5.229c0.754,3.642-1.586,7.204-5.229,7.957c-3.642,0.753-7.203-1.588-7.957-5.229
	C986.856,128.179,989.196,124.618,992.838,123.864z M987.53,344.242c0.752,3.641-1.588,7.203-5.229,7.955
	c-3.644,0.754-7.203-1.586-7.955-5.229c-0.756-3.643,1.586-7.203,5.229-7.957C983.215,338.257,986.776,340.599,987.53,344.242z
	 M976.996,293.318c0.752,3.643-1.588,7.203-5.229,7.957c-3.643,0.754-7.202-1.588-7.955-5.229c-0.754-3.646,1.587-7.205,5.229-7.957
	C972.684,287.335,976.242,289.677,976.996,293.318z M966.463,242.396c0.752,3.642-1.588,7.204-5.229,7.957s-7.203-1.587-7.955-5.229
	c-0.754-3.642,1.586-7.204,5.229-7.957C962.149,236.414,965.709,238.755,966.463,242.396z M955.93,191.475
	c0.754,3.642-1.588,7.203-5.229,7.957c-3.642,0.753-7.203-1.587-7.955-5.229c-0.754-3.642,1.589-7.203,5.229-7.957
	C951.615,185.492,955.176,187.833,955.93,191.475z M945.396,140.552c0.755,3.642-1.588,7.204-5.229,7.957
	c-3.643,0.753-7.204-1.588-7.956-5.229c-0.755-3.642,1.589-7.203,5.229-7.957C941.082,134.57,944.643,136.911,945.396,140.552z
	 M926.906,84.401c3.644-0.753,7.203,1.587,7.957,5.229s-1.588,7.203-5.229,7.957c-3.646,0.753-7.205-1.587-7.957-5.229
	C920.924,88.716,923.266,85.154,926.906,84.401z M921.598,304.777c0.754,3.643-1.588,7.205-5.229,7.957
	c-3.644,0.754-7.202-1.586-7.957-5.229c-0.754-3.646,1.589-7.205,5.229-7.957C917.283,298.794,920.846,301.136,921.598,304.777z
	 M900.531,202.933c0.754,3.642-1.588,7.204-5.229,7.957c-3.646,0.753-7.203-1.588-7.957-5.229c-0.752-3.642,1.588-7.203,5.229-7.957
	C896.217,196.951,899.78,199.292,900.531,202.933z M889.998,152.011c0.755,3.642-1.588,7.204-5.229,7.957
	c-3.645,0.753-7.202-1.587-7.956-5.229c-0.753-3.642,1.588-7.203,5.229-7.957C885.684,146.029,889.246,148.37,889.998,152.011z
	 M871.51,95.86c3.642-0.753,7.201,1.587,7.955,5.229c0.754,3.642-1.588,7.203-5.229,7.957s-7.203-1.587-7.957-5.229
	C865.528,100.175,867.867,96.613,871.51,95.86z M834.602,163.47c0.752,3.642-1.588,7.203-5.229,7.957
	c-3.641,0.753-7.202-1.587-7.954-5.229c-0.755-3.642,1.586-7.203,5.229-7.957C830.285,157.488,833.848,159.829,834.602,163.47z
	 M824.069,112.548c0.752,3.642-1.589,7.203-5.229,7.957c-3.642,0.753-7.201-1.587-7.955-5.229s1.588-7.204,5.229-7.957
	C819.752,106.566,823.315,108.907,824.069,112.548z M805.578,56.397c3.646-0.753,7.203,1.588,7.957,5.229
	c0.752,3.642-1.588,7.204-5.229,7.957c-3.642,0.753-7.203-1.588-7.955-5.229C799.596,60.712,801.936,57.15,805.578,56.397z
	 M779.203,174.929c0.754,3.642-1.588,7.203-5.229,7.957c-3.646,0.753-7.203-1.587-7.957-5.229c-0.754-3.642,1.589-7.204,5.229-7.957
	C774.889,168.947,778.449,171.288,779.203,174.929z M768.67,124.007c0.756,3.642-1.589,7.203-5.229,7.957
	c-3.644,0.753-7.203-1.587-7.957-5.229s1.588-7.204,5.229-7.957C764.356,118.025,767.916,120.366,768.67,124.007z M750.18,67.856
	c3.644-0.753,7.205,1.588,7.957,5.229c0.754,3.641-1.59,7.204-5.229,7.957c-3.644,0.753-7.203-1.588-7.957-5.229
	S746.539,68.609,750.18,67.856z M713.274,135.466c0.752,3.642-1.589,7.203-5.229,7.957c-3.642,0.753-7.203-1.587-7.955-5.229
	c-0.755-3.642,1.586-7.203,5.229-7.957C708.957,129.484,712.52,131.824,713.274,135.466z M702.74,84.544
	c0.752,3.641-1.588,7.204-5.229,7.957c-3.642,0.753-7.203-1.588-7.955-5.229c-0.754-3.641,1.586-7.203,5.229-7.957
	C698.424,78.562,701.987,80.903,702.74,84.544z M684.25,28.393c3.643-0.753,7.202,1.588,7.956,5.229
	c0.753,3.641-1.588,7.203-5.229,7.957c-3.644,0.753-7.202-1.588-7.954-5.229C678.268,32.708,680.608,29.146,684.25,28.393z
	 M657.875,146.925c0.754,3.642-1.589,7.204-5.229,7.957c-3.646,0.753-7.203-1.587-7.957-5.229c-0.755-3.642,1.588-7.203,5.229-7.957
	C653.561,140.942,657.121,143.283,657.875,146.925z M647.342,96.003c0.754,3.641-1.59,7.204-5.229,7.957
	c-3.644,0.753-7.203-1.588-7.957-5.229s1.588-7.204,5.229-7.957C643.028,90.021,646.588,92.362,647.342,96.003z M628.854,39.852
	c3.642-0.753,7.202,1.588,7.956,5.229c0.755,3.641-1.588,7.203-5.229,7.957c-3.642,0.753-7.202-1.588-7.955-5.229
	C622.869,44.167,625.21,40.605,628.854,39.852z M591.945,107.462c0.753,3.641-1.587,7.203-5.229,7.957
	c-3.643,0.754-7.202-1.588-7.955-5.229c-0.754-3.641,1.587-7.204,5.229-7.957C587.629,101.479,591.192,103.821,591.945,107.462z
	 M573.454,51.311c3.645-0.753,7.204,1.588,7.957,5.229s-1.587,7.203-5.229,7.957c-3.645,0.753-7.204-1.588-7.957-5.229
	C567.473,55.626,569.814,52.064,573.454,51.311z M528.59,113.692c3.645-0.753,7.203,1.588,7.957,5.229
	c0.755,3.641-1.587,7.203-5.229,7.957c-3.643,0.753-7.204-1.588-7.957-5.229C522.609,118.007,524.948,114.445,528.59,113.692z
	 M526.014,67.999c0.753,3.642-1.587,7.204-5.229,7.957s-7.204-1.588-7.957-5.229s1.589-7.203,5.229-7.957
	C521.698,62.017,525.261,64.357,526.014,67.999z M507.525,11.848c3.642-0.753,7.202,1.588,7.957,5.229
	c0.753,3.641-1.588,7.204-5.229,7.957c-3.642,0.753-7.204-1.588-7.957-5.229C501.541,16.163,503.883,12.601,507.525,11.848z
	 M470.615,79.458c0.753,3.642-1.587,7.204-5.229,7.957c-3.645,0.753-7.205-1.588-7.958-5.229s1.587-7.203,5.229-7.957
	C466.302,73.475,469.863,75.816,470.615,79.458z M452.127,23.307c3.642-0.753,7.202,1.588,7.957,5.229
	c0.753,3.641-1.588,7.203-5.229,7.957c-3.643,0.753-7.203-1.588-7.957-5.229C446.145,27.622,448.485,24.06,452.127,23.307z
	 M415.219,90.917c0.753,3.641-1.587,7.204-5.229,7.957s-7.204-1.588-7.957-5.229s1.587-7.203,5.229-7.957
	C410.904,84.934,414.466,87.275,415.219,90.917z M396.729,34.766c3.643-0.753,7.204,1.588,7.957,5.229
	c0.754,3.641-1.587,7.203-5.229,7.957c-3.642,0.754-7.203-1.588-7.956-5.229C390.746,39.082,393.088,35.519,396.729,34.766z
	 M359.821,102.375c0.753,3.641-1.587,7.203-5.229,7.957c-3.643,0.754-7.204-1.588-7.957-5.229s1.587-7.203,5.229-7.957
	C355.506,96.392,359.069,98.734,359.821,102.375z M341.331,46.225c3.643-0.753,7.204,1.588,7.957,5.229
	c0.753,3.641-1.587,7.203-5.229,7.957s-7.204-1.588-7.957-5.229C335.349,50.54,337.69,46.978,341.331,46.225z M119.737,371.316
	c-3.642,0.752-7.202-1.59-7.957-5.23c-0.754-3.639,1.588-7.203,5.229-7.955c3.642-0.754,7.204,1.586,7.957,5.23
	C125.719,367,123.379,370.562,119.737,371.316z M156.645,303.705c-0.753-3.643,1.587-7.203,5.229-7.955
	c3.642-0.754,7.203,1.586,7.957,5.229c0.753,3.646-1.588,7.202-5.229,7.956C160.961,309.687,157.398,307.345,156.645,303.705z
	 M175.134,359.857c-3.642,0.752-7.203-1.59-7.957-5.23c-0.754-3.639,1.587-7.203,5.229-7.955c3.643-0.754,7.204,1.586,7.957,5.23
	C181.117,355.541,178.776,359.103,175.134,359.857z M201.509,241.324c-0.753-3.642,1.587-7.203,5.229-7.957
	c3.643-0.754,7.203,1.587,7.957,5.229c0.755,3.642-1.587,7.204-5.229,7.957C205.824,247.306,202.262,244.965,201.509,241.324z
	 M212.043,292.246c-0.753-3.643,1.587-7.203,5.229-7.955c3.643-0.754,7.203,1.586,7.957,5.229c0.754,3.646-1.587,7.205-5.229,7.957
	C216.358,298.229,212.796,295.886,212.043,292.246z M230.532,348.398c-3.643,0.752-7.204-1.588-7.957-5.23
	c-0.754-3.641,1.588-7.203,5.229-7.955c3.641-0.754,7.203,1.586,7.957,5.23C236.514,344.083,234.174,347.644,230.532,348.398z
	 M246.374,178.943c-0.753-3.641,1.587-7.203,5.229-7.957c3.643-0.754,7.204,1.588,7.957,5.229c0.753,3.641-1.587,7.204-5.229,7.957
	C250.689,184.925,247.127,182.584,246.374,178.943z M256.907,229.865c-0.754-3.642,1.587-7.203,5.229-7.957
	c3.642-0.754,7.204,1.587,7.957,5.229c0.753,3.642-1.587,7.204-5.229,7.957C261.222,235.847,257.66,233.506,256.907,229.865z
	 M267.44,280.787c-0.753-3.643,1.587-7.203,5.229-7.955c3.642-0.754,7.203,1.586,7.957,5.229c0.754,3.646-1.587,7.205-5.229,7.957
	C271.755,286.77,268.194,284.427,267.44,280.787z M285.93,336.937c-3.642,0.756-7.204-1.586-7.957-5.229
	c-0.753-3.642,1.587-7.203,5.229-7.955c3.642-0.754,7.202,1.586,7.957,5.229C291.912,332.625,289.571,336.185,285.93,336.937z
	 M291.238,116.562c-0.753-3.641,1.589-7.204,5.229-7.957c3.642-0.753,7.203,1.588,7.957,5.229c0.753,3.641-1.587,7.203-5.229,7.957
	C295.553,122.544,291.991,120.203,291.238,116.562z M301.771,167.484c-0.753-3.641,1.587-7.203,5.229-7.957
	c3.642-0.753,7.202,1.588,7.956,5.229c0.754,3.641-1.588,7.204-5.229,7.957C306.086,173.466,302.525,171.125,301.771,167.484z
	 M312.304,218.406c-0.753-3.642,1.587-7.203,5.229-7.957c3.643-0.753,7.204,1.587,7.957,5.229c0.753,3.642-1.588,7.203-5.229,7.957
	C316.618,224.388,313.058,222.048,312.304,218.406z M322.838,269.328c-0.753-3.643,1.587-7.203,5.229-7.956
	c3.643-0.753,7.204,1.587,7.957,5.229c0.753,3.643-1.587,7.203-5.229,7.957C327.153,275.311,323.591,272.968,322.838,269.328z
	 M333.37,320.25c-0.753-3.641,1.587-7.203,5.229-7.957c3.642-0.752,7.204,1.588,7.957,5.23c0.753,3.641-1.587,7.201-5.229,7.955
	C337.686,326.232,334.123,323.892,333.37,320.25z M351.861,376.402c-3.642,0.754-7.203-1.588-7.957-5.23
	c-0.754-3.641,1.587-7.203,5.229-7.957c3.642-0.752,7.203,1.589,7.957,5.23C357.844,372.085,355.502,375.648,351.861,376.402z
	 M357.169,156.025c-0.753-3.641,1.587-7.203,5.229-7.957c3.642-0.754,7.203,1.588,7.957,5.229c0.753,3.642-1.587,7.204-5.229,7.957
	C361.484,162.007,357.922,159.666,357.169,156.025z M367.701,206.947c-0.753-3.642,1.588-7.204,5.229-7.957
	c3.642-0.753,7.203,1.588,7.957,5.229c0.753,3.642-1.587,7.203-5.229,7.957C372.017,212.929,368.454,210.589,367.701,206.947z
	 M378.235,257.869c-0.753-3.642,1.587-7.203,5.229-7.956c3.642-0.753,7.202,1.587,7.957,5.229c0.753,3.642-1.587,7.204-5.229,7.956
	C382.55,263.852,378.988,261.511,378.235,257.869z M388.768,308.792c-0.753-3.646,1.587-7.205,5.229-7.957
	c3.643-0.754,7.204,1.588,7.957,5.229c0.753,3.645-1.588,7.202-5.229,7.954C393.082,314.775,389.522,312.433,388.768,308.792z
	 M407.258,364.943c-3.643,0.754-7.203-1.588-7.957-5.23c-0.754-3.641,1.587-7.203,5.229-7.957c3.643-0.752,7.204,1.588,7.957,5.23
	C413.24,360.626,410.9,364.189,407.258,364.943z M412.567,144.566c-0.753-3.641,1.587-7.203,5.229-7.957
	c3.642-0.753,7.204,1.588,7.957,5.229c0.753,3.642-1.588,7.204-5.229,7.957S413.32,148.207,412.567,144.566z M423.1,195.488
	c-0.753-3.642,1.588-7.204,5.229-7.957c3.643-0.753,7.203,1.587,7.957,5.229c0.754,3.642-1.587,7.203-5.229,7.957
	C427.414,201.471,423.853,199.13,423.1,195.488z M433.633,246.41c-0.753-3.642,1.587-7.203,5.229-7.957
	c3.643-0.754,7.203,1.587,7.957,5.229s-1.587,7.204-5.229,7.957C437.948,252.392,434.386,250.052,433.633,246.41z M444.165,297.333
	c-0.753-3.646,1.588-7.205,5.229-7.957c3.643-0.754,7.203,1.588,7.957,5.229c0.755,3.643-1.587,7.203-5.229,7.955
	C448.481,303.314,444.919,300.975,444.165,297.333z M462.655,353.484c-3.643,0.754-7.203-1.588-7.957-5.23
	c-0.753-3.641,1.588-7.203,5.229-7.957c3.643-0.752,7.201,1.588,7.957,5.23C468.638,349.167,466.297,352.73,462.655,353.484z
	 M467.963,133.107c-0.753-3.641,1.589-7.203,5.229-7.957c3.643-0.753,7.204,1.588,7.957,5.229s-1.587,7.203-5.229,7.957
	C472.279,139.089,468.717,136.749,467.963,133.107z M478.496,184.029c-0.753-3.642,1.588-7.204,5.229-7.957
	c3.643-0.753,7.204,1.587,7.957,5.229c0.753,3.642-1.587,7.203-5.229,7.957C482.812,190.012,479.25,187.671,478.496,184.029z
	 M489.03,234.951c-0.753-3.642,1.587-7.203,5.229-7.957s7.202,1.587,7.955,5.229c0.755,3.642-1.587,7.204-5.229,7.957
	C493.345,240.934,489.783,238.593,489.03,234.951z M499.564,285.875c-0.754-3.643,1.587-7.205,5.229-7.957
	c3.645-0.754,7.202,1.588,7.957,5.229c0.754,3.644-1.588,7.203-5.229,7.957C503.878,291.855,500.317,289.516,499.564,285.875z
	 M510.097,336.794c-0.753-3.642,1.587-7.203,5.229-7.957c3.645-0.752,7.203,1.588,7.957,5.229s-1.587,7.199-5.229,7.957
	C514.411,342.779,510.85,340.437,510.097,336.794z M528.586,392.947c-3.643,0.754-7.202-1.588-7.957-5.229
	c-0.753-3.643,1.589-7.203,5.229-7.957c3.641-0.754,7.202,1.588,7.957,5.23C534.57,388.632,532.229,392.193,528.586,392.947z
	 M533.895,172.57c-0.753-3.642,1.588-7.204,5.229-7.957c3.645-0.753,7.203,1.587,7.957,5.229c0.754,3.642-1.587,7.204-5.229,7.957
	C538.209,178.553,534.648,176.212,533.895,172.57z M544.428,223.492c-0.753-3.642,1.587-7.203,5.229-7.957
	c3.645-0.753,7.203,1.587,7.956,5.229s-1.587,7.204-5.229,7.957C548.742,229.475,545.181,227.134,544.428,223.492z M554.96,274.416
	c-0.753-3.643,1.587-7.203,5.229-7.957s7.203,1.588,7.957,5.229c0.753,3.646-1.588,7.203-5.229,7.957
	C559.276,280.396,555.714,278.057,554.96,274.416z M565.493,325.335c-0.753-3.642,1.587-7.203,5.229-7.957
	c3.643-0.752,7.204,1.588,7.957,5.229s-1.587,7.199-5.229,7.957C569.809,331.32,566.247,328.978,565.493,325.335z M583.984,381.488
	c-3.643,0.754-7.203-1.588-7.957-5.229s1.587-7.203,5.229-7.957s7.202,1.588,7.955,5.23
	C589.965,377.171,587.625,380.734,583.984,381.488z M589.291,161.111c-0.753-3.642,1.589-7.203,5.229-7.957
	c3.641-0.754,7.202,1.587,7.956,5.229c0.755,3.642-1.587,7.204-5.229,7.957C593.608,167.094,590.045,164.753,589.291,161.111z
	 M599.824,212.033c-0.753-3.642,1.588-7.203,5.229-7.957c3.643-0.753,7.202,1.587,7.956,5.229s-1.589,7.203-5.229,7.957
	C604.14,218.016,600.578,215.675,599.824,212.033z M610.359,262.956c-0.753-3.642,1.588-7.203,5.229-7.957
	c3.645-0.753,7.203,1.588,7.956,5.229c0.754,3.642-1.587,7.203-5.229,7.957C614.674,268.938,611.112,266.598,610.359,262.956z
	 M620.892,313.876c-0.753-3.642,1.589-7.203,5.229-7.955c3.645-0.754,7.203,1.586,7.956,5.229c0.754,3.644-1.586,7.203-5.229,7.957
	C625.206,319.861,621.645,317.519,620.892,313.876z M631.424,364.798c-0.754-3.641,1.589-7.203,5.229-7.955
	c3.642-0.754,7.203,1.586,7.955,5.23c0.754,3.643-1.586,7.202-5.229,7.957C635.74,370.783,632.178,368.441,631.424,364.798z
	 M649.914,420.951c-3.644,0.754-7.202-1.588-7.957-5.229c-0.752-3.643,1.589-7.203,5.229-7.957s7.203,1.588,7.955,5.23
	C655.896,416.634,653.557,420.199,649.914,420.951z M655.223,200.575c-0.754-3.642,1.588-7.204,5.229-7.957
	c3.646-0.753,7.203,1.588,7.957,5.229s-1.588,7.203-5.229,7.957C659.537,206.557,655.977,204.216,655.223,200.575z M665.756,251.497
	c-0.754-3.642,1.59-7.204,5.229-7.957c3.644-0.753,7.202,1.587,7.957,5.229c0.754,3.642-1.589,7.203-5.229,7.958
	C670.071,257.479,666.51,255.138,665.756,251.497z M676.289,302.417c-0.754-3.644,1.589-7.203,5.229-7.955
	c3.644-0.754,7.203,1.586,7.957,5.229s-1.588,7.202-5.229,7.958C680.604,308.402,677.043,306.061,676.289,302.417z M686.823,353.339
	c-0.754-3.641,1.588-7.203,5.229-7.955c3.644-0.754,7.201,1.586,7.956,5.23c0.755,3.643-1.589,7.202-5.229,7.956
	C691.137,359.324,687.576,356.982,686.823,353.339z M705.312,409.492c-3.646,0.754-7.202-1.588-7.956-5.229
	c-0.755-3.641,1.588-7.203,5.229-7.957c3.646-0.754,7.202,1.588,7.956,5.23C711.295,405.177,708.953,408.74,705.312,409.492z
	 M710.619,189.116c-0.752-3.642,1.588-7.204,5.229-7.957s7.203,1.587,7.957,5.229c0.752,3.642-1.588,7.203-5.229,7.957
	C714.936,195.098,711.373,192.757,710.619,189.116z M721.153,240.038c-0.752-3.642,1.588-7.203,5.229-7.957
	c3.642-0.753,7.2,1.587,7.955,5.229c0.754,3.642-1.589,7.203-5.229,7.957C725.469,246.02,721.906,243.679,721.153,240.038z
	 M731.686,290.958c-0.752-3.644,1.589-7.203,5.229-7.955c3.644-0.754,7.203,1.586,7.957,5.229c0.752,3.645-1.588,7.203-5.229,7.957
	C736.002,296.941,732.44,294.602,731.686,290.958z M742.219,341.88c-0.752-3.641,1.588-7.203,5.229-7.955
	c3.642-0.754,7.203,1.586,7.957,5.23c0.752,3.643-1.588,7.204-5.229,7.956C746.535,347.865,742.973,345.523,742.219,341.88z
	 M752.752,392.802c-0.752-3.641,1.588-7.203,5.229-7.955c3.641-0.754,7.202,1.586,7.955,5.23c0.754,3.643-1.587,7.205-5.229,7.957
	C757.069,398.787,753.506,396.445,752.752,392.802z M771.242,448.955c-3.642,0.754-7.203-1.586-7.957-5.229
	c-0.752-3.643,1.588-7.205,5.229-7.957c3.642-0.754,7.203,1.588,7.955,5.229C777.225,444.64,774.885,448.203,771.242,448.955z
	 M776.551,228.579c-0.756-3.642,1.588-7.203,5.229-7.957c3.644-0.753,7.203,1.587,7.957,5.229s-1.588,7.204-5.229,7.957
	C780.866,234.561,777.305,232.22,776.551,228.579z M787.084,279.5c-0.755-3.643,1.588-7.203,5.229-7.955
	c3.644-0.754,7.203,1.586,7.957,5.229c0.755,3.646-1.588,7.203-5.229,7.957C791.399,285.482,787.838,283.143,787.084,279.5z
	 M797.617,330.421c-0.754-3.641,1.588-7.203,5.229-7.955c3.644-0.754,7.202,1.586,7.957,5.23c0.754,3.643-1.59,7.204-5.229,7.956
	C801.932,336.406,798.371,334.064,797.617,330.421z M808.151,381.345c-0.755-3.643,1.588-7.205,5.229-7.957
	c3.646-0.754,7.202,1.588,7.957,5.23c0.754,3.641-1.589,7.202-5.229,7.957C812.465,387.328,808.905,384.988,808.151,381.345z
	 M826.641,437.496c-3.646,0.754-7.203-1.586-7.957-5.229s1.589-7.205,5.229-7.957c3.646-0.754,7.203,1.588,7.957,5.229
	S830.281,436.744,826.641,437.496z M831.949,217.12c-0.754-3.642,1.586-7.203,5.229-7.957c3.642-0.753,7.202,1.587,7.957,5.229
	c0.752,3.642-1.59,7.204-5.229,7.957C836.266,223.102,832.701,220.761,831.949,217.12z M842.483,268.042
	c-0.755-3.646,1.586-7.206,5.229-7.958c3.644-0.754,7.202,1.587,7.956,5.229c0.753,3.644-1.588,7.203-5.229,7.957
	C846.797,274.023,843.235,271.684,842.483,268.042z M853.016,318.962c-0.754-3.641,1.586-7.203,5.229-7.955
	c3.644-0.754,7.203,1.588,7.957,5.23c0.752,3.643-1.588,7.204-5.229,7.956C857.331,324.947,853.768,322.605,853.016,318.962z
	 M863.549,369.886c-0.754-3.643,1.588-7.205,5.229-7.957c3.642-0.754,7.203,1.588,7.957,5.23c0.752,3.643-1.589,7.202-5.229,7.957
	C867.864,375.869,864.301,373.529,863.549,369.886z M874.082,420.808c-0.754-3.643,1.587-7.201,5.229-7.957
	c3.641-0.754,7.202,1.59,7.956,5.23c0.753,3.643-1.588,7.203-5.229,7.957C878.396,426.791,874.834,424.451,874.082,420.808z
	 M892.571,476.958c-3.642,0.754-7.203-1.588-7.957-5.23c-0.752-3.641,1.588-7.199,5.229-7.953c3.642-0.756,7.201,1.588,7.957,5.229
	C898.553,472.644,896.213,476.207,892.571,476.958z M897.879,256.583c-0.754-3.642,1.59-7.203,5.229-7.956
	c3.644-0.753,7.205,1.587,7.957,5.229c0.754,3.643-1.589,7.205-5.229,7.957C902.194,262.564,898.633,260.225,897.879,256.583z"/>
</svg>
