<?xml version="1.0" encoding="utf-8"?>
<!-- Generator: Adobe Illustrator 16.0.0, SVG Export Plug-In . SVG Version: 6.00 Build 0)  -->
<!DOCTYPE svg PUBLIC "-//W3C//DTD SVG 1.1//EN" "http://www.w3.org/Graphics/SVG/1.1/DTD/svg11.dtd">
<svg version="1.1" id="Layer_1" xmlns="http://www.w3.org/2000/svg" xmlns:xlink="http://www.w3.org/1999/xlink" x="0px" y="0px"
	 width="850.395px" height="566.929px" viewBox="0 0 850.395 566.929" enable-background="new 0 0 850.395 566.929"
	 xml:space="preserve">
<path fill="none" stroke="#000000" stroke-linejoin="round" stroke-miterlimit="10" d="M425.197,0C190.367,0,0,126.911,0,283.465
	c0,156.552,190.367,283.464,425.196,283.464c234.831,0,425.196-126.912,425.196-283.464C850.395,126.911,660.027,0,425.197,0z
	 M56.616,368.859c-3.72,0-6.732-3.016-6.732-6.732c0-3.719,3.014-6.731,6.732-6.731c3.718,0,6.731,3.017,6.731,6.731
	C63.348,365.843,60.334,368.859,56.616,368.859z M56.616,316.859c-3.72,0-6.732-3.016-6.732-6.732c0-3.719,3.014-6.73,6.732-6.73
	c3.718,0,6.731,3.016,6.731,6.73C63.348,313.843,60.334,316.859,56.616,316.859z M56.616,264.858c-3.72,0-6.732-3.014-6.732-6.732
	s3.014-6.732,6.732-6.732c3.718,0,6.731,3.014,6.731,6.732S60.334,264.858,56.616,264.858z M56.616,212.858
	c-3.72,0-6.732-3.014-6.732-6.732s3.014-6.732,6.732-6.732c3.718,0,6.731,3.014,6.731,6.732S60.334,212.858,56.616,212.858z
	 M113.186,420.859c-3.719,0-6.731-3.016-6.731-6.732c0-3.719,3.014-6.731,6.731-6.731s6.732,3.017,6.732,6.731
	C119.918,417.843,116.905,420.859,113.186,420.859z M113.186,368.859c-3.719,0-6.731-3.016-6.731-6.732
	c0-3.719,3.014-6.731,6.731-6.731s6.732,3.017,6.732,6.731C119.918,365.843,116.905,368.859,113.186,368.859z M113.186,316.859
	c-3.719,0-6.731-3.016-6.731-6.732c0-3.719,3.014-6.73,6.731-6.73s6.732,3.016,6.732,6.73
	C119.918,313.843,116.905,316.859,113.186,316.859z M113.186,264.858c-3.719,0-6.731-3.014-6.731-6.732s3.014-6.732,6.731-6.732
	s6.732,3.014,6.732,6.732S116.905,264.858,113.186,264.858z M113.186,212.858c-3.719,0-6.731-3.014-6.731-6.732
	s3.014-6.732,6.731-6.732s6.732,3.014,6.732,6.732S116.905,212.858,113.186,212.858z M113.186,160.858
	c-3.719,0-6.731-3.014-6.731-6.732s3.014-6.732,6.731-6.732s6.732,3.014,6.732,6.732S116.905,160.858,113.186,160.858z
	 M169.756,472.859c-3.719,0-6.732-3.016-6.732-6.732c0-3.719,3.015-6.732,6.732-6.732s6.731,3.018,6.731,6.732
	C176.488,469.843,173.475,472.859,169.756,472.859z M169.756,420.859c-3.719,0-6.732-3.016-6.732-6.732
	c0-3.719,3.015-6.731,6.732-6.731s6.731,3.017,6.731,6.731C176.488,417.843,173.475,420.859,169.756,420.859z M169.756,368.859
	c-3.719,0-6.732-3.016-6.732-6.732c0-3.719,3.015-6.731,6.732-6.731s6.731,3.017,6.731,6.731
	C176.488,365.843,173.475,368.859,169.756,368.859z M169.756,316.859c-3.719,0-6.732-3.016-6.732-6.732
	c0-3.719,3.015-6.73,6.732-6.73s6.731,3.016,6.731,6.73C176.488,313.843,173.475,316.859,169.756,316.859z M169.756,264.858
	c-3.719,0-6.732-3.014-6.732-6.732s3.015-6.732,6.732-6.732s6.731,3.014,6.731,6.732S173.475,264.858,169.756,264.858z
	 M169.756,212.858c-3.719,0-6.732-3.014-6.732-6.732s3.015-6.732,6.732-6.732s6.731,3.014,6.731,6.732
	S173.475,212.858,169.756,212.858z M169.756,160.858c-3.719,0-6.732-3.014-6.732-6.732s3.015-6.732,6.732-6.732
	s6.731,3.014,6.731,6.732S173.475,160.858,169.756,160.858z M169.756,108.858c-3.719,0-6.732-3.014-6.732-6.732
	s3.015-6.732,6.732-6.732s6.731,3.014,6.731,6.732S173.475,108.858,169.756,108.858z M226.327,472.859
	c-3.72,0-6.732-3.016-6.732-6.732c0-3.719,3.014-6.732,6.732-6.732c3.718,0,6.731,3.018,6.731,6.732
	C233.059,469.843,230.045,472.859,226.327,472.859z M226.327,420.859c-3.72,0-6.732-3.016-6.732-6.732
	c0-3.719,3.014-6.731,6.732-6.731c3.718,0,6.731,3.017,6.731,6.731C233.059,417.843,230.045,420.859,226.327,420.859z
	 M226.327,368.859c-3.72,0-6.732-3.016-6.732-6.732c0-3.719,3.014-6.731,6.732-6.731c3.718,0,6.731,3.017,6.731,6.731
	C233.059,365.843,230.045,368.859,226.327,368.859z M226.327,316.859c-3.72,0-6.732-3.016-6.732-6.732
	c0-3.719,3.014-6.73,6.732-6.73c3.718,0,6.731,3.016,6.731,6.73C233.059,313.843,230.045,316.859,226.327,316.859z M226.327,264.858
	c-3.72,0-6.732-3.014-6.732-6.732s3.014-6.732,6.732-6.732c3.718,0,6.731,3.014,6.731,6.732S230.045,264.858,226.327,264.858z
	 M226.327,212.858c-3.72,0-6.732-3.014-6.732-6.732s3.014-6.732,6.732-6.732c3.718,0,6.731,3.014,6.731,6.732
	S230.045,212.858,226.327,212.858z M226.327,160.858c-3.72,0-6.732-3.014-6.732-6.732s3.014-6.732,6.732-6.732
	c3.718,0,6.731,3.014,6.731,6.732S230.045,160.858,226.327,160.858z M226.327,108.858c-3.72,0-6.732-3.014-6.732-6.732
	s3.014-6.732,6.732-6.732c3.718,0,6.731,3.014,6.731,6.732S230.045,108.858,226.327,108.858z M282.897,524.859
	c-3.719,0-6.731-3.016-6.731-6.732c0-3.719,3.014-6.732,6.731-6.732s6.732,3.018,6.732,6.732
	C289.629,521.843,286.616,524.859,282.897,524.859z M282.897,472.859c-3.719,0-6.731-3.016-6.731-6.732
	c0-3.719,3.014-6.732,6.731-6.732s6.732,3.018,6.732,6.732C289.629,469.843,286.616,472.859,282.897,472.859z M282.897,420.859
	c-3.719,0-6.731-3.016-6.731-6.732c0-3.719,3.014-6.731,6.731-6.731s6.732,3.017,6.732,6.731
	C289.629,417.843,286.616,420.859,282.897,420.859z M282.897,368.859c-3.719,0-6.731-3.016-6.731-6.732
	c0-3.719,3.014-6.731,6.731-6.731s6.732,3.017,6.732,6.731C289.629,365.843,286.616,368.859,282.897,368.859z M282.897,316.859
	c-3.719,0-6.731-3.016-6.731-6.732c0-3.719,3.014-6.73,6.731-6.73s6.732,3.016,6.732,6.73
	C289.629,313.843,286.616,316.859,282.897,316.859z M282.897,264.858c-3.719,0-6.731-3.014-6.731-6.732s3.014-6.732,6.731-6.732
	s6.732,3.014,6.732,6.732S286.616,264.858,282.897,264.858z M282.897,212.858c-3.719,0-6.731-3.014-6.731-6.732
	s3.014-6.732,6.731-6.732s6.732,3.014,6.732,6.732S286.616,212.858,282.897,212.858z M282.897,160.858
	c-3.719,0-6.731-3.014-6.731-6.732s3.014-6.732,6.731-6.732s6.732,3.014,6.732,6.732S286.616,160.858,282.897,160.858z
	 M282.897,108.858c-3.719,0-6.731-3.014-6.731-6.732s3.014-6.732,6.731-6.732s6.732,3.014,6.732,6.732
	S286.616,108.858,282.897,108.858z M282.897,56.858c-3.719,0-6.731-3.014-6.731-6.732s3.014-6.732,6.731-6.732
	s6.732,3.014,6.732,6.732S286.616,56.858,282.897,56.858z M339.467,524.859c-3.72,0-6.732-3.016-6.732-6.732
	c0-3.719,3.014-6.732,6.732-6.732c3.718,0,6.731,3.018,6.731,6.732C346.198,521.843,343.186,524.859,339.467,524.859z
	 M339.467,472.859c-3.72,0-6.732-3.016-6.732-6.732c0-3.719,3.014-6.732,6.732-6.732c3.718,0,6.731,3.018,6.731,6.732
	C346.198,469.843,343.186,472.859,339.467,472.859z M339.467,420.859c-3.72,0-6.732-3.016-6.732-6.732
	c0-3.719,3.014-6.731,6.732-6.731c3.718,0,6.731,3.017,6.731,6.731C346.198,417.843,343.186,420.859,339.467,420.859z
	 M339.467,368.859c-3.72,0-6.732-3.016-6.732-6.732c0-3.719,3.014-6.731,6.732-6.731c3.718,0,6.731,3.017,6.731,6.731
	C346.198,365.843,343.186,368.859,339.467,368.859z M339.467,316.859c-3.72,0-6.732-3.016-6.732-6.732
	c0-3.719,3.014-6.73,6.732-6.73c3.718,0,6.731,3.016,6.731,6.73C346.198,313.843,343.186,316.859,339.467,316.859z M339.467,264.858
	c-3.72,0-6.732-3.014-6.732-6.732s3.014-6.732,6.732-6.732c3.718,0,6.731,3.014,6.731,6.732S343.186,264.858,339.467,264.858z
	 M339.467,212.858c-3.72,0-6.732-3.014-6.732-6.732s3.014-6.732,6.732-6.732c3.718,0,6.731,3.014,6.731,6.732
	S343.186,212.858,339.467,212.858z M339.467,160.858c-3.72,0-6.732-3.014-6.732-6.732s3.014-6.732,6.732-6.732
	c3.718,0,6.731,3.014,6.731,6.732S343.186,160.858,339.467,160.858z M339.467,108.858c-3.72,0-6.732-3.014-6.732-6.732
	s3.014-6.732,6.732-6.732c3.718,0,6.731,3.014,6.731,6.732S343.186,108.858,339.467,108.858z M339.467,56.858
	c-3.72,0-6.732-3.014-6.732-6.732s3.014-6.732,6.732-6.732c3.718,0,6.731,3.014,6.731,6.732S343.186,56.858,339.467,56.858z
	 M396.037,524.859c-3.719,0-6.731-3.016-6.731-6.732c0-3.719,3.014-6.732,6.731-6.732c3.719,0,6.73,3.018,6.73,6.732
	C402.77,521.843,399.756,524.859,396.037,524.859z M396.037,472.859c-3.719,0-6.731-3.016-6.731-6.732
	c0-3.719,3.014-6.732,6.731-6.732c3.719,0,6.73,3.018,6.73,6.732C402.77,469.843,399.756,472.859,396.037,472.859z M396.037,420.859
	c-3.719,0-6.731-3.016-6.731-6.732c0-3.719,3.014-6.731,6.731-6.731c3.719,0,6.73,3.017,6.73,6.731
	C402.77,417.843,399.756,420.859,396.037,420.859z M396.037,368.859c-3.719,0-6.731-3.016-6.731-6.732
	c0-3.719,3.014-6.731,6.731-6.731c3.719,0,6.73,3.017,6.73,6.731C402.77,365.843,399.756,368.859,396.037,368.859z M396.037,316.859
	c-3.719,0-6.731-3.016-6.731-6.732c0-3.719,3.014-6.73,6.731-6.73c3.719,0,6.73,3.016,6.73,6.73
	C402.77,313.843,399.756,316.859,396.037,316.859z M396.037,264.858c-3.719,0-6.731-3.014-6.731-6.732s3.014-6.732,6.731-6.732
	c3.719,0,6.73,3.014,6.73,6.732S399.756,264.858,396.037,264.858z M396.037,212.858c-3.719,0-6.731-3.014-6.731-6.732
	s3.014-6.732,6.731-6.732c3.719,0,6.73,3.014,6.73,6.732S399.756,212.858,396.037,212.858z M396.037,160.858
	c-3.719,0-6.731-3.014-6.731-6.732s3.014-6.732,6.731-6.732c3.719,0,6.73,3.014,6.73,6.732S399.756,160.858,396.037,160.858z
	 M396.037,108.858c-3.719,0-6.731-3.014-6.731-6.732s3.014-6.732,6.731-6.732c3.719,0,6.73,3.014,6.73,6.732
	S399.756,108.858,396.037,108.858z M396.037,56.858c-3.719,0-6.731-3.014-6.731-6.732s3.014-6.732,6.731-6.732
	c3.719,0,6.73,3.014,6.73,6.732S399.756,56.858,396.037,56.858z M452.607,524.859c-3.721,0-6.731-3.016-6.731-6.732
	c0-3.719,3.014-6.732,6.731-6.732s6.73,3.018,6.73,6.732C459.339,521.843,456.325,524.859,452.607,524.859z M452.607,472.859
	c-3.721,0-6.731-3.016-6.731-6.732c0-3.719,3.014-6.732,6.731-6.732s6.73,3.018,6.73,6.732
	C459.339,469.843,456.325,472.859,452.607,472.859z M452.607,420.859c-3.721,0-6.731-3.016-6.731-6.732
	c0-3.719,3.014-6.731,6.731-6.731s6.73,3.017,6.73,6.731C459.339,417.843,456.325,420.859,452.607,420.859z M452.607,368.859
	c-3.721,0-6.731-3.016-6.731-6.732c0-3.719,3.014-6.731,6.731-6.731s6.73,3.017,6.73,6.731
	C459.339,365.843,456.325,368.859,452.607,368.859z M452.607,316.859c-3.721,0-6.731-3.016-6.731-6.732
	c0-3.719,3.014-6.73,6.731-6.73s6.73,3.016,6.73,6.73C459.339,313.843,456.325,316.859,452.607,316.859z M452.607,264.858
	c-3.721,0-6.731-3.014-6.731-6.732s3.014-6.732,6.731-6.732s6.73,3.014,6.73,6.732S456.325,264.858,452.607,264.858z
	 M452.607,212.858c-3.721,0-6.731-3.014-6.731-6.732s3.014-6.732,6.731-6.732s6.73,3.014,6.73,6.732
	S456.325,212.858,452.607,212.858z M452.607,160.858c-3.721,0-6.731-3.014-6.731-6.732s3.014-6.732,6.731-6.732
	s6.73,3.014,6.73,6.732S456.325,160.858,452.607,160.858z M452.607,108.858c-3.721,0-6.731-3.014-6.731-6.732
	s3.014-6.732,6.731-6.732s6.73,3.014,6.73,6.732S456.325,108.858,452.607,108.858z M452.607,56.858
	c-3.721,0-6.731-3.014-6.731-6.732s3.014-6.732,6.731-6.732s6.73,3.014,6.73,6.732S456.325,56.858,452.607,56.858z M509.178,524.859
	c-3.719,0-6.73-3.016-6.73-6.732c0-3.719,3.015-6.732,6.73-6.732c3.72,0,6.731,3.018,6.731,6.732
	C515.909,521.843,512.896,524.859,509.178,524.859z M509.178,472.859c-3.719,0-6.73-3.016-6.73-6.732
	c0-3.719,3.015-6.732,6.73-6.732c3.72,0,6.731,3.018,6.731,6.732C515.909,469.843,512.896,472.859,509.178,472.859z
	 M509.178,420.859c-3.719,0-6.73-3.016-6.73-6.732c0-3.719,3.015-6.731,6.73-6.731c3.72,0,6.731,3.017,6.731,6.731
	C515.909,417.843,512.896,420.859,509.178,420.859z M509.178,368.859c-3.719,0-6.73-3.016-6.73-6.732
	c0-3.719,3.015-6.731,6.73-6.731c3.72,0,6.731,3.017,6.731,6.731C515.909,365.843,512.896,368.859,509.178,368.859z
	 M509.178,316.859c-3.719,0-6.73-3.016-6.73-6.732c0-3.719,3.015-6.73,6.73-6.73c3.72,0,6.731,3.016,6.731,6.73
	C515.909,313.843,512.896,316.859,509.178,316.859z M509.178,264.858c-3.719,0-6.73-3.014-6.73-6.732s3.015-6.732,6.73-6.732
	c3.72,0,6.731,3.014,6.731,6.732S512.896,264.858,509.178,264.858z M509.178,212.858c-3.719,0-6.73-3.014-6.73-6.732
	s3.015-6.732,6.73-6.732c3.72,0,6.731,3.014,6.731,6.732S512.896,212.858,509.178,212.858z M509.178,160.858
	c-3.719,0-6.73-3.014-6.73-6.732s3.015-6.732,6.73-6.732c3.72,0,6.731,3.014,6.731,6.732S512.896,160.858,509.178,160.858z
	 M509.178,108.858c-3.719,0-6.73-3.014-6.73-6.732s3.015-6.732,6.73-6.732c3.72,0,6.731,3.014,6.731,6.732
	S512.896,108.858,509.178,108.858z M509.178,56.858c-3.719,0-6.73-3.014-6.73-6.732s3.015-6.732,6.73-6.732
	c3.72,0,6.731,3.014,6.731,6.732S512.896,56.858,509.178,56.858z M565.747,524.859c-3.719,0-6.731-3.016-6.731-6.732
	c0-3.719,3.016-6.732,6.731-6.732c3.717,0,6.732,3.018,6.732,6.732C572.48,521.843,569.467,524.859,565.747,524.859z
	 M565.747,472.859c-3.719,0-6.731-3.016-6.731-6.732c0-3.719,3.016-6.732,6.731-6.732c3.717,0,6.732,3.018,6.732,6.732
	C572.48,469.843,569.467,472.859,565.747,472.859z M565.747,420.859c-3.719,0-6.731-3.016-6.731-6.732
	c0-3.719,3.016-6.731,6.731-6.731c3.717,0,6.732,3.017,6.732,6.731C572.48,417.843,569.467,420.859,565.747,420.859z
	 M565.747,368.859c-3.719,0-6.731-3.016-6.731-6.732c0-3.719,3.016-6.731,6.731-6.731c3.717,0,6.732,3.017,6.732,6.731
	C572.48,365.843,569.467,368.859,565.747,368.859z M565.747,316.859c-3.719,0-6.731-3.016-6.731-6.732
	c0-3.719,3.016-6.73,6.731-6.73c3.717,0,6.732,3.016,6.732,6.73C572.48,313.843,569.467,316.859,565.747,316.859z M565.747,264.858
	c-3.719,0-6.731-3.014-6.731-6.732s3.016-6.732,6.731-6.732c3.717,0,6.732,3.014,6.732,6.732S569.467,264.858,565.747,264.858z
	 M565.747,212.858c-3.719,0-6.731-3.014-6.731-6.732s3.016-6.732,6.731-6.732c3.717,0,6.732,3.014,6.732,6.732
	S569.467,212.858,565.747,212.858z M565.747,160.858c-3.719,0-6.731-3.014-6.731-6.732s3.016-6.732,6.731-6.732
	c3.717,0,6.732,3.014,6.732,6.732S569.467,160.858,565.747,160.858z M565.747,108.858c-3.719,0-6.731-3.014-6.731-6.732
	s3.016-6.732,6.731-6.732c3.717,0,6.732,3.014,6.732,6.732S569.467,108.858,565.747,108.858z M565.747,56.858
	c-3.719,0-6.731-3.014-6.731-6.732s3.016-6.732,6.731-6.732c3.717,0,6.732,3.014,6.732,6.732S569.467,56.858,565.747,56.858z
	 M622.318,472.859c-3.721,0-6.731-3.016-6.731-6.732c0-3.719,3.014-6.732,6.731-6.732s6.73,3.018,6.73,6.732
	C629.05,469.843,626.036,472.859,622.318,472.859z M622.318,420.859c-3.721,0-6.731-3.016-6.731-6.732
	c0-3.719,3.014-6.731,6.731-6.731s6.73,3.017,6.73,6.731C629.05,417.843,626.036,420.859,622.318,420.859z M622.318,368.859
	c-3.721,0-6.731-3.016-6.731-6.732c0-3.719,3.014-6.731,6.731-6.731s6.73,3.017,6.73,6.731
	C629.05,365.843,626.036,368.859,622.318,368.859z M622.318,316.859c-3.721,0-6.731-3.016-6.731-6.732
	c0-3.719,3.014-6.73,6.731-6.73s6.73,3.016,6.73,6.73C629.05,313.843,626.036,316.859,622.318,316.859z M622.318,264.858
	c-3.721,0-6.731-3.014-6.731-6.732s3.014-6.732,6.731-6.732s6.73,3.014,6.73,6.732S626.036,264.858,622.318,264.858z
	 M622.318,212.858c-3.721,0-6.731-3.014-6.731-6.732s3.014-6.732,6.731-6.732s6.73,3.014,6.73,6.732
	S626.036,212.858,622.318,212.858z M622.318,160.858c-3.721,0-6.731-3.014-6.731-6.732s3.014-6.732,6.731-6.732
	s6.73,3.014,6.73,6.732S626.036,160.858,622.318,160.858z M622.318,108.858c-3.721,0-6.731-3.014-6.731-6.732
	s3.014-6.732,6.731-6.732s6.73,3.014,6.73,6.732S626.036,108.858,622.318,108.858z M678.889,472.859c-3.719,0-6.73-3.016-6.73-6.732
	c0-3.719,3.015-6.732,6.73-6.732c3.72,0,6.731,3.018,6.731,6.732C685.62,469.843,682.607,472.859,678.889,472.859z M678.889,420.859
	c-3.719,0-6.73-3.016-6.73-6.732c0-3.719,3.015-6.731,6.73-6.731c3.72,0,6.731,3.017,6.731,6.731
	C685.62,417.843,682.607,420.859,678.889,420.859z M678.889,368.859c-3.719,0-6.73-3.016-6.73-6.732c0-3.719,3.015-6.731,6.73-6.731
	c3.72,0,6.731,3.017,6.731,6.731C685.62,365.843,682.607,368.859,678.889,368.859z M678.889,316.859c-3.719,0-6.73-3.016-6.73-6.732
	c0-3.719,3.015-6.73,6.73-6.73c3.72,0,6.731,3.016,6.731,6.73C685.62,313.843,682.607,316.859,678.889,316.859z M678.889,264.858
	c-3.719,0-6.73-3.014-6.73-6.732s3.015-6.732,6.73-6.732c3.72,0,6.731,3.014,6.731,6.732S682.607,264.858,678.889,264.858z
	 M678.889,212.858c-3.719,0-6.73-3.014-6.73-6.732s3.015-6.732,6.73-6.732c3.72,0,6.731,3.014,6.731,6.732
	S682.607,212.858,678.889,212.858z M678.889,160.858c-3.719,0-6.73-3.014-6.73-6.732s3.015-6.732,6.73-6.732
	c3.72,0,6.731,3.014,6.731,6.732S682.607,160.858,678.889,160.858z M678.889,108.858c-3.719,0-6.73-3.014-6.73-6.732
	s3.015-6.732,6.73-6.732c3.72,0,6.731,3.014,6.731,6.732S682.607,108.858,678.889,108.858z M735.459,420.859
	c-3.72,0-6.732-3.016-6.732-6.732c0-3.719,3.016-6.731,6.732-6.731c3.716,0,6.731,3.017,6.731,6.731
	C742.191,417.843,739.178,420.859,735.459,420.859z M735.459,368.859c-3.72,0-6.732-3.016-6.732-6.732
	c0-3.719,3.016-6.731,6.732-6.731c3.716,0,6.731,3.017,6.731,6.731C742.191,365.843,739.178,368.859,735.459,368.859z
	 M735.459,316.859c-3.72,0-6.732-3.016-6.732-6.732c0-3.719,3.016-6.73,6.732-6.73c3.716,0,6.731,3.016,6.731,6.73
	C742.191,313.843,739.178,316.859,735.459,316.859z M735.459,264.858c-3.72,0-6.732-3.014-6.732-6.732s3.016-6.732,6.732-6.732
	c3.716,0,6.731,3.014,6.731,6.732S739.178,264.858,735.459,264.858z M735.459,212.858c-3.72,0-6.732-3.014-6.732-6.732
	s3.016-6.732,6.732-6.732c3.716,0,6.731,3.014,6.731,6.732S739.178,212.858,735.459,212.858z M735.459,160.858
	c-3.72,0-6.732-3.014-6.732-6.732s3.016-6.732,6.732-6.732c3.716,0,6.731,3.014,6.731,6.732S739.178,160.858,735.459,160.858z
	 M792.029,199.394c3.719,0,6.73,3.014,6.73,6.732s-3.015,6.732-6.73,6.732c-3.72,0-6.731-3.014-6.731-6.732
	S788.311,199.394,792.029,199.394z M792.029,368.859c-3.721,0-6.731-3.016-6.731-6.732c0-3.719,3.014-6.731,6.731-6.731
	s6.73,3.017,6.73,6.731C798.761,365.843,795.747,368.859,792.029,368.859z M792.029,316.859c-3.721,0-6.731-3.016-6.731-6.732
	c0-3.719,3.014-6.73,6.731-6.73s6.73,3.016,6.73,6.73C798.761,313.843,795.747,316.859,792.029,316.859z M792.029,264.858
	c-3.721,0-6.731-3.014-6.731-6.732s3.014-6.732,6.731-6.732s6.73,3.014,6.73,6.732S795.747,264.858,792.029,264.858z"/>
</svg>
