<?xml version="1.0" encoding="utf-8"?>
<!-- Generator: Adobe Illustrator 16.0.0, SVG Export Plug-In . SVG Version: 6.00 Build 0)  -->
<!DOCTYPE svg PUBLIC "-//W3C//DTD SVG 1.1//EN" "http://www.w3.org/Graphics/SVG/1.1/DTD/svg11.dtd">
<svg version="1.1" id="Layer_1" xmlns="http://www.w3.org/2000/svg" xmlns:xlink="http://www.w3.org/1999/xlink" x="0px" y="0px"
	 width="566.93px" height="566.929px" viewBox="0 0 566.93 566.929" enable-background="new 0 0 566.93 566.929"
	 xml:space="preserve">
<path fill="none" stroke="#181716" stroke-linejoin="round" stroke-miterlimit="10" d="M96.087,70.758
	C146.042,26.718,211.633,0,283.465,0c156.555,0,283.465,126.912,283.465,283.465c0,156.554-126.91,283.464-283.465,283.464
	C126.912,566.929,0,440.019,0,283.465c0-77.291,30.935-147.357,81.098-198.493c0-1.075-0.451-1.944-1.007-1.943
	c-4.339,2.289-9.282,3.584-14.528,3.584c-17.222,0-31.182-13.96-31.182-31.181c0-17.221,13.96-31.181,31.182-31.181
	c17.221,0,31.181,13.96,31.181,31.181c0,4.611-1.001,8.989-2.799,12.927c0,1.317,0.967,2.383,2.162,2.383L96.087,70.758z"/>
</svg>
