<?xml version="1.0" encoding="utf-8"?>
<!-- Generator: Adobe Illustrator 16.0.0, SVG Export Plug-In . SVG Version: 6.00 Build 0)  -->
<!DOCTYPE svg PUBLIC "-//W3C//DTD SVG 1.1//EN" "http://www.w3.org/Graphics/SVG/1.1/DTD/svg11.dtd">
<svg version="1.1" id="Layer_1" xmlns="http://www.w3.org/2000/svg" xmlns:xlink="http://www.w3.org/1999/xlink" x="0px" y="0px"
	 width="377.814px" height="621.41px" viewBox="0 0 377.814 621.41" enable-background="new 0 0 377.814 621.41"
	 xml:space="preserve">
<path fill="none" stroke="#181716" stroke-linejoin="round" stroke-miterlimit="10" d="M56.78,48.991
	c3.52-5.049,5.583-11.188,5.583-17.81C62.363,13.96,48.403,0,31.182,0C13.961,0,0.001,13.96,0.001,31.181
	c0,17.221,13.961,31.181,31.183,31.181c2.271,0,4.483-0.243,6.616-0.704c1.182-0.001,2.137,1.657,2.136,3.706
	c-2.107,3.662-3.313,7.9-3.313,12.406v518.618c0,13.769,11.259,25.022,25.021,25.022h291.153c13.764,0,25.021-11.259,25.021-25.022
	V77.77c-0.002-13.762-11.259-25.021-25.021-25.021H61.642c-0.627,0-1.25,0.023-1.866,0.071C58.12,52.82,56.779,51.107,56.78,48.991z
	"/>
</svg>
