<?xml version="1.0" encoding="utf-8"?>
<!-- Generator: Adobe Illustrator 16.0.0, SVG Export Plug-In . SVG Version: 6.00 Build 0)  -->
<!DOCTYPE svg PUBLIC "-//W3C//DTD SVG 1.1//EN" "http://www.w3.org/Graphics/SVG/1.1/DTD/svg11.dtd">
<svg version="1.1" id="Layer_1" xmlns="http://www.w3.org/2000/svg" xmlns:xlink="http://www.w3.org/1999/xlink" x="0px" y="0px"
	 width="892.57px" height="416.01px" viewBox="0 0 892.57 416.01" enable-background="new 0 0 892.57 416.01" xml:space="preserve">
<path d="M634.548,405.819c0,0,35.014,25.967,58.782-5c18.562-24.186,141.529-184.361,196.261-255.656
	c15.354-20.004-33.613-44.33-33.613-44.33C576.79-31.569,263.582,4.481,263.582,4.481s-47.096,3.984-63.887,25.855
	C185.937,48.261,52.39,222.226,2.427,287.308c-11.015,14.347,19.021,21.375,19.021,21.375S348.435,269.504,634.548,405.819z
	 M833.56,160.015c2.197-2.999,6.41-3.646,9.408-1.447c2.998,2.199,3.646,6.412,1.446,9.411c-2.198,2.999-6.411,3.646-9.409,1.447
	C832.007,167.227,831.361,163.014,833.56,160.015z M802.803,201.945c2.201-2.999,6.412-3.646,9.412-1.446
	c2.998,2.199,3.646,6.411,1.444,9.412c-2.198,2.998-6.409,3.646-9.409,1.443C801.253,209.157,800.606,204.943,802.803,201.945z
	 M787.943,126.558c2.2-2.999,6.412-3.646,9.412-1.447c2.997,2.199,3.646,6.412,1.442,9.411c-2.198,2.999-6.41,3.646-9.41,1.447
	C786.39,133.769,785.743,129.557,787.943,126.558z M772.05,243.877c2.198-3,6.412-3.646,9.41-1.446c3,2.198,3.646,6.411,1.446,9.409
	c-2.198,2.998-6.412,3.646-9.41,1.447C770.499,251.088,769.851,246.875,772.05,243.877z M757.19,168.488
	c2.196-2.999,6.411-3.646,9.407-1.447c3,2.199,3.646,6.412,1.447,9.41c-2.199,2.999-6.412,3.646-9.41,1.447
	C755.637,175.699,754.99,171.487,757.19,168.488z M742.327,93.101c2.199-2.999,6.412-3.646,9.41-1.447
	c3,2.2,3.646,6.412,1.445,9.411c-2.197,2.999-6.41,3.646-9.408,1.447C740.777,100.312,740.128,96.099,742.327,93.101z
	 M741.296,285.808c2.198-2.998,6.411-3.646,9.409-1.447c2.998,2.199,3.646,6.412,1.447,9.41c-2.199,3-6.412,3.646-9.41,1.446
	C739.744,293.019,739.096,288.806,741.296,285.808z M726.435,210.418c2.197-2.999,6.41-3.646,9.408-1.444
	c2.998,2.198,3.646,6.411,1.446,9.409c-2.198,2.998-6.411,3.646-9.409,1.447C724.882,217.631,724.236,213.418,726.435,210.418z
	 M711.573,135.031c2.199-2.999,6.412-3.646,9.41-1.447s3.646,6.412,1.444,9.411c-2.196,2.999-6.41,3.646-9.407,1.447
	C710.022,142.242,709.374,138.03,711.573,135.031z M710.542,327.739c2.198-3,6.411-3.646,9.409-1.447s3.646,6.412,1.447,9.41
	c-2.199,2.998-6.412,3.645-9.41,1.447C708.99,334.95,708.343,330.737,710.542,327.739z M696.712,59.643
	c2.198-2.999,6.411-3.646,9.409-1.447c2.998,2.2,3.646,6.412,1.447,9.411s-6.412,3.646-9.41,1.447
	C695.159,66.854,694.512,62.642,696.712,59.643z M695.681,252.351c2.198-2.998,6.411-3.646,9.409-1.447
	c2.998,2.199,3.646,6.412,1.446,9.41c-2.198,3-6.411,3.646-9.409,1.446C694.128,259.562,693.483,255.349,695.681,252.351z
	 M680.82,176.961c2.198-2.999,6.412-3.646,9.41-1.447c2.997,2.199,3.646,6.412,1.444,9.41c-2.196,2.998-6.412,3.646-9.412,1.447
	C679.265,184.172,678.62,179.96,680.82,176.961z M679.786,369.668c2.199-2.998,6.412-3.646,9.41-1.446
	c3,2.198,3.646,6.411,1.445,9.409c-2.195,2.998-6.41,3.646-9.408,1.447C678.236,376.879,677.587,372.667,679.786,369.668z
	 M665.957,101.574c2.199-2.999,6.41-3.646,9.41-1.447c2.998,2.199,3.646,6.412,1.447,9.411c-2.199,2.999-6.412,3.646-9.412,1.447
	C664.406,108.785,663.759,104.572,665.957,101.574z M664.925,294.278c2.198-2.996,6.412-3.646,9.412-1.445
	c2.998,2.201,3.646,6.412,1.444,9.412c-2.198,2.998-6.41,3.646-9.41,1.443C663.374,301.491,662.726,297.278,664.925,294.278z
	 M650.065,218.894c2.196-3,6.411-3.646,9.411-1.445c2.996,2.197,3.646,6.41,1.443,9.408c-2.203,2.998-6.41,3.646-9.41,1.446
	C648.512,226.104,647.865,221.892,650.065,218.894z M635.202,143.504c2.199-2.999,6.412-3.646,9.412-1.447
	c2.998,2.199,3.646,6.412,1.443,9.41c-2.197,2.999-6.41,3.646-9.408,1.447C633.652,150.715,633.003,146.502,635.202,143.504z
	 M634.171,336.211c2.198-2.998,6.411-3.646,9.409-1.446c2.998,2.198,3.646,6.411,1.447,9.409s-6.412,3.646-9.41,1.447
	C632.619,343.422,631.971,339.209,634.171,336.211z M620.341,68.116c2.198-2.999,6.412-3.646,9.41-1.447
	c3,2.2,3.646,6.412,1.446,9.411c-2.198,2.999-6.412,3.646-9.41,1.447C618.79,75.327,618.14,71.115,620.341,68.116z M619.31,260.822
	c2.197-2.997,6.41-3.646,9.408-1.446c3,2.199,3.646,6.412,1.446,9.41c-2.198,3-6.411,3.646-9.409,1.445
	C617.759,268.034,617.111,263.819,619.31,260.822z M604.448,185.435c2.199-2.999,6.412-3.646,9.41-1.447
	c3,2.2,3.646,6.412,1.444,9.411c-2.196,2.999-6.41,3.646-9.407,1.447C602.899,192.646,602.249,188.433,604.448,185.435z
	 M589.587,110.046c2.198-2.999,6.411-3.646,9.409-1.447c3,2.199,3.646,6.412,1.447,9.411s-6.412,3.646-9.41,1.447
	S587.387,113.045,589.587,110.046z M588.556,302.754c2.198-3,6.411-3.646,9.409-1.446c2.998,2.198,3.646,6.411,1.446,9.409
	c-2.198,2.998-6.411,3.646-9.409,1.447C587.003,309.965,586.358,305.752,588.556,302.754z M574.726,34.659
	c2.197-2.999,6.41-3.646,9.408-1.447c3,2.2,3.646,6.412,1.446,9.411c-2.198,2.999-6.411,3.646-9.409,1.447
	C573.175,41.87,572.527,37.657,574.726,34.659z M573.695,227.366c2.198-2.998,6.412-3.646,9.41-1.447
	c2.997,2.199,3.646,6.412,1.444,9.41c-2.196,3-6.412,3.646-9.409,1.445C572.14,234.577,571.495,230.363,573.695,227.366z
	 M558.832,151.977c2.199-2.999,6.412-3.646,9.41-1.447c2.998,2.199,3.646,6.412,1.447,9.41c-2.199,2.998-6.412,3.646-9.41,1.447
	C557.281,159.188,556.634,154.976,558.832,151.977z M557.8,344.685c2.201-2.998,6.412-3.646,9.412-1.447
	c2.998,2.199,3.646,6.412,1.444,9.41c-2.196,2.998-6.41,3.646-9.41,1.447C556.249,351.896,555.604,347.683,557.8,344.685z
	 M543.971,76.589c2.199-2.999,6.412-3.646,9.41-1.447c2.998,2.199,3.646,6.412,1.446,9.411c-2.198,2.999-6.411,3.646-9.409,1.447
	C542.419,83.8,541.774,79.588,543.971,76.589z M542.94,269.295c2.198-2.998,6.411-3.646,9.411-1.444
	c2.996,2.198,3.646,6.412,1.443,9.409c-2.197,2.998-6.41,3.646-9.41,1.447C541.387,276.508,540.741,272.293,542.94,269.295z
	 M528.079,193.908c2.199-2.999,6.41-3.646,9.41-1.447c2.998,2.199,3.646,6.412,1.447,9.411c-2.201,2.998-6.412,3.646-9.412,1.446
	C526.527,201.119,525.878,196.906,528.079,193.908z M513.218,118.52c2.198-2.999,6.41-3.646,9.41-1.447
	c2.997,2.199,3.646,6.412,1.446,9.41c-2.201,2.999-6.412,3.646-9.412,1.447C511.665,125.731,511.015,121.518,513.218,118.52z
	 M512.185,311.228c2.197-2.998,6.41-3.646,9.408-1.444c3,2.196,3.646,6.409,1.446,9.407c-2.198,2.998-6.411,3.646-9.409,1.446
	S509.986,314.226,512.185,311.228z M498.356,43.132c2.198-2.999,6.411-3.646,9.411-1.447c2.996,2.2,3.646,6.412,1.445,9.411
	c-2.201,2.999-6.412,3.646-9.412,1.447C496.803,50.343,496.156,46.13,498.356,43.132z M497.323,235.838
	c2.199-2.998,6.412-3.646,9.41-1.446c3,2.2,3.646,6.411,1.444,9.411c-2.196,2.998-6.41,3.646-9.407,1.445
	C495.774,243.049,495.124,238.836,497.323,235.838z M482.462,160.45c2.198-2.999,6.411-3.646,9.409-1.447
	c3,2.2,3.646,6.412,1.447,9.411s-6.412,3.646-9.41,1.447C480.911,167.661,480.262,163.449,482.462,160.45z M467.601,85.062
	c2.197-2.999,6.41-3.646,9.408-1.447c3,2.199,3.646,6.412,1.446,9.411c-2.198,2.999-6.411,3.646-9.409,1.447
	C466.05,92.274,465.402,88.061,467.601,85.062z M466.57,277.771c2.198-3,6.412-3.646,9.41-1.444
	c2.998,2.196,3.646,6.409,1.444,9.407c-2.198,2.998-6.412,3.646-9.409,1.447C465.015,284.979,464.37,280.769,466.57,277.771z
	 M451.707,202.381c2.199-2.999,6.412-3.646,9.41-1.447c2.998,2.199,3.646,6.412,1.447,9.41c-2.199,2.998-6.412,3.646-9.41,1.447
	S449.509,205.379,451.707,202.381z M436.846,126.993c2.199-2.999,6.412-3.646,9.411-1.447c2.998,2.2,3.646,6.412,1.446,9.411
	s-6.411,3.646-9.41,1.447C435.296,134.204,434.648,129.991,436.846,126.993z M421.986,51.605c2.197-2.999,6.412-3.646,9.411-1.447
	c2.999,2.199,3.646,6.412,1.443,9.411c-2.199,2.999-6.412,3.646-9.409,1.447C420.434,58.817,419.786,54.604,421.986,51.605z
	 M420.954,244.312c2.2-2.998,6.412-3.646,9.411-1.442c2.999,2.198,3.646,6.409,1.447,9.407s-6.412,3.646-9.41,1.447
	S418.756,247.31,420.954,244.312z M406.093,168.923c2.2-2.999,6.412-3.646,9.411-1.447c2.999,2.199,3.646,6.412,1.446,9.411
	c-2.198,2.998-6.412,3.646-9.41,1.447C404.541,176.135,403.894,171.921,406.093,168.923z M391.232,93.535
	c2.197-2.999,6.412-3.646,9.41-1.447c2.999,2.199,3.646,6.412,1.445,9.41c-2.2,2.999-6.412,3.646-9.411,1.447
	C389.679,100.746,389.032,96.534,391.232,93.535z M390.199,286.243c2.2-2.998,6.412-3.646,9.411-1.447s3.646,6.412,1.443,9.41
	c-2.195,2.998-6.41,3.646-9.408,1.445C388.648,293.454,388.001,289.241,390.199,286.243z M376.37,18.147
	c2.199-2.999,6.412-3.646,9.41-1.447c2.999,2.2,3.646,6.412,1.447,9.411c-2.2,2.999-6.412,3.646-9.411,1.447
	C374.818,25.358,374.171,21.146,376.37,18.147z M375.339,210.854c2.199-3,6.412-3.646,9.41-1.446c3,2.2,3.646,6.411,1.447,9.411
	c-2.199,2.998-6.412,3.646-9.41,1.445C373.786,218.063,373.138,213.853,375.339,210.854z M360.478,135.466
	c2.197-2.999,6.41-3.646,9.409-1.447c2.999,2.2,3.646,6.412,1.447,9.411c-2.199,2.998-6.412,3.646-9.41,1.447
	C358.926,142.677,358.278,138.464,360.478,135.466z M345.616,60.078c2.199-2.999,6.412-3.646,9.41-1.447
	c2.999,2.199,3.646,6.412,1.446,9.411s-6.411,3.646-9.41,1.447C344.064,67.29,343.416,63.077,345.616,60.078z M344.583,252.786
	c2.199-3,6.412-3.646,9.411-1.447s3.646,6.412,1.447,9.41s-6.412,3.646-9.41,1.445C343.032,259.997,342.385,255.784,344.583,252.786
	z M329.721,177.396c2.199-2.999,6.412-3.646,9.411-1.447c2.999,2.199,3.646,6.412,1.446,9.41c-2.198,2.998-6.411,3.646-9.41,1.447
	C328.171,184.608,327.524,180.395,329.721,177.396z M314.861,102.009c2.199-2.999,6.412-3.646,9.411-1.447
	c2.999,2.2,3.646,6.412,1.445,9.411c-2.197,2.998-6.41,3.646-9.409,1.447C313.31,109.22,312.662,105.006,314.861,102.009z
	 M313.829,294.715c2.199-2.998,6.412-3.646,9.411-1.446c2.999,2.198,3.646,6.412,1.447,9.409c-2.199,2.998-6.412,3.646-9.41,1.447
	C312.277,301.926,311.631,297.713,313.829,294.715z M300.001,26.62c2.198-2.999,6.411-3.646,9.409-1.447
	c2.998,2.199,3.646,6.412,1.447,9.411c-2.2,2.999-6.412,3.646-9.411,1.447C298.447,33.832,297.8,29.619,300.001,26.62z
	 M298.969,219.327c2.198-2.998,6.412-3.646,9.411-1.445c2.999,2.199,3.646,6.41,1.446,9.41c-2.198,2.998-6.412,3.646-9.411,1.445
	C297.416,226.54,296.77,222.325,298.969,219.327z M284.107,143.939c2.197-2.999,6.412-3.646,9.411-1.447
	c2.999,2.199,3.646,6.412,1.444,9.411c-2.196,2.998-6.411,3.646-9.41,1.447C282.553,151.151,281.908,146.937,284.107,143.939z
	 M269.245,68.551c2.199-2.999,6.412-3.646,9.411-1.447s3.646,6.412,1.447,9.41s-6.412,3.646-9.411,1.447
	C267.693,75.762,267.046,71.549,269.245,68.551z M268.213,261.258c2.199-2.998,6.412-3.646,9.411-1.446
	c2.999,2.198,3.646,6.412,1.447,9.41c-2.199,2.997-6.412,3.646-9.411,1.446C266.662,268.469,266.016,264.256,268.213,261.258z
	 M253.353,185.87c2.196-2.999,6.41-3.646,9.409-1.447c2.999,2.199,3.646,6.412,1.446,9.41s-6.412,3.646-9.411,1.447
	C251.8,193.081,251.153,188.868,253.353,185.87z M238.491,110.482c2.199-2.999,6.412-3.646,9.411-1.447
	c2.999,2.199,3.646,6.412,1.447,9.411c-2.199,2.998-6.412,3.646-9.411,1.447C236.94,117.693,236.292,113.479,238.491,110.482z
	 M223.629,35.094c2.199-2.999,6.412-3.646,9.41-1.447c2.999,2.199,3.646,6.412,1.447,9.41s-6.412,3.646-9.411,1.447
	C222.078,42.305,221.431,38.092,223.629,35.094z M222.598,227.801c2.198-3,6.412-3.646,9.41-1.446
	c2.999,2.198,3.646,6.412,1.446,9.41c-2.198,2.997-6.412,3.646-9.411,1.446C221.046,235.013,220.399,230.799,222.598,227.801z
	 M207.736,152.412c2.198-2.999,6.411-3.646,9.409-1.447c2.999,2.199,3.646,6.412,1.446,9.41c-2.198,2.998-6.411,3.646-9.41,1.447
	C206.183,159.623,205.538,155.41,207.736,152.412z M192.875,77.024c2.199-2.999,6.412-3.646,9.41-1.447
	c2.999,2.2,3.646,6.412,1.446,9.411c-2.198,2.998-6.411,3.646-9.41,1.447C191.323,84.235,190.677,80.022,192.875,77.024z
	 M191.844,269.729c2.197-2.998,6.41-3.646,9.409-1.445c2.999,2.197,3.646,6.41,1.447,9.408s-6.412,3.646-9.411,1.447
	C190.291,276.94,189.645,272.729,191.844,269.729z M176.982,194.343c2.199-2.999,6.412-3.646,9.41-1.447
	c2.999,2.199,3.646,6.412,1.446,9.411c-2.198,2.998-6.411,3.646-9.41,1.447C175.43,201.555,174.783,197.34,176.982,194.343z
	 M162.121,118.955c2.199-2.999,6.412-3.646,9.41-1.447c2.998,2.199,3.646,6.412,1.446,9.411c-2.198,2.998-6.412,3.646-9.41,1.447
	C160.568,126.167,159.923,121.953,162.121,118.955z M146.228,236.272c2.199-2.998,6.412-3.646,9.41-1.445
	c2.999,2.197,3.646,6.41,1.445,9.408c-2.197,2.998-6.411,3.646-9.41,1.447C144.676,243.483,144.028,239.271,146.228,236.272z
	 M80.716,252.709c-2.198,2.998-6.411,3.646-9.41,1.447c-2.999-2.199-3.646-6.412-1.447-9.41s6.412-3.646,9.41-1.447
	C82.265,245.498,82.914,249.711,80.716,252.709z M111.469,210.778c-2.199,2.998-6.412,3.646-9.411,1.447
	c-2.999-2.199-3.646-6.416-1.446-9.412c2.198-3,6.411-3.647,9.409-1.447C113.021,203.568,113.668,207.781,111.469,210.778z
	 M126.331,286.168c-2.198,2.998-6.412,3.646-9.411,1.442c-2.999-2.196-3.646-6.409-1.445-9.407c2.197-2.998,6.412-3.646,9.409-1.447
	C127.883,278.958,128.53,283.168,126.331,286.168z M131.366,160.885c2.198-2.999,6.412-3.646,9.41-1.447s3.646,6.412,1.446,9.41
	c-2.2,2.998-6.412,3.646-9.411,1.447C129.814,168.096,129.167,163.883,131.366,160.885z"/>
</svg>
