<?xml version="1.0" encoding="utf-8"?>
<!-- Generator: Adobe Illustrator 16.0.0, SVG Export Plug-In . SVG Version: 6.00 Build 0)  -->
<!DOCTYPE svg PUBLIC "-//W3C//DTD SVG 1.1//EN" "http://www.w3.org/Graphics/SVG/1.1/DTD/svg11.dtd">
<svg version="1.1" id="Layer_1" xmlns="http://www.w3.org/2000/svg" xmlns:xlink="http://www.w3.org/1999/xlink" x="0px" y="0px"
	 width="954.93px" height="416.01px" viewBox="0 0 954.93 416.01" enable-background="new 0 0 954.93 416.01" xml:space="preserve">
<path fill="none" stroke="#000000" stroke-linejoin="round" stroke-miterlimit="10" d="M901.347,157.264
	c3.719,0,6.732,3.014,6.732,6.733c0,3.718-3.014,6.733-6.732,6.733s-6.733-3.015-6.733-6.733
	C894.614,160.278,897.628,157.264,901.347,157.264z M865.163,201.945c2.201-2.999,6.412-3.646,9.412-1.446
	c2.998,2.199,3.646,6.411,1.444,9.412c-2.198,2.998-6.409,3.646-9.409,1.443C863.614,209.157,862.965,204.943,865.163,201.945z
	 M855.73,123.808c3.718,0,6.732,3.014,6.732,6.732s-3.015,6.732-6.732,6.732s-6.732-3.014-6.732-6.732
	S852.012,123.808,855.73,123.808z M834.409,243.877c2.199-3,6.412-3.646,9.41-1.446c3,2.198,3.646,6.411,1.444,9.409
	c-2.196,2.998-6.409,3.646-9.407,1.447C832.86,251.088,832.209,246.875,834.409,243.877z M824.977,165.737
	c3.718,0,6.732,3.014,6.732,6.732c0,3.718-3.015,6.732-6.732,6.732s-6.732-3.014-6.732-6.732
	C818.244,168.751,821.259,165.737,824.977,165.737z M810.115,90.351c3.718,0,6.732,3.014,6.732,6.732s-3.015,6.732-6.732,6.732
	s-6.731-3.014-6.731-6.732S806.397,90.351,810.115,90.351z M809.084,283.058c3.717,0,6.73,3.014,6.73,6.731s-3.014,6.731-6.73,6.731
	c-3.718,0-6.731-3.014-6.731-6.731S805.366,283.058,809.084,283.058z M794.222,207.667c3.719,0,6.732,3.015,6.732,6.732
	c0,3.719-3.014,6.733-6.732,6.733s-6.733-3.015-6.733-6.733C787.489,210.682,790.503,207.667,794.222,207.667z M779.361,132.281
	c3.718,0,6.732,3.014,6.732,6.732c0,3.718-3.015,6.732-6.732,6.732s-6.731-3.014-6.731-6.732
	C772.629,135.295,775.643,132.281,779.361,132.281z M778.329,324.99c3.718,0,6.731,3.013,6.731,6.731c0,3.717-3.014,6.73-6.731,6.73
	c-3.717,0-6.73-3.014-6.73-6.73C771.599,328.003,774.613,324.99,778.329,324.99z M764.5,56.894c3.717,0,6.73,3.014,6.73,6.731
	s-3.014,6.731-6.73,6.731c-3.718,0-6.731-3.014-6.731-6.731S760.782,56.894,764.5,56.894z M763.471,249.601
	c3.717,0,6.73,3.014,6.73,6.731s-3.014,6.731-6.73,6.731c-3.718,0-6.731-3.014-6.731-6.731S759.753,249.601,763.471,249.601z
	 M748.607,174.211c3.718,0,6.731,3.014,6.731,6.731s-3.014,6.731-6.731,6.731s-6.731-3.014-6.731-6.731
	S744.889,174.211,748.607,174.211z M742.146,369.668c2.199-2.998,6.412-3.646,9.41-1.446c3,2.198,3.646,6.411,1.443,9.409
	c-2.193,2.998-6.408,3.646-9.406,1.447C740.595,376.879,739.948,372.667,742.146,369.668z M733.745,98.825
	c3.718,0,6.731,3.013,6.731,6.731c0,3.717-3.014,6.731-6.731,6.731c-3.717,0-6.73-3.014-6.73-6.731
	C727.015,101.838,730.029,98.825,733.745,98.825z M727.284,294.278c2.199-2.996,6.412-3.646,9.412-1.445
	c2.998,2.201,3.646,6.412,1.442,9.412c-2.196,2.998-6.407,3.646-9.407,1.443C725.735,301.491,725.084,297.278,727.284,294.278z
	 M717.852,216.144c3.718,0,6.73,3.014,6.73,6.731s-3.013,6.731-6.73,6.731s-6.731-3.014-6.731-6.731
	S714.134,216.144,717.852,216.144z M697.562,143.504c2.199-2.999,6.412-3.646,9.412-1.447c2.998,2.199,3.646,6.412,1.442,9.41
	c-2.196,2.999-6.409,3.646-9.407,1.447C696.012,150.715,695.364,146.502,697.562,143.504z M701.959,333.461
	c3.717,0,6.73,3.014,6.73,6.731c0,3.717-3.014,6.73-6.73,6.73c-3.718,0-6.731-3.014-6.731-6.73
	C695.228,336.475,698.241,333.461,701.959,333.461z M682.7,68.116c2.199-2.999,6.412-3.646,9.41-1.447
	c3,2.2,3.646,6.412,1.444,9.411c-2.196,2.999-6.409,3.646-9.407,1.447C681.151,75.327,680.5,71.115,682.7,68.116z M681.668,260.821
	c2.197-2.996,6.41-3.646,9.408-1.445c3,2.199,3.646,6.412,1.447,9.41c-2.199,3-6.412,3.646-9.41,1.445
	C680.118,268.034,679.471,263.819,681.668,260.821z M672.236,182.685c3.718,0,6.732,3.014,6.732,6.732s-3.015,6.732-6.732,6.732
	s-6.731-3.014-6.731-6.732S668.518,182.685,672.236,182.685z M657.375,107.297c3.717,0,6.73,3.014,6.73,6.731
	c0,3.718-3.014,6.731-6.73,6.731c-3.718,0-6.731-3.013-6.731-6.731C650.644,110.311,653.657,107.297,657.375,107.297z
	 M656.346,300.003c3.718,0,6.731,3.014,6.731,6.732c0,3.718-3.014,6.731-6.731,6.731s-6.732-3.014-6.732-6.731
	C649.614,303.017,652.628,300.003,656.346,300.003z M637.084,34.659c2.197-2.999,6.41-3.646,9.408-1.447
	c3,2.2,3.646,6.412,1.447,9.411s-6.412,3.646-9.41,1.447C635.534,41.87,634.887,37.657,637.084,34.659z M641.482,224.617
	c3.718,0,6.731,3.014,6.731,6.731c0,3.717-3.014,6.73-6.731,6.73s-6.731-3.014-6.731-6.73
	C634.75,227.631,637.764,224.617,641.482,224.617z M626.62,149.227c3.718,0,6.731,3.014,6.731,6.731s-3.014,6.731-6.731,6.731
	c-3.717,0-6.73-3.014-6.73-6.731S622.904,149.227,626.62,149.227z M620.159,344.685c2.201-2.998,6.412-3.646,9.412-1.443
	c2.998,2.195,3.646,6.41,1.442,9.408c-2.194,2.996-6.407,3.646-9.407,1.444C618.61,351.896,617.963,347.683,620.159,344.685z
	 M611.762,73.838c3.719,0,6.732,3.015,6.732,6.733c0,3.719-3.014,6.733-6.732,6.733s-6.733-3.015-6.733-6.733
	C605.029,76.853,608.043,73.838,611.762,73.838z M610.727,266.545c3.718,0,6.732,3.015,6.732,6.731c0,3.719-3.015,6.732-6.732,6.732
	s-6.732-3.014-6.732-6.732C603.994,269.56,607.009,266.545,610.727,266.545z M595.867,191.158c3.719,0,6.732,3.014,6.732,6.732
	c0,3.718-3.014,6.732-6.732,6.732c-3.718,0-6.731-3.014-6.731-6.732C589.136,194.172,592.15,191.158,595.867,191.158z
	 M581.006,115.77c3.717,0,6.73,3.014,6.73,6.731s-3.014,6.731-6.73,6.731c-3.718,0-6.731-3.014-6.731-6.731
	S577.288,115.77,581.006,115.77z M574.543,311.228c2.197-2.998,6.41-3.646,9.408-1.443c3,2.195,3.646,6.41,1.447,9.408
	s-6.412,3.646-9.41,1.444C572.991,318.438,572.346,314.226,574.543,311.228z M560.715,43.132c2.197-2.999,6.41-3.646,9.41-1.447
	c2.996,2.2,3.646,6.412,1.445,9.411c-2.201,2.999-6.412,3.646-9.412,1.447C559.163,50.343,558.516,46.13,560.715,43.132z
	 M565.111,233.089c3.718,0,6.732,3.014,6.732,6.732c0,3.718-3.015,6.731-6.732,6.731s-6.731-3.014-6.731-6.731
	C558.379,236.103,561.393,233.089,565.111,233.089z M550.25,157.701c3.717,0,6.73,3.014,6.73,6.731s-3.014,6.731-6.73,6.731
	c-3.718,0-6.731-3.014-6.731-6.731S546.532,157.701,550.25,157.701z M529.959,85.062c2.197-2.999,6.41-3.646,9.408-1.447
	c3,2.199,3.646,6.412,1.447,9.411s-6.412,3.646-9.41,1.447C528.409,92.274,527.762,88.061,529.959,85.062z M528.93,277.771
	c2.197-3,6.412-3.646,9.41-1.443c2.998,2.195,3.646,6.408,1.443,9.406c-2.197,2.998-6.412,3.646-9.409,1.447
	C527.375,284.979,526.731,280.769,528.93,277.771z M519.495,199.631c3.718,0,6.731,3.014,6.731,6.731s-3.014,6.731-6.731,6.731
	c-3.717,0-6.73-3.014-6.73-6.731S515.779,199.631,519.495,199.631z M504.637,124.242c3.719,0,6.732,3.014,6.732,6.733
	c0,3.718-3.014,6.733-6.732,6.733s-6.733-3.015-6.733-6.733C497.904,127.256,500.918,124.242,504.637,124.242z M489.773,48.855
	c3.718,0,6.732,3.014,6.732,6.732c0,3.718-3.015,6.732-6.732,6.732s-6.731-3.014-6.731-6.732
	C483.041,51.869,486.055,48.855,489.773,48.855z M488.742,241.562c3.719,0,6.732,3.015,6.732,6.732s-3.014,6.732-6.732,6.732
	c-3.718,0-6.731-3.015-6.731-6.732S485.025,241.562,488.742,241.562z M473.88,166.173c3.718,0,6.731,3.014,6.731,6.732
	c0,3.718-3.014,6.731-6.731,6.731c-3.719,0-6.732-3.014-6.732-6.731C467.148,169.187,470.161,166.173,473.88,166.173z
	 M459.02,90.785c3.718,0,6.732,3.014,6.732,6.732c0,3.718-3.015,6.732-6.732,6.732s-6.732-3.014-6.732-6.732
	C452.287,93.799,455.302,90.785,459.02,90.785z M457.987,283.493c3.718,0,6.732,3.014,6.732,6.732c0,3.717-3.015,6.731-6.732,6.731
	s-6.731-3.015-6.731-6.731C451.255,286.507,454.269,283.493,457.987,283.493z M444.156,15.397c3.719,0,6.732,3.014,6.732,6.732
	c0,3.718-3.014,6.732-6.732,6.732c-3.718,0-6.731-3.014-6.731-6.732C437.425,18.411,440.439,15.397,444.156,15.397z
	 M443.126,208.105c3.718,0,6.731,3.014,6.731,6.732c0,3.719-3.014,6.732-6.731,6.732c-3.719,0-6.732-3.014-6.732-6.732
	C436.394,211.119,439.407,208.105,443.126,208.105z M428.266,132.715c3.719,0,6.732,3.015,6.732,6.733
	c0,3.718-3.014,6.733-6.732,6.733s-6.733-3.015-6.733-6.733C421.532,135.729,424.547,132.715,428.266,132.715z M413.404,57.327
	c3.719,0,6.733,3.014,6.733,6.733c0,3.718-3.015,6.733-6.733,6.733s-6.732-3.015-6.732-6.733
	C406.671,60.341,409.685,57.327,413.404,57.327z M412.37,250.036c3.719,0,6.732,3.014,6.732,6.732c0,3.717-3.014,6.731-6.732,6.731
	c-3.718,0-6.731-3.015-6.731-6.731C405.639,253.05,408.653,250.036,412.37,250.036z M397.511,174.644
	c3.719,0,6.732,3.014,6.732,6.733s-3.014,6.733-6.732,6.733s-6.733-3.014-6.733-6.733S393.792,174.644,397.511,174.644z
	 M382.65,99.258c3.719,0,6.733,3.015,6.733,6.733c0,3.718-3.015,6.733-6.733,6.733s-6.733-3.015-6.733-6.733
	C375.916,102.272,378.931,99.258,382.65,99.258z M381.616,291.964c3.719,0,6.733,3.015,6.733,6.733c0,3.718-3.015,6.733-6.733,6.733
	c-3.718,0-6.732-3.016-6.732-6.733C374.884,294.979,377.899,291.964,381.616,291.964z M367.786,23.87
	c3.719,0,6.732,3.014,6.732,6.732c0,3.718-3.014,6.732-6.732,6.732c-3.718,0-6.731-3.014-6.731-6.732
	C361.055,26.884,364.069,23.87,367.786,23.87z M366.757,216.577c3.718,0,6.732,3.014,6.732,6.732s-3.015,6.733-6.732,6.733
	c-3.719,0-6.733-3.015-6.733-6.733S363.038,216.577,366.757,216.577z M351.895,141.188c3.719,0,6.733,3.015,6.733,6.733
	c0,3.719-3.015,6.733-6.733,6.733s-6.733-3.014-6.733-6.733C345.161,144.203,348.176,141.188,351.895,141.188z M337.032,65.799
	c3.719,0,6.733,3.015,6.733,6.733c0,3.718-3.015,6.733-6.733,6.733c-3.718,0-6.732-3.015-6.732-6.733
	C330.3,68.813,333.315,65.799,337.032,65.799z M336.002,258.507c3.718,0,6.732,3.015,6.732,6.733c0,3.718-3.015,6.733-6.732,6.733
	c-3.719,0-6.733-3.016-6.733-6.733C329.269,261.521,332.283,258.507,336.002,258.507z M321.141,183.12
	c3.718,0,6.731,3.014,6.731,6.732c0,3.718-3.014,6.732-6.731,6.732s-6.732-3.014-6.732-6.732
	C314.408,186.134,317.423,183.12,321.141,183.12z M306.28,107.731c3.719,0,6.733,3.015,6.733,6.733c0,3.719-3.015,6.733-6.733,6.733
	s-6.732-3.015-6.732-6.733C299.547,110.746,302.561,107.731,306.28,107.731z M291.418,32.343c3.718,0,6.731,3.014,6.731,6.732
	c0,3.718-3.014,6.732-6.731,6.732s-6.732-3.014-6.732-6.732C284.686,35.357,287.7,32.343,291.418,32.343z M290.387,225.05
	c3.719,0,6.733,3.015,6.733,6.733c0,3.718-3.015,6.733-6.733,6.733s-6.733-3.016-6.733-6.733
	C283.654,228.064,286.668,225.05,290.387,225.05z M275.525,149.662c3.719,0,6.732,3.014,6.732,6.732
	c0,3.718-3.014,6.732-6.732,6.732c-3.718,0-6.731-3.014-6.731-6.732C268.793,152.676,271.807,149.662,275.525,149.662z
	 M260.663,74.274c3.718,0,6.731,3.014,6.731,6.732c0,3.718-3.014,6.732-6.731,6.732c-3.719,0-6.732-3.014-6.732-6.732
	C253.931,77.288,256.945,74.274,260.663,74.274z M259.632,266.979c3.718,0,6.73,3.014,6.73,6.731s-3.013,6.731-6.73,6.731
	s-6.731-3.014-6.731-6.731S255.914,266.979,259.632,266.979z M244.771,191.592c3.719,0,6.733,3.015,6.733,6.733
	c0,3.718-3.015,6.733-6.733,6.733s-6.732-3.015-6.732-6.733C238.038,194.606,241.052,191.592,244.771,191.592z M229.909,116.205
	c3.718,0,6.731,3.014,6.731,6.732c0,3.718-3.014,6.732-6.731,6.732c-3.719,0-6.732-3.014-6.732-6.732
	C223.177,119.219,226.191,116.205,229.909,116.205z M214.016,233.522c3.718,0,6.731,3.014,6.731,6.731s-3.014,6.731-6.731,6.731
	s-6.73-3.014-6.73-6.731S210.298,233.522,214.016,233.522z M137.646,241.995c3.719,0,6.733,3.014,6.733,6.732
	s-3.015,6.733-6.733,6.733s-6.732-3.015-6.732-6.733S133.927,241.995,137.646,241.995z M168.4,200.064
	c3.719,0,6.733,3.015,6.733,6.733c0,3.719-3.015,6.733-6.733,6.733c-3.718,0-6.732-3.015-6.732-6.733
	C161.667,203.079,164.682,200.064,168.4,200.064z M188.691,286.168c-2.197,2.998-6.412,3.646-9.411,1.442
	c-2.999-2.196-3.646-6.409-1.445-9.407c2.198-2.998,6.412-3.646,9.41-1.447C190.242,278.958,190.89,283.168,188.691,286.168z
	 M199.155,158.134c3.719,0,6.732,3.014,6.732,6.732c0,3.718-3.014,6.732-6.732,6.732c-3.718,0-6.731-3.014-6.731-6.732
	C192.423,161.148,195.437,158.134,199.155,158.134z M61.416,306.175c1.935-2.632,4.872-5.252,7.534-3.543
	c6.304,4.049,14.857,6.051,14.856,6.051c0,0,326.986-39.179,613.101,97.137c0,0,35.014,25.969,58.783-5
	c18.562-24.185,141.526-184.359,196.26-255.654c15.354-20.004-33.613-44.33-33.613-44.33
	C639.151-31.569,325.942,4.481,325.942,4.481s-47.096,3.984-63.887,25.855c-13.51,17.603-142.553,185.699-194.5,253.368
	c-2.799,3.646-7.741,0.691-9.282-2.61c-1.146-2.456-2.834-4.312-4.691-6.251c-3.672-3.824-8.144-6.662-13.23-8.242
	c-2.938-0.912-6.092-1.35-9.168-1.35c-17.22,0-31.18,13.96-31.18,31.18c0,17.221,13.96,31.182,31.18,31.182
	c10.323,0,20.574-5.293,26.05-14.101c0.875-1.407,1.688-2.858,2.386-4.36C59.981,308.362,60.612,307.269,61.416,306.175z"/>
</svg>
