<?xml version="1.0" encoding="utf-8"?>
<!-- Generator: Adobe Illustrator 16.0.0, SVG Export Plug-In . SVG Version: 6.00 Build 0)  -->
<!DOCTYPE svg PUBLIC "-//W3C//DTD SVG 1.1//EN" "http://www.w3.org/Graphics/SVG/1.1/DTD/svg11.dtd">
<svg version="1.1" id="Layer_1" xmlns="http://www.w3.org/2000/svg" xmlns:xlink="http://www.w3.org/1999/xlink" x="0px" y="0px"
	 width="954.934px" height="416.008px" viewBox="0 0 954.934 416.008" enable-background="new 0 0 954.934 416.008"
	 xml:space="preserve">
<path fill="none" stroke="#000000" stroke-linejoin="round" stroke-miterlimit="10" d="M871.125,308.68
	c0,0,30.032-7.027,19.02-21.373C840.182,222.225,706.635,48.26,692.877,30.336C676.086,8.465,628.99,4.481,628.99,4.481
	S315.781-31.57,36.596,100.833c0,0-48.971,24.326-33.615,44.33c54.73,71.294,177.699,231.476,196.261,255.655
	c23.771,30.968,58.782,5,58.782,5C544.139,269.502,871.125,308.68,871.125,308.68z M57.564,169.425
	c-2.998,2.199-7.211,1.552-9.41-1.447c-2.198-2.999-1.551-7.211,1.447-9.411c2.998-2.2,7.211-1.552,9.41,1.447
	C61.211,163.014,60.564,167.226,57.564,169.425z M88.32,211.355c-3,2.201-7.211,1.554-9.409-1.444c-2.201-3-1.554-7.214,1.444-9.412
	c3-2.2,7.211-1.552,9.412,1.446C91.967,204.943,91.318,209.157,88.32,211.355z M103.182,135.968c-3,2.2-7.211,1.552-9.41-1.447
	c-2.201-2.999-1.553-7.211,1.445-9.411c3-2.199,7.211-1.552,9.412,1.447C106.828,129.556,106.18,133.769,103.182,135.968z
	 M119.074,253.288c-2.998,2.198-7.212,1.551-9.41-1.447c-2.199-2.998-1.554-7.211,1.446-9.409c2.998-2.199,7.211-1.554,9.41,1.446
	C122.721,246.875,122.072,251.086,119.074,253.288z M133.936,177.898c-2.998,2.199-7.211,1.552-9.41-1.447
	c-2.198-2.999-1.553-7.211,1.447-9.41c2.998-2.199,7.211-1.552,9.41,1.447C137.582,171.487,136.934,175.699,133.936,177.898z
	 M148.797,102.51c-2.998,2.2-7.211,1.552-9.41-1.447s-1.553-7.211,1.447-9.411c2.998-2.199,7.211-1.551,9.41,1.447
	C152.443,96.097,151.795,100.311,148.797,102.51z M149.828,295.215c-2.998,2.199-7.211,1.555-9.41-1.445
	c-2.199-2.998-1.551-7.211,1.447-9.41c2.997-2.196,7.211-1.551,9.409,1.447C153.474,288.805,152.826,293.018,149.828,295.215z
	 M164.689,219.831c-2.998,2.198-7.211,1.551-9.41-1.447c-2.198-2.998-1.551-7.211,1.447-9.409c2.998-2.2,7.211-1.554,9.41,1.444
	C168.336,213.417,167.689,217.629,164.689,219.831z M179.551,144.441c-2.998,2.199-7.211,1.552-9.41-1.447s-1.551-7.211,1.447-9.411
	s7.211-1.552,9.41,1.447C183.197,138.029,182.551,142.242,179.551,144.441z M180.582,337.148c-2.998,2.195-7.211,1.552-9.41-1.446
	s-1.551-7.211,1.447-9.41s7.211-1.553,9.409,1.447C184.229,330.736,183.582,334.95,180.582,337.148z M194.412,69.053
	c-2.998,2.2-7.211,1.552-9.41-1.447s-1.551-7.211,1.447-9.411c2.997-2.199,7.211-1.551,9.409,1.447
	C198.058,62.64,197.412,66.854,194.412,69.053z M195.443,261.758c-2.998,2.199-7.211,1.555-9.409-1.445
	c-2.199-2.998-1.552-7.211,1.446-9.41c2.998-2.196,7.211-1.551,9.41,1.447S198.443,259.561,195.443,261.758z M210.307,186.372
	c-3,2.199-7.213,1.551-9.412-1.447s-1.551-7.211,1.447-9.41c2.998-2.2,7.211-1.552,9.41,1.447S213.305,184.172,210.307,186.372z
	 M211.338,379.079c-2.998,2.198-7.213,1.551-9.41-1.447c-2.199-2.998-1.553-7.211,1.447-9.409c2.998-2.197,7.211-1.552,9.41,1.446
	C214.984,372.667,214.336,376.877,211.338,379.079z M225.168,110.983c-3,2.199-7.213,1.552-9.412-1.447s-1.551-7.211,1.447-9.411
	c3-2.199,7.211-1.552,9.409,1.447C228.812,104.572,228.166,108.784,225.168,110.983z M226.199,303.689
	c-3,2.201-7.212,1.554-9.41-1.444c-2.199-3-1.554-7.211,1.444-9.412c3-2.199,7.213-1.551,9.412,1.446
	C229.846,297.279,229.197,301.491,226.199,303.689z M241.061,228.301c-3,2.199-7.211,1.553-9.41-1.445
	c-2.198-2.998-1.553-7.211,1.445-9.41c3-2.196,7.213-1.553,9.412,1.447C244.707,221.891,244.059,226.104,241.061,228.301z
	 M255.922,152.914c-2.998,2.199-7.211,1.552-9.41-1.447s-1.553-7.211,1.445-9.41c3-2.2,7.213-1.552,9.412,1.447
	C259.568,146.503,258.92,150.715,255.922,152.914z M256.953,345.622c-2.998,2.198-7.211,1.551-9.41-1.447
	c-2.199-2.997-1.551-7.211,1.447-9.409c2.997-2.197,7.211-1.552,9.409,1.446C260.599,339.209,259.951,343.42,256.953,345.622z
	 M270.783,77.526c-2.998,2.2-7.212,1.552-9.41-1.447c-2.199-2.999-1.554-7.211,1.446-9.411c2.998-2.199,7.211-1.551,9.41,1.447
	C274.429,71.113,273.781,75.327,270.783,77.526z M271.814,270.232c-2.998,2.199-7.211,1.554-9.41-1.446
	c-2.198-2.998-1.553-7.211,1.447-9.41c2.998-2.199,7.211-1.551,9.41,1.446C275.46,263.82,274.812,268.034,271.814,270.232z
	 M286.676,194.845c-2.998,2.199-7.211,1.551-9.41-1.447s-1.553-7.211,1.447-9.411c2.998-2.199,7.211-1.551,9.41,1.447
	C290.322,188.432,289.674,192.645,286.676,194.845z M301.536,119.457c-2.998,2.199-7.21,1.552-9.409-1.447s-1.554-7.211,1.446-9.411
	c2.998-2.199,7.211-1.552,9.41,1.447C305.184,113.045,304.534,117.257,301.536,119.457z M302.568,312.165
	c-2.998,2.199-7.211,1.551-9.409-1.447c-2.199-2.997-1.552-7.211,1.446-9.409c2.998-2.199,7.211-1.554,9.41,1.446
	C306.215,305.75,305.568,309.963,302.568,312.165z M316.398,44.068c-2.998,2.2-7.211,1.552-9.41-1.447s-1.553-7.211,1.447-9.411
	c2.998-2.199,7.211-1.551,9.41,1.447S319.396,41.869,316.398,44.068z M317.43,236.775c-2.998,2.199-7.211,1.554-9.41-1.446
	c-2.199-2.998-1.551-7.211,1.447-9.41s7.211-1.551,9.41,1.447C321.075,230.363,320.43,234.577,317.43,236.775z M332.29,161.387
	c-2.997,2.199-7.211,1.551-9.409-1.447c-2.199-2.998-1.552-7.211,1.446-9.41c2.998-2.2,7.211-1.552,9.41,1.447
	S335.29,159.188,332.29,161.387z M333.323,354.092c-3,2.199-7.213,1.551-9.41-1.445c-2.2-2.996-1.553-7.213,1.445-9.407
	c3-2.199,7.211-1.556,9.412,1.442C336.969,347.68,336.322,351.893,333.323,354.092z M347.152,85.999
	c-2.998,2.199-7.211,1.552-9.41-1.447c-2.198-2.999-1.551-7.211,1.447-9.411c2.998-2.2,7.211-1.552,9.41,1.447
	C350.799,79.587,350.152,83.8,347.152,85.999z M348.186,278.708c-3,2.199-7.213,1.551-9.41-1.447
	c-2.201-2.997-1.553-7.211,1.445-9.409c3-2.199,7.211-1.554,9.412,1.444C351.829,272.292,351.184,276.506,348.186,278.708z
	 M363.047,203.318c-3,2.199-7.211,1.551-9.412-1.447c-2.199-2.999-1.551-7.211,1.446-9.411c3-2.199,7.212-1.552,9.41,1.447
	C366.693,196.906,366.045,201.119,363.047,203.318z M377.907,127.93c-3,2.199-7.211,1.552-9.412-1.447
	c-2.198-2.999-1.551-7.211,1.447-9.41c3-2.2,7.211-1.552,9.41,1.447C381.555,121.518,380.906,125.73,377.907,127.93z
	 M378.939,320.635c-2.998,2.199-7.211,1.551-9.41-1.443c-2.199-2.998-1.553-7.215,1.447-9.409c2.998-2.199,7.211-1.556,9.41,1.442
	S381.938,318.438,378.939,320.635z M392.77,52.542c-3,2.2-7.211,1.552-9.412-1.447c-2.199-2.999-1.551-7.211,1.447-9.411
	c3-2.199,7.211-1.551,9.412,1.447C396.415,46.13,395.768,50.342,392.77,52.542z M393.801,245.249
	c-2.998,2.201-7.211,1.553-9.41-1.445c-2.199-3-1.553-7.211,1.447-9.411c2.998-2.199,7.211-1.552,9.409,1.446
	C397.447,238.837,396.799,243.047,393.801,245.249z M408.661,169.86c-2.998,2.2-7.211,1.552-9.409-1.447
	c-2.199-2.999-1.554-7.211,1.446-9.411c2.998-2.199,7.211-1.551,9.41,1.447S411.659,167.661,408.661,169.86z M423.523,94.472
	c-2.998,2.199-7.211,1.552-9.41-1.447s-1.556-7.211,1.444-9.411c2.998-2.199,7.214-1.552,9.41,1.447
	C427.17,88.061,426.521,92.273,423.523,94.472z M424.555,287.18c-2.998,2.197-7.211,1.551-9.41-1.447
	c-2.196-2.998-1.551-7.211,1.447-9.407c2.998-2.199,7.211-1.556,9.41,1.444C428.2,280.768,427.555,284.98,424.555,287.18z
	 M439.415,211.792c-2.997,2.199-7.211,1.551-9.409-1.447c-2.199-2.998-1.552-7.211,1.446-9.41c2.998-2.199,7.211-1.552,9.41,1.447
	C443.062,205.378,442.415,209.59,439.415,211.792z M454.278,136.403c-2.999,2.199-7.211,1.551-9.41-1.447
	c-2.199-2.999-1.552-7.211,1.446-9.411c2.999-2.199,7.211-1.551,9.407,1.447C457.925,129.991,457.277,134.203,454.278,136.403z
	 M469.14,61.015c-2.999,2.199-7.211,1.552-9.411-1.447c-2.196-2.999-1.551-7.211,1.447-9.411c2.999-2.199,7.211-1.552,9.41,1.447
	S472.139,58.815,469.14,61.015z M470.172,253.723c-2.999,2.197-7.212,1.551-9.41-1.447c-2.2-2.998-1.553-7.211,1.445-9.407
	c2.999-2.199,7.212-1.556,9.411,1.442C473.817,247.309,473.17,251.523,470.172,253.723z M485.033,178.333
	c-3,2.2-7.212,1.551-9.411-1.447c-2.199-2.999-1.553-7.211,1.446-9.411c3-2.2,7.21-1.552,9.412,1.447
	C488.678,171.921,488.031,176.134,485.033,178.333z M499.895,102.945c-2.996,2.199-7.211,1.552-9.408-1.447
	c-2.199-2.999-1.555-7.211,1.443-9.41c3-2.2,7.211-1.552,9.41,1.447C503.541,96.533,502.893,100.746,499.895,102.945z
	 M500.926,295.652c-2.998,2.199-7.211,1.552-9.41-1.446c-2.197-2.998-1.553-7.211,1.447-9.41c2.998-2.198,7.211-1.551,9.409,1.447
	C504.572,289.241,503.924,293.454,500.926,295.652z M514.756,27.557c-3,2.2-7.211,1.552-9.412-1.447
	c-2.199-2.999-1.551-7.211,1.446-9.411c3-2.199,7.212-1.552,9.41,1.447C518.403,21.146,517.754,25.358,514.756,27.557z
	 M515.787,220.264c-2.998,2.199-7.211,1.553-9.409-1.445c-2.199-3-1.554-7.211,1.446-9.409c2.998-2.2,7.211-1.553,9.41,1.444
	C519.432,213.852,518.785,218.064,515.787,220.264z M530.649,144.876c-2.998,2.2-7.211,1.551-9.41-1.447
	c-2.199-2.999-1.553-7.211,1.447-9.411c2.994-2.199,7.211-1.552,9.406,1.447C534.295,138.463,533.647,142.677,530.649,144.876z
	 M545.51,69.488c-2.998,2.199-7.211,1.552-9.41-1.447c-2.197-2.999-1.553-7.211,1.447-9.411c2.998-2.2,7.211-1.552,9.41,1.447
	C549.156,63.076,548.508,67.289,545.51,69.488z M546.541,262.195c-2.997,2.199-7.211,1.552-9.409-1.446
	c-2.199-2.998-1.552-7.211,1.446-9.41c2.998-2.198,7.211-1.553,9.41,1.447C550.188,255.784,549.541,259.997,546.541,262.195z
	 M561.403,186.807c-2.998,2.199-7.211,1.551-9.41-1.447c-2.198-2.999-1.551-7.211,1.447-9.41c2.998-2.199,7.211-1.552,9.406,1.447
	C565.049,180.394,564.403,184.607,561.403,186.807z M576.264,111.418c-2.998,2.2-7.211,1.551-9.41-1.447
	c-2.197-2.999-1.551-7.211,1.447-9.411c2.998-2.199,7.211-1.551,9.41,1.447C579.91,105.006,579.264,109.219,576.264,111.418z
	 M577.295,304.125c-2.998,2.199-7.211,1.551-9.41-1.447s-1.551-7.211,1.447-9.41s7.211-1.551,9.409,1.447
	C580.942,297.711,580.295,301.924,577.295,304.125z M591.125,36.03c-2.998,2.199-7.212,1.552-9.41-1.447
	c-2.199-2.999-1.552-7.211,1.446-9.411c2.998-2.2,7.212-1.552,9.41,1.447C594.772,29.619,594.123,33.831,591.125,36.03z
	 M592.158,228.738c-3,2.199-7.213,1.552-9.412-1.446c-2.198-3-1.551-7.211,1.447-9.41c3-2.198,7.211-1.553,9.408,1.445
	C595.803,222.325,595.156,226.54,592.158,228.738z M607.02,153.349c-2.996,2.199-7.213,1.551-9.408-1.447
	c-2.199-2.999-1.555-7.211,1.443-9.411c3-2.199,7.211-1.552,9.41,1.447C610.663,146.937,610.018,151.15,607.02,153.349z
	 M621.881,77.961c-3,2.199-7.213,1.551-9.412-1.447c-2.197-2.999-1.551-7.211,1.447-9.41c3-2.2,7.211-1.552,9.409,1.447
	C625.526,71.549,624.879,75.762,621.881,77.961z M622.912,270.667c-3,2.199-7.213,1.551-9.409-1.444
	c-2.199-2.998-1.554-7.214,1.444-9.41c3-2.199,7.213-1.554,9.412,1.444C626.557,264.254,625.91,268.467,622.912,270.667z
	 M637.774,195.28c-3,2.199-7.215,1.551-9.41-1.447c-2.199-2.999-1.553-7.211,1.443-9.41c2.998-2.2,7.215-1.552,9.41,1.447
	C641.418,188.867,640.772,193.08,637.774,195.28z M652.635,119.892c-2.998,2.2-7.213,1.551-9.41-1.447
	c-2.197-2.999-1.553-7.211,1.445-9.411c3-2.2,7.213-1.552,9.412,1.447C656.28,113.479,655.633,117.692,652.635,119.892z
	 M667.496,44.504c-2.998,2.199-7.213,1.551-9.409-1.447c-2.199-2.999-1.554-7.211,1.446-9.41c2.998-2.2,7.211-1.552,9.41,1.447
	C671.141,38.091,670.494,42.304,667.496,44.504z M668.528,237.209c-2.998,2.199-7.211,1.553-9.41-1.445
	c-2.198-2.998-1.553-7.213,1.447-9.41c2.998-2.199,7.211-1.555,9.406,1.445C672.174,230.797,671.526,235.012,668.528,237.209z
	 M683.389,161.822c-2.998,2.199-7.211,1.551-9.41-1.447c-2.197-2.999-1.553-7.211,1.447-9.41c2.998-2.2,7.211-1.552,9.41,1.447
	C687.035,155.41,686.387,159.623,683.389,161.822z M698.25,86.434c-2.998,2.2-7.212,1.551-9.41-1.447
	c-2.199-2.999-1.554-7.211,1.446-9.411c2.998-2.199,7.212-1.551,9.41,1.447C701.896,80.021,701.248,84.235,698.25,86.434z
	 M699.281,279.141c-2.998,2.197-7.211,1.551-9.41-1.447c-2.198-2.997-1.551-7.211,1.447-9.407c2.998-2.199,7.211-1.554,9.406,1.444
	C702.926,272.729,702.281,276.941,699.281,279.141z M714.143,203.753c-2.998,2.199-7.211,1.552-9.408-1.446
	c-2.199-3-1.553-7.211,1.445-9.412c2.998-2.2,7.211-1.552,9.41,1.447C717.789,197.34,717.143,201.553,714.143,203.753z
	 M729.004,128.365c-2.998,2.199-7.211,1.551-9.41-1.447c-2.199-2.999-1.551-7.211,1.447-9.411c2.998-2.199,7.211-1.552,9.409,1.447
	C732.651,121.952,732.004,126.166,729.004,128.365z M744.899,245.684c-3,2.197-7.217,1.551-9.412-1.447
	c-2.199-2.997-1.555-7.211,1.445-9.407c2.998-2.199,7.211-1.554,9.41,1.444C748.54,239.271,747.897,243.484,744.899,245.684z
	 M813.305,243.297c2.998-2.197,7.211-1.551,9.41,1.447c2.198,2.998,1.551,7.211-1.447,9.408c-2.998,2.199-7.211,1.553-9.408-1.445
	C809.658,249.709,810.307,245.499,813.305,243.297z M782.551,201.369c2.998-2.2,7.211-1.552,9.41,1.447
	c2.198,2.996,1.551,7.211-1.447,9.411c-2.998,2.197-7.211,1.551-9.41-1.447S779.551,203.568,782.551,201.369z M767.69,276.754
	c2.998-2.197,7.211-1.551,9.406,1.447c2.199,2.998,1.555,7.211-1.443,9.408c-2.998,2.201-7.213,1.555-9.41-1.443
	C764.043,283.167,764.69,278.958,767.69,276.754z M759.76,170.295c-3,2.199-7.213,1.551-9.412-1.447
	c-2.195-2.999-1.551-7.211,1.447-9.41c3-2.2,7.211-1.552,9.409,1.447C763.405,163.883,762.758,168.096,759.76,170.295z"/>
</svg>
