<?xml version="1.0" encoding="utf-8"?>
<!-- Generator: Adobe Illustrator 16.0.0, SVG Export Plug-In . SVG Version: 6.00 Build 0)  -->
<!DOCTYPE svg PUBLIC "-//W3C//DTD SVG 1.1//EN" "http://www.w3.org/Graphics/SVG/1.1/DTD/svg11.dtd">
<svg version="1.1" id="Layer_1" xmlns="http://www.w3.org/2000/svg" xmlns:xlink="http://www.w3.org/1999/xlink" x="0px" y="0px"
	 width="978.207px" height="422.031px" viewBox="0 0 978.207 422.031" enable-background="new 0 0 978.207 422.031"
	 xml:space="preserve">
<path fill="none" stroke="#000000" stroke-linejoin="round" stroke-miterlimit="10" d="M9.872,142.291l195.686,252.336
	c19.109,24.639,58.088,34.514,86.623,21.941l602.702-265.558c28.535-12.572,27.854-31.422-1.521-41.889L619.502,11.529
	C590.129,1.062,540.982-3.039,510.281,2.414L30.95,87.574C0.249,93.029-9.236,117.652,9.872,142.291z M849.944,126.393
	c0-3.719,3.014-6.732,6.73-6.732c3.716,0,6.731,3.014,6.731,6.732c0,3.718-3.018,6.732-6.731,6.732
	C852.957,133.125,849.944,130.112,849.944,126.393z M793.373,126.393c0-3.719,3.015-6.732,6.732-6.732s6.73,3.014,6.73,6.732
	c0,3.718-3.015,6.732-6.73,6.732C796.387,133.125,793.373,130.112,793.373,126.393z M736.801,178.393
	c0-3.718,3.016-6.732,6.731-6.732s6.729,3.014,6.729,6.732c0,3.718-3.014,6.732-6.729,6.732S736.801,182.111,736.801,178.393z
	 M736.801,126.393c0-3.719,3.016-6.732,6.731-6.732s6.729,3.014,6.729,6.732c0,3.718-3.014,6.732-6.729,6.732
	S736.801,130.112,736.801,126.393z M736.801,74.393c0-3.719,3.016-6.732,6.731-6.732s6.729,3.014,6.729,6.732
	c0,3.718-3.014,6.732-6.729,6.732S736.801,78.112,736.801,74.393z M680.233,178.393c0-3.718,3.014-6.732,6.73-6.732
	c3.716,0,6.731,3.014,6.731,6.732c0,3.718-3.018,6.732-6.731,6.732C683.246,185.125,680.233,182.111,680.233,178.393z
	 M680.233,126.393c0-3.719,3.014-6.732,6.73-6.732c3.716,0,6.731,3.014,6.731,6.732c0,3.718-3.018,6.732-6.731,6.732
	C683.246,133.125,680.233,130.112,680.233,126.393z M680.233,74.393c0-3.719,3.014-6.732,6.73-6.732
	c3.716,0,6.731,3.014,6.731,6.732c0,3.718-3.018,6.732-6.731,6.732C683.246,81.125,680.233,78.112,680.233,74.393z M623.662,230.393
	c0-3.717,3.015-6.729,6.732-6.729s6.73,3.02,6.73,6.729c0,3.719-3.015,6.734-6.73,6.734
	C626.676,237.127,623.662,234.111,623.662,230.393z M623.662,178.393c0-3.718,3.015-6.732,6.732-6.732s6.73,3.014,6.73,6.732
	c0,3.718-3.015,6.732-6.73,6.732C626.676,185.125,623.662,182.111,623.662,178.393z M623.662,126.393
	c0-3.719,3.015-6.732,6.732-6.732s6.73,3.014,6.73,6.732c0,3.718-3.015,6.732-6.73,6.732
	C626.676,133.125,623.662,130.112,623.662,126.393z M623.662,74.393c0-3.719,3.015-6.732,6.732-6.732s6.73,3.014,6.73,6.732
	c0,3.718-3.015,6.732-6.73,6.732C626.676,81.125,623.662,78.112,623.662,74.393z M567.09,230.393c0-3.717,3.016-6.729,6.731-6.729
	s6.729,3.02,6.729,6.729c0,3.719-3.015,6.734-6.729,6.734C570.106,237.127,567.09,234.111,567.09,230.393z M567.09,178.393
	c0-3.718,3.016-6.732,6.731-6.732s6.729,3.014,6.729,6.732c0,3.718-3.015,6.732-6.729,6.732
	C570.106,185.125,567.09,182.111,567.09,178.393z M567.09,126.393c0-3.719,3.016-6.732,6.731-6.732s6.729,3.014,6.729,6.732
	c0,3.718-3.015,6.732-6.729,6.732C570.106,133.125,567.09,130.112,567.09,126.393z M567.09,74.393c0-3.719,3.016-6.732,6.731-6.732
	s6.729,3.014,6.729,6.732c0,3.718-3.015,6.732-6.729,6.732C570.106,81.125,567.09,78.112,567.09,74.393z M567.09,22.393
	c0-3.719,3.016-6.732,6.731-6.732s6.729,3.014,6.729,6.732c0,3.718-3.015,6.732-6.729,6.732
	C570.106,29.125,567.09,26.112,567.09,22.393z M510.522,282.395c0-3.719,3.014-6.729,6.73-6.729c3.716,0,6.731,3.016,6.731,6.729
	c0,3.717-3.018,6.732-6.731,6.732C513.535,289.127,510.522,286.111,510.522,282.395z M510.522,230.393
	c0-3.717,3.014-6.729,6.73-6.729c3.716,0,6.731,3.02,6.731,6.729c0,3.719-3.018,6.734-6.731,6.734
	C513.535,237.127,510.522,234.111,510.522,230.393z M510.522,178.393c0-3.718,3.014-6.732,6.73-6.732
	c3.716,0,6.731,3.014,6.731,6.732c0,3.718-3.018,6.732-6.731,6.732C513.535,185.125,510.522,182.111,510.522,178.393z
	 M510.522,126.393c0-3.719,3.014-6.732,6.73-6.732c3.716,0,6.731,3.014,6.731,6.732c0,3.718-3.018,6.732-6.731,6.732
	C513.535,133.125,510.522,130.112,510.522,126.393z M510.522,74.393c0-3.719,3.014-6.732,6.73-6.732
	c3.716,0,6.731,3.014,6.731,6.732c0,3.718-3.018,6.732-6.731,6.732C513.535,81.125,510.522,78.112,510.522,74.393z M510.522,22.393
	c0-3.719,3.014-6.732,6.73-6.732c3.716,0,6.731,3.014,6.731,6.732c0,3.718-3.018,6.732-6.731,6.732
	C513.535,29.125,510.522,26.112,510.522,22.393z M453.951,282.395c0-3.719,3.015-6.729,6.73-6.729c3.721,0,6.731,3.016,6.731,6.729
	c0,3.717-3.014,6.732-6.731,6.732C456.965,289.127,453.951,286.111,453.951,282.395z M453.951,230.393
	c0-3.717,3.015-6.729,6.73-6.729c3.721,0,6.731,3.02,6.731,6.729c0,3.719-3.014,6.734-6.731,6.734
	C456.965,237.127,453.951,234.111,453.951,230.393z M453.951,178.393c0-3.718,3.015-6.732,6.73-6.732
	c3.721,0,6.731,3.014,6.731,6.732c0,3.718-3.014,6.732-6.731,6.732C456.965,185.125,453.951,182.111,453.951,178.393z
	 M453.951,126.393c0-3.719,3.015-6.732,6.73-6.732c3.721,0,6.731,3.014,6.731,6.732c0,3.718-3.014,6.732-6.731,6.732
	C456.965,133.125,453.951,130.112,453.951,126.393z M453.951,74.393c0-3.719,3.015-6.732,6.73-6.732
	c3.721,0,6.731,3.014,6.731,6.732c0,3.718-3.014,6.732-6.731,6.732C456.965,81.125,453.951,78.112,453.951,74.393z M397.38,334.395
	c0-3.719,3.014-6.729,6.731-6.729s6.729,3.014,6.729,6.729c0,3.719-3.015,6.732-6.729,6.732
	C400.394,341.127,397.38,338.111,397.38,334.395z M397.38,282.395c0-3.719,3.014-6.729,6.731-6.729s6.729,3.016,6.729,6.729
	c0,3.717-3.015,6.732-6.729,6.732C400.394,289.127,397.38,286.111,397.38,282.395z M397.38,230.393c0-3.717,3.014-6.729,6.731-6.729
	s6.729,3.02,6.729,6.729c0,3.719-3.015,6.734-6.729,6.734C400.394,237.127,397.38,234.111,397.38,230.393z M397.38,178.393
	c0-3.718,3.014-6.732,6.731-6.732s6.729,3.014,6.729,6.732c0,3.718-3.015,6.732-6.729,6.732
	C400.394,185.125,397.38,182.111,397.38,178.393z M397.38,126.393c0-3.719,3.014-6.732,6.731-6.732s6.729,3.014,6.729,6.732
	c0,3.718-3.015,6.732-6.729,6.732C400.394,133.125,397.38,130.112,397.38,126.393z M397.38,74.393c0-3.719,3.014-6.732,6.731-6.732
	s6.729,3.014,6.729,6.732c0,3.718-3.015,6.732-6.729,6.732C400.394,81.125,397.38,78.112,397.38,74.393z M340.811,334.395
	c0-3.719,3.014-6.729,6.732-6.729c3.718,0,6.731,3.014,6.731,6.729c0,3.719-3.014,6.732-6.731,6.732
	C343.824,341.127,340.811,338.111,340.811,334.395z M340.811,282.395c0-3.719,3.014-6.729,6.732-6.729
	c3.718,0,6.731,3.016,6.731,6.729c0,3.717-3.014,6.732-6.731,6.732C343.824,289.127,340.811,286.111,340.811,282.395z
	 M340.811,230.393c0-3.717,3.014-6.729,6.732-6.729c3.718,0,6.731,3.02,6.731,6.729c0,3.719-3.014,6.734-6.731,6.734
	C343.824,237.127,340.811,234.111,340.811,230.393z M340.811,178.393c0-3.718,3.014-6.732,6.732-6.732
	c3.718,0,6.731,3.014,6.731,6.732c0,3.718-3.014,6.732-6.731,6.732C343.824,185.125,340.811,182.111,340.811,178.393z
	 M340.811,126.393c0-3.719,3.014-6.732,6.732-6.732c3.718,0,6.731,3.014,6.731,6.732c0,3.718-3.014,6.732-6.731,6.732
	C343.824,133.125,340.811,130.112,340.811,126.393z M340.811,74.393c0-3.719,3.014-6.732,6.732-6.732
	c3.718,0,6.731,3.014,6.731,6.732c0,3.718-3.014,6.732-6.731,6.732C343.824,81.125,340.811,78.112,340.811,74.393z M284.241,386.395
	c0-3.719,3.014-6.729,6.731-6.729s6.732,3.014,6.732,6.729c0,3.719-3.015,6.732-6.732,6.732
	C287.254,393.127,284.241,390.111,284.241,386.395z M284.241,334.395c0-3.719,3.014-6.729,6.731-6.729s6.732,3.014,6.732,6.729
	c0,3.719-3.015,6.732-6.732,6.732C287.254,341.127,284.241,338.111,284.241,334.395z M284.241,282.395
	c0-3.719,3.014-6.729,6.731-6.729s6.732,3.016,6.732,6.729c0,3.717-3.015,6.732-6.732,6.732
	C287.254,289.127,284.241,286.111,284.241,282.395z M284.241,230.393c0-3.717,3.014-6.729,6.731-6.729s6.732,3.02,6.732,6.729
	c0,3.719-3.015,6.734-6.732,6.734C287.254,237.127,284.241,234.111,284.241,230.393z M284.241,178.393
	c0-3.718,3.014-6.732,6.731-6.732s6.732,3.014,6.732,6.732c0,3.718-3.015,6.732-6.732,6.732
	C287.254,185.125,284.241,182.111,284.241,178.393z M284.241,126.393c0-3.719,3.014-6.732,6.731-6.732s6.732,3.014,6.732,6.732
	c0,3.718-3.015,6.732-6.732,6.732C287.254,133.125,284.241,130.112,284.241,126.393z M284.241,74.393
	c0-3.719,3.014-6.732,6.731-6.732s6.732,3.014,6.732,6.732c0,3.718-3.015,6.732-6.732,6.732
	C287.254,81.125,284.241,78.112,284.241,74.393z M227.669,386.395c0-3.719,3.014-6.729,6.731-6.729c3.719,0,6.732,3.014,6.732,6.729
	c0,3.719-3.014,6.732-6.732,6.732C230.684,393.127,227.669,390.111,227.669,386.395z M227.669,334.395
	c0-3.719,3.014-6.729,6.731-6.729c3.719,0,6.732,3.014,6.732,6.729c0,3.719-3.014,6.732-6.732,6.732
	C230.684,341.127,227.669,338.111,227.669,334.395z M227.669,282.395c0-3.719,3.014-6.729,6.731-6.729
	c3.719,0,6.732,3.016,6.732,6.729c0,3.717-3.014,6.732-6.732,6.732C230.684,289.127,227.669,286.111,227.669,282.395z
	 M227.669,230.393c0-3.717,3.014-6.729,6.731-6.729c3.719,0,6.732,3.02,6.732,6.729c0,3.719-3.014,6.734-6.732,6.734
	C230.684,237.127,227.669,234.111,227.669,230.393z M227.669,178.393c0-3.718,3.014-6.732,6.731-6.732
	c3.719,0,6.732,3.014,6.732,6.732c0,3.718-3.014,6.732-6.732,6.732C230.684,185.125,227.669,182.111,227.669,178.393z
	 M227.669,126.393c0-3.719,3.014-6.732,6.731-6.732c3.719,0,6.732,3.014,6.732,6.732c0,3.718-3.014,6.732-6.732,6.732
	C230.684,133.125,227.669,130.112,227.669,126.393z M227.669,74.393c0-3.719,3.014-6.732,6.731-6.732
	c3.719,0,6.732,3.014,6.732,6.732c0,3.718-3.014,6.732-6.732,6.732C230.684,81.125,227.669,78.112,227.669,74.393z M171.1,282.395
	c0-3.719,3.014-6.729,6.732-6.729c3.718,0,6.731,3.016,6.731,6.729c0,3.717-3.014,6.732-6.731,6.732
	C174.114,289.127,171.1,286.111,171.1,282.395z M171.1,230.393c0-3.717,3.014-6.729,6.732-6.729c3.718,0,6.731,3.02,6.731,6.729
	c0,3.719-3.014,6.734-6.731,6.734C174.114,237.127,171.1,234.111,171.1,230.393z M171.1,178.393c0-3.718,3.014-6.732,6.732-6.732
	c3.718,0,6.731,3.014,6.731,6.732c0,3.718-3.014,6.732-6.731,6.732C174.114,185.125,171.1,182.111,171.1,178.393z M171.1,126.393
	c0-3.719,3.014-6.732,6.732-6.732c3.718,0,6.731,3.014,6.731,6.732c0,3.718-3.014,6.732-6.731,6.732
	C174.114,133.125,171.1,130.112,171.1,126.393z M114.529,230.393c0-3.717,3.015-6.729,6.732-6.729s6.732,3.02,6.732,6.729
	c0,3.719-3.015,6.734-6.732,6.734S114.529,234.111,114.529,230.393z M114.529,178.393c0-3.718,3.015-6.732,6.732-6.732
	s6.732,3.014,6.732,6.732c0,3.718-3.015,6.732-6.732,6.732S114.529,182.111,114.529,178.393z M114.529,126.393
	c0-3.719,3.015-6.732,6.732-6.732s6.732,3.014,6.732,6.732c0,3.718-3.015,6.732-6.732,6.732S114.529,130.112,114.529,126.393z
	 M57.958,178.393c0-3.718,3.014-6.732,6.731-6.732c3.719,0,6.732,3.014,6.732,6.732c0,3.718-3.014,6.732-6.732,6.732
	C60.973,185.125,57.958,182.111,57.958,178.393z M57.958,126.393c0-3.719,3.014-6.732,6.731-6.732c3.719,0,6.732,3.014,6.732,6.732
	c0,3.718-3.014,6.732-6.732,6.732C60.973,133.125,57.958,130.112,57.958,126.393z"/>
</svg>
