<?xml version="1.0" encoding="utf-8"?>
<!-- Generator: Adobe Illustrator 16.0.0, SVG Export Plug-In . SVG Version: 6.00 Build 0)  -->
<!DOCTYPE svg PUBLIC "-//W3C//DTD SVG 1.1//EN" "http://www.w3.org/Graphics/SVG/1.1/DTD/svg11.dtd">
<svg version="1.1" id="Layer_1" xmlns="http://www.w3.org/2000/svg" xmlns:xlink="http://www.w3.org/1999/xlink" x="0px" y="0px"
	 width="654.641px" height="430.019px" viewBox="0 0 654.641 430.019" enable-background="new 0 0 654.641 430.019"
	 xml:space="preserve">
<path fill="none" stroke="#000000" stroke-linejoin="round" stroke-miterlimit="10" d="M37.958,292.75
	c-0.679,3.656-4.19,6.072-7.848,5.396c-3.655-0.68-6.069-4.188-5.394-7.848c0.677-3.652,4.188-6.068,7.845-5.396
	C36.22,285.582,38.634,289.093,37.958,292.75z M47.427,241.621c-0.677,3.653-4.189,6.069-7.846,5.396
	c-3.656-0.682-6.07-4.188-5.396-7.85c0.676-3.653,4.189-6.068,7.848-5.396C45.689,234.451,48.104,237.962,47.427,241.621z
	 M50.276,182.531c3.719,0,6.732,3.014,6.732,6.732c0,3.718-3.014,6.732-6.732,6.732c-3.718,0-6.731-3.014-6.731-6.732
	C43.544,185.545,46.558,182.531,50.276,182.531z M59.746,131.398c3.718,0,6.732,3.015,6.732,6.733c0,3.719-3.015,6.733-6.732,6.733
	c-3.719,0-6.733-3.015-6.733-6.733C53.013,134.413,56.028,131.398,59.746,131.398z M69.215,80.27c3.718,0,6.731,3.014,6.731,6.732
	s-3.014,6.732-6.731,6.732s-6.732-3.014-6.732-6.732S65.497,80.27,69.215,80.27z M93.582,303.052
	c-0.679,3.654-4.189,6.07-7.847,5.396c-3.655-0.681-6.069-4.191-5.395-7.85c0.677-3.656,4.189-6.068,7.846-5.396
	C91.845,295.882,94.259,299.395,93.582,303.052z M96.431,243.962c3.718,0,6.732,3.015,6.732,6.732c0,3.719-3.015,6.732-6.732,6.732
	s-6.731-3.014-6.731-6.732C89.699,246.977,92.713,243.962,96.431,243.962z M105.901,192.833c3.719,0,6.732,3.014,6.732,6.732
	c0,3.718-3.014,6.732-6.732,6.732c-3.718,0-6.731-3.014-6.731-6.732C99.169,195.847,102.183,192.833,105.901,192.833z
	 M115.37,141.702c3.718,0,6.732,3.014,6.732,6.733c0,3.718-3.015,6.733-6.732,6.733c-3.719,0-6.733-3.015-6.733-6.733
	C108.637,144.716,111.652,141.702,115.37,141.702z M124.839,90.571c3.719,0,6.732,3.015,6.732,6.733
	c0,3.718-3.014,6.733-6.732,6.733s-6.733-3.015-6.733-6.733C118.106,93.585,121.12,90.571,124.839,90.571z M142.586,305.396
	c3.718,0,6.731,3.014,6.731,6.732c0,3.717-3.014,6.731-6.731,6.731s-6.732-3.015-6.732-6.731
	C135.854,308.41,138.868,305.396,142.586,305.396z M158.675,262.223c-0.677,3.655-4.189,6.071-7.845,5.396
	c-3.657-0.679-6.071-4.188-5.396-7.847c0.678-3.653,4.19-6.069,7.846-5.396C156.938,255.055,159.353,258.567,158.675,262.223z
	 M161.525,203.133c3.719,0,6.733,3.015,6.733,6.733c0,3.718-3.015,6.733-6.733,6.733c-3.718,0-6.732-3.015-6.732-6.733
	C154.792,206.147,157.807,203.133,161.525,203.133z M170.994,152.003c3.718,0,6.731,3.014,6.731,6.732
	c0,3.718-3.014,6.732-6.731,6.732c-3.719,0-6.732-3.014-6.732-6.732C164.262,155.017,167.276,152.003,170.994,152.003z
	 M180.464,100.874c3.718,0,6.731,3.014,6.731,6.732c0,3.718-3.014,6.732-6.731,6.732s-6.732-3.014-6.732-6.732
	C173.732,103.888,176.746,100.874,180.464,100.874z M198.211,315.696c3.719,0,6.732,3.015,6.732,6.733s-3.014,6.732-6.732,6.732
	s-6.733-3.014-6.733-6.732S194.492,315.696,198.211,315.696z M214.3,272.524c-0.677,3.656-4.189,6.069-7.846,5.396
	c-3.656-0.678-6.071-4.188-5.396-7.849c0.677-3.653,4.189-6.069,7.846-5.394C212.563,265.354,214.977,268.869,214.3,272.524z
	 M217.15,213.435c3.719,0,6.733,3.014,6.733,6.732s-3.015,6.733-6.733,6.733c-3.718,0-6.732-3.015-6.732-6.733
	S213.432,213.435,217.15,213.435z M226.619,162.306c3.718,0,6.731,3.014,6.731,6.732c0,3.718-3.014,6.732-6.731,6.732
	c-3.719,0-6.732-3.014-6.732-6.732C219.887,165.32,222.901,162.306,226.619,162.306z M236.088,111.173
	c3.719,0,6.732,3.015,6.732,6.733c0,3.718-3.014,6.733-6.732,6.733s-6.733-3.015-6.733-6.733
	C229.355,114.188,232.369,111.173,236.088,111.173z M253.835,325.998c3.719,0,6.732,3.016,6.732,6.733
	c0,3.719-3.014,6.733-6.732,6.733s-6.733-3.015-6.733-6.733C247.102,329.013,250.116,325.998,253.835,325.998z M269.924,282.826
	c-0.677,3.655-4.189,6.071-7.846,5.396c-3.657-0.678-6.071-4.189-5.396-7.848c0.677-3.654,4.189-6.07,7.846-5.396
	C268.187,275.658,270.602,279.171,269.924,282.826z M272.774,223.736c3.719,0,6.733,3.015,6.733,6.732
	c0,3.719-3.015,6.734-6.733,6.734c-3.718,0-6.732-3.016-6.732-6.734C266.041,226.75,269.056,223.736,272.774,223.736z
	 M282.243,172.606c3.718,0,6.731,3.014,6.731,6.732c0,3.718-3.014,6.732-6.731,6.732c-3.719,0-6.732-3.014-6.732-6.732
	C275.511,175.62,278.525,172.606,282.243,172.606z M291.713,121.476c3.719,0,6.732,3.014,6.732,6.733s-3.014,6.733-6.732,6.733
	s-6.733-3.014-6.733-6.733S287.994,121.476,291.713,121.476z M316.077,344.257c-0.677,3.656-4.188,6.072-7.846,5.396
	c-3.656-0.682-6.071-4.188-5.394-7.851c0.677-3.651,4.188-6.065,7.846-5.395C314.342,337.087,316.756,340.603,316.077,344.257z
	 M325.549,293.126c-0.68,3.656-4.19,6.072-7.848,5.396c-3.655-0.679-6.069-4.188-5.394-7.847c0.677-3.653,4.188-6.069,7.845-5.396
	C323.812,285.958,326.226,289.473,325.549,293.126z M335.018,241.998c-0.676,3.655-4.188,6.071-7.846,5.396
	c-3.657-0.682-6.071-4.189-5.396-7.85c0.677-3.654,4.188-6.07,7.849-5.396C333.281,234.83,335.695,238.341,335.018,241.998z
	 M337.865,182.908c3.719,0,6.733,3.014,6.733,6.733c0,3.718-3.015,6.733-6.733,6.733s-6.732-3.015-6.732-6.733
	C331.132,185.922,334.146,182.908,337.865,182.908z M353.955,139.736c-0.678,3.657-4.188,6.071-7.846,5.394
	c-3.656-0.677-6.07-4.189-5.396-7.846c0.68-3.656,4.188-6.071,7.85-5.394C352.221,132.567,354.635,136.08,353.955,139.736z
	 M371.703,354.56c-0.678,3.654-4.188,6.07-7.848,5.396c-3.656-0.682-6.068-4.191-5.396-7.852c0.68-3.65,4.188-6.066,7.85-5.396
	C369.967,347.39,372.381,350.904,371.703,354.56z M381.174,303.43c-0.68,3.655-4.189,6.069-7.85,5.396
	c-3.654-0.678-6.068-4.188-5.395-7.849c0.676-3.653,4.188-6.067,7.846-5.394C379.436,296.259,381.85,299.774,381.174,303.43z
	 M390.643,252.298c-0.678,3.656-4.188,6.07-7.846,5.396c-3.656-0.678-6.07-4.188-5.396-7.848c0.682-3.654,4.189-6.07,7.852-5.394
	C388.906,245.13,391.318,248.643,390.643,252.298z M393.49,193.208c3.72,0,6.734,3.015,6.734,6.734s-3.015,6.734-6.734,6.734
	c-3.719,0-6.733-3.015-6.733-6.734S389.772,193.208,393.49,193.208z M402.961,142.079c3.719,0,6.733,3.015,6.733,6.734
	s-3.015,6.734-6.733,6.734c-3.72,0-6.734-3.015-6.734-6.734S399.241,142.079,402.961,142.079z M427.326,364.863
	c-0.676,3.652-4.188,6.066-7.846,5.393c-3.656-0.676-6.07-4.188-5.396-7.846c0.678-3.656,4.188-6.07,7.846-5.396
	C425.59,357.693,428.006,361.207,427.326,364.863z M436.797,313.732c-0.68,3.652-4.188,6.068-7.848,5.393
	c-3.654-0.676-6.068-4.188-5.396-7.844c0.682-3.656,4.188-6.072,7.85-5.396C435.062,306.562,437.475,310.076,436.797,313.732z
	 M446.266,262.602c-0.676,3.653-4.188,6.069-7.844,5.396c-3.658-0.679-6.072-4.188-5.396-7.849c0.678-3.653,4.188-6.069,7.846-5.394
	C444.529,255.432,446.943,258.944,446.266,262.602z M455.736,211.471c-0.68,3.656-4.188,6.071-7.848,5.394
	c-3.654-0.677-6.068-4.189-5.396-7.846c0.68-3.656,4.188-6.071,7.848-5.394C454,204.302,456.412,207.813,455.736,211.471z
	 M458.586,152.379c3.719,0,6.733,3.015,6.733,6.734c0,3.719-3.015,6.734-6.733,6.734c-3.72,0-6.734-3.015-6.734-6.734
	C451.852,155.394,454.866,152.379,458.586,152.379z M476.33,367.205c3.719,0,6.733,3.015,6.733,6.733s-3.015,6.733-6.733,6.733
	c-3.718,0-6.732-3.015-6.732-6.733S472.613,367.205,476.33,367.205z M492.422,324.033c-0.68,3.654-4.188,6.07-7.848,5.395
	c-3.654-0.678-6.068-4.188-5.396-7.846c0.678-3.658,4.188-6.07,7.85-5.396C490.686,316.865,493.098,320.376,492.422,324.033z
	 M495.271,264.944c3.718,0,6.732,3.015,6.732,6.731c0,3.719-3.015,6.732-6.732,6.732s-6.732-3.014-6.732-6.732
	C488.538,267.958,491.553,264.944,495.271,264.944z M511.361,221.771c-0.68,3.656-4.188,6.07-7.85,5.395
	c-3.652-0.678-6.066-4.188-5.395-7.846c0.678-3.656,4.188-6.071,7.848-5.394C509.625,214.604,512.037,218.117,511.361,221.771z
	 M520.828,170.642c-0.676,3.657-4.188,6.071-7.846,5.394c-3.656-0.677-6.07-4.189-5.396-7.846c0.678-3.656,4.188-6.071,7.846-5.394
	C519.094,163.473,521.508,166.984,520.828,170.642z M538.574,385.464c-0.676,3.656-4.188,6.072-7.844,5.396
	c-3.658-0.683-6.072-4.188-5.396-7.851c0.676-3.649,4.188-6.065,7.844-5.396C536.84,378.296,539.254,381.808,538.574,385.464z
	 M548.045,334.333c-0.678,3.656-4.188,6.07-7.846,5.395c-3.656-0.678-6.07-4.188-5.396-7.846c0.682-3.656,4.188-6.068,7.85-5.396
	C546.309,327.167,548.723,330.677,548.045,334.333z M557.516,283.205c-0.678,3.655-4.188,6.069-7.846,5.396
	c-3.656-0.68-6.072-4.188-5.396-7.85c0.678-3.652,4.188-6.066,7.846-5.395C555.779,276.037,558.193,279.548,557.516,283.205z
	 M566.986,232.074c-0.682,3.656-4.188,6.07-7.85,5.396c-3.654-0.678-6.068-4.189-5.395-7.848c0.678-3.656,4.188-6.072,7.846-5.396
	C565.246,224.906,567.662,228.417,566.986,232.074z M569.834,172.982c3.719,0,6.733,3.015,6.733,6.734
	c0,3.719-3.015,6.734-6.733,6.734c-3.72,0-6.734-3.015-6.734-6.734C563.1,175.997,566.115,172.982,569.834,172.982z M618.84,188.792
	c0.676-3.657,4.188-6.071,7.846-5.394c3.656,0.677,6.07,4.189,5.396,7.846c-0.678,3.657-4.189,6.071-7.848,5.394
	C620.574,195.961,618.16,192.45,618.84,188.792z M609.369,239.923c0.678-3.656,4.188-6.071,7.848-5.396
	c3.654,0.68,6.068,4.188,5.396,7.848c-0.682,3.654-4.188,6.069-7.852,5.396C611.107,247.091,608.693,243.58,609.369,239.923z
	 M606.521,285.546c3.719,0,6.733,3.016,6.733,6.734c0,3.718-3.015,6.732-6.733,6.732s-6.733-3.015-6.733-6.732
	C599.787,288.562,602.802,285.546,606.521,285.546z M594.199,395.767c-0.676,3.654-4.188,6.07-7.846,5.396
	c-3.657-0.676-6.07-4.191-5.396-7.848c0.679-3.654,4.188-6.07,7.847-5.396C592.465,388.597,594.877,392.113,594.199,395.767z
	 M603.67,344.636c-0.678,3.654-4.189,6.07-7.848,5.396c-3.658-0.678-6.068-4.191-5.396-7.854c0.678-3.652,4.188-6.066,7.852-5.395
	C601.934,337.466,604.348,340.982,603.67,344.636z M60.948,49.36c-0.824,0.038-1.208,0.114-1.647-0.747
	c-1.993-3.904,1.914-8.303,2.588-12.056c0.32-1.781,0.473-3.568,0.473-5.376C62.362,13.96,48.402,0,31.181,0S0,13.96,0,31.181
	c0,17.221,13.96,31.181,31.181,31.181c4.35,0,8.493-0.891,12.254-2.501c0.922,0,1.669,1.119,1.667,2.5
	c-1.931,3.147-3.329,6.688-4.043,10.519L0.528,290.235c-3.144,16.858,8.078,33.228,24.938,36.368l551.75,102.889
	c16.857,3.143,33.225-8.078,36.369-24.938L654.113,187.2c3.145-16.859-8.078-33.225-24.938-36.369L77.428,47.943
	c-5.7-1.063-11.343-0.484-16.438,1.399C60.99,49.342,60.95,49.36,60.948,49.36z"/>
</svg>
