<?xml version="1.0" encoding="utf-8"?>
<!-- Generator: Adobe Illustrator 16.0.0, SVG Export Plug-In . SVG Version: 6.00 Build 0)  -->
<!DOCTYPE svg PUBLIC "-//W3C//DTD SVG 1.1//EN" "http://www.w3.org/Graphics/SVG/1.1/DTD/svg11.dtd">
<svg version="1.1" id="Layer_1" xmlns="http://www.w3.org/2000/svg" xmlns:xlink="http://www.w3.org/1999/xlink" x="0px" y="0px"
	 width="654.641px" height="429.965px" viewBox="0 0 654.641 429.965" enable-background="new 0 0 654.641 429.965"
	 xml:space="preserve">
<path fill="none" stroke="#181716" stroke-linejoin="round" stroke-miterlimit="10" d="M60.597,49.439
	c-2.65,1.039-2.111-3.324-1.453-4.531c1.428-2.617,2.312-5.625,2.808-8.562c0.285-1.695,0.409-3.447,0.409-5.167
	c0-17.221-13.96-31.181-31.181-31.181C13.96-0.001,0,13.959,0,31.18c0,17.221,13.96,31.181,31.181,31.181
	c2.095,0,4.19-0.207,6.243-0.626c1.854-0.378,4.488-2.544,6.061-0.434c0.301,0.403,1.008,2.036,0.75,2.514
	c-1.483,2.756-2.571,5.78-3.175,9.012L0.528,290.182c-3.144,16.857,8.078,33.229,24.938,36.367l551.75,102.891
	c16.858,3.145,33.229-8.078,36.369-24.939l40.528-217.354c3.144-16.86-8.078-33.227-24.938-36.37L77.428,47.889
	c-5.694-1.062-11.332-0.485-16.422,1.394C61.006,49.283,60.602,49.438,60.597,49.439z"/>
</svg>
