<?xml version="1.0" encoding="utf-8"?>
<!-- Generator: Adobe Illustrator 16.0.0, SVG Export Plug-In . SVG Version: 6.00 Build 0)  -->
<!DOCTYPE svg PUBLIC "-//W3C//DTD SVG 1.1//EN" "http://www.w3.org/Graphics/SVG/1.1/DTD/svg11.dtd">
<svg version="1.1" id="Layer_1" xmlns="http://www.w3.org/2000/svg" xmlns:xlink="http://www.w3.org/1999/xlink" x="0px" y="0px"
	 width="718.743px" height="739.676px" viewBox="0 0 718.743 739.676" enable-background="new 0 0 718.743 739.676"
	 xml:space="preserve">
<path fill="none" stroke="#000001" stroke-linejoin="round" stroke-miterlimit="10" d="M699.57,59.964
	c-10.792,5.052-17.115,16.471-19.255,27.791v624.173c0,15.263-12.486,27.748-27.75,27.748H14.329
	c-15.262,0-18.919-8.83-8.127-19.621L650.521,75.738c6.554-10.272,9.547-22.965,7.347-35.024l-0.001,0.001
	c-0.965-3.005-1.485-6.209-1.485-9.534C656.381,13.96,670.342,0,687.563,0s31.182,13.96,31.182,31.181
	c0,12.916-7.853,23.997-19.044,28.73L699.57,59.964z"/>
</svg>
