<?xml version="1.0" encoding="utf-8"?>
<!-- Generator: Adobe Illustrator 16.0.0, SVG Export Plug-In . SVG Version: 6.00 Build 0)  -->
<!DOCTYPE svg PUBLIC "-//W3C//DTD SVG 1.1//EN" "http://www.w3.org/Graphics/SVG/1.1/DTD/svg11.dtd">
<svg version="1.1" id="Layer_1" xmlns="http://www.w3.org/2000/svg" xmlns:xlink="http://www.w3.org/1999/xlink" x="0px" y="0px"
	 width="611.445px" height="726.832px" viewBox="0 0 611.445 726.832" enable-background="new 0 0 611.445 726.832"
	 xml:space="preserve">
<path fill="none" stroke="#181716" stroke-linejoin="round" stroke-miterlimit="10" d="M48.454,60.493
	c0-1.248-0.789-2.258-1.764-2.258l0.001,0.001c-4.568,2.625-9.864,4.125-15.51,4.125C13.96,62.362,0,48.402,0,31.181
	C0,13.96,13.96,0,31.181,0c17.221,0,31.181,13.96,31.181,31.181c0,5.574-1.462,10.806-4.024,15.334c0,1.482,1.129,2.682,2.524,2.681
	c3.649-1.72,7.717-2.682,12-2.682h510.235c15.591,0,28.349,12.756,28.349,28.346v623.624c0,15.59-12.756,28.35-28.349,28.35H72.862
	c-15.591,0-28.347-12.76-28.347-28.35V74.86C44.515,69.626,45.953,64.712,48.454,60.493L48.454,60.493z"/>
</svg>
