<?xml version="1.0" encoding="utf-8"?>
<!-- Generator: Adobe Illustrator 16.0.0, SVG Export Plug-In . SVG Version: 6.00 Build 0)  -->
<!DOCTYPE svg PUBLIC "-//W3C//DTD SVG 1.1//EN" "http://www.w3.org/Graphics/SVG/1.1/DTD/svg11.dtd">
<svg version="1.1" id="Layer_1" xmlns="http://www.w3.org/2000/svg" xmlns:xlink="http://www.w3.org/1999/xlink" x="0px" y="0px"
	 width="1555.25px" height="826.339px" viewBox="0 0 1555.25 826.339" enable-background="new 0 0 1555.25 826.339"
	 xml:space="preserve">
<g>
	<path fill="none" stroke="#000001" stroke-linejoin="round" stroke-miterlimit="10" d="M1311.216,280.579h-23.803
		c-0.824,0-1.5,0.675-1.5,1.5c0,0.825,0.676,1.5,1.5,1.5h25.373c0.826,0,1.5-0.675,1.5-1.5c0-0.271-0.078-0.522-0.205-0.742
		L1311.216,280.579z"/>
	<path fill="none" stroke="#000001" stroke-linejoin="round" stroke-miterlimit="10" d="M807.449,498.589
		c0,0-0.082-0.004-0.201-0.008c-0.125-0.006-0.305-0.014-0.551-0.023c-0.379-0.016-0.909-0.039-1.558-0.066
		c-0.099-0.004-0.209-0.008-0.313-0.012c-0.121-0.006-0.229-0.01-0.359-0.016c-0.428-0.02-0.904-0.041-1.42-0.061
		c-1.976-0.084-4.584-0.193-7.742-0.328c-0.004,0-0.01,0-0.014,0c-3.601-0.152-7.903-0.336-12.807-0.545
		c-0.294-0.012-0.591-0.025-0.888-0.037c-0.597-0.025-1.199-0.051-1.813-0.078c-1.329-0.057-2.695-0.113-4.101-0.174
		c-0.489-0.021-0.979-0.043-1.477-0.062c-0.034-0.002-0.067-0.004-0.1-0.006c-4.854-0.207-10.119-0.432-15.718-0.672
		c-0.585-0.023-1.173-0.049-1.764-0.074c-0.485-0.021-0.979-0.043-1.466-0.062c-0.63-0.027-1.264-0.055-1.901-0.082
		c-0.97-0.043-1.952-0.084-2.938-0.127c-0.257-0.01-0.512-0.021-0.769-0.033c-3.89-0.166-7.914-0.34-12.032-0.518
		c-0.603-0.025-1.21-0.051-1.817-0.078c-0.211-0.006-0.42-0.018-0.632-0.027c-1.197-0.051-2.403-0.102-3.616-0.156
		c-0.105-0.004-0.211-0.008-0.316-0.014c-1.14-0.047-2.288-0.096-3.44-0.148c-0.054-0.002-0.104-0.004-0.157-0.006
		c-1.097-0.047-2.2-0.096-3.308-0.143c-0.434-0.02-0.867-0.039-1.303-0.057c-1.964-0.086-3.943-0.172-5.936-0.258
		c-0.589-0.025-1.179-0.051-1.772-0.076c-0.78-0.033-1.562-0.068-2.347-0.102c-0.685-0.029-1.371-0.061-2.058-0.09
		c-2.033-0.088-4.077-0.178-6.132-0.268c-0.503-0.021-1.006-0.045-1.51-0.064c-44.712-1.949-93.529-4.119-123.849-5.604
		c-0.001,0-0.002,0-0.003,0c-0.966-0.047-1.915-0.094-2.843-0.141c-5.4-0.26-14.729-7.15-11.443-11.438
		c0.475-0.619,0.96-1.25,1.45-1.891c0.175-0.225,0.354-0.459,0.529-0.688c0.314-0.41,0.63-0.818,0.949-1.234
		c0.226-0.293,0.454-0.592,0.684-0.889c0.28-0.365,0.562-0.73,0.847-1.102c0.238-0.309,0.478-0.621,0.718-0.932
		c0.285-0.369,0.57-0.74,0.858-1.113c0.247-0.322,0.496-0.645,0.746-0.969c0.291-0.377,0.584-0.756,0.879-1.139
		c0.252-0.328,0.506-0.656,0.762-0.986c0.29-0.377,0.583-0.754,0.876-1.135c0.249-0.322,0.498-0.645,0.75-0.969
		c0.352-0.457,0.708-0.916,1.065-1.379c0.197-0.256,0.395-0.51,0.594-0.768c0.394-0.51,0.793-1.023,1.192-1.539
		c0.183-0.236,0.363-0.471,0.549-0.707c2.375-3.066,4.826-6.217,7.329-9.426c0.016-0.021,0.03-0.041,0.047-0.062
		c5.272-6.762,10.775-13.77,16.287-20.721c0.016-0.02,0.03-0.039,0.047-0.059c0.661-0.834,1.321-1.666,1.981-2.498
		c0.037-0.045,0.073-0.092,0.11-0.139c4.122-5.186,8.229-10.312,12.23-15.255c0.003-0.003,0.007-0.007,0.009-0.01
		c0.662-0.817,1.319-1.627,1.974-2.433c0.014-0.017,0.026-0.033,0.04-0.05c17.088-21.023,31.891-38.178,36.859-41.033h0.001
		c0.001-0.002,0.002-0.002,0.004-0.003c0.148-0.086,0.287-0.153,0.419-0.214c0.041-0.018,0.079-0.032,0.117-0.049
		c0.094-0.038,0.182-0.068,0.265-0.092c0.036-0.009,0.071-0.021,0.103-0.027c0.108-0.022,0.209-0.037,0.298-0.031
		c24.598,1.409,194.578,13.071,194.578,13.071c0.97,0.08,0.565-2.74-0.401-2.859c-90.782-10.354-217.308-23.144-302.104-33.094
		c-8.4-0.987-18.717,0.383-24.52,6.526c-2.171,2.306-4.314,4.625-6.426,6.958c-0.017,0.018-0.031,0.035-0.048,0.053
		c-2.104,2.324-4.179,4.66-6.222,7.007c0,0.001-0.001,0.002-0.001,0.002c-4.109,4.721-8.088,9.482-11.929,14.273
		c-0.804,1.002-1.603,2.004-2.393,3.008c-1.065,1.354-2.12,2.71-3.164,4.068c-0.209,0.272-0.415,0.546-0.624,0.819
		c-0.806,1.056-1.606,2.111-2.399,3.169c-0.298,0.396-0.592,0.793-0.888,1.189c-0.705,0.949-1.407,1.897-2.102,2.847
		c-0.305,0.417-0.608,0.836-0.912,1.253c-0.708,0.977-1.409,1.953-2.104,2.932c-0.257,0.362-0.518,0.725-0.773,1.087
		c-0.867,1.227-1.724,2.455-2.571,3.683c-0.068,0.102-0.142,0.203-0.211,0.305c-0.945,1.376-1.879,2.752-2.799,4.128
		c-0.13,0.192-0.255,0.387-0.384,0.58c-0.759,1.14-1.509,2.278-2.249,3.418c-0.241,0.371-0.479,0.741-0.718,1.112
		c-0.631,0.98-1.256,1.958-1.873,2.937c-0.251,0.396-0.501,0.797-0.749,1.191c-0.619,0.994-1.231,1.984-1.835,2.975
		c-0.215,0.354-0.434,0.707-0.647,1.061c-0.72,1.188-1.428,2.375-2.125,3.561c-0.082,0.139-0.167,0.279-0.249,0.418
		c-0.809,1.381-1.604,2.76-2.383,4.137c-0.051,0.092-0.101,0.182-0.151,0.273c-0.697,1.232-1.381,2.465-2.052,3.695
		c-0.179,0.328-0.353,0.654-0.53,0.982c-0.544,1.004-1.08,2.008-1.607,3.012c-0.197,0.375-0.393,0.748-0.587,1.123
		c-0.515,0.99-1.022,1.979-1.521,2.967c-0.172,0.338-0.345,0.682-0.515,1.021c-0.567,1.135-1.123,2.27-1.667,3.4
		c-0.084,0.174-0.171,0.35-0.255,0.523c-0.649,1.359-1.283,2.713-1.899,4.064c-0.457,1.002-0.904,2.002-1.338,3.012
		c-0.713,1.623-1.396,3.242-2.06,4.854c-0.135,0.326-0.269,0.656-0.402,0.984c-0.645,1.588-1.272,3.172-1.866,4.746
		c-0.124,0.33-0.237,0.678-0.343,1.033c-0.028,0.094-0.056,0.188-0.081,0.281c-0.089,0.314-0.172,0.639-0.248,0.971
		c-0.013,0.051-0.025,0.1-0.037,0.152c-0.086,0.391-0.163,0.795-0.233,1.207c-0.013,0.072-0.022,0.148-0.035,0.223
		c-0.06,0.371-0.113,0.75-0.161,1.135c-0.007,0.059-0.015,0.111-0.021,0.168c-0.054,0.455-0.1,0.916-0.137,1.387
		c0,0.002,0,0.004,0,0.006c-0.037,0.469-0.066,0.943-0.088,1.424c-0.001,0.037-0.003,0.072-0.005,0.107
		c-0.042,0.984-0.056,1.986-0.039,2.994c0.016,1.01,0.057,2.02,0.121,3.02c0.024,0.395,0.055,0.785,0.087,1.174
		c0.001,0.012,0.001,0.021,0.002,0.033c0.031,0.377,0.065,0.75,0.103,1.119c0.003,0.021,0.005,0.045,0.007,0.066
		c0.037,0.361,0.076,0.721,0.118,1.074c0.002,0.023,0.005,0.047,0.008,0.07c0.043,0.359,0.088,0.717,0.136,1.066
		c0.002,0.014,0.004,0.029,0.006,0.043c0.248,1.828,0.559,3.527,0.901,4.986c0.014,0.051,0.024,0.1,0.037,0.154
		c0.056,0.225,0.109,0.445,0.164,0.658c0.021,0.072,0.039,0.146,0.059,0.217c0.049,0.186,0.099,0.363,0.148,0.541
		c0.023,0.08,0.047,0.156,0.07,0.234c0.047,0.158,0.095,0.312,0.143,0.459c0.025,0.078,0.052,0.156,0.076,0.232
		c0.047,0.137,0.094,0.27,0.141,0.396c0.026,0.072,0.054,0.146,0.08,0.215c0.048,0.123,0.095,0.236,0.142,0.346
		c0.025,0.064,0.053,0.129,0.079,0.189c0.05,0.111,0.1,0.213,0.15,0.311c0.022,0.045,0.045,0.096,0.067,0.139
		c0.073,0.135,0.146,0.258,0.218,0.363c1.752,2.539,12.693,10.695,20.449,10.615c2.08-0.02,4.189-0.039,6.313-0.059
		c0.873-0.01,1.753-0.018,2.634-0.025c1.298-0.012,2.605-0.023,3.919-0.035c0.953-0.006,1.902-0.016,2.864-0.025
		c1.625-0.014,3.265-0.025,4.91-0.041c1.58-0.014,3.171-0.025,4.77-0.041c0.944-0.006,1.888-0.014,2.839-0.021
		c1.339-0.012,2.683-0.021,4.034-0.031c0.85-0.006,1.706-0.014,2.56-0.021c5.213-0.039,10.507-0.078,15.872-0.117
		c0.023,0,0.047,0,0.07,0c3.878-0.027,7.778-0.057,11.722-0.082c9.19-0.062,18.546-0.119,27.991-0.176
		c0.309-0.002,0.617-0.004,0.926-0.004c1.186-0.006,2.37-0.012,3.559-0.02c0.431-0.002,0.861-0.004,1.294-0.008
		c2.298-0.014,4.6-0.025,6.905-0.037c0.594-0.004,1.187-0.008,1.78-0.01c1.263-0.01,2.525-0.016,3.789-0.021
		c0.396-0.004,0.792-0.006,1.188-0.008c1.4-0.004,2.803-0.012,4.204-0.021c0.154,0,0.31-0.002,0.464-0.002
		c2.743-0.014,5.489-0.025,8.237-0.041c0.334-0.002,0.668-0.004,1.002-0.006c1.292-0.006,2.583-0.012,3.875-0.018
		c0.463-0.004,0.927-0.006,1.391-0.008c1.271-0.006,2.545-0.012,3.816-0.018c0.4-0.002,0.8-0.004,1.2-0.006
		c4.175-0.02,8.346-0.037,12.507-0.057c0.523-0.002,1.047-0.004,1.569-0.008c1.306-0.006,2.61-0.012,3.913-0.018
		c0.228,0,0.455-0.002,0.682-0.002c2.855-0.012,5.703-0.023,8.544-0.035c0.172,0,0.346-0.002,0.519-0.002
		c1.023-0.004,2.046-0.008,3.067-0.012c0.751-0.004,1.502-0.006,2.252-0.01c1.218-0.004,2.434-0.01,3.646-0.014
		c0.371-0.002,0.741-0.002,1.111-0.004c5.821-0.021,11.598-0.043,17.314-0.061c0.559-0.002,1.114-0.004,1.672-0.008
		c1.078-0.004,2.154-0.008,3.227-0.012c0.572-0.002,1.143-0.004,1.715-0.004c4.047-0.014,8.058-0.023,12.03-0.037
		c0.021,0,0.043,0,0.064,0c1.423-0.004,2.843-0.01,4.255-0.014c1.343-0.002,2.679-0.006,4.01-0.01
		c0.759-0.002,1.512-0.004,2.267-0.006c1.051-0.004,2.102-0.006,3.146-0.008c0.973-0.004,1.938-0.006,2.905-0.008
		c0.791-0.002,1.578-0.004,2.365-0.006c0.729-0.002,1.459-0.004,2.185-0.006c1.413-0.002,2.819-0.006,4.218-0.01
		c0.657-0.002,1.312-0.002,1.967-0.006c1.123-0.002,2.243-0.004,3.354-0.008c1.031-0.002,2.056-0.004,3.077-0.006
		c0.417,0,0.834-0.002,1.249-0.002c1.07-0.002,2.139-0.004,3.198-0.006c1.034-0.002,2.06-0.004,3.083-0.006
		c0.424-0.002,0.855-0.002,1.278-0.002c1.502-0.004,2.988-0.006,4.468-0.008c0.597-0.002,1.189-0.002,1.784-0.004
		c1.003,0,2.001-0.002,2.991-0.004c0.657,0,1.312-0.002,1.965-0.002c1.26-0.002,2.51-0.004,3.751-0.006c0.151,0,0.308,0,0.46,0
		c1.607-0.002,3.196-0.004,4.771-0.006c0.174,0,0.345,0,0.519,0c1.224-0.002,2.438-0.002,3.64-0.004c0.486,0,0.971,0,1.453-0.002
		c4.334-0.002,8.519-0.006,12.542-0.006c0.386,0,0.771,0,1.155,0c1.209,0,2.403,0,3.582,0c0.078,0,0.158,0,0.237,0
		c1.393,0,2.762,0,4.11,0c0.05,0,0.099,0,0.149,0c1.187,0,2.352,0,3.502,0.002c0.298,0,0.594,0,0.89,0
		c1.074,0,2.133,0.002,3.175,0.002c0.128,0,0.258,0,0.385,0c1.223,0.002,2.422,0.004,3.599,0.004c0.093,0,0.183,0,0.276,0.002
		c1.07,0,2.119,0.002,3.15,0.004c0.17,0,0.34,0,0.51,0c1.01,0.002,2,0.004,2.971,0.006c0.097,0,0.195,0,0.291,0
		c1.08,0.002,2.14,0.004,3.169,0.008c0.045,0,0.09,0,0.137,0c0.979,0.002,1.931,0.004,2.865,0.008c0.112,0,0.225,0,0.336,0
		c0.828,0.002,1.635,0.006,2.422,0.008c0.162,0,0.326,0.002,0.485,0.002c1.773,0.006,3.439,0.014,5,0.02
		c0.16,0.002,0.315,0.002,0.472,0.004c0.563,0.002,1.115,0.006,1.649,0.01c0.236,0.002,0.474,0.002,0.703,0.004
		c0.672,0.004,1.328,0.008,1.949,0.012C808.013,501.468,808.416,498.65,807.449,498.589z"/>
	<path fill="none" stroke="#000001" stroke-linejoin="round" stroke-miterlimit="10" d="M881.946,341.074
		c-0.861-0.165-1.746-0.333-2.65-0.505c-0.072-0.015-0.148-0.028-0.221-0.042c-1.103-0.209-2.248-0.427-3.414-0.647
		c-4.24-0.803-8.869-1.674-13.813-2.604c-1.564-0.295-3.154-0.595-4.779-0.899c-7.294-1.373-15.171-2.855-23.396-4.419
		c-1.772-0.337-3.56-0.677-5.364-1.021c-0.32-0.062-0.638-0.121-0.959-0.184c-2.312-0.44-4.648-0.889-7-1.34
		c-0.359-0.069-0.718-0.138-1.076-0.207c-2.166-0.417-4.351-0.838-6.541-1.262c-0.563-0.109-1.124-0.217-1.687-0.326
		c-19.287-3.739-39.294-7.736-57.485-11.65c-0.009-0.002-0.018-0.004-0.027-0.006c-0.092-0.02-0.184-0.04-0.278-0.06
		c-1.129-0.244-2.251-0.487-3.365-0.729c-0.377-0.082-0.749-0.164-1.124-0.246c-0.816-0.178-1.63-0.355-2.437-0.532
		c-0.458-0.102-0.912-0.201-1.366-0.303c-0.718-0.159-1.432-0.316-2.142-0.475c-0.495-0.11-0.986-0.22-1.475-0.33
		c-0.653-0.146-1.303-0.292-1.948-0.438c-0.517-0.115-1.03-0.231-1.541-0.348c-0.605-0.138-1.203-0.273-1.802-0.411
		c-0.535-0.123-1.071-0.245-1.601-0.367c-0.53-0.122-1.053-0.243-1.577-0.365c-1.347-0.313-2.676-0.624-3.982-0.934
		c-0.201-0.048-0.406-0.096-0.605-0.143c-0.71-0.168-1.407-0.336-2.104-0.503c-0.315-0.076-0.633-0.151-0.945-0.228
		c-0.688-0.166-1.365-0.331-2.04-0.496c-0.298-0.071-0.597-0.146-0.892-0.218c-0.695-0.171-1.381-0.341-2.061-0.51
		c-0.245-0.062-0.488-0.122-0.73-0.183c-0.718-0.181-1.427-0.359-2.125-0.537c-0.151-0.039-0.301-0.077-0.45-0.116
		c-7.664-1.959-14.24-3.819-19.299-5.522c-0.565-0.19-1.105-0.377-1.633-0.564c-0.193-0.069-0.382-0.137-0.57-0.206
		c-0.364-0.13-0.716-0.26-1.06-0.389c-0.184-0.069-0.368-0.138-0.546-0.206c-0.41-0.157-0.803-0.312-1.181-0.466
		c-0.084-0.035-0.175-0.07-0.257-0.104c-0.43-0.176-0.829-0.35-1.216-0.522c-0.136-0.061-0.265-0.121-0.396-0.182
		c-0.27-0.123-0.525-0.245-0.771-0.366c-0.119-0.06-0.241-0.119-0.355-0.178c-0.3-0.154-0.582-0.306-0.842-0.455
		c-0.033-0.019-0.072-0.039-0.104-0.058c-0.284-0.165-0.534-0.326-0.766-0.485c-0.075-0.052-0.144-0.102-0.212-0.153
		c-0.159-0.115-0.305-0.229-0.436-0.341c-0.059-0.049-0.118-0.099-0.171-0.148c-0.157-0.147-0.297-0.292-0.405-0.434
		c-0.005-0.007-0.014-0.015-0.02-0.022c-0.11-0.148-0.184-0.292-0.24-0.434c-0.016-0.042-0.024-0.084-0.037-0.126
		c-0.027-0.104-0.041-0.206-0.038-0.307c0.001-0.04,0-0.081,0.008-0.121c0.021-0.135,0.062-0.267,0.143-0.394
		c0.347-0.546,0.703-1.108,1.063-1.679c0.082-0.13,0.164-0.262,0.246-0.393c0.306-0.484,0.614-0.974,0.927-1.474
		c0.063-0.101,0.128-0.202,0.19-0.305c0.78-1.247,1.584-2.539,2.41-3.875c0.035-0.055,0.07-0.112,0.104-0.168
		c0.401-0.649,0.807-1.307,1.218-1.974c0.017-0.027,0.032-0.053,0.049-0.08c1.325-2.155,2.698-4.402,4.106-6.72
		c0.689-1.136,1.388-2.287,2.092-3.454c0.249-0.411,0.498-0.824,0.748-1.239c0.143-0.236,0.285-0.473,0.429-0.71
		c0.269-0.447,0.539-0.895,0.81-1.345c0.117-0.192,0.232-0.385,0.348-0.577c0.298-0.496,0.597-0.994,0.896-1.493
		c0.102-0.168,0.201-0.335,0.302-0.503c0.328-0.546,0.656-1.094,0.985-1.644c0.076-0.125,0.15-0.25,0.226-0.375
		c1.236-2.067,2.483-4.158,3.734-6.259c0.032-0.053,0.063-0.106,0.094-0.159c0.392-0.657,0.782-1.314,1.174-1.972
		c0.032-0.056,0.065-0.11,0.098-0.165c0.377-0.635,0.754-1.271,1.131-1.906c0.058-0.098,0.116-0.195,0.174-0.293
		c0.363-0.612,0.727-1.225,1.089-1.837c0.05-0.085,0.1-0.169,0.149-0.253c9.301-15.712,18.304-31.191,23.887-40.831
		c0.745-1.287,1.43-2.47,2.046-3.535c1.681-2.908,2.854-4.944,3.363-5.83c0.107-0.186,0.184-0.319,0.231-0.4
		c0.036-0.064,0.058-0.101,0.058-0.101c0.047-0.079,0.124-0.152,0.215-0.222c0.02-0.014,0.036-0.029,0.058-0.043
		c0.098-0.066,0.213-0.128,0.35-0.186c0.023-0.01,0.053-0.02,0.078-0.03c0.135-0.052,0.285-0.102,0.454-0.147
		c0.023-0.007,0.046-0.014,0.07-0.021c0.188-0.047,0.397-0.09,0.623-0.13c0.049-0.008,0.101-0.017,0.151-0.025
		c0.236-0.038,0.484-0.073,0.758-0.103c0.026-0.003,0.056-0.005,0.082-0.008c0.263-0.027,0.544-0.051,0.84-0.072
		c0.06-0.004,0.115-0.008,0.175-0.012c0.315-0.021,0.649-0.037,1.001-0.05c0.069-0.002,0.142-0.004,0.211-0.006
		c0.352-0.011,0.715-0.02,1.098-0.024c0.023,0,0.047-0.001,0.07-0.001c0.402-0.004,0.826-0.003,1.264,0
		c0.089,0,0.18,0.001,0.271,0.002c0.437,0.004,0.887,0.012,1.354,0.024c0.068,0.002,0.142,0.004,0.212,0.006
		c0.438,0.012,0.891,0.026,1.356,0.044c0.083,0.003,0.163,0.006,0.246,0.009c0.502,0.02,1.021,0.043,1.554,0.069
		c0.12,0.006,0.243,0.013,0.366,0.019c0.548,0.028,1.106,0.058,1.685,0.092c0.024,0.002,0.053,0.004,0.078,0.005
		c0.563,0.034,1.145,0.071,1.735,0.111c0.13,0.008,0.259,0.017,0.392,0.026c0.597,0.04,1.205,0.084,1.828,0.13
		c0.131,0.009,0.265,0.02,0.396,0.03c0.584,0.044,1.177,0.09,1.782,0.139c0.088,0.007,0.174,0.014,0.263,0.021
		c0.655,0.053,1.326,0.109,2.007,0.168c0.177,0.015,0.353,0.031,0.53,0.046c0.68,0.06,1.369,0.121,2.072,0.185
		c0.116,0.011,0.233,0.022,0.35,0.033c0.63,0.058,1.271,0.118,1.916,0.18c0.181,0.018,0.357,0.034,0.538,0.052
		c0.714,0.068,1.438,0.14,2.171,0.213c0.207,0.02,0.416,0.041,0.624,0.062c0.666,0.067,1.338,0.136,2.019,0.206
		c0.181,0.019,0.358,0.037,0.54,0.056c0.705,0.074,1.42,0.149,2.14,0.226c0.244,0.026,0.485,0.052,0.729,0.078
		c0.766,0.082,1.536,0.165,2.315,0.251c0.226,0.024,0.451,0.049,0.676,0.074c0.64,0.07,1.284,0.142,1.933,0.215
		c0.254,0.028,0.504,0.056,0.758,0.084c0.775,0.088,1.557,0.177,2.346,0.267c0.308,0.035,0.615,0.07,0.924,0.106
		c0.679,0.078,1.359,0.157,2.045,0.237c0.396,0.047,0.793,0.093,1.193,0.14c0.59,0.069,1.181,0.139,1.779,0.21
		c0.346,0.041,0.692,0.082,1.041,0.124c0.777,0.093,1.559,0.186,2.344,0.281c0.375,0.046,0.754,0.092,1.131,0.137
		c0.553,0.067,1.107,0.135,1.666,0.203c0.601,0.074,1.204,0.147,1.81,0.222c0.521,0.065,1.045,0.129,1.571,0.194
		c0.498,0.062,0.998,0.125,1.5,0.187c0.367,0.046,0.738,0.092,1.105,0.138c0.869,0.108,1.738,0.218,2.615,0.328
		c0.354,0.045,0.711,0.09,1.067,0.135c1.895,0.239,3.804,0.483,5.73,0.73c0.041,0.005,0.084,0.011,0.125,0.016
		c1.346,0.173,2.7,0.347,4.057,0.523c0.048,0.007,0.097,0.013,0.146,0.019c15.079,1.954,30.847,4.092,45.772,6.105
		c0.382,0.051,0.768,0.103,1.15,0.155c0.725,0.097,1.446,0.195,2.17,0.292c0.477,0.064,0.951,0.129,1.426,0.192
		c0.809,0.109,1.613,0.217,2.414,0.325c0.413,0.055,0.821,0.11,1.229,0.165c0.765,0.103,1.527,0.205,2.285,0.307
		c0.736,0.099,1.465,0.196,2.195,0.294c0.639,0.086,1.279,0.171,1.914,0.256c0.915,0.122,1.827,0.244,2.729,0.364
		c0.559,0.074,1.107,0.147,1.66,0.22c0.646,0.085,1.287,0.171,1.924,0.255c0.538,0.07,1.071,0.141,1.604,0.211
		c0.604,0.08,1.205,0.159,1.805,0.238c0.547,0.072,1.092,0.144,1.633,0.215c0.619,0.081,1.233,0.161,1.845,0.241
		c0.496,0.065,0.996,0.13,1.485,0.194c0.707,0.091,1.403,0.181,2.099,0.271c0.621,0.08,1.236,0.16,1.846,0.238
		c0.787,0.101,1.571,0.201,2.342,0.299c0.401,0.051,0.793,0.101,1.188,0.151c0.633,0.08,1.26,0.159,1.881,0.237
		c0.426,0.054,0.848,0.106,1.268,0.159c0.597,0.074,1.187,0.147,1.769,0.219c0.396,0.049,0.793,0.098,1.182,0.146
		c0.633,0.078,1.252,0.153,1.867,0.228c0.32,0.038,0.646,0.078,0.963,0.116c0.924,0.111,1.832,0.22,2.719,0.324
		c1.774,0.203,0.947-4.995-0.823-5.317c0,0-0.035-0.006-0.093-0.017c-0.075-0.014-0.203-0.037-0.385-0.071
		c-0.229-0.042-0.537-0.099-0.92-0.17c-0.084-0.016-0.17-0.031-0.26-0.048c-0.244-0.045-0.508-0.094-0.803-0.149
		c-0.239-0.045-0.493-0.092-0.767-0.142c-0.108-0.02-0.219-0.041-0.334-0.062c-0.326-0.061-0.668-0.124-1.035-0.192
		c-13.243-2.455-53.547-9.928-99.705-18.522c-0.021-0.004-0.043-0.008-0.063-0.012c-15.369-2.861-31.385-5.847-47.268-8.812
		c-0.286-0.054-0.573-0.108-0.86-0.161c-1.969-0.369-3.937-0.736-5.9-1.103c-0.144-0.026-0.287-0.053-0.43-0.08
		c-5.39-1.007-10.747-2.009-16.046-3c-2.02-0.378-4.027-0.753-6.027-1.128c-0.924-0.173-1.845-0.345-2.764-0.517
		c-0.558-0.104-1.112-0.208-1.667-0.312c-1.232-0.23-2.458-0.46-3.682-0.689c-0.229-0.043-0.459-0.086-0.688-0.129
		c-6.141-1.151-12.157-2.28-17.993-3.376c-0.352-0.067-0.701-0.132-1.053-0.198c-1.19-0.224-2.372-0.446-3.546-0.667
		c-0.185-0.035-0.366-0.07-0.55-0.104c-1.291-0.243-2.574-0.484-3.846-0.723c-0.316-0.06-0.633-0.119-0.949-0.179
		c-1.119-0.211-2.232-0.42-3.334-0.628c-0.401-0.076-0.799-0.15-1.196-0.225c-1.08-0.204-2.154-0.406-3.216-0.606
		c-0.258-0.048-0.51-0.096-0.765-0.144c-1.111-0.209-2.216-0.418-3.307-0.624c-0.245-0.046-0.486-0.091-0.729-0.137
		c-1.115-0.21-2.223-0.419-3.315-0.626c-0.311-0.058-0.614-0.116-0.921-0.174c-0.817-0.154-1.627-0.307-2.431-0.459
		c-0.594-0.112-1.183-0.223-1.769-0.334c-2.279-0.431-4.504-0.853-6.661-1.262c-8.844-1.673-22.787,1.832-26.17,6.546
		c-1.793,2.491-3.6,4.946-5.412,7.385c-0.059,0.079-0.118,0.157-0.177,0.236c-2.118,2.847-4.248,5.661-6.385,8.453
		c-0.27,0.351-0.536,0.703-0.807,1.054c-0.952,1.24-1.905,2.476-2.86,3.708c-0.433,0.558-0.864,1.114-1.297,1.67
		c-0.871,1.121-1.743,2.241-2.616,3.356c-0.751,0.96-1.503,1.916-2.255,2.873c-0.539,0.685-1.076,1.372-1.615,2.055
		c-3.626,4.602-7.257,9.177-10.878,13.766c-0.789,1-1.579,2-2.366,3.001c-1.446,1.837-2.888,3.678-4.327,5.525
		c-0.067,0.088-0.137,0.175-0.205,0.263c-4.494,5.77-8.946,11.596-13.332,17.546c-0.6,0.812-1.197,1.626-1.794,2.443
		c-1.441,1.978-2.875,3.97-4.299,5.979c-0.102,0.143-0.201,0.29-0.303,0.434c-1.32,1.866-2.631,3.744-3.933,5.642
		c-0.43,0.628-0.853,1.27-1.281,1.903c-0.978,1.441-1.955,2.879-2.92,4.342c-1.406,2.13-2.8,4.281-4.179,6.462
		c-2.032,3.244,3.023,22.681,19.281,24.937c9.73,1.342,19.856,2.764,30.25,4.244c0.119,0.016,0.24,0.034,0.359,0.051
		c1.607,0.229,3.221,0.459,4.84,0.691c0.206,0.029,0.414,0.059,0.62,0.088c1.562,0.224,3.132,0.449,4.706,0.675
		c0.115,0.017,0.231,0.033,0.347,0.05c1.599,0.23,3.203,0.46,4.813,0.693c0.423,0.062,0.85,0.123,1.273,0.184
		c1.369,0.198,2.738,0.396,4.113,0.595c0.413,0.06,0.828,0.12,1.241,0.18c1.327,0.192,2.653,0.384,3.985,0.578
		c0.521,0.076,1.04,0.15,1.562,0.227c1.347,0.196,2.693,0.393,4.046,0.589c0.278,0.04,0.557,0.081,0.835,0.122
		c1.477,0.216,2.954,0.431,4.435,0.647c0.498,0.073,0.998,0.146,1.498,0.219c1.303,0.19,2.604,0.381,3.909,0.572
		c0.537,0.079,1.075,0.158,1.613,0.237c1.288,0.188,2.576,0.378,3.867,0.567c0.528,0.078,1.061,0.156,1.59,0.234
		c1.253,0.184,2.506,0.369,3.76,0.554c0.631,0.093,1.264,0.188,1.897,0.28c1.223,0.181,2.445,0.36,3.67,0.542
		c0.507,0.076,1.015,0.15,1.522,0.226c1.365,0.202,2.729,0.403,4.095,0.606c0.389,0.057,0.775,0.113,1.163,0.172
		c1.459,0.216,2.917,0.433,4.376,0.65c0.352,0.052,0.701,0.104,1.053,0.155c1.468,0.218,2.936,0.437,4.403,0.655
		c0.409,0.06,0.816,0.121,1.225,0.182c1.39,0.207,2.777,0.414,4.166,0.622c0.507,0.076,1.015,0.151,1.522,0.228
		c1.299,0.193,2.598,0.388,3.896,0.582c0.53,0.079,1.061,0.158,1.591,0.237c1.298,0.194,2.596,0.39,3.892,0.583
		c0.536,0.08,1.071,0.16,1.607,0.241c1.332,0.2,2.662,0.399,3.991,0.6c0.401,0.06,0.804,0.119,1.206,0.181
		c1.437,0.215,2.871,0.431,4.303,0.646c0.339,0.052,0.678,0.103,1.017,0.153c3.383,0.508,6.75,1.016,10.104,1.521
		c0.162,0.023,0.323,0.049,0.483,0.072c24.055,3.629,47.28,7.168,68.299,10.375c4.748,0.726,9.381,1.433,13.889,2.12
		c4.045,0.618,7.992,1.22,11.818,1.804c0.131,0.02,0.26,0.039,0.391,0.06c11.023,1.681,21.086,3.213,29.908,4.546
		c0.006,0.001,0.01,0.001,0.016,0.002c3.283,0.496,6.391,0.964,9.314,1.402c0.062,0.009,0.126,0.019,0.188,0.027
		c1.898,0.284,3.717,0.557,5.453,0.814c0.086,0.014,0.172,0.026,0.26,0.039c0.812,0.121,1.604,0.239,2.379,0.353
		c0.054,0.007,0.107,0.017,0.162,0.024c0.824,0.122,1.625,0.24,2.406,0.354c0.043,0.007,0.084,0.014,0.127,0.02
		c0.688,0.1,1.353,0.198,2.004,0.293c0.154,0.022,0.31,0.046,0.463,0.068c0.687,0.1,1.358,0.197,2.004,0.292
		C880.858,344.538,883.296,341.335,881.946,341.074z"/>
	<path fill="none" stroke="#000001" stroke-linejoin="round" stroke-miterlimit="10" d="M1135.288,374.929h25.373
		c0.826,0,1.5-0.675,1.5-1.5s-0.674-1.5-1.5-1.5h-25.373c-0.825,0-1.5,0.675-1.5,1.5S1134.464,374.929,1135.288,374.929z"/>
	<path fill="none" stroke="#000001" stroke-linejoin="round" stroke-miterlimit="10" d="M1135.288,348.594h25.373
		c0.826,0,1.5-0.675,1.5-1.5s-0.674-1.5-1.5-1.5h-25.373c-0.824,0-1.5,0.675-1.5,1.5S1134.463,348.594,1135.288,348.594z"/>
	<path fill="none" stroke="#000001" stroke-linejoin="round" stroke-miterlimit="10" d="M1133.788,457.39h25.373
		c0.826,0,1.5-0.676,1.5-1.5s-0.674-1.5-1.5-1.5h-25.373c-0.824,0-1.5,0.676-1.5,1.5S1132.964,457.39,1133.788,457.39z"/>
	<path fill="none" stroke="#000001" stroke-linejoin="round" stroke-miterlimit="10" d="M1159.161,483.724
		c0.826,0,1.5-0.674,1.5-1.5c0-0.822-0.674-1.5-1.5-1.5h-25.373c-0.825,0-1.5,0.676-1.5,1.5c0,0.826,0.676,1.5,1.5,1.5H1159.161z"/>
	<path fill="none" stroke="#000001" stroke-linejoin="round" stroke-miterlimit="10" d="M1159.911,507.06h-25.373
		c-0.825,0-1.5,0.674-1.5,1.5c0,0.824,0.676,1.5,1.5,1.5h25.373c0.826,0,1.5-0.676,1.5-1.5S1160.737,507.06,1159.911,507.06z"/>
	<path fill="none" stroke="#000001" stroke-linejoin="round" stroke-miterlimit="10" d="M1161.411,424.597h-25.373
		c-0.824,0-1.5,0.678-1.5,1.5c0,0.826,0.676,1.5,1.5,1.5h25.373c0.826,0,1.5-0.674,1.5-1.5
		C1162.911,425.275,1162.237,424.597,1161.411,424.597z"/>
	<path fill="none" stroke="#000001" stroke-linejoin="round" stroke-miterlimit="10" d="M1161.411,398.263h-25.373
		c-0.824,0-1.5,0.675-1.5,1.5s0.676,1.5,1.5,1.5h25.373c0.826,0,1.5-0.675,1.5-1.5S1162.237,398.263,1161.411,398.263z"/>
	<path fill="none" stroke="#000001" stroke-linejoin="round" stroke-miterlimit="10" d="M1162.161,319.259h-25.373
		c-0.824,0-1.5,0.675-1.5,1.5s0.676,1.5,1.5,1.5h25.373c0.826,0,1.5-0.675,1.5-1.5S1162.987,319.259,1162.161,319.259z"/>
	<path fill="none" stroke="#000001" stroke-linejoin="round" stroke-miterlimit="10" d="M1136.038,269.589h25.373
		c0.826,0,1.5-0.675,1.5-1.5c0-0.825-0.674-1.5-1.5-1.5h-25.373c-0.824,0-1.5,0.675-1.5,1.5
		C1134.538,268.914,1135.213,269.589,1136.038,269.589z"/>
	<path fill="none" stroke="#000001" stroke-linejoin="round" stroke-miterlimit="10" d="M1085.038,334.604h25.373
		c0.826,0,1.5-0.675,1.5-1.5c0-0.824-0.674-1.5-1.5-1.5h-25.373c-0.825,0-1.5,0.676-1.5,1.5
		C1083.538,333.929,1084.214,334.604,1085.038,334.604z"/>
	<path fill="none" stroke="#000001" stroke-linejoin="round" stroke-miterlimit="10" d="M1085.788,255.599h25.373
		c0.826,0,1.5-0.675,1.5-1.5c0-0.825-0.674-1.5-1.5-1.5h-25.373c-0.824,0-1.5,0.675-1.5,1.5
		C1084.288,254.924,1084.963,255.599,1085.788,255.599z"/>
	<path fill="none" stroke="#000001" stroke-linejoin="round" stroke-miterlimit="10" d="M1085.038,360.938h25.373
		c0.826,0,1.5-0.675,1.5-1.5c0-0.824-0.674-1.5-1.5-1.5h-25.373c-0.825,0-1.5,0.676-1.5,1.5
		C1083.538,360.263,1084.214,360.938,1085.038,360.938z"/>
	<path fill="none" stroke="#000001" stroke-linejoin="round" stroke-miterlimit="10" d="M1083.538,444.222h25.373
		c0.826,0,1.5-0.674,1.5-1.5c0-0.822-0.674-1.5-1.5-1.5h-25.373c-0.824,0-1.5,0.678-1.5,1.5
		C1082.038,443.548,1082.714,444.222,1083.538,444.222z"/>
	<path fill="none" stroke="#000001" stroke-linejoin="round" stroke-miterlimit="10" d="M1108.911,469.734
		c0.826,0,1.5-0.674,1.5-1.5c0-0.824-0.674-1.5-1.5-1.5h-25.373c-0.825,0-1.5,0.676-1.5,1.5c0,0.826,0.676,1.5,1.5,1.5H1108.911z"/>
	<path fill="none" stroke="#000001" stroke-linejoin="round" stroke-miterlimit="10" d="M1109.661,493.07h-25.373
		c-0.824,0-1.5,0.674-1.5,1.5c0,0.824,0.676,1.5,1.5,1.5h25.373c0.826,0,1.5-0.676,1.5-1.5
		C1111.161,493.744,1110.487,493.07,1109.661,493.07z"/>
	<path fill="none" stroke="#000001" stroke-linejoin="round" stroke-miterlimit="10" d="M1109.661,519.404h-25.373
		c-0.824,0-1.5,0.676-1.5,1.5c0,0.826,0.676,1.5,1.5,1.5h25.373c0.826,0,1.5-0.674,1.5-1.5
		C1111.161,520.08,1110.487,519.404,1109.661,519.404z"/>
	<path fill="none" stroke="#000001" stroke-linejoin="round" stroke-miterlimit="10" d="M1111.161,410.607h-25.373
		c-0.824,0-1.5,0.675-1.5,1.5c0,0.824,0.676,1.5,1.5,1.5h25.373c0.826,0,1.5-0.676,1.5-1.5
		C1112.661,411.282,1111.987,410.607,1111.161,410.607z"/>
	<path fill="none" stroke="#000001" stroke-linejoin="round" stroke-miterlimit="10" d="M1111.161,384.272h-25.373
		c-0.824,0-1.5,0.675-1.5,1.5c0,0.824,0.676,1.5,1.5,1.5h25.373c0.826,0,1.5-0.676,1.5-1.5
		C1112.661,384.947,1111.987,384.272,1111.161,384.272z"/>
	<path fill="none" stroke="#000001" stroke-linejoin="round" stroke-miterlimit="10" d="M1111.911,305.269h-25.373
		c-0.824,0-1.5,0.675-1.5,1.5c0,0.825,0.676,1.5,1.5,1.5h25.373c0.826,0,1.5-0.675,1.5-1.5
		C1113.411,305.944,1112.737,305.269,1111.911,305.269z"/>
	<path fill="none" stroke="#000001" stroke-linejoin="round" stroke-miterlimit="10" d="M1111.911,278.934h-25.373
		c-0.824,0-1.5,0.675-1.5,1.5c0,0.825,0.676,1.5,1.5,1.5h25.373c0.826,0,1.5-0.675,1.5-1.5
		C1113.411,279.609,1112.737,278.934,1111.911,278.934z"/>
	<path fill="none" stroke="#000001" stroke-linejoin="round" stroke-miterlimit="10" d="M1085.788,229.264h25.373
		c0.724,0,1.332-0.52,1.471-1.205l-6.787-1.795h-20.057c-0.824,0-1.5,0.675-1.5,1.5
		C1084.288,228.589,1084.964,229.264,1085.788,229.264z"/>
	<path fill="none" stroke="#000001" stroke-linejoin="round" stroke-miterlimit="10" d="M1035.538,268.767h25.373
		c0.826,0,1.5-0.675,1.5-1.5c0-0.825-0.674-1.5-1.5-1.5h-25.373c-0.825,0-1.5,0.675-1.5,1.5
		C1034.038,268.092,1034.714,268.767,1035.538,268.767z"/>
	<path fill="none" stroke="#000001" stroke-linejoin="round" stroke-miterlimit="10" d="M1036.79,238.608
		c-0.824,0-1.5,0.675-1.5,1.5c0,0.826,0.675,1.5,1.5,1.5h25.373c0.826,0,1.5-0.675,1.5-1.5c0-0.825-0.674-1.5-1.5-1.5H1036.79z"/>
	<path fill="none" stroke="#000001" stroke-linejoin="round" stroke-miterlimit="10" d="M1061.661,318.436h-25.373
		c-0.824,0-1.5,0.676-1.5,1.5c0,0.825,0.676,1.5,1.5,1.5h25.373c0.826,0,1.5-0.675,1.5-1.5
		C1063.161,319.111,1062.487,318.436,1061.661,318.436z"/>
	<path fill="none" stroke="#000001" stroke-linejoin="round" stroke-miterlimit="10" d="M1061.413,343.947h-25.373
		c-0.824,0-1.5,0.675-1.5,1.5s0.676,1.5,1.5,1.5h25.373c0.826,0,1.5-0.675,1.5-1.5S1062.239,343.947,1061.413,343.947z"/>
	<path fill="none" stroke="#000001" stroke-linejoin="round" stroke-miterlimit="10" d="M1034.788,374.105h25.373
		c0.826,0,1.5-0.676,1.5-1.5c0-0.825-0.674-1.5-1.5-1.5h-25.373c-0.825,0-1.5,0.675-1.5,1.5
		C1033.288,373.43,1033.964,374.105,1034.788,374.105z"/>
	<path fill="none" stroke="#000001" stroke-linejoin="round" stroke-miterlimit="10" d="M1034.54,455.744h25.373
		c0.826,0,1.5-0.674,1.5-1.5c0-0.824-0.674-1.5-1.5-1.5h-25.373c-0.825,0-1.5,0.676-1.5,1.5
		C1033.04,455.07,1033.716,455.744,1034.54,455.744z"/>
	<path fill="none" stroke="#000001" stroke-linejoin="round" stroke-miterlimit="10" d="M1060.161,481.402
		c0-0.824-0.674-1.5-1.5-1.5h-25.373c-0.825,0-1.5,0.676-1.5,1.5c0,0.826,0.676,1.5,1.5,1.5h25.373
		C1059.487,482.902,1060.161,482.228,1060.161,481.402z"/>
	<path fill="none" stroke="#000001" stroke-linejoin="round" stroke-miterlimit="10" d="M1060.663,505.414h-25.373
		c-0.825,0-1.5,0.676-1.5,1.5c0,0.826,0.676,1.5,1.5,1.5h25.373c0.826,0,1.5-0.674,1.5-1.5
		C1062.163,506.089,1061.489,505.414,1060.663,505.414z"/>
	<path fill="none" stroke="#000001" stroke-linejoin="round" stroke-miterlimit="10" d="M1060.911,423.775h-25.373
		c-0.824,0-1.5,0.674-1.5,1.5c0,0.824,0.676,1.5,1.5,1.5h25.373c0.826,0,1.5-0.676,1.5-1.5
		C1062.411,424.449,1061.737,423.775,1060.911,423.775z"/>
	<path fill="none" stroke="#000001" stroke-linejoin="round" stroke-miterlimit="10" d="M1062.163,396.617h-25.373
		c-0.824,0-1.5,0.675-1.5,1.5s0.676,1.5,1.5,1.5h25.373c0.826,0,1.5-0.675,1.5-1.5S1062.989,396.617,1062.163,396.617z"/>
	<path fill="none" stroke="#000001" stroke-linejoin="round" stroke-miterlimit="10" d="M1062.913,291.278h-25.373
		c-0.824,0-1.5,0.675-1.5,1.5c0,0.825,0.676,1.5,1.5,1.5h25.373c0.826,0,1.5-0.675,1.5-1.5
		C1064.413,291.953,1063.739,291.278,1062.913,291.278z"/>
	<path fill="none" stroke="#000001" stroke-linejoin="round" stroke-miterlimit="10" d="M1035.538,216.097h25.373
		c0.765,0,1.394-0.582,1.483-1.324l-6.337-1.676h-20.52c-0.824,0-1.5,0.675-1.5,1.5
		C1034.038,215.422,1034.714,216.097,1035.538,216.097z"/>
	<path fill="none" stroke="#000001" stroke-linejoin="round" stroke-miterlimit="10" d="M986.54,254.775h25.373
		c0.826,0,1.5-0.675,1.5-1.5c0-0.825-0.674-1.5-1.5-1.5H986.54c-0.825,0-1.5,0.675-1.5,1.5
		C985.04,254.1,985.716,254.775,986.54,254.775z"/>
	<path fill="none" stroke="#000001" stroke-linejoin="round" stroke-miterlimit="10" d="M987.54,225.441c-0.824,0-1.5,0.675-1.5,1.5
		c0,0.826,0.675,1.5,1.5,1.5h25.373c0.826,0,1.5-0.675,1.5-1.5c0-0.825-0.674-1.5-1.5-1.5H987.54z"/>
	<path fill="none" stroke="#000001" stroke-linejoin="round" stroke-miterlimit="10" d="M1014.163,305.945
		c0-0.825-0.674-1.5-1.5-1.5H987.29c-0.824,0-1.5,0.675-1.5,1.5c0,0.825,0.676,1.5,1.5,1.5h25.373
		C1013.489,307.445,1014.163,306.77,1014.163,305.945z"/>
	<path fill="none" stroke="#000001" stroke-linejoin="round" stroke-miterlimit="10" d="M986.79,330.78c-0.824,0-1.5,0.675-1.5,1.5
		s0.676,1.5,1.5,1.5h25.373c0.826,0,1.5-0.675,1.5-1.5s-0.674-1.5-1.5-1.5H986.79z"/>
	<path fill="none" stroke="#000001" stroke-linejoin="round" stroke-miterlimit="10" d="M985.79,360.115h25.373
		c0.826,0,1.5-0.675,1.5-1.5s-0.674-1.5-1.5-1.5H985.79c-0.825,0-1.5,0.675-1.5,1.5S984.966,360.115,985.79,360.115z"/>
	<path fill="none" stroke="#000001" stroke-linejoin="round" stroke-miterlimit="10" d="M985.29,443.4h25.373
		c0.826,0,1.5-0.676,1.5-1.5c0-0.826-0.674-1.5-1.5-1.5H985.29c-0.825,0-1.5,0.674-1.5,1.5
		C983.79,442.724,984.466,443.4,985.29,443.4z"/>
	<path fill="none" stroke="#000001" stroke-linejoin="round" stroke-miterlimit="10" d="M1009.663,468.912
		c0.826,0,1.5-0.676,1.5-1.5c0-0.826-0.674-1.5-1.5-1.5H984.29c-0.825,0-1.5,0.674-1.5,1.5c0,0.824,0.676,1.5,1.5,1.5H1009.663z"/>
	<path fill="none" stroke="#000001" stroke-linejoin="round" stroke-miterlimit="10" d="M1010.413,518.582H985.04
		c-0.825,0-1.5,0.674-1.5,1.5c0,0.824,0.676,1.5,1.5,1.5h25.373c0.826,0,1.5-0.676,1.5-1.5
		C1011.913,519.255,1011.239,518.582,1010.413,518.582z"/>
	<path fill="none" stroke="#000001" stroke-linejoin="round" stroke-miterlimit="10" d="M1011.413,492.246H986.04
		c-0.824,0-1.5,0.676-1.5,1.5c0,0.826,0.676,1.5,1.5,1.5h25.373c0.826,0,1.5-0.674,1.5-1.5
		C1012.913,492.921,1012.239,492.246,1011.413,492.246z"/>
	<path fill="none" stroke="#000001" stroke-linejoin="round" stroke-miterlimit="10" d="M1011.913,409.784H986.54
		c-0.824,0-1.5,0.675-1.5,1.5s0.676,1.5,1.5,1.5h25.373c0.826,0,1.5-0.675,1.5-1.5S1012.739,409.784,1011.913,409.784z"/>
	<path fill="none" stroke="#000001" stroke-linejoin="round" stroke-miterlimit="10" d="M1012.913,383.449H987.54
		c-0.824,0-1.5,0.675-1.5,1.5s0.676,1.5,1.5,1.5h25.373c0.826,0,1.5-0.675,1.5-1.5S1013.739,383.449,1012.913,383.449z"/>
	<path fill="none" stroke="#000001" stroke-linejoin="round" stroke-miterlimit="10" d="M1013.663,278.11H988.29
		c-0.824,0-1.5,0.675-1.5,1.5c0,0.825,0.676,1.5,1.5,1.5h25.373c0.826,0,1.5-0.675,1.5-1.5
		C1015.163,278.785,1014.489,278.11,1013.663,278.11z"/>
	<path fill="none" stroke="#000001" stroke-linejoin="round" stroke-miterlimit="10" d="M986.54,202.106h25.373
		c0.397,0,0.757-0.159,1.027-0.413l-9.781-2.587H986.54c-0.824,0-1.5,0.675-1.5,1.5C985.04,201.431,985.716,202.106,986.54,202.106z
		"/>
	<path fill="none" stroke="#000001" stroke-linejoin="round" stroke-miterlimit="10" d="M936.29,240.785h25.373
		c0.826,0,1.5-0.675,1.5-1.5c0-0.825-0.674-1.5-1.5-1.5H936.29c-0.825,0-1.5,0.675-1.5,1.5
		C934.79,240.11,935.466,240.785,936.29,240.785z"/>
	<path fill="none" stroke="#000001" stroke-linejoin="round" stroke-miterlimit="10" d="M936.29,215.273h25.373
		c0.826,0,1.5-0.675,1.5-1.5c0-0.825-0.674-1.5-1.5-1.5H936.29c-0.824,0-1.5,0.675-1.5,1.5
		C934.79,214.599,935.465,215.273,936.29,215.273z"/>
	<path fill="none" stroke="#000001" stroke-linejoin="round" stroke-miterlimit="10" d="M936.29,267.943h25.373
		c0.826,0,1.5-0.675,1.5-1.5c0-0.825-0.674-1.5-1.5-1.5H936.29c-0.825,0-1.5,0.675-1.5,1.5
		C934.79,267.268,935.466,267.943,936.29,267.943z"/>
	<path fill="none" stroke="#000001" stroke-linejoin="round" stroke-miterlimit="10" d="M935.54,346.125h25.373
		c0.826,0,1.5-0.675,1.5-1.5s-0.674-1.5-1.5-1.5H935.54c-0.825,0-1.5,0.675-1.5,1.5S934.716,346.125,935.54,346.125z"/>
	<path fill="none" stroke="#000001" stroke-linejoin="round" stroke-miterlimit="10" d="M935.54,373.282h25.373
		c0.826,0,1.5-0.675,1.5-1.5s-0.674-1.5-1.5-1.5H935.54c-0.825,0-1.5,0.675-1.5,1.5S934.716,373.282,935.54,373.282z"/>
	<path fill="none" stroke="#000001" stroke-linejoin="round" stroke-miterlimit="10" d="M934.04,454.921h25.373
		c0.826,0,1.5-0.676,1.5-1.5c0-0.826-0.674-1.5-1.5-1.5H934.04c-0.824,0-1.5,0.674-1.5,1.5
		C932.54,454.246,933.216,454.921,934.04,454.921z"/>
	<path fill="none" stroke="#000001" stroke-linejoin="round" stroke-miterlimit="10" d="M959.413,482.08c0.826,0,1.5-0.676,1.5-1.5
		c0-0.826-0.674-1.5-1.5-1.5H934.04c-0.825,0-1.5,0.674-1.5,1.5c0,0.824,0.676,1.5,1.5,1.5H959.413z"/>
	<path fill="none" stroke="#000001" stroke-linejoin="round" stroke-miterlimit="10" d="M960.163,504.591H934.79
		c-0.825,0-1.5,0.674-1.5,1.5c0,0.824,0.676,1.5,1.5,1.5h25.373c0.826,0,1.5-0.676,1.5-1.5
		C961.663,505.265,960.989,504.591,960.163,504.591z"/>
	<path fill="none" stroke="#000001" stroke-linejoin="round" stroke-miterlimit="10" d="M961.663,422.953H936.29
		c-0.824,0-1.5,0.674-1.5,1.5c0,0.824,0.676,1.5,1.5,1.5h25.373c0.826,0,1.5-0.676,1.5-1.5
		C963.163,423.626,962.489,422.953,961.663,422.953z"/>
	<path fill="none" stroke="#000001" stroke-linejoin="round" stroke-miterlimit="10" d="M961.663,395.794H936.29
		c-0.824,0-1.5,0.675-1.5,1.5s0.676,1.5,1.5,1.5h25.373c0.826,0,1.5-0.675,1.5-1.5S962.489,395.794,961.663,395.794z"/>
	<path fill="none" stroke="#000001" stroke-linejoin="round" stroke-miterlimit="10" d="M962.413,317.613H937.04
		c-0.824,0-1.5,0.675-1.5,1.5s0.676,1.5,1.5,1.5h25.373c0.826,0,1.5-0.675,1.5-1.5S963.239,317.613,962.413,317.613z"/>
	<path fill="none" stroke="#000001" stroke-linejoin="round" stroke-miterlimit="10" d="M962.413,290.455H937.04
		c-0.824,0-1.5,0.675-1.5,1.5c0,0.825,0.676,1.5,1.5,1.5h25.373c0.826,0,1.5-0.675,1.5-1.5
		C963.913,291.13,963.239,290.455,962.413,290.455z"/>
	<path fill="none" stroke="#000001" stroke-linejoin="round" stroke-miterlimit="10" d="M936.29,188.116h25.313l-11.343-3H936.29
		c-0.824,0-1.5,0.675-1.5,1.5C934.79,187.441,935.466,188.116,936.29,188.116z"/>
	<path fill="none" stroke="#000001" stroke-linejoin="round" stroke-miterlimit="10" d="M588.611,462.621
		c-0.771,0.992-1.543,1.988-2.327,3h23.462c0.825,0,1.5-0.676,1.5-1.5c0-0.826-0.675-1.5-1.5-1.5H588.611z"/>
	<path fill="none" stroke="#000001" stroke-linejoin="round" stroke-miterlimit="10" d="M659.996,393.325h-15.64
		c-0.821,0.955-1.679,1.96-2.563,3h18.203c0.825,0,1.5-0.675,1.5-1.5S660.821,393.325,659.996,393.325z"/>
	<path fill="none" stroke="#000001" stroke-linejoin="round" stroke-miterlimit="10" d="M633.371,479.611h25.373
		c0.825,0,1.5-0.676,1.5-1.5c0-0.826-0.675-1.5-1.5-1.5h-25.373c-0.825,0-1.5,0.674-1.5,1.5
		C631.871,478.935,632.546,479.611,633.371,479.611z"/>
	<path fill="none" stroke="#000001" stroke-linejoin="round" stroke-miterlimit="10" d="M633.371,423.484h25.373
		c0.825,0,1.5-0.676,1.5-1.5c0-0.826-0.675-1.5-1.5-1.5h-25.373c-0.825,0-1.5,0.674-1.5,1.5
		C631.871,422.808,632.546,423.484,633.371,423.484z"/>
	<path fill="none" stroke="#000001" stroke-linejoin="round" stroke-miterlimit="10" d="M661.496,450.953c0-0.826-0.675-1.5-1.5-1.5
		h-25.373c-0.825,0-1.5,0.674-1.5,1.5c0,0.824,0.675,1.5,1.5,1.5h25.373C660.821,452.453,661.496,451.777,661.496,450.953z"/>
	<path fill="none" stroke="#000001" stroke-linejoin="round" stroke-miterlimit="10" d="M708.994,407.315h-25.373
		c-0.825,0-1.5,0.675-1.5,1.5c0,0.824,0.675,1.5,1.5,1.5h25.373c0.825,0,1.5-0.676,1.5-1.5
		C710.494,407.99,709.819,407.315,708.994,407.315z"/>
	<path fill="none" stroke="#000001" stroke-linejoin="round" stroke-miterlimit="10" d="M708.994,380.98h-25.373
		c-0.825,0-1.5,0.675-1.5,1.5s0.675,1.5,1.5,1.5h25.373c0.825,0,1.5-0.676,1.5-1.5C710.494,381.655,709.819,380.98,708.994,380.98z"
		/>
	<path fill="none" stroke="#000001" stroke-linejoin="round" stroke-miterlimit="10" d="M708.994,437.931h-25.373
		c-0.825,0-1.5,0.674-1.5,1.5c0,0.824,0.675,1.5,1.5,1.5h25.373c0.825,0,1.5-0.676,1.5-1.5S709.819,437.931,708.994,437.931z"/>
	<path fill="none" stroke="#000001" stroke-linejoin="round" stroke-miterlimit="10" d="M708.994,463.443h-25.373
		c-0.825,0-1.5,0.674-1.5,1.5c0,0.824,0.675,1.5,1.5,1.5h25.373c0.825,0,1.5-0.676,1.5-1.5
		C710.494,464.117,709.819,463.443,708.994,463.443z"/>
	<path fill="none" stroke="#000001" stroke-linejoin="round" stroke-miterlimit="10" d="M759.244,421.306h-25.373
		c-0.825,0-1.5,0.674-1.5,1.5c0,0.824,0.675,1.5,1.5,1.5h25.373c0.825,0,1.5-0.676,1.5-1.5S760.069,421.306,759.244,421.306z"/>
	<path fill="none" stroke="#000001" stroke-linejoin="round" stroke-miterlimit="10" d="M759.244,394.971h-25.373
		c-0.825,0-1.5,0.676-1.5,1.5c0,0.825,0.675,1.5,1.5,1.5h25.373c0.825,0,1.5-0.675,1.5-1.5
		C760.744,395.646,760.069,394.971,759.244,394.971z"/>
	<path fill="none" stroke="#000001" stroke-linejoin="round" stroke-miterlimit="10" d="M759.244,451.099h-25.373
		c-0.825,0-1.5,0.674-1.5,1.5c0,0.824,0.675,1.5,1.5,1.5h25.373c0.825,0,1.5-0.676,1.5-1.5S760.069,451.099,759.244,451.099z"/>
	<path fill="none" stroke="#000001" stroke-linejoin="round" stroke-miterlimit="10" d="M759.244,477.433h-25.373
		c-0.825,0-1.5,0.674-1.5,1.5c0,0.824,0.675,1.5,1.5,1.5h25.373c0.825,0,1.5-0.676,1.5-1.5S760.069,477.433,759.244,477.433z"/>
	<path fill="none" stroke="#000001" stroke-linejoin="round" stroke-miterlimit="10" d="M809.495,438.753h-25.373
		c-0.827,0-1.5,0.676-1.5,1.5c0,0.826,0.674,1.5,1.5,1.5h25.373c0.824,0,1.5-0.674,1.5-1.5
		C810.995,439.429,810.319,438.753,809.495,438.753z"/>
	<path fill="none" stroke="#000001" stroke-linejoin="round" stroke-miterlimit="10" d="M809.495,408.139h-25.373
		c-0.826,0-1.5,0.676-1.5,1.5c0,0.825,0.673,1.5,1.5,1.5h25.373c0.824,0,1.5-0.675,1.5-1.5
		C810.995,408.814,810.319,408.139,809.495,408.139z"/>
	<path fill="none" stroke="#000001" stroke-linejoin="round" stroke-miterlimit="10" d="M809.495,464.265h-25.373
		c-0.827,0-1.5,0.676-1.5,1.5c0,0.826,0.674,1.5,1.5,1.5h25.373c0.824,0,1.5-0.674,1.5-1.5
		C810.995,464.943,810.319,464.265,809.495,464.265z"/>
	<path fill="none" stroke="#000001" stroke-linejoin="round" stroke-miterlimit="10" d="M833.54,456.568h25.373
		c0.826,0,1.5-0.676,1.5-1.5c0-0.826-0.674-1.5-1.5-1.5H833.54c-0.825,0-1.5,0.674-1.5,1.5
		C832.04,455.892,832.716,456.568,833.54,456.568z"/>
	<path fill="none" stroke="#000001" stroke-linejoin="round" stroke-miterlimit="10" d="M858.913,481.255c0.826,0,1.5-0.674,1.5-1.5
		c0-0.824-0.674-1.5-1.5-1.5H833.54c-0.825,0-1.5,0.676-1.5,1.5c0,0.826,0.676,1.5,1.5,1.5H858.913z"/>
	<path fill="none" stroke="#000001" stroke-linejoin="round" stroke-miterlimit="10" d="M859.663,506.236H834.29
		c-0.825,0-1.5,0.676-1.5,1.5c0,0.826,0.676,1.5,1.5,1.5h25.373c0.826,0,1.5-0.674,1.5-1.5
		C861.163,506.912,860.489,506.236,859.663,506.236z"/>
	<path fill="none" stroke="#000001" stroke-linejoin="round" stroke-miterlimit="10" d="M861.163,422.128H835.79
		c-0.824,0-1.5,0.676-1.5,1.5c0,0.826,0.676,1.5,1.5,1.5h25.373c0.826,0,1.5-0.674,1.5-1.5
		C862.663,422.804,861.989,422.128,861.163,422.128z"/>
	<path fill="none" stroke="#000001" stroke-linejoin="round" stroke-miterlimit="10" d="M861.163,397.44H835.79
		c-0.824,0-1.5,0.675-1.5,1.5c0,0.824,0.676,1.5,1.5,1.5h25.373c0.826,0,1.5-0.676,1.5-1.5
		C862.663,398.115,861.989,397.44,861.163,397.44z"/>
	<path fill="none" stroke="#000001" stroke-linejoin="round" stroke-miterlimit="10" d="M733.871,239.962h25.373
		c0.825,0,1.5-0.675,1.5-1.5c0-0.825-0.675-1.5-1.5-1.5h-25.373c-0.363,0-0.693,0.137-0.954,0.354
		c-0.172,0.295-0.346,0.593-0.521,0.889c-0.014,0.084-0.025,0.169-0.025,0.257C732.371,239.287,733.046,239.962,733.871,239.962z"/>
	<path fill="none" stroke="#000001" stroke-linejoin="round" stroke-miterlimit="10" d="M910.663,359.292c0.826,0,1.5-0.675,1.5-1.5
		s-0.674-1.5-1.5-1.5H885.29c-0.824,0-1.5,0.675-1.5,1.5s0.675,1.5,1.5,1.5H910.663z"/>
	<path fill="none" stroke="#000001" stroke-linejoin="round" stroke-miterlimit="10" d="M883.29,441.078c0,0.824,0.676,1.5,1.5,1.5
		h25.373c0.826,0,1.5-0.676,1.5-1.5c0-0.826-0.674-1.5-1.5-1.5H884.79C883.965,439.578,883.29,440.251,883.29,441.078z"/>
	<path fill="none" stroke="#000001" stroke-linejoin="round" stroke-miterlimit="10" d="M913.163,331.457c0-0.825-0.674-1.5-1.5-1.5
		H886.29c-0.824,0-1.5,0.675-1.5,1.5c0,0.038,0.01,0.074,0.012,0.111c1.064,0.312,2.039,0.791,2.918,1.389h23.943
		C912.489,332.957,913.163,332.282,913.163,331.457z"/>
	<path fill="none" stroke="#000001" stroke-linejoin="round" stroke-miterlimit="10" d="M913.663,305.122c0-0.825-0.674-1.5-1.5-1.5
		H886.79c-0.824,0-1.5,0.675-1.5,1.5s0.676,1.5,1.5,1.5h25.373C912.989,306.622,913.663,305.947,913.663,305.122z"/>
	<path fill="none" stroke="#000001" stroke-linejoin="round" stroke-miterlimit="10" d="M912.913,252.453c0-0.825-0.674-1.5-1.5-1.5
		H886.04c-0.824,0-1.5,0.675-1.5,1.5c0,0.825,0.675,1.5,1.5,1.5h25.373C912.239,253.953,912.913,253.278,912.913,252.453z"/>
	<path fill="none" stroke="#000001" stroke-linejoin="round" stroke-miterlimit="10" d="M835.79,267.12h25.373
		c0.826,0,1.5-0.675,1.5-1.5c0-0.825-0.674-1.5-1.5-1.5H835.79c-0.825,0-1.5,0.675-1.5,1.5
		C834.29,266.445,834.966,267.12,835.79,267.12z"/>
	<path fill="none" stroke="#000001" stroke-linejoin="round" stroke-miterlimit="10" d="M835.79,242.432h25.373
		c0.826,0,1.5-0.675,1.5-1.5c0-0.825-0.674-1.5-1.5-1.5H835.79c-0.824,0-1.5,0.675-1.5,1.5
		C834.29,241.757,834.965,242.432,835.79,242.432z"/>
	<path fill="none" stroke="#000001" stroke-linejoin="round" stroke-miterlimit="10" d="M861.913,292.101H836.54
		c-0.824,0-1.5,0.675-1.5,1.5c0,0.825,0.676,1.5,1.5,1.5h25.373c0.826,0,1.5-0.675,1.5-1.5
		C863.413,292.776,862.739,292.101,861.913,292.101z"/>
	<path fill="none" stroke="#000001" stroke-linejoin="round" stroke-miterlimit="10" d="M861.913,316.79H836.54
		c-0.824,0-1.5,0.675-1.5,1.5s0.676,1.5,1.5,1.5h25.373c0.826,0,1.5-0.675,1.5-1.5S862.739,316.79,861.913,316.79z"/>
	<path fill="none" stroke="#000001" stroke-linejoin="round" stroke-miterlimit="10" d="M784.122,253.13h25.373
		c0.824,0,1.5-0.675,1.5-1.5c0-0.825-0.676-1.5-1.5-1.5h-25.373c-0.827,0-1.5,0.675-1.5,1.5
		C782.622,252.455,783.296,253.13,784.122,253.13z"/>
	<path fill="none" stroke="#000001" stroke-linejoin="round" stroke-miterlimit="10" d="M784.122,226.795h25.373
		c0.824,0,1.5-0.675,1.5-1.5c0-0.825-0.676-1.5-1.5-1.5h-25.373c-0.826,0-1.5,0.675-1.5,1.5
		C782.622,226.12,783.295,226.795,784.122,226.795z"/>
	<path fill="none" stroke="#000001" stroke-linejoin="round" stroke-miterlimit="10" d="M810.245,276.465h-25.373
		c-0.826,0-1.5,0.675-1.5,1.5c0,0.825,0.674,1.5,1.5,1.5h25.373c0.824,0,1.5-0.675,1.5-1.5
		C811.745,277.14,811.069,276.465,810.245,276.465z"/>
	<path fill="none" stroke="#000001" stroke-linejoin="round" stroke-miterlimit="10" d="M810.245,302.8h-25.373
		c-0.826,0-1.5,0.675-1.5,1.5c0,0.825,0.674,1.5,1.5,1.5h25.373c0.824,0,1.5-0.675,1.5-1.5
		C811.745,303.475,811.069,302.8,810.245,302.8z"/>
	<path fill="none" stroke="#000001" stroke-linejoin="round" stroke-miterlimit="10" d="M734.621,292.632h25.373
		c0.825,0,1.5-0.675,1.5-1.5c0-0.825-0.675-1.5-1.5-1.5h-25.373c-0.825,0-1.5,0.675-1.5,1.5
		C733.121,291.957,733.796,292.632,734.621,292.632z"/>
	<path fill="none" stroke="#000001" stroke-linejoin="round" stroke-miterlimit="10" d="M733.871,266.297h25.373
		c0.825,0,1.5-0.675,1.5-1.5c0-0.825-0.675-1.5-1.5-1.5h-25.373c-0.825,0-1.5,0.675-1.5,1.5
		C732.371,265.622,733.046,266.297,733.871,266.297z"/>
	<path fill="none" stroke="#000001" stroke-linejoin="round" stroke-miterlimit="10" d="M909.163,468.089c0.826,0,1.5-0.676,1.5-1.5
		c0-0.826-0.674-1.5-1.5-1.5H883.79c-0.825,0-1.5,0.674-1.5,1.5c0,0.824,0.676,1.5,1.5,1.5H909.163z"/>
	<path fill="none" stroke="#000001" stroke-linejoin="round" stroke-miterlimit="10" d="M909.913,517.757H884.54
		c-0.825,0-1.5,0.676-1.5,1.5c0,0.826,0.676,1.5,1.5,1.5h25.373c0.826,0,1.5-0.674,1.5-1.5
		C911.413,518.433,910.739,517.757,909.913,517.757z"/>
	<path fill="none" stroke="#000001" stroke-linejoin="round" stroke-miterlimit="10" d="M910.913,491.423H885.54
		c-0.824,0-1.5,0.676-1.5,1.5c0,0.826,0.676,1.5,1.5,1.5h25.373c0.826,0,1.5-0.674,1.5-1.5
		C912.413,492.099,911.739,491.423,910.913,491.423z"/>
	<path fill="none" stroke="#000001" stroke-linejoin="round" stroke-miterlimit="10" d="M911.413,408.962H886.04
		c-0.824,0-1.5,0.675-1.5,1.5s0.676,1.5,1.5,1.5h25.373c0.826,0,1.5-0.675,1.5-1.5S912.239,408.962,911.413,408.962z"/>
	<path fill="none" stroke="#000001" stroke-linejoin="round" stroke-miterlimit="10" d="M912.413,382.627H887.04
		c-0.824,0-1.5,0.675-1.5,1.5s0.676,1.5,1.5,1.5h25.373c0.826,0,1.5-0.675,1.5-1.5S913.239,382.627,912.413,382.627z"/>
	<path fill="none" stroke="#000001" stroke-linejoin="round" stroke-miterlimit="10" d="M913.163,277.288H887.79
		c-0.824,0-1.5,0.675-1.5,1.5c0,0.825,0.676,1.5,1.5,1.5h25.373c0.826,0,1.5-0.675,1.5-1.5
		C914.663,277.963,913.989,277.288,913.163,277.288z"/>
	<path fill="none" stroke="#000001" stroke-linejoin="round" stroke-miterlimit="10" d="M886.04,201.283h25.373
		c0.826,0,1.5-0.675,1.5-1.5c0-0.825-0.674-1.5-1.5-1.5H886.04c-0.824,0-1.5,0.675-1.5,1.5
		C884.54,200.608,885.216,201.283,886.04,201.283z"/>
	<path fill="none" stroke="#000001" stroke-linejoin="round" stroke-miterlimit="10" d="M887.04,174.948h24.775l-11.344-3H887.04
		c-0.824,0-1.5,0.675-1.5,1.5C885.54,174.273,886.216,174.948,887.04,174.948z"/>
	<path fill="none" stroke="#000001" stroke-linejoin="round" stroke-miterlimit="10" d="M835.79,186.762c-0.824,0-1.5,0.675-1.5,1.5
		c0,0.825,0.676,1.5,1.5,1.5h25.373c0.826,0,1.5-0.675,1.5-1.5c0-0.825-0.674-1.5-1.5-1.5H835.79z"/>
	<path fill="none" stroke="#000001" stroke-linejoin="round" stroke-miterlimit="10" d="M835.04,161.781h25.373
		c0.285,0,0.546-0.084,0.772-0.223l-10.5-2.777H835.04c-0.824,0-1.5,0.675-1.5,1.5C833.54,161.106,834.216,161.781,835.04,161.781z"
		/>
	<path fill="none" stroke="#000001" stroke-linejoin="round" stroke-miterlimit="10" d="M783.372,172.626c0,0.825,0.674,1.5,1.5,1.5
		h25.373c0.824,0,1.5-0.675,1.5-1.5s-0.676-1.5-1.5-1.5h-25.373C784.046,171.126,783.372,171.801,783.372,172.626z"/>
	<path fill="none" stroke="#000001" stroke-linejoin="round" stroke-miterlimit="10" d="M784.121,147.791h25.008l-11.344-3h-13.664
		c-0.826,0-1.5,0.675-1.5,1.5S783.295,147.791,784.121,147.791z"/>
	<path fill="none" stroke="#000001" stroke-linejoin="round" stroke-miterlimit="10" d="M733.871,160.958h25.373
		c0.825,0,1.5-0.675,1.5-1.5s-0.675-1.5-1.5-1.5h-25.373c-0.825,0-1.5,0.675-1.5,1.5S733.046,160.958,733.871,160.958z"/>
	<path fill="none" stroke="#000001" stroke-linejoin="round" stroke-miterlimit="10" d="M733.871,134.623h25.373
		c0.023,0,0.046-0.006,0.068-0.007l-11.315-2.993h-14.126c-0.825,0-1.5,0.675-1.5,1.5S733.046,134.623,733.871,134.623z"/>
	<path fill="none" stroke="#000001" stroke-linejoin="round" stroke-miterlimit="10" d="M683.621,120.633h25.373
		c0.825,0,1.5-0.675,1.5-1.5c0-0.825-0.675-1.5-1.5-1.5h-25.373c-0.825,0-1.5,0.675-1.5,1.5
		C682.121,119.958,682.796,120.633,683.621,120.633z"/>
	<path fill="none" stroke="#000001" stroke-linejoin="round" stroke-miterlimit="10" d="M683.621,146.968h25.373
		c0.825,0,1.5-0.675,1.5-1.5c0-0.825-0.675-1.5-1.5-1.5h-25.373c-0.825,0-1.5,0.675-1.5,1.5
		C682.121,146.293,682.796,146.968,683.621,146.968z"/>
	<path fill="none" stroke="#000001" stroke-linejoin="round" stroke-miterlimit="10" d="M1162.161,292.924h-25.373
		c-0.824,0-1.5,0.675-1.5,1.5c0,0.825,0.676,1.5,1.5,1.5h25.373c0.826,0,1.5-0.675,1.5-1.5
		C1163.661,293.599,1162.987,292.924,1162.161,292.924z"/>
	<path fill="none" stroke="#000001" stroke-linejoin="round" stroke-miterlimit="10" d="M1136.038,243.254h25.373
		c0.826,0,1.5-0.675,1.5-1.5c0-0.145-0.028-0.282-0.064-0.415l-4.104-1.085h-22.705c-0.824,0-1.5,0.675-1.5,1.5
		C1134.538,242.579,1135.214,243.254,1136.038,243.254z"/>
	<path fill="none" stroke="#000001" stroke-linejoin="round" stroke-miterlimit="10" d="M1284.913,362.584h25.373
		c0.826,0,1.5-0.675,1.5-1.5s-0.674-1.5-1.5-1.5h-25.373c-0.825,0-1.5,0.675-1.5,1.5S1284.089,362.584,1284.913,362.584z"/>
	<path fill="none" stroke="#000001" stroke-linejoin="round" stroke-miterlimit="10" d="M1285.913,336.249h25.373
		c0.826,0,1.5-0.675,1.5-1.5s-0.674-1.5-1.5-1.5h-25.373c-0.824,0-1.5,0.675-1.5,1.5S1285.088,336.249,1285.913,336.249z"/>
	<path fill="none" stroke="#000001" stroke-linejoin="round" stroke-miterlimit="10" d="M1312.536,413.753
		c0-0.826-0.674-1.5-1.5-1.5h-25.373c-0.824,0-1.5,0.675-1.5,1.5c0,0.824,0.676,1.5,1.5,1.5h25.373
		C1311.862,415.253,1312.536,414.578,1312.536,413.753z"/>
	<path fill="none" stroke="#000001" stroke-linejoin="round" stroke-miterlimit="10" d="M1285.163,442.869
		c-0.824,0-1.5,0.676-1.5,1.5c0,0.826,0.676,1.5,1.5,1.5h25.373c0.826,0,1.5-0.674,1.5-1.5c0-0.824-0.674-1.5-1.5-1.5H1285.163z"/>
	<path fill="none" stroke="#000001" stroke-linejoin="round" stroke-miterlimit="10" d="M1311.036,469.88c0-0.824-0.674-1.5-1.5-1.5
		h-25.373c-0.825,0-1.5,0.676-1.5,1.5c0,0.826,0.676,1.5,1.5,1.5h25.373C1310.362,471.38,1311.036,470.707,1311.036,469.88z"/>
	<path fill="none" stroke="#000001" stroke-linejoin="round" stroke-miterlimit="10" d="M1311.286,494.714h-25.373
		c-0.825,0-1.5,0.676-1.5,1.5c0,0.826,0.676,1.5,1.5,1.5h25.373c0.826,0,1.5-0.674,1.5-1.5
		C1312.786,495.39,1312.112,494.714,1311.286,494.714z"/>
	<path fill="none" stroke="#000001" stroke-linejoin="round" stroke-miterlimit="10" d="M1312.036,385.919h-25.373
		c-0.824,0-1.5,0.675-1.5,1.5s0.676,1.5,1.5,1.5h25.373c0.826,0,1.5-0.675,1.5-1.5S1312.862,385.919,1312.036,385.919z"/>
	<path fill="none" stroke="#000001" stroke-linejoin="round" stroke-miterlimit="10" d="M1286.413,309.914h25.373
		c0.826,0,1.5-0.675,1.5-1.5s-0.674-1.5-1.5-1.5h-25.373c-0.824,0-1.5,0.675-1.5,1.5S1285.589,309.914,1286.413,309.914z"/>
	<path fill="none" stroke="#000001" stroke-linejoin="round" stroke-miterlimit="10" d="M1234.663,351.062h25.373
		c0.826,0,1.5-0.676,1.5-1.5c0-0.825-0.674-1.5-1.5-1.5h-25.373c-0.825,0-1.5,0.675-1.5,1.5
		C1233.163,350.387,1233.839,351.062,1234.663,351.062z"/>
	<path fill="none" stroke="#000001" stroke-linejoin="round" stroke-miterlimit="10" d="M1235.413,270.412h25.373
		c0.826,0,1.5-0.675,1.5-1.5c0-0.825-0.674-1.5-1.5-1.5h-25.373c-0.824,0-1.5,0.675-1.5,1.5
		C1233.913,269.737,1234.588,270.412,1235.413,270.412z"/>
	<path fill="none" stroke="#000001" stroke-linejoin="round" stroke-miterlimit="10" d="M1234.663,375.751h25.373
		c0.826,0,1.5-0.675,1.5-1.5s-0.674-1.5-1.5-1.5h-25.373c-0.825,0-1.5,0.675-1.5,1.5S1233.839,375.751,1234.663,375.751z"/>
	<path fill="none" stroke="#000001" stroke-linejoin="round" stroke-miterlimit="10" d="M1233.913,459.859h25.373
		c0.826,0,1.5-0.674,1.5-1.5c0-0.824-0.674-1.5-1.5-1.5h-25.373c-0.825,0-1.5,0.676-1.5,1.5
		C1232.413,459.185,1233.089,459.859,1233.913,459.859z"/>
	<path fill="none" stroke="#000001" stroke-linejoin="round" stroke-miterlimit="10" d="M1259.286,484.548
		c0.826,0,1.5-0.676,1.5-1.5c0-0.826-0.674-1.5-1.5-1.5h-25.373c-0.825,0-1.5,0.674-1.5,1.5c0,0.824,0.676,1.5,1.5,1.5H1259.286z"/>
	<path fill="none" stroke="#000001" stroke-linejoin="round" stroke-miterlimit="10" d="M1260.036,509.529h-25.373
		c-0.825,0-1.5,0.674-1.5,1.5c0,0.824,0.676,1.5,1.5,1.5h25.373c0.826,0,1.5-0.676,1.5-1.5
		C1261.536,510.203,1260.862,509.529,1260.036,509.529z"/>
	<path fill="none" stroke="#000001" stroke-linejoin="round" stroke-miterlimit="10" d="M1260.786,425.421h-25.373
		c-0.824,0-1.5,0.674-1.5,1.5c0,0.824,0.676,1.5,1.5,1.5h25.373c0.826,0,1.5-0.676,1.5-1.5
		C1262.286,426.095,1261.612,425.421,1260.786,425.421z"/>
	<path fill="none" stroke="#000001" stroke-linejoin="round" stroke-miterlimit="10" d="M1260.786,400.732h-25.373
		c-0.824,0-1.5,0.675-1.5,1.5c0,0.824,0.676,1.5,1.5,1.5h25.373c0.826,0,1.5-0.676,1.5-1.5
		C1262.286,401.407,1261.612,400.732,1260.786,400.732z"/>
	<path fill="none" stroke="#000001" stroke-linejoin="round" stroke-miterlimit="10" d="M1261.536,320.082h-25.373
		c-0.824,0-1.5,0.675-1.5,1.5s0.676,1.5,1.5,1.5h25.373c0.826,0,1.5-0.675,1.5-1.5S1262.362,320.082,1261.536,320.082z"/>
	<path fill="none" stroke="#000001" stroke-linejoin="round" stroke-miterlimit="10" d="M1261.536,295.393h-25.373
		c-0.824,0-1.5,0.675-1.5,1.5c0,0.825,0.676,1.5,1.5,1.5h25.373c0.826,0,1.5-0.675,1.5-1.5
		C1263.036,296.068,1262.362,295.393,1261.536,295.393z"/>
	<path fill="none" stroke="#000001" stroke-linejoin="round" stroke-miterlimit="10" d="M1185.538,361.761h25.373
		c0.826,0,1.5-0.675,1.5-1.5s-0.674-1.5-1.5-1.5h-25.373c-0.825,0-1.5,0.675-1.5,1.5S1184.714,361.761,1185.538,361.761z"/>
	<path fill="none" stroke="#000001" stroke-linejoin="round" stroke-miterlimit="10" d="M1185.538,335.426h25.373
		c0.826,0,1.5-0.675,1.5-1.5s-0.674-1.5-1.5-1.5h-25.373c-0.824,0-1.5,0.675-1.5,1.5S1184.713,335.426,1185.538,335.426z"/>
	<path fill="none" stroke="#000001" stroke-linejoin="round" stroke-miterlimit="10" d="M1184.038,445.046h25.373
		c0.826,0,1.5-0.676,1.5-1.5c0-0.826-0.674-1.5-1.5-1.5h-25.373c-0.824,0-1.5,0.674-1.5,1.5
		C1182.538,444.371,1183.214,445.046,1184.038,445.046z"/>
	<path fill="none" stroke="#000001" stroke-linejoin="round" stroke-miterlimit="10" d="M1211.661,411.431h-25.373
		c-0.824,0-1.5,0.676-1.5,1.5c0,0.825,0.676,1.5,1.5,1.5h25.373c0.826,0,1.5-0.676,1.5-1.5
		C1213.161,412.106,1212.487,411.431,1211.661,411.431z"/>
	<path fill="none" stroke="#000001" stroke-linejoin="round" stroke-miterlimit="10" d="M1210.161,493.892h-25.373
		c-0.824,0-1.5,0.678-1.5,1.5c0,0.826,0.676,1.5,1.5,1.5h25.373c0.826,0,1.5-0.674,1.5-1.5
		C1211.661,494.568,1210.987,493.892,1210.161,493.892z"/>
	<path fill="none" stroke="#000001" stroke-linejoin="round" stroke-miterlimit="10" d="M1211.661,385.096h-25.373
		c-0.824,0-1.5,0.676-1.5,1.5c0,0.825,0.676,1.5,1.5,1.5h25.373c0.826,0,1.5-0.675,1.5-1.5
		C1213.161,385.771,1212.487,385.096,1211.661,385.096z"/>
	<path fill="none" stroke="#000001" stroke-linejoin="round" stroke-miterlimit="10" d="M1212.411,306.092h-25.373
		c-0.824,0-1.5,0.675-1.5,1.5c0,0.825,0.676,1.5,1.5,1.5h25.373c0.826,0,1.5-0.675,1.5-1.5
		C1213.911,306.767,1213.237,306.092,1212.411,306.092z"/>
	<path fill="none" stroke="#000001" stroke-linejoin="round" stroke-miterlimit="10" d="M1212.411,279.757h-25.373
		c-0.824,0-1.5,0.675-1.5,1.5c0,0.825,0.676,1.5,1.5,1.5h25.373c0.826,0,1.5-0.675,1.5-1.5
		C1213.911,280.432,1213.237,279.757,1212.411,279.757z"/>
	<path fill="none" stroke="#000001" stroke-linejoin="round" stroke-miterlimit="10" d="M1186.288,256.422h25.373
		c0.826,0,1.5-0.675,1.5-1.5c0-0.097-0.01-0.192-0.027-0.283l-4.602-1.217h-22.244c-0.824,0-1.5,0.675-1.5,1.5
		C1184.788,255.747,1185.464,256.422,1186.288,256.422z"/>
	<path fill="none" stroke="#000001" stroke-linejoin="round" stroke-miterlimit="10" d="M1209.411,470.558
		c0.826,0,1.5-0.676,1.5-1.5s-0.674-1.5-1.5-1.5h-25.373c-0.825,0-1.5,0.674-1.5,1.5c0,0.824,0.676,1.5,1.5,1.5H1209.411z"/>
	<path fill="none" stroke="#000001" stroke-linejoin="round" stroke-miterlimit="10" d="M1509.284,444.515h-25.373
		c-0.824,0-1.5,0.676-1.5,1.5s0.676,1.5,1.5,1.5h25.373c0.826,0,1.5-0.676,1.5-1.5S1510.11,444.515,1509.284,444.515z"/>
	<path fill="none" stroke="#000001" stroke-linejoin="round" stroke-miterlimit="10" d="M1509.284,470.027h-25.373
		c-0.824,0-1.5,0.674-1.5,1.5c0,0.824,0.676,1.5,1.5,1.5h25.373c0.826,0,1.5-0.676,1.5-1.5
		C1510.784,470.701,1510.11,470.027,1509.284,470.027z"/>
	<path fill="none" stroke="#000001" stroke-linejoin="round" stroke-miterlimit="10" d="M1485.41,416.9h16.436
		c-0.865-1.002-1.728-2.004-2.59-3h-13.846c-0.824,0-1.5,0.674-1.5,1.5C1483.91,416.224,1484.586,416.9,1485.41,416.9z"/>
	<path fill="none" stroke="#000001" stroke-linejoin="round" stroke-miterlimit="10" d="M1459.034,483.193h-25.373
		c-0.825,0-1.5,0.676-1.5,1.5c0,0.826,0.676,1.5,1.5,1.5h25.373c0.826,0,1.5-0.674,1.5-1.5
		C1460.534,483.869,1459.86,483.193,1459.034,483.193z"/>
	<path fill="none" stroke="#000001" stroke-linejoin="round" stroke-miterlimit="10" d="M1434.411,377.397h25.373
		c0.826,0,1.5-0.676,1.5-1.5c0-0.825-0.674-1.5-1.5-1.5h-25.373c-0.824,0-1.5,0.675-1.5,1.5S1433.586,377.397,1434.411,377.397z"/>
	<path fill="none" stroke="#000001" stroke-linejoin="round" stroke-miterlimit="10" d="M1460.286,456.037h-25.373
		c-0.824,0-1.5,0.674-1.5,1.5c0,0.824,0.676,1.5,1.5,1.5h25.373c0.826,0,1.5-0.676,1.5-1.5
		C1461.786,456.71,1461.112,456.037,1460.286,456.037z"/>
	<path fill="none" stroke="#000001" stroke-linejoin="round" stroke-miterlimit="10" d="M1460.534,427.066h-25.373
		c-0.824,0-1.5,0.676-1.5,1.5c0,0.826,0.676,1.5,1.5,1.5h25.373c0.826,0,1.5-0.674,1.5-1.5
		C1462.034,427.742,1461.36,427.066,1460.534,427.066z"/>
	<path fill="none" stroke="#000001" stroke-linejoin="round" stroke-miterlimit="10" d="M1461.786,399.909h-25.373
		c-0.824,0-1.5,0.675-1.5,1.5s0.676,1.5,1.5,1.5h25.373c0.826,0,1.5-0.675,1.5-1.5S1462.612,399.909,1461.786,399.909z"/>
	<path fill="none" stroke="#000001" stroke-linejoin="round" stroke-miterlimit="10" d="M1435.663,350.239h9.186
		c-0.697-1.001-1.368-2.001-2.016-3h-7.17c-0.824,0-1.5,0.675-1.5,1.5S1434.839,350.239,1435.663,350.239z"/>
	<path fill="none" stroke="#000001" stroke-linejoin="round" stroke-miterlimit="10" d="M1385.413,363.407h25.373
		c0.826,0,1.5-0.675,1.5-1.5s-0.674-1.5-1.5-1.5h-25.373c-0.825,0-1.5,0.675-1.5,1.5S1384.589,363.407,1385.413,363.407z"/>
	<path fill="none" stroke="#000001" stroke-linejoin="round" stroke-miterlimit="10" d="M1386.413,337.072h25.373
		c0.826,0,1.5-0.675,1.5-1.5s-0.674-1.5-1.5-1.5h-25.373c-0.824,0-1.5,0.675-1.5,1.5S1385.588,337.072,1386.413,337.072z"/>
	<path fill="none" stroke="#000001" stroke-linejoin="round" stroke-miterlimit="10" d="M1413.036,414.576
		c0-0.824-0.674-1.5-1.5-1.5h-25.373c-0.824,0-1.5,0.675-1.5,1.5c0,0.826,0.676,1.5,1.5,1.5h25.373
		C1412.362,416.076,1413.036,415.402,1413.036,414.576z"/>
	<path fill="none" stroke="#000001" stroke-linejoin="round" stroke-miterlimit="10" d="M1385.663,443.691
		c-0.824,0-1.5,0.676-1.5,1.5c0,0.826,0.676,1.5,1.5,1.5h25.373c0.826,0,1.5-0.674,1.5-1.5c0-0.824-0.674-1.5-1.5-1.5H1385.663z"/>
	<path fill="none" stroke="#000001" stroke-linejoin="round" stroke-miterlimit="10" d="M1411.536,470.703
		c0-0.824-0.674-1.5-1.5-1.5h-25.373c-0.825,0-1.5,0.676-1.5,1.5c0,0.826,0.676,1.5,1.5,1.5h25.373
		C1410.862,472.203,1411.536,471.529,1411.536,470.703z"/>
	<path fill="none" stroke="#000001" stroke-linejoin="round" stroke-miterlimit="10" d="M1411.786,495.539h-25.373
		c-0.825,0-1.5,0.674-1.5,1.5c0,0.824,0.676,1.5,1.5,1.5h25.373c0.826,0,1.5-0.676,1.5-1.5
		C1413.286,496.212,1412.612,495.539,1411.786,495.539z"/>
	<path fill="none" stroke="#000001" stroke-linejoin="round" stroke-miterlimit="10" d="M1412.536,386.741h-25.373
		c-0.824,0-1.5,0.675-1.5,1.5s0.676,1.5,1.5,1.5h25.373c0.826,0,1.5-0.675,1.5-1.5S1413.362,386.741,1412.536,386.741z"/>
	<path fill="none" stroke="#000001" stroke-linejoin="round" stroke-miterlimit="10" d="M1386.913,310.737h25.373
		c0.826,0,1.5-0.675,1.5-1.5s-0.674-1.5-1.5-1.5h-25.373c-0.824,0-1.5,0.675-1.5,1.5S1386.089,310.737,1386.913,310.737z"/>
	<path fill="none" stroke="#000001" stroke-linejoin="round" stroke-miterlimit="10" d="M1361.007,293.747h-24.344
		c-0.824,0-1.5,0.675-1.5,1.5s0.676,1.5,1.5,1.5h25.373c0.826,0,1.5-0.675,1.5-1.5c0-0.346-0.123-0.662-0.322-0.916
		L1361.007,293.747z"/>
	<path fill="none" stroke="#000001" stroke-linejoin="round" stroke-miterlimit="10" d="M1335.163,376.574h25.373
		c0.826,0,1.5-0.675,1.5-1.5s-0.674-1.5-1.5-1.5h-25.373c-0.825,0-1.5,0.675-1.5,1.5S1334.339,376.574,1335.163,376.574z"/>
	<path fill="none" stroke="#000001" stroke-linejoin="round" stroke-miterlimit="10" d="M1335.163,349.416h25.373
		c0.826,0,1.5-0.675,1.5-1.5s-0.674-1.5-1.5-1.5h-25.373c-0.824,0-1.5,0.675-1.5,1.5S1334.338,349.416,1335.163,349.416z"/>
	<path fill="none" stroke="#000001" stroke-linejoin="round" stroke-miterlimit="10" d="M1334.413,458.212h25.373
		c0.826,0,1.5-0.674,1.5-1.5c0-0.824-0.674-1.5-1.5-1.5h-25.373c-0.825,0-1.5,0.676-1.5,1.5
		C1332.913,457.539,1333.589,458.212,1334.413,458.212z"/>
	<path fill="none" stroke="#000001" stroke-linejoin="round" stroke-miterlimit="10" d="M1361.286,426.244h-25.373
		c-0.824,0-1.5,0.676-1.5,1.5c0,0.826,0.676,1.5,1.5,1.5h25.373c0.826,0,1.5-0.674,1.5-1.5
		C1362.786,426.919,1362.112,426.244,1361.286,426.244z"/>
	<path fill="none" stroke="#000001" stroke-linejoin="round" stroke-miterlimit="10" d="M1360.536,507.882h-25.373
		c-0.824,0-1.5,0.676-1.5,1.5c0,0.826,0.676,1.5,1.5,1.5h25.373c0.826,0,1.5-0.674,1.5-1.5
		C1362.036,508.558,1361.362,507.882,1360.536,507.882z"/>
	<path fill="none" stroke="#000001" stroke-linejoin="round" stroke-miterlimit="10" d="M1361.286,399.086h-25.373
		c-0.824,0-1.5,0.675-1.5,1.5s0.676,1.5,1.5,1.5h25.373c0.826,0,1.5-0.675,1.5-1.5S1362.112,399.086,1361.286,399.086z"/>
	<path fill="none" stroke="#000001" stroke-linejoin="round" stroke-miterlimit="10" d="M1362.036,320.904h-25.373
		c-0.824,0-1.5,0.675-1.5,1.5c0,0.824,0.676,1.5,1.5,1.5h25.373c0.826,0,1.5-0.676,1.5-1.5
		C1363.536,321.579,1362.862,320.904,1362.036,320.904z"/>
	<path fill="none" stroke="#000001" stroke-linejoin="round" stroke-miterlimit="10" d="M1359.786,485.371
		c0.826,0,1.5-0.674,1.5-1.5c0-0.824-0.674-1.5-1.5-1.5h-25.373c-0.825,0-1.5,0.676-1.5,1.5c0,0.826,0.676,1.5,1.5,1.5H1359.786z"/>
	<path fill="none" stroke="#000001" stroke-linejoin="round" stroke-miterlimit="10" d="M1536.836,457.681h-2.676
		c-0.824,0-1.5,0.678-1.5,1.5c0,0.826,0.676,1.5,1.5,1.5h5.219C1538.549,459.701,1537.704,458.703,1536.836,457.681z"/>
</g>
<path fill="none" stroke="#000001" stroke-linejoin="round" stroke-miterlimit="10" d="M1407.009,564.784
	c-7.443,10.947-20.842,14.362-33.063,16.949c-11.808-0.394-27.032-0.783-45.572-1.168c-5.389,0-9.748-10.464-9.748-23.396
	c0-9.928,5.134-17.961,11.479-17.961c3.162-0.273,7.104-0.568,11.412-0.867c0.012-0.002,0.022-0.002,0.034-0.002
	c0.703-0.049,1.416-0.098,2.14-0.146c0.029-0.004,0.061-0.006,0.09-0.008c0.713-0.047,1.43-0.096,2.154-0.145l0,0
	c5.764-0.383,11.895-0.762,17.532-1.098c0.019-0.002,0.035-0.002,0.054-0.004c0.645-0.039,1.282-0.076,1.914-0.113
	c0.215-0.012,0.428-0.025,0.639-0.037c0.359-0.021,0.715-0.043,1.068-0.062c0.426-0.023,0.848-0.051,1.264-0.072
	c0.109-0.01,0.219-0.016,0.328-0.021c7.229-0.422,12.979-0.736,14.973-0.846c0.062-0.002,0.119-0.006,0.174-0.01
	c0.25-0.014,0.42-0.021,0.508-0.027c0.033-0.002,0.074-0.004,0.074-0.004c0.119-0.008,0.228-0.023,0.324-0.051
	c0.031-0.008,0.055-0.021,0.084-0.031c0.062-0.021,0.125-0.043,0.18-0.072c0.029-0.016,0.052-0.039,0.078-0.057
	c0.045-0.031,0.09-0.061,0.127-0.098c0.025-0.023,0.041-0.053,0.062-0.078c0.031-0.039,0.065-0.078,0.092-0.123
	c0.016-0.029,0.027-0.062,0.041-0.094c0.023-0.049,0.047-0.098,0.062-0.152c0.01-0.033,0.016-0.07,0.022-0.107
	c0.014-0.057,0.027-0.115,0.035-0.178c0.004-0.037,0.006-0.078,0.008-0.117c0.004-0.066,0.01-0.135,0.01-0.207
	c0-0.037-0.004-0.078-0.006-0.117c-0.004-0.08-0.008-0.158-0.016-0.24c-0.004-0.037-0.01-0.076-0.017-0.115
	c-0.01-0.092-0.022-0.182-0.038-0.275c-0.007-0.033-0.015-0.066-0.021-0.1c-0.02-0.105-0.041-0.211-0.066-0.322
	c-0.006-0.023-0.012-0.049-0.018-0.072c-0.029-0.123-0.061-0.248-0.094-0.377c-0.004-0.012-0.008-0.023-0.01-0.035
	c-0.832-3.053-3.086-7.453-1.072-8.441l0,0c0.072-0.037,0.145-0.072,0.229-0.1c2.332-0.746,4.771-1.518,7.287-2.311l0,0
	c0.883-0.277,1.775-0.557,2.678-0.84c0.027-0.008,0.058-0.02,0.087-0.027c0.909-0.285,1.829-0.572,2.76-0.861
	c0.002,0,0.002,0,0.004-0.002c1.869-0.582,3.775-1.174,5.719-1.773c0.029-0.008,0.058-0.018,0.086-0.027
	c41.052-12.68,97.523-29.064,127.802-37.783c0.059-0.018,0.116-0.031,0.176-0.051c2.07-0.596,4.016-1.154,5.824-1.676
	c0.11-0.031,0.223-0.062,0.332-0.094c0.567-0.164,1.127-0.324,1.668-0.48c0.008-0.002,0.018-0.004,0.024-0.006
	c0.537-0.154,1.058-0.305,1.566-0.451c0.113-0.031,0.227-0.062,0.338-0.096c0.357-0.104,0.701-0.201,1.041-0.299
	c0.295-0.084,0.584-0.168,0.867-0.248c0.26-0.074,0.518-0.148,0.768-0.221c0.14-0.039,0.271-0.078,0.408-0.117
	c0.889-0.254,1.715-0.49,2.471-0.707c0.047-0.014,0.094-0.027,0.142-0.041c0.346-0.098,0.678-0.193,0.993-0.283
	c0.502-0.145,0.964-0.275,1.388-0.396c0.752-0.215,1.379-0.395,1.873-0.533c0.114-0.033,0.213-0.062,0.312-0.092
	c0.668-0.189,1.031-0.295,1.031-0.295c4.087-1.209,3.887-9.449,1.165-12.711c-0.297-0.354-0.604-0.719-0.907-1.082l0,0
	c-0.814-0.969-1.658-1.971-2.525-3l0,0c-0.01-0.01-0.018-0.02-0.027-0.029c-16.03-19.008-40.725-47.599-60.227-70.086l0,0
	c-4.504-5.191-8.726-10.053-12.502-14.398c-0.027-0.032-0.056-0.062-0.082-0.095c-0.306-0.351-0.607-0.697-0.906-1.041
	c-0.301-0.347-0.598-0.689-0.893-1.028c-0.123-0.142-0.244-0.28-0.365-0.42c-0.266-0.306-0.533-0.613-0.795-0.914
	c-0.306-0.35-0.603-0.692-0.898-1.033c-0.147-0.172-0.301-0.345-0.446-0.515c-0.049-0.055-0.097-0.109-0.144-0.164
	c-1.102-1.266-2.145-2.465-3.129-3.596c-0.08-0.094-0.162-0.187-0.242-0.278c-3.926-4.511-6.846-7.861-8.373-9.612
	c-0.127-0.145-0.243-0.279-0.352-0.402c-0.271-0.313-0.484-0.557-0.625-0.719c-0.144-0.162-0.224-0.255-0.224-0.255
	c-0.448-0.521-0.881-1.038-1.311-1.555c-0.35-0.422-0.693-0.843-1.031-1.263c-0.824-1.021-1.621-2.037-2.377-3.05
	c-0.613-0.82-1.199-1.639-1.771-2.457c-0.154-0.218-0.304-0.437-0.453-0.653c-0.476-0.689-0.938-1.378-1.387-2.067
	c-0.093-0.14-0.187-0.279-0.277-0.419c-0.535-0.832-1.055-1.665-1.559-2.5c-0.089-0.146-0.175-0.293-0.263-0.439
	c-0.436-0.729-0.858-1.462-1.272-2.196c-0.084-0.149-0.17-0.298-0.254-0.448c-0.976-1.748-1.896-3.514-2.779-5.311
	c-0.053-0.107-0.104-0.215-0.158-0.321c-0.907-1.858-1.78-3.749-2.635-5.688l0,0c-0.443-1.006-0.883-2.023-1.32-3.058
	c-3.114-7.382-6.137-15.518-10.065-25.114c-0.035-0.085-0.072-0.174-0.107-0.259c-0.348-0.851-0.701-1.709-1.063-2.583
	c-0.084-0.202-0.175-0.41-0.259-0.613c-0.319-0.769-0.643-1.539-0.977-2.326c-0.143-0.336-0.293-0.684-0.439-1.024
	c-0.282-0.668-0.565-1.332-0.86-2.014c-0.215-0.497-0.441-1.009-0.662-1.514c-0.236-0.544-0.469-1.08-0.713-1.633
	c-0.306-0.688-0.621-1.395-0.937-2.097c-0.176-0.388-0.342-0.767-0.52-1.159c-0.498-1.105-1.012-2.229-1.539-3.37
	c-0.092-0.197-0.195-0.363-0.309-0.51c-0.037-0.048-0.08-0.084-0.119-0.126c-0.08-0.088-0.164-0.172-0.254-0.239
	c-0.054-0.039-0.107-0.07-0.164-0.102c-0.088-0.051-0.179-0.095-0.273-0.128c-0.062-0.022-0.125-0.042-0.191-0.057
	c-0.098-0.023-0.202-0.036-0.309-0.044c-0.068-0.005-0.137-0.013-0.209-0.012c-0.117,0.002-0.242,0.018-0.367,0.036
	c-0.067,0.01-0.133,0.013-0.203,0.027c-0.19,0.04-0.391,0.094-0.598,0.166c-0.078,0.026-0.16,0.064-0.238,0.095
	c-0.141,0.055-0.28,0.109-0.428,0.177c-0.109,0.049-0.221,0.108-0.332,0.165c-0.125,0.062-0.25,0.125-0.379,0.196
	c-0.123,0.067-0.248,0.141-0.375,0.215c-0.123,0.073-0.248,0.148-0.375,0.227c-0.135,0.083-0.27,0.168-0.408,0.258
	c-0.123,0.081-0.25,0.166-0.375,0.251c-0.147,0.1-0.295,0.198-0.444,0.304c-0.109,0.077-0.224,0.159-0.332,0.238
	c-0.654,0.47-1.341,0.989-2.052,1.547c-0.041,0.031-0.08,0.062-0.121,0.094c-0.264,0.208-0.532,0.421-0.805,0.638
	c-0.01,0.007-0.018,0.015-0.027,0.022l0,0c-1.248,0.997-2.562,2.069-3.918,3.143c-0.852,0.674-1.719,1.344-2.594,1.994
	c-0.135,0.101-0.271,0.204-0.408,0.303c-0.198,0.146-0.397,0.288-0.6,0.431c-0.17,0.122-0.342,0.246-0.512,0.366
	c-0.191,0.133-0.383,0.262-0.574,0.392c-0.182,0.124-0.365,0.249-0.547,0.369c-0.186,0.123-0.371,0.24-0.559,0.359
	c-0.188,0.12-0.375,0.24-0.564,0.356c-0.182,0.111-0.363,0.218-0.545,0.325c-0.193,0.114-0.385,0.227-0.578,0.335
	c-0.178,0.1-0.357,0.196-0.535,0.291c-0.192,0.104-0.389,0.205-0.582,0.303c-0.176,0.088-0.352,0.173-0.526,0.256
	c-0.195,0.092-0.392,0.18-0.584,0.264c-0.173,0.075-0.345,0.147-0.517,0.216c-0.197,0.079-0.393,0.151-0.59,0.221
	c-0.166,0.06-0.334,0.119-0.5,0.172c-0.197,0.063-0.395,0.118-0.592,0.171c-0.16,0.044-0.322,0.089-0.482,0.125
	c-0.201,0.046-0.399,0.081-0.6,0.115c-0.152,0.026-0.305,0.056-0.457,0.076c-0.207,0.026-0.412,0.037-0.617,0.049
	c-0.139,0.008-0.279,0.023-0.418,0.025c-0.227,0.002-0.449-0.014-0.672-0.03c-0.111-0.008-0.227-0.007-0.34-0.02
	c-0.332-0.04-0.66-0.099-0.982-0.185L736.951,118.439c-14.527-3.847-28.105-11.984-39.326-21.975
	c-0.335-0.298-0.678-0.626-1.023-0.974c-0.021-0.021-0.039-0.04-0.061-0.06c-0.354-0.356-0.71-0.734-1.07-1.132l0,0
	c-0.836-0.922-1.687-1.945-2.533-3.028c-5.254-6.71-10.344-15.613-10.344-15.613c-2.074-2.881-8.44-0.644-10.396,2.316
	c-1.022,1.547-2.049,3.097-3.077,4.651c-4.247,3.672-10.24,4.678-15.688,4.249c-1.813-0.143-3.652-0.398-5.433-0.765
	c-1.895-0.39-3.742-1.013-5.498-1.826c-4.74-2.193-9.624-5.675-12.021-10.448c-1.161-2.312-2.061-5.422-2.061-8.029
	c4.379-6.739-66.09-47.181-66.09-47.181c-8.825-6.294-19.845-10.099-30.669-10.914C490.071,4.592,414.54,0.005,414.54,0.005
	c-2.202-0.158-4.709,3.486-3.743,5.477c8.87,18.175,19.712,41.601,19.712,41.601c1.679,3.529-2.562,7.612-5.178,10.518
	C282.862,216.075,148.842,367.914,13.29,525.425c-3.616,4.215-10.733,12.764-10.733,12.764c-3.965,4.729-1.674,12.242-2.512,18.357
	c-0.973,7.125,13.916,4.576,21.092,4.385c83.807-2.377,235.345-11.363,269.214-12.09c49.259,0,89.12,17.964,89.12,40.163h-0.002
	c-0.614,11.735,2.929,29.298,8.634,38.349c9.093,14.398,10.537,14.992,52.448,22.107c18.034,3.061,38.358,7.822,45.192,10.6
	c20.322,8.275,38.749,31.939,72.77,93.582c17.705,32.111,34.625,62.039,37.576,66.49c3.462,5.215,7.315,7.254,10.81,5.695
	c3.01-1.332,18.455-6.234,34.383-10.91c37.362-10.969,82.135-12.16,420.639-11.225c305.625,0.852,362.893-0.512,370.298-8.76
	c7.256-8.104,6.231-20.855-7.588-95.764c-5.043-27.285-10.19-57.11-13.134-75.76c0-8.396,7.983-15.19,17.85-15.19l0.003,0.003
	c1.963,0.387,3.992,0.59,6.069,0.59c17.221,0,31.181-13.959,31.181-31.18s-13.96-31.182-31.181-31.182
	c-12.638,0-23.52,7.52-28.416,18.328L1407.009,564.784z"/>
</svg>
