<?xml version="1.0" encoding="utf-8"?>
<!-- Generator: Adobe Illustrator 16.0.0, SVG Export Plug-In . SVG Version: 6.00 Build 0)  -->
<!DOCTYPE svg PUBLIC "-//W3C//DTD SVG 1.1//EN" "http://www.w3.org/Graphics/SVG/1.1/DTD/svg11.dtd">
<svg version="1.1" id="Layer_1" xmlns="http://www.w3.org/2000/svg" xmlns:xlink="http://www.w3.org/1999/xlink" x="0px" y="0px"
	 width="1022.568px" height="622.4px" viewBox="0 0 1022.568 622.4" enable-background="new 0 0 1022.568 622.4"
	 xml:space="preserve">
<path fill="none" stroke="#1D1D1B" stroke-linejoin="round" stroke-miterlimit="10" d="M73.957,443.029
	c-7.667,6.545-10.979,15.562-1.577,27.885c5.573,7.304,9.923,13.699,13.413,19.356"/>
<path fill="none" stroke="#1D1D1B" stroke-linejoin="round" stroke-miterlimit="10" d="M78.902,407.188
	c12.918-0.339,28.891-0.75,47.375-1.219c0.024-0.001,0.048-0.001,0.071-0.002c9.262-0.234,19.152-0.483,29.605-0.747l0,0
	c8.941-0.225,18.292-0.459,28.013-0.7l0,0c113.179-2.821,276.271-6.777,421.825-10.183l0,0c67.36-1.576,130.963-3.033,184.125-4.207
	c0.282-0.006,0.566-0.012,0.849-0.018c7.268-0.16,14.333-0.315,21.189-0.465c1.049-0.022,2.093-0.045,3.131-0.067
	c0.574-0.013,1.15-0.024,1.722-0.038c1.408-0.029,2.806-0.061,4.194-0.09c0.727-0.016,1.448-0.031,2.169-0.047
	c0.759-0.016,1.512-0.033,2.265-0.049c1.812-0.039,3.61-0.078,5.389-0.115c0.185-0.004,0.371-0.008,0.556-0.012
	c0.984-0.021,1.961-0.043,2.936-0.062c0.565-0.013,1.129-0.023,1.69-0.037c1.133-0.022,2.257-0.047,3.375-0.07
	c0.976-0.021,1.946-0.041,2.91-0.062c0.614-0.013,1.228-0.025,1.837-0.039c1.075-0.021,2.142-0.045,3.201-0.065
	c0.574-0.014,1.146-0.024,1.715-0.037c1.337-0.027,2.665-0.056,3.977-0.082c0.136-0.004,0.271-0.006,0.403-0.01
	c1.453-0.029,2.888-0.06,4.311-0.09c0.329-0.007,0.653-0.013,0.981-0.021c1.266-0.025,2.521-0.052,3.759-0.077
	c0.18-0.003,0.357-0.007,0.535-0.011c1.424-0.029,2.831-0.06,4.22-0.086c0.136-0.004,0.268-0.006,0.401-0.01
	c2.903-0.06,5.733-0.115,8.481-0.171c0.07-0.002,0.141-0.003,0.211-0.004c1.366-0.026,2.715-0.055,4.042-0.081
	c0.024-0.001,0.052-0.001,0.077-0.001c1.337-0.026,2.65-0.053,3.946-0.078c0.084-0.002,0.168-0.004,0.252-0.005
	c2.509-0.05,4.938-0.097,7.288-0.142c0.229-0.004,0.459-0.008,0.688-0.013c3.579-0.067,6.974-0.133,10.167-0.188
	c0.123-0.003,0.243-0.005,0.365-0.008c3.22-0.059,6.239-0.111,9.045-0.158c0.017,0,0.033,0,0.051,0
	c2.822-0.049,5.426-0.09,7.808-0.126c0.113-0.002,0.228-0.003,0.339-0.005c1.496-0.023,2.902-0.043,4.215-0.062
	c0.086-0.001,0.171-0.002,0.255-0.004c0.657-0.008,1.297-0.016,1.905-0.022c0,0,0.001,0,0.002,0
	c0.597-0.008,1.163-0.015,1.714-0.021c0.081-0.001,0.163-0.001,0.243-0.003c0.545-0.006,1.07-0.012,1.568-0.016
	c0.039,0,0.075-0.001,0.113-0.001c0.458-0.005,0.892-0.009,1.309-0.011c0.066-0.001,0.135-0.002,0.2-0.002
	c0.438-0.005,0.853-0.007,1.242-0.009c0.048,0,0.094,0,0.142,0c0.354-0.002,0.688-0.004,1-0.004c0.045,0,0.094,0,0.138,0
	c0.324-0.001,0.624,0,0.901,0c0.055,0,0.104,0,0.155,0.001c0.245,0.001,0.471,0.003,0.677,0.005c0.028,0,0.062,0,0.09,0
	c0.217,0.002,0.402,0.007,0.572,0.01c0.04,0.001,0.077,0.001,0.115,0.003c0.161,0.004,0.308,0.008,0.421,0.013
	c0.757,0.034,1.51,0.04,2.26,0.032c0.231-0.002,0.462-0.012,0.692-0.02c0.529-0.015,1.057-0.038,1.581-0.07
	c0.248-0.019,0.495-0.035,0.742-0.056c0.545-0.046,1.086-0.104,1.625-0.168c0.193-0.023,0.39-0.043,0.583-0.069
	c0.736-0.101,1.469-0.216,2.19-0.351c0.028-0.006,0.057-0.012,0.084-0.018c0.693-0.131,1.378-0.281,2.059-0.442
	c0.179-0.042,0.354-0.089,0.53-0.134c0.545-0.136,1.085-0.281,1.619-0.437c0.176-0.051,0.353-0.102,0.526-0.153
	c0.595-0.181,1.182-0.37,1.762-0.57c0.087-0.031,0.176-0.059,0.262-0.089c0.699-0.247,1.389-0.506,2.063-0.78l0,0l0,0
	c4.048-1.643,7.656-3.762,10.617-6.063c0.017-0.011,0.031-0.022,0.048-0.034c0.47-0.367,0.924-0.737,1.358-1.112
	c0.017-0.013,0.031-0.026,0.046-0.039c1.33-1.146,2.497-2.326,3.475-3.505c0.046-0.055,0.088-0.111,0.134-0.166
	c0.26-0.32,0.506-0.639,0.737-0.958c0.062-0.086,0.124-0.171,0.184-0.257c0.211-0.299,0.406-0.597,0.591-0.894
	c0.052-0.084,0.105-0.166,0.154-0.248"/>
<path fill="none" stroke="#000001" stroke-linejoin="round" stroke-miterlimit="10" d="M973.978,402.053
	c-1.082-3.957-2.609-5.995-8.417-6.087c-8.869-0.139-335.66,8.741-439.384,8.271c-136.527-0.619-419.098,24.115-419.098,24.115
	c-4.63,1.423-14.071,3.936-22.667,8.102"/>
</svg>
