<?xml version="1.0" encoding="utf-8"?>
<!-- Generator: Adobe Illustrator 21.0.2, SVG Export Plug-In . SVG Version: 6.00 Build 0)  -->
<svg version="1.1" id="Layer_1" xmlns="http://www.w3.org/2000/svg" xmlns:xlink="http://www.w3.org/1999/xlink" x="0px" y="0px"
	 width="2224.832px" height="1051.864px" viewBox="0 0 2224.832 1051.864" enable-background="new 0 0 2224.832 1051.864"
	 xml:space="preserve">
<g>
	<path fill="none" stroke="#1D1D1B" stroke-linejoin="round" stroke-miterlimit="10" d="M2205.834,983.426l-54.946-6.787
		l-160.455-17.811l-124.49-13.318l-119.154-11.85l-95.752-12.91l-88.233-13.5l-84.754-16.498l-107.562-20.002l-110.18-16.273
		l-116.709-16.389c0,0-23.301-2.967-34.084-5.564c-10.785-2.605-133.246-18.41-139.535-19.523
		c-6.289-1.111-102.518-6.467-109.917-6.932c-7.412-0.465-144.352,4.352-144.352,4.352l-127.059,16.652l-123.876,14.279
		l-170.375,23.9c0,0-111.323,19.832-137.253,26.857c-25.938,7.039-26.486,23.803-24.655,31.582
		c1.824,7.768,11.682,22.176,23.888,30.906c12.21,8.73,55.426,17.322,55.426,17.322l9.895,1.127l72.745,12.291l137.133,17.055
		c0,0,45.617,3.674,96.233,12.734c50.618,9.068,60.366-10.924,60.366-10.924s24.239-29.902,76.22-55.738
		c51.991-25.832,106.214-24.148,151.148-28.139c44.936-3.998,165.078,7.529,165.078,7.529l140.035,23.416
		c2.756-0.711,129.417,17.188,129.417,17.188l148.016,29.303c0,0,127.326,28.898,137.072,30.338
		c9.74,1.43,48.564,10.795,70.021,17.068c21.446,6.262,42.323,7.113,45.412,6.549c3.094-0.578,57.555-4.326,57.555-4.326
		l146.051-10.301l76.394-5.055l103.69-7.461l37.146-2.035l129.901-11.787c0,0,24.527-1.697,23.468-14.33
		C2223.731,983.792,2205.834,983.426,2205.834,983.426z"/>
	<path fill="none" stroke="#1D1D1B" stroke-linejoin="round" stroke-miterlimit="10" d="M2193.334,920.549
		c-46.123-60.307-542.596-779.023-542.596-779.023s-6.049-17.311-40.16-19.109c-34.102-1.797-146.102-11.393-221.434-20.588
		c-75.328-9.217-147.65-5.777-147.65-5.777s424.854,381.681,593.748,569.574c168.896,187.898,179.566,196.301,179.566,196.301
		s50.699,59.365-39.422,56.748c-90.117-2.617-246.373-24.291-246.373-24.291s-64.152-2.67,32.024,17.264
		c96.168,19.932,427.054,51.527,427.054,51.527S2239.461,980.862,2193.334,920.549z"/>
	<path fill="none" stroke="#1D1D1B" stroke-linejoin="round" stroke-miterlimit="10" d="M64.486,497.451
		c0,0,152.513,43.108,187.594,52.655c35.076,9.555,333.163,87.049,488.747,120.215c98.862,21.072,221.746,45.061,298.207,59.738
		l1.869,0.357l1.594,0.627c69.916,13.324,240.698,40.422,240.698,40.422h-0.004l81.344,12.459l163.132,16.023
		c0,0,143.643,23.725,159.594-17.762c0,0,19.873-5.291-18.781-74.879c-38.654-69.596-121.764-194.527-147.797-229.056
		c-26.029-34.527-131.805-181.108-173.771-219.683c0,0-21.528-36.692-110.725-54.868c0,0-62.756-12.745-132.167-27.093
		c-2.754-0.57-8.482-0.773-10.264,7.958c-1.779,8.73-51.951,254.792-51.951,254.792s-1.195,6.703-9.658,4.982
		s-368.831-75.018-376.694-76.805c-7.862-1.787-4.715-10.283-4.715-10.283S703.192,97.993,705.39,89.204
		c2.199-8.791-4.892-13.607-8.376-14.699c-20.069-6.283-37.318-12.135-49.427-17.043C587.454,33.082,526.303,9.305,508.68,4.926
		c-17.629-4.391-41.702-7.65-80.215-1.643c-38.501,6.004-79.562,15.559-119.586,16.385c-40.02,0.822-84.786-0.947-126.496-4.525
		c-41.703-3.568-79.182-2.234-95.139,5.902C71.277,29.188,58.9,29.107,43.999,84.594c-14.888,55.49-25.14,85.906-10.95,105.84
		c14.197,19.947,81.266,53.041,113.115,65.188c31.849,12.148,239.327,111.09,268.959,125.225
		c29.646,14.127,162.285,67.027,180.759,71.58c18.477,4.566,187.561,60.785,187.561,60.785s-170.342-30.479-174.407-32.106
		c-4.062-1.638-206.632-30.525-255.117-35.482c-48.481-4.951-213.978-9.256-277.24-7.455C13.428,439.969,1.56,437.566,0,452.684
		C0,452.684,22.142,480.734,64.486,497.451z"/>
</g>
<path fill="none" stroke="#1D1D1B" stroke-linejoin="round" stroke-miterlimit="10" d="M1069.908,165.561l-335.494-69.9
	c0,0-4.574-2.41-5.87,3.344c-1.295,5.754-53.069,254.721-53.069,254.721s-0.135,4.025,3.558,4.836
	c3.691,0.811,335.359,69.871,335.359,69.871s5.449,2.318,6.957-3.397c1.508-5.719,51.522-247.295,52.615-252.539
	C1075.057,167.25,1069.908,165.561,1069.908,165.561z"/>
</svg>
