<?xml version="1.0" encoding="utf-8"?>
<!-- Generator: Adobe Illustrator 16.0.0, SVG Export Plug-In . SVG Version: 6.00 Build 0)  -->
<!DOCTYPE svg PUBLIC "-//W3C//DTD SVG 1.1//EN" "http://www.w3.org/Graphics/SVG/1.1/DTD/svg11.dtd">
<svg version="1.1" id="Layer_1" xmlns="http://www.w3.org/2000/svg" xmlns:xlink="http://www.w3.org/1999/xlink" x="0px" y="0px"
	 width="2216.082px" height="1061.082px" viewBox="0 0 2216.082 1061.082" enable-background="new 0 0 2216.082 1061.082"
	 xml:space="preserve">
<path fill="none" stroke="#1D1D1B" stroke-linejoin="round" stroke-miterlimit="10" d="M0.026,1011.509
	C0.964,998.867,18.86,998.32,18.86,998.32l54.875-7.344L234,971.533l124.346-14.584l119.029-13.062l95.616-13.881l88.093-14.398
	l84.579-17.357l107.354-21.09l110.008-17.396l116.537-17.576c0,0,23.27-3.203,34.027-5.91
	c10.756-2.713,133.053-19.76,139.328-20.939c6.274-1.176,102.443-7.51,109.841-8.047c7.405-0.543,144.387,2.881,144.387,2.881
	l127.222,15.359l124.015,13.018l170.608,22.168c0,0,78.055,13.088,118.787,21.323 M2079.47,891.412
	c13.239,8.007,13.411,19.889,12.019,26.094c-1.746,7.787-11.453,22.293-23.572,31.15c-1.61,1.176-3.769,2.355-6.3,3.517
	 M0.404,958.711c0.984,13.354,24.43,5.302,24.43,5.302s330.909-31.34,427.094-51.197c96.19-19.857,32.037-17.236,32.037-17.236
	s-156.273,21.553-246.394,24.102c-90.123,2.547-39.377-56.777-39.377-56.777s10.677-8.396,179.719-196.162
	C546.951,478.975,972.104,97.626,972.104,97.626 M1003.814,195.042c-14.105,2.797-22.539,4.461-22.539,4.461
	c-89.293,17.688-111.022,54.256-111.022,54.256c-42.174,38.346-148.75,184.34-174.967,218.723
	c-26.219,34.387-110.008,158.845-149.043,228.23c-39.032,69.377-19.188,74.732-19.188,74.732
	c15.724,41.572,159.495,18.551,159.495,18.551l0,0l163.217-15.293l81.412-12.338l-0.004,0.002c0,0,170.924-25.844,240.912-38.785
	l1.592-0.301l1.873-0.346c76.543-14.264,199.553-37.576,298.527-58.111c155.764-32.318,454.27-108.186,489.397-117.551
	c12.675-3.375,40.658-11.035,71.255-19.449"/>
</svg>
