<?xml version="1.0" encoding="utf-8"?>
<!-- Generator: Adobe Illustrator 16.0.0, SVG Export Plug-In . SVG Version: 6.00 Build 0)  -->
<!DOCTYPE svg PUBLIC "-//W3C//DTD SVG 1.1//EN" "http://www.w3.org/Graphics/SVG/1.1/DTD/svg11.dtd">
<svg version="1.1" id="Layer_1" xmlns="http://www.w3.org/2000/svg" xmlns:xlink="http://www.w3.org/1999/xlink" x="0px" y="0px"
	 width="300.029px" height="1583.496px" viewBox="0 0 300.029 1583.496" enable-background="new 0 0 300.029 1583.496"
	 xml:space="preserve">
<path fill="none" stroke="#1D1D1B" stroke-linejoin="round" stroke-miterlimit="10" d="M4.099,1583.484
	c0.361,0.043,0.776-0.059,1.255-0.348c1.839-1.113,2.796-5.432,3.417-7.252c1.817-5.336,3.171-10.84,4.482-16.316
	c4.392-18.34,8.164-36.82,11.551-55.371c0.771-4.221,1.521-8.443,2.254-12.67c1.022-5.898,2.017-11.803,2.929-17.721
	c1.792-11.619,3.458-23.262,5.067-34.906c2.086-15.098,3.927-30.225,5.636-45.369c2.117-18.766,4.097-37.547,5.838-56.352
	c2.04-22.033,3.711-44.096,5.324-66.164c0.208-2.84,0.428-5.68,0.622-8.52c11.753-172.07,25.703-452.262,28.248-541.243
	c2.547-88.972,13.739-524.247,13.739-524.247 M102.441,197.593l-1.559,47.504c0,0-11.764,530.332-19.85,689.615
	c-8.08,159.287-20.421,339.939-27.787,412.596c-7.359,72.648-24.301,177.262-26.155,190.248
	c-1.847,12.994-8.659,47.314,10.953,12.561c3.675-6.511,11.562-22.863,22.134-45.783"/>
</svg>
