<?xml version="1.0" encoding="utf-8"?>
<!-- Generator: Adobe Illustrator 16.0.0, SVG Export Plug-In . SVG Version: 6.00 Build 0)  -->
<!DOCTYPE svg PUBLIC "-//W3C//DTD SVG 1.1//EN" "http://www.w3.org/Graphics/SVG/1.1/DTD/svg11.dtd">
<svg version="1.1" id="Layer_1" xmlns="http://www.w3.org/2000/svg" xmlns:xlink="http://www.w3.org/1999/xlink" x="0px" y="0px"
	 width="311.174px" height="1578.512px" viewBox="0 0 311.174 1578.512" enable-background="new 0 0 311.174 1578.512"
	 xml:space="preserve">
<path fill="none" stroke="#000000" stroke-linejoin="round" stroke-miterlimit="10" d="M307.272,1578.513h-69.019
	c-17.221,0-31.181-13.96-31.181-31.181s13.96-31.181,31.181-31.181c2.735,0,5.381,0.502,7.918-0.835
	c2.863-1.509,4.129-4.696,4.66-7.719c0.307-1.744,0.506-3.609,0.507-5.378c-46.295-97.74-145.289-320.864-168.231-400.038
	c-28.088-96.901-27.531-118.416-35.754-216.257c-8.224-97.841-29.047-296.382-31.841-365.319
	C12.728,451.67-4.619,58.039,1.177,25.537C6.968-6.969,46.82-5.782,78.901,14.202c32.077,19.974,119.58,180.064,119.58,180.064
	l8.002,0.001c0,0,23.133-25.646,23.376-54.815c0.238-29.172,5.719-69.338,5.719-69.338s47.523,120.549,48.389,141.996
	c0.874,21.438,9.041,188.354,11.148,240.433c2.109,52.089,5.669,315.904,4.507,392.699c-1.148,76.801,11.548,707.01,11.548,707.01
	c0.003,0.291,0.003,0.583,0.004,0.875c0.004,3.252-0.074,6.508-0.24,9.756c-0.204,3.969-0.424,8.062-1.389,11.932
	c-0.328,1.315-0.989,3.679-2.314,3.698H307.272z"/>
</svg>
