<?xml version="1.0" encoding="utf-8"?>
<!-- Generator: Adobe Illustrator 16.0.0, SVG Export Plug-In . SVG Version: 6.00 Build 0)  -->
<!DOCTYPE svg PUBLIC "-//W3C//DTD SVG 1.1//EN" "http://www.w3.org/Graphics/SVG/1.1/DTD/svg11.dtd">
<svg version="1.1" id="Layer_1" xmlns="http://www.w3.org/2000/svg" xmlns:xlink="http://www.w3.org/1999/xlink" x="0px" y="0px"
	 width="1793.967px" height="887.682px" viewBox="0 0 1793.967 887.682" enable-background="new 0 0 1793.967 887.682"
	 xml:space="preserve">
<path fill="none" stroke="#000000" stroke-linejoin="round" stroke-miterlimit="10" d="M140.845,625.855
	c2.101-2.716,4.498-7.358,3.435-10.898c-0.032-0.105-20.637-69.621-20.637-69.621S70.015,349.774,60.467,322.394
	c-1.604-4.605-3.303-8.156-5.106-10.907L0,100.801c24.937-7.617,49.609-14.877,73.706-21.57
	C202.718,43.402,412.057,9.819,412.057,9.819c371.326-29.215,430.518,1.679,638.596,161.992
	c208.068,160.316,376.524,353.544,396.261,371.919c19.737,18.375,206.64,218.717,230.489,239.084
	c23.857,20.371,72.723,33.782,103.734,38.541c31.011,4.748-3.948,13.126-3.949,13.126l-40.159,11.004l-23.136,4.562
	c0,0-390.888,38.085-441.043,37.631c-50.157-0.456-77.136-53.176-77.136-53.176s-188.384-275.188-221.697-321.443
	c-33.317-46.235-66.364-51.61-66.364-51.61c-77.84-13.004-165.727,0.418-369.064,45.722
	c-203.341,45.305-356.516,151.639-356.516,151.639c-0.979,0.515-1.953,1.044-2.935,1.556c-10.442,5.444-22.192,9.615-30.004,18.878
	c-1.992,2.363-4.22,4.463-6.784,6.187c-5.201,3.495-11.238,5.418-17.525,5.418c-17.221,0-31.181-13.96-31.181-31.181
	s13.96-31.181,31.181-31.181c2.708,0,5.845,0.617,8.776,0.545C136.38,628.962,138.973,628.274,140.845,625.855z"/>
</svg>
