<?xml version="1.0" encoding="utf-8"?>
<!-- Generator: Adobe Illustrator 16.0.0, SVG Export Plug-In . SVG Version: 6.00 Build 0)  -->
<!DOCTYPE svg PUBLIC "-//W3C//DTD SVG 1.1//EN" "http://www.w3.org/Graphics/SVG/1.1/DTD/svg11.dtd">
<svg version="1.1" id="Layer_1" xmlns="http://www.w3.org/2000/svg" xmlns:xlink="http://www.w3.org/1999/xlink" x="0px" y="0px"
	 width="1143.967px" height="1597.512px" viewBox="0 0 1143.967 1597.512" enable-background="new 0 0 1143.967 1597.512"
	 xml:space="preserve">
<path fill="none" stroke="#000001" stroke-linejoin="round" stroke-miterlimit="10" d="M460.908,978.715l-3.194,31.697l-0.177,1.905
	l-0.209-0.321c3.362,4.977,5.325,10.976,5.325,17.434c0,17.223-13.96,31.182-31.181,31.182s-31.182-13.959-31.182-31.182
	c0-10.649,5.339-20.051,13.486-25.676c0.001-15.037-2.35-27.923-5.705-33.426l0.009-0.016
	c-31.247-24.352-67.986-51.062-80.665-52.625L141.313,645.579c0,0-4.388-7.325-3.86-9.796l0.002,0.001
	c0-30.866-3.932-57.707-9.742-71.606c-20.737-22.619-39.919-46.398-52.847-69.207c0,0-27.375-33.095-55.896-8.229L0,120.03
	l1.579-45.91c0,0-3.295-21.596,2.954-23.433l0.058-0.012l115.782-19.154l62.747-10.443l26.786,116.302
	c0,36.044,160.823,65.21,359.57,65.21c201.295,0,364.181-39.068,364.181-87.35C937.848,85.541,955.341,0,955.341,0l63.239,11.734
	c0.082,0.023,0.159,0.059,0.242,0.078c3.822,0.897,8.079,1.134,11.975,1.668c8.342,1.145,16.69,2.417,25.047,3.435
	c9.837,1.199,19.604,2.947,29.457,3.971c3.91,0.406,7.816,0.843,11.719,1.316c11.783,1.43,24.412,4.431,35.501-1.53l-0.003-0.004
	c11.018-7.365,7.85,22.125,7.85,22.125l3.602,45.759l-2.808,367.346c-29.582-23.195-55.469,11.441-55.469,11.441
	c-15.553,30.726-41.688,63.727-68.162,93.652l-0.003-0.003c-2.812,7.299-4.619,18.695-4.619,31.512c0,9.905,4.257,17.92,9.517,17.92
	v-0.005c3.445-0.231-2.173,10.802-2.173,10.801L852.499,907.206c-23.328,4.744-123.885,102.703-123.886,102.703
	c-1.526,1.487-3.105,2.92-4.649,4.389c-13.783,13.103-29.611,25.453-36.824,43.684c-0.001,0-44.28,535.881-44.28,535.881
	s-17.663-26.943-48.562-26.668c-30.892,0.275-44.772,30.318-44.772,30.318l-62.834-616.409c0-5.442-6.951-9.847-15.542-9.847
	c-5.616,0-10.161,2.978-10.161,6.656L460.908,978.715z"/>
</svg>
