<?xml version="1.0" encoding="utf-8"?>
<!-- Generator: Adobe Illustrator 16.0.0, SVG Export Plug-In . SVG Version: 6.00 Build 0)  -->
<!DOCTYPE svg PUBLIC "-//W3C//DTD SVG 1.1//EN" "http://www.w3.org/Graphics/SVG/1.1/DTD/svg11.dtd">
<svg version="1.1" id="Layer_1" xmlns="http://www.w3.org/2000/svg" xmlns:xlink="http://www.w3.org/1999/xlink" x="0px" y="0px"
	 width="482.619px" height="555.713px" viewBox="0 0 482.619 555.713" enable-background="new 0 0 482.619 555.713"
	 xml:space="preserve">
<path fill="none" stroke="#000000" stroke-linejoin="round" stroke-miterlimit="10" d="M468.879,15.462
	c0,0,18.621-18.502,12.508,5.27c-6.113,23.771-54.758,163.839-68.9,205.953c-14.148,42.102-31.121,104.129-31.121,104.129
	s-15.965,58.057-33.262,79.301c-17.293,21.237-64.715,74.474-119.781,83.233c0,0-48.587,2.379-118.457-107.858
	c0,0-22.518-82.604-38.947-131.507c-16.431-48.898-70.7-234.591-70.7-234.591s-3.215-36.702,14.999-9.121
	c18.222,27.583,36.969,64.213,54.87,85.107c17.904,20.884,35.861,64.018,74.467,86.562c38.613,22.542,56.921,36.558,94.599,32.995
	c37.679-3.563,91.996-16.832,133.476-71.683C414.104,88.401,468.879,15.462,468.879,15.462z"/>
</svg>
