<?xml version="1.0" encoding="utf-8"?>
<!-- Generator: Adobe Illustrator 16.0.0, SVG Export Plug-In . SVG Version: 6.00 Build 0)  -->
<!DOCTYPE svg PUBLIC "-//W3C//DTD SVG 1.1//EN" "http://www.w3.org/Graphics/SVG/1.1/DTD/svg11.dtd">
<svg version="1.1" id="Layer_1" xmlns="http://www.w3.org/2000/svg" xmlns:xlink="http://www.w3.org/1999/xlink" x="0px" y="0px"
	 width="823.375px" height="652.434px" viewBox="0 0 823.375 652.434" enable-background="new 0 0 823.375 652.434"
	 xml:space="preserve">
<path fill="none" stroke="#000001" stroke-linejoin="round" stroke-miterlimit="10" d="M111.797,526.224
	c3.663-0.501,7.117-2.661,9.507-5.443c1.252-1.458,2.193-3.155,2.793-4.98c0.473-1.438,1.361-4.154,0.981-5.663
	c-0.006-0.023-48.768-202.051-48.768-202.051L35.167,150.567c0,0-25.82-89.84-33.812-131.271
	c-7.976-41.423,21.837-3.263,21.837-3.263l104,123.463L238.59,258.327c0,0,32.53,31.542,75.365,68.571
	c42.831,37.018,86.745,48.711,109.058,46.969c22.33-1.756,61.135-24.93,82.356-39.323c21.229-14.398,105.401-92.718,119.193-106.53
	c13.783-13.807,70.661-78.684,70.661-78.684s82.948-101.6,109.082-132.754c26.128-31.158,17.811,9.438,17.811,9.438l-1.312,7.096
	l-37.16,149.721l-52.703,208.616l-46.681,170.568c0,0-30.956-18.406-47.373-27.859c-16.413-9.451-34.905,0.36-34.905,0.36
	l-12.939,7.221L409.392,652.434L218.856,532.402c-17.419-15.015-37.721-1.137-37.721-1.137l-42.978,24.747
	c-1.015,0.584-1.495,1.646-1.673,2.743c-0.152,0.938-0.312,1.873-0.492,2.807c-0.373,1.94-0.826,3.869-1.443,5.748
	c-0.998,3.04-2.413,5.939-4.261,8.555c-1.868,2.645-4.162,4.995-6.803,6.873c-2.625,1.865-5.57,3.214-8.665,4.086
	c-1.566,0.442-3.163,0.768-4.769,1.028c-1.576,0.256-3.305,0.661-4.902,0.661c-4.079,0-8.681-0.93-12.435-2.505
	c-6.62-2.779-12.384-8.687-15.779-14.945c-2.777-5.121-3.333-11.016-2.854-16.736c0.837-9.989,6.87-18.897,15.384-24.044
	c3.029-1.83,6.367-2.966,9.856-3.516c3.32-0.523,6.7-0.198,10.02-0.336C110.166,526.397,110.984,526.334,111.797,526.224z"/>
</svg>
