<?xml version="1.0" encoding="utf-8"?>
<!-- Generator: Adobe Illustrator 16.0.0, SVG Export Plug-In . SVG Version: 6.00 Build 0)  -->
<!DOCTYPE svg PUBLIC "-//W3C//DTD SVG 1.1//EN" "http://www.w3.org/Graphics/SVG/1.1/DTD/svg11.dtd">
<svg version="1.1" id="Layer_1" xmlns="http://www.w3.org/2000/svg" xmlns:xlink="http://www.w3.org/1999/xlink" x="0px" y="0px"
	 width="1696.285px" height="836.66px" viewBox="0 0 1696.285 836.66" enable-background="new 0 0 1696.285 836.66"
	 xml:space="preserve">
<path fill="none" stroke="#000000" stroke-linejoin="round" stroke-miterlimit="10" d="M1399.195,234.395
	c-73.038,19.037-309.29,78.913-323.625,81.465c-16.527,2.939-22.568-9.403-26.879-26.521
	c-4.312-17.117-28.229-132.613-32.021-152.43c-2.609-13.624-6.381-19.925-19.032-21.064"/>
<path fill="none" stroke="#000000" stroke-linejoin="round" stroke-miterlimit="10" d="M1382.555,201.52
	c1.723,11.328-4.618,14.252-19.031,18.567c-8.73,2.617-70.338,17.526-129.801,31.886c-59.283,15.089-120.715,30.689-129.656,32.457
	c-16.16,3.196-22.984,3.344-26.492-10.915l-16.359-68.46c-9.484-37.324-19.395-76.446-20.864-81.765
	c-2.762-10.009-3.188-16.946,12.621-21.14c1.1-0.292,3.234-0.831,6.262-1.584"/>
</svg>
