<?xml version="1.0" encoding="utf-8"?>
<!-- Generator: Adobe Illustrator 16.0.0, SVG Export Plug-In . SVG Version: 6.00 Build 0)  -->
<!DOCTYPE svg PUBLIC "-//W3C//DTD SVG 1.1//EN" "http://www.w3.org/Graphics/SVG/1.1/DTD/svg11.dtd">
<svg version="1.1" id="Layer_1" xmlns="http://www.w3.org/2000/svg" xmlns:xlink="http://www.w3.org/1999/xlink" x="0px" y="0px"
	 width="1402.799px" height="420.394px" viewBox="0 0 1402.799 420.394" enable-background="new 0 0 1402.799 420.394"
	 xml:space="preserve">
<path fill="none" stroke="#000001" stroke-linejoin="round" stroke-miterlimit="10" d="M1402.798,212.197
	c0,17.221-13.961,31.182-31.182,31.182s-31.181-13.961-31.181-31.182c0-0.672,0.021-1.339,0.063-2l0.002,0
	c0-17.53-7.809-31.714-17.461-31.715c-84.776-3.907-234.794-12.783-318.565-16.529c-112.396-5.036-321.382-21.171-387.366-17.912
	c-65.992,3.268-150.3-0.883-233.058,34.984c-82.773,35.859-239.021,140.407-287.12,174.551C48.824,387.722,0,420.394,0,420.394
	s95.811-182.49,101.162-216.783c5.358-34.305,7.346-36.629-0.101-82.383C93.631,75.47,86.47,45.589,86.47,45.589
	s-2.399-18.78,15.874-12.507c18.261,6.281,48.551,12.719,76.365,15.506c27.81,2.781,109.501,0.536,138.539-8.462
	c29.036-8.995,33.414-16.775,54.079-17.804c20.662-1.017,471.935,11.445,630.107-8.475c0,0,83.927-5.67,127.019-13.848
	c0,0-3.177,56.128,24.21,73.673c27.395,17.565,78.722,49.824,246.073,94.49c0,0,4.052,2.778,4.062,5.687l-0.011,0.054v37.671
	L1402.798,212.197z"/>
</svg>
