<?xml version="1.0" encoding="utf-8"?>
<!-- Generator: Adobe Illustrator 16.0.0, SVG Export Plug-In . SVG Version: 6.00 Build 0)  -->
<!DOCTYPE svg PUBLIC "-//W3C//DTD SVG 1.1//EN" "http://www.w3.org/Graphics/SVG/1.1/DTD/svg11.dtd">
<svg version="1.1" id="Layer_1" xmlns="http://www.w3.org/2000/svg" xmlns:xlink="http://www.w3.org/1999/xlink" x="0px" y="0px"
	 width="1442.012px" height="377.762px" viewBox="0 0 1442.012 377.762" enable-background="new 0 0 1442.012 377.762"
	 xml:space="preserve">
<path fill="none" stroke="#000001" stroke-linejoin="round" stroke-miterlimit="10" d="M64.996,162.898
	c-18.111,1.43-34.014-12.806-35.511-31.786c-1.497-18.979,11.979-35.529,30.089-36.959c18.112-1.429,34.015,12.806,35.511,31.785
	C96.583,144.919,83.109,161.471,64.996,162.898z M183.725,363.765c-18.908,1.491-35.507-13.368-37.069-33.181
	c-1.562-19.813,12.503-37.09,31.41-38.581c18.905-1.491,35.506,13.367,37.069,33.181
	C216.698,344.996,202.631,362.273,183.725,363.765z M450.074,69.487c-7.094-1.077-13.437-1.792-18.882-2.109l-28.814-1.68
	c-61.166-3.566-145.973,3.601-205.495,10.295c-20.854,2.346-146.414,9.726-185.54,18.821C-2.286,97.983-2.245,99.921,4.19,110.83
	l152.83,259.021c7.04,11.933,10.411,7.593,23.312,4.696c0,0,556.547-129.657,557.39-129.854c5.051-1.177,10.654,4.354,12.82,8.208
	c5.344,9.51,1.034,20.794,7.341,30.499c5.712,8.79,15.509,14.176,26.041,14.177c11.128,0.001,20.377-5.705,25.562-15.502
	c4.611-8.713,6.873-18.786,12.959-26.693c6.959-9.042,18.163-13.03,27.977-18.087c3.531-1.819,8.109-5.948,16.33-12.312
	c15.931-12.334,36.134-28.077,40.298-30.791c21.381-13.933,38.2-26.451,62.597-39.294
	C1119.022,76.27,1271.103,44.41,1436.766,15.762c4.515-0.781,6.253-0.238,4.678-5.487c-3.902-12.993-24.185-10.131-47.185-9.736
	L488.204,45.183c-15.997,0.789-23.382,3.037-24.204,6.049l-0.1,0.083c0.08,9.985-6.221,18.116-14.086,18.179L450.074,69.487z"/>
</svg>
