<?xml version="1.0" encoding="utf-8"?>
<!-- Generator: Adobe Illustrator 16.0.0, SVG Export Plug-In . SVG Version: 6.00 Build 0)  -->
<!DOCTYPE svg PUBLIC "-//W3C//DTD SVG 1.1//EN" "http://www.w3.org/Graphics/SVG/1.1/DTD/svg11.dtd">
<svg version="1.1" id="Layer_1" xmlns="http://www.w3.org/2000/svg" xmlns:xlink="http://www.w3.org/1999/xlink" x="0px" y="0px"
	 width="1444.213px" height="334.158px" viewBox="0 0 1444.213 334.158" enable-background="new 0 0 1444.213 334.158"
	 xml:space="preserve">
<path fill="none" stroke="#000001" stroke-linejoin="round" stroke-miterlimit="10" d="M1305.647,286.308
	c-0.87,19.854-16.939,35.283-35.888,34.453s-33.607-17.605-32.737-37.462s16.941-35.284,35.889-34.454
	C1291.859,249.676,1306.517,266.452,1305.647,286.308z M1415.785,82.868c-0.834,19.021-16.229,33.801-34.381,33.006
	c-18.15-0.795-32.193-16.866-31.359-35.887c0.833-19.021,16.229-33.801,34.381-33.006
	C1402.575,47.777,1416.619,63.848,1415.785,82.868z M598.724,217.47c6.485,3.285,12.924,6.66,19.428,9.906
	c4.413,2.203,9.383,4.015,13.087,7.375c4.544,4.122,5.223,9.356,6.281,15.104c0.898,4.877,2.866,9.332,5.899,13.263
	c5.891,7.634,14.962,12.162,24.642,12.162c9.738,0,18.944-4.632,24.854-12.338c2.897-3.776,4.848-8.128,5.659-12.818
	c1.133-6.555-0.906-13.817,2.896-19.771c3.128-4.899,9.468-8.617,15.373-8.293c0.006,0,556.685,109.36,556.685,109.36
	c12.992,2.445,16.515,6.664,23.133-5.506l143.697-264.197c6.051-11.128,6.021-13.066-7.707-15.758
	c-39.422-7.726-165.164-10.719-186.084-12.336c-59.722-4.613-144.726-8.816-205.729-3.117l-28.74,2.684
	c-3.354,0.313-7.045,0.791-11.039,1.422c-12.277,0-22.213-7.049-22.213-15.759c-0.001-3.343-7.339-5.608-24.5-5.854L47.287,0
	c-23,0.408-43.37-1.746-46.816,11.378c-1.393,5.3,0.327,4.697,4.867,5.319C171.898,39.546,324.997,66.081,477.03,139.45
	c24.828,11.981,42.075,23.906,63.931,37.083c4.256,2.565,24.997,17.598,41.347,29.366
	C590.483,211.784,595.167,215.69,598.724,217.47z"/>
</svg>
