<?xml version="1.0" encoding="utf-8"?>
<!-- Generator: Adobe Illustrator 16.0.0, SVG Export Plug-In . SVG Version: 6.00 Build 0)  -->
<!DOCTYPE svg PUBLIC "-//W3C//DTD SVG 1.1//EN" "http://www.w3.org/Graphics/SVG/1.1/DTD/svg11.dtd">
<svg version="1.1" id="Layer_1" xmlns="http://www.w3.org/2000/svg" xmlns:xlink="http://www.w3.org/1999/xlink" x="0px" y="0px"
	 width="1780.085px" height="1301.973px" viewBox="0 0 1780.085 1301.973" enable-background="new 0 0 1780.085 1301.973"
	 xml:space="preserve">
<path fill="none" stroke="#000000" stroke-linejoin="round" stroke-miterlimit="10" d="M1779.367,741.242
	c-1.459-8.474-5.018-16.657-9.543-23.849c-4.412-7.005-9.207-14.09-15.713-19.339c-7.773-6.271-16.58-7.293-25.953-9.629
	c-15.521-3.868-34.328-4.899-48.855-9.912c-131.211-31.425-360.438-16.874-479.27,5.036l-83.105,22.686
	c-33.084,15.726-67.25,18.521-102.162,12.473L759.19,699.547l-98.103-10.502c-57.933-9.322-116.75-2.305-175.084-0.591
	c-6.312,0.188-18.604-1.257-23.396-0.698c-7.953,0.904-15.148-0.959-21.606-2.473c-4.008-0.94-11.925-8.852-14.694-12.529
	c-5.499-7.362-4.001-10.688-10.96-17.915c-5.438-5.626-9.158-8.038-15.417-12.339c-26.718-18.396-33.076-30.169-73.626-29.349
	c-77.25,1.571-147.6,23.212-222.438,36.733C71.764,655.699,8.066,666.67,0,685.341c4.179,5.271,9.085,16.243,12.959,22.896
	c5.63,9.723,7.981,12.198,16.329,17.904c6.936,4.738,35.357,15.025,44.868,18.152c184.75,60.656,365.58,147.365,549.437,221.055
	c83.603,33.502,170.034,83.615,253.814,93.438c47.124,1.27,70.424-10.553,94.063-14.492l18.83-169.921
	c-0.344-0.284-0.562-0.448-0.711-1.224c-0.146-0.776,0.389-2.027,1.33-2.196c0.906-0.175,1.832,0.637,2.012,1.581
	c0.184,0.938-0.182,1.645-0.834,2.005l-15.219,164.887c69.104-15.224,129.566-32.097,198.715-47.202
	c136.672-29.858,282.156-57.879,419.826-87.838c10.244-2.565,25.131-7.227,34.873-8.378c11.441-1.347,23.131-5.521,34.74-5.877
	c7.223-0.216,28.402-4.999,35.479-11.469l1.021-0.941c16.736-15.301,27.834-39.124,40.648-55.337
	c5.281-6.682,12.479-20.094,17.078-27.812c3.994-6.703,7.623-13.62,11.773-20.231c3.469-5.522,7.199-10.764,8.383-17.326
	C1780.367,751.759,1780.261,746.446,1779.367,741.242z M1674.757,1013.873c-47.598,3.273-96.873,5.688-132.975,8.109
	c-111.48,7.485-222.047,11.004-332.812,27.604c-56.668,8.498-106.27,11.484-162.902,12.865c-20.619,0.511-39.662,1.637-59.021,4.181
	c-58.049,5.117-123.102,24.471-184.701,36.958c-63.537,12.903-134.754,26.357-201.304,35.961
	c-58.614,8.479-114.716,16.501-173.034,27.729c-87.718,16.896-177.702,17.294-265.432,33.773
	c-5.862,1.104-12.032,3.143-18.277,4.408c-9.447,1.934-8.623,0.725-17.261,5.766c-6.614,10.519-0.235,16.299-0.198,26.623
	c0.051,5.412,2.862,6.492,8.561,7.89c149.054,36.372,297.549,53.896,459.335,55.291c17.034,1.072,40.96,2.065,56.08-2.017
	c12.855-3.441,13.426-2.084,25.068-10.346c54.521-43.381,107.477-86.515,184.031-86.811c42.175-2.854,83.181-6.438,125.527-8.004
	l0.83-0.028c28.029-1.042,56.129-0.521,84.133-2.222c27.127-1.646,55.51-1.83,80.607-3.938
	c36.029-3.037,76.332-13.342,113.078-21.41c55.48-12.178,107.41-23.991,160.949-35.471c75.139-16.104,152.908-38.156,221.426-54.208
	c25.188-5.895,51.146-12.61,75.602-20.628c16.602-5.438,38.41-27.314,31.801-45.905
	C1728.351,1010.99,1703.316,1011.91,1674.757,1013.873z M544.516,445.249c58.918,17.334,115.479,31.009,166.335,39.033
	c188.899,32.926,399.538,56.555,597.438,63.086c56.23-0.942,110.529-5.627,167.221-10.573c13.395-1.166,24.062-24.474,16.021-36.872
	c-6.412-9.894-45.729-18.945-57.82-23.905C1114.146,336.08,802.586,201.718,513.685,6.802c-3.229-2.122-14.354-13.137-13.551-1.66
	C518.935,148.524,540.938,293.398,544.516,445.249z"/>
</svg>
