<?xml version="1.0" encoding="utf-8"?>
<!-- Generator: Adobe Illustrator 21.0.2, SVG Export Plug-In . SVG Version: 6.00 Build 0)  -->
<svg version="1.1" id="Layer_1" xmlns="http://www.w3.org/2000/svg" xmlns:xlink="http://www.w3.org/1999/xlink" x="0px" y="0px"
	 width="634.847px" height="742.269px" viewBox="0 0 634.847 742.269" enable-background="new 0 0 634.847 742.269"
	 xml:space="preserve">
<path fill="none" stroke="#231F20" stroke-linejoin="round" stroke-miterlimit="10" d="M491.531,2.493l76.833,13.864l59.257,12.178
	c5.936,1.986,7.753,2.178,7.099,8.4l-6.218,38.479c-6.145,38.399-12.409,76.797-17.758,115.306
	c-4.109,29.582-7.679,59.232-10.24,88.998c-1.417,16.48-5.076,23.112-13.394,37.628l-9.735,16.99
	c-36.796,64.218-74.145,127.896-114.319,189.792c-48.249,74.337-97.804,150.392-155.086,218.141l-83.742,0
	c-17.221,0-31.181-13.96-31.181-31.181c0-12.766,7.672-23.741,18.657-28.564l0.002,0.003c8.832-5.509,13.433-16.418,12.522-34.362
	c-8.688-15.51-17.142-31.043-25.42-46.319c-35.113-64.799-63.436-132.015-88.47-200.342C64.902,277.487,29.054,148.989,0,6.435
	l107.485-1.598c0,0,54.92-4.522,54.919-4.523c0.805-0.169,1.76-0.264,2.879-0.314l319.222,1.552
	c3.353,0.016,5.585,0.321,7.028,0.938L491.531,2.493z"/>
</svg>
