<?xml version="1.0" encoding="utf-8"?>
<!-- Generator: Adobe Illustrator 16.0.0, SVG Export Plug-In . SVG Version: 6.00 Build 0)  -->
<!DOCTYPE svg PUBLIC "-//W3C//DTD SVG 1.1//EN" "http://www.w3.org/Graphics/SVG/1.1/DTD/svg11.dtd">
<svg version="1.1" id="Layer_1" xmlns="http://www.w3.org/2000/svg" xmlns:xlink="http://www.w3.org/1999/xlink" x="0px" y="0px"
	 width="502.99px" height="656.235px" viewBox="0 0 502.99 656.235" enable-background="new 0 0 502.99 656.235"
	 xml:space="preserve">
<path fill="none" stroke="#231F20" stroke-linejoin="round" stroke-miterlimit="10" d="M370.776,112.828
	c16.861,5.139,30.803-1.346,42.644-16.203c5.451-9.072,15.389-15.143,26.744-15.143c17.222,0,31.182,13.961,31.182,31.182
	c0,6.873-2.303,13.635-6.511,19.072c-6.384,8.244-15.952,12.178-26.201,12.023c-1.561-0.023-2.404,0.768-3.604,1.611
	c-14.264,11.742-25.412,21.178-33.62,32.652c-9.303,13.002-14.832,28.623-16.846,53.186l-1.754,12.822l-1.046,7.645
	c-3.984,29.117-6.577,47.824,0.842,76.547c21.579,83.558,74.832,177.252,119.186,246.06c3.474,8.583-0.923,8.054-8.953,10.126
	c-88.25,24.067-176.434,48.25-264.82,71.828l-114.812-78.891L-0.001,499.971l0,0l18.05-26.01
	C50.757,430.02,50.57,356.885,53.734,286.725l2.967-48.084l63.342-194.729L156.518,0c70.756,39.367,142.357,75.895,214.254,112.826
	L370.776,112.828z"/>
</svg>
