<?xml version="1.0" encoding="utf-8"?>
<!-- Generator: Adobe Illustrator 21.0.2, SVG Export Plug-In . SVG Version: 6.00 Build 0)  -->
<svg version="1.1" id="Layer_1" xmlns="http://www.w3.org/2000/svg" xmlns:xlink="http://www.w3.org/1999/xlink" x="0px" y="0px"
	 width="1204.305px" height="401.506px" viewBox="0 0 1204.305 401.506" enable-background="new 0 0 1204.305 401.506"
	 xml:space="preserve">
<path fill-rule="evenodd" clip-rule="evenodd" fill="#010101" d="M1198.42,22.757c-5.26-0.814-13.166,1.616-18.664,2.764
	l-23.498,7.189L1134.882,0l-113.454,39.374l-49.544,15.214l-53.337,12.711l-33.871,5.087l-7.177,52.166l-24.67-39.895
	l-84.119,24.377l-56.103,14.45l-84.951,15.482l-0.09,49.232l-25.411-46.934l-82.764,11.719l-94.814,7.166l-63.501-1.199
	l-22.31,52.158l-2.825-55.688l-53.128-16.098l-19.53,32.247c-39.8,27.956-79.903,56.081-120.238,83.286
	c-27.057,18.248-54.218,36.085-81.462,53.178c-13.301,8.345-26.466,16.088-38.513,23.803c-16.044,10.275-26.586,25.75-21.986,39.229
	c2.32,6.799,11.511,12.902,27.172,19.97c30.779,18.222,67.744,8.008,101.721,3.788c27.762-3.448,55.418-7.654,83.275-11.895
	l24.293-1.53c3.637,0.511,7.214,1.039,10.739,1.587c2.528,0.393,5.029,0.797,7.506,1.214
	c65.905-15.021,114.821-21.777,147.408-24.345c31.585-2.489,47.831-1.042,49.34,0.627c1.423-0.849,2.854-1.683,4.293-2.501
	c16.918-9.613,35.98-17.126,58.618-20.882c4.537-0.753,8.66-1.497,12.585-2.317c8.638-1.804,16.024-4.688,25.164-9.08
	c19.826-9.526,39.761-18.845,59.773-28.027c51.041-23.415,102.59-45.932,154.136-68.7c71.964-31.787,144.247-54.959,221.642-76.429
	c30.587-8.485,60.276-18.204,87.716-29.2c3.852-1.543,7.444-3.688,11.045-6.091c37.349-24.935,72.661-52.761,108.967-79.241
	C1201.072,35.379,1210.437,24.616,1198.42,22.757z"/>
</svg>
