<?xml version="1.0" encoding="utf-8"?>
<!-- Generator: Adobe Illustrator 21.0.2, SVG Export Plug-In . SVG Version: 6.00 Build 0)  -->
<svg version="1.1" id="Layer_1" xmlns="http://www.w3.org/2000/svg" xmlns:xlink="http://www.w3.org/1999/xlink" x="0px" y="0px"
	 width="2047.688px" height="1073.713px" viewBox="0 0 2047.688 1073.713" enable-background="new 0 0 2047.688 1073.713"
	 xml:space="preserve">
<path fill="none" stroke="#231F20" stroke-linejoin="round" stroke-miterlimit="10" d="M10.82,348.979
	c-0.749-2.679-1.15-5.503-1.15-8.421c0-17.221,13.96-31.181,31.181-31.181c8.587,0,16.364,3.471,22.003,9.087l0.002,0.002
	c17.135,13.654,34.27,15.972,51.405,6.955c0,0,56.555-40.69,56.555-40.69c23.431-17.844,46.306-30.887,70.371-41.004
	c27.272-11.466,56.073-19.177,88.937-25.866c3.866-0.776,7.734-1.554,11.601-2.33c43.848-8.803,87.792-17.596,131.606-26.681
	c60.666-12.577,121.084-25.713,180.658-40.2c68.816-16.736,135.832-39.163,201.27-63.225c32.525-14.836,58.082-31.395,80.968-51.633
	C947.804,23.554,958.698,12.374,969.465,0c35.225,35.794,69.526,72.551,105.542,107.546
	c55.931,54.343,113.852,102.689,184.001,144.341c47.237,28.048,93.188,54.708,141.615,77.208
	c42.156,19.586,85.907,36.489,132.995,50.108c32.756,7.421,58.108,7.823,78.742,3.752c8.71-2.892,16.859-4.896,24.9-6.169
	c40.722-6.442,86.115,4.479,126.133,12.529l14.939,3.861c5.229,1.352,7.382,2.153,7.689,7.769
	c-3.103,12.446-6.077,24.325-7.71,36.72c-0.522,3.962-0.907,7.976-1.116,12.078c-0.292,5.73-1.074,8.561,0.481,10.09l8.91,5.873
	c25.754,15.666,45.567,31.354,61.99,48.607c27.371,28.755,45.323,61.855,65.66,106.44l10.978,22.69
	c-19.173,95.474,13.516,172.586,69.007,241.624c14.885,15.365,30.901,30.146,42.743,47.817c5.101,7.612,9.049,14.679,10.221,22.201
	c1.141,7.321,0.457,13.115-3.242,17.074c-5.992,6.413-24.052,15.29-45.913,26.085c-21.334,10.535-46.925,20.794-68.842,31.615
	c-11.886,5.868-23.306,10.409-33.627,15.869c-20.2,10.688-40.337,18.241-60.818,22.321c-26.442,5.267-57.957,6.596-92.098,5.08
	c-28.567-1.268-58.877-5.221-89.784-9.137c-27.234-3.451-54.65-7.022-80.846-10.678c-18.904-2.638-37.174-5.32-54.283-8.031
	c-22.212-3.521-42.215-8.134-58.998-12.732l-34.362-8.56c-4.342-20.807-8.964-39.879-18.848-58.8
	c-3.436-6.671-6.969-13.243-12.871-17.407l-0.002-0.001c-39.341-12.641-78.743-25.107-118.283-37.139
	c-284.716-86.637-568.805-167.038-848.224-264.698c-78.649-27.489-156.929-56.345-234.748-87.093L75.214,512.371l0,0l-53.599-23.312
	c-7.184-3.124-13.453-4.7-18.11-11.305c-2.209-3.134-3.392-6.232-3.499-9.084c-0.05-1.331,0.229-2.469,0.777-3.349
	c12.835-27.097,18.463-71.808,10.041-116.347L10.82,348.979z"/>
</svg>
