<?xml version="1.0" encoding="utf-8"?>
<!-- Generator: Adobe Illustrator 16.0.0, SVG Export Plug-In . SVG Version: 6.00 Build 0)  -->
<!DOCTYPE svg PUBLIC "-//W3C//DTD SVG 1.1//EN" "http://www.w3.org/Graphics/SVG/1.1/DTD/svg11.dtd">
<svg version="1.1" id="Layer_1" xmlns="http://www.w3.org/2000/svg" xmlns:xlink="http://www.w3.org/1999/xlink" x="0px" y="0px"
	 width="728.494px" height="1007.39px" viewBox="0 0 728.494 1007.39" enable-background="new 0 0 728.494 1007.39"
	 xml:space="preserve">
<path d="M0,0c144.501,29.392,245.09,44.862,364.247,30.78C483.4,44.862,583.989,29.396,728.494,0
	C632.779,235.748,493.305,500.645,384.89,601.146c-4.324,4.512-12.311,9.951-20.455,9.967c-8.146,0.006-16.465-5.416-20.83-9.967
	C235.187,500.645,95.71,235.749,0,0z M388.242,992.708l107.502-83.039c11.23-8.137,12.146-13.631,16.562-28.689l142.108-647.079
	c3.074-15.186-3.535-30.813-21.898,6.781c-30.755,62.963-64.565,124.688-100.758,184.25c-22.123,36.41-45.568,72.367-71.084,106.499
	c-20.375,27.262-42.873,54.623-67.849,77.818c-7.226,7.406-17.86,13.182-28.379,13.195h-0.026
	c-10.518-0.018-21.154-5.789-28.375-13.195c-24.979-23.195-47.474-50.562-67.852-77.818
	c-25.516-34.131-48.958-70.088-71.081-106.499c-36.194-59.562-70.009-121.292-100.76-184.25
	c-18.364-37.594-24.976-21.967-21.901-6.781l142.11,647.08c4.419,15.062,5.327,20.557,16.562,28.689
	c34.879,26.943,69.761,53.883,104.64,80.826C364.938,1011.488,361.069,1013.699,388.242,992.708z"/>
</svg>
