<?xml version="1.0" encoding="utf-8"?>
<!-- Generator: Adobe Illustrator 21.0.2, SVG Export Plug-In . SVG Version: 6.00 Build 0)  -->
<svg version="1.1" id="Layer_1" xmlns="http://www.w3.org/2000/svg" xmlns:xlink="http://www.w3.org/1999/xlink" x="0px" y="0px"
	 width="2073.479px" height="1038.09px" viewBox="0 0 2073.479 1038.09" enable-background="new 0 0 2073.479 1038.09"
	 xml:space="preserve">
<g>
	<path fill="none" stroke="#231F20" stroke-linejoin="round" stroke-miterlimit="10" d="M1356.999,226.972
		c-2.885-0.921-5.896-1.251-8.912-0.996c-5.607,0.474-10.861,2.927-15.119,6.556c-4.73,4.031-8.152,9.41-10.037,15.315
		c-1.885,5.905-2.214,12.271-0.695,18.297c1.366,5.421,4.229,10.471,8.521,14.103c2.311,1.957,4.958,3.433,7.843,4.354
		c2.885,0.921,5.897,1.252,8.914,0.997c5.606-0.474,10.86-2.927,15.118-6.556c4.729-4.031,8.15-9.409,10.036-15.314
		c1.885-5.905,2.214-12.271,0.695-18.297c-1.366-5.421-4.229-10.47-8.521-14.104C1362.53,229.369,1359.884,227.894,1356.999,226.972
		L1356.999,226.972z"/>
	<path fill="none" stroke="#231F20" stroke-linejoin="round" stroke-miterlimit="10" d="M2042.038,425.614l-133.179-105.231
		c-22.604-18.88-44.87-32.939-68.454-44.129c-26.729-12.682-55.153-21.682-87.683-29.842c-3.827-0.95-7.655-1.9-11.484-2.85
		c-43.407-10.767-86.912-21.53-130.273-32.576c-60.038-15.295-119.804-31.135-178.665-48.29
		c-67.993-19.816-133.932-45.236-198.221-72.219c-31.824-16.284-56.61-33.976-78.562-55.224
		c-11.105-10.749-21.485-22.408-31.684-35.254c-36.8,34.172-72.721,69.349-110.276,102.687
		c-58.32,51.771-118.358,97.462-190.31,135.915c-48.451,25.894-95.556,50.458-144.946,70.755
		c-42.994,17.668-87.461,32.586-135.115,44.072c41.9,11.537,83.969,26.07,126.104,42.776
		c76.03,30.146,152.274,67.37,228.117,106.833c76.318,39.711,153.399,78.905,229.736,118.558
		c14.838,7.655,20.222,6.825,36.726,4.326c216.048-30.844,432.907-64.307,646.558-108.688
		c80.392-16.7,159.289-35.567,234.562-57.874C2063.7,453.814,2061.541,440.898,2042.038,425.614z M1297.482,211.696l-51.973,212.637
		c-0.948,3.877-0.489,3.598-4.371,2.668l-297.833-71.316c-6.726-1.611-5.456-1.445-3.957-8.127l48.047-214.078
		c1.71-7.619,0.579-7.478,8.196-5.607l296.672,72.875C1301.356,202.982,1299.683,202.688,1297.482,211.696z M1374.017,264.157
		c-5.318,16.656-21.371,26.416-35.849,21.793c-14.478-4.622-21.906-21.879-16.588-38.535c5.318-16.656,21.372-26.415,35.849-21.793
		C1371.907,230.244,1379.335,247.501,1374.017,264.157z"/>
	<path fill="none" stroke="#231F20" stroke-linejoin="round" stroke-miterlimit="10" d="M939.581,353.057
		c0.393,0.42,3.505,1.119,4.054,1.25l297.833,71.316c0.37,0.089,1.523,0.418,2.146,0.519c0.194-0.6,0.428-1.777,0.518-2.146
		l51.973-212.637c0.446-1.824,1.006-3.614,1.451-5.429c0.086-0.352,0.365-1.498,0.188-1.847c-0.373-0.737-5.05-1.769-5.82-1.959
		L995.252,129.25c-0.621-0.152-4.59-1.236-5.114-1.007c-0.38,0.35-1.218,4.911-1.361,5.548l-48.047,214.078
		C940.599,348.455,939.474,352.572,939.581,353.057L939.581,353.057z"/>
</g>
<path fill="none" stroke="#231F20" stroke-linejoin="round" stroke-miterlimit="10" d="M638.904,933.89
	c-9.922,2.882-19.815,5.869-29.821,8.449c-5.029,1.297-10.086,2.489-15.177,3.517c-0.806,0.162-1.612,0.259-2.424,0.378
	c0.136,0.18,0.288,0.349,0.458,0.501c0.22,0.195,0.464,0.355,0.729,0.485c2.298,1.123,7.279,0.167,9.847-0.006
	c5.656-0.38,11.293-1.153,16.875-2.135c8.107-1.426,16.126-3.301,24.123-5.237l6.454-1.562l-3.336,5.742
	c-10.496,18.063-16.034,37.085-21.18,57.171l-0.441,1.723l-36.424,7.35c-19.712,4.457-39.705,7.847-59.787,10.109
	c-18.193,2.049-36.414,3.874-54.642,5.586c-27.075,2.543-54.175,4.831-81.28,7.032c-29.984,2.435-60.238,5.116-90.335,5.096
	c-16.393-0.011-32.839-0.627-49.159-2.212c-14.528-1.411-29.113-3.595-43.294-7.09c-21.396-5.273-41.553-14.194-60.511-25.344
	c-5.119-3.011-10.415-5.729-15.708-8.42c-5.731-2.914-11.469-5.802-17.102-8.906c-22.118-12.188-45.239-22.495-67.35-34.681
	c-9.479-5.224-19.066-10.419-28.319-16.031c-3.493-2.118-6.986-4.324-10.29-6.729c-2.386-1.737-4.95-3.756-6.872-6.007
	c-4.673-5.475-4.441-12.943-3.093-19.604c1.71-8.455,6.663-16.001,11.706-22.84C25.388,862.818,42.094,848.759,57.74,834
	l4.173-3.936l0.592,5.705c0.396,3.812,0.85,9.611,3.281,12.708c1.987,2.53,3.946,5.147,6.15,7.492
	c2.598,2.763,5.245,5.522,8.046,8.079c2.751,2.51,5.865,5.028,9.247,6.631c10.007,4.743,20.791-1.95,28.473-8.113
	c6.257-5.02,12.27-10.41,18.194-15.816c6.708-6.122,13.334-12.332,20.031-18.466c3.653-3.345,6.337-7.702,8.318-12.209
	c0.268-0.609,0.38-1.027,0.22-1.678c-0.829-3.378-3.988-7.665-5.639-10.842l-3.234-6.222l6.649,2.227
	c20.155,6.75,40.26,14.217,61.288,17.811c38.459,6.575,78.239,6.969,117.145,5.578c36.425-1.302,72.742-4.316,109.139-6.066
	c72.607-3.493,145.108-9.166,217.342-17.321c54.888-6.197,109.59-14.214,163.775-24.986c51.015-10.142,101.538-22.728,151.14-38.412
	c43.471-13.745,86.466-32.056,124.566-57.305c15.847-10.502,29.494-24.252,41.938-38.526l0.19-0.218l3.944-3.002l0.71-0.11
	c75.178-11.659,150.249-23.999,225.318-36.34c106.248-17.466,212.504-34.935,319.056-50.47
	c43.072-6.279,86.228-12.001,129.489-16.822c63.508-7.079,127.102-13.398,190.583-20.718c10.629-1.225,20.941-4.469,31.175-7.46
	c2.868-0.838,5.748-1.664,8.65-2.375c2.414-0.591,4.996-1.165,7.474-1.358c5.262-0.411,8.707,3.452,8.28,8.605
	c-0.318,3.837-2.162,7.416-4.488,10.419c-5.432,7.013-12.023,8.406-19.829,11.391l-54.633,20.891l-118.205,41.223
	c-78.965,27.16-158.553,52.5-238.541,76.476c-283.84,85.08-572.411,152.897-859.388,226.289
	C731.753,908.674,685.302,921.19,638.904,933.89L638.904,933.89z"/>
<path fill="none" stroke="#231F20" stroke-linejoin="round" stroke-miterlimit="10" d="M334.128,627.676l14.463,5.267
	c22.635,7.918,45.114,16.017,67.541,24.033c108.059,38.624,214.933,75.304,332.462,80.228c19.59,0.82,39.257,0.909,59.072,0.187
	c108.138-3.94,218.709-26.522,295.517-79.011c10.196-6.968,19.797-14.462,28.718-22.51
	c-167.359-96.133-350.383-169.544-532.66-236.325c-35.885-13.147-146.523-77.878-188.214-90.682
	c-6.968-2.14-2.611,8.992,1.402,10.777c3.832,1.705,7.105,6.625,9.897,11.29c5.312,8.878,10.062,20.147,11.294,33.023
	c0.5,5.226-0.138,10.882-1.843,16.577c-5.675,18.963-21.771,40.705-55.209,62.957c-41.342,27.512-109.195,55.806-216.636,80.592
	l14.453,45.635C208.756,580.622,284.89,609.743,334.128,627.676L334.128,627.676z"/>
</svg>
