<?xml version="1.0" encoding="utf-8"?>
<!-- Generator: Adobe Illustrator 21.0.2, SVG Export Plug-In . SVG Version: 6.00 Build 0)  -->
<svg version="1.1" id="Layer_1" xmlns="http://www.w3.org/2000/svg" xmlns:xlink="http://www.w3.org/1999/xlink" x="0px" y="0px"
	 width="1659.344px" height="796.106px" viewBox="0 0 1659.344 796.106" enable-background="new 0 0 1659.344 796.106"
	 xml:space="preserve">
<path fill="none" stroke="#231F20" stroke-linejoin="round" stroke-miterlimit="10" d="M52.598,515.838
	c16.497,10.006,34.491,9.04,53.799-1.562L282.646,360.74l16.76-16.068l183.67-160.931l71.798-2.165
	c41.594-34.637,81.416-69.176,123.662-101.257c21.082-16.01,42.768-31.409,65.58-45.902c21.384-13,41.558-21.494,61.533-26.79
	c43.945-11.653,86.927-7.83,139.696-2.487c52.266,5.293,103.996,8.672,157.405,19.566c29.409,5.998,58.799,12.909,88.172,20.727
	c69.9,18.603,140.919,36.014,211.825,56.304c57.529,16.462,114.27,34.629,171.156,51.82l37.216,10.282l24.534,5.328l6.872,0.361
	l2.269,2.234l13.789,18.078c1.903,4.615-0.094,6.721-2.372,10.931c-1.516,0.578-3.198,0.951-4.486,1.93
	c-7.309,5.556-14.073,10.786-20.328,15.825c-20.537,16.544-35.605,31.047-46.572,48.38c-23.249,36.745-27.686,83.761-33.834,155.311
	c-4.944,57.542-7.898,114.86-17.692,171.188c-6.32,36.35-16.76,72.208-30.212,108.443c-90.821-41.426-167.055-73.329-239.956-94.618
	c-46.731-13.647-91.946-24.816-139.049-27.569c-117.545-6.871-242.398,10.195-366.755,38.926
	c-82.367,19.029-164.516,43.176-244.18,68.875c-64.789,20.901-127.219,45.959-187.169,70.356
	c-27.133,11.043-52.088,22.664-77.836,36.613c-4.596,2.489-3.727,2.196-8.253-0.824C212.161,775.109,60.473,673.911,22.656,648.719
	c-10.291-6.856-9.745-8.182-14.504-20.477C4.297,618.284,0,606.961,0,606.961c7.849-10.383,10.677-27.263,1.277-59.627l-0.006,0
	C0.444,544.531,0,541.563,0,538.492c0-17.221,13.96-31.181,31.181-31.181c8.295,0,15.834,3.239,21.42,8.522L52.598,515.838z"/>
</svg>
