<?xml version="1.0" encoding="utf-8"?>
<!-- Generator: Adobe Illustrator 21.0.2, SVG Export Plug-In . SVG Version: 6.00 Build 0)  -->
<svg version="1.1" id="Layer_1" xmlns="http://www.w3.org/2000/svg" xmlns:xlink="http://www.w3.org/1999/xlink" x="0px" y="0px"
	 width="983.178px" height="1198.193px" viewBox="0 0 983.178 1198.193" enable-background="new 0 0 983.178 1198.193"
	 xml:space="preserve">
<path fill="none" stroke="#231F20" stroke-linejoin="round" stroke-miterlimit="10" d="M799.56,295.041
	c42.614,88.701,99.274,169.983,142.464,258.921l-11.319,9.5L607.932,161.665l-23.117-24.05
	c-10.308-10.346-13.692-14.654-21.816-12.912c-4.255,0.913-9.374,3.5-16.571,7.777l-82.249,62.752L328.858,23.49
	c-13.495-17.126-21.209-14.295-37.018-2.129l-87.233,58.43l-105.44,77.06L0,43.852C84.151,26.452,182.747,4.77,268.164,0.648
	c11.592-0.56,20.681-1.082,32.444-0.086c18.349,1.554,36.889,4.577,55.561,7.744l51.999,10.053l26.484,5.856
	c45.333,10.268,65.676,29.827,101.749,58.562l37.618,29.966l50.713,42.223L799.56,295.041L799.56,295.041z"/>
<path fill="none" stroke="#231F20" stroke-linejoin="round" stroke-miterlimit="10" d="M947.765,592.307
	c2.932-1.671,5.036-3.067,6.763-2.874c1.032,0.115,1.902,0.546,2.906,0.997c1.668,0.748,3.797,2.14,5.154,3.696
	c1.407,1.613,1.878,4.794,1.133,8.622c-2.096,10.774-5.246,22.274-9.957,33.717c-9.502,23.083-20.706,45.494-29.726,68.747
	c-5.314,13.7-10.113,27.385-14.781,41.065c-3.631,10.64-6.857,21.665-10.508,32.305c-0.623,8.853-0.46,11.632,3.184,11.19
	c6.417-0.781,14.064-4.675,21.675-10.145c7.122-5.118,13.973-10.236,20.382-15.491c6.021-4.936,11.654-9.994,16.755-15.287
	c4.172-4.329,6.972-9.537,11.45-13.694c8.194-7.605,11.674-9.433,10.869-7c-0.34,1.031-1.456,2.867-3.035,5.53
	c-13.024,21.945-28.848,46.801-44.577,63.708c-6.583,7.075-13.479,14.658-21.825,21.032
	c-64.128,48.969-128.433,97.508-192.263,146.454c-70.723,54.231-140.862,108.96-209.525,165.322l-73.998,67.993l44.78-91.183
	l43.394-95.039l29.926-67.63l27.38-86.1l13.58-53.26l6.184-44.283l34.418-15.658l75.102-37.232l145.404-72.154L947.765,592.307
	L947.765,592.307z"/>
</svg>
