<?xml version="1.0" encoding="utf-8"?>
<!-- Generator: Adobe Illustrator 21.0.2, SVG Export Plug-In . SVG Version: 6.00 Build 0)  -->
<svg version="1.1" id="Layer_1" xmlns="http://www.w3.org/2000/svg" xmlns:xlink="http://www.w3.org/1999/xlink" x="0px" y="0px"
	 width="614.801px" height="904.391px" viewBox="0 0 614.801 904.391" enable-background="new 0 0 614.801 904.391"
	 xml:space="preserve">
<path fill-rule="evenodd" clip-rule="evenodd" d="M6.566,902.811c-0.793,0.617-1.494,1.036-2.109,1.286
	c-2.67,1.086-3.776-0.987-4.206-3.728c-0.24-1.534-0.269-3.276-0.242-4.794c8.399-57.318,18.343-114.251,29.389-170.914
	c9.885-50.713,20.654-101.21,31.987-151.57c11.466-50.954,23.883-101.671,39.682-151.671
	c20.049-63.452,44.032-125.812,72.213-188.326c25.171-55.837,49.976-113.029,79.538-166.836
	c13.835-25.181,32.592-45.16,52.776-57.468c1.285-0.784,2.655-1.482,4.05-2.2C321.74,1.996,334.287-0.034,347.109,0
	c69.648,0.186,147.399,61.276,205.027,103.103c22.854,16.588,43.136,35.827,62.664,55.75
	c-28.405-11.805-56.709-23.957-85.292-35.316c-24.514-9.742-49.95-18.518-75.126-21.969c-13.164-1.804-24.165-0.456-34.598,5.436
	c-10.441,5.896-20.335,16.492-31.343,33.637l-34.254,47.82l-15.939,25.436l-13,27.018l-43.103,97.165l-36.208,94.592l-13.125,33.945
	c-3.777,9.814-8.872,22.249-11.289,34.906c-2.27,11.889-2.178,23.975,3.588,34.267c2.217,3.957,4.825,6.99,6.831,9.818
	c3.092,4.36-3.191,12.748-6.338,19.236c-0.765,1.241-3.178,6.393-3.945,7.633c-2.738,4.429-5.486,8.853-8.242,13.271
	c-52.932,84.82-109.255,167.507-164.021,251.15C35.043,858.819,20.749,880.785,6.566,902.811L6.566,902.811z"/>
</svg>
