<?xml version="1.0" encoding="utf-8"?>
<!-- Generator: Adobe Illustrator 21.0.2, SVG Export Plug-In . SVG Version: 6.00 Build 0)  -->
<svg version="1.1" id="Layer_1" xmlns="http://www.w3.org/2000/svg" xmlns:xlink="http://www.w3.org/1999/xlink" x="0px" y="0px"
	 width="418.677px" height="491.257px" viewBox="0 0 418.677 491.257" enable-background="new 0 0 418.677 491.257"
	 xml:space="preserve">
<path fill="none" stroke="#231F20" stroke-linejoin="round" stroke-miterlimit="10" d="M315.535,333.801L315.535,333.801
	l-16.943,64.271c-2.595,18.064,3.908,28.405,19.508,31.024c15.542,1.769,27.617,14.964,27.617,30.979
	c0,17.221-13.96,31.181-31.181,31.181h-40.509c-21.456-8.87-43.011-14.187-64.688-15.115c-21.677,0.928-43.231,6.246-64.686,15.115
	l-41.51-157.456c-18.005-59.769-47.255-111.479-90.081-153.457L0,42.229L157.153,6.128l0.028-0.006
	C174.446,2.521,191.666,0,209.338,0c17.673,0,34.893,2.521,52.157,6.122l0.028,0.006l157.153,36.101l-13.061,138.115
	C364.599,219.4,334.573,270.552,315.535,333.801z"/>
</svg>
