<?xml version="1.0" encoding="utf-8"?>
<!-- Generator: Adobe Illustrator 16.0.0, SVG Export Plug-In . SVG Version: 6.00 Build 0)  -->
<!DOCTYPE svg PUBLIC "-//W3C//DTD SVG 1.1//EN" "http://www.w3.org/Graphics/SVG/1.1/DTD/svg11.dtd">
<svg version="1.1" id="Layer_1" xmlns="http://www.w3.org/2000/svg" xmlns:xlink="http://www.w3.org/1999/xlink" x="0px" y="0px"
	 width="614.18px" height="311.995px" viewBox="0 0 614.18 311.995" enable-background="new 0 0 614.18 311.995"
	 xml:space="preserve">
<path fill="none" stroke="#000000" stroke-miterlimit="22.9256" d="M150.78,219.496l154.03,91.893c1.635,0.813,3.088,0.804,4.567,0
	l154.021-91.893C547.707,176.829,614.18,16.044,614.18,16.044c-0.004-36.098-25.939,0-25.939,0l-19.451,39.382
	c-50.261,91.879-113.498,123.059-113.498,123.059l-25.936-101.74H426.4H187.778h-2.952l-25.929,101.74
	c0,0-63.247-31.181-113.498-123.06L25.94,16.046c0,0-25.94-36.102-25.94-0.002C-0.002,16.046,66.47,176.828,150.78,219.496
	L150.78,219.496z"/>
</svg>
