<?xml version="1.0" encoding="utf-8"?>
<!-- Generator: Adobe Illustrator 22.1.0, SVG Export Plug-In . SVG Version: 6.00 Build 0)  -->
<svg version="1.1" id="Layer_1" xmlns="http://www.w3.org/2000/svg" xmlns:xlink="http://www.w3.org/1999/xlink" x="0px" y="0px"
	 width="753.362px" height="1241.142px" viewBox="0 0 753.362 1241.142" enable-background="new 0 0 753.362 1241.142"
	 xml:space="preserve">
<path id="K" fill-rule="evenodd" clip-rule="evenodd" fill="none" stroke="#000000" stroke-miterlimit="10" d="M7.613,592.785
	c1.832,0.473,4.007,2.128,6.701,4.908l16.935,15.334l18.2,10.423c31.795,54.849,59.446,112.26,94.079,165.354
	c19.811,30.372,42.111,60.043,67.312,86.442c0.434,0.391,0.866,0.782,1.302,1.171c20.766,18.486,44.303,34.395,71.881,46.987
	c2.667,6.31,6.14,11.865,11.023,15.84c4.965,4.042,10.256,7.488,15.771,10.361c13.218,5.69,27.352,9.484,42.519,10.759
	c2.055,0.173,4.122,0.283,6.194,0.333c2.072-0.05,4.139-0.16,6.194-0.333c15.167-1.275,29.301-5.069,42.519-10.759
	c5.516-2.873,10.807-6.319,15.771-10.361c4.883-3.975,8.357-9.531,11.023-15.84c27.578-12.591,51.115-28.501,71.881-46.987
	c0.437-0.388,0.868-0.78,1.302-1.171c25.201-26.399,47.501-56.07,67.312-86.442c34.633-53.094,62.284-110.505,94.079-165.354
	l18.2-10.423l16.935-15.334c2.694-2.781,4.869-4.435,6.701-4.908 M715.52,120.625c0.071-13.631-0.092-31.835-6.267-44.412
	c-2.309-6.505-5.57-11.901-9.667-15.566c-5.083-4.547-12.026-6.71-22.637-5.086c-1.935,0.296-3.765,0.759-5.543,1.377
	 M11.803,388.47c3.72,23.958,9.774,46.197,19.503,65.182c12.267,23.938,32.066,47.201,63.202,73.541
	c24.22,20.489,50.189,40.604,78.638,60.227c22.837,15.754,46.992,31.518,72.161,48.018c31.987,20.968,64.217,41.057,100.464,55.596
	c-0.13-12.567,4.588-34.109,6.185-49.716c-2.982-0.516-5.974-1.095-8.958-1.759c-6.572-2.48-13.715-5.205-20.843-8.329
	c-7.786-3.412-15.555-7.3-22.549-11.86c-4.531-3.941-8.734-8.558-12.5-13.991c-9.433-13.608-9.351-24.752-5.442-34.565
	c3.266-8.202,9.342-15.172,16.968-20.29c6.955-4.668,14.338-8.138,21.596-11.567c28.996-13.698,49.609-13.698,78.605,0
	c7.257,3.429,14.641,6.899,21.596,11.567c7.626,5.118,13.702,12.087,16.968,20.29c3.908,9.813,3.991,20.956-5.442,34.565
	c-3.766,5.432-7.968,10.05-12.499,13.99c-6.994,4.562-14.764,8.449-22.551,11.862c-7.128,3.124-14.27,5.849-20.842,8.329
	c-2.983,0.664-5.976,1.244-8.958,1.76c1.597,15.607,6.315,37.149,6.185,49.716c36.247-14.539,68.477-34.627,100.464-55.596
	c25.169-16.499,49.324-32.263,72.161-48.018c28.448-19.624,54.417-39.738,78.638-60.227c31.136-26.34,50.935-49.603,63.202-73.541
	c2.095-4.088,4.02-8.327,5.787-12.701 M296.337,582.611c0,22.615,28.298,40.955,63.194,40.955c34.895,0,63.194-18.34,63.194-40.955
	c0-22.615-28.299-40.955-63.194-40.955C324.636,541.656,296.337,559.997,296.337,582.611L296.337,582.611z"/>
</svg>
