<?xml version="1.0" encoding="utf-8"?>
<!-- Generator: Adobe Illustrator 22.1.0, SVG Export Plug-In . SVG Version: 6.00 Build 0)  -->
<svg version="1.1" id="Layer_1" xmlns="http://www.w3.org/2000/svg" xmlns:xlink="http://www.w3.org/1999/xlink" x="0px" y="0px"
	 width="395.561px" height="353.583px" viewBox="0 0 395.561 353.583" enable-background="new 0 0 395.561 353.583"
	 xml:space="preserve">
<path id="Shape" fill="none" stroke="#000000" stroke-miterlimit="10" d="M269.355,326.656
	c-27.781,10.844-58.184,23.584-87.536,26.49c-5.888,0.583-18.692,0.583-24.581,0c-29.353-2.906-59.755-15.647-87.538-26.49
	c-4.646-1.385-8.604-3.385-12.781-5.406C39.529,244.926,22.861,168.593,3.531,92.738c-0.624-2.447-1.25-4.894-1.879-7.34
	c-3.467-26.057-4.806-39.579,31.356-44.572c3.232-0.233,6.462-0.451,9.69-0.656c42.514-2.694,84.672-2.997,126.835-1.927
	c42.161-1.07,84.315-0.766,126.827,1.927c3.228,0.205,6.458,0.423,9.691,0.656c31.721,4.38,35.051,16.802,31.355,44.573
	c-0.629,2.446-1.255,4.892-1.879,7.34c-19.331,75.855-35.998,152.188-53.39,228.511
	C277.961,323.272,274.003,325.271,269.355,326.656L269.355,326.656z"/>
<circle id="R" fill="none" stroke="#000000" stroke-miterlimit="10" cx="364.38" cy="31.181" r="31.181"/>
</svg>
