<?xml version="1.0" encoding="utf-8"?>
<!-- Generator: Adobe Illustrator 22.1.0, SVG Export Plug-In . SVG Version: 6.00 Build 0)  -->
<svg version="1.1" id="Layer_1" xmlns="http://www.w3.org/2000/svg" xmlns:xlink="http://www.w3.org/1999/xlink" x="0px" y="0px"
	 width="1061.532px" height="719.082px" viewBox="0 0 1061.532 719.082" enable-background="new 0 0 1061.532 719.082"
	 xml:space="preserve">
<path id="Shape" fill="none" stroke="#000000" stroke-miterlimit="10" d="M1004.418,122.132
	c-47.057-12.59-95.153-20.609-142.952-29.759c-27.726-5.308-55.344-11.163-83.065-16.495c-18.956-3.645-38.065-6.554-57.281-8.421
	c-31.178-3.029-62.369-3.239-93.514,0.318c-70.284,8.026-135.092,40.106-200.201,65.705l-32.339-44.01
	c-3.107-4.228-8.536-10.749-14.503-9.748c-5.42,0.91-7.911,7.332-9.206,11.951c-4.918,17.55-10.554,34.435-20.529,49.825
	c-21.109,32.572-45.24,63.002-70.967,92.029c-83.038,93.69-173.602,180.343-259.803,271.06l-2.213,2.328l2.587,1.907
	c4.966,3.655,11.853,9.13,13.681,15.296c2.607,8.796,1.856,17.568-5.045,24.123c-4.506,4.279-10.781,6.846-16.832,7.952
	c-3.425,0.625-8.214,0.487-10.696,3.248c-2.128,2.367-1.703,5.659-0.8,8.447l0.896,2.761l5.112,13.565l0.747,0.505
	c65.763,44.451,132.302,87.758,197.418,133.161l1.722,1.202l1.651-1.298c32.249-25.359,65.545-50.03,100.346-71.792
	c21.04-13.156,42.696-25.819,65.206-36.308c19.523-9.097,39.817-16.551,60.971-20.807c20.29-4.084,40.973-4.915,61.614-4.422
	c23.349,0.557,46.759,2.686,70.04,4.511c32.529,2.547,64.961,7.394,97.137,12.725c31.064,5.144,62.039,10.846,93.143,15.746
	c15.174,2.392,30.391,4.591,45.653,6.348c14.199,1.635,28.475,2.896,42.76,3.431c11.552,0.433,21.515-4.065,30.607-10.822
	c13.933-10.355,24.903-28.621,32.752-43.84c3.576-6.933,7.219-13.794,9.996-21.102c14.908-39.228,28.964-78.813,45.168-117.535
	c14.23-34.007,28.572-67.968,42.543-102.082c14.552-35.534,28.804-71.188,42.683-106.99c4.08-10.524,8.689-21.331,11.124-32.371
	c1.79-8.122,2.076-15.632,0.334-23.788c-0.937-4.386-2.374-8.653-3.989-12.832l-1.662-4.301l-3.088,3.424
	c-6.102,6.767-12.815,10.253-21.06,11.588c1.983-2.624,4.086-5.147,6.351-7.568c3.67-3.924,7.665-7.488,11.811-10.899l2.131-1.753
	l-1.696-2.177C1038.589,130.592,1020.206,126.357,1004.418,122.132z M882.877,561.237c-8.298,10.689-23.695,12.63-34.385,4.332
	c-10.689-8.298-12.628-23.696-4.33-34.385c8.297-10.689,23.694-12.628,34.383-4.331
	C889.235,535.151,891.175,550.548,882.877,561.237z M1002.955,207.178c-8.297,10.689-23.695,12.628-34.384,4.331
	c-10.689-8.298-12.629-23.695-4.331-34.384c8.298-10.69,23.694-12.628,34.384-4.331
	C1009.312,181.092,1011.253,196.488,1002.955,207.178z"/>
<circle id="R" fill="none" stroke="#000000" stroke-miterlimit="10" cx="692.38" cy="31.181" r="31.181"/>
</svg>
