<?xml version="1.0" encoding="utf-8"?>
<!-- Generator: Adobe Illustrator 22.1.0, SVG Export Plug-In . SVG Version: 6.00 Build 0)  -->
<svg version="1.1" id="Layer_1" xmlns="http://www.w3.org/2000/svg" xmlns:xlink="http://www.w3.org/1999/xlink" x="0px" y="0px"
	 width="1061.532px" height="718.295px" viewBox="0 0 1061.532 718.295" enable-background="new 0 0 1061.532 718.295"
	 xml:space="preserve">
<path id="K" fill="none" stroke="#000000" stroke-miterlimit="10" d="M1059.992,558.656c-2.482-2.761-7.271-2.623-10.696-3.248
	c-6.051-1.106-12.326-3.672-16.832-7.952c-6.901-6.555-7.652-15.327-5.045-24.123c1.828-6.166,8.715-11.641,13.681-15.296
	l2.587-1.907 M6.819,150.77l3.088,3.424c6.102,6.767,12.815,10.253,21.06,11.588c-1.983-2.624-4.086-5.147-6.351-7.568
	c-3.67-3.924-7.665-7.488-11.811-10.899l-2.131-1.753l1.696-2.177 M457.929,70.661c-7.934-1.51-15.932-2.748-24.002-3.67
	c-31.144-3.556-62.336-3.347-93.514-0.318 M182.987,526.069c10.689-8.297,26.086-6.359,34.383,4.331
	c8.298,10.689,6.359,26.087-4.33,34.385c-10.689,8.298-26.087,6.357-34.385-4.332C170.358,549.763,172.298,534.366,182.987,526.069z
	 M62.909,172.01c10.689-8.298,26.086-6.359,34.384,4.331c8.297,10.689,6.358,26.086-4.332,34.384
	c-10.689,8.297-26.086,6.358-34.384-4.331C50.28,195.704,52.22,180.307,62.909,172.01z"/>
</svg>
