<?xml version="1.0" encoding="utf-8"?>
<!-- Generator: Adobe Illustrator 16.0.0, SVG Export Plug-In . SVG Version: 6.00 Build 0)  -->
<!DOCTYPE svg PUBLIC "-//W3C//DTD SVG 1.1//EN" "http://www.w3.org/Graphics/SVG/1.1/DTD/svg11.dtd">
<svg version="1.1" id="Layer_1" xmlns="http://www.w3.org/2000/svg" xmlns:xlink="http://www.w3.org/1999/xlink" x="0px" y="0px"
	 width="1241.865px" height="1693.206px" viewBox="0 0 1241.865 1693.206" enable-background="new 0 0 1241.865 1693.206"
	 xml:space="preserve">
<path fill="none" stroke="#020203" stroke-linejoin="round" stroke-miterlimit="10" d="M1046.667,657.799
	c34.244-277.523,15.371-183.85,14.762-423.07c-4.037-19.985-3.756-36.3-9.52-58.165c-13.994-53.085-64.756-94.935-99.904-138.901
	c-9.043-11.309-26.201-24.269-36.975-32.267c-15.308-18.239-92.938,19.661-91.607,29.145c4.088,29.243,22.545,83.407,35.221,108.765
	c6.107,12.209,6.748,16.516,9.648,28.638c-0.051,25.534-8.869,61.247-16.561,89.521c-2.113,61.969-7.688,129.861-13.824,192.588
	c-33.104,214.904-47.42,450.156-129.027,653.021c-11.785,29.305-28.147,53.84-37.399,74.084
	c-14.533,18.984-25.129,34.348-30.22,55.615c-1.12,4.699,5.132,12.93,12.474,11.021c5.664-1.473,31.526-18.211,36.518-21.939
	c151.896-137.111,267.422-307.811,335.26-501.5C1033.171,702.458,1040.23,680.269,1046.667,657.799z"/>
<path fill="none" stroke="#020203" stroke-linejoin="round" stroke-miterlimit="10" d="M353.089,1459.483l198.301-124.498
	c36.688-25.785,57.738-54.244,49.154-69.518c-3.367-5.988-5.939-5.805-11.561-3.354c-83.893,36.561-197.418,83.98-273.159,121.01
	C212.93,1447.635,110.717,1513.262,7.08,1576.569c-9.181,5.604-9.032,21.002,2.208,17.061L353.089,1459.483z"/>
<path fill="none" stroke="#020203" stroke-linejoin="round" stroke-miterlimit="10" d="M1184.687,1037.563
	c-1.692-3.551-4.965-6.055-8.102-8.508c-4.064,0.6-17.734,9.146-17.967,9.268c-23.219,12.229-46.371,27.031-69.439,40.752
	c-3.543,2.105-7.154,4.229-10.684,6.404c-79.719,49.199-193.312,119.311-238.043,149.387c-4.205,2.826-10.244,6.758-18.049,11.773
	c-39.318,25.449-90.334,59.199-153.205,101.57c-24.781,16.65-42.689,28.77-53.728,36.35l-17.938,11.979
	c-5.604,3.549-47.163,32.094-124.695,85.561c-26.53,18.297-53.391,36.117-79.804,54.586c-35.91,25.109-72.046,49.896-107.732,75.324
	c-27.017,19.254-55.799,35.91-82.755,55.254c-7.958,5.711-13.914,10.434-17.793,14.148c-0.903,0.865-1.518,3.125-1.974,4.803
	c-0.464,1.711-0.902,4.037,0.993,4.941l3.249,1.551l4.377-0.145l6.353-1.277c9.742-1.957,146.877-54.84,147.512-55.336
	c1.291-1.006,20.131-8.109,30.278-11.957c40.329-15.299,101.604-40.385,183.74-75.318c20.087-8.588,30.222-12.975,30.4-13.158
	l34.218-15.02c2.396-0.48,31.938-13.904,88.543-40.328c41.174-19.146,63.713-30.498,67.508-33.904
	c5.037-4.537,9.676-13.988,14.023-28.521c3.026-10.152,5.108-16.965,6.396-20.449c1.285-3.5,2.938-7.988,4.156-10.387
	c7.641-14.975,17.924-28.859,30.889-41.818c1.854-1.855,5.392-4.605,8.188-6.785l8.511-6.629
	c15.367-11.977,30.75-21.311,46.248-27.871l26.897-12.311l10.121-4.09c4.761-1.91,21.812-8.053,51.062-18.555
	c47.415-16.943,105.146-38.455,173.202-64.537c4.527-1.736,12.078-4.629,13.688-4.953c8.117-1.631,21.965-8.377,41.312-20.27
	c10.332-6.334,16.757-10.562,19.166-12.812c2.861-2.559,6.941-2.537,7.55-8.49
	C1241.739,1154.129,1205.194,1080.512,1184.687,1037.563z"/>
</svg>
