<?xml version="1.0" encoding="utf-8"?>
<!-- Generator: Adobe Illustrator 22.1.0, SVG Export Plug-In . SVG Version: 6.00 Build 0)  -->
<svg version="1.1" id="Layer_1" xmlns="http://www.w3.org/2000/svg" xmlns:xlink="http://www.w3.org/1999/xlink" x="0px" y="0px"
	 width="2446.181px" height="636.808px" viewBox="0 0 2446.181 636.808" enable-background="new 0 0 2446.181 636.808"
	 xml:space="preserve">
<path id="T" fill="none" stroke="#000000" stroke-linejoin="round" stroke-miterlimit="10" d="M1680.736,37.465
	c0.415-2.03,0.633-4.131,0.633-6.284c0-17.221-13.96-31.181-31.181-31.181c-17.221,0-31.181,13.96-31.181,31.181
	c0,1.113,0.058,2.213,0.172,3.296h0.003c0,0-0.564,28.532-29.026,27.097c-40.369-2.046-80.808-3.975-121.373-6.68
	c2.023,19.42,6.445,37.661,1.917,53.83c-2.54,9.071-7.897,17.49-18.074,25.1c-30.436,22.76-89.412,31.423-137.97,44.357
	c-78.263,20.848-160.256,28.556-241.461,44.402c-81.649,15.933-163.794,31.651-246.258,48.067
	c-95.203,18.952-191.988,29.371-290.401,38.216c-52.971,4.761-105.936,8.341-158.811,9.815
	c-46.511,1.297-92.963-0.512-140.057-3.724c-20.141-1.373-40.237-1.956-60.133-3.532c-18.192-1.44-33.511-4.558-48.684-9.147
	c-19.085-5.773-37.566-19.532-60.156-35.665l0,0C52.708,278.182-0.558,315.21,0.004,315.722
	c19.368,17.647,40.91,33.615,65.858,44.438c53.716,23.301,123.961,36.894,199.627,46.696
	c178.12,23.074,357.359,37.958,535.06,65.253c25.532,3.159,42.438,6.349,60.556,0.238c17.821-6.011,35.277-12.587,53.331-17.245
	c35.53-9.168,72.91-16.513,111.14-22.11c94.028-13.766,193.2-16.966,282.649-10.741c78.474,5.461,153.07,26.016,216.747,67.043
	c23.86,15.373,46.577,35.189,68.808,59.345c22.741,24.711,43.574,55.886,68.395,79.827c9.247,8.92,15.375,10.93,21.364,4.849
	c3.124-3.173,6.379-8.734,10.447-17.141c5.114-7.16,9.946-12.659,15.079-17.042c11.293-9.642,24.047-13.883,44.48-18.524
	c65.142-14.798,134.723-31.105,204.137-41.879c47.06-7.305,94.389-15.404,141.198-13.573c37.485,1.465,74.171,8.043,111.345,20.722
	c12.649,4.314,25.028,10.504,37.651,17.461l21.044,14.819l3.926,3.985c4.84,4.913,7.643,4.335,14.218,2.997l47.177-9.594
	c14.253-10.37,28.823-20.364,44.132-28.862c12.684-7.041,25.877-13.055,39.818-17.404c5.737-9.553,11.887-22.053,17.059-32.834
	c3.903-8.136,7.833-15.038,9.442-19.47c0.954-2.626,1.421-4.689,1.484-6.342c0.117-3.09-2.194-4.419-4.934-7.151
	c-13.168-10.665-25.252-22.24-36.187-34.87c-20.171-23.298-36.439-50.192-48.421-81.611
	c-46.891-30.051-93.478-57.978-140.253-84.246c-115.041-64.603-231.22-119.163-355.85-170.562l-36.062-10.882
	c-39.984-5.817-79.929-9.811-119.89-12.856c-22.043-1.782-24.134-29.732-24.134-29.732L1680.736,37.465z"/>
</svg>
