<?xml version="1.0" encoding="utf-8"?>
<!-- Generator: Adobe Illustrator 22.1.0, SVG Export Plug-In . SVG Version: 6.00 Build 0)  -->
<svg version="1.1" id="Layer_1" xmlns="http://www.w3.org/2000/svg" xmlns:xlink="http://www.w3.org/1999/xlink" x="0px" y="0px"
	 width="1314.199px" height="599.811px" viewBox="0 0 1314.199 599.811" enable-background="new 0 0 1314.199 599.811"
	 xml:space="preserve">
<path id="T" fill="none" stroke="#000000" stroke-linejoin="round" stroke-miterlimit="10" d="M816.947,69.464
	c0.415-2.03,0.633-4.131,0.633-6.284c0-17.221-13.96-31.181-31.181-31.181c-17.221,0-31.181,13.96-31.181,31.181
	c0,0.811,0.031,1.614,0.092,2.409l0.01-0.001c0,0-11.769,26.858-41.571,23.558l-47.403-5.249L452.829,55.029L156.572,0L96.33,18.546
	L33.58,6.419L0,40.042L83.38,54.57l94.708,17.008c133.17,26.466,252.448,70.305,361.587,160.417
	c73.848,60.972,140.307,134.434,208.282,230.092c32.014,45.053,61.988,90.442,89.971,137.724l0,0l23.48-4.417
	c16.09-43.63,31.613-76.967,52.741-103.215c15.293-18.999,33.775-36.588,53.32-53.738c40.124-35.206,80.576-68.761,122.01-101.26
	c70.487-55.288,144.003-110.216,224.719-149.567L1118.357,58.308l-16.742-34.31c-30.168,21.446-57.003,39.514-84.95,53.384
	c-21.362,10.603-43.375,18.753-68.021,24.085l-11.861,2.105l-68.949-1.857l-17.222-1.053c-24.917-1.26-34.029-29.63-34.029-29.63
	L816.947,69.464z"/>
</svg>
