<?xml version="1.0" encoding="utf-8"?>
<!-- Generator: Adobe Illustrator 22.1.0, SVG Export Plug-In . SVG Version: 6.00 Build 0)  -->
<svg version="1.1" id="Layer_1" xmlns="http://www.w3.org/2000/svg" xmlns:xlink="http://www.w3.org/1999/xlink" x="0px" y="0px"
	 width="1314.199px" height="599.811px" viewBox="0 0 1314.199 599.811" enable-background="new 0 0 1314.199 599.811"
	 xml:space="preserve">
<path d="M1314.199,187.614c-80.716,39.351-154.232,94.279-224.719,149.567c-41.434,32.499-81.886,66.054-122.01,101.26
	c-19.545,17.15-38.027,34.739-53.32,53.738c-21.128,26.248-36.651,59.585-52.741,103.215l-23.48,4.417
	c-27.983-47.282-57.957-92.67-89.972-137.724c-67.975-95.658-134.434-169.12-208.282-230.092
	C430.536,141.883,311.258,98.044,178.088,71.578L83.38,54.57L0,40.042L33.58,6.419l62.75,12.127L156.572,0l296.257,55.029
	l213.517,28.868l110.896,12.28l90.592,5.538l68.949,1.857l7.639,29.573l10.923-2.482l-6.701-29.196
	c24.646-5.332,46.659-13.482,68.021-24.085c27.947-13.87,54.782-31.938,84.95-53.384l16.742,34.31L1314.199,187.614z"/>
</svg>
