<?xml version="1.0" encoding="utf-8"?>
<!-- Generator: Adobe Illustrator 22.1.0, SVG Export Plug-In . SVG Version: 6.00 Build 0)  -->
<svg version="1.1" id="Layer_1" xmlns="http://www.w3.org/2000/svg" xmlns:xlink="http://www.w3.org/1999/xlink" x="0px" y="0px"
	 width="2001.071px" height="686.743px" viewBox="0 0 2001.071 686.743" enable-background="new 0 0 2001.071 686.743"
	 xml:space="preserve">
<path id="Shape" d="M1207.754,585.461l-46.569,97.434c-189.539,1.744-378.679-11.024-567.405-27.446
	c-130.885-11.389-261.675-24.555-392.269-36.103l21.072-47.128c-41.044-45.208-77.252-86.137-108.624-130.691
	C69.563,378.478,33.166,313.176,0,237.392c29.444-17.419,58.582-36.364,87.788-55.587c35.249-23.201,70.597-46.81,106.703-68.636
	c36.84-22.269,74.274-32.486,117.589-32.111c42.815-2.089,85.554-4.487,128.256-7.191c182.488-11.553,363.412-35.586,545.603-47.576
	l74.313-5.987l158.852,170.862c-4.215,23.275-7.705,45.666-11.071,67.393c-6.538,42.209-10.783,82.256-12.531,122.442
	C1192.684,445.79,1196.729,510.325,1207.754,585.461z M1980.755,11.469c-133.688-4.851-268.342-4.813-403.343-4.678
	c-157.882,0.158-316.24,0.449-474.083-6.792c14.568,26.57,30.062,52.765,46.529,78.627c25.689,40.345,53.745,79.882,84.346,118.771
	c-17.536,72.285-24.79,141.527-24.092,210.29c0.636,62.605,7.864,124.813,19.926,188.555l-62.569,87.54
	c117.455,3.475,232.462,4.59,347.167-0.539c86.422-3.865,172.672-11.274,259.67-23.888c8.008-23.222,17.586-47.572,28.365-72.874
	c42.287-99.263,103.059-213.18,160.041-331.091c13.071-27.046,25.804-54.529,38.36-82.232
	C1994.802,119.181,1987.993,65.326,1980.755,11.469z"/>
</svg>
