<?xml version="1.0" encoding="utf-8"?>
<!-- Generator: Adobe Illustrator 22.1.0, SVG Export Plug-In . SVG Version: 6.00 Build 0)  -->
<svg version="1.1" id="Layer_1" xmlns="http://www.w3.org/2000/svg" xmlns:xlink="http://www.w3.org/1999/xlink" x="0px" y="0px"
	 width="2001.071px" height="744.848px" viewBox="0 0 2001.071 744.848" enable-background="new 0 0 2001.071 744.848"
	 xml:space="preserve">
<path id="K" fill="none" stroke="#000000" stroke-miterlimit="10" d="M1060.252,78.41l158.852,170.862
	c-4.215,23.275-7.705,45.666-11.071,67.393c-6.538,42.209-10.783,82.256-12.531,122.442c-2.818,64.789,1.227,129.324,12.252,204.46
	l-46.569,97.434 M1720.23,65.002c-39.986-0.158-80.021-0.157-120.09-0.125 M1167.469,741.888l62.569-87.539
	c-12.062-63.743-19.29-125.95-19.926-188.555c-0.699-68.763,6.555-138.006,24.092-210.29c-30.6-38.889-58.657-78.426-84.346-118.771
	c-16.467-25.862-31.961-52.057-46.529-78.627"/>
</svg>
