<?xml version="1.0" encoding="utf-8"?>
<!-- Generator: Adobe Illustrator 22.1.0, SVG Export Plug-In . SVG Version: 6.00 Build 0)  -->
<svg version="1.1" id="Layer_1" xmlns="http://www.w3.org/2000/svg" xmlns:xlink="http://www.w3.org/1999/xlink" x="0px" y="0px"
	 width="2001.071px" height="745.407px" viewBox="0 0 2001.071 745.407" enable-background="new 0 0 2001.071 745.407"
	 xml:space="preserve">
<path id="K" fill="none" stroke="#000000" stroke-miterlimit="10" d="M839.887,741.561l-46.569-97.434
	c11.025-75.136,15.07-139.671,12.252-204.46c-1.748-40.186-5.993-80.233-12.531-122.442c-3.366-21.727-6.856-44.119-11.071-67.393
	L940.819,78.969l0,0 M833.602,742.446L833.602,742.446l-62.569-87.539c12.062-63.743,19.29-125.95,19.926-188.555
	c0.699-68.763-6.555-138.006-24.091-210.29c30.6-38.889,58.657-78.426,84.346-118.771c16.467-25.862,31.961-52.057,46.529-78.627
	 M451.348,65.484c37.043,0.035,74.11,0.052,111.186-0.047"/>
</svg>
