<?xml version="1.0" encoding="utf-8"?>
<!-- Generator: Adobe Illustrator 21.0.2, SVG Export Plug-In . SVG Version: 6.00 Build 0)  -->
<svg version="1.1" id="Layer_1" xmlns="http://www.w3.org/2000/svg" xmlns:xlink="http://www.w3.org/1999/xlink" x="0px" y="0px"
	 width="2612.05px" height="2023.662px" viewBox="0 0 2612.05 2023.662" enable-background="new 0 0 2612.05 2023.662"
	 xml:space="preserve">
<path id="T" fill="none" stroke="#000000" stroke-linejoin="round" stroke-miterlimit="10" d="M1333.696,205.094
	c-31.796,118.251-131.737,275.371-225.878,298.441c-4.397,1.015-9.421,4.07-16.528,9.911c-22.35,18.359-59.61,48.969-59.61,48.969
	s-69.58,66.02-106.38,100.94c-6.934,6.579-11.667,11.225-14.666,14.805c-269.875,322.009-793.633,865.466-905.259,889.949
	c-8.163,0.838-6.344,5.879,0.875,22.916c4.4,8.27,9.31,17.49,13.63,25.6c4.798,9.899,7.916,15.562,11.471,19.099
	c3.487,5.922,3.897,11.152,1.23,15.688c-2.767,2.692,0.664,11.517,4.549,33.203c5.96,28.6,14.27,68.5,19.67,94.45
	c6.99,27.84,2.18,22.17,24.68,49.9c38.41,47.33,122.35,150.75,138.04,170.101c26.67,30.689,17.76,32.879,59.31,5.329
	c25.84-17.15,220.95-146.55,297.19-197.11c21.357-14.167,36.845-20.962,32.467-26.751l-0.024-0.032
	c2.055-7.495,8.227-12.583,18.517-15.266c57.15-3.539,123.62-38.475,219.171-105.042c112.16-70.11,312.22-183.96,448.07-260.13
	c138.26-84.66,135.18-84.45,263.37-31.19c59.76,23.12,154.24,61.7,268.59,115.47c46.1,21.68,47.58,22.04,61.799-24.79
	c23.95-58.87,87.94-211.03,137.301-300.62c5.789-9.469,9.918-15.762,11.709-20.293c22.839-61.269,234.223-219.748,398.477-358.763
	c5.784-3.745,13.212-12.359,25.386-22.951c36.36-31.631,88.42-76.93,108.03-93.991c27.958-24.324,46.333-35.383,42.715-43.954
	c-5.185-9.215-6.778-17.864-7.745-25.91c-0.655-3.379-6.345-10.951-22.876-26.533c-23.807-22.436-79.144-72.703-143.649-130.922
	c-10.356-11.842-16.325-26.148-16.887-38.787c-9.947-91.242-42.755-208.404-42.755-208.404L2188.835,0l0,0l-852.05,202.281
	c-1.626,0.361-2.642,1.235-3.067,2.732L1333.696,205.094z"/>
</svg>
