<?xml version="1.0" encoding="utf-8"?>
<!-- Generator: Adobe Illustrator 21.0.2, SVG Export Plug-In . SVG Version: 6.00 Build 0)  -->
<svg version="1.1" id="Layer_1" xmlns="http://www.w3.org/2000/svg" xmlns:xlink="http://www.w3.org/1999/xlink" x="0px" y="0px"
	 width="2612.05px" height="2023.662px" viewBox="0 0 2612.05 2023.662" enable-background="new 0 0 2612.05 2023.662"
	 xml:space="preserve">
<path id="Shape" d="M1621.668,246.387c0,0,178.703-100.403,300.453-128.735c141.681-32.969,194.22,29.772,194.22,29.772
	s389.468,348.279,464.634,419.115c44.082,41.551,11.076,26.148,11.076,26.148c-711.389-319.691-978.709-330.919-978.709-330.919
	C1578.783,263.14,1621.668,246.387,1621.668,246.387z M2420.439,396.831c-9.948-91.242-42.755-208.404-42.755-208.404L2188.835,0
	l-121.659,101.91C2096.484,81.915,2420.439,396.831,2420.439,396.831z M567.12,1768.026c-77.969-18.26-278.749-65.26-330.27-77.32
	c-94.5-23.24-128.92-29.39-174.92-36.16c-38.2-5.63-32.36-12.131-24.8,30.07c5.96,28.6,14.27,68.5,19.67,94.45
	c6.99,27.84,2.18,22.17,24.68,49.9c38.41,47.33,122.35,150.75,138.04,170.101c26.67,30.689,17.76,32.879,59.31,5.329
	c25.84-17.15,220.95-146.55,297.19-197.11C611.99,1783.426,631.31,1780.477,567.12,1768.026z M2547.57,596.018
	c-274.709-84.42-496.209-160.415-743.579-255.314c-124.8-47.871-271.94-86.268-405.61-122.148
	c-74.72-19.663-81.13-38.611-38.54,50.136c27.258,56.797,68.039,135.561,105.249,184.263c19.3,25.251,17.62,31.481,41.1-3.149
	c22.52-24.858,54.52-12.465,100.25-3.864c67.67,12.73,211.83,44.834,359.1,109.044c27.56,12.01,18.81,14.15,47.54,4.99
	c2.96-0.941,5.99-1.91,8.95-2.85c17.86-5.691,22.31-7.13,17.44-12.64c0.689,0.791-45.601-42.59-44.69-41.78
	c-46.05-41.005-126.11-99.772-237.31-134.068c97.45,29.011,146.78,43.047,306.65,173.998c58.47,41.65,9.601,62.37-27.7,90.46
	c-28.81,21.681-179.51,135.13-248.78,187.27c-39.92,30.05-41.14,25.27-2.13,44.48c10.06,5.59,21.15,11.76,31.3,17.391
	c38.34,21.319,25.13,25.47,59.5-1.38c43.08-33.65,135.72-103.46,239.08-165.55c71.38-42.88,46.59-35.69,128.101-19.26
	c45.16,9.101,100.67,21.89,130.09,34.851c25.3,8.09,32.989,16.4,40.67,32.169c15.68,32.23,18.49,18.32,46.6-6.139
	c36.36-31.631,88.42-76.93,108.03-93.991C2620.511,618.017,2639.461,618.337,2547.57,596.018z M2325,752.145
	c-24.28-10.55-57.38-24.58-81.53-33.58c-43.531-16.23-52.29-14.36-112.31,21.4c-62.46,37.63-131.561,84.53-171.48,112.15
	c-45.03,31.17-49.01,32.4-4.6,49.85c29.919,12.78,78.7,33.62,91.53,39.1c42.22,17.73,44.62,6.91,75.95-16.359
	c44.16-32.79,134.48-96.63,206.82-126.85C2370.57,780.645,2381.18,774.366,2325,752.145z M2002.759,1117.766
	c-97.32-30.38-361.31-106.69-497.33-145.851c-243.75-70.649-288.88-53.009-360.78-13.77c-36,19.62-79.35,47.4-86.04,61.72
	c-2.36,1.451-2.4,1.48-2.4,1.48l21.58,76.14c4.93,35.74-15.61,63.049-29.7,77.18c-14.56,14.61-17.68,9.67-37.22,5.95
	c-1.29-0.25-2.59-0.49-3.89-0.74c-37.31-7.11-22.1-11.34-52.52,11.4c-88.83,66.4-407.35,304.48-421.99,315.42
	c-23.49,17.56-17.66,9.2-19.02,35.18c-0.02,0.26-0.03,0.52-0.05,0.77c-1.28,21.2,3.03,23.55-15.58,36.99
	c-20.92,15.1-60.35,27.961-110.62,27.25c0,0-274.991-32.12-338.04-36.32c-5.748-0.38-11.109-0.72-16.039-1.029
	c-36.09-2.229-38.56-6.1-26.87,21.49c4.4,8.27,9.31,17.49,13.63,25.6c13.26,27.36,13.69,22.36,45.98,29.549
	c117.54,26.201,497.88,110.97,520.13,115.931c67.04,14.939,140.979-18.881,260.16-101.91c112.16-70.11,312.22-183.96,448.07-260.13
	c138.26-84.66,135.18-84.45,263.37-31.19c59.76,23.12,154.24,61.7,268.59,115.47c46.1,21.68,47.58,22.04,61.799-24.79
	c23.95-58.87,87.94-211.03,137.301-300.62C2044.56,1127.396,2045.439,1131.096,2002.759,1117.766z M2032.87,1025.076
	c-64.47-40.661-210.27-131.851-276.66-167.301c-12.539-6.69-16.15-11.019-29.18-6.22c-21.91,8.06-36.14,4.971-48.29-2.16
	c-7.61-4.461-145.72-85.45-209.47-122.84c-30.95-18.15-46.32-26.9-49.71-45.37c-5.18-24.43,6.78-23.059-33.32-41.62
	c-85.79-39.689-193.79-95.39-245.78-122.5c-25.14-13.109-27.21-21.669-49.17-3.619c-22.35,18.359-59.61,48.969-59.61,48.969
	s-69.58,66.02-106.38,100.94c-29.89,28.36-18.9,20.81-4.19,46.72c32.681,47.02,102.18,153.131,125.681,236.52
	c10.76,38.181,11.85,64.14,73.17,21.91c96.92-58.66,143.8-84.36,242.33-70.149c105.57,15.24,513.63,148.7,637.859,197.14
	c33.781,12.23,36.571,9.67,44.34-6.72c3.2-6.58,7.37-15.13,11.14-22.9C2067.76,1040.966,2072.93,1050.336,2032.87,1025.076z"/>
</svg>
