<?xml version="1.0" encoding="utf-8"?>
<!-- Generator: Adobe Illustrator 21.0.2, SVG Export Plug-In . SVG Version: 6.00 Build 0)  -->
<svg version="1.1" id="Layer_1" xmlns="http://www.w3.org/2000/svg" xmlns:xlink="http://www.w3.org/1999/xlink" x="0px" y="0px"
	 width="3317.228px" height="433.041px" viewBox="0 0 3317.228 433.041" enable-background="new 0 0 3317.228 433.041"
	 xml:space="preserve">
<path id="Shape" d="M3309.179,179.51c-6.99,14.406-15.429,31.815-22.97,47.366c-23.12,45.244-6.84,37.895-65.98,52.295
	c-139.1,33.866-547.39,133.277-580.61,141.367c-102.89,21.245-129.09,14.61-189.59-13.79c-63.63-24.442-159.32-61.2-174.44-67.008
	c-68.35-29.244-75.04-47.856-100.38-91.529c-4.53-7.803-9.48-16.337-14.66-25.258c-80.189-125.522-66.58-146.091-158.79-132.955
	c-60.69,3.516-156.75,9.082-208.36,12.071c-39.23,2.274-29.33,5.293-40.09-23.695c-5.44-17.963-17.449-41.673-43.99-58.717
	c-25.039-16.078-58.469-20.921,0.369-19.389c112.15,0.795,397.08,2.813,502.42,3.56c59.919-0.519,55.939-2.169,82.939,37.353
	c2.49,3.643,5.21,7.611,8.28,11.926c36.621,51.502,102.971,144.81,112.321,157.952c21.09,29.656,25.43,61.349,81.33,54.504
	c112.75-12.216,557.22-61.495,770.58-104.028C3311.619,152.751,3328.809,143.646,3309.179,179.51z M1607.54,0.268
	c-112.15,0.795-397.08,2.813-502.42,3.56c-59.92-0.52-55.94-2.17-82.94,37.353c-2.49,3.644-5.21,7.611-8.28,11.926
	c-36.62,51.501-102.97,144.81-112.32,157.952c-21.08,29.656-25.42,61.349-81.331,54.504
	c-112.75-12.217-557.22-61.495-770.58-104.028c-44.06-8.785-61.25-17.89-41.62,17.975c6.992,14.406,15.432,31.815,22.971,47.366
	c23.12,45.244,6.84,37.896,65.98,52.295c139.1,33.866,547.39,133.277,580.61,141.367c102.89,21.245,129.09,14.61,189.59-13.79
	c63.631-24.442,159.33-61.2,174.44-67.008c68.35-29.244,75.04-47.856,100.38-91.529c4.53-7.803,9.479-16.337,14.66-25.258
	c80.189-125.522,66.59-146.091,158.8-132.955c60.68,3.516,156.75,9.082,208.36,12.071c39.22,2.273,29.32,5.293,40.081-23.695
	c5.44-17.963,17.45-41.673,43.999-58.717C1632.95,3.579,1666.381-1.264,1607.54,0.268z"/>
</svg>
