<?xml version="1.0" encoding="utf-8"?>
<!-- Generator: Adobe Illustrator 21.0.2, SVG Export Plug-In . SVG Version: 6.00 Build 0)  -->
<svg version="1.1" id="Layer_1" xmlns="http://www.w3.org/2000/svg" xmlns:xlink="http://www.w3.org/1999/xlink" x="0px" y="0px"
	 width="6227.847px" height="2496.353px" viewBox="0 0 6227.847 2496.353" enable-background="new 0 0 6227.847 2496.353"
	 xml:space="preserve">
<path id="Shape" d="M4310.26,626.7l143.126-377.163c0.869-2.284,2.834-3.974,5.227-4.488l143.491-30.77
	c5.614-1.205,10.313,4.318,8.225,9.665l-152.954,391.812c-0.965,2.474-3.214,4.214-5.851,4.533l-133.664,16.124
	C4312.48,637.061,4308.337,631.766,4310.26,626.7z M4642.566,102.041c3.809,2.344,8.808,0.688,10.469-3.464L4692.436,0
	l-149.17,39.533c0,0-20.042,17.649-23.748,45.945c20.81-5.304,70.078-16.025,70.078-16.025L4642.566,102.041z M4717.144,677.997
	l-274.486,44.998l-22.498-18l-69.662,16.718c-3.422,0.824-7.032,0.288-10.068-1.49l-50.09-29.321
	c-3.43-2.009-7.841-0.336-9.075,3.444l-143.112,438.099c-0.945,2.892-0.667,6.045,0.771,8.728l15.708,29.324
	c2.608,4.869,8.39,7.094,13.591,5.229l65.126-23.345c3.346-1.2,5.916-3.919,6.929-7.324l26.887-90.579l33-25.5l86.995-265.485
	l271.488-38.998L4717.144,677.997z M3706.235,394.341c0,0,306.998-172,336-188.001c28.999-15.999,70.999-24.999,70.999-24.999
	s261-32.001,283.999-36c23.002-4,17.002,21.999,17.002,21.999s-41.002,107.001-72,163.001c-21.85,39.468-72.01,72.477-99.72,88.528
	c-4.047,2.343-1.995,8.544,2.652,8.026l117.036-13.044c3.689-0.312,6.873-2.705,8.198-6.161l135.588-353.287
	c1.935-5.045-2.153-10.351-7.524-9.754c-75.043,8.345-484.253,53.784-504.23,54.692c-22.001,1-58.001,13.999-58.001,13.999
	l-840,338.001c0,0,373.001-9,459-15S3706.235,394.341,3706.235,394.341z M4642.148,740.993L4406.66,778.49l-71.995,218.991
	L4642.148,740.993z M3276.234,960.341c-3.523-37.868-22.555-155.614-27.048-183.183c-0.53-3.245-3.54-5.472-6.797-5.037
	l-54.156,7.219c0,0-169.001,88.001-255,138c-76.111,44.253-368.412,242.81-434.613,287.882c-5.007,3.406-3.454,11.158,2.479,12.375
	l486.134,99.744c0,0,69,18,121.001,46c51.998,27.999,151.999,78.999,151.999,78.999s10.001,8.001,34.001,4.001
	c24-4.001,195.998-52.001,211.999-56c16.001-4,463.999-104.001,463.999-104.001l71.002-79.999c0,0,30-51,45.998-90
	c14.628-35.655,224-562.762,259.81-652.928c1.116-2.808-2.45-5.1-4.546-2.923c-26.539,27.547-100.528,103.613-136.262,132.85
	c-44.002,36-101.002,78-101.002,78s-15,12-31.999,16.001c-15.125,3.559-106.238,18.991-126.153,22.351
	c-2.472,0.417-4.676,1.781-6.159,3.799l-152.047,207.166c-3.684,5.016-8.731,8.865-14.544,11.09l-153.096,58.594
	c0,0-23.002,9-91.001,10.999c-67.999,2.001-219,1.001-219,1.001S3280.232,1003.341,3276.234,960.341z M3345.635,929.64
	l66.792-13.517c5.589-1.13,10.399-4.654,13.164-9.641l43.077-77.707c2.247-4.054,6.257-6.826,10.844-7.495l88.72-12.939
	c0,0,62.811-3.59,67.738-43.915c0.446-3.641-2.592-6.751-6.23-6.309c-45.281,5.503-261.332,32.764-304.856,38.258
	c-4.2,0.53-7.137,4.409-6.511,8.597l17.597,117.893C3336.656,927.473,3341.065,930.564,3345.635,929.64z M4290.234,333.341
	c26.95-37.056,59.575-108.159,69.202-129.677c1.284-2.873-0.963-6.067-4.1-5.83c-29.347,2.225-145.826,12.327-223.101,37.507
	c-75.442,24.581-245.002,129.634-294.919,161.074c-3.68,2.318-1.796,8.009,2.539,7.685l345.379-25.759
	C4185.234,378.341,4258.235,377.34,4290.234,333.341z M4691.67,1083.029c-91.318,25.382-266.002,66-266.002,66l-124.807-56.031
	l-32.215,7.083l-11.539,53.692l-103.102,37.071l-32.335-43.817l-52.001,62.002l-68.4,75.492c0,0-72.885,99.957-158.964,171.528
	c-72.254,60.076-391.411,324.556-492.067,407.961c-9.49,7.863-3.276,23.263,9.01,22.349l304.42-29.33l-378.679,57.29
	c0,0-10.625,21.703-12.165,75.684c-1.544,53.976,15.763,78.48,15.763,78.48l431.083-55.454l-396.835,79.694
	c-9.202,1.994-13.078,12.979-7.167,20.304l242.098,299.952c12.37,15.324,30.634,24.713,50.292,25.853l953.59,57.506
	c7.706,0.447,11.678-9.055,5.947-14.227L4061.73,2018.63c-21.95-20.109-25.502-53.414-8.287-77.705l261.756-369.324
	c118.845-167.685,321.199-400.605,384.446-476.208C4704.498,1089.59,4698.959,1081.003,4691.67,1083.029z M1562.233,675.341
	c0,0-20.666,0-28.665,10.668c-7.073,9.427-89.676,111.58-108.754,135.163c-2.561,3.165-4.224,6.962-4.819,10.992l-16.051,109.214
	c-0.953,6.471,2.762,12.723,8.899,14.981l901.608,331.865c5.544,2.037,11.717,1.339,16.656-1.899
	c57.941-37.944,420.348-274.932,530.63-338.342c119.995-68.998,319.486-172.49,319.486-172.49l895.454-116.996l197.991-172.49
	c0,0,16.972-14.549,20.4-32.748c0.604-3.209-2.004-6.125-5.264-5.964l-1557.571,76.046c0,0-300,2-607.999,54
	C1816.235,629.34,1562.233,675.341,1562.233,675.341z M6224.816,734.954l-44.224-27.691c-1.342-0.842-2.945-1.159-4.505-0.893
	l-80.789,13.731c0,0-34.968-15.401-48.446-46.616c-13.479-31.214-16.397-43.024-16.397-43.024L6182.8,388.699
	c3.194-5.069-0.898-11.58-6.85-10.898c-43.466,4.977-171.156,19.096-226.486,19.677c-56.004,0.588-182.551-4.646-223.245-6.41
	c-8.405-0.363-16.726,1.74-23.95,6.055l-120.533,71.99c0,0-40.646,21.908-103.115,33.632
	c-58.033,10.888-473.914,89.82-532.745,100.987c-4.493,0.852-8.583,3.137-11.664,6.513l-8.616,9.428l-0.053-0.029l-68.275,63.821
	l-473.655,381.667c-8.993,7.248-7.094,21.449,3.487,26.073l38.885,17.002c3.715,1.625,7.855,2.002,11.803,1.075l689.592-162.041
	c4.337-1.02,8.83-1.195,13.232-0.516l223.872,34.512c6.261,0.912,12.653,0.279,18.614-1.845l51.372-18.305
	c75.101-23.582,269.066-84.437,353.398-110.426c92.33-28.452,366.77-89.031,434.911-103.942
	C6228.421,745.483,6229.712,738.021,6224.816,734.954z M3237.45,1919.249L1440.5,2095.973c-4.864,0.477-7.91,5.486-6.091,10.024
	c7.155,17.844,23.256,57.07,32.398,71.926c12,19.498,113.995,25.498,113.995,25.498l1649.182-134.324
	c4.713-0.384,8.412-4.2,8.647-8.925l6.672-133.44C3245.524,1922.361,3241.806,1918.819,3237.45,1919.249z M1398.234,789.341
	c0.425,12.348,19.075,4.149,28.075-4.851c9-8.997,53.998-58.495,70.498-86.995c16.497-28.498,56.995-38.998,56.995-38.998
	s446.978-106.495,487.476-115.495c40.5-8.997,79.498-32.997,79.498-32.997l80.995-53.998c0,0-140.993-35.998-224.991-59.998
	c-83.992-23.997-180.547-32.668-180.547-32.668s-279.998-28.001-343.999-36c-64.001-8-55.999,40-55.999,40L1398.234,789.341z
	 M1466.807,1988.93c25.5,12,49.498,18,49.498,18s20.999,1.5,52.497-1.5c31.5-3,1667.916-136.493,1667.916-136.493
	s33,1.5,71.998-28.497c34.36-26.434,501.876-392.868,612.583-479.647c5.714-4.479,1.428-13.596-5.669-12.065l-603.914,130.229
	c0,0-62.998,10.5-104.996-10.5c-41.997-20.998-176.99-107.996-176.99-107.996s-28.5-15-52.498-19.497
	c-21.662-4.061-398.908-82.661-472.197-97.937c-7.887-1.644-16.097-0.19-22.942,4.058l-137.618,85.373
	c-8.645,5.362-19.291,6.408-28.815,2.827l-929.232-349.368c-8.584-3.228-17.87,2.648-18.626,11.787l-47.986,578.748
	c0,0-9,52.495,17.998,113.993c27,61.497,95.995,268.488,95.995,268.488S1441.309,1976.93,1466.807,1988.93z M1332.143,634.802
	c1.809-25.937-19.627-63.518-19.627-63.518l-76.731-20.434c-8.765-2.335-8.376-14.901,0.514-16.689l45.36-9.137L997.451,302.081
	c-2.955-2.319-6.867-3.024-10.447-1.887l-77.945,24.811c-6.37,2.026-10.368-6.724-4.668-10.214l65.366-39.984
	c4.671-2.858,5.628-9.242,2.002-13.344L869.548,145.872c-2.542-2.875-6.552-3.955-10.193-2.743l-54.331,18.062
	c-5.158,1.716-7.856,7.373-5.94,12.461l18.952,50.313c3.046,8.088-7.946,13.884-12.897,6.8l-39.017-55.822
	c-3.07-4.397-8.045-7.073-13.404-7.21l-517.956-13.334c-7.517-0.192-10.965,9.286-5.081,13.966L434.768,331.55
	c13.145,10.459,13.899,30.163,1.592,41.595l-216.046,200.68c-8.866,8.237-19.726,14.019-31.509,16.776L85.48,614.784
	c-11.362,2.659-21.932,7.98-30.833,15.521L2.766,674.249c-5.681,4.812-1.99,14.085,5.443,13.668
	c85.419-4.803,380.453-21.26,421.57-21.816c48.163-0.651,135.115,17.443,135.115,17.443l325.524,92.894
	c12.139,3.466,24.936,3.939,37.298,1.38l373.832-77.381c12.528-2.594,22.293-12.448,24.732-25.008
	C1328.639,663.285,1331.233,647.837,1332.143,634.802z"/>
</svg>
