<?xml version="1.0" encoding="utf-8"?>
<!-- Generator: Adobe Illustrator 24.1.0, SVG Export Plug-In . SVG Version: 6.00 Build 0)  -->
<svg version="1.1" id="Layer_1" xmlns="http://www.w3.org/2000/svg" xmlns:xlink="http://www.w3.org/1999/xlink" x="0px" y="0px"
	 width="1351.063px" height="848.928px" viewBox="0 0 1351.063 848.928" enable-background="new 0 0 1351.063 848.928"
	 xml:space="preserve">
<path id="K" fill="none" stroke="#000000" stroke-linejoin="round" stroke-miterlimit="10" d="M428.923,763.9
	c-13.947,9.442-27.881,18.902-41.798,28.386c-9.869,6.725-19.35,14.018-29.069,20.968c-8.327,5.955-16.604,11.996-25.165,17.6
	c-4.727,3.095-10.018,5.017-15.983,4.6 M287.096,470.954c0.016-0.019,0.031-0.038,0.047-0.057h22.805c0.825,0,1.5,0.675,1.5,1.5
	s-0.675,1.5-1.5,1.5h-25.305C285.462,472.916,286.284,471.937,287.096,470.954z M436.52,294.618h21.426c0.825,0,1.5,0.675,1.5,1.5
	s-0.675,1.5-1.5,1.5h-24.187C434.677,296.615,435.597,295.615,436.52,294.618z M1313.426,41.465c0,0.825-0.675,1.5-1.5,1.5h-25.373
	c-0.825,0-1.5-0.675-1.5-1.5s0.675-1.5,1.5-1.5h25.373C1312.751,39.965,1313.426,40.64,1313.426,41.465z M1284.053,173.139
	c0-0.825,0.675-1.5,1.5-1.5h25.373c0.825,0,1.5,0.675,1.5,1.5s-0.675,1.5-1.5,1.5h-25.373
	C1284.728,174.639,1284.053,173.964,1284.053,173.139z M1285.553,224.309h25.373c0.825,0,1.5,0.675,1.5,1.5s-0.675,1.5-1.5,1.5
	h-25.373c-0.825,0-1.5-0.675-1.5-1.5S1284.728,224.309,1285.553,224.309z M1284.303,94.135c0-0.825,0.675-1.5,1.5-1.5h25.373
	c0.825,0,1.5,0.675,1.5,1.5s-0.675,1.5-1.5,1.5h-25.373C1284.978,95.635,1284.303,94.96,1284.303,94.135z M1284.803,120.469
	c0-0.825,0.675-1.5,1.5-1.5h25.373c0.825,0,1.5,0.675,1.5,1.5s-0.675,1.5-1.5,1.5h-25.373
	C1285.478,121.969,1284.803,121.294,1284.803,120.469z M1310.176,66.3c0.825,0,1.5,0.675,1.5,1.5s-0.675,1.5-1.5,1.5h-25.373
	c-0.825,0-1.5-0.675-1.5-1.5s0.675-1.5,1.5-1.5H1310.176z M1284.803,276.978h25.373c0.825,0,1.5,0.675,1.5,1.5s-0.675,1.5-1.5,1.5
	h-25.373c-0.825,0-1.5-0.675-1.5-1.5S1283.978,276.978,1284.803,276.978z M1286.553,253.643c-0.825,0-1.5-0.675-1.5-1.5
	s0.675-1.5,1.5-1.5h25.373c0.825,0,1.5,0.675,1.5,1.5s-0.675,1.5-1.5,1.5H1286.553z M1311.926,200.974h-25.373
	c-0.825,0-1.5-0.675-1.5-1.5s0.675-1.5,1.5-1.5h25.373c0.825,0,1.5,0.675,1.5,1.5S1312.751,200.974,1311.926,200.974z
	 M1312.676,148.304h-25.373c-0.825,0-1.5-0.675-1.5-1.5s0.675-1.5,1.5-1.5h25.373c0.825,0,1.5,0.675,1.5,1.5
	S1313.501,148.304,1312.676,148.304z M1186.555,67.124h25.373c0.825,0,1.5,0.675,1.5,1.5s-0.675,1.5-1.5,1.5h-25.373
	c-0.825,0-1.5-0.675-1.5-1.5S1185.73,67.124,1186.555,67.124z M1185.805,42.289c0-0.826,0.675-1.5,1.5-1.5h25.373
	c0.825,0,1.5,0.675,1.5,1.5s-0.675,1.5-1.5,1.5h-25.373C1186.48,43.789,1185.805,43.114,1185.805,42.289z M1186.555,93.458h25.373
	c0.825,0,1.5,0.675,1.5,1.5s-0.675,1.5-1.5,1.5h-25.373c-0.825,0-1.5-0.675-1.5-1.5C1185.055,94.132,1185.73,93.458,1186.555,93.458
	z M1212.678,228.131h-25.373c-0.825,0-1.5-0.675-1.5-1.5s0.675-1.5,1.5-1.5h25.373c0.825,0,1.5,0.675,1.5,1.5
	S1213.503,228.131,1212.678,228.131z M1214.178,252.966c0,0.825-0.675,1.5-1.5,1.5h-25.373c-0.825,0-1.5-0.675-1.5-1.5
	s0.675-1.5,1.5-1.5h25.373C1213.503,251.466,1214.178,252.141,1214.178,252.966z M1212.678,201.797h-25.373
	c-0.825,0-1.5-0.675-1.5-1.5s0.675-1.5,1.5-1.5h25.373c0.825,0,1.5,0.675,1.5,1.5S1213.503,201.797,1212.678,201.797z
	 M1212.678,175.462h-25.373c-0.825,0-1.5-0.674-1.5-1.5c0-0.825,0.675-1.5,1.5-1.5h25.373c0.825,0,1.5,0.675,1.5,1.5
	S1213.503,175.462,1212.678,175.462z M1186.555,277.801h25.373c0.825,0,1.5,0.675,1.5,1.5s-0.675,1.5-1.5,1.5h-25.373
	c-0.825,0-1.5-0.675-1.5-1.5S1185.73,277.801,1186.555,277.801z M1186.555,304.136h25.373c0.825,0,1.5,0.675,1.5,1.5
	s-0.675,1.5-1.5,1.5h-25.373c-0.825,0-1.5-0.675-1.5-1.5S1185.73,304.136,1186.555,304.136z M1187.305,383.14h25.373
	c0.825,0,1.5,0.675,1.5,1.5s-0.675,1.5-1.5,1.5h-25.373c-0.825,0-1.5-0.675-1.5-1.5S1186.48,383.14,1187.305,383.14z
	 M1213.428,359.805h-25.373c-0.825,0-1.5-0.675-1.5-1.5s0.675-1.5,1.5-1.5h25.373c0.825,0,1.5,0.675,1.5,1.5
	S1214.253,359.805,1213.428,359.805z M1213.428,333.471h-25.373c-0.825,0-1.5-0.675-1.5-1.5s0.675-1.5,1.5-1.5h25.373
	c0.825,0,1.5,0.675,1.5,1.5S1214.253,333.471,1213.428,333.471z M1213.428,149.127h-25.373c-0.825,0-1.5-0.675-1.5-1.5
	s0.675-1.5,1.5-1.5h25.373c0.825,0,1.5,0.675,1.5,1.5S1214.253,149.127,1213.428,149.127z M1213.428,122.793h-25.373
	c-0.825,0-1.5-0.675-1.5-1.5s0.675-1.5,1.5-1.5h25.373c0.825,0,1.5,0.675,1.5,1.5S1214.253,122.793,1213.428,122.793z
	 M1260.926,82.467h-25.373c-0.825,0-1.5-0.675-1.5-1.5s0.675-1.5,1.5-1.5h25.373c0.825,0,1.5,0.675,1.5,1.5
	S1261.751,82.467,1260.926,82.467z M1263.678,108.126c0,0.825-0.675,1.5-1.5,1.5h-25.373c-0.825,0-1.5-0.675-1.5-1.5
	s0.675-1.5,1.5-1.5h25.373C1263.003,106.626,1263.678,107.3,1263.678,108.126z M1262.928,214.964h-25.373
	c-0.825,0-1.5-0.675-1.5-1.5s0.675-1.5,1.5-1.5h25.373c0.825,0,1.5,0.675,1.5,1.5S1263.753,214.964,1262.928,214.964z
	 M1263.176,238.976c0,0.825-0.675,1.5-1.5,1.5h-25.373c-0.825,0-1.5-0.675-1.5-1.5s0.675-1.5,1.5-1.5h25.373
	C1262.501,237.476,1263.176,238.151,1263.176,238.976z M1261.676,187.807h-25.373c-0.825,0-1.5-0.675-1.5-1.5s0.675-1.5,1.5-1.5
	h25.373c0.825,0,1.5,0.675,1.5,1.5S1262.501,187.807,1261.676,187.807z M1235.553,133.637c0-0.825,0.675-1.5,1.5-1.5h25.373
	c0.825,0,1.5,0.675,1.5,1.5s-0.675,1.5-1.5,1.5h-25.373C1236.228,135.137,1235.553,134.462,1235.553,133.637z M1262.928,56.956
	h-25.373c-0.825,0-1.5-0.675-1.5-1.5s0.675-1.5,1.5-1.5h25.373c0.825,0,1.5,0.675,1.5,1.5S1263.753,56.956,1262.928,56.956z
	 M1261.676,29.798h-25.373c-0.825,0-1.5-0.675-1.5-1.5s0.675-1.5,1.5-1.5h25.373c0.825,0,1.5,0.675,1.5,1.5
	S1262.501,29.798,1261.676,29.798z M1235.553,290.146h25.373c0.825,0,1.5,0.675,1.5,1.5s-0.675,1.5-1.5,1.5h-25.373
	c-0.825,0-1.5-0.675-1.5-1.5S1234.728,290.146,1235.553,290.146z M1236.805,317.303h25.373c0.825,0,1.5,0.675,1.5,1.5
	s-0.675,1.5-1.5,1.5h-25.373c-0.825,0-1.5-0.675-1.5-1.5S1235.98,317.303,1236.805,317.303z M1237.053,342.815h25.373
	c0.825,0,1.5,0.675,1.5,1.5s-0.675,1.5-1.5,1.5h-25.373c-0.825,0-1.5-0.675-1.5-1.5S1236.228,342.815,1237.053,342.815z
	 M1262.928,267.634h-25.373c-0.825,0-1.5-0.675-1.5-1.5s0.675-1.5,1.5-1.5h25.373c0.825,0,1.5,0.675,1.5,1.5
	S1263.753,267.634,1262.928,267.634z M1263.678,162.294h-25.373c-0.825,0-1.5-0.675-1.5-1.5s0.675-1.5,1.5-1.5h25.373
	c0.825,0,1.5,0.675,1.5,1.5S1264.503,162.294,1263.678,162.294z M1137.055,54.779h25.373c0.825,0,1.5,0.675,1.5,1.5
	s-0.675,1.5-1.5,1.5h-25.373c-0.825,0-1.5-0.675-1.5-1.5S1136.23,54.779,1137.055,54.779z M1135.555,29.944
	c0-0.825,0.675-1.5,1.5-1.5h25.373c0.825,0,1.5,0.675,1.5,1.5s-0.675,1.5-1.5,1.5h-25.373
	C1136.23,31.444,1135.555,30.769,1135.555,29.944z M1136.305,81.114h25.373c0.825,0,1.5,0.675,1.5,1.5s-0.675,1.5-1.5,1.5h-25.373
	c-0.825,0-1.5-0.675-1.5-1.5S1135.48,81.114,1136.305,81.114z M1136.305,107.448h25.373c0.825,0,1.5,0.675,1.5,1.5
	s-0.675,1.5-1.5,1.5h-25.373c-0.825,0-1.5-0.675-1.5-1.5S1135.48,107.448,1136.305,107.448z M1162.428,242.122h-25.373
	c-0.825,0-1.5-0.675-1.5-1.5s0.675-1.5,1.5-1.5h25.373c0.825,0,1.5,0.675,1.5,1.5S1163.253,242.122,1162.428,242.122z
	 M1163.928,266.957c0,0.825-0.675,1.5-1.5,1.5h-25.373c-0.825,0-1.5-0.675-1.5-1.5s0.675-1.5,1.5-1.5h25.373
	C1163.253,265.457,1163.928,266.132,1163.928,266.957z M1162.428,215.788h-25.373c-0.825,0-1.5-0.675-1.5-1.5s0.675-1.5,1.5-1.5
	h25.373c0.825,0,1.5,0.675,1.5,1.5S1163.253,215.788,1162.428,215.788z M1162.428,189.453h-25.373c-0.825,0-1.5-0.675-1.5-1.5
	s0.675-1.5,1.5-1.5h25.373c0.825,0,1.5,0.675,1.5,1.5S1163.253,189.453,1162.428,189.453z M1136.305,291.792h25.373
	c0.825,0,1.5,0.675,1.5,1.5s-0.675,1.5-1.5,1.5h-25.373c-0.825,0-1.5-0.675-1.5-1.5S1135.48,291.792,1136.305,291.792z
	 M1136.305,318.126h25.373c0.825,0,1.5,0.675,1.5,1.5s-0.675,1.5-1.5,1.5h-25.373c-0.825,0-1.5-0.674-1.5-1.5
	C1134.805,318.801,1135.48,318.126,1136.305,318.126z M1137.055,397.13h25.373c0.825,0,1.5,0.675,1.5,1.5s-0.675,1.5-1.5,1.5
	h-25.373c-0.825,0-1.5-0.675-1.5-1.5S1136.23,397.13,1137.055,397.13z M1163.178,373.796h-25.373c-0.825,0-1.5-0.675-1.5-1.5
	s0.675-1.5,1.5-1.5h25.373c0.825,0,1.5,0.675,1.5,1.5S1164.003,373.796,1163.178,373.796z M1163.178,347.461h-25.373
	c-0.825,0-1.5-0.675-1.5-1.5s0.675-1.5,1.5-1.5h25.373c0.825,0,1.5,0.675,1.5,1.5S1164.003,347.461,1163.178,347.461z
	 M1163.178,163.118h-25.373c-0.825,0-1.5-0.675-1.5-1.5s0.675-1.5,1.5-1.5h25.373c0.825,0,1.5,0.675,1.5,1.5
	S1164.003,163.118,1163.178,163.118z M1163.178,136.783h-25.373c-0.825,0-1.5-0.675-1.5-1.5s0.675-1.5,1.5-1.5h25.373
	c0.825,0,1.5,0.675,1.5,1.5S1164.003,136.783,1163.178,136.783z M1063.803,349.93h-25.373c-0.825,0-1.5-0.675-1.5-1.5
	s0.675-1.5,1.5-1.5h25.373c0.825,0,1.5,0.675,1.5,1.5S1064.628,349.93,1063.803,349.93z M1065.303,373.119
	c0,0.825-0.675,1.5-1.5,1.5h-25.373c-0.825,0-1.5-0.675-1.5-1.5s0.675-1.5,1.5-1.5h25.373
	C1064.628,371.619,1065.303,372.294,1065.303,373.119z M1063.053,244.591h-25.373c-0.825,0-1.5-0.675-1.5-1.5s0.675-1.5,1.5-1.5
	h25.373c0.825,0,1.5,0.675,1.5,1.5S1063.878,244.591,1063.053,244.591z M1064.553,267.78c0,0.825-0.675,1.5-1.5,1.5h-25.373
	c-0.825,0-1.5-0.675-1.5-1.5s0.675-1.5,1.5-1.5h25.373C1063.878,266.28,1064.553,266.955,1064.553,267.78z M1063.053,163.941
	h-25.373c-0.825,0-1.5-0.675-1.5-1.5s0.675-1.5,1.5-1.5h25.373c0.825,0,1.5,0.675,1.5,1.5S1063.878,163.941,1063.053,163.941z
	 M1036.93,188.921h25.373c0.825,0,1.5,0.675,1.5,1.5s-0.675,1.5-1.5,1.5h-25.373c-0.825,0-1.5-0.675-1.5-1.5
	S1036.105,188.921,1036.93,188.921z M1036.93,213.61h25.373c0.825,0,1.5,0.675,1.5,1.5s-0.675,1.5-1.5,1.5h-25.373
	c-0.825,0-1.5-0.675-1.5-1.5S1036.105,213.61,1036.93,213.61z M1036.93,294.26h25.373c0.825,0,1.5,0.675,1.5,1.5s-0.675,1.5-1.5,1.5
	h-25.373c-0.825,0-1.5-0.675-1.5-1.5S1036.105,294.26,1036.93,294.26z M1063.053,139.252h-25.373c-0.825,0-1.5-0.675-1.5-1.5
	s0.675-1.5,1.5-1.5h25.373c0.825,0,1.5,0.675,1.5,1.5S1063.878,139.252,1063.053,139.252z M1036.93,55.602h25.373
	c0.825,0,1.5,0.675,1.5,1.5s-0.675,1.5-1.5,1.5h-25.373c-0.825,0-1.5-0.675-1.5-1.5S1036.105,55.602,1036.93,55.602z
	 M1035.43,32.413c0-0.825,0.675-1.5,1.5-1.5h25.373c0.825,0,1.5,0.675,1.5,1.5c0,0.825-0.675,1.5-1.5,1.5h-25.373
	C1036.105,33.913,1035.43,33.238,1035.43,32.413z M1036.18,83.583h25.373c0.825,0,1.5,0.675,1.5,1.5s-0.675,1.5-1.5,1.5h-25.373
	c-0.825,0-1.5-0.675-1.5-1.5C1034.68,84.257,1035.355,83.583,1036.18,83.583z M1036.18,108.271h25.373c0.825,0,1.5,0.675,1.5,1.5
	s-0.675,1.5-1.5,1.5h-25.373c-0.825,0-1.5-0.675-1.5-1.5C1034.68,108.946,1035.355,108.271,1036.18,108.271z M1036.93,318.95h25.373
	c0.825,0,1.5,0.675,1.5,1.5s-0.675,1.5-1.5,1.5h-25.373c-0.825,0-1.5-0.675-1.5-1.5S1036.105,318.95,1036.93,318.95z M1037.68,399.6
	h25.373c0.825,0,1.5,0.675,1.5,1.5s-0.675,1.5-1.5,1.5h-25.373c-0.825,0-1.5-0.675-1.5-1.5S1036.855,399.6,1037.68,399.6z
	 M1037.68,424.289h25.373c0.825,0,1.5,0.675,1.5,1.5s-0.675,1.5-1.5,1.5h-25.373c-0.825,0-1.5-0.675-1.5-1.5
	S1036.855,424.289,1037.68,424.289z M1039.18,455.727h25.373c0.825,0,1.5,0.675,1.5,1.5s-0.675,1.5-1.5,1.5h-25.373
	c-0.825,0-1.5-0.675-1.5-1.5S1038.355,455.727,1039.18,455.727z M937.18,482.739c0-0.825,0.675-1.5,1.5-1.5h25.373
	c0.825,0,1.5,0.675,1.5,1.5s-0.675,1.5-1.5,1.5H938.68C937.855,484.239,937.18,483.564,937.18,482.739z M937.18,161.764h25.373
	c0.825,0,1.5,0.675,1.5,1.5s-0.675,1.5-1.5,1.5H937.18c-0.825,0-1.5-0.675-1.5-1.5S936.355,161.764,937.18,161.764z M935.68,136.106
	c0-0.825,0.675-1.5,1.5-1.5h25.373c0.825,0,1.5,0.675,1.5,1.5s-0.675,1.5-1.5,1.5H937.18
	C936.355,137.606,935.68,136.931,935.68,136.106z M962.553,242.945H937.18c-0.825,0-1.5-0.675-1.5-1.5s0.675-1.5,1.5-1.5h25.373
	c0.825,0,1.5,0.675,1.5,1.5S963.378,242.945,962.553,242.945z M964.053,268.603c0,0.825-0.675,1.5-1.5,1.5H937.18
	c-0.825,0-1.5-0.675-1.5-1.5s0.675-1.5,1.5-1.5h25.373C963.378,267.103,964.053,267.778,964.053,268.603z M936.43,187.276h25.373
	c0.825,0,1.5,0.675,1.5,1.5s-0.675,1.5-1.5,1.5H936.43c-0.825,0-1.5-0.675-1.5-1.5S935.605,187.276,936.43,187.276z M936.43,214.433
	h25.373c0.825,0,1.5,0.675,1.5,1.5s-0.675,1.5-1.5,1.5H936.43c-0.825,0-1.5-0.675-1.5-1.5S935.605,214.433,936.43,214.433z
	 M936.43,292.615h25.373c0.825,0,1.5,0.675,1.5,1.5s-0.675,1.5-1.5,1.5H936.43c-0.825,0-1.5-0.675-1.5-1.5
	S935.605,292.615,936.43,292.615z M964.803,346.784c0,0.825-0.675,1.5-1.5,1.5H937.93c-0.825,0-1.5-0.675-1.5-1.5s0.675-1.5,1.5-1.5
	h25.373C964.128,345.284,964.803,345.959,964.803,346.784z M937.93,372.442h25.373c0.825,0,1.5,0.675,1.5,1.5s-0.675,1.5-1.5,1.5
	H937.93c-0.825,0-1.5-0.675-1.5-1.5S937.105,372.442,937.93,372.442z M965.553,455.581c0,0.825-0.675,1.5-1.5,1.5H938.68
	c-0.825,0-1.5-0.675-1.5-1.5s0.675-1.5,1.5-1.5h25.373C964.878,454.081,965.553,454.756,965.553,455.581z M961.803,29.267
	c0.825,0,1.5,0.675,1.5,1.5s-0.675,1.5-1.5,1.5H936.43c-0.825,0-1.5-0.675-1.5-1.5s0.675-1.5,1.5-1.5H961.803z M936.43,56.424
	h25.373c0.825,0,1.5,0.675,1.5,1.5s-0.675,1.5-1.5,1.5H936.43c-0.825,0-1.5-0.675-1.5-1.5S935.605,56.424,936.43,56.424z
	 M935.68,81.936h25.373c0.825,0,1.5,0.675,1.5,1.5s-0.675,1.5-1.5,1.5H935.68c-0.825,0-1.5-0.675-1.5-1.5
	S934.855,81.936,935.68,81.936z M935.68,109.094h25.373c0.825,0,1.5,0.675,1.5,1.5s-0.675,1.5-1.5,1.5H935.68
	c-0.825,0-1.5-0.675-1.5-1.5S934.855,109.094,935.68,109.094z M936.43,319.772h25.373c0.825,0,1.5,0.675,1.5,1.5s-0.675,1.5-1.5,1.5
	H936.43c-0.825,0-1.5-0.675-1.5-1.5S935.605,319.772,936.43,319.772z M937.18,397.954h25.373c0.825,0,1.5,0.674,1.5,1.5
	c0,0.825-0.675,1.5-1.5,1.5H937.18c-0.825,0-1.5-0.675-1.5-1.5S936.355,397.954,937.18,397.954z M937.18,425.112h25.373
	c0.825,0,1.5,0.675,1.5,1.5s-0.675,1.5-1.5,1.5H937.18c-0.825,0-1.5-0.675-1.5-1.5S936.355,425.112,937.18,425.112z
	 M1011.303,98.104H985.93c-0.825,0-1.5-0.675-1.5-1.5s0.675-1.5,1.5-1.5h25.373c0.825,0,1.5,0.675,1.5,1.5
	S1012.128,98.104,1011.303,98.104z M1013.303,122.939c0,0.825-0.675,1.5-1.5,1.5H986.43c-0.825,0-1.5-0.675-1.5-1.5
	s0.675-1.5,1.5-1.5h25.373C1012.628,121.439,1013.303,122.114,1013.303,122.939z M985.68,174.108h25.373c0.825,0,1.5,0.675,1.5,1.5
	s-0.675,1.5-1.5,1.5H985.68c-0.825,0-1.5-0.675-1.5-1.5S984.855,174.108,985.68,174.108z M1012.053,203.443H986.68
	c-0.825,0-1.5-0.675-1.5-1.5s0.675-1.5,1.5-1.5h25.373c0.825,0,1.5,0.675,1.5,1.5S1012.878,203.443,1012.053,203.443z
	 M1013.303,228.278c0,0.825-0.675,1.5-1.5,1.5H986.43c-0.825,0-1.5-0.675-1.5-1.5s0.675-1.5,1.5-1.5h25.373
	C1012.628,226.778,1013.303,227.453,1013.303,228.278z M985.68,279.447h25.373c0.825,0,1.5,0.675,1.5,1.5s-0.675,1.5-1.5,1.5H985.68
	c-0.825,0-1.5-0.675-1.5-1.5S984.855,279.447,985.68,279.447z M1012.053,308.782H986.68c-0.825,0-1.5-0.675-1.5-1.5
	s0.675-1.5,1.5-1.5h25.373c0.825,0,1.5,0.675,1.5,1.5S1012.878,308.782,1012.053,308.782z M1014.053,333.617
	c0,0.825-0.675,1.5-1.5,1.5H987.18c-0.825,0-1.5-0.675-1.5-1.5s0.675-1.5,1.5-1.5h25.373
	C1013.378,332.117,1014.053,332.792,1014.053,333.617z M986.43,384.787h25.373c0.825,0,1.5,0.675,1.5,1.5s-0.675,1.5-1.5,1.5H986.43
	c-0.825,0-1.5-0.675-1.5-1.5S985.605,384.787,986.43,384.787z M987.43,411.121h25.373c0.825,0,1.5,0.675,1.5,1.5s-0.675,1.5-1.5,1.5
	H987.43c-0.825,0-1.5-0.675-1.5-1.5S986.605,411.121,987.43,411.121z M987.93,441.737h25.373c0.825,0,1.5,0.675,1.5,1.5
	s-0.675,1.5-1.5,1.5H987.93c-0.825,0-1.5-0.675-1.5-1.5S987.105,441.737,987.93,441.737z M1013.553,361.452H988.18
	c-0.825,0-1.5-0.675-1.5-1.5s0.675-1.5,1.5-1.5h25.373c0.825,0,1.5,0.675,1.5,1.5S1014.378,361.452,1013.553,361.452z
	 M1012.803,256.113H987.43c-0.825,0-1.5-0.675-1.5-1.5s0.675-1.5,1.5-1.5h25.373c0.825,0,1.5,0.675,1.5,1.5
	S1013.628,256.113,1012.803,256.113z M1012.803,150.773H987.43c-0.825,0-1.5-0.675-1.5-1.5s0.675-1.5,1.5-1.5h25.373
	c0.825,0,1.5,0.675,1.5,1.5S1013.628,150.773,1012.803,150.773z M1012.053,45.434H986.68c-0.825,0-1.5-0.675-1.5-1.5
	s0.675-1.5,1.5-1.5h25.373c0.825,0,1.5,0.675,1.5,1.5S1012.878,45.434,1012.053,45.434z M1011.053,19.099H985.68
	c-0.825,0-1.5-0.675-1.5-1.5s0.675-1.5,1.5-1.5h25.373c0.825,0,1.5,0.675,1.5,1.5S1011.878,19.099,1011.053,19.099z M984.93,68.769
	h25.373c0.825,0,1.5,0.675,1.5,1.5s-0.675,1.5-1.5,1.5H984.93c-0.825,0-1.5-0.675-1.5-1.5S984.105,68.769,984.93,68.769z
	 M1014.303,470.249H988.93c-0.825,0-1.5-0.675-1.5-1.5s0.675-1.5,1.5-1.5h25.373c0.825,0,1.5,0.675,1.5,1.5
	S1015.128,470.249,1014.303,470.249z M1112.178,255.29h-25.373c-0.825,0-1.5-0.675-1.5-1.5s0.675-1.5,1.5-1.5h25.373
	c0.825,0,1.5,0.675,1.5,1.5S1113.003,255.29,1112.178,255.29z M1112.928,280.125c0,0.825-0.675,1.5-1.5,1.5h-25.373
	c-0.825,0-1.5-0.675-1.5-1.5c0-0.826,0.675-1.5,1.5-1.5h25.373C1112.253,278.625,1112.928,279.3,1112.928,280.125z
	 M1112.178,228.955h-25.373c-0.825,0-1.5-0.675-1.5-1.5s0.675-1.5,1.5-1.5h25.373c0.825,0,1.5,0.675,1.5,1.5
	S1113.003,228.955,1112.178,228.955z M1112.178,202.62h-25.373c-0.825,0-1.5-0.675-1.5-1.5s0.675-1.5,1.5-1.5h25.373
	c0.825,0,1.5,0.675,1.5,1.5S1113.003,202.62,1112.178,202.62z M1112.178,176.286h-25.373c-0.825,0-1.5-0.675-1.5-1.5
	s0.675-1.5,1.5-1.5h25.373c0.825,0,1.5,0.675,1.5,1.5S1113.003,176.286,1112.178,176.286z M1084.555,95.781
	c0-0.825,0.675-1.5,1.5-1.5h25.373c0.825,0,1.5,0.675,1.5,1.5s-0.675,1.5-1.5,1.5h-25.373
	C1085.23,97.281,1084.555,96.606,1084.555,95.781z M1111.428,70.946h-25.373c-0.825,0-1.5-0.675-1.5-1.5s0.675-1.5,1.5-1.5h25.373
	c0.825,0,1.5,0.675,1.5,1.5S1112.253,70.946,1111.428,70.946z M1112.178,44.612h-25.373c-0.825,0-1.5-0.675-1.5-1.5
	s0.675-1.5,1.5-1.5h25.373c0.825,0,1.5,0.675,1.5,1.5S1113.003,44.612,1112.178,44.612z M1112.178,18.277h-25.373
	c-0.825,0-1.5-0.675-1.5-1.5c0-0.825,0.675-1.5,1.5-1.5h25.373c0.825,0,1.5,0.675,1.5,1.5S1113.003,18.277,1112.178,18.277z
	 M1086.055,304.959h25.373c0.825,0,1.5,0.675,1.5,1.5s-0.675,1.5-1.5,1.5h-25.373c-0.825,0-1.5-0.674-1.5-1.5
	C1084.555,305.634,1085.23,304.959,1086.055,304.959z M1086.805,383.963h25.373c0.825,0,1.5,0.675,1.5,1.5s-0.675,1.5-1.5,1.5
	h-25.373c-0.825,0-1.5-0.675-1.5-1.5S1085.98,383.963,1086.805,383.963z M1086.805,410.298h25.373c0.825,0,1.5,0.675,1.5,1.5
	s-0.675,1.5-1.5,1.5h-25.373c-0.825,0-1.5-0.674-1.5-1.5C1085.305,410.973,1085.98,410.298,1086.805,410.298z M1112.928,360.628
	h-25.373c-0.825,0-1.5-0.675-1.5-1.5s0.675-1.5,1.5-1.5h25.373c0.825,0,1.5,0.675,1.5,1.5
	C1114.428,359.954,1113.753,360.628,1112.928,360.628z M1112.928,334.293h-25.373c-0.825,0-1.5-0.675-1.5-1.5s0.675-1.5,1.5-1.5
	h25.373c0.825,0,1.5,0.675,1.5,1.5S1113.753,334.293,1112.928,334.293z M1112.928,149.951h-25.373c-0.825,0-1.5-0.675-1.5-1.5
	s0.675-1.5,1.5-1.5h25.373c0.825,0,1.5,0.675,1.5,1.5S1113.753,149.951,1112.928,149.951z M1112.928,123.616h-25.373
	c-0.825,0-1.5-0.675-1.5-1.5s0.675-1.5,1.5-1.5h25.373c0.825,0,1.5,0.675,1.5,1.5S1113.753,123.616,1112.928,123.616z
	 M890.113,16.922h20.44c0.825,0,1.5,0.675,1.5,1.5s-0.675,1.5-1.5,1.5H885.18c-0.825,0-1.5-0.675-1.5-1.5
	c0-0.183,0.038-0.357,0.099-0.52C885.926,17.544,888.037,17.216,890.113,16.922z M886.68,332.94h25.373c0.825,0,1.5,0.675,1.5,1.5
	s-0.675,1.5-1.5,1.5H886.68c-0.825,0-1.5-0.675-1.5-1.5S885.855,332.94,886.68,332.94z M884.68,308.105c0-0.825,0.675-1.5,1.5-1.5
	h25.373c0.825,0,1.5,0.675,1.5,1.5s-0.675,1.5-1.5,1.5H886.18C885.355,309.605,884.68,308.93,884.68,308.105z M887.68,359.275
	h25.373c0.825,0,1.5,0.675,1.5,1.5s-0.675,1.5-1.5,1.5H887.68c-0.825,0-1.5-0.675-1.5-1.5S886.855,359.275,887.68,359.275z
	 M912.303,256.935H886.93c-0.825,0-1.5-0.675-1.5-1.5c0-0.825,0.675-1.5,1.5-1.5h25.373c0.825,0,1.5,0.675,1.5,1.5
	S913.128,256.935,912.303,256.935z M910.803,98.927H885.43c-0.825,0-1.5-0.675-1.5-1.5s0.675-1.5,1.5-1.5h25.373
	c0.825,0,1.5,0.675,1.5,1.5S911.628,98.927,910.803,98.927z M912.803,123.761c0,0.825-0.675,1.5-1.5,1.5H885.93
	c-0.825,0-1.5-0.675-1.5-1.5s0.675-1.5,1.5-1.5h25.373C912.128,122.261,912.803,122.936,912.803,123.761z M885.18,174.931h25.373
	c0.825,0,1.5,0.675,1.5,1.5s-0.675,1.5-1.5,1.5H885.18c-0.825,0-1.5-0.675-1.5-1.5S884.355,174.931,885.18,174.931z
	 M913.053,202.766c0,0.825-0.675,1.5-1.5,1.5H886.18c-0.825,0-1.5-0.675-1.5-1.5s0.675-1.5,1.5-1.5h25.373
	C912.378,201.266,913.053,201.941,913.053,202.766z M885.93,227.601h25.373c0.825,0,1.5,0.675,1.5,1.5s-0.675,1.5-1.5,1.5H885.93
	c-0.825,0-1.5-0.675-1.5-1.5S885.105,227.601,885.93,227.601z M912.303,151.596H886.93c-0.825,0-1.5-0.675-1.5-1.5
	s0.675-1.5,1.5-1.5h25.373c0.825,0,1.5,0.675,1.5,1.5S913.128,151.596,912.303,151.596z M911.553,46.257H886.18
	c-0.825,0-1.5-0.675-1.5-1.5s0.675-1.5,1.5-1.5h25.373c0.825,0,1.5,0.675,1.5,1.5S912.378,46.257,911.553,46.257z M884.43,69.592
	h25.373c0.825,0,1.5,0.675,1.5,1.5s-0.675,1.5-1.5,1.5H884.43c-0.825,0-1.5-0.674-1.5-1.5
	C882.93,70.267,883.605,69.592,884.43,69.592z M885.18,280.27h25.373c0.825,0,1.5,0.675,1.5,1.5s-0.675,1.5-1.5,1.5H885.18
	c-0.825,0-1.5-0.675-1.5-1.5S884.355,280.27,885.18,280.27z M885.93,385.609h25.373c0.825,0,1.5,0.675,1.5,1.5s-0.675,1.5-1.5,1.5
	H885.93c-0.825,0-1.5-0.675-1.5-1.5S885.105,385.609,885.93,385.609z M886.93,411.944h25.373c0.825,0,1.5,0.675,1.5,1.5
	s-0.675,1.5-1.5,1.5H886.93c-0.825,0-1.5-0.675-1.5-1.5S886.105,411.944,886.93,411.944z M887.43,442.56h25.373
	c0.825,0,1.5,0.675,1.5,1.5s-0.675,1.5-1.5,1.5H887.43c-0.825,0-1.5-0.675-1.5-1.5C885.93,443.234,886.605,442.56,887.43,442.56z
	 M913.803,471.071H888.43c-0.825,0-1.5-0.675-1.5-1.5s0.675-1.5,1.5-1.5h25.373c0.825,0,1.5,0.675,1.5,1.5
	S914.628,471.071,913.803,471.071z M814.555,446.382h-25.373c-0.825,0-1.5-0.675-1.5-1.5s0.675-1.5,1.5-1.5h25.373
	c0.825,0,1.5,0.675,1.5,1.5S815.38,446.382,814.555,446.382z M816.055,470.395c0,0.825-0.675,1.5-1.5,1.5h-25.373
	c-0.825,0-1.5-0.675-1.5-1.5s0.675-1.5,1.5-1.5h25.373C815.38,468.895,816.055,469.57,816.055,470.395z M787.682,386.432h25.373
	c0.825,0,1.5,0.675,1.5,1.5s-0.675,1.5-1.5,1.5h-25.373c-0.825,0-1.5-0.675-1.5-1.5S786.857,386.432,787.682,386.432z
	 M786.932,361.597c0-0.825,0.675-1.5,1.5-1.5h25.373c0.825,0,1.5,0.675,1.5,1.5s-0.675,1.5-1.5,1.5h-25.373
	C787.607,363.097,786.932,362.422,786.932,361.597z M813.805,336.762h-25.373c-0.825,0-1.5-0.675-1.5-1.5s0.675-1.5,1.5-1.5h25.373
	c0.825,0,1.5,0.675,1.5,1.5S814.63,336.762,813.805,336.762z M813.055,231.423h-25.373c-0.825,0-1.5-0.675-1.5-1.5
	s0.675-1.5,1.5-1.5h25.373c0.825,0,1.5,0.675,1.5,1.5S813.88,231.423,813.055,231.423z M814.555,256.258c0,0.825-0.675,1.5-1.5,1.5
	h-25.373c-0.825,0-1.5-0.675-1.5-1.5c0-0.825,0.675-1.5,1.5-1.5h25.373C813.88,254.758,814.555,255.433,814.555,256.258z
	 M813.055,152.419h-25.373c-0.825,0-1.5-0.675-1.5-1.5s0.675-1.5,1.5-1.5h25.373c0.825,0,1.5,0.675,1.5,1.5
	S813.88,152.419,813.055,152.419z M786.932,175.754h25.373c0.825,0,1.5,0.675,1.5,1.5s-0.675,1.5-1.5,1.5h-25.373
	c-0.825,0-1.5-0.675-1.5-1.5S786.107,175.754,786.932,175.754z M786.932,202.088h25.373c0.825,0,1.5,0.675,1.5,1.5
	s-0.675,1.5-1.5,1.5h-25.373c-0.825,0-1.5-0.675-1.5-1.5S786.107,202.088,786.932,202.088z M786.932,281.093h25.373
	c0.825,0,1.5,0.675,1.5,1.5s-0.675,1.5-1.5,1.5h-25.373c-0.825,0-1.5-0.675-1.5-1.5S786.107,281.093,786.932,281.093z
	 M813.055,126.084h-25.373c-0.825,0-1.5-0.674-1.5-1.5c0-0.825,0.675-1.5,1.5-1.5h25.373c0.825,0,1.5,0.675,1.5,1.5
	S813.88,126.084,813.055,126.084z M812.305,47.081h-25.373c-0.825,0-1.5-0.675-1.5-1.5s0.675-1.5,1.5-1.5h25.373
	c0.825,0,1.5,0.675,1.5,1.5S813.13,47.081,812.305,47.081z M813.055,71.915c0,0.825-0.675,1.5-1.5,1.5h-25.373
	c-0.825,0-1.5-0.675-1.5-1.5s0.675-1.5,1.5-1.5h25.373C812.38,70.415,813.055,71.09,813.055,71.915z M786.182,96.75h25.373
	c0.825,0,1.5,0.675,1.5,1.5s-0.675,1.5-1.5,1.5h-25.373c-0.825,0-1.5-0.675-1.5-1.5S785.357,96.75,786.182,96.75z M786.932,307.428
	h25.373c0.825,0,1.5,0.675,1.5,1.5s-0.675,1.5-1.5,1.5h-25.373c-0.825,0-1.5-0.675-1.5-1.5S786.107,307.428,786.932,307.428z
	 M787.682,412.767h25.373c0.825,0,1.5,0.675,1.5,1.5s-0.675,1.5-1.5,1.5h-25.373c-0.825,0-1.5-0.675-1.5-1.5
	S786.857,412.767,787.682,412.767z M788.432,495.229h25.373c0.825,0,1.5,0.675,1.5,1.5s-0.675,1.5-1.5,1.5h-25.373
	c-0.825,0-1.5-0.675-1.5-1.5S787.607,495.229,788.432,495.229z M861.805,112.918h-25.373c-0.825,0-1.5-0.675-1.5-1.5
	s0.675-1.5,1.5-1.5h25.373c0.825,0,1.5,0.674,1.5,1.5C863.305,112.243,862.63,112.918,861.805,112.918z M863.553,136.929
	c0,0.825-0.675,1.5-1.5,1.5H836.68c-0.825,0-1.5-0.675-1.5-1.5s0.675-1.5,1.5-1.5h25.373
	C862.878,135.429,863.553,136.104,863.553,136.929z M835.93,188.098h25.373c0.825,0,1.5,0.675,1.5,1.5s-0.675,1.5-1.5,1.5H835.93
	c-0.825,0-1.5-0.675-1.5-1.5S835.105,188.098,835.93,188.098z M864.055,216.756c0,0.825-0.675,1.5-1.5,1.5h-25.373
	c-0.825,0-1.5-0.675-1.5-1.5s0.675-1.5,1.5-1.5h25.373C863.38,215.256,864.055,215.931,864.055,216.756z M836.68,240.768h25.373
	c0.825,0,1.5,0.675,1.5,1.5s-0.675,1.5-1.5,1.5H836.68c-0.825,0-1.5-0.675-1.5-1.5S835.855,240.768,836.68,240.768z
	 M837.932,267.926h25.373c0.825,0,1.5,0.675,1.5,1.5s-0.675,1.5-1.5,1.5h-25.373c-0.825,0-1.5-0.675-1.5-1.5
	S837.107,267.926,837.932,267.926z M864.055,322.095c0,0.825-0.675,1.5-1.5,1.5h-25.373c-0.825,0-1.5-0.675-1.5-1.5
	s0.675-1.5,1.5-1.5h25.373C863.38,320.595,864.055,321.27,864.055,322.095z M837.43,346.107h25.373c0.825,0,1.5,0.675,1.5,1.5
	s-0.675,1.5-1.5,1.5H837.43c-0.825,0-1.5-0.675-1.5-1.5S836.605,346.107,837.43,346.107z M838.682,373.265h25.373
	c0.825,0,1.5,0.675,1.5,1.5s-0.675,1.5-1.5,1.5h-25.373c-0.825,0-1.5-0.675-1.5-1.5S837.857,373.265,838.682,373.265z
	 M863.305,165.586h-25.373c-0.825,0-1.5-0.675-1.5-1.5s0.675-1.5,1.5-1.5h25.373c0.825,0,1.5,0.675,1.5,1.5
	S864.13,165.586,863.305,165.586z M862.555,60.248h-25.373c-0.825,0-1.5-0.675-1.5-1.5s0.675-1.5,1.5-1.5h25.373
	c0.825,0,1.5,0.675,1.5,1.5S863.38,60.248,862.555,60.248z M861.303,33.09H835.93c-0.825,0-1.5-0.675-1.5-1.5
	c0-0.825,0.675-1.5,1.5-1.5h25.373c0.825,0,1.5,0.675,1.5,1.5C862.803,32.415,862.128,33.09,861.303,33.09z M835.18,82.759h25.373
	c0.825,0,1.5,0.675,1.5,1.5s-0.675,1.5-1.5,1.5H835.18c-0.825,0-1.5-0.675-1.5-1.5S834.355,82.759,835.18,82.759z M834.43,294.938
	c0-0.825,0.675-1.5,1.5-1.5h25.373c0.825,0,1.5,0.675,1.5,1.5s-0.675,1.5-1.5,1.5H835.93
	C835.105,296.438,834.43,295.763,834.43,294.938z M836.68,398.777h25.373c0.825,0,1.5,0.675,1.5,1.5s-0.675,1.5-1.5,1.5H836.68
	c-0.825,0-1.5-0.675-1.5-1.5S835.855,398.777,836.68,398.777z M837.932,425.934h25.373c0.825,0,1.5,0.675,1.5,1.5
	s-0.675,1.5-1.5,1.5h-25.373c-0.825,0-1.5-0.675-1.5-1.5S837.107,425.934,837.932,425.934z M838.18,454.904h25.373
	c0.825,0,1.5,0.675,1.5,1.5s-0.675,1.5-1.5,1.5H838.18c-0.825,0-1.5-0.675-1.5-1.5S837.355,454.904,838.18,454.904z
	 M839.432,482.062h25.373c0.825,0,1.5,0.675,1.5,1.5s-0.675,1.5-1.5,1.5h-25.373c-0.825,0-1.5-0.675-1.5-1.5
	S838.607,482.062,839.432,482.062z M714.805,551.722h-25.373c-0.825,0-1.5-0.675-1.5-1.5s0.675-1.5,1.5-1.5h25.373
	c0.825,0,1.5,0.675,1.5,1.5S715.63,551.722,714.805,551.722z M712.555,232.247h-25.373c-0.825,0-1.5-0.675-1.5-1.5
	s0.675-1.5,1.5-1.5h25.373c0.825,0,1.5,0.675,1.5,1.5S713.38,232.247,712.555,232.247z M714.055,257.082c0,0.825-0.675,1.5-1.5,1.5
	h-25.373c-0.825,0-1.5-0.675-1.5-1.5s0.675-1.5,1.5-1.5h25.373C713.38,255.582,714.055,256.256,714.055,257.082z M712.555,153.243
	h-25.373c-0.825,0-1.5-0.675-1.5-1.5s0.675-1.5,1.5-1.5h25.373c0.825,0,1.5,0.675,1.5,1.5S713.38,153.243,712.555,153.243z
	 M686.432,176.577h25.373c0.825,0,1.5,0.675,1.5,1.5s-0.675,1.5-1.5,1.5h-25.373c-0.825,0-1.5-0.675-1.5-1.5
	S685.607,176.577,686.432,176.577z M686.432,202.912h25.373c0.825,0,1.5,0.675,1.5,1.5s-0.675,1.5-1.5,1.5h-25.373
	c-0.825,0-1.5-0.675-1.5-1.5S685.607,202.912,686.432,202.912z M686.432,281.917h25.373c0.825,0,1.5,0.675,1.5,1.5
	s-0.675,1.5-1.5,1.5h-25.373c-0.825,0-1.5-0.675-1.5-1.5S685.607,281.917,686.432,281.917z M686.432,308.251h25.373
	c0.825,0,1.5,0.675,1.5,1.5s-0.675,1.5-1.5,1.5h-25.373c-0.825,0-1.5-0.675-1.5-1.5S685.607,308.251,686.432,308.251z
	 M713.305,363.92h-25.373c-0.825,0-1.5-0.675-1.5-1.5s0.675-1.5,1.5-1.5h25.373c0.825,0,1.5,0.675,1.5,1.5
	S714.13,363.92,713.305,363.92z M714.055,388.755c0,0.825-0.675,1.5-1.5,1.5h-25.373c-0.825,0-1.5-0.675-1.5-1.5s0.675-1.5,1.5-1.5
	h25.373C713.38,387.255,714.055,387.93,714.055,388.755z M687.182,413.59h25.373c0.825,0,1.5,0.675,1.5,1.5s-0.675,1.5-1.5,1.5
	h-25.373c-0.825,0-1.5-0.674-1.5-1.5C685.682,414.265,686.357,413.59,687.182,413.59z M687.932,496.052h25.373
	c0.825,0,1.5,0.675,1.5,1.5s-0.675,1.5-1.5,1.5h-25.373c-0.825,0-1.5-0.675-1.5-1.5S687.107,496.052,687.932,496.052z
	 M714.055,472.717h-25.373c-0.825,0-1.5-0.675-1.5-1.5s0.675-1.5,1.5-1.5h25.373c0.825,0,1.5,0.675,1.5,1.5
	S714.88,472.717,714.055,472.717z M714.055,446.382h-25.373c-0.825,0-1.5-0.675-1.5-1.5s0.675-1.5,1.5-1.5h25.373
	c0.825,0,1.5,0.675,1.5,1.5S714.88,446.382,714.055,446.382z M713.305,337.585h-25.373c-0.825,0-1.5-0.675-1.5-1.5
	s0.675-1.5,1.5-1.5h25.373c0.825,0,1.5,0.675,1.5,1.5S714.13,337.585,713.305,337.585z M712.555,126.908h-25.373
	c-0.825,0-1.5-0.675-1.5-1.5s0.675-1.5,1.5-1.5h25.373c0.825,0,1.5,0.675,1.5,1.5S713.38,126.908,712.555,126.908z M711.055,100.573
	h-25.373c-0.825,0-1.5-0.675-1.5-1.5s0.675-1.5,1.5-1.5h25.373c0.825,0,1.5,0.675,1.5,1.5S711.88,100.573,711.055,100.573z
	 M686.432,523.887c0-0.825,0.675-1.5,1.5-1.5h25.373c0.825,0,1.5,0.675,1.5,1.5s-0.675,1.5-1.5,1.5h-25.373
	C687.107,525.387,686.432,524.712,686.432,523.887z M763.555,377.087h-25.373c-0.825,0-1.5-0.675-1.5-1.5s0.675-1.5,1.5-1.5h25.373
	c0.825,0,1.5,0.675,1.5,1.5S764.38,377.087,763.555,377.087z M764.305,401.922c0,0.825-0.675,1.5-1.5,1.5h-25.373
	c-0.825,0-1.5-0.675-1.5-1.5s0.675-1.5,1.5-1.5h25.373C763.63,400.422,764.305,401.097,764.305,401.922z M763.555,350.753h-25.373
	c-0.825,0-1.5-0.675-1.5-1.5s0.675-1.5,1.5-1.5h25.373c0.825,0,1.5,0.675,1.5,1.5S764.38,350.753,763.555,350.753z M762.805,245.414
	h-25.373c-0.825,0-1.5-0.675-1.5-1.5s0.675-1.5,1.5-1.5h25.373c0.825,0,1.5,0.675,1.5,1.5S763.63,245.414,762.805,245.414z
	 M764.305,270.249c0,0.825-0.675,1.5-1.5,1.5h-25.373c-0.825,0-1.5-0.675-1.5-1.5s0.675-1.5,1.5-1.5h25.373
	C763.63,268.749,764.305,269.423,764.305,270.249z M762.805,166.41h-25.373c-0.825,0-1.5-0.675-1.5-1.5s0.675-1.5,1.5-1.5h25.373
	c0.825,0,1.5,0.675,1.5,1.5S763.63,166.41,762.805,166.41z M736.682,189.745h25.373c0.825,0,1.5,0.675,1.5,1.5s-0.675,1.5-1.5,1.5
	h-25.373c-0.825,0-1.5-0.675-1.5-1.5S735.857,189.745,736.682,189.745z M736.682,216.08h25.373c0.825,0,1.5,0.675,1.5,1.5
	s-0.675,1.5-1.5,1.5h-25.373c-0.825,0-1.5-0.675-1.5-1.5S735.857,216.08,736.682,216.08z M736.682,295.084h25.373
	c0.825,0,1.5,0.675,1.5,1.5s-0.675,1.5-1.5,1.5h-25.373c-0.825,0-1.5-0.675-1.5-1.5S735.857,295.084,736.682,295.084z
	 M762.805,140.075h-25.373c-0.825,0-1.5-0.675-1.5-1.5s0.675-1.5,1.5-1.5h25.373c0.825,0,1.5,0.675,1.5,1.5
	S763.63,140.075,762.805,140.075z M761.305,84.406c0.825,0,1.5,0.675,1.5,1.5s-0.675,1.5-1.5,1.5h-25.373
	c-0.825,0-1.5-0.675-1.5-1.5s0.675-1.5,1.5-1.5H761.305z M735.932,110.74h25.373c0.825,0,1.5,0.675,1.5,1.5s-0.675,1.5-1.5,1.5
	h-25.373c-0.825,0-1.5-0.675-1.5-1.5C734.432,111.415,735.107,110.74,735.932,110.74z M736.682,321.418h25.373
	c0.825,0,1.5,0.675,1.5,1.5s-0.675,1.5-1.5,1.5h-25.373c-0.825,0-1.5-0.674-1.5-1.5
	C735.182,322.093,735.857,321.418,736.682,321.418z M737.432,426.757h25.373c0.825,0,1.5,0.675,1.5,1.5s-0.675,1.5-1.5,1.5h-25.373
	c-0.825,0-1.5-0.674-1.5-1.5C735.932,427.432,736.607,426.757,737.432,426.757z M763.555,512.22h-25.373c-0.825,0-1.5-0.675-1.5-1.5
	s0.675-1.5,1.5-1.5h25.373c0.825,0,1.5,0.675,1.5,1.5S764.38,512.22,763.555,512.22z M765.055,537.054c0,0.825-0.675,1.5-1.5,1.5
	h-25.373c-0.825,0-1.5-0.675-1.5-1.5s0.675-1.5,1.5-1.5h25.373C764.38,535.554,765.055,536.229,765.055,537.054z M764.305,485.885
	h-25.373c-0.825,0-1.5-0.675-1.5-1.5s0.675-1.5,1.5-1.5h25.373c0.825,0,1.5,0.675,1.5,1.5S765.13,485.885,764.305,485.885z
	 M764.305,459.55h-25.373c-0.825,0-1.5-0.675-1.5-1.5s0.675-1.5,1.5-1.5h25.373c0.825,0,1.5,0.675,1.5,1.5
	S765.13,459.55,764.305,459.55z M634.323,425.468h25.373c0.825,0,1.5,0.675,1.5,1.5s-0.675,1.5-1.5,1.5h-25.373
	c-0.825,0-1.5-0.675-1.5-1.5S633.497,425.468,634.323,425.468z M632.823,402.28c0-0.825,0.675-1.5,1.5-1.5h25.373
	c0.825,0,1.5,0.675,1.5,1.5s-0.675,1.5-1.5,1.5h-25.373C633.497,403.78,632.823,403.105,632.823,402.28z M634.323,509.577h25.373
	c0.825,0,1.5,0.675,1.5,1.5s-0.675,1.5-1.5,1.5h-25.373c-0.825,0-1.5-0.675-1.5-1.5S633.498,509.577,634.323,509.577z
	 M660.446,484.596h-25.373c-0.825,0-1.5-0.675-1.5-1.5s0.675-1.5,1.5-1.5h25.373c0.825,0,1.5,0.675,1.5,1.5
	S661.271,484.596,660.446,484.596z M660.446,459.907h-25.373c-0.825,0-1.5-0.675-1.5-1.5s0.675-1.5,1.5-1.5h25.373
	c0.825,0,1.5,0.675,1.5,1.5S661.271,459.907,660.446,459.907z M660.446,375.799h-25.373c-0.825,0-1.5-0.675-1.5-1.5
	s0.675-1.5,1.5-1.5h25.373c0.825,0,1.5,0.675,1.5,1.5C661.946,375.125,661.271,375.799,660.446,375.799z M660.446,351.11h-25.373
	c-0.825,0-1.5-0.675-1.5-1.5s0.675-1.5,1.5-1.5h25.373c0.825,0,1.5,0.675,1.5,1.5S661.271,351.11,660.446,351.11z M660.446,165.121
	h-25.373c-0.825,0-1.5-0.675-1.5-1.5s0.675-1.5,1.5-1.5h25.373c0.825,0,1.5,0.675,1.5,1.5S661.271,165.121,660.446,165.121z
	 M634.323,190.101h25.373c0.825,0,1.5,0.675,1.5,1.5s-0.675,1.5-1.5,1.5h-25.373c-0.826,0-1.5-0.675-1.5-1.5
	S633.498,190.101,634.323,190.101z M634.323,214.791h25.373c0.825,0,1.5,0.675,1.5,1.5s-0.675,1.5-1.5,1.5h-25.373
	c-0.825,0-1.5-0.675-1.5-1.5S633.497,214.791,634.323,214.791z M634.323,242.771h25.373c0.825,0,1.5,0.675,1.5,1.5
	s-0.675,1.5-1.5,1.5h-25.373c-0.825,0-1.5-0.675-1.5-1.5S633.497,242.771,634.323,242.771z M634.323,267.46h25.373
	c0.825,0,1.5,0.675,1.5,1.5s-0.675,1.5-1.5,1.5h-25.373c-0.825,0-1.5-0.675-1.5-1.5S633.497,267.46,634.323,267.46z
	 M633.573,295.441h25.373c0.825,0,1.5,0.675,1.5,1.5s-0.675,1.5-1.5,1.5h-25.373c-0.825,0-1.5-0.675-1.5-1.5
	S632.747,295.441,633.573,295.441z M633.573,320.129h25.373c0.825,0,1.5,0.675,1.5,1.5s-0.675,1.5-1.5,1.5h-25.373
	c-0.826,0-1.5-0.674-1.5-1.5C632.073,320.804,632.748,320.129,633.573,320.129z M634.323,534.266h25.373c0.825,0,1.5,0.674,1.5,1.5
	c0,0.825-0.675,1.5-1.5,1.5h-25.373c-0.825,0-1.5-0.675-1.5-1.5S633.498,534.266,634.323,534.266z M661.196,565.246h-25.373
	c-0.825,0-1.5-0.675-1.5-1.5s0.675-1.5,1.5-1.5h25.373c0.825,0,1.5,0.675,1.5,1.5S662.021,565.246,661.196,565.246z
	 M662.696,588.435c0,0.825-0.675,1.5-1.5,1.5h-25.373c-0.825,0-1.5-0.675-1.5-1.5s0.675-1.5,1.5-1.5h25.373
	C662.021,586.935,662.696,587.61,662.696,588.435z M661.946,138.932c0,0.825-0.675,1.5-1.5,1.5h-25.373c-0.825,0-1.5-0.675-1.5-1.5
	s0.675-1.5,1.5-1.5h25.373C661.271,137.432,661.946,138.107,661.946,138.932z M612.446,575.268c0,0.825-0.675,1.5-1.5,1.5h-25.373
	c-0.825,0-1.5-0.675-1.5-1.5s0.675-1.5,1.5-1.5h25.373C611.771,573.768,612.446,574.443,612.446,575.268z M533.823,268.283h25.373
	c0.825,0,1.5,0.675,1.5,1.5s-0.675,1.5-1.5,1.5h-25.373c-0.825,0-1.5-0.675-1.5-1.5
	C532.323,268.958,532.997,268.283,533.823,268.283z M532.323,242.626c0-0.825,0.674-1.5,1.5-1.5h25.373c0.825,0,1.5,0.675,1.5,1.5
	s-0.675,1.5-1.5,1.5h-25.373C532.998,244.126,532.323,243.451,532.323,242.626z M533.073,293.794h25.373c0.825,0,1.5,0.675,1.5,1.5
	s-0.675,1.5-1.5,1.5h-25.373c-0.825,0-1.5-0.675-1.5-1.5S532.247,293.794,533.073,293.794z M533.073,320.953h25.373
	c0.825,0,1.5,0.675,1.5,1.5s-0.675,1.5-1.5,1.5h-25.373c-0.826,0-1.5-0.675-1.5-1.5S532.248,320.953,533.073,320.953z
	 M560.696,590.758h-25.373c-0.825,0-1.5-0.675-1.5-1.5s0.675-1.5,1.5-1.5h25.373c0.825,0,1.5,0.675,1.5,1.5
	S561.521,590.758,560.696,590.758z M561.446,614.77c0,0.825-0.675,1.5-1.5,1.5h-25.373c-0.825,0-1.5-0.675-1.5-1.5
	s0.675-1.5,1.5-1.5h25.373C560.771,613.27,561.446,613.945,561.446,614.77z M560.696,563.6h-25.373c-0.825,0-1.5-0.675-1.5-1.5
	s0.675-1.5,1.5-1.5h25.373c0.825,0,1.5,0.675,1.5,1.5S561.521,563.6,560.696,563.6z M559.946,458.261h-25.373
	c-0.825,0-1.5-0.675-1.5-1.5s0.675-1.5,1.5-1.5h25.373c0.825,0,1.5,0.675,1.5,1.5S560.771,458.261,559.946,458.261z
	 M561.446,483.919c0,0.825-0.675,1.5-1.5,1.5h-25.373c-0.825,0-1.5-0.675-1.5-1.5s0.675-1.5,1.5-1.5h25.373
	C560.771,482.419,561.446,483.094,561.446,483.919z M533.823,426.292h25.373c0.825,0,1.5,0.675,1.5,1.5s-0.675,1.5-1.5,1.5h-25.373
	c-0.825,0-1.5-0.675-1.5-1.5S532.997,426.292,533.823,426.292z M532.323,400.634c0-0.825,0.675-1.5,1.5-1.5h25.373
	c0.825,0,1.5,0.675,1.5,1.5s-0.675,1.5-1.5,1.5h-25.373C532.997,402.134,532.323,401.459,532.323,400.634z M533.823,507.931h25.373
	c0.825,0,1.5,0.675,1.5,1.5s-0.675,1.5-1.5,1.5h-25.373c-0.825,0-1.5-0.675-1.5-1.5S532.998,507.931,533.823,507.931z
	 M559.946,376.622h-25.373c-0.825,0-1.5-0.675-1.5-1.5s0.675-1.5,1.5-1.5h25.373c0.825,0,1.5,0.675,1.5,1.5
	S560.771,376.622,559.946,376.622z M533.823,535.088h25.373c0.825,0,1.5,0.675,1.5,1.5s-0.675,1.5-1.5,1.5h-25.373
	c-0.826,0-1.5-0.674-1.5-1.5C532.323,535.763,532.998,535.088,533.823,535.088z M534.573,640.428h25.373c0.825,0,1.5,0.675,1.5,1.5
	s-0.675,1.5-1.5,1.5h-25.373c-0.825,0-1.5-0.675-1.5-1.5S533.748,640.428,534.573,640.428z M583.073,494.763h25.373
	c0.825,0,1.5,0.675,1.5,1.5s-0.675,1.5-1.5,1.5h-25.373c-0.825,0-1.5-0.675-1.5-1.5S582.247,494.763,583.073,494.763z
	 M582.323,444.417c0-0.825,0.675-1.5,1.5-1.5h25.373c0.825,0,1.5,0.675,1.5,1.5s-0.675,1.5-1.5,1.5h-25.373
	C582.998,445.917,582.323,445.242,582.323,444.417z M584.073,521.098h25.373c0.825,0,1.5,0.675,1.5,1.5s-0.675,1.5-1.5,1.5h-25.373
	c-0.825,0-1.5-0.675-1.5-1.5S583.248,521.098,584.073,521.098z M584.573,547.433h25.373c0.825,0,1.5,0.675,1.5,1.5
	s-0.675,1.5-1.5,1.5h-25.373c-0.826,0-1.5-0.675-1.5-1.5S583.748,547.433,584.573,547.433z M610.196,471.429h-25.373
	c-0.825,0-1.5-0.675-1.5-1.5s0.675-1.5,1.5-1.5h25.373c0.825,0,1.5,0.675,1.5,1.5S611.021,471.429,610.196,471.429z
	 M609.446,415.301h-25.373c-0.825,0-1.5-0.675-1.5-1.5s0.675-1.5,1.5-1.5h25.373c0.825,0,1.5,0.675,1.5,1.5
	S610.271,415.301,609.446,415.301z M608.446,388.966h-25.373c-0.825,0-1.5-0.675-1.5-1.5s0.674-1.5,1.5-1.5h25.373
	c0.825,0,1.5,0.675,1.5,1.5S609.271,388.966,608.446,388.966z M581.823,308.462c0-0.825,0.675-1.5,1.5-1.5h25.373
	c0.825,0,1.5,0.675,1.5,1.5s-0.675,1.5-1.5,1.5h-25.373C582.498,309.962,581.823,309.287,581.823,308.462z M582.323,334.796
	c0-0.825,0.675-1.5,1.5-1.5h25.373c0.825,0,1.5,0.675,1.5,1.5s-0.675,1.5-1.5,1.5h-25.373
	C582.998,336.296,582.323,335.621,582.323,334.796z M609.446,257.293h-25.373c-0.825,0-1.5-0.675-1.5-1.5c0-0.825,0.674-1.5,1.5-1.5
	h25.373c0.825,0,1.5,0.675,1.5,1.5S610.271,257.293,609.446,257.293z M608.446,230.958h-25.373c-0.825,0-1.5-0.675-1.5-1.5
	c0-0.826,0.674-1.5,1.5-1.5h25.373c0.825,0,1.5,0.675,1.5,1.5S609.271,230.958,608.446,230.958z M582.323,280.627h25.373
	c0.825,0,1.5,0.675,1.5,1.5s-0.675,1.5-1.5,1.5h-25.373c-0.826,0-1.5-0.674-1.5-1.5
	C580.823,281.302,581.498,280.627,582.323,280.627z M583.823,600.103h25.373c0.825,0,1.5,0.675,1.5,1.5s-0.675,1.5-1.5,1.5h-25.373
	c-0.826,0-1.5-0.675-1.5-1.5S582.998,600.103,583.823,600.103z M584.823,626.438h25.373c0.825,0,1.5,0.675,1.5,1.5
	s-0.675,1.5-1.5,1.5h-25.373c-0.825,0-1.5-0.675-1.5-1.5S583.998,626.438,584.823,626.438z M610.196,362.631h-25.373
	c-0.825,0-1.5-0.675-1.5-1.5s0.675-1.5,1.5-1.5h25.373c0.825,0,1.5,0.675,1.5,1.5S611.021,362.631,610.196,362.631z
	 M609.446,204.623h-25.373c-0.825,0-1.5-0.675-1.5-1.5s0.675-1.5,1.5-1.5h25.373c0.825,0,1.5,0.674,1.5,1.5
	C610.946,203.948,610.271,204.623,609.446,204.623z M608.446,178.289h-25.373c-0.825,0-1.5-0.675-1.5-1.5s0.674-1.5,1.5-1.5h25.373
	c0.825,0,1.5,0.675,1.5,1.5S609.271,178.289,608.446,178.289z M561.446,347.964c0,0.825-0.675,1.5-1.5,1.5h-25.373
	c-0.825,0-1.5-0.675-1.5-1.5s0.675-1.5,1.5-1.5h25.373C560.771,346.464,561.446,347.139,561.446,347.964z M559.196,218.614h-25.373
	c-0.825,0-1.5-0.675-1.5-1.5s0.674-1.5,1.5-1.5h25.373c0.825,0,1.5,0.675,1.5,1.5S560.021,218.614,559.196,218.614z
	 M508.696,603.926h-25.373c-0.825,0-1.5-0.676-1.5-1.5c0-0.826,0.675-1.5,1.5-1.5h25.373c0.825,0,1.5,0.674,1.5,1.5
	C510.196,603.25,509.521,603.926,508.696,603.926z M511.196,628.76c0,0.825-0.675,1.5-1.5,1.5h-25.373c-0.825,0-1.5-0.675-1.5-1.5
	s0.675-1.5,1.5-1.5h25.373C510.521,627.26,511.196,627.935,511.196,628.76z M482.073,523.421c0-0.825,0.675-1.5,1.5-1.5h25.373
	c0.825,0,1.5,0.675,1.5,1.5s-0.675,1.5-1.5,1.5h-25.373C482.748,524.921,482.073,524.246,482.073,523.421z M482.573,549.756
	c0-0.825,0.675-1.5,1.5-1.5h25.373c0.825,0,1.5,0.675,1.5,1.5s-0.675,1.5-1.5,1.5h-25.373
	C483.247,551.256,482.573,550.581,482.573,549.756z M509.696,472.251h-25.373c-0.825,0-1.5-0.675-1.5-1.5s0.675-1.5,1.5-1.5h25.373
	c0.825,0,1.5,0.675,1.5,1.5S510.521,472.251,509.696,472.251z M507.946,389.79h-25.373c-0.825,0-1.5-0.675-1.5-1.5
	s0.674-1.5,1.5-1.5h25.373c0.825,0,1.5,0.675,1.5,1.5S508.771,389.79,507.946,389.79z M510.446,414.625c0,0.825-0.675,1.5-1.5,1.5
	h-25.373c-0.825,0-1.5-0.675-1.5-1.5s0.675-1.5,1.5-1.5h25.373C509.771,413.125,510.446,413.8,510.446,414.625z M483.323,443.74
	h25.373c0.825,0,1.5,0.675,1.5,1.5s-0.675,1.5-1.5,1.5h-25.373c-0.825,0-1.5-0.675-1.5-1.5S482.498,443.74,483.323,443.74z
	 M509.696,363.455h-25.373c-0.825,0-1.5-0.675-1.5-1.5s0.675-1.5,1.5-1.5h25.373c0.825,0,1.5,0.675,1.5,1.5
	S510.521,363.455,509.696,363.455z M508.696,337.12h-25.373c-0.825,0-1.5-0.675-1.5-1.5s0.675-1.5,1.5-1.5h25.373
	c0.825,0,1.5,0.674,1.5,1.5C510.196,336.445,509.521,337.12,508.696,337.12z M508.196,310.785h-25.373c-0.825,0-1.5-0.675-1.5-1.5
	s0.675-1.5,1.5-1.5h25.373c0.825,0,1.5,0.674,1.5,1.5C509.696,310.11,509.021,310.785,508.196,310.785z M507.196,284.451h-25.373
	c-0.826,0-1.5-0.675-1.5-1.5s0.675-1.5,1.5-1.5h25.373c0.825,0,1.5,0.675,1.5,1.5S508.021,284.451,507.196,284.451z
	 M482.573,495.586h25.373c0.825,0,1.5,0.675,1.5,1.5s-0.675,1.5-1.5,1.5h-25.373c-0.825,0-1.5-0.675-1.5-1.5
	S481.747,495.586,482.573,495.586z M483.323,653.595h25.373c0.825,0,1.5,0.675,1.5,1.5s-0.675,1.5-1.5,1.5h-25.373
	c-0.826,0-1.5-0.675-1.5-1.5S482.498,653.595,483.323,653.595z M484.323,679.93h25.373c0.825,0,1.5,0.675,1.5,1.5
	s-0.675,1.5-1.5,1.5h-25.373c-0.825,0-1.5-0.675-1.5-1.5S483.498,679.93,484.323,679.93z M510.446,577.591h-25.373
	c-0.825,0-1.5-0.675-1.5-1.5s0.675-1.5,1.5-1.5h25.373c0.825,0,1.5,0.675,1.5,1.5S511.271,577.591,510.446,577.591z
	 M510.446,256.616c0,0.825-0.675,1.5-1.5,1.5h-25.373c-0.825,0-1.5-0.675-1.5-1.5c0-0.825,0.674-1.5,1.5-1.5h25.373
	C509.771,255.116,510.446,255.791,510.446,256.616z M432.573,615.593c0-0.825,0.675-1.5,1.5-1.5h25.373c0.825,0,1.5,0.675,1.5,1.5
	s-0.675,1.5-1.5,1.5h-25.373C433.248,617.093,432.573,616.418,432.573,615.593z M434.073,666.762h25.373c0.825,0,1.5,0.675,1.5,1.5
	s-0.675,1.5-1.5,1.5h-25.373c-0.826,0-1.5-0.675-1.5-1.5S433.248,666.762,434.073,666.762z M433.323,562.923
	c0-0.825,0.675-1.5,1.5-1.5h25.373c0.825,0,1.5,0.675,1.5,1.5s-0.675,1.5-1.5,1.5h-25.373
	C433.997,564.423,433.323,563.749,433.323,562.923z M433.075,537.411c0-0.825,0.675-1.5,1.5-1.5h25.373c0.825,0,1.5,0.675,1.5,1.5
	s-0.675,1.5-1.5,1.5h-25.373C433.75,538.911,433.075,538.236,433.075,537.411z M460.698,486.242h-25.373c-0.825,0-1.5-0.675-1.5-1.5
	s0.675-1.5,1.5-1.5h25.373c0.825,0,1.5,0.675,1.5,1.5S461.523,486.242,460.698,486.242z M432.573,457.584c0-0.825,0.675-1.5,1.5-1.5
	h25.373c0.825,0,1.5,0.675,1.5,1.5s-0.675,1.5-1.5,1.5h-25.373C433.248,459.084,432.573,458.409,432.573,457.584z M459.948,430.115
	h-25.373c-0.825,0-1.5-0.675-1.5-1.5s0.675-1.5,1.5-1.5h25.373c0.825,0,1.5,0.675,1.5,1.5S460.773,430.115,459.948,430.115z
	 M458.696,402.957h-25.373c-0.825,0-1.5-0.675-1.5-1.5s0.674-1.5,1.5-1.5h25.373c0.825,0,1.5,0.675,1.5,1.5
	S459.521,402.957,458.696,402.957z M433.323,508.754h25.373c0.825,0,1.5,0.675,1.5,1.5s-0.675,1.5-1.5,1.5h-25.373
	c-0.825,0-1.5-0.675-1.5-1.5S432.497,508.754,433.323,508.754z M433.323,719.432h25.373c0.825,0,1.5,0.675,1.5,1.5
	s-0.675,1.5-1.5,1.5h-25.373c-0.826,0-1.5-0.675-1.5-1.5C431.823,720.107,432.498,719.432,433.323,719.432z M435.325,696.92
	c-0.825,0-1.5-0.675-1.5-1.5s0.675-1.5,1.5-1.5h25.373c0.825,0,1.5,0.675,1.5,1.5s-0.675,1.5-1.5,1.5H435.325z M460.698,644.25
	h-25.373c-0.825,0-1.5-0.675-1.5-1.5s0.675-1.5,1.5-1.5h25.373c0.825,0,1.5,0.675,1.5,1.5S461.523,644.25,460.698,644.25z
	 M461.448,591.581h-25.373c-0.825,0-1.5-0.675-1.5-1.5s0.675-1.5,1.5-1.5h25.373c0.825,0,1.5,0.675,1.5,1.5
	S462.273,591.581,461.448,591.581z M462.198,375.945c0,0.825-0.675,1.5-1.5,1.5h-25.373c-0.825,0-1.5-0.675-1.5-1.5
	s0.675-1.5,1.5-1.5h25.373C461.523,374.445,462.198,375.12,462.198,375.945z M459.446,350.288h-25.373c-0.825,0-1.5-0.675-1.5-1.5
	s0.675-1.5,1.5-1.5h25.373c0.825,0,1.5,0.674,1.5,1.5C460.946,349.613,460.271,350.288,459.446,350.288z M459.198,324.775h-25.373
	c-0.825,0-1.5-0.675-1.5-1.5s0.675-1.5,1.5-1.5h25.373c0.825,0,1.5,0.675,1.5,1.5S460.023,324.775,459.198,324.775z
	 M412.698,550.579c0,0.825-0.675,1.5-1.5,1.5h-25.373c-0.825,0-1.5-0.675-1.5-1.5s0.675-1.5,1.5-1.5h25.373
	C412.023,549.079,412.698,549.754,412.698,550.579z M410.448,447.563h-25.373c-0.825,0-1.5-0.675-1.5-1.5s0.675-1.5,1.5-1.5h25.373
	c0.825,0,1.5,0.675,1.5,1.5S411.273,447.563,410.448,447.563z M411.948,471.574c0,0.825-0.675,1.5-1.5,1.5h-25.373
	c-0.825,0-1.5-0.675-1.5-1.5s0.675-1.5,1.5-1.5h25.373C411.273,470.074,411.948,470.749,411.948,471.574z M384.325,413.947h25.373
	c0.825,0,1.5,0.675,1.5,1.5s-0.675,1.5-1.5,1.5h-25.373c-0.825,0-1.5-0.675-1.5-1.5
	C382.825,414.622,383.499,413.947,384.325,413.947z M382.825,389.113c0-0.825,0.675-1.5,1.5-1.5h25.373c0.825,0,1.5,0.675,1.5,1.5
	s-0.675,1.5-1.5,1.5h-25.373C383.499,390.613,382.825,389.938,382.825,389.113z M384.325,496.409h25.373c0.825,0,1.5,0.675,1.5,1.5
	s-0.675,1.5-1.5,1.5h-25.373c-0.825,0-1.5-0.675-1.5-1.5S383.5,496.409,384.325,496.409z M384.325,522.744h25.373
	c0.825,0,1.5,0.675,1.5,1.5s-0.675,1.5-1.5,1.5h-25.373c-0.826,0-1.5-0.675-1.5-1.5S383.5,522.744,384.325,522.744z
	 M410.448,657.418h-25.373c-0.825,0-1.5-0.675-1.5-1.5s0.675-1.5,1.5-1.5h25.373c0.825,0,1.5,0.675,1.5,1.5
	S411.273,657.418,410.448,657.418z M411.948,682.252c0,0.825-0.675,1.5-1.5,1.5h-25.373c-0.825,0-1.5-0.675-1.5-1.5
	s0.675-1.5,1.5-1.5h25.373C411.273,680.752,411.948,681.427,411.948,682.252z M410.448,631.083h-25.373c-0.825,0-1.5-0.675-1.5-1.5
	s0.675-1.5,1.5-1.5h25.373c0.825,0,1.5,0.675,1.5,1.5S411.273,631.083,410.448,631.083z M410.448,604.748h-25.373
	c-0.825,0-1.5-0.675-1.5-1.5s0.675-1.5,1.5-1.5h25.373c0.825,0,1.5,0.675,1.5,1.5S411.273,604.748,410.448,604.748z
	 M384.325,707.088h25.373c0.825,0,1.5,0.675,1.5,1.5s-0.675,1.5-1.5,1.5h-25.373c-0.825,0-1.5-0.675-1.5-1.5
	S383.5,707.088,384.325,707.088z M384.325,733.422h25.373c0.825,0,1.5,0.675,1.5,1.5s-0.675,1.5-1.5,1.5h-25.373
	c-0.826,0-1.5-0.675-1.5-1.5S383.5,733.422,384.325,733.422z M385.825,759.757h25.373c0.825,0,1.5,0.675,1.5,1.5s-0.675,1.5-1.5,1.5
	h-25.373c-0.825,0-1.5-0.675-1.5-1.5S385,759.757,385.825,759.757z M411.198,578.414h-25.373c-0.825,0-1.5-0.675-1.5-1.5
	s0.675-1.5,1.5-1.5h25.373c0.825,0,1.5,0.675,1.5,1.5S412.023,578.414,411.198,578.414z M410.448,364.278h-25.373
	c-0.825,0-1.5-0.675-1.5-1.5s0.675-1.5,1.5-1.5h25.373c0.825,0,1.5,0.675,1.5,1.5S411.273,364.278,410.448,364.278z
	 M360.198,671.408h-25.373c-0.825,0-1.5-0.675-1.5-1.5s0.675-1.5,1.5-1.5h25.373c0.825,0,1.5,0.675,1.5,1.5
	S361.023,671.408,360.198,671.408z M361.698,696.243c0,0.825-0.675,1.5-1.5,1.5h-25.373c-0.825,0-1.5-0.675-1.5-1.5
	s0.675-1.5,1.5-1.5h25.373C361.023,694.743,361.698,695.418,361.698,696.243z M360.198,645.073h-25.373c-0.825,0-1.5-0.675-1.5-1.5
	s0.675-1.5,1.5-1.5h25.373c0.825,0,1.5,0.675,1.5,1.5S361.023,645.073,360.198,645.073z M360.198,618.739h-25.373
	c-0.825,0-1.5-0.675-1.5-1.5s0.675-1.5,1.5-1.5h25.373c0.825,0,1.5,0.675,1.5,1.5S361.023,618.739,360.198,618.739z
	 M360.948,592.404h-25.373c-0.825,0-1.5-0.675-1.5-1.5s0.675-1.5,1.5-1.5h25.373c0.825,0,1.5,0.675,1.5,1.5
	S361.773,592.404,360.948,592.404z M360.948,566.069h-25.373c-0.825,0-1.5-0.675-1.5-1.5s0.675-1.5,1.5-1.5h25.373
	c0.825,0,1.5,0.675,1.5,1.5S361.773,566.069,360.948,566.069z M360.198,487.065h-25.373c-0.825,0-1.5-0.675-1.5-1.5
	s0.675-1.5,1.5-1.5h25.373c0.825,0,1.5,0.675,1.5,1.5S361.023,487.065,360.198,487.065z M360.198,460.73h-25.373
	c-0.825,0-1.5-0.675-1.5-1.5s0.675-1.5,1.5-1.5h25.373c0.825,0,1.5,0.675,1.5,1.5S361.023,460.73,360.198,460.73z M359.448,430.937
	h-25.373c-0.825,0-1.5-0.675-1.5-1.5s0.674-1.5,1.5-1.5h25.373c0.825,0,1.5,0.675,1.5,1.5S360.273,430.937,359.448,430.937z
	 M334.075,510.399h25.373c0.825,0,1.5,0.675,1.5,1.5c0,0.826-0.675,1.5-1.5,1.5h-25.373c-0.825,0-1.5-0.675-1.5-1.5
	C332.575,511.074,333.25,510.399,334.075,510.399z M334.075,536.734h25.373c0.825,0,1.5,0.675,1.5,1.5s-0.675,1.5-1.5,1.5h-25.373
	c-0.826,0-1.5-0.674-1.5-1.5C332.575,537.409,333.25,536.734,334.075,536.734z M334.075,721.078h25.373c0.825,0,1.5,0.675,1.5,1.5
	s-0.675,1.5-1.5,1.5h-25.373c-0.825,0-1.5-0.675-1.5-1.5S333.25,721.078,334.075,721.078z M334.075,747.412h25.373
	c0.825,0,1.5,0.675,1.5,1.5s-0.675,1.5-1.5,1.5h-25.373c-0.826,0-1.5-0.675-1.5-1.5S333.25,747.412,334.075,747.412z
	 M335.575,773.747h25.373c0.825,0,1.5,0.675,1.5,1.5s-0.675,1.5-1.5,1.5h-25.373c-0.825,0-1.5-0.675-1.5-1.5
	S334.75,773.747,335.575,773.747z M359.448,401.603c0.825,0,1.5,0.675,1.5,1.5s-0.675,1.5-1.5,1.5h-17.131
	c0.849-0.997,1.69-2,2.535-3H359.448z M312.198,551.402c0,0.825-0.675,1.5-1.5,1.5h-25.373c-0.825,0-1.5-0.675-1.5-1.5
	s0.675-1.5,1.5-1.5h25.373C311.523,549.902,312.198,550.577,312.198,551.402z M283.825,523.567h25.373c0.825,0,1.5,0.675,1.5,1.5
	s-0.675,1.5-1.5,1.5h-25.373c-0.826,0-1.5-0.675-1.5-1.5S283,523.567,283.825,523.567z M282.325,498.732c0-0.825,0.675-1.5,1.5-1.5
	h25.373c0.825,0,1.5,0.675,1.5,1.5s-0.675,1.5-1.5,1.5h-25.373C283,500.232,282.325,499.557,282.325,498.732z M309.948,658.24
	h-25.373c-0.825,0-1.5-0.675-1.5-1.5s0.675-1.5,1.5-1.5h25.373c0.825,0,1.5,0.675,1.5,1.5S310.773,658.24,309.948,658.24z
	 M311.448,683.076c0,0.825-0.675,1.5-1.5,1.5h-25.373c-0.825,0-1.5-0.675-1.5-1.5s0.675-1.5,1.5-1.5h25.373
	C310.773,681.576,311.448,682.251,311.448,683.076z M309.948,631.906h-25.373c-0.825,0-1.5-0.675-1.5-1.5s0.675-1.5,1.5-1.5h25.373
	c0.825,0,1.5,0.675,1.5,1.5S310.773,631.906,309.948,631.906z M309.948,605.571h-25.373c-0.825,0-1.5-0.675-1.5-1.5
	s0.675-1.5,1.5-1.5h25.373c0.825,0,1.5,0.675,1.5,1.5S310.773,605.571,309.948,605.571z M283.825,707.91h25.373
	c0.825,0,1.5,0.675,1.5,1.5s-0.675,1.5-1.5,1.5h-25.373c-0.825,0-1.5-0.675-1.5-1.5S283,707.91,283.825,707.91z M283.825,734.245
	h25.373c0.825,0,1.5,0.675,1.5,1.5s-0.675,1.5-1.5,1.5h-25.373c-0.825,0-1.5-0.675-1.5-1.5S283,734.245,283.825,734.245z
	 M284.575,813.25h25.373c0.825,0,1.5,0.675,1.5,1.5s-0.675,1.5-1.5,1.5h-25.373c-0.825,0-1.5-0.675-1.5-1.5
	S283.75,813.25,284.575,813.25z M310.698,789.914h-25.373c-0.825,0-1.5-0.675-1.5-1.5s0.675-1.5,1.5-1.5h25.373
	c0.825,0,1.5,0.675,1.5,1.5S311.523,789.914,310.698,789.914z M310.698,763.58h-25.373c-0.825,0-1.5-0.675-1.5-1.5
	s0.675-1.5,1.5-1.5h25.373c0.825,0,1.5,0.675,1.5,1.5S311.523,763.58,310.698,763.58z M310.698,579.236h-25.373
	c-0.825,0-1.5-0.675-1.5-1.5s0.675-1.5,1.5-1.5h25.373c0.825,0,1.5,0.675,1.5,1.5S311.523,579.236,310.698,579.236z
	 M260.823,673.877H235.45c-0.825,0-1.5-0.675-1.5-1.5s0.675-1.5,1.5-1.5h25.373c0.825,0,1.5,0.675,1.5,1.5
	S261.648,673.877,260.823,673.877z M262.323,697.066c0,0.825-0.675,1.5-1.5,1.5H235.45c-0.825,0-1.5-0.675-1.5-1.5
	s0.675-1.5,1.5-1.5h25.373C261.648,695.566,262.323,696.241,262.323,697.066z M260.823,593.227H235.45c-0.825,0-1.5-0.675-1.5-1.5
	s0.675-1.5,1.5-1.5h25.373c0.825,0,1.5,0.675,1.5,1.5S261.648,593.227,260.823,593.227z M234.7,618.208h25.373
	c0.825,0,1.5,0.674,1.5,1.499s-0.675,1.5-1.5,1.5H234.7c-0.826,0-1.5-0.675-1.5-1.5S233.875,618.208,234.7,618.208z M234.7,642.897
	h25.373c0.825,0,1.5,0.675,1.5,1.5s-0.675,1.5-1.5,1.5H234.7c-0.825,0-1.5-0.675-1.5-1.5S233.874,642.897,234.7,642.897z
	 M234.7,723.547h25.373c0.825,0,1.5,0.675,1.5,1.5s-0.675,1.5-1.5,1.5H234.7c-0.825,0-1.5-0.675-1.5-1.5
	S233.875,723.547,234.7,723.547z M234.7,748.235h25.373c0.825,0,1.5,0.675,1.5,1.5s-0.675,1.5-1.5,1.5H234.7
	c-0.825,0-1.5-0.675-1.5-1.5S233.875,748.235,234.7,748.235z M234.7,802.404c0-0.825,0.675-1.5,1.5-1.5h25.373
	c0.825,0,1.5,0.675,1.5,1.5s-0.675,1.5-1.5,1.5H236.2C235.375,803.904,234.7,803.229,234.7,802.404z M261.573,779.217H236.2
	c-0.825,0-1.5-0.675-1.5-1.5s0.675-1.5,1.5-1.5h25.373c0.825,0,1.5,0.675,1.5,1.5S262.398,779.217,261.573,779.217z
	 M262.323,567.038c0,0.825-0.675,1.5-1.5,1.5H235.45c-0.825,0-1.5-0.675-1.5-1.5s0.675-1.5,1.5-1.5h25.373
	C261.648,565.538,262.323,566.213,262.323,567.038z M259.323,540.557H233.95c-0.825,0-1.5-0.675-1.5-1.5s0.674-1.5,1.5-1.5h25.373
	c0.825,0,1.5,0.675,1.5,1.5S260.148,540.557,259.323,540.557z M212.823,789.238c0,0.825-0.675,1.5-1.5,1.5H185.95
	c-0.825,0-1.5-0.675-1.5-1.5s0.675-1.5,1.5-1.5h25.373C212.148,787.738,212.823,788.413,212.823,789.238z M183.45,708.733h25.373
	c0.825,0,1.5,0.675,1.5,1.5s-0.675,1.5-1.5,1.5H183.45c-0.825,0-1.5-0.675-1.5-1.5S182.624,708.733,183.45,708.733z M182.7,657.564
	c0-0.825,0.675-1.5,1.5-1.5h25.373c0.825,0,1.5,0.675,1.5,1.5s-0.675,1.5-1.5,1.5H184.2
	C183.375,659.064,182.7,658.389,182.7,657.564z M209.823,738.068H184.45c-0.825,0-1.5-0.675-1.5-1.5s0.675-1.5,1.5-1.5h25.373
	c0.825,0,1.5,0.675,1.5,1.5S210.648,738.068,209.823,738.068z M211.823,762.902c0,0.825-0.675,1.5-1.5,1.5H184.95
	c-0.826,0-1.5-0.675-1.5-1.5s0.675-1.5,1.5-1.5h25.373C211.148,761.402,211.823,762.077,211.823,762.902z M184.2,814.072h25.373
	c0.825,0,1.5,0.675,1.5,1.5s-0.675,1.5-1.5,1.5H184.2c-0.826,0-1.5-0.675-1.5-1.5S183.375,814.072,184.2,814.072z M210.573,685.398
	H185.2c-0.825,0-1.5-0.675-1.5-1.5s0.675-1.5,1.5-1.5h25.373c0.825,0,1.5,0.675,1.5,1.5S211.398,685.398,210.573,685.398z
	 M209.823,632.729H184.45c-0.825,0-1.5-0.675-1.5-1.5s0.675-1.5,1.5-1.5h25.373c0.825,0,1.5,0.675,1.5,1.5
	S210.648,632.729,209.823,632.729z M208.823,606.395H183.45c-0.825,0-1.5-0.676-1.5-1.5c0-0.827,0.674-1.5,1.5-1.5h25.373
	c0.825,0,1.5,0.674,1.5,1.5C210.323,605.719,209.648,606.395,208.823,606.395z M160.323,699.389H134.95c-0.825,0-1.5-0.675-1.5-1.5
	s0.675-1.5,1.5-1.5h25.373c0.825,0,1.5,0.675,1.5,1.5S161.148,699.389,160.323,699.389z M161.073,723.4c0,0.825-0.675,1.5-1.5,1.5
	H134.2c-0.825,0-1.5-0.675-1.5-1.5s0.675-1.5,1.5-1.5h25.373C160.398,721.9,161.073,722.575,161.073,723.4z M160.323,672.23H134.95
	c-0.825,0-1.5-0.675-1.5-1.5s0.675-1.5,1.5-1.5h25.373c0.825,0,1.5,0.675,1.5,1.5S161.148,672.23,160.323,672.23z M134.2,749.059
	h25.373c0.825,0,1.5,0.675,1.5,1.5s-0.675,1.5-1.5,1.5H134.2c-0.826,0-1.5-0.675-1.5-1.5S133.375,749.059,134.2,749.059z
	 M134.95,827.24h25.373c0.825,0,1.5,0.675,1.5,1.5s-0.675,1.5-1.5,1.5H134.95c-0.825,0-1.5-0.675-1.5-1.5
	S134.125,827.24,134.95,827.24z M161.073,804.729H135.7c-0.825,0-1.5-0.675-1.5-1.5s0.675-1.5,1.5-1.5h25.373
	c0.825,0,1.5,0.675,1.5,1.5S161.898,804.729,161.073,804.729z M161.073,777.57H135.7c-0.825,0-1.5-0.675-1.5-1.5s0.675-1.5,1.5-1.5
	h25.373c0.825,0,1.5,0.675,1.5,1.5C162.573,776.896,161.898,777.57,161.073,777.57z M83.7,814.896h25.373c0.825,0,1.5,0.675,1.5,1.5
	s-0.675,1.5-1.5,1.5H83.7c-0.826,0-1.5-0.675-1.5-1.5S82.875,814.896,83.7,814.896z M82.95,763.726c0-0.825,0.675-1.5,1.5-1.5
	h25.373c0.825,0,1.5,0.675,1.5,1.5s-0.675,1.5-1.5,1.5H84.45C83.624,765.226,82.95,764.551,82.95,763.726z M110.823,791.561H85.45
	c-0.825,0-1.5-0.675-1.5-1.5s0.675-1.5,1.5-1.5h25.373c0.825,0,1.5,0.675,1.5,1.5S111.648,791.561,110.823,791.561z
	 M110.823,737.391c0,0.825-0.675,1.5-1.5,1.5H83.95c-0.825,0-1.5-0.675-1.5-1.5s0.675-1.5,1.5-1.5h25.373
	C110.148,735.891,110.823,736.565,110.823,737.391z M63.325,804.051c0,0.825-0.675,1.5-1.5,1.5H36.452c-0.825,0-1.5-0.675-1.5-1.5
	s0.675-1.5,1.5-1.5h25.373C62.65,802.551,63.325,803.226,63.325,804.051z M61.323,829.562c0,0.825-0.675,1.5-1.5,1.5H34.45
	c-0.826,0-1.5-0.674-1.5-1.5c0-0.825,0.675-1.5,1.5-1.5h25.373C60.648,828.062,61.323,828.737,61.323,829.562z M335.575,803.082
	c-0.825,0-1.5-0.675-1.5-1.5s0.675-1.5,1.5-1.5h23.741c-1.374,1.007-2.744,1.999-4.125,3H335.575z M482.573,709.265
	c-0.826,0-1.5-0.675-1.5-1.5s0.675-1.5,1.5-1.5h14.871c-1.041,0.659-2.076,1.315-3.135,1.983c-0.533,0.336-1.074,0.678-1.61,1.017
	H482.573z M534.573,668.939c-0.825,0-1.5-0.675-1.5-1.5s0.675-1.5,1.5-1.5h25.373c0.786,0,1.428,0.614,1.488,1.385
	c-0.865,0.539-1.727,1.079-2.596,1.615H534.573z M1284.303,304.813c0-0.825,0.675-1.5,1.5-1.5h25.373c0.825,0,1.5,0.675,1.5,1.5
	s-0.675,1.5-1.5,1.5h-25.373C1284.978,306.313,1284.303,305.638,1284.303,304.813z"/>
</svg>
