<?xml version="1.0" encoding="utf-8"?>
<!-- Generator: Adobe Illustrator 24.1.0, SVG Export Plug-In . SVG Version: 6.00 Build 0)  -->
<svg version="1.1" id="Layer_1" xmlns="http://www.w3.org/2000/svg" xmlns:xlink="http://www.w3.org/1999/xlink" x="0px" y="0px"
	 width="1351.064px" height="848.928px" viewBox="0 0 1351.064 848.928" enable-background="new 0 0 1351.064 848.928"
	 xml:space="preserve">
<path id="Shape_1_" d="M1350.483,824.797c-1.468-6.494-5.318-11.621-9.254-16.693c-4.076-5.252-8.334-10.362-12.494-15.548
	c-4.979-6.21-9.982-12.402-14.897-18.662c-6.896-8.784-13.896-17.493-20.535-26.469c-9.312-12.59-18.3-25.419-27.487-38.103
	c-10.306-14.23-20.681-28.41-31.021-42.614c-5.557-7.633-11.001-15.352-16.683-22.89c-6.599-8.756-13.36-17.392-20.131-26.017
	c-8.145-10.376-16.332-20.719-24.585-31.009c-3.79-4.725-8.046-9.093-11.626-13.966c-7.667-10.438-15.517-20.681-24.705-29.868
	c-3.342-3.342-6.16-7.208-9.208-10.842c-4.414-5.263-8.798-10.552-13.236-15.796c-2.878-3.401-5.902-6.68-8.73-10.121
	c-6.014-7.317-11.898-14.74-17.92-22.05c-5.394-6.548-10.947-12.966-16.349-19.509c-6.289-7.619-12.45-15.342-18.741-22.959
	c-4.569-5.532-9.277-10.949-13.891-16.444c-6.167-7.343-12.296-14.718-18.455-22.068c-2.915-3.478-5.889-6.907-8.792-10.394
	c-6.393-7.678-12.717-15.415-19.151-23.059c-4.107-4.879-8.446-9.561-12.524-14.463c-5.219-6.274-10.169-12.774-15.435-19.007
	c-6.727-7.963-13.555-15.845-20.516-23.603c-10.376-11.565-20.579-23.313-31.452-34.397c-13.729-13.995-28.025-27.434-42.146-41.039
	c-4.164-4.012-8.532-7.816-12.865-11.649c-8.42-7.45-16.851-14.886-25.334-22.263c-5.568-4.842-10.965-9.942-16.91-14.278
	c-15.888-11.589-32.06-22.786-48.051-34.234c-4.743-3.395-9.411-6.931-13.839-10.721c-6.397-5.474-12.313-11.527-18.856-16.811
	c-8.987-7.26-18.172-14.311-27.645-20.919c-6.891-4.807-14.367-8.782-21.615-13.072c-15.013-8.889-29.851-18.102-45.143-26.483
	c-10.634-5.828-21.878-10.551-32.903-15.654c-7.276-3.368-14.587-6.672-21.985-9.761c-12.594-5.258-25.299-10.246-37.898-15.492
	c-10.625-4.424-21.265-8.603-32.814-10.155c-11.214-1.507-22.399-3.321-33.52-5.409c-13.284-2.493-26.501-4.873-40.134-4.83
	c-10.737,0.034-21.478-1.072-32.214-1.731c-5.66-0.347-11.314-0.798-16.968-1.247c-9.982-0.792-19.955-2.232-29.942-2.317
	c-34.007-0.292-68.019-0.159-102.029-0.095c-23.772,0.044-47.569-0.626-71.228,2.745c-6.407,0.913-12.939,0.928-19.373,1.688
	c-8.686,1.026-17.359,2.218-25.992,3.623c-10.19,1.659-20.306,3.776-30.502,5.4c-6.964,1.109-14.025,1.592-21.011,2.574
	c-7.654,1.075-15.289,2.313-22.904,3.637c-11.354,1.974-22.77,3.71-34,6.25c-10.189,2.305-18.117,8.042-20.813,18.751
	c-3.295,13.092-6.5,26.232-8.973,39.495c-1.897,10.176-2.579,20.577-3.851,30.872c-0.302,2.434-0.8,4.845-1.207,7.267
	c0,17.21,0,34.422,0,51.632c0.409,3.14,0.922,6.27,1.206,9.421c0.49,5.443,0.716,10.911,1.273,16.346
	c0.924,9.023,1.826,18.055,3.098,27.032c1.435,10.133,2.729,20.336,5.062,30.28c3.148,13.416,6.512,26.869,11.141,39.82
	c3.654,10.223,8.798,20.038,14.288,29.447c7.384,12.655,17.227,23.47,28.461,32.905c5.937,4.986,11.867,10.061,18.284,14.374
	c14.727,9.897,30.924,17.131,47.245,23.836c16.36,6.722,33.241,12.167,49.838,18.321c11.628,4.312,23.318,8.514,34.701,13.416
	c17.49,7.531,32.722,18.541,46.321,31.838c6.644,6.497,13.058,13.268,20.105,19.298c5.303,4.538,11.152,8.635,17.281,11.965
	c10.173,5.528,21.657,7.212,32.941,7.275c22.449,0.126,44.926,1.241,67.377-0.895c6.845-0.652,13.842,0.205,20.764,0.5
	c7.606,0.325,15.217,0.66,22.806,1.244c8.395,0.645,16.773,1.537,25.151,2.391c15.44,1.574,30.541,4.91,44.764,11.048
	c13.06,5.637,25.665,12.336,38.428,18.652c6.036,2.988,12.414,5.551,17.869,9.398c13.494,9.517,27.82,17.551,42.286,25.403
	c4.671,2.535,9.299,5.152,13.894,7.821c5.637,3.274,11.163,6.74,16.845,9.929c3.401,1.909,7.279,3.054,10.473,5.23
	c10.529,7.171,20.668,14.923,31.286,21.955c14.292,9.466,28.844,18.543,43.372,27.649c12.312,7.716,24.757,15.218,37.123,22.847
	c12.203,7.528,24.173,15.464,36.633,22.536c10.639,6.038,21.649,11.314,31.675,18.508c10.743,7.708,22.263,14.321,33.246,21.707
	c32.963,22.165,65.878,44.403,98.703,66.771c9.869,6.725,19.35,14.018,29.069,20.968c8.327,5.955,16.604,11.996,25.165,17.6
	c4.727,3.095,10.018,5.017,15.983,4.6c8.613-0.602,17.253-1.252,25.876-1.192c15.902,0.109,31.813-0.829,47.712,1.031
	c10.057,1.177,20.234,1.334,30.357,1.956c6.578,0.404,13.156,0.823,19.733,1.232c3.442,0.215,6.888,0.378,10.327,0.641
	c10.29,0.789,20.576,1.627,30.865,2.423c3.235,0.25,6.479,0.38,9.712,0.652c9.368,0.786,18.733,1.601,28.096,2.434
	c4.528,0.403,9.055,0.83,13.575,1.313c7.114,0.76,14.223,1.566,21.331,2.381c1.04,0.117,2.061,0.396,3.091,0.601
	c3.278,0,6.556,0,9.835,0c0.926-0.205,1.844-0.524,2.78-0.594c3.54-0.267,7.103-0.306,10.628-0.701
	c8.204-0.919,16.397-1.952,24.583-3.022c5.778-0.756,11.614-1.308,17.29-2.557C1349.104,840.039,1352.553,833.953,1350.483,824.797z
	 M39.143,39.967h25.373c0.825,0,1.5,0.675,1.5,1.5s-0.675,1.5-1.5,1.5H39.143c-0.825,0-1.5-0.675-1.5-1.5
	S38.318,39.967,39.143,39.967z M40.143,224.311h25.373c0.825,0,1.5,0.675,1.5,1.5s-0.675,1.5-1.5,1.5H40.143
	c-0.825,0-1.5-0.675-1.5-1.5S39.318,224.311,40.143,224.311z M37.643,199.476c0-0.825,0.675-1.5,1.5-1.5h25.373
	c0.825,0,1.5,0.675,1.5,1.5c0,0.825-0.675,1.5-1.5,1.5H39.143C38.318,200.976,37.643,200.301,37.643,199.476z M65.516,174.641
	H40.143c-0.825,0-1.5-0.675-1.5-1.5s0.675-1.5,1.5-1.5h25.373c0.825,0,1.5,0.675,1.5,1.5S66.341,174.641,65.516,174.641z
	 M64.766,121.971H39.393c-0.825,0-1.5-0.675-1.5-1.5c0-0.825,0.675-1.5,1.5-1.5h25.373c0.825,0,1.5,0.675,1.5,1.5
	C66.266,121.296,65.591,121.971,64.766,121.971z M65.266,95.637H39.893c-0.825,0-1.5-0.675-1.5-1.5c0-0.825,0.675-1.5,1.5-1.5
	h25.373c0.825,0,1.5,0.675,1.5,1.5C66.766,94.962,66.091,95.637,65.266,95.637z M36.893,146.806c0-0.825,0.675-1.5,1.5-1.5h25.373
	c0.825,0,1.5,0.675,1.5,1.5s-0.675,1.5-1.5,1.5H38.393C37.568,148.306,36.893,147.631,36.893,146.806z M37.643,252.145
	c0-0.825,0.675-1.5,1.5-1.5h25.373c0.825,0,1.5,0.675,1.5,1.5c0,0.825-0.675,1.5-1.5,1.5H39.143
	C38.318,253.645,37.643,252.97,37.643,252.145z M65.266,306.315H39.893c-0.825,0-1.5-0.675-1.5-1.5s0.675-1.5,1.5-1.5h25.373
	c0.825,0,1.5,0.675,1.5,1.5S66.091,306.315,65.266,306.315z M66.266,279.98H40.893c-0.825,0-1.5-0.675-1.5-1.5s0.675-1.5,1.5-1.5
	h25.373c0.825,0,1.5,0.675,1.5,1.5S67.091,279.98,66.266,279.98z M66.266,69.302H40.893c-0.825,0-1.5-0.675-1.5-1.5
	c0-0.825,0.675-1.5,1.5-1.5h25.373c0.825,0,1.5,0.675,1.5,1.5C67.766,68.627,67.091,69.302,66.266,69.302z M89.393,26.8h25.373
	c0.825,0,1.5,0.675,1.5,1.5s-0.675,1.5-1.5,1.5H89.393c-0.825,0-1.5-0.675-1.5-1.5S88.568,26.8,89.393,26.8z M88.141,53.958h25.373
	c0.825,0,1.5,0.675,1.5,1.5c0,0.825-0.675,1.5-1.5,1.5H88.141c-0.825,0-1.5-0.675-1.5-1.5
	C86.641,54.633,87.316,53.958,88.141,53.958z M89.393,237.478h25.373c0.825,0,1.5,0.675,1.5,1.5s-0.675,1.5-1.5,1.5H89.393
	c-0.825,0-1.5-0.675-1.5-1.5S88.568,237.478,89.393,237.478z M86.641,213.466c0-0.825,0.675-1.5,1.5-1.5h25.373
	c0.825,0,1.5,0.675,1.5,1.5c0,0.825-0.675,1.5-1.5,1.5H88.141C87.316,214.966,86.641,214.291,86.641,213.466z M114.766,187.809
	H89.393c-0.825,0-1.5-0.675-1.5-1.5c0-0.825,0.675-1.5,1.5-1.5h25.373c0.825,0,1.5,0.675,1.5,1.5
	C116.266,187.134,115.591,187.809,114.766,187.809z M114.016,135.139H88.643c-0.825,0-1.5-0.675-1.5-1.5s0.675-1.5,1.5-1.5h25.373
	c0.825,0,1.5,0.675,1.5,1.5S114.841,135.139,114.016,135.139z M114.264,109.628H88.891c-0.825,0-1.5-0.675-1.5-1.5
	c0-0.826,0.675-1.5,1.5-1.5h25.373c0.825,0,1.5,0.675,1.5,1.5S115.089,109.628,114.264,109.628z M85.891,160.796
	c0-0.825,0.675-1.5,1.5-1.5h25.373c0.825,0,1.5,0.675,1.5,1.5c0,0.825-0.675,1.5-1.5,1.5H87.391
	C86.566,162.296,85.891,161.621,85.891,160.796z M86.641,266.136c0-0.825,0.675-1.5,1.5-1.5h25.373c0.825,0,1.5,0.675,1.5,1.5
	s-0.675,1.5-1.5,1.5H88.141C87.316,267.636,86.641,266.961,86.641,266.136z M114.016,345.817H88.643c-0.825,0-1.5-0.675-1.5-1.5
	s0.675-1.5,1.5-1.5h25.373c0.825,0,1.5,0.675,1.5,1.5S114.841,345.817,114.016,345.817z M114.264,320.305H88.891
	c-0.825,0-1.5-0.675-1.5-1.5s0.675-1.5,1.5-1.5h25.373c0.825,0,1.5,0.675,1.5,1.5S115.089,320.305,114.264,320.305z
	 M115.516,293.148H90.143c-0.825,0-1.5-0.675-1.5-1.5s0.675-1.5,1.5-1.5h25.373c0.825,0,1.5,0.675,1.5,1.5
	S116.341,293.148,115.516,293.148z M115.516,82.469H90.143c-0.825,0-1.5-0.675-1.5-1.5s0.675-1.5,1.5-1.5h25.373
	c0.825,0,1.5,0.675,1.5,1.5S116.341,82.469,115.516,82.469z M138.391,40.791h25.373c0.825,0,1.5,0.674,1.5,1.5
	c0,0.825-0.675,1.5-1.5,1.5h-25.373c-0.825,0-1.5-0.675-1.5-1.5C136.891,41.466,137.566,40.791,138.391,40.791z M137.641,119.795
	h25.373c0.825,0,1.5,0.675,1.5,1.5s-0.675,1.5-1.5,1.5h-25.373c-0.825,0-1.5-0.675-1.5-1.5S136.816,119.795,137.641,119.795z
	 M163.764,228.133h-25.373c-0.825,0-1.5-0.675-1.5-1.5c0-0.825,0.675-1.5,1.5-1.5h25.373c0.825,0,1.5,0.675,1.5,1.5
	C165.264,227.458,164.589,228.133,163.764,228.133z M165.264,252.968c0,0.825-0.675,1.5-1.5,1.5h-25.373c-0.825,0-1.5-0.675-1.5-1.5
	c0-0.825,0.675-1.5,1.5-1.5h25.373C164.589,251.468,165.264,252.143,165.264,252.968z M163.764,201.799h-25.373
	c-0.825,0-1.5-0.675-1.5-1.5c0-0.825,0.675-1.5,1.5-1.5h25.373c0.825,0,1.5,0.675,1.5,1.5
	C165.264,201.124,164.589,201.799,163.764,201.799z M163.764,175.464h-25.373c-0.825,0-1.5-0.675-1.5-1.5s0.675-1.5,1.5-1.5h25.373
	c0.825,0,1.5,0.675,1.5,1.5C165.264,174.79,164.589,175.464,163.764,175.464z M137.641,146.129h25.373c0.825,0,1.5,0.675,1.5,1.5
	s-0.675,1.5-1.5,1.5h-25.373c-0.825,0-1.5-0.675-1.5-1.5S136.816,146.129,137.641,146.129z M137.641,330.473h25.373
	c0.825,0,1.5,0.675,1.5,1.5s-0.675,1.5-1.5,1.5h-25.373c-0.825,0-1.5-0.675-1.5-1.5S136.816,330.473,137.641,330.473z
	 M136.141,358.307c0-0.825,0.675-1.5,1.5-1.5h25.373c0.825,0,1.5,0.675,1.5,1.5s-0.675,1.5-1.5,1.5h-25.373
	C136.816,359.807,136.141,359.132,136.141,358.307z M163.764,386.142h-25.373c-0.825,0-1.5-0.675-1.5-1.5s0.675-1.5,1.5-1.5h25.373
	c0.825,0,1.5,0.675,1.5,1.5S164.589,386.142,163.764,386.142z M164.514,307.138h-25.373c-0.825,0-1.5-0.675-1.5-1.5
	s0.675-1.5,1.5-1.5h25.373c0.825,0,1.5,0.675,1.5,1.5S165.339,307.138,164.514,307.138z M164.514,280.803h-25.373
	c-0.825,0-1.5-0.675-1.5-1.5s0.675-1.5,1.5-1.5h25.373c0.825,0,1.5,0.675,1.5,1.5S165.339,280.803,164.514,280.803z M164.514,96.46
	h-25.373c-0.825,0-1.5-0.675-1.5-1.5c0-0.825,0.675-1.5,1.5-1.5h25.373c0.825,0,1.5,0.674,1.5,1.5
	C166.014,95.785,165.339,96.46,164.514,96.46z M164.514,70.126h-25.373c-0.825,0-1.5-0.675-1.5-1.5s0.675-1.5,1.5-1.5h25.373
	c0.825,0,1.5,0.675,1.5,1.5S165.339,70.126,164.514,70.126z M238.891,15.279h25.373c0.825,0,1.5,0.675,1.5,1.5
	c0,0.825-0.675,1.5-1.5,1.5h-25.373c-0.825,0-1.5-0.675-1.5-1.5C237.391,15.954,238.066,15.279,238.891,15.279z M238.891,41.614
	h25.373c0.825,0,1.5,0.675,1.5,1.5c0,0.825-0.675,1.5-1.5,1.5h-25.373c-0.825,0-1.5-0.675-1.5-1.5
	C237.391,42.289,238.066,41.614,238.891,41.614z M238.141,120.618h25.373c0.825,0,1.5,0.675,1.5,1.5s-0.675,1.5-1.5,1.5h-25.373
	c-0.825,0-1.5-0.675-1.5-1.5S237.316,120.618,238.141,120.618z M264.264,228.957h-25.373c-0.825,0-1.5-0.675-1.5-1.5
	s0.675-1.5,1.5-1.5h25.373c0.825,0,1.5,0.675,1.5,1.5S265.089,228.957,264.264,228.957z M265.764,253.792c0,0.825-0.675,1.5-1.5,1.5
	h-25.373c-0.825,0-1.5-0.675-1.5-1.5s0.675-1.5,1.5-1.5h25.373C265.089,252.292,265.764,252.967,265.764,253.792z M264.264,202.622
	h-25.373c-0.825,0-1.5-0.675-1.5-1.5c0-0.825,0.675-1.5,1.5-1.5h25.373c0.825,0,1.5,0.675,1.5,1.5
	C265.764,201.947,265.089,202.622,264.264,202.622z M264.264,176.288h-25.373c-0.825,0-1.5-0.675-1.5-1.5s0.675-1.5,1.5-1.5h25.373
	c0.825,0,1.5,0.675,1.5,1.5S265.089,176.288,264.264,176.288z M238.141,146.953h25.373c0.825,0,1.5,0.675,1.5,1.5
	c0,0.825-0.675,1.5-1.5,1.5h-25.373c-0.825,0-1.5-0.675-1.5-1.5C236.641,147.628,237.316,146.953,238.141,146.953z M238.141,331.295
	h25.373c0.825,0,1.5,0.675,1.5,1.5s-0.675,1.5-1.5,1.5h-25.373c-0.825,0-1.5-0.675-1.5-1.5S237.316,331.295,238.141,331.295z
	 M188.641,28.446h25.373c0.825,0,1.5,0.675,1.5,1.5s-0.675,1.5-1.5,1.5h-25.373c-0.825,0-1.5-0.675-1.5-1.5
	S187.816,28.446,188.641,28.446z M188.641,54.781h25.373c0.825,0,1.5,0.675,1.5,1.5c0,0.825-0.675,1.5-1.5,1.5h-25.373
	c-0.825,0-1.5-0.675-1.5-1.5C187.141,55.456,187.816,54.781,188.641,54.781z M187.891,133.785h25.373c0.825,0,1.5,0.675,1.5,1.5
	s-0.675,1.5-1.5,1.5h-25.373c-0.825,0-1.5-0.675-1.5-1.5S187.066,133.785,187.891,133.785z M214.014,242.124h-25.373
	c-0.825,0-1.5-0.675-1.5-1.5c0-0.825,0.675-1.5,1.5-1.5h25.373c0.825,0,1.5,0.675,1.5,1.5
	C215.514,241.449,214.839,242.124,214.014,242.124z M215.514,266.959c0,0.825-0.675,1.5-1.5,1.5h-25.373c-0.825,0-1.5-0.675-1.5-1.5
	s0.675-1.5,1.5-1.5h25.373C214.839,265.459,215.514,266.134,215.514,266.959z M214.014,215.79h-25.373c-0.825,0-1.5-0.675-1.5-1.5
	s0.675-1.5,1.5-1.5h25.373c0.825,0,1.5,0.675,1.5,1.5S214.839,215.79,214.014,215.79z M214.014,189.455h-25.373
	c-0.825,0-1.5-0.675-1.5-1.5c0-0.825,0.675-1.5,1.5-1.5h25.373c0.825,0,1.5,0.675,1.5,1.5
	C215.514,188.78,214.839,189.455,214.014,189.455z M187.891,160.12h25.373c0.825,0,1.5,0.675,1.5,1.5c0,0.825-0.675,1.5-1.5,1.5
	h-25.373c-0.825,0-1.5-0.675-1.5-1.5C186.391,160.795,187.066,160.12,187.891,160.12z M187.891,344.463h25.373
	c0.825,0,1.5,0.675,1.5,1.5s-0.675,1.5-1.5,1.5h-25.373c-0.825,0-1.5-0.675-1.5-1.5S187.066,344.463,187.891,344.463z
	 M186.391,372.298c0-0.825,0.675-1.5,1.5-1.5h25.373c0.825,0,1.5,0.675,1.5,1.5s-0.675,1.5-1.5,1.5h-25.373
	C187.066,373.798,186.391,373.123,186.391,372.298z M214.014,400.132h-25.373c-0.825,0-1.5-0.675-1.5-1.5s0.675-1.5,1.5-1.5h25.373
	c0.825,0,1.5,0.675,1.5,1.5S214.839,400.132,214.014,400.132z M214.764,321.128h-25.373c-0.825,0-1.5-0.675-1.5-1.5
	s0.675-1.5,1.5-1.5h25.373c0.825,0,1.5,0.675,1.5,1.5C216.264,320.454,215.589,321.128,214.764,321.128z M214.764,294.794h-25.373
	c-0.825,0-1.5-0.675-1.5-1.5s0.675-1.5,1.5-1.5h25.373c0.825,0,1.5,0.675,1.5,1.5S215.589,294.794,214.764,294.794z M214.764,110.45
	h-25.373c-0.825,0-1.5-0.675-1.5-1.5c0-0.825,0.675-1.5,1.5-1.5h25.373c0.825,0,1.5,0.675,1.5,1.5
	C216.264,109.775,215.589,110.45,214.764,110.45z M214.764,84.116h-25.373c-0.825,0-1.5-0.675-1.5-1.5s0.675-1.5,1.5-1.5h25.373
	c0.825,0,1.5,0.675,1.5,1.5S215.589,84.116,214.764,84.116z M236.641,359.13c0-0.825,0.675-1.5,1.5-1.5h25.373
	c0.825,0,1.5,0.675,1.5,1.5s-0.675,1.5-1.5,1.5h-25.373C237.316,360.63,236.641,359.956,236.641,359.13z M264.264,413.3h-25.373
	c-0.825,0-1.5-0.675-1.5-1.5s0.675-1.5,1.5-1.5h25.373c0.825,0,1.5,0.675,1.5,1.5C265.764,412.626,265.089,413.3,264.264,413.3z
	 M264.264,386.965h-25.373c-0.825,0-1.5-0.675-1.5-1.5s0.675-1.5,1.5-1.5h25.373c0.825,0,1.5,0.675,1.5,1.5
	S265.089,386.965,264.264,386.965z M265.014,307.961h-25.373c-0.825,0-1.5-0.675-1.5-1.5s0.675-1.5,1.5-1.5h25.373
	c0.825,0,1.5,0.675,1.5,1.5C266.514,307.287,265.839,307.961,265.014,307.961z M265.014,281.627h-25.373c-0.825,0-1.5-0.675-1.5-1.5
	s0.675-1.5,1.5-1.5h25.373c0.825,0,1.5,0.674,1.5,1.5C266.514,280.952,265.839,281.627,265.014,281.627z M265.014,97.283h-25.373
	c-0.825,0-1.5-0.675-1.5-1.5c0-0.825,0.675-1.5,1.5-1.5h25.373c0.825,0,1.5,0.675,1.5,1.5
	C266.514,96.608,265.839,97.283,265.014,97.283z M265.014,70.948h-25.373c-0.825,0-1.5-0.675-1.5-1.5c0-0.825,0.675-1.5,1.5-1.5
	h25.373c0.825,0,1.5,0.675,1.5,1.5C266.514,70.273,265.839,70.948,265.014,70.948z M288.766,30.915h25.373
	c0.825,0,1.5,0.675,1.5,1.5s-0.675,1.5-1.5,1.5h-25.373c-0.825,0-1.5-0.675-1.5-1.5S287.941,30.915,288.766,30.915z M288.766,55.604
	h25.373c0.825,0,1.5,0.675,1.5,1.5c0,0.825-0.675,1.5-1.5,1.5h-25.373c-0.825,0-1.5-0.675-1.5-1.5
	C287.266,56.279,287.941,55.604,288.766,55.604z M288.016,136.254h25.373c0.825,0,1.5,0.675,1.5,1.5s-0.675,1.5-1.5,1.5h-25.373
	c-0.825,0-1.5-0.675-1.5-1.5S287.191,136.254,288.016,136.254z M288.016,160.943h25.373c0.825,0,1.5,0.675,1.5,1.5
	s-0.675,1.5-1.5,1.5h-25.373c-0.825,0-1.5-0.675-1.5-1.5S287.191,160.943,288.016,160.943z M288.016,241.593h25.373
	c0.825,0,1.5,0.675,1.5,1.5c0,0.825-0.675,1.5-1.5,1.5h-25.373c-0.825,0-1.5-0.675-1.5-1.5
	C286.516,242.268,287.191,241.593,288.016,241.593z M288.016,266.282h25.373c0.825,0,1.5,0.675,1.5,1.5s-0.675,1.5-1.5,1.5h-25.373
	c-0.825,0-1.5-0.675-1.5-1.5S287.191,266.282,288.016,266.282z M287.266,346.932h25.373c0.825,0,1.5,0.675,1.5,1.5
	s-0.675,1.5-1.5,1.5h-25.373c-0.825,0-1.5-0.675-1.5-1.5S286.441,346.932,287.266,346.932z M287.266,371.621h25.373
	c0.825,0,1.5,0.675,1.5,1.5s-0.675,1.5-1.5,1.5h-25.373c-0.825,0-1.5-0.675-1.5-1.5S286.441,371.621,287.266,371.621z
	 M311.889,458.729h-25.373c-0.825,0-1.5-0.675-1.5-1.5s0.675-1.5,1.5-1.5h25.373c0.825,0,1.5,0.675,1.5,1.5
	S312.714,458.729,311.889,458.729z M313.389,427.291h-25.373c-0.825,0-1.5-0.675-1.5-1.5s0.675-1.5,1.5-1.5h25.373
	c0.825,0,1.5,0.675,1.5,1.5S314.214,427.291,313.389,427.291z M313.389,402.602h-25.373c-0.825,0-1.5-0.675-1.5-1.5
	s0.675-1.5,1.5-1.5h25.373c0.825,0,1.5,0.675,1.5,1.5S314.214,402.602,313.389,402.602z M314.139,321.952h-25.373
	c-0.825,0-1.5-0.675-1.5-1.5s0.675-1.5,1.5-1.5h25.373c0.825,0,1.5,0.675,1.5,1.5S314.964,321.952,314.139,321.952z
	 M314.139,297.262h-25.373c-0.825,0-1.5-0.675-1.5-1.5s0.675-1.5,1.5-1.5h25.373c0.825,0,1.5,0.675,1.5,1.5
	S314.964,297.262,314.139,297.262z M314.139,216.612h-25.373c-0.825,0-1.5-0.675-1.5-1.5c0-0.825,0.675-1.5,1.5-1.5h25.373
	c0.825,0,1.5,0.675,1.5,1.5C315.639,215.937,314.964,216.612,314.139,216.612z M314.139,191.923h-25.373c-0.825,0-1.5-0.675-1.5-1.5
	s0.675-1.5,1.5-1.5h25.373c0.825,0,1.5,0.675,1.5,1.5S314.964,191.923,314.139,191.923z M314.889,111.273h-25.373
	c-0.825,0-1.5-0.675-1.5-1.5c0-0.825,0.675-1.5,1.5-1.5h25.373c0.825,0,1.5,0.675,1.5,1.5
	C316.389,110.598,315.714,111.273,314.889,111.273z M314.889,86.585h-25.373c-0.825,0-1.5-0.675-1.5-1.5c0-0.825,0.675-1.5,1.5-1.5
	h25.373c0.825,0,1.5,0.674,1.5,1.5C316.389,85.91,315.714,86.585,314.889,86.585z M389.266,29.269h25.373c0.825,0,1.5,0.675,1.5,1.5
	s-0.675,1.5-1.5,1.5h-25.373c-0.825,0-1.5-0.675-1.5-1.5S388.441,29.269,389.266,29.269z M389.266,56.426h25.373
	c0.825,0,1.5,0.675,1.5,1.5c0,0.825-0.675,1.5-1.5,1.5h-25.373c-0.825,0-1.5-0.675-1.5-1.5
	C387.766,57.101,388.441,56.426,389.266,56.426z M388.516,134.608h25.373c0.825,0,1.5,0.675,1.5,1.5s-0.675,1.5-1.5,1.5h-25.373
	c-0.825,0-1.5-0.675-1.5-1.5S387.691,134.608,388.516,134.608z M388.516,161.766h25.373c0.825,0,1.5,0.675,1.5,1.5
	s-0.675,1.5-1.5,1.5h-25.373c-0.825,0-1.5-0.675-1.5-1.5S387.691,161.766,388.516,161.766z M388.516,239.947h25.373
	c0.825,0,1.5,0.675,1.5,1.5c0,0.825-0.675,1.5-1.5,1.5h-25.373c-0.825,0-1.5-0.675-1.5-1.5
	C387.016,240.622,387.691,239.947,388.516,239.947z M388.516,267.105h25.373c0.825,0,1.5,0.675,1.5,1.5s-0.675,1.5-1.5,1.5h-25.373
	c-0.825,0-1.5-0.675-1.5-1.5S387.691,267.105,388.516,267.105z M387.766,345.286h25.373c0.825,0,1.5,0.675,1.5,1.5
	s-0.675,1.5-1.5,1.5h-25.373c-0.825,0-1.5-0.675-1.5-1.5S386.941,345.286,387.766,345.286z M387.766,372.444h25.373
	c0.825,0,1.5,0.675,1.5,1.5s-0.675,1.5-1.5,1.5h-25.373c-0.825,0-1.5-0.675-1.5-1.5S386.941,372.444,387.766,372.444z
	 M340.016,16.101h25.373c0.825,0,1.5,0.675,1.5,1.5c0,0.825-0.675,1.5-1.5,1.5h-25.373c-0.825,0-1.5-0.675-1.5-1.5
	C338.516,16.776,339.191,16.101,340.016,16.101z M339.016,42.436h25.373c0.825,0,1.5,0.675,1.5,1.5s-0.675,1.5-1.5,1.5h-25.373
	c-0.825,0-1.5-0.675-1.5-1.5S338.191,42.436,339.016,42.436z M365.139,98.106h-25.373c-0.825,0-1.5-0.675-1.5-1.5
	c0-0.825,0.675-1.5,1.5-1.5h25.373c0.825,0,1.5,0.675,1.5,1.5C366.639,97.431,365.964,98.106,365.139,98.106z M366.139,122.941
	c0,0.825-0.675,1.5-1.5,1.5h-25.373c-0.825,0-1.5-0.675-1.5-1.5s0.675-1.5,1.5-1.5h25.373
	C365.464,121.441,366.139,122.116,366.139,122.941z M338.266,147.775h25.373c0.825,0,1.5,0.675,1.5,1.5s-0.675,1.5-1.5,1.5h-25.373
	c-0.825,0-1.5-0.675-1.5-1.5S337.441,147.775,338.266,147.775z M364.389,203.445h-25.373c-0.825,0-1.5-0.675-1.5-1.5
	c0-0.825,0.675-1.5,1.5-1.5h25.373c0.825,0,1.5,0.675,1.5,1.5C365.889,202.77,365.214,203.445,364.389,203.445z M366.139,228.28
	c0,0.825-0.675,1.5-1.5,1.5h-25.373c-0.825,0-1.5-0.675-1.5-1.5s0.675-1.5,1.5-1.5h25.373
	C365.464,226.78,366.139,227.455,366.139,228.28z M338.266,253.115h25.373c0.825,0,1.5,0.675,1.5,1.5s-0.675,1.5-1.5,1.5h-25.373
	c-0.825,0-1.5-0.675-1.5-1.5S337.441,253.115,338.266,253.115z M364.389,308.784h-25.373c-0.825,0-1.5-0.675-1.5-1.5
	s0.675-1.5,1.5-1.5h25.373c0.825,0,1.5,0.675,1.5,1.5S365.214,308.784,364.389,308.784z M365.389,333.619c0,0.825-0.675,1.5-1.5,1.5
	h-25.373c-0.825,0-1.5-0.675-1.5-1.5s0.675-1.5,1.5-1.5h25.373C364.714,332.119,365.389,332.794,365.389,333.619z M337.516,358.454
	h25.373c0.825,0,1.5,0.675,1.5,1.5s-0.675,1.5-1.5,1.5h-25.373c-0.825,0-1.5-0.675-1.5-1.5S336.691,358.454,337.516,358.454z
	 M362.139,470.251h-25.373c-0.825,0-1.5-0.675-1.5-1.5s0.675-1.5,1.5-1.5h25.373c0.825,0,1.5,0.675,1.5,1.5
	S362.964,470.251,362.139,470.251z M363.139,444.739h-25.373c-0.825,0-1.5-0.675-1.5-1.5s0.675-1.5,1.5-1.5h25.373
	c0.825,0,1.5,0.675,1.5,1.5S363.964,444.739,363.139,444.739z M363.639,414.123h-25.373c-0.825,0-1.5-0.675-1.5-1.5
	s0.675-1.5,1.5-1.5h25.373c0.825,0,1.5,0.675,1.5,1.5S364.464,414.123,363.639,414.123z M364.639,387.789h-25.373
	c-0.825,0-1.5-0.675-1.5-1.5s0.675-1.5,1.5-1.5h25.373c0.825,0,1.5,0.675,1.5,1.5S365.464,387.789,364.639,387.789z
	 M365.389,282.449h-25.373c-0.825,0-1.5-0.675-1.5-1.5s0.675-1.5,1.5-1.5h25.373c0.825,0,1.5,0.675,1.5,1.5
	S366.214,282.449,365.389,282.449z M365.389,177.11h-25.373c-0.825,0-1.5-0.675-1.5-1.5s0.675-1.5,1.5-1.5h25.373
	c0.825,0,1.5,0.675,1.5,1.5S366.214,177.11,365.389,177.11z M366.139,71.771h-25.373c-0.825,0-1.5-0.675-1.5-1.5s0.675-1.5,1.5-1.5
	h25.373c0.825,0,1.5,0.675,1.5,1.5S366.964,71.771,366.139,71.771z M412.389,484.241h-25.373c-0.825,0-1.5-0.675-1.5-1.5
	s0.675-1.5,1.5-1.5h25.373c0.825,0,1.5,0.675,1.5,1.5S413.214,484.241,412.389,484.241z M412.389,457.083h-25.373
	c-0.825,0-1.5-0.675-1.5-1.5s0.675-1.5,1.5-1.5h25.373c0.825,0,1.5,0.675,1.5,1.5S413.214,457.083,412.389,457.083z
	 M413.889,428.114h-25.373c-0.825,0-1.5-0.675-1.5-1.5s0.675-1.5,1.5-1.5h25.373c0.825,0,1.5,0.675,1.5,1.5
	S414.714,428.114,413.889,428.114z M413.889,400.956h-25.373c-0.825,0-1.5-0.675-1.5-1.5c0-0.826,0.675-1.5,1.5-1.5h25.373
	c0.825,0,1.5,0.675,1.5,1.5S414.714,400.956,413.889,400.956z M414.639,322.774h-25.373c-0.825,0-1.5-0.675-1.5-1.5
	s0.675-1.5,1.5-1.5h25.373c0.825,0,1.5,0.675,1.5,1.5S415.464,322.774,414.639,322.774z M414.639,295.617h-25.373
	c-0.825,0-1.5-0.675-1.5-1.5s0.675-1.5,1.5-1.5h25.373c0.825,0,1.5,0.675,1.5,1.5S415.464,295.617,414.639,295.617z
	 M414.639,217.435h-25.373c-0.825,0-1.5-0.675-1.5-1.5c0-0.825,0.675-1.5,1.5-1.5h25.373c0.825,0,1.5,0.675,1.5,1.5
	C416.139,216.76,415.464,217.435,414.639,217.435z M414.639,190.278h-25.373c-0.825,0-1.5-0.675-1.5-1.5c0-0.825,0.675-1.5,1.5-1.5
	h25.373c0.825,0,1.5,0.675,1.5,1.5C416.139,189.603,415.464,190.278,414.639,190.278z M415.389,112.096h-25.373
	c-0.825,0-1.5-0.675-1.5-1.5c0-0.825,0.675-1.5,1.5-1.5h25.373c0.825,0,1.5,0.675,1.5,1.5
	C416.889,111.421,416.214,112.096,415.389,112.096z M415.389,84.938h-25.373c-0.825,0-1.5-0.675-1.5-1.5s0.675-1.5,1.5-1.5h25.373
	c0.825,0,1.5,0.675,1.5,1.5S416.214,84.938,415.389,84.938z M440.516,16.924h20.44c2.076,0.294,4.187,0.622,6.334,0.98
	c0.061,0.163,0.099,0.336,0.099,0.52c0,0.825-0.675,1.5-1.5,1.5h-25.373c-0.825,0-1.5-0.675-1.5-1.5
	C439.016,17.599,439.691,16.924,440.516,16.924z M439.516,43.259h25.373c0.825,0,1.5,0.675,1.5,1.5s-0.675,1.5-1.5,1.5h-25.373
	c-0.825,0-1.5-0.675-1.5-1.5S438.691,43.259,439.516,43.259z M465.639,98.929h-25.373c-0.825,0-1.5-0.675-1.5-1.5
	c0-0.825,0.675-1.5,1.5-1.5h25.373c0.825,0,1.5,0.675,1.5,1.5C467.139,98.254,466.464,98.929,465.639,98.929z M466.639,123.763
	c0,0.825-0.675,1.5-1.5,1.5h-25.373c-0.825,0-1.5-0.675-1.5-1.5c0-0.825,0.675-1.5,1.5-1.5h25.373
	C465.964,122.263,466.639,122.938,466.639,123.763z M438.766,148.598h25.373c0.825,0,1.5,0.675,1.5,1.5c0,0.825-0.675,1.5-1.5,1.5
	h-25.373c-0.825,0-1.5-0.675-1.5-1.5C437.266,149.273,437.941,148.598,438.766,148.598z M464.889,204.268h-25.373
	c-0.825,0-1.5-0.675-1.5-1.5c0-0.825,0.675-1.5,1.5-1.5h25.373c0.825,0,1.5,0.675,1.5,1.5
	C466.389,203.593,465.714,204.268,464.889,204.268z M466.639,229.103c0,0.825-0.675,1.5-1.5,1.5h-25.373c-0.825,0-1.5-0.675-1.5-1.5
	s0.675-1.5,1.5-1.5h25.373C465.964,227.603,466.639,228.278,466.639,229.103z M438.766,253.937h25.373c0.825,0,1.5,0.675,1.5,1.5
	c0,0.825-0.675,1.5-1.5,1.5h-25.373c-0.825,0-1.5-0.675-1.5-1.5C437.266,254.612,437.941,253.937,438.766,253.937z M464.889,309.607
	h-25.373c-0.825,0-1.5-0.675-1.5-1.5s0.675-1.5,1.5-1.5h25.373c0.825,0,1.5,0.675,1.5,1.5S465.714,309.607,464.889,309.607z
	 M465.889,334.442c0,0.825-0.675,1.5-1.5,1.5h-25.373c-0.825,0-1.5-0.675-1.5-1.5s0.675-1.5,1.5-1.5h25.373
	C465.214,332.942,465.889,333.617,465.889,334.442z M438.016,359.277h25.373c0.825,0,1.5,0.675,1.5,1.5s-0.675,1.5-1.5,1.5h-25.373
	c-0.825,0-1.5-0.675-1.5-1.5S437.191,359.277,438.016,359.277z M462.639,471.073h-25.373c-0.825,0-1.5-0.675-1.5-1.5
	s0.675-1.5,1.5-1.5h25.373c0.825,0,1.5,0.675,1.5,1.5S463.464,471.073,462.639,471.073z M463.639,445.562h-25.373
	c-0.825,0-1.5-0.675-1.5-1.5s0.675-1.5,1.5-1.5h25.373c0.825,0,1.5,0.674,1.5,1.5C465.139,444.887,464.464,445.562,463.639,445.562z
	 M464.139,414.946h-25.373c-0.825,0-1.5-0.675-1.5-1.5s0.675-1.5,1.5-1.5h25.373c0.825,0,1.5,0.675,1.5,1.5
	S464.964,414.946,464.139,414.946z M465.139,388.611h-25.373c-0.825,0-1.5-0.675-1.5-1.5s0.675-1.5,1.5-1.5h25.373
	c0.825,0,1.5,0.675,1.5,1.5S465.964,388.611,465.139,388.611z M465.889,283.272h-25.373c-0.825,0-1.5-0.675-1.5-1.5
	s0.675-1.5,1.5-1.5h25.373c0.825,0,1.5,0.675,1.5,1.5S466.714,283.272,465.889,283.272z M465.889,177.933h-25.373
	c-0.825,0-1.5-0.675-1.5-1.5s0.675-1.5,1.5-1.5h25.373c0.825,0,1.5,0.675,1.5,1.5S466.714,177.933,465.889,177.933z M466.639,72.594
	h-25.373c-0.825,0-1.5-0.675-1.5-1.5s0.675-1.5,1.5-1.5h25.373c0.825,0,1.5,0.675,1.5,1.5
	C468.139,71.92,467.464,72.594,466.639,72.594z M538.764,44.083h25.373c0.825,0,1.5,0.675,1.5,1.5c0,0.825-0.675,1.5-1.5,1.5
	h-25.373c-0.825,0-1.5-0.675-1.5-1.5C537.264,44.758,537.939,44.083,538.764,44.083z M538.014,123.086h25.373
	c0.825,0,1.5,0.675,1.5,1.5c0,0.826-0.675,1.5-1.5,1.5h-25.373c-0.825,0-1.5-0.675-1.5-1.5
	C536.514,123.761,537.189,123.086,538.014,123.086z M538.014,149.421h25.373c0.825,0,1.5,0.675,1.5,1.5c0,0.825-0.675,1.5-1.5,1.5
	h-25.373c-0.825,0-1.5-0.675-1.5-1.5C536.514,150.096,537.189,149.421,538.014,149.421z M538.014,228.425h25.373
	c0.825,0,1.5,0.675,1.5,1.5s-0.675,1.5-1.5,1.5h-25.373c-0.825,0-1.5-0.675-1.5-1.5S537.189,228.425,538.014,228.425z
	 M538.014,254.76h25.373c0.825,0,1.5,0.675,1.5,1.5c0,0.825-0.675,1.5-1.5,1.5h-25.373c-0.825,0-1.5-0.675-1.5-1.5
	C536.514,255.435,537.189,254.76,538.014,254.76z M537.264,333.764h25.373c0.825,0,1.5,0.675,1.5,1.5s-0.675,1.5-1.5,1.5h-25.373
	c-0.825,0-1.5-0.675-1.5-1.5S536.439,333.764,537.264,333.764z M537.264,360.099h25.373c0.825,0,1.5,0.675,1.5,1.5
	s-0.675,1.5-1.5,1.5h-25.373c-0.825,0-1.5-0.675-1.5-1.5S536.439,360.099,537.264,360.099z M536.514,443.384h25.373
	c0.825,0,1.5,0.675,1.5,1.5s-0.675,1.5-1.5,1.5h-25.373c-0.825,0-1.5-0.675-1.5-1.5S535.689,443.384,536.514,443.384z
	 M489.766,30.092h25.373c0.825,0,1.5,0.675,1.5,1.5s-0.675,1.5-1.5,1.5h-25.373c-0.825,0-1.5-0.675-1.5-1.5
	S488.941,30.092,489.766,30.092z M488.514,57.25h25.373c0.825,0,1.5,0.675,1.5,1.5s-0.675,1.5-1.5,1.5h-25.373
	c-0.825,0-1.5-0.675-1.5-1.5S487.689,57.25,488.514,57.25z M514.637,112.92h-25.373c-0.825,0-1.5-0.675-1.5-1.5
	c0-0.826,0.675-1.5,1.5-1.5h25.373c0.825,0,1.5,0.675,1.5,1.5S515.462,112.92,514.637,112.92z M515.889,136.931
	c0,0.825-0.675,1.5-1.5,1.5h-25.373c-0.825,0-1.5-0.675-1.5-1.5s0.675-1.5,1.5-1.5h25.373
	C515.214,135.431,515.889,136.106,515.889,136.931z M487.764,162.588h25.373c0.825,0,1.5,0.675,1.5,1.5c0,0.825-0.675,1.5-1.5,1.5
	h-25.373c-0.825,0-1.5-0.675-1.5-1.5C486.264,163.263,486.939,162.588,487.764,162.588z M513.887,218.258h-25.373
	c-0.825,0-1.5-0.675-1.5-1.5c0-0.825,0.675-1.5,1.5-1.5h25.373c0.825,0,1.5,0.675,1.5,1.5
	C515.387,217.583,514.712,218.258,513.887,218.258z M515.889,242.27c0,0.825-0.675,1.5-1.5,1.5h-25.373c-0.825,0-1.5-0.675-1.5-1.5
	c0-0.825,0.675-1.5,1.5-1.5h25.373C515.214,240.77,515.889,241.445,515.889,242.27z M487.764,267.928h25.373
	c0.825,0,1.5,0.675,1.5,1.5s-0.675,1.5-1.5,1.5h-25.373c-0.825,0-1.5-0.675-1.5-1.5S486.939,267.928,487.764,267.928z
	 M513.887,323.597h-25.373c-0.825,0-1.5-0.675-1.5-1.5s0.675-1.5,1.5-1.5h25.373c0.825,0,1.5,0.675,1.5,1.5
	S514.712,323.597,513.887,323.597z M515.139,347.609c0,0.825-0.675,1.5-1.5,1.5h-25.373c-0.825,0-1.5-0.675-1.5-1.5
	s0.675-1.5,1.5-1.5h25.373C514.464,346.109,515.139,346.784,515.139,347.609z M487.014,373.267h25.373c0.825,0,1.5,0.675,1.5,1.5
	s-0.675,1.5-1.5,1.5h-25.373c-0.825,0-1.5-0.675-1.5-1.5S486.189,373.267,487.014,373.267z M511.637,485.064h-25.373
	c-0.825,0-1.5-0.675-1.5-1.5s0.675-1.5,1.5-1.5h25.373c0.825,0,1.5,0.675,1.5,1.5S512.462,485.064,511.637,485.064z
	 M512.889,457.906h-25.373c-0.825,0-1.5-0.675-1.5-1.5s0.675-1.5,1.5-1.5h25.373c0.825,0,1.5,0.675,1.5,1.5
	S513.714,457.906,512.889,457.906z M513.137,428.936h-25.373c-0.825,0-1.5-0.675-1.5-1.5s0.675-1.5,1.5-1.5h25.373
	c0.825,0,1.5,0.675,1.5,1.5S513.962,428.936,513.137,428.936z M514.389,401.779h-25.373c-0.825,0-1.5-0.675-1.5-1.5
	s0.675-1.5,1.5-1.5h25.373c0.825,0,1.5,0.675,1.5,1.5S515.214,401.779,514.389,401.779z M515.139,296.44h-25.373
	c-0.825,0-1.5-0.675-1.5-1.5s0.675-1.5,1.5-1.5h25.373c0.825,0,1.5,0.675,1.5,1.5S515.964,296.44,515.139,296.44z M515.139,191.1
	h-25.373c-0.825,0-1.5-0.675-1.5-1.5s0.675-1.5,1.5-1.5h25.373c0.825,0,1.5,0.675,1.5,1.5S515.964,191.1,515.139,191.1z
	 M515.889,85.761h-25.373c-0.825,0-1.5-0.675-1.5-1.5s0.675-1.5,1.5-1.5h25.373c0.825,0,1.5,0.675,1.5,1.5
	S516.714,85.761,515.889,85.761z M535.014,470.397c0-0.825,0.675-1.5,1.5-1.5h25.373c0.825,0,1.5,0.675,1.5,1.5s-0.675,1.5-1.5,1.5
	h-25.373C535.689,471.897,535.014,471.222,535.014,470.397z M562.637,498.231h-25.373c-0.825,0-1.5-0.675-1.5-1.5s0.675-1.5,1.5-1.5
	h25.373c0.825,0,1.5,0.675,1.5,1.5S563.462,498.231,562.637,498.231z M563.387,415.769h-25.373c-0.825,0-1.5-0.675-1.5-1.5
	s0.675-1.5,1.5-1.5h25.373c0.825,0,1.5,0.675,1.5,1.5S564.212,415.769,563.387,415.769z M563.387,389.434h-25.373
	c-0.825,0-1.5-0.675-1.5-1.5s0.675-1.5,1.5-1.5h25.373c0.825,0,1.5,0.675,1.5,1.5S564.212,389.434,563.387,389.434z M564.137,310.43
	h-25.373c-0.825,0-1.5-0.675-1.5-1.5s0.675-1.5,1.5-1.5h25.373c0.825,0,1.5,0.675,1.5,1.5S564.962,310.43,564.137,310.43z
	 M564.137,284.095h-25.373c-0.825,0-1.5-0.675-1.5-1.5s0.675-1.5,1.5-1.5h25.373c0.825,0,1.5,0.675,1.5,1.5
	S564.962,284.095,564.137,284.095z M564.137,205.09h-25.373c-0.825,0-1.5-0.675-1.5-1.5s0.675-1.5,1.5-1.5h25.373
	c0.825,0,1.5,0.675,1.5,1.5S564.962,205.09,564.137,205.09z M564.137,178.756h-25.373c-0.825,0-1.5-0.675-1.5-1.5s0.675-1.5,1.5-1.5
	h25.373c0.825,0,1.5,0.675,1.5,1.5S564.962,178.756,564.137,178.756z M564.887,99.752h-25.373c-0.825,0-1.5-0.675-1.5-1.5
	c0-0.825,0.675-1.5,1.5-1.5h25.373c0.825,0,1.5,0.675,1.5,1.5C566.387,99.077,565.712,99.752,564.887,99.752z M564.887,73.417
	h-25.373c-0.825,0-1.5-0.675-1.5-1.5s0.675-1.5,1.5-1.5h25.373c0.825,0,1.5,0.675,1.5,1.5S565.712,73.417,564.887,73.417z
	 M588.264,137.077h25.373c0.825,0,1.5,0.675,1.5,1.5s-0.675,1.5-1.5,1.5h-25.373c-0.825,0-1.5-0.675-1.5-1.5
	S587.439,137.077,588.264,137.077z M588.264,163.412h25.373c0.825,0,1.5,0.675,1.5,1.5s-0.675,1.5-1.5,1.5h-25.373
	c-0.825,0-1.5-0.675-1.5-1.5S587.439,163.412,588.264,163.412z M588.264,242.416h25.373c0.825,0,1.5,0.675,1.5,1.5
	c0,0.825-0.675,1.5-1.5,1.5h-25.373c-0.825,0-1.5-0.675-1.5-1.5C586.764,243.091,587.439,242.416,588.264,242.416z M588.264,268.751
	h25.373c0.825,0,1.5,0.675,1.5,1.5s-0.675,1.5-1.5,1.5h-25.373c-0.825,0-1.5-0.675-1.5-1.5
	C586.764,269.425,587.439,268.751,588.264,268.751z M587.514,347.755h25.373c0.825,0,1.5,0.675,1.5,1.5s-0.675,1.5-1.5,1.5h-25.373
	c-0.825,0-1.5-0.675-1.5-1.5S586.689,347.755,587.514,347.755z M587.514,374.089h25.373c0.825,0,1.5,0.675,1.5,1.5
	s-0.675,1.5-1.5,1.5h-25.373c-0.825,0-1.5-0.675-1.5-1.5S586.689,374.089,587.514,374.089z M586.764,456.552h25.373
	c0.825,0,1.5,0.675,1.5,1.5s-0.675,1.5-1.5,1.5h-25.373c-0.825,0-1.5-0.675-1.5-1.5S585.939,456.552,586.764,456.552z
	 M585.264,484.387c0-0.825,0.675-1.5,1.5-1.5h25.373c0.825,0,1.5,0.675,1.5,1.5s-0.675,1.5-1.5,1.5h-25.373
	C585.939,485.887,585.264,485.212,585.264,484.387z M612.887,538.556h-25.373c-0.825,0-1.5-0.675-1.5-1.5s0.675-1.5,1.5-1.5h25.373
	c0.825,0,1.5,0.675,1.5,1.5S613.712,538.556,612.887,538.556z M612.887,512.222h-25.373c-0.825,0-1.5-0.675-1.5-1.5
	s0.675-1.5,1.5-1.5h25.373c0.825,0,1.5,0.675,1.5,1.5S613.712,512.222,612.887,512.222z M613.637,429.759h-25.373
	c-0.825,0-1.5-0.675-1.5-1.5s0.675-1.5,1.5-1.5h25.373c0.825,0,1.5,0.675,1.5,1.5C615.137,429.085,614.462,429.759,613.637,429.759z
	 M613.637,403.424h-25.373c-0.825,0-1.5-0.675-1.5-1.5s0.675-1.5,1.5-1.5h25.373c0.825,0,1.5,0.675,1.5,1.5
	S614.462,403.424,613.637,403.424z M614.387,324.42h-25.373c-0.825,0-1.5-0.675-1.5-1.5s0.675-1.5,1.5-1.5h25.373
	c0.825,0,1.5,0.675,1.5,1.5C615.887,323.746,615.212,324.42,614.387,324.42z M614.387,298.086h-25.373c-0.825,0-1.5-0.675-1.5-1.5
	s0.675-1.5,1.5-1.5h25.373c0.825,0,1.5,0.675,1.5,1.5S615.212,298.086,614.387,298.086z M614.387,219.082h-25.373
	c-0.825,0-1.5-0.675-1.5-1.5s0.675-1.5,1.5-1.5h25.373c0.825,0,1.5,0.675,1.5,1.5S615.212,219.082,614.387,219.082z
	 M614.387,192.747h-25.373c-0.825,0-1.5-0.675-1.5-1.5c0-0.825,0.675-1.5,1.5-1.5h25.373c0.825,0,1.5,0.675,1.5,1.5
	C615.887,192.072,615.212,192.747,614.387,192.747z M615.137,113.742h-25.373c-0.825,0-1.5-0.675-1.5-1.5c0-0.825,0.675-1.5,1.5-1.5
	h25.373c0.825,0,1.5,0.675,1.5,1.5C616.637,113.067,615.962,113.742,615.137,113.742z M615.137,87.408h-25.373
	c-0.825,0-1.5-0.675-1.5-1.5c0-0.825,0.675-1.5,1.5-1.5h25.373c0.825,0,1.5,0.675,1.5,1.5
	C616.637,86.733,615.962,87.408,615.137,87.408z M638.514,123.91h25.373c0.825,0,1.5,0.675,1.5,1.5s-0.675,1.5-1.5,1.5h-25.373
	c-0.825,0-1.5-0.675-1.5-1.5S637.689,123.91,638.514,123.91z M638.514,150.245h25.373c0.825,0,1.5,0.675,1.5,1.5
	c0,0.825-0.675,1.5-1.5,1.5h-25.373c-0.825,0-1.5-0.675-1.5-1.5C637.014,150.92,637.689,150.245,638.514,150.245z M638.514,229.249
	h25.373c0.825,0,1.5,0.675,1.5,1.5c0,0.825-0.675,1.5-1.5,1.5h-25.373c-0.825,0-1.5-0.675-1.5-1.5
	C637.014,229.924,637.689,229.249,638.514,229.249z M638.514,255.584h25.373c0.825,0,1.5,0.675,1.5,1.5s-0.675,1.5-1.5,1.5h-25.373
	c-0.825,0-1.5-0.675-1.5-1.5C637.014,256.258,637.689,255.584,638.514,255.584z M637.764,334.587h25.373c0.825,0,1.5,0.675,1.5,1.5
	s-0.675,1.5-1.5,1.5h-25.373c-0.825,0-1.5-0.675-1.5-1.5S636.939,334.587,637.764,334.587z M637.764,360.922h25.373
	c0.825,0,1.5,0.675,1.5,1.5s-0.675,1.5-1.5,1.5h-25.373c-0.825,0-1.5-0.675-1.5-1.5S636.939,360.922,637.764,360.922z
	 M637.014,443.384h25.373c0.825,0,1.5,0.675,1.5,1.5s-0.675,1.5-1.5,1.5h-25.373c-0.825,0-1.5-0.675-1.5-1.5
	S636.189,443.384,637.014,443.384z M637.014,469.719h25.373c0.825,0,1.5,0.675,1.5,1.5s-0.675,1.5-1.5,1.5h-25.373
	c-0.825,0-1.5-0.675-1.5-1.5S636.189,469.719,637.014,469.719z M661.637,551.724h-25.373c-0.825,0-1.5-0.675-1.5-1.5
	s0.675-1.5,1.5-1.5h25.373c0.825,0,1.5,0.675,1.5,1.5S662.462,551.724,661.637,551.724z M663.137,525.389h-25.373
	c-0.825,0-1.5-0.675-1.5-1.5s0.675-1.5,1.5-1.5h25.373c0.825,0,1.5,0.675,1.5,1.5S663.962,525.389,663.137,525.389z
	 M663.137,499.054h-25.373c-0.825,0-1.5-0.675-1.5-1.5s0.675-1.5,1.5-1.5h25.373c0.825,0,1.5,0.675,1.5,1.5
	S663.962,499.054,663.137,499.054z M663.887,416.592h-25.373c-0.825,0-1.5-0.675-1.5-1.5s0.675-1.5,1.5-1.5h25.373
	c0.825,0,1.5,0.675,1.5,1.5C665.387,415.918,664.712,416.592,663.887,416.592z M663.887,390.257h-25.373c-0.825,0-1.5-0.675-1.5-1.5
	s0.675-1.5,1.5-1.5h25.373c0.825,0,1.5,0.675,1.5,1.5S664.712,390.257,663.887,390.257z M664.637,311.253h-25.373
	c-0.825,0-1.5-0.675-1.5-1.5s0.675-1.5,1.5-1.5h25.373c0.825,0,1.5,0.675,1.5,1.5S665.462,311.253,664.637,311.253z
	 M664.637,284.919h-25.373c-0.825,0-1.5-0.675-1.5-1.5s0.675-1.5,1.5-1.5h25.373c0.825,0,1.5,0.675,1.5,1.5
	S665.462,284.919,664.637,284.919z M664.637,205.914h-25.373c-0.825,0-1.5-0.675-1.5-1.5c0-0.825,0.675-1.5,1.5-1.5h25.373
	c0.825,0,1.5,0.675,1.5,1.5C666.137,205.239,665.462,205.914,664.637,205.914z M664.637,179.579h-25.373c-0.825,0-1.5-0.675-1.5-1.5
	s0.675-1.5,1.5-1.5h25.373c0.825,0,1.5,0.675,1.5,1.5S665.462,179.579,664.637,179.579z M665.387,100.575h-25.373
	c-0.825,0-1.5-0.675-1.5-1.5c0-0.825,0.675-1.5,1.5-1.5h25.373c0.825,0,1.5,0.675,1.5,1.5
	C666.887,99.9,666.212,100.575,665.387,100.575z M718.246,191.603c0,0.825-0.674,1.5-1.5,1.5h-25.373c-0.825,0-1.5-0.675-1.5-1.5
	s0.675-1.5,1.5-1.5h25.373C717.571,190.103,718.246,190.778,718.246,191.603z M716.746,245.773h-25.373c-0.825,0-1.5-0.675-1.5-1.5
	c0-0.825,0.675-1.5,1.5-1.5h25.373c0.826,0,1.5,0.675,1.5,1.5C718.246,245.098,717.571,245.773,716.746,245.773z M718.246,268.962
	c0,0.825-0.675,1.5-1.5,1.5h-25.373c-0.825,0-1.5-0.675-1.5-1.5s0.675-1.5,1.5-1.5h25.373
	C717.572,267.462,718.246,268.137,718.246,268.962z M716.746,217.793h-25.373c-0.825,0-1.5-0.675-1.5-1.5s0.675-1.5,1.5-1.5h25.373
	c0.826,0,1.5,0.675,1.5,1.5S717.571,217.793,716.746,217.793z M690.623,137.434h25.373c0.825,0,1.5,0.675,1.5,1.5
	c0,0.825-0.675,1.5-1.5,1.5h-25.373c-0.825,0-1.5-0.675-1.5-1.5C689.123,138.109,689.798,137.434,690.623,137.434z M690.623,162.123
	h25.373c0.825,0,1.5,0.675,1.5,1.5s-0.675,1.5-1.5,1.5h-25.373c-0.825,0-1.5-0.675-1.5-1.5S689.798,162.123,690.623,162.123z
	 M690.623,348.112h25.373c0.825,0,1.5,0.675,1.5,1.5s-0.675,1.5-1.5,1.5h-25.373c-0.825,0-1.5-0.675-1.5-1.5
	S689.798,348.112,690.623,348.112z M690.623,372.801h25.373c0.825,0,1.5,0.675,1.5,1.5s-0.675,1.5-1.5,1.5h-25.373
	c-0.825,0-1.5-0.674-1.5-1.5C689.123,373.476,689.798,372.801,690.623,372.801z M690.623,456.909h25.373c0.825,0,1.5,0.675,1.5,1.5
	s-0.675,1.5-1.5,1.5h-25.373c-0.825,0-1.5-0.675-1.5-1.5S689.798,456.909,690.623,456.909z M690.623,481.598h25.373
	c0.825,0,1.5,0.675,1.5,1.5s-0.675,1.5-1.5,1.5h-25.373c-0.825,0-1.5-0.675-1.5-1.5S689.798,481.598,690.623,481.598z
	 M715.246,589.937h-25.373c-0.825,0-1.5-0.675-1.5-1.5s0.675-1.5,1.5-1.5h25.373c0.825,0,1.5,0.675,1.5,1.5
	S716.071,589.937,715.246,589.937z M715.246,565.248h-25.373c-0.825,0-1.5-0.675-1.5-1.5s0.675-1.5,1.5-1.5h25.373
	c0.825,0,1.5,0.675,1.5,1.5S716.071,565.248,715.246,565.248z M716.746,537.268h-25.373c-0.825,0-1.5-0.675-1.5-1.5
	c0-0.826,0.675-1.5,1.5-1.5h25.373c0.825,0,1.5,0.675,1.5,1.5S717.571,537.268,716.746,537.268z M716.746,512.579h-25.373
	c-0.825,0-1.5-0.675-1.5-1.5s0.675-1.5,1.5-1.5h25.373c0.825,0,1.5,0.675,1.5,1.5S717.571,512.579,716.746,512.579z M716.746,428.47
	h-25.373c-0.825,0-1.5-0.675-1.5-1.5s0.675-1.5,1.5-1.5h25.373c0.826,0,1.5,0.675,1.5,1.5S717.571,428.47,716.746,428.47z
	 M716.746,403.782h-25.373c-0.825,0-1.5-0.675-1.5-1.5s0.675-1.5,1.5-1.5h25.373c0.825,0,1.5,0.675,1.5,1.5
	S717.572,403.782,716.746,403.782z M717.496,323.131h-25.373c-0.825,0-1.5-0.675-1.5-1.5s0.675-1.5,1.5-1.5h25.373
	c0.825,0,1.5,0.675,1.5,1.5C718.996,322.457,718.322,323.131,717.496,323.131z M717.496,298.443h-25.373c-0.825,0-1.5-0.675-1.5-1.5
	s0.675-1.5,1.5-1.5h25.373c0.826,0,1.5,0.675,1.5,1.5S718.321,298.443,717.496,298.443z M791.873,215.616h25.373
	c0.826,0,1.5,0.675,1.5,1.5s-0.675,1.5-1.5,1.5h-25.373c-0.825,0-1.5-0.675-1.5-1.5S791.048,215.616,791.873,215.616z
	 M791.873,241.128h25.373c0.826,0,1.5,0.675,1.5,1.5s-0.675,1.5-1.5,1.5h-25.373c-0.825,0-1.5-0.675-1.5-1.5
	S791.048,241.128,791.873,241.128z M791.873,268.285h25.373c0.826,0,1.5,0.675,1.5,1.5s-0.675,1.5-1.5,1.5h-25.373
	c-0.825,0-1.5-0.675-1.5-1.5S791.048,268.285,791.873,268.285z M791.123,346.466h25.373c0.825,0,1.5,0.675,1.5,1.5
	s-0.675,1.5-1.5,1.5h-25.373c-0.825,0-1.5-0.675-1.5-1.5S790.298,346.466,791.123,346.466z M791.123,373.624h25.373
	c0.825,0,1.5,0.675,1.5,1.5s-0.675,1.5-1.5,1.5h-25.373c-0.825,0-1.5-0.675-1.5-1.5S790.298,373.624,791.123,373.624z
	 M791.123,455.263h25.373c0.825,0,1.5,0.675,1.5,1.5s-0.675,1.5-1.5,1.5h-25.373c-0.825,0-1.5-0.675-1.5-1.5
	S790.298,455.263,791.123,455.263z M791.123,482.421h25.373c0.825,0,1.5,0.675,1.5,1.5s-0.675,1.5-1.5,1.5h-25.373
	c-0.825,0-1.5-0.675-1.5-1.5S790.298,482.421,791.123,482.421z M790.373,560.602h25.373c0.825,0,1.5,0.675,1.5,1.5
	s-0.675,1.5-1.5,1.5h-25.373c-0.825,0-1.5-0.675-1.5-1.5S789.548,560.602,790.373,560.602z M742.623,175.291h25.373
	c0.826,0,1.5,0.675,1.5,1.5c0,0.825-0.675,1.5-1.5,1.5h-25.373c-0.825,0-1.5-0.675-1.5-1.5
	C741.123,175.966,741.798,175.291,742.623,175.291z M769.496,229.46c0,0.825-0.675,1.5-1.5,1.5h-25.373c-0.825,0-1.5-0.675-1.5-1.5
	c0-0.825,0.675-1.5,1.5-1.5h25.373C768.822,227.96,769.496,228.634,769.496,229.46z M741.623,201.625h25.373
	c0.825,0,1.5,0.675,1.5,1.5c0,0.825-0.675,1.5-1.5,1.5h-25.373c-0.825,0-1.5-0.675-1.5-1.5
	C740.123,202.299,740.798,201.625,741.623,201.625z M741.623,254.295h25.373c0.826,0,1.5,0.675,1.5,1.5c0,0.825-0.675,1.5-1.5,1.5
	h-25.373c-0.825,0-1.5-0.675-1.5-1.5C740.123,254.97,740.798,254.295,741.623,254.295z M767.746,309.964h-25.373
	c-0.825,0-1.5-0.675-1.5-1.5s0.675-1.5,1.5-1.5h25.373c0.825,0,1.5,0.675,1.5,1.5S768.571,309.964,767.746,309.964z
	 M768.746,334.798c0,0.825-0.675,1.5-1.5,1.5h-25.373c-0.825,0-1.5-0.675-1.5-1.5s0.675-1.5,1.5-1.5h25.373
	C768.071,333.298,768.746,333.973,768.746,334.798z M740.873,359.633h25.373c0.825,0,1.5,0.675,1.5,1.5s-0.675,1.5-1.5,1.5h-25.373
	c-0.825,0-1.5-0.675-1.5-1.5S740.048,359.633,740.873,359.633z M766.996,415.303h-25.373c-0.825,0-1.5-0.675-1.5-1.5
	s0.675-1.5,1.5-1.5h25.373c0.825,0,1.5,0.675,1.5,1.5S767.821,415.303,766.996,415.303z M768.746,444.419c0,0.825-0.675,1.5-1.5,1.5
	h-25.373c-0.825,0-1.5-0.675-1.5-1.5s0.675-1.5,1.5-1.5h25.373C768.071,442.919,768.746,443.594,768.746,444.419z M740.873,468.431
	h25.373c0.825,0,1.5,0.675,1.5,1.5s-0.675,1.5-1.5,1.5h-25.373c-0.825,0-1.5-0.675-1.5-1.5S740.048,468.431,740.873,468.431z
	 M766.996,524.1h-25.373c-0.825,0-1.5-0.675-1.5-1.5s0.675-1.5,1.5-1.5h25.373c0.825,0,1.5,0.675,1.5,1.5
	S767.821,524.1,766.996,524.1z M767.996,548.935c0,0.825-0.674,1.5-1.5,1.5h-25.373c-0.825,0-1.5-0.675-1.5-1.5s0.675-1.5,1.5-1.5
	h25.373C767.321,547.435,767.996,548.11,767.996,548.935z M738.623,575.27c0-0.825,0.675-1.5,1.5-1.5h25.373
	c0.825,0,1.5,0.675,1.5,1.5s-0.675,1.5-1.5,1.5h-25.373C739.298,576.77,738.623,576.095,738.623,575.27z M766.246,629.44h-25.373
	c-0.825,0-1.5-0.675-1.5-1.5s0.675-1.5,1.5-1.5h25.373c0.825,0,1.5,0.675,1.5,1.5S767.071,629.44,766.246,629.44z M767.246,603.105
	h-25.373c-0.825,0-1.5-0.675-1.5-1.5s0.675-1.5,1.5-1.5h25.373c0.825,0,1.5,0.675,1.5,1.5S768.072,603.105,767.246,603.105z
	 M767.996,497.765h-25.373c-0.825,0-1.5-0.675-1.5-1.5s0.675-1.5,1.5-1.5h25.373c0.826,0,1.5,0.675,1.5,1.5
	S768.821,497.765,767.996,497.765z M767.996,388.968h-25.373c-0.825,0-1.5-0.675-1.5-1.5s0.675-1.5,1.5-1.5h25.373
	c0.826,0,1.5,0.675,1.5,1.5S768.821,388.968,767.996,388.968z M768.746,283.629h-25.373c-0.825,0-1.5-0.675-1.5-1.5
	s0.675-1.5,1.5-1.5h25.373c0.825,0,1.5,0.675,1.5,1.5C770.246,282.955,769.572,283.629,768.746,283.629z M788.873,589.26
	c0-0.825,0.675-1.5,1.5-1.5h25.373c0.825,0,1.5,0.675,1.5,1.5s-0.675,1.5-1.5,1.5h-25.373
	C789.548,590.76,788.873,590.085,788.873,589.26z M816.496,668.941h-24.265c-0.869-0.536-1.73-1.076-2.596-1.615
	c0.06-0.771,0.703-1.385,1.488-1.385h25.373c0.825,0,1.5,0.675,1.5,1.5S817.321,668.941,816.496,668.941z M816.496,643.43h-25.373
	c-0.825,0-1.5-0.675-1.5-1.5s0.675-1.5,1.5-1.5h25.373c0.825,0,1.5,0.675,1.5,1.5S817.321,643.43,816.496,643.43z M816.496,616.272
	h-25.373c-0.825,0-1.5-0.675-1.5-1.5s0.675-1.5,1.5-1.5h25.373c0.825,0,1.5,0.675,1.5,1.5S817.321,616.272,816.496,616.272z
	 M817.246,538.09h-25.373c-0.825,0-1.5-0.675-1.5-1.5s0.675-1.5,1.5-1.5h25.373c0.825,0,1.5,0.675,1.5,1.5
	C818.746,537.416,818.072,538.09,817.246,538.09z M817.246,510.933h-25.373c-0.825,0-1.5-0.675-1.5-1.5s0.675-1.5,1.5-1.5h25.373
	c0.825,0,1.5,0.675,1.5,1.5S818.071,510.933,817.246,510.933z M817.246,429.294h-25.373c-0.825,0-1.5-0.675-1.5-1.5
	s0.675-1.5,1.5-1.5h25.373c0.826,0,1.5,0.675,1.5,1.5S818.071,429.294,817.246,429.294z M817.246,402.136h-25.373
	c-0.825,0-1.5-0.675-1.5-1.5s0.675-1.5,1.5-1.5h25.373c0.825,0,1.5,0.675,1.5,1.5S818.072,402.136,817.246,402.136z
	 M817.996,323.955h-25.373c-0.825,0-1.5-0.675-1.5-1.5s0.675-1.5,1.5-1.5h25.373c0.825,0,1.5,0.675,1.5,1.5
	S818.822,323.955,817.996,323.955z M817.996,296.796h-25.373c-0.825,0-1.5-0.675-1.5-1.5s0.675-1.5,1.5-1.5h25.373
	c0.826,0,1.5,0.675,1.5,1.5S818.821,296.796,817.996,296.796z M940.621,361.28h25.373c0.825,0,1.5,0.675,1.5,1.5s-0.675,1.5-1.5,1.5
	h-25.373c-0.825,0-1.5-0.675-1.5-1.5S939.796,361.28,940.621,361.28z M940.621,444.565h25.373c0.825,0,1.5,0.675,1.5,1.5
	s-0.675,1.5-1.5,1.5h-25.373c-0.825,0-1.5-0.675-1.5-1.5S939.796,444.565,940.621,444.565z M940.621,470.076h25.373
	c0.825,0,1.5,0.675,1.5,1.5s-0.675,1.5-1.5,1.5h-25.373c-0.825,0-1.5-0.675-1.5-1.5S939.796,470.076,940.621,470.076z
	 M939.871,549.081h25.373c0.825,0,1.5,0.675,1.5,1.5s-0.675,1.5-1.5,1.5h-25.373c-0.825,0-1.5-0.675-1.5-1.5
	S939.046,549.081,939.871,549.081z M965.994,657.42h-25.373c-0.825,0-1.5-0.675-1.5-1.5s0.675-1.5,1.5-1.5h25.373
	c0.825,0,1.5,0.675,1.5,1.5S966.819,657.42,965.994,657.42z M967.494,682.254c0,0.825-0.675,1.5-1.5,1.5h-25.373
	c-0.825,0-1.5-0.675-1.5-1.5s0.675-1.5,1.5-1.5h25.373C966.819,680.754,967.494,681.429,967.494,682.254z M965.994,631.085h-25.373
	c-0.825,0-1.5-0.675-1.5-1.5s0.675-1.5,1.5-1.5h25.373c0.825,0,1.5,0.675,1.5,1.5S966.819,631.085,965.994,631.085z M965.994,604.75
	h-25.373c-0.825,0-1.5-0.675-1.5-1.5s0.675-1.5,1.5-1.5h25.373c0.825,0,1.5,0.675,1.5,1.5S966.819,604.75,965.994,604.75z
	 M939.871,575.416h25.373c0.825,0,1.5,0.675,1.5,1.5s-0.675,1.5-1.5,1.5h-25.373c-0.825,0-1.5-0.675-1.5-1.5
	S939.046,575.416,939.871,575.416z M893.123,294.62h21.426c0.924,0.997,1.844,1.997,2.762,3h-24.187c-0.825,0-1.5-0.675-1.5-1.5
	S892.298,294.62,893.123,294.62z M891.871,321.777h25.373c0.825,0,1.5,0.675,1.5,1.5s-0.675,1.5-1.5,1.5h-25.373
	c-0.825,0-1.5-0.675-1.5-1.5S891.046,321.777,891.871,321.777z M891.623,347.29h25.373c0.825,0,1.5,0.675,1.5,1.5
	s-0.675,1.5-1.5,1.5h-25.373c-0.825,0-1.5-0.675-1.5-1.5C890.123,347.964,890.798,347.29,891.623,347.29z M890.371,374.447h25.373
	c0.825,0,1.5,0.675,1.5,1.5s-0.675,1.5-1.5,1.5h-25.373c-0.825,0-1.5-0.675-1.5-1.5S889.546,374.447,890.371,374.447z
	 M916.494,430.117h-25.373c-0.825,0-1.5-0.675-1.5-1.5s0.675-1.5,1.5-1.5h25.373c0.825,0,1.5,0.675,1.5,1.5
	S917.319,430.117,916.494,430.117z M918.496,457.586c0,0.825-0.675,1.5-1.5,1.5h-25.373c-0.825,0-1.5-0.675-1.5-1.5
	s0.675-1.5,1.5-1.5h25.373C917.821,456.086,918.496,456.761,918.496,457.586z M890.371,483.244h25.373c0.825,0,1.5,0.675,1.5,1.5
	s-0.675,1.5-1.5,1.5h-25.373c-0.825,0-1.5-0.675-1.5-1.5S889.546,483.244,890.371,483.244z M891.623,666.764h25.373
	c0.825,0,1.5,0.675,1.5,1.5s-0.674,1.5-1.5,1.5h-25.373c-0.825,0-1.5-0.675-1.5-1.5S890.798,666.764,891.623,666.764z
	 M888.871,642.752c0-0.825,0.675-1.5,1.5-1.5h25.373c0.825,0,1.5,0.675,1.5,1.5s-0.675,1.5-1.5,1.5h-25.373
	C889.546,644.252,888.871,643.577,888.871,642.752z M916.996,617.095h-25.373c-0.825,0-1.5-0.675-1.5-1.5s0.675-1.5,1.5-1.5h25.373
	c0.825,0,1.5,0.675,1.5,1.5S917.821,617.095,916.996,617.095z M916.246,564.425h-25.373c-0.825,0-1.5-0.675-1.5-1.5
	s0.675-1.5,1.5-1.5h25.373c0.825,0,1.5,0.675,1.5,1.5C917.746,563.751,917.072,564.425,916.246,564.425z M916.494,538.913h-25.373
	c-0.825,0-1.5-0.675-1.5-1.5s0.675-1.5,1.5-1.5h25.373c0.825,0,1.5,0.675,1.5,1.5S917.319,538.913,916.494,538.913z
	 M842.123,255.118h25.373c0.826,0,1.5,0.675,1.5,1.5c0,0.825-0.675,1.5-1.5,1.5h-25.373c-0.825,0-1.5-0.675-1.5-1.5
	C840.623,255.793,841.298,255.118,842.123,255.118z M842.373,653.597h25.373c0.825,0,1.5,0.675,1.5,1.5s-0.674,1.5-1.5,1.5h-25.373
	c-0.825,0-1.5-0.675-1.5-1.5S841.548,653.597,842.373,653.597z M839.873,628.762c0-0.825,0.675-1.5,1.5-1.5h25.373
	c0.825,0,1.5,0.675,1.5,1.5s-0.675,1.5-1.5,1.5h-25.373C840.548,630.262,839.873,629.587,839.873,628.762z M867.746,603.928h-25.373
	c-0.825,0-1.5-0.676-1.5-1.5c0-0.826,0.675-1.5,1.5-1.5h25.373c0.825,0,1.5,0.674,1.5,1.5
	C869.246,603.252,868.571,603.928,867.746,603.928z M841.623,548.258h25.373c0.825,0,1.5,0.675,1.5,1.5s-0.674,1.5-1.5,1.5h-25.373
	c-0.825,0-1.5-0.675-1.5-1.5S840.798,548.258,841.623,548.258z M840.623,523.423c0-0.825,0.675-1.5,1.5-1.5h25.373
	c0.825,0,1.5,0.675,1.5,1.5s-0.675,1.5-1.5,1.5h-25.373C841.298,524.923,840.623,524.248,840.623,523.423z M868.496,498.588h-25.373
	c-0.825,0-1.5-0.675-1.5-1.5s0.675-1.5,1.5-1.5h25.373c0.826,0,1.5,0.675,1.5,1.5S869.321,498.588,868.496,498.588z
	 M842.373,443.742h25.373c0.825,0,1.5,0.675,1.5,1.5c0,0.825-0.675,1.5-1.5,1.5h-25.373c-0.825,0-1.5-0.675-1.5-1.5
	S841.548,443.742,842.373,443.742z M840.623,414.627c0-0.825,0.675-1.5,1.5-1.5h25.373c0.825,0,1.5,0.675,1.5,1.5
	s-0.675,1.5-1.5,1.5h-25.373C841.298,416.127,840.623,415.452,840.623,414.627z M868.496,389.792h-25.373
	c-0.825,0-1.5-0.675-1.5-1.5s0.675-1.5,1.5-1.5h25.373c0.826,0,1.5,0.675,1.5,1.5S869.321,389.792,868.496,389.792z
	 M867.746,337.122h-25.373c-0.825,0-1.5-0.675-1.5-1.5c0-0.826,0.675-1.5,1.5-1.5h25.373c0.825,0,1.5,0.675,1.5,1.5
	C869.246,336.447,868.571,337.122,867.746,337.122z M868.246,310.787h-25.373c-0.825,0-1.5-0.675-1.5-1.5c0-0.826,0.675-1.5,1.5-1.5
	h25.373c0.825,0,1.5,0.675,1.5,1.5S869.071,310.787,868.246,310.787z M841.373,360.457h25.373c0.825,0,1.5,0.675,1.5,1.5
	s-0.675,1.5-1.5,1.5h-25.373c-0.825,0-1.5-0.675-1.5-1.5S840.548,360.457,841.373,360.457z M841.373,469.253h25.373
	c0.825,0,1.5,0.675,1.5,1.5s-0.675,1.5-1.5,1.5h-25.373c-0.825,0-1.5-0.675-1.5-1.5S840.548,469.253,841.373,469.253z
	 M839.123,576.093c0-0.825,0.675-1.5,1.5-1.5h25.373c0.825,0,1.5,0.675,1.5,1.5s-0.675,1.5-1.5,1.5h-25.373
	C839.798,577.593,839.123,576.918,839.123,576.093z M839.873,681.432c0-0.825,0.675-1.5,1.5-1.5h25.373c0.825,0,1.5,0.675,1.5,1.5
	s-0.675,1.5-1.5,1.5h-25.373C840.548,682.932,839.873,682.257,839.873,681.432z M868.496,709.267h-10.125
	c-0.537-0.339-1.077-0.681-1.61-1.017c-1.059-0.668-2.094-1.324-3.135-1.983h14.871c0.825,0,1.5,0.675,1.5,1.5
	S869.322,709.267,868.496,709.267z M869.246,284.453h-25.373c-0.825,0-1.5-0.675-1.5-1.5s0.675-1.5,1.5-1.5h25.373
	c0.825,0,1.5,0.675,1.5,1.5S870.072,284.453,869.246,284.453z M888.121,590.083c0-0.825,0.675-1.5,1.5-1.5h25.373
	c0.825,0,1.5,0.675,1.5,1.5s-0.675,1.5-1.5,1.5h-25.373C888.796,591.583,888.121,590.908,888.121,590.083z M888.871,695.422
	c0-0.825,0.675-1.5,1.5-1.5h25.373c0.825,0,1.5,0.675,1.5,1.5s-0.675,1.5-1.5,1.5h-25.373
	C889.546,696.922,888.871,696.247,888.871,695.422z M917.746,722.434h-25.373c-0.825,0-1.5-0.675-1.5-1.5s0.675-1.5,1.5-1.5h25.373
	c0.825,0,1.5,0.675,1.5,1.5S918.572,722.434,917.746,722.434z M917.746,511.756h-25.373c-0.825,0-1.5-0.675-1.5-1.5
	s0.675-1.5,1.5-1.5h25.373c0.826,0,1.5,0.675,1.5,1.5S918.571,511.756,917.746,511.756z M917.746,402.959h-25.373
	c-0.825,0-1.5-0.675-1.5-1.5s0.675-1.5,1.5-1.5h25.373c0.826,0,1.5,0.675,1.5,1.5S918.571,402.959,917.746,402.959z
	 M965.244,762.759h-25.373c-0.825,0-1.5-0.675-1.5-1.5s0.675-1.5,1.5-1.5h25.373c0.825,0,1.5,0.675,1.5,1.5
	S966.069,762.759,965.244,762.759z M966.744,736.424h-25.373c-0.825,0-1.5-0.675-1.5-1.5s0.675-1.5,1.5-1.5h25.373
	c0.825,0,1.5,0.675,1.5,1.5S967.57,736.424,966.744,736.424z M966.744,710.09h-25.373c-0.825,0-1.5-0.675-1.5-1.5s0.675-1.5,1.5-1.5
	h25.373c0.825,0,1.5,0.675,1.5,1.5S967.569,710.09,966.744,710.09z M966.744,525.746h-25.373c-0.825,0-1.5-0.675-1.5-1.5
	s0.675-1.5,1.5-1.5h25.373c0.825,0,1.5,0.675,1.5,1.5S967.57,525.746,966.744,525.746z M966.744,499.411h-25.373
	c-0.825,0-1.5-0.675-1.5-1.5s0.675-1.5,1.5-1.5h25.373c0.825,0,1.5,0.675,1.5,1.5S967.569,499.411,966.744,499.411z
	 M966.744,416.949h-25.373c-0.825,0-1.5-0.675-1.5-1.5s0.675-1.5,1.5-1.5h25.373c0.826,0,1.5,0.675,1.5,1.5
	S967.569,416.949,966.744,416.949z M966.744,390.615h-25.373c-0.825,0-1.5-0.675-1.5-1.5s0.675-1.5,1.5-1.5h25.373
	c0.825,0,1.5,0.675,1.5,1.5S967.57,390.615,966.744,390.615z M991.621,401.605h14.597c0.845,1,1.686,2.003,2.535,3h-17.132
	c-0.825,0-1.5-0.675-1.5-1.5S990.796,401.605,991.621,401.605z M990.871,457.732h25.373c0.825,0,1.5,0.675,1.5,1.5
	s-0.675,1.5-1.5,1.5h-25.373c-0.825,0-1.5-0.675-1.5-1.5S990.046,457.732,990.871,457.732z M990.871,484.067h25.373
	c0.825,0,1.5,0.675,1.5,1.5s-0.675,1.5-1.5,1.5h-25.373c-0.825,0-1.5-0.675-1.5-1.5S990.046,484.067,990.871,484.067z
	 M990.121,563.071h25.373c0.825,0,1.5,0.675,1.5,1.5s-0.675,1.5-1.5,1.5h-25.373c-0.825,0-1.5-0.675-1.5-1.5
	S989.296,563.071,990.121,563.071z M1016.244,671.41h-25.373c-0.825,0-1.5-0.675-1.5-1.5s0.675-1.5,1.5-1.5h25.373
	c0.825,0,1.5,0.675,1.5,1.5S1017.069,671.41,1016.244,671.41z M1017.744,696.245c0,0.825-0.675,1.5-1.5,1.5h-25.373
	c-0.825,0-1.5-0.675-1.5-1.5s0.675-1.5,1.5-1.5h25.373C1017.069,694.745,1017.744,695.42,1017.744,696.245z M1016.244,645.075
	h-25.373c-0.825,0-1.5-0.675-1.5-1.5s0.675-1.5,1.5-1.5h25.373c0.825,0,1.5,0.675,1.5,1.5S1017.069,645.075,1016.244,645.075z
	 M1016.244,618.741h-25.373c-0.825,0-1.5-0.675-1.5-1.5s0.675-1.5,1.5-1.5h25.373c0.825,0,1.5,0.675,1.5,1.5
	S1017.069,618.741,1016.244,618.741z M990.121,589.406h25.373c0.825,0,1.5,0.675,1.5,1.5s-0.675,1.5-1.5,1.5h-25.373
	c-0.825,0-1.5-0.675-1.5-1.5S989.296,589.406,990.121,589.406z M1015.494,803.084h-19.616c-1.381-1.001-2.751-1.993-4.125-3h23.741
	c0.825,0,1.5,0.675,1.5,1.5S1016.319,803.084,1015.494,803.084z M1015.494,776.749h-25.373c-0.825,0-1.5-0.675-1.5-1.5
	s0.675-1.5,1.5-1.5h25.373c0.825,0,1.5,0.675,1.5,1.5S1016.319,776.749,1015.494,776.749z M1016.994,750.414h-25.373
	c-0.825,0-1.5-0.675-1.5-1.5s0.675-1.5,1.5-1.5h25.373c0.825,0,1.5,0.675,1.5,1.5S1017.82,750.414,1016.994,750.414z
	 M1016.994,724.08h-25.373c-0.825,0-1.5-0.675-1.5-1.5s0.675-1.5,1.5-1.5h25.373c0.825,0,1.5,0.675,1.5,1.5
	S1017.819,724.08,1016.994,724.08z M1016.994,539.736h-25.373c-0.825,0-1.5-0.675-1.5-1.5s0.675-1.5,1.5-1.5h25.373
	c0.825,0,1.5,0.675,1.5,1.5C1018.494,539.062,1017.82,539.736,1016.994,539.736z M1016.994,513.401h-25.373
	c-0.825,0-1.5-0.674-1.5-1.5c0-0.825,0.675-1.5,1.5-1.5h25.373c0.825,0,1.5,0.675,1.5,1.5
	C1018.494,512.726,1017.819,513.401,1016.994,513.401z M1016.994,430.939h-25.373c-0.825,0-1.5-0.675-1.5-1.5s0.675-1.5,1.5-1.5
	h25.373c0.826,0,1.5,0.675,1.5,1.5S1017.819,430.939,1016.994,430.939z M1041.121,470.899h22.805
	c0.016,0.019,0.031,0.038,0.047,0.057c0.812,0.983,1.634,1.962,2.453,2.943h-25.305c-0.825,0-1.5-0.675-1.5-1.5
	S1040.296,470.899,1041.121,470.899z M1040.371,549.904h25.373c0.825,0,1.5,0.675,1.5,1.5s-0.675,1.5-1.5,1.5h-25.373
	c-0.825,0-1.5-0.675-1.5-1.5S1039.546,549.904,1040.371,549.904z M1066.494,658.242h-25.373c-0.825,0-1.5-0.675-1.5-1.5
	s0.675-1.5,1.5-1.5h25.373c0.825,0,1.5,0.675,1.5,1.5S1067.319,658.242,1066.494,658.242z M1067.994,683.078
	c0,0.825-0.675,1.5-1.5,1.5h-25.373c-0.825,0-1.5-0.675-1.5-1.5s0.675-1.5,1.5-1.5h25.373
	C1067.319,681.578,1067.994,682.253,1067.994,683.078z M1066.494,631.908h-25.373c-0.825,0-1.5-0.675-1.5-1.5s0.675-1.5,1.5-1.5
	h25.373c0.825,0,1.5,0.675,1.5,1.5S1067.319,631.908,1066.494,631.908z M1066.494,605.573h-25.373c-0.825,0-1.5-0.675-1.5-1.5
	s0.675-1.5,1.5-1.5h25.373c0.825,0,1.5,0.675,1.5,1.5S1067.319,605.573,1066.494,605.573z M1040.371,576.238h25.373
	c0.825,0,1.5,0.675,1.5,1.5s-0.675,1.5-1.5,1.5h-25.373c-0.825,0-1.5-0.675-1.5-1.5S1039.546,576.238,1040.371,576.238z
	 M1040.371,760.582h25.373c0.825,0,1.5,0.675,1.5,1.5s-0.675,1.5-1.5,1.5h-25.373c-0.825,0-1.5-0.675-1.5-1.5
	S1039.546,760.582,1040.371,760.582z M1038.871,788.416c0-0.825,0.675-1.5,1.5-1.5h25.373c0.825,0,1.5,0.675,1.5,1.5
	s-0.675,1.5-1.5,1.5h-25.373C1039.546,789.916,1038.871,789.241,1038.871,788.416z M1066.494,816.252h-25.373
	c-0.825,0-1.5-0.675-1.5-1.5s0.675-1.5,1.5-1.5h25.373c0.825,0,1.5,0.675,1.5,1.5S1067.319,816.252,1066.494,816.252z
	 M1067.244,737.247h-25.373c-0.825,0-1.5-0.675-1.5-1.5s0.675-1.5,1.5-1.5h25.373c0.825,0,1.5,0.675,1.5,1.5
	S1068.069,737.247,1067.244,737.247z M1067.244,710.912h-25.373c-0.825,0-1.5-0.675-1.5-1.5s0.675-1.5,1.5-1.5h25.373
	c0.825,0,1.5,0.675,1.5,1.5S1068.069,710.912,1067.244,710.912z M1067.244,526.569h-25.373c-0.825,0-1.5-0.675-1.5-1.5
	s0.675-1.5,1.5-1.5h25.373c0.825,0,1.5,0.675,1.5,1.5S1068.07,526.569,1067.244,526.569z M1067.244,500.234h-25.373
	c-0.825,0-1.5-0.675-1.5-1.5s0.675-1.5,1.5-1.5h25.373c0.825,0,1.5,0.675,1.5,1.5S1068.069,500.234,1067.244,500.234z
	 M1090.246,565.54h25.373c0.825,0,1.5,0.675,1.5,1.5s-0.675,1.5-1.5,1.5h-25.373c-0.825,0-1.5-0.675-1.5-1.5
	S1089.421,565.54,1090.246,565.54z M1090.246,590.229h25.373c0.825,0,1.5,0.675,1.5,1.5s-0.675,1.5-1.5,1.5h-25.373
	c-0.825,0-1.5-0.675-1.5-1.5S1089.421,590.229,1090.246,590.229z M1090.246,670.879h25.373c0.825,0,1.5,0.675,1.5,1.5
	s-0.675,1.5-1.5,1.5h-25.373c-0.825,0-1.5-0.675-1.5-1.5S1089.421,670.879,1090.246,670.879z M1090.246,695.568h25.373
	c0.825,0,1.5,0.675,1.5,1.5s-0.675,1.5-1.5,1.5h-25.373c-0.825,0-1.5-0.675-1.5-1.5S1089.421,695.568,1090.246,695.568z
	 M1114.869,803.906h-25.373c-0.825,0-1.5-0.675-1.5-1.5s0.675-1.5,1.5-1.5h25.373c0.825,0,1.5,0.675,1.5,1.5
	S1115.694,803.906,1114.869,803.906z M1114.869,779.219h-25.373c-0.825,0-1.5-0.675-1.5-1.5s0.675-1.5,1.5-1.5h25.373
	c0.825,0,1.5,0.675,1.5,1.5S1115.694,779.219,1114.869,779.219z M1116.369,751.237h-25.373c-0.825,0-1.5-0.675-1.5-1.5
	s0.675-1.5,1.5-1.5h25.373c0.825,0,1.5,0.675,1.5,1.5S1117.194,751.237,1116.369,751.237z M1116.369,726.549h-25.373
	c-0.825,0-1.5-0.675-1.5-1.5s0.675-1.5,1.5-1.5h25.373c0.825,0,1.5,0.675,1.5,1.5S1117.194,726.549,1116.369,726.549z
	 M1116.369,645.899h-25.373c-0.825,0-1.5-0.675-1.5-1.5s0.675-1.5,1.5-1.5h25.373c0.826,0,1.5,0.675,1.5,1.5
	S1117.194,645.899,1116.369,645.899z M1116.369,621.209h-25.373c-0.825,0-1.5-0.675-1.5-1.5s0.675-1.499,1.5-1.499h25.373
	c0.825,0,1.5,0.674,1.5,1.499S1117.195,621.209,1116.369,621.209z M1117.119,540.559h-25.373c-0.825,0-1.5-0.675-1.5-1.5
	s0.675-1.5,1.5-1.5h25.373c0.826,0,1.5,0.675,1.5,1.5S1117.944,540.559,1117.119,540.559z M1141.246,629.731h25.373
	c0.825,0,1.5,0.675,1.5,1.5s-0.675,1.5-1.5,1.5h-25.373c-0.825,0-1.5-0.675-1.5-1.5
	C1139.746,630.406,1140.421,629.731,1141.246,629.731z M1168.369,657.566c0,0.825-0.675,1.5-1.5,1.5h-25.373
	c-0.825,0-1.5-0.675-1.5-1.5s0.675-1.5,1.5-1.5h25.373C1167.694,656.066,1168.369,656.741,1168.369,657.566z M1140.496,682.4h25.373
	c0.825,0,1.5,0.675,1.5,1.5s-0.675,1.5-1.5,1.5h-25.373c-0.825,0-1.5-0.675-1.5-1.5S1139.671,682.4,1140.496,682.4z
	 M1166.619,738.07h-25.373c-0.825,0-1.5-0.675-1.5-1.5s0.675-1.5,1.5-1.5h25.373c0.825,0,1.5,0.675,1.5,1.5
	S1167.444,738.07,1166.619,738.07z M1167.619,762.904c0,0.825-0.674,1.5-1.5,1.5h-25.373c-0.825,0-1.5-0.675-1.5-1.5
	s0.675-1.5,1.5-1.5h25.373C1166.944,761.404,1167.619,762.079,1167.619,762.904z M1138.246,789.24c0-0.825,0.675-1.5,1.5-1.5h25.373
	c0.825,0,1.5,0.675,1.5,1.5s-0.675,1.5-1.5,1.5h-25.373C1138.921,790.74,1138.246,790.065,1138.246,789.24z M1166.869,817.074
	h-25.373c-0.825,0-1.5-0.675-1.5-1.5s0.675-1.5,1.5-1.5h25.373c0.825,0,1.5,0.675,1.5,1.5S1167.695,817.074,1166.869,817.074z
	 M1167.619,711.735h-25.373c-0.825,0-1.5-0.675-1.5-1.5s0.675-1.5,1.5-1.5h25.373c0.826,0,1.5,0.675,1.5,1.5
	S1168.444,711.735,1167.619,711.735z M1167.619,606.397h-25.373c-0.825,0-1.5-0.676-1.5-1.5c0-0.826,0.675-1.5,1.5-1.5h25.373
	c0.826,0,1.5,0.673,1.5,1.5C1169.119,605.721,1168.444,606.397,1167.619,606.397z M1190.746,669.232h25.373
	c0.825,0,1.5,0.675,1.5,1.5s-0.675,1.5-1.5,1.5h-25.373c-0.825,0-1.5-0.675-1.5-1.5S1189.921,669.232,1190.746,669.232z
	 M1190.746,696.391h25.373c0.825,0,1.5,0.675,1.5,1.5s-0.675,1.5-1.5,1.5h-25.373c-0.825,0-1.5-0.675-1.5-1.5
	S1189.921,696.391,1190.746,696.391z M1189.996,774.572h25.373c0.825,0,1.5,0.675,1.5,1.5s-0.675,1.5-1.5,1.5h-25.373
	c-0.825,0-1.5-0.674-1.5-1.5C1188.496,775.247,1189.171,774.572,1189.996,774.572z M1188.496,803.231c0-0.825,0.675-1.5,1.5-1.5
	h25.373c0.825,0,1.5,0.675,1.5,1.5s-0.675,1.5-1.5,1.5h-25.373C1189.171,804.731,1188.496,804.056,1188.496,803.231z
	 M1216.119,830.242h-25.373c-0.825,0-1.5-0.675-1.5-1.5s0.675-1.5,1.5-1.5h25.373c0.825,0,1.5,0.675,1.5,1.5
	S1216.944,830.242,1216.119,830.242z M1216.869,752.061h-25.373c-0.825,0-1.5-0.675-1.5-1.5s0.675-1.5,1.5-1.5h25.373
	c0.825,0,1.5,0.675,1.5,1.5S1217.695,752.061,1216.869,752.061z M1216.869,724.902h-25.373c-0.825,0-1.5-0.675-1.5-1.5
	s0.675-1.5,1.5-1.5h25.373c0.825,0,1.5,0.675,1.5,1.5S1217.694,724.902,1216.869,724.902z M1241.746,735.893h25.373
	c0.825,0,1.5,0.675,1.5,1.5s-0.675,1.5-1.5,1.5h-25.373c-0.825,0-1.5-0.675-1.5-1.5
	C1240.246,736.567,1240.921,735.893,1241.746,735.893z M1241.246,762.228h25.373c0.825,0,1.5,0.675,1.5,1.5s-0.674,1.5-1.5,1.5
	h-25.373c-0.825,0-1.5-0.675-1.5-1.5S1240.421,762.228,1241.246,762.228z M1238.746,790.063c0-0.825,0.675-1.5,1.5-1.5h25.373
	c0.825,0,1.5,0.675,1.5,1.5s-0.675,1.5-1.5,1.5h-25.373C1239.421,791.563,1238.746,790.888,1238.746,790.063z M1267.369,817.898
	h-25.373c-0.825,0-1.5-0.675-1.5-1.5s0.675-1.5,1.5-1.5h25.373c0.825,0,1.5,0.675,1.5,1.5
	C1268.869,817.223,1268.195,817.898,1267.369,817.898z M1287.744,804.053c0-0.825,0.675-1.5,1.5-1.5h25.373
	c0.825,0,1.5,0.675,1.5,1.5s-0.675,1.5-1.5,1.5h-25.373C1288.419,805.553,1287.744,804.878,1287.744,804.053z M1316.619,831.064
	h-25.373c-0.825,0-1.5-0.675-1.5-1.5s0.675-1.5,1.5-1.5h25.373c0.825,0,1.5,0.675,1.5,1.5
	C1318.119,830.39,1317.445,831.064,1316.619,831.064z"/>
</svg>
