<?xml version="1.0" encoding="utf-8"?>
<!-- Generator: Adobe Illustrator 21.0.2, SVG Export Plug-In . SVG Version: 6.00 Build 0)  -->
<svg version="1.1" id="Layer_1" xmlns="http://www.w3.org/2000/svg" xmlns:xlink="http://www.w3.org/1999/xlink" x="0px" y="0px"
	 width="1281.011px" height="2733.661px" viewBox="0 0 1281.011 2733.661" enable-background="new 0 0 1281.011 2733.661"
	 xml:space="preserve">
<path id="Shape" fill="none" stroke="#000000" stroke-linejoin="round" stroke-miterlimit="10" d="M1003.147,2059.332
	c84.272,107.65,197.326,219.04,246.737,261.46c23.755,22.07,23.66,20.41,26.678-2.34c3.675-26.95,4.236-44.81,3.84-56.04
	c-1.094-20.91-2.522-17.79-20.059-34.65c-44.129-42.41-146.358-160.27-195.416-232.14c-21.142-30.98-58.992-79.68-50.466-241.41
	c9.038-145.539,46.358-741.63,63.079-935.53c0,0,6.436-86.08,19.773-264.36c15.655-154.919,40.627-543.1,40.627-543.1
	c0.188-2.47,0.188-2.48,0.188-2.49c0.691-8.74-7.28-9.29-17.496-7.24c-7.859,1.57-48.811,3.92-77.442,7.91
	c-39.229,5.46-26.964,14.61-24.283,49.33c10.34,133.98-7.342,311.779-18.961,408.89c-10.028,83.76-11.43,83.47-11.986,92.12
	c-23.322,311.14-52.775,858.88-65.287,1094.73C895.302,1934.432,928.994,1958.792,1003.147,2059.332L1003.147,2059.332z
	 M824.678,661.982c-15.24,263.89-49.803,862.33-59.486,1029.95c-8.862,204.65,23.842,307.79,52.527,361.11
	c74.462,112.98,263.354,364.531,338.194,455.71c27.089,33,23.803,37.93,41.08,0.58c10.449-20.63,19.98-42.09,26.513-57.41
	c9.955-26.16,10.531-20.26-10.004-46.72c-66.903-86.23-221.233-325.73-261.42-389.47c-19.309-30.63-57.689-69.95-54.632-267.04
	c10.727-276.14,49.366-855.9,65.395-1091.13c5.442-79.85,10.676-85.25-3.095-164.19c-15.507-88.86-31.178-152.08-42.765-192.45
	c-26.187-91.23-26.11-87.75-51.375,3.571c-1.618,5.7-3.273,11.69-4.944,17.93C819.518,475.952,833.754,504.892,824.678,661.982
	L824.678,661.982z M45.291,2233.832c-4.39,128.62-24.31,402.78-29.14,468.25c-1.35,40.21-3.1,29.79,13.19,30.05
	c5.33-0.68,11.86-1.51,17.1-2.18c1.86-0.05,3.59-0.1,5.2-0.16c20.69-4.26,17.73-8.14,15.54-26.3c-0.38-3.12-0.23-6.17,0.36-9.12
	c-2.84-28.85,53.809-38.84,57.04-12.04c2.44,5.84,3.92,13.41,4.06,22.98c1.98,8.39,5.55,11.76,24.72,10.21
	c32.04-5.17,120.84-18.86,163.156-27.48c29.549-6.02,29.118-1,25.38-31.39c4.652-36.9,51.093-47.06,61.62-10.979
	c3.147,27.479,2.242,27.53,20.326,24.63c46.509-7.43,219.876-35.13,245.399-39.21c61.544-9.829,53.403-12.389,53.829-69.03
	c0.29-38.74,3.462-461.93,4.446-593.11c-1.091-43.61,10.681-45.49-30.683-44.32c-64.618,1.83-224.616,6.36-249.736,7.059
	c-38.442,2.86-37.209-5.28-24.273,40.4c7.754,27.38,17.643,64.071,22.574,89.62c20.448,46.81-14.964,84.781-61.339,86.49
	c-57.314,8.29-208.329,23.07-286.769,30.56C38.081,2185.832,47.21,2171.362,45.291,2233.832L45.291,2233.832z M46.071,1242.982
	c-51.58-10.47-51.05-12.26-38.54,38.5c2.52,11.77,5.33,24.86,7.93,36.99c18.1,84.35,11.24,52.79,50.19,111.63
	c73.5,103.25,207.23,302.55,293.688,430.54c53.435,79.11,40.395,64.55,116.63,65.61c51.077-0.32,130.786-1.4,178.048-4.06
	c43.173-0.71,35.439-4.35,34.306-50.45c-4.377-178.18-25.118-854.3-97.778-1262.1c-5.305-29.771-0.934-20.26-17.076-45.21
	c-8.703-13.45-11.837-26.8-8.05-50.42c4.001-30.59,7.959-22.53-0.157-60.37c-1.908-9.45-4.072-20.161-6.253-30.96
	c-13.375-66.2-7.214-65.97-37.675-77.07c-18.724-6.83-290.773-105.98-315.383-114.94c-39.67-14.67-40.39-23.47-43.67,30.09
	c-22.27,363.331-52.24,658.15-49.19,772.57c0.96,36-1.75,25.16,18.84,53.54C203.62,1185.672,128.38,1259.672,46.071,1242.982
	L46.071,1242.982z M705.142,1919.122l18.297,0.24c7.141-0.03,6.072-2.92,8.562-18.84c22.991-147.23,51.17-723.159,57.618-883.65
	c1.621-39.13,14.955-360.72,18.859-454.9c5.106-57.04-6.891-64.68-33.272-80.06c-35.376-20.62-109.211-59.04-157.663-83.97
	c-52.282-26.9-47.24-25.57-43.636,23.57c1.936,16.651,4.543,32.9,6.646,44.86c5.394,25.29-0.126,18.44,29.194,19.7
	c70.131,2.98,102.681,71.94,16.022,85.2c-35.308,5.4-31.33-2.44-28.985,28.76c97.99,643.42,75.639,858.101,100.847,1304.8
	C698.27,1916.162,696.385,1918.332,705.142,1919.122L705.142,1919.122z"/>
</svg>
