<?xml version="1.0" encoding="utf-8"?>
<!-- Generator: Adobe Illustrator 21.0.2, SVG Export Plug-In . SVG Version: 6.00 Build 0)  -->
<svg version="1.1" id="Layer_1" xmlns="http://www.w3.org/2000/svg" xmlns:xlink="http://www.w3.org/1999/xlink" x="0px" y="0px"
	 width="1049.673px" height="935.866px" viewBox="0 0 1049.673 935.866" enable-background="new 0 0 1049.673 935.866"
	 xml:space="preserve">
<path id="Shape" fill-rule="evenodd" clip-rule="evenodd" fill="none" stroke="#000000" stroke-linejoin="round" stroke-miterlimit="10" d="
	M813.429,677.445c0,16.331-12.88,29.57-28.768,29.57c-15.888,0-28.768-13.239-28.768-29.57c0-16.331,12.88-29.57,28.768-29.57
	C800.549,647.875,813.429,661.114,813.429,677.445z M293.046,677.445c0,16.331-12.88,29.57-28.768,29.57
	s-28.768-13.239-28.768-29.57c0-16.331,12.88-29.57,28.768-29.57S293.046,661.114,293.046,677.445z M871.196,765.246
	c25.771,21.491,47.079,40.844,74.671,64.341c9.248,7.876,7.641,8.656,10.804-3.207c14.583-54.698,29.135-109.425,42.624-164.405
	c2.677-10.91,7.973-31.647,9.562-42.471c3.944-26.876-5.623-59.733-21.524-81.678c-19.191-26.486-0.788-78.1,8.604-105.939
	c6.728-19.942,15.228-41.506,19.784-61.947c4.651-20.867,10.165-41.847,15.323-62.611c3.486-14.033,6.981-28.063,10.463-42.097
	c1.431-5.771,3.008-11.667,4.371-17.504c-6.692-3.33-12.899-5.866-19.372-10.843c-10.805-8.307-17.083-19.517-17.616-33.273
	c-0.799-20.639,18.02-60.221,27.526-80.478c5.322-11.339,19.941-37.19,9.709-46.95c-11.459-10.93-38.048-44.434-54.736-65.701
	c-10.661-13.585-8.921-15.112-10.121,2.245c-0.373,5.399-0.747,10.798-1.12,16.197c-0.633,9.158-2.811,17.93-10.638,23.688
	c-3.986,2.932-8.127,4.155-12.439,4.655L871.196,765.246z M548.312,529.794c0.667,14.676,9.548,3.81,9.338-3.888
	c-0.21-7.698,13.432-216.216,13.256-228.183c-0.177-11.967,1.785-10.043,13.664-10.675c11.879-0.632,221.337-1.395,236.122-1.281
	c14.785,0.114,12.874,4.73,12.382,13.237c-7.766,134.233-7.385,116.443-11.381,176.477c-0.557,8.365,1.393,6.892,4.269,4.057
	c2.877-2.835,13.711-13.57,17.293-19.214c3.582-5.644,3.056-7.27,3.843-14.09c7.12-61.704,4.717-39.082,21.522-186.94
	c1.265-11.128-7.771-24.747-21.776-24.338c-14.006,0.409-233.404,2.758-261.314,2.135c-27.911-0.623-38.362,11.294-38.429,35.013
	C547.034,295.821,547.644,515.118,548.312,529.794z M357.759,795.006c-36.544,2.208-71.445,5.23-107.713,10.087
	c-13.038,1.479-20.826,2.509-37.269,9.34c-6.405,32.891-12.977,65.207-18.339,98.281c-3.462,9.939,8.603,21.824,25.874,23.154
	l302.552-0.73l302.593,0.73c17.269-1.329,29.336-13.214,25.874-23.154c-5.362-33.073-11.934-65.39-18.338-98.281
	c-16.443-6.83-24.232-7.861-37.27-9.34c-36.268-4.856-71.169-7.878-107.713-10.087c-17.177-0.791-17.035-3.256-0.147-3.264
	c32.487-0.016,64.977-0.038,97.467-0.065c53.889-0.044,80.122-40.857,84.543-74.722c4.42-33.865,80.888-680.707,82.061-692.068
	c1.173-11.362-1.181-17.782-8.139-17.636c-6.958,0.146-33.006-0.15-41.837-0.103c-8.831,0.047-8.047,3.73-8.539,9.393
	c-0.493,5.663-5.43,88.786-7.776,110.476c-0.773,7.139-12.217,25.471-19.616,25.138c-4.319-0.194-5.758-8.75-7.41-18.725
	c-3.182-19.223-13.65-89.26-15.373-95.217c-1.723-5.957,0.484-7.265-16.654-9.82C809.451,25.84,602.716,16.6,593.295,16.011
	c-9.42-0.589-9.535,2.39-10.674,7.9c-1.139,5.51-14.268,95.54-16.493,106.959c-2.225,11.419-3.849,20.666-7.259,20.282h-67.805
	v-0.01l-0.086,0.01c-3.41,0.384-5.034-8.863-7.259-20.282c-2.225-11.419-15.354-101.449-16.493-106.959
	c-1.139-5.51-1.254-8.489-10.674-7.9c-9.421,0.589-216.155,9.829-233.293,12.383c-17.138,2.554-14.932,3.863-16.654,9.82
	c-1.722,5.957-12.191,75.995-15.373,95.217c-1.651,9.975-3.091,18.531-7.41,18.725c-7.4,0.333-18.844-17.999-19.616-25.138
	c-2.346-21.69-7.284-104.813-7.776-110.476c-0.492-5.663,0.292-9.346-8.539-9.393c-8.831-0.047-34.879,0.249-41.837,0.103
	c-6.959-0.146-9.313,6.274-8.139,17.636c1.173,11.362,77.641,658.204,82.061,692.068c4.421,33.865,30.653,74.68,84.543,74.722
	c30.966,0.024,61.93,0.044,92.894,0.06C373.914,791.745,372.095,794.346,357.759,795.006z M501.487,529.794
	c-0.667,14.676-9.548,3.81-9.338-3.888c0.21-7.698-13.432-216.216-13.256-228.183c0.177-11.967-1.785-10.043-13.664-10.675
	c-11.879-0.632-221.337-1.395-236.122-1.281c-14.785,0.114-12.875,4.73-12.382,13.237c7.766,134.233,7.385,116.443,11.381,176.477
	c0.557,8.365-1.393,6.892-4.27,4.057c-2.876-2.835-13.711-13.57-17.293-19.214c-3.582-5.644-3.056-7.27-3.843-14.09
	c-7.119-61.704-4.717-39.082-21.522-186.94c-1.265-11.128,7.77-24.747,21.776-24.338c14.006,0.409,233.404,2.758,261.314,2.135
	c27.911-0.623,38.362,11.294,38.429,35.013C502.765,295.821,502.155,515.118,501.487,529.794z M178.477,765.246
	c-25.771,21.491-47.079,40.844-74.672,64.341c-9.248,7.876-7.641,8.656-10.804-3.207c-14.584-54.698-29.135-109.425-42.624-164.405
	c-2.677-10.91-7.973-31.647-9.562-42.471c-3.944-26.876,5.623-59.733,21.524-81.678c19.191-26.486,0.788-78.1-8.604-105.939
	c-6.728-19.942-15.228-41.506-19.784-61.947c-4.651-20.867-10.165-41.847-15.323-62.611c-3.486-14.033-6.981-28.063-10.463-42.097
	c-1.431-5.771-3.008-11.667-4.37-17.504c6.692-3.33,12.899-5.866,19.372-10.843c10.805-8.307,17.083-19.517,17.616-33.273
	c0.799-20.639-18.019-60.221-27.526-80.478c-5.321-11.339-19.941-37.19-9.709-46.95c11.46-10.93,38.049-44.434,54.737-65.701
	c10.66-13.585,8.921-15.112,10.121,2.245c0.373,5.399,0.747,10.798,1.12,16.197c0.633,9.158,2.811,17.93,10.638,23.688
	c3.986,2.932,8.127,4.155,12.439,4.655L178.477,765.246z"/>
</svg>
