<?xml version="1.0" encoding="utf-8"?>
<!-- Generator: Adobe Illustrator 16.0.0, SVG Export Plug-In . SVG Version: 6.00 Build 0)  -->
<!DOCTYPE svg PUBLIC "-//W3C//DTD SVG 1.1//EN" "http://www.w3.org/Graphics/SVG/1.1/DTD/svg11.dtd">
<svg version="1.1" id="Layer_1" xmlns="http://www.w3.org/2000/svg" xmlns:xlink="http://www.w3.org/1999/xlink" x="0px" y="0px"
	 width="1549.613px" height="463.964px" viewBox="0 0 1549.613 463.964" enable-background="new 0 0 1549.613 463.964"
	 xml:space="preserve">
<path d="M211.124,104.091L5.054,364.691c-1.85,2.348-3.929,5.41-4.744,8.318c-0.271,0.979-0.582,2.65,0.109,3.541
	c0.82,1.051,3.012,1.062,4.18,0.975c3.588-0.279,7.624-1.947,10.802-3.557l0.062-0.027l78.578-35.117
	c34.277-15.861,61.051-6.107,86.951,19.408l0.045,0.043l94.305,101.447c5.928,5.693,13.338,6.385,16.26-2.463
	c23.699-71.646,73.937-121.279,139.576-156.479l133.604-70.333c40.97-22.012,85.703-29.762,131.891-28.026l0.109,0.004
	l829.624,96.524c5.66,0.703,18.064,1.77,21.893-3.863c3.24-4.774-0.242-13.535-2.361-18.104l-26.082-52.248l-0.021-0.041
	c-11.498-24.973-37.256-37.229-62.619-43.658l-0.043-0.012l-0.043-0.012c-41.582-11.924-83.436-22.978-125.373-33.572
	c-53.07-13.408-106.346-26.07-159.695-38.308c-65.729-15.078-131.604-29.502-197.562-43.531
	c-79.555-16.923-159.229-33.264-238.975-49.24l-0.05-0.01l-0.052-0.012C664.72-0.497,592.997-4.378,520.94,4.96
	c-71.526,9.506-142.271,24.1-211.766,43.524l-0.055,0.015l-0.052,0.014c-9.672,2.316-19.435,4.541-29.004,7.246
	c-7.539,2.131-14.959,4.611-22.021,8.025c-7.998,3.864-15.07,8.737-21.812,14.506C227.171,86.041,218.898,95.073,211.124,104.091
	L211.124,104.091z"/>
</svg>
