<?xml version="1.0" encoding="utf-8"?>
<!-- Generator: Adobe Illustrator 21.0.2, SVG Export Plug-In . SVG Version: 6.00 Build 0)  -->
<svg version="1.1" id="Layer_1" xmlns="http://www.w3.org/2000/svg" xmlns:xlink="http://www.w3.org/1999/xlink" x="0px" y="0px"
	 width="1427.235px" height="820.3px" viewBox="0 0 1427.235 820.3" enable-background="new 0 0 1427.235 820.3"
	 xml:space="preserve">
<path id="Shape" fill-rule="evenodd" clip-rule="evenodd" fill="none" stroke="#000000" stroke-linejoin="round" stroke-miterlimit="10" d="
	M827.657,364.288c7.636,1.782,8.981,5.971,8.133,10.445c-0.849,4.475-4.595,6.325-11.092,5.145
	c-97.268-11.694-194.537-23.389-291.805-35.083c-11.104-1.721-18.347-10.307-19.262-24.727c-0.916-14.421,5.942-18.229,8.913-27.344
	c17.884-25.227,35.768-50.455,53.652-75.682c7.136-8.34,11.329-10.202,21.217-12.637c9.888-2.436,20.843-4.133,34.691-1.135
	c80.585,13.933,161.169,27.866,241.755,41.798c7.602,2.209,8.882,7.644,7.817,11.941c-1.065,4.297-5.752,6.416-12.052,5.148
	c-46.84-6.741-93.679-13.481-140.518-20.221c-17.869-3.24-29.309,5.572-36.262,16.509c-10.216,16.246-20.431,32.491-30.648,48.736
	c-11.778,18.17-10.123,27.347,10.735,30.722C724.507,346.699,776.082,355.493,827.657,364.288z M818.311,418.272
	c0.584-4.517,0.375-8.612-7.812-10.125c-100.439-10.578-200.876-21.156-301.315-31.734c-30.858-4.067-44.814,10.087-53.121,19.746
	c-22.64,31.357-45.281,62.713-67.92,94.07c-24.878,33.283,0.388,51.951,19.866,52.405c104.072,2.431,236.422-2.808,352.131-4.457
	c4.448-0.062,7.558,0.398,8.057-5.58c0.352-4.209-1.323-8.168-10.22-8.933c-73.09-1.921-146.179-3.842-219.268-5.763
	c-6.904-0.476-11.491-2.738-13.678-7.445c-2.175-4.683-0.977-8.288,3.173-15.164c17.814-24.942,35.626-49.884,53.44-74.827
	c10.402-11.833,15.701-12.662,37.339-10.534c63.7,4.145,127.4,8.29,191.1,12.435C815.214,422.935,817.727,422.788,818.311,418.272z
	 M1381.791,262.713c2.643-6.893,0.894-14.504-7.08-17.92c-178.168-59.714-356.018-120.656-534.187-180.37
	c-11.09-3.537-16.245-0.84-20.751,5.645c-4.043,6.484-7.285,13.927-11.329,20.411c-4.367,5.079-10.771,5.572-20.492,1.962
	c-22.366-10.489-44.732-20.977-67.098-31.466c-5.682-2.978-10.298-7.613-7.296-19.2c1.13-3.809,2.262-7.619,3.393-11.429
	c2.017-5.733,2.431-12.423-6.118-16.854c-7.656-3.401-15.313-6.802-22.97-10.202c-7.978-4.005-13.923-5.346-18.784,1.744
	c-12.044,27.243-24.089,54.487-36.133,81.73c-4.997,10.471-4.449,17.942,3.247,23.051c3.991,2.91,7.982,5.82,11.973,8.73
	c6.023,4.631,9.055,10.296,5.478,14.569c-3.578,4.273-11.526,3.749-17.832,0.186c-3.491-2.413-6.983-4.825-10.475-7.238
	c-8.14-4.877-14.901-0.63-21.335,7.3c-97.292,139.44-194.584,278.88-291.876,418.319c-8.924,12.579-1.517,18.118,14.979,17.798
	c348.805-2.427,697.612-4.854,1046.418-7.28c7.114,0.27,11.872-3.404,11.39-11.659c-2.584-66.071-5.167-132.143-7.752-198.214
	c-0.266-8.646-4.903-14.615-13.267-15.345c-11.529-0.333-23.058-0.667-34.588-1c-6.404,0.44-13.152-11.29-12.203-17.269
	c1.331-10.82,2.662-21.639,3.993-32.459c1.129-7.76,9.042-10.877,13.43-10.274c6.906,1.695,13.812,3.389,20.718,5.084
	c6.447,2.836,15.339,1.536,18.354-3.452C1376.329,272.645,1379.06,267.679,1381.791,262.713z M612.645,94.828
	c2.424-4.718,8.005-11.731-1.101-17.077c-9.106-5.346-70.777-39.208-78.628-43.612c-7.851-4.404-25.584-8.429-34.509-9.561
	c-8.925-1.132-59.989-5.455-79.977-5.8c-19.988-0.345-23.496,1.813-15.931,21.678c7.565,19.866,5.736,19.415,4.851,30.445
	c-0.885,11.029-9.2,27.426-21.614,41.879c-12.414,14.453-68.939,82.614-132.483,157.817
	C189.708,345.798,24.245,539.882,14.838,551.687c-9.408,11.805-26.882,26.675-2.227,26.808
	c24.655,0.133,242.009-6.994,252.146-7.505s15.514-5.16,21.303-11.177c3.692-3.838,103.534-141.588,126.577-174.226
	c1.88-2.663,9.077-11.018,6.711-22.049c-1.766-8.228-8.118-7.79-14.745-13.411c-13.367-11.337-32.116-33.062-5.14-59.309
	c19-18.486,38.924-10.441,59.938,7.813c8.683,7.543,18.412,1.977,25.903-9.572C548.775,191.206,611.612,96.838,612.645,94.828z
	 M1384.518,797.576c52.94-3.52,41.723-40.945,41.723-40.945s-13.073-80.034-21.289-132.964
	c-8.217-52.93-59.763-46.638-59.763-46.638s-1008.528,5.39-1036.708,5.659c-28.18,0.268-30.533-1.542-32.017,3.692
	c-1.484,5.233,9.196,8.094,9.196,8.094s52.129,18.366,113.636,29.347c61.507,10.981,67.553,45.448,75.275,64.22
	c7.722,18.772,54.913,132.258,54.913,132.258s17.898-17.968,40.086-25.697C569.57,794.603,1331.579,801.096,1384.518,797.576z"/>
</svg>
