<?xml version="1.0" encoding="utf-8"?>
<!-- Generator: Adobe Illustrator 21.0.2, SVG Export Plug-In . SVG Version: 6.00 Build 0)  -->
<svg version="1.1" id="Layer_1" xmlns="http://www.w3.org/2000/svg" xmlns:xlink="http://www.w3.org/1999/xlink" x="0px" y="0px"
	 width="548.813px" height="1956.913px" viewBox="0 0 548.813 1956.913" enable-background="new 0 0 548.813 1956.913"
	 xml:space="preserve">
<path id="Shape" fill-rule="evenodd" clip-rule="evenodd" fill="none" stroke="#000000" stroke-linejoin="round" stroke-miterlimit="10" d="
	M142.376,1887.453c24.433,0.519,44.696-20.546,45.259-47.05c0.563-26.504-18.788-48.41-43.221-48.928
	c-24.433-0.519-44.696,20.546-45.259,47.05C98.592,1865.028,117.943,1886.934,142.376,1887.453z M19.385,1793.92
	c-0.329,97.563-13.571,123.77,97.092,146.051c15.702,3.161,31.404,6.323,47.105,9.484c110.681,22.285,97.831-3.217,102.546-105.757
	c8.092-175.968,0.866-356.833,42.489-418.368c-49.059-107.343-51.775-106.193,13.684-7.706
	c69.064-1.956,129.143-3.657,198.208-5.613c9.958-220.045,11.482-414.857,27.704-886.175c1.208-35.099,0.963-63.047-4.257-95.986
	c-5.22-32.939-37.362-342.5-42.934-372.985c-5.572-30.485-7.765-32.304-38.865-36.697c-31.1-4.393-341.41-19.074-369.827-20.05
	C63.913-0.857,54.958,3.598,49.224,35.284C43.49,66.97,8.233,433.584,5.04,448.439c-3.192,14.855-5.452,40.996-4.977,66.896
	C16.602,1418.905,22.164,970.203,19.385,1793.92z"/>
</svg>
