<?xml version="1.0" encoding="utf-8"?>
<!-- Generator: Adobe Illustrator 16.0.0, SVG Export Plug-In . SVG Version: 6.00 Build 0)  -->
<!DOCTYPE svg PUBLIC "-//W3C//DTD SVG 1.1//EN" "http://www.w3.org/Graphics/SVG/1.1/DTD/svg11.dtd">
<svg version="1.1" id="Layer_1" xmlns="http://www.w3.org/2000/svg" xmlns:xlink="http://www.w3.org/1999/xlink" x="0px" y="0px"
	 width="1580.955px" height="508.199px" viewBox="0 0 1580.955 508.199" enable-background="new 0 0 1580.955 508.199"
	 xml:space="preserve">
<path fill="none" stroke="#000000" stroke-linejoin="round" stroke-miterlimit="10" d="M1580.869,456.945
	c-0.412-2.992-2.051-6.312-3.562-8.896L1408.93,161.649c-6.466-9.997-13.418-20.081-21.326-28.999
	c-5.888-6.64-12.228-12.437-19.617-17.363c-6.529-4.351-13.539-7.824-20.717-10.97c-9.105-3.992-18.474-7.536-27.732-11.156
	l-0.049-0.02l-0.053-0.021c-66.168-28.771-134.242-52.932-203.793-72.158C1045.546,1.827,973.973-4.166,901.63,2.812l-0.051,0.006
	l-0.051,0.002c-81.185,4.885-162.347,10.145-243.464,15.996c-67.261,4.85-134.493,10.102-201.668,16.021
	c-54.527,4.806-109.032,10.041-163.441,16.043c-42.996,4.742-85.968,9.951-128.793,16.06l-0.043,0.006l-0.043,0.005
	c-26.007,2.89-53.204,11.497-68.02,34.656l-0.023,0.038L63.03,149.821c-2.728,4.24-7.382,12.437-4.825,17.612
	c3.017,6.104,15.449,6.752,21.153,6.829l835.021,18.181l0.11,0.011c45.984,4.616,89.232,18.432,126.797,45.854l122.694,87.99
	c60.188,43.869,103.146,99.933,116.798,174.146c1.678,9.161,9.109,9.498,15.767,4.67l107.327-87.56l0.05-0.035
	c29.157-21.727,57.012-27.717,88.793-7.301l73.018,45.562l0.057,0.039c2.931,2.022,6.693,4.229,10.213,5.002
	c1.146,0.25,3.312,0.539,4.271-0.394C1581.082,459.65,1581.005,457.951,1580.869,456.945z"/>
</svg>
