<?xml version="1.0" encoding="utf-8"?>
<!-- Generator: Adobe Illustrator 16.0.0, SVG Export Plug-In . SVG Version: 6.00 Build 0)  -->
<!DOCTYPE svg PUBLIC "-//W3C//DTD SVG 1.1//EN" "http://www.w3.org/Graphics/SVG/1.1/DTD/svg11.dtd">
<svg version="1.1" id="Layer_1" xmlns="http://www.w3.org/2000/svg" xmlns:xlink="http://www.w3.org/1999/xlink" x="0px" y="0px"
	 width="1523.492px" height="508.197px" viewBox="0 0 1523.492 508.197" enable-background="new 0 0 1523.492 508.197"
	 xml:space="preserve">
<path d="M1523.406,456.946c-0.411-2.992-2.051-6.312-3.561-8.896l-168.378-286.4c-6.467-9.997-13.418-20.081-21.326-28.999
	c-5.889-6.64-12.229-12.437-19.619-17.363c-6.529-4.351-13.539-7.824-20.715-10.97c-9.107-3.992-18.475-7.536-27.734-11.156
	l-0.049-0.02l-0.051-0.021c-66.168-28.771-134.244-52.932-203.793-72.158C988.083,1.828,916.51-4.166,844.167,2.812l-0.053,0.006
	l-0.051,0.002C762.882,7.706,681.719,12.965,600.6,18.816c-67.259,4.85-134.493,10.102-201.667,16.021
	C344.405,39.644,289.9,44.878,235.492,50.88c-42.996,4.742-85.969,9.951-128.793,16.06l-0.043,0.006l-0.043,0.005
	c-26.008,2.89-53.204,11.497-68.021,34.656l-0.021,0.038L5.567,149.821c-2.729,4.24-7.382,12.437-4.824,17.612
	c3.019,6.104,15.448,6.752,21.152,6.829l835.021,18.181l0.107,0.011c45.986,4.616,89.234,18.432,126.797,45.854l122.695,87.989
	c60.188,43.869,103.146,99.935,116.797,174.146c1.678,9.162,9.111,9.498,15.77,4.67l107.324-87.56l0.053-0.035
	c29.154-21.727,57.012-27.717,88.793-7.301l73.018,45.562l0.055,0.039c2.934,2.021,6.695,4.229,10.213,5.002
	c1.146,0.25,3.314,0.539,4.271-0.396C1523.619,459.651,1523.544,457.952,1523.406,456.946z"/>
</svg>
