<?xml version="1.0" encoding="utf-8"?>
<!-- Generator: Adobe Illustrator 21.0.2, SVG Export Plug-In . SVG Version: 6.00 Build 0)  -->
<svg version="1.1" id="Layer_1" xmlns="http://www.w3.org/2000/svg" xmlns:xlink="http://www.w3.org/1999/xlink" x="0px" y="0px"
	 width="1106.759px" height="954.496px" viewBox="0 0 1106.759 954.496" enable-background="new 0 0 1106.759 954.496"
	 xml:space="preserve">
<path id="K" fill="none" stroke="#000000" stroke-miterlimit="10" d="M787.839,0.591c-16.501,6.421-9.609,63.266-28.985,78.05
	c-21.608,16.485-61.79-16.924-74.194,6.256l-78.223,131.184l-75.698-55.352l-131.397,1.638l-333.698,0.819 M582.994,710.862
	c11.904-0.905,22.347,7.993,23.243,19.805c0.898,11.812-8.08,22.185-19.986,23.089c-11.906,0.903-22.347-7.994-23.245-19.806
	C562.109,722.138,571.088,711.766,582.994,710.862z M59.667,220.836c-0.897-11.813,8.081-22.185,19.987-23.089
	c11.905-0.904,22.348,7.992,23.244,19.806c0.897,11.812-8.081,22.184-19.987,23.088C71.006,241.545,60.565,232.649,59.667,220.836z"
	/>
</svg>
