<?xml version="1.0" encoding="utf-8"?>
<!-- Generator: Adobe Illustrator 21.0.2, SVG Export Plug-In . SVG Version: 6.00 Build 0)  -->
<svg version="1.1" id="Layer_1" xmlns="http://www.w3.org/2000/svg" xmlns:xlink="http://www.w3.org/1999/xlink" x="0px" y="0px"
	 width="1672.96px" height="734.859px" viewBox="0 0 1672.96 734.859" enable-background="new 0 0 1672.96 734.859"
	 xml:space="preserve">
<path id="Shape" fill="none" stroke="#000000" stroke-linejoin="round" stroke-miterlimit="10" d="M1662.692,177.244
	c-60.181,40.553-124.974,68.496-199.912,68.704c-51.976,3.648-64.91,12.414-90.754,33.197
	c-37.857,31.707-76.59,67.033-117.25,110.323L842.232,138.016c-9.086-7.514-6.671-22.341,7.294-37.977l60.204-61.132
	c15.067-13.117,34.535-17.6,58.402-13.448c320.441,108.151,533.346,133.066,689.001,133.41
	C1677.353,158.353,1677.065,167.745,1662.692,177.244L1662.692,177.244z M860.631,2.689c-60.993-6.498-159.189,0.214-191.46,5.055
	c-40.248,1.557-51.011,52.199-74.505,78.394c-5.975,6.742-12.498,13.264-19.394,19.632c-23.349,17.44-68.691,8.984-75.432,4.664
	c-19.128-12.257-25.838-18.321-44.363,0.485L40.097,534.598c16.946,46.415-2.129,69.129-35.548,74.38
	c-13.017,2.045,4.976,29.988,15.583,41.315c32.096,1.732,285.814,25.126,317.966,27.905c23.791,2.055,73.005,41.998,80.333,56.661
	c190.316-94.831,283.129-76.134,479.826-86.944c46.492-14.987,69.401-71.778,131.84-72.205l255.276,1.036
	c9.96,0.879,34.874-1.345,38.11-25.657c2.854-21.435-6.531-63.903-34.506-96.788c-171.073-113.441-288.075-182.812-459.337-298.72
	c-18.524-15.568-27.061-33.779-11.044-57.439c18.362-20.399,47.712-61.424,58.882-79.184
	C888.208,10.245,883.365,6.914,860.631,2.689L860.631,2.689z"/>
</svg>
