<?xml version="1.0" encoding="utf-8"?>
<!-- Generator: Adobe Illustrator 21.0.2, SVG Export Plug-In . SVG Version: 6.00 Build 0)  -->
<svg version="1.1" id="Layer_1" xmlns="http://www.w3.org/2000/svg" xmlns:xlink="http://www.w3.org/1999/xlink" x="0px" y="0px"
	 width="1672.96px" height="734.859px" viewBox="0 0 1672.96 734.859" enable-background="new 0 0 1672.96 734.859"
	 xml:space="preserve">
<path id="Shape" d="M1652.829,650.293c-32.096,1.732-285.814,25.126-317.966,27.905c-23.791,2.055-73.005,41.998-80.333,56.661
	c-190.316-94.831-283.129-76.134-479.826-86.944c-46.492-14.987-69.401-71.778-131.84-72.205l-255.276,1.036
	c-9.96,0.879-34.874-1.345-38.11-25.657c-2.854-21.435,6.531-63.903,34.506-96.788c171.073-113.441,288.075-182.812,459.337-298.72
	c18.524-15.568,27.061-33.779,11.044-57.439c-18.362-20.399-47.712-61.424-58.882-79.184c-10.73-8.713-5.887-12.044,16.847-16.269
	c60.993-6.498,159.189,0.214,191.46,5.055c40.248,1.557,51.011,52.199,74.505,78.394c5.975,6.742,12.498,13.264,19.394,19.632
	c23.349,17.44,68.691,8.984,75.432,4.664c19.128-12.257,25.838-18.321,44.363,0.485l415.38,423.679
	c-16.946,46.415,2.129,69.129,35.548,74.38C1681.429,611.023,1663.436,638.966,1652.829,650.293z M418.185,389.468l412.544-251.452
	c9.086-7.514,6.671-22.341-7.294-37.977L763.23,38.907c-15.067-13.117-34.535-17.6-58.402-13.448
	C384.388,133.61,171.483,158.525,15.828,158.869c-20.22-0.516-19.932,8.876-5.559,18.375
	c60.181,40.553,124.974,68.496,199.912,68.704c51.976,3.648,64.91,12.414,90.754,33.197
	C338.792,310.852,377.525,346.178,418.185,389.468z"/>
</svg>
