<?xml version="1.0" encoding="utf-8"?>
<!-- Generator: Adobe Illustrator 21.0.2, SVG Export Plug-In . SVG Version: 6.00 Build 0)  -->
<svg version="1.1" id="Layer_1" xmlns="http://www.w3.org/2000/svg" xmlns:xlink="http://www.w3.org/1999/xlink" x="0px" y="0px"
	 width="1223.432px" height="446.726px" viewBox="0 0 1223.432 446.726" enable-background="new 0 0 1223.432 446.726"
	 xml:space="preserve">
<path id="T" fill="none" stroke="#000000" stroke-linejoin="round" stroke-miterlimit="10" d="M1223.432,82.564
	c0.02-3.129-1.292-6.127-3.553-8.736l-33.218-24.37L822.002,13.537L799.186,0l-74.971,66.123l-10.332,28.921l-13.898-23.722
	L390.174,43.424L375.401,62.27l-20.569-21.25C242.348,29.251,129.94,26.758,14.946,34.247L0,61.822
	c85.677,120.542,165.322,243.429,235.61,366.964c17.564,23.258,36.322,23.901,56.273,1.93
	c135.734-90.404,478.36-108.009,507.333-123.488c108.786-47.681,214.293-99.626,316.28-156.146
	c22.11-9.237,39.7-6.311,51.578,11.984l-0.005,0.004c5.672,7.753,14.839,12.789,25.181,12.789c17.221,0,31.181-13.96,31.181-31.181
	l-0.012-62.114L1223.432,82.564z"/>
</svg>
