<?xml version="1.0" encoding="utf-8"?>
<!-- Generator: Adobe Illustrator 21.0.2, SVG Export Plug-In . SVG Version: 6.00 Build 0)  -->
<svg version="1.1" id="Layer_1" xmlns="http://www.w3.org/2000/svg" xmlns:xlink="http://www.w3.org/1999/xlink" x="0px" y="0px"
	 width="2032.515px" height="897.152px" viewBox="0 0 2032.515 897.152" enable-background="new 0 0 2032.515 897.152"
	 xml:space="preserve">
<path id="Shape" d="M1194.957,795.559l-564.655,91.7c-68.91,19.306-111.751,8.252-145.092-15.045
	C317.478,767.095,158.14,657.205,0,546.635C118.695,366.743,227.082,184.016,330.784,0l209.392,27.615L194.182,426.396
	l12.006,11.596L708.919,89.654l341.151,61.976L883.65,383.029l363.294-250.336C1384.447,271.564,1305.185,525.352,1194.957,795.559z
	 M1971.779,401.23l35.754-0.001c12.644,0,38.778-5.797,15.947-28.911l-190.053-137.423l-447.702-27.981
	c-7.254,104.16-17.098,189.114-32.643,226.93l-9.328,37.337l-96.38,315.567l656.006-138.35l110.372-181.879
	c-5.308-1.672-11.347-2.196-18.194-1.554h-23.779c-22.23,0-40.417-11.976-40.417-26.614v-10.509
	C1931.362,413.206,1949.55,401.23,1971.779,401.23z"/>
</svg>
