<?xml version="1.0" encoding="utf-8"?>
<!-- Generator: Adobe Illustrator 21.0.2, SVG Export Plug-In . SVG Version: 6.00 Build 0)  -->
<svg version="1.1" id="Layer_1" xmlns="http://www.w3.org/2000/svg" xmlns:xlink="http://www.w3.org/1999/xlink" x="0px" y="0px"
	 width="2032.515px" height="897.152px" viewBox="0 0 2032.515 897.152" enable-background="new 0 0 2032.515 897.152"
	 xml:space="preserve">
<path id="K" fill="none" stroke="#000000" stroke-linejoin="round" stroke-miterlimit="10" d="M1247.374,786.748l96.38-315.567
	l9.328-37.337c15.545-37.816,25.389-122.77,32.643-226.93l0,0 M2013.752,466.519c-5.308-1.672-11.347-2.196-18.194-1.554h-23.779
	c-22.23,0-40.417-11.976-40.417-26.614v-10.509c0-14.636,18.188-26.612,40.417-26.612l35.754-0.001
	c8.122,0,21.809-2.392,24.511-10.228 M540.176,27.615L194.182,426.396l12.006,11.596L708.919,89.654l341.151,61.976L883.65,383.029
	l363.294-250.336 M1194.957,795.559c93.801-229.939,165.178-447.988,99.635-593.449"/>
</svg>
