<?xml version="1.0" encoding="utf-8"?>
<!-- Generator: Adobe Illustrator 21.0.2, SVG Export Plug-In . SVG Version: 6.00 Build 0)  -->
<svg version="1.1" id="Layer_1" xmlns="http://www.w3.org/2000/svg" xmlns:xlink="http://www.w3.org/1999/xlink" x="0px" y="0px"
	 width="2022.7px" height="897.2px" viewBox="0 0 2022.7 897.2" enable-background="new 0 0 2022.7 897.2" xml:space="preserve">
<path id="Shape" d="M2022.7,546.7c-158.1,110.6-317.5,220.4-485.2,325.6c-33.3,23.3-76.2,34.3-145.1,15l-564.6-91.7
	c-110.2-270.2-189.5-524-52-662.9l363.3,250.4L972.7,151.7l341.1-62l502.7,348.4l12-11.6l-346-398.8L1691.9,0
	C1795.6,184.1,1904,366.8,2022.7,546.7z M688.8,671.4c-0.8,11.2-7.6,17.2-20.6,18.2H392.7c-12.4-2.8-19.7-9.7-22-20.6V454.4
	c2.5-11.4,9.1-17.8,19.7-19.1h288.9c-15.4-37.8-25.3-122.7-32.5-226.9l-447.7,28L9,373.8c-22.8,23.1,3.3,28.9,15.9,28.9h35.8
	c22.2,0,40.4,12,40.4,26.6v10.5c0,14.6-18.2,26.6-40.4,26.6H36.9c-6.8-0.6-12.9-0.1-18.2,1.6l110.4,181.9l656,138.4l-96.4-315.6
	L688.8,671.4z M401.2,446.3c-11.1,0-20.2,9.1-20.2,20.2v194.3c0,11.1,9.1,20.2,20.2,20.2h253.4c11.1,0,20.2-9.1,20.2-20.2V466.4
	c0-11.1-9.1-20.2-20.2-20.1H401.2z"/>
</svg>
