<?xml version="1.0" encoding="utf-8"?>
<!-- Generator: Adobe Illustrator 21.0.2, SVG Export Plug-In . SVG Version: 6.00 Build 0)  -->
<svg version="1.1" id="Layer_1" xmlns="http://www.w3.org/2000/svg" xmlns:xlink="http://www.w3.org/1999/xlink" x="0px" y="0px"
	 width="1220.781px" height="557.197px" viewBox="0 0 1220.781 557.197" enable-background="new 0 0 1220.781 557.197"
	 xml:space="preserve">
<path id="T" fill="none" stroke="#000000" stroke-linejoin="round" stroke-miterlimit="10" d="M1214.823,423.768
	c-0.86-16.452-14.472-29.527-31.138-29.527c-12.256,0-22.861,7.071-27.957,17.357l0.003,0.001
	c-7.347,13.823-18.083,18.43-32.208,13.823l-0.004-0.002L618.328,104.83L500.945,33.1l0,0
	C433.229-9.536,405.182-7.154,346.702,18.598L226.057,82.963c-17.93,9.306-18.425,13.11-21.082,45.728l-6.542,127.634l-1.17,16.754
	c-3.436,24.871-7.565,42.858-25.496,68.978c-30.344,47.48-66.22,78.596-161.742,182.06c-16.934,16.891-10.667,24.602,5.801,28.359
	c103.78,1.319,207.531,2.673,311.297,4.721c22.839-0.331,43.415-7.918,72.087-21.31l46.032-23.226
	c58.897-30.532,109.723-60.74,175.117-80.859c34.407-8.678,82.775-19.914,145.053,1.906l444.471,119.547
	c6.378,0.511,11.943,1.564,10.731-8.554L1214.823,423.768z"/>
</svg>
