<?xml version="1.0" encoding="utf-8"?>
<!-- Generator: Adobe Illustrator 21.0.2, SVG Export Plug-In . SVG Version: 6.00 Build 0)  -->
<svg version="1.1" id="Layer_1" xmlns="http://www.w3.org/2000/svg" xmlns:xlink="http://www.w3.org/1999/xlink" x="0px" y="0px"
	 width="1220.781px" height="557.197px" viewBox="0 0 1220.781 557.197" enable-background="new 0 0 1220.781 557.197"
	 xml:space="preserve">
<path d="M1209.883,553.255L765.412,433.708c-62.278-21.82-110.646-10.584-145.053-1.906
	c-65.394,20.119-116.22,50.327-175.117,80.859l-46.032,23.226c-28.672,13.392-49.248,20.979-72.087,21.31
	c-103.766-2.048-207.517-3.402-311.297-4.721c-16.468-3.757-22.735-11.468-5.801-28.359
	c95.522-103.464,131.398-134.58,161.742-182.06c17.931-26.12,22.06-44.107,25.496-68.978l1.17-16.754l6.542-127.634
	c2.657-32.618,3.152-36.422,21.082-45.728l120.645-64.365C405.182-7.154,433.229-9.536,500.945,33.1l117.383,71.73l567.758,360.294
	c10.741,6.736,13.266,6.104,17.417,17.796l16.449,57.986C1223.05,555.059,1216.969,553.823,1209.883,553.255z"/>
</svg>
