<?xml version="1.0" encoding="utf-8"?>
<!-- Generator: Adobe Illustrator 24.3.0, SVG Export Plug-In . SVG Version: 6.00 Build 0)  -->
<svg version="1.1" id="Layer_1" xmlns="http://www.w3.org/2000/svg" xmlns:xlink="http://www.w3.org/1999/xlink" x="0px" y="0px"
	 width="1978.357px" height="863.656px" viewBox="0 0 1978.357 863.656" enable-background="new 0 0 1978.357 863.656"
	 xml:space="preserve">
<path id="K_1_" fill="none" stroke="#000000" stroke-linejoin="round" stroke-miterlimit="10" d="M839.735,126.617l0.609,284.773
	c-0.019,16.167-1.463,23.081-14.345,23.507l-201.419,0.625c-17.548,0.323-18.387,8.992-9.814,16.109
	c15.442,12.233,29.063,23.345,44.71,35.295c129.717,99.072,288.978,177.675,426.605,217.317 M561.3,48.67l0.692,379.982
	c0.217,16.119,1.809,21.838,14.909,37.096c38.817,50.754,138.639,153.404,215.965,223.741
	c61.456,55.903,126.286,115.497,198.41,160.325c3.491,2.226,5.262,4.295,5.608,6.068"/>
</svg>
