<?xml version="1.0" encoding="utf-8"?>
<!-- Generator: Adobe Illustrator 24.3.0, SVG Export Plug-In . SVG Version: 6.00 Build 0)  -->
<svg version="1.1" id="Layer_1" xmlns="http://www.w3.org/2000/svg" xmlns:xlink="http://www.w3.org/1999/xlink" x="0px" y="0px"
	 width="1978.357px" height="863.656px" viewBox="0 0 1978.357 863.656" enable-background="new 0 0 1978.357 863.656"
	 xml:space="preserve">
<path id="Shape_1_" fill="none" stroke="#000000" stroke-linejoin="round" stroke-miterlimit="10" d="M1952.79,765.761
	c22.065-0.566,31.189-18.601,22.048-42.41c-73.006-178.822-161.03-348.426-263.583-509.111
	c-7.858-12.344-9.456-12.216-31.881-14.015c-289.636-26.294-553.569-24.215-782.167-84.747
	c-19.269-4.674-57.553-26.525-57.472,11.139l0.609,284.773c-0.019,16.167-1.463,23.081-14.345,23.507l-201.419,0.625
	c-17.548,0.323-18.387,8.992-9.814,16.109c15.442,12.233,29.063,23.345,44.71,35.295
	c163.645,124.985,374.309,217.392,529.239,240.096C1439.423,756.17,1695.253,764.445,1952.79,765.761z M546.34,29.123
	c-149.828,4.315-296.831-8.941-442.818-28.521c-13.336-1.635-13.393-1.38-10.587,20.002c4.062,52.154-21.672,73.221-70.702,69.98
	C3.521,88.891-3.817,94.641,1.891,121.57c12.01,58.402,36.317,118.906,60.294,173.495
	c45.181,102.865,99.744,187.763,138.851,218.213c32.057,25.701,81.906,55.507,142.333,86.102
	c161.379,81.708,389.36,185.938,570.944,260.102c6.343,3.008,16.144,4.818,33.632,3.962l37.911-1.625
	c11.3-0.537,15.427-5.625,5.42-12.005c-72.124-44.828-136.954-104.422-198.41-160.325
	c-77.326-70.337-177.148-172.987-215.965-223.741c-13.1-15.258-14.692-20.977-14.909-37.096L561.3,48.67
	C560.928,35.434,555.938,28.925,546.34,29.123z M830.297,125.793v291.75c0,5.362-4.387,9.75-9.75,9.75h-198.75
	c-5.363,0-9.75-4.388-9.75-9.75v-291.75c0-5.362,4.387-9.75,9.75-9.75h198.75C825.909,116.043,830.297,120.431,830.297,125.793z"/>
</svg>
