<?xml version="1.0" encoding="utf-8"?>
<!-- Generator: Adobe Illustrator 24.3.0, SVG Export Plug-In . SVG Version: 6.00 Build 0)  -->
<svg version="1.1" id="Layer_1" xmlns="http://www.w3.org/2000/svg" xmlns:xlink="http://www.w3.org/1999/xlink" x="0px" y="0px"
	 width="2885.342px" height="1109.45px" viewBox="0 0 2885.342 1109.45" enable-background="new 0 0 2885.342 1109.45"
	 xml:space="preserve">
<path id="T" fill="none" stroke="#000000" stroke-linejoin="round" stroke-miterlimit="10" d="M2634.989,32.152
	c16.827,222.023,107.479,328.667,240.009,369.861c15.49,3.141,12.728,7.57-2.59,12.888
	c-104.907,36.905-195.709,71.754-235.841,99.214c-28.027,16.557-33.056,41.004-18.378,75.535
	c77.328,181.439,166.593,349.712,265.104,509.345c3.91,7.195,0.414,10.499-9.457,10.455l-367.99-8.887
	c-13.458-0.086-17.176-2.422-18.756-17.651c-12.562-69.192-32.088-131.713-62.811-187.712
	c-44.794-81.647-92.44-148.382-187.367-209.882c-50.717-32.858-107.465-59.946-171.767-82.668
	c-43.519-8.033-68.924,2.334-72.02,35.363l0.002,0c0.809,3.751-4.473,6.246-12.342,7.079
	c-103.299,14.249-217.377,28.263-329.016,42.329c-243.765,26.287-428.72,85.061-481.237,147.7c-0.337,0.332-0.882,0.559-1.582,0.698
	l-0.014,0.002c-6.232,0.98-10.851,3.003-12.826,6.735c0,0-116.048,179.418-116.048,179.418c-7.12,12.115-29.652,17.882-59.602,17.8
	c-83.879-2.569-168.181-2.372-253.099,1.845c-69.855-0.933-109.023,21.534-156.078,53.076c-12.463,8.434-24.535,9.894-36.195,4.047
	c-68.044-34.953-113.396-57.186-169.847-80.097c-36.9-14.976-73.678-28.472-110.232-40.756
	c-73.987-24.862-140.683-32.203-209.227-45.307c-34.598-8.424-44.48-24.322-45.474-47.993c-1.443-17.389,1.837-20.42,17.892-20.191
	c95.959,0.933,189.033-2.031,275.52-3.211c143.955-1.963,268.815-4.932,352.123-20.426l41.836-14.134
	c23.278-11.284,44.481-25.097,62.557-42.721c7.437-7.577,10.593-14.736,7.007-21.239l-0.002,0.001
	c-1.306-2.474-1.204-5.079,1.489-8.136l347.342-358.4c6.147-10.117,6.576-18.647,1.287-25.59c-2.616-3.272-1.148-5.926,0.529-7.695
	l33.778-35.648c10.724-11.317,23.342,10.938,33.727,18.31c15.661,11.118,19.617,1.799,22.066-0.805
	c40.884-43.478,82.042-85.598,128.852-125.134c57.349-48.436,116-88.935,173.384-119.854
	C1613.601,39.706,1694.47-7.433,1848.158,0.973c162.188,8.84,320.982,14,478.13,17.374c0.431,0.01,0.843,0.03,1.239,0.059v0.001
	l34.893,4.179l257.586,3.733c10.26-0.058,14.539,2.337,14.95,5.658L2634.989,32.152z"/>
</svg>
