<?xml version="1.0" encoding="utf-8"?>
<!-- Generator: Adobe Illustrator 24.3.0, SVG Export Plug-In . SVG Version: 6.00 Build 0)  -->
<svg version="1.1" id="Layer_1" xmlns="http://www.w3.org/2000/svg" xmlns:xlink="http://www.w3.org/1999/xlink" x="0px" y="0px"
	 width="2885.342px" height="1109.45px" viewBox="0 0 2885.342 1109.45" enable-background="new 0 0 2885.342 1109.45"
	 xml:space="preserve">
<path id="Shape" d="M1107.357,370.541c-2.616-3.272-1.148-5.926,0.529-7.695l33.778-35.648
	c10.724-11.317,23.342,10.938,33.727,18.31c15.661,11.118,19.617,1.799,22.066-0.805c40.884-43.478,82.042-85.598,128.852-125.134
	c57.349-48.436,116-88.935,173.384-119.854C1613.601,39.706,1694.47-7.433,1848.158,0.973c162.188,8.84,320.982,14,478.13,17.374
	c9.38,0.228,10.32,4.873,7.215,11.636l-141.098,329.24c-2.098,4.479-1.979,4.777-9.298,4.795
	c-342.221,0.782-683.978,10.749-1025.083,33.625c-17.541,1.176-16.703,2.013-22.897-2.374
	C1119.97,384.534,1108.373,371.812,1107.357,370.541z M2214.502,360.744l109.444-0.492c6.101-0.254,8.823-3.87,11.703-15.072
	c28.63-105.289,67.537-177.925,114.338-225.473c34.462-41.763,80.466-69.016,154.031-68.623
	c20.405-0.023,48.819-24.949,15.988-24.765l-257.586-3.733c-7.073-0.291-12.082,0.36-14.901,5.312
	c-54.826,100.929-102.267,208.78-141.374,324.438C2204.014,359.683,2207.395,361.011,2214.502,360.744z M778.083,798.914
	l-12.001-13.646c-4.137-4.724-10.023-6.635-15.848-1.363c-18.076,17.624-39.279,31.437-62.557,42.721
	c-6.898,4.045-8,8.689-5.614,13.694c9.488,20.197,9.901,31.61,2.666,34.507c-14.608,5.849-20.517,2.704-23.156-2.155l-15.732-31.912
	c-83.308,15.494-208.168,18.463-352.123,20.426c-86.487,1.18-179.561,4.144-275.52,3.211C2.143,864.169-1.137,867.2,0.307,884.589
	c0.994,23.671,10.876,39.569,45.474,47.993c68.544,13.104,135.24,20.445,209.227,45.307c36.554,12.284,73.332,25.78,110.232,40.756
	c56.451,22.911,101.803,45.144,169.847,80.097c11.66,5.847,23.732,4.387,36.195-4.047c47.055-31.542,86.223-54.009,156.078-53.076
	c84.918-4.217,169.22-4.414,253.099-1.845c29.95,0.082,52.482-5.685,59.602-17.8l116.048-179.418
	c-94.13-12.556-215.394-23.569-352.575-36.778C790.871,804.991,783.308,803.873,778.083,798.914z M2618.188,589.65
	c-14.678-34.531-9.649-58.978,18.378-75.535c40.132-27.46,130.934-62.309,235.841-99.214c15.318-5.318,18.08-9.747,2.59-12.888
	c-206.114-27.674-400.966-50.495-521.325-41.215c-18.393,2.054-25.613,3.896-29.141,6.174
	c-45.946,33.763-101.337,70.972-150.967,99.869c-18.165,9.144-25.678,15.747-37.307,6.21c-2.516-2.064,4.955-9.301,21.204-16.338
	c34.134-16.071,67.602-36.222,100.436-60.25c7.661-5.263,2.843-8.345-7.191-8.471c-388.965,0.442-747.794,15.19-1067.259,34.808
	c-18.115,0.519-30.365-0.779-35.62-4.246l-28.329-23.268c-3.951-3.013-8.731-2.924-13.428,0.846l-347.342,358.4
	c-4.371,4.962-1.918,8.733,2.308,12.685l34.479,32.283c120.874,11.993,258.622,19.06,364.479,35.685
	c4.494,0.911,9.19,1.262,10.536-0.065c52.517-62.639,237.472-121.413,481.237-147.7c111.639-14.066,225.717-28.08,329.016-42.329
	c12.561-1.329,18.529-6.894,3.658-15.042c-65.362-31.11-136.353-56.153-217.105-70.673c-18.7-2.3-11.612-32.034,28.503-27.097
	c49.218,8.694,105.161,23.961,151.975,35.578c115.132,28.569,209.534,65.915,289.097,117.461
	c94.927,61.5,142.573,128.235,187.367,209.882c30.723,55.999,50.249,118.52,62.811,187.712c1.58,15.229,5.298,17.565,18.756,17.651
	l367.99,8.887c9.871,0.044,13.367-3.26,9.457-10.455C2784.781,939.362,2695.516,771.089,2618.188,589.65z"/>
</svg>
