<?xml version="1.0" encoding="utf-8"?>
<!-- Generator: Adobe Illustrator 24.3.0, SVG Export Plug-In . SVG Version: 6.00 Build 0)  -->
<svg version="1.1" id="Layer_1" xmlns="http://www.w3.org/2000/svg" xmlns:xlink="http://www.w3.org/1999/xlink" x="0px" y="0px"
	 width="2885.342px" height="1109.45px" viewBox="0 0 2885.342 1109.45" enable-background="new 0 0 2885.342 1109.45"
	 xml:space="preserve">
<path id="Shape" d="M551.839,29.983c-3.105-6.763-2.165-11.408,7.215-11.636c157.148-3.374,315.942-8.534,478.13-17.374
	c153.688-8.406,234.557,38.733,348.465,98.742c57.384,30.919,116.035,71.418,173.384,119.854
	c46.81,39.536,87.968,81.656,128.852,125.134c2.449,2.604,6.405,11.923,22.066,0.805c10.385-7.372,23.003-29.627,33.727-18.31
	l33.778,35.648c1.677,1.769,3.145,4.423,0.529,7.695c-1.016,1.271-12.613,13.993-27.77,24.728c-6.194,4.387-5.356,3.55-22.897,2.374
	c-341.105-22.876-682.862-32.843-1025.083-33.625c-7.319-0.018-7.2-0.316-9.298-4.795L551.839,29.983z M281.324,51.084
	c73.565-0.393,119.569,26.86,154.031,68.623c46.801,47.548,85.708,120.184,114.338,225.473c2.88,11.202,5.602,14.818,11.703,15.072
	l109.444,0.492c7.107,0.267,10.488-1.061,8.357-8.408C640.09,236.678,592.649,128.827,537.823,27.898
	c-2.819-4.952-7.828-5.603-14.901-5.312l-257.586,3.733C232.505,26.135,260.919,51.061,281.324,51.084z M2124.306,767.217
	c4.226-3.952,6.679-7.723,2.308-12.685l-347.342-358.4c-4.697-3.77-9.477-3.859-13.428-0.846l-28.329,23.268
	c-5.255,3.467-17.505,4.765-35.62,4.246c-319.465-19.618-678.294-34.366-1067.259-34.808c-10.034,0.125-14.852,3.207-7.191,8.47
	c32.834,24.028,66.302,44.179,100.436,60.25c16.249,7.037,23.72,14.274,21.204,16.338c-11.629,9.537-19.142,2.934-37.307-6.21
	c-49.63-28.897-105.021-66.106-150.967-99.869c-3.528-2.278-10.748-4.12-29.141-6.174c-120.359-9.28-315.211,13.541-521.325,41.215
	c-15.49,3.141-12.728,7.57,2.59,12.888c104.907,36.905,195.709,71.754,235.841,99.214c28.027,16.557,33.056,41.004,18.378,75.535
	C189.826,771.089,100.561,939.362,2.05,1098.995c-3.91,7.195-0.414,10.499,9.457,10.455l367.99-8.887
	c13.458-0.086,17.176-2.422,18.756-17.651c12.562-69.192,32.088-131.713,62.811-187.712
	c44.794-81.647,92.44-148.382,187.367-209.882c79.563-51.546,173.965-88.892,289.097-117.461
	c46.814-11.617,102.757-26.884,151.975-35.578c40.115-4.937,47.203,24.797,28.503,27.097
	c-80.752,14.52-151.743,39.563-217.105,70.673c-14.871,8.148-8.903,13.713,3.658,15.042
	c103.299,14.249,217.377,28.263,329.016,42.329c243.765,26.287,428.72,85.061,481.237,147.7c1.346,1.327,6.042,0.976,10.536,0.065
	c105.857-16.625,243.605-23.692,364.479-35.685L2124.306,767.217z M2867.144,864.397c-95.959,0.933-189.033-2.031-275.52-3.211
	c-143.955-1.963-268.815-4.932-352.123-20.426l-15.732,31.912c-2.639,4.859-8.548,8.004-23.156,2.155
	c-7.235-2.897-6.822-14.31,2.666-34.507c2.386-5.005,1.284-9.649-5.614-13.694c-23.278-11.284-44.481-25.097-62.557-42.721
	c-5.825-5.272-11.711-3.361-15.848,1.363l-12.001,13.646c-5.225,4.959-12.788,6.077-25.45,6.863
	c-137.181,13.209-258.445,24.222-352.575,36.778l116.048,179.418c7.12,12.115,29.652,17.882,59.602,17.8
	c83.879-2.569,168.181-2.372,253.099,1.845c69.855-0.933,109.023,21.534,156.078,53.076c12.463,8.434,24.535,9.894,36.195,4.047
	c68.044-34.953,113.396-57.186,169.847-80.097c36.9-14.976,73.678-28.472,110.232-40.756
	c73.987-24.862,140.683-32.203,209.227-45.307c34.598-8.424,44.48-24.322,45.474-47.993
	C2886.479,867.199,2883.199,864.168,2867.144,864.397z"/>
</svg>
