<?xml version="1.0" encoding="utf-8"?>
<!-- Generator: Adobe Illustrator 24.3.0, SVG Export Plug-In . SVG Version: 6.00 Build 0)  -->
<svg version="1.1" id="Layer_1" xmlns="http://www.w3.org/2000/svg" xmlns:xlink="http://www.w3.org/1999/xlink" x="0px" y="0px"
	 width="1529.06px" height="398.583px" viewBox="0 0 1529.06 398.583" enable-background="new 0 0 1529.06 398.583"
	 xml:space="preserve">
<path id="K" fill="none" stroke="#000000" stroke-linejoin="round" stroke-miterlimit="10" d="M1228.957,22.516
	c0.558,1.955-0.026,4.509-1.385,7.468l-141.097,329.239c-0.269,0.575-0.502,1.081-0.718,1.526 M1524.417,40.272
	c-6.072,5.619-17.031,10.799-26.328,10.81c-73.565-0.393-119.569,26.861-154.031,68.623
	c-46.801,47.548-85.708,120.185-114.338,225.473c-1.73,6.729-3.403,10.721-5.786,12.891 M1256.491,22.583
	c-7.075-0.289-12.083,0.361-14.902,5.314c-54.826,100.929-102.267,208.78-141.374,324.438c-2.131,7.347,1.25,8.675,8.357,8.408"/>
</svg>
