<?xml version="1.0" encoding="utf-8"?>
<!-- Generator: Adobe Illustrator 24.3.0, SVG Export Plug-In . SVG Version: 6.00 Build 0)  -->
<svg version="1.1" id="Layer_1" xmlns="http://www.w3.org/2000/svg" xmlns:xlink="http://www.w3.org/1999/xlink" x="0px" y="0px"
	 width="1529.06px" height="398.583px" viewBox="0 0 1529.06 398.583" enable-background="new 0 0 1529.06 398.583"
	 xml:space="preserve">
<path id="T" fill="none" stroke="#000000" stroke-linejoin="round" stroke-miterlimit="10" d="M1228.973,22.583h27.518
	l257.586,3.733c17.873-0.1,17.595,7.241,10.34,13.955l-0.001-0.001l-300.483,317.798c-1.583,1.443-3.48,2.08-5.916,2.182
	l-109.444,0.492h-22.828l0.013,0.006c-1.471,3.025-2.2,3.254-8.58,3.269c-342.221,0.782-683.978,10.749-1025.083,33.625
	c-17.541,1.176-16.703,2.013-22.897-2.374c-15.157-10.735-26.754-23.457-27.77-24.728c-2.616-3.272-1.148-5.926,0.529-7.695
	l33.778-35.648c10.724-11.317,23.342,10.938,33.727,18.31c15.661,11.118,19.617,1.799,22.066-0.805
	c40.884-43.478,82.042-85.598,128.852-125.134c57.349-48.436,115.999-88.935,173.384-119.854
	C507.671,39.707,588.54-7.433,742.228,0.973c162.188,8.84,320.982,14,478.13,17.374c5.276,0.128,7.882,1.654,8.6,4.168
	L1228.973,22.583z"/>
</svg>
