<?xml version="1.0" encoding="utf-8"?>
<!-- Generator: Adobe Illustrator 16.0.0, SVG Export Plug-In . SVG Version: 6.00 Build 0)  -->
<!DOCTYPE svg PUBLIC "-//W3C//DTD SVG 1.1//EN" "http://www.w3.org/Graphics/SVG/1.1/DTD/svg11.dtd">
<svg version="1.1" id="Layer_1" xmlns="http://www.w3.org/2000/svg" xmlns:xlink="http://www.w3.org/1999/xlink" x="0px" y="0px"
	 width="511.791px" height="863.342px" viewBox="0 0 511.791 863.342" enable-background="new 0 0 511.791 863.342"
	 xml:space="preserve">
<path fill="none" stroke="#000000" stroke-linejoin="round" stroke-miterlimit="10" d="M39.945,795.847
	c2.156-0.452,4.375-2.229,3.875-4.659l-0.008,0.01c-4.537-9.262-1.994-20.408-0.438-30.746c1.024-6.802,1.783-13.661,2.679-20.484
	c2.072-11.686,4.852-33.531,8.337-65.54c1.691-15.55,3.005-30.185,3.938-43.913c1.427-20.979,4.153-49.956,8.177-86.931
	c3.72-34.162,6.53-67.017,8.434-98.571c4.845-80.312,7.975-138.607,9.391-174.888c0.275-7.056,1.196-21.297,2.761-42.723
	c1.438-19.675,2.294-30.696,2.572-33.065c0.373-3.015,2.369-13.604,5.99-31.768c0.535-2.685,1.035-5.379,1.587-8.06
	c0.968-4.703,3.658-8.314,6.423-12.129c2.173-2.998,4.585-6.258,7.823-8.182c4.436-2.636,9.931-3.512,14.782-5.123
	c11.858-3.938,23.781-7.689,35.706-11.428c22.848-7.162,39.938-12.746,51.271-16.751c62-21.908,98.604-34.875,109.812-38.902
	c30.957-11.122,57.506-21.223,79.65-30.302c38.488-15.779,61.57-25.404,69.248-28.875c3.787-1.711,6.759-3.13,11.017-2.755
	c4.221,0.371,8.412,1.588,12.541,2.503c3.865,0.856,7.965,1.971,10.768,4.953c1.18,1.26,2.357,3.812,3.525,7.657
	c1.795,5.905,2.373,12.663,1.733,20.277c-0.405,4.844-1.676,12.288-3.812,22.331c-2.479,11.672-3.903,20.526-4.271,26.562
	c-0.67,11.022-4.176,30.964-10.524,59.825c-5.123,23.294-13.847,59.484-26.164,108.57c-8.119,32.345-23.346,80.328-45.687,143.95
	c-11.327,32.265-17.297,49.131-17.901,50.6c-0.041,0.094-0.078,0.185-0.113,0.283l-34.83,90.979
	c-1.752,4.579-6.502,13.911-14.246,27.996c-1.742,3.17-7.557,11.842-17.449,26.014c-1.284,1.812-5.891,6.57-13.821,14.273
	c-7.842,7.619-12.688,12.073-14.541,13.362c-0.133,0.087-0.267,0.178-0.394,0.273l-16.779,12.604
	c-12.157,9.132-30.145,23.104-53.956,41.922c-20.119,15.9-35.271,27.725-45.451,35.484c-7.46,5.684-18.725,14.135-33.793,25.353
	c-22.499,16.75-39.282,29.46-50.349,38.13c-20.848,16.332-34.725,25.355-41.633,27.07c-0.542,0.135-1.092,0.254-1.646,0.355
	c-2.562,0.61-5.138,2.819-4.497,5.631l0.011-0.009c5.195,5.975,8.341,13.776,8.341,22.314c0,18.786-15.229,34.016-34.016,34.016
	S0,848.112,0,829.326c0-18.787,15.229-34.018,34.017-34.018c2.021,0,4.003,0.178,5.929,0.516V795.847z"/>
</svg>
