<?xml version="1.0" encoding="utf-8"?>
<!-- Generator: Adobe Illustrator 21.0.2, SVG Export Plug-In . SVG Version: 6.00 Build 0)  -->
<svg version="1.1" id="Layer_1" xmlns="http://www.w3.org/2000/svg" xmlns:xlink="http://www.w3.org/1999/xlink" x="0px" y="0px"
	 width="2372.275px" height="1125.155px" viewBox="0 0 2372.275 1125.155" enable-background="new 0 0 2372.275 1125.155"
	 xml:space="preserve">
<path fill="none" stroke="#000000" stroke-linejoin="round" stroke-miterlimit="10" d="M1258.616,473.255
	c-7.138-4.026-14.879-4.84-23.259-2.857l-0.05,0.012L710.058,575c-3.298,0.596-10.247,2.334-11.251,6.241
	c-0.857,3.339,2.944,7.414,5.129,9.414l0.06,0.054l0.054,0.057c15.532,15.911,33.041,29.064,53.01,38.896l165.404,78.976
	c9.927,4.562,19.159,10.173,28.233,16.226c2.347,1.567,4.678,3.158,7.004,4.756 M2108.782,457.289l-83.434,303.416
	c-4.57,0.431-8.395,3.995-9.157,8.718c-0.9,5.578,2.766,10.968,8.394,11.876c5.629,0.909,10.804-3.053,11.705-8.633
	c0.434-2.696-0.187-5.431-1.71-7.633l114.724-253.819c7.829,25.208,30.366,43.224,56.411,47.427
	c24.307,3.923,49.569-4.441,65.521-23.478c6.22-7.424,10.652-16.107,12.931-25.524c0.283-1.017,0.739-2.036,1.505-2.782
	c1.875-1.824,5.309-1.522,8.045-0.899 M2040.058,1125.156c4.667,0.001,9.261-0.901,13.374-3.255
	c7.689-4.402,11.823-12.799,14.195-21.006l0.045-0.157l0.063-0.148c7.836-18.758,15.908-37.414,24.213-55.963 M1204.353,430.484
	c2.652,2.483,4.517,6.111,3.187,9.753c-0.996,2.725-3.46,4.415-6.194,5.106c-108.278,22.271-216.464,45.017-324.465,68.595
	c-87.902,19.194-175.712,38.919-263.254,59.697c-67.833,16.1-135.595,32.802-202.922,50.92
	c-26.456,7.122-52.856,14.475-79.136,22.218c-21.564,6.355-43.07,12.971-64.398,20.075c-2.288,0.719-4.702,1.839-6.419,3.554
	c-1.545,1.536-2.522,3.612-2.01,5.816c0.525,2.283,2.432,3.741,4.572,4.417c2.433,0.772,5.24,0.645,7.722,0.208
	c84.919-13.913,169.807-28.219,254.457-43.673c53.763-9.814,107.53-20.064,160.95-31.618c3.731-0.68,8.008-1.142,11.623,0.291
	c5.289,2.093,9.582,8.776,12.502,13.417c2.731,5.529,8.129,10.594,12.829,14.449c7.043,5.774,14.981,10.864,22.793,15.527
	c9.895,5.909,20.108,11.366,30.366,16.616c11.709,5.992,23.556,11.733,35.439,17.372c1.455,0.773,2.452,2.217,2.555,3.876
	c0.114,1.869-0.904,3.382-2.501,4.281c-9.067,4.884-17.149,11.481-21.758,20.879c-6.695,13.648-4.434,29.89-0.689,44.03
	c0.034,0.128,0.117,0.464,0.078,0.596c-0.187,0.264-1.11,0.514-1.424,0.59 M213.533,320.071c1.648-0.671,2.161-0.258,2.833,1.437
	l0.015,0.039c6.548,15.843,13.579,31.501,20.837,47.025c7.762,16.61,15.808,33.089,23.999,49.487
	c-3.213,3.16-4.029,8.201-1.68,12.289c2.791,4.855,8.995,6.531,13.851,3.74c4.856-2.791,6.529-8.993,3.738-13.851
	c-1.436-2.499-3.839-4.231-6.583-4.844l-32.605-104.628c-0.152-0.476-0.859-2.6-0.767-3.062"/>
</svg>
