<?xml version="1.0" encoding="utf-8"?>
<!-- Generator: Adobe Illustrator 16.0.0, SVG Export Plug-In . SVG Version: 6.00 Build 0)  -->
<!DOCTYPE svg PUBLIC "-//W3C//DTD SVG 1.1//EN" "http://www.w3.org/Graphics/SVG/1.1/DTD/svg11.dtd">
<svg version="1.1" id="Layer_1" xmlns="http://www.w3.org/2000/svg" xmlns:xlink="http://www.w3.org/1999/xlink" x="0px" y="0px"
	 width="2021.398px" height="599.156px" viewBox="0 0 2021.398 599.156" enable-background="new 0 0 2021.398 599.156"
	 xml:space="preserve">
<path fill="none" stroke="#000000" stroke-linejoin="round" stroke-miterlimit="10" d="M1973.102,541.909
	c4.913-3.233,10.795-5.114,17.117-5.114c17.221,0,31.182,13.96,31.182,31.181c0,17.223-13.961,31.183-31.182,31.183
	s-31.182-13.96-31.182-31.183c0-2.655,0.332-5.234,0.957-7.696c-0.488-1.552-0.474-3.208-2.548-2.917
	c-1.282,0.18-2.564,0.343-3.853,0.483c-4.146,1.376-8.62,2.017-12.401,2.337c-11.432,0.805-22.979,1.102-34.438,1.312
	c-16.437,0.301-32.891,0.339-49.328,0.275c-45.586-0.163-91.204-1.067-136.771-2.131c-7.321-0.185-15.383-1.842-22.5-3.486
	c-11.896-2.751-23.735-6.298-35.36-10.021l-0.038-0.014l-0.039-0.015c-15.61-4.675-30.837-4.127-44.44,5.571l-0.141,0.104
	l-0.135,0.107c-5.89,4.963-11.015,6.516-16.285,0.082l-0.034-0.041c-21.911-26.054-44.253-51.773-67.271-76.862
	c-20.078-21.887-40.707-43.36-62.173-63.896c-18.008-17.229-36.74-33.976-56.46-49.233c-15.668-12.123-32.438-23.728-50.084-32.795
	c-43.777-27.291-93.377-44.404-143.562-55.429c-56.548-12.423-115.242-17.601-173.033-19.523
	c-159.808-7.421-319.668-12.454-479.642-14.359c-180.184-2.145-360.353-0.356-540.459,5.157l-22.354-3.188l-0.103-0.008
	c-2.378-0.223-4.971-1.361-6.064-3.619c-1.271-2.622,0.204-5.453,1.934-7.461l0.03-0.037l25.565-31.071
	c3.029-2.6,6.879-6.084,10.474-7.667c2.238-0.985,4.635-1.37,7.054-1.589c4.389-0.401,9.001-0.346,13.397-0.329
	c67.922,0.689,135.897,1.204,203.836,0.682c28.31-0.217,56.625-0.62,84.92-1.44c22.735-0.663,45.526-1.562,68.215-3.196
	c32.523-1.605,65.38-3.372,97.729-7.18c24.461-2.88,48.452-7.091,72.125-13.989c20.134-5.87,39.501-13.511,58.565-22.218
	c23.748-10.844,46.979-23.122,69.945-35.521l0.05-0.026l0.048-0.025c30.644-17.571,59.188-39.194,82.096-66.242l0.242-0.289
	l0.188-0.326c13.742-23.681,40.865-28.331,66.188-27.72l0.104,0.002l493.433-12.125l0.057-0.002
	c29.166-1.47,58.199,1.04,86.562,8.061c40.649,10.063,77.654,28.807,111.082,53.874l0.072,0.056l0.075,0.054
	c172.591,118.142,305.688,276.574,407.546,458.227c2.305,5.263,4.948,12.489,5.133,19.195c0.668,1.075,1.085,2.492,2.532,2.702
	C1970.833,542.74,1972.003,542.181,1973.102,541.909z"/>
</svg>
