<?xml version="1.0" encoding="utf-8"?>
<!-- Generator: Adobe Illustrator 16.0.0, SVG Export Plug-In . SVG Version: 6.00 Build 0)  -->
<!DOCTYPE svg PUBLIC "-//W3C//DTD SVG 1.1//EN" "http://www.w3.org/Graphics/SVG/1.1/DTD/svg11.dtd">
<svg version="1.1" id="Layer_1" xmlns="http://www.w3.org/2000/svg" xmlns:xlink="http://www.w3.org/1999/xlink" x="0px" y="0px"
	 width="1880.074px" height="1504.297px" viewBox="0 0 1880.074 1504.297" enable-background="new 0 0 1880.074 1504.297"
	 xml:space="preserve">
<path fill="none" stroke="#000001" stroke-linejoin="round" stroke-miterlimit="10" d="M1506.718,1273.706
	c-11.186,26.742-42.17,39.256-69.207,27.949c-27.037-11.312-39.887-42.156-28.701-68.898c11.188-26.744,42.171-39.258,69.207-27.946
	C1505.054,1216.118,1517.904,1246.961,1506.718,1273.706z"/>
<path fill="none" stroke="#000001" stroke-linejoin="round" stroke-miterlimit="10" d="M1360.318,496.86
	c-1.012,0-1.831,1.481-1.831,3.311l-0.003-0.002c1.549,0.903,3.098,1.807,4.646,2.709l0,0c2.062,1.202,5.049,3.223,8.83,6.302
	l9.218,5.354c0.789-0.834,14.354,6.055,20.445,8.89L1665.246,637c16.523,7.086,46.839,20.702,60.107,28.875
	c5.45,3.361,9.643,8.344,14.678,12.252c10.707,8.307,31.604,28.667,78.574,81.438c12.993,14.6,25.745,29.706,38.428,44.727
	c5.16,6.111,14.826,17.339,15.441,18.384l7.608,10.609l-5.815,10.793c-20.332,11.266-34.714,19.979-43.077,26.012l-11.743,7.32
	c-8.112,4.961-20.529,13.392-37.341,25.106c-15.416,10.771-26.632,20.718-33.688,29.904l-6.896,9.021l-6.678,7.69l-19.748,42.43
	c-5.508,11.836-10.384,23.945-14.861,36.205c-0.867,2.375-2.805,6.875-5.963,13.664c-15.805,33.953-29.635,68.789-45.438,102.744
	l-44.004,96.26c-3.192,6.976-5.823,14.183-8.848,21.224c-7.582,17.67-11.828,28.322-12.854,31.895
	c-1.35,4.778-2.12,8.467-2.266,11.178c-0.395,5.455-0.16,9.214,0.668,11.189c1.555,3.662,9.984,11.314,25.35,22.836l9.146,6.959
	c2.009,1.491,4.468,4.221,7.446,8.229c1.595,2.145-0.352,4.77-1.43,6.482c-0.705,1.121-2.463,2.907-7.08,4.805
	c-1.829,0.752-6.144,2.884-9.187,4.384c-14.158,6.979-29.159,12.034-43.514,18.584c-89.067,40.635-255.76,119.559-270.256,114.854
	c-1.914-0.621-3.906,1.359-5.785,0.486c-1.375-0.644-3.652,2.026-4.35-0.039c-1.031-3.06-5.514-5.711-3.314-9.088l2.779-4.269
	c21.363-32.789,58.824-90.282,59.654-101.049c0.047-0.613,0.16-1.197,0.176-1.744c0.051-1.616-2.254-21.431-3.383-32.147
	l-0.439-4.174c-1.158-8.086-1.795-15.768-1.969-23.074c-0.537-22.701,3.984-45.318,8.443-67.625l2.563-12.859l2.479-12.825
	c1.462-7.418,2.277-11.721,2.565-12.855l4.896-20.754c2.269-9.633,3.289-19.527,5.623-29.148c0.174-0.71,5.118-22.08,14.727-64.062
	c3.209-14.23,8.57-35.48,16.023-63.779c5.203-19.764,9.968-39.649,13.812-59.723c1.556-8.099,4.019-20.959,4.347-24.349
	l1.021-10.561c0.989-10.149,2.521-25.944,0.305-30.518l-7.633-19.437c-3.111-9.868-16.357-27.555-26.77-58.518
	c-7.389-21.976-49.676-39.464-54.441-40.22c-0.146-0.023-0.245-0.44-0.309-1.178c-0.878-1.637-3.539-2.824-6.688-2.824l0,0
	l-17.008,2.416l0,0c-0.015,0.002-48.898-14.516-72.568-20.69c-24.396-6.371-48.422-14.062-72.697-20.859
	c-56.795-15.911-117.485-35.225-174.071-51.832c-36.767-10.788-127.087-37.475-152.146-41.365
	c-6.669-1.031-13.219-2.69-19.646-4.735c-4.116-1.312-14.775-3.189-32-5.571c-12.211-1.688-24.666,0.657-36.86-1.223
	c-2.305-0.355-40.09,3.94-75.172,9.479c-55.53,8.779-87.562,14.23-96.025,16.373c-55.516,14.058-112.767,19.542-168.68,31.719l0,0
	l-10.716,2.334l0,0c-45.438,9.896-98.339,21.415-135.7,32.312c-28.313,8.257-57.39,13.558-85.824,21.354
	c-19.568,5.365-45.307,11.648-68.03,17.193c-8.601,2.1-16.338,4.096-23.189,5.922c-14.09,3.678-21.781,5.764-23.165,6.08
	c-6.706,1.525-20.104,5.537-20.209,4.148c-0.334-4.412-1.395-8.685-3.294-12.688l0,0l-7.451-10.303l-12.207-5.092l0,0
	c-2.726-1.17-5.885-4.064-9.546-8.705c-1.854-2.351,16.335-31.739,25.539-47.031l0,0l32.056-53.269l0,0
	c1.202-1.997,2.224-4.102,3.446-6.082c26.394-42.83,61.893-95.764,106.52-158.856l0,0l6.545-9.175l0,0
	c12.801-17.944,26.354-35.332,40.012-52.628c19.451-24.632,42.91-54.338,59.243-73.181c33.745-38.925,67.996-77.628,107.269-111.094
	c8.92-7.602,16.146-16.951,24.704-24.932c6.768-6.31,12.771-14.308,19.734-13.82c7.859,0.55,15.714,1.115,23.566,1.693l0.001,0
	c1.977,0,3.577-1.766,3.577-3.949l0.374-2.856l0,0c0.127-0.963,0.666-1.835,0.732-2.809c0.032-0.435,1.768-4.604,3.082-7.85
	c0-14.558-8.075-26.337-18.055-26.337l0.002,0.003c-3.658,1.507-7.666,2.338-11.867,2.338c-17.221,0-31.181-13.96-31.181-31.181
	c0-17.221,13.96-31.181,31.181-31.181c12.461,0,23.215,7.31,28.208,17.876l-0.005-0.005c3.275,6.094,7.263,11.98,13.594,15.205
	c7.416,3.777,15.982,2.284,23.785,0.766c17.193-5.784,34.526-11.158,51.668-17.091l0,0l4.562-1.58l0,0
	c13.697-4.739,27.549-9.008,41.188-13.912c21.731-7.816,43.836-14.541,66.104-20.663c32.979-9.066,62.707-19.587,96.652-29.871
	c25.494-7.724,102.879-31.188,155.491-42.19c40.854-8.545,82.598-17.276,123.644-19.213c5.699-0.268,9.664-0.039,11.91,0.546
	c1.258,0.383,34.326,19.536,64.578,42.459c15.652,11.861,61.076,49.683,91.33,74.871c19.051,15.861,30.116,25.083,33.268,27.603
	c36.251,28.649,64.154,51.771,83.73,69.154c6.039,5.44,11.512,10.225,16.344,14.345c18.781,16.262,29.652,25.821,32.629,28.608
	c14.285,13.382,29.334,25.923,43.646,39.276c37.135,34.646,58.369,55.442,63.766,62.467c2.064,2.688,4.566,6.429,3.873,9.222
	c-0.666,2.686-3.539,6.484-6.262,8.981l0,0l-8.586,7.879l0,0c-6.606,6.032-14.261,15.123-22.892,27.208
	c-11.477,16.072-25.852,29.771-38.498,44.904c-7.441,8.912-21.309,25.452-21.854,27.123c-0.349,1.066-11.71,11.006-18.189,12.018
	L1360.318,496.86z"/>
</svg>
