<?xml version="1.0" encoding="utf-8"?>
<!-- Generator: Adobe Illustrator 16.0.0, SVG Export Plug-In . SVG Version: 6.00 Build 0)  -->
<!DOCTYPE svg PUBLIC "-//W3C//DTD SVG 1.1//EN" "http://www.w3.org/Graphics/SVG/1.1/DTD/svg11.dtd">
<svg version="1.1" id="Layer_1" xmlns="http://www.w3.org/2000/svg" xmlns:xlink="http://www.w3.org/1999/xlink" x="0px" y="0px"
	 width="1877.699px" height="1503.555px" viewBox="0 0 1877.699 1503.555" enable-background="new 0 0 1877.699 1503.555"
	 xml:space="preserve">
<path fill="none" stroke="#000000" stroke-linejoin="round" stroke-miterlimit="10" d="M514.566,502.879
	c-2.062,1.202-5.051,3.225-8.829,6.302c14.529,12.782,26.301,24.388,35.146,34.798c4.798,5.638,7.398,8.839,7.8,9.604
	c0.542,1.101,4.828,15.155,6.373,22.708c2.979,14.842,4.974,34.396,5.892,58.623c0.508,13.401,1.354,35.825,0.786,40.223
	c-0.13,0.992-0.284,8.402-0.395,22.045c-0.352,45.86-0.604,71.754-0.792,77.614l0,0l-0.396,11.107l0,0
	c-0.092,2.381,0.353,6.021,1.202,10.819l0,0l17.01,2.416l0,0c0.01,0,48.896-14.516,72.564-20.692
	c24.396-6.371,48.422-14.062,72.698-20.859c56.794-15.911,117.487-35.225,174.074-51.831
	c36.763-10.788,127.089-37.476,152.144-41.365c6.67-1.033,13.221-2.691,19.648-4.737c4.114-1.312,14.773-3.188,32-5.57
	c12.211-1.688,24.666,0.657,36.857-1.223c2.307-0.355,40.091,3.941,75.173,9.479c55.528,8.779,87.562,14.229,96.024,16.373
	c55.517,14.057,112.769,19.542,168.68,31.718l0,0l10.719,2.334l0,0c45.438,9.896,98.34,21.416,135.697,32.312
	c28.312,8.257,57.393,13.559,85.824,21.354c19.568,5.367,45.309,11.648,68.029,17.195c8.602,2.103,16.34,4.096,23.189,5.92
	c14.09,3.683,21.779,5.769,23.166,6.08c6.703,1.527,20.104,5.539,20.207,4.15c0.334-4.414,1.396-8.683,3.295-12.687l0,0
	l7.451-10.305l12.207-5.092l0,0c2.727-1.168,5.887-4.062,9.547-8.703c1.854-2.35-16.336-31.739-25.537-47.031l0,0l-32.061-53.27l0,0
	c-1.199-1.996-2.223-4.1-3.441-6.081c-26.396-42.831-61.896-95.763-106.521-158.856l0,0l-6.547-9.176l0,0
	c-12.801-17.944-26.354-35.331-40.012-52.627c-19.451-24.632-42.91-54.339-59.242-73.181
	c-33.744-38.924-67.996-77.628-107.27-111.094c-8.923-7.602-16.146-16.951-24.705-24.933c-6.77-6.309-12.77-14.308-19.732-13.82
	c-138.775,9.717-276.562,23.954-414.354,32.984c-23.424,1.535-69.455,7.337-73.49,7.767c-0.701,0.075-17.328,5.958-33.499,12.839
	c-4.159,1.771-12.195,5.469-16.661,7.999C781.916,349.632,645.96,426.215,514.566,502.879L514.566,502.879 M1418.5,186.144
	l0.279,2.141l0.188,1.428l0,0c0.254,1.926,0.752,3.811,1.465,5.618c1.271,3.222,3.773,9.145,3.812,9.666
	c0.062,0.974,0.604,1.846,0.729,2.809l0,0l0.375,2.855l0,0c0.188,1.428-1.545,1.655-2.668,1.803
	c-4.057,0.532-7.979,1.185-12.037,1.717l0,0l-16.053,2.21l0,0c-0.262,0.036-59.824,5.117-90.27,7.4
	c-42.307,3.172-85.061,6.324-126.943,10.234c-45.424,4.24-130.654,9.629-131.113,9.679l0,0l-73.744,8.007l0,0
	c-3.104,0.337-7.816,0.849-9.252,1.432l0,0l-9.24,3.173l0,0c-21.855,7.505-42.645,18.602-62.738,29.956
	C771.017,354.23,652.17,421.733,532.771,490.021c-6.523,3.73-10.764,6.931-14.479,6.837c-6.261-0.122-18.72-10.982-19.084-12.1
	c-0.545-1.671-14.413-18.211-21.857-27.122c-12.643-15.133-27.018-28.832-38.496-44.909c-8.633-12.084-16.285-21.172-22.889-27.205
	l0,0l-8.585-7.879l0,0c-2.722-2.498-5.596-6.295-6.262-8.981c-0.693-2.793,1.809-6.533,3.874-9.222
	c5.396-7.026,26.631-27.821,63.766-62.467c14.312-13.353,29.36-25.895,43.646-39.276c2.975-2.787,13.847-12.347,32.627-28.608
	c4.833-4.119,10.305-8.904,16.345-14.344c19.577-17.383,47.479-40.505,83.73-69.154c3.152-2.52,14.217-11.741,33.268-27.603
	c30.253-25.189,75.678-63.011,91.331-74.872c30.251-22.922,63.319-42.076,64.576-42.458c2.247-0.586,6.211-0.815,11.91-0.546
	c41.048,1.936,82.793,10.667,123.645,19.212c52.613,11.004,129.998,34.469,155.492,42.192
	c33.945,10.284,63.674,20.805,96.652,29.871c22.268,6.122,44.37,12.847,66.104,20.663c13.637,4.904,27.49,9.173,41.186,13.912l0,0
	l4.562,1.58l0,0c24.242,8.39,48.867,15.664,72.938,24.56l0,0l1.447,0.536l0,0c0.527,0.148,0.984,0.306,1.441,0.464
	c4.414,1.527,8.717,3.358,13.131,4.886l0,0l1.521,0.526l0,0c0.358,0.534,0.577,1.086,0.593,1.737
	C1425.083,169.295,1417.3,177.014,1418.5,186.144L1418.5,186.144 M605.411,1493.642l-2.805-4.248
	c-21.56-32.661-59.356-89.936-60.249-100.692c-0.054-0.613-0.167-1.195-0.188-1.744c-0.059-1.617,2.129-21.445,3.193-32.168
	l0.415-4.178c1.11-8.095,1.699-15.777,1.832-23.088c0.4-22.701-4.251-45.293-8.844-67.57l-2.646-12.848l-2.55-12.812
	c-1.514-7.408-2.353-11.711-2.646-12.846l-5.016-20.726c-2.328-9.623-3.404-19.508-5.796-29.113
	c-0.181-0.714-5.244-22.051-15.104-63.979c-3.292-14.213-8.78-35.43-16.396-63.684c-5.32-19.732-10.206-39.586-14.17-59.642
	c-1.6-8.088-4.139-20.936-4.484-24.317l-1.086-10.56c-1.044-10.137-2.668-25.922-0.483-30.51l7.521-19.479
	c3.054-9.887,11.798-29.467,26.423-58.678c5.526-11.053,10.662-20.406,15.436-28c1.302-2.063-1.297-3.428-3.146-3.291
	c-5.604,0.418-11.172,1.24-16.783,1.562l-36.439,2.092c-4.518,0.258-13.155,0.213-13.547,0.826
	c-0.212,0.338-4.938,0.229-7.412,0.316l-5.479,0.2c-1.192,0.006-2.956-0.354-5.29-1.084c0.391-0.184,11.401-1.483,32.904-3.844
	c20.08-2.164,34.354-3.974,42.82-5.267c16.934-2.589,50.646-5.02,50.744-8.057c0.438-13.088-0.843-28.154-0.869-39.248
	c-0.062-27.434,0.454-50.825-0.413-77.209c-0.438-13.418-0.445-26.852-1.266-40.256c-0.168-2.754-1.836-5.598-0.559-8.258
	c1.483-3.09-3.461-12.379-6.841-11.103l-10.357,3.859c-3.443,1.312-13.861,4.877-31.322,10.9
	c-20.575,7.016-30.927,10.842-31.354,10.996c-18.668,6.646-35.742,13.014-56.469,19.198c-0.152,0.045-0.291,0.059-0.484,0.148
	l10.262-5.248l10.321-3.604c34.505-12.086,112.021-43.7,112.153-43.925c0.525-0.88,1.021-2.593,1.405-3.933
	c0.578-2.003-4.274-27.101-6.539-40.629c-1.693-10.146-11.23-19.541-19.263-27.449c-9.01-8.873-16.828-16.26-25.573-25.4
	c-0.794-0.83-13.979,5.368-20.19,7.931c-90.186,37.181-201.964,85.537-287.58,124.201c-16.25,7.339-24.252,12.301-37.469,20.553
	c-5.434,3.393-9.593,8.399-14.605,12.338c-10.658,8.371-31.437,28.854-78.092,81.9c-12.909,14.677-25.573,29.855-38.164,44.951
	c-5.124,6.144-14.723,17.429-15.321,18.472L0,836.074l5.881,10.758c20.398,11.146,34.829,19.775,43.231,25.758l11.788,7.25
	c8.136,4.916,20.607,13.277,37.484,24.891c15.48,10.685,26.76,20.562,33.868,29.705l6.951,8.98l6.722,7.652l19.997,42.312
	c5.577,11.801,10.529,23.885,15.077,36.117c0.882,2.371,2.844,6.858,6.043,13.629c16.002,33.859,30.037,68.613,46.039,102.473
	l44.572,96c3.227,6.953,5.902,14.146,8.967,21.166c7.693,17.627,11.999,28.255,13.047,31.82c1.376,4.766,2.164,8.455,2.329,11.164
	c0.427,5.451,0.214,9.215-0.604,11.192c-1.529,3.671-9.914,11.375-25.212,22.984l-9.108,7.012c-1.998,1.502-4.442,4.25-7.398,8.273
	c-1.582,2.156,0.38,4.768,1.468,6.475c0.711,1.117,2.479,2.892,7.108,4.767c1.83,0.737,6.16,2.844,9.212,4.323
	c14.196,6.896,29.231,11.865,43.621,18.326c89.307,40.107,256.46,118.047,270.929,113.26c1.911-0.635,3.914,1.337,5.787,0.449
	c1.372-0.646,3.663,2.01,4.35-0.062C603.162,1499.688,607.631,1497.007,605.411,1493.642z M456.299,1295.74
	c-26.496,12.521-58.017,1.426-70.4-24.783c-12.389-26.209-0.947-57.605,25.549-70.127c26.496-12.523,58.017-1.428,70.399,24.781
	C494.233,1251.82,482.795,1283.218,456.299,1295.74z"/>
</svg>
