<?xml version="1.0" encoding="utf-8"?>
<!-- Generator: Adobe Illustrator 16.0.0, SVG Export Plug-In . SVG Version: 6.00 Build 0)  -->
<!DOCTYPE svg PUBLIC "-//W3C//DTD SVG 1.1//EN" "http://www.w3.org/Graphics/SVG/1.1/DTD/svg11.dtd">
<svg version="1.1" id="Layer_1" xmlns="http://www.w3.org/2000/svg" xmlns:xlink="http://www.w3.org/1999/xlink" x="0px" y="0px"
	 width="2627.318px" height="1259.076px" viewBox="0 0 2627.318 1259.076" enable-background="new 0 0 2627.318 1259.076"
	 xml:space="preserve">
<path fill="none" stroke="#000000" stroke-linejoin="round" stroke-miterlimit="10" d="M878.843,299.106
	c-12.073,22.826-22.521,46.524-35.778,68.71c-1.201,2.011-2.768,5.227-4.61,9.7l-37.542,1.29c-2.595,3.846-6.969,9.18-13.19,16.02
	c-22.69,24.873-34.682,37.991-36.006,39.513c-5.266,6.05-72.688,78.433-109.068,117.616c-30.953,33.339-60.305,64.493-87.913,93.426
	c-28.442,29.809-66.36,68.42-99.753,102.424c-34.717,35.353-68.91,71.213-103.903,106.291
	c-15.234,15.271-22.991,23.092-23.13,23.424c-1.148,2.517-1.438,6.08-0.959,10.638c0.765,7.256,2.212,21.004,1.122,21.844
	c-23.751,18.31-41.416,31.594-52.944,40.066c-17.804,13.086-35.047,26.924-53.014,39.789c-12.958,9.276-23.286,15.146-31.122,17.641
	c-7.818,2.562-28.161,3.455-61.166,2.711l-117.478-3.594l-6.284,1.582c-2.443,0.616-9.135,8.539-4.514,14.504
	c6.978,9.006,13.768,18.155,20.48,27.36c11.344,15.558,32.278,42.654,62.715,81.244c23.763,30.129,45.879,61.519,69.579,91.693
	c5.794,7.377,10.973,12.902,15.433,16.457c4.453,3.549,9.689,5.938,15.205,7.307c10.833,2.688,21.854,4.662,33.014,5.197
	c34.422,1.648,66.993,3.615,97.644,5.918c14.439,1.084,34.711,2.607,43.287-1.475c1.658-0.789,4.272-2.785,7.83-6.058
	c5.355-4.928,9.188-11.174,12.751-17.469c21.323-37.67,36-62.529,43.959-74.557c31.903-48.134,68.006-92.867,108.218-134.256
	c10.336-10.55,31.885-29.937,64.716-58.181c25.944-22.276,66.367-53.102,121.216-92.387
	c76.545-54.848,161.464-103.861,254.688-147.023c36.312-16.811,73.062-32.854,111.331-44.678
	c15.646-4.836,30.956-10.713,46.635-15.451c28.438-8.594,54.836-16.262,86.042-23.159c12.977-2.869,43.803-5.599,65.862-6.521
	l93.135-3.9l141.863,2.529c15.842,0.336,45.178,1.215,47.528,0.83c12.556-2.051,20.982-8.604,25.209-19.665l4.062-10.635
	c18.189-47.608,38.234-94.489,60.268-140.447c15.367-32.055,24.729-51.9,28.228-59.461c5.498-12.157,13.207-28.759,23.056-49.88
	c4.74-10.166,10.28-26.25,3.331-36.589c-6.846-10.184-21.398-11.729-32.422-13.965c-22.488-4.56-44.992-8.839-67.619-12.868
	c-42.735-7.61-159.084-25.971-239.09-35.705c-32.44-3.947-82.822-10.078-97.261-12.35c-19.788-3.113-80.748-9.808-121.177-14.248
	l-119.066-13.075c-21.756-2.389-61.99-7.004-65.272-7.146c-10.442-0.454-20.793-1.993-31.193-2.946
	c-7.775-0.713-17.389-1.654-23.536,4.239c-1.986,1.904-3.545,4.807-5.146,7.045c-2.184,3.055-2.976,7.002-4.062,10.547
	c-1.146,3.738-2.396,7.445-3.555,11.179c-0.262,0.839-0.543,1.672-0.796,2.513C892.655,261.68,883.72,289.886,878.843,299.106
	 M2611.586,364.958l-35.32,3.105c-83.303,7.328-166.633,14.521-250.141,19.094l-21.826,1.193
	c-79.289,3.826-158.666,5.227-238.037,6.23l-66.506-1.064c-81.17-2.184-162.248-6.982-243.107-14.389
	c-12.418-1.137-19.719-1.422-21.906-0.852c-3.905,0.914-7.178,2.496-9.733,4.686c-3.053,2.631-7.506,12.75-9.721,19.297
	c-9.636,28.479-29.441,80.64-48.472,119.111l-5.248,10.613c-1.19,2.307-2.987,5.838-5.442,10.438l-5.656,10.412
	c-6.904,12.707-12.301,25.021-19.943,38.525c-0.403,0.715-9.315,13.756-3.413,22.567c3.768,5.625,10.346,8.494,17.041,8.174
	c3.512-0.168,24.03,0.201,61.639,1.045c44.139,0.99,98.209,1.367,147.316,1.712c13.041,0.09,26.065,0.858,39.104,1.051
	c64.354,0.947,128.822-2.824,193.067,2.01c6.906,0.521,25.939,1.121,57.119,1.656c15.226,0.291,26.596-0.461,34.103-2.187
	c7.59-1.782,21.516-7.342,41.991-16.646c18.33-8.33,36.429-17.262,53.334-28.234c33.267-21.588,69.892-37.254,104.379-56.713
	c38.539-21.746,91.002-51.35,116.177-64.238c0.782-0.399,10.28-5.481,28.424-15.254c28.262-15.133,47.146-25.529,56.58-31.201
	c9.69-5.826,19.385-12.141,29.74-16.738c5.5-2.442,11.479-4.878,15.743-9.385c4.56-5.111,5.607-10.055,3.173-15.043
	C2623.348,368.415,2617.865,364.405,2611.586,364.958 M2303.303,122.534c13.476,5.265,27.211,9.826,40.795,14.799
	c40.707,14.904,80.527,32.098,121.014,47.576c7.134,2.728,26.957,11.433,59.5,26.182c21.129,9.554,28.779,14.567,44.607,30.012
	c19.135,18.567,29.252,28.947,30.391,31.043c3.236,6.053,2.566,11.046-2.143,15.037c-1.596,1.393-5.158,2.223-10.564,2.592
	c-5.182,0.351-29.979-4.25-74.328-13.833c-12.012-2.585-22.625-4.832-31.713-6.639c-42.198-8.388-116.793-19.829-175.34-28.809
	c-2.123-0.326-28.328-4.222-42.49-6.33c-66.317-9.873-123.143-15.716-170.514-17.591c-33.824-1.299-62.41-1.719-85.797-1.323
	c-21.512,0.363-43.035-0.015-64.541,0.742c-28.729,1.012-61.082,1.6-96.891,1.75c-15.756,0.083-26.385,1.278-31.947,3.624
	c-0.346,0.125-18.314,11.041-19.141,11.624c-0.209,0.21-3.191,2.513-8.752,6.958c-34.984,27.733-52.488,41.648-52.611,41.725
	c-5.787,1.976-23.709,0.001-53.801-5.985l-287.158-44.285c-19.887-2.724-34.078-4.509-42.514-5.392
	c-60.918-6.38-121.582-15.16-182.62-20.38c-28.455-2.435-43.362-3.872-44.686-4.252l-126.95-12.83c0,0-11.201-1.149-11.203-1.149
	c-12.439-1.334-24.979-2.588-37.305-4.771c-5.329-0.944-11.875-0.776-16.556-3.804c-6.14-3.971-4.758-12.275-1.489-17.83
	c3.225-5.391,23.341-21.388,26.425-23.246l14.183-8.55c12.56-7.573,25.273-14.947,38.728-20.827
	c31.751-13.879,64.442-25.585,98.095-33.919c29.472-7.299,59.337-12.88,88.861-19.946l14.107-3.376
	c17.986-4.306,40.715-7.916,61.197-11.17c46.955-7.459,75.58-11.854,85.776-13.21c12.851-1.694,45.021-5.368,96.674-11.035
	c77.625-8.463,171.015-13.65,280.179-15.402c58.973-0.916,105.539,0.183,139.735,3.357c36.568,3.343,91.896,13.115,95.703,14.268
	c37.804,11.449,76.127,21.1,113.965,32.43C2156.471,72.61,2237.996,97.021,2303.303,122.534"/>
</svg>
