<?xml version="1.0" encoding="utf-8"?>
<!-- Generator: Adobe Illustrator 16.0.0, SVG Export Plug-In . SVG Version: 6.00 Build 0)  -->
<!DOCTYPE svg PUBLIC "-//W3C//DTD SVG 1.1//EN" "http://www.w3.org/Graphics/SVG/1.1/DTD/svg11.dtd">
<svg version="1.1" id="Layer_1" xmlns="http://www.w3.org/2000/svg" xmlns:xlink="http://www.w3.org/1999/xlink" x="0px" y="0px"
	 width="2627.318px" height="1259.076px" viewBox="0 0 2627.318 1259.076" enable-background="new 0 0 2627.318 1259.076"
	 xml:space="preserve">
<path fill="none" stroke="#000001" stroke-linejoin="round" stroke-miterlimit="10" d="M2613.885,364.958
	c-6.789,0-12.283-38.319-12.283-85.673l0.008,0c0.043-2.191-0.627-4.569-2-7.138c-1.139-2.096-11.256-12.476-30.391-31.043
	c-15.828-15.445-23.479-20.458-44.607-30.012c-32.543-14.749-52.366-23.454-59.5-26.182
	c-40.486-15.478-80.307-32.672-121.014-47.576c-13.584-4.973-27.319-9.534-40.795-14.799
	c-65.307-25.513-146.832-49.924-221.118-72.165c-37.838-11.33-76.162-20.981-113.965-32.43
	c-3.807-1.153-59.135-10.925-95.703-14.268c-34.196-3.174-80.763-4.273-139.735-3.357c-109.164,1.752-202.554,6.939-280.179,15.402
	c-51.652,5.667-83.823,9.341-96.674,11.035c-10.196,1.356-38.821,5.751-85.776,13.21c-20.482,3.254-43.211,6.864-61.197,11.17
	l-14.107,3.376c-29.524,7.066-59.39,12.647-88.861,19.946c-33.652,8.334-66.344,20.04-98.095,33.919
	c-13.454,5.88-26.168,13.254-38.728,20.827l-14.183,8.55c-2.906,1.75-20.935,16.055-25.704,22.211l0.002,0.001
	c0,0-5.198,5.497-5.197,5.496c-4.344-11.992-15.833-20.561-29.325-20.561c-17.221,0-31.181,13.96-31.181,31.181
	s13.96,31.181,31.181,31.181c0.469,0,0.936-0.01,1.399-0.03l0.003,0.03c5.103,0,9.231,6.399,9.231,14.307l-0.01-0.004
	c-1.004,2.383-1.609,4.992-2.351,7.412c-1.146,3.738-2.396,7.445-3.555,11.179c-0.262,0.839-0.543,1.672-0.796,2.513
	c-6.024,19.015-14.96,47.221-19.837,56.441c-12.073,22.826-22.521,46.524-35.778,68.71c-1.201,2.011-2.768,5.227-4.61,9.699
	l-37.542,1.29c-2.595,3.847-6.969,9.181-13.19,16.021c-22.69,24.873-34.682,37.991-36.006,39.513
	c-5.266,6.05-72.688,78.433-109.068,117.616c-30.953,33.339-60.305,64.493-87.913,93.426c-28.442,29.809-66.36,68.42-99.753,102.424
	c-34.717,35.353-68.91,71.213-103.903,106.291c-15.234,15.271-22.991,23.092-23.13,23.424c-1.148,2.517-1.438,6.08-0.959,10.638
	c0.765,7.256,2.212,21.004,1.122,21.844c-23.751,18.31-41.416,31.594-52.944,40.066c-17.804,13.086-35.047,26.924-53.014,39.789
	c-12.958,9.276-23.286,15.146-31.122,17.641c-7.818,2.562-28.161,3.455-61.166,2.711l-117.478-3.594l-6.284,1.582
	c-2.443,0.616-9.135,8.539-4.514,14.504c6.978,9.006,13.768,18.155,20.48,27.36c11.344,15.558,32.278,42.654,62.715,81.244
	c23.763,30.129,45.879,61.519,69.579,91.693c5.794,7.377,10.973,12.902,15.433,16.457c4.453,3.549,9.689,5.938,15.205,7.307
	c10.833,2.688,21.854,4.662,33.014,5.197c34.422,1.648,66.993,3.615,97.644,5.918c14.44,1.084,34.711,2.607,43.287-1.475
	c1.658-0.789,4.273-2.785,7.83-6.058c5.356-4.928,9.188-11.174,12.751-17.469c21.324-37.67,36-62.529,43.959-74.557
	c31.903-48.134,68.006-92.867,108.218-134.256c10.336-10.55,31.885-29.937,64.716-58.181
	c25.944-22.276,66.367-53.102,121.216-92.387c76.545-54.848,161.464-103.861,254.688-147.023
	c36.312-16.811,73.062-32.854,111.331-44.678c15.646-4.836,30.956-10.713,46.635-15.451c28.438-8.594,54.836-16.262,86.042-23.159
	c12.977-2.869,43.803-5.599,65.862-6.521l93.135-3.9l141.863,2.529c15.842,0.336,45.178,1.215,47.528,0.83
	c7.585-1.238,13.662-4.12,18.218-8.646l-0.002-0.002c7.271-5.943,17.212-5.44,26.039-5.405c4.969,0.02,9.943-0.015,14.911,0.056
	c4.231,0.061,8.471,0.019,12.703,0.009c2.024-0.004,4.055,0.022,6.079-0.01c0.044,0,0.089-0.002,0.133-0.003l-0.134-0.001
	c0.494,0.011,0.99,0.005,1.486-0.019c3.512-0.168,24.03,0.201,61.639,1.045c44.139,0.99,98.209,1.367,147.316,1.712
	c13.041,0.09,26.065,0.858,39.104,1.051c64.354,0.947,128.822-2.824,193.067,2.01c6.906,0.521,25.939,1.121,57.119,1.656
	c15.226,0.291,26.596-0.461,34.103-2.187c7.59-1.782,21.516-7.342,41.991-16.646c18.33-8.33,36.429-17.262,53.334-28.234
	c33.267-21.588,69.892-37.254,104.379-56.713c38.539-21.746,91.002-51.35,116.177-64.238c0.782-0.399,10.28-5.481,28.424-15.254
	c28.262-15.133,47.146-25.528,56.58-31.2c9.69-5.826,19.385-12.142,29.74-16.738c5.5-2.442,11.479-4.878,15.743-9.385
	c4.56-5.111,5.607-10.056,3.173-15.043c-2.359-4.83-6.852-8.504-12.145-8.977c-0.756-0.068-1.528-0.07-2.313-0.001H2613.885z"/>
</svg>
