<?xml version="1.0" encoding="utf-8"?>
<!-- Generator: Adobe Illustrator 16.0.0, SVG Export Plug-In . SVG Version: 6.00 Build 0)  -->
<!DOCTYPE svg PUBLIC "-//W3C//DTD SVG 1.1//EN" "http://www.w3.org/Graphics/SVG/1.1/DTD/svg11.dtd">
<svg version="1.1" id="Layer_1" xmlns="http://www.w3.org/2000/svg" xmlns:xlink="http://www.w3.org/1999/xlink" x="0px" y="0px"
	 width="2123.84px" height="1092.258px" viewBox="0 0 2123.84 1092.258" enable-background="new 0 0 2123.84 1092.258"
	 xml:space="preserve">
<path fill="none" stroke="#000000" stroke-linejoin="round" stroke-miterlimit="10" d="M440.076,800.681l-17.721-0.542l-6.281,1.582
	l0,0c-2.443,0.617-9.139,8.539-4.518,14.504c6.979,9.007,13.771,18.156,20.479,27.361c11.344,15.557,32.274,42.654,62.715,81.244
	c23.765,30.129,45.879,61.518,69.579,91.688c5.319,6.775,10.12,11.983,14.321,15.542"/>
<path fill="none" stroke="#000000" stroke-linejoin="round" stroke-miterlimit="10" d="M364.235,805.952
	c0.715,0.086,1.431,0.177,2.146,0.272c6.395,0.855,10.438,1.83,12.13,2.937c3.229,2.092,6.015,4.789,9.195,6.938
	c1.493,1.017,6.396,5.896,9.479,8.957c5.182,5.158,36.975,45.896,55.062,69.156c28.783,37.021,82.47,103.682,85.384,108.459l0,0
	l8.896,11.762l0,0c4.029,6.315,4.316,11.423,0.866,15.352"/>
</svg>
