<?xml version="1.0" encoding="utf-8"?>
<!-- Generator: Adobe Illustrator 16.0.0, SVG Export Plug-In . SVG Version: 6.00 Build 0)  -->
<!DOCTYPE svg PUBLIC "-//W3C//DTD SVG 1.1//EN" "http://www.w3.org/Graphics/SVG/1.1/DTD/svg11.dtd">
<svg version="1.1" id="Layer_1" xmlns="http://www.w3.org/2000/svg" xmlns:xlink="http://www.w3.org/1999/xlink" x="0px" y="0px"
	 width="1037.168px" height="609.396px" viewBox="0 0 1037.168 609.396" enable-background="new 0 0 1037.168 609.396"
	 xml:space="preserve">
<path fill="none" stroke="#000000" stroke-linejoin="round" stroke-miterlimit="10" d="M974.446,465.701
	c-1.574-8.23-6.795-20.023-15.656-35.378c-5.322-9.225-13.945-22.795-25.875-40.723c-6.883-10.348-29.453-38.396-67.717-84.146
	c-17.07-20.411-49.052-55.214-95.938-104.412c-8.33-8.742-15.914-16.198-22.75-22.368l-24.127-21.778
	c-0.043-0.039-0.086-0.08-0.131-0.121l-7.924-7.452c-2.812-2.645-7.482-6.34-14.021-11.085c-4.985-3.623-8.7-6.445-11.145-8.468
	c-25.234-20.902-54.771-42.63-88.604-65.184c-27.787-18.524-44.682-28.975-50.684-31.352c-0.127-0.047-0.25-0.096-0.375-0.147
	l-19.469-8.124c-0.127-0.053-0.252-0.108-0.373-0.167c-25.11-11.912-54.602-19.386-88.469-22.426
	c-31.981-1.225-64.408-4.139-96.328-0.877c-20.01,2.044-43.811,3.842-61.75,13.771c-14.257,7.891-22.958,22.42-28.461,37.313
	c-3.012,8.151-5.46,16.888-6.874,25.472c-1.225,7.44-3.77,19.07-7.631,34.889c-7.144,29.259-15.095,53.863-23.852,73.81
	c-16.555,37.71-47.862,60.432-81.867,81.608c-25.493,15.875-50.803,32.509-77.225,46.819l-18.78,11.435
	c-2.733,1.664-9.543,5.168-20.432,10.517c-4.576,2.271-9.2,4.472-13.732,6.826c-1.991,1.032-3.758,2.067-4.105,4.454
	c-0.424,2.908,0.052,5.955,1.071,8.689c0.759,2.039,2.143,4.26,4.149,6.658c0.965,1.125,3.4,3.178,7.305,6.16
	c3.932,3.004,6.618,4.854,8.06,5.549l20.63,9.967c1.8,0.871,4.648,2.086,8.542,3.654c5.587,2.244,9.778,4.123,12.572,5.637
	l9.946,5.385c12.3,6.656,31.51,15.381,57.628,26.163c20.545,8.481,35.849,15.181,45.912,20.089
	c6.239,3.043,12.742,5.986,19.511,8.838c23.843,10.032,50.438,21.857,79.785,35.478c22.131,10.271,55.633,25.09,100.508,44.461
	c52.486,22.654,91.661,40.133,117.521,52.438c11.663,5.55,24.54,10.57,38.63,15.068c6.775,2.162,13.109,3.687,19.002,4.56
	l19.715,2.192l9.646-0.562c23.02-1.352,43.156-4.119,60.412-8.311c12.145-2.945,43.438-8.552,93.877-16.812
	c9.133-1.498,22.811-4.176,41.045-8.037c18.328-3.883,32.146-6.588,41.455-8.123c28.567-4.701,59.537-11.809,92.908-21.314
	c13.745-3.916,23.362-7.043,28.858-9.375c5.23-2.225,11.062-5.606,17.5-10.153c9.584-6.771,16.01-17.615,18.387-29.018
	c1.345-6.449,1.688-12.869,1.318-19.441C975.817,474.024,975.241,469.854,974.446,465.701z"/>
</svg>
