<?xml version="1.0" encoding="utf-8"?>
<!-- Generator: Adobe Illustrator 16.0.0, SVG Export Plug-In . SVG Version: 6.00 Build 0)  -->
<!DOCTYPE svg PUBLIC "-//W3C//DTD SVG 1.1//EN" "http://www.w3.org/Graphics/SVG/1.1/DTD/svg11.dtd">
<svg version="1.1" id="Layer_1" xmlns="http://www.w3.org/2000/svg" xmlns:xlink="http://www.w3.org/1999/xlink" x="0px" y="0px"
	 width="1037.168px" height="609.396px" viewBox="0 0 1037.168 609.396" enable-background="new 0 0 1037.168 609.396"
	 xml:space="preserve">
<path fill="none" stroke="#000000" stroke-linejoin="round" stroke-miterlimit="10" d="M974.475,498.501
	c0.363,0.421,0.77,0.799,1.359,0.784c0.561-0.016,1.059-0.294,1.566-0.493l-0.073,0.029c6.238-7.271,15.494-11.875,25.825-11.875
	c18.786,0,34.016,15.229,34.016,34.016s-15.229,34.016-34.016,34.016s-34.017-15.229-34.017-34.016c0-0.353,0.005-0.704,0.016-1.054
	l-0.016,0.002c-0.531-0.936-1.06-2.412-2.438-2.153c-0.375,0.07-0.692,0.293-1,0.506c-0.331,0.229-0.667,0.45-1.008,0.663
	l-0.018-0.014c-2.422,2.95-5.209,5.589-8.332,7.795c-6.438,4.547-12.271,7.929-17.5,10.153c-5.496,2.332-15.113,5.459-28.858,9.375
	c-33.371,9.506-64.341,16.612-92.908,21.313c-9.31,1.535-23.127,4.24-41.455,8.123c-18.233,3.861-31.911,6.539-41.045,8.037
	c-50.438,8.26-81.731,13.866-93.877,16.812c-17.256,4.19-37.393,6.959-60.412,8.311l-9.646,0.562l-19.715-2.191
	c-5.894-0.873-12.228-2.397-19.002-4.561c-14.091-4.498-26.968-9.519-38.631-15.067c-25.859-12.307-65.034-29.784-117.521-52.438
	c-44.875-19.371-78.378-34.188-100.509-44.461c-29.347-13.62-55.942-25.444-79.785-35.478c-6.769-2.853-13.271-5.795-19.511-8.838
	c-10.063-4.908-25.367-11.607-45.912-20.091c-26.118-10.781-45.328-19.506-57.628-26.162l-9.946-5.385
	c-2.794-1.514-6.984-3.393-12.571-5.637c-3.895-1.568-6.742-2.783-8.542-3.654l-20.631-9.967c-1.441-0.695-4.128-2.545-8.06-5.549
	c-3.905-2.982-6.34-5.035-7.305-6.16c-2.007-2.398-3.391-4.619-4.149-6.658c-1.019-2.734-1.495-5.781-1.071-8.688
	c0.348-2.386,2.114-3.423,4.105-4.454c4.532-2.355,9.156-4.555,13.731-6.826c10.89-5.35,17.699-8.854,20.433-10.518l18.78-11.435
	c26.422-14.31,51.731-30.944,77.225-46.819c34.005-21.176,65.312-43.898,81.867-81.608c8.757-19.947,16.708-44.551,23.852-73.81
	c3.861-15.819,6.406-27.449,7.631-34.889c1.414-8.584,3.862-17.321,6.874-25.472c5.503-14.893,14.204-29.422,28.461-37.313
	c17.94-9.929,41.741-11.727,61.75-13.771c31.92-3.262,64.347-0.348,96.329,0.877c33.867,3.04,63.358,10.514,88.469,22.426
	c0.121,0.059,0.246,0.114,0.373,0.167l19.47,8.124c0.125,0.051,0.247,0.1,0.375,0.147c6.002,2.377,22.896,12.828,50.684,31.352
	c33.833,22.554,63.37,44.282,88.604,65.184c2.444,2.023,6.159,4.845,11.146,8.468c6.538,4.745,11.208,8.44,14.021,11.085
	l7.925,7.452c0.045,0.041,0.088,0.082,0.131,0.121l24.127,21.778c6.836,6.17,14.42,13.626,22.75,22.368
	c46.887,49.198,78.868,84.001,95.938,104.412c38.265,45.75,60.834,73.798,67.718,84.146c11.93,17.928,20.553,31.498,25.875,40.724
	c8.86,15.354,14.081,27.146,15.655,35.378c0.795,4.15,1.371,8.323,1.602,12.547c0.37,6.572,0.025,12.992-1.317,19.442
	c-0.062,0.294-0.126,0.588-0.193,0.882L974.475,498.501z"/>
</svg>
