<?xml version="1.0" encoding="utf-8"?>
<!-- Generator: Adobe Illustrator 16.0.0, SVG Export Plug-In . SVG Version: 6.00 Build 0)  -->
<!DOCTYPE svg PUBLIC "-//W3C//DTD SVG 1.1//EN" "http://www.w3.org/Graphics/SVG/1.1/DTD/svg11.dtd">
<svg version="1.1" id="Layer_1" xmlns="http://www.w3.org/2000/svg" xmlns:xlink="http://www.w3.org/1999/xlink" x="0px" y="0px"
	 width="3038.32px" height="1297.271px" viewBox="0 0 3038.32 1297.271" enable-background="new 0 0 3038.32 1297.271"
	 xml:space="preserve">
<path fill="none" stroke="#000000" stroke-linejoin="round" stroke-miterlimit="10" d="M1289.844,299.106
	c-12.074,22.826-22.521,46.524-35.779,68.71c-1.2,2.011-2.767,5.227-4.609,9.7l-37.542,1.29c-2.595,3.846-6.969,9.18-13.19,16.02
	c-22.69,24.873-34.682,37.991-36.006,39.513c-5.266,6.05-72.688,78.433-109.068,117.616c-30.953,33.339-60.305,64.493-87.913,93.426
	c-28.442,29.809-66.36,68.42-99.753,102.424c-34.717,35.353-68.91,71.213-103.903,106.291
	c-15.234,15.271-22.991,23.092-23.13,23.424c-1.148,2.517-1.438,6.08-0.959,10.638c0.765,7.256,2.212,21.004,1.122,21.844
	c-23.751,18.31-41.416,31.594-52.944,40.066c-17.804,13.086-35.047,26.924-53.014,39.789c-12.958,9.276-23.286,15.146-31.122,17.641
	c-7.818,2.562-28.161,3.455-61.166,2.711c-3.463-0.106-6.928-0.202-10.392-0.313c-8.406-0.271-16.813-0.528-25.221-0.784
	c-10.564-0.321-21.131-0.641-31.697-0.946c-9.698-0.281-19.401-0.559-29.098-0.929c-5.549-0.212-11.098-0.658-16.655-0.527
	c-3.588,0.084-7.495-0.195-10.788,1.508c-3.025,1.563-5.416,4.833-5.909,8.229c-0.278,1.911,0.275,4.695,1.483,6.256
	c6.979,9.006,13.769,18.156,20.48,27.361c11.344,15.557,32.277,42.653,62.715,81.243c23.763,30.13,45.879,61.519,69.579,91.693
	c5.794,7.377,10.973,12.902,15.433,16.457c4.453,3.549,9.689,5.938,15.205,7.307c10.833,2.688,21.854,4.662,33.014,5.197
	c34.423,1.648,66.993,3.615,97.645,5.918c14.439,1.084,34.711,2.607,43.287-1.475c1.658-0.789,4.272-2.785,7.83-6.058
	c5.355-4.928,9.188-11.174,12.751-17.469c21.323-37.67,36-62.529,43.959-74.557c31.903-48.133,68.006-92.867,108.218-134.256
	c10.336-10.55,31.885-29.937,64.716-58.181c25.944-22.276,66.367-53.102,121.216-92.387
	c76.545-54.848,161.465-103.861,254.688-147.023c36.312-16.811,73.062-32.854,111.331-44.678
	c15.646-4.836,30.957-10.713,46.634-15.451c28.439-8.594,54.836-16.262,86.041-23.159c12.979-2.869,43.803-5.599,65.863-6.521
	l93.135-3.9l141.863,2.529c15.842,0.336,45.178,1.215,47.529,0.83c12.555-2.051,20.982-8.604,25.209-19.665l4.062-10.635
	c18.188-47.608,38.234-94.489,60.268-140.447c15.367-32.055,24.729-51.9,28.227-59.461c5.498-12.157,13.207-28.76,23.057-49.882
	c2.707-5.822,5.1-11.734,6.465-18.024c2.072-9.548-2.795-21.507-11.543-26.205c-2.896-1.555-6.219-2.491-9.408-3.22
	c-4.854-1.107-9.729-2.115-14.605-3.104c-22.488-4.56-44.992-8.839-67.619-12.868c-42.734-7.61-159.084-25.971-239.09-35.705
	c-32.439-3.947-82.822-10.078-97.262-12.35c-19.787-3.113-80.748-9.808-121.176-14.248l-119.067-13.075
	c-10.625-1.167-21.245-2.364-31.867-3.555c-10.875-1.22-21.747-2.523-32.649-3.466c-7.267-0.628-14.543-1.126-21.799-1.875
	c-7.015-0.724-14.104-1.859-21.157-0.965c-3.696,0.468-7.329,1.626-10.519,3.569c-9.537,5.809-11.5,18.906-14.608,28.703
	c-0.32,1.007-0.642,2.014-0.96,3.021C1303.655,261.68,1294.721,289.886,1289.844,299.106 M3022.585,364.958l-35.32,3.105
	c-83.303,7.328-166.633,14.521-250.141,19.094l-21.826,1.193c-79.289,3.826-158.666,5.227-238.037,6.23l-66.506-1.064
	c-81.17-2.184-162.248-6.982-243.107-14.389c-12.418-1.137-19.719-1.422-21.906-0.852c-3.904,0.914-7.178,2.496-9.732,4.686
	c-3.053,2.631-7.506,12.75-9.721,19.297c-9.637,28.479-29.441,80.64-48.473,119.111l-5.248,10.613
	c-1.189,2.307-2.986,5.838-5.441,10.438l-5.656,10.412c-6.904,12.707-12.301,25.021-19.943,38.525
	c-0.404,0.715-9.316,13.756-3.414,22.567c3.768,5.625,10.346,8.494,17.041,8.174c3.512-0.168,24.031,0.201,61.639,1.045
	c44.139,0.99,98.209,1.367,147.316,1.712c13.041,0.09,26.066,0.858,39.105,1.051c64.354,0.947,128.82-2.824,193.066,2.01
	c6.906,0.521,25.939,1.121,57.119,1.656c15.227,0.291,26.596-0.461,34.104-2.187c7.59-1.782,21.516-7.342,41.99-16.646
	c18.33-8.33,36.43-17.262,53.334-28.234c33.268-21.588,69.893-37.254,104.379-56.713c38.539-21.746,91.002-51.35,116.178-64.238
	c0.781-0.399,10.279-5.481,28.424-15.254c28.262-15.133,47.145-25.529,56.58-31.201c10.525-6.329,20.93-12.543,32.094-17.691
	c6.031-2.781,12.479-5.959,15.945-11.919c2.141-3.682,2.518-7.662,0.617-11.555C3034.347,368.415,3028.867,364.405,3022.585,364.958
	 M2714.302,122.534c13.477,5.265,27.211,9.826,40.795,14.799c40.707,14.904,80.527,32.098,121.014,47.576
	c7.135,2.728,26.957,11.433,59.5,26.182c21.129,9.554,28.779,14.567,44.607,30.012c19.135,18.567,29.252,28.947,30.391,31.043
	c3.236,6.053,2.566,11.046-2.143,15.037c-1.596,1.393-5.158,2.223-10.564,2.592c-5.182,0.351-29.979-4.25-74.328-13.833
	c-12.012-2.585-22.625-4.832-31.713-6.639c-42.197-8.388-116.793-19.829-175.34-28.809c-2.123-0.326-28.328-4.222-42.49-6.33
	c-66.316-9.873-123.143-15.716-170.514-17.591c-33.824-1.299-62.41-1.719-85.797-1.323c-21.512,0.363-43.035-0.015-64.541,0.742
	c-28.73,1.012-61.082,1.6-96.891,1.75c-15.756,0.083-26.385,1.278-31.947,3.624c-0.346,0.125-18.314,11.041-19.141,11.624
	c-0.209,0.21-3.191,2.513-8.752,6.958c-9.486,7.52-18.904,15.138-28.463,22.564c-5.797,4.504-12.029,8.896-17.451,13.84
	c-2.74,2.502-6.604,5.604-10.4,6.167c-2.428,0.36-5.027-0.286-7.465-0.396c-8.033-0.363-15.855-1.724-23.795-2.967
	c-6.312-0.99-12.57-2.224-18.838-3.471l-287.158-44.285c-19.887-2.724-34.078-4.509-42.514-5.392
	c-60.918-6.38-121.582-15.16-182.619-20.38c-28.455-2.435-43.363-3.872-44.686-4.252l-126.952-12.83l-11.201-1.149
	c-11.61-1.245-23.482-2.186-34.958-4.393c-7.202-1.385-16.447-0.541-21.8-6.56c-1.345-1.511-2.106-4.021-2.093-6.033
	c0.022-3.278,1.883-6.67,3.5-9.419c3.225-5.391,23.342-21.388,26.426-23.246l14.182-8.55c12.561-7.573,25.274-14.947,38.729-20.827
	c31.751-13.879,64.441-25.585,98.094-33.919c29.47-7.299,59.335-12.88,88.861-19.946l14.107-3.376
	c17.986-4.306,40.715-7.916,61.197-11.17c46.955-7.459,75.58-11.854,85.777-13.21c12.85-1.694,45.021-5.368,96.674-11.035
	c77.625-8.463,171.014-13.65,280.178-15.402c58.973-0.916,105.539,0.183,139.736,3.357c36.568,3.343,91.896,13.115,95.703,14.268
	c37.803,11.449,76.127,21.1,113.965,32.43C2567.47,72.61,2648.998,97.021,2714.302,122.534 M328.542,1209.283l-46.42-30.522l0,0
	c-2.309-1.518-31.662-18.773-47.523-28.106c-13.902-8.181-27.187-17.438-41.601-24.721l0,0l-47.017-23.757l0,0
	c-11.516-5.818-22.858-11.975-34.363-17.814l0,0l-36.521-18.541l0,0c-8.657-4.396-16.973-9.431-25.59-13.9l0,0l-38.245-19.843l0,0
	c-3.722-1.932-5.923-5.694-8.902-8.522c-5.782-5.487,0.115-12.895,6.365-14.771c1.283-0.385,12.099-0.972,12.545-0.727
	c2.321,1.282,34.786,2.412,52.205,3.138c7.084,0.295,10.914,0.479,11.634,0.48c14.528,0.044,63.417,1.649,95.119,2.689l0,0
	l13.995,0.46l0,0c21.737,0.714,43.479-0.365,65.22-0.482c35.654-0.19,71.395-6.851,106.941-2.099
	c6.392,0.854,10.435,1.831,12.129,2.931c3.228,2.093,6.013,4.789,9.195,6.939c1.494,1.008,6.396,5.89,9.479,8.957
	c5.18,5.157,36.973,45.893,55.061,69.155c28.783,37.021,82.469,103.682,85.383,108.458l0,0l8.896,11.762l0,0
	c6.448,10.1,3.317,17.118-9.381,21.155l0,0l-10.234,3.28l0,0c-22.326,7.233-43.807,20.158-64.412,38.977l0,0l-8.072,7.349l0,0
	c-1.731,1.578-4.733,3.645-8.815,6.064l0,0l-10.771-0.552l-75.979-65.459l0,0C349.387,1223.101,338.977,1216.145,328.542,1209.283
	L328.542,1209.283"/>
</svg>
