<?xml version="1.0" encoding="utf-8"?>
<!-- Generator: Adobe Illustrator 16.0.0, SVG Export Plug-In . SVG Version: 6.00 Build 0)  -->
<!DOCTYPE svg PUBLIC "-//W3C//DTD SVG 1.1//EN" "http://www.w3.org/Graphics/SVG/1.1/DTD/svg11.dtd">
<svg version="1.1" id="Layer_1" xmlns="http://www.w3.org/2000/svg" xmlns:xlink="http://www.w3.org/1999/xlink" x="0px" y="0px"
	 width="3038.273px" height="1297.271px" viewBox="0 0 3038.273 1297.271" enable-background="new 0 0 3038.273 1297.271"
	 xml:space="preserve">
<path d="M1289.844,299.106c-12.074,22.826-22.522,46.524-35.779,68.71c-1.201,2.011-2.767,5.227-4.61,9.7l-37.542,1.29
	c-2.595,3.846-6.969,9.18-13.188,16.02c-22.691,24.873-34.683,37.991-36.006,39.513c-5.269,6.05-72.689,78.433-109.069,117.616
	c-30.953,33.339-60.304,64.493-87.913,93.426c-28.439,29.811-66.357,68.42-99.753,102.424
	c-34.716,35.354-68.91,71.213-103.903,106.291c-15.231,15.271-22.988,23.092-23.13,23.424c-1.146,2.519-1.438,6.08-0.959,10.64
	c0.768,7.256,2.212,21.004,1.122,21.844c-23.751,18.312-41.416,31.594-52.941,40.066c-17.807,13.086-35.048,26.924-53.017,39.789
	c-12.958,9.274-23.286,15.146-31.122,17.641c-7.815,2.562-28.159,3.455-61.166,2.711c-3.463-0.106-6.928-0.202-10.391-0.312
	c-8.407-0.271-16.814-0.528-25.221-0.784c-10.565-0.321-21.133-0.643-31.697-0.946c-9.699-0.281-19.402-0.559-29.098-0.929
	c-5.552-0.212-11.101-0.658-16.655-0.527c-3.588,0.084-7.496-0.195-10.789,1.508c-3.025,1.563-5.416,4.833-5.909,8.229
	c-0.278,1.911,0.276,4.693,1.484,6.256c6.978,9.006,13.768,18.156,20.479,27.361c11.345,15.557,32.278,42.651,62.715,81.241
	c23.766,30.131,45.88,61.521,69.579,91.693c5.794,7.377,10.976,12.901,15.436,16.457c4.453,3.549,9.688,5.938,15.205,7.307
	c10.833,2.688,21.854,4.662,33.014,5.197c34.422,1.647,66.993,3.615,97.644,5.918c14.44,1.084,34.712,2.607,43.287-1.475
	c1.658-0.789,4.273-2.785,7.83-6.06c5.356-4.928,9.188-11.174,12.751-17.469c21.324-37.67,36-62.529,43.959-74.557
	c31.904-48.134,68.006-92.867,108.219-134.256c10.338-10.552,31.887-29.938,64.718-58.183
	c25.941-22.274,66.364-53.102,121.216-92.387c76.545-54.849,161.464-103.861,254.688-147.023
	c36.312-16.811,73.062-32.854,111.331-44.678c15.647-4.836,30.956-10.713,46.636-15.451c28.438-8.594,54.836-16.262,86.041-23.158
	c12.979-2.868,43.805-5.6,65.862-6.521l93.136-3.9l141.862,2.529c15.843,0.336,45.179,1.215,47.529,0.83
	c12.556-2.051,20.982-8.604,25.209-19.665l4.062-10.635c18.188-47.608,38.233-94.489,60.27-140.447
	c15.367-32.055,24.729-51.9,28.229-59.461c5.498-12.157,13.207-28.76,23.058-49.882c2.707-5.822,5.099-11.734,6.464-18.024
	c2.072-9.548-2.795-21.507-11.543-26.205c-2.896-1.555-6.219-2.491-9.408-3.22c-4.853-1.107-9.728-2.115-14.604-3.104
	c-22.488-4.56-44.992-8.839-67.619-12.868c-42.735-7.61-159.084-25.971-239.09-35.705c-32.441-3.947-82.822-10.078-97.263-12.35
	c-19.786-3.113-80.748-9.808-121.178-14.248l-119.064-13.075c-10.625-1.167-21.245-2.364-31.867-3.555
	c-10.875-1.22-21.747-2.523-32.649-3.466c-7.267-0.628-14.543-1.126-21.8-1.875c-7.014-0.724-14.104-1.859-21.156-0.965
	c-3.694,0.468-7.327,1.626-10.519,3.569c-9.538,5.809-11.501,18.906-14.608,28.703c-0.318,1.007-0.642,2.014-0.96,3.021
	C1303.654,261.68,1294.72,289.886,1289.844,299.106 M3022.585,364.958l-35.319,3.105c-83.304,7.328-166.634,14.521-250.144,19.094
	l-21.824,1.193c-79.289,3.826-158.666,5.227-238.037,6.23l-66.508-1.064c-81.17-2.184-162.248-6.982-243.104-14.389
	c-12.418-1.137-19.72-1.422-21.906-0.852c-3.906,0.914-7.178,2.496-9.733,4.686c-3.054,2.631-7.507,12.75-9.722,19.297
	c-9.635,28.479-29.438,80.642-48.471,119.111l-5.248,10.613c-1.19,2.307-2.988,5.838-5.443,10.438l-5.655,10.412
	c-6.902,12.707-12.302,25.021-19.941,38.525c-0.404,0.715-9.316,13.756-3.414,22.565c3.768,5.625,10.346,8.494,17.041,8.174
	c3.512-0.168,24.031,0.201,61.639,1.045c44.142,0.99,98.209,1.367,147.316,1.714c13.041,0.09,26.063,0.856,39.104,1.051
	c64.354,0.947,128.822-2.824,193.068,2.01c6.906,0.521,25.939,1.121,57.119,1.656c15.225,0.291,26.596-0.461,34.102-2.188
	c7.59-1.78,21.519-7.342,41.992-16.646c18.33-8.33,36.428-17.264,53.334-28.234c33.266-21.588,69.891-37.254,104.379-56.713
	c38.539-21.746,91.002-51.35,116.176-64.238c0.783-0.397,10.281-5.479,28.424-15.254c28.265-15.133,47.146-25.529,56.58-31.201
	c10.526-6.329,20.934-12.543,32.097-17.691c6.028-2.781,12.478-5.959,15.942-11.919c2.145-3.682,2.521-7.662,0.617-11.555
	C3034.347,368.415,3028.864,364.405,3022.585,364.958 M2714.302,122.534c13.475,5.265,27.211,9.826,40.795,14.799
	c40.707,14.904,80.526,32.098,121.014,47.576c7.133,2.728,26.957,11.433,59.5,26.182c21.129,9.554,28.779,14.567,44.606,30.012
	c19.136,18.567,29.252,28.947,30.392,31.043c3.236,6.053,2.565,11.046-2.144,15.037c-1.598,1.393-5.157,2.223-10.563,2.592
	c-5.182,0.351-29.979-4.25-74.328-13.833c-12.012-2.585-22.625-4.832-31.713-6.639c-42.199-8.388-116.793-19.829-175.34-28.809
	c-2.123-0.326-28.328-4.222-42.49-6.33c-66.318-9.873-123.144-15.716-170.514-17.591c-33.824-1.299-62.41-1.719-85.798-1.323
	c-21.514,0.363-43.034-0.015-64.541,0.742c-28.729,1.012-61.082,1.6-96.893,1.75c-15.756,0.083-26.385,1.278-31.947,3.624
	c-0.346,0.125-18.312,11.041-19.141,11.624c-0.209,0.21-3.191,2.513-8.752,6.958c-9.486,7.52-18.903,15.138-28.462,22.562
	c-5.798,4.504-12.029,8.896-17.451,13.84c-2.742,2.502-6.604,5.604-10.402,6.167c-2.426,0.36-5.025-0.286-7.464-0.396
	c-8.033-0.363-15.855-1.724-23.794-2.967c-6.313-0.99-12.572-2.224-18.839-3.471L1802.876,231.4
	c-19.887-2.724-34.077-4.509-42.514-5.392c-60.918-6.38-121.582-15.16-182.619-20.38c-28.455-2.435-43.363-3.872-44.688-4.252
	l-126.951-12.83l-11.201-1.149c-11.608-1.245-23.48-2.186-34.957-4.393c-7.201-1.385-16.446-0.541-21.801-6.56
	c-1.344-1.511-2.104-4.021-2.092-6.033c0.021-3.278,1.882-6.67,3.5-9.419c3.224-5.391,23.341-21.388,26.425-23.246l14.184-8.55
	c12.561-7.573,25.272-14.947,38.729-20.827c31.751-13.879,64.441-25.585,98.094-33.919c29.473-7.299,59.338-12.88,88.862-19.946
	l14.106-3.376c17.984-4.306,40.715-7.916,61.195-11.17c46.955-7.459,75.58-11.854,85.776-13.21
	c12.851-1.694,45.021-5.368,96.674-11.035c77.625-8.463,171.016-13.65,280.18-15.402c58.974-0.916,105.539,0.184,139.734,3.357
	c36.568,3.343,91.896,13.114,95.703,14.268c37.804,11.449,76.127,21.101,113.966,32.43
	C2567.47,72.61,2648.995,97.021,2714.302,122.534 M328.539,1209.283l-46.418-30.522l0,0c-2.311-1.518-31.662-18.771-47.522-28.104
	c-13.902-8.183-27.188-17.438-41.602-24.723l0,0l-47.019-23.757l0,0c-11.517-5.816-22.856-11.975-34.361-17.812l0,0l-36.521-18.541
	l0,0c-8.657-4.396-16.974-9.433-25.591-13.9l0,0l-38.244-19.843l0,0c-3.723-1.932-5.924-5.694-8.902-8.522
	c-5.78-5.485,0.115-12.895,6.365-14.771c1.282-0.385,12.101-0.972,12.545-0.728c2.32,1.281,34.786,2.411,52.205,3.139
	c7.084,0.295,10.914,0.479,11.634,0.479c14.528,0.044,63.417,1.649,95.119,2.689l0,0l13.995,0.46l0,0
	c21.736,0.714,43.479-0.365,65.22-0.482c35.654-0.188,71.396-6.851,106.941-2.099c6.391,0.854,10.434,1.831,12.129,2.931
	c3.227,2.095,6.012,4.789,9.193,6.939c1.493,1.008,6.396,5.89,9.479,8.957c5.18,5.157,36.973,45.893,55.062,69.155
	c28.782,37.021,82.471,103.682,85.385,108.458l0,0l8.895,11.762l0,0c6.449,10.1,3.318,17.118-9.381,21.155l0,0l-10.234,3.279l0,0
	c-22.323,7.232-43.807,20.157-64.409,38.978l0,0l-8.072,7.349l0,0c-1.732,1.578-4.734,3.646-8.816,6.064l0,0l-10.77-0.552
	l-75.98-65.459l0,0C349.386,1223.101,338.976,1216.145,328.539,1209.283L328.539,1209.283"/>
</svg>
