<?xml version="1.0" encoding="utf-8"?>
<!-- Generator: Adobe Illustrator 16.0.0, SVG Export Plug-In . SVG Version: 6.00 Build 0)  -->
<!DOCTYPE svg PUBLIC "-//W3C//DTD SVG 1.1//EN" "http://www.w3.org/Graphics/SVG/1.1/DTD/svg11.dtd">
<svg version="1.1" id="Layer_1" xmlns="http://www.w3.org/2000/svg" xmlns:xlink="http://www.w3.org/1999/xlink" x="0px" y="0px"
	 width="3297.871px" height="1610.186px" viewBox="0 0 3297.871 1610.186" enable-background="new 0 0 3297.871 1610.186"
	 xml:space="preserve">
<path fill="none" stroke="#000000" stroke-linejoin="round" stroke-miterlimit="10" d="M3055.561,460.7
	c-15.734,1.397-33.069,13.991-33.069,13.991s-50.039,43.057-103.821,65.664c-55.439,23.397-107.855,18-129.814,26.353
	c-5.041,1.584-53.062,25.2-71.929,34.487c-2.377,1.149-3.097,6.12-1.009,8.713c4.248,5.184,30.455,1.438,47.95,39.96
	c20.735,51.336-34.991,58.606-34.991,58.606s-37.584,6.694-49.104-31.896c-8.354-28.08,3.674-50.256,10.871-60.265
	c2.664-3.743-7.271-5.615-7.271-5.615s-34.991,12.456-74.305,28.438c-14.542,5.913-20,13.885-21.105,21.583"/>
<path fill="none" stroke="#000000" stroke-linejoin="round" stroke-miterlimit="10" d="M3090.979,314.414
	c1.738-0.26,3.292-0.719,4.532-1.441c6.556-3.814,0.647-18.504,0.647-18.504l0,0l-4.457-27.366"/>
<path fill="none" stroke="#000000" stroke-linejoin="round" stroke-miterlimit="10" d="M1314.305,678.174
	c13.788-0.942,24.049,1.638,24.049,1.638l0,0l258.696,73.297l0,0c0,0,20.857,1.479,26.54,12.9"/>
<path fill="none" stroke="#000000" stroke-linejoin="round" stroke-miterlimit="10" d="M1359.275,553.045
	c0.786,4.923,3.77,10.124,3.77,10.124s6.84,20.019,11.02,41.256c3.96,20.02,5.184,41.4,5.184,41.4s-0.646,14.11,3.528,22.176
	c4.316,8.354,13.536,10.656,13.536,10.656s88.92,19.728,146.229,34.92c27.504,7.344,47.376,16.56,47.376,16.56
	s17.062,8.568,32.544,6.556c3.204-0.423,6.922-1.713,10.759-3.457"/>
<path fill="none" stroke="#000000" stroke-linejoin="round" stroke-miterlimit="10" d="M3031.187,394.158
	c-3.535-13.698-29.852-27.041-29.852-27.041s-105.336-42.84-169.848-66.456c-110.521-40.392-259.06-93.888-409.752-100.224
	c-282.89-11.88-567.218,121.752-567.218,121.752s-29.446,18.144-63.646,21.814c-23.904,2.521-57.96-27.792-57.96-27.792"/>
<path fill="none" stroke="#000000" stroke-linejoin="round" stroke-miterlimit="10" d="M3030.52,402.253
	c-5.558,14.279-31.057,28.799-31.057,28.799l0,0l-80.854,63.648l0,0c0,0-27.145,18.936-49.536,23.472
	c-19.511,3.96-46.656,1.44-46.656,1.44l0,0c0,0-137.015-11.952-276.704-5.041c-10.754,0.533-21.523,1.179-32.243,1.917"/>
<path fill="none" stroke="#000001" stroke-linejoin="round" stroke-miterlimit="10" d="M1828.74,262.717
	c0,0,35.496-12.312,96.336-31.104c83.67-25.848,214.854-60.48,365.622-59.904c91.224,0.36,186.552,13.824,278.208,27.576
	c265.176,39.816,498.021,112.176,498.021,112.176s6.14,1.818,13.009,2.726"/>
</svg>
