<?xml version="1.0" encoding="utf-8"?>
<!-- Generator: Adobe Illustrator 16.0.0, SVG Export Plug-In . SVG Version: 6.00 Build 0)  -->
<!DOCTYPE svg PUBLIC "-//W3C//DTD SVG 1.1//EN" "http://www.w3.org/Graphics/SVG/1.1/DTD/svg11.dtd">
<svg version="1.1" id="Layer_1" xmlns="http://www.w3.org/2000/svg" xmlns:xlink="http://www.w3.org/1999/xlink" x="0px" y="0px"
	 width="3297.871px" height="1610.184px" viewBox="0 0 3297.871 1610.184" enable-background="new 0 0 3297.871 1610.184"
	 xml:space="preserve">
<path fill="none" stroke="#000000" stroke-linejoin="round" stroke-miterlimit="10" d="M2.556,922.38l82.224-81.646
	c0,0,14.688-19.227,31.68-23.764c18.432-4.896,39.312,4.752,39.312,4.752l89.712,40.537c0,0,15.984,14.475,29.592,12.603
	c11.592-3.099,23.76-18,23.76-18s22.248-23.187,25.632-24.696c6.048-9-2.16-22.896-2.16-22.896l-34.774-79.198
	c0,0-10.224-16.851-5.184-29.376c5.328-13.395,27-21.387,27-21.387s64.944-25.848,118.944-47.88
	c48.6-19.8,70.848-38.158,70.848-38.158s-140.04,38.881-146.229,40.753c-6.192,1.872-56.88,25.632-73.656,22.104
	c-25.776-5.544-35.568-32.616-35.568-32.616s-21.024-49.317-32.112-77.901c-11.16-28.584-6.264-38.089-6.264-38.089
	s6.408-15.554,17.712-38.735c14.688-21.456,52.344,5.903,52.344,5.903s50.04,43.057,103.824,65.664
	c55.438,23.398,107.854,18,129.813,26.353c5.04,1.584,53.064,25.2,71.928,34.488c2.376,1.149,3.099,6.118,1.011,8.712
	c-4.248,5.184-30.456,1.438-47.952,39.96c-20.736,51.336,34.991,58.605,34.991,58.605s37.584,6.696,49.104-31.896
	c8.352-28.08-3.672-50.256-10.872-60.265c-2.664-3.743,7.272-5.615,7.272-5.615s34.989,12.456,74.304,28.438
	c39.312,15.984,12.24,47.019,12.24,47.019s-62.856,60.623-95.187,130.316c-2.771,5.979-5.01,12.302-7.398,18.44
	c-2.318,5.951-4.549,11.938-6.604,17.984c-1.926,5.671-3.695,11.396-5.253,17.18c-1.437,5.338-2.688,10.725-3.747,16.148
	c-0.967,4.967-1.77,9.964-2.437,14.979c-4.775,35.958-6.678,72.662-2.896,108.81c0.315,3.009,0.64,6.016,0.969,9.021
	c0.351,3.168,0.704,6.336,1.063,9.503c0.375,3.305,0.756,6.607,1.141,9.912c0.397,3.417,0.801,6.833,1.205,10.249
	c0.417,3.509,0.836,7.017,1.262,10.522c0.433,3.579,0.866,7.159,1.308,10.738c0.445,3.635,0.896,7.271,1.35,10.902
	c0.458,3.672,0.921,7.343,1.39,11.013c0.471,3.691,0.941,7.383,1.422,11.074c0.479,3.694,0.961,7.392,1.445,11.087
	c0.486,3.686,0.979,7.37,1.473,11.055c0.489,3.66,0.982,7.321,1.48,10.981c0.493,3.624,0.99,7.248,1.489,10.871
	c0.493,3.575,0.989,7.151,1.487,10.729c0.49,3.521,0.98,7.04,1.478,10.562c0.485,3.453,0.975,6.905,1.46,10.358
	c0.479,3.374,0.956,6.749,1.438,10.124c0.466,3.28,0.934,6.562,1.398,9.844c0.452,3.166,0.904,6.332,1.358,9.498
	c0.433,3.023,0.867,6.052,1.302,9.073c0.41,2.854,0.821,5.707,1.233,8.562c0.382,2.646,0.764,5.293,1.146,7.938
	c0.351,2.405,0.697,4.812,1.047,7.215c0.312,2.135,0.622,4.267,0.937,6.396c0.269,1.838,0.538,3.676,0.808,5.514
	c0.229,1.534,0.452,3.069,0.679,4.604c0.187,1.24,0.368,2.479,0.555,3.723c0.145,0.977,0.291,1.948,0.437,2.923
	c0.113,0.757,0.229,1.513,0.341,2.268c0.093,0.601,0.184,1.196,0.272,1.799c0.076,0.5,0.152,0.999,0.229,1.499
	c0,0,7.704,17.424-22.896,41.04c-9.072,5.256-83.16,51.981-153.072,118.94c-84.022,72.724-133.416,165.816-133.416,165.816
	s-10.368,18.432-18.792,14.184c-10.8-5.472-7.848-42.479-7.848-42.479s21.815-157.178-2.952-301.752
	c-20.304-151.058-55.08-285.336-55.08-285.336s-14.976-49.032-44.64-63.792c-32.112-15.841-79.128,2.445-79.128,2.445
	l-82.008,18.071c0,0-9.216,0-11.448-3.312C-1.764,929.58,2.556,922.38,2.556,922.38 M1007.172,171.708
	c-91.224,0.36-186.552,13.824-278.208,27.576C463.788,239.101,230.94,311.46,230.94,311.46s-20.664,6.12-28.584,1.512
	c-6.552-3.815-0.648-18.504-0.648-18.504l0,0l15.84-97.272l0,0c0,0-0.072-9.576,5.904-14.472c5.76-4.752,23.184-6.696,23.184-6.696
	s180.864-7.632,326.808-40.392c192.6-43.2,315.861-94.32,315.861-94.32s108.576-30.24,159.555-37.584
	c37.728-5.472,77.614-3.312,77.614-3.312l0,0l81.791,10.08l0,0c0,0,18.938,2.736,25.272,9.936
	c9.144,10.44,10.584,23.544,10.584,23.544s5.832,42.192,22.824,76.896c13.534,27.72,60.768,53.136,60.768,53.136l0,0l141.408,88.704
	l0,0c0,0-35.496-12.312-96.336-31.104C1289.124,205.764,1157.939,171.132,1007.172,171.708L1007.172,171.708 M1700.82,753.108
	l258.693-73.299l0,0c0,0,27.215-6.84,52.562,5.832c23.396,11.736,56.449,31.752,56.449,31.752s15.768,8.931,41.324,15.555
	c30.604,7.92,75.168,13.968,123.119,15.84c99.576,3.888,212.041-16.776,212.041-16.776s44.496-10.512,91.799-12.813
	c44.932-2.16,92.736,3.813,92.736,3.813s60.982,5.328,144.146,12.168c80.062,6.555,181.584,16.488,268.485,20.376
	c104.904,4.752,188.496,2.811,188.496,2.811s55.439,1.584,65.879,21.312c8.568,16.272-27.573,51.266-27.573,51.266
	s-61.347,50.185-148.319,112.177c-200.02,142.561-525.24,377.854-525.24,377.854s-25.56,17.643-43.199,21.168
	c-14.832,2.952-51.623-11.951-51.623-11.951l0,0l-105.189-44.138l0,0c0,0-15.771-4.104-17.138-11.159
	c-1.368-7.485,11.733-18,11.733-18s24.338-13.535,20.736-42.479c-3.673-29.88-41.543-64.44-41.543-64.44
	s-11.377-11.088-15.336-22.248c-4.824-13.463-2.306-27.286-2.306-27.286s9.937-50.978-8.425-77.761
	c-13.605-19.873-56.95-17.713-56.95-17.713s-23.474-3.455-57.312,0.938c-21.672,2.809-47.447,11.305-74.592,18
	c-130.896,32.11-310.32,89.713-310.32,89.713s-33.479,13.68-49.248,2.733c-12.816-8.854-20.088-39.889-20.088-39.889
	s-14.615-57.602-34.199-118.08c-23.545-72.938-56.521-148.824-56.521-148.824s-14.904-26.639-10.439-41.471
	C1677.492,754.764,1700.82,753.108,1700.82,753.108L1700.82,753.108 M475.452,519.612c0,0-27.146,2.52-46.656-1.44
	c-22.392-4.536-49.536-23.472-49.536-23.472l0,0l-80.855-63.648l0,0c0,0-31.608-18-32.112-33.624
	c-0.432-14.76,30.24-30.312,30.24-30.312s105.336-42.84,169.848-66.456c110.521-40.392,259.056-93.888,409.752-100.224
	c282.888-11.88,567.216,121.751,567.216,121.751s29.448,18.145,63.648,21.816c23.904,2.521,57.96-27.792,57.96-27.792
	s61.704,33.264,133.27,78.696c49.896,31.68,103.973,72.071,148.105,99.504c46.727,28.944,80.352,44.568,80.352,44.568
	s10.729,5.109,11.88,9.861c1.3,5.544-3.741,14.328-3.741,14.328s-6.843,20.019-11.02,41.256c-3.959,20.019-5.184,41.4-5.184,41.4
	s0.646,14.112-3.527,22.176c-4.316,8.354-13.536,10.656-13.536,10.656s-88.921,19.728-146.229,34.92
	c-27.504,7.344-47.375,16.56-47.375,16.56s-17.064,8.568-32.545,6.555c-14.188-1.872-38.448-20.736-38.448-20.736
	s-51.624-30.096-139.608-62.496c-46.224-17.062-101.229-28.08-155.157-43.416c-150.12-42.696-308.595-62.712-308.595-62.712
	s-142.056-25.848-281.445-32.76C612.468,507.66,475.452,519.612,475.452,519.612L475.452,519.612"/>
</svg>
