<?xml version="1.0" encoding="utf-8"?>
<!-- Generator: Adobe Illustrator 16.0.0, SVG Export Plug-In . SVG Version: 6.00 Build 0)  -->
<!DOCTYPE svg PUBLIC "-//W3C//DTD SVG 1.1//EN" "http://www.w3.org/Graphics/SVG/1.1/DTD/svg11.dtd">
<svg version="1.1" id="Layer_1" xmlns="http://www.w3.org/2000/svg" xmlns:xlink="http://www.w3.org/1999/xlink" x="0px" y="0px"
	 width="3297.869px" height="1610.183px" viewBox="0 0 3297.869 1610.183" enable-background="new 0 0 3297.869 1610.183"
	 xml:space="preserve">
<path d="M2.556,922.38l82.224-81.645c0,0,14.688-19.227,31.682-23.764c18.433-4.895,39.312,4.752,39.312,4.752l89.712,40.537
	c0,0,15.984,14.475,29.594,12.604c11.592-3.1,23.761-18,23.761-18s22.248-23.188,25.632-24.697c6.048-9-2.16-22.896-2.16-22.896
	l-34.774-79.199c0,0-10.226-16.851-5.186-29.376c5.328-13.395,27-21.387,27-21.387s64.944-25.848,118.944-47.88
	c48.6-19.8,70.848-38.158,70.848-38.158s-140.04,38.881-146.232,40.753c-6.189,1.872-56.88,25.632-73.654,22.104
	c-25.775-5.544-35.567-32.616-35.567-32.616s-21.022-49.317-32.111-77.901c-11.159-28.584-6.265-38.089-6.265-38.089
	s6.408-15.554,17.712-38.735c14.688-21.456,52.345,5.903,52.345,5.903s50.039,43.057,103.823,65.664
	c55.439,23.398,107.855,18,129.815,26.353c5.04,1.584,53.062,25.2,71.928,34.488c2.376,1.149,3.096,6.118,1.008,8.712
	c-4.248,5.184-30.456,1.438-47.952,39.96c-20.734,51.336,34.992,58.605,34.992,58.605s37.584,6.696,49.104-31.896
	c8.353-28.08-3.673-50.256-10.871-60.266c-2.664-3.742,7.271-5.614,7.271-5.614s34.992,12.456,74.305,28.438
	c39.312,15.984,12.239,47.019,12.239,47.019s-62.854,60.623-95.184,130.318c-2.774,5.979-5.012,12.301-7.401,18.439
	c-2.316,5.951-4.547,11.938-6.601,17.982c-1.928,5.674-3.696,11.396-5.253,17.182c-1.438,5.338-2.69,10.725-3.747,16.148
	c-0.969,4.967-1.771,9.965-2.438,14.979c-4.772,35.959-6.675,72.662-2.894,108.811c0.312,3.008,0.639,6.014,0.969,9.021
	c0.349,3.168,0.704,6.336,1.062,9.502c0.375,3.305,0.757,6.605,1.142,9.912c0.396,3.418,0.8,6.834,1.205,10.25
	c0.417,3.508,0.836,7.016,1.26,10.521c0.434,3.578,0.868,7.158,1.309,10.738c0.444,3.635,0.896,7.27,1.351,10.902
	c0.458,3.672,0.921,7.342,1.388,11.012c0.472,3.691,0.943,7.383,1.422,11.074c0.479,3.695,0.961,7.393,1.447,11.088
	c0.486,3.686,0.978,7.369,1.471,11.055c0.49,3.66,0.984,7.32,1.482,10.98c0.493,3.625,0.989,7.248,1.489,10.871
	c0.491,3.576,0.987,7.152,1.484,10.729c0.491,3.521,0.983,7.041,1.479,10.561c0.482,3.455,0.972,6.906,1.46,10.359
	c0.477,3.375,0.956,6.75,1.435,10.125c0.468,3.279,0.937,6.562,1.401,9.842c0.452,3.166,0.903,6.332,1.357,9.498
	c0.434,3.025,0.865,6.055,1.303,9.074c0.409,2.855,0.82,5.707,1.23,8.562c0.384,2.645,0.767,5.293,1.148,7.938
	c0.348,2.404,0.696,4.812,1.047,7.215c0.312,2.133,0.622,4.268,0.936,6.396c0.27,1.838,0.536,3.676,0.809,5.514
	c0.226,1.533,0.452,3.068,0.679,4.605c0.186,1.238,0.368,2.479,0.553,3.723c0.146,0.977,0.291,1.949,0.438,2.924
	c0.112,0.756,0.227,1.512,0.341,2.266c0.09,0.602,0.183,1.197,0.271,1.799c0.076,0.5,0.15,1,0.229,1.5
	c0,0,7.704,17.424-22.896,41.039c-9.071,5.256-83.159,51.982-153.071,118.941c-84.024,72.723-133.416,165.816-133.416,165.816
	s-10.368,18.432-18.792,14.184c-10.8-5.471-7.849-42.479-7.849-42.479s21.814-157.18-2.951-301.754
	c-20.306-151.057-55.08-285.336-55.08-285.336s-14.978-49.029-44.642-63.791c-32.11-15.842-79.128,2.445-79.128,2.445
	l-82.009,18.072c0,0-9.216,0-11.447-3.312C-1.764,929.582,2.556,922.38,2.556,922.38 M1007.174,171.708
	c-91.227,0.36-186.555,13.824-278.208,27.576C463.787,239.102,230.94,311.46,230.94,311.46s-20.664,6.12-28.584,1.512
	c-6.552-3.816-0.646-18.504-0.646-18.504l0,0l15.84-97.271l0,0c0,0-0.071-9.576,5.904-14.472c5.76-4.752,23.185-6.696,23.185-6.696
	s180.864-7.632,326.808-40.393C766.049,92.437,889.31,41.317,889.31,41.317s108.576-30.24,159.552-37.584
	c37.729-5.473,77.616-3.312,77.616-3.312l0,0l81.792,10.08l0,0c0,0,18.938,2.736,25.271,9.937
	c9.146,10.439,10.584,23.544,10.584,23.544s5.832,42.191,22.823,76.896c13.536,27.721,60.771,53.136,60.771,53.136l0,0
	l141.406,88.704l0,0c0,0-35.495-12.312-96.336-31.104C1289.124,205.765,1157.94,171.132,1007.174,171.708L1007.174,171.708
	 M1700.82,753.109l258.697-73.299l0,0c0,0,27.215-6.84,52.559,5.832c23.4,11.736,56.449,31.752,56.449,31.752
	s15.771,8.931,41.328,15.555c30.6,7.92,75.168,13.968,123.118,15.84c99.576,3.888,212.041-16.776,212.041-16.776
	s44.496-10.512,91.8-12.813c44.928-2.16,92.735,3.813,92.735,3.813s60.982,5.328,144.146,12.168
	c80.062,6.555,181.584,16.488,268.488,20.376c104.901,4.752,188.496,2.811,188.496,2.811s55.438,1.584,65.879,21.312
	c8.567,16.272-27.576,51.266-27.576,51.266s-61.344,50.186-148.317,112.178c-200.019,142.561-525.24,377.854-525.24,377.854
	s-25.562,17.643-43.199,21.168c-14.832,2.953-51.623-11.951-51.623-11.951l0,0l-105.191-44.137l0,0c0,0-15.77-4.104-17.137-11.16
	c-1.367-7.486,11.734-18,11.734-18s24.338-13.535,20.736-42.479c-3.675-29.881-41.543-64.441-41.543-64.441
	s-11.377-11.088-15.336-22.248c-4.824-13.463-2.308-27.287-2.308-27.287s9.938-50.977-8.424-77.76
	c-13.604-19.873-56.951-17.713-56.951-17.713s-23.473-3.455-57.312,0.938c-21.672,2.809-47.447,11.305-74.592,18
	c-130.896,32.111-310.32,89.713-310.32,89.713s-33.479,13.68-49.248,2.734c-12.816-8.854-20.088-39.889-20.088-39.889
	s-14.615-57.602-34.199-118.08c-23.545-72.938-56.521-148.824-56.521-148.824s-14.901-26.639-10.438-41.471
	C1677.491,754.764,1700.82,753.109,1700.82,753.109L1700.82,753.109 M475.451,519.613c0,0-27.144,2.52-46.653-1.44
	c-22.395-4.536-49.536-23.472-49.536-23.472l0,0l-80.856-63.648l0,0c0,0-31.606-18-32.11-33.624
	c-0.434-14.76,30.239-30.312,30.239-30.312s105.335-42.84,169.85-66.456c110.521-40.392,259.056-93.888,409.752-100.224
	c282.888-11.88,567.216,121.751,567.216,121.751s29.448,18.144,63.647,21.816c23.902,2.52,57.959-27.792,57.959-27.792
	s61.703,33.264,133.271,78.696c49.896,31.68,103.969,72.072,148.104,99.504c46.729,28.944,80.354,44.568,80.354,44.568
	s10.729,5.109,11.879,9.861c1.297,5.544-3.742,14.328-3.742,14.328s-6.842,20.019-11.018,41.256
	c-3.959,20.019-5.187,41.4-5.187,41.4s0.648,14.112-3.524,22.176c-4.32,8.354-13.537,10.656-13.537,10.656
	s-88.92,19.728-146.229,34.92c-27.505,7.344-47.377,16.56-47.377,16.56s-17.062,8.568-32.543,6.555
	c-14.187-1.872-38.447-20.736-38.447-20.736s-51.624-30.096-139.608-62.496c-46.224-17.062-101.231-28.08-155.16-43.416
	c-150.12-42.696-308.592-62.712-308.592-62.712s-142.057-25.848-281.448-32.76C612.469,507.661,475.451,519.613,475.451,519.613
	L475.451,519.613"/>
</svg>
