<?xml version="1.0" encoding="utf-8"?>
<!-- Generator: Adobe Illustrator 16.0.0, SVG Export Plug-In . SVG Version: 6.00 Build 0)  -->
<!DOCTYPE svg PUBLIC "-//W3C//DTD SVG 1.1//EN" "http://www.w3.org/Graphics/SVG/1.1/DTD/svg11.dtd">
<svg version="1.1" id="Layer_1" xmlns="http://www.w3.org/2000/svg" xmlns:xlink="http://www.w3.org/1999/xlink" x="0px" y="0px"
	 width="2183.197px" height="807.604px" viewBox="0 0 2183.197 807.604" enable-background="new 0 0 2183.197 807.604"
	 xml:space="preserve">
<path fill="none" stroke="#000000" stroke-linejoin="round" stroke-miterlimit="10" d="M2122.96,770.618
	c-2.765-1.792-4.486,0.676-6.443,2.375c-2.221,2.369-5.356,4.318-9.535,5.521c-2.812,0.812-5.951,0.837-8.867,1.25
	c-30.847,4.377-64.993,7.195-97.533,10.113c-58.284,5.277-116.701,9.262-175.139,12.34c-39.284,2.068-78.589,3.72-117.896,4.99
	c-21.123,0.801-43.676,0.703-64.49-3.344c-16.198-3.156-31.502-8.83-44.412-19.349c-5.443-4.438-10.232-9.547-14.411-15.188
	c-25.984-33.709-51.107-68.084-76.237-102.438c-25.09-34.295-50.175-68.619-76.118-102.272
	c-24.291-31.511-49.421-62.621-76.316-91.957c-39.775-36.015-87.066-66.477-141.109-74.242
	c-38.403-5.52-73.866,1.155-110.022,13.938C949.554,483.8,797.976,562.019,644.747,636.857c-4.412,2.815-9.894,5.723-15.257,4.272
	c-6.493-1.756-9.343-8.803-10.986-14.666c-8.624-26.166-16.045-52.772-24.274-79.078c-9.105-29.104-19.07-58.051-31.556-85.897
	c-35.631-79.479-88.203-140.753-178.956-154.042c-43.841-3.474-85.877,0.312-128.723,9.896
	c-37.183,8.319-73.432,20.475-109.396,32.935c-40.253,13.947-80.214,28.129-121.146,40.044c-5.941,2.182-16.334,6.076-21.662,0.994
	c-4.318-4.118-2.722-11.06-1.148-16.039l0.133-0.419l0.206-0.389c6.684-12.598,14.732-24.032,25.599-33.41l0.618-0.533l0.76-0.301
	c157.446-62.176,313.24-128.453,471.705-188.068C643.71,98.341,789.276,49.7,938.341,15.359
	c70.79-17.481,150.262-24.914,218.997,4.479c69.684,27.994,136.887,63.073,201.234,101.698
	c71.202,42.739,139.682,90.328,205.69,140.682c70.586,53.845,138.646,111.12,204.494,170.656
	c68.076,61.549,133.901,125.637,197.651,191.654c22.763,23.561,45.259,47.381,67.498,71.438
	c17.234,17.929,36.386,32.998,59.048,43.48c3.197,1.475,6.424,2.844,9.674,4.106c2.756,1.072,5.445,1.777,8.121,2.832
	c2.104,0.829,3.943,2.127,5.451,3.74v0.002c1.305,0.698,2.805,2.393,4.354,1.261c1.097-0.8,1.623-2.377,2.405-3.448
	c4.535-11.613,15.834-19.842,29.055-19.842c17.221,0,31.181,13.961,31.181,31.183c0,17.221-13.96,31.181-31.181,31.181
	c-13.222,0-24.521-8.229-29.056-19.845L2122.96,770.618z"/>
</svg>
