<?xml version="1.0" encoding="utf-8"?>
<!-- Generator: Adobe Illustrator 16.0.0, SVG Export Plug-In . SVG Version: 6.00 Build 0)  -->
<!DOCTYPE svg PUBLIC "-//W3C//DTD SVG 1.1//EN" "http://www.w3.org/Graphics/SVG/1.1/DTD/svg11.dtd">
<svg version="1.1" id="Layer_1" xmlns="http://www.w3.org/2000/svg" xmlns:xlink="http://www.w3.org/1999/xlink" x="0px" y="0px"
	 width="494.693px" height="1142.693px" viewBox="0 0 494.693 1142.693" enable-background="new 0 0 494.693 1142.693"
	 xml:space="preserve">
<path d="M494.661,1100.306l-0.006-0.204l-0.006-0.14c-2.26-51.955-6.541-103.801-11.395-155.57
	c-5.33-56.877-11.457-113.674-17.56-170.473c-6.08-56.604-12.188-113.213-17.498-169.896
	c-4.785-51.062-9.021-102.198-11.248-153.443c-1.338-30.806-2.047-61.726-0.778-92.546c1.03-25.108,4.112-71.77,17.647-93.354
	c11.549-14.704,19.291-33.816,7.246-50.826c-7.971-11.255-19.479-14.647-32.139-17.989l-0.248-0.065l-0.254-0.061
	c-94.617-22.535-128.381-63.222-135.138-159.99l-0.01-0.143l-0.008-0.086c-1.201-14.985-6.918-31.968-23.806-35.08
	c-5.42-0.998-10.702-0.313-15.61,2.216c-8.336,4.295-13.936,13.041-17.62,21.403l-0.188,0.429l-0.169,0.436
	c-29.625,76.147-47.977,155.825-62.334,236.09c-4.693,22.975,5.711,38.413,18.772,55.971l0.272,0.367l0.29,0.356
	c12.073,14.849,24.791,29.247,36.053,44.733c5.646,7.763,11.942,17.248,13.771,26.805c2.804,14.68-5.586,33.014-12.239,45.984
	c-10.084,10.597-24.437,20.393-39.632,15.224c-14.06-4.782-23.699-19.669-27.323-33.471c-0.067-0.312-0.146-0.619-0.228-0.933
	c-0.108-0.409-0.226-0.814-0.344-1.224c-0.292-0.997-0.596-1.99-0.896-2.981c-1.081-3.539-2.184-7.069-3.285-10.604
	c-3.92-12.563-7.877-25.116-11.834-37.668c-12.027-38.147-24.108-76.278-36.198-114.406c-17.291-54.56-34.495-109.15-52.008-163.646
	l-0.102-0.312L58.503,84.9c-5.199-14.623-14.286-30.79-32.486-28.466C8.334,58.69,2.838,76.43,0.416,91.472l-0.417,2.588
	l27.786,325.502c1.319,35.515,3.841,74.901,22.674,106.032l0.2,0.329l395.139,602.847c6,9.591,15.662,15.864,27.282,13.377
	c10.058-2.149,16.363-10.015,19.15-19.53c1.309-4.48,1.945-9.199,2.256-13.85C494.677,1105.955,494.739,1103.128,494.661,1100.306z"
	/>
</svg>
