<?xml version="1.0" encoding="utf-8"?>
<!-- Generator: Adobe Illustrator 16.0.0, SVG Export Plug-In . SVG Version: 6.00 Build 0)  -->
<!DOCTYPE svg PUBLIC "-//W3C//DTD SVG 1.1//EN" "http://www.w3.org/Graphics/SVG/1.1/DTD/svg11.dtd">
<svg version="1.1" id="Layer_1" xmlns="http://www.w3.org/2000/svg" xmlns:xlink="http://www.w3.org/1999/xlink" x="0px" y="0px"
	 width="529.402px" height="1199.619px" viewBox="0 0 529.402 1199.619" enable-background="new 0 0 529.402 1199.619"
	 xml:space="preserve">
<path fill="none" stroke="#000000" stroke-linejoin="round" stroke-miterlimit="10" d="M529.023,94.994
	c-2.225-15.075-7.48-32.882-25.131-35.375c-18.172-2.566-27.473,13.478-32.865,28.03l-0.113,0.307l-0.104,0.312
	c-18.234,54.256-36.168,108.613-54.191,162.939c-12.601,37.963-25.188,75.929-37.728,113.912
	c-4.123,12.499-8.248,24.997-12.338,37.507c-1.146,3.518-2.298,7.033-3.425,10.558c-0.312,0.988-0.633,1.979-0.938,2.973
	c-0.123,0.402-0.244,0.811-0.357,1.22c-0.086,0.31-0.168,0.615-0.24,0.926c-3.809,13.751-13.646,28.512-27.768,33.104
	c-15.27,4.965-29.479-5.021-39.427-15.751c-6.479-13.062-14.623-31.502-11.623-46.146c1.953-9.531,8.377-18.932,14.125-26.619
	c11.468-15.335,24.376-29.563,36.646-44.248l0.296-0.353l0.276-0.365c13.295-17.381,23.908-32.68,19.521-55.714
	c-13.286-80.448-30.57-160.365-59.179-236.901l-0.164-0.438l-0.187-0.431c-3.569-8.411-9.053-17.23-17.328-21.637
	c-4.875-2.594-10.151-3.351-15.583-2.424c-16.926,2.887-22.869,19.792-24.271,34.759l-0.008,0.085l-0.012,0.143
	c-8.046,96.669-42.348,136.901-137.259,158.171l-0.254,0.057l-0.25,0.063c-12.698,3.173-24.255,6.41-32.375,17.558
	c-12.271,16.848-4.783,36.062,6.567,50.918c13.246,21.762,15.705,68.461,16.402,93.582c0.855,30.834-0.267,61.741-2.017,92.527
	c-2.911,51.21-7.829,102.286-13.294,153.28c-6.068,56.604-12.93,113.127-19.765,169.646
	c-6.859,56.713-13.744,113.422-19.832,170.228c-5.542,51.694-10.518,103.479-13.47,155.399l-0.007,0.138l-0.008,0.207
	c-0.115,2.819-0.09,5.646,0.059,8.467c0.249,4.647,0.821,9.379,2.073,13.875c2.658,9.557,8.861,17.5,18.887,19.785
	c11.589,2.646,21.335-3.507,27.461-13.013L472.982,528.74l0.199-0.326c19.25-30.877,22.295-70.229,24.092-105.723l32.129-325.104
	L529.023,94.994z"/>
</svg>
