<?xml version="1.0" encoding="utf-8"?>
<!-- Generator: Adobe Illustrator 16.0.0, SVG Export Plug-In . SVG Version: 6.00 Build 0)  -->
<!DOCTYPE svg PUBLIC "-//W3C//DTD SVG 1.1//EN" "http://www.w3.org/Graphics/SVG/1.1/DTD/svg11.dtd">
<svg version="1.1" id="Layer_1" xmlns="http://www.w3.org/2000/svg" xmlns:xlink="http://www.w3.org/1999/xlink" x="0px" y="0px"
	 width="508.127px" height="1139.883px" viewBox="0 0 508.127 1139.883" enable-background="new 0 0 508.127 1139.883"
	 xml:space="preserve">
<path d="M507.751,94.994c-2.224-15.075-7.479-32.882-25.13-35.375c-18.172-2.566-27.473,13.478-32.866,28.03l-0.113,0.307
	l-0.104,0.312c-18.235,54.256-36.168,108.613-54.192,162.939c-12.6,37.963-25.188,75.929-37.727,113.912
	c-4.123,12.499-8.248,24.997-12.338,37.507c-1.146,3.518-2.298,7.033-3.425,10.558c-0.314,0.988-0.635,1.979-0.938,2.972
	c-0.123,0.403-0.244,0.811-0.357,1.22c-0.086,0.31-0.168,0.615-0.238,0.926c-3.811,13.751-13.646,28.511-27.77,33.104
	c-15.268,4.965-29.479-5.021-39.426-15.751c-6.479-13.062-14.623-31.502-11.623-46.146c1.953-9.531,8.377-18.932,14.125-26.619
	c11.467-15.335,24.375-29.563,36.646-44.248l0.296-0.353l0.274-0.365c13.295-17.381,23.908-32.68,19.521-55.714
	c-13.287-80.448-30.571-160.365-59.18-236.901l-0.164-0.438l-0.186-0.431c-3.57-8.411-9.053-17.23-17.33-21.637
	c-4.875-2.594-10.151-3.351-15.583-2.424c-16.926,2.887-22.868,19.792-24.271,34.759l-0.009,0.085l-0.013,0.143
	c-8.046,96.669-42.348,136.901-137.259,158.171l-0.254,0.057l-0.25,0.063c-12.698,3.173-24.256,6.41-32.375,17.558
	c-12.271,16.848-4.783,36.062,6.565,50.918c13.246,21.762,15.705,68.461,16.401,93.582c0.854,30.834-0.268,61.741-2.018,92.527
	c-2.91,51.21-7.829,102.286-13.294,153.28c-6.067,56.604-12.931,113.127-19.766,169.646
	c-6.858,56.713-13.744,113.422-19.832,170.229C8.013,993.09,3.037,1044.875,0.085,1096.795l-0.007,0.138l-0.009,0.207
	c-0.114,2.819-0.091,5.646,0.06,8.466c0.249,4.648,0.821,9.381,2.073,13.875c2.657,9.559,8.859,17.5,18.887,19.786
	c11.59,2.646,21.335-3.507,27.461-13.013L451.71,528.74l0.2-0.326c19.25-30.877,22.295-70.229,24.09-105.723l32.13-325.104
	L507.751,94.994z"/>
</svg>
