<?xml version="1.0" encoding="utf-8"?>
<!-- Generator: Adobe Illustrator 16.0.0, SVG Export Plug-In . SVG Version: 6.00 Build 0)  -->
<!DOCTYPE svg PUBLIC "-//W3C//DTD SVG 1.1//EN" "http://www.w3.org/Graphics/SVG/1.1/DTD/svg11.dtd">
<svg version="1.1" id="Layer_1" xmlns="http://www.w3.org/2000/svg" xmlns:xlink="http://www.w3.org/1999/xlink" x="0px" y="0px"
	 width="1130.834px" height="1049.354px" viewBox="0 0 1130.834 1049.354" enable-background="new 0 0 1130.834 1049.354"
	 xml:space="preserve">
<path fill="none" stroke="#000001" stroke-linejoin="round" stroke-miterlimit="10" d="M566.306,121.938
	c-1.893-5.309-8.116-8.084-17.63-5.178c-72.779,22.531-150.36,37.669-236.092,40.267c-12.809-1.603-17.214,5.595-15.867,18.816
	c-14.894,137.616-52.561,271.28-101.627,399.263L1.992,1031.117c-6.347,19.73,3.13,23.217,19.151,11.598l287.963-258.723
	c16.063-13.521,31.423-27.806,45.914-43.132c13.911-7.011,31.534-4.868,45.512,0.815c4.473,1.818,8.912,4.031,13.068,6.489
	c13.514,7.989,26.726,18.907,33.25,33.54c3.309,7.422,5.541,16.687,5.541,24.854c-2.386,6.602-4.662,16.584-2.113,20.777
	l0.003-0.002c5.232,6.086,3.959,13.018,3.96,20.443c0.002,17.218,13.961,31.178,31.181,31.178c17.221,0,31.182-13.961,31.182-31.182
	c0-3.619-0.625-7.234-1.861-10.636c-3.916-10.786-5.163-21.072,2.548-30.684c4.958-6.18,12.741-9.005,20.205-10.806l0.001,0.003
	c2.139-0.546,5.04-1.608,8.703-3.189l42.256-14.18c98.291-41,176.746-74.168,256.836-176.484
	c30.143-38.505,55.256-95.203,89.393-153.581l194.039-413.554c7.389-8.916-5.923-27.464-19.447-19.65
	c-9.727,1.795-33.237,8.495-33.237-8.527l-0.051-0.297c-0.933-4.404-5.916-6.442-15.737-6.163
	c-93.163,12.865-195.04,32.547-318.352,69.004c-20.604,6.884-34.153,21.465-40.652,43.745l0.009,0.002
	c-6.376,9.944-35.973,17.453-71.575,17.453c-34.964,0-63.256-3.544-63.256-7.925L566.306,121.938z"/>
</svg>
