<?xml version="1.0" encoding="utf-8"?>
<!-- Generator: Adobe Illustrator 16.0.0, SVG Export Plug-In . SVG Version: 6.00 Build 0)  -->
<!DOCTYPE svg PUBLIC "-//W3C//DTD SVG 1.1//EN" "http://www.w3.org/Graphics/SVG/1.1/DTD/svg11.dtd">
<svg version="1.1" id="Layer_1" xmlns="http://www.w3.org/2000/svg" xmlns:xlink="http://www.w3.org/1999/xlink" x="0px" y="0px"
	 width="599.516px" height="1590.604px" viewBox="0 0 599.516 1590.604" enable-background="new 0 0 599.516 1590.604"
	 xml:space="preserve">
<path fill="none" stroke="#000000" stroke-linejoin="round" stroke-miterlimit="10" d="M312.621,1504.991
	c-5.492,6.978-11.062,13.614-16.709,19.881c-4.437,4.567-8.814,4.643-13.119-0.707c-5.084-6.205-10.081-12.741-14.994-19.583"/>
<path fill="none" stroke="#000000" stroke-linejoin="round" stroke-miterlimit="10" d="M86.581,110.176
	c124.07,87.042,187.627,194.232,205.469,324.655c1.888,9.341,11.679,10.091,14.853,0.781
	c17.983-131.436,82.8-239.843,208.908-327.417"/>
<path fill="none" stroke="#000001" stroke-linejoin="round" stroke-miterlimit="10" d="M91.871,1077.787l2.323-19.748
	c9.32-20.102,23.806-44.851,41.458-60.776c8.75-5.056,13.104-6.951,14.818,4.859c34.278,129.771,57.167,302.938,130.656,394.407
	c3.822,2.062,6.424,1.688,6.346-4.05c-30.574-51.85-55.199-103.874-68.062-156.241c-1.164-5.979,1.312-7.931,7.43-5.851
	c17.9,8.137,38.286,16.865,62.686,26.551c3.821,1.798,7.903,2.023,12.248,0.686c24.828-8.524,45.601-16.284,63.863-23.567
	c6.209-1.791,8.588,0.271,7.147,6.189c-15.319,51.706-42.366,102.511-75.347,152.865c-0.351,5.728,2.231,6.224,6.147,4.342
	c77.715-87.907,108.734-259.803,149.086-387.818c2.27-11.714,6.529-9.617,15.031-4.152c16.883,16.74,30.186,42.144,38.549,62.658
	l1.391,19.837"/>
</svg>
