<?xml version="1.0" encoding="utf-8"?>
<!-- Generator: Adobe Illustrator 16.0.0, SVG Export Plug-In . SVG Version: 6.00 Build 0)  -->
<!DOCTYPE svg PUBLIC "-//W3C//DTD SVG 1.1//EN" "http://www.w3.org/Graphics/SVG/1.1/DTD/svg11.dtd">
<svg version="1.1" id="Layer_1" xmlns="http://www.w3.org/2000/svg" xmlns:xlink="http://www.w3.org/1999/xlink" x="0px" y="0px"
	 width="1596.152px" height="579.372px" viewBox="0 0 1596.152 579.372" enable-background="new 0 0 1596.152 579.372"
	 xml:space="preserve">
<path fill="none" stroke="#000000" stroke-linejoin="round" stroke-miterlimit="10" d="M933.666,5.757
	C900.099-4.841,841.792-5.165,743.721,43.284c-31.561,15.607-306.054,134.35-304.506,135.945
	c-26.074,14.774-47.021-26.612-60.405-48.457c-4.086-6.65-3.352-5.752-9.54-1.258C243.815,220.142,145.094,297.097,73.174,360.401
	c-26.79,24.906-3.77,59.455,68.769,102.988c55.753,38.047,111.612,76.824,167.631,115.588c9.166,3.045,18.664-11.52,28.168-44.033
	c34.291-61.66,66.729-77.551,136.359-91.936c437.353-79.984,627.03-76.297,985.073,73.318
	c78.531-201.766,44.32-120.957,136.978-319.94C1210.689,67.278,1266.333,78.995,933.666,5.757z M129.298,426.418
	c-3.718,0-6.731-3.014-6.731-6.732c0-3.717,3.014-6.73,6.731-6.73c3.719,0,6.732,3.017,6.732,6.73
	C136.03,423.405,133.017,426.418,129.298,426.418z M129.298,374.418c-3.718,0-6.731-3.017-6.731-6.731
	c0-3.718,3.014-6.731,6.731-6.731c3.719,0,6.732,3.019,6.732,6.731C136.03,371.403,133.017,374.418,129.298,374.418z
	 M185.868,478.418c-3.718,0-6.731-3.014-6.731-6.732c0-3.717,3.014-6.73,6.731-6.73c3.719,0,6.733,3.016,6.733,6.73
	C192.601,475.405,189.588,478.418,185.868,478.418z M185.868,426.418c-3.718,0-6.731-3.014-6.731-6.732
	c0-3.717,3.014-6.73,6.731-6.73c3.719,0,6.733,3.017,6.733,6.73C192.601,423.405,189.588,426.418,185.868,426.418z M185.868,374.418
	c-3.718,0-6.731-3.017-6.731-6.731c0-3.718,3.014-6.731,6.731-6.731c3.719,0,6.733,3.019,6.733,6.731
	C192.601,371.403,189.588,374.418,185.868,374.418z M185.868,322.418c-3.718,0-6.731-3.017-6.731-6.731
	c0-3.718,3.014-6.731,6.731-6.731c3.719,0,6.733,3.019,6.733,6.731C192.601,319.403,189.588,322.418,185.868,322.418z
	 M242.439,478.418c-3.719,0-6.732-3.014-6.732-6.732c0-3.717,3.014-6.73,6.732-6.73c3.718,0,6.732,3.016,6.732,6.73
	C249.172,475.405,246.158,478.418,242.439,478.418z M242.439,426.418c-3.719,0-6.732-3.014-6.732-6.732
	c0-3.717,3.014-6.73,6.732-6.73c3.718,0,6.732,3.017,6.732,6.73C249.172,423.405,246.158,426.418,242.439,426.418z M242.439,374.418
	c-3.719,0-6.732-3.017-6.732-6.731c0-3.718,3.014-6.731,6.732-6.731c3.718,0,6.732,3.019,6.732,6.731
	C249.172,371.403,246.158,374.418,242.439,374.418z M242.439,322.418c-3.719,0-6.732-3.017-6.732-6.731
	c0-3.718,3.014-6.731,6.732-6.731c3.718,0,6.732,3.019,6.732,6.731C249.172,319.403,246.158,322.418,242.439,322.418z
	 M242.439,270.419c-3.719,0-6.732-3.014-6.732-6.732s3.014-6.732,6.732-6.732c3.718,0,6.732,3.014,6.732,6.732
	S246.158,270.419,242.439,270.419z M299.009,530.418c-3.719,0-6.732-3.014-6.732-6.732c0-3.717,3.014-6.73,6.732-6.73
	s6.732,3.016,6.732,6.73C305.742,527.405,302.728,530.418,299.009,530.418z M299.009,478.418c-3.719,0-6.732-3.014-6.732-6.732
	c0-3.717,3.014-6.73,6.732-6.73s6.732,3.016,6.732,6.73C305.742,475.405,302.728,478.418,299.009,478.418z M299.009,426.418
	c-3.719,0-6.732-3.014-6.732-6.732c0-3.717,3.014-6.73,6.732-6.73s6.732,3.017,6.732,6.73
	C305.742,423.405,302.728,426.418,299.009,426.418z M299.009,374.418c-3.719,0-6.732-3.017-6.732-6.731
	c0-3.718,3.014-6.731,6.732-6.731s6.732,3.019,6.732,6.731C305.742,371.403,302.728,374.418,299.009,374.418z M299.009,322.418
	c-3.719,0-6.732-3.017-6.732-6.731c0-3.718,3.014-6.731,6.732-6.731s6.732,3.019,6.732,6.731
	C305.742,319.403,302.728,322.418,299.009,322.418z M299.009,270.419c-3.719,0-6.732-3.014-6.732-6.732s3.014-6.732,6.732-6.732
	s6.732,3.014,6.732,6.732S302.728,270.419,299.009,270.419z M299.009,218.419c-3.719,0-6.732-3.014-6.732-6.732
	s3.014-6.732,6.732-6.732s6.732,3.014,6.732,6.732S302.728,218.419,299.009,218.419z M355.58,478.418
	c-3.719,0-6.732-3.014-6.732-6.732c0-3.717,3.016-6.73,6.732-6.73s6.73,3.016,6.73,6.73
	C362.312,475.405,359.299,478.418,355.58,478.418z M355.58,426.418c-3.719,0-6.732-3.014-6.732-6.732c0-3.717,3.016-6.73,6.732-6.73
	s6.73,3.017,6.73,6.73C362.312,423.405,359.299,426.418,355.58,426.418z M355.58,374.418c-3.719,0-6.732-3.017-6.732-6.731
	c0-3.718,3.016-6.731,6.732-6.731s6.73,3.019,6.73,6.731C362.312,371.403,359.299,374.418,355.58,374.418z M355.58,322.418
	c-3.719,0-6.732-3.017-6.732-6.731c0-3.718,3.016-6.731,6.732-6.731s6.73,3.019,6.73,6.731
	C362.312,319.403,359.299,322.418,355.58,322.418z M355.58,270.419c-3.719,0-6.732-3.014-6.732-6.732s3.016-6.732,6.732-6.732
	s6.73,3.014,6.73,6.732S359.299,270.419,355.58,270.419z M355.58,218.419c-3.719,0-6.732-3.014-6.732-6.732s3.016-6.732,6.732-6.732
	s6.73,3.014,6.73,6.732S359.299,218.419,355.58,218.419z M355.58,166.419c-3.719,0-6.732-3.014-6.732-6.732s3.016-6.732,6.732-6.732
	s6.73,3.014,6.73,6.732S359.299,166.419,355.58,166.419z M412.15,426.418c-3.721,0-6.732-3.014-6.732-6.732
	c0-3.717,3.015-6.73,6.732-6.73c3.717,0,6.729,3.017,6.729,6.73C418.883,423.405,415.869,426.418,412.15,426.418z M412.15,374.418
	c-3.721,0-6.732-3.017-6.732-6.731c0-3.718,3.015-6.731,6.732-6.731c3.717,0,6.729,3.019,6.729,6.731
	C418.883,371.403,415.869,374.418,412.15,374.418z M412.15,322.418c-3.721,0-6.732-3.017-6.732-6.731
	c0-3.718,3.015-6.731,6.732-6.731c3.717,0,6.729,3.019,6.729,6.731C418.883,319.403,415.869,322.418,412.15,322.418z
	 M412.15,270.419c-3.721,0-6.732-3.014-6.732-6.732s3.015-6.732,6.732-6.732c3.717,0,6.729,3.014,6.729,6.732
	S415.869,270.419,412.15,270.419z M412.15,218.419c-3.721,0-6.732-3.014-6.732-6.732s3.015-6.732,6.732-6.732
	c3.717,0,6.729,3.014,6.729,6.732S415.869,218.419,412.15,218.419z M468.72,426.418c-3.721,0-6.73-3.014-6.73-6.732
	c0-3.717,3.014-6.73,6.73-6.73c3.718,0,6.73,3.017,6.73,6.73C475.453,423.405,472.439,426.418,468.72,426.418z M468.72,374.418
	c-3.721,0-6.73-3.017-6.73-6.731c0-3.718,3.014-6.731,6.73-6.731c3.718,0,6.73,3.019,6.73,6.731
	C475.453,371.403,472.439,374.418,468.72,374.418z M468.72,322.418c-3.721,0-6.73-3.017-6.73-6.731c0-3.718,3.014-6.731,6.73-6.731
	c3.718,0,6.73,3.019,6.73,6.731C475.453,319.403,472.439,322.418,468.72,322.418z M468.72,270.419c-3.721,0-6.73-3.014-6.73-6.732
	s3.014-6.732,6.73-6.732c3.718,0,6.73,3.014,6.73,6.732S472.439,270.419,468.72,270.419z M468.72,218.419
	c-3.721,0-6.73-3.014-6.73-6.732s3.014-6.732,6.73-6.732c3.718,0,6.73,3.014,6.73,6.732S472.439,218.419,468.72,218.419z
	 M525.291,374.418c-3.719,0-6.73-3.017-6.73-6.731c0-3.718,3.016-6.731,6.73-6.731s6.732,3.019,6.732,6.731
	C532.023,371.403,529.009,374.418,525.291,374.418z M525.291,322.418c-3.719,0-6.73-3.017-6.73-6.731
	c0-3.718,3.016-6.731,6.73-6.731s6.732,3.019,6.732,6.731C532.023,319.403,529.009,322.418,525.291,322.418z M525.291,270.419
	c-3.719,0-6.73-3.014-6.73-6.732s3.016-6.732,6.73-6.732s6.732,3.014,6.732,6.732S529.009,270.419,525.291,270.419z
	 M525.291,218.419c-3.719,0-6.73-3.014-6.73-6.732s3.016-6.732,6.73-6.732s6.732,3.014,6.732,6.732S529.009,218.419,525.291,218.419
	z M525.291,166.419c-3.719,0-6.73-3.014-6.73-6.732s3.016-6.732,6.73-6.732s6.732,3.014,6.732,6.732
	S529.009,166.419,525.291,166.419z M581.861,374.418c-3.721,0-6.732-3.017-6.732-6.731c0-3.718,3.016-6.731,6.732-6.731
	c3.716,0,6.73,3.019,6.73,6.731C588.593,371.403,585.58,374.418,581.861,374.418z M581.861,322.418
	c-3.721,0-6.732-3.017-6.732-6.731c0-3.718,3.016-6.731,6.732-6.731c3.716,0,6.73,3.019,6.73,6.731
	C588.593,319.403,585.58,322.418,581.861,322.418z M581.861,270.419c-3.721,0-6.732-3.014-6.732-6.732s3.016-6.732,6.732-6.732
	c3.716,0,6.73,3.014,6.73,6.732S585.58,270.419,581.861,270.419z M581.861,218.419c-3.721,0-6.732-3.014-6.732-6.732
	s3.016-6.732,6.732-6.732c3.716,0,6.73,3.014,6.73,6.732S585.58,218.419,581.861,218.419z M581.861,166.419
	c-3.721,0-6.732-3.014-6.732-6.732s3.016-6.732,6.732-6.732c3.716,0,6.73,3.014,6.73,6.732S585.58,166.419,581.861,166.419z
	 M638.431,374.418c-3.721,0-6.73-3.017-6.73-6.731c0-3.718,3.014-6.731,6.73-6.731c3.72,0,6.73,3.019,6.73,6.731
	C645.164,371.403,642.15,374.418,638.431,374.418z M638.431,322.418c-3.721,0-6.73-3.017-6.73-6.731c0-3.718,3.014-6.731,6.73-6.731
	c3.72,0,6.73,3.019,6.73,6.731C645.164,319.403,642.15,322.418,638.431,322.418z M638.431,270.419c-3.721,0-6.73-3.014-6.73-6.732
	s3.014-6.732,6.73-6.732c3.72,0,6.73,3.014,6.73,6.732S642.15,270.419,638.431,270.419z M638.431,218.419
	c-3.721,0-6.73-3.014-6.73-6.732s3.014-6.732,6.73-6.732c3.72,0,6.73,3.014,6.73,6.732S642.15,218.419,638.431,218.419z
	 M638.431,166.419c-3.721,0-6.73-3.014-6.73-6.732s3.014-6.732,6.73-6.732c3.72,0,6.73,3.014,6.73,6.732
	S642.15,166.419,638.431,166.419z M638.431,114.419c-3.721,0-6.73-3.014-6.73-6.732s3.014-6.732,6.73-6.732
	c3.72,0,6.73,3.014,6.73,6.732C645.163,111.405,642.15,114.419,638.431,114.419z M695.001,374.418c-3.719,0-6.729-3.017-6.729-6.731
	c0-3.718,3.015-6.731,6.729-6.731c3.72,0,6.732,3.019,6.732,6.731C701.734,371.403,698.72,374.418,695.001,374.418z
	 M695.001,322.418c-3.719,0-6.729-3.017-6.729-6.731c0-3.718,3.015-6.731,6.729-6.731c3.72,0,6.732,3.019,6.732,6.731
	C701.734,319.403,698.72,322.418,695.001,322.418z M695.001,270.419c-3.719,0-6.729-3.014-6.729-6.732s3.015-6.732,6.729-6.732
	c3.72,0,6.732,3.014,6.732,6.732S698.72,270.419,695.001,270.419z M695.001,218.419c-3.719,0-6.729-3.014-6.729-6.732
	s3.015-6.732,6.729-6.732c3.72,0,6.732,3.014,6.732,6.732S698.72,218.419,695.001,218.419z M695.001,166.419
	c-3.719,0-6.729-3.014-6.729-6.732s3.015-6.732,6.729-6.732c3.72,0,6.732,3.014,6.732,6.732S698.72,166.419,695.001,166.419z
	 M695.001,114.419c-3.719,0-6.729-3.014-6.729-6.732s3.015-6.732,6.729-6.732c3.72,0,6.732,3.014,6.732,6.732
	S698.72,114.419,695.001,114.419z M751.572,374.418c-3.719,0-6.731-3.017-6.731-6.731c0-3.718,3.017-6.731,6.731-6.731
	s6.73,3.019,6.73,6.731C758.304,371.403,755.291,374.418,751.572,374.418z M751.572,322.418c-3.719,0-6.731-3.017-6.731-6.731
	c0-3.718,3.017-6.731,6.731-6.731s6.73,3.019,6.73,6.731C758.304,319.403,755.291,322.418,751.572,322.418z M751.572,270.419
	c-3.719,0-6.731-3.014-6.731-6.732s3.017-6.732,6.731-6.732s6.73,3.014,6.73,6.732S755.291,270.419,751.572,270.419z
	 M751.572,218.419c-3.719,0-6.731-3.014-6.731-6.732s3.017-6.732,6.731-6.732s6.73,3.014,6.73,6.732
	S755.291,218.419,751.572,218.419z M751.572,166.419c-3.719,0-6.731-3.014-6.731-6.732s3.017-6.732,6.731-6.732
	s6.73,3.014,6.73,6.732S755.291,166.419,751.572,166.419z M751.572,114.419c-3.719,0-6.731-3.014-6.731-6.732
	s3.017-6.732,6.731-6.732s6.73,3.014,6.73,6.732S755.291,114.419,751.572,114.419z M751.572,62.419
	c-3.719,0-6.731-3.014-6.731-6.732s3.017-6.732,6.731-6.732s6.73,3.014,6.73,6.732S755.291,62.419,751.572,62.419z M808.142,374.418
	c-3.721,0-6.731-3.017-6.731-6.731c0-3.718,3.016-6.731,6.731-6.731c3.717,0,6.73,3.019,6.73,6.731
	C814.875,371.403,811.861,374.418,808.142,374.418z M808.142,322.418c-3.721,0-6.731-3.017-6.731-6.731
	c0-3.718,3.016-6.731,6.731-6.731c3.717,0,6.73,3.019,6.73,6.731C814.875,319.403,811.861,322.418,808.142,322.418z
	 M808.142,270.419c-3.721,0-6.731-3.014-6.731-6.732s3.016-6.732,6.731-6.732c3.717,0,6.73,3.014,6.73,6.732
	S811.861,270.419,808.142,270.419z M808.142,218.419c-3.721,0-6.731-3.014-6.731-6.732s3.016-6.732,6.731-6.732
	c3.717,0,6.73,3.014,6.73,6.732S811.861,218.419,808.142,218.419z M808.142,166.419c-3.721,0-6.731-3.014-6.731-6.732
	s3.016-6.732,6.731-6.732c3.717,0,6.73,3.014,6.73,6.732S811.861,166.419,808.142,166.419z M808.142,114.419
	c-3.721,0-6.731-3.014-6.731-6.732s3.016-6.732,6.731-6.732c3.717,0,6.73,3.014,6.73,6.732
	C814.875,111.405,811.861,114.419,808.142,114.419z M808.142,62.419c-3.721,0-6.731-3.014-6.731-6.732s3.016-6.732,6.731-6.732
	c3.717,0,6.73,3.014,6.73,6.732C814.875,59.405,811.861,62.419,808.142,62.419z M864.71,374.418c-3.719,0-6.729-3.017-6.729-6.731
	c0-3.718,3.014-6.731,6.729-6.731c3.719,0,6.732,3.019,6.732,6.731C871.445,371.403,868.429,374.418,864.71,374.418z
	 M864.71,322.418c-3.719,0-6.729-3.017-6.729-6.731c0-3.718,3.014-6.731,6.729-6.731c3.719,0,6.732,3.019,6.732,6.731
	C871.445,319.403,868.429,322.418,864.71,322.418z M864.71,270.419c-3.719,0-6.729-3.014-6.729-6.732s3.014-6.732,6.729-6.732
	c3.719,0,6.732,3.014,6.732,6.732S868.429,270.419,864.71,270.419z M864.71,218.419c-3.719,0-6.729-3.014-6.729-6.732
	s3.014-6.732,6.729-6.732c3.719,0,6.732,3.014,6.732,6.732S868.429,218.419,864.71,218.419z M864.71,166.419
	c-3.719,0-6.729-3.014-6.729-6.732s3.014-6.732,6.729-6.732c3.719,0,6.732,3.014,6.732,6.732S868.429,166.419,864.71,166.419z
	 M864.71,114.419c-3.719,0-6.729-3.014-6.729-6.732s3.014-6.732,6.729-6.732c3.719,0,6.732,3.014,6.732,6.732
	S868.429,114.419,864.71,114.419z M864.71,62.419c-3.719,0-6.729-3.014-6.729-6.732s3.014-6.732,6.729-6.732
	c3.719,0,6.732,3.014,6.732,6.732S868.429,62.419,864.71,62.419z M921.283,374.418c-3.721,0-6.73-3.017-6.73-6.731
	c0-3.718,3.015-6.731,6.73-6.731c3.719,0,6.729,3.019,6.729,6.731C928.013,371.403,925,374.418,921.283,374.418z M921.283,322.418
	c-3.721,0-6.73-3.017-6.73-6.731c0-3.718,3.015-6.731,6.73-6.731c3.719,0,6.729,3.019,6.729,6.731
	C928.013,319.403,925,322.418,921.283,322.418z M921.283,270.419c-3.721,0-6.73-3.014-6.73-6.732s3.015-6.732,6.73-6.732
	c3.719,0,6.729,3.014,6.729,6.732S925,270.419,921.283,270.419z M921.283,218.419c-3.721,0-6.73-3.014-6.73-6.732
	s3.015-6.732,6.73-6.732c3.719,0,6.729,3.014,6.729,6.732S925,218.419,921.283,218.419z M921.283,166.419
	c-3.721,0-6.73-3.014-6.73-6.732s3.015-6.732,6.73-6.732c3.719,0,6.729,3.014,6.729,6.732S925,166.419,921.283,166.419z
	 M921.283,114.419c-3.721,0-6.73-3.014-6.73-6.732s3.015-6.732,6.73-6.732c3.719,0,6.729,3.014,6.729,6.732
	S925,114.419,921.283,114.419z M921.283,62.419c-3.721,0-6.73-3.014-6.73-6.732s3.015-6.732,6.73-6.732
	c3.719,0,6.729,3.014,6.729,6.732S925,62.419,921.283,62.419z M977.852,374.418c-3.72,0-6.73-3.017-6.73-6.731
	c0-3.718,3.018-6.731,6.73-6.731c3.721,0,6.731,3.019,6.731,6.731C984.583,371.403,981.572,374.418,977.852,374.418z
	 M977.852,322.418c-3.72,0-6.73-3.017-6.73-6.731c0-3.718,3.018-6.731,6.73-6.731c3.721,0,6.731,3.019,6.731,6.731
	C984.583,319.403,981.572,322.418,977.852,322.418z M977.852,270.419c-3.72,0-6.73-3.014-6.73-6.732s3.018-6.732,6.73-6.732
	c3.721,0,6.731,3.014,6.731,6.732S981.572,270.419,977.852,270.419z M977.852,218.419c-3.72,0-6.73-3.014-6.73-6.732
	s3.018-6.732,6.73-6.732c3.721,0,6.731,3.014,6.731,6.732S981.572,218.419,977.852,218.419z M977.852,166.419
	c-3.72,0-6.73-3.014-6.73-6.732s3.018-6.732,6.73-6.732c3.721,0,6.731,3.014,6.731,6.732S981.572,166.419,977.852,166.419z
	 M977.852,114.419c-3.72,0-6.73-3.014-6.73-6.732s3.018-6.732,6.73-6.732c3.721,0,6.731,3.014,6.731,6.732
	S981.572,114.419,977.852,114.419z M977.852,62.419c-3.72,0-6.73-3.014-6.73-6.732s3.018-6.732,6.73-6.732
	c3.721,0,6.731,3.014,6.731,6.732S981.572,62.419,977.852,62.419z M1034.423,374.418c-3.721,0-6.731-3.017-6.731-6.731
	c0-3.718,3.016-6.731,6.731-6.731s6.73,3.019,6.73,6.731C1041.156,371.403,1038.14,374.418,1034.423,374.418z M1034.423,322.418
	c-3.721,0-6.731-3.017-6.731-6.731c0-3.718,3.016-6.731,6.731-6.731s6.73,3.019,6.73,6.731
	C1041.156,319.403,1038.14,322.418,1034.423,322.418z M1034.423,270.419c-3.721,0-6.731-3.014-6.731-6.732s3.016-6.732,6.731-6.732
	s6.73,3.014,6.73,6.732S1038.14,270.419,1034.423,270.419z M1034.423,218.419c-3.721,0-6.731-3.014-6.731-6.732
	s3.016-6.732,6.731-6.732s6.73,3.014,6.73,6.732S1038.14,218.419,1034.423,218.419z M1034.423,166.419
	c-3.721,0-6.731-3.014-6.731-6.732s3.016-6.732,6.731-6.732s6.73,3.014,6.73,6.732S1038.14,166.419,1034.423,166.419z
	 M1034.423,114.419c-3.721,0-6.731-3.014-6.731-6.732s3.016-6.732,6.731-6.732s6.73,3.014,6.73,6.732
	S1038.14,114.419,1034.423,114.419z M1034.423,62.419c-3.721,0-6.731-3.014-6.731-6.732s3.016-6.732,6.731-6.732
	s6.73,3.014,6.73,6.732S1038.14,62.419,1034.423,62.419z M1090.994,374.418c-3.719,0-6.73-3.017-6.73-6.731
	c0-3.718,3.015-6.731,6.73-6.731c3.719,0,6.729,3.019,6.729,6.731C1097.724,371.403,1094.71,374.418,1090.994,374.418z
	 M1090.994,322.418c-3.719,0-6.73-3.017-6.73-6.731c0-3.718,3.015-6.731,6.73-6.731c3.719,0,6.729,3.019,6.729,6.731
	C1097.724,319.403,1094.71,322.418,1090.994,322.418z M1090.994,270.419c-3.719,0-6.73-3.014-6.73-6.732s3.015-6.732,6.73-6.732
	c3.719,0,6.729,3.014,6.729,6.732S1094.71,270.419,1090.994,270.419z M1090.994,218.419c-3.719,0-6.73-3.014-6.73-6.732
	s3.015-6.732,6.73-6.732c3.719,0,6.729,3.014,6.729,6.732S1094.71,218.419,1090.994,218.419z M1090.994,166.419
	c-3.719,0-6.73-3.014-6.73-6.732s3.015-6.732,6.73-6.732c3.719,0,6.729,3.014,6.729,6.732S1094.71,166.419,1090.994,166.419z
	 M1090.994,114.419c-3.719,0-6.73-3.014-6.73-6.732s3.015-6.732,6.73-6.732c3.719,0,6.729,3.014,6.729,6.732
	S1094.71,114.419,1090.994,114.419z M1090.994,62.419c-3.719,0-6.73-3.014-6.73-6.732s3.015-6.732,6.73-6.732
	c3.719,0,6.729,3.014,6.729,6.732S1094.71,62.419,1090.994,62.419z M1147.562,374.418c-3.72,0-6.73-3.017-6.73-6.731
	c0-3.718,3.018-6.731,6.73-6.731c3.721,0,6.731,3.019,6.731,6.731C1154.296,371.403,1151.283,374.418,1147.562,374.418z
	 M1147.562,322.418c-3.72,0-6.73-3.017-6.73-6.731c0-3.718,3.018-6.731,6.73-6.731c3.721,0,6.731,3.019,6.731,6.731
	C1154.296,319.403,1151.283,322.418,1147.562,322.418z M1147.562,270.419c-3.72,0-6.73-3.014-6.73-6.732s3.018-6.732,6.73-6.732
	c3.721,0,6.731,3.014,6.731,6.732S1151.283,270.419,1147.562,270.419z M1147.562,218.419c-3.72,0-6.73-3.014-6.73-6.732
	s3.018-6.732,6.73-6.732c3.721,0,6.731,3.014,6.731,6.732S1151.283,218.419,1147.562,218.419z M1147.562,166.419
	c-3.72,0-6.73-3.014-6.73-6.732s3.018-6.732,6.73-6.732c3.721,0,6.731,3.014,6.731,6.732S1151.283,166.419,1147.562,166.419z
	 M1147.562,114.419c-3.72,0-6.73-3.014-6.73-6.732s3.018-6.732,6.73-6.732c3.721,0,6.731,3.014,6.731,6.732
	S1151.283,114.419,1147.562,114.419z M1204.132,374.418c-3.719,0-6.729-3.017-6.729-6.731c0-3.718,3.014-6.731,6.729-6.731
	c3.719,0,6.732,3.019,6.732,6.731C1210.867,371.403,1207.851,374.418,1204.132,374.418z M1204.132,322.418
	c-3.719,0-6.729-3.017-6.729-6.731c0-3.718,3.014-6.731,6.729-6.731c3.719,0,6.732,3.019,6.732,6.731
	C1210.867,319.403,1207.851,322.418,1204.132,322.418z M1204.132,270.419c-3.719,0-6.729-3.014-6.729-6.732s3.014-6.732,6.729-6.732
	c3.719,0,6.732,3.014,6.732,6.732S1207.851,270.419,1204.132,270.419z M1204.132,218.419c-3.719,0-6.729-3.014-6.729-6.732
	s3.014-6.732,6.729-6.732c3.719,0,6.732,3.014,6.732,6.732S1207.851,218.419,1204.132,218.419z M1204.132,166.419
	c-3.719,0-6.729-3.014-6.729-6.732s3.014-6.732,6.729-6.732c3.719,0,6.732,3.014,6.732,6.732S1207.851,166.419,1204.132,166.419z
	 M1204.132,114.419c-3.719,0-6.729-3.014-6.729-6.732s3.014-6.732,6.729-6.732c3.719,0,6.732,3.014,6.732,6.732
	S1207.851,114.419,1204.132,114.419z M1260.705,426.418c-3.719,0-6.73-3.014-6.73-6.732c0-3.717,3.015-6.73,6.73-6.73
	c3.719,0,6.729,3.017,6.729,6.73C1267.436,423.405,1264.423,426.418,1260.705,426.418z M1260.705,374.418
	c-3.719,0-6.73-3.017-6.73-6.731c0-3.718,3.015-6.731,6.73-6.731c3.719,0,6.729,3.019,6.729,6.731
	C1267.436,371.403,1264.423,374.418,1260.705,374.418z M1260.705,322.418c-3.719,0-6.73-3.017-6.73-6.731
	c0-3.718,3.015-6.731,6.73-6.731c3.719,0,6.729,3.019,6.729,6.731C1267.436,319.403,1264.423,322.418,1260.705,322.418z
	 M1260.705,270.419c-3.719,0-6.73-3.014-6.73-6.732s3.015-6.732,6.73-6.732c3.719,0,6.729,3.014,6.729,6.732
	S1264.423,270.419,1260.705,270.419z M1260.705,218.419c-3.719,0-6.73-3.014-6.73-6.732s3.015-6.732,6.73-6.732
	c3.719,0,6.729,3.014,6.729,6.732S1264.423,218.419,1260.705,218.419z M1260.705,166.419c-3.719,0-6.73-3.014-6.73-6.732
	s3.015-6.732,6.73-6.732c3.719,0,6.729,3.014,6.729,6.732S1264.423,166.419,1260.705,166.419z M1260.705,114.419
	c-3.719,0-6.73-3.014-6.73-6.732s3.015-6.732,6.73-6.732c3.719,0,6.729,3.014,6.729,6.732S1264.423,114.419,1260.705,114.419z
	 M1317.275,426.418c-3.722,0-6.732-3.014-6.732-6.732c0-3.717,3.018-6.73,6.732-6.73c3.719,0,6.729,3.017,6.729,6.73
	C1324.007,423.405,1320.994,426.418,1317.275,426.418z M1317.275,374.418c-3.722,0-6.732-3.017-6.732-6.731
	c0-3.718,3.018-6.731,6.732-6.731c3.719,0,6.729,3.019,6.729,6.731C1324.007,371.403,1320.994,374.418,1317.275,374.418z
	 M1317.275,322.418c-3.722,0-6.732-3.017-6.732-6.731c0-3.718,3.018-6.731,6.732-6.731c3.719,0,6.729,3.019,6.729,6.731
	C1324.007,319.403,1320.994,322.418,1317.275,322.418z M1317.275,270.419c-3.722,0-6.732-3.014-6.732-6.732s3.018-6.732,6.732-6.732
	c3.719,0,6.729,3.014,6.729,6.732S1320.994,270.419,1317.275,270.419z M1317.275,218.419c-3.722,0-6.732-3.014-6.732-6.732
	s3.018-6.732,6.732-6.732c3.719,0,6.729,3.014,6.729,6.732S1320.994,218.419,1317.275,218.419z M1317.275,166.419
	c-3.722,0-6.732-3.014-6.732-6.732s3.018-6.732,6.732-6.732c3.719,0,6.729,3.014,6.729,6.732S1320.994,166.419,1317.275,166.419z
	 M1373.843,426.418c-3.719,0-6.729-3.014-6.729-6.732c0-3.717,3.014-6.73,6.729-6.73c3.72,0,6.732,3.017,6.732,6.73
	C1380.578,423.405,1377.562,426.418,1373.843,426.418z M1373.843,374.418c-3.719,0-6.729-3.017-6.729-6.731
	c0-3.718,3.014-6.731,6.729-6.731c3.72,0,6.732,3.019,6.732,6.731C1380.578,371.403,1377.562,374.418,1373.843,374.418z
	 M1373.843,322.418c-3.719,0-6.729-3.017-6.729-6.731c0-3.718,3.014-6.731,6.729-6.731c3.72,0,6.732,3.019,6.732,6.731
	C1380.578,319.403,1377.562,322.418,1373.843,322.418z M1373.843,270.419c-3.719,0-6.729-3.014-6.729-6.732s3.014-6.732,6.729-6.732
	c3.72,0,6.732,3.014,6.732,6.732S1377.562,270.419,1373.843,270.419z M1373.843,218.419c-3.719,0-6.729-3.014-6.729-6.732
	s3.014-6.732,6.729-6.732c3.72,0,6.732,3.014,6.732,6.732S1377.562,218.419,1373.843,218.419z M1373.843,166.419
	c-3.719,0-6.729-3.014-6.729-6.732s3.014-6.732,6.729-6.732c3.72,0,6.732,3.014,6.732,6.732S1377.562,166.419,1373.843,166.419z
	 M1430.416,478.418c-3.719,0-6.73-3.014-6.73-6.732c0-3.717,3.015-6.73,6.73-6.73c3.719,0,6.732,3.016,6.732,6.73
	C1437.146,475.405,1434.132,478.418,1430.416,478.418z M1430.416,426.418c-3.719,0-6.73-3.014-6.73-6.732
	c0-3.717,3.015-6.73,6.73-6.73c3.719,0,6.732,3.017,6.732,6.73C1437.146,423.405,1434.132,426.418,1430.416,426.418z
	 M1430.416,374.418c-3.719,0-6.73-3.017-6.73-6.731c0-3.718,3.015-6.731,6.73-6.731c3.719,0,6.732,3.019,6.732,6.731
	C1437.146,371.403,1434.132,374.418,1430.416,374.418z M1430.416,322.418c-3.719,0-6.73-3.017-6.73-6.731
	c0-3.718,3.015-6.731,6.73-6.731c3.719,0,6.732,3.019,6.732,6.731C1437.146,319.403,1434.132,322.418,1430.416,322.418z
	 M1430.416,270.419c-3.719,0-6.73-3.014-6.73-6.732s3.015-6.732,6.73-6.732c3.719,0,6.732,3.014,6.732,6.732
	S1434.132,270.419,1430.416,270.419z M1430.416,218.419c-3.719,0-6.73-3.014-6.73-6.732s3.015-6.732,6.73-6.732
	c3.719,0,6.732,3.014,6.732,6.732S1434.132,218.419,1430.416,218.419z M1430.416,166.419c-3.719,0-6.73-3.014-6.73-6.732
	s3.015-6.732,6.73-6.732c3.719,0,6.732,3.014,6.732,6.732S1434.132,166.419,1430.416,166.419z M1543.554,204.955
	c3.722,0,6.732,3.014,6.732,6.732s-3.015,6.732-6.732,6.732c-3.717,0-6.729-3.014-6.729-6.732S1539.835,204.955,1543.554,204.955z
	 M1486.986,374.418c-3.722,0-6.732-3.017-6.732-6.731c0-3.718,3.018-6.731,6.732-6.731c3.719,0,6.729,3.019,6.729,6.731
	C1493.716,371.403,1490.705,374.418,1486.986,374.418z M1486.986,322.418c-3.722,0-6.732-3.017-6.732-6.731
	c0-3.718,3.018-6.731,6.732-6.731c3.719,0,6.729,3.019,6.729,6.731C1493.716,319.403,1490.705,322.418,1486.986,322.418z
	 M1486.986,270.419c-3.722,0-6.732-3.014-6.732-6.732s3.018-6.732,6.732-6.732c3.719,0,6.729,3.014,6.729,6.732
	S1490.705,270.419,1486.986,270.419z M1486.986,218.419c-3.722,0-6.732-3.014-6.732-6.732s3.018-6.732,6.732-6.732
	c3.719,0,6.729,3.014,6.729,6.732S1490.705,218.419,1486.986,218.419z M1543.554,270.419c-3.719,0-6.729-3.014-6.729-6.732
	s3.014-6.732,6.729-6.732c3.72,0,6.732,3.014,6.732,6.732S1547.275,270.419,1543.554,270.419z"/>
</svg>
