<?xml version="1.0" encoding="utf-8"?>
<!-- Generator: Adobe Illustrator 16.0.0, SVG Export Plug-In . SVG Version: 6.00 Build 0)  -->
<!DOCTYPE svg PUBLIC "-//W3C//DTD SVG 1.1//EN" "http://www.w3.org/Graphics/SVG/1.1/DTD/svg11.dtd">
<svg version="1.1" id="Layer_1" xmlns="http://www.w3.org/2000/svg" xmlns:xlink="http://www.w3.org/1999/xlink" x="0px" y="0px"
	 width="1775.232px" height="1052.596px" viewBox="0 0 1775.232 1052.596" enable-background="new 0 0 1775.232 1052.596"
	 xml:space="preserve">
<path fill="none" stroke="#000000" stroke-linejoin="round" stroke-miterlimit="10" d="M1711.16,117.939
	c-3.014-4.775-7.303-8.566-10.676-13.073c-0.613-0.819-8.674-2.753-24.033-5.868c-22.488-4.56-44.992-8.839-67.619-12.868
	c-42.736-7.61-159.084-25.971-239.09-35.705c-32.441-3.947-82.822-10.078-97.262-12.35c-19.787-3.113-80.748-9.808-121.179-14.248
	l-119.063-13.075c-21.758-2.389-61.992-7.004-65.273-7.146c-8.569-0.37-21.362-0.924-25.633-2.189
	c-0.568-0.168-15.762-2.122-18.184-1.146l-10.636,4.224l-6.739,9.294l-7.099,22.395c-6.021,19.016-14.957,47.221-19.834,56.441
	c-12.071,22.826-22.521,46.524-35.778,68.71c-1.2,2.011-2.77,5.227-4.609,9.7l-37.542,1.29c-2.595,3.846-6.969,9.18-13.19,16.02
	c-22.688,24.873-34.682,37.991-36.006,39.513c-5.266,6.05-72.688,78.432-109.065,117.616c-30.953,33.34-60.308,64.493-87.913,93.427
	c-28.442,29.807-66.36,68.42-99.753,102.423c-34.72,35.352-68.911,71.213-103.903,106.291
	c-15.234,15.271-22.991,23.092-23.13,23.424c-1.148,2.516-1.438,6.08-0.959,10.637c0.765,7.256,2.212,21.004,1.122,21.848
	c-23.751,18.309-41.417,31.594-52.944,40.062c-17.804,13.086-35.047,26.924-53.014,39.789
	c-12.958,9.277-23.286,15.146-31.122,17.641c-7.818,2.562-28.161,3.455-61.166,2.715l-117.478-3.598l-6.284,1.582
	c-2.443,0.617-9.135,8.539-4.514,14.504c6.978,9.006,13.768,18.156,20.48,27.361c11.344,15.557,32.278,42.654,62.715,81.244
	c23.763,30.129,45.879,61.518,69.579,91.689c5.794,7.381,10.973,12.902,15.433,16.457c4.453,3.553,9.689,5.938,15.205,7.311
	c10.833,2.688,21.854,4.662,33.014,5.197c34.422,1.646,66.993,3.611,97.644,5.918c14.438,1.084,34.711,2.604,43.287-1.479
	c1.656-0.789,4.271-2.785,7.83-6.057c5.354-4.93,9.188-11.176,12.751-17.471c21.322-37.67,36-62.527,43.959-74.559
	c31.9-48.133,68.006-92.867,108.218-134.256c10.336-10.549,31.885-29.938,64.716-58.18c25.944-22.277,66.367-53.104,121.216-92.391
	c76.546-54.848,161.462-103.857,254.689-147.021c36.312-16.812,73.062-32.854,111.332-44.681
	c15.646-4.835,30.953-10.713,46.635-15.449c28.438-8.595,54.836-16.264,86.041-23.16c12.979-2.869,43.804-5.6,65.863-6.521
	l93.135-3.897l141.863,2.528c15.842,0.335,45.178,1.215,47.525,0.83c12.559-2.054,20.981-8.604,25.209-19.665l4.062-10.637
	c18.188-47.606,38.234-94.489,60.268-140.447c15.367-32.055,24.73-51.9,28.229-59.461c5.498-12.157,13.207-28.76,23.057-49.882
	C1712.771,134.007,1714.667,123.497,1711.16,117.939z M76.481,853.123c-3.718,0-6.731-3.014-6.731-6.732
	c0-3.718,3.014-6.729,6.731-6.729c3.719,0,6.732,3.014,6.732,6.729C83.213,850.109,80.201,853.123,76.481,853.123z M133.053,957.123
	c-3.718,0-6.731-3.014-6.731-6.732c0-3.718,3.014-6.729,6.731-6.729c3.719,0,6.732,3.014,6.732,6.729
	C139.785,954.109,136.771,957.123,133.053,957.123z M133.053,905.123c-3.718,0-6.731-3.014-6.731-6.732
	c0-3.718,3.014-6.729,6.731-6.729c3.719,0,6.732,3.014,6.732,6.729C139.785,902.109,136.771,905.123,133.053,905.123z
	 M133.053,853.123c-3.718,0-6.731-3.014-6.731-6.732c0-3.718,3.014-6.729,6.731-6.729c3.719,0,6.732,3.014,6.732,6.729
	C139.785,850.109,136.771,853.123,133.053,853.123z M189.623,1009.123c-3.718,0-6.731-3.014-6.731-6.732
	c0-3.718,3.014-6.729,6.731-6.729c3.719,0,6.732,3.014,6.732,6.729C196.354,1006.109,193.341,1009.123,189.623,1009.123z
	 M189.623,957.123c-3.718,0-6.731-3.014-6.731-6.732c0-3.718,3.014-6.729,6.731-6.729c3.719,0,6.732,3.014,6.732,6.729
	C196.354,954.109,193.341,957.123,189.623,957.123z M189.623,905.123c-3.718,0-6.731-3.014-6.731-6.732
	c0-3.718,3.014-6.729,6.731-6.729c3.719,0,6.732,3.014,6.732,6.729C196.354,902.109,193.341,905.123,189.623,905.123z
	 M189.623,853.123c-3.718,0-6.731-3.014-6.731-6.732c0-3.718,3.014-6.729,6.731-6.729c3.719,0,6.732,3.014,6.732,6.729
	C196.354,850.109,193.341,853.123,189.623,853.123z M246.192,1009.123c-3.718,0-6.731-3.014-6.731-6.732
	c0-3.718,3.014-6.729,6.731-6.729c3.719,0,6.732,3.014,6.732,6.729C252.924,1006.109,249.912,1009.123,246.192,1009.123z
	 M246.192,957.123c-3.718,0-6.731-3.014-6.731-6.732c0-3.718,3.014-6.729,6.731-6.729c3.719,0,6.732,3.014,6.732,6.729
	C252.924,954.109,249.912,957.123,246.192,957.123z M246.192,905.123c-3.718,0-6.731-3.014-6.731-6.732
	c0-3.718,3.014-6.729,6.731-6.729c3.719,0,6.732,3.014,6.732,6.729C252.924,902.109,249.912,905.123,246.192,905.123z
	 M246.192,853.123c-3.718,0-6.731-3.014-6.731-6.732c0-3.718,3.014-6.729,6.731-6.729c3.719,0,6.732,3.014,6.732,6.729
	C252.924,850.109,249.912,853.123,246.192,853.123z M246.192,801.123c-3.718,0-6.731-3.014-6.731-6.732
	c0-3.718,3.014-6.729,6.731-6.729c3.719,0,6.732,3.014,6.732,6.729C252.924,798.109,249.912,801.123,246.192,801.123z
	 M302.764,1009.123c-3.718,0-6.73-3.014-6.73-6.732c0-3.718,3.014-6.729,6.73-6.729c3.72,0,6.733,3.014,6.733,6.729
	C309.497,1006.109,306.483,1009.123,302.764,1009.123z M302.764,957.123c-3.718,0-6.73-3.014-6.73-6.732
	c0-3.718,3.014-6.729,6.73-6.729c3.72,0,6.733,3.014,6.733,6.729C309.497,954.109,306.483,957.123,302.764,957.123z
	 M302.764,905.123c-3.718,0-6.73-3.014-6.73-6.732c0-3.718,3.014-6.729,6.73-6.729c3.72,0,6.733,3.014,6.733,6.729
	C309.497,902.109,306.483,905.123,302.764,905.123z M302.764,853.123c-3.718,0-6.73-3.014-6.73-6.732
	c0-3.718,3.014-6.729,6.73-6.729c3.72,0,6.733,3.014,6.733,6.729C309.497,850.109,306.483,853.123,302.764,853.123z
	 M302.764,801.123c-3.718,0-6.73-3.014-6.73-6.732c0-3.718,3.014-6.729,6.73-6.729c3.72,0,6.733,3.014,6.733,6.729
	C309.497,798.109,306.483,801.123,302.764,801.123z M302.764,749.123c-3.718,0-6.73-3.014-6.73-6.732
	c0-3.717,3.014-6.729,6.73-6.729c3.72,0,6.733,3.016,6.733,6.729C309.497,746.109,306.483,749.123,302.764,749.123z
	 M359.333,1009.123c-3.719,0-6.732-3.014-6.732-6.732c0-3.718,3.017-6.729,6.732-6.729s6.732,3.014,6.732,6.729
	C366.066,1006.109,363.052,1009.123,359.333,1009.123z M359.333,957.123c-3.719,0-6.732-3.014-6.732-6.732
	c0-3.718,3.017-6.729,6.732-6.729s6.732,3.014,6.732,6.729C366.066,954.109,363.052,957.123,359.333,957.123z M359.333,905.123
	c-3.719,0-6.732-3.014-6.732-6.732c0-3.718,3.017-6.729,6.732-6.729s6.732,3.014,6.732,6.729
	C366.066,902.109,363.052,905.123,359.333,905.123z M359.333,853.123c-3.719,0-6.732-3.014-6.732-6.732
	c0-3.718,3.017-6.729,6.732-6.729s6.732,3.014,6.732,6.729C366.066,850.109,363.052,853.123,359.333,853.123z M359.333,801.123
	c-3.719,0-6.732-3.014-6.732-6.732c0-3.718,3.017-6.729,6.732-6.729s6.732,3.014,6.732,6.729
	C366.066,798.109,363.052,801.123,359.333,801.123z M359.333,749.123c-3.719,0-6.732-3.014-6.732-6.732
	c0-3.717,3.017-6.729,6.732-6.729s6.732,3.016,6.732,6.729C366.067,746.109,363.052,749.123,359.333,749.123z M359.333,697.123
	c-3.719,0-6.732-3.014-6.732-6.732c0-3.717,3.017-6.729,6.732-6.729s6.732,3.016,6.732,6.729
	C366.067,694.109,363.052,697.123,359.333,697.123z M415.905,905.123c-3.723,0-6.732-3.014-6.732-6.732
	c0-3.718,3.018-6.729,6.732-6.729s6.729,3.014,6.729,6.729C422.636,902.109,419.624,905.123,415.905,905.123z M415.905,853.123
	c-3.723,0-6.732-3.014-6.732-6.732c0-3.718,3.018-6.729,6.732-6.729s6.729,3.014,6.729,6.729
	C422.636,850.109,419.624,853.123,415.905,853.123z M415.905,801.123c-3.723,0-6.732-3.014-6.732-6.732
	c0-3.718,3.018-6.729,6.732-6.729s6.729,3.014,6.729,6.729C422.636,798.109,419.624,801.123,415.905,801.123z M415.905,749.123
	c-3.723,0-6.732-3.014-6.732-6.732c0-3.717,3.018-6.729,6.732-6.729s6.729,3.016,6.729,6.729
	C422.636,746.109,419.624,749.123,415.905,749.123z M415.905,697.123c-3.723,0-6.732-3.014-6.732-6.732
	c0-3.717,3.018-6.729,6.732-6.729s6.729,3.016,6.729,6.729C422.636,694.109,419.624,697.123,415.905,697.123z M415.905,645.123
	c-3.723,0-6.732-3.014-6.732-6.732c0-3.717,3.018-6.729,6.732-6.729s6.729,3.016,6.729,6.729
	C422.636,642.109,419.624,645.123,415.905,645.123z M472.474,853.123c-3.719,0-6.729-3.014-6.729-6.732
	c0-3.718,3.014-6.729,6.729-6.729c3.722,0,6.732,3.014,6.732,6.729C479.207,850.109,476.194,853.123,472.474,853.123z
	 M472.474,801.123c-3.719,0-6.729-3.014-6.729-6.732c0-3.718,3.014-6.729,6.729-6.729c3.722,0,6.732,3.014,6.732,6.729
	C479.207,798.109,476.194,801.123,472.474,801.123z M472.474,749.123c-3.719,0-6.729-3.014-6.729-6.732
	c0-3.717,3.014-6.729,6.729-6.729c3.722,0,6.732,3.016,6.732,6.729C479.208,746.109,476.194,749.123,472.474,749.123z
	 M472.474,697.123c-3.719,0-6.729-3.014-6.729-6.732c0-3.717,3.014-6.729,6.729-6.729c3.722,0,6.732,3.016,6.732,6.729
	C479.208,694.109,476.194,697.123,472.474,697.123z M472.474,645.123c-3.719,0-6.729-3.014-6.729-6.732
	c0-3.717,3.014-6.729,6.729-6.729c3.722,0,6.732,3.016,6.732,6.729C479.208,642.109,476.194,645.123,472.474,645.123z
	 M472.474,593.123c-3.719,0-6.729-3.014-6.729-6.732c0-3.717,3.014-6.729,6.729-6.729c3.722,0,6.732,3.016,6.732,6.729
	C479.208,590.109,476.194,593.123,472.474,593.123z M529.044,801.123c-3.719,0-6.731-3.014-6.731-6.732
	c0-3.718,3.017-6.729,6.731-6.729s6.732,3.014,6.732,6.729C535.777,798.109,532.763,801.123,529.044,801.123z M529.044,749.123
	c-3.719,0-6.731-3.014-6.731-6.732c0-3.717,3.017-6.729,6.731-6.729s6.732,3.016,6.732,6.729
	C535.778,746.109,532.763,749.123,529.044,749.123z M529.044,697.123c-3.719,0-6.731-3.014-6.731-6.732
	c0-3.717,3.017-6.729,6.731-6.729s6.732,3.016,6.732,6.729C535.778,694.109,532.763,697.123,529.044,697.123z M529.044,645.123
	c-3.719,0-6.731-3.014-6.731-6.732c0-3.717,3.017-6.729,6.731-6.729s6.732,3.016,6.732,6.729
	C535.778,642.109,532.763,645.123,529.044,645.123z M529.044,593.123c-3.719,0-6.731-3.014-6.731-6.732
	c0-3.717,3.017-6.729,6.731-6.729s6.732,3.016,6.732,6.729C535.778,590.109,532.763,593.123,529.044,593.123z M529.044,541.123
	c-3.719,0-6.731-3.014-6.731-6.732c0-3.717,3.017-6.729,6.731-6.729s6.732,3.015,6.732,6.729
	C535.778,538.109,532.763,541.123,529.044,541.123z M585.616,749.123c-3.719,0-6.732-3.014-6.732-6.732
	c0-3.717,3.018-6.729,6.732-6.729s6.729,3.016,6.729,6.729C592.347,746.109,589.333,749.123,585.616,749.123z M585.616,697.123
	c-3.719,0-6.732-3.014-6.732-6.732c0-3.717,3.018-6.729,6.732-6.729s6.729,3.016,6.729,6.729
	C592.347,694.109,589.333,697.123,585.616,697.123z M585.616,645.123c-3.719,0-6.732-3.014-6.732-6.732
	c0-3.717,3.018-6.729,6.732-6.729s6.729,3.016,6.729,6.729C592.347,642.109,589.333,645.123,585.616,645.123z M585.616,593.123
	c-3.719,0-6.732-3.014-6.732-6.732c0-3.717,3.018-6.729,6.732-6.729s6.729,3.016,6.729,6.729
	C592.347,590.109,589.333,593.123,585.616,593.123z M585.616,541.123c-3.719,0-6.732-3.014-6.732-6.732
	c0-3.717,3.018-6.729,6.732-6.729s6.729,3.015,6.729,6.729C592.347,538.109,589.333,541.123,585.616,541.123z M585.616,489.124
	c-3.719,0-6.732-3.014-6.732-6.732c0-3.718,3.018-6.729,6.732-6.729s6.729,3.014,6.729,6.729
	C592.347,486.11,589.333,489.124,585.616,489.124z M642.185,697.123c-3.719,0-6.729-3.014-6.729-6.732
	c0-3.717,3.014-6.729,6.729-6.729c3.722,0,6.732,3.016,6.732,6.729C648.917,694.109,645.905,697.123,642.185,697.123z
	 M642.185,645.123c-3.719,0-6.729-3.014-6.729-6.732c0-3.717,3.014-6.729,6.729-6.729c3.722,0,6.732,3.016,6.732,6.729
	C648.917,642.109,645.905,645.123,642.185,645.123z M642.185,593.123c-3.719,0-6.729-3.014-6.729-6.732
	c0-3.717,3.014-6.729,6.729-6.729c3.722,0,6.732,3.016,6.732,6.729C648.917,590.109,645.905,593.123,642.185,593.123z
	 M642.185,541.123c-3.719,0-6.729-3.014-6.729-6.732c0-3.717,3.014-6.729,6.729-6.729c3.722,0,6.732,3.015,6.732,6.729
	C648.917,538.109,645.905,541.123,642.185,541.123z M642.185,489.124c-3.719,0-6.729-3.014-6.729-6.732
	c0-3.718,3.014-6.729,6.729-6.729c3.722,0,6.732,3.014,6.732,6.729C648.917,486.11,645.905,489.124,642.185,489.124z
	 M642.185,437.124c-3.719,0-6.729-3.014-6.729-6.732c0-3.718,3.014-6.729,6.729-6.729c3.722,0,6.732,3.014,6.732,6.729
	C648.917,434.11,645.905,437.124,642.185,437.124z M642.185,385.124c-3.719,0-6.729-3.014-6.729-6.732
	c0-3.718,3.014-6.731,6.729-6.731c3.722,0,6.732,3.014,6.732,6.731C648.917,382.109,645.905,385.124,642.185,385.124z
	 M698.755,645.123c-3.719,0-6.729-3.014-6.729-6.732c0-3.717,3.014-6.729,6.729-6.729s6.732,3.016,6.732,6.729
	C705.489,642.109,702.474,645.123,698.755,645.123z M698.755,593.123c-3.719,0-6.729-3.014-6.729-6.732
	c0-3.717,3.014-6.729,6.729-6.729s6.732,3.016,6.732,6.729C705.489,590.109,702.474,593.123,698.755,593.123z M698.755,541.123
	c-3.719,0-6.729-3.014-6.729-6.732c0-3.717,3.014-6.729,6.729-6.729s6.732,3.015,6.732,6.729
	C705.489,538.109,702.474,541.123,698.755,541.123z M698.755,489.124c-3.719,0-6.729-3.014-6.729-6.732
	c0-3.718,3.014-6.729,6.729-6.729s6.732,3.014,6.732,6.729C705.488,486.11,702.474,489.124,698.755,489.124z M698.755,437.124
	c-3.719,0-6.729-3.014-6.729-6.732c0-3.718,3.014-6.729,6.729-6.729s6.732,3.014,6.732,6.729
	C705.488,434.11,702.474,437.124,698.755,437.124z M698.755,385.124c-3.719,0-6.729-3.014-6.729-6.732
	c0-3.718,3.014-6.731,6.729-6.731s6.732,3.014,6.732,6.731C705.488,382.109,702.474,385.124,698.755,385.124z M698.755,333.124
	c-3.719,0-6.729-3.014-6.729-6.732c0-3.718,3.014-6.731,6.729-6.731s6.732,3.014,6.732,6.731
	C705.488,330.109,702.474,333.124,698.755,333.124z M755.327,593.123c-3.719,0-6.732-3.014-6.732-6.732
	c0-3.717,3.018-6.729,6.732-6.729s6.729,3.016,6.729,6.729C762.058,590.109,759.044,593.123,755.327,593.123z M755.327,541.123
	c-3.719,0-6.732-3.014-6.732-6.732c0-3.717,3.018-6.729,6.732-6.729s6.729,3.015,6.729,6.729
	C762.058,538.109,759.044,541.123,755.327,541.123z M755.327,489.124c-3.719,0-6.732-3.014-6.732-6.732
	c0-3.718,3.018-6.729,6.732-6.729s6.729,3.014,6.729,6.729C762.058,486.11,759.044,489.124,755.327,489.124z M755.327,437.124
	c-3.719,0-6.732-3.014-6.732-6.732c0-3.718,3.018-6.729,6.732-6.729s6.729,3.014,6.729,6.729
	C762.058,434.11,759.044,437.124,755.327,437.124z M755.327,385.124c-3.719,0-6.732-3.014-6.732-6.732
	c0-3.718,3.018-6.731,6.732-6.731s6.729,3.014,6.729,6.731C762.058,382.109,759.044,385.124,755.327,385.124z M755.327,333.124
	c-3.719,0-6.732-3.014-6.732-6.732c0-3.718,3.018-6.731,6.732-6.731s6.729,3.014,6.729,6.731
	C762.058,330.109,759.044,333.124,755.327,333.124z M755.327,281.124c-3.719,0-6.732-3.014-6.732-6.732
	c0-3.718,3.018-6.732,6.732-6.732s6.729,3.014,6.729,6.732C762.058,278.109,759.044,281.124,755.327,281.124z M811.896,541.123
	c-3.722,0-6.731-3.014-6.731-6.732c0-3.717,3.014-6.729,6.731-6.729c3.719,0,6.729,3.015,6.729,6.729
	C818.628,538.109,815.616,541.123,811.896,541.123z M811.896,489.124c-3.722,0-6.731-3.014-6.731-6.732
	c0-3.718,3.014-6.729,6.731-6.729c3.719,0,6.729,3.014,6.729,6.729C818.628,486.11,815.616,489.124,811.896,489.124z
	 M811.896,437.124c-3.722,0-6.731-3.014-6.731-6.732c0-3.718,3.014-6.729,6.731-6.729c3.719,0,6.729,3.014,6.729,6.729
	C818.628,434.11,815.616,437.124,811.896,437.124z M811.896,385.124c-3.722,0-6.731-3.014-6.731-6.732
	c0-3.718,3.014-6.731,6.731-6.731c3.719,0,6.729,3.014,6.729,6.731C818.628,382.109,815.616,385.124,811.896,385.124z
	 M811.896,333.124c-3.722,0-6.731-3.014-6.731-6.732c0-3.718,3.014-6.731,6.731-6.731c3.719,0,6.729,3.014,6.729,6.731
	C818.628,330.109,815.616,333.124,811.896,333.124z M811.896,281.124c-3.722,0-6.731-3.014-6.731-6.732
	c0-3.718,3.014-6.732,6.731-6.732c3.719,0,6.729,3.014,6.729,6.732C818.628,278.109,815.616,281.124,811.896,281.124z
	 M811.896,229.124c-3.722,0-6.731-3.014-6.731-6.732c0-3.718,3.014-6.732,6.731-6.732c3.719,0,6.729,3.014,6.729,6.732
	C818.628,226.109,815.616,229.124,811.896,229.124z M868.465,541.123c-3.719,0-6.729-3.014-6.729-6.732
	c0-3.717,3.014-6.729,6.729-6.729c3.719,0,6.732,3.015,6.732,6.729C875.199,538.109,872.184,541.123,868.465,541.123z
	 M868.465,489.124c-3.719,0-6.729-3.014-6.729-6.732c0-3.718,3.014-6.729,6.729-6.729c3.719,0,6.732,3.014,6.732,6.729
	C875.199,486.11,872.184,489.124,868.465,489.124z M868.465,437.124c-3.719,0-6.729-3.014-6.729-6.732
	c0-3.718,3.014-6.729,6.729-6.729c3.719,0,6.732,3.014,6.732,6.729C875.199,434.11,872.184,437.124,868.465,437.124z
	 M868.465,385.124c-3.719,0-6.729-3.014-6.729-6.732c0-3.718,3.014-6.731,6.729-6.731c3.719,0,6.732,3.014,6.732,6.731
	C875.199,382.109,872.184,385.124,868.465,385.124z M868.465,333.124c-3.719,0-6.729-3.014-6.729-6.732
	c0-3.718,3.014-6.731,6.729-6.731c3.719,0,6.732,3.014,6.732,6.731C875.199,330.109,872.184,333.124,868.465,333.124z
	 M868.465,281.124c-3.719,0-6.729-3.014-6.729-6.732c0-3.718,3.014-6.732,6.729-6.732c3.719,0,6.732,3.014,6.732,6.732
	C875.199,278.109,872.184,281.124,868.465,281.124z M868.465,229.124c-3.719,0-6.729-3.014-6.729-6.732
	c0-3.718,3.014-6.732,6.729-6.732c3.719,0,6.732,3.014,6.732,6.732C875.199,226.109,872.184,229.124,868.465,229.124z
	 M868.465,177.124c-3.719,0-6.729-3.014-6.729-6.732c0-3.718,3.014-6.732,6.729-6.732c3.719,0,6.732,3.014,6.732,6.732
	C875.199,174.109,872.184,177.124,868.465,177.124z M925.037,489.124c-3.719,0-6.732-3.014-6.732-6.732
	c0-3.718,3.019-6.729,6.732-6.729c3.719,0,6.729,3.014,6.729,6.729C931.768,486.11,928.754,489.124,925.037,489.124z
	 M925.037,437.124c-3.719,0-6.732-3.014-6.732-6.732c0-3.718,3.019-6.729,6.732-6.729c3.719,0,6.729,3.014,6.729,6.729
	C931.768,434.11,928.754,437.124,925.037,437.124z M925.037,385.124c-3.719,0-6.732-3.014-6.732-6.732
	c0-3.718,3.019-6.731,6.732-6.731c3.719,0,6.729,3.014,6.729,6.731C931.768,382.109,928.754,385.124,925.037,385.124z
	 M925.037,333.124c-3.719,0-6.732-3.014-6.732-6.732c0-3.718,3.019-6.731,6.732-6.731c3.719,0,6.729,3.014,6.729,6.731
	C931.768,330.109,928.754,333.124,925.037,333.124z M925.037,281.124c-3.719,0-6.732-3.014-6.732-6.732
	c0-3.718,3.019-6.732,6.732-6.732c3.719,0,6.729,3.014,6.729,6.732C931.768,278.109,928.754,281.124,925.037,281.124z
	 M925.037,229.124c-3.719,0-6.732-3.014-6.732-6.732c0-3.718,3.019-6.732,6.732-6.732c3.719,0,6.729,3.014,6.729,6.732
	C931.768,226.109,928.754,229.124,925.037,229.124z M925.037,177.124c-3.719,0-6.732-3.014-6.732-6.732
	c0-3.718,3.019-6.732,6.732-6.732c3.719,0,6.729,3.014,6.729,6.732C931.768,174.109,928.754,177.124,925.037,177.124z
	 M925.037,125.124c-3.719,0-6.732-3.014-6.732-6.732c0-3.718,3.019-6.732,6.732-6.732c3.719,0,6.729,3.014,6.729,6.732
	C931.768,122.109,928.754,125.124,925.037,125.124z M925.037,73.124c-3.719,0-6.732-3.014-6.732-6.732
	c0-3.718,3.019-6.732,6.732-6.732c3.719,0,6.729,3.014,6.729,6.732C931.768,70.109,928.754,73.124,925.037,73.124z M981.607,489.124
	c-3.722,0-6.732-3.014-6.732-6.732c0-3.718,3.014-6.729,6.732-6.729c3.718,0,6.729,3.014,6.729,6.729
	C988.338,486.11,985.326,489.124,981.607,489.124z M981.607,437.124c-3.722,0-6.732-3.014-6.732-6.732
	c0-3.718,3.014-6.729,6.732-6.729c3.718,0,6.729,3.014,6.729,6.729C988.338,434.11,985.326,437.124,981.607,437.124z
	 M981.607,385.124c-3.722,0-6.732-3.014-6.732-6.732c0-3.718,3.014-6.731,6.732-6.731c3.718,0,6.729,3.014,6.729,6.731
	C988.338,382.109,985.326,385.124,981.607,385.124z M981.607,333.124c-3.722,0-6.732-3.014-6.732-6.732
	c0-3.718,3.014-6.731,6.732-6.731c3.718,0,6.729,3.014,6.729,6.731C988.338,330.109,985.326,333.124,981.607,333.124z
	 M981.607,281.124c-3.722,0-6.732-3.014-6.732-6.732c0-3.718,3.014-6.732,6.732-6.732c3.718,0,6.729,3.014,6.729,6.732
	C988.338,278.109,985.326,281.124,981.607,281.124z M981.607,229.124c-3.722,0-6.732-3.014-6.732-6.732
	c0-3.718,3.014-6.732,6.732-6.732c3.718,0,6.729,3.014,6.729,6.732C988.338,226.109,985.326,229.124,981.607,229.124z
	 M981.607,177.124c-3.722,0-6.732-3.014-6.732-6.732c0-3.718,3.014-6.732,6.732-6.732c3.718,0,6.729,3.014,6.729,6.732
	C988.338,174.109,985.326,177.124,981.607,177.124z M981.607,125.124c-3.722,0-6.732-3.014-6.732-6.732
	c0-3.718,3.014-6.732,6.732-6.732c3.718,0,6.729,3.014,6.729,6.732C988.338,122.109,985.326,125.124,981.607,125.124z
	 M981.607,73.124c-3.722,0-6.732-3.014-6.732-6.732c0-3.718,3.014-6.732,6.732-6.732c3.718,0,6.729,3.014,6.729,6.732
	C988.338,70.109,985.326,73.124,981.607,73.124z M1038.176,437.124c-3.719,0-6.729-3.014-6.729-6.732
	c0-3.718,3.014-6.729,6.729-6.729c3.721,0,6.732,3.014,6.732,6.729C1044.91,434.11,1041.896,437.124,1038.176,437.124z
	 M1038.176,385.124c-3.719,0-6.729-3.014-6.729-6.732c0-3.718,3.014-6.731,6.729-6.731c3.721,0,6.732,3.014,6.732,6.731
	C1044.91,382.109,1041.896,385.124,1038.176,385.124z M1038.176,333.124c-3.719,0-6.729-3.014-6.729-6.732
	c0-3.718,3.014-6.731,6.729-6.731c3.721,0,6.732,3.014,6.732,6.731C1044.91,330.109,1041.896,333.124,1038.176,333.124z
	 M1038.176,281.124c-3.719,0-6.729-3.014-6.729-6.732c0-3.718,3.014-6.732,6.729-6.732c3.721,0,6.732,3.014,6.732,6.732
	C1044.91,278.109,1041.896,281.124,1038.176,281.124z M1038.176,229.124c-3.719,0-6.729-3.014-6.729-6.732
	c0-3.718,3.014-6.732,6.729-6.732c3.721,0,6.732,3.014,6.732,6.732C1044.91,226.109,1041.896,229.124,1038.176,229.124z
	 M1038.176,177.124c-3.719,0-6.729-3.014-6.729-6.732c0-3.718,3.014-6.732,6.729-6.732c3.721,0,6.732,3.014,6.732,6.732
	C1044.91,174.109,1041.896,177.124,1038.176,177.124z M1038.176,125.124c-3.719,0-6.729-3.014-6.729-6.732
	c0-3.718,3.014-6.732,6.729-6.732c3.721,0,6.732,3.014,6.732,6.732C1044.91,122.109,1041.896,125.124,1038.176,125.124z
	 M1038.176,73.124c-3.719,0-6.729-3.014-6.729-6.732c0-3.718,3.014-6.732,6.729-6.732c3.721,0,6.732,3.014,6.732,6.732
	C1044.91,70.109,1041.896,73.124,1038.176,73.124z M1094.748,437.124c-3.719,0-6.732-3.014-6.732-6.732
	c0-3.718,3.019-6.729,6.732-6.729c3.719,0,6.732,3.014,6.732,6.729C1101.48,434.11,1098.465,437.124,1094.748,437.124z
	 M1094.748,385.124c-3.719,0-6.732-3.014-6.732-6.732c0-3.718,3.019-6.731,6.732-6.731c3.719,0,6.732,3.014,6.732,6.731
	C1101.48,382.109,1098.465,385.124,1094.748,385.124z M1094.748,333.124c-3.719,0-6.732-3.014-6.732-6.732
	c0-3.718,3.019-6.731,6.732-6.731c3.719,0,6.732,3.014,6.732,6.731C1101.48,330.109,1098.465,333.124,1094.748,333.124z
	 M1094.748,281.124c-3.719,0-6.732-3.014-6.732-6.732c0-3.718,3.019-6.732,6.732-6.732c3.719,0,6.732,3.014,6.732,6.732
	C1101.48,278.109,1098.465,281.124,1094.748,281.124z M1094.748,229.124c-3.719,0-6.732-3.014-6.732-6.732
	c0-3.718,3.019-6.732,6.732-6.732c3.719,0,6.732,3.014,6.732,6.732C1101.48,226.109,1098.465,229.124,1094.748,229.124z
	 M1094.748,177.124c-3.719,0-6.732-3.014-6.732-6.732c0-3.718,3.019-6.732,6.732-6.732c3.719,0,6.732,3.014,6.732,6.732
	C1101.48,174.109,1098.465,177.124,1094.748,177.124z M1094.748,125.124c-3.719,0-6.732-3.014-6.732-6.732
	c0-3.718,3.019-6.732,6.732-6.732c3.719,0,6.732,3.014,6.732,6.732C1101.48,122.109,1098.465,125.124,1094.748,125.124z
	 M1094.748,73.124c-3.719,0-6.732-3.014-6.732-6.732c0-3.718,3.019-6.732,6.732-6.732c3.719,0,6.732,3.014,6.732,6.732
	C1101.48,70.109,1098.465,73.124,1094.748,73.124z M1151.318,437.124c-3.722,0-6.732-3.014-6.732-6.732
	c0-3.718,3.014-6.729,6.732-6.729c3.718,0,6.729,3.014,6.729,6.729C1158.049,434.11,1155.037,437.124,1151.318,437.124z
	 M1151.318,385.124c-3.722,0-6.732-3.014-6.732-6.732c0-3.718,3.014-6.731,6.732-6.731c3.718,0,6.729,3.014,6.729,6.731
	C1158.049,382.109,1155.037,385.124,1151.318,385.124z M1151.318,333.124c-3.722,0-6.732-3.014-6.732-6.732
	c0-3.718,3.014-6.731,6.732-6.731c3.718,0,6.729,3.014,6.729,6.731C1158.049,330.109,1155.037,333.124,1151.318,333.124z
	 M1151.318,281.124c-3.722,0-6.732-3.014-6.732-6.732c0-3.718,3.014-6.732,6.732-6.732c3.718,0,6.729,3.014,6.729,6.732
	C1158.049,278.109,1155.037,281.124,1151.318,281.124z M1151.318,229.124c-3.722,0-6.732-3.014-6.732-6.732
	c0-3.718,3.014-6.732,6.732-6.732c3.718,0,6.729,3.014,6.729,6.732C1158.049,226.109,1155.037,229.124,1151.318,229.124z
	 M1151.318,177.124c-3.722,0-6.732-3.014-6.732-6.732c0-3.718,3.014-6.732,6.732-6.732c3.718,0,6.729,3.014,6.729,6.732
	C1158.049,174.109,1155.037,177.124,1151.318,177.124z M1151.318,125.124c-3.722,0-6.732-3.014-6.732-6.732
	c0-3.718,3.014-6.732,6.732-6.732c3.718,0,6.729,3.014,6.729,6.732C1158.049,122.109,1155.037,125.124,1151.318,125.124z
	 M1151.318,73.124c-3.722,0-6.732-3.014-6.732-6.732c0-3.718,3.014-6.732,6.732-6.732c3.718,0,6.729,3.014,6.729,6.732
	C1158.049,70.109,1155.037,73.124,1151.318,73.124z M1207.887,385.124c-3.719,0-6.729-3.014-6.729-6.732
	c0-3.718,3.014-6.731,6.729-6.731c3.721,0,6.732,3.014,6.732,6.731C1214.621,382.109,1211.607,385.124,1207.887,385.124z
	 M1207.887,333.124c-3.719,0-6.729-3.014-6.729-6.732c0-3.718,3.014-6.731,6.729-6.731c3.721,0,6.732,3.014,6.732,6.731
	C1214.621,330.109,1211.607,333.124,1207.887,333.124z M1207.887,281.124c-3.719,0-6.729-3.014-6.729-6.732
	c0-3.718,3.014-6.732,6.729-6.732c3.721,0,6.732,3.014,6.732,6.732C1214.621,278.109,1211.607,281.124,1207.887,281.124z
	 M1207.887,229.124c-3.719,0-6.729-3.014-6.729-6.732c0-3.718,3.014-6.732,6.729-6.732c3.721,0,6.732,3.014,6.732,6.732
	C1214.621,226.109,1211.607,229.124,1207.887,229.124z M1207.887,177.124c-3.719,0-6.729-3.014-6.729-6.732
	c0-3.718,3.014-6.732,6.729-6.732c3.721,0,6.732,3.014,6.732,6.732C1214.621,174.109,1211.607,177.124,1207.887,177.124z
	 M1207.887,125.124c-3.719,0-6.729-3.014-6.729-6.732c0-3.718,3.014-6.732,6.729-6.732c3.721,0,6.732,3.014,6.732,6.732
	C1214.621,122.109,1211.607,125.124,1207.887,125.124z M1207.887,73.124c-3.719,0-6.729-3.014-6.729-6.732
	c0-3.718,3.014-6.732,6.729-6.732c3.721,0,6.732,3.014,6.732,6.732C1214.621,70.109,1211.607,73.124,1207.887,73.124z
	 M1264.458,385.124c-3.719,0-6.732-3.014-6.732-6.732c0-3.718,3.019-6.731,6.732-6.731c3.719,0,6.732,3.014,6.732,6.731
	C1271.191,382.109,1268.176,385.124,1264.458,385.124z M1264.458,333.124c-3.719,0-6.732-3.014-6.732-6.732
	c0-3.718,3.019-6.731,6.732-6.731c3.719,0,6.732,3.014,6.732,6.731C1271.191,330.109,1268.176,333.124,1264.458,333.124z
	 M1264.458,281.124c-3.719,0-6.732-3.014-6.732-6.732c0-3.718,3.019-6.732,6.732-6.732c3.719,0,6.732,3.014,6.732,6.732
	C1271.191,278.109,1268.176,281.124,1264.458,281.124z M1264.458,229.124c-3.719,0-6.732-3.014-6.732-6.732
	c0-3.718,3.019-6.732,6.732-6.732c3.719,0,6.732,3.014,6.732,6.732C1271.191,226.109,1268.176,229.124,1264.458,229.124z
	 M1264.458,177.124c-3.719,0-6.732-3.014-6.732-6.732c0-3.718,3.019-6.732,6.732-6.732c3.719,0,6.732,3.014,6.732,6.732
	C1271.191,174.109,1268.176,177.124,1264.458,177.124z M1264.458,125.124c-3.719,0-6.732-3.014-6.732-6.732
	c0-3.718,3.019-6.732,6.732-6.732c3.719,0,6.732,3.014,6.732,6.732C1271.191,122.109,1268.176,125.124,1264.458,125.124z
	 M1264.458,73.124c-3.719,0-6.732-3.014-6.732-6.732c0-3.718,3.019-6.732,6.732-6.732c3.719,0,6.732,3.014,6.732,6.732
	C1271.191,70.109,1268.176,73.124,1264.458,73.124z M1321.029,385.124c-3.719,0-6.732-3.014-6.732-6.732
	c0-3.718,3.014-6.731,6.732-6.731c3.718,0,6.729,3.014,6.729,6.731C1327.76,382.109,1324.748,385.124,1321.029,385.124z
	 M1321.029,333.124c-3.719,0-6.732-3.014-6.732-6.732c0-3.718,3.014-6.731,6.732-6.731c3.718,0,6.729,3.014,6.729,6.731
	C1327.76,330.109,1324.748,333.124,1321.029,333.124z M1321.029,281.124c-3.719,0-6.732-3.014-6.732-6.732
	c0-3.718,3.014-6.732,6.732-6.732c3.718,0,6.729,3.014,6.729,6.732C1327.76,278.109,1324.748,281.124,1321.029,281.124z
	 M1321.029,229.124c-3.719,0-6.732-3.014-6.732-6.732c0-3.718,3.014-6.732,6.732-6.732c3.718,0,6.729,3.014,6.729,6.732
	C1327.76,226.109,1324.748,229.124,1321.029,229.124z M1321.029,177.124c-3.719,0-6.732-3.014-6.732-6.732
	c0-3.718,3.014-6.732,6.732-6.732c3.718,0,6.729,3.014,6.729,6.732C1327.76,174.109,1324.748,177.124,1321.029,177.124z
	 M1321.029,125.124c-3.719,0-6.732-3.014-6.732-6.732c0-3.718,3.014-6.732,6.732-6.732c3.718,0,6.729,3.014,6.729,6.732
	C1327.76,122.109,1324.748,125.124,1321.029,125.124z M1321.029,73.124c-3.719,0-6.732-3.014-6.732-6.732
	c0-3.718,3.014-6.732,6.732-6.732c3.718,0,6.729,3.014,6.729,6.732C1327.76,70.109,1324.748,73.124,1321.029,73.124z
	 M1377.598,385.124c-3.719,0-6.729-3.014-6.729-6.732c0-3.718,3.014-6.731,6.729-6.731c3.722,0,6.732,3.014,6.732,6.731
	C1384.332,382.109,1381.318,385.124,1377.598,385.124z M1377.598,333.124c-3.719,0-6.729-3.014-6.729-6.732
	c0-3.718,3.014-6.731,6.729-6.731c3.722,0,6.732,3.014,6.732,6.731C1384.332,330.109,1381.318,333.124,1377.598,333.124z
	 M1377.598,281.124c-3.719,0-6.729-3.014-6.729-6.732c0-3.718,3.014-6.732,6.729-6.732c3.722,0,6.732,3.014,6.732,6.732
	C1384.332,278.109,1381.318,281.124,1377.598,281.124z M1377.598,229.124c-3.719,0-6.729-3.014-6.729-6.732
	c0-3.718,3.014-6.732,6.729-6.732c3.722,0,6.732,3.014,6.732,6.732C1384.332,226.109,1381.318,229.124,1377.598,229.124z
	 M1377.598,177.124c-3.719,0-6.729-3.014-6.729-6.732c0-3.718,3.014-6.732,6.729-6.732c3.722,0,6.732,3.014,6.732,6.732
	C1384.332,174.109,1381.318,177.124,1377.598,177.124z M1377.598,125.124c-3.719,0-6.729-3.014-6.729-6.732
	c0-3.718,3.014-6.732,6.729-6.732c3.722,0,6.732,3.014,6.732,6.732C1384.332,122.109,1381.318,125.124,1377.598,125.124z
	 M1377.598,73.124c-3.719,0-6.729-3.014-6.729-6.732c0-3.718,3.014-6.732,6.729-6.732c3.722,0,6.732,3.014,6.732,6.732
	C1384.332,70.109,1381.318,73.124,1377.598,73.124z M1434.168,385.124c-3.719,0-6.732-3.014-6.732-6.732
	c0-3.718,3.019-6.731,6.732-6.731c3.719,0,6.732,3.014,6.732,6.731C1440.902,382.109,1437.887,385.124,1434.168,385.124z
	 M1434.168,333.124c-3.719,0-6.732-3.014-6.732-6.732c0-3.718,3.019-6.731,6.732-6.731c3.719,0,6.732,3.014,6.732,6.731
	C1440.902,330.109,1437.887,333.124,1434.168,333.124z M1434.168,281.124c-3.719,0-6.732-3.014-6.732-6.732
	c0-3.718,3.019-6.732,6.732-6.732c3.719,0,6.732,3.014,6.732,6.732C1440.902,278.109,1437.887,281.124,1434.168,281.124z
	 M1434.168,229.124c-3.719,0-6.732-3.014-6.732-6.732c0-3.718,3.019-6.732,6.732-6.732c3.719,0,6.732,3.014,6.732,6.732
	C1440.902,226.109,1437.887,229.124,1434.168,229.124z M1434.168,177.124c-3.719,0-6.732-3.014-6.732-6.732
	c0-3.718,3.019-6.732,6.732-6.732c3.719,0,6.732,3.014,6.732,6.732C1440.902,174.109,1437.887,177.124,1434.168,177.124z
	 M1434.168,125.124c-3.719,0-6.732-3.014-6.732-6.732c0-3.718,3.019-6.732,6.732-6.732c3.719,0,6.732,3.014,6.732,6.732
	C1440.902,122.109,1437.887,125.124,1434.168,125.124z M1490.74,385.124c-3.719,0-6.732-3.014-6.732-6.732
	c0-3.718,3.014-6.731,6.732-6.731c3.718,0,6.729,3.014,6.729,6.731C1497.471,382.109,1494.458,385.124,1490.74,385.124z
	 M1490.74,333.124c-3.719,0-6.732-3.014-6.732-6.732c0-3.718,3.014-6.731,6.732-6.731c3.718,0,6.729,3.014,6.729,6.731
	C1497.471,330.109,1494.458,333.124,1490.74,333.124z M1490.74,281.124c-3.719,0-6.732-3.014-6.732-6.732
	c0-3.718,3.014-6.732,6.732-6.732c3.718,0,6.729,3.014,6.729,6.732C1497.471,278.109,1494.458,281.124,1490.74,281.124z
	 M1490.74,229.124c-3.719,0-6.732-3.014-6.732-6.732c0-3.718,3.014-6.732,6.732-6.732c3.718,0,6.729,3.014,6.729,6.732
	C1497.471,226.109,1494.458,229.124,1490.74,229.124z M1490.74,177.124c-3.719,0-6.732-3.014-6.732-6.732
	c0-3.718,3.014-6.732,6.732-6.732c3.718,0,6.729,3.014,6.729,6.732C1497.471,174.109,1494.458,177.124,1490.74,177.124z
	 M1490.74,125.124c-3.719,0-6.732-3.014-6.732-6.732c0-3.718,3.014-6.732,6.732-6.732c3.718,0,6.729,3.014,6.729,6.732
	C1497.471,122.109,1494.458,125.124,1490.74,125.124z M1547.311,385.124c-3.721,0-6.729-3.014-6.729-6.732
	c0-3.718,3.014-6.731,6.729-6.731c3.72,0,6.73,3.014,6.73,6.731C1554.042,382.109,1551.029,385.124,1547.311,385.124z
	 M1547.311,333.124c-3.721,0-6.729-3.014-6.729-6.732c0-3.718,3.014-6.731,6.729-6.731c3.72,0,6.73,3.014,6.73,6.731
	C1554.042,330.109,1551.029,333.124,1547.311,333.124z M1547.311,281.124c-3.721,0-6.729-3.014-6.729-6.732
	c0-3.718,3.014-6.732,6.729-6.732c3.72,0,6.73,3.014,6.73,6.732C1554.042,278.109,1551.029,281.124,1547.311,281.124z
	 M1547.311,229.124c-3.721,0-6.729-3.014-6.729-6.732c0-3.718,3.014-6.732,6.729-6.732c3.72,0,6.73,3.014,6.73,6.732
	C1554.042,226.109,1551.029,229.124,1547.311,229.124z M1547.311,177.124c-3.721,0-6.729-3.014-6.729-6.732
	c0-3.718,3.014-6.732,6.729-6.732c3.72,0,6.73,3.014,6.73,6.732C1554.042,174.109,1551.029,177.124,1547.311,177.124z
	 M1547.311,125.124c-3.721,0-6.729-3.014-6.729-6.732c0-3.718,3.014-6.732,6.729-6.732c3.72,0,6.73,3.014,6.73,6.732
	C1554.042,122.109,1551.029,125.124,1547.311,125.124z M1603.879,333.124c-3.719,0-6.729-3.014-6.729-6.732
	c0-3.718,3.016-6.731,6.729-6.731c3.719,0,6.732,3.014,6.732,6.731C1610.613,330.109,1607.598,333.124,1603.879,333.124z
	 M1603.879,281.124c-3.719,0-6.729-3.014-6.729-6.732c0-3.718,3.016-6.732,6.729-6.732c3.719,0,6.732,3.014,6.732,6.732
	C1610.613,278.109,1607.598,281.124,1603.879,281.124z M1603.879,229.124c-3.719,0-6.729-3.014-6.729-6.732
	c0-3.718,3.016-6.732,6.729-6.732c3.719,0,6.732,3.014,6.732,6.732C1610.613,226.109,1607.598,229.124,1603.879,229.124z
	 M1603.879,177.124c-3.719,0-6.729-3.014-6.729-6.732c0-3.718,3.016-6.732,6.729-6.732c3.719,0,6.732,3.014,6.732,6.732
	C1610.613,174.109,1607.598,177.124,1603.879,177.124z M1603.879,125.124c-3.719,0-6.729-3.014-6.729-6.732
	c0-3.718,3.016-6.732,6.729-6.732c3.719,0,6.732,3.014,6.732,6.732C1610.613,122.109,1607.598,125.124,1603.879,125.124z
	 M1660.451,177.124c-3.719,0-6.732-3.014-6.732-6.732c0-3.718,3.019-6.732,6.732-6.732c3.719,0,6.732,3.014,6.732,6.732
	C1667.182,174.109,1664.168,177.124,1660.451,177.124z M1660.451,125.124c-3.719,0-6.732-3.014-6.732-6.732
	c0-3.718,3.019-6.732,6.732-6.732c3.719,0,6.732,3.014,6.732,6.732C1667.182,122.109,1664.168,125.124,1660.451,125.124z"/>
</svg>
