<?xml version="1.0" encoding="utf-8"?>
<!-- Generator: Adobe Illustrator 16.0.0, SVG Export Plug-In . SVG Version: 6.00 Build 0)  -->
<!DOCTYPE svg PUBLIC "-//W3C//DTD SVG 1.1//EN" "http://www.w3.org/Graphics/SVG/1.1/DTD/svg11.dtd">
<svg version="1.1" id="Layer_1" xmlns="http://www.w3.org/2000/svg" xmlns:xlink="http://www.w3.org/1999/xlink" x="0px" y="0px"
	 width="1712.871px" height="1052.601px" viewBox="0 0 1712.871 1052.601" enable-background="new 0 0 1712.871 1052.601"
	 xml:space="preserve">
<path d="M1706.769,801.714l-6.281-1.582l-117.479,3.594c-33.006,0.744-53.35-0.145-61.166-2.711
	c-7.836-2.488-18.164-8.357-31.121-17.641c-17.967-12.865-35.211-26.703-53.017-39.789c-11.526-8.473-29.192-21.758-52.942-40.061
	c-1.09-0.846,0.356-14.594,1.121-21.85c0.479-4.557,0.188-8.121-0.959-10.637c-0.141-0.332-7.896-8.152-23.129-23.424
	c-34.992-35.078-69.188-70.939-103.904-106.291c-33.392-34.002-71.312-72.617-99.752-102.422
	c-27.607-28.938-56.961-60.088-87.913-93.428c-36.38-39.184-103.804-111.564-109.065-117.615
	c-1.323-1.521-13.313-14.64-36.008-39.513c-6.225-6.839-10.598-12.173-13.188-16.02l-37.541-1.29c-1.845-4.474-3.41-7.69-4.609-9.7
	c-13.257-22.186-23.705-45.884-35.776-68.71c-4.879-9.22-13.812-37.426-19.836-56.441l-7.095-22.395l-6.744-9.293l-10.636-4.224
	c-2.421-0.976-17.613,0.978-18.184,1.146c-4.271,1.266-17.062,1.819-25.636,2.189c-3.278,0.142-43.518,4.757-65.271,7.146
	l-119.07,13.079c-40.43,4.44-101.391,11.134-121.179,14.248c-14.438,2.272-64.819,8.402-97.261,12.35
	c-80.005,9.733-196.354,28.094-239.09,35.704c-22.627,4.03-45.132,8.309-67.62,12.869c-15.358,3.115-23.419,5.048-24.031,5.868
	c-3.373,4.506-7.663,8.298-10.679,13.073c-3.507,5.557-1.609,16.069,5.619,31.611c9.852,21.122,17.56,37.725,23.057,49.882
	c3.498,7.56,12.859,27.406,28.229,59.46c22.031,45.958,42.076,92.839,60.267,140.447l4.062,10.635
	c4.227,11.062,12.653,17.614,25.209,19.665c2.352,0.389,31.688-0.49,47.528-0.827l141.862-2.528l93.137,3.896
	c22.062,0.929,52.888,3.652,65.862,6.521c31.206,6.896,57.604,14.566,86.042,23.161c15.679,4.733,30.985,10.616,46.636,15.451
	c38.271,11.82,75.021,27.862,111.331,44.678c93.227,43.164,178.145,92.175,254.687,147.019c14.866,10.646,28.664,20.67,41.407,30.07
	c1.112,0.439,2.082,1.158,2.812,2.08c32.927,24.354,58.604,44.443,76.992,60.236c32.83,28.244,54.381,47.631,64.717,58.18
	c40.214,41.389,76.312,86.123,108.22,134.256c7.959,12.027,22.636,36.889,43.959,74.562c3.562,6.295,7.396,12.533,12.75,17.469
	c3.559,3.27,6.174,5.268,7.83,6.057c8.573,4.082,28.849,2.562,43.286,1.479c30.65-2.307,63.224-4.271,97.646-5.918
	c11.159-0.535,22.181-2.514,33.015-5.197c5.519-1.369,10.752-3.758,15.205-7.311c4.459-3.555,9.642-9.078,15.435-16.457
	c23.7-30.176,45.813-61.561,69.579-91.689c30.438-38.59,51.369-65.688,62.716-81.244c6.713-9.205,13.502-18.354,20.479-27.361
	C1715.903,810.253,1709.215,802.333,1706.769,801.714z M72.497,242.087c-3.719,0-6.73-3.014-6.73-6.732
	c0-3.718,3.015-6.732,6.73-6.732c3.718,0,6.731,3.014,6.731,6.732C79.228,239.073,76.216,242.087,72.497,242.087z M72.497,190.087
	c-3.719,0-6.73-3.014-6.73-6.732c0-3.718,3.015-6.732,6.73-6.732c3.718,0,6.731,3.014,6.731,6.732
	C79.228,187.073,76.216,190.087,72.497,190.087z M72.497,138.087c-3.719,0-6.73-3.014-6.73-6.732c0-3.718,3.015-6.732,6.73-6.732
	c3.718,0,6.731,3.014,6.731,6.732C79.228,135.073,76.216,138.087,72.497,138.087z M129.068,346.087
	c-3.719,0-6.731-3.014-6.731-6.732c0-3.718,3.016-6.731,6.731-6.731c3.719,0,6.731,3.014,6.731,6.731
	C135.8,343.073,132.786,346.087,129.068,346.087z M129.068,294.087c-3.719,0-6.731-3.014-6.731-6.732
	c0-3.718,3.016-6.732,6.731-6.732c3.719,0,6.731,3.014,6.731,6.732C135.8,291.073,132.786,294.087,129.068,294.087z
	 M129.068,242.087c-3.719,0-6.731-3.014-6.731-6.732c0-3.718,3.016-6.732,6.731-6.732c3.719,0,6.731,3.014,6.731,6.732
	C135.8,239.073,132.786,242.087,129.068,242.087z M129.068,190.087c-3.719,0-6.731-3.014-6.731-6.732
	c0-3.718,3.016-6.732,6.731-6.732c3.719,0,6.731,3.014,6.731,6.732C135.8,187.073,132.786,190.087,129.068,190.087z
	 M129.068,138.087c-3.719,0-6.731-3.014-6.731-6.732c0-3.718,3.016-6.732,6.731-6.732c3.719,0,6.731,3.014,6.731,6.732
	C135.8,135.073,132.786,138.087,129.068,138.087z M185.638,398.087c-3.721,0-6.731-3.014-6.731-6.732
	c0-3.718,3.014-6.731,6.731-6.731c3.717,0,6.73,3.014,6.73,6.731C192.369,395.073,189.357,398.087,185.638,398.087z
	 M185.638,346.087c-3.721,0-6.731-3.014-6.731-6.732c0-3.718,3.014-6.731,6.731-6.731c3.717,0,6.73,3.014,6.73,6.731
	C192.369,343.073,189.357,346.087,185.638,346.087z M185.638,294.087c-3.721,0-6.731-3.014-6.731-6.732
	c0-3.718,3.014-6.732,6.731-6.732c3.717,0,6.73,3.014,6.73,6.732C192.369,291.073,189.357,294.087,185.638,294.087z
	 M185.638,242.087c-3.721,0-6.731-3.014-6.731-6.732c0-3.718,3.014-6.732,6.731-6.732c3.717,0,6.73,3.014,6.73,6.732
	C192.369,239.073,189.357,242.087,185.638,242.087z M185.638,190.087c-3.721,0-6.731-3.014-6.731-6.732
	c0-3.718,3.014-6.732,6.731-6.732c3.717,0,6.73,3.014,6.73,6.732C192.369,187.073,189.357,190.087,185.638,190.087z
	 M185.638,138.087c-3.721,0-6.731-3.014-6.731-6.732c0-3.718,3.014-6.732,6.731-6.732c3.717,0,6.73,3.014,6.73,6.732
	C192.369,135.073,189.357,138.087,185.638,138.087z M242.209,398.087c-3.72,0-6.731-3.014-6.731-6.732
	c0-3.718,3.015-6.731,6.731-6.731s6.73,3.014,6.73,6.731C248.941,395.073,245.927,398.087,242.209,398.087z M242.209,346.087
	c-3.72,0-6.731-3.014-6.731-6.732c0-3.718,3.015-6.731,6.731-6.731s6.73,3.014,6.73,6.731
	C248.941,343.073,245.927,346.087,242.209,346.087z M242.209,294.087c-3.72,0-6.731-3.014-6.731-6.732
	c0-3.718,3.015-6.732,6.731-6.732s6.73,3.014,6.73,6.732C248.939,291.073,245.927,294.087,242.209,294.087z M242.209,242.087
	c-3.72,0-6.731-3.014-6.731-6.732c0-3.718,3.015-6.732,6.731-6.732s6.73,3.014,6.73,6.732
	C248.939,239.073,245.927,242.087,242.209,242.087z M242.209,190.087c-3.72,0-6.731-3.014-6.731-6.732
	c0-3.718,3.015-6.732,6.731-6.732s6.73,3.014,6.73,6.732C248.939,187.073,245.927,190.087,242.209,190.087z M242.209,138.087
	c-3.72,0-6.731-3.014-6.731-6.732c0-3.718,3.015-6.732,6.731-6.732s6.73,3.014,6.73,6.732
	C248.939,135.073,245.927,138.087,242.209,138.087z M242.209,86.087c-3.72,0-6.731-3.014-6.731-6.732s3.015-6.732,6.731-6.732
	s6.73,3.014,6.73,6.732S245.927,86.087,242.209,86.087z M298.778,398.087c-3.719,0-6.73-3.014-6.73-6.732
	c0-3.718,3.015-6.731,6.73-6.731c3.72,0,6.732,3.014,6.732,6.731C305.511,395.073,302.498,398.087,298.778,398.087z
	 M298.778,346.087c-3.719,0-6.73-3.014-6.73-6.732c0-3.718,3.015-6.731,6.73-6.731c3.72,0,6.732,3.014,6.732,6.731
	C305.511,343.073,302.498,346.087,298.778,346.087z M298.778,294.087c-3.719,0-6.73-3.014-6.73-6.732
	c0-3.718,3.015-6.732,6.73-6.732c3.72,0,6.732,3.014,6.732,6.732C305.51,291.073,302.498,294.087,298.778,294.087z M298.778,242.087
	c-3.719,0-6.73-3.014-6.73-6.732c0-3.718,3.015-6.732,6.73-6.732c3.72,0,6.732,3.014,6.732,6.732
	C305.51,239.073,302.498,242.087,298.778,242.087z M298.778,190.087c-3.719,0-6.73-3.014-6.73-6.732c0-3.718,3.015-6.732,6.73-6.732
	c3.72,0,6.732,3.014,6.732,6.732C305.51,187.073,302.498,190.087,298.778,190.087z M298.778,138.087c-3.719,0-6.73-3.014-6.73-6.732
	c0-3.718,3.015-6.732,6.73-6.732c3.72,0,6.732,3.014,6.732,6.732C305.51,135.073,302.498,138.087,298.778,138.087z M298.778,86.087
	c-3.719,0-6.73-3.014-6.73-6.732s3.015-6.732,6.73-6.732c3.72,0,6.732,3.014,6.732,6.732S302.498,86.087,298.778,86.087z
	 M355.349,398.087c-3.719,0-6.731-3.014-6.731-6.732c0-3.718,3.017-6.731,6.731-6.731c3.719,0,6.731,3.014,6.731,6.731
	C362.081,395.073,359.068,398.087,355.349,398.087z M355.349,346.087c-3.719,0-6.731-3.014-6.731-6.732
	c0-3.718,3.017-6.731,6.731-6.731c3.719,0,6.731,3.014,6.731,6.731C362.081,343.073,359.068,346.087,355.349,346.087z
	 M355.349,294.087c-3.719,0-6.731-3.014-6.731-6.732c0-3.718,3.017-6.732,6.731-6.732c3.719,0,6.731,3.014,6.731,6.732
	C362.081,291.073,359.068,294.087,355.349,294.087z M355.349,242.087c-3.719,0-6.731-3.014-6.731-6.732
	c0-3.718,3.017-6.732,6.731-6.732c3.719,0,6.731,3.014,6.731,6.732C362.081,239.073,359.068,242.087,355.349,242.087z
	 M355.349,190.087c-3.719,0-6.731-3.014-6.731-6.732c0-3.718,3.017-6.732,6.731-6.732c3.719,0,6.731,3.014,6.731,6.732
	C362.081,187.073,359.068,190.087,355.349,190.087z M355.349,138.087c-3.719,0-6.731-3.014-6.731-6.732
	c0-3.718,3.017-6.732,6.731-6.732c3.719,0,6.731,3.014,6.731,6.732C362.081,135.073,359.068,138.087,355.349,138.087z
	 M355.349,86.087c-3.719,0-6.731-3.014-6.731-6.732s3.017-6.732,6.731-6.732c3.719,0,6.731,3.014,6.731,6.732
	S359.068,86.087,355.349,86.087z M411.92,398.087c-3.722,0-6.732-3.014-6.732-6.732c0-3.718,3.016-6.731,6.732-6.731
	c3.716,0,6.729,3.014,6.729,6.731C418.651,395.073,415.638,398.087,411.92,398.087z M411.92,346.087
	c-3.722,0-6.732-3.014-6.732-6.732c0-3.718,3.016-6.731,6.732-6.731c3.716,0,6.729,3.014,6.729,6.731
	C418.651,343.073,415.638,346.087,411.92,346.087z M411.92,294.087c-3.722,0-6.732-3.014-6.732-6.732
	c0-3.718,3.016-6.732,6.732-6.732c3.716,0,6.729,3.014,6.729,6.732C418.649,291.073,415.638,294.087,411.92,294.087z
	 M411.92,242.087c-3.722,0-6.732-3.014-6.732-6.732c0-3.718,3.016-6.732,6.732-6.732c3.716,0,6.729,3.014,6.729,6.732
	C418.649,239.073,415.638,242.087,411.92,242.087z M411.92,190.087c-3.722,0-6.732-3.014-6.732-6.732
	c0-3.718,3.016-6.732,6.732-6.732c3.716,0,6.729,3.014,6.729,6.732C418.649,187.073,415.638,190.087,411.92,190.087z
	 M411.92,138.087c-3.722,0-6.732-3.014-6.732-6.732c0-3.718,3.016-6.732,6.732-6.732c3.716,0,6.729,3.014,6.729,6.732
	C418.649,135.073,415.638,138.087,411.92,138.087z M411.92,86.087c-3.722,0-6.732-3.014-6.732-6.732s3.016-6.732,6.732-6.732
	c3.716,0,6.729,3.014,6.729,6.732S415.638,86.087,411.92,86.087z M468.489,398.087c-3.721,0-6.729-3.014-6.729-6.732
	c0-3.718,3.016-6.731,6.729-6.731c3.718,0,6.73,3.014,6.73,6.731C475.222,395.073,472.21,398.087,468.489,398.087z M468.489,346.087
	c-3.721,0-6.729-3.014-6.729-6.732c0-3.718,3.016-6.731,6.729-6.731c3.718,0,6.73,3.014,6.73,6.731
	C475.222,343.073,472.21,346.087,468.489,346.087z M468.489,294.087c-3.721,0-6.729-3.014-6.729-6.732
	c0-3.718,3.016-6.732,6.729-6.732c3.718,0,6.73,3.014,6.73,6.732C475.222,291.073,472.21,294.087,468.489,294.087z M468.489,242.087
	c-3.721,0-6.729-3.014-6.729-6.732c0-3.718,3.016-6.732,6.729-6.732c3.718,0,6.73,3.014,6.73,6.732
	C475.222,239.073,472.21,242.087,468.489,242.087z M468.489,190.087c-3.721,0-6.729-3.014-6.729-6.732
	c0-3.718,3.016-6.732,6.729-6.732c3.718,0,6.73,3.014,6.73,6.732C475.222,187.073,472.21,190.087,468.489,190.087z M468.489,138.087
	c-3.721,0-6.729-3.014-6.729-6.732c0-3.718,3.016-6.732,6.729-6.732c3.718,0,6.73,3.014,6.73,6.732
	C475.222,135.073,472.21,138.087,468.489,138.087z M468.489,86.087c-3.721,0-6.729-3.014-6.729-6.732s3.016-6.732,6.729-6.732
	c3.718,0,6.73,3.014,6.73,6.732C475.222,83.073,472.21,86.087,468.489,86.087z M525.059,398.087c-3.719,0-6.729-3.014-6.729-6.732
	c0-3.718,3.016-6.731,6.729-6.731c3.72,0,6.732,3.014,6.732,6.731C531.792,395.073,528.778,398.087,525.059,398.087z
	 M525.059,346.087c-3.719,0-6.729-3.014-6.729-6.732c0-3.718,3.016-6.731,6.729-6.731c3.72,0,6.732,3.014,6.732,6.731
	C531.792,343.073,528.778,346.087,525.059,346.087z M525.059,294.087c-3.719,0-6.729-3.014-6.729-6.732
	c0-3.718,3.016-6.732,6.729-6.732c3.72,0,6.732,3.014,6.732,6.732C531.792,291.073,528.778,294.087,525.059,294.087z
	 M525.059,242.087c-3.719,0-6.729-3.014-6.729-6.732c0-3.718,3.016-6.732,6.729-6.732c3.72,0,6.732,3.014,6.732,6.732
	C531.792,239.073,528.778,242.087,525.059,242.087z M525.059,190.087c-3.719,0-6.729-3.014-6.729-6.732
	c0-3.718,3.016-6.732,6.729-6.732c3.72,0,6.732,3.014,6.732,6.732C531.792,187.073,528.778,190.087,525.059,190.087z
	 M525.059,138.087c-3.719,0-6.729-3.014-6.729-6.732c0-3.718,3.016-6.732,6.729-6.732c3.72,0,6.732,3.014,6.732,6.732
	C531.792,135.073,528.778,138.087,525.059,138.087z M525.059,86.087c-3.719,0-6.729-3.014-6.729-6.732s3.016-6.732,6.729-6.732
	c3.72,0,6.732,3.014,6.732,6.732S528.778,86.087,525.059,86.087z M581.631,398.087c-3.722,0-6.73-3.014-6.73-6.732
	c0-3.718,3.014-6.731,6.73-6.731c3.716,0,6.729,3.014,6.729,6.731C588.361,395.073,585.349,398.087,581.631,398.087z
	 M581.631,346.087c-3.722,0-6.73-3.014-6.73-6.732c0-3.718,3.014-6.731,6.73-6.731c3.716,0,6.729,3.014,6.729,6.731
	C588.361,343.073,585.349,346.087,581.631,346.087z M581.631,294.087c-3.722,0-6.73-3.014-6.73-6.732
	c0-3.718,3.014-6.732,6.73-6.732c3.716,0,6.729,3.014,6.729,6.732C588.36,291.073,585.349,294.087,581.631,294.087z
	 M581.631,242.087c-3.722,0-6.73-3.014-6.73-6.732c0-3.718,3.014-6.732,6.73-6.732c3.716,0,6.729,3.014,6.729,6.732
	C588.36,239.073,585.349,242.087,581.631,242.087z M581.631,190.087c-3.722,0-6.73-3.014-6.73-6.732c0-3.718,3.014-6.732,6.73-6.732
	c3.716,0,6.729,3.014,6.729,6.732C588.36,187.073,585.349,190.087,581.631,190.087z M581.631,138.087
	c-3.722,0-6.73-3.014-6.73-6.732c0-3.718,3.014-6.732,6.73-6.732c3.716,0,6.729,3.014,6.729,6.732
	C588.36,135.073,585.349,138.087,581.631,138.087z M581.631,86.087c-3.722,0-6.73-3.014-6.73-6.732s3.014-6.732,6.73-6.732
	c3.716,0,6.729,3.014,6.729,6.732S585.349,86.087,581.631,86.087z M638.199,450.087c-3.719,0-6.729-3.014-6.729-6.731
	c0-3.719,3.016-6.729,6.729-6.729c3.718,0,6.73,3.014,6.73,6.729C644.933,447.074,641.92,450.087,638.199,450.087z M638.199,398.087
	c-3.719,0-6.729-3.014-6.729-6.732c0-3.718,3.016-6.731,6.729-6.731c3.718,0,6.73,3.014,6.73,6.731
	C644.933,395.073,641.92,398.087,638.199,398.087z M638.199,346.087c-3.719,0-6.729-3.014-6.729-6.732
	c0-3.718,3.016-6.731,6.729-6.731c3.718,0,6.73,3.014,6.73,6.731C644.933,343.073,641.92,346.087,638.199,346.087z M638.199,294.087
	c-3.719,0-6.729-3.014-6.729-6.732c0-3.718,3.016-6.732,6.729-6.732c3.718,0,6.73,3.014,6.73,6.732
	C644.933,291.073,641.92,294.087,638.199,294.087z M638.199,242.087c-3.719,0-6.729-3.014-6.729-6.732
	c0-3.718,3.016-6.732,6.729-6.732c3.718,0,6.73,3.014,6.73,6.732C644.933,239.073,641.92,242.087,638.199,242.087z M638.199,190.087
	c-3.719,0-6.729-3.014-6.729-6.732c0-3.718,3.016-6.732,6.729-6.732c3.718,0,6.73,3.014,6.73,6.732
	C644.933,187.073,641.92,190.087,638.199,190.087z M638.199,138.087c-3.719,0-6.729-3.014-6.729-6.732
	c0-3.718,3.016-6.732,6.729-6.732c3.718,0,6.73,3.014,6.73,6.732C644.933,135.073,641.92,138.087,638.199,138.087z M638.199,86.087
	c-3.719,0-6.729-3.014-6.729-6.732s3.016-6.732,6.729-6.732c3.718,0,6.73,3.014,6.73,6.732
	C644.933,83.073,641.92,86.087,638.199,86.087z M694.77,450.087c-3.719,0-6.729-3.014-6.729-6.731c0-3.719,3.014-6.729,6.729-6.729
	c3.72,0,6.732,3.014,6.732,6.729C701.504,447.074,698.489,450.087,694.77,450.087z M694.77,398.087
	c-3.719,0-6.729-3.014-6.729-6.732c0-3.718,3.014-6.731,6.729-6.731c3.72,0,6.732,3.014,6.732,6.731
	C701.504,395.073,698.489,398.087,694.77,398.087z M694.77,346.087c-3.719,0-6.729-3.014-6.729-6.732
	c0-3.718,3.014-6.731,6.729-6.731c3.72,0,6.732,3.014,6.732,6.731C701.504,343.073,698.489,346.087,694.77,346.087z M694.77,294.087
	c-3.719,0-6.729-3.014-6.729-6.732c0-3.718,3.014-6.732,6.729-6.732c3.72,0,6.732,3.014,6.732,6.732
	C701.504,291.073,698.489,294.087,694.77,294.087z M694.77,242.087c-3.719,0-6.729-3.014-6.729-6.732
	c0-3.718,3.014-6.732,6.729-6.732c3.72,0,6.732,3.014,6.732,6.732C701.504,239.073,698.489,242.087,694.77,242.087z M694.77,190.087
	c-3.719,0-6.729-3.014-6.729-6.732c0-3.718,3.014-6.732,6.729-6.732c3.72,0,6.732,3.014,6.732,6.732
	C701.504,187.073,698.489,190.087,694.77,190.087z M694.77,138.087c-3.719,0-6.729-3.014-6.729-6.732
	c0-3.718,3.014-6.732,6.729-6.732c3.72,0,6.732,3.014,6.732,6.732C701.504,135.073,698.489,138.087,694.77,138.087z M694.77,86.087
	c-3.719,0-6.729-3.014-6.729-6.732s3.014-6.732,6.729-6.732c3.72,0,6.732,3.014,6.732,6.732
	C701.504,83.073,698.489,86.087,694.77,86.087z M694.77,34.087c-3.719,0-6.729-3.014-6.729-6.732c0-3.718,3.014-6.732,6.729-6.732
	c3.72,0,6.732,3.014,6.732,6.732C701.504,31.073,698.489,34.087,694.77,34.087z M751.342,502.087c-3.72,0-6.73-3.014-6.73-6.731
	c0-3.719,3.017-6.729,6.73-6.729s6.729,3.014,6.729,6.729C758.073,499.074,755.059,502.087,751.342,502.087z M751.342,450.087
	c-3.72,0-6.73-3.014-6.73-6.731c0-3.719,3.017-6.729,6.73-6.729s6.729,3.014,6.729,6.729
	C758.072,447.074,755.059,450.087,751.342,450.087z M751.342,398.087c-3.72,0-6.73-3.014-6.73-6.732c0-3.718,3.017-6.731,6.73-6.731
	s6.729,3.014,6.729,6.731C758.072,395.073,755.059,398.087,751.342,398.087z M751.342,346.087c-3.72,0-6.73-3.014-6.73-6.732
	c0-3.718,3.017-6.731,6.73-6.731s6.729,3.014,6.729,6.731C758.072,343.073,755.059,346.087,751.342,346.087z M751.342,294.087
	c-3.72,0-6.73-3.014-6.73-6.732c0-3.718,3.017-6.732,6.73-6.732s6.729,3.014,6.729,6.732
	C758.071,291.073,755.059,294.087,751.342,294.087z M751.342,242.087c-3.72,0-6.73-3.014-6.73-6.732c0-3.718,3.017-6.732,6.73-6.732
	s6.729,3.014,6.729,6.732C758.071,239.073,755.059,242.087,751.342,242.087z M751.342,190.087c-3.72,0-6.73-3.014-6.73-6.732
	c0-3.718,3.017-6.732,6.73-6.732s6.729,3.014,6.729,6.732C758.071,187.073,755.059,190.087,751.342,190.087z M751.342,138.087
	c-3.72,0-6.73-3.014-6.73-6.732c0-3.718,3.017-6.732,6.73-6.732s6.729,3.014,6.729,6.732
	C758.071,135.073,755.059,138.087,751.342,138.087z M751.342,86.087c-3.72,0-6.73-3.014-6.73-6.732s3.017-6.732,6.73-6.732
	s6.729,3.014,6.729,6.732S755.059,86.087,751.342,86.087z M751.342,34.087c-3.72,0-6.73-3.014-6.73-6.732
	c0-3.718,3.017-6.732,6.73-6.732s6.729,3.014,6.729,6.732C758.071,31.073,755.059,34.087,751.342,34.087z M807.91,502.087
	c-3.719,0-6.729-3.014-6.729-6.731c0-3.719,3.016-6.729,6.729-6.729c3.719,0,6.73,3.014,6.73,6.729
	C814.643,499.074,811.631,502.087,807.91,502.087z M807.91,450.087c-3.719,0-6.729-3.014-6.729-6.731
	c0-3.719,3.016-6.729,6.729-6.729c3.719,0,6.73,3.014,6.73,6.729C814.643,447.074,811.631,450.087,807.91,450.087z M807.91,398.087
	c-3.719,0-6.729-3.014-6.729-6.732c0-3.718,3.016-6.731,6.729-6.731c3.719,0,6.73,3.014,6.73,6.731
	C814.643,395.073,811.631,398.087,807.91,398.087z M807.91,346.087c-3.719,0-6.729-3.014-6.729-6.732
	c0-3.718,3.016-6.731,6.729-6.731c3.719,0,6.73,3.014,6.73,6.731C814.643,343.073,811.631,346.087,807.91,346.087z M807.91,294.087
	c-3.719,0-6.729-3.014-6.729-6.732c0-3.718,3.016-6.732,6.729-6.732c3.719,0,6.73,3.014,6.73,6.732
	C814.643,291.073,811.631,294.087,807.91,294.087z M807.91,242.087c-3.719,0-6.729-3.014-6.729-6.732
	c0-3.718,3.016-6.732,6.729-6.732c3.719,0,6.73,3.014,6.73,6.732C814.643,239.073,811.631,242.087,807.91,242.087z M807.91,190.087
	c-3.719,0-6.729-3.014-6.729-6.732c0-3.718,3.016-6.732,6.729-6.732c3.719,0,6.73,3.014,6.73,6.732
	C814.643,187.073,811.631,190.087,807.91,190.087z M807.91,138.087c-3.719,0-6.729-3.014-6.729-6.732
	c0-3.718,3.016-6.732,6.729-6.732c3.719,0,6.73,3.014,6.73,6.732C814.643,135.073,811.631,138.087,807.91,138.087z M807.91,86.087
	c-3.719,0-6.729-3.014-6.729-6.732s3.016-6.732,6.729-6.732c3.719,0,6.73,3.014,6.73,6.732
	C814.643,83.073,811.631,86.087,807.91,86.087z M864.48,554.085c-3.721,0-6.729-3.014-6.729-6.729c0-3.721,3.014-6.732,6.729-6.732
	s6.729,3.014,6.729,6.732C871.214,551.076,868.198,554.085,864.48,554.085z M864.48,502.087c-3.721,0-6.729-3.014-6.729-6.731
	c0-3.719,3.014-6.729,6.729-6.729s6.729,3.014,6.729,6.729C871.215,499.074,868.198,502.087,864.48,502.087z M864.48,450.087
	c-3.721,0-6.729-3.014-6.729-6.731c0-3.719,3.014-6.729,6.729-6.729s6.729,3.014,6.729,6.729
	C871.214,447.074,868.198,450.087,864.48,450.087z M864.48,398.087c-3.721,0-6.729-3.014-6.729-6.732
	c0-3.718,3.014-6.731,6.729-6.731s6.729,3.014,6.729,6.731C871.214,395.073,868.198,398.087,864.48,398.087z M864.48,346.087
	c-3.721,0-6.729-3.014-6.729-6.732c0-3.718,3.014-6.731,6.729-6.731s6.729,3.014,6.729,6.731
	C871.214,343.073,868.198,346.087,864.48,346.087z M864.48,294.087c-3.721,0-6.729-3.014-6.729-6.732
	c0-3.718,3.014-6.732,6.729-6.732s6.729,3.014,6.729,6.732C871.214,291.073,868.198,294.087,864.48,294.087z M864.48,242.087
	c-3.721,0-6.729-3.014-6.729-6.732c0-3.718,3.014-6.732,6.729-6.732s6.729,3.014,6.729,6.732
	C871.214,239.073,868.198,242.087,864.48,242.087z M864.48,190.087c-3.721,0-6.729-3.014-6.729-6.732
	c0-3.718,3.014-6.732,6.729-6.732s6.729,3.014,6.729,6.732C871.214,187.073,868.198,190.087,864.48,190.087z M921.052,554.085
	c-3.72,0-6.73-3.014-6.73-6.729c0-3.721,3.017-6.732,6.73-6.732c3.719,0,6.729,3.014,6.729,6.732
	C927.782,551.074,924.769,554.085,921.052,554.085z M921.052,502.087c-3.72,0-6.73-3.014-6.73-6.731c0-3.719,3.017-6.729,6.73-6.729
	c3.719,0,6.729,3.014,6.729,6.729C927.782,499.074,924.769,502.087,921.052,502.087z M921.052,450.087
	c-3.72,0-6.73-3.014-6.73-6.731c0-3.719,3.017-6.729,6.73-6.729c3.719,0,6.729,3.014,6.729,6.729
	C927.782,447.074,924.769,450.087,921.052,450.087z M921.052,398.087c-3.72,0-6.73-3.014-6.73-6.732c0-3.718,3.017-6.731,6.73-6.731
	c3.719,0,6.729,3.014,6.729,6.731C927.782,395.073,924.769,398.087,921.052,398.087z M921.052,346.087
	c-3.72,0-6.73-3.014-6.73-6.732c0-3.718,3.017-6.731,6.73-6.731c3.719,0,6.729,3.014,6.729,6.731
	C927.782,343.073,924.769,346.087,921.052,346.087z M921.052,294.087c-3.72,0-6.73-3.014-6.73-6.732c0-3.718,3.017-6.732,6.73-6.732
	c3.719,0,6.729,3.014,6.729,6.732C927.782,291.073,924.769,294.087,921.052,294.087z M921.052,242.087
	c-3.72,0-6.73-3.014-6.73-6.732c0-3.718,3.017-6.732,6.73-6.732c3.719,0,6.729,3.014,6.729,6.732
	C927.782,239.073,924.769,242.087,921.052,242.087z M977.622,606.085c-3.721,0-6.731-3.014-6.731-6.729
	c0-3.721,3.016-6.732,6.731-6.732c3.717,0,6.729,3.014,6.729,6.732C984.353,603.076,981.342,606.085,977.622,606.085z
	 M977.622,554.085c-3.721,0-6.731-3.014-6.731-6.729c0-3.721,3.016-6.732,6.731-6.732c3.717,0,6.729,3.014,6.729,6.732
	C984.353,551.076,981.342,554.085,977.622,554.085z M977.622,502.087c-3.721,0-6.731-3.014-6.731-6.731
	c0-3.719,3.016-6.729,6.731-6.729c3.717,0,6.729,3.014,6.729,6.729C984.353,499.074,981.342,502.087,977.622,502.087z
	 M977.622,450.087c-3.721,0-6.731-3.014-6.731-6.731c0-3.719,3.016-6.729,6.731-6.729c3.717,0,6.729,3.014,6.729,6.729
	C984.353,447.074,981.342,450.087,977.622,450.087z M977.622,398.087c-3.721,0-6.731-3.014-6.731-6.732
	c0-3.718,3.016-6.731,6.731-6.731c3.717,0,6.729,3.014,6.729,6.731C984.353,395.073,981.342,398.087,977.622,398.087z
	 M977.622,346.087c-3.721,0-6.731-3.014-6.731-6.732c0-3.718,3.016-6.731,6.731-6.731c3.717,0,6.729,3.014,6.729,6.731
	C984.353,343.073,981.342,346.087,977.622,346.087z M977.622,294.087c-3.721,0-6.731-3.014-6.731-6.732
	c0-3.718,3.016-6.732,6.731-6.732c3.717,0,6.729,3.014,6.729,6.732C984.353,291.073,981.342,294.087,977.622,294.087z
	 M1034.191,658.085c-3.721,0-6.729-3.014-6.729-6.729c0-3.721,3.014-6.732,6.729-6.732s6.73,3.014,6.73,6.732
	C1040.925,655.076,1037.911,658.085,1034.191,658.085z M1034.191,606.085c-3.721,0-6.729-3.014-6.729-6.729
	c0-3.721,3.014-6.732,6.729-6.732s6.73,3.014,6.73,6.732C1040.925,603.076,1037.911,606.085,1034.191,606.085z M1034.191,554.085
	c-3.721,0-6.729-3.014-6.729-6.729c0-3.721,3.014-6.732,6.729-6.732s6.73,3.014,6.73,6.732
	C1040.925,551.076,1037.911,554.085,1034.191,554.085z M1034.191,502.087c-3.721,0-6.729-3.014-6.729-6.731
	c0-3.719,3.014-6.729,6.729-6.729s6.73,3.014,6.73,6.729C1040.926,499.074,1037.911,502.087,1034.191,502.087z M1034.191,450.087
	c-3.721,0-6.729-3.014-6.729-6.731c0-3.719,3.014-6.729,6.729-6.729s6.73,3.014,6.73,6.729
	C1040.925,447.074,1037.911,450.087,1034.191,450.087z M1034.191,398.087c-3.721,0-6.729-3.014-6.729-6.732
	c0-3.718,3.014-6.731,6.729-6.731s6.73,3.014,6.73,6.731C1040.925,395.073,1037.911,398.087,1034.191,398.087z M1034.191,346.087
	c-3.721,0-6.729-3.014-6.729-6.732c0-3.718,3.014-6.731,6.729-6.731s6.73,3.014,6.73,6.731
	C1040.925,343.073,1037.911,346.087,1034.191,346.087z M1090.762,710.085c-3.719,0-6.73-3.014-6.73-6.729
	c0-3.721,3.017-6.732,6.73-6.732c3.719,0,6.731,3.014,6.731,6.732C1097.495,707.074,1094.48,710.085,1090.762,710.085z
	 M1090.762,658.085c-3.719,0-6.73-3.014-6.73-6.729c0-3.721,3.017-6.732,6.73-6.732c3.719,0,6.731,3.014,6.731,6.732
	C1097.495,655.074,1094.48,658.085,1090.762,658.085z M1090.762,606.085c-3.719,0-6.73-3.014-6.73-6.729
	c0-3.721,3.017-6.732,6.73-6.732c3.719,0,6.731,3.014,6.731,6.732C1097.495,603.074,1094.48,606.085,1090.762,606.085z
	 M1090.762,554.085c-3.719,0-6.73-3.014-6.73-6.729c0-3.721,3.017-6.732,6.73-6.732c3.719,0,6.731,3.014,6.731,6.732
	C1097.495,551.074,1094.48,554.085,1090.762,554.085z M1090.762,502.087c-3.719,0-6.73-3.014-6.73-6.731
	c0-3.719,3.017-6.729,6.73-6.729c3.719,0,6.731,3.014,6.731,6.729C1097.495,499.074,1094.48,502.087,1090.762,502.087z
	 M1090.762,450.087c-3.719,0-6.73-3.014-6.73-6.731c0-3.719,3.017-6.729,6.73-6.729c3.719,0,6.731,3.014,6.731,6.729
	C1097.495,447.074,1094.48,450.087,1090.762,450.087z M1147.333,762.085c-3.721,0-6.731-3.014-6.731-6.729
	c0-3.721,3.016-6.732,6.731-6.732c3.717,0,6.73,3.014,6.73,6.732C1154.064,759.074,1151.052,762.085,1147.333,762.085z
	 M1147.333,710.085c-3.721,0-6.731-3.014-6.731-6.729c0-3.721,3.016-6.732,6.731-6.732c3.717,0,6.73,3.014,6.73,6.732
	C1154.064,707.074,1151.052,710.085,1147.333,710.085z M1147.333,658.085c-3.721,0-6.731-3.014-6.731-6.729
	c0-3.721,3.016-6.732,6.731-6.732c3.717,0,6.73,3.014,6.73,6.732C1154.064,655.074,1151.052,658.085,1147.333,658.085z
	 M1147.333,606.085c-3.721,0-6.731-3.014-6.731-6.729c0-3.721,3.016-6.732,6.731-6.732c3.717,0,6.73,3.014,6.73,6.732
	C1154.064,603.074,1151.052,606.085,1147.333,606.085z M1147.333,554.085c-3.721,0-6.731-3.014-6.731-6.729
	c0-3.721,3.016-6.732,6.731-6.732c3.717,0,6.73,3.014,6.73,6.732C1154.064,551.074,1151.052,554.085,1147.333,554.085z
	 M1147.333,502.087c-3.721,0-6.731-3.014-6.731-6.731c0-3.719,3.016-6.729,6.731-6.729c3.717,0,6.73,3.014,6.73,6.729
	C1154.064,499.074,1151.052,502.087,1147.333,502.087z M1203.902,814.085c-3.721,0-6.729-3.014-6.729-6.729
	c0-3.721,3.014-6.732,6.729-6.732s6.73,3.014,6.73,6.732C1210.635,811.076,1207.622,814.085,1203.902,814.085z M1203.902,762.085
	c-3.721,0-6.729-3.014-6.729-6.729c0-3.721,3.014-6.732,6.729-6.732s6.73,3.014,6.73,6.732
	C1210.635,759.076,1207.622,762.085,1203.902,762.085z M1203.902,710.085c-3.721,0-6.729-3.014-6.729-6.729
	c0-3.721,3.014-6.732,6.729-6.732s6.73,3.014,6.73,6.732C1210.635,707.076,1207.622,710.085,1203.902,710.085z M1203.902,658.085
	c-3.721,0-6.729-3.014-6.729-6.729c0-3.721,3.014-6.732,6.729-6.732s6.73,3.014,6.73,6.732
	C1210.635,655.076,1207.622,658.085,1203.902,658.085z M1203.902,606.085c-3.721,0-6.729-3.014-6.729-6.729
	c0-3.721,3.014-6.732,6.729-6.732s6.73,3.014,6.73,6.732C1210.635,603.076,1207.622,606.085,1203.902,606.085z M1203.902,554.085
	c-3.721,0-6.729-3.014-6.729-6.729c0-3.721,3.014-6.732,6.729-6.732s6.73,3.014,6.73,6.732
	C1210.635,551.076,1207.622,554.085,1203.902,554.085z M1260.473,866.085c-3.719,0-6.73-3.014-6.73-6.729
	c0-3.721,3.017-6.732,6.73-6.732c3.72,0,6.732,3.014,6.732,6.732C1267.206,863.074,1264.191,866.085,1260.473,866.085z
	 M1260.473,814.085c-3.719,0-6.73-3.014-6.73-6.729c0-3.721,3.017-6.732,6.73-6.732c3.72,0,6.732,3.014,6.732,6.732
	C1267.206,811.074,1264.191,814.085,1260.473,814.085z M1260.473,762.085c-3.719,0-6.73-3.014-6.73-6.729
	c0-3.721,3.017-6.732,6.73-6.732c3.72,0,6.732,3.014,6.732,6.732C1267.206,759.074,1264.191,762.085,1260.473,762.085z
	 M1260.473,710.085c-3.719,0-6.73-3.014-6.73-6.729c0-3.721,3.017-6.732,6.73-6.732c3.72,0,6.732,3.014,6.732,6.732
	C1267.206,707.074,1264.191,710.085,1260.473,710.085z M1260.473,658.085c-3.719,0-6.73-3.014-6.73-6.729
	c0-3.721,3.017-6.732,6.73-6.732c3.72,0,6.732,3.014,6.732,6.732C1267.206,655.074,1264.191,658.085,1260.473,658.085z
	 M1260.473,606.085c-3.719,0-6.73-3.014-6.73-6.729c0-3.721,3.017-6.732,6.73-6.732c3.72,0,6.732,3.014,6.732,6.732
	C1267.206,603.074,1264.191,606.085,1260.473,606.085z M1317.044,970.085c-3.721,0-6.731-3.014-6.731-6.729
	c0-3.721,3.016-6.732,6.731-6.732c3.717,0,6.73,3.014,6.73,6.732C1323.775,967.074,1320.762,970.085,1317.044,970.085z
	 M1317.044,918.085c-3.721,0-6.731-3.014-6.731-6.729c0-3.721,3.016-6.732,6.731-6.732c3.717,0,6.73,3.014,6.73,6.732
	C1323.775,915.074,1320.762,918.085,1317.044,918.085z M1317.044,866.085c-3.721,0-6.731-3.014-6.731-6.729
	c0-3.721,3.016-6.732,6.731-6.732c3.717,0,6.73,3.014,6.73,6.732C1323.775,863.074,1320.762,866.085,1317.044,866.085z
	 M1317.044,814.085c-3.721,0-6.731-3.014-6.731-6.729c0-3.721,3.016-6.732,6.731-6.732c3.717,0,6.73,3.014,6.73,6.732
	C1323.775,811.074,1320.762,814.085,1317.044,814.085z M1317.044,762.085c-3.721,0-6.731-3.014-6.731-6.729
	c0-3.721,3.016-6.732,6.731-6.732c3.717,0,6.73,3.014,6.73,6.732C1323.775,759.074,1320.762,762.085,1317.044,762.085z
	 M1317.044,710.085c-3.721,0-6.731-3.014-6.731-6.729c0-3.721,3.016-6.732,6.731-6.732c3.717,0,6.73,3.014,6.73,6.732
	C1323.775,707.074,1320.762,710.085,1317.044,710.085z M1317.044,658.085c-3.721,0-6.731-3.014-6.731-6.729
	c0-3.721,3.016-6.732,6.731-6.732c3.717,0,6.73,3.014,6.73,6.732C1323.775,655.074,1320.762,658.085,1317.044,658.085z
	 M1373.612,1022.085c-3.719,0-6.729-3.014-6.729-6.729c0-3.721,3.014-6.732,6.729-6.732c3.719,0,6.73,3.014,6.73,6.732
	C1380.345,1019.076,1377.333,1022.085,1373.612,1022.085z M1373.612,970.085c-3.719,0-6.729-3.014-6.729-6.729
	c0-3.721,3.014-6.732,6.729-6.732c3.719,0,6.73,3.014,6.73,6.732C1380.345,967.076,1377.333,970.085,1373.612,970.085z
	 M1373.612,918.085c-3.719,0-6.729-3.014-6.729-6.729c0-3.721,3.014-6.732,6.729-6.732c3.719,0,6.73,3.014,6.73,6.732
	C1380.345,915.076,1377.333,918.085,1373.612,918.085z M1373.612,866.085c-3.719,0-6.729-3.014-6.729-6.729
	c0-3.721,3.014-6.732,6.729-6.732c3.719,0,6.73,3.014,6.73,6.732C1380.345,863.076,1377.333,866.085,1373.612,866.085z
	 M1373.612,814.085c-3.719,0-6.729-3.014-6.729-6.729c0-3.721,3.014-6.732,6.729-6.732c3.719,0,6.73,3.014,6.73,6.732
	C1380.345,811.076,1377.333,814.085,1373.612,814.085z M1373.612,762.085c-3.719,0-6.729-3.014-6.729-6.729
	c0-3.721,3.014-6.732,6.729-6.732c3.719,0,6.73,3.014,6.73,6.732C1380.345,759.076,1377.333,762.085,1373.612,762.085z
	 M1430.183,1022.085c-3.719,0-6.729-3.014-6.729-6.729c0-3.721,3.016-6.732,6.729-6.732c3.72,0,6.731,3.014,6.731,6.732
	C1436.917,1019.074,1433.902,1022.085,1430.183,1022.085z M1430.183,970.085c-3.719,0-6.729-3.014-6.729-6.729
	c0-3.721,3.016-6.732,6.729-6.732c3.72,0,6.731,3.014,6.731,6.732C1436.917,967.074,1433.902,970.085,1430.183,970.085z
	 M1430.183,918.085c-3.719,0-6.729-3.014-6.729-6.729c0-3.721,3.016-6.732,6.729-6.732c3.72,0,6.731,3.014,6.731,6.732
	C1436.917,915.074,1433.902,918.085,1430.183,918.085z M1430.183,866.085c-3.719,0-6.729-3.014-6.729-6.729
	c0-3.721,3.016-6.732,6.729-6.732c3.72,0,6.731,3.014,6.731,6.732C1436.917,863.074,1433.902,866.085,1430.183,866.085z
	 M1430.183,814.085c-3.719,0-6.729-3.014-6.729-6.729c0-3.721,3.016-6.732,6.729-6.732c3.72,0,6.731,3.014,6.731,6.732
	C1436.917,811.074,1433.902,814.085,1430.183,814.085z M1430.183,762.085c-3.719,0-6.729-3.014-6.729-6.729
	c0-3.721,3.016-6.732,6.729-6.732c3.72,0,6.731,3.014,6.731,6.732C1436.917,759.074,1433.902,762.085,1430.183,762.085z
	 M1486.756,1022.085c-3.72,0-6.732-3.014-6.732-6.729c0-3.721,3.016-6.732,6.732-6.732c3.716,0,6.729,3.014,6.729,6.732
	C1493.485,1019.074,1490.473,1022.085,1486.756,1022.085z M1486.756,970.085c-3.72,0-6.732-3.014-6.732-6.729
	c0-3.721,3.016-6.732,6.732-6.732c3.716,0,6.729,3.014,6.729,6.732C1493.485,967.074,1490.473,970.085,1486.756,970.085z
	 M1486.756,918.085c-3.72,0-6.732-3.014-6.732-6.729c0-3.721,3.016-6.732,6.732-6.732c3.716,0,6.729,3.014,6.729,6.732
	C1493.485,915.074,1490.473,918.085,1486.756,918.085z M1486.756,866.085c-3.72,0-6.732-3.014-6.732-6.729
	c0-3.721,3.016-6.732,6.732-6.732c3.716,0,6.729,3.014,6.729,6.732C1493.485,863.074,1490.473,866.085,1486.756,866.085z
	 M1486.756,814.085c-3.72,0-6.732-3.014-6.732-6.729c0-3.721,3.016-6.732,6.732-6.732c3.716,0,6.729,3.014,6.729,6.732
	C1493.485,811.074,1490.473,814.085,1486.756,814.085z M1543.323,970.085c-3.719,0-6.729-3.014-6.729-6.729
	c0-3.721,3.014-6.732,6.729-6.732c3.721,0,6.73,3.014,6.73,6.732C1550.056,967.076,1547.044,970.085,1543.323,970.085z
	 M1543.323,918.085c-3.719,0-6.729-3.014-6.729-6.729c0-3.721,3.014-6.732,6.729-6.732c3.721,0,6.73,3.014,6.73,6.732
	C1550.056,915.076,1547.044,918.085,1543.323,918.085z M1543.323,866.085c-3.719,0-6.729-3.014-6.729-6.729
	c0-3.721,3.014-6.732,6.729-6.732c3.721,0,6.73,3.014,6.73,6.732C1550.056,863.076,1547.044,866.085,1543.323,866.085z
	 M1599.894,918.085c-3.719,0-6.729-3.014-6.729-6.729c0-3.721,3.015-6.732,6.729-6.732c3.72,0,6.732,3.014,6.732,6.732
	C1606.628,915.074,1603.612,918.085,1599.894,918.085z M1599.894,866.085c-3.719,0-6.729-3.014-6.729-6.729
	c0-3.721,3.015-6.732,6.729-6.732c3.72,0,6.732,3.014,6.732,6.732C1606.628,863.074,1603.612,866.085,1599.894,866.085z
	 M1656.467,866.085c-3.72,0-6.732-3.014-6.732-6.729c0-3.721,3.016-6.732,6.732-6.732c3.716,0,6.729,3.014,6.729,6.732
	C1663.196,863.074,1660.183,866.085,1656.467,866.085z"/>
</svg>
