<?xml version="1.0" encoding="utf-8"?>
<!-- Generator: Adobe Illustrator 16.0.0, SVG Export Plug-In . SVG Version: 6.00 Build 0)  -->
<!DOCTYPE svg PUBLIC "-//W3C//DTD SVG 1.1//EN" "http://www.w3.org/Graphics/SVG/1.1/DTD/svg11.dtd">
<svg version="1.1" id="Layer_1" xmlns="http://www.w3.org/2000/svg" xmlns:xlink="http://www.w3.org/1999/xlink" x="0px" y="0px"
	 width="2627.279px" height="1259.074px" viewBox="0 0 2627.279 1259.074" enable-background="new 0 0 2627.279 1259.074"
	 xml:space="preserve">
<path d="M2611.54,364.958l-35.319,3.105c-83.304,7.328-166.634,14.521-250.144,19.094l-21.824,1.193
	c-79.289,3.826-158.666,5.227-238.037,6.23l-66.508-1.064c-81.17-2.184-162.248-6.982-243.104-14.389
	c-12.418-1.137-19.72-1.422-21.906-0.852c-3.904,0.914-7.178,2.496-9.731,4.686c-3.054,2.631-7.507,12.75-9.722,19.297
	c-9.637,28.479-29.439,80.644-48.473,119.111l-5.248,10.613c-1.189,2.307-2.986,5.838-5.441,10.438l-5.655,10.412
	c-6.902,12.707-12.302,25.021-19.941,38.525c-0.402,0.715-9.314,13.756-3.413,22.563c3.77,5.625,10.347,8.494,17.041,8.174
	c3.513-0.168,24.03,0.201,61.64,1.045c44.142,0.99,98.209,1.367,147.315,1.716c13.041,0.09,26.063,0.854,39.104,1.051
	c64.354,0.947,128.822-2.824,193.067,2.01c6.906,0.521,25.938,1.121,57.119,1.656c15.227,0.291,26.596-0.461,34.104-2.188
	c7.59-1.779,21.516-7.342,41.99-16.646c18.33-8.33,36.43-17.266,53.334-28.234c33.268-21.588,69.893-37.254,104.379-56.713
	c38.539-21.746,91.002-51.35,116.178-64.238c0.781-0.396,10.279-5.479,28.424-15.254c28.262-15.133,47.146-25.528,56.582-31.202
	c6.064-3.646,12.137-7.296,18.305-10.77c9.041-5.091,19.843-7.6,27.183-15.353c4.559-5.111,5.604-10.055,3.172-15.043
	C2623.302,368.415,2617.818,364.405,2611.54,364.958 M2303.258,122.533c13.477,5.265,27.211,9.826,40.795,14.799
	c40.707,14.904,80.526,32.098,121.014,47.576c7.135,2.728,26.957,11.433,59.5,26.182c21.129,9.554,28.779,14.567,44.606,30.012
	c19.136,18.567,29.252,28.947,30.392,31.043c3.236,6.053,2.565,11.046-2.144,15.037c-1.598,1.393-5.157,2.223-10.563,2.592
	c-5.182,0.351-29.979-4.25-74.328-13.833c-12.012-2.585-22.625-4.832-31.713-6.639c-42.197-8.388-116.793-19.829-175.34-28.809
	c-2.123-0.326-28.328-4.222-42.49-6.33c-66.315-9.873-123.144-15.716-170.514-17.591c-33.824-1.299-62.411-1.719-85.798-1.323
	c-21.515,0.363-43.035-0.015-64.541,0.742c-28.729,1.012-61.082,1.6-96.894,1.75c-15.756,0.083-26.385,1.278-31.944,3.624
	c-0.349,0.125-18.314,11.041-19.144,11.624c-0.209,0.21-3.188,2.513-8.752,6.958c-15.08,11.954-30.545,23.57-45.354,35.835
	c-8.163,6.759-14.317,7.026-24.438,5.996c-12.286-1.251-24.521-3.685-36.619-6.092l-287.155-44.285
	c-19.89-2.724-34.078-4.509-42.517-5.392c-60.917-6.38-121.582-15.16-182.62-20.38c-28.454-2.435-43.359-3.872-44.687-4.252
	l-126.951-12.83l-11.199-1.149c-33.978-3.645-52.346-6.778-55.144-9.464c-4.949-4.752-3.311-11.672-0.208-16.941
	c3.226-5.391,23.341-21.388,26.425-23.246l14.185-8.55c12.562-7.573,25.271-14.947,38.729-20.827
	c31.751-13.879,64.441-25.585,98.096-33.919c29.474-7.299,59.337-12.88,88.86-19.946l14.104-3.376
	c17.984-4.306,40.715-7.916,61.196-11.17c46.954-7.459,75.579-11.854,85.776-13.21c12.851-1.694,45.021-5.368,96.674-11.035
	c77.625-8.463,171.016-13.65,280.179-15.402c58.974-0.916,105.538,0.183,139.735,3.357c36.565,3.343,91.896,13.115,95.702,14.268
	c37.804,11.449,76.128,21.1,113.966,32.43C2156.426,72.609,2237.95,97.021,2303.258,122.533 M1697.068,309.984
	c-6.477-2.298-13.946-3.143-20.664-4.505c-12.773-2.59-25.571-5.083-38.384-7.499c-7.54-1.404-15.077-2.821-22.624-4.184
	c-2.204-0.398-4.407-0.794-6.61-1.187c-42.734-7.61-159.084-25.971-239.091-35.705c-32.438-3.947-82.821-10.078-97.261-12.35
	c-19.787-3.113-80.748-9.808-121.178-14.248l-119.064-13.075c-21.758-2.389-61.991-7.004-65.271-7.146
	c-13.47-0.585-26.827-4.461-40.369-3.11c-4.025,0.402-8.076,1.326-11.75,3.058c-2.936,1.383-4.477,3.818-6.289,6.388
	c-2.819,3.996-4.546,8.625-5.981,13.265c-4.796,15.512-9.128,31.174-14.622,46.461c-1.604,4.457-3.26,8.896-4.948,13.321
	c-1.245,3.258-2.526,6.547-4.16,9.635c-12.073,22.826-22.521,46.524-35.777,68.709c-1.59,2.658-2.328,6.118-4.621,8.305
	c-2.999,2.86-7.516,1.625-11.203,1.746c-6.48,0.213-12.965,0.347-19.442,0.643c-2.013,0.092-4.136-0.304-6.065,0.478
	c-1.88,0.76-2.677,2.443-3.817,3.987c-13.65,18.397-31.155,34.088-46.193,51.365c-5.266,6.05-72.688,78.432-109.067,117.616
	c-30.951,33.339-60.306,64.493-87.912,93.427c-28.44,29.811-66.358,68.42-99.754,102.423
	c-34.718,35.354-68.907,71.213-103.9,106.291c-15.234,15.271-22.991,23.092-23.13,23.424c-1.148,2.521-1.438,6.08-0.959,10.642
	c0.765,7.256,2.212,21.004,1.12,21.844c-23.752,18.311-41.416,31.594-52.942,40.066c-17.806,13.086-35.048,26.924-53.016,39.789
	c-12.958,9.272-23.286,15.146-31.122,17.641c-7.816,2.562-28.16,3.455-61.166,2.711c-3.728-0.114-7.462-0.273-11.191-0.382
	c-9.021-0.27-18.046-0.606-27.069-0.758c-11.006-0.188-22.104-0.427-33.097-0.993c-6.271-0.326-12.542-0.608-18.814-0.832
	c-8.041-0.286-16.062-0.669-24.109-0.334c-5.621,0.229-12.043,1.262-14.604,7.008c-1.288,2.891-1.406,6.179,0.611,8.783
	c6.979,9.006,13.769,18.156,20.479,27.359c11.345,15.559,32.277,42.651,62.716,81.241c23.764,30.131,45.879,61.521,69.578,91.693
	c5.794,7.377,10.975,12.901,15.435,16.457c4.453,3.549,9.688,5.938,15.205,7.307c10.833,2.688,21.854,4.662,33.014,5.197
	c34.423,1.647,66.993,3.615,97.646,5.918c14.438,1.084,34.711,2.607,43.286-1.475c1.657-0.789,4.271-2.785,7.83-6.062
	c5.354-4.928,9.188-11.174,12.751-17.469c21.32-37.67,36-62.529,43.959-74.559c31.9-48.134,68.007-92.865,108.219-134.256
	c10.336-10.552,31.885-29.938,64.716-58.183c25.943-22.274,66.367-53.102,121.216-92.387
	c76.545-54.851,161.464-103.861,254.688-147.022c36.312-16.812,73.062-32.854,111.332-44.68
	c15.646-4.834,30.953-10.713,46.635-15.451c28.438-8.592,54.836-16.262,86.041-23.159c12.978-2.868,43.803-5.599,65.863-6.521
	l93.134-3.9l141.863,2.531c15.842,0.334,45.178,1.213,47.526,0.83c12.558-2.053,20.98-8.604,25.209-19.666l4.062-10.635
	c18.188-47.608,38.231-94.489,60.269-140.447c15.366-32.057,24.729-51.899,28.229-59.461c5.498-12.157,13.207-28.76,23.057-49.882
	c7.229-15.542,9.123-26.053,5.615-31.611C1707.562,318.794,1703.682,312.332,1697.068,309.984z M101.585,1076.858
	c-3.718,0-6.729-3.018-6.729-6.732s3.015-6.732,6.729-6.732c3.721,0,6.731,3.018,6.731,6.732S105.303,1076.858,101.585,1076.858z
	 M158.155,1128.858c-3.719,0-6.73-3.018-6.73-6.732s3.015-6.732,6.73-6.732c3.719,0,6.731,3.018,6.731,6.732
	S161.874,1128.858,158.155,1128.858z M158.155,1076.858c-3.719,0-6.73-3.018-6.73-6.732s3.015-6.732,6.73-6.732
	c3.719,0,6.731,3.018,6.731,6.732S161.874,1076.858,158.155,1076.858z M214.724,1180.858c-3.719,0-6.73-3.018-6.73-6.732
	s3.015-6.732,6.73-6.732c3.719,0,6.73,3.018,6.73,6.732S218.444,1180.858,214.724,1180.858z M214.724,1128.858
	c-3.719,0-6.73-3.018-6.73-6.732s3.015-6.732,6.73-6.732c3.719,0,6.73,3.018,6.73,6.732S218.444,1128.858,214.724,1128.858z
	 M214.724,1076.858c-3.719,0-6.73-3.018-6.73-6.732s3.015-6.732,6.73-6.732c3.719,0,6.73,3.018,6.73,6.732
	S218.444,1076.858,214.724,1076.858z M271.296,1232.858c-3.718,0-6.729-3.018-6.729-6.732s3.015-6.732,6.729-6.732
	c3.721,0,6.732,3.018,6.732,6.732S275.014,1232.858,271.296,1232.858z M271.296,1180.858c-3.718,0-6.729-3.018-6.729-6.732
	s3.015-6.732,6.729-6.732c3.721,0,6.732,3.018,6.732,6.732S275.014,1180.858,271.296,1180.858z M271.296,1128.858
	c-3.718,0-6.729-3.018-6.729-6.732s3.015-6.732,6.729-6.732c3.721,0,6.732,3.018,6.732,6.732S275.014,1128.858,271.296,1128.858z
	 M271.296,1076.858c-3.718,0-6.729-3.018-6.729-6.732s3.015-6.732,6.729-6.732c3.721,0,6.732,3.018,6.732,6.732
	S275.014,1076.858,271.296,1076.858z M271.296,1024.858c-3.718,0-6.729-3.018-6.729-6.732s3.015-6.731,6.729-6.731
	c3.721,0,6.732,3.017,6.732,6.731S275.014,1024.858,271.296,1024.858z M327.865,1180.858c-3.718,0-6.729-3.018-6.729-6.732
	s3.015-6.732,6.729-6.732c3.722,0,6.731,3.018,6.731,6.732S331.587,1180.858,327.865,1180.858z M327.865,1128.858
	c-3.718,0-6.729-3.018-6.729-6.732s3.015-6.732,6.729-6.732c3.722,0,6.731,3.018,6.731,6.732S331.587,1128.858,327.865,1128.858z
	 M327.865,1076.858c-3.718,0-6.729-3.018-6.729-6.732s3.015-6.732,6.729-6.732c3.722,0,6.731,3.018,6.731,6.732
	S331.587,1076.858,327.865,1076.858z M327.865,1024.858c-3.718,0-6.729-3.018-6.729-6.732s3.015-6.731,6.729-6.731
	c3.722,0,6.731,3.017,6.731,6.731S331.587,1024.858,327.865,1024.858z M327.865,972.858c-3.718,0-6.729-3.018-6.729-6.732
	s3.015-6.732,6.729-6.732c3.722,0,6.731,3.018,6.731,6.732S331.587,972.858,327.865,972.858z M384.435,1128.858
	c-3.719,0-6.729-3.018-6.729-6.732s3.015-6.732,6.729-6.732c3.719,0,6.73,3.018,6.73,6.732S388.154,1128.858,384.435,1128.858z
	 M384.435,1076.858c-3.719,0-6.729-3.018-6.729-6.732s3.015-6.732,6.729-6.732c3.719,0,6.73,3.018,6.73,6.732
	S388.154,1076.858,384.435,1076.858z M384.435,1024.858c-3.719,0-6.729-3.018-6.729-6.732s3.015-6.731,6.729-6.731
	c3.719,0,6.73,3.017,6.73,6.731S388.154,1024.858,384.435,1024.858z M384.435,972.858c-3.719,0-6.729-3.018-6.729-6.732
	s3.015-6.732,6.729-6.732c3.719,0,6.73,3.018,6.73,6.732S388.154,972.858,384.435,972.858z M384.435,920.858
	c-3.719,0-6.729-3.018-6.729-6.732s3.015-6.732,6.729-6.732c3.719,0,6.73,3.018,6.73,6.732S388.154,920.858,384.435,920.858z
	 M441.008,1024.858c-3.719,0-6.73-3.018-6.73-6.732s3.017-6.731,6.73-6.731c3.72,0,6.729,3.017,6.729,6.731
	S444.724,1024.858,441.008,1024.858z M441.008,972.858c-3.719,0-6.73-3.018-6.73-6.732s3.017-6.732,6.73-6.732
	c3.72,0,6.729,3.018,6.729,6.732S444.724,972.858,441.008,972.858z M441.008,920.858c-3.719,0-6.73-3.018-6.73-6.732
	s3.017-6.732,6.73-6.732c3.72,0,6.729,3.018,6.729,6.732S444.724,920.858,441.008,920.858z M441.008,868.858
	c-3.719,0-6.73-3.018-6.73-6.732s3.017-6.732,6.73-6.732c3.72,0,6.729,3.018,6.729,6.732S444.724,868.858,441.008,868.858z
	 M441.008,816.858c-3.719,0-6.73-3.018-6.73-6.732s3.017-6.732,6.73-6.732c3.72,0,6.729,3.018,6.729,6.732
	S444.724,816.858,441.008,816.858z M497.576,972.858c-3.718,0-6.729-3.018-6.729-6.732s3.015-6.732,6.729-6.732
	c3.722,0,6.732,3.018,6.732,6.732S501.298,972.858,497.576,972.858z M497.576,920.858c-3.718,0-6.729-3.018-6.729-6.732
	s3.015-6.732,6.729-6.732c3.722,0,6.732,3.018,6.732,6.732S501.298,920.858,497.576,920.858z M497.576,868.858
	c-3.718,0-6.729-3.018-6.729-6.732s3.015-6.732,6.729-6.732c3.722,0,6.732,3.018,6.732,6.732S501.298,868.858,497.576,868.858z
	 M497.576,816.858c-3.718,0-6.729-3.018-6.729-6.732s3.015-6.732,6.729-6.732c3.722,0,6.732,3.018,6.732,6.732
	S501.298,816.858,497.576,816.858z M497.576,764.858c-3.718,0-6.729-3.018-6.729-6.732s3.015-6.732,6.729-6.732
	c3.722,0,6.732,3.018,6.732,6.732S501.298,764.858,497.576,764.858z M554.146,920.858c-3.719,0-6.729-3.018-6.729-6.732
	s3.015-6.732,6.729-6.732c3.719,0,6.731,3.018,6.731,6.732S557.865,920.858,554.146,920.858z M554.146,868.858
	c-3.719,0-6.729-3.018-6.729-6.732s3.015-6.732,6.729-6.732c3.719,0,6.731,3.018,6.731,6.732S557.865,868.858,554.146,868.858z
	 M554.146,816.858c-3.719,0-6.729-3.018-6.729-6.732s3.015-6.732,6.729-6.732c3.719,0,6.731,3.018,6.731,6.732
	S557.865,816.858,554.146,816.858z M554.146,764.858c-3.719,0-6.729-3.018-6.729-6.732s3.015-6.732,6.729-6.732
	c3.719,0,6.731,3.018,6.731,6.732S557.865,764.858,554.146,764.858z M554.146,712.858c-3.719,0-6.729-3.018-6.729-6.732
	s3.015-6.732,6.729-6.732c3.719,0,6.731,3.018,6.731,6.732S557.865,712.858,554.146,712.858z M610.719,868.858
	c-3.718,0-6.73-3.018-6.73-6.732s3.017-6.732,6.73-6.732c3.72,0,6.73,3.018,6.73,6.732S614.436,868.858,610.719,868.858z
	 M610.719,816.858c-3.718,0-6.73-3.018-6.73-6.732s3.017-6.732,6.73-6.732c3.72,0,6.73,3.018,6.73,6.732
	S614.436,816.858,610.719,816.858z M610.719,764.858c-3.718,0-6.73-3.018-6.73-6.732s3.017-6.732,6.73-6.732
	c3.72,0,6.73,3.018,6.73,6.732S614.436,764.858,610.719,764.858z M610.719,712.858c-3.718,0-6.73-3.018-6.73-6.732
	s3.017-6.732,6.73-6.732c3.72,0,6.73,3.018,6.73,6.732S614.436,712.858,610.719,712.858z M610.719,660.858
	c-3.718,0-6.73-3.018-6.73-6.732s3.017-6.732,6.73-6.732c3.72,0,6.73,3.018,6.73,6.732S614.436,660.858,610.719,660.858z
	 M667.289,816.858c-3.721,0-6.731-3.018-6.731-6.732s3.015-6.732,6.731-6.732c3.718,0,6.73,3.018,6.73,6.732
	S671.008,816.858,667.289,816.858z M667.289,764.858c-3.721,0-6.731-3.018-6.731-6.732s3.015-6.732,6.731-6.732
	c3.718,0,6.73,3.018,6.73,6.732S671.008,764.858,667.289,764.858z M667.289,712.858c-3.721,0-6.731-3.018-6.731-6.732
	s3.015-6.732,6.731-6.732c3.718,0,6.73,3.018,6.73,6.732S671.008,712.858,667.289,712.858z M667.289,660.858
	c-3.721,0-6.731-3.018-6.731-6.732s3.015-6.732,6.731-6.732c3.718,0,6.73,3.018,6.73,6.732S671.008,660.858,667.289,660.858z
	 M667.289,608.858c-3.721,0-6.731-3.018-6.731-6.732s3.015-6.732,6.731-6.732c3.718,0,6.73,3.018,6.73,6.732
	S671.008,608.858,667.289,608.858z M723.858,816.858c-3.72,0-6.729-3.018-6.729-6.732s3.015-6.732,6.729-6.732
	s6.731,3.018,6.731,6.732S727.577,816.858,723.858,816.858z M723.858,764.858c-3.72,0-6.729-3.018-6.729-6.732
	s3.015-6.732,6.729-6.732s6.731,3.018,6.731,6.732S727.577,764.858,723.858,764.858z M723.858,712.858
	c-3.72,0-6.729-3.018-6.729-6.732s3.015-6.732,6.729-6.732s6.731,3.018,6.731,6.732S727.577,712.858,723.858,712.858z
	 M723.858,660.858c-3.72,0-6.729-3.018-6.729-6.732s3.015-6.732,6.729-6.732s6.731,3.018,6.731,6.732
	S727.577,660.858,723.858,660.858z M723.858,608.858c-3.72,0-6.729-3.018-6.729-6.732s3.015-6.732,6.729-6.732
	s6.731,3.018,6.731,6.732S727.577,608.858,723.858,608.858z M723.858,556.858c-3.72,0-6.729-3.018-6.729-6.732
	s3.015-6.732,6.729-6.732s6.731,3.018,6.731,6.732S727.577,556.858,723.858,556.858z M780.428,764.858
	c-3.719,0-6.731-3.018-6.731-6.732s3.017-6.732,6.731-6.732c3.719,0,6.729,3.018,6.729,6.732S784.147,764.858,780.428,764.858z
	 M780.428,712.858c-3.719,0-6.731-3.018-6.731-6.732s3.017-6.732,6.731-6.732c3.719,0,6.729,3.018,6.729,6.732
	S784.147,712.858,780.428,712.858z M780.428,660.858c-3.719,0-6.731-3.018-6.731-6.732s3.017-6.732,6.731-6.732
	c3.719,0,6.729,3.018,6.729,6.732S784.147,660.858,780.428,660.858z M780.428,608.858c-3.719,0-6.731-3.018-6.731-6.732
	s3.017-6.732,6.731-6.732c3.719,0,6.729,3.018,6.729,6.732S784.147,608.858,780.428,608.858z M780.428,556.858
	c-3.719,0-6.731-3.018-6.731-6.732s3.017-6.732,6.731-6.732c3.719,0,6.729,3.018,6.729,6.732S784.147,556.858,780.428,556.858z
	 M780.428,504.858c-3.719,0-6.731-3.018-6.731-6.732s3.017-6.732,6.731-6.732c3.719,0,6.729,3.018,6.729,6.732
	S784.147,504.858,780.428,504.858z M837.001,712.858c-3.722,0-6.732-3.018-6.732-6.732s3.015-6.732,6.732-6.732
	c3.717,0,6.729,3.018,6.729,6.732S840.719,712.858,837.001,712.858z M837.001,660.858c-3.722,0-6.732-3.018-6.732-6.732
	s3.015-6.732,6.732-6.732c3.717,0,6.729,3.018,6.729,6.732S840.719,660.858,837.001,660.858z M837.001,608.858
	c-3.722,0-6.732-3.018-6.732-6.732s3.015-6.732,6.732-6.732c3.717,0,6.729,3.018,6.729,6.732S840.719,608.858,837.001,608.858z
	 M837.001,556.858c-3.722,0-6.732-3.018-6.732-6.732s3.015-6.732,6.732-6.732c3.717,0,6.729,3.018,6.729,6.732
	S840.719,556.858,837.001,556.858z M837.001,504.858c-3.722,0-6.732-3.018-6.732-6.732s3.015-6.732,6.732-6.732
	c3.717,0,6.729,3.018,6.729,6.732S840.719,504.858,837.001,504.858z M837.001,452.858c-3.722,0-6.732-3.018-6.732-6.732
	s3.015-6.732,6.732-6.732c3.717,0,6.729,3.018,6.729,6.732S840.719,452.858,837.001,452.858z M893.569,712.858
	c-3.719,0-6.729-3.018-6.729-6.732s3.015-6.732,6.729-6.732c3.717,0,6.731,3.018,6.731,6.732S897.289,712.858,893.569,712.858z
	 M893.569,660.858c-3.719,0-6.729-3.018-6.729-6.732s3.015-6.732,6.729-6.732c3.717,0,6.731,3.018,6.731,6.732
	S897.289,660.858,893.569,660.858z M893.569,608.858c-3.719,0-6.729-3.018-6.729-6.732s3.015-6.732,6.729-6.732
	c3.717,0,6.731,3.018,6.731,6.732S897.289,608.858,893.569,608.858z M893.569,556.858c-3.719,0-6.729-3.018-6.729-6.732
	s3.015-6.732,6.729-6.732c3.717,0,6.731,3.018,6.731,6.732S897.289,556.858,893.569,556.858z M893.569,504.858
	c-3.719,0-6.729-3.018-6.729-6.732s3.015-6.732,6.729-6.732c3.717,0,6.731,3.018,6.731,6.732S897.289,504.858,893.569,504.858z
	 M893.569,452.858c-3.719,0-6.729-3.018-6.729-6.732s3.015-6.732,6.729-6.732c3.717,0,6.731,3.018,6.731,6.732
	S897.289,452.858,893.569,452.858z M893.569,400.858c-3.719,0-6.729-3.015-6.729-6.732s3.015-6.732,6.729-6.732
	c3.717,0,6.731,3.014,6.731,6.732S897.289,400.858,893.569,400.858z M893.569,348.858c-3.719,0-6.729-3.014-6.729-6.732
	s3.015-6.732,6.729-6.732c3.717,0,6.731,3.014,6.731,6.732S897.289,348.858,893.569,348.858z M950.139,660.858
	c-3.719,0-6.731-3.018-6.731-6.732s3.017-6.732,6.731-6.732c3.719,0,6.731,3.018,6.731,6.732S953.858,660.858,950.139,660.858z
	 M950.139,608.858c-3.719,0-6.731-3.018-6.731-6.732s3.017-6.732,6.731-6.732c3.719,0,6.731,3.018,6.731,6.732
	S953.858,608.858,950.139,608.858z M950.139,556.858c-3.719,0-6.731-3.018-6.731-6.732s3.017-6.732,6.731-6.732
	c3.719,0,6.731,3.018,6.731,6.732S953.858,556.858,950.139,556.858z M950.139,504.858c-3.719,0-6.731-3.018-6.731-6.732
	s3.017-6.732,6.731-6.732c3.719,0,6.731,3.018,6.731,6.732S953.858,504.858,950.139,504.858z M950.139,452.858
	c-3.719,0-6.731-3.018-6.731-6.732s3.017-6.732,6.731-6.732c3.719,0,6.731,3.018,6.731,6.732S953.858,452.858,950.139,452.858z
	 M950.139,400.858c-3.719,0-6.731-3.015-6.731-6.732s3.017-6.732,6.731-6.732c3.719,0,6.731,3.014,6.731,6.732
	S953.858,400.858,950.139,400.858z M950.139,348.858c-3.719,0-6.731-3.014-6.731-6.732s3.017-6.732,6.731-6.732
	c3.719,0,6.731,3.014,6.731,6.732S953.858,348.858,950.139,348.858z M950.139,296.858c-3.719,0-6.731-3.014-6.731-6.732
	s3.017-6.732,6.731-6.732c3.719,0,6.731,3.014,6.731,6.732S953.858,296.858,950.139,296.858z M950.139,244.858
	c-3.719,0-6.731-3.014-6.731-6.732s3.017-6.732,6.731-6.732c3.719,0,6.731,3.014,6.731,6.732S953.858,244.858,950.139,244.858z
	 M1006.712,660.858c-3.722,0-6.731-3.018-6.731-6.732s3.014-6.732,6.731-6.732c3.717,0,6.729,3.018,6.729,6.732
	S1010.428,660.858,1006.712,660.858z M1006.712,608.858c-3.722,0-6.731-3.018-6.731-6.732s3.014-6.732,6.731-6.732
	c3.717,0,6.729,3.018,6.729,6.732S1010.428,608.858,1006.712,608.858z M1006.712,556.858c-3.722,0-6.731-3.018-6.731-6.732
	s3.014-6.732,6.731-6.732c3.717,0,6.729,3.018,6.729,6.732S1010.428,556.858,1006.712,556.858z M1006.712,504.858
	c-3.722,0-6.731-3.018-6.731-6.732s3.014-6.732,6.731-6.732c3.717,0,6.729,3.018,6.729,6.732S1010.428,504.858,1006.712,504.858z
	 M1006.712,452.858c-3.722,0-6.731-3.018-6.731-6.732s3.014-6.732,6.731-6.732c3.717,0,6.729,3.018,6.729,6.732
	S1010.428,452.858,1006.712,452.858z M1006.712,400.858c-3.722,0-6.731-3.015-6.731-6.732s3.014-6.732,6.731-6.732
	c3.717,0,6.729,3.014,6.729,6.732S1010.428,400.858,1006.712,400.858z M1006.712,348.858c-3.722,0-6.731-3.014-6.731-6.732
	s3.014-6.732,6.731-6.732c3.717,0,6.729,3.014,6.729,6.732S1010.428,348.858,1006.712,348.858z M1006.712,296.858
	c-3.722,0-6.731-3.014-6.731-6.732s3.014-6.732,6.731-6.732c3.717,0,6.729,3.014,6.729,6.732S1010.428,296.858,1006.712,296.858z
	 M1063.28,608.858c-3.719,0-6.729-3.018-6.729-6.732s3.015-6.732,6.729-6.732c3.719,0,6.731,3.018,6.731,6.732
	S1067.001,608.858,1063.28,608.858z M1063.28,556.858c-3.719,0-6.729-3.018-6.729-6.732s3.015-6.732,6.729-6.732
	c3.719,0,6.731,3.018,6.731,6.732S1067.001,556.858,1063.28,556.858z M1063.28,504.858c-3.719,0-6.729-3.018-6.729-6.732
	s3.015-6.732,6.729-6.732c3.719,0,6.731,3.018,6.731,6.732S1067.001,504.858,1063.28,504.858z M1063.28,452.858
	c-3.719,0-6.729-3.018-6.729-6.732s3.015-6.732,6.729-6.732c3.719,0,6.731,3.018,6.731,6.732S1067.001,452.858,1063.28,452.858z
	 M1063.28,400.858c-3.719,0-6.729-3.015-6.729-6.732s3.015-6.732,6.729-6.732c3.719,0,6.731,3.014,6.731,6.732
	S1067.001,400.858,1063.28,400.858z M1063.28,348.858c-3.719,0-6.729-3.014-6.729-6.732s3.015-6.732,6.729-6.732
	c3.719,0,6.731,3.014,6.731,6.732S1067.001,348.858,1063.28,348.858z M1063.28,296.858c-3.719,0-6.729-3.014-6.729-6.732
	s3.015-6.732,6.729-6.732c3.719,0,6.731,3.014,6.731,6.732S1067.001,296.858,1063.28,296.858z M1119.849,608.858
	c-3.719,0-6.731-3.018-6.731-6.732s3.017-6.732,6.731-6.732c3.719,0,6.731,3.018,6.731,6.732S1123.569,608.858,1119.849,608.858z
	 M1119.849,556.858c-3.719,0-6.731-3.018-6.731-6.732s3.017-6.732,6.731-6.732c3.719,0,6.731,3.018,6.731,6.732
	S1123.569,556.858,1119.849,556.858z M1119.849,504.858c-3.719,0-6.731-3.018-6.731-6.732s3.017-6.732,6.731-6.732
	c3.719,0,6.731,3.018,6.731,6.732S1123.569,504.858,1119.849,504.858z M1119.849,452.858c-3.719,0-6.731-3.018-6.731-6.732
	s3.017-6.732,6.731-6.732c3.719,0,6.731,3.018,6.731,6.732S1123.569,452.858,1119.849,452.858z M1119.849,400.858
	c-3.719,0-6.731-3.015-6.731-6.732s3.017-6.732,6.731-6.732c3.719,0,6.731,3.014,6.731,6.732S1123.569,400.858,1119.849,400.858z
	 M1119.849,348.858c-3.719,0-6.731-3.014-6.731-6.732s3.017-6.732,6.731-6.732c3.719,0,6.731,3.014,6.731,6.732
	S1123.569,348.858,1119.849,348.858z M1119.849,296.858c-3.719,0-6.731-3.014-6.731-6.732s3.017-6.732,6.731-6.732
	c3.719,0,6.731,3.014,6.731,6.732S1123.569,296.858,1119.849,296.858z M1176.423,608.858c-3.721,0-6.731-3.018-6.731-6.732
	s3.017-6.732,6.731-6.732c3.719,0,6.729,3.018,6.729,6.732S1180.139,608.858,1176.423,608.858z M1176.423,556.858
	c-3.721,0-6.731-3.018-6.731-6.732s3.017-6.732,6.731-6.732c3.719,0,6.729,3.018,6.729,6.732S1180.139,556.858,1176.423,556.858z
	 M1176.423,504.858c-3.721,0-6.731-3.018-6.731-6.732s3.017-6.732,6.731-6.732c3.719,0,6.729,3.018,6.729,6.732
	S1180.139,504.858,1176.423,504.858z M1176.423,452.858c-3.721,0-6.731-3.018-6.731-6.732s3.017-6.732,6.731-6.732
	c3.719,0,6.729,3.018,6.729,6.732S1180.139,452.858,1176.423,452.858z M1176.423,400.858c-3.721,0-6.731-3.015-6.731-6.732
	s3.017-6.732,6.731-6.732c3.719,0,6.729,3.014,6.729,6.732S1180.139,400.858,1176.423,400.858z M1176.423,348.858
	c-3.721,0-6.731-3.014-6.731-6.732s3.017-6.732,6.731-6.732c3.719,0,6.729,3.014,6.729,6.732S1180.139,348.858,1176.423,348.858z
	 M1176.423,296.858c-3.721,0-6.731-3.014-6.731-6.732s3.017-6.732,6.731-6.732c3.719,0,6.729,3.014,6.729,6.732
	S1180.139,296.858,1176.423,296.858z M1232.991,556.858c-3.719,0-6.729-3.018-6.729-6.732s3.015-6.732,6.729-6.732
	c3.719,0,6.731,3.018,6.731,6.732S1236.712,556.858,1232.991,556.858z M1232.991,504.858c-3.719,0-6.729-3.018-6.729-6.732
	s3.015-6.732,6.729-6.732c3.719,0,6.731,3.018,6.731,6.732S1236.712,504.858,1232.991,504.858z M1232.991,452.858
	c-3.719,0-6.729-3.018-6.729-6.732s3.015-6.732,6.729-6.732c3.719,0,6.731,3.018,6.731,6.732S1236.712,452.858,1232.991,452.858z
	 M1232.991,400.858c-3.719,0-6.729-3.015-6.729-6.732s3.015-6.732,6.729-6.732c3.719,0,6.731,3.014,6.731,6.732
	S1236.712,400.858,1232.991,400.858z M1232.991,348.858c-3.719,0-6.729-3.014-6.729-6.732s3.015-6.732,6.729-6.732
	c3.719,0,6.731,3.014,6.731,6.732S1236.712,348.858,1232.991,348.858z M1232.991,296.858c-3.719,0-6.729-3.014-6.729-6.732
	s3.015-6.732,6.729-6.732c3.719,0,6.731,3.014,6.731,6.732S1236.712,296.858,1232.991,296.858z M1289.561,556.858
	c-3.72,0-6.732-3.018-6.732-6.732s3.017-6.732,6.732-6.732s6.73,3.018,6.73,6.732S1293.28,556.858,1289.561,556.858z
	 M1289.561,504.858c-3.72,0-6.732-3.018-6.732-6.732s3.017-6.732,6.732-6.732s6.73,3.018,6.73,6.732
	S1293.28,504.858,1289.561,504.858z M1289.561,452.858c-3.72,0-6.732-3.018-6.732-6.732s3.017-6.732,6.732-6.732
	s6.73,3.018,6.73,6.732S1293.28,452.858,1289.561,452.858z M1289.561,400.858c-3.72,0-6.732-3.015-6.732-6.732
	s3.017-6.732,6.732-6.732s6.73,3.014,6.73,6.732S1293.28,400.858,1289.561,400.858z M1289.561,348.858
	c-3.72,0-6.732-3.014-6.732-6.732s3.017-6.732,6.732-6.732s6.73,3.014,6.73,6.732S1293.28,348.858,1289.561,348.858z
	 M1289.561,296.858c-3.72,0-6.732-3.014-6.732-6.732s3.017-6.732,6.732-6.732s6.73,3.014,6.73,6.732
	S1293.28,296.858,1289.561,296.858z M1346.133,556.858c-3.721,0-6.731-3.018-6.731-6.732s3.016-6.732,6.731-6.732
	c3.715,0,6.729,3.018,6.729,6.732S1349.849,556.858,1346.133,556.858z M1346.133,504.858c-3.721,0-6.731-3.018-6.731-6.732
	s3.016-6.732,6.731-6.732c3.715,0,6.729,3.018,6.729,6.732S1349.849,504.858,1346.133,504.858z M1346.133,452.858
	c-3.721,0-6.731-3.018-6.731-6.732s3.016-6.732,6.731-6.732c3.715,0,6.729,3.018,6.729,6.732S1349.849,452.858,1346.133,452.858z
	 M1346.133,400.858c-3.721,0-6.731-3.015-6.731-6.732s3.016-6.732,6.731-6.732c3.715,0,6.729,3.014,6.729,6.732
	S1349.849,400.858,1346.133,400.858z M1346.133,348.858c-3.721,0-6.731-3.014-6.731-6.732s3.016-6.732,6.731-6.732
	c3.715,0,6.729,3.014,6.729,6.732S1349.849,348.858,1346.133,348.858z M1346.133,296.858c-3.721,0-6.731-3.014-6.731-6.732
	s3.016-6.732,6.731-6.732c3.715,0,6.729,3.014,6.729,6.732S1349.849,296.858,1346.133,296.858z M1402.701,556.858
	c-3.719,0-6.729-3.018-6.729-6.732s3.015-6.732,6.729-6.732c3.72,0,6.732,3.018,6.732,6.732S1406.423,556.858,1402.701,556.858z
	 M1402.701,504.858c-3.719,0-6.729-3.018-6.729-6.732s3.015-6.732,6.729-6.732c3.72,0,6.732,3.018,6.732,6.732
	S1406.423,504.858,1402.701,504.858z M1402.701,452.858c-3.719,0-6.729-3.018-6.729-6.732s3.015-6.732,6.729-6.732
	c3.72,0,6.732,3.018,6.732,6.732S1406.423,452.858,1402.701,452.858z M1402.701,400.858c-3.719,0-6.729-3.015-6.729-6.732
	s3.015-6.732,6.729-6.732c3.72,0,6.732,3.014,6.732,6.732S1406.423,400.858,1402.701,400.858z M1402.701,348.858
	c-3.719,0-6.729-3.014-6.729-6.732s3.015-6.732,6.729-6.732c3.72,0,6.732,3.014,6.732,6.732S1406.423,348.858,1402.701,348.858z
	 M1459.272,556.858c-3.72,0-6.732-3.018-6.732-6.732s3.017-6.732,6.732-6.732s6.73,3.018,6.73,6.732
	S1462.99,556.858,1459.272,556.858z M1459.272,504.858c-3.72,0-6.732-3.018-6.732-6.732s3.017-6.732,6.732-6.732
	s6.73,3.018,6.73,6.732S1462.99,504.858,1459.272,504.858z M1459.272,452.858c-3.72,0-6.732-3.018-6.732-6.732
	s3.017-6.732,6.732-6.732s6.73,3.018,6.73,6.732S1462.99,452.858,1459.272,452.858z M1459.272,400.858
	c-3.72,0-6.732-3.015-6.732-6.732s3.017-6.732,6.732-6.732s6.73,3.014,6.73,6.732S1462.99,400.858,1459.272,400.858z
	 M1459.272,348.858c-3.72,0-6.732-3.014-6.732-6.732s3.017-6.732,6.732-6.732s6.73,3.014,6.73,6.732
	S1462.99,348.858,1459.272,348.858z M1515.844,556.858c-3.72,0-6.731-3.018-6.731-6.732s3.017-6.732,6.731-6.732
	c3.719,0,6.729,3.018,6.729,6.732S1519.561,556.858,1515.844,556.858z M1515.844,504.858c-3.72,0-6.731-3.018-6.731-6.732
	s3.017-6.732,6.731-6.732c3.719,0,6.729,3.018,6.729,6.732S1519.561,504.858,1515.844,504.858z M1515.844,452.858
	c-3.72,0-6.731-3.018-6.731-6.732s3.017-6.732,6.731-6.732c3.719,0,6.729,3.018,6.729,6.732S1519.561,452.858,1515.844,452.858z
	 M1515.844,400.858c-3.72,0-6.731-3.015-6.731-6.732s3.017-6.732,6.731-6.732c3.719,0,6.729,3.014,6.729,6.732
	S1519.561,400.858,1515.844,400.858z M1515.844,348.858c-3.72,0-6.731-3.014-6.731-6.732s3.017-6.732,6.731-6.732
	c3.719,0,6.729,3.014,6.729,6.732S1519.561,348.858,1515.844,348.858z M1572.412,556.858c-3.719,0-6.729-3.018-6.729-6.732
	s3.015-6.732,6.729-6.732c3.72,0,6.732,3.018,6.732,6.732S1576.133,556.858,1572.412,556.858z M1572.412,504.858
	c-3.719,0-6.729-3.018-6.729-6.732s3.015-6.732,6.729-6.732c3.72,0,6.732,3.018,6.732,6.732S1576.133,504.858,1572.412,504.858z
	 M1572.412,452.858c-3.719,0-6.729-3.018-6.729-6.732s3.015-6.732,6.729-6.732c3.72,0,6.732,3.018,6.732,6.732
	S1576.133,452.858,1572.412,452.858z M1572.412,400.858c-3.719,0-6.729-3.015-6.729-6.732s3.015-6.732,6.729-6.732
	c3.72,0,6.732,3.014,6.732,6.732S1576.133,400.858,1572.412,400.858z M1572.412,348.858c-3.719,0-6.729-3.014-6.729-6.732
	s3.015-6.732,6.729-6.732c3.72,0,6.732,3.014,6.732,6.732S1576.133,348.858,1572.412,348.858z M1628.983,400.858
	c-3.72,0-6.729-3.015-6.729-6.732s3.015-6.732,6.729-6.732s6.731,3.014,6.731,6.732S1632.701,400.858,1628.983,400.858z
	 M1628.983,348.858c-3.72,0-6.729-3.014-6.729-6.732s3.015-6.732,6.729-6.732s6.731,3.014,6.731,6.732
	S1632.701,348.858,1628.983,348.858z"/>
</svg>
