<?xml version="1.0" encoding="utf-8"?>
<!-- Generator: Adobe Illustrator 16.0.0, SVG Export Plug-In . SVG Version: 6.00 Build 0)  -->
<!DOCTYPE svg PUBLIC "-//W3C//DTD SVG 1.1//EN" "http://www.w3.org/Graphics/SVG/1.1/DTD/svg11.dtd">
<svg version="1.1" id="Layer_1" xmlns="http://www.w3.org/2000/svg" xmlns:xlink="http://www.w3.org/1999/xlink" x="0px" y="0px"
	 width="2616.871px" height="1247.439px" viewBox="0 0 2616.871 1247.439" enable-background="new 0 0 2616.871 1247.439"
	 xml:space="preserve">
<path fill="none" stroke="#000000" stroke-linejoin="round" stroke-miterlimit="10" d="M991.424,620.816
	c3.515-1.329,6.613-3.653,8.781-6.889c5.903-8.812-3.011-21.854-3.415-22.569c-7.642-13.505-13.037-25.818-19.942-38.525l0,0
	l-5.656-10.41l0,0c-2.453-4.603-4.251-8.134-5.442-10.439l0,0l-5.249-10.612l0,0c-19.028-38.474-38.834-90.632-48.469-119.111
	c-2.215-6.548-6.668-16.668-9.723-19.297c-2.555-2.191-5.827-3.773-9.733-4.687c-2.187-0.569-9.488-0.286-21.905,0.853
	c-80.861,7.405-161.938,12.205-243.107,14.387l0,0l-66.506,1.064l0,0c-79.372-1.002-158.748-2.403-238.039-6.229l0,0l-21.826-1.194
	l0,0c-83.507-4.571-166.836-11.765-250.14-19.092l0,0l-35.319-3.107l0,0c-1.109-0.098-2.194-0.053-3.243,0.118"/>
<path fill="none" stroke="#000000" stroke-linejoin="round" stroke-miterlimit="10" d="M25.723,278.511
	c-0.18,3.292,1.186,6.178,4.129,8.671c1.595,1.393,5.158,2.223,10.564,2.593c5.18,0.351,29.978-4.251,74.328-13.833
	c12.012-2.585,22.624-4.833,31.713-6.639c42.198-8.388,116.793-19.829,175.34-28.809c2.123-0.326,28.327-4.222,42.49-6.33
	c66.316-9.873,123.143-15.716,170.514-17.591c33.823-1.298,62.41-1.719,85.796-1.324c21.514,0.364,43.036-0.015,64.541,0.743
	c28.731,1.012,61.082,1.6,96.892,1.75c15.755,0.083,26.385,1.279,31.947,3.625c0.347,0.124,18.313,11.041,19.141,11.623
	c0.209,0.21,3.191,2.513,8.752,6.958c34.984,27.734,52.488,41.65,52.612,41.725c5.786,1.976,23.708,0.001,53.8-5.985l287.159-44.285
	c19.886-2.724,34.077-4.509,42.513-5.392c60.918-6.38,121.58-15.16,182.619-20.38c28.455-2.434,43.361-3.871,44.684-4.251
	l126.953-12.831l11.201-1.149c12.529-1.344,25.209-2.487,37.59-4.878c5.858-1.131,14.868-0.881,18.844-6.103
	c5.812-7.632-1.021-16.078-6.851-21.716"/>
<path fill="none" stroke="#000000" stroke-linejoin="round" stroke-miterlimit="10" d="M1711.313,210.333
	c-1.055-2.274-2.271-4.448-3.722-6.458c-6.976-9.667-18.984-9.273-29.746-8.459c-24.458,1.851-48.978,5.239-73.359,7.975
	c-6.617,0.742-13.233,1.498-19.854,2.209l-119.066,13.076c-40.428,4.44-101.389,11.134-121.178,14.248
	c-14.438,2.272-64.819,8.402-97.261,12.35c-80.005,9.734-196.353,28.095-239.089,35.705c-22.627,4.029-45.132,8.309-67.622,12.869
	c-6.375,1.292-12.993,1.353-19.167,3.585c-6.572,2.376-11.919,9.617-15.541,15.355c-3.507,5.557-1.61,16.069,5.619,31.611
	c9.851,21.121,17.559,37.725,23.057,49.882c3.497,7.56,12.859,27.405,28.227,59.46c22.032,45.958,42.077,92.839,60.267,140.446
	l4.063,10.636c2.463,6.448,6.355,11.364,11.66,14.75"/>
</svg>
