<?xml version="1.0" encoding="utf-8"?>
<!-- Generator: Adobe Illustrator 16.0.0, SVG Export Plug-In . SVG Version: 6.00 Build 0)  -->
<!DOCTYPE svg PUBLIC "-//W3C//DTD SVG 1.1//EN" "http://www.w3.org/Graphics/SVG/1.1/DTD/svg11.dtd">
<svg version="1.1" id="Layer_1" xmlns="http://www.w3.org/2000/svg" xmlns:xlink="http://www.w3.org/1999/xlink" x="0px" y="0px"
	 width="3024.781px" height="1287.273px" viewBox="0 0 3024.781 1287.273" enable-background="new 0 0 3024.781 1287.273"
	 xml:space="preserve">
<path fill="none" stroke="#000001" stroke-linejoin="round" stroke-miterlimit="10" d="M976.496,423.464
	c3.719,0,6.732,3.015,6.732,6.732s-3.014,6.731-6.732,6.731c-3.718,0-6.731-3.014-6.731-6.731S972.778,423.464,976.496,423.464z
	 M976.496,371.464c3.719,0,6.732,3.014,6.732,6.732c0,3.718-3.014,6.732-6.732,6.732c-3.718,0-6.731-3.014-6.731-6.732
	C969.764,374.478,972.778,371.464,976.496,371.464z M976.496,319.464c3.719,0,6.732,3.014,6.732,6.732
	c0,3.718-3.014,6.732-6.732,6.732c-3.718,0-6.731-3.014-6.731-6.732C969.764,322.478,972.778,319.464,976.496,319.464z
	 M1033.066,527.464c3.718,0,6.732,3.015,6.732,6.732s-3.015,6.731-6.732,6.731s-6.731-3.014-6.731-6.731
	S1029.348,527.464,1033.066,527.464z M1033.066,475.464c3.718,0,6.732,3.015,6.732,6.732s-3.015,6.731-6.732,6.731
	s-6.731-3.014-6.731-6.731S1029.348,475.464,1033.066,475.464z M1033.066,423.464c3.718,0,6.732,3.015,6.732,6.732
	s-3.015,6.731-6.732,6.731s-6.731-3.014-6.731-6.731S1029.348,423.464,1033.066,423.464z M1033.066,371.464
	c3.718,0,6.732,3.014,6.732,6.732c0,3.718-3.015,6.732-6.732,6.732s-6.731-3.014-6.731-6.732
	C1026.335,374.478,1029.348,371.464,1033.066,371.464z M1033.066,319.464c3.718,0,6.732,3.014,6.732,6.732
	c0,3.718-3.015,6.732-6.732,6.732s-6.731-3.014-6.731-6.732C1026.335,322.478,1029.348,319.464,1033.066,319.464z M1089.637,579.464
	c3.718,0,6.731,3.015,6.731,6.732s-3.014,6.731-6.731,6.731c-3.719,0-6.732-3.014-6.732-6.731S1085.919,579.464,1089.637,579.464z
	 M1089.637,527.464c3.718,0,6.731,3.015,6.731,6.732s-3.014,6.731-6.731,6.731c-3.719,0-6.732-3.014-6.732-6.731
	S1085.919,527.464,1089.637,527.464z M1089.637,475.464c3.718,0,6.731,3.015,6.731,6.732s-3.014,6.731-6.731,6.731
	c-3.719,0-6.732-3.014-6.732-6.731S1085.919,475.464,1089.637,475.464z M1089.637,423.464c3.718,0,6.731,3.015,6.731,6.732
	s-3.014,6.731-6.731,6.731c-3.719,0-6.732-3.014-6.732-6.731S1085.919,423.464,1089.637,423.464z M1089.637,371.464
	c3.718,0,6.731,3.014,6.731,6.732c0,3.718-3.014,6.732-6.731,6.732c-3.719,0-6.732-3.014-6.732-6.732
	C1082.905,374.478,1085.919,371.464,1089.637,371.464z M1089.637,319.464c3.718,0,6.731,3.014,6.731,6.732
	c0,3.718-3.014,6.732-6.731,6.732c-3.719,0-6.732-3.014-6.732-6.732C1082.905,322.478,1085.919,319.464,1089.637,319.464z
	 M1146.208,579.464c3.718,0,6.731,3.015,6.731,6.732s-3.014,6.731-6.731,6.731c-3.719,0-6.732-3.014-6.732-6.731
	S1142.489,579.464,1146.208,579.464z M1146.208,527.464c3.718,0,6.731,3.015,6.731,6.732s-3.014,6.731-6.731,6.731
	c-3.719,0-6.732-3.014-6.732-6.731S1142.489,527.464,1146.208,527.464z M1146.208,475.464c3.718,0,6.731,3.015,6.731,6.732
	s-3.014,6.731-6.731,6.731c-3.719,0-6.732-3.014-6.732-6.731S1142.489,475.464,1146.208,475.464z M1146.208,423.464
	c3.718,0,6.731,3.015,6.731,6.732s-3.014,6.731-6.731,6.731c-3.719,0-6.732-3.014-6.732-6.731S1142.489,423.464,1146.208,423.464z
	 M1146.208,371.464c3.718,0,6.731,3.014,6.731,6.732c0,3.718-3.014,6.732-6.731,6.732c-3.719,0-6.732-3.014-6.732-6.732
	C1139.475,374.478,1142.489,371.464,1146.208,371.464z M1146.208,319.464c3.718,0,6.731,3.014,6.731,6.732
	c0,3.718-3.014,6.732-6.731,6.732c-3.719,0-6.732-3.014-6.732-6.732C1139.475,322.478,1142.489,319.464,1146.208,319.464z
	 M1146.208,267.464c3.718,0,6.731,3.014,6.731,6.732c0,3.718-3.014,6.731-6.731,6.731c-3.719,0-6.732-3.014-6.732-6.731
	C1139.475,270.478,1142.489,267.464,1146.208,267.464z M1202.777,579.464c3.718,0,6.732,3.015,6.732,6.732s-3.015,6.731-6.732,6.731
	s-6.731-3.014-6.731-6.731S1199.059,579.464,1202.777,579.464z M1202.777,527.464c3.718,0,6.732,3.015,6.732,6.732
	s-3.015,6.731-6.732,6.731s-6.731-3.014-6.731-6.731S1199.059,527.464,1202.777,527.464z M1202.777,475.464
	c3.718,0,6.732,3.015,6.732,6.732s-3.015,6.731-6.732,6.731s-6.731-3.014-6.731-6.731S1199.059,475.464,1202.777,475.464z
	 M1202.777,423.464c3.718,0,6.732,3.015,6.732,6.732s-3.015,6.731-6.732,6.731s-6.731-3.014-6.731-6.731
	S1199.059,423.464,1202.777,423.464z M1202.777,371.464c3.718,0,6.732,3.014,6.732,6.732c0,3.718-3.015,6.732-6.732,6.732
	s-6.731-3.014-6.731-6.732C1196.046,374.478,1199.059,371.464,1202.777,371.464z M1202.777,319.464c3.718,0,6.732,3.014,6.732,6.732
	c0,3.718-3.015,6.732-6.732,6.732s-6.731-3.014-6.731-6.732C1196.046,322.478,1199.059,319.464,1202.777,319.464z M1202.777,267.464
	c3.718,0,6.732,3.014,6.732,6.732c0,3.718-3.015,6.731-6.732,6.731s-6.731-3.014-6.731-6.731
	C1196.046,270.478,1199.059,267.464,1202.777,267.464z M1259.348,579.464c3.718,0,6.732,3.015,6.732,6.732s-3.015,6.731-6.732,6.731
	s-6.732-3.014-6.732-6.731S1255.631,579.464,1259.348,579.464z M1259.348,527.464c3.718,0,6.732,3.015,6.732,6.732
	s-3.015,6.731-6.732,6.731s-6.732-3.014-6.732-6.731S1255.631,527.464,1259.348,527.464z M1259.348,475.464
	c3.718,0,6.732,3.015,6.732,6.732s-3.015,6.731-6.732,6.731s-6.732-3.014-6.732-6.731S1255.631,475.464,1259.348,475.464z
	 M1259.348,423.464c3.718,0,6.732,3.015,6.732,6.732s-3.015,6.731-6.732,6.731s-6.732-3.014-6.732-6.731
	S1255.631,423.464,1259.348,423.464z M1259.348,371.464c3.718,0,6.732,3.014,6.732,6.732c0,3.718-3.015,6.732-6.732,6.732
	s-6.732-3.014-6.732-6.732C1252.616,374.478,1255.631,371.464,1259.348,371.464z M1259.348,319.464c3.718,0,6.732,3.014,6.732,6.732
	c0,3.718-3.015,6.732-6.732,6.732s-6.732-3.014-6.732-6.732C1252.616,322.478,1255.631,319.464,1259.348,319.464z M1259.348,267.464
	c3.718,0,6.732,3.014,6.732,6.732c0,3.718-3.015,6.731-6.732,6.731s-6.732-3.014-6.732-6.731
	C1252.616,270.478,1255.631,267.464,1259.348,267.464z M1315.919,579.464c3.718,0,6.731,3.015,6.731,6.732s-3.014,6.731-6.731,6.731
	c-3.719,0-6.732-3.014-6.732-6.731S1312.2,579.464,1315.919,579.464z M1315.919,527.464c3.718,0,6.731,3.015,6.731,6.732
	s-3.014,6.731-6.731,6.731c-3.719,0-6.732-3.014-6.732-6.731S1312.2,527.464,1315.919,527.464z M1315.919,475.464
	c3.718,0,6.731,3.015,6.731,6.732s-3.014,6.731-6.731,6.731c-3.719,0-6.732-3.014-6.732-6.731S1312.2,475.464,1315.919,475.464z
	 M1315.919,423.464c3.718,0,6.731,3.015,6.731,6.732s-3.014,6.731-6.731,6.731c-3.719,0-6.732-3.014-6.732-6.731
	S1312.2,423.464,1315.919,423.464z M1315.919,371.464c3.718,0,6.731,3.014,6.731,6.732c0,3.718-3.014,6.732-6.731,6.732
	c-3.719,0-6.732-3.014-6.732-6.732C1309.186,374.478,1312.2,371.464,1315.919,371.464z M1315.919,319.464
	c3.718,0,6.731,3.014,6.731,6.732c0,3.718-3.014,6.732-6.731,6.732c-3.719,0-6.732-3.014-6.732-6.732
	C1309.186,322.478,1312.2,319.464,1315.919,319.464z M1315.919,267.464c3.718,0,6.731,3.014,6.731,6.732
	c0,3.718-3.014,6.731-6.731,6.731c-3.719,0-6.732-3.014-6.732-6.731C1309.186,270.478,1312.2,267.464,1315.919,267.464z
	 M1372.488,579.464c3.718,0,6.732,3.015,6.732,6.732s-3.015,6.731-6.732,6.731s-6.731-3.014-6.731-6.731
	S1368.77,579.464,1372.488,579.464z M1372.488,527.464c3.718,0,6.732,3.015,6.732,6.732s-3.015,6.731-6.732,6.731
	s-6.731-3.014-6.731-6.731S1368.77,527.464,1372.488,527.464z M1372.488,475.464c3.718,0,6.732,3.015,6.732,6.732
	s-3.015,6.731-6.732,6.731s-6.731-3.014-6.731-6.731S1368.77,475.464,1372.488,475.464z M1372.488,423.464
	c3.718,0,6.732,3.015,6.732,6.732s-3.015,6.731-6.732,6.731s-6.731-3.014-6.731-6.731S1368.77,423.464,1372.488,423.464z
	 M1372.488,371.464c3.718,0,6.732,3.014,6.732,6.732c0,3.718-3.015,6.732-6.732,6.732s-6.731-3.014-6.731-6.732
	C1365.757,374.478,1368.77,371.464,1372.488,371.464z M1372.488,319.464c3.718,0,6.732,3.014,6.732,6.732
	c0,3.718-3.015,6.732-6.732,6.732s-6.731-3.014-6.731-6.732C1365.757,322.478,1368.77,319.464,1372.488,319.464z M1372.488,267.464
	c3.718,0,6.732,3.014,6.732,6.732c0,3.718-3.015,6.731-6.732,6.731s-6.731-3.014-6.731-6.731
	C1365.757,270.478,1368.77,267.464,1372.488,267.464z M1429.059,579.464c3.718,0,6.732,3.015,6.732,6.732s-3.015,6.731-6.732,6.731
	s-6.732-3.014-6.732-6.731S1425.342,579.464,1429.059,579.464z M1429.059,527.464c3.718,0,6.732,3.015,6.732,6.732
	s-3.015,6.731-6.732,6.731s-6.732-3.014-6.732-6.731S1425.342,527.464,1429.059,527.464z M1429.059,475.464
	c3.718,0,6.732,3.015,6.732,6.732s-3.015,6.731-6.732,6.731s-6.732-3.014-6.732-6.731S1425.342,475.464,1429.059,475.464z
	 M1429.059,423.464c3.718,0,6.732,3.015,6.732,6.732s-3.015,6.731-6.732,6.731s-6.732-3.014-6.732-6.731
	S1425.342,423.464,1429.059,423.464z M1429.059,371.464c3.718,0,6.732,3.014,6.732,6.732c0,3.718-3.015,6.732-6.732,6.732
	s-6.732-3.014-6.732-6.732C1422.327,374.478,1425.342,371.464,1429.059,371.464z M1429.059,319.464c3.718,0,6.732,3.014,6.732,6.732
	c0,3.718-3.015,6.732-6.732,6.732s-6.732-3.014-6.732-6.732C1422.327,322.478,1425.342,319.464,1429.059,319.464z M1429.059,267.464
	c3.718,0,6.732,3.014,6.732,6.732c0,3.718-3.015,6.731-6.732,6.731s-6.732-3.014-6.732-6.731
	C1422.327,270.478,1425.342,267.464,1429.059,267.464z M1485.63,579.464c3.718,0,6.731,3.015,6.731,6.732s-3.014,6.731-6.731,6.731
	c-3.719,0-6.732-3.014-6.732-6.731S1481.911,579.464,1485.63,579.464z M1485.63,527.464c3.718,0,6.731,3.015,6.731,6.732
	s-3.014,6.731-6.731,6.731c-3.719,0-6.732-3.014-6.732-6.731S1481.911,527.464,1485.63,527.464z M1485.63,475.464
	c3.718,0,6.731,3.015,6.731,6.732s-3.014,6.731-6.731,6.731c-3.719,0-6.732-3.014-6.732-6.731S1481.911,475.464,1485.63,475.464z
	 M1485.63,423.464c3.718,0,6.731,3.015,6.731,6.732s-3.014,6.731-6.731,6.731c-3.719,0-6.732-3.014-6.732-6.731
	S1481.911,423.464,1485.63,423.464z M1485.63,371.464c3.718,0,6.731,3.014,6.731,6.732c0,3.718-3.014,6.732-6.731,6.732
	c-3.719,0-6.732-3.014-6.732-6.732C1478.897,374.478,1481.911,371.464,1485.63,371.464z M1485.63,319.464
	c3.718,0,6.731,3.014,6.731,6.732c0,3.718-3.014,6.732-6.731,6.732c-3.719,0-6.732-3.014-6.732-6.732
	C1478.897,322.478,1481.911,319.464,1485.63,319.464z M1485.63,267.464c3.718,0,6.731,3.014,6.731,6.732
	c0,3.718-3.014,6.731-6.731,6.731c-3.719,0-6.732-3.014-6.732-6.731C1478.897,270.478,1481.911,267.464,1485.63,267.464z
	 M1542.199,631.464c3.718,0,6.732,3.015,6.732,6.732s-3.015,6.731-6.732,6.731s-6.731-3.014-6.731-6.731
	S1538.481,631.464,1542.199,631.464z M1542.199,579.464c3.718,0,6.732,3.015,6.732,6.732s-3.015,6.731-6.732,6.731
	s-6.731-3.014-6.731-6.731S1538.481,579.464,1542.199,579.464z M1542.199,527.464c3.718,0,6.732,3.015,6.732,6.732
	s-3.015,6.731-6.732,6.731s-6.731-3.014-6.731-6.731S1538.481,527.464,1542.199,527.464z M1542.199,475.464
	c3.718,0,6.732,3.015,6.732,6.732s-3.015,6.731-6.732,6.731s-6.731-3.014-6.731-6.731S1538.481,475.464,1542.199,475.464z
	 M1542.199,423.464c3.718,0,6.732,3.015,6.732,6.732s-3.015,6.731-6.732,6.731s-6.731-3.014-6.731-6.731
	S1538.481,423.464,1542.199,423.464z M1542.199,371.464c3.718,0,6.732,3.014,6.732,6.732c0,3.718-3.015,6.732-6.732,6.732
	s-6.731-3.014-6.731-6.732C1535.468,374.478,1538.481,371.464,1542.199,371.464z M1542.199,319.464c3.718,0,6.732,3.014,6.732,6.732
	c0,3.718-3.015,6.732-6.732,6.732s-6.731-3.014-6.731-6.732C1535.468,322.478,1538.481,319.464,1542.199,319.464z M1542.199,267.464
	c3.718,0,6.732,3.014,6.732,6.732c0,3.718-3.015,6.731-6.732,6.731s-6.731-3.014-6.731-6.731
	C1535.468,270.478,1538.481,267.464,1542.199,267.464z M1598.77,631.464c3.718,0,6.732,3.015,6.732,6.732s-3.015,6.731-6.732,6.731
	s-6.732-3.014-6.732-6.731S1595.052,631.464,1598.77,631.464z M1598.77,579.464c3.718,0,6.732,3.015,6.732,6.732
	s-3.015,6.731-6.732,6.731s-6.732-3.014-6.732-6.731S1595.052,579.464,1598.77,579.464z M1598.77,527.464
	c3.718,0,6.732,3.015,6.732,6.732s-3.015,6.731-6.732,6.731s-6.732-3.014-6.732-6.731S1595.052,527.464,1598.77,527.464z
	 M1598.77,475.464c3.718,0,6.732,3.015,6.732,6.732s-3.015,6.731-6.732,6.731s-6.732-3.014-6.732-6.731
	S1595.052,475.464,1598.77,475.464z M1598.77,423.464c3.718,0,6.732,3.015,6.732,6.732s-3.015,6.731-6.732,6.731
	s-6.732-3.014-6.732-6.731S1595.052,423.464,1598.77,423.464z M1598.77,371.464c3.718,0,6.732,3.014,6.732,6.732
	c0,3.718-3.015,6.732-6.732,6.732s-6.732-3.014-6.732-6.732C1592.038,374.478,1595.052,371.464,1598.77,371.464z M1598.77,319.464
	c3.718,0,6.732,3.014,6.732,6.732c0,3.718-3.015,6.732-6.732,6.732s-6.732-3.014-6.732-6.732
	C1592.038,322.478,1595.052,319.464,1598.77,319.464z M1598.77,267.464c3.718,0,6.732,3.014,6.732,6.732
	c0,3.718-3.015,6.731-6.732,6.731s-6.732-3.014-6.732-6.731C1592.038,270.478,1595.052,267.464,1598.77,267.464z M1598.77,215.464
	c3.718,0,6.732,3.014,6.732,6.732c0,3.718-3.015,6.732-6.732,6.732s-6.732-3.014-6.732-6.732
	C1592.038,218.478,1595.052,215.464,1598.77,215.464z M1655.34,683.466c3.717,0,6.73,3.014,6.73,6.731c0,3.717-3.014,6.73-6.73,6.73
	c-3.718,0-6.731-3.014-6.731-6.73C1648.608,686.479,1651.622,683.466,1655.34,683.466z M1655.34,631.464
	c3.718,0,6.731,3.015,6.731,6.732s-3.014,6.731-6.731,6.731c-3.719,0-6.732-3.014-6.732-6.731S1651.621,631.464,1655.34,631.464z
	 M1655.34,579.464c3.718,0,6.731,3.015,6.731,6.732s-3.014,6.731-6.731,6.731c-3.719,0-6.732-3.014-6.732-6.731
	S1651.621,579.464,1655.34,579.464z M1655.34,527.464c3.718,0,6.731,3.015,6.731,6.732s-3.014,6.731-6.731,6.731
	c-3.719,0-6.732-3.014-6.732-6.731S1651.621,527.464,1655.34,527.464z M1655.34,475.464c3.718,0,6.731,3.015,6.731,6.732
	s-3.014,6.731-6.731,6.731c-3.719,0-6.732-3.014-6.732-6.731S1651.621,475.464,1655.34,475.464z M1655.34,423.464
	c3.718,0,6.731,3.015,6.731,6.732s-3.014,6.731-6.731,6.731c-3.719,0-6.732-3.014-6.732-6.731S1651.621,423.464,1655.34,423.464z
	 M1655.34,371.464c3.718,0,6.731,3.014,6.731,6.732c0,3.718-3.014,6.732-6.731,6.732c-3.719,0-6.732-3.014-6.732-6.732
	C1648.607,374.478,1651.621,371.464,1655.34,371.464z M1655.34,319.464c3.718,0,6.731,3.014,6.731,6.732
	c0,3.718-3.014,6.732-6.731,6.732c-3.719,0-6.732-3.014-6.732-6.732C1648.607,322.478,1651.621,319.464,1655.34,319.464z
	 M1655.34,267.464c3.718,0,6.731,3.014,6.731,6.732c0,3.718-3.014,6.731-6.731,6.731c-3.719,0-6.732-3.014-6.732-6.731
	C1648.607,270.478,1651.621,267.464,1655.34,267.464z M1655.34,215.464c3.718,0,6.731,3.014,6.731,6.732
	c0,3.718-3.014,6.732-6.731,6.732c-3.719,0-6.732-3.014-6.732-6.732C1648.607,218.478,1651.621,215.464,1655.34,215.464z
	 M1711.91,683.466c3.718,0,6.731,3.014,6.731,6.731c0,3.717-3.014,6.73-6.731,6.73c-3.717,0-6.73-3.014-6.73-6.73
	C1705.179,686.479,1708.193,683.466,1711.91,683.466z M1711.91,631.464c3.719,0,6.732,3.015,6.732,6.732s-3.014,6.731-6.732,6.731
	c-3.718,0-6.731-3.014-6.731-6.731S1708.192,631.464,1711.91,631.464z M1711.91,579.464c3.719,0,6.732,3.015,6.732,6.732
	s-3.014,6.731-6.732,6.731c-3.718,0-6.731-3.014-6.731-6.731S1708.192,579.464,1711.91,579.464z M1711.91,527.464
	c3.719,0,6.732,3.015,6.732,6.732s-3.014,6.731-6.732,6.731c-3.718,0-6.731-3.014-6.731-6.731S1708.192,527.464,1711.91,527.464z
	 M1711.91,475.464c3.719,0,6.732,3.015,6.732,6.732s-3.014,6.731-6.732,6.731c-3.718,0-6.731-3.014-6.731-6.731
	S1708.192,475.464,1711.91,475.464z M1711.91,423.464c3.719,0,6.732,3.015,6.732,6.732s-3.014,6.731-6.732,6.731
	c-3.718,0-6.731-3.014-6.731-6.731S1708.192,423.464,1711.91,423.464z M1711.91,371.464c3.719,0,6.732,3.014,6.732,6.732
	c0,3.718-3.014,6.732-6.732,6.732c-3.718,0-6.731-3.014-6.731-6.732C1705.178,374.478,1708.192,371.464,1711.91,371.464z
	 M1711.91,319.464c3.719,0,6.732,3.014,6.732,6.732c0,3.718-3.014,6.732-6.732,6.732c-3.718,0-6.731-3.014-6.731-6.732
	C1705.178,322.478,1708.192,319.464,1711.91,319.464z M1711.91,267.464c3.719,0,6.732,3.014,6.732,6.732
	c0,3.718-3.014,6.731-6.732,6.731c-3.718,0-6.731-3.014-6.731-6.731C1705.178,270.478,1708.192,267.464,1711.91,267.464z
	 M1768.48,735.466c3.718,0,6.732,3.015,6.732,6.732s-3.015,6.731-6.732,6.731s-6.732-3.014-6.732-6.731
	S1764.762,735.466,1768.48,735.466z M1768.48,683.466c3.718,0,6.731,3.014,6.731,6.731c0,3.717-3.014,6.73-6.731,6.73
	s-6.731-3.014-6.731-6.73C1761.749,686.479,1764.762,683.466,1768.48,683.466z M1768.48,631.464c3.718,0,6.732,3.015,6.732,6.732
	s-3.015,6.731-6.732,6.731s-6.732-3.014-6.732-6.731S1764.762,631.464,1768.48,631.464z M1768.48,579.464
	c3.718,0,6.732,3.015,6.732,6.732s-3.015,6.731-6.732,6.731s-6.732-3.014-6.732-6.731S1764.762,579.464,1768.48,579.464z
	 M1768.48,527.464c3.718,0,6.732,3.015,6.732,6.732s-3.015,6.731-6.732,6.731s-6.732-3.014-6.732-6.731
	S1764.762,527.464,1768.48,527.464z M1768.48,475.464c3.718,0,6.732,3.015,6.732,6.732s-3.015,6.731-6.732,6.731
	s-6.732-3.014-6.732-6.731S1764.762,475.464,1768.48,475.464z M1768.48,423.464c3.718,0,6.732,3.015,6.732,6.732
	s-3.015,6.731-6.732,6.731s-6.732-3.014-6.732-6.731S1764.762,423.464,1768.48,423.464z M1768.48,371.464
	c3.718,0,6.732,3.014,6.732,6.732c0,3.718-3.015,6.732-6.732,6.732s-6.732-3.014-6.732-6.732
	C1761.748,374.478,1764.762,371.464,1768.48,371.464z M1825.051,735.466c3.718,0,6.731,3.015,6.731,6.732s-3.014,6.731-6.731,6.731
	s-6.732-3.014-6.732-6.731S1821.333,735.466,1825.051,735.466z M1825.051,683.466c3.717,0,6.73,3.014,6.73,6.731
	c0,3.717-3.014,6.73-6.73,6.73c-3.718,0-6.731-3.014-6.731-6.73C1818.319,686.479,1821.333,683.466,1825.051,683.466z
	 M1825.051,631.464c3.718,0,6.731,3.015,6.731,6.732s-3.014,6.731-6.731,6.731s-6.732-3.014-6.732-6.731
	S1821.333,631.464,1825.051,631.464z M1825.051,579.464c3.718,0,6.731,3.015,6.731,6.732s-3.014,6.731-6.731,6.731
	s-6.732-3.014-6.732-6.731S1821.333,579.464,1825.051,579.464z M1825.051,527.464c3.718,0,6.731,3.015,6.731,6.732
	s-3.014,6.731-6.731,6.731s-6.732-3.014-6.732-6.731S1821.333,527.464,1825.051,527.464z M1825.051,475.464
	c3.718,0,6.731,3.015,6.731,6.732s-3.014,6.731-6.731,6.731s-6.732-3.014-6.732-6.731S1821.333,475.464,1825.051,475.464z
	 M1825.051,423.464c3.718,0,6.731,3.015,6.731,6.732s-3.014,6.731-6.731,6.731s-6.732-3.014-6.732-6.731
	S1821.333,423.464,1825.051,423.464z M1881.621,787.466c3.719,0,6.732,3.015,6.732,6.732s-3.014,6.731-6.732,6.731
	c-3.718,0-6.731-3.014-6.731-6.731S1877.903,787.466,1881.621,787.466z M1881.621,735.466c3.719,0,6.732,3.015,6.732,6.732
	s-3.014,6.731-6.732,6.731c-3.718,0-6.731-3.014-6.731-6.731S1877.903,735.466,1881.621,735.466z M1881.621,683.466
	c3.718,0,6.731,3.014,6.731,6.731c0,3.717-3.014,6.73-6.731,6.73c-3.717,0-6.73-3.014-6.73-6.73
	C1874.89,686.479,1877.904,683.466,1881.621,683.466z M1881.621,631.464c3.719,0,6.732,3.015,6.732,6.732s-3.014,6.731-6.732,6.731
	c-3.718,0-6.731-3.014-6.731-6.731S1877.903,631.464,1881.621,631.464z M1881.621,579.464c3.719,0,6.732,3.015,6.732,6.732
	s-3.014,6.731-6.732,6.731c-3.718,0-6.731-3.014-6.731-6.731S1877.903,579.464,1881.621,579.464z M1881.621,527.464
	c3.719,0,6.732,3.015,6.732,6.732s-3.014,6.731-6.732,6.731c-3.718,0-6.731-3.014-6.731-6.731S1877.903,527.464,1881.621,527.464z
	 M1881.621,475.464c3.719,0,6.732,3.015,6.732,6.732s-3.014,6.731-6.732,6.731c-3.718,0-6.731-3.014-6.731-6.731
	S1877.903,475.464,1881.621,475.464z M1938.191,839.466c3.718,0,6.732,3.015,6.732,6.732s-3.015,6.731-6.732,6.731
	s-6.731-3.014-6.731-6.731S1934.473,839.466,1938.191,839.466z M1938.191,787.466c3.718,0,6.732,3.015,6.732,6.732
	s-3.015,6.731-6.732,6.731s-6.731-3.014-6.731-6.731S1934.473,787.466,1938.191,787.466z M1938.191,735.466
	c3.718,0,6.732,3.015,6.732,6.732s-3.015,6.731-6.732,6.731s-6.731-3.014-6.731-6.731S1934.473,735.466,1938.191,735.466z
	 M1938.191,683.466c3.718,0,6.731,3.014,6.731,6.731c0,3.717-3.014,6.73-6.731,6.73s-6.73-3.014-6.73-6.73
	C1931.461,686.479,1934.473,683.466,1938.191,683.466z M1938.191,631.464c3.718,0,6.732,3.015,6.732,6.732s-3.015,6.731-6.732,6.731
	s-6.731-3.014-6.731-6.731S1934.473,631.464,1938.191,631.464z M1938.191,579.464c3.718,0,6.732,3.015,6.732,6.732
	s-3.015,6.731-6.732,6.731s-6.731-3.014-6.731-6.731S1934.473,579.464,1938.191,579.464z M1938.191,527.464
	c3.718,0,6.732,3.015,6.732,6.732s-3.015,6.731-6.732,6.731s-6.731-3.014-6.731-6.731S1934.473,527.464,1938.191,527.464z
	 M1994.761,891.466c3.718,0,6.731,3.015,6.731,6.732s-3.014,6.731-6.731,6.731s-6.732-3.014-6.732-6.731
	S1991.044,891.466,1994.761,891.466z M1994.761,839.466c3.718,0,6.731,3.015,6.731,6.732s-3.014,6.731-6.731,6.731
	s-6.732-3.014-6.732-6.731S1991.044,839.466,1994.761,839.466z M1994.761,787.466c3.718,0,6.731,3.015,6.731,6.732
	s-3.014,6.731-6.731,6.731s-6.732-3.014-6.732-6.731S1991.044,787.466,1994.761,787.466z M1994.761,735.466
	c3.718,0,6.731,3.015,6.731,6.732s-3.014,6.731-6.731,6.731s-6.732-3.014-6.732-6.731S1991.044,735.466,1994.761,735.466z
	 M1994.761,683.466c3.717,0,6.73,3.014,6.73,6.731c0,3.717-3.014,6.73-6.73,6.73c-3.718,0-6.731-3.014-6.731-6.73
	C1988.03,686.479,1991.044,683.466,1994.761,683.466z M1994.761,631.464c3.718,0,6.731,3.015,6.731,6.732s-3.014,6.731-6.731,6.731
	s-6.732-3.014-6.732-6.731S1991.044,631.464,1994.761,631.464z M2051.333,943.466c3.718,0,6.731,3.015,6.731,6.732
	s-3.014,6.731-6.731,6.731c-3.719,0-6.732-3.014-6.732-6.731S2047.614,943.466,2051.333,943.466z M2051.333,891.466
	c3.718,0,6.731,3.015,6.731,6.732s-3.014,6.731-6.731,6.731c-3.719,0-6.732-3.014-6.732-6.731S2047.614,891.466,2051.333,891.466z
	 M2051.333,839.466c3.718,0,6.731,3.015,6.731,6.732s-3.014,6.731-6.731,6.731c-3.719,0-6.732-3.014-6.732-6.731
	S2047.614,839.466,2051.333,839.466z M2051.333,787.466c3.718,0,6.731,3.015,6.731,6.732s-3.014,6.731-6.731,6.731
	c-3.719,0-6.732-3.014-6.732-6.731S2047.614,787.466,2051.333,787.466z M2051.333,735.466c3.718,0,6.731,3.015,6.731,6.732
	s-3.014,6.731-6.731,6.731c-3.719,0-6.732-3.014-6.732-6.731S2047.614,735.466,2051.333,735.466z M2051.333,683.466
	c3.717,0,6.73,3.014,6.73,6.731c0,3.717-3.014,6.73-6.73,6.73c-3.718,0-6.731-3.014-6.731-6.73
	C2044.601,686.479,2047.615,683.466,2051.333,683.466z M2107.902,995.466c3.718,0,6.732,3.015,6.732,6.732s-3.015,6.731-6.732,6.731
	s-6.731-3.014-6.731-6.731S2104.184,995.466,2107.902,995.466z M2107.902,943.466c3.718,0,6.732,3.015,6.732,6.732
	s-3.015,6.731-6.732,6.731s-6.731-3.014-6.731-6.731S2104.184,943.466,2107.902,943.466z M2107.902,891.466
	c3.718,0,6.732,3.015,6.732,6.732s-3.015,6.731-6.732,6.731s-6.731-3.014-6.731-6.731S2104.184,891.466,2107.902,891.466z
	 M2107.902,839.466c3.718,0,6.732,3.015,6.732,6.732s-3.015,6.731-6.732,6.731s-6.731-3.014-6.731-6.731
	S2104.184,839.466,2107.902,839.466z M2107.902,787.466c3.718,0,6.732,3.015,6.732,6.732s-3.015,6.731-6.732,6.731
	s-6.731-3.014-6.731-6.731S2104.184,787.466,2107.902,787.466z M2107.902,735.466c3.718,0,6.732,3.015,6.732,6.732
	s-3.015,6.731-6.732,6.731s-6.731-3.014-6.731-6.731S2104.184,735.466,2107.902,735.466z M2164.472,1047.466
	c3.718,0,6.731,3.015,6.731,6.732s-3.014,6.731-6.731,6.731s-6.732-3.014-6.732-6.731S2160.755,1047.466,2164.472,1047.466z
	 M2164.472,995.466c3.718,0,6.731,3.015,6.731,6.732s-3.014,6.731-6.731,6.731s-6.732-3.014-6.732-6.731
	S2160.755,995.466,2164.472,995.466z M2164.472,943.466c3.718,0,6.731,3.015,6.731,6.732s-3.014,6.731-6.731,6.731
	s-6.732-3.014-6.732-6.731S2160.755,943.466,2164.472,943.466z M2164.472,891.466c3.718,0,6.731,3.015,6.731,6.732
	s-3.014,6.731-6.731,6.731s-6.732-3.014-6.732-6.731S2160.755,891.466,2164.472,891.466z M2164.472,839.466
	c3.718,0,6.731,3.015,6.731,6.732s-3.014,6.731-6.731,6.731s-6.732-3.014-6.732-6.731S2160.755,839.466,2164.472,839.466z
	 M2164.472,787.466c3.718,0,6.731,3.015,6.731,6.732s-3.014,6.731-6.731,6.731s-6.732-3.014-6.732-6.731
	S2160.755,787.466,2164.472,787.466z M2221.042,1151.466c3.719,0,6.732,3.015,6.732,6.732s-3.014,6.731-6.732,6.731
	c-3.718,0-6.731-3.014-6.731-6.731S2217.324,1151.466,2221.042,1151.466z M2221.042,1099.466c3.719,0,6.732,3.015,6.732,6.732
	s-3.014,6.731-6.732,6.731c-3.718,0-6.731-3.014-6.731-6.731S2217.324,1099.466,2221.042,1099.466z M2221.042,1047.466
	c3.719,0,6.732,3.015,6.732,6.732s-3.014,6.731-6.732,6.731c-3.718,0-6.731-3.014-6.731-6.731S2217.324,1047.466,2221.042,1047.466z
	 M2221.042,995.466c3.719,0,6.732,3.015,6.732,6.732s-3.014,6.731-6.732,6.731c-3.718,0-6.731-3.014-6.731-6.731
	S2217.324,995.466,2221.042,995.466z M2221.042,943.466c3.719,0,6.732,3.015,6.732,6.732s-3.014,6.731-6.732,6.731
	c-3.718,0-6.731-3.014-6.731-6.731S2217.324,943.466,2221.042,943.466z M2221.042,891.466c3.719,0,6.732,3.015,6.732,6.732
	s-3.014,6.731-6.732,6.731c-3.718,0-6.731-3.014-6.731-6.731S2217.324,891.466,2221.042,891.466z M2221.042,839.466
	c3.719,0,6.732,3.015,6.732,6.732s-3.014,6.731-6.732,6.731c-3.718,0-6.731-3.014-6.731-6.731S2217.324,839.466,2221.042,839.466z
	 M2277.613,1203.466c3.718,0,6.732,3.015,6.732,6.732s-3.015,6.731-6.732,6.731s-6.731-3.014-6.731-6.731
	S2273.895,1203.466,2277.613,1203.466z M2277.613,1151.466c3.718,0,6.732,3.015,6.732,6.732s-3.015,6.731-6.732,6.731
	s-6.731-3.014-6.731-6.731S2273.895,1151.466,2277.613,1151.466z M2277.613,1099.466c3.718,0,6.732,3.015,6.732,6.732
	s-3.015,6.731-6.732,6.731s-6.731-3.014-6.731-6.731S2273.895,1099.466,2277.613,1099.466z M2277.613,1047.466
	c3.718,0,6.732,3.015,6.732,6.732s-3.015,6.731-6.732,6.731s-6.731-3.014-6.731-6.731S2273.895,1047.466,2277.613,1047.466z
	 M2277.613,995.466c3.718,0,6.732,3.015,6.732,6.732s-3.015,6.731-6.732,6.731s-6.731-3.014-6.731-6.731
	S2273.895,995.466,2277.613,995.466z M2277.613,943.466c3.718,0,6.732,3.015,6.732,6.732s-3.015,6.731-6.732,6.731
	s-6.731-3.014-6.731-6.731S2273.895,943.466,2277.613,943.466z M2334.184,1203.466c3.718,0,6.732,3.015,6.732,6.732
	s-3.015,6.731-6.732,6.731s-6.732-3.014-6.732-6.731S2330.467,1203.466,2334.184,1203.466z M2334.184,1151.466
	c3.718,0,6.732,3.015,6.732,6.732s-3.015,6.731-6.732,6.731s-6.732-3.014-6.732-6.731S2330.467,1151.466,2334.184,1151.466z
	 M2334.184,1099.466c3.718,0,6.732,3.015,6.732,6.732s-3.015,6.731-6.732,6.731s-6.732-3.014-6.732-6.731
	S2330.467,1099.466,2334.184,1099.466z M2334.184,1047.466c3.718,0,6.732,3.015,6.732,6.732s-3.015,6.731-6.732,6.731
	s-6.732-3.014-6.732-6.731S2330.467,1047.466,2334.184,1047.466z M2334.184,995.466c3.718,0,6.732,3.015,6.732,6.732
	s-3.015,6.731-6.732,6.731s-6.732-3.014-6.732-6.731S2330.467,995.466,2334.184,995.466z M2334.184,943.466
	c3.718,0,6.732,3.015,6.732,6.732s-3.015,6.731-6.732,6.731s-6.732-3.014-6.732-6.731S2330.467,943.466,2334.184,943.466z
	 M2390.753,1203.466c3.719,0,6.732,3.015,6.732,6.732s-3.014,6.731-6.732,6.731c-3.718,0-6.731-3.014-6.731-6.731
	S2387.035,1203.466,2390.753,1203.466z M2390.753,1151.466c3.719,0,6.732,3.015,6.732,6.732s-3.014,6.731-6.732,6.731
	c-3.718,0-6.731-3.014-6.731-6.731S2387.035,1151.466,2390.753,1151.466z M2390.753,1099.466c3.719,0,6.732,3.015,6.732,6.732
	s-3.014,6.731-6.732,6.731c-3.718,0-6.731-3.014-6.731-6.731S2387.035,1099.466,2390.753,1099.466z M2390.753,1047.466
	c3.719,0,6.732,3.015,6.732,6.732s-3.014,6.731-6.732,6.731c-3.718,0-6.731-3.014-6.731-6.731S2387.035,1047.466,2390.753,1047.466z
	 M2390.753,995.466c3.719,0,6.732,3.015,6.732,6.732s-3.014,6.731-6.732,6.731c-3.718,0-6.731-3.014-6.731-6.731
	S2387.035,995.466,2390.753,995.466z M2447.324,1151.466c3.718,0,6.732,3.015,6.732,6.732s-3.015,6.731-6.732,6.731
	s-6.731-3.014-6.731-6.731S2443.606,1151.466,2447.324,1151.466z M2447.324,1099.466c3.718,0,6.732,3.015,6.732,6.732
	s-3.015,6.731-6.732,6.731s-6.731-3.014-6.731-6.731S2443.606,1099.466,2447.324,1099.466z M2447.324,1047.466
	c3.718,0,6.732,3.015,6.732,6.732s-3.015,6.731-6.732,6.731s-6.731-3.014-6.731-6.731S2443.606,1047.466,2447.324,1047.466z
	 M2503.895,1099.466c3.718,0,6.732,3.015,6.732,6.732s-3.015,6.731-6.732,6.731s-6.732-3.014-6.732-6.731
	S2500.177,1099.466,2503.895,1099.466z M2503.895,1047.466c3.718,0,6.732,3.015,6.732,6.732s-3.015,6.731-6.732,6.731
	s-6.732-3.014-6.732-6.731S2500.177,1047.466,2503.895,1047.466z M2560.465,1047.466c3.718,0,6.731,3.015,6.731,6.732
	s-3.014,6.731-6.731,6.731s-6.732-3.014-6.732-6.731S2556.747,1047.466,2560.465,1047.466z M13.436,364.956
	c0.036-0.007,0.071-0.015,0.107-0.022c6.272-1.356,12.271-5.846,12.271-12.777c0-1.073,0-2.146,0-3.219c0-1.177,0-2.354,0-3.531
	c0-1.267,0-2.532,0-3.799c0-1.34,0-2.68,0-4.021c0-1.399,0-2.798,0-4.198c0-1.443,0-2.886,0-4.33c0-1.472,0-2.944,0-4.417
	c0-1.486,0-2.973,0-4.458s0-2.97,0-4.456c0-1.469,0-2.938,0-4.407c0-1.438,0-2.875,0-4.313c0-1.392,0-2.783,0-4.175
	c0-1.331,0-2.661,0-3.992c0-1.254,0-2.508,0-3.763c0-1.163,0-2.326,0-3.489c0-1.057,0-2.113,0-3.17c0-0.936,0-1.871,0-2.806
	c0-0.799,0-1.598,0-2.397c0-0.647,0-1.295,0-1.943c0-0.481,0-0.962,0-1.443c0-0.3,0-0.6,0-0.899c0-0.103,0-0.207,0-0.31
	c-0.004-1.892,0.572-4.047,1.895-6.479c1.142-2.098,11.258-12.477,30.392-31.042c15.829-15.445,23.478-20.459,44.607-30.012
	c32.542-14.749,52.366-23.454,59.5-26.182c40.486-15.479,80.308-32.672,121.014-47.576c13.584-4.974,27.32-9.534,40.796-14.799
	c65.306-25.513,146.831-49.924,221.117-72.166c37.839-11.33,76.162-20.981,113.966-32.43c3.808-1.153,59.134-10.925,95.703-14.268
	c34.197-3.174,80.764-4.273,139.736-3.357c109.163,1.751,202.552,6.938,280.177,15.402c51.652,5.667,83.821,9.341,96.674,11.036
	c10.194,1.355,38.822,5.75,85.776,13.209c20.482,3.254,43.211,6.865,61.197,11.17l14.107,3.376
	c29.525,7.067,59.391,12.647,88.859,19.946c33.653,8.334,66.345,20.04,98.095,33.919c13.454,5.88,26.168,13.254,38.729,20.827
	l14.183,8.55c6.108,3.682,11.703,8.901,17.014,13.614c2.176,1.932,4.854,4.405,7.156,7.173l-0.002,0.002
	c4.041,3.606,9.968,1.878,13.69-1.331c5.684-6.005,13.729-9.752,22.649-9.752c17.221,0,31.182,13.96,31.182,31.181
	c0,17.221-13.961,31.181-31.182,31.181c-2.876,0-5.661-0.389-8.305-1.118l0.002-0.005c-4.763-0.629-11.123,0.602-10.426,6.772
	v-0.001c4.309,10.325,6.228,22.43,9.238,31.81c4.285,13.345,8.086,27.747,14.672,40.196c12.073,22.826,22.522,46.524,35.778,68.709
	c1.756,2.938,1.869,7.262,5.088,9.146c2.552,1.494,5.788,0.773,8.593,0.867c6.715,0.226,13.446,0.372,20.156,0.7
	c4.781,0.232,8.964,1.428,12.052,5.314c3.004,3.783,6.205,7.41,9.455,10.981c22.692,24.873,34.683,37.992,36.006,39.513
	c5.267,6.05,72.689,78.431,109.068,117.615c30.953,33.34,60.305,64.493,87.914,93.427c28.439,29.808,66.36,68.421,99.752,102.425
	c34.716,35.353,68.912,71.213,103.903,106.291c5.827,5.843,11.776,11.593,17.491,17.547c4.966,5.175,7.402,8.876,6.597,16.515
	c-0.625,5.936-2.496,13.381-1.53,19.294c0.882,5.405,7.114,7.834,11.047,10.771c14.14,10.565,28.082,21.39,42.308,31.845
	c17.806,13.086,35.05,26.925,53.017,39.789c12.957,9.278,23.285,15.147,31.121,17.643c7.818,2.562,28.16,3.455,61.166,2.711
	c0.077-0.002,0.155-0.019,0.231-0.021c5.17-0.224,10.354-0.314,15.526-0.452c10.517-0.274,21.037-0.59,31.55-0.979
	c11.848-0.439,23.715-0.862,35.567-1.107c9.038-0.186,18.409,0.099,27.405-0.693c3.498-0.311,6.431-0.633,9.961,0.378
	c1.108,0.314,2.252,0.721,3.339,1.245c1.093,0.527,2.125,1.179,3.001,1.984l-0.004,0.009c10.729,8.681,25.408,6.569,37.939,4.159
	l-0.002-0.004c5.706-1.549,12.083-1.543,17.776-1.961c32.062-2.354,63.998,3.045,96.037,3.218
	c21.741,0.117,43.482,1.195,65.222,0.48l13.993-0.459c31.702-1.041,80.592-2.646,95.118-2.689c0.722-0.001,4.552-0.185,11.636-0.479
	c17.418-0.729,49.884-1.856,52.205-3.141c5.518-3.05,17.496,1.589,20.217,6.782c3.728,7.12-5.065,14.123-10.2,17.194
	c-12.266,7.339-25.562,13.3-38.254,19.885c-8.617,4.47-16.933,9.505-25.59,13.9l-36.521,18.541
	c-11.506,5.841-22.847,11.996-34.362,17.814l-47.019,23.756c-14.414,7.283-27.697,16.541-41.6,24.723
	c-15.861,9.332-45.215,26.589-47.521,28.105l-46.422,30.521c-10.438,6.86-20.846,13.817-30.32,21.979l-75.979,65.459l-10.771,0.551
	c-4.082-2.421-7.084-4.484-8.815-6.062l-8.071-7.351c-20.605-18.816-42.087-31.742-64.412-38.976l-10.234-3.281
	c-1.688-0.536-3.205-1.127-4.556-1.77c-4.104-1.666-8.2-3.355-12.307-5.017c-5.63-2.274-12.363-5.151-18.229-1.979
	c-1.925,1.948-3.75,3.61-5.468,4.979c-4.452,3.55-9.688,5.938-15.205,7.308c-10.834,2.688-21.854,4.662-33.014,5.197
	c-34.423,1.646-66.993,3.614-97.646,5.918c-14.439,1.084-34.711,2.606-43.287-1.476c-1.656-0.789-4.273-2.786-7.83-6.058
	c-5.354-4.931-9.188-11.174-12.75-17.469c-21.324-37.671-36-62.53-43.959-74.559c-31.905-48.133-68.007-92.866-108.22-134.256
	c-10.336-10.549-31.886-29.936-64.715-58.18c-18.393-15.793-44.067-35.884-76.994-60.236c-0.731-0.922-1.701-1.642-2.813-2.08
	c-12.744-9.4-26.541-19.424-41.407-30.069c-76.545-54.848-161.463-103.86-254.688-147.024
	c-36.312-16.812-73.062-32.853-111.33-44.678c-15.646-4.834-30.957-10.714-46.635-15.451c-28.438-8.593-54.836-16.263-86.042-23.16
	c-12.978-2.869-43.803-5.597-65.862-6.521l-93.137-3.901l-141.863,2.53c-15.841,0.335-45.177,1.214-47.527,0.83l-68.985-2.386
	c-3.513-0.168-24.03,0.2-61.639,1.045c-44.141,0.991-98.209,1.368-147.317,1.711c-13.04,0.093-26.063,0.858-39.104,1.054
	c-64.354,0.944-128.823-2.827-193.068,2.01c-6.906,0.521-25.938,1.119-57.12,1.656c-15.224,0.289-26.595-0.463-34.102-2.188
	c-7.589-1.784-21.515-7.344-41.991-16.647c-18.331-8.328-36.428-17.264-53.335-28.233c-33.266-21.589-69.891-37.253-104.377-56.712
	c-38.54-21.747-91.003-51.35-116.177-64.238c-0.783-0.398-10.281-5.48-28.425-15.256c-28.261-15.131-47.146-25.527-56.58-31.2
	c-6.356-3.82-12.716-7.646-19.189-11.267c-8.639-4.83-19.255-7.419-26.293-14.854c-4.561-5.111-5.607-10.056-3.172-15.043
	c2.356-4.831,6.851-8.505,12.144-8.979c0.756-0.068,1.528-0.07,2.313-0.001h-2.296V364.956z"/>
</svg>
