<?xml version="1.0" encoding="utf-8"?>
<!-- Generator: Adobe Illustrator 16.0.0, SVG Export Plug-In . SVG Version: 6.00 Build 0)  -->
<!DOCTYPE svg PUBLIC "-//W3C//DTD SVG 1.1//EN" "http://www.w3.org/Graphics/SVG/1.1/DTD/svg11.dtd">
<svg version="1.1" id="Layer_1" xmlns="http://www.w3.org/2000/svg" xmlns:xlink="http://www.w3.org/1999/xlink" x="0px" y="0px"
	 width="1551.523px" height="691.829px" viewBox="0 0 1551.523 691.829" enable-background="new 0 0 1551.523 691.829"
	 xml:space="preserve">
<path fill="none" stroke="#000000" stroke-linejoin="round" stroke-miterlimit="10" d="M1490.854,193.636
	c-0.148-4.007-6.047-7.303-9.07-8.837l-0.162-0.083l-0.156-0.096c-32.164-19.967-64.572-39.568-97.354-58.51
	c-28.945-16.726-58.223-32.977-87.957-48.256c-25.078-12.886-50.619-25.187-76.674-35.984
	c-20.492-8.495-41.846-16.354-63.396-21.697l-0.055-0.015l-0.057-0.014C1044.991-10.42,935.598-7.16,828.719,36.5l-0.188,0.075
	l-0.193,0.06c-33.676,10.153-67.666,18.913-101.994,26.561c-31.168,6.943-62.504,12.96-93.883,18.844
	c-36.989,6.938-73.964,13.783-110.729,21.848c-41.726,9.154-82.926,19.845-123.742,32.444
	c-41.056,12.525-81.82,26.066-122.154,40.727c-37.098,13.482-73.912,27.923-110.111,43.666
	c-31.021,13.489-61.834,27.985-91.556,44.151c-12.462,6.777-24.776,13.882-36.763,21.468c-10.151,6.425-20.145,13.229-29.63,20.605
	l-0.043,0.034c-3.051,2.311-8.632,7.429-7.608,11.865c0.928,4.016,7.132,6.024,10.551,6.788l0.037,0.011
	c9.098,2.113,18.35,3.754,27.574,5.21c10.903,1.721,21.857,3.173,32.812,4.523c24.728,3.049,49.522,5.588,74.276,8.407
	c22.781,2.594,45.598,5.367,68.234,9.025c19.669,2.825,40.187,8.562,55.22,22.231c11.629,10.569,18.208,24.348,21.384,39.584
	l0.008,0.035l21.28,111.727l0.018,0.215c1.812,20.264,8.623,38.803,27.364,48.842l214.815,104.539
	c9.219,3.736,19.021,7.57,28.694,9.924c6.271,1.52,12.369,2.32,18.815,1.721c4.354-0.396,8.6-1.393,12.794-2.598
	c5.455-1.566,10.854-3.453,16.229-5.271l0.112-0.041l0.12-0.027c12.639-3.477,25.237-8.203,37.398-13.062
	c16.493-6.59,32.776-13.807,48.912-21.227c41.562-19.115,82.571-39.793,123.271-60.682c73.873-38.26,147.656-76.717,221.062-115.875
	c64.395-34.352,128.605-69.227,191.938-105.512c26.67-15.274,53.195-30.828,79.416-46.856
	c22.062-13.485,43.961-27.324,65.355-41.838c16.707-11.332,33.344-23.171,48.98-35.949c6.041-4.933,11.974-10.049,17.604-15.448
	c4.422-4.242,8.745-8.729,12.572-13.518l0.021-0.03l0.021-0.029c3.265-3.936,6.886-7.671,9.963-11.735
	C1488.583,199.827,1490.958,196.41,1490.854,193.636z M71.84,317.126c-3.719,0-6.732-3.014-6.732-6.732
	c0-3.718,3.014-6.731,6.732-6.731c3.718,0,6.732,3.014,6.732,6.731C78.573,314.112,75.56,317.126,71.84,317.126z M128.412,317.126
	c-3.719,0-6.732-3.014-6.732-6.732c0-3.718,3.014-6.731,6.732-6.731c3.718,0,6.732,3.014,6.732,6.731
	C135.144,314.112,132.129,317.126,128.412,317.126z M128.412,265.126c-3.719,0-6.732-3.014-6.732-6.732
	c0-3.718,3.014-6.732,6.732-6.732c3.718,0,6.732,3.014,6.732,6.732C135.144,262.112,132.129,265.126,128.412,265.126z
	 M184.981,317.126c-3.719,0-6.732-3.014-6.732-6.732c0-3.718,3.014-6.731,6.732-6.731c3.718,0,6.732,3.014,6.732,6.731
	C191.713,314.112,188.701,317.126,184.981,317.126z M184.981,265.126c-3.719,0-6.732-3.014-6.732-6.732
	c0-3.718,3.014-6.732,6.732-6.732c3.718,0,6.732,3.014,6.732,6.732C191.713,262.112,188.701,265.126,184.981,265.126z
	 M241.552,317.126c-3.719,0-6.732-3.014-6.732-6.732c0-3.718,3.014-6.731,6.732-6.731c3.718,0,6.732,3.014,6.732,6.731
	C248.284,314.112,245.271,317.126,241.552,317.126z M241.552,265.126c-3.719,0-6.732-3.014-6.732-6.732
	c0-3.718,3.014-6.732,6.732-6.732c3.718,0,6.732,3.014,6.732,6.732C248.284,262.112,245.271,265.126,241.552,265.126z
	 M241.552,213.126c-3.719,0-6.732-3.014-6.732-6.732c0-3.718,3.014-6.732,6.732-6.732c3.718,0,6.732,3.014,6.732,6.732
	C248.284,210.112,245.271,213.126,241.552,213.126z M298.123,369.125c-3.719,0-6.732-3.016-6.732-6.732s3.014-6.73,6.732-6.73
	c3.718,0,6.732,3.014,6.732,6.73C304.854,366.111,301.84,369.125,298.123,369.125z M298.123,317.126
	c-3.719,0-6.732-3.014-6.732-6.732c0-3.718,3.014-6.731,6.732-6.731c3.718,0,6.732,3.014,6.732,6.731
	C304.854,314.112,301.84,317.126,298.123,317.126z M298.123,265.126c-3.719,0-6.732-3.014-6.732-6.732
	c0-3.718,3.014-6.732,6.732-6.732c3.718,0,6.732,3.014,6.732,6.732C304.854,262.112,301.84,265.126,298.123,265.126z
	 M298.123,213.126c-3.719,0-6.732-3.014-6.732-6.732c0-3.718,3.014-6.732,6.732-6.732c3.718,0,6.732,3.014,6.732,6.732
	C304.854,210.112,301.84,213.126,298.123,213.126z M354.693,525.125c-3.722,0-6.732-3.014-6.732-6.732
	c0-3.717,3.014-6.73,6.732-6.73c3.718,0,6.729,3.014,6.729,6.73C361.424,522.112,358.412,525.125,354.693,525.125z M354.693,473.125
	c-3.722,0-6.732-3.014-6.732-6.732c0-3.717,3.014-6.73,6.732-6.73c3.718,0,6.729,3.014,6.729,6.73
	C361.424,470.112,358.412,473.125,354.693,473.125z M354.693,421.125c-3.722,0-6.732-3.015-6.732-6.732
	c0-3.717,3.014-6.73,6.732-6.73c3.718,0,6.729,3.014,6.729,6.73C361.424,418.112,358.412,421.125,354.693,421.125z M354.693,369.125
	c-3.722,0-6.732-3.016-6.732-6.732s3.014-6.73,6.732-6.73c3.718,0,6.729,3.014,6.729,6.73
	C361.424,366.111,358.412,369.125,354.693,369.125z M354.693,317.126c-3.722,0-6.732-3.014-6.732-6.732
	c0-3.718,3.014-6.731,6.732-6.731c3.718,0,6.729,3.014,6.729,6.731C361.424,314.112,358.412,317.126,354.693,317.126z
	 M354.693,265.126c-3.722,0-6.732-3.014-6.732-6.732c0-3.718,3.014-6.732,6.732-6.732c3.718,0,6.729,3.014,6.729,6.732
	C361.424,262.112,358.412,265.126,354.693,265.126z M354.693,213.126c-3.722,0-6.732-3.014-6.732-6.732
	c0-3.718,3.014-6.732,6.732-6.732c3.718,0,6.729,3.014,6.729,6.732C361.424,210.112,358.412,213.126,354.693,213.126z
	 M411.262,577.125c-3.719,0-6.729-3.014-6.729-6.732c0-3.717,3.014-6.73,6.729-6.73c3.722,0,6.732,3.014,6.732,6.73
	C417.995,574.112,414.982,577.125,411.262,577.125z M411.262,525.125c-3.719,0-6.729-3.014-6.729-6.732
	c0-3.717,3.014-6.73,6.729-6.73c3.722,0,6.732,3.014,6.732,6.73C417.995,522.112,414.982,525.125,411.262,525.125z M411.262,473.125
	c-3.719,0-6.729-3.014-6.729-6.732c0-3.717,3.014-6.73,6.729-6.73c3.722,0,6.732,3.014,6.732,6.73
	C417.995,470.112,414.982,473.125,411.262,473.125z M411.262,421.125c-3.719,0-6.729-3.015-6.729-6.732
	c0-3.717,3.014-6.73,6.729-6.73c3.722,0,6.732,3.014,6.732,6.73C417.995,418.112,414.982,421.125,411.262,421.125z M411.262,369.125
	c-3.719,0-6.729-3.016-6.729-6.732s3.014-6.73,6.729-6.73c3.722,0,6.732,3.014,6.732,6.73
	C417.995,366.111,414.982,369.125,411.262,369.125z M411.262,317.126c-3.719,0-6.729-3.014-6.729-6.732
	c0-3.718,3.014-6.731,6.729-6.731c3.722,0,6.732,3.014,6.732,6.731C417.995,314.112,414.982,317.126,411.262,317.126z
	 M411.262,265.126c-3.719,0-6.729-3.014-6.729-6.732c0-3.718,3.014-6.732,6.729-6.732c3.722,0,6.732,3.014,6.732,6.732
	C417.995,262.112,414.982,265.126,411.262,265.126z M411.262,213.126c-3.719,0-6.729-3.014-6.729-6.732
	c0-3.718,3.014-6.732,6.729-6.732c3.722,0,6.732,3.014,6.732,6.732C417.995,210.112,414.982,213.126,411.262,213.126z
	 M411.262,161.126c-3.719,0-6.729-3.014-6.729-6.732c0-3.718,3.014-6.732,6.729-6.732c3.722,0,6.732,3.014,6.732,6.732
	C417.995,158.112,414.982,161.126,411.262,161.126z M467.833,577.125c-3.719,0-6.732-3.014-6.732-6.732
	c0-3.717,3.018-6.73,6.732-6.73s6.732,3.014,6.732,6.73C474.565,574.112,471.551,577.125,467.833,577.125z M467.833,525.125
	c-3.719,0-6.732-3.014-6.732-6.732c0-3.717,3.018-6.73,6.732-6.73s6.732,3.014,6.732,6.73
	C474.565,522.112,471.551,525.125,467.833,525.125z M467.833,473.125c-3.719,0-6.732-3.014-6.732-6.732
	c0-3.717,3.018-6.73,6.732-6.73s6.732,3.014,6.732,6.73C474.565,470.112,471.551,473.125,467.833,473.125z M467.833,421.125
	c-3.719,0-6.732-3.015-6.732-6.732c0-3.717,3.018-6.73,6.732-6.73s6.732,3.014,6.732,6.73
	C474.565,418.112,471.551,421.125,467.833,421.125z M467.833,369.125c-3.719,0-6.732-3.016-6.732-6.732s3.018-6.73,6.732-6.73
	s6.732,3.014,6.732,6.73C474.565,366.111,471.551,369.125,467.833,369.125z M467.833,317.126c-3.719,0-6.732-3.014-6.732-6.732
	c0-3.718,3.018-6.731,6.732-6.731s6.732,3.014,6.732,6.731C474.565,314.112,471.551,317.126,467.833,317.126z M467.833,265.126
	c-3.719,0-6.732-3.014-6.732-6.732c0-3.718,3.018-6.732,6.732-6.732s6.732,3.014,6.732,6.732
	C474.565,262.112,471.551,265.126,467.833,265.126z M467.833,213.126c-3.719,0-6.732-3.014-6.732-6.732
	c0-3.718,3.018-6.732,6.732-6.732s6.732,3.014,6.732,6.732C474.565,210.112,471.551,213.126,467.833,213.126z M467.833,161.126
	c-3.719,0-6.732-3.014-6.732-6.732c0-3.718,3.018-6.732,6.732-6.732s6.732,3.014,6.732,6.732
	C474.565,158.112,471.551,161.126,467.833,161.126z M524.404,629.125c-3.722,0-6.732-3.014-6.732-6.732
	c0-3.717,3.016-6.73,6.732-6.73c3.716,0,6.729,3.014,6.729,6.73C531.135,626.112,528.123,629.125,524.404,629.125z M524.404,577.125
	c-3.722,0-6.732-3.014-6.732-6.732c0-3.717,3.016-6.73,6.732-6.73c3.716,0,6.729,3.014,6.729,6.73
	C531.135,574.112,528.123,577.125,524.404,577.125z M524.404,525.125c-3.722,0-6.732-3.014-6.732-6.732
	c0-3.717,3.016-6.73,6.732-6.73c3.716,0,6.729,3.014,6.729,6.73C531.135,522.112,528.123,525.125,524.404,525.125z M524.404,473.125
	c-3.722,0-6.732-3.014-6.732-6.732c0-3.717,3.016-6.73,6.732-6.73c3.716,0,6.729,3.014,6.729,6.73
	C531.135,470.112,528.123,473.125,524.404,473.125z M524.404,421.125c-3.722,0-6.732-3.015-6.732-6.732
	c0-3.717,3.016-6.73,6.732-6.73c3.716,0,6.729,3.014,6.729,6.73C531.135,418.112,528.123,421.125,524.404,421.125z M524.404,369.125
	c-3.722,0-6.732-3.016-6.732-6.732s3.016-6.73,6.732-6.73c3.716,0,6.729,3.014,6.729,6.73
	C531.135,366.111,528.123,369.125,524.404,369.125z M524.404,317.126c-3.722,0-6.732-3.014-6.732-6.732
	c0-3.718,3.016-6.731,6.732-6.731c3.716,0,6.729,3.014,6.729,6.731C531.135,314.112,528.123,317.126,524.404,317.126z
	 M524.404,265.126c-3.722,0-6.732-3.014-6.732-6.732c0-3.718,3.016-6.732,6.732-6.732c3.716,0,6.729,3.014,6.729,6.732
	C531.135,262.112,528.123,265.126,524.404,265.126z M524.404,213.126c-3.722,0-6.732-3.014-6.732-6.732
	c0-3.718,3.016-6.732,6.732-6.732c3.716,0,6.729,3.014,6.729,6.732C531.135,210.112,528.123,213.126,524.404,213.126z
	 M524.404,161.126c-3.722,0-6.732-3.014-6.732-6.732c0-3.718,3.016-6.732,6.732-6.732c3.716,0,6.729,3.014,6.729,6.732
	C531.135,158.112,528.123,161.126,524.404,161.126z M580.973,629.125c-3.719,0-6.729-3.014-6.729-6.732
	c0-3.717,3.014-6.73,6.729-6.73c3.722,0,6.732,3.014,6.732,6.73C587.706,626.112,584.693,629.125,580.973,629.125z M580.973,577.125
	c-3.719,0-6.729-3.014-6.729-6.732c0-3.717,3.014-6.73,6.729-6.73c3.722,0,6.732,3.014,6.732,6.73
	C587.706,574.112,584.693,577.125,580.973,577.125z M580.973,525.125c-3.719,0-6.729-3.014-6.729-6.732
	c0-3.717,3.014-6.73,6.729-6.73c3.722,0,6.732,3.014,6.732,6.73C587.706,522.112,584.693,525.125,580.973,525.125z M580.973,473.125
	c-3.719,0-6.729-3.014-6.729-6.732c0-3.717,3.014-6.73,6.729-6.73c3.722,0,6.732,3.014,6.732,6.73
	C587.706,470.112,584.693,473.125,580.973,473.125z M580.973,421.125c-3.719,0-6.729-3.015-6.729-6.732
	c0-3.717,3.014-6.73,6.729-6.73c3.722,0,6.732,3.014,6.732,6.73C587.706,418.112,584.693,421.125,580.973,421.125z M580.973,369.125
	c-3.719,0-6.729-3.016-6.729-6.732s3.014-6.73,6.729-6.73c3.722,0,6.732,3.014,6.732,6.73
	C587.706,366.111,584.693,369.125,580.973,369.125z M580.973,317.126c-3.719,0-6.729-3.014-6.729-6.732
	c0-3.718,3.014-6.731,6.729-6.731c3.722,0,6.732,3.014,6.732,6.731C587.706,314.112,584.693,317.126,580.973,317.126z
	 M580.973,265.126c-3.719,0-6.729-3.014-6.729-6.732c0-3.718,3.014-6.732,6.729-6.732c3.722,0,6.732,3.014,6.732,6.732
	C587.706,262.112,584.693,265.126,580.973,265.126z M580.973,213.126c-3.719,0-6.729-3.014-6.729-6.732
	c0-3.718,3.014-6.732,6.729-6.732c3.722,0,6.732,3.014,6.732,6.732C587.706,210.112,584.693,213.126,580.973,213.126z
	 M580.973,161.126c-3.719,0-6.729-3.014-6.729-6.732c0-3.718,3.014-6.732,6.729-6.732c3.722,0,6.732,3.014,6.732,6.732
	C587.706,158.112,584.693,161.126,580.973,161.126z M637.543,629.125c-3.719,0-6.732-3.014-6.732-6.732
	c0-3.717,3.018-6.73,6.732-6.73s6.732,3.014,6.732,6.73C644.276,626.112,641.262,629.125,637.543,629.125z M637.543,577.125
	c-3.719,0-6.732-3.014-6.732-6.732c0-3.717,3.018-6.73,6.732-6.73s6.732,3.014,6.732,6.73
	C644.276,574.112,641.262,577.125,637.543,577.125z M637.543,525.125c-3.719,0-6.732-3.014-6.732-6.732
	c0-3.717,3.018-6.73,6.732-6.73s6.732,3.014,6.732,6.73C644.276,522.112,641.262,525.125,637.543,525.125z M637.543,473.125
	c-3.719,0-6.732-3.014-6.732-6.732c0-3.717,3.018-6.73,6.732-6.73s6.732,3.014,6.732,6.73
	C644.276,470.112,641.262,473.125,637.543,473.125z M637.543,421.125c-3.719,0-6.732-3.015-6.732-6.732
	c0-3.717,3.018-6.73,6.732-6.73s6.732,3.014,6.732,6.73C644.276,418.112,641.262,421.125,637.543,421.125z M637.543,369.125
	c-3.719,0-6.732-3.016-6.732-6.732s3.018-6.73,6.732-6.73s6.732,3.014,6.732,6.73C644.276,366.111,641.262,369.125,637.543,369.125z
	 M637.543,317.126c-3.719,0-6.732-3.014-6.732-6.732c0-3.718,3.018-6.731,6.732-6.731s6.732,3.014,6.732,6.731
	C644.276,314.112,641.262,317.126,637.543,317.126z M637.543,265.126c-3.719,0-6.732-3.014-6.732-6.732
	c0-3.718,3.018-6.732,6.732-6.732s6.732,3.014,6.732,6.732C644.276,262.112,641.262,265.126,637.543,265.126z M637.543,213.126
	c-3.719,0-6.732-3.014-6.732-6.732c0-3.718,3.018-6.732,6.732-6.732s6.732,3.014,6.732,6.732
	C644.276,210.112,641.262,213.126,637.543,213.126z M637.543,161.126c-3.719,0-6.732-3.014-6.732-6.732
	c0-3.718,3.018-6.732,6.732-6.732s6.732,3.014,6.732,6.732C644.276,158.112,641.262,161.126,637.543,161.126z M637.543,109.126
	c-3.719,0-6.732-3.014-6.732-6.732c0-3.718,3.018-6.732,6.732-6.732s6.732,3.014,6.732,6.732
	C644.276,106.112,641.262,109.126,637.543,109.126z M694.115,629.125c-3.719,0-6.732-3.014-6.732-6.732
	c0-3.717,3.018-6.73,6.732-6.73s6.729,3.014,6.729,6.73C700.846,626.112,697.833,629.125,694.115,629.125z M694.115,577.125
	c-3.719,0-6.732-3.014-6.732-6.732c0-3.717,3.018-6.73,6.732-6.73s6.729,3.014,6.729,6.73
	C700.846,574.112,697.833,577.125,694.115,577.125z M694.115,525.125c-3.719,0-6.732-3.014-6.732-6.732
	c0-3.717,3.018-6.73,6.732-6.73s6.729,3.014,6.729,6.73C700.846,522.112,697.833,525.125,694.115,525.125z M694.115,473.125
	c-3.719,0-6.732-3.014-6.732-6.732c0-3.717,3.018-6.73,6.732-6.73s6.729,3.014,6.729,6.73
	C700.846,470.112,697.833,473.125,694.115,473.125z M694.115,421.125c-3.719,0-6.732-3.015-6.732-6.732
	c0-3.717,3.018-6.73,6.732-6.73s6.729,3.014,6.729,6.73C700.846,418.112,697.833,421.125,694.115,421.125z M694.115,369.125
	c-3.719,0-6.732-3.016-6.732-6.732s3.018-6.73,6.732-6.73s6.729,3.014,6.729,6.73C700.846,366.111,697.833,369.125,694.115,369.125z
	 M694.115,317.126c-3.719,0-6.732-3.014-6.732-6.732c0-3.718,3.018-6.731,6.732-6.731s6.729,3.014,6.729,6.731
	C700.846,314.112,697.833,317.126,694.115,317.126z M694.115,265.126c-3.719,0-6.732-3.014-6.732-6.732
	c0-3.718,3.018-6.732,6.732-6.732s6.729,3.014,6.729,6.732C700.846,262.112,697.833,265.126,694.115,265.126z M694.115,213.126
	c-3.719,0-6.732-3.014-6.732-6.732c0-3.718,3.018-6.732,6.732-6.732s6.729,3.014,6.729,6.732
	C700.846,210.112,697.833,213.126,694.115,213.126z M694.115,161.126c-3.719,0-6.732-3.014-6.732-6.732
	c0-3.718,3.018-6.732,6.732-6.732s6.729,3.014,6.729,6.732C700.846,158.112,697.833,161.126,694.115,161.126z M694.115,109.126
	c-3.719,0-6.732-3.014-6.732-6.732c0-3.718,3.018-6.732,6.732-6.732s6.729,3.014,6.729,6.732
	C700.846,106.112,697.833,109.126,694.115,109.126z M750.684,577.125c-3.719,0-6.729-3.014-6.729-6.732
	c0-3.717,3.013-6.73,6.729-6.73c3.723,0,6.732,3.014,6.732,6.73C757.417,574.112,754.403,577.125,750.684,577.125z M750.684,525.125
	c-3.719,0-6.729-3.014-6.729-6.732c0-3.717,3.013-6.73,6.729-6.73c3.723,0,6.732,3.014,6.732,6.73
	C757.417,522.112,754.403,525.125,750.684,525.125z M750.684,473.125c-3.719,0-6.729-3.014-6.729-6.732
	c0-3.717,3.013-6.73,6.729-6.73c3.723,0,6.732,3.014,6.732,6.73C757.417,470.112,754.403,473.125,750.684,473.125z M750.684,421.125
	c-3.719,0-6.729-3.015-6.729-6.732c0-3.717,3.013-6.73,6.729-6.73c3.723,0,6.732,3.014,6.732,6.73
	C757.417,418.112,754.403,421.125,750.684,421.125z M750.684,369.125c-3.719,0-6.729-3.016-6.729-6.732s3.013-6.73,6.729-6.73
	c3.723,0,6.732,3.014,6.732,6.73C757.417,366.111,754.403,369.125,750.684,369.125z M750.684,317.126
	c-3.719,0-6.729-3.014-6.729-6.732c0-3.718,3.013-6.731,6.729-6.731c3.723,0,6.732,3.014,6.732,6.731
	C757.417,314.112,754.403,317.126,750.684,317.126z M750.684,265.126c-3.719,0-6.729-3.014-6.729-6.732
	c0-3.718,3.013-6.732,6.729-6.732c3.723,0,6.732,3.014,6.732,6.732C757.417,262.112,754.403,265.126,750.684,265.126z
	 M750.684,213.126c-3.719,0-6.729-3.014-6.729-6.732c0-3.718,3.013-6.732,6.729-6.732c3.723,0,6.732,3.014,6.732,6.732
	C757.417,210.112,754.403,213.126,750.684,213.126z M750.684,161.126c-3.719,0-6.729-3.014-6.729-6.732
	c0-3.718,3.013-6.732,6.729-6.732c3.723,0,6.732,3.014,6.732,6.732C757.417,158.112,754.403,161.126,750.684,161.126z
	 M750.684,109.126c-3.719,0-6.729-3.014-6.729-6.732c0-3.718,3.013-6.732,6.729-6.732c3.723,0,6.732,3.014,6.732,6.732
	C757.417,106.112,754.403,109.126,750.684,109.126z M807.254,577.125c-3.719,0-6.729-3.014-6.729-6.732
	c0-3.717,3.014-6.73,6.729-6.73s6.732,3.014,6.732,6.73C813.987,574.112,810.973,577.125,807.254,577.125z M807.254,525.125
	c-3.719,0-6.729-3.014-6.729-6.732c0-3.717,3.014-6.73,6.729-6.73s6.732,3.014,6.732,6.73
	C813.987,522.112,810.973,525.125,807.254,525.125z M807.254,473.125c-3.719,0-6.729-3.014-6.729-6.732
	c0-3.717,3.014-6.73,6.729-6.73s6.732,3.014,6.732,6.73C813.987,470.112,810.973,473.125,807.254,473.125z M807.254,421.125
	c-3.719,0-6.729-3.015-6.729-6.732c0-3.717,3.014-6.73,6.729-6.73s6.732,3.014,6.732,6.73
	C813.987,418.112,810.973,421.125,807.254,421.125z M807.254,369.125c-3.719,0-6.729-3.016-6.729-6.732s3.014-6.73,6.729-6.73
	s6.732,3.014,6.732,6.73C813.987,366.111,810.973,369.125,807.254,369.125z M807.254,317.126c-3.719,0-6.729-3.014-6.729-6.732
	c0-3.718,3.014-6.731,6.729-6.731s6.732,3.014,6.732,6.731C813.987,314.112,810.973,317.126,807.254,317.126z M807.254,265.126
	c-3.719,0-6.729-3.014-6.729-6.732c0-3.718,3.014-6.732,6.729-6.732s6.732,3.014,6.732,6.732
	C813.987,262.112,810.973,265.126,807.254,265.126z M807.254,213.126c-3.719,0-6.729-3.014-6.729-6.732
	c0-3.718,3.014-6.732,6.729-6.732s6.732,3.014,6.732,6.732C813.987,210.112,810.973,213.126,807.254,213.126z M807.254,161.126
	c-3.719,0-6.729-3.014-6.729-6.732c0-3.718,3.014-6.732,6.729-6.732s6.732,3.014,6.732,6.732
	C813.987,158.112,810.973,161.126,807.254,161.126z M807.254,109.126c-3.719,0-6.729-3.014-6.729-6.732
	c0-3.718,3.014-6.732,6.729-6.732s6.732,3.014,6.732,6.732C813.987,106.112,810.973,109.126,807.254,109.126z M863.825,525.125
	c-3.719,0-6.732-3.014-6.732-6.732c0-3.717,3.018-6.73,6.732-6.73s6.729,3.014,6.729,6.73
	C870.556,522.112,867.543,525.125,863.825,525.125z M863.825,473.125c-3.719,0-6.732-3.014-6.732-6.732
	c0-3.717,3.018-6.73,6.732-6.73s6.729,3.014,6.729,6.73C870.556,470.112,867.543,473.125,863.825,473.125z M863.825,421.125
	c-3.719,0-6.732-3.015-6.732-6.732c0-3.717,3.018-6.73,6.732-6.73s6.729,3.014,6.729,6.73
	C870.556,418.112,867.543,421.125,863.825,421.125z M863.825,369.125c-3.719,0-6.732-3.016-6.732-6.732s3.018-6.73,6.732-6.73
	s6.729,3.014,6.729,6.73C870.556,366.111,867.543,369.125,863.825,369.125z M863.825,317.126c-3.719,0-6.732-3.014-6.732-6.732
	c0-3.718,3.018-6.731,6.732-6.731s6.729,3.014,6.729,6.731C870.556,314.112,867.543,317.126,863.825,317.126z M863.825,265.126
	c-3.719,0-6.732-3.014-6.732-6.732c0-3.718,3.018-6.732,6.732-6.732s6.729,3.014,6.729,6.732
	C870.556,262.112,867.543,265.126,863.825,265.126z M863.825,213.126c-3.719,0-6.732-3.014-6.732-6.732
	c0-3.718,3.018-6.732,6.732-6.732s6.729,3.014,6.729,6.732C870.556,210.112,867.543,213.126,863.825,213.126z M863.825,161.126
	c-3.719,0-6.732-3.014-6.732-6.732c0-3.718,3.018-6.732,6.732-6.732s6.729,3.014,6.729,6.732
	C870.556,158.112,867.543,161.126,863.825,161.126z M863.825,109.126c-3.719,0-6.732-3.014-6.732-6.732
	c0-3.718,3.018-6.732,6.732-6.732s6.729,3.014,6.729,6.732C870.556,106.112,867.543,109.126,863.825,109.126z M863.825,57.126
	c-3.719,0-6.732-3.014-6.732-6.732c0-3.718,3.018-6.732,6.732-6.732s6.729,3.014,6.729,6.732
	C870.556,54.112,867.543,57.126,863.825,57.126z M920.395,525.125c-3.721,0-6.73-3.014-6.73-6.732c0-3.717,3.014-6.73,6.73-6.73
	c3.72,0,6.73,3.014,6.73,6.73C927.126,522.112,924.114,525.125,920.395,525.125z M920.395,473.125c-3.721,0-6.73-3.014-6.73-6.732
	c0-3.717,3.014-6.73,6.73-6.73c3.72,0,6.73,3.014,6.73,6.73C927.126,470.112,924.114,473.125,920.395,473.125z M920.395,421.125
	c-3.721,0-6.73-3.015-6.73-6.732c0-3.717,3.014-6.73,6.73-6.73c3.72,0,6.73,3.014,6.73,6.73
	C927.126,418.112,924.114,421.125,920.395,421.125z M920.395,369.125c-3.721,0-6.73-3.016-6.73-6.732s3.014-6.73,6.73-6.73
	c3.72,0,6.73,3.014,6.73,6.73C927.126,366.111,924.114,369.125,920.395,369.125z M920.395,317.126c-3.721,0-6.73-3.014-6.73-6.732
	c0-3.718,3.014-6.731,6.73-6.731c3.72,0,6.73,3.014,6.73,6.731C927.126,314.112,924.114,317.126,920.395,317.126z M920.395,265.126
	c-3.721,0-6.73-3.014-6.73-6.732c0-3.718,3.014-6.732,6.73-6.732c3.72,0,6.73,3.014,6.73,6.732
	C927.126,262.112,924.114,265.126,920.395,265.126z M920.395,213.126c-3.721,0-6.73-3.014-6.73-6.732
	c0-3.718,3.014-6.732,6.73-6.732c3.72,0,6.73,3.014,6.73,6.732C927.126,210.112,924.114,213.126,920.395,213.126z M920.395,161.126
	c-3.721,0-6.73-3.014-6.73-6.732c0-3.718,3.014-6.732,6.73-6.732c3.72,0,6.73,3.014,6.73,6.732
	C927.126,158.112,924.114,161.126,920.395,161.126z M920.395,109.126c-3.721,0-6.73-3.014-6.73-6.732
	c0-3.718,3.014-6.732,6.73-6.732c3.72,0,6.73,3.014,6.73,6.732C927.126,106.112,924.114,109.126,920.395,109.126z M920.395,57.126
	c-3.721,0-6.73-3.014-6.73-6.732c0-3.718,3.014-6.732,6.73-6.732c3.72,0,6.73,3.014,6.73,6.732
	C927.126,54.112,924.114,57.126,920.395,57.126z M976.965,473.125c-3.719,0-6.729-3.014-6.729-6.732c0-3.717,3.014-6.73,6.729-6.73
	s6.732,3.014,6.732,6.73C983.698,470.112,980.684,473.125,976.965,473.125z M976.965,421.125c-3.719,0-6.729-3.015-6.729-6.732
	c0-3.717,3.014-6.73,6.729-6.73s6.732,3.014,6.732,6.73C983.698,418.112,980.684,421.125,976.965,421.125z M976.965,369.125
	c-3.719,0-6.729-3.016-6.729-6.732s3.014-6.73,6.729-6.73s6.732,3.014,6.732,6.73C983.698,366.111,980.684,369.125,976.965,369.125z
	 M976.965,317.126c-3.719,0-6.729-3.014-6.729-6.732c0-3.718,3.014-6.731,6.729-6.731s6.732,3.014,6.732,6.731
	C983.698,314.112,980.684,317.126,976.965,317.126z M976.965,265.126c-3.719,0-6.729-3.014-6.729-6.732
	c0-3.718,3.014-6.732,6.729-6.732s6.732,3.014,6.732,6.732C983.698,262.112,980.684,265.126,976.965,265.126z M976.965,213.126
	c-3.719,0-6.729-3.014-6.729-6.732c0-3.718,3.014-6.732,6.729-6.732s6.732,3.014,6.732,6.732
	C983.698,210.112,980.684,213.126,976.965,213.126z M976.965,161.126c-3.719,0-6.729-3.014-6.729-6.732
	c0-3.718,3.014-6.732,6.729-6.732s6.732,3.014,6.732,6.732C983.698,158.112,980.684,161.126,976.965,161.126z M976.965,109.126
	c-3.719,0-6.729-3.014-6.729-6.732c0-3.718,3.014-6.732,6.729-6.732s6.732,3.014,6.732,6.732
	C983.698,106.112,980.684,109.126,976.965,109.126z M976.965,57.126c-3.719,0-6.729-3.014-6.729-6.732
	c0-3.718,3.014-6.732,6.729-6.732s6.732,3.014,6.732,6.732C983.698,54.112,980.684,57.126,976.965,57.126z M1033.536,473.125
	c-3.719,0-6.732-3.014-6.732-6.732c0-3.717,3.018-6.73,6.732-6.73s6.73,3.014,6.73,6.73
	C1040.268,470.112,1037.254,473.125,1033.536,473.125z M1033.536,421.125c-3.719,0-6.732-3.015-6.732-6.732
	c0-3.717,3.018-6.73,6.732-6.73s6.73,3.014,6.73,6.73C1040.268,418.112,1037.254,421.125,1033.536,421.125z M1033.536,369.125
	c-3.719,0-6.732-3.016-6.732-6.732s3.018-6.73,6.732-6.73s6.73,3.014,6.73,6.73C1040.268,366.111,1037.254,369.125,1033.536,369.125
	z M1033.536,317.126c-3.719,0-6.732-3.014-6.732-6.732c0-3.718,3.018-6.731,6.732-6.731s6.73,3.014,6.73,6.731
	C1040.268,314.112,1037.254,317.126,1033.536,317.126z M1033.536,265.126c-3.719,0-6.732-3.014-6.732-6.732
	c0-3.718,3.018-6.732,6.732-6.732s6.73,3.014,6.73,6.732C1040.268,262.112,1037.254,265.126,1033.536,265.126z M1033.536,213.126
	c-3.719,0-6.732-3.014-6.732-6.732c0-3.718,3.018-6.732,6.732-6.732s6.73,3.014,6.73,6.732
	C1040.268,210.112,1037.254,213.126,1033.536,213.126z M1033.536,161.126c-3.719,0-6.732-3.014-6.732-6.732
	c0-3.718,3.018-6.732,6.732-6.732s6.73,3.014,6.73,6.732C1040.268,158.112,1037.254,161.126,1033.536,161.126z M1033.536,109.126
	c-3.719,0-6.732-3.014-6.732-6.732c0-3.718,3.018-6.732,6.732-6.732s6.73,3.014,6.73,6.732
	C1040.268,106.112,1037.254,109.126,1033.536,109.126z M1033.536,57.126c-3.719,0-6.732-3.014-6.732-6.732
	c0-3.718,3.018-6.732,6.732-6.732s6.73,3.014,6.73,6.732C1040.268,54.112,1037.254,57.126,1033.536,57.126z M1090.105,421.125
	c-3.722,0-6.731-3.015-6.731-6.732c0-3.717,3.014-6.73,6.731-6.73c3.719,0,6.729,3.014,6.729,6.73
	C1096.837,418.112,1093.825,421.125,1090.105,421.125z M1090.105,369.125c-3.722,0-6.731-3.016-6.731-6.732s3.014-6.73,6.731-6.73
	c3.719,0,6.729,3.014,6.729,6.73C1096.837,366.111,1093.825,369.125,1090.105,369.125z M1090.105,317.126
	c-3.722,0-6.731-3.014-6.731-6.732c0-3.718,3.014-6.731,6.731-6.731c3.719,0,6.729,3.014,6.729,6.731
	C1096.837,314.112,1093.825,317.126,1090.105,317.126z M1090.105,265.126c-3.722,0-6.731-3.014-6.731-6.732
	c0-3.718,3.014-6.732,6.731-6.732c3.719,0,6.729,3.014,6.729,6.732C1096.837,262.112,1093.825,265.126,1090.105,265.126z
	 M1090.105,213.126c-3.722,0-6.731-3.014-6.731-6.732c0-3.718,3.014-6.732,6.731-6.732c3.719,0,6.729,3.014,6.729,6.732
	C1096.837,210.112,1093.825,213.126,1090.105,213.126z M1090.105,161.126c-3.722,0-6.731-3.014-6.731-6.732
	c0-3.718,3.014-6.732,6.731-6.732c3.719,0,6.729,3.014,6.729,6.732C1096.837,158.112,1093.825,161.126,1090.105,161.126z
	 M1090.105,109.126c-3.722,0-6.731-3.014-6.731-6.732c0-3.718,3.014-6.732,6.731-6.732c3.719,0,6.729,3.014,6.729,6.732
	C1096.837,106.112,1093.825,109.126,1090.105,109.126z M1090.105,57.126c-3.722,0-6.731-3.014-6.731-6.732
	c0-3.718,3.014-6.732,6.731-6.732c3.719,0,6.729,3.014,6.729,6.732C1096.837,54.112,1093.825,57.126,1090.105,57.126z
	 M1146.676,369.125c-3.719,0-6.729-3.016-6.729-6.732s3.014-6.73,6.729-6.73c3.719,0,6.732,3.014,6.732,6.73
	C1153.409,366.111,1150.395,369.125,1146.676,369.125z M1146.676,317.126c-3.719,0-6.729-3.014-6.729-6.732
	c0-3.718,3.014-6.731,6.729-6.731c3.719,0,6.732,3.014,6.732,6.731C1153.409,314.112,1150.395,317.126,1146.676,317.126z
	 M1146.676,265.126c-3.719,0-6.729-3.014-6.729-6.732c0-3.718,3.014-6.732,6.729-6.732c3.719,0,6.732,3.014,6.732,6.732
	C1153.409,262.112,1150.395,265.126,1146.676,265.126z M1146.676,213.126c-3.719,0-6.729-3.014-6.729-6.732
	c0-3.718,3.014-6.732,6.729-6.732c3.719,0,6.732,3.014,6.732,6.732C1153.409,210.112,1150.395,213.126,1146.676,213.126z
	 M1146.676,161.126c-3.719,0-6.729-3.014-6.729-6.732c0-3.718,3.014-6.732,6.729-6.732c3.719,0,6.732,3.014,6.732,6.732
	C1153.409,158.112,1150.395,161.126,1146.676,161.126z M1146.676,109.126c-3.719,0-6.729-3.014-6.729-6.732
	c0-3.718,3.014-6.732,6.729-6.732c3.719,0,6.732,3.014,6.732,6.732C1153.409,106.112,1150.395,109.126,1146.676,109.126z
	 M1146.676,57.126c-3.719,0-6.729-3.014-6.729-6.732c0-3.718,3.014-6.732,6.729-6.732c3.719,0,6.732,3.014,6.732,6.732
	C1153.409,54.112,1150.395,57.126,1146.676,57.126z M1203.247,369.125c-3.719,0-6.732-3.016-6.732-6.732s3.018-6.73,6.732-6.73
	s6.73,3.014,6.73,6.73C1209.979,366.111,1206.965,369.125,1203.247,369.125z M1203.247,317.126c-3.719,0-6.732-3.014-6.732-6.732
	c0-3.718,3.018-6.731,6.732-6.731s6.73,3.014,6.73,6.731C1209.979,314.112,1206.965,317.126,1203.247,317.126z M1203.247,265.126
	c-3.719,0-6.732-3.014-6.732-6.732c0-3.718,3.018-6.732,6.732-6.732s6.73,3.014,6.73,6.732
	C1209.979,262.112,1206.965,265.126,1203.247,265.126z M1203.247,213.126c-3.719,0-6.732-3.014-6.732-6.732
	c0-3.718,3.018-6.732,6.732-6.732s6.73,3.014,6.73,6.732C1209.979,210.112,1206.965,213.126,1203.247,213.126z M1203.247,161.126
	c-3.719,0-6.732-3.014-6.732-6.732c0-3.718,3.018-6.732,6.732-6.732s6.73,3.014,6.73,6.732
	C1209.979,158.112,1206.965,161.126,1203.247,161.126z M1203.247,109.126c-3.719,0-6.732-3.014-6.732-6.732
	c0-3.718,3.018-6.732,6.732-6.732s6.73,3.014,6.73,6.732C1209.979,106.112,1206.965,109.126,1203.247,109.126z M1203.247,57.126
	c-3.719,0-6.732-3.014-6.732-6.732c0-3.718,3.018-6.732,6.732-6.732s6.73,3.014,6.73,6.732
	C1209.979,54.112,1206.965,57.126,1203.247,57.126z M1259.817,317.126c-3.723,0-6.732-3.014-6.732-6.732
	c0-3.718,3.014-6.731,6.732-6.731c3.718,0,6.729,3.014,6.729,6.731C1266.548,314.112,1263.536,317.126,1259.817,317.126z
	 M1259.817,265.126c-3.723,0-6.732-3.014-6.732-6.732c0-3.718,3.014-6.732,6.732-6.732c3.718,0,6.729,3.014,6.729,6.732
	C1266.548,262.112,1263.536,265.126,1259.817,265.126z M1259.817,213.126c-3.723,0-6.732-3.014-6.732-6.732
	c0-3.718,3.014-6.732,6.732-6.732c3.718,0,6.729,3.014,6.729,6.732C1266.548,210.112,1263.536,213.126,1259.817,213.126z
	 M1259.817,161.126c-3.723,0-6.732-3.014-6.732-6.732c0-3.718,3.014-6.732,6.732-6.732c3.718,0,6.729,3.014,6.729,6.732
	C1266.548,158.112,1263.536,161.126,1259.817,161.126z M1259.817,109.126c-3.723,0-6.732-3.014-6.732-6.732
	c0-3.718,3.014-6.732,6.732-6.732c3.718,0,6.729,3.014,6.729,6.732C1266.548,106.112,1263.536,109.126,1259.817,109.126z
	 M1316.387,317.126c-3.719,0-6.729-3.014-6.729-6.732c0-3.718,3.014-6.731,6.729-6.731c3.721,0,6.732,3.014,6.732,6.731
	C1323.12,314.112,1320.105,317.126,1316.387,317.126z M1316.387,265.126c-3.719,0-6.729-3.014-6.729-6.732
	c0-3.718,3.014-6.732,6.729-6.732c3.721,0,6.732,3.014,6.732,6.732C1323.12,262.112,1320.105,265.126,1316.387,265.126z
	 M1316.387,213.126c-3.719,0-6.729-3.014-6.729-6.732c0-3.718,3.014-6.732,6.729-6.732c3.721,0,6.732,3.014,6.732,6.732
	C1323.12,210.112,1320.105,213.126,1316.387,213.126z M1316.387,161.126c-3.719,0-6.729-3.014-6.729-6.732
	c0-3.718,3.014-6.732,6.729-6.732c3.721,0,6.732,3.014,6.732,6.732C1323.12,158.112,1320.105,161.126,1316.387,161.126z
	 M1372.958,265.126c-3.719,0-6.732-3.014-6.732-6.732c0-3.718,3.018-6.732,6.732-6.732s6.732,3.014,6.732,6.732
	C1379.689,262.112,1376.676,265.126,1372.958,265.126z M1372.958,213.126c-3.719,0-6.732-3.014-6.732-6.732
	c0-3.718,3.018-6.732,6.732-6.732s6.732,3.014,6.732,6.732C1379.689,210.112,1376.676,213.126,1372.958,213.126z M1372.958,161.126
	c-3.719,0-6.732-3.014-6.732-6.732c0-3.718,3.018-6.732,6.732-6.732s6.732,3.014,6.732,6.732
	C1379.689,158.112,1376.676,161.126,1372.958,161.126z M1429.528,213.126c-3.721,0-6.732-3.014-6.732-6.732
	c0-3.718,3.014-6.732,6.732-6.732c3.718,0,6.729,3.014,6.729,6.732C1436.259,210.112,1433.247,213.126,1429.528,213.126z"/>
</svg>
