<?xml version="1.0" encoding="utf-8"?>
<!-- Generator: Adobe Illustrator 16.0.0, SVG Export Plug-In . SVG Version: 6.00 Build 0)  -->
<!DOCTYPE svg PUBLIC "-//W3C//DTD SVG 1.1//EN" "http://www.w3.org/Graphics/SVG/1.1/DTD/svg11.dtd">
<svg version="1.1" id="Layer_1" xmlns="http://www.w3.org/2000/svg" xmlns:xlink="http://www.w3.org/1999/xlink" x="0px" y="0px"
	 width="1490.857px" height="691.83px" viewBox="0 0 1490.857 691.83" enable-background="new 0 0 1490.857 691.83"
	 xml:space="preserve">
<path d="M1490.853,193.636c-0.15-4.007-6.047-7.303-9.072-8.837l-0.162-0.083l-0.153-0.096
	c-32.164-19.967-64.572-39.568-97.354-58.51c-28.944-16.727-58.221-32.978-87.957-48.256
	c-25.078-12.887-50.619-25.188-76.672-35.984c-20.494-8.495-41.846-16.354-63.396-21.697l-0.057-0.015l-0.055-0.014
	C1044.99-10.42,935.597-7.16,828.719,36.5l-0.188,0.075l-0.19,0.06c-33.679,10.153-67.666,18.913-101.994,26.562
	c-31.168,6.943-62.504,12.96-93.883,18.844c-36.989,6.938-73.967,13.783-110.73,21.849c-41.724,9.153-82.924,19.845-123.742,32.443
	c-41.054,12.525-81.817,26.066-122.154,40.728c-37.098,13.481-73.912,27.923-110.108,43.666
	c-31.021,13.488-61.834,27.984-91.559,44.15c-12.462,6.777-24.773,13.882-36.763,21.468c-10.151,6.426-20.145,13.229-29.63,20.605
	l-0.043,0.034c-3.051,2.311-8.632,7.429-7.608,11.865c0.931,4.016,7.132,6.023,10.552,6.787l0.036,0.012
	c9.101,2.112,18.353,3.754,27.574,5.21c10.903,1.721,21.857,3.173,32.812,4.522c24.728,3.05,49.521,5.588,74.273,8.407
	c22.781,2.594,45.601,5.366,68.234,9.024c19.669,2.825,40.187,8.562,55.22,22.23c11.629,10.568,18.208,24.35,21.384,39.584
	l0.011,0.035l21.28,111.727l0.018,0.216c1.812,20.265,8.623,38.804,27.364,48.843l214.812,104.539
	c9.221,3.734,19.021,7.568,28.696,9.924c6.27,1.52,12.369,2.319,18.814,1.721c4.354-0.396,8.601-1.393,12.795-2.598
	c5.455-1.566,10.854-3.453,16.229-5.271l0.114-0.041l0.12-0.027c12.639-3.477,25.234-8.203,37.396-13.062
	c16.493-6.59,32.778-13.807,48.912-21.227c41.562-19.115,82.573-39.793,123.271-60.682c73.873-38.26,147.653-76.717,221.062-115.875
	c64.396-34.352,128.606-69.227,191.938-105.512c26.67-15.275,53.192-30.828,79.416-46.856
	c22.061-13.485,43.961-27.324,65.354-41.838c16.707-11.332,33.344-23.172,48.982-35.949c6.041-4.934,11.973-10.049,17.602-15.448
	c4.422-4.242,8.746-8.729,12.573-13.518l0.021-0.03l0.021-0.029c3.264-3.936,6.885-7.671,9.963-11.734
	C1488.583,199.827,1490.958,196.41,1490.853,193.636z M71.839,317.126c-3.719,0-6.729-3.014-6.729-6.731
	c0-3.719,3.014-6.731,6.729-6.731c3.721,0,6.732,3.014,6.732,6.731C78.572,314.112,75.559,317.126,71.839,317.126z M128.411,317.126
	c-3.719,0-6.729-3.014-6.729-6.731c0-3.719,3.014-6.731,6.729-6.731s6.732,3.014,6.732,6.731S132.128,317.126,128.411,317.126z
	 M128.411,265.126c-3.719,0-6.729-3.014-6.729-6.731c0-3.719,3.014-6.732,6.729-6.732s6.732,3.014,6.732,6.732
	C135.143,262.112,132.128,265.126,128.411,265.126z M184.98,317.126c-3.719,0-6.732-3.014-6.732-6.731
	c0-3.719,3.017-6.731,6.732-6.731s6.729,3.014,6.729,6.731C191.712,314.112,188.7,317.126,184.98,317.126z M184.98,265.126
	c-3.719,0-6.732-3.014-6.732-6.731c0-3.719,3.017-6.732,6.732-6.732s6.729,3.014,6.729,6.732
	C191.712,262.112,188.7,265.126,184.98,265.126z M241.552,317.126c-3.722,0-6.732-3.014-6.732-6.731
	c0-3.719,3.014-6.731,6.732-6.731c3.718,0,6.729,3.014,6.729,6.731C248.283,314.112,245.27,317.126,241.552,317.126z
	 M241.552,265.126c-3.722,0-6.732-3.014-6.732-6.731c0-3.719,3.014-6.732,6.732-6.732c3.718,0,6.729,3.014,6.729,6.732
	C248.283,262.112,245.27,265.126,241.552,265.126z M241.552,213.126c-3.722,0-6.732-3.014-6.732-6.731
	c0-3.719,3.014-6.732,6.732-6.732c3.718,0,6.729,3.014,6.729,6.732C248.283,210.112,245.27,213.126,241.552,213.126z
	 M298.122,369.125c-3.719,0-6.729-3.015-6.729-6.731c0-3.718,3.014-6.729,6.729-6.729c3.721,0,6.732,3.015,6.732,6.729
	C304.853,366.11,301.842,369.125,298.122,369.125z M298.122,317.126c-3.719,0-6.729-3.014-6.729-6.731
	c0-3.719,3.014-6.731,6.729-6.731c3.721,0,6.732,3.014,6.732,6.731C304.853,314.112,301.842,317.126,298.122,317.126z
	 M298.122,265.126c-3.719,0-6.729-3.014-6.729-6.731c0-3.719,3.014-6.732,6.729-6.732c3.721,0,6.732,3.014,6.732,6.732
	C304.853,262.112,301.842,265.126,298.122,265.126z M298.122,213.126c-3.719,0-6.729-3.014-6.729-6.731
	c0-3.719,3.014-6.732,6.729-6.732c3.721,0,6.732,3.014,6.732,6.732C304.853,210.112,301.842,213.126,298.122,213.126z
	 M354.692,525.125c-3.72,0-6.729-3.014-6.729-6.732c0-3.717,3.014-6.729,6.729-6.729s6.731,3.014,6.731,6.729
	C361.426,522.112,358.411,525.125,354.692,525.125z M354.692,473.125c-3.72,0-6.729-3.014-6.729-6.732
	c0-3.717,3.014-6.729,6.729-6.729s6.731,3.014,6.731,6.729C361.426,470.112,358.411,473.125,354.692,473.125z M354.692,421.125
	c-3.72,0-6.729-3.015-6.729-6.731c0-3.718,3.014-6.729,6.729-6.729s6.731,3.015,6.731,6.729
	C361.426,418.11,358.411,421.125,354.692,421.125z M354.692,369.125c-3.72,0-6.729-3.015-6.729-6.731
	c0-3.718,3.014-6.729,6.729-6.729s6.731,3.015,6.731,6.729C361.426,366.11,358.411,369.125,354.692,369.125z M354.692,317.126
	c-3.72,0-6.729-3.014-6.729-6.731c0-3.719,3.014-6.731,6.729-6.731s6.731,3.014,6.731,6.731
	C361.426,314.112,358.411,317.126,354.692,317.126z M354.692,265.126c-3.72,0-6.729-3.014-6.729-6.731
	c0-3.719,3.014-6.732,6.729-6.732s6.731,3.014,6.731,6.732C361.426,262.112,358.411,265.126,354.692,265.126z M354.692,213.126
	c-3.72,0-6.729-3.014-6.729-6.731c0-3.719,3.014-6.732,6.729-6.732s6.731,3.014,6.731,6.732
	C361.426,210.112,358.411,213.126,354.692,213.126z M411.261,577.125c-3.72,0-6.73-3.014-6.73-6.732c0-3.717,3.017-6.729,6.73-6.729
	c3.72,0,6.729,3.014,6.729,6.729C417.994,574.112,414.981,577.125,411.261,577.125z M411.261,525.125c-3.72,0-6.73-3.014-6.73-6.732
	c0-3.717,3.017-6.729,6.73-6.729c3.72,0,6.729,3.014,6.729,6.729C417.994,522.112,414.981,525.125,411.261,525.125z
	 M411.261,473.125c-3.72,0-6.73-3.014-6.73-6.732c0-3.717,3.017-6.729,6.73-6.729c3.72,0,6.729,3.014,6.729,6.729
	C417.994,470.112,414.981,473.125,411.261,473.125z M411.261,421.125c-3.72,0-6.73-3.015-6.73-6.731c0-3.718,3.017-6.729,6.73-6.729
	c3.72,0,6.729,3.015,6.729,6.729C417.994,418.11,414.981,421.125,411.261,421.125z M411.261,369.125c-3.72,0-6.73-3.015-6.73-6.731
	c0-3.718,3.017-6.729,6.73-6.729c3.72,0,6.729,3.015,6.729,6.729C417.994,366.11,414.981,369.125,411.261,369.125z M411.261,317.126
	c-3.72,0-6.73-3.014-6.73-6.731c0-3.719,3.017-6.731,6.73-6.731c3.72,0,6.729,3.014,6.729,6.731
	C417.994,314.112,414.981,317.126,411.261,317.126z M411.261,265.126c-3.72,0-6.73-3.014-6.73-6.731c0-3.719,3.017-6.732,6.73-6.732
	c3.72,0,6.729,3.014,6.729,6.732C417.994,262.112,414.981,265.126,411.261,265.126z M411.261,213.126c-3.72,0-6.73-3.014-6.73-6.731
	c0-3.719,3.017-6.732,6.73-6.732c3.72,0,6.729,3.014,6.729,6.732C417.994,210.112,414.981,213.126,411.261,213.126z
	 M411.261,161.126c-3.72,0-6.73-3.014-6.73-6.731c0-3.719,3.017-6.732,6.73-6.732c3.72,0,6.729,3.014,6.729,6.732
	C417.994,158.112,414.981,161.126,411.261,161.126z M467.832,577.125c-3.719,0-6.729-3.014-6.729-6.732
	c0-3.717,3.016-6.729,6.729-6.729c3.719,0,6.732,3.014,6.732,6.729C474.564,574.112,471.552,577.125,467.832,577.125z
	 M467.832,525.125c-3.719,0-6.729-3.014-6.729-6.732c0-3.717,3.016-6.729,6.729-6.729c3.719,0,6.732,3.014,6.732,6.729
	C474.564,522.112,471.552,525.125,467.832,525.125z M467.832,473.125c-3.719,0-6.729-3.014-6.729-6.732
	c0-3.717,3.016-6.729,6.729-6.729c3.719,0,6.732,3.014,6.732,6.729C474.564,470.112,471.552,473.125,467.832,473.125z
	 M467.832,421.125c-3.719,0-6.729-3.015-6.729-6.731c0-3.718,3.016-6.729,6.729-6.729c3.719,0,6.732,3.015,6.732,6.729
	C474.564,418.11,471.552,421.125,467.832,421.125z M467.832,369.125c-3.719,0-6.729-3.015-6.729-6.731
	c0-3.718,3.016-6.729,6.729-6.729c3.719,0,6.732,3.015,6.732,6.729C474.564,366.11,471.552,369.125,467.832,369.125z
	 M467.832,317.126c-3.719,0-6.729-3.014-6.729-6.731c0-3.719,3.016-6.731,6.729-6.731c3.719,0,6.732,3.014,6.732,6.731
	S471.552,317.126,467.832,317.126z M467.832,265.126c-3.719,0-6.729-3.014-6.729-6.731c0-3.719,3.016-6.732,6.729-6.732
	c3.719,0,6.732,3.014,6.732,6.732C474.564,262.112,471.552,265.126,467.832,265.126z M467.832,213.126
	c-3.719,0-6.729-3.014-6.729-6.731c0-3.719,3.016-6.732,6.729-6.732c3.719,0,6.732,3.014,6.732,6.732
	C474.564,210.112,471.552,213.126,467.832,213.126z M467.832,161.126c-3.719,0-6.729-3.014-6.729-6.731
	c0-3.719,3.016-6.732,6.729-6.732c3.719,0,6.732,3.014,6.732,6.732C474.564,158.112,471.552,161.126,467.832,161.126z
	 M524.403,629.125c-3.72,0-6.729-3.014-6.729-6.732c0-3.717,3.016-6.729,6.729-6.729s6.73,3.014,6.73,6.729
	C531.135,626.112,528.122,629.125,524.403,629.125z M524.403,577.125c-3.72,0-6.729-3.014-6.729-6.732
	c0-3.717,3.016-6.729,6.729-6.729s6.73,3.014,6.73,6.729C531.135,574.112,528.122,577.125,524.403,577.125z M524.403,525.125
	c-3.72,0-6.729-3.014-6.729-6.732c0-3.717,3.016-6.729,6.729-6.729s6.73,3.014,6.73,6.729
	C531.135,522.112,528.122,525.125,524.403,525.125z M524.403,473.125c-3.72,0-6.729-3.014-6.729-6.732
	c0-3.717,3.016-6.729,6.729-6.729s6.73,3.014,6.73,6.729C531.135,470.112,528.122,473.125,524.403,473.125z M524.403,421.125
	c-3.72,0-6.729-3.015-6.729-6.731c0-3.718,3.016-6.729,6.729-6.729s6.73,3.015,6.73,6.729
	C531.135,418.11,528.122,421.125,524.403,421.125z M524.403,369.125c-3.72,0-6.729-3.015-6.729-6.731
	c0-3.718,3.016-6.729,6.729-6.729s6.73,3.015,6.73,6.729C531.135,366.11,528.122,369.125,524.403,369.125z M524.403,317.126
	c-3.72,0-6.729-3.014-6.729-6.731c0-3.719,3.016-6.731,6.729-6.731s6.73,3.014,6.73,6.731
	C531.135,314.112,528.122,317.126,524.403,317.126z M524.403,265.126c-3.72,0-6.729-3.014-6.729-6.731
	c0-3.719,3.016-6.732,6.729-6.732s6.73,3.014,6.73,6.732C531.135,262.112,528.122,265.126,524.403,265.126z M524.403,213.126
	c-3.72,0-6.729-3.014-6.729-6.731c0-3.719,3.016-6.732,6.729-6.732s6.73,3.014,6.73,6.732
	C531.135,210.112,528.122,213.126,524.403,213.126z M524.403,161.126c-3.72,0-6.729-3.014-6.729-6.731
	c0-3.719,3.016-6.732,6.729-6.732s6.73,3.014,6.73,6.732C531.135,158.112,528.122,161.126,524.403,161.126z M580.972,629.125
	c-3.719,0-6.73-3.014-6.73-6.732c0-3.717,3.017-6.729,6.73-6.729c3.72,0,6.729,3.014,6.729,6.729
	C587.705,626.112,584.692,629.125,580.972,629.125z M580.972,577.125c-3.719,0-6.73-3.014-6.73-6.732
	c0-3.717,3.017-6.729,6.73-6.729c3.72,0,6.729,3.014,6.729,6.729C587.705,574.112,584.692,577.125,580.972,577.125z
	 M580.972,525.125c-3.719,0-6.73-3.014-6.73-6.732c0-3.717,3.017-6.729,6.73-6.729c3.72,0,6.729,3.014,6.729,6.729
	C587.705,522.112,584.692,525.125,580.972,525.125z M580.972,473.125c-3.719,0-6.73-3.014-6.73-6.732
	c0-3.717,3.017-6.729,6.73-6.729c3.72,0,6.729,3.014,6.729,6.729C587.705,470.112,584.692,473.125,580.972,473.125z
	 M580.972,421.125c-3.719,0-6.73-3.015-6.73-6.731c0-3.718,3.017-6.729,6.73-6.729c3.72,0,6.729,3.015,6.729,6.729
	C587.705,418.11,584.692,421.125,580.972,421.125z M580.972,369.125c-3.719,0-6.73-3.015-6.73-6.731c0-3.718,3.017-6.729,6.73-6.729
	c3.72,0,6.729,3.015,6.729,6.729C587.705,366.11,584.692,369.125,580.972,369.125z M580.972,317.126c-3.719,0-6.73-3.014-6.73-6.731
	c0-3.719,3.017-6.731,6.73-6.731c3.72,0,6.729,3.014,6.729,6.731C587.705,314.112,584.692,317.126,580.972,317.126z
	 M580.972,265.126c-3.719,0-6.73-3.014-6.73-6.731c0-3.719,3.017-6.732,6.73-6.732c3.72,0,6.729,3.014,6.729,6.732
	C587.705,262.112,584.692,265.126,580.972,265.126z M580.972,213.126c-3.719,0-6.73-3.014-6.73-6.731
	c0-3.719,3.017-6.732,6.73-6.732c3.72,0,6.729,3.014,6.729,6.732C587.705,210.112,584.692,213.126,580.972,213.126z
	 M580.972,161.126c-3.719,0-6.73-3.014-6.73-6.731c0-3.719,3.017-6.732,6.73-6.732c3.72,0,6.729,3.014,6.729,6.732
	C587.705,158.112,584.692,161.126,580.972,161.126z M637.545,629.125c-3.722,0-6.732-3.014-6.732-6.732
	c0-3.717,3.016-6.729,6.732-6.729c3.716,0,6.729,3.014,6.729,6.729C644.275,626.112,641.261,629.125,637.545,629.125z
	 M637.545,577.125c-3.722,0-6.732-3.014-6.732-6.732c0-3.717,3.016-6.729,6.732-6.729c3.716,0,6.729,3.014,6.729,6.729
	C644.275,574.112,641.261,577.125,637.545,577.125z M637.545,525.125c-3.722,0-6.732-3.014-6.732-6.732
	c0-3.717,3.016-6.729,6.732-6.729c3.716,0,6.729,3.014,6.729,6.729C644.275,522.112,641.261,525.125,637.545,525.125z
	 M637.545,473.125c-3.722,0-6.732-3.014-6.732-6.732c0-3.717,3.016-6.729,6.732-6.729c3.716,0,6.729,3.014,6.729,6.729
	C644.275,470.112,641.261,473.125,637.545,473.125z M637.545,421.125c-3.722,0-6.732-3.015-6.732-6.731
	c0-3.718,3.016-6.729,6.732-6.729c3.716,0,6.729,3.015,6.729,6.729C644.275,418.11,641.261,421.125,637.545,421.125z
	 M637.545,369.125c-3.722,0-6.732-3.015-6.732-6.731c0-3.718,3.016-6.729,6.732-6.729c3.716,0,6.729,3.015,6.729,6.729
	C644.275,366.11,641.261,369.125,637.545,369.125z M637.545,317.126c-3.722,0-6.732-3.014-6.732-6.731
	c0-3.719,3.016-6.731,6.732-6.731c3.716,0,6.729,3.014,6.729,6.731C644.275,314.112,641.261,317.126,637.545,317.126z
	 M637.545,265.126c-3.722,0-6.732-3.014-6.732-6.731c0-3.719,3.016-6.732,6.732-6.732c3.716,0,6.729,3.014,6.729,6.732
	C644.275,262.112,641.261,265.126,637.545,265.126z M637.545,213.126c-3.722,0-6.732-3.014-6.732-6.731
	c0-3.719,3.016-6.732,6.732-6.732c3.716,0,6.729,3.014,6.729,6.732C644.275,210.112,641.261,213.126,637.545,213.126z
	 M637.545,161.126c-3.722,0-6.732-3.014-6.732-6.731c0-3.719,3.016-6.732,6.732-6.732c3.716,0,6.729,3.014,6.729,6.732
	C644.275,158.112,641.261,161.126,637.545,161.126z M637.545,109.126c-3.722,0-6.732-3.014-6.732-6.731
	c0-3.719,3.016-6.732,6.732-6.732c3.716,0,6.729,3.014,6.729,6.732C644.275,106.112,641.261,109.126,637.545,109.126z
	 M694.114,629.125c-3.719,0-6.729-3.014-6.729-6.732c0-3.717,3.016-6.729,6.729-6.729s6.73,3.014,6.73,6.729
	C700.845,626.112,697.832,629.125,694.114,629.125z M694.114,577.125c-3.719,0-6.729-3.014-6.729-6.732
	c0-3.717,3.016-6.729,6.729-6.729s6.73,3.014,6.73,6.729C700.845,574.112,697.832,577.125,694.114,577.125z M694.114,525.125
	c-3.719,0-6.729-3.014-6.729-6.732c0-3.717,3.016-6.729,6.729-6.729s6.73,3.014,6.73,6.729
	C700.845,522.112,697.832,525.125,694.114,525.125z M694.114,473.125c-3.719,0-6.729-3.014-6.729-6.732
	c0-3.717,3.016-6.729,6.729-6.729s6.73,3.014,6.73,6.729C700.845,470.112,697.832,473.125,694.114,473.125z M694.114,421.125
	c-3.719,0-6.729-3.015-6.729-6.731c0-3.718,3.016-6.729,6.729-6.729s6.73,3.015,6.73,6.729
	C700.845,418.11,697.832,421.125,694.114,421.125z M694.114,369.125c-3.719,0-6.729-3.015-6.729-6.731
	c0-3.718,3.016-6.729,6.729-6.729s6.73,3.015,6.73,6.729C700.845,366.11,697.832,369.125,694.114,369.125z M694.114,317.126
	c-3.719,0-6.729-3.014-6.729-6.731c0-3.719,3.016-6.731,6.729-6.731s6.73,3.014,6.73,6.731
	C700.845,314.112,697.832,317.126,694.114,317.126z M694.114,265.126c-3.719,0-6.729-3.014-6.729-6.731
	c0-3.719,3.016-6.732,6.729-6.732s6.73,3.014,6.73,6.732C700.845,262.112,697.832,265.126,694.114,265.126z M694.114,213.126
	c-3.719,0-6.729-3.014-6.729-6.731c0-3.719,3.016-6.732,6.729-6.732s6.73,3.014,6.73,6.732
	C700.845,210.112,697.832,213.126,694.114,213.126z M694.114,161.126c-3.719,0-6.729-3.014-6.729-6.731
	c0-3.719,3.016-6.732,6.729-6.732s6.73,3.014,6.73,6.732C700.845,158.112,697.832,161.126,694.114,161.126z M694.114,109.126
	c-3.719,0-6.729-3.014-6.729-6.731c0-3.719,3.016-6.732,6.729-6.732s6.73,3.014,6.73,6.732
	C700.845,106.112,697.832,109.126,694.114,109.126z M750.683,577.125c-3.719,0-6.73-3.014-6.73-6.732
	c0-3.717,3.016-6.729,6.73-6.729c3.721,0,6.731,3.014,6.731,6.729C757.417,574.112,754.402,577.125,750.683,577.125z
	 M750.683,525.125c-3.719,0-6.73-3.014-6.73-6.732c0-3.717,3.016-6.729,6.73-6.729c3.721,0,6.731,3.014,6.731,6.729
	C757.417,522.112,754.402,525.125,750.683,525.125z M750.683,473.125c-3.719,0-6.73-3.014-6.73-6.732
	c0-3.717,3.016-6.729,6.73-6.729c3.721,0,6.731,3.014,6.731,6.729C757.417,470.112,754.402,473.125,750.683,473.125z
	 M750.683,421.125c-3.719,0-6.73-3.015-6.73-6.731c0-3.718,3.016-6.729,6.73-6.729c3.721,0,6.731,3.015,6.731,6.729
	C757.415,418.11,754.402,421.125,750.683,421.125z M750.683,369.125c-3.719,0-6.73-3.015-6.73-6.731c0-3.718,3.016-6.729,6.73-6.729
	c3.721,0,6.731,3.015,6.731,6.729C757.415,366.11,754.402,369.125,750.683,369.125z M750.683,317.126
	c-3.719,0-6.73-3.014-6.73-6.731c0-3.719,3.016-6.731,6.73-6.731c3.721,0,6.731,3.014,6.731,6.731S754.402,317.126,750.683,317.126z
	 M750.683,265.126c-3.719,0-6.73-3.014-6.73-6.731c0-3.719,3.016-6.732,6.73-6.732c3.721,0,6.731,3.014,6.731,6.732
	C757.417,262.112,754.402,265.126,750.683,265.126z M750.683,213.126c-3.719,0-6.73-3.014-6.73-6.731
	c0-3.719,3.016-6.732,6.73-6.732c3.721,0,6.731,3.014,6.731,6.732C757.417,210.112,754.402,213.126,750.683,213.126z
	 M750.683,161.126c-3.719,0-6.73-3.014-6.73-6.731c0-3.719,3.016-6.732,6.73-6.732c3.721,0,6.731,3.014,6.731,6.732
	C757.417,158.112,754.402,161.126,750.683,161.126z M750.683,109.126c-3.719,0-6.73-3.014-6.73-6.731
	c0-3.719,3.016-6.732,6.73-6.732c3.721,0,6.731,3.014,6.731,6.732C757.417,106.112,754.402,109.126,750.683,109.126z
	 M807.256,577.125c-3.722,0-6.73-3.014-6.73-6.732c0-3.717,3.014-6.729,6.73-6.729c3.716,0,6.729,3.014,6.729,6.729
	C813.986,574.112,810.972,577.125,807.256,577.125z M807.256,525.125c-3.722,0-6.73-3.014-6.73-6.732
	c0-3.717,3.014-6.729,6.73-6.729c3.716,0,6.729,3.014,6.729,6.729C813.986,522.112,810.972,525.125,807.256,525.125z
	 M807.256,473.125c-3.722,0-6.73-3.014-6.73-6.732c0-3.717,3.014-6.729,6.73-6.729c3.716,0,6.729,3.014,6.729,6.729
	C813.986,470.112,810.972,473.125,807.256,473.125z M807.256,421.125c-3.722,0-6.73-3.015-6.73-6.731
	c0-3.718,3.014-6.729,6.73-6.729c3.716,0,6.729,3.015,6.729,6.729C813.986,418.11,810.972,421.125,807.256,421.125z
	 M807.256,369.125c-3.722,0-6.73-3.015-6.73-6.731c0-3.718,3.014-6.729,6.73-6.729c3.716,0,6.729,3.015,6.729,6.729
	C813.986,366.11,810.972,369.125,807.256,369.125z M807.256,317.126c-3.722,0-6.73-3.014-6.73-6.731c0-3.719,3.014-6.731,6.73-6.731
	c3.716,0,6.729,3.014,6.729,6.731C813.986,314.112,810.972,317.126,807.256,317.126z M807.256,265.126
	c-3.722,0-6.73-3.014-6.73-6.731c0-3.719,3.014-6.732,6.73-6.732c3.716,0,6.729,3.014,6.729,6.732
	C813.986,262.112,810.972,265.126,807.256,265.126z M807.256,213.126c-3.722,0-6.73-3.014-6.73-6.731
	c0-3.719,3.014-6.732,6.73-6.732c3.716,0,6.729,3.014,6.729,6.732C813.986,210.112,810.972,213.126,807.256,213.126z
	 M807.256,161.126c-3.722,0-6.73-3.014-6.73-6.731c0-3.719,3.014-6.732,6.73-6.732c3.716,0,6.729,3.014,6.729,6.732
	C813.986,158.112,810.972,161.126,807.256,161.126z M807.256,109.126c-3.722,0-6.73-3.014-6.73-6.731
	c0-3.719,3.014-6.732,6.73-6.732c3.716,0,6.729,3.014,6.729,6.732C813.986,106.112,810.972,109.126,807.256,109.126z
	 M863.824,525.125c-3.719,0-6.729-3.014-6.729-6.732c0-3.717,3.016-6.729,6.729-6.729c3.717,0,6.73,3.014,6.73,6.729
	C870.555,522.112,867.545,525.125,863.824,525.125z M863.824,473.125c-3.719,0-6.729-3.014-6.729-6.732
	c0-3.717,3.016-6.729,6.729-6.729c3.717,0,6.73,3.014,6.73,6.729C870.555,470.112,867.545,473.125,863.824,473.125z
	 M863.824,421.125c-3.719,0-6.729-3.015-6.729-6.731c0-3.718,3.016-6.729,6.729-6.729c3.717,0,6.73,3.015,6.73,6.729
	C870.555,418.11,867.545,421.125,863.824,421.125z M863.824,369.125c-3.719,0-6.729-3.015-6.729-6.731
	c0-3.718,3.016-6.729,6.729-6.729c3.717,0,6.73,3.015,6.73,6.729C870.555,366.11,867.545,369.125,863.824,369.125z M863.824,317.126
	c-3.719,0-6.729-3.014-6.729-6.731c0-3.719,3.016-6.731,6.729-6.731c3.717,0,6.73,3.014,6.73,6.731
	C870.555,314.112,867.545,317.126,863.824,317.126z M863.824,265.126c-3.719,0-6.729-3.014-6.729-6.731
	c0-3.719,3.016-6.732,6.729-6.732c3.717,0,6.73,3.014,6.73,6.732C870.555,262.112,867.545,265.126,863.824,265.126z
	 M863.824,213.126c-3.719,0-6.729-3.014-6.729-6.731c0-3.719,3.016-6.732,6.729-6.732c3.717,0,6.73,3.014,6.73,6.732
	C870.555,210.112,867.545,213.126,863.824,213.126z M863.824,161.126c-3.719,0-6.729-3.014-6.729-6.731
	c0-3.719,3.016-6.732,6.729-6.732c3.717,0,6.73,3.014,6.73,6.732C870.555,158.112,867.545,161.126,863.824,161.126z
	 M863.824,109.126c-3.719,0-6.729-3.014-6.729-6.731c0-3.719,3.016-6.732,6.729-6.732c3.717,0,6.73,3.014,6.73,6.732
	C870.555,106.112,867.545,109.126,863.824,109.126z M863.824,57.126c-3.719,0-6.729-3.014-6.729-6.731
	c0-3.719,3.016-6.732,6.729-6.732c3.717,0,6.73,3.014,6.73,6.732C870.555,54.112,867.545,57.126,863.824,57.126z M920.394,525.125
	c-3.721,0-6.732-3.014-6.732-6.732c0-3.717,3.017-6.729,6.732-6.729s6.729,3.014,6.729,6.729
	C927.126,522.112,924.113,525.125,920.394,525.125z M920.394,473.125c-3.721,0-6.732-3.014-6.732-6.732
	c0-3.717,3.017-6.729,6.732-6.729s6.729,3.014,6.729,6.729C927.126,470.112,924.113,473.125,920.394,473.125z M920.394,421.125
	c-3.721,0-6.732-3.015-6.732-6.731c0-3.718,3.017-6.729,6.732-6.729s6.729,3.015,6.729,6.729
	C927.124,418.11,924.113,421.125,920.394,421.125z M920.394,369.125c-3.721,0-6.732-3.015-6.732-6.731
	c0-3.718,3.017-6.729,6.732-6.729s6.729,3.015,6.729,6.729C927.124,366.11,924.113,369.125,920.394,369.125z M920.394,317.126
	c-3.721,0-6.732-3.014-6.732-6.731c0-3.719,3.017-6.731,6.732-6.731s6.729,3.014,6.729,6.731S924.113,317.126,920.394,317.126z
	 M920.394,265.126c-3.721,0-6.732-3.014-6.732-6.731c0-3.719,3.017-6.732,6.732-6.732s6.729,3.014,6.729,6.732
	C927.126,262.112,924.113,265.126,920.394,265.126z M920.394,213.126c-3.721,0-6.732-3.014-6.732-6.731
	c0-3.719,3.017-6.732,6.732-6.732s6.729,3.014,6.729,6.732C927.126,210.112,924.113,213.126,920.394,213.126z M920.394,161.126
	c-3.721,0-6.732-3.014-6.732-6.731c0-3.719,3.017-6.732,6.732-6.732s6.729,3.014,6.729,6.732
	C927.126,158.112,924.113,161.126,920.394,161.126z M920.394,109.126c-3.721,0-6.732-3.014-6.732-6.731
	c0-3.719,3.017-6.732,6.732-6.732s6.729,3.014,6.729,6.732C927.126,106.112,924.113,109.126,920.394,109.126z M920.394,57.126
	c-3.721,0-6.732-3.014-6.732-6.731c0-3.719,3.017-6.732,6.732-6.732s6.729,3.014,6.729,6.732
	C927.126,54.112,924.113,57.126,920.394,57.126z M976.967,473.125c-3.722,0-6.73-3.014-6.73-6.732c0-3.717,3.016-6.729,6.73-6.729
	s6.729,3.014,6.729,6.729C983.697,470.112,980.683,473.125,976.967,473.125z M976.967,421.125c-3.722,0-6.73-3.015-6.73-6.731
	c0-3.718,3.016-6.729,6.73-6.729s6.729,3.015,6.729,6.729C983.697,418.11,980.683,421.125,976.967,421.125z M976.967,369.125
	c-3.722,0-6.73-3.015-6.73-6.731c0-3.718,3.016-6.729,6.73-6.729s6.729,3.015,6.729,6.729
	C983.697,366.11,980.683,369.125,976.967,369.125z M976.967,317.126c-3.722,0-6.73-3.014-6.73-6.731c0-3.719,3.016-6.731,6.73-6.731
	s6.729,3.014,6.729,6.731C983.697,314.112,980.683,317.126,976.967,317.126z M976.967,265.126c-3.722,0-6.73-3.014-6.73-6.731
	c0-3.719,3.016-6.732,6.73-6.732s6.729,3.014,6.729,6.732C983.697,262.112,980.683,265.126,976.967,265.126z M976.967,213.126
	c-3.722,0-6.73-3.014-6.73-6.731c0-3.719,3.016-6.732,6.73-6.732s6.729,3.014,6.729,6.732
	C983.697,210.112,980.683,213.126,976.967,213.126z M976.967,161.126c-3.722,0-6.73-3.014-6.73-6.731
	c0-3.719,3.016-6.732,6.73-6.732s6.729,3.014,6.729,6.732C983.697,158.112,980.683,161.126,976.967,161.126z M976.967,109.126
	c-3.722,0-6.73-3.014-6.73-6.731c0-3.719,3.016-6.732,6.73-6.732s6.729,3.014,6.729,6.732
	C983.697,106.112,980.683,109.126,976.967,109.126z M976.967,57.126c-3.722,0-6.73-3.014-6.73-6.731c0-3.719,3.016-6.732,6.73-6.732
	s6.729,3.014,6.729,6.732C983.697,54.112,980.683,57.126,976.967,57.126z M1033.535,473.125c-3.719,0-6.729-3.014-6.729-6.732
	c0-3.717,3.016-6.729,6.729-6.729c3.719,0,6.732,3.014,6.732,6.729C1040.267,470.112,1037.256,473.125,1033.535,473.125z
	 M1033.535,421.125c-3.719,0-6.729-3.015-6.729-6.731c0-3.718,3.016-6.729,6.729-6.729c3.719,0,6.732,3.015,6.732,6.729
	C1040.267,418.11,1037.256,421.125,1033.535,421.125z M1033.535,369.125c-3.719,0-6.729-3.015-6.729-6.731
	c0-3.718,3.016-6.729,6.729-6.729c3.719,0,6.732,3.015,6.732,6.729C1040.267,366.11,1037.256,369.125,1033.535,369.125z
	 M1033.535,317.126c-3.719,0-6.729-3.014-6.729-6.731c0-3.719,3.016-6.731,6.729-6.731c3.719,0,6.732,3.014,6.732,6.731
	S1037.256,317.126,1033.535,317.126z M1033.535,265.126c-3.719,0-6.729-3.014-6.729-6.731c0-3.719,3.016-6.732,6.729-6.732
	c3.719,0,6.732,3.014,6.732,6.732C1040.267,262.112,1037.256,265.126,1033.535,265.126z M1033.535,213.126
	c-3.719,0-6.729-3.014-6.729-6.731c0-3.719,3.016-6.732,6.729-6.732c3.719,0,6.732,3.014,6.732,6.732
	C1040.267,210.112,1037.256,213.126,1033.535,213.126z M1033.535,161.126c-3.719,0-6.729-3.014-6.729-6.731
	c0-3.719,3.016-6.732,6.729-6.732c3.719,0,6.732,3.014,6.732,6.732C1040.267,158.112,1037.256,161.126,1033.535,161.126z
	 M1033.535,109.126c-3.719,0-6.729-3.014-6.729-6.731c0-3.719,3.016-6.732,6.729-6.732c3.719,0,6.732,3.014,6.732,6.732
	C1040.267,106.112,1037.256,109.126,1033.535,109.126z M1033.535,57.126c-3.719,0-6.729-3.014-6.729-6.731
	c0-3.719,3.016-6.732,6.729-6.732c3.719,0,6.732,3.014,6.732,6.732C1040.267,54.112,1037.256,57.126,1033.535,57.126z
	 M1090.105,421.125c-3.721,0-6.732-3.015-6.732-6.731c0-3.718,3.017-6.729,6.732-6.729s6.729,3.015,6.729,6.729
	C1096.839,418.11,1093.824,421.125,1090.105,421.125z M1090.105,369.125c-3.721,0-6.732-3.015-6.732-6.731
	c0-3.718,3.017-6.729,6.732-6.729s6.729,3.015,6.729,6.729C1096.839,366.11,1093.824,369.125,1090.105,369.125z M1090.105,317.126
	c-3.721,0-6.732-3.014-6.732-6.731c0-3.719,3.017-6.731,6.732-6.731s6.729,3.014,6.729,6.731
	C1096.839,314.112,1093.824,317.126,1090.105,317.126z M1090.105,265.126c-3.721,0-6.732-3.014-6.732-6.731
	c0-3.719,3.017-6.732,6.732-6.732s6.729,3.014,6.729,6.732C1096.839,262.112,1093.824,265.126,1090.105,265.126z M1090.105,213.126
	c-3.721,0-6.732-3.014-6.732-6.731c0-3.719,3.017-6.732,6.732-6.732s6.729,3.014,6.729,6.732
	C1096.839,210.112,1093.824,213.126,1090.105,213.126z M1090.105,161.126c-3.721,0-6.732-3.014-6.732-6.731
	c0-3.719,3.017-6.732,6.732-6.732s6.729,3.014,6.729,6.732C1096.839,158.112,1093.824,161.126,1090.105,161.126z M1090.105,109.126
	c-3.721,0-6.732-3.014-6.732-6.731c0-3.719,3.017-6.732,6.732-6.732s6.729,3.014,6.729,6.732
	C1096.839,106.112,1093.824,109.126,1090.105,109.126z M1090.105,57.126c-3.721,0-6.732-3.014-6.732-6.731
	c0-3.719,3.017-6.732,6.732-6.732s6.729,3.014,6.729,6.732C1096.839,54.112,1093.824,57.126,1090.105,57.126z M1146.677,369.125
	c-3.72,0-6.73-3.015-6.73-6.731c0-3.718,3.017-6.729,6.73-6.729c3.719,0,6.729,3.015,6.729,6.729
	C1153.408,366.11,1150.394,369.125,1146.677,369.125z M1146.677,317.126c-3.72,0-6.73-3.014-6.73-6.731
	c0-3.719,3.017-6.731,6.73-6.731c3.719,0,6.729,3.014,6.729,6.731C1153.408,314.112,1150.394,317.126,1146.677,317.126z
	 M1146.677,265.126c-3.72,0-6.73-3.014-6.73-6.731c0-3.719,3.017-6.732,6.73-6.732c3.719,0,6.729,3.014,6.729,6.732
	C1153.408,262.112,1150.394,265.126,1146.677,265.126z M1146.677,213.126c-3.72,0-6.73-3.014-6.73-6.731
	c0-3.719,3.017-6.732,6.73-6.732c3.719,0,6.729,3.014,6.729,6.732C1153.408,210.112,1150.394,213.126,1146.677,213.126z
	 M1146.677,161.126c-3.72,0-6.73-3.014-6.73-6.731c0-3.719,3.017-6.732,6.73-6.732c3.719,0,6.729,3.014,6.729,6.732
	C1153.408,158.112,1150.394,161.126,1146.677,161.126z M1146.677,109.126c-3.72,0-6.73-3.014-6.73-6.731
	c0-3.719,3.017-6.732,6.73-6.732c3.719,0,6.729,3.014,6.729,6.732C1153.408,106.112,1150.394,109.126,1146.677,109.126z
	 M1146.677,57.126c-3.72,0-6.73-3.014-6.73-6.731c0-3.719,3.017-6.732,6.73-6.732c3.719,0,6.729,3.014,6.729,6.732
	C1153.408,54.112,1150.394,57.126,1146.677,57.126z M1203.246,369.125c-3.719,0-6.729-3.015-6.729-6.731
	c0-3.718,3.016-6.729,6.729-6.729c3.719,0,6.732,3.015,6.732,6.729C1209.978,366.11,1206.967,369.125,1203.246,369.125z
	 M1203.246,317.126c-3.719,0-6.729-3.014-6.729-6.731c0-3.719,3.016-6.731,6.729-6.731c3.719,0,6.732,3.014,6.732,6.731
	S1206.967,317.126,1203.246,317.126z M1203.246,265.126c-3.719,0-6.729-3.014-6.729-6.731c0-3.719,3.016-6.732,6.729-6.732
	c3.719,0,6.732,3.014,6.732,6.732C1209.978,262.112,1206.967,265.126,1203.246,265.126z M1203.246,213.126
	c-3.719,0-6.729-3.014-6.729-6.731c0-3.719,3.016-6.732,6.729-6.732c3.719,0,6.732,3.014,6.732,6.732
	C1209.978,210.112,1206.967,213.126,1203.246,213.126z M1203.246,161.126c-3.719,0-6.729-3.014-6.729-6.731
	c0-3.719,3.016-6.732,6.729-6.732c3.719,0,6.732,3.014,6.732,6.732C1209.978,158.112,1206.967,161.126,1203.246,161.126z
	 M1203.246,109.126c-3.719,0-6.729-3.014-6.729-6.731c0-3.719,3.016-6.732,6.729-6.732c3.719,0,6.732,3.014,6.732,6.732
	C1209.978,106.112,1206.967,109.126,1203.246,109.126z M1203.246,57.126c-3.719,0-6.729-3.014-6.729-6.731
	c0-3.719,3.016-6.732,6.729-6.732c3.719,0,6.732,3.014,6.732,6.732C1209.978,54.112,1206.967,57.126,1203.246,57.126z
	 M1259.816,317.126c-3.721,0-6.731-3.014-6.731-6.731c0-3.719,3.016-6.731,6.731-6.731s6.73,3.014,6.73,6.731
	C1266.55,314.112,1263.535,317.126,1259.816,317.126z M1259.816,265.126c-3.721,0-6.731-3.014-6.731-6.731
	c0-3.719,3.016-6.732,6.731-6.732s6.73,3.014,6.73,6.732C1266.55,262.112,1263.535,265.126,1259.816,265.126z M1259.816,213.126
	c-3.721,0-6.731-3.014-6.731-6.731c0-3.719,3.016-6.732,6.731-6.732s6.73,3.014,6.73,6.732
	C1266.55,210.112,1263.535,213.126,1259.816,213.126z M1259.816,161.126c-3.721,0-6.731-3.014-6.731-6.731
	c0-3.719,3.016-6.732,6.731-6.732s6.73,3.014,6.73,6.732C1266.55,158.112,1263.535,161.126,1259.816,161.126z M1259.816,109.126
	c-3.721,0-6.731-3.014-6.731-6.731c0-3.719,3.016-6.732,6.731-6.732s6.73,3.014,6.73,6.732
	C1266.55,106.112,1263.535,109.126,1259.816,109.126z M1316.386,317.126c-3.72,0-6.73-3.014-6.73-6.731
	c0-3.719,3.017-6.731,6.73-6.731c3.72,0,6.729,3.014,6.729,6.731C1323.119,314.112,1320.105,317.126,1316.386,317.126z
	 M1316.386,265.126c-3.72,0-6.73-3.014-6.73-6.731c0-3.719,3.017-6.732,6.73-6.732c3.72,0,6.729,3.014,6.729,6.732
	C1323.119,262.112,1320.105,265.126,1316.386,265.126z M1316.386,213.126c-3.72,0-6.73-3.014-6.73-6.731
	c0-3.719,3.017-6.732,6.73-6.732c3.72,0,6.729,3.014,6.729,6.732C1323.119,210.112,1320.105,213.126,1316.386,213.126z
	 M1316.386,161.126c-3.72,0-6.73-3.014-6.73-6.731c0-3.719,3.017-6.732,6.73-6.732c3.72,0,6.729,3.014,6.729,6.732
	C1323.119,158.112,1320.105,161.126,1316.386,161.126z M1372.958,265.126c-3.72,0-6.73-3.014-6.73-6.731
	c0-3.719,3.016-6.732,6.73-6.732c3.718,0,6.731,3.014,6.731,6.732C1379.689,262.112,1376.677,265.126,1372.958,265.126z
	 M1372.958,213.126c-3.72,0-6.73-3.014-6.73-6.731c0-3.719,3.016-6.732,6.73-6.732c3.718,0,6.731,3.014,6.731,6.732
	C1379.689,210.112,1376.677,213.126,1372.958,213.126z M1372.958,161.126c-3.72,0-6.73-3.014-6.73-6.731
	c0-3.719,3.016-6.732,6.73-6.732c3.718,0,6.731,3.014,6.731,6.732C1379.689,158.112,1376.677,161.126,1372.958,161.126z
	 M1429.527,213.126c-3.719,0-6.731-3.014-6.731-6.731c0-3.719,3.016-6.732,6.731-6.732s6.73,3.014,6.73,6.732
	C1436.26,210.112,1433.246,213.126,1429.527,213.126z"/>
</svg>
