<?xml version="1.0" encoding="utf-8"?>
<!-- Generator: Adobe Illustrator 16.0.0, SVG Export Plug-In . SVG Version: 6.00 Build 0)  -->
<!DOCTYPE svg PUBLIC "-//W3C//DTD SVG 1.1//EN" "http://www.w3.org/Graphics/SVG/1.1/DTD/svg11.dtd">
<svg version="1.1" id="Layer_1" xmlns="http://www.w3.org/2000/svg" xmlns:xlink="http://www.w3.org/1999/xlink" x="0px" y="0px"
	 width="1471.875px" height="1421.363px" viewBox="0 0 1471.875 1421.363" enable-background="new 0 0 1471.875 1421.363"
	 xml:space="preserve">
<path fill="none" stroke="#000000" stroke-linejoin="round" stroke-miterlimit="10" d="M57.603,220.086
	C40.74,270.697,26.011,389.647,13.564,576.864C6.144,688.072,2.173,753.43,1.581,772.867c-1.716,60.33-2.05,117.642-0.93,172.006
	c23.616,15.732,63.653,61.996,111.753,155.603c35.47,68.994,59.602,129.227,62.229,137.52c18.362-0.492,62.819,8.207,89.231,42.312
	l0,0l6.872,8.891l7.449,8.457l7.161,8.674l0,0c25.418,30.789,39.812,48.062,43.179,51.896l0,0l0.417-12.236l0,0
	c0.161-3.959-5.084-163.609-22.306-302.723c-3.4-27.881-5.207-42.218-5.274-43.011c23.497,10.548,112.251,78.201,169.375,135.849
	l0,0l7.737,7.812l8.104,7.453l0,0c3.44,3.109,10.893,11.137,22.354,23.937l0,0l7.311,8.168l7.74,7.812l0,0
	c5.089,5.133,16.834,18.938,35.307,41.416l0,0l6.946,8.457l6.512,8.67l0,0c6.011,8.021,17.178,22.254,33.646,42.633
	c12.888,16.115,49.42,57.184,73.144,81.119c2.579,2.605,5.16,5.209,7.74,7.812c2.579,2.604,5.156,5.209,7.737,7.812l0,0l7.741,7.812
	l8.03,7.383l7.741,7.812l7.522,7.596l2.159,0.012l0.033-7.199l0,0c0.085-18.646-0.228-29.521-1.003-32.621
	c-0.636-2.668-2.062-5.771-4.277-9.379c-0.568-0.938-7.229-9.396-19.896-25.363c-25.414-32.086-78.354-107.352-88.006-121.651
	c-66.082-97.572-124.262-192.23-174.527-284.049c-93.828-171.068-164.926-336.923-213.297-497.489
	c-20.569-68.208-36.336-131.424-47.374-189.65c-3.304-17.655-5.416-28.249-6.335-31.781c-7.333-41.741-11.926-81.818-14.761-119.802
	c-1.36-17.502-2.463-28.308-3.452-32.488c-13.86,7.856-29.553,22.833-47.366,44.928C86.537,139.935,70.561,175.672,57.603,220.086
	L57.603,220.086 M1410.625,217.999c17.139,50.519,32.514,169.387,45.982,356.533c8.024,111.165,12.354,176.501,13.053,195.936
	c2.047,60.317,2.688,117.627,1.867,172c-23.527,15.856-63.312,62.34-110.902,156.205c-35.092,69.188-58.896,129.549-61.479,137.854
	c-18.363-0.393-62.771,8.551-89,42.799l0,0l-6.82,8.926l-7.404,8.498l-7.113,8.713l0,0c-25.252,30.929-39.549,48.279-42.895,52.13
	l0,0l-0.484-12.234l0,0c-0.184-3.957,4.193-163.634,20.654-302.839c3.248-27.897,4.979-42.243,5.043-43.036
	c-23.439,10.676-111.826,78.812-168.631,136.771l0,0l-7.697,7.854l-8.062,7.498l0,0c-3.427,3.131-10.83,11.195-22.226,24.057l0,0
	l-7.264,8.209l-7.697,7.854l0,0c-5.061,5.163-16.729,19.032-35.08,41.607l0,0l-6.896,8.494l-6.467,8.705l0,0
	c-5.968,8.051-17.058,22.349-33.412,42.814c-12.8,16.188-49.105,57.447-72.697,81.52c-2.564,2.617-5.131,5.234-7.697,7.854
	c-2.565,2.619-5.131,5.233-7.697,7.854l0,0l-7.694,7.854l-7.99,7.426l-7.697,7.854l-7.483,7.638l-2.154,0.021l-0.074-7.201l0,0
	c-0.188-18.646,0.062-29.521,0.826-32.625c0.619-2.67,2.025-5.778,4.225-9.401c0.566-0.939,7.179-9.435,19.763-25.472
	c25.237-32.224,77.768-107.776,87.344-122.131c65.549-97.936,123.209-192.908,172.977-284.996
	c92.896-171.577,163.086-337.818,210.58-498.646c20.195-68.316,35.619-131.621,46.338-189.905
	c3.209-17.673,5.265-28.278,6.162-31.815c7.104-41.78,11.479-81.881,14.107-119.88c1.264-17.509,2.309-28.321,3.272-32.506
	c13.9,7.78,29.677,22.671,47.607,44.668C1381.253,138.007,1397.425,173.655,1410.625,217.999L1410.625,217.999"/>
</svg>
