<?xml version="1.0" encoding="utf-8"?>
<!-- Generator: Adobe Illustrator 16.0.0, SVG Export Plug-In . SVG Version: 6.00 Build 0)  -->
<!DOCTYPE svg PUBLIC "-//W3C//DTD SVG 1.1//EN" "http://www.w3.org/Graphics/SVG/1.1/DTD/svg11.dtd">
<svg version="1.1" id="Layer_1" xmlns="http://www.w3.org/2000/svg" xmlns:xlink="http://www.w3.org/1999/xlink" x="0px" y="0px"
	 width="1056.521px" height="835.676px" viewBox="0 0 1056.521 835.676" enable-background="new 0 0 1056.521 835.676"
	 xml:space="preserve">
<path fill="none" stroke="#000000" stroke-linejoin="round" stroke-miterlimit="10" d="M1044.798,538.786
	c-19.896-12.953-122.215-72.111-142.521-89.711c-11.529-9.992-42.131-46.263-42.131-46.263l-20.163,12.082l19.479-12.935
	c-9.949-15.908-17.215-30.749-24.123-50.666c-18.011-51.941-21.317-59.009-22.514-64.927c-1.197-5.917-8.312-10.639-15.246-13.367
	c-6.938-2.729-10.715-15.109-7.842-35.445c2.875-20.335,20.293-72.754,31.855-93.192c11.564-20.438,15.936-31.537,18.838-36.48
	c2.906-4.944,0.931-12.131-11.188-20.42c-12.115-8.294-26.83-15.684-37.382-21.437c-10.555-5.754-17.252-5.825-27.418,7.796
	c-10.163,13.622-29.034,34.712-52.967,51.569c-23.935,16.854-49.254,33.165-92.062,40.993
	c-42.808,7.827-71.553,15.743-112.334,38.784c-40.784,23.043-87.246,49.937-144.585,82.484
	c-57.338,32.548-94.225,69.3-133.22,104.898c-38.995,35.604-107.63,106.634-144.884,146.764
	c-37.253,40.132-60.742,77.026-70.668,93.306c-9.93,16.276-12.482,25.207-13.277,31.301c-0.795,6.101-2.271,19.611,13.254,13.549
	c15.524-6.064,116.867-40.523,116.867-40.523S23.623,698.67,18.001,703.184c-5.621,4.52-6.182,13.27,2.379,19.197
	c8.561,5.934,11.721,26.396,129.793,52.023c118.074,25.627,257.984,56.002,276.992,58.994c19.008,2.99,19.908,5.59,57.356-9.793
	C521.97,808.222,744.13,717.492,849.47,675.314c105.341-42.18,182.527-69.801,182.527-69.801
	c13.646-4.561,18.854-13.729,20.197-21.207C1053.541,576.827,1064.692,551.739,1044.798,538.786z M813.617,108.412
	c3.719,0,6.729,3.014,6.729,6.732c0,3.718-3.014,6.732-6.729,6.732s-6.732-3.014-6.732-6.732
	C806.885,111.426,809.896,108.412,813.617,108.412z M78.203,641.875c-3.719,0-6.732-3.014-6.732-6.732
	c0-3.717,3.014-6.73,6.732-6.73c3.718,0,6.732,3.02,6.732,6.73C84.936,638.862,81.922,641.875,78.203,641.875z M78.203,589.875
	c-3.719,0-6.732-3.014-6.732-6.732c0-3.717,3.014-6.73,6.732-6.73c3.718,0,6.732,3.02,6.732,6.73
	C84.936,586.862,81.922,589.875,78.203,589.875z M78.203,745.875c-3.719,0-6.732-3.014-6.732-6.732c0-3.717,3.014-6.73,6.732-6.73
	c3.718,0,6.732,3.02,6.732,6.73C84.936,742.862,81.922,745.875,78.203,745.875z M78.203,693.875c-3.719,0-6.732-3.014-6.732-6.732
	c0-3.717,3.014-6.73,6.732-6.73c3.718,0,6.732,3.02,6.732,6.73C84.936,690.862,81.922,693.875,78.203,693.875z M134.773,745.875
	c-3.719,0-6.732-3.014-6.732-6.732c0-3.717,3.014-6.73,6.732-6.73c3.718,0,6.732,3.02,6.732,6.73
	C141.506,742.862,138.492,745.875,134.773,745.875z M134.773,693.875c-3.719,0-6.732-3.014-6.732-6.732
	c0-3.717,3.014-6.73,6.732-6.73c3.718,0,6.732,3.02,6.732,6.73C141.506,690.862,138.492,693.875,134.773,693.875z M134.773,589.875
	c-3.719,0-6.732-3.014-6.732-6.732c0-3.717,3.014-6.73,6.732-6.73c3.718,0,6.732,3.02,6.732,6.73
	C141.506,586.862,138.492,589.875,134.773,589.875z M134.773,537.875c-3.719,0-6.732-3.014-6.732-6.732
	c0-3.717,3.014-6.73,6.732-6.73c3.718,0,6.732,3.02,6.732,6.73C141.506,534.862,138.492,537.875,134.773,537.875z M191.344,745.875
	c-3.719,0-6.732-3.014-6.732-6.732c0-3.717,3.014-6.73,6.732-6.73c3.718,0,6.732,3.02,6.732,6.73
	C198.076,742.862,195.063,745.875,191.344,745.875z M191.344,693.875c-3.719,0-6.732-3.014-6.732-6.732
	c0-3.717,3.014-6.73,6.732-6.73c3.718,0,6.732,3.02,6.732,6.73C198.076,690.862,195.063,693.875,191.344,693.875z M191.344,641.875
	c-3.719,0-6.732-3.014-6.732-6.732c0-3.717,3.014-6.73,6.732-6.73c3.718,0,6.732,3.02,6.732,6.73
	C198.076,638.862,195.063,641.875,191.344,641.875z M191.344,589.875c-3.719,0-6.732-3.014-6.732-6.732
	c0-3.717,3.014-6.73,6.732-6.73c3.718,0,6.732,3.02,6.732,6.73C198.076,586.862,195.063,589.875,191.344,589.875z M191.344,537.875
	c-3.719,0-6.732-3.014-6.732-6.732c0-3.717,3.014-6.73,6.732-6.73c3.718,0,6.732,3.02,6.732,6.73
	C198.076,534.862,195.063,537.875,191.344,537.875z M191.344,485.875c-3.719,0-6.732-3.014-6.732-6.732
	c0-3.717,3.014-6.73,6.732-6.73c3.718,0,6.732,3.02,6.732,6.73C198.076,482.862,195.063,485.875,191.344,485.875z M247.914,745.875
	c-3.719,0-6.732-3.014-6.732-6.732c0-3.717,3.014-6.73,6.732-6.73c3.718,0,6.732,3.02,6.732,6.73
	C254.647,742.862,251.633,745.875,247.914,745.875z M247.914,693.875c-3.719,0-6.732-3.014-6.732-6.732
	c0-3.717,3.014-6.73,6.732-6.73c3.718,0,6.732,3.02,6.732,6.73C254.647,690.862,251.633,693.875,247.914,693.875z M247.914,641.875
	c-3.719,0-6.732-3.014-6.732-6.732c0-3.717,3.014-6.73,6.732-6.73c3.718,0,6.732,3.02,6.732,6.73
	C254.647,638.862,251.633,641.875,247.914,641.875z M247.914,589.875c-3.719,0-6.732-3.014-6.732-6.732
	c0-3.717,3.014-6.73,6.732-6.73c3.718,0,6.732,3.02,6.732,6.73C254.647,586.862,251.633,589.875,247.914,589.875z M247.914,537.875
	c-3.719,0-6.732-3.014-6.732-6.732c0-3.717,3.014-6.73,6.732-6.73c3.718,0,6.732,3.02,6.732,6.73
	C254.647,534.862,251.633,537.875,247.914,537.875z M247.914,485.875c-3.719,0-6.732-3.014-6.732-6.732
	c0-3.717,3.014-6.73,6.732-6.73c3.718,0,6.732,3.02,6.732,6.73C254.647,482.862,251.633,485.875,247.914,485.875z M247.914,433.877
	c-3.719,0-6.732-3.014-6.732-6.73c0-3.718,3.014-6.731,6.732-6.731c3.718,0,6.732,3.015,6.732,6.731
	S251.633,433.877,247.914,433.877z M304.484,797.875c-3.72,0-6.732-3.014-6.732-6.732c0-3.717,3.014-6.73,6.732-6.73
	c3.718,0,6.731,3.02,6.731,6.73C311.217,794.862,308.203,797.875,304.484,797.875z M304.484,745.875
	c-3.72,0-6.732-3.014-6.732-6.732c0-3.717,3.014-6.73,6.732-6.73c3.718,0,6.731,3.02,6.731,6.73
	C311.217,742.862,308.203,745.875,304.484,745.875z M304.484,693.875c-3.72,0-6.732-3.014-6.732-6.732
	c0-3.717,3.014-6.73,6.732-6.73c3.718,0,6.731,3.02,6.731,6.73C311.217,690.862,308.203,693.875,304.484,693.875z M304.484,641.875
	c-3.72,0-6.732-3.014-6.732-6.732c0-3.717,3.014-6.73,6.732-6.73c3.718,0,6.731,3.02,6.731,6.73
	C311.217,638.862,308.203,641.875,304.484,641.875z M304.484,589.875c-3.72,0-6.732-3.014-6.732-6.732
	c0-3.717,3.014-6.73,6.732-6.73c3.718,0,6.731,3.02,6.731,6.73C311.217,586.862,308.203,589.875,304.484,589.875z M304.484,537.875
	c-3.72,0-6.732-3.014-6.732-6.732c0-3.717,3.014-6.73,6.732-6.73c3.718,0,6.731,3.02,6.731,6.73
	C311.217,534.862,308.203,537.875,304.484,537.875z M304.484,485.875c-3.72,0-6.732-3.014-6.732-6.732
	c0-3.717,3.014-6.73,6.732-6.73c3.718,0,6.731,3.02,6.731,6.73C311.217,482.862,308.203,485.875,304.484,485.875z M304.484,433.877
	c-3.72,0-6.732-3.014-6.732-6.73c0-3.718,3.014-6.731,6.732-6.731c3.718,0,6.731,3.015,6.731,6.731S308.203,433.877,304.484,433.877
	z M304.484,381.877c-3.72,0-6.732-3.014-6.732-6.731c0-3.717,3.014-6.732,6.732-6.732c3.718,0,6.731,3.015,6.731,6.732
	C311.216,378.863,308.203,381.877,304.484,381.877z M361.055,797.875c-3.719,0-6.729-3.014-6.729-6.732
	c0-3.717,3.014-6.73,6.729-6.73c3.717,0,6.732,3.02,6.732,6.73C367.787,794.862,364.773,797.875,361.055,797.875z M361.055,745.875
	c-3.719,0-6.729-3.014-6.729-6.732c0-3.717,3.014-6.73,6.729-6.73c3.717,0,6.732,3.02,6.732,6.73
	C367.787,742.862,364.773,745.875,361.055,745.875z M361.055,693.875c-3.719,0-6.729-3.014-6.729-6.732
	c0-3.717,3.014-6.73,6.729-6.73c3.717,0,6.732,3.02,6.732,6.73C367.787,690.862,364.773,693.875,361.055,693.875z M361.055,641.875
	c-3.719,0-6.729-3.014-6.729-6.732c0-3.717,3.014-6.73,6.729-6.73c3.717,0,6.732,3.02,6.732,6.73
	C367.787,638.862,364.773,641.875,361.055,641.875z M361.055,589.875c-3.719,0-6.729-3.014-6.729-6.732
	c0-3.717,3.014-6.73,6.729-6.73c3.717,0,6.732,3.02,6.732,6.73C367.787,586.862,364.773,589.875,361.055,589.875z M361.055,537.875
	c-3.719,0-6.729-3.014-6.729-6.732c0-3.717,3.014-6.73,6.729-6.73c3.717,0,6.732,3.02,6.732,6.73
	C367.787,534.862,364.773,537.875,361.055,537.875z M361.055,485.875c-3.719,0-6.729-3.014-6.729-6.732
	c0-3.717,3.014-6.73,6.729-6.73c3.717,0,6.732,3.02,6.732,6.73C367.787,482.862,364.773,485.875,361.055,485.875z M361.055,433.877
	c-3.719,0-6.729-3.014-6.729-6.73c0-3.718,3.014-6.731,6.729-6.731c3.717,0,6.732,3.015,6.732,6.731
	S364.773,433.877,361.055,433.877z M361.055,381.877c-3.719,0-6.729-3.014-6.729-6.731c0-3.717,3.014-6.732,6.729-6.732
	c3.717,0,6.732,3.015,6.732,6.732C367.787,378.863,364.773,381.877,361.055,381.877z M361.055,329.877
	c-3.719,0-6.729-3.014-6.729-6.732s3.014-6.732,6.729-6.732c3.717,0,6.732,3.014,6.732,6.732S364.773,329.877,361.055,329.877z
	 M417.625,797.875c-3.719,0-6.732-3.014-6.732-6.732c0-3.717,3.018-6.73,6.732-6.73s6.732,3.02,6.732,6.73
	C424.357,794.862,421.344,797.875,417.625,797.875z M417.625,745.875c-3.719,0-6.732-3.014-6.732-6.732
	c0-3.717,3.018-6.73,6.732-6.73s6.732,3.02,6.732,6.73C424.357,742.862,421.344,745.875,417.625,745.875z M417.625,693.875
	c-3.719,0-6.732-3.014-6.732-6.732c0-3.717,3.018-6.73,6.732-6.73s6.732,3.02,6.732,6.73
	C424.357,690.862,421.344,693.875,417.625,693.875z M417.625,641.875c-3.719,0-6.732-3.014-6.732-6.732
	c0-3.717,3.018-6.73,6.732-6.73s6.732,3.02,6.732,6.73C424.357,638.862,421.344,641.875,417.625,641.875z M417.625,589.875
	c-3.719,0-6.732-3.014-6.732-6.732c0-3.717,3.018-6.73,6.732-6.73s6.732,3.02,6.732,6.73
	C424.357,586.862,421.344,589.875,417.625,589.875z M417.625,537.875c-3.719,0-6.732-3.014-6.732-6.732
	c0-3.717,3.018-6.73,6.732-6.73s6.732,3.02,6.732,6.73C424.357,534.862,421.344,537.875,417.625,537.875z M417.625,485.875
	c-3.719,0-6.732-3.014-6.732-6.732c0-3.717,3.018-6.73,6.732-6.73s6.732,3.02,6.732,6.73
	C424.357,482.862,421.344,485.875,417.625,485.875z M417.625,433.877c-3.719,0-6.732-3.014-6.732-6.73
	c0-3.718,3.018-6.731,6.732-6.731s6.732,3.015,6.732,6.731S421.344,433.877,417.625,433.877z M417.625,381.877
	c-3.719,0-6.732-3.014-6.732-6.731c0-3.717,3.018-6.732,6.732-6.732s6.732,3.015,6.732,6.732
	C424.357,378.863,421.344,381.877,417.625,381.877z M417.625,329.877c-3.719,0-6.732-3.014-6.732-6.732s3.018-6.732,6.732-6.732
	s6.732,3.014,6.732,6.732S421.344,329.877,417.625,329.877z M474.195,797.875c-3.723,0-6.732-3.014-6.732-6.732
	c0-3.717,3.014-6.73,6.732-6.73c3.718,0,6.729,3.02,6.729,6.73C480.928,794.862,477.914,797.875,474.195,797.875z M474.195,745.875
	c-3.723,0-6.732-3.014-6.732-6.732c0-3.717,3.014-6.73,6.732-6.73c3.718,0,6.729,3.02,6.729,6.73
	C480.928,742.862,477.914,745.875,474.195,745.875z M474.195,693.875c-3.723,0-6.732-3.014-6.732-6.732
	c0-3.717,3.014-6.73,6.732-6.73c3.718,0,6.729,3.02,6.729,6.73C480.928,690.862,477.914,693.875,474.195,693.875z M474.195,641.875
	c-3.723,0-6.732-3.014-6.732-6.732c0-3.717,3.014-6.73,6.732-6.73c3.718,0,6.729,3.02,6.729,6.73
	C480.928,638.862,477.914,641.875,474.195,641.875z M474.195,589.875c-3.723,0-6.732-3.014-6.732-6.732
	c0-3.717,3.014-6.73,6.732-6.73c3.718,0,6.729,3.02,6.729,6.73C480.928,586.862,477.914,589.875,474.195,589.875z M474.195,537.875
	c-3.723,0-6.732-3.014-6.732-6.732c0-3.717,3.014-6.73,6.732-6.73c3.718,0,6.729,3.02,6.729,6.73
	C480.928,534.862,477.914,537.875,474.195,537.875z M474.195,485.875c-3.723,0-6.732-3.014-6.732-6.732
	c0-3.717,3.014-6.73,6.732-6.73c3.718,0,6.729,3.02,6.729,6.73C480.928,482.862,477.914,485.875,474.195,485.875z M474.195,433.877
	c-3.723,0-6.732-3.014-6.732-6.73c0-3.718,3.014-6.731,6.732-6.731c3.718,0,6.729,3.015,6.729,6.731
	C480.926,430.863,477.914,433.877,474.195,433.877z M474.195,381.877c-3.723,0-6.732-3.014-6.732-6.731
	c0-3.717,3.014-6.732,6.732-6.732c3.718,0,6.729,3.015,6.729,6.732C480.926,378.863,477.914,381.877,474.195,381.877z
	 M474.195,329.877c-3.723,0-6.732-3.014-6.732-6.732s3.014-6.732,6.732-6.732c3.718,0,6.729,3.014,6.729,6.732
	C480.927,326.863,477.914,329.877,474.195,329.877z M474.195,277.877c-3.723,0-6.732-3.014-6.732-6.732s3.014-6.732,6.732-6.732
	c3.718,0,6.729,3.014,6.729,6.732C480.927,274.863,477.914,277.877,474.195,277.877z M530.765,745.875
	c-3.719,0-6.729-3.014-6.729-6.732c0-3.717,3.014-6.73,6.729-6.73c3.722,0,6.732,3.02,6.732,6.73
	C537.498,742.862,534.484,745.875,530.765,745.875z M530.765,693.875c-3.719,0-6.729-3.014-6.729-6.732
	c0-3.717,3.014-6.73,6.729-6.73c3.722,0,6.732,3.02,6.732,6.73C537.498,690.862,534.484,693.875,530.765,693.875z M530.765,641.875
	c-3.719,0-6.729-3.014-6.729-6.732c0-3.717,3.014-6.73,6.729-6.73c3.722,0,6.732,3.02,6.732,6.73
	C537.498,638.862,534.484,641.875,530.765,641.875z M530.765,589.875c-3.719,0-6.729-3.014-6.729-6.732
	c0-3.717,3.014-6.73,6.729-6.73c3.722,0,6.732,3.02,6.732,6.73C537.498,586.862,534.484,589.875,530.765,589.875z M530.765,537.875
	c-3.719,0-6.729-3.014-6.729-6.732c0-3.717,3.014-6.73,6.729-6.73c3.722,0,6.732,3.02,6.732,6.73
	C537.498,534.862,534.484,537.875,530.765,537.875z M530.765,485.875c-3.719,0-6.729-3.014-6.729-6.732
	c0-3.717,3.014-6.73,6.729-6.73c3.722,0,6.732,3.02,6.732,6.73C537.498,482.862,534.484,485.875,530.765,485.875z M530.765,433.877
	c-3.719,0-6.729-3.014-6.729-6.73c0-3.718,3.014-6.731,6.729-6.731c3.722,0,6.732,3.015,6.732,6.731
	S534.484,433.877,530.765,433.877z M530.765,381.877c-3.719,0-6.729-3.014-6.729-6.731c0-3.717,3.014-6.732,6.729-6.732
	c3.722,0,6.732,3.015,6.732,6.732C537.497,378.863,534.484,381.877,530.765,381.877z M530.765,329.877
	c-3.719,0-6.729-3.014-6.729-6.732s3.014-6.732,6.729-6.732c3.722,0,6.732,3.014,6.732,6.732S534.484,329.877,530.765,329.877z
	 M530.765,277.877c-3.719,0-6.729-3.014-6.729-6.732s3.014-6.732,6.729-6.732c3.722,0,6.732,3.014,6.732,6.732
	S534.484,277.877,530.765,277.877z M530.765,225.877c-3.719,0-6.729-3.014-6.729-6.732s3.014-6.732,6.729-6.732
	c3.722,0,6.732,3.014,6.732,6.732S534.484,225.877,530.765,225.877z M587.335,745.875c-3.719,0-6.731-3.014-6.731-6.732
	c0-3.717,3.017-6.73,6.731-6.73s6.732,3.02,6.732,6.73C594.068,742.862,591.054,745.875,587.335,745.875z M587.335,693.875
	c-3.719,0-6.731-3.014-6.731-6.732c0-3.717,3.017-6.73,6.731-6.73s6.732,3.02,6.732,6.73
	C594.068,690.862,591.054,693.875,587.335,693.875z M587.335,641.875c-3.719,0-6.731-3.014-6.731-6.732
	c0-3.717,3.017-6.73,6.731-6.73s6.732,3.02,6.732,6.73C594.068,638.862,591.054,641.875,587.335,641.875z M587.335,589.875
	c-3.719,0-6.731-3.014-6.731-6.732c0-3.717,3.017-6.73,6.731-6.73s6.732,3.02,6.732,6.73
	C594.068,586.862,591.054,589.875,587.335,589.875z M587.335,537.875c-3.719,0-6.731-3.014-6.731-6.732
	c0-3.717,3.017-6.73,6.731-6.73s6.732,3.02,6.732,6.73C594.068,534.862,591.054,537.875,587.335,537.875z M587.335,485.875
	c-3.719,0-6.731-3.014-6.731-6.732c0-3.717,3.017-6.73,6.731-6.73s6.732,3.02,6.732,6.73
	C594.068,482.862,591.054,485.875,587.335,485.875z M587.335,433.877c-3.719,0-6.731-3.014-6.731-6.73
	c0-3.718,3.017-6.731,6.731-6.731s6.732,3.015,6.732,6.731S591.054,433.877,587.335,433.877z M587.335,381.877
	c-3.719,0-6.731-3.014-6.731-6.731c0-3.717,3.017-6.732,6.731-6.732s6.732,3.015,6.732,6.732
	C594.067,378.863,591.054,381.877,587.335,381.877z M587.335,329.877c-3.719,0-6.731-3.014-6.731-6.732s3.017-6.732,6.731-6.732
	s6.732,3.014,6.732,6.732S591.054,329.877,587.335,329.877z M587.335,277.877c-3.719,0-6.731-3.014-6.731-6.732
	s3.017-6.732,6.731-6.732s6.732,3.014,6.732,6.732S591.054,277.877,587.335,277.877z M587.335,225.877
	c-3.719,0-6.731-3.014-6.731-6.732s3.017-6.732,6.731-6.732s6.732,3.014,6.732,6.732S591.054,225.877,587.335,225.877z
	 M643.906,745.875c-3.722,0-6.732-3.014-6.732-6.732c0-3.717,3.018-6.73,6.732-6.73s6.729,3.02,6.729,6.73
	C650.638,742.862,647.625,745.875,643.906,745.875z M643.906,693.875c-3.722,0-6.732-3.014-6.732-6.732
	c0-3.717,3.018-6.73,6.732-6.73s6.729,3.02,6.729,6.73C650.638,690.862,647.625,693.875,643.906,693.875z M643.906,641.875
	c-3.722,0-6.732-3.014-6.732-6.732c0-3.717,3.018-6.73,6.732-6.73s6.729,3.02,6.729,6.73
	C650.638,638.862,647.625,641.875,643.906,641.875z M643.906,589.875c-3.722,0-6.732-3.014-6.732-6.732
	c0-3.717,3.018-6.73,6.732-6.73s6.729,3.02,6.729,6.73C650.638,586.862,647.625,589.875,643.906,589.875z M643.906,537.875
	c-3.722,0-6.732-3.014-6.732-6.732c0-3.717,3.018-6.73,6.732-6.73s6.729,3.02,6.729,6.73
	C650.638,534.862,647.625,537.875,643.906,537.875z M643.906,485.875c-3.722,0-6.732-3.014-6.732-6.732
	c0-3.717,3.018-6.73,6.732-6.73s6.729,3.02,6.729,6.73C650.638,482.862,647.625,485.875,643.906,485.875z M643.906,433.877
	c-3.722,0-6.732-3.014-6.732-6.73c0-3.718,3.018-6.731,6.732-6.731s6.729,3.015,6.729,6.731
	C650.637,430.863,647.625,433.877,643.906,433.877z M643.906,381.877c-3.722,0-6.732-3.014-6.732-6.731
	c0-3.717,3.018-6.732,6.732-6.732s6.729,3.015,6.729,6.732C650.637,378.863,647.625,381.877,643.906,381.877z M643.906,329.877
	c-3.722,0-6.732-3.014-6.732-6.732s3.018-6.732,6.732-6.732s6.729,3.014,6.729,6.732
	C650.638,326.863,647.625,329.877,643.906,329.877z M643.906,277.877c-3.722,0-6.732-3.014-6.732-6.732s3.018-6.732,6.732-6.732
	s6.729,3.014,6.729,6.732C650.638,274.863,647.625,277.877,643.906,277.877z M643.906,225.877c-3.722,0-6.732-3.014-6.732-6.732
	s3.018-6.732,6.732-6.732s6.729,3.014,6.729,6.732C650.638,222.863,647.625,225.877,643.906,225.877z M700.476,693.875
	c-3.719,0-6.729-3.014-6.729-6.732c0-3.717,3.014-6.73,6.729-6.73c3.722,0,6.732,3.02,6.732,6.73
	C707.209,690.862,704.195,693.875,700.476,693.875z M700.476,641.875c-3.719,0-6.729-3.014-6.729-6.732
	c0-3.717,3.014-6.73,6.729-6.73c3.722,0,6.732,3.02,6.732,6.73C707.209,638.862,704.195,641.875,700.476,641.875z M700.476,589.875
	c-3.719,0-6.729-3.014-6.729-6.732c0-3.717,3.014-6.73,6.729-6.73c3.722,0,6.732,3.02,6.732,6.73
	C707.209,586.862,704.195,589.875,700.476,589.875z M700.476,537.875c-3.719,0-6.729-3.014-6.729-6.732
	c0-3.717,3.014-6.73,6.729-6.73c3.722,0,6.732,3.02,6.732,6.73C707.209,534.862,704.195,537.875,700.476,537.875z M700.476,485.875
	c-3.719,0-6.729-3.014-6.729-6.732c0-3.717,3.014-6.73,6.729-6.73c3.722,0,6.732,3.02,6.732,6.73
	C707.209,482.862,704.195,485.875,700.476,485.875z M700.476,433.877c-3.719,0-6.729-3.014-6.729-6.73
	c0-3.718,3.014-6.731,6.729-6.731c3.722,0,6.732,3.015,6.732,6.731S704.195,433.877,700.476,433.877z M700.476,381.877
	c-3.719,0-6.729-3.014-6.729-6.731c0-3.717,3.014-6.732,6.729-6.732c3.722,0,6.732,3.015,6.732,6.732
	C707.208,378.863,704.195,381.877,700.476,381.877z M700.476,329.877c-3.719,0-6.729-3.014-6.729-6.732s3.014-6.732,6.729-6.732
	c3.722,0,6.732,3.014,6.732,6.732S704.195,329.877,700.476,329.877z M700.476,277.877c-3.719,0-6.729-3.014-6.729-6.732
	s3.014-6.732,6.729-6.732c3.722,0,6.732,3.014,6.732,6.732S704.195,277.877,700.476,277.877z M700.476,225.877
	c-3.719,0-6.729-3.014-6.729-6.732s3.014-6.732,6.729-6.732c3.722,0,6.732,3.014,6.732,6.732S704.195,225.877,700.476,225.877z
	 M700.476,173.877c-3.719,0-6.729-3.014-6.729-6.732s3.014-6.732,6.729-6.732c3.722,0,6.732,3.014,6.732,6.732
	S704.195,173.877,700.476,173.877z M757.046,693.875c-3.719,0-6.73-3.014-6.73-6.732c0-3.717,3.016-6.73,6.73-6.73
	s6.732,3.02,6.732,6.73C763.779,690.862,760.765,693.875,757.046,693.875z M757.046,641.875c-3.719,0-6.73-3.014-6.73-6.732
	c0-3.717,3.016-6.73,6.73-6.73s6.732,3.02,6.732,6.73C763.779,638.862,760.765,641.875,757.046,641.875z M757.046,589.875
	c-3.719,0-6.73-3.014-6.73-6.732c0-3.717,3.016-6.73,6.73-6.73s6.732,3.02,6.732,6.73
	C763.779,586.862,760.765,589.875,757.046,589.875z M757.046,537.875c-3.719,0-6.73-3.014-6.73-6.732c0-3.717,3.016-6.73,6.73-6.73
	s6.732,3.02,6.732,6.73C763.779,534.862,760.765,537.875,757.046,537.875z M757.046,485.875c-3.719,0-6.73-3.014-6.73-6.732
	c0-3.717,3.016-6.73,6.73-6.73s6.732,3.02,6.732,6.73C763.779,482.862,760.765,485.875,757.046,485.875z M757.046,433.877
	c-3.719,0-6.73-3.014-6.73-6.73c0-3.718,3.016-6.731,6.73-6.731s6.732,3.015,6.732,6.731S760.765,433.877,757.046,433.877z
	 M757.046,381.877c-3.719,0-6.73-3.014-6.73-6.731c0-3.717,3.016-6.732,6.73-6.732s6.732,3.015,6.732,6.732
	C763.778,378.863,760.765,381.877,757.046,381.877z M757.046,329.877c-3.719,0-6.73-3.014-6.73-6.732s3.016-6.732,6.73-6.732
	s6.732,3.014,6.732,6.732S760.765,329.877,757.046,329.877z M757.046,277.877c-3.719,0-6.73-3.014-6.73-6.732
	s3.016-6.732,6.73-6.732s6.732,3.014,6.732,6.732S760.765,277.877,757.046,277.877z M757.046,225.877
	c-3.719,0-6.73-3.014-6.73-6.732s3.016-6.732,6.73-6.732s6.732,3.014,6.732,6.732S760.765,225.877,757.046,225.877z
	 M757.046,173.877c-3.719,0-6.73-3.014-6.73-6.732s3.016-6.732,6.73-6.732s6.732,3.014,6.732,6.732S760.765,173.877,757.046,173.877
	z M757.046,121.877c-3.719,0-6.73-3.014-6.73-6.732c0-3.718,3.016-6.732,6.73-6.732s6.732,3.014,6.732,6.732
	C763.778,118.863,760.765,121.877,757.046,121.877z M813.617,641.875c-3.719,0-6.732-3.014-6.732-6.732
	c0-3.717,3.018-6.73,6.732-6.73s6.729,3.02,6.729,6.73C820.349,638.862,817.335,641.875,813.617,641.875z M813.617,589.875
	c-3.719,0-6.732-3.014-6.732-6.732c0-3.717,3.018-6.73,6.732-6.73s6.729,3.02,6.729,6.73
	C820.349,586.862,817.335,589.875,813.617,589.875z M813.617,537.875c-3.719,0-6.732-3.014-6.732-6.732
	c0-3.717,3.018-6.73,6.732-6.73s6.729,3.02,6.729,6.73C820.349,534.862,817.335,537.875,813.617,537.875z M813.617,485.875
	c-3.719,0-6.732-3.014-6.732-6.732c0-3.717,3.018-6.73,6.732-6.73s6.729,3.02,6.729,6.73
	C820.349,482.862,817.335,485.875,813.617,485.875z M813.617,433.877c-3.719,0-6.732-3.014-6.732-6.73
	c0-3.718,3.018-6.731,6.732-6.731s6.729,3.015,6.729,6.731C820.348,430.863,817.335,433.877,813.617,433.877z M813.617,381.877
	c-3.719,0-6.732-3.014-6.732-6.731c0-3.717,3.018-6.732,6.732-6.732s6.729,3.015,6.729,6.732
	C820.348,378.863,817.335,381.877,813.617,381.877z M870.188,641.875c-3.72,0-6.729-3.014-6.729-6.732
	c0-3.717,3.014-6.73,6.729-6.73c3.721,0,6.731,3.02,6.731,6.73C876.919,638.862,873.906,641.875,870.188,641.875z M870.188,589.875
	c-3.72,0-6.729-3.014-6.729-6.732c0-3.717,3.014-6.73,6.729-6.73c3.721,0,6.731,3.02,6.731,6.73
	C876.919,586.862,873.906,589.875,870.188,589.875z M870.188,537.875c-3.72,0-6.729-3.014-6.729-6.732
	c0-3.717,3.014-6.73,6.729-6.73c3.721,0,6.731,3.02,6.731,6.73C876.919,534.862,873.906,537.875,870.188,537.875z M870.188,485.875
	c-3.72,0-6.729-3.014-6.729-6.732c0-3.717,3.014-6.73,6.729-6.73c3.721,0,6.731,3.02,6.731,6.73
	C876.919,482.862,873.906,485.875,870.188,485.875z M926.757,589.875c-3.719,0-6.729-3.014-6.729-6.732
	c0-3.717,3.014-6.73,6.729-6.73s6.732,3.02,6.732,6.73C933.49,586.862,930.477,589.875,926.757,589.875z M926.757,537.875
	c-3.719,0-6.729-3.014-6.729-6.732c0-3.717,3.014-6.73,6.729-6.73s6.732,3.02,6.732,6.73
	C933.49,534.862,930.477,537.875,926.757,537.875z M983.328,589.875c-3.719,0-6.732-3.014-6.732-6.732
	c0-3.717,3.018-6.73,6.732-6.73s6.729,3.02,6.729,6.73C990.061,586.862,987.046,589.875,983.328,589.875z M983.328,537.875
	c-3.719,0-6.732-3.014-6.732-6.732c0-3.717,3.018-6.73,6.732-6.73s6.729,3.02,6.729,6.73
	C990.061,534.862,987.046,537.875,983.328,537.875z"/>
</svg>
