<?xml version="1.0" encoding="utf-8"?>
<!-- Generator: Adobe Illustrator 16.0.0, SVG Export Plug-In . SVG Version: 6.00 Build 0)  -->
<!DOCTYPE svg PUBLIC "-//W3C//DTD SVG 1.1//EN" "http://www.w3.org/Graphics/SVG/1.1/DTD/svg11.dtd">
<svg version="1.1" id="Layer_1" xmlns="http://www.w3.org/2000/svg" xmlns:xlink="http://www.w3.org/1999/xlink" x="0px" y="0px"
	 width="1056.521px" height="773.314px" viewBox="0 0 1056.521 773.314" enable-background="new 0 0 1056.521 773.314"
	 xml:space="preserve">
<path d="M1044.802,476.425c-19.896-12.953-122.217-72.111-142.521-89.71c-11.528-9.992-42.131-46.264-42.131-46.264l-20.163,12.084
	l19.479-12.936c-9.949-15.908-17.217-30.749-24.123-50.666c-18.014-51.941-21.317-59.009-22.517-64.927
	c-1.194-5.917-8.311-10.639-15.245-13.367c-6.938-2.729-10.716-15.109-7.843-35.445c2.875-20.335,20.293-72.754,31.857-93.192
	c11.562-20.438,15.934-31.537,18.838-36.48c2.906-4.944,0.929-12.131-11.188-20.42c-12.112-8.294-26.828-15.684-37.382-21.437
	c-10.553-5.754-17.252-5.825-27.418,7.796c-10.163,13.622-29.034,34.712-52.967,51.569c-23.933,16.854-49.252,33.165-92.062,40.993
	c-42.81,7.827-71.555,15.743-112.334,38.784c-40.783,23.043-87.245,49.937-144.586,82.484
	c-57.339,32.548-94.226,69.3-133.221,104.898c-38.995,35.604-107.63,106.633-144.884,146.762
	c-37.253,40.133-60.742,77.026-70.668,93.307c-9.932,16.275-12.481,25.207-13.277,31.301c-0.795,6.101-2.271,19.611,13.255,13.55
	c15.523-6.064,116.866-40.523,116.866-40.523S23.625,636.309,18.003,640.822c-5.621,4.52-6.183,13.27,2.379,19.197
	c8.562,5.934,11.723,26.396,129.793,52.022c118.074,25.627,257.983,56.002,276.992,58.994c19.01,2.99,19.907,5.59,57.356-9.793
	c37.448-15.385,259.608-106.113,364.948-148.291c105.341-42.18,182.524-69.801,182.524-69.801
	c13.646-4.562,18.854-13.729,20.197-21.207C1053.544,514.466,1064.694,489.378,1044.802,476.425z M813.618,46.051
	c3.722,0,6.73,3.014,6.73,6.732c0,3.718-3.017,6.732-6.73,6.732s-6.729-3.014-6.729-6.732
	C806.887,49.065,809.899,46.051,813.618,46.051z M78.205,579.514c-3.72,0-6.73-3.014-6.73-6.731c0-3.717,3.014-6.73,6.73-6.73
	s6.731,3.021,6.731,6.73C84.938,576.501,81.924,579.514,78.205,579.514z M78.205,527.514c-3.72,0-6.73-3.014-6.73-6.731
	c0-3.717,3.014-6.73,6.73-6.73s6.731,3.021,6.731,6.73C84.938,524.501,81.924,527.514,78.205,527.514z M78.205,683.514
	c-3.72,0-6.73-3.014-6.73-6.731c0-3.717,3.014-6.73,6.73-6.73s6.731,3.021,6.731,6.73C84.938,680.501,81.924,683.514,78.205,683.514
	z M78.205,631.514c-3.72,0-6.73-3.014-6.73-6.731c0-3.717,3.014-6.73,6.73-6.73s6.731,3.021,6.731,6.73
	C84.938,628.501,81.924,631.514,78.205,631.514z M134.775,683.514c-3.719,0-6.731-3.014-6.731-6.731c0-3.717,3.016-6.73,6.731-6.73
	s6.73,3.021,6.73,6.73C141.508,680.501,138.494,683.514,134.775,683.514z M134.775,631.514c-3.719,0-6.731-3.014-6.731-6.731
	c0-3.717,3.016-6.73,6.731-6.73s6.73,3.021,6.73,6.73C141.508,628.501,138.494,631.514,134.775,631.514z M134.775,527.514
	c-3.719,0-6.731-3.014-6.731-6.731c0-3.717,3.016-6.73,6.731-6.73s6.73,3.021,6.73,6.73
	C141.508,524.501,138.494,527.514,134.775,527.514z M134.775,475.514c-3.719,0-6.731-3.014-6.731-6.731
	c0-3.717,3.016-6.73,6.731-6.73s6.73,3.021,6.73,6.73C141.508,472.501,138.494,475.514,134.775,475.514z M191.346,683.514
	c-3.721,0-6.732-3.014-6.732-6.731c0-3.717,3.015-6.73,6.732-6.73c3.717,0,6.73,3.021,6.73,6.73
	C198.078,680.501,195.065,683.514,191.346,683.514z M191.346,631.514c-3.721,0-6.732-3.014-6.732-6.731
	c0-3.717,3.015-6.73,6.732-6.73c3.717,0,6.73,3.021,6.73,6.73C198.078,628.501,195.065,631.514,191.346,631.514z M191.346,579.514
	c-3.721,0-6.732-3.014-6.732-6.731c0-3.717,3.015-6.73,6.732-6.73c3.717,0,6.73,3.021,6.73,6.73
	C198.078,576.501,195.065,579.514,191.346,579.514z M191.346,527.514c-3.721,0-6.732-3.014-6.732-6.731
	c0-3.717,3.015-6.73,6.732-6.73c3.717,0,6.73,3.021,6.73,6.73C198.078,524.501,195.065,527.514,191.346,527.514z M191.346,475.514
	c-3.721,0-6.732-3.014-6.732-6.731c0-3.717,3.015-6.73,6.732-6.73c3.717,0,6.73,3.021,6.73,6.73
	C198.078,472.501,195.065,475.514,191.346,475.514z M191.346,423.514c-3.721,0-6.732-3.014-6.732-6.731
	c0-3.717,3.015-6.73,6.732-6.73c3.717,0,6.73,3.02,6.73,6.73C198.078,420.501,195.065,423.514,191.346,423.514z M247.916,683.514
	c-3.72,0-6.73-3.014-6.73-6.731c0-3.717,3.014-6.73,6.73-6.73s6.731,3.021,6.731,6.73
	C254.649,680.501,251.635,683.514,247.916,683.514z M247.916,631.514c-3.72,0-6.73-3.014-6.73-6.731c0-3.717,3.014-6.73,6.73-6.73
	s6.731,3.021,6.731,6.73C254.649,628.501,251.635,631.514,247.916,631.514z M247.916,579.514c-3.72,0-6.73-3.014-6.73-6.731
	c0-3.717,3.014-6.73,6.73-6.73s6.731,3.021,6.731,6.73C254.649,576.501,251.635,579.514,247.916,579.514z M247.916,527.514
	c-3.72,0-6.73-3.014-6.73-6.731c0-3.717,3.014-6.73,6.73-6.73s6.731,3.021,6.731,6.73
	C254.649,524.501,251.635,527.514,247.916,527.514z M247.916,475.514c-3.72,0-6.73-3.014-6.73-6.731c0-3.717,3.014-6.73,6.73-6.73
	s6.731,3.021,6.731,6.73C254.649,472.501,251.635,475.514,247.916,475.514z M247.916,423.514c-3.72,0-6.73-3.014-6.73-6.731
	c0-3.717,3.014-6.73,6.73-6.73s6.731,3.02,6.731,6.73C254.649,420.501,251.635,423.514,247.916,423.514z M247.916,371.516
	c-3.72,0-6.73-3.014-6.73-6.729c0-3.719,3.014-6.732,6.73-6.732s6.731,3.015,6.731,6.732
	C254.648,368.502,251.635,371.516,247.916,371.516z M304.486,735.514c-3.719,0-6.731-3.014-6.731-6.731
	c0-3.717,3.016-6.73,6.731-6.73s6.732,3.021,6.732,6.73C311.22,732.501,308.204,735.514,304.486,735.514z M304.486,683.514
	c-3.719,0-6.731-3.014-6.731-6.731c0-3.717,3.016-6.73,6.731-6.73s6.732,3.021,6.732,6.73
	C311.22,680.501,308.204,683.514,304.486,683.514z M304.486,631.514c-3.719,0-6.731-3.014-6.731-6.731
	c0-3.717,3.016-6.73,6.731-6.73s6.732,3.021,6.732,6.73C311.22,628.501,308.204,631.514,304.486,631.514z M304.486,579.514
	c-3.719,0-6.731-3.014-6.731-6.731c0-3.717,3.016-6.73,6.731-6.73s6.732,3.021,6.732,6.73
	C311.22,576.501,308.204,579.514,304.486,579.514z M304.486,527.514c-3.719,0-6.731-3.014-6.731-6.731
	c0-3.717,3.016-6.73,6.731-6.73s6.732,3.021,6.732,6.73C311.22,524.501,308.204,527.514,304.486,527.514z M304.486,475.514
	c-3.719,0-6.731-3.014-6.731-6.731c0-3.717,3.016-6.73,6.731-6.73s6.732,3.021,6.732,6.73
	C311.22,472.501,308.204,475.514,304.486,475.514z M304.486,423.514c-3.719,0-6.731-3.014-6.731-6.731
	c0-3.717,3.016-6.73,6.731-6.73s6.732,3.02,6.732,6.73C311.22,420.501,308.204,423.514,304.486,423.514z M304.486,371.516
	c-3.719,0-6.731-3.014-6.731-6.729c0-3.719,3.016-6.732,6.731-6.732s6.732,3.015,6.732,6.732
	C311.219,368.502,308.204,371.516,304.486,371.516z M304.486,319.516c-3.719,0-6.731-3.014-6.731-6.731
	c0-3.717,3.016-6.732,6.731-6.732s6.732,3.015,6.732,6.732C311.219,316.502,308.204,319.516,304.486,319.516z M361.057,735.514
	c-3.719,0-6.731-3.014-6.731-6.731c0-3.717,3.017-6.73,6.731-6.73s6.729,3.021,6.729,6.73
	C367.788,732.501,364.775,735.514,361.057,735.514z M361.057,683.514c-3.719,0-6.731-3.014-6.731-6.731
	c0-3.717,3.017-6.73,6.731-6.73s6.729,3.021,6.729,6.73C367.788,680.501,364.775,683.514,361.057,683.514z M361.057,631.514
	c-3.719,0-6.731-3.014-6.731-6.731c0-3.717,3.017-6.73,6.731-6.73s6.729,3.021,6.729,6.73
	C367.788,628.501,364.775,631.514,361.057,631.514z M361.057,579.514c-3.719,0-6.731-3.014-6.731-6.731
	c0-3.717,3.017-6.73,6.731-6.73s6.729,3.021,6.729,6.73C367.788,576.501,364.775,579.514,361.057,579.514z M361.057,527.514
	c-3.719,0-6.731-3.014-6.731-6.731c0-3.717,3.017-6.73,6.731-6.73s6.729,3.021,6.729,6.73
	C367.788,524.501,364.775,527.514,361.057,527.514z M361.057,475.514c-3.719,0-6.731-3.014-6.731-6.731
	c0-3.717,3.017-6.73,6.731-6.73s6.729,3.021,6.729,6.73C367.788,472.501,364.775,475.514,361.057,475.514z M361.057,423.514
	c-3.719,0-6.731-3.014-6.731-6.731c0-3.717,3.017-6.73,6.731-6.73s6.729,3.02,6.729,6.73
	C367.788,420.501,364.775,423.514,361.057,423.514z M361.057,371.516c-3.719,0-6.731-3.014-6.731-6.729
	c0-3.719,3.017-6.732,6.731-6.732s6.729,3.015,6.729,6.732C367.788,368.502,364.775,371.516,361.057,371.516z M361.057,319.516
	c-3.719,0-6.731-3.014-6.731-6.731c0-3.717,3.017-6.732,6.731-6.732s6.729,3.015,6.729,6.732
	C367.787,316.502,364.775,319.516,361.057,319.516z M361.057,267.516c-3.719,0-6.731-3.014-6.731-6.732
	c0-3.718,3.017-6.732,6.731-6.732s6.729,3.014,6.729,6.732C367.787,264.502,364.775,267.516,361.057,267.516z M417.629,735.514
	c-3.722,0-6.732-3.014-6.732-6.731c0-3.717,3.016-6.73,6.732-6.73c3.716,0,6.729,3.021,6.729,6.73
	C424.359,732.501,421.346,735.514,417.629,735.514z M417.629,683.514c-3.722,0-6.732-3.014-6.732-6.731
	c0-3.717,3.016-6.73,6.732-6.73c3.716,0,6.729,3.021,6.729,6.73C424.359,680.501,421.346,683.514,417.629,683.514z M417.629,631.514
	c-3.722,0-6.732-3.014-6.732-6.731c0-3.717,3.016-6.73,6.732-6.73c3.716,0,6.729,3.021,6.729,6.73
	C424.359,628.501,421.346,631.514,417.629,631.514z M417.629,579.514c-3.722,0-6.732-3.014-6.732-6.731
	c0-3.717,3.016-6.73,6.732-6.73c3.716,0,6.729,3.021,6.729,6.73C424.359,576.501,421.346,579.514,417.629,579.514z M417.629,527.514
	c-3.722,0-6.732-3.014-6.732-6.731c0-3.717,3.016-6.73,6.732-6.73c3.716,0,6.729,3.021,6.729,6.73
	C424.359,524.501,421.346,527.514,417.629,527.514z M417.629,475.514c-3.722,0-6.732-3.014-6.732-6.731
	c0-3.717,3.016-6.73,6.732-6.73c3.716,0,6.729,3.021,6.729,6.73C424.359,472.501,421.346,475.514,417.629,475.514z M417.629,423.514
	c-3.722,0-6.732-3.014-6.732-6.731c0-3.717,3.016-6.73,6.732-6.73c3.716,0,6.729,3.02,6.729,6.73
	C424.359,420.501,421.346,423.514,417.629,423.514z M417.629,371.516c-3.722,0-6.732-3.014-6.732-6.729
	c0-3.719,3.016-6.732,6.732-6.732c3.716,0,6.729,3.015,6.729,6.732C424.359,368.502,421.346,371.516,417.629,371.516z
	 M417.629,319.516c-3.722,0-6.732-3.014-6.732-6.731c0-3.717,3.016-6.732,6.732-6.732c3.716,0,6.729,3.015,6.729,6.732
	C424.358,316.502,421.346,319.516,417.629,319.516z M417.629,267.516c-3.722,0-6.732-3.014-6.732-6.732
	c0-3.718,3.016-6.732,6.732-6.732c3.716,0,6.729,3.014,6.729,6.732C424.358,264.502,421.346,267.516,417.629,267.516z
	 M474.197,735.514c-3.721,0-6.729-3.014-6.729-6.731c0-3.717,3.014-6.73,6.729-6.73s6.73,3.021,6.73,6.73
	C480.93,732.501,477.915,735.514,474.197,735.514z M474.197,683.514c-3.721,0-6.729-3.014-6.729-6.731
	c0-3.717,3.014-6.73,6.729-6.73s6.73,3.021,6.73,6.73C480.93,680.501,477.915,683.514,474.197,683.514z M474.197,631.514
	c-3.721,0-6.729-3.014-6.729-6.731c0-3.717,3.014-6.73,6.729-6.73s6.73,3.021,6.73,6.73
	C480.93,628.501,477.915,631.514,474.197,631.514z M474.197,579.514c-3.721,0-6.729-3.014-6.729-6.731
	c0-3.717,3.014-6.73,6.729-6.73s6.73,3.021,6.73,6.73C480.93,576.501,477.915,579.514,474.197,579.514z M474.197,527.514
	c-3.721,0-6.729-3.014-6.729-6.731c0-3.717,3.014-6.73,6.729-6.73s6.73,3.021,6.73,6.73
	C480.93,524.501,477.915,527.514,474.197,527.514z M474.197,475.514c-3.721,0-6.729-3.014-6.729-6.731
	c0-3.717,3.014-6.73,6.729-6.73s6.73,3.021,6.73,6.73C480.93,472.501,477.915,475.514,474.197,475.514z M474.197,423.514
	c-3.721,0-6.729-3.014-6.729-6.731c0-3.717,3.014-6.73,6.729-6.73s6.73,3.02,6.73,6.73
	C480.93,420.501,477.915,423.514,474.197,423.514z M474.197,371.516c-3.721,0-6.729-3.014-6.729-6.729
	c0-3.719,3.014-6.732,6.729-6.732s6.73,3.015,6.73,6.732C480.929,368.502,477.915,371.516,474.197,371.516z M474.197,319.516
	c-3.721,0-6.729-3.014-6.729-6.731c0-3.717,3.014-6.732,6.729-6.732s6.73,3.015,6.73,6.732
	C480.929,316.502,477.915,319.516,474.197,319.516z M474.197,267.516c-3.721,0-6.729-3.014-6.729-6.732
	c0-3.718,3.014-6.732,6.729-6.732s6.73,3.014,6.73,6.732C480.929,264.502,477.915,267.516,474.197,267.516z M474.197,215.516
	c-3.721,0-6.729-3.014-6.729-6.732c0-3.718,3.014-6.732,6.729-6.732s6.73,3.014,6.73,6.732
	C480.929,212.502,477.915,215.516,474.197,215.516z M530.767,683.514c-3.719,0-6.73-3.014-6.73-6.731c0-3.717,3.017-6.73,6.73-6.73
	c3.72,0,6.729,3.021,6.729,6.73C537.499,680.501,534.486,683.514,530.767,683.514z M530.767,631.514c-3.719,0-6.73-3.014-6.73-6.731
	c0-3.717,3.017-6.73,6.73-6.73c3.72,0,6.729,3.021,6.729,6.73C537.499,628.501,534.486,631.514,530.767,631.514z M530.767,579.514
	c-3.719,0-6.73-3.014-6.73-6.731c0-3.717,3.017-6.73,6.73-6.73c3.72,0,6.729,3.021,6.729,6.73
	C537.499,576.501,534.486,579.514,530.767,579.514z M530.767,527.514c-3.719,0-6.73-3.014-6.73-6.731c0-3.717,3.017-6.73,6.73-6.73
	c3.72,0,6.729,3.021,6.729,6.73C537.499,524.501,534.486,527.514,530.767,527.514z M530.767,475.514c-3.719,0-6.73-3.014-6.73-6.731
	c0-3.717,3.017-6.73,6.73-6.73c3.72,0,6.729,3.021,6.729,6.73C537.499,472.501,534.486,475.514,530.767,475.514z M530.767,423.514
	c-3.719,0-6.73-3.014-6.73-6.731c0-3.717,3.017-6.73,6.73-6.73c3.72,0,6.729,3.02,6.729,6.73
	C537.499,420.501,534.486,423.514,530.767,423.514z M530.767,371.516c-3.719,0-6.73-3.014-6.73-6.729
	c0-3.719,3.017-6.732,6.73-6.732c3.72,0,6.729,3.015,6.729,6.732C537.498,368.502,534.486,371.516,530.767,371.516z
	 M530.767,319.516c-3.719,0-6.73-3.014-6.73-6.731c0-3.717,3.017-6.732,6.73-6.732c3.72,0,6.729,3.015,6.729,6.732
	C537.497,316.502,534.486,319.516,530.767,319.516z M530.767,267.516c-3.719,0-6.73-3.014-6.73-6.732
	c0-3.718,3.017-6.732,6.73-6.732c3.72,0,6.729,3.014,6.729,6.732C537.497,264.502,534.486,267.516,530.767,267.516z
	 M530.767,215.516c-3.719,0-6.73-3.014-6.73-6.732c0-3.718,3.017-6.732,6.73-6.732c3.72,0,6.729,3.014,6.729,6.732
	C537.497,212.502,534.486,215.516,530.767,215.516z M530.767,163.516c-3.719,0-6.73-3.014-6.73-6.732
	c0-3.718,3.017-6.732,6.73-6.732c3.72,0,6.729,3.014,6.729,6.732C537.497,160.502,534.486,163.516,530.767,163.516z
	 M587.339,683.514c-3.722,0-6.732-3.014-6.732-6.731c0-3.717,3.016-6.73,6.732-6.73c3.716,0,6.729,3.021,6.729,6.73
	C594.07,680.501,591.056,683.514,587.339,683.514z M587.339,631.514c-3.722,0-6.732-3.014-6.732-6.731
	c0-3.717,3.016-6.73,6.732-6.73c3.716,0,6.729,3.021,6.729,6.73C594.07,628.501,591.056,631.514,587.339,631.514z M587.339,579.514
	c-3.722,0-6.732-3.014-6.732-6.731c0-3.717,3.016-6.73,6.732-6.73c3.716,0,6.729,3.021,6.729,6.73
	C594.07,576.501,591.056,579.514,587.339,579.514z M587.339,527.514c-3.722,0-6.732-3.014-6.732-6.731
	c0-3.717,3.016-6.73,6.732-6.73c3.716,0,6.729,3.021,6.729,6.73C594.07,524.501,591.056,527.514,587.339,527.514z M587.339,475.514
	c-3.722,0-6.732-3.014-6.732-6.731c0-3.717,3.016-6.73,6.732-6.73c3.716,0,6.729,3.021,6.729,6.73
	C594.07,472.501,591.056,475.514,587.339,475.514z M587.339,423.514c-3.722,0-6.732-3.014-6.732-6.731
	c0-3.717,3.016-6.73,6.732-6.73c3.716,0,6.729,3.02,6.729,6.73C594.07,420.501,591.056,423.514,587.339,423.514z M587.339,371.516
	c-3.722,0-6.732-3.014-6.732-6.729c0-3.719,3.016-6.732,6.732-6.732c3.716,0,6.729,3.015,6.729,6.732
	C594.069,368.502,591.056,371.516,587.339,371.516z M587.339,319.516c-3.722,0-6.732-3.014-6.732-6.731
	c0-3.717,3.016-6.732,6.732-6.732c3.716,0,6.729,3.015,6.729,6.732C594.068,316.502,591.056,319.516,587.339,319.516z
	 M587.339,267.516c-3.722,0-6.732-3.014-6.732-6.732c0-3.718,3.016-6.732,6.732-6.732c3.716,0,6.729,3.014,6.729,6.732
	C594.068,264.502,591.056,267.516,587.339,267.516z M587.339,215.516c-3.722,0-6.732-3.014-6.732-6.732
	c0-3.718,3.016-6.732,6.732-6.732c3.716,0,6.729,3.014,6.729,6.732C594.068,212.502,591.056,215.516,587.339,215.516z
	 M587.339,163.516c-3.722,0-6.732-3.014-6.732-6.732c0-3.718,3.016-6.732,6.732-6.732c3.716,0,6.729,3.014,6.729,6.732
	C594.068,160.502,591.056,163.516,587.339,163.516z M643.907,683.514c-3.72,0-6.729-3.014-6.729-6.731
	c0-3.717,3.016-6.73,6.729-6.73s6.73,3.021,6.73,6.73C650.64,680.501,647.628,683.514,643.907,683.514z M643.907,631.514
	c-3.72,0-6.729-3.014-6.729-6.731c0-3.717,3.016-6.73,6.729-6.73s6.73,3.021,6.73,6.73
	C650.64,628.501,647.628,631.514,643.907,631.514z M643.907,579.514c-3.72,0-6.729-3.014-6.729-6.731c0-3.717,3.016-6.73,6.729-6.73
	s6.73,3.021,6.73,6.73C650.64,576.501,647.628,579.514,643.907,579.514z M643.907,527.514c-3.72,0-6.729-3.014-6.729-6.731
	c0-3.717,3.016-6.73,6.729-6.73s6.73,3.021,6.73,6.73C650.64,524.501,647.628,527.514,643.907,527.514z M643.907,475.514
	c-3.72,0-6.729-3.014-6.729-6.731c0-3.717,3.016-6.73,6.729-6.73s6.73,3.021,6.73,6.73
	C650.64,472.501,647.628,475.514,643.907,475.514z M643.907,423.514c-3.72,0-6.729-3.014-6.729-6.731c0-3.717,3.016-6.73,6.729-6.73
	s6.73,3.02,6.73,6.73C650.64,420.501,647.628,423.514,643.907,423.514z M643.907,371.516c-3.72,0-6.729-3.014-6.729-6.729
	c0-3.719,3.016-6.732,6.729-6.732s6.73,3.015,6.73,6.732C650.639,368.502,647.628,371.516,643.907,371.516z M643.907,319.516
	c-3.72,0-6.729-3.014-6.729-6.731c0-3.717,3.016-6.732,6.729-6.732s6.73,3.015,6.73,6.732
	C650.639,316.502,647.628,319.516,643.907,319.516z M643.907,267.516c-3.72,0-6.729-3.014-6.729-6.732
	c0-3.718,3.016-6.732,6.729-6.732s6.73,3.014,6.73,6.732C650.64,264.502,647.628,267.516,643.907,267.516z M643.907,215.516
	c-3.72,0-6.729-3.014-6.729-6.732c0-3.718,3.016-6.732,6.729-6.732s6.73,3.014,6.73,6.732
	C650.64,212.502,647.628,215.516,643.907,215.516z M643.907,163.516c-3.72,0-6.729-3.014-6.729-6.732
	c0-3.718,3.016-6.732,6.729-6.732s6.73,3.014,6.73,6.732C650.64,160.502,647.628,163.516,643.907,163.516z M700.478,631.514
	c-3.719,0-6.729-3.014-6.729-6.731c0-3.717,3.016-6.73,6.729-6.73c3.72,0,6.731,3.021,6.731,6.73
	C707.213,628.501,704.197,631.514,700.478,631.514z M700.478,579.514c-3.719,0-6.729-3.014-6.729-6.731
	c0-3.717,3.016-6.73,6.729-6.73c3.72,0,6.731,3.021,6.731,6.73C707.213,576.501,704.197,579.514,700.478,579.514z M700.478,527.514
	c-3.719,0-6.729-3.014-6.729-6.731c0-3.717,3.016-6.73,6.729-6.73c3.72,0,6.731,3.021,6.731,6.73
	C707.213,524.501,704.197,527.514,700.478,527.514z M700.478,475.514c-3.719,0-6.729-3.014-6.729-6.731
	c0-3.717,3.016-6.73,6.729-6.73c3.72,0,6.731,3.021,6.731,6.73C707.213,472.501,704.197,475.514,700.478,475.514z M700.478,423.514
	c-3.719,0-6.729-3.014-6.729-6.731c0-3.717,3.016-6.73,6.729-6.73c3.72,0,6.731,3.02,6.731,6.73
	C707.213,420.501,704.197,423.514,700.478,423.514z M700.478,371.516c-3.719,0-6.729-3.014-6.729-6.729
	c0-3.719,3.016-6.732,6.729-6.732c3.72,0,6.731,3.015,6.731,6.732C707.21,368.502,704.197,371.516,700.478,371.516z
	 M700.478,319.516c-3.719,0-6.729-3.014-6.729-6.731c0-3.717,3.016-6.732,6.729-6.732c3.72,0,6.731,3.015,6.731,6.732
	C707.21,316.502,704.197,319.516,700.478,319.516z M700.478,267.516c-3.719,0-6.729-3.014-6.729-6.732
	c0-3.718,3.016-6.732,6.729-6.732c3.72,0,6.731,3.014,6.731,6.732C707.21,264.502,704.197,267.516,700.478,267.516z
	 M700.478,215.516c-3.719,0-6.729-3.014-6.729-6.732c0-3.718,3.016-6.732,6.729-6.732c3.72,0,6.731,3.014,6.731,6.732
	C707.21,212.502,704.197,215.516,700.478,215.516z M700.478,163.516c-3.719,0-6.729-3.014-6.729-6.732
	c0-3.718,3.016-6.732,6.729-6.732c3.72,0,6.731,3.014,6.731,6.732C707.21,160.502,704.197,163.516,700.478,163.516z
	 M700.478,111.516c-3.719,0-6.729-3.014-6.729-6.732c0-3.718,3.016-6.732,6.729-6.732c3.72,0,6.731,3.014,6.731,6.732
	C707.21,108.502,704.197,111.516,700.478,111.516z M757.05,631.514c-3.722,0-6.732-3.014-6.732-6.731c0-3.717,3.016-6.73,6.732-6.73
	c3.716,0,6.729,3.021,6.729,6.73C763.781,628.501,760.767,631.514,757.05,631.514z M757.05,579.514
	c-3.722,0-6.732-3.014-6.732-6.731c0-3.717,3.016-6.73,6.732-6.73c3.716,0,6.729,3.021,6.729,6.73
	C763.781,576.501,760.767,579.514,757.05,579.514z M757.05,527.514c-3.722,0-6.732-3.014-6.732-6.731c0-3.717,3.016-6.73,6.732-6.73
	c3.716,0,6.729,3.021,6.729,6.73C763.781,524.501,760.767,527.514,757.05,527.514z M757.05,475.514
	c-3.722,0-6.732-3.014-6.732-6.731c0-3.717,3.016-6.73,6.732-6.73c3.716,0,6.729,3.021,6.729,6.73
	C763.781,472.501,760.767,475.514,757.05,475.514z M757.05,423.514c-3.722,0-6.732-3.014-6.732-6.731c0-3.717,3.016-6.73,6.732-6.73
	c3.716,0,6.729,3.02,6.729,6.73C763.781,420.501,760.767,423.514,757.05,423.514z M757.05,371.516c-3.722,0-6.732-3.014-6.732-6.729
	c0-3.719,3.016-6.732,6.732-6.732c3.716,0,6.729,3.015,6.729,6.732C763.78,368.502,760.767,371.516,757.05,371.516z M757.05,319.516
	c-3.722,0-6.732-3.014-6.732-6.731c0-3.717,3.016-6.732,6.732-6.732c3.716,0,6.729,3.015,6.729,6.732
	C763.779,316.502,760.767,319.516,757.05,319.516z M757.05,267.516c-3.722,0-6.732-3.014-6.732-6.732
	c0-3.718,3.016-6.732,6.732-6.732c3.716,0,6.729,3.014,6.729,6.732C763.779,264.502,760.767,267.516,757.05,267.516z
	 M757.05,215.516c-3.722,0-6.732-3.014-6.732-6.732c0-3.718,3.016-6.732,6.732-6.732c3.716,0,6.729,3.014,6.729,6.732
	C763.779,212.502,760.767,215.516,757.05,215.516z M757.05,163.516c-3.722,0-6.732-3.014-6.732-6.732
	c0-3.718,3.016-6.732,6.732-6.732c3.716,0,6.729,3.014,6.729,6.732C763.779,160.502,760.767,163.516,757.05,163.516z
	 M757.05,111.516c-3.722,0-6.732-3.014-6.732-6.732c0-3.718,3.016-6.732,6.732-6.732c3.716,0,6.729,3.014,6.729,6.732
	C763.779,108.502,760.767,111.516,757.05,111.516z M757.05,59.516c-3.722,0-6.732-3.014-6.732-6.732
	c0-3.718,3.016-6.732,6.732-6.732c3.716,0,6.729,3.014,6.729,6.732C763.78,56.502,760.767,59.516,757.05,59.516z M813.618,579.514
	c-3.719,0-6.729-3.014-6.729-6.731c0-3.717,3.016-6.73,6.729-6.73c3.717,0,6.73,3.021,6.73,6.73
	C820.351,576.501,817.339,579.514,813.618,579.514z M813.618,527.514c-3.719,0-6.729-3.014-6.729-6.731
	c0-3.717,3.016-6.73,6.729-6.73c3.717,0,6.73,3.021,6.73,6.73C820.351,524.501,817.339,527.514,813.618,527.514z M813.618,475.514
	c-3.719,0-6.729-3.014-6.729-6.731c0-3.717,3.016-6.73,6.729-6.73c3.717,0,6.73,3.021,6.73,6.73
	C820.351,472.501,817.339,475.514,813.618,475.514z M813.618,423.514c-3.719,0-6.729-3.014-6.729-6.731
	c0-3.717,3.016-6.73,6.729-6.73c3.717,0,6.73,3.02,6.73,6.73C820.351,420.501,817.339,423.514,813.618,423.514z M813.618,371.516
	c-3.719,0-6.729-3.014-6.729-6.729c0-3.719,3.016-6.732,6.729-6.732c3.717,0,6.73,3.015,6.73,6.732
	C820.35,368.502,817.339,371.516,813.618,371.516z M813.618,319.516c-3.719,0-6.729-3.014-6.729-6.731
	c0-3.717,3.016-6.732,6.729-6.732c3.717,0,6.73,3.015,6.73,6.732C820.35,316.502,817.339,319.516,813.618,319.516z M870.189,579.514
	c-3.719,0-6.729-3.014-6.729-6.731c0-3.717,3.015-6.73,6.729-6.73c3.72,0,6.732,3.021,6.732,6.73
	C876.923,576.501,873.907,579.514,870.189,579.514z M870.189,527.514c-3.719,0-6.729-3.014-6.729-6.731
	c0-3.717,3.015-6.73,6.729-6.73c3.72,0,6.732,3.021,6.732,6.73C876.923,524.501,873.907,527.514,870.189,527.514z M870.189,475.514
	c-3.719,0-6.729-3.014-6.729-6.731c0-3.717,3.015-6.73,6.729-6.73c3.72,0,6.732,3.021,6.732,6.73
	C876.923,472.501,873.907,475.514,870.189,475.514z M870.189,423.514c-3.719,0-6.729-3.014-6.729-6.731
	c0-3.717,3.015-6.73,6.729-6.73c3.72,0,6.732,3.02,6.732,6.73C876.923,420.501,873.907,423.514,870.189,423.514z M926.76,527.514
	c-3.722,0-6.73-3.014-6.73-6.731c0-3.717,3.017-6.73,6.73-6.73s6.729,3.021,6.729,6.73
	C933.491,524.501,930.478,527.514,926.76,527.514z M926.76,475.514c-3.722,0-6.73-3.014-6.73-6.731c0-3.717,3.017-6.73,6.73-6.73
	s6.729,3.021,6.729,6.73C933.491,472.501,930.478,475.514,926.76,475.514z M983.329,527.514c-3.719,0-6.729-3.014-6.729-6.731
	c0-3.717,3.016-6.73,6.729-6.73c3.719,0,6.73,3.021,6.73,6.73C990.062,524.501,987.05,527.514,983.329,527.514z M983.329,475.514
	c-3.719,0-6.729-3.014-6.729-6.731c0-3.717,3.016-6.73,6.729-6.73c3.719,0,6.73,3.021,6.73,6.73
	C990.062,472.501,987.05,475.514,983.329,475.514z"/>
</svg>
