<?xml version="1.0" encoding="utf-8"?>
<!-- Generator: Adobe Illustrator 16.0.0, SVG Export Plug-In . SVG Version: 6.00 Build 0)  -->
<!DOCTYPE svg PUBLIC "-//W3C//DTD SVG 1.1//EN" "http://www.w3.org/Graphics/SVG/1.1/DTD/svg11.dtd">
<svg version="1.1" id="Layer_1" xmlns="http://www.w3.org/2000/svg" xmlns:xlink="http://www.w3.org/1999/xlink" x="0px" y="0px"
	 width="1106.218px" height="742.348px" viewBox="0 0 1106.218 742.348" enable-background="new 0 0 1106.218 742.348"
	 xml:space="preserve">
<path fill="none" stroke="#000000" stroke-linejoin="round" stroke-miterlimit="10" d="M1056.341,123.788
	c-10.287-4.432-21.57-5.553-32.338-8.398C875.326,76.101,600.228-4.324,577.281,0.182c-6.385,1.253-93.314,43.622-113.746,66.203
	C360.825,179.89,309.254,298.103,240.931,418.102c-28.584,50.203-56.92,100.605-89.479,148.355
	c-28.247,41.426-54.045,75.758-77.14,103.139c-6.153,7.283-10.629,12.783-13.516,16.553
	c41.851,11.275,214.357,55.459,217.364,56.199c10.327-12.49,25.359-28.033,45.036-46.94c42.375-40.433,68.583-65.547,78.581-75.443
	c22.501-22.172,47.004-44.02,73.269-65.768c46.487-38.271,81.366-64.543,104.641-79.117c41.25-25.83,89.314-36.854,137.512-40.213
	c39.158-2.73,68.205-3.654,87.26-2.664c43.568,2.266,87.209,3.278,130.727,6.516c52.285,3.887,84.941,5.883,98.127,5.953
	c16.682,0.121,27.621,0.479,32.566,1.225c1.785-7.127,6.219-24.569,13.406-52.161c4.766-18.402,8.973-35.838,12.43-52.434
	c9.1-42.891,13.91-74.932,14.457-96.195c0.393-18.768-1.561-36.604-6.041-53.636
	C1093.115,164.817,1083.292,135.399,1056.341,123.788z M159.841,661.86c-3.719,0-6.732-3.019-6.732-6.732
	c0-3.719,3.014-6.729,6.732-6.729c3.718,0,6.732,3.014,6.732,6.729C166.574,658.842,163.561,661.86,159.841,661.86z M159.841,609.86
	c-3.719,0-6.732-3.019-6.732-6.732c0-3.719,3.014-6.729,6.732-6.729c3.718,0,6.732,3.014,6.732,6.729
	C166.574,606.842,163.561,609.86,159.841,609.86z M216.413,713.86c-3.719,0-6.732-3.019-6.732-6.732
	c0-3.719,3.014-6.729,6.732-6.729c3.718,0,6.732,3.014,6.732,6.729S220.13,713.86,216.413,713.86z M216.413,661.86
	c-3.719,0-6.732-3.019-6.732-6.732c0-3.719,3.014-6.729,6.732-6.729c3.718,0,6.732,3.014,6.732,6.729S220.13,661.86,216.413,661.86z
	 M216.413,609.86c-3.719,0-6.732-3.019-6.732-6.732c0-3.719,3.014-6.729,6.732-6.729c3.718,0,6.732,3.014,6.732,6.729
	S220.13,609.86,216.413,609.86z M216.413,557.86c-3.719,0-6.732-3.019-6.732-6.732c0-3.719,3.014-6.729,6.732-6.729
	c3.718,0,6.732,3.014,6.732,6.729S220.13,557.86,216.413,557.86z M216.413,505.86c-3.719,0-6.732-3.019-6.732-6.732
	c0-3.719,3.014-6.729,6.732-6.729c3.718,0,6.732,3.014,6.732,6.729S220.13,505.86,216.413,505.86z M272.982,713.86
	c-3.719,0-6.732-3.019-6.732-6.732c0-3.719,3.014-6.729,6.732-6.729c3.718,0,6.732,3.014,6.732,6.729S276.701,713.86,272.982,713.86
	z M272.982,661.86c-3.719,0-6.732-3.019-6.732-6.732c0-3.719,3.014-6.729,6.732-6.729c3.718,0,6.732,3.014,6.732,6.729
	S276.701,661.86,272.982,661.86z M272.982,609.86c-3.719,0-6.732-3.019-6.732-6.732c0-3.719,3.014-6.729,6.732-6.729
	c3.718,0,6.732,3.014,6.732,6.729S276.701,609.86,272.982,609.86z M272.982,557.86c-3.719,0-6.732-3.019-6.732-6.732
	c0-3.719,3.014-6.729,6.732-6.729c3.718,0,6.732,3.014,6.732,6.729S276.701,557.86,272.982,557.86z M272.982,505.86
	c-3.719,0-6.732-3.019-6.732-6.732c0-3.719,3.014-6.729,6.732-6.729c3.718,0,6.732,3.014,6.732,6.729S276.701,505.86,272.982,505.86
	z M272.982,453.86c-3.719,0-6.732-3.019-6.732-6.732c0-3.719,3.014-6.729,6.732-6.729c3.718,0,6.732,3.014,6.732,6.729
	S276.701,453.86,272.982,453.86z M272.982,401.859c-3.719,0-6.732-3.018-6.732-6.731c0-3.719,3.014-6.729,6.732-6.729
	c3.718,0,6.732,3.015,6.732,6.729S276.701,401.859,272.982,401.859z M329.552,661.86c-3.719,0-6.73-3.019-6.73-6.732
	c0-3.719,3.014-6.729,6.73-6.729s6.732,3.014,6.732,6.729C336.286,658.842,333.271,661.86,329.552,661.86z M329.552,609.86
	c-3.719,0-6.73-3.019-6.73-6.732c0-3.719,3.014-6.729,6.73-6.729s6.732,3.014,6.732,6.729
	C336.286,606.842,333.271,609.86,329.552,609.86z M329.552,557.86c-3.719,0-6.73-3.019-6.73-6.732c0-3.719,3.014-6.729,6.73-6.729
	s6.732,3.014,6.732,6.729C336.286,554.842,333.271,557.86,329.552,557.86z M329.552,505.86c-3.719,0-6.73-3.019-6.73-6.732
	c0-3.719,3.014-6.729,6.73-6.729s6.732,3.014,6.732,6.729C336.286,502.842,333.271,505.86,329.552,505.86z M329.552,453.86
	c-3.719,0-6.73-3.019-6.73-6.732c0-3.719,3.014-6.729,6.73-6.729s6.732,3.014,6.732,6.729
	C336.286,450.842,333.271,453.86,329.552,453.86z M329.552,401.859c-3.719,0-6.73-3.018-6.73-6.731c0-3.719,3.014-6.729,6.73-6.729
	s6.732,3.015,6.732,6.729C336.286,398.842,333.271,401.859,329.552,401.859z M329.552,349.858c-3.719,0-6.73-3.015-6.73-6.732
	s3.014-6.732,6.73-6.732s6.732,3.015,6.732,6.732S333.271,349.858,329.552,349.858z M329.552,297.858
	c-3.719,0-6.73-3.014-6.73-6.732s3.014-6.732,6.73-6.732s6.732,3.014,6.732,6.732C336.284,294.845,333.271,297.858,329.552,297.858z
	 M386.124,609.86c-3.719,0-6.732-3.019-6.732-6.732c0-3.719,3.017-6.729,6.732-6.729s6.731,3.014,6.731,6.729
	S389.841,609.86,386.124,609.86z M386.124,557.86c-3.719,0-6.732-3.019-6.732-6.732c0-3.719,3.017-6.729,6.732-6.729
	s6.731,3.014,6.731,6.729S389.841,557.86,386.124,557.86z M386.124,505.86c-3.719,0-6.732-3.019-6.732-6.732
	c0-3.719,3.017-6.729,6.732-6.729s6.731,3.014,6.731,6.729S389.841,505.86,386.124,505.86z M386.124,453.86
	c-3.719,0-6.732-3.019-6.732-6.732c0-3.719,3.017-6.729,6.732-6.729s6.731,3.014,6.731,6.729S389.841,453.86,386.124,453.86z
	 M386.124,401.859c-3.719,0-6.732-3.018-6.732-6.731c0-3.719,3.017-6.729,6.732-6.729s6.731,3.015,6.731,6.729
	S389.841,401.859,386.124,401.859z M386.124,349.858c-3.719,0-6.732-3.015-6.732-6.732s3.017-6.732,6.732-6.732
	s6.731,3.015,6.731,6.732S389.841,349.858,386.124,349.858z M386.124,297.858c-3.719,0-6.732-3.014-6.732-6.732
	s3.017-6.732,6.732-6.732s6.731,3.014,6.731,6.732C392.855,294.845,389.841,297.858,386.124,297.858z M386.124,245.858
	c-3.719,0-6.732-3.014-6.732-6.732s3.017-6.732,6.732-6.732s6.731,3.014,6.731,6.732
	C392.855,242.845,389.841,245.858,386.124,245.858z M442.694,557.86c-3.722,0-6.732-3.019-6.732-6.732
	c0-3.719,3.014-6.729,6.732-6.729c3.718,0,6.729,3.014,6.729,6.729S446.413,557.86,442.694,557.86z M442.694,505.86
	c-3.722,0-6.732-3.019-6.732-6.732c0-3.719,3.014-6.729,6.732-6.729c3.718,0,6.729,3.014,6.729,6.729S446.413,505.86,442.694,505.86
	z M442.694,453.86c-3.722,0-6.732-3.019-6.732-6.732c0-3.719,3.014-6.729,6.732-6.729c3.718,0,6.729,3.014,6.729,6.729
	S446.413,453.86,442.694,453.86z M442.694,401.859c-3.722,0-6.732-3.018-6.732-6.731c0-3.719,3.014-6.729,6.732-6.729
	c3.718,0,6.729,3.015,6.729,6.729S446.413,401.859,442.694,401.859z M442.694,349.858c-3.722,0-6.732-3.015-6.732-6.732
	s3.014-6.732,6.732-6.732c3.718,0,6.729,3.015,6.729,6.732S446.413,349.858,442.694,349.858z M442.694,297.858
	c-3.722,0-6.732-3.014-6.732-6.732s3.014-6.732,6.732-6.732c3.718,0,6.729,3.014,6.729,6.732
	C449.425,294.845,446.413,297.858,442.694,297.858z M442.694,245.858c-3.722,0-6.732-3.014-6.732-6.732s3.014-6.732,6.732-6.732
	c3.718,0,6.729,3.014,6.729,6.732C449.425,242.845,446.413,245.858,442.694,245.858z M442.694,193.858
	c-3.722,0-6.732-3.014-6.732-6.732s3.014-6.732,6.732-6.732c3.718,0,6.729,3.014,6.729,6.732
	C449.425,190.845,446.413,193.858,442.694,193.858z M442.694,141.858c-3.722,0-6.732-3.014-6.732-6.732s3.014-6.732,6.732-6.732
	c3.718,0,6.729,3.014,6.729,6.732C449.425,138.845,446.413,141.858,442.694,141.858z M499.263,505.86
	c-3.719,0-6.729-3.019-6.729-6.732c0-3.719,3.014-6.729,6.729-6.729c3.716,0,6.732,3.014,6.732,6.729
	C505.997,502.842,502.982,505.86,499.263,505.86z M499.263,453.86c-3.719,0-6.729-3.019-6.729-6.732
	c0-3.719,3.014-6.729,6.729-6.729c3.716,0,6.732,3.014,6.732,6.729C505.997,450.842,502.982,453.86,499.263,453.86z
	 M499.263,401.859c-3.719,0-6.729-3.018-6.729-6.731c0-3.719,3.014-6.729,6.729-6.729c3.716,0,6.732,3.015,6.732,6.729
	C505.997,398.842,502.982,401.859,499.263,401.859z M499.263,349.858c-3.719,0-6.729-3.015-6.729-6.732s3.014-6.732,6.729-6.732
	c3.716,0,6.732,3.015,6.732,6.732S502.982,349.858,499.263,349.858z M499.263,297.858c-3.719,0-6.729-3.014-6.729-6.732
	s3.014-6.732,6.729-6.732c3.716,0,6.732,3.014,6.732,6.732C505.996,294.845,502.982,297.858,499.263,297.858z M499.263,245.858
	c-3.719,0-6.729-3.014-6.729-6.732s3.014-6.732,6.729-6.732c3.716,0,6.732,3.014,6.732,6.732
	C505.996,242.845,502.982,245.858,499.263,245.858z M499.263,193.858c-3.719,0-6.729-3.014-6.729-6.732s3.014-6.732,6.729-6.732
	c3.716,0,6.732,3.014,6.732,6.732C505.996,190.845,502.982,193.858,499.263,193.858z M499.263,141.858
	c-3.719,0-6.729-3.014-6.729-6.732s3.014-6.732,6.729-6.732c3.716,0,6.732,3.014,6.732,6.732
	C505.996,138.845,502.982,141.858,499.263,141.858z M499.263,89.858c-3.719,0-6.729-3.014-6.729-6.732s3.014-6.732,6.729-6.732
	c3.716,0,6.732,3.014,6.732,6.732S502.982,89.858,499.263,89.858z M555.833,453.86c-3.718,0-6.733-3.019-6.733-6.732
	c0-3.719,3.018-6.729,6.733-6.729c3.717,0,6.729,3.014,6.729,6.729S559.552,453.86,555.833,453.86z M555.833,401.859
	c-3.718,0-6.733-3.018-6.733-6.731c0-3.719,3.018-6.729,6.733-6.729c3.717,0,6.729,3.015,6.729,6.729
	S559.552,401.859,555.833,401.859z M555.833,349.858c-3.718,0-6.733-3.015-6.733-6.732s3.018-6.732,6.733-6.732
	c3.717,0,6.729,3.015,6.729,6.732S559.552,349.858,555.833,349.858z M555.833,297.858c-3.718,0-6.733-3.014-6.733-6.732
	s3.018-6.732,6.733-6.732c3.717,0,6.729,3.014,6.729,6.732C562.566,294.845,559.552,297.858,555.833,297.858z M555.833,245.858
	c-3.718,0-6.733-3.014-6.733-6.732s3.018-6.732,6.733-6.732c3.717,0,6.729,3.014,6.729,6.732
	C562.566,242.845,559.552,245.858,555.833,245.858z M555.833,193.858c-3.718,0-6.733-3.014-6.733-6.732s3.018-6.732,6.733-6.732
	c3.717,0,6.729,3.014,6.729,6.732C562.566,190.845,559.552,193.858,555.833,193.858z M555.833,141.858
	c-3.718,0-6.733-3.014-6.733-6.732s3.018-6.732,6.733-6.732c3.717,0,6.729,3.014,6.729,6.732
	C562.566,138.845,559.552,141.858,555.833,141.858z M555.833,89.858c-3.718,0-6.733-3.014-6.733-6.732s3.018-6.732,6.733-6.732
	c3.717,0,6.729,3.014,6.729,6.732C562.566,86.844,559.552,89.858,555.833,89.858z M555.833,37.858c-3.718,0-6.733-3.014-6.733-6.732
	s3.018-6.732,6.733-6.732c3.717,0,6.729,3.014,6.729,6.732C562.566,34.844,559.552,37.858,555.833,37.858z M612.404,401.859
	c-3.721,0-6.732-3.018-6.732-6.731c0-3.719,3.014-6.729,6.732-6.729s6.73,3.015,6.73,6.729
	C619.136,398.842,616.123,401.859,612.404,401.859z M612.404,349.858c-3.721,0-6.732-3.015-6.732-6.732s3.014-6.732,6.732-6.732
	s6.73,3.015,6.73,6.732S616.123,349.858,612.404,349.858z M612.404,297.858c-3.721,0-6.732-3.014-6.732-6.732
	s3.014-6.732,6.732-6.732s6.73,3.014,6.73,6.732C619.134,294.845,616.123,297.858,612.404,297.858z M612.404,245.858
	c-3.721,0-6.732-3.014-6.732-6.732s3.014-6.732,6.732-6.732s6.73,3.014,6.73,6.732C619.134,242.845,616.123,245.858,612.404,245.858
	z M612.404,193.858c-3.721,0-6.732-3.014-6.732-6.732s3.014-6.732,6.732-6.732s6.73,3.014,6.73,6.732
	C619.134,190.845,616.123,193.858,612.404,193.858z M612.404,141.858c-3.721,0-6.732-3.014-6.732-6.732s3.014-6.732,6.732-6.732
	s6.73,3.014,6.73,6.732C619.134,138.845,616.123,141.858,612.404,141.858z M612.404,89.858c-3.721,0-6.732-3.014-6.732-6.732
	s3.014-6.732,6.732-6.732s6.73,3.014,6.73,6.732S616.123,89.858,612.404,89.858z M612.404,37.858c-3.721,0-6.732-3.014-6.732-6.732
	s3.014-6.732,6.732-6.732s6.73,3.014,6.73,6.732S616.123,37.858,612.404,37.858z M668.974,401.859c-3.719,0-6.73-3.018-6.73-6.731
	c0-3.719,3.014-6.729,6.73-6.729c3.719,0,6.732,3.015,6.732,6.729S672.693,401.859,668.974,401.859z M668.974,349.858
	c-3.719,0-6.73-3.015-6.73-6.732s3.014-6.732,6.73-6.732c3.719,0,6.732,3.015,6.732,6.732S672.693,349.858,668.974,349.858z
	 M668.974,297.858c-3.719,0-6.73-3.014-6.73-6.732s3.014-6.732,6.73-6.732c3.719,0,6.732,3.014,6.732,6.732
	C675.707,294.845,672.693,297.858,668.974,297.858z M668.974,245.858c-3.719,0-6.73-3.014-6.73-6.732s3.014-6.732,6.73-6.732
	c3.719,0,6.732,3.014,6.732,6.732C675.707,242.845,672.693,245.858,668.974,245.858z M668.974,193.858
	c-3.719,0-6.73-3.014-6.73-6.732s3.014-6.732,6.73-6.732c3.719,0,6.732,3.014,6.732,6.732
	C675.707,190.845,672.693,193.858,668.974,193.858z M668.974,141.858c-3.719,0-6.73-3.014-6.73-6.732s3.014-6.732,6.73-6.732
	c3.719,0,6.732,3.014,6.732,6.732C675.707,138.845,672.693,141.858,668.974,141.858z M668.974,89.858
	c-3.719,0-6.73-3.014-6.73-6.732s3.014-6.732,6.73-6.732c3.719,0,6.732,3.014,6.732,6.732S672.693,89.858,668.974,89.858z
	 M725.544,401.859c-3.719,0-6.732-3.018-6.732-6.731c0-3.719,3.016-6.729,6.732-6.729c3.715,0,6.732,3.015,6.732,6.729
	S729.263,401.859,725.544,401.859z M725.544,349.858c-3.719,0-6.732-3.015-6.732-6.732s3.016-6.732,6.732-6.732
	c3.715,0,6.732,3.015,6.732,6.732S729.263,349.858,725.544,349.858z M725.544,297.858c-3.719,0-6.732-3.014-6.732-6.732
	s3.016-6.732,6.732-6.732c3.715,0,6.732,3.014,6.732,6.732C732.277,294.845,729.263,297.858,725.544,297.858z M725.544,245.858
	c-3.719,0-6.732-3.014-6.732-6.732s3.016-6.732,6.732-6.732c3.715,0,6.732,3.014,6.732,6.732
	C732.277,242.845,729.263,245.858,725.544,245.858z M725.544,193.858c-3.719,0-6.732-3.014-6.732-6.732s3.016-6.732,6.732-6.732
	c3.715,0,6.732,3.014,6.732,6.732C732.277,190.845,729.263,193.858,725.544,193.858z M725.544,141.858
	c-3.719,0-6.732-3.014-6.732-6.732s3.016-6.732,6.732-6.732c3.715,0,6.732,3.014,6.732,6.732
	C732.277,138.845,729.263,141.858,725.544,141.858z M725.544,89.858c-3.719,0-6.732-3.014-6.732-6.732s3.016-6.732,6.732-6.732
	c3.715,0,6.732,3.014,6.732,6.732S729.263,89.858,725.544,89.858z M782.115,401.859c-3.721,0-6.732-3.018-6.732-6.731
	c0-3.719,3.014-6.729,6.732-6.729s6.73,3.015,6.73,6.729C788.847,398.842,785.833,401.859,782.115,401.859z M782.115,349.858
	c-3.721,0-6.732-3.015-6.732-6.732s3.014-6.732,6.732-6.732s6.73,3.015,6.73,6.732S785.833,349.858,782.115,349.858z
	 M782.115,297.858c-3.721,0-6.732-3.014-6.732-6.732s3.014-6.732,6.732-6.732s6.73,3.014,6.73,6.732
	C788.845,294.845,785.833,297.858,782.115,297.858z M782.115,245.858c-3.721,0-6.732-3.014-6.732-6.732s3.014-6.732,6.732-6.732
	s6.73,3.014,6.73,6.732C788.845,242.845,785.833,245.858,782.115,245.858z M782.115,193.858c-3.721,0-6.732-3.014-6.732-6.732
	s3.014-6.732,6.732-6.732s6.73,3.014,6.73,6.732C788.845,190.845,785.833,193.858,782.115,193.858z M782.115,141.858
	c-3.721,0-6.732-3.014-6.732-6.732s3.014-6.732,6.732-6.732s6.73,3.014,6.73,6.732C788.845,138.845,785.833,141.858,782.115,141.858
	z M782.115,89.858c-3.721,0-6.732-3.014-6.732-6.732s3.014-6.732,6.732-6.732s6.73,3.014,6.73,6.732S785.833,89.858,782.115,89.858z
	 M838.685,401.859c-3.719,0-6.73-3.018-6.73-6.731c0-3.719,3.014-6.729,6.73-6.729c3.721,0,6.732,3.015,6.732,6.729
	S842.404,401.859,838.685,401.859z M838.685,349.858c-3.719,0-6.73-3.015-6.73-6.732s3.014-6.732,6.73-6.732
	c3.721,0,6.732,3.015,6.732,6.732S842.404,349.858,838.685,349.858z M838.685,297.858c-3.719,0-6.73-3.014-6.73-6.732
	s3.014-6.732,6.73-6.732c3.721,0,6.732,3.014,6.732,6.732C845.417,294.845,842.404,297.858,838.685,297.858z M838.685,245.858
	c-3.719,0-6.73-3.014-6.73-6.732s3.014-6.732,6.73-6.732c3.721,0,6.732,3.014,6.732,6.732
	C845.417,242.845,842.404,245.858,838.685,245.858z M838.685,193.858c-3.719,0-6.73-3.014-6.73-6.732s3.014-6.732,6.73-6.732
	c3.721,0,6.732,3.014,6.732,6.732C845.417,190.845,842.404,193.858,838.685,193.858z M838.685,141.858
	c-3.719,0-6.73-3.014-6.73-6.732s3.014-6.732,6.73-6.732c3.721,0,6.732,3.014,6.732,6.732
	C845.417,138.845,842.404,141.858,838.685,141.858z M838.685,89.858c-3.719,0-6.73-3.014-6.73-6.732s3.014-6.732,6.73-6.732
	c3.721,0,6.732,3.014,6.732,6.732S842.404,89.858,838.685,89.858z M895.255,401.859c-3.719,0-6.732-3.018-6.732-6.731
	c0-3.719,3.016-6.729,6.732-6.729c3.715,0,6.732,3.015,6.732,6.729S898.974,401.859,895.255,401.859z M895.255,349.858
	c-3.719,0-6.732-3.015-6.732-6.732s3.016-6.732,6.732-6.732c3.715,0,6.732,3.015,6.732,6.732S898.974,349.858,895.255,349.858z
	 M895.255,297.858c-3.719,0-6.732-3.014-6.732-6.732s3.016-6.732,6.732-6.732c3.715,0,6.732,3.014,6.732,6.732
	C901.988,294.845,898.974,297.858,895.255,297.858z M895.255,245.858c-3.719,0-6.732-3.014-6.732-6.732s3.016-6.732,6.732-6.732
	c3.715,0,6.732,3.014,6.732,6.732C901.988,242.845,898.974,245.858,895.255,245.858z M895.255,193.858
	c-3.719,0-6.732-3.014-6.732-6.732s3.016-6.732,6.732-6.732c3.715,0,6.732,3.014,6.732,6.732
	C901.988,190.845,898.974,193.858,895.255,193.858z M895.255,141.858c-3.719,0-6.732-3.014-6.732-6.732s3.016-6.732,6.732-6.732
	c3.715,0,6.732,3.014,6.732,6.732C901.988,138.845,898.974,141.858,895.255,141.858z M951.826,401.859
	c-3.721,0-6.732-3.018-6.732-6.731c0-3.719,3.018-6.729,6.732-6.729c3.719,0,6.73,3.015,6.73,6.729
	C958.558,398.842,955.544,401.859,951.826,401.859z M951.826,349.858c-3.721,0-6.732-3.015-6.732-6.732s3.018-6.732,6.732-6.732
	c3.719,0,6.73,3.015,6.73,6.732S955.544,349.858,951.826,349.858z M951.826,297.858c-3.721,0-6.732-3.014-6.732-6.732
	s3.018-6.732,6.732-6.732c3.719,0,6.73,3.014,6.73,6.732C958.556,294.845,955.544,297.858,951.826,297.858z M951.826,245.858
	c-3.721,0-6.732-3.014-6.732-6.732s3.018-6.732,6.732-6.732c3.719,0,6.73,3.014,6.73,6.732
	C958.556,242.845,955.544,245.858,951.826,245.858z M951.826,193.858c-3.721,0-6.732-3.014-6.732-6.732s3.018-6.732,6.732-6.732
	c3.719,0,6.73,3.014,6.73,6.732C958.556,190.845,955.544,193.858,951.826,193.858z M951.826,141.858
	c-3.721,0-6.732-3.014-6.732-6.732s3.018-6.732,6.732-6.732c3.719,0,6.73,3.014,6.73,6.732
	C958.556,138.845,955.544,141.858,951.826,141.858z M1008.396,401.859c-3.719,0-6.73-3.018-6.73-6.731
	c0-3.719,3.014-6.729,6.73-6.729c3.721,0,6.732,3.015,6.732,6.729S1012.115,401.859,1008.396,401.859z M1008.396,349.858
	c-3.719,0-6.73-3.015-6.73-6.732s3.014-6.732,6.73-6.732c3.721,0,6.732,3.015,6.732,6.732S1012.115,349.858,1008.396,349.858z
	 M1008.396,297.858c-3.719,0-6.73-3.014-6.73-6.732s3.014-6.732,6.73-6.732c3.721,0,6.732,3.014,6.732,6.732
	C1015.128,294.845,1012.115,297.858,1008.396,297.858z M1008.396,245.858c-3.719,0-6.73-3.014-6.73-6.732s3.014-6.732,6.73-6.732
	c3.721,0,6.732,3.014,6.732,6.732C1015.128,242.845,1012.115,245.858,1008.396,245.858z M1008.396,193.858
	c-3.719,0-6.73-3.014-6.73-6.732s3.014-6.732,6.73-6.732c3.721,0,6.732,3.014,6.732,6.732
	C1015.128,190.845,1012.115,193.858,1008.396,193.858z M1008.396,141.858c-3.719,0-6.73-3.014-6.73-6.732s3.014-6.732,6.73-6.732
	c3.721,0,6.732,3.014,6.732,6.732C1015.128,138.845,1012.115,141.858,1008.396,141.858z M1064.966,349.858
	c-3.719,0-6.732-3.015-6.732-6.732s3.016-6.732,6.732-6.732c3.715,0,6.732,3.015,6.732,6.732S1068.685,349.858,1064.966,349.858z
	 M1064.966,297.858c-3.719,0-6.732-3.014-6.732-6.732s3.016-6.732,6.732-6.732c3.715,0,6.732,3.014,6.732,6.732
	C1071.699,294.845,1068.685,297.858,1064.966,297.858z M1064.966,245.858c-3.719,0-6.732-3.014-6.732-6.732s3.016-6.732,6.732-6.732
	c3.715,0,6.732,3.014,6.732,6.732C1071.699,242.845,1068.685,245.858,1064.966,245.858z M1064.966,193.858
	c-3.719,0-6.732-3.014-6.732-6.732s3.016-6.732,6.732-6.732c3.715,0,6.732,3.014,6.732,6.732
	C1071.699,190.845,1068.685,193.858,1064.966,193.858z"/>
</svg>
