<?xml version="1.0" encoding="utf-8"?>
<!-- Generator: Adobe Illustrator 16.0.0, SVG Export Plug-In . SVG Version: 6.00 Build 0)  -->
<!DOCTYPE svg PUBLIC "-//W3C//DTD SVG 1.1//EN" "http://www.w3.org/Graphics/SVG/1.1/DTD/svg11.dtd">
<svg version="1.1" id="Layer_1" xmlns="http://www.w3.org/2000/svg" xmlns:xlink="http://www.w3.org/1999/xlink" x="0px" y="0px"
	 width="1106.219px" height="742.348px" viewBox="0 0 1106.219 742.348" enable-background="new 0 0 1106.219 742.348"
	 xml:space="preserve">
<path fill="none" stroke="#000000" stroke-linejoin="round" stroke-miterlimit="10" d="M159.841,661.86
	c-3.719,0-6.731-3.02-6.731-6.732c0-3.719,3.014-6.729,6.731-6.729c3.719,0,6.732,3.014,6.732,6.729
	C166.574,658.842,163.561,661.86,159.841,661.86z M159.841,609.86c-3.719,0-6.731-3.02-6.731-6.732c0-3.719,3.014-6.729,6.731-6.729
	c3.719,0,6.732,3.014,6.732,6.729C166.574,606.842,163.561,609.86,159.841,609.86z M216.413,700.4c3.717,0,6.73,3.013,6.73,6.729
	s-3.014,6.73-6.73,6.73s-6.729-3.014-6.729-6.73S212.696,700.4,216.413,700.4z M216.413,648.4c3.717,0,6.73,3.013,6.73,6.729
	s-3.014,6.73-6.73,6.73s-6.729-3.014-6.729-6.73S212.696,648.4,216.413,648.4z M216.413,596.4c3.717,0,6.73,3.013,6.73,6.729
	s-3.014,6.73-6.73,6.73s-6.729-3.014-6.729-6.73S212.696,596.4,216.413,596.4z M216.413,544.4c3.717,0,6.73,3.013,6.73,6.729
	s-3.014,6.73-6.73,6.73s-6.729-3.014-6.729-6.73S212.696,544.4,216.413,544.4z M216.413,492.4c3.717,0,6.73,3.013,6.73,6.729
	s-3.014,6.73-6.73,6.73s-6.729-3.014-6.729-6.73S212.696,492.4,216.413,492.4z M272.982,700.4c3.717,0,6.729,3.013,6.729,6.729
	s-3.013,6.73-6.729,6.73s-6.73-3.014-6.73-6.73S269.265,700.4,272.982,700.4z M272.982,648.4c3.717,0,6.729,3.013,6.729,6.729
	s-3.013,6.73-6.729,6.73s-6.73-3.014-6.73-6.73S269.265,648.4,272.982,648.4z M272.982,596.4c3.717,0,6.729,3.013,6.729,6.729
	s-3.013,6.73-6.729,6.73s-6.73-3.014-6.73-6.73S269.265,596.4,272.982,596.4z M272.982,544.4c3.717,0,6.729,3.013,6.729,6.729
	s-3.013,6.73-6.729,6.73s-6.73-3.014-6.73-6.73S269.265,544.4,272.982,544.4z M272.982,492.4c3.717,0,6.729,3.013,6.729,6.729
	s-3.013,6.73-6.729,6.73s-6.73-3.014-6.73-6.73S269.265,492.4,272.982,492.4z M272.982,440.4c3.717,0,6.729,3.013,6.729,6.729
	s-3.013,6.73-6.729,6.73s-6.73-3.014-6.73-6.73S269.265,440.4,272.982,440.4z M272.982,388.398c3.717,0,6.73,3.014,6.73,6.73
	c0,3.718-3.014,6.73-6.73,6.73c-3.718,0-6.731-3.013-6.731-6.73C266.251,391.412,269.264,388.398,272.982,388.398z M329.552,661.86
	c-3.72,0-6.73-3.02-6.73-6.732c0-3.719,3.015-6.729,6.73-6.729s6.731,3.014,6.731,6.729
	C336.286,658.842,333.271,661.86,329.552,661.86z M329.552,609.86c-3.72,0-6.73-3.02-6.73-6.732c0-3.719,3.015-6.729,6.73-6.729
	s6.731,3.014,6.731,6.729C336.286,606.842,333.271,609.86,329.552,609.86z M329.552,557.86c-3.72,0-6.73-3.02-6.73-6.732
	c0-3.719,3.015-6.729,6.73-6.729s6.731,3.014,6.731,6.729C336.286,554.842,333.271,557.86,329.552,557.86z M329.552,505.86
	c-3.72,0-6.73-3.02-6.73-6.732c0-3.719,3.015-6.729,6.73-6.729s6.731,3.014,6.731,6.729
	C336.286,502.842,333.271,505.86,329.552,505.86z M329.552,453.86c-3.72,0-6.73-3.02-6.73-6.732c0-3.719,3.015-6.729,6.73-6.729
	s6.731,3.014,6.731,6.729C336.286,450.842,333.271,453.86,329.552,453.86z M329.552,401.859c-3.72,0-6.73-3.019-6.73-6.731
	c0-3.719,3.015-6.729,6.73-6.729s6.731,3.016,6.731,6.729C336.286,398.842,333.271,401.859,329.552,401.859z M329.552,336.394
	c3.718,0,6.731,3.014,6.731,6.732s-3.014,6.732-6.731,6.732s-6.732-3.014-6.732-6.732S325.835,336.394,329.552,336.394z
	 M329.552,284.394c3.718,0,6.731,3.014,6.731,6.732s-3.014,6.732-6.731,6.732s-6.732-3.014-6.732-6.732
	S325.835,284.394,329.552,284.394z M386.124,596.4c3.718,0,6.73,3.013,6.73,6.729s-3.013,6.73-6.73,6.73
	c-3.717,0-6.729-3.014-6.729-6.73S382.407,596.4,386.124,596.4z M386.124,544.4c3.718,0,6.73,3.013,6.73,6.729
	s-3.013,6.73-6.73,6.73c-3.717,0-6.729-3.014-6.729-6.73S382.407,544.4,386.124,544.4z M386.124,492.4
	c3.718,0,6.73,3.013,6.73,6.729s-3.013,6.73-6.73,6.73c-3.717,0-6.729-3.014-6.729-6.73S382.407,492.4,386.124,492.4z
	 M386.124,440.4c3.718,0,6.73,3.013,6.73,6.729s-3.013,6.73-6.73,6.73c-3.717,0-6.729-3.014-6.729-6.73S382.407,440.4,386.124,440.4
	z M386.124,388.398c3.718,0,6.731,3.014,6.731,6.73c0,3.718-3.014,6.73-6.731,6.73c-3.717,0-6.73-3.013-6.73-6.73
	C379.393,391.412,382.407,388.398,386.124,388.398z M386.124,336.394c3.719,0,6.732,3.014,6.732,6.732s-3.014,6.732-6.732,6.732
	c-3.718,0-6.731-3.014-6.731-6.732S382.406,336.394,386.124,336.394z M386.124,284.394c3.719,0,6.732,3.014,6.732,6.732
	s-3.014,6.732-6.732,6.732c-3.718,0-6.731-3.014-6.731-6.732S382.406,284.394,386.124,284.394z M386.124,232.394
	c3.719,0,6.732,3.014,6.732,6.732s-3.014,6.732-6.732,6.732c-3.718,0-6.731-3.014-6.731-6.732S382.406,232.394,386.124,232.394z
	 M442.694,557.86c-3.722,0-6.731-3.02-6.731-6.732c0-3.719,3.014-6.729,6.731-6.729s6.729,3.014,6.729,6.729
	S446.413,557.86,442.694,557.86z M442.694,505.86c-3.722,0-6.731-3.02-6.731-6.732c0-3.719,3.014-6.729,6.731-6.729
	s6.729,3.014,6.729,6.729S446.413,505.86,442.694,505.86z M442.694,453.86c-3.722,0-6.731-3.02-6.731-6.732
	c0-3.719,3.014-6.729,6.731-6.729s6.729,3.014,6.729,6.729S446.413,453.86,442.694,453.86z M442.694,401.859
	c-3.722,0-6.731-3.019-6.731-6.731c0-3.719,3.014-6.729,6.731-6.729s6.729,3.016,6.729,6.729S446.413,401.859,442.694,401.859z
	 M442.694,349.858c-3.722,0-6.731-3.015-6.731-6.732s3.014-6.732,6.731-6.732s6.729,3.015,6.729,6.732
	S446.413,349.858,442.694,349.858z M442.694,297.858c-3.722,0-6.731-3.014-6.731-6.732s3.014-6.732,6.731-6.732
	s6.729,3.014,6.729,6.732C449.426,294.845,446.413,297.858,442.694,297.858z M442.694,245.858c-3.722,0-6.731-3.014-6.731-6.732
	s3.014-6.732,6.731-6.732s6.729,3.014,6.729,6.732C449.426,242.845,446.413,245.858,442.694,245.858z M442.694,193.858
	c-3.722,0-6.731-3.014-6.731-6.732s3.014-6.732,6.731-6.732s6.729,3.014,6.729,6.732
	C449.426,190.845,446.413,193.858,442.694,193.858z M442.694,141.858c-3.722,0-6.731-3.014-6.731-6.732s3.014-6.732,6.731-6.732
	s6.729,3.014,6.729,6.732C449.426,138.845,446.413,141.858,442.694,141.858z M499.263,505.86c-3.719,0-6.729-3.02-6.729-6.732
	c0-3.719,3.015-6.729,6.729-6.729s6.731,3.014,6.731,6.729C505.997,502.842,502.982,505.86,499.263,505.86z M499.263,453.86
	c-3.719,0-6.729-3.02-6.729-6.732c0-3.719,3.015-6.729,6.729-6.729s6.731,3.014,6.731,6.729
	C505.997,450.842,502.982,453.86,499.263,453.86z M499.263,401.859c-3.719,0-6.729-3.019-6.729-6.731
	c0-3.719,3.015-6.729,6.729-6.729s6.731,3.016,6.731,6.729C505.997,398.842,502.982,401.859,499.263,401.859z M499.263,336.394
	c3.718,0,6.731,3.014,6.731,6.732s-3.014,6.732-6.731,6.732s-6.732-3.014-6.732-6.732S495.546,336.394,499.263,336.394z
	 M499.263,284.394c3.718,0,6.731,3.014,6.731,6.732s-3.014,6.732-6.731,6.732s-6.732-3.014-6.732-6.732
	S495.546,284.394,499.263,284.394z M499.263,232.394c3.718,0,6.731,3.014,6.731,6.732s-3.014,6.732-6.731,6.732
	s-6.732-3.014-6.732-6.732S495.546,232.394,499.263,232.394z M499.263,180.394c3.718,0,6.731,3.014,6.731,6.732
	s-3.014,6.732-6.731,6.732s-6.732-3.014-6.732-6.732S495.546,180.394,499.263,180.394z M499.263,128.394
	c3.718,0,6.731,3.014,6.731,6.732s-3.014,6.732-6.731,6.732s-6.732-3.014-6.732-6.732S495.546,128.394,499.263,128.394z
	 M499.263,76.394c3.718,0,6.731,3.014,6.731,6.732s-3.014,6.732-6.731,6.732s-6.732-3.014-6.732-6.732
	S495.546,76.394,499.263,76.394z M555.833,453.86c-3.718,0-6.732-3.02-6.732-6.732c0-3.719,3.018-6.729,6.732-6.729
	c3.718,0,6.729,3.014,6.729,6.729S559.552,453.86,555.833,453.86z M555.833,401.859c-3.718,0-6.732-3.019-6.732-6.731
	c0-3.719,3.018-6.729,6.732-6.729c3.718,0,6.729,3.016,6.729,6.729S559.552,401.859,555.833,401.859z M555.833,336.394
	c3.719,0,6.732,3.014,6.732,6.732s-3.014,6.732-6.732,6.732c-3.718,0-6.731-3.014-6.731-6.732S552.115,336.394,555.833,336.394z
	 M555.833,297.858c-3.718,0-6.732-3.014-6.732-6.732s3.018-6.732,6.732-6.732c3.718,0,6.729,3.014,6.729,6.732
	C562.566,294.845,559.552,297.858,555.833,297.858z M555.833,245.858c-3.718,0-6.732-3.014-6.732-6.732s3.018-6.732,6.732-6.732
	c3.718,0,6.729,3.014,6.729,6.732C562.566,242.845,559.552,245.858,555.833,245.858z M555.833,193.858
	c-3.718,0-6.732-3.014-6.732-6.732s3.018-6.732,6.732-6.732c3.718,0,6.729,3.014,6.729,6.732
	C562.566,190.845,559.552,193.858,555.833,193.858z M555.833,141.858c-3.718,0-6.732-3.014-6.732-6.732s3.018-6.732,6.732-6.732
	c3.718,0,6.729,3.014,6.729,6.732C562.566,138.845,559.552,141.858,555.833,141.858z M555.833,89.858
	c-3.718,0-6.732-3.014-6.732-6.732s3.018-6.732,6.732-6.732c3.718,0,6.729,3.014,6.729,6.732
	C562.566,86.844,559.552,89.858,555.833,89.858z M555.833,37.858c-3.718,0-6.732-3.014-6.732-6.732s3.018-6.732,6.732-6.732
	c3.718,0,6.729,3.014,6.729,6.732C562.566,34.844,559.552,37.858,555.833,37.858z M612.404,401.859
	c-3.721,0-6.731-3.019-6.731-6.731c0-3.719,3.014-6.729,6.731-6.729s6.73,3.016,6.73,6.729
	C619.136,398.842,616.123,401.859,612.404,401.859z M612.404,336.394c3.718,0,6.732,3.014,6.732,6.732s-3.015,6.732-6.732,6.732
	s-6.731-3.014-6.731-6.732S608.686,336.394,612.404,336.394z M612.404,284.394c3.718,0,6.732,3.014,6.732,6.732
	s-3.015,6.732-6.732,6.732s-6.731-3.014-6.731-6.732S608.686,284.394,612.404,284.394z M612.404,232.394
	c3.718,0,6.732,3.014,6.732,6.732s-3.015,6.732-6.732,6.732s-6.731-3.014-6.731-6.732S608.686,232.394,612.404,232.394z
	 M612.404,180.394c3.718,0,6.732,3.014,6.732,6.732s-3.015,6.732-6.732,6.732s-6.731-3.014-6.731-6.732
	S608.686,180.394,612.404,180.394z M612.404,128.394c3.718,0,6.732,3.014,6.732,6.732s-3.015,6.732-6.732,6.732
	s-6.731-3.014-6.731-6.732S608.686,128.394,612.404,128.394z M612.404,76.394c3.718,0,6.732,3.014,6.732,6.732
	s-3.015,6.732-6.732,6.732s-6.731-3.014-6.731-6.732S608.686,76.394,612.404,76.394z M612.404,24.394
	c3.718,0,6.732,3.014,6.732,6.732s-3.015,6.732-6.732,6.732s-6.731-3.014-6.731-6.732S608.686,24.394,612.404,24.394z
	 M668.974,388.398c3.718,0,6.73,3.014,6.73,6.73c0,3.718-3.013,6.73-6.73,6.73s-6.731-3.013-6.731-6.73
	C662.243,391.412,665.257,388.398,668.974,388.398z M668.974,336.394c3.718,0,6.731,3.014,6.731,6.732s-3.014,6.732-6.731,6.732
	s-6.732-3.014-6.732-6.732S665.257,336.394,668.974,336.394z M668.974,284.394c3.718,0,6.731,3.014,6.731,6.732
	s-3.014,6.732-6.731,6.732s-6.732-3.014-6.732-6.732S665.257,284.394,668.974,284.394z M668.974,232.394
	c3.718,0,6.731,3.014,6.731,6.732s-3.014,6.732-6.731,6.732s-6.732-3.014-6.732-6.732S665.257,232.394,668.974,232.394z
	 M668.974,180.394c3.718,0,6.731,3.014,6.731,6.732s-3.014,6.732-6.731,6.732s-6.732-3.014-6.732-6.732
	S665.257,180.394,668.974,180.394z M668.974,128.394c3.718,0,6.731,3.014,6.731,6.732s-3.014,6.732-6.731,6.732
	s-6.732-3.014-6.732-6.732S665.257,128.394,668.974,128.394z M668.974,76.394c3.718,0,6.731,3.014,6.731,6.732
	s-3.014,6.732-6.731,6.732s-6.732-3.014-6.732-6.732S665.257,76.394,668.974,76.394z M725.545,401.859
	c-3.72,0-6.732-3.019-6.732-6.731c0-3.719,3.016-6.729,6.732-6.729c3.715,0,6.731,3.016,6.731,6.729
	S729.263,401.859,725.545,401.859z M725.545,349.858c-3.72,0-6.732-3.015-6.732-6.732s3.016-6.732,6.732-6.732
	c3.715,0,6.731,3.015,6.731,6.732S729.263,349.858,725.545,349.858z M725.545,297.858c-3.72,0-6.732-3.014-6.732-6.732
	s3.016-6.732,6.732-6.732c3.715,0,6.731,3.014,6.731,6.732C732.277,294.845,729.263,297.858,725.545,297.858z M725.545,245.858
	c-3.72,0-6.732-3.014-6.732-6.732s3.016-6.732,6.732-6.732c3.715,0,6.731,3.014,6.731,6.732
	C732.277,242.845,729.263,245.858,725.545,245.858z M725.545,193.858c-3.72,0-6.732-3.014-6.732-6.732s3.016-6.732,6.732-6.732
	c3.715,0,6.731,3.014,6.731,6.732C732.277,190.845,729.263,193.858,725.545,193.858z M725.545,141.858
	c-3.72,0-6.732-3.014-6.732-6.732s3.016-6.732,6.732-6.732c3.715,0,6.731,3.014,6.731,6.732
	C732.277,138.845,729.263,141.858,725.545,141.858z M725.545,89.858c-3.72,0-6.732-3.014-6.732-6.732s3.016-6.732,6.732-6.732
	c3.715,0,6.731,3.014,6.731,6.732S729.263,89.858,725.545,89.858z M782.115,401.859c-3.721,0-6.731-3.019-6.731-6.731
	c0-3.719,3.014-6.729,6.731-6.729s6.73,3.016,6.73,6.729C788.847,398.842,785.833,401.859,782.115,401.859z M782.115,336.394
	c3.718,0,6.732,3.014,6.732,6.732s-3.015,6.732-6.732,6.732s-6.731-3.014-6.731-6.732S778.397,336.394,782.115,336.394z
	 M782.115,284.394c3.718,0,6.732,3.014,6.732,6.732s-3.015,6.732-6.732,6.732s-6.731-3.014-6.731-6.732
	S778.397,284.394,782.115,284.394z M782.115,232.394c3.718,0,6.732,3.014,6.732,6.732s-3.015,6.732-6.732,6.732
	s-6.731-3.014-6.731-6.732S778.397,232.394,782.115,232.394z M782.115,180.394c3.718,0,6.732,3.014,6.732,6.732
	s-3.015,6.732-6.732,6.732s-6.731-3.014-6.731-6.732S778.397,180.394,782.115,180.394z M782.115,128.394
	c3.718,0,6.732,3.014,6.732,6.732s-3.015,6.732-6.732,6.732s-6.731-3.014-6.731-6.732S778.397,128.394,782.115,128.394z
	 M782.115,76.394c3.718,0,6.732,3.014,6.732,6.732s-3.015,6.732-6.732,6.732s-6.731-3.014-6.731-6.732
	S778.397,76.394,782.115,76.394z M838.685,401.859c-3.719,0-6.73-3.019-6.73-6.731c0-3.719,3.015-6.729,6.73-6.729
	c3.721,0,6.731,3.016,6.731,6.729S842.404,401.859,838.685,401.859z M838.685,349.858c-3.719,0-6.73-3.015-6.73-6.732
	s3.015-6.732,6.73-6.732c3.721,0,6.731,3.015,6.731,6.732S842.404,349.858,838.685,349.858z M838.685,297.858
	c-3.719,0-6.73-3.014-6.73-6.732s3.015-6.732,6.73-6.732c3.721,0,6.731,3.014,6.731,6.732
	C845.417,294.845,842.404,297.858,838.685,297.858z M838.685,245.858c-3.719,0-6.73-3.014-6.73-6.732s3.015-6.732,6.73-6.732
	c3.721,0,6.731,3.014,6.731,6.732C845.417,242.845,842.404,245.858,838.685,245.858z M838.685,193.858
	c-3.719,0-6.73-3.014-6.73-6.732s3.015-6.732,6.73-6.732c3.721,0,6.731,3.014,6.731,6.732
	C845.417,190.845,842.404,193.858,838.685,193.858z M838.685,141.858c-3.719,0-6.73-3.014-6.73-6.732s3.015-6.732,6.73-6.732
	c3.721,0,6.731,3.014,6.731,6.732C845.417,138.845,842.404,141.858,838.685,141.858z M838.685,89.858
	c-3.719,0-6.73-3.014-6.73-6.732s3.015-6.732,6.73-6.732c3.721,0,6.731,3.014,6.731,6.732S842.404,89.858,838.685,89.858z
	 M895.256,401.859c-3.72,0-6.732-3.019-6.732-6.731c0-3.719,3.016-6.729,6.732-6.729c3.715,0,6.731,3.016,6.731,6.729
	S898.974,401.859,895.256,401.859z M895.256,349.858c-3.72,0-6.732-3.015-6.732-6.732s3.016-6.732,6.732-6.732
	c3.715,0,6.731,3.015,6.731,6.732S898.974,349.858,895.256,349.858z M895.256,297.858c-3.72,0-6.732-3.014-6.732-6.732
	s3.016-6.732,6.732-6.732c3.715,0,6.731,3.014,6.731,6.732C901.988,294.845,898.974,297.858,895.256,297.858z M895.256,245.858
	c-3.72,0-6.732-3.014-6.732-6.732s3.016-6.732,6.732-6.732c3.715,0,6.731,3.014,6.731,6.732
	C901.988,242.845,898.974,245.858,895.256,245.858z M895.256,193.858c-3.72,0-6.732-3.014-6.732-6.732s3.016-6.732,6.732-6.732
	c3.715,0,6.731,3.014,6.731,6.732C901.988,190.845,898.974,193.858,895.256,193.858z M895.256,141.858
	c-3.72,0-6.732-3.014-6.732-6.732s3.016-6.732,6.732-6.732c3.715,0,6.731,3.014,6.731,6.732
	C901.988,138.845,898.974,141.858,895.256,141.858z M951.826,401.859c-3.721,0-6.731-3.019-6.731-6.731
	c0-3.719,3.018-6.729,6.731-6.729c3.72,0,6.73,3.016,6.73,6.729C958.558,398.842,955.545,401.859,951.826,401.859z M951.826,336.394
	c3.718,0,6.732,3.014,6.732,6.732s-3.015,6.732-6.732,6.732s-6.731-3.014-6.731-6.732S948.108,336.394,951.826,336.394z
	 M951.826,284.394c3.718,0,6.732,3.014,6.732,6.732s-3.015,6.732-6.732,6.732s-6.731-3.014-6.731-6.732
	S948.108,284.394,951.826,284.394z M951.826,232.394c3.718,0,6.732,3.014,6.732,6.732s-3.015,6.732-6.732,6.732
	s-6.731-3.014-6.731-6.732S948.108,232.394,951.826,232.394z M951.826,180.394c3.718,0,6.732,3.014,6.732,6.732
	s-3.015,6.732-6.732,6.732s-6.731-3.014-6.731-6.732S948.108,180.394,951.826,180.394z M951.826,128.394
	c3.718,0,6.732,3.014,6.732,6.732s-3.015,6.732-6.732,6.732s-6.731-3.014-6.731-6.732S948.108,128.394,951.826,128.394z
	 M1008.396,401.859c-3.719,0-6.729-3.019-6.729-6.731c0-3.719,3.014-6.729,6.729-6.729c3.721,0,6.732,3.016,6.732,6.729
	S1012.115,401.859,1008.396,401.859z M1008.396,349.858c-3.719,0-6.729-3.015-6.729-6.732s3.014-6.732,6.729-6.732
	c3.721,0,6.732,3.015,6.732,6.732S1012.115,349.858,1008.396,349.858z M1008.396,297.858c-3.719,0-6.729-3.014-6.729-6.732
	s3.014-6.732,6.729-6.732c3.721,0,6.732,3.014,6.732,6.732C1015.129,294.845,1012.115,297.858,1008.396,297.858z M1008.396,245.858
	c-3.719,0-6.729-3.014-6.729-6.732s3.014-6.732,6.729-6.732c3.721,0,6.732,3.014,6.732,6.732
	C1015.129,242.845,1012.115,245.858,1008.396,245.858z M1008.396,193.858c-3.719,0-6.729-3.014-6.729-6.732s3.014-6.732,6.729-6.732
	c3.721,0,6.732,3.014,6.732,6.732C1015.129,190.845,1012.115,193.858,1008.396,193.858z M1008.396,141.858
	c-3.719,0-6.729-3.014-6.729-6.732s3.014-6.732,6.729-6.732c3.721,0,6.732,3.014,6.732,6.732
	C1015.129,138.845,1012.115,141.858,1008.396,141.858z M1064.967,349.858c-3.72,0-6.732-3.015-6.732-6.732s3.016-6.732,6.732-6.732
	c3.715,0,6.731,3.015,6.731,6.732S1068.685,349.858,1064.967,349.858z M1064.967,297.858c-3.72,0-6.732-3.014-6.732-6.732
	s3.016-6.732,6.732-6.732c3.715,0,6.731,3.014,6.731,6.732C1071.699,294.845,1068.685,297.858,1064.967,297.858z M1064.967,245.858
	c-3.72,0-6.732-3.014-6.732-6.732s3.016-6.732,6.732-6.732c3.715,0,6.731,3.014,6.731,6.732
	C1071.699,242.845,1068.685,245.858,1064.967,245.858z M1064.967,193.858c-3.72,0-6.732-3.014-6.732-6.732s3.016-6.732,6.732-6.732
	c3.715,0,6.731,3.014,6.731,6.732C1071.699,190.845,1068.685,193.858,1064.967,193.858z M62.104,697.656
	c1.515-3.016,3.889-5.545,7.166-6.596c3.77-1.207,7.403,0.074,11.191,0.299h0.001c60.367,15.844,195.043,50.335,197.697,50.987
	c10.327-12.489,25.36-28.032,45.036-46.939c42.375-40.434,68.583-65.547,78.581-75.443c22.501-22.172,47.004-44.02,73.27-65.768
	c46.486-38.271,81.365-64.543,104.641-79.117c41.25-25.83,89.314-36.854,137.512-40.213c39.158-2.73,68.205-3.654,87.261-2.664
	c43.567,2.266,87.209,3.278,130.727,6.516c52.285,3.887,84.941,5.883,98.127,5.953c16.682,0.121,27.621,0.48,32.566,1.225
	c1.785-7.127,6.219-24.568,13.405-52.161c4.767-18.401,8.974-35.837,12.431-52.434c9.1-42.891,13.91-74.932,14.457-96.195
	c0.393-18.768-1.562-36.604-6.041-53.636c-7.017-26.653-16.838-56.071-43.789-67.682c-10.287-4.432-21.57-5.553-32.338-8.398
	C875.326,76.101,600.228-4.324,577.281,0.182c-6.385,1.253-93.313,43.622-113.746,66.203
	c-102.71,113.505-154.28,231.718-222.604,351.717c-28.584,50.203-56.92,100.605-89.479,148.355
	c-28.123,41.244-53.818,75.456-76.837,102.777c-1.627,1.062-3.256,2.12-4.884,3.181c-1.995,1.299-3.978,2.784-6.286,3.478
	c-2.474,0.742-4.789,0.185-7.264-0.25l-0.014-0.018c-5.687-7.604-14.762-12.525-24.986-12.525
	c-17.223,0-31.183,13.961-31.183,31.184c0,17.221,13.96,31.182,31.183,31.182c16.146,0,29.428-12.273,31.021-28L62.104,697.656z"/>
</svg>
