<?xml version="1.0" encoding="utf-8"?>
<!-- Generator: Adobe Illustrator 16.0.0, SVG Export Plug-In . SVG Version: 6.00 Build 0)  -->
<!DOCTYPE svg PUBLIC "-//W3C//DTD SVG 1.1//EN" "http://www.w3.org/Graphics/SVG/1.1/DTD/svg11.dtd">
<svg version="1.1" id="Layer_1" xmlns="http://www.w3.org/2000/svg" xmlns:xlink="http://www.w3.org/1999/xlink" x="0px" y="0px"
	 width="1038.689px" height="746.764px" viewBox="0 0 1038.689 746.764" enable-background="new 0 0 1038.689 746.764"
	 xml:space="preserve">
<path d="M949.828,572.778c-31.846-48.23-59.428-99.05-87.262-149.672C796.039,302.101,746.234,183.132,645.229,68.109
	C625.135,45.229,538.844,1.567,532.48,0.22C509.602-4.625,233.337,71.692,84.09,108.764c-10.808,2.685-22.104,3.638-32.458,7.916
	c-27.123,11.21-37.38,40.479-44.789,67.021c-4.732,16.963-6.948,34.768-6.839,53.54c0.229,21.269,4.563,53.378,13.021,96.399
	c3.209,16.645,7.156,34.14,11.646,52.609c6.774,27.695,10.948,45.209,12.625,52.359c4.956-0.67,15.904-0.865,32.582-0.738
	c13.188,0.125,45.868-1.383,98.206-4.49c43.562-2.588,87.209-2.951,130.811-4.565c19.066-0.701,48.096,0.647,87.211,3.969
	c48.139,4.074,96.032,15.811,136.896,42.254c23.055,14.922,57.537,41.711,103.448,80.668c25.938,22.135,50.113,44.348,72.281,66.852
	c9.849,10.045,35.68,35.554,77.445,76.605c19.395,19.193,34.19,34.965,44.332,47.604c3.02-0.69,176.161-42.305,218.18-52.957
	c-2.832-3.811-7.228-9.377-13.271-16.75C1002.738,649.333,977.453,614.622,949.828,572.778z M49.362,406.114
	c-3.719,0-6.732-3.016-6.732-6.732c0-3.716,3.017-6.729,6.732-6.729s6.732,3.016,6.732,6.729
	C56.094,403.101,53.081,406.114,49.362,406.114z M49.362,354.113c-3.719,0-6.732-3.015-6.732-6.732c0-3.717,3.017-6.731,6.732-6.731
	s6.732,3.014,6.732,6.731C56.094,351.099,53.081,354.113,49.362,354.113z M49.362,302.113c-3.719,0-6.732-3.014-6.732-6.732
	c0-3.718,3.017-6.732,6.732-6.732s6.732,3.014,6.732,6.732C56.094,299.1,53.081,302.113,49.362,302.113z M49.362,250.113
	c-3.719,0-6.732-3.014-6.732-6.732c0-3.718,3.017-6.731,6.732-6.731s6.732,3.014,6.732,6.731
	C56.094,247.101,53.081,250.113,49.362,250.113z M49.362,198.113c-3.719,0-6.732-3.014-6.732-6.732c0-3.718,3.017-6.731,6.732-6.731
	s6.732,3.014,6.732,6.731C56.094,195.101,53.081,198.113,49.362,198.113z M49.362,146.113c-3.719,0-6.732-3.014-6.732-6.732
	c0-3.718,3.017-6.731,6.732-6.731s6.732,3.014,6.732,6.731C56.094,143.101,53.081,146.113,49.362,146.113z M105.933,406.114
	c-3.722,0-6.732-3.016-6.732-6.732c0-3.716,3.014-6.729,6.732-6.729c3.718,0,6.729,3.016,6.729,6.729
	C112.665,403.101,109.651,406.114,105.933,406.114z M105.933,354.113c-3.722,0-6.732-3.015-6.732-6.732
	c0-3.717,3.014-6.731,6.732-6.731c3.718,0,6.729,3.014,6.729,6.731C112.665,351.099,109.651,354.113,105.933,354.113z
	 M105.933,302.113c-3.722,0-6.732-3.014-6.732-6.732c0-3.718,3.014-6.732,6.732-6.732c3.718,0,6.729,3.014,6.729,6.732
	C112.665,299.1,109.651,302.113,105.933,302.113z M105.933,250.113c-3.722,0-6.732-3.014-6.732-6.732
	c0-3.718,3.014-6.731,6.732-6.731c3.718,0,6.729,3.014,6.729,6.731C112.665,247.101,109.651,250.113,105.933,250.113z
	 M105.933,198.113c-3.722,0-6.732-3.014-6.732-6.732c0-3.718,3.014-6.731,6.732-6.731c3.718,0,6.729,3.014,6.729,6.731
	C112.665,195.101,109.651,198.113,105.933,198.113z M105.933,146.113c-3.722,0-6.732-3.014-6.732-6.732
	c0-3.718,3.014-6.731,6.732-6.731c3.718,0,6.729,3.014,6.729,6.731C112.665,143.101,109.651,146.113,105.933,146.113z
	 M162.503,406.114c-3.719,0-6.729-3.016-6.729-6.732c0-3.716,3.014-6.729,6.729-6.729c3.721,0,6.732,3.016,6.732,6.729
	C169.235,403.101,166.222,406.114,162.503,406.114z M162.503,354.113c-3.719,0-6.729-3.015-6.729-6.732
	c0-3.717,3.014-6.731,6.729-6.731c3.721,0,6.732,3.014,6.732,6.731C169.235,351.099,166.222,354.113,162.503,354.113z
	 M162.503,302.113c-3.719,0-6.729-3.014-6.729-6.732c0-3.718,3.014-6.732,6.729-6.732c3.721,0,6.732,3.014,6.732,6.732
	C169.235,299.1,166.222,302.113,162.503,302.113z M162.503,250.113c-3.719,0-6.729-3.014-6.729-6.732
	c0-3.718,3.014-6.731,6.729-6.731c3.721,0,6.732,3.014,6.732,6.731C169.235,247.101,166.222,250.113,162.503,250.113z
	 M162.503,198.113c-3.719,0-6.729-3.014-6.729-6.732c0-3.718,3.014-6.731,6.729-6.731c3.721,0,6.732,3.014,6.732,6.731
	C169.235,195.101,166.222,198.113,162.503,198.113z M162.503,146.113c-3.719,0-6.729-3.014-6.729-6.732
	c0-3.718,3.014-6.731,6.729-6.731c3.721,0,6.732,3.014,6.732,6.731C169.235,143.101,166.222,146.113,162.503,146.113z
	 M219.073,406.114c-3.719,0-6.732-3.016-6.732-6.732c0-3.716,3.017-6.729,6.732-6.729s6.732,3.016,6.732,6.729
	C225.805,403.101,222.792,406.114,219.073,406.114z M219.073,354.113c-3.719,0-6.732-3.015-6.732-6.732
	c0-3.717,3.017-6.731,6.732-6.731s6.732,3.014,6.732,6.731C225.805,351.099,222.792,354.113,219.073,354.113z M219.073,302.113
	c-3.719,0-6.732-3.014-6.732-6.732c0-3.718,3.017-6.732,6.732-6.732s6.732,3.014,6.732,6.732
	C225.805,299.1,222.792,302.113,219.073,302.113z M219.073,250.113c-3.719,0-6.732-3.014-6.732-6.732
	c0-3.718,3.017-6.731,6.732-6.731s6.732,3.014,6.732,6.731C225.805,247.101,222.792,250.113,219.073,250.113z M219.073,198.113
	c-3.719,0-6.732-3.014-6.732-6.732c0-3.718,3.017-6.731,6.732-6.731s6.732,3.014,6.732,6.731
	C225.805,195.101,222.792,198.113,219.073,198.113z M219.073,146.113c-3.719,0-6.732-3.014-6.732-6.732
	c0-3.718,3.017-6.731,6.732-6.731s6.732,3.014,6.732,6.731C225.805,143.101,222.792,146.113,219.073,146.113z M219.073,94.113
	c-3.719,0-6.732-3.014-6.732-6.732c0-3.718,3.017-6.731,6.732-6.731s6.732,3.014,6.732,6.731
	C225.805,91.101,222.792,94.113,219.073,94.113z M275.644,406.114c-3.722,0-6.732-3.016-6.732-6.732
	c0-3.716,3.017-6.729,6.732-6.729s6.729,3.016,6.729,6.729C282.376,403.101,279.362,406.114,275.644,406.114z M275.644,354.113
	c-3.722,0-6.732-3.015-6.732-6.732c0-3.717,3.017-6.731,6.732-6.731s6.729,3.014,6.729,6.731
	C282.376,351.099,279.362,354.113,275.644,354.113z M275.644,302.113c-3.722,0-6.732-3.014-6.732-6.732
	c0-3.718,3.017-6.732,6.732-6.732s6.729,3.014,6.729,6.732C282.376,299.1,279.362,302.113,275.644,302.113z M275.644,250.113
	c-3.722,0-6.732-3.014-6.732-6.732c0-3.718,3.017-6.731,6.732-6.731s6.729,3.014,6.729,6.731
	C282.376,247.101,279.362,250.113,275.644,250.113z M275.644,198.113c-3.722,0-6.732-3.014-6.732-6.732
	c0-3.718,3.017-6.731,6.732-6.731s6.729,3.014,6.729,6.731C282.376,195.101,279.362,198.113,275.644,198.113z M275.644,146.113
	c-3.722,0-6.732-3.014-6.732-6.732c0-3.718,3.017-6.731,6.732-6.731s6.729,3.014,6.729,6.731
	C282.376,143.101,279.362,146.113,275.644,146.113z M275.644,94.113c-3.722,0-6.732-3.014-6.732-6.732
	c0-3.718,3.017-6.731,6.732-6.731s6.729,3.014,6.729,6.731C282.376,91.101,279.362,94.113,275.644,94.113z M332.217,406.114
	c-3.722,0-6.731-3.016-6.731-6.732c0-3.716,3.014-6.729,6.731-6.729c3.717,0,6.729,3.016,6.729,6.729
	C338.946,403.101,335.933,406.114,332.217,406.114z M332.217,354.113c-3.722,0-6.731-3.015-6.731-6.732
	c0-3.717,3.014-6.731,6.731-6.731c3.717,0,6.729,3.014,6.729,6.731C338.946,351.099,335.933,354.113,332.217,354.113z
	 M332.217,302.113c-3.722,0-6.731-3.014-6.731-6.732c0-3.718,3.014-6.732,6.731-6.732c3.717,0,6.729,3.014,6.729,6.732
	C338.946,299.1,335.933,302.113,332.217,302.113z M332.217,250.113c-3.722,0-6.731-3.014-6.731-6.732
	c0-3.718,3.014-6.731,6.731-6.731c3.717,0,6.729,3.014,6.729,6.731C338.946,247.101,335.933,250.113,332.217,250.113z
	 M332.217,198.113c-3.722,0-6.731-3.014-6.731-6.732c0-3.718,3.014-6.731,6.731-6.731c3.717,0,6.729,3.014,6.729,6.731
	C338.946,195.101,335.933,198.113,332.217,198.113z M332.217,146.113c-3.722,0-6.731-3.014-6.731-6.732
	c0-3.718,3.014-6.731,6.731-6.731c3.717,0,6.729,3.014,6.729,6.731C338.946,143.101,335.933,146.113,332.217,146.113z
	 M332.217,94.113c-3.722,0-6.731-3.014-6.731-6.732c0-3.718,3.014-6.731,6.731-6.731c3.717,0,6.729,3.014,6.729,6.731
	C338.946,91.101,335.933,94.113,332.217,94.113z M388.784,406.114c-3.719,0-6.729-3.016-6.729-6.732
	c0-3.716,3.015-6.729,6.729-6.729s6.731,3.016,6.731,6.729C395.516,403.101,392.506,406.114,388.784,406.114z M388.784,354.113
	c-3.719,0-6.729-3.015-6.729-6.732c0-3.717,3.015-6.731,6.729-6.731s6.731,3.014,6.731,6.731
	C395.516,351.099,392.506,354.113,388.784,354.113z M388.784,302.113c-3.719,0-6.729-3.014-6.729-6.732
	c0-3.718,3.015-6.732,6.729-6.732s6.731,3.014,6.731,6.732C395.516,299.1,392.506,302.113,388.784,302.113z M388.784,250.113
	c-3.719,0-6.729-3.014-6.729-6.732c0-3.718,3.015-6.731,6.729-6.731s6.731,3.014,6.731,6.731
	C395.516,247.101,392.506,250.113,388.784,250.113z M388.784,198.113c-3.719,0-6.729-3.014-6.729-6.732
	c0-3.718,3.015-6.731,6.729-6.731s6.731,3.014,6.731,6.731C395.516,195.101,392.506,198.113,388.784,198.113z M388.784,146.113
	c-3.719,0-6.729-3.014-6.729-6.732c0-3.718,3.015-6.731,6.729-6.731s6.731,3.014,6.731,6.731
	C395.516,143.101,392.506,146.113,388.784,146.113z M388.784,94.113c-3.719,0-6.729-3.014-6.729-6.732
	c0-3.718,3.015-6.731,6.729-6.731s6.731,3.014,6.731,6.731C395.516,91.101,392.506,94.113,388.784,94.113z M445.354,406.114
	c-3.719,0-6.73-3.016-6.73-6.732c0-3.716,3.017-6.729,6.73-6.729c3.72,0,6.732,3.016,6.732,6.729
	C452.089,403.101,449.073,406.114,445.354,406.114z M445.354,354.113c-3.719,0-6.73-3.015-6.73-6.732
	c0-3.717,3.017-6.731,6.73-6.731c3.72,0,6.732,3.014,6.732,6.731C452.089,351.099,449.073,354.113,445.354,354.113z
	 M445.354,302.113c-3.719,0-6.73-3.014-6.73-6.732c0-3.718,3.017-6.732,6.73-6.732c3.72,0,6.732,3.014,6.732,6.732
	C452.089,299.1,449.073,302.113,445.354,302.113z M445.354,250.113c-3.719,0-6.73-3.014-6.73-6.732c0-3.718,3.017-6.731,6.73-6.731
	c3.72,0,6.732,3.014,6.732,6.731C452.089,247.101,449.073,250.113,445.354,250.113z M445.354,198.113
	c-3.719,0-6.73-3.014-6.73-6.732c0-3.718,3.017-6.731,6.73-6.731c3.72,0,6.732,3.014,6.732,6.731
	C452.089,195.101,449.073,198.113,445.354,198.113z M445.354,146.113c-3.719,0-6.73-3.014-6.73-6.732
	c0-3.718,3.017-6.731,6.73-6.731c3.72,0,6.732,3.014,6.732,6.731C452.089,143.101,449.073,146.113,445.354,146.113z M445.354,94.113
	c-3.719,0-6.73-3.014-6.73-6.732c0-3.718,3.017-6.731,6.73-6.731c3.72,0,6.732,3.014,6.732,6.731
	C452.089,91.101,449.073,94.113,445.354,94.113z M445.354,42.113c-3.719,0-6.73-3.014-6.73-6.732c0-3.718,3.017-6.731,6.73-6.731
	c3.72,0,6.732,3.014,6.732,6.731C452.089,39.101,449.073,42.113,445.354,42.113z M501.927,406.114c-3.722,0-6.73-3.016-6.73-6.732
	c0-3.716,3.017-6.729,6.73-6.729s6.729,3.016,6.729,6.729C508.657,403.101,505.644,406.114,501.927,406.114z M501.927,354.113
	c-3.722,0-6.73-3.015-6.73-6.732c0-3.717,3.017-6.731,6.73-6.731s6.729,3.014,6.729,6.731
	C508.657,351.099,505.644,354.113,501.927,354.113z M501.927,302.113c-3.722,0-6.73-3.014-6.73-6.732
	c0-3.718,3.017-6.732,6.73-6.732s6.729,3.014,6.729,6.732C508.657,299.1,505.644,302.113,501.927,302.113z M501.927,250.113
	c-3.722,0-6.73-3.014-6.73-6.732c0-3.718,3.017-6.731,6.73-6.731s6.729,3.014,6.729,6.731
	C508.657,247.101,505.644,250.113,501.927,250.113z M501.927,198.113c-3.722,0-6.73-3.014-6.73-6.732
	c0-3.718,3.017-6.731,6.73-6.731s6.729,3.014,6.729,6.731C508.657,195.101,505.644,198.113,501.927,198.113z M501.927,146.113
	c-3.722,0-6.73-3.014-6.73-6.732c0-3.718,3.017-6.731,6.73-6.731s6.729,3.014,6.729,6.731
	C508.657,143.101,505.644,146.113,501.927,146.113z M501.927,94.113c-3.722,0-6.73-3.014-6.73-6.732c0-3.718,3.017-6.731,6.73-6.731
	s6.729,3.014,6.729,6.731C508.657,91.101,505.644,94.113,501.927,94.113z M501.927,42.113c-3.722,0-6.73-3.014-6.73-6.732
	c0-3.718,3.017-6.731,6.73-6.731s6.729,3.014,6.729,6.731C508.657,39.101,505.644,42.113,501.927,42.113z M558.496,458.114
	c-3.719,0-6.729-3.017-6.729-6.732s3.016-6.729,6.729-6.729c3.719,0,6.73,3.014,6.73,6.729
	C565.229,455.1,562.217,458.114,558.496,458.114z M558.496,406.114c-3.719,0-6.729-3.016-6.729-6.732
	c0-3.716,3.016-6.729,6.729-6.729c3.719,0,6.73,3.016,6.73,6.729C565.229,403.101,562.217,406.114,558.496,406.114z
	 M558.496,354.113c-3.719,0-6.729-3.015-6.729-6.732c0-3.717,3.016-6.731,6.729-6.731c3.719,0,6.73,3.014,6.73,6.731
	C565.227,351.099,562.217,354.113,558.496,354.113z M558.496,302.113c-3.719,0-6.729-3.014-6.729-6.732
	c0-3.718,3.016-6.732,6.729-6.732c3.719,0,6.73,3.014,6.73,6.732C565.229,299.1,562.217,302.113,558.496,302.113z M558.496,250.113
	c-3.719,0-6.729-3.014-6.729-6.732c0-3.718,3.016-6.731,6.729-6.731c3.719,0,6.73,3.014,6.73,6.731
	C565.229,247.101,562.217,250.113,558.496,250.113z M558.496,198.113c-3.719,0-6.729-3.014-6.729-6.732
	c0-3.718,3.016-6.731,6.729-6.731c3.719,0,6.73,3.014,6.73,6.731C565.229,195.101,562.217,198.113,558.496,198.113z
	 M558.496,146.113c-3.719,0-6.729-3.014-6.729-6.732c0-3.718,3.016-6.731,6.729-6.731c3.719,0,6.73,3.014,6.73,6.731
	C565.229,143.101,562.217,146.113,558.496,146.113z M558.496,94.113c-3.719,0-6.729-3.014-6.729-6.732
	c0-3.718,3.016-6.731,6.729-6.731c3.719,0,6.73,3.014,6.73,6.731C565.229,91.101,562.217,94.113,558.496,94.113z M558.496,42.113
	c-3.719,0-6.729-3.014-6.729-6.732c0-3.718,3.016-6.731,6.729-6.731c3.719,0,6.73,3.014,6.73,6.731
	C565.229,39.101,562.217,42.113,558.496,42.113z M615.066,510.114c-3.721,0-6.731-3.017-6.731-6.732s3.016-6.729,6.731-6.729
	s6.73,3.014,6.73,6.729C621.801,507.1,618.785,510.114,615.066,510.114z M615.066,458.114c-3.721,0-6.731-3.017-6.731-6.732
	s3.016-6.729,6.731-6.729s6.73,3.014,6.73,6.729C621.801,455.1,618.785,458.114,615.066,458.114z M615.066,406.114
	c-3.721,0-6.731-3.016-6.731-6.732c0-3.716,3.016-6.729,6.731-6.729s6.73,3.016,6.73,6.729
	C621.801,403.101,618.785,406.114,615.066,406.114z M615.066,354.113c-3.721,0-6.731-3.015-6.731-6.732
	c0-3.717,3.016-6.731,6.731-6.731s6.73,3.014,6.73,6.731C621.8,351.099,618.785,354.113,615.066,354.113z M615.066,302.113
	c-3.721,0-6.731-3.014-6.731-6.732c0-3.718,3.016-6.732,6.731-6.732s6.73,3.014,6.73,6.732
	C621.801,299.1,618.785,302.113,615.066,302.113z M615.066,250.113c-3.721,0-6.731-3.014-6.731-6.732
	c0-3.718,3.016-6.731,6.731-6.731s6.73,3.014,6.73,6.731C621.801,247.101,618.785,250.113,615.066,250.113z M615.066,198.113
	c-3.721,0-6.731-3.014-6.731-6.732c0-3.718,3.016-6.731,6.731-6.731s6.73,3.014,6.73,6.731
	C621.801,195.101,618.785,198.113,615.066,198.113z M615.066,146.113c-3.721,0-6.731-3.014-6.731-6.732
	c0-3.718,3.016-6.731,6.731-6.731s6.73,3.014,6.73,6.731C621.801,143.101,618.785,146.113,615.066,146.113z M615.066,94.113
	c-3.721,0-6.731-3.014-6.731-6.732c0-3.718,3.016-6.731,6.731-6.731s6.73,3.014,6.73,6.731
	C621.801,91.101,618.785,94.113,615.066,94.113z M671.636,562.114c-3.72,0-6.73-3.017-6.73-6.732s3.017-6.729,6.73-6.729
	c3.718,0,6.729,3.014,6.729,6.729C678.368,559.1,675.355,562.114,671.636,562.114z M671.636,510.114c-3.72,0-6.73-3.017-6.73-6.732
	s3.017-6.729,6.73-6.729c3.718,0,6.729,3.014,6.729,6.729C678.368,507.1,675.355,510.114,671.636,510.114z M671.636,458.114
	c-3.72,0-6.73-3.017-6.73-6.732s3.017-6.729,6.73-6.729c3.718,0,6.729,3.014,6.729,6.729
	C678.368,455.1,675.355,458.114,671.636,458.114z M671.636,406.114c-3.72,0-6.73-3.016-6.73-6.732c0-3.716,3.017-6.729,6.73-6.729
	c3.718,0,6.729,3.016,6.729,6.729C678.368,403.101,675.355,406.114,671.636,406.114z M671.636,354.113
	c-3.72,0-6.73-3.015-6.73-6.732c0-3.717,3.017-6.731,6.73-6.731c3.718,0,6.729,3.014,6.729,6.731
	C678.368,351.099,675.355,354.113,671.636,354.113z M671.636,302.113c-3.72,0-6.73-3.014-6.73-6.732c0-3.718,3.017-6.732,6.73-6.732
	c3.718,0,6.729,3.014,6.729,6.732C678.368,299.1,675.355,302.113,671.636,302.113z M671.636,250.113c-3.72,0-6.73-3.014-6.73-6.732
	c0-3.718,3.017-6.731,6.73-6.731c3.718,0,6.729,3.014,6.729,6.731C678.368,247.101,675.355,250.113,671.636,250.113z
	 M671.636,198.113c-3.72,0-6.73-3.014-6.73-6.732c0-3.718,3.017-6.731,6.73-6.731c3.718,0,6.729,3.014,6.729,6.731
	C678.368,195.101,675.355,198.113,671.636,198.113z M671.636,146.113c-3.72,0-6.73-3.014-6.73-6.732c0-3.718,3.017-6.731,6.73-6.731
	c3.718,0,6.729,3.014,6.729,6.731C678.368,143.101,675.355,146.113,671.636,146.113z M728.207,614.114
	c-3.719,0-6.729-3.017-6.729-6.732s3.016-6.729,6.729-6.729c3.719,0,6.732,3.014,6.732,6.729
	C734.939,611.1,731.927,614.114,728.207,614.114z M728.207,562.114c-3.719,0-6.729-3.017-6.729-6.732s3.016-6.729,6.729-6.729
	c3.719,0,6.732,3.014,6.732,6.729C734.939,559.1,731.927,562.114,728.207,562.114z M728.207,510.114
	c-3.719,0-6.729-3.017-6.729-6.732s3.016-6.729,6.729-6.729c3.719,0,6.732,3.014,6.732,6.729
	C734.939,507.1,731.927,510.114,728.207,510.114z M728.207,458.114c-3.719,0-6.729-3.017-6.729-6.732s3.016-6.729,6.729-6.729
	c3.719,0,6.732,3.014,6.732,6.729C734.939,455.1,731.927,458.114,728.207,458.114z M728.207,406.114
	c-3.719,0-6.729-3.016-6.729-6.732c0-3.716,3.016-6.729,6.729-6.729c3.719,0,6.732,3.016,6.732,6.729
	C734.939,403.101,731.927,406.114,728.207,406.114z M728.207,354.113c-3.719,0-6.729-3.015-6.729-6.732
	c0-3.717,3.016-6.731,6.729-6.731c3.719,0,6.732,3.014,6.732,6.731C734.939,351.099,731.927,354.113,728.207,354.113z
	 M728.207,302.113c-3.719,0-6.729-3.014-6.729-6.732c0-3.718,3.016-6.732,6.729-6.732c3.719,0,6.732,3.014,6.732,6.732
	C734.939,299.1,731.927,302.113,728.207,302.113z M728.207,250.113c-3.719,0-6.729-3.014-6.729-6.732
	c0-3.718,3.016-6.731,6.729-6.731c3.719,0,6.732,3.014,6.732,6.731C734.939,247.101,731.927,250.113,728.207,250.113z
	 M784.777,666.114c-3.721,0-6.729-3.017-6.729-6.732s3.014-6.729,6.729-6.729s6.73,3.014,6.73,6.729
	C791.51,663.1,788.496,666.114,784.777,666.114z M784.777,614.114c-3.721,0-6.729-3.017-6.729-6.732s3.014-6.729,6.729-6.729
	s6.73,3.014,6.73,6.729C791.51,611.1,788.496,614.114,784.777,614.114z M784.777,562.114c-3.721,0-6.729-3.017-6.729-6.732
	s3.014-6.729,6.729-6.729s6.73,3.014,6.73,6.729C791.51,559.1,788.496,562.114,784.777,562.114z M784.777,510.114
	c-3.721,0-6.729-3.017-6.729-6.732s3.014-6.729,6.729-6.729s6.73,3.014,6.73,6.729C791.51,507.1,788.496,510.114,784.777,510.114z
	 M784.777,458.114c-3.721,0-6.729-3.017-6.729-6.732s3.014-6.729,6.729-6.729s6.73,3.014,6.73,6.729
	C791.51,455.1,788.496,458.114,784.777,458.114z M784.777,406.114c-3.721,0-6.729-3.016-6.729-6.732
	c0-3.716,3.014-6.729,6.729-6.729s6.73,3.016,6.73,6.729C791.51,403.101,788.496,406.114,784.777,406.114z M784.777,354.113
	c-3.721,0-6.729-3.015-6.729-6.732c0-3.717,3.014-6.731,6.729-6.731s6.73,3.014,6.73,6.731
	C791.51,351.099,788.496,354.113,784.777,354.113z M841.347,718.114c-3.719,0-6.73-3.017-6.73-6.732s3.017-6.729,6.73-6.729
	c3.72,0,6.729,3.014,6.729,6.729C848.079,715.1,845.066,718.114,841.347,718.114z M841.347,666.114c-3.719,0-6.73-3.017-6.73-6.732
	s3.017-6.729,6.73-6.729c3.72,0,6.729,3.014,6.729,6.729C848.079,663.1,845.066,666.114,841.347,666.114z M841.347,614.114
	c-3.719,0-6.73-3.017-6.73-6.732s3.017-6.729,6.73-6.729c3.72,0,6.729,3.014,6.729,6.729
	C848.079,611.1,845.066,614.114,841.347,614.114z M841.347,562.114c-3.719,0-6.73-3.017-6.73-6.732s3.017-6.729,6.73-6.729
	c3.72,0,6.729,3.014,6.729,6.729C848.079,559.1,845.066,562.114,841.347,562.114z M841.347,510.114c-3.719,0-6.73-3.017-6.73-6.732
	s3.017-6.729,6.73-6.729c3.72,0,6.729,3.014,6.729,6.729C848.079,507.1,845.066,510.114,841.347,510.114z M841.347,458.114
	c-3.719,0-6.73-3.017-6.73-6.732s3.017-6.729,6.73-6.729c3.72,0,6.729,3.014,6.729,6.729
	C848.079,455.1,845.066,458.114,841.347,458.114z M897.917,718.114c-3.719,0-6.729-3.017-6.729-6.732s3.016-6.729,6.729-6.729
	c3.719,0,6.732,3.014,6.732,6.729C904.649,715.1,901.636,718.114,897.917,718.114z M897.917,666.114
	c-3.719,0-6.729-3.017-6.729-6.732s3.016-6.729,6.729-6.729c3.719,0,6.732,3.014,6.732,6.729
	C904.649,663.1,901.636,666.114,897.917,666.114z M897.917,614.114c-3.719,0-6.729-3.017-6.729-6.732s3.016-6.729,6.729-6.729
	c3.719,0,6.732,3.014,6.732,6.729C904.649,611.1,901.636,614.114,897.917,614.114z M897.917,562.114
	c-3.719,0-6.729-3.017-6.729-6.732s3.016-6.729,6.729-6.729c3.719,0,6.732,3.014,6.732,6.729
	C904.649,559.1,901.636,562.114,897.917,562.114z M954.488,666.114c-3.721,0-6.729-3.017-6.729-6.732s3.014-6.729,6.729-6.729
	s6.73,3.014,6.73,6.729C961.22,663.1,958.207,666.114,954.488,666.114z M954.488,614.114c-3.721,0-6.729-3.017-6.729-6.732
	s3.014-6.729,6.729-6.729s6.73,3.014,6.73,6.729C961.22,611.1,958.207,614.114,954.488,614.114z"/>
</svg>
