<?xml version="1.0" encoding="utf-8"?>
<!-- Generator: Adobe Illustrator 16.0.0, SVG Export Plug-In . SVG Version: 6.00 Build 0)  -->
<!DOCTYPE svg PUBLIC "-//W3C//DTD SVG 1.1//EN" "http://www.w3.org/Graphics/SVG/1.1/DTD/svg11.dtd">
<svg version="1.1" id="Layer_1" xmlns="http://www.w3.org/2000/svg" xmlns:xlink="http://www.w3.org/1999/xlink" x="0px" y="0px"
	 width="2113.873px" height="537.464px" viewBox="0 0 2113.873 537.464" enable-background="new 0 0 2113.873 537.464"
	 xml:space="preserve">
<path fill="none" stroke="#000000" stroke-linejoin="round" stroke-miterlimit="10" d="M2040.061,462.265
	c-1.871-2.529-6.261-8.596-13.168-18.287c-8.89-12.471-18.565-24.363-27.221-37.006c-8.716-12.729-20.266-22.9-31.275-33.604
	l-96.799-96.781l-135.353-127.229c-5.791-5.402-11.584-10.804-17.375-16.206c-1.647-1.538-3.288-3.086-4.944-4.615
	c-4.021-3.71-8.032-7.438-12.012-11.196c-4.89-4.619-9.793-9.236-14.761-13.771c-4.46-4.074-8.98-8.149-13.273-12.397
	c-2.816-2.79-5.812-5.986-9.194-8.046c-6.113-3.722-14.046-3.326-20.959-2.301c-0.865,0.128-1.714,0.322-2.563,0.523
	c-3.974,0.939-7.942,1.891-11.924,2.814c-5.5,1.276-10.988,2.601-16.485,3.884c-4.418,1.031-9.961,2.041-13.9-0.912
	c-3.271-2.449-6.401-5.076-9.562-7.667c-1.959-1.607-3.926-3.202-5.874-4.82c-15.971-13.264-30.628-28.689-49.673-37.625
	c-5.573-2.615-11.347-4.785-16.961-7.311c-10.647-4.792-22.39-7.436-33.573-10.719c-21.873-6.422-36.877-10.077-45.062-11.015
	c-23.705-2.716-67.562-8.285-71.137-7.966c-25.162,2.24-50.492,0.281-75.686,1.973c-34.271,2.301-68.539,4.639-102.799,7.093
	c-32.105,2.301-64.059,4.915-95.932,9.546c-31.604,4.592-63.077,10.003-94.71,14.426c-48.051,6.719-95.346,15.716-142.549,26.944
	c-13.625,3.241-27.232,6.555-40.853,9.829c-8.376,2.014-17.141,3.559-25.324,6.296c-43.778,14.651-88.722,26.184-133.108,38.805
	c-52.415,14.904-105.714,25.573-159.262,35.507c-14.96,2.775-29.93,5.501-44.897,8.223c-42.482,7.723-84.968,14.437-127.68,20.815
	c-5.366,0.801-10.731,1.622-16.104,2.385c-10.14,1.439-21.369,3.008-33.598,4.572c-54.147,6.922-107.872,16.767-161.937,24.274
	c-16.489,2.291-32.601,6.878-49.158,8.721c-16.438,1.829-33.091,3.668-49.082,8.063c-4.062,1.116-8.737,2.324-11.703,5.517
	c-2.683,2.89-3.826,7.724-0.951,10.949c1.152,1.292,5.447,0.747,6.905,0.771c5.046,0.083,10.103-0.118,15.145-0.299
	c33.895-1.217,67.664-1.573,101.575-0.592c9.937,0.288,19.872,0.641,29.805,1.025c14.706,0.567,36.805,1.42,44.123,1.578
	c3.198,0.068,27.932,1.603,74.285,4.305c17.693,1.048,35.282,3.006,52.876,5.091l51.804,6.542l10.396,1.739
	c26.444,6.13,53.146,11.584,78.151,22.485c18.297,7.975,36.104,20.119,52.637,32.328c15.541,11.48,29.971,24.389,43.898,37.75
	c7.654,7.344,15.158,14.84,22.638,22.357c8.225,8.268,16.235,16.742,24.271,25.191c7.192,7.562,14.947,14.883,20.401,23.863
	c2.729,4.492,5.663,10.98,10.861,13.107c6.41,2.621,14.435-5.484,19.021-9.021l20.299-14.523
	c35.927-23.865,70.165-50.177,106.018-74.15c1.801-1.203,11.062-7.623,27.893-19.233c32.075-22.062,49.357-33.601,51.919-34.494
	c3.256-1.129,5.157-1.146,5.805-0.021l1.438,2.496c0.965,1.672-16.447,14.226-24.703,21.301
	c-19.426,16.65-39.786,32.156-60.454,47.228c-13.048,9.515-27.556,20.535-43.573,33.259c-17.363,13.791-48.58,38.584-52.477,40.883
	c-11.223,6.617-37.441,18.502-24.984,34.51l7.025,9.164c13.326,17.5,20.559,26.297,21.729,26.453
	c18.952,2.473,37.604,6.846,56.57,9.33c19.699,2.58,39.496,4.314,59.23,6.58c10.937,1.256,21.854,2.658,32.718,4.445l45.438,7.467
	c4.091,1.012,11.514-0.414,17.168-1.502c5.214-1.002,10.428-2.016,15.646-2.992c7.931-1.49,15.363-4.383,23.18-6.021
	c14.158-2.971,27.456-8.672,41.077-13.479c14.987-5.293,30.051-10.375,45.174-15.271l21.209-7.32
	c20.733-7.555,41.601-14.783,62.865-20.693l61.245-17.016c5.337-1.414,12.306-3.021,20.935-4.918
	c39.666-8.73,79.634-15.99,119.438-24.059c10.453-2.119,21.132-2.732,31.693-4.107c6.947-0.904,56.656-2.688,65.229-2.271
	c15.308,0.689,36.435,3.164,63.423,7.271c14.135,2.145,28.338,3.814,42.485,5.854c75.411,10.865,151.325,18.484,226.248,32.521
	c52.82,9.895,106.111,17.111,158.918,27.123l11.127,2.104c25.254,4.787,50.857,7.523,76.083,12.482
	c11.02,2.164,22.145,4.541,33.324,5.664c5.172,0.52,9.49-1.355,14.06-3.492c2.938-1.375,5.688-3.115,8.194-5.176
	c2.039-1.68,5.259-4.021,6.435-6.432c1.271-2.609-1.524-8.156-2.542-10.52C2052.198,478.806,2047.913,472.74,2040.061,462.265z
	 M210.46,222.858c-3.719,0-6.732-3.014-6.732-6.732s3.014-6.732,6.732-6.732c3.718,0,6.732,3.014,6.732,6.732
	S214.18,222.858,210.46,222.858z M267.031,222.858c-3.719,0-6.732-3.014-6.732-6.732s3.014-6.732,6.732-6.732
	c3.718,0,6.732,3.014,6.732,6.732S270.75,222.858,267.031,222.858z M323.602,222.858c-3.719,0-6.73-3.014-6.73-6.732
	s3.015-6.732,6.73-6.732c3.719,0,6.732,3.014,6.732,6.732S327.319,222.858,323.602,222.858z M380.172,222.858
	c-3.72,0-6.73-3.014-6.73-6.732s3.014-6.732,6.73-6.732s6.731,3.014,6.731,6.732S383.891,222.858,380.172,222.858z M436.741,222.858
	c-3.72,0-6.731-3.014-6.731-6.732s3.016-6.732,6.731-6.732c3.719,0,6.73,3.014,6.73,6.732S440.461,222.858,436.741,222.858z
	 M493.312,274.859c-3.721,0-6.732-3.016-6.732-6.732c0-3.719,3.015-6.733,6.732-6.733c3.717,0,6.73,3.014,6.73,6.733
	C500.045,271.843,497.03,274.859,493.312,274.859z M493.312,222.858c-3.721,0-6.732-3.014-6.732-6.732s3.015-6.732,6.732-6.732
	c3.717,0,6.73,3.014,6.73,6.732S497.03,222.858,493.312,222.858z M549.883,326.859c-3.72,0-6.73-3.016-6.73-6.732
	c0-3.719,3.015-6.73,6.73-6.73s6.731,3.018,6.731,6.73C556.614,323.843,553.602,326.859,549.883,326.859z M549.883,274.859
	c-3.72,0-6.73-3.016-6.73-6.732c0-3.719,3.015-6.733,6.73-6.733s6.731,3.014,6.731,6.733
	C556.614,271.843,553.602,274.859,549.883,274.859z M549.883,222.858c-3.72,0-6.73-3.014-6.73-6.732s3.015-6.732,6.73-6.732
	s6.731,3.014,6.731,6.732S553.602,222.858,549.883,222.858z M549.883,170.858c-3.72,0-6.73-3.014-6.73-6.732s3.015-6.732,6.73-6.732
	s6.731,3.014,6.731,6.732S553.602,170.858,549.883,170.858z M606.452,378.859c-3.719,0-6.731-3.016-6.731-6.732
	c0-3.719,3.016-6.73,6.731-6.73c3.719,0,6.73,3.018,6.73,6.73C613.186,375.843,610.172,378.859,606.452,378.859z M606.452,326.859
	c-3.719,0-6.731-3.016-6.731-6.732c0-3.719,3.016-6.73,6.731-6.73c3.719,0,6.73,3.018,6.73,6.73
	C613.186,323.843,610.172,326.859,606.452,326.859z M606.452,274.859c-3.719,0-6.731-3.016-6.731-6.732
	c0-3.719,3.016-6.733,6.731-6.733c3.719,0,6.73,3.014,6.73,6.733C613.186,271.843,610.172,274.859,606.452,274.859z
	 M606.452,222.858c-3.719,0-6.731-3.014-6.731-6.732s3.016-6.732,6.731-6.732c3.719,0,6.73,3.014,6.73,6.732
	S610.172,222.858,606.452,222.858z M606.452,170.858c-3.719,0-6.731-3.014-6.731-6.732s3.016-6.732,6.731-6.732
	c3.719,0,6.73,3.014,6.73,6.732S610.172,170.858,606.452,170.858z M663.021,378.859c-3.72,0-6.731-3.016-6.731-6.732
	c0-3.719,3.015-6.73,6.731-6.73c3.718,0,6.731,3.018,6.731,6.73C669.756,375.843,666.741,378.859,663.021,378.859z M663.021,326.859
	c-3.72,0-6.731-3.016-6.731-6.732c0-3.719,3.015-6.73,6.731-6.73c3.718,0,6.731,3.018,6.731,6.73
	C669.756,323.843,666.741,326.859,663.021,326.859z M663.021,274.859c-3.72,0-6.731-3.016-6.731-6.732
	c0-3.719,3.015-6.733,6.731-6.733c3.718,0,6.731,3.014,6.731,6.733C669.756,271.843,666.741,274.859,663.021,274.859z
	 M663.021,222.858c-3.72,0-6.731-3.014-6.731-6.732s3.015-6.732,6.731-6.732c3.718,0,6.731,3.014,6.731,6.732
	S666.741,222.858,663.021,222.858z M663.021,170.858c-3.72,0-6.731-3.014-6.731-6.732s3.015-6.732,6.731-6.732
	c3.718,0,6.731,3.014,6.731,6.732S666.741,170.858,663.021,170.858z M719.594,326.859c-3.719,0-6.73-3.016-6.73-6.732
	c0-3.719,3.015-6.73,6.73-6.73s6.731,3.018,6.731,6.73C726.325,323.843,723.312,326.859,719.594,326.859z M719.594,274.859
	c-3.719,0-6.73-3.016-6.73-6.732c0-3.719,3.015-6.733,6.73-6.733s6.731,3.014,6.731,6.733
	C726.325,271.843,723.312,274.859,719.594,274.859z M719.594,222.858c-3.719,0-6.73-3.014-6.73-6.732s3.015-6.732,6.73-6.732
	s6.731,3.014,6.731,6.732S723.312,222.858,719.594,222.858z M719.594,170.858c-3.719,0-6.73-3.014-6.73-6.732
	s3.015-6.732,6.73-6.732s6.731,3.014,6.731,6.732S723.312,170.858,719.594,170.858z M776.163,326.859
	c-3.719,0-6.731-3.016-6.731-6.732c0-3.719,3.016-6.73,6.731-6.73c3.719,0,6.731,3.018,6.731,6.73
	C782.895,323.843,779.883,326.859,776.163,326.859z M776.163,274.859c-3.719,0-6.731-3.016-6.731-6.732
	c0-3.719,3.016-6.733,6.731-6.733c3.719,0,6.731,3.014,6.731,6.733C782.896,271.843,779.883,274.859,776.163,274.859z
	 M776.163,222.858c-3.719,0-6.731-3.014-6.731-6.732s3.016-6.732,6.731-6.732c3.719,0,6.731,3.014,6.731,6.732
	S779.883,222.858,776.163,222.858z M776.163,170.858c-3.719,0-6.731-3.014-6.731-6.732s3.016-6.732,6.731-6.732
	c3.719,0,6.731,3.014,6.731,6.732S779.883,170.858,776.163,170.858z M776.163,118.858c-3.719,0-6.731-3.014-6.731-6.732
	s3.016-6.732,6.731-6.732c3.719,0,6.731,3.014,6.731,6.732S779.883,118.858,776.163,118.858z M832.733,274.859
	c-3.721,0-6.731-3.016-6.731-6.732c0-3.719,3.014-6.733,6.731-6.733c3.717,0,6.73,3.014,6.73,6.733
	C839.467,271.843,836.452,274.859,832.733,274.859z M832.733,222.858c-3.721,0-6.731-3.014-6.731-6.732s3.014-6.732,6.731-6.732
	c3.717,0,6.73,3.014,6.73,6.732S836.452,222.858,832.733,222.858z M832.733,170.858c-3.721,0-6.731-3.014-6.731-6.732
	s3.014-6.732,6.731-6.732c3.717,0,6.73,3.014,6.73,6.732S836.452,170.858,832.733,170.858z M832.733,118.858
	c-3.721,0-6.731-3.014-6.731-6.732s3.014-6.732,6.731-6.732c3.717,0,6.73,3.014,6.73,6.732S836.452,118.858,832.733,118.858z
	 M719.594,482.859c-3.719,0-6.73-3.016-6.73-6.732c0-3.719,3.015-6.732,6.73-6.732s6.731,3.02,6.731,6.732
	C726.325,479.843,723.312,482.859,719.594,482.859z M776.163,482.859c-3.719,0-6.731-3.016-6.731-6.732
	c0-3.719,3.016-6.732,6.731-6.732c3.719,0,6.731,3.02,6.731,6.732C782.895,479.843,779.883,482.859,776.163,482.859z
	 M776.163,430.859c-3.719,0-6.731-3.016-6.731-6.732c0-3.719,3.016-6.731,6.731-6.731c3.719,0,6.731,3.019,6.731,6.731
	C782.895,427.843,779.883,430.859,776.163,430.859z M832.733,482.859c-3.721,0-6.731-3.016-6.731-6.732
	c0-3.719,3.014-6.732,6.731-6.732c3.717,0,6.73,3.02,6.73,6.732C839.467,479.843,836.452,482.859,832.733,482.859z M832.733,430.859
	c-3.721,0-6.731-3.016-6.731-6.732c0-3.719,3.014-6.731,6.731-6.731c3.717,0,6.73,3.019,6.73,6.731
	C839.467,427.843,836.452,430.859,832.733,430.859z M832.733,378.859c-3.721,0-6.731-3.016-6.731-6.732
	c0-3.719,3.014-6.73,6.731-6.73c3.717,0,6.73,3.018,6.73,6.73C839.467,375.843,836.452,378.859,832.733,378.859z M889.305,482.859
	c-3.719,0-6.73-3.016-6.73-6.732c0-3.719,3.015-6.732,6.73-6.732c3.717,0,6.731,3.02,6.731,6.732
	C896.036,479.843,893.021,482.859,889.305,482.859z M889.305,430.859c-3.719,0-6.73-3.016-6.73-6.732
	c0-3.719,3.015-6.731,6.73-6.731c3.717,0,6.731,3.019,6.731,6.731C896.036,427.843,893.021,430.859,889.305,430.859z
	 M889.305,378.859c-3.719,0-6.73-3.016-6.73-6.732c0-3.719,3.015-6.73,6.73-6.73c3.717,0,6.731,3.018,6.731,6.73
	C896.036,375.843,893.021,378.859,889.305,378.859z M889.305,326.859c-3.719,0-6.73-3.016-6.73-6.732c0-3.719,3.015-6.73,6.73-6.73
	c3.717,0,6.731,3.018,6.731,6.73C896.036,323.843,893.021,326.859,889.305,326.859z M889.305,274.859
	c-3.719,0-6.73-3.016-6.73-6.732c0-3.719,3.015-6.733,6.73-6.733c3.717,0,6.731,3.014,6.731,6.733
	C896.036,271.843,893.021,274.859,889.305,274.859z M889.305,222.858c-3.719,0-6.73-3.014-6.73-6.732s3.015-6.732,6.73-6.732
	c3.717,0,6.731,3.014,6.731,6.732S893.021,222.858,889.305,222.858z M889.305,170.858c-3.719,0-6.73-3.014-6.73-6.732
	s3.015-6.732,6.73-6.732c3.717,0,6.731,3.014,6.731,6.732S893.021,170.858,889.305,170.858z M889.305,118.858
	c-3.719,0-6.73-3.014-6.73-6.732s3.015-6.732,6.73-6.732c3.717,0,6.731,3.014,6.731,6.732S893.021,118.858,889.305,118.858z
	 M945.874,482.859c-3.719,0-6.731-3.016-6.731-6.732c0-3.719,3.016-6.732,6.731-6.732c3.719,0,6.731,3.02,6.731,6.732
	C952.605,479.843,949.594,482.859,945.874,482.859z M945.874,430.859c-3.719,0-6.731-3.016-6.731-6.732
	c0-3.719,3.016-6.731,6.731-6.731c3.719,0,6.731,3.019,6.731,6.731C952.605,427.843,949.594,430.859,945.874,430.859z
	 M945.874,378.859c-3.719,0-6.731-3.016-6.731-6.732c0-3.719,3.016-6.73,6.731-6.73c3.719,0,6.731,3.018,6.731,6.73
	C952.605,375.843,949.594,378.859,945.874,378.859z M945.874,326.859c-3.719,0-6.731-3.016-6.731-6.732
	c0-3.719,3.016-6.73,6.731-6.73c3.719,0,6.731,3.018,6.731,6.73C952.605,323.843,949.594,326.859,945.874,326.859z M945.874,274.859
	c-3.719,0-6.731-3.016-6.731-6.732c0-3.719,3.016-6.733,6.731-6.733c3.719,0,6.731,3.014,6.731,6.733
	C952.605,271.843,949.594,274.859,945.874,274.859z M945.874,222.858c-3.719,0-6.731-3.014-6.731-6.732s3.016-6.732,6.731-6.732
	c3.719,0,6.731,3.014,6.731,6.732S949.594,222.858,945.874,222.858z M945.874,170.858c-3.719,0-6.731-3.014-6.731-6.732
	s3.016-6.732,6.731-6.732c3.719,0,6.731,3.014,6.731,6.732S949.594,170.858,945.874,170.858z M945.874,118.858
	c-3.719,0-6.731-3.014-6.731-6.732s3.016-6.732,6.731-6.732c3.719,0,6.731,3.014,6.731,6.732S949.594,118.858,945.874,118.858z
	 M945.874,66.858c-3.719,0-6.731-3.014-6.731-6.732s3.016-6.732,6.731-6.732c3.719,0,6.731,3.014,6.731,6.732
	S949.594,66.858,945.874,66.858z M1002.444,482.859c-3.721,0-6.731-3.016-6.731-6.732c0-3.719,3.014-6.732,6.731-6.732
	c3.717,0,6.73,3.02,6.73,6.732C1009.178,479.843,1006.163,482.859,1002.444,482.859z M1002.444,430.859
	c-3.721,0-6.731-3.016-6.731-6.732c0-3.719,3.014-6.731,6.731-6.731c3.717,0,6.73,3.019,6.73,6.731
	C1009.178,427.843,1006.163,430.859,1002.444,430.859z M1002.444,378.859c-3.721,0-6.731-3.016-6.731-6.732
	c0-3.719,3.014-6.73,6.731-6.73c3.717,0,6.73,3.018,6.73,6.73C1009.178,375.843,1006.163,378.859,1002.444,378.859z
	 M1002.444,326.859c-3.721,0-6.731-3.016-6.731-6.732c0-3.719,3.014-6.73,6.731-6.73c3.717,0,6.73,3.018,6.73,6.73
	C1009.178,323.843,1006.163,326.859,1002.444,326.859z M1002.444,274.859c-3.721,0-6.731-3.016-6.731-6.732
	c0-3.719,3.014-6.733,6.731-6.733c3.717,0,6.73,3.014,6.73,6.733C1009.178,271.843,1006.163,274.859,1002.444,274.859z
	 M1002.444,222.858c-3.721,0-6.731-3.014-6.731-6.732s3.014-6.732,6.731-6.732c3.717,0,6.73,3.014,6.73,6.732
	S1006.163,222.858,1002.444,222.858z M1002.444,170.858c-3.721,0-6.731-3.014-6.731-6.732s3.014-6.732,6.731-6.732
	c3.717,0,6.73,3.014,6.73,6.732S1006.163,170.858,1002.444,170.858z M1002.444,118.858c-3.721,0-6.731-3.014-6.731-6.732
	s3.014-6.732,6.731-6.732c3.717,0,6.73,3.014,6.73,6.732S1006.163,118.858,1002.444,118.858z M1002.444,66.858
	c-3.721,0-6.731-3.014-6.731-6.732s3.014-6.732,6.731-6.732c3.717,0,6.73,3.014,6.73,6.732S1006.163,66.858,1002.444,66.858z
	 M1059.015,430.859c-3.719,0-6.73-3.016-6.73-6.732c0-3.719,3.015-6.731,6.73-6.731c3.719,0,6.732,3.019,6.732,6.731
	C1065.747,427.843,1062.733,430.859,1059.015,430.859z M1059.015,378.859c-3.719,0-6.73-3.016-6.73-6.732
	c0-3.719,3.015-6.73,6.73-6.73c3.719,0,6.732,3.018,6.732,6.73C1065.747,375.843,1062.733,378.859,1059.015,378.859z
	 M1059.015,326.859c-3.719,0-6.73-3.016-6.73-6.732c0-3.719,3.015-6.73,6.73-6.73c3.719,0,6.732,3.018,6.732,6.73
	C1065.747,323.843,1062.733,326.859,1059.015,326.859z M1059.015,274.859c-3.719,0-6.73-3.016-6.73-6.732
	c0-3.719,3.015-6.733,6.73-6.733c3.719,0,6.732,3.014,6.732,6.733C1065.747,271.843,1062.733,274.859,1059.015,274.859z
	 M1059.015,222.858c-3.719,0-6.73-3.014-6.73-6.732s3.015-6.732,6.73-6.732c3.719,0,6.732,3.014,6.732,6.732
	S1062.733,222.858,1059.015,222.858z M1059.015,170.858c-3.719,0-6.73-3.014-6.73-6.732s3.015-6.732,6.73-6.732
	c3.719,0,6.732,3.014,6.732,6.732S1062.733,170.858,1059.015,170.858z M1059.015,118.858c-3.719,0-6.73-3.014-6.73-6.732
	s3.015-6.732,6.73-6.732c3.719,0,6.732,3.014,6.732,6.732S1062.733,118.858,1059.015,118.858z M1059.015,66.858
	c-3.719,0-6.73-3.014-6.73-6.732s3.015-6.732,6.73-6.732c3.719,0,6.732,3.014,6.732,6.732S1062.733,66.858,1059.015,66.858z
	 M1115.585,430.859c-3.72,0-6.732-3.016-6.732-6.732c0-3.719,3.016-6.731,6.732-6.731s6.731,3.019,6.731,6.731
	C1122.317,427.843,1119.304,430.859,1115.585,430.859z M1115.585,378.859c-3.72,0-6.732-3.016-6.732-6.732
	c0-3.719,3.016-6.73,6.732-6.73s6.731,3.018,6.731,6.73C1122.317,375.843,1119.304,378.859,1115.585,378.859z M1115.585,326.859
	c-3.72,0-6.732-3.016-6.732-6.732c0-3.719,3.016-6.73,6.732-6.73s6.731,3.018,6.731,6.73
	C1122.317,323.843,1119.304,326.859,1115.585,326.859z M1115.585,274.859c-3.72,0-6.732-3.016-6.732-6.732
	c0-3.719,3.016-6.733,6.732-6.733s6.731,3.014,6.731,6.733C1122.317,271.843,1119.304,274.859,1115.585,274.859z M1115.585,222.858
	c-3.72,0-6.732-3.014-6.732-6.732s3.016-6.732,6.732-6.732s6.731,3.014,6.731,6.732S1119.304,222.858,1115.585,222.858z
	 M1115.585,170.858c-3.72,0-6.732-3.014-6.732-6.732s3.016-6.732,6.732-6.732s6.731,3.014,6.731,6.732
	S1119.304,170.858,1115.585,170.858z M1115.585,118.858c-3.72,0-6.732-3.014-6.732-6.732s3.016-6.732,6.732-6.732
	s6.731,3.014,6.731,6.732S1119.304,118.858,1115.585,118.858z M1115.585,66.858c-3.72,0-6.732-3.014-6.732-6.732
	s3.016-6.732,6.732-6.732s6.731,3.014,6.731,6.732S1119.304,66.858,1115.585,66.858z M1172.155,430.859
	c-3.72,0-6.731-3.016-6.731-6.732c0-3.719,3.016-6.731,6.731-6.731c3.719,0,6.73,3.019,6.73,6.731
	C1178.887,427.843,1175.874,430.859,1172.155,430.859z M1172.155,378.859c-3.72,0-6.731-3.016-6.731-6.732
	c0-3.719,3.016-6.73,6.731-6.73c3.719,0,6.73,3.018,6.73,6.73C1178.887,375.843,1175.874,378.859,1172.155,378.859z
	 M1172.155,326.859c-3.72,0-6.731-3.016-6.731-6.732c0-3.719,3.016-6.73,6.731-6.73c3.719,0,6.73,3.018,6.73,6.73
	C1178.887,323.843,1175.874,326.859,1172.155,326.859z M1172.155,274.859c-3.72,0-6.731-3.016-6.731-6.732
	c0-3.719,3.016-6.733,6.731-6.733c3.719,0,6.73,3.014,6.73,6.733C1178.888,271.843,1175.874,274.859,1172.155,274.859z
	 M1172.155,222.858c-3.72,0-6.731-3.014-6.731-6.732s3.016-6.732,6.731-6.732c3.719,0,6.73,3.014,6.73,6.732
	S1175.874,222.858,1172.155,222.858z M1172.155,170.858c-3.72,0-6.731-3.014-6.731-6.732s3.016-6.732,6.731-6.732
	c3.719,0,6.73,3.014,6.73,6.732S1175.874,170.858,1172.155,170.858z M1172.155,118.858c-3.72,0-6.731-3.014-6.731-6.732
	s3.016-6.732,6.731-6.732c3.719,0,6.73,3.014,6.73,6.732S1175.874,118.858,1172.155,118.858z M1172.155,66.858
	c-3.72,0-6.731-3.014-6.731-6.732s3.016-6.732,6.731-6.732c3.719,0,6.73,3.014,6.73,6.732S1175.874,66.858,1172.155,66.858z
	 M1228.726,378.859c-3.719,0-6.73-3.016-6.73-6.732c0-3.719,3.015-6.73,6.73-6.73c3.719,0,6.732,3.018,6.732,6.73
	C1235.458,375.843,1232.444,378.859,1228.726,378.859z M1228.726,326.859c-3.719,0-6.73-3.016-6.73-6.732
	c0-3.719,3.015-6.73,6.73-6.73c3.719,0,6.732,3.018,6.732,6.73C1235.458,323.843,1232.444,326.859,1228.726,326.859z
	 M1228.726,274.859c-3.719,0-6.73-3.016-6.73-6.732c0-3.719,3.015-6.733,6.73-6.733c3.719,0,6.732,3.014,6.732,6.733
	C1235.458,271.843,1232.444,274.859,1228.726,274.859z M1228.726,222.858c-3.719,0-6.73-3.014-6.73-6.732s3.015-6.732,6.73-6.732
	c3.719,0,6.732,3.014,6.732,6.732S1232.444,222.858,1228.726,222.858z M1228.726,170.858c-3.719,0-6.73-3.014-6.73-6.732
	s3.015-6.732,6.73-6.732c3.719,0,6.732,3.014,6.732,6.732S1232.444,170.858,1228.726,170.858z M1228.726,118.858
	c-3.719,0-6.73-3.014-6.73-6.732s3.015-6.732,6.73-6.732c3.719,0,6.732,3.014,6.732,6.732S1232.444,118.858,1228.726,118.858z
	 M1228.726,66.858c-3.719,0-6.73-3.014-6.73-6.732s3.015-6.732,6.73-6.732c3.719,0,6.732,3.014,6.732,6.732
	S1232.444,66.858,1228.726,66.858z M1285.296,378.859c-3.72,0-6.73-3.016-6.73-6.732c0-3.719,3.014-6.73,6.73-6.73
	s6.731,3.018,6.731,6.73C1292.028,375.843,1289.015,378.859,1285.296,378.859z M1285.296,326.859c-3.72,0-6.73-3.016-6.73-6.732
	c0-3.719,3.014-6.73,6.73-6.73s6.731,3.018,6.731,6.73C1292.028,323.843,1289.015,326.859,1285.296,326.859z M1285.296,274.859
	c-3.72,0-6.73-3.016-6.73-6.732c0-3.719,3.014-6.733,6.73-6.733s6.731,3.014,6.731,6.733
	C1292.028,271.843,1289.015,274.859,1285.296,274.859z M1285.296,222.858c-3.72,0-6.73-3.014-6.73-6.732s3.014-6.732,6.73-6.732
	s6.731,3.014,6.731,6.732S1289.015,222.858,1285.296,222.858z M1285.296,170.858c-3.72,0-6.73-3.014-6.73-6.732
	s3.014-6.732,6.73-6.732s6.731,3.014,6.731,6.732S1289.015,170.858,1285.296,170.858z M1285.296,118.858
	c-3.72,0-6.73-3.014-6.73-6.732s3.014-6.732,6.73-6.732s6.731,3.014,6.731,6.732S1289.015,118.858,1285.296,118.858z
	 M1285.296,66.858c-3.72,0-6.73-3.014-6.73-6.732s3.014-6.732,6.73-6.732s6.731,3.014,6.731,6.732S1289.015,66.858,1285.296,66.858z
	 M1341.866,378.859c-3.72,0-6.731-3.016-6.731-6.732c0-3.719,3.016-6.73,6.731-6.73c3.719,0,6.73,3.018,6.73,6.73
	C1348.598,375.843,1345.585,378.859,1341.866,378.859z M1341.866,326.859c-3.72,0-6.731-3.016-6.731-6.732
	c0-3.719,3.016-6.73,6.731-6.73c3.719,0,6.73,3.018,6.73,6.73C1348.598,323.843,1345.585,326.859,1341.866,326.859z
	 M1341.866,274.859c-3.72,0-6.731-3.016-6.731-6.732c0-3.719,3.016-6.733,6.731-6.733c3.719,0,6.73,3.014,6.73,6.733
	C1348.599,271.843,1345.585,274.859,1341.866,274.859z M1341.866,222.858c-3.72,0-6.731-3.014-6.731-6.732s3.016-6.732,6.731-6.732
	c3.719,0,6.73,3.014,6.73,6.732S1345.585,222.858,1341.866,222.858z M1341.866,170.858c-3.72,0-6.731-3.014-6.731-6.732
	s3.016-6.732,6.731-6.732c3.719,0,6.73,3.014,6.73,6.732S1345.585,170.858,1341.866,170.858z M1341.866,118.858
	c-3.72,0-6.731-3.014-6.731-6.732s3.016-6.732,6.731-6.732c3.719,0,6.73,3.014,6.73,6.732S1345.585,118.858,1341.866,118.858z
	 M1341.866,66.858c-3.72,0-6.731-3.014-6.731-6.732s3.016-6.732,6.731-6.732c3.719,0,6.73,3.014,6.73,6.732
	S1345.585,66.858,1341.866,66.858z M1398.438,378.859c-3.72,0-6.731-3.016-6.731-6.732c0-3.719,3.015-6.73,6.731-6.73
	c3.718,0,6.731,3.018,6.731,6.73C1405.169,375.843,1402.155,378.859,1398.438,378.859z M1398.438,326.859
	c-3.72,0-6.731-3.016-6.731-6.732c0-3.719,3.015-6.73,6.731-6.73c3.718,0,6.731,3.018,6.731,6.73
	C1405.169,323.843,1402.155,326.859,1398.438,326.859z M1398.438,274.859c-3.72,0-6.731-3.016-6.731-6.732
	c0-3.719,3.015-6.733,6.731-6.733c3.718,0,6.731,3.014,6.731,6.733C1405.169,271.843,1402.155,274.859,1398.438,274.859z
	 M1398.438,222.858c-3.72,0-6.731-3.014-6.731-6.732s3.015-6.732,6.731-6.732c3.718,0,6.731,3.014,6.731,6.732
	S1402.155,222.858,1398.438,222.858z M1398.438,170.858c-3.72,0-6.731-3.014-6.731-6.732s3.015-6.732,6.731-6.732
	c3.718,0,6.731,3.014,6.731,6.732S1402.155,170.858,1398.438,170.858z M1398.438,118.858c-3.72,0-6.731-3.014-6.731-6.732
	s3.015-6.732,6.731-6.732c3.718,0,6.731,3.014,6.731,6.732S1402.155,118.858,1398.438,118.858z M1398.438,66.858
	c-3.72,0-6.731-3.014-6.731-6.732s3.015-6.732,6.731-6.732c3.718,0,6.731,3.014,6.731,6.732S1402.155,66.858,1398.438,66.858z
	 M1455.007,378.859c-3.719,0-6.73-3.016-6.73-6.732c0-3.719,3.014-6.73,6.73-6.73s6.731,3.018,6.731,6.73
	C1461.739,375.843,1458.726,378.859,1455.007,378.859z M1455.007,326.859c-3.719,0-6.73-3.016-6.73-6.732
	c0-3.719,3.014-6.73,6.73-6.73s6.731,3.018,6.731,6.73C1461.739,323.843,1458.726,326.859,1455.007,326.859z M1455.007,274.859
	c-3.719,0-6.73-3.016-6.73-6.732c0-3.719,3.014-6.733,6.73-6.733s6.731,3.014,6.731,6.733
	C1461.739,271.843,1458.726,274.859,1455.007,274.859z M1455.007,222.858c-3.719,0-6.73-3.014-6.73-6.732s3.014-6.732,6.73-6.732
	s6.731,3.014,6.731,6.732S1458.726,222.858,1455.007,222.858z M1455.007,170.858c-3.719,0-6.73-3.014-6.73-6.732
	s3.014-6.732,6.73-6.732s6.731,3.014,6.731,6.732S1458.726,170.858,1455.007,170.858z M1455.007,118.858
	c-3.719,0-6.73-3.014-6.73-6.732s3.014-6.732,6.73-6.732s6.731,3.014,6.731,6.732S1458.726,118.858,1455.007,118.858z
	 M1455.007,66.858c-3.719,0-6.73-3.014-6.73-6.732s3.014-6.732,6.73-6.732s6.731,3.014,6.731,6.732S1458.726,66.858,1455.007,66.858
	z M1511.577,378.859c-3.719,0-6.731-3.016-6.731-6.732c0-3.719,3.016-6.73,6.731-6.73c3.719,0,6.73,3.018,6.73,6.73
	C1518.309,375.843,1515.296,378.859,1511.577,378.859z M1511.577,326.859c-3.719,0-6.731-3.016-6.731-6.732
	c0-3.719,3.016-6.73,6.731-6.73c3.719,0,6.73,3.018,6.73,6.73C1518.309,323.843,1515.296,326.859,1511.577,326.859z
	 M1511.577,274.859c-3.719,0-6.731-3.016-6.731-6.732c0-3.719,3.016-6.733,6.731-6.733c3.719,0,6.73,3.014,6.73,6.733
	C1518.311,271.843,1515.296,274.859,1511.577,274.859z M1511.577,222.858c-3.719,0-6.731-3.014-6.731-6.732s3.016-6.732,6.731-6.732
	c3.719,0,6.73,3.014,6.73,6.732S1515.296,222.858,1511.577,222.858z M1511.577,170.858c-3.719,0-6.731-3.014-6.731-6.732
	s3.016-6.732,6.731-6.732c3.719,0,6.73,3.014,6.73,6.732S1515.296,170.858,1511.577,170.858z M1511.577,118.858
	c-3.719,0-6.731-3.014-6.731-6.732s3.016-6.732,6.731-6.732c3.719,0,6.73,3.014,6.73,6.732S1515.296,118.858,1511.577,118.858z
	 M1511.577,66.858c-3.719,0-6.731-3.014-6.731-6.732s3.016-6.732,6.731-6.732c3.719,0,6.73,3.014,6.73,6.732
	S1515.296,66.858,1511.577,66.858z M1568.146,378.859c-3.72,0-6.731-3.016-6.731-6.732c0-3.719,3.015-6.73,6.731-6.73
	c3.718,0,6.731,3.018,6.731,6.73C1574.879,375.843,1571.866,378.859,1568.146,378.859z M1568.146,326.859
	c-3.72,0-6.731-3.016-6.731-6.732c0-3.719,3.015-6.73,6.731-6.73c3.718,0,6.731,3.018,6.731,6.73
	C1574.879,323.843,1571.866,326.859,1568.146,326.859z M1568.146,274.859c-3.72,0-6.731-3.016-6.731-6.732
	c0-3.719,3.015-6.733,6.731-6.733c3.718,0,6.731,3.014,6.731,6.733C1574.88,271.843,1571.866,274.859,1568.146,274.859z
	 M1568.146,222.858c-3.72,0-6.731-3.014-6.731-6.732s3.015-6.732,6.731-6.732c3.718,0,6.731,3.014,6.731,6.732
	S1571.866,222.858,1568.146,222.858z M1568.146,170.858c-3.72,0-6.731-3.014-6.731-6.732s3.015-6.732,6.731-6.732
	c3.718,0,6.731,3.014,6.731,6.732S1571.866,170.858,1568.146,170.858z M1568.146,118.858c-3.72,0-6.731-3.014-6.731-6.732
	s3.015-6.732,6.731-6.732c3.718,0,6.731,3.014,6.731,6.732S1571.866,118.858,1568.146,118.858z M1624.718,430.859
	c-3.719,0-6.73-3.016-6.73-6.732c0-3.719,3.014-6.731,6.73-6.731s6.731,3.019,6.731,6.731
	C1631.45,427.843,1628.438,430.859,1624.718,430.859z M1624.718,378.859c-3.719,0-6.73-3.016-6.73-6.732
	c0-3.719,3.014-6.73,6.73-6.73s6.731,3.018,6.731,6.73C1631.45,375.843,1628.438,378.859,1624.718,378.859z M1624.718,326.859
	c-3.719,0-6.73-3.016-6.73-6.732c0-3.719,3.014-6.73,6.73-6.73s6.731,3.018,6.731,6.73
	C1631.45,323.843,1628.438,326.859,1624.718,326.859z M1624.718,274.859c-3.719,0-6.73-3.016-6.73-6.732
	c0-3.719,3.014-6.733,6.73-6.733s6.731,3.014,6.731,6.733C1631.45,271.843,1628.438,274.859,1624.718,274.859z M1624.718,222.858
	c-3.719,0-6.73-3.014-6.73-6.732s3.014-6.732,6.73-6.732s6.731,3.014,6.731,6.732S1628.438,222.858,1624.718,222.858z
	 M1624.718,170.858c-3.719,0-6.73-3.014-6.73-6.732s3.014-6.732,6.73-6.732s6.731,3.014,6.731,6.732
	S1628.438,170.858,1624.718,170.858z M1624.718,118.858c-3.719,0-6.73-3.014-6.73-6.732s3.014-6.732,6.73-6.732
	s6.731,3.014,6.731,6.732S1628.438,118.858,1624.718,118.858z M1681.288,430.859c-3.719,0-6.731-3.016-6.731-6.732
	c0-3.719,3.016-6.731,6.731-6.731c3.719,0,6.73,3.019,6.73,6.731C1688.02,427.843,1685.007,430.859,1681.288,430.859z
	 M1681.288,378.859c-3.719,0-6.731-3.016-6.731-6.732c0-3.719,3.016-6.73,6.731-6.73c3.719,0,6.73,3.018,6.73,6.73
	C1688.02,375.843,1685.007,378.859,1681.288,378.859z M1681.288,326.859c-3.719,0-6.731-3.016-6.731-6.732
	c0-3.719,3.016-6.73,6.731-6.73c3.719,0,6.73,3.018,6.73,6.73C1688.02,323.843,1685.007,326.859,1681.288,326.859z
	 M1681.288,274.859c-3.719,0-6.731-3.016-6.731-6.732c0-3.719,3.016-6.733,6.731-6.733c3.719,0,6.73,3.014,6.73,6.733
	C1688.021,271.843,1685.007,274.859,1681.288,274.859z M1681.288,222.858c-3.719,0-6.731-3.014-6.731-6.732s3.016-6.732,6.731-6.732
	c3.719,0,6.73,3.014,6.73,6.732S1685.007,222.858,1681.288,222.858z M1681.288,170.858c-3.719,0-6.731-3.014-6.731-6.732
	s3.016-6.732,6.731-6.732c3.719,0,6.73,3.014,6.73,6.732S1685.007,170.858,1681.288,170.858z M1737.858,430.859
	c-3.721,0-6.732-3.016-6.732-6.732c0-3.719,3.015-6.731,6.732-6.731c3.717,0,6.73,3.019,6.73,6.731
	C1744.59,427.843,1741.577,430.859,1737.858,430.859z M1737.858,378.859c-3.721,0-6.732-3.016-6.732-6.732
	c0-3.719,3.015-6.73,6.732-6.73c3.717,0,6.73,3.018,6.73,6.73C1744.59,375.843,1741.577,378.859,1737.858,378.859z
	 M1737.858,326.859c-3.721,0-6.732-3.016-6.732-6.732c0-3.719,3.015-6.73,6.732-6.73c3.717,0,6.73,3.018,6.73,6.73
	C1744.59,323.843,1741.577,326.859,1737.858,326.859z M1737.858,274.859c-3.721,0-6.732-3.016-6.732-6.732
	c0-3.719,3.015-6.733,6.732-6.733c3.717,0,6.73,3.014,6.73,6.733C1744.591,271.843,1741.577,274.859,1737.858,274.859z
	 M1737.858,222.858c-3.721,0-6.732-3.014-6.732-6.732s3.015-6.732,6.732-6.732c3.717,0,6.73,3.014,6.73,6.732
	S1741.577,222.858,1737.858,222.858z M1794.429,430.859c-3.719,0-6.73-3.016-6.73-6.732c0-3.719,3.015-6.731,6.73-6.731
	c3.718,0,6.732,3.019,6.732,6.731C1801.161,427.843,1798.146,430.859,1794.429,430.859z M1794.429,378.859
	c-3.719,0-6.73-3.016-6.73-6.732c0-3.719,3.015-6.73,6.73-6.73c3.718,0,6.732,3.018,6.732,6.73
	C1801.161,375.843,1798.146,378.859,1794.429,378.859z M1794.429,326.859c-3.719,0-6.73-3.016-6.73-6.732
	c0-3.719,3.015-6.73,6.73-6.73c3.718,0,6.732,3.018,6.732,6.73C1801.161,323.843,1798.146,326.859,1794.429,326.859z
	 M1794.429,274.859c-3.719,0-6.73-3.016-6.73-6.732c0-3.719,3.015-6.733,6.73-6.733c3.718,0,6.732,3.014,6.732,6.733
	C1801.161,271.843,1798.146,274.859,1794.429,274.859z M1850.999,430.859c-3.72,0-6.732-3.016-6.732-6.732
	c0-3.719,3.016-6.731,6.732-6.731s6.731,3.019,6.731,6.731C1857.73,427.843,1854.718,430.859,1850.999,430.859z M1850.999,378.859
	c-3.72,0-6.732-3.016-6.732-6.732c0-3.719,3.016-6.73,6.732-6.73s6.731,3.018,6.731,6.73
	C1857.73,375.843,1854.718,378.859,1850.999,378.859z M1850.999,326.859c-3.72,0-6.732-3.016-6.732-6.732
	c0-3.719,3.016-6.73,6.732-6.73s6.731,3.018,6.731,6.73C1857.73,323.843,1854.718,326.859,1850.999,326.859z M1907.569,430.859
	c-3.721,0-6.731-3.016-6.731-6.732c0-3.719,3.014-6.731,6.731-6.731c3.719,0,6.73,3.019,6.73,6.731
	C1914.301,427.843,1911.288,430.859,1907.569,430.859z M1907.569,378.859c-3.721,0-6.731-3.016-6.731-6.732
	c0-3.719,3.014-6.73,6.731-6.73c3.719,0,6.73,3.018,6.73,6.73C1914.301,375.843,1911.288,378.859,1907.569,378.859z
	 M1964.141,482.859c-3.72,0-6.731-3.016-6.731-6.732c0-3.719,3.015-6.732,6.731-6.732s6.731,3.02,6.731,6.732
	C1970.872,479.843,1967.857,482.859,1964.141,482.859z M1964.141,430.859c-3.72,0-6.731-3.016-6.731-6.732
	c0-3.719,3.015-6.731,6.731-6.731s6.731,3.019,6.731,6.731C1970.872,427.843,1967.857,430.859,1964.141,430.859z M2020.71,482.859
	c-3.72,0-6.731-3.016-6.731-6.732c0-3.719,3.015-6.732,6.731-6.732s6.731,3.02,6.731,6.732
	C2027.441,479.843,2024.429,482.859,2020.71,482.859z"/>
</svg>
