<?xml version="1.0" encoding="utf-8"?>
<!-- Generator: Adobe Illustrator 16.0.0, SVG Export Plug-In . SVG Version: 6.00 Build 0)  -->
<!DOCTYPE svg PUBLIC "-//W3C//DTD SVG 1.1//EN" "http://www.w3.org/Graphics/SVG/1.1/DTD/svg11.dtd">
<svg version="1.1" id="Layer_1" xmlns="http://www.w3.org/2000/svg" xmlns:xlink="http://www.w3.org/1999/xlink" x="0px" y="0px"
	 width="1477.197px" height="800.562px" viewBox="0 0 1477.197 800.562" enable-background="new 0 0 1477.197 800.562"
	 xml:space="preserve">
<path fill="none" stroke="#000001" stroke-linejoin="round" stroke-miterlimit="10" d="M202.154,732.644
	c3.718,0,6.732,3.015,6.732,6.732s-3.015,6.732-6.732,6.732s-6.732-3.015-6.732-6.732S198.436,732.644,202.154,732.644z
	 M202.154,680.644c3.718,0,6.732,3.015,6.732,6.732s-3.015,6.732-6.732,6.732s-6.732-3.015-6.732-6.732
	S198.436,680.644,202.154,680.644z M202.154,628.644c3.718,0,6.732,3.015,6.732,6.732s-3.015,6.732-6.732,6.732
	s-6.732-3.015-6.732-6.732S198.436,628.644,202.154,628.644z M202.154,576.644c3.718,0,6.732,3.015,6.732,6.732
	s-3.015,6.732-6.732,6.732s-6.732-3.015-6.732-6.732S198.436,576.644,202.154,576.644z M202.154,524.644
	c3.718,0,6.732,3.015,6.732,6.732s-3.015,6.732-6.732,6.732s-6.732-3.015-6.732-6.732S198.436,524.644,202.154,524.644z
	 M202.154,472.644c3.718,0,6.732,3.015,6.732,6.732s-3.015,6.732-6.732,6.732s-6.732-3.015-6.732-6.732
	S198.436,472.644,202.154,472.644z M258.725,732.644c3.718,0,6.731,3.015,6.731,6.732s-3.014,6.732-6.731,6.732
	c-3.719,0-6.732-3.015-6.732-6.732S255.007,732.644,258.725,732.644z M258.725,680.644c3.718,0,6.731,3.015,6.731,6.732
	s-3.014,6.732-6.731,6.732c-3.719,0-6.732-3.015-6.732-6.732S255.007,680.644,258.725,680.644z M258.725,628.644
	c3.718,0,6.731,3.015,6.731,6.732s-3.014,6.732-6.731,6.732c-3.719,0-6.732-3.015-6.732-6.732S255.007,628.644,258.725,628.644z
	 M258.725,576.644c3.718,0,6.731,3.015,6.731,6.732s-3.014,6.732-6.731,6.732c-3.719,0-6.732-3.015-6.732-6.732
	S255.007,576.644,258.725,576.644z M258.725,524.644c3.718,0,6.731,3.015,6.731,6.732s-3.014,6.732-6.731,6.732
	c-3.719,0-6.732-3.015-6.732-6.732S255.007,524.644,258.725,524.644z M258.725,472.644c3.718,0,6.731,3.015,6.731,6.732
	s-3.014,6.732-6.731,6.732c-3.719,0-6.732-3.015-6.732-6.732S255.007,472.644,258.725,472.644z M315.296,732.644
	c3.718,0,6.731,3.015,6.731,6.732s-3.014,6.732-6.731,6.732c-3.719,0-6.732-3.015-6.732-6.732S311.577,732.644,315.296,732.644z
	 M315.296,680.644c3.718,0,6.731,3.015,6.731,6.732s-3.014,6.732-6.731,6.732c-3.719,0-6.732-3.015-6.732-6.732
	S311.577,680.644,315.296,680.644z M315.296,628.644c3.718,0,6.731,3.015,6.731,6.732s-3.014,6.732-6.731,6.732
	c-3.719,0-6.732-3.015-6.732-6.732S311.577,628.644,315.296,628.644z M315.296,576.644c3.718,0,6.731,3.015,6.731,6.732
	s-3.014,6.732-6.731,6.732c-3.719,0-6.732-3.015-6.732-6.732S311.577,576.644,315.296,576.644z M315.296,524.644
	c3.718,0,6.731,3.015,6.731,6.732s-3.014,6.732-6.731,6.732c-3.719,0-6.732-3.015-6.732-6.732S311.577,524.644,315.296,524.644z
	 M315.296,472.644c3.718,0,6.731,3.015,6.731,6.732s-3.014,6.732-6.731,6.732c-3.719,0-6.732-3.015-6.732-6.732
	S311.577,472.644,315.296,472.644z M315.296,420.645c3.718,0,6.731,3.014,6.731,6.731s-3.014,6.732-6.731,6.732
	c-3.719,0-6.732-3.015-6.732-6.732S311.577,420.645,315.296,420.645z M371.865,680.644c3.718,0,6.732,3.015,6.732,6.732
	s-3.015,6.732-6.732,6.732s-6.731-3.015-6.731-6.732S368.147,680.644,371.865,680.644z M371.865,628.644
	c3.718,0,6.732,3.015,6.732,6.732s-3.015,6.732-6.732,6.732s-6.731-3.015-6.731-6.732S368.147,628.644,371.865,628.644z
	 M371.865,576.644c3.718,0,6.732,3.015,6.732,6.732s-3.015,6.732-6.732,6.732s-6.731-3.015-6.731-6.732
	S368.147,576.644,371.865,576.644z M371.865,524.644c3.718,0,6.732,3.015,6.732,6.732s-3.015,6.732-6.732,6.732
	s-6.731-3.015-6.731-6.732S368.147,524.644,371.865,524.644z M371.865,472.644c3.718,0,6.732,3.015,6.732,6.732
	s-3.015,6.732-6.732,6.732s-6.731-3.015-6.731-6.732S368.147,472.644,371.865,472.644z M371.865,420.645
	c3.718,0,6.732,3.014,6.732,6.731s-3.015,6.732-6.732,6.732s-6.731-3.015-6.731-6.732S368.147,420.645,371.865,420.645z
	 M371.865,368.643c3.718,0,6.732,3.014,6.732,6.732s-3.015,6.732-6.732,6.732s-6.731-3.014-6.731-6.732
	S368.147,368.643,371.865,368.643z M428.436,694.108c-3.719,0-6.729-3.02-6.729-6.732c0-3.719,3.015-6.732,6.729-6.732
	c3.721,0,6.732,3.018,6.732,6.732S432.154,694.108,428.436,694.108z M428.436,642.108c-3.719,0-6.729-3.02-6.729-6.732
	c0-3.719,3.015-6.732,6.729-6.732c3.721,0,6.732,3.018,6.732,6.732S432.154,642.108,428.436,642.108z M428.436,590.108
	c-3.719,0-6.729-3.02-6.729-6.732c0-3.719,3.015-6.732,6.729-6.732c3.721,0,6.732,3.018,6.732,6.732
	S432.154,590.108,428.436,590.108z M428.436,538.108c-3.719,0-6.729-3.02-6.729-6.732c0-3.719,3.015-6.732,6.729-6.732
	c3.721,0,6.732,3.018,6.732,6.732S432.154,538.108,428.436,538.108z M428.436,486.108c-3.719,0-6.729-3.02-6.729-6.732
	c0-3.719,3.015-6.732,6.729-6.732c3.721,0,6.732,3.018,6.732,6.732S432.154,486.108,428.436,486.108z M428.436,434.108
	c-3.719,0-6.729-3.02-6.729-6.732c0-3.719,3.015-6.731,6.729-6.731c3.721,0,6.732,3.017,6.732,6.731
	S432.154,434.108,428.436,434.108z M428.436,382.107c-3.719,0-6.729-3.016-6.729-6.732s3.015-6.732,6.729-6.732
	c3.721,0,6.732,3.016,6.732,6.732S432.154,382.107,428.436,382.107z M485.007,680.644c3.718,0,6.731,3.015,6.731,6.732
	s-3.014,6.732-6.731,6.732c-3.719,0-6.732-3.015-6.732-6.732S481.288,680.644,485.007,680.644z M485.007,628.644
	c3.718,0,6.731,3.015,6.731,6.732s-3.014,6.732-6.731,6.732c-3.719,0-6.732-3.015-6.732-6.732S481.288,628.644,485.007,628.644z
	 M485.007,576.644c3.718,0,6.731,3.015,6.731,6.732s-3.014,6.732-6.731,6.732c-3.719,0-6.732-3.015-6.732-6.732
	S481.288,576.644,485.007,576.644z M485.007,524.644c3.718,0,6.731,3.015,6.731,6.732s-3.014,6.732-6.731,6.732
	c-3.719,0-6.732-3.015-6.732-6.732S481.288,524.644,485.007,524.644z M485.007,472.644c3.718,0,6.731,3.015,6.731,6.732
	s-3.014,6.732-6.731,6.732c-3.719,0-6.732-3.015-6.732-6.732S481.288,472.644,485.007,472.644z M485.007,420.645
	c3.718,0,6.731,3.014,6.731,6.731s-3.014,6.732-6.731,6.732c-3.719,0-6.732-3.015-6.732-6.732S481.288,420.645,485.007,420.645z
	 M485.007,368.643c3.718,0,6.731,3.014,6.731,6.732s-3.014,6.732-6.731,6.732c-3.719,0-6.732-3.014-6.732-6.732
	S481.288,368.643,485.007,368.643z M485.007,316.643c3.718,0,6.731,3.014,6.731,6.732s-3.014,6.732-6.731,6.732
	c-3.719,0-6.732-3.014-6.732-6.732S481.288,316.643,485.007,316.643z M541.576,642.108c-3.719,0-6.731-3.02-6.731-6.732
	c0-3.719,3.017-6.732,6.731-6.732s6.729,3.018,6.729,6.732C548.309,639.093,545.296,642.108,541.576,642.108z M541.576,590.108
	c-3.719,0-6.731-3.02-6.731-6.732c0-3.719,3.017-6.732,6.731-6.732s6.729,3.018,6.729,6.732
	C548.309,587.093,545.296,590.108,541.576,590.108z M541.576,538.108c-3.719,0-6.731-3.02-6.731-6.732
	c0-3.719,3.017-6.732,6.731-6.732s6.729,3.018,6.729,6.732C548.309,535.093,545.296,538.108,541.576,538.108z M541.576,486.108
	c-3.719,0-6.731-3.02-6.731-6.732c0-3.719,3.017-6.732,6.731-6.732s6.729,3.018,6.729,6.732
	C548.309,483.093,545.296,486.108,541.576,486.108z M541.576,434.108c-3.719,0-6.731-3.02-6.731-6.732
	c0-3.719,3.017-6.731,6.731-6.731s6.729,3.017,6.729,6.731C548.309,431.093,545.296,434.108,541.576,434.108z M541.576,368.643
	c3.718,0,6.732,3.014,6.732,6.732s-3.015,6.732-6.732,6.732s-6.731-3.014-6.731-6.732S537.858,368.643,541.576,368.643z
	 M541.576,316.643c3.718,0,6.732,3.014,6.732,6.732s-3.015,6.732-6.732,6.732s-6.731-3.014-6.731-6.732
	S537.858,316.643,541.576,316.643z M598.146,642.108c-3.722,0-6.732-3.02-6.732-6.732c0-3.719,3.015-6.732,6.732-6.732
	s6.729,3.018,6.729,6.732C604.88,639.093,601.865,642.108,598.146,642.108z M598.146,590.108c-3.722,0-6.732-3.02-6.732-6.732
	c0-3.719,3.015-6.732,6.732-6.732s6.729,3.018,6.729,6.732C604.88,587.093,601.865,590.108,598.146,590.108z M598.146,538.108
	c-3.722,0-6.732-3.02-6.732-6.732c0-3.719,3.015-6.732,6.732-6.732s6.729,3.018,6.729,6.732
	C604.88,535.093,601.865,538.108,598.146,538.108z M598.146,486.108c-3.722,0-6.732-3.02-6.732-6.732
	c0-3.719,3.015-6.732,6.732-6.732s6.729,3.018,6.729,6.732C604.88,483.093,601.865,486.108,598.146,486.108z M598.146,434.108
	c-3.722,0-6.732-3.02-6.732-6.732c0-3.719,3.015-6.731,6.732-6.731s6.729,3.017,6.729,6.731
	C604.88,431.093,601.865,434.108,598.146,434.108z M598.146,382.107c-3.722,0-6.732-3.016-6.732-6.732s3.015-6.732,6.732-6.732
	s6.729,3.016,6.729,6.732S601.865,382.107,598.146,382.107z M598.146,330.107c-3.722,0-6.732-3.016-6.732-6.732
	s3.015-6.732,6.732-6.732s6.729,3.016,6.729,6.732S601.865,330.107,598.146,330.107z M598.146,278.107
	c-3.722,0-6.732-3.014-6.732-6.732s3.015-6.732,6.732-6.732s6.729,3.014,6.729,6.732S601.865,278.107,598.146,278.107z
	 M654.718,628.644c3.718,0,6.731,3.015,6.731,6.732s-3.014,6.732-6.731,6.732c-3.719,0-6.732-3.015-6.732-6.732
	S650.999,628.644,654.718,628.644z M654.718,576.644c3.718,0,6.731,3.015,6.731,6.732s-3.014,6.732-6.731,6.732
	c-3.719,0-6.732-3.015-6.732-6.732S650.999,576.644,654.718,576.644z M654.718,524.644c3.718,0,6.731,3.015,6.731,6.732
	s-3.014,6.732-6.731,6.732c-3.719,0-6.732-3.015-6.732-6.732S650.999,524.644,654.718,524.644z M654.718,472.644
	c3.718,0,6.731,3.015,6.731,6.732s-3.014,6.732-6.731,6.732c-3.719,0-6.732-3.015-6.732-6.732S650.999,472.644,654.718,472.644z
	 M654.718,420.645c3.718,0,6.731,3.014,6.731,6.731s-3.014,6.732-6.731,6.732c-3.719,0-6.732-3.015-6.732-6.732
	S650.999,420.645,654.718,420.645z M654.718,368.643c3.718,0,6.731,3.014,6.731,6.732s-3.014,6.732-6.731,6.732
	c-3.719,0-6.732-3.014-6.732-6.732S650.999,368.643,654.718,368.643z M654.718,316.643c3.718,0,6.731,3.014,6.731,6.732
	s-3.014,6.732-6.731,6.732c-3.719,0-6.732-3.014-6.732-6.732S650.999,316.643,654.718,316.643z M654.718,264.643
	c3.718,0,6.731,3.014,6.731,6.732s-3.014,6.732-6.731,6.732c-3.719,0-6.732-3.014-6.732-6.732S650.999,264.643,654.718,264.643z
	 M711.287,642.108c-3.719,0-6.731-3.02-6.731-6.732c0-3.719,3.017-6.732,6.731-6.732c3.716,0,6.729,3.018,6.729,6.732
	C718.02,639.093,715.007,642.108,711.287,642.108z M711.287,590.108c-3.719,0-6.731-3.02-6.731-6.732
	c0-3.719,3.017-6.732,6.731-6.732c3.716,0,6.729,3.018,6.729,6.732C718.02,587.093,715.007,590.108,711.287,590.108z
	 M711.287,538.108c-3.719,0-6.731-3.02-6.731-6.732c0-3.719,3.017-6.732,6.731-6.732c3.716,0,6.729,3.018,6.729,6.732
	C718.02,535.093,715.007,538.108,711.287,538.108z M711.287,486.108c-3.719,0-6.731-3.02-6.731-6.732
	c0-3.719,3.017-6.732,6.731-6.732c3.716,0,6.729,3.018,6.729,6.732C718.02,483.093,715.007,486.108,711.287,486.108z
	 M711.287,434.108c-3.719,0-6.731-3.02-6.731-6.732c0-3.719,3.017-6.731,6.731-6.731c3.716,0,6.729,3.017,6.729,6.731
	C718.02,431.093,715.007,434.108,711.287,434.108z M711.287,368.643c3.719,0,6.732,3.014,6.732,6.732s-3.014,6.732-6.732,6.732
	c-3.718,0-6.731-3.014-6.731-6.732S707.569,368.643,711.287,368.643z M711.287,316.643c3.719,0,6.732,3.014,6.732,6.732
	s-3.014,6.732-6.732,6.732c-3.718,0-6.731-3.014-6.731-6.732S707.569,316.643,711.287,316.643z M711.287,264.643
	c3.719,0,6.732,3.014,6.732,6.732s-3.014,6.732-6.732,6.732c-3.718,0-6.731-3.014-6.731-6.732S707.569,264.643,711.287,264.643z
	 M767.858,642.108c-3.722,0-6.732-3.02-6.732-6.732c0-3.719,3.015-6.732,6.732-6.732s6.729,3.018,6.729,6.732
	C774.591,639.093,771.577,642.108,767.858,642.108z M767.858,590.108c-3.722,0-6.732-3.02-6.732-6.732
	c0-3.719,3.015-6.732,6.732-6.732s6.729,3.018,6.729,6.732C774.591,587.093,771.577,590.108,767.858,590.108z M767.858,538.108
	c-3.722,0-6.732-3.02-6.732-6.732c0-3.719,3.015-6.732,6.732-6.732s6.729,3.018,6.729,6.732
	C774.591,535.093,771.577,538.108,767.858,538.108z M767.858,486.108c-3.722,0-6.732-3.02-6.732-6.732
	c0-3.719,3.015-6.732,6.732-6.732s6.729,3.018,6.729,6.732C774.591,483.093,771.577,486.108,767.858,486.108z M767.858,434.108
	c-3.722,0-6.732-3.02-6.732-6.732c0-3.719,3.015-6.731,6.732-6.731s6.729,3.017,6.729,6.731
	C774.591,431.093,771.577,434.108,767.858,434.108z M767.858,382.107c-3.722,0-6.732-3.016-6.732-6.732s3.015-6.732,6.732-6.732
	s6.729,3.016,6.729,6.732S771.577,382.107,767.858,382.107z M767.858,330.107c-3.722,0-6.732-3.016-6.732-6.732
	s3.015-6.732,6.732-6.732s6.729,3.016,6.729,6.732S771.577,330.107,767.858,330.107z M767.858,278.107
	c-3.722,0-6.732-3.014-6.732-6.732s3.015-6.732,6.732-6.732s6.729,3.014,6.729,6.732S771.577,278.107,767.858,278.107z
	 M824.428,628.644c3.718,0,6.731,3.015,6.731,6.732s-3.014,6.732-6.731,6.732s-6.732-3.015-6.732-6.732
	S820.711,628.644,824.428,628.644z M824.428,576.644c3.718,0,6.731,3.015,6.731,6.732s-3.014,6.732-6.731,6.732
	s-6.732-3.015-6.732-6.732S820.711,576.644,824.428,576.644z M824.428,524.644c3.718,0,6.731,3.015,6.731,6.732
	s-3.014,6.732-6.731,6.732s-6.732-3.015-6.732-6.732S820.711,524.644,824.428,524.644z M824.428,472.644
	c3.718,0,6.731,3.015,6.731,6.732s-3.014,6.732-6.731,6.732s-6.732-3.015-6.732-6.732S820.711,472.644,824.428,472.644z
	 M824.428,420.645c3.718,0,6.731,3.014,6.731,6.731s-3.014,6.732-6.731,6.732s-6.732-3.015-6.732-6.732
	S820.711,420.645,824.428,420.645z M824.428,368.643c3.718,0,6.731,3.014,6.731,6.732s-3.014,6.732-6.731,6.732
	s-6.732-3.014-6.732-6.732S820.711,368.643,824.428,368.643z M824.428,316.643c3.718,0,6.731,3.014,6.731,6.732
	s-3.014,6.732-6.731,6.732s-6.732-3.014-6.732-6.732S820.711,316.643,824.428,316.643z M824.428,264.643
	c3.718,0,6.731,3.014,6.731,6.732s-3.014,6.732-6.731,6.732s-6.732-3.014-6.732-6.732S820.711,264.643,824.428,264.643z
	 M880.999,628.644c3.719,0,6.732,3.015,6.732,6.732s-3.014,6.732-6.732,6.732c-3.718,0-6.731-3.015-6.731-6.732
	S877.281,628.644,880.999,628.644z M880.999,576.644c3.719,0,6.732,3.015,6.732,6.732s-3.014,6.732-6.732,6.732
	c-3.718,0-6.731-3.015-6.731-6.732S877.281,576.644,880.999,576.644z M880.999,524.644c3.719,0,6.732,3.015,6.732,6.732
	s-3.014,6.732-6.732,6.732c-3.718,0-6.731-3.015-6.731-6.732S877.281,524.644,880.999,524.644z M880.999,472.644
	c3.719,0,6.732,3.015,6.732,6.732s-3.014,6.732-6.732,6.732c-3.718,0-6.731-3.015-6.731-6.732S877.281,472.644,880.999,472.644z
	 M880.999,420.645c3.719,0,6.732,3.014,6.732,6.731s-3.014,6.732-6.732,6.732c-3.718,0-6.731-3.015-6.731-6.732
	S877.281,420.645,880.999,420.645z M880.999,368.643c3.719,0,6.732,3.014,6.732,6.732s-3.014,6.732-6.732,6.732
	c-3.718,0-6.731-3.014-6.731-6.732S877.281,368.643,880.999,368.643z M880.999,316.643c3.719,0,6.732,3.014,6.732,6.732
	s-3.014,6.732-6.732,6.732c-3.718,0-6.731-3.014-6.731-6.732S877.281,316.643,880.999,316.643z M880.999,264.643
	c3.719,0,6.732,3.014,6.732,6.732s-3.014,6.732-6.732,6.732c-3.718,0-6.731-3.014-6.731-6.732S877.281,264.643,880.999,264.643z
	 M937.569,642.108c-3.722,0-6.731-3.02-6.731-6.732c0-3.719,3.014-6.732,6.731-6.732s6.729,3.018,6.729,6.732
	C944.302,639.093,941.288,642.108,937.569,642.108z M937.569,590.108c-3.722,0-6.731-3.02-6.731-6.732
	c0-3.719,3.014-6.732,6.731-6.732s6.729,3.018,6.729,6.732C944.302,587.093,941.288,590.108,937.569,590.108z M937.569,538.108
	c-3.722,0-6.731-3.02-6.731-6.732c0-3.719,3.014-6.732,6.731-6.732s6.729,3.018,6.729,6.732
	C944.302,535.093,941.288,538.108,937.569,538.108z M937.569,486.108c-3.722,0-6.731-3.02-6.731-6.732
	c0-3.719,3.014-6.732,6.731-6.732s6.729,3.018,6.729,6.732C944.302,483.093,941.288,486.108,937.569,486.108z M937.569,434.108
	c-3.722,0-6.731-3.02-6.731-6.732c0-3.719,3.014-6.731,6.731-6.731s6.729,3.017,6.729,6.731
	C944.302,431.093,941.288,434.108,937.569,434.108z M937.569,382.107c-3.722,0-6.731-3.016-6.731-6.732s3.014-6.732,6.731-6.732
	s6.729,3.016,6.729,6.732S941.288,382.107,937.569,382.107z M937.569,330.107c-3.722,0-6.731-3.016-6.731-6.732
	s3.014-6.732,6.731-6.732s6.729,3.016,6.729,6.732S941.288,330.107,937.569,330.107z M937.569,278.107
	c-3.722,0-6.731-3.014-6.731-6.732s3.014-6.732,6.731-6.732s6.729,3.014,6.729,6.732S941.288,278.107,937.569,278.107z
	 M994.139,642.108c-3.719,0-6.729-3.02-6.729-6.732c0-3.719,3.015-6.732,6.729-6.732c3.721,0,6.731,3.018,6.731,6.732
	C1000.872,639.093,997.858,642.108,994.139,642.108z M994.139,590.108c-3.719,0-6.729-3.02-6.729-6.732
	c0-3.719,3.015-6.732,6.729-6.732c3.721,0,6.731,3.018,6.731,6.732C1000.872,587.093,997.858,590.108,994.139,590.108z
	 M994.139,538.108c-3.719,0-6.729-3.02-6.729-6.732c0-3.719,3.015-6.732,6.729-6.732c3.721,0,6.731,3.018,6.731,6.732
	C1000.872,535.093,997.858,538.108,994.139,538.108z M994.139,486.108c-3.719,0-6.729-3.02-6.729-6.732
	c0-3.719,3.015-6.732,6.729-6.732c3.721,0,6.731,3.018,6.731,6.732C1000.872,483.093,997.858,486.108,994.139,486.108z
	 M994.139,434.108c-3.719,0-6.729-3.02-6.729-6.732c0-3.719,3.015-6.731,6.729-6.731c3.721,0,6.731,3.017,6.731,6.731
	C1000.872,431.093,997.858,434.108,994.139,434.108z M994.139,382.107c-3.719,0-6.729-3.016-6.729-6.732s3.015-6.732,6.729-6.732
	c3.721,0,6.731,3.016,6.731,6.732S997.858,382.107,994.139,382.107z M994.139,330.107c-3.719,0-6.729-3.016-6.729-6.732
	s3.015-6.732,6.729-6.732c3.721,0,6.731,3.016,6.731,6.732S997.858,330.107,994.139,330.107z M994.139,278.107
	c-3.719,0-6.729-3.014-6.729-6.732s3.015-6.732,6.729-6.732c3.721,0,6.731,3.014,6.731,6.732S997.858,278.107,994.139,278.107z
	 M1050.71,680.644c3.718,0,6.731,3.015,6.731,6.732s-3.014,6.732-6.731,6.732c-3.719,0-6.732-3.015-6.732-6.732
	S1046.991,680.644,1050.71,680.644z M1050.71,628.644c3.718,0,6.731,3.015,6.731,6.732s-3.014,6.732-6.731,6.732
	c-3.719,0-6.732-3.015-6.732-6.732S1046.991,628.644,1050.71,628.644z M1050.71,576.644c3.718,0,6.731,3.015,6.731,6.732
	s-3.014,6.732-6.731,6.732c-3.719,0-6.732-3.015-6.732-6.732S1046.991,576.644,1050.71,576.644z M1050.71,524.644
	c3.718,0,6.731,3.015,6.731,6.732s-3.014,6.732-6.731,6.732c-3.719,0-6.732-3.015-6.732-6.732S1046.991,524.644,1050.71,524.644z
	 M1050.71,472.644c3.718,0,6.731,3.015,6.731,6.732s-3.014,6.732-6.731,6.732c-3.719,0-6.732-3.015-6.732-6.732
	S1046.991,472.644,1050.71,472.644z M1050.71,420.645c3.718,0,6.731,3.014,6.731,6.731s-3.014,6.732-6.731,6.732
	c-3.719,0-6.732-3.015-6.732-6.732S1046.991,420.645,1050.71,420.645z M1050.71,368.643c3.718,0,6.731,3.014,6.731,6.732
	s-3.014,6.732-6.731,6.732c-3.719,0-6.732-3.014-6.732-6.732S1046.991,368.643,1050.71,368.643z M1050.71,316.643
	c3.718,0,6.731,3.014,6.731,6.732s-3.014,6.732-6.731,6.732c-3.719,0-6.732-3.014-6.732-6.732S1046.991,316.643,1050.71,316.643z
	 M1050.71,264.643c3.718,0,6.731,3.014,6.731,6.732s-3.014,6.732-6.731,6.732c-3.719,0-6.732-3.014-6.732-6.732
	S1046.991,264.643,1050.71,264.643z M1107.28,680.644c3.719,0,6.732,3.015,6.732,6.732s-3.014,6.732-6.732,6.732
	c-3.718,0-6.731-3.015-6.731-6.732S1103.562,680.644,1107.28,680.644z M1107.28,628.644c3.719,0,6.732,3.015,6.732,6.732
	s-3.014,6.732-6.732,6.732c-3.718,0-6.731-3.015-6.731-6.732S1103.562,628.644,1107.28,628.644z M1107.28,576.644
	c3.719,0,6.732,3.015,6.732,6.732s-3.014,6.732-6.732,6.732c-3.718,0-6.731-3.015-6.731-6.732S1103.562,576.644,1107.28,576.644z
	 M1107.28,524.644c3.719,0,6.732,3.015,6.732,6.732s-3.014,6.732-6.732,6.732c-3.718,0-6.731-3.015-6.731-6.732
	S1103.562,524.644,1107.28,524.644z M1107.28,472.644c3.719,0,6.732,3.015,6.732,6.732s-3.014,6.732-6.732,6.732
	c-3.718,0-6.731-3.015-6.731-6.732S1103.562,472.644,1107.28,472.644z M1107.28,420.645c3.719,0,6.732,3.014,6.732,6.731
	s-3.014,6.732-6.732,6.732c-3.718,0-6.731-3.015-6.731-6.732S1103.562,420.645,1107.28,420.645z M1107.28,368.643
	c3.719,0,6.732,3.014,6.732,6.732s-3.014,6.732-6.732,6.732c-3.718,0-6.731-3.014-6.731-6.732S1103.562,368.643,1107.28,368.643z
	 M1107.28,316.643c3.719,0,6.732,3.014,6.732,6.732s-3.014,6.732-6.732,6.732c-3.718,0-6.731-3.014-6.731-6.732
	S1103.562,316.643,1107.28,316.643z M1163.85,694.108c-3.719,0-6.729-3.02-6.729-6.732c0-3.719,3.015-6.732,6.729-6.732
	c3.721,0,6.732,3.018,6.732,6.732C1170.583,691.093,1167.569,694.108,1163.85,694.108z M1163.85,642.108
	c-3.719,0-6.729-3.02-6.729-6.732c0-3.719,3.015-6.732,6.729-6.732c3.721,0,6.732,3.018,6.732,6.732
	C1170.583,639.093,1167.569,642.108,1163.85,642.108z M1163.85,590.108c-3.719,0-6.729-3.02-6.729-6.732
	c0-3.719,3.015-6.732,6.729-6.732c3.721,0,6.732,3.018,6.732,6.732C1170.583,587.093,1167.569,590.108,1163.85,590.108z
	 M1163.85,538.108c-3.719,0-6.729-3.02-6.729-6.732c0-3.719,3.015-6.732,6.729-6.732c3.721,0,6.732,3.018,6.732,6.732
	C1170.583,535.093,1167.569,538.108,1163.85,538.108z M1163.85,486.108c-3.719,0-6.729-3.02-6.729-6.732
	c0-3.719,3.015-6.732,6.729-6.732c3.721,0,6.732,3.018,6.732,6.732C1170.583,483.093,1167.569,486.108,1163.85,486.108z
	 M1163.85,434.108c-3.719,0-6.729-3.02-6.729-6.732c0-3.719,3.015-6.731,6.729-6.731c3.721,0,6.732,3.017,6.732,6.731
	C1170.583,431.093,1167.569,434.108,1163.85,434.108z M1163.85,382.107c-3.719,0-6.729-3.016-6.729-6.732s3.015-6.732,6.729-6.732
	c3.721,0,6.732,3.016,6.732,6.732S1167.569,382.107,1163.85,382.107z M1220.421,680.644c3.718,0,6.731,3.015,6.731,6.732
	s-3.014,6.732-6.731,6.732c-3.719,0-6.732-3.015-6.732-6.732S1216.702,680.644,1220.421,680.644z M1220.421,628.644
	c3.718,0,6.731,3.015,6.731,6.732s-3.014,6.732-6.731,6.732c-3.719,0-6.732-3.015-6.732-6.732S1216.702,628.644,1220.421,628.644z
	 M1220.421,576.644c3.718,0,6.731,3.015,6.731,6.732s-3.014,6.732-6.731,6.732c-3.719,0-6.732-3.015-6.732-6.732
	S1216.702,576.644,1220.421,576.644z M1220.421,524.644c3.718,0,6.731,3.015,6.731,6.732s-3.014,6.732-6.731,6.732
	c-3.719,0-6.732-3.015-6.732-6.732S1216.702,524.644,1220.421,524.644z M1220.421,472.644c3.718,0,6.731,3.015,6.731,6.732
	s-3.014,6.732-6.731,6.732c-3.719,0-6.732-3.015-6.732-6.732S1216.702,472.644,1220.421,472.644z M1220.421,420.645
	c3.718,0,6.731,3.014,6.731,6.731s-3.014,6.732-6.731,6.732c-3.719,0-6.732-3.015-6.732-6.732S1216.702,420.645,1220.421,420.645z
	 M1276.991,732.644c3.719,0,6.732,3.015,6.732,6.732s-3.014,6.732-6.732,6.732c-3.718,0-6.731-3.015-6.731-6.732
	S1273.273,732.644,1276.991,732.644z M1276.991,680.644c3.719,0,6.732,3.015,6.732,6.732s-3.014,6.732-6.732,6.732
	c-3.718,0-6.731-3.015-6.731-6.732S1273.273,680.644,1276.991,680.644z M1276.991,628.644c3.719,0,6.732,3.015,6.732,6.732
	s-3.014,6.732-6.732,6.732c-3.718,0-6.731-3.015-6.731-6.732S1273.273,628.644,1276.991,628.644z M1276.991,576.644
	c3.719,0,6.732,3.015,6.732,6.732s-3.014,6.732-6.732,6.732c-3.718,0-6.731-3.015-6.731-6.732S1273.273,576.644,1276.991,576.644z
	 M1276.991,524.644c3.719,0,6.732,3.015,6.732,6.732s-3.014,6.732-6.732,6.732c-3.718,0-6.731-3.015-6.731-6.732
	S1273.273,524.644,1276.991,524.644z M1276.991,472.644c3.719,0,6.732,3.015,6.732,6.732s-3.014,6.732-6.732,6.732
	c-3.718,0-6.731-3.015-6.731-6.732S1273.273,472.644,1276.991,472.644z M1333.561,746.108c-3.719,0-6.729-3.02-6.729-6.732
	c0-3.719,3.014-6.732,6.729-6.732c3.721,0,6.732,3.018,6.732,6.732S1337.28,746.108,1333.561,746.108z M1333.561,694.108
	c-3.719,0-6.729-3.02-6.729-6.732c0-3.719,3.014-6.732,6.729-6.732c3.721,0,6.732,3.018,6.732,6.732
	S1337.28,694.108,1333.561,694.108z M1333.561,642.108c-3.719,0-6.729-3.02-6.729-6.732c0-3.719,3.014-6.732,6.729-6.732
	c3.721,0,6.732,3.018,6.732,6.732S1337.28,642.108,1333.561,642.108z M1333.561,590.108c-3.719,0-6.729-3.02-6.729-6.732
	c0-3.719,3.014-6.732,6.729-6.732c3.721,0,6.732,3.018,6.732,6.732S1337.28,590.108,1333.561,590.108z M1390.132,732.644
	c3.718,0,6.731,3.015,6.731,6.732s-3.014,6.732-6.731,6.732c-3.719,0-6.732-3.015-6.732-6.732S1386.413,732.644,1390.132,732.644z
	 M1390.132,680.644c3.718,0,6.731,3.015,6.731,6.732s-3.014,6.732-6.731,6.732c-3.719,0-6.732-3.015-6.732-6.732
	S1386.413,680.644,1390.132,680.644z M1446.703,732.645c3.718,0,6.731,3.014,6.731,6.731s-3.014,6.731-6.731,6.731
	c-3.717,0-6.73-3.014-6.73-6.731S1442.986,732.645,1446.703,732.645z M994.139,160.643c3.722,0,6.731,3.014,6.731,6.732
	s-3.014,6.732-6.731,6.732s-6.729-3.014-6.729-6.732S990.421,160.643,994.139,160.643z M937.569,160.643
	c3.719,0,6.729,3.014,6.729,6.732s-3.015,6.732-6.729,6.732c-3.721,0-6.731-3.014-6.731-6.732S933.85,160.643,937.569,160.643z
	 M880.999,160.643c3.719,0,6.732,3.014,6.732,6.732s-3.014,6.732-6.732,6.732c-3.718,0-6.731-3.014-6.731-6.732
	S877.281,160.643,880.999,160.643z M824.428,108.643c3.718,0,6.731,3.014,6.731,6.732s-3.014,6.732-6.731,6.732
	s-6.732-3.014-6.732-6.732S820.711,108.643,824.428,108.643z M824.428,160.643c3.718,0,6.731,3.014,6.731,6.732
	s-3.014,6.732-6.731,6.732s-6.732-3.014-6.732-6.732S820.711,160.643,824.428,160.643z M767.858,108.643
	c3.719,0,6.729,3.014,6.729,6.732s-3.015,6.732-6.729,6.732c-3.721,0-6.732-3.014-6.732-6.732S764.139,108.643,767.858,108.643z
	 M767.858,160.643c3.719,0,6.729,3.014,6.729,6.732s-3.015,6.732-6.729,6.732c-3.721,0-6.732-3.014-6.732-6.732
	S764.139,160.643,767.858,160.643z M767.858,212.643c3.719,0,6.729,3.014,6.729,6.732s-3.015,6.732-6.729,6.732
	c-3.721,0-6.732-3.014-6.732-6.732S764.139,212.643,767.858,212.643z M711.287,108.643c3.719,0,6.732,3.014,6.732,6.732
	s-3.014,6.732-6.732,6.732c-3.718,0-6.731-3.014-6.731-6.732S707.569,108.643,711.287,108.643z M711.287,160.643
	c3.719,0,6.732,3.014,6.732,6.732s-3.014,6.732-6.732,6.732c-3.718,0-6.731-3.014-6.731-6.732S707.569,160.643,711.287,160.643z
	 M711.287,212.643c3.719,0,6.732,3.014,6.732,6.732s-3.014,6.732-6.732,6.732c-3.718,0-6.731-3.014-6.731-6.732
	S707.569,212.643,711.287,212.643z M654.718,56.643c3.718,0,6.731,3.014,6.731,6.732s-3.014,6.732-6.731,6.732
	c-3.719,0-6.732-3.014-6.732-6.732S650.999,56.643,654.718,56.643z M654.718,108.643c3.718,0,6.731,3.014,6.731,6.732
	s-3.014,6.732-6.731,6.732c-3.719,0-6.732-3.014-6.732-6.732S650.999,108.643,654.718,108.643z M654.718,160.643
	c3.718,0,6.731,3.014,6.731,6.732s-3.014,6.732-6.731,6.732c-3.719,0-6.732-3.014-6.732-6.732S650.999,160.643,654.718,160.643z
	 M654.718,212.643c3.718,0,6.731,3.014,6.731,6.732s-3.014,6.732-6.731,6.732c-3.719,0-6.732-3.014-6.732-6.732
	S650.999,212.643,654.718,212.643z M598.146,56.643c3.719,0,6.729,3.014,6.729,6.732s-3.015,6.732-6.729,6.732
	c-3.721,0-6.732-3.014-6.732-6.732S594.428,56.643,598.146,56.643z M598.146,108.643c3.719,0,6.729,3.014,6.729,6.732
	s-3.015,6.732-6.729,6.732c-3.721,0-6.732-3.014-6.732-6.732S594.428,108.643,598.146,108.643z M598.146,160.643
	c3.719,0,6.729,3.014,6.729,6.732s-3.015,6.732-6.729,6.732c-3.721,0-6.732-3.014-6.732-6.732S594.428,160.643,598.146,160.643z
	 M598.146,212.643c3.719,0,6.729,3.014,6.729,6.732s-3.015,6.732-6.729,6.732c-3.721,0-6.732-3.014-6.732-6.732
	S594.428,212.643,598.146,212.643z M541.576,56.643c3.718,0,6.732,3.014,6.732,6.732s-3.015,6.732-6.732,6.732
	s-6.731-3.014-6.731-6.732S537.858,56.643,541.576,56.643z M541.576,108.643c3.718,0,6.732,3.014,6.732,6.732
	s-3.015,6.732-6.732,6.732s-6.731-3.014-6.731-6.732S537.858,108.643,541.576,108.643z M541.576,160.643
	c3.718,0,6.732,3.014,6.732,6.732s-3.015,6.732-6.732,6.732s-6.731-3.014-6.731-6.732S537.858,160.643,541.576,160.643z
	 M541.576,212.643c3.718,0,6.732,3.014,6.732,6.732s-3.015,6.732-6.732,6.732s-6.731-3.014-6.731-6.732
	S537.858,212.643,541.576,212.643z M485.007,56.643c3.718,0,6.731,3.014,6.731,6.732s-3.014,6.732-6.731,6.732
	c-3.719,0-6.732-3.014-6.732-6.732S481.288,56.643,485.007,56.643z M485.007,108.643c3.718,0,6.731,3.014,6.731,6.732
	s-3.014,6.732-6.731,6.732c-3.719,0-6.732-3.014-6.732-6.732S481.288,108.643,485.007,108.643z M485.007,160.643
	c3.718,0,6.731,3.014,6.731,6.732s-3.014,6.732-6.731,6.732c-3.719,0-6.732-3.014-6.732-6.732S481.288,160.643,485.007,160.643z
	 M485.007,212.643c3.718,0,6.731,3.014,6.731,6.732s-3.014,6.732-6.731,6.732c-3.719,0-6.732-3.014-6.732-6.732
	S481.288,212.643,485.007,212.643z M485.007,264.643c3.718,0,6.731,3.014,6.731,6.732s-3.014,6.732-6.731,6.732
	c-3.719,0-6.732-3.014-6.732-6.732S481.288,264.643,485.007,264.643z M428.436,56.643c3.722,0,6.732,3.014,6.732,6.732
	s-3.015,6.732-6.732,6.732s-6.729-3.014-6.729-6.732S424.718,56.643,428.436,56.643z M428.436,108.643
	c3.722,0,6.732,3.014,6.732,6.732s-3.015,6.732-6.732,6.732s-6.729-3.014-6.729-6.732S424.718,108.643,428.436,108.643z
	 M428.436,160.643c3.722,0,6.732,3.014,6.732,6.732s-3.015,6.732-6.732,6.732s-6.729-3.014-6.729-6.732
	S424.718,160.643,428.436,160.643z M428.436,212.643c3.722,0,6.732,3.014,6.732,6.732s-3.015,6.732-6.732,6.732
	s-6.729-3.014-6.729-6.732S424.718,212.643,428.436,212.643z M428.436,264.643c3.722,0,6.732,3.014,6.732,6.732
	s-3.015,6.732-6.732,6.732s-6.729-3.014-6.729-6.732S424.718,264.643,428.436,264.643z M371.865,56.643
	c3.718,0,6.732,3.014,6.732,6.732s-3.015,6.732-6.732,6.732s-6.731-3.014-6.731-6.732S368.147,56.643,371.865,56.643z
	 M371.865,108.643c3.718,0,6.732,3.014,6.732,6.732s-3.015,6.732-6.732,6.732s-6.731-3.014-6.731-6.732
	S368.147,108.643,371.865,108.643z M371.865,160.643c3.718,0,6.732,3.014,6.732,6.732s-3.015,6.732-6.732,6.732
	s-6.731-3.014-6.731-6.732S368.147,160.643,371.865,160.643z M371.865,212.643c3.718,0,6.732,3.014,6.732,6.732
	s-3.015,6.732-6.732,6.732s-6.731-3.014-6.731-6.732S368.147,212.643,371.865,212.643z M371.865,264.643
	c3.718,0,6.732,3.014,6.732,6.732s-3.015,6.732-6.732,6.732s-6.731-3.014-6.731-6.732S368.147,264.643,371.865,264.643z
	 M371.865,316.643c3.718,0,6.732,3.014,6.732,6.732s-3.015,6.732-6.732,6.732s-6.731-3.014-6.731-6.732
	S368.147,316.643,371.865,316.643z M315.296,108.643c3.718,0,6.731,3.014,6.731,6.732s-3.014,6.732-6.731,6.732
	c-3.719,0-6.732-3.014-6.732-6.732S311.577,108.643,315.296,108.643z M315.296,160.643c3.718,0,6.731,3.014,6.731,6.732
	s-3.014,6.732-6.731,6.732c-3.719,0-6.732-3.014-6.732-6.732S311.577,160.643,315.296,160.643z M315.296,212.643
	c3.718,0,6.731,3.014,6.731,6.732s-3.014,6.732-6.731,6.732c-3.719,0-6.732-3.014-6.732-6.732S311.577,212.643,315.296,212.643z
	 M315.296,264.643c3.718,0,6.731,3.014,6.731,6.732s-3.014,6.732-6.731,6.732c-3.719,0-6.732-3.014-6.732-6.732
	S311.577,264.643,315.296,264.643z M315.296,316.643c3.718,0,6.731,3.014,6.731,6.732s-3.014,6.732-6.731,6.732
	c-3.719,0-6.732-3.014-6.732-6.732S311.577,316.643,315.296,316.643z M258.725,160.643c3.718,0,6.731,3.014,6.731,6.732
	s-3.014,6.732-6.731,6.732c-3.719,0-6.732-3.014-6.732-6.732S255.007,160.643,258.725,160.643z M258.725,212.643
	c3.718,0,6.731,3.014,6.731,6.732s-3.014,6.732-6.731,6.732c-3.719,0-6.732-3.014-6.732-6.732S255.007,212.643,258.725,212.643z
	 M258.725,264.643c3.718,0,6.731,3.014,6.731,6.732s-3.014,6.732-6.731,6.732c-3.719,0-6.732-3.014-6.732-6.732
	S255.007,264.643,258.725,264.643z M258.725,316.643c3.718,0,6.731,3.014,6.731,6.732s-3.014,6.732-6.731,6.732
	c-3.719,0-6.732-3.014-6.732-6.732S255.007,316.643,258.725,316.643z M258.725,368.643c3.718,0,6.731,3.014,6.731,6.732
	s-3.014,6.732-6.731,6.732c-3.719,0-6.732-3.014-6.732-6.732S255.007,368.643,258.725,368.643z M202.154,212.643
	c3.718,0,6.732,3.014,6.732,6.732s-3.015,6.732-6.732,6.732s-6.732-3.014-6.732-6.732S198.436,212.643,202.154,212.643z
	 M202.154,264.643c3.718,0,6.732,3.014,6.732,6.732s-3.015,6.732-6.732,6.732s-6.732-3.014-6.732-6.732
	S198.436,264.643,202.154,264.643z M202.154,316.643c3.718,0,6.732,3.014,6.732,6.732s-3.015,6.732-6.732,6.732
	s-6.732-3.014-6.732-6.732S198.436,316.643,202.154,316.643z M202.154,368.643c3.718,0,6.732,3.014,6.732,6.732
	s-3.015,6.732-6.732,6.732s-6.732-3.014-6.732-6.732S198.436,368.643,202.154,368.643z M202.154,420.645
	c3.718,0,6.732,3.014,6.732,6.731s-3.015,6.732-6.732,6.732s-6.732-3.015-6.732-6.732S198.436,420.645,202.154,420.645z
	 M145.584,264.643c3.718,0,6.732,3.014,6.732,6.732s-3.015,6.732-6.732,6.732s-6.731-3.014-6.731-6.732
	S141.866,264.643,145.584,264.643z M145.584,316.643c3.718,0,6.732,3.014,6.732,6.732s-3.015,6.732-6.732,6.732
	s-6.731-3.014-6.731-6.732S141.866,316.643,145.584,316.643z M145.584,368.643c3.718,0,6.732,3.014,6.732,6.732
	s-3.015,6.732-6.732,6.732s-6.731-3.014-6.731-6.732S141.866,368.643,145.584,368.643z M145.584,420.645
	c3.718,0,6.732,3.014,6.732,6.731s-3.015,6.732-6.732,6.732s-6.731-3.015-6.731-6.732S141.866,420.645,145.584,420.645z
	 M32.443,368.643c3.718,0,6.731,3.014,6.731,6.732s-3.014,6.732-6.731,6.732s-6.732-3.014-6.732-6.732
	S28.725,368.643,32.443,368.643z M89.013,420.645c3.718,0,6.731,3.014,6.731,6.731s-3.014,6.732-6.731,6.732
	c-3.719,0-6.732-3.015-6.732-6.732S85.295,420.645,89.013,420.645z M89.014,368.643c3.718,0,6.731,3.014,6.731,6.732
	s-3.014,6.732-6.731,6.732c-3.719,0-6.732-3.014-6.732-6.732S85.296,368.643,89.014,368.643z M89.014,316.643
	c3.718,0,6.731,3.014,6.731,6.732s-3.014,6.732-6.731,6.732c-3.719,0-6.732-3.014-6.732-6.732S85.296,316.643,89.014,316.643z
	 M107.015,492.301c4.491,5.224,1.44,12.302-2.029,17.129c14.532,12.781,26.301,24.389,35.146,34.797
	c4.799,5.639,7.398,8.84,7.801,9.604c0.542,1.102,4.828,15.156,6.373,22.709c2.977,14.842,4.971,34.396,5.889,58.623
	c0.508,13.399,1.357,35.824,0.787,40.223c-0.128,0.992-0.285,8.402-0.394,22.045c-0.352,45.859-0.605,71.755-0.792,77.613
	l-0.396,11.107c-0.089,2.381,0.353,6.021,1.204,10.818l17.008,2.416c0.01,0,48.896-14.516,72.567-20.691
	c24.396-6.371,48.422-14.062,72.698-20.859c56.794-15.91,117.486-35.225,174.073-51.83c36.764-10.789,127.088-37.477,152.146-41.365
	c6.669-1.036,13.222-2.691,19.646-4.736c4.116-1.312,14.773-3.189,32.001-5.57c12.21-1.689,24.666,0.656,36.857-1.224
	c2.307-0.354,40.093,3.94,75.173,9.479c55.528,8.779,87.562,14.229,96.023,16.373c55.518,14.058,112.771,19.541,168.684,31.717
	l10.716,2.334c45.438,9.896,98.339,21.416,135.697,32.312c28.312,8.258,57.393,13.559,85.824,21.354
	c19.566,5.367,45.31,11.648,68.028,17.195c8.603,2.1,16.339,4.096,23.188,5.92c14.091,3.68,21.78,5.766,23.165,6.08
	c6.706,1.526,20.104,5.539,20.208,4.148c0.334-4.413,1.396-8.682,3.296-12.686l7.45-10.305l12.207-5.093
	c2.729-1.169,5.886-4.062,9.546-8.702c1.854-2.354-16.334-31.738-25.537-47.031l-32.051-53.265c-1.201-1.996-2.224-4.1-3.442-6.08
	c-26.396-42.832-61.896-95.764-106.521-158.857l-6.546-9.176c-12.802-17.943-26.354-35.33-40.013-52.627
	c-19.451-24.631-42.91-54.338-59.243-73.18c-33.742-38.925-67.994-77.628-107.271-111.094c-8.921-7.602-16.146-16.951-24.704-24.933
	c-3.544-3.304-6.878-7.071-10.249-9.841l-0.003,0.006c-7.086-6.733-12.593-17.687-7.315-27.037
	c3.997-7.084,12.487-10.782,18.938-15.214c8.022-5.512,12.813-14.031,12.813-23.83c0-17.22-13.96-31.18-31.181-31.18
	c-5.199,0-10.592,1.307-15.108,3.872c-3.886,2.207-7.32,5.186-9.941,8.811c-2.516,3.477-4.214,7.529-7.365,10.527
	c-6.418,6.105-16.243,6.92-24.635,6.139c-21.317-7.537-42.982-14.064-64.354-21.459l-4.562-1.58
	c-13.693-4.739-27.55-9.008-41.188-13.912c-21.73-7.816-43.839-14.542-66.104-20.663c-32.979-9.065-62.706-19.587-96.652-29.871
	c-25.495-7.724-102.878-31.188-155.491-42.192c-40.853-8.542-82.598-17.274-123.646-19.21c-5.699-0.269-9.663-0.04-11.91,0.546
	c-1.257,0.382-34.325,19.536-64.576,42.458c-15.652,11.861-61.077,49.683-91.331,74.872c-19.05,15.861-30.111,25.083-33.268,27.603
	c-36.253,28.648-64.154,51.771-83.73,69.154c-6.04,5.44-11.512,10.225-16.345,14.344c-18.78,16.262-29.652,25.822-32.627,28.608
	c-14.285,13.382-29.333,25.924-43.646,39.276C30.872,331.87,9.636,352.665,4.241,359.69c-2.065,2.688-4.566,6.429-3.874,9.222
	c0.667,2.687,3.54,6.484,6.262,8.98l8.585,7.878c6.602,6.033,14.257,15.123,22.887,27.205c11.48,16.078,25.855,29.777,38.498,44.91
	c7.444,8.91,21.312,25.451,21.857,27.121c0.201,0.614,4.07,4.187,8.553,7.29L107.015,492.301z"/>
</svg>
