<?xml version="1.0" encoding="utf-8"?>
<!-- Generator: Adobe Illustrator 16.0.0, SVG Export Plug-In . SVG Version: 6.00 Build 0)  -->
<!DOCTYPE svg PUBLIC "-//W3C//DTD SVG 1.1//EN" "http://www.w3.org/Graphics/SVG/1.1/DTD/svg11.dtd">
<svg version="1.1" id="Layer_1" xmlns="http://www.w3.org/2000/svg" xmlns:xlink="http://www.w3.org/1999/xlink" x="0px" y="0px"
	 width="1877.699px" height="1503.555px" viewBox="0 0 1877.699 1503.555" enable-background="new 0 0 1877.699 1503.555"
	 xml:space="preserve">
<path fill="none" stroke="#000000" stroke-linejoin="round" stroke-miterlimit="10" d="M605.411,1493.642l-2.805-4.248
	c-21.56-32.661-59.356-89.936-60.249-100.692c-0.054-0.613-0.167-1.195-0.188-1.744c-0.059-1.617,2.129-21.445,3.193-32.168
	l0.415-4.178c1.11-8.095,1.699-15.777,1.832-23.088c0.4-22.701-4.251-45.293-8.844-67.57l-2.646-12.848l-2.55-12.812
	c-1.514-7.408-2.353-11.711-2.646-12.846l-5.016-20.726c-2.328-9.623-3.404-19.508-5.796-29.113
	c-0.181-0.714-5.244-22.051-15.104-63.979c-3.292-14.213-8.78-35.43-16.396-63.684c-5.32-19.732-10.206-39.586-14.17-59.642
	c-1.6-8.088-4.139-20.936-4.484-24.317l-1.086-10.56c-1.044-10.137-2.668-25.922-0.483-30.51l7.521-19.479
	c3.054-9.887,11.798-29.467,26.423-58.678c5.526-11.053,10.662-20.406,15.436-28c1.302-2.063-1.297-3.428-3.146-3.291
	c-5.604,0.418-11.172,1.24-16.783,1.562l-36.439,2.092c-4.518,0.258-13.155,0.213-13.547,0.826
	c-0.212,0.338-4.938,0.229-7.412,0.316l-5.479,0.2c-1.192,0.006-2.956-0.354-5.29-1.084c0.391-0.184,11.401-1.483,32.904-3.844
	c20.08-2.164,34.354-3.974,42.82-5.267c16.934-2.589,50.646-5.02,50.744-8.057c0.438-13.088-0.843-28.154-0.869-39.248
	c-0.062-27.434,0.454-50.825-0.413-77.209c-0.438-13.418-0.445-26.852-1.266-40.256c-0.168-2.754-1.836-5.598-0.559-8.258
	c1.483-3.09-3.461-12.379-6.841-11.103l-10.357,3.859c-3.443,1.312-13.861,4.877-31.322,10.9
	c-20.575,7.016-30.927,10.842-31.354,10.996c-18.668,6.646-35.742,13.014-56.469,19.198c-0.152,0.045-0.291,0.059-0.484,0.148
	l10.262-5.248l10.321-3.604c34.505-12.086,112.021-43.7,112.153-43.925c0.525-0.88,1.021-2.593,1.405-3.933
	c0.578-2.003-4.274-27.101-6.539-40.629c-1.693-10.146-11.23-19.541-19.263-27.449c-9.01-8.873-16.828-16.26-25.573-25.4
	c-0.794-0.83-13.979,5.368-20.19,7.931c-90.186,37.181-201.964,85.537-287.58,124.201c-16.25,7.339-24.252,12.301-37.469,20.553
	c-5.434,3.393-9.593,8.399-14.605,12.338c-10.658,8.371-31.437,28.854-78.092,81.9c-12.909,14.677-25.573,29.855-38.164,44.951
	c-5.124,6.144-14.723,17.429-15.321,18.472L0,836.074l5.881,10.758c20.398,11.146,34.829,19.775,43.231,25.758l11.788,7.25
	c8.136,4.916,20.607,13.277,37.484,24.891c15.48,10.685,26.76,20.562,33.868,29.705l6.951,8.98l6.722,7.652l19.997,42.312
	c5.577,11.801,10.529,23.885,15.077,36.117c0.882,2.371,2.844,6.858,6.043,13.629c16.002,33.859,30.037,68.613,46.039,102.473
	l44.572,96c3.227,6.953,5.902,14.146,8.967,21.166c7.693,17.627,11.999,28.255,13.047,31.82c1.376,4.766,2.164,8.455,2.329,11.164
	c0.427,5.451,0.214,9.215-0.604,11.192c-1.529,3.671-9.914,11.375-25.212,22.984l-9.108,7.012c-1.998,1.502-4.442,4.25-7.398,8.273
	c-1.582,2.156,0.38,4.768,1.468,6.475c0.711,1.117,2.479,2.892,7.108,4.767c1.83,0.737,6.16,2.844,9.212,4.323
	c14.196,6.896,29.231,11.865,43.621,18.326c89.307,40.107,256.46,118.047,270.929,113.26c1.911-0.635,3.914,1.337,5.787,0.449
	c1.372-0.646,3.663,2.01,4.35-0.062C603.162,1499.688,607.631,1497.007,605.411,1493.642z M456.299,1295.74
	c-26.496,12.521-58.017,1.426-70.4-24.783c-12.389-26.209-0.947-57.605,25.549-70.127c26.496-12.523,58.017-1.428,70.399,24.781
	C494.233,1251.82,482.795,1283.218,456.299,1295.74z M1819.97,662.693c-1.201-1.996-2.223-4.099-3.441-6.08
	c-26.396-42.832-61.896-95.763-106.521-158.857l-6.547-9.176c-12.801-17.943-26.354-35.33-40.012-52.627
	c-19.451-24.631-42.91-54.338-59.242-73.18c-33.744-38.925-67.996-77.628-107.271-111.094c-8.921-7.602-16.146-16.951-24.704-24.933
	c-6.768-6.309-12.768-14.308-19.732-13.82c-138.775,9.717-276.562,23.954-414.354,32.984c-23.423,1.535-69.452,7.337-73.487,7.767
	c-0.703,0.075-17.328,5.958-33.5,12.839c-4.159,1.771-12.195,5.469-16.661,7.999c-132.58,75.117-268.536,151.699-399.93,228.363
	c-2.062,1.203-5.051,3.226-8.829,6.303c14.529,12.781,26.301,24.388,35.146,34.798c4.798,5.637,7.398,8.838,7.8,9.604
	c0.542,1.102,4.828,15.156,6.373,22.709c2.979,14.842,4.974,34.396,5.892,58.623c0.508,13.4,1.354,35.824,0.786,40.223
	c-0.13,0.992-0.284,8.402-0.395,22.045c-0.352,45.859-0.604,71.755-0.792,77.613l-0.396,11.107
	c-0.092,2.381,0.353,6.021,1.202,10.819l17.01,2.416c0.01,0,48.896-14.516,72.564-20.692c24.396-6.371,48.422-14.062,72.698-20.859
	c56.794-15.91,117.487-35.225,174.074-51.83c36.763-10.789,127.089-37.477,152.144-41.365c6.67-1.036,13.221-2.692,19.648-4.737
	c4.112-1.312,14.771-3.189,32-5.57c12.211-1.689,24.666,0.656,36.857-1.224c2.307-0.354,40.091,3.941,75.171,9.48
	c55.53,8.779,87.562,14.229,96.024,16.373c55.517,14.058,112.769,19.541,168.683,31.717l10.718,2.334
	c45.438,9.896,98.34,21.416,135.698,32.312c28.312,8.258,57.392,13.559,85.823,21.354c19.566,5.367,45.311,11.648,68.029,17.195
	c8.603,2.1,16.338,4.096,23.189,5.92c14.09,3.68,21.779,5.766,23.166,6.08c6.703,1.526,20.104,5.539,20.207,4.149
	c0.334-4.413,1.396-8.682,3.295-12.686l7.451-10.305l12.207-5.092c2.727-1.169,5.885-4.062,9.547-8.703
	c1.854-2.353-16.336-31.738-25.539-47.031L1819.97,662.693z M602.905,745.859c-3.72,0-6.732-3.019-6.732-6.732
	c0-3.719,3.017-6.732,6.732-6.732s6.729,3.017,6.729,6.732C609.637,742.843,606.624,745.859,602.905,745.859z M602.905,693.859
	c-3.72,0-6.732-3.019-6.732-6.732c0-3.719,3.017-6.732,6.732-6.732s6.729,3.017,6.729,6.732
	C609.637,690.843,606.624,693.859,602.905,693.859z M602.905,641.859c-3.72,0-6.732-3.019-6.732-6.732
	c0-3.719,3.017-6.732,6.732-6.732s6.729,3.017,6.729,6.732C609.637,638.843,606.624,641.859,602.905,641.859z M602.905,589.859
	c-3.72,0-6.732-3.019-6.732-6.732c0-3.719,3.017-6.732,6.732-6.732s6.729,3.017,6.729,6.732
	C609.637,586.843,606.624,589.859,602.905,589.859z M602.905,537.859c-3.72,0-6.732-3.019-6.732-6.732
	c0-3.719,3.017-6.732,6.732-6.732s6.729,3.017,6.729,6.732C609.637,534.843,606.624,537.859,602.905,537.859z M602.905,485.859
	c-3.72,0-6.732-3.019-6.732-6.732c0-3.719,3.017-6.732,6.732-6.732s6.729,3.017,6.729,6.732
	C609.637,482.843,606.624,485.859,602.905,485.859z M659.475,745.859c-3.719,0-6.729-3.019-6.729-6.732
	c0-3.719,3.014-6.732,6.729-6.732c3.721,0,6.732,3.017,6.732,6.732C666.208,742.843,663.194,745.859,659.475,745.859z
	 M659.475,693.859c-3.719,0-6.729-3.019-6.729-6.732c0-3.719,3.014-6.732,6.729-6.732c3.721,0,6.732,3.017,6.732,6.732
	C666.208,690.843,663.194,693.859,659.475,693.859z M659.475,641.859c-3.719,0-6.729-3.019-6.729-6.732
	c0-3.719,3.014-6.732,6.729-6.732c3.721,0,6.732,3.017,6.732,6.732C666.208,638.843,663.194,641.859,659.475,641.859z
	 M659.475,589.859c-3.719,0-6.729-3.019-6.729-6.732c0-3.719,3.014-6.732,6.729-6.732c3.721,0,6.732,3.017,6.732,6.732
	C666.208,586.843,663.194,589.859,659.475,589.859z M659.475,537.859c-3.719,0-6.729-3.019-6.729-6.732
	c0-3.719,3.014-6.732,6.729-6.732c3.721,0,6.732,3.017,6.732,6.732C666.208,534.843,663.194,537.859,659.475,537.859z
	 M659.475,485.859c-3.719,0-6.729-3.019-6.729-6.732c0-3.719,3.014-6.732,6.729-6.732c3.721,0,6.732,3.017,6.732,6.732
	C666.208,482.843,663.194,485.859,659.475,485.859z M716.045,745.859c-3.719,0-6.732-3.019-6.732-6.732
	c0-3.719,3.017-6.732,6.732-6.732s6.732,3.017,6.732,6.732C722.778,742.843,719.764,745.859,716.045,745.859z M716.045,693.859
	c-3.719,0-6.732-3.019-6.732-6.732c0-3.719,3.017-6.732,6.732-6.732s6.732,3.017,6.732,6.732
	C722.778,690.843,719.764,693.859,716.045,693.859z M716.045,641.859c-3.719,0-6.732-3.019-6.732-6.732
	c0-3.719,3.017-6.732,6.732-6.732s6.732,3.017,6.732,6.732C722.778,638.843,719.764,641.859,716.045,641.859z M716.045,589.859
	c-3.719,0-6.732-3.019-6.732-6.732c0-3.719,3.017-6.732,6.732-6.732s6.732,3.017,6.732,6.732
	C722.778,586.843,719.764,589.859,716.045,589.859z M716.045,537.859c-3.719,0-6.732-3.019-6.732-6.732
	c0-3.719,3.017-6.732,6.732-6.732s6.732,3.017,6.732,6.732C722.778,534.843,719.764,537.859,716.045,537.859z M716.045,485.859
	c-3.719,0-6.732-3.019-6.732-6.732c0-3.719,3.017-6.732,6.732-6.732s6.732,3.017,6.732,6.732
	C722.778,482.843,719.764,485.859,716.045,485.859z M716.045,433.859c-3.719,0-6.732-3.019-6.732-6.732
	c0-3.719,3.017-6.732,6.732-6.732s6.732,3.016,6.732,6.732C722.778,430.843,719.764,433.859,716.045,433.859z M772.616,693.859
	c-3.719,0-6.732-3.019-6.732-6.732c0-3.719,3.017-6.732,6.732-6.732s6.729,3.017,6.729,6.732
	C779.348,690.843,776.334,693.859,772.616,693.859z M772.616,641.859c-3.719,0-6.732-3.019-6.732-6.732
	c0-3.719,3.017-6.732,6.732-6.732s6.729,3.017,6.729,6.732C779.348,638.843,776.334,641.859,772.616,641.859z M772.616,589.859
	c-3.719,0-6.732-3.019-6.732-6.732c0-3.719,3.017-6.732,6.732-6.732s6.729,3.017,6.729,6.732
	C779.348,586.843,776.334,589.859,772.616,589.859z M772.616,537.859c-3.719,0-6.732-3.019-6.732-6.732
	c0-3.719,3.017-6.732,6.732-6.732s6.729,3.017,6.729,6.732C779.348,534.843,776.334,537.859,772.616,537.859z M772.616,485.859
	c-3.719,0-6.732-3.019-6.732-6.732c0-3.719,3.017-6.732,6.732-6.732s6.729,3.017,6.729,6.732
	C779.348,482.843,776.334,485.859,772.616,485.859z M772.616,433.859c-3.719,0-6.732-3.019-6.732-6.732
	c0-3.719,3.017-6.732,6.732-6.732s6.729,3.016,6.729,6.732C779.348,430.843,776.334,433.859,772.616,433.859z M772.616,381.858
	c-3.719,0-6.732-3.015-6.732-6.732s3.017-6.732,6.732-6.732s6.729,3.015,6.729,6.732S776.334,381.858,772.616,381.858z
	 M829.186,693.859c-3.719,0-6.729-3.019-6.729-6.732c0-3.719,3.014-6.732,6.729-6.732c3.721,0,6.732,3.017,6.732,6.732
	S832.905,693.859,829.186,693.859z M829.186,641.859c-3.719,0-6.729-3.019-6.729-6.732c0-3.719,3.014-6.732,6.729-6.732
	c3.721,0,6.732,3.017,6.732,6.732S832.905,641.859,829.186,641.859z M829.186,589.859c-3.719,0-6.729-3.019-6.729-6.732
	c0-3.719,3.014-6.732,6.729-6.732c3.721,0,6.732,3.017,6.732,6.732S832.905,589.859,829.186,589.859z M829.186,537.859
	c-3.719,0-6.729-3.019-6.729-6.732c0-3.719,3.014-6.732,6.729-6.732c3.721,0,6.732,3.017,6.732,6.732
	S832.905,537.859,829.186,537.859z M829.186,485.859c-3.719,0-6.729-3.019-6.729-6.732c0-3.719,3.014-6.732,6.729-6.732
	c3.721,0,6.732,3.017,6.732,6.732S832.905,485.859,829.186,485.859z M829.186,433.859c-3.719,0-6.729-3.019-6.729-6.732
	c0-3.719,3.014-6.732,6.729-6.732c3.721,0,6.732,3.016,6.732,6.732S832.905,433.859,829.186,433.859z M829.186,381.858
	c-3.719,0-6.729-3.015-6.729-6.732s3.014-6.732,6.729-6.732c3.721,0,6.732,3.015,6.732,6.732S832.905,381.858,829.186,381.858z
	 M885.756,693.859c-3.719,0-6.729-3.019-6.729-6.732c0-3.719,3.014-6.732,6.729-6.732s6.732,3.017,6.732,6.732
	C892.489,690.843,889.475,693.859,885.756,693.859z M885.756,641.859c-3.719,0-6.729-3.019-6.729-6.732
	c0-3.719,3.014-6.732,6.729-6.732s6.732,3.017,6.732,6.732C892.489,638.843,889.475,641.859,885.756,641.859z M885.756,589.859
	c-3.719,0-6.729-3.019-6.729-6.732c0-3.719,3.014-6.732,6.729-6.732s6.732,3.017,6.732,6.732
	C892.489,586.843,889.475,589.859,885.756,589.859z M885.756,537.859c-3.719,0-6.729-3.019-6.729-6.732
	c0-3.719,3.014-6.732,6.729-6.732s6.732,3.017,6.732,6.732C892.489,534.843,889.475,537.859,885.756,537.859z M885.756,485.859
	c-3.719,0-6.729-3.019-6.729-6.732c0-3.719,3.014-6.732,6.729-6.732s6.732,3.017,6.732,6.732
	C892.489,482.843,889.475,485.859,885.756,485.859z M885.756,433.859c-3.719,0-6.729-3.019-6.729-6.732
	c0-3.719,3.014-6.732,6.729-6.732s6.732,3.016,6.732,6.732C892.489,430.843,889.475,433.859,885.756,433.859z M885.756,381.858
	c-3.719,0-6.729-3.015-6.729-6.732s3.014-6.732,6.729-6.732s6.732,3.015,6.732,6.732S889.475,381.858,885.756,381.858z
	 M885.756,329.858c-3.719,0-6.729-3.015-6.729-6.732s3.014-6.732,6.729-6.732s6.732,3.015,6.732,6.732
	S889.475,329.858,885.756,329.858z M942.328,641.859c-3.719,0-6.733-3.019-6.733-6.732c0-3.719,3.017-6.732,6.733-6.732
	s6.729,3.017,6.729,6.732C949.058,638.843,946.044,641.859,942.328,641.859z M942.328,589.859c-3.719,0-6.733-3.019-6.733-6.732
	c0-3.719,3.017-6.732,6.733-6.732s6.729,3.017,6.729,6.732C949.058,586.843,946.044,589.859,942.328,589.859z M942.328,537.859
	c-3.719,0-6.733-3.019-6.733-6.732c0-3.719,3.017-6.732,6.733-6.732s6.729,3.017,6.729,6.732
	C949.058,534.843,946.044,537.859,942.328,537.859z M942.328,485.859c-3.719,0-6.733-3.019-6.733-6.732
	c0-3.719,3.017-6.732,6.733-6.732s6.729,3.017,6.729,6.732C949.058,482.843,946.044,485.859,942.328,485.859z M942.328,433.859
	c-3.719,0-6.733-3.019-6.733-6.732c0-3.719,3.017-6.732,6.733-6.732s6.729,3.016,6.729,6.732
	C949.058,430.843,946.044,433.859,942.328,433.859z M942.328,381.858c-3.719,0-6.733-3.015-6.733-6.732s3.017-6.732,6.733-6.732
	s6.729,3.015,6.729,6.732S946.044,381.858,942.328,381.858z M942.328,329.858c-3.719,0-6.733-3.015-6.733-6.732
	s3.017-6.732,6.733-6.732s6.729,3.015,6.729,6.732S946.044,329.858,942.328,329.858z M998.896,641.859
	c-3.721,0-6.73-3.019-6.73-6.732c0-3.719,3.014-6.732,6.73-6.732c3.719,0,6.73,3.017,6.73,6.732
	C1005.628,638.843,1002.617,641.859,998.896,641.859z M998.896,589.859c-3.721,0-6.73-3.019-6.73-6.732
	c0-3.719,3.014-6.732,6.73-6.732c3.719,0,6.73,3.017,6.73,6.732C1005.628,586.843,1002.617,589.859,998.896,589.859z
	 M998.896,537.859c-3.721,0-6.73-3.019-6.73-6.732c0-3.719,3.014-6.732,6.73-6.732c3.719,0,6.73,3.017,6.73,6.732
	C1005.628,534.843,1002.617,537.859,998.896,537.859z M998.896,485.859c-3.721,0-6.73-3.019-6.73-6.732
	c0-3.719,3.014-6.732,6.73-6.732c3.719,0,6.73,3.017,6.73,6.732C1005.628,482.843,1002.617,485.859,998.896,485.859z
	 M998.896,433.859c-3.721,0-6.73-3.019-6.73-6.732c0-3.719,3.014-6.732,6.73-6.732c3.719,0,6.73,3.016,6.73,6.732
	C1005.628,430.843,1002.617,433.859,998.896,433.859z M998.896,381.858c-3.721,0-6.73-3.015-6.73-6.732s3.014-6.732,6.73-6.732
	c3.719,0,6.73,3.015,6.73,6.732S1002.617,381.858,998.896,381.858z M998.896,329.858c-3.721,0-6.73-3.015-6.73-6.732
	s3.014-6.732,6.73-6.732c3.719,0,6.73,3.015,6.73,6.732S1002.617,329.858,998.896,329.858z M998.896,277.858
	c-3.721,0-6.73-3.014-6.73-6.732s3.014-6.732,6.73-6.732c3.719,0,6.73,3.014,6.73,6.732S1002.617,277.858,998.896,277.858z
	 M1055.466,641.859c-3.719,0-6.729-3.019-6.729-6.732c0-3.719,3.014-6.732,6.729-6.732c3.719,0,6.732,3.017,6.732,6.732
	C1062.201,638.843,1059.186,641.859,1055.466,641.859z M1055.466,589.859c-3.719,0-6.729-3.019-6.729-6.732
	c0-3.719,3.014-6.732,6.729-6.732c3.719,0,6.732,3.017,6.732,6.732C1062.201,586.843,1059.186,589.859,1055.466,589.859z
	 M1055.466,537.859c-3.719,0-6.729-3.019-6.729-6.732c0-3.719,3.014-6.732,6.729-6.732c3.719,0,6.732,3.017,6.732,6.732
	C1062.201,534.843,1059.186,537.859,1055.466,537.859z M1055.466,485.859c-3.719,0-6.729-3.019-6.729-6.732
	c0-3.719,3.014-6.732,6.729-6.732c3.719,0,6.732,3.017,6.732,6.732C1062.201,482.843,1059.186,485.859,1055.466,485.859z
	 M1055.466,433.859c-3.719,0-6.729-3.019-6.729-6.732c0-3.719,3.014-6.732,6.729-6.732c3.719,0,6.732,3.016,6.732,6.732
	C1062.201,430.843,1059.186,433.859,1055.466,433.859z M1055.466,381.858c-3.719,0-6.729-3.015-6.729-6.732s3.014-6.732,6.729-6.732
	c3.719,0,6.732,3.015,6.732,6.732S1059.186,381.858,1055.466,381.858z M1055.466,329.858c-3.719,0-6.729-3.015-6.729-6.732
	s3.014-6.732,6.729-6.732c3.719,0,6.732,3.015,6.732,6.732S1059.186,329.858,1055.466,329.858z M1055.466,277.858
	c-3.719,0-6.729-3.014-6.729-6.732s3.014-6.732,6.729-6.732c3.719,0,6.732,3.014,6.732,6.732S1059.186,277.858,1055.466,277.858z
	 M1112.039,641.859c-3.719,0-6.732-3.019-6.732-6.732c0-3.719,3.016-6.732,6.732-6.732s6.729,3.017,6.729,6.732
	C1118.77,638.843,1115.755,641.859,1112.039,641.859z M1112.039,589.859c-3.719,0-6.732-3.019-6.732-6.732
	c0-3.719,3.016-6.732,6.732-6.732s6.729,3.017,6.729,6.732C1118.77,586.843,1115.755,589.859,1112.039,589.859z M1112.039,537.859
	c-3.719,0-6.732-3.019-6.732-6.732c0-3.719,3.016-6.732,6.732-6.732s6.729,3.017,6.729,6.732
	C1118.77,534.843,1115.755,537.859,1112.039,537.859z M1112.039,485.859c-3.719,0-6.732-3.019-6.732-6.732
	c0-3.719,3.016-6.732,6.732-6.732s6.729,3.017,6.729,6.732C1118.77,482.843,1115.755,485.859,1112.039,485.859z M1112.039,433.859
	c-3.719,0-6.732-3.019-6.732-6.732c0-3.719,3.016-6.732,6.732-6.732s6.729,3.016,6.729,6.732
	C1118.77,430.843,1115.755,433.859,1112.039,433.859z M1112.039,381.858c-3.719,0-6.732-3.015-6.732-6.732s3.016-6.732,6.732-6.732
	s6.729,3.015,6.729,6.732S1115.755,381.858,1112.039,381.858z M1112.039,329.858c-3.719,0-6.732-3.015-6.732-6.732
	s3.016-6.732,6.732-6.732s6.729,3.015,6.729,6.732S1115.755,329.858,1112.039,329.858z M1112.039,277.858
	c-3.719,0-6.732-3.014-6.732-6.732s3.016-6.732,6.732-6.732s6.729,3.014,6.729,6.732S1115.755,277.858,1112.039,277.858z
	 M1168.609,641.859c-3.723,0-6.732-3.019-6.732-6.732c0-3.719,3.014-6.732,6.732-6.732c3.717,0,6.729,3.017,6.729,6.732
	C1175.339,638.843,1172.328,641.859,1168.609,641.859z M1168.609,589.859c-3.723,0-6.732-3.019-6.732-6.732
	c0-3.719,3.014-6.732,6.732-6.732c3.717,0,6.729,3.017,6.729,6.732C1175.339,586.843,1172.328,589.859,1168.609,589.859z
	 M1168.609,537.859c-3.723,0-6.732-3.019-6.732-6.732c0-3.719,3.014-6.732,6.732-6.732c3.717,0,6.729,3.017,6.729,6.732
	C1175.339,534.843,1172.328,537.859,1168.609,537.859z M1168.609,485.859c-3.723,0-6.732-3.019-6.732-6.732
	c0-3.719,3.014-6.732,6.732-6.732c3.717,0,6.729,3.017,6.729,6.732C1175.339,482.843,1172.328,485.859,1168.609,485.859z
	 M1168.609,433.859c-3.723,0-6.732-3.019-6.732-6.732c0-3.719,3.014-6.732,6.732-6.732c3.717,0,6.729,3.016,6.729,6.732
	C1175.339,430.843,1172.328,433.859,1168.609,433.859z M1168.609,381.858c-3.723,0-6.732-3.015-6.732-6.732s3.014-6.732,6.732-6.732
	c3.717,0,6.729,3.015,6.729,6.732S1172.328,381.858,1168.609,381.858z M1168.609,329.858c-3.723,0-6.732-3.015-6.732-6.732
	s3.014-6.732,6.732-6.732c3.717,0,6.729,3.015,6.729,6.732S1172.328,329.858,1168.609,329.858z M1168.609,277.858
	c-3.723,0-6.732-3.014-6.732-6.732s3.014-6.732,6.732-6.732c3.717,0,6.729,3.014,6.729,6.732S1172.328,277.858,1168.609,277.858z
	 M1225.177,641.859c-3.719,0-6.729-3.019-6.729-6.732c0-3.719,3.014-6.732,6.729-6.732c3.72,0,6.732,3.017,6.732,6.732
	C1231.912,638.843,1228.896,641.859,1225.177,641.859z M1225.177,589.859c-3.719,0-6.729-3.019-6.729-6.732
	c0-3.719,3.014-6.732,6.729-6.732c3.72,0,6.732,3.017,6.732,6.732C1231.912,586.843,1228.896,589.859,1225.177,589.859z
	 M1225.177,537.859c-3.719,0-6.729-3.019-6.729-6.732c0-3.719,3.014-6.732,6.729-6.732c3.72,0,6.732,3.017,6.732,6.732
	C1231.912,534.843,1228.896,537.859,1225.177,537.859z M1225.177,485.859c-3.719,0-6.729-3.019-6.729-6.732
	c0-3.719,3.014-6.732,6.729-6.732c3.72,0,6.732,3.017,6.732,6.732C1231.912,482.843,1228.896,485.859,1225.177,485.859z
	 M1225.177,433.859c-3.719,0-6.729-3.019-6.729-6.732c0-3.719,3.014-6.732,6.729-6.732c3.72,0,6.732,3.016,6.732,6.732
	C1231.912,430.843,1228.896,433.859,1225.177,433.859z M1225.177,381.858c-3.719,0-6.729-3.015-6.729-6.732s3.014-6.732,6.729-6.732
	c3.72,0,6.732,3.015,6.732,6.732S1228.896,381.858,1225.177,381.858z M1225.177,329.858c-3.719,0-6.729-3.015-6.729-6.732
	s3.014-6.732,6.729-6.732c3.72,0,6.732,3.015,6.732,6.732S1228.896,329.858,1225.177,329.858z M1225.177,277.858
	c-3.719,0-6.729-3.014-6.729-6.732s3.014-6.732,6.729-6.732c3.72,0,6.732,3.014,6.732,6.732S1228.896,277.858,1225.177,277.858z
	 M1281.75,641.859c-3.719,0-6.732-3.019-6.732-6.732c0-3.719,3.016-6.732,6.732-6.732s6.732,3.017,6.732,6.732
	C1288.48,638.843,1285.466,641.859,1281.75,641.859z M1281.75,589.859c-3.719,0-6.732-3.019-6.732-6.732
	c0-3.719,3.016-6.732,6.732-6.732s6.732,3.017,6.732,6.732C1288.48,586.843,1285.466,589.859,1281.75,589.859z M1281.75,537.859
	c-3.719,0-6.732-3.019-6.732-6.732c0-3.719,3.016-6.732,6.732-6.732s6.732,3.017,6.732,6.732
	C1288.48,534.843,1285.466,537.859,1281.75,537.859z M1281.75,485.859c-3.719,0-6.732-3.019-6.732-6.732
	c0-3.719,3.016-6.732,6.732-6.732s6.732,3.017,6.732,6.732C1288.48,482.843,1285.466,485.859,1281.75,485.859z M1281.75,433.859
	c-3.719,0-6.732-3.019-6.732-6.732c0-3.719,3.016-6.732,6.732-6.732s6.732,3.016,6.732,6.732
	C1288.48,430.843,1285.466,433.859,1281.75,433.859z M1281.75,381.858c-3.719,0-6.732-3.015-6.732-6.732s3.016-6.732,6.732-6.732
	s6.732,3.015,6.732,6.732S1285.466,381.858,1281.75,381.858z M1281.75,329.858c-3.719,0-6.732-3.015-6.732-6.732
	s3.016-6.732,6.732-6.732s6.732,3.015,6.732,6.732S1285.466,329.858,1281.75,329.858z M1281.75,277.858
	c-3.719,0-6.732-3.014-6.732-6.732s3.016-6.732,6.732-6.732s6.732,3.014,6.732,6.732S1285.466,277.858,1281.75,277.858z
	 M1338.32,641.859c-3.723,0-6.732-3.019-6.732-6.732c0-3.719,3.014-6.732,6.732-6.732c3.717,0,6.729,3.017,6.729,6.732
	C1345.05,638.843,1342.039,641.859,1338.32,641.859z M1338.32,589.859c-3.723,0-6.732-3.019-6.732-6.732
	c0-3.719,3.014-6.732,6.732-6.732c3.717,0,6.729,3.017,6.729,6.732C1345.05,586.843,1342.039,589.859,1338.32,589.859z
	 M1338.32,537.859c-3.723,0-6.732-3.019-6.732-6.732c0-3.719,3.014-6.732,6.732-6.732c3.717,0,6.729,3.017,6.729,6.732
	C1345.05,534.843,1342.039,537.859,1338.32,537.859z M1338.32,485.859c-3.723,0-6.732-3.019-6.732-6.732
	c0-3.719,3.014-6.732,6.732-6.732c3.717,0,6.729,3.017,6.729,6.732C1345.05,482.843,1342.039,485.859,1338.32,485.859z
	 M1338.32,433.859c-3.723,0-6.732-3.019-6.732-6.732c0-3.719,3.014-6.732,6.732-6.732c3.717,0,6.729,3.016,6.729,6.732
	C1345.05,430.843,1342.039,433.859,1338.32,433.859z M1338.32,381.858c-3.723,0-6.732-3.015-6.732-6.732s3.014-6.732,6.732-6.732
	c3.717,0,6.729,3.015,6.729,6.732S1342.039,381.858,1338.32,381.858z M1338.32,329.858c-3.723,0-6.732-3.015-6.732-6.732
	s3.014-6.732,6.732-6.732c3.717,0,6.729,3.015,6.729,6.732S1342.039,329.858,1338.32,329.858z M1338.32,277.858
	c-3.723,0-6.732-3.014-6.732-6.732s3.014-6.732,6.732-6.732c3.717,0,6.729,3.014,6.729,6.732S1342.039,277.858,1338.32,277.858z
	 M1394.888,641.859c-3.719,0-6.729-3.019-6.729-6.732c0-3.719,3.014-6.732,6.729-6.732c3.72,0,6.732,3.017,6.732,6.732
	C1401.623,638.843,1398.609,641.859,1394.888,641.859z M1394.888,589.859c-3.719,0-6.729-3.019-6.729-6.732
	c0-3.719,3.014-6.732,6.729-6.732c3.72,0,6.732,3.017,6.732,6.732C1401.623,586.843,1398.609,589.859,1394.888,589.859z
	 M1394.888,537.859c-3.719,0-6.729-3.019-6.729-6.732c0-3.719,3.014-6.732,6.729-6.732c3.72,0,6.732,3.017,6.732,6.732
	C1401.623,534.843,1398.609,537.859,1394.888,537.859z M1394.888,485.859c-3.719,0-6.729-3.019-6.729-6.732
	c0-3.719,3.014-6.732,6.729-6.732c3.72,0,6.732,3.017,6.732,6.732C1401.623,482.843,1398.609,485.859,1394.888,485.859z
	 M1394.888,433.859c-3.719,0-6.729-3.019-6.729-6.732c0-3.719,3.014-6.732,6.729-6.732c3.72,0,6.732,3.016,6.732,6.732
	C1401.623,430.843,1398.609,433.859,1394.888,433.859z M1394.888,381.858c-3.719,0-6.729-3.015-6.729-6.732s3.014-6.732,6.729-6.732
	c3.72,0,6.732,3.015,6.732,6.732S1398.609,381.858,1394.888,381.858z M1394.888,329.858c-3.719,0-6.729-3.015-6.729-6.732
	s3.014-6.732,6.729-6.732c3.72,0,6.732,3.015,6.732,6.732S1398.609,329.858,1394.888,329.858z M1394.888,277.858
	c-3.719,0-6.729-3.014-6.729-6.732s3.014-6.732,6.729-6.732c3.72,0,6.732,3.014,6.732,6.732S1398.609,277.858,1394.888,277.858z
	 M1451.458,693.859c-3.719,0-6.732-3.019-6.732-6.732c0-3.719,3.018-6.732,6.732-6.732c3.719,0,6.732,3.017,6.732,6.732
	C1458.193,690.843,1455.177,693.859,1451.458,693.859z M1451.458,641.859c-3.719,0-6.732-3.019-6.732-6.732
	c0-3.719,3.018-6.732,6.732-6.732c3.719,0,6.732,3.017,6.732,6.732C1458.193,638.843,1455.177,641.859,1451.458,641.859z
	 M1451.458,589.859c-3.719,0-6.732-3.019-6.732-6.732c0-3.719,3.018-6.732,6.732-6.732c3.719,0,6.732,3.017,6.732,6.732
	C1458.193,586.843,1455.177,589.859,1451.458,589.859z M1451.458,537.859c-3.719,0-6.732-3.019-6.732-6.732
	c0-3.719,3.018-6.732,6.732-6.732c3.719,0,6.732,3.017,6.732,6.732C1458.193,534.843,1455.177,537.859,1451.458,537.859z
	 M1451.458,485.859c-3.719,0-6.732-3.019-6.732-6.732c0-3.719,3.018-6.732,6.732-6.732c3.719,0,6.732,3.017,6.732,6.732
	C1458.193,482.843,1455.177,485.859,1451.458,485.859z M1451.458,433.859c-3.719,0-6.732-3.019-6.732-6.732
	c0-3.719,3.018-6.732,6.732-6.732c3.719,0,6.732,3.016,6.732,6.732C1458.193,430.843,1455.177,433.859,1451.458,433.859z
	 M1451.458,381.858c-3.719,0-6.732-3.015-6.732-6.732s3.018-6.732,6.732-6.732c3.719,0,6.732,3.015,6.732,6.732
	S1455.177,381.858,1451.458,381.858z M1451.458,329.858c-3.719,0-6.732-3.015-6.732-6.732s3.018-6.732,6.732-6.732
	c3.719,0,6.732,3.015,6.732,6.732S1455.177,329.858,1451.458,329.858z M1451.458,277.858c-3.719,0-6.732-3.014-6.732-6.732
	s3.018-6.732,6.732-6.732c3.719,0,6.732,3.014,6.732,6.732S1455.177,277.858,1451.458,277.858z M1508.031,693.859
	c-3.721,0-6.732-3.019-6.732-6.732c0-3.719,3.014-6.732,6.732-6.732c3.717,0,6.729,3.017,6.729,6.732
	C1514.761,690.843,1511.75,693.859,1508.031,693.859z M1508.031,641.859c-3.721,0-6.732-3.019-6.732-6.732
	c0-3.719,3.014-6.732,6.732-6.732c3.717,0,6.729,3.017,6.729,6.732C1514.761,638.843,1511.75,641.859,1508.031,641.859z
	 M1508.031,589.859c-3.721,0-6.732-3.019-6.732-6.732c0-3.719,3.014-6.732,6.732-6.732c3.717,0,6.729,3.017,6.729,6.732
	C1514.761,586.843,1511.75,589.859,1508.031,589.859z M1508.031,537.859c-3.721,0-6.732-3.019-6.732-6.732
	c0-3.719,3.014-6.732,6.732-6.732c3.717,0,6.729,3.017,6.729,6.732C1514.761,534.843,1511.75,537.859,1508.031,537.859z
	 M1508.031,485.859c-3.721,0-6.732-3.019-6.732-6.732c0-3.719,3.014-6.732,6.732-6.732c3.717,0,6.729,3.017,6.729,6.732
	C1514.761,482.843,1511.75,485.859,1508.031,485.859z M1508.031,433.859c-3.721,0-6.732-3.019-6.732-6.732
	c0-3.719,3.014-6.732,6.732-6.732c3.717,0,6.729,3.016,6.729,6.732C1514.761,430.843,1511.75,433.859,1508.031,433.859z
	 M1508.031,381.858c-3.721,0-6.732-3.015-6.732-6.732s3.014-6.732,6.732-6.732c3.717,0,6.729,3.015,6.729,6.732
	S1511.75,381.858,1508.031,381.858z M1508.031,329.858c-3.721,0-6.732-3.015-6.732-6.732s3.014-6.732,6.732-6.732
	c3.717,0,6.729,3.015,6.729,6.732S1511.75,329.858,1508.031,329.858z M1564.599,693.859c-3.719,0-6.729-3.019-6.729-6.732
	c0-3.719,3.014-6.732,6.729-6.732c3.721,0,6.732,3.017,6.732,6.732C1571.333,690.843,1568.32,693.859,1564.599,693.859z
	 M1564.599,641.859c-3.719,0-6.729-3.019-6.729-6.732c0-3.719,3.014-6.732,6.729-6.732c3.721,0,6.732,3.017,6.732,6.732
	C1571.333,638.843,1568.32,641.859,1564.599,641.859z M1564.599,589.859c-3.719,0-6.729-3.019-6.729-6.732
	c0-3.719,3.014-6.732,6.729-6.732c3.721,0,6.732,3.017,6.732,6.732C1571.333,586.843,1568.32,589.859,1564.599,589.859z
	 M1564.599,537.859c-3.719,0-6.729-3.019-6.729-6.732c0-3.719,3.014-6.732,6.729-6.732c3.721,0,6.732,3.017,6.732,6.732
	C1571.333,534.843,1568.32,537.859,1564.599,537.859z M1564.599,485.859c-3.719,0-6.729-3.019-6.729-6.732
	c0-3.719,3.014-6.732,6.729-6.732c3.721,0,6.732,3.017,6.732,6.732C1571.333,482.843,1568.32,485.859,1564.599,485.859z
	 M1564.599,433.859c-3.719,0-6.729-3.019-6.729-6.732c0-3.719,3.014-6.732,6.729-6.732c3.721,0,6.732,3.016,6.732,6.732
	C1571.333,430.843,1568.32,433.859,1564.599,433.859z M1564.599,381.858c-3.719,0-6.729-3.015-6.729-6.732s3.014-6.732,6.729-6.732
	c3.721,0,6.732,3.015,6.732,6.732S1568.32,381.858,1564.599,381.858z M1621.169,693.859c-3.719,0-6.732-3.019-6.732-6.732
	c0-3.719,3.018-6.732,6.732-6.732c3.719,0,6.732,3.017,6.732,6.732C1627.904,690.843,1624.888,693.859,1621.169,693.859z
	 M1621.169,641.859c-3.719,0-6.732-3.019-6.732-6.732c0-3.719,3.018-6.732,6.732-6.732c3.719,0,6.732,3.017,6.732,6.732
	C1627.904,638.843,1624.888,641.859,1621.169,641.859z M1621.169,589.859c-3.719,0-6.732-3.019-6.732-6.732
	c0-3.719,3.018-6.732,6.732-6.732c3.719,0,6.732,3.017,6.732,6.732C1627.904,586.843,1624.888,589.859,1621.169,589.859z
	 M1621.169,537.859c-3.719,0-6.732-3.019-6.732-6.732c0-3.719,3.018-6.732,6.732-6.732c3.719,0,6.732,3.017,6.732,6.732
	C1627.904,534.843,1624.888,537.859,1621.169,537.859z M1621.169,485.859c-3.719,0-6.732-3.019-6.732-6.732
	c0-3.719,3.018-6.732,6.732-6.732c3.719,0,6.732,3.017,6.732,6.732C1627.904,482.843,1624.888,485.859,1621.169,485.859z
	 M1621.169,433.859c-3.719,0-6.732-3.019-6.732-6.732c0-3.719,3.018-6.732,6.732-6.732c3.719,0,6.732,3.016,6.732,6.732
	C1627.904,430.843,1624.888,433.859,1621.169,433.859z M1677.742,745.859c-3.721,0-6.732-3.019-6.732-6.732
	c0-3.719,3.014-6.732,6.732-6.732c3.717,0,6.729,3.017,6.729,6.732C1684.472,742.843,1681.458,745.859,1677.742,745.859z
	 M1677.742,693.859c-3.721,0-6.732-3.019-6.732-6.732c0-3.719,3.014-6.732,6.732-6.732c3.717,0,6.729,3.017,6.729,6.732
	C1684.472,690.843,1681.458,693.859,1677.742,693.859z M1677.742,641.859c-3.721,0-6.732-3.019-6.732-6.732
	c0-3.719,3.014-6.732,6.732-6.732c3.717,0,6.729,3.017,6.729,6.732C1684.472,638.843,1681.458,641.859,1677.742,641.859z
	 M1677.742,589.859c-3.721,0-6.732-3.019-6.732-6.732c0-3.719,3.014-6.732,6.732-6.732c3.717,0,6.729,3.017,6.729,6.732
	C1684.472,586.843,1681.458,589.859,1677.742,589.859z M1677.742,537.859c-3.721,0-6.732-3.019-6.732-6.732
	c0-3.719,3.014-6.732,6.732-6.732c3.717,0,6.729,3.017,6.729,6.732C1684.472,534.843,1681.458,537.859,1677.742,537.859z
	 M1677.742,485.859c-3.721,0-6.732-3.019-6.732-6.732c0-3.719,3.014-6.732,6.732-6.732c3.717,0,6.729,3.017,6.729,6.732
	C1684.472,482.843,1681.458,485.859,1677.742,485.859z M1734.311,745.859c-3.72,0-6.729-3.019-6.729-6.732
	c0-3.719,3.014-6.732,6.729-6.732c3.72,0,6.731,3.017,6.731,6.732S1738.031,745.859,1734.311,745.859z M1734.311,693.859
	c-3.72,0-6.729-3.019-6.729-6.732c0-3.719,3.014-6.732,6.729-6.732c3.72,0,6.731,3.017,6.731,6.732
	S1738.031,693.859,1734.311,693.859z M1734.311,641.859c-3.72,0-6.729-3.019-6.729-6.732c0-3.719,3.014-6.732,6.729-6.732
	c3.72,0,6.731,3.017,6.731,6.732S1738.031,641.859,1734.311,641.859z M1734.311,589.859c-3.72,0-6.729-3.019-6.729-6.732
	c0-3.719,3.014-6.732,6.729-6.732c3.72,0,6.731,3.017,6.731,6.732S1738.031,589.859,1734.311,589.859z M1790.88,745.859
	c-3.719,0-6.73-3.019-6.73-6.732c0-3.719,3.016-6.732,6.73-6.732c3.719,0,6.732,3.017,6.732,6.732
	C1797.615,742.843,1794.599,745.859,1790.88,745.859z M1790.88,693.859c-3.719,0-6.73-3.019-6.73-6.732
	c0-3.719,3.016-6.732,6.73-6.732c3.719,0,6.732,3.017,6.732,6.732C1797.615,690.843,1794.599,693.859,1790.88,693.859z
	 M1854.183,739.126c0,3.717-3.014,6.732-6.729,6.732c-3.719,0-6.732-3.019-6.732-6.732c0-3.719,3.016-6.732,6.732-6.732
	C1851.169,732.394,1854.183,735.408,1854.183,739.126z M532.77,490.021c119.398-68.289,238.244-135.793,358.519-203.75
	c20.096-11.354,40.883-22.451,62.739-29.956l9.238-3.173c1.438-0.583,6.148-1.095,9.252-1.432l73.746-8.007
	c0.459-0.05,85.689-5.438,131.111-9.679c41.887-3.91,84.641-7.062,126.945-10.234c30.443-2.283,90.006-7.364,90.268-7.4l16.053-2.21
	c4.061-0.532,7.98-1.185,12.037-1.717c1.123-0.147,2.855-0.375,2.668-1.803l-0.375-2.855c-0.125-0.963-0.664-1.835-0.729-2.809
	c-0.037-0.521-2.541-6.444-3.812-9.666c-0.713-1.807-1.211-3.692-1.463-5.618l-0.188-1.428l-0.281-2.141
	c-1.199-9.13,6.584-16.849,6.406-25.894c-0.016-0.651-0.232-1.204-0.594-1.737l-1.521-0.526c-4.414-1.528-8.718-3.358-13.131-4.886
	c-0.457-0.158-0.914-0.315-1.441-0.464l-1.449-0.536c-24.064-8.896-48.689-16.17-72.936-24.56l-4.564-1.58
	c-13.689-4.739-27.547-9.008-41.184-13.912c-21.734-7.816-43.84-14.542-66.107-20.663c-32.979-9.065-62.705-19.587-96.646-29.871
	c-25.496-7.724-102.881-31.188-155.492-42.192c-40.854-8.544-82.6-17.276-123.648-19.212c-5.697-0.269-9.663-0.04-11.908,0.546
	c-1.259,0.382-34.324,19.536-64.575,42.458c-15.653,11.861-61.078,49.683-91.331,74.872c-19.051,15.861-30.112,25.083-33.271,27.603
	c-36.253,28.648-64.151,51.771-83.729,69.154c-6.04,5.44-11.514,10.225-16.346,14.344c-18.779,16.262-29.651,25.822-32.628,28.608
	c-14.283,13.382-29.334,25.924-43.646,39.276c-37.135,34.647-58.371,55.442-63.766,62.467c-2.065,2.688-4.566,6.43-3.874,9.223
	c0.667,2.687,3.54,6.483,6.262,8.98l8.585,7.878c6.601,6.033,14.256,15.121,22.886,27.205c11.481,16.078,25.856,29.777,38.498,44.91
	c7.445,8.91,21.313,25.451,21.858,27.121c0.361,1.115,12.82,11.978,19.084,12.099C522.008,496.951,526.246,493.753,532.77,490.021z
	 M1394.888,160.393c3.723,0,6.732,3.014,6.732,6.732s-3.015,6.732-6.732,6.732c-3.717,0-6.729-3.014-6.729-6.732
	S1391.169,160.393,1394.888,160.393z M1338.32,160.393c3.719,0,6.729,3.014,6.729,6.732s-3.014,6.732-6.729,6.732
	c-3.721,0-6.732-3.014-6.732-6.732S1334.599,160.393,1338.32,160.393z M1281.75,160.393c3.719,0,6.732,3.014,6.732,6.732
	s-3.018,6.732-6.732,6.732c-3.719,0-6.732-3.014-6.732-6.732S1278.031,160.393,1281.75,160.393z M1225.177,108.393
	c3.72,0,6.732,3.014,6.732,6.732s-3.015,6.732-6.732,6.732c-3.717,0-6.729-3.014-6.729-6.732S1221.458,108.393,1225.177,108.393z
	 M1225.177,160.393c3.72,0,6.732,3.014,6.732,6.732s-3.015,6.732-6.732,6.732c-3.717,0-6.729-3.014-6.729-6.732
	S1221.458,160.393,1225.177,160.393z M1168.609,108.393c3.719,0,6.729,3.014,6.729,6.732s-3.014,6.732-6.729,6.732
	c-3.721,0-6.732-3.014-6.732-6.732S1164.888,108.393,1168.609,108.393z M1168.609,160.393c3.719,0,6.729,3.014,6.729,6.732
	s-3.014,6.732-6.729,6.732c-3.721,0-6.732-3.014-6.732-6.732S1164.888,160.393,1168.609,160.393z M1168.609,212.393
	c3.719,0,6.729,3.014,6.729,6.732s-3.014,6.732-6.729,6.732c-3.721,0-6.732-3.014-6.732-6.732S1164.888,212.393,1168.609,212.393z
	 M1112.039,108.393c3.719,0,6.729,3.014,6.729,6.732s-3.014,6.732-6.729,6.732c-3.719,0-6.732-3.014-6.732-6.732
	S1108.32,108.393,1112.039,108.393z M1112.039,160.393c3.719,0,6.729,3.014,6.729,6.732s-3.014,6.732-6.729,6.732
	c-3.719,0-6.732-3.014-6.732-6.732S1108.32,160.393,1112.039,160.393z M1112.039,212.393c3.719,0,6.729,3.014,6.729,6.732
	s-3.014,6.732-6.729,6.732c-3.719,0-6.732-3.014-6.732-6.732S1108.32,212.393,1112.039,212.393z M1055.466,56.393
	c3.719,0,6.732,3.014,6.732,6.732s-3.016,6.732-6.732,6.732s-6.729-3.014-6.729-6.732S1051.75,56.393,1055.466,56.393z
	 M1055.466,108.393c3.719,0,6.732,3.014,6.732,6.732s-3.016,6.732-6.732,6.732s-6.729-3.014-6.729-6.732
	S1051.75,108.393,1055.466,108.393z M1055.466,160.393c3.719,0,6.732,3.014,6.732,6.732s-3.016,6.732-6.732,6.732
	s-6.729-3.014-6.729-6.732S1051.75,160.393,1055.466,160.393z M1055.466,212.393c3.719,0,6.732,3.014,6.732,6.732
	s-3.016,6.732-6.732,6.732s-6.729-3.014-6.729-6.732S1051.75,212.393,1055.466,212.393z M998.896,56.393
	c3.721,0,6.73,3.014,6.73,6.732s-3.014,6.732-6.73,6.732c-3.718,0-6.73-3.014-6.73-6.732S995.177,56.393,998.896,56.393z
	 M998.896,108.393c3.721,0,6.73,3.014,6.73,6.732s-3.014,6.732-6.73,6.732c-3.718,0-6.73-3.014-6.73-6.732
	S995.177,108.393,998.896,108.393z M998.896,160.393c3.721,0,6.73,3.014,6.73,6.732s-3.014,6.732-6.73,6.732
	c-3.718,0-6.73-3.014-6.73-6.732S995.177,160.393,998.896,160.393z M998.896,212.393c3.721,0,6.73,3.014,6.73,6.732
	s-3.014,6.732-6.73,6.732c-3.718,0-6.73-3.014-6.73-6.732S995.177,212.393,998.896,212.393z M942.328,56.393
	c3.719,0,6.729,3.014,6.729,6.732s-3.014,6.732-6.729,6.732c-3.718,0-6.733-3.014-6.733-6.732S938.607,56.393,942.328,56.393z
	 M942.328,108.393c3.719,0,6.729,3.014,6.729,6.732s-3.014,6.732-6.729,6.732c-3.718,0-6.733-3.014-6.733-6.732
	S938.607,108.393,942.328,108.393z M942.328,160.393c3.719,0,6.729,3.014,6.729,6.732s-3.014,6.732-6.729,6.732
	c-3.718,0-6.733-3.014-6.733-6.732S938.607,160.393,942.328,160.393z M942.328,212.393c3.719,0,6.729,3.014,6.729,6.732
	s-3.014,6.732-6.729,6.732c-3.718,0-6.733-3.014-6.733-6.732S938.607,212.393,942.328,212.393z M885.756,56.393
	c3.719,0,6.732,3.014,6.732,6.732s-3.017,6.732-6.732,6.732s-6.729-3.014-6.729-6.732S882.038,56.393,885.756,56.393z
	 M885.756,108.393c3.719,0,6.732,3.014,6.732,6.732s-3.017,6.732-6.732,6.732s-6.729-3.014-6.729-6.732
	S882.038,108.393,885.756,108.393z M885.756,160.393c3.719,0,6.732,3.014,6.732,6.732s-3.017,6.732-6.732,6.732
	s-6.729-3.014-6.729-6.732S882.038,160.393,885.756,160.393z M885.756,212.393c3.719,0,6.732,3.014,6.732,6.732
	s-3.017,6.732-6.732,6.732s-6.729-3.014-6.729-6.732S882.038,212.393,885.756,212.393z M885.756,264.393
	c3.719,0,6.732,3.014,6.732,6.732s-3.017,6.732-6.732,6.732s-6.729-3.014-6.729-6.732S882.038,264.393,885.756,264.393z
	 M829.186,56.393c3.722,0,6.732,3.014,6.732,6.732s-3.014,6.732-6.732,6.732c-3.718,0-6.729-3.014-6.729-6.732
	S825.467,56.393,829.186,56.393z M829.186,108.393c3.722,0,6.732,3.014,6.732,6.732s-3.014,6.732-6.732,6.732
	c-3.718,0-6.729-3.014-6.729-6.732S825.467,108.393,829.186,108.393z M829.186,160.393c3.722,0,6.732,3.014,6.732,6.732
	s-3.014,6.732-6.732,6.732c-3.718,0-6.729-3.014-6.729-6.732S825.467,160.393,829.186,160.393z M829.186,212.393
	c3.722,0,6.732,3.014,6.732,6.732s-3.014,6.732-6.732,6.732c-3.718,0-6.729-3.014-6.729-6.732S825.467,212.393,829.186,212.393z
	 M829.186,264.393c3.722,0,6.732,3.014,6.732,6.732s-3.014,6.732-6.732,6.732c-3.718,0-6.729-3.014-6.729-6.732
	S825.467,264.393,829.186,264.393z M772.616,56.393c3.719,0,6.729,3.014,6.729,6.732s-3.014,6.732-6.729,6.732
	s-6.732-3.014-6.732-6.732S768.896,56.393,772.616,56.393z M772.616,108.393c3.719,0,6.729,3.014,6.729,6.732
	s-3.014,6.732-6.729,6.732s-6.732-3.014-6.732-6.732S768.896,108.393,772.616,108.393z M772.616,160.393
	c3.719,0,6.729,3.014,6.729,6.732s-3.014,6.732-6.729,6.732s-6.732-3.014-6.732-6.732S768.896,160.393,772.616,160.393z
	 M772.616,212.393c3.719,0,6.729,3.014,6.729,6.732s-3.014,6.732-6.729,6.732s-6.732-3.014-6.732-6.732
	S768.896,212.393,772.616,212.393z M772.616,264.393c3.719,0,6.729,3.014,6.729,6.732s-3.014,6.732-6.729,6.732
	s-6.732-3.014-6.732-6.732S768.896,264.393,772.616,264.393z M772.616,316.393c3.719,0,6.729,3.015,6.729,6.732
	s-3.014,6.732-6.729,6.732s-6.732-3.015-6.732-6.732S768.896,316.393,772.616,316.393z M716.045,108.393
	c3.719,0,6.732,3.014,6.732,6.732s-3.017,6.732-6.732,6.732s-6.732-3.014-6.732-6.732S712.327,108.393,716.045,108.393z
	 M716.045,160.393c3.719,0,6.732,3.014,6.732,6.732s-3.017,6.732-6.732,6.732s-6.732-3.014-6.732-6.732
	S712.327,160.393,716.045,160.393z M716.045,212.393c3.719,0,6.732,3.014,6.732,6.732s-3.017,6.732-6.732,6.732
	s-6.732-3.014-6.732-6.732S712.327,212.393,716.045,212.393z M716.045,264.393c3.719,0,6.732,3.014,6.732,6.732
	s-3.017,6.732-6.732,6.732s-6.732-3.014-6.732-6.732S712.327,264.393,716.045,264.393z M716.045,316.393
	c3.719,0,6.732,3.015,6.732,6.732s-3.017,6.732-6.732,6.732s-6.732-3.015-6.732-6.732S712.327,316.393,716.045,316.393z
	 M659.475,160.393c3.722,0,6.732,3.014,6.732,6.732s-3.014,6.732-6.732,6.732c-3.718,0-6.729-3.014-6.729-6.732
	S655.756,160.393,659.475,160.393z M659.475,212.393c3.722,0,6.732,3.014,6.732,6.732s-3.014,6.732-6.732,6.732
	c-3.718,0-6.729-3.014-6.729-6.732S655.756,212.393,659.475,212.393z M659.475,264.393c3.722,0,6.732,3.014,6.732,6.732
	s-3.014,6.732-6.732,6.732c-3.718,0-6.729-3.014-6.729-6.732S655.756,264.393,659.475,264.393z M659.475,316.393
	c3.722,0,6.732,3.015,6.732,6.732s-3.014,6.732-6.732,6.732c-3.718,0-6.729-3.015-6.729-6.732S655.756,316.393,659.475,316.393z
	 M659.475,368.393c3.722,0,6.732,3.015,6.732,6.732s-3.014,6.732-6.732,6.732c-3.718,0-6.729-3.015-6.729-6.732
	S655.756,368.393,659.475,368.393z M602.905,212.393c3.719,0,6.729,3.014,6.729,6.732s-3.014,6.732-6.729,6.732
	c-3.718,0-6.732-3.014-6.732-6.732S599.186,212.393,602.905,212.393z M602.905,264.393c3.719,0,6.729,3.014,6.729,6.732
	s-3.014,6.732-6.729,6.732c-3.718,0-6.732-3.014-6.732-6.732S599.186,264.393,602.905,264.393z M602.905,316.393
	c3.719,0,6.729,3.015,6.729,6.732s-3.014,6.732-6.729,6.732c-3.718,0-6.732-3.015-6.732-6.732S599.186,316.393,602.905,316.393z
	 M602.905,368.393c3.719,0,6.729,3.015,6.729,6.732s-3.014,6.732-6.729,6.732c-3.718,0-6.732-3.015-6.732-6.732
	S599.186,368.393,602.905,368.393z M602.905,420.394c3.719,0,6.729,3.016,6.729,6.732s-3.014,6.732-6.729,6.732
	c-3.718,0-6.732-3.019-6.732-6.732C596.172,423.408,599.186,420.394,602.905,420.394z M546.334,264.393
	c3.719,0,6.732,3.014,6.732,6.732s-3.017,6.732-6.732,6.732s-6.732-3.014-6.732-6.732S542.616,264.393,546.334,264.393z
	 M546.334,316.393c3.719,0,6.732,3.015,6.732,6.732s-3.017,6.732-6.732,6.732s-6.732-3.015-6.732-6.732
	S542.616,316.393,546.334,316.393z M546.334,368.393c3.719,0,6.732,3.015,6.732,6.732s-3.017,6.732-6.732,6.732
	s-6.732-3.015-6.732-6.732S542.616,368.393,546.334,368.393z M546.334,420.394c3.719,0,6.732,3.016,6.732,6.732
	s-3.017,6.732-6.732,6.732s-6.732-3.019-6.732-6.732C539.602,423.408,542.616,420.394,546.334,420.394z M433.194,381.858
	c-3.722,0-6.732-3.015-6.732-6.732s3.014-6.732,6.732-6.732c3.718,0,6.729,3.015,6.729,6.732S436.913,381.858,433.194,381.858z
	 M489.764,433.859c-3.718,0-6.729-3.019-6.729-6.732c0-3.719,3.014-6.732,6.729-6.732c3.722,0,6.733,3.016,6.733,6.732
	S493.483,433.859,489.764,433.859z M489.764,381.858c-3.719,0-6.729-3.015-6.729-6.732s3.014-6.732,6.729-6.732
	c3.721,0,6.732,3.015,6.732,6.732S493.483,381.858,489.764,381.858z M489.764,329.858c-3.719,0-6.729-3.015-6.729-6.732
	s3.014-6.732,6.729-6.732c3.721,0,6.732,3.015,6.732,6.732S493.483,329.858,489.764,329.858z"/>
</svg>
