<?xml version="1.0" encoding="utf-8"?>
<!-- Generator: Adobe Illustrator 16.0.0, SVG Export Plug-In . SVG Version: 6.00 Build 0)  -->
<!DOCTYPE svg PUBLIC "-//W3C//DTD SVG 1.1//EN" "http://www.w3.org/Graphics/SVG/1.1/DTD/svg11.dtd">
<svg version="1.1" id="Layer_1" xmlns="http://www.w3.org/2000/svg" xmlns:xlink="http://www.w3.org/1999/xlink" x="0px" y="0px"
	 width="921.482px" height="997.2px" viewBox="0 0 921.482 997.2" enable-background="new 0 0 921.482 997.2" xml:space="preserve">
<path fill="none" stroke="#000000" stroke-linejoin="round" stroke-miterlimit="10" d="M841.492,502.014
	c-1.152-1.438-14.979-28.08-19.295-61.055c-4.033-31.32-1.584-68.616,42.768-153.792c7.127-13.68,17.424-32.616,30.889-56.808
	c8.137-14.616,13.535-23.76,16.059-27.72l0,0l-0.793-2.016l0,0c-3.816,1.368-44.496,27.144-121.969,77.328
	c-59.979,38.88-119.811,82.8-149.762,110.448c-11.664,10.8-18.936,18.862-21.672,24.264c-5.398,10.656-4.465,12.168,5.475,18.432
	c9.217,5.688,33.621,12.96,73.365,21.672c47.811,10.516,76.178,17.208,85.031,20.16c7.416,2.448,17.568,6.696,30.457,12.816
	c7.92,3.744,17.279,9.357,28.152,16.775l0,0L841.492,502.014L841.492,502.014 M859.877,164.185c0.717,0.014,1.621-7.939,1.258-8.948
	c-1.648-4.593-6.566-4.795-10.342-6.445c-0.094-0.041-7.318-0.937-21.742-2.661c-28.836-3.448-57.24-9.754-84.961-18.383
	c-74.553-23.207-119.383-37.742-134.559-43.579L589.06,76.84c-4.701-1.568-28.65-10.093-71.938-25.616
	C487.884,40.818,470.8,34.643,465.87,32.699l-10.179-3.918c-3.406-1.322-9.777-4.213-13.422-2.518
	c-4.714,2.192-7.193,10.313-8.679,14.964c-1.347,4.223-2.233,12.95-7.765,13.786c-3.991,0.603-9.493-1.223-13.318-2.392
	C352.26,34.2,295.382,26.827,263.302,25.795c-17.697-0.605-35.863,0.363-54.526,2.835c-8.314-9.051-15.889-27.186-29.684-28.619
	c-2.084-0.193-12.749,2.182-32.01,7.284c-39.847,10.57-69.276,22.103-88.232,34.737c-5.546,3.692-11.133,7.558-15.507,12.647
	c-3.65,4.247-6.004,9.38-8.622,14.285l-24.154,9.403C5.668,80.274,2.168,82.795,0,85.958c24.765,11.22,68.874,27.272,132.376,48.291
	c35.23,11.705,72.485,25.634,111.766,41.789c3.396,1.382,13.289,5.952,29.717,13.619c11.809,5.524,21.444,10.427,28.958,14.842
	c16.57,9.62,68.097,47.509,101.345,81.31c22.57,23.047,50.711,60.999,84.424,113.857c9.99,15.737,18.625,31.768,25.842,48.12
	c18.088,40.707,21.32,74.216,9.768,100.503c-6.559,14.914-24.184,38.311-40.207,53.512c-14.678,13.902-29.52,25.398-44.575,34.352
	c-1.597,0.949,8.163,18.508,12.981,27.396c3.286,6.061,7.399,19.604,12.383,40.533c5.996,25.326,6.992,47.344,2.98,66.213
	c-3.465,16.107-16.014,38.453-37.47,66.895c-29.374,38.863-44.834,59.484-46.34,61.771c-6.082,9.234-14.382,21.838-12.77,30.312
	c1.153,6.059,6.209,8.555,12.083,9.203c0.868,0.051,115.068-24.553,131-28.279c1.062-0.26,22.832-5.258,65.35-14.936
	c16.611-3.764,27.4-6.418,32.498-8.016l-1.047-2.686c-0.441-1.141-0.689-4.752-0.74-10.838
	c-0.312-23.826,7.594-47.381,23.703-70.496c20.26-29.135,69.16-77.377,146.57-144.678c48.998-42.639,82.402-70.555,100.08-83.693
	c-6.236-12.252-24.164-38.65-50.346-57.277c-18.953-13.561-42.357-23.07-70.078-28.582c-6.031-1.205-16.818-3.11-32.197-5.7
	c-67.791-11.391-122.756-22.982-131.807-63.501c-2.301-10.076,0-20.243,6.699-30.423c9.33-14.141,38.471-40.705,87.484-79.721
	c29.148-23.169,70.779-51.583,124.923-85.177c26.896-16.651,84.733-48.286,105.179-55.316c-0.062-0.75,0.277-1.268,0.948-1.529
	C911.232,165.905,890.705,164.778,859.877,164.185z M685.5,563.883c0.646-14.398,10.152-24.119,17.713-28.08
	c27.504-14.184,59.76,10.73,48.959,41.617c-3.668,10.492-12.303,17.887-23.027,20.613c-12.365,3.143-27.1,0.648-35.412-9.75
	c-2.439-3.051-5.113-7.227-6.246-10.986C686.254,573.215,685.309,568.157,685.5,563.883z"/>
</svg>
