<?xml version="1.0" encoding="utf-8"?>
<!-- Generator: Adobe Illustrator 16.0.0, SVG Export Plug-In . SVG Version: 6.00 Build 0)  -->
<!DOCTYPE svg PUBLIC "-//W3C//DTD SVG 1.1//EN" "http://www.w3.org/Graphics/SVG/1.1/DTD/svg11.dtd">
<svg version="1.1" id="Layer_1" xmlns="http://www.w3.org/2000/svg" xmlns:xlink="http://www.w3.org/1999/xlink" x="0px" y="0px"
	 width="1773.566px" height="714.097px" viewBox="0 0 1773.566 714.097" enable-background="new 0 0 1773.566 714.097"
	 xml:space="preserve">
<path fill="none" stroke="#000000" stroke-linejoin="round" stroke-miterlimit="10" d="M1719.297,512.404l-69.285-57.486
	l-39.666-32.254l-44.752-36.271c-52.605-42.639-103.281-87.58-153.541-132.949c-24.395-22.019-49.572-43.161-73.752-65.419
	c-21.496-19.787-43.383-39.144-65.297-58.465l-20.012-17.644c-9.65-8.509-23.289-8.846-34.928-13.279
	c-6.182-2.353-12.857-3.714-19.398-2.296l-41.99,9.099c-7.211,1.563-14.771,3.045-21.943,0.72
	c-21.094-6.835-36.684-23.894-56.033-34.118c-28.664-15.142-57.586-30.035-88.314-40.539c-38.404-13.129-77.309-25.92-117.92-29.534
	c-53.918-4.796-108.35-0.956-160.713,12.949c-45.523,12.088-90.189,27.182-133.9,44.714
	c-91.441,36.677-193.23,77.501-272.042,115.501c-62.167,29.975-125.259,58.034-186.864,89.168
	c-26.857,13.572-54.25,26.101-80.632,40.593l-33.45,18.375c-1.578,0.866-3.22,3.411-4.862,7.6l10.008,7.152l12.815,2.244
	c22.917,4.013,46.052,6.605,69.031,10.222c18.289,2.877,36.933,1.203,55.316,3.049c23.323,2.34,46.643,5.344,69.305,11.465
	c20.571,5.561,40.125,14.432,57.644,26.58c45.675,31.676,81.948,74.199,117.543,116.486c36.658,43.551,68.611,90.779,97.06,140.061
	c3.387,5.863,5.312,9.074,6.013,9.598c5.508,4.115,13.341,9.973,18.932,7.1c12.038-6.186,23.7-13.074,34.871-20.715l10.986-7.518
	c69.928-47.814,141.948-92.928,219.27-127.832c46.689-21.076,95.271-37.557,142.75-56.721c22.574-9.113,47.186-4.818,70.188,0.959
	c20.02,5.029,38.65,14.186,55.926,25.389c27.217,17.656,68.598,50.352,101.98,76.725c32.318,25.529,69.945,56.398,104.68,84.895
	c18.098,14.844,31.875,26.555,41.45,35.227c11.354,10.254,22.317,19.828,32.832,28.598c6.87,5.703,10.603,8.645,11.3,8.926
	c6.223,2.346,17.686,1.309,21.598-0.74l9.938-5.268c26.263-13.912,53.248-26.393,80.722-37.715
	c23.703-9.771,47.686-18.965,72.438-25.729c17.322-4.729,35.361-6.252,52.691-10.945c17.641-4.779,35.896-1.32,53.481,2.338
	c0.315,0.061,3.796,0.889,10.495,2.51c13.716,3.311,20.73,5.002,20.99,5.02c3.316-0.133,6.74-1.098,10.359-3.01
	c15.434-8.145,22.84-25.441,36.028-36.312c8.722-7.189,12.938-18.039,14.328-29.059l3.954-31.375
	c0.089-0.57-1.478-20.895-1.646-21.023L1719.297,512.404z M108.897,296.341c-3.719,0-6.732-3.014-6.732-6.732
	c0-3.718,3.014-6.732,6.732-6.732c3.718,0,6.732,3.014,6.732,6.732C115.629,293.327,112.616,296.341,108.897,296.341z
	 M165.467,348.341c-3.719,0-6.732-3.014-6.732-6.731c0-3.719,3.014-6.732,6.732-6.732c3.718,0,6.732,3.014,6.732,6.732
	C172.199,345.327,169.186,348.341,165.467,348.341z M165.467,296.341c-3.719,0-6.732-3.014-6.732-6.732
	c0-3.718,3.014-6.732,6.732-6.732c3.718,0,6.732,3.014,6.732,6.732C172.199,293.327,169.186,296.341,165.467,296.341z
	 M222.038,348.341c-3.719,0-6.732-3.014-6.732-6.731c0-3.719,3.014-6.732,6.732-6.732c3.718,0,6.732,3.014,6.732,6.732
	C228.77,345.327,225.756,348.341,222.038,348.341z M222.038,296.341c-3.719,0-6.732-3.014-6.732-6.732
	c0-3.718,3.014-6.732,6.732-6.732c3.718,0,6.732,3.014,6.732,6.732C228.77,293.327,225.756,296.341,222.038,296.341z
	 M222.038,244.341c-3.719,0-6.732-3.014-6.732-6.732c0-3.718,3.014-6.732,6.732-6.732c3.718,0,6.732,3.014,6.732,6.732
	C228.77,241.327,225.756,244.341,222.038,244.341z M278.608,348.341c-3.719,0-6.732-3.014-6.732-6.731
	c0-3.719,3.014-6.732,6.732-6.732c3.718,0,6.732,3.014,6.732,6.732C285.34,345.327,282.327,348.341,278.608,348.341z
	 M278.608,296.341c-3.719,0-6.732-3.014-6.732-6.732c0-3.718,3.014-6.732,6.732-6.732c3.718,0,6.732,3.014,6.732,6.732
	C285.34,293.327,282.327,296.341,278.608,296.341z M278.608,244.341c-3.719,0-6.732-3.014-6.732-6.732
	c0-3.718,3.014-6.732,6.732-6.732c3.718,0,6.732,3.014,6.732,6.732C285.34,241.327,282.327,244.341,278.608,244.341z
	 M335.178,400.341c-3.719,0-6.729-3.014-6.729-6.73c0-3.719,3.014-6.732,6.729-6.732c3.721,0,6.732,3.016,6.732,6.732
	S338.897,400.341,335.178,400.341z M335.178,348.341c-3.719,0-6.729-3.014-6.729-6.731c0-3.719,3.014-6.732,6.729-6.732
	c3.721,0,6.732,3.014,6.732,6.732C341.91,345.327,338.897,348.341,335.178,348.341z M335.178,296.341
	c-3.719,0-6.729-3.014-6.729-6.732c0-3.718,3.014-6.732,6.729-6.732c3.721,0,6.732,3.014,6.732,6.732
	C341.91,293.327,338.897,296.341,335.178,296.341z M335.178,244.341c-3.719,0-6.729-3.014-6.729-6.732
	c0-3.718,3.014-6.732,6.729-6.732c3.721,0,6.732,3.014,6.732,6.732C341.91,241.327,338.897,244.341,335.178,244.341z
	 M335.178,192.341c-3.719,0-6.729-3.014-6.729-6.732c0-3.718,3.014-6.732,6.729-6.732c3.721,0,6.732,3.014,6.732,6.732
	C341.91,189.327,338.897,192.341,335.178,192.341z M391.749,452.341c-3.719,0-6.732-3.014-6.732-6.73
	c0-3.721,3.017-6.732,6.732-6.732s6.732,3.014,6.732,6.732C398.481,449.328,395.467,452.341,391.749,452.341z M391.749,400.341
	c-3.719,0-6.732-3.014-6.732-6.73c0-3.719,3.017-6.732,6.732-6.732s6.732,3.016,6.732,6.732S395.467,400.341,391.749,400.341z
	 M391.749,348.341c-3.719,0-6.732-3.014-6.732-6.731c0-3.719,3.017-6.732,6.732-6.732s6.732,3.014,6.732,6.732
	C398.481,345.327,395.467,348.341,391.749,348.341z M391.749,296.341c-3.719,0-6.732-3.014-6.732-6.732
	c0-3.718,3.017-6.732,6.732-6.732s6.732,3.014,6.732,6.732C398.481,293.327,395.467,296.341,391.749,296.341z M391.749,244.341
	c-3.719,0-6.732-3.014-6.732-6.732c0-3.718,3.017-6.732,6.732-6.732s6.732,3.014,6.732,6.732
	C398.481,241.327,395.467,244.341,391.749,244.341z M391.749,192.341c-3.719,0-6.732-3.014-6.732-6.732
	c0-3.718,3.017-6.732,6.732-6.732s6.732,3.014,6.732,6.732C398.481,189.327,395.467,192.341,391.749,192.341z M448.319,556.341
	c-3.723,0-6.732-3.014-6.732-6.73c0-3.721,3.014-6.732,6.732-6.732c3.718,0,6.729,3.014,6.729,6.732
	C455.051,553.328,452.038,556.341,448.319,556.341z M448.319,504.341c-3.723,0-6.732-3.014-6.732-6.73
	c0-3.721,3.014-6.732,6.732-6.732c3.718,0,6.729,3.014,6.729,6.732C455.051,501.328,452.038,504.341,448.319,504.341z
	 M448.319,452.341c-3.723,0-6.732-3.014-6.732-6.73c0-3.721,3.014-6.732,6.732-6.732c3.718,0,6.729,3.014,6.729,6.732
	C455.051,449.328,452.038,452.341,448.319,452.341z M448.319,400.341c-3.723,0-6.732-3.014-6.732-6.73
	c0-3.719,3.014-6.732,6.732-6.732c3.718,0,6.729,3.016,6.729,6.732C455.051,397.328,452.038,400.341,448.319,400.341z
	 M448.319,348.341c-3.723,0-6.732-3.014-6.732-6.731c0-3.719,3.014-6.732,6.732-6.732c3.718,0,6.729,3.014,6.729,6.732
	C455.051,345.327,452.038,348.341,448.319,348.341z M448.319,296.341c-3.723,0-6.732-3.014-6.732-6.732
	c0-3.718,3.014-6.732,6.732-6.732c3.718,0,6.729,3.014,6.729,6.732C455.051,293.327,452.038,296.341,448.319,296.341z
	 M448.319,244.341c-3.723,0-6.732-3.014-6.732-6.732c0-3.718,3.014-6.732,6.732-6.732c3.718,0,6.729,3.014,6.729,6.732
	C455.051,241.327,452.038,244.341,448.319,244.341z M448.319,192.341c-3.723,0-6.732-3.014-6.732-6.732
	c0-3.718,3.014-6.732,6.732-6.732c3.718,0,6.729,3.014,6.729,6.732C455.051,189.327,452.038,192.341,448.319,192.341z
	 M448.319,140.341c-3.723,0-6.732-3.014-6.732-6.732c0-3.718,3.014-6.732,6.732-6.732c3.718,0,6.729,3.014,6.729,6.732
	C455.051,137.327,452.038,140.341,448.319,140.341z M504.889,608.341c-3.719,0-6.729-3.014-6.729-6.73
	c0-3.721,3.014-6.732,6.729-6.732c3.722,0,6.732,3.014,6.732,6.732C511.621,605.328,508.608,608.341,504.889,608.341z
	 M504.889,556.341c-3.719,0-6.729-3.014-6.729-6.73c0-3.721,3.014-6.732,6.729-6.732c3.722,0,6.732,3.014,6.732,6.732
	C511.621,553.328,508.608,556.341,504.889,556.341z M504.889,504.341c-3.719,0-6.729-3.014-6.729-6.73
	c0-3.721,3.014-6.732,6.729-6.732c3.722,0,6.732,3.014,6.732,6.732C511.621,501.328,508.608,504.341,504.889,504.341z
	 M504.889,452.341c-3.719,0-6.729-3.014-6.729-6.73c0-3.721,3.014-6.732,6.729-6.732c3.722,0,6.732,3.014,6.732,6.732
	C511.621,449.328,508.608,452.341,504.889,452.341z M504.889,400.341c-3.719,0-6.729-3.014-6.729-6.73
	c0-3.719,3.014-6.732,6.729-6.732c3.722,0,6.732,3.016,6.732,6.732S508.608,400.341,504.889,400.341z M504.889,348.341
	c-3.719,0-6.729-3.014-6.729-6.731c0-3.719,3.014-6.732,6.729-6.732c3.722,0,6.732,3.014,6.732,6.732
	C511.621,345.327,508.608,348.341,504.889,348.341z M504.889,296.341c-3.719,0-6.729-3.014-6.729-6.732
	c0-3.718,3.014-6.732,6.729-6.732c3.722,0,6.732,3.014,6.732,6.732C511.621,293.327,508.608,296.341,504.889,296.341z
	 M504.889,244.341c-3.719,0-6.729-3.014-6.729-6.732c0-3.718,3.014-6.732,6.729-6.732c3.722,0,6.732,3.014,6.732,6.732
	C511.621,241.327,508.608,244.341,504.889,244.341z M504.889,192.341c-3.719,0-6.729-3.014-6.729-6.732
	c0-3.718,3.014-6.732,6.729-6.732c3.722,0,6.732,3.014,6.732,6.732C511.621,189.327,508.608,192.341,504.889,192.341z
	 M504.889,140.341c-3.719,0-6.729-3.014-6.729-6.732c0-3.718,3.014-6.732,6.729-6.732c3.722,0,6.732,3.014,6.732,6.732
	C511.621,137.327,508.608,140.341,504.889,140.341z M561.459,608.341c-3.719,0-6.732-3.014-6.732-6.73
	c0-3.721,3.018-6.732,6.732-6.732s6.732,3.014,6.732,6.732C568.191,605.328,565.178,608.341,561.459,608.341z M561.459,556.341
	c-3.719,0-6.732-3.014-6.732-6.73c0-3.721,3.018-6.732,6.732-6.732s6.732,3.014,6.732,6.732
	C568.191,553.328,565.178,556.341,561.459,556.341z M561.459,504.341c-3.719,0-6.732-3.014-6.732-6.73
	c0-3.721,3.018-6.732,6.732-6.732s6.732,3.014,6.732,6.732C568.191,501.328,565.178,504.341,561.459,504.341z M561.459,452.341
	c-3.719,0-6.732-3.014-6.732-6.73c0-3.721,3.018-6.732,6.732-6.732s6.732,3.014,6.732,6.732
	C568.191,449.328,565.178,452.341,561.459,452.341z M561.459,400.341c-3.719,0-6.732-3.014-6.732-6.73
	c0-3.719,3.018-6.732,6.732-6.732s6.732,3.016,6.732,6.732S565.178,400.341,561.459,400.341z M561.459,348.341
	c-3.719,0-6.732-3.014-6.732-6.731c0-3.719,3.018-6.732,6.732-6.732s6.732,3.014,6.732,6.732
	C568.191,345.327,565.178,348.341,561.459,348.341z M561.459,296.341c-3.719,0-6.732-3.014-6.732-6.732
	c0-3.718,3.018-6.732,6.732-6.732s6.732,3.014,6.732,6.732C568.191,293.327,565.178,296.341,561.459,296.341z M561.459,244.341
	c-3.719,0-6.732-3.014-6.732-6.732c0-3.718,3.018-6.732,6.732-6.732s6.732,3.014,6.732,6.732
	C568.191,241.327,565.178,244.341,561.459,244.341z M561.459,192.341c-3.719,0-6.732-3.014-6.732-6.732
	c0-3.718,3.018-6.732,6.732-6.732s6.732,3.014,6.732,6.732C568.191,189.327,565.178,192.341,561.459,192.341z M561.459,140.341
	c-3.719,0-6.732-3.014-6.732-6.732c0-3.718,3.018-6.732,6.732-6.732s6.732,3.014,6.732,6.732
	C568.191,137.327,565.178,140.341,561.459,140.341z M618.03,556.341c-3.72,0-6.732-3.014-6.732-6.73
	c0-3.721,3.018-6.732,6.732-6.732s6.729,3.014,6.729,6.732C624.762,553.328,621.749,556.341,618.03,556.341z M618.03,504.341
	c-3.72,0-6.732-3.014-6.732-6.73c0-3.721,3.018-6.732,6.732-6.732s6.729,3.014,6.729,6.732
	C624.762,501.328,621.749,504.341,618.03,504.341z M618.03,452.341c-3.72,0-6.732-3.014-6.732-6.73c0-3.721,3.018-6.732,6.732-6.732
	s6.729,3.014,6.729,6.732C624.762,449.328,621.749,452.341,618.03,452.341z M618.03,400.341c-3.72,0-6.732-3.014-6.732-6.73
	c0-3.719,3.018-6.732,6.732-6.732s6.729,3.016,6.729,6.732C624.762,397.328,621.749,400.341,618.03,400.341z M618.03,348.341
	c-3.72,0-6.732-3.014-6.732-6.731c0-3.719,3.018-6.732,6.732-6.732s6.729,3.014,6.729,6.732
	C624.762,345.327,621.749,348.341,618.03,348.341z M618.03,296.341c-3.72,0-6.732-3.014-6.732-6.732
	c0-3.718,3.018-6.732,6.732-6.732s6.729,3.014,6.729,6.732C624.762,293.327,621.749,296.341,618.03,296.341z M618.03,244.341
	c-3.72,0-6.732-3.014-6.732-6.732c0-3.718,3.018-6.732,6.732-6.732s6.729,3.014,6.729,6.732
	C624.762,241.327,621.749,244.341,618.03,244.341z M618.03,192.341c-3.72,0-6.732-3.014-6.732-6.732
	c0-3.718,3.018-6.732,6.732-6.732s6.729,3.014,6.729,6.732C624.762,189.327,621.749,192.341,618.03,192.341z M618.03,140.341
	c-3.72,0-6.732-3.014-6.732-6.732c0-3.718,3.018-6.732,6.732-6.732s6.729,3.014,6.729,6.732
	C624.762,137.327,621.749,140.341,618.03,140.341z M618.03,88.341c-3.72,0-6.732-3.014-6.732-6.732c0-3.718,3.018-6.732,6.732-6.732
	s6.729,3.014,6.729,6.732C624.762,85.327,621.749,88.341,618.03,88.341z M674.6,504.341c-3.719,0-6.729-3.014-6.729-6.73
	c0-3.721,3.014-6.732,6.729-6.732c3.722,0,6.732,3.014,6.732,6.732C681.332,501.328,678.319,504.341,674.6,504.341z M674.6,452.341
	c-3.719,0-6.729-3.014-6.729-6.73c0-3.721,3.014-6.732,6.729-6.732c3.722,0,6.732,3.014,6.732,6.732
	C681.332,449.328,678.319,452.341,674.6,452.341z M674.6,400.341c-3.719,0-6.729-3.014-6.729-6.73c0-3.719,3.014-6.732,6.729-6.732
	c3.722,0,6.732,3.016,6.732,6.732S678.319,400.341,674.6,400.341z M674.6,348.341c-3.719,0-6.729-3.014-6.729-6.731
	c0-3.719,3.014-6.732,6.729-6.732c3.722,0,6.732,3.014,6.732,6.732C681.332,345.327,678.319,348.341,674.6,348.341z M674.6,296.341
	c-3.719,0-6.729-3.014-6.729-6.732c0-3.718,3.014-6.732,6.729-6.732c3.722,0,6.732,3.014,6.732,6.732
	C681.332,293.327,678.319,296.341,674.6,296.341z M674.6,244.341c-3.719,0-6.729-3.014-6.729-6.732c0-3.718,3.014-6.732,6.729-6.732
	c3.722,0,6.732,3.014,6.732,6.732C681.332,241.327,678.319,244.341,674.6,244.341z M674.6,192.341c-3.719,0-6.729-3.014-6.729-6.732
	c0-3.718,3.014-6.732,6.729-6.732c3.722,0,6.732,3.014,6.732,6.732C681.332,189.327,678.319,192.341,674.6,192.341z M674.6,140.341
	c-3.719,0-6.729-3.014-6.729-6.732c0-3.718,3.014-6.732,6.729-6.732c3.722,0,6.732,3.014,6.732,6.732
	C681.332,137.327,678.319,140.341,674.6,140.341z M674.6,88.341c-3.719,0-6.729-3.014-6.729-6.732c0-3.718,3.014-6.732,6.729-6.732
	c3.722,0,6.732,3.014,6.732,6.732C681.332,85.327,678.319,88.341,674.6,88.341z M731.17,504.341c-3.719,0-6.732-3.014-6.732-6.73
	c0-3.721,3.018-6.732,6.732-6.732s6.732,3.014,6.732,6.732C737.902,501.328,734.889,504.341,731.17,504.341z M731.17,452.341
	c-3.719,0-6.732-3.014-6.732-6.73c0-3.721,3.018-6.732,6.732-6.732s6.732,3.014,6.732,6.732
	C737.902,449.328,734.889,452.341,731.17,452.341z M731.17,400.341c-3.719,0-6.732-3.014-6.732-6.73
	c0-3.719,3.018-6.732,6.732-6.732s6.732,3.016,6.732,6.732S734.889,400.341,731.17,400.341z M731.17,348.341
	c-3.719,0-6.732-3.014-6.732-6.731c0-3.719,3.018-6.732,6.732-6.732s6.732,3.014,6.732,6.732
	C737.902,345.327,734.889,348.341,731.17,348.341z M731.17,296.341c-3.719,0-6.732-3.014-6.732-6.732
	c0-3.718,3.018-6.732,6.732-6.732s6.732,3.014,6.732,6.732C737.902,293.327,734.889,296.341,731.17,296.341z M731.17,244.341
	c-3.719,0-6.732-3.014-6.732-6.732c0-3.718,3.018-6.732,6.732-6.732s6.732,3.014,6.732,6.732
	C737.902,241.327,734.889,244.341,731.17,244.341z M731.17,192.341c-3.719,0-6.732-3.014-6.732-6.732
	c0-3.718,3.018-6.732,6.732-6.732s6.732,3.014,6.732,6.732C737.902,189.327,734.889,192.341,731.17,192.341z M731.17,140.341
	c-3.719,0-6.732-3.014-6.732-6.732c0-3.718,3.018-6.732,6.732-6.732s6.732,3.014,6.732,6.732
	C737.902,137.327,734.889,140.341,731.17,140.341z M731.17,88.341c-3.719,0-6.732-3.014-6.732-6.732
	c0-3.718,3.018-6.732,6.732-6.732s6.732,3.014,6.732,6.732C737.902,85.327,734.889,88.341,731.17,88.341z M731.17,36.341
	c-3.719,0-6.732-3.014-6.732-6.732c0-3.718,3.018-6.732,6.732-6.732s6.732,3.014,6.732,6.732
	C737.902,33.327,734.889,36.341,731.17,36.341z M787.741,452.341c-3.719,0-6.732-3.014-6.732-6.73c0-3.721,3.018-6.732,6.732-6.732
	s6.729,3.014,6.729,6.732C794.473,449.328,791.459,452.341,787.741,452.341z M787.741,400.341c-3.719,0-6.732-3.014-6.732-6.73
	c0-3.719,3.018-6.732,6.732-6.732s6.729,3.016,6.729,6.732C794.473,397.328,791.459,400.341,787.741,400.341z M787.741,348.341
	c-3.719,0-6.732-3.014-6.732-6.731c0-3.719,3.018-6.732,6.732-6.732s6.729,3.014,6.729,6.732
	C794.473,345.327,791.459,348.341,787.741,348.341z M787.741,296.341c-3.719,0-6.732-3.014-6.732-6.732
	c0-3.718,3.018-6.732,6.732-6.732s6.729,3.014,6.729,6.732C794.473,293.327,791.459,296.341,787.741,296.341z M787.741,244.341
	c-3.719,0-6.732-3.014-6.732-6.732c0-3.718,3.018-6.732,6.732-6.732s6.729,3.014,6.729,6.732
	C794.473,241.327,791.459,244.341,787.741,244.341z M787.741,192.341c-3.719,0-6.732-3.014-6.732-6.732
	c0-3.718,3.018-6.732,6.732-6.732s6.729,3.014,6.729,6.732C794.473,189.327,791.459,192.341,787.741,192.341z M787.741,140.341
	c-3.719,0-6.732-3.014-6.732-6.732c0-3.718,3.018-6.732,6.732-6.732s6.729,3.014,6.729,6.732
	C794.473,137.327,791.459,140.341,787.741,140.341z M787.741,88.341c-3.719,0-6.732-3.014-6.732-6.732
	c0-3.718,3.018-6.732,6.732-6.732s6.729,3.014,6.729,6.732C794.473,85.327,791.459,88.341,787.741,88.341z M787.741,36.341
	c-3.719,0-6.732-3.014-6.732-6.732c0-3.718,3.018-6.732,6.732-6.732s6.729,3.014,6.729,6.732
	C794.473,33.327,791.459,36.341,787.741,36.341z M844.311,452.341c-3.719,0-6.729-3.014-6.729-6.73c0-3.721,3.014-6.732,6.729-6.732
	c3.722,0,6.732,3.014,6.732,6.732C851.043,449.328,848.03,452.341,844.311,452.341z M844.311,400.341
	c-3.719,0-6.729-3.014-6.729-6.73c0-3.719,3.014-6.732,6.729-6.732c3.722,0,6.732,3.016,6.732,6.732S848.03,400.341,844.311,400.341
	z M844.311,348.341c-3.719,0-6.729-3.014-6.729-6.731c0-3.719,3.014-6.732,6.729-6.732c3.722,0,6.732,3.014,6.732,6.732
	C851.043,345.327,848.03,348.341,844.311,348.341z M844.311,296.341c-3.719,0-6.729-3.014-6.729-6.732
	c0-3.718,3.014-6.732,6.729-6.732c3.722,0,6.732,3.014,6.732,6.732C851.043,293.327,848.03,296.341,844.311,296.341z
	 M844.311,244.341c-3.719,0-6.729-3.014-6.729-6.732c0-3.718,3.014-6.732,6.729-6.732c3.722,0,6.732,3.014,6.732,6.732
	C851.043,241.327,848.03,244.341,844.311,244.341z M844.311,192.341c-3.719,0-6.729-3.014-6.729-6.732
	c0-3.718,3.014-6.732,6.729-6.732c3.722,0,6.732,3.014,6.732,6.732C851.043,189.327,848.03,192.341,844.311,192.341z
	 M844.311,140.341c-3.719,0-6.729-3.014-6.729-6.732c0-3.718,3.014-6.732,6.729-6.732c3.722,0,6.732,3.014,6.732,6.732
	C851.043,137.327,848.03,140.341,844.311,140.341z M844.311,88.341c-3.719,0-6.729-3.014-6.729-6.732
	c0-3.718,3.014-6.732,6.729-6.732c3.722,0,6.732,3.014,6.732,6.732C851.043,85.327,848.03,88.341,844.311,88.341z M844.311,36.341
	c-3.719,0-6.729-3.014-6.729-6.732c0-3.718,3.014-6.732,6.729-6.732c3.722,0,6.732,3.014,6.732,6.732
	C851.043,33.327,848.03,36.341,844.311,36.341z M900.881,400.341c-3.719,0-6.729-3.014-6.729-6.73c0-3.719,3.014-6.732,6.729-6.732
	s6.732,3.016,6.732,6.732S904.6,400.341,900.881,400.341z M900.881,348.341c-3.719,0-6.729-3.014-6.729-6.731
	c0-3.719,3.014-6.732,6.729-6.732s6.732,3.014,6.732,6.732C907.613,345.327,904.6,348.341,900.881,348.341z M900.881,296.341
	c-3.719,0-6.729-3.014-6.729-6.732c0-3.718,3.014-6.732,6.729-6.732s6.732,3.014,6.732,6.732
	C907.613,293.327,904.6,296.341,900.881,296.341z M900.881,244.341c-3.719,0-6.729-3.014-6.729-6.732
	c0-3.718,3.014-6.732,6.729-6.732s6.732,3.014,6.732,6.732C907.613,241.327,904.6,244.341,900.881,244.341z M900.881,192.341
	c-3.719,0-6.729-3.014-6.729-6.732c0-3.718,3.014-6.732,6.729-6.732s6.732,3.014,6.732,6.732
	C907.613,189.327,904.6,192.341,900.881,192.341z M900.881,140.341c-3.719,0-6.729-3.014-6.729-6.732
	c0-3.718,3.014-6.732,6.729-6.732s6.732,3.014,6.732,6.732C907.613,137.327,904.6,140.341,900.881,140.341z M900.881,88.341
	c-3.719,0-6.729-3.014-6.729-6.732c0-3.718,3.014-6.732,6.729-6.732s6.732,3.014,6.732,6.732
	C907.613,85.327,904.6,88.341,900.881,88.341z M900.881,36.341c-3.719,0-6.729-3.014-6.729-6.732c0-3.718,3.014-6.732,6.729-6.732
	s6.732,3.014,6.732,6.732C907.613,33.327,904.6,36.341,900.881,36.341z M957.451,400.341c-3.719,0-6.732-3.014-6.732-6.73
	c0-3.719,3.018-6.732,6.732-6.732s6.729,3.016,6.729,6.732C964.183,397.328,961.17,400.341,957.451,400.341z M957.451,348.341
	c-3.719,0-6.732-3.014-6.732-6.731c0-3.719,3.018-6.732,6.732-6.732s6.729,3.014,6.729,6.732
	C964.183,345.327,961.17,348.341,957.451,348.341z M957.451,296.341c-3.719,0-6.732-3.014-6.732-6.732
	c0-3.718,3.018-6.732,6.732-6.732s6.729,3.014,6.729,6.732C964.183,293.327,961.17,296.341,957.451,296.341z M957.451,244.341
	c-3.719,0-6.732-3.014-6.732-6.732c0-3.718,3.018-6.732,6.732-6.732s6.729,3.014,6.729,6.732
	C964.183,241.327,961.17,244.341,957.451,244.341z M957.451,192.341c-3.719,0-6.732-3.014-6.732-6.732
	c0-3.718,3.018-6.732,6.732-6.732s6.729,3.014,6.729,6.732C964.183,189.327,961.17,192.341,957.451,192.341z M957.451,140.341
	c-3.719,0-6.732-3.014-6.732-6.732c0-3.718,3.018-6.732,6.732-6.732s6.729,3.014,6.729,6.732
	C964.183,137.327,961.17,140.341,957.451,140.341z M957.451,88.341c-3.719,0-6.732-3.014-6.732-6.732
	c0-3.718,3.018-6.732,6.732-6.732s6.729,3.014,6.729,6.732C964.183,85.327,961.17,88.341,957.451,88.341z M1014.021,400.341
	c-3.723,0-6.732-3.014-6.732-6.73c0-3.719,3.014-6.732,6.732-6.732c3.718,0,6.729,3.016,6.729,6.732
	C1020.753,397.328,1017.74,400.341,1014.021,400.341z M1014.021,348.341c-3.723,0-6.732-3.014-6.732-6.731
	c0-3.719,3.014-6.732,6.732-6.732c3.718,0,6.729,3.014,6.729,6.732C1020.753,345.327,1017.74,348.341,1014.021,348.341z
	 M1014.021,296.341c-3.723,0-6.732-3.014-6.732-6.732c0-3.718,3.014-6.732,6.732-6.732c3.718,0,6.729,3.014,6.729,6.732
	C1020.753,293.327,1017.74,296.341,1014.021,296.341z M1014.021,244.341c-3.723,0-6.732-3.014-6.732-6.732
	c0-3.718,3.014-6.732,6.732-6.732c3.718,0,6.729,3.014,6.729,6.732C1020.753,241.327,1017.74,244.341,1014.021,244.341z
	 M1014.021,192.341c-3.723,0-6.732-3.014-6.732-6.732c0-3.718,3.014-6.732,6.732-6.732c3.718,0,6.729,3.014,6.729,6.732
	C1020.753,189.327,1017.74,192.341,1014.021,192.341z M1014.021,140.341c-3.723,0-6.732-3.014-6.732-6.732
	c0-3.718,3.014-6.732,6.732-6.732c3.718,0,6.729,3.014,6.729,6.732C1020.753,137.327,1017.74,140.341,1014.021,140.341z
	 M1014.021,88.341c-3.723,0-6.732-3.014-6.732-6.732c0-3.718,3.014-6.732,6.732-6.732c3.718,0,6.729,3.014,6.729,6.732
	C1020.753,85.327,1017.74,88.341,1014.021,88.341z M1070.592,452.341c-3.719,0-6.729-3.014-6.729-6.73
	c0-3.721,3.014-6.732,6.729-6.732c3.719,0,6.732,3.014,6.732,6.732C1077.324,449.328,1074.311,452.341,1070.592,452.341z
	 M1070.592,400.341c-3.719,0-6.729-3.014-6.729-6.73c0-3.719,3.014-6.732,6.729-6.732c3.719,0,6.732,3.016,6.732,6.732
	S1074.311,400.341,1070.592,400.341z M1070.592,348.341c-3.719,0-6.729-3.014-6.729-6.731c0-3.719,3.014-6.732,6.729-6.732
	c3.719,0,6.732,3.014,6.732,6.732C1077.324,345.327,1074.311,348.341,1070.592,348.341z M1070.592,296.341
	c-3.719,0-6.729-3.014-6.729-6.732c0-3.718,3.014-6.732,6.729-6.732c3.719,0,6.732,3.014,6.732,6.732
	C1077.324,293.327,1074.311,296.341,1070.592,296.341z M1070.592,244.341c-3.719,0-6.729-3.014-6.729-6.732
	c0-3.718,3.014-6.732,6.729-6.732c3.719,0,6.732,3.014,6.732,6.732C1077.324,241.327,1074.311,244.341,1070.592,244.341z
	 M1070.592,192.341c-3.719,0-6.729-3.014-6.729-6.732c0-3.718,3.014-6.732,6.729-6.732c3.719,0,6.732,3.014,6.732,6.732
	C1077.324,189.327,1074.311,192.341,1070.592,192.341z M1070.592,140.341c-3.719,0-6.729-3.014-6.729-6.732
	c0-3.718,3.014-6.732,6.729-6.732c3.719,0,6.732,3.014,6.732,6.732C1077.324,137.327,1074.311,140.341,1070.592,140.341z
	 M1127.162,504.341c-3.719,0-6.732-3.014-6.732-6.73c0-3.721,3.018-6.732,6.732-6.732s6.732,3.014,6.732,6.732
	C1133.895,501.328,1130.881,504.341,1127.162,504.341z M1127.162,452.341c-3.719,0-6.732-3.014-6.732-6.73
	c0-3.721,3.018-6.732,6.732-6.732s6.732,3.014,6.732,6.732C1133.895,449.328,1130.881,452.341,1127.162,452.341z M1127.162,400.341
	c-3.719,0-6.732-3.014-6.732-6.73c0-3.719,3.018-6.732,6.732-6.732s6.732,3.016,6.732,6.732S1130.881,400.341,1127.162,400.341z
	 M1127.162,348.341c-3.719,0-6.732-3.014-6.732-6.731c0-3.719,3.018-6.732,6.732-6.732s6.732,3.014,6.732,6.732
	C1133.895,345.327,1130.881,348.341,1127.162,348.341z M1127.162,296.341c-3.719,0-6.732-3.014-6.732-6.732
	c0-3.718,3.018-6.732,6.732-6.732s6.732,3.014,6.732,6.732C1133.895,293.327,1130.881,296.341,1127.162,296.341z M1127.162,244.341
	c-3.719,0-6.732-3.014-6.732-6.732c0-3.718,3.018-6.732,6.732-6.732s6.732,3.014,6.732,6.732
	C1133.895,241.327,1130.881,244.341,1127.162,244.341z M1127.162,192.341c-3.719,0-6.732-3.014-6.732-6.732
	c0-3.718,3.018-6.732,6.732-6.732s6.732,3.014,6.732,6.732C1133.895,189.327,1130.881,192.341,1127.162,192.341z M1127.162,140.341
	c-3.719,0-6.732-3.014-6.732-6.732c0-3.718,3.018-6.732,6.732-6.732s6.732,3.014,6.732,6.732
	C1133.895,137.327,1130.881,140.341,1127.162,140.341z M1183.732,556.341c-3.723,0-6.732-3.014-6.732-6.73
	c0-3.721,3.014-6.732,6.732-6.732c3.718,0,6.729,3.014,6.729,6.732C1190.464,553.328,1187.451,556.341,1183.732,556.341z
	 M1183.732,504.341c-3.723,0-6.732-3.014-6.732-6.73c0-3.721,3.014-6.732,6.732-6.732c3.718,0,6.729,3.014,6.729,6.732
	C1190.464,501.328,1187.451,504.341,1183.732,504.341z M1183.732,452.341c-3.723,0-6.732-3.014-6.732-6.73
	c0-3.721,3.014-6.732,6.732-6.732c3.718,0,6.729,3.014,6.729,6.732C1190.464,449.328,1187.451,452.341,1183.732,452.341z
	 M1183.732,400.341c-3.723,0-6.732-3.014-6.732-6.73c0-3.719,3.014-6.732,6.732-6.732c3.718,0,6.729,3.016,6.729,6.732
	C1190.464,397.328,1187.451,400.341,1183.732,400.341z M1183.732,348.341c-3.723,0-6.732-3.014-6.732-6.731
	c0-3.719,3.014-6.732,6.732-6.732c3.718,0,6.729,3.014,6.729,6.732C1190.464,345.327,1187.451,348.341,1183.732,348.341z
	 M1183.732,296.341c-3.723,0-6.732-3.014-6.732-6.732c0-3.718,3.014-6.732,6.732-6.732c3.718,0,6.729,3.014,6.729,6.732
	C1190.464,293.327,1187.451,296.341,1183.732,296.341z M1183.732,244.341c-3.723,0-6.732-3.014-6.732-6.732
	c0-3.718,3.014-6.732,6.732-6.732c3.718,0,6.729,3.014,6.729,6.732C1190.464,241.327,1187.451,244.341,1183.732,244.341z
	 M1183.732,192.341c-3.723,0-6.732-3.014-6.732-6.732c0-3.718,3.014-6.732,6.732-6.732c3.718,0,6.729,3.014,6.729,6.732
	C1190.464,189.327,1187.451,192.341,1183.732,192.341z M1183.732,140.341c-3.723,0-6.732-3.014-6.732-6.732
	c0-3.718,3.014-6.732,6.732-6.732c3.718,0,6.729,3.014,6.729,6.732C1190.464,137.327,1187.451,140.341,1183.732,140.341z
	 M1240.303,608.341c-3.719,0-6.729-3.014-6.729-6.73c0-3.721,3.014-6.732,6.729-6.732c3.719,0,6.732,3.014,6.732,6.732
	C1247.035,605.328,1244.021,608.341,1240.303,608.341z M1240.303,556.341c-3.719,0-6.729-3.014-6.729-6.73
	c0-3.721,3.014-6.732,6.729-6.732c3.719,0,6.732,3.014,6.732,6.732C1247.035,553.328,1244.021,556.341,1240.303,556.341z
	 M1240.303,504.341c-3.719,0-6.729-3.014-6.729-6.73c0-3.721,3.014-6.732,6.729-6.732c3.719,0,6.732,3.014,6.732,6.732
	C1247.035,501.328,1244.021,504.341,1240.303,504.341z M1240.303,452.341c-3.719,0-6.729-3.014-6.729-6.73
	c0-3.721,3.014-6.732,6.729-6.732c3.719,0,6.732,3.014,6.732,6.732C1247.035,449.328,1244.021,452.341,1240.303,452.341z
	 M1240.303,400.341c-3.719,0-6.729-3.014-6.729-6.73c0-3.719,3.014-6.732,6.729-6.732c3.719,0,6.732,3.016,6.732,6.732
	S1244.021,400.341,1240.303,400.341z M1240.303,348.341c-3.719,0-6.729-3.014-6.729-6.731c0-3.719,3.014-6.732,6.729-6.732
	c3.719,0,6.732,3.014,6.732,6.732C1247.035,345.327,1244.021,348.341,1240.303,348.341z M1240.303,296.341
	c-3.719,0-6.729-3.014-6.729-6.732c0-3.718,3.014-6.732,6.729-6.732c3.719,0,6.732,3.014,6.732,6.732
	C1247.035,293.327,1244.021,296.341,1240.303,296.341z M1240.303,244.341c-3.719,0-6.729-3.014-6.729-6.732
	c0-3.718,3.014-6.732,6.729-6.732c3.719,0,6.732,3.014,6.732,6.732C1247.035,241.327,1244.021,244.341,1240.303,244.341z
	 M1240.303,192.341c-3.719,0-6.729-3.014-6.729-6.732c0-3.718,3.014-6.732,6.729-6.732c3.719,0,6.732,3.014,6.732,6.732
	C1247.035,189.327,1244.021,192.341,1240.303,192.341z M1240.303,140.341c-3.719,0-6.729-3.014-6.729-6.732
	c0-3.718,3.014-6.732,6.729-6.732c3.719,0,6.732,3.014,6.732,6.732C1247.035,137.327,1244.021,140.341,1240.303,140.341z
	 M1296.873,660.341c-3.719,0-6.732-3.014-6.732-6.73c0-3.721,3.018-6.732,6.732-6.732s6.732,3.014,6.732,6.732
	C1303.605,657.328,1300.592,660.341,1296.873,660.341z M1296.873,608.341c-3.719,0-6.732-3.014-6.732-6.73
	c0-3.721,3.018-6.732,6.732-6.732s6.732,3.014,6.732,6.732C1303.605,605.328,1300.592,608.341,1296.873,608.341z M1296.873,556.341
	c-3.719,0-6.732-3.014-6.732-6.73c0-3.721,3.018-6.732,6.732-6.732s6.732,3.014,6.732,6.732
	C1303.605,553.328,1300.592,556.341,1296.873,556.341z M1296.873,504.341c-3.719,0-6.732-3.014-6.732-6.73
	c0-3.721,3.018-6.732,6.732-6.732s6.732,3.014,6.732,6.732C1303.605,501.328,1300.592,504.341,1296.873,504.341z M1296.873,452.341
	c-3.719,0-6.732-3.014-6.732-6.73c0-3.721,3.018-6.732,6.732-6.732s6.732,3.014,6.732,6.732
	C1303.605,449.328,1300.592,452.341,1296.873,452.341z M1296.873,400.341c-3.719,0-6.732-3.014-6.732-6.73
	c0-3.719,3.018-6.732,6.732-6.732s6.732,3.016,6.732,6.732S1300.592,400.341,1296.873,400.341z M1296.873,348.341
	c-3.719,0-6.732-3.014-6.732-6.731c0-3.719,3.018-6.732,6.732-6.732s6.732,3.014,6.732,6.732
	C1303.605,345.327,1300.592,348.341,1296.873,348.341z M1296.873,296.341c-3.719,0-6.732-3.014-6.732-6.732
	c0-3.718,3.018-6.732,6.732-6.732s6.732,3.014,6.732,6.732C1303.605,293.327,1300.592,296.341,1296.873,296.341z M1296.873,244.341
	c-3.719,0-6.732-3.014-6.732-6.732c0-3.718,3.018-6.732,6.732-6.732s6.732,3.014,6.732,6.732
	C1303.605,241.327,1300.592,244.341,1296.873,244.341z M1296.873,192.341c-3.719,0-6.732-3.014-6.732-6.732
	c0-3.718,3.018-6.732,6.732-6.732s6.732,3.014,6.732,6.732C1303.605,189.327,1300.592,192.341,1296.873,192.341z M1353.443,660.341
	c-3.723,0-6.732-3.014-6.732-6.73c0-3.721,3.014-6.732,6.732-6.732c3.718,0,6.729,3.014,6.729,6.732
	C1360.175,657.328,1357.162,660.341,1353.443,660.341z M1353.443,608.341c-3.723,0-6.732-3.014-6.732-6.73
	c0-3.721,3.014-6.732,6.732-6.732c3.718,0,6.729,3.014,6.729,6.732C1360.175,605.328,1357.162,608.341,1353.443,608.341z
	 M1353.443,556.341c-3.723,0-6.732-3.014-6.732-6.73c0-3.721,3.014-6.732,6.732-6.732c3.718,0,6.729,3.014,6.729,6.732
	C1360.175,553.328,1357.162,556.341,1353.443,556.341z M1353.443,504.341c-3.723,0-6.732-3.014-6.732-6.73
	c0-3.721,3.014-6.732,6.732-6.732c3.718,0,6.729,3.014,6.729,6.732C1360.175,501.328,1357.162,504.341,1353.443,504.341z
	 M1353.443,452.341c-3.723,0-6.732-3.014-6.732-6.73c0-3.721,3.014-6.732,6.732-6.732c3.718,0,6.729,3.014,6.729,6.732
	C1360.175,449.328,1357.162,452.341,1353.443,452.341z M1353.443,400.341c-3.723,0-6.732-3.014-6.732-6.73
	c0-3.719,3.014-6.732,6.732-6.732c3.718,0,6.729,3.016,6.729,6.732C1360.175,397.328,1357.162,400.341,1353.443,400.341z
	 M1353.443,348.341c-3.723,0-6.732-3.014-6.732-6.731c0-3.719,3.014-6.732,6.732-6.732c3.718,0,6.729,3.014,6.729,6.732
	C1360.175,345.327,1357.162,348.341,1353.443,348.341z M1353.443,296.341c-3.723,0-6.732-3.014-6.732-6.732
	c0-3.718,3.014-6.732,6.732-6.732c3.718,0,6.729,3.014,6.729,6.732C1360.175,293.327,1357.162,296.341,1353.443,296.341z
	 M1353.443,244.341c-3.723,0-6.732-3.014-6.732-6.732c0-3.718,3.014-6.732,6.732-6.732c3.718,0,6.729,3.014,6.729,6.732
	C1360.175,241.327,1357.162,244.341,1353.443,244.341z M1410.014,660.341c-3.719,0-6.729-3.014-6.729-6.73
	c0-3.721,3.014-6.732,6.729-6.732c3.722,0,6.732,3.014,6.732,6.732C1416.746,657.328,1413.732,660.341,1410.014,660.341z
	 M1410.014,608.341c-3.719,0-6.729-3.014-6.729-6.73c0-3.721,3.014-6.732,6.729-6.732c3.722,0,6.732,3.014,6.732,6.732
	C1416.746,605.328,1413.732,608.341,1410.014,608.341z M1410.014,556.341c-3.719,0-6.729-3.014-6.729-6.73
	c0-3.721,3.014-6.732,6.729-6.732c3.722,0,6.732,3.014,6.732,6.732C1416.746,553.328,1413.732,556.341,1410.014,556.341z
	 M1410.014,504.341c-3.719,0-6.729-3.014-6.729-6.73c0-3.721,3.014-6.732,6.729-6.732c3.722,0,6.732,3.014,6.732,6.732
	C1416.746,501.328,1413.732,504.341,1410.014,504.341z M1410.014,452.341c-3.719,0-6.729-3.014-6.729-6.73
	c0-3.721,3.014-6.732,6.729-6.732c3.722,0,6.732,3.014,6.732,6.732C1416.746,449.328,1413.732,452.341,1410.014,452.341z
	 M1410.014,400.341c-3.719,0-6.729-3.014-6.729-6.73c0-3.719,3.014-6.732,6.729-6.732c3.722,0,6.732,3.016,6.732,6.732
	S1413.732,400.341,1410.014,400.341z M1410.014,348.341c-3.719,0-6.729-3.014-6.729-6.731c0-3.719,3.014-6.732,6.729-6.732
	c3.722,0,6.732,3.014,6.732,6.732C1416.746,345.327,1413.732,348.341,1410.014,348.341z M1410.014,296.341
	c-3.719,0-6.729-3.014-6.729-6.732c0-3.718,3.014-6.732,6.729-6.732c3.722,0,6.732,3.014,6.732,6.732
	C1416.746,293.327,1413.732,296.341,1410.014,296.341z M1466.584,608.341c-3.719,0-6.732-3.014-6.732-6.73
	c0-3.721,3.018-6.732,6.732-6.732s6.732,3.014,6.732,6.732C1473.316,605.328,1470.303,608.341,1466.584,608.341z M1466.584,556.341
	c-3.719,0-6.732-3.014-6.732-6.73c0-3.721,3.018-6.732,6.732-6.732s6.732,3.014,6.732,6.732
	C1473.316,553.328,1470.303,556.341,1466.584,556.341z M1466.584,504.341c-3.719,0-6.732-3.014-6.732-6.73
	c0-3.721,3.018-6.732,6.732-6.732s6.732,3.014,6.732,6.732C1473.316,501.328,1470.303,504.341,1466.584,504.341z M1466.584,452.341
	c-3.719,0-6.732-3.014-6.732-6.73c0-3.721,3.018-6.732,6.732-6.732s6.732,3.014,6.732,6.732
	C1473.316,449.328,1470.303,452.341,1466.584,452.341z M1466.584,400.341c-3.719,0-6.732-3.014-6.732-6.73
	c0-3.719,3.018-6.732,6.732-6.732s6.732,3.016,6.732,6.732S1470.303,400.341,1466.584,400.341z M1466.584,348.341
	c-3.719,0-6.732-3.014-6.732-6.731c0-3.719,3.018-6.732,6.732-6.732s6.732,3.014,6.732,6.732
	C1473.316,345.327,1470.303,348.341,1466.584,348.341z M1523.154,608.341c-3.719,0-6.732-3.014-6.732-6.73
	c0-3.721,3.014-6.732,6.732-6.732c3.718,0,6.729,3.014,6.729,6.732C1529.886,605.328,1526.873,608.341,1523.154,608.341z
	 M1523.154,556.341c-3.719,0-6.732-3.014-6.732-6.73c0-3.721,3.014-6.732,6.732-6.732c3.718,0,6.729,3.014,6.729,6.732
	C1529.886,553.328,1526.873,556.341,1523.154,556.341z M1523.154,504.341c-3.719,0-6.732-3.014-6.732-6.73
	c0-3.721,3.014-6.732,6.732-6.732c3.718,0,6.729,3.014,6.729,6.732C1529.886,501.328,1526.873,504.341,1523.154,504.341z
	 M1523.154,452.341c-3.719,0-6.732-3.014-6.732-6.73c0-3.721,3.014-6.732,6.732-6.732c3.718,0,6.729,3.014,6.729,6.732
	C1529.886,449.328,1526.873,452.341,1523.154,452.341z M1523.154,400.341c-3.719,0-6.732-3.014-6.732-6.73
	c0-3.719,3.014-6.732,6.732-6.732c3.718,0,6.729,3.016,6.729,6.732C1529.886,397.328,1526.873,400.341,1523.154,400.341z
	 M1579.725,608.341c-3.719,0-6.729-3.014-6.729-6.73c0-3.721,3.014-6.732,6.729-6.732c3.722,0,6.732,3.014,6.732,6.732
	C1586.457,605.328,1583.443,608.341,1579.725,608.341z M1579.725,556.341c-3.719,0-6.729-3.014-6.729-6.73
	c0-3.721,3.014-6.732,6.729-6.732c3.722,0,6.732,3.014,6.732,6.732C1586.457,553.328,1583.443,556.341,1579.725,556.341z
	 M1579.725,504.341c-3.719,0-6.729-3.014-6.729-6.73c0-3.721,3.014-6.732,6.729-6.732c3.722,0,6.732,3.014,6.732,6.732
	C1586.457,501.328,1583.443,504.341,1579.725,504.341z M1579.725,452.341c-3.719,0-6.729-3.014-6.729-6.73
	c0-3.721,3.014-6.732,6.729-6.732c3.722,0,6.732,3.014,6.732,6.732C1586.457,449.328,1583.443,452.341,1579.725,452.341z
	 M1636.295,608.341c-3.719,0-6.732-3.014-6.732-6.73c0-3.721,3.018-6.732,6.732-6.732s6.732,3.014,6.732,6.732
	C1643.027,605.328,1640.014,608.341,1636.295,608.341z M1636.295,556.341c-3.719,0-6.732-3.014-6.732-6.73
	c0-3.721,3.018-6.732,6.732-6.732s6.732,3.014,6.732,6.732C1643.027,553.328,1640.014,556.341,1636.295,556.341z M1636.295,504.341
	c-3.719,0-6.732-3.014-6.732-6.73c0-3.721,3.018-6.732,6.732-6.732s6.732,3.014,6.732,6.732
	C1643.027,501.328,1640.014,504.341,1636.295,504.341z M1692.865,556.341c-3.719,0-6.732-3.014-6.732-6.73
	c0-3.721,3.014-6.732,6.732-6.732c3.718,0,6.729,3.014,6.729,6.732C1699.597,553.328,1696.584,556.341,1692.865,556.341z"/>
</svg>
