<?xml version="1.0" encoding="utf-8"?>
<!-- Generator: Adobe Illustrator 16.0.0, SVG Export Plug-In . SVG Version: 6.00 Build 0)  -->
<!DOCTYPE svg PUBLIC "-//W3C//DTD SVG 1.1//EN" "http://www.w3.org/Graphics/SVG/1.1/DTD/svg11.dtd">
<svg version="1.1" id="Layer_1" xmlns="http://www.w3.org/2000/svg" xmlns:xlink="http://www.w3.org/1999/xlink" x="0px" y="0px"
	 width="1773.566px" height="714.097px" viewBox="0 0 1773.566 714.097" enable-background="new 0 0 1773.566 714.097"
	 xml:space="preserve">
<path fill="none" stroke="#000000" stroke-miterlimit="10" d="M108.897,282.877c3.718,0,6.731,3.014,6.731,6.732
	c0,3.718-3.014,6.732-6.731,6.732s-6.732-3.014-6.732-6.732C102.165,285.891,105.179,282.877,108.897,282.877z M165.467,334.878
	c3.718,0,6.731,3.014,6.731,6.731c0,3.718-3.014,6.731-6.731,6.731c-3.717,0-6.73-3.013-6.73-6.731
	C158.736,337.892,161.75,334.878,165.467,334.878z M165.467,282.877c3.719,0,6.732,3.014,6.732,6.732
	c0,3.718-3.014,6.732-6.732,6.732c-3.718,0-6.731-3.014-6.731-6.732C158.735,285.891,161.749,282.877,165.467,282.877z
	 M222.038,334.878c3.718,0,6.731,3.014,6.731,6.731c0,3.718-3.014,6.731-6.731,6.731c-3.717,0-6.73-3.013-6.73-6.731
	C215.307,337.892,218.321,334.878,222.038,334.878z M222.038,282.877c3.718,0,6.732,3.014,6.732,6.732
	c0,3.718-3.015,6.732-6.732,6.732s-6.731-3.014-6.731-6.732C215.306,285.891,218.32,282.877,222.038,282.877z M222.038,230.877
	c3.718,0,6.732,3.014,6.732,6.732c0,3.718-3.015,6.732-6.732,6.732s-6.731-3.014-6.731-6.732
	C215.306,233.891,218.32,230.877,222.038,230.877z M278.608,334.878c3.718,0,6.73,3.014,6.73,6.731c0,3.718-3.013,6.731-6.73,6.731
	s-6.731-3.013-6.731-6.731C271.877,337.892,274.89,334.878,278.608,334.878z M278.608,282.877c3.718,0,6.731,3.014,6.731,6.732
	c0,3.718-3.014,6.732-6.731,6.732s-6.732-3.014-6.732-6.732C271.876,285.891,274.89,282.877,278.608,282.877z M278.608,230.877
	c3.718,0,6.731,3.014,6.731,6.732c0,3.718-3.014,6.732-6.731,6.732s-6.732-3.014-6.732-6.732
	C271.876,233.891,274.89,230.877,278.608,230.877z M335.178,400.341c-3.719,0-6.729-3.014-6.729-6.73
	c0-3.719,3.015-6.732,6.729-6.732c3.721,0,6.731,3.017,6.731,6.732C341.91,397.328,338.897,400.341,335.178,400.341z
	 M335.178,348.341c-3.719,0-6.729-3.014-6.729-6.731c0-3.719,3.015-6.732,6.729-6.732c3.721,0,6.731,3.014,6.731,6.732
	C341.91,345.327,338.897,348.341,335.178,348.341z M335.178,296.341c-3.719,0-6.729-3.014-6.729-6.732
	c0-3.718,3.015-6.732,6.729-6.732c3.721,0,6.731,3.014,6.731,6.732C341.91,293.327,338.897,296.341,335.178,296.341z
	 M335.178,244.341c-3.719,0-6.729-3.014-6.729-6.732c0-3.718,3.015-6.732,6.729-6.732c3.721,0,6.731,3.014,6.731,6.732
	C341.91,241.327,338.897,244.341,335.178,244.341z M335.178,192.341c-3.719,0-6.729-3.014-6.729-6.732
	c0-3.718,3.015-6.732,6.729-6.732c3.721,0,6.731,3.014,6.731,6.732C341.91,189.327,338.897,192.341,335.178,192.341z
	 M391.749,452.341c-3.719,0-6.731-3.014-6.731-6.73c0-3.721,3.017-6.732,6.731-6.732c3.716,0,6.732,3.014,6.732,6.732
	C398.481,449.328,395.468,452.341,391.749,452.341z M391.749,386.878c3.718,0,6.731,3.014,6.731,6.731s-3.014,6.731-6.731,6.731
	c-3.717,0-6.73-3.014-6.73-6.731S388.032,386.878,391.749,386.878z M391.749,334.878c3.718,0,6.731,3.014,6.731,6.731
	c0,3.718-3.014,6.731-6.731,6.731c-3.717,0-6.73-3.013-6.73-6.731C385.018,337.892,388.032,334.878,391.749,334.878z
	 M391.749,282.877c3.719,0,6.732,3.014,6.732,6.732c0,3.718-3.014,6.732-6.732,6.732c-3.718,0-6.731-3.014-6.731-6.732
	C385.017,285.891,388.031,282.877,391.749,282.877z M391.749,230.877c3.719,0,6.732,3.014,6.732,6.732
	c0,3.718-3.014,6.732-6.732,6.732c-3.718,0-6.731-3.014-6.731-6.732C385.017,233.891,388.031,230.877,391.749,230.877z
	 M391.749,178.877c3.719,0,6.732,3.014,6.732,6.732c0,3.718-3.014,6.732-6.732,6.732c-3.718,0-6.731-3.014-6.731-6.732
	C385.017,181.891,388.031,178.877,391.749,178.877z M448.319,556.341c-3.723,0-6.731-3.014-6.731-6.73
	c0-3.721,3.014-6.732,6.731-6.732s6.729,3.014,6.729,6.732C455.052,553.328,452.038,556.341,448.319,556.341z M448.319,504.341
	c-3.723,0-6.731-3.014-6.731-6.73c0-3.721,3.014-6.732,6.731-6.732s6.729,3.014,6.729,6.732
	C455.052,501.328,452.038,504.341,448.319,504.341z M448.319,452.341c-3.723,0-6.731-3.014-6.731-6.73
	c0-3.721,3.014-6.732,6.731-6.732s6.729,3.014,6.729,6.732C455.052,449.328,452.038,452.341,448.319,452.341z M448.319,400.341
	c-3.723,0-6.731-3.014-6.731-6.73c0-3.719,3.014-6.732,6.731-6.732s6.729,3.017,6.729,6.732
	C455.052,397.328,452.038,400.341,448.319,400.341z M448.319,348.341c-3.723,0-6.731-3.014-6.731-6.731
	c0-3.719,3.014-6.732,6.731-6.732s6.729,3.014,6.729,6.732C455.052,345.327,452.038,348.341,448.319,348.341z M448.319,296.341
	c-3.723,0-6.731-3.014-6.731-6.732c0-3.718,3.014-6.732,6.731-6.732s6.729,3.014,6.729,6.732
	C455.052,293.327,452.038,296.341,448.319,296.341z M448.319,244.341c-3.723,0-6.731-3.014-6.731-6.732
	c0-3.718,3.014-6.732,6.731-6.732s6.729,3.014,6.729,6.732C455.052,241.327,452.038,244.341,448.319,244.341z M448.319,192.341
	c-3.723,0-6.731-3.014-6.731-6.732c0-3.718,3.014-6.732,6.731-6.732s6.729,3.014,6.729,6.732
	C455.052,189.327,452.038,192.341,448.319,192.341z M448.319,140.341c-3.723,0-6.731-3.014-6.731-6.732
	c0-3.718,3.014-6.732,6.731-6.732s6.729,3.014,6.729,6.732C455.052,137.327,452.038,140.341,448.319,140.341z M504.889,608.341
	c-3.719,0-6.729-3.014-6.729-6.73c0-3.721,3.015-6.732,6.729-6.732c3.722,0,6.731,3.014,6.731,6.732
	C511.621,605.328,508.608,608.341,504.889,608.341z M504.889,556.341c-3.719,0-6.729-3.014-6.729-6.73
	c0-3.721,3.015-6.732,6.729-6.732c3.722,0,6.731,3.014,6.731,6.732C511.621,553.328,508.608,556.341,504.889,556.341z
	 M504.889,504.341c-3.719,0-6.729-3.014-6.729-6.73c0-3.721,3.015-6.732,6.729-6.732c3.722,0,6.731,3.014,6.731,6.732
	C511.621,501.328,508.608,504.341,504.889,504.341z M504.889,452.341c-3.719,0-6.729-3.014-6.729-6.73
	c0-3.721,3.015-6.732,6.729-6.732c3.722,0,6.731,3.014,6.731,6.732C511.621,449.328,508.608,452.341,504.889,452.341z
	 M504.889,400.341c-3.719,0-6.729-3.014-6.729-6.73c0-3.719,3.015-6.732,6.729-6.732c3.722,0,6.731,3.017,6.731,6.732
	C511.621,397.328,508.608,400.341,504.889,400.341z M504.889,348.341c-3.719,0-6.729-3.014-6.729-6.731
	c0-3.719,3.015-6.732,6.729-6.732c3.722,0,6.731,3.014,6.731,6.732C511.621,345.327,508.608,348.341,504.889,348.341z
	 M504.889,296.341c-3.719,0-6.729-3.014-6.729-6.732c0-3.718,3.015-6.732,6.729-6.732c3.722,0,6.731,3.014,6.731,6.732
	C511.621,293.327,508.608,296.341,504.889,296.341z M504.889,244.341c-3.719,0-6.729-3.014-6.729-6.732
	c0-3.718,3.015-6.732,6.729-6.732c3.722,0,6.731,3.014,6.731,6.732C511.621,241.327,508.608,244.341,504.889,244.341z
	 M504.889,192.341c-3.719,0-6.729-3.014-6.729-6.732c0-3.718,3.015-6.732,6.729-6.732c3.722,0,6.731,3.014,6.731,6.732
	C511.621,189.327,508.608,192.341,504.889,192.341z M504.889,140.341c-3.719,0-6.729-3.014-6.729-6.732
	c0-3.718,3.015-6.732,6.729-6.732c3.722,0,6.731,3.014,6.731,6.732C511.621,137.327,508.608,140.341,504.889,140.341z
	 M561.46,608.341c-3.72,0-6.732-3.014-6.732-6.73c0-3.721,3.018-6.732,6.732-6.732c3.714,0,6.731,3.014,6.731,6.732
	C568.191,605.328,565.178,608.341,561.46,608.341z M561.46,556.341c-3.72,0-6.732-3.014-6.732-6.73c0-3.721,3.018-6.732,6.732-6.732
	c3.714,0,6.731,3.014,6.731,6.732C568.191,553.328,565.178,556.341,561.46,556.341z M561.46,504.341c-3.72,0-6.732-3.014-6.732-6.73
	c0-3.721,3.018-6.732,6.732-6.732c3.714,0,6.731,3.014,6.731,6.732C568.191,501.328,565.178,504.341,561.46,504.341z
	 M561.46,452.341c-3.72,0-6.732-3.014-6.732-6.73c0-3.721,3.018-6.732,6.732-6.732c3.714,0,6.731,3.014,6.731,6.732
	C568.191,449.328,565.178,452.341,561.46,452.341z M561.46,400.341c-3.72,0-6.732-3.014-6.732-6.73c0-3.719,3.018-6.732,6.732-6.732
	c3.714,0,6.731,3.017,6.731,6.732C568.191,397.328,565.178,400.341,561.46,400.341z M561.46,348.341
	c-3.72,0-6.732-3.014-6.732-6.731c0-3.719,3.018-6.732,6.732-6.732c3.714,0,6.731,3.014,6.731,6.732
	C568.191,345.327,565.178,348.341,561.46,348.341z M561.46,296.341c-3.72,0-6.732-3.014-6.732-6.732
	c0-3.718,3.018-6.732,6.732-6.732c3.714,0,6.731,3.014,6.731,6.732C568.191,293.327,565.178,296.341,561.46,296.341z
	 M561.46,244.341c-3.72,0-6.732-3.014-6.732-6.732c0-3.718,3.018-6.732,6.732-6.732c3.714,0,6.731,3.014,6.731,6.732
	C568.191,241.327,565.178,244.341,561.46,244.341z M561.46,192.341c-3.72,0-6.732-3.014-6.732-6.732
	c0-3.718,3.018-6.732,6.732-6.732c3.714,0,6.731,3.014,6.731,6.732C568.191,189.327,565.178,192.341,561.46,192.341z
	 M561.46,140.341c-3.72,0-6.732-3.014-6.732-6.732c0-3.718,3.018-6.732,6.732-6.732c3.714,0,6.731,3.014,6.731,6.732
	C568.191,137.327,565.178,140.341,561.46,140.341z M618.03,556.341c-3.72,0-6.731-3.014-6.731-6.73c0-3.721,3.018-6.732,6.731-6.732
	s6.729,3.014,6.729,6.732C624.762,553.328,621.749,556.341,618.03,556.341z M618.03,504.341c-3.72,0-6.731-3.014-6.731-6.73
	c0-3.721,3.018-6.732,6.731-6.732s6.729,3.014,6.729,6.732C624.762,501.328,621.749,504.341,618.03,504.341z M618.03,452.341
	c-3.72,0-6.731-3.014-6.731-6.73c0-3.721,3.018-6.732,6.731-6.732s6.729,3.014,6.729,6.732
	C624.762,449.328,621.749,452.341,618.03,452.341z M618.03,400.341c-3.72,0-6.731-3.014-6.731-6.73c0-3.719,3.018-6.732,6.731-6.732
	s6.729,3.017,6.729,6.732C624.762,397.328,621.749,400.341,618.03,400.341z M618.03,348.341c-3.72,0-6.731-3.014-6.731-6.731
	c0-3.719,3.018-6.732,6.731-6.732s6.729,3.014,6.729,6.732C624.762,345.327,621.749,348.341,618.03,348.341z M618.03,296.341
	c-3.72,0-6.731-3.014-6.731-6.732c0-3.718,3.018-6.732,6.731-6.732s6.729,3.014,6.729,6.732
	C624.762,293.327,621.749,296.341,618.03,296.341z M618.03,244.341c-3.72,0-6.731-3.014-6.731-6.732
	c0-3.718,3.018-6.732,6.731-6.732s6.729,3.014,6.729,6.732C624.762,241.327,621.749,244.341,618.03,244.341z M618.03,192.341
	c-3.72,0-6.731-3.014-6.731-6.732c0-3.718,3.018-6.732,6.731-6.732s6.729,3.014,6.729,6.732
	C624.762,189.327,621.749,192.341,618.03,192.341z M618.03,140.341c-3.72,0-6.731-3.014-6.731-6.732
	c0-3.718,3.018-6.732,6.731-6.732s6.729,3.014,6.729,6.732C624.762,137.327,621.749,140.341,618.03,140.341z M618.03,88.341
	c-3.72,0-6.731-3.014-6.731-6.732c0-3.718,3.018-6.732,6.731-6.732s6.729,3.014,6.729,6.732
	C624.762,85.327,621.749,88.341,618.03,88.341z M674.6,504.341c-3.719,0-6.729-3.014-6.729-6.73c0-3.721,3.015-6.732,6.729-6.732
	c3.722,0,6.731,3.014,6.731,6.732C681.332,501.328,678.319,504.341,674.6,504.341z M674.6,452.341c-3.719,0-6.729-3.014-6.729-6.73
	c0-3.721,3.015-6.732,6.729-6.732c3.722,0,6.731,3.014,6.731,6.732C681.332,449.328,678.319,452.341,674.6,452.341z M674.6,400.341
	c-3.719,0-6.729-3.014-6.729-6.73c0-3.719,3.015-6.732,6.729-6.732c3.722,0,6.731,3.017,6.731,6.732
	C681.332,397.328,678.319,400.341,674.6,400.341z M674.6,348.341c-3.719,0-6.729-3.014-6.729-6.731c0-3.719,3.015-6.732,6.729-6.732
	c3.722,0,6.731,3.014,6.731,6.732C681.332,345.327,678.319,348.341,674.6,348.341z M674.6,296.341c-3.719,0-6.729-3.014-6.729-6.732
	c0-3.718,3.015-6.732,6.729-6.732c3.722,0,6.731,3.014,6.731,6.732C681.332,293.327,678.319,296.341,674.6,296.341z M674.6,244.341
	c-3.719,0-6.729-3.014-6.729-6.732c0-3.718,3.015-6.732,6.729-6.732c3.722,0,6.731,3.014,6.731,6.732
	C681.332,241.327,678.319,244.341,674.6,244.341z M674.6,192.341c-3.719,0-6.729-3.014-6.729-6.732c0-3.718,3.015-6.732,6.729-6.732
	c3.722,0,6.731,3.014,6.731,6.732C681.332,189.327,678.319,192.341,674.6,192.341z M674.6,140.341c-3.719,0-6.729-3.014-6.729-6.732
	c0-3.718,3.015-6.732,6.729-6.732c3.722,0,6.731,3.014,6.731,6.732C681.332,137.327,678.319,140.341,674.6,140.341z M674.6,88.341
	c-3.719,0-6.729-3.014-6.729-6.732c0-3.718,3.015-6.732,6.729-6.732c3.722,0,6.731,3.014,6.731,6.732
	C681.332,85.327,678.319,88.341,674.6,88.341z M731.171,504.341c-3.72,0-6.732-3.014-6.732-6.73c0-3.721,3.018-6.732,6.732-6.732
	c3.714,0,6.731,3.014,6.731,6.732C737.902,501.328,734.889,504.341,731.171,504.341z M731.171,452.341
	c-3.72,0-6.732-3.014-6.732-6.73c0-3.721,3.018-6.732,6.732-6.732c3.714,0,6.731,3.014,6.731,6.732
	C737.902,449.328,734.889,452.341,731.171,452.341z M731.171,400.341c-3.72,0-6.732-3.014-6.732-6.73
	c0-3.719,3.018-6.732,6.732-6.732c3.714,0,6.731,3.017,6.731,6.732C737.902,397.328,734.889,400.341,731.171,400.341z
	 M731.171,348.341c-3.72,0-6.732-3.014-6.732-6.731c0-3.719,3.018-6.732,6.732-6.732c3.714,0,6.731,3.014,6.731,6.732
	C737.902,345.327,734.889,348.341,731.171,348.341z M731.171,296.341c-3.72,0-6.732-3.014-6.732-6.732
	c0-3.718,3.018-6.732,6.732-6.732c3.714,0,6.731,3.014,6.731,6.732C737.902,293.327,734.889,296.341,731.171,296.341z
	 M731.171,244.341c-3.72,0-6.732-3.014-6.732-6.732c0-3.718,3.018-6.732,6.732-6.732c3.714,0,6.731,3.014,6.731,6.732
	C737.902,241.327,734.889,244.341,731.171,244.341z M731.171,192.341c-3.72,0-6.732-3.014-6.732-6.732
	c0-3.718,3.018-6.732,6.732-6.732c3.714,0,6.731,3.014,6.731,6.732C737.902,189.327,734.889,192.341,731.171,192.341z
	 M731.171,140.341c-3.72,0-6.732-3.014-6.732-6.732c0-3.718,3.018-6.732,6.732-6.732c3.714,0,6.731,3.014,6.731,6.732
	C737.902,137.327,734.889,140.341,731.171,140.341z M731.171,88.341c-3.72,0-6.732-3.014-6.732-6.732
	c0-3.718,3.018-6.732,6.732-6.732c3.714,0,6.731,3.014,6.731,6.732C737.902,85.327,734.889,88.341,731.171,88.341z M731.171,36.341
	c-3.72,0-6.732-3.014-6.732-6.732c0-3.718,3.018-6.732,6.732-6.732c3.714,0,6.731,3.014,6.731,6.732
	C737.902,33.327,734.889,36.341,731.171,36.341z M787.741,452.341c-3.719,0-6.731-3.014-6.731-6.73c0-3.721,3.018-6.732,6.731-6.732
	s6.729,3.014,6.729,6.732C794.473,449.328,791.46,452.341,787.741,452.341z M787.741,400.341c-3.719,0-6.731-3.014-6.731-6.73
	c0-3.719,3.018-6.732,6.731-6.732s6.729,3.017,6.729,6.732C794.473,397.328,791.46,400.341,787.741,400.341z M787.741,348.341
	c-3.719,0-6.731-3.014-6.731-6.731c0-3.719,3.018-6.732,6.731-6.732s6.729,3.014,6.729,6.732
	C794.473,345.327,791.46,348.341,787.741,348.341z M787.741,296.341c-3.719,0-6.731-3.014-6.731-6.732
	c0-3.718,3.018-6.732,6.731-6.732s6.729,3.014,6.729,6.732C794.473,293.327,791.46,296.341,787.741,296.341z M787.741,244.341
	c-3.719,0-6.731-3.014-6.731-6.732c0-3.718,3.018-6.732,6.731-6.732s6.729,3.014,6.729,6.732
	C794.473,241.327,791.46,244.341,787.741,244.341z M787.741,192.341c-3.719,0-6.731-3.014-6.731-6.732
	c0-3.718,3.018-6.732,6.731-6.732s6.729,3.014,6.729,6.732C794.473,189.327,791.46,192.341,787.741,192.341z M787.741,140.341
	c-3.719,0-6.731-3.014-6.731-6.732c0-3.718,3.018-6.732,6.731-6.732s6.729,3.014,6.729,6.732
	C794.473,137.327,791.46,140.341,787.741,140.341z M787.741,88.341c-3.719,0-6.731-3.014-6.731-6.732
	c0-3.718,3.018-6.732,6.731-6.732s6.729,3.014,6.729,6.732C794.473,85.327,791.46,88.341,787.741,88.341z M787.741,36.341
	c-3.719,0-6.731-3.014-6.731-6.732c0-3.718,3.018-6.732,6.731-6.732s6.729,3.014,6.729,6.732
	C794.473,33.327,791.46,36.341,787.741,36.341z M844.311,452.341c-3.719,0-6.729-3.014-6.729-6.73c0-3.721,3.015-6.732,6.729-6.732
	c3.722,0,6.732,3.014,6.732,6.732C851.044,449.328,848.03,452.341,844.311,452.341z M844.311,400.341
	c-3.719,0-6.729-3.014-6.729-6.73c0-3.719,3.015-6.732,6.729-6.732c3.722,0,6.732,3.017,6.732,6.732
	C851.044,397.328,848.03,400.341,844.311,400.341z M844.311,348.341c-3.719,0-6.729-3.014-6.729-6.731
	c0-3.719,3.015-6.732,6.729-6.732c3.722,0,6.732,3.014,6.732,6.732C851.044,345.327,848.03,348.341,844.311,348.341z
	 M844.311,296.341c-3.719,0-6.729-3.014-6.729-6.732c0-3.718,3.015-6.732,6.729-6.732c3.722,0,6.732,3.014,6.732,6.732
	C851.044,293.327,848.03,296.341,844.311,296.341z M844.311,244.341c-3.719,0-6.729-3.014-6.729-6.732
	c0-3.718,3.015-6.732,6.729-6.732c3.722,0,6.732,3.014,6.732,6.732C851.044,241.327,848.03,244.341,844.311,244.341z
	 M844.311,192.341c-3.719,0-6.729-3.014-6.729-6.732c0-3.718,3.015-6.732,6.729-6.732c3.722,0,6.732,3.014,6.732,6.732
	C851.044,189.327,848.03,192.341,844.311,192.341z M844.311,140.341c-3.719,0-6.729-3.014-6.729-6.732
	c0-3.718,3.015-6.732,6.729-6.732c3.722,0,6.732,3.014,6.732,6.732C851.044,137.327,848.03,140.341,844.311,140.341z
	 M844.311,88.341c-3.719,0-6.729-3.014-6.729-6.732c0-3.718,3.015-6.732,6.729-6.732c3.722,0,6.732,3.014,6.732,6.732
	C851.044,85.327,848.03,88.341,844.311,88.341z M844.311,36.341c-3.719,0-6.729-3.014-6.729-6.732c0-3.718,3.015-6.732,6.729-6.732
	c3.722,0,6.732,3.014,6.732,6.732C851.044,33.327,848.03,36.341,844.311,36.341z M900.882,386.878c3.717,0,6.73,3.014,6.73,6.731
	s-3.014,6.731-6.73,6.731c-3.718,0-6.731-3.014-6.731-6.731S897.164,386.878,900.882,386.878z M900.882,334.878
	c3.717,0,6.73,3.014,6.73,6.731c0,3.718-3.014,6.731-6.73,6.731c-3.718,0-6.731-3.013-6.731-6.731
	C894.15,337.892,897.164,334.878,900.882,334.878z M900.882,282.877c3.718,0,6.731,3.014,6.731,6.732
	c0,3.718-3.014,6.732-6.731,6.732c-3.719,0-6.732-3.014-6.732-6.732C894.149,285.891,897.163,282.877,900.882,282.877z
	 M900.882,230.877c3.718,0,6.731,3.014,6.731,6.732c0,3.718-3.014,6.732-6.731,6.732c-3.719,0-6.732-3.014-6.732-6.732
	C894.149,233.891,897.163,230.877,900.882,230.877z M900.882,178.877c3.718,0,6.731,3.014,6.731,6.732
	c0,3.718-3.014,6.732-6.731,6.732c-3.719,0-6.732-3.014-6.732-6.732C894.149,181.891,897.163,178.877,900.882,178.877z
	 M900.882,126.877c3.718,0,6.731,3.014,6.731,6.732c0,3.718-3.014,6.732-6.731,6.732c-3.719,0-6.732-3.014-6.732-6.732
	C894.149,129.891,897.163,126.877,900.882,126.877z M900.882,74.877c3.718,0,6.731,3.014,6.731,6.732
	c0,3.718-3.014,6.732-6.731,6.732c-3.719,0-6.732-3.014-6.732-6.732C894.149,77.891,897.163,74.877,900.882,74.877z M900.882,22.877
	c3.718,0,6.731,3.014,6.731,6.732c0,3.718-3.014,6.732-6.731,6.732c-3.719,0-6.732-3.014-6.732-6.732
	C894.149,25.891,897.163,22.877,900.882,22.877z M957.451,400.341c-3.719,0-6.731-3.014-6.731-6.73c0-3.719,3.018-6.732,6.731-6.732
	s6.729,3.017,6.729,6.732C964.183,397.328,961.171,400.341,957.451,400.341z M957.451,348.341c-3.719,0-6.731-3.014-6.731-6.731
	c0-3.719,3.018-6.732,6.731-6.732s6.729,3.014,6.729,6.732C964.183,345.327,961.171,348.341,957.451,348.341z M957.451,296.341
	c-3.719,0-6.731-3.014-6.731-6.732c0-3.718,3.018-6.732,6.731-6.732s6.729,3.014,6.729,6.732
	C964.183,293.327,961.171,296.341,957.451,296.341z M957.451,244.341c-3.719,0-6.731-3.014-6.731-6.732
	c0-3.718,3.018-6.732,6.731-6.732s6.729,3.014,6.729,6.732C964.183,241.327,961.171,244.341,957.451,244.341z M957.451,192.341
	c-3.719,0-6.731-3.014-6.731-6.732c0-3.718,3.018-6.732,6.731-6.732s6.729,3.014,6.729,6.732
	C964.183,189.327,961.171,192.341,957.451,192.341z M957.451,140.341c-3.719,0-6.731-3.014-6.731-6.732
	c0-3.718,3.018-6.732,6.731-6.732s6.729,3.014,6.729,6.732C964.183,137.327,961.171,140.341,957.451,140.341z M957.451,88.341
	c-3.719,0-6.731-3.014-6.731-6.732c0-3.718,3.018-6.732,6.731-6.732s6.729,3.014,6.729,6.732
	C964.183,85.327,961.171,88.341,957.451,88.341z M1014.021,400.341c-3.723,0-6.732-3.014-6.732-6.73
	c0-3.719,3.015-6.732,6.732-6.732s6.729,3.017,6.729,6.732C1020.754,397.328,1017.74,400.341,1014.021,400.341z M1014.021,348.341
	c-3.723,0-6.732-3.014-6.732-6.731c0-3.719,3.015-6.732,6.732-6.732s6.729,3.014,6.729,6.732
	C1020.754,345.327,1017.74,348.341,1014.021,348.341z M1014.021,296.341c-3.723,0-6.732-3.014-6.732-6.732
	c0-3.718,3.015-6.732,6.732-6.732s6.729,3.014,6.729,6.732C1020.754,293.327,1017.74,296.341,1014.021,296.341z M1014.021,244.341
	c-3.723,0-6.732-3.014-6.732-6.732c0-3.718,3.015-6.732,6.732-6.732s6.729,3.014,6.729,6.732
	C1020.754,241.327,1017.74,244.341,1014.021,244.341z M1014.021,192.341c-3.723,0-6.732-3.014-6.732-6.732
	c0-3.718,3.015-6.732,6.732-6.732s6.729,3.014,6.729,6.732C1020.754,189.327,1017.74,192.341,1014.021,192.341z M1014.021,140.341
	c-3.723,0-6.732-3.014-6.732-6.732c0-3.718,3.015-6.732,6.732-6.732s6.729,3.014,6.729,6.732
	C1020.754,137.327,1017.74,140.341,1014.021,140.341z M1014.021,88.341c-3.723,0-6.732-3.014-6.732-6.732
	c0-3.718,3.015-6.732,6.732-6.732s6.729,3.014,6.729,6.732C1020.754,85.327,1017.74,88.341,1014.021,88.341z M1070.593,452.341
	c-3.719,0-6.729-3.014-6.729-6.73c0-3.721,3.015-6.732,6.729-6.732c3.719,0,6.731,3.014,6.731,6.732
	C1077.324,449.328,1074.311,452.341,1070.593,452.341z M1070.593,386.878c3.717,0,6.73,3.014,6.73,6.731s-3.014,6.731-6.73,6.731
	c-3.718,0-6.731-3.014-6.731-6.731S1066.875,386.878,1070.593,386.878z M1070.593,334.878c3.717,0,6.73,3.014,6.73,6.731
	c0,3.718-3.014,6.731-6.73,6.731c-3.718,0-6.731-3.013-6.731-6.731C1063.861,337.892,1066.875,334.878,1070.593,334.878z
	 M1070.593,282.877c3.718,0,6.731,3.014,6.731,6.732c0,3.718-3.014,6.732-6.731,6.732c-3.719,0-6.732-3.014-6.732-6.732
	C1063.86,285.891,1066.874,282.877,1070.593,282.877z M1070.593,230.877c3.718,0,6.731,3.014,6.731,6.732
	c0,3.718-3.014,6.732-6.731,6.732c-3.719,0-6.732-3.014-6.732-6.732C1063.86,233.891,1066.874,230.877,1070.593,230.877z
	 M1070.593,178.877c3.718,0,6.731,3.014,6.731,6.732c0,3.718-3.014,6.732-6.731,6.732c-3.719,0-6.732-3.014-6.732-6.732
	C1063.86,181.891,1066.874,178.877,1070.593,178.877z M1070.593,126.877c3.718,0,6.731,3.014,6.731,6.732
	c0,3.718-3.014,6.732-6.731,6.732c-3.719,0-6.732-3.014-6.732-6.732C1063.86,129.891,1066.874,126.877,1070.593,126.877z
	 M1127.162,504.341c-3.719,0-6.731-3.014-6.731-6.73c0-3.721,3.018-6.732,6.731-6.732c3.715,0,6.732,3.014,6.732,6.732
	C1133.895,501.328,1130.882,504.341,1127.162,504.341z M1127.162,452.341c-3.719,0-6.731-3.014-6.731-6.73
	c0-3.721,3.018-6.732,6.731-6.732c3.715,0,6.732,3.014,6.732,6.732C1133.895,449.328,1130.882,452.341,1127.162,452.341z
	 M1127.162,400.341c-3.719,0-6.731-3.014-6.731-6.73c0-3.719,3.018-6.732,6.731-6.732c3.715,0,6.732,3.017,6.732,6.732
	C1133.894,397.328,1130.882,400.341,1127.162,400.341z M1127.162,348.341c-3.719,0-6.731-3.014-6.731-6.731
	c0-3.719,3.018-6.732,6.731-6.732c3.715,0,6.732,3.014,6.732,6.732C1133.895,345.327,1130.882,348.341,1127.162,348.341z
	 M1127.162,296.341c-3.719,0-6.731-3.014-6.731-6.732c0-3.718,3.018-6.732,6.731-6.732c3.715,0,6.732,3.014,6.732,6.732
	C1133.895,293.327,1130.882,296.341,1127.162,296.341z M1127.162,244.341c-3.719,0-6.731-3.014-6.731-6.732
	c0-3.718,3.018-6.732,6.731-6.732c3.715,0,6.732,3.014,6.732,6.732C1133.895,241.327,1130.882,244.341,1127.162,244.341z
	 M1127.162,192.341c-3.719,0-6.731-3.014-6.731-6.732c0-3.718,3.018-6.732,6.731-6.732c3.715,0,6.732,3.014,6.732,6.732
	C1133.895,189.327,1130.882,192.341,1127.162,192.341z M1127.162,140.341c-3.719,0-6.731-3.014-6.731-6.732
	c0-3.718,3.018-6.732,6.731-6.732c3.715,0,6.732,3.014,6.732,6.732C1133.895,137.327,1130.882,140.341,1127.162,140.341z
	 M1183.732,556.341c-3.723,0-6.731-3.014-6.731-6.73c0-3.721,3.014-6.732,6.731-6.732s6.729,3.014,6.729,6.732
	C1190.465,553.328,1187.451,556.341,1183.732,556.341z M1183.732,504.341c-3.723,0-6.731-3.014-6.731-6.73
	c0-3.721,3.014-6.732,6.731-6.732s6.729,3.014,6.729,6.732C1190.465,501.328,1187.451,504.341,1183.732,504.341z M1183.732,452.341
	c-3.723,0-6.731-3.014-6.731-6.73c0-3.721,3.014-6.732,6.731-6.732s6.729,3.014,6.729,6.732
	C1190.465,449.328,1187.451,452.341,1183.732,452.341z M1183.732,400.341c-3.723,0-6.731-3.014-6.731-6.73
	c0-3.719,3.014-6.732,6.731-6.732s6.729,3.017,6.729,6.732C1190.465,397.328,1187.451,400.341,1183.732,400.341z M1183.732,348.341
	c-3.723,0-6.731-3.014-6.731-6.731c0-3.719,3.014-6.732,6.731-6.732s6.729,3.014,6.729,6.732
	C1190.465,345.327,1187.451,348.341,1183.732,348.341z M1183.732,296.341c-3.723,0-6.731-3.014-6.731-6.732
	c0-3.718,3.014-6.732,6.731-6.732s6.729,3.014,6.729,6.732C1190.465,293.327,1187.451,296.341,1183.732,296.341z M1183.732,244.341
	c-3.723,0-6.731-3.014-6.731-6.732c0-3.718,3.014-6.732,6.731-6.732s6.729,3.014,6.729,6.732
	C1190.465,241.327,1187.451,244.341,1183.732,244.341z M1183.732,192.341c-3.723,0-6.731-3.014-6.731-6.732
	c0-3.718,3.014-6.732,6.731-6.732s6.729,3.014,6.729,6.732C1190.465,189.327,1187.451,192.341,1183.732,192.341z M1183.732,140.341
	c-3.723,0-6.731-3.014-6.731-6.732c0-3.718,3.014-6.732,6.731-6.732s6.729,3.014,6.729,6.732
	C1190.465,137.327,1187.451,140.341,1183.732,140.341z M1240.303,608.341c-3.719,0-6.729-3.014-6.729-6.73
	c0-3.721,3.015-6.732,6.729-6.732c3.719,0,6.731,3.014,6.731,6.732C1247.035,605.328,1244.021,608.341,1240.303,608.341z
	 M1240.303,556.341c-3.719,0-6.729-3.014-6.729-6.73c0-3.721,3.015-6.732,6.729-6.732c3.719,0,6.731,3.014,6.731,6.732
	C1247.035,553.328,1244.021,556.341,1240.303,556.341z M1240.303,504.341c-3.719,0-6.729-3.014-6.729-6.73
	c0-3.721,3.015-6.732,6.729-6.732c3.719,0,6.731,3.014,6.731,6.732C1247.035,501.328,1244.021,504.341,1240.303,504.341z
	 M1240.303,452.341c-3.719,0-6.729-3.014-6.729-6.73c0-3.721,3.015-6.732,6.729-6.732c3.719,0,6.731,3.014,6.731,6.732
	C1247.035,449.328,1244.021,452.341,1240.303,452.341z M1240.303,386.878c3.717,0,6.73,3.014,6.73,6.731s-3.014,6.731-6.73,6.731
	c-3.718,0-6.731-3.014-6.731-6.731S1236.586,386.878,1240.303,386.878z M1240.303,334.878c3.717,0,6.73,3.014,6.73,6.731
	c0,3.718-3.014,6.731-6.73,6.731c-3.718,0-6.731-3.013-6.731-6.731C1233.572,337.892,1236.586,334.878,1240.303,334.878z
	 M1240.303,282.877c3.718,0,6.731,3.014,6.731,6.732c0,3.718-3.014,6.732-6.731,6.732c-3.719,0-6.732-3.014-6.732-6.732
	C1233.571,285.891,1236.585,282.877,1240.303,282.877z M1240.303,230.877c3.718,0,6.731,3.014,6.731,6.732
	c0,3.718-3.014,6.732-6.731,6.732c-3.719,0-6.732-3.014-6.732-6.732C1233.571,233.891,1236.585,230.877,1240.303,230.877z
	 M1240.303,178.877c3.718,0,6.731,3.014,6.731,6.732c0,3.718-3.014,6.732-6.731,6.732c-3.719,0-6.732-3.014-6.732-6.732
	C1233.571,181.891,1236.585,178.877,1240.303,178.877z M1240.303,126.877c3.718,0,6.731,3.014,6.731,6.732
	c0,3.718-3.014,6.732-6.731,6.732c-3.719,0-6.732-3.014-6.732-6.732C1233.571,129.891,1236.585,126.877,1240.303,126.877z
	 M1296.874,660.341c-3.72,0-6.732-3.014-6.732-6.73c0-3.721,3.018-6.732,6.732-6.732c3.714,0,6.731,3.014,6.731,6.732
	C1303.605,657.328,1300.593,660.341,1296.874,660.341z M1296.874,608.341c-3.72,0-6.732-3.014-6.732-6.73
	c0-3.721,3.018-6.732,6.732-6.732c3.714,0,6.731,3.014,6.731,6.732C1303.605,605.328,1300.593,608.341,1296.874,608.341z
	 M1296.874,556.341c-3.72,0-6.732-3.014-6.732-6.73c0-3.721,3.018-6.732,6.732-6.732c3.714,0,6.731,3.014,6.731,6.732
	C1303.605,553.328,1300.593,556.341,1296.874,556.341z M1296.874,504.341c-3.72,0-6.732-3.014-6.732-6.73
	c0-3.721,3.018-6.732,6.732-6.732c3.714,0,6.731,3.014,6.731,6.732C1303.605,501.328,1300.593,504.341,1296.874,504.341z
	 M1296.874,452.341c-3.72,0-6.732-3.014-6.732-6.73c0-3.721,3.018-6.732,6.732-6.732c3.714,0,6.731,3.014,6.731,6.732
	C1303.605,449.328,1300.593,452.341,1296.874,452.341z M1296.874,400.341c-3.72,0-6.732-3.014-6.732-6.73
	c0-3.719,3.018-6.732,6.732-6.732c3.714,0,6.731,3.017,6.731,6.732C1303.605,397.328,1300.593,400.341,1296.874,400.341z
	 M1296.874,348.341c-3.72,0-6.732-3.014-6.732-6.731c0-3.719,3.018-6.732,6.732-6.732c3.714,0,6.731,3.014,6.731,6.732
	C1303.605,345.327,1300.593,348.341,1296.874,348.341z M1296.874,296.341c-3.72,0-6.732-3.014-6.732-6.732
	c0-3.718,3.018-6.732,6.732-6.732c3.714,0,6.731,3.014,6.731,6.732C1303.605,293.327,1300.593,296.341,1296.874,296.341z
	 M1296.874,244.341c-3.72,0-6.732-3.014-6.732-6.732c0-3.718,3.018-6.732,6.732-6.732c3.714,0,6.731,3.014,6.731,6.732
	C1303.605,241.327,1300.593,244.341,1296.874,244.341z M1296.874,192.341c-3.72,0-6.732-3.014-6.732-6.732
	c0-3.718,3.018-6.732,6.732-6.732c3.714,0,6.731,3.014,6.731,6.732C1303.605,189.327,1300.593,192.341,1296.874,192.341z
	 M1353.443,660.341c-3.723,0-6.731-3.014-6.731-6.73c0-3.721,3.014-6.732,6.731-6.732s6.729,3.014,6.729,6.732
	C1360.176,657.328,1357.162,660.341,1353.443,660.341z M1353.443,608.341c-3.723,0-6.731-3.014-6.731-6.73
	c0-3.721,3.014-6.732,6.731-6.732s6.729,3.014,6.729,6.732C1360.176,605.328,1357.162,608.341,1353.443,608.341z M1353.443,556.341
	c-3.723,0-6.731-3.014-6.731-6.73c0-3.721,3.014-6.732,6.731-6.732s6.729,3.014,6.729,6.732
	C1360.176,553.328,1357.162,556.341,1353.443,556.341z M1353.443,504.341c-3.723,0-6.731-3.014-6.731-6.73
	c0-3.721,3.014-6.732,6.731-6.732s6.729,3.014,6.729,6.732C1360.176,501.328,1357.162,504.341,1353.443,504.341z M1353.443,452.341
	c-3.723,0-6.731-3.014-6.731-6.73c0-3.721,3.014-6.732,6.731-6.732s6.729,3.014,6.729,6.732
	C1360.176,449.328,1357.162,452.341,1353.443,452.341z M1353.443,400.341c-3.723,0-6.731-3.014-6.731-6.73
	c0-3.719,3.014-6.732,6.731-6.732s6.729,3.017,6.729,6.732C1360.176,397.328,1357.162,400.341,1353.443,400.341z M1353.443,348.341
	c-3.723,0-6.731-3.014-6.731-6.731c0-3.719,3.014-6.732,6.731-6.732s6.729,3.014,6.729,6.732
	C1360.176,345.327,1357.162,348.341,1353.443,348.341z M1353.443,296.341c-3.723,0-6.731-3.014-6.731-6.732
	c0-3.718,3.014-6.732,6.731-6.732s6.729,3.014,6.729,6.732C1360.176,293.327,1357.162,296.341,1353.443,296.341z M1353.443,244.341
	c-3.723,0-6.731-3.014-6.731-6.732c0-3.718,3.014-6.732,6.731-6.732s6.729,3.014,6.729,6.732
	C1360.176,241.327,1357.162,244.341,1353.443,244.341z M1410.014,660.341c-3.719,0-6.729-3.014-6.729-6.73
	c0-3.721,3.015-6.732,6.729-6.732c3.722,0,6.732,3.014,6.732,6.732C1416.746,657.328,1413.732,660.341,1410.014,660.341z
	 M1410.014,608.341c-3.719,0-6.729-3.014-6.729-6.73c0-3.721,3.015-6.732,6.729-6.732c3.722,0,6.732,3.014,6.732,6.732
	C1416.746,605.328,1413.732,608.341,1410.014,608.341z M1410.014,556.341c-3.719,0-6.729-3.014-6.729-6.73
	c0-3.721,3.015-6.732,6.729-6.732c3.722,0,6.732,3.014,6.732,6.732C1416.746,553.328,1413.732,556.341,1410.014,556.341z
	 M1410.014,504.341c-3.719,0-6.729-3.014-6.729-6.73c0-3.721,3.015-6.732,6.729-6.732c3.722,0,6.732,3.014,6.732,6.732
	C1416.746,501.328,1413.732,504.341,1410.014,504.341z M1410.014,452.341c-3.719,0-6.729-3.014-6.729-6.73
	c0-3.721,3.015-6.732,6.729-6.732c3.722,0,6.732,3.014,6.732,6.732C1416.746,449.328,1413.732,452.341,1410.014,452.341z
	 M1410.014,400.341c-3.719,0-6.729-3.014-6.729-6.73c0-3.719,3.015-6.732,6.729-6.732c3.722,0,6.732,3.017,6.732,6.732
	C1416.747,397.328,1413.732,400.341,1410.014,400.341z M1410.014,348.341c-3.719,0-6.729-3.014-6.729-6.731
	c0-3.719,3.015-6.732,6.729-6.732c3.722,0,6.732,3.014,6.732,6.732C1416.746,345.327,1413.732,348.341,1410.014,348.341z
	 M1410.014,296.341c-3.719,0-6.729-3.014-6.729-6.732c0-3.718,3.015-6.732,6.729-6.732c3.722,0,6.732,3.014,6.732,6.732
	C1416.746,293.327,1413.732,296.341,1410.014,296.341z M1466.585,608.341c-3.72,0-6.732-3.014-6.732-6.73
	c0-3.721,3.018-6.732,6.732-6.732c3.714,0,6.731,3.014,6.731,6.732C1473.316,605.328,1470.303,608.341,1466.585,608.341z
	 M1466.585,556.341c-3.72,0-6.732-3.014-6.732-6.73c0-3.721,3.018-6.732,6.732-6.732c3.714,0,6.731,3.014,6.731,6.732
	C1473.316,553.328,1470.303,556.341,1466.585,556.341z M1466.585,504.341c-3.72,0-6.732-3.014-6.732-6.73
	c0-3.721,3.018-6.732,6.732-6.732c3.714,0,6.731,3.014,6.731,6.732C1473.316,501.328,1470.303,504.341,1466.585,504.341z
	 M1466.585,452.341c-3.72,0-6.732-3.014-6.732-6.73c0-3.721,3.018-6.732,6.732-6.732c3.714,0,6.731,3.014,6.731,6.732
	C1473.316,449.328,1470.303,452.341,1466.585,452.341z M1466.585,400.341c-3.72,0-6.732-3.014-6.732-6.73
	c0-3.719,3.018-6.732,6.732-6.732c3.714,0,6.731,3.017,6.731,6.732C1473.316,397.328,1470.303,400.341,1466.585,400.341z
	 M1466.585,348.341c-3.72,0-6.732-3.014-6.732-6.731c0-3.719,3.018-6.732,6.732-6.732c3.714,0,6.731,3.014,6.731,6.732
	C1473.316,345.327,1470.303,348.341,1466.585,348.341z M1523.154,608.341c-3.719,0-6.731-3.014-6.731-6.73
	c0-3.721,3.014-6.732,6.731-6.732s6.729,3.014,6.729,6.732C1529.886,605.328,1526.874,608.341,1523.154,608.341z M1523.154,556.341
	c-3.719,0-6.731-3.014-6.731-6.73c0-3.721,3.014-6.732,6.731-6.732s6.729,3.014,6.729,6.732
	C1529.886,553.328,1526.874,556.341,1523.154,556.341z M1523.154,504.341c-3.719,0-6.731-3.014-6.731-6.73
	c0-3.721,3.014-6.732,6.731-6.732s6.729,3.014,6.729,6.732C1529.886,501.328,1526.874,504.341,1523.154,504.341z M1523.154,452.341
	c-3.719,0-6.731-3.014-6.731-6.73c0-3.721,3.014-6.732,6.731-6.732s6.729,3.014,6.729,6.732
	C1529.886,449.328,1526.874,452.341,1523.154,452.341z M1523.154,400.341c-3.719,0-6.731-3.014-6.731-6.73
	c0-3.719,3.014-6.732,6.731-6.732s6.729,3.017,6.729,6.732C1529.886,397.328,1526.874,400.341,1523.154,400.341z M1579.725,608.341
	c-3.719,0-6.729-3.014-6.729-6.73c0-3.721,3.015-6.732,6.729-6.732c3.722,0,6.732,3.014,6.732,6.732
	C1586.458,605.328,1583.443,608.341,1579.725,608.341z M1579.725,556.341c-3.719,0-6.729-3.014-6.729-6.73
	c0-3.721,3.015-6.732,6.729-6.732c3.722,0,6.732,3.014,6.732,6.732C1586.458,553.328,1583.443,556.341,1579.725,556.341z
	 M1579.725,504.341c-3.719,0-6.729-3.014-6.729-6.73c0-3.721,3.015-6.732,6.729-6.732c3.722,0,6.732,3.014,6.732,6.732
	C1586.458,501.328,1583.443,504.341,1579.725,504.341z M1579.725,452.341c-3.719,0-6.729-3.014-6.729-6.73
	c0-3.721,3.015-6.732,6.729-6.732c3.722,0,6.732,3.014,6.732,6.732C1586.458,449.328,1583.443,452.341,1579.725,452.341z
	 M1636.296,608.341c-3.72,0-6.732-3.014-6.732-6.73c0-3.721,3.018-6.732,6.732-6.732c3.714,0,6.731,3.014,6.731,6.732
	C1643.027,605.328,1640.014,608.341,1636.296,608.341z M1636.296,556.341c-3.72,0-6.732-3.014-6.732-6.73
	c0-3.721,3.018-6.732,6.732-6.732c3.714,0,6.731,3.014,6.731,6.732C1643.027,553.328,1640.014,556.341,1636.296,556.341z
	 M1636.296,504.341c-3.72,0-6.732-3.014-6.732-6.73c0-3.721,3.018-6.732,6.732-6.732c3.714,0,6.731,3.014,6.731,6.732
	C1643.027,501.328,1640.014,504.341,1636.296,504.341z M1692.865,556.341c-3.719,0-6.731-3.014-6.731-6.73
	c0-3.721,3.014-6.732,6.731-6.732s6.729,3.014,6.729,6.732C1699.597,553.328,1696.585,556.341,1692.865,556.341z M1723.615,586.449
	c5.222-3.943,11.724-6.281,18.771-6.281c17.222,0,31.183,13.961,31.183,31.182c0,17.223-13.961,31.184-31.183,31.184
	c-17.221,0-31.183-13.961-31.183-31.184c0-1.91,0.173-3.781,0.501-5.598c-0.088-0.934,0.39-2.021-0.453-2.732
	c-0.625-0.527-1.605-0.457-2.358-0.318c-0.083,0.068-0.166,0.139-0.25,0.207c-13.188,10.871-20.595,28.168-36.028,36.311
	c-3.619,1.912-7.043,2.877-10.358,3.01c-0.261-0.018-7.274-1.709-20.99-5.02c-6.699-1.621-10.181-2.449-10.495-2.51
	c-17.586-3.658-35.841-7.117-53.48-2.338c-17.33,4.693-35.369,6.217-52.691,10.945c-24.752,6.764-48.734,15.957-72.438,25.729
	c-27.474,11.322-54.459,23.803-80.722,37.715l-9.938,5.268c-3.912,2.051-15.375,3.086-21.599,0.74
	c-0.697-0.281-4.43-3.223-11.3-8.926c-10.516-8.77-21.479-18.344-32.832-28.598c-9.575-8.672-23.354-20.383-41.45-35.227
	c-34.733-28.496-72.36-59.365-104.68-84.895c-33.384-26.373-74.765-59.068-101.98-76.727
	c-17.274-11.203-35.905-20.357-55.926-25.389c-23.002-5.777-47.613-10.072-70.188-0.959c-47.479,19.164-96.061,35.645-142.75,56.721
	c-77.32,34.904-149.342,80.018-219.27,127.832l-10.986,7.518c-11.171,7.643-22.833,14.529-34.871,20.717
	c-5.591,2.873-13.424-2.984-18.932-7.102c-0.7-0.521-2.626-3.732-6.013-9.598c-28.448-49.281-60.401-96.51-97.061-140.061
	c-35.595-42.287-71.868-84.811-117.543-116.486c-17.519-12.148-37.073-21.02-57.644-26.58c-22.662-6.121-45.982-9.125-69.306-11.464
	c-18.383-1.846-37.026-0.172-55.315-3.049c-22.979-3.617-46.114-6.209-69.031-10.222L10.01,338.02l-10.008-7.152
	c1.643-4.189,3.284-6.734,4.862-7.6l33.45-18.375c26.382-14.492,53.774-27.021,80.632-40.593
	c61.604-31.134,124.697-59.193,186.864-89.168c78.811-38,180.6-78.824,272.042-115.501c43.711-17.532,88.377-32.626,133.899-44.714
	C764.115,1.013,818.548-2.827,872.466,1.969c40.61,3.614,79.516,16.405,117.92,29.534c30.729,10.504,59.649,25.397,88.313,40.539
	c19.351,10.224,34.939,27.283,56.033,34.118c7.173,2.325,14.732,0.843,21.943-0.72l41.989-9.099
	c6.541-1.418,13.218-0.057,19.398,2.296c11.639,4.433,25.277,4.77,34.928,13.279l20.012,17.644
	c21.914,19.321,43.802,38.678,65.297,58.465c24.181,22.258,49.357,43.4,73.752,65.419c50.261,45.369,100.937,90.31,153.541,132.949
	l44.752,36.271l39.666,32.254l69.285,57.486l5.981,9.045c0.168,0.129,1.733,20.453,1.646,21.023l-3.953,31.375
	c-0.412,3.27-1.073,6.521-2.027,9.67c0.056,0.785-0.178,1.662,0.097,2.428C1721.46,587.119,1722.678,586.566,1723.615,586.449z"/>
</svg>
