<?xml version="1.0" encoding="utf-8"?>
<!-- Generator: Adobe Illustrator 16.0.0, SVG Export Plug-In . SVG Version: 6.00 Build 0)  -->
<!DOCTYPE svg PUBLIC "-//W3C//DTD SVG 1.1//EN" "http://www.w3.org/Graphics/SVG/1.1/DTD/svg11.dtd">
<svg version="1.1" id="Layer_1" xmlns="http://www.w3.org/2000/svg" xmlns:xlink="http://www.w3.org/1999/xlink" x="0px" y="0px"
	 width="425.654px" height="738.299px" viewBox="0 0 425.654 738.299" enable-background="new 0 0 425.654 738.299"
	 xml:space="preserve">
<path fill="none" stroke="#000000" stroke-linejoin="round" stroke-miterlimit="10" d="M287.033,675.94
	c0.173-0.003,0.346-0.003,0.52-0.003c17.221,0,31.182,13.96,31.182,31.181s-13.961,31.181-31.182,31.181
	c-17.222,0-31.182-13.96-31.182-31.181c0-8.885,3.716-16.901,9.679-22.581c0.306-2.839-1.945-3.188-4.145-3.901
	c-0.904-0.139-1.836-0.328-2.797-0.572c-23.252-5.926-117.504-31.687-117.504-31.687l-2.717-0.79c0,0-15.734-2.128-21.984-23.957
	c-6.252-21.828-104.664-308.524-104.664-308.524L6.688,295.5l-3.797-16.8L0,260.711l0.264-13.03l2.309-13.467l4.076-12.873
	l4.803-10.867l12.098-20.341l17.404-22.46l28.473-31.823l24.974-24.147l22.557-19.282l30.685-22.888l26.207-16.834l31.575-17.3
	l16.884-8l20.443-8.104l18.147-6.345l12.845-3.712l22.125-4.622l18.338-2.498l15.806-1.426L346.916,0l12.735,0.102l8.957,0.677
	l8.069,0.926l9.463,1.631l8.188,2.161l9.195,3.756l6.605,4.11l5.293,4.756l4.954,6.69l3.875,8.024l1.398,8.674l-0.152,5.996
	l-1.659,10.483l-3.108,12.766l-50.943,226.457l-60.489,268.933l-20.487,93.305c0,0-1.57,6.464-5.955,12.299
	c-0.755,3.023,1.767,3.755,4.179,4.198V675.94z"/>
</svg>
