<?xml version="1.0" encoding="utf-8"?>
<!-- Generator: Adobe Illustrator 16.0.0, SVG Export Plug-In . SVG Version: 6.00 Build 0)  -->
<!DOCTYPE svg PUBLIC "-//W3C//DTD SVG 1.1//EN" "http://www.w3.org/Graphics/SVG/1.1/DTD/svg11.dtd">
<svg version="1.1" id="Layer_1" xmlns="http://www.w3.org/2000/svg" xmlns:xlink="http://www.w3.org/1999/xlink" x="0px" y="0px"
	 width="424.907px" height="739.838px" viewBox="0 0 424.907 739.838" enable-background="new 0 0 424.907 739.838"
	 xml:space="preserve">
<path fill="none" stroke="#000000" stroke-linejoin="round" stroke-miterlimit="10" d="M424.69,248.863l-2.266-13.473l-4.033-12.887
	l-4.764-10.884l-12.029-20.383l-17.326-22.52l-28.361-31.92l-24.893-24.232L308.53,93.206l-30.607-22.992l-26.146-16.926
	l-31.521-17.406l-16.854-8.059l-20.419-8.174l-18.125-6.407l-12.83-3.756l-22.11-4.697l-18.33-2.561l-15.8-1.479L78.886,0
	L66.152,0.059l-8.961,0.647l-8.073,0.898l-9.469,1.599l-8.192,2.132L22.248,9.06l-6.625,4.087l-5.308,4.738l-4.977,6.673
	l-3.904,8.01L0,41.242l0.133,5.995l1.625,10.488l3.066,12.778l50.171,226.629l59.572,269.138l20.173,93.369
	c0,0,6.358,26.566,29.63,20.723c23.272-5.845,117.612-31.281,117.612-31.281l2.722-0.781c0,0,15.74-2.074,22.064-23.883
	c6.326-21.807,105.719-308.166,105.719-308.166l5.613-19.587l3.855-16.787l2.951-17.979L424.69,248.863z"/>
</svg>
