<?xml version="1.0" encoding="utf-8"?>
<!-- Generator: Adobe Illustrator 16.0.0, SVG Export Plug-In . SVG Version: 6.00 Build 0)  -->
<!DOCTYPE svg PUBLIC "-//W3C//DTD SVG 1.1//EN" "http://www.w3.org/Graphics/SVG/1.1/DTD/svg11.dtd">
<svg version="1.1" id="Layer_1" xmlns="http://www.w3.org/2000/svg" xmlns:xlink="http://www.w3.org/1999/xlink" x="0px" y="0px"
	 width="424.904px" height="681.2px" viewBox="0 0 424.904 681.2" enable-background="new 0 0 424.904 681.2" xml:space="preserve">
<path d="M424.689,248.862l-2.264-13.473l-4.033-12.887l-4.764-10.884l-12.029-20.383l-17.326-22.52l-28.363-31.92l-24.891-24.232
	l-22.49-19.358l-30.605-22.992l-26.146-16.926l-31.521-17.406l-16.854-8.059l-20.419-8.174l-18.125-6.407l-12.83-3.756
	l-22.108-4.697l-18.33-2.561l-15.8-1.479L78.886-0.001L66.152,0.058l-8.961,0.647L49.12,1.603l-9.471,1.599l-8.19,2.132l-9.21,3.725
	l-6.625,4.087l-5.31,4.738l-4.978,6.673l-3.903,8.01L0,41.241l0.133,5.995l1.625,10.488l3.066,12.778l50.171,226.629l59.57,269.137
	l20.175,93.369c0,0,6.356,26.566,29.63,20.725c23.271-5.848,117.611-31.281,117.611-31.281l2.723-0.781
	c0,0,15.738-2.074,22.062-23.883c6.326-21.807,105.719-308.167,105.719-308.167l5.613-19.587l3.854-16.787l2.951-17.979
	L424.689,248.862z"/>
</svg>
