<?xml version="1.0" encoding="utf-8"?>
<!-- Generator: Adobe Illustrator 16.0.0, SVG Export Plug-In . SVG Version: 6.00 Build 0)  -->
<!DOCTYPE svg PUBLIC "-//W3C//DTD SVG 1.1//EN" "http://www.w3.org/Graphics/SVG/1.1/DTD/svg11.dtd">
<svg version="1.1" id="Layer_1" xmlns="http://www.w3.org/2000/svg" xmlns:xlink="http://www.w3.org/1999/xlink" x="0px" y="0px"
	 width="1232.649px" height="711.79px" viewBox="0 0 1232.649 711.79" enable-background="new 0 0 1232.649 711.79"
	 xml:space="preserve">
<path fill="none" stroke="#000000" stroke-linejoin="round" stroke-miterlimit="10" d="M1171.454,603.278
	c-1.41,5.232-5.404,9.67-11.342,12.979c-6.096,3.398-12.918,5.195-19.631,6.918c-7.363,1.891-14.871,3.291-22.312,4.836
	c-13.951,2.896-28.068,5.115-42.1,7.586c-19.164,3.377-38.332,6.734-57.498,10.105c-21.707,3.818-43.412,7.645-65.119,11.467
	c-17.994,3.168-35.99,6.33-53.986,9.496c-8.576,1.51-17.148,3.023-25.729,4.529c-0.152,0.025-0.305,0.053-0.455,0.08l-184.4,30.875
	c0,0-43.564,6.873-44.424,7.008c-26.412,4.164-52.549,3.312-78.71-1.98L424.53,678.752c-16.477-3.215-32.952-6.422-49.425-9.643
	c-25.847-5.057-51.687-10.143-77.542-15.139c-54.913-10.609-110.775-19.268-162.028-42.781
	c-14.053-6.447-27.647-13.996-40.313-22.879c-16.874-11.83-32.615-24.809-46.999-39.604c-24.181-24.871-56.04-56.281-46.484-94.451
	c1.785-7.129,4.248-15.008,7.74-21.502c7.448-13.85,16.591-26.682,27.794-37.754c22.229-21.969,44.962-43.414,68.055-64.47
	c36.824-33.577,74.954-65.601,112.915-97.87l51.432-41.13c18.343-14.668,35.628-30.931,55.516-43.553
	c36.177-22.963,82.958-28.978,123.681-40.532c52.616-14.928,105.431-30.165,155.416-52.649c12.439-5.597,24.856-11.288,36.95-17.616
	c5.939-3.109,11.848-6.339,17.574-9.828c2.83-1.724,7.771-6.847,10.193-7.756l10.311-6.647l6.945-5.219l4.543-3.194l2.381-1.562
	l4.281-1.89l2.467-0.647c4.246-0.507,7.721-0.434,7.721-0.434l3.725,0.503l4.041,1.008l4.449,1.71l8.053,3.862l16.902,10.54
	l77.84,48.706l7.188,4.617l2.121,1.414l1.609,1.576l0.609,1.106l0.529,2.917l-0.213,2.053l-0.982,3.309l-1.641,3.49l-12.344,20.542
	l-4.963,9.614l-3.283,6.956l-6.539,14.681l-4.105,10.449l-3.871,11.024l-2.965,9.836l-2.52,9.772l-1.512,7.994l-1.137,5.988
	l-0.646,4.812l-0.654,6.782l-0.494,5.09l0.053,7.724l0.77,5.124l0.973,4.606l1.188,4.489l1.625,6.152l1.602,4.362l2.473,6.331
	l2.189,4.806l1.676,3.188l6.125,11.11l3.143,4.546l4.713,6.817l4.713,6.364l5.707,6.643l7.777,8.274l5.688,4.838l8.188,6.964
	l15.258,12.978l31.691,26.932l19.264,16.2l26.771,22.521l46.328,38.967l47,38.74c9.51,7.887,19.01,15.789,28.529,23.664
	c13.014,10.764,26.062,21.488,38.988,32.359c19.512,16.414,40.568,31.947,58.902,49.656c4.408,4.26,8.494,8.955,11.277,14.461
	C1172.04,594.286,1172.592,599.042,1171.454,603.278z"/>
</svg>
