<?xml version="1.0" encoding="utf-8"?>
<!-- Generator: Adobe Illustrator 16.0.0, SVG Export Plug-In . SVG Version: 6.00 Build 0)  -->
<!DOCTYPE svg PUBLIC "-//W3C//DTD SVG 1.1//EN" "http://www.w3.org/Graphics/SVG/1.1/DTD/svg11.dtd">
<svg version="1.1" id="Layer_1" xmlns="http://www.w3.org/2000/svg" xmlns:xlink="http://www.w3.org/1999/xlink" x="0px" y="0px"
	 width="1423.83px" height="583.16px" viewBox="0 0 1423.83 583.16" enable-background="new 0 0 1423.83 583.16"
	 xml:space="preserve">
<path fill="none" stroke="#000000" stroke-linejoin="round" stroke-miterlimit="10" d="M1367.257,69.386
	c-3.075-0.978-5.293,0.585-7.151,2.898c-1.188,2.449-5.673,10.198-16.927,15.497c-13.517,6.365-557.656,224.173-557.656,224.173
	S537.408,406.51,403.677,525.743l-5.671,6.031l-12.03,15.342l-8.082,12.229c0,0-17.84,37.572-38.474,18.33
	c-20.634-19.244-128.799-121.826-128.799-121.826L89.552,335.402L21.929,262.9c0,0-45.861-48.781-4.939-73.626l6.624-2.396
	c0,0,12.103-3.575,36.295,4.343c24.193,7.918,47.998,15.676,47.998,15.676l52.796,16.366c0,0,152.953,56.696,254.333,4.95
	l26.111-10.869l38.778-19.373l47.157-27.917l62.089-40.8l75.322-50.309l62.214-42.201l28.943-21.405c0,0,22.348-19.7,55.228-14.45
	l521.86,41.77c0,0,14.071-0.002,22.517,7.437c1.482,0.468,3.268,1.747,4.798,0.691c1.051-0.724,1.054-2.134,1.625-3.172
	c1.814-15.493,14.988-27.512,30.968-27.512c17.221,0,31.181,13.96,31.181,31.181c0,17.221-13.96,31.181-31.181,31.181
	c-10.47,0-19.733-5.159-25.388-13.073L1367.257,69.386z"/>
</svg>
