<?xml version="1.0" encoding="utf-8"?>
<!-- Generator: Adobe Illustrator 16.0.0, SVG Export Plug-In . SVG Version: 6.00 Build 0)  -->
<!DOCTYPE svg PUBLIC "-//W3C//DTD SVG 1.1//EN" "http://www.w3.org/Graphics/SVG/1.1/DTD/svg11.dtd">
<svg version="1.1" id="Layer_1" xmlns="http://www.w3.org/2000/svg" xmlns:xlink="http://www.w3.org/1999/xlink" x="0px" y="0px"
	 width="1598.332px" height="620.743px" viewBox="0 0 1598.332 620.743" enable-background="new 0 0 1598.332 620.743"
	 xml:space="preserve">
<path d="M1535.647,34.964l-59.224,17.666l-43.709,12.358l-38.294,10.259l-36.547,9.229l-37.745,8.893l-45.957,9.861l-42.017,8
	c0,0-40.521,6.018-40.537,6.02c-28.448,4.065-57.25,5.724-85.979,5.688c-7.989-0.01-15.98-0.235-23.957-0.754
	c-23.21-1.511-46.641-6.051-67.73-16.149c-7.764-3.716-15.267-7.985-22.754-12.214l-16.443-10.003L10.886,599.196l122.09,10.18
	l74.291,4.189l71.591,3.078l76.243,2.305l73.479,1.316l66.717,0.479l72.276-0.207l68.855-0.859l81.479-2.188l81.923-3.521
	l89.686-5.379l41.729-3.896l28.774-3.445l27.064-4.605l34.366-9.104l47.077-18.244l45.896-24.004l51.526-33.953l99.454-73.322
	l57.571-43.203l77.215-56.703l40.673-32.976c0,0,44.53-39.479,63.133-73.459c18.604-33.98,27.09-51.272,27.09-51.272l30.16-67.282
	l19.26-45.676l11.766-31.148l6.062-20.895L1535.647,34.964z M840.221,15.967l-16.996-6.581l-21.637-6.291L780.305,0l-15.661,0.255
	L753.01,2.161L742.775,5.28c0,0-15.251,5.839-15.946,6.104c-26.008,9.957-49.673,27.596-73.337,41.94
	c-32.54,19.724-67.604,34.625-103.581,46.85c-35.779,12.16-73.438,20.114-111.391,18.481c-35.372-1.521-69.143-9.322-102.25-21.623
	c-18.228-6.771-34.087-16.138-50.308-26.656c-25.332-16.427-44.709-37.993-65.146-59.829c0,0-207.299,511.442-217.167,542.12
	c-9.869,30.678,3.406,38.557,3.406,38.557L972.366,78.918L840.221,15.967z"/>
</svg>
