<?xml version="1.0" encoding="utf-8"?>
<!-- Generator: Adobe Illustrator 16.0.0, SVG Export Plug-In . SVG Version: 6.00 Build 0)  -->
<!DOCTYPE svg PUBLIC "-//W3C//DTD SVG 1.1//EN" "http://www.w3.org/Graphics/SVG/1.1/DTD/svg11.dtd">
<svg version="1.1" id="Layer_1" xmlns="http://www.w3.org/2000/svg" xmlns:xlink="http://www.w3.org/1999/xlink" x="0px" y="0px"
	 width="522.051px" height="1016.062px" viewBox="0 0 522.051 1016.062" enable-background="new 0 0 522.051 1016.062"
	 xml:space="preserve">
<path d="M0.001,18.757l7.421,8.344l0,0C21.029,42.382,39.028,66.179,61.417,98.49c47.95,69.092,90.692,150.33,128.355,243.811
	c25.445,63.25,42.983,132.994,52.482,209.293c9.362,74.854,4.316,110.537-63.271,197.191c-4.437,5.688-8.844,11.396-13.187,17.156
	c-34.63,45.922-65.938,80.598-93.854,103.998l0,0l-8.335,6.938l0,0c-1.343,1.199-2.718,4.332-3.998,9.332
	c-1.334,5.215-5.629,71.394-8.342,107.094c-1.05,13.828-1.531,21.004-1.312,21.457c0.218,0.455,0.402,0.85,0.621,1.302
	c17.181-4.464,53.696-13.38,109.521-26.813c56.565-13.553,85.712-20.861,87.47-21.859c6.021-3.438,97.977-95.035,142.636-147.188
	c37.095-43.271,65.636-80.056,85.662-110.615c32.865-49.943,48.149-89.254,45.983-117.826c-0.909-12-8.536-34.895-14.217-51.938
	c-0.365-1.104-7.062-13.94-20.058-38.454c-17.703-33.195-42.438-73.084-74.332-119.606
	C383.953,339.025,318.765,230.69,217.635,56.86c-15.72-27.041-24.521-42.784-26.503-47.263c-22.786-6.266-51.198-9.443-85.27-9.596
	C87.255-0.048,69.26,1.372,52.043,4.255C28.238,8.212,10.923,13.058,0.001,18.757L0.001,18.757"/>
</svg>
