<?xml version="1.0" encoding="utf-8"?>
<!-- Generator: Adobe Illustrator 16.0.0, SVG Export Plug-In . SVG Version: 6.00 Build 0)  -->
<!DOCTYPE svg PUBLIC "-//W3C//DTD SVG 1.1//EN" "http://www.w3.org/Graphics/SVG/1.1/DTD/svg11.dtd">
<svg version="1.1" id="Layer_1" xmlns="http://www.w3.org/2000/svg" xmlns:xlink="http://www.w3.org/1999/xlink" x="0px" y="0px"
	 width="2029.195px" height="484.812px" viewBox="0 0 2029.195 484.812" enable-background="new 0 0 2029.195 484.812"
	 xml:space="preserve">
<path fill="none" stroke="#000000" stroke-linejoin="round" stroke-miterlimit="10" d="M687.434,433.513
	c-28.302,10.317-53.464,16.022-75.585,17.104c-27.224,1.331-53.966-5.358-80.977-7.75c-7.624-0.674-11.536-1.028-11.939-1.091
	c-13.34-2.084-31.881-4.981-40.187-4.987c-11.331-0.006-22.479-2.396-33.729-3.464c-22.691-2.151-37.791-3.169-45.339-3.008l0,0
	l-39.781,3.63l0,0c-14.179,1.293-27.504,6.979-41.496,9.34c-1.586,0.269-17.05,6.561-22.487,9.371
	c-12.397,6.463-22.686,13.616-30.74,21.634c-4.28,4.26-11.034,10.983-14.624,10.496c-2.573-0.354-4.332-1.295-5.334-2.793l0,0
	l-38.423-57.527l-21.648-29.661l0,0c-15.635-21.422-34.659-47.48-49.13-62.55l0,0L97.058,291.7l0,0
	c-34.26-34.36-61.65-59.919-82.244-76.532l0,0l-8.693-7.025l0,0c-2.969-2.399-5.828-5.389-6.114-9.354
	c-0.196-2.71,3.855-5.221,12.024-7.707c4.54-1.352,19.897-4.004,46.274-7.924l0,0l11.182-1.655l0,0
	c25.757-3.811,51.194-9.46,76.812-14.078l0,0l65.706-10.609l0,0c8.006-1.132,15.988-2.464,23.862-4.312
	c11.339-2.661,28.246-9.296,50.535-20.037c26.97-12.999,54.507-22.044,82.587-27.296c15.171-2.838,42.778-8.001,45.61-7.976
	c9.209,0.082,41.747-5.398,62.502-8.893c25.268-4.255,50.853-6.41,76.038-11.108c14.972-2.791,41.122-6.242,61.739-8.961
	c17.438-2.299,38.378-5.062,52.242-7.388l0,0l33.39-5.603l0,0c37.938-4.701,75.898-9.164,113.947-12.829
	c18.525-1.784,49.282-4.747,55.469-6.306c4.062-1.022,52.646-4.862,78.998-6.943c59.166-4.674,118.354-9.067,177.56-13.187
	c82.268-5.726,200.285-13.939,246.957-14.606l0,0L1469.361,0l70.672,3.091l0,0c7.33,0.461,18.229,1.763,32.816,4.137
	c25.727,4.183,51.432,8.734,76.543,15.765c13.666,3.828,36.938,10.344,40.99,11.504c30.873,8.85,61.506,18.499,92.127,28.177
	c57.953,18.316,132.689,41.936,169.078,67.589c4.799,3.382,12.586,8.87,8.361,14.562c-4.4,5.932-15.457,6.706-23.863,7.294
	c-2.229,0.158-8.932,0.787-20.074,1.989c-39.217,4.225-78.275,9.744-117.219,16.031c-43.293,6.992-86.596,13.959-130.062,19.833
	c-3.215,0.433-10.104,1.698-20.729,3.6c-89.469,16.008-178.854,32.482-267.936,50.555c-24.34,4.939-66.877,13.571-72.898,15.376
	c-10.09,3.022-20.354,5.401-30.646,7.631c-28.732,6.224-57.557,12.054-86.203,18.669l0,0l-82.832,19.729l0,0
	c-70.312,16.743-139.705,37.039-208.497,59.161c-22.025,7.082-44.225,13.623-66.498,19.854
	C786.295,397.475,735.391,416.03,687.434,433.513L687.434,433.513"/>
</svg>
