<?xml version="1.0" encoding="utf-8"?>
<!-- Generator: Adobe Illustrator 16.0.0, SVG Export Plug-In . SVG Version: 6.00 Build 0)  -->
<!DOCTYPE svg PUBLIC "-//W3C//DTD SVG 1.1//EN" "http://www.w3.org/Graphics/SVG/1.1/DTD/svg11.dtd">
<svg version="1.1" id="Layer_1" xmlns="http://www.w3.org/2000/svg" xmlns:xlink="http://www.w3.org/1999/xlink" x="0px" y="0px"
	 width="1915.496px" height="877.109px" viewBox="0 0 1915.496 877.109" enable-background="new 0 0 1915.496 877.109"
	 xml:space="preserve">
<path fill="none" stroke="#000000" stroke-linejoin="round" stroke-miterlimit="10" d="M1898.883,635.945
	c4.834-1.83,9.448-4.428,14.673-4.604c0.962-2.051,2.564-4.383,1.688-6.775c-1.362-5.439-6.218-8.775-9.536-12.979
	c-36.268-40.562-72.488-81.242-108.822-121.969c-6.281-7.312-13.353-13.99-18.806-22.047c-2.627-1.348-5.543,0.312-7.705,1.743
	c-5.333,3.39-10.325,8.546-16.785,9.171c-2.767,0.637-3.495-2.781-3.034-4.9c1.68-7.729,4.646-15.065,6.209-22.844
	c-1.026-2.996-3.738-4.781-6.228-6.477c-20.479-12.688-41.563-24.541-62.791-36.041c-10.448-6.155-21.367-11.149-32.287-16.145
	c-49.176-23.028-98.354-46.057-147.575-68.969c-6.215-2.262-12.809-5.221-19.479-3.734c-6.147,1.158-10.716,6.896-11.73,12.993
	c-1.081,7.566-9.787,9.172-15.854,9.82c-12.592-1.196-23.929-7.445-35.142-12.694c-11.021-5.714-22.188-11.079-32.515-17.865
	c-16.069-10.213-32.251-20.474-48.321-30.686c-24.137-15.401-48.718-30.034-72.204-46.39c-21.076-14.154-41.94-28.495-63.135-42.694
	c-38.996-24.036-78.105-48.118-117.15-72.037c-29.857-18.548-60.752-35.208-90.354-54.06
	c-22.699-12.102-48.172-18.007-73.586-21.445c-36.684-4.638-73.606-8.021-110.654-10.771c-53.979-3.004-108.168-5.823-162.146-8.828
	c-21.64-1.355-43.44-0.338-65.037-1.134c-10.568-2.272-21.188-4.429-31.851-6.467c-16.786-4.532-32.761-11.721-49.6-15.463
	c-22.939-4.33-48.066-0.324-67.492,13.741c-7.222,4.792-12.938,11.416-19.33,17.088c-29.334,27.123-58.848,54.036-88.064,81.205
	c-20.242,22.28-40.486,44.558-60.68,66.721c-11.712,13.274-24.414,25.735-34.954,40.029c-13.616,17.653-27.345,35.259-40.895,53.075
	c-29.881,42.502-59.583,85.216-89.465,127.719c-7.708,12.188,0.215,26.546-3.857,39.542c-2.346,8.404-6.78,16.098-12.498,22.723
	c-9.202,9.682-16.874,20.803-24.949,31.621c-2.756,3.221-3.188,8.199-1.759,12.174c1.93,5.674,7.625,9.215,9.349,15.074
	c3.103,8.317,0.474,17.426-3.073,25.207c-3.196,8.873-8.678,16.545-12.78,25.049c-1.169,2.236-0.582,6.004,2.516,6.18
	c6.053,0.705,12.162-1.012,18.148-2.1c68.078-14.859,135.662-32.09,203.551-48.111c51.855-11.975,103.708-23.941,155.567-35.918
	c20.763-4.971,41.81-9.012,62.609-13.424c23.842-5.072,47.566-10.188,71.478-15.103c47.504-8.728,94.961-17.336,142.353-26.105
	c24.854-3.982,50.188-4.918,75.133-1.942c12.104,1.405,24.008,4.628,36.012,6.941c13.146,2.104,26.076,5.063,38.979,8.424
	c24.44,6.164,46.973,17.381,70.441,26.271c40.342,15.491,80.165,32.266,120.338,48.504c62.146,24.922,123.37,51.776,184.479,79.26
	c22.888,10.008,45.285,20.9,68.662,30.021c12.42,3.566,26.487,3.061,38.291-3.255c4.796-2.392,8.491-6.31,13.291-8.694
	c7.944-4.631,17.296-8.146,26.343-6.359c8.564,1.998,13.491,10.383,15.688,18.334c3.394,14.139,9.94,26.982,14.454,40.627
	c3.822,12.414,7.854,24.643,11.836,36.982c3.882,13.252-1.306,27.689-10.73,37.28c0.944,2.558,3.044,4.228,5.585,5.128
	c41.408,17.42,82.962,34.488,124.562,51.443c53.975,22.271,107.689,44.845,161.854,66.646c3.77,1.127,7.51,4.28,11.627,3.246
	c4.428-2.135,6.405-7.023,8.604-11.146c13.694-28.61,28.248-56.735,40.924-85.766c4.303-6.391,9.576-12.244,15.948-16.568
	c30.15-18.377,59.923-37.447,89.271-57.104c10.468-8.896,21.491-16.891,32.207-25.41c2.78-1.982,3.593-6.271,1.212-8.867
	c-5.527-5.916-12.396-10.479-18.182-16.092c-2.444-2.765-3.216-6.74-2.803-10.371
	C1890.066,640.763,1894.597,637.724,1898.883,635.945z"/>
</svg>
