<?xml version="1.0" encoding="utf-8"?>
<!-- Generator: Adobe Illustrator 16.0.0, SVG Export Plug-In . SVG Version: 6.00 Build 0)  -->
<!DOCTYPE svg PUBLIC "-//W3C//DTD SVG 1.1//EN" "http://www.w3.org/Graphics/SVG/1.1/DTD/svg11.dtd">
<svg version="1.1" id="Layer_1" xmlns="http://www.w3.org/2000/svg" xmlns:xlink="http://www.w3.org/1999/xlink" x="0px" y="0px"
	 width="2425.758px" height="511.332px" viewBox="0 0 2425.758 511.332" enable-background="new 0 0 2425.758 511.332"
	 xml:space="preserve">
<path fill="none" stroke="#000000" stroke-linejoin="round" stroke-miterlimit="10" d="M59.286,269.602
	c-5.036-10.451-15.729-17.663-28.105-17.663c-17.22,0-31.18,13.959-31.18,31.18s13.96,31.18,31.18,31.18
	c14.016,0,25.872-9.247,29.798-21.974c4.181-3.562,8.578-0.839,12.939,0.673L73.92,293c4.075,1.886,8.406,3.286,12.604,4.783
	c25.778,9.023,51.825,17.213,77.604,26.238c11.473,3.561,23.461-0.365,34.499-3.789c25.438-5.484,50.991-11.6,77.162-12.342
	c15.728-0.826,31.426-2.23,47.14-2.847c70.096-3.031,140.271-4.142,210.337-4.76c11.989,0.188,24.052-0.683,35.992,0.146
	c14.833,0.883,29.739-0.287,44.562-0.257c89.602-0.332,179.118,1.673,268.66,3.25c103.976,2.082,208.118,3.82,311.738,14.181
	c24.303,2.817,48.896,4.446,72.692,10.494c28.52,5.1,57.14,9.774,85.414,16.346c14.345,3.904,28.468,8.926,41.688,15.805
	c22.508,12.418,40.658,31.705,53.971,53.639c10.8,17.289,20.716,35.228,32.188,52.064c2.873,4.383,4.922,9.424,8.771,13.028
	c2.061,0.781,3.68-1.165,4.5-2.813c2.492-5.434,3.196-11.563,4.862-17.268c12.112-45.592,24.505-91.092,37.035-136.582
	c-3.863,63.059-8.705,126.047-12.847,189.014c20.705-14.611,40.9-30.041,62.943-42.57c51.213-29.108,102.361-58.303,153.768-87.115
	c46.447-26.535,93.961-51.147,140.785-77.016c17.18-9.604,33.326-21.547,51.943-28.424c24.896-9.92,51.252-15.408,77.645-19.334
	c22.617-3.476,45.439-4.806,68.16-6.714c28.545-2.428,57.066-4.5,85.566-7.285c81.201-7.517,162.384-14.68,243.604-22.408
	c4.957-0.225,10.869-2.016,12.576-7.293c2.416-8.422,4.907-16.91,5.741-25.658c-0.052-4.404,1.56-9.334-0.552-13.526
	c-1.089-2.631-4.61-2.733-6.841-3.17c-6.635-1.027-13.256-2.266-19.7-3.99c-31.694-8.155-62.916-18.124-93.879-28.713
	c-32.873-11.644-65.404-24.045-98.354-35.483c-39.895-14.188-79.957-27.963-120.037-41.456
	c-27.556-9.928-56.034-16.654-84.142-24.632c-28.871-8.174-57.932-15.651-86.903-23.404c-15.454-3.199-31.167-5.635-46.979-5.664
	c-9.659-0.171-18.688,4.883-28.354,3.789c-24.854-4.061-49.758-8.34-74.961-9.302c-13.922-0.821-27.85-2.566-41.74-1.751
	c-16.209,0.653-32.448,0.665-48.621,1.819c-22.155,0.81-44.198,3.118-66.312,4.429c-83.65,6.14-167.246,12.496-250.875,18.284
	c-21.646,1.696-43.302,2.469-64.822,5.383c-98.732,10.847-197.286,23.198-296.021,34.117
	C892.828,80.028,789.43,95.095,686.158,111.378c-54.761,8.921-109.688,17.189-164.492,25.75
	c-35.93,5.111-71.848,10.01-107.943,13.406c-21.771,1.476-43.521,3.591-65.322,2.438c-22.131-1.529-44.602-4.29-65.259-12.819
	c-2.541-1.027-4.907-2.54-7.557-3.006c-6.7-0.109-12.216,4.124-17.538,7.589c-61.88,42.03-123.894,83.98-186.023,125.644
	c-4.634,1.565-8.753,3.556-12.686-0.673L59.286,269.602z"/>
</svg>
