<?xml version="1.0" encoding="utf-8"?>
<!-- Generator: Adobe Illustrator 16.0.0, SVG Export Plug-In . SVG Version: 6.00 Build 0)  -->
<!DOCTYPE svg PUBLIC "-//W3C//DTD SVG 1.1//EN" "http://www.w3.org/Graphics/SVG/1.1/DTD/svg11.dtd">
<svg version="1.1" id="Layer_1" xmlns="http://www.w3.org/2000/svg" xmlns:xlink="http://www.w3.org/1999/xlink" x="0px" y="0px"
	 width="2794.801px" height="1578.848px" viewBox="0 0 2794.801 1578.848" enable-background="new 0 0 2794.801 1578.848"
	 xml:space="preserve">
<path fill="none" stroke="#000001" stroke-linejoin="round" stroke-miterlimit="10" d="M1426.139,1300.77
	c-8.85,14.77-24.303,25.215-41.172,27.979c-5.849,1.01-11.841,1.09-17.717,0.309c-15.7-2.109-30.417-10.709-39.891-23.488
	c-6.547-8.77-10.667-19.4-11.726-30.334c-1.891-18.293,5.149-37.336,18.507-49.902c14.57-14.027,36.498-19.854,55.929-14.465
	c18.712,4.529,34.544,19.002,41.119,37.146C1437.698,1265.137,1435.702,1285.186,1426.139,1300.77z"/>
<path fill="none" stroke="#000001" stroke-linejoin="round" stroke-miterlimit="10" d="M1558.597,878.063
	c-5.78-9.215-12.59-25.778,1.401-31.309c17.553-6.971,34.766-14.592,52.244-21.699c61.801-25.889,123.705-51.142,186.473-74.44
	c40.582-15.19,80.826-30.925,121.561-45.364c23.693-8.276,46.508-18.903,71.102-24.433c12.986-3.021,25.988-5.647,39.186-7.406
	c12.059-2.003,24.041-4.914,36.18-6.006c25.01-2.326,50.312-0.732,75.055,3.895c47.148,10,94.363,19.838,141.627,29.795
	c23.771,5.529,47.359,11.263,71.062,16.953c20.678,4.952,41.613,9.539,62.24,15.045l154.582,39.946
	c67.447,17.779,134.562,36.761,202.23,53.382c5.957,1.244,12.021,3.119,18.09,2.572c3.1-0.098,3.785-3.85,2.676-6.119
	c-3.881-8.607-9.162-16.416-12.127-25.371c-3.344-7.872-5.734-17.042-2.416-25.279c1.875-5.812,7.66-9.204,9.736-14.821
	c1.533-3.939,1.229-8.93-1.441-12.217c-7.793-11.026-15.172-22.344-24.119-32.263c-5.545-6.77-9.777-14.574-11.904-23.039
	c-3.73-13.095,4.561-27.239-2.83-39.628c-28.766-43.266-57.35-86.733-86.117-130c-13.084-18.162-26.35-36.12-39.502-54.121
	c-10.166-14.562-22.541-27.35-33.9-40.922c-19.611-22.68-39.271-45.478-58.93-68.274c-28.504-27.918-57.309-55.59-85.93-83.466
	c-6.24-5.836-11.783-12.608-18.877-17.584c-17.29-13.215-39.487-18.274-60.669-16.308c-4.507,0-8.153-11.812-8.153-26.41
	c1.049-3.657,2.112-7.327,3.047-11.024c0.305-1.205,0.596-2.412,0.867-3.624l0.002-0.01c0.349-0.792,0.777-1.523,1.238-2.091
	c5.085-6.278,15.822-4.676,22.88-4.932c8.637-0.313,17.615-0.639,24.757-6.111c7.482-5.733,11.882-15.083,11.882-24.488
	c0-17.221-13.959-31.181-31.18-31.181c-2.881,0-5.968,0.436-8.742,1.201c-4.729,1.304-9.116,4.095-12.756,7.34
	c-4.345,3.875-5.905,9.696-9.001,14.448c-6.627,10.173-22.092,14.788-33.499,11.722c-28.564-7.677-56.755-16.74-84.735-26.308
	c-32.869-11.644-65.402-24.045-98.354-35.483c-39.896-14.188-79.957-27.963-120.037-41.456
	c-27.553-9.928-56.029-16.654-84.139-24.632c-28.871-8.173-57.934-15.651-86.906-23.404c-15.449-3.199-31.164-5.635-46.977-5.664
	c-9.658-0.171-18.689,4.882-28.355,3.789c-24.852-4.061-49.756-8.34-74.961-9.302c-13.922-0.821-27.852-2.566-41.74-1.751
	c-16.209,0.653-32.449,0.665-48.621,1.819c-22.152,0.81-44.195,3.119-66.311,4.429c-83.652,6.14-167.249,12.497-250.876,18.284
	c-21.647,1.697-43.303,2.47-64.822,5.383c-98.73,10.847-197.284,23.197-296.019,34.117C830.46,80.028,727.061,95.095,623.79,111.378
	c-54.76,8.921-109.688,17.189-164.493,25.75c-35.932,5.11-71.849,10.01-107.943,13.406c-21.773,1.476-43.521,3.59-65.324,2.438
	c-22.131-1.529-44.602-4.291-65.259-12.819c-2.541-1.027-4.907-2.54-7.557-3.006c-6.699-0.109-12.215,4.124-17.538,7.589
	c-62.512,42.458-125.162,84.836-187.93,126.922c-3.047,2.203-6.245,4.537-7.687,8.058c-0.251,2.609,0.257,5.483,2.177,7.322
	c6.178,5.61,14.27,8.014,21.918,10.745c25.778,9.023,51.824,17.214,77.603,26.239c11.473,3.561,23.461-0.365,34.499-3.79
	c25.439-5.481,50.991-11.597,77.162-12.341c15.729-0.827,31.426-2.229,47.14-2.845c70.095-3.031,140.269-4.14,210.339-4.76
	c11.987,0.19,24.048-0.68,35.991,0.147c14.834,0.882,29.739-0.287,44.562-0.256c89.604-0.333,179.117,1.671,268.66,3.25
	c103.979,2.082,208.122,3.818,311.741,14.18c24.302,2.817,48.896,4.446,72.691,10.493c28.521,5.098,57.139,9.773,85.415,16.346
	c14.344,3.902,28.468,8.924,41.688,15.802c18.411,10.159,33.906,24.913,46.221,41.952l0.005,0.002
	c3.655,10.382,6.028,27.21,6.028,46.222c0,46.38-5.899,83.91-13.19,83.91l0.001,0.003c-6.244,0.909-12.575,1.492-18.757,2.875
	c-3.446,0.994-6.348,3.13-9.685,4.257c-4.835,2.622-9.97,4.599-14.806,7.22c-2.841,0.885-5.246,2.777-8.105,3.609
	c-11.384,3.75-22.025,10.66-33.444,14.233c-3.853,1.32-7.308,3.547-11.197,4.764c-10.57,3.481-20.488,9.284-31.062,12.756
	c-4.677,1.629-8.976,4.111-13.725,5.707c-3.557,1.326-7.074,2.755-10.496,4.443c-5.994,2.352-12.153,4.416-17.902,7.262
	c-6.127,2.462-12.409,4.513-18.363,7.436c-6.129,2.462-12.461,4.533-18.416,7.457c-6.302,2.469-12.681,4.73-18.81,7.66
	c-7.504,2.325-14.385,6.974-21.833,9.316c-4.864,1.756-9.446,4.107-14.272,5.968c-2.732,1.487-5.334,4.742-4.145,7.927
	c0.924,3.79,10.876,24.268-0.869,22.51c-6.106-1.015-10.812-7.249-14.562-11.778c-1.875-2.344-5.723-3.368-7.987-0.941
	c-14.969,14.951-30.316,29.514-44.959,44.869c-32.884,34.023-65.539,68.248-98.284,102.403c-1.923,1.771-3.633,4.105-3.698,6.766
	c-0.249,5.133,10.808,7.189,14.073,8.742c6.971,2.781,14.255,7.031,17.052,14.357c3.645,12.115-7.674,19.803-14.398,27.791
	c-4.209,2.564-8.362,5.285-12.586,7.975c-0.742,1.154-2.07,2-2.472,3.438c-1.518,5.027,12.082,15.441,15.568,18.721
	c3.192,3.197,7.204,5.447,10.868,8.18c25.427,18.502,52.271,35.43,79.137,51.783c3.549,1.953,6.77,4.439,9.634,7.236
	c18.356,16.305,24.808,40.486,32.716,62.721c1.935,5.615,3.911,11.217,5.946,16.795c2.043,5.6,4.147,11.178,6.33,16.725
	c0.771,1.957,1.409,3.963,2.203,5.912c0.479,1.176,0.971,2.545,1.932,3.428c0.525,0.482,1.091,0.715,1.684,0.796l0-0.008
	c1.237,0,2.238,3.437,2.238,7.684l-0.001-0.001c-0.449,1.139-0.473,2.477-0.257,3.674c0.548,3.604,2.699,6.572,3.976,9.924
	c28.523,70.828,57.151,141.686,85.677,212.514c1.258,2.789,1.481,6.361,4.191,8.254c3.391,2.463,7.833,2.809,11.885,2.324
	c5.702-0.658,11.294-1.963,17.069-2.268c2.568-0.098,5.393,0.096,7.51,1.719c4.754,3.385,7.553,9.148,7.682,14.98
	c0.092,5.547-1.785,11.016-4.417,15.781c-7.028,8.672-13.981,17.475-22.149,25.006c-12.44,9.072-25.049,17.936-37.49,27.01
	c-3.847,3.494-7.238,8.838-5.913,14.322c1.536,5.314,6.786,8.271,11.478,10.412c63.404,29.742,126.301,60.578,189.454,90.865
	c38.878,18.703,77.746,37.459,116.623,56.162c10.451,4.844,20.891,9.514,31.289,14.344c2.162,1.242,4.449,2.635,7.035,2.482
	c3.734-0.121,5.463-4.18,5.869-7.418c1.215-11.164,0.996-22.77-2.424-33.547c-6.072-15.838-12.498-31.6-20.633-46.535
	c-5.816-13.648-11.361-27.504-16.605-41.447c-3.014-8.107-5.965-16.252-8.184-24.65c-0.596-1.943-0.619-3.959-0.775-5.896
	c-0.117-0.811,0.746-1.586,1.549-1.26c2.76,1.068,4.75,3.381,6.838,5.33c11.113,11.43,22.166,22.914,33.195,34.424
	c10.975,11.453,21.924,22.932,32.889,34.395c3.074,3.215,6.148,6.43,9.227,9.641c1.535,1.605,3.07,3.211,4.607,4.814
	c1.227,1.275,2.316,3.178,3.652,4.27c2.668,2.182,7.553,2.467,10.818,2.809c7.264,0.762,14.555,1.416,21.854,1.627
	c2.906-0.119,6.611,0.088,8.514-2.531c1.834-3.414-0.592-7.018-1.143-10.398c-9.773-54.633-18.092-109.547-24.461-164.725
	c-1.268-10.768-2.195-21.555-3.477-32.268c-0.027-0.957,0.102-1.871,0.023-2.84c-4.113-77.889-8.076-155.74-12.189-233.631
	c-2.656-50.787-5.584-101.592-8.408-152.367c-0.182-4.789-0.752-9.57-0.607-14.33c-0.512-5.434-1.889-10.93-4.363-15.828
	c-1.521-3.053-3.534-5.916-5.966-8.312L1558.597,878.063z"/>
</svg>
