<?xml version="1.0" encoding="utf-8"?>
<!-- Generator: Adobe Illustrator 16.0.0, SVG Export Plug-In . SVG Version: 6.00 Build 0)  -->
<!DOCTYPE svg PUBLIC "-//W3C//DTD SVG 1.1//EN" "http://www.w3.org/Graphics/SVG/1.1/DTD/svg11.dtd">
<svg version="1.1" id="Layer_1" xmlns="http://www.w3.org/2000/svg" xmlns:xlink="http://www.w3.org/1999/xlink" x="0px" y="0px"
	 width="705.596px" height="955.805px" viewBox="0 0 705.596 955.805" enable-background="new 0 0 705.596 955.805"
	 xml:space="preserve">
<path d="M688.819,2.533C663.97,9.014,536.411,39.521,370.741,42.608c0,0-3.896,0.225-12.257,0.4
	c-16.325-0.185-23.732-0.633-23.732-0.633C169.091,38.815,41.619,7.944,16.791,1.394C-8.037-5.159,2.011,13.515,2.011,13.515
	S30.49,83.303,42.866,113.874c12.376,30.572,113.315,225.203,113.315,225.203s145.531,247.834,148.964,254.99
	c3.433,7.15-1.822,7.02-3.469,7.143c-1.647,0.123-5.135-4.896-5.135-4.896l-5.298-7.804L164.043,379.071
	c0,0-81.626-144.324-85.577-150.506c-3.95-6.181-9.627-2.711-9.627-2.711c-5.149,2.17-0.973,16.918-0.973,16.918l65.365,274.3
	l50.845,198.941c0,0,25.381,99.275,32.249,119.992c4.57,13.791,14.395,25.482,20.45,31.764l-0.278,0.65l99.842,81.604
	c0,0,1.731,1.402,4.544,2.834c2.705,1.645,5.437,2.441,8.058,2.686c4.751,0.746,10.283,0.07,15.562-4.231
	c1.312-0.815,2.063-1.427,2.063-1.427l84.731-68.85c6.104-4.824,9.909-7.826,9.909-7.826s0.853-0.723,2.255-2.057l3.178-2.582
	l-0.172-0.4c6.082-6.289,15.853-17.896,20.437-31.594c6.927-20.697,32.591-119.9,32.591-119.9l51.409-198.801l66.147-274.109
	c0,0,4.222-14.735-0.924-16.92c0,0-5.666-3.487-9.638,2.683c-3.969,6.17-86.006,150.262-86.006,150.262l-127.8,209.074l-5.319,7.789
	c0,0-3.502,5.008-5.146,4.881c-1.646-0.127-6.899-0.008-3.446-7.152c3.452-7.145,149.69-254.564,149.69-254.564
	s101.491-194.343,113.958-224.878C674.884,84.406,703.563,14.7,703.563,14.7S713.663-3.949,688.819,2.533z"/>
</svg>
