<?xml version="1.0" encoding="utf-8"?>
<!-- Generator: Adobe Illustrator 16.0.0, SVG Export Plug-In . SVG Version: 6.00 Build 0)  -->
<!DOCTYPE svg PUBLIC "-//W3C//DTD SVG 1.1//EN" "http://www.w3.org/Graphics/SVG/1.1/DTD/svg11.dtd">
<svg version="1.1" id="Layer_1" xmlns="http://www.w3.org/2000/svg" xmlns:xlink="http://www.w3.org/1999/xlink" x="0px" y="0px"
	 width="1815.117px" height="1020.235px" viewBox="0 0 1815.117 1020.235" enable-background="new 0 0 1815.117 1020.235"
	 xml:space="preserve">
<path fill="none" stroke="#000001" stroke-linejoin="round" stroke-miterlimit="10" d="M516.942,546.452
	c-3.278,10.615-14.895,16.459-25.938,13.049s-17.341-14.785-14.062-25.395c3.275-10.615,14.891-16.459,25.936-13.053
	C513.923,524.463,520.219,535.836,516.942,546.452z M809.558,623.245c-3.275,10.615-14.893,16.459-25.936,13.049
	s-17.341-14.783-14.062-25.395c3.278-10.615,14.895-16.459,25.938-13.053C806.538,601.256,812.835,612.629,809.558,623.245z
	 M1096.055,654.833c11.045,3.41,17.341,14.781,14.063,25.398c-3.278,10.617-14.889,16.459-25.934,13.049
	s-17.342-14.781-14.063-25.398C1073.399,657.264,1085.01,651.422,1096.055,654.833z M1419.949,678.899
	c-3.276,10.615-14.893,16.459-25.936,13.049s-17.34-14.783-14.062-25.398c3.271-10.615,14.892-16.459,25.935-13.049
	S1423.227,668.284,1419.949,678.899z M1504.082,595.774c-0.273,0-0.543,0.021-0.807,0.062c-2.762,0.447-4.883,3.162-4.883,6.447
	c0,3.914,2.158,7.082,4.825,7.082c0.192-0.01,0.388-0.018,0.583-0.023h0.012c4.115-0.141,8.68,0.168,13.063,1.436
	c0.709,0.092,1.447,0.189,2.207,0.295c8.103,2.498,12.154,9.352,12.154,9.352l3.181,4.977l5.514,7.514l6.812,8.184l7.574,8.113
	l7.922,7.619l9.351,8.061l7.496,5.855l7.457,5.342l8.036,5.275l14.949,8.887l8.178,4.805l9.734,5.717l23.84,13.674l15.211,8.229
	l12.177,6.256l13.2,6.494l13.16,6.244l21.519,9.879l12.504,5.424l11.518,4.65l5.314,2.145l11.396,4.604
	c0,0,3.689,1.496,10.101,3.895c6.108,2.291,8.391,6.812,8.59,7.232l0.01,0.018l0.004,0.016l0.004,0.004
	c0.225,0.5,0.398,1.02,0.508,1.561l0.002,0.006l-0.002-0.002c0.369,1.783,0.049,3.781-1.274,6c0,0-8.148,16.502-9.42,19.506
	c-1.267,3.008-14.367,27.828,5.545,37.033l23.062,7.803c0,0,18.984,4.508,6.4,15.561
	c-12.584,11.057-136.834,128.574-136.834,128.574s-18.314,16.42-30.959,15.574c-12.646-0.85-361.271-7.973-361.271-7.973
	s-136.707,0.58-162.332,2.176c-25.623,1.598-143.344,6.682-172.022,9.371c-28.68,2.691-88.384,13.463-120.622-5.32l-15.688-8.58
	c0,0-65.043-40.121-92.984-59.617c-27.94-19.498-399.678-243.436-399.678-243.436s-20.132-10.498-25.334-9.047
	c0,0-15.275,5.473-4.454,16.623c10.82,11.152,133.4,132.209,157.606,159.373c24.213,27.18,64.58,74.625,67.698,81.021
	c0,0,12.312,22.814-7.227,21.203c0,0-35.184-8.152-59.467-10.896c-24.285-2.742-61-5.926-69.015-6.365
	c-8.016-0.434-18.394-0.922-27.787-7.896c0,0-125.885-131.248-153.335-165.535C171.38,744.116,54.872,602.227,24.926,552.928
	l-9.965-15.807c-1.026-1.547-2.141-3.295-3.286-5.211v-0.002c-11.327-18.957-25.463-53.875,17.039-62.711l69.19-4.105
	c0,0,169.8-3.267,274.816,1.992c0,0,63.459,1.254,87.43,8.316c6.825,2.01,31.432,8.492,63.141,16.737
	c11.396,0,20.616-16.639,20.616-37.202h-0.001c0.079-2.335,0.365-3.97,0.365-3.97l1.048-91.397
	c2.997-172.055-30.51-345.927-30.51-345.927c-3.739-20.329,9.413-11.917,9.413-11.917l175.195,117.778
	c158.26,105.973,243.701,160.215,342.201,218.412c98.498,58.199,199.726,105.583,300.681,153.394
	c64.155,30.383,122.499,50.409,158.782,61.735c10.257,1.381,22.031,2.947,31.776-1.604c4.283-2.002,7.38-5.246,10.274-8.734
	c2.687-3.236,5.197-6.68,8.318-9.531c5.7-5.205,13.197-8.119,20.936-8.119c17.221,0,31.182,13.961,31.182,31.182
	c0,11.457-6.9,23.473-17.445,28.123c-13.714,6.045-29.162,1.711-43.479,4.42c-11.249,2.127-22.498,4.254-33.748,6.381
	c-1.689,0.291-3.363,0.486-4.817,0.617L1504.082,595.774z"/>
</svg>
