<?xml version="1.0" encoding="utf-8"?>
<!-- Generator: Adobe Illustrator 16.0.0, SVG Export Plug-In . SVG Version: 6.00 Build 0)  -->
<!DOCTYPE svg PUBLIC "-//W3C//DTD SVG 1.1//EN" "http://www.w3.org/Graphics/SVG/1.1/DTD/svg11.dtd">
<svg version="1.1" id="Layer_1" xmlns="http://www.w3.org/2000/svg" xmlns:xlink="http://www.w3.org/1999/xlink" x="0px" y="0px"
	 width="1812.113px" height="1023.15px" viewBox="0 0 1812.113 1023.15" enable-background="new 0 0 1812.113 1023.15"
	 xml:space="preserve">
<path fill="none" stroke="#000000" stroke-miterlimit="10" d="M1783.161,465.201l-69.224-3.544c0,0-169.818-1.886-274.789,4.228
	c0,0-63.448,1.772-87.359,9.029c-23.912,7.256-266.709,71.459-266.709,71.459s-104.361,28.389-176.418,43.793
	c-72.057,15.402-147.854,34.036-238.879,41.165c0,0-127.828,11.331-226.41,1.114c0,0-101.705-7.187-119.89-12.982
	c0,0-6.275-1.907-14.224-2.119l0.001-0.002l-0.012,0.002c-4.116-0.107-8.68,0.237-13.052,1.539
	c-47.395,6.602-210.68,38.525-266.919,169.494c-0.628,0.923-1.087,1.922-1.297,2.997l-0.002,0.005v0.001
	c-0.347,1.784-0.017,3.78,1.326,5.987c0,0,8.287,16.435,9.578,19.429c1.292,2.995,14.592,27.71-5.245,37.077l-22.999,7.988
	c0,0-18.949,4.658-6.275,15.609c12.674,10.955,137.874,127.46,137.874,127.46s18.449,16.271,31.085,15.32
	c12.638-0.952,361.191-10.91,361.191-10.91s136.706-0.53,162.346,0.856c25.637,1.388,143.395,5.514,172.095,7.972
	s88.489,12.744,120.573-6.303l15.617-8.708c0,0,64.718-40.648,92.497-60.371c27.781-19.722,397.687-246.676,397.687-246.676
	s20.048-10.661,25.262-9.254c0,0,15.318,5.348,4.589,16.587c-10.729,11.241-132.319,133.291-156.311,160.661
	s-63.975,75.143-67.039,81.562c0,0-12.125,22.921,7.396,21.146c0,0,35.116-8.437,59.377-11.375
	c24.262-2.941,60.948-6.427,68.96-6.931c8.013-0.502,18.386-1.072,27.723-8.126c0,0,124.812-132.268,151.983-166.774
	c25.462-32.341,140.812-175.172,170.356-224.715l0.001,0.002l9.836-15.889c1.014-1.557,2.111-3.312,3.24-5.236h0.002
	C1811.882,508.723,1825.732,473.691,1783.161,465.201z M419.723,699.041c-11.017,3.5-22.676-2.247-26.04-12.837
	c-3.362-10.59,2.839-22.012,13.855-25.513c11.017-3.5,22.675,2.248,26.04,12.837C436.943,684.118,430.74,695.541,419.723,699.041z
	 M729.583,697.875c-11.016,3.5-22.674-2.248-26.04-12.837c-3.364-10.591,2.84-22.013,13.856-25.513
	c11.016-3.5,22.675,2.247,26.04,12.837C746.804,682.952,740.6,694.375,729.583,697.875z M1029.643,638.424
	c-11.018,3.5-22.676-2.248-26.039-12.837c-3.362-10.59,2.84-22.013,13.854-25.512c11.017-3.501,22.675,2.247,26.04,12.837
	C1046.862,623.502,1040.659,634.923,1029.643,638.424z M1321.623,559.254c-11.016,3.5-22.675-2.247-26.039-12.837
	c-3.363-10.59,2.839-22.013,13.856-25.513c11.017-3.5,22.675,2.248,26.038,12.838
	C1338.845,544.332,1332.641,555.754,1321.623,559.254z M271.396,581.465c0,0,19.376,15.468,24.365,18.979
	c4.987,3.511,17.667,3.544,17.667,3.544c42.59,1.727,87.313,0.262,145.59-1.612c58.279-1.874,118.139-7.782,200.377-16.239
	c82.239-8.456,285.918-45.475,340.938-56.046c55.02-10.569,247.067-57.146,258.754-59.046c11.687-1.896,8.391-19.885,8.391-19.885
	l-1.788-91.386c-4.396-172.026,27.693-346.165,27.693-346.165c3.577-20.358-9.51-11.84-9.51-11.84l-174.229,119.204
	C952.249,228.229,867.252,283.164,769.229,342.16c-98.021,58.996-198.86,107.203-299.424,155.832
	c-100.562,48.631-186.944,71.501-195.779,74.547S271.396,581.465,271.396,581.465z"/>
</svg>
