<?xml version="1.0" encoding="utf-8"?>
<!-- Generator: Adobe Illustrator 16.0.0, SVG Export Plug-In . SVG Version: 6.00 Build 0)  -->
<!DOCTYPE svg PUBLIC "-//W3C//DTD SVG 1.1//EN" "http://www.w3.org/Graphics/SVG/1.1/DTD/svg11.dtd">
<svg version="1.1" id="Layer_1" xmlns="http://www.w3.org/2000/svg" xmlns:xlink="http://www.w3.org/1999/xlink" x="0px" y="0px"
	 width="1812.113px" height="1023.15px" viewBox="0 0 1812.113 1023.15" enable-background="new 0 0 1812.113 1023.15"
	 xml:space="preserve">
<path fill="none" stroke="#000001" stroke-linejoin="round" stroke-miterlimit="10" d="M433.544,673.543
	c3.364,10.591-2.839,22.014-13.856,25.514s-22.676-2.248-26.04-12.838c-3.365-10.591,2.839-22.013,13.855-25.513
	C418.52,657.205,430.179,662.953,433.544,673.543z M743.424,672.402c3.365,10.59-2.839,22.013-13.857,25.513
	c-11.018,3.501-22.677-2.247-26.041-12.837c-3.364-10.591,2.84-22.014,13.857-25.514S740.059,661.812,743.424,672.402z
	 M1029.643,638.424c-11.019,3.5-22.676-2.248-26.04-12.837c-3.361-10.59,2.841-22.013,13.854-25.512
	c11.018-3.501,22.676,2.247,26.04,12.837S1040.659,634.923,1029.643,638.424z M1335.51,533.807
	c3.365,10.591-2.839,22.013-13.855,25.513c-11.018,3.501-22.676-2.247-26.041-12.837c-3.364-10.591,2.84-22.014,13.856-25.514
	C1320.488,517.469,1332.146,523.217,1335.51,533.807z M1267.892,457.483c0,18.495,11.375,33.462,25.432,33.462
	c29.438-7.918,51.986-14.065,58.466-16.031c23.911-7.257,87.359-9.029,87.359-9.029c104.971-6.112,274.789-4.228,274.789-4.228
	l69.224,3.544c42.571,8.49,28.722,43.521,17.542,62.568h-0.002c-1.129,1.925-2.227,3.68-3.239,5.235l-9.837,15.89v-0.003
	c-29.545,49.544-144.896,192.374-170.356,224.716c-27.171,34.507-151.983,166.773-151.983,166.773
	c-9.337,7.055-19.71,7.624-27.723,8.126c-8.012,0.504-44.698,3.989-68.96,6.932c-24.261,2.938-59.377,11.375-59.377,11.375
	c-19.521,1.773-7.396-21.146-7.396-21.146c3.063-6.419,43.048-54.19,67.039-81.562c23.99-27.371,145.582-149.42,156.311-160.661
	c10.729-11.239-4.589-16.587-4.589-16.587c-5.214-1.407-25.262,9.254-25.262,9.254s-369.905,226.954-397.688,246.676
	c-27.779,19.723-92.498,60.371-92.498,60.371l-15.616,8.708c-32.084,19.047-91.873,8.761-120.572,6.303
	c-28.7-2.458-146.458-6.584-172.096-7.972c-25.64-1.387-162.346-0.856-162.346-0.856s-348.553,9.958-361.191,10.91
	c-12.636,0.951-31.085-15.32-31.085-15.32S17.038,888.426,4.364,877.471c-12.674-10.951,6.275-15.608,6.275-15.608l22.999-7.988
	c19.837-9.367,6.536-34.082,5.244-37.077c-1.291-2.994-9.577-19.429-9.577-19.429c-1.344-2.207-1.674-4.203-1.326-5.987v-0.001
	l0.002-0.005c0.21-1.075,0.669-2.074,1.297-2.997C68.945,696.002,161.865,652.9,229.814,633.202l0.001,0.002
	c1.884-1.415,4.651-3.783,3.003-6.269c-1.19-1.791-3.674-2.625-5.399-3.771c-9.299-6.186-15.463-15.341-15.463-26.866
	c0-17.221,13.96-31.181,31.182-31.181c5.899,0,11.545,1.847,16.5,4.993c4.37,2.774,9.331,4.248,14.391,2.43
	c8.835-3.046,95.217-25.916,195.779-74.547c100.562-48.629,201.402-96.836,299.424-155.832
	c98.023-58.996,183.021-113.931,340.415-221.187L1283.874,1.769c0,0,13.087-8.518,9.51,11.84c0,0-32.089,174.139-27.693,346.166
	l1.788,91.386c0,0,0.515,2.809,0.417,6.324L1267.892,457.483z"/>
</svg>
