<?xml version="1.0" encoding="utf-8"?>
<!-- Generator: Adobe Illustrator 16.0.0, SVG Export Plug-In . SVG Version: 6.00 Build 0)  -->
<!DOCTYPE svg PUBLIC "-//W3C//DTD SVG 1.1//EN" "http://www.w3.org/Graphics/SVG/1.1/DTD/svg11.dtd">
<svg version="1.1" id="Layer_1" xmlns="http://www.w3.org/2000/svg" xmlns:xlink="http://www.w3.org/1999/xlink" x="0px" y="0px"
	 width="593.779px" height="972.207px" viewBox="0 0 593.779 972.207" enable-background="new 0 0 593.779 972.207"
	 xml:space="preserve">
<path d="M589.988,307.184c-10.685-12.785-128.937-144.94-128.937-144.94s-11.543-14.823-43.493-28.479
	C385.613,120.108,119.551,2.559,119.551,2.559s-9.958-7.087-20.876,2.327C87.755,14.3,61.143,34.904,44.044,80.317
	c0,0-12.921,35.963-13.362,75.306c-0.445,39.341,1.122,93.689,1.122,93.689s-0.466,10.284,7.244,13.754
	c7.715,3.47,50.979,20.035,59.17,42.279c8.189,22.245,34.065,84.104,34.065,84.104s7.712,14.277-0.522,43.7
	c-8.236,29.422-51.07,180.583-61.096,228.53c-10.021,47.949-25.807,130.041-25.68,171.309l-0.103,29.35
	c0,0-0.198,15.457-5.719,25.713c-5.519,10.258-38.121,74.707-38.121,74.707s-5.394,14.215,8.327,7.775l290.806-116.295
	c0,0,26.687-12.467,3.416-40.836c0,0-20.599-17.488-9.423-41.66C305.34,747.564,427.03,489.601,427.03,489.601l22.81-47.821
	c0,0,9.298-21.221,30.185-36.043c20.885-14.823,105.36-74.75,105.36-74.75S600.673,319.968,589.988,307.184z M212.484,749.966
	c-12.487,30.736-47.285,45.645-77.705,33.279c-30.42-12.357-44.962-47.308-32.476-78.043c12.484-30.736,47.28-45.642,77.704-33.281
	C210.43,684.281,224.973,719.229,212.484,749.966z"/>
</svg>
