<?xml version="1.0" encoding="utf-8"?>
<!-- Generator: Adobe Illustrator 16.0.0, SVG Export Plug-In . SVG Version: 6.00 Build 0)  -->
<!DOCTYPE svg PUBLIC "-//W3C//DTD SVG 1.1//EN" "http://www.w3.org/Graphics/SVG/1.1/DTD/svg11.dtd">
<svg version="1.1" id="Layer_1" xmlns="http://www.w3.org/2000/svg" xmlns:xlink="http://www.w3.org/1999/xlink" x="0px" y="0px"
	 width="314.395px" height="905.465px" viewBox="0 0 314.395 905.465" enable-background="new 0 0 314.395 905.465"
	 xml:space="preserve">
<path fill="none" stroke="#000000" stroke-linejoin="round" stroke-miterlimit="10" d="M51.573,850.695
	c6.607,5.718,10.787,14.165,10.787,23.589c0,17.221-13.96,31.182-31.181,31.182S0,891.505,0,874.284
	c0-16.977,13.563-30.782,30.445-31.172c1.717-0.591,2.585-1.709,1.781-3.488h-0.003c-14.073-10.973-7.926-41.864-7.926-41.864
	s16.304-52.19,31.135-107.115c14.829-54.925,17.623-77.742,22.566-106.518c4.941-28.775,13.276-96.92,18.053-139.223
	c4.775-42.302,7.842-98.362,9.254-137.086c1.41-38.728,2.106-97.812,2.106-97.812s0.281-18.639,0.441-22.854
	c0.162-4.215-0.475-7.293,1.297-6.556c1.773,0.735,8.529,1.75,8.529,1.75c12.621,0.635,20.675-11.188,20.675-11.188
	c13.269-13.082,26.007-83.392,26.007-83.392c4.945-22.495,5.242-59.032,5.304-70.954c0.06-11.924,12.539-12.407,12.539-12.407
	C216.353,0.734,293.388,0.04,293.388,0.04c19.331-1.184,17.844,23.953,17.844,23.953s1.297,230.077,3.021,273.047
	c1.721,42.969-12.774,106.117-12.773,106.117c-12.188,60.354-60.04,132.317-60.04,132.317l-74.599,128.879
	c0,0-79.327,155.757-84.455,166.918c-5.128,11.163-20.529,15.447-20.529,15.447c-3.089,0.436-5.9,0.591-8.451,0.542h-0.001
	c-1.555,0.688-2.154,1.729-1.835,3.432L51.573,850.695z"/>
</svg>
