<?xml version="1.0" encoding="utf-8"?>
<!-- Generator: Adobe Illustrator 16.0.0, SVG Export Plug-In . SVG Version: 6.00 Build 0)  -->
<!DOCTYPE svg PUBLIC "-//W3C//DTD SVG 1.1//EN" "http://www.w3.org/Graphics/SVG/1.1/DTD/svg11.dtd">
<svg version="1.1" id="Layer_1" xmlns="http://www.w3.org/2000/svg" xmlns:xlink="http://www.w3.org/1999/xlink" x="0px" y="0px"
	 width="376.969px" height="1135.882px" viewBox="0 0 376.969 1135.882" enable-background="new 0 0 376.969 1135.882"
	 xml:space="preserve">
<path d="M370.767,1113.746c-11.597-20.891-28.828-71.896-40.521-104.725c-11.692-32.824-29.318-95.197-46.056-180.047
	c-16.729-84.846-27.207-222.969-30.567-336.794c-3.364-113.828,3.993-238.619,3.993-238.619s8.342-148.239,8.781-160.705
	c0.44-12.467-1.558-14.015-1.558-14.015c-14.315-17.177-21.04,3.938-21.04,3.938s-8.968,22.814-21.146,52.424
	c-12.18,29.607-33.021,57.421-33.021,57.421c-50.687,57.737-80.354-6.099-80.354-6.099c-34.446-69.987-30.859-153.5-30.859-153.5
	s-0.859-13.717-1.706-25.088C75.864-3.434,64.904,0.753,64.904,0.753c-8.107,3.439-9.92,16.588-9.92,16.588
	s-16.192,84.59-23.041,125.584c-6.849,40.994-10.267,77.479-20.354,174.178C1.497,413.805,2.094,492.257,0.15,522.941
	c-1.942,30.682,15.832,70.906,15.832,70.906s53.072,121.59,68.48,153.725c15.408,32.131,62.896,119.318,86.99,161.354
	c24.094,42.035,70.532,100.812,70.532,100.812c23.787,33.553,63.896,72.164,88.494,96.383
	c24.604,24.221,38.986,29.213,38.986,29.213c11.07,3.268,6.614-9.137,6.614-9.137L370.767,1113.746z"/>
</svg>
