<?xml version="1.0" encoding="utf-8"?>
<!-- Generator: Adobe Illustrator 16.0.0, SVG Export Plug-In . SVG Version: 6.00 Build 0)  -->
<!DOCTYPE svg PUBLIC "-//W3C//DTD SVG 1.1//EN" "http://www.w3.org/Graphics/SVG/1.1/DTD/svg11.dtd">
<svg version="1.1" id="Layer_1" xmlns="http://www.w3.org/2000/svg" xmlns:xlink="http://www.w3.org/1999/xlink" x="0px" y="0px"
	 width="2024.555px" height="847.602px" viewBox="0 0 2024.555 847.602" enable-background="new 0 0 2024.555 847.602"
	 xml:space="preserve">
<path fill="none" stroke="#000001" stroke-linejoin="round" stroke-miterlimit="10" d="M778.807,603.41l-142.021,16.105
	l7.531-66.619L379.316,805.635l-41.521-20.572l-123.237,14.922l-36.11,47.617C153.046,651.935,120.732,461.94,72.312,285.154
	c-4.476-16.34-19.521-34.922-37.105-37.843c-6.029-1.001-13.17,0.275-18.851-2.521c-6.073-2.989-11.347-8.955-13.879-15.171
	C0.959,225.891,0,221.337,0,217.299c0-17.221,13.96-31.181,31.181-31.181c8.068,0,15.649,3.175,21.542,8.628
	c8.715,8.062,12.202,20.11,21.871,27.364c10.639,7.981,24.759,12.781,38.055,12.853c0.002,0,480.735,10.43,480.735,10.43
	c142.887,24.904,283.738,66.107,384.423,87.084c0.908,0.147,1.812,0.323,2.719,0.478c3.814,0.648,7.615,1.399,11.433,2.019
	c3.765,0.611,7.84,0.244,11.114-1.846l27.028-35.715l555.453-280.395L1614.658,0l397.357,416.302l-13.349,57.843l25.888,34.803
	L797.831,604.344c-1.976-2.818-5.875-2.03-8.782-1.814c-2.799,0.21-5.597,0.479-8.394,0.724
	C780.04,603.307,779.423,603.354,778.807,603.41z"/>
</svg>
