<?xml version="1.0" encoding="utf-8"?>
<!-- Generator: Adobe Illustrator 16.0.0, SVG Export Plug-In . SVG Version: 6.00 Build 0)  -->
<!DOCTYPE svg PUBLIC "-//W3C//DTD SVG 1.1//EN" "http://www.w3.org/Graphics/SVG/1.1/DTD/svg11.dtd">
<svg version="1.1" id="Layer_1" xmlns="http://www.w3.org/2000/svg" xmlns:xlink="http://www.w3.org/1999/xlink" x="0px" y="0px"
	 width="1315.684px" height="392.332px" viewBox="0 0 1315.684 392.332" enable-background="new 0 0 1315.684 392.332"
	 xml:space="preserve">
<path fill="none" stroke="#000000" stroke-linejoin="round" stroke-miterlimit="10" d="M1241.109,309.066
	c-322.263-80.84-645.942-178.135-964.345-281.184L203.31,0L24.39,36.986c27.915,8.263,46.133,35.336,41.383,63.449
	C60.705,130.418,31.354,150.704,0,146.212l303.515,246.12c298.132-30.686,592.954-41.781,885.282-38.117
	c18.767-0.044,38.88-8.055,52.459-22.811c5.232-2.848,11.493-7.84,17.398-3.678v0.004c5.605,8.285,15.09,13.731,25.848,13.731
	c17.221,0,31.18-13.96,31.18-31.181c0-17.223-13.959-31.182-31.18-31.182c-15.64,0-28.591,11.514-30.837,26.527
	c-2.111,4.807-8.43,3.439-12.554,3.439H1241.109z"/>
</svg>
