<?xml version="1.0" encoding="utf-8"?>
<!-- Generator: Adobe Illustrator 16.0.0, SVG Export Plug-In . SVG Version: 6.00 Build 0)  -->
<!DOCTYPE svg PUBLIC "-//W3C//DTD SVG 1.1//EN" "http://www.w3.org/Graphics/SVG/1.1/DTD/svg11.dtd">
<svg version="1.1" id="Layer_1" xmlns="http://www.w3.org/2000/svg" xmlns:xlink="http://www.w3.org/1999/xlink" x="0px" y="0px"
	 width="1316.153px" height="382.832px" viewBox="0 0 1316.153 382.832" enable-background="new 0 0 1316.153 382.832"
	 xml:space="preserve">
<path fill="none" stroke="#000000" stroke-linejoin="round" stroke-miterlimit="10" d="M1250.725,92.716
	c-4.541-28.147,13.879-55.084,41.854-63.138L1154.696,0l5.148,5.121l4.578,6.781l6.084,10.225l5.775,11.821l4.145,11.123
	l2.096,7.641l1.879,11.054l0.453,9.36l-0.98,11.268l-1.947,8.428l-3.086,8.299l-3.037,6.762l-5.85,7.767l-4.275,4.872l-4.709,4.477
	l-4.928,3.932l-6.533,4.289l-9.463,4.748l-8.424,3.025l-13.68,2.857l-10.273,0.585l-9.186-0.618l-10.311-2.078l-8.957-3.166
	l-8.957-4.715l-9.006-6.811l-6.389-6.629l-7.348-10.604l-4.365-9.014l-1.908-5.107l-2.295-7.93l-1.861-9.569l-0.709-9.917
	l-0.645-7.958l0.438-13.285l1.025-10.143l1.271-8.543l2.016-9.733l0.008-0.102l-0.225,0.082
	C717.086,120.532,388.523,216.535,61.63,295.537c10.239,27.02,38.437,42.32,64.208,42.574
	c292.35-1.484,587.081,11.811,884.975,44.721l305.342-243.85C1284.77,143.24,1255.567,122.737,1250.725,92.716z"/>
</svg>
