<?xml version="1.0" encoding="utf-8"?>
<!-- Generator: Adobe Illustrator 16.0.0, SVG Export Plug-In . SVG Version: 6.00 Build 0)  -->
<!DOCTYPE svg PUBLIC "-//W3C//DTD SVG 1.1//EN" "http://www.w3.org/Graphics/SVG/1.1/DTD/svg11.dtd">
<svg version="1.1" id="Layer_1" xmlns="http://www.w3.org/2000/svg" xmlns:xlink="http://www.w3.org/1999/xlink" x="0px" y="0px"
	 width="957.639px" height="1443.914px" viewBox="0 0 957.639 1443.914" enable-background="new 0 0 957.639 1443.914"
	 xml:space="preserve">
<path fill="none" stroke="#000000" stroke-linejoin="round" stroke-miterlimit="10" d="M957.639,159.053
	c-33.721,254.171-73.26,509.487-123.17,766.839c-24.854,101.062-10.635,231.16-16,391.812l-99.981,124.1l-85.617-284.816
	c0.854-36.35,7.805-74.391,20.852-114.116l293.604-882.95L957.639,159.053z M481.344,1213.445v-0.152l12.896-0.986
	c45.255-72.932,93.198-165.442,126.211-250.563c85.767-221.178,143.472-461.84,213.397-696.758L850.891,5.837L840.097,0
	C735.95,153.053,623.268,286.372,480.347,349.751C337.426,286.372,224.744,153.053,120.595,0l-10.794,5.836l17.043,259.146
	c69.931,234.917,127.635,475.581,213.4,696.758c33.01,85.121,80.958,177.637,126.213,250.565l12.891,0.984l0.001,0.152l0.995-0.076
	L481.344,1213.445z M0,161.166c33.72,254.172,73.259,509.487,123.169,766.839c24.857,101.062,10.634,231.16,15.999,391.808
	l99.986,124.104l85.616-284.818c-0.854-36.348-7.806-74.387-20.851-114.114L10.318,162.027L0,161.166z"/>
</svg>
