<?xml version="1.0" encoding="utf-8"?>
<!-- Generator: Adobe Illustrator 16.0.0, SVG Export Plug-In . SVG Version: 6.00 Build 0)  -->
<!DOCTYPE svg PUBLIC "-//W3C//DTD SVG 1.1//EN" "http://www.w3.org/Graphics/SVG/1.1/DTD/svg11.dtd">
<svg version="1.1" id="Layer_1" xmlns="http://www.w3.org/2000/svg" xmlns:xlink="http://www.w3.org/1999/xlink" x="0px" y="0px"
	 width="957.639px" height="1443.914px" viewBox="0 0 957.639 1443.914" enable-background="new 0 0 957.639 1443.914"
	 xml:space="preserve">
<path d="M957.639,159.053c-33.721,254.172-73.26,509.487-123.17,766.839c-24.857,101.062-10.635,231.16-16,391.811l-99.985,124.1
	l-85.617-284.817c0.854-36.349,7.808-74.39,20.854-114.116l293.6-882.95L957.639,159.053z M481.344,1213.445v-0.152l12.892-0.986
	c45.255-72.932,93.202-165.443,126.211-250.564c85.77-221.178,143.475-461.84,213.401-696.758L850.891,5.837L840.097,0
	c-104.147,153.053-216.829,286.372-359.75,349.751C337.426,286.372,224.744,153.053,120.595,0l-10.794,5.836l17.043,259.146
	c69.931,234.917,127.635,475.581,213.397,696.758c33.013,85.121,80.958,177.637,126.213,250.566l12.894,0.984l0.001,0.152
	l0.995-0.076L481.344,1213.445z M0,161.166c33.72,254.172,73.259,509.487,123.169,766.839
	c24.854,101.062,10.634,231.16,15.999,391.808l99.983,124.103l85.616-284.818c-0.854-36.348-7.806-74.387-20.852-114.115
	L10.318,162.027L0,161.166z"/>
</svg>
