<?xml version="1.0" encoding="utf-8"?>
<!-- Generator: Adobe Illustrator 16.0.0, SVG Export Plug-In . SVG Version: 6.00 Build 0)  -->
<!DOCTYPE svg PUBLIC "-//W3C//DTD SVG 1.1//EN" "http://www.w3.org/Graphics/SVG/1.1/DTD/svg11.dtd">
<svg version="1.1" id="Layer_1" xmlns="http://www.w3.org/2000/svg" xmlns:xlink="http://www.w3.org/1999/xlink" x="0px" y="0px"
	 width="957.639px" height="1443.914px" viewBox="0 0 957.639 1443.914" enable-background="new 0 0 957.639 1443.914"
	 xml:space="preserve">
<path fill="none" stroke="#000000" stroke-linejoin="round" stroke-miterlimit="10" d="M632.87,1156.986
	c0.854-36.35,7.805-74.391,20.852-114.116l293.604-882.95"/>
<path fill="none" stroke="#000000" stroke-linejoin="round" stroke-miterlimit="10" d="M466.457,1212.306l12.891,0.984l0.001,0.152
	l0.995-0.076l1,0.079v-0.152l12.896-0.986"/>
<path fill="none" stroke="#000000" stroke-linejoin="round" stroke-miterlimit="10" d="M324.77,1159.098
	c-0.854-36.348-7.806-74.387-20.851-114.114L10.318,162.027"/>
<path fill="none" stroke="#000001" stroke-linejoin="round" stroke-miterlimit="10" d="M432.334,1154.443
	c-34.142-60.798-67.322-128.832-92.09-192.703c-85.765-221.178-143.469-461.841-213.4-696.758l-7.466-113.528"/>
<path fill="none" stroke="#000001" stroke-linejoin="round" stroke-miterlimit="10" d="M841.49,148.769l-7.643,116.216
	C763.922,499.903,706.217,740.565,620.45,961.743c-24.52,63.222-57.276,130.521-91.05,190.846"/>
</svg>
