<?xml version="1.0" encoding="utf-8"?>
<!-- Generator: Adobe Illustrator 16.0.0, SVG Export Plug-In . SVG Version: 6.00 Build 0)  -->
<!DOCTYPE svg PUBLIC "-//W3C//DTD SVG 1.1//EN" "http://www.w3.org/Graphics/SVG/1.1/DTD/svg11.dtd">
<svg version="1.1" id="Layer_1" xmlns="http://www.w3.org/2000/svg" xmlns:xlink="http://www.w3.org/1999/xlink" x="0px" y="0px"
	 width="1838.628px" height="787.922px" viewBox="0 0 1838.628 787.922" enable-background="new 0 0 1838.628 787.922"
	 xml:space="preserve">
<path fill="none" stroke="#000001" stroke-linejoin="round" stroke-miterlimit="10" d="M1041.077,319.108
	c4.772-2.424,28.497-8.027,139.874-34.027c157.438-36.742,223.311-49.482,264.898-51.215c77.309-3.228,388.398-3.823,392.6-0.758
	c1.139,0.861-3.264,21.595-9.812,46.101c-30.895,115.707-44.895,193.16-65.768,363.46
	c-17.607,143.797-17.547,143.443-23.439,145.113c-2.689,0.789-37.107-1.845-76.469-5.823c-39.939-4.029-74.607-9.438-78.443-12.213
	c-3.771-2.73-27.814-29.242-53.367-58.916c-61.145-70.965-126.887-140.658-160.238-169.891
	c-32.652-28.597-46.094-33.729-137.352-52.404c-52.461-10.736-74.977-13.54-91.02-23.634c-8.073-3.265-16.953-2.732-25.483-2.718
	c-0.91,0.002-1.821,0.017-2.731,0.006c-8.354,0.369-81.636-4.662-521.572-33.823c-325.469-21.587-449.718-30.253-496.207-35.631
	c-7.824-0.905-17.256,0.479-24.867,2.27c-4.134,0.973-8.914,2.89-12.626,5.638c-3.89,2.88-6.694,6.994-10.748,9.677
	c-5.069,3.354-11.046,5.146-17.125,5.146c-17.222,0-31.182-13.961-31.182-31.182c0-17.222,13.96-31.182,31.182-31.183
	c7.464,0,13.218,4.127,19.551,7.184c1.558,0.751,3.15,1.438,4.812,1.983c10.274,3.368,21.209-0.225,29.756-6.203l151.202-162.383
	C332.311,90.814,413.659,4.232,417.322,1.266c6.059-4.896,19.729,1.594,149.024,70.822
	c261.281,139.873,445.907,240.955,451.542,247.206c0.332,0.365,0.882,1.065,1.626,2.063c3.076,2.538,7.26,2.271,10.859,1.197
	c2.697-0.804,5.349-1.75,8.025-2.617c0.887-0.288,1.805-0.501,2.679-0.828L1041.077,319.108z"/>
</svg>
