<?xml version="1.0" encoding="utf-8"?>
<!-- Generator: Adobe Illustrator 16.0.0, SVG Export Plug-In . SVG Version: 6.00 Build 0)  -->
<!DOCTYPE svg PUBLIC "-//W3C//DTD SVG 1.1//EN" "http://www.w3.org/Graphics/SVG/1.1/DTD/svg11.dtd">
<svg version="1.1" id="Layer_1" xmlns="http://www.w3.org/2000/svg" xmlns:xlink="http://www.w3.org/1999/xlink" x="0px" y="0px"
	 width="1621.343px" height="1413.277px" viewBox="0 0 1621.343 1413.277" enable-background="new 0 0 1621.343 1413.277"
	 xml:space="preserve">
<path fill="none" stroke="#000001" stroke-linejoin="round" stroke-miterlimit="10" d="M722.299,1349.642
	c-7.025-10.855-8.3-24.18-3.748-36.226c1.424-2.091,2.94-4.343,4.555-6.767c45.355,0,82.057,46.733,82.057,104.486
	c-0.283,1.042-0.363,1.682-0.218,1.866c3.682,4.531,294.032-48.674,421.846-77.33c157.082-35.207,228.088-54.939,246.871-68.605
	c9.838-7.141,35.166-39.6,77.734-99.646c34.744-48.984,64.27-92.158,65.646-95.975c1.348-3.793,3.283-12.551,4.24-19.415
	c1.949-13.98-44.361-334.398-49.201-340.396c-1.967-2.435-111.1-15.085-297.26-34.471
	c-249.856-26.047-295.562-31.363-309.086-23.172c-66.345,0-120.029-38.842-120.029-86.844l0.002,0.001
	c0.58-2.294,0.115-3.656-1.246-4.548c-2.16-1.402-128.389-72.048-280.566-157.002l-276.66-154.426l-2.097-26.268
	c-1.145-14.463-6.231-41.008-11.272-59.03c-11.882-42.4-37.523-102.558-46.284-108.583C219.333,51.611,60.237,0.907,47.988,0.043
	C40.494-0.504,36.849,3.78,19.699,33.512L0,67.564L9.664,173.93C22.592,316.031,50.649,586.39,58.886,648.005
	C67.21,710.4,73.029,732.952,84.683,748.13c14.564,18.984,243.137,255.908,304.052,315.17
	c61.487,59.824,139.983,132.808,213.332,198.291c29.856,26.679,50.832,44.985,65.496,57.009c6.458,10.744,8.375,24.167,3.311,35.838
	l-0.002-0.001c-2.448,4.451-3.841,9.565-3.84,15.005c0,17.221,13.96,31.181,31.181,31.181s31.181-13.96,31.181-31.181
	c0-7.518-2.661-14.413-7.09-19.798L722.299,1349.642z"/>
</svg>
