<?xml version="1.0" encoding="utf-8"?>
<!-- Generator: Adobe Illustrator 16.0.0, SVG Export Plug-In . SVG Version: 6.00 Build 0)  -->
<!DOCTYPE svg PUBLIC "-//W3C//DTD SVG 1.1//EN" "http://www.w3.org/Graphics/SVG/1.1/DTD/svg11.dtd">
<svg version="1.1" id="Layer_1" xmlns="http://www.w3.org/2000/svg" xmlns:xlink="http://www.w3.org/1999/xlink" x="0px" y="0px"
	 width="681.429px" height="797.322px" viewBox="0 0 681.429 797.322" enable-background="new 0 0 681.429 797.322"
	 xml:space="preserve">
<path fill="none" stroke="#000000" stroke-linejoin="round" stroke-miterlimit="10" d="M370.466,797.283l-3.646,0.039h-0.008l0,0
	c-28.431,0-54.652-7.021-78.665-21.061c-21.449-12.539-40.852-30.504-58.209-53.889c-15.254-20.551-28.609-44.832-40.063-72.838
	c-9.932-24.285-18.042-50.336-24.329-78.156c-11.449-50.65-23.042-103.754-34.781-159.293c-3.309-15.657-8.154-36.771-14.535-63.341
	c-7.129-29.687-17.19-79.428-30.184-149.226c-5.542-29.769-10.245-54.649-14.11-74.638C63.833,82.98,59.782,60.674,59.782,57.967
	c0-0.29,0.041-0.543,0.124-0.761l0,0l0,0l0.326-0.866l0.22-0.222l0,0c0.283-0.282,0.754-0.428,1.413-0.438
	c0.278-0.004,0.688-0.006,1.228-0.006l0,0H63.1l31.434,0.311l0,0c8.715,0.106,29.271,0.16,61.67,0.16l0,0l214.202-0.175
	l276.498,0.112l33.605-0.8l0.439,0.436l0,0c0.316,0.319,0.479,0.787,0.479,1.403c0,3.188-4.51,28.092-13.521,74.71
	c-2.943,15.224-9.492,50.039-19.646,104.442c-7.711,41.314-17.25,86.236-28.617,134.763l0,0l-17.521,80.705l0,0
	c-8.717,40.258-15.549,71.387-20.5,93.387c-5.15,22.896-9.344,40.724-12.58,53.48c-2.994,11.811-5.795,21.717-8.4,29.719
	c-1.721,5.281-4.363,12.611-7.936,21.994c-10.197,26.801-21.42,49.562-33.67,68.291c-12.203,18.658-25.771,33.832-40.703,45.521
	c-14.635,11.461-31.012,19.904-49.127,25.336C411.826,794.68,392.248,797.283,370.466,797.283L370.466,797.283"/>
</svg>
