<?xml version="1.0" encoding="utf-8"?>
<!-- Generator: Adobe Illustrator 16.0.0, SVG Export Plug-In . SVG Version: 6.00 Build 0)  -->
<!DOCTYPE svg PUBLIC "-//W3C//DTD SVG 1.1//EN" "http://www.w3.org/Graphics/SVG/1.1/DTD/svg11.dtd">
<svg version="1.1" id="Layer_1" xmlns="http://www.w3.org/2000/svg" xmlns:xlink="http://www.w3.org/1999/xlink" x="0px" y="0px"
	 width="1550.736px" height="1074.465px" viewBox="0 0 1550.736 1074.465" enable-background="new 0 0 1550.736 1074.465"
	 xml:space="preserve">
<path fill="none" stroke="#000000" stroke-linejoin="round" stroke-miterlimit="10" d="M1541.332,201.14
	c-5.889-6.142-25.791-21.267-59.705-45.374c-21.316-15.155-44.225-27.949-65.534-43.117c-5.293-3.768-9.802-6.523-13.593-8.285
	l-28.192-11.032l-149.437-33.08c-16.289-3.606-37.356-8.271-48.799-11.121c-3.703-0.922-50.268-11.487-139.727-31.552
	c-47.56-10.737-73.545-16.323-77.81-16.792c-6.549-0.815-11.699-0.986-15.367-0.564l-15.467,4.901
	c-0.146,0.047-1.322,1.497-1.974,2.254c-2.723,3.181-4.983,33.707-6.704,91.526c-2.604,87.601-5.822,195.804-8.859,262.767
	c-0.877,19.297-1.758,30.281-2.522,32.763l-1.64,5.082l-2.729,10.375c-1.396,5.291-7.135,14.324-17.185,26.957
	c-13.312,16.736-25.771,34.127-38.897,51.004c-13.978,17.966-20.553,27.977-19.766,29.876c0.752,1.745,1.905,2.775,3.428,2.935
	c2.596,0.267,31.969-12.256,47.744-18.896c9.453-3.979,23.377-9.838,28.399-11.844c71.769-28.641,109.771-43.881,114.084-45.7
	c23.601-9.958,47.358-19.525,71.312-28.604c59.049-22.376,117.518-46.266,175.131-72.115c26.897-12.07,63.385-28.059,109.541-48.019
	c39.891-17.251,79.168-35.904,119.244-52.724l41.094-18.105l12.357-8.2c0.364-0.279,0.694-1.606,0.977-3.912
	C1547.888,208.487,1544.828,204.683,1541.332,201.14z M892.291,416.344c1.953-5.76,2.959-9.592,3.104-11.553
	c1.516-20.646,2.848-41.305,4.424-61.945c5.197-68.044,8.176-109.36,8.973-123.791c6.939-127.565,10.238-194.706,9.953-201.337
	c-0.197-5.061-0.914-10.091-2.033-14.99l-1.967-0.44c-3.791,3.43-6.604,7.081-8.551,10.85
	c-11.381,21.985-48.99,72.776-75.098,108.027c-8.248,11.14-30.011,38.806-65.27,82.929c-3.98,4.937-16.447,20.739-37.38,47.337
	c-40.485,51.444-82.848,101.384-123.402,152.771c-12.669,16.052-22.104,27.885-28.296,35.427l-37.753,47.032
	c-23.979,29.417-48.811,58.146-72.108,88.11c-5.581,7.177-11.819,13.838-17.082,21.263c-16.852,23.782-37.223,44.765-55.521,67.398
	l-5,6.188c-0.61,0.749-0.277,2.226,1.103,4.305c7.88,0.067,13.667-0.407,17.464-1.55l34.236-9.896l94.296-28.028
	c10.686-2.938,83.857-24.832,125.752-37.367c31.315-9.368,52.103-15.857,62.354-19.465c5.386-1.896,12.677-4.461,16.384-4.965
	c4.718-0.645,34.146-11.468,42.8-17.496c4.191-2.898,7.875-6.501,11.106-10.725c8.773-11.459,19.398-24.448,29.28-36.53
	c19.771-24.185,38.768-48.987,58.448-73.239C886.91,429.242,890.052,422.946,892.291,416.344z M95.239,829.241l-41.627,192.671
	l10.223,0.455l11.567-0.369l11.425-1.158l14.587-2.404l50.407-12.069l47.446-12.188l10.545-3.288l11.893-4.771l11.468-6.325
	l15.295-10.905L798.455,565.15l-240.757,78.009l-179.503,44.969l-3.66-21.354l-45.745-3.945L185.607,848.068
	c0,0-14.821,24.471-38.089,12.298C124.25,848.186,95.239,829.241,95.239,829.241z"/>
</svg>
