<?xml version="1.0" encoding="utf-8"?>
<!-- Generator: Adobe Illustrator 16.0.0, SVG Export Plug-In . SVG Version: 6.00 Build 0)  -->
<!DOCTYPE svg PUBLIC "-//W3C//DTD SVG 1.1//EN" "http://www.w3.org/Graphics/SVG/1.1/DTD/svg11.dtd">
<svg version="1.1" id="Layer_1" xmlns="http://www.w3.org/2000/svg" xmlns:xlink="http://www.w3.org/1999/xlink" x="0px" y="0px"
	 width="1550.736px" height="1074.465px" viewBox="0 0 1550.736 1074.465" enable-background="new 0 0 1550.736 1074.465"
	 xml:space="preserve">
<path fill="none" stroke="#000001" stroke-linejoin="round" stroke-miterlimit="10" d="M35.487,1012.402
	c10.233,0.237,18.744-6.151,23.401-14.915c0,0,36.35-168.246,36.35-168.246s29.011,18.944,52.279,31.125
	c23.268,12.173,38.089-12.298,38.089-12.298L328.79,662.829l45.745,3.945c7.409,0.49,13.046,0.271,19.749-3.342
	c18.298-22.634,38.669-43.616,55.521-67.398c5.263-7.425,11.501-14.086,17.082-21.263c23.298-29.965,48.129-58.693,72.108-88.11
	l37.753-47.032c6.192-7.542,15.627-19.375,28.296-35.427c40.555-51.387,82.917-101.327,123.402-152.771
	c20.933-26.598,33.399-42.4,37.38-47.337c35.259-44.123,57.021-71.789,65.27-82.929c26.107-35.251,63.717-86.042,75.098-108.027
	c1.947-3.769,4.76-7.42,8.551-10.85l1.967,0.44l10.991,2.396l15.467-4.901c3.668-0.422,8.818-0.251,15.367,0.564
	c4.265,0.469,30.25,6.055,77.81,16.792c89.459,20.065,136.023,30.63,139.727,31.552c11.442,2.85,32.51,7.515,48.799,11.121
	l149.437,33.08l28.192,11.032c3.791,1.762,8.3,4.517,13.593,8.285c21.31,15.168,44.218,27.962,65.534,43.117
	c33.914,24.107,53.816,39.232,59.705,45.374c3.496,3.543,6.556,7.347,9.404,11.403c-0.282,2.306-0.612,3.633-0.977,3.912
	l-12.357,8.2l-41.094,18.105c-40.076,16.82-79.354,35.473-119.244,52.724c-46.156,19.96-82.644,35.949-109.541,48.019
	c-57.613,25.849-116.082,49.739-175.131,72.115c-23.953,9.078-47.711,18.646-71.312,28.604c-4.313,1.819-42.315,17.06-114.084,45.7
	c-5.022,2.006-18.946,7.865-28.399,11.844c-11.555,4.864-30.405,12.883-40.685,16.721c-8.46,5.499-13.558,13.029-19.731,20.754
	c-5.547,6.941-10.862,14.12-16.201,21.224c-1.171,1.559-2.255,3.206-3.525,4.687L248.468,968.888l-15.295,10.905l-11.468,6.325
	l-11.893,4.771l-10.545,3.288l-47.446,12.188l-50.407,12.069l-14.587,2.404l-3.602,0.365c-9.479,1.986-20.33,6.322-21.223,17.334
	l0.001,0.003c0.236,1.547,0.358,3.13,0.358,4.742c0,17.221-13.96,31.181-31.181,31.181c-17.221,0-31.181-13.96-31.181-31.181
	s13.96-31.181,31.181-31.181c1.461,0,2.899,0.101,4.307,0.295L35.487,1012.402z"/>
</svg>
