<?xml version="1.0" encoding="utf-8"?>
<!-- Generator: Adobe Illustrator 16.0.0, SVG Export Plug-In . SVG Version: 6.00 Build 0)  -->
<!DOCTYPE svg PUBLIC "-//W3C//DTD SVG 1.1//EN" "http://www.w3.org/Graphics/SVG/1.1/DTD/svg11.dtd">
<svg version="1.1" id="Layer_1" xmlns="http://www.w3.org/2000/svg" xmlns:xlink="http://www.w3.org/1999/xlink" x="0px" y="0px"
	 width="1968.889px" height="1027.293px" viewBox="0 0 1968.889 1027.293" enable-background="new 0 0 1968.889 1027.293"
	 xml:space="preserve">
<path fill="none" stroke="#000000" stroke-linejoin="round" stroke-miterlimit="10" d="M1433.097,422.005
	c-143.063,23.838-284.223,63.99-385.061,84.213l196.973,272.409l141.896,17.17l-7.033-66.674l263.106,254.705l41.675-20.26
	l123.123,15.834l35.754,47.891c29.479-214.555,67.239-422.213,125.358-612.911L1433.097,422.005z M442.659,186.234L413.683,169
	L13.23,582.328l12.918,57.938L0,674.875l1225.98,104.549l-229.978-308.66L442.659,186.234z M885.182,0.984
	C757.697-2.86,651.98,4.273,578.078,27.451L424,159.484l449.646,231.991l386.8-58.694l23.348-27.335
	C1161.955,187.614,1028.416,87.117,885.182,0.984z"/>
</svg>
