<?xml version="1.0" encoding="utf-8"?>
<!-- Generator: Adobe Illustrator 16.0.0, SVG Export Plug-In . SVG Version: 6.00 Build 0)  -->
<!DOCTYPE svg PUBLIC "-//W3C//DTD SVG 1.1//EN" "http://www.w3.org/Graphics/SVG/1.1/DTD/svg11.dtd">
<svg version="1.1" id="Layer_1" xmlns="http://www.w3.org/2000/svg" xmlns:xlink="http://www.w3.org/1999/xlink" x="0px" y="0px"
	 width="1494.121px" height="692.441px" viewBox="0 0 1494.121 692.441" enable-background="new 0 0 1494.121 692.441"
	 xml:space="preserve">
<path fill="none" stroke="#000000" stroke-linejoin="round" stroke-miterlimit="10" d="M1360.529,685.48l41.264-5.957l0.074,0.002
	l0.072,0.004c0.289-0.072,28.539-5.023,38.246-6.818c2.588-0.502,5.895-1.078,9.418-1.723c10.062-1.795,22.569-4.021,27.024-5.023
	c3.021-0.645,6.474-1.436,9.349-2.584c3.95-1.508,6.321-3.59,7.262-6.244c1.797-5.453,0.43-9.043-0.437-11.266
	c-0.067-0.146-0.145-0.359-0.217-0.576c-0.43-1.145-1.223-2.225-4.672-5.166c-1.797-1.508-4.242-3.445-7.188-5.742
	c-4.889-3.803-9.705-7.391-10.063-7.678c-0.072,0-0.072,0-0.072,0l-24.584-18.516l-0.069-0.072l-0.146-0.072
	c0,0-4.961-3.301-10.062-7.104c-8.7-6.242-10.711-8.472-11.145-9.043c-1.58-4.949-10.564-50.951-14.951-73.271
	c-2.732-13.994-4.1-20.74-4.387-21.813c-0.146-0.72-0.357-1.58-0.504-2.438c-0.646-3.229-1.51-7.248-3.521-10.406
	c-1.51-2.367-6.896-6.813-18.475-15.787c-2.947-2.297-6.256-4.809-6.83-5.452c-0.434-0.359-1.729-1.65-226.377-189.601
	c-1.295-1.076-2.877-1.579-4.746-1.579c-5.75,0-14.305,4.952-27.678,13.133l-0.285,0.145c-4.961,3.013-10.064,6.1-14.379,8.396
	c-4.24,2.225-6.541,3.014-7.766,3.302c0.071-1.22,0.502-3.517,1.94-7.751c1.65-4.807,4.168-10.691,6.613-16.36
	c2.729-6.315,5.463-12.847,7.188-18.085c1.009-3.014,1.513-5.381,1.728-7.319c0.287-3.229-0.504-5.597-2.301-7.104
	c-53.699-44.923-94.896-79.37-95.324-79.729l-0.072-0.072l-0.068-0.071l-79.075-59.349l-0.146-0.072l-0.071-0.071l-21.854-14.139
	l-0.072-0.072c-0.574-0.358-14.953-9.042-20.346-11.697l-0.068,0.001l-0.145-0.072c-0.791-0.287-1.582-0.503-2.373-0.503
	c-4.457,0-7.838,4.378-12.15,9.832c-0.502,0.646-1.078,1.292-1.582,1.938c-2.084,2.655-7.045,8.827-10.496,8.827
	c-0.067,0-0.145,0-0.145,0c-0.502-0.647-1.652-2.872-3.234-9.187c-1.223-5.095-2.229-10.979-3.092-15.716
	c-1.221-7.177-1.508-8.684-2.299-9.832l-0.217-0.359l-0.287-0.286c-4.172-4.164-8.625-7.896-9.562-8.612l-2.442-2.512l-0.07,0.001
	l-0.07-0.072l-15.17-14.065l-0.065-0.072v-0.072l-14.814-12.773h-0.07l-0.069-0.071l-9.633-7.751V13.21h-0.07l-8.627-6.604
	c-1.008-1.005-5.969-5.382-10.783-6.172C783.552,0.216,782.115,0,780.605,0c-1.798,0-3.521,0.287-5.962,0.999
	c-1.581,0.431-25.231,6.314-55.14,13.707c-34.576,8.54-77.64,19.162-113.08,28.06c-54.562,13.565-62.758,15.861-64.557,16.507
	c-6.541,1.866-10.926,3.732-12.363,7.392c-0.504,1.363-0.861,3.588,0.791,6.172c0.504,0.861,1.797,3.014,11.574,11.052
	c5.246,4.233,10.275,8.037,12.004,9.328c3.45,2.368,20.562,16.362,23.292,19.09c0.434,0.431,1.149,1.077,2.085,1.938
	c3.45,3.157,9.92,8.971,14.233,14.712c4.814,6.817,5.604,9.329,6.183,11.338c0.071,0.288,0.215,0.575,0.287,0.934
	c0.646,2.009,0.146,3.947-0.216,4.665l-0.218,0.143l-0.287,0.503c-2.52,3.875-16.394,15.644-22.787,20.524l-0.219,0.144
	l-0.146,0.144c-2.801,2.727-21.854,18.228-28.896,23.968l-39.181,31.647l-42.917,31.647l-0.07-0.001v0.072
	c-1.008,0.717-100.428,76.282-199.062,151.42c-57.939,44.202-104.31,79.586-137.664,105.202
	c-19.842,15.216-35.299,27.195-45.938,35.449c-18.043,13.994-18.546,14.644-19.05,15.285c-0.863,1.148-1.15,2.584-0.791,4.021
	c0.503,1.863,1.726,4.521,11.502,12.847c5.391,4.52,12.508,10.188,21.279,16.791c13.945,10.479,30.982,22.535,33.787,23.826
	c1.724,0.858,4.097,1.221,7.979,1.221c4.026,0,9.346-0.432,16.104-0.935c6.326-0.432,13.587-1.008,21.71-1.362
	c1.869-0.07,4.026-0.215,6.326-0.285c5.896-0.361,12.509-0.721,18.045-0.721c1.294,0,2.372,0.069,3.379,0.069
	c0.216,0,0.431,0,0.791,0c11.07,0,132.775-3.729,205.527-6.024c30.479-0.938,54.562-1.728,55.714-1.728l0.067,0.004
	c0.219,0,0.506,0,0.792,0c10.277,0,21.493,4.808,26.236,6.89c0.791,0.287,1.365,0.573,1.869,0.789
	c1.438,0.575,9.921,5.67,25.735,15.646c13.152,8.322,23.577,15.068,24.872,16.074c1.869,1.646,5.75,3.371,7.979,4.229
	c4.027,1.648,8.27,2.941,12.006,3.66c6.542,1.224,13.015,1.291,14.38,1.291c1.51,0.146,11.86,1.076,15.022,1.293
	c0.146,0,0.287,0,3.308,0c11.286,0,51.545-0.143,107.188-0.287c32.854-0.069,70.021-0.145,109.845-0.217
	c145.572-0.354,249.811-0.569,318.606-0.569c34.648,0,60.744,0.069,77.494,0.145h0.072h0.07c0.791,0,1.582,0,2.301,0
	c14.666,0,25.16,2.941,36.16,10.117c1.797,1.145,7.045,4.305,11.717,7.104c2.805,1.65,5.465,3.306,6.688,4.021
	c0.146,0.145,15.454,9.33,20.85,10.838c3.521,1.004,6.107,1.65,10.062,1.65c0.722,0,1.365,0,2.156-0.072
	c4.672-0.217,58.015-6.605,60.314-6.894L1360.529,685.48z"/>
</svg>
