<?xml version="1.0" encoding="utf-8"?>
<!-- Generator: Adobe Illustrator 16.0.0, SVG Export Plug-In . SVG Version: 6.00 Build 0)  -->
<!DOCTYPE svg PUBLIC "-//W3C//DTD SVG 1.1//EN" "http://www.w3.org/Graphics/SVG/1.1/DTD/svg11.dtd">
<svg version="1.1" id="Layer_1" xmlns="http://www.w3.org/2000/svg" xmlns:xlink="http://www.w3.org/1999/xlink" x="0px" y="0px"
	 width="1112.83px" height="900.086px" viewBox="0 0 1112.83 900.086" enable-background="new 0 0 1112.83 900.086"
	 xml:space="preserve">
<path d="M1112.696,169.252l-0.008,0.119c-0.314-1.896-1.239-4.216-3.515-6.578c-4.96-5.095-10.495-8.611-11.286-9.041
	c-10.931-5.096-6.829-3.661-17.757-8.253c-11.146-4.736-1.226-0.718-10.495-4.665c-9.062-3.948-8.125-3.517-10.856-4.521
	c-3.091-1.078-6.255-2.368-11.571-4.021c-4.528-1.436-1.364-0.574-7.838-2.729c-4.312-1.435-7.619-1.724-9.989-2.151
	c-3.235-0.646-4.39-0.573-8.271-0.573c-20.058,0.218-133.715,3.158-220.915,6.459c-55.929,2.152-100.931,4.379-103.519,6.244
	c-27.462,19.734-102.297,84.967-113.151,93.29c-4.889,4.092-7.764,6.245-13.44,8.397c-10.998,3.66-13.945,4.521-20.99,3.73
	c-6.186-0.287-13.156-2.151-16.463-3.73c-3.379-1.292-9.062-3.876-16.179-9.042c-8.695-6.457-33.645-26.192-40.474-33.658
	c-75.195-77.287-76.345-78.147-76.345-78.147s-1.226-0.646-19.558-19.521c-5.604-3.876-84.539-49.519-95.896-50.88
	c-6.76-0.574-12.008,2.009-16.534,1.649c-9.06,0.859-13.3-0.935-19.339-4.307c-8.123-4.233-17.827-25.046-23.003-28.706
	c-24.875-12.7-40.833-19.159-47.521-18.582c-7.907,1.075-90.579,39.899-90.579,39.899c-9.272,3.156-20.059,11.77-20.92,19.017
	C44.647,192.504,37.171,230.11,0.868,365.526c-3.521,13.276,4.386,24.398,10.711,23.18c4.527-0.79,73.542-17.151,93.312-23.107
	c11.646-3.229,15.96-4.307,23.938-6.603c5.75-1.651,9.921-1.796,13.44-2.656c2.73-0.216,10.279-1.222,12.005-0.432
	c3.668-0.502,11.434,5.671,16.896,13.994c19.269,30.931,244.062,521.07,252.833,524.518c1.438,2.223,7.045,6.242,12.725,5.598
	c6.11-0.646,13.442-5.096,15.098-5.957c8.41-5.237,106.973-79.872,137.45-100.321c5.396-4.092,7.768-4.812,8.627-9.979
	c2.157-7.248,1.079-2.438,5.683-21.889c9.345-33.943,12.864-57.051,22.645-89.346c27.246-89.99,47.016-157.734,56.792-168.068
	c14.521-13.994,117.396-83.39,215.162-151.778c70.231-49.229,132.49-92.789,140.469-98.745
	c19.195-14.279,13.302-9.544,19.195-14.279c17.972-16.075,10.494-8.828,17.972-16.075c19.269-21.243,14.161-14.426,19.269-21.243
	c5.029-5.597,7.837-8.54,10.425-12.701c2.66-4.02,3.954-6.312,5.176-10.264c1.029-2.089,1.531-4.48,1.778-6.419l-0.054,0.822
	c0,0,0.704-1.78,0.288-4.354C1112.697,169.321,1112.696,169.252,1112.696,169.252z M541.976,784.911
	c-1.869,0.215-3.667,0.354-5.464,0.354c-21.063,0-39.18-14.926-41.694-35.379c-0.145-1.578-0.289-3.156-0.289-4.733
	c0.072-20.238,15.96-37.896,37.602-40.55c1.795-0.213,3.664-0.356,5.461-0.356c20.991,0,39.104,14.928,41.624,35.381
	c0.216,1.578,0.289,3.156,0.289,4.736C579.501,764.598,563.542,782.254,541.976,784.911z M1037.499,224.873
	c-1.868,0.216-3.666,0.286-5.465,0.286c-21.062,0-39.181-14.854-41.692-35.307c-0.146-1.58-0.287-3.229-0.287-4.81
	c0.069-20.236,15.959-37.892,37.598-40.476c1.795-0.288,3.664-0.359,5.461-0.359c21.063,0,39.107,14.929,41.625,35.309
	c0.216,1.651,0.286,3.229,0.286,4.809C1075.024,204.563,1059.066,222.217,1037.499,224.873z"/>
</svg>
