<?xml version="1.0" encoding="utf-8"?>
<!-- Generator: Adobe Illustrator 16.0.0, SVG Export Plug-In . SVG Version: 6.00 Build 0)  -->
<!DOCTYPE svg PUBLIC "-//W3C//DTD SVG 1.1//EN" "http://www.w3.org/Graphics/SVG/1.1/DTD/svg11.dtd">
<svg version="1.1" id="Layer_1" xmlns="http://www.w3.org/2000/svg" xmlns:xlink="http://www.w3.org/1999/xlink" x="0px" y="0px"
	 width="1112.832px" height="900.084px" viewBox="0 0 1112.832 900.084" enable-background="new 0 0 1112.832 900.084"
	 xml:space="preserve">
<path fill="none" stroke="#000000" stroke-linejoin="round" stroke-miterlimit="10" d="M541.979,784.908
	c-1.869,0.216-3.668,0.356-5.465,0.356c-21.062,0-39.18-14.927-41.693-35.38c-0.146-1.578-0.289-3.156-0.289-4.734
	c0.072-20.237,15.96-37.894,37.6-40.549c1.795-0.213,3.664-0.356,5.461-0.356c20.99,0,39.105,14.927,41.624,35.381
	c0.216,1.578,0.289,3.156,0.289,4.735C579.503,764.597,563.543,782.252,541.979,784.908z M1037.5,224.871
	c-1.868,0.216-3.666,0.286-5.463,0.286c-21.063,0-39.181-14.854-41.694-35.307c-0.146-1.58-0.287-3.229-0.287-4.809
	c0.069-20.237,15.959-37.892,37.599-40.476c1.795-0.288,3.664-0.359,5.461-0.359c21.062,0,39.106,14.929,41.625,35.308
	c0.217,1.652,0.286,3.229,0.286,4.809C1075.026,204.561,1059.068,222.216,1037.5,224.871z M58.084,64.352
	c1.153-0.22,2.303-0.103,3.465,0.652c1.771,1.152,2.9,3.112,2.9,5.26C44.194,194.752,36.126,234.011,0.87,365.524
	c-3.522,13.275,4.386,24.397,10.711,23.18c4.528-0.79,73.542-17.151,93.312-23.107c11.646-3.229,15.96-4.307,23.938-6.603
	c5.75-1.65,9.921-1.796,13.441-2.655c2.731-0.216,10.28-1.222,12.005-0.432c3.668-0.502,11.433,5.671,16.896,13.994
	c19.268,30.931,244.062,521.069,252.832,524.517c1.438,2.224,7.045,6.243,12.726,5.598c6.109-0.646,13.441-5.096,15.098-5.957
	c8.41-5.237,106.971-79.873,137.45-100.322c5.394-4.092,7.766-4.811,8.627-9.978c2.157-7.248,1.079-2.438,5.681-21.889
	c9.345-33.944,12.866-57.052,22.646-89.346c27.245-89.991,47.016-157.735,56.792-168.068
	c14.521-13.994,117.396-83.39,215.161-151.779c70.233-49.229,132.49-92.789,140.47-98.745c19.194-14.279,13.301-9.544,19.194-14.279
	c17.973-16.075,10.494-8.828,17.973-16.075c19.267-21.243,14.161-14.426,19.267-21.243c5.031-5.597,7.837-8.54,10.425-12.701
	c2.66-4.02,3.954-6.314,5.177-10.264c1.028-2.089,1.53-4.481,1.777-6.419l-0.053,0.822c0,0,0.705-1.78,0.289-4.354
	c-0.002-0.1-0.003-0.168-0.003-0.168l-0.008,0.119c-0.315-1.897-1.239-4.216-3.516-6.578c-4.96-5.095-10.495-8.612-11.286-9.041
	c-10.928-5.096-6.829-3.661-17.757-8.253c-11.145-4.736-1.224-0.718-10.495-4.665c-9.06-3.948-8.125-3.517-10.855-4.521
	c-3.091-1.078-6.255-2.368-11.572-4.02c-4.529-1.436-1.365-0.574-7.837-2.729c-4.312-1.434-7.62-1.723-9.991-2.151
	c-3.234-0.646-4.388-0.573-8.27-0.573c-20.059,0.217-133.716,3.158-220.915,6.459c-55.93,2.152-100.932,4.379-103.52,6.244
	c-27.462,19.734-102.297,84.967-113.15,93.29c-4.89,4.092-7.765,6.245-13.442,8.397c-10.998,3.66-13.945,4.521-20.99,3.731
	c-6.184-0.287-13.155-2.152-16.463-3.731c-3.379-1.292-9.06-3.876-16.177-9.042c-8.697-6.457-33.646-26.192-40.474-33.658
	c-75.195-77.287-76.346-78.147-76.346-78.147s-1.224-0.646-19.556-19.521c-5.606-3.876-84.54-49.518-95.898-50.88
	c-6.759-0.574-12.007,2.009-16.534,1.65c-9.059,0.859-13.3-0.935-19.339-4.307c-8.123-4.233-17.827-25.046-23.003-28.706
	c-24.875-12.702-40.833-19.161-47.52-18.585c-7.907,1.075-90.579,39.899-90.579,39.899c-2.137,0.727-4.353,1.744-6.508,2.968
	c-3.968,0-7.178-2.639-7.178-5.9c0-17.221-13.96-31.181-31.181-31.181C25.12,5.819,11.16,19.779,11.16,37
	s13.96,31.181,31.181,31.181c3.086,0,6.165-0.456,9.118-1.355c1.403-0.427,2.776-0.957,4.104-1.581
	C56.412,64.847,57.249,64.511,58.084,64.352z"/>
</svg>
