<?xml version="1.0" encoding="utf-8"?>
<!-- Generator: Adobe Illustrator 16.0.0, SVG Export Plug-In . SVG Version: 6.00 Build 0)  -->
<!DOCTYPE svg PUBLIC "-//W3C//DTD SVG 1.1//EN" "http://www.w3.org/Graphics/SVG/1.1/DTD/svg11.dtd">
<svg version="1.1" id="Layer_1" xmlns="http://www.w3.org/2000/svg" xmlns:xlink="http://www.w3.org/1999/xlink" x="0px" y="0px"
	 width="1210.389px" height="383.393px" viewBox="0 0 1210.389 383.393" enable-background="new 0 0 1210.389 383.393"
	 xml:space="preserve">
<path fill="none" stroke="#000000" stroke-linejoin="round" stroke-miterlimit="10" d="M673.492,43.84l-1.023,0.555l-9.061,4.7
	l-0.146,0.069l-0.219,0.14L652.92,55.95l-0.074,0.068l-0.072,0.071l-9.92,7.24l-19.615-28.758l-0.902-1.351l-1.578-0.343
	L501.37,7.458l-0.858-0.247l-1.766,1.337l-24.553,18.363l-16.65-23.316l-1.111-1.646l-2.021,0.011l-51.035-1.23l-2.162-0.065
	l-1.202,1.868l-13.354,20.472L367.291,1.582L365.888,0l-2.024,0.304c-0.794,0.049-82.354,10.764-163.044,21.438
	c-47.4,6.214-85.249,11.188-112.461,14.881c-16.139,2.135-28.73,3.793-37.272,4.988c-4.631,0.591-8.179,1.141-10.566,1.433
	c-2.318,0.367-3.475,0.478-4.054,0.604c-4.849,0.655-10.376,2.462-15.201,5.023C14.612,52.2,9.223,57.088,5.617,62.84
	c-3.086,5.034-4.962,10.766-5.48,17.054c-0.534,6.872,0.5,14.527,3.25,22.75c0.722,2.811,2.215,6.521,4.552,11.14
	c0.893,1.784,1.719,3.352,2.271,4.317c0.549,1.117,0.897,1.645,1.033,1.939l138.964,229.726l0.069,0.149l0.14,0.148
	c0.349,0.522,9.412,12.899,14.761,18.197c3.098,3.028,13.223,10.528,16.353,12.238c3.913,2.175,9.018,2.772,12.621,2.888
	l0.071,0.001c3.893,0.121,16.364-2.492,19.047-3.068l16.524-2.771c-0.008,0.01-0.009,0.026-0.01,0.062l25.2-3.978l31.119-4.085
	l0.072,0.003l34.094-4.798l29.791-2.953l0.071,0.002l32.779-4.18l31.729-2.602l0.07,0.002l90.527-8.821l58.646-5.938l62.583-4.786
	l0.072,0.003l0.072,0.002l64.51-6.775l45.645-2.388l0.072,0.004l75.438-5.34l45.717-2.382l0.072,0.002l0.068,0.002l31.738-2.894
	l0.143,0.004l0.072,0.003l33.877-4.729l0.072,0.002l0.072,0.002c0.58-0.129,13.98-2.568,23.742-6.224
	c1.309-0.473,5.389-2.026,75.172-40.676c37.521-20.742,78.641-43.717,100.729-56c7.979-4.438,13.684-7.633,14.121-7.914
	c2.924-1.521,5.592-4.369,8.672-9.184c1.502-2.372,1.869-5.513,1.088-8.836c-0.66-2.439-1.896-4.823-3.303-6.332
	c-0.771-0.831-2.26-1.904-6.902-3.735c-2.354-0.953-4.432-1.604-4.502-1.604l-0.215-0.08l-0.215-0.081l-148.896-30.235
	l-28.934-62.688l-0.959-2.083l-2.229-0.219L903.99,70.32l-54.379-5.949c0.07,0.002,0.07,0.002,0.07,0.002l-47.459-5.735
	l-51.422-5.932l-49.402-5.795l-26.688-2.96L673.492,43.84z"/>
</svg>
