<?xml version="1.0" encoding="utf-8"?>
<!-- Generator: Adobe Illustrator 16.0.0, SVG Export Plug-In . SVG Version: 6.00 Build 0)  -->
<!DOCTYPE svg PUBLIC "-//W3C//DTD SVG 1.1//EN" "http://www.w3.org/Graphics/SVG/1.1/DTD/svg11.dtd">
<svg version="1.1" id="Layer_1" xmlns="http://www.w3.org/2000/svg" xmlns:xlink="http://www.w3.org/1999/xlink" x="0px" y="0px"
	 width="1148.033px" height="383.396px" viewBox="0 0 1148.033 383.396" enable-background="new 0 0 1148.033 383.396"
	 xml:space="preserve">
<path d="M1147.897,79.893c-0.521-6.286-2.396-12.021-5.479-17.054c-3.605-5.752-8.996-10.642-15.646-14.171
	c-4.823-2.562-10.354-4.367-15.2-5.021c-0.58-0.128-1.735-0.237-4.056-0.604c-2.391-0.292-5.938-0.842-10.564-1.43
	c-8.542-1.198-21.135-2.856-37.271-4.991c-27.211-3.693-65.062-8.667-112.461-14.882C866.524,11.067,784.965,0.353,784.171,0.304
	L782.144,0l-1.4,1.583l-19.366,21.421L748.019,2.532l-1.199-1.868l-2.162,0.066L693.623,1.96l-2.021-0.011l-1.109,1.646
	l-16.649,23.314L649.286,8.55l-1.768-1.338l-0.856,0.247L527.28,32.885l-1.578,0.345l-0.902,1.35l-19.613,28.758l-9.92-7.239
	l-0.072-0.07l-0.075-0.068l-10.121-6.646l-0.22-0.143l-0.146-0.067l-9.062-4.701l-1.021-0.558l-1.225,0.111l-26.688,2.961
	l-49.404,5.795l-51.422,5.935l-47.46,5.732c0,0,0,0,0.07-0.002l-54.379,5.951l-47.482,4.78l-2.229,0.218l-0.957,2.083l-28.93,62.689
	L15.535,170.332l-0.213,0.08l-0.215,0.08c-0.072,0.002-2.147,0.652-4.504,1.605c-4.644,1.83-6.13,2.902-6.9,3.732
	c-1.404,1.51-2.644,3.896-3.303,6.333c-0.783,3.322-0.414,6.463,1.088,8.836c3.079,4.812,5.748,7.661,8.671,9.186
	c0.438,0.277,6.146,3.474,14.12,7.912c22.092,12.281,63.207,35.258,100.73,56c69.782,38.646,73.862,40.2,75.174,40.676
	c9.757,3.65,23.161,6.095,23.74,6.223l0.071-0.001l0.072-0.002l33.876,4.729l0.072-0.005l0.144-0.004l31.738,2.896l0.069-0.003
	l0.072-0.001l45.718,2.383l75.438,5.339l0.07-0.002l45.646,2.386l64.511,6.776l0.071-0.002l0.072-0.004l62.582,4.787l58.646,5.938
	l90.525,8.823l0.069-0.003l31.729,2.602l32.78,4.181l0.068-0.003l29.791,2.953l34.095,4.799l0.069-0.003l31.118,4.084l25.2,3.979
	c-0.001-0.035-0.002-0.054-0.01-0.062l16.521,2.771c2.687,0.574,15.153,3.188,19.049,3.067l0.068-0.001
	c3.604-0.109,8.709-0.714,12.621-2.89c3.131-1.71,13.256-9.21,16.354-12.237c5.35-5.3,14.41-17.676,14.761-18.197l0.141-0.148
	l0.068-0.147l138.965-229.727c0.136-0.299,0.483-0.821,1.031-1.938c0.555-0.971,1.38-2.533,2.271-4.319
	c2.336-4.617,3.83-8.328,4.554-11.138C1147.397,94.421,1148.431,86.766,1147.897,79.893z"/>
</svg>
