<?xml version="1.0" encoding="utf-8"?>
<!-- Generator: Adobe Illustrator 16.0.0, SVG Export Plug-In . SVG Version: 6.00 Build 0)  -->
<!DOCTYPE svg PUBLIC "-//W3C//DTD SVG 1.1//EN" "http://www.w3.org/Graphics/SVG/1.1/DTD/svg11.dtd">
<svg version="1.1" id="Layer_1" xmlns="http://www.w3.org/2000/svg" xmlns:xlink="http://www.w3.org/1999/xlink" x="0px" y="0px"
	 width="1210.395px" height="383.396px" viewBox="0 0 1210.395 383.396" enable-background="new 0 0 1210.395 383.396"
	 xml:space="preserve">
<path fill="none" stroke="#000000" stroke-linejoin="round" stroke-miterlimit="10" d="M60.234,170.939
	c-4.538-11.611-15.835-19.836-29.053-19.836C13.96,151.102,0,165.062,0,182.283s13.96,31.181,31.181,31.181
	c13.22,0,24.52-8.228,29.055-19.842c3.191-2.163,5.905,1.541,8.109,3.312l0.002,0.003c1.382,1.447,2.748,2.507,4.173,3.251
	c0.439,0.276,6.146,3.473,14.12,7.912c22.092,12.28,63.207,35.258,100.732,56c69.782,38.646,73.862,40.199,75.173,40.676
	c9.756,3.649,23.161,6.094,23.741,6.222l0.071-0.001l0.072-0.002l33.875,4.729l0.072-0.007l0.146-0.004l31.736,2.896l0.071-0.003
	l0.072-0.001l45.717,2.383l75.438,5.338l0.07-0.003l45.646,2.387l64.51,6.777l0.072-0.002l0.07-0.004l62.582,4.787l58.646,5.938
	l90.524,8.824l0.068-0.003l31.729,2.601l32.779,4.183l0.067-0.003l29.792,2.951l34.095,4.801l0.07-0.003l31.119,4.084l25.199,3.979
	c-0.001-0.035-0.002-0.053-0.011-0.062l16.521,2.771c2.686,0.575,15.153,3.189,19.047,3.068l0.071-0.001
	c3.604-0.11,8.709-0.713,12.62-2.891c3.132-1.71,13.257-9.21,16.354-12.235c5.352-5.302,14.411-17.678,14.762-18.198l0.142-0.149
	l0.067-0.146l138.965-229.729c0.138-0.299,0.482-0.819,1.03-1.938c0.557-0.97,1.38-2.534,2.271-4.32
	c2.337-4.617,3.83-8.328,4.552-11.137c2.766-8.229,3.8-15.883,3.266-22.756c-0.521-6.286-2.396-12.021-5.479-17.055
	c-3.607-5.752-8.996-10.642-15.646-14.171c-4.822-2.562-10.354-4.366-15.199-5.021c-0.579-0.128-1.735-0.238-4.058-0.604
	c-2.388-0.292-5.936-0.842-10.562-1.43c-8.542-1.198-21.137-2.856-37.272-4.991c-27.211-3.692-65.061-8.667-112.461-14.882
	C928.886,11.068,847.326,0.354,846.532,0.305L844.506,0l-1.4,1.583L823.74,23.004L810.381,2.532l-1.199-1.868l-2.162,0.067
	L755.986,1.96l-2.021-0.011l-1.107,1.646l-16.65,23.314L711.648,8.55l-1.77-1.338l-0.854,0.247L589.642,32.885l-1.576,0.346
	l-0.903,1.349l-19.614,28.758l-9.92-7.238l-0.072-0.07l-0.074-0.069l-10.12-6.646l-0.222-0.144l-0.146-0.066L537.93,44.4
	l-1.021-0.559l-1.226,0.111l-26.688,2.961l-49.404,5.795l-51.422,5.936l-47.461,5.731c0,0,0,0,0.072-0.002l-54.378,5.951
	l-47.483,4.781l-2.23,0.217l-0.957,2.083l-28.93,62.69L77.897,170.332l-0.213,0.08l-0.215,0.08
	c-0.072,0.002-2.147,0.653-4.503,1.606c-2.212,0.871-3.708,1.571-4.751,2.155c-1.714,0.382-3.423,1.142-5.061,0.137
	c-1.302-0.8-1.976-2.304-2.92-3.447L60.234,170.939z"/>
</svg>
