<?xml version="1.0" encoding="utf-8"?>
<!-- Generator: Adobe Illustrator 16.0.0, SVG Export Plug-In . SVG Version: 6.00 Build 0)  -->
<!DOCTYPE svg PUBLIC "-//W3C//DTD SVG 1.1//EN" "http://www.w3.org/Graphics/SVG/1.1/DTD/svg11.dtd">
<svg version="1.1" id="Layer_1" xmlns="http://www.w3.org/2000/svg" xmlns:xlink="http://www.w3.org/1999/xlink" x="0px" y="0px"
	 width="2072.896px" height="1394.926px" viewBox="0 0 2072.896 1394.926" enable-background="new 0 0 2072.896 1394.926"
	 xml:space="preserve">
<path fill="none" stroke="#000000" stroke-linejoin="round" stroke-miterlimit="10" d="M1362.87,632.59
	c-17.756-1.42-51.326-2.952-90.166-4.447c-87.2-3.301-200.856-6.238-220.915-6.459c-3.882,0-5.033-0.069-8.271,0.573
	c-2.371,0.429-5.68,0.718-9.989,2.152c-6.474,2.153-3.311,1.292-7.839,2.728c-5.316,1.651-8.479,2.942-11.57,4.021
	c-2.731,1.004-1.8,0.573-10.855,4.521c-9.271,3.947,0.648-0.067-10.496,4.665c-10.928,4.592-6.826,3.157-17.756,8.253
	c-0.791,0.433-6.326,3.946-11.287,9.041c-2.272,2.363-3.195,4.687-3.515,6.581l-0.008-0.123c0,0-0.001,0.069-0.002,0.172
	c-0.098,0.609-0.133,1.174-0.13,1.681"/>
<path fill="none" stroke="#000000" stroke-linejoin="round" stroke-miterlimit="10" d="M1285.042,449.519
	c-17.484-13.348-36.469-27.833-56.891-43.415c-98.632-75.138-198.057-150.704-199.062-151.417v-0.072l-0.072,0.001l-42.916-31.647
	l-39.18-31.647c-7.046-5.741-26.098-21.242-28.896-23.969l-0.146-0.145l-0.217-0.144c-6.398-4.88-20.271-16.649-22.789-20.524
	l-0.287-0.503l-0.217-0.143c-0.359-0.718-0.862-2.656-0.217-4.665c0.071-0.359,0.217-0.646,0.289-0.935
	c0.571-2.008,1.362-4.521,6.182-11.337c4.312-5.741,10.783-11.555,14.234-14.712c0.936-0.861,1.648-1.508,2.084-1.938
	c2.729-2.728,19.842-16.722,23.293-19.09c1.726-1.291,6.758-5.095,12.004-9.328c9.774-8.038,11.069-10.191,11.574-11.052
	c1.021-1.599,1.274-3.06,1.2-4.265"/>
<path fill="none" stroke="#000000" stroke-linejoin="round" stroke-miterlimit="10" d="M946.028,651.578
	c1.482-0.744,2.919-1.587,3.855-2.412c1.294-1.006,11.721-7.751,24.873-16.075c15.814-9.976,24.298-15.066,25.734-15.645
	c0.505-0.218,1.08-0.503,1.87-0.79c4.745-2.081,15.96-6.893,26.235-6.893c0.287,0,0.574,0,0.791,0h0.07
	c1.147,0,25.229,0.79,55.713,1.728c72.751,2.296,194.458,6.026,205.528,6.026c0.357,0,0.572,0,0.791,0
	c1.007,0,2.085-0.07,3.379-0.07c5.536,0,12.148,0.355,18.044,0.719c2.301,0.071,4.457,0.215,6.327,0.286
	c8.122,0.356,15.384,0.934,21.709,1.362c6.759,0.504,12.077,0.935,16.104,0.935c2.48,0,4.345-0.146,5.817-0.478"/>
<path fill="none" stroke="#000000" stroke-linejoin="round" stroke-miterlimit="10" d="M1563.889,220.617
	c12.816-19.172,1.663-27.356-6.842-30.637"/>
<path fill="none" stroke="#000001" stroke-linejoin="round" stroke-miterlimit="10" d="M977.829,77.396c-4.64,2.682-7,4.934-7,4.934
	L951.979,96.43l-18.802,14.775c0,0-7.067,5.968-18.892,18.159c-11.821,12.191,2.547,21.973,2.547,21.973l12.568,10.728
	l89.776,70.584l130.364,96.174c0,0,89.271,65.948,113.137,83.465c19.471,14.29,32.368,3.237,36.458-1.319"/>
</svg>
