<?xml version="1.0" encoding="utf-8"?>
<!-- Generator: Adobe Illustrator 16.0.0, SVG Export Plug-In . SVG Version: 6.00 Build 0)  -->
<!DOCTYPE svg PUBLIC "-//W3C//DTD SVG 1.1//EN" "http://www.w3.org/Graphics/SVG/1.1/DTD/svg11.dtd">
<svg version="1.1" id="Layer_1" xmlns="http://www.w3.org/2000/svg" xmlns:xlink="http://www.w3.org/1999/xlink" x="0px" y="0px"
	 width="1038.689px" height="746.762px" viewBox="0 0 1038.689 746.762" enable-background="new 0 0 1038.689 746.762"
	 xml:space="preserve">
<path d="M1025.424,677.055c-22.686-27.723-47.972-62.434-75.597-104.272c-31.846-48.23-59.428-99.054-87.261-149.675
	c-66.528-121.007-116.332-239.976-217.337-355C625.135,45.228,538.844,1.566,532.479,0.22
	C509.602-4.625,233.337,71.691,84.09,108.762c-10.808,2.686-22.104,3.638-32.458,7.916c-27.123,11.21-37.38,40.479-44.789,67.021
	c-4.732,16.963-6.948,34.768-6.839,53.54c0.229,21.269,4.563,53.378,13.021,96.398c3.209,16.646,7.156,34.141,11.646,52.609
	c6.774,27.695,10.948,45.209,12.625,52.359c4.956-0.673,15.904-0.865,32.582-0.738c13.188,0.125,45.868-1.383,98.206-4.49
	c43.562-2.588,87.209-2.951,130.811-4.568c19.066-0.7,48.096,0.65,87.211,3.97c48.139,4.075,96.033,15.812,136.896,42.256
	c23.055,14.92,57.537,41.711,103.448,80.668c25.938,22.135,50.113,44.348,72.281,66.852c9.849,10.043,35.681,35.55,77.445,76.605
	c19.395,19.194,34.19,34.963,44.332,47.604c3.02-0.69,176.161-42.305,218.18-52.957
	C1035.858,689.994,1031.469,684.428,1025.424,677.055z"/>
</svg>
