<?xml version="1.0" encoding="utf-8"?>
<!-- Generator: Adobe Illustrator 16.0.0, SVG Export Plug-In . SVG Version: 6.00 Build 0)  -->
<!DOCTYPE svg PUBLIC "-//W3C//DTD SVG 1.1//EN" "http://www.w3.org/Graphics/SVG/1.1/DTD/svg11.dtd">
<svg version="1.1" id="Layer_1" xmlns="http://www.w3.org/2000/svg" xmlns:xlink="http://www.w3.org/1999/xlink" x="0px" y="0px"
	 width="1764.199px" height="993.152px" viewBox="0 0 1764.199 993.152" enable-background="new 0 0 1764.199 993.152"
	 xml:space="preserve">
<path fill="none" stroke="#000000" stroke-linejoin="round" stroke-miterlimit="10" d="M242.233,549.619l11.063,218.836
	c0.424,8.391,7.373,14.92,15.443,14.512l437.099-22.096c8.07-0.408,14.326-7.607,13.902-15.996l-11.063-218.836
	c-0.424-8.391-7.373-14.92-15.441-14.512l-437.098,22.096C248.064,534.031,241.809,541.229,242.233,549.619z M567.537,837.523
	l-13.88-47.143l-305.701,7.301c-11.582,0.919-19.688-9.949-20.231-26.918L213.477,553.42c-3.046-21.312,1.175-32.512,12.663-33.594
	l244.227-12.312l-10.86-36.882l39.979-294.142c2.602-10.272-3.062-15.941-15.14-17.072l-270.687-35.93
	c-8.993-0.955-16.201,2.136-21.625,9.271L6.038,448.315c-6.852,10.559-7.871,23.776-3.062,39.656l123.399,296
	c3.879,9.461,11.289,20.033,23.183,23.668l400.353,65.637C577.459,877.953,577.235,867.892,567.537,837.523z M74.473,554.927
	c-15.45-1.239-27.038-14.854-25.795-30.301c1.24-15.451,14.852-27.041,30.301-25.799c15.45,1.242,27.038,14.854,25.798,30.305
	C103.536,544.582,89.922,556.167,74.473,554.927z M1253.076,948.638c174.104-119.736,331.289-242.721,492.672-364.898
	c20.646-25.91,23.059-44.438,11.74-63.625L1408.257,0l-107.529,19.108l321.1,453.533c10.086,10.653,3.891,19.14-3.701,20.336
	l-538.12-425.596l-260.501,52.863L1037.23,454.05l-9.533,10.392L685.807,196.477l-55.013-4.018
	C540.702,349.797,493.83,457.36,504.526,502.13l199.577-2.154c14.22-0.723,19.77,7.326,20.644,26.855l13.882,238.283
	c0.611,13.09-7.719,17-19.142,16.869l-153.686,1.715c10.291,34.465,21.876,69.047,35.396,102.045l513.223,99.586
	C1181.787,1005.527,1201.021,984.226,1253.076,948.638z"/>
</svg>
