<?xml version="1.0" encoding="utf-8"?>
<!-- Generator: Adobe Illustrator 16.0.0, SVG Export Plug-In . SVG Version: 6.00 Build 0)  -->
<!DOCTYPE svg PUBLIC "-//W3C//DTD SVG 1.1//EN" "http://www.w3.org/Graphics/SVG/1.1/DTD/svg11.dtd">
<svg version="1.1" id="Layer_1" xmlns="http://www.w3.org/2000/svg" xmlns:xlink="http://www.w3.org/1999/xlink" x="0px" y="0px"
	 width="533.399px" height="745.934px" viewBox="0 0 533.399 745.934" enable-background="new 0 0 533.399 745.934"
	 xml:space="preserve">
<path fill="none" stroke="#000000" stroke-linejoin="round" stroke-miterlimit="10" d="M14.155,723.393
	c4.958,6.519,11.545,11.765,18.875,15.382c8.024,3.901,16.911,5.965,25.798,6.561c9.389,0.527,18.755,0.264,28.145,0.359
	c11.162,0.403,22.349,0.143,33.534,0.215c33.534,0,67.068,0,100.603,0c14.372-0.48,28.746-0.146,43.117-0.24
	c17.965,0.48,35.932,0.146,53.896,0.24c27.953-0.023,55.883,0.021,83.836-0.023c9.725-0.524,19.496,0.072,29.221-0.383
	c7.666-0.072,15.402-0.91,22.758-3.162c10.49-3.09,20.191-9.194,27.066-17.75c9.197-11.16,13.748-25.533,15.02-39.785
	c0.168-10.061,0.021-20.118,0.07-30.153c0-107.789,0-215.578,0-323.367c0-3.21-0.238-6.396-0.238-9.581c0-37.535,0-75.046,0-112.58
	c0.119-6.396-0.357-12.767-0.238-19.162c0-17.965,0.021-35.93-0.023-53.895c-0.406-7.904-0.168-15.81-0.217-23.714
	c-0.047-12.91-0.07-26.157-4.406-38.493c-3.139-9.509-8.6-18.396-16.457-24.719c-6.85-5.629-15.162-9.391-23.832-11.139
	c-2.803-0.527-5.604-1.126-8.479-1.102c-128.945-0.001-257.909-0.001-386.849-0.001c-0.862,0.048-2.61,0.12-3.473,0.144
	c-11.306,1.078-22.42,5.293-31.091,12.719C13.246,56.229,7.952,65.019,4.958,74.433c-3.904,11.33-4.239,23.427-4.216,35.283
	c-0.023,8.791,0.144,17.557-0.216,26.349c-0.048,19.569-0.023,39.115-0.023,58.685c-0.024,3.593-0.264,7.186-0.239,10.779
	c0.023,38.325-0.024,76.649,0,114.975c0.023,3.354-0.239,6.707-0.239,10.061c0,114.566,0,229.158,0,343.729
	c0.023,4.551-0.216,9.125,0.431,13.65C2.012,700.639,6.204,713.237,14.155,723.393z"/>
</svg>
