<?xml version="1.0" encoding="utf-8"?>
<!-- Generator: Adobe Illustrator 16.0.0, SVG Export Plug-In . SVG Version: 6.00 Build 0)  -->
<!DOCTYPE svg PUBLIC "-//W3C//DTD SVG 1.1//EN" "http://www.w3.org/Graphics/SVG/1.1/DTD/svg11.dtd">
<svg version="1.1" id="Layer_1" xmlns="http://www.w3.org/2000/svg" xmlns:xlink="http://www.w3.org/1999/xlink" x="0px" y="0px"
	 width="1752.067px" height="990.281px" viewBox="0 0 1752.067 990.281" enable-background="new 0 0 1752.067 990.281"
	 xml:space="preserve">
<path fill="none" stroke="#000000" stroke-linejoin="round" stroke-miterlimit="10" d="M1255.446,156.637
	c-12.02,1.622-17.445,7.517-14.428,17.675l51.924,292.271l-93.002,370.979c-8.453,30.74-8.268,40.805,19.066,35.008l397.35-81.887
	c11.734-4.111,18.709-14.979,22.197-24.59l111.244-300.778c4.158-16.063,2.604-29.23-4.674-39.501L1546.43,118.097
	c-5.711-6.91-13.037-9.705-21.984-8.384L1255.446,156.637z M1705.627,503.796c1.869,15.385-9.154,29.459-24.539,31.328
	c-15.387,1.867-29.459-9.154-31.33-24.541c-1.867-15.384,9.156-29.458,24.543-31.33
	C1689.688,477.385,1703.758,488.41,1705.627,503.796z M18.918,587.523C181.673,707.867,340.24,829.064,515.689,946.822
	c52.449,34.998,71.929,56.078,139.06,35.121l512.064-105.395c13.143-33.146,24.336-67.855,34.234-102.438
	c24.703-94.105,45.168-188.191,58.088-282.246c12.377-75.862-97.287-252.962-129.768-308.221l-54.963,4.64L735.571,460.101
	l-9.649-10.277l213.932-336.249l-261.083-49.91l-533.267,431.66c-7.605-1.112-13.897-9.526-3.933-20.292l315.944-457.14L349.778,0
	L6.458,524.035C-4.642,543.347-2.022,561.847,18.918,587.523z"/>
</svg>
