<?xml version="1.0" encoding="utf-8"?>
<!-- Generator: Adobe Illustrator 16.0.0, SVG Export Plug-In . SVG Version: 6.00 Build 0)  -->
<!DOCTYPE svg PUBLIC "-//W3C//DTD SVG 1.1//EN" "http://www.w3.org/Graphics/SVG/1.1/DTD/svg11.dtd">
<svg version="1.1" id="Layer_1" xmlns="http://www.w3.org/2000/svg" xmlns:xlink="http://www.w3.org/1999/xlink" x="0px" y="0px"
	 width="968.365px" height="519.176px" viewBox="0 0 968.365 519.176" enable-background="new 0 0 968.365 519.176"
	 xml:space="preserve">
<path d="M836.106,252.288l-129.59-66.206C596.833,130.042,463.688,62.021,372.582,28.073c-30.349-11.308-72.465-27-92.925-28.034
	c-17.1-0.864-91.032,12.791-136.372,25.867c-37.797,10.901-96.981,27.97-113.333,32.9C15.858,63.055,5.884,66.94-0.001,70.367
	l7.673,3.977c8.605,4.521,141.383,70.624,398.134,198.213c290.98,144.609,456.123,226.81,495.318,246.619l66.971-134.838
	C973.65,373.148,892.908,281.309,836.106,252.288z"/>
</svg>
