<?xml version="1.0" encoding="utf-8"?>
<!-- Generator: Adobe Illustrator 16.0.0, SVG Export Plug-In . SVG Version: 6.00 Build 0)  -->
<!DOCTYPE svg PUBLIC "-//W3C//DTD SVG 1.1//EN" "http://www.w3.org/Graphics/SVG/1.1/DTD/svg11.dtd">
<svg version="1.1" id="Layer_1" xmlns="http://www.w3.org/2000/svg" xmlns:xlink="http://www.w3.org/1999/xlink" x="0px" y="0px"
	 width="1482.387px" height="351.133px" viewBox="0 0 1482.387 351.133" enable-background="new 0 0 1482.387 351.133"
	 xml:space="preserve">
<path d="M1466.65,91.714c0,0-0.001,0,0.067,0C1466.65,91.714,1466.649,91.714,1466.65,91.714L1466.65,91.714z M1383.19,0
	c3.527,0,6.539,0.431,9.198,1.22c1.729,0.215,8.561,1.292,14.601,4.306c2.581,1.22,13.149,7.895,17.608,10.765l0.142,0.071
	l0.151,0.144c5.459,4.163,5.459,4.163,14.019,10.693l0.435,0.358c4.602,3.518,14.089,11.052,19.118,15.071
	c3.591,2.511,8.271,6.674,12.938,11.267c3.301,3.301,7.551,7.679,8.62,9.975c0.081,0.215,0.146,0.359,0.22,0.574
	c1.291,2.798,3.312,6.961,1.291,12.415c-1,3.374-4.091,5.741-6.608,7.68c-0.566,0.502-1.223,1.005-1.647,1.363
	c-1.51,1.363-2.229,2.01-2.812,2.583c-0.933,0.86-1.514,1.364-3.739,3.23c-64.841,53.609-131.474,102.26-202.069,153.86
	c-41.62,30.43-84.681,61.791-129.101,95.521l-0.079,0.066c-9.562,6.736-17.61,9.971-24.65,9.971c-4.75,0-8.988-1.43-13.01-4.438
	c-3.239-2.45-5.899-5.53-8.562-8.762c-7.979-9.688-67.5-85.33-71.17-90.062c-2.012-2.08-4.382-3.381-7.979-4.17
	c-3.729-0.861-8.41-1.143-14.369-1.432l-0.789-0.068c-2.521-0.148-5.318-0.291-8.271-0.432c-11.067-0.648-26.239-1.511-44.277-1.511
	c-3.602-0.004-7.188,0-10.712,0.066c-16.896,0.358-63.265,1.721-117.752,4.672c-32.925,1.721-64.269,3.729-93.094,6.021
	c-35.01,2.801-66.494,5.959-93.522,9.41l-0.067-0.013h-0.072c-126.733,12.488-278.561,30.647-389.333,43.853
	c-50.249,6.028-93.667,11.188-124.579,14.643h-0.072v0.066l-5.532,0.432c-20.562,1.648-20.85,1.648-24.082,1.801
	c-0.575,0.07-1.366,0.143-2.229,0.143c-2.804,0-6.541-0.356-9.704-0.932c-5.535-0.939-7.689-2.229-8.841-3.229
	c-2.158-1.512-4.17-3.16-6.974-5.463c-1.941-1.5-4.241-3.367-7.188-5.67c-1.007-0.791-12.437-9.107-23.723-17.72
	c-6.9-5.312-12.438-9.762-16.392-13.133c-2.442-2.09-4.239-3.812-5.533-5.101c-2.016-2.149-3.235-3.883-2.948-5.963
	c0.072-1.067,0.72-2.646,2.875-3.51c0.431-0.148,0.934-0.289,1.581-0.512c1.147-0.357,2.804-0.777,5.033-1.289
	c4.169-1.002,10.423-2.439,18.474-4.229c15.169-3.229,37.309-7.898,65.92-13.777c49.602-10.121,117.894-23.818,202.935-40.688
	c150.241-29.709,305.302-59.852,328.809-64.229l0.288-0.07h0.216c64.842-3.15,113.65-5.81,156.785-9.4
	c44.426-3.729,81.59-8.319,120.411-14.925c37.812-6.458,79.646-15.285,135.722-28.562c53.551-12.702,119.26-29.279,202.43-50.306
	c32.633-8.182,69.514-17.511,109.41-27.558c2.512-0.718,5.319-1.146,8.41-1.65c3.312-0.503,7.121-1.147,11.211-2.225l0.289-0.073
	l0.291-0.07c0.291,0,0.719-0.071,1.08-0.145C1375.138,0.575,1379.088,0.001,1383.19,0z"/>
</svg>
