<?xml version="1.0" encoding="utf-8"?>
<!-- Generator: Adobe Illustrator 16.0.0, SVG Export Plug-In . SVG Version: 6.00 Build 0)  -->
<!DOCTYPE svg PUBLIC "-//W3C//DTD SVG 1.1//EN" "http://www.w3.org/Graphics/SVG/1.1/DTD/svg11.dtd">
<svg version="1.1" id="Layer_1" xmlns="http://www.w3.org/2000/svg" xmlns:xlink="http://www.w3.org/1999/xlink" x="0px" y="0px"
	 width="1544.752px" height="351.135px" viewBox="0 0 1544.752 351.135" enable-background="new 0 0 1544.752 351.135"
	 xml:space="preserve">
<path fill="none" stroke="#000000" stroke-linejoin="round" stroke-miterlimit="10" d="M1466.655,91.714c0,0-0.001,0,0.065,0
	C1466.655,91.714,1466.654,91.714,1466.655,91.714L1466.655,91.714z M1485.886,83.142c-1.074-1.076-2.184-2.627-3.841-2.735
	c-1.934-0.126-3.338,1.527-4.894,2.36c-0.748,0.635-1.512,1.221-2.229,1.772c-0.565,0.502-1.22,1.005-1.646,1.363
	c-1.511,1.363-2.229,2.01-2.812,2.583c-0.931,0.86-1.512,1.364-3.739,3.23c-64.841,53.609-131.472,102.259-202.067,153.86
	c-41.619,30.429-84.683,61.79-129.103,95.521l-0.078,0.064c-9.562,6.736-17.609,9.971-24.649,9.971c-4.75,0-8.989-1.43-13.01-4.438
	c-3.239-2.45-5.9-5.529-8.562-8.762c-7.979-9.688-67.5-85.33-71.17-90.062c-2.011-2.08-4.381-3.38-7.979-4.17
	c-3.729-0.86-8.41-1.143-14.369-1.432l-0.789-0.068c-2.521-0.149-5.32-0.29-8.271-0.432c-11.065-0.648-26.239-1.51-44.275-1.51
	c-3.604-0.003-7.188,0-10.712,0.066c-16.896,0.357-63.267,1.721-117.754,4.671c-32.925,1.722-64.268,3.729-93.094,6.021
	c-35.009,2.801-66.494,5.959-93.521,9.41l-0.069-0.012h-0.072c-126.731,12.488-278.559,30.648-389.333,43.852
	c-50.249,6.029-93.667,11.188-124.579,14.643h-0.072v0.066l-5.534,0.433c-20.56,1.647-20.848,1.647-24.082,1.801
	c-0.575,0.067-1.366,0.144-2.229,0.144c-2.804,0-6.541-0.358-9.704-0.933c-5.535-0.938-7.691-2.229-8.841-3.229
	c-2.158-1.51-4.17-3.158-6.974-5.461c-1.941-1.5-4.241-3.369-7.188-5.67c-1.007-0.791-12.437-9.107-23.723-17.72
	c-6.9-5.312-12.437-9.762-16.391-13.133c-2.443-2.09-4.24-3.812-5.534-5.101c-2.014-2.149-3.235-3.883-2.948-5.963
	c0.072-1.067,0.72-2.646,2.875-3.511c0.431-0.147,0.934-0.289,1.581-0.511c1.149-0.357,2.804-0.778,5.033-1.289
	c4.169-1.002,10.423-2.439,18.474-4.229c15.169-3.229,37.309-7.897,65.92-13.777c49.601-10.12,117.893-23.816,202.934-40.688
	c150.244-29.71,305.301-59.854,328.808-64.229l0.288-0.07h0.216c64.842-3.15,113.651-5.81,156.784-9.4
	c44.426-3.729,81.59-8.319,120.413-14.925c37.811-6.458,79.646-15.285,135.72-28.562c53.552-12.702,119.261-29.279,202.431-50.306
	c32.634-8.182,69.514-17.511,109.409-27.558c2.514-0.718,5.32-1.146,8.41-1.65c3.312-0.503,7.121-1.147,11.211-2.225l0.289-0.073
	l0.291-0.07c0.291,0,0.72-0.071,1.08-0.146c2.929-0.353,6.879-0.927,10.98-0.928c3.525,0,6.539,0.431,9.196,1.22
	c1.729,0.215,8.562,1.292,14.604,4.306c2.58,1.22,13.146,7.895,17.606,10.765l0.144,0.071l0.149,0.144
	c5.459,4.163,5.459,4.163,14.021,10.693l0.432,0.358c4.604,3.518,14.09,11.052,19.119,15.071c3.59,2.511,8.271,6.674,12.938,11.267
	c1.94,1.941,4.209,4.253,5.968,6.297c1.967,1.238,4.182,2.509,6.089,0.459c3.577-13.277,15.704-23.049,30.11-23.049
	c17.222,0,31.182,13.96,31.182,31.181c0,17.221-13.96,31.181-31.182,31.181C1501.53,99.961,1491.083,93.136,1485.886,83.142
	L1485.886,83.142z"/>
</svg>
