<?xml version="1.0" encoding="utf-8"?>
<!-- Generator: Adobe Illustrator 16.0.0, SVG Export Plug-In . SVG Version: 6.00 Build 0)  -->
<!DOCTYPE svg PUBLIC "-//W3C//DTD SVG 1.1//EN" "http://www.w3.org/Graphics/SVG/1.1/DTD/svg11.dtd">
<svg version="1.1" id="Layer_1" xmlns="http://www.w3.org/2000/svg" xmlns:xlink="http://www.w3.org/1999/xlink" x="0px" y="0px"
	 width="2392.85px" height="1401.953px" viewBox="0 0 2392.85 1401.953" enable-background="new 0 0 2392.85 1401.953"
	 xml:space="preserve">
<path d="M1392.473,617.449h-0.08H1392.473z M2323.393,592.119h-0.069H2323.393z M1679.363,0.001c1.511,0,2.948,0.217,4.681,0.432
	V0.432c4.812,0.79,9.771,5.167,10.778,6.172l8.619,6.603h0.082v0.072l9.629,7.75l0.069,0.071h0.068l14.811,12.774v0.071l0.071,0.072
	l15.168,14.066l0.069,0.072h0.068l2.443,2.512c0.938,0.718,5.396,4.45,9.562,8.612l0.281,0.287l0.221,0.359
	c0.789,1.147,1.078,2.655,2.3,9.832c0.86,4.735,1.868,10.621,3.091,15.717c1.591,6.313,2.729,8.541,3.238,9.185h0.142
	c3.449-0.001,8.409-6.172,10.5-8.827c0.502-0.647,1.079-1.292,1.579-1.938c4.312-5.455,7.689-9.833,12.148-9.833
	c0.791,0,1.58,0.215,2.369,0.502l0.148,0.072l0.062-0.001c5.396,2.655,19.771,11.339,20.352,11.699l0.068,0.071l21.857,14.138
	l0.069,0.072l0.142,0.071l79.08,59.348l0.066,0.072l0.07,0.072c0.43,0.359,41.619,34.802,95.314,79.731
	c1.805,1.5,2.592,3.87,2.305,7.101c-0.223,1.939-0.726,4.31-1.73,7.319c-1.719,5.24-4.447,11.771-7.18,18.09
	c-2.449,5.669-4.959,11.55-6.621,16.36c-1.438,4.229-1.869,6.53-1.938,7.75c1.223-0.29,3.521-1.08,7.771-3.3
	c4.312-2.3,9.407-5.38,14.368-8.4l0.291-0.14c13.368-8.18,21.918-13.13,27.681-13.13c1.868,0,3.448,0.5,4.739,1.57
	c224.643,187.95,225.938,189.24,226.368,189.601c0.567,0.649,3.882,3.16,6.83,5.461c11.567,8.974,16.97,13.425,18.472,15.779
	c2.021,3.16,2.879,7.186,3.528,10.41c0.143,0.859,0.355,1.72,0.5,2.44c0.291,1.08,1.646,7.814,4.393,21.814
	c4.382,22.312,13.368,68.312,14.948,73.271c0.434,0.563,2.438,2.8,11.143,9.04c5.104,3.8,10.062,7.101,10.062,7.101l0.152,0.069
	l0.065,0.08l24.594,18.511h0.063h0.002c0.358,0.29,5.168,3.88,10.062,7.68c2.95,2.3,5.39,4.23,7.188,5.74
	c3.45,2.938,4.239,4.021,4.67,5.17c0.08,0.209,0.149,0.43,0.226,0.569c0.856,2.229,2.229,5.814,0.433,11.27
	c-0.933,2.65-3.312,4.73-7.263,6.24c-2.885,1.146-6.33,1.938-9.344,2.591c-4.459,0.999-16.972,3.229-27.027,5.021
	c-3.524,0.646-6.83,1.22-9.42,1.72c-9.709,1.8-37.959,6.75-38.237,6.817h-0.078h-0.069l-41.261,5.962l-0.069-0.015
	c-2.302,0.289-55.642,6.686-60.319,6.896c-0.791,0.08-1.431,0.08-2.148,0.08c-3.959,0-6.541-0.65-10.069-1.66
	c-5.393-1.501-20.695-10.689-20.841-10.83c-1.229-0.72-3.893-2.37-6.688-4.021c-4.67-2.8-9.92-5.96-11.724-7.1
	c-10.998-7.181-21.487-10.12-36.146-10.12c-0.729,0-1.512,0-2.312,0h-0.068h-0.068c-16.75-0.064-42.842-0.146-77.489-0.146
	c-68.789,0-173.028,0.22-318.602,0.58c-39.83,0.063-76.989,0.14-109.841,0.21c-55.644,0.146-95.899,0.29-107.189,0.29
	c-3.011,0-3.159,0-3.3,0l0,0c-3.17-0.227-13.521-1.15-15.03-1.29c-1.355-0.001-7.829-0.07-14.368-1.29v-0.001
	c-3.738-0.726-7.979-2.013-12.011-3.659c-2.229-0.859-6.108-2.59-7.979-4.24c-1.288-1.001-11.719-7.75-24.868-16.068
	c-15.816-9.979-24.302-15.066-25.737-15.646c-0.5-0.21-1.068-0.5-1.857-0.79c-4.75-2.081-15.961-6.891-26.24-6.891
	c-0.291,0-0.577,0-0.791,0h0.002h-0.077c-1.15,0-25.23,0.791-55.711,1.729c-72.75,2.289-194.451,6.03-205.521,6.03
	c-0.358,0-0.568,0-0.788,0c-1.011,0-2.08-0.08-3.382-0.08c-5.528,0-12.148,0.358-18.041,0.72c-2.299,0.07-4.459,0.22-6.329,0.29
	c-8.119,0.359-15.38,0.93-21.709,1.36c-6.763,0.51-12.069,0.938-16.103,0.938c-3.881-0.001-6.263-0.354-7.979-1.22
	c-2.799-1.3-19.84-13.35-33.79-23.831c-8.771-6.601-15.88-12.27-21.271-16.79c-9.779-8.331-11-10.979-11.513-12.85
	c-0.356-1.437-0.066-2.87,0.79-4.021c0.514-0.641,1.013-1.29,19.053-15.277c10.641-8.263,26.101-20.237,45.938-35.447
	c33.351-25.621,79.72-61,137.658-105.21c98.63-75.131,198.048-150.7,199.051-151.42v-0.071h0.079l42.91-31.649l39.179-31.641
	c7.041-5.75,26.104-21.246,28.899-23.973l0.142-0.144l0.222-0.144c6.396-4.88,20.271-16.649,22.789-20.524l0.279-0.502l0.223-0.145
	c0.357-0.716,0.855-2.654,0.221-4.664v-0.001c-0.078-0.359-0.223-0.646-0.291-0.932c-0.576-2.01-1.367-4.521-6.182-11.338
	c-4.316-5.742-10.789-11.555-14.239-14.712c-0.929-0.862-1.646-1.507-2.079-1.938c-2.729-2.728-19.841-16.72-23.287-19.089
	c-1.729-1.292-6.763-5.095-12.013-9.329c-9.771-8.038-11.067-10.19-11.567-11.051c-1.646-2.585-1.303-4.81-0.789-6.173
	c1.438-3.66,5.816-5.525,12.357-7.392c1.803-0.646,9.988-2.942,64.561-16.507c35.439-8.899,78.49-19.521,113.068-28.059
	c29.912-7.392,53.562-13.277,55.143-13.707l0,0C1675.841,0.288,1677.572,0.001,1679.363,0.001z M1466.654,159.388
	c0,0-0.002,0,0.067,0C1466.654,159.388,1466.651,159.388,1466.654,159.388L1466.654,159.388z M1383.192,67.674
	c3.529,0,6.539,0.431,9.199,1.22c1.729,0.215,8.562,1.292,14.601,4.306c2.582,1.22,13.149,7.895,17.608,10.765l0.142,0.071
	l0.151,0.144c5.459,4.163,5.459,4.163,14.019,10.693l0.433,0.358c4.604,3.518,14.092,11.052,19.119,15.071
	c3.59,2.511,8.271,6.674,12.938,11.267c3.302,3.301,7.552,7.679,8.621,9.975c0.08,0.215,0.146,0.359,0.219,0.574
	c1.291,2.798,3.312,6.961,1.291,12.415c-1,3.374-4.09,5.741-6.609,7.68c-0.562,0.502-1.22,1.005-1.646,1.363
	c-1.512,1.363-2.229,2.01-2.812,2.583c-0.932,0.86-1.512,1.364-3.738,3.23c-64.841,53.609-131.474,102.26-202.066,153.86
	c-41.62,30.429-84.682,61.79-129.103,95.52l-0.077,0.069c-9.562,6.74-17.61,9.971-24.65,9.971c-4.75,0-8.989-1.431-13.01-4.438
	c-3.239-2.45-5.899-5.53-8.562-8.76c-7.979-9.69-67.5-85.332-71.171-90.062c-2.011-2.081-4.381-3.38-7.979-4.17
	c-3.729-0.86-8.41-1.14-14.37-1.43l-0.79-0.07c-2.521-0.149-5.321-0.29-8.271-0.43c-11.066-0.65-26.237-1.511-44.278-1.511
	c-3.604-0.001-7.188,0-10.711,0.07c-16.896,0.36-63.265,1.72-117.754,4.67c-32.924,1.721-64.268,3.729-93.093,6.021
	c-35.011,2.8-66.494,5.96-93.521,9.41l-0.07-0.011h-0.07c-126.732,12.489-278.56,30.649-389.334,43.851
	c-50.248,6.028-93.666,11.189-124.577,14.64h-0.072v0.07l-5.535,0.43c-20.559,1.65-20.847,1.65-24.082,1.801
	c-0.574,0.069-1.365,0.141-2.229,0.141c-2.806,0-6.541-0.36-9.704-0.931c-5.535-0.94-7.692-2.229-8.842-3.229
	c-2.157-1.51-4.171-3.16-6.976-5.46c-1.939-1.5-4.24-3.37-7.188-5.67c-1.009-0.791-12.438-9.11-23.725-17.721
	c-6.898-5.311-12.437-9.76-16.391-13.13c-2.443-2.091-4.241-3.811-5.535-5.1c-2.013-2.15-3.234-3.88-2.947-5.96
	c0.071-1.07,0.722-2.65,2.875-3.51c0.433-0.15,0.936-0.29,1.581-0.511c1.149-0.359,2.805-0.779,5.032-1.29
	c4.169-1.001,10.423-2.439,18.475-4.229c15.169-3.23,37.311-7.899,65.92-13.78c49.603-10.12,117.895-23.82,202.936-40.689
	c150.24-29.711,305.301-59.85,328.807-64.23l0.288-0.07h0.217c64.843-3.15,113.651-5.81,156.783-9.4
	c44.426-3.729,81.59-8.319,120.413-14.925c37.812-6.458,79.647-15.285,135.72-28.562c53.552-12.702,119.263-29.279,202.429-50.306
	c32.632-8.182,69.516-17.511,109.41-27.558c2.511-0.718,5.318-1.147,8.409-1.65c3.312-0.503,7.12-1.147,11.212-2.225l0.288-0.073
	l0.291-0.07c0.291,0,0.72-0.071,1.079-0.145C1375.141,68.249,1379.091,67.675,1383.192,67.674z M1122.171,635.179
	c-55.921,2.15-100.92,4.38-103.511,6.24c-27.46,19.74-102.29,84.969-113.147,93.289c-4.89,4.09-7.767,6.25-13.441,8.4
	c-10.998,3.656-13.944,4.52-20.989,3.729c-6.183-0.289-13.154-2.146-16.462-3.729c-3.379-1.291-9.061-3.885-16.176-9.041
	c-8.698-6.459-33.646-26.199-40.475-33.659c-75.189-77.29-76.344-78.15-76.344-78.15s-1.224-0.64-19.554-19.52
	c-5.604-3.87-84.538-49.521-95.896-50.88c-6.758-0.57-12.007,2.01-16.532,1.646c-9.061,0.858-13.3-0.931-19.337-4.301
	c-8.125-4.24-17.828-25.049-23.006-28.709c-24.871-12.701-40.83-19.16-47.52-18.59c-7.906,1.076-90.575,39.896-90.575,39.896
	c-9.271,3.16-20.057,11.771-20.919,19.021c-21.639,133.55-29.113,171.159-65.416,306.564c-3.521,13.279,4.387,24.4,10.711,23.186
	c4.528-0.789,73.54-17.148,93.312-23.109c11.646-3.221,15.959-4.301,23.938-6.6c5.751-1.65,9.922-1.791,13.442-2.65
	c2.729-0.221,10.276-1.221,12.005-0.43c3.667-0.513,11.431,5.66,16.896,13.987c19.269,30.933,244.056,521.067,252.822,524.521
	c1.438,2.221,7.045,6.24,12.726,5.59c6.11-0.639,13.441-5.09,15.099-5.947c8.411-5.236,106.968-79.883,137.442-100.33
	c5.394-4.09,7.771-4.812,8.632-9.973c2.158-7.25,1.079-2.438,5.682-21.891c9.34-33.949,12.869-57.049,22.642-89.354
	c27.25-89.984,47.021-157.729,56.788-168.064c14.521-13.988,117.393-83.379,215.16-151.771
	c70.229-49.229,132.479-92.789,140.461-98.75c19.199-14.275,13.301-9.539,19.199-14.275c17.971-16.078,10.489-8.828,17.971-16.078
	c19.262-21.24,14.158-14.422,19.262-21.24c5.041-5.589,7.84-8.54,10.433-12.7c1.93-3.094,3.766-6.044,4.936-9.521
	c1.25-3.716,2.688-7.432,1.812-11.408c-0.92-4.167-4.032-7.379-7.271-9.946c-4.476-3.548-9.252-5.934-14.318-8.487
	c-0.777-0.392-1.555-0.788-2.339-1.171c-0.959-0.466-1.932-0.904-2.905-1.335c-1.755-0.771-3.523-1.508-5.288-2.259
	c-11.142-4.74-1.222-0.72-10.5-4.67c-9.049-3.95-8.118-3.51-10.853-4.521c-3.094-1.08-6.264-2.369-11.567-4.021
	c-4.528-1.432-1.369-0.57-7.841-2.72c-4.312-1.44-7.618-1.73-9.989-2.16c-3.237-0.645-4.392-0.57-8.271-0.57
	C1323.022,628.929,1209.37,631.879,1122.171,635.179z M1355.091,646.079c21.062,0,39.101,14.931,41.618,35.311
	c0.209,1.649,0.278,3.229,0.278,4.812c0,20.241-15.948,37.888-37.521,40.548c-1.869,0.211-3.674,0.291-5.465,0.291
	c-21.064,0-39.181-14.859-41.695-35.312c-0.145-1.574-0.279-3.229-0.279-4.81c0.07-20.24,15.949-37.89,37.591-40.47
	C1351.421,646.159,1353.289,646.079,1355.091,646.079L1355.091,646.079z M859.576,1206.12c20.99,0,39.105,14.93,41.622,35.379
	c0.216,1.58,0.289,3.16,0.289,4.74c0,20.239-15.959,37.891-37.524,40.551c-1.867,0.209-3.666,0.35-5.463,0.35
	c-21.062,0-39.179-14.92-41.691-35.363c-0.146-1.58-0.287-3.16-0.287-4.74c0.069-20.24,15.959-37.896,37.598-40.551
	C855.91,1206.271,857.78,1206.12,859.576,1206.12z"/>
</svg>
