<?xml version="1.0" encoding="utf-8"?>
<!-- Generator: Adobe Illustrator 16.0.0, SVG Export Plug-In . SVG Version: 6.00 Build 0)  -->
<!DOCTYPE svg PUBLIC "-//W3C//DTD SVG 1.1//EN" "http://www.w3.org/Graphics/SVG/1.1/DTD/svg11.dtd">
<svg version="1.1" id="Layer_1" xmlns="http://www.w3.org/2000/svg" xmlns:xlink="http://www.w3.org/1999/xlink" x="0px" y="0px"
	 width="610.662px" height="1028.645px" viewBox="0 0 610.662 1028.645" enable-background="new 0 0 610.662 1028.645"
	 xml:space="preserve">
<path fill="none" stroke="#000000" stroke-linejoin="round" stroke-miterlimit="10" d="M285.569,968.483
	c11.513,4.586,19.648,15.831,19.648,28.979c0,17.221-13.961,31.181-31.182,31.181s-31.181-13.96-31.181-31.181
	c0-13.362,8.406-24.763,20.218-29.199c0.893-0.596,1.782-1.192,2.719-1.718c0.728-0.407,1.54-0.864,1.771-1.729
	c0.538-2.014-2.134-3.246-3.18-4.503l-0.003-0.004c-10.303-9.854-43.143-41.913-79.044-78.413
	c-38.63-39.239-88.709-91.68-108.06-118.649c-4.79-6.59-7.02-10.574-10.82-35.222c-3.75-24.489-9.12-70.239-19.88-161.368
	c-9.66-82.51-24.31-207.22-46.33-387.98c-0.97-8.4,1.03-11.78,3.65-16.15c0.46-0.84,1-1.76,1.54-2.75l1.16-1.97l0.43,0.021
	c2.439-3.37,10.91-15.871,40.281-61.861l-0.001,0.001c20.74-33.5,35.791-57.64,46.47-72.86c12.04-17.05,18.83-23.34,25.171-23.1
	c0.139,0,0.209,0.01,0.352,0.004c3.012,0.26,6.542,2.271,11.271,6.56c3.76,3.39,8.331,8.181,13.99,14.66
	c10.489,12.08,23.61,28.79,37.479,46.48c21.301,27.11,45.411,57.8,67.76,81.79c12.041,12.93,22.331,22.539,31.371,29.38
	c9.73,7.36,17.801,11.199,23.98,11.439l0,0c6.05,0.23,14.09-2.92,24.14-9.3c9.232-5.92,19.943-14.44,32.562-26.06
	c23.526-21.58,49.469-49.901,72.406-74.89c15.873-17.261,30.833-33.621,42.812-45.33c14.681-14.35,22.897-20.091,28.58-19.87
	c0.142,0,0.291,0.01,0.431,0.019l-0.001,0.001c6.251,0.6,12.472,7.46,23.092,25.45c9.474,16,22.49,41,40.46,75.7c0,0,0,0,0.014-0.07
	c30.721,57.38,36.021,65.8,36.77,66.84c0.07,0.071,0.065,0.14,0.132,0.22l0,0c1.144,2.28,2.409,4.92,3.22,8.051
	c0.89,3.199,1.253,6.89,0.439,11.04c-35.75,178.401-59.939,301.62-75.971,383.14c-17.661,90.114-26.613,135.304-32.224,159.513
	c-5.688,24.277-8.21,28.066-13.485,34.277c-21.522,25.619-75.621,73.91-117.211,109.921c-26.609,23.038-53.43,45.932-80.65,68.159
	c-1.096,0.899-2.307,2.004-3.604,3.131c-0.541,0.585-1.225,1.062-1.796,1.62c-0.927,0.901-1.94,2.049-1.806,3.438
	c0.136,1.394,1.246,2.196,2.101,3.161L285.569,968.483z"/>
</svg>
