<?xml version="1.0" encoding="utf-8"?>
<!-- Generator: Adobe Illustrator 16.0.0, SVG Export Plug-In . SVG Version: 6.00 Build 0)  -->
<!DOCTYPE svg PUBLIC "-//W3C//DTD SVG 1.1//EN" "http://www.w3.org/Graphics/SVG/1.1/DTD/svg11.dtd">
<svg version="1.1" id="Layer_1" xmlns="http://www.w3.org/2000/svg" xmlns:xlink="http://www.w3.org/1999/xlink" x="0px" y="0px"
	 width="1127.035px" height="540.036px" viewBox="0 0 1127.035 540.036" enable-background="new 0 0 1127.035 540.036"
	 xml:space="preserve">
<path fill="none" stroke="#000000" stroke-linejoin="round" stroke-miterlimit="10" d="M1061.332,35.323
	c-3.783-4.147-9.189-4.155-9.766-4.14c-0.209,0.006-0.359,0.009-0.498,0.082C1020.977,31.968,46.914,56.541,37.047,56.795
	l-0.07,0.003c-0.209,0.005-5.036,0.193-10.781,0.916c-8.257,1.005-13.828,2.663-17.154,4.905l-0.08,0.002l-0.068,0.082
	c-4.029,2.91-6.535,6.353-7.787,10.705c-1.462,4.798-1.457,10.699-0.1,18.658c0.125,2.229,1.685,15.153,27.305,174.9
	c13.375,83.496,26.895,166.835,27.055,167.625l0.007,0.291l0.148,0.285c3.688,11.713,8.992,21.873,15.826,30.127
	c5.498,6.707,11.905,12.158,19.146,16.223c11.616,6.551,21.432,7.516,23.096,7.621c4.186,0.611,89.066,12.918,173.502,25.086
	c170.819,24.586,176.733,25.078,177.896,25.053c1.356,0.033,2.803,0.143,4.313,0.311c2.608,0.23,5.565,0.514,8.734,0.439
	c9.064-0.232,17.413-3.332,26.254-9.904c21.986-13.016,57.338-38.848,105.129-76.73c42.354-33.633,92.992-75.559,150.508-124.709
	c51.453-43.885,106.336-91.812,158.787-138.602c50.353-44.936,95.183-85.835,129.642-118.345c0.854-0.741,1.766-1.554,2.819-2.44
	c2.471-2.081,5.568-4.608,8.152-8.064c2.989-4.034,4.737-8.62,5.188-13.812C1065.105,42.362,1063.996,38.277,1061.332,35.323z"/>
</svg>
