<?xml version="1.0" encoding="utf-8"?>
<!-- Generator: Adobe Illustrator 16.0.0, SVG Export Plug-In . SVG Version: 6.00 Build 0)  -->
<!DOCTYPE svg PUBLIC "-//W3C//DTD SVG 1.1//EN" "http://www.w3.org/Graphics/SVG/1.1/DTD/svg11.dtd">
<svg version="1.1" id="Layer_1" xmlns="http://www.w3.org/2000/svg" xmlns:xlink="http://www.w3.org/1999/xlink" x="0px" y="0px"
	 width="1739.964px" height="858.421px" viewBox="0 0 1739.964 858.421" enable-background="new 0 0 1739.964 858.421"
	 xml:space="preserve">
<path fill="none" stroke="#000000" stroke-linejoin="round" stroke-miterlimit="10" d="M1153.446,753.086l9.159-2.624
	c0.268-0.096,0.553-0.189,0.859-0.287l0.008-0.004c1.279-0.438,2.799-1.014,4.402-1.721c9.104-4.336,12.758-11.449,14.162-15.551
	l84.744-327.216c0,0.006,10.648-33.108,0.979-69.674c-9.67-36.565-65.393-191.964-104.58-255.327c0,0-10.845-20.525-32.572-21.379"
	/>
<path fill="none" stroke="#000000" stroke-linejoin="round" stroke-miterlimit="10" d="M1243.708,42.62c0,0-25.688,2.316-18.354,32
	s63.365,232.429,63.365,232.429s15.012,49.606,4.611,89.678c-10.402,40.072-80.65,333.71-80.65,333.71s-6.186,24.1,19.301,24.654"/>
</svg>
