<?xml version="1.0" encoding="utf-8"?>
<!-- Generator: Adobe Illustrator 16.0.0, SVG Export Plug-In . SVG Version: 6.00 Build 0)  -->
<!DOCTYPE svg PUBLIC "-//W3C//DTD SVG 1.1//EN" "http://www.w3.org/Graphics/SVG/1.1/DTD/svg11.dtd">
<svg version="1.1" id="Layer_1" xmlns="http://www.w3.org/2000/svg" xmlns:xlink="http://www.w3.org/1999/xlink" x="0px" y="0px"
	 width="1738.859px" height="867.844px" viewBox="0 0 1738.859 867.844" enable-background="new 0 0 1738.859 867.844"
	 xml:space="preserve">
<path d="M510.338,677.676c-2.062-9.043-15.07-8.645-15.07-8.645s-233.163-5.518-261.701-6.174
	c-28.538-0.662-31.979-30.787-31.979-30.787s5.019-178.838,6.539-210.817c1.521-31.98,43.333-32.082,43.333-32.082
	s167.149,1.678,181.718,3.065c7.883,0.753,10.213-3.65,10.69-7.847c-0.229-2.317-0.398-4.639-0.514-6.955l-0.003-0.017l0.003-0.001
	c-1.665-34.07,8.783-67.208,8.783-67.208s58.385-202.08,66.062-231.678c7.682-29.595-17.979-32.211-17.979-32.211
	S276.608,6.684,235.756,1.259c-40.854-5.427-49.029,19.964-49.029,19.964S28.831,279.192,10.724,308.293
	c-18.105,29.101-6.649,51.943-6.649,51.943S90.33,612.396,104.136,644.409c13.807,32.014,42.775,38.268,42.775,38.268l344.831,74.93
	c39.081,7.867,31.498-23.148,31.498-23.148S518.046,711.555,510.338,677.676z M116.826,405.961
	c-6.096,26.134-29.458,43.022-52.188,37.72c-22.728-5.301-36.213-30.78-30.117-56.91c6.095-26.133,29.456-43.021,52.186-37.72
	C109.435,354.353,122.919,379.832,116.826,405.961z M664.337,630.385c0,0,4.559-154.471,6.047-185.756
	c1.483-31.287-33.339-31.548-33.339-31.548l-164.204-5.02c-9.771,0.232-9.633,12.083-9.633,12.083s48.644,193.235,53.247,213.659
	c4.604,20.432,19.4,16.951,19.4,16.951s71.672,2.014,99.516,2.645C663.212,654.021,664.337,630.385,664.337,630.385z
	 M433.56,409.677l-187.308-1.242c0,0-19.876,3.234-20.268,26.211c-0.387,22.977-8.451,192.607-8.451,192.607
	s4.66,20.43,24.374,20.67c19.71,0.24,252.601,5.74,252.601,5.74s13.517-2.842,10.632-16.217
	c-2.887-13.375-58.221-212.501-58.221-212.501S445.565,409.028,433.56,409.677z M1705.894,403.953
	c0,0-499.168-53.004-548.961-60.948c-49.789-7.941-91.322-21.063-107.512-24.968c-16.19-3.905-8.062,8.327-8.062,8.327
	s4.504,7.879,10.611,18.621c6.108,10.743-4.914,8.128-4.914,8.128s-16.537-3.923-23.457-4.949
	c-6.92-1.024-15.029-6.289-15.029-6.289S687.398,106.419,644.324,74.409c-43.069-32.011-65.218,8.745-65.218,8.745
	c-39.92,62.903-97.447,217.642-107.543,254.093c-4.843,17.489-4.999,34.235-3.852,46.927c1.361,4.012,5.132,8.224,14.923,8.326
	c18.806,0.196,170.759-0.94,170.759-0.94s33.801-7.449,35.095,23.968c1.293,31.419,22.195,236.57,22.195,236.57
	s3.809,22.48-18.438,21.424c-22.245-1.059-136.462-2.311-136.462-2.311s-19.188-1.34-14.923,16.047l11.8,47.855
	c1.359,4.113,4.933,11.271,13.981,15.715c1.599,0.725,3.109,1.312,4.384,1.77l0.009,0.006c0.309,0.102,0.586,0.197,0.855,0.299
	l36.263,10.848c3.98,1.027,8.278,2.102,12.827,3.215l0.048,0.016l-0.001-0.003c127.909,31.28,471.255,94.554,504.229,100.017
	l0.057,0.008l0.586,0.094c12.992,2.1,28.521-9.625,28.521-9.625c169.428-104.816,472.463-323.141,549.229-384.291
	C1780.417,412.022,1705.894,403.953,1705.894,403.953z M111.86,399.587c-0.977,20.544-17.413,36.455-36.711,35.537
	c-19.299-0.917-34.15-18.316-33.174-38.86s17.413-36.455,36.712-35.538C97.985,361.644,112.838,379.042,111.86,399.587z"/>
</svg>
