<?xml version="1.0" encoding="utf-8"?>
<!-- Generator: Adobe Illustrator 16.0.0, SVG Export Plug-In . SVG Version: 6.00 Build 0)  -->
<!DOCTYPE svg PUBLIC "-//W3C//DTD SVG 1.1//EN" "http://www.w3.org/Graphics/SVG/1.1/DTD/svg11.dtd">
<svg version="1.1" id="Layer_1" xmlns="http://www.w3.org/2000/svg" xmlns:xlink="http://www.w3.org/1999/xlink" x="0px" y="0px"
	 width="635.521px" height="993.479px" viewBox="0 0 635.521 993.479" enable-background="new 0 0 635.521 993.479"
	 xml:space="preserve">
<path d="M520.492,0.041c4.111-0.015,8.221-0.028,12.329-0.042c30.664,55.233,62.008,110.127,93.354,165.021
	c4.825,9.095,12.047,18.18,8.312,28.654c-33.644,191.445-67.974,382.896-101.613,574.68c-4.729,20.603-4.655,43.548-17.271,61.812
	c-14.312,21.646-36.534,35.896-55.318,53.508c-31.086,26.77-61.824,53.869-93.256,80.635
	c-12.979,11.187-25.955,24.053-42.726,29.173c-17.134-2.644-29.512-16.099-42.562-26.513
	c-32.627-27.559-65.257-54.773-97.885-81.997c-16.833-15.126-35.712-27.546-49.812-45.382
	c-12.38-15.812-16.556-35.711-19.698-55.271C77.073,589.741,38.773,395.508,1.159,200.936c-4.151-13.484,3.688-24.984,10.163-35.805
	C40.268,111.376,69.896,57.959,98.839,4.205c4.453-0.016,8.563-0.03,13.019-0.045c54.725,81.133,110.472,161.925,165.876,242.382
	c9.979,13.463,22.359,29.618,40.854,28.203c18.502,0.611,29.745-16.3,39.297-29.493C412.083,163.401,466.632,81.889,520.492,0.041"
	/>
</svg>
