<?xml version="1.0" encoding="utf-8"?>
<!-- Generator: Adobe Illustrator 16.0.0, SVG Export Plug-In . SVG Version: 6.00 Build 0)  -->
<!DOCTYPE svg PUBLIC "-//W3C//DTD SVG 1.1//EN" "http://www.w3.org/Graphics/SVG/1.1/DTD/svg11.dtd">
<svg version="1.1" id="Layer_1" xmlns="http://www.w3.org/2000/svg" xmlns:xlink="http://www.w3.org/1999/xlink" x="0px" y="0px"
	 width="652.104px" height="1081.328px" viewBox="0 0 652.104 1081.328" enable-background="new 0 0 652.104 1081.328"
	 xml:space="preserve">
<path d="M633.072,465.083c-8.834-10.379-18.086-20.384-27.145-30.557C487.017,303.382,367.137,173.125,247.48,42.672
	C234.285,28.499,221.42,13.976,208.04,0c-17.295,1.379-34.578,3.306-51.878,4.869c-52.054,5.084-104.13,9.877-156.161,15.13
	c120.204,136.312,240.52,272.521,360.768,408.795c15.766,17.475,30.123,36.141,45.215,54.2
	c25.924,33.147,40.371,76.49,34.354,118.601c-2.777,20.23-10.168,39.65-20.521,57.191c-7.137,11.67-15.15,22.764-22.684,34.182
	c-12.239,18.152-24.562,36.256-37.09,54.209c-7.632,11.377-16.479,21.927-22.562,34.271c-14.034,27.498-12.762,62.094,3.01,88.594
	c2.567,5.662,4.519,11.604,6.781,17.404c1.506,5.521,2.182,11.25,3.396,16.854c2.584,12.527-0.146,25.229-1.132,37.777
	c-3.729,43.176-7.508,86.352-11.146,129.524c74.33,3.199,148.649,6.605,222.986,9.726c30.12-187.455,60.27-374.918,90.476-562.353
	C653.64,499.355,645.577,479.916,633.072,465.083z"/>
</svg>
