<?xml version="1.0" encoding="utf-8"?>
<!-- Generator: Adobe Illustrator 16.0.0, SVG Export Plug-In . SVG Version: 6.00 Build 0)  -->
<!DOCTYPE svg PUBLIC "-//W3C//DTD SVG 1.1//EN" "http://www.w3.org/Graphics/SVG/1.1/DTD/svg11.dtd">
<svg version="1.1" id="Layer_1" xmlns="http://www.w3.org/2000/svg" xmlns:xlink="http://www.w3.org/1999/xlink" x="0px" y="0px"
	 width="1041.785px" height="456.91px" viewBox="0 0 1041.785 456.91" enable-background="new 0 0 1041.785 456.91"
	 xml:space="preserve">
<path fill="none" stroke="#000000" stroke-linejoin="round" stroke-miterlimit="10" d="M63.132,61.02
	c-3.478-3.688-6.645-7.687-12.281-5.642c-5.365,4.366-12.211,6.984-19.668,6.984C13.96,62.362,0,48.402,0,31.181
	C0,13.96,13.96,0,31.181,0c17.221,0,31.181,13.96,31.181,31.181c0,0.875-0.036,1.743-0.107,2.601
	c-0.045,0.547-0.104,1.09-0.178,1.628c0.606,1.402,1.047,2.767,2.416,3.609c2.32,1.427,5.371,0.745,7.938,0.894
	c83.42-3.641,574.251,63.922,947.591,234.532c26.479,14.385,22.939,39.959,19.15,47.672
	c-3.779,7.715-127.117,103.203-147.039,124.002c-31.894,24.137-42.118,0.844-46.976-3.428
	c-45.213-30.779-612.547-277.564-612.547-277.564c0.002,0-136.817-67.262-168.482-102.928c-0.348-0.392-0.682-0.786-0.999-1.181
	L63.132,61.02z"/>
</svg>
