<?xml version="1.0" encoding="utf-8"?>
<!-- Generator: Adobe Illustrator 16.0.0, SVG Export Plug-In . SVG Version: 6.00 Build 0)  -->
<!DOCTYPE svg PUBLIC "-//W3C//DTD SVG 1.1//EN" "http://www.w3.org/Graphics/SVG/1.1/DTD/svg11.dtd">
<svg version="1.1" id="Layer_1" xmlns="http://www.w3.org/2000/svg" xmlns:xlink="http://www.w3.org/1999/xlink" x="0px" y="0px"
	 width="950.111px" height="412.969px" viewBox="0 0 950.111 412.969" enable-background="new 0 0 950.111 412.969"
	 xml:space="preserve">
<path fill="none" stroke="#000000" stroke-linejoin="round" stroke-miterlimit="10" d="M885.236,347.838
	c-0.061,1.043-768.494-18.82-767.635-18.771l0,0l-15.815-0.862l-0.078,1.438l0,0c26.623,15.586,54.317,30.002,100.594,40.895
	c88.695,20.867,180.058,26.127,269.834,40.811c31.1,5.086,102.897-2.875,154.058-8.549c91.983-10.199,118.225-16.629,141.77-22.627
	c54.25-13.699,86.292-22.119,96.197-25.258c10.35-3.328,17.388-5.469,21.041-6.354l0,0L885.236,347.838L885.236,347.838
	 M189.094,70.213c0.416,0.111,27.742,9.396,81.82,27.888c29.563,10.11,56.84,19.308,81.928,27.768
	c48.494,16.243,113.082,38.901,193.803,67.835c6.941,2.463,27.082,10.189,60.562,23.216
	c60.278,23.438,100.811,38.512,121.529,45.199c29.019,9.365,56.645,17.541,82.854,24.588c24.594,6.609,73.209,21.652,74.45,17.035
	l0,0l0.188-0.695l3.104-294.414l0.188-0.695l0,0C889.648,7.466,8.611,0.107,0,0C-0.174-0.002,155.176,61.094,189.094,70.213
	L189.094,70.213 M878.271,332.807l-771.516-24.479l0,0c-0.366-0.025-0.599-0.146-0.76-0.271c2.947-1.965,5.963-3.938,8.901-5.977
	c31.01-20.646,49.054-32.416,54.268-35.395c20.402-11.48,99.114-44.642,140.504-55.416c23.961-6.237,60.792-15.828,72.349-16.761
	c14.655-1.183,25.496-1.526,32.438-1.163c27.46,1.421,59.22,7.599,95.41,18.446c21.109,6.353,269.926,85.606,298.854,95.842
	c6.449,2.238,9.869,3.48,10.175,3.589C838.757,318.225,886.13,333.057,878.271,332.807L878.271,332.807"/>
</svg>
