<?xml version="1.0" encoding="utf-8"?>
<!-- Generator: Adobe Illustrator 16.0.0, SVG Export Plug-In . SVG Version: 6.00 Build 0)  -->
<!DOCTYPE svg PUBLIC "-//W3C//DTD SVG 1.1//EN" "http://www.w3.org/Graphics/SVG/1.1/DTD/svg11.dtd">
<svg version="1.1" id="Layer_1" xmlns="http://www.w3.org/2000/svg" xmlns:xlink="http://www.w3.org/1999/xlink" x="0px" y="0px"
	 width="950.111px" height="412.969px" viewBox="0 0 950.111 412.969" enable-background="new 0 0 950.111 412.969"
	 xml:space="preserve">
<path fill="none" stroke="#010202" stroke-linejoin="round" stroke-miterlimit="10" d="M885.236,347.838
	c-0.061,1.043-768.494-18.82-767.635-18.771l0,0l-15.815-0.863"/>
<path fill="none" stroke="#010202" stroke-linejoin="round" stroke-miterlimit="10" d="M886.478,279.492l-0.249,23.555l-0.188,0.695
	l0,0c-1.241,4.617-49.856-10.426-74.45-17.035c-26.209-7.047-53.835-15.223-82.854-24.588
	c-20.719-6.688-61.251-21.762-121.529-45.199c-33.48-13.027-53.621-20.753-60.562-23.216
	c-80.721-28.934-145.309-51.592-193.803-67.835c-25.088-8.46-52.364-17.658-81.928-27.768
	c-54.078-18.492-81.404-27.777-81.82-27.888l0,0c-12.353-3.321-40.812-13.536-72-25.183"/>
<path fill="none" stroke="#010202" stroke-linejoin="round" stroke-miterlimit="10" d="M122.517,297.012
	c26.363-17.514,41.877-27.601,46.648-30.326c20.402-11.48,99.114-44.642,140.504-55.416c23.961-6.237,60.792-15.828,72.349-16.761
	c14.655-1.183,25.496-1.526,32.437-1.163c27.46,1.421,59.22,7.599,95.41,18.446c21.109,6.353,269.926,85.606,298.854,95.842
	c6.449,2.238,9.869,3.48,10.175,3.588c19.863,7.003,67.236,21.835,59.378,21.585l0,0"/>
<path fill="none" stroke="#010202" stroke-linejoin="round" stroke-miterlimit="10" d="M878.271,332.807l-771.516-24.479l0,0
	c-0.366-0.025-0.599-0.146-0.76-0.271"/>
</svg>
