<?xml version="1.0" encoding="utf-8"?>
<!-- Generator: Adobe Illustrator 16.0.0, SVG Export Plug-In . SVG Version: 6.00 Build 0)  -->
<!DOCTYPE svg PUBLIC "-//W3C//DTD SVG 1.1//EN" "http://www.w3.org/Graphics/SVG/1.1/DTD/svg11.dtd">
<svg version="1.1" id="Layer_1" xmlns="http://www.w3.org/2000/svg" xmlns:xlink="http://www.w3.org/1999/xlink" x="0px" y="0px"
	 width="1048.457px" height="436.5px" viewBox="0 0 1048.457 436.5" enable-background="new 0 0 1048.457 436.5"
	 xml:space="preserve">
<path fill="none" stroke="#000000" stroke-linejoin="round" stroke-miterlimit="10" d="M976.794,36.83
	C899.271,30.375,402.36,86.977,22.503,250.784c-26.782,13.805-23.793,39.45-20.171,47.243
	c3.612,7.793,124.867,105.914,144.336,127.139c31.367,24.82,42.089,1.754,47.04-2.416c45.863-29.799,618.376-264.32,618.376-264.32
	c-0.003,0,138.229-64.303,170.655-99.28c0.403-0.435,0.787-0.873,1.151-1.312c1.77-1.642,3.325-4.291,5.583-5.287
	c2.259-0.997,4.396,0.375,6.415,1.319l0.001,0.002c5.584,5.263,13.108,8.489,21.387,8.489c17.221,0,31.183-13.96,31.183-31.181
	c0-17.221-13.962-31.181-31.183-31.181s-31.182,13.96-31.182,31.181c0,0.739,0.024,1.473,0.076,2.2
	c-1.128,4.424-5.854,3.322-9.382,3.484L976.794,36.83z"/>
</svg>
