<?xml version="1.0" encoding="utf-8"?>
<!-- Generator: Adobe Illustrator 16.0.0, SVG Export Plug-In . SVG Version: 6.00 Build 0)  -->
<!DOCTYPE svg PUBLIC "-//W3C//DTD SVG 1.1//EN" "http://www.w3.org/Graphics/SVG/1.1/DTD/svg11.dtd">
<svg version="1.1" id="Layer_1" xmlns="http://www.w3.org/2000/svg" xmlns:xlink="http://www.w3.org/1999/xlink" x="0px" y="0px"
	 width="1198.078px" height="459.768px" viewBox="0 0 1198.078 459.768" enable-background="new 0 0 1198.078 459.768"
	 xml:space="preserve">
<path fill="none" stroke="#000000" stroke-miterlimit="10" d="M653.418,142.075L653.418,142.075L653.418,142.075L653.418,142.075z
	 M1197.252,121.448c0,0-5.209-44.594-5.209-44.593c-0.282-3.271-1.2-8.103-2.729-14.555c-6.109,1.045-25.668,4.549-58.619,10.38
	c-62.988,11.315-116.713,20.801-161.377,28.604c-139.947,24.432-213.375,37.209-220.355,38.303
	c-17.104,2.749-26.979,4.349-29.482,4.849l-14.536,2.893c-2.098,0.427-7.098,0.587-14.893,0.594
	c-5.013-0.001-10.06-0.323-15.076-0.712l-12.213,31.714c-2.424,6.296-5.097,12.519-8.116,18.551
	c-2.686,5.355-5.604,10.609-8.929,15.595c-1.034,1.552-2.067,3.107-3.166,4.616c-0.641,0.88-1.213,2.301-2.278,2.728
	c-1.961,0.783-2.035-1.857-1.99-3.077c0.042-1.139,0.133-2.276,0.17-3.415c0.072-2.242,0.209-4.482,0.395-6.719
	c0.405-4.926,1.062-9.83,1.875-14.704c0.503-3.008,1.068-6.006,1.688-8.993c0.366-1.555,8.688-35.389,8.84-35.789l2.172-5.644
	c-16.219-10.182-25.008-15.802-26.467-16.827c-6.021-4.4-21.615-18.197-46.763-41.456C526.961,34.678,495.965,6.775,487.384,0
	c-10.241,17.71-22.636,34.575-34.898,50.919c-4.364,5.814-7.741,10.707-14.507,13.738c-7.22,3.234-14.672,5.932-22.097,8.653
	c-16.528,6.059-25.896,9.552-28.241,10.424c-42.399,15.803-84.338,32.874-127.083,47.745
	c-47.402,16.488-94.288,34.412-141.521,51.368c-35.362,12.697-54.274,19.535-56.67,20.543c-0.226,0.992,13.085,8.507,40.063,22.596
	c72.959,38.101,175.593,99.591,262.176,151.464c28.464,17.051,50.818,27.512,67.252,31.523c0.297,0.034,29.406,5.379,29.771,5.44
	c4.78,0.604,14.886,1.408,30.182,2.358c79.062,4.669,149.418,10.688,211.007,18.044c15.12,1.809,25.096,2.948,30.092,3.403
	c0,0,15.045,1.396,15.047,1.398c5.26,0.557,10.229,1.082,15.037,1.623c66.246,7.68,106.334,12.771,120.166,15.319
	c15.301,2.815,36.98,8.593,46.117-9.004c3.197-6.16,6.851-12.177,10.27-18.229c2.968-5.253,5.942-10.492,8.854-15.776
	c7.926-14.385,15.809-27.242,23.695-38.71c10.903-15.707,26.399-35.511,46.731-59.47c30.815-36.354,62.104-69.137,93.801-98.363
	c11.009-10.152,22.179-20.151,34.095-29.232c27.842-21.223,43.196-34.059,46.043-38.44c2.543-3.806,4.229-8.173,5.02-13.035
	C1198.302,133.347,1198.146,128.349,1197.252,121.448z"/>
</svg>
