<?xml version="1.0" encoding="utf-8"?>
<!-- Generator: Adobe Illustrator 16.0.0, SVG Export Plug-In . SVG Version: 6.00 Build 0)  -->
<!DOCTYPE svg PUBLIC "-//W3C//DTD SVG 1.1//EN" "http://www.w3.org/Graphics/SVG/1.1/DTD/svg11.dtd">
<svg version="1.1" id="Layer_1" xmlns="http://www.w3.org/2000/svg" xmlns:xlink="http://www.w3.org/1999/xlink" x="0px" y="0px"
	 width="1135.717px" height="459.766px" viewBox="0 0 1135.717 459.766" enable-background="new 0 0 1135.717 459.766"
	 xml:space="preserve">
<path d="M591.056,142.077L591.056,142.077L591.056,142.077L591.056,142.077z M1134.89,121.45c0,0-5.209-44.594-5.209-44.593
	c-0.282-3.271-1.2-8.103-2.729-14.555c-6.108,1.045-25.668,4.549-58.619,10.38c-62.987,11.315-116.713,20.801-161.377,28.604
	c-139.946,24.432-213.375,37.209-220.354,38.303c-17.104,2.749-26.979,4.349-29.483,4.849l-14.536,2.893
	c-2.097,0.427-7.097,0.587-14.892,0.594c-5.014-0.001-10.062-0.323-15.076-0.712l-12.213,31.714
	c-2.424,6.296-5.097,12.519-8.117,18.551c-2.685,5.355-5.604,10.609-8.928,15.595c-1.034,1.552-2.069,3.107-3.166,4.616
	c-0.643,0.88-1.213,2.301-2.279,2.728c-1.961,0.783-2.035-1.857-1.99-3.077c0.042-1.139,0.134-2.276,0.17-3.415
	c0.072-2.242,0.209-4.482,0.396-6.719c0.405-4.926,1.062-9.83,1.875-14.704c0.503-3.008,1.067-6.006,1.688-8.993
	c0.366-1.555,8.688-35.389,8.842-35.789l2.172-5.644c-16.221-10.182-25.009-15.802-26.469-16.827
	c-6.021-4.4-21.613-18.197-46.763-41.456C464.6,34.68,433.604,6.777,425.022,0.002c-10.241,17.71-22.638,34.575-34.9,50.919
	c-4.363,5.814-7.74,10.707-14.506,13.738c-7.219,3.234-14.671,5.932-22.096,8.653c-16.528,6.059-25.896,9.552-28.241,10.424
	c-42.4,15.803-84.338,32.874-127.084,47.745c-47.401,16.488-94.288,34.412-141.521,51.368
	c-35.362,12.697-54.272,19.535-56.67,20.543c-0.227,0.992,13.085,8.507,40.062,22.596c72.959,38.101,175.594,99.591,262.176,151.464
	c28.464,17.051,50.82,27.512,67.252,31.522c0.297,0.034,29.408,5.379,29.771,5.44c4.777,0.604,14.886,1.408,30.182,2.358
	c79.061,4.668,149.417,10.688,211.005,18.044c15.121,1.809,25.097,2.947,30.093,3.402c0,0,15.045,1.396,15.047,1.398
	c5.262,0.557,10.229,1.082,15.037,1.623c66.245,7.68,106.334,12.771,120.166,15.319c15.302,2.814,36.981,8.593,46.116-9.005
	c3.199-6.159,6.854-12.177,10.271-18.229c2.968-5.253,5.939-10.492,8.854-15.774c7.927-14.387,15.811-27.244,23.697-38.712
	c10.903-15.706,26.397-35.511,46.729-59.47c30.815-36.354,62.104-69.139,93.803-98.363c11.009-10.152,22.179-20.151,34.095-29.232
	c27.84-21.223,43.196-34.059,46.043-38.44c2.543-3.806,4.228-8.173,5.019-13.035C1135.939,133.349,1135.782,128.351,1134.89,121.45z
	"/>
</svg>
