<?xml version="1.0" encoding="utf-8"?>
<!-- Generator: Adobe Illustrator 16.0.0, SVG Export Plug-In . SVG Version: 6.00 Build 0)  -->
<!DOCTYPE svg PUBLIC "-//W3C//DTD SVG 1.1//EN" "http://www.w3.org/Graphics/SVG/1.1/DTD/svg11.dtd">
<svg version="1.1" id="Layer_1" xmlns="http://www.w3.org/2000/svg" xmlns:xlink="http://www.w3.org/1999/xlink" x="0px" y="0px"
	 width="2356.079px" height="1212.168px" viewBox="0 0 2356.079 1212.168" enable-background="new 0 0 2356.079 1212.168"
	 xml:space="preserve">
<path fill="none" stroke="#000000" stroke-miterlimit="10" d="M2355.313,875.909l-4.961-44.621
	c-0.266-3.271-1.156-8.109-2.646-14.568c-6.115,1.013-25.695,4.404-58.676,10.056c-63.055,10.965-116.828,20.147-161.535,27.705
	c-140.08,23.649-213.578,36.02-220.561,37.073c-17.121,2.654-27.002,4.197-29.516,4.687l-14.553,2.811
	c-2.098,0.414-7.098,0.547-14.893,0.512c-5.014-0.026-10.059-0.381-15.072-0.797l-12.391,31.646
	c-5.096,13.025-11.52,24.926-19.055,36.658c-0.834,1.299-1.639,3.112-2.9,4.061c-3.738,2.81-2.428-7.883-2.336-9.428
	c0.322-5.512,1.039-10.988,1.93-16.438c0.57-3.477,1.248-6.938,1.98-10.385c0.375-1.553,8.885-35.34,9.039-35.74l2.203-5.631
	c-16.162-10.27-24.922-15.938-26.375-16.975c-5.996-4.437-21.514-18.316-46.529-41.715c-52.953-49.41-83.795-77.484-92.338-84.312
	c-7.223,12.332-39.094,57.613-44.172,61.502c-2.605,1.916-11.828,5.73-27.734,11.41c-16.562,5.967-25.951,9.406-28.301,10.269
	c-42.488,15.563-84.52,32.401-127.35,47.034c-47.492,16.228-94.479,33.89-141.805,50.58c-35.436,12.5-54.383,19.232-56.783,20.229
	c-0.23,0.992,13.035,8.58,39.938,22.815c72.746,38.511,175.035,100.566,261.328,152.924c25.775,15.64,52.756,29.361,82.541,35.285
	c14.658,2.916,29.561,3.785,44.441,4.746c79.031,5.109,149.354,11.521,210.898,19.221c15.109,1.894,25.08,3.091,30.072,3.57
	c0,0,15.037,1.48,15.039,1.482c5.256,0.586,10.223,1.139,15.027,1.705c66.195,8.047,106.254,13.362,120.076,15.987
	c14.107,2.681,30.891,6.562,42.533-4.573c10.57-10.115,15.92-25.582,22.945-38.068c8.006-14.34,15.961-27.154,23.914-38.578
	c10.992-15.645,26.596-35.363,47.061-59.207c31.021-36.186,62.488-68.791,94.35-97.84c11.061-10.092,22.289-20.027,34.256-29.043
	c27.959-21.066,43.387-33.816,46.256-38.184c2.564-3.791,4.273-8.148,5.094-13.009
	C2356.295,887.815,2356.167,882.815,2355.313,875.909z M983.988,76.292c9.305-9.919,8.373-21.287-3.901-22.16
	c-70.768-8.004-573.319,45.352-957.39,208.445C-4.162,276.237-1.316,301.9,2.263,309.712
	c3.569,7.813,124.275,106.606,143.627,127.938c31.228,24.996,42.078,1.986,47.052-2.154
	C238.971,405.952,812.78,174.62,812.78,174.62C812.779,174.619,951.368,111.087,983.988,76.292z M1376.348,883.155
	c20.52-7.023,75.271-27.431,112.803-41.418c28.119-10.48,56.229-20.984,84.166-31.945l13.996-5.49
	c6.617-2.586,60.533-58.969,73.883-75.604c-4.215-5.465-17.66-20.414-40.332-44.853c-37.689-40.608-75.012-81.564-111.725-123.062
	c-43.381-49.035-89.6-95.512-132.338-145.121c-29.598-34.355-60.971-67.125-91.271-100.85c-5.154-5.736-10.312-11.467-15.463-17.206
	c-4.223-4.704-8.49-9.365-12.699-14.08c-3.289-3.686-6.684-7.275-9.965-10.967c-2.375-2.673-4.869-5.227-7.27-7.876
	c-1.373-1.517-2.818-2.966-4.32-4.356c-1.383-1.28-2.676-2.928-4.5-3.594c-1.49-0.544-2.977,0.296-4.352,0.826
	c-3.051,1.176-6.148,2.23-9.207,3.399c-1.219,0.467-2.422,0.983-3.627,1.484l-63.294,26.23c-1.455,0.659-2.926,1.295-4.375,1.971
	c-2.593,1.208-5.211,2.354-7.825,3.51c-1.233,0.547-2.521,1.143-3.893,1.22c-1.402,0.08-2.729-0.45-3.834-1.288
	c-0.771-0.585-1.275-1.456-1.875-2.205c-1.479-1.847-2.809-3.852-4.162-5.79c-1.146-1.646-2.325-3.271-3.46-4.928
	c-11.375-16.602-18.3-28.02-27.129-55.146c-9.704-30.001-10.65-70.459,0.192-106.928c0.38-1.285,0.759-2.569,1.14-3.854
	c0.71-2.397,1.418-4.795,2.124-7.193c0.342-1.16,0.893-2.262,1.088-3.463c0.504-3.09-0.133-6.244-0.609-9.295
	c-0.403-2.578-0.472-5.414-2.562-7.287c-2.004-1.797-4.878-2.545-7.41-3.257c-0.873-0.246-1.751-0.473-2.628-0.706
	c-1.116-0.296-2.251-0.512-3.364-0.82c-1.489-0.412-2.962-0.887-4.458-1.277c-1.541-0.402-3.096-0.749-4.634-1.16
	c-1.776-0.475-3.542-0.988-5.323-1.442c-1.806-0.46-3.621-0.885-5.424-1.356c-1.949-0.509-3.891-1.043-5.844-1.534
	c-1.94-0.487-3.887-0.95-5.823-1.446c-2.001-0.514-3.998-1.045-6.004-1.542c-1.945-0.482-3.896-0.945-5.837-1.436
	c-1.934-0.488-3.862-0.988-5.798-1.461c-1.823-0.446-3.649-0.876-5.473-1.328c-1.739-0.431-3.479-0.873-5.225-1.291
	c-1.575-0.378-3.153-0.743-4.729-1.124c-1.427-0.345-2.852-0.698-4.278-1.031c-1.2-0.28-2.404-0.546-3.604-0.823
	c-0.988-0.228-1.979-0.464-2.972-0.68c-0.694-0.151-1.394-0.287-2.089-0.423c-0.102-0.021-0.675-0.203-0.741-0.146
	c-5.117,4.326-8.771,7.649-11.101,10.062c0,0-10.588,10.925-10.586,10.926c-6.445,6.719-18.268,16.297-35.427,28.682
	c-11.311,8.217-24.243,15.946-38.731,23.223c-16.905,8.537-30.367,15.236-40.354,20.13c-6.854,2.507-15.688,6.788-28.109,12.547
	C704.351,232,488.963,317.945,312.065,388.536c-23.191,9.254-46.239,18.999-69.544,27.948c-7.522,2.888-14.855,6.19-22.351,9.107
	c-7.769,3.023-18.786,4.716-22.953,13.019c-5.556,11.067,3.574,28.188,8.776,37.881c6.312,11.76,14.963,22.369,26.426,29.422
	c10.853,6.68,24.035,7.967,35,14.623c11.241,6.822,19.34,17.211,25.463,28.671c3.113,5.826,5.955,12.693,12.379,15.589
	c8.104,3.653,17.428-0.559,25.246-2.931c13.022-3.951,22.778-6.764,29.407-8.475c34.521-8.973,59.568-13.715,75.117-14.295
	c7.387-0.21,12.439-0.166,15.275,0.254c10.571,1.605,19.659,5.771,27.228,12.354c4.13,3.593,9.11,7.857,9.955,13.576
	c0.948,6.424-4.317,12.222-9.86,14.798c-3.872,1.799-8.223,3.019-12.237,4.504c0,0-14.681,5.434-14.681,5.435
	c-15.97,5.926-31.832,12.18-47.634,18.533c-15.184,6.105-30.362,12.312-45.332,18.896c-6.025,2.647-12.032,7.397-14.181,13.793
	c-2.719,8.082,0.207,17.021,2.35,24.918c3.743,13.789,6.396,28.022,2.613,42.092c-3.224,11.979-9.442,23.967-18.138,32.879
	c-4.851,4.976-10.878,9.685-17.007,12.988c-1.432,0.734-6.245,2.725-14.438,5.965c0,0-14.503,5.678-14.528,5.688
	c-4.645,1.817-13.136,9.758-10.145,15.069c2.547,4.525,7.824,6.668,11.77,9.73c4.859,3.772,9.293,8.014,14.527,11.301
	c9.012,5.662,19.43,9.98,30.263,9.225c11.587-0.809,22.363-6.647,32.943-10.946c0,0,13.86-5.64,13.862-5.64
	c24.641-9.811,71.938-26.271,141.848-49.293l44.138-10.764c43.203-9.123,83.599-12.881,121.003-11.365
	c57.673,2.361,85.26,14.904,129.879,36.729c9.646,4.748,28.001,13.172,54.867,25.334c21.084,9.477,34.875,15.75,41.217,18.791
	c22.729,10.901,45.821,21.021,68.583,31.854c32.627,15.531,50.892,24.135,54.646,25.853c18.923,8.557,36.961,16.885,54.48,25.789
	c51.144,24.311,92.937,44.284,104.662,50.102l13.635,6.74c6.367-1.984,11.08-3.652,14.229-4.871
	C1272.233,919.489,1324.188,901.01,1376.348,883.155z"/>
</svg>
