<?xml version="1.0" encoding="utf-8"?>
<!-- Generator: Adobe Illustrator 16.0.0, SVG Export Plug-In . SVG Version: 6.00 Build 0)  -->
<!DOCTYPE svg PUBLIC "-//W3C//DTD SVG 1.1//EN" "http://www.w3.org/Graphics/SVG/1.1/DTD/svg11.dtd">
<svg version="1.1" id="Layer_1" xmlns="http://www.w3.org/2000/svg" xmlns:xlink="http://www.w3.org/1999/xlink" x="0px" y="0px"
	 width="2356.078px" height="1158.805px" viewBox="0 0 2356.078 1158.805" enable-background="new 0 0 2356.078 1158.805"
	 xml:space="preserve">
<path d="M2355.312,822.547l-4.961-44.621c-0.264-3.271-1.156-8.108-2.646-14.567c-6.115,1.014-25.695,4.403-58.679,10.057
	c-63.053,10.965-116.825,20.146-161.532,27.705c-140.08,23.647-213.578,36.02-220.562,37.072
	c-17.121,2.653-27.002,4.196-29.514,4.688l-14.554,2.812c-2.1,0.414-7.1,0.547-14.895,0.512c-5.012-0.027-10.058-0.381-15.072-0.797
	l-12.389,31.646c-5.097,13.025-11.521,24.927-19.056,36.658c-0.834,1.299-1.641,3.111-2.901,4.062
	c-3.738,2.809-2.427-7.884-2.334-9.429c0.321-5.512,1.039-10.987,1.93-16.438c0.568-3.478,1.248-6.938,1.98-10.385
	c0.375-1.554,8.883-35.341,9.038-35.74l2.203-5.631c-16.162-10.271-24.924-15.938-26.375-16.976
	c-5.996-4.436-21.516-18.315-46.528-41.715c-52.955-49.41-83.796-77.484-92.339-84.311c-7.225,12.332-39.096,57.612-44.172,61.502
	c-2.606,1.916-11.828,5.729-27.735,11.409c-16.562,5.968-25.951,9.406-28.299,10.269c-42.49,15.563-84.521,32.402-127.353,47.035
	c-47.49,16.227-94.477,33.889-141.803,50.58c-35.434,12.5-54.383,19.231-56.785,20.229c-0.229,0.992,13.037,8.58,39.938,22.816
	c72.746,38.51,175.035,100.565,261.328,152.924c25.773,15.639,52.756,29.36,82.543,35.285c14.656,2.916,29.56,3.785,44.438,4.746
	c79.033,5.108,149.354,11.521,210.901,19.221c15.107,1.893,25.08,3.09,30.07,3.569c0,0,15.037,1.48,15.039,1.482
	c5.256,0.586,10.225,1.139,15.027,1.705c66.194,8.047,106.254,13.361,120.076,15.986c14.106,2.682,30.891,6.562,42.532-4.572
	c10.57-10.115,15.92-25.582,22.945-38.068c8.006-14.34,15.961-27.154,23.914-38.578c10.99-15.645,26.596-35.362,47.062-59.207
	c31.021-36.186,62.488-68.791,94.349-97.84c11.062-10.092,22.289-20.026,34.256-29.043c27.959-21.065,43.389-33.815,46.258-38.184
	c2.562-3.791,4.271-8.148,5.093-13.01C2356.296,834.454,2356.167,829.454,2355.312,822.547z M983.988,22.931
	c9.306-9.919,8.373-21.287-3.898-22.16C909.319-7.233,406.77,46.123,22.697,209.216c-26.859,13.66-24.013,39.323-20.434,47.135
	c3.567,7.813,124.273,106.606,143.627,127.938c31.229,24.996,42.076,1.986,47.052-2.154
	c46.029-29.544,619.838-260.876,619.838-260.876C812.779,121.258,951.366,57.726,983.988,22.931z M1376.347,829.793
	c20.52-7.023,75.271-27.43,112.803-41.418c28.119-10.48,56.229-20.984,84.166-31.945l13.996-5.489
	c6.617-2.587,60.533-58.97,73.883-75.604c-4.215-5.465-17.66-20.414-40.332-44.852c-37.688-40.609-75.012-81.564-111.725-123.063
	c-43.381-49.035-89.601-95.512-132.338-145.121c-29.601-34.355-60.972-67.125-91.271-100.85
	c-5.151-5.736-10.312-11.467-15.463-17.206c-4.223-4.704-8.49-9.365-12.699-14.08c-3.288-3.686-6.684-7.275-9.965-10.967
	c-2.375-2.673-4.869-5.227-7.268-7.876c-1.375-1.517-2.82-2.966-4.322-4.356c-1.381-1.28-2.676-2.928-4.5-3.594
	c-1.49-0.544-2.977,0.296-4.35,0.826c-3.056,1.176-6.15,2.229-9.207,3.399c-1.224,0.467-2.424,0.983-3.629,1.484l-63.296,26.23
	c-1.453,0.659-2.926,1.295-4.375,1.971c-2.593,1.208-5.211,2.354-7.822,3.51c-1.235,0.547-2.521,1.143-3.896,1.22
	c-1.399,0.08-2.728-0.45-3.834-1.288c-0.771-0.585-1.272-1.456-1.875-2.205c-1.478-1.847-2.809-3.852-4.161-5.79
	c-1.146-1.646-2.324-3.271-3.461-4.928c-11.375-16.602-18.3-28.02-27.129-55.146c-9.703-30.001-10.648-70.459,0.193-106.928
	c0.379-1.285,0.758-2.569,1.139-3.854c0.71-2.397,1.418-4.795,2.124-7.193c0.343-1.16,0.896-2.262,1.089-3.463
	c0.504-3.09-0.134-6.244-0.609-9.295c-0.403-2.578-0.472-5.414-2.562-7.287c-2.004-1.797-4.878-2.545-7.41-3.257
	c-0.873-0.246-1.75-0.473-2.628-0.706c-1.115-0.296-2.251-0.512-3.363-0.82c-1.489-0.412-2.962-0.887-4.458-1.277
	c-1.541-0.402-3.097-0.749-4.635-1.16c-1.775-0.475-3.542-0.988-5.322-1.442c-1.807-0.46-3.621-0.885-5.424-1.356
	c-1.949-0.509-3.892-1.043-5.845-1.534c-1.938-0.487-3.886-0.95-5.823-1.446c-2-0.514-3.998-1.045-6.004-1.542
	c-1.943-0.482-3.896-0.945-5.837-1.436c-1.934-0.488-3.862-0.988-5.798-1.461c-1.823-0.446-3.648-0.876-5.473-1.328
	c-1.739-0.431-3.479-0.873-5.225-1.291c-1.575-0.378-3.153-0.743-4.729-1.124c-1.429-0.345-2.854-0.698-4.28-1.031
	c-1.2-0.28-2.403-0.546-3.604-0.823c-0.987-0.228-1.979-0.464-2.973-0.68c-0.693-0.151-1.392-0.287-2.089-0.423
	c-0.102-0.021-0.675-0.203-0.74-0.146c-5.117,4.326-8.771,7.649-11.102,10.062c0,0-10.586,10.925-10.585,10.926
	c-6.446,6.719-18.269,16.297-35.428,28.682c-11.312,8.217-24.241,15.946-38.731,23.223c-16.905,8.537-30.367,15.236-40.354,20.13
	c-6.854,2.507-15.688,6.788-28.108,12.547c-135.334,62.717-350.723,148.662-527.62,219.253
	c-23.19,9.254-46.238,18.999-69.544,27.948c-7.521,2.888-14.854,6.191-22.353,9.108c-7.77,3.023-18.786,4.716-22.953,13.019
	c-5.556,11.067,3.574,28.188,8.776,37.881c6.312,11.76,14.963,22.369,26.426,29.422c10.854,6.681,24.035,7.968,35,14.623
	c11.241,6.822,19.34,17.211,25.463,28.671c3.113,5.826,5.956,12.693,12.38,15.589c8.104,3.653,17.428-0.559,25.246-2.931
	c13.021-3.951,22.776-6.764,29.405-8.475c34.522-8.974,59.568-13.715,75.117-14.295c7.389-0.21,12.441-0.166,15.277,0.254
	c10.57,1.604,19.658,5.771,27.226,12.354c4.132,3.593,9.111,7.858,9.955,13.576c0.949,6.424-4.315,12.222-9.858,14.798
	c-3.872,1.799-8.225,3.019-12.236,4.504l-14.682,5.435c-15.972,5.926-31.832,12.18-47.636,18.533
	c-15.183,6.104-30.36,12.312-45.332,18.896c-6.022,2.648-12.03,7.398-14.181,13.793c-2.717,8.082,0.207,17.021,2.351,24.918
	c3.742,13.789,6.396,28.023,2.612,42.092c-3.222,11.98-9.44,23.968-18.136,32.879c-4.853,4.978-10.878,9.687-17.008,12.988
	c-1.434,0.734-6.244,2.726-14.439,5.965c0,0-14.503,5.679-14.527,5.689c-4.646,1.815-13.136,9.758-10.146,15.067
	c2.547,4.525,7.823,6.669,11.771,9.73c4.858,3.773,9.293,8.014,14.526,11.301c9.013,5.662,19.432,9.98,30.264,9.226
	c11.588-0.81,22.362-6.646,32.942-10.945c0,0,13.861-5.641,13.864-5.641c24.639-9.812,71.936-26.271,141.846-49.294l44.139-10.764
	c43.202-9.123,83.601-12.881,121.004-11.365c57.673,2.361,85.261,14.904,129.879,36.73c9.646,4.748,28.001,13.172,54.866,25.334
	c21.084,9.477,34.875,15.75,41.218,18.791c22.729,10.9,45.82,21.02,68.583,31.854c32.627,15.531,50.893,24.136,54.646,25.853
	c18.924,8.557,36.961,16.885,54.482,25.789c51.142,24.311,92.935,44.285,104.66,50.102l13.637,6.74
	c6.365-1.984,11.078-3.652,14.227-4.871C1272.232,866.127,1324.187,847.649,1376.347,829.793z"/>
</svg>
