<?xml version="1.0" encoding="utf-8"?>
<!-- Generator: Adobe Illustrator 16.0.0, SVG Export Plug-In . SVG Version: 6.00 Build 0)  -->
<!DOCTYPE svg PUBLIC "-//W3C//DTD SVG 1.1//EN" "http://www.w3.org/Graphics/SVG/1.1/DTD/svg11.dtd">
<svg version="1.1" id="Layer_1" xmlns="http://www.w3.org/2000/svg" xmlns:xlink="http://www.w3.org/1999/xlink" x="0px" y="0px"
	 width="658.275px" height="462.637px" viewBox="0 0 658.275 462.637" enable-background="new 0 0 658.275 462.637"
	 xml:space="preserve">
<path fill="none" stroke="#000000" stroke-linejoin="round" stroke-miterlimit="10" d="M603.336,51.376
	c-4.63-5.441-7.424-12.492-7.424-20.195C595.912,13.96,609.872,0,627.094,0c17.221,0,31.182,13.96,31.182,31.181
	c0,17.221-13.961,31.181-31.182,31.181c-1.375,0-2.729-0.089-4.059-0.262c-5.911,1.012-5.949,5.121-7.421,10.16l-18.106,217.401
	c-1.429,17.179-5.875,34.905-21.521,43.108c0,0-176.971,100.051-240.633,124.604c-6.479,2.5-20.419,5.283-27.403,5.262
	c-6.726-0.018-20.116-2.787-26.349-5.207C217.747,432.638,39.874,332.59,39.874,332.59c-15.644-8.199-20.091-25.928-21.522-43.109
	L0.138,70.825c-2.347-28.17,25.503-2.596,51.325,0c146.113,14.688,367.235,14.827,512.934,0.182
	c11.126-1.118,22.63-6.503,31.931-10.017c0.214-0.156,0.426-0.312,0.639-0.467c3.231-2.367,7.169-4.445,6.368-9.15L603.336,51.376z"
	/>
</svg>
