<?xml version="1.0" encoding="utf-8"?>
<!-- Generator: Adobe Illustrator 16.0.0, SVG Export Plug-In . SVG Version: 6.00 Build 0)  -->
<!DOCTYPE svg PUBLIC "-//W3C//DTD SVG 1.1//EN" "http://www.w3.org/Graphics/SVG/1.1/DTD/svg11.dtd">
<svg version="1.1" id="Layer_1" xmlns="http://www.w3.org/2000/svg" xmlns:xlink="http://www.w3.org/1999/xlink" x="0px" y="0px"
	 width="486.924px" height="853.833px" viewBox="0 0 486.924 853.833" enable-background="new 0 0 486.924 853.833"
	 xml:space="preserve">
<path stroke="#000000" stroke-width="1.0001" stroke-miterlimit="2.6131" d="M6.949,821.341
	c42.998-204.645,81.207-409.977,108.908-616.835l16.709-142.789l5.92-46.21c0,0,7.949-36.865,23.123,4.964
	c0,0,24.609,377.975,305.092,146.619c0,0,4.707-1.43,9.279,2.681c0.132,0.062,0.262,0.124,0.391,0.187
	c6.005,4.189,12.103,14.356,9.389,38.87l-1.98,12.725c-0.579,2.967-0.984,5.632-1.25,8.049l-1.221,7.845l-0.003,0.015L429.77,568.81
	c-12.43,79.908-71.84,124.852-144.236,165.77c-87.408,49.402-173.256,88.469-263.752,115.408
	C-9.17,859.199,1.072,849.312,6.949,821.341z"/>
</svg>
