<?xml version="1.0" encoding="utf-8"?>
<!-- Generator: Adobe Illustrator 16.0.0, SVG Export Plug-In . SVG Version: 6.00 Build 0)  -->
<!DOCTYPE svg PUBLIC "-//W3C//DTD SVG 1.1//EN" "http://www.w3.org/Graphics/SVG/1.1/DTD/svg11.dtd">
<svg version="1.1" id="Layer_1" xmlns="http://www.w3.org/2000/svg" xmlns:xlink="http://www.w3.org/1999/xlink" x="0px" y="0px"
	 width="1542.039px" height="426.85px" viewBox="0 0 1542.039 426.85" enable-background="new 0 0 1542.039 426.85"
	 xml:space="preserve">
<path d="M1533.563,411.998C1188.894,297.637,841.864,190.611,495.219,82.457c-39.839-12.054-79.688-24.082-119.706-35.503
	c-32.517-9.276-65.151-18.165-98.093-25.829C224.869,8.896,171.736,0.032,117.633,0C79.065-0.021,40.883,4.438,3.069,11.862
	c-0.627,0.123-2.291,0.507-3.07,0.959c0.158,0.588,0.623,1.464,0.847,1.847c12.2,21.112,36.45,39.541,56.532,52.857
	c14.588,9.675,29.775,18.438,45.197,26.708c17.582,9.428,35.498,18.205,53.584,26.621L705.29,369.229
	c25.871-13.858,53.322-24.955,81.271-33.836c30.909-9.819,62.729-16.983,94.878-21.317c42.683-5.755,86.851-6.659,129.479-0.011
	c88.342,13.785,176.004,31.597,263.174,51.416c84.076,19.115,167.709,40.101,251.431,60.694c3.966,0.977,8.528,1.057,12.229-0.865
	c1.987-1.027,4.022-2.895,4.266-5.251C1542.446,415.824,1536.876,413.097,1533.563,411.998z"/>
</svg>
