<?xml version="1.0" encoding="utf-8"?>
<!-- Generator: Adobe Illustrator 16.0.0, SVG Export Plug-In . SVG Version: 6.00 Build 0)  -->
<!DOCTYPE svg PUBLIC "-//W3C//DTD SVG 1.1//EN" "http://www.w3.org/Graphics/SVG/1.1/DTD/svg11.dtd">
<svg version="1.1" id="Layer_1" xmlns="http://www.w3.org/2000/svg" xmlns:xlink="http://www.w3.org/1999/xlink" x="0px" y="0px"
	 width="1394.502px" height="858.562px" viewBox="0 0 1394.502 858.562" enable-background="new 0 0 1394.502 858.562"
	 xml:space="preserve">
<path d="M1384.432,377.754L798.396,113.083c-35.673-16.111-70.69-34.207-103.646-55.381c-12.745-8.189-25.202-16.865-37.092-26.271
	c-9.385-7.427-18.479-15.328-26.731-24.008c-3.957-4.163-10.367-8.541-16.412-7.166c-27.658,6.289-54.576,15.487-80.521,26.939
	c-2.231,0.984-5.271,3.245-4.562,6.059c5.143,20.284,7.113,41.091,5.406,61.965c-1.384,16.929-5.146,33.484-10.922,49.447
	c-7.354,20.344-17.834,39.424-30.203,57.134c-1.189,1.706-2.873,3.214-4.619,4.339c-2.575,1.657-6.33,3.08-9.295,1.683
	l-66.922-31.582c-6.617-3.122-15.845,0.062-20.673,5.106C259.8,319.699,134.104,464.418,14.64,614.074
	c-9.473,11.861-16.543,26.51-14.182,42.055c3.506,23.062,25.937,38.438,45.516,47.604l303.917,142.258
	c8.646,4.047,17.655,8.114,26.888,10.619c6.125,1.655,12.146,2.465,18.479,1.604c8.861-1.201,17.898-5.543,26.093-9.021
	l371.52-157.728c27.142-11.521,56.062-27.004,86.354-25.971c53.401,1.822,106.822,6.557,159.479,15.787
	c44.636,7.823,88.865,18.914,131.354,34.766c10.178,3.799,20.162,8.07,30.053,12.551c8.465,3.836,16.854,7.839,25.365,11.562
	c13.146,5.75,28.074,11.617,42.666,10.664c13.229-0.863,24.187-7.146,33.943-15.767c2.076-1.838,5.578-5.271,4.008-8.342
	c-1.344-2.625-5.49-3.049-8.082-3.524c-22.512-4.191-43.914-14.027-57.477-33.152c-18.832-26.56-16.404-61.869-7.98-91.703
	c1.336-4.723,2.105-10.522-1.99-14.143c-2.813-2.488-6.885-3.084-10.271-4.529c-7.408-3.156-14.875-6.174-22.377-9.104
	c-29.191-11.394-58.846-21.572-87.834-33.48c-3.043-1.252-6.053-2.609-8.889-4.283c-6.175-3.643-11.854-8.938-9.324-16.83
	l4.646-14.516c1.527-4.771,7.52-9.074,11.688-11.551c6.854-4.068,14.774-7.015,22.513-8.896c8.645-2.102,18.896-3.271,27.646-1.324
	l104.584,23.291c13.237,2.949,16.593,1.812,23.427-10.041c3.38-5.856,9.399-13.01,14.882-16.975
	c23.038-16.666,49.143-28.213,73.312-43.01c6.579-4.028,13.339-10.139,15.271-17.895l4.268-17.121
	C1395.922,390.638,1391.31,380.859,1384.432,377.754z"/>
</svg>
