<?xml version="1.0" encoding="utf-8"?>
<!-- Generator: Adobe Illustrator 16.0.0, SVG Export Plug-In . SVG Version: 6.00 Build 0)  -->
<!DOCTYPE svg PUBLIC "-//W3C//DTD SVG 1.1//EN" "http://www.w3.org/Graphics/SVG/1.1/DTD/svg11.dtd">
<svg version="1.1" id="Layer_1" xmlns="http://www.w3.org/2000/svg" xmlns:xlink="http://www.w3.org/1999/xlink" x="0px" y="0px"
	 width="1441.363px" height="863.136px" viewBox="0 0 1441.363 863.136" enable-background="new 0 0 1441.363 863.136"
	 xml:space="preserve">
<path fill="none" stroke="#000000" stroke-linejoin="round" stroke-miterlimit="10" d="M1386.294,668.957
	c5.721-6.811,14.299-11.139,23.889-11.139c17.222,0,31.183,13.961,31.183,31.182c0,17.223-13.961,31.182-31.183,31.182
	c-16.699,0-30.333-13.127-31.145-29.625c-0.349-0.754-0.383-2.293-1.579-2.037c-0.779,0.168-1.342,1.041-1.931,1.512
	c-8.954,14.283-25.713,24.119-40.539,30.439l-308.688,131.592c-8.701,3.709-17.779,7.441-27.007,9.605
	c-5.991,1.398-11.854,1.988-17.959,0.938c-8.643-1.479-17.487-6.119-25.403-9.811L590.126,682.228
	c-26.98-12.572-55.384-29.068-85.996-29.092c-53.5-0.035-107.117,2.842-160.129,10.24c-44.968,6.273-89.641,15.84-132.738,30.236
	c-10.331,3.443-20.491,7.379-30.562,11.521c-8.586,3.537-17.103,7.244-25.736,10.668c-13.09,5.189-28.066,10.514-42.346,9.076
	c-12.87-1.289-23.322-7.822-32.542-16.551c-1.404-1.33-4.673-4.57-3.452-6.76c1.085-1.951,5.215-2.242,7.171-2.533
	c23.023-3.461,45.062-12.734,59.513-31.674c20.025-26.256,18.907-62.014,11.418-92.566c-1.021-4.162-1.712-9.57,2.009-12.631
	c2.613-2.152,6.892-2.73,10.035-3.941c7.5-2.893,15.053-5.643,22.639-8.303c29.577-10.373,59.575-19.52,88.971-30.416
	c3.149-1.168,6.263-2.453,9.214-4.057c6.919-3.77,13.048-9.438,10.595-18.125l-4.139-14.668c-1.477-5.232-7.448-9.916-11.881-12.764
	c-6.828-4.381-14.769-7.65-22.569-9.84c-8.788-2.461-19.188-4-28.229-2.311l-105.334,19.635
	c-12.705,2.371-15.436,1.381-21.548-10.123c-3.269-6.154-9.168-13.662-14.664-17.936c-22.485-17.493-48.181-29.948-71.861-45.602
	c-6.102-4.034-12.455-10.101-14.035-17.524L0.26,368.934c-1.423-6.686,3.173-15.622,9.52-18.226l594.894-244.114
	c36.277-14.886,71.966-31.783,105.695-51.831c13.064-7.766,25.855-16.027,38.097-25.042c9.694-7.136,19.11-14.756,27.709-23.189
	c3.7-3.635,9.854-7.673,15.299-6.232c27.336,7.224,53.832,17.322,79.274,29.628c1.481,0.716,4.175,2.585,3.604,4.546
	c-5.883,20.241-8.598,41.124-7.611,62.199c1.838,39.272,16.416,75.924,37.614,108.653c1.233,1.903,2.991,3.6,4.849,4.891
	c2.955,2.048,7.089,3.651,10.603,2.142l67.979-29.233c6.142-2.644,14.625,0.717,18.857,5.465
	c127.488,142.843,248.041,291.816,362.199,445.503c7.373,9.93,13.114,21.746,13.125,34.162
	C1383.208,670.212,1384.405,669.824,1386.294,668.957z"/>
</svg>
