<?xml version="1.0" encoding="utf-8"?>
<!-- Generator: Adobe Illustrator 16.0.0, SVG Export Plug-In . SVG Version: 6.00 Build 0)  -->
<!DOCTYPE svg PUBLIC "-//W3C//DTD SVG 1.1//EN" "http://www.w3.org/Graphics/SVG/1.1/DTD/svg11.dtd">
<svg version="1.1" id="Layer_1" xmlns="http://www.w3.org/2000/svg" xmlns:xlink="http://www.w3.org/1999/xlink" x="0px" y="0px"
	 width="2903.994px" height="1074.832px" viewBox="0 0 2903.994 1074.832" enable-background="new 0 0 2903.994 1074.832"
	 xml:space="preserve">
<path d="M1084.115,883.834L787.091,747.469c-40.786-18.725-72.475-48.312-79.238-63.6c-2.396-5.418-2.987-19.588-11.479-13.566
	l-120.841,85.689c-7.849,5.561-9.942,15.213-4.807,22.557l15.814,22.597c3.604,5.146,12.125,11.186-1.13,19.409
	c-27.681,17.185-67.277,26.218-104.909,13.166c-8.343-2.893-11.38-5.629-11.017-13.789l0.886-19.811
	c0.438-9.83-0.415-15.541-12.01-18.594l-410.271-108c-17.322-4.562-34.56,0.811-37.858,19.776L0.645,748.38
	c-2.125,12.207,0.956,25.822,9.678,34.357c39.511,38.664,78.224,74.242,113.146,118.047c30.817,38.654,58.856,83.57,79.473,144.742
	c11.021,32.694,23.601,30.065,40.008,28.489c142.862-13.709,293.271-22.428,422.199-15.598
	c81.464,4.316,140.82-20.719,198.733-50.895l220.773-115.039C1088.822,890.328,1088.556,885.875,1084.115,883.834z
	 M2097.878,395.479l-586.033-264.67c-35.672-16.111-70.691-34.207-103.646-55.381c-12.746-8.188-25.203-16.865-37.09-26.27
	c-9.386-7.427-18.479-15.328-26.733-24.008c-3.957-4.163-10.365-8.541-16.41-7.166c-27.66,6.289-54.578,15.487-80.521,26.939
	c-2.232,0.985-5.271,3.246-4.562,6.059c5.142,20.284,7.11,41.091,5.403,61.965c-1.383,16.929-5.146,33.484-10.922,49.447
	c-7.354,20.344-17.834,39.424-30.203,57.134c-1.188,1.706-2.873,3.214-4.616,4.339c-2.576,1.657-6.33,3.08-9.298,1.682
	l-66.922-31.582c-6.614-3.122-15.842,0.062-20.672,5.107c-132.409,138.35-258.102,283.066-377.566,432.725
	c-9.476,11.865-16.545,26.51-14.185,42.055c3.506,23.062,25.938,38.439,45.519,47.605l303.918,142.258
	c8.646,4.047,17.652,8.115,26.887,10.619c6.125,1.66,12.146,2.465,18.478,1.605c8.863-1.199,17.9-5.545,26.096-9.021
	l371.521-157.727c27.143-11.523,56.065-27.011,86.354-25.978c53.399,1.822,106.819,6.562,159.479,15.787
	c44.635,7.824,88.864,18.914,131.354,34.769c10.176,3.803,20.162,8.067,30.051,12.555c8.466,3.836,16.853,7.838,25.367,11.561
	c13.146,5.75,28.071,11.617,42.666,10.664c13.229-0.863,24.185-7.145,33.94-15.762c2.076-1.838,5.578-5.273,4.011-8.342
	c-1.347-2.625-5.492-3.056-8.082-3.529c-22.515-4.191-43.914-14.027-57.479-33.152c-18.832-26.559-16.403-61.869-7.979-91.703
	c1.338-4.723,2.104-10.522-1.99-14.143c-2.815-2.488-6.885-3.084-10.272-4.529c-7.405-3.153-14.875-6.174-22.377-9.102
	c-29.188-11.396-58.844-21.576-87.834-33.484c-3.043-1.252-6.051-2.606-8.887-4.283c-6.175-3.643-11.854-8.938-9.326-16.832
	l4.646-14.518c1.524-4.771,7.517-9.074,11.688-11.551c6.854-4.068,14.776-7.01,22.517-8.894c8.643-2.104,18.895-3.271,27.646-1.32
	l104.584,23.291c13.239,2.945,16.592,1.807,23.426-10.042c3.381-5.86,9.401-13.013,14.884-16.979
	c23.036-16.666,49.145-28.212,73.312-43.01c6.58-4.027,13.338-10.135,15.271-17.891l4.27-17.123
	C2109.368,408.361,2104.759,398.584,2097.878,395.479z M2895.519,412c-344.67-114.36-691.697-221.386-1038.345-329.542
	c-39.838-12.053-79.688-24.082-119.707-35.502c-32.517-9.277-65.149-18.166-98.09-25.83C1586.823,8.896,1533.692,0.034,1479.589,0
	c-38.567-0.021-76.75,4.439-114.562,11.863c-0.627,0.123-2.291,0.507-3.068,0.959c0.156,0.588,0.623,1.464,0.847,1.846
	c12.201,21.113,36.451,39.541,56.532,52.858c14.589,9.675,29.773,18.437,45.196,26.708c17.582,9.428,35.498,18.205,53.584,26.621
	l549.132,248.373c25.871-13.858,53.321-24.954,81.271-33.836c30.91-9.819,62.729-16.982,94.877-21.316
	c42.685-5.755,86.853-6.661,129.479-0.01c88.343,13.783,176.004,31.595,263.175,51.415c84.075,19.115,167.709,40.1,251.429,60.694
	c3.967,0.979,8.53,1.06,12.23-0.865c1.986-1.023,4.021-2.892,4.265-5.25C2904.401,415.826,2898.833,413.1,2895.519,412z"/>
</svg>
