<?xml version="1.0" encoding="utf-8"?>
<!-- Generator: Adobe Illustrator 16.0.0, SVG Export Plug-In . SVG Version: 6.00 Build 0)  -->
<!DOCTYPE svg PUBLIC "-//W3C//DTD SVG 1.1//EN" "http://www.w3.org/Graphics/SVG/1.1/DTD/svg11.dtd">
<svg version="1.1" id="Layer_1" xmlns="http://www.w3.org/2000/svg" xmlns:xlink="http://www.w3.org/1999/xlink" x="0px" y="0px"
	 width="941.916px" height="1512.582px" viewBox="0 0 941.916 1512.582" enable-background="new 0 0 941.916 1512.582"
	 xml:space="preserve">
<path d="M0.002,0l0.412,7.527C15.748,287.666,28.462,567.953,37.777,848.36c2.538,76.377,3.479,152.797,4.336,229.209
	c0.729,64.854,1.372,129.719,2.828,194.561c1.405,62.615,3.542,125.23,7.523,187.738c0.803,12.574,2.803,27.092,8.19,38.562
	c3.012,6.406,8.354,14.086,16.23,14.146c7.568,0.062,12.951-6.967,16.099-13.057c5.437-10.521,7.794-23.916,8.927-35.625
	c23.394-242.201,38.773-485.287,42.068-728.632l0.102-7.271l7.538,19.363c0.921,2.36,2.155,4.926,3.854,6.832
	c1.47,1.645,3.53,2.936,5.817,2.485c4.977-0.977,5.504-8.285,5.438-12.295l-3.215-202.521c-0.2-12.609,1.617-30.188,13.665-37.318
	c5.995-3.55,13.296-3.773,20.014-2.716c9.574,1.51,19.169,5.664,27.665,10.229l0.033,0.021l232.311,141.953
	c12.938,7.904,14.576,7.904,27.52,0l232.303-141.947l0.035-0.021c8.496-4.565,18.09-8.724,27.664-10.229
	c6.717-1.062,14.018-0.834,20.014,2.716c12.047,7.135,13.865,24.709,13.664,37.319l-3.215,202.522
	c-0.062,4.011,0.465,11.316,5.438,12.293c2.289,0.445,4.353-0.842,5.814-2.485c1.699-1.906,2.938-4.472,3.854-6.832l7.539-19.363
	l0.101,7.273c3.295,243.342,18.682,486.428,42.067,728.629c1.136,11.709,3.49,25.106,8.929,35.625
	c3.145,6.09,8.526,13.117,16.102,13.057c7.877-0.061,13.223-7.74,16.229-14.145c5.393-11.476,7.393-25.988,8.188-38.562
	c3.98-62.51,6.119-125.123,7.523-187.738c1.457-64.846,2.1-129.707,2.83-194.562c0.856-76.412,1.797-152.832,4.336-229.209
	c9.312-280.406,22.026-560.691,37.364-840.832l0.416-7.531l-5.271,5.391C902.589,40.23,868.3,75.782,828.5,104.167
	c-16.057,11.451-32.971,21.642-50.747,30.188c-40.82,19.62-86.671,30.621-131.229,37.726c-27.352,4.36-54.91,7.294-82.521,9.336
	c-30.957,2.29-61.992,3.448-93.03,3.895l-0.021,0.001l-0.021-0.001c-31.033-0.446-62.066-1.605-93.023-3.895
	c-27.608-2.042-55.176-4.976-82.521-9.336c-44.562-7.104-90.412-18.105-131.229-37.726c-17.78-8.546-34.694-18.736-50.75-30.188
	C73.609,75.78,39.32,40.229,5.267,5.392L0.002,0z"/>
</svg>
