<?xml version="1.0" encoding="utf-8"?>
<!-- Generator: Adobe Illustrator 16.0.0, SVG Export Plug-In . SVG Version: 6.00 Build 0)  -->
<!DOCTYPE svg PUBLIC "-//W3C//DTD SVG 1.1//EN" "http://www.w3.org/Graphics/SVG/1.1/DTD/svg11.dtd">
<svg version="1.1" id="Layer_1" xmlns="http://www.w3.org/2000/svg" xmlns:xlink="http://www.w3.org/1999/xlink" x="0px" y="0px"
	 width="2030.868px" height="340.637px" viewBox="0 0 2030.868 340.637" enable-background="new 0 0 2030.868 340.637"
	 xml:space="preserve">
<path fill="none" stroke="#000000" stroke-linejoin="round" stroke-miterlimit="10" d="M1185.604,238.439l2.906,25.578
	c1.994,9.805,8.979,15.815,18.223,12.182c252.789-36.908,508.158-77.592,746.156-97.158c28.049-2.113,11.104-13.082,4.291-16.171
	c-109.438-42.879-421.111-93.349-797.416-146.243C1078.684,9.773,924.33-8.339,855.363,4.465L74.891,187.331
	c-22.508,8.582-55.281,68.228-71.953,96.062c-8.302,14.965,1.773,61.08,20.442,56.986
	c196.024-47.396,874.764-174.552,1143.58-112.131C1174.432,228.832,1186.012,228.738,1185.604,238.439z"/>
</svg>
