<?xml version="1.0" encoding="utf-8"?>
<!-- Generator: Adobe Illustrator 16.0.0, SVG Export Plug-In . SVG Version: 6.00 Build 0)  -->
<!DOCTYPE svg PUBLIC "-//W3C//DTD SVG 1.1//EN" "http://www.w3.org/Graphics/SVG/1.1/DTD/svg11.dtd">
<svg version="1.1" id="Layer_1" xmlns="http://www.w3.org/2000/svg" xmlns:xlink="http://www.w3.org/1999/xlink" x="0px" y="0px"
	 width="1788.275px" height="1049.979px" viewBox="0 0 1788.275 1049.979" enable-background="new 0 0 1788.275 1049.979"
	 xml:space="preserve">
<path fill="none" stroke="#000000" stroke-linejoin="round" stroke-miterlimit="10" d="M61.227,98.207
	c0.739-2.662,1.135-5.468,1.135-8.366c0-17.221-13.96-31.181-31.181-31.181C13.96,58.66,0,72.62,0,89.841
	c0,17.221,13.96,31.181,31.182,31.181c6.031,0,11.664-1.713,16.436-4.678c0.792-0.155,1.98-0.637,2.649,0.077
	c1.013,1.082-0.375,2.972-0.578,4.094c-4.036,9.84-4.873,21.316,3.203,30.276c71.219,65.075,116.039,167.152,129.002,313.885
	c2.83,14.87,15.418,46.987,26.705,45.562l152.426-7.911c37.922-10.456,48.207-55.569,64.756-85.454
	c35.604-93.349,177.676-66.479,186.016,28.264c3.33,38.493-4.04,111.096,23.328,118.771c235.879,90.303,631.456,216.812,741.827,470
	c4.787,9.863,21.185,14.988,38.177,16.072l140.954-2.959c12.688-2.082,46.677-22.14,50.498-28.951l169.466-213.521
	c15.772-18.441,8.151-34.691,12.229-52.041c-71.872,7.814-141.204,5.675-206.829-11.016c-37.748,63.383-38.604,20.354-24.352-14.74
	c-107.584-86.938-469-436.729-583.521-581.864c-26.688-33.821-61.289-15.668-41.496-59.377c3.902-8.624-11.658-38.434-12.776-62.979
	c2.739-11.761-21.051-23.741-44.438-22.433C600.603,9.85,307.238,45.01,63.218,102.317C61.023,101.937,61.045,100.021,61.227,98.207
	z"/>
</svg>
