<?xml version="1.0" encoding="utf-8"?>
<!-- Generator: Adobe Illustrator 16.0.0, SVG Export Plug-In . SVG Version: 6.00 Build 0)  -->
<!DOCTYPE svg PUBLIC "-//W3C//DTD SVG 1.1//EN" "http://www.w3.org/Graphics/SVG/1.1/DTD/svg11.dtd">
<svg version="1.1" id="Layer_1" xmlns="http://www.w3.org/2000/svg" xmlns:xlink="http://www.w3.org/1999/xlink" x="0px" y="0px"
	 width="2406.2px" height="1049.492px" viewBox="0 0 2406.2 1049.492" enable-background="new 0 0 2406.2 1049.492"
	 xml:space="preserve">
<path fill="none" stroke="#000000" stroke-linejoin="round" stroke-miterlimit="10" d="M2390.84,103.323
	c-244.189-57.685-538.004-93.204-812.672-103.222c-23.393-1.328-47.189,10.629-44.463,22.393
	c-1.143,24.545-16.73,54.34-12.834,62.967c19.752,43.728-14.83,25.545-41.549,59.34
	c-114.654,145.031-476.395,494.49-584.053,581.336c14.223,35.109,13.328,78.141-24.359,14.719
	c-65.643,16.635-134.979,18.705-206.838,10.824c4.061,17.354-3.576,33.594,12.182,52.053l169.271,213.674
	c3.812,6.816,37.789,26.904,50.472,29.004l140.952,3.084c16.992-1.068,33.395-6.184,38.188-16.043
	c79.646-158.887,270.592-270.604,453.602-350.396c141.184-276.288,365.629-201.317,457.285-170.863l257.938-1.35
	c11.285,1.441,23.904-30.666,26.748-45.533c13.096-146.721,58.01-248.756,129.285-313.768
	C2414.311,135.693,2400.696,111.939,2390.84,103.323z M637.337,749.209c8.573-5.257,26.327,6.51,19.415,13.634
	c-6.911,7.123-5.179,26.441,2.421,36.458c58.86,77.031,117.233,154.271,179.396,229.911c8.415,7.301-1.024,21.549-13.981,20.188
	c-14.252-0.775-28.345-1.807-41.271-9.902C622.544,914.958,334.101,861.793,106.03,794.084
	c-32.721-17.504-51.832-38.98-46.042-64.433c1.792-4.688,6.82-11.977,11.822-11.687L637.337,749.209z"/>
</svg>
