<?xml version="1.0" encoding="utf-8"?>
<!-- Generator: Adobe Illustrator 16.0.0, SVG Export Plug-In . SVG Version: 6.00 Build 0)  -->
<!DOCTYPE svg PUBLIC "-//W3C//DTD SVG 1.1//EN" "http://www.w3.org/Graphics/SVG/1.1/DTD/svg11.dtd">
<svg version="1.1" id="Layer_1" xmlns="http://www.w3.org/2000/svg" xmlns:xlink="http://www.w3.org/1999/xlink" x="0px" y="0px"
	 width="2406.2px" height="1049.492px" viewBox="0 0 2406.2 1049.492" enable-background="new 0 0 2406.2 1049.492"
	 xml:space="preserve">
<path fill="none" stroke="#000001" stroke-linejoin="round" stroke-miterlimit="10" d="M650.391,749.941l13.681,1.738
	c71.859,7.881,141.195,5.811,206.838-10.824c37.688,63.422,38.582,20.391,24.359-14.719
	c107.658-86.846,469.399-436.305,584.053-581.336c26.719-33.795,61.301-15.612,41.549-59.34
	c-3.896-8.627,11.691-38.422,12.834-62.967c-2.727-11.764,21.07-23.721,44.463-22.393
	c274.668,10.018,568.482,45.537,812.672,103.222c9.855,8.616,23.471,32.37,9.154,48.218
	c-71.275,65.012-116.189,167.047-129.285,313.768c-2.844,14.867-15.463,46.975-26.748,45.533l-257.938,1.35
	c-91.656-30.454-316.102-105.425-457.285,170.863c-183.01,79.793-373.956,191.51-453.602,350.396
	c-4.793,9.859-21.195,14.975-38.188,16.043l-140.952-3.084c-7.822-1.295-23.742-9.431-35.691-17.077l0.002-0.001
	c-2.061-0.37-4.362-0.577-6.791-0.577c-6.505,0-11.77,3.023-11.77,6.759h0.003c0.384,7.057-7.388,14.913-17.163,13.887
	c-14.252-0.775-28.345-1.807-41.271-9.902C622.544,914.958,334.101,861.793,106.03,794.084
	c-25.563-13.675-42.82-29.774-46.385-48.301c-0.421-2.187-2.479-3.941-4.526-4.588c-2.847-0.898-4.602-0.024-6.938,1.568
	c-3.125,2.134-6.84,3.588-10.533,4.358c-2.128,0.444-4.292,0.676-6.467,0.676C13.96,747.798,0,733.838,0,716.617
	s13.96-31.182,31.181-31.182c15.258,0,27.957,10.961,30.65,25.439c0,3.94,4.026,7.129,9,7.127c0.326-0.043,0.652-0.056,0.979-0.037
	l565.527,31.244c3.573-2.19,8.74-1.425,13.052,0.729L650.391,749.941z"/>
</svg>
