<?xml version="1.0" encoding="utf-8"?>
<!-- Generator: Adobe Illustrator 16.0.0, SVG Export Plug-In . SVG Version: 6.00 Build 0)  -->
<!DOCTYPE svg PUBLIC "-//W3C//DTD SVG 1.1//EN" "http://www.w3.org/Graphics/SVG/1.1/DTD/svg11.dtd">
<svg version="1.1" id="Layer_1" xmlns="http://www.w3.org/2000/svg" xmlns:xlink="http://www.w3.org/1999/xlink" x="0px" y="0px"
	 width="2409.543px" height="1097.598px" viewBox="0 0 2409.543 1097.598" enable-background="new 0 0 2409.543 1097.598"
	 xml:space="preserve">
<path fill="none" stroke="#000000" stroke-linejoin="round" stroke-miterlimit="10" d="M1534.742,741.492
	c-37.748,63.383-38.604,20.355-24.352-14.74c-107.584-86.939-469-436.73-583.521-581.865
	c-26.689-33.821-61.289-15.668-41.496-59.377c3.902-8.624-11.658-38.434-12.777-62.979c2.74-11.761-21.05-23.741-44.438-22.433
	C553.479,9.866,259.633,45.119,15.39,102.582c-9.864,8.607-23.498,32.349-9.203,48.21
	c71.219,65.075,116.039,167.152,129.002,313.885c2.83,14.87,15.418,46.987,26.705,45.562l152.426-7.911
	c37.922-10.456,48.207-55.569,64.756-85.454c35.604-93.349,177.676-66.479,186.015,28.264c3.331,38.493-4.04,111.096,23.329,118.771
	c235.879,90.303,631.456,216.812,741.827,470c4.787,9.865,21.184,14.99,38.176,16.076l140.955-2.959
	c12.688-2.082,46.676-22.143,50.498-28.955l169.465-213.521c15.773-18.439,8.152-34.689,12.23-52.041
	C1669.699,760.322,1600.367,758.184,1534.742,741.492z M1774.803,749.583c-8.5-5.377-26.415,6.144-19.603,13.362
	c6.812,7.218,4.812,26.514-2.927,36.42l-182.578,227.393c-8.521,7.186,0.724,21.563,13.694,20.382
	c44.347-10.97,79.207,5.313,108.563,38.438c7.144,10.098,26.025,19.055,32.479,4.021
	c138.896-135.433,333.146-228.334,582.952-281.266c32.963-17.048,50.414-44.747,44.979-70.275
	c-1.729-4.712-6.653-12.063-11.657-11.845L1774.803,749.583z"/>
</svg>
