<?xml version="1.0" encoding="utf-8"?>
<!-- Generator: Adobe Illustrator 16.0.0, SVG Export Plug-In . SVG Version: 6.00 Build 0)  -->
<!DOCTYPE svg PUBLIC "-//W3C//DTD SVG 1.1//EN" "http://www.w3.org/Graphics/SVG/1.1/DTD/svg11.dtd">
<svg version="1.1" id="Layer_1" xmlns="http://www.w3.org/2000/svg" xmlns:xlink="http://www.w3.org/1999/xlink" x="0px" y="0px"
	 width="3524.598px" height="1241.492px" viewBox="0 0 3524.598 1241.492" enable-background="new 0 0 3524.598 1241.492"
	 xml:space="preserve">
<path d="M2331.884,295.321c-244.188-57.688-538.005-93.204-812.672-103.222c-23.393-1.328-47.188,10.629-44.462,22.393
	c-1.144,24.545-16.729,54.34-12.834,62.967c19.752,43.728-14.832,25.545-41.553,59.34
	C1305.709,481.83,943.971,831.288,836.313,918.133c14.223,35.109,13.325,78.144-24.359,14.723
	c-65.645,16.634-134.979,18.701-206.838,10.82c4.062,17.354-3.576,33.598,12.185,52.057l169.271,213.673
	c3.812,6.813,37.789,26.902,50.471,29.004l140.952,3.084c16.993-1.068,33.396-6.186,38.188-16.043
	c79.646-158.886,270.593-270.604,453.604-350.396c141.187-276.287,365.629-201.313,457.284-170.858l257.938-1.354
	c11.287,1.441,23.902-30.666,26.748-45.533c13.099-146.719,58.013-248.753,129.287-313.766
	C2355.354,327.69,2341.74,303.938,2331.884,295.321z M3521.664,283.563c-16.666-27.843-49.431-87.492-71.939-96.076L2669.289,4.477
	c-68.963-12.816-223.32,5.268-304.404,12.104c-376.313,52.826-687.997,103.236-797.439,146.096
	c-6.812,3.089-23.763,14.054,4.291,16.173c237.989,19.611,493.354,60.342,746.139,97.295c9.241,3.641,16.229-2.371,18.229-12.176
	l2.904-25.577c-0.398-9.702,11.18-9.606,18.646-10.185c268.827-62.373,947.547,64.905,1143.563,112.342
	C3519.879,344.644,3529.961,298.531,3521.664,283.563z M578.38,941.206c8.57-5.256,26.324,6.51,19.415,13.635
	c-6.911,7.123-5.182,26.441,2.421,36.457c58.857,77.031,117.23,154.271,179.396,229.912c8.415,7.301-1.021,21.549-13.979,20.188
	c-14.252-0.774-28.348-1.809-41.271-9.901C563.589,1106.956,275.142,1053.79,47.07,986.081
	C14.352,968.577-4.76,947.102,1.03,921.648c1.792-4.688,6.82-11.977,11.822-11.688L578.38,941.206z"/>
</svg>
