<?xml version="1.0" encoding="utf-8"?>
<!-- Generator: Adobe Illustrator 16.0.0, SVG Export Plug-In . SVG Version: 6.00 Build 0)  -->
<!DOCTYPE svg PUBLIC "-//W3C//DTD SVG 1.1//EN" "http://www.w3.org/Graphics/SVG/1.1/DTD/svg11.dtd">
<svg version="1.1" id="Layer_1" xmlns="http://www.w3.org/2000/svg" xmlns:xlink="http://www.w3.org/1999/xlink" x="0px" y="0px"
	 width="844.398px" height="406.484px" viewBox="0 0 844.398 406.484" enable-background="new 0 0 844.398 406.484"
	 xml:space="preserve">
<path fill="none" stroke="#000000" stroke-linejoin="round" stroke-miterlimit="10" d="M778.205,36.33
	c-1.256-0.813-2.574-1.285-3.898-1.228L208.398,58.472c-8.5-5.377-26.415,6.145-19.604,13.362c6.812,7.218,4.812,26.514-2.927,36.42
	L3.292,335.647c-8.518,7.183,0.725,21.562,13.698,20.383c44.343-10.971,79.207,5.312,108.563,38.435
	c7.144,10.098,26.027,19.055,32.479,4.024c138.896-135.432,333.146-228.332,582.952-281.266
	c28.556-14.769,45.47-37.53,45.949-59.949c0.389-1.359,0.026-3.192,1.099-4.289c1.215-1.24,2.778,0.457,3.89,0.972
	c5.572,5.214,13.062,8.404,21.296,8.404c17.221,0,31.182-13.96,31.182-31.181C844.398,13.96,830.438,0,813.218,0
	c-17.222,0-31.182,13.96-31.182,31.181c0,0.821,0.032,1.634,0.096,2.439c-0.299,0.783-0.518,1.695-1.141,2.299
	c-0.796,0.771-1.8,0.465-2.788,0.411H778.205z"/>
</svg>
