<?xml version="1.0" encoding="utf-8"?>
<!-- Generator: Adobe Illustrator 16.0.0, SVG Export Plug-In . SVG Version: 6.00 Build 0)  -->
<!DOCTYPE svg PUBLIC "-//W3C//DTD SVG 1.1//EN" "http://www.w3.org/Graphics/SVG/1.1/DTD/svg11.dtd">
<svg version="1.1" id="Layer_1" xmlns="http://www.w3.org/2000/svg" xmlns:xlink="http://www.w3.org/1999/xlink" x="0px" y="0px"
	 width="2361.242px" height="792.043px" viewBox="0 0 2361.242 792.043" enable-background="new 0 0 2361.242 792.043"
	 xml:space="preserve">
<path d="M785.719,683.988L496.355,393.062l-35.645-72.704c-56.199-107.185-154.291-52.015-158.619-49.786
	c-89.55,43.303-176.935,89.472-260.389,141.15c-23.024,14.812-73.168,22.647-13.628,91.37c3.919,4.728,7.264,9.545,11.185,14.271
	c18.272,22.278,23.802,5.93,31.875-2.691c29.878-45.145,109.188,5.479,55.646,55.566c-9.292,8.754-32.938,12.393,0.263,40.174
	c55.274,52.006,109.405,104.203,164.68,156.207c11.617,12.818,40.503,26.438,87.021,25.365
	c123.342-4.047,252.857-21.207,386.594-47.351C816.553,730.554,796.683,693.105,785.719,683.988z M2342.493,405.227
	c-85.451-115.037-166.166-168.458-246.324-214.709C1984.003,127.041,1939.815,72.934,1878.1,16.723
	c-16.07-13.479-30.578-17.274-44.375-16.661l-537.232,17.99h-0.014l-30.947,1.035l-1.113-0.426l-394.412,9.565
	c-8.56,0.646,4.544,207.491-3.246,209.558c-10.016,2.653-33.374-205.095-41.99-199.859
	c-101.451,66.579-210.233,137.219-311.68,203.797c-4.27,2.062-6.898,5.191-5.933,10.668l3.853,58.729
	c-0.146,7.175,3.906,11.331,12.153,12.469l329.871,9.004l579.854,38.037c177.975,21.749,162.807,31.247-0.605,20.309
	l-576.132-31.886l-320.51,25.274c-3.964,0.549-13.427,2.419-2.913,13.3l47.341,49.682l240.604,250.017
	c12.004,10.25,41.567,26.278,89.72,15.842L2331.47,464.396C2383.454,453.48,2353.946,421.566,2342.493,405.227z"/>
</svg>
