<?xml version="1.0" encoding="utf-8"?>
<!-- Generator: Adobe Illustrator 16.0.0, SVG Export Plug-In . SVG Version: 6.00 Build 0)  -->
<!DOCTYPE svg PUBLIC "-//W3C//DTD SVG 1.1//EN" "http://www.w3.org/Graphics/SVG/1.1/DTD/svg11.dtd">
<svg version="1.1" id="Layer_1" xmlns="http://www.w3.org/2000/svg" xmlns:xlink="http://www.w3.org/1999/xlink" x="0px" y="0px"
	 width="2361.24px" height="792.043px" viewBox="0 0 2361.24 792.043" enable-background="new 0 0 2361.24 792.043"
	 xml:space="preserve">
<path fill="none" stroke="#000001" stroke-linejoin="round" stroke-miterlimit="10" d="M850.637,719.34
	c0-2.965,2.376-5.364,5.312-5.363c14.336,3.203,32.45,3.957,54.441-0.81l1421.076-248.771c51.987-10.915,22.479-42.827,11.026-59.17
	c-85.453-115.036-166.166-168.457-246.326-214.708C1984,127.042,1939.814,72.935,1878.097,16.724
	c-16.067-13.479-30.577-17.275-44.375-16.661l-537.229,17.99h-0.016l-30.945,1.035l-1.113-0.426l-394.413,9.566
	c-8.559,0.646,4.542,207.491-3.248,209.557c-10.013,2.654-33.374-205.094-41.989-199.859
	c-101.447,66.579-210.229,137.219-311.68,203.797c-0.288,0.139-0.568,0.283-0.84,0.432l0,0.001
	c-0.069,0.042-0.136,0.087-0.206,0.129c-2.879,1.717-5.827,3.355-8.754,4.988c-6.089,3.397-12.073,6.979-18.191,10.323
	c-7.111,3.886-14.001,8.134-21.151,11.95c-3.252,1.736-6.332,3.708-9.474,5.628c-2.352,1.437-4.889,2.537-7.347,3.773
	c-4.978,2.503-10.746,3.882-16.065,1.541l0.002-0.001c-55.55-51.012-125.337-11.789-128.972-9.917
	c-89.547,43.303-176.932,89.472-260.386,141.151c-23.027,14.812-73.168,22.648-13.628,91.371c3.919,4.729,7.264,9.545,11.183,14.271
	c18.274,22.277,23.801,5.93,31.875-2.691c29.877-45.146,109.189,5.479,55.647,55.566c-9.292,8.754-32.938,12.393,0.263,40.174
	c55.274,52.006,109.405,104.203,164.677,156.207c11.617,12.817,40.502,26.438,87.021,25.365
	c123.34-4.048,252.854-21.207,386.592-47.352c10.554-2.901,18.089-6.794,23.306-11.228l-0.002-0.003
	c2.735,0,4.949,1.497,4.949,3.347c0,17.221,13.96,31.181,31.181,31.181s31.181-13.96,31.181-31.181
	c0-6.458-1.963-12.457-5.325-17.434L850.637,719.34z"/>
</svg>
