<?xml version="1.0" encoding="utf-8"?>
<!-- Generator: Adobe Illustrator 16.0.0, SVG Export Plug-In . SVG Version: 6.00 Build 0)  -->
<!DOCTYPE svg PUBLIC "-//W3C//DTD SVG 1.1//EN" "http://www.w3.org/Graphics/SVG/1.1/DTD/svg11.dtd">
<svg version="1.1" id="Layer_1" xmlns="http://www.w3.org/2000/svg" xmlns:xlink="http://www.w3.org/1999/xlink" x="0px" y="0px"
	 width="1967.148px" height="647.7px" viewBox="0 0 1967.148 647.7" enable-background="new 0 0 1967.148 647.7"
	 xml:space="preserve">
<path fill="none" stroke="#000001" stroke-linejoin="round" stroke-miterlimit="10" d="M1590.923,312.385
	c6.802-12.407,10.052-26.328,16.767-38.667c1.403-9.395,1.942-17.02-1.939-25.89c-3.198-7.308-7.952-14.096-7.951-22.386
	c0.002-17.219,13.962-31.177,31.182-31.177c17.221,0,31.181,13.96,31.181,31.181c0,2.751-0.552,5.443-1.19,8.104
	c-2.15,8.955-1.562,18.298,1.943,26.806c0.811,1.967,1.793,3.875,2.904,5.689c0.267,0.435,3.463,4.41,3.395,4.542l-0.039,0.075
	c1.73,0.931,3.469,1.849,5.221,2.742c1.916,0.899,3.836,1.779,5.771,2.646c16.836,8.171,34.704,15.88,52.843,23.062
	c1.554,0.773,3.102,1.561,4.632,2.367c3.517,1.217,7.043,2.381,10.588,3.517c23.705,8.953,47.503,16.986,69.69,23.964
	c10.392,3.709,20.974,6.818,31.657,9.594c36.229,10.58,64.575,17.537,75.304,20.09c1.535,0.422,3.095,0.777,4.664,1.096
	c5.687,1.148,11.525,1.838,16.998,3.525c29.537,7.633,21.647,23.432,21.649,23.43c-5.472,11.838-14.22,21.795-23.599,30.857
	c-2.119,2.078-6.769-1.109-6.915-1.213c-10.855-8.828-21.631-19.646-36.641-19.605c-24.654-3.203-42.264,31.236-26.825,50.139
	c7.788,8.871,17.588,15.623,26.357,23.725c-12.035,17.139-27.024,31.861-40.955,47.592c-24.492,25.381-47.703,52.385-73.836,76.691
	c-13.041,13.189-26.341,26.045-41.757,36.896c-3.156,2.273-6.561,3.686-10.102,4.631c-0.012,0.002-47.338,7.09-58.866,8.334
	c-142.146,13.729-284.896-24.523-301.167-29.062c-0.501-0.123-0.996-0.262-1.48-0.42l-0.08-0.021
	c-10.288-3.355-18.129-14.542-17.056-25.226c0.001-8.379-7.737-15.158-17.301-15.158l0.003,0.003
	c-5.158,3.098-12.121,6.357-21.106,8.742c-4.451,1.324-9.013,2.311-13.646,2.939l-0.186,0.047
	c-5.824,0.75-12.228,1.037-19.188,0.607c-1.799-0.111-3.712-0.232-5.725-0.361h-0.007l-0.084-0.006
	c-1.808-0.115-3.691-0.236-5.646-0.363l-0.239-0.029c-8.987-0.605-17.16-1.16-24.514-1.658l-0.267,0.02
	c-15.482-1.055-32.197-2.223-46.979-3.264l-0.217-0.021l-0.178-0.012l-0.142-0.01l-0.098-0.006l-0.062-0.006l-0.021-0.004
	c-23.833-1.678-42.47-3.021-42.47-3.021c-158.597-18.627-317.272-36.615-475.731-56.422c-2.278-0.189-4.54-0.539-6.787-1
	l-7.059-1.039l-0.02-0.004L497.078,495.17c-6.438-0.795-12.862-1.594-19.291-2.406l-83.622-12.115
	c-3.263-0.719-6.531-1.406-9.802-2.068l-94.568-13.924c-14.418-1.727-28.838-3.449-43.216-5.398l-21.425-3.104
	c-11.029-1.721-22.02-3.637-32.953-5.865L65.792,431.676c0,0-45.056-6.297-52.64-12.012l0,0c-5.653-2.283-9.741-7.938-12.725-13.076
	c-2.049-7.6,3.747-14.281,7.44-20.621c27.469-40.639,55.231-81.242,89.416-116.379c22.013-21.846,47.17-40.377,72.771-57.676
	c17.518-16.192,39.254-25.704,58.055-40.271c51.897-33.046,95.638-76.774,140.876-118.261c13.906-14.163,27.84-28.544,43.458-41.037
	c0.52-0.397,4.926-3.536,16.634-5.253c3.722-0.056,7.445-0.342,11.174-0.68l19.066-0.095l35.932-0.185h0.001l26.46-0.135
	l30.291-0.154l0,0l16.769-0.085l0,0l37.945-0.194l9.892-0.05h0.001l134.667-0.688l8.128-0.042h0.001l74.475-0.379l0,0l12.24-0.062
	l20.713-0.104h0.001l21.958-0.111V4.124C906.134,4.036,923.44,1.109,940.841,0c0,0,8.127,2.288,8.342,6.941
	c-0.238,1.085-0.566,2.123-0.979,3.118c-0.306,0.468-0.491,0.892-0.586,1.276c-4.492,8.934-15.56,14.49-22.055,22.3
	c-12.323,13.533-22.917,28.588-31.896,44.533h-0.001c0,0-34.049,48.725-36.073,128.638v0.02c-0.102,3.269-0.109,6.539-0.007,9.811
	c0.011,0.422,0.026,0.829,0.042,1.24l0.006,0.146c0.067,1.782,0.163,3.458,0.29,5.011c0.071,0.871,0.141,1.741,0.224,2.612
	c0.061,0.392,0.121,0.782,0.183,1.173c0.271,2.084,0.608,3.913,1.004,5.514c4.722,22.941,15.994,44.256,31.396,61.651
	c11.168,15.161,30.165,23.881,48.962,24.331c48.424-1.062,97.014-3.573,145.49-7.572c9.704-2.394,19.955,0.586,29.661-1.805
	c40.05-4.995,80.429-10.243,120.668-14.33c12.781-3.5,26.073-1.343,39.162-2.449c22.917-2.009,46.375,1.348,67.729,10.051
	c21.984,5.835,36.688,28.482,60.49,28.929c27.235-1.205,55.035-4.697,79.286-18.032c15.686-8.164,32.706-12.634,49.948-16.489
	c25.08-8.28,32.144-3.303,32.961,3.706l-0.002,0c0,7.752,9.388,14.026,20.988,14.026c1.76,0,3.379-0.584,4.668-1.567
	L1590.923,312.385z"/>
</svg>
