<?xml version="1.0" encoding="utf-8"?>
<!-- Generator: Adobe Illustrator 16.0.0, SVG Export Plug-In . SVG Version: 6.00 Build 0)  -->
<!DOCTYPE svg PUBLIC "-//W3C//DTD SVG 1.1//EN" "http://www.w3.org/Graphics/SVG/1.1/DTD/svg11.dtd">
<svg version="1.1" id="Layer_1" xmlns="http://www.w3.org/2000/svg" xmlns:xlink="http://www.w3.org/1999/xlink" x="0px" y="0px"
	 width="1774.51px" height="372.139px" viewBox="0 0 1774.51 372.139" enable-background="new 0 0 1774.51 372.139"
	 xml:space="preserve">
<path d="M1768.087,0.182l-22.568-0.051c-34.115-0.32-75.574-0.271-124.209,2.819c-64.135,4.073-122.104,10.648-184.76,13.784
	c-5.474,0.273-99.562,10.385-150.617,17.513c-72.268,10.176-190.125,27.873-353.525,53.237
	c-183.676,28.51-301.53,46.135-353.489,52.884c-59.359,7.711-151.436,19.67-178.241,21.844c-14.988,1.215-31.748,2.574-45.02,2.851
	c-14.051,0.293-28.768-0.793-44.128-3.328l-20.798-2.319l-11.492-3.558c-18.966-5.865-44.158-13.662-55.666-21.016
	c-0.823-0.527-2.006-0.854-3.471-0.961c-1.97-0.172-8.468,3.333-19.516,10.585c-10.979,7.27-20.492,13.302-28.366,17.995
	c-19.245,11.47-37.812,24.045-57.104,35.438c-4.671,2.761-29.684,18.396-44.485,27.65c-10.2,6.377-26.68,16.67-40.021,25.004
	c-9.977,6.232-28.876,17.506-29.649,19.133c-0.535,1.123-0.845,2.232-0.961,3.474c2.642,2.6,5.469,4.801,8.6,6.713
	c1.531,0.944,18.873,8.735,52.064,23.229c12.784,5.631,19.78,8.689,20.813,9.273l9.978,5.524c1.945,1.062,5,1.904,9.021,2.498
	c4.733,0.714,20.103-0.562,46.087-3.75c5.484-0.646,24.72-2.12,57.704-4.424c7.674-0.528,15.367-0.709,23.059-0.713
	c22.9-0.012,45.768-1.705,68.663-1.904c21.332-0.188,42.661,0.541,63.993,0.39c40.5-0.293,88.179,0.729,143.041,3.067
	c25.708,1.101,51.438,1.601,77.14,2.793c60.665,2.816,121.405,3.308,182.104,5.121c33.067,0.988,87.644,2.625,99.182,3.765
	c87.781,8.645,176.302,6.008,264.099,14.428l141.192,13.541c6.593,0.646,18.361,2.312,35.464,5.01
	c18.803,3.01,30.395,5.814,34.776,8.271l10.353,5.864c0.271,0.173,1.203,0.267,2.864,0.279
	c15.931-17.021,29.464-31.027,40.666-41.938c16.349-15.918,32.912-31.608,49.183-47.61l49.514-46.562l53.938-48.877
	c14.143-12.812,29.317-24.404,43.909-36.695c10.855-9.149,21.593-18.452,31.933-28.186c3.826-3.602,39.33-34.255,49.877-42.912
	c20.99-17.229,43.444-35.654,63.613-50.892c10.082-7.616,23.924-16.671,41.684-27.295L1768.087,0.182z"/>
</svg>
