<?xml version="1.0" encoding="utf-8"?>
<!-- Generator: Adobe Illustrator 16.0.0, SVG Export Plug-In . SVG Version: 6.00 Build 0)  -->
<!DOCTYPE svg PUBLIC "-//W3C//DTD SVG 1.1//EN" "http://www.w3.org/Graphics/SVG/1.1/DTD/svg11.dtd">
<svg version="1.1" id="Layer_1" xmlns="http://www.w3.org/2000/svg" xmlns:xlink="http://www.w3.org/1999/xlink" x="0px" y="0px"
	 width="1967.39px" height="703.553px" viewBox="0 0 1967.39 703.553" enable-background="new 0 0 1967.39 703.553"
	 xml:space="preserve">
<path fill="none" stroke="#000001" stroke-linejoin="round" stroke-miterlimit="10" d="M689.159,617.742
	c1.868-0.096,3.778-0.244,5.731-0.451c1.788-0.188,3.696-0.395,5.704-0.609l0.085-0.012c1.797-0.188,3.676-0.395,5.618-0.604
	l0.24-0.05c8.947-1,17.095-1.916,24.413-2.733l0.27,0.01c15.422-1.736,32.064-3.637,46.788-5.33l0.217-0.021l0.178-0.021
	l0.141-0.016l0.098-0.015c0,0,0.06-0.006,0.08-0.01c23.734-2.729,42.293-4.891,42.293-4.891
	c157.625-25.601,315.353-50.558,472.787-77.32c2.271-0.283,4.512-0.736,6.736-1.297c0,0,7.004-1.348,7.021-1.356l167.271-32.215
	c6.393-1.074,12.777-2.16,19.166-3.254l83.01-15.791c3.229-0.854,6.459-1.688,9.695-2.498l93.865-18.076
	c14.328-2.354,28.658-4.715,42.938-7.297l21.27-4.045c10.939-2.201,21.84-4.604,32.662-7.311l125.465-24.162
	c0,0,44.734-8.273,52.062-14.318c5.549-2.524,9.385-8.354,12.139-13.621c1.693-7.691-4.391-14.109-8.357-20.277
	c-29.232-39.394-58.756-78.732-94.453-112.331c-22.955-20.857-48.904-38.262-75.24-54.417c-18.215-15.405-40.35-23.949-59.77-37.675
	C1675.97,125,1630.349,83.241,1583.33,43.786c-14.521-13.538-29.068-27.291-45.223-39.083c-0.535-0.373-5.074-3.316-16.852-4.516
	c-3.721,0.106-7.453-0.014-11.189-0.188l-19.057,0.743l-35.898,1.4l-26.441,1.031l-30.27,1.18l-16.76,0.653l-37.918,1.478
	l-9.883,0.385l-134.566,5.245c0,0-8.123,0.317-8.125,0.317l-74.416,2.9l-12.23,0.477c0,0-20.697,0.807-20.699,0.807l-21.938,0.854
	c-17.332,0.676-34.744-1.486-52.184-1.828c0,0-8.021,2.643-8.021,7.3c0.281,1.075,0.658,2.097,1.113,3.072
	c0.322,0.454,0.529,0.869,0.645,1.25c4.875,8.728,16.178,13.79,23.012,21.307c12.906,12.977,24.154,27.551,33.826,43.085
	c0,0,36.162,47.179,41.705,126.945c0.244,3.261,0.396,6.528,0.439,9.801c0.01,0.423,0.012,0.829,0.014,1.241v0.145
	c0.012,1.783-0.012,3.463-0.068,5.02c-0.023,0.873-0.061,1.746-0.104,2.62c-0.041,0.394-0.084,0.786-0.129,1.18
	c-0.182,2.093-0.438,3.936-0.76,5.552c-3.707,23.127-14.025,44.918-28.65,62.975c-10.486,15.637-29.086,25.188-47.842,26.462
	c-48.421,1.071-97.082,0.702-145.686-1.156c-9.8-1.964-19.909,1.464-29.712-0.494c-40.232-3.229-80.806-6.691-121.185-9.003
	c-12.925-2.936-26.104-0.192-39.229-0.723c-22.979-1-46.271,3.391-67.22,13.023c-21.71,6.796-35.4,30.062-59.159,31.562
	c-27.265-0.004-55.188-2.271-80.004-14.522c-16.031-7.464-33.23-11.184-50.625-14.274c-6.914-1.949-12.453-2.977-16.864-3.297
	c-1.725-0.059-3.456-0.242-5.18-0.344c-7.639-0.452-15.267-1.233-22.911-1.584c-8.767-0.404-18.253-2.786-23.719-10.217
	c-4.911-9.776-10.663-19.015-18.608-26.854c-10.103-11.096-25.088-15.768-39.408-18.176c-16.958-4.052-34.049,1.992-50.84,4.43
	c-6.904,2.162-13.833,4.623-20.537,7.566l-18.92,10.276l-0.276,0.187l-0.893,0.448l-167.53,90.996
	c-0.292,0.241-0.585,0.483-0.878,0.729c-2.472,1.336-4.995,2.601-7.536,3.84l-23.561,12.799c-2.766,1.961-5.385,4.125-7.791,6.595
	c-6.376,8.145-9.208,19.864-3.52,29.311c10.437,16.148,22.584,31.494,36.522,45.035c0.019,0.006,4.03,1.379,7.002-1.389
	c9.869-9.459,18.812-21.535,33.47-22.113c23.771-5.062,45.632,25.461,32.047,45.748c-6.101,11.662-18.433,17.817-26.931,27.502
	c24.036,27.494,50.918,52.451,76.741,78.174c23.242,22.35,46.934,44.625,72.005,65.049c2.513,2.875,5.839,5.595,10.139,8.103
	c47.052,27.387,193.458,2.073,193.454,2.073c2.737-0.268,5.476-0.639,8.196-1.145c49.074-7.994,98.287-15.121,147.554-23.74
	c9.916-1.871,19.767-5.492,28.378-11.059c2.458-1.589,6.042-2.26,8.837-1.4c5.171,1.593,6.387,8.629,9.491,12.325
	c3.7,4.406,8.674,7.951,14.123,9.819c3.203,1.098,6.731,1.65,10.12,1.65c17.221,0,31.181-13.96,31.181-31.181
	c0-4.802-1.103-9.639-3.268-13.933c-1.336-2.651-3.116-4.929-5-7.198c-1.752-2.11-3.44-4.852-1.27-7.348
	c0.318-0.365,3.282-2.193,3.309-1.81L689.159,617.742z"/>
</svg>
