<?xml version="1.0" encoding="utf-8"?>
<!-- Generator: Adobe Illustrator 16.0.0, SVG Export Plug-In . SVG Version: 6.00 Build 0)  -->
<!DOCTYPE svg PUBLIC "-//W3C//DTD SVG 1.1//EN" "http://www.w3.org/Graphics/SVG/1.1/DTD/svg11.dtd">
<svg version="1.1" id="Layer_1" xmlns="http://www.w3.org/2000/svg" xmlns:xlink="http://www.w3.org/1999/xlink" x="0px" y="0px"
	 width="952.418px" height="589.964px" viewBox="0 0 952.418 589.964" enable-background="new 0 0 952.418 589.964"
	 xml:space="preserve">
<path fill="none" stroke="#000000" stroke-linejoin="round" stroke-miterlimit="10" d="M949.521,180.291
	c-6.912-13.757-21.773-21.348-35.805-26.171c-30.174-10.015-61.336-17.469-92.562-22.639c-33.354-5.537-64.479-19.54-95.164-32.92
	c-36.807-17.824-72.643-37.445-107.695-57.808c-20.84-11.571-40.229-25.843-61.85-36.676c-9.576-5.913-23.297-5.55-32.053,2.118
	c-10.02,9.306-14.521,22.733-17.641,35.743c-6.348,29.824-16.18,58.938-29.909,85.958c-10.673,21.32-28.66,37.556-44.71,55.219
	C323.077,298.462,208.822,409.091,88.817,513.158c-11.56,10.02-25.408,19.979-28.454,35.73c7.874,6.936,19.009,6.34,28.88,7.391
	c106.62,10.855,213.538,21.881,320.429,28.635c35.283,1.938,70.745-2.217,104.398-12.357
	c58.688-17.188,111.428-49.934,159.713-86.609c33.891-23.543,61.729-53.812,91.047-82.517
	c59.439-58.902,116.223-120.778,174.186-181.246C949.076,211.353,956.873,194.668,949.521,180.291z"/>
</svg>
