<?xml version="1.0" encoding="utf-8"?>
<!-- Generator: Adobe Illustrator 16.0.0, SVG Export Plug-In . SVG Version: 6.00 Build 0)  -->
<!DOCTYPE svg PUBLIC "-//W3C//DTD SVG 1.1//EN" "http://www.w3.org/Graphics/SVG/1.1/DTD/svg11.dtd">
<svg version="1.1" id="Layer_1" xmlns="http://www.w3.org/2000/svg" xmlns:xlink="http://www.w3.org/1999/xlink" x="0px" y="0px"
	 width="1462.205px" height="851.812px" viewBox="0 0 1462.205 851.812" enable-background="new 0 0 1462.205 851.812"
	 xml:space="preserve">
<path fill="none" stroke="#000000" stroke-miterlimit="10" d="M1166.354,650.316c-20.188-4.174-38.719-7.348-38.719-7.348
	l-360.922-56.803L202.726,502.53l-18.862-3.347c0,0-4.396-0.774-10.902-1.074l-42.017-6.23l-18.863-3.346
	c0,0-52.478-9.285-63.599,24.013c-11.123,33.298-40.077,122-40.077,122l-5.553,16.919c0,0-14.68,33.941,22.564,45.409
	c37.244,11.467,46.079,12.789,46.079,12.789l63.569,8.776c6.188,1.571,8.213,1.875,8.213,1.875l689.726,95.214
	c0,0,19.607,0.591,32.859,12.202c13.254,11.611,23.914,24.081,23.914,24.081l11.498-17.304l69.008-119.988
	c0,0,15.17-35.25,57.188-39.382c42.021-4.132,142.14-15.226,142.14-15.226S1186.542,654.489,1166.354,650.316z M1458.334,658.213
	c-14.73-24.407-249.455-399.172-249.455-399.172l-60.57-96.283c0,0-15.487-23.313-17.422-32.518
	c-1.934-9.205-4.504-21.703-0.061-32.354c3.305-7.919,3.287-8.217,3.061-7.849l-0.182,0.333c0,0,0.104-0.206,0.182-0.333
	l3.623-6.656l2.812-4.947l1.783-3.984l1.039-3.346l0.42-4.189c0,0,0.121-7.831-9.609-8.488c-9.729-0.657-94.025-5.795-94.025-5.795
	s-15.479-2.725-28.098,2.103c-12.619,4.828-84.848,33.181-84.848,33.181s-12.938,2.969-6.802,15.408
	c6.134,12.438,100.714,217.488,100.714,217.488l1.239,2.292l1.256,2.096l1.236,1.833l1.123,1.457l1.854,1.979l1.494,1.215
	l1.558,0.936l2.834,0.947l2.465,0.17l2.975-0.411l2.724-0.815l3.164-1.328l2.834-1.439l4.19-2.426l3.871-2.451l3.906-2.305
	l3.666-1.736l3.432-1.287l2.629-0.778l2.099-0.496l2.373-0.429l2.834-0.331l3.983-0.129l3.354,0.208l2.051,0.279l5.145,1.24
	l3.576,1.384l2.834,1.46l3.802,2.579l3.489,3.195l2.695,3.255l2.029,3.137l2.016,3.979l1.559,3.778l1.123,3.425l0.941,3.945
	l0.5,3.48l0.174,3.84l-0.27,4.013l-0.836,4.265l-1.619,4.644l-1.935,3.784l-3.041,4.393l-3.317,3.691l-2,1.877l-2.709,2.248
	l-4.355,3.084l-3.717,2.244l-3.654,1.938l-3.871,2.043c0,0-18.188,7.776-10.164,22.611c8.023,14.833,96.408,187.012,96.408,187.012
	s8.64,19.267,23.867,22.756c15.227,3.492,121.834,23.954,121.834,23.954l124.455,23.3
	C1441,674.417,1473.064,682.621,1458.334,658.213z M87.359,459.906c18.225,3.061,34.935,5.493,34.935,5.493l994.109,150.762
	l9.948,1.559l4.089,0.642l4.444,0.696c0,0,18.209,3.657,11.131-12.149c-7.08-15.81-18.407-38.803-18.407-38.803
	c-0.514-1.025-1.02-2.055-1.531-3.078c-1.271-2.541-2.547-5.079-3.819-7.619c-2.19-4.376-4.377-8.755-6.562-13.134
	c-2.85-5.709-5.695-11.419-8.546-17.127c-3.379-6.765-6.764-13.524-10.146-20.285c-3.938-7.871-7.876-15.743-11.809-23.618
	c-4.378-8.769-8.752-17.539-13.13-26.309c-4.626-9.266-9.257-18.528-13.892-27.791c-4.854-9.698-9.708-19.396-14.557-29.098
	c-5.053-10.11-10.098-20.225-15.143-30.338c-5.039-10.098-10.079-20.195-15.129-30.287c-4.923-9.84-9.854-19.677-14.775-29.518
	c-4.866-9.727-9.723-19.457-14.574-29.19c-4.622-9.276-9.242-18.553-13.877-27.823c-4.148-8.298-8.312-16.589-12.472-24.882
	c-3.807-7.583-7.604-15.17-11.382-22.767c-3.405-6.847-6.795-13.702-10.203-20.547c-2.524-5.07-5.063-10.132-7.638-15.177
	c-1.772-3.476-3.564-6.942-5.292-10.442c-1.854-3.763-3.631-7.564-5.381-11.376c-2.361-5.146-4.599-12.724-10.596-14.718
	c-2.84-0.944-5.865,0.057-8.68,0.604c-1.443,0.281-2.81,0.842-4.198,1.32c-6.132,2.108-12.155,5.695-18.857,5.125
	c-3.392-0.288-7.819-1.429-8.706-5.26c-0.594-2.564,0.614-5.221,2.154-7.228c1.847-2.407,4.407-4.115,6.953-5.705
	c3.602-2.248,7.699-3.691,11.494-5.577c2.969-1.476,5.815-3.427,7.647-6.25c1.433-2.206,1.815-4.85,1.63-7.435
	c-0.071-1.01-0.299-2.004-0.489-2.996l-22.726-85.567c0,0-2.684-16.06-15.526-13.792c-12.843,2.266-32.898,8.602-32.898,8.602
	s-7.127,2.405-6.379,11.929c0.748,9.522,1.453,15.021,1.453,15.021l0.256,3.032c0,0,2.926,11.726-9.547,15.743
	c-12.469,4.015-74.957,21.468-74.957,21.468s-15.31,2.86-19.793-9.497c-4.484-12.355-5.326-15.525-5.326-15.525
	s-2.094-13.676-16.883-11.064c-14.789,2.608-543.259,98.441-543.259,98.441s-14.614,2.592-14.788,2.623
	c-9.598,1.722-14.51,6.033-15.001,15.944l0.51,5.866c0,0,0.831,4.288,0.886,4.575c2.719,14.036,18.806,13.139,29.479,12.083
	l5.005-0.5l6.687,0.224l3.229,0.7l2.631,1.058l2.413,1.604l2.132,2.356l1.404,2.607l1.051,3.572l0.58,5.783l-0.295,21.896
	l-0.467,5.201l-0.748,3.123l-1.047,2.704l-1.732,2.882l-1.574,1.763l-2.008,1.56l-1.971,1.023l-3.502,0.975l-4.294,0.169
	l-8.249-0.386l-22.129-0.793c0,0-13.097-2.576-16.096,11.344c-3,13.919-35.75,187.961-35.75,187.961S69.135,456.844,87.359,459.906z
	 M990.137,400.886l5.541,1.17l3.562,1.05l4.711,1.861l5.344,2.949l4.668,3.512l4.873,4.856l5.816,7.817l4.981,8.635l11.308,20.569
	l19.411,36.281l17.943,35.342l3.65,7.694l3.078,6.84l1.586,4.341l0.85,3.442l0.59,4.711l-0.25,5.962l-0.764,3.679l-1.246,3.554
	l-1.246,2.524l-1.811,2.809l-2.238,2.652l-3.316,2.935l-3.026,1.985l-3.882,1.866l-5.284,1.627l-5.246,0.807l-5.455,0.148
	l-5.605-0.466l-15.373-2.481l-208.858-33.902l-116.839-18.97l-3.823-0.625l-2.425-0.527l-2.328-0.795l-2.024-1.053l-1.45-1.119
	l-0.878-0.975l-0.766-1.323l-0.375-1.445l0.027-1.253l0.36-1.264l0.636-1.117l1.344-1.404l1.76-1.11l1.92-0.739l2.747-0.532
	l3.387-0.054l7.981,0.899l109.278,13.242l74.955,9.052l20.305,2.265l3.928,0.384l2.172,0.165l2.08,0.029l2.599-0.174l2.473-0.438
	l2.26-0.715l2.107-1.062l1.674-1.276l1.342-1.531l1.127-2.101l0.551-1.939l0.205-2.236l-0.299-3.101l-0.518-2.099l-1.338-3.484
	l-32.992-67.28l-3.842-7.354l-2.519-4.508l-2.623-3.839l-2.424-2.907l-3.455-3.317l-4.422-3.16l-3.123-1.667l-5.588-2.103
	l-5.238-1.195l-6.854-0.786l-11.328-0.82l-130.357-10.915l-43.021-3.725l-7.795-0.651l-2.092-0.166l-2.039-0.267l-1.927-0.469
	l-1.731-0.646l-1.519-0.797l-1.206-0.859l-1.244-1.235l-0.678-0.968l-0.495-1.07l-0.262-1.214l0.045-1.121l0.296-0.996l0.483-0.851
	l0.861-0.932l1.094-0.767l1.471-0.671l1.818-0.502l1.698-0.254l1.146-0.084l1.428-0.025l49.187,0.938l69.792,2.101l105.172,3.944
	l55.141,2.23l9.986,0.411l5.801,0.239l7.174,0.308l7.257,0.415l5.426,0.493L990.137,400.886z M633.066,217.282
	c80.457-3.129,211.955-7.347,238.867-7.211c26.982,0.145,48.131,0.371,62.562,26.242c17.99,32.295,23.066,42.728,41.797,85.25
	c8.871,20.168,0.824,44.96-28.771,44.281c-85.368-2.041-205.739-5.125-285.313-7.47c-16.31-0.454-19.757-16.47,2.89-16.531
	c26.943-0.077,113.208-3.582,148.229-6.102c20.535-1.538,27.274-3.306,20.479-21.272c-6.225-16.428-14.244-39.891-23.315-56.74
	c-9.062-16.922-16.842-22.88-43.326-22.951c-36.463-0.025-92.213-1.527-131.512-2.555
	C616.217,231.741,617.543,217.891,633.066,217.282z"/>
</svg>
