<?xml version="1.0" encoding="utf-8"?>
<!-- Generator: Adobe Illustrator 16.0.0, SVG Export Plug-In . SVG Version: 6.00 Build 0)  -->
<!DOCTYPE svg PUBLIC "-//W3C//DTD SVG 1.1//EN" "http://www.w3.org/Graphics/SVG/1.1/DTD/svg11.dtd">
<svg version="1.1" id="Layer_1" xmlns="http://www.w3.org/2000/svg" xmlns:xlink="http://www.w3.org/1999/xlink" x="0px" y="0px"
	 width="1462.15px" height="851.45px" viewBox="0 0 1462.15 851.45" enable-background="new 0 0 1462.15 851.45"
	 xml:space="preserve">
<path fill="none" stroke="#000000" stroke-miterlimit="10" d="M1459.455,660.569l-5.372-16.975c0,0-28.006-89.006-38.774-122.422
	c-10.767-33.414-63.34-24.688-63.34-24.688l-18.897,3.145l-42.078,5.781c-6.513,0.229-10.915,0.959-10.915,0.959l-18.896,3.145
	l-564.848,77.619l-361.508,52.947c0,0-18.561,2.979-38.793,6.936c-20.233,3.959-3.359,9.562-3.359,9.562
	s99.996,12.162,141.968,16.74c41.973,4.578,56.766,39.988,56.766,39.988l67.724,120.719l11.313,17.424
	c0,0,10.793-12.355,24.169-23.824s32.987-11.854,32.987-11.854c5.677-0.723,11.353-1.447,17.028-2.172
	c15.152-1.932,30.307-3.842,45.459-5.771c23.01-2.93,46.021-5.865,69.031-8.785c28.243-3.582,56.482-7.184,84.725-10.781
	c30.755-3.918,61.516-7.805,92.271-11.721c32.286-4.111,64.568-8.24,96.857-12.33c30.948-3.918,61.895-7.869,92.838-11.818
	c25.989-3.32,51.989-6.564,77.979-9.883c21.684-2.768,43.353-5.654,65.052-8.293c42.95-5.221,86.025-8.545,128.472-17.312
	c25.459-5.258,70.648-13.381,64.104-49.051C1460.955,665.356,1460.219,662.981,1459.455,660.569z M390.427,415.085
	c8.183-14.748-9.923-22.717-9.923-22.717l-3.849-2.083l-3.632-1.977l-3.693-2.284l-4.322-3.131l-2.684-2.276l-1.979-1.898
	l-3.28-3.726l-2.992-4.425l-1.896-3.806l-1.567-4.66l-0.79-4.274l-0.229-4.014l0.215-3.838l0.536-3.475l0.982-3.935l1.16-3.413
	l1.6-3.761l2.058-3.958l2.063-3.115l2.729-3.226l3.522-3.158l3.829-2.538l2.851-1.43l3.593-1.346l5.153-1.186l2.056-0.255
	l3.355-0.172l3.983,0.17l2.83,0.361l2.367,0.454l2.092,0.519l2.622,0.807l3.417,1.323l3.646,1.776l3.881,2.346l3.847,2.492
	l4.164,2.47l2.818,1.47l3.149,1.361l2.714,0.844l2.969,0.442l2.467-0.144l2.845-0.916l1.565-0.919l1.508-1.2l1.876-1.957
	l1.139-1.445l1.257-1.82l1.277-2.083l1.264-2.278c0,0,96.761-204.028,103.027-216.401c6.268-12.373-6.637-15.479-6.637-15.479
	s-71.923-29.121-84.489-34.083c-12.566-4.962-28.072-2.401-28.072-2.401s-84.348,4.237-94.083,4.791
	c-9.736,0.555-9.697,8.387-9.697,8.387l0.375,4.191l1.003,3.356l1.741,4.003l2.76,4.977l3.551,6.696
	c-0.223-0.371-0.245-0.074,2.978,7.88c4.332,10.698,1.627,23.169-0.405,32.351c-2.031,9.183-17.768,32.33-17.768,32.33
	L257.68,255.31c0,0-238.708,372.241-253.698,396.491c-14.99,24.25,17.162,16.389,17.162,16.389l124.697-21.979
	c0,0,106.817-19.322,122.081-22.65c15.264-3.33,24.108-22.504,24.108-22.504S382.246,429.833,390.427,415.085z M335.652,565.223
	c0,0-11.573,22.873-18.82,38.604c-7.248,15.732,11,12.27,11,12.27l4.451-0.648l4.095-0.6l9.965-1.451l995.661-140.152
	c0,0,16.735-2.254,34.991-5.121c18.254-2.867,10.731-23.508,10.731-23.508s-30.891-174.381-33.74-188.332
	c-2.853-13.951-15.975-11.513-15.975-11.513s-22.093,0.556-22.139,0.557c-6.55,0.139-14.107,0.476-19.581-4.013
	c-4.692-3.848-5.36-9.652-5.806-15.272c0,0-0.06-21.824-0.06-21.899c-0.014-5.159,2.129-12.268,6.438-15.384
	c5.795-4.19,14.636-2.465,21.14-1.383c9.465,1.574,20.098,0.614,25.704-8.199c4.298-6.756,4.972-17.328,0.345-24.153
	c-2.904-4.286-7.335-5.347-12.029-6.314l-14.759-2.78c0,0-527.418-101.461-542.179-104.229c-14.76-2.768-17,10.885-17,10.885
	s-0.874,3.16-5.49,15.468c-4.615,12.308-19.894,9.285-19.894,9.285s-62.298-18.118-74.727-22.267
	c-12.427-4.149-9.377-15.842-9.377-15.842l0.288-3.031c0,0,0.766-5.488,1.615-15.003c0.849-9.515-6.252-11.996-6.252-11.996
	s-19.987-6.549-32.807-8.953c-12.817-2.404-15.671,13.626-15.671,13.626c-0.807,2.913-1.645,5.825-2.418,8.75
	c-1.843,6.967-3.791,13.925-5.795,20.847c-2.407,8.313-4.744,16.683-6.901,25.063c-1.585,6.156-3.502,12.219-5.345,18.301
	c-1.896,6.265-4.493,13.282-2.767,19.883c1.934,7.391,9.2,10.392,15.439,13.139c4.685,2.062,10.498,4.883,12.511,10.021
	c3.55,9.064-5.624,11.786-12.49,10.138c-6.914-1.66-13.283-5.007-20.117-6.807c-5.596-1.474-10.549,0.492-13.846,5.333
	c-2.214,3.251-3.042,6.974-4.803,10.405C549.24,148.947,335.652,565.223,335.652,565.223z M804.972,398.637l-0.505,1.066
	l-0.688,0.96l-1.258,1.222l-1.218,0.847l-1.523,0.781l-1.741,0.627l-1.93,0.448l-2.041,0.245l-2.095,0.143l-7.801,0.568
	l-43.059,3.267l-130.466,9.524l-11.336,0.7l-6.862,0.712l-5.25,1.141l-5.61,2.041l-3.141,1.636l-4.455,3.114l-3.491,3.279
	l-2.455,2.881l-2.664,3.812l-2.564,4.48l-3.919,7.312l-33.709,66.926l-1.375,3.469l-0.54,2.092l-0.332,3.096l0.183,2.238
	l0.528,1.947l1.105,2.113l1.325,1.543l1.66,1.299l2.096,1.084l2.25,0.738l2.468,0.465l2.598,0.201l2.08-0.012l2.173-0.139
	l3.933-0.344l20.326-2.049l75.048-8.25l109.412-12.076l7.991-0.814l3.387,0.088l2.74,0.562l1.911,0.764l1.749,1.129l1.329,1.416
	l0.622,1.127l0.349,1.268l0.014,1.252l-0.392,1.439l-0.779,1.318l-0.887,0.961l-1.464,1.105l-2.035,1.027l-2.336,0.773l-2.432,0.5
	l-3.828,0.584L639.036,546.01l-209.208,31.674l-15.4,2.316l-5.607,0.406l-5.455-0.207l-5.237-0.863l-5.268-1.682l-3.861-1.908
	l-3.005-2.021l-3.286-2.969l-2.209-2.676l-1.781-2.826l-1.218-2.541l-1.209-3.564l-0.723-3.688l-0.188-5.963l0.638-4.705
	l0.889-3.434l1.631-4.32l3.152-6.811l3.731-7.654l18.318-35.15l19.797-36.068l11.527-20.449l5.072-8.581l5.901-7.756l4.924-4.803
	l4.705-3.463l5.376-2.893l4.729-1.81l3.571-1.013l5.554-1.109l5.044-0.646l5.432-0.435l7.259-0.338l7.178-0.232l5.803-0.176
	l9.99-0.304l55.161-1.645l105.208-2.822l69.81-1.356l49.192-0.414l1.428,0.042l1.144,0.096l1.697,0.272l1.812,0.521l1.465,0.687
	l1.086,0.779l0.85,0.941l0.477,0.854l0.286,1l0.031,1.121L804.972,398.637z M595.128,209.936
	c26.912,0.151,158.358,5.771,238.778,9.757h0.001c15.515,0.774,16.692,14.639-2.746,14.914
	c-39.308,0.608-95.071,1.515-131.533,1.151c-26.483-0.21-34.324,5.665-43.567,22.488c-9.252,16.752-17.521,40.129-23.92,56.488
	c-6.986,17.896-0.267,19.732,20.252,21.49c34.993,2.892,121.216,7.317,148.155,7.682c22.646,0.303,19.028,16.281,2.714,16.562
	c-79.594,1.495-199.99,3.296-285.378,4.425c-29.602,0.364-37.384-24.512-28.296-44.585c19.182-42.319,24.368-52.699,42.703-84.799
	C546.997,209.795,568.146,209.794,595.128,209.936z"/>
</svg>
