<?xml version="1.0" encoding="utf-8"?>
<!-- Generator: Adobe Illustrator 16.0.0, SVG Export Plug-In . SVG Version: 6.00 Build 0)  -->
<!DOCTYPE svg PUBLIC "-//W3C//DTD SVG 1.1//EN" "http://www.w3.org/Graphics/SVG/1.1/DTD/svg11.dtd">
<svg version="1.1" id="Layer_1" xmlns="http://www.w3.org/2000/svg" xmlns:xlink="http://www.w3.org/1999/xlink" x="0px" y="0px"
	 width="980.957px" height="315.917px" viewBox="0 0 980.957 315.917" enable-background="new 0 0 980.957 315.917"
	 xml:space="preserve">
<path fill="none" stroke="#000000" stroke-linejoin="round" stroke-miterlimit="10" d="M919.981,40.403
	c-0.176,0.933,0.141,2.19-0.777,2.816c-1.308,0.893-2.982-0.217-4.337-0.429c-3.725-1.195-7.751-1.611-11.577-1.774
	c-63.038,0.252-126.051,0.005-189.051-0.057C480.427,40.45,246.537,39.7,12.711,39.006c-3.645,0.313-7.052,2.226-10.09,4.113
	C1.019,44.224-1,46.476,0.563,48.418c2.629,2.987,6.787,3.818,10.462,4.869c13.2,3.127,26.808,4.052,40.088,6.552
	c20.119,3.457,39.714,10.118,57.548,20.069c18.089,10.058,34.573,22.96,49.593,37.146c18.126,16.888,33.857,35.993,49.944,54.826
	c34.964,41.199,69.23,83.125,102.493,125.811c2.402,3.312,5.273,6.223,7.022,9.951c2.043,4.396,6.633,6.998,11.285,7.795
	c6.738,1.336,13.514-0.438,20.16-1.33c151.116-22.111,302.249-43.979,453.372-65.965c10.099-1.318,20.097-3.188,30.226-4.074
	c8.93-1.111,17.836-6.203,21.795-14.551c22.549-51.32,45.037-102.635,67.524-153.95c1.839-4.417,4.322-8.649,5.037-13.411
	c0.716-1.737,0.703-4.816,3.134-5.146c1.436-0.195,2.657,0.789,3.973,1.142l-0.029,0.042c4.585,2.651,9.908,4.169,15.586,4.169
	c17.221,0,31.182-13.96,31.182-31.181C980.957,13.96,966.996,0,949.776,0s-31.182,13.96-31.182,31.181c0,3.229,0.49,6.343,1.4,9.272
	L919.981,40.403z"/>
</svg>
