<?xml version="1.0" encoding="utf-8"?>
<!-- Generator: Adobe Illustrator 16.0.0, SVG Export Plug-In . SVG Version: 6.00 Build 0)  -->
<!DOCTYPE svg PUBLIC "-//W3C//DTD SVG 1.1//EN" "http://www.w3.org/Graphics/SVG/1.1/DTD/svg11.dtd">
<svg version="1.1" id="Layer_1" xmlns="http://www.w3.org/2000/svg" xmlns:xlink="http://www.w3.org/1999/xlink" x="0px" y="0px"
	 width="1219.701px" height="539.104px" viewBox="0 0 1219.701 539.104" enable-background="new 0 0 1219.701 539.104"
	 xml:space="preserve">
<path fill="none" stroke="#000000" stroke-linejoin="round" stroke-miterlimit="10" d="M60.092,44.874
	c1.464-3.613,2.27-7.562,2.27-11.7c0-17.22-13.959-31.18-31.18-31.18c-17.222,0-31.181,13.959-31.181,31.18
	c0,17.221,13.96,31.18,31.181,31.18c4.809,0,9.362-1.089,13.43-3.033c1.311-0.405,2.553-1.168,3.959-1.252
	c2.193-0.131,1.368,2.433,1.367,3.832c-0.83,3.365-1.253,6.878-1.678,10.258c-1.598,17.165-1.613,34.325-2.815,51.489
	c-2.703,39.705-4.298,79.486-5.972,119.268c-2.766,65.959-4.978,131.838-7.505,197.717c-0.21,7.437-0.735,14.869-0.787,22.303
	c0.022,6.562,2.813,13.115,7.97,17.289c7.297,5.982,16.873,8.004,26.047,8.523c7.513,0.131,14.794,1.605,22.229,2.449
	c38.291,4.922,76.66,9.844,115.029,14.367c17.483,2.147,34.966,4.062,52.526,5.582c29.822,2.896,59.338,8.479,88.542,15.02
	c10.05,2.177,19.945,4.907,30.15,6.216c26.505,3.779,53.312,4.472,80.041,4.689c36.935,0.342,73.854-2.166,110.692-3.728
	c206.117-9.524,412.153-18.896,618.271-28.737c7.75-0.107,15.487-2.902,21.318-8.146c8.041-7.227,12.906-17.521,15.396-27.893
	c0.151-0.947,0.311-1.896,0.307-2.851c-0.25-112.366-0.5-224.651-1.227-336.937c-0.091-23.959-0.334-47.918-0.656-71.956
	c-0.188-7.354-0.135-14.787-0.637-22.218c-0.742-8.934-4.97-17.774-12.498-22.887c-9.752-7.002-22.328-8.459-34.107-7.705
	C943.146,4,715.638,1.903,488.21,0.28c-21.667-0.08-43.257-0.396-64.923-0.238c-23.404,0.401-46.885,1.989-70.04,5.948
	c-7.508,1.214-14.854,3.455-22.441,4.115c-85.597,11.859-171.271,23.637-256.868,35.73c-2.842,0.349-5.799,0.77-8.629,1.549
	C63.116,47.384,60.18,48,60.092,44.874z"/>
</svg>
