<?xml version="1.0" encoding="utf-8"?>
<!-- Generator: Adobe Illustrator 16.0.0, SVG Export Plug-In . SVG Version: 6.00 Build 0)  -->
<!DOCTYPE svg PUBLIC "-//W3C//DTD SVG 1.1//EN" "http://www.w3.org/Graphics/SVG/1.1/DTD/svg11.dtd">
<svg version="1.1" id="Layer_1" xmlns="http://www.w3.org/2000/svg" xmlns:xlink="http://www.w3.org/1999/xlink" x="0px" y="0px"
	 width="1029.963px" height="632.637px" viewBox="0 0 1029.963 632.637" enable-background="new 0 0 1029.963 632.637"
	 xml:space="preserve">
<path fill="none" stroke="#000000" stroke-linejoin="round" stroke-miterlimit="10" d="M47.972,393.705
	c1.894,2.397,4.183,4.499,6.629,6.316c11.354,8.438,26.316,7.975,39.783,7.987c3.761,0.004,7.521,0.001,11.281,0.05
	c4.208,0.055,8.415,0.105,12.624,0.118c0.52,0.001,1.041,0,1.561,0.004c31.156,0.242,73.828,0.57,118.537,0.849
	c123.885,0.771,206.251,0.782,251.813,0.039c2.963-0.048,5.776-0.101,8.453-0.156c1.692-0.035,3.416-0.065,5.149-0.096
	c27.234-0.443,54.48-0.046,81.71,0.578c30.837,0.707,61.652,2.04,92.478,3.147c23.277,0.838,46.562,1.274,69.855,1.488
	c6.42,0.064,12.84,0.139,19.26,0.233c27.201,0.412,54.405,0.688,81.609,0.888c22.547,0.164,45.094,0.28,67.641,0.447
	c14.681,0.108,29.359,0.237,44.038,0.422c6.823,0.085,13.646,0.188,20.471,0.299c0.562,0.01,1.124,0.004,1.685,0.027
	c0.299,0.011,0.608,0.017,0.924,0.011c7.067-0.115,17.09-5.227,25.925-12.483"/>
<path fill="none" stroke="#000000" stroke-linejoin="round" stroke-miterlimit="10" d="M960.329,474.002
	c4.462-7.291,5.582-14.284,3.326-20.833c-5.531-16.057-29.845-22.829-41.524-26.088c-1.359-0.378-2.642-0.811-4.058-0.908
	c-0.181-0.014-0.359-0.024-0.54-0.038c-0.185-0.014-0.366-0.024-0.551-0.039c-0.188-0.014-0.38-0.025-0.569-0.04
	c-0.196-0.015-0.396-0.026-0.592-0.041c-0.207-0.016-0.414-0.028-0.621-0.044c-0.218-0.016-0.438-0.029-0.654-0.045
	c-0.23-0.018-0.463-0.032-0.694-0.048c-0.245-0.019-0.491-0.034-0.738-0.053c-0.264-0.019-0.524-0.035-0.788-0.055
	c-0.28-0.021-0.562-0.037-0.841-0.058c-0.301-0.021-0.601-0.041-0.898-0.062c-0.32-0.021-0.641-0.043-0.961-0.064
	c-0.342-0.022-0.684-0.047-1.024-0.068c-0.363-0.023-0.729-0.049-1.093-0.073c-0.389-0.025-0.774-0.053-1.163-0.078
	c-0.412-0.026-0.823-0.056-1.235-0.082c-0.438-0.028-0.874-0.06-1.312-0.088c-0.464-0.031-0.926-0.062-1.389-0.094
	c-0.488-0.031-0.978-0.064-1.465-0.098c-0.516-0.034-1.029-0.068-1.545-0.104c-0.541-0.035-1.081-0.071-1.622-0.106
	c-0.568-0.037-1.137-0.075-1.703-0.112c-0.595-0.039-1.188-0.078-1.781-0.117c-0.62-0.04-1.239-0.081-1.859-0.122
	c-0.646-0.043-1.293-0.085-1.938-0.128c-0.672-0.045-1.344-0.089-2.017-0.133c-0.696-0.046-1.396-0.092-2.092-0.137
	c-0.723-0.049-1.442-0.096-2.166-0.143c-0.746-0.05-1.492-0.099-2.239-0.146c-0.771-0.051-1.539-0.102-2.311-0.149
	c-0.794-0.053-1.587-0.104-2.38-0.154c-0.814-0.053-1.631-0.105-2.445-0.158c-0.839-0.055-1.676-0.108-2.513-0.162
	c-0.857-0.057-1.717-0.109-2.574-0.166c-0.879-0.058-1.758-0.112-2.636-0.169c-0.897-0.06-1.797-0.115-2.693-0.173
	c-0.917-0.06-1.833-0.117-2.75-0.177c-0.936-0.061-1.87-0.119-2.806-0.18c-0.952-0.061-1.903-0.12-2.855-0.182
	c-0.969-0.062-1.938-0.122-2.904-0.184c-0.985-0.062-1.971-0.124-2.954-0.188c-1-0.062-2-0.125-3-0.188
	c-1.016-0.062-2.029-0.127-3.044-0.188c-1.029-0.063-2.059-0.128-3.087-0.19c-1.042-0.063-2.085-0.129-3.127-0.192
	c-1.057-0.063-2.111-0.13-3.167-0.193c-1.068-0.064-2.137-0.131-3.204-0.194c-1.081-0.065-2.161-0.132-3.242-0.196
	c-1.092-0.065-2.186-0.132-3.275-0.196c-1.104-0.065-2.208-0.133-3.312-0.197c-1.115-0.066-2.229-0.134-3.347-0.198
	c-1.126-0.065-2.252-0.133-3.378-0.199c-1.138-0.065-2.272-0.133-3.409-0.198c-1.146-0.066-2.294-0.135-3.441-0.2
	c-1.156-0.065-2.313-0.133-3.472-0.198c-1.168-0.066-2.335-0.135-3.502-0.2c-1.179-0.066-2.355-0.134-3.532-0.2
	c-1.188-0.065-2.374-0.134-3.562-0.199c-1.195-0.065-2.394-0.135-3.589-0.2c-1.206-0.065-2.412-0.133-3.617-0.198
	c-1.216-0.067-2.432-0.135-3.646-0.2c-21.171-1.157-42.348-2.217-63.537-2.969c-6.171-0.22-12.343-0.412-18.515-0.574
	c-7.659-0.201-15.319-0.361-22.979-0.479c-8.012-0.121-16.021-0.216-24.033-0.306c-10.527-0.115-21.058-0.274-31.586-0.274
	c-1.294-0.011-2.587-0.021-3.881-0.03c-1.295-0.012-2.59-0.022-3.885-0.033c-1.297-0.011-2.593-0.021-3.889-0.032
	c-1.298-0.011-2.596-0.021-3.893-0.031c-1.3-0.012-2.598-0.021-3.896-0.03c-1.298-0.011-2.6-0.021-3.896-0.029
	c-1.302-0.01-2.602-0.021-3.9-0.028c-1.303-0.011-2.604-0.02-3.904-0.027c-1.303-0.011-2.604-0.021-3.906-0.028
	c-1.305-0.01-2.606-0.021-3.91-0.028c-1.306-0.011-2.607-0.021-3.913-0.03c-1.306-0.011-2.608-0.021-3.913-0.03
	c-1.305-0.011-2.608-0.021-3.914-0.03c-1.305-0.011-2.608-0.021-3.913-0.03c-1.305-0.012-2.607-0.021-3.912-0.029
	c-1.305-0.012-2.605-0.021-3.91-0.03c-1.304-0.009-2.605-0.021-3.91-0.028c-1.25-0.01-2.5-0.019-3.752-0.026
	c-13.729-0.104-27.462-0.204-41.191-0.312c-16.118-0.126-32.237-0.226-48.356-0.354c-17.736-0.143-35.477-0.238-53.213-0.374
	c-18.592-0.146-37.185-0.255-55.777-0.38c-18.687-0.126-37.373-0.273-56.06-0.367c-18.018-0.092-36.035-0.292-54.053-0.346
	c-16.581-0.048-33.161-0.278-49.742-0.301c-14.357-0.018-28.715-0.209-43.073-0.229c-7.945-0.014-15.892-0.031-23.837-0.074
	c-12.348-0.084-24.771,0.049-37.154-0.482c-1.342-0.059-2.684-0.122-4.023-0.195c-4.005-0.223-8.01-0.437-12.017-0.604
	c-3.034-0.129-6.07-0.202-9.107-0.202c-4.736,0-9.74-0.44-14.051,1.938c-2.782,1.536-4.312,4.819-5.242,7.991"/>
</svg>
