<?xml version="1.0" encoding="utf-8"?>
<!-- Generator: Adobe Illustrator 16.0.0, SVG Export Plug-In . SVG Version: 6.00 Build 0)  -->
<!DOCTYPE svg PUBLIC "-//W3C//DTD SVG 1.1//EN" "http://www.w3.org/Graphics/SVG/1.1/DTD/svg11.dtd">
<svg version="1.1" id="Layer_1" xmlns="http://www.w3.org/2000/svg" xmlns:xlink="http://www.w3.org/1999/xlink" x="0px" y="0px"
	 width="841.857px" height="312.875px" viewBox="0 0 841.857 312.875" enable-background="new 0 0 841.857 312.875"
	 xml:space="preserve">
<path fill="none" stroke="#000000" stroke-linejoin="round" stroke-miterlimit="10" d="M841.604,80.878
	c-1.021-7.816-5.044-14.401-11.941-19.579c-11.235-8.424-17.822-12.164-29.536-13.521c-5.536-0.643-12.241-0.781-22.684-0.815
	c-27.81-0.088-695.232-1.292-701.969-1.305l0.1,0.003c-10.76-0.215-17.945,2.411-21.964,8.032
	c-4.015,5.614-4.188,13.586-0.51,23.689c7.837,21.538,54.723,123.62,60.867,135.854c7.212,14.356,13.381,16.716,36.623,20.539
	c7.316,1.201,57.472,9.804,120.971,20.69c126.442,21.688,317.523,54.455,336.583,57.298c1.248,0.188,2.475,0.348,3.66,0.483
	c0.005,0.002,0.005,0.002,0.009,0.002c28.309,3.272,41.229-6.812,54.054-19.319c14.021-13.683,155.74-168.314,164.824-179.851
	C834.589,108.128,843.463,95.074,841.604,80.878z"/>
</svg>
