<?xml version="1.0" encoding="utf-8"?>
<!-- Generator: Adobe Illustrator 16.0.0, SVG Export Plug-In . SVG Version: 6.00 Build 0)  -->
<!DOCTYPE svg PUBLIC "-//W3C//DTD SVG 1.1//EN" "http://www.w3.org/Graphics/SVG/1.1/DTD/svg11.dtd">
<svg version="1.1" id="Layer_1" xmlns="http://www.w3.org/2000/svg" xmlns:xlink="http://www.w3.org/1999/xlink" x="0px" y="0px"
	 width="791.395px" height="267.225px" viewBox="0 0 791.395 267.225" enable-background="new 0 0 791.395 267.225"
	 xml:space="preserve">
<path d="M791.142,35.229c-1.021-7.814-5.044-14.399-11.943-19.579c-11.232-8.424-17.819-12.164-29.534-13.521
	c-5.535-0.645-12.24-0.781-22.686-0.815C699.171,1.226,31.747,0.022,25.01,0.01l0.101,0.003C14.35-0.202,7.165,2.424,3.146,8.045
	c-4.016,5.614-4.188,13.586-0.51,23.688c7.837,21.538,54.723,123.62,60.866,135.854c7.212,14.355,13.382,16.716,36.623,20.539
	c7.314,1.201,57.473,9.804,120.972,20.689c126.44,21.688,317.522,54.455,336.583,57.299c1.248,0.188,2.473,0.348,3.66,0.482
	c0.005,0.002,0.005,0.002,0.009,0.002c28.307,3.273,41.229-6.812,54.052-19.318C629.424,233.598,771.143,78.967,780.227,67.43
	C784.128,62.479,793.002,49.426,791.142,35.229z"/>
</svg>
