<?xml version="1.0" encoding="utf-8"?>
<!-- Generator: Adobe Illustrator 16.0.0, SVG Export Plug-In . SVG Version: 6.00 Build 0)  -->
<!DOCTYPE svg PUBLIC "-//W3C//DTD SVG 1.1//EN" "http://www.w3.org/Graphics/SVG/1.1/DTD/svg11.dtd">
<svg version="1.1" id="Layer_1" xmlns="http://www.w3.org/2000/svg" xmlns:xlink="http://www.w3.org/1999/xlink" x="0px" y="0px"
	 width="851.939px" height="277.572px" viewBox="0 0 851.939 277.572" enable-background="new 0 0 851.939 277.572"
	 xml:space="preserve">
<path fill="none" stroke="#000000" stroke-linejoin="round" stroke-miterlimit="10" d="M62.238,28.38
	C60.822,12.471,47.458,0,31.181,0C13.96,0,0,13.96,0,31.181c0,17.221,13.96,31.181,31.182,31.181
	c10.101,0,19.081-4.803,24.777-12.25c0.946-0.581,1.84-2.136,3.132-1.816c1.199,0.296,1.106,2.105,1.507,3.002
	c1.285,10.848,7.527,20.131,10.618,24.149c8.958,11.642,148.935,167.854,162.797,181.684c12.684,12.654,25.489,22.89,53.833,19.929
	c1.191-0.123,2.417-0.271,3.67-0.442c19.108-2.632,210.743-33.284,337.546-53.573c63.438-10.146,113.541-18.162,120.854-19.279
	c23.287-3.562,29.482-5.85,36.854-20.121c6.284-12.164,54.312-113.723,62.39-135.162c3.788-10.072,3.704-18.046-0.249-23.707
	c-3.946-5.657-11.094-8.363-21.838-8.276c-10.334-0.098-674.146-6.348-701.873-6.569c-10.676-0.084-17.115-0.021-22.688,0.562
	c-11.729,1.223-18.357,4.89-29.69,13.188c-2.385,1.748-4.434,3.666-6.141,5.746c-0.77,0.325-1.679,1.013-2.552,0.904
	C63.076,30.198,62.743,29.143,62.238,28.38z"/>
</svg>
