<?xml version="1.0" encoding="utf-8"?>
<!-- Generator: Adobe Illustrator 16.0.0, SVG Export Plug-In . SVG Version: 6.00 Build 0)  -->
<!DOCTYPE svg PUBLIC "-//W3C//DTD SVG 1.1//EN" "http://www.w3.org/Graphics/SVG/1.1/DTD/svg11.dtd">
<svg version="1.1" id="Layer_1" xmlns="http://www.w3.org/2000/svg" xmlns:xlink="http://www.w3.org/1999/xlink" x="0px" y="0px"
	 width="1242.4px" height="515.77px" viewBox="0 0 1242.4 515.77" enable-background="new 0 0 1242.4 515.77" xml:space="preserve">
<path fill="none" stroke="#000000" stroke-linejoin="round" stroke-miterlimit="10" d="M1187.82,52.493
	c-9.877-14.559-32.228-22.29-61.312-21.213c-36.145,1.339-551.207,7.641-645.188,5.089c-94.97-2.571-392.475,3.929-421.155,6.229
	l-0.717,0.061c-29.805,2.747-40.771,39.472-48.183,78.75C3.526,162.438-0.825,448.354,0.131,472.045
	c0.985,24.456,24.188,28.342,41.131,31.181c2.236,0.374,4.347,0.729,6.402,1.117c18.524,3.492,213.42,12.636,305.886,11.293
	c86.062-1.251,620.545-11.385,647.458-13.385l0.537-0.042c25.994-2.087,30.42-13.91,31.168-17.979
	c6.484-16.352,134.449-338.927,154.699-384.81C1195.847,80.315,1195.984,64.526,1187.82,52.493z"/>
</svg>
