<?xml version="1.0" encoding="utf-8"?>
<!-- Generator: Adobe Illustrator 16.0.0, SVG Export Plug-In . SVG Version: 6.00 Build 0)  -->
<!DOCTYPE svg PUBLIC "-//W3C//DTD SVG 1.1//EN" "http://www.w3.org/Graphics/SVG/1.1/DTD/svg11.dtd">
<svg version="1.1" id="Layer_1" xmlns="http://www.w3.org/2000/svg" xmlns:xlink="http://www.w3.org/1999/xlink" x="0px" y="0px"
	 width="1258.051px" height="321.508px" viewBox="0 0 1258.051 321.508" enable-background="new 0 0 1258.051 321.508"
	 xml:space="preserve">
<path fill="none" stroke="#000000" stroke-linejoin="round" stroke-miterlimit="10" d="M1181.831,262.543
	c9.738,6.465,23.908,21.695,3.217,36.348c-20.684,14.66-38.057,25.354-62.166,22c-24.114-3.361-330.244-49.246-540.818-107.813
	C347.284,147.761,100.146,67.06,65.815,51.781c-8.971-4-59.033-46.068-64.809-49.223c-5.777-3.146,14.218-4.916,36.998,4.051
	c22.779,8.98,351.983,106.225,422.662,118.287c70.691,12.053,323.245,25.24,359.771,28.594
	c60.941,5.59,107.812-44.359,107.812-44.359L1181.831,262.543z"/>
</svg>
