<?xml version="1.0" encoding="utf-8"?>
<!-- Generator: Adobe Illustrator 16.0.0, SVG Export Plug-In . SVG Version: 6.00 Build 0)  -->
<!DOCTYPE svg PUBLIC "-//W3C//DTD SVG 1.1//EN" "http://www.w3.org/Graphics/SVG/1.1/DTD/svg11.dtd">
<svg version="1.1" id="Layer_1" xmlns="http://www.w3.org/2000/svg" xmlns:xlink="http://www.w3.org/1999/xlink" x="0px" y="0px"
	 width="1195.689px" height="321.508px" viewBox="0 0 1195.689 321.508" enable-background="new 0 0 1195.689 321.508"
	 xml:space="preserve">
<path d="M1181.83,262.543c9.737,6.465,23.908,21.695,3.219,36.348c-20.686,14.66-38.06,25.354-62.166,22
	c-24.115-3.36-330.244-49.246-540.818-107.813C347.284,147.76,100.146,67.06,65.815,51.781c-8.971-4-59.032-46.068-64.811-49.223
	c-5.775-3.146,14.22-4.916,36.998,4.051c22.779,8.98,351.982,106.225,422.661,118.287c70.691,12.053,323.245,25.24,359.771,28.594
	c60.943,5.59,107.813-44.359,107.813-44.359L1181.83,262.543z"/>
</svg>
