<?xml version="1.0" encoding="utf-8"?>
<!-- Generator: Adobe Illustrator 16.0.0, SVG Export Plug-In . SVG Version: 6.00 Build 0)  -->
<!DOCTYPE svg PUBLIC "-//W3C//DTD SVG 1.1//EN" "http://www.w3.org/Graphics/SVG/1.1/DTD/svg11.dtd">
<svg version="1.1" id="Layer_1" xmlns="http://www.w3.org/2000/svg" xmlns:xlink="http://www.w3.org/1999/xlink" x="0px" y="0px"
	 width="1675.367px" height="660.521px" viewBox="0 0 1675.367 660.521" enable-background="new 0 0 1675.367 660.521"
	 xml:space="preserve">
<path fill="none" stroke="#000000" stroke-linejoin="round" stroke-miterlimit="10" d="M670.244,216.827
	c-23.633,8.726-49.865-3.365-58.594-26.999c-8.729-23.643,3.36-49.876,26.994-58.602c23.646-8.719,49.877,3.361,58.604,27.004
	C705.969,181.868,693.886,208.097,670.244,216.827z M1452.923,171.482c-1.762-15.549-14.96-27.63-30.979-27.63
	c-10.057,0-19,4.76-24.702,12.15l0.006,0.005c-19.437,5.247-49.86-6.138-49.86-6.138
	c-89.171-38.353-330.771-143.846-337.216-148.003c-7.658-4.949-23.062,0.734-47.67,7.868
	c-24.595,7.138-302.37,113.568-415.094,145.453c-112.721,31.884-253.016,68.115-283.382,75.43
	c-30.363,7.323-88.393,34.575-114.145,59.64c-25.757,25.077-129.057,135.183-139.14,144.741
	c-10.095,9.555-20.445,28.936,6.055,26.938c3.882-0.292,15.166-1.812,31.668-4.201c0,0,41.469-0.974,47.008,18.029l-0.009-0.135
	c0.023,1.874,0.853,4.12,2.813,6.799c7.848,10.73,32.833,52.078,47.346,54.5c14.512,2.424,283.562,56.775,368.286,70.24
	c84.724,13.463,383.315,53.008,383.315,53.008c12.369,2.959,23.042-13.459,20.565-32.703l-0.003,0.001
	c-9.854-100.713,135.785-76.945,135.785-76.945l0.009,0.003c50.748,12.206,128.259,21.56,224.707-3.615
	c70.703-18.459,264.104-101.213,348.589-145.067c14.483-7.521,30.157-14.644,46.194-21.332c1.379-3.156,2.267-6.354,2.293-9.396
	c0.235-27.053-108.097-58.963-122.042-78.433c-13.271-18.534-31.672-54.308,22.631-104.425c-9.198-21.23-7.809-42.755-6.196-48.321
	c2.666-9.261-2.068-13.908-12.867-7.821c0,0-32.594,22.953-77.304,53.001c-15.264,2.361-25.236-1.361-26.668-13.64H1452.923z"/>
</svg>
