<?xml version="1.0" encoding="utf-8"?>
<!-- Generator: Adobe Illustrator 16.0.0, SVG Export Plug-In . SVG Version: 6.00 Build 0)  -->
<!DOCTYPE svg PUBLIC "-//W3C//DTD SVG 1.1//EN" "http://www.w3.org/Graphics/SVG/1.1/DTD/svg11.dtd">
<svg version="1.1" id="Layer_1" xmlns="http://www.w3.org/2000/svg" xmlns:xlink="http://www.w3.org/1999/xlink" x="0px" y="0px"
	 width="1857.74px" height="540.036px" viewBox="0 0 1857.74 540.036" enable-background="new 0 0 1857.74 540.036"
	 xml:space="preserve">
<path fill="none" stroke="#000000" stroke-miterlimit="10" d="M924.497,484.165c-33.751-25.986-235.569-169.386-303.608-210.129
	c-91.176-54.598-260.34-191.701-260.34-191.701c-10.356-6.805-15.408-2.484-13.363,6.938c2.039,9.416,0.536,62.913-47.267,82.479
	c-47.812,19.561-178.308,34.891-204.839,37.732c-26.54,2.836-48.003,30.594-18.48,46.02
	c29.525,15.427,127.401,49.567,195.917,91.229c81.333,49.455,268.717,145.072,338.01,168.252
	c148.101,49.541,255.529,11.398,284.085,5.064C924.521,513.407,958.238,510.149,924.497,484.165z M1851.861,472.129
	c-6.215-7.342-107.523-124.014-107.523-124.014s-56.954-71.888-132.592-95.932c-75.639-24.044-295.078-93.121-295.078-93.121
	s-4.262-2.987-16.733-1.261c-12.474,1.725-34.979,5.88-34.979,5.88l-0.192,0.042c5.442,5.943,9.131,13.55,10.137,22.111
	c2.594,22.008-13.482,41.99-35.9,44.628c-22.422,2.639-42.694-13.063-45.287-35.072c-0.696-5.935-0.036-11.719,1.736-17.056
	l-0.174,0.035l-10.512,1.123l-8.242-4.619l-64.795,142.694c0,0-5.65,13.718-20.354,7.041
	c-14.703-6.681-283.426-128.694-283.426-128.694s-17.955-5.014-8.663-25.48c9.292-20.468,77.087-169.793,77.087-169.793
	s-16.271-2.78-26.854,3.22l-322.329,138.68c0,0-34.775,11.571-8.093,36.428l39.229,25.741L746.854,329.81
	c0,0,125.158,75.698,177.351,140.771l5.586,6.104c0,0,15.604,21.939,33.035,22.73c17.428,0.787,651.864,19.93,651.864,19.93
	l58.509,1.033c0,0,27.496,1.033,40.629-8.422l4.672-2.762l7.08-5.418l5.853-6.043l3.832-5.195l1.576-2.613l1.641-3.322
	l-302.619-72.467c0,0-8.818-1.061-7.047-5.77l0.512-0.935c0,0,1.279-3.22,8.373-1.722c7.092,1.496,405.941,87.469,405.941,87.469
	s11.615,1.895,13.34-3.396l0.762-2.715C1857.734,487.063,1858.077,479.471,1851.861,472.129z"/>
</svg>
