<?xml version="1.0" encoding="utf-8"?>
<!-- Generator: Adobe Illustrator 16.0.0, SVG Export Plug-In . SVG Version: 6.00 Build 0)  -->
<!DOCTYPE svg PUBLIC "-//W3C//DTD SVG 1.1//EN" "http://www.w3.org/Graphics/SVG/1.1/DTD/svg11.dtd">
<svg version="1.1" id="Layer_1" xmlns="http://www.w3.org/2000/svg" xmlns:xlink="http://www.w3.org/1999/xlink" x="0px" y="0px"
	 width="2458.086px" height="894.658px" viewBox="0 0 2458.086 894.658" enable-background="new 0 0 2458.086 894.658"
	 xml:space="preserve">
<path fill="none" stroke="#000000" stroke-linejoin="round" stroke-miterlimit="10" d="M60.118,866.413
	c0.585-0.759,1.293-1.396,2.221-1.812c0.632-0.281,1.286-0.212,1.958-0.138c0.561,0.062,1.122,0.122,1.682,0.184
	c0.805,0.088,1.608,0.175,2.412,0.263c0.983,0.105,1.966,0.213,2.949,0.318c1.124,0.122,2.248,0.244,3.371,0.366
	c1.226,0.134,2.453,0.268,3.679,0.399c1.291,0.141,2.581,0.281,3.872,0.421c1.317,0.144,2.634,0.286,3.951,0.429
	c1.305,0.144,2.609,0.284,3.915,0.427c1.255,0.136,2.51,0.271,3.765,0.407c1.167,0.127,2.333,0.254,3.5,0.381
	c1.04,0.112,2.08,0.227,3.121,0.34c0.875,0.095,1.751,0.188,2.626,0.284c0.672,0.073,1.345,0.146,2.019,0.22
	c0.432,0.047,0.862,0.094,1.295,0.141c0.151,0.018,0.305,0.033,0.457,0.05c65.195,7.713,130.907,9.923,196.462,13.796
	c104.197,6.269,208.541,8.746,313.062,11.213c22.945,2.648,46.515-4.271,65.315-17.516c24.128-17.021,39.314-42.805,56.739-65.949
	c53.002-72.733,103.293-147.524,156.687-219.944c25.552-37.8,57.854-70.729,94.079-98.511
	c37.762-28.479,81.111-51.254,128.231-58.272c44.958-8.953,91.879,1.083,133.106,19.955
	c162.261,73.977,322.75,151.543,482.938,229.68c10.692,4.99,21.144,11.086,32.655,13.66c8.481,0.916,11.239-8.693,12.33-15.443
	c8.129-50.881,21.485-101.225,40.069-149.42c21.215-53.848,49.784-105.586,90.873-146.782
	c17.854-17.271,37.582-33.659,60.933-42.708c51.052-19.09,106.597-27.522,160.978-21.309c26.871,2.602,53.364,8.473,79.18,16.385
	c82.623,25.535,164.705,52.739,247.535,76.816c-12.72-17.701-21.847-38.641-37.859-53.664c-56.832-23-114.168-43.974-171-66.973
	c-57.021-21.367-113.222-45.15-170.955-64.828c-67.32-26.04-135.345-50.213-203.086-75.134
	c-80.392-28.098-160.271-58.219-242.707-80.187c-37.453-11.73-74.81-24.189-112.845-34.604
	c-45.828-11.585-91.961-22.598-138.539-31.054c-82.645-17.102-171.516-8.091-247.196,30.044
	C1020.93,87.15,914.916,151.38,817.764,227.069c-128.07,96.104-250.881,199.915-362.94,314.451
	c-81.83,80.562-160.911,163.528-243.345,243.438c-25.784,23.471-54.257,45.068-87.292,57.092c-4.424,1.814-8.915,3.414-13.452,4.858
	c-0.141,0.001-0.282,0.001-0.424,0.002c-0.402,0.002-0.806,0.004-1.209,0.006c-0.631,0.003-1.263,0.007-1.894,0.01
	c-0.828,0.004-1.655,0.008-2.483,0.012c-0.991,0.006-1.981,0.011-2.973,0.016c-1.122,0.006-2.243,0.011-3.365,0.017
	c-1.22,0.006-2.439,0.013-3.659,0.019c-1.286,0.007-2.57,0.013-3.855,0.02c-1.318,0.006-2.638,0.014-3.955,0.02
	c-1.318,0.007-2.638,0.014-3.956,0.02c-1.286,0.007-2.572,0.014-3.858,0.021c-1.221,0.006-2.441,0.012-3.663,0.018
	c-1.123,0.006-2.247,0.011-3.37,0.018c-0.992,0.005-1.985,0.01-2.979,0.015c-0.83,0.004-1.66,0.008-2.49,0.012
	c-1.132,0.005-2.369,0.26-3.479-0.017c-0.701-0.175-1.151-0.702-1.54-1.278c-1.472-2.182-2.345-4.859-3.732-7.122
	c-1.337-2.18-2.889-4.221-4.692-6.037c-3.645-3.669-8.202-6.455-13.21-7.796c-2.773-0.742-5.887-1.271-8.767-1.271
	C13.96,823.604,0,837.564,0,854.785s13.96,31.181,31.181,31.181c10.395,0,19.668-5.149,25.609-13.547
	C58.049,870.639,58.745,868.193,60.118,866.413z"/>
</svg>
