<?xml version="1.0" encoding="utf-8"?>
<!-- Generator: Adobe Illustrator 16.0.0, SVG Export Plug-In . SVG Version: 6.00 Build 0)  -->
<!DOCTYPE svg PUBLIC "-//W3C//DTD SVG 1.1//EN" "http://www.w3.org/Graphics/SVG/1.1/DTD/svg11.dtd">
<svg version="1.1" id="Layer_1" xmlns="http://www.w3.org/2000/svg" xmlns:xlink="http://www.w3.org/1999/xlink" x="0px" y="0px"
	 width="886.649px" height="662.757px" viewBox="0 0 886.649 662.757" enable-background="new 0 0 886.649 662.757"
	 xml:space="preserve">
<path fill="none" stroke="#000000" stroke-linejoin="round" stroke-miterlimit="10" d="M0,61.68c2.706-3.159,4.512-7.897,8.799-8.8
	c4.963-0.451,9.25,2.482,12.184,6.092c62.951,79.873,131.541,155.686,207.128,223.825c31.814,27.978,64.98,54.828,101.083,77.167
	c14.215,8.349,26.85,19.629,42.868,24.816c34.069,13.086,74.231,13.989,106.948-3.158c20.762-14.894,42.869-27.75,63.627-42.418
	c59.568-43.097,112.816-94.765,163.357-148.015c38.586-41.288,76.039-83.707,110.559-128.606c3.385-4.288,7.67-9.252,13.537-9.93
	c5.416-0.225,7.672,5.416,10.605,9.026c-48.285,171.253-96.57,342.506-144.404,513.981c-11.055-6.992-23.24-11.508-34.295-18.273
	c-7.67-4.061-15.117-9.021-23.918-10.379c-11.055-1.809-22.562,1.127-31.588,7.443c-13.537,10.152-28.881,17.602-43.547,26.398
	c-47.607,27.301-94.99,55.053-142.824,81.904C361.683,628.91,303.245,595.744,244.806,561.9
	c-9.476-6.543-18.952-14.441-31.137-15.117c-16.47-2.48-30.009,8.352-43.771,15.568c-8.574,4.287-17.374,8.123-25.496,13.312
	C96.569,404.187,48.283,232.933,0,61.68z"/>
</svg>
