<?xml version="1.0" encoding="utf-8"?>
<!-- Generator: Adobe Illustrator 16.0.0, SVG Export Plug-In . SVG Version: 6.00 Build 0)  -->
<!DOCTYPE svg PUBLIC "-//W3C//DTD SVG 1.1//EN" "http://www.w3.org/Graphics/SVG/1.1/DTD/svg11.dtd">
<svg version="1.1" id="Layer_1" xmlns="http://www.w3.org/2000/svg" xmlns:xlink="http://www.w3.org/1999/xlink" x="0px" y="0px"
	 width="906.215px" height="1479.632px" viewBox="0 0 906.215 1479.632" enable-background="new 0 0 906.215 1479.632"
	 xml:space="preserve">
<path fill="none" stroke="#000000" stroke-miterlimit="10" d="M204.59,1182.066c0,0,123.985,270.727,218.288,297.565l6.703-42.777
	c0,0-52.578-48.862-61.003-214.427l-133.1-880.489c0,0-116.989-17.537-134.921-81.896l123.38,13.366L166.404,0L0,101.718
	l154.091,705.559C154.092,807.276,220.172,1087.401,204.59,1182.066z M668.855,343.445L528.852,1222.86
	c-9.725,165.494-62.684,213.944-62.684,213.944l6.369,42.828c94.51-26.099,220.615-295.844,220.615-295.844
	c-14.838-94.784,53.438-374.382,53.438-374.382l159.625-704.324L740.615,2.06l-59.674,272.946l123.477-12.397
	C785.98,326.825,668.855,343.445,668.855,343.445z M499.973,1312.655l150.43-966.859l-40.188,22.276L547.98,711.863l50.408-341.062
	L451.033,447.37L305.284,368.33l50.333,344.684l-62.173-350.381l-39.771-20.583l116.939,814.097l4.849,33.729l17.312,120.52
	C392.774,1310.396,449.117,1249.837,499.973,1312.655z"/>
</svg>
