<?xml version="1.0" encoding="utf-8"?>
<!-- Generator: Adobe Illustrator 16.0.0, SVG Export Plug-In . SVG Version: 6.00 Build 0)  -->
<!DOCTYPE svg PUBLIC "-//W3C//DTD SVG 1.1//EN" "http://www.w3.org/Graphics/SVG/1.1/DTD/svg11.dtd">
<svg version="1.1" id="Layer_1" xmlns="http://www.w3.org/2000/svg" xmlns:xlink="http://www.w3.org/1999/xlink" x="0px" y="0px"
	 width="906.215px" height="1479.632px" viewBox="0 0 906.215 1479.632" enable-background="new 0 0 906.215 1479.632"
	 xml:space="preserve">
<path fill="none" stroke="#000000" stroke-miterlimit="10" d="M422.878,1479.632l6.703-42.777c0,0-52.578-48.862-61.003-214.427
	l-133.1-880.489c0,0-116.989-17.537-134.921-81.896l123.38,13.366L166.404,0 M740.615,2.06l-59.674,272.946l123.477-12.397
	c-18.438,64.217-135.562,80.836-135.562,80.836L528.852,1222.86c-9.725,165.494-62.684,213.944-62.684,213.944l6.369,42.828
	 M499.973,1312.655l150.43-966.859l-40.188,22.276L547.98,711.863l50.408-341.062L451.033,447.37L305.284,368.33l50.333,344.684
	l-62.173-350.381l-39.771-20.583l116.939,814.097l4.849,33.729l17.312,120.52C392.774,1310.396,449.117,1249.837,499.973,1312.655z"
	/>
</svg>
