<?xml version="1.0" encoding="utf-8"?>
<!-- Generator: Adobe Illustrator 16.0.0, SVG Export Plug-In . SVG Version: 6.00 Build 0)  -->
<!DOCTYPE svg PUBLIC "-//W3C//DTD SVG 1.1//EN" "http://www.w3.org/Graphics/SVG/1.1/DTD/svg11.dtd">
<svg version="1.1" id="Layer_1" xmlns="http://www.w3.org/2000/svg" xmlns:xlink="http://www.w3.org/1999/xlink" x="0px" y="0px"
	 width="1183.265px" height="914.89px" viewBox="0 0 1183.265 914.89" enable-background="new 0 0 1183.265 914.89"
	 xml:space="preserve">
<path fill="none" stroke="#000000" stroke-linejoin="round" stroke-miterlimit="10" d="M628.797,76.787
	c-0.817,2.708,0.105,6.601,4.538,12.192c14.082,17.77,29.662,36.862,29.662,36.862l35.309,42.289l39.891,46.454l44.344,50.469
	l38.484,43.161l44.273,49.317l41.484,46.241l27.486,30.421l16.902,18.562l11.223,11.958l40.4,11.473l41.631,10.705l16.389,4.271
	l8.965,1.855c0,0,9.914-0.651,13.812-8.014"/>
<path fill="none" stroke="#000000" stroke-linejoin="round" stroke-miterlimit="10" d="M1084.566,482.58
	c0.912-3.16,0.834-7.27-0.977-12.613c-7.342-21.662-11.625-34.252-11.625-34.252l-1.034-3.109"/>
<path fill="none" stroke="#000000" stroke-linejoin="round" stroke-miterlimit="10" d="M494.31,81.27l32.814,83.956
	c0.001,0.001,0.721,6.847,11.447,16.571c10.727,9.725,35.825,32.419,35.825,32.419l67.234,60.357l47.213,42.621l81.383,75.73
	l38.433,38.279"/>
<path fill="none" stroke="#000000" stroke-linejoin="round" stroke-miterlimit="10" d="M1088.242,510.8l-54.42-6.959l-6.691-1.379
	l-7.578-2.221l-8.934-3.305l-11.941-5.525l-12.008-6.479l-14.469-8.869l-15.566-10.523l-18.699-13.776l-24.594-19.979
	l-28.854-26.008l-25.014-24.241L833.81,355.27l-26.072-28.111l-26.77-30.33l-20.047-23.645l-37.566-46.292l-39.229-50.729
	l-31.508-42.107L613.964,81.36"/>
<path fill="none" stroke="#000000" stroke-linejoin="round" stroke-miterlimit="10" d="M683.367,521.429
	c-29.684-62.895-60.439-125.267-90.771-187.849c-25.8-54.347-53.334-107.853-78.27-162.62c-11.544-23.821-23.087-47.641-34.63-71.46
	c-3.539-7.748-8.687-14.714-14.488-20.768"/>
</svg>
