<?xml version="1.0" encoding="utf-8"?>
<!-- Generator: Adobe Illustrator 16.0.0, SVG Export Plug-In . SVG Version: 6.00 Build 0)  -->
<!DOCTYPE svg PUBLIC "-//W3C//DTD SVG 1.1//EN" "http://www.w3.org/Graphics/SVG/1.1/DTD/svg11.dtd">
<svg version="1.1" id="Layer_1" xmlns="http://www.w3.org/2000/svg" xmlns:xlink="http://www.w3.org/1999/xlink" x="0px" y="0px"
	 width="1183.266px" height="914.891px" viewBox="0 0 1183.266 914.891" enable-background="new 0 0 1183.266 914.891"
	 xml:space="preserve">
<path d="M194.764,107.137l-2.271,13.666l-4.24,23.897l-7.979,40.601l-8.862,40.323l-9.11,37.713l-8.993,34.464l-9.591,34.369
	l-8.099,27.487l-8.544,27.721l-9.327,28.993l-6.442,19.349c0,0-4.282,12.593-11.627,34.251
	c-7.343,21.66,13.812,23.055,13.812,23.055l8.966-1.855l16.387-4.271l41.635-10.707l40.398-11.475L232.1,452.76l16.899-18.562
	l27.485-30.422l41.485-46.241l44.275-49.318l38.485-43.16l44.342-50.469l39.889-46.454l35.31-42.289c0,0,15.58-19.092,29.666-36.859
	c14.086-17.766-7.274-18.375-7.274-18.375l-11.382-1.2l-36.721-1.268l-68.138-0.56l-51.936,1.74l-56.261,3.77l-53.665,5.369
	l-40.483,5.165C194.63,83.51,194.764,107.137,194.764,107.137z M499.139,176.165l-39.229,50.729l-37.564,46.292l-20.048,23.645
	l-26.771,30.33l-26.072,28.113l-25.664,26.265l-25.012,24.241l-28.854,26.009l-24.594,19.979l-18.699,13.777l-15.565,10.523
	l-14.468,8.867l-12.01,6.479l-11.941,5.527l-8.935,3.305l-7.578,2.219l-6.689,1.381l-54.42,6.959l-4.495,15.395L58.987,649.67
	L25.522,781.251L0,914.891L166.67,685.59l136.334-177.354l48.656-54.179l61.378-61.133l81.384-75.732l47.215-42.62l67.231-60.357
	c0,0,25.102-22.694,35.825-32.419c10.729-9.725,11.447-16.57,11.447-16.57l32.812-83.956l-119.653,0.091l-38.654,52.695
	L499.139,176.165z M590.663,333.578c-30.324,62.582-61.088,124.954-90.766,187.85c3.589,3.076,7.075,6.369,10.664,9.447
	c3.85-1.877,7.598-3.539,11.229-5.521c122.496-67.92,248.303-129.423,371.459-195.955c24.674-15.05,50.342-28.283,75.014-43.333
	c7.479-4.397,13.209-11.248,19.051-17.241c74.314-73.889,127-164.944,189.25-248.155c4.016-6.077,9.094-13.242,5.447-20.624
	c-9.152-0.425-18.16,2.163-26.734,4.96c-108.479,35.137-220.332,58.478-331.639,82.888c-22.856,5.233-47.068,5.533-69.854-0.427
	c-8.636-2.046-14.954-8.316-22.322-12.423c-2.821-1.902-6.925-2.82-9.579-0.097c-7.343,6.872-14.02,15.134-18.314,24.55
	c-11.544,23.819-23.087,47.64-34.631,71.46C644.005,225.725,616.469,279.231,590.663,333.578z"/>
</svg>
