<?xml version="1.0" encoding="utf-8"?>
<!-- Generator: Adobe Illustrator 16.0.0, SVG Export Plug-In . SVG Version: 6.00 Build 0)  -->
<!DOCTYPE svg PUBLIC "-//W3C//DTD SVG 1.1//EN" "http://www.w3.org/Graphics/SVG/1.1/DTD/svg11.dtd">
<svg version="1.1" id="Layer_1" xmlns="http://www.w3.org/2000/svg" xmlns:xlink="http://www.w3.org/1999/xlink" x="0px" y="0px"
	 width="738.867px" height="166.406px" viewBox="0 0 738.867 166.406" enable-background="new 0 0 738.867 166.406"
	 xml:space="preserve">
<path d="M11.683,21.766c0.797-5.344,0.153-6.336,5.062-11.871c-0.287-0.865-1.006-1.298-2.157-1.443
	c0.578-1.224,1.587-2.014,2.886-2.516c4.75,1.521,8.06,2.967,10.07,4.339l9.35,6.497c2.085,1.442,5.32,3.32,9.854,5.706
	l10.358,4.915c3.703,1.757,7.058,4.156,10.717,5.996c11.51,5.78,28.115,5.812,42.472,5.838c82.146,0.15,164.273-1.142,246.229-7.062
	c28.825-2.082,57.625-4.476,86.435-6.727c33.643-2.629,86.108-6.729,100.746-9.751c5.183-1.068,70.129-6.808,105.21-10.029
	c18.503-1.7,36.822-5.692,55.451-5.658l5.761,0.011c10.163,0.021,36.332,0.067,26.617,11.93c-4.476,5.463-9.883,10.277-16.228,14.37
	c-55.632,35.89-122.507,66.605-185.863,95.707c-12.854,5.904-25.252,12.812-38.339,18.219c-8.896,3.678-17.438,8.225-26.589,11.256
	c-5.15,1.707-14.67,5.015-15.487,5.012c-3.478-0.006-6.604,2.201-10.084,2.145c-13.372-0.229-26.25,4.992-39.606,4.969
	c-21.396-0.039-42.726,1.871-64.085,2.764c-12.729,0.527-63.439-6.562-95.021-10.977l-20.875-2.92
	c-10.555-1.478-21.16-2.604-31.672-4.377c-46.072-7.77-92.934-9.979-138.928-18.256l-20.875-2.918
	c-1.297,0.213-6.189-0.66-14.468-2.479c-3.857-0.85-7.491-2.434-11.08-4.055c-6.401-2.893-7.604-10.891-7.539-11.531
	C2.936,79.437,7.317,50.99,11.683,21.766"/>
</svg>
