<?xml version="1.0" encoding="utf-8"?>
<!-- Generator: Adobe Illustrator 16.0.0, SVG Export Plug-In . SVG Version: 6.00 Build 0)  -->
<!DOCTYPE svg PUBLIC "-//W3C//DTD SVG 1.1//EN" "http://www.w3.org/Graphics/SVG/1.1/DTD/svg11.dtd">
<svg version="1.1" id="Layer_1" xmlns="http://www.w3.org/2000/svg" xmlns:xlink="http://www.w3.org/1999/xlink" x="0px" y="0px"
	 width="2128.396px" height="860.864px" viewBox="0 0 2128.396 860.864" enable-background="new 0 0 2128.396 860.864"
	 xml:space="preserve">
<path fill="none" stroke="#000000" stroke-linejoin="round" stroke-miterlimit="10" d="M80.165,444.853
	c-3.319,4.204-6.583,8.446-9.724,12.788c-1.672,2.312-2.76,5.109-3.551,7.836c-0.324,1.115-0.842,2.27-0.858,3.443
	c-0.025,1.857,1.637,3.176,2.783,4.418c1.46,1.582,2.83,3.238,4.433,4.686c0.697,0.629,1.411,1.205,2.242,1.648
	c5.218,2.795,12.685,6.791,16.402,6.678"/>
<path fill="none" stroke="#000000" stroke-linejoin="round" stroke-miterlimit="10" d="M1414.508,547.749
	c-2.259-0.716-4.587-1.18-7.003-1.391c-1.634-0.139-30.944,3.314-49.354,7.098c-8.276,1.697-79.964,11.117-119.983,16.375
	c-69.537,9.137-149.402,19.631-208.166,30.518c-67.441,12.496-137.316,28.666-205.65,44.48c-12.708,2.938-32.025,8.938-32.334,9.652
	c-0.33,0.771-0.452,1.475-0.403,2.117"/>
<path fill="none" stroke="#000001" stroke-linejoin="round" stroke-miterlimit="10" d="M1424.304,524.967l-11.091,1.109
	l-10.803,1.879c-42.031,7.305-84.93,7.254-127.17,12.9l-45.646,6.1c-4.118,0.887-11.493-0.762-17.114-2.018l-27.731-6.197
	c-6.838-4.221-15.295-4.189-22.632-7.197c-23.293-9.549-47.8-18.92-73.521-28.109l-20.979-7.953
	c-20.499-8.174-41.138-16.023-62.217-22.568l-60.707-18.852c-5.291-1.568-12.209-3.389-20.775-5.545
	c-39.387-9.914-79.119-18.372-118.662-27.629c-10.386-2.432-21.04-3.371-31.558-5.06c-6.164-0.993-46.256-3.7-60.982-4.166"/>
</svg>
