<?xml version="1.0" encoding="utf-8"?>
<!-- Generator: Adobe Illustrator 16.0.0, SVG Export Plug-In . SVG Version: 6.00 Build 0)  -->
<!DOCTYPE svg PUBLIC "-//W3C//DTD SVG 1.1//EN" "http://www.w3.org/Graphics/SVG/1.1/DTD/svg11.dtd">
<svg version="1.1" id="Layer_1" xmlns="http://www.w3.org/2000/svg" xmlns:xlink="http://www.w3.org/1999/xlink" x="0px" y="0px"
	 width="568.4px" height="1251.748px" viewBox="0 0 568.4 1251.748" enable-background="new 0 0 568.4 1251.748"
	 xml:space="preserve">
<path fill="none" stroke="#000000" stroke-linejoin="round" stroke-miterlimit="10" d="M173.287,267.793l-1.219,7.418l-0.719,2.533
	l-2.34,5.799l-1.222,2.275l-2.264,3.432l-2.521,3.049l-3.905,3.629l-3.438,2.424l-1.636,0.953l-4.217,1.963l-3.787,1.23l-4.42,0.883
	l-4.646,0.34l-6.729-0.488l-4.688-1.002l-5.726-1.967l-5.576-2.77l-5.379-3.57l-6.842-6.184l-2.979-3.461l-3.779-5.381l-2.741-4.963
	l-2.113-4.9l-1.994-6.506l-1.197-7.268l-0.139-7.43l0.725-5.904l0.834-3.619l1.521-4.473l1.504-3.303l1.527-2.699l3.004-4.162
	l6.834-6.309l4.532-2.715l6.759-2.566l6.067-1.08l5.166-0.143l7.267,0.953l9.188,3.074l7.758,4.408l6.263,5.105l6.362,7.139
	l4.199,6.508l3.433,7.42l2.051,6.736l1.227,7.867L173.287,267.793z M519.146,1194.803c-0.464,0.581-1.001,1.084-1.584,1.559
	c-0.842,0.685-1.647,1.412-2.414,2.181c-1.826,1.829-3.424,3.884-4.745,6.104c-2.727,4.582-4.229,9.843-4.355,15.173
	c-0.006,0.249-0.01,0.499-0.01,0.749c0,17.221,13.961,31.181,31.182,31.181s31.182-13.96,31.182-31.181
	c0-1.602-0.121-3.2-0.364-4.782c-0.72-4.678-2.522-9.166-5.231-13.046c-2.661-3.812-6.173-7.015-10.216-9.31
	c-2.048-1.161-4.229-2.091-6.485-2.761c-1.149-0.342-2.319-0.615-3.5-0.821c-1.548-0.271-3.234-1.552-3.985-2.896
	c-0.85-1.521-0.885-3.32-0.821-5.018c0.035-0.952,0.131-1.904,0.156-2.857c0.035-1.271,0.074-2.544,0.075-3.815
	c0-0.336,0-0.673-0.001-1.01c0.404-2.651,0.507-4.581,0.507-4.581l-3.508-22.723l-4.646-44.908l-2.728-47.277l-1.434-73.756
	l0.395-49.254l4.554-129.287l5.301-88.186l9.02-114.693c0,0,5.224-55.307,6.47-71.93c1.245-16.623-14.715-25.244-14.715-25.244
	s-95.563-73.359-111.825-85.816c-16.265-12.455-7.482-36.696-7.482-36.696s24.154-98.166,27.646-113.278
	c3.491-15.112-15.918-19.676-15.918-19.676l-100.342-30.355l-74.118-22.4l-3.625-1.428l-1.5-0.889l-1.428-1.119l-1.455-1.801
	c0,0-0.518-1.193-0.729-2.254l0.042-1.441l0.252-1.031l0.51-0.932l0.753-0.801l1.384-0.836l0.855-0.303l1.84-0.393l0.858-0.086
	l2.484-0.008l2.816,0.316l3.042,0.566l14.13,2.627c0,0,122.069,22.688,148.1,27.525c26.023,4.838,29.826-13.389,29.826-13.389
	s34.354-90.289,43.312-113.859c8.955-23.572-4.979-48.062-4.979-48.062s-9.729-18.459-17.188-31.072
	c-7.459-12.615-21.729,0.322-21.729,0.322s-140.23,102.47-153.998,112.529c-13.766,10.061-33.388,10.109-47.587,10.928
	c-14.199,0.819-31.881,11.758-31.881,11.758l-60.455,33.051L8.962,256.065c-18.01,12.785-3.308,29.004-3.308,29.004l5.454,5.994
	l10.916,11.76l13.162,14.18l16.002,17.238l21.58,22.544l18.512,20.85l15.17,18.587l11.465,15.271l10.951,16.021l12.172,20.562
	l8.48,17.92l3.933,10.402l4.887,15.424l5.552,21.428l4.838,22.875l3.417,19.141l3.129,20.345l2.831,21.521l3.112,29.238
	l1.432,28.332l0.226,20.727l-0.319,32.646l-1.198,42.34l-1.407,34.107l-1.838,36.652c0,0-3.461,57.525-4.037,75.07
	c-0.577,17.543,19.582,24.521,19.582,24.521l22.363,11.359l23.076,12.447l28.883,16.479l42.243,26.142l33.741,22.91l35.175,26.203
	l28.118,23.029l33.646,30.648l24.182,24.762l18.488,21.031c0,0,9.103,11.229,31.012,41.801c0.513,0.713,1.013,1.388,1.502,2.027
	c0.114,0.275,0.23,0.553,0.347,0.827c0.837,2,1.799,3.938,2.694,5.909c1.149,2.529,2.063,5.494,0.354,8.005
	C519.374,1194.506,519.262,1194.657,519.146,1194.803z"/>
</svg>
