<?xml version="1.0" encoding="utf-8"?>
<!-- Generator: Adobe Illustrator 16.0.0, SVG Export Plug-In . SVG Version: 6.00 Build 0)  -->
<!DOCTYPE svg PUBLIC "-//W3C//DTD SVG 1.1//EN" "http://www.w3.org/Graphics/SVG/1.1/DTD/svg11.dtd">
<svg version="1.1" id="Layer_1" xmlns="http://www.w3.org/2000/svg" xmlns:xlink="http://www.w3.org/1999/xlink" x="0px" y="0px"
	 width="1987.21px" height="669.943px" viewBox="0 0 1987.21 669.943" enable-background="new 0 0 1987.21 669.943"
	 xml:space="preserve">
<path fill="none" stroke="#000000" stroke-linejoin="round" stroke-miterlimit="10" d="M1338.474,166.309
	c-15.4-9.868-31.521-19.732-42.592-34.892c-10.35,0.481-20.453,3.127-31.041,3.85c4.812-8.904,12.512-15.641,17.807-24.063
	c-15.643-34.171-26.229-71.468-25.025-109.489c-116.707-6.019-234.855,3.369-347.711,35.133
	C863.706,50.08,818.227,66.205,774.432,86.66c-45.963,21.413-91.438,44.758-138.845,63.286
	c-23.825,9.625-48.608,16.845-72.912,25.507c-23.101,8.42-46.923,14.679-70.505,20.936c-54.383,16.12-109.488,28.154-164.353,42.592
	c-38.503,10.827-77.483,20.935-115.503,33.929c-5.918,45.446-8.576,91.594-13.242,137.292l-3.787,29.829l16.471-7.733v-0.001
	c32.257-14.993,64.053-31.591,95.85-47.252c23.1-10.588,45.721-22.139,68.34-32.967c25.268-12.033,51.016-22.378,76.042-34.651
	c16.12-7.703,32.966-13.476,49.089-20.694c23.581-9.385,46.438-20.214,70.505-28.154c27.188-9.627,54.143-20.695,81.574-29.358
	c18.526-5.296,37.058-11.069,55.347-16.604c120.796-34.651,247.37-51.977,372.978-42.352c46.199,3.607,92.162,9.866,137.4,18.77
	c63.045,13.714,125.369,30.56,186.01,52.217c19.73,6.017,38.264,15.882,58.232,21.417c1.203-7.702,1.924-15.642,1.924-23.342
	c-14.92-13.716-32.725-23.823-49.328-34.892C1389.968,198.312,1364.222,182.431,1338.474,166.309z M187.986,436.885l15.391-161.18
	L0,331.643l167.887,106.213C175.223,441.916,186.451,441.486,187.986,436.885z M1410.564,267.221l-53.523-16.927l-56.584-16.435
	l-48.799-12.497l-47.781-10.562l-44.367-8.167l-64.037-9.314l-35.85-3.234l-68.184-3.579l-48.877,0.455l-64.688,4.862l-54.883,7.467
	l-59.204,11.568l-51.475,13.035l-55.498,17.281l-46.602,16.643l-39.297,15.157l-16.478,6.852l-39.057,16.788l-10.608,4.635
	l-22.488,10.498l-2.447,1.143l-19.604,9.152l-21.391,9.985l-23.75,11.369l-6.507,3.237l-38.871,19.354l-7.091,3.529l-26.938,13.736
	l-35.146,17.971l-17.151,8.771l-10.66,5.448c0,0-57.679,30.021-75.021,39.077c-17.343,9.059,0.617,24.269,0.617,24.269l13.729,9.225
	l35.938,24.147l32.3,21.701L316,557.854l28.146,21.518l14.954,11.939l9.793,7.739l1.142,0.726l1.432,0.352l2.082,0.088l2.047-0.146
	l2.84-0.421l6.646-1.586l33.475-7.137l64.338-12.012l52.759-8.246l56.209-7.273l3.27-0.336l14.154-1.448l14.127-1.449l17.836-1.83
	l0.019-0.002l7.532-0.772l3.485-0.258l0.002-0.001l12.077-0.895l13.17-0.978l17.304-1.28l12.094-0.896l10.87-0.805l14.455-0.689
	l10.379-0.494l7.573-0.358l12.783-0.609l0.031-0.002l6.783-0.323l2.474-0.062h0.006l14.049-0.369l14.596-0.387l13.318-0.351h0.018
	l5.271-0.139l8.293-0.045h0.029l16.651-0.091l16.438-0.09h0.036l11.56-0.062l7.421,0.104h0.018l9.505,0.141l18.177,0.264h0.029
	l11.688,0.169l8.608,0.287l0.013,0.001l23.779,0.793h0.031l18.203,0.607l3.438,0.188h0.002l18.498,1.01l25.494,1.395l0.008,0.001
	l14.041,0.766l12.289,0.929l0.016,0.003l28.188,2.13h0.01l11.041,0.834l9.77,0.915l0.01,0.001l14.029,1.312l21.842,2.045h0.008
	l1.963,0.187l30.041,3.364l0.057,0.011l0.021,0.002l25.119,2.813l5.115,0.66l0.021,0.002l22.002,2.84l8.832,1.144h0.004l3.705,0.479
	l39.312,5.943l0.146,0.021l24.129,3.648l21.193,3.205l38.664,6.879l18.098,3.221l0.01,0.002l8.164,1.453l18.742,3.759l0.033,0.01
	l16.512,3.312l23.91,4.796l17.682,3.916l20.707,4.584l0.02,0.006l12.717,2.814l2.523,0.607l0.02,0.006l18.77,4.524l26.703,6.441
	l37.783,9.812l47.729,13.398l44.363,13.826c0,0,288.662-125.501,296.229-129.164c7.562-3.662,10.387-18.943,10.387-18.943
	l17.09-47.953l-77.822-35.504l-164.91-75.103l-246.369-112.401l-22.191,39.166l-30.352-11.151L1410.564,267.221z"/>
</svg>
