<?xml version="1.0" encoding="utf-8"?>
<!-- Generator: Adobe Illustrator 16.0.0, SVG Export Plug-In . SVG Version: 6.00 Build 0)  -->
<!DOCTYPE svg PUBLIC "-//W3C//DTD SVG 1.1//EN" "http://www.w3.org/Graphics/SVG/1.1/DTD/svg11.dtd">
<svg version="1.1" id="Layer_1" xmlns="http://www.w3.org/2000/svg" xmlns:xlink="http://www.w3.org/1999/xlink" x="0px" y="0px"
	 width="1987.21px" height="669.943px" viewBox="0 0 1987.21 669.943" enable-background="new 0 0 1987.21 669.943"
	 xml:space="preserve">
<path fill="none" stroke="#000000" stroke-linejoin="round" stroke-miterlimit="10" d="M212.314,272.91
	c-5.918,45.446-8.576,91.594-13.242,137.292l-3.787,29.829l16.471-7.733v-0.001c32.257-14.994,64.053-31.591,95.849-47.252
	c23.1-10.588,45.721-22.139,68.34-32.967c25.268-12.033,51.016-22.378,76.042-34.651c16.12-7.703,32.966-13.476,49.089-20.694
	c23.581-9.385,46.438-20.214,70.505-28.154c27.188-9.627,54.143-20.695,81.574-29.358c18.526-5.296,37.058-11.069,55.347-16.604
	c120.796-34.651,247.37-51.977,372.978-42.352c46.199,3.607,92.162,9.866,137.4,18.77c63.045,13.714,125.369,30.56,186.01,52.217
	c19.73,6.017,38.264,15.882,58.232,21.417c1.203-7.702,1.924-15.642,1.924-23.342"/>
<path fill="none" stroke="#000000" stroke-linejoin="round" stroke-miterlimit="10" d="M150.626,426.937l17.261,10.92
	c7.336,4.06,18.564,3.63,20.099-0.972l15.391-161.18"/>
<path fill="none" stroke="#000000" stroke-linejoin="round" stroke-miterlimit="10" d="M1492.244,261.241l-16.322,28.808
	l-30.352-11.151l-35.006-11.677l-53.523-16.927l-56.584-16.435l-48.799-12.497l-47.781-10.562l-44.367-8.167l-64.037-9.314
	l-35.85-3.234l-68.184-3.579l-48.877,0.455l-64.688,4.862l-54.883,7.467l-59.204,11.568l-51.475,13.035l-55.498,17.281
	l-46.602,16.643l-39.297,15.157l-16.478,6.852l-39.057,16.788l-10.608,4.635l-22.488,10.498l-2.447,1.143l-19.604,9.152
	l-21.391,9.985l-23.75,11.369l-6.507,3.236l-38.871,19.354l-7.091,3.528l-26.938,13.737l-35.146,17.97l-17.151,8.771l-10.66,5.449
	c0,0-57.679,30.02-75.021,39.075c-17.343,9.06,0.617,24.27,0.617,24.27l5.054,3.396"/>
</svg>
