<?xml version="1.0" encoding="utf-8"?>
<!-- Generator: Adobe Illustrator 16.0.0, SVG Export Plug-In . SVG Version: 6.00 Build 0)  -->
<!DOCTYPE svg PUBLIC "-//W3C//DTD SVG 1.1//EN" "http://www.w3.org/Graphics/SVG/1.1/DTD/svg11.dtd">
<svg version="1.1" id="Layer_1" xmlns="http://www.w3.org/2000/svg" xmlns:xlink="http://www.w3.org/1999/xlink" x="0px" y="0px"
	 width="1650.623px" height="760.666px" viewBox="0 0 1650.623 760.666" enable-background="new 0 0 1650.623 760.666"
	 xml:space="preserve">
<path d="M1647.015,639.169c0,0-73.704-114.895-79.957-121.479c-2.81-2.957-10.734-3.656-18.613-3.531h-0.061
	c-0.563,0.01-1.136,0.021-1.694,0.041c-42.614,1-925.774,21.711-958.94,20.607c-319.778-11.376-543.348-46.683-568.975-49.12
	c-32.241-3.066-13.178,16.096-13.178,16.096s98.271,105.357,133.409,143.078c35.14,37.713,82.882,52.17,82.882,52.17
	s225.023,49.551,273.374,60.424c16.211,3.645,31.557,3.795,44.796,2.387l0.002,0.002l0.146-0.018
	c10.414-1.119,19.517-3.197,26.703-5.299c29.532-7.387,76.205-23.869,101.785-57.787c0.359-0.479,0.717-0.955,1.063-1.438
	c0.271-0.377,0.548-0.758,0.812-1.139c0.179-0.256,0.354-0.51,0.526-0.764c1.819-2.641,3.514-5.381,5.063-8.227
	c0.275-0.496,0.542-0.991,0.808-1.484c0.042-0.08,0.088-0.16,0.13-0.24l0.035-0.072c6.2-11.756,8.98-22.25,9.812-25.248
	c1.812-6.562,6.864-5.281,6.864-5.281c72.813,18.105,940.019,6.596,940.019,6.596
	C1661.028,660.33,1647.015,639.169,1647.015,639.169z M1545.163,459.085c0,0-233.013-417.646-242.613-439.875
	c-9.604-22.23-25.885-19.054-25.885-19.054l-784.241,26.96c-20.076,3.031-5.475,18.8-5.475,18.8s294.434,253.665,343.316,292.609
	c48.882,38.943,60.766,63.639,71.209,88.75c10.438,25.111,32.729,26.441,32.729,26.441c37.681,8.521,271.187,23.945,430.869,33.748
	c71.945,5.152,130.242,8.838,151.617,8.988l0.137,0.008l-0.004-0.006c3.115,0.02,5.511-0.031,6.954-0.168
	C1559.076,492.888,1545.163,459.085,1545.163,459.085z"/>
</svg>
