<?xml version="1.0" encoding="utf-8"?>
<!-- Generator: Adobe Illustrator 16.0.0, SVG Export Plug-In . SVG Version: 6.00 Build 0)  -->
<!DOCTYPE svg PUBLIC "-//W3C//DTD SVG 1.1//EN" "http://www.w3.org/Graphics/SVG/1.1/DTD/svg11.dtd">
<svg version="1.1" id="Layer_1" xmlns="http://www.w3.org/2000/svg" xmlns:xlink="http://www.w3.org/1999/xlink" x="0px" y="0px"
	 width="1650.623px" height="760.665px" viewBox="0 0 1650.623 760.665" enable-background="new 0 0 1650.623 760.665"
	 xml:space="preserve">
<path fill="none" stroke="#000001" stroke-linejoin="round" stroke-miterlimit="10" d="M472.525,53.387
	c9.264-6.78,20.679,1.048,29.169,5.221c60.212,51.826,286.281,246.224,328.571,279.916c48.885,38.941,60.769,63.638,71.209,88.75
	c0.576,1.385,1.188,2.697,1.831,3.941l0.002-0.002c10.356,21.84,52.461,84.153,9.511,97.423
	c-170.637,3.728-312.164,6.599-325.065,6.169c-319.78-11.377-543.348-46.684-568.975-49.117C-13.465,482.62,5.6,501.782,5.6,501.782
	s98.271,105.355,133.409,143.078c35.14,37.713,82.882,52.17,82.882,52.17s225.026,49.551,273.374,60.424
	c16.211,3.645,31.56,3.795,44.796,2.387l0.004,0.002l0.146-0.018c10.414-1.119,19.514-3.197,26.703-5.299
	c29.532-7.389,76.205-23.869,101.785-57.787c0.356-0.48,0.717-0.955,1.062-1.439c0.274-0.377,0.548-0.758,0.812-1.139
	c0.179-0.256,0.353-0.51,0.523-0.764c1.822-2.639,3.517-5.381,5.066-8.225c0.272-0.496,0.542-0.992,0.805-1.486
	c0.042-0.08,0.088-0.16,0.13-0.24l0.035-0.072c6.203-11.756,8.983-22.25,9.812-25.248c1.809-6.561,6.861-5.281,6.861-5.281
	c72.816,18.105,940.021,6.598,940.021,6.598c27.2,0.887,13.187-20.273,13.187-20.273s-73.703-114.895-79.957-121.479
	c-0.992-1.304-1.837-2.731-2.782-4.072c-3.019-4.283-6.015-8.582-8.922-12.941c-4.677-7.01-8.476-15.089-7.712-23.73l0.007,0.002
	c1.138-9.068-2.482-17.863-2.482-17.863S1312.152,41.438,1302.549,19.209c-9.603-22.23-25.883-19.054-25.883-19.054L505.324,26.672
	c-8.91-1.042-20.459-0.504-26.375-8.569l0.005-0.001C474.009,7.414,463.19,0,450.641,0C433.42,0,419.46,13.96,419.46,31.181
	c0,17.221,13.96,31.181,31.181,31.181c8.61,0,16.406-3.49,22.049-9.133L472.525,53.387z"/>
</svg>
