<?xml version="1.0" encoding="utf-8"?>
<!-- Generator: Adobe Illustrator 16.0.0, SVG Export Plug-In . SVG Version: 6.00 Build 0)  -->
<!DOCTYPE svg PUBLIC "-//W3C//DTD SVG 1.1//EN" "http://www.w3.org/Graphics/SVG/1.1/DTD/svg11.dtd">
<svg version="1.1" id="Layer_1" xmlns="http://www.w3.org/2000/svg" xmlns:xlink="http://www.w3.org/1999/xlink" x="0px" y="0px"
	 width="1681.57px" height="720.426px" viewBox="0 0 1681.57 720.426" enable-background="new 0 0 1681.57 720.426"
	 xml:space="preserve">
<path d="M984.88,467.252c-42.771,1.258-85.318-0.844-127.785-0.529c-22.618-0.774-45.018-1.301-67.582-2.801
	c-22.686,0.185-38.391-28.375-27.916-47.953c2.753-5.127,7.089-8.699,11.67-12.258C888.23,317.95,1003.194,232.19,1118.4,146.443
	c60.428-45.46,121.511-89.913,181.492-135.885c-24.717,1.736-49.479,4.194-74.192,5.93c-14.772,0.95-29.067,5.55-43.541,9.174
	c-19.862,4.955-39.486,9.927-59.371,15.121c-8.339,2.101-16.711,4.682-25.354,4.107C957.594,33.428,817.48,22.428,677.612,11.444
	C584.979,8.185,492.457,3.244,400.064,0C283.769,167.248,168.176,334.784,52.105,502.29C34.978,527.7,16.213,552.276,0,578.471
	c86.811,3.838,173.742,5.752,260.821,9.125c92.921,2.558,186.003,6.326,278.925,8.881c213.568,5.265,427.664-1.022,640.4-19.471
	c23.258-1.592,46.182-5.379,69.563-5.271c-10.966,5.307-22.716,7.899-34.285,11.479c-55.886,17.043-112.021,34.312-167.899,51.354
	c-22.171,6.977-44.5,12.729-66.238,20.457c34.654,22.813,71.473,42.155,105.869,65.194l3.123,0.207
	c9.797-2.242,19.783-3.75,29.998-5.004c101.004-13.803,202.251-27.59,303.239-41.149c10.423-0.759,17.513-9.455,25.146-15.466
	c77.796-63.608,155.114-127.262,232.908-190.875C1449.344,467.706,1217.109,467.477,984.88,467.252z"/>
</svg>
