<?xml version="1.0" encoding="utf-8"?>
<!-- Generator: Adobe Illustrator 16.0.0, SVG Export Plug-In . SVG Version: 6.00 Build 0)  -->
<!DOCTYPE svg PUBLIC "-//W3C//DTD SVG 1.1//EN" "http://www.w3.org/Graphics/SVG/1.1/DTD/svg11.dtd">
<svg version="1.1" id="Layer_1" xmlns="http://www.w3.org/2000/svg" xmlns:xlink="http://www.w3.org/1999/xlink" x="0px" y="0px"
	 width="1681.266px" height="718.476px" viewBox="0 0 1681.266 718.476" enable-background="new 0 0 1681.266 718.476"
	 xml:space="preserve">
<path d="M1629.34,502.64C1513.666,335.019,1398.471,167.367,1282.57,0c-92.396,3.051-184.93,7.797-277.563,10.865
	C865.113,21.55,724.981,32.253,585.116,43.422c-8.646,0.556-17.013-2.041-25.347-4.156c-19.867-5.233-39.479-10.241-59.331-15.233
	c-14.465-3.652-28.746-8.277-43.521-9.257c-24.709-1.786-49.466-4.292-74.177-6.08c59.869,46.064,120.85,90.609,181.166,136.162
	c115.005,85.92,229.765,171.856,344.524,257.792c4.566,3.562,8.896,7.146,11.64,12.271c10.429,19.584-5.347,48.088-28.024,47.859
	c-22.571,1.453-44.97,1.93-67.587,2.662c-42.464-0.406-85.02,1.604-127.782,0.26c-232.228-0.252-464.45-0.504-696.679-0.756
	c77.646,63.729,154.81,127.48,232.454,191.215c7.621,6.02,14.689,14.727,25.108,15.506c100.955,13.76,202.164,27.746,303.135,41.746
	c10.213,1.27,20.193,2.801,29.983,5.061l3.122-0.195c34.454-22.955,71.312-42.203,106.021-64.939
	c-21.721-7.766-44.034-13.561-66.188-20.578c-55.84-17.145-111.936-34.516-167.772-51.66c-11.562-3.598-23.31-6.219-34.26-11.543
	c23.387-0.057,46.298,3.773,69.553,5.412c212.688,18.871,426.761,25.604,640.336,20.779c92.925-2.361,186.013-5.939,278.938-8.299
	c87.084-3.191,174.021-4.928,260.834-8.582C1665.113,552.664,1646.406,528.068,1629.34,502.64z"/>
</svg>
