<?xml version="1.0" encoding="utf-8"?>
<!-- Generator: Adobe Illustrator 16.0.0, SVG Export Plug-In . SVG Version: 6.00 Build 0)  -->
<!DOCTYPE svg PUBLIC "-//W3C//DTD SVG 1.1//EN" "http://www.w3.org/Graphics/SVG/1.1/DTD/svg11.dtd">
<svg version="1.1" id="Layer_1" xmlns="http://www.w3.org/2000/svg" xmlns:xlink="http://www.w3.org/1999/xlink" x="0px" y="0px"
	 width="2407.693px" height="719.182px" viewBox="0 0 2407.693 719.182" enable-background="new 0 0 2407.693 719.182"
	 xml:space="preserve">
<path fill="none" stroke="#000000" stroke-miterlimit="10" d="M488.648,302.288c-32.78,9.229-470.229,138.919-470.229,138.919
	s-32.727,10.299-10.932,16.668c21.794,6.369,39.843,12.936,58.854,7.109c19.011-5.826,275.771-82.057,275.771-82.057
	s18.896-7.963,29.456-1.006c10.558,6.959,110.964,69.838,110.964,69.838s21.344,8.002,26.979-7.312l9.382-138.379
	C518.894,306.069,521.43,293.06,488.648,302.288z M1176.372,202.44l-0.049-0.025c0,0,246.141-67.51,591.5,50.163l0.096,0.034
	c4.51,1.34,9.047,2.699,13.643,4.097c0,0,18.16,8.706,17.716-10.048c-0.443-18.756,2.231-39.284-11.646-48.214
	c-13.879-8.931-116.734-77.582-116.734-77.582s-13.01-2.538-19.77,1.573c-6.76,4.109-39.316,17.619-39.316,17.619
	s-10.278,8.586-13.653-4.65c-3.377-13.237-30.359-98.203-30.359-98.203s-10.637-39.146-59.355-37.129
	c-48.719,2.016-181.123-16.263-537.277,149.405l-37.71,17.534c0,0-17.153,10.556-23.27,16.777
	c-6.112,6.224-19.854,10.163-33.092,13.539c-13.236,3.375-328.229,84.264-328.229,84.264s-20.051,6.417-18.812,19.759
	l-3.917,130.045c0,0-6.369,21.795,23.851,4.648C572.456,423.301,873.141,259.17,1176.372,202.44z M2336.816,539.885
	c-16.668-10.93-142.858-105.186-406.698-205.106c0,0-19.908-6.2-29.904-2.458c-9.998,3.743-52.918,14.04-52.918,14.04
	s-12.422,8.696-43.113-3.644c-30.688-12.343-356.723-183.045-712.349-109.686l-5.059,0.803c0,0-189.651,25.766-538.152,214.639
	c0,0-20.562,12.078-9.384,20.613c11.179,8.533,160.938,112.283,160.938,112.283s14.669,13.719,32.13,9.049
	c17.459-4.67,238.827-101.037,938.64,25.4l5.702,1.311c0,0,44.737,7.994,121.737,30.912h0.002l0,0
	c37.052,11.027,81.566,25.508,132.172,44.223l58.417,23.125c1.26,0.662,3.327,1.613,6.053,2.396l0,0
	c6.062,1.746,15.354,2.666,26.123-2.279c0,0,131.214-55.701,276.479-109.453c0,0,11.506-5.699,15.547-10.471
	c4.043-4.773,28.312-33.139,28.312-33.139S2353.485,550.816,2336.816,539.885z"/>
</svg>
