<?xml version="1.0" encoding="utf-8"?>
<!-- Generator: Adobe Illustrator 16.0.0, SVG Export Plug-In . SVG Version: 6.00 Build 0)  -->
<!DOCTYPE svg PUBLIC "-//W3C//DTD SVG 1.1//EN" "http://www.w3.org/Graphics/SVG/1.1/DTD/svg11.dtd">
<svg version="1.1" id="Layer_1" xmlns="http://www.w3.org/2000/svg" xmlns:xlink="http://www.w3.org/1999/xlink" x="0px" y="0px"
	 width="1511.738px" height="1154.242px" viewBox="0 0 1511.738 1154.242" enable-background="new 0 0 1511.738 1154.242"
	 xml:space="preserve">
<path fill="none" stroke="#000001" stroke-linejoin="round" stroke-miterlimit="10" d="M1474.033,975.71
	c-4.976,18.847-17.58,36.522-35.853,44.753c-30.016,14.824-69.928,5.1-88.903-22.748c-19.853-28.681-12.595-72.296,15.729-93.161
	c18.518-14.278,44.168-17.231,66.107-9.695c8.631,2.995,16.28,8.062,23.129,13.761
	C1473.183,924.783,1480.308,952.156,1474.033,975.71z"/>
<path fill="none" stroke="#000001" stroke-linejoin="round" stroke-miterlimit="10" d="M1031.366,174.994
	c-12.655-14.462-38.708-24.373-68.83-24.373c-26.663,0-48.239,5.236-48.239,11.707v-0.003c0.266,0.486,0.525,0.958,0.779,1.416
	c0.533,0.959,0.946,1.861,1.248,2.709c1.639,4.603,2.493,8.576,5.344,12.752c2.648,3.88,5.789,7.424,8.115,11.522
	c3.305,5.823,5.756,11.983,5.756,19.16c0,17.221-13.961,31.182-31.182,31.182s-31.181-13.96-31.181-31.181
	c0-10.234,8.348-31.37-7.88-34.347c-0.896-0.164-1.391-0.263-1.391-0.263c-379.933-42.332-566.25-4.134-592.89-0.591
	c-26.642,3.542-51.053-11.812-51.053-11.812L14.678,54.9c-45.764-30.31,27.603-41.48,55.408-44.516
	c3.128-0.301,6.462-0.615,9.983-0.939c0.038-0.002,0.071-0.006,0.071-0.006l0.045-0.004l0.059-0.005
	c47.854-4.403,130.361-10.6,203.938-9.239l0.334,0.01c281.011-0.665,515.948,44.958,544.106,49.496
	c7.887,1.271,14.349,3.157,19.628,5.317l-0.003,0.001l158.015,46.518c53.922,15.758,106.729,35.133,158.625,56.423l0,0
	c36.521,15.634,73.139,36.386,95.762,70.271c39.049,68.71,68.23,142.542,98.73,215.562c10.604,20.745,17.83,43.267,28.434,64.014
	c3.582,6.52,5.523,14.537,12.035,18.979c15.875,11.416,32.047,22.384,47.922,33.803c3.869,2.173,5.826,6.056,6.529,10.277
	c5.111,25.913,11.475,51.488,17.576,77.278c2.801,14.937,8.329,29.464,9.391,44.673c-7.939,17.27-15.875,36.485-10.934,55.812
	c4.191,19.477,18.787,33.414,31.945,47.175c-0.865,11.082-2.689,22.044-1.605,33.12c2.794,32.926,9.064,65.301,10.396,98.291
	c2.922,53.852-3.556,108.994-22.856,159.656c-75.172,22.212-149.801,45.947-225.363,67.38
	c12.769-54.861,24.063-109.656,31.344-165.427c3.279-22.948,4.402-46.155,9.363-68.896c15.514-57.444,19.456-117.757,16.728-177.18
	c-6.807-49.947-19.325-98.89-32.889-147.232c-5.25-22.769-14.325-44.057-20.354-66.434c-7.168-23.002-14.847-45.825-23.508-68.521
	c-24.482-54.533-64.001-101.415-109.689-139.567c-15.887-15.31-34.639-27.079-49.688-43.259
	c-5.772-6.538-14.56-10.283-17.937-18.476c-11.824-28.091-23.307-56.208-34.852-84.256L1031.366,174.994z"/>
</svg>
