<?xml version="1.0" encoding="utf-8"?>
<!-- Generator: Adobe Illustrator 16.0.0, SVG Export Plug-In . SVG Version: 6.00 Build 0)  -->
<!DOCTYPE svg PUBLIC "-//W3C//DTD SVG 1.1//EN" "http://www.w3.org/Graphics/SVG/1.1/DTD/svg11.dtd">
<svg version="1.1" id="Layer_1" xmlns="http://www.w3.org/2000/svg" xmlns:xlink="http://www.w3.org/1999/xlink" x="0px" y="0px"
	 width="1678.363px" height="766.164px" viewBox="0 0 1678.363 766.164" enable-background="new 0 0 1678.363 766.164"
	 xml:space="preserve">
<path fill="none" stroke="#000001" stroke-linejoin="round" stroke-miterlimit="10" d="M567.936,629.949
	c-7.243-5.271-16.927-4.966-25.167-2.56c-4.857,2.243-10.809,3.966-17.714,4.06c-20.506,0.274-502.728-0.371-502.728-0.371
	s-39.861-5.395-13.062-44.203c26.8-38.805,337.441-543.66,337.441-543.66s15.473-44.082,63.923-43.202
	c47.801,0.869,539.933,24.946,760.108,57.098c14.476,0.562,33.093,4.824,45.3-5.535c5.693-7.513,14.713-12.366,24.866-12.366
	c17.221,0,31.181,13.96,31.181,31.181s-13.96,31.181-31.181,31.181c-7.862,0-15.045-2.91-20.529-7.711l0.002-0.002
	c-11.961-5.359-25.902-4.855-37.638,0.867c-70.471,56.579-290.602,233.793-451.112,368.234c-4.312,9.188-0.049,19.257,6.112,26.411
	l0.001-0.001c2.216,2.641,4.251,6.095,6.113,10.35c8.296,18.972,59.722,20.428,81.413,19.992
	c21.697-0.436,842.305,2.371,842.305,2.371c25.749,6.524-2.666,25.727-2.666,25.727s-130.854,103.967-171.512,136.617
	c-40.656,32.656-98.406,41.939-98.406,41.939s-124.241,21.891-239.163,37.48c-114.919,15.591-173.604-52.096-192.719-66.982
	c-19.113-14.891,12.212-19.248,12.212-19.248s206.298-41.14,273.822-55.086c67.529-13.955-3.322-8.75-3.322-8.75
	s-227.538,19.277-316.062,26.084c-88.525,6.801-314.326-4.838-347.178-6.562c-7.307-0.383-11.907-1.636-14.643-3.353H567.936z"/>
</svg>
