<?xml version="1.0" encoding="utf-8"?>
<!-- Generator: Adobe Illustrator 16.0.0, SVG Export Plug-In . SVG Version: 6.00 Build 0)  -->
<!DOCTYPE svg PUBLIC "-//W3C//DTD SVG 1.1//EN" "http://www.w3.org/Graphics/SVG/1.1/DTD/svg11.dtd">
<svg version="1.1" id="Layer_1" xmlns="http://www.w3.org/2000/svg" xmlns:xlink="http://www.w3.org/1999/xlink" x="0px" y="0px"
	 width="2341.654px" height="1653.854px" viewBox="0 0 2341.654 1653.854" enable-background="new 0 0 2341.654 1653.854"
	 xml:space="preserve">
<path d="M2323.744,472.81c0,0-431.413-148.533-463.766-159.178c-32.351-10.642-30.379,2.467-30.379,2.467l3.373,138.655
	c4.969,15.547,26.641,8.479,26.641,8.479s103.037-58.468,113.89-64.96c10.854-6.494,29.385,2.281,29.385,2.281
	s253.211,87.288,271.949,93.934c18.739,6.646,37.057,0.867,59.106-4.557C2355.993,484.521,2323.744,472.81,2323.744,472.81z
	 M1796.644,444.495c30.063,17.408,23.893-4.442,23.893-4.442l-2.771-130.072c1.354-13.331-18.641-19.923-18.641-19.923
	s-314.271-83.657-327.478-87.147c-13.207-3.493-26.913-7.553-32.975-13.83c-6.059-6.276-23.114-16.981-23.114-16.981l-37.559-17.866
	C1023.318-14.56,890.755,2.553,842.058,0.108c-48.697-2.443-59.68,36.606-59.68,36.606s-27.729,84.727-31.226,97.931
	c-3.492,13.206-13.697,4.531-13.697,4.531s-32.436-13.796-39.159-17.965c-6.723-4.169-19.755-1.747-19.755-1.747
	s-103.453,67.745-117.412,76.554c-13.958,8.809-11.461,29.359-12.069,48.109c-0.607,18.751,17.627,10.204,17.627,10.204
	c4.604-1.357,9.155-2.677,13.679-3.977l0.098-0.033c346.382-114.632,591.918-44.959,591.918-44.959l-0.051,0.024
	C1475.05,264.781,1774.28,431.548,1796.644,444.495z M4.095,555.13c0,0,24.019,28.58,28.018,33.386
	c4.001,4.812,15.456,10.608,15.456,10.608c144.783,55.028,275.502,111.88,275.502,111.88c10.728,5.04,20.022,4.203,26.103,2.512
	h0.001c2.729-0.762,4.812-1.689,6.072-2.346l58.617-22.61c50.771-18.269,95.407-32.354,132.557-43.057h0.003
	c77.197-22.24,122.004-29.842,122.004-29.842l5.717-1.261c700.896-120.279,921.406-21.973,938.824-17.146
	c17.419,4.822,32.209-8.765,32.209-8.765s150.667-102.434,161.919-110.864c11.252-8.438-9.201-20.695-9.201-20.695
	c-346.827-191.931-536.245-219.364-536.245-219.364l-5.051-0.847c-354.97-76.484-682.486,91.344-713.287,103.417
	c-30.802,12.07-43.146,3.264-43.146,3.264s-42.827-10.675-52.793-14.504c-9.965-3.83-29.926,2.193-29.926,2.193
	C152.739,428.688,25.722,521.829,8.959,532.613C-7.802,543.396,4.095,555.13,4.095,555.13z M1877.804,1591.755
	c-26.809-158.385,20.797-567.723,21.846-584.838c1.047-17.111-7.75-22.479-7.75-22.479s-25.495-21.962-38.377-30.8
	c-12.877-8.84-21.159-5.055-35.688,4.256c-14.526,9.312-24.021-19.723-25.275-34.291c-1.256-14.565-4.979-23.922-16.786-32.696
	c-11.812-8.773-1.646-34.457-1.646-34.457s17.396-64.958,26.813-96.056c9.418-31.094-20.203-38.271-20.203-38.271
	s-102.569-25.604-133.697-34.484c-31.127-8.884,1.822-12.232,1.822-12.232s106.073,20.982,135.692,28.169
	c29.618,7.181,41.896-35.546,65.283-93.163c23.392-57.613-9.89-101.522-18.633-116.549c-8.741-15.029-22.766-5.153-22.766-5.153
	s-112.916,90.783-136.49,107.592c-23.574,16.811-33.738,16.189-49.849,16.276c-16.106,0.089-35.95,8.533-35.95,8.533
	s-184.325,99.834-210.945,113.771c-26.617,13.938,3.462,39.937,3.462,39.937c237.798,184.187,149.462,574.933,149.462,574.933
	c-6.2,26.98,18.609,38.166,18.609,38.166l3.679,1.301c193.966,93.465,281.375,208.859,311.512,251.5
	c30.134,42.642,18.604-32.143,18.604-32.143L1877.804,1591.755z"/>
</svg>
