<?xml version="1.0" encoding="utf-8"?>
<!-- Generator: Adobe Illustrator 16.0.0, SVG Export Plug-In . SVG Version: 6.00 Build 0)  -->
<!DOCTYPE svg PUBLIC "-//W3C//DTD SVG 1.1//EN" "http://www.w3.org/Graphics/SVG/1.1/DTD/svg11.dtd">
<svg version="1.1" id="Layer_1" xmlns="http://www.w3.org/2000/svg" xmlns:xlink="http://www.w3.org/1999/xlink" x="0px" y="0px"
	 width="3725.833px" height="1215.464px" viewBox="0 0 3725.833 1215.464" enable-background="new 0 0 3725.833 1215.464"
	 xml:space="preserve">
<path fill="none" stroke="#000001" stroke-linejoin="round" stroke-miterlimit="10" d="M1335.205,554.188
	c3.869,5.574-1.967,11.235-7.006,13.047v-0.003c-2.463,0.599-5.041,1.598-7.699,3.118c-17.801,10.185-115.001,80.994-290.279,15.513
	l-14.998-4.945l-65.78-21.475c0,0-32.371-14.864-54.657-10.323c-22.286,4.539-90.281,19.166-90.281,19.166
	c0,0-11.811,2.818-12.192,9.01c0.001,8.203-7.744,14.839-17.315,14.839l0.003,0c-11.454-5.201-26.075-9.578-42.765-9.503
	c-40.811,0.188-626.771,14.236-689.658,24.34c0,0-78.058,12.401-22.788,56.583c55.269,44.182,675.452,523.385,675.452,523.385
	s40.688,36.85,69.218,26.783c28.528-10.061,142.646-50.312,142.646-50.312s19.178-6.344,6.595-19.994
	c-12.583-13.652-49.847-36.332-11.537-83.371L913.51,1050c0,0,4.604-5.084,27.819-16.012c23.213-10.922,32.218-26.477,19.252-51.426
	c0,0-13.774-29.293,17.047-50.488l10.019-5.826c0,0,32.607-20.447,35.414-48.082h-0.003c0-3.836,5.508-6.939,12.316-6.939
	c3.506,0,6.727,0.702,9.267,1.878l-0.005,0.003c11.9,14.922,25.477,28.162,39.199,33.816
	c39.793,16.395,361.691,159.561,361.691,159.561s80.167,40.865,93.71-5.008c5.688-19.262,16.58-50.887,29.066-85.277
	c58.062-157.324,104.159-210.666,116.788-223.209c1.221-1.146,2.374-2.207,3.442-3.178c4.103-3.732,7.016-6.184,8.177-7.207
	c4.09-3.622,9.445-9.673,8.3-14.408l-0.002-0.003c0-7.433,7.321-13.447,16.368-13.446c4.708,0.311,8.787-0.342,11.978-1.23l0,0
	c2.73-0.762,4.812-1.691,6.073-2.346l58.617-22.609c50.771-18.27,95.408-32.354,132.556-43.057h0.004
	c77.197-22.24,122.004-29.844,122.004-29.844l5.715-1.26c700.895-120.281,921.406-21.971,938.824-17.147
	c17.42,4.822,32.209-8.765,32.209-8.765s150.668-102.432,161.92-110.864c2.212-1.659,3.198-3.466,3.355-5.298l-0.003,0
	c0-6.777,6.242-12.262,13.957-12.262c5.091,0,9.665,0.465,12.83,1.205l-0.002,0.004c8.022,6.642,22.38,1.959,22.38,1.959
	c0,0,103.039-58.469,113.891-64.96c10.85-6.494,29.385,2.28,29.385,2.28s253.211,87.288,271.949,93.935
	c18.738,6.646,37.057,0.867,59.105-4.553c22.051-5.414-10.199-17.123-10.199-17.123s-431.412-148.535-463.764-159.181
	c-32.348-10.642-30.379,2.467-30.379,2.467c0,2.376-2.473,4.299-5.529,4.299c-3.424,0-6.195-2.312-6.195-5.168l0.001-0.001
	l-0.112-5.245c1.354-13.332-18.639-19.923-18.639-19.923s-314.271-83.656-327.479-87.147c-13.207-3.493-26.914-7.552-32.973-13.83
	c-6.061-6.276-23.115-16.981-23.115-16.981l-37.557-17.866C2407.497-14.558,2274.936,2.555,2226.237,0.11
	c-48.699-2.444-59.678,36.606-59.678,36.606s-27.732,84.727-31.225,97.931c-3.492,13.206-13.697,4.531-13.697,4.531
	s-32.436-13.796-39.16-17.965c-6.723-4.169-19.754-1.747-19.754-1.747s-103.453,67.745-117.412,76.553s-11.461,29.359-12.072,48.109
	c0,54.685-6.314,98.935-14.119,98.935c-24.688,7.534-34.771,0.338-34.771,0.338s-42.829-10.676-52.792-14.506
	c-9.967-3.828-29.929,2.194-29.929,2.194c-233.964,86.26-360.363,169.042-398.141,194.554c-6.443,2.448-15.527,2.11-18.47-5.272
	l0.005-0.002c-4.224-12.216-15.827-20.988-29.478-20.988c-17.221,0-31.181,13.96-31.181,31.181c0,9.448,4.201,17.914,10.837,23.631
	L1335.205,554.188z"/>
</svg>
