<?xml version="1.0" encoding="utf-8"?>
<!-- Generator: Adobe Illustrator 16.0.0, SVG Export Plug-In . SVG Version: 6.00 Build 0)  -->
<!DOCTYPE svg PUBLIC "-//W3C//DTD SVG 1.1//EN" "http://www.w3.org/Graphics/SVG/1.1/DTD/svg11.dtd">
<svg version="1.1" id="Layer_1" xmlns="http://www.w3.org/2000/svg" xmlns:xlink="http://www.w3.org/1999/xlink" x="0px" y="0px"
	 width="3706.221px" height="1236.753px" viewBox="0 0 3706.221 1236.753" enable-background="new 0 0 3706.221 1236.753"
	 xml:space="preserve">
<path fill="none" stroke="#000001" stroke-linejoin="round" stroke-miterlimit="10" d="M2007.033,742.13
	c0-13.066-4.065-23.64-9.09-23.64v0.004c-1.039-0.207-2.012-0.448-2.913-0.708h-0.001c-2.727-0.783-4.792-1.734-6.055-2.396
	l-58.416-23.125c-50.606-18.715-95.121-33.195-132.173-44.223l0,0h-0.002c-77-22.918-121.735-30.913-121.735-30.913l-5.702-1.311
	c-699.814-126.438-921.183-30.07-938.642-25.4c-17.461,4.67-32.13-9.048-32.13-9.048S550.416,477.62,539.237,469.087
	c-2.373-1.812-3.316-3.783-3.329-5.765l0.004,0c0-8.144-10.827-14.734-24.208-14.734c-1.864,0-3.592,0.229-5.014,0.618
	c-7.878,8.663-24.16,2.557-24.16,2.557s-100.406-62.879-110.964-69.837c-10.56-6.958-29.456,1.006-29.456,1.006
	S85.353,459.158,66.342,464.984c-19.011,5.825-37.06-0.741-58.854-7.11c-21.795-6.369,10.932-16.668,10.932-16.668
	s437.449-129.689,470.23-138.918c25.49-7.177,29.624-0.905,30.201,2.239c0,1.298,2.501,2.349,5.592,2.349
	c3.101,0,5.611-2.47,5.611-5.522c-1.238-13.342,18.813-19.759,18.813-19.759s314.994-80.889,328.229-84.264
	c13.237-3.376,26.981-7.315,33.092-13.539c6.114-6.221,23.268-16.777,23.268-16.777l37.71-17.534
	C1327.323-16.187,1459.728,2.092,1508.446,0.076c48.717-2.017,59.354,37.129,59.354,37.129s26.983,84.966,30.36,98.203
	c3.376,13.236,13.656,4.65,13.656,4.65s32.554-13.51,39.314-17.619c6.758-4.111,19.771-1.573,19.771-1.573
	s102.852,68.651,116.73,77.582c13.878,8.93,11.202,29.458,11.648,48.214c0,56.731,14.477,102.638,32.367,102.638l0,0.004
	c10.896,0.385,15.652-2.944,15.652-2.944s42.919-10.298,52.917-14.04c9.997-3.742,29.905,2.458,29.905,2.458
	c241.424,91.429,367.596,178.117,400.062,200.561l0.002,0.002c3.484,1.336,8.317,3.034,11.902,1.203
	c4.533-2.315,5.415-8.235,7.581-12.292c1.798-3.369,4.567-6.097,7.591-8.386c5.254-3.979,11.85-6.067,18.456-6.067
	c17.221,0,31.182,13.96,31.182,31.181c0,8.602-3.538,17.067-10.133,22.716c-3.007,2.574-7.174,5.094-10.902,6.424
	c-3.258,1.161-7.171,3.253-8.835,6.424c-1.932,3.68-0.26,8.062,4.36,8.062l-0.001-0.003c3.504,0.375,7.301,1.516,11.267,3.831
	c17.711,10.341,114.283,82,290.133,18.062l15.039-4.813l65.971-20.894c0,0,32.5-14.579,54.746-9.844
	c22.246,4.734,90.109,19.96,90.109,19.96s11.972,2.969,12.115,9.265h-0.003c0,7.149,5.661,12.934,12.658,12.934
	c10.717-4.952,23.976-9.046,39.067-9.563c40.781-1.394,626.851-10.075,690.082-2.415c0,0,78.48,9.364,24.966,55.656
	c-53.513,46.287-654.652,549.178-654.652,549.178s-39.23,38.396-68.128,29.445c-28.895-8.949-144.488-44.744-144.488-44.744
	s-19.405-5.6-7.36-19.73c12.045-14.129,48.399-38.232,8.297-83.754l-11.731-9.594c0,0-4.799-4.906-28.426-14.916
	c-23.617-10.018-33.218-25.209-21.229-50.645c0,0,12.628-29.805-18.992-49.787l-10.235-5.436c0,0-42.23-24.254-37.203-57.341
	l0.008,0.001c0-2.187-0.421-4.6-1.127-6.664c-1.215-3.549-3.871-6.508-6.764-8.818c-3.108-2.482-7.577-3.422-11.185-1.441
	l0.003,0.005c-13.84,19.024-30.849,37.647-47.979,44.528c-39.937,16.041-363.082,156.373-363.082,156.373
	s-80.521,40.164-93.661-5.82c-5.515-19.312-16.129-51.031-28.317-85.533c-56.672-157.828-102.302-211.574-114.818-224.229
	c-1.211-1.154-2.352-2.229-3.414-3.207l-0.001-0.004c-4.068-3.764-6.961-6.24-8.112-7.277c-4.282-3.857-9.945-10.431-7.915-15.243
	L2007.033,742.13z"/>
</svg>
