<?xml version="1.0" encoding="utf-8"?>
<!-- Generator: Adobe Illustrator 16.0.0, SVG Export Plug-In . SVG Version: 6.00 Build 0)  -->
<!DOCTYPE svg PUBLIC "-//W3C//DTD SVG 1.1//EN" "http://www.w3.org/Graphics/SVG/1.1/DTD/svg11.dtd">
<svg version="1.1" id="Layer_1" xmlns="http://www.w3.org/2000/svg" xmlns:xlink="http://www.w3.org/1999/xlink" x="0px" y="0px"
	 width="1987.211px" height="1738.972px" viewBox="0 0 1987.211 1738.972" enable-background="new 0 0 1987.211 1738.972"
	 xml:space="preserve">
<path fill="none" stroke="#000000" stroke-linejoin="round" stroke-miterlimit="10" d="M1882.778,989.636
	c0,0-95.563-73.355-111.826-85.812c-16.268-12.455-7.483-36.698-7.483-36.698s24.156-98.164,27.648-113.277
	c3.487-15.109-15.919-19.676-15.919-19.676l-100.341-30.354l-74.118-22.4l-3.624-1.428l-1.501-0.893l-1.431-1.116l-1.456-1.805
	c0,0-0.517-1.188-0.729-2.253l0.043-1.438l0.252-1.031l0.51-0.933l0.752-0.804l1.384-0.836l0.855-0.303l1.84-0.394l0.859-0.089
	l2.481-0.009l2.815,0.317l3.042,0.564l14.131,2.627c0,0,122.068,22.688,148.099,27.523c26.03,4.836,29.827-13.389,29.827-13.389
	s34.356-90.29,43.312-113.861c8.954-23.571-4.979-48.061-4.979-48.061s-9.728-18.458-17.185-31.072
	c-7.459-12.615-21.729,0.323-21.729,0.323s-140.229,102.469-153.998,112.524c-13.766,10.062-33.39,10.109-47.589,10.931
	c-14.199,0.814-31.882,11.758-31.882,11.758l-60.454,33.051L1354.5,743.288c-18.011,12.785-3.311,29.004-3.311,29.004l5.452,5.994
	l10.917,11.76l13.162,14.184l16.001,17.234l21.58,22.543l18.512,20.854l15.173,18.586l11.465,15.27l10.951,16.025l12.173,20.561
	l8.479,17.928l3.937,10.396l4.887,15.424l5.552,21.434l4.838,22.875l3.416,19.139l3.129,20.342l2.831,21.525l3.113,29.238
	l1.432,28.332l0.228,20.727l-0.318,32.643l-1.197,42.342l-1.405,34.105l-1.838,36.656c0,0-3.463,57.525-4.038,75.07
	c-0.577,17.543,19.583,24.52,19.583,24.52l22.361,11.361l23.074,12.443l28.885,16.482l42.241,26.139l33.742,22.91l35.174,26.205
	l28.118,23.031l33.645,30.646l24.184,24.764l18.488,21.029c0,0,9.102,11.23,31.012,41.803c21.91,30.564,23.947-7.908,23.947-7.908
	l-3.51-22.725l-4.644-44.906l-2.729-47.279l-1.429-73.754l0.39-49.254l4.558-129.287l5.301-88.188l9.017-114.691
	c0,0,5.223-55.309,6.47-71.932S1882.778,989.636,1882.778,989.636z M1518.825,755.018l-1.218,7.418l-0.724,2.533l-2.339,5.799
	l-1.222,2.275l-2.267,3.432l-2.521,3.053l-3.906,3.629l-3.438,2.424l-1.637,0.953l-4.218,1.963l-3.787,1.229l-4.419,0.885
	l-4.646,0.34l-6.729-0.488l-4.688-1.002l-5.729-1.967l-5.574-2.771l-5.38-3.568l-6.843-6.188l-2.979-3.461l-3.778-5.381
	l-2.742-4.963l-2.112-4.898l-1.994-6.508l-1.194-7.268l-0.142-7.43l0.727-5.904l0.834-3.619l1.521-4.473l1.505-3.307l1.527-2.695
	l3.003-4.162l6.835-6.312l4.531-2.716l6.76-2.562l6.068-1.08l5.165-0.146l7.267,0.953l9.188,3.074l7.757,4.408l6.263,5.104
	l6.362,7.14l4.199,6.511l3.433,7.42l2.051,6.732l1.229,7.867L1518.825,755.018z M582.32,251.251
	c60.64-21.657,122.964-38.502,186.009-52.217c45.238-8.903,91.201-15.163,137.401-18.77c125.607-9.625,252.185,7.7,372.979,42.352
	c18.288,5.535,36.817,11.308,55.347,16.604c27.436,8.663,54.389,19.731,81.574,29.358c24.063,7.94,46.923,18.769,70.505,28.153
	c16.122,7.219,32.969,12.992,49.089,20.694c25.025,12.272,50.773,22.618,76.04,34.651c22.62,10.829,45.24,22.379,68.343,32.967
	c31.796,15.661,63.592,32.258,95.85,47.252l0,0l16.47,7.733l-3.786-29.829c-4.666-45.699-7.323-91.848-13.241-137.293
	c-38.021-12.993-77-23.102-115.504-33.929c-54.86-14.438-109.97-26.472-164.353-42.592c-23.582-6.257-47.404-12.516-70.506-20.937
	c-24.308-8.662-49.086-15.881-72.912-25.507c-47.404-18.528-92.881-41.873-138.844-63.286
	c-43.797-20.454-89.274-36.579-135.479-49.812C964.445,5.083,846.296-4.304,729.589,1.714c1.202,38.021-9.385,75.317-25.026,109.489
	c5.297,8.422,12.993,15.158,17.81,24.063c-10.588-0.722-20.693-3.369-31.042-3.85c-11.069,15.159-27.19,25.024-42.591,34.891
	c-25.749,16.123-51.495,32.004-77.244,48.127c-16.604,11.069-34.408,21.176-49.329,34.892c0,7.701,0.722,15.64,1.925,23.342
	C544.06,267.134,562.59,257.269,582.32,251.251z M1799.223,436.885c1.535,4.604,12.769,5.03,20.104,0.974l167.886-106.214
	l-203.377-55.938L1799.223,436.885z M0,473.882l17.088,47.954c0,0,2.822,15.28,10.387,18.943
	c7.564,3.663,296.226,129.165,296.226,129.165l44.367-13.826l47.726-13.399l37.782-9.812l26.705-6.442l18.768-4.527l0.021-0.004
	l2.522-0.605l12.714-2.815l0.023-0.005l20.706-4.585l17.682-3.915l23.91-4.796l16.511-3.312l0.034-0.008l18.741-3.76l8.165-1.453
	l0.011-0.002l18.096-3.22l38.663-6.88l21.196-3.205l24.13-3.648l0.146-0.021l39.312-5.943l3.706-0.478l0.003-0.001l8.832-1.144
	l22.002-2.84l0.021-0.002l5.119-0.661l25.117-2.812l0.022-0.006l0.056-0.007l30.041-3.366l1.964-0.186l0.011-0.001l21.838-2.044
	l14.034-1.312h0.004l9.77-0.915l11.042-0.832l0.017-0.002l28.185-2.129l0.016-0.003l12.29-0.928l14.041-0.767h0.01l25.491-1.396
	l18.498-1.009h0.002l3.438-0.188l18.205-0.605l0.026-0.001l23.779-0.793h0.015l8.607-0.287l11.688-0.169h0.024l18.18-0.263
	l9.506-0.141h0.015l7.421-0.104l11.562,0.062h0.035l16.437,0.09l16.655,0.091h0.029l8.291,0.044l5.271,0.138h0.017l13.319,0.35
	l14.596,0.388l14.049,0.367h0.01l2.471,0.064l6.785,0.323l0.028,0.001l12.782,0.606l7.574,0.361l10.379,0.495l14.454,0.688
	l10.87,0.807l12.094,0.895l17.306,1.281l13.168,0.978l12.077,0.896h0.002l3.486,0.258l7.532,0.772l0.019,0.002l17.836,1.83
	l14.127,1.445l14.153,1.452h0.001l3.271,0.335l56.209,7.272l52.757,8.247l64.34,12.011l33.475,7.136l6.646,1.584l2.839,0.421
	l2.047,0.146l2.082-0.088l1.433-0.354l1.141-0.722l9.796-7.74l14.954-11.938l28.146-21.519l35.71-23.991l32.3-21.7l35.938-24.146
	l13.729-9.225c0,0,17.962-15.211,0.617-24.271c-17.343-9.057-75.021-39.076-75.021-39.076l-10.657-5.447l-17.152-8.771
	l-35.146-17.97l-26.938-13.738l-7.09-3.53l-38.872-19.353l-6.506-3.239l-23.749-11.368l-21.391-9.984l-19.605-9.152l-2.446-1.142
	l-22.487-10.5l-10.609-4.634l-39.057-16.789l-16.479-6.852l-39.297-15.157l-46.6-16.643l-55.498-17.281l-51.479-13.035
	l-59.202-11.568l-54.884-7.467l-64.688-4.862l-48.878-0.455l-68.187,3.58l-35.849,3.234l-64.038,9.314l-44.368,8.167l-47.78,10.562
	l-48.8,12.497l-56.583,16.436l-53.522,16.927l-35,11.668l-30.352,11.151l-22.189-39.165L242.741,363.267l-164.92,75.11L0,473.882z"
	/>
</svg>
