<?xml version="1.0" encoding="utf-8"?>
<!-- Generator: Adobe Illustrator 16.0.0, SVG Export Plug-In . SVG Version: 6.00 Build 0)  -->
<!DOCTYPE svg PUBLIC "-//W3C//DTD SVG 1.1//EN" "http://www.w3.org/Graphics/SVG/1.1/DTD/svg11.dtd">
<svg version="1.1" id="Layer_1" xmlns="http://www.w3.org/2000/svg" xmlns:xlink="http://www.w3.org/1999/xlink" x="0px" y="0px"
	 width="3325.975px" height="1131.479px" viewBox="0 0 3325.975 1131.479" enable-background="new 0 0 3325.975 1131.479"
	 xml:space="preserve">
<path d="M841.085,966.568c9.853-6.763,23.091-9.914,30.28-20.281c8.148-12.293,5.688-28.176,11.665-41.428
	c10.763-24.099,32.859-42.438,58.126-49.707c32.486-9.453,66.943-5.912,99.243,1.483c22.174,4.289,42.679,13.156,63.66,21.06
	c85.906,47.254,171.571,94.745,257.479,142c15.685,8.149,30.649,17.99,46.812,25.184c12.995-3.396,25.748-8.238,37.771-14.279
	c6.225-11.809,10.033-24.813,15.533-37.104c22.447-58.304,42.729-117.324,68.793-174.188
	c16.984-35.661,35.172-71.809,63.499-100.026c9.604-10.132,23.077-15.214,32.678-25.347c3.6-4.1,7.917-9.887,5.007-15.653
	c-4.85-8.656-13.295-14.66-22.461-18.015c-97.689-41.209-194.418-84.104-290.194-128.933c-2.412-0.958-3.86-2.641-4.593-5.046
	c-4.372-10.824-7.54-21.895-11.911-32.478c-67.385,17.707-134.76,37.823-204.351,44.702c-9.149,1.225-18.789-0.202-27.448,3.188
	c-7.668,12.293-11.955,26.504-19.145,39.036c-0.722,0-2.405,0.482-3.129,0.486c-9.199-14.186-16.233-29.816-26.158-43.762
	c-67.689-10.017-135.483-19.212-203.359-27.751c-7.266-0.797-2.488,20.584-2.488,20.584l83.397,202.45
	c0,0-77.974-177.188-89.818-202.412c-9.289-19.779-22.96-24.248-28.43-25.255c-243.353-29.752-487.696-51.395-732.039-72.078
	c-15.904-1.896-34.442,0.55-45.48,13.33c-6.718,8.199-4.024,19.988,0.816,28.405c9.693,17.795,25.635,30.763,39.412,45.179
	c191.174,195.091,382.828,389.699,574.243,584.791c9.905,9.608,18.378,21.871,32.359,25.453c14.465,3.821,28.901-1.502,42.616-5.381
	c30.329-6.562,60.656-13.361,90.982-20.162c8.185-1.701,16.846-4.607,21.881-11.603c4.315-5.305,4.053-12.766,3.309-19.021
	c-3.439-21.178-11.46-42.346-6.956-64.021C806.959,989.988,824.5,976.951,841.085,966.568z M1921.084,251.253
	c60.642-21.657,122.966-38.502,186.011-52.217c45.237-8.903,91.2-15.163,137.397-18.77c125.611-9.625,252.188,7.7,372.981,42.352
	c18.288,5.535,36.814,11.308,55.347,16.604c27.432,8.663,54.385,19.731,81.574,29.358c24.062,7.94,46.923,18.769,70.505,28.153
	c16.122,7.219,32.967,12.992,49.089,20.694c25.023,12.272,50.771,22.618,76.04,34.651c22.62,10.829,45.24,22.379,68.34,32.967
	c31.795,15.661,63.593,32.258,95.851,47.252l0,0l16.471,7.733l-3.786-29.829c-4.666-45.699-7.323-91.847-13.241-137.293
	c-38.021-12.993-77-23.102-115.504-33.929c-54.862-14.438-109.97-26.472-164.353-42.592c-23.582-6.257-47.404-12.516-70.507-20.937
	c-24.305-8.662-49.086-15.881-72.912-25.507c-47.403-18.528-92.883-41.873-138.846-63.286
	c-43.795-20.454-89.271-36.579-135.477-49.812C2303.207,5.085,2185.06-4.301,2068.351,1.716
	c1.202,38.021-9.385,75.317-25.026,109.489c5.295,8.422,12.994,15.158,17.809,24.063c-10.588-0.722-20.691-3.369-31.042-3.85
	c-11.068,15.159-27.189,25.024-42.591,34.891c-25.749,16.123-51.494,32.004-77.244,48.127
	c-16.604,11.069-34.408,21.176-49.329,34.892c0,7.701,0.723,15.64,1.926,23.342C1882.823,267.136,1901.354,257.27,1921.084,251.253z
	 M3137.988,436.887c1.535,4.604,12.765,5.03,20.104,0.973l167.886-106.213L3122.6,275.708L3137.988,436.887z M1338.764,473.884
	l17.088,47.954c0,0,2.822,15.28,10.387,18.943c7.565,3.663,296.229,129.165,296.229,129.165l44.365-13.826l47.729-13.398
	l37.782-9.812l26.704-6.441l18.769-4.524l0.019-0.007l2.524-0.606l12.714-2.816l0.023-0.004l20.706-4.586l17.682-3.914l23.91-4.797
	l16.511-3.312l0.034-0.008l18.741-3.76l8.165-1.453l0.011-0.002l18.096-3.219l38.662-6.881l21.196-3.205l24.13-3.646l0.146-0.021
	l39.312-5.943l3.705-0.477l0.004-0.002l8.832-1.142l22.002-2.84l0.021-0.002l5.117-0.662l25.12-2.812l0.022-0.003l0.056-0.007
	l30.041-3.367l1.964-0.187l0.008-0.001l21.838-2.044l14.033-1.312h0.004l9.771-0.915l11.041-0.833l0.014-0.001l28.186-2.129
	l0.018-0.001l12.29-0.931l14.04-0.767h0.008l25.493-1.393l18.498-1.011h0.002l3.438-0.188l18.205-0.607l0.029-0.001l23.779-0.793
	h0.014l8.608-0.287l11.688-0.169h0.028l18.177-0.263l9.505-0.138h0.016l7.423-0.106l11.561,0.062h0.036l16.436,0.089l16.655,0.089
	h0.029l8.292,0.044l5.271,0.138h0.018l13.319,0.353l14.596,0.384l14.049,0.37h0.007l2.472,0.062l6.784,0.323l0.03,0.001l12.783,0.61
	l7.574,0.358l10.379,0.495l14.452,0.689l10.871,0.805l12.095,0.895l17.305,1.281l13.169,0.979l12.077,0.894h0.002l3.485,0.258
	l7.53,0.772l0.021,0.002l17.836,1.83l14.127,1.447l14.15,1.451h0.002l3.271,0.336l56.209,7.271l52.755,8.248l64.339,12.01
	l33.478,7.137l6.646,1.584l2.84,0.424l2.048,0.146l2.082-0.088l1.434-0.354l1.141-0.722l9.793-7.739l14.955-11.941l28.146-21.518
	l35.71-23.991l32.3-21.701l35.938-24.146l13.729-9.225c0,0,17.961-15.211,0.617-24.271c-17.343-9.057-75.021-39.076-75.021-39.076
	l-10.658-5.45l-17.152-8.77l-35.146-17.97l-26.938-13.738l-7.09-3.53l-38.872-19.353l-6.507-3.239l-23.75-11.368l-21.391-9.985
	l-19.604-9.152l-2.447-1.142l-22.489-10.499l-10.607-4.634l-39.058-16.789l-16.477-6.852l-39.298-15.157l-46.602-16.643
	l-55.498-17.281l-51.475-13.035l-59.203-11.568l-54.883-7.467l-64.69-4.862l-48.877-0.455l-68.185,3.58l-35.853,3.234l-64.037,9.314
	l-44.367,8.167l-47.778,10.562l-48.802,12.497l-56.584,16.435l-53.521,16.927l-35.001,11.668l-30.351,11.151l-22.19-39.165
	l-246.371,112.401l-164.912,75.103L1338.764,473.884z"/>
</svg>
