<?xml version="1.0" encoding="utf-8"?>
<!-- Generator: Adobe Illustrator 16.0.0, SVG Export Plug-In . SVG Version: 6.00 Build 0)  -->
<!DOCTYPE svg PUBLIC "-//W3C//DTD SVG 1.1//EN" "http://www.w3.org/Graphics/SVG/1.1/DTD/svg11.dtd">
<svg version="1.1" id="Layer_1" xmlns="http://www.w3.org/2000/svg" xmlns:xlink="http://www.w3.org/1999/xlink" x="0px" y="0px"
	 width="3325.988px" height="1131.516px" viewBox="0 0 3325.988 1131.516" enable-background="new 0 0 3325.988 1131.516"
	 xml:space="preserve">
<path d="M2484.908,966.606c16.584,10.383,34.125,23.42,38.396,43.403c4.506,21.681-3.515,42.849-6.955,64.021
	c-0.744,6.258-1.011,13.719,3.312,19.02c5.031,6.992,13.693,9.898,21.879,11.605c30.324,6.801,60.652,13.602,90.98,20.162
	c13.715,3.879,28.147,9.201,42.613,5.381c13.981-3.582,22.452-15.846,32.36-25.453c191.414-195.092,383.07-389.699,574.244-584.79
	c13.772-14.417,29.717-27.384,39.408-45.179c4.846-8.417,7.534-20.207,0.813-28.406c-11.039-12.78-29.574-15.223-45.479-13.33
	c-244.344,20.687-488.688,42.325-732.039,72.078c-5.469,1.008-19.144,5.476-28.43,25.255
	c-11.851,25.227-89.818,202.411-89.818,202.411l83.396-202.449c0,0,4.773-21.381-2.485-20.584
	c-67.877,8.539-135.672,17.735-203.359,27.751c-9.926,13.942-16.959,29.575-26.156,43.761c-0.729-0.002-2.408-0.479-3.133-0.481
	c-7.188-12.533-11.475-26.744-19.144-39.037c-8.659-3.394-18.303-1.962-27.448-3.188c-69.593-6.879-136.966-26.995-204.354-44.702
	c-4.367,10.582-7.537,21.651-11.908,32.479c-0.729,2.405-2.184,4.088-4.594,5.046c-95.771,44.824-192.506,87.723-290.193,128.935
	c-9.162,3.354-17.61,9.354-22.461,18.016c-2.906,5.77,1.406,11.557,5.01,15.654c9.601,10.133,23.07,15.213,32.677,25.346
	c28.328,28.221,46.518,64.363,63.498,100.022c26.063,56.861,46.346,115.888,68.795,174.189c5.498,12.289,9.312,25.295,15.533,37.104
	c12.021,6.041,24.771,10.887,37.771,14.278c16.158-7.188,31.129-17.03,46.812-25.184c85.903-47.256,171.569-94.746,257.479-141.998
	c20.979-7.902,41.482-16.771,63.658-21.062c32.303-7.396,66.758-10.938,99.24-1.483c25.271,7.271,47.366,25.608,58.127,49.707
	c5.979,13.254,3.521,29.137,11.666,41.43C2461.816,956.692,2475.054,959.846,2484.908,966.606z M1338.475,166.309
	c-15.398-9.868-31.521-19.732-42.592-34.892c-10.353,0.481-20.453,3.127-31.042,3.85c4.812-8.904,12.513-15.641,17.808-24.063
	c-15.643-34.171-26.229-71.468-25.024-109.489c-116.707-6.019-234.854,3.369-347.713,35.133
	C863.706,50.08,818.227,66.205,774.432,86.66c-45.963,21.413-91.438,44.758-138.845,63.286
	c-23.825,9.625-48.608,16.845-72.912,25.507c-23.104,8.42-46.923,14.679-70.505,20.936c-54.386,16.12-109.488,28.154-164.354,42.592
	c-38.503,10.827-77.483,20.935-115.503,33.929c-5.918,45.446-8.576,91.594-13.242,137.292l-3.787,29.83l16.471-7.734l0,0
	c32.26-14.994,64.056-31.591,95.853-47.252c23.101-10.588,45.721-22.139,68.34-32.967c25.271-12.034,51.019-22.379,76.042-34.651
	c16.12-7.703,32.966-13.476,49.089-20.694c23.581-9.385,46.438-20.214,70.507-28.154c27.188-9.627,54.144-20.695,81.572-29.358
	c18.526-5.296,37.061-11.069,55.35-16.604c120.796-34.651,247.369-51.977,372.979-42.352c46.199,3.607,92.161,9.866,137.4,18.77
	c63.045,13.714,125.368,30.56,186.009,52.217c19.729,6.017,38.263,15.882,58.232,21.417c1.202-7.702,1.925-15.642,1.925-23.342
	c-14.921-13.716-32.728-23.823-49.329-34.892C1389.969,198.312,1364.223,182.431,1338.475,166.309z M187.986,436.884l15.391-161.18
	L0,331.643l167.89,106.214C175.223,441.915,186.451,441.486,187.986,436.884z M1410.564,267.221l-53.522-16.927l-56.584-16.435
	l-48.801-12.497l-47.779-10.562l-44.366-8.167l-64.037-9.314l-35.851-3.234l-68.188-3.579l-48.877,0.455l-64.688,4.862
	l-54.883,7.467l-59.204,11.568l-51.477,13.035l-55.498,17.281l-46.602,16.643l-39.298,15.157l-16.479,6.852l-39.056,16.788
	l-10.608,4.635l-22.487,10.498l-2.445,1.143l-19.604,9.152l-21.391,9.985l-23.75,11.368l-6.508,3.238l-38.869,19.354l-7.094,3.529
	l-26.938,13.738l-35.146,17.97l-17.149,8.771l-10.659,5.45c0,0-57.681,30.019-75.021,39.076
	c-17.342,9.057,0.617,24.268,0.617,24.268l13.729,9.225l35.938,24.147l32.3,21.701l35.715,23.991l28.146,21.519l14.954,11.939
	l9.793,7.737l1.143,0.728l1.434,0.352l2.082,0.088l2.047-0.145l2.84-0.422l6.646-1.584l33.476-7.142l64.338-12.012l52.759-8.246
	l56.209-7.271l3.271-0.335l14.152-1.45l14.127-1.448l17.838-1.83l0.019-0.001l7.532-0.773l3.483-0.258h0.002l12.077-0.895
	l13.17-0.979l17.306-1.278l12.094-0.896l10.87-0.805l14.455-0.689l10.379-0.495l7.573-0.357l12.781-0.607l0.03-0.001l6.783-0.323
	l2.475-0.062h0.006l14.051-0.37l14.596-0.386l13.318-0.354h0.018l5.271-0.139l8.293-0.044h0.026l16.651-0.09l16.438-0.092h0.035
	l11.562-0.062l7.421,0.104h0.018l9.506,0.141l18.179,0.264h0.027l11.688,0.169l8.606,0.287h0.015l23.777,0.793l0.03,0.001
	l18.202,0.607l3.438,0.188h0.003l18.497,1.012l25.491,1.395h0.009l14.041,0.768l12.288,0.933h0.018l28.188,2.13l0.015,0.001
	l11.041,0.834l9.771,0.915h0.008l14.031,1.312l21.84,2.044l0.008,0.002l1.964,0.188l30.041,3.364l0.058,0.011l0.021,0.002
	l25.119,2.812l5.117,0.659l0.021,0.002l22.001,2.841l8.833,1.145h0.003l3.707,0.479l39.312,5.942l0.146,0.021l24.131,3.646
	l21.193,3.205l38.663,6.879l18.097,3.224l0.012,0.002l8.165,1.451l18.739,3.764l0.035,0.008l16.512,3.311l23.908,4.796l17.685,3.916
	l20.707,4.584l0.021,0.008l12.715,2.812l2.524,0.609l0.019,0.004l18.771,4.523l26.703,6.44l37.782,9.812l47.728,13.397
	l44.365,13.826c0,0,288.662-125.501,296.229-129.164c7.562-3.663,10.388-18.943,10.388-18.943l17.091-47.954l-77.822-35.504
	l-164.909-75.102l-246.369-112.401l-22.19,39.166l-30.352-11.151L1410.564,267.221z"/>
</svg>
