<?xml version="1.0" encoding="utf-8"?>
<!-- Generator: Adobe Illustrator 16.0.0, SVG Export Plug-In . SVG Version: 6.00 Build 0)  -->
<!DOCTYPE svg PUBLIC "-//W3C//DTD SVG 1.1//EN" "http://www.w3.org/Graphics/SVG/1.1/DTD/svg11.dtd">
<svg version="1.1" id="Layer_1" xmlns="http://www.w3.org/2000/svg" xmlns:xlink="http://www.w3.org/1999/xlink" x="0px" y="0px"
	 width="2001.363px" height="750.825px" viewBox="0 0 2001.363 750.825" enable-background="new 0 0 2001.363 750.825"
	 xml:space="preserve">
<path d="M62.107,712.758c-43.752,1.158-73.488-45.801-57.921-73.377L280.755,165.61c5.966-10.921,13.372-13.254,32.49-13.28
	c272.492,2.354,531.347-20.073,776.31-55.74c40.696-5.925,80.564-49.377,113.965-87.989c8.403-9.716,8.34-9.051,21.238-8.077
	l319.437,24.104c18.676,1.409,21.521,3.768,16.831,15.969c-77.889,202.558-126.774,338.159-243.899,416.378
	c-144.949,96.801-336.411,182.346-512.203,224.205c-49.058,11.682-99.92,10.518-148.468,13.117
	C451.821,705.256,266.913,707.34,62.107,712.758L62.107,712.758z M1643.053,15.086l33.961,6.232
	c23.729,41.761,38.215,97.665,100.023,93.319c53.79-3.783,118.973-5.135,174.317-2.247c19.363,0.927,21.242,4.883,9.854,13.995
	c-24.521,17.527-11.56,85.324,27.909,71.459c16.671-4.873,13.705,4.33,6.441,17.922c-32.725,59.923-95.793,165.305-152.223,237.271
	c-61.296,78.172-328.675,193.512-777.07,284.27c-46.462,9.42-89.226,13.676-121.689,13.514c-27.461-2.73-17.972-5.58,20.146-25.756
	c188.462-100.195,418.854-278.965,449.218-322.219C1538.029,226.076,1555.527,178.485,1643.053,15.086L1643.053,15.086z"/>
</svg>
