<?xml version="1.0" encoding="utf-8"?>
<!-- Generator: Adobe Illustrator 16.0.0, SVG Export Plug-In . SVG Version: 6.00 Build 0)  -->
<!DOCTYPE svg PUBLIC "-//W3C//DTD SVG 1.1//EN" "http://www.w3.org/Graphics/SVG/1.1/DTD/svg11.dtd">
<svg version="1.1" id="Layer_1" xmlns="http://www.w3.org/2000/svg" xmlns:xlink="http://www.w3.org/1999/xlink" x="0px" y="0px"
	 width="2004.529px" height="730.736px" viewBox="0 0 2004.529 730.736" enable-background="new 0 0 2004.529 730.736"
	 xml:space="preserve">
<path fill="none" stroke="#1D1D1B" stroke-miterlimit="10" d="M836.583,29.839C836.402,62.31,388.979,59.324,356.971,0l0,0
	l-33.917,6.477c-23.427,41.929-37.513,97.936-99.353,94.033c-53.814-3.397-119.005-4.282-174.327-0.999
	c-19.357,1.066-21.207,5.036-9.753,14.066c24.645,17.351,12.17,85.239-27.397,71.657c-16.705-4.754-13.675,4.428-6.312,17.967
	c33.152,59.688,96.975,164.614,153.918,236.175c61.854,77.731,330.052,191.151,779.086,278.694
	c46.53,9.086,89.322,13.035,121.784,12.639c10.29-1.097,15.385-2.174,15.715-4.142l0.011-0.155
	c29.661-28.456,172.839-63.044,226.851-62.443c15.168,0.458,30.235,0.793,45.089,1.481c204.705,9.492,389.624,10.251,594.462,14.203
	l0,0c43.761,0.843,73.158-46.326,57.396-73.792l-279.959-471.777c-6.043-10.877-13.465-13.158-32.583-13.047
	c-272.469,4.307-531.478-16.264-776.688-50.172c-23.195-3.21-45.986-20.077-67.948-38.38c-3.239-2.699-5.635-5.604-6.337-3.25
	L836.583,29.839z"/>
</svg>
