<?xml version="1.0" encoding="utf-8"?>
<!-- Generator: Adobe Illustrator 16.0.0, SVG Export Plug-In . SVG Version: 6.00 Build 0)  -->
<!DOCTYPE svg PUBLIC "-//W3C//DTD SVG 1.1//EN" "http://www.w3.org/Graphics/SVG/1.1/DTD/svg11.dtd">
<svg version="1.1" id="Layer_1" xmlns="http://www.w3.org/2000/svg" xmlns:xlink="http://www.w3.org/1999/xlink" x="0px" y="0px"
	 width="1906.969px" height="799.304px" viewBox="0 0 1906.969 799.304" enable-background="new 0 0 1906.969 799.304"
	 xml:space="preserve">
<path fill="none" stroke="#000000" stroke-linejoin="round" stroke-miterlimit="10" d="M1525.78,239.516l-116.215,9.664
	c-13.273,1.104-35.77,5.96-53.488,9.787c-17.07,3.686-36.822,8.182-59.188,13.56c-40.217,9.673-80.521,18.97-120.77,28.512
	c-4.197,0.995-33.863,7.809-88.998,20.587c-4.635,1.074-9.254,2.197-13.871,3.347c-2.33,0.581-4.584,1.417-6.904,2.039
	c-1.377,0.37-2.717,0.855-4.066,1.306c-1.146,0.378-2.396,0.683-3.037,1.812c-1.193,2.109,0.448,4.6,1.744,6.227
	c0.943,1.188,1.766,2.489,2.686,3.701c1.895,2.485,3.646,5.076,5.527,7.568c0.416,0.551,0.793,1.144,1.229,1.677
	c24.943,34.042,49.654,68.285,72.354,103.875c2.823,4.424,5.975,8.689,9.023,12.955c3.49,4.883,6.714,10.521,11.348,14.41
	c7.775,6.537,18.702,7.422,28.314,9.348c3.742,0.75,7.486,1.498,11.23,2.24c51.504,10.205,109.703,27.033,163.973,42.725
	c9.76,2.822,21.717,6.279,27.84,12.096L1416.77,568c50.009,47.143,98.108,96.242,145.745,145.768
	c39.214,40.766,61.148,63.463,65.812,67.951c6.98,6.723,19.707,18.971,23.121,17.465l45.418-20.033
	c1.729-0.764,24.314,4.07,36.457,6.217l54.818,9.684c2.439,0.553,9.548,1.635,21.395,3.387c3.323-4.104,5.793-8.668,7.41-13.746
	c0.527-1.355,3.188-25.785,3.498-33.986c0.639-16.818,4.598-50.021,7.571-74.959c2.608-21.875,3.687-43.91,6.521-65.768
	c4.525-34.834,7.324-55.59,8.469-62.264c0.66-4.164,6.33-35.088,16.938-92.77c6.913-37.609,14.311-75.129,22.232-112.54
	l18.479-76.394l4.053-15.185c0.934-3.366,1.688-8.535,2.262-15.581c-2.316-2.712-3.943-4.113-4.887-4.06l-240.201,5.127
	C1616.51,237.273,1532.564,238.952,1525.78,239.516 M339.665,115.323c-10.472,9.992-20.509,20.432-31.065,30.336
	c-41.725,39.15-98.566,99.428-146.593,150.357c-22.867,24.25-45.433,48.781-68.225,73.1l-11.166,11.913
	c0,0-11.317,11.744-11.319,11.745c-2.139,2.218-4.106,4.589-6.05,6.978c-1.953,2.398-5.778,6.001-4.929,9.439
	c1.083,4.383,8.06,4.059,11.457,4.426c10.155,1.1,20.381,1.52,30.57,2.205c5.328,0.354,10.659,0.605,15.988,0.936
	c319.433,19.621,646.221,43.967,971.832,64.873c11.141,0.717,22.305,1.396,33.424,2.391c4.732,0.43,9.498,0.348,14.229,0.838
	c4.562,0.473,9.763,2.479,14.212,0.475c6.159-2.773-0.729-14.012-2.671-17.658c-2.229-4.289-20.884-30.58-55.899-78.838
	c-12.244-16.789-21.553-29.965-28.062-39.44c0,0-9.104-13.393-9.104-13.394c-2.265-3.327-5.41-6.17-8.461-8.754
	c-1.369-1.16-2.643-2.34-4.254-3.152c-1.061-0.527-2.102-1.087-3.146-1.628c-2.477-1.274-4.938-2.574-7.412-3.854
	c-0.578-0.303-1.152-0.604-1.73-0.901C747.972,168.944,650.758,109.543,603.028,80.415c-1.963-1.197-26.104-16.07-39.153-24.107
	c-41.854-25.774-72.318-44.468-91.531-55.99c-6.482-3.889-42.01,28.903-60.745,46.197C387.215,69.021,363.67,92.416,339.665,115.323
	"/>
</svg>
