<?xml version="1.0" encoding="utf-8"?>
<!-- Generator: Adobe Illustrator 16.0.0, SVG Export Plug-In . SVG Version: 6.00 Build 0)  -->
<!DOCTYPE svg PUBLIC "-//W3C//DTD SVG 1.1//EN" "http://www.w3.org/Graphics/SVG/1.1/DTD/svg11.dtd">
<svg version="1.1" id="Layer_1" xmlns="http://www.w3.org/2000/svg" xmlns:xlink="http://www.w3.org/1999/xlink" x="0px" y="0px"
	 width="1846.773px" height="799.305px" viewBox="0 0 1846.773 799.305" enable-background="new 0 0 1846.773 799.305"
	 xml:space="preserve">
<path d="M1465.583,239.515l-116.216,9.664c-13.271,1.104-35.768,5.96-53.487,9.786c-17.068,3.687-36.82,8.183-59.187,13.561
	c-40.217,9.673-80.521,18.97-120.771,28.512c-4.195,0.995-33.861,7.81-88.998,20.587c-4.636,1.074-9.254,2.197-13.869,3.347
	c-2.33,0.581-4.584,1.417-6.904,2.039c-1.377,0.37-2.717,0.855-4.068,1.304c-1.145,0.378-2.396,0.683-3.036,1.812
	c-1.191,2.109,0.448,4.6,1.743,6.226c0.945,1.188,1.767,2.49,2.688,3.702c1.891,2.485,3.646,5.076,5.525,7.568
	c0.416,0.551,0.793,1.144,1.229,1.677c24.941,34.042,49.654,68.284,72.352,103.875c2.824,4.424,5.978,8.689,9.025,12.955
	c3.49,4.883,6.713,10.521,11.346,14.41c7.777,6.537,18.703,7.422,28.316,9.348c3.742,0.75,7.484,1.498,11.229,2.24
	c51.505,10.205,109.703,27.033,163.976,42.728c9.76,2.819,21.717,6.276,27.84,12.092l22.258,21.049
	c50.009,47.143,98.109,96.242,145.746,145.768c39.213,40.767,61.146,63.463,65.812,67.951c6.981,6.723,19.707,18.971,23.121,17.465
	l45.418-20.033c1.729-0.764,24.315,4.07,36.457,6.218l54.819,9.684c2.438,0.553,9.547,1.635,21.394,3.387
	c3.323-4.104,5.793-8.668,7.409-13.745c0.529-1.355,3.188-25.787,3.498-33.988c0.64-16.818,4.599-50.021,7.572-74.959
	c2.609-21.875,3.687-43.91,6.521-65.764c4.524-34.834,7.323-55.593,8.471-62.267c0.659-4.164,6.329-35.088,16.938-92.77
	c6.914-37.609,14.312-75.131,22.234-112.54l18.478-76.393l4.054-15.186c0.935-3.366,1.688-8.535,2.263-15.581
	c-2.32-2.712-3.947-4.113-4.888-4.06l-240.2,5.127C1556.313,237.272,1472.367,238.951,1465.583,239.515 M279.467,115.322
	c-10.472,9.992-20.509,20.432-31.062,30.336c-41.727,39.15-98.567,99.428-146.595,150.357c-22.865,24.25-45.434,48.781-68.226,73.1
	l-11.166,11.913c0,0-11.316,11.744-11.318,11.745c-2.14,2.218-4.104,4.589-6.051,6.978c-1.952,2.397-5.775,6-4.929,9.438
	c1.083,4.383,8.061,4.061,11.457,4.428c10.155,1.1,20.381,1.52,30.57,2.203c5.326,0.354,10.657,0.604,15.985,0.938
	c319.436,19.621,646.224,43.967,971.833,64.873c11.143,0.717,22.307,1.396,33.425,2.391c4.73,0.427,9.498,0.345,14.229,0.835
	c4.562,0.473,9.763,2.479,14.212,0.475c6.159-2.773-0.728-14.012-2.671-17.658c-2.229-4.289-20.881-30.58-55.899-78.837
	c-12.242-16.789-21.553-29.965-28.062-39.44c0,0-9.104-13.393-9.104-13.394c-2.265-3.327-5.408-6.17-8.461-8.754
	c-1.369-1.16-2.64-2.34-4.254-3.152c-1.058-0.529-2.099-1.087-3.146-1.628c-2.479-1.276-4.939-2.574-7.412-3.854
	c-0.578-0.301-1.154-0.604-1.731-0.901C687.774,168.943,590.561,109.542,542.83,80.414c-1.963-1.197-26.104-16.07-39.15-24.106
	c-41.854-25.774-72.318-44.469-91.531-55.99c-6.485-3.889-42.01,28.903-60.745,46.197C327.018,69.02,303.473,92.415,279.467,115.322
	"/>
</svg>
