<?xml version="1.0" encoding="utf-8"?>
<!-- Generator: Adobe Illustrator 16.0.0, SVG Export Plug-In . SVG Version: 6.00 Build 0)  -->
<!DOCTYPE svg PUBLIC "-//W3C//DTD SVG 1.1//EN" "http://www.w3.org/Graphics/SVG/1.1/DTD/svg11.dtd">
<svg version="1.1" id="Layer_1" xmlns="http://www.w3.org/2000/svg" xmlns:xlink="http://www.w3.org/1999/xlink" x="0px" y="0px"
	 width="2216.67px" height="1022.092px" viewBox="0 0 2216.67 1022.092" enable-background="new 0 0 2216.67 1022.092"
	 xml:space="preserve">
<path fill="none" stroke="#000000" stroke-miterlimit="10" d="M1358.772,160.074c-50.51,16.718-370.477,153.578-441.156,191.271
	c-48.118,25.605-95.51,55.24-136.075,92.74c-41.008,37.906-72.736,83.604-96.9,135.43c-1.091,0.951-2.854,0.441-4.17,1.062
	c-22.525,10.636-41.82,26.634-60.445,42.944c-101.823,89.138-197.813,215.666-253.627,360.446
	c-58.044,14.727-78.133,24.269-136.187,38.122c40.127-91.252,87-235.902,116-332.902c40.433-106.354,49.21-194.144,57.931-306.319
	c42.074-6.466,54.216-14.169,94.776-26.653c79.496-24.526,158.363-54.518,237.781-84.151c39.43-14.707,78.819-29.071,117.346-45.688
	c-69.756-10.293-139.077-23.457-205.887-42.567c179.163-33.679,362.694-70.639,547.853-100.951
	c162.173-26.541,327.71-51.627,491.895-73.741c23.845-3.214,47.751-7.117,71.256-8.59c4.291-0.27,7.816-0.951,12.423-0.149
	c14.663,2.523,31.127,13.924,43.689,22.424c0,0,1.444,1.091,2.771,2.171c0.95,0.952,1.464,1.441,1.54,2.293
	C1665.643,64.676,1510.309,109.876,1358.772,160.074z M365.13,420.922c-0.141-8.45-0.271-19.283-3.761-26.138
	c-7.741-15.198-48.121-22.975-66.134-25.408c-28.248-3.813-58.793-5.045-86.67-5.326C137.9,363.33,64.967,369.649,0,379.878
	c32.328,4.598,64.563,9.17,94.61,14.518c55.024,9.792,133.983,18.084,164.188,48.896c14.803,15.11,17.023,49.948,18.053,76.053
	c1.007,25.761-1.26,58.023-4.393,85.492c-13.515,118.582-51.393,231.31-91.039,339.664
	c51.017-110.291,104.709-233.154,145.897-355.5c16.772-49.824,31.043-96.972,37.146-149.363
	C364.694,433.583,365.235,427.356,365.13,420.922z M1824.816,32.421c-69.725,20.552-139.591,41.427-209.167,62.97
	c-69.155,21.414-138.429,43.449-205.825,70.887c-136.807,55.68-262.788,134.978-395.104,203.983
	c21.906-0.047,43.471-1.019,65.395-1.731c41.439-1.361,83.257-3.875,124.986-5.525c91.649-3.613,181.24-10.872,273.05-13.466
	c134.783-3.812,272.363-0.609,391.685,56.733l346.835-121.373C2216.67,284.899,1951.653,121.589,1824.816,32.421z"/>
</svg>
