<?xml version="1.0" encoding="utf-8"?>
<!-- Generator: Adobe Illustrator 16.0.0, SVG Export Plug-In . SVG Version: 6.00 Build 0)  -->
<!DOCTYPE svg PUBLIC "-//W3C//DTD SVG 1.1//EN" "http://www.w3.org/Graphics/SVG/1.1/DTD/svg11.dtd">
<svg version="1.1" id="Layer_1" xmlns="http://www.w3.org/2000/svg" xmlns:xlink="http://www.w3.org/1999/xlink" x="0px" y="0px"
	 width="1295.75px" height="435.192px" viewBox="0 0 1295.75 435.192" enable-background="new 0 0 1295.75 435.192"
	 xml:space="preserve">
<path fill="none" stroke="#000000" stroke-linejoin="round" stroke-miterlimit="10" d="M62.362,270.092
	c173.867,22.175,346.435,42.257,517.292,69.406c166.546,26.469,330.591,62.418,494.617,95.693
	c63.834-113.509,142.311-220.303,221.479-324.309c-42.391-7.236-82.188-9.97-124.896-13.113
	c-39.576-2.904-78.646-9.751-116.795-17.57c-37.619-7.718-73.877-18.479-110.178-29.292C907.268,40,870.286,30.642,833.568,22.251
	C765.714,6.765,703.271-4.027,624.395,1.438c-32.418,2.242-67.314,9.44-99.842,16.218c-25.025,5.216-49.738,10.242-72.888,17.349
	c-95.491,29.312-178.38,84.002-264.048,143.658c-31.717,22.095-64.415,45.412-95.461,68.275
	C82.186,254.295,71.523,261.333,62.362,270.092z"/>
</svg>
