<?xml version="1.0" encoding="utf-8"?>
<!-- Generator: Adobe Illustrator 16.0.0, SVG Export Plug-In . SVG Version: 6.00 Build 0)  -->
<!DOCTYPE svg PUBLIC "-//W3C//DTD SVG 1.1//EN" "http://www.w3.org/Graphics/SVG/1.1/DTD/svg11.dtd">
<svg version="1.1" id="Layer_1" xmlns="http://www.w3.org/2000/svg" xmlns:xlink="http://www.w3.org/1999/xlink" x="0px" y="0px"
	 width="1295.75px" height="435.192px" viewBox="0 0 1295.75 435.192" enable-background="new 0 0 1295.75 435.192"
	 xml:space="preserve">
<path fill="none" stroke="#000000" stroke-linejoin="round" stroke-miterlimit="10" d="M89.079,273.486
	c-0.016-0.002-0.03-0.004-0.045-0.006c0.01-0.001,0.02,0.001,0.029,0.006c-0.999,0.046-2-0.073-2.999-0.106
	c-2.029-0.066-4.061-0.157-6.09-0.232c-4.292-0.158-8.638-1.141-12.905-0.115c-4.635,1.112-6.572,5.441-8.364,9.367
	c-2.163,4.738-4.312,8.205-8.496,11.479c-2.734,2.139-5.751,3.82-9.04,4.947c-3.196,1.094-6.607,1.641-9.988,1.641
	C13.96,300.463,0,286.502,0,269.282c0-17.22,13.96-31.181,31.181-31.181c4.42,0,9.284,1.056,13.292,2.892
	c4.086,1.871,7.621,4.754,10.468,8.215c0.776,0.942,1.503,1.926,2.2,2.928c0.347,0.5,0.687,1.005,1.022,1.512
	c2.332,3.52,6.6,4.219,10.485,3.663c8.296-1.185,16.804-5.437,23.506-10.371c31.047-22.862,63.744-46.18,95.462-68.275
	c85.668-59.656,168.557-114.346,264.047-143.658c23.149-7.107,47.862-12.133,72.889-17.349
	c32.526-6.778,67.424-13.976,99.842-16.218c78.877-5.465,141.319,5.327,209.174,20.813c36.718,8.39,73.7,17.748,110.313,28.656
	c36.301,10.813,72.559,21.574,110.178,29.292c38.147,7.819,77.219,14.666,116.795,17.57c42.709,3.143,82.506,5.877,124.896,13.113
	c-79.168,104.006-157.646,210.8-221.479,324.309c-164.026-33.275-328.071-69.225-494.617-95.693
	c-7.882-1.252-15.768-2.488-23.653-3.713c-7.94-1.232-15.884-2.447-23.828-3.649c-7.937-1.201-15.874-2.39-23.813-3.565
	c-7.948-1.178-15.896-2.341-23.849-3.492c-7.954-1.152-15.909-2.293-23.866-3.422c-7.961-1.132-15.923-2.25-23.888-3.359
	c-7.969-1.109-15.938-2.209-23.907-3.301c-7.977-1.092-15.953-2.174-23.931-3.248c-7.981-1.074-15.964-2.141-23.945-3.199
	c-7.99-1.061-15.981-2.112-23.973-3.159c-7.993-1.048-15.987-2.087-23.983-3.121c-8.002-1.036-16.005-2.065-24.009-3.093
	c-8.009-1.025-16.02-2.047-24.03-3.064c-8.011-1.02-16.022-2.033-24.036-3.045c-8.026-1.014-16.054-2.023-24.082-3.033
	c-8.018-1.008-16.037-2.015-24.056-3.02c-8.046-1.008-16.091-2.016-24.137-3.023c-8.023-1.004-16.046-2.009-24.069-3.015
	c-8.067-1.011-16.133-2.022-24.2-3.035c-8.012-1.007-16.023-2.017-24.037-3.026C96.601,274.437,92.839,273.967,89.079,273.486z"/>
</svg>
