<?xml version="1.0" encoding="utf-8"?>
<!-- Generator: Adobe Illustrator 16.0.0, SVG Export Plug-In . SVG Version: 6.00 Build 0)  -->
<!DOCTYPE svg PUBLIC "-//W3C//DTD SVG 1.1//EN" "http://www.w3.org/Graphics/SVG/1.1/DTD/svg11.dtd">
<svg version="1.1" id="Layer_1" xmlns="http://www.w3.org/2000/svg" xmlns:xlink="http://www.w3.org/1999/xlink" x="0px" y="0px"
	 width="1295.75px" height="435.193px" viewBox="0 0 1295.75 435.193" enable-background="new 0 0 1295.75 435.193"
	 xml:space="preserve">
<path fill="none" stroke="#000000" stroke-linejoin="round" stroke-miterlimit="10" d="M1233.386,270.092
	c-173.864,22.175-346.436,42.257-517.293,69.406c-166.544,26.47-330.59,62.419-494.615,95.694
	C157.644,321.688,79.167,214.893,0,110.889c42.389-7.238,82.188-9.972,124.897-13.114c39.578-2.903,78.647-9.75,116.795-17.57
	c37.618-7.718,73.876-18.48,110.174-29.291c36.617-10.912,73.596-20.272,110.312-28.662c67.856-15.487,130.3-26.279,209.178-20.813
	c32.418,2.243,67.312,9.439,99.844,16.218c25.021,5.215,49.737,10.242,72.887,17.349c95.49,29.312,178.379,84.002,264.047,143.657
	c31.717,22.094,64.414,45.411,95.461,68.275C1213.564,254.293,1224.226,261.333,1233.386,270.092z"/>
</svg>
