<?xml version="1.0" encoding="utf-8"?>
<!-- Generator: Adobe Illustrator 16.0.0, SVG Export Plug-In . SVG Version: 6.00 Build 0)  -->
<!DOCTYPE svg PUBLIC "-//W3C//DTD SVG 1.1//EN" "http://www.w3.org/Graphics/SVG/1.1/DTD/svg11.dtd">
<svg version="1.1" id="Layer_1" xmlns="http://www.w3.org/2000/svg" xmlns:xlink="http://www.w3.org/1999/xlink" x="0px" y="0px"
	 width="1233.387px" height="435.192px" viewBox="0 0 1233.387 435.192" enable-background="new 0 0 1233.387 435.192"
	 xml:space="preserve">
<path d="M1233.387,270.092c-173.865,22.175-346.438,42.257-517.293,69.406c-166.545,26.469-330.594,62.418-494.616,95.693
	C157.644,321.688,79.167,214.893,0,110.889c42.389-7.238,82.188-9.972,124.896-13.114c39.578-2.903,78.647-9.75,116.795-17.57
	c37.618-7.718,73.876-18.48,110.174-29.291c36.617-10.912,73.599-20.272,110.312-28.662c67.854-15.487,130.3-26.279,209.178-20.813
	c32.418,2.243,67.312,9.439,99.842,16.218c25.022,5.215,49.739,10.242,72.888,17.349c95.489,29.312,178.381,84.002,264.049,143.657
	c31.717,22.094,64.412,45.412,95.461,68.275C1213.564,254.293,1224.227,261.333,1233.387,270.092z"/>
</svg>
