<?xml version="1.0" encoding="utf-8"?>
<!-- Generator: Adobe Illustrator 16.0.0, SVG Export Plug-In . SVG Version: 6.00 Build 0)  -->
<!DOCTYPE svg PUBLIC "-//W3C//DTD SVG 1.1//EN" "http://www.w3.org/Graphics/SVG/1.1/DTD/svg11.dtd">
<svg version="1.1" id="Layer_1" xmlns="http://www.w3.org/2000/svg" xmlns:xlink="http://www.w3.org/1999/xlink" x="0px" y="0px"
	 width="3149.748px" height="1298.375px" viewBox="0 0 3149.748 1298.375" enable-background="new 0 0 3149.748 1298.375"
	 xml:space="preserve">
<path fill="#1D1D1B" d="M1740.017,442.558c136.807,55.686,262.785,134.982,395.104,203.985c-21.908-0.045-43.472-1.016-65.396-1.729
	c-41.436-1.361-83.254-3.873-124.983-5.525c-91.652-3.614-181.238-10.872-273.052-13.466
	c-134.781-3.814-272.361-0.611-391.686,56.729L933.166,561.182c0,0,265.019-163.308,391.857-252.479
	c69.729,20.552,139.592,41.426,209.166,62.969C1603.344,393.085,1672.618,415.121,1740.017,442.558z M2745.606,659.152
	c-42.074-6.469-54.216-14.169-94.775-26.653c-79.496-24.526-158.362-54.519-237.78-84.151
	c-39.431-14.707-78.819-29.069-117.347-45.688c69.757-10.293,139.076-23.457,205.888-42.567
	c-179.163-33.679-362.694-70.639-547.854-100.951c-162.173-26.541-327.71-51.627-491.895-73.741
	c-23.846-3.214-47.751-7.117-71.256-8.59c-4.291-0.27-7.816-0.951-12.424-0.149c-14.662,2.523-31.127,13.924-43.688,22.424
	c0,0-1.444,1.091-2.771,2.171c-0.95,0.952-1.466,1.441-1.541,2.293c153.94,37.41,309.274,82.61,460.812,132.81
	c50.51,16.718,370.478,153.576,441.156,191.271c48.116,25.605,95.51,55.24,136.073,92.74c41.01,37.906,72.736,83.604,96.9,135.43
	c1.091,0.951,2.854,0.441,4.17,1.062c22.525,10.637,41.82,26.635,60.445,42.943c101.822,89.139,197.812,215.666,253.627,360.445
	c58.044,14.728,78.133,24.271,136.187,38.123c-40.127-91.252-87-235.902-116-332.902
	C2763.104,859.117,2754.325,771.328,2745.606,659.152z M2890.948,719.576c30.205-30.812,109.164-39.104,164.188-48.896
	c30.047-5.348,62.28-9.92,94.608-14.518c-64.967-10.229-137.897-16.548-208.563-15.828c-27.877,0.281-58.423,1.513-86.67,5.326
	c-18.013,2.433-58.394,10.208-66.134,25.408c-3.489,6.854-3.621,17.688-3.762,26.137c-0.104,6.436,0.438,12.662,0.666,18.717
	c6.104,52.391,20.373,99.539,37.146,149.363c41.188,122.346,94.881,245.209,145.896,355.5
	c-39.646-108.354-77.522-221.082-91.039-339.664c-3.133-27.469-5.397-59.73-4.393-85.492
	C2873.925,769.523,2876.146,734.686,2890.948,719.576z M785.234,615.111c-38.959-1.596-76.062-11.243-115.188-20.783
	c-137.481-33.496-277.731-67.016-412.977-103.282c-34.146-9.16-67.739-19.222-101.672-27.141
	c-45.185-10.558-90.246-19.424-135.05-27.301c-25.037-4.403-27.635,4.396-4.077,12.802c85.892,30.64,171.092,62.131,252.771,103.249
	C377.635,607.335,479.394,677,574.315,758.539c16.322,14.018,32.178,28.764,47.551,44.09c42.92-12.062,81.317-28.82,131.306-26.018
	c27.44,1.541,55.882,8.217,83.978,13.492c69.006,12.965,123.279,29.674,191.591,46.578c14.443,3.582,24.907,7.48,38.029,8.143
	c26.536,1.342,41.289-10.662,59.861-28.041c0,0,98.938-90.738,144.579-129.055l-346.662-121.53
	C880.234,589.76,836.067,617.182,785.234,615.111z M1903.425,339.497c-170.854-27.15-343.427-47.232-517.292-69.406
	c9.16-8.759,19.82-15.797,29.796-23.154c29.373-21.667,58.645-43.46,88.269-64.779c106.163-76.402,215.166-137.626,344.129-164.502
	c32.527-6.778,67.427-13.976,99.845-16.218c78.877-5.466,141.319,5.326,209.174,20.813c36.718,8.39,73.699,17.748,110.312,28.661
	c36.302,10.813,72.56,21.574,110.179,29.292c38.146,7.818,77.217,14.666,116.791,17.567c42.707,3.143,82.502,5.877,124.896,13.113
	c-79.167,104.008-157.646,210.803-221.479,324.311C2234.02,401.917,2069.975,365.968,1903.425,339.497z"/>
</svg>
