<?xml version="1.0" encoding="utf-8"?>
<!-- Generator: Adobe Illustrator 16.0.0, SVG Export Plug-In . SVG Version: 6.00 Build 0)  -->
<!DOCTYPE svg PUBLIC "-//W3C//DTD SVG 1.1//EN" "http://www.w3.org/Graphics/SVG/1.1/DTD/svg11.dtd">
<svg version="1.1" id="Layer_1" xmlns="http://www.w3.org/2000/svg" xmlns:xlink="http://www.w3.org/1999/xlink" x="0px" y="0px"
	 width="3149.748px" height="1298.375px" viewBox="0 0 3149.748 1298.375" enable-background="new 0 0 3149.748 1298.375"
	 xml:space="preserve">
<path fill="none" stroke="#000000" stroke-miterlimit="10" d="M1280.003,682.555L933.166,561.183 M2135.118,646.543
	c-132.317-69.003-258.297-148.301-395.104-203.985c-67.396-27.438-136.672-49.474-205.825-70.888
	c-69.573-21.543-139.438-42.417-209.166-62.969 M2619.521,110.885c-79.167,104.007-157.646,210.802-221.479,324.311
	c-164.021-33.276-328.065-69.228-494.615-95.695c-170.854-27.15-343.428-47.232-517.292-69.406 M2351.787,705.909
	c-36.681-30.8-77.896-56.06-119.654-78.28c-70.68-37.693-390.646-174.553-441.156-191.271
	c-151.537-50.198-306.871-95.398-460.812-132.81 M2919.537,1298.375c-40.127-91.252-87-235.902-116-332.902
	c-40.435-106.354-49.211-194.145-57.933-306.318c-42.073-6.469-54.216-14.169-94.774-26.653
	c-79.496-24.526-158.363-54.518-237.781-84.151c-39.43-14.707-78.819-29.069-117.346-45.688
	c69.756-10.293,139.076-23.457,205.887-42.567c-179.163-33.679-362.694-70.639-547.854-100.951
	c-162.174-26.541-327.711-51.627-491.896-73.741c-23.846-3.214-47.751-7.117-71.256-8.59c-4.291-0.27-7.816-0.951-12.424-0.149
	 M3149.748,656.162c-64.969-10.229-137.899-16.548-208.565-15.828c-27.877,0.281-58.422,1.513-86.67,5.326
	c-18.013,2.433-58.394,10.208-66.134,25.408c-3.489,6.854-3.62,17.688-3.762,26.137c-0.104,6.436,0.438,12.662,0.668,18.717
	c6.103,52.391,20.373,99.539,37.146,149.363c41.188,122.346,94.881,245.209,145.897,355.5 M1271.207,687.729L924.546,566.199"/>
</svg>
