<?xml version="1.0" encoding="utf-8"?>
<!-- Generator: Adobe Illustrator 16.0.0, SVG Export Plug-In . SVG Version: 6.00 Build 0)  -->
<!DOCTYPE svg PUBLIC "-//W3C//DTD SVG 1.1//EN" "http://www.w3.org/Graphics/SVG/1.1/DTD/svg11.dtd">
<svg version="1.1" id="Layer_1" xmlns="http://www.w3.org/2000/svg" xmlns:xlink="http://www.w3.org/1999/xlink" x="0px" y="0px"
	 width="3149.748px" height="1298.375px" viewBox="0 0 3149.748 1298.375" enable-background="new 0 0 3149.748 1298.375"
	 xml:space="preserve">
<path fill="none" stroke="#000000" stroke-miterlimit="10" d="M1409.73,442.558c-136.807,55.686-262.785,134.982-395.104,203.985
	c21.908-0.045,43.472-1.016,65.396-1.729c41.436-1.361,83.254-3.873,124.983-5.525c91.652-3.614,181.238-10.872,273.052-13.466
	c134.781-3.814,272.361-0.611,391.686,56.729l346.838-121.372c0,0-265.019-163.308-391.857-252.479
	c-69.729,20.552-139.592,41.426-209.166,62.969C1546.403,393.085,1477.127,415.121,1409.73,442.558z M1246.322,339.497
	c170.854-27.15,343.427-47.232,517.292-69.406c-9.16-8.759-19.82-15.797-29.796-23.154c-29.373-21.667-58.645-43.46-88.269-64.779
	c-106.163-76.402-215.166-137.626-344.129-164.502c-32.527-6.778-67.427-13.976-99.845-16.218
	c-78.877-5.466-141.318,5.326-209.174,20.813c-36.718,8.39-73.699,17.748-110.312,28.661
	c-36.302,10.813-72.56,21.574-110.179,29.292c-38.146,7.818-77.217,14.666-116.791,17.567
	c-42.707,3.143-82.502,5.877-124.896,13.113c79.167,104.008,157.646,210.803,221.479,324.311
	C915.727,401.917,1079.772,365.968,1246.322,339.497z M346.212,965.472c-29,97-75.873,241.65-116,332.902
	c58.054-13.853,78.143-23.396,136.187-38.123c55.814-144.779,151.805-271.308,253.627-360.445
	c18.625-16.31,37.92-32.308,60.445-42.943c1.315-0.621,3.079-0.111,4.17-1.062c24.164-51.825,55.892-97.522,96.9-135.43
	c40.563-37.5,87.957-67.135,136.073-92.74c70.681-37.693,390.646-174.553,441.156-191.271
	c151.537-50.198,306.871-95.398,460.812-132.81c-0.075-0.852-0.591-1.341-1.541-2.293c-1.325-1.08-2.771-2.171-2.771-2.171
	c-12.562-8.5-29.026-19.901-43.688-22.424c-4.606-0.802-8.133-0.121-12.424,0.149c-23.505,1.473-47.41,5.376-71.256,8.59
	c-164.185,22.114-329.722,47.2-491.895,73.741c-185.159,30.312-368.69,67.272-547.854,100.951
	c66.812,19.11,136.131,32.274,205.888,42.567c-38.526,16.617-77.916,30.979-117.347,45.688
	c-79.418,29.633-158.285,59.625-237.781,84.151c-40.56,12.483-52.7,20.186-94.774,26.653
	C395.42,771.328,386.643,859.117,346.212,965.472z M276.852,795.629c1.006,25.762-1.26,58.023-4.393,85.492
	c-13.517,118.582-51.395,231.31-91.039,339.664c51.016-110.291,104.709-233.154,145.896-355.5
	c16.773-49.824,31.043-96.973,37.146-149.363c0.229-6.055,0.771-12.281,0.666-18.717c-0.142-8.449-0.271-19.282-3.762-26.137
	c-7.741-15.2-48.121-22.977-66.134-25.408c-28.248-3.813-58.793-5.045-86.67-5.326C137.899,639.614,64.967,645.933,0,656.162
	c32.328,4.598,64.562,9.17,94.608,14.518c55.024,9.792,133.983,18.084,164.188,48.896
	C273.601,734.686,275.822,769.523,276.852,795.629z M2225.199,566.198l-346.663,121.53c45.644,38.315,144.58,129.055,144.58,129.055
	c18.572,17.379,33.325,29.383,59.861,28.041c13.122-0.661,23.586-4.561,38.029-8.143c68.312-16.904,122.585-33.613,191.591-46.578
	c28.096-5.275,56.536-11.951,83.979-13.492c49.986-2.804,88.385,13.956,131.305,26.018c15.373-15.326,31.229-30.072,47.551-44.09
	c94.921-81.539,196.68-151.204,305.273-205.884c81.68-41.118,166.881-72.609,252.771-103.249
	c23.558-8.404,20.96-17.205-4.077-12.802c-44.804,7.877-89.865,16.743-135.05,27.301c-33.932,7.919-67.526,17.979-101.672,27.141
	c-135.244,36.267-275.494,69.786-412.976,103.282c-39.129,9.54-76.23,19.188-115.189,20.783
	C2313.68,617.182,2269.513,589.76,2225.199,566.198z"/>
</svg>
