<?xml version="1.0" encoding="utf-8"?>
<!-- Generator: Adobe Illustrator 16.0.0, SVG Export Plug-In . SVG Version: 6.00 Build 0)  -->
<!DOCTYPE svg PUBLIC "-//W3C//DTD SVG 1.1//EN" "http://www.w3.org/Graphics/SVG/1.1/DTD/svg11.dtd">
<svg version="1.1" id="Layer_1" xmlns="http://www.w3.org/2000/svg" xmlns:xlink="http://www.w3.org/1999/xlink" x="0px" y="0px"
	 width="472.633px" height="1187.064px" viewBox="0 0 472.633 1187.064" enable-background="new 0 0 472.633 1187.064"
	 xml:space="preserve">
<path fill="none" stroke="#000000" stroke-linejoin="round" stroke-miterlimit="10" d="M232.854,363.128
	C149.905,245.818,63.903,127.523,0.258,0C-0.016,0.393,0.031,1.265,0,2.025c39.764,259.682,77.317,528.938,109.739,797.766
	c3.304,27.416,7.128,57.729,10.517,86.473c1.151,9.836,0.92,20.377,3.204,28.808c2.256,8.338,8.484,17.334,12.706,26.104
	c29.496,61.451,59.052,122.902,89.112,183.529c31.054-59.617,61.605-119.91,92.731-181.088c4.396-8.638,10.52-17.691,13.05-25.943
	c1.271-4.127,1.515-9.676,2.2-14.688c41.597-300.098,89.032-604.605,139.374-897.91
	C406.183,131.517,318.395,247.552,232.854,363.128z"/>
</svg>
