<?xml version="1.0" encoding="utf-8"?>
<!-- Generator: Adobe Illustrator 16.0.0, SVG Export Plug-In . SVG Version: 6.00 Build 0)  -->
<!DOCTYPE svg PUBLIC "-//W3C//DTD SVG 1.1//EN" "http://www.w3.org/Graphics/SVG/1.1/DTD/svg11.dtd">
<svg version="1.1" id="Layer_1" xmlns="http://www.w3.org/2000/svg" xmlns:xlink="http://www.w3.org/1999/xlink" x="0px" y="0px"
	 width="1468.607px" height="790.51px" viewBox="0 0 1468.607 790.51" enable-background="new 0 0 1468.607 790.51"
	 xml:space="preserve">
<path fill="none" stroke="#000001" stroke-linejoin="round" stroke-miterlimit="10" d="M480.759,154.394
	c3.718,0,6.73,3.014,6.73,6.732s-3.014,6.732-6.73,6.732c-3.72,0-6.732-3.014-6.732-6.732S477.039,154.394,480.759,154.394z
	 M537.326,154.394c3.719,0,6.732,3.014,6.732,6.732s-3.015,6.732-6.732,6.732c-3.717,0-6.73-3.014-6.73-6.732
	S533.608,154.394,537.326,154.394z M537.326,102.394c3.719,0,6.732,3.014,6.732,6.732s-3.015,6.732-6.732,6.732
	c-3.717,0-6.73-3.014-6.73-6.732S533.608,102.394,537.326,102.394z M593.896,167.858c-3.722,0-6.732-3.014-6.732-6.732
	s3.017-6.732,6.732-6.732s6.729,3.014,6.729,6.732S597.615,167.858,593.896,167.858z M650.469,206.394
	c3.718,0,6.73,3.014,6.73,6.732s-3.014,6.732-6.73,6.732s-6.732-3.014-6.732-6.732S646.751,206.394,650.469,206.394z
	 M650.469,154.394c3.718,0,6.73,3.014,6.73,6.732s-3.014,6.732-6.73,6.732s-6.732-3.014-6.732-6.732
	S646.751,154.394,650.469,154.394z M707.037,206.394c3.72,0,6.732,3.014,6.732,6.732s-3.014,6.732-6.732,6.732
	c-3.718,0-6.73-3.014-6.73-6.732S703.319,206.394,707.037,206.394z M707.037,154.394c3.72,0,6.732,3.014,6.732,6.732
	s-3.014,6.732-6.732,6.732c-3.718,0-6.73-3.014-6.73-6.732S703.319,154.394,707.037,154.394z M763.607,219.858
	c-3.722,0-6.731-3.014-6.731-6.732s3.016-6.732,6.731-6.732s6.729,3.014,6.729,6.732S767.326,219.858,763.607,219.858z
	 M763.607,167.858c-3.722,0-6.731-3.014-6.731-6.732s3.016-6.732,6.731-6.732s6.729,3.014,6.729,6.732
	S767.326,167.858,763.607,167.858z M820.177,206.394c3.718,0,6.73,3.014,6.73,6.732s-3.014,6.732-6.73,6.732
	c-3.718,0-6.732-3.014-6.732-6.732S816.461,206.394,820.177,206.394z M820.177,154.394c3.718,0,6.73,3.014,6.73,6.732
	s-3.014,6.732-6.73,6.732c-3.718,0-6.732-3.014-6.732-6.732S816.461,154.394,820.177,154.394z M820.177,102.394
	c3.718,0,6.73,3.014,6.73,6.732s-3.014,6.732-6.73,6.732c-3.718,0-6.732-3.014-6.732-6.732S816.461,102.394,820.177,102.394z
	 M876.748,206.394c3.72,0,6.732,3.014,6.732,6.732s-3.014,6.732-6.732,6.732c-3.718,0-6.73-3.014-6.73-6.732
	S873.03,206.394,876.748,206.394z M876.748,154.394c3.72,0,6.732,3.014,6.732,6.732s-3.014,6.732-6.732,6.732
	c-3.718,0-6.73-3.014-6.73-6.732S873.03,154.394,876.748,154.394z M876.748,102.394c3.72,0,6.732,3.014,6.732,6.732
	s-3.014,6.732-6.732,6.732c-3.718,0-6.73-3.014-6.73-6.732S873.03,102.394,876.748,102.394z M933.318,219.858
	c-3.722,0-6.729-3.014-6.729-6.732s3.014-6.732,6.729-6.732s6.729,3.014,6.729,6.732S937.037,219.858,933.318,219.858z
	 M933.318,167.858c-3.722,0-6.729-3.014-6.729-6.732s3.014-6.732,6.729-6.732s6.729,3.014,6.729,6.732
	S937.037,167.858,933.318,167.858z M933.318,115.858c-3.722,0-6.729-3.014-6.729-6.732s3.014-6.732,6.729-6.732
	s6.729,3.014,6.729,6.732S937.037,115.858,933.318,115.858z M933.318,63.858c-3.722,0-6.729-3.014-6.729-6.732
	s3.014-6.732,6.729-6.732s6.729,3.014,6.729,6.732S937.037,63.858,933.318,63.858z M989.888,271.858
	c-3.719,0-6.729-3.014-6.729-6.732s3.017-6.732,6.729-6.732c3.721,0,6.729,3.014,6.729,6.732S993.607,271.858,989.888,271.858z
	 M989.888,219.858c-3.719,0-6.729-3.014-6.729-6.732s3.017-6.732,6.729-6.732c3.721,0,6.729,3.014,6.729,6.732
	S993.607,219.858,989.888,219.858z M989.888,167.858c-3.719,0-6.729-3.014-6.729-6.732s3.017-6.732,6.729-6.732
	c3.721,0,6.729,3.014,6.729,6.732S993.607,167.858,989.888,167.858z M989.888,115.858c-3.719,0-6.729-3.014-6.729-6.732
	s3.017-6.732,6.729-6.732c3.721,0,6.729,3.014,6.729,6.732S993.607,115.858,989.888,115.858z M989.888,63.858
	c-3.719,0-6.729-3.014-6.729-6.732s3.017-6.732,6.729-6.732c3.721,0,6.729,3.014,6.729,6.732S993.607,63.858,989.888,63.858z
	 M1046.458,310.394c3.72,0,6.732,3.014,6.732,6.732s-3.014,6.732-6.732,6.732c-3.718,0-6.73-3.014-6.73-6.732
	S1042.74,310.394,1046.458,310.394z M1046.458,258.394c3.72,0,6.732,3.014,6.732,6.732s-3.014,6.732-6.732,6.732
	c-3.718,0-6.73-3.014-6.73-6.732S1042.74,258.394,1046.458,258.394z M1046.458,206.394c3.72,0,6.732,3.014,6.732,6.732
	s-3.014,6.732-6.732,6.732c-3.718,0-6.73-3.014-6.73-6.732S1042.74,206.394,1046.458,206.394z M1046.458,154.394
	c3.72,0,6.732,3.014,6.732,6.732s-3.014,6.732-6.732,6.732c-3.718,0-6.73-3.014-6.73-6.732S1042.74,154.394,1046.458,154.394z
	 M1046.458,102.394c3.72,0,6.732,3.014,6.732,6.732s-3.014,6.732-6.732,6.732c-3.718,0-6.73-3.014-6.73-6.732
	S1042.74,102.394,1046.458,102.394z M1046.458,50.394c3.72,0,6.732,3.014,6.732,6.732s-3.014,6.732-6.732,6.732
	c-3.718,0-6.73-3.014-6.73-6.732S1042.74,50.394,1046.458,50.394z M1103.029,310.394c3.718,0,6.732,3.014,6.732,6.732
	s-3.015,6.732-6.732,6.732c-3.717,0-6.73-3.014-6.73-6.732S1099.311,310.394,1103.029,310.394z M1103.029,258.394
	c3.718,0,6.732,3.014,6.732,6.732s-3.015,6.732-6.732,6.732c-3.717,0-6.73-3.014-6.73-6.732S1099.311,258.394,1103.029,258.394z
	 M1103.029,206.394c3.718,0,6.732,3.014,6.732,6.732s-3.015,6.732-6.732,6.732c-3.717,0-6.73-3.014-6.73-6.732
	S1099.311,206.394,1103.029,206.394z M1103.029,154.394c3.718,0,6.732,3.014,6.732,6.732s-3.015,6.732-6.732,6.732
	c-3.717,0-6.73-3.014-6.73-6.732S1099.311,154.394,1103.029,154.394z M1103.029,102.394c3.718,0,6.732,3.014,6.732,6.732
	s-3.015,6.732-6.732,6.732c-3.717,0-6.73-3.014-6.73-6.732S1099.311,102.394,1103.029,102.394z M1159.599,375.858
	c-3.719,0-6.729-3.016-6.729-6.732s3.017-6.732,6.729-6.732c3.721,0,6.729,3.016,6.729,6.732S1163.318,375.858,1159.599,375.858z
	 M1159.599,323.858c-3.719,0-6.729-3.016-6.729-6.732s3.017-6.732,6.729-6.732c3.721,0,6.729,3.016,6.729,6.732
	S1163.318,323.858,1159.599,323.858z M1159.599,271.858c-3.719,0-6.729-3.014-6.729-6.732s3.017-6.732,6.729-6.732
	c3.721,0,6.729,3.014,6.729,6.732S1163.318,271.858,1159.599,271.858z M1159.599,219.858c-3.719,0-6.729-3.014-6.729-6.732
	s3.017-6.732,6.729-6.732c3.721,0,6.729,3.014,6.729,6.732S1163.318,219.858,1159.599,219.858z M1159.599,167.858
	c-3.719,0-6.729-3.014-6.729-6.732s3.017-6.732,6.729-6.732c3.721,0,6.729,3.014,6.729,6.732S1163.318,167.858,1159.599,167.858z
	 M1216.169,362.394c3.72,0,6.732,3.014,6.732,6.732s-3.014,6.732-6.732,6.732c-3.718,0-6.73-3.014-6.73-6.732
	S1212.451,362.394,1216.169,362.394z M1216.169,310.394c3.72,0,6.732,3.014,6.732,6.732s-3.014,6.732-6.732,6.732
	c-3.718,0-6.73-3.014-6.73-6.732S1212.451,310.394,1216.169,310.394z M1216.169,258.394c3.72,0,6.732,3.014,6.732,6.732
	s-3.014,6.732-6.732,6.732c-3.718,0-6.73-3.014-6.73-6.732S1212.451,258.394,1216.169,258.394z M1216.169,206.394
	c3.72,0,6.732,3.014,6.732,6.732s-3.014,6.732-6.732,6.732c-3.718,0-6.73-3.014-6.73-6.732S1212.451,206.394,1216.169,206.394z
	 M1272.74,414.394c3.718,0,6.732,3.016,6.732,6.732s-3.015,6.732-6.732,6.732c-3.717,0-6.73-3.016-6.73-6.732
	S1269.022,414.394,1272.74,414.394z M1272.74,362.394c3.718,0,6.732,3.014,6.732,6.732s-3.015,6.732-6.732,6.732
	c-3.717,0-6.73-3.014-6.73-6.732S1269.022,362.394,1272.74,362.394z M1272.74,310.394c3.718,0,6.732,3.014,6.732,6.732
	s-3.015,6.732-6.732,6.732c-3.717,0-6.73-3.014-6.73-6.732S1269.022,310.394,1272.74,310.394z M1272.74,258.394
	c3.718,0,6.732,3.014,6.732,6.732s-3.015,6.732-6.732,6.732c-3.717,0-6.73-3.014-6.73-6.732S1269.022,258.394,1272.74,258.394z
	 M1329.311,414.394c3.718,0,6.732,3.016,6.732,6.732s-3.016,6.732-6.732,6.732s-6.732-3.016-6.732-6.732
	S1325.594,414.394,1329.311,414.394z M1329.311,362.394c3.718,0,6.732,3.014,6.732,6.732s-3.016,6.732-6.732,6.732
	s-6.732-3.014-6.732-6.732S1325.594,362.394,1329.311,362.394z M1329.311,310.394c3.718,0,6.732,3.014,6.732,6.732
	s-3.016,6.732-6.732,6.732s-6.732-3.014-6.732-6.732S1325.594,310.394,1329.311,310.394z M1329.311,258.394
	c3.718,0,6.732,3.014,6.732,6.732s-3.016,6.732-6.732,6.732s-6.732-3.014-6.732-6.732S1325.594,258.394,1329.311,258.394z
	 M1385.883,414.394c3.718,0,6.73,3.016,6.73,6.732s-3.014,6.732-6.73,6.732c-3.72,0-6.732-3.016-6.732-6.732
	S1382.163,414.394,1385.883,414.394z M1385.883,362.394c3.718,0,6.73,3.014,6.73,6.732s-3.014,6.732-6.73,6.732
	c-3.72,0-6.732-3.014-6.732-6.732S1382.163,362.394,1385.883,362.394z M1385.883,310.394c3.718,0,6.73,3.014,6.73,6.732
	s-3.014,6.732-6.73,6.732c-3.72,0-6.732-3.014-6.732-6.732S1382.163,310.394,1385.883,310.394z M1442.451,362.394
	c3.72,0,6.732,3.014,6.732,6.732s-3.014,6.732-6.732,6.732c-3.718,0-6.73-3.014-6.73-6.732S1438.733,362.394,1442.451,362.394z
	 M84.763,726.394c3.718,0,6.73,3.016,6.73,6.732s-3.014,6.732-6.73,6.732c-3.72,0-6.732-3.016-6.732-6.732
	S81.045,726.394,84.763,726.394z M84.763,674.394c3.718,0,6.73,3.016,6.73,6.732s-3.014,6.732-6.73,6.732
	c-3.72,0-6.732-3.016-6.732-6.732S81.045,674.394,84.763,674.394z M84.763,622.394c3.718,0,6.73,3.016,6.73,6.732
	s-3.014,6.732-6.73,6.732c-3.72,0-6.732-3.016-6.732-6.732S81.045,622.394,84.763,622.394z M141.334,726.394
	c3.719,0,6.732,3.016,6.732,6.732s-3.016,6.732-6.732,6.732s-6.73-3.016-6.73-6.732S137.616,726.394,141.334,726.394z
	 M141.334,674.394c3.719,0,6.732,3.016,6.732,6.732s-3.016,6.732-6.732,6.732s-6.73-3.016-6.73-6.732
	S137.616,674.394,141.334,674.394z M141.334,622.394c3.719,0,6.732,3.016,6.732,6.732s-3.016,6.732-6.732,6.732
	s-6.73-3.016-6.73-6.732S137.616,622.394,141.334,622.394z M141.334,570.394c3.719,0,6.732,3.016,6.732,6.732
	s-3.016,6.732-6.732,6.732s-6.73-3.016-6.73-6.732S137.616,570.394,141.334,570.394z M141.334,518.394
	c3.719,0,6.732,3.016,6.732,6.732s-3.016,6.732-6.732,6.732s-6.73-3.016-6.73-6.732S137.616,518.394,141.334,518.394z
	 M197.904,674.394c3.718,0,6.732,3.016,6.732,6.732s-3.016,6.732-6.732,6.732s-6.732-3.016-6.732-6.732
	S194.186,674.394,197.904,674.394z M197.904,622.394c3.718,0,6.732,3.016,6.732,6.732s-3.016,6.732-6.732,6.732
	s-6.732-3.016-6.732-6.732S194.186,622.394,197.904,622.394z M197.904,570.394c3.718,0,6.732,3.016,6.732,6.732
	s-3.016,6.732-6.732,6.732s-6.732-3.016-6.732-6.732S194.186,570.394,197.904,570.394z M197.904,518.394
	c3.718,0,6.732,3.016,6.732,6.732s-3.016,6.732-6.732,6.732s-6.732-3.016-6.732-6.732S194.186,518.394,197.904,518.394z
	 M197.904,466.394c3.718,0,6.732,3.016,6.732,6.732s-3.016,6.732-6.732,6.732s-6.732-3.016-6.732-6.732
	S194.186,466.394,197.904,466.394z M254.475,674.394c3.718,0,6.73,3.016,6.73,6.732s-3.014,6.732-6.73,6.732
	c-3.72,0-6.732-3.016-6.732-6.732S250.757,674.394,254.475,674.394z M254.475,622.394c3.718,0,6.73,3.016,6.73,6.732
	s-3.014,6.732-6.73,6.732c-3.72,0-6.732-3.016-6.732-6.732S250.757,622.394,254.475,622.394z M254.475,570.394
	c3.718,0,6.73,3.016,6.73,6.732s-3.014,6.732-6.73,6.732c-3.72,0-6.732-3.016-6.732-6.732S250.757,570.394,254.475,570.394z
	 M254.475,518.394c3.718,0,6.73,3.016,6.73,6.732s-3.014,6.732-6.73,6.732c-3.72,0-6.732-3.016-6.732-6.732
	S250.757,518.394,254.475,518.394z M254.475,466.394c3.718,0,6.73,3.016,6.73,6.732s-3.014,6.732-6.73,6.732
	c-3.72,0-6.732-3.016-6.732-6.732S250.757,466.394,254.475,466.394z M254.475,414.394c3.718,0,6.73,3.016,6.73,6.732
	s-3.014,6.732-6.73,6.732c-3.72,0-6.732-3.016-6.732-6.732S250.757,414.394,254.475,414.394z M311.048,674.394
	c3.718,0,6.73,3.016,6.73,6.732s-3.014,6.732-6.73,6.732c-3.72,0-6.732-3.016-6.732-6.732S307.328,674.394,311.048,674.394z
	 M311.048,622.394c3.718,0,6.73,3.016,6.73,6.732s-3.014,6.732-6.73,6.732c-3.72,0-6.732-3.016-6.732-6.732
	S307.328,622.394,311.048,622.394z M311.048,570.394c3.718,0,6.73,3.016,6.73,6.732s-3.014,6.732-6.73,6.732
	c-3.72,0-6.732-3.016-6.732-6.732S307.328,570.394,311.048,570.394z M311.048,518.394c3.718,0,6.73,3.016,6.73,6.732
	s-3.014,6.732-6.73,6.732c-3.72,0-6.732-3.016-6.732-6.732S307.328,518.394,311.048,518.394z M311.048,466.394
	c3.718,0,6.73,3.016,6.73,6.732s-3.014,6.732-6.73,6.732c-3.72,0-6.732-3.016-6.732-6.732S307.328,466.394,311.048,466.394z
	 M311.048,414.394c3.718,0,6.73,3.016,6.73,6.732s-3.014,6.732-6.73,6.732c-3.72,0-6.732-3.016-6.732-6.732
	S307.328,414.394,311.048,414.394z M311.048,362.394c3.718,0,6.73,3.014,6.73,6.732s-3.014,6.732-6.73,6.732
	c-3.72,0-6.732-3.014-6.732-6.732S307.328,362.394,311.048,362.394z M367.615,674.394c3.718,0,6.732,3.016,6.732,6.732
	s-3.016,6.732-6.732,6.732s-6.73-3.016-6.73-6.732S363.897,674.394,367.615,674.394z M367.615,622.394
	c3.718,0,6.732,3.016,6.732,6.732s-3.016,6.732-6.732,6.732s-6.73-3.016-6.73-6.732S363.897,622.394,367.615,622.394z
	 M367.615,570.394c3.718,0,6.732,3.016,6.732,6.732s-3.016,6.732-6.732,6.732s-6.73-3.016-6.73-6.732
	S363.897,570.394,367.615,570.394z M367.615,518.394c3.718,0,6.732,3.016,6.732,6.732s-3.016,6.732-6.732,6.732
	s-6.73-3.016-6.73-6.732S363.897,518.394,367.615,518.394z M367.615,466.394c3.718,0,6.732,3.016,6.732,6.732
	s-3.016,6.732-6.732,6.732s-6.73-3.016-6.73-6.732S363.897,466.394,367.615,466.394z M367.615,414.394
	c3.718,0,6.732,3.016,6.732,6.732s-3.016,6.732-6.732,6.732s-6.73-3.016-6.73-6.732S363.897,414.394,367.615,414.394z
	 M367.615,362.394c3.718,0,6.732,3.014,6.732,6.732s-3.016,6.732-6.732,6.732s-6.73-3.014-6.73-6.732
	S363.897,362.394,367.615,362.394z M367.615,310.394c3.718,0,6.732,3.014,6.732,6.732s-3.016,6.732-6.732,6.732
	s-6.73-3.014-6.73-6.732S363.897,310.394,367.615,310.394z M707.037,622.394c3.72,0,6.732,3.016,6.732,6.732
	s-3.014,6.732-6.732,6.732c-3.718,0-6.73-3.016-6.73-6.732S703.319,622.394,707.037,622.394z M424.186,687.858
	c-3.719,0-6.729-3.02-6.729-6.732s3.017-6.732,6.729-6.732c3.721,0,6.732,3.02,6.732,6.732S427.904,687.858,424.186,687.858z
	 M424.186,635.858c-3.719,0-6.729-3.02-6.729-6.732s3.017-6.732,6.729-6.732c3.721,0,6.732,3.02,6.732,6.732
	S427.904,635.858,424.186,635.858z M424.186,583.858c-3.719,0-6.729-3.02-6.729-6.732s3.017-6.732,6.729-6.732
	c3.721,0,6.732,3.02,6.732,6.732S427.904,583.858,424.186,583.858z M424.186,531.858c-3.719,0-6.729-3.02-6.729-6.732
	s3.017-6.732,6.729-6.732c3.721,0,6.732,3.02,6.732,6.732S427.904,531.858,424.186,531.858z M424.186,479.858
	c-3.719,0-6.729-3.02-6.729-6.732s3.017-6.732,6.729-6.732c3.721,0,6.732,3.02,6.732,6.732S427.904,479.858,424.186,479.858z
	 M424.186,427.858c-3.719,0-6.729-3.02-6.729-6.732s3.017-6.732,6.729-6.732c3.721,0,6.732,3.02,6.732,6.732
	S427.904,427.858,424.186,427.858z M424.186,375.858c-3.719,0-6.729-3.016-6.729-6.732s3.017-6.732,6.729-6.732
	c3.721,0,6.732,3.016,6.732,6.732S427.904,375.858,424.186,375.858z M424.186,323.858c-3.719,0-6.729-3.016-6.729-6.732
	s3.017-6.732,6.729-6.732c3.721,0,6.732,3.016,6.732,6.732S427.904,323.858,424.186,323.858z M424.186,271.858
	c-3.719,0-6.729-3.014-6.729-6.732s3.017-6.732,6.729-6.732c3.721,0,6.732,3.014,6.732,6.732S427.904,271.858,424.186,271.858z
	 M480.759,622.394c3.718,0,6.73,3.016,6.73,6.732s-3.014,6.732-6.73,6.732c-3.72,0-6.732-3.016-6.732-6.732
	S477.039,622.394,480.759,622.394z M480.759,570.394c3.718,0,6.73,3.016,6.73,6.732s-3.014,6.732-6.73,6.732
	c-3.72,0-6.732-3.016-6.732-6.732S477.039,570.394,480.759,570.394z M480.759,518.394c3.718,0,6.73,3.016,6.73,6.732
	s-3.014,6.732-6.73,6.732c-3.72,0-6.732-3.016-6.732-6.732S477.039,518.394,480.759,518.394z M480.759,466.394
	c3.718,0,6.73,3.016,6.73,6.732s-3.014,6.732-6.73,6.732c-3.72,0-6.732-3.016-6.732-6.732S477.039,466.394,480.759,466.394z
	 M480.759,414.394c3.718,0,6.73,3.016,6.73,6.732s-3.014,6.732-6.73,6.732c-3.72,0-6.732-3.016-6.732-6.732
	S477.039,414.394,480.759,414.394z M480.759,362.394c3.718,0,6.73,3.014,6.73,6.732s-3.014,6.732-6.73,6.732
	c-3.72,0-6.732-3.014-6.732-6.732S477.039,362.394,480.759,362.394z M480.759,310.394c3.718,0,6.73,3.014,6.73,6.732
	s-3.014,6.732-6.73,6.732c-3.72,0-6.732-3.014-6.732-6.732S477.039,310.394,480.759,310.394z M480.759,258.394
	c3.718,0,6.73,3.014,6.73,6.732s-3.014,6.732-6.73,6.732c-3.72,0-6.732-3.014-6.732-6.732S477.039,258.394,480.759,258.394z
	 M537.326,622.394c3.719,0,6.732,3.016,6.732,6.732s-3.015,6.732-6.732,6.732c-3.717,0-6.73-3.016-6.73-6.732
	S533.608,622.394,537.326,622.394z M537.326,570.394c3.719,0,6.732,3.016,6.732,6.732s-3.015,6.732-6.732,6.732
	c-3.717,0-6.73-3.016-6.73-6.732S533.608,570.394,537.326,570.394z M537.326,518.394c3.719,0,6.732,3.016,6.732,6.732
	s-3.015,6.732-6.732,6.732c-3.717,0-6.73-3.016-6.73-6.732S533.608,518.394,537.326,518.394z M537.326,466.394
	c3.719,0,6.732,3.016,6.732,6.732s-3.015,6.732-6.732,6.732c-3.717,0-6.73-3.016-6.73-6.732S533.608,466.394,537.326,466.394z
	 M537.326,414.394c3.719,0,6.732,3.016,6.732,6.732s-3.015,6.732-6.732,6.732c-3.717,0-6.73-3.016-6.73-6.732
	S533.608,414.394,537.326,414.394z M537.326,362.394c3.719,0,6.732,3.014,6.732,6.732s-3.015,6.732-6.732,6.732
	c-3.717,0-6.73-3.014-6.73-6.732S533.608,362.394,537.326,362.394z M537.326,310.394c3.719,0,6.732,3.014,6.732,6.732
	s-3.015,6.732-6.732,6.732c-3.717,0-6.73-3.014-6.73-6.732S533.608,310.394,537.326,310.394z M537.326,258.394
	c3.719,0,6.732,3.014,6.732,6.732s-3.015,6.732-6.732,6.732c-3.717,0-6.73-3.014-6.73-6.732S533.608,258.394,537.326,258.394z
	 M593.896,635.858c-3.722,0-6.732-3.02-6.732-6.732s3.017-6.732,6.732-6.732s6.729,3.02,6.729,6.732
	S597.615,635.858,593.896,635.858z M593.896,583.858c-3.722,0-6.732-3.02-6.732-6.732s3.017-6.732,6.732-6.732
	s6.729,3.02,6.729,6.732S597.615,583.858,593.896,583.858z M593.896,531.858c-3.722,0-6.732-3.02-6.732-6.732
	s3.017-6.732,6.732-6.732s6.729,3.02,6.729,6.732S597.615,531.858,593.896,531.858z M593.896,479.858
	c-3.722,0-6.732-3.02-6.732-6.732s3.017-6.732,6.732-6.732s6.729,3.02,6.729,6.732S597.615,479.858,593.896,479.858z
	 M593.896,427.858c-3.722,0-6.732-3.02-6.732-6.732s3.017-6.732,6.732-6.732s6.729,3.02,6.729,6.732
	S597.615,427.858,593.896,427.858z M593.896,375.858c-3.722,0-6.732-3.016-6.732-6.732s3.017-6.732,6.732-6.732
	s6.729,3.016,6.729,6.732S597.615,375.858,593.896,375.858z M593.896,323.858c-3.722,0-6.732-3.016-6.732-6.732
	s3.017-6.732,6.732-6.732s6.729,3.016,6.729,6.732S597.615,323.858,593.896,323.858z M593.896,271.858
	c-3.722,0-6.732-3.014-6.732-6.732s3.017-6.732,6.732-6.732s6.729,3.014,6.729,6.732S597.615,271.858,593.896,271.858z
	 M650.469,622.394c3.718,0,6.73,3.016,6.73,6.732s-3.014,6.732-6.73,6.732s-6.732-3.016-6.732-6.732
	S646.751,622.394,650.469,622.394z M650.469,518.394c3.718,0,6.73,3.016,6.73,6.732s-3.014,6.732-6.73,6.732
	s-6.732-3.016-6.732-6.732S646.751,518.394,650.469,518.394z M650.469,466.394c3.718,0,6.73,3.016,6.73,6.732
	s-3.014,6.732-6.73,6.732s-6.732-3.016-6.732-6.732S646.751,466.394,650.469,466.394z M650.469,414.394
	c3.718,0,6.73,3.016,6.73,6.732s-3.014,6.732-6.73,6.732s-6.732-3.016-6.732-6.732S646.751,414.394,650.469,414.394z
	 M650.469,362.394c3.718,0,6.73,3.014,6.73,6.732s-3.014,6.732-6.73,6.732s-6.732-3.014-6.732-6.732
	S646.751,362.394,650.469,362.394z M650.469,310.394c3.718,0,6.73,3.014,6.73,6.732s-3.014,6.732-6.73,6.732
	s-6.732-3.014-6.732-6.732S646.751,310.394,650.469,310.394z M650.469,258.394c3.718,0,6.73,3.014,6.73,6.732
	s-3.014,6.732-6.73,6.732s-6.732-3.014-6.732-6.732S646.751,258.394,650.469,258.394z M707.037,518.394
	c3.72,0,6.732,3.016,6.732,6.732s-3.014,6.732-6.732,6.732c-3.718,0-6.73-3.016-6.73-6.732S703.319,518.394,707.037,518.394z
	 M707.037,466.394c3.72,0,6.732,3.016,6.732,6.732s-3.014,6.732-6.732,6.732c-3.718,0-6.73-3.016-6.73-6.732
	S703.319,466.394,707.037,466.394z M707.037,414.394c3.72,0,6.732,3.016,6.732,6.732s-3.014,6.732-6.732,6.732
	c-3.718,0-6.73-3.016-6.73-6.732S703.319,414.394,707.037,414.394z M707.037,362.394c3.72,0,6.732,3.014,6.732,6.732
	s-3.014,6.732-6.732,6.732c-3.718,0-6.73-3.014-6.73-6.732S703.319,362.394,707.037,362.394z M707.037,310.394
	c3.72,0,6.732,3.014,6.732,6.732s-3.014,6.732-6.732,6.732c-3.718,0-6.73-3.014-6.73-6.732S703.319,310.394,707.037,310.394z
	 M707.037,258.394c3.72,0,6.732,3.014,6.732,6.732s-3.014,6.732-6.732,6.732c-3.718,0-6.73-3.014-6.73-6.732
	S703.319,258.394,707.037,258.394z M763.607,531.858c-3.722,0-6.731-3.02-6.731-6.732s3.016-6.732,6.731-6.732
	s6.729,3.02,6.729,6.732S767.326,531.858,763.607,531.858z M763.607,479.858c-3.722,0-6.731-3.02-6.731-6.732
	s3.016-6.732,6.731-6.732s6.729,3.02,6.729,6.732S767.326,479.858,763.607,479.858z M763.607,427.858
	c-3.722,0-6.731-3.02-6.731-6.732s3.016-6.732,6.731-6.732s6.729,3.02,6.729,6.732S767.326,427.858,763.607,427.858z
	 M763.607,375.858c-3.722,0-6.731-3.016-6.731-6.732s3.016-6.732,6.731-6.732s6.729,3.016,6.729,6.732
	S767.326,375.858,763.607,375.858z M763.607,323.858c-3.722,0-6.731-3.016-6.731-6.732s3.016-6.732,6.731-6.732
	s6.729,3.016,6.729,6.732S767.326,323.858,763.607,323.858z M763.607,271.858c-3.722,0-6.731-3.014-6.731-6.732
	s3.016-6.732,6.731-6.732s6.729,3.014,6.729,6.732S767.326,271.858,763.607,271.858z M820.177,570.394
	c3.718,0,6.73,3.016,6.73,6.732s-3.014,6.732-6.73,6.732c-3.718,0-6.732-3.016-6.732-6.732S816.461,570.394,820.177,570.394z
	 M820.177,518.394c3.718,0,6.73,3.016,6.73,6.732s-3.014,6.732-6.73,6.732c-3.718,0-6.732-3.016-6.732-6.732
	S816.461,518.394,820.177,518.394z M820.177,466.394c3.718,0,6.73,3.016,6.73,6.732s-3.014,6.732-6.73,6.732
	c-3.718,0-6.732-3.016-6.732-6.732S816.461,466.394,820.177,466.394z M820.177,414.394c3.718,0,6.73,3.016,6.73,6.732
	s-3.014,6.732-6.73,6.732c-3.718,0-6.732-3.016-6.732-6.732S816.461,414.394,820.177,414.394z M820.177,362.394
	c3.718,0,6.73,3.014,6.73,6.732s-3.014,6.732-6.73,6.732c-3.718,0-6.732-3.014-6.732-6.732S816.461,362.394,820.177,362.394z
	 M820.177,310.394c3.718,0,6.73,3.014,6.73,6.732s-3.014,6.732-6.73,6.732c-3.718,0-6.732-3.014-6.732-6.732
	S816.461,310.394,820.177,310.394z M876.748,570.394c3.72,0,6.732,3.016,6.732,6.732s-3.014,6.732-6.732,6.732
	c-3.718,0-6.73-3.016-6.73-6.732S873.03,570.394,876.748,570.394z M876.748,518.394c3.72,0,6.732,3.016,6.732,6.732
	s-3.014,6.732-6.732,6.732c-3.718,0-6.73-3.016-6.73-6.732S873.03,518.394,876.748,518.394z M876.748,466.394
	c3.72,0,6.732,3.016,6.732,6.732s-3.014,6.732-6.732,6.732c-3.718,0-6.73-3.016-6.73-6.732S873.03,466.394,876.748,466.394z
	 M876.748,414.394c3.72,0,6.732,3.016,6.732,6.732s-3.014,6.732-6.732,6.732c-3.718,0-6.73-3.016-6.73-6.732
	S873.03,414.394,876.748,414.394z M876.748,362.394c3.72,0,6.732,3.014,6.732,6.732s-3.014,6.732-6.732,6.732
	c-3.718,0-6.73-3.014-6.73-6.732S873.03,362.394,876.748,362.394z M876.748,310.394c3.72,0,6.732,3.014,6.732,6.732
	s-3.014,6.732-6.732,6.732c-3.718,0-6.73-3.014-6.73-6.732S873.03,310.394,876.748,310.394z M933.318,583.858
	c-3.722,0-6.729-3.02-6.729-6.732s3.014-6.732,6.729-6.732s6.729,3.02,6.729,6.732S937.037,583.858,933.318,583.858z
	 M933.318,531.858c-3.722,0-6.729-3.02-6.729-6.732s3.014-6.732,6.729-6.732s6.729,3.02,6.729,6.732
	S937.037,531.858,933.318,531.858z M933.318,479.858c-3.722,0-6.729-3.02-6.729-6.732s3.014-6.732,6.729-6.732
	s6.729,3.02,6.729,6.732S937.037,479.858,933.318,479.858z M933.318,427.858c-3.722,0-6.729-3.02-6.729-6.732
	s3.014-6.732,6.729-6.732s6.729,3.02,6.729,6.732S937.037,427.858,933.318,427.858z M933.318,375.858
	c-3.722,0-6.729-3.016-6.729-6.732s3.014-6.732,6.729-6.732s6.729,3.016,6.729,6.732S937.037,375.858,933.318,375.858z
	 M933.318,323.858c-3.722,0-6.729-3.016-6.729-6.732s3.014-6.732,6.729-6.732s6.729,3.016,6.729,6.732
	S937.037,323.858,933.318,323.858z M989.888,635.858c-3.719,0-6.729-3.02-6.729-6.732s3.017-6.732,6.729-6.732
	c3.721,0,6.729,3.02,6.729,6.732S993.607,635.858,989.888,635.858z M989.888,583.858c-3.719,0-6.729-3.02-6.729-6.732
	s3.017-6.732,6.729-6.732c3.721,0,6.729,3.02,6.729,6.732S993.607,583.858,989.888,583.858z M989.888,531.858
	c-3.719,0-6.729-3.02-6.729-6.732s3.017-6.732,6.729-6.732c3.721,0,6.729,3.02,6.729,6.732S993.607,531.858,989.888,531.858z
	 M989.888,479.858c-3.719,0-6.729-3.02-6.729-6.732s3.017-6.732,6.729-6.732c3.721,0,6.729,3.02,6.729,6.732
	S993.607,479.858,989.888,479.858z M989.888,427.858c-3.719,0-6.729-3.02-6.729-6.732s3.017-6.732,6.729-6.732
	c3.721,0,6.729,3.02,6.729,6.732S993.607,427.858,989.888,427.858z M989.888,375.858c-3.719,0-6.729-3.016-6.729-6.732
	s3.017-6.732,6.729-6.732c3.721,0,6.729,3.016,6.729,6.732S993.607,375.858,989.888,375.858z M1046.458,622.394
	c3.72,0,6.732,3.016,6.732,6.732s-3.014,6.732-6.732,6.732c-3.718,0-6.73-3.016-6.73-6.732S1042.74,622.394,1046.458,622.394z
	 M1046.458,570.394c3.72,0,6.732,3.016,6.732,6.732s-3.014,6.732-6.732,6.732c-3.718,0-6.73-3.016-6.73-6.732
	S1042.74,570.394,1046.458,570.394z M1046.458,518.394c3.72,0,6.732,3.016,6.732,6.732s-3.014,6.732-6.732,6.732
	c-3.718,0-6.73-3.016-6.73-6.732S1042.74,518.394,1046.458,518.394z M1046.458,466.394c3.72,0,6.732,3.016,6.732,6.732
	s-3.014,6.732-6.732,6.732c-3.718,0-6.73-3.016-6.73-6.732S1042.74,466.394,1046.458,466.394z M1046.458,414.394
	c3.72,0,6.732,3.016,6.732,6.732s-3.014,6.732-6.732,6.732c-3.718,0-6.73-3.016-6.73-6.732S1042.74,414.394,1046.458,414.394z
	 M1046.458,362.394c3.72,0,6.732,3.014,6.732,6.732s-3.014,6.732-6.732,6.732c-3.718,0-6.73-3.014-6.73-6.732
	S1042.74,362.394,1046.458,362.394z M1103.029,674.394c3.718,0,6.732,3.016,6.732,6.732s-3.015,6.732-6.732,6.732
	c-3.717,0-6.73-3.016-6.73-6.732S1099.311,674.394,1103.029,674.394z M1103.029,622.394c3.718,0,6.732,3.016,6.732,6.732
	s-3.015,6.732-6.732,6.732c-3.717,0-6.73-3.016-6.73-6.732S1099.311,622.394,1103.029,622.394z M1103.029,570.394
	c3.718,0,6.732,3.016,6.732,6.732s-3.015,6.732-6.732,6.732c-3.717,0-6.73-3.016-6.73-6.732S1099.311,570.394,1103.029,570.394z
	 M1103.029,518.394c3.718,0,6.732,3.016,6.732,6.732s-3.015,6.732-6.732,6.732c-3.717,0-6.73-3.016-6.73-6.732
	S1099.311,518.394,1103.029,518.394z M1103.029,466.394c3.718,0,6.732,3.016,6.732,6.732s-3.015,6.732-6.732,6.732
	c-3.717,0-6.73-3.016-6.73-6.732S1099.311,466.394,1103.029,466.394z M1103.029,414.394c3.718,0,6.732,3.016,6.732,6.732
	s-3.015,6.732-6.732,6.732c-3.717,0-6.73-3.016-6.73-6.732S1099.311,414.394,1103.029,414.394z M1159.599,687.858
	c-3.719,0-6.729-3.02-6.729-6.732s3.017-6.732,6.729-6.732c3.721,0,6.729,3.02,6.729,6.732S1163.318,687.858,1159.599,687.858z
	 M1159.599,635.858c-3.719,0-6.729-3.02-6.729-6.732s3.017-6.732,6.729-6.732c3.721,0,6.729,3.02,6.729,6.732
	S1163.318,635.858,1159.599,635.858z M1159.599,583.858c-3.719,0-6.729-3.02-6.729-6.732s3.017-6.732,6.729-6.732
	c3.721,0,6.729,3.02,6.729,6.732S1163.318,583.858,1159.599,583.858z M1159.599,531.858c-3.719,0-6.729-3.02-6.729-6.732
	s3.017-6.732,6.729-6.732c3.721,0,6.729,3.02,6.729,6.732S1163.318,531.858,1159.599,531.858z M1159.599,479.858
	c-3.719,0-6.729-3.02-6.729-6.732s3.017-6.732,6.729-6.732c3.721,0,6.729,3.02,6.729,6.732S1163.318,479.858,1159.599,479.858z
	 M1159.599,427.858c-3.719,0-6.729-3.02-6.729-6.732s3.017-6.732,6.729-6.732c3.721,0,6.729,3.02,6.729,6.732
	S1163.318,427.858,1159.599,427.858z M1216.169,674.394c3.72,0,6.732,3.016,6.732,6.732s-3.014,6.732-6.732,6.732
	c-3.718,0-6.73-3.016-6.73-6.732S1212.451,674.394,1216.169,674.394z M1216.169,622.394c3.72,0,6.732,3.016,6.732,6.732
	s-3.014,6.732-6.732,6.732c-3.718,0-6.73-3.016-6.73-6.732S1212.451,622.394,1216.169,622.394z M1216.169,570.394
	c3.72,0,6.732,3.016,6.732,6.732s-3.014,6.732-6.732,6.732c-3.718,0-6.73-3.016-6.73-6.732S1212.451,570.394,1216.169,570.394z
	 M1216.169,518.394c3.72,0,6.732,3.016,6.732,6.732s-3.014,6.732-6.732,6.732c-3.718,0-6.73-3.016-6.73-6.732
	S1212.451,518.394,1216.169,518.394z M1216.169,466.394c3.72,0,6.732,3.016,6.732,6.732s-3.014,6.732-6.732,6.732
	c-3.718,0-6.73-3.016-6.73-6.732S1212.451,466.394,1216.169,466.394z M1272.74,518.394c3.718,0,6.732,3.016,6.732,6.732
	s-3.015,6.732-6.732,6.732c-3.717,0-6.73-3.016-6.73-6.732S1269.022,518.394,1272.74,518.394z M1336.751,514.071
	c0-2.863-2.839-5.183-6.346-5.183l-10.49,10.28c-44.054,48.399-42.343,66.63-51.123,100.795
	c-8.781,34.164-6.082,116.485-4.048,132.187c2.036,15.694-19.055,5.277-19.055,5.277s-20.601-8.517-77.338-30.479
	c-56.738-21.961-158.738-63.687-234.729-90.315c-75.994-26.631-158.11-45.592-158.11-45.592
	c-70.331-13.408-99.432-7.206-99.432-7.206c-20.899,2.469-29.28,7.649-29.28,7.649c-8.756,8.064,6.168,9.239,6.168,9.239
	l43.169,7.358c44.125,5.643,70.992,19.743,70.992,19.743c8.933,7.76-6.951,11.241-6.951,11.241s1.854-0.133-28.054,3.763
	c-29.902,3.891-244.83,40.357-244.83,40.357s-191.147,40.238-247.489,52.517c-56.343,12.272-168.104,46.867-190.145,52.5
	c-22.042,5.632-31.205-0.319-44.264-4.562c-13.062-4.243,1.688-21.842,1.688-21.842s37.845-61.466,51.423-84.342
	c13.58-22.876-4.903-46.363-6.203-50.57c-1.299-4.207,3.56-13.604,3.56-13.604s3.225-5.104,35.65-51.68
	c32.427-46.58,98.098-126.031,98.098-126.031c96.686-123.64,183.708-188.965,202.75-205.643
	c10.896-9.542,21.591-11.891,28.75-12.153c4.803,0.001,8.688-7.882,8.688-17.625h-0.003c0.062-1.79,1.432-3.787,4.396-6.422
	c4.789-4.249,9.382-11.763,11.271-19.053c1.891-7.29-0.806-13.324-1.328-18.795c-0.525-5.47,5.479-10.333,5.479-10.333
	c8.127-7.411,62.205-49.142,78.71-59.608c16.505-10.467,25.938,4.165,25.938,4.165c3.894,9.188,15.846,18.817,15.846,18.817
	c28.488,24.742,72.562,30.909,72.562,30.909c35.548,7.764,92.812-15.986,92.812-15.986S1019.229,4.377,1027.667,0.898
	c8.438-3.479,14.953,4.263,14.953,4.263l43.143,36.598l157.626,131.946c0,0,213.683,174.417,222.06,181.813
	c8.378,7.399-2.539,16.837-2.54,16.838l-9.769,10.464c-27.992,29.501-88.711,106.15-88.711,106.15c0,3.275,1.688,5.929,3.773,5.929
	v-0.005c15.992,1.332,28.561,14.734,28.561,31.071c0,17.221-13.96,31.184-31.184,31.184c-17.221,0-31.181-13.963-31.181-31.184
	c0-4.213,0.836-8.229,2.351-11.896L1336.751,514.071z"/>
</svg>
