<?xml version="1.0" encoding="utf-8"?>
<!-- Generator: Adobe Illustrator 16.0.0, SVG Export Plug-In . SVG Version: 6.00 Build 0)  -->
<!DOCTYPE svg PUBLIC "-//W3C//DTD SVG 1.1//EN" "http://www.w3.org/Graphics/SVG/1.1/DTD/svg11.dtd">
<svg version="1.1" id="Layer_1" xmlns="http://www.w3.org/2000/svg" xmlns:xlink="http://www.w3.org/1999/xlink" x="0px" y="0px"
	 width="2866.936px" height="1491.941px" viewBox="0 0 2866.936 1491.941" enable-background="new 0 0 2866.936 1491.941"
	 xml:space="preserve">
<path fill="none" stroke="#000001" stroke-linejoin="round" stroke-miterlimit="10" d="M1450.39,1269.703
	c-12.483,30.736-47.284,45.639-77.704,33.279c-30.42-12.36-44.963-47.312-32.477-78.043c12.484-30.736,47.28-45.646,77.702-33.281
	C1448.334,1204.016,1462.877,1238.965,1450.39,1269.703z M480.757,168.351c3.718,0,6.73,3.014,6.73,6.732s-3.014,6.732-6.73,6.732
	c-3.72,0-6.732-3.014-6.732-6.732S477.037,168.351,480.757,168.351z M537.324,181.815c-3.719,0-6.729-3.014-6.729-6.732
	s3.018-6.732,6.729-6.732c3.717,0,6.729,3.014,6.729,6.732S541.046,181.815,537.324,181.815z M537.324,129.815
	c-3.719,0-6.729-3.014-6.729-6.732s3.018-6.732,6.729-6.732c3.717,0,6.729,3.014,6.729,6.732S541.046,129.815,537.324,129.815z
	 M593.896,181.815c-3.722,0-6.731-3.014-6.731-6.732s3.017-6.732,6.731-6.732c3.719,0,6.729,3.014,6.729,6.732
	S597.615,181.815,593.896,181.815z M650.468,220.351c3.718,0,6.73,3.014,6.73,6.732s-3.014,6.732-6.73,6.732
	c-3.718,0-6.732-3.014-6.732-6.732S646.75,220.351,650.468,220.351z M650.468,168.351c3.718,0,6.73,3.014,6.73,6.732
	s-3.014,6.732-6.73,6.732c-3.718,0-6.732-3.014-6.732-6.732S646.75,168.351,650.468,168.351z M707.035,233.815
	c-3.719,0-6.729-3.014-6.729-6.732s3.018-6.732,6.729-6.732c3.717,0,6.729,3.014,6.729,6.732S710.757,233.815,707.035,233.815z
	 M707.035,181.815c-3.719,0-6.729-3.014-6.729-6.732s3.018-6.732,6.729-6.732c3.717,0,6.729,3.014,6.729,6.732
	S710.757,181.815,707.035,181.815z M763.608,233.815c-3.723,0-6.732-3.014-6.732-6.732s3.017-6.732,6.732-6.732
	s6.729,3.014,6.729,6.732S767.324,233.815,763.608,233.815z M763.608,181.815c-3.723,0-6.732-3.014-6.732-6.732
	s3.017-6.732,6.732-6.732s6.729,3.014,6.729,6.732S767.324,181.815,763.608,181.815z M820.179,233.815
	c-3.719,0-6.729-3.014-6.729-6.732s3.017-6.732,6.729-6.732c3.721,0,6.729,3.014,6.729,6.732S823.896,233.815,820.179,233.815z
	 M820.179,181.815c-3.719,0-6.729-3.014-6.729-6.732s3.017-6.732,6.729-6.732c3.721,0,6.729,3.014,6.729,6.732
	S823.896,181.815,820.179,181.815z M820.179,129.815c-3.719,0-6.729-3.014-6.729-6.732s3.017-6.732,6.729-6.732
	c3.721,0,6.729,3.014,6.729,6.732S823.896,129.815,820.179,129.815z M876.746,233.815c-3.719,0-6.729-3.014-6.729-6.732
	s3.018-6.732,6.729-6.732c3.717,0,6.732,3.014,6.732,6.732S880.468,233.815,876.746,233.815z M876.746,181.815
	c-3.719,0-6.729-3.014-6.729-6.732s3.018-6.732,6.729-6.732c3.717,0,6.732,3.014,6.732,6.732S880.468,181.815,876.746,181.815z
	 M876.746,129.815c-3.719,0-6.729-3.014-6.729-6.732s3.018-6.732,6.729-6.732c3.717,0,6.732,3.014,6.732,6.732
	S880.468,129.815,876.746,129.815z M933.319,233.815c-3.723,0-6.729-3.014-6.729-6.732s3.014-6.732,6.729-6.732
	s6.729,3.014,6.729,6.732S937.035,233.815,933.319,233.815z M933.319,181.815c-3.723,0-6.729-3.014-6.729-6.732
	s3.014-6.732,6.729-6.732s6.729,3.014,6.729,6.732S937.035,181.815,933.319,181.815z M933.319,129.815
	c-3.723,0-6.729-3.014-6.729-6.732s3.014-6.732,6.729-6.732s6.729,3.014,6.729,6.732S937.035,129.815,933.319,129.815z
	 M933.319,77.815c-3.723,0-6.729-3.014-6.729-6.732s3.014-6.732,6.729-6.732s6.729,3.014,6.729,6.732S937.035,77.815,933.319,77.815
	z M989.89,285.815c-3.719,0-6.729-3.014-6.729-6.732s3.017-6.732,6.729-6.732c3.722,0,6.729,3.014,6.729,6.732
	S993.608,285.815,989.89,285.815z M989.89,233.815c-3.719,0-6.729-3.014-6.729-6.732s3.017-6.732,6.729-6.732
	c3.722,0,6.729,3.014,6.729,6.732S993.608,233.815,989.89,233.815z M989.89,181.815c-3.719,0-6.729-3.014-6.729-6.732
	s3.017-6.732,6.729-6.732c3.722,0,6.729,3.014,6.729,6.732S993.608,181.815,989.89,181.815z M989.89,129.815
	c-3.719,0-6.729-3.014-6.729-6.732s3.017-6.732,6.729-6.732c3.722,0,6.729,3.014,6.729,6.732S993.608,129.815,989.89,129.815z
	 M989.89,77.815c-3.719,0-6.729-3.014-6.729-6.732s3.017-6.732,6.729-6.732c3.722,0,6.729,3.014,6.729,6.732
	S993.608,77.815,989.89,77.815z M1046.459,337.815c-3.721,0-6.731-3.016-6.731-6.732s3.018-6.732,6.731-6.732
	c3.715,0,6.73,3.016,6.73,6.732S1050.179,337.815,1046.459,337.815z M1046.459,285.815c-3.721,0-6.731-3.014-6.731-6.732
	s3.018-6.732,6.731-6.732c3.715,0,6.73,3.014,6.73,6.732S1050.179,285.815,1046.459,285.815z M1046.459,233.815
	c-3.721,0-6.731-3.014-6.731-6.732s3.018-6.732,6.731-6.732c3.715,0,6.73,3.014,6.73,6.732S1050.179,233.815,1046.459,233.815z
	 M1046.459,181.815c-3.721,0-6.731-3.014-6.731-6.732s3.018-6.732,6.731-6.732c3.715,0,6.73,3.014,6.73,6.732
	S1050.179,181.815,1046.459,181.815z M1046.459,129.815c-3.721,0-6.731-3.014-6.731-6.732s3.018-6.732,6.731-6.732
	c3.715,0,6.73,3.014,6.73,6.732S1050.179,129.815,1046.459,129.815z M1046.459,77.815c-3.721,0-6.731-3.014-6.731-6.732
	s3.018-6.732,6.731-6.732c3.715,0,6.73,3.014,6.73,6.732S1050.179,77.815,1046.459,77.815z M1103.03,324.351
	c3.719,0,6.732,3.014,6.732,6.732s-3.014,6.732-6.732,6.732c-3.718,0-6.73-3.014-6.73-6.732S1099.312,324.351,1103.03,324.351z
	 M1103.03,272.351c3.719,0,6.732,3.014,6.732,6.732s-3.014,6.732-6.732,6.732c-3.718,0-6.73-3.014-6.73-6.732
	S1099.312,272.351,1103.03,272.351z M1103.03,220.351c3.719,0,6.732,3.014,6.732,6.732s-3.014,6.732-6.732,6.732
	c-3.718,0-6.73-3.014-6.73-6.732S1099.312,220.351,1103.03,220.351z M1103.03,168.351c3.719,0,6.732,3.014,6.732,6.732
	s-3.014,6.732-6.732,6.732c-3.718,0-6.73-3.014-6.73-6.732S1099.312,168.351,1103.03,168.351z M1103.03,116.351
	c3.719,0,6.732,3.014,6.732,6.732s-3.014,6.732-6.732,6.732c-3.718,0-6.73-3.014-6.73-6.732S1099.312,116.351,1103.03,116.351z
	 M1159.601,389.815c-3.719,0-6.729-3.016-6.729-6.732s3.017-6.732,6.729-6.732c3.722,0,6.729,3.016,6.729,6.732
	S1163.319,389.815,1159.601,389.815z M1159.601,337.815c-3.719,0-6.729-3.016-6.729-6.732s3.017-6.732,6.729-6.732
	c3.722,0,6.729,3.016,6.729,6.732S1163.319,337.815,1159.601,337.815z M1159.601,285.815c-3.719,0-6.729-3.014-6.729-6.732
	s3.017-6.732,6.729-6.732c3.722,0,6.729,3.014,6.729,6.732S1163.319,285.815,1159.601,285.815z M1159.601,233.815
	c-3.719,0-6.729-3.014-6.729-6.732s3.017-6.732,6.729-6.732c3.722,0,6.729,3.014,6.729,6.732S1163.319,233.815,1159.601,233.815z
	 M1159.601,181.815c-3.719,0-6.729-3.014-6.729-6.732s3.017-6.732,6.729-6.732c3.722,0,6.729,3.014,6.729,6.732
	S1163.319,181.815,1159.601,181.815z M1216.171,376.351c3.718,0,6.73,3.014,6.73,6.732s-3.014,6.732-6.73,6.732
	c-3.72,0-6.732-3.014-6.732-6.732S1212.451,376.351,1216.171,376.351z M1216.171,324.351c3.718,0,6.73,3.014,6.73,6.732
	s-3.014,6.732-6.73,6.732c-3.72,0-6.732-3.014-6.732-6.732S1212.451,324.351,1216.171,324.351z M1216.171,272.351
	c3.718,0,6.73,3.014,6.73,6.732s-3.014,6.732-6.73,6.732c-3.72,0-6.732-3.014-6.732-6.732S1212.451,272.351,1216.171,272.351z
	 M1216.171,220.351c3.718,0,6.73,3.014,6.73,6.732s-3.014,6.732-6.73,6.732c-3.72,0-6.732-3.014-6.732-6.732
	S1212.451,220.351,1216.171,220.351z M1272.74,441.815c-3.72,0-6.729-3.021-6.729-6.732s3.015-6.732,6.729-6.732
	s6.729,3.021,6.729,6.732S1276.459,441.815,1272.74,441.815z M1272.74,376.351c3.718,0,6.732,3.014,6.732,6.732
	s-3.015,6.732-6.732,6.732c-3.717,0-6.73-3.014-6.73-6.732S1269.022,376.351,1272.74,376.351z M1272.74,324.351
	c3.718,0,6.732,3.014,6.732,6.732s-3.015,6.732-6.732,6.732c-3.717,0-6.73-3.014-6.73-6.732S1269.022,324.351,1272.74,324.351z
	 M1272.74,272.351c3.718,0,6.732,3.014,6.732,6.732s-3.015,6.732-6.732,6.732c-3.717,0-6.73-3.014-6.73-6.732
	S1269.022,272.351,1272.74,272.351z M1329.312,441.815c-3.721,0-6.729-3.021-6.729-6.732s3.016-6.732,6.729-6.732
	c3.72,0,6.729,3.021,6.729,6.732S1333.03,441.815,1329.312,441.815z M1329.312,389.815c-3.721,0-6.729-3.016-6.729-6.732
	s3.016-6.732,6.729-6.732c3.72,0,6.729,3.016,6.729,6.732S1333.03,389.815,1329.312,389.815z M1329.312,337.815
	c-3.721,0-6.729-3.016-6.729-6.732s3.016-6.732,6.729-6.732c3.72,0,6.729,3.016,6.729,6.732S1333.03,337.815,1329.312,337.815z
	 M1329.312,285.815c-3.721,0-6.729-3.014-6.729-6.732s3.016-6.732,6.729-6.732c3.72,0,6.729,3.014,6.729,6.732
	S1333.03,285.815,1329.312,285.815z M1385.882,441.815c-3.722,0-6.73-3.021-6.73-6.732s3.017-6.732,6.73-6.732
	c3.713,0,6.729,3.021,6.729,6.732S1389.601,441.815,1385.882,441.815z M1385.882,376.351c3.718,0,6.73,3.014,6.73,6.732
	s-3.014,6.732-6.73,6.732c-3.72,0-6.732-3.014-6.732-6.732S1382.162,376.351,1385.882,376.351z M1385.882,324.351
	c3.718,0,6.73,3.014,6.73,6.732s-3.014,6.732-6.73,6.732c-3.72,0-6.732-3.014-6.732-6.732S1382.162,324.351,1385.882,324.351z
	 M1442.45,389.815c-3.719,0-6.729-3.016-6.729-6.732s3.018-6.732,6.729-6.732c3.716,0,6.729,3.016,6.729,6.732
	S1446.171,389.815,1442.45,389.815z M84.764,740.349c3.719,0,6.733,3.016,6.733,6.733s-3.016,6.732-6.733,6.732
	s-6.733-3.015-6.733-6.732S81.045,740.349,84.764,740.349z M84.764,701.815c-3.718,0-6.729-3.021-6.729-6.732
	s3.014-6.732,6.729-6.732c3.719,0,6.733,3.021,6.733,6.732S88.483,701.815,84.764,701.815z M84.764,649.815
	c-3.718,0-6.729-3.021-6.729-6.732s3.014-6.732,6.729-6.732c3.719,0,6.733,3.021,6.733,6.732S88.483,649.815,84.764,649.815z
	 M141.335,740.349c3.719,0,6.731,3.016,6.731,6.733s-3.014,6.732-6.731,6.732s-6.733-3.015-6.733-6.732
	S137.616,740.349,141.335,740.349z M141.335,701.815c-3.719,0-6.732-3.021-6.732-6.732s3.017-6.732,6.732-6.732
	s6.729,3.021,6.729,6.732S145.054,701.815,141.335,701.815z M141.335,649.815c-3.719,0-6.732-3.021-6.732-6.732
	s3.017-6.732,6.732-6.732s6.729,3.021,6.729,6.732S145.054,649.815,141.335,649.815z M141.335,597.815
	c-3.719,0-6.732-3.021-6.732-6.732s3.017-6.732,6.732-6.732s6.729,3.021,6.729,6.732S145.054,597.815,141.335,597.815z
	 M141.335,545.815c-3.719,0-6.732-3.021-6.732-6.732s3.017-6.732,6.732-6.732s6.729,3.021,6.729,6.732
	S145.054,545.815,141.335,545.815z M197.905,701.815c-3.719,0-6.729-3.021-6.729-6.732s3.014-6.732,6.729-6.732
	c3.721,0,6.732,3.021,6.732,6.732S201.624,701.815,197.905,701.815z M197.905,649.815c-3.719,0-6.729-3.021-6.729-6.732
	s3.014-6.732,6.729-6.732c3.721,0,6.732,3.021,6.732,6.732S201.624,649.815,197.905,649.815z M197.905,597.815
	c-3.719,0-6.729-3.021-6.729-6.732s3.014-6.732,6.729-6.732c3.721,0,6.732,3.021,6.732,6.732S201.624,597.815,197.905,597.815z
	 M197.905,545.815c-3.719,0-6.729-3.021-6.729-6.732s3.014-6.732,6.729-6.732c3.721,0,6.732,3.021,6.732,6.732
	S201.624,545.815,197.905,545.815z M197.905,493.815c-3.719,0-6.729-3.021-6.729-6.732s3.014-6.732,6.729-6.732
	c3.721,0,6.732,3.021,6.732,6.732S201.624,493.815,197.905,493.815z M254.476,701.815c-3.719,0-6.729-3.021-6.729-6.732
	s3.014-6.732,6.729-6.732s6.732,3.021,6.732,6.732S258.194,701.815,254.476,701.815z M254.476,649.815
	c-3.719,0-6.729-3.021-6.729-6.732s3.014-6.732,6.729-6.732s6.732,3.021,6.732,6.732S258.194,649.815,254.476,649.815z
	 M254.476,597.815c-3.719,0-6.729-3.021-6.729-6.732s3.014-6.732,6.729-6.732s6.732,3.021,6.732,6.732
	S258.194,597.815,254.476,597.815z M254.476,545.815c-3.719,0-6.729-3.021-6.729-6.732s3.014-6.732,6.729-6.732
	s6.732,3.021,6.732,6.732S258.194,545.815,254.476,545.815z M254.476,493.815c-3.719,0-6.729-3.021-6.729-6.732
	s3.014-6.732,6.729-6.732s6.732,3.021,6.732,6.732S258.194,493.815,254.476,493.815z M254.476,441.815
	c-3.719,0-6.729-3.021-6.729-6.732s3.014-6.732,6.729-6.732s6.732,3.021,6.732,6.732S258.194,441.815,254.476,441.815z
	 M311.046,701.815c-3.722,0-6.732-3.021-6.732-6.732s3.014-6.732,6.732-6.732c3.718,0,6.729,3.021,6.729,6.732
	S314.765,701.815,311.046,701.815z M311.046,649.815c-3.722,0-6.732-3.021-6.732-6.732s3.014-6.732,6.732-6.732
	c3.718,0,6.729,3.021,6.729,6.732S314.765,649.815,311.046,649.815z M311.046,597.815c-3.722,0-6.732-3.021-6.732-6.732
	s3.014-6.732,6.732-6.732c3.718,0,6.729,3.021,6.729,6.732S314.765,597.815,311.046,597.815z M311.046,545.815
	c-3.722,0-6.732-3.021-6.732-6.732s3.014-6.732,6.732-6.732c3.718,0,6.729,3.021,6.729,6.732S314.765,545.815,311.046,545.815z
	 M311.046,493.815c-3.722,0-6.732-3.021-6.732-6.732s3.014-6.732,6.732-6.732c3.718,0,6.729,3.021,6.729,6.732
	S314.765,493.815,311.046,493.815z M311.046,441.815c-3.722,0-6.732-3.021-6.732-6.732s3.014-6.732,6.732-6.732
	c3.718,0,6.729,3.021,6.729,6.732S314.765,441.815,311.046,441.815z M311.046,376.351c3.718,0,6.73,3.014,6.73,6.732
	s-3.014,6.732-6.73,6.732c-3.72,0-6.732-3.014-6.732-6.732S307.326,376.351,311.046,376.351z M367.615,701.815
	c-3.719,0-6.729-3.021-6.729-6.732s3.016-6.732,6.729-6.732s6.73,3.021,6.73,6.732S371.335,701.815,367.615,701.815z
	 M367.615,649.815c-3.719,0-6.729-3.021-6.729-6.732s3.016-6.732,6.729-6.732s6.73,3.021,6.73,6.732
	S371.335,649.815,367.615,649.815z M367.615,597.815c-3.719,0-6.729-3.021-6.729-6.732s3.016-6.732,6.729-6.732
	s6.73,3.021,6.73,6.732S371.335,597.815,367.615,597.815z M367.615,545.815c-3.719,0-6.729-3.021-6.729-6.732
	s3.016-6.732,6.729-6.732s6.73,3.021,6.73,6.732S371.335,545.815,367.615,545.815z M367.615,493.815
	c-3.719,0-6.729-3.021-6.729-6.732s3.016-6.732,6.729-6.732s6.73,3.021,6.73,6.732S371.335,493.815,367.615,493.815z
	 M367.615,441.815c-3.719,0-6.729-3.021-6.729-6.732s3.016-6.732,6.729-6.732s6.73,3.021,6.73,6.732
	S371.335,441.815,367.615,441.815z M367.615,376.351c3.718,0,6.732,3.014,6.732,6.732s-3.016,6.732-6.732,6.732
	s-6.73-3.014-6.73-6.732S363.897,376.351,367.615,376.351z M367.615,324.351c3.718,0,6.732,3.014,6.732,6.732
	s-3.016,6.732-6.732,6.732s-6.73-3.014-6.73-6.732S363.897,324.351,367.615,324.351z M707.035,636.35
	c3.722,0,6.729,3.021,6.729,6.732s-3.014,6.732-6.729,6.732c-3.715,0-6.729-3.021-6.729-6.732S703.319,636.35,707.035,636.35z
	 M424.188,701.815c-3.72,0-6.729-3.021-6.729-6.732s3.014-6.732,6.729-6.732c3.721,0,6.731,3.021,6.731,6.732
	S427.905,701.815,424.188,701.815z M424.188,649.815c-3.72,0-6.729-3.021-6.729-6.732s3.014-6.732,6.729-6.732
	c3.721,0,6.731,3.021,6.731,6.732S427.905,649.815,424.188,649.815z M424.188,597.815c-3.72,0-6.729-3.021-6.729-6.732
	s3.014-6.732,6.729-6.732c3.721,0,6.731,3.021,6.731,6.732S427.905,597.815,424.188,597.815z M424.188,545.815
	c-3.72,0-6.729-3.021-6.729-6.732s3.014-6.732,6.729-6.732c3.721,0,6.731,3.021,6.731,6.732S427.905,545.815,424.188,545.815z
	 M424.188,493.815c-3.72,0-6.729-3.021-6.729-6.732s3.014-6.732,6.729-6.732c3.721,0,6.731,3.021,6.731,6.732
	S427.905,493.815,424.188,493.815z M424.188,441.815c-3.72,0-6.729-3.021-6.729-6.732s3.014-6.732,6.729-6.732
	c3.721,0,6.731,3.021,6.731,6.732S427.905,441.815,424.188,441.815z M424.188,389.815c-3.72,0-6.729-3.016-6.729-6.732
	s3.014-6.732,6.729-6.732c3.721,0,6.731,3.016,6.731,6.732S427.905,389.815,424.188,389.815z M424.188,337.815
	c-3.72,0-6.729-3.016-6.729-6.732s3.014-6.732,6.729-6.732c3.721,0,6.731,3.016,6.731,6.732S427.905,337.815,424.188,337.815z
	 M424.188,285.815c-3.72,0-6.729-3.014-6.729-6.732s3.014-6.732,6.729-6.732c3.721,0,6.731,3.014,6.731,6.732
	S427.905,285.815,424.188,285.815z M480.757,649.815c-3.722,0-6.729-3.021-6.729-6.732s3.014-6.732,6.729-6.732
	c3.715,0,6.729,3.021,6.729,6.732S484.476,649.815,480.757,649.815z M480.757,597.815c-3.722,0-6.729-3.021-6.729-6.732
	s3.014-6.732,6.729-6.732c3.715,0,6.729,3.021,6.729,6.732S484.476,597.815,480.757,597.815z M480.757,545.815
	c-3.722,0-6.729-3.021-6.729-6.732s3.014-6.732,6.729-6.732c3.715,0,6.729,3.021,6.729,6.732S484.476,545.815,480.757,545.815z
	 M480.757,493.815c-3.722,0-6.729-3.021-6.729-6.732s3.014-6.732,6.729-6.732c3.715,0,6.729,3.021,6.729,6.732
	S484.476,493.815,480.757,493.815z M480.757,441.815c-3.722,0-6.729-3.021-6.729-6.732s3.014-6.732,6.729-6.732
	c3.715,0,6.729,3.021,6.729,6.732S484.476,441.815,480.757,441.815z M480.757,376.351c3.718,0,6.73,3.014,6.73,6.732
	s-3.014,6.732-6.73,6.732c-3.72,0-6.732-3.014-6.732-6.732S477.037,376.351,480.757,376.351z M480.757,324.351
	c3.718,0,6.73,3.014,6.73,6.732s-3.014,6.732-6.73,6.732c-3.72,0-6.732-3.014-6.732-6.732S477.037,324.351,480.757,324.351z
	 M480.757,272.351c3.718,0,6.73,3.014,6.73,6.732s-3.014,6.732-6.73,6.732c-3.72,0-6.732-3.014-6.732-6.732
	S477.037,272.351,480.757,272.351z M537.324,649.815c-3.719,0-6.729-3.021-6.729-6.732s3.018-6.732,6.729-6.732
	c3.717,0,6.729,3.021,6.729,6.732S541.046,649.815,537.324,649.815z M537.324,597.815c-3.719,0-6.729-3.021-6.729-6.732
	s3.018-6.732,6.729-6.732c3.717,0,6.729,3.021,6.729,6.732S541.046,597.815,537.324,597.815z M537.324,545.815
	c-3.719,0-6.729-3.021-6.729-6.732s3.018-6.732,6.729-6.732c3.717,0,6.729,3.021,6.729,6.732S541.046,545.815,537.324,545.815z
	 M537.324,493.815c-3.719,0-6.729-3.021-6.729-6.732s3.018-6.732,6.729-6.732c3.717,0,6.729,3.021,6.729,6.732
	S541.046,493.815,537.324,493.815z M537.324,441.815c-3.719,0-6.729-3.021-6.729-6.732s3.018-6.732,6.729-6.732
	c3.717,0,6.729,3.021,6.729,6.732S541.046,441.815,537.324,441.815z M537.324,389.815c-3.719,0-6.729-3.016-6.729-6.732
	s3.018-6.732,6.729-6.732c3.717,0,6.729,3.016,6.729,6.732S541.046,389.815,537.324,389.815z M537.324,337.815
	c-3.719,0-6.729-3.016-6.729-6.732s3.018-6.732,6.729-6.732c3.717,0,6.729,3.016,6.729,6.732S541.046,337.815,537.324,337.815z
	 M537.324,285.815c-3.719,0-6.729-3.014-6.729-6.732s3.018-6.732,6.729-6.732c3.717,0,6.729,3.014,6.729,6.732
	S541.046,285.815,537.324,285.815z M593.896,649.815c-3.722,0-6.731-3.021-6.731-6.732s3.017-6.732,6.731-6.732
	c3.719,0,6.729,3.021,6.729,6.732S597.615,649.815,593.896,649.815z M593.896,597.815c-3.722,0-6.731-3.021-6.731-6.732
	s3.017-6.732,6.731-6.732c3.719,0,6.729,3.021,6.729,6.732S597.615,597.815,593.896,597.815z M593.896,545.815
	c-3.722,0-6.731-3.021-6.731-6.732s3.017-6.732,6.731-6.732c3.719,0,6.729,3.021,6.729,6.732S597.615,545.815,593.896,545.815z
	 M593.896,493.815c-3.722,0-6.731-3.021-6.731-6.732s3.017-6.732,6.731-6.732c3.719,0,6.729,3.021,6.729,6.732
	S597.615,493.815,593.896,493.815z M593.896,441.815c-3.722,0-6.731-3.021-6.731-6.732s3.017-6.732,6.731-6.732
	c3.719,0,6.729,3.021,6.729,6.732S597.615,441.815,593.896,441.815z M593.896,389.815c-3.722,0-6.731-3.016-6.731-6.732
	s3.017-6.732,6.731-6.732c3.719,0,6.729,3.016,6.729,6.732S597.615,389.815,593.896,389.815z M593.896,337.815
	c-3.722,0-6.731-3.016-6.731-6.732s3.017-6.732,6.731-6.732c3.719,0,6.729,3.016,6.729,6.732S597.615,337.815,593.896,337.815z
	 M593.896,285.815c-3.722,0-6.731-3.014-6.731-6.732s3.017-6.732,6.731-6.732c3.719,0,6.729,3.014,6.729,6.732
	S597.615,285.815,593.896,285.815z M650.468,636.35c3.72,0,6.729,3.021,6.729,6.732s-3.018,6.732-6.729,6.732
	s-6.729-3.021-6.729-6.732S646.746,636.35,650.468,636.35z M650.468,545.815c-3.72,0-6.729-3.021-6.729-6.732
	s3.017-6.732,6.729-6.732s6.729,3.021,6.729,6.732S654.188,545.815,650.468,545.815z M650.468,493.815
	c-3.72,0-6.729-3.021-6.729-6.732s3.017-6.732,6.729-6.732s6.729,3.021,6.729,6.732S654.188,493.815,650.468,493.815z
	 M650.468,441.815c-3.72,0-6.729-3.021-6.729-6.732s3.017-6.732,6.729-6.732s6.729,3.021,6.729,6.732
	S654.188,441.815,650.468,441.815z M650.468,376.351c3.718,0,6.73,3.014,6.73,6.732s-3.014,6.732-6.73,6.732
	c-3.718,0-6.732-3.014-6.732-6.732S646.75,376.351,650.468,376.351z M650.468,324.351c3.718,0,6.73,3.014,6.73,6.732
	s-3.014,6.732-6.73,6.732c-3.718,0-6.732-3.014-6.732-6.732S646.75,324.351,650.468,324.351z M650.468,272.351
	c3.718,0,6.73,3.014,6.73,6.732s-3.014,6.732-6.73,6.732c-3.718,0-6.732-3.014-6.732-6.732S646.75,272.351,650.468,272.351z
	 M707.035,545.815c-3.719,0-6.729-3.021-6.729-6.732s3.018-6.732,6.729-6.732c3.717,0,6.729,3.021,6.729,6.732
	S710.757,545.815,707.035,545.815z M707.035,493.815c-3.719,0-6.729-3.021-6.729-6.732s3.018-6.732,6.729-6.732
	c3.717,0,6.729,3.021,6.729,6.732S710.757,493.815,707.035,493.815z M707.035,441.815c-3.719,0-6.729-3.021-6.729-6.732
	s3.018-6.732,6.729-6.732c3.717,0,6.729,3.021,6.729,6.732S710.757,441.815,707.035,441.815z M707.035,389.815
	c-3.719,0-6.729-3.016-6.729-6.732s3.018-6.732,6.729-6.732c3.717,0,6.729,3.016,6.729,6.732S710.757,389.815,707.035,389.815z
	 M707.035,337.815c-3.719,0-6.729-3.016-6.729-6.732s3.018-6.732,6.729-6.732c3.717,0,6.729,3.016,6.729,6.732
	S710.757,337.815,707.035,337.815z M707.035,285.815c-3.719,0-6.729-3.014-6.729-6.732s3.018-6.732,6.729-6.732
	c3.717,0,6.729,3.014,6.729,6.732S710.757,285.815,707.035,285.815z M763.608,545.815c-3.723,0-6.732-3.021-6.732-6.732
	s3.017-6.732,6.732-6.732s6.729,3.021,6.729,6.732S767.324,545.815,763.608,545.815z M763.608,493.815
	c-3.723,0-6.732-3.021-6.732-6.732s3.017-6.732,6.732-6.732s6.729,3.021,6.729,6.732S767.324,493.815,763.608,493.815z
	 M763.608,441.815c-3.723,0-6.732-3.021-6.732-6.732s3.017-6.732,6.732-6.732s6.729,3.021,6.729,6.732
	S767.324,441.815,763.608,441.815z M763.608,389.815c-3.723,0-6.732-3.016-6.732-6.732s3.017-6.732,6.732-6.732
	s6.729,3.016,6.729,6.732S767.324,389.815,763.608,389.815z M763.608,337.815c-3.723,0-6.732-3.016-6.732-6.732
	s3.017-6.732,6.732-6.732s6.729,3.016,6.729,6.732S767.324,337.815,763.608,337.815z M763.608,285.815
	c-3.723,0-6.732-3.014-6.732-6.732s3.017-6.732,6.732-6.732s6.729,3.014,6.729,6.732S767.324,285.815,763.608,285.815z
	 M820.179,597.815c-3.719,0-6.729-3.021-6.729-6.732s3.017-6.732,6.729-6.732c3.721,0,6.729,3.021,6.729,6.732
	S823.896,597.815,820.179,597.815z M820.179,545.815c-3.719,0-6.729-3.021-6.729-6.732s3.017-6.732,6.729-6.732
	c3.721,0,6.729,3.021,6.729,6.732S823.896,545.815,820.179,545.815z M820.179,493.815c-3.719,0-6.729-3.021-6.729-6.732
	s3.017-6.732,6.729-6.732c3.721,0,6.729,3.021,6.729,6.732S823.896,493.815,820.179,493.815z M820.179,441.815
	c-3.719,0-6.729-3.021-6.729-6.732s3.017-6.732,6.729-6.732c3.721,0,6.729,3.021,6.729,6.732S823.896,441.815,820.179,441.815z
	 M820.179,389.815c-3.719,0-6.729-3.016-6.729-6.732s3.017-6.732,6.729-6.732c3.721,0,6.729,3.016,6.729,6.732
	S823.896,389.815,820.179,389.815z M820.179,337.815c-3.719,0-6.729-3.016-6.729-6.732s3.017-6.732,6.729-6.732
	c3.721,0,6.729,3.016,6.729,6.732S823.896,337.815,820.179,337.815z M876.746,597.815c-3.719,0-6.729-3.021-6.729-6.732
	s3.018-6.732,6.729-6.732c3.717,0,6.732,3.021,6.732,6.732S880.468,597.815,876.746,597.815z M876.746,545.815
	c-3.719,0-6.729-3.021-6.729-6.732s3.018-6.732,6.729-6.732c3.717,0,6.732,3.021,6.732,6.732S880.468,545.815,876.746,545.815z
	 M876.746,493.815c-3.719,0-6.729-3.021-6.729-6.732s3.018-6.732,6.729-6.732c3.717,0,6.732,3.021,6.732,6.732
	S880.468,493.815,876.746,493.815z M876.746,441.815c-3.719,0-6.729-3.021-6.729-6.732s3.018-6.732,6.729-6.732
	c3.717,0,6.732,3.021,6.732,6.732S880.468,441.815,876.746,441.815z M876.746,389.815c-3.719,0-6.729-3.016-6.729-6.732
	s3.018-6.732,6.729-6.732c3.717,0,6.732,3.016,6.732,6.732S880.468,389.815,876.746,389.815z M876.746,337.815
	c-3.719,0-6.729-3.016-6.729-6.732s3.018-6.732,6.729-6.732c3.717,0,6.732,3.016,6.732,6.732S880.468,337.815,876.746,337.815z
	 M933.319,597.815c-3.723,0-6.729-3.021-6.729-6.732s3.014-6.732,6.729-6.732s6.729,3.021,6.729,6.732
	S937.035,597.815,933.319,597.815z M933.319,545.815c-3.723,0-6.729-3.021-6.729-6.732s3.014-6.732,6.729-6.732
	s6.729,3.021,6.729,6.732S937.035,545.815,933.319,545.815z M933.319,493.815c-3.723,0-6.729-3.021-6.729-6.732
	s3.014-6.732,6.729-6.732s6.729,3.021,6.729,6.732S937.035,493.815,933.319,493.815z M933.319,441.815
	c-3.723,0-6.729-3.021-6.729-6.732s3.014-6.732,6.729-6.732s6.729,3.021,6.729,6.732S937.035,441.815,933.319,441.815z
	 M933.319,389.815c-3.723,0-6.729-3.016-6.729-6.732s3.014-6.732,6.729-6.732s6.729,3.016,6.729,6.732
	S937.035,389.815,933.319,389.815z M933.319,337.815c-3.723,0-6.729-3.016-6.729-6.732s3.014-6.732,6.729-6.732
	s6.729,3.016,6.729,6.732S937.035,337.815,933.319,337.815z M989.89,649.815c-3.719,0-6.729-3.021-6.729-6.732
	s3.017-6.732,6.729-6.732c3.722,0,6.729,3.021,6.729,6.732S993.608,649.815,989.89,649.815z M989.89,597.815
	c-3.719,0-6.729-3.021-6.729-6.732s3.017-6.732,6.729-6.732c3.722,0,6.729,3.021,6.729,6.732S993.608,597.815,989.89,597.815z
	 M989.89,545.815c-3.719,0-6.729-3.021-6.729-6.732s3.017-6.732,6.729-6.732c3.722,0,6.729,3.021,6.729,6.732
	S993.608,545.815,989.89,545.815z M989.89,493.815c-3.719,0-6.729-3.021-6.729-6.732s3.017-6.732,6.729-6.732
	c3.722,0,6.729,3.021,6.729,6.732S993.608,493.815,989.89,493.815z M989.89,441.815c-3.719,0-6.729-3.021-6.729-6.732
	s3.017-6.732,6.729-6.732c3.722,0,6.729,3.021,6.729,6.732S993.608,441.815,989.89,441.815z M989.89,389.815
	c-3.719,0-6.729-3.016-6.729-6.732s3.017-6.732,6.729-6.732c3.722,0,6.729,3.016,6.729,6.732S993.608,389.815,989.89,389.815z
	 M1046.459,649.815c-3.721,0-6.731-3.021-6.731-6.732s3.018-6.732,6.731-6.732c3.715,0,6.73,3.021,6.73,6.732
	S1050.179,649.815,1046.459,649.815z M1046.459,597.815c-3.721,0-6.731-3.021-6.731-6.732s3.018-6.732,6.731-6.732
	c3.715,0,6.73,3.021,6.73,6.732S1050.179,597.815,1046.459,597.815z M1046.459,545.815c-3.721,0-6.731-3.021-6.731-6.732
	s3.018-6.732,6.731-6.732c3.715,0,6.73,3.021,6.73,6.732S1050.179,545.815,1046.459,545.815z M1046.459,493.815
	c-3.721,0-6.731-3.021-6.731-6.732s3.018-6.732,6.731-6.732c3.715,0,6.73,3.021,6.73,6.732S1050.179,493.815,1046.459,493.815z
	 M1046.459,441.815c-3.721,0-6.731-3.021-6.731-6.732s3.018-6.732,6.731-6.732c3.715,0,6.73,3.021,6.73,6.732
	S1050.179,441.815,1046.459,441.815z M1046.459,389.815c-3.721,0-6.731-3.016-6.731-6.732s3.018-6.732,6.731-6.732
	c3.715,0,6.73,3.016,6.73,6.732S1050.179,389.815,1046.459,389.815z M1103.03,701.815c-3.72,0-6.729-3.021-6.729-6.732
	s3.015-6.732,6.729-6.732s6.729,3.021,6.729,6.732S1106.748,701.815,1103.03,701.815z M1103.03,649.815
	c-3.72,0-6.729-3.021-6.729-6.732s3.015-6.732,6.729-6.732s6.729,3.021,6.729,6.732S1106.748,649.815,1103.03,649.815z
	 M1103.03,597.815c-3.72,0-6.729-3.021-6.729-6.732s3.015-6.732,6.729-6.732s6.729,3.021,6.729,6.732
	S1106.748,597.815,1103.03,597.815z M1103.03,545.815c-3.72,0-6.729-3.021-6.729-6.732s3.015-6.732,6.729-6.732
	s6.729,3.021,6.729,6.732S1106.748,545.815,1103.03,545.815z M1103.03,493.815c-3.72,0-6.729-3.021-6.729-6.732
	s3.015-6.732,6.729-6.732s6.729,3.021,6.729,6.732S1106.748,493.815,1103.03,493.815z M1103.03,441.815
	c-3.72,0-6.729-3.021-6.729-6.732s3.015-6.732,6.729-6.732s6.729,3.021,6.729,6.732S1106.748,441.815,1103.03,441.815z
	 M1159.601,701.815c-3.719,0-6.729-3.021-6.729-6.732s3.017-6.732,6.729-6.732c3.722,0,6.729,3.021,6.729,6.732
	S1163.319,701.815,1159.601,701.815z M1159.601,649.815c-3.719,0-6.729-3.021-6.729-6.732s3.017-6.732,6.729-6.732
	c3.722,0,6.729,3.021,6.729,6.732S1163.319,649.815,1159.601,649.815z M1159.601,597.815c-3.719,0-6.729-3.021-6.729-6.732
	s3.017-6.732,6.729-6.732c3.722,0,6.729,3.021,6.729,6.732S1163.319,597.815,1159.601,597.815z M1159.601,545.815
	c-3.719,0-6.729-3.021-6.729-6.732s3.017-6.732,6.729-6.732c3.722,0,6.729,3.021,6.729,6.732S1163.319,545.815,1159.601,545.815z
	 M1159.601,493.815c-3.719,0-6.729-3.021-6.729-6.732s3.017-6.732,6.729-6.732c3.722,0,6.729,3.021,6.729,6.732
	S1163.319,493.815,1159.601,493.815z M1159.601,441.815c-3.719,0-6.729-3.021-6.729-6.732s3.017-6.732,6.729-6.732
	c3.722,0,6.729,3.021,6.729,6.732S1163.319,441.815,1159.601,441.815z M1216.171,701.815c-3.722,0-6.73-3.021-6.73-6.732
	s3.017-6.732,6.73-6.732c3.713,0,6.729,3.021,6.729,6.732S1219.89,701.815,1216.171,701.815z M1216.171,649.815
	c-3.722,0-6.73-3.021-6.73-6.732s3.017-6.732,6.73-6.732c3.713,0,6.729,3.021,6.729,6.732S1219.89,649.815,1216.171,649.815z
	 M1216.171,597.815c-3.722,0-6.73-3.021-6.73-6.732s3.017-6.732,6.73-6.732c3.713,0,6.729,3.021,6.729,6.732
	S1219.89,597.815,1216.171,597.815z M1216.171,545.815c-3.722,0-6.73-3.021-6.73-6.732s3.017-6.732,6.73-6.732
	c3.713,0,6.729,3.021,6.729,6.732S1219.89,545.815,1216.171,545.815z M1216.171,493.815c-3.722,0-6.73-3.021-6.73-6.732
	s3.017-6.732,6.73-6.732c3.713,0,6.729,3.021,6.729,6.732S1219.89,493.815,1216.171,493.815z M1272.74,545.815
	c-3.72,0-6.729-3.021-6.729-6.732s3.015-6.732,6.729-6.732s6.729,3.021,6.729,6.732S1276.459,545.815,1272.74,545.815z
	 M1270.439,774.623c0.848,3.005,2.66,6.444,6.515,8.18c7.713,3.479,50.979,20.035,59.168,42.279s34.063,84.104,34.063,84.104
	s7.714,14.276-0.521,43.698c-8.233,29.422-51.067,180.582-61.094,228.533c-10.021,47.949-25.81,130.041-25.683,171.307
	l-0.104,29.353c0,0-0.196,15.457-5.721,25.715c-5.521,10.258-38.12,74.707-38.12,74.707s-5.395,14.213,8.326,7.771l290.807-116.293
	c0,0,26.688-12.468,3.416-40.836c0,0-20.6-17.488-9.423-41.661c11.171-24.18,132.86-282.141,132.86-282.141l22.811-47.821
	c0,0,9.301-21.222,30.186-36.043c20.885-14.818,105.359-74.75,105.359-74.75s15.285-11.021,4.604-23.806
	c-10.679-12.785-128.932-144.938-128.932-144.938s-11.543-14.817-43.492-28.479c-31.946-13.656-298.011-131.206-298.011-131.206
	c-4.404-5.742,0.107-11.666,4.078-16.006l0.004,0.001c0.978-0.938,1.939-2.051,2.886-3.361c0,0,60.721-76.646,88.712-106.147
	l9.77-10.464c0.004-0.002,5.828-5.038,5.703-10.636c-0.001-6.774,6.76-12.256,15.11-12.255c2.288,0.7,6.154,1.061,12.619-0.012
	c14.019-2.326,97.168-18.191,133.479-22.348c36.312-4.157,141.062-16.58,141.062-16.58s190.209-14.054,242.854-15.46
	c52.646-1.409,181.979-6.048,230.714-4.991c48.731,1.057,163.31,0.061,207.86,1.163c44.562,1.102,143.761,8.213,175.625,10.623
	c31.868,2.412,56.982,6.314,56.982,6.314s11.426,1.506,23.323-2.887c6.729-2.482,34.731-13.209,57.812-22.065
	c9.943-2.049,20.418-5.032,30.646-3.678c4.641,0.614,9.51,1.804,13.402,4.488c0.451,0.311,0.889,0.64,1.313,0.98
	c3.007,2.413,5.521,5.494,8.905,7.41c4.697,2.658,10.043,4.07,15.436,4.07c17.221,0,31.181-13.96,31.181-31.181
	c0-17.221-13.96-31.181-31.181-31.181c-5.822,0-11.619,1.597-16.503,4.76c-4.168,2.7-7.469,6.532-12.098,8.524
	c-9.184,3.952-21.3,2.859-29.729-2.46c-0.18-0.113-180.602-114.087-180.602-114.087s-6.118-5.575-12.812-2.284
	c-6.688,3.29-30.896,17.386-75.096,22.589c0,0-37.968,5.428-93.039-1.829l-84.72-12.951l-140.438-22.08l-135.57-20.546
	l-137.813-19.352L1767.812,69.57c0,0-186.127-23.631-225.611-27.045c-39.482-3.415-188.213-19.137-267.771-26.043l-154.5-12.608
	l-58.797-3.873c0,0-5.799-0.135-6.144,2.562h0.007c0,6.963-7.924,12.598-17.714,12.598l0.005-0.001
	c-2.575-1.196-5.911-1.834-9.619-0.305c-8.438,3.479-292.188,122.957-292.188,122.957s-57.265,23.75-92.812,15.986
	c0,0-44.071-6.167-72.562-30.909c0,0-11.952-9.629-15.848-18.817c0,0-9.437-14.632-25.938-4.165
	c-16.506,10.466-70.584,52.197-78.711,59.608c0,0-6.006,4.863-5.479,10.333c0.522,5.471,3.222,11.505,1.329,18.795
	c-1.892,7.29-6.48,14.804-11.271,19.053c-3.458,3.071-4.742,5.275-4.324,7.294l0.012-0.002c0,9.283-4.273,16.795-9.557,16.795
	v-0.003c-7.142,0.404-17.46,2.917-27.964,12.117c-19.042,16.678-106.062,82.003-202.75,205.643c0,0-65.671,79.451-98.097,126.031
	c-32.426,46.578-35.651,51.68-35.651,51.68s-4.854,9.396-3.559,13.604c1.299,4.201,19.785,27.689,6.205,50.565
	S7.08,775.761,7.08,775.761s-14.749,17.599-1.69,21.84c13.062,4.242,22.225,10.193,44.267,4.562
	c22.041-5.633,133.802-40.229,190.143-52.5c56.341-12.275,247.488-52.514,247.488-52.514s214.929-36.472,244.831-40.358
	c29.905-3.895,28.053-3.763,28.053-3.763s15.886-3.481,6.953-11.241c0,0-26.869-14.104-70.993-19.743l-43.169-7.356
	c0,0-14.922-1.177-6.168-9.24c0,0,8.381-5.184,29.279-7.649c0,0,29.101-6.202,99.432,7.206c0,0,82.119,18.961,158.11,45.592
	c75.992,26.635,177.992,68.354,234.729,90.315c56.737,21.962,77.339,30.479,77.339,30.479s13.025,6.437,17.615,1.57l-0.002-0.002
	c0.574-0.155,1.281-0.246,2.044-0.246c2.301,0,4.267,0.798,5.073,1.933L1270.439,774.623z"/>
</svg>
