<?xml version="1.0" encoding="utf-8"?>
<!-- Generator: Adobe Illustrator 16.0.0, SVG Export Plug-In . SVG Version: 6.00 Build 0)  -->
<!DOCTYPE svg PUBLIC "-//W3C//DTD SVG 1.1//EN" "http://www.w3.org/Graphics/SVG/1.1/DTD/svg11.dtd">
<svg version="1.1" id="Layer_1" xmlns="http://www.w3.org/2000/svg" xmlns:xlink="http://www.w3.org/1999/xlink" x="0px" y="0px"
	 width="2807.842px" height="1493.09px" viewBox="0 0 2807.842 1493.09" enable-background="new 0 0 2807.842 1493.09"
	 xml:space="preserve">
<path d="M1175.133,344.763c36.339,3.921,119.594,19.243,133.621,21.478c14.028,2.233,15.806-2.188,15.806-2.188
	s33.054-24.618,169.926-130.673c136.872-106.054,243.4-219.145,250.747-226.424c7.346-7.28-3.646-6.954-3.646-6.954l-58.771,4.257
	l-154.414,13.614c-79.513,7.424-228.131,24.114-267.595,27.787c-39.461,3.672-225.434,28.514-225.434,28.514L885.99,93.954
	L748.3,114.203l-135.437,21.428l-140.292,22.994l-84.633,13.503c-55.022,7.615-93.025,2.434-93.025,2.434
	c-44.229-4.915-68.527-18.852-75.243-22.098c-6.712-3.247-12.796,2.367-12.796,2.367L3.853,284.94
	c-9.769,7.019,2.124,11.041,2.124,11.041s78.678,29.678,90.608,33.992c11.934,4.314,23.348,2.735,23.348,2.735
	s25.089-4.069,56.939-6.688c31.854-2.619,131-10.376,175.552-11.769c44.551-1.393,159.125-1.142,207.854-2.517
	s178.086,2.422,230.739,3.487c52.65,1.066,242.947,13.878,242.947,13.878S1138.797,340.844,1175.133,344.763z M1534.823,1409.168
	c-5.586-10.223-5.887-25.678-5.887-25.678l-0.291-29.354c-0.146-41.262-16.463-123.248-26.797-171.133
	c-10.337-47.885-54.15-198.764-62.578-228.129c-8.434-29.367-0.812-43.697-0.812-43.697s25.477-62.021,33.521-84.32
	c8.043-22.3,51.198-39.146,58.889-42.664c7.688-3.521,7.16-13.805,7.16-13.805s1.211-54.354,0.513-93.69
	c-0.701-39.342-13.855-75.218-13.855-75.218c-17.396-45.306-44.141-65.729-55.119-75.073s-20.892-2.192-20.892-2.192
	s-265.293,119.282-297.149,133.146c-31.856,13.86-43.307,28.764-43.307,28.764S990.828,819.045,980.232,831.9
	c-10.6,12.854,4.761,23.771,4.761,23.771s84.863,59.377,105.848,74.062c20.979,14.688,30.416,35.85,30.416,35.85l23.118,47.674
	c0,0,123.368,257.164,134.697,281.266c11.329,24.104-9.149,41.727-9.149,41.727c-23.082,28.52,3.684,40.812,3.684,40.812
	l291.554,114.396c13.766,6.35,8.275-7.828,8.275-7.828S1540.407,1419.386,1534.823,1409.168z M1438.53,1304.988
	c-30.34,12.557-65.231-2.121-77.919-32.775s1.628-65.697,31.968-78.254c30.339-12.557,65.229,2.121,77.918,32.775
	C1483.183,1257.388,1468.866,1292.431,1438.53,1304.988z M1891.211,276.621c36-18.619,62.268-16.434,62.268-16.434
	s389.3-37.422,401.136-38.344c11.834-0.922,16.153-5.922,18.429-8.677c2.272-2.755,1.635-5.341-3.181-9.558
	c-4.812-4.217-9.459-11.7-11.396-18.979c-1.938-7.277,0.718-13.329,1.207-18.803c0.488-5.475-5.549-10.298-5.549-10.298
	c-8.177-7.358-62.522-48.736-79.099-59.093c-16.571-10.359-25.912,4.334-25.912,4.334c-3.832,9.211-15.722,18.918-15.722,18.918
	c-28.325,24.926-72.355,31.382-72.355,31.382c-35.496,7.995-92.908-15.382-92.908-15.382s-284.521-117.624-292.98-121.046
	c-8.463-3.426-14.929,4.358-14.929,4.358l-42.897,36.879l-156.769,132.966c0,0-212.537,175.808-220.867,183.26
	c-8.327,7.454,2.647,16.819,2.647,16.819l9.834,10.398c28.188,29.318,89.399,105.572,89.399,105.572
	c10.834,14.843,24.287,4.035,24.287,4.035S1855.207,295.242,1891.211,276.621z M2314.138,163.43c3.72,0,6.729,3.014,6.729,6.732
	c0,3.718-3.015,6.732-6.729,6.732c-3.72,0-6.73-3.014-6.73-6.732C2307.406,166.444,2310.418,163.43,2314.138,163.43z
	 M2257.569,111.43c3.719,0,6.729,3.014,6.729,6.732c0,3.718-3.015,6.732-6.729,6.732c-3.72,0-6.731-3.014-6.731-6.732
	C2250.834,114.444,2253.849,111.43,2257.569,111.43z M2257.569,163.43c3.719,0,6.729,3.014,6.729,6.732
	c0,3.718-3.015,6.732-6.729,6.732c-3.72,0-6.731-3.014-6.731-6.732C2250.834,166.444,2253.849,163.43,2257.569,163.43z
	 M2200.996,163.43c3.72,0,6.732,3.014,6.732,6.732c0,3.718-3.018,6.732-6.732,6.732c-3.713,0-6.731-3.014-6.731-6.732
	C2194.265,166.444,2197.28,163.43,2200.996,163.43z M2200.996,215.43c3.72,0,6.732,3.014,6.732,6.732
	c0,3.718-3.018,6.732-6.732,6.732c-3.713,0-6.731-3.014-6.731-6.732C2194.265,218.444,2197.28,215.43,2200.996,215.43z
	 M2144.427,163.43c3.72,0,6.729,3.014,6.729,6.732c0,3.718-3.015,6.732-6.729,6.732c-3.72,0-6.73-3.014-6.73-6.732
	C2137.696,166.444,2140.707,163.43,2144.427,163.43z M2144.427,215.43c3.72,0,6.729,3.014,6.729,6.732
	c0,3.718-3.015,6.732-6.729,6.732c-3.72,0-6.73-3.014-6.73-6.732C2137.696,218.444,2140.707,215.43,2144.427,215.43z
	 M2087.858,163.43c3.719,0,6.729,3.014,6.729,6.732c0,3.718-3.014,6.732-6.729,6.732c-3.72,0-6.732-3.014-6.732-6.732
	C2081.123,166.444,2084.138,163.43,2087.858,163.43z M2087.858,215.43c3.719,0,6.729,3.014,6.729,6.732
	c0,3.718-3.014,6.732-6.729,6.732c-3.72,0-6.732-3.014-6.732-6.732C2081.123,218.444,2084.138,215.43,2087.858,215.43z
	 M2031.285,163.43c3.72,0,6.732,3.014,6.732,6.732c0,3.718-3.018,6.732-6.732,6.732c-3.714,0-6.731-3.014-6.731-6.732
	C2024.554,166.444,2027.569,163.43,2031.285,163.43z M2031.285,215.43c3.72,0,6.732,3.014,6.732,6.732
	c0,3.718-3.018,6.732-6.732,6.732c-3.714,0-6.731-3.014-6.731-6.732C2024.554,218.444,2027.569,215.43,2031.285,215.43z
	 M1974.714,111.43c3.721,0,6.731,3.014,6.731,6.732c0,3.718-3.016,6.732-6.731,6.732s-6.729-3.014-6.729-6.732
	C1967.985,114.444,1970.996,111.43,1974.714,111.43z M1974.714,163.43c3.721,0,6.731,3.014,6.731,6.732
	c0,3.718-3.016,6.732-6.731,6.732s-6.729-3.014-6.729-6.732C1967.985,166.444,1970.996,163.43,1974.714,163.43z M1974.714,215.43
	c3.721,0,6.731,3.014,6.731,6.732c0,3.718-3.016,6.732-6.731,6.732s-6.729-3.014-6.729-6.732
	C1967.985,218.444,1970.996,215.43,1974.714,215.43z M1918.147,111.43c3.72,0,6.729,3.014,6.729,6.732
	c0,3.718-3.014,6.732-6.729,6.732c-3.721,0-6.73-3.014-6.73-6.732C1911.412,114.444,1914.425,111.43,1918.147,111.43z
	 M1918.147,163.43c3.72,0,6.729,3.014,6.729,6.732c0,3.718-3.014,6.732-6.729,6.732c-3.721,0-6.73-3.014-6.73-6.732
	C1911.412,166.444,1914.425,163.43,1918.147,163.43z M1918.147,215.43c3.72,0,6.729,3.014,6.729,6.732
	c0,3.718-3.014,6.732-6.729,6.732c-3.721,0-6.73-3.014-6.73-6.732C1911.412,218.444,1914.425,215.43,1918.147,215.43z
	 M1861.575,59.43c3.72,0,6.729,3.014,6.729,6.732c0,3.718-3.016,6.732-6.729,6.732c-3.719,0-6.731-3.014-6.731-6.732
	C1854.842,62.444,1857.858,59.43,1861.575,59.43z M1861.575,111.43c3.72,0,6.729,3.014,6.729,6.732c0,3.718-3.016,6.732-6.729,6.732
	c-3.719,0-6.731-3.014-6.731-6.732C1854.842,114.444,1857.858,111.43,1861.575,111.43z M1861.575,163.43
	c3.72,0,6.729,3.014,6.729,6.732c0,3.718-3.016,6.732-6.729,6.732c-3.719,0-6.731-3.014-6.731-6.732
	C1854.842,166.444,1857.858,163.43,1861.575,163.43z M1861.575,215.43c3.72,0,6.729,3.014,6.729,6.732
	c0,3.718-3.016,6.732-6.729,6.732c-3.719,0-6.731-3.014-6.731-6.732C1854.842,218.444,1857.858,215.43,1861.575,215.43z
	 M1861.575,267.43c3.72,0,6.729,3.014,6.729,6.732c0,3.718-3.016,6.732-6.729,6.732c-3.719,0-6.731-3.014-6.731-6.732
	C1854.842,270.444,1857.858,267.43,1861.575,267.43z M1805.004,59.43c3.72,0,6.731,3.014,6.731,6.732
	c0,3.718-3.017,6.732-6.731,6.732s-6.729-3.014-6.729-6.732C1798.274,62.444,1801.285,59.43,1805.004,59.43z M1805.004,111.43
	c3.72,0,6.731,3.014,6.731,6.732c0,3.718-3.017,6.732-6.731,6.732s-6.729-3.014-6.729-6.732
	C1798.274,114.444,1801.285,111.43,1805.004,111.43z M1805.004,163.43c3.72,0,6.731,3.014,6.731,6.732
	c0,3.718-3.017,6.732-6.731,6.732s-6.729-3.014-6.729-6.732C1798.274,166.444,1801.285,163.43,1805.004,163.43z M1805.004,215.43
	c3.72,0,6.731,3.014,6.731,6.732c0,3.718-3.017,6.732-6.731,6.732s-6.729-3.014-6.729-6.732
	C1798.274,218.444,1801.285,215.43,1805.004,215.43z M1805.004,267.43c3.72,0,6.731,3.014,6.731,6.732
	c0,3.718-3.017,6.732-6.731,6.732s-6.729-3.014-6.729-6.732C1798.274,270.444,1801.285,267.43,1805.004,267.43z M1748.435,59.43
	c3.721,0,6.729,3.014,6.729,6.732c0,3.718-3.014,6.732-6.729,6.732c-3.72,0-6.729-3.014-6.729-6.732
	C1741.701,62.444,1744.714,59.43,1748.435,59.43z M1748.435,111.43c3.721,0,6.729,3.014,6.729,6.732
	c0,3.718-3.014,6.732-6.729,6.732c-3.72,0-6.729-3.014-6.729-6.732C1741.701,114.444,1744.714,111.43,1748.435,111.43z
	 M1748.435,163.43c3.721,0,6.729,3.014,6.729,6.732c0,3.718-3.014,6.732-6.729,6.732c-3.72,0-6.729-3.014-6.729-6.732
	C1741.701,166.444,1744.714,163.43,1748.435,163.43z M1748.435,215.43c3.721,0,6.729,3.014,6.729,6.732
	c0,3.718-3.014,6.732-6.729,6.732c-3.72,0-6.729-3.014-6.729-6.732C1741.701,218.444,1744.714,215.43,1748.435,215.43z
	 M1748.435,267.43c3.721,0,6.729,3.014,6.729,6.732c0,3.718-3.014,6.732-6.729,6.732c-3.72,0-6.729-3.014-6.729-6.732
	C1741.701,270.444,1744.714,267.43,1748.435,267.43z M1748.435,319.43c3.721,0,6.729,3.015,6.729,6.732
	c0,3.717-3.014,6.731-6.729,6.731c-3.72,0-6.729-3.014-6.729-6.731C1741.702,322.445,1744.714,319.43,1748.435,319.43z
	 M1691.865,111.43c3.72,0,6.729,3.014,6.729,6.732c0,3.718-3.015,6.732-6.729,6.732c-3.719,0-6.731-3.014-6.731-6.732
	C1685.131,114.444,1688.147,111.43,1691.865,111.43z M1691.865,163.43c3.72,0,6.729,3.014,6.729,6.732
	c0,3.718-3.015,6.732-6.729,6.732c-3.719,0-6.731-3.014-6.731-6.732C1685.131,166.444,1688.147,163.43,1691.865,163.43z
	 M1691.865,215.43c3.72,0,6.729,3.014,6.729,6.732c0,3.718-3.015,6.732-6.729,6.732c-3.719,0-6.731-3.014-6.731-6.732
	C1685.131,218.444,1688.147,215.43,1691.865,215.43z M1691.865,267.43c3.72,0,6.729,3.014,6.729,6.732
	c0,3.718-3.015,6.732-6.729,6.732c-3.719,0-6.731-3.014-6.731-6.732C1685.131,270.444,1688.147,267.43,1691.865,267.43z
	 M1691.865,319.43c3.72,0,6.729,3.015,6.729,6.732c0,3.717-3.015,6.731-6.729,6.731c-3.719,0-6.731-3.014-6.731-6.731
	C1685.131,322.445,1688.147,319.43,1691.865,319.43z M1635.293,163.43c3.72,0,6.731,3.014,6.731,6.732
	c0,3.718-3.017,6.732-6.731,6.732c-3.716,0-6.73-3.014-6.73-6.732C1628.563,166.444,1631.575,163.43,1635.293,163.43z
	 M1635.293,215.43c3.72,0,6.731,3.014,6.731,6.732c0,3.718-3.017,6.732-6.731,6.732c-3.716,0-6.73-3.014-6.73-6.732
	C1628.563,218.444,1631.575,215.43,1635.293,215.43z M1635.293,267.43c3.72,0,6.731,3.014,6.731,6.732
	c0,3.718-3.017,6.732-6.731,6.732c-3.716,0-6.73-3.014-6.73-6.732C1628.563,270.444,1631.575,267.43,1635.293,267.43z
	 M1635.293,319.43c3.72,0,6.731,3.015,6.731,6.732c0,3.717-3.017,6.731-6.731,6.731c-3.716,0-6.73-3.014-6.73-6.731
	C1628.562,322.445,1631.575,319.43,1635.293,319.43z M1635.293,371.43c3.72,0,6.731,3.015,6.731,6.732
	c0,3.717-3.017,6.731-6.731,6.731c-3.716,0-6.73-3.014-6.73-6.731C1628.562,374.445,1631.575,371.43,1635.293,371.43z
	 M1578.724,215.43c3.721,0,6.729,3.014,6.729,6.732c0,3.718-3.014,6.732-6.729,6.732c-3.72,0-6.73-3.014-6.73-6.732
	C1571.991,218.444,1575.004,215.43,1578.724,215.43z M1578.724,267.43c3.721,0,6.729,3.014,6.729,6.732
	c0,3.718-3.014,6.732-6.729,6.732c-3.72,0-6.73-3.014-6.73-6.732C1571.991,270.444,1575.004,267.43,1578.724,267.43z
	 M1578.724,319.43c3.721,0,6.729,3.015,6.729,6.732c0,3.717-3.014,6.731-6.729,6.731c-3.72,0-6.73-3.014-6.73-6.731
	C1571.992,322.445,1575.004,319.43,1578.724,319.43z M1578.724,371.43c3.721,0,6.729,3.015,6.729,6.732
	c0,3.717-3.014,6.731-6.729,6.731c-3.72,0-6.73-3.014-6.73-6.731C1571.992,374.445,1575.004,371.43,1578.724,371.43z
	 M1578.724,423.43c3.721,0,6.729,3.019,6.729,6.732s-3.014,6.729-6.729,6.729c-3.72,0-6.73-3.014-6.73-6.729
	S1575.004,423.43,1578.724,423.43z M1409.013,436.895c-3.722,0-6.731-3.014-6.731-6.729s3.015-6.732,6.731-6.732
	c3.72,0,6.729,3.019,6.729,6.732S1412.733,436.895,1409.013,436.895z M1409.013,384.895c-3.722,0-6.731-3.014-6.731-6.731
	s3.015-6.732,6.731-6.732c3.72,0,6.729,3.015,6.729,6.732S1412.733,384.895,1409.013,384.895z M1522.155,267.43
	c3.719,0,6.729,3.014,6.729,6.732c0,3.718-3.015,6.732-6.729,6.732c-3.72,0-6.731-3.014-6.731-6.732
	C1515.42,270.444,1518.435,267.43,1522.155,267.43z M1522.155,319.43c3.719,0,6.729,3.015,6.729,6.732
	c0,3.717-3.015,6.731-6.729,6.731c-3.72,0-6.731-3.014-6.731-6.731C1515.42,322.445,1518.435,319.43,1522.155,319.43z
	 M1522.155,371.43c3.719,0,6.729,3.015,6.729,6.732c0,3.717-3.015,6.731-6.729,6.731c-3.72,0-6.731-3.014-6.731-6.731
	C1515.42,374.445,1518.435,371.43,1522.155,371.43z M1522.155,423.43c3.719,0,6.729,3.019,6.729,6.732s-3.015,6.729-6.729,6.729
	c-3.72,0-6.731-3.014-6.731-6.729S1518.435,423.43,1522.155,423.43z M1465.582,319.43c3.72,0,6.732,3.015,6.732,6.732
	c0,3.717-3.018,6.731-6.732,6.731c-3.714,0-6.731-3.014-6.731-6.731C1458.852,322.445,1461.865,319.43,1465.582,319.43z
	 M1465.582,371.43c3.72,0,6.732,3.015,6.732,6.732c0,3.717-3.018,6.731-6.732,6.731c-3.714,0-6.731-3.014-6.731-6.731
	C1458.852,374.445,1461.865,371.43,1465.582,371.43z M1465.582,423.43c3.72,0,6.732,3.019,6.732,6.732s-3.018,6.729-6.732,6.729
	c-3.714,0-6.731-3.014-6.731-6.729S1461.865,423.43,1465.582,423.43z M1458.851,482.162c0-3.719,3.016-6.732,6.729-6.732
	c3.715,0,6.732,3.019,6.732,6.732s-3.018,6.729-6.732,6.729C1461.866,488.891,1458.851,485.881,1458.851,482.162z M2748.694,684.88
	c-13.729-22.787,4.604-46.396,5.875-50.612c1.271-4.216-3.646-13.574-3.646-13.574s-3.261-5.078-35.985-51.447
	c-32.729-46.365-98.916-125.394-98.916-125.394c-97.489-123.005-184.938-187.765-204.088-204.312
	c-19.146-16.554-37.554-11.135-37.554-11.135s-360.513,33.059-423.582,40.072c-63.071,7.017-143.728,58.338-143.728,58.338
	L1481.767,506.71c-15.989,6.937-8.175,15.816-8.175,15.816l12.688,12.271c44.368,48.111,42.773,66.354,51.779,100.459
	c9.005,34.109,6.839,116.441,4.902,132.154c-1.933,15.711,19.09,5.156,19.09,5.156s20.543-8.65,77.14-30.98
	c56.599-22.332,158.317-64.717,234.14-91.844c75.815-27.125,157.812-46.619,157.812-46.619c70.242-13.865,99.384-7.854,99.384-7.854
	c20.916,2.341,29.332,7.459,29.332,7.459c8.804,8.016-6.108,9.283-6.108,9.283l-43.121,7.646
	c-44.084,5.932-70.86,20.202-70.86,20.202c-8.881,7.814,7.024,11.192,7.024,11.192s-1.854-0.118,28.074,3.581
	s245.088,38.764,245.088,38.764s191.406,38.993,247.826,50.902c56.42,11.906,168.402,45.771,190.48,51.259
	c22.075,5.492,31.2-0.52,44.229-4.848s-1.834-21.828-1.834-21.828S2762.42,707.667,2748.694,684.88z M1522.155,540.895
	c-3.721,0-6.731-3.014-6.731-6.729s3.016-6.732,6.731-6.732c3.717,0,6.729,3.019,6.729,6.732S1525.871,540.895,1522.155,540.895z
	 M1578.724,748.894c-3.721,0-6.73-3.013-6.73-6.729s3.015-6.732,6.73-6.732c3.72,0,6.729,3.019,6.729,6.732
	S1582.444,748.894,1578.724,748.894z M1578.724,696.895c-3.721,0-6.73-3.014-6.73-6.729s3.015-6.732,6.73-6.732
	c3.72,0,6.729,3.019,6.729,6.732S1582.444,696.895,1578.724,696.895z M1578.724,644.895c-3.721,0-6.73-3.014-6.73-6.729
	s3.015-6.732,6.73-6.732c3.72,0,6.729,3.019,6.729,6.732S1582.444,644.895,1578.724,644.895z M1578.724,592.895
	c-3.721,0-6.73-3.014-6.73-6.729s3.015-6.732,6.73-6.732c3.72,0,6.729,3.019,6.729,6.732S1582.444,592.895,1578.724,592.895z
	 M1578.724,540.895c-3.721,0-6.73-3.014-6.73-6.729s3.015-6.732,6.73-6.732c3.72,0,6.729,3.019,6.729,6.732
	S1582.444,540.895,1578.724,540.895z M1578.724,488.895c-3.721,0-6.73-3.014-6.73-6.729s3.015-6.732,6.73-6.732
	c3.72,0,6.729,3.019,6.729,6.732S1582.444,488.895,1578.724,488.895z M1635.293,696.895c-3.72,0-6.73-3.014-6.73-6.729
	s3.016-6.732,6.73-6.732c3.714,0,6.731,3.019,6.731,6.732S1639.013,696.895,1635.293,696.895z M1635.293,644.895
	c-3.72,0-6.73-3.014-6.73-6.729s3.016-6.732,6.73-6.732c3.714,0,6.731,3.019,6.731,6.732S1639.013,644.895,1635.293,644.895z
	 M1635.293,592.895c-3.72,0-6.73-3.014-6.73-6.729s3.016-6.732,6.73-6.732c3.714,0,6.731,3.019,6.731,6.732
	S1639.013,592.895,1635.293,592.895z M1635.293,540.895c-3.72,0-6.73-3.014-6.73-6.729s3.016-6.732,6.73-6.732
	c3.714,0,6.731,3.019,6.731,6.732S1639.013,540.895,1635.293,540.895z M1635.293,488.895c-3.72,0-6.73-3.014-6.73-6.729
	s3.016-6.732,6.73-6.732c3.714,0,6.731,3.019,6.731,6.732S1639.013,488.895,1635.293,488.895z M1691.865,696.895
	c-3.719,0-6.731-3.014-6.731-6.729s3.016-6.732,6.731-6.732s6.729,3.019,6.729,6.732S1695.582,696.895,1691.865,696.895z
	 M1691.865,644.895c-3.719,0-6.731-3.014-6.731-6.729s3.016-6.732,6.731-6.732s6.729,3.019,6.729,6.732
	S1695.582,644.895,1691.865,644.895z M1691.865,592.895c-3.719,0-6.731-3.014-6.731-6.729s3.016-6.732,6.731-6.732
	s6.729,3.019,6.729,6.732S1695.582,592.895,1691.865,592.895z M1691.865,540.895c-3.719,0-6.731-3.014-6.731-6.729
	s3.016-6.732,6.731-6.732s6.729,3.019,6.729,6.732S1695.582,540.895,1691.865,540.895z M1691.865,488.895
	c-3.719,0-6.731-3.014-6.731-6.729s3.016-6.732,6.731-6.732s6.729,3.019,6.729,6.732S1695.582,488.895,1691.865,488.895z
	 M1691.865,436.895c-3.719,0-6.731-3.014-6.731-6.729s3.016-6.732,6.731-6.732s6.729,3.019,6.729,6.732
	S1695.582,436.895,1691.865,436.895z M1748.435,644.895c-3.721,0-6.729-3.014-6.729-6.729s3.014-6.732,6.729-6.732
	c3.72,0,6.729,3.019,6.729,6.732S1752.155,644.895,1748.435,644.895z M1748.435,592.895c-3.721,0-6.729-3.014-6.729-6.729
	s3.014-6.732,6.729-6.732c3.72,0,6.729,3.019,6.729,6.732S1752.155,592.895,1748.435,592.895z M1748.435,540.895
	c-3.721,0-6.729-3.014-6.729-6.729s3.014-6.732,6.729-6.732c3.72,0,6.729,3.019,6.729,6.732S1752.155,540.895,1748.435,540.895z
	 M1748.435,488.895c-3.721,0-6.729-3.014-6.729-6.729s3.014-6.732,6.729-6.732c3.72,0,6.729,3.019,6.729,6.732
	S1752.155,488.895,1748.435,488.895z M1748.435,436.895c-3.721,0-6.729-3.014-6.729-6.729s3.014-6.732,6.729-6.732
	c3.72,0,6.729,3.019,6.729,6.732S1752.155,436.895,1748.435,436.895z M1748.435,384.895c-3.721,0-6.729-3.014-6.729-6.731
	s3.014-6.732,6.729-6.732c3.72,0,6.729,3.015,6.729,6.732S1752.155,384.895,1748.435,384.895z M1805.004,644.895
	c-3.72,0-6.729-3.014-6.729-6.729s3.015-6.732,6.729-6.732s6.731,3.019,6.731,6.732S1808.724,644.895,1805.004,644.895z
	 M1805.004,592.895c-3.72,0-6.729-3.014-6.729-6.729s3.015-6.732,6.729-6.732s6.731,3.019,6.731,6.732
	S1808.724,592.895,1805.004,592.895z M1805.004,540.895c-3.72,0-6.729-3.014-6.729-6.729s3.015-6.732,6.729-6.732
	s6.731,3.019,6.731,6.732S1808.724,540.895,1805.004,540.895z M1805.004,488.895c-3.72,0-6.729-3.014-6.729-6.729
	s3.015-6.732,6.729-6.732s6.731,3.019,6.731,6.732S1808.724,488.895,1805.004,488.895z M1805.004,436.895
	c-3.72,0-6.729-3.014-6.729-6.729s3.015-6.732,6.729-6.732s6.731,3.019,6.731,6.732S1808.724,436.895,1805.004,436.895z
	 M1805.004,384.895c-3.72,0-6.729-3.014-6.729-6.731s3.015-6.732,6.729-6.732s6.731,3.015,6.731,6.732
	S1808.724,384.895,1805.004,384.895z M1861.575,644.895c-3.719,0-6.731-3.014-6.731-6.729s3.016-6.732,6.731-6.732
	c3.717,0,6.729,3.019,6.729,6.732S1865.293,644.895,1861.575,644.895z M1861.575,592.895c-3.719,0-6.731-3.014-6.731-6.729
	s3.016-6.732,6.731-6.732c3.717,0,6.729,3.019,6.729,6.732S1865.293,592.895,1861.575,592.895z M1861.575,540.895
	c-3.719,0-6.731-3.014-6.731-6.729s3.016-6.732,6.731-6.732c3.717,0,6.729,3.019,6.729,6.732S1865.293,540.895,1861.575,540.895z
	 M1861.575,488.895c-3.719,0-6.731-3.014-6.731-6.729s3.016-6.732,6.731-6.732c3.717,0,6.729,3.019,6.729,6.732
	S1865.293,488.895,1861.575,488.895z M1861.575,436.895c-3.719,0-6.731-3.014-6.731-6.729s3.016-6.732,6.731-6.732
	c3.717,0,6.729,3.019,6.729,6.732S1865.293,436.895,1861.575,436.895z M1861.575,384.895c-3.719,0-6.731-3.014-6.731-6.731
	s3.016-6.732,6.731-6.732c3.717,0,6.729,3.015,6.729,6.732S1865.293,384.895,1861.575,384.895z M1861.575,332.895
	c-3.719,0-6.731-3.014-6.731-6.731s3.016-6.732,6.731-6.732c3.717,0,6.729,3.015,6.729,6.732S1865.293,332.895,1861.575,332.895z
	 M1918.147,592.895c-3.722,0-6.73-3.014-6.73-6.729s3.014-6.732,6.73-6.732c3.719,0,6.729,3.019,6.729,6.732
	S1921.865,592.895,1918.147,592.895z M1918.147,540.895c-3.722,0-6.73-3.014-6.73-6.729s3.014-6.732,6.73-6.732
	c3.719,0,6.729,3.019,6.729,6.732S1921.865,540.895,1918.147,540.895z M1918.147,488.895c-3.722,0-6.73-3.014-6.73-6.729
	s3.014-6.732,6.73-6.732c3.719,0,6.729,3.019,6.729,6.732S1921.865,488.895,1918.147,488.895z M1918.147,436.895
	c-3.722,0-6.73-3.014-6.73-6.729s3.014-6.732,6.73-6.732c3.719,0,6.729,3.019,6.729,6.732S1921.865,436.895,1918.147,436.895z
	 M1918.147,384.895c-3.722,0-6.73-3.014-6.73-6.731s3.014-6.732,6.73-6.732c3.719,0,6.729,3.015,6.729,6.732
	S1921.865,384.895,1918.147,384.895z M1918.147,332.895c-3.722,0-6.73-3.014-6.73-6.731s3.014-6.732,6.73-6.732
	c3.719,0,6.729,3.015,6.729,6.732S1921.865,332.895,1918.147,332.895z M1974.714,592.895c-3.72,0-6.729-3.014-6.729-6.729
	s3.014-6.732,6.729-6.732c3.715,0,6.731,3.019,6.731,6.732S1978.435,592.895,1974.714,592.895z M1974.714,540.895
	c-3.72,0-6.729-3.014-6.729-6.729s3.014-6.732,6.729-6.732c3.715,0,6.731,3.019,6.731,6.732S1978.435,540.895,1974.714,540.895z
	 M1974.714,488.895c-3.72,0-6.729-3.014-6.729-6.729s3.014-6.732,6.729-6.732c3.715,0,6.731,3.019,6.731,6.732
	S1978.435,488.895,1974.714,488.895z M1974.714,436.895c-3.72,0-6.729-3.014-6.729-6.729s3.014-6.732,6.729-6.732
	c3.715,0,6.731,3.019,6.731,6.732S1978.435,436.895,1974.714,436.895z M1974.714,384.895c-3.72,0-6.729-3.014-6.729-6.731
	s3.014-6.732,6.729-6.732c3.715,0,6.731,3.015,6.731,6.732S1978.435,384.895,1974.714,384.895z M1974.714,332.895
	c-3.72,0-6.729-3.014-6.729-6.731s3.014-6.732,6.729-6.732c3.715,0,6.731,3.015,6.731,6.732S1978.435,332.895,1974.714,332.895z
	 M2031.285,592.895c-3.719,0-6.731-3.014-6.731-6.729s3.018-6.732,6.731-6.732c3.715,0,6.732,3.019,6.732,6.732
	S2035.004,592.895,2031.285,592.895z M2031.285,540.895c-3.719,0-6.731-3.014-6.731-6.729s3.018-6.732,6.731-6.732
	c3.715,0,6.732,3.019,6.732,6.732S2035.004,540.895,2031.285,540.895z M2031.285,488.895c-3.719,0-6.731-3.014-6.731-6.729
	s3.018-6.732,6.731-6.732c3.715,0,6.732,3.019,6.732,6.732S2035.004,488.895,2031.285,488.895z M2031.285,436.895
	c-3.719,0-6.731-3.014-6.731-6.729s3.018-6.732,6.731-6.732c3.715,0,6.732,3.019,6.732,6.732S2035.004,436.895,2031.285,436.895z
	 M2031.285,384.895c-3.719,0-6.731-3.014-6.731-6.731s3.018-6.732,6.731-6.732c3.715,0,6.732,3.015,6.732,6.732
	S2035.004,384.895,2031.285,384.895z M2031.285,332.895c-3.719,0-6.731-3.014-6.731-6.731s3.018-6.732,6.731-6.732
	c3.715,0,6.732,3.015,6.732,6.732S2035.004,332.895,2031.285,332.895z M2031.285,280.895c-3.719,0-6.731-3.014-6.731-6.732
	c0-3.718,3.018-6.732,6.731-6.732c3.715,0,6.732,3.014,6.732,6.732C2038.019,277.881,2035.004,280.895,2031.285,280.895z
	 M2087.858,540.895c-3.722,0-6.732-3.014-6.732-6.729s3.016-6.732,6.732-6.732s6.729,3.019,6.729,6.732
	S2091.575,540.895,2087.858,540.895z M2087.858,488.895c-3.722,0-6.732-3.014-6.732-6.729s3.016-6.732,6.732-6.732
	s6.729,3.019,6.729,6.732S2091.575,488.895,2087.858,488.895z M2087.858,436.895c-3.722,0-6.732-3.014-6.732-6.729
	s3.016-6.732,6.732-6.732s6.729,3.019,6.729,6.732S2091.575,436.895,2087.858,436.895z M2087.858,384.895
	c-3.722,0-6.732-3.014-6.732-6.731s3.016-6.732,6.732-6.732s6.729,3.015,6.729,6.732S2091.575,384.895,2087.858,384.895z
	 M2087.858,332.895c-3.722,0-6.732-3.014-6.732-6.731s3.016-6.732,6.732-6.732s6.729,3.015,6.729,6.732
	S2091.575,332.895,2087.858,332.895z M2087.858,280.895c-3.722,0-6.732-3.014-6.732-6.732c0-3.718,3.016-6.732,6.732-6.732
	s6.729,3.014,6.729,6.732C2094.586,277.881,2091.575,280.895,2087.858,280.895z M2144.427,540.895c-3.722,0-6.73-3.014-6.73-6.729
	s3.015-6.732,6.73-6.732c3.718,0,6.729,3.019,6.729,6.732S2148.147,540.895,2144.427,540.895z M2144.427,488.895
	c-3.722,0-6.73-3.014-6.73-6.729s3.015-6.732,6.73-6.732c3.718,0,6.729,3.019,6.729,6.732S2148.147,488.895,2144.427,488.895z
	 M2144.427,436.895c-3.722,0-6.73-3.014-6.73-6.729s3.015-6.732,6.73-6.732c3.718,0,6.729,3.019,6.729,6.732
	S2148.147,436.895,2144.427,436.895z M2144.427,384.895c-3.722,0-6.73-3.014-6.73-6.731s3.015-6.732,6.73-6.732
	c3.718,0,6.729,3.015,6.729,6.732S2148.147,384.895,2144.427,384.895z M2144.427,332.895c-3.722,0-6.73-3.014-6.73-6.731
	s3.015-6.732,6.73-6.732c3.718,0,6.729,3.015,6.729,6.732S2148.147,332.895,2144.427,332.895z M2144.427,280.895
	c-3.722,0-6.73-3.014-6.73-6.732c0-3.718,3.015-6.732,6.73-6.732c3.718,0,6.729,3.014,6.729,6.732
	C2151.158,277.881,2148.147,280.895,2144.427,280.895z M2087.858,644.895c-3.722,0-6.732-3.014-6.732-6.729s3.016-6.732,6.732-6.732
	s6.729,3.019,6.729,6.732S2091.575,644.895,2087.858,644.895z M2144.427,644.895c-3.722,0-6.73-3.014-6.73-6.729
	s3.015-6.732,6.73-6.732c3.718,0,6.729,3.019,6.729,6.732S2148.147,644.895,2144.427,644.895z M2200.996,644.895
	c-3.719,0-6.731-3.014-6.731-6.729s3.019-6.732,6.731-6.732c3.715,0,6.732,3.019,6.732,6.732S2204.714,644.895,2200.996,644.895z
	 M2200.996,592.895c-3.719,0-6.731-3.014-6.731-6.729s3.019-6.732,6.731-6.732c3.715,0,6.732,3.019,6.732,6.732
	S2204.714,592.895,2200.996,592.895z M2200.996,540.895c-3.719,0-6.731-3.014-6.731-6.729s3.019-6.732,6.731-6.732
	c3.715,0,6.732,3.019,6.732,6.732S2204.714,540.895,2200.996,540.895z M2200.996,488.895c-3.719,0-6.731-3.014-6.731-6.729
	s3.019-6.732,6.731-6.732c3.715,0,6.732,3.019,6.732,6.732S2204.714,488.895,2200.996,488.895z M2200.996,436.895
	c-3.719,0-6.731-3.014-6.731-6.729s3.019-6.732,6.731-6.732c3.715,0,6.732,3.019,6.732,6.732S2204.714,436.895,2200.996,436.895z
	 M2200.996,384.895c-3.719,0-6.731-3.014-6.731-6.731s3.019-6.732,6.731-6.732c3.715,0,6.732,3.015,6.732,6.732
	S2204.714,384.895,2200.996,384.895z M2200.996,332.895c-3.719,0-6.731-3.014-6.731-6.731s3.019-6.732,6.731-6.732
	c3.715,0,6.732,3.015,6.732,6.732S2204.714,332.895,2200.996,332.895z M2200.996,280.895c-3.719,0-6.731-3.014-6.731-6.732
	c0-3.718,3.019-6.732,6.731-6.732c3.715,0,6.732,3.014,6.732,6.732C2207.731,277.881,2204.714,280.895,2200.996,280.895z
	 M2257.569,644.895c-3.722,0-6.731-3.014-6.731-6.729s3.015-6.732,6.731-6.732s6.729,3.019,6.729,6.732
	S2261.285,644.895,2257.569,644.895z M2257.569,592.895c-3.722,0-6.731-3.014-6.731-6.729s3.015-6.732,6.731-6.732
	s6.729,3.019,6.729,6.732S2261.285,592.895,2257.569,592.895z M2257.569,540.895c-3.722,0-6.731-3.014-6.731-6.729
	s3.015-6.732,6.731-6.732s6.729,3.019,6.729,6.732S2261.285,540.895,2257.569,540.895z M2257.569,488.895
	c-3.722,0-6.731-3.014-6.731-6.729s3.015-6.732,6.731-6.732s6.729,3.019,6.729,6.732S2261.285,488.895,2257.569,488.895z
	 M2257.569,436.895c-3.722,0-6.731-3.014-6.731-6.729s3.015-6.732,6.731-6.732s6.729,3.019,6.729,6.732
	S2261.285,436.895,2257.569,436.895z M2257.569,384.895c-3.722,0-6.731-3.014-6.731-6.731s3.015-6.732,6.731-6.732
	s6.729,3.015,6.729,6.732S2261.285,384.895,2257.569,384.895z M2257.569,332.895c-3.722,0-6.731-3.014-6.731-6.731
	s3.015-6.732,6.731-6.732s6.729,3.015,6.729,6.732S2261.285,332.895,2257.569,332.895z M2257.569,280.895
	c-3.722,0-6.731-3.014-6.731-6.732c0-3.718,3.015-6.732,6.731-6.732s6.729,3.014,6.729,6.732
	C2264.298,277.881,2261.285,280.895,2257.569,280.895z M2314.138,644.895c-3.722,0-6.73-3.014-6.73-6.729s3.015-6.732,6.73-6.732
	c3.718,0,6.729,3.019,6.729,6.732S2317.858,644.895,2314.138,644.895z M2314.138,592.895c-3.722,0-6.73-3.014-6.73-6.729
	s3.015-6.732,6.73-6.732c3.718,0,6.729,3.019,6.729,6.732S2317.858,592.895,2314.138,592.895z M2314.138,540.895
	c-3.722,0-6.73-3.014-6.73-6.729s3.015-6.732,6.73-6.732c3.718,0,6.729,3.019,6.729,6.732S2317.858,540.895,2314.138,540.895z
	 M2314.138,488.895c-3.722,0-6.73-3.014-6.73-6.729s3.015-6.732,6.73-6.732c3.718,0,6.729,3.019,6.729,6.732
	S2317.858,488.895,2314.138,488.895z M2314.138,436.895c-3.722,0-6.73-3.014-6.73-6.729s3.015-6.732,6.73-6.732
	c3.718,0,6.729,3.019,6.729,6.732S2317.858,436.895,2314.138,436.895z M2314.138,384.895c-3.722,0-6.73-3.014-6.73-6.731
	s3.015-6.732,6.73-6.732c3.718,0,6.729,3.015,6.729,6.732S2317.858,384.895,2314.138,384.895z M2314.138,332.895
	c-3.722,0-6.73-3.014-6.73-6.731s3.015-6.732,6.73-6.732c3.718,0,6.729,3.015,6.729,6.732S2317.858,332.895,2314.138,332.895z
	 M2314.138,280.895c-3.722,0-6.73-3.014-6.73-6.732c0-3.718,3.015-6.732,6.73-6.732c3.718,0,6.729,3.014,6.729,6.732
	C2320.868,277.881,2317.858,280.895,2314.138,280.895z M2370.707,644.895c-3.719,0-6.729-3.014-6.729-6.729s3.017-6.732,6.729-6.732
	c3.715,0,6.732,3.019,6.732,6.732S2374.427,644.895,2370.707,644.895z M2370.707,592.895c-3.719,0-6.729-3.014-6.729-6.729
	s3.017-6.732,6.729-6.732c3.715,0,6.732,3.019,6.732,6.732S2374.427,592.895,2370.707,592.895z M2370.707,540.895
	c-3.719,0-6.729-3.014-6.729-6.729s3.017-6.732,6.729-6.732c3.715,0,6.732,3.019,6.732,6.732S2374.427,540.895,2370.707,540.895z
	 M2370.707,488.895c-3.719,0-6.729-3.014-6.729-6.729s3.017-6.732,6.729-6.732c3.715,0,6.732,3.019,6.732,6.732
	S2374.427,488.895,2370.707,488.895z M2370.707,436.895c-3.719,0-6.729-3.014-6.729-6.729s3.017-6.732,6.729-6.732
	c3.715,0,6.732,3.019,6.732,6.732S2374.427,436.895,2370.707,436.895z M2370.707,384.895c-3.719,0-6.729-3.014-6.729-6.731
	s3.017-6.732,6.729-6.732c3.715,0,6.732,3.015,6.732,6.732S2374.427,384.895,2370.707,384.895z M2370.707,332.895
	c-3.719,0-6.729-3.014-6.729-6.731s3.017-6.732,6.729-6.732c3.715,0,6.732,3.015,6.732,6.732S2374.427,332.895,2370.707,332.895z
	 M2370.707,280.895c-3.719,0-6.729-3.014-6.729-6.732c0-3.718,3.017-6.732,6.729-6.732c3.715,0,6.732,3.014,6.732,6.732
	C2377.442,277.881,2374.427,280.895,2370.707,280.895z M2427.28,696.895c-3.72,0-6.731-3.014-6.731-6.729s3.015-6.732,6.731-6.732
	s6.729,3.019,6.729,6.732S2430.996,696.895,2427.28,696.895z M2427.28,644.895c-3.72,0-6.731-3.014-6.731-6.729
	s3.015-6.732,6.731-6.732s6.729,3.019,6.729,6.732S2430.996,644.895,2427.28,644.895z M2427.28,592.895
	c-3.72,0-6.731-3.014-6.731-6.729s3.015-6.732,6.731-6.732s6.729,3.019,6.729,6.732S2430.996,592.895,2427.28,592.895z
	 M2427.28,540.895c-3.72,0-6.731-3.014-6.731-6.729s3.015-6.732,6.731-6.732s6.729,3.019,6.729,6.732
	S2430.996,540.895,2427.28,540.895z M2427.28,488.895c-3.72,0-6.731-3.014-6.731-6.729s3.015-6.732,6.731-6.732
	s6.729,3.019,6.729,6.732S2430.996,488.895,2427.28,488.895z M2427.28,436.895c-3.72,0-6.731-3.014-6.731-6.729
	s3.015-6.732,6.731-6.732s6.729,3.019,6.729,6.732S2430.996,436.895,2427.28,436.895z M2427.28,384.895
	c-3.72,0-6.731-3.014-6.731-6.731s3.015-6.732,6.731-6.732s6.729,3.015,6.729,6.732S2430.996,384.895,2427.28,384.895z
	 M2427.28,332.895c-3.72,0-6.731-3.014-6.731-6.731s3.015-6.732,6.731-6.732s6.729,3.015,6.729,6.732
	S2430.996,332.895,2427.28,332.895z M2427.28,280.895c-3.72,0-6.731-3.014-6.731-6.732c0-3.718,3.015-6.732,6.731-6.732
	s6.729,3.014,6.729,6.732C2434.011,277.881,2430.996,280.895,2427.28,280.895z M2483.849,696.895c-3.721,0-6.729-3.014-6.729-6.729
	s3.014-6.732,6.729-6.732c3.718,0,6.729,3.019,6.729,6.732S2487.569,696.895,2483.849,696.895z M2483.849,644.895
	c-3.721,0-6.729-3.014-6.729-6.729s3.014-6.732,6.729-6.732c3.718,0,6.729,3.019,6.729,6.732S2487.569,644.895,2483.849,644.895z
	 M2483.849,592.895c-3.721,0-6.729-3.014-6.729-6.729s3.014-6.732,6.729-6.732c3.718,0,6.729,3.019,6.729,6.732
	S2487.569,592.895,2483.849,592.895z M2483.849,540.895c-3.721,0-6.729-3.014-6.729-6.729s3.014-6.732,6.729-6.732
	c3.718,0,6.729,3.019,6.729,6.732S2487.569,540.895,2483.849,540.895z M2483.849,488.895c-3.721,0-6.729-3.014-6.729-6.729
	s3.014-6.732,6.729-6.732c3.718,0,6.729,3.019,6.729,6.732S2487.569,488.895,2483.849,488.895z M2483.849,436.895
	c-3.721,0-6.729-3.014-6.729-6.729s3.014-6.732,6.729-6.732c3.718,0,6.729,3.019,6.729,6.732S2487.569,436.895,2483.849,436.895z
	 M2483.849,384.895c-3.721,0-6.729-3.014-6.729-6.731s3.014-6.732,6.729-6.732c3.718,0,6.729,3.015,6.729,6.732
	S2487.569,384.895,2483.849,384.895z M2483.849,332.895c-3.721,0-6.729-3.014-6.729-6.731s3.014-6.732,6.729-6.732
	c3.718,0,6.729,3.015,6.729,6.732S2487.569,332.895,2483.849,332.895z M2540.418,696.895c-3.72,0-6.729-3.014-6.729-6.729
	s3.015-6.732,6.729-6.732c3.716,0,6.73,3.019,6.73,6.732S2544.138,696.895,2540.418,696.895z M2540.418,644.895
	c-3.72,0-6.729-3.014-6.729-6.729s3.015-6.732,6.729-6.732c3.716,0,6.73,3.019,6.73,6.732S2544.138,644.895,2540.418,644.895z
	 M2540.418,592.895c-3.72,0-6.729-3.014-6.729-6.729s3.015-6.732,6.729-6.732c3.716,0,6.73,3.019,6.73,6.732
	S2544.138,592.895,2540.418,592.895z M2540.418,540.895c-3.72,0-6.729-3.014-6.729-6.729s3.015-6.732,6.729-6.732
	c3.716,0,6.73,3.019,6.73,6.732S2544.138,540.895,2540.418,540.895z M2540.418,488.895c-3.72,0-6.729-3.014-6.729-6.729
	s3.015-6.732,6.729-6.732c3.716,0,6.73,3.019,6.73,6.732S2544.138,488.895,2540.418,488.895z M2540.418,436.895
	c-3.72,0-6.729-3.014-6.729-6.729s3.015-6.732,6.729-6.732c3.716,0,6.73,3.019,6.73,6.732S2544.138,436.895,2540.418,436.895z
	 M2540.418,384.895c-3.72,0-6.729-3.014-6.729-6.731s3.015-6.732,6.729-6.732c3.716,0,6.73,3.015,6.73,6.732
	S2544.138,384.895,2540.418,384.895z M2596.99,696.895c-3.719,0-6.73-3.014-6.73-6.729s3.015-6.732,6.73-6.732
	s6.729,3.019,6.729,6.732S2600.707,696.895,2596.99,696.895z M2596.99,644.895c-3.719,0-6.73-3.014-6.73-6.729
	s3.015-6.732,6.73-6.732s6.729,3.019,6.729,6.732S2600.707,644.895,2596.99,644.895z M2596.99,592.895
	c-3.719,0-6.73-3.014-6.73-6.729s3.015-6.732,6.73-6.732s6.729,3.019,6.729,6.732S2600.707,592.895,2596.99,592.895z
	 M2596.99,540.895c-3.719,0-6.73-3.014-6.73-6.729s3.015-6.732,6.73-6.732s6.729,3.019,6.729,6.732
	S2600.707,540.895,2596.99,540.895z M2596.99,488.895c-3.719,0-6.73-3.014-6.73-6.729s3.015-6.732,6.73-6.732
	s6.729,3.019,6.729,6.732S2600.707,488.895,2596.99,488.895z M2653.56,748.894c-3.721,0-6.729-3.013-6.729-6.729
	s3.014-6.732,6.729-6.732c3.72,0,6.729,3.019,6.729,6.732S2657.28,748.894,2653.56,748.894z M2653.56,696.895
	c-3.721,0-6.729-3.014-6.729-6.729s3.014-6.732,6.729-6.732c3.72,0,6.729,3.019,6.729,6.732S2657.28,696.895,2653.56,696.895z
	 M2653.56,644.895c-3.721,0-6.729-3.014-6.729-6.729s3.014-6.732,6.729-6.732c3.72,0,6.729,3.019,6.729,6.732
	S2657.28,644.895,2653.56,644.895z M2653.56,592.895c-3.721,0-6.729-3.014-6.729-6.729s3.014-6.732,6.729-6.732
	c3.72,0,6.729,3.019,6.729,6.732S2657.28,592.895,2653.56,592.895z M2653.56,540.895c-3.721,0-6.729-3.014-6.729-6.729
	s3.014-6.732,6.729-6.732c3.72,0,6.729,3.019,6.729,6.732S2657.28,540.895,2653.56,540.895z M2710.129,748.894
	c-3.72,0-6.729-3.013-6.729-6.729s3.015-6.732,6.729-6.732c3.716,0,6.73,3.019,6.73,6.732S2713.849,748.894,2710.129,748.894z
	 M2710.129,696.895c-3.72,0-6.729-3.014-6.729-6.729s3.015-6.732,6.729-6.732c3.716,0,6.73,3.019,6.73,6.732
	S2713.849,696.895,2710.129,696.895z M2710.129,644.895c-3.72,0-6.729-3.014-6.729-6.729s3.015-6.732,6.729-6.732
	c3.716,0,6.73,3.019,6.73,6.732S2713.849,644.895,2710.129,644.895z M2766.7,748.894c-3.719,0-6.73-3.013-6.73-6.729
	s3.015-6.732,6.73-6.732s6.729,3.019,6.729,6.732S2770.418,748.894,2766.7,748.894z"/>
</svg>
