<?xml version="1.0" encoding="utf-8"?>
<!-- Generator: Adobe Illustrator 16.0.0, SVG Export Plug-In . SVG Version: 6.00 Build 0)  -->
<!DOCTYPE svg PUBLIC "-//W3C//DTD SVG 1.1//EN" "http://www.w3.org/Graphics/SVG/1.1/DTD/svg11.dtd">
<svg version="1.1" id="Layer_1" xmlns="http://www.w3.org/2000/svg" xmlns:xlink="http://www.w3.org/1999/xlink" x="0px" y="0px"
	 width="859.797px" height="391.477px" viewBox="0 0 859.797 391.477" enable-background="new 0 0 859.797 391.477"
	 xml:space="preserve">
<path d="M461.181,0.985c-127.483-3.845-233.2,3.289-307.104,26.468L0,159.485l449.646,231.991l386.801-58.693l23.351-27.334
	C737.954,187.615,604.416,87.118,461.181,0.985z M62.19,140.4c-3.719,0-6.73-3.016-6.73-6.73s3.015-6.73,6.73-6.73
	c3.719,0,6.731,3.016,6.731,6.73S65.909,140.4,62.19,140.4z M118.761,192.4c-3.72,0-6.732-3.016-6.732-6.73s3.016-6.73,6.732-6.73
	s6.731,3.016,6.731,6.73S122.479,192.4,118.761,192.4z M118.761,140.4c-3.72,0-6.732-3.016-6.732-6.73s3.016-6.73,6.732-6.73
	s6.731,3.016,6.731,6.73S122.479,140.4,118.761,140.4z M118.761,88.4c-3.72,0-6.732-3.016-6.732-6.73s3.016-6.73,6.732-6.73
	s6.731,3.016,6.731,6.73S122.479,88.4,118.761,88.4z M175.331,192.4c-3.721,0-6.731-3.016-6.731-6.73s3.014-6.73,6.731-6.73
	c3.717,0,6.73,3.016,6.73,6.73S179.05,192.4,175.331,192.4z M175.331,140.4c-3.721,0-6.731-3.016-6.731-6.73s3.014-6.73,6.731-6.73
	c3.717,0,6.73,3.016,6.73,6.73S179.05,140.4,175.331,140.4z M175.331,88.4c-3.721,0-6.731-3.016-6.731-6.73s3.014-6.73,6.731-6.73
	c3.717,0,6.73,3.016,6.73,6.73S179.05,88.4,175.331,88.4z M231.901,244.397c-3.719,0-6.73-3.016-6.73-6.729s3.015-6.729,6.73-6.729
	c3.719,0,6.731,3.016,6.731,6.729S235.62,244.397,231.901,244.397z M231.901,192.4c-3.719,0-6.73-3.016-6.73-6.73
	s3.015-6.73,6.73-6.73c3.719,0,6.731,3.016,6.731,6.73S235.62,192.4,231.901,192.4z M231.901,140.4c-3.719,0-6.73-3.016-6.73-6.73
	s3.015-6.73,6.73-6.73c3.719,0,6.731,3.016,6.731,6.73S235.62,140.4,231.901,140.4z M231.901,88.4c-3.719,0-6.73-3.016-6.73-6.73
	s3.015-6.73,6.73-6.73c3.719,0,6.731,3.016,6.731,6.73S235.62,88.4,231.901,88.4z M231.901,36.4c-3.719,0-6.73-3.016-6.73-6.73
	s3.015-6.73,6.73-6.73c3.719,0,6.731,3.016,6.731,6.73S235.62,36.4,231.901,36.4z M288.472,296.397c-3.72,0-6.732-3.016-6.732-6.729
	s3.016-6.729,6.732-6.729s6.731,3.016,6.731,6.729S292.19,296.397,288.472,296.397z M288.472,244.397
	c-3.72,0-6.732-3.016-6.732-6.729s3.016-6.729,6.732-6.729s6.731,3.016,6.731,6.729S292.19,244.397,288.472,244.397z M288.472,192.4
	c-3.72,0-6.732-3.016-6.732-6.73s3.016-6.73,6.732-6.73s6.731,3.016,6.731,6.73S292.19,192.4,288.472,192.4z M288.472,140.4
	c-3.72,0-6.732-3.016-6.732-6.73s3.016-6.73,6.732-6.73s6.731,3.016,6.731,6.73S292.19,140.4,288.472,140.4z M288.472,88.4
	c-3.72,0-6.732-3.016-6.732-6.73s3.016-6.73,6.732-6.73s6.731,3.016,6.731,6.73S292.19,88.4,288.472,88.4z M288.472,36.4
	c-3.72,0-6.732-3.016-6.732-6.73s3.016-6.73,6.732-6.73s6.731,3.016,6.731,6.73S292.19,36.4,288.472,36.4z M345.04,296.397
	c-3.719,0-6.729-3.016-6.729-6.729s3.015-6.729,6.729-6.729c3.72,0,6.732,3.016,6.732,6.729S348.761,296.397,345.04,296.397z
	 M345.04,244.397c-3.719,0-6.729-3.016-6.729-6.729s3.015-6.729,6.729-6.729c3.72,0,6.732,3.016,6.732,6.729
	S348.761,244.397,345.04,244.397z M345.04,192.4c-3.719,0-6.729-3.016-6.729-6.73s3.015-6.73,6.729-6.73
	c3.72,0,6.732,3.016,6.732,6.73S348.761,192.4,345.04,192.4z M345.04,140.4c-3.719,0-6.729-3.016-6.729-6.73s3.015-6.73,6.729-6.73
	c3.72,0,6.732,3.016,6.732,6.73S348.761,140.4,345.04,140.4z M345.04,88.4c-3.719,0-6.729-3.016-6.729-6.73s3.015-6.73,6.729-6.73
	c3.72,0,6.732,3.016,6.732,6.73S348.761,88.4,345.04,88.4z M345.04,36.4c-3.719,0-6.729-3.016-6.729-6.73s3.015-6.73,6.729-6.73
	c3.72,0,6.732,3.016,6.732,6.73S348.761,36.4,345.04,36.4z M401.612,348.398c-3.721,0-6.729-3.017-6.729-6.73s3.014-6.73,6.729-6.73
	s6.73,3.017,6.73,6.73S405.329,348.398,401.612,348.398z M401.612,296.397c-3.721,0-6.729-3.016-6.729-6.729
	s3.014-6.729,6.729-6.729s6.73,3.016,6.73,6.729S405.329,296.397,401.612,296.397z M401.612,244.397
	c-3.721,0-6.729-3.016-6.729-6.729s3.014-6.729,6.729-6.729s6.73,3.016,6.73,6.729S405.329,244.397,401.612,244.397z M401.612,192.4
	c-3.721,0-6.729-3.016-6.729-6.73s3.014-6.73,6.729-6.73s6.73,3.016,6.73,6.73S405.329,192.4,401.612,192.4z M401.612,140.4
	c-3.721,0-6.729-3.016-6.729-6.73s3.014-6.73,6.729-6.73s6.73,3.016,6.73,6.73S405.329,140.4,401.612,140.4z M401.612,88.4
	c-3.721,0-6.729-3.016-6.729-6.73s3.014-6.73,6.729-6.73s6.73,3.016,6.73,6.73S405.329,88.4,401.612,88.4z M401.612,36.4
	c-3.721,0-6.729-3.016-6.729-6.73s3.014-6.73,6.729-6.73s6.73,3.016,6.73,6.73S405.329,36.4,401.612,36.4z M458.182,348.398
	c-3.719,0-6.73-3.017-6.73-6.73s3.017-6.73,6.73-6.73c3.72,0,6.729,3.017,6.729,6.73S461.901,348.398,458.182,348.398z
	 M458.182,296.397c-3.719,0-6.73-3.016-6.73-6.729s3.017-6.729,6.73-6.729c3.72,0,6.729,3.016,6.729,6.729
	S461.901,296.397,458.182,296.397z M458.182,244.397c-3.719,0-6.73-3.016-6.73-6.729s3.017-6.729,6.73-6.729
	c3.72,0,6.729,3.016,6.729,6.729S461.901,244.397,458.182,244.397z M458.182,192.4c-3.719,0-6.73-3.016-6.73-6.73
	s3.017-6.73,6.73-6.73c3.72,0,6.729,3.016,6.729,6.73S461.901,192.4,458.182,192.4z M458.182,140.4c-3.719,0-6.73-3.016-6.73-6.73
	s3.017-6.73,6.73-6.73c3.72,0,6.729,3.016,6.729,6.73S461.901,140.4,458.182,140.4z M458.182,88.4c-3.719,0-6.73-3.016-6.73-6.73
	s3.017-6.73,6.73-6.73c3.72,0,6.729,3.016,6.729,6.73S461.901,88.4,458.182,88.4z M458.182,36.4c-3.719,0-6.73-3.016-6.73-6.73
	s3.017-6.73,6.73-6.73c3.72,0,6.729,3.016,6.729,6.73S461.901,36.4,458.182,36.4z M514.753,348.398c-3.722,0-6.732-3.017-6.732-6.73
	s3.016-6.73,6.732-6.73c3.716,0,6.729,3.017,6.729,6.73S518.471,348.398,514.753,348.398z M514.753,296.397
	c-3.722,0-6.732-3.016-6.732-6.729s3.016-6.729,6.732-6.729c3.716,0,6.729,3.016,6.729,6.729S518.471,296.397,514.753,296.397z
	 M514.753,244.397c-3.722,0-6.732-3.016-6.732-6.729s3.016-6.729,6.732-6.729c3.716,0,6.729,3.016,6.729,6.729
	S518.471,244.397,514.753,244.397z M514.753,192.4c-3.722,0-6.732-3.016-6.732-6.73s3.016-6.73,6.732-6.73
	c3.716,0,6.729,3.016,6.729,6.73S518.471,192.4,514.753,192.4z M514.753,140.4c-3.722,0-6.732-3.016-6.732-6.73
	s3.016-6.73,6.732-6.73c3.716,0,6.729,3.016,6.729,6.73S518.471,140.4,514.753,140.4z M514.753,88.4
	c-3.722,0-6.732-3.016-6.732-6.73s3.016-6.73,6.732-6.73c3.716,0,6.729,3.016,6.729,6.73S518.471,88.4,514.753,88.4z
	 M571.323,348.398c-3.72,0-6.729-3.017-6.729-6.73s3.016-6.73,6.729-6.73s6.73,3.017,6.73,6.73S575.041,348.398,571.323,348.398z
	 M571.323,296.397c-3.72,0-6.729-3.016-6.729-6.729s3.016-6.729,6.729-6.729s6.73,3.016,6.73,6.729S575.041,296.397,571.323,296.397
	z M571.323,244.397c-3.72,0-6.729-3.016-6.729-6.729s3.016-6.729,6.729-6.729s6.73,3.016,6.73,6.729
	S575.041,244.397,571.323,244.397z M571.323,192.4c-3.72,0-6.729-3.016-6.729-6.73s3.016-6.73,6.729-6.73s6.73,3.016,6.73,6.73
	S575.041,192.4,571.323,192.4z M571.323,140.4c-3.72,0-6.729-3.016-6.729-6.73s3.016-6.73,6.729-6.73s6.73,3.016,6.73,6.73
	S575.041,140.4,571.323,140.4z M627.893,348.398c-3.719,0-6.73-3.017-6.73-6.73s3.017-6.73,6.73-6.73c3.72,0,6.732,3.017,6.732,6.73
	S631.612,348.398,627.893,348.398z M627.893,296.397c-3.719,0-6.73-3.016-6.73-6.729s3.017-6.729,6.73-6.729
	c3.72,0,6.732,3.016,6.732,6.729S631.612,296.397,627.893,296.397z M627.893,244.397c-3.719,0-6.73-3.016-6.73-6.729
	s3.017-6.729,6.73-6.729c3.72,0,6.732,3.016,6.732,6.729S631.612,244.397,627.893,244.397z M627.893,192.4
	c-3.719,0-6.73-3.016-6.73-6.73s3.017-6.73,6.73-6.73c3.72,0,6.732,3.016,6.732,6.73S631.612,192.4,627.893,192.4z M627.893,140.4
	c-3.719,0-6.73-3.016-6.73-6.73s3.017-6.73,6.73-6.73c3.72,0,6.732,3.016,6.732,6.73S631.612,140.4,627.893,140.4z M684.464,296.397
	c-3.722,0-6.73-3.016-6.73-6.729s3.014-6.729,6.73-6.729c3.716,0,6.729,3.016,6.729,6.729S688.182,296.397,684.464,296.397z
	 M684.464,244.397c-3.722,0-6.73-3.016-6.73-6.729s3.014-6.729,6.73-6.729c3.716,0,6.729,3.016,6.729,6.729
	S688.182,244.397,684.464,244.397z M684.464,192.4c-3.722,0-6.73-3.016-6.73-6.73s3.014-6.73,6.73-6.73
	c3.716,0,6.729,3.016,6.729,6.73S688.182,192.4,684.464,192.4z M741.032,296.397c-3.719,0-6.729-3.016-6.729-6.729
	s3.016-6.729,6.729-6.729c3.718,0,6.73,3.016,6.73,6.729S744.753,296.397,741.032,296.397z M741.032,244.397
	c-3.719,0-6.729-3.016-6.729-6.729s3.016-6.729,6.729-6.729c3.718,0,6.73,3.016,6.73,6.729S744.753,244.397,741.032,244.397z
	 M797.604,296.397c-3.719,0-6.73-3.016-6.73-6.729s3.017-6.729,6.73-6.729c3.72,0,6.732,3.016,6.732,6.729
	S801.323,296.397,797.604,296.397z"/>
</svg>
