<?xml version="1.0" encoding="utf-8"?>
<!-- Generator: Adobe Illustrator 16.0.0, SVG Export Plug-In . SVG Version: 6.00 Build 0)  -->
<!DOCTYPE svg PUBLIC "-//W3C//DTD SVG 1.1//EN" "http://www.w3.org/Graphics/SVG/1.1/DTD/svg11.dtd">
<svg version="1.1" id="Layer_1" xmlns="http://www.w3.org/2000/svg" xmlns:xlink="http://www.w3.org/1999/xlink" x="0px" y="0px"
	 width="922.158px" height="391.477px" viewBox="0 0 922.158 391.477" enable-background="new 0 0 922.158 391.477"
	 xml:space="preserve">
<path fill="none" stroke="#000000" stroke-linejoin="round" stroke-miterlimit="10" d="M62.19,126.937
	c3.717,0,6.73,3.014,6.73,6.731c0,3.717-3.014,6.73-6.73,6.73c-3.718,0-6.731-3.014-6.731-6.73
	C55.459,129.95,58.472,126.937,62.19,126.937z M118.761,178.937c3.717,0,6.73,3.014,6.73,6.731c0,3.717-3.014,6.73-6.73,6.73
	c-3.718,0-6.731-3.014-6.731-6.73C112.03,181.95,115.044,178.937,118.761,178.937z M118.761,126.937c3.717,0,6.73,3.014,6.73,6.731
	c0,3.717-3.014,6.73-6.73,6.73c-3.718,0-6.731-3.014-6.731-6.73C112.03,129.95,115.044,126.937,118.761,126.937z M118.761,74.937
	c3.717,0,6.73,3.014,6.73,6.731c0,3.717-3.014,6.73-6.73,6.73c-3.718,0-6.731-3.014-6.731-6.73
	C112.03,77.95,115.044,74.937,118.761,74.937z M175.331,178.937c3.718,0,6.731,3.014,6.731,6.731c0,3.717-3.014,6.73-6.731,6.73
	c-3.717,0-6.73-3.014-6.73-6.73C168.6,181.95,171.614,178.937,175.331,178.937z M175.331,126.937c3.718,0,6.731,3.014,6.731,6.731
	c0,3.717-3.014,6.73-6.731,6.73c-3.717,0-6.73-3.014-6.73-6.73C168.6,129.95,171.614,126.937,175.331,126.937z M175.331,74.937
	c3.718,0,6.731,3.014,6.731,6.731c0,3.717-3.014,6.73-6.731,6.73c-3.717,0-6.73-3.014-6.73-6.73
	C168.6,77.95,171.614,74.937,175.331,74.937z M231.901,230.937c3.717,0,6.729,3.014,6.729,6.73s-3.013,6.729-6.729,6.729
	s-6.73-3.013-6.73-6.729S228.184,230.937,231.901,230.937z M231.901,178.937c3.718,0,6.73,3.014,6.73,6.731
	c0,3.717-3.013,6.73-6.73,6.73s-6.731-3.014-6.731-6.73C225.17,181.95,228.183,178.937,231.901,178.937z M231.901,126.937
	c3.718,0,6.73,3.014,6.73,6.731c0,3.717-3.013,6.73-6.73,6.73s-6.731-3.014-6.731-6.73
	C225.17,129.95,228.183,126.937,231.901,126.937z M231.901,74.937c3.718,0,6.73,3.014,6.73,6.731c0,3.717-3.013,6.73-6.73,6.73
	s-6.731-3.014-6.731-6.73C225.17,77.95,228.183,74.937,231.901,74.937z M231.901,22.937c3.718,0,6.73,3.014,6.73,6.731
	c0,3.717-3.013,6.73-6.73,6.73s-6.731-3.014-6.731-6.73C225.17,25.95,228.183,22.937,231.901,22.937z M288.472,282.937
	c3.717,0,6.729,3.014,6.729,6.73s-3.013,6.729-6.729,6.729c-3.718,0-6.73-3.013-6.73-6.729S284.755,282.937,288.472,282.937z
	 M288.472,230.937c3.717,0,6.729,3.014,6.729,6.73s-3.013,6.729-6.729,6.729c-3.718,0-6.73-3.013-6.73-6.729
	S284.755,230.937,288.472,230.937z M288.472,178.937c3.717,0,6.73,3.014,6.73,6.731c0,3.717-3.014,6.73-6.73,6.73
	c-3.718,0-6.731-3.014-6.731-6.73C281.741,181.95,284.755,178.937,288.472,178.937z M288.472,126.937c3.717,0,6.73,3.014,6.73,6.731
	c0,3.717-3.014,6.73-6.73,6.73c-3.718,0-6.731-3.014-6.731-6.73C281.741,129.95,284.755,126.937,288.472,126.937z M288.472,74.937
	c3.717,0,6.73,3.014,6.73,6.731c0,3.717-3.014,6.73-6.73,6.73c-3.718,0-6.731-3.014-6.731-6.73
	C281.741,77.95,284.755,74.937,288.472,74.937z M288.472,22.937c3.717,0,6.73,3.014,6.73,6.731c0,3.717-3.014,6.73-6.73,6.73
	c-3.718,0-6.731-3.014-6.731-6.73C281.741,25.95,284.755,22.937,288.472,22.937z M345.042,282.937c3.718,0,6.73,3.014,6.73,6.73
	s-3.013,6.729-6.73,6.729c-3.717,0-6.729-3.013-6.729-6.729S341.325,282.937,345.042,282.937z M345.042,230.937
	c3.718,0,6.73,3.014,6.73,6.73s-3.013,6.729-6.73,6.729c-3.717,0-6.729-3.013-6.729-6.729S341.325,230.937,345.042,230.937z
	 M345.042,178.937c3.718,0,6.731,3.014,6.731,6.731c0,3.717-3.014,6.73-6.731,6.73c-3.717,0-6.73-3.014-6.73-6.73
	C338.311,181.95,341.325,178.937,345.042,178.937z M345.042,126.937c3.718,0,6.731,3.014,6.731,6.731c0,3.717-3.014,6.73-6.731,6.73
	c-3.717,0-6.73-3.014-6.73-6.73C338.311,129.95,341.325,126.937,345.042,126.937z M345.042,74.937c3.718,0,6.731,3.014,6.731,6.731
	c0,3.717-3.014,6.73-6.731,6.73c-3.717,0-6.73-3.014-6.73-6.73C338.311,77.95,341.325,74.937,345.042,74.937z M345.042,22.937
	c3.718,0,6.731,3.014,6.731,6.731c0,3.717-3.014,6.73-6.731,6.73c-3.717,0-6.73-3.014-6.73-6.73
	C338.311,25.95,341.325,22.937,345.042,22.937z M401.612,348.398c-3.723,0-6.731-3.016-6.731-6.729s3.014-6.731,6.731-6.731
	s6.729,3.018,6.729,6.731S405.331,348.398,401.612,348.398z M401.612,296.397c-3.723,0-6.731-3.015-6.731-6.729
	s3.014-6.73,6.731-6.73s6.729,3.017,6.729,6.73S405.331,296.397,401.612,296.397z M401.612,244.397
	c-3.723,0-6.731-3.015-6.731-6.729s3.014-6.73,6.731-6.73s6.729,3.017,6.729,6.73S405.331,244.397,401.612,244.397z
	 M401.612,192.399c-3.723,0-6.731-3.015-6.731-6.729s3.014-6.731,6.731-6.731s6.729,3.017,6.729,6.731
	S405.331,192.399,401.612,192.399z M401.612,140.399c-3.723,0-6.731-3.015-6.731-6.729s3.014-6.731,6.731-6.731
	s6.729,3.017,6.729,6.731S405.331,140.399,401.612,140.399z M401.612,88.399c-3.723,0-6.731-3.015-6.731-6.729
	s3.014-6.731,6.731-6.731s6.729,3.017,6.729,6.731S405.331,88.399,401.612,88.399z M401.612,36.399
	c-3.723,0-6.731-3.015-6.731-6.729s3.014-6.731,6.731-6.731s6.729,3.017,6.729,6.731S405.331,36.399,401.612,36.399z
	 M458.182,348.398c-3.719,0-6.729-3.016-6.729-6.729s3.015-6.731,6.729-6.731c3.722,0,6.731,3.018,6.731,6.731
	S461.901,348.398,458.182,348.398z M458.182,296.397c-3.719,0-6.729-3.015-6.729-6.729s3.015-6.73,6.729-6.73
	c3.722,0,6.731,3.017,6.731,6.73S461.901,296.397,458.182,296.397z M458.182,244.397c-3.719,0-6.729-3.015-6.729-6.729
	s3.015-6.73,6.729-6.73c3.722,0,6.731,3.017,6.731,6.73S461.901,244.397,458.182,244.397z M458.182,192.399
	c-3.719,0-6.729-3.015-6.729-6.729s3.015-6.731,6.729-6.731c3.722,0,6.731,3.017,6.731,6.731S461.901,192.399,458.182,192.399z
	 M458.182,140.399c-3.719,0-6.729-3.015-6.729-6.729s3.015-6.731,6.729-6.731c3.722,0,6.731,3.017,6.731,6.731
	S461.901,140.399,458.182,140.399z M458.182,88.399c-3.719,0-6.729-3.015-6.729-6.729s3.015-6.731,6.729-6.731
	c3.722,0,6.731,3.017,6.731,6.731S461.901,88.399,458.182,88.399z M458.182,36.399c-3.719,0-6.729-3.015-6.729-6.729
	s3.015-6.731,6.729-6.731c3.722,0,6.731,3.017,6.731,6.731S461.901,36.399,458.182,36.399z M514.753,348.398
	c-3.72,0-6.732-3.016-6.732-6.729s3.018-6.731,6.732-6.731c3.714,0,6.731,3.018,6.731,6.731S518.471,348.398,514.753,348.398z
	 M514.753,296.397c-3.72,0-6.732-3.015-6.732-6.729s3.018-6.73,6.732-6.73c3.714,0,6.731,3.017,6.731,6.73
	S518.471,296.397,514.753,296.397z M514.753,244.397c-3.72,0-6.732-3.015-6.732-6.729s3.018-6.73,6.732-6.73
	c3.714,0,6.731,3.017,6.731,6.73S518.471,244.397,514.753,244.397z M514.753,192.399c-3.72,0-6.732-3.015-6.732-6.729
	s3.018-6.731,6.732-6.731c3.714,0,6.731,3.017,6.731,6.731S518.471,192.399,514.753,192.399z M514.753,140.399
	c-3.72,0-6.732-3.015-6.732-6.729s3.018-6.731,6.732-6.731c3.714,0,6.731,3.017,6.731,6.731S518.471,140.399,514.753,140.399z
	 M514.753,88.399c-3.72,0-6.732-3.015-6.732-6.729s3.018-6.731,6.732-6.731c3.714,0,6.731,3.017,6.731,6.731
	S518.471,88.399,514.753,88.399z M571.323,348.398c-3.72,0-6.731-3.016-6.731-6.729s3.018-6.731,6.731-6.731
	s6.729,3.018,6.729,6.731S575.042,348.398,571.323,348.398z M571.323,296.397c-3.72,0-6.731-3.015-6.731-6.729
	s3.018-6.73,6.731-6.73s6.729,3.017,6.729,6.73S575.042,296.397,571.323,296.397z M571.323,244.397c-3.72,0-6.731-3.015-6.731-6.729
	s3.018-6.73,6.731-6.73s6.729,3.017,6.729,6.73S575.042,244.397,571.323,244.397z M571.323,192.399c-3.72,0-6.731-3.015-6.731-6.729
	s3.018-6.731,6.731-6.731s6.729,3.017,6.729,6.731S575.042,192.399,571.323,192.399z M571.323,140.399
	c-3.72,0-6.731-3.015-6.731-6.729s3.018-6.731,6.731-6.731s6.729,3.017,6.729,6.731S575.042,140.399,571.323,140.399z
	 M627.893,348.398c-3.719,0-6.729-3.016-6.729-6.729s3.015-6.731,6.729-6.731c3.722,0,6.732,3.018,6.732,6.731
	S631.612,348.398,627.893,348.398z M627.893,296.397c-3.719,0-6.729-3.015-6.729-6.729s3.015-6.73,6.729-6.73
	c3.722,0,6.732,3.017,6.732,6.73S631.612,296.397,627.893,296.397z M627.893,244.397c-3.719,0-6.729-3.015-6.729-6.729
	s3.015-6.73,6.729-6.73c3.722,0,6.732,3.017,6.732,6.73S631.612,244.397,627.893,244.397z M627.893,192.399
	c-3.719,0-6.729-3.015-6.729-6.729s3.015-6.731,6.729-6.731c3.722,0,6.732,3.017,6.732,6.731S631.612,192.399,627.893,192.399z
	 M627.893,140.399c-3.719,0-6.729-3.015-6.729-6.729s3.015-6.731,6.729-6.731c3.722,0,6.732,3.017,6.732,6.731
	S631.612,140.399,627.893,140.399z M684.464,282.937c3.717,0,6.729,3.014,6.729,6.73s-3.013,6.729-6.729,6.729
	s-6.73-3.013-6.73-6.729S680.747,282.937,684.464,282.937z M684.464,230.937c3.717,0,6.729,3.014,6.729,6.73
	s-3.013,6.729-6.729,6.729s-6.73-3.013-6.73-6.729S680.747,230.937,684.464,230.937z M684.464,178.937
	c3.717,0,6.73,3.014,6.73,6.731c0,3.717-3.014,6.73-6.73,6.73c-3.718,0-6.731-3.014-6.731-6.73
	C677.732,181.95,680.746,178.937,684.464,178.937z M741.034,296.397c-3.719,0-6.731-3.015-6.731-6.729s3.018-6.73,6.731-6.73
	s6.729,3.017,6.729,6.73S744.753,296.397,741.034,296.397z M741.034,244.397c-3.719,0-6.731-3.015-6.731-6.729
	s3.018-6.73,6.731-6.73s6.729,3.017,6.729,6.73S744.753,244.397,741.034,244.397z M797.604,296.397
	c-3.719,0-6.729-3.015-6.729-6.729s3.014-6.73,6.729-6.73c3.722,0,6.732,3.017,6.732,6.73S801.323,296.397,797.604,296.397z
	 M861.148,294.337c0.804-1.368,1.389-2.943,2.066-4.265c0.759-1.479,1.637-2.897,2.62-4.237c2.849-3.874,6.59-7.073,10.862-9.278
	c4.401-2.271,9.326-3.454,14.278-3.454c17.221,0,31.182,13.96,31.182,31.183c0,17.221-13.961,31.181-31.182,31.181
	c-3.022,0-6.042-0.435-8.938-1.3c-4.722-1.41-9.079-3.959-12.636-7.368c-1.764-1.69-3.328-3.587-4.652-5.641
	c-1.694-2.63-2.635-5.986-6.024-6.96c-3.093-0.887-6.504,1.85-9.115,3.175l-13.162,15.409l-386.801,58.693L0,159.484L154.078,27.451
	C227.981,4.273,333.699-2.861,461.181,0.984c138.869,83.509,268.624,180.518,387.437,293.732c2.712,1.096,5.345,3.352,8.458,2.814
	C859.027,297.194,860.23,295.901,861.148,294.337z"/>
</svg>
