<?xml version="1.0" encoding="utf-8"?>
<!-- Generator: Adobe Illustrator 16.0.0, SVG Export Plug-In . SVG Version: 6.00 Build 0)  -->
<!DOCTYPE svg PUBLIC "-//W3C//DTD SVG 1.1//EN" "http://www.w3.org/Graphics/SVG/1.1/DTD/svg11.dtd">
<svg version="1.1" id="Layer_1" xmlns="http://www.w3.org/2000/svg" xmlns:xlink="http://www.w3.org/1999/xlink" x="0px" y="0px"
	 width="923.225px" height="391.135px" viewBox="0 0 923.225 391.135" enable-background="new 0 0 923.225 391.135"
	 xml:space="preserve">
<path fill="none" stroke="#000000" stroke-linejoin="round" stroke-miterlimit="10" d="M117.174,310.685
	c-3.719,0-6.732-3.017-6.732-6.729c0-3.723,3.015-6.729,6.732-6.729s6.731,3.014,6.731,6.729
	C123.906,307.668,120.893,310.685,117.174,310.685z M173.744,310.685c-3.72,0-6.732-3.017-6.732-6.729
	c0-3.723,3.014-6.729,6.732-6.729c3.718,0,6.731,3.014,6.731,6.729C180.478,307.668,177.463,310.685,173.744,310.685z
	 M173.744,258.685c-3.72,0-6.732-3.017-6.732-6.729c0-3.723,3.014-6.729,6.732-6.729c3.718,0,6.731,3.014,6.731,6.729
	C180.478,255.668,177.463,258.685,173.744,258.685z M230.315,310.685c-3.719,0-6.731-3.017-6.731-6.729
	c0-3.723,3.014-6.729,6.731-6.729c3.719,0,6.732,3.014,6.732,6.729C237.047,307.668,234.033,310.685,230.315,310.685z
	 M230.315,258.685c-3.719,0-6.731-3.017-6.731-6.729c0-3.723,3.014-6.729,6.731-6.729c3.719,0,6.732,3.014,6.732,6.729
	C237.047,255.668,234.033,258.685,230.315,258.685z M230.315,206.685c-3.719,0-6.731-3.017-6.731-6.729
	c0-3.723,3.014-6.733,6.731-6.733c3.719,0,6.732,3.01,6.732,6.733C237.047,203.668,234.033,206.685,230.315,206.685z
	 M286.885,310.685c-3.719,0-6.732-3.017-6.732-6.729c0-3.723,3.015-6.729,6.732-6.729s6.732,3.014,6.732,6.729
	C293.617,307.668,290.604,310.685,286.885,310.685z M286.885,258.685c-3.719,0-6.732-3.017-6.732-6.729
	c0-3.723,3.015-6.729,6.732-6.729s6.732,3.014,6.732,6.729C293.617,255.668,290.604,258.685,286.885,258.685z M286.885,206.685
	c-3.719,0-6.732-3.017-6.732-6.729c0-3.723,3.015-6.733,6.732-6.733s6.732,3.01,6.732,6.733
	C293.617,203.668,290.604,206.685,286.885,206.685z M286.885,141.219c3.718,0,6.732,3.014,6.732,6.732
	c0,3.718-3.015,6.732-6.732,6.732s-6.732-3.014-6.732-6.732C280.153,144.233,283.167,141.219,286.885,141.219z M343.454,310.685
	c-3.719,0-6.731-3.017-6.731-6.729c0-3.723,3.016-6.729,6.731-6.729c3.717,0,6.73,3.014,6.73,6.729
	C350.188,307.668,347.174,310.685,343.454,310.685z M343.454,258.685c-3.719,0-6.731-3.017-6.731-6.729
	c0-3.723,3.016-6.729,6.731-6.729c3.717,0,6.73,3.014,6.73,6.729C350.188,255.668,347.174,258.685,343.454,258.685z
	 M343.454,206.685c-3.719,0-6.731-3.017-6.731-6.729c0-3.723,3.016-6.733,6.731-6.733c3.717,0,6.73,3.01,6.73,6.733
	C350.188,203.668,347.174,206.685,343.454,206.685z M343.454,141.219c3.719,0,6.732,3.014,6.732,6.732
	c0,3.718-3.014,6.732-6.732,6.732c-3.718,0-6.731-3.014-6.731-6.732C336.723,144.233,339.737,141.219,343.454,141.219z
	 M343.454,89.219c3.719,0,6.732,3.014,6.732,6.732c0,3.718-3.014,6.732-6.732,6.732c-3.718,0-6.731-3.014-6.731-6.732
	C336.723,92.233,339.737,89.219,343.454,89.219z M400.026,362.685c-3.721,0-6.731-3.017-6.731-6.729
	c0-3.723,3.015-6.729,6.731-6.729s6.73,3.014,6.73,6.729C406.759,359.668,403.743,362.685,400.026,362.685z M400.026,310.685
	c-3.721,0-6.731-3.017-6.731-6.729c0-3.723,3.015-6.729,6.731-6.729s6.73,3.014,6.73,6.729
	C406.759,307.668,403.743,310.685,400.026,310.685z M400.026,258.685c-3.721,0-6.731-3.017-6.731-6.729
	c0-3.723,3.015-6.729,6.731-6.729s6.73,3.014,6.73,6.729C406.759,255.668,403.743,258.685,400.026,258.685z M400.026,206.685
	c-3.721,0-6.731-3.017-6.731-6.729c0-3.723,3.015-6.733,6.731-6.733s6.73,3.01,6.73,6.733
	C406.759,203.668,403.743,206.685,400.026,206.685z M400.026,141.219c3.718,0,6.732,3.014,6.732,6.732
	c0,3.718-3.015,6.732-6.732,6.732s-6.731-3.014-6.731-6.732C393.294,144.233,396.308,141.219,400.026,141.219z M400.026,89.219
	c3.718,0,6.732,3.014,6.732,6.732c0,3.718-3.015,6.732-6.732,6.732s-6.731-3.014-6.731-6.732
	C393.294,92.233,396.308,89.219,400.026,89.219z M456.597,362.685c-3.72,0-6.73-3.017-6.73-6.729c0-3.723,3.015-6.729,6.73-6.729
	c3.72,0,6.73,3.014,6.73,6.729C463.327,359.668,460.315,362.685,456.597,362.685z M456.597,310.685c-3.72,0-6.73-3.017-6.73-6.729
	c0-3.723,3.015-6.729,6.73-6.729c3.72,0,6.73,3.014,6.73,6.729C463.327,307.668,460.315,310.685,456.597,310.685z M456.597,258.685
	c-3.72,0-6.73-3.017-6.73-6.729c0-3.723,3.015-6.729,6.73-6.729c3.72,0,6.73,3.014,6.73,6.729
	C463.327,255.668,460.315,258.685,456.597,258.685z M456.597,206.685c-3.72,0-6.73-3.017-6.73-6.729c0-3.723,3.015-6.733,6.73-6.733
	c3.72,0,6.73,3.01,6.73,6.733C463.327,203.668,460.315,206.685,456.597,206.685z M456.597,141.219c3.718,0,6.731,3.014,6.731,6.732
	c0,3.718-3.014,6.732-6.731,6.732s-6.732-3.014-6.732-6.732C449.865,144.233,452.879,141.219,456.597,141.219z M456.597,89.219
	c3.718,0,6.731,3.014,6.731,6.732c0,3.718-3.014,6.732-6.731,6.732s-6.732-3.014-6.732-6.732
	C449.865,92.233,452.879,89.219,456.597,89.219z M456.597,37.219c3.718,0,6.731,3.014,6.731,6.732c0,3.718-3.014,6.732-6.731,6.732
	s-6.732-3.014-6.732-6.732C449.865,40.233,452.879,37.219,456.597,37.219z M513.166,310.685c-3.719,0-6.729-3.017-6.729-6.729
	c0-3.723,3.016-6.729,6.729-6.729c3.721,0,6.732,3.014,6.732,6.729C519.899,307.668,516.886,310.685,513.166,310.685z
	 M513.166,258.685c-3.719,0-6.729-3.017-6.729-6.729c0-3.723,3.016-6.729,6.729-6.729c3.721,0,6.732,3.014,6.732,6.729
	C519.899,255.668,516.886,258.685,513.166,258.685z M513.166,206.685c-3.719,0-6.729-3.017-6.729-6.729
	c0-3.723,3.016-6.733,6.729-6.733c3.721,0,6.732,3.01,6.732,6.733C519.899,203.668,516.886,206.685,513.166,206.685z
	 M513.166,141.219c3.719,0,6.732,3.014,6.732,6.732c0,3.718-3.014,6.732-6.732,6.732c-3.718,0-6.731-3.014-6.731-6.732
	C506.435,144.233,509.448,141.219,513.166,141.219z M513.166,89.219c3.719,0,6.732,3.014,6.732,6.732
	c0,3.718-3.014,6.732-6.732,6.732c-3.718,0-6.731-3.014-6.731-6.732C506.435,92.233,509.448,89.219,513.166,89.219z M513.166,37.219
	c3.719,0,6.732,3.014,6.732,6.732c0,3.718-3.014,6.732-6.732,6.732c-3.718,0-6.731-3.014-6.731-6.732
	C506.435,40.233,509.448,37.219,513.166,37.219z M569.737,310.685c-3.721,0-6.731-3.017-6.731-6.729
	c0-3.723,3.018-6.729,6.731-6.729s6.73,3.014,6.73,6.729C576.47,307.668,573.455,310.685,569.737,310.685z M569.737,258.685
	c-3.721,0-6.731-3.017-6.731-6.729c0-3.723,3.018-6.729,6.731-6.729s6.73,3.014,6.73,6.729
	C576.47,255.668,573.455,258.685,569.737,258.685z M569.737,206.685c-3.721,0-6.731-3.017-6.731-6.729
	c0-3.723,3.018-6.733,6.731-6.733s6.73,3.01,6.73,6.733C576.47,203.668,573.455,206.685,569.737,206.685z M569.737,154.683
	c-3.721,0-6.731-3.014-6.731-6.732c0-3.718,3.018-6.732,6.731-6.732s6.73,3.014,6.73,6.732
	C576.47,151.669,573.455,154.683,569.737,154.683z M569.737,102.683c-3.721,0-6.731-3.014-6.731-6.732
	c0-3.718,3.018-6.732,6.731-6.732s6.73,3.014,6.73,6.732C576.47,99.669,573.455,102.683,569.737,102.683z M569.737,50.683
	c-3.721,0-6.731-3.014-6.731-6.732c0-3.718,3.018-6.732,6.731-6.732s6.73,3.014,6.73,6.732
	C576.47,47.669,573.455,50.683,569.737,50.683z M626.308,258.685c-3.721,0-6.73-3.017-6.73-6.729c0-3.723,3.015-6.729,6.73-6.729
	c3.72,0,6.729,3.014,6.729,6.729C633.039,255.668,630.026,258.685,626.308,258.685z M626.308,206.685
	c-3.721,0-6.73-3.017-6.73-6.729c0-3.723,3.015-6.733,6.73-6.733c3.72,0,6.729,3.01,6.729,6.733
	C633.039,203.668,630.026,206.685,626.308,206.685z M626.308,154.683c-3.721,0-6.73-3.014-6.73-6.732
	c0-3.718,3.015-6.732,6.73-6.732c3.72,0,6.729,3.014,6.729,6.732C633.038,151.669,630.026,154.683,626.308,154.683z
	 M626.308,102.683c-3.721,0-6.73-3.014-6.73-6.732c0-3.718,3.015-6.732,6.73-6.732c3.72,0,6.729,3.014,6.729,6.732
	C633.038,99.669,630.026,102.683,626.308,102.683z M626.308,50.683c-3.721,0-6.73-3.014-6.73-6.732c0-3.718,3.015-6.732,6.73-6.732
	c3.72,0,6.729,3.014,6.729,6.732C633.038,47.669,630.026,50.683,626.308,50.683z M682.878,258.685c-3.72,0-6.729-3.017-6.729-6.729
	c0-3.723,3.014-6.729,6.729-6.729c3.72,0,6.731,3.014,6.731,6.729C689.61,255.668,686.597,258.685,682.878,258.685z
	 M682.878,206.685c-3.72,0-6.729-3.017-6.729-6.729c0-3.723,3.014-6.733,6.729-6.733c3.72,0,6.731,3.01,6.731,6.733
	C689.61,203.668,686.597,206.685,682.878,206.685z M682.878,154.683c-3.72,0-6.729-3.014-6.729-6.732
	c0-3.718,3.014-6.732,6.729-6.732c3.72,0,6.731,3.014,6.731,6.732C689.61,151.669,686.597,154.683,682.878,154.683z
	 M682.878,102.683c-3.72,0-6.729-3.014-6.729-6.732c0-3.718,3.014-6.732,6.729-6.732c3.72,0,6.731,3.014,6.731,6.732
	C689.61,99.669,686.597,102.683,682.878,102.683z M682.878,50.683c-3.72,0-6.729-3.014-6.729-6.732c0-3.718,3.014-6.732,6.729-6.732
	c3.72,0,6.731,3.014,6.731,6.732C689.61,47.669,686.597,50.683,682.878,50.683z M739.448,206.685c-3.72,0-6.731-3.017-6.731-6.729
	c0-3.723,3.018-6.733,6.731-6.733s6.73,3.01,6.73,6.733C746.181,203.668,743.166,206.685,739.448,206.685z M739.448,154.683
	c-3.72,0-6.731-3.014-6.731-6.732c0-3.718,3.018-6.732,6.731-6.732s6.73,3.014,6.73,6.732
	C746.181,151.669,743.166,154.683,739.448,154.683z M739.448,102.683c-3.72,0-6.731-3.014-6.731-6.732
	c0-3.718,3.018-6.732,6.731-6.732s6.73,3.014,6.73,6.732C746.181,99.669,743.166,102.683,739.448,102.683z M739.448,50.683
	c-3.72,0-6.731-3.014-6.731-6.732c0-3.718,3.018-6.732,6.731-6.732s6.73,3.014,6.73,6.732
	C746.181,47.669,743.166,50.683,739.448,50.683z M852.589,141.218c3.721,0,6.731,3.014,6.731,6.732c0,3.718-3.016,6.732-6.731,6.732
	c-3.717,0-6.729-3.014-6.729-6.732C845.857,144.232,848.869,141.218,852.589,141.218z M796.019,89.218
	c3.721,0,6.729,3.014,6.729,6.732c0,3.718-3.014,6.732-6.729,6.732c-3.719,0-6.73-3.014-6.73-6.732
	C789.285,92.232,792.3,89.218,796.019,89.218z M796.019,141.218c3.721,0,6.729,3.014,6.729,6.732c0,3.718-3.014,6.732-6.729,6.732
	c-3.719,0-6.73-3.014-6.73-6.732C789.285,144.232,792.3,141.218,796.019,141.218z M796.019,193.218c3.721,0,6.729,3.016,6.729,6.733
	c0,3.717-3.014,6.731-6.729,6.731c-3.719,0-6.73-3.02-6.73-6.731C789.285,196.231,792.3,193.218,796.019,193.218z M72.173,313.709
	c-0.375-0.444-1.312-0.679-1.839-0.868c-0.738-0.267-1.454-0.583-2.186-0.865c-1.533-0.592-3.263-1.027-4.917-0.973
	c-0.866,0.029-1.771,0.232-2.553,0.622c-1.473,0.735-1.914,2.291-2.699,3.606c-1.261,2.112-2.771,4.076-4.491,5.836
	c-3.458,3.541-7.754,6.242-12.451,7.807c-3.174,1.057-6.514,1.59-9.856,1.59C13.96,330.464,0,316.504,0,299.283
	c0-17.222,13.96-31.181,31.181-31.181c4.936,0,9.843,1.174,14.233,3.431c4.262,2.188,7.997,5.368,10.847,9.22
	c1.028,1.391,1.941,2.865,2.726,4.405c0.396,0.776,0.758,1.569,1.085,2.376c0.665,1.636,1.381,3.178,3.051,4.007
	c1.44,0.715,3.15,1.062,4.755,1.026c1.443-0.031,2.886-0.354,4.257-0.795c0.485-0.155,1.431-0.321,1.805-0.672
	C193.508,178.902,323.873,82.963,463.237,0.569c127.508-2.893,233.17,5.027,306.896,28.758l153.09,133.178l-451.365,228.63
	L85.505,329.556C85.505,329.556,72.199,313.74,72.173,313.709z"/>
</svg>
