<?xml version="1.0" encoding="utf-8"?>
<!-- Generator: Adobe Illustrator 16.0.0, SVG Export Plug-In . SVG Version: 6.00 Build 0)  -->
<!DOCTYPE svg PUBLIC "-//W3C//DTD SVG 1.1//EN" "http://www.w3.org/Graphics/SVG/1.1/DTD/svg11.dtd">
<svg version="1.1" id="Layer_1" xmlns="http://www.w3.org/2000/svg" xmlns:xlink="http://www.w3.org/1999/xlink" x="0px" y="0px"
	 width="2072.896px" height="1394.928px" viewBox="0 0 2072.896 1394.928" enable-background="new 0 0 2072.896 1394.928"
	 xml:space="preserve">
<path fill="none" stroke="#000000" stroke-linejoin="round" stroke-miterlimit="10" d="M1889.912,495.39
	c-8.317,1.789-22.481,7.948-42.314,18.075c-5.177,3.66-14.881,24.475-23.004,28.706c-6.039,3.372-10.279,5.166-19.339,4.309
	c-4.526,0.355-9.774-2.228-16.534-1.65c-11.355,1.362-90.291,47.004-95.896,50.88c-18.332,18.875-19.557,19.521-19.557,19.521
	s-1.148,0.858-76.345,78.146c-6.829,7.465-31.776,27.201-40.475,33.658c-7.122,5.165-12.802,7.749-16.181,9.04
	c-3.307,1.58-10.278,3.441-16.463,3.729c-7.045,0.79-9.992-0.068-20.99-3.729c-5.68-2.152-8.555-4.309-13.44-8.396
	c-10.855-8.324-85.689-73.556-113.152-93.291c-2.588-1.865-47.59-4.091-103.518-6.244c-87.201-3.301-200.857-6.239-220.916-6.459
	c-3.881,0-5.033-0.07-8.271,0.573c-2.369,0.429-5.68,0.718-9.989,2.152c-6.474,2.151-3.311,1.292-7.837,2.728
	c-5.319,1.651-8.481,2.942-11.573,4.021c-2.731,1.004-1.798,0.572-10.855,4.521c-9.271,3.947,0.648-0.068-10.495,4.665
	c-10.929,4.592-6.826,3.157-17.757,8.253c-0.791,0.432-6.325,3.946-11.286,9.041c-2.274,2.363-3.197,4.686-3.516,6.581l-0.008-0.123
	"/>
<path fill="none" stroke="#000000" stroke-linejoin="round" stroke-miterlimit="10" d="M1023.661,69.249
	c-34.64-4.27-52.83,13.082-52.83,13.082l-18.854,14.101l-18.8,14.775c0,0-7.068,5.968-18.892,18.159
	c-11.821,12.191,2.547,21.973,2.547,21.973l12.568,10.728l89.777,70.584l130.364,96.174c0,0,89.271,65.948,113.137,83.465
	c23.867,17.517,37.857-3.045,37.857-3.045l10.938-13.407c0,0,49.904-63.191,59.562-75.479c9.658-12.288,18.904-9.979,18.904-9.979
	l8.012-0.506l25.75-1.342c0,0,17.5-0.521,53.162-0.122c35.662,0.397,48.971-43.861,80.58-79.548
	c5.938-6.706,9.367-12.334,11.021-17.055"/>
<path fill="none" stroke="#000000" stroke-linejoin="round" stroke-miterlimit="10" d="M946.738,651.211
	c1.223-0.649,2.362-1.355,3.148-2.047c1.295-1.006,11.719-7.75,24.873-16.074c15.814-9.977,24.299-15.07,25.734-15.645
	c0.506-0.22,1.08-0.507,1.871-0.791c4.742-2.08,15.959-6.892,26.235-6.892c0.287,0,0.574,0,0.791,0h0.07
	c1.146,0,25.233,0.791,55.713,1.728c72.752,2.295,194.459,6.024,205.529,6.024c0.356,0,0.573,0,0.791,0
	c1.006,0,2.084-0.071,3.379-0.071c5.535,0,12.146,0.358,18.043,0.721c2.301,0.069,4.457,0.215,6.328,0.287
	c8.121,0.354,15.383,0.934,21.709,1.358c6.758,0.504,12.076,0.937,16.104,0.937c3.882,0,6.255-0.357,7.979-1.224
	c2.805-1.291,19.842-13.348,33.787-23.821c8.771-6.604,15.889-12.271,21.277-16.793c9.777-8.323,10.998-10.976,11.502-12.843
	c0.359-1.438,0.072-2.871-0.791-4.021c-0.504-0.645-1.006-1.291-19.051-15.285c-10.639-8.252-26.096-20.233-45.938-35.449
	c-33.355-25.618-79.728-61-137.666-105.203c-98.631-75.14-198.053-150.706-199.062-151.42v-0.072l-0.069,0.001l-42.916-31.647
	L946.93,191.32c-7.045-5.741-26.098-21.242-28.896-23.969l-0.146-0.145l-0.217-0.144c-6.396-4.88-20.271-16.649-22.789-20.524
	l-0.287-0.503l-0.217-0.143c-0.358-0.718-0.861-2.656-0.217-4.665c0.074-0.359,0.217-0.646,0.289-0.935
	c0.573-2.008,1.364-4.521,6.182-11.337c4.314-5.741,10.783-11.555,14.234-14.712c0.936-0.861,1.649-1.508,2.084-1.938
	c2.729-2.728,19.842-16.722,23.293-19.09c1.727-1.291,6.758-5.095,12.004-9.328c9.777-8.038,11.07-10.191,11.574-11.052
	c1.651-2.584,1.295-4.809,0.791-6.172c-1.438-3.66-5.822-5.526-12.363-7.392c-0.899-0.323-3.398-1.058-12.492-3.408"/>
</svg>
