<?xml version="1.0" encoding="utf-8"?>
<!-- Generator: Adobe Illustrator 16.0.0, SVG Export Plug-In . SVG Version: 6.00 Build 0)  -->
<!DOCTYPE svg PUBLIC "-//W3C//DTD SVG 1.1//EN" "http://www.w3.org/Graphics/SVG/1.1/DTD/svg11.dtd">
<svg version="1.1" id="Layer_1" xmlns="http://www.w3.org/2000/svg" xmlns:xlink="http://www.w3.org/1999/xlink" x="0px" y="0px"
	 width="2072.895px" height="1394.93px" viewBox="0 0 2072.895 1394.93" enable-background="new 0 0 2072.895 1394.93"
	 xml:space="preserve">
<path d="M1037.575,71.405c-42.206,10.327-123,30.676-123,30.676L784.78,134.666l-86.051,20.733l-79.327,17.158l-57.293,10.073
	l-38.793,5.342c0,0-39.479,5.203-7.871,40.891c31.607,35.687,44.918,79.946,80.58,79.548s53.162,0.122,53.162,0.122l25.75,1.342
	l8.012,0.506c0,0,9.245-2.311,18.904,9.978c9.657,12.288,59.562,75.479,59.562,75.479l10.939,13.407c0,0,13.989,20.562,37.856,3.045
	c23.864-17.518,113.138-83.466,113.138-83.466l130.364-96.174l89.779-70.584l12.567-10.728c0,0,14.365-9.783,2.547-21.973
	c-11.821-12.19-18.895-18.159-18.895-18.159l-18.81-14.772l-18.854-14.101C1102.06,82.332,1079.779,61.078,1037.575,71.405z
	 M1112.698,664.094l-0.008,0.119c-0.316-1.896-1.24-4.216-3.518-6.578c-4.959-5.095-10.494-8.608-11.285-9.041
	c-10.929-5.096-6.83-3.661-17.759-8.253c-11.145-4.735-1.225-0.718-10.493-4.665c-9.062-3.947-8.125-3.517-10.855-4.521
	c-3.092-1.078-6.256-2.368-11.572-4.021c-4.526-1.436-1.362-0.571-7.836-2.729c-4.312-1.438-7.623-1.727-9.994-2.151
	c-3.232-0.646-4.388-0.573-8.27-0.573c-20.061,0.221-133.715,3.158-220.915,6.459c-55.929,2.152-100.931,4.382-103.52,6.244
	c-27.464,19.734-102.299,84.965-113.15,93.291c-4.889,4.092-7.764,6.244-13.442,8.396c-10.998,3.66-13.942,4.521-20.989,3.729
	c-6.184-0.287-13.154-2.148-16.464-3.729c-3.379-1.291-9.06-3.875-16.176-9.041c-8.698-6.457-33.646-26.193-40.475-33.659
	c-75.194-77.287-76.348-78.147-76.348-78.147s-1.223-0.646-19.555-19.521c-5.604-3.876-84.542-49.521-95.898-50.88
	c-6.759-0.574-12.007,2.009-16.533,1.646c-9.06,0.859-13.301-0.935-19.34-4.307c-8.123-4.233-17.826-25.046-23.003-28.706
	c-24.875-12.702-40.833-19.161-47.521-18.585c-7.907,1.075-90.579,39.899-90.579,39.899c-9.272,3.153-20.058,11.77-20.92,19.017
	C44.649,687.346,37.172,724.95,0.869,860.366c-3.521,13.273,4.386,24.396,10.711,23.18c4.528-0.789,73.542-17.149,93.312-23.104
	c11.646-3.229,15.96-4.311,23.938-6.604c5.75-1.65,9.921-1.797,13.441-2.656c2.729-0.215,10.28-1.221,12.005-0.432
	c3.668-0.502,11.433,5.672,16.896,13.994c19.27,30.932,244.062,521.07,252.834,524.518c1.438,2.227,7.045,6.242,12.726,5.602
	c6.109-0.646,13.441-5.1,15.098-5.957c8.41-5.24,106.973-79.873,137.45-100.324c5.396-4.092,7.768-4.812,8.627-9.979
	c2.157-7.248,1.079-2.438,5.683-21.889c9.345-33.943,12.864-57.051,22.646-89.346c27.245-89.99,47.018-157.734,56.792-168.068
	c14.521-13.994,117.396-83.389,215.161-151.779c70.233-49.229,132.49-92.788,140.469-98.74
	c19.195-14.279,13.301-9.548,19.195-14.279c17.971-16.076,10.494-8.828,17.971-16.076c19.268-21.243,14.162-14.426,19.268-21.243
	c5.031-5.597,7.839-8.54,10.427-12.698c2.66-4.021,3.953-6.314,5.178-10.267c1.027-2.089,1.529-4.479,1.775-6.419l-0.054,0.822
	c0,0,0.705-1.78,0.289-4.354C1112.698,664.162,1112.698,664.094,1112.698,664.094z M541.979,1279.75
	c-1.869,0.215-3.668,0.357-5.465,0.357c-21.062,0-39.18-14.93-41.693-35.381c-0.146-1.576-0.289-3.156-0.289-4.734
	c0.072-20.238,15.96-37.896,37.602-40.547c1.795-0.213,3.664-0.359,5.461-0.359c20.988,0,39.104,14.928,41.624,35.381
	c0.216,1.578,0.289,3.156,0.289,4.736C579.504,1259.439,563.544,1277.094,541.979,1279.75z M1037.504,719.713
	c-1.871,0.215-3.668,0.285-5.465,0.285c-21.062,0-39.183-14.854-41.693-35.305c-0.146-1.58-0.287-3.229-0.287-4.812
	c0.07-20.234,15.959-37.892,37.599-40.476c1.796-0.288,3.663-0.359,5.462-0.359c21.062,0,39.106,14.929,41.625,35.312
	c0.217,1.648,0.284,3.229,0.284,4.809C1075.025,699.403,1059.068,717.059,1037.504,719.713z M2071.577,645.87
	c-0.063-0.146-0.141-0.358-0.213-0.575c-0.43-1.146-1.223-2.225-4.672-5.167c-1.799-1.507-4.242-3.444-7.188-5.741
	c-4.888-3.803-9.705-7.392-10.062-7.679c-0.072,0-0.072,0-0.072,0l-24.584-18.515l-0.069-0.072l-0.146-0.072
	c0,0-4.961-3.301-10.062-7.104c-8.697-6.242-10.711-8.472-11.146-9.042c-1.58-4.951-10.563-50.952-14.951-73.271
	c-2.731-13.995-4.1-20.741-4.387-21.817c-0.143-0.716-0.354-1.575-0.504-2.438c-0.646-3.229-1.508-7.248-3.521-10.405
	c-1.512-2.368-6.897-6.813-18.477-15.788c-2.945-2.296-6.256-4.809-6.83-5.455c-0.432-0.355-1.728-1.646-226.377-189.598
	c-1.295-1.076-2.877-1.579-4.744-1.579c-5.75,0-14.307,4.952-27.68,13.133l-0.285,0.145c-4.961,3.013-10.062,6.1-14.379,8.396
	c-4.238,2.225-6.541,3.014-7.765,3.302c0.07-1.22,0.502-3.517,1.939-7.751c1.652-4.807,4.168-10.691,6.613-16.36
	c2.729-6.315,5.463-12.847,7.188-18.085c1.008-3.014,1.512-5.381,1.728-7.319c0.286-3.229-0.505-5.597-2.302-7.105
	c-53.698-44.923-94.893-79.37-95.323-79.729l-0.07-0.072l-0.07-0.071l-79.075-59.349l-0.146-0.072l-0.072-0.071l-21.854-14.139
	l-0.07-0.072c-0.574-0.358-14.953-9.042-20.348-11.697l-0.066,0.001l-0.146-0.072c-0.791-0.287-1.582-0.503-2.373-0.503
	c-4.457,0-7.838,4.378-12.148,9.832c-0.502,0.646-1.078,1.292-1.582,1.938c-2.084,2.655-7.045,8.827-10.496,8.827
	c-0.072,0-0.146,0-0.146,0c-0.502-0.647-1.65-2.872-3.232-9.188c-1.225-5.095-2.229-10.979-3.094-15.716
	c-1.221-7.177-1.508-8.684-2.299-9.832l-0.218-0.359l-0.286-0.286c-4.173-4.164-8.625-7.894-9.562-8.612l-2.442-2.512l-0.07,0.001
	l-0.068-0.072l-15.17-14.065l-0.07-0.072v-0.072l-14.811-12.773h-0.07l-0.071-0.071l-9.634-7.751V13.21h-0.071l-8.627-6.604
	c-1.007-1.005-5.966-5.382-10.781-6.172c-1.73-0.218-3.168-0.434-4.676-0.434c-1.798,0-3.521,0.287-5.962,0.999
	c-1.582,0.431-25.231,6.314-55.141,13.707c-34.578,8.54-77.641,19.162-113.08,28.06c-54.562,13.565-62.758,15.861-64.557,16.507
	c-6.541,1.866-10.928,3.732-12.363,7.392c-0.504,1.363-0.863,3.588,0.791,6.172c0.504,0.861,1.797,3.014,11.574,11.052
	c5.244,4.233,10.275,8.037,12.004,9.328c3.451,2.368,20.562,16.362,23.293,19.09c0.432,0.431,1.146,1.077,2.084,1.938
	c3.451,3.157,9.92,8.971,14.232,14.712c4.813,6.817,5.604,9.329,6.184,11.338c0.07,0.288,0.215,0.575,0.287,0.934
	c0.645,2.009,0.145,3.947-0.217,4.665l-0.218,0.143l-0.286,0.503c-2.521,3.875-16.394,15.644-22.789,20.524l-0.218,0.144
	l-0.146,0.144c-2.801,2.727-21.854,18.228-28.896,23.968l-39.18,31.647l-42.918,31.647l-0.07-0.001v0.072
	c-1.006,0.717-100.428,76.282-199.06,151.42C786.796,450.31,740.423,485.69,707.07,511.31
	c-19.842,15.215-35.299,27.194-45.938,35.448c-18.044,13.994-18.547,14.644-19.053,15.285c-0.861,1.146-1.148,2.584-0.791,4.021
	c0.505,1.862,1.728,4.52,11.503,12.846c5.392,4.521,12.509,10.188,21.277,16.792c13.944,10.478,30.981,22.534,33.787,23.825
	c1.724,0.859,4.097,1.221,7.979,1.221c4.024,0,9.347-0.431,16.104-0.934c6.325-0.433,13.587-1.008,21.71-1.362
	c1.869-0.071,4.025-0.216,6.325-0.286c5.896-0.36,12.51-0.72,18.046-0.72c1.294,0,2.372,0.071,3.379,0.071c0.216,0,0.434,0,0.791,0
	c11.069,0,132.775-3.73,205.526-6.026c30.479-0.938,54.562-1.726,55.712-1.726h0.07c0.217,0,0.504,0,0.791,0
	c10.276,0,21.493,4.81,26.235,6.891c0.791,0.287,1.365,0.574,1.869,0.79c1.438,0.575,9.922,5.669,25.736,15.646
	c13.151,8.323,23.577,15.068,24.873,16.074c1.868,1.649,5.75,3.372,7.979,4.233c4.025,1.646,8.271,2.938,12.006,3.656
	c6.543,1.224,13.017,1.292,14.379,1.292c1.513,0.146,11.861,1.075,15.023,1.292c0.145,0,0.285,0,3.309,0
	c11.285,0,51.543-0.143,107.188-0.284c32.854-0.071,70.02-0.146,109.846-0.219c145.574-0.354,249.812-0.57,318.609-0.57
	c34.647,0,60.744,0.07,77.494,0.145h0.071h0.068c0.793,0,1.582,0,2.301,0c14.666,0,25.16,2.941,36.162,10.118
	c1.795,1.146,7.043,4.304,11.717,7.104c2.806,1.65,5.465,3.306,6.688,4.021c0.145,0.146,15.455,9.33,20.848,10.837
	c3.521,1.004,6.109,1.65,10.064,1.65c0.719,0,1.364,0,2.155-0.071c4.673-0.217,58.015-6.604,60.312-6.894l0.069,0.005l41.267-5.957
	l0.072,0.001l0.071,0.005c0.289-0.072,28.539-5.024,38.246-6.818c2.588-0.503,5.896-1.078,9.418-1.724
	c10.062-1.794,22.57-4.021,27.025-5.023c3.021-0.645,6.473-1.436,9.348-2.583c3.951-1.509,6.324-3.59,7.262-6.244
	C2073.81,651.682,2072.443,648.093,2071.577,645.87z M753.238,559.858c-3.719,0-6.729-3.019-6.729-6.732s3.014-6.732,6.729-6.732
	c3.719,0,6.732,3.019,6.732,6.732S756.956,559.858,753.238,559.858z M753.238,507.858c-3.719,0-6.729-3.019-6.729-6.732
	s3.014-6.732,6.729-6.732c3.719,0,6.732,3.019,6.732,6.732S756.956,507.858,753.238,507.858z M809.809,559.858
	c-3.719,0-6.731-3.019-6.731-6.732s3.017-6.732,6.731-6.732c3.719,0,6.732,3.019,6.732,6.732S813.528,559.858,809.809,559.858z
	 M809.809,507.858c-3.719,0-6.731-3.019-6.731-6.732s3.017-6.732,6.731-6.732c3.719,0,6.732,3.019,6.732,6.732
	S813.528,507.858,809.809,507.858z M866.38,559.858c-3.722,0-6.731-3.019-6.731-6.732s3.014-6.732,6.731-6.732
	c3.717,0,6.729,3.019,6.729,6.732S870.098,559.858,866.38,559.858z M866.38,507.858c-3.722,0-6.731-3.019-6.731-6.732
	s3.014-6.732,6.731-6.732c3.717,0,6.729,3.019,6.729,6.732S870.098,507.858,866.38,507.858z M866.38,455.858
	c-3.722,0-6.731-3.019-6.731-6.732s3.014-6.732,6.731-6.732c3.717,0,6.729,3.019,6.729,6.732S870.098,455.858,866.38,455.858z
	 M922.948,559.858c-3.719,0-6.729-3.019-6.729-6.732s3.015-6.732,6.729-6.732c3.717,0,6.731,3.019,6.731,6.732
	S926.669,559.858,922.948,559.858z M922.948,507.858c-3.719,0-6.729-3.019-6.729-6.732s3.015-6.732,6.729-6.732
	c3.717,0,6.731,3.019,6.731,6.732S926.669,507.858,922.948,507.858z M922.948,455.858c-3.719,0-6.729-3.019-6.729-6.732
	s3.015-6.732,6.729-6.732c3.717,0,6.731,3.019,6.731,6.732S926.669,455.858,922.948,455.858z M922.948,403.857
	c-3.719,0-6.729-3.016-6.729-6.732s3.015-6.732,6.729-6.732c3.717,0,6.731,3.015,6.731,6.732S926.669,403.857,922.948,403.857z
	 M979.52,559.858c-3.719,0-6.731-3.019-6.731-6.732s3.017-6.732,6.731-6.732c3.719,0,6.732,3.019,6.732,6.732
	S983.239,559.858,979.52,559.858z M979.52,507.858c-3.719,0-6.731-3.019-6.731-6.732s3.017-6.732,6.731-6.732
	c3.719,0,6.732,3.019,6.732,6.732S983.239,507.858,979.52,507.858z M979.52,455.858c-3.719,0-6.731-3.019-6.731-6.732
	s3.017-6.732,6.731-6.732c3.719,0,6.732,3.019,6.732,6.732S983.239,455.858,979.52,455.858z M979.52,403.857
	c-3.719,0-6.731-3.016-6.731-6.732s3.017-6.732,6.731-6.732c3.719,0,6.732,3.015,6.732,6.732S983.239,403.857,979.52,403.857z
	 M979.52,351.857c-3.719,0-6.731-3.014-6.731-6.732s3.017-6.732,6.731-6.732c3.719,0,6.732,3.014,6.732,6.732
	S983.239,351.857,979.52,351.857z M1036.091,559.858c-3.721,0-6.732-3.019-6.732-6.732s3.015-6.732,6.732-6.732
	c3.719,0,6.73,3.019,6.73,6.732S1039.808,559.858,1036.091,559.858z M1036.091,507.858c-3.721,0-6.732-3.019-6.732-6.732
	s3.015-6.732,6.732-6.732c3.719,0,6.73,3.019,6.73,6.732S1039.808,507.858,1036.091,507.858z M1036.091,455.858
	c-3.721,0-6.732-3.019-6.732-6.732s3.015-6.732,6.732-6.732c3.719,0,6.73,3.019,6.73,6.732S1039.808,455.858,1036.091,455.858z
	 M1036.091,403.857c-3.721,0-6.732-3.016-6.732-6.732s3.015-6.732,6.732-6.732c3.719,0,6.73,3.015,6.73,6.732
	S1039.808,403.857,1036.091,403.857z M1036.091,351.857c-3.721,0-6.732-3.014-6.732-6.732s3.015-6.732,6.732-6.732
	c3.719,0,6.73,3.014,6.73,6.732S1039.808,351.857,1036.091,351.857z M1036.091,299.857c-3.721,0-6.732-3.014-6.732-6.732
	s3.015-6.732,6.732-6.732c3.719,0,6.73,3.014,6.73,6.732S1039.808,299.857,1036.091,299.857z M1092.659,559.858
	c-3.719,0-6.729-3.019-6.729-6.732s3.014-6.732,6.729-6.732c3.72,0,6.732,3.019,6.732,6.732S1096.381,559.858,1092.659,559.858z
	 M1092.659,507.858c-3.719,0-6.729-3.019-6.729-6.732s3.014-6.732,6.729-6.732c3.72,0,6.732,3.019,6.732,6.732
	S1096.381,507.858,1092.659,507.858z M1092.659,455.858c-3.719,0-6.729-3.019-6.729-6.732s3.014-6.732,6.729-6.732
	c3.72,0,6.732,3.019,6.732,6.732S1096.381,455.858,1092.659,455.858z M1092.659,403.857c-3.719,0-6.729-3.016-6.729-6.732
	s3.014-6.732,6.729-6.732c3.72,0,6.732,3.015,6.732,6.732S1096.381,403.857,1092.659,403.857z M1092.659,351.857
	c-3.719,0-6.729-3.014-6.729-6.732s3.014-6.732,6.729-6.732c3.72,0,6.732,3.014,6.732,6.732S1096.381,351.857,1092.659,351.857z
	 M1092.659,299.857c-3.719,0-6.729-3.014-6.729-6.732s3.014-6.732,6.729-6.732c3.72,0,6.732,3.014,6.732,6.732
	S1096.381,299.857,1092.659,299.857z M1149.23,611.858c-3.721,0-6.732-3.019-6.732-6.732s3.017-6.732,6.732-6.732
	s6.729,3.019,6.729,6.732S1152.948,611.858,1149.23,611.858z M1149.23,559.858c-3.721,0-6.732-3.019-6.732-6.732
	s3.017-6.732,6.732-6.732s6.729,3.019,6.729,6.732S1152.948,559.858,1149.23,559.858z M1149.23,507.858
	c-3.721,0-6.732-3.019-6.732-6.732s3.017-6.732,6.732-6.732s6.729,3.019,6.729,6.732S1152.948,507.858,1149.23,507.858z
	 M1149.23,455.858c-3.721,0-6.732-3.019-6.732-6.732s3.017-6.732,6.732-6.732s6.729,3.019,6.729,6.732
	S1152.948,455.858,1149.23,455.858z M1149.23,403.857c-3.721,0-6.732-3.016-6.732-6.732s3.017-6.732,6.732-6.732
	s6.729,3.015,6.729,6.732S1152.948,403.857,1149.23,403.857z M1149.23,351.857c-3.721,0-6.732-3.014-6.732-6.732
	s3.017-6.732,6.732-6.732s6.729,3.014,6.729,6.732S1152.948,351.857,1149.23,351.857z M1149.23,299.857
	c-3.721,0-6.732-3.014-6.732-6.732s3.017-6.732,6.732-6.732s6.729,3.014,6.729,6.732S1152.948,299.857,1149.23,299.857z
	 M1149.23,247.857c-3.721,0-6.732-3.014-6.732-6.732s3.017-6.732,6.732-6.732s6.729,3.014,6.729,6.732
	S1152.948,247.857,1149.23,247.857z M1205.802,611.858c-3.722,0-6.732-3.019-6.732-6.732s3.017-6.732,6.732-6.732
	c3.719,0,6.729,3.019,6.729,6.732S1209.519,611.858,1205.802,611.858z M1205.802,559.858c-3.722,0-6.732-3.019-6.732-6.732
	s3.017-6.732,6.732-6.732c3.719,0,6.729,3.019,6.729,6.732S1209.519,559.858,1205.802,559.858z M1205.802,507.858
	c-3.722,0-6.732-3.019-6.732-6.732s3.017-6.732,6.732-6.732c3.719,0,6.729,3.019,6.729,6.732S1209.519,507.858,1205.802,507.858z
	 M1205.802,455.858c-3.722,0-6.732-3.019-6.732-6.732s3.017-6.732,6.732-6.732c3.719,0,6.729,3.019,6.729,6.732
	S1209.519,455.858,1205.802,455.858z M1205.802,403.857c-3.722,0-6.732-3.016-6.732-6.732s3.017-6.732,6.732-6.732
	c3.719,0,6.729,3.015,6.729,6.732S1209.519,403.857,1205.802,403.857z M1205.802,351.857c-3.722,0-6.732-3.014-6.732-6.732
	s3.017-6.732,6.732-6.732c3.719,0,6.729,3.014,6.729,6.732S1209.519,351.857,1205.802,351.857z M1205.802,299.857
	c-3.722,0-6.732-3.014-6.732-6.732s3.017-6.732,6.732-6.732c3.719,0,6.729,3.014,6.729,6.732S1209.519,299.857,1205.802,299.857z
	 M1205.802,247.857c-3.722,0-6.732-3.014-6.732-6.732s3.017-6.732,6.732-6.732c3.719,0,6.729,3.014,6.729,6.732
	S1209.519,247.857,1205.802,247.857z M1205.802,195.857c-3.722,0-6.732-3.014-6.732-6.732s3.017-6.732,6.732-6.732
	c3.719,0,6.729,3.014,6.729,6.732S1209.519,195.857,1205.802,195.857z M1205.802,143.857c-3.722,0-6.732-3.014-6.732-6.732
	s3.017-6.732,6.732-6.732c3.719,0,6.729,3.014,6.729,6.732S1209.519,143.857,1205.802,143.857z M1205.802,91.857
	c-3.722,0-6.732-3.014-6.732-6.732s3.017-6.732,6.732-6.732c3.719,0,6.729,3.014,6.729,6.732S1209.519,91.857,1205.802,91.857z
	 M1262.37,611.858c-3.719,0-6.729-3.019-6.729-6.732s3.014-6.732,6.729-6.732c3.72,0,6.732,3.019,6.732,6.732
	S1266.092,611.858,1262.37,611.858z M1262.37,559.858c-3.719,0-6.729-3.019-6.729-6.732s3.014-6.732,6.729-6.732
	c3.72,0,6.732,3.019,6.732,6.732S1266.092,559.858,1262.37,559.858z M1262.37,507.858c-3.719,0-6.729-3.019-6.729-6.732
	s3.014-6.732,6.729-6.732c3.72,0,6.732,3.019,6.732,6.732S1266.092,507.858,1262.37,507.858z M1262.37,455.858
	c-3.719,0-6.729-3.019-6.729-6.732s3.014-6.732,6.729-6.732c3.72,0,6.732,3.019,6.732,6.732S1266.092,455.858,1262.37,455.858z
	 M1262.37,403.857c-3.719,0-6.729-3.016-6.729-6.732s3.014-6.732,6.729-6.732c3.72,0,6.732,3.015,6.732,6.732
	S1266.092,403.857,1262.37,403.857z M1262.37,351.857c-3.719,0-6.729-3.014-6.729-6.732s3.014-6.732,6.729-6.732
	c3.72,0,6.732,3.014,6.732,6.732S1266.092,351.857,1262.37,351.857z M1262.37,299.857c-3.719,0-6.729-3.014-6.729-6.732
	s3.014-6.732,6.729-6.732c3.72,0,6.732,3.014,6.732,6.732S1266.092,299.857,1262.37,299.857z M1262.37,247.857
	c-3.719,0-6.729-3.014-6.729-6.732s3.014-6.732,6.729-6.732c3.72,0,6.732,3.014,6.732,6.732S1266.092,247.857,1262.37,247.857z
	 M1262.37,195.857c-3.719,0-6.729-3.014-6.729-6.732s3.014-6.732,6.729-6.732c3.72,0,6.732,3.014,6.732,6.732
	S1266.092,195.857,1262.37,195.857z M1262.37,143.857c-3.719,0-6.729-3.014-6.729-6.732s3.014-6.732,6.729-6.732
	c3.72,0,6.732,3.014,6.732,6.732S1266.092,143.857,1262.37,143.857z M1262.37,91.857c-3.719,0-6.729-3.014-6.729-6.732
	s3.014-6.732,6.729-6.732c3.72,0,6.732,3.014,6.732,6.732S1266.092,91.857,1262.37,91.857z M1318.941,611.858
	c-3.721,0-6.729-3.019-6.729-6.732s3.014-6.732,6.729-6.732s6.73,3.019,6.73,6.732S1322.659,611.858,1318.941,611.858z
	 M1318.941,559.858c-3.721,0-6.729-3.019-6.729-6.732s3.014-6.732,6.729-6.732s6.73,3.019,6.73,6.732
	S1322.659,559.858,1318.941,559.858z M1318.941,507.858c-3.721,0-6.729-3.019-6.729-6.732s3.014-6.732,6.729-6.732
	s6.73,3.019,6.73,6.732S1322.659,507.858,1318.941,507.858z M1318.941,455.858c-3.721,0-6.729-3.019-6.729-6.732
	s3.014-6.732,6.729-6.732s6.73,3.019,6.73,6.732S1322.659,455.858,1318.941,455.858z M1318.941,403.857
	c-3.721,0-6.729-3.016-6.729-6.732s3.014-6.732,6.729-6.732s6.73,3.015,6.73,6.732S1322.659,403.857,1318.941,403.857z
	 M1318.941,351.857c-3.721,0-6.729-3.014-6.729-6.732s3.014-6.732,6.729-6.732s6.73,3.014,6.73,6.732
	S1322.659,351.857,1318.941,351.857z M1318.941,299.857c-3.721,0-6.729-3.014-6.729-6.732s3.014-6.732,6.729-6.732
	s6.73,3.014,6.73,6.732S1322.659,299.857,1318.941,299.857z M1318.941,247.857c-3.721,0-6.729-3.014-6.729-6.732
	s3.014-6.732,6.729-6.732s6.73,3.014,6.73,6.732S1322.659,247.857,1318.941,247.857z M1318.941,195.857
	c-3.721,0-6.729-3.014-6.729-6.732s3.014-6.732,6.729-6.732s6.73,3.014,6.73,6.732S1322.659,195.857,1318.941,195.857z
	 M1318.941,143.857c-3.721,0-6.729-3.014-6.729-6.732s3.014-6.732,6.729-6.732s6.73,3.014,6.73,6.732
	S1322.659,143.857,1318.941,143.857z M1318.941,91.857c-3.721,0-6.729-3.014-6.729-6.732s3.014-6.732,6.729-6.732
	s6.73,3.014,6.73,6.732S1322.659,91.857,1318.941,91.857z M1318.941,39.857c-3.721,0-6.729-3.014-6.729-6.732
	s3.014-6.732,6.729-6.732s6.73,3.014,6.73,6.732S1322.659,39.857,1318.941,39.857z M1375.511,611.858c-3.72,0-6.73-3.019-6.73-6.732
	s3.017-6.732,6.73-6.732c3.719,0,6.729,3.019,6.729,6.732S1379.23,611.858,1375.511,611.858z M1375.511,559.858
	c-3.72,0-6.73-3.019-6.73-6.732s3.017-6.732,6.73-6.732c3.719,0,6.729,3.019,6.729,6.732S1379.23,559.858,1375.511,559.858z
	 M1375.511,507.858c-3.72,0-6.73-3.019-6.73-6.732s3.017-6.732,6.73-6.732c3.719,0,6.729,3.019,6.729,6.732
	S1379.23,507.858,1375.511,507.858z M1375.511,455.858c-3.72,0-6.73-3.019-6.73-6.732s3.017-6.732,6.73-6.732
	c3.719,0,6.729,3.019,6.729,6.732S1379.23,455.858,1375.511,455.858z M1375.511,403.857c-3.72,0-6.73-3.016-6.73-6.732
	s3.017-6.732,6.73-6.732c3.719,0,6.729,3.015,6.729,6.732S1379.23,403.857,1375.511,403.857z M1375.511,351.857
	c-3.72,0-6.73-3.014-6.73-6.732s3.017-6.732,6.73-6.732c3.719,0,6.729,3.014,6.729,6.732S1379.23,351.857,1375.511,351.857z
	 M1375.511,299.857c-3.72,0-6.73-3.014-6.73-6.732s3.017-6.732,6.73-6.732c3.719,0,6.729,3.014,6.729,6.732
	S1379.23,299.857,1375.511,299.857z M1375.511,247.857c-3.72,0-6.73-3.014-6.73-6.732s3.017-6.732,6.73-6.732
	c3.719,0,6.729,3.014,6.729,6.732S1379.23,247.857,1375.511,247.857z M1375.511,195.857c-3.72,0-6.73-3.014-6.73-6.732
	s3.017-6.732,6.73-6.732c3.719,0,6.729,3.014,6.729,6.732S1379.23,195.857,1375.511,195.857z M1375.511,143.857
	c-3.72,0-6.73-3.014-6.73-6.732s3.017-6.732,6.73-6.732c3.719,0,6.729,3.014,6.729,6.732S1379.23,143.857,1375.511,143.857z
	 M1375.511,91.857c-3.72,0-6.73-3.014-6.73-6.732s3.017-6.732,6.73-6.732c3.719,0,6.729,3.014,6.729,6.732
	S1379.23,91.857,1375.511,91.857z M1375.511,39.857c-3.72,0-6.73-3.014-6.73-6.732s3.017-6.732,6.73-6.732
	c3.719,0,6.729,3.014,6.729,6.732S1379.23,39.857,1375.511,39.857z M1432.082,611.858c-3.72,0-6.73-3.019-6.73-6.732
	s3.014-6.732,6.73-6.732c3.719,0,6.731,3.019,6.731,6.732S1435.802,611.858,1432.082,611.858z M1432.082,559.858
	c-3.72,0-6.73-3.019-6.73-6.732s3.014-6.732,6.73-6.732c3.719,0,6.731,3.019,6.731,6.732S1435.802,559.858,1432.082,559.858z
	 M1432.082,507.858c-3.72,0-6.73-3.019-6.73-6.732s3.014-6.732,6.73-6.732c3.719,0,6.731,3.019,6.731,6.732
	S1435.802,507.858,1432.082,507.858z M1432.082,455.858c-3.72,0-6.73-3.019-6.73-6.732s3.014-6.732,6.73-6.732
	c3.719,0,6.731,3.019,6.731,6.732S1435.802,455.858,1432.082,455.858z M1432.082,403.857c-3.72,0-6.73-3.016-6.73-6.732
	s3.014-6.732,6.73-6.732c3.719,0,6.731,3.015,6.731,6.732S1435.802,403.857,1432.082,403.857z M1432.082,351.857
	c-3.72,0-6.73-3.014-6.73-6.732s3.014-6.732,6.73-6.732c3.719,0,6.731,3.014,6.731,6.732S1435.802,351.857,1432.082,351.857z
	 M1432.082,299.857c-3.72,0-6.73-3.014-6.73-6.732s3.014-6.732,6.73-6.732c3.719,0,6.731,3.014,6.731,6.732
	S1435.802,299.857,1432.082,299.857z M1432.082,247.857c-3.72,0-6.73-3.014-6.73-6.732s3.014-6.732,6.73-6.732
	c3.719,0,6.731,3.014,6.731,6.732S1435.802,247.857,1432.082,247.857z M1432.082,195.857c-3.72,0-6.73-3.014-6.73-6.732
	s3.014-6.732,6.73-6.732c3.719,0,6.731,3.014,6.731,6.732S1435.802,195.857,1432.082,195.857z M1432.082,143.857
	c-3.72,0-6.73-3.014-6.73-6.732s3.014-6.732,6.73-6.732c3.719,0,6.731,3.014,6.731,6.732S1435.802,143.857,1432.082,143.857z
	 M1488.652,611.858c-3.721,0-6.729-3.019-6.729-6.732s3.014-6.732,6.729-6.732s6.73,3.019,6.73,6.732
	S1492.37,611.858,1488.652,611.858z M1488.652,559.858c-3.721,0-6.729-3.019-6.729-6.732s3.014-6.732,6.729-6.732
	s6.73,3.019,6.73,6.732S1492.37,559.858,1488.652,559.858z M1488.652,507.858c-3.721,0-6.729-3.019-6.729-6.732
	s3.014-6.732,6.729-6.732s6.73,3.019,6.73,6.732S1492.37,507.858,1488.652,507.858z M1488.652,455.858
	c-3.721,0-6.729-3.019-6.729-6.732s3.014-6.732,6.729-6.732s6.73,3.019,6.73,6.732S1492.37,455.858,1488.652,455.858z
	 M1488.652,403.857c-3.721,0-6.729-3.016-6.729-6.732s3.014-6.732,6.729-6.732s6.73,3.015,6.73,6.732
	S1492.37,403.857,1488.652,403.857z M1488.652,351.857c-3.721,0-6.729-3.014-6.729-6.732s3.014-6.732,6.729-6.732
	s6.73,3.014,6.73,6.732S1492.37,351.857,1488.652,351.857z M1488.652,299.857c-3.721,0-6.729-3.014-6.729-6.732
	s3.014-6.732,6.729-6.732s6.73,3.014,6.73,6.732S1492.37,299.857,1488.652,299.857z M1488.652,247.857
	c-3.721,0-6.729-3.014-6.729-6.732s3.014-6.732,6.729-6.732s6.73,3.014,6.73,6.732S1492.37,247.857,1488.652,247.857z
	 M1488.652,195.857c-3.721,0-6.729-3.014-6.729-6.732s3.014-6.732,6.729-6.732s6.73,3.014,6.73,6.732
	S1492.37,195.857,1488.652,195.857z M1488.652,143.857c-3.721,0-6.729-3.014-6.729-6.732s3.014-6.732,6.729-6.732
	s6.73,3.014,6.73,6.732S1492.37,143.857,1488.652,143.857z M1545.222,611.858c-3.719,0-6.73-3.019-6.73-6.732
	s3.017-6.732,6.73-6.732c3.719,0,6.731,3.019,6.731,6.732S1548.941,611.858,1545.222,611.858z M1545.222,559.858
	c-3.719,0-6.73-3.019-6.73-6.732s3.017-6.732,6.73-6.732c3.719,0,6.731,3.019,6.731,6.732S1548.941,559.858,1545.222,559.858z
	 M1545.222,507.858c-3.719,0-6.73-3.019-6.73-6.732s3.017-6.732,6.73-6.732c3.719,0,6.731,3.019,6.731,6.732
	S1548.941,507.858,1545.222,507.858z M1545.222,455.858c-3.719,0-6.73-3.019-6.73-6.732s3.017-6.732,6.73-6.732
	c3.719,0,6.731,3.019,6.731,6.732S1548.941,455.858,1545.222,455.858z M1545.222,403.857c-3.719,0-6.73-3.016-6.73-6.732
	s3.017-6.732,6.73-6.732c3.719,0,6.731,3.015,6.731,6.732S1548.941,403.857,1545.222,403.857z M1545.222,351.857
	c-3.719,0-6.73-3.014-6.73-6.732s3.017-6.732,6.73-6.732c3.719,0,6.731,3.014,6.731,6.732S1548.941,351.857,1545.222,351.857z
	 M1545.222,299.857c-3.719,0-6.73-3.014-6.73-6.732s3.017-6.732,6.73-6.732c3.719,0,6.731,3.014,6.731,6.732
	S1548.941,299.857,1545.222,299.857z M1545.222,247.857c-3.719,0-6.73-3.014-6.73-6.732s3.017-6.732,6.73-6.732
	c3.719,0,6.731,3.014,6.731,6.732S1548.941,247.857,1545.222,247.857z M1545.222,195.857c-3.719,0-6.73-3.014-6.73-6.732
	s3.017-6.732,6.73-6.732c3.719,0,6.731,3.014,6.731,6.732S1548.941,195.857,1545.222,195.857z M1601.793,611.858
	c-3.72,0-6.73-3.019-6.73-6.732s3.014-6.732,6.73-6.732c3.719,0,6.731,3.019,6.731,6.732S1605.511,611.858,1601.793,611.858z
	 M1601.793,559.858c-3.72,0-6.73-3.019-6.73-6.732s3.014-6.732,6.73-6.732c3.719,0,6.731,3.019,6.731,6.732
	S1605.511,559.858,1601.793,559.858z M1601.793,507.858c-3.72,0-6.73-3.019-6.73-6.732s3.014-6.732,6.73-6.732
	c3.719,0,6.731,3.019,6.731,6.732S1605.511,507.858,1601.793,507.858z M1601.793,455.858c-3.72,0-6.73-3.019-6.73-6.732
	s3.014-6.732,6.73-6.732c3.719,0,6.731,3.019,6.731,6.732S1605.511,455.858,1601.793,455.858z M1601.793,403.857
	c-3.72,0-6.73-3.016-6.73-6.732s3.014-6.732,6.73-6.732c3.719,0,6.731,3.015,6.731,6.732S1605.511,403.857,1601.793,403.857z
	 M1601.793,351.857c-3.72,0-6.73-3.014-6.73-6.732s3.014-6.732,6.73-6.732c3.719,0,6.731,3.014,6.731,6.732
	S1605.511,351.857,1601.793,351.857z M1601.793,299.857c-3.72,0-6.73-3.014-6.73-6.732s3.014-6.732,6.73-6.732
	c3.719,0,6.731,3.014,6.731,6.732S1605.511,299.857,1601.793,299.857z M1601.793,247.857c-3.72,0-6.73-3.014-6.73-6.732
	s3.014-6.732,6.73-6.732c3.719,0,6.731,3.014,6.731,6.732S1605.511,247.857,1601.793,247.857z M1658.363,611.858
	c-3.719,0-6.729-3.019-6.729-6.732s3.014-6.732,6.729-6.732s6.73,3.019,6.73,6.732S1662.082,611.858,1658.363,611.858z
	 M1658.363,559.858c-3.719,0-6.729-3.019-6.729-6.732s3.014-6.732,6.729-6.732s6.73,3.019,6.73,6.732
	S1662.082,559.858,1658.363,559.858z M1658.363,507.858c-3.719,0-6.729-3.019-6.729-6.732s3.014-6.732,6.729-6.732
	s6.73,3.019,6.73,6.732S1662.082,507.858,1658.363,507.858z M1658.363,455.858c-3.719,0-6.729-3.019-6.729-6.732
	s3.014-6.732,6.729-6.732s6.73,3.019,6.73,6.732S1662.082,455.858,1658.363,455.858z M1658.363,403.857
	c-3.719,0-6.729-3.016-6.729-6.732s3.014-6.732,6.729-6.732s6.73,3.015,6.73,6.732S1662.082,403.857,1658.363,403.857z
	 M1658.363,351.857c-3.719,0-6.729-3.014-6.729-6.732s3.014-6.732,6.729-6.732s6.73,3.014,6.73,6.732
	S1662.082,351.857,1658.363,351.857z M1658.363,247.857c-3.719,0-6.729-3.014-6.729-6.732s3.014-6.732,6.729-6.732
	s6.73,3.014,6.73,6.732S1662.082,247.857,1658.363,247.857z M1714.933,611.858c-3.719,0-6.73-3.019-6.73-6.732
	s3.017-6.732,6.73-6.732c3.719,0,6.731,3.019,6.731,6.732S1718.652,611.858,1714.933,611.858z M1714.933,559.858
	c-3.719,0-6.73-3.019-6.73-6.732s3.017-6.732,6.73-6.732c3.719,0,6.731,3.019,6.731,6.732S1718.652,559.858,1714.933,559.858z
	 M1714.933,507.858c-3.719,0-6.73-3.019-6.73-6.732s3.017-6.732,6.73-6.732c3.719,0,6.731,3.019,6.731,6.732
	S1718.652,507.858,1714.933,507.858z M1714.933,455.858c-3.719,0-6.73-3.019-6.73-6.732s3.017-6.732,6.73-6.732
	c3.719,0,6.731,3.019,6.731,6.732S1718.652,455.858,1714.933,455.858z M1714.933,403.857c-3.719,0-6.73-3.016-6.73-6.732
	s3.017-6.732,6.73-6.732c3.719,0,6.731,3.015,6.731,6.732S1718.652,403.857,1714.933,403.857z M1714.933,351.857
	c-3.719,0-6.73-3.014-6.73-6.732s3.017-6.732,6.73-6.732c3.719,0,6.731,3.014,6.731,6.732S1718.652,351.857,1714.933,351.857z
	 M1771.506,611.858c-3.722,0-6.732-3.019-6.732-6.732s3.014-6.732,6.732-6.732c3.717,0,6.729,3.019,6.729,6.732
	S1775.222,611.858,1771.506,611.858z M1771.506,559.858c-3.722,0-6.732-3.019-6.732-6.732s3.014-6.732,6.732-6.732
	c3.717,0,6.729,3.019,6.729,6.732S1775.222,559.858,1771.506,559.858z M1771.506,507.858c-3.722,0-6.732-3.019-6.732-6.732
	s3.014-6.732,6.732-6.732c3.717,0,6.729,3.019,6.729,6.732S1775.222,507.858,1771.506,507.858z M1771.506,455.858
	c-3.722,0-6.732-3.019-6.732-6.732s3.014-6.732,6.732-6.732c3.717,0,6.729,3.019,6.729,6.732S1775.222,455.858,1771.506,455.858z
	 M1771.506,403.857c-3.722,0-6.732-3.016-6.732-6.732s3.014-6.732,6.732-6.732c3.717,0,6.729,3.015,6.729,6.732
	S1775.222,403.857,1771.506,403.857z M1771.506,351.857c-3.722,0-6.732-3.014-6.732-6.732s3.014-6.732,6.732-6.732
	c3.717,0,6.729,3.014,6.729,6.732S1775.222,351.857,1771.506,351.857z M1828.073,611.858c-3.719,0-6.729-3.019-6.729-6.732
	s3.014-6.732,6.729-6.732s6.73,3.019,6.73,6.732S1831.793,611.858,1828.073,611.858z M1828.073,559.858
	c-3.719,0-6.729-3.019-6.729-6.732s3.014-6.732,6.729-6.732s6.73,3.019,6.73,6.732S1831.793,559.858,1828.073,559.858z
	 M1828.073,507.858c-3.719,0-6.729-3.019-6.729-6.732s3.014-6.732,6.729-6.732s6.73,3.019,6.73,6.732
	S1831.793,507.858,1828.073,507.858z M1828.073,455.858c-3.719,0-6.729-3.019-6.729-6.732s3.014-6.732,6.729-6.732
	s6.73,3.019,6.73,6.732S1831.793,455.858,1828.073,455.858z M1828.073,403.857c-3.719,0-6.729-3.016-6.729-6.732
	s3.014-6.732,6.729-6.732s6.73,3.015,6.73,6.732S1831.793,403.857,1828.073,403.857z M1884.644,663.858
	c-3.719,0-6.729-3.019-6.729-6.732s3.016-6.732,6.729-6.732c3.719,0,6.732,3.019,6.732,6.732S1888.363,663.858,1884.644,663.858z
	 M1884.644,611.858c-3.719,0-6.729-3.019-6.729-6.732s3.016-6.732,6.729-6.732c3.719,0,6.732,3.019,6.732,6.732
	S1888.363,611.858,1884.644,611.858z M1884.644,559.858c-3.719,0-6.729-3.019-6.729-6.732s3.016-6.732,6.729-6.732
	c3.719,0,6.732,3.019,6.732,6.732S1888.363,559.858,1884.644,559.858z M1884.644,507.858c-3.719,0-6.729-3.019-6.729-6.732
	s3.016-6.732,6.729-6.732c3.719,0,6.732,3.019,6.732,6.732S1888.363,507.858,1884.644,507.858z M1884.644,455.858
	c-3.719,0-6.729-3.019-6.729-6.732s3.016-6.732,6.729-6.732c3.719,0,6.732,3.019,6.732,6.732S1888.363,455.858,1884.644,455.858z
	 M1941.217,663.858c-3.721,0-6.732-3.019-6.732-6.732s3.014-6.732,6.732-6.732c3.717,0,6.729,3.019,6.729,6.732
	S1944.933,663.858,1941.217,663.858z M1941.217,611.858c-3.721,0-6.732-3.019-6.732-6.732s3.014-6.732,6.732-6.732
	c3.717,0,6.729,3.019,6.729,6.732S1944.933,611.858,1941.217,611.858z M1941.217,559.858c-3.721,0-6.732-3.019-6.732-6.732
	s3.014-6.732,6.732-6.732c3.717,0,6.729,3.019,6.729,6.732S1944.933,559.858,1941.217,559.858z M1941.217,507.858
	c-3.721,0-6.732-3.019-6.732-6.732s3.014-6.732,6.732-6.732c3.717,0,6.729,3.019,6.729,6.732S1944.933,507.858,1941.217,507.858z"/>
</svg>
