<?xml version="1.0" encoding="utf-8"?>
<!-- Generator: Adobe Illustrator 16.0.0, SVG Export Plug-In . SVG Version: 6.00 Build 0)  -->
<!DOCTYPE svg PUBLIC "-//W3C//DTD SVG 1.1//EN" "http://www.w3.org/Graphics/SVG/1.1/DTD/svg11.dtd">
<svg version="1.1" id="Layer_1" xmlns="http://www.w3.org/2000/svg" xmlns:xlink="http://www.w3.org/1999/xlink" x="0px" y="0px"
	 width="2071.312px" height="1398.359px" viewBox="0 0 2071.312 1398.359" enable-background="new 0 0 2071.312 1398.359"
	 xml:space="preserve">
<path fill="none" stroke="#000000" stroke-linejoin="round" stroke-miterlimit="10" d="M1114.42,665.114l-0.008,0.119
	c-0.316-1.903-1.241-4.229-3.521-6.602c-4.969-5.109-10.513-8.641-11.305-9.069c-10.943-5.112-6.84-3.675-17.784-8.279
	c-11.159-4.754-1.224-0.721-10.512-4.683c-9.072-3.961-8.136-3.525-10.872-4.534c-3.096-1.079-6.264-2.376-11.592-4.032
	c-4.535-1.439-1.367-0.575-7.851-2.736c-4.317-1.438-7.633-1.727-10.008-2.16c-3.24-0.646-4.393-0.573-8.28-0.573
	c-20.088,0.218-133.92,3.169-221.256,6.479c-56.016,2.161-101.087,4.395-103.68,6.268c-27.503,19.801-102.456,85.246-113.327,93.602
	c-4.896,4.104-7.776,6.264-13.464,8.424c-11.018,3.672-13.968,4.535-21.024,3.744c-6.188-0.289-13.176-2.16-16.485-3.744
	c-3.386-1.297-9.071-3.891-16.199-9.074c-8.713-6.479-33.696-26.276-40.536-33.766c-75.312-77.546-76.464-78.408-76.464-78.408
	s-1.224-0.647-19.584-19.584c-5.616-3.89-84.672-49.68-96.048-51.049c-6.768-0.575-12.024,2.018-16.56,1.656
	c-9.072,0.861-13.32-0.938-19.368-4.32c-8.136-4.248-17.856-25.128-23.04-28.799c-24.912-12.745-40.896-19.227-47.592-18.649
	c-7.92,1.081-90.72,40.032-90.72,40.032c-9.288,3.168-20.088,11.81-20.952,19.08C44.719,688.441,37.23,726.171,0.871,862.034
	c-3.528,13.319,4.392,24.479,10.728,23.254c4.536-0.789,73.656-17.205,93.456-23.182c11.664-3.24,15.983-4.32,23.976-6.625
	c5.76-1.656,9.936-1.804,13.464-2.662c2.736-0.22,10.296-1.228,12.024-0.437c3.672-0.504,11.448,5.689,16.919,14.041
	c19.296,31.031,244.44,522.791,253.224,526.246c1.438,2.234,7.056,6.268,12.745,5.617c6.119-0.648,13.463-5.111,15.119-5.979
	c8.424-5.256,107.136-80.135,137.664-100.653c5.397-4.104,7.772-4.824,8.64-10.011c2.16-7.271,1.08-2.444,5.688-21.959
	c9.359-34.057,12.891-57.237,22.683-89.641c27.288-90.287,47.088-158.256,56.88-168.623
	c14.544-14.041,117.576-83.664,215.495-152.281c70.344-49.393,132.694-93.096,140.688-99.067c19.228-14.33,13.32-9.576,19.228-14.33
	c18-16.127,10.512-8.855,18-16.127c19.296-21.313,14.184-14.476,19.296-21.313c5.04-5.615,7.848-8.563,10.438-12.743
	c2.663-4.031,3.959-6.336,5.187-10.296c1.029-2.095,1.533-4.495,1.779-6.438l-0.054,0.819c0,0,0.707-1.784,0.289-4.365
	C1114.421,665.181,1114.42,665.114,1114.42,665.114z M542.987,1281.688c-1.869,0.218-3.667,0.359-5.464,0.359
	c-21.064,0-39.183-14.928-41.695-35.381c-0.146-1.578-0.287-3.158-0.287-4.736c0.072-20.235,15.959-37.893,37.598-40.547
	c1.795-0.213,3.664-0.354,5.461-0.354c20.99,0,39.106,14.926,41.623,35.379c0.22,1.578,0.289,3.157,0.289,4.733
	C580.512,1261.378,564.553,1279.032,542.987,1281.688z M1038.51,721.651c-1.869,0.215-3.666,0.286-5.463,0.286
	c-21.062,0-39.18-14.854-41.695-35.31c-0.145-1.579-0.284-3.229-0.284-4.809c0.068-20.237,15.96-37.894,37.598-40.478
	c1.796-0.288,3.665-0.356,5.462-0.356c21.062,0,39.107,14.928,41.624,35.307c0.217,1.652,0.287,3.229,0.287,4.811
	C1076.035,701.341,1060.077,718.997,1038.51,721.651z M1015.812,70.121L738.998,146.32
	c-61.296,20.302-205.441,31.543-389.646,41.496c-13.596,3.095-3.314,11.478,1.104,16.255l96.766,74.418
	c21.104,21.12,58.173,9.501,124.729,21.923c16.265,4.892,52.391,25.525,78.236,36.078c19.098,6.684,79.132,83.561,106.09,118.46
	l384.387-292.501c5.891-6.256,27.393-20.188,7.729-43.637l-44.889-33.3C1073.174,66.667,1043.943,61.537,1015.812,70.121z
	 M2069.782,645.295c-0.431-1.146-1.226-2.225-4.673-5.167c-1.799-1.507-4.241-3.444-7.188-5.741
	c-4.887-3.803-9.705-7.392-10.063-7.679c-0.07,0-0.07,0-0.07,0l-24.585-18.515l-0.072-0.072l-0.146-0.072
	c0,0-4.961-3.301-10.062-7.104c-8.7-6.242-10.711-8.471-11.146-9.042c-1.582-4.951-10.564-50.952-14.951-73.271
	c-2.732-13.995-4.101-20.741-4.387-21.817c-0.145-0.716-0.356-1.576-0.505-2.438c-0.646-3.229-1.508-7.248-3.521-10.405
	c-1.51-2.368-6.9-6.814-18.478-15.788c-2.946-2.296-6.256-4.809-6.831-5.455c-0.432-0.356-1.726-1.647-226.376-189.598
	c-1.295-1.076-2.877-1.579-4.744-1.579c-5.75,0-14.308,4.952-27.68,13.133l-0.286,0.145c-4.96,3.013-10.062,6.1-14.378,8.396
	c-4.24,2.225-6.541,3.014-7.764,3.302c0.071-1.22,0.502-3.517,1.938-7.751c1.652-4.807,4.168-10.691,6.613-16.36
	c2.729-6.315,5.463-12.847,7.188-18.085c1.008-3.014,1.512-5.381,1.728-7.319c0.286-3.229-0.504-5.597-2.301-7.105
	c-53.699-44.923-94.893-79.37-95.324-79.729l-0.071-0.072l-0.068-0.071l-79.078-59.349l-0.145-0.072l-0.071-0.071l-21.854-14.139
	l-0.07-0.072c-0.573-0.358-14.953-9.042-20.348-11.697l-0.066,0.001l-0.146-0.072c-0.791-0.287-1.582-0.503-2.373-0.503
	c-4.457,0-7.837,4.378-12.148,9.832c-0.504,0.646-1.078,1.292-1.582,1.938c-2.084,2.655-7.045,8.827-10.495,8.827
	c-0.071,0-0.146,0-0.146,0c-0.503-0.647-1.651-2.872-3.233-9.188c-1.224-5.095-2.229-10.979-3.093-15.716
	c-1.222-7.177-1.508-8.684-2.3-9.832l-0.216-0.359l-0.287-0.286c-4.172-4.164-8.625-7.894-9.562-8.612l-2.443-2.512l-0.07,0.001
	l-0.069-0.072l-15.169-14.065l-0.069-0.072v-0.072l-14.812-12.773h-0.068l-0.072-0.071l-9.633-7.751v-0.07h-0.072l-8.627-6.604
	c-1.006-1.005-5.966-5.382-10.783-6.172C1360.747,0.216,1359.311,0,1357.8,0c-1.798,0-3.521,0.287-5.961,0.999
	c-1.582,0.431-25.233,6.314-55.139,13.707c-34.578,8.54-77.643,19.162-113.08,28.06c-54.562,13.565-62.758,15.861-64.558,16.507
	c-6.541,1.866-10.928,3.732-12.362,7.392c-0.504,1.363-0.863,3.588,0.791,6.172c0.504,0.861,1.797,3.014,11.573,11.052
	c5.244,4.233,10.275,8.037,12.005,9.328c3.447,2.368,20.561,16.362,23.292,19.09c0.432,0.431,1.146,1.077,2.085,1.938
	c3.447,3.157,9.92,8.971,14.23,14.712c4.817,6.817,5.607,9.329,6.186,11.338c0.068,0.288,0.215,0.575,0.286,0.934
	c0.646,2.009,0.145,3.947-0.218,4.665l-0.216,0.143l-0.288,0.503c-2.517,3.875-16.391,15.644-22.787,20.524l-0.218,0.144
	l-0.145,0.144c-2.803,2.727-21.854,18.228-28.898,23.968l-39.179,31.647l-42.917,31.647l-0.072-0.001v0.072
	c-1.006,0.717-100.428,76.282-199.06,151.42c-57.94,44.206-104.312,79.585-137.665,105.206
	c-19.842,15.213-35.299,27.193-45.938,35.447c-18.044,13.994-18.547,14.643-19.051,15.285c-0.863,1.147-1.148,2.584-0.791,4.021
	c0.503,1.863,1.728,4.52,11.502,12.846c5.394,4.521,12.508,10.188,21.279,16.792c13.944,10.478,30.979,22.534,33.787,23.825
	c1.724,0.86,4.097,1.221,7.979,1.221c4.026,0,9.349-0.431,16.104-0.934c6.325-0.432,13.587-1.007,21.71-1.362
	c1.869-0.071,4.023-0.216,6.325-0.286c5.896-0.36,12.51-0.72,18.046-0.72c1.294,0,2.372,0.071,3.379,0.071c0.216,0,0.431,0,0.791,0
	c11.067,0,132.773-3.73,205.524-6.026c30.482-0.938,54.564-1.726,55.716-1.726h0.067c0.219,0,0.505,0,0.792,0
	c10.279,0,21.494,4.81,26.238,6.891c0.791,0.287,1.364,0.574,1.869,0.79c1.438,0.575,9.921,5.669,25.734,15.646
	c13.153,8.323,23.577,15.068,24.873,16.074c1.868,1.649,5.75,3.372,7.979,4.233c4.026,1.646,8.268,2.939,12.006,3.657
	c6.542,1.223,13.013,1.292,14.379,1.292c1.51,0.146,11.861,1.075,15.023,1.292c0.145,0,0.286,0,3.308,0
	c11.286,0,51.544-0.143,107.188-0.284c32.854-0.072,70.021-0.146,109.847-0.219c145.572-0.355,249.812-0.571,318.606-0.571
	c34.649,0,60.744,0.071,77.494,0.145h0.073h0.068c0.793,0,1.582,0,2.302,0c14.666,0,25.16,2.941,36.161,10.118
	c1.796,1.146,7.044,4.304,11.717,7.104c2.804,1.65,5.464,3.305,6.688,4.021c0.146,0.146,15.455,9.33,20.849,10.837
	c3.521,1.004,6.108,1.65,10.063,1.65c0.719,0,1.363,0,2.153-0.071c4.672-0.217,58.017-6.604,60.314-6.892l0.07,0.003l41.267-5.957
	l0.072,0.001l0.071,0.005c0.288-0.072,28.539-5.024,38.245-6.818c2.589-0.503,5.896-1.078,9.418-1.724
	c10.062-1.794,22.572-4.02,27.027-5.023c3.021-0.645,6.472-1.436,9.347-2.583c3.952-1.509,6.325-3.59,7.262-6.244
	c1.798-5.454,0.431-9.043-0.435-11.267C2069.929,645.727,2069.854,645.512,2069.782,645.295z M1147.646,91.858
	c-3.722,0-6.732-3.014-6.732-6.732s3.014-6.732,6.732-6.732c3.718,0,6.729,3.014,6.729,6.732S1151.365,91.858,1147.646,91.858z
	 M751.654,559.858c-3.721,0-6.731-3.018-6.731-6.732s3.014-6.732,6.731-6.732c3.719,0,6.73,3.018,6.73,6.732
	S755.374,559.858,751.654,559.858z M751.654,507.858c-3.721,0-6.731-3.018-6.731-6.732s3.014-6.731,6.731-6.731
	c3.719,0,6.73,3.017,6.73,6.731S755.374,507.858,751.654,507.858z M808.225,559.858c-3.719,0-6.729-3.018-6.729-6.732
	s3.014-6.732,6.729-6.732c3.721,0,6.732,3.018,6.732,6.732S811.944,559.858,808.225,559.858z M808.225,507.858
	c-3.719,0-6.729-3.018-6.729-6.732s3.014-6.731,6.729-6.731c3.721,0,6.732,3.017,6.732,6.731S811.944,507.858,808.225,507.858z
	 M864.795,559.858c-3.719,0-6.732-3.018-6.732-6.732s3.017-6.732,6.732-6.732s6.732,3.018,6.732,6.732
	S868.514,559.858,864.795,559.858z M864.795,507.858c-3.719,0-6.732-3.018-6.732-6.732s3.017-6.731,6.732-6.731
	s6.732,3.017,6.732,6.731S868.514,507.858,864.795,507.858z M864.795,455.858c-3.719,0-6.732-3.018-6.732-6.732
	s3.017-6.731,6.732-6.731s6.732,3.017,6.732,6.731S868.514,455.858,864.795,455.858z M921.366,559.858
	c-3.719,0-6.732-3.018-6.732-6.732s3.017-6.732,6.732-6.732s6.729,3.018,6.729,6.732S925.084,559.858,921.366,559.858z
	 M921.366,507.858c-3.719,0-6.732-3.018-6.732-6.732s3.017-6.731,6.732-6.731s6.729,3.017,6.729,6.731
	S925.084,507.858,921.366,507.858z M921.366,455.858c-3.719,0-6.732-3.018-6.732-6.732s3.017-6.731,6.732-6.731
	s6.729,3.017,6.729,6.731S925.084,455.858,921.366,455.858z M921.366,403.858c-3.719,0-6.732-3.017-6.732-6.732
	s3.017-6.732,6.732-6.732s6.729,3.016,6.729,6.732S925.084,403.858,921.366,403.858z M977.936,559.858
	c-3.719,0-6.729-3.018-6.729-6.732s3.014-6.732,6.729-6.732c3.721,0,6.732,3.018,6.732,6.732S981.655,559.858,977.936,559.858z
	 M977.936,507.858c-3.719,0-6.729-3.018-6.729-6.732s3.014-6.731,6.729-6.731c3.721,0,6.732,3.017,6.732,6.731
	S981.655,507.858,977.936,507.858z M977.936,455.858c-3.719,0-6.729-3.018-6.729-6.732s3.014-6.731,6.729-6.731
	c3.721,0,6.732,3.017,6.732,6.731S981.655,455.858,977.936,455.858z M977.936,403.858c-3.719,0-6.729-3.017-6.729-6.732
	s3.014-6.732,6.729-6.732c3.721,0,6.732,3.016,6.732,6.732S981.655,403.858,977.936,403.858z M977.936,351.858
	c-3.719,0-6.729-3.015-6.729-6.732s3.014-6.732,6.729-6.732c3.721,0,6.732,3.015,6.732,6.732S981.655,351.858,977.936,351.858z
	 M1034.506,559.858c-3.719,0-6.732-3.018-6.732-6.732s3.017-6.732,6.732-6.732s6.732,3.018,6.732,6.732
	S1038.225,559.858,1034.506,559.858z M1034.506,507.858c-3.719,0-6.732-3.018-6.732-6.732s3.017-6.731,6.732-6.731
	s6.732,3.017,6.732,6.731S1038.225,507.858,1034.506,507.858z M1034.506,455.858c-3.719,0-6.732-3.018-6.732-6.732
	s3.017-6.731,6.732-6.731s6.732,3.017,6.732,6.731S1038.225,455.858,1034.506,455.858z M1034.506,403.858
	c-3.719,0-6.732-3.017-6.732-6.732s3.017-6.732,6.732-6.732s6.732,3.016,6.732,6.732S1038.225,403.858,1034.506,403.858z
	 M1034.506,351.858c-3.719,0-6.732-3.015-6.732-6.732s3.017-6.732,6.732-6.732s6.732,3.015,6.732,6.732
	S1038.225,351.858,1034.506,351.858z M1034.506,299.858c-3.719,0-6.732-3.014-6.732-6.732s3.017-6.732,6.732-6.732
	s6.732,3.014,6.732,6.732S1038.225,299.858,1034.506,299.858z M1091.076,611.858c-3.719,0-6.732-3.018-6.732-6.732
	s3.017-6.732,6.732-6.732s6.732,3.018,6.732,6.732S1094.795,611.858,1091.076,611.858z M1091.076,559.858
	c-3.719,0-6.732-3.018-6.732-6.732s3.017-6.732,6.732-6.732s6.732,3.018,6.732,6.732S1094.795,559.858,1091.076,559.858z
	 M1091.076,507.858c-3.719,0-6.732-3.018-6.732-6.732s3.017-6.731,6.732-6.731s6.732,3.017,6.732,6.731
	S1094.795,507.858,1091.076,507.858z M1091.076,455.858c-3.719,0-6.732-3.018-6.732-6.732s3.017-6.731,6.732-6.731
	s6.732,3.017,6.732,6.731S1094.795,455.858,1091.076,455.858z M1091.076,403.858c-3.719,0-6.732-3.017-6.732-6.732
	s3.017-6.732,6.732-6.732s6.732,3.016,6.732,6.732S1094.795,403.858,1091.076,403.858z M1091.076,351.858
	c-3.719,0-6.732-3.015-6.732-6.732s3.017-6.732,6.732-6.732s6.732,3.015,6.732,6.732S1094.795,351.858,1091.076,351.858z
	 M1091.076,299.858c-3.719,0-6.732-3.014-6.732-6.732s3.017-6.732,6.732-6.732s6.732,3.014,6.732,6.732
	S1094.795,299.858,1091.076,299.858z M1091.076,247.858c-3.719,0-6.732-3.014-6.732-6.732s3.017-6.732,6.732-6.732
	s6.732,3.014,6.732,6.732S1094.795,247.858,1091.076,247.858z M1147.646,611.858c-3.722,0-6.732-3.018-6.732-6.732
	s3.014-6.732,6.732-6.732c3.718,0,6.729,3.018,6.729,6.732S1151.365,611.858,1147.646,611.858z M1147.646,559.858
	c-3.722,0-6.732-3.018-6.732-6.732s3.014-6.732,6.732-6.732c3.718,0,6.729,3.018,6.729,6.732S1151.365,559.858,1147.646,559.858z
	 M1147.646,507.858c-3.722,0-6.732-3.018-6.732-6.732s3.014-6.731,6.732-6.731c3.718,0,6.729,3.017,6.729,6.731
	S1151.365,507.858,1147.646,507.858z M1147.646,455.858c-3.722,0-6.732-3.018-6.732-6.732s3.014-6.731,6.732-6.731
	c3.718,0,6.729,3.017,6.729,6.731S1151.365,455.858,1147.646,455.858z M1147.646,403.858c-3.722,0-6.732-3.017-6.732-6.732
	s3.014-6.732,6.732-6.732c3.718,0,6.729,3.016,6.729,6.732S1151.365,403.858,1147.646,403.858z M1147.646,351.858
	c-3.722,0-6.732-3.015-6.732-6.732s3.014-6.732,6.732-6.732c3.718,0,6.729,3.015,6.729,6.732S1151.365,351.858,1147.646,351.858z
	 M1147.646,299.858c-3.722,0-6.732-3.014-6.732-6.732s3.014-6.732,6.732-6.732c3.718,0,6.729,3.014,6.729,6.732
	S1151.365,299.858,1147.646,299.858z M1147.646,247.858c-3.722,0-6.732-3.014-6.732-6.732s3.014-6.732,6.732-6.732
	c3.718,0,6.729,3.014,6.729,6.732S1151.365,247.858,1147.646,247.858z M1147.646,195.858c-3.722,0-6.732-3.014-6.732-6.732
	s3.014-6.732,6.732-6.732c3.718,0,6.729,3.014,6.729,6.732S1151.365,195.858,1147.646,195.858z M1204.217,611.858
	c-3.719,0-6.729-3.018-6.729-6.732s3.014-6.732,6.729-6.732c3.719,0,6.732,3.018,6.732,6.732S1207.936,611.858,1204.217,611.858z
	 M1204.217,559.858c-3.719,0-6.729-3.018-6.729-6.732s3.014-6.732,6.729-6.732c3.719,0,6.732,3.018,6.732,6.732
	S1207.936,559.858,1204.217,559.858z M1204.217,507.858c-3.719,0-6.729-3.018-6.729-6.732s3.014-6.731,6.729-6.731
	c3.719,0,6.732,3.017,6.732,6.731S1207.936,507.858,1204.217,507.858z M1204.217,455.858c-3.719,0-6.729-3.018-6.729-6.732
	s3.014-6.731,6.729-6.731c3.719,0,6.732,3.017,6.732,6.731S1207.936,455.858,1204.217,455.858z M1204.217,403.858
	c-3.719,0-6.729-3.017-6.729-6.732s3.014-6.732,6.729-6.732c3.719,0,6.732,3.016,6.732,6.732S1207.936,403.858,1204.217,403.858z
	 M1204.217,351.858c-3.719,0-6.729-3.015-6.729-6.732s3.014-6.732,6.729-6.732c3.719,0,6.732,3.015,6.732,6.732
	S1207.936,351.858,1204.217,351.858z M1204.217,299.858c-3.719,0-6.729-3.014-6.729-6.732s3.014-6.732,6.729-6.732
	c3.719,0,6.732,3.014,6.732,6.732S1207.936,299.858,1204.217,299.858z M1204.217,247.858c-3.719,0-6.729-3.014-6.729-6.732
	s3.014-6.732,6.729-6.732c3.719,0,6.732,3.014,6.732,6.732S1207.936,247.858,1204.217,247.858z M1204.217,195.858
	c-3.719,0-6.729-3.014-6.729-6.732s3.014-6.732,6.729-6.732c3.719,0,6.732,3.014,6.732,6.732S1207.936,195.858,1204.217,195.858z
	 M1204.217,143.858c-3.719,0-6.729-3.014-6.729-6.732s3.014-6.732,6.729-6.732c3.719,0,6.732,3.014,6.732,6.732
	S1207.936,143.858,1204.217,143.858z M1204.217,91.858c-3.719,0-6.729-3.014-6.729-6.732s3.014-6.732,6.729-6.732
	c3.719,0,6.732,3.014,6.732,6.732S1207.936,91.858,1204.217,91.858z M1260.787,611.858c-3.719,0-6.732-3.018-6.732-6.732
	s3.017-6.732,6.732-6.732s6.732,3.018,6.732,6.732S1264.506,611.858,1260.787,611.858z M1260.787,559.858
	c-3.719,0-6.732-3.018-6.732-6.732s3.017-6.732,6.732-6.732s6.732,3.018,6.732,6.732S1264.506,559.858,1260.787,559.858z
	 M1260.787,507.858c-3.719,0-6.732-3.018-6.732-6.732s3.017-6.731,6.732-6.731s6.732,3.017,6.732,6.731
	S1264.506,507.858,1260.787,507.858z M1260.787,455.858c-3.719,0-6.732-3.018-6.732-6.732s3.017-6.731,6.732-6.731
	s6.732,3.017,6.732,6.731S1264.506,455.858,1260.787,455.858z M1260.787,403.858c-3.719,0-6.732-3.017-6.732-6.732
	s3.017-6.732,6.732-6.732s6.732,3.016,6.732,6.732S1264.506,403.858,1260.787,403.858z M1260.787,351.858
	c-3.719,0-6.732-3.015-6.732-6.732s3.017-6.732,6.732-6.732s6.732,3.015,6.732,6.732S1264.506,351.858,1260.787,351.858z
	 M1260.787,299.858c-3.719,0-6.732-3.014-6.732-6.732s3.017-6.732,6.732-6.732s6.732,3.014,6.732,6.732
	S1264.506,299.858,1260.787,299.858z M1260.787,247.858c-3.719,0-6.732-3.014-6.732-6.732s3.017-6.732,6.732-6.732
	s6.732,3.014,6.732,6.732S1264.506,247.858,1260.787,247.858z M1260.787,195.858c-3.719,0-6.732-3.014-6.732-6.732
	s3.017-6.732,6.732-6.732s6.732,3.014,6.732,6.732S1264.506,195.858,1260.787,195.858z M1260.787,143.858
	c-3.719,0-6.732-3.014-6.732-6.732s3.017-6.732,6.732-6.732s6.732,3.014,6.732,6.732S1264.506,143.858,1260.787,143.858z
	 M1260.787,91.858c-3.719,0-6.732-3.014-6.732-6.732s3.017-6.732,6.732-6.732s6.732,3.014,6.732,6.732
	S1264.506,91.858,1260.787,91.858z M1260.787,39.858c-3.719,0-6.732-3.014-6.732-6.732s3.017-6.732,6.732-6.732
	s6.732,3.014,6.732,6.732S1264.506,39.858,1260.787,39.858z M1317.357,611.858c-3.722,0-6.732-3.018-6.732-6.732
	s3.014-6.732,6.732-6.732c3.718,0,6.729,3.018,6.729,6.732S1321.076,611.858,1317.357,611.858z M1317.357,559.858
	c-3.722,0-6.732-3.018-6.732-6.732s3.014-6.732,6.732-6.732c3.718,0,6.729,3.018,6.729,6.732S1321.076,559.858,1317.357,559.858z
	 M1317.357,507.858c-3.722,0-6.732-3.018-6.732-6.732s3.014-6.731,6.732-6.731c3.718,0,6.729,3.017,6.729,6.731
	S1321.076,507.858,1317.357,507.858z M1317.357,455.858c-3.722,0-6.732-3.018-6.732-6.732s3.014-6.731,6.732-6.731
	c3.718,0,6.729,3.017,6.729,6.731S1321.076,455.858,1317.357,455.858z M1317.357,403.858c-3.722,0-6.732-3.017-6.732-6.732
	s3.014-6.732,6.732-6.732c3.718,0,6.729,3.016,6.729,6.732S1321.076,403.858,1317.357,403.858z M1317.357,351.858
	c-3.722,0-6.732-3.015-6.732-6.732s3.014-6.732,6.732-6.732c3.718,0,6.729,3.015,6.729,6.732S1321.076,351.858,1317.357,351.858z
	 M1317.357,299.858c-3.722,0-6.732-3.014-6.732-6.732s3.014-6.732,6.732-6.732c3.718,0,6.729,3.014,6.729,6.732
	S1321.076,299.858,1317.357,299.858z M1317.357,247.858c-3.722,0-6.732-3.014-6.732-6.732s3.014-6.732,6.732-6.732
	c3.718,0,6.729,3.014,6.729,6.732S1321.076,247.858,1317.357,247.858z M1317.357,195.858c-3.722,0-6.732-3.014-6.732-6.732
	s3.014-6.732,6.732-6.732c3.718,0,6.729,3.014,6.729,6.732S1321.076,195.858,1317.357,195.858z M1317.357,143.858
	c-3.722,0-6.732-3.014-6.732-6.732s3.014-6.732,6.732-6.732c3.718,0,6.729,3.014,6.729,6.732S1321.076,143.858,1317.357,143.858z
	 M1317.357,91.858c-3.722,0-6.732-3.014-6.732-6.732s3.014-6.732,6.732-6.732c3.718,0,6.729,3.014,6.729,6.732
	S1321.076,91.858,1317.357,91.858z M1317.357,39.858c-3.722,0-6.732-3.014-6.732-6.732s3.014-6.732,6.732-6.732
	c3.718,0,6.729,3.014,6.729,6.732S1321.076,39.858,1317.357,39.858z M1373.928,611.858c-3.719,0-6.729-3.018-6.729-6.732
	s3.014-6.732,6.729-6.732c3.719,0,6.732,3.018,6.732,6.732S1377.646,611.858,1373.928,611.858z M1373.928,559.858
	c-3.719,0-6.729-3.018-6.729-6.732s3.014-6.732,6.729-6.732c3.719,0,6.732,3.018,6.732,6.732S1377.646,559.858,1373.928,559.858z
	 M1373.928,507.858c-3.719,0-6.729-3.018-6.729-6.732s3.014-6.731,6.729-6.731c3.719,0,6.732,3.017,6.732,6.731
	S1377.646,507.858,1373.928,507.858z M1373.928,455.858c-3.719,0-6.729-3.018-6.729-6.732s3.014-6.731,6.729-6.731
	c3.719,0,6.732,3.017,6.732,6.731S1377.646,455.858,1373.928,455.858z M1373.928,403.858c-3.719,0-6.729-3.017-6.729-6.732
	s3.014-6.732,6.729-6.732c3.719,0,6.732,3.016,6.732,6.732S1377.646,403.858,1373.928,403.858z M1373.928,351.858
	c-3.719,0-6.729-3.015-6.729-6.732s3.014-6.732,6.729-6.732c3.719,0,6.732,3.015,6.732,6.732S1377.646,351.858,1373.928,351.858z
	 M1373.928,299.858c-3.719,0-6.729-3.014-6.729-6.732s3.014-6.732,6.729-6.732c3.719,0,6.732,3.014,6.732,6.732
	S1377.646,299.858,1373.928,299.858z M1373.928,247.858c-3.719,0-6.729-3.014-6.729-6.732s3.014-6.732,6.729-6.732
	c3.719,0,6.732,3.014,6.732,6.732S1377.646,247.858,1373.928,247.858z M1373.928,195.858c-3.719,0-6.729-3.014-6.729-6.732
	s3.014-6.732,6.729-6.732c3.719,0,6.732,3.014,6.732,6.732S1377.646,195.858,1373.928,195.858z M1373.928,143.858
	c-3.719,0-6.729-3.014-6.729-6.732s3.014-6.732,6.729-6.732c3.719,0,6.732,3.014,6.732,6.732S1377.646,143.858,1373.928,143.858z
	 M1373.928,91.858c-3.719,0-6.729-3.014-6.729-6.732s3.014-6.732,6.729-6.732c3.719,0,6.732,3.014,6.732,6.732
	S1377.646,91.858,1373.928,91.858z M1373.928,39.858c-3.719,0-6.729-3.014-6.729-6.732s3.014-6.732,6.729-6.732
	c3.719,0,6.732,3.014,6.732,6.732S1377.646,39.858,1373.928,39.858z M1430.498,611.858c-3.719,0-6.732-3.018-6.732-6.732
	s3.017-6.732,6.732-6.732s6.732,3.018,6.732,6.732S1434.217,611.858,1430.498,611.858z M1430.498,559.858
	c-3.719,0-6.732-3.018-6.732-6.732s3.017-6.732,6.732-6.732s6.732,3.018,6.732,6.732S1434.217,559.858,1430.498,559.858z
	 M1430.498,507.858c-3.719,0-6.732-3.018-6.732-6.732s3.017-6.731,6.732-6.731s6.732,3.017,6.732,6.731
	S1434.217,507.858,1430.498,507.858z M1430.498,455.858c-3.719,0-6.732-3.018-6.732-6.732s3.017-6.731,6.732-6.731
	s6.732,3.017,6.732,6.731S1434.217,455.858,1430.498,455.858z M1430.498,403.858c-3.719,0-6.732-3.017-6.732-6.732
	s3.017-6.732,6.732-6.732s6.732,3.016,6.732,6.732S1434.217,403.858,1430.498,403.858z M1430.498,351.858
	c-3.719,0-6.732-3.015-6.732-6.732s3.017-6.732,6.732-6.732s6.732,3.015,6.732,6.732S1434.217,351.858,1430.498,351.858z
	 M1430.498,299.858c-3.719,0-6.732-3.014-6.732-6.732s3.017-6.732,6.732-6.732s6.732,3.014,6.732,6.732
	S1434.217,299.858,1430.498,299.858z M1430.498,247.858c-3.719,0-6.732-3.014-6.732-6.732s3.017-6.732,6.732-6.732
	s6.732,3.014,6.732,6.732S1434.217,247.858,1430.498,247.858z M1430.498,195.858c-3.719,0-6.732-3.014-6.732-6.732
	s3.017-6.732,6.732-6.732s6.732,3.014,6.732,6.732S1434.217,195.858,1430.498,195.858z M1430.498,143.858
	c-3.719,0-6.732-3.014-6.732-6.732s3.017-6.732,6.732-6.732s6.732,3.014,6.732,6.732S1434.217,143.858,1430.498,143.858z
	 M1487.068,611.858c-3.722,0-6.732-3.018-6.732-6.732s3.014-6.732,6.732-6.732c3.718,0,6.729,3.018,6.729,6.732
	S1490.787,611.858,1487.068,611.858z M1487.068,559.858c-3.722,0-6.732-3.018-6.732-6.732s3.014-6.732,6.732-6.732
	c3.718,0,6.729,3.018,6.729,6.732S1490.787,559.858,1487.068,559.858z M1487.068,507.858c-3.722,0-6.732-3.018-6.732-6.732
	s3.014-6.731,6.732-6.731c3.718,0,6.729,3.017,6.729,6.731S1490.787,507.858,1487.068,507.858z M1487.068,455.858
	c-3.722,0-6.732-3.018-6.732-6.732s3.014-6.731,6.732-6.731c3.718,0,6.729,3.017,6.729,6.731S1490.787,455.858,1487.068,455.858z
	 M1487.068,403.858c-3.722,0-6.732-3.017-6.732-6.732s3.014-6.732,6.732-6.732c3.718,0,6.729,3.016,6.729,6.732
	S1490.787,403.858,1487.068,403.858z M1487.068,351.858c-3.722,0-6.732-3.015-6.732-6.732s3.014-6.732,6.732-6.732
	c3.718,0,6.729,3.015,6.729,6.732S1490.787,351.858,1487.068,351.858z M1487.068,299.858c-3.722,0-6.732-3.014-6.732-6.732
	s3.014-6.732,6.732-6.732c3.718,0,6.729,3.014,6.729,6.732S1490.787,299.858,1487.068,299.858z M1487.068,247.858
	c-3.722,0-6.732-3.014-6.732-6.732s3.014-6.732,6.732-6.732c3.718,0,6.729,3.014,6.729,6.732S1490.787,247.858,1487.068,247.858z
	 M1487.068,195.858c-3.722,0-6.732-3.014-6.732-6.732s3.014-6.732,6.732-6.732c3.718,0,6.729,3.014,6.729,6.732
	S1490.787,195.858,1487.068,195.858z M1487.068,143.858c-3.722,0-6.732-3.014-6.732-6.732s3.014-6.732,6.732-6.732
	c3.718,0,6.729,3.014,6.729,6.732S1490.787,143.858,1487.068,143.858z M1543.639,611.858c-3.719,0-6.729-3.018-6.729-6.732
	s3.014-6.732,6.729-6.732c3.721,0,6.732,3.018,6.732,6.732S1547.357,611.858,1543.639,611.858z M1543.639,559.858
	c-3.719,0-6.729-3.018-6.729-6.732s3.014-6.732,6.729-6.732c3.721,0,6.732,3.018,6.732,6.732S1547.357,559.858,1543.639,559.858z
	 M1543.639,507.858c-3.719,0-6.729-3.018-6.729-6.732s3.014-6.731,6.729-6.731c3.721,0,6.732,3.017,6.732,6.731
	S1547.357,507.858,1543.639,507.858z M1543.639,455.858c-3.719,0-6.729-3.018-6.729-6.732s3.014-6.731,6.729-6.731
	c3.721,0,6.732,3.017,6.732,6.731S1547.357,455.858,1543.639,455.858z M1543.639,403.858c-3.719,0-6.729-3.017-6.729-6.732
	s3.014-6.732,6.729-6.732c3.721,0,6.732,3.016,6.732,6.732S1547.357,403.858,1543.639,403.858z M1543.639,351.858
	c-3.719,0-6.729-3.015-6.729-6.732s3.014-6.732,6.729-6.732c3.721,0,6.732,3.015,6.732,6.732S1547.357,351.858,1543.639,351.858z
	 M1543.639,299.858c-3.719,0-6.729-3.014-6.729-6.732s3.014-6.732,6.729-6.732c3.721,0,6.732,3.014,6.732,6.732
	S1547.357,299.858,1543.639,299.858z M1543.639,247.858c-3.719,0-6.729-3.014-6.729-6.732s3.014-6.732,6.729-6.732
	c3.721,0,6.732,3.014,6.732,6.732S1547.357,247.858,1543.639,247.858z M1543.639,195.858c-3.719,0-6.729-3.014-6.729-6.732
	s3.014-6.732,6.729-6.732c3.721,0,6.732,3.014,6.732,6.732S1547.357,195.858,1543.639,195.858z M1600.209,611.858
	c-3.719,0-6.732-3.018-6.732-6.732s3.017-6.732,6.732-6.732s6.732,3.018,6.732,6.732S1603.928,611.858,1600.209,611.858z
	 M1600.209,559.858c-3.719,0-6.732-3.018-6.732-6.732s3.017-6.732,6.732-6.732s6.732,3.018,6.732,6.732
	S1603.928,559.858,1600.209,559.858z M1600.209,507.858c-3.719,0-6.732-3.018-6.732-6.732s3.017-6.731,6.732-6.731
	s6.732,3.017,6.732,6.731S1603.928,507.858,1600.209,507.858z M1600.209,455.858c-3.719,0-6.732-3.018-6.732-6.732
	s3.017-6.731,6.732-6.731s6.732,3.017,6.732,6.731S1603.928,455.858,1600.209,455.858z M1600.209,403.858
	c-3.719,0-6.732-3.017-6.732-6.732s3.017-6.732,6.732-6.732s6.732,3.016,6.732,6.732S1603.928,403.858,1600.209,403.858z
	 M1600.209,351.858c-3.719,0-6.732-3.015-6.732-6.732s3.017-6.732,6.732-6.732s6.732,3.015,6.732,6.732
	S1603.928,351.858,1600.209,351.858z M1600.209,299.858c-3.719,0-6.732-3.014-6.732-6.732s3.017-6.732,6.732-6.732
	s6.732,3.014,6.732,6.732S1603.928,299.858,1600.209,299.858z M1600.209,247.858c-3.719,0-6.732-3.014-6.732-6.732
	s3.017-6.732,6.732-6.732s6.732,3.014,6.732,6.732S1603.928,247.858,1600.209,247.858z M1600.209,195.858
	c-3.719,0-6.732-3.014-6.732-6.732s3.017-6.732,6.732-6.732s6.732,3.014,6.732,6.732S1603.928,195.858,1600.209,195.858z
	 M1656.779,611.858c-3.719,0-6.732-3.018-6.732-6.732s3.014-6.732,6.732-6.732c3.718,0,6.729,3.018,6.729,6.732
	S1660.498,611.858,1656.779,611.858z M1656.779,559.858c-3.719,0-6.732-3.018-6.732-6.732s3.014-6.732,6.732-6.732
	c3.718,0,6.729,3.018,6.729,6.732S1660.498,559.858,1656.779,559.858z M1656.779,507.858c-3.719,0-6.732-3.018-6.732-6.732
	s3.014-6.731,6.732-6.731c3.718,0,6.729,3.017,6.729,6.731S1660.498,507.858,1656.779,507.858z M1656.779,455.858
	c-3.719,0-6.732-3.018-6.732-6.732s3.014-6.731,6.732-6.731c3.718,0,6.729,3.017,6.729,6.731S1660.498,455.858,1656.779,455.858z
	 M1656.779,403.858c-3.719,0-6.732-3.017-6.732-6.732s3.014-6.732,6.732-6.732c3.718,0,6.729,3.016,6.729,6.732
	S1660.498,403.858,1656.779,403.858z M1656.779,351.858c-3.719,0-6.732-3.015-6.732-6.732s3.014-6.732,6.732-6.732
	c3.718,0,6.729,3.015,6.729,6.732S1660.498,351.858,1656.779,351.858z M1656.779,247.858c-3.719,0-6.732-3.014-6.732-6.732
	s3.014-6.732,6.732-6.732c3.718,0,6.729,3.014,6.729,6.732S1660.498,247.858,1656.779,247.858z M1713.35,611.858
	c-3.719,0-6.729-3.018-6.729-6.732s3.014-6.732,6.729-6.732c3.721,0,6.732,3.018,6.732,6.732S1717.068,611.858,1713.35,611.858z
	 M1713.35,559.858c-3.719,0-6.729-3.018-6.729-6.732s3.014-6.732,6.729-6.732c3.721,0,6.732,3.018,6.732,6.732
	S1717.068,559.858,1713.35,559.858z M1713.35,507.858c-3.719,0-6.729-3.018-6.729-6.732s3.014-6.731,6.729-6.731
	c3.721,0,6.732,3.017,6.732,6.731S1717.068,507.858,1713.35,507.858z M1713.35,455.858c-3.719,0-6.729-3.018-6.729-6.732
	s3.014-6.731,6.729-6.731c3.721,0,6.732,3.017,6.732,6.731S1717.068,455.858,1713.35,455.858z M1713.35,403.858
	c-3.719,0-6.729-3.017-6.729-6.732s3.014-6.732,6.729-6.732c3.721,0,6.732,3.016,6.732,6.732S1717.068,403.858,1713.35,403.858z
	 M1713.35,351.858c-3.719,0-6.729-3.015-6.729-6.732s3.014-6.732,6.729-6.732c3.721,0,6.732,3.015,6.732,6.732
	S1717.068,351.858,1713.35,351.858z M1713.35,299.858c-3.719,0-6.729-3.014-6.729-6.732s3.014-6.732,6.729-6.732
	c3.721,0,6.732,3.014,6.732,6.732S1717.068,299.858,1713.35,299.858z M1769.92,611.858c-3.719,0-6.732-3.018-6.732-6.732
	s3.017-6.732,6.732-6.732s6.732,3.018,6.732,6.732S1773.639,611.858,1769.92,611.858z M1769.92,559.858
	c-3.719,0-6.732-3.018-6.732-6.732s3.017-6.732,6.732-6.732s6.732,3.018,6.732,6.732S1773.639,559.858,1769.92,559.858z
	 M1769.92,507.858c-3.719,0-6.732-3.018-6.732-6.732s3.017-6.731,6.732-6.731s6.732,3.017,6.732,6.731
	S1773.639,507.858,1769.92,507.858z M1769.92,455.858c-3.719,0-6.732-3.018-6.732-6.732s3.017-6.731,6.732-6.731
	s6.732,3.017,6.732,6.731S1773.639,455.858,1769.92,455.858z M1769.92,403.858c-3.719,0-6.732-3.017-6.732-6.732
	s3.017-6.732,6.732-6.732s6.732,3.016,6.732,6.732S1773.639,403.858,1769.92,403.858z M1769.92,351.858
	c-3.719,0-6.732-3.015-6.732-6.732s3.017-6.732,6.732-6.732s6.732,3.015,6.732,6.732S1773.639,351.858,1769.92,351.858z
	 M1826.49,611.858c-3.719,0-6.732-3.018-6.732-6.732s3.014-6.732,6.732-6.732c3.718,0,6.729,3.018,6.729,6.732
	S1830.209,611.858,1826.49,611.858z M1826.49,559.858c-3.719,0-6.732-3.018-6.732-6.732s3.014-6.732,6.732-6.732
	c3.718,0,6.729,3.018,6.729,6.732S1830.209,559.858,1826.49,559.858z M1826.49,507.858c-3.719,0-6.732-3.018-6.732-6.732
	s3.014-6.731,6.732-6.731c3.718,0,6.729,3.017,6.729,6.731S1830.209,507.858,1826.49,507.858z M1826.49,455.858
	c-3.719,0-6.732-3.018-6.732-6.732s3.014-6.731,6.732-6.731c3.718,0,6.729,3.017,6.729,6.731S1830.209,455.858,1826.49,455.858z
	 M1826.49,403.858c-3.719,0-6.732-3.017-6.732-6.732s3.014-6.732,6.732-6.732c3.718,0,6.729,3.016,6.729,6.732
	S1830.209,403.858,1826.49,403.858z M1883.061,663.858c-3.719,0-6.729-3.018-6.729-6.732s3.014-6.732,6.729-6.732
	c3.721,0,6.732,3.018,6.732,6.732S1886.779,663.858,1883.061,663.858z M1883.061,611.858c-3.719,0-6.729-3.018-6.729-6.732
	s3.014-6.732,6.729-6.732c3.721,0,6.732,3.018,6.732,6.732S1886.779,611.858,1883.061,611.858z M1883.061,559.858
	c-3.719,0-6.729-3.018-6.729-6.732s3.014-6.732,6.729-6.732c3.721,0,6.732,3.018,6.732,6.732S1886.779,559.858,1883.061,559.858z
	 M1883.061,507.858c-3.719,0-6.729-3.018-6.729-6.732s3.014-6.731,6.729-6.731c3.721,0,6.732,3.017,6.732,6.731
	S1886.779,507.858,1883.061,507.858z M1883.061,455.858c-3.719,0-6.729-3.018-6.729-6.732s3.014-6.731,6.729-6.731
	c3.721,0,6.732,3.017,6.732,6.731S1886.779,455.858,1883.061,455.858z M1939.631,663.858c-3.719,0-6.732-3.018-6.732-6.732
	s3.017-6.732,6.732-6.732s6.732,3.018,6.732,6.732S1943.35,663.858,1939.631,663.858z M1939.631,611.858
	c-3.719,0-6.732-3.018-6.732-6.732s3.017-6.732,6.732-6.732s6.732,3.018,6.732,6.732S1943.35,611.858,1939.631,611.858z
	 M1939.631,559.858c-3.719,0-6.732-3.018-6.732-6.732s3.017-6.732,6.732-6.732s6.732,3.018,6.732,6.732
	S1943.35,559.858,1939.631,559.858z M1939.631,507.858c-3.719,0-6.732-3.018-6.732-6.732s3.017-6.731,6.732-6.731
	s6.732,3.017,6.732,6.731S1943.35,507.858,1939.631,507.858z M1996.201,663.858c-3.719,0-6.732-3.018-6.732-6.732
	s3.016-6.732,6.732-6.732c3.716,0,6.732,3.018,6.732,6.732S1999.92,663.858,1996.201,663.858z"/>
</svg>
