<?xml version="1.0" encoding="utf-8"?>
<!-- Generator: Adobe Illustrator 16.0.0, SVG Export Plug-In . SVG Version: 6.00 Build 0)  -->
<!DOCTYPE svg PUBLIC "-//W3C//DTD SVG 1.1//EN" "http://www.w3.org/Graphics/SVG/1.1/DTD/svg11.dtd">
<svg version="1.1" id="Layer_1" xmlns="http://www.w3.org/2000/svg" xmlns:xlink="http://www.w3.org/1999/xlink" x="0px" y="0px"
	 width="910.504px" height="595.566px" viewBox="0 0 910.504 595.566" enable-background="new 0 0 910.504 595.566"
	 xml:space="preserve">
<path fill="none" stroke="#000000" stroke-linejoin="round" stroke-miterlimit="10" d="M706.182,311.634
	c-29.377-15.491-51.409-26.963-66.184-34.482c-92.689-47.18-185.191-94.743-277.038-143.554
	c-56.045-29.786-147.893-78.597-172.154-81.093c-19.998-2.056-39.985-4.238-59.954-6.567c-23.513-2.743-71.534-8.344-70.859-2.426
	l0,0l0.343,3.005l94.219,182.45l0,0c30.168,58.418,59.794,117.115,89.199,175.922c8.262,16.521,17.483,35.106,27.569,55.554
	c16.054,32.543,32.334,64.975,48.166,97.627l0,0l8.623,17.784l0,0c1.792,3.638,5.678,8.481,11.65,14.47
	c0.772,0.42,2.304-0.764,4.937-0.562c14.908,1.129,195.716,3.761,293.572,5.791c5.375,0.111,10.311-0.451,14.879-1.695
	c3.438-0.973,8.395-3.275,14.713-6.969l0,0l13.436-9.287l0,0c30.125-20.822,115.404-76.896,173.342-114.99
	c12.136-7.979,24.578-16.43,37.328-25.348c6.293-4.398,19.189-12.488,18.513-13.705c-2.365-4.225-5.464-7.855-9.228-10.979
	c-1.354-1.076-14.916-8.149-40.656-21.017c-11.303-5.668-24.854-12.672-40.668-21.086
	C782.239,350.425,743.942,331.544,706.182,311.634L706.182,311.634"/>
</svg>
