<?xml version="1.0" encoding="utf-8"?>
<!-- Generator: Adobe Illustrator 16.0.0, SVG Export Plug-In . SVG Version: 6.00 Build 0)  -->
<!DOCTYPE svg PUBLIC "-//W3C//DTD SVG 1.1//EN" "http://www.w3.org/Graphics/SVG/1.1/DTD/svg11.dtd">
<svg version="1.1" id="Layer_1" xmlns="http://www.w3.org/2000/svg" xmlns:xlink="http://www.w3.org/1999/xlink" x="0px" y="0px"
	 width="2392.85px" height="1401.949px" viewBox="0 0 2392.85 1401.949" enable-background="new 0 0 2392.85 1401.949"
	 xml:space="preserve">
<path d="M1466.645,159.387c0,0-0.002,0,0.064,0C1466.645,159.387,1466.643,159.387,1466.645,159.387L1466.645,159.387z
	 M1383.183,67.673c3.526,0,6.539,0.432,9.198,1.221c1.729,0.215,8.562,1.292,14.602,4.306c2.582,1.22,13.148,7.895,17.607,10.765
	l0.143,0.071l0.15,0.145c5.459,4.162,5.459,4.162,14.021,10.692l0.436,0.358c4.604,3.518,14.089,11.052,19.118,15.07
	c3.591,2.512,8.271,6.675,12.938,11.268c3.304,3.301,7.554,7.679,8.619,9.975c0.081,0.215,0.146,0.359,0.222,0.574
	c1.291,2.798,3.312,6.961,1.291,12.415c-1,3.374-4.093,5.741-6.606,7.68c-0.565,0.502-1.221,1.005-1.646,1.363
	c-1.511,1.363-2.229,2.01-2.812,2.583c-0.935,0.86-1.511,1.364-3.738,3.229c-64.842,53.608-131.473,102.26-202.066,153.859
	c-41.618,30.429-84.684,61.79-129.104,95.521l-0.079,0.068c-9.562,6.74-17.608,9.972-24.646,9.972c-4.75,0-8.987-1.431-13.013-4.438
	c-3.237-2.449-5.896-5.529-8.562-8.762c-7.979-9.688-67.5-85.333-71.17-90.062c-2.015-2.081-4.381-3.38-7.979-4.17
	c-3.729-0.859-8.409-1.14-14.369-1.43l-0.79-0.07c-2.521-0.148-5.314-0.29-8.271-0.43c-11.068-0.65-26.238-1.511-44.279-1.511
	c-3.602-0.001-7.188,0-10.71,0.069c-16.896,0.36-63.265,1.721-117.753,4.67c-32.925,1.721-64.268,3.729-93.094,6.021
	c-35.01,2.8-66.494,5.96-93.521,9.409l-0.064-0.01h-0.071c-126.736,12.488-278.564,30.648-389.338,43.851
	c-50.249,6.028-93.667,11.189-124.579,14.64h-0.07v0.07l-5.535,0.43c-20.561,1.65-20.848,1.65-24.082,1.802
	c-0.574,0.068-1.365,0.141-2.229,0.141c-2.805,0-6.541-0.36-9.703-0.931c-5.534-0.94-7.691-2.229-8.842-3.229
	c-2.157-1.51-4.17-3.16-6.976-5.46c-1.939-1.5-4.24-3.37-7.188-5.67c-1.007-0.791-12.438-9.11-23.725-17.721
	c-6.898-5.312-12.437-9.761-16.39-13.13c-2.444-2.092-4.241-3.812-5.535-5.101c-2.014-2.149-3.234-3.88-2.947-5.96
	c0.071-1.07,0.721-2.649,2.875-3.51c0.432-0.15,0.936-0.29,1.58-0.511c1.149-0.359,2.806-0.779,5.033-1.29
	c4.169-1.001,10.423-2.438,18.475-4.229c15.17-3.229,37.312-7.898,65.921-13.78c49.603-10.119,117.895-23.819,202.936-40.689
	c150.241-29.711,305.302-59.851,328.811-64.23l0.287-0.069h0.219c64.842-3.15,113.646-5.811,156.781-9.4
	c44.428-3.729,81.592-8.319,120.411-14.925c37.812-6.458,79.646-15.285,135.724-28.562c53.551-12.701,119.261-29.278,202.431-50.306
	c32.634-8.182,69.515-17.511,109.409-27.558c2.514-0.719,5.318-1.146,8.41-1.65c3.312-0.503,7.119-1.147,11.211-2.225l0.289-0.073
	l0.291-0.07c0.291,0,0.72-0.071,1.078-0.145C1375.134,68.248,1379.087,67.674,1383.183,67.673z M1432.781,681.29
	c0.392-1.062,0.746-2.135,1.081-3.214c0.809-2.592,1.312-5.387,0.531-8.049c-0.595-2.033-1.779-3.846-3.239-5.359
	c-1.621-1.665-3.354-3.22-5.162-4.681c-1.365-1.107-2.776-2.163-4.23-3.154c-0.925-0.63-1.893-1.208-2.903-1.683
	c-0.503-0.236-1.005-0.477-1.505-0.711c-0.797-0.381-1.591-0.762-2.383-1.146c-1.021-0.498-2.037-1.007-3.053-1.521
	c-0.768-0.388-1.531-0.771-2.311-1.137c-1.124-0.529-2.263-1.029-3.4-1.521c-1.359-0.587-2.728-1.164-4.094-1.737
	c-11.144-4.74-1.224-0.721-10.5-4.671c-9.052-3.949-8.117-3.51-10.854-4.521c-3.091-1.08-6.262-2.361-11.566-4.021
	c-4.525-1.43-1.365-0.569-7.841-2.72c-4.312-1.439-7.618-1.729-9.987-2.16c-3.235-0.646-4.395-0.569-8.271-0.569
	c-20.077,0.213-133.729,3.163-220.927,6.463c-55.923,2.149-100.923,4.38-103.514,6.239c-27.46,19.74-102.288,84.971-113.146,93.29
	c-4.89,4.091-7.767,6.25-13.44,8.396c-10.998,3.657-13.94,4.521-20.985,3.729c-6.187-0.288-13.154-2.146-16.463-3.729
	c-3.381-1.291-9.062-3.884-16.179-9.041c-8.695-6.459-33.646-26.193-40.475-33.654c-75.189-77.29-76.344-78.149-76.344-78.149
	s-1.228-0.641-19.556-19.521c-5.604-3.869-84.537-49.521-95.896-50.885c-6.756-0.564-12.005,2.016-16.53,1.647
	c-9.062,0.857-13.302-0.932-19.337-4.302c-8.125-4.239-17.828-25.049-23.008-28.709c-24.869-12.7-40.828-19.16-47.518-18.59
	c-7.906,1.074-90.576,39.896-90.576,39.896c-9.271,3.159-20.059,11.771-20.919,19.021c-21.641,133.55-29.113,171.159-65.416,306.562
	c-3.521,13.278,4.386,24.399,10.712,23.188c4.526-0.789,73.539-17.149,93.312-23.108c11.646-3.222,15.959-4.302,23.938-6.601
	c5.752-1.649,9.922-1.791,13.439-2.649c2.729-0.222,10.275-1.222,12.006-0.431c3.668-0.514,11.434,5.66,16.896,13.986
	c19.271,30.934,244.057,521.064,252.822,524.521c1.438,2.221,7.045,6.239,12.727,5.59c6.109-0.64,13.44-5.09,15.1-5.949
	c8.41-5.231,106.97-79.881,137.441-100.327c5.396-4.093,7.771-4.812,8.632-9.974c2.158-7.25,1.079-2.438,5.685-21.892
	c9.341-33.948,12.868-57.049,22.643-89.354c27.25-89.981,47.021-157.729,56.789-168.062
	c14.521-13.99,117.392-83.379,215.159-151.771c70.229-49.229,132.479-92.789,140.462-98.75c19.196-14.272,13.3-9.539,19.196-14.272
	c17.974-16.082,10.487-8.828,17.974-16.078c19.261-21.24,14.157-14.422,19.261-21.24c5.041-5.59,7.841-8.539,10.436-12.699
	c1.209-1.938,2.497-3.839,3.487-5.9C1431.65,684.195,1432.244,682.754,1432.781,681.29z M1355.087,646.078
	c21.062,0,39.104,14.932,41.618,35.312c0.209,1.648,0.277,3.229,0.277,4.812c0,20.232-15.948,37.89-37.521,40.549
	c-1.869,0.211-3.671,0.291-5.462,0.291c-21.066,0-39.184-14.858-41.697-35.312c-0.144-1.58-0.279-3.229-0.279-4.812
	c0.07-20.24,15.949-37.891,37.594-40.471C1351.418,646.158,1353.285,646.078,1355.087,646.078L1355.087,646.078z M859.57,1206.119
	c20.988,0,39.104,14.931,41.622,35.379c0.216,1.58,0.289,3.16,0.289,4.74c0,20.231-15.959,37.891-37.521,40.551
	c-1.869,0.209-3.666,0.351-5.467,0.351c-21.062,0-39.178-14.92-41.689-35.368c-0.146-1.579-0.287-3.159-0.287-4.732
	c0.071-20.24,15.959-37.896,37.601-40.559C855.904,1206.27,857.772,1206.119,859.57,1206.119z M2391.533,645.877
	c-0.051-0.146-0.125-0.362-0.195-0.578c-0.432-1.146-1.225-2.226-4.674-5.166c-1.799-1.509-4.24-3.445-7.188-5.742
	c-4.889-3.803-9.705-7.392-10.062-7.678c-0.068,0-0.068,0-0.068,0l-24.586-18.517l-0.07-0.072l-0.146-0.071
	c0,0-4.961-3.302-10.062-7.104c-8.698-6.242-10.711-8.478-11.146-9.043c-1.58-4.951-10.562-50.951-14.948-73.271
	c-2.729-13.994-4.104-20.74-4.39-21.812c-0.146-0.724-0.354-1.578-0.504-2.438c-0.646-3.229-1.511-7.248-3.521-10.404
	c-1.512-2.362-6.896-6.812-18.479-15.785c-2.944-2.299-6.258-4.812-6.83-5.452c-0.437-0.356-1.729-1.647-226.377-189.603
	c-1.295-1.076-2.877-1.579-4.744-1.579c-5.75,0-14.311,4.951-27.682,13.133l-0.283,0.145c-4.961,3.014-10.062,6.101-14.379,8.396
	c-4.238,2.225-6.541,3.014-7.767,3.302c0.069-1.22,0.502-3.517,1.938-7.751c1.65-4.807,4.168-10.691,6.611-16.36
	c2.729-6.314,5.463-12.847,7.188-18.085c1.01-3.014,1.514-5.381,1.729-7.318c0.283-3.229-0.504-5.598-2.303-7.104
	c-53.697-44.923-94.896-79.37-95.322-79.729l-0.071-0.072l-0.066-0.071l-79.074-59.349l-0.146-0.072l-0.069-0.071l-21.854-14.142
	l-0.072-0.072c-0.572-0.357-14.951-9.042-20.346-11.696l-0.066,0.001l-0.146-0.072c-0.791-0.287-1.582-0.503-2.373-0.503
	c-4.457,0-7.839,4.378-12.146,9.832c-0.504,0.646-1.079,1.292-1.582,1.938c-2.084,2.655-7.046,8.827-10.495,8.827
	c-0.067,0-0.146,0-0.146,0c-0.505-0.646-1.651-2.872-3.233-9.188c-1.224-5.096-2.229-10.979-3.093-15.717
	c-1.227-7.177-1.511-8.684-2.302-9.832l-0.219-0.358l-0.286-0.286c-4.173-4.164-8.625-7.896-9.562-8.612l-2.441-2.512l-0.066,0.001
	l-0.069-0.072l-15.168-14.064l-0.067-0.072v-0.072l-14.823-12.782h-0.066l-0.069-0.071l-9.636-7.751v-0.071h-0.066l-8.627-6.604
	c-1.009-1.005-5.968-5.382-10.78-6.172c-1.729-0.215-3.165-0.432-4.678-0.432c-1.801,0-3.521,0.287-5.964,0.999
	c-1.582,0.432-25.229,6.314-55.143,13.707c-34.576,8.54-77.643,19.162-113.078,28.061c-54.562,13.564-62.76,15.86-64.559,16.507
	c-6.541,1.866-10.932,3.731-12.363,7.392c-0.504,1.363-0.859,3.588,0.791,6.172c0.506,0.861,1.799,3.015,11.574,11.053
	c5.244,4.232,10.271,8.037,12.004,9.327c3.447,2.368,20.562,16.362,23.292,19.091c0.436,0.431,1.146,1.077,2.085,1.938
	c3.447,3.157,9.92,8.971,14.229,14.712c4.814,6.817,5.604,9.329,6.188,11.338c0.068,0.288,0.216,0.575,0.287,0.935
	c0.646,2.009,0.146,3.947-0.219,4.665l-0.219,0.143l-0.287,0.503c-2.52,3.875-16.394,15.645-22.785,20.524l-0.221,0.144
	l-0.146,0.145c-2.804,2.727-21.854,18.228-28.896,23.968l-39.182,31.646l-42.917,31.646l-0.069-0.001v0.072
	c-1.008,0.717-100.431,76.282-199.062,151.42c-57.938,44.2-104.312,79.584-137.663,105.2
	c-19.845,15.222-35.302,27.195-45.938,35.449c-18.044,13.994-18.548,14.646-19.053,15.284c-0.861,1.146-1.146,2.584-0.791,4.021
	c0.505,1.864,1.729,4.521,11.502,12.852c5.393,4.521,12.51,10.188,21.277,16.793c13.939,10.478,30.979,22.533,33.786,23.824
	c1.727,0.854,4.1,1.221,7.979,1.221c4.023,0,9.348-0.43,16.104-0.938c6.324-0.433,13.588-1.009,21.71-1.357
	c1.866-0.071,4.021-0.217,6.321-0.286c5.896-0.359,12.516-0.72,18.048-0.72c1.296,0,2.37,0.063,3.382,0.063c0.218,0,0.433,0,0.791,0
	c11.064,0,132.771-3.729,205.521-6.021c30.479-0.938,54.562-1.729,55.715-1.729h0.065c0.22,0,0.506,0,0.793,0
	c10.278,0,21.493,4.812,26.237,6.896c0.791,0.287,1.359,0.572,1.863,0.791c1.438,0.572,9.927,5.668,25.734,15.646
	c13.152,8.324,23.577,15.067,24.873,16.074c1.868,1.649,5.75,3.372,7.979,4.233c4.021,1.646,8.271,2.938,12.008,3.651
	c6.542,1.228,13.014,1.291,14.38,1.291c1.51,0.146,11.856,1.076,15.021,1.295c0.146,0,0.285,0,3.312,0
	c11.286,0,51.545-0.146,107.188-0.28c32.854-0.072,70.021-0.146,109.853-0.226c145.567-0.354,249.812-0.565,318.604-0.565
	c34.648,0,60.746,0.065,77.496,0.146h0.072h0.063c0.793,0,1.582,0,2.304,0c14.666,0,25.157,2.94,36.159,10.119
	c1.795,1.146,7.043,4.303,11.72,7.104c2.806,1.647,5.466,3.307,6.688,4.021c0.146,0.146,15.455,9.33,20.854,10.838
	c3.521,1.004,6.104,1.649,10.062,1.649c0.721,0,1.363,0,2.153-0.071c4.673-0.218,58.019-6.604,60.312-6.892l0.069,0.002l41.27-5.957
	l0.067,0.002l0.073,0.005c0.287-0.072,28.539-5.023,38.244-6.818c2.591-0.502,5.896-1.078,9.418-1.723
	c10.062-1.796,22.568-4.021,27.025-5.023c3.021-0.646,6.475-1.436,9.35-2.584c3.949-1.508,6.32-3.59,7.263-6.237
	C2393.765,651.695,2392.401,648.102,2391.533,645.877z M1073.212,559.863c-3.722,0-6.729-3.021-6.729-6.731
	c0-3.72,3.02-6.729,6.729-6.729c3.721,0,6.729,3.016,6.729,6.729S1076.928,559.863,1073.212,559.863z M1073.212,507.863
	c-3.722,0-6.729-3.021-6.729-6.731c0-3.72,3.02-6.729,6.729-6.729c3.721,0,6.729,3.016,6.729,6.729
	S1076.928,507.863,1073.212,507.863z M1129.779,559.863c-3.723,0-6.729-3.021-6.729-6.731c0-3.72,3.017-6.729,6.729-6.729
	c3.714,0,6.729,3.016,6.729,6.729C1136.512,556.847,1133.5,559.863,1129.779,559.863z M1129.779,507.863
	c-3.723,0-6.729-3.021-6.729-6.731c0-3.72,3.017-6.729,6.729-6.729c3.714,0,6.729,3.016,6.729,6.729
	C1136.512,504.847,1133.5,507.863,1129.779,507.863z M1186.349,559.863c-3.72,0-6.729-3.021-6.729-6.731
	c0-3.72,3.018-6.729,6.729-6.729c3.721,0,6.729,3.016,6.729,6.729C1193.084,556.847,1190.069,559.863,1186.349,559.863z
	 M1186.349,507.863c-3.72,0-6.729-3.021-6.729-6.731c0-3.72,3.018-6.729,6.729-6.729c3.721,0,6.729,3.016,6.729,6.729
	C1193.084,504.847,1190.069,507.863,1186.349,507.863z M1186.349,455.863c-3.72,0-6.729-3.021-6.729-6.731
	c0-3.72,3.018-6.729,6.729-6.729c3.721,0,6.729,3.016,6.729,6.729C1193.084,452.847,1190.069,455.863,1186.349,455.863z
	 M1242.922,559.863c-3.723,0-6.729-3.021-6.729-6.731c0-3.72,3.021-6.729,6.729-6.729c3.721,0,6.729,3.016,6.729,6.729
	C1249.652,556.847,1246.639,559.863,1242.922,559.863z M1242.922,507.863c-3.723,0-6.729-3.021-6.729-6.731
	c0-3.72,3.021-6.729,6.729-6.729c3.721,0,6.729,3.016,6.729,6.729C1249.652,504.847,1246.639,507.863,1242.922,507.863z
	 M1242.922,455.863c-3.723,0-6.729-3.021-6.729-6.731c0-3.72,3.021-6.729,6.729-6.729c3.721,0,6.729,3.016,6.729,6.729
	C1249.652,452.847,1246.639,455.863,1242.922,455.863z M1242.922,403.862c-3.723,0-6.729-3.021-6.729-6.731
	c0-3.713,3.021-6.732,6.729-6.732c3.721,0,6.729,3.016,6.729,6.732C1249.651,400.846,1246.639,403.862,1242.922,403.862z
	 M1299.49,559.863c-3.72,0-6.729-3.021-6.729-6.731c0-3.72,3.018-6.729,6.729-6.729c3.714,0,6.729,3.016,6.729,6.729
	S1303.212,559.863,1299.49,559.863z M1299.49,507.863c-3.72,0-6.729-3.021-6.729-6.731c0-3.72,3.018-6.729,6.729-6.729
	c3.714,0,6.729,3.016,6.729,6.729S1303.212,507.863,1299.49,507.863z M1299.49,455.863c-3.72,0-6.729-3.021-6.729-6.731
	c0-3.72,3.018-6.729,6.729-6.729c3.714,0,6.729,3.016,6.729,6.729S1303.212,455.863,1299.49,455.863z M1299.49,403.862
	c-3.72,0-6.729-3.021-6.729-6.731c0-3.713,3.018-6.732,6.729-6.732c3.714,0,6.729,3.016,6.729,6.732
	C1306.219,400.846,1303.212,403.862,1299.49,403.862z M1299.49,351.862c-3.72,0-6.729-3.015-6.729-6.732
	c0-3.717,3.018-6.731,6.729-6.731c3.714,0,6.729,3.015,6.729,6.731C1306.219,348.847,1303.212,351.862,1299.49,351.862z
	 M1356.058,559.863c-3.72,0-6.729-3.021-6.729-6.731c0-3.72,3.018-6.729,6.729-6.729c3.721,0,6.729,3.016,6.729,6.729
	C1362.796,556.847,1359.779,559.863,1356.058,559.863z M1356.058,507.863c-3.72,0-6.729-3.021-6.729-6.731
	c0-3.72,3.018-6.729,6.729-6.729c3.721,0,6.729,3.016,6.729,6.729C1362.796,504.847,1359.779,507.863,1356.058,507.863z
	 M1356.058,455.863c-3.72,0-6.729-3.021-6.729-6.731c0-3.72,3.018-6.729,6.729-6.729c3.721,0,6.729,3.016,6.729,6.729
	C1362.796,452.847,1359.779,455.863,1356.058,455.863z M1356.058,403.862c-3.72,0-6.729-3.021-6.729-6.731
	c0-3.713,3.018-6.732,6.729-6.732c3.721,0,6.729,3.016,6.729,6.732C1362.791,400.846,1359.779,403.862,1356.058,403.862z
	 M1356.058,351.862c-3.72,0-6.729-3.015-6.729-6.732c0-3.717,3.018-6.731,6.729-6.731c3.721,0,6.729,3.015,6.729,6.731
	C1362.791,348.847,1359.779,351.862,1356.058,351.862z M1356.058,299.862c-3.72,0-6.729-3.014-6.729-6.732
	c0-3.718,3.018-6.731,6.729-6.731c3.721,0,6.729,3.014,6.729,6.731C1362.793,296.848,1359.779,299.862,1356.058,299.862z
	 M1412.632,559.863c-3.72,0-6.729-3.021-6.729-6.731c0-3.72,3.018-6.729,6.729-6.729c3.721,0,6.729,3.016,6.729,6.729
	C1419.364,556.847,1416.349,559.863,1412.632,559.863z M1412.632,507.863c-3.72,0-6.729-3.021-6.729-6.731
	c0-3.72,3.018-6.729,6.729-6.729c3.721,0,6.729,3.016,6.729,6.729C1419.364,504.847,1416.349,507.863,1412.632,507.863z
	 M1412.632,455.863c-3.72,0-6.729-3.021-6.729-6.731c0-3.72,3.018-6.729,6.729-6.729c3.721,0,6.729,3.016,6.729,6.729
	C1419.364,452.847,1416.349,455.863,1412.632,455.863z M1412.632,403.862c-3.72,0-6.729-3.021-6.729-6.731
	c0-3.713,3.018-6.732,6.729-6.732c3.721,0,6.729,3.016,6.729,6.732C1419.363,400.846,1416.349,403.862,1412.632,403.862z
	 M1412.632,351.862c-3.72,0-6.729-3.015-6.729-6.732c0-3.717,3.018-6.731,6.729-6.731c3.721,0,6.729,3.015,6.729,6.731
	C1419.363,348.847,1416.349,351.862,1412.632,351.862z M1412.632,299.862c-3.72,0-6.729-3.014-6.729-6.732
	c0-3.718,3.018-6.731,6.729-6.731c3.721,0,6.729,3.014,6.729,6.731C1419.363,296.848,1416.349,299.862,1412.632,299.862z
	 M1412.632,247.862c-3.72,0-6.729-3.014-6.729-6.732c0-3.718,3.018-6.731,6.729-6.731c3.721,0,6.729,3.014,6.729,6.731
	C1419.363,244.848,1416.349,247.862,1412.632,247.862z M1469.201,611.863c-3.719,0-6.729-3.021-6.729-6.731
	c0-3.72,3.021-6.729,6.729-6.729c3.717,0,6.732,3.016,6.732,6.729C1475.933,608.847,1472.922,611.863,1469.201,611.863z
	 M1469.201,559.863c-3.719,0-6.729-3.021-6.729-6.731c0-3.72,3.021-6.729,6.729-6.729c3.717,0,6.732,3.016,6.732,6.729
	C1475.933,556.847,1472.922,559.863,1469.201,559.863z M1469.201,507.863c-3.719,0-6.729-3.021-6.729-6.731
	c0-3.72,3.021-6.729,6.729-6.729c3.717,0,6.732,3.016,6.732,6.729C1475.933,504.847,1472.922,507.863,1469.201,507.863z
	 M1469.201,455.863c-3.719,0-6.729-3.021-6.729-6.731c0-3.72,3.021-6.729,6.729-6.729c3.717,0,6.732,3.016,6.732,6.729
	C1475.933,452.847,1472.922,455.863,1469.201,455.863z M1469.201,403.862c-3.719,0-6.729-3.021-6.729-6.731
	c0-3.713,3.021-6.732,6.729-6.732c3.717,0,6.732,3.016,6.732,6.732C1475.933,400.846,1472.922,403.862,1469.201,403.862z
	 M1469.201,351.862c-3.719,0-6.729-3.015-6.729-6.732c0-3.717,3.021-6.731,6.729-6.731c3.717,0,6.732,3.015,6.732,6.731
	C1475.933,348.847,1472.922,351.862,1469.201,351.862z M1469.201,299.862c-3.719,0-6.729-3.014-6.729-6.732
	c0-3.718,3.021-6.731,6.729-6.731c3.717,0,6.732,3.014,6.732,6.731C1475.933,296.848,1472.922,299.862,1469.201,299.862z
	 M1469.201,247.862c-3.719,0-6.729-3.014-6.729-6.732c0-3.718,3.021-6.731,6.729-6.731c3.717,0,6.732,3.014,6.732,6.731
	C1475.933,244.848,1472.922,247.862,1469.201,247.862z M1525.772,611.863c-3.723,0-6.732-3.021-6.732-6.731
	c0-3.72,3.02-6.729,6.732-6.729s6.729,3.016,6.729,6.729C1532.504,608.845,1529.49,611.863,1525.772,611.863z M1525.772,559.863
	c-3.723,0-6.732-3.021-6.732-6.731c0-3.72,3.02-6.729,6.732-6.729s6.729,3.016,6.729,6.729
	C1532.504,556.845,1529.49,559.863,1525.772,559.863z M1525.772,507.863c-3.723,0-6.732-3.021-6.732-6.731
	c0-3.72,3.02-6.729,6.732-6.729s6.729,3.016,6.729,6.729C1532.504,504.845,1529.49,507.863,1525.772,507.863z M1525.772,455.863
	c-3.723,0-6.732-3.021-6.732-6.731c0-3.72,3.02-6.729,6.732-6.729s6.729,3.016,6.729,6.729
	C1532.504,452.845,1529.49,455.863,1525.772,455.863z M1525.772,403.862c-3.723,0-6.732-3.021-6.732-6.731
	c0-3.713,3.02-6.732,6.732-6.732s6.729,3.016,6.729,6.732C1532.504,400.846,1529.49,403.862,1525.772,403.862z M1525.772,351.862
	c-3.723,0-6.732-3.015-6.732-6.732c0-3.717,3.02-6.731,6.732-6.731s6.729,3.015,6.729,6.731
	C1532.504,348.847,1529.49,351.862,1525.772,351.862z M1525.772,299.862c-3.723,0-6.732-3.014-6.732-6.732
	c0-3.718,3.02-6.731,6.732-6.731s6.729,3.014,6.729,6.731C1532.505,296.848,1529.49,299.862,1525.772,299.862z M1525.772,247.862
	c-3.723,0-6.732-3.014-6.732-6.732c0-3.718,3.02-6.731,6.732-6.731s6.729,3.014,6.729,6.731
	C1532.505,244.848,1529.49,247.862,1525.772,247.862z M1525.772,195.862c-3.723,0-6.732-3.014-6.732-6.732
	c0-3.718,3.02-6.731,6.732-6.731s6.729,3.014,6.729,6.731C1532.505,192.848,1529.49,195.862,1525.772,195.862z M1525.772,143.862
	c-3.723,0-6.732-3.014-6.732-6.732c0-3.718,3.02-6.731,6.732-6.731s6.729,3.014,6.729,6.731
	C1532.505,140.848,1529.49,143.862,1525.772,143.862z M1525.772,91.862c-3.723,0-6.732-3.014-6.732-6.732
	c0-3.718,3.02-6.731,6.732-6.731s6.729,3.014,6.729,6.731C1532.505,88.848,1529.49,91.862,1525.772,91.862z M1582.343,611.863
	c-3.722,0-6.729-3.021-6.729-6.731c0-3.72,3.018-6.729,6.729-6.729c3.715,0,6.729,3.016,6.729,6.729
	C1589.074,608.847,1586.061,611.863,1582.343,611.863z M1582.343,559.863c-3.722,0-6.729-3.021-6.729-6.731
	c0-3.72,3.018-6.729,6.729-6.729c3.715,0,6.729,3.016,6.729,6.729C1589.074,556.847,1586.061,559.863,1582.343,559.863z
	 M1582.343,507.863c-3.722,0-6.729-3.021-6.729-6.731c0-3.72,3.018-6.729,6.729-6.729c3.715,0,6.729,3.016,6.729,6.729
	C1589.074,504.847,1586.061,507.863,1582.343,507.863z M1582.343,455.863c-3.722,0-6.729-3.021-6.729-6.731
	c0-3.72,3.018-6.729,6.729-6.729c3.715,0,6.729,3.016,6.729,6.729C1589.074,452.847,1586.061,455.863,1582.343,455.863z
	 M1582.343,403.862c-3.722,0-6.729-3.021-6.729-6.731c0-3.713,3.018-6.732,6.729-6.732c3.715,0,6.729,3.016,6.729,6.732
	C1589.072,400.846,1586.061,403.862,1582.343,403.862z M1582.343,351.862c-3.722,0-6.729-3.015-6.729-6.732
	c0-3.717,3.018-6.731,6.729-6.731c3.715,0,6.729,3.015,6.729,6.731C1589.072,348.847,1586.061,351.862,1582.343,351.862z
	 M1582.343,299.862c-3.722,0-6.729-3.014-6.729-6.732c0-3.718,3.018-6.731,6.729-6.731c3.715,0,6.729,3.014,6.729,6.731
	C1589.072,296.848,1586.061,299.862,1582.343,299.862z M1582.343,247.862c-3.722,0-6.729-3.014-6.729-6.732
	c0-3.718,3.018-6.731,6.729-6.731c3.715,0,6.729,3.014,6.729,6.731C1589.072,244.848,1586.061,247.862,1582.343,247.862z
	 M1582.343,195.862c-3.722,0-6.729-3.014-6.729-6.732c0-3.718,3.018-6.731,6.729-6.731c3.715,0,6.729,3.014,6.729,6.731
	C1589.072,192.848,1586.061,195.862,1582.343,195.862z M1582.343,143.862c-3.722,0-6.729-3.014-6.729-6.732
	c0-3.718,3.018-6.731,6.729-6.731c3.715,0,6.729,3.014,6.729,6.731C1589.072,140.848,1586.061,143.862,1582.343,143.862z
	 M1582.343,91.862c-3.722,0-6.729-3.014-6.729-6.732c0-3.718,3.018-6.731,6.729-6.731c3.715,0,6.729,3.014,6.729,6.731
	C1589.072,88.848,1586.061,91.862,1582.343,91.862z M1638.912,611.863c-3.719,0-6.729-3.021-6.729-6.731
	c0-3.72,3.018-6.729,6.729-6.729c3.723,0,6.732,3.016,6.732,6.729S1642.632,611.863,1638.912,611.863z M1638.912,559.863
	c-3.719,0-6.729-3.021-6.729-6.731c0-3.72,3.018-6.729,6.729-6.729c3.723,0,6.732,3.016,6.732,6.729
	S1642.632,559.863,1638.912,559.863z M1638.912,507.863c-3.719,0-6.729-3.021-6.729-6.731c0-3.72,3.018-6.729,6.729-6.729
	c3.723,0,6.732,3.016,6.732,6.729S1642.632,507.863,1638.912,507.863z M1638.912,455.863c-3.719,0-6.729-3.021-6.729-6.731
	c0-3.72,3.018-6.729,6.729-6.729c3.723,0,6.732,3.016,6.732,6.729S1642.632,455.863,1638.912,455.863z M1638.912,403.862
	c-3.719,0-6.729-3.021-6.729-6.731c0-3.713,3.018-6.732,6.729-6.732c3.723,0,6.732,3.016,6.732,6.732
	C1645.645,400.846,1642.632,403.862,1638.912,403.862z M1638.912,351.862c-3.719,0-6.729-3.015-6.729-6.732
	c0-3.717,3.018-6.731,6.729-6.731c3.723,0,6.732,3.015,6.732,6.731C1645.645,348.847,1642.632,351.862,1638.912,351.862z
	 M1638.912,299.862c-3.719,0-6.729-3.014-6.729-6.732c0-3.718,3.018-6.731,6.729-6.731c3.723,0,6.732,3.014,6.732,6.731
	C1645.645,296.848,1642.632,299.862,1638.912,299.862z M1638.912,247.862c-3.719,0-6.729-3.014-6.729-6.732
	c0-3.718,3.018-6.731,6.729-6.731c3.723,0,6.732,3.014,6.732,6.731C1645.645,244.848,1642.632,247.862,1638.912,247.862z
	 M1638.912,195.862c-3.719,0-6.729-3.014-6.729-6.732c0-3.718,3.018-6.731,6.729-6.731c3.723,0,6.732,3.014,6.732,6.731
	C1645.645,192.848,1642.632,195.862,1638.912,195.862z M1638.912,143.862c-3.719,0-6.729-3.014-6.729-6.732
	c0-3.718,3.018-6.731,6.729-6.731c3.723,0,6.732,3.014,6.732,6.731C1645.645,140.848,1642.632,143.862,1638.912,143.862z
	 M1638.912,91.862c-3.719,0-6.729-3.014-6.729-6.732c0-3.718,3.018-6.731,6.729-6.731c3.723,0,6.732,3.014,6.732,6.731
	C1645.645,88.848,1642.632,91.862,1638.912,91.862z M1638.912,39.862c-3.719,0-6.729-3.014-6.729-6.732
	c0-3.718,3.018-6.731,6.729-6.731c3.723,0,6.732,3.014,6.732,6.731C1645.645,36.848,1642.632,39.862,1638.912,39.862z
	 M1695.481,611.863c-3.722,0-6.729-3.021-6.729-6.731c0-3.72,3.017-6.729,6.729-6.729c3.717,0,6.729,3.016,6.729,6.729
	C1702.216,608.847,1699.201,611.863,1695.481,611.863z M1695.481,559.863c-3.722,0-6.729-3.021-6.729-6.731
	c0-3.72,3.017-6.729,6.729-6.729c3.717,0,6.729,3.016,6.729,6.729C1702.216,556.847,1699.201,559.863,1695.481,559.863z
	 M1695.481,507.863c-3.722,0-6.729-3.021-6.729-6.731c0-3.72,3.017-6.729,6.729-6.729c3.717,0,6.729,3.016,6.729,6.729
	C1702.216,504.847,1699.201,507.863,1695.481,507.863z M1695.481,455.863c-3.722,0-6.729-3.021-6.729-6.731
	c0-3.72,3.017-6.729,6.729-6.729c3.717,0,6.729,3.016,6.729,6.729C1702.216,452.847,1699.201,455.863,1695.481,455.863z
	 M1695.481,403.862c-3.722,0-6.729-3.021-6.729-6.731c0-3.713,3.017-6.732,6.729-6.732c3.717,0,6.729,3.016,6.729,6.732
	C1702.213,400.846,1699.201,403.862,1695.481,403.862z M1695.481,351.862c-3.722,0-6.729-3.015-6.729-6.732
	c0-3.717,3.017-6.731,6.729-6.731c3.717,0,6.729,3.015,6.729,6.731C1702.213,348.847,1699.201,351.862,1695.481,351.862z
	 M1695.481,299.862c-3.722,0-6.729-3.014-6.729-6.732c0-3.718,3.017-6.731,6.729-6.731c3.717,0,6.729,3.014,6.729,6.731
	C1702.214,296.848,1699.201,299.862,1695.481,299.862z M1695.481,247.862c-3.722,0-6.729-3.014-6.729-6.732
	c0-3.718,3.017-6.731,6.729-6.731c3.717,0,6.729,3.014,6.729,6.731C1702.214,244.848,1699.201,247.862,1695.481,247.862z
	 M1695.481,195.862c-3.722,0-6.729-3.014-6.729-6.732c0-3.718,3.017-6.731,6.729-6.731c3.717,0,6.729,3.014,6.729,6.731
	C1702.214,192.848,1699.201,195.862,1695.481,195.862z M1695.481,143.862c-3.722,0-6.729-3.014-6.729-6.732
	c0-3.718,3.017-6.731,6.729-6.731c3.717,0,6.729,3.014,6.729,6.731C1702.214,140.848,1699.201,143.862,1695.481,143.862z
	 M1695.481,91.862c-3.722,0-6.729-3.014-6.729-6.732c0-3.718,3.017-6.731,6.729-6.731c3.717,0,6.729,3.014,6.729,6.731
	C1702.214,88.848,1699.201,91.862,1695.481,91.862z M1695.481,39.862c-3.722,0-6.729-3.014-6.729-6.732
	c0-3.718,3.017-6.731,6.729-6.731c3.717,0,6.729,3.014,6.729,6.731C1702.214,36.848,1699.201,39.862,1695.481,39.862z
	 M1752.052,611.863c-3.72,0-6.729-3.021-6.729-6.731c0-3.72,3.018-6.729,6.729-6.729c3.721,0,6.729,3.016,6.729,6.729
	C1758.785,608.847,1755.77,611.863,1752.052,611.863z M1752.052,559.863c-3.72,0-6.729-3.021-6.729-6.731
	c0-3.72,3.018-6.729,6.729-6.729c3.721,0,6.729,3.016,6.729,6.729C1758.785,556.847,1755.77,559.863,1752.052,559.863z
	 M1752.052,507.863c-3.72,0-6.729-3.021-6.729-6.731c0-3.72,3.018-6.729,6.729-6.729c3.721,0,6.729,3.016,6.729,6.729
	C1758.785,504.847,1755.77,507.863,1752.052,507.863z M1752.052,455.863c-3.72,0-6.729-3.021-6.729-6.731
	c0-3.72,3.018-6.729,6.729-6.729c3.721,0,6.729,3.016,6.729,6.729C1758.785,452.847,1755.77,455.863,1752.052,455.863z
	 M1752.052,403.862c-3.72,0-6.729-3.021-6.729-6.731c0-3.713,3.018-6.732,6.729-6.732c3.721,0,6.729,3.016,6.729,6.732
	C1758.781,400.846,1755.77,403.862,1752.052,403.862z M1752.052,351.862c-3.72,0-6.729-3.015-6.729-6.732
	c0-3.717,3.018-6.731,6.729-6.731c3.721,0,6.729,3.015,6.729,6.731C1758.781,348.847,1755.77,351.862,1752.052,351.862z
	 M1752.052,299.862c-3.72,0-6.729-3.014-6.729-6.732c0-3.718,3.018-6.731,6.729-6.731c3.721,0,6.729,3.014,6.729,6.731
	C1758.781,296.848,1755.77,299.862,1752.052,299.862z M1752.052,247.862c-3.72,0-6.729-3.014-6.729-6.732
	c0-3.718,3.018-6.731,6.729-6.731c3.721,0,6.729,3.014,6.729,6.731C1758.781,244.848,1755.77,247.862,1752.052,247.862z
	 M1752.052,195.862c-3.72,0-6.729-3.014-6.729-6.732c0-3.718,3.018-6.731,6.729-6.731c3.721,0,6.729,3.014,6.729,6.731
	C1758.781,192.848,1755.77,195.862,1752.052,195.862z M1752.052,143.862c-3.72,0-6.729-3.014-6.729-6.732
	c0-3.718,3.018-6.731,6.729-6.731c3.721,0,6.729,3.014,6.729,6.731C1758.781,140.848,1755.77,143.862,1752.052,143.862z
	 M1808.625,611.863c-3.722,0-6.729-3.021-6.729-6.731c0-3.72,3.02-6.729,6.729-6.729c3.711,0,6.729,3.016,6.729,6.729
	C1815.352,608.845,1812.341,611.863,1808.625,611.863z M1808.625,559.863c-3.722,0-6.729-3.021-6.729-6.731
	c0-3.72,3.02-6.729,6.729-6.729c3.711,0,6.729,3.016,6.729,6.729C1815.352,556.845,1812.341,559.863,1808.625,559.863z
	 M1808.625,507.863c-3.722,0-6.729-3.021-6.729-6.731c0-3.72,3.02-6.729,6.729-6.729c3.711,0,6.729,3.016,6.729,6.729
	C1815.352,504.845,1812.341,507.863,1808.625,507.863z M1808.625,455.863c-3.722,0-6.729-3.021-6.729-6.731
	c0-3.72,3.02-6.729,6.729-6.729c3.711,0,6.729,3.016,6.729,6.729C1815.352,452.845,1812.341,455.863,1808.625,455.863z
	 M1808.625,403.862c-3.722,0-6.729-3.021-6.729-6.731c0-3.713,3.02-6.732,6.729-6.732c3.711,0,6.729,3.016,6.729,6.732
	C1815.352,400.846,1812.341,403.862,1808.625,403.862z M1808.625,351.862c-3.722,0-6.729-3.015-6.729-6.732
	c0-3.717,3.02-6.731,6.729-6.731c3.711,0,6.729,3.015,6.729,6.731C1815.352,348.847,1812.341,351.862,1808.625,351.862z
	 M1808.625,299.862c-3.722,0-6.729-3.014-6.729-6.732c0-3.718,3.02-6.731,6.729-6.731c3.711,0,6.729,3.014,6.729,6.731
	C1815.354,296.848,1812.341,299.862,1808.625,299.862z M1808.625,247.862c-3.722,0-6.729-3.014-6.729-6.732
	c0-3.718,3.02-6.731,6.729-6.731c3.711,0,6.729,3.014,6.729,6.731C1815.354,244.848,1812.341,247.862,1808.625,247.862z
	 M1808.625,195.862c-3.722,0-6.729-3.014-6.729-6.732c0-3.718,3.02-6.731,6.729-6.731c3.711,0,6.729,3.014,6.729,6.731
	C1815.354,192.848,1812.341,195.862,1808.625,195.862z M1808.625,143.862c-3.722,0-6.729-3.014-6.729-6.732
	c0-3.718,3.02-6.731,6.729-6.731c3.711,0,6.729,3.014,6.729,6.731C1815.354,140.848,1812.341,143.862,1808.625,143.862z
	 M1865.193,611.863c-3.723,0-6.729-3.021-6.729-6.731c0-3.72,3.017-6.729,6.729-6.729s6.729,3.016,6.729,6.729
	C1871.925,608.847,1868.912,611.863,1865.193,611.863z M1865.193,559.863c-3.723,0-6.729-3.021-6.729-6.731
	c0-3.72,3.017-6.729,6.729-6.729s6.729,3.016,6.729,6.729C1871.925,556.847,1868.912,559.863,1865.193,559.863z M1865.193,507.863
	c-3.723,0-6.729-3.021-6.729-6.731c0-3.72,3.017-6.729,6.729-6.729s6.729,3.016,6.729,6.729
	C1871.925,504.847,1868.912,507.863,1865.193,507.863z M1865.193,455.863c-3.723,0-6.729-3.021-6.729-6.731
	c0-3.72,3.017-6.729,6.729-6.729s6.729,3.016,6.729,6.729C1871.925,452.847,1868.912,455.863,1865.193,455.863z M1865.193,403.862
	c-3.723,0-6.729-3.021-6.729-6.731c0-3.713,3.017-6.732,6.729-6.732s6.729,3.016,6.729,6.732
	C1871.923,400.846,1868.912,403.862,1865.193,403.862z M1865.193,351.862c-3.723,0-6.729-3.015-6.729-6.732
	c0-3.717,3.017-6.731,6.729-6.731s6.729,3.015,6.729,6.731C1871.923,348.847,1868.912,351.862,1865.193,351.862z M1865.193,299.862
	c-3.723,0-6.729-3.014-6.729-6.732c0-3.718,3.017-6.731,6.729-6.731s6.729,3.014,6.729,6.731
	C1871.926,296.848,1868.912,299.862,1865.193,299.862z M1865.193,247.862c-3.723,0-6.729-3.014-6.729-6.732
	c0-3.718,3.017-6.731,6.729-6.731s6.729,3.014,6.729,6.731C1871.926,244.848,1868.912,247.862,1865.193,247.862z M1865.193,195.862
	c-3.723,0-6.729-3.014-6.729-6.732c0-3.718,3.017-6.731,6.729-6.731s6.729,3.014,6.729,6.731
	C1871.926,192.848,1868.912,195.862,1865.193,195.862z M1921.764,611.863c-3.723,0-6.729-3.021-6.729-6.731
	c0-3.72,3.016-6.729,6.729-6.729c3.719,0,6.729,3.016,6.729,6.729C1928.498,608.847,1925.481,611.863,1921.764,611.863z
	 M1921.764,559.863c-3.723,0-6.729-3.021-6.729-6.731c0-3.72,3.016-6.729,6.729-6.729c3.719,0,6.729,3.016,6.729,6.729
	C1928.498,556.847,1925.481,559.863,1921.764,559.863z M1921.764,507.863c-3.723,0-6.729-3.021-6.729-6.731
	c0-3.72,3.016-6.729,6.729-6.729c3.719,0,6.729,3.016,6.729,6.729C1928.498,504.847,1925.481,507.863,1921.764,507.863z
	 M1921.764,455.863c-3.723,0-6.729-3.021-6.729-6.731c0-3.72,3.016-6.729,6.729-6.729c3.719,0,6.729,3.016,6.729,6.729
	C1928.498,452.847,1925.481,455.863,1921.764,455.863z M1921.764,403.862c-3.723,0-6.729-3.021-6.729-6.731
	c0-3.713,3.016-6.732,6.729-6.732c3.719,0,6.729,3.016,6.729,6.732C1928.492,400.846,1925.481,403.862,1921.764,403.862z
	 M1921.764,351.862c-3.723,0-6.729-3.015-6.729-6.732c0-3.717,3.016-6.731,6.729-6.731c3.719,0,6.729,3.015,6.729,6.731
	C1928.492,348.847,1925.481,351.862,1921.764,351.862z M1921.764,299.862c-3.723,0-6.729-3.014-6.729-6.732
	c0-3.718,3.016-6.731,6.729-6.731c3.719,0,6.729,3.014,6.729,6.731C1928.492,296.848,1925.481,299.862,1921.764,299.862z
	 M1921.764,247.862c-3.723,0-6.729-3.014-6.729-6.732c0-3.718,3.016-6.731,6.729-6.731c3.719,0,6.729,3.014,6.729,6.731
	C1928.492,244.848,1925.481,247.862,1921.764,247.862z M1921.764,195.862c-3.723,0-6.729-3.014-6.729-6.732
	c0-3.718,3.016-6.731,6.729-6.731c3.719,0,6.729,3.014,6.729,6.731C1928.492,192.848,1925.481,195.862,1921.764,195.862z
	 M1978.337,611.863c-3.722,0-6.729-3.021-6.729-6.731c0-3.72,3.02-6.729,6.729-6.729c3.72,0,6.729,3.016,6.729,6.729
	C1985.065,608.847,1982.052,611.863,1978.337,611.863z M1978.337,559.863c-3.722,0-6.729-3.021-6.729-6.731
	c0-3.72,3.02-6.729,6.729-6.729c3.72,0,6.729,3.016,6.729,6.729C1985.065,556.847,1982.052,559.863,1978.337,559.863z
	 M1978.337,507.863c-3.722,0-6.729-3.021-6.729-6.731c0-3.72,3.02-6.729,6.729-6.729c3.72,0,6.729,3.016,6.729,6.729
	C1985.065,504.847,1982.052,507.863,1978.337,507.863z M1978.337,455.863c-3.722,0-6.729-3.021-6.729-6.731
	c0-3.72,3.02-6.729,6.729-6.729c3.72,0,6.729,3.016,6.729,6.729C1985.065,452.847,1982.052,455.863,1978.337,455.863z
	 M1978.337,403.862c-3.722,0-6.729-3.021-6.729-6.731c0-3.713,3.02-6.732,6.729-6.732c3.72,0,6.729,3.016,6.729,6.732
	C1985.066,400.846,1982.052,403.862,1978.337,403.862z M1978.337,351.862c-3.722,0-6.729-3.015-6.729-6.732
	c0-3.717,3.02-6.731,6.729-6.731c3.72,0,6.729,3.015,6.729,6.731C1985.066,348.847,1982.052,351.862,1978.337,351.862z
	 M1978.337,247.862c-3.722,0-6.729-3.014-6.729-6.732c0-3.718,3.02-6.731,6.729-6.731c3.72,0,6.729,3.014,6.729,6.731
	C1985.065,244.848,1982.052,247.862,1978.337,247.862z M2034.905,611.863c-3.721,0-6.729-3.021-6.729-6.731
	c0-3.72,3.02-6.729,6.729-6.729c3.713,0,6.729,3.016,6.729,6.729S2038.625,611.863,2034.905,611.863z M2034.905,559.863
	c-3.721,0-6.729-3.021-6.729-6.731c0-3.72,3.02-6.729,6.729-6.729c3.713,0,6.729,3.016,6.729,6.729
	S2038.625,559.863,2034.905,559.863z M2034.905,507.863c-3.721,0-6.729-3.021-6.729-6.731c0-3.72,3.02-6.729,6.729-6.729
	c3.713,0,6.729,3.016,6.729,6.729S2038.625,507.863,2034.905,507.863z M2034.905,455.863c-3.721,0-6.729-3.021-6.729-6.731
	c0-3.72,3.02-6.729,6.729-6.729c3.713,0,6.729,3.016,6.729,6.729S2038.625,455.863,2034.905,455.863z M2034.905,403.862
	c-3.721,0-6.729-3.021-6.729-6.731c0-3.713,3.02-6.732,6.729-6.732c3.713,0,6.729,3.016,6.729,6.732
	C2041.634,400.846,2038.625,403.862,2034.905,403.862z M2034.905,351.862c-3.721,0-6.729-3.015-6.729-6.732
	c0-3.717,3.02-6.731,6.729-6.731c3.713,0,6.729,3.015,6.729,6.731C2041.634,348.847,2038.625,351.862,2034.905,351.862z
	 M2091.473,611.863c-3.721,0-6.729-3.021-6.729-6.731c0-3.72,3.015-6.729,6.729-6.729c3.718,0,6.729,3.016,6.729,6.729
	C2098.209,608.847,2095.192,611.863,2091.473,611.863z M2091.473,559.863c-3.721,0-6.729-3.021-6.729-6.731
	c0-3.72,3.015-6.729,6.729-6.729c3.718,0,6.729,3.016,6.729,6.729C2098.209,556.847,2095.192,559.863,2091.473,559.863z
	 M2091.473,507.863c-3.721,0-6.729-3.021-6.729-6.731c0-3.72,3.015-6.729,6.729-6.729c3.718,0,6.729,3.016,6.729,6.729
	C2098.209,504.847,2095.192,507.863,2091.473,507.863z M2091.473,455.863c-3.721,0-6.729-3.021-6.729-6.731
	c0-3.72,3.015-6.729,6.729-6.729c3.718,0,6.729,3.016,6.729,6.729C2098.209,452.847,2095.192,455.863,2091.473,455.863z
	 M2091.473,403.862c-3.721,0-6.729-3.021-6.729-6.731c0-3.713,3.015-6.732,6.729-6.732c3.718,0,6.729,3.016,6.729,6.732
	C2098.203,400.846,2095.192,403.862,2091.473,403.862z M2091.473,351.862c-3.721,0-6.729-3.015-6.729-6.732
	c0-3.717,3.015-6.731,6.729-6.731c3.718,0,6.729,3.015,6.729,6.731C2098.203,348.847,2095.192,351.862,2091.473,351.862z
	 M2148.047,611.863c-3.723,0-6.73-3.021-6.73-6.731c0-3.72,3.021-6.729,6.73-6.729c3.72,0,6.729,3.016,6.729,6.729
	S2151.762,611.863,2148.047,611.863z M2148.047,559.863c-3.723,0-6.73-3.021-6.73-6.731c0-3.72,3.021-6.729,6.73-6.729
	c3.72,0,6.729,3.016,6.729,6.729S2151.762,559.863,2148.047,559.863z M2148.047,507.863c-3.723,0-6.73-3.021-6.73-6.731
	c0-3.72,3.021-6.729,6.73-6.729c3.72,0,6.729,3.016,6.729,6.729S2151.762,507.863,2148.047,507.863z M2148.047,455.863
	c-3.723,0-6.73-3.021-6.73-6.731c0-3.72,3.021-6.729,6.73-6.729c3.72,0,6.729,3.016,6.729,6.729S2151.762,455.863,2148.047,455.863z
	 M2148.047,403.862c-3.723,0-6.73-3.021-6.73-6.731c0-3.713,3.021-6.732,6.73-6.732c3.72,0,6.729,3.016,6.729,6.732
	C2154.776,400.846,2151.762,403.862,2148.047,403.862z M2204.615,663.863c-3.721,0-6.729-3.021-6.729-6.731
	c0-3.72,3.021-6.729,6.729-6.729c3.711,0,6.729,3.016,6.729,6.729C2211.348,660.847,2208.336,663.863,2204.615,663.863z
	 M2204.615,611.863c-3.721,0-6.729-3.021-6.729-6.731c0-3.72,3.021-6.729,6.729-6.729c3.711,0,6.729,3.016,6.729,6.729
	C2211.348,608.847,2208.336,611.863,2204.615,611.863z M2204.615,559.863c-3.721,0-6.729-3.021-6.729-6.731
	c0-3.72,3.021-6.729,6.729-6.729c3.711,0,6.729,3.016,6.729,6.729C2211.348,556.847,2208.336,559.863,2204.615,559.863z
	 M2204.615,507.863c-3.721,0-6.729-3.021-6.729-6.731c0-3.72,3.021-6.729,6.729-6.729c3.711,0,6.729,3.016,6.729,6.729
	C2211.348,504.847,2208.336,507.863,2204.615,507.863z M2204.615,455.863c-3.721,0-6.729-3.021-6.729-6.731
	c0-3.72,3.021-6.729,6.729-6.729c3.711,0,6.729,3.016,6.729,6.729C2211.348,452.847,2208.336,455.863,2204.615,455.863z
	 M2261.183,663.863c-3.72,0-6.729-3.021-6.729-6.731c0-3.72,3.018-6.729,6.729-6.729c3.721,0,6.729,3.016,6.729,6.729
	C2267.92,660.847,2264.904,663.863,2261.183,663.863z M2261.183,611.863c-3.72,0-6.729-3.021-6.729-6.731
	c0-3.72,3.018-6.729,6.729-6.729c3.721,0,6.729,3.016,6.729,6.729C2267.92,608.847,2264.904,611.863,2261.183,611.863z
	 M2261.183,559.863c-3.72,0-6.729-3.021-6.729-6.731c0-3.72,3.018-6.729,6.729-6.729c3.721,0,6.729,3.016,6.729,6.729
	C2267.92,556.847,2264.904,559.863,2261.183,559.863z M2261.183,507.863c-3.72,0-6.729-3.021-6.729-6.731
	c0-3.72,3.018-6.729,6.729-6.729c3.721,0,6.729,3.016,6.729,6.729C2267.92,504.847,2264.904,507.863,2261.183,507.863z
	 M2317.757,663.863c-3.722,0-6.73-3.021-6.73-6.731c0-3.72,3.021-6.729,6.73-6.729c3.719,0,6.729,3.016,6.729,6.729
	C2324.488,660.847,2321.473,663.863,2317.757,663.863z"/>
</svg>
