<?xml version="1.0" encoding="utf-8"?>
<!-- Generator: Adobe Illustrator 16.0.0, SVG Export Plug-In . SVG Version: 6.00 Build 0)  -->
<!DOCTYPE svg PUBLIC "-//W3C//DTD SVG 1.1//EN" "http://www.w3.org/Graphics/SVG/1.1/DTD/svg11.dtd">
<svg version="1.1" id="Layer_1" xmlns="http://www.w3.org/2000/svg" xmlns:xlink="http://www.w3.org/1999/xlink" x="0px" y="0px"
	 width="2067.289px" height="1397.25px" viewBox="0 0 2067.289 1397.25" enable-background="new 0 0 2067.289 1397.25"
	 xml:space="preserve">
<path fill="none" stroke="#000000" stroke-linejoin="round" stroke-miterlimit="10" d="M800.804,631.396
	c-55.935,2.011-100.939,4.119-103.534,5.979c-27.513,19.665-102.515,84.706-113.39,93.003c-4.896,4.078-7.78,6.223-13.465,8.361
	c-11.008,3.633-13.957,4.483-21,3.678c-6.182-0.303-13.15-2.186-16.453-3.771c-3.376-1.303-9.048-3.899-16.151-9.084
	c-8.683-6.479-33.575-26.276-40.39-33.763c-74.998-77.479-76.145-78.342-76.145-78.342s-1.225-0.646-19.507-19.57
	c-5.598-3.89-84.415-49.729-95.77-51.124c-6.757-0.591-12.012,1.979-16.539,1.608c-9.061,0.837-13.297-0.968-19.328-4.355
	c-8.112-4.255-17.764-25.092-22.93-28.765c-24.842-12.766-40.784-19.265-47.471-18.706c-7.91,1.056-90.681,39.669-90.681,39.669
	c-9.281,3.134-20.087,11.718-20.968,18.964C45.105,688.677,37.535,726.262,0.886,861.584c-3.556,13.268,4.325,24.41,10.653,23.207
	c4.531-0.777,73.586-16.965,93.371-22.869c11.654-3.199,15.97-4.266,23.956-6.541c5.754-1.637,9.925-1.771,13.449-2.623
	c2.732-0.207,10.284-1.19,12.006-0.397c3.668-0.492,11.417,5.696,16.859,14.034c19.188,30.98,242.734,521.689,251.495,525.158
	c1.435,2.229,7.029,6.262,12.711,5.631c6.112-0.631,13.455-5.062,15.112-5.918c8.424-5.219,107.173-79.602,137.706-99.975
	c5.401-4.078,7.776-4.789,8.651-9.953c2.177-7.244,1.086-2.438,5.734-21.875c9.435-33.92,13.013-57.018,22.872-89.287
	c27.478-89.922,47.417-157.615,57.22-167.924c14.56-13.957,117.606-83.09,215.549-151.229
	c70.357-49.052,132.728-92.453,140.722-98.39c19.229-14.229,13.325-9.512,19.229-14.229c18.015-16.031,10.521-8.806,18.015-16.031
	c19.317-21.193,14.197-14.389,19.317-21.193c5.048-5.583,7.858-8.519,10.457-12.674c2.671-4.013,3.973-6.306,5.202-10.25
	c2.168-4.372,2.04-10.11,2.04-10.11l-0.3,4.521c0,0,2.17-5.378-3.206-10.988c-4.947-5.104-10.476-8.639-11.265-9.067
	c-13.856-6.928,3.017,1.439,0,0c-10.914-5.123-6.819-3.681-17.735-8.298c-11.131-4.768-1.222-0.724-10.482-4.691
	c-9.049-3.972-8.113-3.538-10.845-4.549c-3.089-1.085-6.249-2.384-11.562-4.049c-4.524-1.447-1.363-0.577-7.829-2.748
	c-4.312-1.444-7.615-1.742-9.986-2.181c-3.232-0.65-4.385-0.583-8.268-0.594C1001.675,625.665,888.011,628.317,800.804,631.396z
	 M1137.889,162.064l12.568-10.728c0,0,14.367-9.783,2.547-21.974c-11.821-12.19-18.892-18.158-18.892-18.158l-18.811-14.772
	l-18.854-14.101c0,0-22.28-21.254-64.484-10.928C989.762,81.73,908.967,102.08,908.967,102.08l-129.795,32.585l-86.052,20.733
	l-79.327,17.158l-57.292,10.073l-38.793,5.341c0,0-39.479,5.204-7.871,40.892c31.608,35.687,44.917,79.946,80.581,79.548
	c35.663-0.399,53.162,0.122,53.162,0.122l25.75,1.342l8.011,0.506c0,0,9.245-2.311,18.904,9.978
	c9.659,12.287,59.562,75.479,59.562,75.479l10.943,13.407c0,0,13.99,20.562,37.856,3.044
	c23.864-17.517,113.137-83.465,113.137-83.465l130.364-96.174L1137.889,162.064z M2065.758,645.295
	c-0.43-1.148-1.223-2.225-4.672-5.168c-1.797-1.506-4.242-3.443-7.189-5.74c-4.887-3.803-9.703-7.393-10.062-7.68
	c-0.072,0-0.072,0-0.072,0l-24.585-18.514l-0.07-0.072l-0.146-0.072c0,0-4.961-3.301-10.062-7.104
	c-8.7-6.242-10.713-8.47-11.146-9.041c-1.581-4.951-10.566-50.953-14.952-73.271c-2.731-13.996-4.099-20.742-4.386-21.818
	c-0.146-0.715-0.358-1.575-0.504-2.438c-0.646-3.23-1.51-7.248-3.521-10.406c-1.51-2.367-6.897-6.813-18.475-15.788
	c-2.948-2.296-6.256-4.809-6.831-5.455c-0.433-0.356-1.729-1.647-226.376-189.598c-1.295-1.076-2.877-1.579-4.746-1.579
	c-5.75,0-14.306,4.952-27.678,13.133l-0.286,0.145c-4.96,3.013-10.065,6.1-14.378,8.396c-4.241,2.225-6.541,3.014-7.767,3.302
	c0.072-1.22,0.502-3.517,1.941-7.751c1.652-4.807,4.168-10.691,6.613-16.36c2.729-6.315,5.463-12.847,7.188-18.085
	c1.007-3.014,1.513-5.381,1.729-7.319c0.286-3.229-0.504-5.597-2.303-7.105c-53.697-44.923-94.893-79.37-95.322-79.729l-0.072-0.072
	l-0.07-0.071l-79.076-59.349l-0.145-0.072l-0.072-0.071l-21.854-14.139l-0.072-0.072c-0.574-0.358-14.953-9.042-20.346-11.697
	l-0.068,0.001l-0.146-0.072c-0.791-0.287-1.582-0.503-2.373-0.503c-4.457,0-7.837,4.378-12.149,9.832
	c-0.503,0.646-1.079,1.292-1.582,1.938c-2.084,2.655-7.045,8.827-10.496,8.827c-0.071,0-0.145,0-0.145,0
	c-0.504-0.647-1.652-2.872-3.234-9.188c-1.223-5.095-2.229-10.979-3.092-15.716c-1.224-7.177-1.508-8.684-2.301-9.832l-0.218-0.359
	l-0.286-0.286c-4.173-4.164-8.625-7.894-9.562-8.612l-2.445-2.512l-0.067,0.001l-0.071-0.072l-15.169-14.065l-0.069-0.072v-0.072
	L1387.709,21.1h-0.07l-0.071-0.071l-9.634-7.751v-0.071h-0.071l-8.627-6.604c-1.006-1.005-5.967-5.382-10.781-6.172
	c-1.727-0.214-3.162-0.431-4.673-0.431c-1.799,0-3.521,0.287-5.962,0.999c-1.582,0.431-25.231,6.314-55.14,13.707
	c-34.578,8.54-77.64,19.162-113.08,28.06c-54.562,13.565-62.758,15.861-64.557,16.507c-6.541,1.866-10.926,3.732-12.363,7.392
	c-0.504,1.363-0.862,3.588,0.791,6.172c0.504,0.861,1.797,3.014,11.574,11.052c5.246,4.233,10.275,8.037,12.004,9.328
	c3.45,2.368,20.562,16.362,23.292,19.09c0.432,0.431,1.149,1.077,2.085,1.938c3.45,3.157,9.92,8.971,14.232,14.712
	c4.815,6.817,5.605,9.329,6.184,11.338c0.071,0.288,0.215,0.575,0.287,0.934c0.646,2.009,0.144,3.947-0.216,4.665l-0.216,0.143
	l-0.288,0.503c-2.52,3.875-16.393,15.644-22.788,20.524l-0.217,0.144l-0.146,0.144c-2.801,2.727-21.854,18.228-28.896,23.968
	l-39.18,31.647l-42.918,31.647l-0.07-0.001v0.072c-1.007,0.717-100.43,76.282-199.062,151.419
	c-57.939,44.205-104.311,79.585-137.665,105.204c-19.842,15.216-35.299,27.197-45.938,35.451
	c-18.045,13.994-18.549,14.642-19.053,15.285c-0.861,1.146-1.148,2.584-0.791,4.021c0.503,1.863,1.728,4.521,11.502,12.847
	c5.393,4.521,12.51,10.188,21.278,16.791c13.945,10.479,30.982,22.535,33.787,23.826c1.725,0.86,4.098,1.221,7.979,1.221
	c4.025,0,9.348-0.432,16.104-0.935c6.326-0.432,13.587-1.006,21.71-1.362c1.869-0.07,4.026-0.215,6.326-0.285
	c5.896-0.361,12.509-0.721,18.045-0.721c1.294,0,2.372,0.069,3.379,0.069c0.216,0,0.432,0,0.791,0
	c11.07,0,132.776-3.729,205.527-6.024c30.479-0.937,54.562-1.728,55.714-1.728l0.067,0.003c0.22,0,0.505,0,0.792,0
	c10.279,0,21.494,4.809,26.238,6.891c0.791,0.287,1.364,0.573,1.868,0.789c1.438,0.575,9.921,5.67,25.736,15.646
	c13.152,8.322,23.577,15.068,24.873,16.074c1.868,1.648,5.75,3.371,7.979,4.232c4.026,1.647,8.27,2.94,12.006,3.657
	c6.542,1.224,13.013,1.294,14.379,1.294c1.511,0.145,11.86,1.073,15.022,1.291c0.146,0,0.287,0,3.309,0
	c11.286,0,51.544-0.144,107.188-0.285c32.854-0.072,70.021-0.146,109.846-0.218c145.573-0.356,249.812-0.571,318.608-0.571
	c34.648,0,60.744,0.071,77.494,0.145h0.072h0.068c0.792,0,1.582,0,2.302,0c14.666,0,25.159,2.941,36.16,10.117
	c1.797,1.146,7.044,4.305,11.718,7.104c2.806,1.65,5.464,3.306,6.688,4.021c0.146,0.146,15.455,9.33,20.848,10.836
	c3.521,1.004,6.109,1.65,10.064,1.65c0.719,0,1.363,0,2.153-0.07c4.672-0.217,58.017-6.604,60.314-6.891l0.072,0.002l41.264-5.957
	h0.073l0.073,0.006c0.287-0.072,28.537-5.025,38.244-6.818c2.59-0.504,5.896-1.078,9.418-1.725
	c10.062-1.793,22.571-4.019,27.026-5.023c3.021-0.645,6.472-1.436,9.347-2.582c3.952-1.51,6.325-3.59,7.264-6.243
	c1.795-5.453,0.429-9.044-0.437-11.269C2065.904,645.727,2065.83,645.512,2065.758,645.295z M1143.623,91.858
	c-3.719,0-6.732-3.014-6.732-6.732s3.017-6.732,6.732-6.732s6.732,3.014,6.732,6.732S1147.342,91.858,1143.623,91.858z
	 M747.63,559.858c-3.718,0-6.729-3.017-6.729-6.732s3.014-6.732,6.729-6.732c3.719,0,6.733,3.019,6.733,6.732
	C754.363,556.844,751.349,559.858,747.63,559.858z M747.63,507.858c-3.718,0-6.729-3.017-6.729-6.732s3.014-6.731,6.729-6.731
	c3.719,0,6.733,3.018,6.733,6.731C754.363,504.844,751.349,507.858,747.63,507.858z M804.201,559.858
	c-3.719,0-6.732-3.017-6.732-6.732s3.017-6.732,6.732-6.732s6.729,3.019,6.729,6.732
	C810.933,556.844,807.919,559.858,804.201,559.858z M804.201,507.858c-3.719,0-6.732-3.017-6.732-6.732s3.017-6.731,6.732-6.731
	s6.729,3.018,6.729,6.731C810.933,504.844,807.919,507.858,804.201,507.858z M860.771,559.858c-3.722,0-6.732-3.017-6.732-6.732
	s3.014-6.732,6.732-6.732c3.718,0,6.729,3.019,6.729,6.732C867.503,556.844,864.49,559.858,860.771,559.858z M860.771,507.858
	c-3.722,0-6.732-3.017-6.732-6.732s3.014-6.731,6.732-6.731c3.718,0,6.729,3.018,6.729,6.731
	C867.503,504.844,864.49,507.858,860.771,507.858z M860.771,455.858c-3.722,0-6.732-3.018-6.732-6.732s3.014-6.731,6.732-6.731
	c3.718,0,6.729,3.017,6.729,6.731S864.49,455.858,860.771,455.858z M917.341,559.858c-3.719,0-6.729-3.017-6.729-6.732
	s3.014-6.732,6.729-6.732s6.732,3.019,6.732,6.732C924.074,556.844,921.06,559.858,917.341,559.858z M917.341,507.858
	c-3.719,0-6.729-3.017-6.729-6.732s3.014-6.731,6.729-6.731s6.732,3.018,6.732,6.731
	C924.074,504.844,921.06,507.858,917.341,507.858z M917.341,455.858c-3.719,0-6.729-3.018-6.729-6.732s3.014-6.731,6.729-6.731
	s6.732,3.017,6.732,6.731S921.06,455.858,917.341,455.858z M917.341,403.858c-3.719,0-6.729-3.017-6.729-6.732
	s3.014-6.732,6.729-6.732s6.732,3.016,6.732,6.732S921.06,403.858,917.341,403.858z M973.912,559.858
	c-3.719,0-6.732-3.017-6.732-6.732s3.017-6.732,6.732-6.732s6.729,3.019,6.729,6.732
	C980.645,556.844,977.63,559.858,973.912,559.858z M973.912,507.858c-3.719,0-6.732-3.017-6.732-6.732s3.017-6.731,6.732-6.731
	s6.729,3.018,6.729,6.731C980.645,504.844,977.63,507.858,973.912,507.858z M973.912,455.858c-3.719,0-6.732-3.018-6.732-6.732
	s3.017-6.731,6.732-6.731s6.729,3.017,6.729,6.731S977.63,455.858,973.912,455.858z M973.912,403.858
	c-3.719,0-6.732-3.017-6.732-6.732s3.017-6.732,6.732-6.732s6.729,3.016,6.729,6.732S977.63,403.858,973.912,403.858z
	 M973.912,351.858c-3.719,0-6.732-3.015-6.732-6.732s3.017-6.732,6.732-6.732s6.729,3.015,6.729,6.732
	S977.63,351.858,973.912,351.858z M1030.482,559.858c-3.722,0-6.732-3.017-6.732-6.732s3.014-6.732,6.732-6.732
	c3.718,0,6.73,3.019,6.73,6.732C1037.215,556.844,1034.201,559.858,1030.482,559.858z M1030.482,507.858
	c-3.722,0-6.732-3.017-6.732-6.732s3.014-6.731,6.732-6.731c3.718,0,6.73,3.018,6.73,6.731
	C1037.215,504.844,1034.201,507.858,1030.482,507.858z M1030.482,455.858c-3.722,0-6.732-3.018-6.732-6.732s3.014-6.731,6.732-6.731
	c3.718,0,6.73,3.017,6.73,6.731S1034.201,455.858,1030.482,455.858z M1030.482,403.858c-3.722,0-6.732-3.017-6.732-6.732
	s3.014-6.732,6.732-6.732c3.718,0,6.73,3.016,6.73,6.732S1034.201,403.858,1030.482,403.858z M1030.482,351.858
	c-3.722,0-6.732-3.015-6.732-6.732s3.014-6.732,6.732-6.732c3.718,0,6.73,3.015,6.73,6.732S1034.201,351.858,1030.482,351.858z
	 M1030.482,299.858c-3.722,0-6.732-3.014-6.732-6.732s3.014-6.732,6.732-6.732c3.718,0,6.73,3.014,6.73,6.732
	S1034.201,299.858,1030.482,299.858z M1087.053,611.858c-3.719,0-6.729-3.017-6.729-6.732s3.014-6.732,6.729-6.732
	c3.719,0,6.732,3.019,6.732,6.732C1093.785,608.844,1090.771,611.858,1087.053,611.858z M1087.053,559.858
	c-3.719,0-6.729-3.017-6.729-6.732s3.014-6.732,6.729-6.732c3.719,0,6.732,3.019,6.732,6.732
	C1093.785,556.844,1090.771,559.858,1087.053,559.858z M1087.053,507.858c-3.719,0-6.729-3.017-6.729-6.732s3.014-6.731,6.729-6.731
	c3.719,0,6.732,3.018,6.732,6.731C1093.785,504.844,1090.771,507.858,1087.053,507.858z M1087.053,455.858
	c-3.719,0-6.729-3.018-6.729-6.732s3.014-6.731,6.729-6.731c3.719,0,6.732,3.017,6.732,6.731S1090.771,455.858,1087.053,455.858z
	 M1087.053,403.858c-3.719,0-6.729-3.017-6.729-6.732s3.014-6.732,6.729-6.732c3.719,0,6.732,3.016,6.732,6.732
	S1090.771,403.858,1087.053,403.858z M1087.053,351.858c-3.719,0-6.729-3.015-6.729-6.732s3.014-6.732,6.729-6.732
	c3.719,0,6.732,3.015,6.732,6.732S1090.771,351.858,1087.053,351.858z M1087.053,299.858c-3.719,0-6.729-3.014-6.729-6.732
	s3.014-6.732,6.729-6.732c3.719,0,6.732,3.014,6.732,6.732S1090.771,299.858,1087.053,299.858z M1087.053,247.858
	c-3.719,0-6.729-3.014-6.729-6.732s3.014-6.732,6.729-6.732c3.719,0,6.732,3.014,6.732,6.732S1090.771,247.858,1087.053,247.858z
	 M1143.623,611.858c-3.719,0-6.732-3.017-6.732-6.732s3.017-6.732,6.732-6.732s6.732,3.019,6.732,6.732
	C1150.355,608.844,1147.342,611.858,1143.623,611.858z M1143.623,559.858c-3.719,0-6.732-3.017-6.732-6.732s3.017-6.732,6.732-6.732
	s6.732,3.019,6.732,6.732C1150.355,556.844,1147.342,559.858,1143.623,559.858z M1143.623,507.858c-3.719,0-6.732-3.017-6.732-6.732
	s3.017-6.731,6.732-6.731s6.732,3.018,6.732,6.731C1150.355,504.844,1147.342,507.858,1143.623,507.858z M1143.623,455.858
	c-3.719,0-6.732-3.018-6.732-6.732s3.017-6.731,6.732-6.731s6.732,3.017,6.732,6.731S1147.342,455.858,1143.623,455.858z
	 M1143.623,403.858c-3.719,0-6.732-3.017-6.732-6.732s3.017-6.732,6.732-6.732s6.732,3.016,6.732,6.732
	S1147.342,403.858,1143.623,403.858z M1143.623,351.858c-3.719,0-6.732-3.015-6.732-6.732s3.017-6.732,6.732-6.732
	s6.732,3.015,6.732,6.732S1147.342,351.858,1143.623,351.858z M1143.623,299.858c-3.719,0-6.732-3.014-6.732-6.732
	s3.017-6.732,6.732-6.732s6.732,3.014,6.732,6.732S1147.342,299.858,1143.623,299.858z M1143.623,247.858
	c-3.719,0-6.732-3.014-6.732-6.732s3.017-6.732,6.732-6.732s6.732,3.014,6.732,6.732S1147.342,247.858,1143.623,247.858z
	 M1143.623,195.858c-3.719,0-6.732-3.014-6.732-6.732s3.017-6.732,6.732-6.732s6.732,3.014,6.732,6.732
	S1147.342,195.858,1143.623,195.858z M1200.193,611.858c-3.722,0-6.732-3.017-6.732-6.732s3.014-6.732,6.732-6.732
	c3.718,0,6.729,3.019,6.729,6.732C1206.926,608.844,1203.912,611.858,1200.193,611.858z M1200.193,559.858
	c-3.722,0-6.732-3.017-6.732-6.732s3.014-6.732,6.732-6.732c3.718,0,6.729,3.019,6.729,6.732
	C1206.926,556.844,1203.912,559.858,1200.193,559.858z M1200.193,507.858c-3.722,0-6.732-3.017-6.732-6.732s3.014-6.731,6.732-6.731
	c3.718,0,6.729,3.018,6.729,6.731C1206.926,504.844,1203.912,507.858,1200.193,507.858z M1200.193,455.858
	c-3.722,0-6.732-3.018-6.732-6.732s3.014-6.731,6.732-6.731c3.718,0,6.729,3.017,6.729,6.731S1203.912,455.858,1200.193,455.858z
	 M1200.193,403.858c-3.722,0-6.732-3.017-6.732-6.732s3.014-6.732,6.732-6.732c3.718,0,6.729,3.016,6.729,6.732
	S1203.912,403.858,1200.193,403.858z M1200.193,351.858c-3.722,0-6.732-3.015-6.732-6.732s3.014-6.732,6.732-6.732
	c3.718,0,6.729,3.015,6.729,6.732S1203.912,351.858,1200.193,351.858z M1200.193,299.858c-3.722,0-6.732-3.014-6.732-6.732
	s3.014-6.732,6.732-6.732c3.718,0,6.729,3.014,6.729,6.732S1203.912,299.858,1200.193,299.858z M1200.193,247.858
	c-3.722,0-6.732-3.014-6.732-6.732s3.014-6.732,6.732-6.732c3.718,0,6.729,3.014,6.729,6.732S1203.912,247.858,1200.193,247.858z
	 M1200.193,195.858c-3.722,0-6.732-3.014-6.732-6.732s3.014-6.732,6.732-6.732c3.718,0,6.729,3.014,6.729,6.732
	S1203.912,195.858,1200.193,195.858z M1200.193,143.858c-3.722,0-6.732-3.014-6.732-6.732s3.014-6.732,6.732-6.732
	c3.718,0,6.729,3.014,6.729,6.732S1203.912,143.858,1200.193,143.858z M1200.193,91.858c-3.722,0-6.732-3.014-6.732-6.732
	s3.014-6.732,6.732-6.732c3.718,0,6.729,3.014,6.729,6.732S1203.912,91.858,1200.193,91.858z M1256.764,611.858
	c-3.719,0-6.729-3.017-6.729-6.732s3.014-6.732,6.729-6.732c3.721,0,6.732,3.019,6.732,6.732
	C1263.496,608.844,1260.482,611.858,1256.764,611.858z M1256.764,559.858c-3.719,0-6.729-3.017-6.729-6.732s3.014-6.732,6.729-6.732
	c3.721,0,6.732,3.019,6.732,6.732C1263.496,556.844,1260.482,559.858,1256.764,559.858z M1256.764,507.858
	c-3.719,0-6.729-3.017-6.729-6.732s3.014-6.731,6.729-6.731c3.721,0,6.732,3.018,6.732,6.731
	C1263.496,504.844,1260.482,507.858,1256.764,507.858z M1256.764,455.858c-3.719,0-6.729-3.018-6.729-6.732s3.014-6.731,6.729-6.731
	c3.721,0,6.732,3.017,6.732,6.731S1260.482,455.858,1256.764,455.858z M1256.764,403.858c-3.719,0-6.729-3.017-6.729-6.732
	s3.014-6.732,6.729-6.732c3.721,0,6.732,3.016,6.732,6.732S1260.482,403.858,1256.764,403.858z M1256.764,351.858
	c-3.719,0-6.729-3.015-6.729-6.732s3.014-6.732,6.729-6.732c3.721,0,6.732,3.015,6.732,6.732S1260.482,351.858,1256.764,351.858z
	 M1256.764,299.858c-3.719,0-6.729-3.014-6.729-6.732s3.014-6.732,6.729-6.732c3.721,0,6.732,3.014,6.732,6.732
	S1260.482,299.858,1256.764,299.858z M1256.764,247.858c-3.719,0-6.729-3.014-6.729-6.732s3.014-6.732,6.729-6.732
	c3.721,0,6.732,3.014,6.732,6.732S1260.482,247.858,1256.764,247.858z M1256.764,195.858c-3.719,0-6.729-3.014-6.729-6.732
	s3.014-6.732,6.729-6.732c3.721,0,6.732,3.014,6.732,6.732S1260.482,195.858,1256.764,195.858z M1256.764,143.858
	c-3.719,0-6.729-3.014-6.729-6.732s3.014-6.732,6.729-6.732c3.721,0,6.732,3.014,6.732,6.732S1260.482,143.858,1256.764,143.858z
	 M1256.764,91.858c-3.719,0-6.729-3.014-6.729-6.732s3.014-6.732,6.729-6.732c3.721,0,6.732,3.014,6.732,6.732
	S1260.482,91.858,1256.764,91.858z M1256.764,39.858c-3.719,0-6.729-3.014-6.729-6.732s3.014-6.732,6.729-6.732
	c3.721,0,6.732,3.014,6.732,6.732S1260.482,39.858,1256.764,39.858z M1313.333,611.858c-3.719,0-6.732-3.017-6.732-6.732
	s3.017-6.732,6.732-6.732s6.732,3.019,6.732,6.732C1320.064,608.844,1317.052,611.858,1313.333,611.858z M1313.333,559.858
	c-3.719,0-6.732-3.017-6.732-6.732s3.017-6.732,6.732-6.732s6.732,3.019,6.732,6.732
	C1320.064,556.844,1317.052,559.858,1313.333,559.858z M1313.333,507.858c-3.719,0-6.732-3.017-6.732-6.732s3.017-6.731,6.732-6.731
	s6.732,3.018,6.732,6.731C1320.064,504.844,1317.052,507.858,1313.333,507.858z M1313.333,455.858c-3.719,0-6.732-3.018-6.732-6.732
	s3.017-6.731,6.732-6.731s6.732,3.017,6.732,6.731S1317.052,455.858,1313.333,455.858z M1313.333,403.858
	c-3.719,0-6.732-3.017-6.732-6.732s3.017-6.732,6.732-6.732s6.732,3.016,6.732,6.732S1317.052,403.858,1313.333,403.858z
	 M1313.333,351.858c-3.719,0-6.732-3.015-6.732-6.732s3.017-6.732,6.732-6.732s6.732,3.015,6.732,6.732
	S1317.052,351.858,1313.333,351.858z M1313.333,299.858c-3.719,0-6.732-3.014-6.732-6.732s3.017-6.732,6.732-6.732
	s6.732,3.014,6.732,6.732S1317.052,299.858,1313.333,299.858z M1313.333,247.858c-3.719,0-6.732-3.014-6.732-6.732
	s3.017-6.732,6.732-6.732s6.732,3.014,6.732,6.732S1317.052,247.858,1313.333,247.858z M1313.333,195.858
	c-3.719,0-6.732-3.014-6.732-6.732s3.017-6.732,6.732-6.732s6.732,3.014,6.732,6.732S1317.052,195.858,1313.333,195.858z
	 M1313.333,143.858c-3.719,0-6.732-3.014-6.732-6.732s3.017-6.732,6.732-6.732s6.732,3.014,6.732,6.732
	S1317.052,143.858,1313.333,143.858z M1313.333,91.858c-3.719,0-6.732-3.014-6.732-6.732s3.017-6.732,6.732-6.732
	s6.732,3.014,6.732,6.732S1317.052,91.858,1313.333,91.858z M1313.333,39.858c-3.719,0-6.732-3.014-6.732-6.732
	s3.017-6.732,6.732-6.732s6.732,3.014,6.732,6.732S1317.052,39.858,1313.333,39.858z M1369.903,611.858
	c-3.722,0-6.732-3.017-6.732-6.732s3.014-6.732,6.732-6.732c3.718,0,6.729,3.019,6.729,6.732
	C1376.636,608.844,1373.622,611.858,1369.903,611.858z M1369.903,559.858c-3.722,0-6.732-3.017-6.732-6.732s3.014-6.732,6.732-6.732
	c3.718,0,6.729,3.019,6.729,6.732C1376.636,556.844,1373.622,559.858,1369.903,559.858z M1369.903,507.858
	c-3.722,0-6.732-3.017-6.732-6.732s3.014-6.731,6.732-6.731c3.718,0,6.729,3.018,6.729,6.731
	C1376.636,504.844,1373.622,507.858,1369.903,507.858z M1369.903,455.858c-3.722,0-6.732-3.018-6.732-6.732s3.014-6.731,6.732-6.731
	c3.718,0,6.729,3.017,6.729,6.731S1373.622,455.858,1369.903,455.858z M1369.903,403.858c-3.722,0-6.732-3.017-6.732-6.732
	s3.014-6.732,6.732-6.732c3.718,0,6.729,3.016,6.729,6.732S1373.622,403.858,1369.903,403.858z M1369.903,351.858
	c-3.722,0-6.732-3.015-6.732-6.732s3.014-6.732,6.732-6.732c3.718,0,6.729,3.015,6.729,6.732S1373.622,351.858,1369.903,351.858z
	 M1369.903,299.858c-3.722,0-6.732-3.014-6.732-6.732s3.014-6.732,6.732-6.732c3.718,0,6.729,3.014,6.729,6.732
	S1373.622,299.858,1369.903,299.858z M1369.903,247.858c-3.722,0-6.732-3.014-6.732-6.732s3.014-6.732,6.732-6.732
	c3.718,0,6.729,3.014,6.729,6.732S1373.622,247.858,1369.903,247.858z M1369.903,195.858c-3.722,0-6.732-3.014-6.732-6.732
	s3.014-6.732,6.732-6.732c3.718,0,6.729,3.014,6.729,6.732S1373.622,195.858,1369.903,195.858z M1369.903,143.858
	c-3.722,0-6.732-3.014-6.732-6.732s3.014-6.732,6.732-6.732c3.718,0,6.729,3.014,6.729,6.732S1373.622,143.858,1369.903,143.858z
	 M1369.903,91.858c-3.722,0-6.732-3.014-6.732-6.732s3.014-6.732,6.732-6.732c3.718,0,6.729,3.014,6.729,6.732
	S1373.622,91.858,1369.903,91.858z M1369.903,39.858c-3.722,0-6.732-3.014-6.732-6.732s3.014-6.732,6.732-6.732
	c3.718,0,6.729,3.014,6.729,6.732S1373.622,39.858,1369.903,39.858z M1426.474,611.858c-3.719,0-6.729-3.017-6.729-6.732
	s3.014-6.732,6.729-6.732c3.721,0,6.732,3.019,6.732,6.732C1433.206,608.844,1430.192,611.858,1426.474,611.858z M1426.474,559.858
	c-3.719,0-6.729-3.017-6.729-6.732s3.014-6.732,6.729-6.732c3.721,0,6.732,3.019,6.732,6.732
	C1433.206,556.844,1430.192,559.858,1426.474,559.858z M1426.474,507.858c-3.719,0-6.729-3.017-6.729-6.732s3.014-6.731,6.729-6.731
	c3.721,0,6.732,3.018,6.732,6.731C1433.206,504.844,1430.192,507.858,1426.474,507.858z M1426.474,455.858
	c-3.719,0-6.729-3.018-6.729-6.732s3.014-6.731,6.729-6.731c3.721,0,6.732,3.017,6.732,6.731S1430.192,455.858,1426.474,455.858z
	 M1426.474,403.858c-3.719,0-6.729-3.017-6.729-6.732s3.014-6.732,6.729-6.732c3.721,0,6.732,3.016,6.732,6.732
	S1430.192,403.858,1426.474,403.858z M1426.474,351.858c-3.719,0-6.729-3.015-6.729-6.732s3.014-6.732,6.729-6.732
	c3.721,0,6.732,3.015,6.732,6.732S1430.192,351.858,1426.474,351.858z M1426.474,299.858c-3.719,0-6.729-3.014-6.729-6.732
	s3.014-6.732,6.729-6.732c3.721,0,6.732,3.014,6.732,6.732S1430.192,299.858,1426.474,299.858z M1426.474,247.858
	c-3.719,0-6.729-3.014-6.729-6.732s3.014-6.732,6.729-6.732c3.721,0,6.732,3.014,6.732,6.732S1430.192,247.858,1426.474,247.858z
	 M1426.474,195.858c-3.719,0-6.729-3.014-6.729-6.732s3.014-6.732,6.729-6.732c3.721,0,6.732,3.014,6.732,6.732
	S1430.192,195.858,1426.474,195.858z M1426.474,143.858c-3.719,0-6.729-3.014-6.729-6.732s3.014-6.732,6.729-6.732
	c3.721,0,6.732,3.014,6.732,6.732S1430.192,143.858,1426.474,143.858z M1483.044,611.858c-3.719,0-6.732-3.017-6.732-6.732
	s3.017-6.732,6.732-6.732s6.732,3.019,6.732,6.732C1489.776,608.844,1486.763,611.858,1483.044,611.858z M1483.044,559.858
	c-3.719,0-6.732-3.017-6.732-6.732s3.017-6.732,6.732-6.732s6.732,3.019,6.732,6.732
	C1489.776,556.844,1486.763,559.858,1483.044,559.858z M1483.044,507.858c-3.719,0-6.732-3.017-6.732-6.732s3.017-6.731,6.732-6.731
	s6.732,3.018,6.732,6.731C1489.776,504.844,1486.763,507.858,1483.044,507.858z M1483.044,455.858c-3.719,0-6.732-3.018-6.732-6.732
	s3.017-6.731,6.732-6.731s6.732,3.017,6.732,6.731S1486.763,455.858,1483.044,455.858z M1483.044,403.858
	c-3.719,0-6.732-3.017-6.732-6.732s3.017-6.732,6.732-6.732s6.732,3.016,6.732,6.732S1486.763,403.858,1483.044,403.858z
	 M1483.044,351.858c-3.719,0-6.732-3.015-6.732-6.732s3.017-6.732,6.732-6.732s6.732,3.015,6.732,6.732
	S1486.763,351.858,1483.044,351.858z M1483.044,299.858c-3.719,0-6.732-3.014-6.732-6.732s3.017-6.732,6.732-6.732
	s6.732,3.014,6.732,6.732S1486.763,299.858,1483.044,299.858z M1483.044,247.858c-3.719,0-6.732-3.014-6.732-6.732
	s3.017-6.732,6.732-6.732s6.732,3.014,6.732,6.732S1486.763,247.858,1483.044,247.858z M1483.044,195.858
	c-3.719,0-6.732-3.014-6.732-6.732s3.017-6.732,6.732-6.732s6.732,3.014,6.732,6.732S1486.763,195.858,1483.044,195.858z
	 M1483.044,143.858c-3.719,0-6.732-3.014-6.732-6.732s3.017-6.732,6.732-6.732s6.732,3.014,6.732,6.732
	S1486.763,143.858,1483.044,143.858z M1539.614,611.858c-3.72,0-6.732-3.017-6.732-6.732s3.015-6.732,6.732-6.732
	c3.717,0,6.729,3.019,6.729,6.732C1546.347,608.844,1543.333,611.858,1539.614,611.858z M1539.614,559.858
	c-3.72,0-6.732-3.017-6.732-6.732s3.015-6.732,6.732-6.732c3.717,0,6.729,3.019,6.729,6.732
	C1546.347,556.844,1543.333,559.858,1539.614,559.858z M1539.614,507.858c-3.72,0-6.732-3.017-6.732-6.732s3.015-6.731,6.732-6.731
	c3.717,0,6.729,3.018,6.729,6.731C1546.347,504.844,1543.333,507.858,1539.614,507.858z M1539.614,455.858
	c-3.72,0-6.732-3.018-6.732-6.732s3.015-6.731,6.732-6.731c3.717,0,6.729,3.017,6.729,6.731S1543.333,455.858,1539.614,455.858z
	 M1539.614,403.858c-3.72,0-6.732-3.017-6.732-6.732s3.015-6.732,6.732-6.732c3.717,0,6.729,3.016,6.729,6.732
	S1543.333,403.858,1539.614,403.858z M1539.614,351.858c-3.72,0-6.732-3.015-6.732-6.732s3.015-6.732,6.732-6.732
	c3.717,0,6.729,3.015,6.729,6.732S1543.333,351.858,1539.614,351.858z M1539.614,299.858c-3.72,0-6.732-3.014-6.732-6.732
	s3.015-6.732,6.732-6.732c3.717,0,6.729,3.014,6.729,6.732S1543.333,299.858,1539.614,299.858z M1539.614,247.858
	c-3.72,0-6.732-3.014-6.732-6.732s3.015-6.732,6.732-6.732c3.717,0,6.729,3.014,6.729,6.732S1543.333,247.858,1539.614,247.858z
	 M1539.614,195.858c-3.72,0-6.732-3.014-6.732-6.732s3.015-6.732,6.732-6.732c3.717,0,6.729,3.014,6.729,6.732
	S1543.333,195.858,1539.614,195.858z M1596.186,611.858c-3.72,0-6.73-3.017-6.73-6.732s3.014-6.732,6.73-6.732
	c3.72,0,6.731,3.019,6.731,6.732C1602.917,608.844,1599.903,611.858,1596.186,611.858z M1596.186,559.858
	c-3.72,0-6.73-3.017-6.73-6.732s3.014-6.732,6.73-6.732c3.72,0,6.731,3.019,6.731,6.732
	C1602.917,556.844,1599.903,559.858,1596.186,559.858z M1596.186,507.858c-3.72,0-6.73-3.017-6.73-6.732s3.014-6.731,6.73-6.731
	c3.72,0,6.731,3.018,6.731,6.731C1602.917,504.844,1599.903,507.858,1596.186,507.858z M1596.186,455.858
	c-3.72,0-6.73-3.018-6.73-6.732s3.014-6.731,6.73-6.731c3.72,0,6.731,3.017,6.731,6.731S1599.903,455.858,1596.186,455.858z
	 M1596.186,403.858c-3.72,0-6.73-3.017-6.73-6.732s3.014-6.732,6.73-6.732c3.72,0,6.731,3.016,6.731,6.732
	S1599.903,403.858,1596.186,403.858z M1596.186,351.858c-3.72,0-6.73-3.015-6.73-6.732s3.014-6.732,6.73-6.732
	c3.72,0,6.731,3.015,6.731,6.732S1599.903,351.858,1596.186,351.858z M1596.186,299.858c-3.72,0-6.73-3.014-6.73-6.732
	s3.014-6.732,6.73-6.732c3.72,0,6.731,3.014,6.731,6.732S1599.903,299.858,1596.186,299.858z M1596.186,247.858
	c-3.72,0-6.73-3.014-6.73-6.732s3.014-6.732,6.73-6.732c3.72,0,6.731,3.014,6.731,6.732S1599.903,247.858,1596.186,247.858z
	 M1596.186,195.858c-3.72,0-6.73-3.014-6.73-6.732s3.014-6.732,6.73-6.732c3.72,0,6.731,3.014,6.731,6.732
	S1599.903,195.858,1596.186,195.858z M1652.755,611.858c-3.719,0-6.729-3.017-6.729-6.732s3.014-6.732,6.729-6.732
	s6.732,3.019,6.732,6.732C1659.487,608.844,1656.474,611.858,1652.755,611.858z M1652.755,559.858c-3.719,0-6.729-3.017-6.729-6.732
	s3.014-6.732,6.729-6.732s6.732,3.019,6.732,6.732C1659.487,556.844,1656.474,559.858,1652.755,559.858z M1652.755,507.858
	c-3.719,0-6.729-3.017-6.729-6.732s3.014-6.731,6.729-6.731s6.732,3.018,6.732,6.731
	C1659.487,504.844,1656.474,507.858,1652.755,507.858z M1652.755,455.858c-3.719,0-6.729-3.018-6.729-6.732s3.014-6.731,6.729-6.731
	s6.732,3.017,6.732,6.731S1656.474,455.858,1652.755,455.858z M1652.755,403.858c-3.719,0-6.729-3.017-6.729-6.732
	s3.014-6.732,6.729-6.732s6.732,3.016,6.732,6.732S1656.474,403.858,1652.755,403.858z M1652.755,351.858
	c-3.719,0-6.729-3.015-6.729-6.732s3.014-6.732,6.729-6.732s6.732,3.015,6.732,6.732S1656.474,351.858,1652.755,351.858z
	 M1652.755,247.858c-3.719,0-6.729-3.014-6.729-6.732s3.014-6.732,6.729-6.732s6.732,3.014,6.732,6.732
	S1656.474,247.858,1652.755,247.858z M1709.325,611.858c-3.72,0-6.732-3.017-6.732-6.732s3.015-6.732,6.732-6.732
	c3.717,0,6.729,3.019,6.729,6.732C1716.058,608.844,1713.044,611.858,1709.325,611.858z M1709.325,559.858
	c-3.72,0-6.732-3.017-6.732-6.732s3.015-6.732,6.732-6.732c3.717,0,6.729,3.019,6.729,6.732
	C1716.058,556.844,1713.044,559.858,1709.325,559.858z M1709.325,507.858c-3.72,0-6.732-3.017-6.732-6.732s3.015-6.731,6.732-6.731
	c3.717,0,6.729,3.018,6.729,6.731C1716.058,504.844,1713.044,507.858,1709.325,507.858z M1709.325,455.858
	c-3.72,0-6.732-3.018-6.732-6.732s3.015-6.731,6.732-6.731c3.717,0,6.729,3.017,6.729,6.731S1713.044,455.858,1709.325,455.858z
	 M1709.325,403.858c-3.72,0-6.732-3.017-6.732-6.732s3.015-6.732,6.732-6.732c3.717,0,6.729,3.016,6.729,6.732
	S1713.044,403.858,1709.325,403.858z M1709.325,351.858c-3.72,0-6.732-3.015-6.732-6.732s3.015-6.732,6.732-6.732
	c3.717,0,6.729,3.015,6.729,6.732S1713.044,351.858,1709.325,351.858z M1709.325,299.858c-3.72,0-6.732-3.014-6.732-6.732
	s3.015-6.732,6.732-6.732c3.717,0,6.729,3.014,6.729,6.732S1713.044,299.858,1709.325,299.858z M1765.896,611.858
	c-3.722,0-6.732-3.017-6.732-6.732s3.014-6.732,6.732-6.732c3.718,0,6.729,3.019,6.729,6.732
	C1772.628,608.844,1769.614,611.858,1765.896,611.858z M1765.896,559.858c-3.722,0-6.732-3.017-6.732-6.732s3.014-6.732,6.732-6.732
	c3.718,0,6.729,3.019,6.729,6.732C1772.628,556.844,1769.614,559.858,1765.896,559.858z M1765.896,507.858
	c-3.722,0-6.732-3.017-6.732-6.732s3.014-6.731,6.732-6.731c3.718,0,6.729,3.018,6.729,6.731
	C1772.628,504.844,1769.614,507.858,1765.896,507.858z M1765.896,455.858c-3.722,0-6.732-3.018-6.732-6.732s3.014-6.731,6.732-6.731
	c3.718,0,6.729,3.017,6.729,6.731S1769.614,455.858,1765.896,455.858z M1765.896,403.858c-3.722,0-6.732-3.017-6.732-6.732
	s3.014-6.732,6.732-6.732c3.718,0,6.729,3.016,6.729,6.732S1769.614,403.858,1765.896,403.858z M1765.896,351.858
	c-3.722,0-6.732-3.015-6.732-6.732s3.014-6.732,6.732-6.732c3.718,0,6.729,3.015,6.729,6.732S1769.614,351.858,1765.896,351.858z
	 M1822.466,611.858c-3.719,0-6.729-3.017-6.729-6.732s3.014-6.732,6.729-6.732s6.732,3.019,6.732,6.732
	C1829.198,608.844,1826.186,611.858,1822.466,611.858z M1822.466,559.858c-3.719,0-6.729-3.017-6.729-6.732s3.014-6.732,6.729-6.732
	s6.732,3.019,6.732,6.732C1829.198,556.844,1826.186,559.858,1822.466,559.858z M1822.466,507.858c-3.719,0-6.729-3.017-6.729-6.732
	s3.014-6.731,6.729-6.731s6.732,3.018,6.732,6.731C1829.198,504.844,1826.186,507.858,1822.466,507.858z M1822.466,455.858
	c-3.719,0-6.729-3.018-6.729-6.732s3.014-6.731,6.729-6.731s6.732,3.017,6.732,6.731S1826.186,455.858,1822.466,455.858z
	 M1822.466,403.858c-3.719,0-6.729-3.017-6.729-6.732s3.014-6.732,6.729-6.732s6.732,3.016,6.732,6.732
	S1826.186,403.858,1822.466,403.858z M1879.036,663.858c-3.719,0-6.732-3.017-6.732-6.732s3.017-6.732,6.732-6.732
	s6.729,3.019,6.729,6.732C1885.77,660.844,1882.755,663.858,1879.036,663.858z M1879.036,611.858c-3.719,0-6.732-3.017-6.732-6.732
	s3.017-6.732,6.732-6.732s6.729,3.019,6.729,6.732C1885.77,608.844,1882.755,611.858,1879.036,611.858z M1879.036,559.858
	c-3.719,0-6.732-3.017-6.732-6.732s3.017-6.732,6.732-6.732s6.729,3.019,6.729,6.732
	C1885.77,556.844,1882.755,559.858,1879.036,559.858z M1879.036,507.858c-3.719,0-6.732-3.017-6.732-6.732s3.017-6.731,6.732-6.731
	s6.729,3.018,6.729,6.731C1885.77,504.844,1882.755,507.858,1879.036,507.858z M1879.036,455.858c-3.719,0-6.732-3.018-6.732-6.732
	s3.017-6.731,6.732-6.731s6.729,3.017,6.729,6.731S1882.755,455.858,1879.036,455.858z M1935.605,663.858
	c-3.721,0-6.731-3.017-6.731-6.732s3.014-6.732,6.731-6.732c3.719,0,6.73,3.019,6.73,6.732
	C1942.339,660.844,1939.325,663.858,1935.605,663.858z M1935.605,611.858c-3.721,0-6.731-3.017-6.731-6.732s3.014-6.732,6.731-6.732
	c3.719,0,6.73,3.019,6.73,6.732C1942.339,608.844,1939.325,611.858,1935.605,611.858z M1935.605,559.858
	c-3.721,0-6.731-3.017-6.731-6.732s3.014-6.732,6.731-6.732c3.719,0,6.73,3.019,6.73,6.732
	C1942.339,556.844,1939.325,559.858,1935.605,559.858z M1935.605,507.858c-3.721,0-6.731-3.017-6.731-6.732s3.014-6.731,6.731-6.731
	c3.719,0,6.73,3.018,6.73,6.731C1942.339,504.844,1939.325,507.858,1935.605,507.858z M1992.177,663.858
	c-3.719,0-6.729-3.017-6.729-6.732s3.014-6.732,6.729-6.732s6.732,3.019,6.732,6.732
	C1998.909,660.844,1995.896,663.858,1992.177,663.858z"/>
</svg>
