<?xml version="1.0" encoding="utf-8"?>
<!-- Generator: Adobe Illustrator 16.0.0, SVG Export Plug-In . SVG Version: 6.00 Build 0)  -->
<!DOCTYPE svg PUBLIC "-//W3C//DTD SVG 1.1//EN" "http://www.w3.org/Graphics/SVG/1.1/DTD/svg11.dtd">
<svg version="1.1" id="Layer_1" xmlns="http://www.w3.org/2000/svg" xmlns:xlink="http://www.w3.org/1999/xlink" x="0px" y="0px"
	 width="1394.504px" height="858.562px" viewBox="0 0 1394.504 858.562" enable-background="new 0 0 1394.504 858.562"
	 xml:space="preserve">
<path d="M1384.436,377.754L798.398,113.083c-35.672-16.111-70.69-34.207-103.645-55.381c-12.746-8.189-25.203-16.865-37.091-26.27
	c-9.385-7.427-18.48-15.328-26.733-24.008c-3.956-4.163-10.365-8.541-16.41-7.166c-27.658,6.289-54.577,15.487-80.521,26.939
	c-2.233,0.985-5.271,3.246-4.562,6.059c5.143,20.284,7.111,41.091,5.404,61.965c-1.384,16.929-5.146,33.484-10.922,49.447
	c-7.354,20.344-17.834,39.424-30.203,57.134c-1.188,1.706-2.873,3.214-4.619,4.339c-2.573,1.657-6.328,3.08-9.295,1.682
	l-66.922-31.582c-6.617-3.122-15.843,0.062-20.673,5.107C259.8,319.7,134.106,464.417,14.641,614.073
	c-9.475,11.864-16.543,26.51-14.184,42.055c3.508,23.062,25.938,38.438,45.518,47.604L349.893,845.99
	c8.646,4.047,17.653,8.111,26.888,10.619c6.125,1.655,12.146,2.465,18.477,1.604c8.863-1.201,17.9-5.543,26.095-9.021
	l371.521-157.729c27.141-11.521,56.063-27.004,86.354-25.971c53.4,1.822,106.82,6.557,159.479,15.787
	c44.634,7.82,88.865,18.914,131.355,34.766c10.178,3.799,20.16,8.07,30.053,12.551c8.465,3.836,16.853,7.838,25.365,11.562
	c13.145,5.75,28.072,11.617,42.666,10.664c13.229-0.863,24.186-7.146,33.941-15.767c2.078-1.838,5.58-5.271,4.008-8.342
	c-1.344-2.625-5.49-3.049-8.082-3.524c-22.512-4.191-43.914-14.027-57.475-33.152c-18.832-26.561-16.406-61.869-7.982-91.703
	c1.338-4.723,2.107-10.525-1.99-14.143c-2.813-2.488-6.885-3.084-10.271-4.529c-7.406-3.156-14.875-6.174-22.377-9.104
	c-29.189-11.394-58.845-21.572-87.834-33.48c-3.043-1.252-6.052-2.609-8.888-4.283c-6.174-3.643-11.854-8.938-9.326-16.83
	l4.646-14.516c1.525-4.771,7.518-9.074,11.688-11.551c6.854-4.068,14.775-7.015,22.513-8.896c8.645-2.102,18.896-3.271,27.647-1.324
	l104.584,23.291c13.238,2.949,16.592,1.812,23.426-10.041c3.38-5.856,9.4-13.01,14.882-16.975
	c23.038-16.666,49.145-28.213,73.312-43.01c6.58-4.027,13.34-10.139,15.271-17.894l4.27-17.121
	C1395.924,390.639,1391.315,380.86,1384.436,377.754z M60.339,661.337c-3.72,0-6.731-3.014-6.731-6.731
	c0-3.719,3.015-6.729,6.731-6.729c3.719,0,6.73,3.014,6.73,6.729C67.071,658.323,64.058,661.337,60.339,661.337z M60.339,609.337
	c-3.72,0-6.731-3.014-6.731-6.731c0-3.719,3.015-6.729,6.731-6.729c3.719,0,6.73,3.014,6.73,6.729
	C67.071,606.323,64.058,609.337,60.339,609.337z M116.909,713.337c-3.72,0-6.73-3.014-6.73-6.731c0-3.719,3.014-6.729,6.73-6.729
	c3.716,0,6.731,3.014,6.731,6.729C123.641,710.323,120.629,713.337,116.909,713.337z M116.909,661.337
	c-3.72,0-6.73-3.014-6.73-6.731c0-3.719,3.014-6.729,6.73-6.729c3.716,0,6.731,3.014,6.731,6.729
	C123.641,658.323,120.629,661.337,116.909,661.337z M116.909,609.337c-3.72,0-6.73-3.014-6.73-6.731c0-3.719,3.014-6.729,6.73-6.729
	c3.716,0,6.731,3.014,6.731,6.729C123.641,606.323,120.629,609.337,116.909,609.337z M116.909,557.337
	c-3.72,0-6.73-3.014-6.73-6.731c0-3.719,3.014-6.729,6.73-6.729c3.716,0,6.731,3.014,6.731,6.729
	C123.641,554.323,120.629,557.337,116.909,557.337z M173.48,713.337c-3.719,0-6.731-3.014-6.731-6.731
	c0-3.719,3.016-6.729,6.731-6.729s6.732,3.014,6.732,6.729C180.213,710.323,177.198,713.337,173.48,713.337z M173.48,661.337
	c-3.719,0-6.731-3.014-6.731-6.731c0-3.719,3.016-6.729,6.731-6.729s6.732,3.014,6.732,6.729
	C180.213,658.323,177.198,661.337,173.48,661.337z M173.48,609.337c-3.719,0-6.731-3.014-6.731-6.731
	c0-3.719,3.016-6.729,6.731-6.729s6.732,3.014,6.732,6.729C180.213,606.323,177.198,609.337,173.48,609.337z M173.48,557.337
	c-3.719,0-6.731-3.014-6.731-6.731c0-3.719,3.016-6.729,6.731-6.729s6.732,3.014,6.732,6.729
	C180.213,554.323,177.198,557.337,173.48,557.337z M173.48,505.337c-3.719,0-6.731-3.014-6.731-6.729c0-3.721,3.016-6.73,6.731-6.73
	s6.732,3.014,6.732,6.73C180.212,502.323,177.198,505.337,173.48,505.337z M173.48,453.337c-3.719,0-6.731-3.014-6.731-6.729
	c0-3.721,3.016-6.73,6.731-6.73s6.732,3.014,6.732,6.73C180.212,450.323,177.198,453.337,173.48,453.337z M230.051,765.337
	c-3.721,0-6.732-3.014-6.732-6.731c0-3.719,3.015-6.729,6.732-6.729s6.729,3.014,6.729,6.729
	C236.783,762.323,233.769,765.337,230.051,765.337z M230.051,713.337c-3.721,0-6.732-3.014-6.732-6.731
	c0-3.719,3.015-6.729,6.732-6.729s6.729,3.014,6.729,6.729C236.783,710.323,233.769,713.337,230.051,713.337z M230.051,661.337
	c-3.721,0-6.732-3.014-6.732-6.731c0-3.719,3.015-6.729,6.732-6.729s6.729,3.014,6.729,6.729
	C236.783,658.323,233.769,661.337,230.051,661.337z M230.051,609.337c-3.721,0-6.732-3.014-6.732-6.731
	c0-3.719,3.015-6.729,6.732-6.729s6.729,3.014,6.729,6.729C236.783,606.323,233.769,609.337,230.051,609.337z M230.051,557.337
	c-3.721,0-6.732-3.014-6.732-6.731c0-3.719,3.015-6.729,6.732-6.729s6.729,3.014,6.729,6.729
	C236.783,554.323,233.769,557.337,230.051,557.337z M230.051,505.337c-3.721,0-6.732-3.014-6.732-6.729
	c0-3.721,3.015-6.73,6.732-6.73s6.729,3.014,6.729,6.73C236.783,502.323,233.769,505.337,230.051,505.337z M230.051,453.337
	c-3.721,0-6.732-3.014-6.732-6.729c0-3.721,3.015-6.73,6.732-6.73s6.729,3.014,6.729,6.73
	C236.783,450.323,233.769,453.337,230.051,453.337z M230.051,401.337c-3.721,0-6.732-3.014-6.732-6.732
	c0-3.718,3.015-6.731,6.732-6.731s6.729,3.014,6.729,6.731C236.783,398.324,233.769,401.337,230.051,401.337z M286.62,765.337
	c-3.72,0-6.73-3.014-6.73-6.731c0-3.719,3.014-6.729,6.73-6.729c3.716,0,6.731,3.014,6.731,6.729
	C293.352,762.323,290.338,765.337,286.62,765.337z M286.62,713.337c-3.72,0-6.73-3.014-6.73-6.731c0-3.719,3.014-6.729,6.73-6.729
	c3.716,0,6.731,3.014,6.731,6.729C293.352,710.323,290.338,713.337,286.62,713.337z M286.62,661.337c-3.72,0-6.73-3.014-6.73-6.731
	c0-3.719,3.014-6.729,6.73-6.729c3.716,0,6.731,3.014,6.731,6.729C293.352,658.323,290.338,661.337,286.62,661.337z M286.62,609.337
	c-3.72,0-6.73-3.014-6.73-6.731c0-3.719,3.014-6.729,6.73-6.729c3.716,0,6.731,3.014,6.731,6.729
	C293.352,606.323,290.338,609.337,286.62,609.337z M286.62,557.337c-3.72,0-6.73-3.014-6.73-6.731c0-3.719,3.014-6.729,6.73-6.729
	c3.716,0,6.731,3.014,6.731,6.729C293.352,554.323,290.338,557.337,286.62,557.337z M286.62,505.337c-3.72,0-6.73-3.014-6.73-6.729
	c0-3.721,3.014-6.73,6.73-6.73c3.716,0,6.731,3.014,6.731,6.73C293.352,502.323,290.338,505.337,286.62,505.337z M286.62,453.337
	c-3.72,0-6.73-3.014-6.73-6.729c0-3.721,3.014-6.73,6.73-6.73c3.716,0,6.731,3.014,6.731,6.73
	C293.352,450.323,290.338,453.337,286.62,453.337z M286.62,401.337c-3.72,0-6.73-3.014-6.73-6.732c0-3.718,3.014-6.731,6.73-6.731
	c3.716,0,6.731,3.014,6.731,6.731C293.352,398.324,290.338,401.337,286.62,401.337z M286.62,349.337c-3.72,0-6.73-3.014-6.73-6.732
	c0-3.718,3.014-6.731,6.73-6.731c3.716,0,6.731,3.014,6.731,6.731C293.352,346.324,290.338,349.337,286.62,349.337z
	 M343.191,817.337c-3.722,0-6.731-3.014-6.731-6.731c0-3.719,3.016-6.729,6.731-6.729s6.729,3.014,6.729,6.729
	C349.921,814.323,346.908,817.337,343.191,817.337z M343.191,765.337c-3.722,0-6.731-3.014-6.731-6.731
	c0-3.719,3.016-6.729,6.731-6.729s6.729,3.014,6.729,6.729C349.921,762.323,346.908,765.337,343.191,765.337z M343.191,713.337
	c-3.722,0-6.731-3.014-6.731-6.731c0-3.719,3.016-6.729,6.731-6.729s6.729,3.014,6.729,6.729
	C349.921,710.323,346.908,713.337,343.191,713.337z M343.191,661.337c-3.722,0-6.731-3.014-6.731-6.731
	c0-3.719,3.016-6.729,6.731-6.729s6.729,3.014,6.729,6.729C349.921,658.323,346.908,661.337,343.191,661.337z M343.191,609.337
	c-3.722,0-6.731-3.014-6.731-6.731c0-3.719,3.016-6.729,6.731-6.729s6.729,3.014,6.729,6.729
	C349.921,606.323,346.908,609.337,343.191,609.337z M343.191,557.337c-3.722,0-6.731-3.014-6.731-6.731
	c0-3.719,3.016-6.729,6.731-6.729s6.729,3.014,6.729,6.729C349.921,554.323,346.908,557.337,343.191,557.337z M343.191,505.337
	c-3.722,0-6.731-3.014-6.731-6.729c0-3.721,3.016-6.73,6.731-6.73s6.729,3.014,6.729,6.73
	C349.92,502.323,346.908,505.337,343.191,505.337z M343.191,453.337c-3.722,0-6.731-3.014-6.731-6.729
	c0-3.721,3.016-6.73,6.731-6.73s6.729,3.014,6.729,6.73C349.92,450.323,346.908,453.337,343.191,453.337z M343.191,401.337
	c-3.722,0-6.731-3.014-6.731-6.732c0-3.718,3.016-6.731,6.731-6.731s6.729,3.014,6.729,6.731
	C349.921,398.324,346.908,401.337,343.191,401.337z M343.191,349.337c-3.722,0-6.731-3.014-6.731-6.732
	c0-3.718,3.016-6.731,6.731-6.731s6.729,3.014,6.729,6.731C349.921,346.324,346.908,349.337,343.191,349.337z M343.191,297.337
	c-3.722,0-6.731-3.014-6.731-6.732c0-3.718,3.016-6.732,6.731-6.732s6.729,3.014,6.729,6.732
	C349.921,294.324,346.908,297.337,343.191,297.337z M399.76,817.337c-3.719,0-6.729-3.014-6.729-6.731
	c0-3.719,3.015-6.729,6.729-6.729c3.719,0,6.731,3.014,6.731,6.729C406.492,814.323,403.48,817.337,399.76,817.337z M399.76,765.337
	c-3.719,0-6.729-3.014-6.729-6.731c0-3.719,3.015-6.729,6.729-6.729c3.719,0,6.731,3.014,6.731,6.729
	C406.492,762.323,403.48,765.337,399.76,765.337z M399.76,713.337c-3.719,0-6.729-3.014-6.729-6.731
	c0-3.719,3.015-6.729,6.729-6.729c3.719,0,6.731,3.014,6.731,6.729C406.492,710.323,403.48,713.337,399.76,713.337z M399.76,661.337
	c-3.719,0-6.729-3.014-6.729-6.731c0-3.719,3.015-6.729,6.729-6.729c3.719,0,6.731,3.014,6.731,6.729
	C406.492,658.323,403.48,661.337,399.76,661.337z M399.76,609.337c-3.719,0-6.729-3.014-6.729-6.731
	c0-3.719,3.015-6.729,6.729-6.729c3.719,0,6.731,3.014,6.731,6.729C406.492,606.323,403.48,609.337,399.76,609.337z M399.76,557.337
	c-3.719,0-6.729-3.014-6.729-6.731c0-3.719,3.015-6.729,6.729-6.729c3.719,0,6.731,3.014,6.731,6.729
	C406.492,554.323,403.48,557.337,399.76,557.337z M399.76,505.337c-3.719,0-6.729-3.014-6.729-6.729c0-3.721,3.015-6.73,6.729-6.73
	c3.719,0,6.731,3.014,6.731,6.73C406.492,502.323,403.48,505.337,399.76,505.337z M399.76,453.337c-3.719,0-6.729-3.014-6.729-6.729
	c0-3.721,3.015-6.73,6.729-6.73c3.719,0,6.731,3.014,6.731,6.73C406.492,450.323,403.48,453.337,399.76,453.337z M399.76,401.337
	c-3.719,0-6.729-3.014-6.729-6.732c0-3.718,3.015-6.731,6.729-6.731c3.719,0,6.731,3.014,6.731,6.731
	C406.492,398.324,403.48,401.337,399.76,401.337z M399.76,349.337c-3.719,0-6.729-3.014-6.729-6.732
	c0-3.718,3.015-6.731,6.729-6.731c3.719,0,6.731,3.014,6.731,6.731C406.492,346.324,403.48,349.337,399.76,349.337z M399.76,297.337
	c-3.719,0-6.729-3.014-6.729-6.732c0-3.718,3.015-6.732,6.729-6.732c3.719,0,6.731,3.014,6.731,6.732
	C406.492,294.324,403.48,297.337,399.76,297.337z M399.76,245.337c-3.719,0-6.729-3.014-6.729-6.732
	c0-3.718,3.015-6.732,6.729-6.732c3.719,0,6.731,3.014,6.731,6.732C406.492,242.324,403.48,245.337,399.76,245.337z M456.33,817.337
	c-3.719,0-6.729-3.014-6.729-6.731c0-3.719,3.016-6.729,6.729-6.729c3.715,0,6.73,3.014,6.73,6.729
	C463.064,814.323,460.049,817.337,456.33,817.337z M456.33,765.337c-3.719,0-6.729-3.014-6.729-6.731
	c0-3.719,3.016-6.729,6.729-6.729c3.715,0,6.73,3.014,6.73,6.729C463.064,762.323,460.049,765.337,456.33,765.337z M456.33,713.337
	c-3.719,0-6.729-3.014-6.729-6.731c0-3.719,3.016-6.729,6.729-6.729c3.715,0,6.73,3.014,6.73,6.729
	C463.064,710.323,460.049,713.337,456.33,713.337z M456.33,661.337c-3.719,0-6.729-3.014-6.729-6.731
	c0-3.719,3.016-6.729,6.729-6.729c3.715,0,6.73,3.014,6.73,6.729C463.064,658.323,460.049,661.337,456.33,661.337z M456.33,609.337
	c-3.719,0-6.729-3.014-6.729-6.731c0-3.719,3.016-6.729,6.729-6.729c3.715,0,6.73,3.014,6.73,6.729
	C463.064,606.323,460.049,609.337,456.33,609.337z M456.33,557.337c-3.719,0-6.729-3.014-6.729-6.731
	c0-3.719,3.016-6.729,6.729-6.729c3.715,0,6.73,3.014,6.73,6.729C463.064,554.323,460.049,557.337,456.33,557.337z M456.33,505.337
	c-3.719,0-6.729-3.014-6.729-6.729c0-3.721,3.016-6.73,6.729-6.73c3.715,0,6.73,3.014,6.73,6.73
	C463.064,502.323,460.049,505.337,456.33,505.337z M456.33,453.337c-3.719,0-6.729-3.014-6.729-6.729c0-3.721,3.016-6.73,6.729-6.73
	c3.715,0,6.73,3.014,6.73,6.73C463.064,450.323,460.049,453.337,456.33,453.337z M456.33,401.337c-3.719,0-6.729-3.014-6.729-6.732
	c0-3.718,3.016-6.731,6.729-6.731c3.715,0,6.73,3.014,6.73,6.731C463.064,398.324,460.049,401.337,456.33,401.337z M456.33,349.337
	c-3.719,0-6.729-3.014-6.729-6.732c0-3.718,3.016-6.731,6.729-6.731c3.715,0,6.73,3.014,6.73,6.731
	C463.064,346.324,460.049,349.337,456.33,349.337z M456.33,297.337c-3.719,0-6.729-3.014-6.729-6.732
	c0-3.718,3.016-6.732,6.729-6.732c3.715,0,6.73,3.014,6.73,6.732C463.061,294.324,460.049,297.337,456.33,297.337z M456.33,245.337
	c-3.719,0-6.729-3.014-6.729-6.732c0-3.718,3.016-6.732,6.729-6.732c3.715,0,6.73,3.014,6.73,6.732
	C463.061,242.324,460.049,245.337,456.33,245.337z M512.902,765.337c-3.721,0-6.731-3.014-6.731-6.731
	c0-3.719,3.016-6.729,6.731-6.729s6.729,3.014,6.729,6.729C519.632,762.323,516.619,765.337,512.902,765.337z M512.902,713.337
	c-3.721,0-6.731-3.014-6.731-6.731c0-3.719,3.016-6.729,6.731-6.729s6.729,3.014,6.729,6.729
	C519.632,710.323,516.619,713.337,512.902,713.337z M512.902,661.337c-3.721,0-6.731-3.014-6.731-6.731
	c0-3.719,3.016-6.729,6.731-6.729s6.729,3.014,6.729,6.729C519.632,658.323,516.619,661.337,512.902,661.337z M512.902,609.337
	c-3.721,0-6.731-3.014-6.731-6.731c0-3.719,3.016-6.729,6.731-6.729s6.729,3.014,6.729,6.729
	C519.632,606.323,516.619,609.337,512.902,609.337z M512.902,557.337c-3.721,0-6.731-3.014-6.731-6.731
	c0-3.719,3.016-6.729,6.731-6.729s6.729,3.014,6.729,6.729C519.632,554.323,516.619,557.337,512.902,557.337z M512.902,505.337
	c-3.721,0-6.731-3.014-6.731-6.729c0-3.721,3.016-6.73,6.731-6.73s6.729,3.014,6.729,6.73
	C519.632,502.323,516.619,505.337,512.902,505.337z M512.902,453.337c-3.721,0-6.731-3.014-6.731-6.729
	c0-3.721,3.016-6.73,6.731-6.73s6.729,3.014,6.729,6.73C519.632,450.323,516.619,453.337,512.902,453.337z M512.902,401.337
	c-3.721,0-6.731-3.014-6.731-6.732c0-3.718,3.016-6.731,6.731-6.731s6.729,3.014,6.729,6.731
	C519.632,398.324,516.619,401.337,512.902,401.337z M512.902,349.337c-3.721,0-6.731-3.014-6.731-6.732
	c0-3.718,3.016-6.731,6.731-6.731s6.729,3.014,6.729,6.731C519.632,346.324,516.619,349.337,512.902,349.337z M512.902,297.337
	c-3.721,0-6.731-3.014-6.731-6.732c0-3.718,3.016-6.732,6.731-6.732s6.729,3.014,6.729,6.732
	C519.631,294.324,516.619,297.337,512.902,297.337z M512.902,245.337c-3.721,0-6.731-3.014-6.731-6.732
	c0-3.718,3.016-6.732,6.731-6.732s6.729,3.014,6.729,6.732C519.631,242.324,516.619,245.337,512.902,245.337z M569.472,765.337
	c-3.722,0-6.73-3.014-6.73-6.731c0-3.719,3.015-6.729,6.73-6.729c3.72,0,6.729,3.014,6.729,6.729
	C576.203,762.323,573.191,765.337,569.472,765.337z M569.472,713.337c-3.722,0-6.73-3.014-6.73-6.731
	c0-3.719,3.015-6.729,6.73-6.729c3.72,0,6.729,3.014,6.729,6.729C576.203,710.323,573.191,713.337,569.472,713.337z
	 M569.472,661.337c-3.722,0-6.73-3.014-6.73-6.731c0-3.719,3.015-6.729,6.73-6.729c3.72,0,6.729,3.014,6.729,6.729
	C576.203,658.323,573.191,661.337,569.472,661.337z M569.472,609.337c-3.722,0-6.73-3.014-6.73-6.731
	c0-3.719,3.015-6.729,6.73-6.729c3.72,0,6.729,3.014,6.729,6.729C576.203,606.323,573.191,609.337,569.472,609.337z
	 M569.472,557.337c-3.722,0-6.73-3.014-6.73-6.731c0-3.719,3.015-6.729,6.73-6.729c3.72,0,6.729,3.014,6.729,6.729
	C576.203,554.323,573.191,557.337,569.472,557.337z M569.472,505.337c-3.722,0-6.73-3.014-6.73-6.729c0-3.721,3.015-6.73,6.73-6.73
	c3.72,0,6.729,3.014,6.729,6.73C576.203,502.323,573.191,505.337,569.472,505.337z M569.472,453.337c-3.722,0-6.73-3.014-6.73-6.729
	c0-3.721,3.015-6.73,6.73-6.73c3.72,0,6.729,3.014,6.729,6.73C576.203,450.323,573.191,453.337,569.472,453.337z M569.472,401.337
	c-3.722,0-6.73-3.014-6.73-6.732c0-3.718,3.015-6.731,6.73-6.731c3.72,0,6.729,3.014,6.729,6.731
	C576.203,398.324,573.191,401.337,569.472,401.337z M569.472,349.337c-3.722,0-6.73-3.014-6.73-6.732
	c0-3.718,3.015-6.731,6.73-6.731c3.72,0,6.729,3.014,6.729,6.731C576.203,346.324,573.191,349.337,569.472,349.337z
	 M569.472,297.337c-3.722,0-6.73-3.014-6.73-6.732c0-3.718,3.015-6.732,6.73-6.732c3.72,0,6.729,3.014,6.729,6.732
	C576.203,294.324,573.191,297.337,569.472,297.337z M569.472,245.337c-3.722,0-6.73-3.014-6.73-6.732
	c0-3.718,3.015-6.732,6.73-6.732c3.72,0,6.729,3.014,6.729,6.732C576.203,242.324,573.191,245.337,569.472,245.337z
	 M569.472,193.337c-3.722,0-6.73-3.014-6.73-6.732c0-3.718,3.015-6.732,6.73-6.732c3.72,0,6.729,3.014,6.729,6.732
	C576.203,190.324,573.191,193.337,569.472,193.337z M569.472,141.337c-3.722,0-6.73-3.014-6.73-6.732
	c0-3.718,3.015-6.732,6.73-6.732c3.72,0,6.729,3.014,6.729,6.732C576.203,138.324,573.191,141.337,569.472,141.337z M569.472,89.337
	c-3.722,0-6.73-3.014-6.73-6.732s3.015-6.732,6.73-6.732c3.72,0,6.729,3.014,6.729,6.732S573.191,89.337,569.472,89.337z
	 M569.472,37.337c-3.722,0-6.73-3.014-6.73-6.732c0-3.718,3.015-6.732,6.73-6.732c3.72,0,6.729,3.014,6.729,6.732
	C576.203,34.324,573.191,37.337,569.472,37.337z M626.041,713.337c-3.719,0-6.729-3.014-6.729-6.731
	c0-3.719,3.016-6.729,6.729-6.729c3.715,0,6.732,3.014,6.732,6.729C632.775,710.323,629.76,713.337,626.041,713.337z
	 M626.041,661.337c-3.719,0-6.729-3.014-6.729-6.731c0-3.719,3.016-6.729,6.729-6.729c3.715,0,6.732,3.014,6.732,6.729
	C632.775,658.323,629.76,661.337,626.041,661.337z M626.041,609.337c-3.719,0-6.729-3.014-6.729-6.731
	c0-3.719,3.016-6.729,6.729-6.729c3.715,0,6.732,3.014,6.732,6.729C632.775,606.323,629.76,609.337,626.041,609.337z
	 M626.041,557.337c-3.719,0-6.729-3.014-6.729-6.731c0-3.719,3.016-6.729,6.729-6.729c3.715,0,6.732,3.014,6.732,6.729
	C632.775,554.323,629.76,557.337,626.041,557.337z M626.041,505.337c-3.719,0-6.729-3.014-6.729-6.729
	c0-3.721,3.016-6.73,6.729-6.73c3.715,0,6.732,3.014,6.732,6.73C632.775,502.323,629.76,505.337,626.041,505.337z M626.041,453.337
	c-3.719,0-6.729-3.014-6.729-6.729c0-3.721,3.016-6.73,6.729-6.73c3.715,0,6.732,3.014,6.732,6.73
	C632.775,450.323,629.76,453.337,626.041,453.337z M626.041,401.337c-3.719,0-6.729-3.014-6.729-6.732
	c0-3.718,3.016-6.731,6.729-6.731c3.715,0,6.732,3.014,6.732,6.731C632.775,398.324,629.76,401.337,626.041,401.337z
	 M626.041,349.337c-3.719,0-6.729-3.014-6.729-6.732c0-3.718,3.016-6.731,6.729-6.731c3.715,0,6.732,3.014,6.732,6.731
	C632.775,346.324,629.76,349.337,626.041,349.337z M626.041,297.337c-3.719,0-6.729-3.014-6.729-6.732
	c0-3.718,3.016-6.732,6.729-6.732c3.715,0,6.732,3.014,6.732,6.732C632.774,294.324,629.76,297.337,626.041,297.337z
	 M626.041,245.337c-3.719,0-6.729-3.014-6.729-6.732c0-3.718,3.016-6.732,6.729-6.732c3.715,0,6.732,3.014,6.732,6.732
	C632.774,242.324,629.76,245.337,626.041,245.337z M626.041,193.337c-3.719,0-6.729-3.014-6.729-6.732
	c0-3.718,3.016-6.732,6.729-6.732c3.715,0,6.732,3.014,6.732,6.732C632.774,190.324,629.76,193.337,626.041,193.337z
	 M626.041,141.337c-3.719,0-6.729-3.014-6.729-6.732c0-3.718,3.016-6.732,6.729-6.732c3.715,0,6.732,3.014,6.732,6.732
	C632.774,138.324,629.76,141.337,626.041,141.337z M626.041,89.337c-3.719,0-6.729-3.014-6.729-6.732s3.016-6.732,6.729-6.732
	c3.715,0,6.732,3.014,6.732,6.732S629.76,89.337,626.041,89.337z M626.041,37.337c-3.719,0-6.729-3.014-6.729-6.732
	c0-3.718,3.016-6.732,6.729-6.732c3.715,0,6.732,3.014,6.732,6.732C632.774,34.324,629.76,37.337,626.041,37.337z M682.613,713.337
	c-3.721,0-6.731-3.014-6.731-6.731c0-3.719,3.016-6.729,6.731-6.729s6.729,3.014,6.729,6.729
	C689.343,710.323,686.33,713.337,682.613,713.337z M682.613,661.337c-3.721,0-6.731-3.014-6.731-6.731
	c0-3.719,3.016-6.729,6.731-6.729s6.729,3.014,6.729,6.729C689.343,658.323,686.33,661.337,682.613,661.337z M682.613,609.337
	c-3.721,0-6.731-3.014-6.731-6.731c0-3.719,3.016-6.729,6.731-6.729s6.729,3.014,6.729,6.729
	C689.343,606.323,686.33,609.337,682.613,609.337z M682.613,557.337c-3.721,0-6.731-3.014-6.731-6.731
	c0-3.719,3.016-6.729,6.731-6.729s6.729,3.014,6.729,6.729C689.343,554.323,686.33,557.337,682.613,557.337z M682.613,505.337
	c-3.721,0-6.731-3.014-6.731-6.729c0-3.721,3.016-6.73,6.731-6.73s6.729,3.014,6.729,6.73
	C689.343,502.323,686.33,505.337,682.613,505.337z M682.613,453.337c-3.721,0-6.731-3.014-6.731-6.729
	c0-3.721,3.016-6.73,6.731-6.73s6.729,3.014,6.729,6.73C689.343,450.323,686.33,453.337,682.613,453.337z M682.613,401.337
	c-3.721,0-6.731-3.014-6.731-6.732c0-3.718,3.016-6.731,6.731-6.731s6.729,3.014,6.729,6.731
	C689.343,398.324,686.33,401.337,682.613,401.337z M682.613,349.337c-3.721,0-6.731-3.014-6.731-6.732
	c0-3.718,3.016-6.731,6.731-6.731s6.729,3.014,6.729,6.731C689.343,346.324,686.33,349.337,682.613,349.337z M682.613,297.337
	c-3.721,0-6.731-3.014-6.731-6.732c0-3.718,3.016-6.732,6.731-6.732s6.729,3.014,6.729,6.732
	C689.342,294.324,686.33,297.337,682.613,297.337z M682.613,245.337c-3.721,0-6.731-3.014-6.731-6.732
	c0-3.718,3.016-6.732,6.731-6.732s6.729,3.014,6.729,6.732C689.342,242.324,686.33,245.337,682.613,245.337z M682.613,193.337
	c-3.721,0-6.731-3.014-6.731-6.732c0-3.718,3.016-6.732,6.731-6.732s6.729,3.014,6.729,6.732
	C689.342,190.324,686.33,193.337,682.613,193.337z M682.613,141.337c-3.721,0-6.731-3.014-6.731-6.732
	c0-3.718,3.016-6.732,6.731-6.732s6.729,3.014,6.729,6.732C689.342,138.324,686.33,141.337,682.613,141.337z M682.613,89.337
	c-3.721,0-6.731-3.014-6.731-6.732s3.016-6.732,6.731-6.732s6.729,3.014,6.729,6.732C689.343,86.324,686.33,89.337,682.613,89.337z
	 M739.183,661.337c-3.721,0-6.73-3.014-6.73-6.731c0-3.719,3.015-6.729,6.73-6.729c3.719,0,6.729,3.014,6.729,6.729
	C745.913,658.323,742.902,661.337,739.183,661.337z M739.183,609.337c-3.721,0-6.73-3.014-6.73-6.731
	c0-3.719,3.015-6.729,6.73-6.729c3.719,0,6.729,3.014,6.729,6.729C745.913,606.323,742.902,609.337,739.183,609.337z
	 M739.183,557.337c-3.721,0-6.73-3.014-6.73-6.731c0-3.719,3.015-6.729,6.73-6.729c3.719,0,6.729,3.014,6.729,6.729
	C745.913,554.323,742.902,557.337,739.183,557.337z M739.183,505.337c-3.721,0-6.73-3.014-6.73-6.729c0-3.721,3.015-6.73,6.73-6.73
	c3.719,0,6.729,3.014,6.729,6.73C745.913,502.323,742.902,505.337,739.183,505.337z M739.183,453.337
	c-3.721,0-6.73-3.014-6.73-6.729c0-3.721,3.015-6.73,6.73-6.73c3.719,0,6.729,3.014,6.729,6.73
	C745.913,450.323,742.902,453.337,739.183,453.337z M739.183,401.337c-3.721,0-6.73-3.014-6.73-6.732
	c0-3.718,3.015-6.731,6.73-6.731c3.719,0,6.729,3.014,6.729,6.731C745.913,398.324,742.902,401.337,739.183,401.337z
	 M739.183,349.337c-3.721,0-6.73-3.014-6.73-6.732c0-3.718,3.015-6.731,6.73-6.731c3.719,0,6.729,3.014,6.729,6.731
	C745.913,346.324,742.902,349.337,739.183,349.337z M739.183,297.337c-3.721,0-6.73-3.014-6.73-6.732
	c0-3.718,3.015-6.732,6.73-6.732c3.719,0,6.729,3.014,6.729,6.732C745.913,294.324,742.902,297.337,739.183,297.337z
	 M739.183,245.337c-3.721,0-6.73-3.014-6.73-6.732c0-3.718,3.015-6.732,6.73-6.732c3.719,0,6.729,3.014,6.729,6.732
	C745.913,242.324,742.902,245.337,739.183,245.337z M739.183,193.337c-3.721,0-6.73-3.014-6.73-6.732
	c0-3.718,3.015-6.732,6.73-6.732c3.719,0,6.729,3.014,6.729,6.732C745.913,190.324,742.902,193.337,739.183,193.337z
	 M739.183,141.337c-3.721,0-6.73-3.014-6.73-6.732c0-3.718,3.015-6.732,6.73-6.732c3.719,0,6.729,3.014,6.729,6.732
	C745.913,138.324,742.902,141.337,739.183,141.337z M795.752,661.337c-3.72,0-6.73-3.014-6.73-6.731c0-3.719,3.016-6.729,6.73-6.729
	c3.72,0,6.731,3.014,6.731,6.729C802.486,658.323,799.472,661.337,795.752,661.337z M795.752,609.337c-3.72,0-6.73-3.014-6.73-6.731
	c0-3.719,3.016-6.729,6.73-6.729c3.72,0,6.731,3.014,6.731,6.729C802.486,606.323,799.472,609.337,795.752,609.337z
	 M795.752,557.337c-3.72,0-6.73-3.014-6.73-6.731c0-3.719,3.016-6.729,6.73-6.729c3.72,0,6.731,3.014,6.731,6.729
	C802.486,554.323,799.472,557.337,795.752,557.337z M795.752,505.337c-3.72,0-6.73-3.014-6.73-6.729c0-3.721,3.016-6.73,6.73-6.73
	c3.72,0,6.731,3.014,6.731,6.73C802.486,502.323,799.472,505.337,795.752,505.337z M795.752,453.337c-3.72,0-6.73-3.014-6.73-6.729
	c0-3.721,3.016-6.73,6.73-6.73c3.72,0,6.731,3.014,6.731,6.73C802.486,450.323,799.472,453.337,795.752,453.337z M795.752,401.337
	c-3.72,0-6.73-3.014-6.73-6.732c0-3.718,3.016-6.731,6.73-6.731c3.72,0,6.731,3.014,6.731,6.731
	C802.486,398.324,799.472,401.337,795.752,401.337z M795.752,349.337c-3.72,0-6.73-3.014-6.73-6.732c0-3.718,3.016-6.731,6.73-6.731
	c3.72,0,6.731,3.014,6.731,6.731C802.486,346.324,799.472,349.337,795.752,349.337z M795.752,297.337c-3.72,0-6.73-3.014-6.73-6.732
	c0-3.718,3.016-6.732,6.73-6.732c3.72,0,6.731,3.014,6.731,6.732C802.485,294.324,799.472,297.337,795.752,297.337z
	 M795.752,245.337c-3.72,0-6.73-3.014-6.73-6.732c0-3.718,3.016-6.732,6.73-6.732c3.72,0,6.731,3.014,6.731,6.732
	C802.485,242.324,799.472,245.337,795.752,245.337z M795.752,193.337c-3.72,0-6.73-3.014-6.73-6.732c0-3.718,3.016-6.732,6.73-6.732
	c3.72,0,6.731,3.014,6.731,6.732C802.485,190.324,799.472,193.337,795.752,193.337z M795.752,141.337c-3.72,0-6.73-3.014-6.73-6.732
	c0-3.718,3.016-6.732,6.73-6.732c3.72,0,6.731,3.014,6.731,6.732C802.485,138.324,799.472,141.337,795.752,141.337z
	 M852.323,609.337c-3.719,0-6.731-3.014-6.731-6.731c0-3.719,3.016-6.729,6.731-6.729s6.732,3.014,6.732,6.729
	C859.056,606.323,856.041,609.337,852.323,609.337z M852.323,557.337c-3.719,0-6.731-3.014-6.731-6.731
	c0-3.719,3.016-6.729,6.731-6.729s6.732,3.014,6.732,6.729C859.056,554.323,856.041,557.337,852.323,557.337z M852.323,505.337
	c-3.719,0-6.731-3.014-6.731-6.729c0-3.721,3.016-6.73,6.731-6.73s6.732,3.014,6.732,6.73
	C859.055,502.323,856.041,505.337,852.323,505.337z M852.323,453.337c-3.719,0-6.731-3.014-6.731-6.729
	c0-3.721,3.016-6.73,6.731-6.73s6.732,3.014,6.732,6.73C859.055,450.323,856.041,453.337,852.323,453.337z M852.323,401.337
	c-3.719,0-6.731-3.014-6.731-6.732c0-3.718,3.016-6.731,6.731-6.731s6.732,3.014,6.732,6.731
	C859.056,398.324,856.041,401.337,852.323,401.337z M852.323,349.337c-3.719,0-6.731-3.014-6.731-6.732
	c0-3.718,3.016-6.731,6.731-6.731s6.732,3.014,6.732,6.731C859.056,346.324,856.041,349.337,852.323,349.337z M852.323,297.337
	c-3.719,0-6.731-3.014-6.731-6.732c0-3.718,3.016-6.732,6.731-6.732s6.732,3.014,6.732,6.732
	C859.056,294.324,856.041,297.337,852.323,297.337z M852.323,245.337c-3.719,0-6.731-3.014-6.731-6.732
	c0-3.718,3.016-6.732,6.731-6.732s6.732,3.014,6.732,6.732C859.056,242.324,856.041,245.337,852.323,245.337z M852.323,193.337
	c-3.719,0-6.731-3.014-6.731-6.732c0-3.718,3.016-6.732,6.731-6.732s6.732,3.014,6.732,6.732
	C859.056,190.324,856.041,193.337,852.323,193.337z M908.894,609.337c-3.721,0-6.73-3.014-6.73-6.731
	c0-3.719,3.015-6.729,6.73-6.729c3.72,0,6.731,3.014,6.731,6.729C915.625,606.323,912.614,609.337,908.894,609.337z
	 M908.894,557.337c-3.721,0-6.73-3.014-6.73-6.731c0-3.719,3.015-6.729,6.73-6.729c3.72,0,6.731,3.014,6.731,6.729
	C915.625,554.323,912.614,557.337,908.894,557.337z M908.894,505.337c-3.721,0-6.73-3.014-6.73-6.729c0-3.721,3.015-6.73,6.73-6.73
	c3.72,0,6.731,3.014,6.731,6.73C915.625,502.323,912.614,505.337,908.894,505.337z M908.894,453.337c-3.721,0-6.73-3.014-6.73-6.729
	c0-3.721,3.015-6.73,6.73-6.73c3.72,0,6.731,3.014,6.731,6.73C915.625,450.323,912.614,453.337,908.894,453.337z M908.894,401.337
	c-3.721,0-6.73-3.014-6.73-6.732c0-3.718,3.015-6.731,6.73-6.731c3.72,0,6.731,3.014,6.731,6.731
	C915.625,398.324,912.614,401.337,908.894,401.337z M908.894,349.337c-3.721,0-6.73-3.014-6.73-6.732
	c0-3.718,3.015-6.731,6.73-6.731c3.72,0,6.731,3.014,6.731,6.731C915.625,346.324,912.614,349.337,908.894,349.337z
	 M908.894,297.337c-3.721,0-6.73-3.014-6.73-6.732c0-3.718,3.015-6.732,6.73-6.732c3.72,0,6.731,3.014,6.731,6.732
	C915.625,294.324,912.614,297.337,908.894,297.337z M908.894,245.337c-3.721,0-6.73-3.014-6.73-6.732
	c0-3.718,3.015-6.732,6.73-6.732c3.72,0,6.731,3.014,6.731,6.732C915.625,242.324,912.614,245.337,908.894,245.337z
	 M908.894,193.337c-3.721,0-6.73-3.014-6.73-6.732c0-3.718,3.015-6.732,6.73-6.732c3.72,0,6.731,3.014,6.731,6.732
	C915.625,190.324,912.614,193.337,908.894,193.337z M965.463,661.337c-3.72,0-6.729-3.014-6.729-6.731
	c0-3.719,3.014-6.729,6.729-6.729c3.721,0,6.731,3.014,6.731,6.729C972.198,658.323,969.184,661.337,965.463,661.337z
	 M965.463,609.337c-3.72,0-6.729-3.014-6.729-6.731c0-3.719,3.014-6.729,6.729-6.729c3.721,0,6.731,3.014,6.731,6.729
	C972.198,606.323,969.184,609.337,965.463,609.337z M965.463,557.337c-3.72,0-6.729-3.014-6.729-6.731
	c0-3.719,3.014-6.729,6.729-6.729c3.721,0,6.731,3.014,6.731,6.729C972.198,554.323,969.184,557.337,965.463,557.337z
	 M965.463,505.337c-3.72,0-6.729-3.014-6.729-6.729c0-3.721,3.014-6.73,6.729-6.73c3.721,0,6.731,3.014,6.731,6.73
	C972.198,502.323,969.184,505.337,965.463,505.337z M965.463,453.337c-3.72,0-6.729-3.014-6.729-6.729
	c0-3.721,3.014-6.73,6.729-6.73c3.721,0,6.731,3.014,6.731,6.73C972.198,450.323,969.184,453.337,965.463,453.337z M965.463,401.337
	c-3.72,0-6.729-3.014-6.729-6.732c0-3.718,3.014-6.731,6.729-6.731c3.721,0,6.731,3.014,6.731,6.731
	C972.198,398.324,969.184,401.337,965.463,401.337z M965.463,349.337c-3.72,0-6.729-3.014-6.729-6.732
	c0-3.718,3.014-6.731,6.729-6.731c3.721,0,6.731,3.014,6.731,6.731C972.198,346.324,969.184,349.337,965.463,349.337z
	 M965.463,297.337c-3.72,0-6.729-3.014-6.729-6.732c0-3.718,3.014-6.732,6.729-6.732c3.721,0,6.731,3.014,6.731,6.732
	C972.196,294.324,969.184,297.337,965.463,297.337z M965.463,245.337c-3.72,0-6.729-3.014-6.729-6.732
	c0-3.718,3.014-6.732,6.729-6.732c3.721,0,6.731,3.014,6.731,6.732C972.196,242.324,969.184,245.337,965.463,245.337z
	 M1022.032,661.337c-3.719,0-6.731-3.014-6.731-6.731c0-3.719,3.02-6.729,6.731-6.729c3.72,0,6.732,3.014,6.732,6.729
	C1028.768,658.323,1025.752,661.337,1022.032,661.337z M1022.032,609.337c-3.719,0-6.731-3.014-6.731-6.731
	c0-3.719,3.02-6.729,6.731-6.729c3.72,0,6.732,3.014,6.732,6.729C1028.768,606.323,1025.752,609.337,1022.032,609.337z
	 M1022.032,557.337c-3.719,0-6.731-3.014-6.731-6.731c0-3.719,3.02-6.729,6.731-6.729c3.72,0,6.732,3.014,6.732,6.729
	C1028.768,554.323,1025.752,557.337,1022.032,557.337z M1022.032,505.337c-3.719,0-6.731-3.014-6.731-6.729
	c0-3.721,3.02-6.73,6.731-6.73c3.72,0,6.732,3.014,6.732,6.73C1028.768,502.323,1025.752,505.337,1022.032,505.337z
	 M1022.032,453.337c-3.719,0-6.731-3.014-6.731-6.729c0-3.721,3.02-6.73,6.731-6.73c3.72,0,6.732,3.014,6.732,6.73
	C1028.768,450.323,1025.752,453.337,1022.032,453.337z M1022.032,401.337c-3.719,0-6.731-3.014-6.731-6.732
	c0-3.718,3.02-6.731,6.731-6.731c3.72,0,6.732,3.014,6.732,6.731C1028.768,398.324,1025.752,401.337,1022.032,401.337z
	 M1022.032,349.337c-3.719,0-6.731-3.014-6.731-6.732c0-3.718,3.02-6.731,6.731-6.731c3.72,0,6.732,3.014,6.732,6.731
	C1028.768,346.324,1025.752,349.337,1022.032,349.337z M1022.032,297.337c-3.719,0-6.731-3.014-6.731-6.732
	c0-3.718,3.02-6.732,6.731-6.732c3.72,0,6.732,3.014,6.732,6.732C1028.766,294.324,1025.752,297.337,1022.032,297.337z
	 M1022.032,245.337c-3.719,0-6.731-3.014-6.731-6.732c0-3.718,3.02-6.732,6.731-6.732c3.72,0,6.732,3.014,6.732,6.732
	C1028.766,242.324,1025.752,245.337,1022.032,245.337z M1191.743,595.872c3.72,0,6.732,3.014,6.732,6.729
	c0,3.723-3.016,6.732-6.732,6.732c-3.716,0-6.729-3.014-6.729-6.732C1185.014,598.886,1188.028,595.872,1191.743,595.872z
	 M1191.743,647.872c3.72,0,6.732,3.014,6.732,6.729c0,3.723-3.016,6.732-6.732,6.732c-3.716,0-6.729-3.014-6.729-6.732
	C1185.014,650.886,1188.028,647.872,1191.743,647.872z M1191.743,699.872c3.72,0,6.732,3.014,6.732,6.729
	c0,3.723-3.016,6.732-6.732,6.732c-3.716,0-6.729-3.014-6.729-6.732C1185.014,702.886,1188.028,699.872,1191.743,699.872z
	 M1135.174,595.872c3.721,0,6.731,3.014,6.731,6.729c0,3.723-3.016,6.732-6.731,6.732c-3.717,0-6.73-3.014-6.73-6.732
	C1128.444,598.886,1131.454,595.872,1135.174,595.872z M1135.174,647.872c3.721,0,6.731,3.014,6.731,6.729
	c0,3.723-3.016,6.732-6.731,6.732c-3.717,0-6.73-3.014-6.73-6.732C1128.444,650.886,1131.454,647.872,1135.174,647.872z
	 M1078.606,661.337c-3.719,0-6.73-3.014-6.73-6.731c0-3.719,3.017-6.729,6.73-6.729c3.719,0,6.73,3.014,6.73,6.729
	C1085.336,658.323,1082.323,661.337,1078.606,661.337z M1078.606,609.337c-3.719,0-6.73-3.014-6.73-6.731
	c0-3.719,3.017-6.729,6.73-6.729c3.719,0,6.73,3.014,6.73,6.729C1085.336,606.323,1082.323,609.337,1078.606,609.337z
	 M1078.606,557.337c-3.719,0-6.73-3.014-6.73-6.731c0-3.719,3.017-6.729,6.73-6.729c3.719,0,6.73,3.014,6.73,6.729
	C1085.336,554.323,1082.323,557.337,1078.606,557.337z M1078.606,505.337c-3.719,0-6.73-3.014-6.73-6.729
	c0-3.721,3.017-6.73,6.73-6.73c3.719,0,6.73,3.014,6.73,6.73C1085.336,502.323,1082.323,505.337,1078.606,505.337z
	 M1078.606,453.337c-3.719,0-6.73-3.014-6.73-6.729c0-3.721,3.017-6.73,6.73-6.73c3.719,0,6.73,3.014,6.73,6.73
	C1085.336,450.323,1082.323,453.337,1078.606,453.337z M1078.606,401.337c-3.719,0-6.73-3.014-6.73-6.732
	c0-3.718,3.017-6.731,6.73-6.731c3.719,0,6.73,3.014,6.73,6.731C1085.336,398.324,1082.323,401.337,1078.606,401.337z
	 M1078.606,349.337c-3.719,0-6.73-3.014-6.73-6.732c0-3.718,3.017-6.731,6.73-6.731c3.719,0,6.73,3.014,6.73,6.731
	C1085.336,346.324,1082.323,349.337,1078.606,349.337z M1078.606,297.337c-3.719,0-6.73-3.014-6.73-6.732
	c0-3.718,3.017-6.732,6.73-6.732c3.719,0,6.73,3.014,6.73,6.732C1085.336,294.324,1082.323,297.337,1078.606,297.337z
	 M1135.174,453.337c-3.72,0-6.73-3.014-6.73-6.729c0-3.721,3.016-6.73,6.73-6.73c3.721,0,6.731,3.014,6.731,6.73
	C1141.907,450.323,1138.895,453.337,1135.174,453.337z M1135.174,401.337c-3.72,0-6.73-3.014-6.73-6.732
	c0-3.718,3.016-6.731,6.73-6.731c3.721,0,6.731,3.014,6.731,6.731C1141.907,398.324,1138.895,401.337,1135.174,401.337z
	 M1135.174,349.337c-3.72,0-6.73-3.014-6.73-6.732c0-3.718,3.016-6.731,6.73-6.731c3.721,0,6.731,3.014,6.731,6.731
	C1141.907,346.324,1138.895,349.337,1135.174,349.337z M1135.174,297.337c-3.72,0-6.73-3.014-6.73-6.732
	c0-3.718,3.016-6.732,6.73-6.732c3.721,0,6.731,3.014,6.731,6.732C1141.906,294.324,1138.895,297.337,1135.174,297.337z
	 M1191.743,453.337c-3.719,0-6.729-3.014-6.729-6.729c0-3.721,3.018-6.73,6.729-6.73c3.72,0,6.732,3.014,6.732,6.73
	C1198.479,450.323,1195.463,453.337,1191.743,453.337z M1191.743,401.337c-3.719,0-6.729-3.014-6.729-6.732
	c0-3.718,3.018-6.731,6.729-6.731c3.72,0,6.732,3.014,6.732,6.731C1198.479,398.324,1195.463,401.337,1191.743,401.337z
	 M1191.743,349.337c-3.719,0-6.729-3.014-6.729-6.732c0-3.718,3.018-6.731,6.729-6.731c3.72,0,6.732,3.014,6.732,6.731
	C1198.479,346.324,1195.463,349.337,1191.743,349.337z M1248.317,453.337c-3.719,0-6.732-3.014-6.732-6.729
	c0-3.721,3.015-6.73,6.732-6.73c3.717,0,6.73,3.014,6.73,6.73C1255.047,450.323,1252.032,453.337,1248.317,453.337z
	 M1248.317,401.337c-3.719,0-6.732-3.014-6.732-6.732c0-3.718,3.015-6.731,6.732-6.731c3.717,0,6.73,3.014,6.73,6.731
	C1255.047,398.324,1252.032,401.337,1248.317,401.337z M1248.317,349.337c-3.719,0-6.732-3.014-6.732-6.732
	c0-3.718,3.015-6.731,6.732-6.731c3.717,0,6.73,3.014,6.73,6.731C1255.047,346.324,1252.032,349.337,1248.317,349.337z
	 M1304.887,453.337c-3.721,0-6.73-3.014-6.73-6.729c0-3.721,3.015-6.73,6.73-6.73c3.719,0,6.729,3.014,6.729,6.73
	C1311.616,450.323,1308.606,453.337,1304.887,453.337z M1304.887,401.337c-3.721,0-6.73-3.014-6.73-6.732
	c0-3.718,3.015-6.731,6.73-6.731c3.719,0,6.729,3.014,6.729,6.731C1311.616,398.324,1308.606,401.337,1304.887,401.337z
	 M1361.454,401.337c-3.719,0-6.729-3.014-6.729-6.732c0-3.718,3.018-6.731,6.729-6.731c3.72,0,6.732,3.014,6.732,6.731
	C1368.19,398.324,1365.174,401.337,1361.454,401.337z"/>
</svg>
