<?xml version="1.0" encoding="utf-8"?>
<!-- Generator: Adobe Illustrator 16.0.0, SVG Export Plug-In . SVG Version: 6.00 Build 0)  -->
<!DOCTYPE svg PUBLIC "-//W3C//DTD SVG 1.1//EN" "http://www.w3.org/Graphics/SVG/1.1/DTD/svg11.dtd">
<svg version="1.1" id="Layer_1" xmlns="http://www.w3.org/2000/svg" xmlns:xlink="http://www.w3.org/1999/xlink" x="0px" y="0px"
	 width="1444.326px" height="863.135px" viewBox="0 0 1444.326 863.135" enable-background="new 0 0 1444.326 863.135"
	 xml:space="preserve">
<path fill="none" stroke="#000000" stroke-linejoin="round" stroke-miterlimit="10" d="M48.93,412.299
	c-3.72,0-6.732-3.014-6.732-6.729c0-3.722,3.014-6.732,6.732-6.732c3.718,0,6.731,3.014,6.731,6.732
	C55.662,409.286,52.649,412.299,48.93,412.299z M48.93,346.836c3.717,0,6.73,3.014,6.73,6.731s-3.014,6.731-6.73,6.731
	c-3.718,0-6.731-3.014-6.731-6.731S45.213,346.836,48.93,346.836z M105.5,412.299c-3.719,0-6.731-3.014-6.731-6.729
	c0-3.722,3.014-6.732,6.731-6.732s6.732,3.014,6.732,6.732C112.232,409.286,109.219,412.299,105.5,412.299z M105.5,346.836
	c3.718,0,6.731,3.014,6.731,6.731s-3.014,6.731-6.731,6.731c-3.717,0-6.73-3.014-6.73-6.731S101.783,346.836,105.5,346.836z
	 M162.071,412.299c-3.719,0-6.732-3.014-6.732-6.729c0-3.722,3.015-6.732,6.732-6.732s6.732,3.014,6.732,6.732
	C168.803,409.286,165.79,412.299,162.071,412.299z M162.071,346.836c3.718,0,6.731,3.014,6.731,6.731s-3.014,6.731-6.731,6.731
	s-6.731-3.014-6.731-6.731S158.353,346.836,162.071,346.836z M218.641,412.299c-3.72,0-6.732-3.014-6.732-6.729
	c0-3.722,3.014-6.732,6.732-6.732c3.718,0,6.731,3.014,6.731,6.732C225.373,409.286,222.36,412.299,218.641,412.299z
	 M218.641,346.836c3.717,0,6.73,3.014,6.73,6.731s-3.014,6.731-6.73,6.731c-3.718,0-6.731-3.014-6.731-6.731
	S214.924,346.836,218.641,346.836z M218.641,294.835c3.718,0,6.731,3.014,6.731,6.732c0,3.718-3.014,6.732-6.731,6.732
	c-3.719,0-6.732-3.014-6.732-6.732C211.909,297.849,214.923,294.835,218.641,294.835z M275.211,412.299
	c-3.719,0-6.731-3.014-6.731-6.729c0-3.722,3.014-6.732,6.731-6.732c3.719,0,6.732,3.014,6.732,6.732
	C281.943,409.286,278.93,412.299,275.211,412.299z M275.211,346.836c3.718,0,6.731,3.014,6.731,6.731s-3.014,6.731-6.731,6.731
	c-3.717,0-6.73-3.014-6.73-6.731S271.494,346.836,275.211,346.836z M275.211,294.835c3.719,0,6.732,3.014,6.732,6.732
	c0,3.718-3.014,6.732-6.732,6.732c-3.718,0-6.731-3.014-6.731-6.732C268.479,297.849,271.493,294.835,275.211,294.835z
	 M162.07,677.893c3.717,0,6.729,3.014,6.729,6.73s-3.013,6.729-6.729,6.729s-6.73-3.013-6.73-6.729S158.353,677.893,162.07,677.893z
	 M218.641,672.299c-3.719,0-6.731-3.014-6.731-6.729c0-3.723,3.014-6.732,6.731-6.732c3.719,0,6.731,3.014,6.731,6.732
	C225.373,669.286,222.359,672.299,218.641,672.299z M218.641,620.299c-3.719,0-6.731-3.014-6.731-6.729
	c0-3.723,3.014-6.732,6.731-6.732c3.719,0,6.731,3.014,6.731,6.732C225.373,617.286,222.359,620.299,218.641,620.299z
	 M218.641,568.299c-3.719,0-6.731-3.014-6.731-6.729c0-3.723,3.014-6.732,6.731-6.732c3.719,0,6.731,3.014,6.731,6.732
	C225.373,565.286,222.359,568.299,218.641,568.299z M275.211,620.299c-3.718,0-6.73-3.014-6.73-6.729
	c0-3.723,3.014-6.732,6.73-6.732c3.72,0,6.732,3.014,6.732,6.732C281.943,617.286,278.93,620.299,275.211,620.299z M275.211,568.299
	c-3.718,0-6.73-3.014-6.73-6.729c0-3.723,3.014-6.732,6.73-6.732c3.72,0,6.732,3.014,6.732,6.732
	C281.943,565.286,278.93,568.299,275.211,568.299z M331.781,620.299c-3.718,0-6.73-3.014-6.73-6.729c0-3.723,3.017-6.732,6.73-6.732
	c3.72,0,6.73,3.014,6.73,6.732C338.514,617.286,335.501,620.299,331.781,620.299z M331.781,568.299c-3.718,0-6.73-3.014-6.73-6.729
	c0-3.723,3.017-6.732,6.73-6.732c3.72,0,6.73,3.014,6.73,6.732C338.514,565.286,335.501,568.299,331.781,568.299z M331.781,516.299
	c-3.718,0-6.73-3.014-6.73-6.729c0-3.723,3.017-6.732,6.73-6.732c3.72,0,6.73,3.014,6.73,6.732
	C338.514,513.286,335.501,516.299,331.781,516.299z M331.781,464.299c-3.718,0-6.73-3.014-6.73-6.729
	c0-3.723,3.017-6.732,6.73-6.732c3.72,0,6.73,3.014,6.73,6.732C338.514,461.286,335.501,464.299,331.781,464.299z M331.782,412.299
	c-3.719,0-6.731-3.014-6.731-6.729c0-3.722,3.017-6.732,6.731-6.732s6.729,3.014,6.729,6.732
	C338.514,409.286,335.501,412.299,331.782,412.299z M331.782,346.836c3.718,0,6.731,3.014,6.731,6.731s-3.014,6.731-6.731,6.731
	c-3.717,0-6.73-3.014-6.73-6.731S328.065,346.836,331.782,346.836z M331.782,294.835c3.719,0,6.732,3.014,6.732,6.732
	c0,3.718-3.014,6.732-6.732,6.732c-3.718,0-6.731-3.014-6.731-6.732C325.051,297.849,328.064,294.835,331.782,294.835z
	 M331.782,242.835c3.719,0,6.732,3.014,6.732,6.732c0,3.718-3.014,6.732-6.732,6.732c-3.718,0-6.731-3.014-6.731-6.732
	C325.051,245.849,328.064,242.835,331.782,242.835z M388.352,620.299c-3.719,0-6.729-3.014-6.729-6.729
	c0-3.723,3.015-6.732,6.729-6.732c3.721,0,6.732,3.014,6.732,6.732C395.085,617.286,392.071,620.299,388.352,620.299z
	 M388.352,568.299c-3.719,0-6.729-3.014-6.729-6.729c0-3.723,3.015-6.732,6.729-6.732c3.721,0,6.732,3.014,6.732,6.732
	C395.085,565.286,392.071,568.299,388.352,568.299z M388.352,516.299c-3.719,0-6.729-3.014-6.729-6.729
	c0-3.723,3.015-6.732,6.729-6.732c3.721,0,6.732,3.014,6.732,6.732C395.085,513.286,392.071,516.299,388.352,516.299z
	 M388.352,464.299c-3.719,0-6.729-3.014-6.729-6.729c0-3.723,3.015-6.732,6.729-6.732c3.721,0,6.732,3.014,6.732,6.732
	C395.085,461.286,392.071,464.299,388.352,464.299z M388.352,412.299c-3.719,0-6.729-3.014-6.729-6.729
	c0-3.722,3.015-6.732,6.729-6.732c3.721,0,6.732,3.014,6.732,6.732C395.085,409.286,392.071,412.299,388.352,412.299z
	 M388.352,360.299c-3.719,0-6.729-3.014-6.729-6.731c0-3.719,3.015-6.732,6.729-6.732c3.721,0,6.732,3.014,6.732,6.732
	C395.085,357.286,392.071,360.299,388.352,360.299z M388.352,308.299c-3.719,0-6.729-3.014-6.729-6.732
	c0-3.718,3.015-6.732,6.729-6.732c3.721,0,6.732,3.014,6.732,6.732C395.085,305.286,392.071,308.299,388.352,308.299z
	 M388.352,256.299c-3.719,0-6.729-3.014-6.729-6.732c0-3.718,3.015-6.732,6.729-6.732c3.721,0,6.732,3.014,6.732,6.732
	C395.085,253.286,392.071,256.299,388.352,256.299z M444.923,620.299c-3.72,0-6.729-3.014-6.729-6.729
	c0-3.723,3.014-6.732,6.729-6.732c3.715,0,6.731,3.014,6.731,6.732C451.654,617.286,448.641,620.299,444.923,620.299z
	 M444.923,568.299c-3.72,0-6.729-3.014-6.729-6.729c0-3.723,3.014-6.732,6.729-6.732c3.715,0,6.731,3.014,6.731,6.732
	C451.654,565.286,448.641,568.299,444.923,568.299z M444.923,516.299c-3.72,0-6.729-3.014-6.729-6.729
	c0-3.723,3.014-6.732,6.729-6.732c3.715,0,6.731,3.014,6.731,6.732C451.654,513.286,448.641,516.299,444.923,516.299z
	 M444.923,464.299c-3.72,0-6.729-3.014-6.729-6.729c0-3.723,3.014-6.732,6.729-6.732c3.715,0,6.731,3.014,6.731,6.732
	C451.654,461.286,448.641,464.299,444.923,464.299z M444.923,412.299c-3.72,0-6.729-3.014-6.729-6.729
	c0-3.722,3.014-6.732,6.729-6.732c3.715,0,6.731,3.014,6.731,6.732C451.654,409.286,448.641,412.299,444.923,412.299z
	 M444.923,346.836c3.717,0,6.73,3.014,6.73,6.731s-3.014,6.731-6.73,6.731c-3.718,0-6.731-3.014-6.731-6.731
	S441.205,346.836,444.923,346.836z M444.923,294.835c3.718,0,6.731,3.014,6.731,6.732c0,3.718-3.014,6.732-6.731,6.732
	c-3.719,0-6.732-3.014-6.732-6.732C438.19,297.849,441.204,294.835,444.923,294.835z M444.923,242.835
	c3.718,0,6.731,3.014,6.731,6.732c0,3.718-3.014,6.732-6.731,6.732c-3.719,0-6.732-3.014-6.732-6.732
	C438.19,245.849,441.204,242.835,444.923,242.835z M444.923,190.835c3.718,0,6.731,3.014,6.731,6.732
	c0,3.718-3.014,6.732-6.731,6.732c-3.719,0-6.732-3.014-6.732-6.732C438.19,193.849,441.204,190.835,444.923,190.835z
	 M501.493,620.299c-3.719,0-6.731-3.014-6.731-6.729c0-3.723,3.018-6.732,6.731-6.732s6.729,3.014,6.729,6.732
	C508.225,617.286,505.212,620.299,501.493,620.299z M501.493,568.299c-3.719,0-6.731-3.014-6.731-6.729
	c0-3.723,3.018-6.732,6.731-6.732s6.729,3.014,6.729,6.732C508.225,565.286,505.212,568.299,501.493,568.299z M501.493,516.299
	c-3.719,0-6.731-3.014-6.731-6.729c0-3.723,3.018-6.732,6.731-6.732s6.729,3.014,6.729,6.732
	C508.225,513.286,505.212,516.299,501.493,516.299z M501.493,464.299c-3.719,0-6.731-3.014-6.731-6.729
	c0-3.723,3.018-6.732,6.731-6.732s6.729,3.014,6.729,6.732C508.225,461.286,505.212,464.299,501.493,464.299z M501.493,412.299
	c-3.719,0-6.731-3.014-6.731-6.729c0-3.722,3.018-6.732,6.731-6.732s6.729,3.014,6.729,6.732
	C508.225,409.286,505.212,412.299,501.493,412.299z M501.493,360.299c-3.719,0-6.731-3.014-6.731-6.731
	c0-3.719,3.018-6.732,6.731-6.732s6.729,3.014,6.729,6.732C508.225,357.286,505.212,360.299,501.493,360.299z M501.493,308.299
	c-3.719,0-6.731-3.014-6.731-6.732c0-3.718,3.018-6.732,6.731-6.732s6.729,3.014,6.729,6.732
	C508.225,305.286,505.212,308.299,501.493,308.299z M501.493,256.299c-3.719,0-6.731-3.014-6.731-6.732
	c0-3.718,3.018-6.732,6.731-6.732s6.729,3.014,6.729,6.732C508.225,253.286,505.212,256.299,501.493,256.299z M501.493,204.299
	c-3.719,0-6.731-3.014-6.731-6.732c0-3.718,3.018-6.732,6.731-6.732s6.729,3.014,6.729,6.732
	C508.225,201.286,505.212,204.299,501.493,204.299z M558.062,620.299c-3.722,0-6.731-3.014-6.731-6.729
	c0-3.723,3.015-6.732,6.731-6.732c3.719,0,6.729,3.014,6.729,6.732C564.796,617.286,561.782,620.299,558.062,620.299z
	 M558.062,568.299c-3.722,0-6.731-3.014-6.731-6.729c0-3.723,3.015-6.732,6.731-6.732c3.719,0,6.729,3.014,6.729,6.732
	C564.796,565.286,561.782,568.299,558.062,568.299z M558.062,516.299c-3.722,0-6.731-3.014-6.731-6.729
	c0-3.723,3.015-6.732,6.731-6.732c3.719,0,6.729,3.014,6.729,6.732C564.796,513.286,561.782,516.299,558.062,516.299z
	 M558.062,464.299c-3.722,0-6.731-3.014-6.731-6.729c0-3.723,3.015-6.732,6.731-6.732c3.719,0,6.729,3.014,6.729,6.732
	C564.796,461.286,561.782,464.299,558.062,464.299z M558.062,412.299c-3.722,0-6.731-3.014-6.731-6.729
	c0-3.722,3.015-6.732,6.731-6.732c3.719,0,6.729,3.014,6.729,6.732C564.796,409.286,561.782,412.299,558.062,412.299z
	 M558.062,360.299c-3.722,0-6.731-3.014-6.731-6.731c0-3.719,3.015-6.732,6.731-6.732c3.719,0,6.729,3.014,6.729,6.732
	C564.796,357.286,561.782,360.299,558.062,360.299z M558.062,308.299c-3.722,0-6.731-3.014-6.731-6.732
	c0-3.718,3.015-6.732,6.731-6.732c3.719,0,6.729,3.014,6.729,6.732C564.796,305.286,561.782,308.299,558.062,308.299z
	 M558.062,256.299c-3.722,0-6.731-3.014-6.731-6.732c0-3.718,3.015-6.732,6.731-6.732c3.719,0,6.729,3.014,6.729,6.732
	C564.796,253.286,561.782,256.299,558.062,256.299z M558.062,204.299c-3.722,0-6.731-3.014-6.731-6.732
	c0-3.718,3.015-6.732,6.731-6.732c3.719,0,6.729,3.014,6.729,6.732C564.796,201.286,561.782,204.299,558.062,204.299z
	 M558.062,152.299c-3.722,0-6.731-3.014-6.731-6.732c0-3.718,3.015-6.732,6.731-6.732c3.719,0,6.729,3.014,6.729,6.732
	C564.796,149.286,561.782,152.299,558.062,152.299z M614.634,672.299c-3.72,0-6.729-3.014-6.729-6.729
	c0-3.723,3.015-6.732,6.729-6.732s6.731,3.014,6.731,6.732C621.365,669.286,618.352,672.299,614.634,672.299z M614.634,620.299
	c-3.72,0-6.729-3.014-6.729-6.729c0-3.723,3.015-6.732,6.729-6.732s6.731,3.014,6.731,6.732
	C621.365,617.286,618.352,620.299,614.634,620.299z M614.634,568.299c-3.72,0-6.729-3.014-6.729-6.729
	c0-3.723,3.015-6.732,6.729-6.732s6.731,3.014,6.731,6.732C621.365,565.286,618.352,568.299,614.634,568.299z M614.634,516.299
	c-3.72,0-6.729-3.014-6.729-6.729c0-3.723,3.015-6.732,6.729-6.732s6.731,3.014,6.731,6.732
	C621.365,513.286,618.352,516.299,614.634,516.299z M614.634,464.299c-3.72,0-6.729-3.014-6.729-6.729
	c0-3.723,3.015-6.732,6.729-6.732s6.731,3.014,6.731,6.732C621.365,461.286,618.352,464.299,614.634,464.299z M614.634,412.299
	c-3.72,0-6.729-3.014-6.729-6.729c0-3.722,3.015-6.732,6.729-6.732s6.731,3.014,6.731,6.732
	C621.365,409.286,618.352,412.299,614.634,412.299z M614.634,346.836c3.717,0,6.73,3.014,6.73,6.731s-3.014,6.731-6.73,6.731
	c-3.718,0-6.731-3.014-6.731-6.731S610.916,346.836,614.634,346.836z M614.634,294.835c3.718,0,6.731,3.014,6.731,6.732
	c0,3.718-3.014,6.732-6.731,6.732c-3.719,0-6.732-3.014-6.732-6.732C607.901,297.849,610.915,294.835,614.634,294.835z
	 M614.634,242.835c3.718,0,6.731,3.014,6.731,6.732c0,3.718-3.014,6.732-6.731,6.732c-3.719,0-6.732-3.014-6.732-6.732
	C607.901,245.849,610.915,242.835,614.634,242.835z M614.634,190.835c3.718,0,6.731,3.014,6.731,6.732
	c0,3.718-3.014,6.732-6.731,6.732c-3.719,0-6.732-3.014-6.732-6.732C607.901,193.849,610.915,190.835,614.634,190.835z
	 M614.634,138.835c3.718,0,6.731,3.014,6.731,6.732c0,3.718-3.014,6.732-6.731,6.732c-3.719,0-6.732-3.014-6.732-6.732
	C607.901,141.849,610.915,138.835,614.634,138.835z M671.204,672.299c-3.719,0-6.731-3.014-6.731-6.729
	c0-3.723,3.018-6.732,6.731-6.732c3.715,0,6.729,3.014,6.729,6.732C677.936,669.286,674.923,672.299,671.204,672.299z
	 M671.204,620.299c-3.719,0-6.731-3.014-6.731-6.729c0-3.723,3.018-6.732,6.731-6.732c3.715,0,6.729,3.014,6.729,6.732
	C677.936,617.286,674.923,620.299,671.204,620.299z M671.204,568.299c-3.719,0-6.731-3.014-6.731-6.729
	c0-3.723,3.018-6.732,6.731-6.732c3.715,0,6.729,3.014,6.729,6.732C677.936,565.286,674.923,568.299,671.204,568.299z
	 M671.204,516.299c-3.719,0-6.731-3.014-6.731-6.729c0-3.723,3.018-6.732,6.731-6.732c3.715,0,6.729,3.014,6.729,6.732
	C677.936,513.286,674.923,516.299,671.204,516.299z M671.204,464.299c-3.719,0-6.731-3.014-6.731-6.729
	c0-3.723,3.018-6.732,6.731-6.732c3.715,0,6.729,3.014,6.729,6.732C677.936,461.286,674.923,464.299,671.204,464.299z
	 M671.204,412.299c-3.719,0-6.731-3.014-6.731-6.729c0-3.722,3.018-6.732,6.731-6.732c3.715,0,6.729,3.014,6.729,6.732
	C677.936,409.286,674.923,412.299,671.204,412.299z M671.204,360.299c-3.719,0-6.731-3.014-6.731-6.731
	c0-3.719,3.018-6.732,6.731-6.732c3.715,0,6.729,3.014,6.729,6.732C677.936,357.286,674.923,360.299,671.204,360.299z
	 M671.204,308.299c-3.719,0-6.731-3.014-6.731-6.732c0-3.718,3.018-6.732,6.731-6.732c3.715,0,6.729,3.014,6.729,6.732
	C677.936,305.286,674.923,308.299,671.204,308.299z M671.204,256.299c-3.719,0-6.731-3.014-6.731-6.732
	c0-3.718,3.018-6.732,6.731-6.732c3.715,0,6.729,3.014,6.729,6.732C677.936,253.286,674.923,256.299,671.204,256.299z
	 M671.204,204.299c-3.719,0-6.731-3.014-6.731-6.732c0-3.718,3.018-6.732,6.731-6.732c3.715,0,6.729,3.014,6.729,6.732
	C677.936,201.286,674.923,204.299,671.204,204.299z M671.204,152.299c-3.719,0-6.731-3.014-6.731-6.732
	c0-3.718,3.018-6.732,6.731-6.732c3.715,0,6.729,3.014,6.729,6.732C677.936,149.286,674.923,152.299,671.204,152.299z
	 M671.204,100.299c-3.719,0-6.731-3.014-6.731-6.732c0-3.718,3.018-6.732,6.731-6.732c3.715,0,6.729,3.014,6.729,6.732
	C677.936,97.286,674.923,100.299,671.204,100.299z M727.774,724.299c-3.723,0-6.732-3.014-6.732-6.729
	c0-3.723,3.015-6.732,6.732-6.732s6.729,3.014,6.729,6.732C734.507,721.286,731.493,724.299,727.774,724.299z M727.774,672.299
	c-3.723,0-6.732-3.014-6.732-6.729c0-3.723,3.015-6.732,6.732-6.732s6.729,3.014,6.729,6.732
	C734.507,669.286,731.493,672.299,727.774,672.299z M727.774,620.299c-3.723,0-6.732-3.014-6.732-6.729
	c0-3.723,3.015-6.732,6.732-6.732s6.729,3.014,6.729,6.732C734.507,617.286,731.493,620.299,727.774,620.299z M727.774,568.299
	c-3.723,0-6.732-3.014-6.732-6.729c0-3.723,3.015-6.732,6.732-6.732s6.729,3.014,6.729,6.732
	C734.507,565.286,731.493,568.299,727.774,568.299z M727.774,516.299c-3.723,0-6.732-3.014-6.732-6.729
	c0-3.723,3.015-6.732,6.732-6.732s6.729,3.014,6.729,6.732C734.507,513.286,731.493,516.299,727.774,516.299z M727.774,464.299
	c-3.723,0-6.732-3.014-6.732-6.729c0-3.723,3.015-6.732,6.732-6.732s6.729,3.014,6.729,6.732
	C734.507,461.286,731.493,464.299,727.774,464.299z M727.774,412.299c-3.723,0-6.732-3.014-6.732-6.729
	c0-3.722,3.015-6.732,6.732-6.732s6.729,3.014,6.729,6.732C734.507,409.286,731.493,412.299,727.774,412.299z M727.774,360.299
	c-3.723,0-6.732-3.014-6.732-6.731c0-3.719,3.015-6.732,6.732-6.732s6.729,3.014,6.729,6.732
	C734.507,357.286,731.493,360.299,727.774,360.299z M727.774,308.299c-3.723,0-6.732-3.014-6.732-6.732
	c0-3.718,3.015-6.732,6.732-6.732s6.729,3.014,6.729,6.732C734.507,305.286,731.493,308.299,727.774,308.299z M727.774,256.299
	c-3.723,0-6.732-3.014-6.732-6.732c0-3.718,3.015-6.732,6.732-6.732s6.729,3.014,6.729,6.732
	C734.507,253.286,731.493,256.299,727.774,256.299z M727.774,204.299c-3.723,0-6.732-3.014-6.732-6.732
	c0-3.718,3.015-6.732,6.732-6.732s6.729,3.014,6.729,6.732C734.507,201.286,731.493,204.299,727.774,204.299z M727.774,152.299
	c-3.723,0-6.732-3.014-6.732-6.732c0-3.718,3.015-6.732,6.732-6.732s6.729,3.014,6.729,6.732
	C734.507,149.286,731.493,152.299,727.774,152.299z M727.774,100.299c-3.723,0-6.732-3.014-6.732-6.732
	c0-3.718,3.015-6.732,6.732-6.732s6.729,3.014,6.729,6.732C734.507,97.286,731.493,100.299,727.774,100.299z M784.345,724.299
	c-3.72,0-6.729-3.014-6.729-6.729c0-3.723,3.015-6.732,6.729-6.732c3.718,0,6.731,3.014,6.731,6.732
	C791.077,721.286,788.062,724.299,784.345,724.299z M784.345,672.299c-3.72,0-6.729-3.014-6.729-6.729
	c0-3.723,3.015-6.732,6.729-6.732c3.718,0,6.731,3.014,6.731,6.732C791.077,669.286,788.062,672.299,784.345,672.299z
	 M784.345,620.299c-3.72,0-6.729-3.014-6.729-6.729c0-3.723,3.015-6.732,6.729-6.732c3.718,0,6.731,3.014,6.731,6.732
	C791.077,617.286,788.062,620.299,784.345,620.299z M784.345,568.299c-3.72,0-6.729-3.014-6.729-6.729
	c0-3.723,3.015-6.732,6.729-6.732c3.718,0,6.731,3.014,6.731,6.732C791.077,565.286,788.062,568.299,784.345,568.299z
	 M784.345,516.299c-3.72,0-6.729-3.014-6.729-6.729c0-3.723,3.015-6.732,6.729-6.732c3.718,0,6.731,3.014,6.731,6.732
	C791.077,513.286,788.062,516.299,784.345,516.299z M784.345,464.299c-3.72,0-6.729-3.014-6.729-6.729
	c0-3.723,3.015-6.732,6.729-6.732c3.718,0,6.731,3.014,6.731,6.732C791.077,461.286,788.062,464.299,784.345,464.299z
	 M784.345,412.299c-3.72,0-6.729-3.014-6.729-6.729c0-3.722,3.015-6.732,6.729-6.732c3.718,0,6.731,3.014,6.731,6.732
	C791.077,409.286,788.062,412.299,784.345,412.299z M784.345,346.836c3.717,0,6.73,3.014,6.73,6.731s-3.014,6.731-6.73,6.731
	c-3.718,0-6.731-3.014-6.731-6.731S780.628,346.836,784.345,346.836z M784.345,294.835c3.718,0,6.731,3.014,6.731,6.732
	c0,3.718-3.014,6.732-6.731,6.732s-6.732-3.014-6.732-6.732C777.613,297.849,780.628,294.835,784.345,294.835z M784.345,242.835
	c3.718,0,6.731,3.014,6.731,6.732c0,3.718-3.014,6.732-6.731,6.732s-6.732-3.014-6.732-6.732
	C777.613,245.849,780.628,242.835,784.345,242.835z M784.345,190.835c3.718,0,6.731,3.014,6.731,6.732
	c0,3.718-3.014,6.732-6.731,6.732s-6.732-3.014-6.732-6.732C777.613,193.849,780.628,190.835,784.345,190.835z M784.345,138.835
	c3.718,0,6.731,3.014,6.731,6.732c0,3.718-3.014,6.732-6.731,6.732s-6.732-3.014-6.732-6.732
	C777.613,141.849,780.628,138.835,784.345,138.835z M784.345,86.835c3.718,0,6.731,3.014,6.731,6.732
	c0,3.718-3.014,6.732-6.731,6.732s-6.732-3.014-6.732-6.732C777.613,89.849,780.628,86.835,784.345,86.835z M784.345,34.835
	c3.718,0,6.731,3.014,6.731,6.732c0,3.718-3.014,6.732-6.731,6.732s-6.732-3.014-6.732-6.732
	C777.613,37.849,780.628,34.835,784.345,34.835z M840.915,776.299c-3.719,0-6.731-3.014-6.731-6.729
	c0-3.723,3.018-6.732,6.731-6.732c3.715,0,6.731,3.014,6.731,6.732C847.646,773.286,844.635,776.299,840.915,776.299z
	 M840.915,724.299c-3.719,0-6.731-3.014-6.731-6.729c0-3.723,3.018-6.732,6.731-6.732c3.715,0,6.731,3.014,6.731,6.732
	C847.646,721.286,844.635,724.299,840.915,724.299z M840.915,672.299c-3.719,0-6.731-3.014-6.731-6.729
	c0-3.723,3.018-6.732,6.731-6.732c3.715,0,6.731,3.014,6.731,6.732C847.646,669.286,844.635,672.299,840.915,672.299z
	 M840.915,620.299c-3.719,0-6.731-3.014-6.731-6.729c0-3.723,3.018-6.732,6.731-6.732c3.715,0,6.731,3.014,6.731,6.732
	C847.646,617.286,844.635,620.299,840.915,620.299z M840.915,568.299c-3.719,0-6.731-3.014-6.731-6.729
	c0-3.723,3.018-6.732,6.731-6.732c3.715,0,6.731,3.014,6.731,6.732C847.646,565.286,844.635,568.299,840.915,568.299z
	 M840.915,516.299c-3.719,0-6.731-3.014-6.731-6.729c0-3.723,3.018-6.732,6.731-6.732c3.715,0,6.731,3.014,6.731,6.732
	C847.646,513.286,844.635,516.299,840.915,516.299z M840.915,464.299c-3.719,0-6.731-3.014-6.731-6.729
	c0-3.723,3.018-6.732,6.731-6.732c3.715,0,6.731,3.014,6.731,6.732C847.646,461.286,844.635,464.299,840.915,464.299z
	 M840.915,412.299c-3.719,0-6.731-3.014-6.731-6.729c0-3.722,3.018-6.732,6.731-6.732c3.715,0,6.731,3.014,6.731,6.732
	C847.646,409.286,844.635,412.299,840.915,412.299z M840.915,360.299c-3.719,0-6.731-3.014-6.731-6.731
	c0-3.719,3.018-6.732,6.731-6.732c3.715,0,6.731,3.014,6.731,6.732C847.646,357.286,844.635,360.299,840.915,360.299z
	 M840.915,308.299c-3.719,0-6.731-3.014-6.731-6.732c0-3.718,3.018-6.732,6.731-6.732c3.715,0,6.731,3.014,6.731,6.732
	C847.646,305.286,844.635,308.299,840.915,308.299z M840.915,256.299c-3.719,0-6.731-3.014-6.731-6.732
	c0-3.718,3.018-6.732,6.731-6.732c3.715,0,6.731,3.014,6.731,6.732C847.646,253.286,844.635,256.299,840.915,256.299z
	 M840.915,204.299c-3.719,0-6.731-3.014-6.731-6.732c0-3.718,3.018-6.732,6.731-6.732c3.715,0,6.731,3.014,6.731,6.732
	C847.646,201.286,844.635,204.299,840.915,204.299z M840.915,152.299c-3.719,0-6.731-3.014-6.731-6.732
	c0-3.718,3.018-6.732,6.731-6.732c3.715,0,6.731,3.014,6.731,6.732C847.646,149.286,844.635,152.299,840.915,152.299z
	 M840.915,100.299c-3.719,0-6.731-3.014-6.731-6.732c0-3.718,3.018-6.732,6.731-6.732c3.715,0,6.731,3.014,6.731,6.732
	C847.646,97.286,844.635,100.299,840.915,100.299z M840.915,48.299c-3.719,0-6.731-3.014-6.731-6.732
	c0-3.718,3.018-6.732,6.731-6.732c3.715,0,6.731,3.014,6.731,6.732C847.646,45.286,844.635,48.299,840.915,48.299z M897.485,776.299
	c-3.723,0-6.731-3.014-6.731-6.729c0-3.723,3.014-6.732,6.731-6.732s6.729,3.014,6.729,6.732
	C904.218,773.286,901.204,776.299,897.485,776.299z M897.485,724.299c-3.723,0-6.731-3.014-6.731-6.729
	c0-3.723,3.014-6.732,6.731-6.732s6.729,3.014,6.729,6.732C904.218,721.286,901.204,724.299,897.485,724.299z M897.485,672.299
	c-3.723,0-6.731-3.014-6.731-6.729c0-3.723,3.014-6.732,6.731-6.732s6.729,3.014,6.729,6.732
	C904.218,669.286,901.204,672.299,897.485,672.299z M897.485,620.299c-3.723,0-6.731-3.014-6.731-6.729
	c0-3.723,3.014-6.732,6.731-6.732s6.729,3.014,6.729,6.732C904.218,617.286,901.204,620.299,897.485,620.299z M897.485,568.299
	c-3.723,0-6.731-3.014-6.731-6.729c0-3.723,3.014-6.732,6.731-6.732s6.729,3.014,6.729,6.732
	C904.218,565.286,901.204,568.299,897.485,568.299z M897.485,516.299c-3.723,0-6.731-3.014-6.731-6.729
	c0-3.723,3.014-6.732,6.731-6.732s6.729,3.014,6.729,6.732C904.218,513.286,901.204,516.299,897.485,516.299z M897.485,464.299
	c-3.723,0-6.731-3.014-6.731-6.729c0-3.723,3.014-6.732,6.731-6.732s6.729,3.014,6.729,6.732
	C904.218,461.286,901.204,464.299,897.485,464.299z M897.485,412.299c-3.723,0-6.731-3.014-6.731-6.729
	c0-3.722,3.014-6.732,6.731-6.732s6.729,3.014,6.729,6.732C904.218,409.286,901.204,412.299,897.485,412.299z M897.485,360.299
	c-3.723,0-6.731-3.014-6.731-6.731c0-3.719,3.014-6.732,6.731-6.732s6.729,3.014,6.729,6.732
	C904.218,357.286,901.204,360.299,897.485,360.299z M897.485,308.299c-3.723,0-6.731-3.014-6.731-6.732
	c0-3.718,3.014-6.732,6.731-6.732s6.729,3.014,6.729,6.732C904.218,305.286,901.204,308.299,897.485,308.299z M897.485,256.299
	c-3.723,0-6.731-3.014-6.731-6.732c0-3.718,3.014-6.732,6.731-6.732s6.729,3.014,6.729,6.732
	C904.218,253.286,901.204,256.299,897.485,256.299z M954.056,828.299c-3.719,0-6.729-3.014-6.729-6.729
	c0-3.723,3.015-6.732,6.729-6.732c3.722,0,6.731,3.014,6.731,6.732C960.788,825.286,957.774,828.299,954.056,828.299z
	 M954.056,776.299c-3.719,0-6.729-3.014-6.729-6.729c0-3.723,3.015-6.732,6.729-6.732c3.722,0,6.731,3.014,6.731,6.732
	C960.788,773.286,957.774,776.299,954.056,776.299z M954.056,724.299c-3.719,0-6.729-3.014-6.729-6.729
	c0-3.723,3.015-6.732,6.729-6.732c3.722,0,6.731,3.014,6.731,6.732C960.788,721.286,957.774,724.299,954.056,724.299z
	 M954.056,672.299c-3.719,0-6.729-3.014-6.729-6.729c0-3.723,3.015-6.732,6.729-6.732c3.722,0,6.731,3.014,6.731,6.732
	C960.788,669.286,957.774,672.299,954.056,672.299z M954.056,620.299c-3.719,0-6.729-3.014-6.729-6.729
	c0-3.723,3.015-6.732,6.729-6.732c3.722,0,6.731,3.014,6.731,6.732C960.788,617.286,957.774,620.299,954.056,620.299z
	 M954.056,568.299c-3.719,0-6.729-3.014-6.729-6.729c0-3.723,3.015-6.732,6.729-6.732c3.722,0,6.731,3.014,6.731,6.732
	C960.788,565.286,957.774,568.299,954.056,568.299z M954.056,516.299c-3.719,0-6.729-3.014-6.729-6.729
	c0-3.723,3.015-6.732,6.729-6.732c3.722,0,6.731,3.014,6.731,6.732C960.788,513.286,957.774,516.299,954.056,516.299z
	 M954.056,464.299c-3.719,0-6.729-3.014-6.729-6.729c0-3.723,3.015-6.732,6.729-6.732c3.722,0,6.731,3.014,6.731,6.732
	C960.788,461.286,957.774,464.299,954.056,464.299z M954.056,412.299c-3.719,0-6.729-3.014-6.729-6.729
	c0-3.722,3.015-6.732,6.729-6.732c3.722,0,6.731,3.014,6.731,6.732C960.788,409.286,957.774,412.299,954.056,412.299z
	 M954.056,360.299c-3.719,0-6.729-3.014-6.729-6.731c0-3.719,3.015-6.732,6.729-6.732c3.722,0,6.731,3.014,6.731,6.732
	C960.788,357.286,957.774,360.299,954.056,360.299z M954.056,308.299c-3.719,0-6.729-3.014-6.729-6.732
	c0-3.718,3.015-6.732,6.729-6.732c3.722,0,6.731,3.014,6.731,6.732C960.788,305.286,957.774,308.299,954.056,308.299z
	 M954.056,256.299c-3.719,0-6.729-3.014-6.729-6.732c0-3.718,3.015-6.732,6.729-6.732c3.722,0,6.731,3.014,6.731,6.732
	C960.788,253.286,957.774,256.299,954.056,256.299z M1010.626,828.299c-3.719,0-6.731-3.014-6.731-6.729
	c0-3.723,3.018-6.732,6.731-6.732c3.715,0,6.732,3.014,6.732,6.732C1017.358,825.286,1014.345,828.299,1010.626,828.299z
	 M1010.626,776.299c-3.719,0-6.731-3.014-6.731-6.729c0-3.723,3.018-6.732,6.731-6.732c3.715,0,6.732,3.014,6.732,6.732
	C1017.358,773.286,1014.345,776.299,1010.626,776.299z M1010.626,724.299c-3.719,0-6.731-3.014-6.731-6.729
	c0-3.723,3.018-6.732,6.731-6.732c3.715,0,6.732,3.014,6.732,6.732C1017.358,721.286,1014.345,724.299,1010.626,724.299z
	 M1010.626,672.299c-3.719,0-6.731-3.014-6.731-6.729c0-3.723,3.018-6.732,6.731-6.732c3.715,0,6.732,3.014,6.732,6.732
	C1017.358,669.286,1014.345,672.299,1010.626,672.299z M1010.626,620.299c-3.719,0-6.731-3.014-6.731-6.729
	c0-3.723,3.018-6.732,6.731-6.732c3.715,0,6.732,3.014,6.732,6.732C1017.358,617.286,1014.345,620.299,1010.626,620.299z
	 M1010.626,568.299c-3.719,0-6.731-3.014-6.731-6.729c0-3.723,3.018-6.732,6.731-6.732c3.715,0,6.732,3.014,6.732,6.732
	C1017.358,565.286,1014.345,568.299,1010.626,568.299z M1010.626,516.299c-3.719,0-6.731-3.014-6.731-6.729
	c0-3.723,3.018-6.732,6.731-6.732c3.715,0,6.732,3.014,6.732,6.732C1017.358,513.286,1014.345,516.299,1010.626,516.299z
	 M1010.626,464.299c-3.719,0-6.731-3.014-6.731-6.729c0-3.723,3.018-6.732,6.731-6.732c3.715,0,6.732,3.014,6.732,6.732
	C1017.358,461.286,1014.345,464.299,1010.626,464.299z M1010.626,412.299c-3.719,0-6.731-3.014-6.731-6.729
	c0-3.722,3.018-6.732,6.731-6.732c3.715,0,6.732,3.014,6.732,6.732C1017.358,409.286,1014.345,412.299,1010.626,412.299z
	 M1010.626,360.299c-3.719,0-6.731-3.014-6.731-6.731c0-3.719,3.018-6.732,6.731-6.732c3.715,0,6.732,3.014,6.732,6.732
	C1017.358,357.286,1014.345,360.299,1010.626,360.299z M1010.626,308.299c-3.719,0-6.731-3.014-6.731-6.732
	c0-3.718,3.018-6.732,6.731-6.732c3.715,0,6.732,3.014,6.732,6.732C1017.358,305.286,1014.345,308.299,1010.626,308.299z
	 M1010.626,256.299c-3.719,0-6.731-3.014-6.731-6.732c0-3.718,3.018-6.732,6.731-6.732c3.715,0,6.732,3.014,6.732,6.732
	C1017.358,253.286,1014.345,256.299,1010.626,256.299z M1067.196,776.299c-3.72,0-6.731-3.014-6.731-6.729
	c0-3.723,3.015-6.732,6.731-6.732s6.729,3.014,6.729,6.732C1073.928,773.286,1070.915,776.299,1067.196,776.299z M1067.196,724.299
	c-3.72,0-6.731-3.014-6.731-6.729c0-3.723,3.015-6.732,6.731-6.732s6.729,3.014,6.729,6.732
	C1073.928,721.286,1070.915,724.299,1067.196,724.299z M1067.196,672.299c-3.72,0-6.731-3.014-6.731-6.729
	c0-3.723,3.015-6.732,6.731-6.732s6.729,3.014,6.729,6.732C1073.928,669.286,1070.915,672.299,1067.196,672.299z M1067.196,620.299
	c-3.72,0-6.731-3.014-6.731-6.729c0-3.723,3.015-6.732,6.731-6.732s6.729,3.014,6.729,6.732
	C1073.928,617.286,1070.915,620.299,1067.196,620.299z M1067.196,568.299c-3.72,0-6.731-3.014-6.731-6.729
	c0-3.723,3.015-6.732,6.731-6.732s6.729,3.014,6.729,6.732C1073.928,565.286,1070.915,568.299,1067.196,568.299z M1067.196,516.299
	c-3.72,0-6.731-3.014-6.731-6.729c0-3.723,3.015-6.732,6.731-6.732s6.729,3.014,6.729,6.732
	C1073.928,513.286,1070.915,516.299,1067.196,516.299z M1067.196,464.299c-3.72,0-6.731-3.014-6.731-6.729
	c0-3.723,3.015-6.732,6.731-6.732s6.729,3.014,6.729,6.732C1073.928,461.286,1070.915,464.299,1067.196,464.299z M1067.196,412.299
	c-3.72,0-6.731-3.014-6.731-6.729c0-3.722,3.015-6.732,6.731-6.732s6.729,3.014,6.729,6.732
	C1073.928,409.286,1070.915,412.299,1067.196,412.299z M1067.196,360.299c-3.72,0-6.731-3.014-6.731-6.731
	c0-3.719,3.015-6.732,6.731-6.732s6.729,3.014,6.729,6.732C1073.928,357.286,1070.915,360.299,1067.196,360.299z M1067.196,308.299
	c-3.72,0-6.731-3.014-6.731-6.732c0-3.718,3.015-6.732,6.731-6.732s6.729,3.014,6.729,6.732
	C1073.928,305.286,1070.915,308.299,1067.196,308.299z M1123.767,776.299c-3.719,0-6.729-3.014-6.729-6.729
	c0-3.723,3.015-6.732,6.729-6.732c3.722,0,6.731,3.014,6.731,6.732C1130.499,773.286,1127.485,776.299,1123.767,776.299z
	 M1123.767,724.299c-3.719,0-6.729-3.014-6.729-6.729c0-3.723,3.015-6.732,6.729-6.732c3.722,0,6.731,3.014,6.731,6.732
	C1130.499,721.286,1127.485,724.299,1123.767,724.299z M1123.767,672.299c-3.719,0-6.729-3.014-6.729-6.729
	c0-3.723,3.015-6.732,6.729-6.732c3.722,0,6.731,3.014,6.731,6.732C1130.499,669.286,1127.485,672.299,1123.767,672.299z
	 M1123.767,620.299c-3.719,0-6.729-3.014-6.729-6.729c0-3.723,3.015-6.732,6.729-6.732c3.722,0,6.731,3.014,6.731,6.732
	C1130.499,617.286,1127.485,620.299,1123.767,620.299z M1123.767,568.299c-3.719,0-6.729-3.014-6.729-6.729
	c0-3.723,3.015-6.732,6.729-6.732c3.722,0,6.731,3.014,6.731,6.732C1130.499,565.286,1127.485,568.299,1123.767,568.299z
	 M1123.767,516.299c-3.719,0-6.729-3.014-6.729-6.729c0-3.723,3.015-6.732,6.729-6.732c3.722,0,6.731,3.014,6.731,6.732
	C1130.499,513.286,1127.485,516.299,1123.767,516.299z M1123.767,464.299c-3.719,0-6.729-3.014-6.729-6.729
	c0-3.723,3.015-6.732,6.729-6.732c3.722,0,6.731,3.014,6.731,6.732C1130.499,461.286,1127.485,464.299,1123.767,464.299z
	 M1123.767,412.299c-3.719,0-6.729-3.014-6.729-6.729c0-3.722,3.015-6.732,6.729-6.732c3.722,0,6.731,3.014,6.731,6.732
	C1130.499,409.286,1127.485,412.299,1123.767,412.299z M1123.767,360.299c-3.719,0-6.729-3.014-6.729-6.731
	c0-3.719,3.015-6.732,6.729-6.732c3.722,0,6.731,3.014,6.731,6.732C1130.499,357.286,1127.485,360.299,1123.767,360.299z
	 M1180.338,776.299c-3.72,0-6.729-3.014-6.729-6.729c0-3.723,3.014-6.732,6.729-6.732c3.715,0,6.731,3.014,6.731,6.732
	C1187.069,773.286,1184.056,776.299,1180.338,776.299z M1180.338,724.299c-3.72,0-6.729-3.014-6.729-6.729
	c0-3.723,3.014-6.732,6.729-6.732c3.715,0,6.731,3.014,6.731,6.732C1187.069,721.286,1184.056,724.299,1180.338,724.299z
	 M1180.338,672.299c-3.72,0-6.729-3.014-6.729-6.729c0-3.723,3.014-6.732,6.729-6.732c3.715,0,6.731,3.014,6.731,6.732
	C1187.069,669.286,1184.056,672.299,1180.338,672.299z M1180.338,620.299c-3.72,0-6.729-3.014-6.729-6.729
	c0-3.723,3.014-6.732,6.729-6.732c3.715,0,6.731,3.014,6.731,6.732C1187.069,617.286,1184.056,620.299,1180.338,620.299z
	 M1180.338,568.299c-3.72,0-6.729-3.014-6.729-6.729c0-3.723,3.014-6.732,6.729-6.732c3.715,0,6.731,3.014,6.731,6.732
	C1187.069,565.286,1184.056,568.299,1180.338,568.299z M1180.338,516.299c-3.72,0-6.729-3.014-6.729-6.729
	c0-3.723,3.014-6.732,6.729-6.732c3.715,0,6.731,3.014,6.731,6.732C1187.069,513.286,1184.056,516.299,1180.338,516.299z
	 M1180.338,464.299c-3.72,0-6.729-3.014-6.729-6.729c0-3.723,3.014-6.732,6.729-6.732c3.715,0,6.731,3.014,6.731,6.732
	C1187.069,461.286,1184.056,464.299,1180.338,464.299z M1236.907,724.299c-3.72,0-6.731-3.014-6.731-6.729
	c0-3.723,3.015-6.732,6.731-6.732s6.729,3.014,6.729,6.732C1243.639,721.286,1240.626,724.299,1236.907,724.299z M1236.907,672.299
	c-3.72,0-6.731-3.014-6.731-6.729c0-3.723,3.015-6.732,6.731-6.732s6.729,3.014,6.729,6.732
	C1243.639,669.286,1240.626,672.299,1236.907,672.299z M1236.907,620.299c-3.72,0-6.731-3.014-6.731-6.729
	c0-3.723,3.015-6.732,6.731-6.732s6.729,3.014,6.729,6.732C1243.639,617.286,1240.626,620.299,1236.907,620.299z M1236.907,568.299
	c-3.72,0-6.731-3.014-6.731-6.729c0-3.723,3.015-6.732,6.731-6.732s6.729,3.014,6.729,6.732
	C1243.639,565.286,1240.626,568.299,1236.907,568.299z M1236.907,516.299c-3.72,0-6.731-3.014-6.731-6.729
	c0-3.723,3.015-6.732,6.731-6.732s6.729,3.014,6.729,6.732C1243.639,513.286,1240.626,516.299,1236.907,516.299z M1293.479,724.299
	c-3.72,0-6.729-3.014-6.729-6.729c0-3.723,3.014-6.732,6.729-6.732c3.721,0,6.73,3.014,6.73,6.732
	C1300.21,721.286,1297.196,724.299,1293.479,724.299z M1293.479,672.299c-3.72,0-6.729-3.014-6.729-6.729
	c0-3.723,3.014-6.732,6.729-6.732c3.721,0,6.73,3.014,6.73,6.732C1300.21,669.286,1297.196,672.299,1293.479,672.299z
	 M1293.479,620.299c-3.72,0-6.729-3.014-6.729-6.729c0-3.723,3.014-6.732,6.729-6.732c3.721,0,6.73,3.014,6.73,6.732
	C1300.21,617.286,1297.196,620.299,1293.479,620.299z M1293.479,568.299c-3.72,0-6.729-3.014-6.729-6.729
	c0-3.723,3.014-6.732,6.729-6.732c3.721,0,6.73,3.014,6.73,6.732C1300.21,565.286,1297.196,568.299,1293.479,568.299z
	 M1350.049,672.299c-3.72,0-6.729-3.014-6.729-6.729c0-3.723,3.014-6.732,6.729-6.732c3.715,0,6.731,3.014,6.731,6.732
	C1356.78,669.286,1353.767,672.299,1350.049,672.299z M1382.613,687.771c-0.214-0.477-0.462-0.944-0.765-1.404
	c-0.371-0.563-0.817-1.247-1.511-1.43c-0.476-0.125-2.115,0.144-2.348,0.627c-8.012,16.729-26.68,27.947-43.005,34.908
	l-100.243,42.734c-0.33,0.109-0.649,0.246-0.955,0.404l-207.486,88.451c-8.701,3.709-17.779,7.439-27.006,9.604
	c-5.992,1.4-11.854,1.986-17.959,0.941c-8.644-1.482-17.488-6.123-25.404-9.812L590.126,682.23
	c-26.98-12.577-55.384-29.069-85.996-29.094c-53.5-0.035-107.117,2.844-160.129,10.24c-44.968,6.274-89.641,15.84-132.738,30.236
	c-10.331,3.444-20.491,7.379-30.562,11.522c-8.586,3.535-17.103,7.242-25.736,10.666c-13.09,5.189-28.066,10.516-42.346,9.078
	c-12.87-1.291-23.322-7.822-32.542-16.551c-1.404-1.33-4.673-4.57-3.452-6.76c1.085-1.951,5.215-2.244,7.171-2.533
	c23.023-3.463,45.062-12.734,59.513-31.674c20.025-26.257,18.907-62.017,11.418-92.568c-1.021-4.16-1.712-9.569,2.009-12.631
	c2.613-2.152,6.892-2.729,10.035-3.941c7.5-2.891,15.053-5.643,22.639-8.301c29.577-10.373,59.575-19.52,88.971-30.418
	c3.149-1.166,6.263-2.451,9.214-4.055c6.919-3.771,13.048-9.438,10.595-18.125l-4.139-14.668
	c-1.477-5.232-7.448-9.916-11.881-12.765c-6.828-4.381-14.769-7.65-22.569-9.84c-8.788-2.464-19.188-4-28.229-2.312l-105.334,19.636
	c-12.705,2.371-15.436,1.381-21.548-10.123c-3.269-6.154-9.168-13.664-14.664-17.936c-22.485-17.493-48.181-29.948-71.861-45.604
	c-6.102-4.034-12.455-10.101-14.035-17.524L0.26,368.934c-1.423-6.686,3.173-15.622,9.52-18.226l594.895-244.114
	c36.277-14.886,71.966-31.783,105.695-51.831c13.064-7.766,25.855-16.027,38.097-25.042c9.694-7.136,19.11-14.756,27.709-23.189
	c3.7-3.635,9.854-7.673,15.299-6.232c27.336,7.224,53.832,17.322,79.274,29.628c1.483,0.716,4.174,2.585,3.604,4.546
	c-5.884,20.241-8.599,41.124-7.612,62.199c1.838,39.272,16.416,75.924,37.617,108.653c1.23,1.903,2.988,3.6,4.846,4.891
	c2.955,2.048,7.089,3.651,10.603,2.142l67.979-29.233c6.142-2.644,14.625,0.717,18.857,5.465
	c127.488,142.846,248.041,291.817,362.198,445.516c6.373,8.584,11.525,18.575,12.813,29.144c0.532,0.832,0.733,1.995,1.688,2.484
	c0.721,0.369,2.035,0.053,2.646-0.386c0.9-0.644,1.421-1.76,1.987-2.676c1.255-2.032,2.932-3.548,4.699-5.123
	c3.513-3.132,7.735-5.438,12.297-6.652c2.661-0.709,5.416-1.075,8.172-1.075c17.222,0,31.182,13.96,31.182,31.181
	s-13.96,31.181-31.182,31.181c-2.723,0-5.712-0.604-8.348-1.249c-2.688-0.655-5.272-1.674-7.659-3.071
	c-4.752-2.783-8.653-6.913-11.199-11.791c-0.707-1.354-1.312-2.758-1.856-4.184C1383.547,690.481,1383.212,689.099,1382.613,687.771
	z"/>
</svg>
