<?xml version="1.0" encoding="utf-8"?>
<!-- Generator: Adobe Illustrator 16.0.0, SVG Export Plug-In . SVG Version: 6.00 Build 0)  -->
<!DOCTYPE svg PUBLIC "-//W3C//DTD SVG 1.1//EN" "http://www.w3.org/Graphics/SVG/1.1/DTD/svg11.dtd">
<svg version="1.1" id="Layer_1" xmlns="http://www.w3.org/2000/svg" xmlns:xlink="http://www.w3.org/1999/xlink" x="0px" y="0px"
	 width="2890.138px" height="1155.104px" viewBox="0 0 2890.138 1155.104" enable-background="new 0 0 2890.138 1155.104"
	 xml:space="preserve">
<path fill="none" stroke="#020203" stroke-linejoin="round" stroke-miterlimit="10" d="M2889.226,836.377l-7.662-55.379
	c-2.641-19.066-19.678-25.041-37.147-21.084l-413.781,93.646c-11.694,2.65-12.748,8.324-12.646,18.162l0.193,19.836
	c0.08,8.166-3.054,10.793-11.484,13.396c-38.064,11.731-77.326,1.326-104.396-16.812c-12.957-8.684-4.229-14.42-0.447-19.438
	l16.595-22.031c5.393-7.164,3.631-16.877-4.021-22.711l-117.779-89.84c-8.278-6.314-9.36,7.826-11.944,13.158
	c-7.295,15.037-39.99,43.508-81.404,60.803l-301.597,125.945c-4.508,1.885-4.928,6.321-0.851,8.635l216.642,122.649
	c56.824,32.174,115.271,59.263,196.844,57.779c129.084-2.336,279.102,11.615,421.398,30.287
	c16.344,2.145,28.818,5.213,40.975-27.084c22.734-60.416,52.318-104.328,84.463-141.885c36.43-42.566,76.357-76.775,117.188-114.041
	C2887.375,862.147,2890.925,848.649,2889.226,836.377z"/>
<path fill="none" stroke="#020203" stroke-linejoin="round" stroke-miterlimit="10" d="M1393.978,155.104
	c18.339-7.77,36.522-15.909,54.396-24.705c15.66-7.71,31.104-15.917,45.984-25.056c20.313-12.476,45.084-29.94,57.881-50.401
	c0.055-0.092,0.129-0.212,0.205-0.347c-0.558-0.182-1.138-0.329-1.453-0.402c-37.441-8.715-75.355-14.49-113.812-15.808
	c-53.96-1.846-107.266,5.153-160.104,15.523c-33.162,6.51-66.066,14.25-98.861,22.386c-40.389,10.016-80.619,20.649-120.843,31.307
	C707.183,203.622,356.647,298.504,8.22,400.794c-2.565,0.754-7.938,2.964-7.713,6.306c0.124,1.851,1.86,3.412,3.36,4.257
	c3.322,1.87,7.562,1.899,11.208,1.138c84.394-17.672,168.715-35.731,253.414-51.912c87.839-16.781,176.1-31.534,264.896-42.238
	c42.975-5.179,87.222-2.733,129.812,4.526c32.055,5.464,63.688,13.752,94.312,24.671c27.483,9.797,54.401,21.767,79.674,36.398
	L1393.978,155.104z"/>
<path fill="none" stroke="#020203" stroke-linejoin="round" stroke-miterlimit="10" d="M1802.95,249.88
	c-4.236-4.748-12.718-8.109-18.861-5.465l-67.979,29.233c-3.517,1.509-7.65-0.094-10.604-2.142
	c-1.854-1.291-3.613-2.988-4.846-4.891c-21.201-32.729-35.779-69.381-37.617-108.653c-0.983-21.075,1.729-41.958,7.615-62.199
	c0.569-1.961-2.123-3.83-3.604-4.546c-25.44-12.306-51.938-22.404-79.272-29.628c-5.447-1.441-11.6,2.597-15.299,6.232
	c-8.601,8.434-18.017,16.054-27.709,23.19c-12.24,9.015-25.031,17.276-38.099,25.042c-33.729,20.048-69.418,36.945-105.694,51.831
	L806.085,411.998c-6.347,2.604-10.94,11.54-9.519,18.226l3.668,17.258c1.58,7.427,7.934,13.491,14.034,17.525
	c23.681,15.654,49.377,28.109,71.858,45.599c5.496,4.275,11.396,11.785,14.664,17.938c6.111,11.504,8.843,12.494,21.548,10.123
	l105.333-19.635c9.041-1.688,19.441-0.152,28.229,2.312c7.801,2.188,15.738,5.459,22.566,9.84
	c4.436,2.846,10.404,7.531,11.881,12.761l4.142,14.67c2.453,8.688-3.676,14.356-10.594,18.125c-2.952,1.604-6.065,2.89-9.218,4.056
	c-29.396,10.896-59.394,20.045-88.971,30.418c-7.586,2.658-15.139,5.41-22.639,8.301c-3.146,1.213-7.422,1.789-10.035,3.941
	c-3.721,3.061-3.029,8.471-2.009,12.631c7.489,30.553,8.604,66.311-11.418,92.565c-14.45,18.941-36.489,28.212-59.514,31.677
	c-1.956,0.289-6.088,0.582-7.173,2.53c-1.221,2.191,2.051,5.433,3.451,6.763c9.222,8.729,19.673,15.26,32.543,16.551
	c14.279,1.435,29.256-3.889,42.348-9.078c8.635-3.424,17.148-7.131,25.734-10.666c10.07-4.146,20.23-8.078,30.562-11.526
	c43.098-14.396,87.771-23.961,132.736-30.234c53.014-7.398,106.629-10.275,160.129-10.24c30.611,0.023,59.017,16.517,85.994,29.092
	l365.811,170.566c7.916,3.689,16.758,8.33,25.4,9.812c6.104,1.046,11.971,0.459,17.959-0.94c9.229-2.164,18.309-5.896,27.01-9.604
	l207.484-88.452c0.309-0.158,0.625-0.296,0.955-0.404l100.241-42.734c19.399-8.27,42.104-22.553,46.312-44.942
	c2.819-15.033-3.653-29.572-12.455-41.425C2050.991,541.696,1930.437,392.723,1802.95,249.88z M845.238,473.589
	c-3.721,0-6.732-3.014-6.732-6.732c0-3.718,3.016-6.729,6.732-6.729s6.729,3.014,6.729,6.729
	C851.969,470.575,848.957,473.589,845.238,473.589z M845.238,421.589c-3.721,0-6.732-3.014-6.732-6.732
	c0-3.718,3.016-6.73,6.732-6.73s6.729,3.014,6.729,6.73C851.969,418.574,848.957,421.589,845.238,421.589z M901.808,473.589
	c-3.721,0-6.73-3.014-6.73-6.732c0-3.718,3.014-6.729,6.73-6.729c3.72,0,6.73,3.014,6.73,6.729
	C908.54,470.575,905.527,473.589,901.808,473.589z M901.808,421.589c-3.721,0-6.73-3.014-6.73-6.732c0-3.718,3.014-6.73,6.73-6.73
	c3.72,0,6.73,3.014,6.73,6.73C908.54,418.574,905.527,421.589,901.808,421.589z M958.377,473.589c-3.719,0-6.729-3.014-6.729-6.732
	c0-3.718,3.015-6.729,6.729-6.729s6.732,3.014,6.732,6.729C965.11,470.575,962.096,473.589,958.377,473.589z M958.377,421.589
	c-3.719,0-6.729-3.014-6.729-6.732c0-3.718,3.015-6.73,6.729-6.73s6.732,3.014,6.732,6.73
	C965.11,418.574,962.096,421.589,958.377,421.589z M1014.949,473.589c-3.719,0-6.732-3.014-6.732-6.732
	c0-3.718,3.016-6.729,6.732-6.729s6.729,3.014,6.729,6.729C1021.681,470.575,1018.667,473.589,1014.949,473.589z M1014.949,421.589
	c-3.719,0-6.732-3.014-6.732-6.732c0-3.718,3.016-6.73,6.732-6.73s6.729,3.014,6.729,6.73
	C1021.681,418.574,1018.667,421.589,1014.949,421.589z M1014.949,369.589c-3.719,0-6.732-3.014-6.732-6.732
	c0-3.718,3.016-6.73,6.732-6.73s6.729,3.014,6.729,6.73C1021.681,366.574,1018.667,369.589,1014.949,369.589z M1071.519,473.589
	c-3.722,0-6.731-3.014-6.731-6.732c0-3.718,3.015-6.729,6.731-6.729c3.719,0,6.729,3.014,6.729,6.729
	C1078.25,470.575,1075.238,473.589,1071.519,473.589z M1071.519,421.589c-3.722,0-6.731-3.014-6.731-6.732
	c0-3.718,3.015-6.73,6.731-6.73c3.719,0,6.729,3.014,6.729,6.73C1078.25,418.574,1075.238,421.589,1071.519,421.589z
	 M1071.519,369.589c-3.722,0-6.731-3.014-6.731-6.732c0-3.718,3.015-6.73,6.731-6.73c3.719,0,6.729,3.014,6.729,6.73
	C1078.25,366.574,1075.238,369.589,1071.519,369.589z M958.377,752.642c-3.719,0-6.729-3.014-6.729-6.729
	c0-3.722,3.015-6.732,6.729-6.732s6.732,3.017,6.732,6.732S962.096,752.642,958.377,752.642z M1014.949,733.589
	c-3.719,0-6.732-3.014-6.732-6.732c0-3.718,3.016-6.729,6.732-6.729s6.729,3.014,6.729,6.729
	C1021.681,730.576,1018.667,733.589,1014.949,733.589z M1014.949,681.589c-3.719,0-6.732-3.014-6.732-6.732
	c0-3.718,3.016-6.729,6.732-6.729s6.729,3.014,6.729,6.729C1021.681,678.576,1018.667,681.589,1014.949,681.589z M1014.949,629.589
	c-3.719,0-6.732-3.014-6.732-6.732c0-3.718,3.016-6.729,6.732-6.729s6.729,3.014,6.729,6.729
	C1021.681,626.576,1018.667,629.589,1014.949,629.589z M1071.519,681.589c-3.722,0-6.731-3.014-6.731-6.732
	c0-3.718,3.015-6.729,6.731-6.729c3.719,0,6.729,3.014,6.729,6.729C1078.25,678.576,1075.238,681.589,1071.519,681.589z
	 M1071.519,629.589c-3.722,0-6.731-3.014-6.731-6.732c0-3.718,3.015-6.729,6.731-6.729c3.719,0,6.729,3.014,6.729,6.729
	C1078.25,626.576,1075.238,629.589,1071.519,629.589z M1128.088,681.589c-3.719,0-6.729-3.014-6.729-6.732
	c0-3.718,3.014-6.729,6.729-6.729s6.732,3.014,6.732,6.729C1134.821,678.576,1131.808,681.589,1128.088,681.589z M1128.088,629.589
	c-3.719,0-6.729-3.014-6.729-6.732c0-3.718,3.014-6.729,6.729-6.729s6.732,3.014,6.732,6.729
	C1134.821,626.576,1131.808,629.589,1128.088,629.589z M1128.088,577.589c-3.719,0-6.729-3.014-6.729-6.732
	c0-3.718,3.014-6.729,6.729-6.729s6.732,3.014,6.732,6.729C1134.821,574.575,1131.808,577.589,1128.088,577.589z M1128.088,525.589
	c-3.719,0-6.729-3.014-6.729-6.732c0-3.718,3.014-6.729,6.729-6.729s6.732,3.014,6.732,6.729
	C1134.821,522.575,1131.808,525.589,1128.088,525.589z M1128.088,473.589c-3.719,0-6.729-3.014-6.729-6.732
	c0-3.718,3.014-6.729,6.729-6.729s6.732,3.014,6.732,6.729C1134.821,470.575,1131.808,473.589,1128.088,473.589z M1128.088,421.589
	c-3.719,0-6.729-3.014-6.729-6.732c0-3.718,3.014-6.73,6.729-6.73s6.732,3.014,6.732,6.73
	C1134.821,418.574,1131.808,421.589,1128.088,421.589z M1128.088,369.589c-3.719,0-6.729-3.014-6.729-6.732
	c0-3.718,3.014-6.73,6.729-6.73s6.732,3.014,6.732,6.73C1134.821,366.574,1131.808,369.589,1128.088,369.589z M1128.088,317.589
	c-3.719,0-6.729-3.014-6.729-6.732c0-3.718,3.014-6.732,6.729-6.732s6.732,3.014,6.732,6.732
	C1134.821,314.574,1131.808,317.589,1128.088,317.589z M1184.66,681.589c-3.719,0-6.732-3.014-6.732-6.732
	c0-3.718,3.018-6.729,6.732-6.729s6.732,3.014,6.732,6.729C1191.392,678.576,1188.377,681.589,1184.66,681.589z M1184.66,629.589
	c-3.719,0-6.732-3.014-6.732-6.732c0-3.718,3.018-6.729,6.732-6.729s6.732,3.014,6.732,6.729
	C1191.392,626.576,1188.377,629.589,1184.66,629.589z M1184.66,577.589c-3.719,0-6.732-3.014-6.732-6.732
	c0-3.718,3.018-6.729,6.732-6.729s6.732,3.014,6.732,6.729C1191.392,574.575,1188.377,577.589,1184.66,577.589z M1184.66,525.589
	c-3.719,0-6.732-3.014-6.732-6.732c0-3.718,3.018-6.729,6.732-6.729s6.732,3.014,6.732,6.729
	C1191.392,522.575,1188.377,525.589,1184.66,525.589z M1184.66,473.589c-3.719,0-6.732-3.014-6.732-6.732
	c0-3.718,3.018-6.729,6.732-6.729s6.732,3.014,6.732,6.729C1191.392,470.575,1188.377,473.589,1184.66,473.589z M1184.66,421.589
	c-3.719,0-6.732-3.014-6.732-6.732c0-3.718,3.018-6.73,6.732-6.73s6.732,3.014,6.732,6.73
	C1191.392,418.574,1188.377,421.589,1184.66,421.589z M1184.66,369.589c-3.719,0-6.732-3.014-6.732-6.732
	c0-3.718,3.018-6.73,6.732-6.73s6.732,3.014,6.732,6.73C1191.392,366.574,1188.377,369.589,1184.66,369.589z M1184.66,317.589
	c-3.719,0-6.732-3.014-6.732-6.732c0-3.718,3.018-6.732,6.732-6.732s6.732,3.014,6.732,6.732
	C1191.392,314.574,1188.377,317.589,1184.66,317.589z M1241.23,681.589c-3.723,0-6.732-3.014-6.732-6.732
	c0-3.718,3.014-6.729,6.732-6.729c3.718,0,6.729,3.014,6.729,6.729C1247.961,678.576,1244.949,681.589,1241.23,681.589z
	 M1241.23,629.589c-3.723,0-6.732-3.014-6.732-6.732c0-3.718,3.014-6.729,6.732-6.729c3.718,0,6.729,3.014,6.729,6.729
	C1247.961,626.576,1244.949,629.589,1241.23,629.589z M1241.23,577.589c-3.723,0-6.732-3.014-6.732-6.732
	c0-3.718,3.014-6.729,6.732-6.729c3.718,0,6.729,3.014,6.729,6.729C1247.961,574.575,1244.949,577.589,1241.23,577.589z
	 M1241.23,525.589c-3.723,0-6.732-3.014-6.732-6.732c0-3.718,3.014-6.729,6.732-6.729c3.718,0,6.729,3.014,6.729,6.729
	C1247.961,522.575,1244.949,525.589,1241.23,525.589z M1241.23,473.589c-3.723,0-6.732-3.014-6.732-6.732
	c0-3.718,3.014-6.729,6.732-6.729c3.718,0,6.729,3.014,6.729,6.729C1247.961,470.575,1244.949,473.589,1241.23,473.589z
	 M1241.23,421.589c-3.723,0-6.732-3.014-6.732-6.732c0-3.718,3.014-6.73,6.732-6.73c3.718,0,6.729,3.014,6.729,6.73
	C1247.961,418.574,1244.949,421.589,1241.23,421.589z M1241.23,369.589c-3.723,0-6.732-3.014-6.732-6.732
	c0-3.718,3.014-6.73,6.732-6.73c3.718,0,6.729,3.014,6.729,6.73C1247.961,366.574,1244.949,369.589,1241.23,369.589z
	 M1241.23,317.589c-3.723,0-6.732-3.014-6.732-6.732c0-3.718,3.014-6.732,6.732-6.732c3.718,0,6.729,3.014,6.729,6.732
	C1247.961,314.574,1244.949,317.589,1241.23,317.589z M1241.23,265.589c-3.723,0-6.732-3.014-6.732-6.732
	c0-3.718,3.014-6.732,6.732-6.732c3.718,0,6.729,3.014,6.729,6.732C1247.961,262.574,1244.949,265.589,1241.23,265.589z
	 M1297.799,681.589c-3.719,0-6.729-3.014-6.729-6.732c0-3.718,3.014-6.729,6.729-6.729s6.732,3.014,6.732,6.729
	C1304.532,678.576,1301.519,681.589,1297.799,681.589z M1297.799,629.589c-3.719,0-6.729-3.014-6.729-6.732
	c0-3.718,3.014-6.729,6.729-6.729s6.732,3.014,6.732,6.729C1304.532,626.576,1301.519,629.589,1297.799,629.589z M1297.799,577.589
	c-3.719,0-6.729-3.014-6.729-6.732c0-3.718,3.014-6.729,6.729-6.729s6.732,3.014,6.732,6.729
	C1304.532,574.575,1301.519,577.589,1297.799,577.589z M1297.799,525.589c-3.719,0-6.729-3.014-6.729-6.732
	c0-3.718,3.014-6.729,6.729-6.729s6.732,3.014,6.732,6.729C1304.532,522.575,1301.519,525.589,1297.799,525.589z M1297.799,473.589
	c-3.719,0-6.729-3.014-6.729-6.732c0-3.718,3.014-6.729,6.729-6.729s6.732,3.014,6.732,6.729
	C1304.532,470.575,1301.519,473.589,1297.799,473.589z M1297.799,421.589c-3.719,0-6.729-3.014-6.729-6.732
	c0-3.718,3.014-6.73,6.729-6.73s6.732,3.014,6.732,6.73C1304.532,418.574,1301.519,421.589,1297.799,421.589z M1297.799,369.589
	c-3.719,0-6.729-3.014-6.729-6.732c0-3.718,3.014-6.73,6.729-6.73s6.732,3.014,6.732,6.73
	C1304.532,366.574,1301.519,369.589,1297.799,369.589z M1297.799,317.589c-3.719,0-6.729-3.014-6.729-6.732
	c0-3.718,3.014-6.732,6.729-6.732s6.732,3.014,6.732,6.732C1304.532,314.574,1301.519,317.589,1297.799,317.589z M1297.799,265.589
	c-3.719,0-6.729-3.014-6.729-6.732c0-3.718,3.014-6.732,6.729-6.732s6.732,3.014,6.732,6.732
	C1304.532,262.574,1301.519,265.589,1297.799,265.589z M1354.371,681.589c-3.719,0-6.732-3.014-6.732-6.732
	c0-3.718,3.018-6.729,6.732-6.729s6.732,3.014,6.732,6.729C1361.103,678.576,1358.088,681.589,1354.371,681.589z M1354.371,629.589
	c-3.719,0-6.732-3.014-6.732-6.732c0-3.718,3.018-6.729,6.732-6.729s6.732,3.014,6.732,6.729
	C1361.103,626.576,1358.088,629.589,1354.371,629.589z M1354.371,577.589c-3.719,0-6.732-3.014-6.732-6.732
	c0-3.718,3.018-6.729,6.732-6.729s6.732,3.014,6.732,6.729C1361.103,574.575,1358.088,577.589,1354.371,577.589z M1354.371,525.589
	c-3.719,0-6.732-3.014-6.732-6.732c0-3.718,3.018-6.729,6.732-6.729s6.732,3.014,6.732,6.729
	C1361.103,522.575,1358.088,525.589,1354.371,525.589z M1354.371,473.589c-3.719,0-6.732-3.014-6.732-6.732
	c0-3.718,3.018-6.729,6.732-6.729s6.732,3.014,6.732,6.729C1361.103,470.575,1358.088,473.589,1354.371,473.589z M1354.371,421.589
	c-3.719,0-6.732-3.014-6.732-6.732c0-3.718,3.018-6.73,6.732-6.73s6.732,3.014,6.732,6.73
	C1361.103,418.574,1358.088,421.589,1354.371,421.589z M1354.371,369.589c-3.719,0-6.732-3.014-6.732-6.732
	c0-3.718,3.018-6.73,6.732-6.73s6.732,3.014,6.732,6.73C1361.103,366.574,1358.088,369.589,1354.371,369.589z M1354.371,317.589
	c-3.719,0-6.732-3.014-6.732-6.732c0-3.718,3.018-6.732,6.732-6.732s6.732,3.014,6.732,6.732
	C1361.103,314.574,1358.088,317.589,1354.371,317.589z M1354.371,265.589c-3.719,0-6.732-3.014-6.732-6.732
	c0-3.718,3.018-6.732,6.732-6.732s6.732,3.014,6.732,6.732C1361.103,262.574,1358.088,265.589,1354.371,265.589z M1354.371,213.589
	c-3.719,0-6.732-3.014-6.732-6.732c0-3.718,3.018-6.732,6.732-6.732s6.732,3.014,6.732,6.732
	C1361.103,210.574,1358.088,213.589,1354.371,213.589z M1410.941,733.589c-3.721,0-6.732-3.014-6.732-6.732
	c0-3.718,3.014-6.729,6.732-6.729c3.718,0,6.729,3.014,6.729,6.729C1417.672,730.576,1414.66,733.589,1410.941,733.589z
	 M1410.941,681.589c-3.721,0-6.732-3.014-6.732-6.732c0-3.718,3.014-6.729,6.732-6.729c3.718,0,6.729,3.014,6.729,6.729
	C1417.672,678.576,1414.66,681.589,1410.941,681.589z M1410.941,629.589c-3.721,0-6.732-3.014-6.732-6.732
	c0-3.718,3.014-6.729,6.732-6.729c3.718,0,6.729,3.014,6.729,6.729C1417.672,626.576,1414.66,629.589,1410.941,629.589z
	 M1410.941,577.589c-3.721,0-6.732-3.014-6.732-6.732c0-3.718,3.014-6.729,6.732-6.729c3.718,0,6.729,3.014,6.729,6.729
	C1417.672,574.575,1414.66,577.589,1410.941,577.589z M1410.941,525.589c-3.721,0-6.732-3.014-6.732-6.732
	c0-3.718,3.014-6.729,6.732-6.729c3.718,0,6.729,3.014,6.729,6.729C1417.672,522.575,1414.66,525.589,1410.941,525.589z
	 M1410.941,473.589c-3.721,0-6.732-3.014-6.732-6.732c0-3.718,3.014-6.729,6.732-6.729c3.718,0,6.729,3.014,6.729,6.729
	C1417.672,470.575,1414.66,473.589,1410.941,473.589z M1410.941,421.589c-3.721,0-6.732-3.014-6.732-6.732
	c0-3.718,3.014-6.73,6.732-6.73c3.718,0,6.729,3.014,6.729,6.73C1417.672,418.574,1414.66,421.589,1410.941,421.589z
	 M1410.941,369.589c-3.721,0-6.732-3.014-6.732-6.732c0-3.718,3.014-6.73,6.732-6.73c3.718,0,6.729,3.014,6.729,6.73
	C1417.672,366.574,1414.66,369.589,1410.941,369.589z M1410.941,317.589c-3.721,0-6.732-3.014-6.732-6.732
	c0-3.718,3.014-6.732,6.732-6.732c3.718,0,6.729,3.014,6.729,6.732C1417.672,314.574,1414.66,317.589,1410.941,317.589z
	 M1410.941,265.589c-3.721,0-6.732-3.014-6.732-6.732c0-3.718,3.014-6.732,6.732-6.732c3.718,0,6.729,3.014,6.729,6.732
	C1417.672,262.574,1414.66,265.589,1410.941,265.589z M1410.941,213.589c-3.721,0-6.732-3.014-6.732-6.732
	c0-3.718,3.014-6.732,6.732-6.732c3.718,0,6.729,3.014,6.729,6.732C1417.672,210.574,1414.66,213.589,1410.941,213.589z
	 M1467.511,733.589c-3.719,0-6.729-3.014-6.729-6.732c0-3.718,3.014-6.729,6.729-6.729c3.721,0,6.732,3.014,6.732,6.729
	C1474.245,730.576,1471.23,733.589,1467.511,733.589z M1467.511,681.589c-3.719,0-6.729-3.014-6.729-6.732
	c0-3.718,3.014-6.729,6.729-6.729c3.721,0,6.732,3.014,6.732,6.729C1474.245,678.576,1471.23,681.589,1467.511,681.589z
	 M1467.511,629.589c-3.719,0-6.729-3.014-6.729-6.732c0-3.718,3.014-6.729,6.729-6.729c3.721,0,6.732,3.014,6.732,6.729
	C1474.245,626.576,1471.23,629.589,1467.511,629.589z M1467.511,577.589c-3.719,0-6.729-3.014-6.729-6.732
	c0-3.718,3.014-6.729,6.729-6.729c3.721,0,6.732,3.014,6.732,6.729C1474.245,574.575,1471.23,577.589,1467.511,577.589z
	 M1467.511,525.589c-3.719,0-6.729-3.014-6.729-6.732c0-3.718,3.014-6.729,6.729-6.729c3.721,0,6.732,3.014,6.732,6.729
	C1474.245,522.575,1471.23,525.589,1467.511,525.589z M1467.511,473.589c-3.719,0-6.729-3.014-6.729-6.732
	c0-3.718,3.014-6.729,6.729-6.729c3.721,0,6.732,3.014,6.732,6.729C1474.245,470.575,1471.23,473.589,1467.511,473.589z
	 M1467.511,421.589c-3.719,0-6.729-3.014-6.729-6.732c0-3.718,3.014-6.73,6.729-6.73c3.721,0,6.732,3.014,6.732,6.73
	C1474.245,418.574,1471.23,421.589,1467.511,421.589z M1467.511,369.589c-3.719,0-6.729-3.014-6.729-6.732
	c0-3.718,3.014-6.73,6.729-6.73c3.721,0,6.732,3.014,6.732,6.73C1474.245,366.574,1471.23,369.589,1467.511,369.589z
	 M1467.511,317.589c-3.719,0-6.729-3.014-6.729-6.732c0-3.718,3.014-6.732,6.729-6.732c3.721,0,6.732,3.014,6.732,6.732
	C1474.245,314.574,1471.23,317.589,1467.511,317.589z M1467.511,265.589c-3.719,0-6.729-3.014-6.729-6.732
	c0-3.718,3.014-6.732,6.729-6.732c3.721,0,6.732,3.014,6.732,6.732C1474.245,262.574,1471.23,265.589,1467.511,265.589z
	 M1467.511,213.589c-3.719,0-6.729-3.014-6.729-6.732c0-3.718,3.014-6.732,6.729-6.732c3.721,0,6.732,3.014,6.732,6.732
	C1474.245,210.574,1471.23,213.589,1467.511,213.589z M1467.511,161.589c-3.719,0-6.729-3.014-6.729-6.732
	c0-3.718,3.014-6.732,6.729-6.732c3.721,0,6.732,3.014,6.732,6.732C1474.245,158.574,1471.23,161.589,1467.511,161.589z
	 M1524.083,785.589c-3.719,0-6.73-3.014-6.73-6.732c0-3.718,3.015-6.729,6.73-6.729s6.732,3.014,6.732,6.729
	C1530.814,782.576,1527.8,785.589,1524.083,785.589z M1524.083,733.589c-3.719,0-6.73-3.014-6.73-6.732
	c0-3.718,3.015-6.729,6.73-6.729s6.732,3.014,6.732,6.729C1530.814,730.576,1527.8,733.589,1524.083,733.589z M1524.083,681.589
	c-3.719,0-6.73-3.014-6.73-6.732c0-3.718,3.015-6.729,6.73-6.729s6.732,3.014,6.732,6.729
	C1530.814,678.576,1527.8,681.589,1524.083,681.589z M1524.083,629.589c-3.719,0-6.73-3.014-6.73-6.732
	c0-3.718,3.015-6.729,6.73-6.729s6.732,3.014,6.732,6.729C1530.814,626.576,1527.8,629.589,1524.083,629.589z M1524.083,577.589
	c-3.719,0-6.73-3.014-6.73-6.732c0-3.718,3.015-6.729,6.73-6.729s6.732,3.014,6.732,6.729
	C1530.814,574.575,1527.8,577.589,1524.083,577.589z M1524.083,525.589c-3.719,0-6.73-3.014-6.73-6.732
	c0-3.718,3.015-6.729,6.73-6.729s6.732,3.014,6.732,6.729C1530.814,522.575,1527.8,525.589,1524.083,525.589z M1524.083,473.589
	c-3.719,0-6.73-3.014-6.73-6.732c0-3.718,3.015-6.729,6.73-6.729s6.732,3.014,6.732,6.729
	C1530.814,470.575,1527.8,473.589,1524.083,473.589z M1524.083,421.589c-3.719,0-6.73-3.014-6.73-6.732
	c0-3.718,3.015-6.73,6.73-6.73s6.732,3.014,6.732,6.73C1530.814,418.574,1527.8,421.589,1524.083,421.589z M1524.083,369.589
	c-3.719,0-6.73-3.014-6.73-6.732c0-3.718,3.015-6.73,6.73-6.73s6.732,3.014,6.732,6.73
	C1530.814,366.574,1527.8,369.589,1524.083,369.589z M1524.083,317.589c-3.719,0-6.73-3.014-6.73-6.732
	c0-3.718,3.015-6.732,6.73-6.732s6.732,3.014,6.732,6.732C1530.814,314.574,1527.8,317.589,1524.083,317.589z M1524.083,265.589
	c-3.719,0-6.73-3.014-6.73-6.732c0-3.718,3.015-6.732,6.73-6.732s6.732,3.014,6.732,6.732
	C1530.814,262.574,1527.8,265.589,1524.083,265.589z M1524.083,213.589c-3.719,0-6.73-3.014-6.73-6.732
	c0-3.718,3.015-6.732,6.73-6.732s6.732,3.014,6.732,6.732C1530.814,210.574,1527.8,213.589,1524.083,213.589z M1524.083,161.589
	c-3.719,0-6.73-3.014-6.73-6.732c0-3.718,3.015-6.732,6.73-6.732s6.732,3.014,6.732,6.732
	C1530.814,158.574,1527.8,161.589,1524.083,161.589z M1580.653,785.589c-3.724,0-6.732-3.014-6.732-6.732
	c0-3.718,3.015-6.729,6.732-6.729c3.717,0,6.729,3.014,6.729,6.729C1587.382,782.576,1584.372,785.589,1580.653,785.589z
	 M1580.653,733.589c-3.724,0-6.732-3.014-6.732-6.732c0-3.718,3.015-6.729,6.732-6.729c3.717,0,6.729,3.014,6.729,6.729
	C1587.382,730.576,1584.372,733.589,1580.653,733.589z M1580.653,681.589c-3.724,0-6.732-3.014-6.732-6.732
	c0-3.718,3.015-6.729,6.732-6.729c3.717,0,6.729,3.014,6.729,6.729C1587.382,678.576,1584.372,681.589,1580.653,681.589z
	 M1580.653,629.589c-3.724,0-6.732-3.014-6.732-6.732c0-3.718,3.015-6.729,6.732-6.729c3.717,0,6.729,3.014,6.729,6.729
	C1587.382,626.576,1584.372,629.589,1580.653,629.589z M1580.653,577.589c-3.724,0-6.732-3.014-6.732-6.732
	c0-3.718,3.015-6.729,6.732-6.729c3.717,0,6.729,3.014,6.729,6.729C1587.382,574.575,1584.372,577.589,1580.653,577.589z
	 M1580.653,525.589c-3.724,0-6.732-3.014-6.732-6.732c0-3.718,3.015-6.729,6.732-6.729c3.717,0,6.729,3.014,6.729,6.729
	C1587.382,522.575,1584.372,525.589,1580.653,525.589z M1580.653,473.589c-3.724,0-6.732-3.014-6.732-6.732
	c0-3.718,3.015-6.729,6.732-6.729c3.717,0,6.729,3.014,6.729,6.729C1587.382,470.575,1584.372,473.589,1580.653,473.589z
	 M1580.653,421.589c-3.724,0-6.732-3.014-6.732-6.732c0-3.718,3.015-6.73,6.732-6.73c3.717,0,6.729,3.014,6.729,6.73
	C1587.382,418.574,1584.372,421.589,1580.653,421.589z M1580.653,369.589c-3.724,0-6.732-3.014-6.732-6.732
	c0-3.718,3.015-6.73,6.732-6.73c3.717,0,6.729,3.014,6.729,6.73C1587.382,366.574,1584.372,369.589,1580.653,369.589z
	 M1580.653,317.589c-3.724,0-6.732-3.014-6.732-6.732c0-3.718,3.015-6.732,6.732-6.732c3.717,0,6.729,3.014,6.729,6.732
	C1587.382,314.574,1584.372,317.589,1580.653,317.589z M1580.653,265.589c-3.724,0-6.732-3.014-6.732-6.732
	c0-3.718,3.015-6.732,6.732-6.732c3.717,0,6.729,3.014,6.729,6.732C1587.382,262.574,1584.372,265.589,1580.653,265.589z
	 M1580.653,213.589c-3.724,0-6.732-3.014-6.732-6.732c0-3.718,3.015-6.732,6.732-6.732c3.717,0,6.729,3.014,6.729,6.732
	C1587.382,210.574,1584.372,213.589,1580.653,213.589z M1580.653,161.589c-3.724,0-6.732-3.014-6.732-6.732
	c0-3.718,3.015-6.732,6.732-6.732c3.717,0,6.729,3.014,6.729,6.732C1587.382,158.574,1584.372,161.589,1580.653,161.589z
	 M1580.653,109.589c-3.724,0-6.732-3.014-6.732-6.732c0-3.718,3.015-6.732,6.732-6.732c3.717,0,6.729,3.014,6.729,6.732
	C1587.382,106.574,1584.372,109.589,1580.653,109.589z M1637.222,837.589c-3.719,0-6.729-3.014-6.729-6.732
	c0-3.718,3.014-6.729,6.729-6.729c3.721,0,6.732,3.014,6.732,6.729C1643.956,834.576,1640.942,837.589,1637.222,837.589z
	 M1637.222,785.589c-3.719,0-6.729-3.014-6.729-6.732c0-3.718,3.014-6.729,6.729-6.729c3.721,0,6.732,3.014,6.732,6.729
	C1643.956,782.576,1640.942,785.589,1637.222,785.589z M1637.222,733.589c-3.719,0-6.729-3.014-6.729-6.732
	c0-3.718,3.014-6.729,6.729-6.729c3.721,0,6.732,3.014,6.732,6.729C1643.956,730.576,1640.942,733.589,1637.222,733.589z
	 M1637.222,681.589c-3.719,0-6.729-3.014-6.729-6.732c0-3.718,3.014-6.729,6.729-6.729c3.721,0,6.732,3.014,6.732,6.729
	C1643.956,678.576,1640.942,681.589,1637.222,681.589z M1637.222,629.589c-3.719,0-6.729-3.014-6.729-6.732
	c0-3.718,3.014-6.729,6.729-6.729c3.721,0,6.732,3.014,6.732,6.729C1643.956,626.576,1640.942,629.589,1637.222,629.589z
	 M1637.222,577.589c-3.719,0-6.729-3.014-6.729-6.732c0-3.718,3.014-6.729,6.729-6.729c3.721,0,6.732,3.014,6.732,6.729
	C1643.956,574.575,1640.942,577.589,1637.222,577.589z M1637.222,525.589c-3.719,0-6.729-3.014-6.729-6.732
	c0-3.718,3.014-6.729,6.729-6.729c3.721,0,6.732,3.014,6.732,6.729C1643.956,522.575,1640.942,525.589,1637.222,525.589z
	 M1637.222,473.589c-3.719,0-6.729-3.014-6.729-6.732c0-3.718,3.014-6.729,6.729-6.729c3.721,0,6.732,3.014,6.732,6.729
	C1643.956,470.575,1640.942,473.589,1637.222,473.589z M1637.222,421.589c-3.719,0-6.729-3.014-6.729-6.732
	c0-3.718,3.014-6.73,6.729-6.73c3.721,0,6.732,3.014,6.732,6.73C1643.956,418.574,1640.942,421.589,1637.222,421.589z
	 M1637.222,369.589c-3.719,0-6.729-3.014-6.729-6.732c0-3.718,3.014-6.73,6.729-6.73c3.721,0,6.732,3.014,6.732,6.73
	C1643.956,366.574,1640.942,369.589,1637.222,369.589z M1637.222,317.589c-3.719,0-6.729-3.014-6.729-6.732
	c0-3.718,3.014-6.732,6.729-6.732c3.721,0,6.732,3.014,6.732,6.732C1643.956,314.574,1640.942,317.589,1637.222,317.589z
	 M1637.222,265.589c-3.719,0-6.729-3.014-6.729-6.732c0-3.718,3.014-6.732,6.729-6.732c3.721,0,6.732,3.014,6.732,6.732
	C1643.956,262.574,1640.942,265.589,1637.222,265.589z M1637.222,213.589c-3.719,0-6.729-3.014-6.729-6.732
	c0-3.718,3.014-6.732,6.729-6.732c3.721,0,6.732,3.014,6.732,6.732C1643.956,210.574,1640.942,213.589,1637.222,213.589z
	 M1637.222,161.589c-3.719,0-6.729-3.014-6.729-6.732c0-3.718,3.014-6.732,6.729-6.732c3.721,0,6.732,3.014,6.732,6.732
	C1643.956,158.574,1640.942,161.589,1637.222,161.589z M1637.222,109.589c-3.719,0-6.729-3.014-6.729-6.732
	c0-3.718,3.014-6.732,6.729-6.732c3.721,0,6.732,3.014,6.732,6.732C1643.956,106.574,1640.942,109.589,1637.222,109.589z
	 M1693.792,837.589c-3.719,0-6.732-3.014-6.732-6.732c0-3.718,3.017-6.729,6.732-6.729s6.732,3.014,6.732,6.729
	C1700.526,834.576,1697.511,837.589,1693.792,837.589z M1693.792,785.589c-3.719,0-6.732-3.014-6.732-6.732
	c0-3.718,3.017-6.729,6.732-6.729s6.732,3.014,6.732,6.729C1700.526,782.576,1697.511,785.589,1693.792,785.589z M1693.792,733.589
	c-3.719,0-6.732-3.014-6.732-6.732c0-3.718,3.017-6.729,6.732-6.729s6.732,3.014,6.732,6.729
	C1700.526,730.576,1697.511,733.589,1693.792,733.589z M1693.792,681.589c-3.719,0-6.732-3.014-6.732-6.732
	c0-3.718,3.017-6.729,6.732-6.729s6.732,3.014,6.732,6.729C1700.526,678.576,1697.511,681.589,1693.792,681.589z M1693.792,629.589
	c-3.719,0-6.732-3.014-6.732-6.732c0-3.718,3.017-6.729,6.732-6.729s6.732,3.014,6.732,6.729
	C1700.526,626.576,1697.511,629.589,1693.792,629.589z M1693.792,577.589c-3.719,0-6.732-3.014-6.732-6.732
	c0-3.718,3.017-6.729,6.732-6.729s6.732,3.014,6.732,6.729C1700.526,574.575,1697.511,577.589,1693.792,577.589z M1693.792,525.589
	c-3.719,0-6.732-3.014-6.732-6.732c0-3.718,3.017-6.729,6.732-6.729s6.732,3.014,6.732,6.729
	C1700.526,522.575,1697.511,525.589,1693.792,525.589z M1693.792,473.589c-3.719,0-6.732-3.014-6.732-6.732
	c0-3.718,3.017-6.729,6.732-6.729s6.732,3.014,6.732,6.729C1700.526,470.575,1697.511,473.589,1693.792,473.589z M1693.792,421.589
	c-3.719,0-6.732-3.014-6.732-6.732c0-3.718,3.017-6.73,6.732-6.73s6.732,3.014,6.732,6.73
	C1700.526,418.574,1697.511,421.589,1693.792,421.589z M1693.792,369.589c-3.719,0-6.732-3.014-6.732-6.732
	c0-3.718,3.017-6.73,6.732-6.73s6.732,3.014,6.732,6.73C1700.526,366.574,1697.511,369.589,1693.792,369.589z M1693.792,317.589
	c-3.719,0-6.732-3.014-6.732-6.732c0-3.718,3.017-6.732,6.732-6.732s6.732,3.014,6.732,6.732
	C1700.526,314.574,1697.511,317.589,1693.792,317.589z M1750.364,889.589c-3.72,0-6.732-3.014-6.732-6.732
	c0-3.718,3.017-6.729,6.732-6.729s6.729,3.014,6.729,6.729C1757.093,886.576,1754.083,889.589,1750.364,889.589z M1750.364,837.589
	c-3.72,0-6.732-3.014-6.732-6.732c0-3.718,3.017-6.729,6.732-6.729s6.729,3.014,6.729,6.729
	C1757.093,834.576,1754.083,837.589,1750.364,837.589z M1750.364,785.589c-3.72,0-6.732-3.014-6.732-6.732
	c0-3.718,3.017-6.729,6.732-6.729s6.729,3.014,6.729,6.729C1757.093,782.576,1754.083,785.589,1750.364,785.589z M1750.364,733.589
	c-3.72,0-6.732-3.014-6.732-6.732c0-3.718,3.017-6.729,6.732-6.729s6.729,3.014,6.729,6.729
	C1757.093,730.576,1754.083,733.589,1750.364,733.589z M1750.364,681.589c-3.72,0-6.732-3.014-6.732-6.732
	c0-3.718,3.017-6.729,6.732-6.729s6.729,3.014,6.729,6.729C1757.093,678.576,1754.083,681.589,1750.364,681.589z M1750.364,629.589
	c-3.72,0-6.732-3.014-6.732-6.732c0-3.718,3.017-6.729,6.732-6.729s6.729,3.014,6.729,6.729
	C1757.093,626.576,1754.083,629.589,1750.364,629.589z M1750.364,577.589c-3.72,0-6.732-3.014-6.732-6.732
	c0-3.718,3.017-6.729,6.732-6.729s6.729,3.014,6.729,6.729C1757.093,574.575,1754.083,577.589,1750.364,577.589z M1750.364,525.589
	c-3.72,0-6.732-3.014-6.732-6.732c0-3.718,3.017-6.729,6.732-6.729s6.729,3.014,6.729,6.729
	C1757.093,522.575,1754.083,525.589,1750.364,525.589z M1750.364,473.589c-3.72,0-6.732-3.014-6.732-6.732
	c0-3.718,3.017-6.729,6.732-6.729s6.729,3.014,6.729,6.729C1757.093,470.575,1754.083,473.589,1750.364,473.589z M1750.364,421.589
	c-3.72,0-6.732-3.014-6.732-6.732c0-3.718,3.017-6.73,6.732-6.73s6.729,3.014,6.729,6.73
	C1757.093,418.574,1754.083,421.589,1750.364,421.589z M1750.364,369.589c-3.72,0-6.732-3.014-6.732-6.732
	c0-3.718,3.017-6.73,6.732-6.73s6.729,3.014,6.729,6.73C1757.093,366.574,1754.083,369.589,1750.364,369.589z M1750.364,317.589
	c-3.72,0-6.732-3.014-6.732-6.732c0-3.718,3.017-6.732,6.732-6.732s6.729,3.014,6.729,6.732
	C1757.093,314.574,1754.083,317.589,1750.364,317.589z M1806.933,889.589c-3.721,0-6.731-3.014-6.731-6.732
	c0-3.718,3.014-6.729,6.731-6.729c3.719,0,6.73,3.014,6.73,6.729C1813.667,886.576,1810.653,889.589,1806.933,889.589z
	 M1806.933,837.589c-3.721,0-6.731-3.014-6.731-6.732c0-3.718,3.014-6.729,6.731-6.729c3.719,0,6.73,3.014,6.73,6.729
	C1813.667,834.576,1810.653,837.589,1806.933,837.589z M1806.933,785.589c-3.721,0-6.731-3.014-6.731-6.732
	c0-3.718,3.014-6.729,6.731-6.729c3.719,0,6.73,3.014,6.73,6.729C1813.667,782.576,1810.653,785.589,1806.933,785.589z
	 M1806.933,733.589c-3.721,0-6.731-3.014-6.731-6.732c0-3.718,3.014-6.729,6.731-6.729c3.719,0,6.73,3.014,6.73,6.729
	C1813.667,730.576,1810.653,733.589,1806.933,733.589z M1806.933,681.589c-3.721,0-6.731-3.014-6.731-6.732
	c0-3.718,3.014-6.729,6.731-6.729c3.719,0,6.73,3.014,6.73,6.729C1813.667,678.576,1810.653,681.589,1806.933,681.589z
	 M1806.933,629.589c-3.721,0-6.731-3.014-6.731-6.732c0-3.718,3.014-6.729,6.731-6.729c3.719,0,6.73,3.014,6.73,6.729
	C1813.667,626.576,1810.653,629.589,1806.933,629.589z M1806.933,577.589c-3.721,0-6.731-3.014-6.731-6.732
	c0-3.718,3.014-6.729,6.731-6.729c3.719,0,6.73,3.014,6.73,6.729C1813.667,574.575,1810.653,577.589,1806.933,577.589z
	 M1806.933,525.589c-3.721,0-6.731-3.014-6.731-6.732c0-3.718,3.014-6.729,6.731-6.729c3.719,0,6.73,3.014,6.73,6.729
	C1813.667,522.575,1810.653,525.589,1806.933,525.589z M1806.933,473.589c-3.721,0-6.731-3.014-6.731-6.732
	c0-3.718,3.014-6.729,6.731-6.729c3.719,0,6.73,3.014,6.73,6.729C1813.667,470.575,1810.653,473.589,1806.933,473.589z
	 M1806.933,421.589c-3.721,0-6.731-3.014-6.731-6.732c0-3.718,3.014-6.73,6.731-6.73c3.719,0,6.73,3.014,6.73,6.73
	C1813.667,418.574,1810.653,421.589,1806.933,421.589z M1806.933,369.589c-3.721,0-6.731-3.014-6.731-6.732
	c0-3.718,3.014-6.73,6.731-6.73c3.719,0,6.73,3.014,6.73,6.73C1813.667,366.574,1810.653,369.589,1806.933,369.589z
	 M1806.933,317.589c-3.721,0-6.731-3.014-6.731-6.732c0-3.718,3.014-6.732,6.731-6.732c3.719,0,6.73,3.014,6.73,6.732
	C1813.667,314.574,1810.653,317.589,1806.933,317.589z M1863.503,837.589c-3.719,0-6.73-3.014-6.73-6.732
	c0-3.718,3.015-6.729,6.73-6.729s6.732,3.014,6.732,6.729C1870.237,834.576,1867.222,837.589,1863.503,837.589z M1863.503,785.589
	c-3.719,0-6.73-3.014-6.73-6.732c0-3.718,3.015-6.729,6.73-6.729s6.732,3.014,6.732,6.729
	C1870.237,782.576,1867.222,785.589,1863.503,785.589z M1863.503,733.589c-3.719,0-6.73-3.014-6.73-6.732
	c0-3.718,3.015-6.729,6.73-6.729s6.732,3.014,6.732,6.729C1870.237,730.576,1867.222,733.589,1863.503,733.589z M1863.503,681.589
	c-3.719,0-6.73-3.014-6.73-6.732c0-3.718,3.015-6.729,6.73-6.729s6.732,3.014,6.732,6.729
	C1870.237,678.576,1867.222,681.589,1863.503,681.589z M1863.503,629.589c-3.719,0-6.73-3.014-6.73-6.732
	c0-3.718,3.015-6.729,6.73-6.729s6.732,3.014,6.732,6.729C1870.237,626.576,1867.222,629.589,1863.503,629.589z M1863.503,577.589
	c-3.719,0-6.73-3.014-6.73-6.732c0-3.718,3.015-6.729,6.73-6.729s6.732,3.014,6.732,6.729
	C1870.237,574.575,1867.222,577.589,1863.503,577.589z M1863.503,525.589c-3.719,0-6.73-3.014-6.73-6.732
	c0-3.718,3.015-6.729,6.73-6.729s6.732,3.014,6.732,6.729C1870.237,522.575,1867.222,525.589,1863.503,525.589z M1863.503,473.589
	c-3.719,0-6.73-3.014-6.73-6.732c0-3.718,3.015-6.729,6.73-6.729s6.732,3.014,6.732,6.729
	C1870.237,470.575,1867.222,473.589,1863.503,473.589z M1863.503,421.589c-3.719,0-6.73-3.014-6.73-6.732
	c0-3.718,3.015-6.73,6.73-6.73s6.732,3.014,6.732,6.73C1870.237,418.574,1867.222,421.589,1863.503,421.589z M1863.503,369.589
	c-3.719,0-6.73-3.014-6.73-6.732c0-3.718,3.015-6.73,6.73-6.73s6.732,3.014,6.732,6.73
	C1870.237,366.574,1867.222,369.589,1863.503,369.589z M1920.075,837.589c-3.72,0-6.732-3.014-6.732-6.732
	c0-3.718,3.017-6.729,6.732-6.729s6.729,3.014,6.729,6.729C1926.804,834.576,1923.792,837.589,1920.075,837.589z M1920.075,785.589
	c-3.72,0-6.732-3.014-6.732-6.732c0-3.718,3.017-6.729,6.732-6.729s6.729,3.014,6.729,6.729
	C1926.804,782.576,1923.792,785.589,1920.075,785.589z M1920.075,733.589c-3.72,0-6.732-3.014-6.732-6.732
	c0-3.718,3.017-6.729,6.732-6.729s6.729,3.014,6.729,6.729C1926.804,730.576,1923.792,733.589,1920.075,733.589z M1920.075,681.589
	c-3.72,0-6.732-3.014-6.732-6.732c0-3.718,3.017-6.729,6.732-6.729s6.729,3.014,6.729,6.729
	C1926.804,678.576,1923.792,681.589,1920.075,681.589z M1920.075,629.589c-3.72,0-6.732-3.014-6.732-6.732
	c0-3.718,3.017-6.729,6.732-6.729s6.729,3.014,6.729,6.729C1926.804,626.576,1923.792,629.589,1920.075,629.589z M1920.075,577.589
	c-3.72,0-6.732-3.014-6.732-6.732c0-3.718,3.017-6.729,6.732-6.729s6.729,3.014,6.729,6.729
	C1926.804,574.575,1923.792,577.589,1920.075,577.589z M1920.075,525.589c-3.72,0-6.732-3.014-6.732-6.732
	c0-3.718,3.017-6.729,6.732-6.729s6.729,3.014,6.729,6.729C1926.804,522.575,1923.792,525.589,1920.075,525.589z M1920.075,473.589
	c-3.72,0-6.732-3.014-6.732-6.732c0-3.718,3.017-6.729,6.732-6.729s6.729,3.014,6.729,6.729
	C1926.804,470.575,1923.792,473.589,1920.075,473.589z M1920.075,421.589c-3.72,0-6.732-3.014-6.732-6.732
	c0-3.718,3.017-6.73,6.732-6.73s6.729,3.014,6.729,6.73C1926.804,418.574,1923.792,421.589,1920.075,421.589z M1976.644,837.589
	c-3.721,0-6.731-3.014-6.731-6.732c0-3.718,3.015-6.729,6.731-6.729c3.719,0,6.73,3.014,6.73,6.729
	C1983.376,834.576,1980.364,837.589,1976.644,837.589z M1976.644,785.589c-3.721,0-6.731-3.014-6.731-6.732
	c0-3.718,3.015-6.729,6.731-6.729c3.719,0,6.73,3.014,6.73,6.729C1983.376,782.576,1980.364,785.589,1976.644,785.589z
	 M1976.644,733.589c-3.721,0-6.731-3.014-6.731-6.732c0-3.718,3.015-6.729,6.731-6.729c3.719,0,6.73,3.014,6.73,6.729
	C1983.376,730.576,1980.364,733.589,1976.644,733.589z M1976.644,681.589c-3.721,0-6.731-3.014-6.731-6.732
	c0-3.718,3.015-6.729,6.731-6.729c3.719,0,6.73,3.014,6.73,6.729C1983.376,678.576,1980.364,681.589,1976.644,681.589z
	 M1976.644,629.589c-3.721,0-6.731-3.014-6.731-6.732c0-3.718,3.015-6.729,6.731-6.729c3.719,0,6.73,3.014,6.73,6.729
	C1983.376,626.576,1980.364,629.589,1976.644,629.589z M1976.644,577.589c-3.721,0-6.731-3.014-6.731-6.732
	c0-3.718,3.015-6.729,6.731-6.729c3.719,0,6.73,3.014,6.73,6.729C1983.376,574.575,1980.364,577.589,1976.644,577.589z
	 M1976.644,525.589c-3.721,0-6.731-3.014-6.731-6.732c0-3.718,3.015-6.729,6.731-6.729c3.719,0,6.73,3.014,6.73,6.729
	C1983.376,522.575,1980.364,525.589,1976.644,525.589z M2033.214,785.589c-3.719,0-6.73-3.014-6.73-6.732
	c0-3.718,3.015-6.729,6.73-6.729c3.717,0,6.732,3.014,6.732,6.729C2039.948,782.576,2036.933,785.589,2033.214,785.589z
	 M2033.214,733.589c-3.719,0-6.73-3.014-6.73-6.732c0-3.718,3.015-6.729,6.73-6.729c3.717,0,6.732,3.014,6.732,6.729
	C2039.948,730.576,2036.933,733.589,2033.214,733.589z M2033.214,681.589c-3.719,0-6.73-3.014-6.73-6.732
	c0-3.718,3.015-6.729,6.73-6.729c3.717,0,6.732,3.014,6.732,6.729C2039.948,678.576,2036.933,681.589,2033.214,681.589z
	 M2033.214,629.589c-3.719,0-6.73-3.014-6.73-6.732c0-3.718,3.015-6.729,6.73-6.729c3.717,0,6.732,3.014,6.732,6.729
	C2039.948,626.576,2036.933,629.589,2033.214,629.589z M2033.214,577.589c-3.719,0-6.73-3.014-6.73-6.732
	c0-3.718,3.015-6.729,6.73-6.729c3.717,0,6.732,3.014,6.732,6.729C2039.948,574.575,2036.933,577.589,2033.214,577.589z
	 M2089.786,785.589c-3.72,0-6.731-3.014-6.731-6.732c0-3.718,3.016-6.729,6.731-6.729s6.729,3.014,6.729,6.729
	C2096.515,782.576,2093.503,785.589,2089.786,785.589z M2089.786,733.589c-3.72,0-6.731-3.014-6.731-6.732
	c0-3.718,3.016-6.729,6.731-6.729s6.729,3.014,6.729,6.729C2096.515,730.576,2093.503,733.589,2089.786,733.589z M2089.786,681.589
	c-3.72,0-6.731-3.014-6.731-6.732c0-3.718,3.016-6.729,6.731-6.729s6.729,3.014,6.729,6.729
	C2096.515,678.576,2093.503,681.589,2089.786,681.589z M2089.786,629.589c-3.72,0-6.731-3.014-6.731-6.732
	c0-3.718,3.016-6.729,6.731-6.729s6.729,3.014,6.729,6.729C2096.515,626.576,2093.503,629.589,2089.786,629.589z M2146.355,733.589
	c-3.721,0-6.731-3.014-6.731-6.732c0-3.718,3.015-6.729,6.731-6.729c3.716,0,6.729,3.014,6.729,6.729
	C2153.085,730.576,2150.075,733.589,2146.355,733.589z"/>
</svg>
