<?xml version="1.0" encoding="utf-8"?>
<!-- Generator: Adobe Illustrator 16.0.0, SVG Export Plug-In . SVG Version: 6.00 Build 0)  -->
<!DOCTYPE svg PUBLIC "-//W3C//DTD SVG 1.1//EN" "http://www.w3.org/Graphics/SVG/1.1/DTD/svg11.dtd">
<svg version="1.1" id="Layer_1" xmlns="http://www.w3.org/2000/svg" xmlns:xlink="http://www.w3.org/1999/xlink" x="0px" y="0px"
	 width="1618.789px" height="738.668px" viewBox="0 0 1618.789 738.668" enable-background="new 0 0 1618.789 738.668"
	 xml:space="preserve">
<path fill="none" stroke="#000000" stroke-linejoin="round" stroke-miterlimit="10" d="M106.428,610.192
	c-3.719,0-6.731-3.021-6.731-6.732c0-3.719,3.014-6.731,6.731-6.731c3.719,0,6.731,3.017,6.731,6.731
	C113.16,607.174,110.147,610.192,106.428,610.192z M162.999,610.192c-3.718,0-6.73-3.021-6.73-6.732c0-3.719,3.014-6.731,6.73-6.731
	c3.719,0,6.732,3.017,6.732,6.731C169.731,607.174,166.717,610.192,162.999,610.192z M162.999,558.192
	c-3.718,0-6.73-3.021-6.73-6.732c0-3.719,3.014-6.731,6.73-6.731c3.719,0,6.732,3.017,6.732,6.731
	C169.731,555.174,166.717,558.192,162.999,558.192z M219.569,662.192c-3.718,0-6.731-3.021-6.731-6.732
	c0-3.719,3.015-6.731,6.731-6.731c3.719,0,6.733,3.017,6.733,6.731C226.301,659.174,223.288,662.192,219.569,662.192z
	 M219.569,610.192c-3.718,0-6.731-3.021-6.731-6.732c0-3.719,3.015-6.731,6.731-6.731c3.719,0,6.733,3.017,6.733,6.731
	C226.301,607.174,223.288,610.192,219.569,610.192z M219.569,558.192c-3.718,0-6.731-3.021-6.731-6.732
	c0-3.719,3.015-6.731,6.731-6.731c3.719,0,6.733,3.017,6.733,6.731C226.301,555.174,223.288,558.192,219.569,558.192z
	 M219.569,506.192c-3.718,0-6.731-3.021-6.731-6.732c0-3.719,3.015-6.732,6.731-6.732c3.719,0,6.733,3.018,6.733,6.732
	C226.301,503.174,223.288,506.192,219.569,506.192z M276.139,714.192c-3.72,0-6.732-3.021-6.732-6.732
	c0-3.719,3.014-6.731,6.732-6.731c3.718,0,6.731,3.017,6.731,6.731C282.872,711.174,279.858,714.192,276.139,714.192z
	 M276.139,662.192c-3.72,0-6.732-3.021-6.732-6.732c0-3.719,3.014-6.731,6.732-6.731c3.718,0,6.731,3.017,6.731,6.731
	C282.872,659.174,279.858,662.192,276.139,662.192z M276.139,610.192c-3.72,0-6.732-3.021-6.732-6.732
	c0-3.719,3.014-6.731,6.732-6.731c3.718,0,6.731,3.017,6.731,6.731C282.872,607.174,279.858,610.192,276.139,610.192z
	 M276.139,558.192c-3.72,0-6.732-3.021-6.732-6.732c0-3.719,3.014-6.731,6.732-6.731c3.718,0,6.731,3.017,6.731,6.731
	C282.872,555.174,279.858,558.192,276.139,558.192z M276.139,506.192c-3.72,0-6.732-3.021-6.732-6.732
	c0-3.719,3.014-6.732,6.732-6.732c3.718,0,6.731,3.018,6.731,6.732C282.872,503.174,279.858,506.192,276.139,506.192z
	 M276.139,454.192c-3.72,0-6.732-3.021-6.732-6.732c0-3.719,3.014-6.732,6.732-6.732c3.718,0,6.731,3.018,6.731,6.732
	C282.872,451.174,279.858,454.192,276.139,454.192z M332.711,610.192c-3.72,0-6.732-3.021-6.732-6.732
	c0-3.719,3.016-6.731,6.732-6.731c3.716,0,6.731,3.017,6.731,6.731C339.442,607.174,336.428,610.192,332.711,610.192z
	 M332.711,558.192c-3.72,0-6.732-3.021-6.732-6.732c0-3.719,3.016-6.731,6.732-6.731c3.716,0,6.731,3.017,6.731,6.731
	C339.442,555.174,336.428,558.192,332.711,558.192z M332.711,506.192c-3.72,0-6.732-3.021-6.732-6.732
	c0-3.719,3.016-6.732,6.732-6.732c3.716,0,6.731,3.018,6.731,6.732C339.442,503.174,336.428,506.192,332.711,506.192z
	 M332.711,454.192c-3.72,0-6.732-3.021-6.732-6.732c0-3.719,3.016-6.732,6.732-6.732c3.716,0,6.731,3.018,6.731,6.732
	C339.442,451.174,336.428,454.192,332.711,454.192z M332.711,402.191c-3.72,0-6.732-3.021-6.732-6.733
	c0-3.72,3.016-6.731,6.732-6.731c3.716,0,6.731,3.019,6.731,6.731C339.442,399.174,336.428,402.191,332.711,402.191z
	 M389.28,558.192c-3.721,0-6.731-3.021-6.731-6.732c0-3.719,3.017-6.731,6.731-6.731s6.73,3.017,6.73,6.731
	C396.013,555.174,392.999,558.192,389.28,558.192z M389.28,506.192c-3.721,0-6.731-3.021-6.731-6.732
	c0-3.719,3.017-6.732,6.731-6.732s6.73,3.018,6.73,6.732C396.013,503.174,392.999,506.192,389.28,506.192z M389.28,454.192
	c-3.721,0-6.731-3.021-6.731-6.732c0-3.719,3.017-6.732,6.731-6.732s6.73,3.018,6.73,6.732
	C396.013,451.174,392.999,454.192,389.28,454.192z M389.28,402.191c-3.721,0-6.731-3.021-6.731-6.733
	c0-3.72,3.017-6.731,6.731-6.731s6.73,3.019,6.73,6.731C396.012,399.174,392.999,402.191,389.28,402.191z M389.28,336.726
	c3.718,0,6.731,3.014,6.731,6.731s-3.014,6.731-6.731,6.731c-3.717,0-6.73-3.014-6.73-6.731S385.563,336.726,389.28,336.726z
	 M445.851,558.192c-3.72,0-6.73-3.021-6.73-6.732c0-3.719,3.015-6.731,6.73-6.731c3.72,0,6.73,3.017,6.73,6.731
	C452.583,555.174,449.569,558.192,445.851,558.192z M445.851,506.192c-3.72,0-6.73-3.021-6.73-6.732c0-3.719,3.015-6.732,6.73-6.732
	c3.72,0,6.73,3.018,6.73,6.732C452.583,503.174,449.569,506.192,445.851,506.192z M445.851,454.192c-3.72,0-6.73-3.021-6.73-6.732
	c0-3.719,3.015-6.732,6.73-6.732c3.72,0,6.73,3.018,6.73,6.732C452.583,451.174,449.569,454.192,445.851,454.192z M445.851,402.191
	c-3.72,0-6.73-3.021-6.73-6.733c0-3.72,3.015-6.731,6.73-6.731c3.72,0,6.73,3.019,6.73,6.731
	C452.583,399.174,449.569,402.191,445.851,402.191z M445.851,336.726c3.718,0,6.73,3.014,6.73,6.731s-3.013,6.731-6.73,6.731
	s-6.731-3.014-6.731-6.731S442.134,336.726,445.851,336.726z M445.851,284.724c3.718,0,6.731,3.014,6.731,6.732
	s-3.014,6.732-6.731,6.732s-6.732-3.014-6.732-6.732S442.134,284.724,445.851,284.724z M502.422,558.192
	c-3.72,0-6.729-3.021-6.729-6.732c0-3.719,3.014-6.731,6.729-6.731c3.72,0,6.731,3.017,6.731,6.731
	C509.153,555.174,506.14,558.192,502.422,558.192z M502.422,506.192c-3.72,0-6.729-3.021-6.729-6.732
	c0-3.719,3.014-6.732,6.729-6.732c3.72,0,6.731,3.018,6.731,6.732C509.153,503.174,506.14,506.192,502.422,506.192z
	 M502.422,454.192c-3.72,0-6.729-3.021-6.729-6.732c0-3.719,3.014-6.732,6.729-6.732c3.72,0,6.731,3.018,6.731,6.732
	C509.153,451.174,506.14,454.192,502.422,454.192z M502.422,402.191c-3.72,0-6.729-3.021-6.729-6.733
	c0-3.72,3.014-6.731,6.729-6.731c3.72,0,6.731,3.019,6.731,6.731C509.153,399.174,506.14,402.191,502.422,402.191z M502.422,350.188
	c-3.72,0-6.729-3.014-6.729-6.731s3.014-6.732,6.729-6.732c3.72,0,6.731,3.015,6.731,6.732S506.14,350.188,502.422,350.188z
	 M502.422,298.188c-3.72,0-6.729-3.014-6.729-6.732s3.014-6.732,6.729-6.732c3.72,0,6.731,3.014,6.731,6.732
	S506.14,298.188,502.422,298.188z M558.991,506.192c-3.719,0-6.729-3.021-6.729-6.732c0-3.719,3.016-6.732,6.729-6.732
	s6.73,3.018,6.73,6.732C565.724,503.174,562.711,506.192,558.991,506.192z M558.991,454.192c-3.719,0-6.729-3.021-6.729-6.732
	c0-3.719,3.016-6.732,6.729-6.732s6.73,3.018,6.73,6.732C565.724,451.174,562.711,454.192,558.991,454.192z M558.991,402.191
	c-3.719,0-6.729-3.021-6.729-6.733c0-3.72,3.016-6.731,6.729-6.731s6.73,3.019,6.73,6.731
	C565.723,399.174,562.711,402.191,558.991,402.191z M558.991,336.726c3.718,0,6.731,3.014,6.731,6.731s-3.014,6.731-6.731,6.731
	c-3.717,0-6.73-3.014-6.73-6.731S555.274,336.726,558.991,336.726z M558.991,284.724c3.719,0,6.732,3.014,6.732,6.732
	s-3.014,6.732-6.732,6.732c-3.718,0-6.731-3.014-6.731-6.732S555.273,284.724,558.991,284.724z M558.991,232.724
	c3.719,0,6.732,3.014,6.732,6.732s-3.014,6.732-6.732,6.732c-3.718,0-6.731-3.014-6.731-6.732S555.273,232.724,558.991,232.724z
	 M615.562,506.192c-3.721,0-6.732-3.021-6.732-6.732c0-3.719,3.015-6.732,6.732-6.732s6.729,3.018,6.729,6.732
	C622.295,503.174,619.28,506.192,615.562,506.192z M615.562,454.192c-3.721,0-6.732-3.021-6.732-6.732
	c0-3.719,3.015-6.732,6.732-6.732s6.729,3.018,6.729,6.732C622.295,451.174,619.28,454.192,615.562,454.192z M615.562,402.191
	c-3.721,0-6.732-3.021-6.732-6.733c0-3.72,3.015-6.731,6.732-6.731s6.729,3.019,6.729,6.731
	C622.295,399.174,619.28,402.191,615.562,402.191z M615.562,336.726c3.718,0,6.731,3.014,6.731,6.731s-3.014,6.731-6.731,6.731
	s-6.731-3.014-6.731-6.731S611.844,336.726,615.562,336.726z M615.562,284.724c3.718,0,6.732,3.014,6.732,6.732
	s-3.015,6.732-6.732,6.732s-6.732-3.014-6.732-6.732S611.844,284.724,615.562,284.724z M615.562,232.724
	c3.718,0,6.732,3.014,6.732,6.732s-3.015,6.732-6.732,6.732s-6.732-3.014-6.732-6.732S611.844,232.724,615.562,232.724z
	 M615.562,180.724c3.718,0,6.732,3.014,6.732,6.732s-3.015,6.732-6.732,6.732s-6.732-3.014-6.732-6.732
	S611.844,180.724,615.562,180.724z M672.133,506.192c-3.72,0-6.729-3.021-6.729-6.732c0-3.719,3.014-6.732,6.729-6.732
	c3.72,0,6.731,3.018,6.731,6.732C678.864,503.174,675.851,506.192,672.133,506.192z M672.133,454.192
	c-3.72,0-6.729-3.021-6.729-6.732c0-3.719,3.014-6.732,6.729-6.732c3.72,0,6.731,3.018,6.731,6.732
	C678.864,451.174,675.851,454.192,672.133,454.192z M672.133,402.191c-3.72,0-6.729-3.021-6.729-6.733
	c0-3.72,3.014-6.731,6.729-6.731c3.72,0,6.731,3.019,6.731,6.731C678.864,399.174,675.851,402.191,672.133,402.191z
	 M672.133,350.188c-3.72,0-6.729-3.014-6.729-6.731s3.014-6.732,6.729-6.732c3.72,0,6.731,3.015,6.731,6.732
	S675.851,350.188,672.133,350.188z M672.133,298.188c-3.72,0-6.729-3.014-6.729-6.732s3.014-6.732,6.729-6.732
	c3.72,0,6.731,3.014,6.731,6.732S675.851,298.188,672.133,298.188z M672.133,246.188c-3.72,0-6.729-3.014-6.729-6.732
	s3.014-6.732,6.729-6.732c3.72,0,6.731,3.014,6.731,6.732S675.851,246.188,672.133,246.188z M672.133,194.188
	c-3.72,0-6.729-3.014-6.729-6.732s3.014-6.732,6.729-6.732c3.72,0,6.731,3.014,6.731,6.732S675.851,194.188,672.133,194.188z
	 M672.133,142.188c-3.72,0-6.729-3.014-6.729-6.732s3.014-6.732,6.729-6.732c3.72,0,6.731,3.014,6.731,6.732
	S675.851,142.188,672.133,142.188z M728.702,506.192c-3.719,0-6.729-3.021-6.729-6.732c0-3.719,3.016-6.732,6.729-6.732
	c3.715,0,6.73,3.018,6.73,6.732C735.435,503.174,732.422,506.192,728.702,506.192z M728.702,454.192
	c-3.719,0-6.729-3.021-6.729-6.732c0-3.719,3.016-6.732,6.729-6.732c3.715,0,6.73,3.018,6.73,6.732
	C735.435,451.174,732.422,454.192,728.702,454.192z M728.702,402.191c-3.719,0-6.729-3.021-6.729-6.733
	c0-3.72,3.016-6.731,6.729-6.731c3.715,0,6.73,3.019,6.73,6.731C735.434,399.174,732.422,402.191,728.702,402.191z M728.702,336.726
	c3.718,0,6.731,3.014,6.731,6.731s-3.014,6.731-6.731,6.731c-3.717,0-6.73-3.014-6.73-6.731S724.985,336.726,728.702,336.726z
	 M728.702,284.724c3.719,0,6.732,3.014,6.732,6.732s-3.014,6.732-6.732,6.732c-3.718,0-6.731-3.014-6.731-6.732
	S724.984,284.724,728.702,284.724z M728.702,232.724c3.719,0,6.732,3.014,6.732,6.732s-3.014,6.732-6.732,6.732
	c-3.718,0-6.731-3.014-6.731-6.732S724.984,232.724,728.702,232.724z M728.702,180.724c3.719,0,6.732,3.014,6.732,6.732
	s-3.014,6.732-6.732,6.732c-3.718,0-6.731-3.014-6.731-6.732S724.984,180.724,728.702,180.724z M728.702,128.724
	c3.719,0,6.732,3.014,6.732,6.732s-3.014,6.732-6.732,6.732c-3.718,0-6.731-3.014-6.731-6.732S724.984,128.724,728.702,128.724z
	 M728.702,76.724c3.719,0,6.732,3.014,6.732,6.732s-3.014,6.732-6.732,6.732c-3.718,0-6.731-3.014-6.731-6.732
	S724.984,76.724,728.702,76.724z M785.271,506.192c-3.72,0-6.731-3.021-6.731-6.732c0-3.719,3.017-6.732,6.731-6.732
	c3.717,0,6.729,3.018,6.729,6.732C792.006,503.174,788.991,506.192,785.271,506.192z M785.271,454.192
	c-3.72,0-6.731-3.021-6.731-6.732c0-3.719,3.017-6.732,6.731-6.732c3.717,0,6.729,3.018,6.729,6.732
	C792.006,451.174,788.991,454.192,785.271,454.192z M785.271,402.191c-3.72,0-6.731-3.021-6.731-6.733
	c0-3.72,3.017-6.731,6.731-6.731c3.717,0,6.729,3.019,6.729,6.731C792.006,399.174,788.991,402.191,785.271,402.191z
	 M785.271,336.726c3.718,0,6.731,3.014,6.731,6.731s-3.014,6.731-6.731,6.731s-6.731-3.014-6.731-6.731
	S781.553,336.726,785.271,336.726z M785.271,298.188c-3.72,0-6.731-3.014-6.731-6.732s3.017-6.732,6.731-6.732
	c3.717,0,6.729,3.014,6.729,6.732C792.005,295.174,788.991,298.188,785.271,298.188z M785.271,246.188
	c-3.72,0-6.731-3.014-6.731-6.732s3.017-6.732,6.731-6.732c3.717,0,6.729,3.014,6.729,6.732
	C792.005,243.174,788.991,246.188,785.271,246.188z M785.271,194.188c-3.72,0-6.731-3.014-6.731-6.732s3.017-6.732,6.731-6.732
	c3.717,0,6.729,3.014,6.729,6.732C792.005,191.174,788.991,194.188,785.271,194.188z M785.271,142.188
	c-3.72,0-6.731-3.014-6.731-6.732s3.017-6.732,6.731-6.732c3.717,0,6.729,3.014,6.729,6.732
	C792.005,139.174,788.991,142.188,785.271,142.188z M785.271,90.188c-3.72,0-6.731-3.014-6.731-6.732
	c0-3.718,3.017-6.732,6.731-6.732c3.717,0,6.729,3.014,6.729,6.732C792.005,87.174,788.991,90.188,785.271,90.188z M841.844,506.192
	c-3.722,0-6.731-3.021-6.731-6.732c0-3.719,3.014-6.732,6.731-6.732c3.717,0,6.729,3.018,6.729,6.732
	C848.574,503.174,845.562,506.192,841.844,506.192z M841.844,454.192c-3.722,0-6.731-3.021-6.731-6.732
	c0-3.719,3.014-6.732,6.731-6.732c3.717,0,6.729,3.018,6.729,6.732C848.574,451.174,845.562,454.192,841.844,454.192z
	 M841.844,402.191c-3.722,0-6.731-3.021-6.731-6.733c0-3.72,3.014-6.731,6.731-6.731c3.717,0,6.729,3.019,6.729,6.731
	C848.574,399.174,845.562,402.191,841.844,402.191z M841.844,350.188c-3.722,0-6.731-3.014-6.731-6.731s3.014-6.732,6.731-6.732
	c3.717,0,6.729,3.015,6.729,6.732S845.562,350.188,841.844,350.188z M841.844,298.188c-3.722,0-6.731-3.014-6.731-6.732
	s3.014-6.732,6.731-6.732c3.717,0,6.729,3.014,6.729,6.732C848.574,295.174,845.562,298.188,841.844,298.188z M841.844,246.188
	c-3.722,0-6.731-3.014-6.731-6.732s3.014-6.732,6.731-6.732c3.717,0,6.729,3.014,6.729,6.732
	C848.574,243.174,845.562,246.188,841.844,246.188z M841.844,194.188c-3.722,0-6.731-3.014-6.731-6.732s3.014-6.732,6.731-6.732
	c3.717,0,6.729,3.014,6.729,6.732C848.574,191.174,845.562,194.188,841.844,194.188z M841.844,142.188
	c-3.722,0-6.731-3.014-6.731-6.732s3.014-6.732,6.731-6.732c3.717,0,6.729,3.014,6.729,6.732S845.562,142.188,841.844,142.188z
	 M841.844,90.188c-3.722,0-6.731-3.014-6.731-6.732c0-3.718,3.014-6.732,6.731-6.732c3.717,0,6.729,3.014,6.729,6.732
	C848.574,87.174,845.562,90.188,841.844,90.188z M841.844,38.188c-3.722,0-6.731-3.014-6.731-6.732c0-3.718,3.014-6.732,6.731-6.732
	c3.717,0,6.729,3.014,6.729,6.732C848.574,35.174,845.562,38.188,841.844,38.188z M898.412,506.192
	c-3.719,0-6.729-3.021-6.729-6.732c0-3.719,3.017-6.732,6.729-6.732c3.72,0,6.729,3.018,6.729,6.732
	C905.146,503.174,902.131,506.192,898.412,506.192z M898.412,454.192c-3.719,0-6.729-3.021-6.729-6.732
	c0-3.719,3.017-6.732,6.729-6.732c3.72,0,6.729,3.018,6.729,6.732C905.146,451.174,902.131,454.192,898.412,454.192z
	 M898.412,402.191c-3.719,0-6.729-3.021-6.729-6.733c0-3.72,3.017-6.731,6.729-6.731c3.72,0,6.729,3.019,6.729,6.731
	C905.146,399.174,902.131,402.191,898.412,402.191z M898.412,336.726c3.718,0,6.731,3.014,6.731,6.731s-3.014,6.731-6.731,6.731
	c-3.717,0-6.73-3.014-6.73-6.731S894.695,336.726,898.412,336.726z M898.412,284.724c3.719,0,6.732,3.014,6.732,6.732
	s-3.014,6.732-6.732,6.732c-3.718,0-6.731-3.014-6.731-6.732S894.694,284.724,898.412,284.724z M898.412,232.724
	c3.719,0,6.732,3.014,6.732,6.732s-3.014,6.732-6.732,6.732c-3.718,0-6.731-3.014-6.731-6.732S894.694,232.724,898.412,232.724z
	 M898.412,180.724c3.719,0,6.732,3.014,6.732,6.732s-3.014,6.732-6.732,6.732c-3.718,0-6.731-3.014-6.731-6.732
	S894.694,180.724,898.412,180.724z M898.412,128.724c3.719,0,6.732,3.014,6.732,6.732s-3.014,6.732-6.732,6.732
	c-3.718,0-6.731-3.014-6.731-6.732S894.694,128.724,898.412,128.724z M898.412,76.724c3.719,0,6.732,3.014,6.732,6.732
	s-3.014,6.732-6.732,6.732c-3.718,0-6.731-3.014-6.731-6.732S894.694,76.724,898.412,76.724z M898.412,24.724
	c3.719,0,6.732,3.014,6.732,6.732s-3.014,6.732-6.732,6.732c-3.718,0-6.731-3.014-6.731-6.732S894.694,24.724,898.412,24.724z
	 M1520.688,336.725c3.721,0,6.729,3.015,6.729,6.732s-3.014,6.731-6.729,6.731c-3.72,0-6.73-3.014-6.73-6.731
	S1516.969,336.725,1520.688,336.725z M1520.688,388.725c3.721,0,6.729,3.018,6.729,6.73c0,3.717-3.014,6.734-6.729,6.734
	c-3.72,0-6.73-3.021-6.73-6.734C1513.953,391.739,1516.969,388.725,1520.688,388.725z M1520.688,440.725
	c3.721,0,6.729,3.018,6.729,6.732s-3.014,6.732-6.729,6.732c-3.72,0-6.73-3.021-6.73-6.732
	C1513.953,443.741,1516.969,440.725,1520.688,440.725z M1520.688,492.725c3.721,0,6.729,3.018,6.729,6.732s-3.014,6.732-6.729,6.732
	c-3.72,0-6.73-3.021-6.73-6.732C1513.953,495.741,1516.969,492.725,1520.688,492.725z M1464.115,336.726
	c3.718,0,6.731,3.014,6.731,6.731s-3.014,6.731-6.731,6.731c-3.717,0-6.73-3.014-6.73-6.731S1460.398,336.726,1464.115,336.726z
	 M1464.115,388.725c3.718,0,6.732,3.015,6.732,6.732s-3.015,6.732-6.732,6.732s-6.731-3.015-6.731-6.732
	S1460.397,388.725,1464.115,388.725z M1464.115,440.725c3.72,0,6.729,3.018,6.729,6.732s-3.015,6.732-6.729,6.732
	c-3.719,0-6.729-3.021-6.729-6.732C1457.385,443.741,1460.398,440.725,1464.115,440.725z M1464.115,492.725
	c3.72,0,6.729,3.018,6.729,6.732s-3.015,6.732-6.729,6.732c-3.719,0-6.729-3.021-6.729-6.732
	C1457.385,495.741,1460.398,492.725,1464.115,492.725z M1464.115,544.725c3.72,0,6.729,3.018,6.729,6.732s-3.015,6.732-6.729,6.732
	c-3.719,0-6.729-3.021-6.729-6.732C1457.385,547.741,1460.398,544.725,1464.115,544.725z M1464.115,596.725
	c3.72,0,6.729,3.018,6.729,6.732s-3.015,6.732-6.729,6.732c-3.719,0-6.729-3.021-6.729-6.732
	C1457.385,599.741,1460.398,596.725,1464.115,596.725z M954.984,506.192c-3.72,0-6.731-3.021-6.731-6.732
	c0-3.719,3.016-6.732,6.731-6.732s6.729,3.018,6.729,6.732C961.717,503.174,958.701,506.192,954.984,506.192z M954.984,454.192
	c-3.72,0-6.731-3.021-6.731-6.732c0-3.719,3.016-6.732,6.731-6.732s6.729,3.018,6.729,6.732
	C961.717,451.174,958.701,454.192,954.984,454.192z M954.984,402.191c-3.72,0-6.731-3.021-6.731-6.733
	c0-3.72,3.016-6.731,6.731-6.731s6.729,3.019,6.729,6.731C961.717,399.174,958.701,402.191,954.984,402.191z M954.984,336.726
	c3.718,0,6.731,3.014,6.731,6.731s-3.014,6.731-6.731,6.731s-6.73-3.014-6.73-6.731S951.266,336.726,954.984,336.726z
	 M954.984,284.724c3.718,0,6.732,3.014,6.732,6.732s-3.015,6.732-6.732,6.732s-6.731-3.014-6.731-6.732
	S951.266,284.724,954.984,284.724z M954.984,232.724c3.718,0,6.732,3.014,6.732,6.732s-3.015,6.732-6.732,6.732
	s-6.731-3.014-6.731-6.732S951.266,232.724,954.984,232.724z M954.984,180.724c3.718,0,6.732,3.014,6.732,6.732
	s-3.015,6.732-6.732,6.732s-6.731-3.014-6.731-6.732S951.266,180.724,954.984,180.724z M954.984,128.724
	c3.718,0,6.732,3.014,6.732,6.732s-3.015,6.732-6.732,6.732s-6.731-3.014-6.731-6.732S951.266,128.724,954.984,128.724z
	 M954.984,76.724c3.718,0,6.732,3.014,6.732,6.732s-3.015,6.732-6.732,6.732s-6.731-3.014-6.731-6.732
	S951.266,76.724,954.984,76.724z M954.984,24.724c3.718,0,6.732,3.014,6.732,6.732s-3.015,6.732-6.732,6.732
	s-6.731-3.014-6.731-6.732S951.266,24.724,954.984,24.724z M1011.554,506.192c-3.722,0-6.729-3.021-6.729-6.732
	c0-3.719,3.015-6.732,6.729-6.732s6.729,3.018,6.729,6.732C1018.285,503.174,1015.273,506.192,1011.554,506.192z M1011.554,454.192
	c-3.722,0-6.729-3.021-6.729-6.732c0-3.719,3.015-6.732,6.729-6.732s6.729,3.018,6.729,6.732
	C1018.285,451.174,1015.273,454.192,1011.554,454.192z M1011.554,402.191c-3.722,0-6.729-3.021-6.729-6.733
	c0-3.72,3.015-6.731,6.729-6.731s6.729,3.019,6.729,6.731C1018.285,399.174,1015.273,402.191,1011.554,402.191z M1011.554,350.188
	c-3.722,0-6.729-3.014-6.729-6.731s3.015-6.732,6.729-6.732s6.729,3.015,6.729,6.732S1015.273,350.188,1011.554,350.188z
	 M1011.554,298.188c-3.722,0-6.729-3.014-6.729-6.732s3.015-6.732,6.729-6.732s6.729,3.014,6.729,6.732
	C1018.285,295.174,1015.273,298.188,1011.554,298.188z M1011.554,246.188c-3.722,0-6.729-3.014-6.729-6.732s3.015-6.732,6.729-6.732
	s6.729,3.014,6.729,6.732C1018.285,243.174,1015.273,246.188,1011.554,246.188z M1011.554,194.188c-3.722,0-6.729-3.014-6.729-6.732
	s3.015-6.732,6.729-6.732s6.729,3.014,6.729,6.732C1018.285,191.174,1015.273,194.188,1011.554,194.188z M1011.554,142.188
	c-3.722,0-6.729-3.014-6.729-6.732s3.015-6.732,6.729-6.732s6.729,3.014,6.729,6.732S1015.273,142.188,1011.554,142.188z
	 M1011.554,90.188c-3.722,0-6.729-3.014-6.729-6.732c0-3.718,3.015-6.732,6.729-6.732s6.729,3.014,6.729,6.732
	C1018.285,87.174,1015.273,90.188,1011.554,90.188z M1011.554,38.188c-3.722,0-6.729-3.014-6.729-6.732
	c0-3.718,3.015-6.732,6.729-6.732s6.729,3.014,6.729,6.732C1018.285,35.174,1015.273,38.188,1011.554,38.188z M1068.124,506.192
	c-3.72,0-6.73-3.021-6.73-6.732c0-3.719,3.017-6.732,6.73-6.732c3.719,0,6.729,3.018,6.729,6.732
	C1074.857,503.174,1071.844,506.192,1068.124,506.192z M1068.124,454.192c-3.72,0-6.73-3.021-6.73-6.732
	c0-3.719,3.017-6.732,6.73-6.732c3.719,0,6.729,3.018,6.729,6.732C1074.857,451.174,1071.844,454.192,1068.124,454.192z
	 M1068.124,402.191c-3.72,0-6.73-3.021-6.73-6.733c0-3.72,3.017-6.731,6.73-6.731c3.719,0,6.729,3.019,6.729,6.731
	C1074.857,399.174,1071.844,402.191,1068.124,402.191z M1068.124,336.726c3.717,0,6.73,3.014,6.73,6.731s-3.014,6.731-6.73,6.731
	c-3.718,0-6.731-3.014-6.731-6.731S1064.406,336.726,1068.124,336.726z M1068.124,284.724c3.718,0,6.731,3.014,6.731,6.732
	s-3.014,6.732-6.731,6.732c-3.719,0-6.732-3.014-6.732-6.732S1064.405,284.724,1068.124,284.724z M1068.124,232.724
	c3.718,0,6.731,3.014,6.731,6.732s-3.014,6.732-6.731,6.732c-3.719,0-6.732-3.014-6.732-6.732S1064.405,232.724,1068.124,232.724z
	 M1068.124,180.724c3.718,0,6.731,3.014,6.731,6.732s-3.014,6.732-6.731,6.732c-3.719,0-6.732-3.014-6.732-6.732
	S1064.405,180.724,1068.124,180.724z M1068.124,128.724c3.718,0,6.731,3.014,6.731,6.732s-3.014,6.732-6.731,6.732
	c-3.719,0-6.732-3.014-6.732-6.732S1064.405,128.724,1068.124,128.724z M1068.124,76.724c3.718,0,6.731,3.014,6.731,6.732
	s-3.014,6.732-6.731,6.732c-3.719,0-6.732-3.014-6.732-6.732S1064.405,76.724,1068.124,76.724z M1124.695,506.192
	c-3.72,0-6.731-3.021-6.731-6.732c0-3.719,3.016-6.732,6.731-6.732s6.731,3.018,6.731,6.732
	C1131.427,503.174,1128.412,506.192,1124.695,506.192z M1124.695,454.192c-3.72,0-6.731-3.021-6.731-6.732
	c0-3.719,3.016-6.732,6.731-6.732s6.731,3.018,6.731,6.732C1131.427,451.174,1128.412,454.192,1124.695,454.192z M1124.695,402.191
	c-3.72,0-6.731-3.021-6.731-6.733c0-3.72,3.016-6.731,6.731-6.731s6.731,3.019,6.731,6.731
	C1131.427,399.174,1128.412,402.191,1124.695,402.191z M1124.695,336.726c3.718,0,6.731,3.014,6.731,6.731s-3.014,6.731-6.731,6.731
	s-6.73-3.014-6.73-6.731S1120.977,336.726,1124.695,336.726z M1124.695,284.724c3.718,0,6.732,3.014,6.732,6.732
	s-3.015,6.732-6.732,6.732s-6.731-3.014-6.731-6.732S1120.977,284.724,1124.695,284.724z M1124.695,232.724
	c3.718,0,6.732,3.014,6.732,6.732s-3.015,6.732-6.732,6.732s-6.731-3.014-6.731-6.732S1120.977,232.724,1124.695,232.724z
	 M1124.695,180.724c3.718,0,6.732,3.014,6.732,6.732s-3.015,6.732-6.732,6.732s-6.731-3.014-6.731-6.732
	S1120.977,180.724,1124.695,180.724z M1124.695,128.724c3.718,0,6.732,3.014,6.732,6.732s-3.015,6.732-6.732,6.732
	s-6.731-3.014-6.731-6.732S1120.977,128.724,1124.695,128.724z M1124.695,76.724c3.718,0,6.732,3.014,6.732,6.732
	s-3.015,6.732-6.732,6.732s-6.731-3.014-6.731-6.732S1120.977,76.724,1124.695,76.724z M1181.265,506.192
	c-3.721,0-6.729-3.021-6.729-6.732c0-3.719,3.015-6.732,6.729-6.732c3.72,0,6.729,3.018,6.729,6.732
	C1187.996,503.174,1184.984,506.192,1181.265,506.192z M1181.265,454.192c-3.721,0-6.729-3.021-6.729-6.732
	c0-3.719,3.015-6.732,6.729-6.732c3.72,0,6.729,3.018,6.729,6.732C1187.996,451.174,1184.984,454.192,1181.265,454.192z
	 M1181.265,402.191c-3.721,0-6.729-3.021-6.729-6.733c0-3.72,3.015-6.731,6.729-6.731c3.72,0,6.729,3.019,6.729,6.731
	C1187.996,399.174,1184.984,402.191,1181.265,402.191z M1181.265,350.188c-3.721,0-6.729-3.014-6.729-6.731s3.015-6.732,6.729-6.732
	c3.72,0,6.729,3.015,6.729,6.732S1184.984,350.188,1181.265,350.188z M1181.265,298.188c-3.721,0-6.729-3.014-6.729-6.732
	s3.015-6.732,6.729-6.732c3.72,0,6.729,3.014,6.729,6.732C1187.996,295.174,1184.984,298.188,1181.265,298.188z M1181.265,246.188
	c-3.721,0-6.729-3.014-6.729-6.732s3.015-6.732,6.729-6.732c3.72,0,6.729,3.014,6.729,6.732
	C1187.996,243.174,1184.984,246.188,1181.265,246.188z M1181.265,194.188c-3.721,0-6.729-3.014-6.729-6.732s3.015-6.732,6.729-6.732
	c3.72,0,6.729,3.014,6.729,6.732C1187.996,191.174,1184.984,194.188,1181.265,194.188z M1181.265,142.188
	c-3.721,0-6.729-3.014-6.729-6.732s3.015-6.732,6.729-6.732c3.72,0,6.729,3.014,6.729,6.732S1184.984,142.188,1181.265,142.188z
	 M1181.265,90.188c-3.721,0-6.729-3.014-6.729-6.732c0-3.718,3.015-6.732,6.729-6.732c3.72,0,6.729,3.014,6.729,6.732
	C1187.996,87.174,1184.984,90.188,1181.265,90.188z M1237.833,506.192c-3.719,0-6.729-3.021-6.729-6.732
	c0-3.719,3.016-6.732,6.729-6.732c3.72,0,6.732,3.018,6.732,6.732C1244.568,503.174,1241.554,506.192,1237.833,506.192z
	 M1237.833,454.192c-3.719,0-6.729-3.021-6.729-6.732c0-3.719,3.016-6.732,6.729-6.732c3.72,0,6.732,3.018,6.732,6.732
	C1244.568,451.174,1241.554,454.192,1237.833,454.192z M1237.833,402.191c-3.719,0-6.729-3.021-6.729-6.733
	c0-3.72,3.016-6.731,6.729-6.731c3.72,0,6.732,3.019,6.732,6.731C1244.568,399.174,1241.554,402.191,1237.833,402.191z
	 M1237.833,336.726c3.718,0,6.731,3.014,6.731,6.731s-3.014,6.731-6.731,6.731c-3.717,0-6.73-3.014-6.73-6.731
	S1234.116,336.726,1237.833,336.726z M1237.833,284.724c3.719,0,6.732,3.014,6.732,6.732s-3.014,6.732-6.732,6.732
	c-3.718,0-6.731-3.014-6.731-6.732S1234.115,284.724,1237.833,284.724z M1237.833,232.724c3.719,0,6.732,3.014,6.732,6.732
	s-3.014,6.732-6.732,6.732c-3.718,0-6.731-3.014-6.731-6.732S1234.115,232.724,1237.833,232.724z M1237.833,180.724
	c3.719,0,6.732,3.014,6.732,6.732s-3.014,6.732-6.732,6.732c-3.718,0-6.731-3.014-6.731-6.732S1234.115,180.724,1237.833,180.724z
	 M1237.833,128.724c3.719,0,6.732,3.014,6.732,6.732s-3.014,6.732-6.732,6.732c-3.718,0-6.731-3.014-6.731-6.732
	S1234.115,128.724,1237.833,128.724z M1237.833,76.724c3.719,0,6.732,3.014,6.732,6.732s-3.014,6.732-6.732,6.732
	c-3.718,0-6.731-3.014-6.731-6.732S1234.115,76.724,1237.833,76.724z M1294.404,506.192c-3.719,0-6.731-3.021-6.731-6.732
	c0-3.719,3.018-6.732,6.731-6.732c3.72,0,6.731,3.018,6.731,6.732C1301.138,503.174,1298.124,506.192,1294.404,506.192z
	 M1294.404,454.192c-3.719,0-6.731-3.021-6.731-6.732c0-3.719,3.018-6.732,6.731-6.732c3.72,0,6.731,3.018,6.731,6.732
	C1301.138,451.174,1298.124,454.192,1294.404,454.192z M1294.404,402.191c-3.719,0-6.731-3.021-6.731-6.733
	c0-3.72,3.018-6.731,6.731-6.731c3.72,0,6.731,3.019,6.731,6.731C1301.138,399.174,1298.124,402.191,1294.404,402.191z
	 M1294.404,336.726c3.718,0,6.731,3.014,6.731,6.731s-3.014,6.731-6.731,6.731c-3.717,0-6.73-3.014-6.73-6.731
	S1290.687,336.726,1294.404,336.726z M1294.404,284.724c3.718,0,6.732,3.014,6.732,6.732s-3.015,6.732-6.732,6.732
	s-6.731-3.014-6.731-6.732S1290.686,284.724,1294.404,284.724z M1294.404,232.724c3.718,0,6.732,3.014,6.732,6.732
	s-3.015,6.732-6.732,6.732s-6.731-3.014-6.731-6.732S1290.686,232.724,1294.404,232.724z M1294.404,180.724
	c3.718,0,6.732,3.014,6.732,6.732s-3.015,6.732-6.732,6.732s-6.731-3.014-6.731-6.732S1290.686,180.724,1294.404,180.724z
	 M1294.404,128.724c3.718,0,6.732,3.014,6.732,6.732s-3.015,6.732-6.732,6.732s-6.731-3.014-6.731-6.732
	S1290.686,128.724,1294.404,128.724z M1294.404,76.724c3.718,0,6.732,3.014,6.732,6.732s-3.015,6.732-6.732,6.732
	s-6.731-3.014-6.731-6.732S1290.686,76.724,1294.404,76.724z M1350.976,558.192c-3.719,0-6.729-3.021-6.729-6.732
	c0-3.719,3.015-6.731,6.729-6.731c3.72,0,6.729,3.017,6.729,6.731C1357.708,555.174,1354.695,558.192,1350.976,558.192z
	 M1350.976,506.192c-3.719,0-6.729-3.021-6.729-6.732c0-3.719,3.015-6.732,6.729-6.732c3.72,0,6.729,3.018,6.729,6.732
	C1357.708,503.174,1354.695,506.192,1350.976,506.192z M1350.976,454.192c-3.719,0-6.729-3.021-6.729-6.732
	c0-3.719,3.015-6.732,6.729-6.732c3.72,0,6.729,3.018,6.729,6.732C1357.708,451.174,1354.695,454.192,1350.976,454.192z
	 M1350.976,402.191c-3.719,0-6.729-3.021-6.729-6.733c0-3.72,3.015-6.731,6.729-6.731c3.72,0,6.729,3.019,6.729,6.731
	C1357.708,399.174,1354.695,402.191,1350.976,402.191z M1350.976,350.188c-3.719,0-6.729-3.014-6.729-6.731s3.015-6.732,6.729-6.732
	c3.72,0,6.729,3.015,6.729,6.732S1354.695,350.188,1350.976,350.188z M1350.976,298.188c-3.719,0-6.729-3.014-6.729-6.732
	s3.015-6.732,6.729-6.732c3.72,0,6.729,3.014,6.729,6.732C1357.708,295.174,1354.695,298.188,1350.976,298.188z M1350.976,246.188
	c-3.719,0-6.729-3.014-6.729-6.732s3.015-6.732,6.729-6.732c3.72,0,6.729,3.014,6.729,6.732
	C1357.708,243.174,1354.695,246.188,1350.976,246.188z M1350.976,194.188c-3.719,0-6.729-3.014-6.729-6.732s3.015-6.732,6.729-6.732
	c3.72,0,6.729,3.014,6.729,6.732C1357.708,191.174,1354.695,194.188,1350.976,194.188z M1350.976,142.188
	c-3.719,0-6.729-3.014-6.729-6.732s3.015-6.732,6.729-6.732c3.72,0,6.729,3.014,6.729,6.732S1354.695,142.188,1350.976,142.188z
	 M1350.976,90.188c-3.719,0-6.729-3.014-6.729-6.732c0-3.718,3.015-6.732,6.729-6.732c3.72,0,6.729,3.014,6.729,6.732
	C1357.708,87.174,1354.695,90.188,1350.976,90.188z M1407.544,558.192c-3.719,0-6.729-3.021-6.729-6.732
	c0-3.719,3.016-6.731,6.729-6.731c3.72,0,6.732,3.017,6.732,6.731C1414.279,555.174,1411.265,558.192,1407.544,558.192z
	 M1407.544,506.192c-3.719,0-6.729-3.021-6.729-6.732c0-3.719,3.016-6.732,6.729-6.732c3.72,0,6.732,3.018,6.732,6.732
	C1414.279,503.174,1411.265,506.192,1407.544,506.192z M1407.544,454.192c-3.719,0-6.729-3.021-6.729-6.732
	c0-3.719,3.016-6.732,6.729-6.732c3.72,0,6.732,3.018,6.732,6.732C1414.279,451.174,1411.265,454.192,1407.544,454.192z
	 M1407.544,402.191c-3.719,0-6.729-3.021-6.729-6.733c0-3.72,3.016-6.731,6.729-6.731c3.72,0,6.732,3.019,6.732,6.731
	C1414.279,399.174,1411.265,402.191,1407.544,402.191z M1407.544,336.726c3.718,0,6.731,3.014,6.731,6.731s-3.014,6.731-6.731,6.731
	c-3.717,0-6.73-3.014-6.73-6.731S1403.827,336.726,1407.544,336.726z M1407.544,232.724c3.719,0,6.732,3.014,6.732,6.732
	s-3.014,6.732-6.732,6.732c-3.718,0-6.731-3.014-6.731-6.732S1403.826,232.724,1407.544,232.724z M1407.544,180.724
	c3.719,0,6.732,3.014,6.732,6.732s-3.014,6.732-6.732,6.732c-3.718,0-6.731-3.014-6.731-6.732S1403.826,180.724,1407.544,180.724z
	 M1407.544,128.724c3.719,0,6.732,3.014,6.732,6.732s-3.014,6.732-6.732,6.732c-3.718,0-6.731-3.014-6.731-6.732
	S1403.826,128.724,1407.544,128.724z M1464.115,246.188c-3.721,0-6.729-3.014-6.729-6.732s3.017-6.732,6.729-6.732
	c3.72,0,6.729,3.014,6.729,6.732C1470.847,243.174,1467.833,246.188,1464.115,246.188z M1464.115,194.188
	c-3.721,0-6.729-3.014-6.729-6.732s3.017-6.732,6.729-6.732c3.72,0,6.729,3.014,6.729,6.732
	C1470.847,191.174,1467.833,194.188,1464.115,194.188z M1464.115,142.188c-3.721,0-6.729-3.014-6.729-6.732s3.017-6.732,6.729-6.732
	c3.72,0,6.729,3.014,6.729,6.732C1470.847,139.174,1467.833,142.188,1464.115,142.188z M1520.688,232.724
	c3.718,0,6.732,3.014,6.732,6.732s-3.015,6.732-6.732,6.732s-6.732-3.014-6.732-6.732S1516.97,232.724,1520.688,232.724z
	 M1520.688,180.724c3.718,0,6.732,3.014,6.732,6.732s-3.015,6.732-6.732,6.732s-6.732-3.014-6.732-6.732
	S1516.97,180.724,1520.688,180.724z M1520.688,128.724c3.718,0,6.732,3.014,6.732,6.732s-3.015,6.732-6.732,6.732
	s-6.732-3.014-6.732-6.732S1516.97,128.724,1520.688,128.724z M1577.258,142.188c-3.722,0-6.729-3.014-6.729-6.732
	s3.014-6.732,6.729-6.732c3.715,0,6.729,3.014,6.729,6.732S1580.976,142.188,1577.258,142.188z M61.246,592.129
	c-2.188-1.94-3.898-4.947-5.756-7.803c-1.911-2.938-4.47-5.348-7.379-7.301c-2.304-1.549-4.932-2.577-7.556-3.443
	c-3.054-1.008-6.159-1.479-9.374-1.479C13.96,572.104,0,586.064,0,603.285s13.96,31.181,31.182,31.181
	c4.878,0,10.241-1.288,14.561-3.526c3.427-1.775,6.449-4.267,8.934-7.212c2.511-2.974,3.927-6.715,6.48-9.645
	c3.103-3.558,7.059-4.021,11.527-3.142c0.799,0.156,1.592,0.344,2.382,0.541c0.679,0.172,1.769,0.252,2.358,0.621
	c0.002,0.001,201.74,126.565,201.74,126.565s32.335-81.854,70.773-104.979c97.018-58.345,127.945-55,317.438-86.166
	c186.345-30.64,411.431-15.015,518.276-5.039c106.854,9.974,195.606,57.093,237.233,77.229
	c41.617,20.127,59.129,17.332,65.938-2.272c6.812-19.597,91.356-223.188,96.78-244.502c5.438-21.312-2.18-37.771-18.684-44.254
	c-16.502-6.472-136.146-42.852-151.279-47.611c-15.125-4.767-10.694-16.799,6.479-16.502c17.175,0.287,114.75,9.254,137.769,13.31
	c11.791,2.066,23.67,3.326,34.752,2.212l3.356-23.019c-2.938-2.669-5.713-5.599-8.284-8.794
	c-25.888-32.146-21.855-78.336,8.987-103.172c5.315-4.279,11.09-7.63,17.127-10.099l2.955-20.278
	c-108.287-21.09-283.971-52.248-435.799-76.774c-0.549,0.145-1.125,0.23-1.722,0.23c-1.36,0-2.627-0.407-3.688-1.103
	C1044.654,15.672,930.992-0.465,898.551,0.01C809.255,1.32,627.198,108.359,523.08,203.474
	c-91.308,83.424-376.794,327.527-445.659,386.329c-0.747,0.639-1.736,0.958-2.61,1.379c-1.344,0.646-2.646,1.374-4.005,1.984
	C66.534,595.082,63.61,594.227,61.246,592.129z"/>
</svg>
