<?xml version="1.0" encoding="utf-8"?>
<!-- Generator: Adobe Illustrator 16.0.0, SVG Export Plug-In . SVG Version: 6.00 Build 0)  -->
<!DOCTYPE svg PUBLIC "-//W3C//DTD SVG 1.1//EN" "http://www.w3.org/Graphics/SVG/1.1/DTD/svg11.dtd">
<svg version="1.1" id="Layer_1" xmlns="http://www.w3.org/2000/svg" xmlns:xlink="http://www.w3.org/1999/xlink" x="0px" y="0px"
	 width="1731.484px" height="745.566px" viewBox="0 0 1731.484 745.566" enable-background="new 0 0 1731.484 745.566"
	 xml:space="preserve">
<path fill="none" stroke="#000000" stroke-linejoin="round" stroke-miterlimit="10" d="M62.114,180.356
	c3.718,0,6.732,3.014,6.732,6.732c0,3.718-3.015,6.732-6.732,6.732s-6.732-3.014-6.732-6.732
	C55.382,183.37,58.396,180.356,62.114,180.356z M62.114,128.356c3.718,0,6.732,3.014,6.732,6.732c0,3.718-3.015,6.732-6.732,6.732
	s-6.732-3.014-6.732-6.732C55.382,131.37,58.396,128.356,62.114,128.356z M118.685,232.356c3.718,0,6.731,3.014,6.731,6.732
	c0,3.718-3.014,6.732-6.731,6.732c-3.719,0-6.732-3.014-6.732-6.732C111.953,235.37,114.967,232.356,118.685,232.356z
	 M118.685,180.356c3.718,0,6.731,3.014,6.731,6.732c0,3.718-3.014,6.732-6.731,6.732c-3.719,0-6.732-3.014-6.732-6.732
	C111.953,183.37,114.967,180.356,118.685,180.356z M118.685,128.356c3.718,0,6.731,3.014,6.731,6.732
	c0,3.718-3.014,6.732-6.731,6.732c-3.719,0-6.732-3.014-6.732-6.732C111.953,131.37,114.967,128.356,118.685,128.356z
	 M175.255,232.356c3.719,0,6.732,3.014,6.732,6.732c0,3.718-3.014,6.732-6.732,6.732c-3.718,0-6.731-3.014-6.731-6.732
	C168.523,235.37,171.537,232.356,175.255,232.356z M175.255,180.356c3.719,0,6.732,3.014,6.732,6.732
	c0,3.718-3.014,6.732-6.732,6.732c-3.718,0-6.731-3.014-6.731-6.732C168.523,183.37,171.537,180.356,175.255,180.356z
	 M175.255,128.356c3.719,0,6.732,3.014,6.732,6.732c0,3.718-3.014,6.732-6.732,6.732c-3.718,0-6.731-3.014-6.731-6.732
	C168.523,131.37,171.537,128.356,175.255,128.356z M231.825,232.356c3.718,0,6.732,3.014,6.732,6.732
	c0,3.718-3.015,6.732-6.732,6.732s-6.732-3.014-6.732-6.732C225.093,235.37,228.107,232.356,231.825,232.356z M231.825,180.356
	c3.718,0,6.732,3.014,6.732,6.732c0,3.718-3.015,6.732-6.732,6.732s-6.732-3.014-6.732-6.732
	C225.093,183.37,228.107,180.356,231.825,180.356z M231.825,128.356c3.718,0,6.732,3.014,6.732,6.732
	c0,3.718-3.015,6.732-6.732,6.732s-6.732-3.014-6.732-6.732C225.093,131.37,228.107,128.356,231.825,128.356z M288.396,232.356
	c3.718,0,6.731,3.014,6.731,6.732c0,3.718-3.014,6.732-6.731,6.732s-6.732-3.014-6.732-6.732
	C281.664,235.37,284.678,232.356,288.396,232.356z M288.396,180.356c3.718,0,6.731,3.014,6.731,6.732
	c0,3.718-3.014,6.732-6.731,6.732s-6.732-3.014-6.732-6.732C281.664,183.37,284.678,180.356,288.396,180.356z M288.396,128.356
	c3.718,0,6.731,3.014,6.731,6.732c0,3.718-3.014,6.732-6.731,6.732s-6.732-3.014-6.732-6.732
	C281.664,131.37,284.678,128.356,288.396,128.356z M175.255,336.357c3.718,0,6.731,3.014,6.731,6.731
	c0,3.718-3.014,6.731-6.731,6.731c-3.717,0-6.73-3.013-6.73-6.731C168.524,339.371,171.538,336.357,175.255,336.357z
	 M231.825,505.818c-3.719,0-6.732-3.019-6.732-6.732s3.015-6.732,6.732-6.732s6.732,3.021,6.732,6.732
	C238.558,502.805,235.544,505.818,231.825,505.818z M231.825,453.818c-3.719,0-6.732-3.019-6.732-6.732s3.015-6.732,6.732-6.732
	s6.732,3.021,6.732,6.732C238.558,450.805,235.544,453.818,231.825,453.818z M231.825,401.818c-3.719,0-6.732-3.019-6.732-6.732
	s3.015-6.73,6.732-6.73s6.732,3.019,6.732,6.73C238.558,398.805,235.544,401.818,231.825,401.818z M231.825,336.357
	c3.718,0,6.731,3.014,6.731,6.731c0,3.718-3.014,6.731-6.731,6.731s-6.73-3.013-6.73-6.731
	C225.094,339.371,228.107,336.357,231.825,336.357z M288.396,609.818c-3.719,0-6.732-3.019-6.732-6.732s3.015-6.732,6.732-6.732
	s6.731,3.021,6.731,6.732C295.128,606.805,292.114,609.818,288.396,609.818z M288.396,557.818c-3.719,0-6.732-3.019-6.732-6.732
	s3.015-6.732,6.732-6.732s6.731,3.021,6.731,6.732C295.128,554.805,292.114,557.818,288.396,557.818z M288.396,505.818
	c-3.719,0-6.732-3.019-6.732-6.732s3.015-6.732,6.732-6.732s6.731,3.021,6.731,6.732
	C295.128,502.805,292.114,505.818,288.396,505.818z M288.396,453.818c-3.719,0-6.732-3.019-6.732-6.732s3.015-6.732,6.732-6.732
	s6.731,3.021,6.731,6.732C295.128,450.805,292.114,453.818,288.396,453.818z M288.396,401.818c-3.719,0-6.732-3.019-6.732-6.732
	s3.015-6.73,6.732-6.73s6.731,3.019,6.731,6.73C295.128,398.805,292.114,401.818,288.396,401.818z M288.396,336.357
	c3.717,0,6.73,3.014,6.73,6.731c0,3.718-3.014,6.731-6.73,6.731c-3.718,0-6.731-3.013-6.731-6.731
	C281.665,339.371,284.678,336.357,288.396,336.357z M344.967,557.818c-3.72,0-6.729-3.019-6.729-6.732s3.015-6.732,6.729-6.732
	s6.731,3.021,6.731,6.732C351.698,554.805,348.685,557.818,344.967,557.818z M344.967,505.818c-3.72,0-6.729-3.019-6.729-6.732
	s3.015-6.732,6.729-6.732s6.731,3.021,6.731,6.732C351.698,502.805,348.685,505.818,344.967,505.818z M344.967,453.818
	c-3.72,0-6.729-3.019-6.729-6.732s3.015-6.732,6.729-6.732s6.731,3.021,6.731,6.732
	C351.698,450.805,348.685,453.818,344.967,453.818z M344.967,401.818c-3.72,0-6.729-3.019-6.729-6.732s3.015-6.73,6.729-6.73
	s6.731,3.019,6.731,6.73C351.698,398.805,348.685,401.818,344.967,401.818z M344.967,336.357c3.717,0,6.73,3.014,6.73,6.731
	c0,3.718-3.014,6.731-6.73,6.731c-3.718,0-6.731-3.013-6.731-6.731C338.235,339.371,341.249,336.357,344.967,336.357z
	 M344.967,284.356c3.718,0,6.731,3.014,6.731,6.732c0,3.718-3.014,6.732-6.731,6.732c-3.719,0-6.732-3.014-6.732-6.732
	C338.234,287.37,341.248,284.356,344.967,284.356z M344.967,232.356c3.718,0,6.731,3.014,6.731,6.732
	c0,3.718-3.014,6.732-6.731,6.732c-3.719,0-6.732-3.014-6.732-6.732C338.234,235.37,341.248,232.356,344.967,232.356z
	 M344.967,180.356c3.718,0,6.731,3.014,6.731,6.732c0,3.718-3.014,6.732-6.731,6.732c-3.719,0-6.732-3.014-6.732-6.732
	C338.234,183.37,341.248,180.356,344.967,180.356z M344.967,128.356c3.718,0,6.731,3.014,6.731,6.732
	c0,3.718-3.014,6.732-6.731,6.732c-3.719,0-6.732-3.014-6.732-6.732C338.234,131.37,341.248,128.356,344.967,128.356z
	 M344.967,76.356c3.718,0,6.731,3.014,6.731,6.732c0,3.718-3.014,6.732-6.731,6.732c-3.719,0-6.732-3.014-6.732-6.732
	C338.234,79.37,341.248,76.356,344.967,76.356z M401.536,557.818c-3.719,0-6.731-3.019-6.731-6.732s3.017-6.732,6.731-6.732
	c3.716,0,6.729,3.021,6.729,6.732C408.269,554.805,405.256,557.818,401.536,557.818z M401.536,505.818
	c-3.719,0-6.731-3.019-6.731-6.732s3.017-6.732,6.731-6.732c3.716,0,6.729,3.021,6.729,6.732
	C408.269,502.805,405.256,505.818,401.536,505.818z M401.536,453.818c-3.719,0-6.731-3.019-6.731-6.732s3.017-6.732,6.731-6.732
	c3.716,0,6.729,3.021,6.729,6.732C408.269,450.805,405.256,453.818,401.536,453.818z M401.536,401.818
	c-3.719,0-6.731-3.019-6.731-6.732s3.017-6.73,6.731-6.73c3.716,0,6.729,3.019,6.729,6.73
	C408.269,398.805,405.256,401.818,401.536,401.818z M401.536,336.357c3.718,0,6.731,3.014,6.731,6.731
	c0,3.718-3.014,6.731-6.731,6.731c-3.717,0-6.73-3.013-6.73-6.731C394.805,339.371,397.819,336.357,401.536,336.357z
	 M401.536,297.82c-3.719,0-6.731-3.014-6.731-6.732c0-3.718,3.017-6.732,6.731-6.732c3.716,0,6.729,3.014,6.729,6.732
	C408.268,294.806,405.256,297.82,401.536,297.82z M401.536,245.82c-3.719,0-6.731-3.014-6.731-6.732
	c0-3.718,3.017-6.732,6.731-6.732c3.716,0,6.729,3.014,6.729,6.732C408.268,242.806,405.256,245.82,401.536,245.82z M401.536,193.82
	c-3.719,0-6.731-3.014-6.731-6.732c0-3.718,3.017-6.732,6.731-6.732c3.716,0,6.729,3.014,6.729,6.732
	C408.268,190.806,405.256,193.82,401.536,193.82z M401.536,141.82c-3.719,0-6.731-3.014-6.731-6.732
	c0-3.718,3.017-6.732,6.731-6.732c3.716,0,6.729,3.014,6.729,6.732C408.268,138.806,405.256,141.82,401.536,141.82z M401.536,89.82
	c-3.719,0-6.731-3.014-6.731-6.732c0-3.718,3.017-6.732,6.731-6.732c3.716,0,6.729,3.014,6.729,6.732
	C408.268,86.806,405.256,89.82,401.536,89.82z M458.106,505.818c-3.723,0-6.732-3.019-6.732-6.732s3.015-6.732,6.732-6.732
	s6.729,3.021,6.729,6.732C464.84,502.805,461.825,505.818,458.106,505.818z M458.106,453.818c-3.723,0-6.732-3.019-6.732-6.732
	s3.015-6.732,6.732-6.732s6.729,3.021,6.729,6.732C464.84,450.805,461.825,453.818,458.106,453.818z M458.106,401.818
	c-3.723,0-6.732-3.019-6.732-6.732s3.015-6.73,6.732-6.73s6.729,3.019,6.729,6.73C464.84,398.805,461.825,401.818,458.106,401.818z
	 M458.106,349.82c-3.723,0-6.732-3.015-6.732-6.732c0-3.717,3.015-6.731,6.732-6.731s6.729,3.014,6.729,6.731
	C464.838,346.805,461.825,349.82,458.106,349.82z M458.106,297.82c-3.723,0-6.732-3.014-6.732-6.732
	c0-3.718,3.015-6.732,6.732-6.732s6.729,3.014,6.729,6.732C464.839,294.806,461.825,297.82,458.106,297.82z M458.106,245.82
	c-3.723,0-6.732-3.014-6.732-6.732c0-3.718,3.015-6.732,6.732-6.732s6.729,3.014,6.729,6.732
	C464.839,242.806,461.825,245.82,458.106,245.82z M458.106,193.82c-3.723,0-6.732-3.014-6.732-6.732
	c0-3.718,3.015-6.732,6.732-6.732s6.729,3.014,6.729,6.732C464.839,190.806,461.825,193.82,458.106,193.82z M458.106,141.82
	c-3.723,0-6.732-3.014-6.732-6.732c0-3.718,3.015-6.732,6.732-6.732s6.729,3.014,6.729,6.732
	C464.839,138.806,461.825,141.82,458.106,141.82z M458.106,89.82c-3.723,0-6.732-3.014-6.732-6.732c0-3.718,3.015-6.732,6.732-6.732
	s6.729,3.014,6.729,6.732C464.839,86.806,461.825,89.82,458.106,89.82z M514.677,505.818c-3.72,0-6.729-3.019-6.729-6.732
	s3.015-6.732,6.729-6.732s6.731,3.021,6.731,6.732C521.409,502.805,518.396,505.818,514.677,505.818z M514.677,453.818
	c-3.72,0-6.729-3.019-6.729-6.732s3.015-6.732,6.729-6.732s6.731,3.021,6.731,6.732
	C521.409,450.805,518.396,453.818,514.677,453.818z M514.677,401.818c-3.72,0-6.729-3.019-6.729-6.732s3.015-6.73,6.729-6.73
	s6.731,3.019,6.731,6.73C521.409,398.805,518.396,401.818,514.677,401.818z M514.677,336.357c3.717,0,6.73,3.014,6.73,6.731
	c0,3.718-3.014,6.731-6.73,6.731c-3.718,0-6.731-3.013-6.731-6.731C507.946,339.371,510.96,336.357,514.677,336.357z
	 M514.677,284.356c3.718,0,6.731,3.014,6.731,6.732c0,3.718-3.014,6.732-6.731,6.732s-6.732-3.014-6.732-6.732
	C507.945,287.37,510.96,284.356,514.677,284.356z M514.677,232.356c3.718,0,6.731,3.014,6.731,6.732
	c0,3.718-3.014,6.732-6.731,6.732s-6.732-3.014-6.732-6.732C507.945,235.37,510.96,232.356,514.677,232.356z M514.677,180.356
	c3.718,0,6.731,3.014,6.731,6.732c0,3.718-3.014,6.732-6.731,6.732s-6.732-3.014-6.732-6.732
	C507.945,183.37,510.96,180.356,514.677,180.356z M514.677,128.356c3.718,0,6.731,3.014,6.731,6.732
	c0,3.718-3.014,6.732-6.731,6.732s-6.732-3.014-6.732-6.732C507.945,131.37,510.96,128.356,514.677,128.356z M514.677,76.356
	c3.718,0,6.731,3.014,6.731,6.732c0,3.718-3.014,6.732-6.731,6.732s-6.732-3.014-6.732-6.732
	C507.945,79.37,510.96,76.356,514.677,76.356z M571.247,505.818c-3.719,0-6.731-3.019-6.731-6.732s3.018-6.732,6.731-6.732
	c3.715,0,6.731,3.021,6.731,6.732C577.979,502.805,574.967,505.818,571.247,505.818z M571.247,453.818
	c-3.719,0-6.731-3.019-6.731-6.732s3.018-6.732,6.731-6.732c3.715,0,6.731,3.021,6.731,6.732
	C577.979,450.805,574.967,453.818,571.247,453.818z M571.247,401.818c-3.719,0-6.731-3.019-6.731-6.732s3.018-6.73,6.731-6.73
	c3.715,0,6.731,3.019,6.731,6.73C577.979,398.805,574.967,401.818,571.247,401.818z M571.247,349.82
	c-3.719,0-6.731-3.015-6.731-6.732c0-3.717,3.018-6.731,6.731-6.731c3.715,0,6.731,3.014,6.731,6.731
	C577.979,346.805,574.967,349.82,571.247,349.82z M571.247,297.82c-3.719,0-6.731-3.014-6.731-6.732
	c0-3.718,3.018-6.732,6.731-6.732c3.715,0,6.731,3.014,6.731,6.732C577.979,294.806,574.967,297.82,571.247,297.82z M571.247,245.82
	c-3.719,0-6.731-3.014-6.731-6.732c0-3.718,3.018-6.732,6.731-6.732c3.715,0,6.731,3.014,6.731,6.732
	C577.979,242.806,574.967,245.82,571.247,245.82z M571.247,193.82c-3.719,0-6.731-3.014-6.731-6.732
	c0-3.718,3.018-6.732,6.731-6.732c3.715,0,6.731,3.014,6.731,6.732C577.979,190.806,574.967,193.82,571.247,193.82z M571.247,141.82
	c-3.719,0-6.731-3.014-6.731-6.732c0-3.718,3.018-6.732,6.731-6.732c3.715,0,6.731,3.014,6.731,6.732
	C577.979,138.806,574.967,141.82,571.247,141.82z M571.247,89.82c-3.719,0-6.731-3.014-6.731-6.732c0-3.718,3.018-6.732,6.731-6.732
	c3.715,0,6.731,3.014,6.731,6.732C577.979,86.806,574.967,89.82,571.247,89.82z M627.817,505.818c-3.723,0-6.731-3.019-6.731-6.732
	s3.014-6.732,6.731-6.732s6.729,3.021,6.729,6.732C634.551,502.805,631.536,505.818,627.817,505.818z M627.817,453.818
	c-3.723,0-6.731-3.019-6.731-6.732s3.014-6.732,6.731-6.732s6.729,3.021,6.729,6.732
	C634.551,450.805,631.536,453.818,627.817,453.818z M627.817,401.818c-3.723,0-6.731-3.019-6.731-6.732s3.014-6.73,6.731-6.73
	s6.729,3.019,6.729,6.73C634.551,398.805,631.536,401.818,627.817,401.818z M627.817,349.82c-3.723,0-6.731-3.015-6.731-6.732
	c0-3.717,3.014-6.731,6.731-6.731s6.729,3.014,6.729,6.731C634.549,346.805,631.536,349.82,627.817,349.82z M627.817,297.82
	c-3.723,0-6.731-3.014-6.731-6.732c0-3.718,3.014-6.732,6.731-6.732s6.729,3.014,6.729,6.732
	C634.55,294.806,631.536,297.82,627.817,297.82z M627.817,245.82c-3.723,0-6.731-3.014-6.731-6.732c0-3.718,3.014-6.732,6.731-6.732
	s6.729,3.014,6.729,6.732C634.55,242.806,631.536,245.82,627.817,245.82z M627.817,193.82c-3.723,0-6.731-3.014-6.731-6.732
	c0-3.718,3.014-6.732,6.731-6.732s6.729,3.014,6.729,6.732C634.55,190.806,631.536,193.82,627.817,193.82z M627.817,141.82
	c-3.723,0-6.731-3.014-6.731-6.732c0-3.718,3.014-6.732,6.731-6.732s6.729,3.014,6.729,6.732
	C634.55,138.806,631.536,141.82,627.817,141.82z M627.817,89.82c-3.723,0-6.731-3.014-6.731-6.732c0-3.718,3.014-6.732,6.731-6.732
	s6.729,3.014,6.729,6.732C634.55,86.806,631.536,89.82,627.817,89.82z M684.388,505.818c-3.719,0-6.729-3.019-6.729-6.732
	s3.015-6.732,6.729-6.732c3.722,0,6.731,3.021,6.731,6.732C691.12,502.805,688.106,505.818,684.388,505.818z M684.388,453.818
	c-3.719,0-6.729-3.019-6.729-6.732s3.015-6.732,6.729-6.732c3.722,0,6.731,3.021,6.731,6.732
	C691.12,450.805,688.106,453.818,684.388,453.818z M684.388,401.818c-3.719,0-6.729-3.019-6.729-6.732s3.015-6.73,6.729-6.73
	c3.722,0,6.731,3.019,6.731,6.73C691.12,398.805,688.106,401.818,684.388,401.818z M684.388,349.82
	c-3.719,0-6.729-3.015-6.729-6.732c0-3.717,3.015-6.731,6.729-6.731c3.722,0,6.731,3.014,6.731,6.731
	C691.12,346.805,688.106,349.82,684.388,349.82z M684.388,297.82c-3.719,0-6.729-3.014-6.729-6.732c0-3.718,3.015-6.732,6.729-6.732
	c3.722,0,6.731,3.014,6.731,6.732C691.12,294.806,688.106,297.82,684.388,297.82z M684.388,245.82c-3.719,0-6.729-3.014-6.729-6.732
	c0-3.718,3.015-6.732,6.729-6.732c3.722,0,6.731,3.014,6.731,6.732C691.12,242.806,688.106,245.82,684.388,245.82z M684.388,193.82
	c-3.719,0-6.729-3.014-6.729-6.732c0-3.718,3.015-6.732,6.729-6.732c3.722,0,6.731,3.014,6.731,6.732
	C691.12,190.806,688.106,193.82,684.388,193.82z M684.388,141.82c-3.719,0-6.729-3.014-6.729-6.732c0-3.718,3.015-6.732,6.729-6.732
	c3.722,0,6.731,3.014,6.731,6.732C691.12,138.806,688.106,141.82,684.388,141.82z M684.388,89.82c-3.719,0-6.729-3.014-6.729-6.732
	c0-3.718,3.015-6.732,6.729-6.732c3.722,0,6.731,3.014,6.731,6.732C691.12,86.806,688.106,89.82,684.388,89.82z M684.388,37.82
	c-3.719,0-6.729-3.014-6.729-6.732c0-3.718,3.015-6.732,6.729-6.732c3.722,0,6.731,3.014,6.731,6.732
	C691.12,34.806,688.106,37.82,684.388,37.82z M740.958,505.818c-3.719,0-6.731-3.019-6.731-6.732s3.018-6.732,6.731-6.732
	c3.715,0,6.732,3.021,6.732,6.732C747.69,502.805,744.677,505.818,740.958,505.818z M740.958,453.818
	c-3.719,0-6.731-3.019-6.731-6.732s3.018-6.732,6.731-6.732c3.715,0,6.732,3.021,6.732,6.732
	C747.69,450.805,744.677,453.818,740.958,453.818z M740.958,401.818c-3.719,0-6.731-3.019-6.731-6.732s3.018-6.73,6.731-6.73
	c3.715,0,6.732,3.019,6.732,6.73C747.69,398.805,744.677,401.818,740.958,401.818z M740.958,349.82
	c-3.719,0-6.731-3.015-6.731-6.732c0-3.717,3.018-6.731,6.731-6.731c3.715,0,6.732,3.014,6.732,6.731
	C747.69,346.805,744.677,349.82,740.958,349.82z M740.958,297.82c-3.719,0-6.731-3.014-6.731-6.732c0-3.718,3.018-6.732,6.731-6.732
	c3.715,0,6.732,3.014,6.732,6.732C747.69,294.806,744.677,297.82,740.958,297.82z M740.958,245.82c-3.719,0-6.731-3.014-6.731-6.732
	c0-3.718,3.018-6.732,6.731-6.732c3.715,0,6.732,3.014,6.732,6.732C747.69,242.806,744.677,245.82,740.958,245.82z M740.958,193.82
	c-3.719,0-6.731-3.014-6.731-6.732c0-3.718,3.018-6.732,6.731-6.732c3.715,0,6.732,3.014,6.732,6.732
	C747.69,190.806,744.677,193.82,740.958,193.82z M740.958,141.82c-3.719,0-6.731-3.014-6.731-6.732c0-3.718,3.018-6.732,6.731-6.732
	c3.715,0,6.732,3.014,6.732,6.732C747.69,138.806,744.677,141.82,740.958,141.82z M740.958,89.82c-3.719,0-6.731-3.014-6.731-6.732
	c0-3.718,3.018-6.732,6.731-6.732c3.715,0,6.732,3.014,6.732,6.732C747.69,86.806,744.677,89.82,740.958,89.82z M740.958,37.82
	c-3.719,0-6.731-3.014-6.731-6.732c0-3.718,3.018-6.732,6.731-6.732c3.715,0,6.732,3.014,6.732,6.732
	C747.69,34.806,744.677,37.82,740.958,37.82z M797.528,505.818c-3.723,0-6.731-3.019-6.731-6.732s3.014-6.732,6.731-6.732
	s6.729,3.021,6.729,6.732C804.261,502.805,801.247,505.818,797.528,505.818z M797.528,453.818c-3.723,0-6.731-3.019-6.731-6.732
	s3.014-6.732,6.731-6.732s6.729,3.021,6.729,6.732C804.261,450.805,801.247,453.818,797.528,453.818z M797.528,401.818
	c-3.723,0-6.731-3.019-6.731-6.732s3.014-6.73,6.731-6.73s6.729,3.019,6.729,6.73C804.261,398.805,801.247,401.818,797.528,401.818z
	 M797.528,349.82c-3.723,0-6.731-3.015-6.731-6.732c0-3.717,3.014-6.731,6.731-6.731s6.729,3.014,6.729,6.731
	C804.26,346.805,801.247,349.82,797.528,349.82z M797.528,297.82c-3.723,0-6.731-3.014-6.731-6.732c0-3.718,3.014-6.732,6.731-6.732
	s6.729,3.014,6.729,6.732C804.26,294.806,801.247,297.82,797.528,297.82z M797.528,245.82c-3.723,0-6.731-3.014-6.731-6.732
	c0-3.718,3.014-6.732,6.731-6.732s6.729,3.014,6.729,6.732C804.26,242.806,801.247,245.82,797.528,245.82z M797.528,193.82
	c-3.723,0-6.731-3.014-6.731-6.732c0-3.718,3.014-6.732,6.731-6.732s6.729,3.014,6.729,6.732
	C804.26,190.806,801.247,193.82,797.528,193.82z M797.528,141.82c-3.723,0-6.731-3.014-6.731-6.732c0-3.718,3.014-6.732,6.731-6.732
	s6.729,3.014,6.729,6.732C804.26,138.806,801.247,141.82,797.528,141.82z M797.528,89.82c-3.723,0-6.731-3.014-6.731-6.732
	c0-3.718,3.014-6.732,6.731-6.732s6.729,3.014,6.729,6.732C804.26,86.806,801.247,89.82,797.528,89.82z M797.528,37.82
	c-3.723,0-6.731-3.014-6.731-6.732c0-3.718,3.014-6.732,6.731-6.732s6.729,3.014,6.729,6.732
	C804.26,34.806,801.247,37.82,797.528,37.82z M854.098,505.818c-3.719,0-6.729-3.019-6.729-6.732s3.015-6.732,6.729-6.732
	c3.721,0,6.731,3.021,6.731,6.732C860.83,502.805,857.816,505.818,854.098,505.818z M854.098,453.818
	c-3.719,0-6.729-3.019-6.729-6.732s3.015-6.732,6.729-6.732c3.721,0,6.731,3.021,6.731,6.732
	C860.83,450.805,857.816,453.818,854.098,453.818z M854.098,401.818c-3.719,0-6.729-3.019-6.729-6.732s3.015-6.73,6.729-6.73
	c3.721,0,6.731,3.019,6.731,6.73C860.83,398.805,857.816,401.818,854.098,401.818z M854.098,349.82
	c-3.719,0-6.729-3.015-6.729-6.732c0-3.717,3.015-6.731,6.729-6.731c3.721,0,6.731,3.014,6.731,6.731
	C860.83,346.805,857.816,349.82,854.098,349.82z M854.098,297.82c-3.719,0-6.729-3.014-6.729-6.732c0-3.718,3.015-6.732,6.729-6.732
	c3.721,0,6.731,3.014,6.731,6.732C860.83,294.806,857.816,297.82,854.098,297.82z M854.098,245.82c-3.719,0-6.729-3.014-6.729-6.732
	c0-3.718,3.015-6.732,6.729-6.732c3.721,0,6.731,3.014,6.731,6.732C860.83,242.806,857.816,245.82,854.098,245.82z M854.098,193.82
	c-3.719,0-6.729-3.014-6.729-6.732c0-3.718,3.015-6.732,6.729-6.732c3.721,0,6.731,3.014,6.731,6.732
	C860.83,190.806,857.816,193.82,854.098,193.82z M854.098,141.82c-3.719,0-6.729-3.014-6.729-6.732c0-3.718,3.015-6.732,6.729-6.732
	c3.721,0,6.731,3.014,6.731,6.732C860.83,138.806,857.816,141.82,854.098,141.82z M854.098,89.82c-3.719,0-6.729-3.014-6.729-6.732
	c0-3.718,3.015-6.732,6.729-6.732c3.721,0,6.731,3.014,6.731,6.732C860.83,86.806,857.816,89.82,854.098,89.82z M854.098,37.82
	c-3.719,0-6.729-3.014-6.729-6.732c0-3.718,3.015-6.732,6.729-6.732c3.721,0,6.731,3.014,6.731,6.732
	C860.83,34.806,857.816,37.82,854.098,37.82z M910.671,505.818c-3.72,0-6.732-3.019-6.732-6.732s3.016-6.732,6.732-6.732
	c3.716,0,6.731,3.021,6.731,6.732C917.402,502.805,914.389,505.818,910.671,505.818z M910.671,453.818
	c-3.72,0-6.732-3.019-6.732-6.732s3.016-6.732,6.732-6.732c3.716,0,6.731,3.021,6.731,6.732
	C917.402,450.805,914.389,453.818,910.671,453.818z M910.671,401.818c-3.72,0-6.732-3.019-6.732-6.732s3.016-6.73,6.732-6.73
	c3.716,0,6.731,3.019,6.731,6.73C917.402,398.805,914.389,401.818,910.671,401.818z M910.671,336.357c3.717,0,6.73,3.014,6.73,6.731
	c0,3.718-3.014,6.731-6.73,6.731c-3.718,0-6.731-3.013-6.731-6.731C903.939,339.371,906.953,336.357,910.671,336.357z
	 M910.671,284.356c3.718,0,6.731,3.014,6.731,6.732c0,3.718-3.014,6.732-6.731,6.732c-3.719,0-6.732-3.014-6.732-6.732
	C903.938,287.37,906.952,284.356,910.671,284.356z M910.671,232.356c3.718,0,6.731,3.014,6.731,6.732
	c0,3.718-3.014,6.732-6.731,6.732c-3.719,0-6.732-3.014-6.732-6.732C903.938,235.37,906.952,232.356,910.671,232.356z
	 M910.671,180.356c3.718,0,6.731,3.014,6.731,6.732c0,3.718-3.014,6.732-6.731,6.732c-3.719,0-6.732-3.014-6.732-6.732
	C903.938,183.37,906.952,180.356,910.671,180.356z M910.671,128.356c3.718,0,6.731,3.014,6.731,6.732
	c0,3.718-3.014,6.732-6.731,6.732c-3.719,0-6.732-3.014-6.732-6.732C903.938,131.37,906.952,128.356,910.671,128.356z
	 M910.671,76.356c3.718,0,6.731,3.014,6.731,6.732c0,3.718-3.014,6.732-6.731,6.732c-3.719,0-6.732-3.014-6.732-6.732
	C903.938,79.37,906.952,76.356,910.671,76.356z M910.671,24.356c3.718,0,6.731,3.014,6.731,6.732c0,3.718-3.014,6.732-6.731,6.732
	c-3.719,0-6.732-3.014-6.732-6.732C903.938,27.37,906.952,24.356,910.671,24.356z M967.24,505.818c-3.719,0-6.731-3.019-6.731-6.732
	s3.018-6.732,6.731-6.732s6.729,3.021,6.729,6.732C973.973,502.805,970.96,505.818,967.24,505.818z M967.24,453.818
	c-3.719,0-6.731-3.019-6.731-6.732s3.018-6.732,6.731-6.732s6.729,3.021,6.729,6.732C973.973,450.805,970.96,453.818,967.24,453.818
	z M967.24,401.818c-3.719,0-6.731-3.019-6.731-6.732s3.018-6.73,6.731-6.73s6.729,3.019,6.729,6.73
	C973.973,398.805,970.96,401.818,967.24,401.818z M967.24,349.82c-3.719,0-6.731-3.015-6.731-6.732c0-3.717,3.018-6.731,6.731-6.731
	s6.729,3.014,6.729,6.731C973.971,346.805,970.96,349.82,967.24,349.82z M967.24,297.82c-3.719,0-6.731-3.014-6.731-6.732
	c0-3.718,3.018-6.732,6.731-6.732s6.729,3.014,6.729,6.732C973.971,294.806,970.96,297.82,967.24,297.82z M967.24,245.82
	c-3.719,0-6.731-3.014-6.731-6.732c0-3.718,3.018-6.732,6.731-6.732s6.729,3.014,6.729,6.732
	C973.971,242.806,970.96,245.82,967.24,245.82z M967.24,193.82c-3.719,0-6.731-3.014-6.731-6.732c0-3.718,3.018-6.732,6.731-6.732
	s6.729,3.014,6.729,6.732C973.971,190.806,970.96,193.82,967.24,193.82z M967.24,141.82c-3.719,0-6.731-3.014-6.731-6.732
	c0-3.718,3.018-6.732,6.731-6.732s6.729,3.014,6.729,6.732C973.971,138.806,970.96,141.82,967.24,141.82z M967.24,89.82
	c-3.719,0-6.731-3.014-6.731-6.732c0-3.718,3.018-6.732,6.731-6.732s6.729,3.014,6.729,6.732
	C973.971,86.806,970.96,89.82,967.24,89.82z M1023.811,505.818c-3.719,0-6.73-3.019-6.73-6.732s3.015-6.732,6.73-6.732
	c3.72,0,6.732,3.021,6.732,6.732C1030.544,502.805,1027.529,505.818,1023.811,505.818z M1023.811,453.818
	c-3.719,0-6.73-3.019-6.73-6.732s3.015-6.732,6.73-6.732c3.72,0,6.732,3.021,6.732,6.732
	C1030.544,450.805,1027.529,453.818,1023.811,453.818z M1023.811,401.818c-3.719,0-6.73-3.019-6.73-6.732s3.015-6.73,6.73-6.73
	c3.72,0,6.732,3.019,6.732,6.73C1030.544,398.805,1027.529,401.818,1023.811,401.818z M1023.811,336.357
	c3.718,0,6.73,3.014,6.73,6.731c0,3.718-3.013,6.731-6.73,6.731s-6.731-3.013-6.731-6.731
	C1017.08,339.371,1020.094,336.357,1023.811,336.357z M1023.811,284.356c3.718,0,6.732,3.014,6.732,6.732
	c0,3.718-3.015,6.732-6.732,6.732s-6.732-3.014-6.732-6.732C1017.079,287.37,1020.094,284.356,1023.811,284.356z M1023.811,232.356
	c3.718,0,6.732,3.014,6.732,6.732c0,3.718-3.015,6.732-6.732,6.732s-6.732-3.014-6.732-6.732
	C1017.079,235.37,1020.094,232.356,1023.811,232.356z M1023.811,180.356c3.718,0,6.732,3.014,6.732,6.732
	c0,3.718-3.015,6.732-6.732,6.732s-6.732-3.014-6.732-6.732C1017.079,183.37,1020.094,180.356,1023.811,180.356z M1023.811,128.356
	c3.718,0,6.732,3.014,6.732,6.732c0,3.718-3.015,6.732-6.732,6.732s-6.732-3.014-6.732-6.732
	C1017.079,131.37,1020.094,128.356,1023.811,128.356z M1080.382,505.818c-3.72,0-6.732-3.019-6.732-6.732s3.016-6.732,6.732-6.732
	c3.716,0,6.731,3.021,6.731,6.732C1087.113,502.805,1084.1,505.818,1080.382,505.818z M1080.382,453.818
	c-3.72,0-6.732-3.019-6.732-6.732s3.016-6.732,6.732-6.732c3.716,0,6.731,3.021,6.731,6.732
	C1087.113,450.805,1084.1,453.818,1080.382,453.818z M1080.382,401.818c-3.72,0-6.732-3.019-6.732-6.732s3.016-6.73,6.732-6.73
	c3.716,0,6.731,3.019,6.731,6.73C1087.113,398.805,1084.1,401.818,1080.382,401.818z M1080.382,336.357
	c3.717,0,6.73,3.014,6.73,6.731c0,3.718-3.014,6.731-6.73,6.731c-3.718,0-6.731-3.013-6.731-6.731
	C1073.65,339.371,1076.664,336.357,1080.382,336.357z M1080.382,284.356c3.718,0,6.731,3.014,6.731,6.732
	c0,3.718-3.014,6.732-6.731,6.732c-3.719,0-6.732-3.014-6.732-6.732C1073.649,287.37,1076.663,284.356,1080.382,284.356z
	 M1080.382,232.356c3.718,0,6.731,3.014,6.731,6.732c0,3.718-3.014,6.732-6.731,6.732c-3.719,0-6.732-3.014-6.732-6.732
	C1073.649,235.37,1076.663,232.356,1080.382,232.356z M1080.382,180.356c3.718,0,6.731,3.014,6.731,6.732
	c0,3.718-3.014,6.732-6.731,6.732c-3.719,0-6.732-3.014-6.732-6.732C1073.649,183.37,1076.663,180.356,1080.382,180.356z
	 M1080.382,128.356c3.718,0,6.731,3.014,6.731,6.732c0,3.718-3.014,6.732-6.731,6.732c-3.719,0-6.732-3.014-6.732-6.732
	C1073.649,131.37,1076.663,128.356,1080.382,128.356z M1136.951,505.818c-3.719,0-6.731-3.019-6.731-6.732s3.018-6.732,6.731-6.732
	c3.715,0,6.732,3.021,6.732,6.732C1143.684,502.805,1140.671,505.818,1136.951,505.818z M1136.951,453.818
	c-3.719,0-6.731-3.019-6.731-6.732s3.018-6.732,6.731-6.732c3.715,0,6.732,3.021,6.732,6.732
	C1143.684,450.805,1140.671,453.818,1136.951,453.818z M1136.951,401.818c-3.719,0-6.731-3.019-6.731-6.732s3.018-6.73,6.731-6.73
	c3.715,0,6.732,3.019,6.732,6.73C1143.684,398.805,1140.671,401.818,1136.951,401.818z M1136.951,349.82
	c-3.719,0-6.731-3.015-6.731-6.732c0-3.717,3.018-6.731,6.731-6.731c3.715,0,6.732,3.014,6.732,6.731
	C1143.684,346.805,1140.671,349.82,1136.951,349.82z M1136.951,297.82c-3.719,0-6.731-3.014-6.731-6.732
	c0-3.718,3.018-6.732,6.731-6.732c3.715,0,6.732,3.014,6.732,6.732C1143.684,294.806,1140.671,297.82,1136.951,297.82z
	 M1136.951,245.82c-3.719,0-6.731-3.014-6.731-6.732c0-3.718,3.018-6.732,6.731-6.732c3.715,0,6.732,3.014,6.732,6.732
	C1143.684,242.806,1140.671,245.82,1136.951,245.82z M1136.951,193.82c-3.719,0-6.731-3.014-6.731-6.732
	c0-3.718,3.018-6.732,6.731-6.732c3.715,0,6.732,3.014,6.732,6.732C1143.684,190.806,1140.671,193.82,1136.951,193.82z
	 M1193.521,557.818c-3.723,0-6.732-3.019-6.732-6.732s3.015-6.732,6.732-6.732c3.717,0,6.729,3.021,6.729,6.732
	C1200.255,554.805,1197.24,557.818,1193.521,557.818z M1193.521,505.818c-3.723,0-6.732-3.019-6.732-6.732s3.015-6.732,6.732-6.732
	c3.717,0,6.729,3.021,6.729,6.732C1200.255,502.805,1197.24,505.818,1193.521,505.818z M1193.521,453.818
	c-3.723,0-6.732-3.019-6.732-6.732s3.015-6.732,6.732-6.732c3.717,0,6.729,3.021,6.729,6.732
	C1200.255,450.805,1197.24,453.818,1193.521,453.818z M1193.521,401.818c-3.723,0-6.732-3.019-6.732-6.732s3.015-6.73,6.732-6.73
	c3.717,0,6.729,3.019,6.729,6.73C1200.255,398.805,1197.24,401.818,1193.521,401.818z M1193.521,349.82
	c-3.723,0-6.732-3.015-6.732-6.732c0-3.717,3.015-6.731,6.732-6.731c3.717,0,6.729,3.014,6.729,6.731
	C1200.253,346.805,1197.24,349.82,1193.521,349.82z M1193.521,297.82c-3.723,0-6.732-3.014-6.732-6.732
	c0-3.718,3.015-6.732,6.732-6.732c3.717,0,6.729,3.014,6.729,6.732C1200.253,294.806,1197.24,297.82,1193.521,297.82z
	 M1193.521,245.82c-3.723,0-6.732-3.014-6.732-6.732c0-3.718,3.015-6.732,6.732-6.732c3.717,0,6.729,3.014,6.729,6.732
	C1200.253,242.806,1197.24,245.82,1193.521,245.82z M1589.514,596.354c3.721,0,6.732,3.019,6.732,6.732s-3.015,6.732-6.732,6.732
	s-6.73-3.019-6.73-6.732S1585.796,596.354,1589.514,596.354z M1532.943,544.354c3.719,0,6.729,3.021,6.729,6.732
	c0,3.719-3.015,6.732-6.729,6.732c-3.721,0-6.731-3.019-6.731-6.732S1529.225,544.354,1532.943,544.354z M1532.943,596.354
	c3.719,0,6.729,3.019,6.729,6.732s-3.015,6.732-6.729,6.732c-3.721,0-6.731-3.019-6.731-6.732S1529.225,596.354,1532.943,596.354z
	 M1532.943,648.354c3.719,0,6.729,3.019,6.729,6.732s-3.015,6.732-6.729,6.732c-3.721,0-6.731-3.019-6.731-6.732
	S1529.225,648.354,1532.943,648.354z M1476.374,492.354c3.719,0,6.731,3.021,6.731,6.732c0,3.719-3.018,6.732-6.731,6.732
	c-3.72,0-6.732-3.019-6.732-6.732S1472.654,492.354,1476.374,492.354z M1476.374,544.354c3.719,0,6.731,3.021,6.731,6.732
	c0,3.719-3.018,6.732-6.731,6.732c-3.72,0-6.732-3.019-6.732-6.732S1472.654,544.354,1476.374,544.354z M1476.374,596.354
	c3.719,0,6.731,3.019,6.731,6.732s-3.018,6.732-6.731,6.732c-3.72,0-6.732-3.019-6.732-6.732S1472.654,596.354,1476.374,596.354z
	 M1476.374,648.354c3.719,0,6.731,3.019,6.731,6.732s-3.018,6.732-6.731,6.732c-3.72,0-6.732-3.019-6.732-6.732
	S1472.654,648.354,1476.374,648.354z M1476.374,700.354c3.719,0,6.731,3.019,6.731,6.732s-3.018,6.732-6.731,6.732
	c-3.72,0-6.732-3.019-6.732-6.732S1472.654,700.354,1476.374,700.354z M1419.803,440.354c3.719,0,6.731,3.021,6.731,6.732
	c0,3.719-3.014,6.732-6.731,6.732c-3.719,0-6.73-3.019-6.73-6.732S1416.085,440.354,1419.803,440.354z M1419.803,492.354
	c3.719,0,6.731,3.021,6.731,6.732c0,3.719-3.014,6.732-6.731,6.732c-3.719,0-6.73-3.019-6.73-6.732
	S1416.085,492.354,1419.803,492.354z M1419.803,544.354c3.719,0,6.731,3.021,6.731,6.732c0,3.719-3.014,6.732-6.731,6.732
	c-3.719,0-6.73-3.019-6.73-6.732S1416.085,544.354,1419.803,544.354z M1419.803,596.354c3.719,0,6.731,3.019,6.731,6.732
	s-3.014,6.732-6.731,6.732c-3.719,0-6.73-3.019-6.73-6.732S1416.085,596.354,1419.803,596.354z M1363.232,388.354
	c3.719,0,6.729,3.02,6.729,6.731c0,3.72-3.015,6.731-6.729,6.731c-3.721,0-6.731-3.018-6.731-6.731
	S1359.514,388.354,1363.232,388.354z M1363.232,440.354c3.719,0,6.729,3.021,6.729,6.732c0,3.719-3.015,6.732-6.729,6.732
	c-3.721,0-6.731-3.019-6.731-6.732S1359.514,440.354,1363.232,440.354z M1363.232,492.354c3.719,0,6.729,3.021,6.729,6.732
	c0,3.719-3.015,6.732-6.729,6.732c-3.721,0-6.731-3.019-6.731-6.732S1359.514,492.354,1363.232,492.354z M1363.232,544.354
	c3.719,0,6.729,3.021,6.729,6.732c0,3.719-3.015,6.732-6.729,6.732c-3.721,0-6.731-3.019-6.731-6.732
	S1359.514,544.354,1363.232,544.354z M1363.232,596.354c3.719,0,6.729,3.019,6.729,6.732s-3.015,6.732-6.729,6.732
	c-3.721,0-6.731-3.019-6.731-6.732S1359.514,596.354,1363.232,596.354z M1306.662,336.355c3.718,0,6.731,3.014,6.731,6.731
	s-3.014,6.731-6.731,6.731c-3.717,0-6.73-3.014-6.73-6.731S1302.945,336.355,1306.662,336.355z M1306.662,388.354
	c3.72,0,6.732,3.02,6.732,6.731c0,3.72-3.018,6.731-6.732,6.731c-3.719,0-6.731-3.018-6.731-6.731
	S1302.943,388.354,1306.662,388.354z M1306.662,440.354c3.72,0,6.732,3.021,6.732,6.732c0,3.719-3.018,6.732-6.732,6.732
	c-3.719,0-6.731-3.019-6.731-6.732S1302.943,440.354,1306.662,440.354z M1306.662,492.354c3.72,0,6.732,3.021,6.732,6.732
	c0,3.719-3.018,6.732-6.732,6.732c-3.719,0-6.731-3.019-6.731-6.732S1302.943,492.354,1306.662,492.354z M1306.662,544.354
	c3.72,0,6.732,3.021,6.732,6.732c0,3.719-3.018,6.732-6.732,6.732c-3.719,0-6.731-3.019-6.731-6.732
	S1302.943,544.354,1306.662,544.354z M1250.093,284.355c3.718,0,6.731,3.014,6.731,6.732c0,3.718-3.014,6.732-6.731,6.732
	c-3.719,0-6.732-3.014-6.732-6.732C1243.36,287.369,1246.374,284.355,1250.093,284.355z M1250.093,336.355
	c3.717,0,6.73,3.014,6.73,6.731s-3.014,6.731-6.73,6.731c-3.718,0-6.731-3.014-6.731-6.731S1246.375,336.355,1250.093,336.355z
	 M1250.093,388.354c3.719,0,6.731,3.02,6.731,6.731c0,3.72-3.014,6.731-6.731,6.731c-3.719,0-6.73-3.018-6.73-6.731
	S1246.374,388.354,1250.093,388.354z M1250.093,440.354c3.719,0,6.731,3.021,6.731,6.732c0,3.719-3.014,6.732-6.731,6.732
	c-3.719,0-6.73-3.019-6.73-6.732S1246.374,440.354,1250.093,440.354z M1250.093,492.354c3.719,0,6.731,3.021,6.731,6.732
	c0,3.719-3.014,6.732-6.731,6.732c-3.719,0-6.73-3.019-6.73-6.732S1246.374,492.354,1250.093,492.354z M1250.093,544.354
	c3.719,0,6.731,3.021,6.731,6.732c0,3.719-3.014,6.732-6.731,6.732c-3.719,0-6.73-3.019-6.73-6.732
	S1246.374,544.354,1250.093,544.354z M1670.779,598.351c0.693-0.838,1.27-1.788,1.761-2.821c1.225-2.576,2.434-4.946,4.439-7.02
	c3.925-4.052,8.458-7.2,13.85-8.935c3.049-0.98,6.271-1.475,9.476-1.475c17.221,0,31.182,13.962,31.182,31.183
	s-13.961,31.181-31.182,31.181c-2.42,0-5.054-0.535-7.413-1.033c-2.414-0.51-4.774-1.271-6.987-2.366
	c-4.41-2.188-7.996-5.625-10.808-9.631c-0.771-1.096-1.484-2.229-2.169-3.379c-0.34-0.572-0.673-1.147-1.001-1.728
	c-1.37-2.41-3.247-3.397-6.019-3.584c-4.082-0.274-8.464,0.498-12.027,2.548L1450.82,745.566c0,0-31.417-82.22-69.604-105.763
	c-96.357-59.428-127.312-56.432-316.457-89.699c-185.985-32.719-411.232-19.606-518.188-10.827
	c-106.956,8.776-196.236,54.909-238.078,74.58c-41.841,19.67-59.316,16.672-65.915-3c-6.589-19.676-88.856-224.203-94.051-245.57
	c-5.184-21.374,2.597-37.748,19.182-44.04c16.574-6.29,136.613-41.333,151.794-45.925c15.18-4.593,10.886-16.678-6.291-16.578
	c-17.18,0.099-114.841,7.979-137.911,11.773c-23.073,3.794-46.435,4.489-63.414-9.492c-16.973-13.984-87.769-83.691-98.252-95.182
	c-10.484-11.481-25.766-24.069,2.598-37.749C44.594,114.414,750.43-2.262,839.714,0.033
	c89.274,2.308,270.114,111.373,373.18,207.648c90.169,84.247,371.871,330.614,440.864,390.869
	C1658.197,602.428,1666.706,603.273,1670.779,598.351z"/>
</svg>
