<?xml version="1.0" encoding="utf-8"?>
<!-- Generator: Adobe Illustrator 16.0.0, SVG Export Plug-In . SVG Version: 6.00 Build 0)  -->
<!DOCTYPE svg PUBLIC "-//W3C//DTD SVG 1.1//EN" "http://www.w3.org/Graphics/SVG/1.1/DTD/svg11.dtd">
<svg version="1.1" id="Layer_1" xmlns="http://www.w3.org/2000/svg" xmlns:xlink="http://www.w3.org/1999/xlink" x="0px" y="0px"
	 width="1295.75px" height="435.195px" viewBox="0 0 1295.75 435.195" enable-background="new 0 0 1295.75 435.195"
	 xml:space="preserve">
<path fill="none" stroke="#000000" stroke-linejoin="round" stroke-miterlimit="10" d="M121.223,236.868
	c3.718,0,6.731,3.014,6.731,6.731c0,3.717-3.014,6.73-6.731,6.73s-6.73-3.014-6.73-6.73
	C114.492,239.882,117.505,236.868,121.223,236.868z M177.794,236.868c3.717,0,6.73,3.014,6.73,6.731c0,3.717-3.014,6.73-6.73,6.73
	c-3.718,0-6.731-3.014-6.731-6.73C171.063,239.882,174.076,236.868,177.794,236.868z M234.364,236.868
	c3.718,0,6.731,3.014,6.731,6.731c0,3.717-3.014,6.73-6.731,6.73c-3.717,0-6.73-3.014-6.73-6.73
	C227.633,239.882,230.647,236.868,234.364,236.868z M234.364,184.866c3.719,0,6.732,3.014,6.732,6.732
	c0,3.718-3.014,6.732-6.732,6.732c-3.718,0-6.731-3.014-6.731-6.732C227.632,187.88,230.646,184.866,234.364,184.866z
	 M290.934,236.868c3.718,0,6.731,3.014,6.731,6.731c0,3.717-3.014,6.73-6.731,6.73s-6.73-3.014-6.73-6.73
	C284.203,239.882,287.216,236.868,290.934,236.868z M290.934,184.866c3.718,0,6.732,3.014,6.732,6.732
	c0,3.718-3.015,6.732-6.732,6.732s-6.731-3.014-6.731-6.732C284.202,187.88,287.216,184.866,290.934,184.866z M290.934,132.866
	c3.718,0,6.732,3.014,6.732,6.732c0,3.718-3.015,6.732-6.732,6.732s-6.731-3.014-6.731-6.732
	C284.202,135.88,287.216,132.866,290.934,132.866z M347.505,236.868c3.717,0,6.73,3.014,6.73,6.731c0,3.717-3.014,6.73-6.73,6.73
	c-3.718,0-6.731-3.014-6.731-6.73C340.774,239.882,343.787,236.868,347.505,236.868z M347.505,184.866
	c3.718,0,6.731,3.014,6.731,6.732c0,3.718-3.014,6.732-6.731,6.732c-3.719,0-6.732-3.014-6.732-6.732
	C340.773,187.88,343.786,184.866,347.505,184.866z M347.505,132.866c3.718,0,6.731,3.014,6.731,6.732
	c0,3.718-3.014,6.732-6.731,6.732c-3.719,0-6.732-3.014-6.732-6.732C340.773,135.88,343.786,132.866,347.505,132.866z
	 M404.074,288.868c3.718,0,6.731,3.014,6.731,6.731c0,3.717-3.014,6.73-6.731,6.73c-3.717,0-6.73-3.014-6.73-6.73
	C397.344,291.882,400.358,288.868,404.074,288.868z M404.074,236.868c3.718,0,6.731,3.014,6.731,6.731
	c0,3.717-3.014,6.73-6.731,6.73c-3.717,0-6.73-3.014-6.73-6.73C397.344,239.882,400.358,236.868,404.074,236.868z M404.074,184.866
	c3.719,0,6.732,3.014,6.732,6.732c0,3.718-3.014,6.732-6.732,6.732c-3.718,0-6.731-3.014-6.731-6.732
	C397.343,187.88,400.357,184.866,404.074,184.866z M404.074,132.866c3.719,0,6.732,3.014,6.732,6.732
	c0,3.718-3.014,6.732-6.732,6.732c-3.718,0-6.731-3.014-6.731-6.732C397.343,135.88,400.357,132.866,404.074,132.866z
	 M404.074,80.866c3.719,0,6.732,3.014,6.732,6.732c0,3.718-3.014,6.732-6.732,6.732c-3.718,0-6.731-3.014-6.731-6.732
	C397.343,83.88,400.357,80.866,404.074,80.866z M460.646,302.33c-3.721,0-6.732-3.016-6.732-6.73c0-3.716,3.016-6.73,6.732-6.73
	s6.729,3.016,6.729,6.73C467.378,299.314,464.364,302.33,460.646,302.33z M460.646,250.33c-3.721,0-6.732-3.016-6.732-6.73
	c0-3.716,3.016-6.73,6.732-6.73s6.729,3.016,6.729,6.73C467.378,247.314,464.364,250.33,460.646,250.33z M460.646,184.866
	c3.718,0,6.732,3.014,6.732,6.732c0,3.718-3.015,6.732-6.732,6.732s-6.732-3.014-6.732-6.732
	C453.913,187.88,456.928,184.866,460.646,184.866z M460.646,132.866c3.718,0,6.732,3.014,6.732,6.732
	c0,3.718-3.015,6.732-6.732,6.732s-6.732-3.014-6.732-6.732C453.913,135.88,456.928,132.866,460.646,132.866z M460.646,80.866
	c3.718,0,6.732,3.014,6.732,6.732c0,3.718-3.015,6.732-6.732,6.732s-6.732-3.014-6.732-6.732
	C453.913,83.88,456.928,80.866,460.646,80.866z M517.216,302.33c-3.72,0-6.729-3.016-6.729-6.73c0-3.716,3.014-6.73,6.729-6.73
	c3.72,0,6.731,3.016,6.731,6.73S520.935,302.33,517.216,302.33z M517.216,250.33c-3.72,0-6.729-3.016-6.729-6.73
	c0-3.716,3.014-6.73,6.729-6.73c3.72,0,6.731,3.016,6.731,6.73S520.935,250.33,517.216,250.33z M517.216,198.33
	c-3.72,0-6.729-3.014-6.729-6.732c0-3.718,3.014-6.732,6.729-6.732c3.72,0,6.731,3.014,6.731,6.732
	C523.948,195.315,520.935,198.33,517.216,198.33z M517.216,146.33c-3.72,0-6.729-3.014-6.729-6.732c0-3.718,3.014-6.732,6.729-6.732
	c3.72,0,6.731,3.014,6.731,6.732C523.948,143.315,520.935,146.33,517.216,146.33z M517.216,94.33c-3.72,0-6.729-3.014-6.729-6.732
	c0-3.718,3.014-6.732,6.729-6.732c3.72,0,6.731,3.014,6.731,6.732C523.948,91.315,520.935,94.33,517.216,94.33z M517.216,42.33
	c-3.72,0-6.729-3.014-6.729-6.732c0-3.718,3.014-6.732,6.729-6.732c3.72,0,6.731,3.014,6.731,6.732
	C523.948,39.315,520.935,42.33,517.216,42.33z M573.785,288.868c3.718,0,6.731,3.014,6.731,6.731c0,3.717-3.014,6.73-6.731,6.73
	c-3.717,0-6.73-3.014-6.73-6.73C567.055,291.882,570.069,288.868,573.785,288.868z M573.785,236.868
	c3.718,0,6.731,3.014,6.731,6.731c0,3.717-3.014,6.73-6.731,6.73c-3.717,0-6.73-3.014-6.73-6.73
	C567.055,239.882,570.069,236.868,573.785,236.868z M573.785,184.866c3.719,0,6.732,3.014,6.732,6.732
	c0,3.718-3.014,6.732-6.732,6.732c-3.718,0-6.731-3.014-6.731-6.732C567.054,187.88,570.068,184.866,573.785,184.866z
	 M573.785,132.866c3.719,0,6.732,3.014,6.732,6.732c0,3.718-3.014,6.732-6.732,6.732c-3.718,0-6.731-3.014-6.731-6.732
	C567.054,135.88,570.068,132.866,573.785,132.866z M573.785,80.866c3.719,0,6.732,3.014,6.732,6.732
	c0,3.718-3.014,6.732-6.732,6.732c-3.718,0-6.731-3.014-6.731-6.732C567.054,83.88,570.068,80.866,573.785,80.866z M573.785,28.866
	c3.719,0,6.732,3.014,6.732,6.732c0,3.718-3.014,6.732-6.732,6.732c-3.718,0-6.731-3.014-6.731-6.732
	C567.054,31.88,570.068,28.866,573.785,28.866z M630.356,302.33c-3.721,0-6.732-3.016-6.732-6.73c0-3.716,3.017-6.73,6.732-6.73
	s6.729,3.016,6.729,6.73C637.089,299.314,634.074,302.33,630.356,302.33z M630.356,250.33c-3.721,0-6.732-3.016-6.732-6.73
	c0-3.716,3.017-6.73,6.732-6.73s6.729,3.016,6.729,6.73C637.089,247.314,634.074,250.33,630.356,250.33z M630.356,198.33
	c-3.721,0-6.732-3.014-6.732-6.732c0-3.718,3.017-6.732,6.732-6.732s6.729,3.014,6.729,6.732
	C637.088,195.315,634.074,198.33,630.356,198.33z M630.356,146.33c-3.721,0-6.732-3.014-6.732-6.732
	c0-3.718,3.017-6.732,6.732-6.732s6.729,3.014,6.729,6.732C637.088,143.315,634.074,146.33,630.356,146.33z M630.356,94.33
	c-3.721,0-6.732-3.014-6.732-6.732c0-3.718,3.017-6.732,6.732-6.732s6.729,3.014,6.729,6.732
	C637.088,91.315,634.074,94.33,630.356,94.33z M630.356,42.33c-3.721,0-6.732-3.014-6.732-6.732c0-3.718,3.017-6.732,6.732-6.732
	s6.729,3.014,6.729,6.732C637.088,39.315,634.074,42.33,630.356,42.33z M686.928,302.33c-3.722,0-6.73-3.016-6.73-6.73
	c0-3.716,3.015-6.73,6.73-6.73c3.719,0,6.729,3.016,6.729,6.73C693.658,299.314,690.646,302.33,686.928,302.33z M686.928,250.33
	c-3.722,0-6.73-3.016-6.73-6.73c0-3.716,3.015-6.73,6.73-6.73c3.719,0,6.729,3.016,6.729,6.73
	C693.658,247.314,690.646,250.33,686.928,250.33z M686.928,198.33c-3.722,0-6.73-3.014-6.73-6.732c0-3.718,3.015-6.732,6.73-6.732
	c3.719,0,6.729,3.014,6.729,6.732C693.658,195.315,690.646,198.33,686.928,198.33z M686.928,146.33c-3.722,0-6.73-3.014-6.73-6.732
	c0-3.718,3.015-6.732,6.73-6.732c3.719,0,6.729,3.014,6.729,6.732C693.658,143.315,690.646,146.33,686.928,146.33z M686.928,94.33
	c-3.722,0-6.73-3.014-6.73-6.732c0-3.718,3.015-6.732,6.73-6.732c3.719,0,6.729,3.014,6.729,6.732
	C693.658,91.315,690.646,94.33,686.928,94.33z M686.928,42.33c-3.722,0-6.73-3.014-6.73-6.732c0-3.718,3.015-6.732,6.73-6.732
	c3.719,0,6.729,3.014,6.729,6.732C693.658,39.315,690.646,42.33,686.928,42.33z M743.496,340.868c3.718,0,6.731,3.013,6.731,6.731
	c0,3.717-3.014,6.73-6.731,6.73c-3.717,0-6.73-3.014-6.73-6.73C736.766,343.881,739.78,340.868,743.496,340.868z M743.496,288.868
	c3.718,0,6.731,3.014,6.731,6.731c0,3.717-3.014,6.73-6.731,6.73c-3.717,0-6.73-3.014-6.73-6.73
	C736.766,291.882,739.78,288.868,743.496,288.868z M743.496,236.868c3.718,0,6.731,3.014,6.731,6.731c0,3.717-3.014,6.73-6.731,6.73
	c-3.717,0-6.73-3.014-6.73-6.73C736.766,239.882,739.78,236.868,743.496,236.868z M743.496,184.866c3.719,0,6.732,3.014,6.732,6.732
	c0,3.718-3.014,6.732-6.732,6.732c-3.718,0-6.731-3.014-6.731-6.732C736.765,187.88,739.779,184.866,743.496,184.866z
	 M743.496,132.866c3.719,0,6.732,3.014,6.732,6.732c0,3.718-3.014,6.732-6.732,6.732c-3.718,0-6.731-3.014-6.731-6.732
	C736.765,135.88,739.779,132.866,743.496,132.866z M743.496,80.866c3.719,0,6.732,3.014,6.732,6.732
	c0,3.718-3.014,6.732-6.732,6.732c-3.718,0-6.731-3.014-6.731-6.732C736.765,83.88,739.779,80.866,743.496,80.866z M743.496,28.866
	c3.719,0,6.732,3.014,6.732,6.732c0,3.718-3.014,6.732-6.732,6.732c-3.718,0-6.731-3.014-6.731-6.732
	C736.765,31.88,739.779,28.866,743.496,28.866z M800.068,340.868c3.718,0,6.731,3.013,6.731,6.731c0,3.717-3.014,6.73-6.731,6.73
	s-6.73-3.014-6.73-6.73C793.337,343.881,796.35,340.868,800.068,340.868z M800.068,288.868c3.718,0,6.731,3.014,6.731,6.731
	c0,3.717-3.014,6.73-6.731,6.73s-6.73-3.014-6.73-6.73C793.337,291.882,796.35,288.868,800.068,288.868z M800.068,236.868
	c3.718,0,6.731,3.014,6.731,6.731c0,3.717-3.014,6.73-6.731,6.73s-6.73-3.014-6.73-6.73
	C793.337,239.882,796.35,236.868,800.068,236.868z M800.068,184.866c3.718,0,6.732,3.014,6.732,6.732
	c0,3.718-3.015,6.732-6.732,6.732s-6.731-3.014-6.731-6.732C793.336,187.88,796.35,184.866,800.068,184.866z M800.068,132.866
	c3.718,0,6.732,3.014,6.732,6.732c0,3.718-3.015,6.732-6.732,6.732s-6.731-3.014-6.731-6.732
	C793.336,135.88,796.35,132.866,800.068,132.866z M800.068,80.866c3.718,0,6.732,3.014,6.732,6.732c0,3.718-3.015,6.732-6.732,6.732
	s-6.731-3.014-6.731-6.732C793.336,83.88,796.35,80.866,800.068,80.866z M800.068,28.866c3.718,0,6.732,3.014,6.732,6.732
	c0,3.718-3.015,6.732-6.732,6.732s-6.731-3.014-6.731-6.732C793.336,31.88,796.35,28.866,800.068,28.866z M856.639,354.33
	c-3.721,0-6.73-3.014-6.73-6.73c0-3.718,3.015-6.73,6.73-6.73c3.72,0,6.729,3.016,6.729,6.73
	C863.369,351.316,860.357,354.33,856.639,354.33z M856.639,302.33c-3.721,0-6.73-3.016-6.73-6.73c0-3.716,3.015-6.73,6.73-6.73
	c3.72,0,6.729,3.016,6.729,6.73C863.369,299.314,860.357,302.33,856.639,302.33z M856.639,250.33c-3.721,0-6.73-3.016-6.73-6.73
	c0-3.716,3.015-6.73,6.73-6.73c3.72,0,6.729,3.016,6.729,6.73C863.369,247.314,860.357,250.33,856.639,250.33z M856.639,198.33
	c-3.721,0-6.73-3.014-6.73-6.732c0-3.718,3.015-6.732,6.73-6.732c3.72,0,6.729,3.014,6.729,6.732
	C863.369,195.315,860.357,198.33,856.639,198.33z M856.639,146.33c-3.721,0-6.73-3.014-6.73-6.732c0-3.718,3.015-6.732,6.73-6.732
	c3.72,0,6.729,3.014,6.729,6.732C863.369,143.315,860.357,146.33,856.639,146.33z M856.639,94.33c-3.721,0-6.73-3.014-6.73-6.732
	c0-3.718,3.015-6.732,6.73-6.732c3.72,0,6.729,3.014,6.729,6.732C863.369,91.315,860.357,94.33,856.639,94.33z M913.207,354.33
	c-3.719,0-6.729-3.014-6.729-6.73c0-3.718,3.015-6.73,6.729-6.73c3.721,0,6.732,3.016,6.732,6.73
	C919.941,351.316,916.928,354.33,913.207,354.33z M913.207,302.33c-3.719,0-6.729-3.016-6.729-6.73c0-3.716,3.015-6.73,6.729-6.73
	c3.721,0,6.732,3.016,6.732,6.73C919.941,299.314,916.928,302.33,913.207,302.33z M913.207,250.33c-3.719,0-6.729-3.016-6.729-6.73
	c0-3.716,3.015-6.73,6.729-6.73c3.721,0,6.732,3.016,6.732,6.73C919.941,247.314,916.928,250.33,913.207,250.33z M913.207,198.33
	c-3.719,0-6.729-3.014-6.729-6.732c0-3.718,3.015-6.732,6.729-6.732c3.721,0,6.732,3.014,6.732,6.732
	C919.94,195.315,916.928,198.33,913.207,198.33z M913.207,146.33c-3.719,0-6.729-3.014-6.729-6.732c0-3.718,3.015-6.732,6.729-6.732
	c3.721,0,6.732,3.014,6.732,6.732C919.94,143.315,916.928,146.33,913.207,146.33z M913.207,94.33c-3.719,0-6.729-3.014-6.729-6.732
	c0-3.718,3.015-6.732,6.729-6.732c3.721,0,6.732,3.014,6.732,6.732C919.94,91.315,916.928,94.33,913.207,94.33z M969.779,340.868
	c3.718,0,6.731,3.013,6.731,6.731c0,3.717-3.014,6.73-6.731,6.73c-3.717,0-6.73-3.014-6.73-6.73
	C963.048,343.881,966.062,340.868,969.779,340.868z M969.779,288.868c3.718,0,6.731,3.014,6.731,6.731
	c0,3.717-3.014,6.73-6.731,6.73c-3.717,0-6.73-3.014-6.73-6.73C963.048,291.882,966.062,288.868,969.779,288.868z M969.779,236.868
	c3.718,0,6.731,3.014,6.731,6.731c0,3.717-3.014,6.73-6.731,6.73c-3.717,0-6.73-3.014-6.73-6.73
	C963.048,239.882,966.062,236.868,969.779,236.868z M969.779,184.866c3.718,0,6.732,3.014,6.732,6.732
	c0,3.718-3.015,6.732-6.732,6.732s-6.731-3.014-6.731-6.732C963.047,187.88,966.061,184.866,969.779,184.866z M969.779,132.866
	c3.718,0,6.732,3.014,6.732,6.732c0,3.718-3.015,6.732-6.732,6.732s-6.731-3.014-6.731-6.732
	C963.047,135.88,966.061,132.866,969.779,132.866z M969.779,80.866c3.718,0,6.732,3.014,6.732,6.732
	c0,3.718-3.015,6.732-6.732,6.732s-6.731-3.014-6.731-6.732C963.047,83.88,966.061,80.866,969.779,80.866z M1026.35,406.33
	c-3.721,0-6.73-3.014-6.73-6.732c0-3.717,3.015-6.729,6.73-6.729c3.72,0,6.729,3.016,6.729,6.729
	C1033.08,403.316,1030.068,406.33,1026.35,406.33z M1026.35,354.33c-3.721,0-6.73-3.014-6.73-6.73c0-3.718,3.015-6.73,6.73-6.73
	c3.72,0,6.729,3.016,6.729,6.73C1033.08,351.316,1030.068,354.33,1026.35,354.33z M1026.35,302.33c-3.721,0-6.73-3.016-6.73-6.73
	c0-3.716,3.015-6.73,6.73-6.73c3.72,0,6.729,3.016,6.729,6.73C1033.08,299.314,1030.068,302.33,1026.35,302.33z M1026.35,250.33
	c-3.721,0-6.73-3.016-6.73-6.73c0-3.716,3.015-6.73,6.73-6.73c3.72,0,6.729,3.016,6.729,6.73
	C1033.08,247.314,1030.068,250.33,1026.35,250.33z M1026.35,198.33c-3.721,0-6.73-3.014-6.73-6.732c0-3.718,3.015-6.732,6.73-6.732
	c3.72,0,6.729,3.014,6.729,6.732C1033.08,195.315,1030.068,198.33,1026.35,198.33z M1026.35,146.33c-3.721,0-6.73-3.014-6.73-6.732
	c0-3.718,3.015-6.732,6.73-6.732c3.72,0,6.729,3.014,6.729,6.732C1033.08,143.315,1030.068,146.33,1026.35,146.33z M1082.918,354.33
	c-3.719,0-6.729-3.014-6.729-6.73c0-3.718,3.015-6.73,6.729-6.73c3.721,0,6.732,3.016,6.732,6.73
	C1089.652,351.316,1086.639,354.33,1082.918,354.33z M1082.918,302.33c-3.719,0-6.729-3.016-6.729-6.73
	c0-3.716,3.015-6.73,6.729-6.73c3.721,0,6.732,3.016,6.732,6.73C1089.652,299.314,1086.639,302.33,1082.918,302.33z
	 M1082.918,250.33c-3.719,0-6.729-3.016-6.729-6.73c0-3.716,3.015-6.73,6.729-6.73c3.721,0,6.732,3.016,6.732,6.73
	C1089.652,247.314,1086.639,250.33,1082.918,250.33z M1082.918,198.33c-3.719,0-6.729-3.014-6.729-6.732
	c0-3.718,3.015-6.732,6.729-6.732c3.721,0,6.732,3.014,6.732,6.732C1089.651,195.315,1086.639,198.33,1082.918,198.33z
	 M1082.918,146.33c-3.719,0-6.729-3.014-6.729-6.732c0-3.718,3.015-6.732,6.729-6.732c3.721,0,6.732,3.014,6.732,6.732
	C1089.651,143.315,1086.639,146.33,1082.918,146.33z M1139.489,302.33c-3.72,0-6.731-3.016-6.731-6.73
	c0-3.716,3.017-6.73,6.731-6.73s6.73,3.016,6.73,6.73C1146.223,299.314,1143.207,302.33,1139.489,302.33z M1139.489,250.33
	c-3.72,0-6.731-3.016-6.731-6.73c0-3.716,3.017-6.73,6.731-6.73s6.73,3.016,6.73,6.73
	C1146.223,247.314,1143.207,250.33,1139.489,250.33z M1139.489,198.33c-3.72,0-6.731-3.014-6.731-6.732
	c0-3.718,3.017-6.732,6.731-6.732s6.73,3.014,6.73,6.732C1146.222,195.315,1143.207,198.33,1139.489,198.33z M1139.489,146.33
	c-3.72,0-6.731-3.014-6.731-6.732c0-3.718,3.017-6.732,6.731-6.732s6.73,3.014,6.73,6.732
	C1146.222,143.315,1143.207,146.33,1139.489,146.33z M1252.63,132.865c3.721,0,6.731,3.014,6.731,6.732
	c0,3.718-3.016,6.732-6.731,6.732c-3.717,0-6.729-3.014-6.729-6.732C1245.898,135.878,1248.91,132.865,1252.63,132.865z
	 M1196.061,132.865c3.721,0,6.73,3.014,6.73,6.732c0,3.718-3.015,6.732-6.73,6.732s-6.73-3.014-6.73-6.732
	C1189.327,135.878,1192.341,132.865,1196.061,132.865z M1196.061,184.865c3.721,0,6.73,3.014,6.73,6.732
	c0,3.718-3.015,6.732-6.73,6.732s-6.73-3.014-6.73-6.732C1189.327,187.878,1192.341,184.865,1196.061,184.865z M58.2,258.135
	c-0.832-0.662-1.523-1.521-2.119-2.437c-1.31-2.011-2.801-3.609-4.674-5.104c-3.743-2.984-7.601-5.164-12.237-6.461
	c-2.583-0.723-5.309-1.031-7.989-1.031C13.96,243.102,0,257.061,0,274.282c0,17.221,13.96,31.181,31.181,31.181
	c2.765,0,5.796-0.602,8.47-1.271c2.718-0.678,5.324-1.739,7.728-3.182c4.78-2.863,8.722-7.059,11.23-12.035
	c0.708-1.404,1.307-2.86,1.838-4.34c0.271-0.75,0.523-1.507,0.77-2.267c0.621-1.925,1.225-3.526,2.927-4.759
	c1.544-1.116,3.417-1.854,5.263-2.293c1.041-0.248,2.107-0.396,3.17-0.515c5.598-0.62,11.233-0.778,16.842-1.276
	c164.716,20.845,328.245,40.23,490.237,65.971c166.546,26.475,330.591,62.42,494.616,95.695
	c63.834-113.51,142.312-220.302,221.479-324.311c-42.392-7.236-82.188-9.97-124.896-13.113
	c-39.578-2.899-78.649-9.748-116.795-17.565c-37.619-7.718-73.877-18.479-110.178-29.292C907.268,40,870.285,30.642,833.568,22.251
	C765.714,6.765,703.271-4.027,624.395,1.438c-32.418,2.242-67.314,9.44-99.842,16.218c-125.623,26.18-233.406,88.629-337.65,161.055
	c-31.961,22.206-63.428,45.125-94.743,68.229c-2.044,1.509-4.117,3.002-6.201,4.5c-0.898,0.371-1.827,0.668-2.737,1.011
	c-4.056,1.528-8.091,3.125-12.162,4.61c-2.222,0.812-4.421,1.804-6.765,2.217c-1.138,0.201-2.302,0.26-3.446,0.07
	C59.828,259.177,58.956,258.736,58.2,258.135z"/>
</svg>
