<?xml version="1.0" encoding="utf-8"?>
<!-- Generator: Adobe Illustrator 16.0.0, SVG Export Plug-In . SVG Version: 6.00 Build 0)  -->
<!DOCTYPE svg PUBLIC "-//W3C//DTD SVG 1.1//EN" "http://www.w3.org/Graphics/SVG/1.1/DTD/svg11.dtd">
<svg version="1.1" id="Layer_1" xmlns="http://www.w3.org/2000/svg" xmlns:xlink="http://www.w3.org/1999/xlink" x="0px" y="0px"
	 width="3149.748px" height="1298.375px" viewBox="0 0 3149.748 1298.375" enable-background="new 0 0 3149.748 1298.375"
	 xml:space="preserve">
<circle fill="none" stroke="#000000" stroke-miterlimit="10" cx="2456.532" cy="519.706" r="31.181"/>
<path fill="none" stroke="#000000" stroke-miterlimit="10" d="M1534.191,371.671c-69.574-21.543-139.438-42.417-209.166-62.969
	c-126.84,89.172-391.858,252.479-391.858,252.479l346.838,121.372c119.324-57.342,256.904-60.545,391.686-56.73
	c91.812,2.594,181.398,9.852,273.052,13.466c41.729,1.652,83.548,4.164,124.983,5.525c21.926,0.713,43.488,1.684,65.396,1.729
	c-132.319-69.003-258.298-148.301-395.104-203.985C1672.619,415.121,1603.344,393.085,1534.191,371.671z M2398.041,435.193
	c63.834-113.506,142.312-220.301,221.479-324.31c-42.394-7.236-82.188-9.97-124.896-13.113
	c-39.574-2.901-78.646-9.749-116.791-17.567c-37.619-7.718-73.877-18.479-110.178-29.292
	c-36.613-10.913-73.595-20.271-110.312-28.661C2089.49,6.764,2027.047-4.028,1948.17,1.438c-32.418,2.242-67.316,9.44-99.844,16.218
	c-128.963,26.876-237.966,88.1-344.129,164.502c-29.624,21.319-58.896,43.112-88.269,64.779
	c-9.975,7.357-20.636,14.395-29.796,23.154c173.865,22.174,346.438,42.256,517.292,69.406
	C2069.975,365.968,2234.02,401.917,2398.041,435.193z M2745.606,659.152c-42.074-6.468-54.216-14.169-94.775-26.653
	c-79.496-24.526-158.363-54.519-237.781-84.151c-39.43-14.707-78.819-29.07-117.346-45.688
	c69.756-10.293,139.076-23.457,205.887-42.567c-179.163-33.679-362.694-70.639-547.854-100.951
	c-162.173-26.541-327.71-51.627-491.895-73.741c-23.846-3.214-47.751-7.117-71.256-8.59c-4.291-0.27-7.816-0.951-12.424-0.149
	c-14.662,2.523-31.127,13.924-43.688,22.424c0,0-1.444,1.091-2.771,2.171c-0.95,0.952-1.465,1.441-1.541,2.293
	c153.941,37.41,309.275,82.61,460.812,132.809c50.51,16.718,370.477,153.577,441.156,191.271
	c48.117,25.605,95.51,55.24,136.074,92.74c41.009,37.906,72.736,83.604,96.9,135.43c1.091,0.951,2.854,0.441,4.17,1.062
	c22.525,10.637,41.82,26.635,60.445,42.944c101.822,89.138,197.812,215.666,253.627,360.445
	c58.044,14.728,78.133,24.271,136.187,38.123c-40.127-91.252-87-235.902-116-332.902
	C2763.104,859.117,2754.326,771.328,2745.606,659.152z M2890.948,719.576c30.205-30.812,109.164-39.104,164.188-48.896
	c30.047-5.348,62.281-9.92,94.609-14.518c-64.967-10.229-137.898-16.548-208.564-15.828c-27.877,0.281-58.422,1.513-86.67,5.326
	c-18.013,2.433-58.393,10.208-66.134,25.408c-3.489,6.854-3.62,17.688-3.761,26.137c-0.104,6.436,0.437,12.662,0.666,18.717
	c6.104,52.391,20.373,99.539,37.146,149.363c41.188,122.346,94.881,245.209,145.896,355.5
	c-39.646-108.354-77.523-221.082-91.039-339.664c-3.133-27.469-5.398-59.73-4.393-85.492
	C2873.925,769.523,2876.146,734.686,2890.948,719.576z M785.234,615.111c-38.959-1.595-76.062-11.243-115.189-20.783
	c-137.481-33.496-277.731-67.016-412.976-103.282c-34.146-9.16-67.74-19.222-101.672-27.141
	c-45.185-10.557-90.246-19.424-135.05-27.301c-25.037-4.403-27.635,4.397-4.077,12.802c85.891,30.64,171.092,62.131,252.771,103.249
	C377.635,607.335,479.394,677,574.315,758.539c16.322,14.018,32.178,28.764,47.551,44.09c42.92-12.062,81.317-28.82,131.305-26.018
	c27.441,1.541,55.882,8.217,83.978,13.492c69.006,12.965,123.279,29.674,191.591,46.579c14.443,3.582,24.907,7.48,38.029,8.142
	c26.536,1.342,41.289-10.662,59.861-28.041c0,0,98.938-90.738,144.58-129.055l-346.663-121.53
	C880.234,589.76,836.067,617.182,785.234,615.111z M2258.794,110.188c0,0.825-0.676,1.5-1.5,1.5h-25.373c-0.826,0-1.5-0.675-1.5-1.5
	s0.674-1.5,1.5-1.5h25.373C2258.118,108.688,2258.794,109.362,2258.794,110.188z M2258.794,136.188c0,0.825-0.676,1.5-1.5,1.5
	h-25.373c-0.826,0-1.5-0.675-1.5-1.5s0.674-1.5,1.5-1.5h25.373C2258.118,134.688,2258.794,135.362,2258.794,136.188z
	 M2231.171,55.688h18.497c2.722,1,5.429,1.559,8.113,2.343c-0.271,0.396-0.725,0.657-1.237,0.657h-25.373
	c-0.826,0-1.5-0.675-1.5-1.5S2230.345,55.688,2231.171,55.688z M2231.171,81.688h25.373c0.824,0,1.5,0.675,1.5,1.5
	s-0.676,1.5-1.5,1.5h-25.373c-0.826,0-1.5-0.675-1.5-1.5S2230.345,81.688,2231.171,81.688z M2231.171,213.688h25.373
	c0.824,0,1.5,0.675,1.5,1.5s-0.676,1.5-1.5,1.5h-25.373c-0.826,0-1.5-0.675-1.5-1.5S2230.345,213.688,2231.171,213.688z
	 M2231.171,239.688h25.373c0.824,0,1.5,0.675,1.5,1.5s-0.676,1.5-1.5,1.5h-25.373c-0.826,0-1.5-0.675-1.5-1.5
	S2230.345,239.688,2231.171,239.688z M2231.171,318.688h25.373c0.824,0,1.5,0.675,1.5,1.5s-0.676,1.5-1.5,1.5h-25.373
	c-0.826,0-1.5-0.675-1.5-1.5S2230.345,318.688,2231.171,318.688z M2208.544,96.188c0,0.825-0.676,1.5-1.5,1.5h-25.373
	c-0.826,0-1.5-0.675-1.5-1.5s0.674-1.5,1.5-1.5h25.373C2207.868,94.688,2208.544,95.362,2208.544,96.188z M2208.544,122.188
	c0,0.825-0.676,1.5-1.5,1.5h-25.373c-0.826,0-1.5-0.675-1.5-1.5s0.674-1.5,1.5-1.5h25.373
	C2207.868,120.688,2208.544,121.362,2208.544,122.188z M2180.921,41.688h16.374c3.387,1,6.742,1.698,10.066,2.55
	c-0.273,0.277-0.65,0.45-1.067,0.45h-25.373c-0.826,0-1.5-0.675-1.5-1.5S2180.095,41.688,2180.921,41.688z M2180.921,67.688h25.373
	c0.824,0,1.5,0.675,1.5,1.5s-0.676,1.5-1.5,1.5h-25.373c-0.826,0-1.5-0.675-1.5-1.5S2180.095,67.688,2180.921,67.688z
	 M2180.921,199.688h25.373c0.824,0,1.5,0.675,1.5,1.5s-0.676,1.5-1.5,1.5h-25.373c-0.826,0-1.5-0.675-1.5-1.5
	S2180.095,199.688,2180.921,199.688z M2180.921,225.688h25.373c0.824,0,1.5,0.675,1.5,1.5s-0.676,1.5-1.5,1.5h-25.373
	c-0.826,0-1.5-0.675-1.5-1.5S2180.095,225.688,2180.921,225.688z M2180.921,304.688h25.373c0.824,0,1.5,0.675,1.5,1.5
	s-0.676,1.5-1.5,1.5h-25.373c-0.826,0-1.5-0.675-1.5-1.5S2180.095,304.688,2180.921,304.688z M2159.546,108.188
	c0,0.825-0.676,1.5-1.5,1.5h-25.373c-0.826,0-1.5-0.675-1.5-1.5s0.674-1.5,1.5-1.5h25.373
	C2158.87,106.688,2159.546,107.362,2159.546,108.188z M2156.794,294.688h-25.373c-0.826,0-1.5-0.675-1.5-1.5s0.674-1.5,1.5-1.5
	h25.373c0.824,0,1.5,0.675,1.5,1.5S2157.618,294.688,2156.794,294.688z M2158.796,319.188c0,0.825-0.676,1.5-1.5,1.5h-25.373
	c-0.826,0-1.5-0.675-1.5-1.5s0.674-1.5,1.5-1.5h25.373C2158.12,317.688,2158.796,318.362,2158.796,319.188z M2129.171,240.188
	c0-0.825,0.674-1.5,1.5-1.5h25.373c0.824,0,1.5,0.675,1.5,1.5s-0.676,1.5-1.5,1.5h-25.373
	C2129.845,241.688,2129.171,241.013,2129.171,240.188z M2129.171,82.188c0-0.825,0.674-1.5,1.5-1.5h25.373
	c0.824,0,1.5,0.675,1.5,1.5s-0.676,1.5-1.5,1.5h-25.373C2129.845,83.688,2129.171,83.013,2129.171,82.188z M2157.296,214.688
	h-25.373c-0.826,0-1.5-0.675-1.5-1.5s0.674-1.5,1.5-1.5h25.373c0.824,0,1.5,0.675,1.5,1.5S2158.12,214.688,2157.296,214.688z
	 M2157.544,189.688h-25.373c-0.826,0-1.5-0.675-1.5-1.5s0.674-1.5,1.5-1.5h25.373c0.824,0,1.5,0.675,1.5,1.5
	S2158.368,189.688,2157.544,189.688z M2129.921,135.188c0-0.825,0.674-1.5,1.5-1.5h25.373c0.824,0,1.5,0.675,1.5,1.5
	s-0.676,1.5-1.5,1.5h-25.373C2130.595,136.688,2129.921,136.013,2129.921,135.188z M2158.796,55.188c0,0.825-0.676,1.5-1.5,1.5
	h-25.373c-0.826,0-1.5-0.675-1.5-1.5s0.674-1.5,1.5-1.5h25.373C2158.12,53.688,2158.796,54.362,2158.796,55.188z M2110.296,95.188
	c0,0.825-0.676,1.5-1.5,1.5h-25.373c-0.826,0-1.5-0.675-1.5-1.5s0.674-1.5,1.5-1.5h25.373
	C2109.62,93.688,2110.296,94.362,2110.296,95.188z M2107.796,280.688h-25.373c-0.826,0-1.5-0.675-1.5-1.5s0.674-1.5,1.5-1.5h25.373
	c0.824,0,1.5,0.675,1.5,1.5S2108.62,280.688,2107.796,280.688z M2109.546,305.188c0,0.825-0.676,1.5-1.5,1.5h-25.373
	c-0.826,0-1.5-0.675-1.5-1.5s0.674-1.5,1.5-1.5h25.373C2108.87,303.688,2109.546,304.362,2109.546,305.188z M2080.173,226.188
	c0-0.825,0.674-1.5,1.5-1.5h25.373c0.824,0,1.5,0.675,1.5,1.5s-0.676,1.5-1.5,1.5h-25.373
	C2080.847,227.688,2080.173,227.013,2080.173,226.188z M2080.173,68.188c0-0.825,0.674-1.5,1.5-1.5h25.373
	c0.824,0,1.5,0.675,1.5,1.5s-0.676,1.5-1.5,1.5h-25.373C2080.847,69.688,2080.173,69.013,2080.173,68.188z M2108.046,201.688
	h-25.373c-0.826,0-1.5-0.675-1.5-1.5s0.674-1.5,1.5-1.5h25.373c0.824,0,1.5,0.675,1.5,1.5S2108.87,201.688,2108.046,201.688z
	 M2108.546,175.688h-25.373c-0.826,0-1.5-0.675-1.5-1.5s0.674-1.5,1.5-1.5h25.373c0.824,0,1.5,0.675,1.5,1.5
	S2109.37,175.688,2108.546,175.688z M2080.923,121.188c0-0.825,0.674-1.5,1.5-1.5h25.373c0.824,0,1.5,0.675,1.5,1.5
	s-0.676,1.5-1.5,1.5h-25.373C2081.597,122.688,2080.923,122.013,2080.923,121.188z M2109.546,42.188c0,0.825-0.676,1.5-1.5,1.5
	h-25.373c-0.826,0-1.5-0.675-1.5-1.5s0.674-1.5,1.5-1.5h25.373C2108.87,40.688,2109.546,41.362,2109.546,42.188z M2059.046,107.188
	c0,0.825-0.676,1.5-1.5,1.5h-25.373c-0.826,0-1.5-0.675-1.5-1.5s0.674-1.5,1.5-1.5h25.373
	C2058.37,105.688,2059.046,106.362,2059.046,107.188z M2056.796,213.688h-25.373c-0.826,0-1.5-0.675-1.5-1.5s0.674-1.5,1.5-1.5
	h25.373c0.824,0,1.5,0.675,1.5,1.5S2057.62,213.688,2056.796,213.688z M2058.296,240.188c0,0.825-0.676,1.5-1.5,1.5h-25.373
	c-0.826,0-1.5-0.675-1.5-1.5s0.674-1.5,1.5-1.5h25.373C2057.62,238.688,2058.296,239.362,2058.296,240.188z M2029.923,82.188
	c0-0.825,0.674-1.5,1.5-1.5h25.373c0.824,0,1.5,0.675,1.5,1.5s-0.676,1.5-1.5,1.5h-25.373
	C2030.597,83.688,2029.923,83.013,2029.923,82.188z M2030.673,134.188c0-0.825,0.674-1.5,1.5-1.5h25.373c0.824,0,1.5,0.675,1.5,1.5
	s-0.676,1.5-1.5,1.5h-25.373C2031.347,135.688,2030.673,135.013,2030.673,134.188z M2058.296,54.188c0,0.825-0.676,1.5-1.5,1.5
	h-25.373c-0.826,0-1.5-0.675-1.5-1.5s0.674-1.5,1.5-1.5h25.373C2057.62,52.688,2058.296,53.362,2058.296,54.188z M2009.796,94.188
	c0,0.825-0.676,1.5-1.5,1.5h-25.373c-0.826,0-1.5-0.675-1.5-1.5s0.674-1.5,1.5-1.5h25.373
	C2009.12,92.688,2009.796,93.362,2009.796,94.188z M1979.673,226.188c0-0.825,0.674-1.5,1.5-1.5h25.373c0.824,0,1.5,0.675,1.5,1.5
	s-0.676,1.5-1.5,1.5h-25.373C1980.347,227.688,1979.673,227.013,1979.673,226.188z M1981.923,276.688h25.373
	c0.824,0,1.5,0.675,1.5,1.5s-0.676,1.5-1.5,1.5h-25.373c-0.826,0-1.5-0.675-1.5-1.5S1981.097,276.688,1981.923,276.688z
	 M1979.673,68.188c0-0.825,0.674-1.5,1.5-1.5h25.373c0.824,0,1.5,0.675,1.5,1.5s-0.676,1.5-1.5,1.5h-25.373
	C1980.347,69.688,1979.673,69.013,1979.673,68.188z M2007.546,200.688h-25.373c-0.826,0-1.5-0.675-1.5-1.5s0.674-1.5,1.5-1.5h25.373
	c0.824,0,1.5,0.675,1.5,1.5S2008.37,200.688,2007.546,200.688z M2008.046,174.688h-25.373c-0.826,0-1.5-0.675-1.5-1.5
	s0.674-1.5,1.5-1.5h25.373c0.824,0,1.5,0.675,1.5,1.5S2008.87,174.688,2008.046,174.688z M1980.423,120.188
	c0-0.825,0.674-1.5,1.5-1.5h25.373c0.824,0,1.5,0.675,1.5,1.5s-0.676,1.5-1.5,1.5h-25.373
	C1981.097,121.688,1980.423,121.013,1980.423,120.188z M2009.046,41.188c0,0.825-0.676,1.5-1.5,1.5h-25.373
	c-0.826,0-1.5-0.675-1.5-1.5s0.674-1.5,1.5-1.5h25.373C2008.37,39.688,2009.046,40.362,2009.046,41.188z M1958.546,109.188
	c0,0.825-0.676,1.5-1.5,1.5h-25.373c-0.826,0-1.5-0.675-1.5-1.5s0.674-1.5,1.5-1.5h25.373
	C1957.87,107.688,1958.546,108.362,1958.546,109.188z M1956.296,215.688h-25.373c-0.826,0-1.5-0.675-1.5-1.5s0.674-1.5,1.5-1.5
	h25.373c0.824,0,1.5,0.675,1.5,1.5S1957.12,215.688,1956.296,215.688z M1957.796,239.188c0,0.825-0.676,1.5-1.5,1.5h-25.373
	c-0.826,0-1.5-0.675-1.5-1.5s0.674-1.5,1.5-1.5h25.373C1957.12,237.688,1957.796,238.362,1957.796,239.188z M1929.423,81.188
	c0-0.825,0.674-1.5,1.5-1.5h25.373c0.824,0,1.5,0.675,1.5,1.5s-0.676,1.5-1.5,1.5h-25.373
	C1930.097,82.688,1929.423,82.013,1929.423,81.188z M1930.173,133.188c0-0.825,0.674-1.5,1.5-1.5h25.373c0.824,0,1.5,0.675,1.5,1.5
	s-0.676,1.5-1.5,1.5h-25.373C1930.847,134.688,1930.173,134.013,1930.173,133.188z M1957.796,56.188c0,0.825-0.676,1.5-1.5,1.5
	h-25.373c-0.826,0-1.5-0.675-1.5-1.5s0.674-1.5,1.5-1.5h25.373C1957.12,54.688,1957.796,55.362,1957.796,56.188z M1881.798,38.688
	h25.373c0.824,0,1.5,0.675,1.5,1.5s-0.676,1.5-1.5,1.5h-25.373c-0.826,0-1.5-0.675-1.5-1.5S1880.972,38.688,1881.798,38.688z
	 M1881.798,65.688h25.373c0.824,0,1.5,0.675,1.5,1.5s-0.676,1.5-1.5,1.5h-25.373c-0.826,0-1.5-0.675-1.5-1.5
	S1880.972,65.688,1881.798,65.688z M1881.798,91.688h25.373c0.824,0,1.5,0.675,1.5,1.5s-0.676,1.5-1.5,1.5h-25.373
	c-0.826,0-1.5-0.675-1.5-1.5S1880.972,91.688,1881.798,91.688z M1881.798,117.688h25.373c0.824,0,1.5,0.675,1.5,1.5
	s-0.676,1.5-1.5,1.5h-25.373c-0.826,0-1.5-0.675-1.5-1.5S1880.972,117.688,1881.798,117.688z M1881.048,196.688h25.373
	c0.824,0,1.5,0.675,1.5,1.5s-0.676,1.5-1.5,1.5h-25.373c-0.826,0-1.5-0.675-1.5-1.5S1880.222,196.688,1881.048,196.688z
	 M1831.548,52.688h25.373c0.824,0,1.5,0.675,1.5,1.5s-0.676,1.5-1.5,1.5h-25.373c-0.826,0-1.5-0.675-1.5-1.5
	S1830.722,52.688,1831.548,52.688z M1831.548,78.688h25.373c0.824,0,1.5,0.675,1.5,1.5s-0.676,1.5-1.5,1.5h-25.373
	c-0.826,0-1.5-0.675-1.5-1.5S1830.722,78.688,1831.548,78.688z M1831.548,104.688h25.373c0.824,0,1.5,0.675,1.5,1.5
	s-0.676,1.5-1.5,1.5h-25.373c-0.826,0-1.5-0.675-1.5-1.5S1830.722,104.688,1831.548,104.688z M1831.548,131.688h25.373
	c0.824,0,1.5,0.675,1.5,1.5s-0.676,1.5-1.5,1.5h-25.373c-0.826,0-1.5-0.675-1.5-1.5S1830.722,131.688,1831.548,131.688z
	 M1830.798,210.688h25.373c0.824,0,1.5,0.675,1.5,1.5s-0.676,1.5-1.5,1.5h-25.373c-0.826,0-1.5-0.675-1.5-1.5
	S1829.972,210.688,1830.798,210.688z M1781.298,64.688h25.373c0.824,0,1.5,0.675,1.5,1.5s-0.676,1.5-1.5,1.5h-25.373
	c-0.826,0-1.5-0.675-1.5-1.5S1780.472,64.688,1781.298,64.688z M1781.298,90.688h25.373c0.824,0,1.5,0.675,1.5,1.5
	s-0.676,1.5-1.5,1.5h-25.373c-0.826,0-1.5-0.675-1.5-1.5S1780.472,90.688,1781.298,90.688z M1781.298,117.688h25.373
	c0.824,0,1.5,0.675,1.5,1.5s-0.676,1.5-1.5,1.5h-25.373c-0.826,0-1.5-0.675-1.5-1.5S1780.472,117.688,1781.298,117.688z
	 M1780.548,196.688h25.373c0.824,0,1.5,0.675,1.5,1.5s-0.676,1.5-1.5,1.5h-25.373c-0.826,0-1.5-0.675-1.5-1.5
	S1779.722,196.688,1780.548,196.688z M1759.173,105.188c0,0.825-0.676,1.5-1.5,1.5H1732.3c-0.826,0-1.5-0.675-1.5-1.5
	s0.674-1.5,1.5-1.5h25.373C1758.497,103.688,1759.173,104.362,1759.173,105.188z M1731.048,77.688h25.373c0.824,0,1.5,0.675,1.5,1.5
	s-0.676,1.5-1.5,1.5h-25.373c-0.826,0-1.5-0.675-1.5-1.5S1730.222,77.688,1731.048,77.688z M1731.048,130.688h25.373
	c0.824,0,1.5,0.675,1.5,1.5s-0.676,1.5-1.5,1.5h-25.373c-0.826,0-1.5-0.675-1.5-1.5S1730.222,130.688,1731.048,130.688z
	 M1757.171,185.688h-25.373c-0.826,0-1.5-0.675-1.5-1.5s0.674-1.5,1.5-1.5h25.373c0.824,0,1.5,0.675,1.5,1.5
	S1757.995,185.688,1757.171,185.688z M1758.423,210.188c0,0.825-0.676,1.5-1.5,1.5h-25.373c-0.826,0-1.5-0.675-1.5-1.5
	s0.674-1.5,1.5-1.5h25.373C1757.747,208.688,1758.423,209.362,1758.423,210.188z M1683.05,89.688h25.373c0.824,0,1.5,0.675,1.5,1.5
	s-0.676,1.5-1.5,1.5h-25.373c-0.826,0-1.5-0.675-1.5-1.5S1682.224,89.688,1683.05,89.688z M1682.05,116.688h25.373
	c0.824,0,1.5,0.675,1.5,1.5s-0.676,1.5-1.5,1.5h-25.373c-0.826,0-1.5-0.675-1.5-1.5S1681.224,116.688,1682.05,116.688z
	 M1708.173,171.688H1682.8c-0.826,0-1.5-0.675-1.5-1.5s0.674-1.5,1.5-1.5h25.373c0.824,0,1.5,0.675,1.5,1.5
	S1708.997,171.688,1708.173,171.688z M1709.173,197.188c0,0.825-0.676,1.5-1.5,1.5H1682.3c-0.826,0-1.5-0.675-1.5-1.5
	s0.674-1.5,1.5-1.5h25.373C1708.497,195.688,1709.173,196.362,1709.173,197.188z M1647.606,102.688h9.567c0.824,0,1.5,0.675,1.5,1.5
	s-0.676,1.5-1.5,1.5h-15.104C1643.918,104.688,1645.763,103.688,1647.606,102.688z M1631.8,129.688h25.373
	c0.824,0,1.5,0.675,1.5,1.5s-0.676,1.5-1.5,1.5H1631.8c-0.826,0-1.5-0.675-1.5-1.5S1630.974,129.688,1631.8,129.688z
	 M1631.05,207.688h25.373c0.824,0,1.5,0.675,1.5,1.5s-0.676,1.5-1.5,1.5h-25.373c-0.826,0-1.5-0.675-1.5-1.5
	S1630.224,207.688,1631.05,207.688z M1582.3,168.688h25.373c0.824,0,1.5,0.675,1.5,1.5s-0.676,1.5-1.5,1.5H1582.3
	c-0.826,0-1.5-0.675-1.5-1.5S1581.474,168.688,1582.3,168.688z M1581.8,194.688h25.373c0.824,0,1.5,0.675,1.5,1.5
	s-0.676,1.5-1.5,1.5H1581.8c-0.826,0-1.5-0.675-1.5-1.5S1580.974,194.688,1581.8,194.688z M1530.55,209.688h25.373
	c0.824,0,1.5,0.675,1.5,1.5s-0.676,1.5-1.5,1.5h-25.373c-0.826,0-1.5-0.675-1.5-1.5S1529.724,209.688,1530.55,209.688z
	 M1454.314,264.688h-25.373c-0.826,0-1.5-0.675-1.5-1.5s0.674-1.5,1.5-1.5h25.373c0.824,0,1.5,0.675,1.5,1.5
	S1455.138,264.688,1454.314,264.688z M1476.941,224.188c0-0.825,0.674-1.5,1.5-1.5h25.373c0.824,0,1.5,0.675,1.5,1.5
	s-0.676,1.5-1.5,1.5h-25.373C1477.615,225.688,1476.941,225.013,1476.941,224.188z M1504.516,275h0.048
	c0.129,0,0.252,0.021,0.371,0.053C1504.795,275.035,1504.656,275.018,1504.516,275z M1504.564,251.688h-25.373
	c-0.826,0-1.5-0.675-1.5-1.5s0.674-1.5,1.5-1.5h25.373c0.824,0,1.5,0.675,1.5,1.5S1505.388,251.688,1504.564,251.688z
	 M1529.05,235.188c0-0.825,0.674-1.5,1.5-1.5h25.373c0.824,0,1.5,0.675,1.5,1.5s-0.676,1.5-1.5,1.5h-25.373
	C1529.724,236.688,1529.05,236.013,1529.05,235.188z M1556.673,264.688H1531.3c-0.826,0-1.5-0.675-1.5-1.5s0.674-1.5,1.5-1.5h25.373
	c0.824,0,1.5,0.675,1.5,1.5S1557.497,264.688,1556.673,264.688z M1557.423,184.688h-25.373c-0.826,0-1.5-0.675-1.5-1.5
	s0.674-1.5,1.5-1.5h25.373c0.824,0,1.5,0.675,1.5,1.5S1558.247,184.688,1557.423,184.688z M1579.3,222.188
	c0-0.825,0.674-1.5,1.5-1.5h25.373c0.824,0,1.5,0.675,1.5,1.5s-0.676,1.5-1.5,1.5H1580.8
	C1579.974,223.688,1579.3,223.013,1579.3,222.188z M1606.923,276.688h-25.373c-0.826,0-1.5-0.675-1.5-1.5s0.674-1.5,1.5-1.5h25.373
	c0.824,0,1.5,0.675,1.5,1.5S1607.747,276.688,1606.923,276.688z M1607.923,250.688h-25.373c-0.826,0-1.5-0.675-1.5-1.5
	s0.674-1.5,1.5-1.5h25.373c0.824,0,1.5,0.675,1.5,1.5S1608.747,250.688,1607.923,250.688z M1608.673,144.688H1583.3
	c-0.826,0-1.5-0.675-1.5-1.5s0.674-1.5,1.5-1.5h25.373c0.824,0,1.5,0.675,1.5,1.5S1609.497,144.688,1608.673,144.688z
	 M1629.55,236.188c0-0.825,0.674-1.5,1.5-1.5h25.373c0.824,0,1.5,0.675,1.5,1.5s-0.676,1.5-1.5,1.5h-25.373
	C1630.224,237.688,1629.55,237.013,1629.55,236.188z M1657.173,290.688H1631.8c-0.826,0-1.5-0.675-1.5-1.5s0.674-1.5,1.5-1.5h25.373
	c0.824,0,1.5,0.675,1.5,1.5S1657.997,290.688,1657.173,290.688z M1657.173,263.688H1631.8c-0.826,0-1.5-0.675-1.5-1.5
	s0.674-1.5,1.5-1.5h25.373c0.824,0,1.5,0.675,1.5,1.5S1657.997,263.688,1657.173,263.688z M1657.923,185.688h-25.373
	c-0.826,0-1.5-0.675-1.5-1.5s0.674-1.5,1.5-1.5h25.373c0.824,0,1.5,0.675,1.5,1.5S1658.747,185.688,1657.923,185.688z
	 M1657.923,157.688h-25.373c-0.826,0-1.5-0.675-1.5-1.5s0.674-1.5,1.5-1.5h25.373c0.824,0,1.5,0.675,1.5,1.5
	S1658.747,157.688,1657.923,157.688z M1679.8,223.188c0-0.825,0.674-1.5,1.5-1.5h25.373c0.824,0,1.5,0.675,1.5,1.5
	s-0.676,1.5-1.5,1.5H1681.3C1680.474,224.688,1679.8,224.013,1679.8,223.188z M1680.55,276.188c0-0.825,0.674-1.5,1.5-1.5h25.373
	c0.824,0,1.5,0.675,1.5,1.5s-0.676,1.5-1.5,1.5h-25.373C1681.224,277.688,1680.55,277.013,1680.55,276.188z M1708.423,250.688
	h-25.373c-0.826,0-1.5-0.675-1.5-1.5s0.674-1.5,1.5-1.5h25.373c0.824,0,1.5,0.675,1.5,1.5S1709.247,250.688,1708.423,250.688z
	 M1709.173,145.688H1683.8c-0.826,0-1.5-0.675-1.5-1.5s0.674-1.5,1.5-1.5h25.373c0.824,0,1.5,0.675,1.5,1.5
	S1709.997,145.688,1709.173,145.688z M1728.798,237.188c0-0.825,0.674-1.5,1.5-1.5h25.373c0.824,0,1.5,0.675,1.5,1.5
	s-0.676,1.5-1.5,1.5h-25.373C1729.472,238.688,1728.798,238.013,1728.798,237.188z M1756.421,291.688h-25.373
	c-0.826,0-1.5-0.675-1.5-1.5s0.674-1.5,1.5-1.5h25.373c0.824,0,1.5,0.675,1.5,1.5S1757.245,291.688,1756.421,291.688z
	 M1757.673,264.688H1732.3c-0.826,0-1.5-0.675-1.5-1.5s0.674-1.5,1.5-1.5h25.373c0.824,0,1.5,0.675,1.5,1.5
	S1758.497,264.688,1757.673,264.688z M1758.423,158.688h-25.373c-0.826,0-1.5-0.675-1.5-1.5s0.674-1.5,1.5-1.5h25.373
	c0.824,0,1.5,0.675,1.5,1.5S1759.247,158.688,1758.423,158.688z M1779.048,224.188c0-0.825,0.674-1.5,1.5-1.5h25.373
	c0.824,0,1.5,0.675,1.5,1.5s-0.676,1.5-1.5,1.5h-25.373C1779.722,225.688,1779.048,225.013,1779.048,224.188z M1806.671,304.688
	h-25.373c-0.826,0-1.5-0.675-1.5-1.5s0.674-1.5,1.5-1.5h25.373c0.824,0,1.5,0.675,1.5,1.5S1807.495,304.688,1806.671,304.688z
	 M1806.671,278.688h-25.373c-0.826,0-1.5-0.675-1.5-1.5s0.674-1.5,1.5-1.5h25.373c0.824,0,1.5,0.675,1.5,1.5
	S1807.495,278.688,1806.671,278.688z M1806.671,251.688h-25.373c-0.826,0-1.5-0.675-1.5-1.5s0.674-1.5,1.5-1.5h25.373
	c0.824,0,1.5,0.675,1.5,1.5S1807.495,251.688,1806.671,251.688z M1807.421,172.688h-25.373c-0.826,0-1.5-0.675-1.5-1.5
	s0.674-1.5,1.5-1.5h25.373c0.824,0,1.5,0.675,1.5,1.5S1808.245,172.688,1807.421,172.688z M1807.421,146.688h-25.373
	c-0.826,0-1.5-0.675-1.5-1.5s0.674-1.5,1.5-1.5h25.373c0.824,0,1.5,0.675,1.5,1.5S1808.245,146.688,1807.421,146.688z
	 M1829.298,238.188c0-0.825,0.674-1.5,1.5-1.5h25.373c0.824,0,1.5,0.675,1.5,1.5s-0.676,1.5-1.5,1.5h-25.373
	C1829.972,239.688,1829.298,239.013,1829.298,238.188z M1856.921,318.688h-21.765c-1.631,0-3.257-0.332-4.887-0.572
	c-0.138-0.226-0.222-0.567-0.222-0.85c0-0.825,0.674-1.578,1.5-1.578h25.373c0.824,0,1.5,0.675,1.5,1.5
	S1857.745,318.688,1856.921,318.688z M1856.921,292.688h-25.373c-0.826,0-1.5-0.675-1.5-1.5s0.674-1.5,1.5-1.5h25.373
	c0.824,0,1.5,0.675,1.5,1.5S1857.745,292.688,1856.921,292.688z M1856.921,265.688h-25.373c-0.826,0-1.5-0.675-1.5-1.5
	s0.674-1.5,1.5-1.5h25.373c0.824,0,1.5,0.675,1.5,1.5S1857.745,265.688,1856.921,265.688z M1857.671,186.688h-25.373
	c-0.826,0-1.5-0.675-1.5-1.5s0.674-1.5,1.5-1.5h25.373c0.824,0,1.5,0.675,1.5,1.5S1858.495,186.688,1857.671,186.688z
	 M1857.671,160.688h-25.373c-0.826,0-1.5-0.675-1.5-1.5s0.674-1.5,1.5-1.5h25.373c0.824,0,1.5,0.675,1.5,1.5
	S1858.495,160.688,1857.671,160.688z M1879.548,225.188c0-0.825,0.674-1.5,1.5-1.5h25.373c0.824,0,1.5,0.675,1.5,1.5
	s-0.676,1.5-1.5,1.5h-25.373C1880.222,226.688,1879.548,226.013,1879.548,225.188z M1907.171,305.688h-25.373
	c-0.826,0-1.5-0.675-1.5-1.5s0.674-1.5,1.5-1.5h25.373c0.824,0,1.5,0.675,1.5,1.5S1907.995,305.688,1907.171,305.688z
	 M1907.171,278.688h-25.373c-0.826,0-1.5-0.675-1.5-1.5s0.674-1.5,1.5-1.5h25.373c0.824,0,1.5,0.675,1.5,1.5
	S1907.995,278.688,1907.171,278.688z M1907.171,252.688h-25.373c-0.826,0-1.5-0.675-1.5-1.5s0.674-1.5,1.5-1.5h25.373
	c0.824,0,1.5,0.675,1.5,1.5S1907.995,252.688,1907.171,252.688z M1907.921,173.688h-25.373c-0.826,0-1.5-0.675-1.5-1.5
	s0.674-1.5,1.5-1.5h25.373c0.824,0,1.5,0.675,1.5,1.5S1908.745,173.688,1907.921,173.688z M1907.921,147.688h-25.373
	c-0.826,0-1.5-0.675-1.5-1.5s0.674-1.5,1.5-1.5h25.373c0.824,0,1.5,0.675,1.5,1.5S1908.745,147.688,1907.921,147.688z
	 M1928.673,28.188c0-0.825,0.674-1.5,1.5-1.5h25.373c0.824,0,1.5,0.675,1.5,1.5s-0.676,1.5-1.5,1.5h-25.373
	C1929.347,29.688,1928.673,29.013,1928.673,28.188z M1956.296,320.688h-25.373c-0.826,0-1.5-0.675-1.5-1.5s0.674-1.5,1.5-1.5h25.373
	c0.824,0,1.5,0.675,1.5,1.5S1957.12,320.688,1956.296,320.688z M1957.046,292.688h-25.373c-0.826,0-1.5-0.675-1.5-1.5
	s0.674-1.5,1.5-1.5h25.373c0.824,0,1.5,0.675,1.5,1.5S1957.87,292.688,1957.046,292.688z M1957.046,268.688h-25.373
	c-0.826,0-1.5-0.675-1.5-1.5s0.674-1.5,1.5-1.5h25.373c0.824,0,1.5,0.675,1.5,1.5S1957.87,268.688,1957.046,268.688z
	 M1957.796,187.688h-25.373c-0.826,0-1.5-0.675-1.5-1.5s0.674-1.5,1.5-1.5h25.373c0.824,0,1.5,0.675,1.5,1.5
	S1958.62,187.688,1957.796,187.688z M1957.796,162.688h-25.373c-0.826,0-1.5-0.675-1.5-1.5s0.674-1.5,1.5-1.5h25.373
	c0.824,0,1.5,0.675,1.5,1.5S1958.62,162.688,1957.796,162.688z M1978.923,15.188c0-0.825,0.674-1.5,1.5-1.5h25.373
	c0.824,0,1.5,0.675,1.5,1.5s-0.676,1.5-1.5,1.5h-25.373C1979.597,16.688,1978.923,16.013,1978.923,15.188z M2006.546,332.688
	h-25.373c-0.826,0-1.5-0.675-1.5-1.5s0.674-1.5,1.5-1.5h25.373c0.824,0,1.5,0.675,1.5,1.5S2007.37,332.688,2006.546,332.688z
	 M2007.546,306.688h-25.373c-0.826,0-1.5-0.675-1.5-1.5s0.674-1.5,1.5-1.5h25.373c0.824,0,1.5,0.675,1.5,1.5
	S2008.37,306.688,2007.546,306.688z M2008.296,253.688h-25.373c-0.826,0-1.5-0.675-1.5-1.5s0.674-1.5,1.5-1.5h25.373
	c0.824,0,1.5,0.675,1.5,1.5S2009.12,253.688,2008.296,253.688z M2009.046,148.688h-25.373c-0.826,0-1.5-0.675-1.5-1.5
	s0.674-1.5,1.5-1.5h25.373c0.824,0,1.5,0.675,1.5,1.5S2009.87,148.688,2009.046,148.688z M2029.173,29.188
	c0-0.825,0.674-1.5,1.5-1.5h25.373c0.824,0,1.5,0.675,1.5,1.5s-0.676,1.5-1.5,1.5h-25.373
	C2029.847,30.688,2029.173,30.013,2029.173,29.188z M2056.796,346.688h-25.373c-0.826,0-1.5-0.675-1.5-1.5s0.674-1.5,1.5-1.5h25.373
	c0.824,0,1.5,0.675,1.5,1.5S2057.62,346.688,2056.796,346.688z M2056.796,319.688h-25.373c-0.826,0-1.5-0.675-1.5-1.5
	s0.674-1.5,1.5-1.5h25.373c0.824,0,1.5,0.675,1.5,1.5S2057.62,319.688,2056.796,319.688z M2057.546,293.688h-25.373
	c-0.826,0-1.5-0.675-1.5-1.5s0.674-1.5,1.5-1.5h25.373c0.824,0,1.5,0.675,1.5,1.5S2058.37,293.688,2057.546,293.688z
	 M2057.546,266.688h-25.373c-0.826,0-1.5-0.675-1.5-1.5s0.674-1.5,1.5-1.5h25.373c0.824,0,1.5,0.675,1.5,1.5
	S2058.37,266.688,2057.546,266.688z M2058.296,188.688h-25.373c-0.826,0-1.5-0.675-1.5-1.5s0.674-1.5,1.5-1.5h25.373
	c0.824,0,1.5,0.675,1.5,1.5S2059.12,188.688,2058.296,188.688z M2058.296,161.688h-25.373c-0.826,0-1.5-0.675-1.5-1.5
	s0.674-1.5,1.5-1.5h25.373c0.824,0,1.5,0.675,1.5,1.5S2059.12,161.688,2058.296,161.688z M2080.173,332.188
	c0-0.825,0.674-1.5,1.5-1.5h25.373c0.824,0,1.5,0.675,1.5,1.5s-0.676,1.5-1.5,1.5h-25.373
	C2080.847,333.688,2080.173,333.013,2080.173,332.188z M2108.796,359.688h-25.373c-0.826,0-1.5-0.675-1.5-1.5s0.674-1.5,1.5-1.5
	h25.373c0.824,0,1.5,0.675,1.5,1.5S2109.62,359.688,2108.796,359.688z M2108.796,254.688h-25.373c-0.826,0-1.5-0.675-1.5-1.5
	s0.674-1.5,1.5-1.5h25.373c0.824,0,1.5,0.675,1.5,1.5S2109.62,254.688,2108.796,254.688z M2109.546,148.688h-25.373
	c-0.826,0-1.5-0.675-1.5-1.5s0.674-1.5,1.5-1.5h25.373c0.824,0,1.5,0.675,1.5,1.5S2110.37,148.688,2109.546,148.688z
	 M2128.421,30.188c0-0.825,0.674-1.5,1.5-1.5h12.157c4.317,1,8.658,2.076,13.056,3.079c0.095,0.021,0.187-0.035,0.281-0.013
	c-0.04,0.003-0.079-0.066-0.121-0.066h-25.373C2129.095,31.688,2128.421,31.013,2128.421,30.188z M2129.171,346.188
	c0-0.825,0.674-1.5,1.5-1.5h25.373c0.824,0,1.5,0.675,1.5,1.5s-0.676,1.5-1.5,1.5h-25.373
	C2129.845,347.688,2129.171,347.013,2129.171,346.188z M2158.046,372.688h-14.837c-3.926,0-7.851-1.56-11.779-2.337
	c0.27-0.399,0.727-0.663,1.243-0.663h25.373c0.824,0,1.5,0.675,1.5,1.5S2158.87,372.688,2158.046,372.688z M2158.046,267.688
	h-25.373c-0.826,0-1.5-0.675-1.5-1.5s0.674-1.5,1.5-1.5h25.373c0.824,0,1.5,0.675,1.5,1.5S2158.87,267.688,2158.046,267.688z
	 M2158.796,162.688h-25.373c-0.826,0-1.5-0.675-1.5-1.5s0.674-1.5,1.5-1.5h25.373c0.824,0,1.5,0.675,1.5,1.5
	S2159.62,162.688,2158.796,162.688z M2179.421,333.188c0-0.825,0.674-1.5,1.5-1.5h25.373c0.824,0,1.5,0.675,1.5,1.5
	s-0.676,1.5-1.5,1.5h-25.373C2180.095,334.688,2179.421,334.013,2179.421,333.188z M2207.044,360.688h-25.373
	c-0.826,0-1.5-0.675-1.5-1.5s0.674-1.5,1.5-1.5h25.373c0.824,0,1.5,0.675,1.5,1.5S2207.868,360.688,2207.044,360.688z
	 M2207.044,281.688h-25.373c-0.826,0-1.5-0.675-1.5-1.5s0.674-1.5,1.5-1.5h25.373c0.824,0,1.5,0.675,1.5,1.5
	S2207.868,281.688,2207.044,281.688z M2207.044,255.688h-25.373c-0.826,0-1.5-0.675-1.5-1.5s0.674-1.5,1.5-1.5h25.373
	c0.824,0,1.5,0.675,1.5,1.5S2207.868,255.688,2207.044,255.688z M2207.794,176.688h-25.373c-0.826,0-1.5-0.675-1.5-1.5
	s0.674-1.5,1.5-1.5h25.373c0.824,0,1.5,0.675,1.5,1.5S2208.618,176.688,2207.794,176.688z M2207.794,149.688h-25.373
	c-0.826,0-1.5-0.675-1.5-1.5s0.674-1.5,1.5-1.5h25.373c0.824,0,1.5,0.675,1.5,1.5S2208.618,149.688,2207.794,149.688z
	 M2229.671,347.188c0-0.825,0.674-1.5,1.5-1.5h25.373c0.824,0,1.5,0.675,1.5,1.5s-0.676,1.5-1.5,1.5h-25.373
	C2230.345,348.688,2229.671,348.013,2229.671,347.188z M2257.294,374.688h-25.373c-0.826,0-1.5-0.675-1.5-1.5s0.674-1.5,1.5-1.5
	h25.373c0.824,0,1.5,0.675,1.5,1.5S2258.118,374.688,2257.294,374.688z M2257.294,295.688h-25.373c-0.826,0-1.5-0.675-1.5-1.5
	s0.674-1.5,1.5-1.5h25.373c0.824,0,1.5,0.675,1.5,1.5S2258.118,295.688,2257.294,295.688z M2257.294,269.688h-25.373
	c-0.826,0-1.5-0.675-1.5-1.5s0.674-1.5,1.5-1.5h25.373c0.824,0,1.5,0.675,1.5,1.5S2258.118,269.688,2257.294,269.688z
	 M2258.044,190.688h-25.373c-0.826,0-1.5-0.675-1.5-1.5s0.674-1.5,1.5-1.5h25.373c0.824,0,1.5,0.675,1.5,1.5
	S2258.868,190.688,2258.044,190.688z M2258.044,163.688h-25.373c-0.826,0-1.5-0.675-1.5-1.5s0.674-1.5,1.5-1.5h25.373
	c0.824,0,1.5,0.675,1.5,1.5S2258.868,163.688,2258.044,163.688z M2359.962,112.188c0,0.825-0.674,1.5-1.5,1.5h-25.373
	c-0.824,0-1.5-0.675-1.5-1.5s0.676-1.5,1.5-1.5h25.373C2359.288,110.688,2359.962,111.362,2359.962,112.188z M2358.462,296.688
	h-25.373c-0.824,0-1.5-0.675-1.5-1.5s0.676-1.5,1.5-1.5h25.373c0.826,0,1.5,0.675,1.5,1.5S2359.288,296.688,2358.462,296.688z
	 M2359.962,323.188c0,0.825-0.674,1.5-1.5,1.5h-25.373c-0.824,0-1.5-0.675-1.5-1.5s0.676-1.5,1.5-1.5h25.373
	C2359.288,321.688,2359.962,322.362,2359.962,323.188z M2358.462,271.688h-25.373c-0.824,0-1.5-0.675-1.5-1.5s0.676-1.5,1.5-1.5
	h25.373c0.826,0,1.5,0.675,1.5,1.5S2359.288,271.688,2358.462,271.688z M2331.589,137.188c0-0.825,0.676-1.5,1.5-1.5h25.373
	c0.826,0,1.5,0.675,1.5,1.5s-0.674,1.5-1.5,1.5h-25.373C2332.265,138.688,2331.589,138.013,2331.589,137.188z M2332.339,215.688
	h25.373c0.826,0,1.5,0.675,1.5,1.5s-0.674,1.5-1.5,1.5h-25.373c-0.824,0-1.5-0.675-1.5-1.5S2331.515,215.688,2332.339,215.688z
	 M2309.044,96.188c0,0.825-0.676,1.5-1.5,1.5h-25.373c-0.826,0-1.5-0.675-1.5-1.5s0.674-1.5,1.5-1.5h25.373
	C2308.368,94.688,2309.044,95.362,2309.044,96.188z M2309.044,123.188c0,0.825-0.676,1.5-1.5,1.5h-25.373
	c-0.826,0-1.5-0.675-1.5-1.5s0.674-1.5,1.5-1.5h25.373C2308.368,121.688,2309.044,122.362,2309.044,123.188z M2281.421,68.688
	h12.447c3.46,1,6.931,2,10.415,3h-22.862c-0.826,0-1.5-0.675-1.5-1.5S2280.595,68.688,2281.421,68.688z M2281.421,200.688h25.373
	c0.824,0,1.5,0.675,1.5,1.5s-0.676,1.5-1.5,1.5h-25.373c-0.826,0-1.5-0.675-1.5-1.5S2280.595,200.688,2281.421,200.688z
	 M2281.421,226.688h25.373c0.824,0,1.5,0.675,1.5,1.5s-0.676,1.5-1.5,1.5h-25.373c-0.826,0-1.5-0.675-1.5-1.5
	S2280.595,226.688,2281.421,226.688z M2281.421,305.688h25.373c0.824,0,1.5,0.675,1.5,1.5s-0.676,1.5-1.5,1.5h-25.373
	c-0.826,0-1.5-0.675-1.5-1.5S2280.595,305.688,2281.421,305.688z M2279.921,333.188c0-0.825,0.674-1.5,1.5-1.5h25.373
	c0.824,0,1.5,0.675,1.5,1.5s-0.676,1.5-1.5,1.5h-25.373C2280.595,334.688,2279.921,334.013,2279.921,333.188z M2307.544,387.688
	h-25.373c-0.826,0-1.5-0.675-1.5-1.5s0.674-1.5,1.5-1.5h25.373c0.824,0,1.5,0.675,1.5,1.5S2308.368,387.688,2307.544,387.688z
	 M2307.544,361.688h-25.373c-0.826,0-1.5-0.675-1.5-1.5s0.674-1.5,1.5-1.5h25.373c0.824,0,1.5,0.675,1.5,1.5
	S2308.368,361.688,2307.544,361.688z M2307.544,282.688h-25.373c-0.826,0-1.5-0.675-1.5-1.5s0.674-1.5,1.5-1.5h25.373
	c0.824,0,1.5,0.675,1.5,1.5S2308.368,282.688,2307.544,282.688z M2307.544,255.688h-25.373c-0.826,0-1.5-0.675-1.5-1.5
	s0.674-1.5,1.5-1.5h25.373c0.824,0,1.5,0.675,1.5,1.5S2308.368,255.688,2307.544,255.688z M2308.294,176.688h-25.373
	c-0.826,0-1.5-0.675-1.5-1.5s0.674-1.5,1.5-1.5h25.373c0.824,0,1.5,0.675,1.5,1.5S2309.118,176.688,2308.294,176.688z
	 M2308.294,150.688h-25.373c-0.826,0-1.5-0.675-1.5-1.5s0.674-1.5,1.5-1.5h25.373c0.824,0,1.5,0.675,1.5,1.5
	S2309.118,150.688,2308.294,150.688z M2330.089,84.188c0-0.825,0.676-1.5,1.5-1.5h13.772c4.024,1,8.065,1.96,12.124,2.9
	c-0.164,0.062-0.339,0.1-0.523,0.1h-25.373C2330.765,85.688,2330.089,85.013,2330.089,84.188z M2330.839,242.188
	c0-0.825,0.676-1.5,1.5-1.5h25.373c0.826,0,1.5,0.675,1.5,1.5s-0.674,1.5-1.5,1.5h-25.373
	C2331.515,243.688,2330.839,243.013,2330.839,242.188z M2331.589,347.188c0-0.825,0.676-1.5,1.5-1.5h25.373
	c0.826,0,1.5,0.675,1.5,1.5s-0.674,1.5-1.5,1.5h-25.373C2332.265,348.688,2331.589,348.013,2331.589,347.188z M2359.212,401.688
	h-25.373c-0.824,0-1.5-0.676-1.5-1.5c0-0.826,0.676-1.5,1.5-1.5h25.373c0.826,0,1.5,0.674,1.5,1.5
	C2360.712,401.012,2360.038,401.688,2359.212,401.688z M2359.212,376.688h-25.373c-0.824,0-1.5-0.675-1.5-1.5s0.676-1.5,1.5-1.5
	h25.373c0.826,0,1.5,0.675,1.5,1.5S2360.038,376.688,2359.212,376.688z M2359.212,190.688h-25.373c-0.824,0-1.5-0.675-1.5-1.5
	s0.676-1.5,1.5-1.5h25.373c0.826,0,1.5,0.675,1.5,1.5S2360.038,190.688,2359.212,190.688z M2359.212,166.688h-25.373
	c-0.824,0-1.5-0.675-1.5-1.5s0.676-1.5,1.5-1.5h25.373c0.826,0,1.5,0.675,1.5,1.5S2360.038,166.688,2359.212,166.688z
	 M2532.886,110.615c8.913,0.724,17.775,1.346,26.633,2.223c-0.02,0.001-0.037-0.15-0.057-0.15h-25.373c-0.824,0-1.5-0.519-1.5-1.344
	C2532.589,111.012,2532.701,110.864,2532.886,110.615z M2483.839,122.688h25.373c0.826,0,1.5,0.675,1.5,1.5s-0.674,1.5-1.5,1.5
	h-25.373c-0.824,0-1.5-0.675-1.5-1.5S2483.015,122.688,2483.839,122.688z M2433.589,108.688h25.373c0.826,0,1.5,0.675,1.5,1.5
	s-0.674,1.5-1.5,1.5h-25.373c-0.824,0-1.5-0.675-1.5-1.5S2432.765,108.688,2433.589,108.688z M2433.589,135.688h25.373
	c0.826,0,1.5,0.675,1.5,1.5s-0.674,1.5-1.5,1.5h-25.373c-0.824,0-1.5-0.675-1.5-1.5S2432.765,135.688,2433.589,135.688z
	 M2432.839,214.688h25.373c0.826,0,1.5,0.675,1.5,1.5s-0.674,1.5-1.5,1.5h-25.373c-0.824,0-1.5-0.675-1.5-1.5
	S2432.015,214.688,2432.839,214.688z M2384.339,95.688h22.652c1.323,1,2.656,0.641,3.998,0.882c0.139,0.227,0.223,0.412,0.223,0.696
	c0,0.825-0.674,1.422-1.5,1.422h-25.373c-0.824,0-1.5-0.675-1.5-1.5S2383.515,95.688,2384.339,95.688z M2383.339,122.688h25.373
	c0.826,0,1.5,0.675,1.5,1.5s-0.674,1.5-1.5,1.5h-25.373c-0.824,0-1.5-0.675-1.5-1.5S2382.515,122.688,2383.339,122.688z
	 M2384.339,306.688h25.373c0.826,0,1.5,0.675,1.5,1.5s-0.674,1.5-1.5,1.5h-25.373c-0.824,0-1.5-0.675-1.5-1.5
	S2383.515,306.688,2384.339,306.688z M2381.839,282.188c0-0.825,0.676-1.5,1.5-1.5h25.373c0.826,0,1.5,0.675,1.5,1.5
	s-0.674,1.5-1.5,1.5h-25.373C2382.515,283.688,2381.839,283.013,2381.839,282.188z M2409.712,256.688h-25.373
	c-0.824,0-1.5-0.675-1.5-1.5s0.676-1.5,1.5-1.5h25.373c0.826,0,1.5,0.675,1.5,1.5S2410.538,256.688,2409.712,256.688z
	 M2408.962,204.688h-25.373c-0.824,0-1.5-0.675-1.5-1.5s0.676-1.5,1.5-1.5h25.373c0.826,0,1.5,0.675,1.5,1.5
	S2409.788,204.688,2408.962,204.688z M2409.462,177.688h-25.373c-0.824,0-1.5-0.675-1.5-1.5s0.676-1.5,1.5-1.5h25.373
	c0.826,0,1.5,0.675,1.5,1.5S2410.288,177.688,2409.462,177.688z M2381.089,229.188c0-0.825,0.676-1.5,1.5-1.5h25.373
	c0.826,0,1.5,0.675,1.5,1.5s-0.674,1.5-1.5,1.5h-25.373C2381.765,230.688,2381.089,230.013,2381.089,229.188z M2383.339,332.688
	h25.373c0.826,0,1.5,0.675,1.5,1.5s-0.674,1.5-1.5,1.5h-25.373c-0.824,0-1.5-0.675-1.5-1.5S2382.515,332.688,2383.339,332.688z
	 M2398.133,414.688h-14.544c-0.824,0-1.5-0.674-1.5-1.5c0-0.824,0.676-1.5,1.5-1.5h16.28
	C2399.289,412.688,2398.71,413.688,2398.133,414.688z M2409.462,388.688h-25.373c-0.824,0-1.5-0.675-1.5-1.5s0.676-1.5,1.5-1.5
	h25.373c0.826,0,1.5,0.675,1.5,1.5S2410.288,388.688,2409.462,388.688z M2410.462,362.688h-25.373c-0.824,0-1.5-0.675-1.5-1.5
	s0.676-1.5,1.5-1.5h25.373c0.826,0,1.5,0.675,1.5,1.5S2411.288,362.688,2410.462,362.688z M2410.462,151.688h-25.373
	c-0.824,0-1.5-0.675-1.5-1.5s0.676-1.5,1.5-1.5h25.373c0.826,0,1.5,0.675,1.5,1.5S2411.288,151.688,2410.462,151.688z
	 M2431.339,243.188c0-0.825,0.676-1.5,1.5-1.5h25.373c0.826,0,1.5,0.675,1.5,1.5s-0.674,1.5-1.5,1.5h-25.373
	C2432.015,244.688,2431.339,244.013,2431.339,243.188z M2454.903,322.688h-21.313c-0.824,0-1.5-0.675-1.5-1.5s0.676-1.5,1.5-1.5
	h23.284C2456.217,320.688,2455.558,321.688,2454.903,322.688z M2458.962,297.688h-25.373c-0.824,0-1.5-0.675-1.5-1.5
	s0.676-1.5,1.5-1.5h25.373c0.826,0,1.5,0.675,1.5,1.5S2459.788,297.688,2458.962,297.688z M2458.962,269.688h-25.373
	c-0.824,0-1.5-0.675-1.5-1.5s0.676-1.5,1.5-1.5h25.373c0.826,0,1.5,0.675,1.5,1.5S2459.788,269.688,2458.962,269.688z
	 M2459.712,191.688h-25.373c-0.824,0-1.5-0.675-1.5-1.5s0.676-1.5,1.5-1.5h25.373c0.826,0,1.5,0.675,1.5,1.5
	S2460.538,191.688,2459.712,191.688z M2459.712,164.688h-25.373c-0.824,0-1.5-0.675-1.5-1.5s0.676-1.5,1.5-1.5h25.373
	c0.826,0,1.5,0.675,1.5,1.5S2460.538,164.688,2459.712,164.688z M2498.943,257.688h-14.104c-0.824,0-1.5-0.675-1.5-1.5
	s0.676-1.5,1.5-1.5h16.198C2500.339,255.688,2499.641,256.688,2498.943,257.688z M2508.462,231.688h-25.373
	c-0.824,0-1.5-0.675-1.5-1.5s0.676-1.5,1.5-1.5h25.373c0.826,0,1.5,0.675,1.5,1.5S2509.288,231.688,2508.462,231.688z
	 M2509.462,204.688h-25.373c-0.824,0-1.5-0.675-1.5-1.5s0.676-1.5,1.5-1.5h25.373c0.826,0,1.5,0.675,1.5,1.5
	S2510.288,204.688,2509.462,204.688z M2509.962,178.688h-25.373c-0.824,0-1.5-0.675-1.5-1.5s0.676-1.5,1.5-1.5h25.373
	c0.826,0,1.5,0.675,1.5,1.5S2510.788,178.688,2509.962,178.688z M2510.962,152.688h-25.373c-0.824,0-1.5-0.675-1.5-1.5
	s0.676-1.5,1.5-1.5h25.373c0.826,0,1.5,0.675,1.5,1.5S2511.788,152.688,2510.962,152.688z M2531.337,138.188
	c0-0.825,0.676-1.5,1.5-1.5h25.373c0.826,0,1.5,0.675,1.5,1.5s-0.674,1.5-1.5,1.5h-25.373
	C2532.013,139.688,2531.337,139.013,2531.337,138.188z M2545.562,192.688h-11.975c-0.824,0-1.5-0.675-1.5-1.5s0.676-1.5,1.5-1.5
	h14.176C2547.03,190.688,2546.295,191.688,2545.562,192.688z M2560.212,165.688h-25.373c-0.824,0-1.5-0.675-1.5-1.5
	s0.676-1.5,1.5-1.5h25.373c0.826,0,1.5,0.675,1.5,1.5S2561.038,165.688,2560.212,165.688z M2583.087,126.688
	c-0.824,0-1.5-0.675-1.5-1.5s0.676-1.5,1.5-1.5h14.015c-0.758,1-1.513,2-2.272,3H2583.087z"/>
</svg>
