<?xml version="1.0" encoding="utf-8"?>
<!-- Generator: Adobe Illustrator 16.0.0, SVG Export Plug-In . SVG Version: 6.00 Build 0)  -->
<!DOCTYPE svg PUBLIC "-//W3C//DTD SVG 1.1//EN" "http://www.w3.org/Graphics/SVG/1.1/DTD/svg11.dtd">
<svg version="1.1" id="Layer_1" xmlns="http://www.w3.org/2000/svg" xmlns:xlink="http://www.w3.org/1999/xlink" x="0px" y="0px"
	 width="3149.748px" height="1298.375px" viewBox="0 0 3149.748 1298.375" enable-background="new 0 0 3149.748 1298.375"
	 xml:space="preserve">
<path fill="none" stroke="#000000" stroke-miterlimit="10" d="M2351.781,705.911c0,0-99.277-53.411-216.661-59.368
	c-21.907-0.045-43.47-1.016-65.396-1.729c-41.436-1.361-83.254-3.873-124.983-5.525c-91.653-3.615-181.239-10.873-273.052-13.466
	c-134.78-3.813-272.36-0.61-391.686,56.731l-8.795,5.174c-45.642,38.316-144.58,129.055-144.58,129.055
	c-18.572,17.379-33.325,29.383-59.861,28.041c-13.122-0.66-23.586-4.559-38.029-8.141c-68.312-16.906-122.585-33.615-191.591-46.58
	c-28.096-5.275-56.535-11.951-83.978-13.492c-49.986-2.803-88.384,13.955-131.304,26.018c-15.373-15.326-31.229-30.072-47.551-44.09
	C479.394,677,377.635,607.335,269.042,552.655c-81.68-41.118-166.882-72.609-252.771-103.249
	c-23.558-8.404-20.96-17.205,4.077-12.802c44.804,7.877,89.865,16.745,135.05,27.301c33.931,7.919,67.526,17.981,101.672,27.141
	c135.243,36.267,275.493,69.786,412.975,103.282c39.129,9.54,76.231,19.189,115.19,20.783c50.833,2.071,95-25.351,139.312-48.913
	l8.62-5.015c0,0,265.019-163.309,391.858-252.48l5.139-5.152c0.076-0.852,0.59-1.341,1.54-2.293c1.326-1.08,2.771-2.171,2.771-2.171
	c12.562-8.5,29.026-19.901,43.689-22.424l7.97-6.57c9.161-8.759,19.822-15.797,29.796-23.154
	c29.373-21.667,58.645-43.46,88.269-64.779c106.163-76.402,215.166-137.626,344.129-164.502
	c32.526-6.778,67.425-13.976,99.843-16.218c78.877-5.466,141.319,5.326,209.174,20.813c36.719,8.39,73.699,17.748,110.313,28.661
	c36.3,10.813,72.558,21.574,110.177,29.292c38.146,7.818,77.217,14.666,116.791,17.567c42.709,3.143,82.504,5.877,124.896,13.113
	c107.021,17.233-59.017,362.358,530.227,545.277c-32.328,4.598-64.563,9.17-94.61,14.518
	c-55.024,9.793-133.983,18.084-164.188,48.896c-14.803,15.109-17.023,49.947-18.053,76.053c-1.007,25.762,1.26,58.023,4.393,85.492
	c13.515,118.582,51.393,231.311,91.039,339.664l-48.791,77.59c-58.054-13.854-78.143-23.396-136.187-38.123
	c-55.813-144.779-151.804-271.309-253.627-360.445c-18.625-16.311-37.92-32.309-60.445-42.945c-1.315-0.621-3.079-0.111-4.17-1.062
	c-24.164-51.824-55.893-97.523-96.9-135.43c-5.359-4.954-10.838-9.771-16.421-14.46L2351.781,705.911z"/>
</svg>
