<?xml version="1.0" encoding="utf-8"?>
<!-- Generator: Adobe Illustrator 16.0.0, SVG Export Plug-In . SVG Version: 6.00 Build 0)  -->
<!DOCTYPE svg PUBLIC "-//W3C//DTD SVG 1.1//EN" "http://www.w3.org/Graphics/SVG/1.1/DTD/svg11.dtd">
<svg version="1.1" id="Layer_1" xmlns="http://www.w3.org/2000/svg" xmlns:xlink="http://www.w3.org/1999/xlink" x="0px" y="0px"
	 width="2047.52px" height="905.438px" viewBox="0 0 2047.52 905.438" enable-background="new 0 0 2047.52 905.438"
	 xml:space="preserve">
<path fill="none" stroke="#000000" stroke-linejoin="round" stroke-miterlimit="10" d="M789.63,435.32
	c106.523,31.36,197.625,75.605,243.731,94.484c61.467,25.183,73.188,36.285,146.527,35.979
	c54.936-0.229,154.709-10.531,193.643-14.787c10.154-1.106,14.996-5.795,13.365-16.396c-1.627-10.604-6.676-35.396-7.815-40.604
	s-4.691-10.532-11.167-16.062c-3.854-3.273-65.188-41.725-129.213-95.975c-39.562-33.521-87.562-62.229-126.337-85.293
	c-1.121,1.209-2.604,2.111-4.315,2.523c-4.652,1.115-9.336-1.752-10.447-6.409c-1.123-4.655,1.745-9.333,6.398-10.446
	c4.652-1.123,9.335,1.744,10.445,6.399c0.172,0.712,0.239,1.431,0.229,2.125c14.646,6.987,42.216,20.3,64.135,31.798
	c25.827,13.557,167.248,90.907,216.434,117.826c10.557,5.775,20.729,5.152,27.652-1.805c3.181-3.187,7.007-6.977,11.4-11.253"/>
<path fill="none" stroke="#000000" stroke-linejoin="round" stroke-miterlimit="10" d="M762.365,622.925
	c-2.108,1.762,1.066,4.615,6.052,6.632c1.604,0.649,15.193,5.96,36.454,14.326"/>
<path fill="none" stroke="#000001" stroke-linejoin="round" stroke-miterlimit="10" d="M1410.027,604.07
	c-0.836-9.547-6.538-17.034-19.323-16.878c-22.562,0.27-426.755,12.929-471.177,16.389c-35.727,2.783-98.993,12.839-130.456,16.464"
	/>
</svg>
