<?xml version="1.0" encoding="utf-8"?>
<!-- Generator: Adobe Illustrator 16.0.0, SVG Export Plug-In . SVG Version: 6.00 Build 0)  -->
<!DOCTYPE svg PUBLIC "-//W3C//DTD SVG 1.1//EN" "http://www.w3.org/Graphics/SVG/1.1/DTD/svg11.dtd">
<svg version="1.1" id="Layer_1" xmlns="http://www.w3.org/2000/svg" xmlns:xlink="http://www.w3.org/1999/xlink" x="0px" y="0px"
	 width="2047.52px" height="905.438px" viewBox="0 0 2047.52 905.438" enable-background="new 0 0 2047.52 905.438"
	 xml:space="preserve">
<path fill="none" stroke="#000001" stroke-linejoin="round" stroke-miterlimit="10" d="M789.848,435.382
	c15.378,9.095,26.746,41.812,26.746,80.836c0,55.229-12.145,100.34-27.521,103.826c-7.652,0.882-13.422,1.383-16.458,1.306
	c-5.814-0.146-8.98,0.517-10.263,1.588c-2.741,2.29-4.589,4.531-8.094,5.778c-3.373,1.199-6.948,1.625-10.197,3.208
	c-6.075,2.959-11.524,9.189-14.233,15.334c-1.644,3.729-2.462,8.204-2.462,12.28c0,17.221,13.96,31.181,31.182,31.181
	c8.449,0,16.901-3.522,22.646-9.746c2.785-3.017,5.161-6.649,6.614-10.499c2.239-5.932,0.618-12.904,3.793-18.48
	c2.776-4.877,7.546-8.111,13.272-8.111c84.403,33.214,289.706,114.594,346.002,143.802c70.479,36.565,94.98,61.537,104.742,106.5
	c4.022,18.602,20.021,10.62,20.847,1.167c0.82-9.442,0.89-17.689,7.586-32.669c6.686-14.974,110.979-218.937,120.354-235.585
	c4.06-7.215,6.266-15.724,5.625-23.027l-0.004,0.001c0-79.851,10.021-148.167,24.268-176.651l0.004,0.005
	c29.939-29.142,86.275-80.865,144.673-118.01c85.647-54.486,141.649-52.506,218.427-53.955c76.771-1.455,225.905,3.73,238.611,4.443
	c12.699,0.719,17.608-8.665,0.473-10.897c-17.149-2.244-490.597-79.293-565.961-89.404
	c-91.293-12.252-124.846-33.695-136.306-44.383c-4.249-3.953-17.96-8.631-17.96-8.631S845.615,8.393,716.761,1.118
	c-128.842-7.291-205.65,22.91-216.584,37.718c-7.479,10.146-18.58,17.128-24.82,20.521c-17.712-3.541-44.521-9.094-51.184-11.539
	c-10.146-3.73-21.58,0.039-30.646,9.416c-9.068,9.368-362.597,280.338-372.865,288.97c-10.267,8.641-6.454,15.954-7.271,25.406
	c-0.608,7.053,0.232,32.063,0.696,44.321c-4.016,3.119-6.499,5.061-7.199,5.619c-11.215,8.916-9.644,15.634,11.469,13.636
	c21.115-1.99,509.34-50.212,660.706-25.515c37.839,6.174,75.06,15.195,110.567,25.648L789.848,435.382z"/>
</svg>
