<?xml version="1.0" encoding="utf-8"?>
<!-- Generator: Adobe Illustrator 21.0.2, SVG Export Plug-In . SVG Version: 6.00 Build 0)  -->
<svg version="1.1" id="Layer_1" xmlns="http://www.w3.org/2000/svg" xmlns:xlink="http://www.w3.org/1999/xlink" x="0px" y="0px"
	 width="1987.9px" height="1246.8px" viewBox="0 0 1987.9 1246.8" style="enable-background:new 0 0 1987.9 1246.8;"
	 xml:space="preserve">
<style type="text/css">
	.st0{fill:none;stroke:#000000;stroke-linejoin:round;stroke-miterlimit:10;}
</style>
<path class="st0" d="M169.8,471.8c-22.5-13.1-34.8-38.1-21.7-62c12.2-22.2,40.1-25.2,62.6-12.1c22.5,13.1,32,48.4,21.7,65.9
	C222.3,481.2,192.4,485,169.8,471.8z M1386.3,320.1l111.1,147.4c5.3,7,3.9,16.9-3,22.2l-246.1,185.5c-7,5.2-16.9,3.8-22.2-3.2
	L1115,524.6c-5.3-7-3.9-16.9,3-22.2l246.1-185.5C1371.1,311.7,1381,313.1,1386.3,320.1z M1853.7,978.3c0.6,0.8,1.7,1.3,3.4,1.6
	c30.9,4.2,68.1,6.1,80.7,0.5c-20-51-383.7-644.1-398.9-665.7c-11-15.6-17.5-23.2-26.9-26.1l0,0c-29.3-19.1,2-76.9,17.7-88.3l0,0
	c5.9-2.6,12.5-5.9,17.1-12.9c7-10.6,86.2-121,103.3-147.4c3-4.6,0.2-17.2,0.2-17.2L1641.7,4c0,0-7-6.9-12.1-2.6
	c-40.7,34-230.8,191.4-381.7,291.4C1104.2,388.1,960,456.6,918.6,475.6c-4.1,1.9-5.9,4.2-5.4,6.7l0,0c0,0,8,26.4-24,14.1
	c-134.3-55-488.3-140.5-512.1-140.7c-21-0.2-199.7-22.2-272.3-30.5c-24.4-2.8-45.1-31.4-45.1-31.4l0,0
	c-4.8-10.9-15.8-18.6-28.5-18.6C14,275.3,0,289.2,0,306.4c0,16.1,12.3,29.4,28,31l0,0c0,0,31.5,8.9,41.7,29.5l0,0
	c31,62.5,134.7,277.2,151.5,300.7c19.1,26.8,66,50.6,98,85c32.1,34.3,103,153.9,175.9,222.4c72.9,68.6,293.3,198.8,357.8,226.1
	c64.5,27.3,640.2,61.2,936.6,37.7c75.3-6,169.2-48.2,179.7-54.9c10.4-6.7,27.7-18.9,13.4-20c-11.1-0.8-133.1-17.9-223-26v0
	c-74-7.7-118.4-106.1-44.9-119.6c9.7-0.5,18.9-1.1,27.3-1.7c14.4-1.1,22.4-6,22-11.5h0c4.5-18.9,32.4-29.7,89.8-26.6L1853.7,978.3z"
	/>
</svg>
