<?xml version="1.0" encoding="utf-8"?>
<!-- Generator: Adobe Illustrator 16.0.0, SVG Export Plug-In . SVG Version: 6.00 Build 0)  -->
<!DOCTYPE svg PUBLIC "-//W3C//DTD SVG 1.1//EN" "http://www.w3.org/Graphics/SVG/1.1/DTD/svg11.dtd">
<svg version="1.1" id="Layer_1" xmlns="http://www.w3.org/2000/svg" xmlns:xlink="http://www.w3.org/1999/xlink" x="0px" y="0px"
	 width="1042.049px" height="930.799px" viewBox="0 0 1042.049 930.799" enable-background="new 0 0 1042.049 930.799"
	 xml:space="preserve">
<path d="M1041.753,305.299c-7.719-13.705-20.487-36.394-22.694-41.366c-6.912-15.571-15.101-30.523-23.445-45.365l-46.758-83.149
	c-2.782-4.947-7.72-13.727-7.812-15.122c-0.062-0.84-12.045-23.406-35.855-67.822c-8.554-15.896-13.66-24.737-15.313-26.522
	c-7.949-8.681-21.645-14.5-40.945-17.352c-7.938-1.202-23.049-2.767-45.338-4.531c-4.03-0.319-8.037-0.881-12.062-1.263
	c-5.042-0.479-11.951-1.494-17.909-2.37c-6.178-0.908-12.561-0.49-18.307,2.061l-15.531,6.894
	c-8.26,3.667-15.222,9.953-23.854,12.797c-0.688,0.226-23.728,14.706-29.351,18.541c-7.086,4.8-40.266,29.61-53.46,43.897
	c-9.203,9.965-19.828,18.534-28.875,28.651c-5.589,6.251-10.839,12.793-16.313,19.139c-14.146,16.378-26.656,34.198-35.707,53.898
	l-6.411,13.953c-5.188,11.204-13.418,24.074-24.786,38.573c-10.709,13.66-22.849,26.106-35.708,37.75
	c-36.287,32.86-85.063,36.648-131.691,36.043c-32.94-0.428-65.812-0.629-98.761-0.192c-32.596,0.431-65.44,0.567-98.035,0.184
	c-23.629-0.28-47.262-0.471-70.892-0.307c-12.928,0.089-25.854,0.282-38.773,0.629c-8.321,0.223-16.866,0.528-25.014,2.396
	c0.69-0.158,6.677,24.817,7.212,27.334c6.474,30.429-2.673,56.456-26.077,76.751c-2.048,1.775-3.138,3.044-3.263,3.654
	c-0.586,2.842,12.422,10.001,14.953,11.261c9.299,4.63,19.729,7.444,29.435,11.186c32.595,12.553,64.191,27.687,97.335,38.796
	c10.466,3.51,20.514,8.119,30.809,12.084c9.141,3.52,18.514,6.424,27.541,10.227c3.77,1.586,42.292,16.547,63.458,24.771
	l17.038,6.612c9.496,3.689,18.599,8.363,28.252,11.646c10.854,3.688,21.134,8.871,31.938,12.684
	c6.728,2.371,11.753,4.476,14.866,6.162l14.091,7.609l25.177,16.08l12.333,10.752c6.938,6.045,17.511,15.26,20.117,18.877
	c13.305,18.438,25.692,40.666,37.201,66.594c7.849,17.685,22.29,50.426,23.545,53.041l59.275,123.601l13.037,8.782l60.09,20.906
	c15.075,5.033,30.146,10.084,44.979,15.797c10.683,4.113,21.438,8.019,32.277,11.668l15.84,5.338l16.066,3.189
	c1.725,0.338,4.484-0.891,8.227-3.65c2.438-5.336,4.457-10.723,6.133-16.352c4.654-15.621,11.652-52.971,16.646-79.625l2.943-15.729
	l3.395-15.604c1.666-7.666,2.486-15.492,4.222-23.146c1.273-5.612,15.711-75.172,23.521-112.768
	c2.229-10.76,3.393-16.316,3.439-16.732c0.622-5.055,10.169-52.065,15.446-78.063l22.867-112.64l15.869-72.503
	c1.674-6.232,1.938-12.817,4.219-18.889c4.04-10.774,10.5-19.47,19.414-26.186c3.905-2.915,23.129-12.314,29.892-14.292
	c3.919-1.108,9.249-2.059,16.021-2.777c3.236-0.334,19.418-0.979,48.401-1.871c21.207-0.67,32.021-0.979,32.345-0.964l16.135-0.388
	c11.163-0.229,17.721-1.25,19.805-3.119C1041.968,312.531,1042.495,306.625,1041.753,305.299z M611.571,843.901
	c-24.205,10.741-52.584-0.271-63.386-24.605c-10.801-24.332,0.065-52.77,24.271-63.514s52.584,0.27,63.386,24.604
	C646.643,804.718,635.776,833.157,611.571,843.901z"/>
</svg>
