<?xml version="1.0" encoding="utf-8"?>
<!-- Generator: Adobe Illustrator 16.0.0, SVG Export Plug-In . SVG Version: 6.00 Build 0)  -->
<!DOCTYPE svg PUBLIC "-//W3C//DTD SVG 1.1//EN" "http://www.w3.org/Graphics/SVG/1.1/DTD/svg11.dtd">
<svg version="1.1" id="Layer_1" xmlns="http://www.w3.org/2000/svg" xmlns:xlink="http://www.w3.org/1999/xlink" x="0px" y="0px"
	 width="632.399px" height="268.318px" viewBox="0 0 632.399 268.318" enable-background="new 0 0 632.399 268.318"
	 xml:space="preserve">
<path fill="none" stroke="#000000" stroke-linejoin="round" stroke-miterlimit="10" d="M562.161,57.844
	c-61.977,45.712-222.125,51.354-269.181,53.37c-47.05,2.017-220.93-5.632-273.954-52.751C7.352,48.086-5.906,54.939,2.819,68.123
	c7.087,10.721,82.115,123.326,109.936,165.088c6.4,9.61,17.114,18.074,30.297,21.418c41.521,10.522,145.961,26.822,300.929-4.771
	c24.234-4.941,35.762-10.248,46.734-28.479c27.223-45.213,80.73-135.797,88.146-149.188
	C589.258,53.41,575.866,47.736,562.161,57.844z"/>
</svg>
