<?xml version="1.0" encoding="utf-8"?>
<!-- Generator: Adobe Illustrator 16.0.0, SVG Export Plug-In . SVG Version: 6.00 Build 0)  -->
<!DOCTYPE svg PUBLIC "-//W3C//DTD SVG 1.1//EN" "http://www.w3.org/Graphics/SVG/1.1/DTD/svg11.dtd">
<svg version="1.1" id="Layer_1" xmlns="http://www.w3.org/2000/svg" xmlns:xlink="http://www.w3.org/1999/xlink" x="0px" y="0px"
	 width="810.485px" height="1478.846px" viewBox="0 0 810.485 1478.846" enable-background="new 0 0 810.485 1478.846"
	 xml:space="preserve">
<path fill="none" stroke="#020203" stroke-linejoin="round" stroke-miterlimit="10" d="M138.35,14.422
	c0.002,0.663,0.067,1.312,0.205,1.937c99.752,451.361,223.96,712.762,240.101,750.083c16.419,37.979,47.065,37.979,63.489,0
	c16.141-37.32,140.35-298.723,240.102-750.083c0.146-0.665,0.212-1.357,0.205-2.064"/>
<path fill="none" stroke="#020203" stroke-linejoin="round" stroke-miterlimit="10" d="M387.213,1411.402
	c1.614,1.152,2.794,1.979,3.465,2.424c8.792,5.815,14.78,5.029,14.601-3.631c-0.184-8.668-0.271-22.357,6.229-22.312l2.002-0.107
	c12,0.103,8.539,15.24,8.459,23.908c-0.068,8.66,5.932,9.379,14.645,3.451c0.977-0.663,3.039-2.162,5.944-4.311"/>
<path fill="none" stroke="#000001" stroke-linejoin="round" stroke-miterlimit="10" d="M782.418,117.797
	c-3.396-0.057-6.834,2.765-7.41,11.804c-50.352,391.058-249.357,825.079-283.85,899.889c-26.482,57.42-57,79.889-70.441,87.471
	c-4.447,2.33-3.99,6.572-3.99,6.572c2.07,1.098,3.475,3.274,3.451,5.789c-0.027,3.59-2.961,6.479-6.549,6.448
	c-3.592-0.028-6.479-2.971-6.453-6.562c0.033-2.699,1.701-5,4.053-5.959c0,0,0.039-3.752-5.447-6.291
	c-11.543-5.66-45.043-26.541-74.341-88.09C296.028,954.488,90.007,528.9,34.887,138.48c-0.616-8.027-3.427-11.116-6.426-11.636"/>
</svg>
