<?xml version="1.0" encoding="utf-8"?>
<!-- Generator: Adobe Illustrator 16.0.0, SVG Export Plug-In . SVG Version: 6.00 Build 0)  -->
<!DOCTYPE svg PUBLIC "-//W3C//DTD SVG 1.1//EN" "http://www.w3.org/Graphics/SVG/1.1/DTD/svg11.dtd">
<svg version="1.1" id="Layer_1" xmlns="http://www.w3.org/2000/svg" xmlns:xlink="http://www.w3.org/1999/xlink" x="0px" y="0px"
	 width="2951.68px" height="905.434px" viewBox="0 0 2951.68 905.434" enable-background="new 0 0 2951.68 905.434"
	 xml:space="preserve">
<path fill="none" stroke="#000000" stroke-linejoin="round" stroke-miterlimit="10" d="M2280.716,487.743
	c-1.891-3.207-4.732-6.47-8.641-9.806c-3.854-3.278-65.188-41.728-129.213-95.978c-39.562-33.521-87.562-62.229-126.336-85.293
	c-1.121,1.209-2.604,2.111-4.315,2.523c-4.656,1.115-9.336-1.752-10.449-6.409c-1.123-4.655,1.746-9.333,6.4-10.446
	c4.651-1.123,9.336,1.744,10.444,6.399c0.172,0.712,0.238,1.431,0.23,2.125c14.646,6.987,42.218,20.3,64.134,31.798
	c25.83,13.557,167.248,90.907,216.432,117.826c3.959,2.167,7.864,3.433,11.564,3.803 M2291.056,534.602
	c1.632,10.601-3.211,15.29-13.364,16.396c-38.931,4.256-138.706,14.558-193.64,14.787c-73.345,0.306-85.062-10.799-146.533-35.979
	c-61.472-25.172-202.938-95.438-354.297-120.133c-151.36-24.7-639.588,23.522-660.703,25.519
	c-17.635,1.667-21.637-2.746-15.94-9.441 M2278.434,684.941c15.308-29.743,27.234-52.707,30.128-57.843
	c9.368-16.648,8.868-40.182-13.696-39.906c-22.561,0.27-426.756,12.93-471.179,16.389c-44.416,3.461-131.392,18.162-146.914,17.77
	c-11.338-0.284-12.606,2.509-9.351,5.291 M211.174,579.393c6.139-0.34,12.436,0.157,22.49,2.188
	c13.381,2.705,39.301,6.602,52.342,8.502c-0.134,0.985-0.1,2.004,0.146,3.016c1.026,4.297,5.34,6.943,9.646,5.916
	c4.296-1.035,6.943-5.354,5.907-9.643c-1.026-4.299-5.352-6.945-9.647-5.918c-2.386,0.576-4.259,2.168-5.281,4.205
	c-4.345-1.986-10.098-4.258-15.564-5.369c-9.915-2.022-31.641-5.861-10.129-18.276 M1626.32,608.267
	c7.613,2.082,17.164,2.616,34.933-1.647c48.625-11.668,244.468-22.668,265.584-24.65c21.119-1.978,22.717-16.761,8.478-24.656
	c-14.235-7.896-246.079-112.694-375.183-132.104c-94.394-14.197-456.006,2.463-696.621,28.321c-2.454,0.264-4.684,0.829-6.794,1.63"
	/>
</svg>
