<?xml version="1.0" encoding="utf-8"?>
<!-- Generator: Adobe Illustrator 16.0.0, SVG Export Plug-In . SVG Version: 6.00 Build 0)  -->
<!DOCTYPE svg PUBLIC "-//W3C//DTD SVG 1.1//EN" "http://www.w3.org/Graphics/SVG/1.1/DTD/svg11.dtd">
<svg version="1.1" id="Layer_1" xmlns="http://www.w3.org/2000/svg" xmlns:xlink="http://www.w3.org/1999/xlink" x="0px" y="0px"
	 width="2944.17px" height="901.523px" viewBox="0 0 2944.17 901.523" enable-background="new 0 0 2944.17 901.523"
	 xml:space="preserve">
<path d="M2039.482,426.029c-0.698-0.562-3.172-2.518-7.161-5.672c0.545-12.25,1.557-37.26,0.989-44.314
	c-0.754-9.457,3.104-16.746-7.104-25.444c-10.213-8.698-361.926-282.021-370.93-291.456c-9.007-9.43-20.406-13.285-30.587-9.611
	c-6.674,2.4-33.521,7.774-51.254,11.189c-6.219-3.436-17.271-10.481-24.688-20.678c-10.829-14.881-87.438-45.593-216.322-39.174
	c-128.897,6.43-600.183,101.477-600.183,101.477s-13.743,4.588-18.02,8.52c-11.532,10.613-45.227,31.834-136.599,43.463
	c-75.431,9.611-549.374,83.514-566.539,85.633c-17.153,2.129-12.31,11.542,0.396,10.915c12.711-0.63,161.877-4.824,238.643-2.855
	c76.762,1.97,132.774,0.351,218.06,55.405c66.686,43.053,130.528,105.241,155.211,130.314c6.878,6.99,17.05,7.684,27.644,1.969
	c49.361-26.588,191.292-102.99,217.209-116.37c21.994-11.362,49.651-24.478,64.343-31.369c-0.002-0.702,0.069-1.411,0.247-2.12
	c1.145-4.65,5.846-7.486,10.489-6.344c4.646,1.156,7.482,5.852,6.33,10.493c-1.143,4.646-5.843,7.481-10.488,6.339
	c-1.712-0.426-3.188-1.335-4.303-2.544c-38.927,22.806-87.12,51.192-126.9,84.45c-64.385,53.82-125.976,91.856-129.849,95.104
	c-6.512,5.485-10.101,10.783-11.273,15.983c-1.18,5.203-6.393,29.964-8.091,40.554c-1.693,10.589,3.113,15.31,13.263,16.481
	c38.896,4.517,138.604,15.484,193.53,16.085c73.341,0.793,85.139-10.238,146.771-35.005
	c61.639-24.771,203.569-94.092,355.091-117.774c151.521-23.688,639.418,27.774,660.519,29.915
	C2049.021,441.724,2050.634,435.021,2039.482,426.029z M1272.442,620.722c-15.527,0.288-102.4-14.984-146.793-18.738
	c-44.396-3.762-448.505-19.111-471.06-19.532c-22.562-0.428-23.224,23.104-13.961,39.812
	c9.269,16.714,112.195,221.365,118.78,236.38c6.598,15.021,6.608,23.27,7.368,32.722c0.754,9.466,16.699,17.544,20.854-1.021
	c10.062-44.898,34.729-69.71,105.448-105.806c70.721-36.088,375.512-152.396,383.501-155.572
	C1284.576,625.783,1287.951,620.438,1272.442,620.722z M2944.077,636.16c-1.5-16.16-22.978-7.053-46.606-14.262
	c-23.621-7.205-132.021-29.863-147.229-32.242c-15.202-2.387-21.026-3.82-39.412-0.236c-13.396,2.605-39.344,6.33-52.396,8.154
	c0.131,0.975,0.09,1.992-0.164,3.012c-1.06,4.287-5.389,6.91-9.687,5.844c-4.291-1.053-6.907-5.395-5.844-9.684
	c1.055-4.287,5.396-6.91,9.687-5.844c2.385,0.586,4.246,2.188,5.254,4.229c4.356-1.942,10.125-4.178,15.604-5.26
	c10.826-2.137,35.709-6.324,3.336-21.842c-97.639-46.779-447.211-74.412-508.094-78.121c-60.892-3.709-64.729-30.234-86.678-32.734
	c-240.437-27.458-601.927-46.537-696.414-32.969c-129.229,18.558-361.767,121.801-376.057,129.604
	c-14.288,7.806-12.791,22.601,8.312,24.72c21.104,2.131,216.864,14.434,265.415,26.422c48.536,11.985,35.799-12.354,89.966-5.592
	c294.781,36.764,807.708,195.393,852.631,213.694c25.479,10.39,47.575,15.871,77.457,32.521c18.86,10.508,43.7,8.215,63.325,6.369
	c45.343-4.248,168.901-23.517,214.827-19.027c45.931,4.469,94.402,47.346,102.984,54.271c8.596,6.932,17.491,9.812,24.254-2.253
	c6.748-12.063,84.312-148.104,208.205-217.401C2928.284,661.078,2945.582,652.33,2944.077,636.16z M1216.483,549.346
	c-5.025,20.373-25.623,32.814-46.006,27.777c-20.367-5.033-32.811-25.621-27.771-46.004c5.033-20.369,25.635-32.81,46-27.775
	C1209.073,508.379,1221.517,528.969,1216.483,549.346z M1844.284,575.611c-13.508,54.682-68.793,88.063-123.478,74.562
	c-54.692-13.508-88.069-68.793-74.563-123.479c13.512-54.691,68.8-88.069,123.479-74.562
	C1824.406,465.643,1857.791,520.93,1844.284,575.611z"/>
</svg>
