<?xml version="1.0" encoding="utf-8"?>
<!-- Generator: Adobe Illustrator 16.0.0, SVG Export Plug-In . SVG Version: 6.00 Build 0)  -->
<!DOCTYPE svg PUBLIC "-//W3C//DTD SVG 1.1//EN" "http://www.w3.org/Graphics/SVG/1.1/DTD/svg11.dtd">
<svg version="1.1" id="Layer_1" xmlns="http://www.w3.org/2000/svg" xmlns:xlink="http://www.w3.org/1999/xlink" x="0px" y="0px"
	 width="1906.986px" height="977.727px" viewBox="0 0 1906.986 977.727" enable-background="new 0 0 1906.986 977.727"
	 xml:space="preserve">
<path fill="none" stroke="#000000" stroke-miterlimit="10" d="M1879.586,699.775c-20.695-7.95-428.578-158.128-452.938-165.857
	c0,0-31.688-7.293-40.549-32.495c-8.863-25.202,60.888-88.204,90.049-123.04c29.16-34.834-20.732-39.195-42.271-30.553
	S719.512,635.122,692.916,651.421s-55.646,52.965-49.823,58.131c5.824,5.165,181.936,244.604,191.859,256.871
	c9.929,12.272,26.412,11.284,26.412,11.284s24.979-12.526,32.198-14.797c7.216-2.271-8.896-56.449-3.516-58.61
	c5.385-2.162,30.771,53.301,39.815,50.92c9.048-2.381,62.567-29.481,154.694-25.812c40.379,1.606,329.244-27.086,351.006-32.066
	c21.761-4.979,63.557-13,77.658-23.036c14.104-10.036,155.613-71.822,166.385-76.146c10.771-4.321,175.799-41.786,210.05-53.027
	C1923.907,733.883,1900.281,707.727,1879.586,699.775z M1362.227,348.448c24.548-19.854,129.533-77.613,156.238-92.08
	c26.705-14.469,108.871-54.319,128.144-70.18c19.271-15.859,53.924-51.022,53.924-51.022s16.047-8.315-1.316-21.979
	c-17.364-13.665-182.97-108.513-182.97-108.513c-5.713-3.334-17.143-10.001-21.869,3.149c-4.727,13.148-20.518,56.372-25.572,64.028
	c-5.056,7.656-32.092,16.628-32.97,1.977c-0.878-14.653,7.147-64.764-18.274-59.564c-25.423,5.2-206.935,43.652-248.946,48.008
	c-42.021,4.356-213.968,18.341-223.233,17.058c-9.268-1.283-26.081-5.791-23.479,6.921c2.601,12.712,8.238,45.461,2.742,45.79
	c-5.495,0.329-25.382-55.461-32.599-53.19c-7.216,2.27-91.467,7.32-113.557,6.806c-22.091-0.514-79.417-6.271-86.854-7.663
	c-7.435-1.391-16.264,4.652-13.224,24.69c3.039,20.037,2.523,42.125-5.46,31.574c-7.985-10.55-43.696-54.362-54.797-55.535
	c-11.102-1.172-148.688,3.398-221.95,7.789c-73.267,4.391-256.86,8.042-286.604,2.473c-29.747-5.571-44.729-10.188-53.01,5.013
	c-8.28,15.203-43.271,136.78-52.503,166.742c-9.233,29.964-7.516,119.931,56.074,138.178
	c63.591,18.246,241.836,48.003,321.396,87.349c79.562,39.35,155.568,80.744,175.531,107.121
	c19.962,26.377,43.918,58.029,76.336,46.896c32.419-11.134,332.807-121.047,427.793-161.664
	C1156.207,437.998,1337.684,368.301,1362.227,348.448z"/>
</svg>
