<?xml version="1.0" encoding="utf-8"?>
<!-- Generator: Adobe Illustrator 16.0.0, SVG Export Plug-In . SVG Version: 6.00 Build 0)  -->
<!DOCTYPE svg PUBLIC "-//W3C//DTD SVG 1.1//EN" "http://www.w3.org/Graphics/SVG/1.1/DTD/svg11.dtd">
<svg version="1.1" id="Layer_1" xmlns="http://www.w3.org/2000/svg" xmlns:xlink="http://www.w3.org/1999/xlink" x="0px" y="0px"
	 width="1906.984px" height="977.726px" viewBox="0 0 1906.984 977.726" enable-background="new 0 0 1906.984 977.726"
	 xml:space="preserve">
<path d="M1879.587,699.775c-20.695-7.949-428.578-158.127-452.938-165.857c0,0-31.686-7.293-40.548-32.494
	c-8.864-25.202,60.887-88.203,90.048-123.04c29.16-34.834-20.729-39.196-42.271-30.553s-714.366,287.292-740.963,303.59
	s-55.646,52.965-49.821,58.131c5.823,5.164,181.933,244.602,191.856,256.871c9.932,12.271,26.412,11.283,26.412,11.283
	s24.982-12.525,32.199-14.797c7.215-2.271-8.896-56.449-3.514-58.609c5.385-2.162,30.769,53.301,39.812,50.92
	c9.048-2.381,62.57-29.482,154.696-25.814c40.378,1.607,329.245-27.086,351.005-32.066c21.76-4.979,63.558-13,77.66-23.035
	c14.103-10.037,155.613-71.822,166.384-76.145c10.771-4.32,175.797-41.785,210.048-53.027
	C1923.906,733.882,1900.28,707.726,1879.587,699.775z M1362.226,348.449c24.545-19.854,129.533-77.613,156.238-92.08
	c26.704-14.469,108.87-54.319,128.141-70.18c19.271-15.859,53.924-51.022,53.924-51.022s16.047-8.315-1.313-21.979
	C1681.852,99.523,1516.245,4.675,1516.245,4.675c-5.713-3.334-17.143-10.001-21.867,3.149c-4.729,13.148-20.52,56.372-25.571,64.028
	c-5.059,7.656-32.093,16.628-32.973,1.977c-0.878-14.653,7.147-64.764-18.271-59.564c-25.423,5.2-206.938,43.652-248.949,48.008
	c-42.018,4.356-213.965,18.341-223.23,17.058c-9.271-1.283-26.081-5.791-23.48,6.921s8.24,45.461,2.744,45.79
	s-25.382-55.461-32.6-53.19c-7.218,2.27-91.468,7.32-113.559,6.806c-22.088-0.514-79.417-6.271-86.854-7.663
	c-7.438-1.391-16.267,4.652-13.227,24.69c3.039,20.037,2.526,42.125-5.46,31.574c-7.982-10.55-43.695-54.362-54.796-55.535
	c-11.1-1.172-148.688,3.398-221.951,7.789c-73.265,4.391-256.859,8.042-286.604,2.473c-29.745-5.571-44.729-10.188-53.009,5.013
	c-8.279,15.203-43.271,136.78-52.503,166.742c-9.231,29.964-7.516,119.93,56.074,138.177
	c63.591,18.246,241.835,48.003,321.396,87.349c79.561,39.348,155.566,80.745,175.531,107.122
	c19.962,26.377,43.918,58.029,76.336,46.895c32.419-11.133,332.805-121.047,427.793-161.663
	C1156.206,437.999,1337.683,368.301,1362.226,348.449z"/>
</svg>
