<?xml version="1.0" encoding="utf-8"?>
<!-- Generator: Adobe Illustrator 16.0.0, SVG Export Plug-In . SVG Version: 6.00 Build 0)  -->
<!DOCTYPE svg PUBLIC "-//W3C//DTD SVG 1.1//EN" "http://www.w3.org/Graphics/SVG/1.1/DTD/svg11.dtd">
<svg version="1.1" id="Layer_1" xmlns="http://www.w3.org/2000/svg" xmlns:xlink="http://www.w3.org/1999/xlink" x="0px" y="0px"
	 width="1036.903px" height="570.141px" viewBox="0 0 1036.903 570.141" enable-background="new 0 0 1036.903 570.141"
	 xml:space="preserve">
<path fill="none" stroke="#000000" stroke-linejoin="round" stroke-miterlimit="10" d="M997.157,216.467
	c-32.086-17.901-206.359-83.553-267.164-101.321C669.182,97.377,512.969,32.461,466.118,15.45
	C419.265-1.564,401.208-2.299,386.46,2.691C371.712,7.685,90.686,100.084,67.753,109.217c-22.935,9.134,4.389,61.522,20.838,69.652
	c16.45,8.13,170.208,73.877,214.66,104.03c44.454,30.152,214.833,140.959,227.179,149.104c12.35,8.148,26.301,8.904,39.42,7.201
	c13.123-1.703,86.955-6.15,92.74,2.848c5.785,9-52.369,31.431-52.369,31.431s-35.805,64.176-39.02,78.959
	c-3.213,14.782,18.965,19.604,38.645,17.053c19.684-2.558,201.771-18.996,235.408-20.795s45.037-20.729,51.539-33.89
	c0,0,93.521-180.965,133.449-241.054C1047.542,247.729,1029.243,234.372,997.157,216.467z"/>
</svg>
