<?xml version="1.0" encoding="utf-8"?>
<!-- Generator: Adobe Illustrator 16.0.0, SVG Export Plug-In . SVG Version: 6.00 Build 0)  -->
<!DOCTYPE svg PUBLIC "-//W3C//DTD SVG 1.1//EN" "http://www.w3.org/Graphics/SVG/1.1/DTD/svg11.dtd">
<svg version="1.1" id="Layer_1" xmlns="http://www.w3.org/2000/svg" xmlns:xlink="http://www.w3.org/1999/xlink" x="0px" y="0px"
	 width="1036.902px" height="570.141px" viewBox="0 0 1036.902 570.141" enable-background="new 0 0 1036.902 570.141"
	 xml:space="preserve">
<path fill="none" stroke="#000000" stroke-linejoin="round" stroke-miterlimit="10" d="M59.199,128.649
	c2.132,18.92,18.255,44.715,29.392,50.22c16.45,8.13,170.208,73.877,214.66,104.03c44.453,30.152,214.833,140.959,227.179,149.104
	c12.35,8.148,26.301,8.904,39.42,7.201c13.123-1.703,86.955-6.15,92.74,2.848c5.784,9-52.369,31.432-52.369,31.432
	s-35.806,64.176-39.021,78.959c-3.213,14.781,18.965,19.604,38.646,17.053c19.684-2.559,201.771-18.996,235.408-20.795
	c33.637-1.799,45.036-20.729,51.539-33.891c0,0,93.521-180.964,133.448-241.054c17.299-26.027-1-39.384-33.086-57.289
	c-32.086-17.901-206.358-83.553-267.164-101.321c-60.81-17.769-217.022-82.685-263.874-99.696
	C419.265-1.564,401.207-2.299,386.46,2.691c-14.416,4.881-283.264,93.28-316.773,105.785c-1.439,0.538-3.63,0.701-5.079,0.146
	c-0.812-0.312-1.474-0.889-1.973-1.595c-0.539-0.761-0.411-1.33-0.35-2.205c0.051-0.734,0.076-1.469,0.076-2.205
	c0-17.221-13.96-31.181-31.181-31.181S0,85.396,0,102.617c0,17.221,13.96,31.181,31.181,31.181c1.953,0,3.906-0.181,5.825-0.543
	c2.77-0.524,5.466-1.427,7.993-2.678c1.242-0.615,2.442-1.313,3.592-2.088c0.768-0.518,1.464-1.13,2.188-1.703
	c0.819-0.648,1.855-1.233,2.773-1.729c0.848-0.458,1.809-0.845,2.788-0.642C58.347,124.829,58.546,127.066,59.199,128.649z"/>
</svg>
