<?xml version="1.0" encoding="utf-8"?>
<!-- Generator: Adobe Illustrator 16.0.0, SVG Export Plug-In . SVG Version: 6.00 Build 0)  -->
<!DOCTYPE svg PUBLIC "-//W3C//DTD SVG 1.1//EN" "http://www.w3.org/Graphics/SVG/1.1/DTD/svg11.dtd">
<svg version="1.1" id="Layer_1" xmlns="http://www.w3.org/2000/svg" xmlns:xlink="http://www.w3.org/1999/xlink" x="0px" y="0px"
	 width="1188.834px" height="736.883px" viewBox="0 0 1188.834 736.883" enable-background="new 0 0 1188.834 736.883"
	 xml:space="preserve">
<path fill="none" stroke="#000000" stroke-miterlimit="10" d="M65.659,13.578C68.031,8.28,72.77-2.312,85.191,2.61
	c12.418,4.922,251.652,102.448,267.723,107.731c16.068,5.286,30.678,6.736,31.438,54.754
	c0.762,48.017,16.882,423.932,17.072,440.543c0.193,16.613-9.104,35.977-33.577,22.479c-24.476-13.498-75.26-59.107-92.623-88.492
	C257.862,510.245,0,117.686,0,117.686L65.659,13.578z M1123.591,12.292c-2.35-5.307-7.047-15.918-19.485-11.045
	c-12.438,4.872-252.062,101.438-268.151,106.658c-16.09,5.221-30.703,6.61-31.657,54.626
	c-0.953,48.014-18.581,423.856-18.841,440.471c-0.26,16.615,8.961,36.01,33.488,22.613c24.525-13.397,75.493-58.807,92.977-88.119
	c17.479-29.312,276.916-420.833,276.916-420.833L1123.591,12.292z M593.287,127.192l-192.043-12.061
	c0,0,23.004,528.188,27.838,568.303c4.832,40.117,22.329,44.645,38.016,49.469c15.688,4.818,126.91,3.916,126.91,3.916
	s111.228,0.684,126.901-4.18c15.675-4.859,33.161-9.428,37.896-49.557c4.738-40.129,26.494-568.367,26.494-568.367L593.287,127.192z
	"/>
</svg>
