<?xml version="1.0" encoding="utf-8"?>
<!-- Generator: Adobe Illustrator 16.0.0, SVG Export Plug-In . SVG Version: 6.00 Build 0)  -->
<!DOCTYPE svg PUBLIC "-//W3C//DTD SVG 1.1//EN" "http://www.w3.org/Graphics/SVG/1.1/DTD/svg11.dtd">
<svg version="1.1" id="Layer_1" xmlns="http://www.w3.org/2000/svg" xmlns:xlink="http://www.w3.org/1999/xlink" x="0px" y="0px"
	 width="1188.834px" height="736.883px" viewBox="0 0 1188.834 736.883" enable-background="new 0 0 1188.834 736.883"
	 xml:space="preserve">
<path fill="none" stroke="#000001" stroke-linejoin="round" stroke-miterlimit="10" d="M771.495,683.702
	c-4.606-2.98-9.966-2.232-13.078,2.38c-5.237,37.361-22.232,41.821-37.508,46.557c-15.674,4.863-126.901,4.18-126.901,4.18
	s-111.222,0.902-126.91-3.916c-15.687-4.824-33.184-9.352-38.016-49.469c-0.331-2.741-0.746-7.762-1.233-14.737
	c0-19.958-19.533-36.107-43.672-36.107c-4.454,0.367-9.862-0.904-16.33-4.472c-24.476-13.498-75.26-59.107-92.623-88.492
	C257.862,510.245,0,117.686,0,117.686L65.659,13.578C68.031,8.28,72.77-2.312,85.191,2.61
	c11.841,4.694,229.917,93.588,264.085,106.416c8.697,1.785,17.484,3.165,26.333,3.919c6.942,0.592,13.884,1.193,20.826,1.784
	c1.603,0.136,3.209,0.245,4.81,0.401l192.043,12.061l192.012-12.477c1.474-0.116,2.948-0.208,4.422-0.317
	c2.25-0.166,4.501-0.327,6.751-0.486c7.615-0.54,15.282-0.655,22.829-1.905c3.665-0.607,7.273-1.5,10.902-2.286
	c1.881-0.609,3.806-1.184,5.751-1.815c16.09-5.22,255.714-101.786,268.151-106.658c12.438-4.873,17.136,5.738,19.485,11.045
	l65.246,104.371c0,0-259.437,391.521-276.916,420.833c-16.124,27.033-60.728,67.757-86.804,84.436
	c-6.131,5.749-9.849,14.321-6.204,22.495l0.003-0.004c2.746,4.644,4.321,10.061,4.321,15.846c0,17.222-13.961,31.182-31.182,31.182
	c-7.88,0-15.077-2.923-20.566-7.744L771.495,683.702z"/>
</svg>
