<?xml version="1.0" encoding="utf-8"?>
<!-- Generator: Adobe Illustrator 16.0.0, SVG Export Plug-In . SVG Version: 6.00 Build 0)  -->
<!DOCTYPE svg PUBLIC "-//W3C//DTD SVG 1.1//EN" "http://www.w3.org/Graphics/SVG/1.1/DTD/svg11.dtd">
<svg version="1.1" id="Layer_1" xmlns="http://www.w3.org/2000/svg" xmlns:xlink="http://www.w3.org/1999/xlink" x="0px" y="0px"
	 width="1137.218px" height="572.891px" viewBox="0 0 1137.218 572.891" enable-background="new 0 0 1137.218 572.891"
	 xml:space="preserve">
<path fill="none" stroke="#000000" stroke-linejoin="round" stroke-miterlimit="10" d="M1114.333,76.675
	c7.904-3.016,26.201-30.572,22.363-40.632c-3.836-10.059-14.652-12.518-31.938-12.511C1087.48,23.54,585.533,0.17,566.537,0.006
	c-18.992-0.163-26.897,2.852-35.861,9.563c-8.963,6.711-136.604,101.493-145.124,107.211c-8.521,5.719-13.922,21.771,1.96,28.883
	c15.885,7.111,160.213,6.309,181.73,14.639c27.092,10.493,66.904,51.379,93.971,94.381c10.059,15.983,21.068,15.746,30.574,12.034
	C701.265,263.795,1114.333,76.675,1114.333,76.675z M263.917,245.921c-14.382-1.922-22.974-2.249-37.747,6.142
	c-14.772,8.389-51.447,22.487-63.989,26.485c-12.543,3.999-114.382,0.422-132.065-2.593c-24.997-4.261-44.32,25.168-16.328,40.338
	c27.992,15.17,98.603,59.303,130.847,89.281c47.972,44.6,77.077,135.539,83.618,153.684c6.54,18.146,23.259,16.104,33.586,5.914
	c10.676-10.535,93.085-86.926,124.483-107.074c31.396-20.148,153.139-103.541,169.846-113.34
	c25.181-14.77,20.083-40.205-4.031-48.693C528.024,287.581,263.917,245.921,263.917,245.921z"/>
</svg>
