<?xml version="1.0" encoding="utf-8"?>
<!-- Generator: Adobe Illustrator 16.0.0, SVG Export Plug-In . SVG Version: 6.00 Build 0)  -->
<!DOCTYPE svg PUBLIC "-//W3C//DTD SVG 1.1//EN" "http://www.w3.org/Graphics/SVG/1.1/DTD/svg11.dtd">
<svg version="1.1" id="Layer_1" xmlns="http://www.w3.org/2000/svg" xmlns:xlink="http://www.w3.org/1999/xlink" x="0px" y="0px"
	 width="1268.121px" height="529.782px" viewBox="0 0 1268.121 529.782" enable-background="new 0 0 1268.121 529.782"
	 xml:space="preserve">
<path fill="none" stroke="#000000" stroke-linejoin="round" stroke-miterlimit="10" d="M61.017,393.75
	c0.458-0.543,1.115-0.918,1.764-1.186c0.657-0.271,1.36-0.428,2.07-0.438c1.473-0.021,2.939,0.399,4.342,0.811
	c0.777,0.229,1.595,0.43,2.345,0.729c8.603,4.86,21.656,8.308,32.045,10.513c23.078,4.897,451.226,108.534,462.572,112.558
	c11.345,4.021,32.026,14.643,40.332,12.842c8.301-1.799,375.243-54.881,402.625-59.039c27.387-4.156,34.149,0.434,109.748-33.701
	c75.596-34.139,123-95.784,141.153-118.176c18.157-22.393,2.46-49.123-14.308-65.65c0,0-110.174-79.071-273.938-147.484
	C903.467,76.992,715.873,16.257,674.113,4.367C632.347-7.522,579.1,6.806,558.756,24.042
	C538.413,41.279,404.429,148.493,376.067,169.82C347.703,191.145,101.564,350.188,72.92,369.226c-1.093,0.728-2.091,1.44-3,2.146
	c-2.049,0.741-4.394,1.939-6.625,1.731c-3.392-0.315-4.768-3.716-6.382-6.202c-1.866-2.871-4.26-5.391-6.989-7.454
	c-1.519-1.147-3.143-2.153-4.841-3.015c-1.571-0.797-3.26-1.465-4.942-1.987c-2.924-0.907-5.897-1.343-8.958-1.343
	C13.96,353.102,0,367.062,0,384.284c0,17.221,13.96,31.18,31.182,31.18c2.561,0,5.332-0.502,7.82-1.072
	c2.515-0.577,4.941-1.482,7.208-2.717c2.258-1.229,4.36-2.756,6.237-4.514c1.854-1.734,3.474-3.707,4.807-5.867
	c1.342-2.174,2.374-4.513,3.351-6.867C60.706,394.176,60.848,393.954,61.017,393.75z"/>
</svg>
