<?xml version="1.0" encoding="utf-8"?>
<!-- Generator: Adobe Illustrator 16.0.0, SVG Export Plug-In . SVG Version: 6.00 Build 0)  -->
<!DOCTYPE svg PUBLIC "-//W3C//DTD SVG 1.1//EN" "http://www.w3.org/Graphics/SVG/1.1/DTD/svg11.dtd">
<svg version="1.1" id="Layer_1" xmlns="http://www.w3.org/2000/svg" xmlns:xlink="http://www.w3.org/1999/xlink" x="0px" y="0px"
	 width="1263.719px" height="530.941px" viewBox="0 0 1263.719 530.941" enable-background="new 0 0 1263.719 530.941"
	 xml:space="preserve">
<path fill="none" stroke="#000000" stroke-linejoin="round" stroke-miterlimit="10" d="M1191.337,391.875
	c-27.853-20.174-267.396-188.986-294.881-211.437c-27.479-22.451-157.045-134.97-176.678-153.01
	C700.145,9.391,647.518-7.068,605.31,3.132c-42.208,10.198-232.092,63.336-301.482,89.1C137.44,154.004,24.176,228.58,24.176,228.58
	C6.759,244.418-10.003,270.5,7.236,293.6c17.242,23.104,62.124,86.608,136.286,123.76c74.162,37.146,81.109,32.836,108.304,38.092
	c27.191,5.256,391.704,73.055,399.924,75.188c8.226,2.136,29.316-7.643,40.817-11.207c11.499-3.562,443.469-89.893,466.723-93.854
	C1182.548,421.607,1219.195,412.048,1191.337,391.875z"/>
</svg>
