<?xml version="1.0" encoding="utf-8"?>
<!-- Generator: Adobe Illustrator 16.0.0, SVG Export Plug-In . SVG Version: 6.00 Build 0)  -->
<!DOCTYPE svg PUBLIC "-//W3C//DTD SVG 1.1//EN" "http://www.w3.org/Graphics/SVG/1.1/DTD/svg11.dtd">
<svg version="1.1" id="Layer_1" xmlns="http://www.w3.org/2000/svg" xmlns:xlink="http://www.w3.org/1999/xlink" x="0px" y="0px"
	 width="1386.004px" height="617.965px" viewBox="0 0 1386.004 617.965" enable-background="new 0 0 1386.004 617.965"
	 xml:space="preserve">
<path fill="none" stroke="#000000" stroke-linejoin="round" stroke-miterlimit="10" d="M46.809,559.795
	c0.902,0,2.169,0.497,2.912-0.247c0.908-0.911,0.223-2.542,0.295-3.631c-0.461-2.036-0.641-4.159-0.496-6.335
	c0.229-3.449,0.392-6.902,0.596-10.346c0.802-13.568-0.32-29.527,9.235-40.507c4.969-5.713,11.12-10.165,16.979-14.887
	c2.387-1.92,31.223-26.278,46.816-39.438c54.601-46.076,120.279-102.732,197.081-169.912
	c97.515-85.424,136.688-120.006,215.84-194.716c23.444-22.199,44.758-44.066,63.996-65.747c6.657-7.577,10.088-11.354,10.243-11.388
	L625.186,0l14.738,3.385c55.194,12.878,76.457,16.559,134.366,24.2c35.136,4.636,77.412,10.215,105.623,12.03
	c1.17,0.076,6.054,1.32,14.709,3.689c11.332,3.172,20.8,6.55,28.455,10.092c10.979,5.026,23.812,13.276,38.463,24.588
	c53.599,41.332,94.265,72.099,121.785,92.279c40.816,29.812,61.357,44.885,61.588,45.166c3.869,4.805,58.271,43.916,87.892,65.213
	c10.312,7.413,18.426,13.359,24.408,17.693l60.967,44.28c18.707,13.589,34.957,25.285,48.807,35.021l12.281,8.604l4.188,4.395
	l2.539,16.361c0.318,2.234-5.541,11.947-17.604,29.229l-19.422,28.573c-5.799,8.646-9.125,13.355-9.933,14.189
	c-3.33,3.32-6.19,5.627-8.524,6.854c-3.529,1.822-21.521,4.844-29.765,3.902l-14.883-1.609l-29.715-1.771l-30.066-0.386
	l-29.963,1.017l-15.018,0.521c-7.037,0.212-21.908,2.293-44.769,6.272c-12.52,2.129-27.217,5.918-43.932,11.332
	c-33.812,11.042-62.604,28.209-68,32.646c-1.859,1.532-3.697,3.077-5.539,4.639c-6.926,5.846-13.857,11.938-21.039,17.461
	c-9.377,7.205-20.967,9.838-32.387,11.78c-8.769,1.513-38.83,2.974-44.869,2.937l-60.078,0.574
	c-30.334,0.975-139.959,1.473-209.942,1.787c-59.9,0.27-119.8,5.348-179.688,2.393c-30.014-1.485-60.043,0.693-90.066,0.867
	c-36.893,0.211-66.36,5.168-88.371,15.021c-9.683,4.284-17.879,7.584-28.661,7.911c-5.139,0.162-10.177-0.127-15.06-0.906
	L85.439,578.182c-7.121-1.018-14.357-1.849-20.799-4.909l-0.001-0.003c-0.983-0.133-2.325-1.21-3.292-0.553
	c-0.692,0.472-0.5,1.46-0.48,2.178c0.023,0.85,0.048,1.697,0.071,2.547l0.002,0.002c0.925,2.948,1.423,6.087,1.423,9.341
	c0,17.221-13.96,31.182-31.182,31.182c-17.223,0-31.183-13.961-31.183-31.182c0-17.222,13.96-31.183,31.183-31.183
	c5.692,0,11.028,1.524,15.623,4.188L46.809,559.795z"/>
</svg>
