<?xml version="1.0" encoding="utf-8"?>
<!-- Generator: Adobe Illustrator 16.0.0, SVG Export Plug-In . SVG Version: 6.00 Build 0)  -->
<!DOCTYPE svg PUBLIC "-//W3C//DTD SVG 1.1//EN" "http://www.w3.org/Graphics/SVG/1.1/DTD/svg11.dtd">
<svg version="1.1" id="Layer_1" xmlns="http://www.w3.org/2000/svg" xmlns:xlink="http://www.w3.org/1999/xlink" x="0px" y="0px"
	 width="1532.16px" height="820.342px" viewBox="0 0 1532.16 820.342" enable-background="new 0 0 1532.16 820.342"
	 xml:space="preserve">
<path fill="none" stroke="#000000" stroke-linejoin="round" stroke-miterlimit="10" d="M170.783,138.724
	c-30.576,0.388-55.677-24.083-56.065-54.657C114.33,53.49,138.799,28.388,169.377,28c30.574-0.388,55.674,24.083,56.063,54.659
	C225.829,113.232,201.359,138.335,170.783,138.724z M170.524,757.101c-23.47,0.304-42.737-18.483-43.038-41.956
	c-0.298-23.47,18.487-42.735,41.958-43.033c23.471-0.304,42.738,18.481,43.036,41.955
	C212.779,737.532,193.994,756.802,170.524,757.101z M1466.973,261.58c-10.928-13.56-28.117-23.085-41.082-25.04
	c0,0-244.514-72.419-574.064-112.615c-84.215-10.271-320.568-49.641-336.793-51.346c-16.229-1.702-48.709-39.643-54.492-50.202
	C454.762,11.82,447.83,0.052,437.908,0.004C416.37-0.097,63.177,1.681,27.824,3.001C-7.526,4.321-7.147,35.09,17.45,54.951
	C42.049,74.81,176.974,184.441,211.735,208.54s89.649,51.296,126.398,66.854c36.753,15.558,134.854,48.479,188.601,65.711
	c53.741,17.231,144.735,52.353,168.312,65.324c23.572,12.976,76.486,33.908,76.008,67.089c-0.312,21.9-26.67,25.517-61.648,36.823
	c-18.396,5.947-51.566,7.067-80.395,15.325c-18.812,5.389-6.104,43.119-44.312,54.171c-35.569,10.288-52.708-17.789-64.7-15.92
	c-62.688,9.771-156.979,34.329-172.89,38.245c-22.114,5.442-46.552-6.023-70.52-8.979c-23.969-2.948-61.333,2.154-77.043,14.286
	C183.839,619.6,67.045,686.651,53.19,707.175c-13.855,20.527-0.985,42.118,23.013,45.841c23.992,3.724,183.947,30.9,248.165,40.055
	c64.219,9.146,153.635,26.185,167.522,27.204c13.895,1.021,35.437-9.444,44.735-28.266
	c9.303-18.815,134.666-209.419,230.319-250.258c29.308-12.514,118.979-20.576,175.14-21.29c57.985-0.736,115.92-5.615,139.002-5.314
	c22.194,0.283,83.854-9.717,102.727-19.649c18.867-9.94,233.688-133.2,276.826-173.292c0.019-0.018,0.037-0.035,0.057-0.052
	c1.804-1.68,3.533-3.442,5.158-5.296c1.477-1.686,2.867-3.447,4.142-5.29c1.168-1.688,2.239-3.443,3.187-5.264
	c0.877-1.687,1.646-3.429,2.286-5.219c0.601-1.682,1.087-3.405,1.442-5.155c0.341-1.671,0.562-3.367,0.66-5.071
	c0.095-1.654,0.071-3.315-0.066-4.967c-0.067-0.816-0.163-1.629-0.286-2.439c-0.062-0.403-0.149-0.803-0.204-1.207
	c-0.062-0.464,0.38-0.971,0.658-1.309c0.295-0.358,0.678-0.607,1.142-0.676c0.504-0.075,1.001,0.042,1.473,0.212
	c0.311,0.112,0.615,0.322,0.904,0.479c0.303,0.165,0.603,0.335,0.896,0.513c0.604,0.364,1.188,0.759,1.771,1.157
	c1.193,0.816,2.406,1.576,3.724,2.181c1.315,0.604,2.68,1.12,4.058,1.564c1.404,0.453,2.841,0.802,4.299,1.034
	c1.489,0.237,2.991,0.334,4.498,0.382c0.182,0.005,0.363,0.016,0.545,0.016c17.221,0,31.182-13.96,31.182-31.181
	c0-17.221-13.961-31.181-31.182-31.181s-31.182,13.96-31.182,31.181c0,0.818,0.032,1.635,0.095,2.45
	c0.031,0.403,0.071,0.806,0.116,1.208c0.021,0.201,0.048,0.401,0.073,0.602c0.026,0.192,0.073,0.349-0.021,0.532
	c-0.079,0.152-0.195,0.312-0.303,0.446c-0.228,0.282-0.523,0.53-0.894,0.581C1468.14,262.536,1467.563,261.88,1466.973,261.58z"/>
</svg>
