<?xml version="1.0" encoding="utf-8"?>
<!-- Generator: Adobe Illustrator 16.0.0, SVG Export Plug-In . SVG Version: 6.00 Build 0)  -->
<!DOCTYPE svg PUBLIC "-//W3C//DTD SVG 1.1//EN" "http://www.w3.org/Graphics/SVG/1.1/DTD/svg11.dtd">
<svg version="1.1" id="Layer_1" xmlns="http://www.w3.org/2000/svg" xmlns:xlink="http://www.w3.org/1999/xlink" x="0px" y="0px"
	 width="470.436px" height="878.062px" viewBox="0 0 470.436 878.062" enable-background="new 0 0 470.436 878.062"
	 xml:space="preserve">
<path d="M468.588,864.354c-10.604-27.695-19.707-53.927-26.099-89.562c-6.39-35.638-31.563-184.288-38.256-232.271
	c-6.688-47.983-25.236-177.528-29.992-201.278c-4.755-23.751-5.257-52.474-56.516-82.497
	C268.7,230.03,147.333,136.568,131.092,122.778c-16.238-13.788-59.716-64.45-71.334-102.236
	c-5.257-17.097-27.523-36.271-45.679,0.409C-4.073,57.631-0.516,105.207,2.305,129.13c2.823,23.92,24.021,102.235,34.314,129.043
	c10.299,26.81,71.646,200.746,131.368,314.022c17.536,33.257,45.556,86.79,84.668,133.481
	c39.109,46.694,113.448,114.538,151.576,141.154C442.356,873.453,479.19,892.051,468.588,864.354z"/>
</svg>
