<?xml version="1.0" encoding="utf-8"?>
<!-- Generator: Adobe Illustrator 16.0.0, SVG Export Plug-In . SVG Version: 6.00 Build 0)  -->
<!DOCTYPE svg PUBLIC "-//W3C//DTD SVG 1.1//EN" "http://www.w3.org/Graphics/SVG/1.1/DTD/svg11.dtd">
<svg version="1.1" id="Layer_1" xmlns="http://www.w3.org/2000/svg" xmlns:xlink="http://www.w3.org/1999/xlink" x="0px" y="0px"
	 width="1390.317px" height="608.95px" viewBox="0 0 1390.317 608.95" enable-background="new 0 0 1390.317 608.95"
	 xml:space="preserve">
<path fill="none" stroke="#000000" stroke-linejoin="round" stroke-miterlimit="10" d="M1337.354,532.292
	c-0.525-9.586,0.348-19.869-3.512-28.893c-4.648-10.889-14.248-19.035-23.344-26.182c-2.408-1.891-31.537-25.9-47.287-38.877
	c-55.146-45.416-121.504-101.275-199.104-167.531C965.573,186.563,925.987,152.454,845.944,78.7
	c-23.711-21.916-45.283-43.525-64.783-64.974C774.413,6.23,770.938,2.494,770.78,2.461L755.87,0L741.17,3.562
	c-55.036,13.541-76.252,17.477-134.065,25.813c-35.073,5.057-77.282,11.143-105.473,13.297c-1.169,0.09-6.037,1.393-14.663,3.866
	c-11.293,3.307-20.719,6.798-28.333,10.432c-10.917,5.159-23.646,13.562-38.165,25.049c-53.103,41.973-93.393,73.226-120.667,93.735
	c-40.457,30.298-60.818,45.618-61.04,45.9c-3.811,4.852-57.739,44.613-87.103,66.265c-10.221,7.536-18.264,13.579-24.195,17.984
	l-60.43,45.008c-18.542,13.816-34.65,25.705-48.381,35.611c0,0-12.149,8.725-12.178,8.742c-6.298,4.523-5.594,14.186-6.469,20.828
	c-0.295,2.24,5.685,11.879,17.95,29.021l19.765,28.34c5.902,8.572,9.284,13.24,10.102,14.061
	c9.447,9.221,25.677,11.914,38.415,10.309l14.861-1.787l29.69-2.135l30.062-0.742l29.974,0.646l15.016,0.354
	c7.04,0.127,21.935,2.027,44.84,5.73c12.544,1.98,27.286,5.596,44.065,10.809c33.943,10.635,62.938,27.455,68.386,31.822
	c13.749,11.025,26.941,23.709,43.939,29.561c5.015,1.73,10.199,2.777,15.43,3.605c8.784,1.402,38.863,2.508,44.9,2.395l60.081-0.148
	c30.343,0.617,139.966-0.203,209.943-0.729c59.902-0.449,119.859,3.91,179.709,0.236c29.992-1.848,60.047-0.027,90.07-0.221
	c36.893-0.229,66.418,4.371,88.545,13.971l13.84,5.926c2.168,0.969,7.154,1.498,14.914,1.643c5.143,0.102,10.174-0.25,15.047-1.092
	c0,0,162.609-25.949,162.967-26.006c13.023-2.062,32.209-5.264,35.293-20.861c1.189-6-0.074-12.129-0.438-18.135
	C1337.37,532.54,1337.362,532.417,1337.354,532.292z"/>
</svg>
