<?xml version="1.0" encoding="utf-8"?>
<!-- Generator: Adobe Illustrator 16.0.0, SVG Export Plug-In . SVG Version: 6.00 Build 0)  -->
<!DOCTYPE svg PUBLIC "-//W3C//DTD SVG 1.1//EN" "http://www.w3.org/Graphics/SVG/1.1/DTD/svg11.dtd">
<svg version="1.1" id="Layer_1" xmlns="http://www.w3.org/2000/svg" xmlns:xlink="http://www.w3.org/1999/xlink" x="0px" y="0px"
	 width="1268.121px" height="529.782px" viewBox="0 0 1268.121 529.782" enable-background="new 0 0 1268.121 529.782"
	 xml:space="preserve">
<path fill="none" stroke="#000000" stroke-linejoin="round" stroke-miterlimit="10" d="M142.736,373.937
	c3.717,0,6.729,3.013,6.729,6.729s-3.013,6.73-6.729,6.73s-6.73-3.014-6.73-6.73S139.019,373.937,142.736,373.937z M199.306,373.937
	c3.717,0,6.729,3.013,6.729,6.729s-3.013,6.73-6.729,6.73s-6.73-3.014-6.73-6.73S195.59,373.937,199.306,373.937z M199.306,321.937
	c3.717,0,6.729,3.013,6.729,6.729s-3.013,6.73-6.729,6.73s-6.73-3.014-6.73-6.73S195.59,321.937,199.306,321.937z M255.876,373.937
	c3.717,0,6.73,3.013,6.73,6.729s-3.014,6.73-6.73,6.73s-6.729-3.014-6.729-6.73S252.159,373.937,255.876,373.937z M255.876,321.937
	c3.717,0,6.73,3.013,6.73,6.729s-3.014,6.73-6.73,6.73s-6.729-3.014-6.729-6.73S252.159,321.937,255.876,321.937z M255.876,269.937
	c3.717,0,6.73,3.013,6.73,6.729s-3.014,6.73-6.73,6.73s-6.729-3.014-6.729-6.73S252.159,269.937,255.876,269.937z M312.446,439.399
	c-3.721,0-6.731-3.018-6.731-6.732c0-3.717,3.016-6.732,6.731-6.732s6.73,3.02,6.73,6.732
	C319.178,436.381,316.166,439.399,312.446,439.399z M312.446,373.937c3.717,0,6.73,3.013,6.73,6.729s-3.014,6.73-6.73,6.73
	s-6.729-3.014-6.729-6.73S308.729,373.937,312.446,373.937z M312.446,321.937c3.717,0,6.73,3.013,6.73,6.729s-3.014,6.73-6.73,6.73
	s-6.729-3.014-6.729-6.73S308.729,321.937,312.446,321.937z M312.446,269.937c3.717,0,6.73,3.013,6.73,6.729s-3.014,6.73-6.73,6.73
	s-6.729-3.014-6.729-6.73S308.729,269.937,312.446,269.937z M369.018,439.399c-3.719,0-6.73-3.018-6.73-6.732
	c0-3.717,3.015-6.732,6.73-6.732c3.72,0,6.73,3.02,6.73,6.732C375.749,436.381,372.736,439.399,369.018,439.399z M369.018,373.937
	c3.717,0,6.729,3.013,6.729,6.729s-3.013,6.73-6.729,6.73s-6.73-3.014-6.73-6.73S365.302,373.937,369.018,373.937z M369.018,321.937
	c3.717,0,6.729,3.013,6.729,6.729s-3.013,6.73-6.729,6.73s-6.73-3.014-6.73-6.73S365.302,321.937,369.018,321.937z M369.018,269.937
	c3.717,0,6.729,3.013,6.729,6.729s-3.013,6.73-6.729,6.73s-6.73-3.014-6.73-6.73S365.302,269.937,369.018,269.937z M369.018,217.934
	c3.718,0,6.732,3.014,6.732,6.732s-3.015,6.732-6.732,6.732s-6.732-3.014-6.732-6.732S365.301,217.934,369.018,217.934z
	 M425.588,439.399c-3.72,0-6.729-3.018-6.729-6.732c0-3.717,3.014-6.732,6.729-6.732c3.719,0,6.731,3.02,6.731,6.732
	C432.319,436.381,429.307,439.399,425.588,439.399z M425.588,373.937c3.717,0,6.729,3.013,6.729,6.729s-3.013,6.73-6.729,6.73
	c-3.718,0-6.73-3.014-6.73-6.73S421.87,373.937,425.588,373.937z M425.588,321.937c3.717,0,6.729,3.013,6.729,6.729
	s-3.013,6.73-6.729,6.73c-3.718,0-6.73-3.014-6.73-6.73S421.87,321.937,425.588,321.937z M425.588,269.937
	c3.717,0,6.729,3.013,6.729,6.729s-3.013,6.73-6.729,6.73c-3.718,0-6.73-3.014-6.73-6.73S421.87,269.937,425.588,269.937z
	 M425.588,217.934c3.718,0,6.731,3.014,6.731,6.732s-3.014,6.732-6.731,6.732c-3.719,0-6.732-3.014-6.732-6.732
	S421.869,217.934,425.588,217.934z M425.588,165.934c3.718,0,6.731,3.014,6.731,6.732s-3.014,6.732-6.731,6.732
	c-3.719,0-6.732-3.014-6.732-6.732S421.869,165.934,425.588,165.934z M482.157,439.399c-3.719,0-6.729-3.018-6.729-6.732
	c0-3.717,3.016-6.732,6.729-6.732s6.73,3.02,6.73,6.732C488.889,436.381,485.877,439.399,482.157,439.399z M482.157,373.937
	c3.717,0,6.73,3.013,6.73,6.729s-3.014,6.73-6.73,6.73s-6.729-3.014-6.729-6.73S478.44,373.937,482.157,373.937z M482.157,321.937
	c3.717,0,6.73,3.013,6.73,6.729s-3.014,6.73-6.73,6.73s-6.729-3.014-6.729-6.73S478.44,321.937,482.157,321.937z M482.157,269.937
	c3.717,0,6.73,3.013,6.73,6.729s-3.014,6.73-6.73,6.73s-6.729-3.014-6.729-6.73S478.44,269.937,482.157,269.937z M482.157,217.934
	c3.719,0,6.732,3.014,6.732,6.732s-3.014,6.732-6.732,6.732c-3.718,0-6.731-3.014-6.731-6.732S478.439,217.934,482.157,217.934z
	 M482.157,165.934c3.719,0,6.732,3.014,6.732,6.732s-3.014,6.732-6.732,6.732c-3.718,0-6.731-3.014-6.731-6.732
	S478.439,165.934,482.157,165.934z M482.157,113.934c3.719,0,6.732,3.014,6.732,6.732s-3.014,6.732-6.732,6.732
	c-3.718,0-6.731-3.014-6.731-6.732S478.439,113.934,482.157,113.934z M538.729,491.399c-3.719,0-6.73-3.018-6.73-6.732
	c0-3.717,3.017-6.732,6.73-6.732c3.718,0,6.73,3.02,6.73,6.732C545.46,488.381,542.446,491.399,538.729,491.399z M538.729,439.399
	c-3.719,0-6.73-3.018-6.73-6.732c0-3.717,3.017-6.732,6.73-6.732c3.718,0,6.73,3.02,6.73,6.732
	C545.46,436.381,542.446,439.399,538.729,439.399z M538.729,373.937c3.717,0,6.73,3.013,6.73,6.729s-3.014,6.73-6.73,6.73
	s-6.73-3.014-6.73-6.73S535.012,373.937,538.729,373.937z M538.729,321.937c3.717,0,6.73,3.013,6.73,6.729s-3.014,6.73-6.73,6.73
	s-6.73-3.014-6.73-6.73S535.012,321.937,538.729,321.937z M538.729,269.937c3.717,0,6.73,3.013,6.73,6.729s-3.014,6.73-6.73,6.73
	s-6.73-3.014-6.73-6.73S535.012,269.937,538.729,269.937z M538.729,217.934c3.718,0,6.732,3.014,6.732,6.732
	s-3.015,6.732-6.732,6.732s-6.732-3.014-6.732-6.732S535.011,217.934,538.729,217.934z M538.729,165.934
	c3.718,0,6.732,3.014,6.732,6.732s-3.015,6.732-6.732,6.732s-6.732-3.014-6.732-6.732S535.011,165.934,538.729,165.934z
	 M538.729,113.934c3.718,0,6.732,3.014,6.732,6.732s-3.015,6.732-6.732,6.732s-6.732-3.014-6.732-6.732
	S535.011,113.934,538.729,113.934z M538.729,61.934c3.718,0,6.732,3.014,6.732,6.732s-3.015,6.732-6.732,6.732
	s-6.732-3.014-6.732-6.732S535.011,61.934,538.729,61.934z M595.299,491.399c-3.72,0-6.729-3.018-6.729-6.732
	c0-3.717,3.014-6.732,6.729-6.732c3.72,0,6.731,3.02,6.731,6.732C602.03,488.381,599.018,491.399,595.299,491.399z M595.299,439.399
	c-3.72,0-6.729-3.018-6.729-6.732c0-3.717,3.014-6.732,6.729-6.732c3.72,0,6.731,3.02,6.731,6.732
	C602.03,436.381,599.018,439.399,595.299,439.399z M595.299,387.397c-3.72,0-6.729-3.016-6.729-6.73
	c0-3.717,3.014-6.729,6.729-6.729c3.72,0,6.731,3.017,6.731,6.729C602.03,384.381,599.018,387.397,595.299,387.397z
	 M595.299,335.397c-3.72,0-6.729-3.016-6.729-6.73c0-3.717,3.014-6.729,6.729-6.729c3.72,0,6.731,3.017,6.731,6.729
	C602.03,332.381,599.018,335.397,595.299,335.397z M595.299,283.397c-3.72,0-6.729-3.016-6.729-6.73
	c0-3.717,3.014-6.729,6.729-6.729c3.72,0,6.731,3.017,6.731,6.729C602.03,280.381,599.018,283.397,595.299,283.397z
	 M595.299,231.398c-3.72,0-6.729-3.014-6.729-6.732s3.014-6.732,6.729-6.732c3.72,0,6.731,3.014,6.731,6.732
	S599.018,231.398,595.299,231.398z M595.299,179.398c-3.72,0-6.729-3.014-6.729-6.732s3.014-6.732,6.729-6.732
	c3.72,0,6.731,3.014,6.731,6.732S599.018,179.398,595.299,179.398z M595.299,127.398c-3.72,0-6.729-3.014-6.729-6.732
	s3.014-6.732,6.729-6.732c3.72,0,6.731,3.014,6.731,6.732S599.018,127.398,595.299,127.398z M595.299,75.398
	c-3.72,0-6.729-3.014-6.729-6.732s3.014-6.732,6.729-6.732c3.72,0,6.731,3.014,6.731,6.732S599.018,75.398,595.299,75.398z
	 M651.869,491.399c-3.719,0-6.729-3.018-6.729-6.732c0-3.717,3.015-6.732,6.729-6.732c3.716,0,6.729,3.02,6.729,6.732
	C658.598,488.381,655.588,491.399,651.869,491.399z M651.869,439.399c-3.719,0-6.729-3.018-6.729-6.732
	c0-3.717,3.015-6.732,6.729-6.732c3.716,0,6.729,3.02,6.729,6.732C658.598,436.381,655.588,439.399,651.869,439.399z
	 M651.869,373.937c3.717,0,6.73,3.013,6.73,6.729s-3.014,6.73-6.73,6.73s-6.729-3.014-6.729-6.73S648.152,373.937,651.869,373.937z
	 M651.869,321.937c3.717,0,6.73,3.013,6.73,6.729s-3.014,6.73-6.73,6.73s-6.729-3.014-6.729-6.73S648.152,321.937,651.869,321.937z
	 M651.869,269.937c3.717,0,6.73,3.013,6.73,6.729s-3.014,6.73-6.73,6.73s-6.729-3.014-6.729-6.73S648.152,269.937,651.869,269.937z
	 M651.869,217.934c3.719,0,6.732,3.014,6.732,6.732s-3.014,6.732-6.732,6.732c-3.718,0-6.731-3.014-6.731-6.732
	S648.151,217.934,651.869,217.934z M651.869,165.934c3.719,0,6.732,3.014,6.732,6.732s-3.014,6.732-6.732,6.732
	c-3.718,0-6.731-3.014-6.731-6.732S648.151,165.934,651.869,165.934z M651.869,113.934c3.719,0,6.732,3.014,6.732,6.732
	s-3.014,6.732-6.732,6.732c-3.718,0-6.731-3.014-6.731-6.732S648.151,113.934,651.869,113.934z M651.869,61.934
	c3.719,0,6.732,3.014,6.732,6.732s-3.014,6.732-6.732,6.732c-3.718,0-6.731-3.014-6.731-6.732S648.151,61.934,651.869,61.934z
	 M651.869,9.934c3.719,0,6.732,3.014,6.732,6.732s-3.014,6.732-6.732,6.732c-3.718,0-6.731-3.014-6.731-6.732
	S648.151,9.934,651.869,9.934z M708.438,491.399c-3.72,0-6.73-3.018-6.73-6.732c0-3.717,3.017-6.732,6.73-6.732
	c3.717,0,6.729,3.02,6.729,6.732C715.167,488.381,712.158,491.399,708.438,491.399z M708.438,439.399c-3.72,0-6.73-3.018-6.73-6.732
	c0-3.717,3.017-6.732,6.73-6.732c3.717,0,6.729,3.02,6.729,6.732C715.167,436.381,712.158,439.399,708.438,439.399z
	 M708.438,373.937c3.717,0,6.73,3.013,6.73,6.729s-3.014,6.73-6.73,6.73s-6.73-3.014-6.73-6.73S704.721,373.937,708.438,373.937z
	 M708.438,321.937c3.717,0,6.73,3.013,6.73,6.729s-3.014,6.73-6.73,6.73s-6.73-3.014-6.73-6.73S704.721,321.937,708.438,321.937z
	 M708.438,269.937c3.717,0,6.73,3.013,6.73,6.729s-3.014,6.73-6.73,6.73s-6.73-3.014-6.73-6.73S704.721,269.937,708.438,269.937z
	 M708.438,217.934c3.718,0,6.732,3.014,6.732,6.732s-3.015,6.732-6.732,6.732s-6.732-3.014-6.732-6.732
	S704.72,217.934,708.438,217.934z M708.438,165.934c3.718,0,6.732,3.014,6.732,6.732s-3.015,6.732-6.732,6.732
	s-6.732-3.014-6.732-6.732S704.72,165.934,708.438,165.934z M708.438,113.934c3.718,0,6.732,3.014,6.732,6.732
	s-3.015,6.732-6.732,6.732s-6.732-3.014-6.732-6.732S704.72,113.934,708.438,113.934z M708.438,61.934
	c3.718,0,6.732,3.014,6.732,6.732s-3.015,6.732-6.732,6.732s-6.732-3.014-6.732-6.732S704.72,61.934,708.438,61.934z
	 M765.01,491.399c-3.722,0-6.731-3.018-6.731-6.732c0-3.717,3.014-6.732,6.731-6.732c3.717,0,6.729,3.02,6.729,6.732
	C771.74,488.381,768.729,491.399,765.01,491.399z M765.01,439.399c-3.722,0-6.731-3.018-6.731-6.732
	c0-3.717,3.014-6.732,6.731-6.732c3.717,0,6.729,3.02,6.729,6.732C771.74,436.381,768.729,439.399,765.01,439.399z M765.01,387.397
	c-3.722,0-6.731-3.016-6.731-6.73c0-3.717,3.014-6.729,6.731-6.729c3.717,0,6.729,3.017,6.729,6.729
	C771.74,384.381,768.729,387.397,765.01,387.397z M765.01,335.397c-3.722,0-6.731-3.016-6.731-6.73c0-3.717,3.014-6.729,6.731-6.729
	c3.717,0,6.729,3.017,6.729,6.729C771.74,332.381,768.729,335.397,765.01,335.397z M765.01,283.397c-3.722,0-6.731-3.016-6.731-6.73
	c0-3.717,3.014-6.729,6.731-6.729c3.717,0,6.729,3.017,6.729,6.729C771.74,280.381,768.729,283.397,765.01,283.397z M765.01,231.398
	c-3.722,0-6.731-3.014-6.731-6.732s3.014-6.732,6.731-6.732c3.717,0,6.729,3.014,6.729,6.732S768.729,231.398,765.01,231.398z
	 M765.01,179.398c-3.722,0-6.731-3.014-6.731-6.732s3.014-6.732,6.731-6.732c3.717,0,6.729,3.014,6.729,6.732
	S768.729,179.398,765.01,179.398z M765.01,127.398c-3.722,0-6.731-3.014-6.731-6.732s3.014-6.732,6.731-6.732
	c3.717,0,6.729,3.014,6.729,6.732S768.729,127.398,765.01,127.398z M765.01,75.398c-3.722,0-6.731-3.014-6.731-6.732
	s3.014-6.732,6.731-6.732c3.717,0,6.729,3.014,6.729,6.732S768.729,75.398,765.01,75.398z M821.58,439.399
	c-3.719,0-6.729-3.018-6.729-6.732c0-3.717,3.015-6.732,6.729-6.732c3.716,0,6.729,3.02,6.729,6.732
	C828.309,436.381,825.299,439.399,821.58,439.399z M821.58,373.937c3.718,0,6.73,3.013,6.73,6.729s-3.013,6.73-6.73,6.73
	c-3.717,0-6.729-3.014-6.729-6.73S817.863,373.937,821.58,373.937z M821.58,321.937c3.718,0,6.73,3.013,6.73,6.729
	s-3.013,6.73-6.73,6.73c-3.717,0-6.729-3.014-6.729-6.73S817.863,321.937,821.58,321.937z M821.58,269.937
	c3.718,0,6.73,3.013,6.73,6.729s-3.013,6.73-6.73,6.73c-3.717,0-6.729-3.014-6.729-6.73S817.863,269.937,821.58,269.937z
	 M821.58,217.934c3.719,0,6.732,3.014,6.732,6.732s-3.014,6.732-6.732,6.732c-3.718,0-6.731-3.014-6.731-6.732
	S817.862,217.934,821.58,217.934z M821.58,165.934c3.719,0,6.732,3.014,6.732,6.732s-3.014,6.732-6.732,6.732
	c-3.718,0-6.731-3.014-6.731-6.732S817.862,165.934,821.58,165.934z M821.58,113.934c3.719,0,6.732,3.014,6.732,6.732
	s-3.014,6.732-6.732,6.732c-3.718,0-6.731-3.014-6.731-6.732S817.862,113.934,821.58,113.934z M821.58,61.934
	c3.719,0,6.732,3.014,6.732,6.732s-3.014,6.732-6.732,6.732c-3.718,0-6.731-3.014-6.731-6.732S817.862,61.934,821.58,61.934z
	 M878.15,439.399c-3.722,0-6.731-3.018-6.731-6.732c0-3.717,3.016-6.732,6.731-6.732c3.715,0,6.729,3.02,6.729,6.732
	C884.879,436.381,881.869,439.399,878.15,439.399z M878.15,387.397c-3.722,0-6.731-3.016-6.731-6.73
	c0-3.717,3.016-6.729,6.731-6.729c3.715,0,6.729,3.017,6.729,6.729C884.879,384.381,881.869,387.397,878.15,387.397z
	 M878.15,335.397c-3.722,0-6.731-3.016-6.731-6.73c0-3.717,3.016-6.729,6.731-6.729c3.715,0,6.729,3.017,6.729,6.729
	C884.879,332.381,881.869,335.397,878.15,335.397z M878.15,283.397c-3.722,0-6.731-3.016-6.731-6.73
	c0-3.717,3.016-6.729,6.731-6.729c3.715,0,6.729,3.017,6.729,6.729C884.879,280.381,881.869,283.397,878.15,283.397z
	 M878.15,231.398c-3.722,0-6.731-3.014-6.731-6.732s3.016-6.732,6.731-6.732c3.715,0,6.729,3.014,6.729,6.732
	S881.869,231.398,878.15,231.398z M878.15,179.398c-3.722,0-6.731-3.014-6.731-6.732s3.016-6.732,6.731-6.732
	c3.715,0,6.729,3.014,6.729,6.732S881.869,179.398,878.15,179.398z M878.15,127.398c-3.722,0-6.731-3.014-6.731-6.732
	s3.016-6.732,6.731-6.732c3.715,0,6.729,3.014,6.729,6.732S881.869,127.398,878.15,127.398z M934.72,439.399
	c-3.722,0-6.731-3.018-6.731-6.732c0-3.717,3.014-6.732,6.731-6.732c3.717,0,6.729,3.02,6.729,6.732
	C941.451,436.381,938.438,439.399,934.72,439.399z M934.72,387.397c-3.722,0-6.731-3.016-6.731-6.73
	c0-3.717,3.014-6.729,6.731-6.729c3.717,0,6.729,3.017,6.729,6.729C941.451,384.381,938.438,387.397,934.72,387.397z
	 M934.72,335.397c-3.722,0-6.731-3.016-6.731-6.73c0-3.717,3.014-6.729,6.731-6.729c3.717,0,6.729,3.017,6.729,6.729
	C941.451,332.381,938.438,335.397,934.72,335.397z M934.72,283.397c-3.722,0-6.731-3.016-6.731-6.73
	c0-3.717,3.014-6.729,6.731-6.729c3.717,0,6.729,3.017,6.729,6.729C941.451,280.381,938.438,283.397,934.72,283.397z
	 M934.72,231.398c-3.722,0-6.731-3.014-6.731-6.732s3.014-6.732,6.731-6.732c3.717,0,6.729,3.014,6.729,6.732
	S938.438,231.398,934.72,231.398z M934.72,179.398c-3.722,0-6.731-3.014-6.731-6.732s3.014-6.732,6.731-6.732
	c3.717,0,6.729,3.014,6.729,6.732S938.438,179.398,934.72,179.398z M934.72,127.398c-3.722,0-6.731-3.014-6.731-6.732
	s3.014-6.732,6.731-6.732c3.717,0,6.729,3.014,6.729,6.732S938.438,127.398,934.72,127.398z M991.292,439.399
	c-3.72,0-6.73-3.018-6.73-6.732c0-3.717,3.015-6.732,6.73-6.732c3.719,0,6.729,3.02,6.729,6.732
	C998.021,436.381,995.01,439.399,991.292,439.399z M991.292,373.937c3.717,0,6.729,3.013,6.729,6.729s-3.013,6.73-6.729,6.73
	c-3.718,0-6.73-3.014-6.73-6.73S987.574,373.937,991.292,373.937z M991.292,321.937c3.717,0,6.729,3.013,6.729,6.729
	s-3.013,6.73-6.729,6.73c-3.718,0-6.73-3.014-6.73-6.73S987.574,321.937,991.292,321.937z M991.292,269.937
	c3.717,0,6.729,3.013,6.729,6.729s-3.013,6.73-6.729,6.73c-3.718,0-6.73-3.014-6.73-6.73S987.574,269.937,991.292,269.937z
	 M991.292,217.934c3.718,0,6.731,3.014,6.731,6.732s-3.014,6.732-6.731,6.732c-3.719,0-6.732-3.014-6.732-6.732
	S987.573,217.934,991.292,217.934z M991.292,165.934c3.718,0,6.731,3.014,6.731,6.732s-3.014,6.732-6.731,6.732
	c-3.719,0-6.732-3.014-6.732-6.732S987.573,165.934,991.292,165.934z M1047.861,439.399c-3.722,0-6.731-3.018-6.731-6.732
	c0-3.717,3.016-6.732,6.731-6.732c3.715,0,6.729,3.02,6.729,6.732C1054.591,436.381,1051.58,439.399,1047.861,439.399z
	 M1047.861,387.397c-3.722,0-6.731-3.016-6.731-6.73c0-3.717,3.016-6.729,6.731-6.729c3.715,0,6.729,3.017,6.729,6.729
	C1054.591,384.381,1051.58,387.397,1047.861,387.397z M1047.861,335.397c-3.722,0-6.731-3.016-6.731-6.73
	c0-3.717,3.016-6.729,6.731-6.729c3.715,0,6.729,3.017,6.729,6.729C1054.591,332.381,1051.58,335.397,1047.861,335.397z
	 M1047.861,283.397c-3.722,0-6.731-3.016-6.731-6.73c0-3.717,3.016-6.729,6.731-6.729c3.715,0,6.729,3.017,6.729,6.729
	C1054.591,280.381,1051.58,283.397,1047.861,283.397z M1047.861,231.398c-3.722,0-6.731-3.014-6.731-6.732s3.016-6.732,6.731-6.732
	c3.715,0,6.729,3.014,6.729,6.732S1051.58,231.398,1047.861,231.398z M1047.861,179.398c-3.722,0-6.731-3.014-6.731-6.732
	s3.016-6.732,6.731-6.732c3.715,0,6.729,3.014,6.729,6.732S1051.58,179.398,1047.861,179.398z M1104.431,387.397
	c-3.721,0-6.731-3.016-6.731-6.73c0-3.717,3.015-6.729,6.731-6.729c3.719,0,6.729,3.017,6.729,6.729
	C1111.162,384.381,1108.15,387.397,1104.431,387.397z M1104.431,335.397c-3.721,0-6.731-3.016-6.731-6.73
	c0-3.717,3.015-6.729,6.731-6.729c3.719,0,6.729,3.017,6.729,6.729C1111.162,332.381,1108.15,335.397,1104.431,335.397z
	 M1104.431,283.397c-3.721,0-6.731-3.016-6.731-6.73c0-3.717,3.015-6.729,6.731-6.729c3.719,0,6.729,3.017,6.729,6.729
	C1111.162,280.381,1108.15,283.397,1104.431,283.397z M1104.431,231.398c-3.721,0-6.731-3.014-6.731-6.732s3.015-6.732,6.731-6.732
	c3.719,0,6.729,3.014,6.729,6.732S1108.15,231.398,1104.431,231.398z M1161.001,373.937c3.718,0,6.73,3.013,6.73,6.729
	s-3.013,6.73-6.73,6.73c-3.717,0-6.729-3.014-6.729-6.73S1157.284,373.937,1161.001,373.937z M1161.001,321.937
	c3.718,0,6.73,3.013,6.73,6.729s-3.013,6.73-6.73,6.73c-3.717,0-6.729-3.014-6.729-6.73S1157.284,321.937,1161.001,321.937z
	 M1161.001,269.937c3.718,0,6.73,3.013,6.73,6.729s-3.013,6.73-6.73,6.73c-3.717,0-6.729-3.014-6.729-6.73
	S1157.284,269.937,1161.001,269.937z M1161.001,217.934c3.719,0,6.732,3.014,6.732,6.732s-3.014,6.732-6.732,6.732
	c-3.718,0-6.731-3.014-6.731-6.732S1157.283,217.934,1161.001,217.934z M1217.572,335.397c-3.721,0-6.731-3.016-6.731-6.73
	c0-3.717,3.016-6.729,6.731-6.729c3.715,0,6.729,3.017,6.729,6.729C1224.302,332.381,1221.292,335.397,1217.572,335.397z
	 M1217.572,283.397c-3.721,0-6.731-3.016-6.731-6.73c0-3.717,3.016-6.729,6.731-6.729c3.715,0,6.729,3.017,6.729,6.729
	C1224.302,280.381,1221.292,283.397,1217.572,283.397z M70.601,393.122c-2.058-0.547-4.02-1.775-6.198-1.088
	c-1.865,0.59-3.122,2.314-4.253,3.807c-4.591,11.498-15.831,19.623-28.969,19.623C13.96,415.463,0,401.504,0,384.284
	c0-17.222,13.96-31.182,31.182-31.182c13.566,0,25.109,8.665,29.396,20.764v0.002c1.322,0.467,2.602,0.832,3.934,0.154
	c2.235-1.139,4.431-2.38,6.642-3.572c0.56-0.404,1.147-0.812,1.768-1.224c28.645-19.038,274.783-178.081,303.147-199.406
	c28.361-21.327,162.346-128.541,182.688-145.778C579.1,6.806,632.347-7.522,674.113,4.367
	c41.76,11.89,229.354,72.625,297.654,101.161c163.766,68.413,273.938,147.484,273.938,147.484
	c16.768,16.528,32.465,43.259,14.306,65.651c-18.151,22.392-65.557,84.037-141.151,118.176
	c-75.601,34.135-82.361,29.545-109.748,33.701c-27.382,4.158-394.324,57.24-402.625,59.039c-8.306,1.801-28.986-8.818-40.332-12.842
	c-11.348-4.021-439.494-107.658-462.572-112.558C92.811,401.893,79.17,398.271,70.601,393.122L70.601,393.122z"/>
</svg>
