<?xml version="1.0" encoding="utf-8"?>
<!-- Generator: Adobe Illustrator 16.0.0, SVG Export Plug-In . SVG Version: 6.00 Build 0)  -->
<!DOCTYPE svg PUBLIC "-//W3C//DTD SVG 1.1//EN" "http://www.w3.org/Graphics/SVG/1.1/DTD/svg11.dtd">
<svg version="1.1" id="Layer_1" xmlns="http://www.w3.org/2000/svg" xmlns:xlink="http://www.w3.org/1999/xlink" x="0px" y="0px"
	 width="1263.719px" height="530.941px" viewBox="0 0 1263.719 530.941" enable-background="new 0 0 1263.719 530.941"
	 xml:space="preserve">
<path fill="none" stroke="#000000" stroke-linejoin="round" stroke-miterlimit="10" d="M1191.338,391.875
	c-27.854-20.174-267.4-188.986-294.881-211.437S739.412,45.468,719.779,27.428C700.145,9.391,647.518-7.068,605.31,3.132
	c-42.208,10.198-232.092,63.336-301.482,89.1C137.44,154.004,24.176,228.58,24.176,228.58C6.759,244.418-10.003,270.5,7.236,293.6
	c17.242,23.104,62.124,86.608,136.286,123.76c74.162,37.146,81.109,32.836,108.304,38.092
	c27.191,5.256,391.703,73.055,399.924,75.188c8.227,2.136,29.316-7.643,40.818-11.207c4.246-1.312,65.85-13.922,143.025-29.498
	c1.232-1.391,3.027-2.27,5.031-2.27c1.043,0,2.027,0.244,2.908,0.668c130.861-26.391,301.381-60.309,315.754-62.76
	C1182.549,421.607,1219.194,412.048,1191.338,391.875z M48.645,293.125c-3.719,0-6.732-3.014-6.732-6.73
	c0-3.718,3.014-6.729,6.732-6.729c3.718,0,6.732,3.015,6.732,6.729C55.376,290.111,52.363,293.125,48.645,293.125z M48.645,241.125
	c-3.719,0-6.732-3.014-6.732-6.732c0-3.718,3.014-6.732,6.732-6.732c3.718,0,6.732,3.014,6.732,6.732
	C55.376,238.111,52.363,241.125,48.645,241.125z M105.214,345.125c-3.719,0-6.732-3.014-6.732-6.73c0-3.718,3.014-6.729,6.732-6.729
	c3.718,0,6.732,3.015,6.732,6.729C111.946,342.111,108.934,345.125,105.214,345.125z M105.214,293.125
	c-3.719,0-6.732-3.014-6.732-6.73c0-3.718,3.014-6.729,6.732-6.729c3.718,0,6.732,3.015,6.732,6.729
	C111.946,290.111,108.934,293.125,105.214,293.125z M105.214,241.125c-3.719,0-6.732-3.014-6.732-6.732
	c0-3.718,3.014-6.732,6.732-6.732c3.718,0,6.732,3.014,6.732,6.732C111.946,238.111,108.934,241.125,105.214,241.125z
	 M161.786,397.125c-3.719,0-6.732-3.014-6.732-6.73c0-3.718,3.014-6.729,6.732-6.729c3.718,0,6.732,3.015,6.732,6.729
	C168.518,394.111,165.503,397.125,161.786,397.125z M161.786,345.125c-3.719,0-6.732-3.014-6.732-6.73
	c0-3.718,3.014-6.729,6.732-6.729c3.718,0,6.732,3.015,6.732,6.729C168.518,342.111,165.503,345.125,161.786,345.125z
	 M161.786,293.125c-3.719,0-6.732-3.014-6.732-6.73c0-3.718,3.014-6.729,6.732-6.729c3.718,0,6.732,3.015,6.732,6.729
	C168.518,290.111,165.503,293.125,161.786,293.125z M161.786,241.125c-3.719,0-6.732-3.014-6.732-6.732
	c0-3.718,3.014-6.732,6.732-6.732c3.718,0,6.732,3.014,6.732,6.732C168.518,238.111,165.503,241.125,161.786,241.125z
	 M161.786,189.125c-3.719,0-6.732-3.014-6.732-6.732c0-3.718,3.014-6.732,6.732-6.732c3.718,0,6.732,3.014,6.732,6.732
	C168.518,186.111,165.503,189.125,161.786,189.125z M218.355,397.125c-3.719,0-6.732-3.014-6.732-6.73
	c0-3.718,3.014-6.729,6.732-6.729c3.718,0,6.732,3.015,6.732,6.729C225.087,394.111,222.075,397.125,218.355,397.125z
	 M218.355,345.125c-3.719,0-6.732-3.014-6.732-6.73c0-3.718,3.014-6.729,6.732-6.729c3.718,0,6.732,3.015,6.732,6.729
	C225.087,342.111,222.075,345.125,218.355,345.125z M218.355,293.125c-3.719,0-6.732-3.014-6.732-6.73
	c0-3.718,3.014-6.729,6.732-6.729c3.718,0,6.732,3.015,6.732,6.729C225.087,290.111,222.075,293.125,218.355,293.125z
	 M218.355,241.125c-3.719,0-6.732-3.014-6.732-6.732c0-3.718,3.014-6.732,6.732-6.732c3.718,0,6.732,3.014,6.732,6.732
	C225.087,238.111,222.075,241.125,218.355,241.125z M218.355,189.125c-3.719,0-6.732-3.014-6.732-6.732
	c0-3.718,3.014-6.732,6.732-6.732c3.718,0,6.732,3.014,6.732,6.732C225.087,186.111,222.075,189.125,218.355,189.125z
	 M274.925,449.125c-3.719,0-6.732-3.014-6.732-6.732c0-3.717,3.014-6.729,6.732-6.729c3.718,0,6.732,3.014,6.732,6.729
	C281.658,446.113,278.645,449.125,274.925,449.125z M274.925,397.125c-3.719,0-6.732-3.014-6.732-6.73
	c0-3.718,3.014-6.729,6.732-6.729c3.718,0,6.732,3.015,6.732,6.729C281.658,394.111,278.645,397.125,274.925,397.125z
	 M274.925,345.125c-3.719,0-6.732-3.014-6.732-6.73c0-3.718,3.014-6.729,6.732-6.729c3.718,0,6.732,3.015,6.732,6.729
	C281.658,342.111,278.645,345.125,274.925,345.125z M274.925,293.125c-3.719,0-6.732-3.014-6.732-6.73
	c0-3.718,3.014-6.729,6.732-6.729c3.718,0,6.732,3.015,6.732,6.729C281.658,290.111,278.645,293.125,274.925,293.125z
	 M274.925,241.125c-3.719,0-6.732-3.014-6.732-6.732c0-3.718,3.014-6.732,6.732-6.732c3.718,0,6.732,3.014,6.732,6.732
	C281.658,238.111,278.645,241.125,274.925,241.125z M274.925,189.125c-3.719,0-6.732-3.014-6.732-6.732
	c0-3.718,3.014-6.732,6.732-6.732c3.718,0,6.732,3.014,6.732,6.732C281.658,186.111,278.645,189.125,274.925,189.125z
	 M274.925,137.125c-3.719,0-6.732-3.014-6.732-6.732c0-3.718,3.014-6.732,6.732-6.732c3.718,0,6.732,3.014,6.732,6.732
	C281.658,134.111,278.645,137.125,274.925,137.125z M331.497,449.125c-3.719,0-6.732-3.014-6.732-6.732
	c0-3.717,3.017-6.729,6.732-6.729s6.729,3.014,6.729,6.729C338.228,446.113,335.214,449.125,331.497,449.125z M331.497,397.125
	c-3.719,0-6.732-3.014-6.732-6.73c0-3.718,3.017-6.729,6.732-6.729s6.729,3.015,6.729,6.729
	C338.228,394.111,335.214,397.125,331.497,397.125z M331.497,345.125c-3.719,0-6.732-3.014-6.732-6.73
	c0-3.718,3.017-6.729,6.732-6.729s6.729,3.015,6.729,6.729C338.228,342.111,335.214,345.125,331.497,345.125z M331.497,293.125
	c-3.719,0-6.732-3.014-6.732-6.73c0-3.718,3.017-6.729,6.732-6.729s6.729,3.015,6.729,6.729
	C338.228,290.111,335.214,293.125,331.497,293.125z M331.497,241.125c-3.719,0-6.732-3.014-6.732-6.732
	c0-3.718,3.017-6.732,6.732-6.732s6.729,3.014,6.729,6.732C338.228,238.111,335.214,241.125,331.497,241.125z M331.497,189.125
	c-3.719,0-6.732-3.014-6.732-6.732c0-3.718,3.017-6.732,6.732-6.732s6.729,3.014,6.729,6.732
	C338.228,186.111,335.214,189.125,331.497,189.125z M331.497,137.125c-3.719,0-6.732-3.014-6.732-6.732
	c0-3.718,3.017-6.732,6.732-6.732s6.729,3.014,6.729,6.732C338.228,134.111,335.214,137.125,331.497,137.125z M388.067,449.125
	c-3.722,0-6.732-3.014-6.732-6.732c0-3.717,3.014-6.729,6.732-6.729c3.718,0,6.729,3.014,6.729,6.729
	C394.798,446.113,391.786,449.125,388.067,449.125z M388.067,397.125c-3.722,0-6.732-3.014-6.732-6.73
	c0-3.718,3.014-6.729,6.732-6.729c3.718,0,6.729,3.015,6.729,6.729C394.798,394.111,391.786,397.125,388.067,397.125z
	 M388.067,345.125c-3.722,0-6.732-3.014-6.732-6.73c0-3.718,3.014-6.729,6.732-6.729c3.718,0,6.729,3.015,6.729,6.729
	C394.798,342.111,391.786,345.125,388.067,345.125z M388.067,293.125c-3.722,0-6.732-3.014-6.732-6.73
	c0-3.718,3.014-6.729,6.732-6.729c3.718,0,6.729,3.015,6.729,6.729C394.798,290.111,391.786,293.125,388.067,293.125z
	 M388.067,241.125c-3.722,0-6.732-3.014-6.732-6.732c0-3.718,3.014-6.732,6.732-6.732c3.718,0,6.729,3.014,6.729,6.732
	C394.798,238.111,391.786,241.125,388.067,241.125z M388.067,189.125c-3.722,0-6.732-3.014-6.732-6.732
	c0-3.718,3.014-6.732,6.732-6.732c3.718,0,6.729,3.014,6.729,6.732C394.798,186.111,391.786,189.125,388.067,189.125z
	 M388.067,137.125c-3.722,0-6.732-3.014-6.732-6.732c0-3.718,3.014-6.732,6.732-6.732c3.718,0,6.729,3.014,6.729,6.732
	C394.798,134.111,391.786,137.125,388.067,137.125z M444.636,449.125c-3.719,0-6.729-3.014-6.729-6.732
	c0-3.717,3.014-6.729,6.729-6.729s6.732,3.014,6.732,6.729C451.369,446.113,448.355,449.125,444.636,449.125z M444.636,397.125
	c-3.719,0-6.729-3.014-6.729-6.73c0-3.718,3.014-6.729,6.729-6.729s6.732,3.015,6.732,6.729
	C451.369,394.111,448.355,397.125,444.636,397.125z M444.636,345.125c-3.719,0-6.729-3.014-6.729-6.73
	c0-3.718,3.014-6.729,6.729-6.729s6.732,3.015,6.732,6.729C451.369,342.111,448.355,345.125,444.636,345.125z M444.636,293.125
	c-3.719,0-6.729-3.014-6.729-6.73c0-3.718,3.014-6.729,6.729-6.729s6.732,3.015,6.732,6.729
	C451.369,290.111,448.355,293.125,444.636,293.125z M444.636,241.125c-3.719,0-6.729-3.014-6.729-6.732
	c0-3.718,3.014-6.732,6.729-6.732s6.732,3.014,6.732,6.732C451.369,238.111,448.355,241.125,444.636,241.125z M444.636,189.125
	c-3.719,0-6.729-3.014-6.729-6.732c0-3.718,3.014-6.732,6.729-6.732s6.732,3.014,6.732,6.732
	C451.369,186.111,448.355,189.125,444.636,189.125z M444.636,137.125c-3.719,0-6.729-3.014-6.729-6.732
	c0-3.718,3.014-6.732,6.729-6.732s6.732,3.014,6.732,6.732C451.369,134.111,448.355,137.125,444.636,137.125z M444.636,85.125
	c-3.719,0-6.729-3.014-6.729-6.732c0-3.718,3.014-6.732,6.729-6.732s6.732,3.014,6.732,6.732
	C451.369,82.111,448.355,85.125,444.636,85.125z M501.208,449.125c-3.719,0-6.732-3.014-6.732-6.732
	c0-3.717,3.018-6.729,6.732-6.729s6.732,3.014,6.732,6.729C507.94,446.113,504.925,449.125,501.208,449.125z M501.208,397.125
	c-3.719,0-6.732-3.014-6.732-6.73c0-3.718,3.018-6.729,6.732-6.729s6.732,3.015,6.732,6.729
	C507.94,394.111,504.925,397.125,501.208,397.125z M501.208,345.125c-3.719,0-6.732-3.014-6.732-6.73
	c0-3.718,3.018-6.729,6.732-6.729s6.732,3.015,6.732,6.729C507.94,342.111,504.925,345.125,501.208,345.125z M501.208,293.125
	c-3.719,0-6.732-3.014-6.732-6.73c0-3.718,3.018-6.729,6.732-6.729s6.732,3.015,6.732,6.729
	C507.94,290.111,504.925,293.125,501.208,293.125z M501.208,241.125c-3.719,0-6.732-3.014-6.732-6.732
	c0-3.718,3.018-6.732,6.732-6.732s6.732,3.014,6.732,6.732C507.94,238.111,504.925,241.125,501.208,241.125z M501.208,189.125
	c-3.719,0-6.732-3.014-6.732-6.732c0-3.718,3.018-6.732,6.732-6.732s6.732,3.014,6.732,6.732
	C507.94,186.111,504.925,189.125,501.208,189.125z M501.208,137.125c-3.719,0-6.732-3.014-6.732-6.732
	c0-3.718,3.018-6.732,6.732-6.732s6.732,3.014,6.732,6.732C507.94,134.111,504.925,137.125,501.208,137.125z M501.208,85.125
	c-3.719,0-6.732-3.014-6.732-6.732c0-3.718,3.018-6.732,6.732-6.732s6.732,3.014,6.732,6.732
	C507.94,82.111,504.925,85.125,501.208,85.125z M557.778,501.125c-3.723,0-6.732-3.014-6.732-6.732c0-3.717,3.014-6.729,6.732-6.729
	c3.718,0,6.729,3.014,6.729,6.729C564.509,498.111,561.497,501.125,557.778,501.125z M557.778,449.125
	c-3.723,0-6.732-3.014-6.732-6.732c0-3.717,3.014-6.729,6.732-6.729c3.718,0,6.729,3.014,6.729,6.729
	C564.509,446.113,561.497,449.125,557.778,449.125z M557.778,397.125c-3.723,0-6.732-3.014-6.732-6.73
	c0-3.718,3.014-6.729,6.732-6.729c3.718,0,6.729,3.015,6.729,6.729C564.509,394.111,561.497,397.125,557.778,397.125z
	 M557.778,345.125c-3.723,0-6.732-3.014-6.732-6.73c0-3.718,3.014-6.729,6.732-6.729c3.718,0,6.729,3.015,6.729,6.729
	C564.509,342.111,561.497,345.125,557.778,345.125z M557.778,293.125c-3.723,0-6.732-3.014-6.732-6.73
	c0-3.718,3.014-6.729,6.732-6.729c3.718,0,6.729,3.015,6.729,6.729C564.509,290.111,561.497,293.125,557.778,293.125z
	 M557.778,241.125c-3.723,0-6.732-3.014-6.732-6.732c0-3.718,3.014-6.732,6.732-6.732c3.718,0,6.729,3.014,6.729,6.732
	C564.509,238.111,561.497,241.125,557.778,241.125z M557.778,189.125c-3.723,0-6.732-3.014-6.732-6.732
	c0-3.718,3.014-6.732,6.732-6.732c3.718,0,6.729,3.014,6.729,6.732C564.509,186.111,561.497,189.125,557.778,189.125z
	 M557.778,137.125c-3.723,0-6.732-3.014-6.732-6.732c0-3.718,3.014-6.732,6.732-6.732c3.718,0,6.729,3.014,6.729,6.732
	C564.509,134.111,561.497,137.125,557.778,137.125z M557.778,85.125c-3.723,0-6.732-3.014-6.732-6.732
	c0-3.718,3.014-6.732,6.732-6.732c3.718,0,6.729,3.014,6.729,6.732C564.509,82.111,561.497,85.125,557.778,85.125z M614.348,501.125
	c-3.719,0-6.729-3.014-6.729-6.732c0-3.717,3.014-6.729,6.729-6.729c3.722,0,6.732,3.014,6.732,6.729
	C621.081,498.111,618.067,501.125,614.348,501.125z M614.348,449.125c-3.719,0-6.729-3.014-6.729-6.732
	c0-3.717,3.014-6.729,6.729-6.729c3.722,0,6.732,3.014,6.732,6.729C621.081,446.113,618.067,449.125,614.348,449.125z
	 M614.348,397.125c-3.719,0-6.729-3.014-6.729-6.73c0-3.718,3.014-6.729,6.729-6.729c3.722,0,6.732,3.015,6.732,6.729
	C621.081,394.111,618.067,397.125,614.348,397.125z M614.348,345.125c-3.719,0-6.729-3.014-6.729-6.73
	c0-3.718,3.014-6.729,6.729-6.729c3.722,0,6.732,3.015,6.732,6.729C621.081,342.111,618.067,345.125,614.348,345.125z
	 M614.348,293.125c-3.719,0-6.729-3.014-6.729-6.73c0-3.718,3.014-6.729,6.729-6.729c3.722,0,6.732,3.015,6.732,6.729
	C621.081,290.111,618.067,293.125,614.348,293.125z M614.348,241.125c-3.719,0-6.729-3.014-6.729-6.732
	c0-3.718,3.014-6.732,6.729-6.732c3.722,0,6.732,3.014,6.732,6.732C621.081,238.111,618.067,241.125,614.348,241.125z
	 M614.348,189.125c-3.719,0-6.729-3.014-6.729-6.732c0-3.718,3.014-6.732,6.729-6.732c3.722,0,6.732,3.014,6.732,6.732
	C621.081,186.111,618.067,189.125,614.348,189.125z M614.348,137.125c-3.719,0-6.729-3.014-6.729-6.732
	c0-3.718,3.014-6.732,6.729-6.732c3.722,0,6.732,3.014,6.732,6.732C621.081,134.111,618.067,137.125,614.348,137.125z
	 M614.348,85.125c-3.719,0-6.729-3.014-6.729-6.732c0-3.718,3.014-6.732,6.729-6.732c3.722,0,6.732,3.014,6.732,6.732
	C621.081,82.111,618.067,85.125,614.348,85.125z M614.348,33.125c-3.719,0-6.729-3.014-6.729-6.732c0-3.718,3.014-6.732,6.729-6.732
	c3.722,0,6.732,3.014,6.732,6.732C621.081,30.111,618.067,33.125,614.348,33.125z M670.918,501.125
	c-3.719,0-6.732-3.014-6.732-6.732c0-3.717,3.018-6.729,6.732-6.729s6.732,3.014,6.732,6.729
	C677.651,498.111,674.637,501.125,670.918,501.125z M670.918,449.125c-3.719,0-6.732-3.014-6.732-6.732
	c0-3.717,3.018-6.729,6.732-6.729s6.732,3.014,6.732,6.729C677.651,446.113,674.637,449.125,670.918,449.125z M670.918,397.125
	c-3.719,0-6.732-3.014-6.732-6.73c0-3.718,3.018-6.729,6.732-6.729s6.732,3.015,6.732,6.729
	C677.651,394.111,674.637,397.125,670.918,397.125z M670.918,345.125c-3.719,0-6.732-3.014-6.732-6.73
	c0-3.718,3.018-6.729,6.732-6.729s6.732,3.015,6.732,6.729C677.651,342.111,674.637,345.125,670.918,345.125z M670.918,293.125
	c-3.719,0-6.732-3.014-6.732-6.73c0-3.718,3.018-6.729,6.732-6.729s6.732,3.015,6.732,6.729
	C677.651,290.111,674.637,293.125,670.918,293.125z M670.918,241.125c-3.719,0-6.732-3.014-6.732-6.732
	c0-3.718,3.018-6.732,6.732-6.732s6.732,3.014,6.732,6.732C677.651,238.111,674.637,241.125,670.918,241.125z M670.918,189.125
	c-3.719,0-6.732-3.014-6.732-6.732c0-3.718,3.018-6.732,6.732-6.732s6.732,3.014,6.732,6.732
	C677.651,186.111,674.637,189.125,670.918,189.125z M670.918,137.125c-3.719,0-6.732-3.014-6.732-6.732
	c0-3.718,3.018-6.732,6.732-6.732s6.732,3.014,6.732,6.732C677.651,134.111,674.637,137.125,670.918,137.125z M670.918,85.125
	c-3.719,0-6.732-3.014-6.732-6.732c0-3.718,3.018-6.732,6.732-6.732s6.732,3.014,6.732,6.732
	C677.651,82.111,674.637,85.125,670.918,85.125z M670.918,33.125c-3.719,0-6.732-3.014-6.732-6.732c0-3.718,3.018-6.732,6.732-6.732
	s6.732,3.014,6.732,6.732C677.651,30.111,674.637,33.125,670.918,33.125z M727.489,501.125c-3.723,0-6.732-3.014-6.732-6.732
	c0-3.717,3.016-6.729,6.732-6.729s6.729,3.014,6.729,6.729C734.22,498.111,731.208,501.125,727.489,501.125z M727.489,449.125
	c-3.723,0-6.732-3.014-6.732-6.732c0-3.717,3.016-6.729,6.732-6.729s6.729,3.014,6.729,6.729
	C734.22,446.113,731.208,449.125,727.489,449.125z M727.489,397.125c-3.723,0-6.732-3.014-6.732-6.73
	c0-3.718,3.016-6.729,6.732-6.729s6.729,3.015,6.729,6.729C734.22,394.111,731.208,397.125,727.489,397.125z M727.489,345.125
	c-3.723,0-6.732-3.014-6.732-6.73c0-3.718,3.016-6.729,6.732-6.729s6.729,3.015,6.729,6.729
	C734.22,342.111,731.208,345.125,727.489,345.125z M727.489,293.125c-3.723,0-6.732-3.014-6.732-6.73
	c0-3.718,3.016-6.729,6.732-6.729s6.729,3.015,6.729,6.729C734.22,290.111,731.208,293.125,727.489,293.125z M727.489,241.125
	c-3.723,0-6.732-3.014-6.732-6.732c0-3.718,3.016-6.732,6.732-6.732s6.729,3.014,6.729,6.732
	C734.22,238.111,731.208,241.125,727.489,241.125z M727.489,189.125c-3.723,0-6.732-3.014-6.732-6.732
	c0-3.718,3.016-6.732,6.732-6.732s6.729,3.014,6.729,6.732C734.22,186.111,731.208,189.125,727.489,189.125z M727.489,137.125
	c-3.723,0-6.732-3.014-6.732-6.732c0-3.718,3.016-6.732,6.732-6.732s6.729,3.014,6.729,6.732
	C734.22,134.111,731.208,137.125,727.489,137.125z M727.489,85.125c-3.723,0-6.732-3.014-6.732-6.732
	c0-3.718,3.016-6.732,6.732-6.732s6.729,3.014,6.729,6.732C734.22,82.111,731.208,85.125,727.489,85.125z M784.059,449.125
	c-3.719,0-6.729-3.014-6.729-6.732c0-3.717,3.014-6.729,6.729-6.729c3.722,0,6.732,3.014,6.732,6.729
	C790.792,446.113,787.778,449.125,784.059,449.125z M784.059,397.125c-3.719,0-6.729-3.014-6.729-6.73
	c0-3.718,3.014-6.729,6.729-6.729c3.722,0,6.732,3.015,6.732,6.729C790.792,394.111,787.778,397.125,784.059,397.125z
	 M784.059,345.125c-3.719,0-6.729-3.014-6.729-6.73c0-3.718,3.014-6.729,6.729-6.729c3.722,0,6.732,3.015,6.732,6.729
	C790.792,342.111,787.778,345.125,784.059,345.125z M784.059,293.125c-3.719,0-6.729-3.014-6.729-6.73
	c0-3.718,3.014-6.729,6.729-6.729c3.722,0,6.732,3.015,6.732,6.729C790.792,290.111,787.778,293.125,784.059,293.125z
	 M784.059,241.125c-3.719,0-6.729-3.014-6.729-6.732c0-3.718,3.014-6.732,6.729-6.732c3.722,0,6.732,3.014,6.732,6.732
	C790.792,238.111,787.778,241.125,784.059,241.125z M784.059,189.125c-3.719,0-6.729-3.014-6.729-6.732
	c0-3.718,3.014-6.732,6.729-6.732c3.722,0,6.732,3.014,6.732,6.732C790.792,186.111,787.778,189.125,784.059,189.125z
	 M784.059,137.125c-3.719,0-6.729-3.014-6.729-6.732c0-3.718,3.014-6.732,6.729-6.732c3.722,0,6.732,3.014,6.732,6.732
	C790.792,134.111,787.778,137.125,784.059,137.125z M840.629,449.125c-3.719,0-6.729-3.014-6.729-6.732
	c0-3.717,3.014-6.729,6.729-6.729s6.732,3.014,6.732,6.729C847.362,446.113,844.348,449.125,840.629,449.125z M840.629,397.125
	c-3.719,0-6.729-3.014-6.729-6.73c0-3.718,3.014-6.729,6.729-6.729s6.732,3.015,6.732,6.729
	C847.362,394.111,844.348,397.125,840.629,397.125z M840.629,345.125c-3.719,0-6.729-3.014-6.729-6.73
	c0-3.718,3.014-6.729,6.729-6.729s6.732,3.015,6.732,6.729C847.362,342.111,844.348,345.125,840.629,345.125z M840.629,293.125
	c-3.719,0-6.729-3.014-6.729-6.73c0-3.718,3.014-6.729,6.729-6.729s6.732,3.015,6.732,6.729
	C847.362,290.111,844.348,293.125,840.629,293.125z M840.629,241.125c-3.719,0-6.729-3.014-6.729-6.732
	c0-3.718,3.014-6.732,6.729-6.732s6.732,3.014,6.732,6.732C847.362,238.111,844.348,241.125,840.629,241.125z M840.629,189.125
	c-3.719,0-6.729-3.014-6.729-6.732c0-3.718,3.014-6.732,6.729-6.732s6.732,3.014,6.732,6.732
	C847.362,186.111,844.348,189.125,840.629,189.125z M897.2,449.125c-3.719,0-6.732-3.014-6.732-6.732
	c0-3.717,3.016-6.729,6.732-6.729s6.729,3.014,6.729,6.729C903.931,446.113,900.918,449.125,897.2,449.125z M897.2,397.125
	c-3.719,0-6.732-3.014-6.732-6.73c0-3.718,3.016-6.729,6.732-6.729s6.729,3.015,6.729,6.729
	C903.931,394.111,900.918,397.125,897.2,397.125z M897.2,345.125c-3.719,0-6.732-3.014-6.732-6.73c0-3.718,3.016-6.729,6.732-6.729
	s6.729,3.015,6.729,6.729C903.931,342.111,900.918,345.125,897.2,345.125z M897.2,293.125c-3.719,0-6.732-3.014-6.732-6.73
	c0-3.718,3.016-6.729,6.732-6.729s6.729,3.015,6.729,6.729C903.931,290.111,900.918,293.125,897.2,293.125z M897.2,241.125
	c-3.719,0-6.732-3.014-6.732-6.732c0-3.718,3.016-6.732,6.732-6.732s6.729,3.014,6.729,6.732
	C903.931,238.111,900.918,241.125,897.2,241.125z M953.77,449.125c-3.719,0-6.729-3.014-6.729-6.732
	c0-3.717,3.014-6.729,6.729-6.729c3.722,0,6.732,3.014,6.732,6.729C960.502,446.113,957.489,449.125,953.77,449.125z
	 M953.77,397.125c-3.719,0-6.729-3.014-6.729-6.73c0-3.718,3.014-6.729,6.729-6.729c3.722,0,6.732,3.015,6.732,6.729
	C960.502,394.111,957.489,397.125,953.77,397.125z M953.77,345.125c-3.719,0-6.729-3.014-6.729-6.73
	c0-3.718,3.014-6.729,6.729-6.729c3.722,0,6.732,3.015,6.732,6.729C960.502,342.111,957.489,345.125,953.77,345.125z
	 M953.77,293.125c-3.719,0-6.729-3.014-6.729-6.73c0-3.718,3.014-6.729,6.729-6.729c3.722,0,6.732,3.015,6.732,6.729
	C960.502,290.111,957.489,293.125,953.77,293.125z M1010.34,397.125c-3.719,0-6.729-3.014-6.729-6.73
	c0-3.718,3.014-6.729,6.729-6.729s6.732,3.015,6.732,6.729C1017.073,394.111,1014.059,397.125,1010.34,397.125z M1010.34,345.125
	c-3.719,0-6.729-3.014-6.729-6.73c0-3.718,3.014-6.729,6.729-6.729s6.732,3.015,6.732,6.729
	C1017.073,342.111,1014.059,345.125,1010.34,345.125z M1010.34,293.125c-3.719,0-6.729-3.014-6.729-6.73
	c0-3.718,3.014-6.729,6.729-6.729s6.732,3.015,6.732,6.729C1017.073,290.111,1014.059,293.125,1010.34,293.125z M1066.911,397.125
	c-3.719,0-6.732-3.014-6.732-6.73c0-3.718,3.018-6.729,6.732-6.729s6.73,3.015,6.73,6.729
	C1073.643,394.111,1070.629,397.125,1066.911,397.125z M1066.911,345.125c-3.719,0-6.732-3.014-6.732-6.73
	c0-3.718,3.018-6.729,6.732-6.729s6.73,3.015,6.73,6.729C1073.643,342.111,1070.629,345.125,1066.911,345.125z M1123.48,397.125
	c-3.722,0-6.731-3.014-6.731-6.73c0-3.718,3.014-6.729,6.731-6.729c3.719,0,6.729,3.015,6.729,6.729
	C1130.212,394.111,1127.2,397.125,1123.48,397.125z"/>
</svg>
