<?xml version="1.0" encoding="utf-8"?>
<!-- Generator: Adobe Illustrator 16.0.0, SVG Export Plug-In . SVG Version: 6.00 Build 0)  -->
<!DOCTYPE svg PUBLIC "-//W3C//DTD SVG 1.1//EN" "http://www.w3.org/Graphics/SVG/1.1/DTD/svg11.dtd">
<svg version="1.1" id="Layer_1" xmlns="http://www.w3.org/2000/svg" xmlns:xlink="http://www.w3.org/1999/xlink" x="0px" y="0px"
	 width="1201.355px" height="530.939px" viewBox="0 0 1201.355 530.939" enable-background="new 0 0 1201.355 530.939"
	 xml:space="preserve">
<path d="M1191.339,391.874c-27.854-20.174-267.4-188.985-294.881-211.437c-27.481-22.452-157.048-134.97-176.68-153.01
	C700.145,9.391,647.518-7.068,605.31,3.131c-42.208,10.198-232.092,63.336-301.484,89.1C137.44,154.003,24.176,228.58,24.176,228.58
	c-17.417,15.838-34.179,41.919-16.939,65.021c17.242,23.104,62.124,86.606,136.286,123.758
	c74.162,37.146,81.108,32.837,108.306,38.093c27.189,5.256,391.701,73.055,399.923,75.188c8.229,2.137,29.315-7.643,40.817-11.207
	c4.246-1.312,65.853-13.922,143.027-29.498c1.229-1.391,3.024-2.27,5.03-2.27c1.044,0,2.025,0.244,2.906,0.668
	c130.863-26.391,301.382-60.309,315.754-62.76C1182.55,421.604,1219.194,412.047,1191.339,391.874z M48.645,293.124
	c-3.72,0-6.73-3.016-6.73-6.73c0-3.717,3.015-6.729,6.73-6.729s6.731,3.014,6.731,6.729
	C55.376,290.11,52.363,293.124,48.645,293.124z M48.645,241.125c-3.72,0-6.73-3.014-6.73-6.732c0-3.718,3.015-6.732,6.73-6.732
	s6.731,3.014,6.731,6.732C55.376,238.11,52.363,241.125,48.645,241.125z M105.214,345.124c-3.719,0-6.731-3.016-6.731-6.73
	c0-3.717,3.016-6.729,6.731-6.729c3.717,0,6.73,3.015,6.73,6.729C111.946,342.11,108.934,345.124,105.214,345.124z M105.214,293.124
	c-3.719,0-6.731-3.016-6.731-6.73c0-3.717,3.016-6.729,6.731-6.729c3.717,0,6.73,3.014,6.73,6.729
	C111.946,290.11,108.934,293.124,105.214,293.124z M105.214,241.125c-3.719,0-6.731-3.014-6.731-6.732
	c0-3.718,3.016-6.732,6.731-6.732c3.717,0,6.73,3.014,6.73,6.732C111.946,238.11,108.934,241.125,105.214,241.125z M161.786,397.124
	c-3.721,0-6.731-3.016-6.731-6.73c0-3.717,3.014-6.729,6.731-6.729s6.73,3.015,6.73,6.729
	C168.518,394.11,165.503,397.124,161.786,397.124z M161.786,345.124c-3.721,0-6.731-3.016-6.731-6.73
	c0-3.717,3.014-6.729,6.731-6.729s6.73,3.015,6.73,6.729C168.518,342.11,165.503,345.124,161.786,345.124z M161.786,293.124
	c-3.721,0-6.731-3.016-6.731-6.73c0-3.717,3.014-6.729,6.731-6.729s6.73,3.014,6.73,6.729
	C168.518,290.11,165.503,293.124,161.786,293.124z M161.786,241.125c-3.721,0-6.731-3.014-6.731-6.732
	c0-3.718,3.014-6.732,6.731-6.732s6.73,3.014,6.73,6.732C168.518,238.11,165.503,241.125,161.786,241.125z M161.786,189.125
	c-3.721,0-6.731-3.014-6.731-6.732c0-3.718,3.014-6.732,6.731-6.732s6.73,3.014,6.73,6.732
	C168.518,186.11,165.503,189.125,161.786,189.125z M218.355,397.124c-3.719,0-6.73-3.016-6.73-6.73c0-3.717,3.015-6.729,6.73-6.729
	s6.731,3.015,6.731,6.729C225.087,394.11,222.075,397.124,218.355,397.124z M218.355,345.124c-3.719,0-6.73-3.016-6.73-6.73
	c0-3.717,3.015-6.729,6.73-6.729s6.731,3.015,6.731,6.729C225.087,342.11,222.075,345.124,218.355,345.124z M218.355,293.124
	c-3.719,0-6.73-3.016-6.73-6.73c0-3.717,3.015-6.729,6.73-6.729s6.731,3.014,6.731,6.729
	C225.087,290.11,222.075,293.124,218.355,293.124z M218.355,241.125c-3.719,0-6.73-3.014-6.73-6.732c0-3.718,3.015-6.732,6.73-6.732
	s6.731,3.014,6.731,6.732C225.087,238.11,222.075,241.125,218.355,241.125z M218.355,189.125c-3.719,0-6.73-3.014-6.73-6.732
	c0-3.718,3.015-6.732,6.73-6.732s6.731,3.014,6.731,6.732C225.087,186.11,222.075,189.125,218.355,189.125z M274.925,449.124
	c-3.719,0-6.731-3.014-6.731-6.732c0-3.717,3.016-6.729,6.731-6.729c3.717,0,6.73,3.014,6.73,6.729
	C281.658,446.112,278.645,449.124,274.925,449.124z M274.925,397.124c-3.719,0-6.731-3.016-6.731-6.73
	c0-3.717,3.016-6.729,6.731-6.729c3.717,0,6.73,3.015,6.73,6.729C281.658,394.11,278.645,397.124,274.925,397.124z M274.925,345.124
	c-3.719,0-6.731-3.016-6.731-6.73c0-3.717,3.016-6.729,6.731-6.729c3.717,0,6.73,3.015,6.73,6.729
	C281.658,342.11,278.645,345.124,274.925,345.124z M274.925,293.124c-3.719,0-6.731-3.016-6.731-6.73
	c0-3.717,3.016-6.729,6.731-6.729c3.717,0,6.73,3.014,6.73,6.729C281.658,290.11,278.645,293.124,274.925,293.124z M274.925,241.125
	c-3.719,0-6.731-3.014-6.731-6.732c0-3.718,3.016-6.732,6.731-6.732c3.717,0,6.73,3.014,6.73,6.732
	C281.658,238.11,278.645,241.125,274.925,241.125z M274.925,189.125c-3.719,0-6.731-3.014-6.731-6.732
	c0-3.718,3.016-6.732,6.731-6.732c3.717,0,6.73,3.014,6.73,6.732C281.658,186.11,278.645,189.125,274.925,189.125z M274.925,137.125
	c-3.719,0-6.731-3.014-6.731-6.732c0-3.718,3.016-6.732,6.731-6.732c3.717,0,6.73,3.014,6.73,6.732
	C281.658,134.11,278.645,137.125,274.925,137.125z M331.495,449.124c-3.719,0-6.729-3.014-6.729-6.732
	c0-3.717,3.015-6.729,6.729-6.729c3.72,0,6.731,3.014,6.731,6.729C338.228,446.112,335.215,449.124,331.495,449.124z
	 M331.495,397.124c-3.719,0-6.729-3.016-6.729-6.73c0-3.717,3.015-6.729,6.729-6.729c3.72,0,6.731,3.015,6.731,6.729
	C338.228,394.11,335.215,397.124,331.495,397.124z M331.495,345.124c-3.719,0-6.729-3.016-6.729-6.73
	c0-3.717,3.015-6.729,6.729-6.729c3.72,0,6.731,3.015,6.731,6.729C338.228,342.11,335.215,345.124,331.495,345.124z
	 M331.495,293.124c-3.719,0-6.729-3.016-6.729-6.73c0-3.717,3.015-6.729,6.729-6.729c3.72,0,6.731,3.014,6.731,6.729
	C338.228,290.11,335.215,293.124,331.495,293.124z M331.495,241.125c-3.719,0-6.729-3.014-6.729-6.732
	c0-3.718,3.015-6.732,6.729-6.732c3.72,0,6.731,3.014,6.731,6.732C338.228,238.11,335.215,241.125,331.495,241.125z
	 M331.495,189.125c-3.719,0-6.729-3.014-6.729-6.732c0-3.718,3.015-6.732,6.729-6.732c3.72,0,6.731,3.014,6.731,6.732
	C338.228,186.11,335.215,189.125,331.495,189.125z M331.495,137.125c-3.719,0-6.729-3.014-6.729-6.732
	c0-3.718,3.015-6.732,6.729-6.732c3.72,0,6.731,3.014,6.731,6.732C338.228,134.11,335.215,137.125,331.495,137.125z
	 M388.067,449.124c-3.72,0-6.729-3.014-6.729-6.732c0-3.717,3.014-6.729,6.729-6.729s6.731,3.014,6.731,6.729
	C394.799,446.112,391.784,449.124,388.067,449.124z M388.067,397.124c-3.72,0-6.729-3.016-6.729-6.73
	c0-3.717,3.014-6.729,6.729-6.729s6.731,3.015,6.731,6.729C394.799,394.11,391.784,397.124,388.067,397.124z M388.067,345.124
	c-3.72,0-6.729-3.016-6.729-6.73c0-3.717,3.014-6.729,6.729-6.729s6.731,3.015,6.731,6.729
	C394.799,342.11,391.784,345.124,388.067,345.124z M388.067,293.124c-3.72,0-6.729-3.016-6.729-6.73
	c0-3.717,3.014-6.729,6.729-6.729s6.731,3.014,6.731,6.729C394.799,290.11,391.784,293.124,388.067,293.124z M388.067,241.125
	c-3.72,0-6.729-3.014-6.729-6.732c0-3.718,3.014-6.732,6.729-6.732s6.731,3.014,6.731,6.732
	C394.799,238.11,391.784,241.125,388.067,241.125z M388.067,189.125c-3.72,0-6.729-3.014-6.729-6.732
	c0-3.718,3.014-6.732,6.729-6.732s6.731,3.014,6.731,6.732C394.799,186.11,391.784,189.125,388.067,189.125z M388.067,137.125
	c-3.72,0-6.729-3.014-6.729-6.732c0-3.718,3.014-6.732,6.729-6.732s6.731,3.014,6.731,6.732
	C394.799,134.11,391.784,137.125,388.067,137.125z M444.636,449.124c-3.722,0-6.73-3.014-6.73-6.732c0-3.717,3.017-6.729,6.73-6.729
	s6.729,3.014,6.729,6.729C451.367,446.112,448.356,449.124,444.636,449.124z M444.636,397.124c-3.722,0-6.73-3.016-6.73-6.73
	c0-3.717,3.017-6.729,6.73-6.729s6.729,3.015,6.729,6.729C451.367,394.11,448.356,397.124,444.636,397.124z M444.636,345.124
	c-3.722,0-6.73-3.016-6.73-6.73c0-3.717,3.017-6.729,6.73-6.729s6.729,3.015,6.729,6.729
	C451.367,342.11,448.356,345.124,444.636,345.124z M444.636,293.124c-3.722,0-6.73-3.016-6.73-6.73c0-3.717,3.017-6.729,6.73-6.729
	s6.729,3.014,6.729,6.729C451.367,290.11,448.356,293.124,444.636,293.124z M444.636,241.125c-3.722,0-6.73-3.014-6.73-6.732
	c0-3.718,3.017-6.732,6.73-6.732s6.729,3.014,6.729,6.732C451.367,238.11,448.356,241.125,444.636,241.125z M444.636,189.125
	c-3.722,0-6.73-3.014-6.73-6.732c0-3.718,3.017-6.732,6.73-6.732s6.729,3.014,6.729,6.732
	C451.367,186.11,448.356,189.125,444.636,189.125z M444.636,137.125c-3.722,0-6.73-3.014-6.73-6.732c0-3.718,3.017-6.732,6.73-6.732
	s6.729,3.014,6.729,6.732C451.367,134.11,448.356,137.125,444.636,137.125z M444.636,85.125c-3.722,0-6.73-3.014-6.73-6.732
	c0-3.718,3.017-6.732,6.73-6.732s6.729,3.014,6.729,6.732C451.367,82.11,448.356,85.125,444.636,85.125z M501.206,449.124
	c-3.719,0-6.729-3.014-6.729-6.732c0-3.717,3.016-6.729,6.729-6.729c3.719,0,6.732,3.014,6.732,6.729
	C507.94,446.112,504.926,449.124,501.206,449.124z M501.206,397.124c-3.719,0-6.729-3.016-6.729-6.73
	c0-3.717,3.016-6.729,6.729-6.729c3.719,0,6.732,3.015,6.732,6.729C507.94,394.11,504.926,397.124,501.206,397.124z
	 M501.206,345.124c-3.719,0-6.729-3.016-6.729-6.73c0-3.717,3.016-6.729,6.729-6.729c3.719,0,6.732,3.015,6.732,6.729
	C507.94,342.11,504.926,345.124,501.206,345.124z M501.206,293.124c-3.719,0-6.729-3.016-6.729-6.73
	c0-3.717,3.016-6.729,6.729-6.729c3.719,0,6.732,3.014,6.732,6.729C507.94,290.11,504.926,293.124,501.206,293.124z
	 M501.206,241.125c-3.719,0-6.729-3.014-6.729-6.732c0-3.718,3.016-6.732,6.729-6.732c3.719,0,6.732,3.014,6.732,6.732
	C507.94,238.11,504.926,241.125,501.206,241.125z M501.206,189.125c-3.719,0-6.729-3.014-6.729-6.732
	c0-3.718,3.016-6.732,6.729-6.732c3.719,0,6.732,3.014,6.732,6.732C507.94,186.11,504.926,189.125,501.206,189.125z
	 M501.206,137.125c-3.719,0-6.729-3.014-6.729-6.732c0-3.718,3.016-6.732,6.729-6.732c3.719,0,6.732,3.014,6.732,6.732
	C507.94,134.11,504.926,137.125,501.206,137.125z M501.206,85.125c-3.719,0-6.729-3.014-6.729-6.732
	c0-3.718,3.016-6.732,6.729-6.732c3.719,0,6.732,3.014,6.732,6.732C507.94,82.11,504.926,85.125,501.206,85.125z M557.778,501.124
	c-3.721,0-6.729-3.014-6.729-6.732c0-3.717,3.014-6.729,6.729-6.729s6.73,3.014,6.73,6.729
	C564.51,498.11,561.495,501.124,557.778,501.124z M557.778,449.124c-3.721,0-6.729-3.014-6.729-6.732
	c0-3.717,3.014-6.729,6.729-6.729s6.73,3.014,6.73,6.729C564.51,446.112,561.495,449.124,557.778,449.124z M557.778,397.124
	c-3.721,0-6.729-3.016-6.729-6.73c0-3.717,3.014-6.729,6.729-6.729s6.73,3.015,6.73,6.729
	C564.51,394.11,561.495,397.124,557.778,397.124z M557.778,345.124c-3.721,0-6.729-3.016-6.729-6.73
	c0-3.717,3.014-6.729,6.729-6.729s6.73,3.015,6.73,6.729C564.51,342.11,561.495,345.124,557.778,345.124z M557.778,293.124
	c-3.721,0-6.729-3.016-6.729-6.73c0-3.717,3.014-6.729,6.729-6.729s6.73,3.014,6.73,6.729
	C564.51,290.11,561.495,293.124,557.778,293.124z M557.778,241.125c-3.721,0-6.729-3.014-6.729-6.732
	c0-3.718,3.014-6.732,6.729-6.732s6.73,3.014,6.73,6.732C564.51,238.11,561.495,241.125,557.778,241.125z M557.778,189.125
	c-3.721,0-6.729-3.014-6.729-6.732c0-3.718,3.014-6.732,6.729-6.732s6.73,3.014,6.73,6.732
	C564.51,186.11,561.495,189.125,557.778,189.125z M557.778,137.125c-3.721,0-6.729-3.014-6.729-6.732
	c0-3.718,3.014-6.732,6.729-6.732s6.73,3.014,6.73,6.732C564.51,134.11,561.495,137.125,557.778,137.125z M557.778,85.125
	c-3.721,0-6.729-3.014-6.729-6.732c0-3.718,3.014-6.732,6.729-6.732s6.73,3.014,6.73,6.732
	C564.51,82.11,561.495,85.125,557.778,85.125z M614.348,501.124c-3.719,0-6.73-3.014-6.73-6.732c0-3.717,3.017-6.729,6.73-6.729
	c3.72,0,6.729,3.014,6.729,6.729C621.079,498.11,618.067,501.124,614.348,501.124z M614.348,449.124c-3.719,0-6.73-3.014-6.73-6.732
	c0-3.717,3.017-6.729,6.73-6.729c3.72,0,6.729,3.014,6.729,6.729C621.079,446.112,618.067,449.124,614.348,449.124z
	 M614.348,397.124c-3.719,0-6.73-3.016-6.73-6.73c0-3.717,3.017-6.729,6.73-6.729c3.72,0,6.729,3.015,6.729,6.729
	C621.079,394.11,618.067,397.124,614.348,397.124z M614.348,345.124c-3.719,0-6.73-3.016-6.73-6.73c0-3.717,3.017-6.729,6.73-6.729
	c3.72,0,6.729,3.015,6.729,6.729C621.079,342.11,618.067,345.124,614.348,345.124z M614.348,293.124c-3.719,0-6.73-3.016-6.73-6.73
	c0-3.717,3.017-6.729,6.73-6.729c3.72,0,6.729,3.014,6.729,6.729C621.079,290.11,618.067,293.124,614.348,293.124z M614.348,241.125
	c-3.719,0-6.73-3.014-6.73-6.732c0-3.718,3.017-6.732,6.73-6.732c3.72,0,6.729,3.014,6.729,6.732
	C621.079,238.11,618.067,241.125,614.348,241.125z M614.348,189.125c-3.719,0-6.73-3.014-6.73-6.732c0-3.718,3.017-6.732,6.73-6.732
	c3.72,0,6.729,3.014,6.729,6.732C621.079,186.11,618.067,189.125,614.348,189.125z M614.348,137.125c-3.719,0-6.73-3.014-6.73-6.732
	c0-3.718,3.017-6.732,6.73-6.732c3.72,0,6.729,3.014,6.729,6.732C621.079,134.11,618.067,137.125,614.348,137.125z M614.348,85.125
	c-3.719,0-6.73-3.014-6.73-6.732c0-3.718,3.017-6.732,6.73-6.732c3.72,0,6.729,3.014,6.729,6.732
	C621.079,82.11,618.067,85.125,614.348,85.125z M614.348,33.125c-3.719,0-6.73-3.014-6.73-6.732c0-3.718,3.017-6.732,6.73-6.732
	c3.72,0,6.729,3.014,6.729,6.732C621.079,30.11,618.067,33.125,614.348,33.125z M670.919,501.124c-3.722,0-6.732-3.014-6.732-6.732
	c0-3.717,3.016-6.729,6.732-6.729c3.716,0,6.729,3.014,6.729,6.729C677.651,498.11,674.637,501.124,670.919,501.124z
	 M670.919,449.124c-3.722,0-6.732-3.014-6.732-6.732c0-3.717,3.016-6.729,6.732-6.729c3.716,0,6.729,3.014,6.729,6.729
	C677.651,446.112,674.637,449.124,670.919,449.124z M670.919,397.124c-3.722,0-6.732-3.016-6.732-6.73
	c0-3.717,3.016-6.729,6.732-6.729c3.716,0,6.729,3.015,6.729,6.729C677.651,394.11,674.637,397.124,670.919,397.124z
	 M670.919,345.124c-3.722,0-6.732-3.016-6.732-6.73c0-3.717,3.016-6.729,6.732-6.729c3.716,0,6.729,3.015,6.729,6.729
	C677.651,342.11,674.637,345.124,670.919,345.124z M670.919,293.124c-3.722,0-6.732-3.016-6.732-6.73
	c0-3.717,3.016-6.729,6.732-6.729c3.716,0,6.729,3.014,6.729,6.729C677.651,290.11,674.637,293.124,670.919,293.124z
	 M670.919,241.125c-3.722,0-6.732-3.014-6.732-6.732c0-3.718,3.016-6.732,6.732-6.732c3.716,0,6.729,3.014,6.729,6.732
	C677.651,238.11,674.637,241.125,670.919,241.125z M670.919,189.125c-3.722,0-6.732-3.014-6.732-6.732
	c0-3.718,3.016-6.732,6.732-6.732c3.716,0,6.729,3.014,6.729,6.732C677.651,186.11,674.637,189.125,670.919,189.125z
	 M670.919,137.125c-3.722,0-6.732-3.014-6.732-6.732c0-3.718,3.016-6.732,6.732-6.732c3.716,0,6.729,3.014,6.729,6.732
	C677.651,134.11,674.637,137.125,670.919,137.125z M670.919,85.125c-3.722,0-6.732-3.014-6.732-6.732
	c0-3.718,3.016-6.732,6.732-6.732c3.716,0,6.729,3.014,6.729,6.732C677.651,82.11,674.637,85.125,670.919,85.125z M670.919,33.125
	c-3.722,0-6.732-3.014-6.732-6.732c0-3.718,3.016-6.732,6.732-6.732c3.716,0,6.729,3.014,6.729,6.732
	C677.651,30.11,674.637,33.125,670.919,33.125z M727.489,501.124c-3.721,0-6.729-3.014-6.729-6.732c0-3.717,3.014-6.729,6.729-6.729
	c3.719,0,6.73,3.014,6.73,6.729C734.22,498.11,731.206,501.124,727.489,501.124z M727.489,449.124c-3.721,0-6.729-3.014-6.729-6.732
	c0-3.717,3.014-6.729,6.729-6.729c3.719,0,6.73,3.014,6.73,6.729C734.22,446.112,731.206,449.124,727.489,449.124z M727.489,397.124
	c-3.721,0-6.729-3.016-6.729-6.73c0-3.717,3.014-6.729,6.729-6.729c3.719,0,6.73,3.015,6.73,6.729
	C734.22,394.11,731.206,397.124,727.489,397.124z M727.489,345.124c-3.721,0-6.729-3.016-6.729-6.73
	c0-3.717,3.014-6.729,6.729-6.729c3.719,0,6.73,3.015,6.73,6.729C734.22,342.11,731.206,345.124,727.489,345.124z M727.489,293.124
	c-3.721,0-6.729-3.016-6.729-6.73c0-3.717,3.014-6.729,6.729-6.729c3.719,0,6.73,3.014,6.73,6.729
	C734.22,290.11,731.206,293.124,727.489,293.124z M727.489,241.125c-3.721,0-6.729-3.014-6.729-6.732
	c0-3.718,3.014-6.732,6.729-6.732c3.719,0,6.73,3.014,6.73,6.732C734.22,238.11,731.206,241.125,727.489,241.125z M727.489,189.125
	c-3.721,0-6.729-3.014-6.729-6.732c0-3.718,3.014-6.732,6.729-6.732c3.719,0,6.73,3.014,6.73,6.732
	C734.22,186.11,731.206,189.125,727.489,189.125z M727.489,137.125c-3.721,0-6.729-3.014-6.729-6.732
	c0-3.718,3.014-6.732,6.729-6.732c3.719,0,6.73,3.014,6.73,6.732C734.22,134.11,731.206,137.125,727.489,137.125z M727.489,85.125
	c-3.721,0-6.729-3.014-6.729-6.732c0-3.718,3.014-6.732,6.729-6.732c3.719,0,6.73,3.014,6.73,6.732
	C734.22,82.11,731.206,85.125,727.489,85.125z M784.059,449.124c-3.719,0-6.73-3.014-6.73-6.732c0-3.717,3.017-6.729,6.73-6.729
	c3.72,0,6.732,3.014,6.732,6.729C790.792,446.112,787.778,449.124,784.059,449.124z M784.059,397.124c-3.719,0-6.73-3.016-6.73-6.73
	c0-3.717,3.017-6.729,6.73-6.729c3.72,0,6.732,3.015,6.732,6.729C790.792,394.11,787.778,397.124,784.059,397.124z M784.059,345.124
	c-3.719,0-6.73-3.016-6.73-6.73c0-3.717,3.017-6.729,6.73-6.729c3.72,0,6.732,3.015,6.732,6.729
	C790.792,342.11,787.778,345.124,784.059,345.124z M784.059,293.124c-3.719,0-6.73-3.016-6.73-6.73c0-3.717,3.017-6.729,6.73-6.729
	c3.72,0,6.732,3.014,6.732,6.729C790.792,290.11,787.778,293.124,784.059,293.124z M784.059,241.125c-3.719,0-6.73-3.014-6.73-6.732
	c0-3.718,3.017-6.732,6.73-6.732c3.72,0,6.732,3.014,6.732,6.732C790.792,238.11,787.778,241.125,784.059,241.125z M784.059,189.125
	c-3.719,0-6.73-3.014-6.73-6.732c0-3.718,3.017-6.732,6.73-6.732c3.72,0,6.732,3.014,6.732,6.732
	C790.792,186.11,787.778,189.125,784.059,189.125z M784.059,137.125c-3.719,0-6.73-3.014-6.73-6.732c0-3.718,3.017-6.732,6.73-6.732
	c3.72,0,6.732,3.014,6.732,6.732C790.792,134.11,787.778,137.125,784.059,137.125z M840.63,449.124c-3.722,0-6.73-3.014-6.73-6.732
	c0-3.717,3.014-6.729,6.73-6.729c3.716,0,6.729,3.014,6.729,6.729C847.362,446.112,844.348,449.124,840.63,449.124z M840.63,397.124
	c-3.722,0-6.73-3.016-6.73-6.73c0-3.717,3.014-6.729,6.73-6.729c3.716,0,6.729,3.015,6.729,6.729
	C847.362,394.11,844.348,397.124,840.63,397.124z M840.63,345.124c-3.722,0-6.73-3.016-6.73-6.73c0-3.717,3.014-6.729,6.73-6.729
	c3.716,0,6.729,3.015,6.729,6.729C847.362,342.11,844.348,345.124,840.63,345.124z M840.63,293.124c-3.722,0-6.73-3.016-6.73-6.73
	c0-3.717,3.014-6.729,6.73-6.729c3.716,0,6.729,3.014,6.729,6.729C847.362,290.11,844.348,293.124,840.63,293.124z M840.63,241.125
	c-3.722,0-6.73-3.014-6.73-6.732c0-3.718,3.014-6.732,6.73-6.732c3.716,0,6.729,3.014,6.729,6.732
	C847.362,238.11,844.348,241.125,840.63,241.125z M840.63,189.125c-3.722,0-6.73-3.014-6.73-6.732c0-3.718,3.014-6.732,6.73-6.732
	c3.716,0,6.729,3.014,6.729,6.732C847.362,186.11,844.348,189.125,840.63,189.125z M897.198,449.124
	c-3.719,0-6.729-3.014-6.729-6.732c0-3.717,3.014-6.729,6.729-6.729c3.721,0,6.73,3.014,6.73,6.729
	C903.931,446.112,900.919,449.124,897.198,449.124z M897.198,397.124c-3.719,0-6.729-3.016-6.729-6.73
	c0-3.717,3.014-6.729,6.729-6.729c3.721,0,6.73,3.015,6.73,6.729C903.931,394.11,900.919,397.124,897.198,397.124z M897.198,345.124
	c-3.719,0-6.729-3.016-6.729-6.73c0-3.717,3.014-6.729,6.729-6.729c3.721,0,6.73,3.015,6.73,6.729
	C903.931,342.11,900.919,345.124,897.198,345.124z M897.198,293.124c-3.719,0-6.729-3.016-6.729-6.73
	c0-3.717,3.014-6.729,6.729-6.729c3.721,0,6.73,3.014,6.73,6.729C903.931,290.11,900.919,293.124,897.198,293.124z M897.198,241.125
	c-3.719,0-6.729-3.014-6.729-6.732c0-3.718,3.014-6.732,6.729-6.732c3.721,0,6.73,3.014,6.73,6.732
	C903.931,238.11,900.919,241.125,897.198,241.125z M953.77,449.124c-3.719,0-6.73-3.014-6.73-6.732c0-3.717,3.017-6.729,6.73-6.729
	c3.72,0,6.732,3.014,6.732,6.729C960.503,446.112,957.489,449.124,953.77,449.124z M953.77,397.124c-3.719,0-6.73-3.016-6.73-6.73
	c0-3.717,3.017-6.729,6.73-6.729c3.72,0,6.732,3.015,6.732,6.729C960.503,394.11,957.489,397.124,953.77,397.124z M953.77,345.124
	c-3.719,0-6.73-3.016-6.73-6.73c0-3.717,3.017-6.729,6.73-6.729c3.72,0,6.732,3.015,6.732,6.729
	C960.503,342.11,957.489,345.124,953.77,345.124z M953.77,293.124c-3.719,0-6.73-3.016-6.73-6.73c0-3.717,3.017-6.729,6.73-6.729
	c3.72,0,6.732,3.014,6.732,6.729C960.503,290.11,957.489,293.124,953.77,293.124z M1010.341,397.124c-3.722,0-6.73-3.016-6.73-6.73
	c0-3.717,3.014-6.729,6.73-6.729c3.716,0,6.729,3.015,6.729,6.729C1017.073,394.11,1014.059,397.124,1010.341,397.124z
	 M1010.341,345.124c-3.722,0-6.73-3.016-6.73-6.73c0-3.717,3.014-6.729,6.73-6.729c3.716,0,6.729,3.015,6.729,6.729
	C1017.073,342.11,1014.059,345.124,1010.341,345.124z M1010.341,293.124c-3.722,0-6.73-3.016-6.73-6.73
	c0-3.717,3.014-6.729,6.73-6.729c3.716,0,6.729,3.014,6.729,6.729C1017.073,290.11,1014.059,293.124,1010.341,293.124z
	 M1066.909,397.124c-3.719,0-6.729-3.016-6.729-6.73c0-3.717,3.016-6.729,6.729-6.729c3.719,0,6.732,3.015,6.732,6.729
	C1073.643,394.11,1070.63,397.124,1066.909,397.124z M1066.909,345.124c-3.719,0-6.729-3.016-6.729-6.73
	c0-3.717,3.016-6.729,6.729-6.729c3.719,0,6.732,3.015,6.732,6.729C1073.643,342.11,1070.63,345.124,1066.909,345.124z
	 M1123.481,397.124c-3.721,0-6.732-3.016-6.732-6.73c0-3.717,3.017-6.729,6.732-6.729s6.73,3.015,6.73,6.729
	C1130.213,394.11,1127.198,397.124,1123.481,397.124z"/>
</svg>
