<?xml version="1.0" encoding="utf-8"?>
<!-- Generator: Adobe Illustrator 16.0.0, SVG Export Plug-In . SVG Version: 6.00 Build 0)  -->
<!DOCTYPE svg PUBLIC "-//W3C//DTD SVG 1.1//EN" "http://www.w3.org/Graphics/SVG/1.1/DTD/svg11.dtd">
<svg version="1.1" id="Layer_1" xmlns="http://www.w3.org/2000/svg" xmlns:xlink="http://www.w3.org/1999/xlink" x="0px" y="0px"
	 width="1484.854px" height="1290.234px" viewBox="0 0 1484.854 1290.234" enable-background="new 0 0 1484.854 1290.234"
	 xml:space="preserve">
<path fill="none" stroke="#000001" stroke-linejoin="round" stroke-miterlimit="10" d="M1331.509,688.438
	c23.476-0.219,42.679,18.64,42.896,42.104c0.217,23.47-18.636,42.674-42.104,42.893c-23.476,0.226-42.678-18.633-42.896-42.103
	C1289.188,707.859,1308.033,688.656,1331.509,688.438z M1319.519,31.052c30.578,0,55.366,24.789,55.366,55.366
	s-24.788,55.366-55.366,55.366s-55.366-24.789-55.366-55.366S1288.941,31.052,1319.519,31.052z M983.531,828.977
	c-26.296-9.401-73.767-1.903-88.021,25.236c-2.021,3.861-6.359,7.609-12.237,16.369c-9.407,14.02-62.146,146.946-76.712,192.223
	c-11.89,36.979-37.885,116.188-50.473,151.745c0,7.388,5.231,13.364,11.708,13.364c0.54-0.027,1.084-0.042,1.631-0.042
	c17.221,0,31.181,13.96,31.181,31.181c0,17.226-13.96,31.187-31.181,31.187c-13.938,0-25.731-9.144-29.729-21.749l0.001-0.001
	c-4.264-7.909-13.329-10.362-21.673-8.372c-2.841,1.164-5.765,2.112-8.734,2.806c-18.007,4.201-94.78,23.013-119.693,26.752
	c-24.911,3.744-43.947-11.391-46.771-38.555c0,0-23.94-191.162-43.76-305.029c-24.559-141.128-81.057-323.683-82.696-333.812
	c-0.257-1.588-0.389-3.073-0.36-4.462l-0.01-0.007c0-32.654-17.07-59.087-38.172-59.087v0.002
	c-15.23,0.104-30.709-3.169-43.506-9.169c-19.309-9.05-270.805-175.143-315.767-213.18c-44.959-38.036,2.321-81.545,30.729-87.192
	c0,0,496.009-87.67,579.705-101.522c83.702-13.853,329.47-50.743,345.599-53.2c16.127-2.458,41.191-36.531,46.479-47.348
	c5.281-10.816,3.65-20.799,25.184-20.999c21.531-0.199,374.396-15.785,409.773-16.114c35.375-0.327,36.428,30.426,12.783,51.407
	c-23.646,20.985-153.313,136.784-186.916,162.477c-33.604,25.691-87.162,55.415-123.146,72.669
	c-35.99,17.255-136.422,51.258-189.31,70.978c-52.883,19.718-199.302,71.062-222.239,85.125
	c-22.942,14.058-65.03,36.752-61.072,49.02c3.959,12.272,70.195,22.419,105.662,32.091c35.466,9.666,112.503,23.564,148.022,38.616
	c35.516,15.05,181.973,50.609,204.315,55.021c22.347,4.397,59.217-0.559,83.021-4.618c23.805-4.068,43.021-5.021,59.276,6.37
	c16.258,11.386,145.479,95.555,160.273,115.408c14.794,19.854-6.638,30.822-30.438,35.656
	c-23.799,4.837-155.935,20.686-219.648,32.812c-63.723,12.127-183.572,25.546-197.398,27.216
	c-5.924,0.713-11.007,0.572-15.683-1.264v-0.009L983.531,828.977L983.531,828.977z"/>
</svg>
