<?xml version="1.0" encoding="utf-8"?>
<!-- Generator: Adobe Illustrator 16.0.0, SVG Export Plug-In . SVG Version: 6.00 Build 0)  -->
<!DOCTYPE svg PUBLIC "-//W3C//DTD SVG 1.1//EN" "http://www.w3.org/Graphics/SVG/1.1/DTD/svg11.dtd">
<svg version="1.1" id="Layer_1" xmlns="http://www.w3.org/2000/svg" xmlns:xlink="http://www.w3.org/1999/xlink" x="0px" y="0px"
	 width="561.489px" height="1489.641px" viewBox="0 0 561.489 1489.641" enable-background="new 0 0 561.489 1489.641"
	 xml:space="preserve">
<path fill="none" stroke="#000001" stroke-linejoin="round" stroke-miterlimit="10" d="M496.58,1099.248
	c1.939,0.049,4.044-0.348,6.038-1.623c4.145-2.656,4.596-7.623,3.287-11.023l-96.891-730.25c-0.041-0.405-0.082-0.81-0.124-1.214
	c-0.114-1.118-0.232-2.236-0.352-3.354c-0.2-1.869-0.402-3.738-0.604-5.606c-0.31-2.866-0.618-5.732-0.924-8.598
	c-0.41-3.851-0.816-7.701-1.22-11.552c-0.485-4.647-0.967-9.294-1.448-13.941c-0.539-5.21-1.078-10.421-1.621-15.631
	c-0.584-5.597-1.173-11.193-1.769-16.788c-0.627-5.885-1.262-11.768-1.9-17.652c-0.664-6.116-1.331-12.231-1.994-18.348
	c-0.68-6.281-1.355-12.562-2.018-18.845c-0.67-6.345-1.327-12.691-1.974-19.039c-0.641-6.285-1.271-12.57-1.903-18.855
	c-0.613-6.097-1.229-12.193-1.861-18.287c-0.601-5.786-1.218-11.57-1.858-17.351c-0.594-5.348-1.209-10.693-1.836-16.037
	c-0.56-4.774-1.131-9.547-1.682-14.322c-0.472-4.086-0.93-8.174-1.325-12.268c-0.325-3.364-0.608-6.733-0.8-10.108
	c-0.444-7.865,1.341-16.724,7.838-21.862c14.15-7.12,26.994-13.503,37.666-18.771c8.265,0,14.953,5.505,14.953,12.308
	c0,17.221,13.959,31.181,31.18,31.181s31.182-13.96,31.182-31.181c0-17.22-13.959-31.179-31.18-31.181
	c-1.269,0-3.379-0.307-5.566-0.927c-2.131-0.604-4.334-1.505-5.906-2.71l0.003-0.001c-0.267-1.159-0.935-2.408-2.208-3.705
	c-1.719-1.75-4.54-3.589-8.967-5.415c-0.461-0.191-0.941-0.379-1.439-0.571c-21.361-8.16-60.572-23.394-60.572-23.394
	s-24.609-7.626-59.271,4.75C294.849,19.453,88.755,95.08,88.755,95.08S-6.272,115.723,0.329,196.382
	c5.789,70.717,27.768,320.737,138.249,687.915c0,0,2.07,5.797,3.77,6.5c1.752,1.019,3.388,2.309,5.086,3.421
	c7.438,4.872,14.598,10.188,22.096,14.966c6.581,4.19,14.064,8.484,16.333,16.527c0.51,2.461,1.482,5.065,1.482,5.065
	s93.409,220.055,111.251,259.229c17.846,39.176,29.991,52.336,29.991,52.336s192.713,210.32,217.189,234.961
	c8.258,8.312,12.428,11.559,14.328,12.211c3.736,1.285-1.283-7.436-1.283-7.436l-110.824-304.926
	c-1.896-5.837-4.229-11.548-6.77-16.98l-0.001,0.003c0-33.674,24.756-60.923,55.35-60.923L496.58,1099.248z"/>
</svg>
