<?xml version="1.0" encoding="utf-8"?>
<!-- Generator: Adobe Illustrator 16.0.0, SVG Export Plug-In . SVG Version: 6.00 Build 0)  -->
<!DOCTYPE svg PUBLIC "-//W3C//DTD SVG 1.1//EN" "http://www.w3.org/Graphics/SVG/1.1/DTD/svg11.dtd">
<svg version="1.1" id="Layer_1" xmlns="http://www.w3.org/2000/svg" xmlns:xlink="http://www.w3.org/1999/xlink" x="0px" y="0px"
	 width="515.76px" height="1488.398px" viewBox="0 0 515.76 1488.398" enable-background="new 0 0 515.76 1488.398"
	 xml:space="preserve">
<path d="M353.635,907.257c3.834-1.51,0.256,9.236,0.256,9.236s-85.457,223.264-101.88,263.055
	c-16.429,39.791-28.1,53.377-28.1,53.377s-185.044,217.101-208.62,242.604c-7.917,8.562-11.968,11.965-13.854,12.707
	c-3.733,1.469,0.992-7.469,0.992-7.469l99.812-308.703c9.115-31.908,31.103-60.611,31.103-60.611
	c49.771-56.479,214.83-199.246,214.83-199.246C350.79,909.157,352.523,907.692,353.635,907.257 M117.848,340.468
	c0.459-0.183,0.956-0.318,1.488-0.398l176.773-53.644c6.586-2.351,23.195-4.758,23.195-4.758s5.449-1.45,7.371,10.315
	c1.694,10.376,14.567,64.743,18.645,186.216c4.078,121.473,12.715,124.583,5.14,285.803c0,0,3.502,83.174-19.068,109.004
	c-22.566,25.826-40.709,36.662-61.74,52.467L64.827,1090.501c0,0-1.149,0.791-2.943,1.498c-2.66,1.047-6.736,1.902-10.557-0.312
	c-4.263-2.471-4.927-7.413-3.769-10.868l64.921-733.784C112.48,347.036,113.816,342.056,117.848,340.468 M60.797,28.489
	c0.456-0.202,0.93-0.403,1.42-0.608C83.358,19.158,122.15,2.89,122.15,2.89s24.396-8.275,59.38,3.181
	c34.979,11.455,243,81.597,243,81.597s95.539,18.118,91.078,98.925c-3.916,70.844-19.264,321.358-119.979,691.336
	c0,0-1.916,5.849-3.601,6.597c-1.225,0.545-2.328-1.625-2.475-10.754l-8.771-516.295c0,0-0.731-139.674-71.039-184.233
	C239.438,128.68,53.231,44.921,53.231,44.921S41.642,36.99,60.797,28.489"/>
</svg>
