<?xml version="1.0" encoding="utf-8"?>
<!-- Generator: Adobe Illustrator 16.0.0, SVG Export Plug-In . SVG Version: 6.00 Build 0)  -->
<!DOCTYPE svg PUBLIC "-//W3C//DTD SVG 1.1//EN" "http://www.w3.org/Graphics/SVG/1.1/DTD/svg11.dtd">
<svg version="1.1" id="Layer_1" xmlns="http://www.w3.org/2000/svg" xmlns:xlink="http://www.w3.org/1999/xlink" x="0px" y="0px"
	 width="692.579px" height="1272.238px" viewBox="0 0 692.579 1272.238" enable-background="new 0 0 692.579 1272.238"
	 xml:space="preserve">
<path fill="none" stroke="#000001" stroke-linejoin="round" stroke-miterlimit="10" d="M48.172,106.662
	c4.01,16.371,6.886,61.422,6.886,114.507c-0.001,2.174,0.229,4.933,0.668,7.345c2.421,11.805,159.257,776.528,169.81,820.929
	c9.565,40.248,24.432,66.047,26.724,69.873c34.737,35.959,63.959,61.932,86.901,77.229c8.445,5.632,4.581,20.323,0.216,26.995
	c-3.298,5.041-5.059,10.99-5.059,17.015c0,17.221,13.961,31.182,31.182,31.182s31.18-13.961,31.18-31.182
	c0-5.708-1.578-11.392-4.563-16.262c-2.281-3.723-6.511-6.507-7.953-10.721c-1.672-4.884,0.693-10.931,2.948-15.227
	c0.857-0.579,1.743-1.188,2.657-1.83c22.632-15.895,51.446-43.057,85.651-80.729c2.172-3.896,16.23-30.143,24.547-70.67
	c9.293-45.303,9.293-45.303,143.889-823.498l0.398-2.325c0.361-2.42,0.502-5.17,0.438-7.334c0-51.123,4.075-96.989,10.547-128.421
	l0.001,0.002c20.451-42.333,33.545-69.766,34.985-72.68c5.979-12.071-4.416-10.266-4.416-10.266
	c-162.4,25.78-333.842,23.905-339.316,23.762c0,0-174.289,4.541-339.798-18.684c0,0-10.421-1.617-4.231,10.344
	C4.168,19.312,21.616,54.25,48.17,106.66L48.172,106.662z"/>
</svg>
