<?xml version="1.0" encoding="utf-8"?>
<!-- Generator: Adobe Illustrator 16.0.0, SVG Export Plug-In . SVG Version: 6.00 Build 0)  -->
<!DOCTYPE svg PUBLIC "-//W3C//DTD SVG 1.1//EN" "http://www.w3.org/Graphics/SVG/1.1/DTD/svg11.dtd">
<svg version="1.1" id="Layer_1" xmlns="http://www.w3.org/2000/svg" xmlns:xlink="http://www.w3.org/1999/xlink" x="0px" y="0px"
	 width="2426.301px" height="504.941px" viewBox="0 0 2426.301 504.941" enable-background="new 0 0 2426.301 504.941"
	 xml:space="preserve">
<path fill="none" stroke="#000000" stroke-linejoin="round" stroke-miterlimit="10" d="M70.634,326.867
	c-2.768-2.111-5.015-6.139-8.922-6.146c-2.527-0.005-4.173,1.711-6.258,2.803c-5.716,7.078-14.466,11.605-24.271,11.605
	C13.96,335.13,0,321.17,0,303.949s13.96-31.182,31.182-31.182c16.598,0,30.167,12.969,31.126,29.326
	c1.109,2.127,2.804,4.188,5.246,4.715c3.025,0.654,6.065-0.757,9.004-1.214c0.37-0.058,0.738-0.114,1.108-0.173L284.712,202.81
	l14.477,8.806c33.734,11.678,66.407,16.639,94.782,18.121c54.306,2.837,92.855-7.079,92.855-7.079l682.829-137.867
	c302.303-64.964,618.276-83.932,618.276-83.932c12.983-1.07,27.414-1.108,42.94-0.296c149.248,7.796,397.857,93.968,397.857,93.968
	c1.324,0.303,15.156,5.162,31.229,6.002c15.638,0.817,33.4-2.174,43.806-16.871c6.606-9.332,15.327-12.715,25.024-12.208
	c29.514,1.541,68.103,39.099,83.969,54.726c21.08,20.758,14.291,38.443,1.648,62.473c-12.645,24.044-46.344,22.381-46.344,22.381
	s-264.021,29.75-340.787,38.574c-76.766,8.822-113.822,33.875-113.822,33.875s-354.889,203.529-380.242,215.869
	c-9.391,4.572-16.215,5.812-21.08,5.558c-8.264-0.436-10.885-5.168-10.885-5.168s-20.174-27.154-62.219-88.437
	c-32.074-46.752-60.168-53.562-71.689-54.166c-3.58-0.184-5.559,0.229-5.559,0.229l-70.035,1.021
	c0,0-1093.549,20.842-1115.636,21.283c-3.577,0.076-6.861,0.01-9.857-0.146c-15.504-0.811-23.242-4.123-23.242-4.123
	s-27.996-14.213-60.591-36.649c-3.802-2.614-8.067-7.278-11.782-11.882L70.634,326.867z"/>
</svg>
