<?xml version="1.0" encoding="utf-8"?>
<!-- Generator: Adobe Illustrator 16.0.0, SVG Export Plug-In . SVG Version: 6.00 Build 0)  -->
<!DOCTYPE svg PUBLIC "-//W3C//DTD SVG 1.1//EN" "http://www.w3.org/Graphics/SVG/1.1/DTD/svg11.dtd">
<svg version="1.1" id="Layer_1" xmlns="http://www.w3.org/2000/svg" xmlns:xlink="http://www.w3.org/1999/xlink" x="0px" y="0px"
	 width="2850.708px" height="1529.399px" viewBox="0 0 2850.708 1529.399" enable-background="new 0 0 2850.708 1529.399"
	 xml:space="preserve">
<path fill="none" stroke="#000000" stroke-linejoin="round" stroke-miterlimit="10" d="M488.321,169.067
	c-4.354-12.475-4.439-23.692,4.267-35.589"/>
<path fill="none" stroke="#000000" stroke-linejoin="round" stroke-miterlimit="10" d="M1851.1,911.413
	c3.885-4.621-3.254-4.499-3.861-4.48l-0.041,0.002l-469.083-46.023c-0.201-0.045-0.369-0.061-0.51-0.057
	c-0.375,0.012-0.541,0.183-0.565,0.449"/>
<path fill="none" stroke="#000000" stroke-linejoin="round" stroke-miterlimit="10" d="M1395.113,535.723
	c-26.667-15.161-56.246-33.615-85.74-55.824c-71.502-53.846-326.166-188.562-326.166-188.562
	c-49.614-28.835-95.146-27.866-95.146-27.866C666.432,245.92,570.624,223.01,570.624,223.01s-59.532-15.029-88.673-15.902
	c-1.646-0.049-3.226-0.049-4.742-0.002c-1.482,0.045-2.906,0.132-4.272,0.258"/>
<path fill="none" stroke="#000000" stroke-linejoin="round" stroke-miterlimit="10" d="M1374.709,846.312
	c5.285,4.168,10.469,7.315,10.468,7.315l132.649,12.16l328.488,33.639c2.246,0.217,4.381,0.271,6.373,0.209
	c5.915-0.179,10.588-1.352,13.249-2.199"/>
<path fill="none" stroke="#000001" stroke-linejoin="round" stroke-miterlimit="10" d="M491.598,177.135
	c1.679,3.692,3.621,7.518,5.725,11.52c12.641,24.044,46.342,22.381,46.342,22.381s264.022,29.749,340.788,38.573
	c76.764,8.82,113.824,33.874,113.824,33.874s354.889,203.531,380.244,215.868c9.392,4.575,16.214,5.812,21.08,5.559
	c8.264-0.436,10.884-5.168,10.884-5.168"/>
</svg>
