<?xml version="1.0" encoding="utf-8"?>
<!-- Generator: Adobe Illustrator 16.0.0, SVG Export Plug-In . SVG Version: 6.00 Build 0)  -->
<!DOCTYPE svg PUBLIC "-//W3C//DTD SVG 1.1//EN" "http://www.w3.org/Graphics/SVG/1.1/DTD/svg11.dtd">
<svg version="1.1" id="Layer_1" xmlns="http://www.w3.org/2000/svg" xmlns:xlink="http://www.w3.org/1999/xlink" x="0px" y="0px"
	 width="2850.695px" height="1529.398px" viewBox="0 0 2850.695 1529.398" enable-background="new 0 0 2850.695 1529.398"
	 xml:space="preserve">
<path fill="none" stroke="#000000" stroke-linejoin="round" stroke-miterlimit="10" d="M1769.842,0.563
	c-15.529-0.812-29.956-0.774-42.938,0.296c0,0-315.976,18.968-618.276,83.932L425.798,222.658c0,0-38.552,9.916-92.854,7.079
	c-28.376-1.482-61.049-6.443-94.782-18.121l-14.476-8.806L0,313.667c0,0,12.079,18.678,21.389,25.085
	c32.595,22.435,60.591,36.651,60.591,36.651s7.738,3.313,23.242,4.124c2.996,0.155,6.28,0.22,9.857,0.146
	c22.087-0.442,1115.634-21.285,1115.634-21.285l70.035-1.02c0,0,1.979-0.412,5.559-0.227c11.521,0.603,39.615,7.413,71.689,54.167
	c42.045,61.281,62.219,88.434,62.219,88.434s2.621,4.732,10.885,5.168c4.865,0.254,11.688-0.983,21.08-5.558
	c25.355-12.338,380.242-215.869,380.242-215.869s37.058-25.054,113.824-33.874c76.766-8.824,340.787-38.573,340.787-38.573
	s33.697,1.663,46.342-22.381c12.643-24.037,19.432-41.722-1.648-62.48c-15.867-15.627-54.455-53.185-83.967-54.726
	c-9.699-0.507-18.418,2.876-25.027,12.208c-10.406,14.697-28.168,17.688-43.805,16.871c-16.072-0.84-29.904-5.699-31.229-6.002
	C2167.699,94.531,1919.091,8.359,1769.842,0.563 M1532.623,1411.131c0,0-5.002-4.818-0.373-16.003
	c4.631-11.184,11.855-44.406,5.318-67.5l-79.645-288.725l-20.424-72.166c0,0-4.666-9.742,4.438-40.663
	c0,0,17.688-44.731,29.589-61.042c0,0,3.459-4.119,1.562-4.182c-0.141-0.004-0.309,0.016-0.51,0.06L1003.5,906.935l-0.041-0.002
	c-0.758-0.021-11.68-0.207,1.311,8.857c13.449,9.387,71.826,40.123,89.447,58.633c16.639,17.479,43.588,80.91,43.588,80.91
	l65.566,133.15l56.506,113.832c0,0,13.457,23.18,12.094,44.852c0,0,0.062,8.676-17.979,29.674c0,0-11.994,10.589-9.479,17.375
	c2.521,6.779,8.576,10.164,17.996,13.792c9.375,3.612,218.822,80.869,220.465,80.919c0.012,0,0.015-0.002,0.012-0.004
	c-0.006-0.008,0-0.012,0.02-0.012c1.662,0.051,111.668,39.758,111.668,39.758s1.688,0.688,3.113,0.729
	c1.926,0.058,3.381-1.054-0.438-6.579L1532.623,1411.131z M1406.926,1330.761c-29.682,0-53.744-24.062-53.744-53.741
	c0-29.683,24.062-53.74,53.744-53.74c29.686,0,53.742,24.062,53.742,53.74C1460.668,1306.699,1436.607,1330.761,1406.926,1330.761z
	 M2770.156,681.056c0,0-10.848-20.745-10.916-28.809c-0.07-8.062-5.697-27.486-25.535-55.101
	c-19.836-27.612-85.85-159.021-326.756-375.979c0,0-8.074-13.292-33.463-14.06c-1.521-0.047-3.098-0.047-4.742,0.002
	c-29.141,0.873-88.672,15.902-88.672,15.902s-95.809,22.91-317.438,40.463c0,0-45.531-0.969-95.146,27.866
	c0,0-254.664,134.718-326.163,188.562c-71.502,53.84-143.498,85.606-173.293,101.896c-29.795,16.283-194.562,89.982-194.562,89.982
	s-39.756,13.893-91.635,68.834l-62.918,72.729l-48.229,55.561c0,0-3.93,8.03-4.092,13.06c-0.162,5.023,0.059,6.665,5.004,9.34
	c4.943,2.675,10.711,5.24,10.711,5.24s6.271,2.807,15.697,3.092c1.99,0.062,4.127,0.008,6.373-0.209l328.482-33.639l132.65-12.16
	c0,0,14.928-9.061,19.947-16.795l55.262,35.988c0,0,0.125,0.927,2.67,1.004c3.336,0.101,10.832-1.26,27.659-8.092
	c29.667-12.039,430.901-172.684,430.901-172.684s31.646-12.305,47.506-14.428c10.471-1.401,21.379-2.859,39.088-2.326
	c9.11,0.275,20.02,1.08,33.604,2.689l706.404,114.31c0,0,0.492,0.111,1.436,0.144c2.939,0.089,10.248-0.644,20.697-8.146
	L2770.156,681.056z"/>
</svg>
