<?xml version="1.0" encoding="utf-8"?>
<!-- Generator: Adobe Illustrator 16.0.0, SVG Export Plug-In . SVG Version: 6.00 Build 0)  -->
<!DOCTYPE svg PUBLIC "-//W3C//DTD SVG 1.1//EN" "http://www.w3.org/Graphics/SVG/1.1/DTD/svg11.dtd">
<svg version="1.1" id="Layer_1" xmlns="http://www.w3.org/2000/svg" xmlns:xlink="http://www.w3.org/1999/xlink" x="0px" y="0px"
	 width="2850.695px" height="1529.398px" viewBox="0 0 2850.695 1529.398" enable-background="new 0 0 2850.695 1529.398"
	 xml:space="preserve">
<path fill="none" stroke="#000000" stroke-linejoin="round" stroke-miterlimit="10" d="M1440.215,499.742
	c0,0,2.621,4.732,10.885,5.168c4.865,0.254,11.688-0.983,21.08-5.558c25.355-12.338,380.242-215.869,380.242-215.869
	s37.058-25.054,113.824-33.874c76.766-8.824,340.787-38.573,340.787-38.573s33.697,1.663,46.342-22.381
	c11.234-21.359,17.847-37.703,4.389-55.645"/>
<path fill="none" stroke="#000000" stroke-linejoin="round" stroke-miterlimit="10" d="M1473.645,861.529
	c0.058-0.395-0.082-0.663-0.556-0.679c-0.141-0.004-0.309,0.016-0.51,0.06L1003.5,906.935l-0.041-0.002
	c-0.663-0.018-9.105-0.163-2.509,5.871"/>
<path fill="none" stroke="#000000" stroke-linejoin="round" stroke-miterlimit="10" d="M968.508,889.244
	c0.735,0.669,1.736,1.325,3.093,2.06c4.943,2.675,10.711,5.24,10.711,5.24s6.271,2.807,15.697,3.092
	c1.99,0.062,4.127,0.008,6.373-0.209l328.482-33.639l132.65-12.16c0,0,6.491-3.94,12.352-8.842"/>
<path fill="none" stroke="#000000" stroke-linejoin="round" stroke-miterlimit="10" d="M2393.933,211.302
	c-5.014-2.181-11.703-3.93-20.446-4.195c-1.521-0.047-3.098-0.047-4.742,0.002c-29.141,0.873-88.672,15.902-88.672,15.902
	s-95.809,22.91-317.438,40.463c0,0-45.531-0.969-95.146,27.866c0,0-254.664,134.718-326.163,188.562
	c-31.514,23.729-63.123,43.171-91.174,58.89"/>
</svg>
