<?xml version="1.0" encoding="utf-8"?>
<!-- Generator: Adobe Illustrator 16.0.0, SVG Export Plug-In . SVG Version: 6.00 Build 0)  -->
<!DOCTYPE svg PUBLIC "-//W3C//DTD SVG 1.1//EN" "http://www.w3.org/Graphics/SVG/1.1/DTD/svg11.dtd">
<svg version="1.1" id="Layer_1" xmlns="http://www.w3.org/2000/svg" xmlns:xlink="http://www.w3.org/1999/xlink" x="0px" y="0px"
	 width="1158.238px" height="1556.256px" viewBox="0 0 1158.238 1556.256" enable-background="new 0 0 1158.238 1556.256"
	 xml:space="preserve">
<path fill="none" stroke="#000000" stroke-linejoin="round" stroke-miterlimit="10" d="M191.534,399.654
	c-0.604-0.082-1.065,0.049-1.39,0.388c-0.913,0.958-11.102,14.272-26.998,35.232"/>
<path fill="none" stroke="#000000" stroke-linejoin="round" stroke-miterlimit="10" d="M1104.254,1475.207
	c-7.354-10.744-14.732-21.472-22.242-32.107c-3.098-4.387-6.227-8.754-9.356-13.114c-3.578-4.984-7.158-9.97-10.716-14.968
	c-3.815-5.364-7.606-10.752-11.377-16.149c-3.981-5.709-7.946-11.435-11.913-17.15c-4.179-6.021-8.359-12.041-12.552-18.053
	c-4.311-6.185-8.629-12.359-12.938-18.543c-4.297-6.164-8.586-12.336-12.857-18.519c-4.19-6.065-8.367-12.146-12.537-18.229
	c-4.057-5.918-8.108-11.84-12.166-17.76c-3.854-5.623-7.709-11.244-11.561-16.867c-3.525-5.146-7.049-10.301-10.555-15.463
	c-3.131-4.607-6.246-9.225-9.353-13.853c-2.717-4.053-5.424-8.106-8.123-12.172c-2.205-3.313-4.401-6.635-6.586-9.967
	c-1.506-2.301-3.01-4.603-4.455-6.938c-0.803-1.297-1.59-2.604-2.311-3.95c-0.211-0.396-0.562-0.861-0.67-1.293
	c-0.832-3.185-6.728-3.076-19.91,0.377c-18.617,4.875-19.879,4.532-200.479-53.218c-99.95-31.955-187.823-60.631-195.276-63.688
	c-7.458-3.086-14.23-4.449-15.033-3.037c-0.102,0.174-0.061,0.474,0.114,0.891"/>
<path fill="none" stroke="#000000" stroke-linejoin="round" stroke-miterlimit="10" d="M954.213,1194.994l-14.922,2.764
	c-8.181,1.529-14.707,3.473-14.476,4.35c0.223,0.85,40.502,59.68,89.514,130.727c49.033,71.008,89.646,131.129,90.281,133.541
	c0.45,1.669,1.271,2.289,2.832,1.723"/>
<path fill="none" stroke="#000000" stroke-linejoin="round" stroke-miterlimit="10" d="M329.526,356.801
	c-2,32.017-3.356,60.935-3.78,83.86c-1.586,85.7,0.898,112.646,37.248,403.665c1.688,13.734,7.469,41.844,12.805,62.449
	c9.064,35.065,10.892,39.014,28.377,61.271c27.949,35.691,90.104,100.191,103.367,107.324c6.417,3.478,94.318,32.815,195.356,65.222
	c164.752,52.844,185.196,58.533,198.026,55.174c9.322-2.438,14.514-5.672,14.92-9.266c0.347-3.051-20.033-55.371-45.271-116.295
	C777.84,846.279,723.491,703.59,687.524,589.723c-32.804-103.914-84.208-290.409-91.495-331.889l-6.496-37.004"/>
<path fill="none" stroke="#000000" stroke-linejoin="round" stroke-miterlimit="10" d="M601.26,232.187
	c-3.949-2.749-1.84,7.586,9.92,54.873c69.862,281.158,121.496,431.148,281.606,817.734c29.158,70.414,34.164,80.471,39.43,79.092
	c4.029-1.057,5.355-4.271,3.955-9.621"/>
<path fill="none" stroke="#000001" stroke-linejoin="round" stroke-miterlimit="10" d="M454.057,1063.716
	c1.308,0.326,2.032,0.44,2.106,0.32c0.518-0.931-13.229-16.726-30.549-35.103c-58.05-61.588-62.97-68.74-75.402-109.283
	c-11.925-38.832-14.808-57.681-37.688-246.226c-7.868-64.854-16.479-126.265-19.131-136.408
	c-6.269-24.053-32.938-64.707-70.452-107.387c-8.321-9.46-14.939-16.58-20.015-21.507"/>
</svg>
