<?xml version="1.0" encoding="utf-8"?>
<!-- Generator: Adobe Illustrator 16.0.0, SVG Export Plug-In . SVG Version: 6.00 Build 0)  -->
<!DOCTYPE svg PUBLIC "-//W3C//DTD SVG 1.1//EN" "http://www.w3.org/Graphics/SVG/1.1/DTD/svg11.dtd">
<svg version="1.1" id="Layer_1" xmlns="http://www.w3.org/2000/svg" xmlns:xlink="http://www.w3.org/1999/xlink" x="0px" y="0px"
	 width="1158.238px" height="1556.256px" viewBox="0 0 1158.238 1556.256" enable-background="new 0 0 1158.238 1556.256"
	 xml:space="preserve">
<path fill="none" stroke="#000001" stroke-linejoin="round" stroke-miterlimit="10" d="M432.303,128.227
	c-8.896,12.113-31.918,16.853-47.046,9.649c-39.58-18.788-21.05-78.719,22.445-72.615
	C437.639,69.494,450.779,103.114,432.303,128.227z"/>
<path fill="none" stroke="#000001" stroke-linejoin="round" stroke-miterlimit="10" d="M1107.442,1468.098
	c1.562-0.566,3.864-2.319,7.276-5.396c4.937-4.426,8.414-9.938,7.75-12.252c-0.666-2.316-38.785-60.744-84.738-129.838
	l-83.518-125.617c-9.983-2.229-14.925-11.908-18.042-20.73c-1.156-4.414-27.129-75.19-57.729-157.27
	C753.192,680.96,682.481,478.249,626.307,294.259c-10.575-34.7-18.549-55.407-23.146-60.326c-0.735-0.778-1.372-1.379-1.9-1.747
	v0.001l-11.727-11.358l-56.201-57.209c-30.939-31.452-79.766-81.305-108.52-110.78c-28.755-29.473-53.589-53.266-55.231-52.835
	c-8.628,2.26-30.978,211.451-40.055,356.795c0,30.882-42.521,55.872-95.069,55.872c-13.137,0-24.706-1.803-31.532-4.547l0-0.002
	c-5.603-5.438-9.327-8.202-11.39-8.493c-2.315-0.326-3.199-2.672-2.826-4.753c0.289-1.612,0.609-3.23,0.609-4.875
	c0-17.222-13.96-31.183-31.182-31.183c-17.222,0-31.182,13.961-31.182,31.183c0,6.874,2.233,13.41,6.414,18.833
	c4.268,5.536,9.485,9.17,16.256,10.949c1.821,0.479,3.66,0.888,5.483,1.357c0.884,0.228,1.766,0.467,2.645,0.717
	c4.17,1.188,5.971,6.305,5.911,10.232c-0.012,0.793-0.02,2.526-0.518,3.183c-17.729,23.378-42.559,56.271-69.531,92.143
	C42.459,595.452,0.333,651.424,0.001,651.834c-0.339,0.381,64.896,80.569,144.967,178.143l145.59,177.396l82.316,29.162
	c39.256,13.884,72.645,25.05,81.183,27.182l0.002-0.001c9.221,2.581,17.076,8.447,24.422,14.346
	c2.122,1.704,4.203,3.454,6.172,5.332c2.531,2.415,4.828,5.127,6.751,8.049l-0.002-0.004c2.798,6.646,39.777,43.188,79.646,78.482
	c33.264,29.465,46.292,39.502,224.32,173.156c72.346,54.303,154.156,115.883,181.764,136.84
	c53.73,40.719,59.105,43.232,141.72,66.371c20.395,5.707,38.062,10.188,39.287,9.959c1.236-0.205-9.338-16.859-23.514-36.996
	c-10.266-14.582-20.297-29.327-30.371-44.043l-0.002-0.002c0-3.948,1.467-7.143,3.28-7.143L1107.442,1468.098z"/>
</svg>
