<?xml version="1.0" encoding="utf-8"?>
<!-- Generator: Adobe Illustrator 16.0.0, SVG Export Plug-In . SVG Version: 6.00 Build 0)  -->
<!DOCTYPE svg PUBLIC "-//W3C//DTD SVG 1.1//EN" "http://www.w3.org/Graphics/SVG/1.1/DTD/svg11.dtd">
<svg version="1.1" id="Layer_1" xmlns="http://www.w3.org/2000/svg" xmlns:xlink="http://www.w3.org/1999/xlink" x="0px" y="0px"
	 width="409.321px" height="382.77px" viewBox="0 0 409.321 382.77" enable-background="new 0 0 409.321 382.77"
	 xml:space="preserve">
<path fill="none" stroke="#000000" stroke-linejoin="round" stroke-miterlimit="10" d="M408.413,15.162
	c-1.078,8.333-5.244,51.271-9.213,95.399l-7.229,80.265l-10.145,8.135c-5.584,4.449-47.957,33.613-94.156,64.762l-84.008,56.688
	l-94.212-63.688l-94.212-63.686L6.876,98.317C2.287,46.198-0.748,2.834,0.161,1.927C1.04,1.049,47.266,9.749,102.875,21.285
	l101.127,20.941l101.467-21.111C361.305,9.494,407.731,0,408.667,0C409.629,0,409.516,6.802,408.413,15.162L408.413,15.162z"/>
</svg>
