<?xml version="1.0" encoding="utf-8"?>
<!-- Generator: Adobe Illustrator 16.0.0, SVG Export Plug-In . SVG Version: 6.00 Build 0)  -->
<!DOCTYPE svg PUBLIC "-//W3C//DTD SVG 1.1//EN" "http://www.w3.org/Graphics/SVG/1.1/DTD/svg11.dtd">
<svg version="1.1" id="Layer_1" xmlns="http://www.w3.org/2000/svg" xmlns:xlink="http://www.w3.org/1999/xlink" x="0px" y="0px"
	 width="907.107px" height="601.363px" viewBox="0 0 907.107 601.363" enable-background="new 0 0 907.107 601.363"
	 xml:space="preserve">
<path fill="none" stroke="#000000" stroke-linejoin="round" stroke-miterlimit="10" d="M702.822,317.471
	c-29.376-15.488-51.402-26.958-66.186-34.478C543.96,235.82,451.473,188.264,359.648,139.46
	c-56.042-29.783-147.879-78.588-172.137-81.083c-19.997-2.057-39.975-4.237-59.941-6.568c-23.507-2.74-71.53-8.341-70.851-2.423
	v-0.001l0.34,3.005l94.207,182.423c30.166,58.411,59.782,117.1,89.188,175.898c8.259,16.521,17.478,35.104,27.566,55.545
	c16.048,32.539,32.326,64.967,48.154,97.612l8.628,17.782c1.79,3.637,5.682,8.48,11.648,14.467c0.77,0.42,2.3-0.763,4.938-0.562
	c14.898,1.131,195.688,3.763,293.53,5.794c5.369,0.112,10.309-0.45,14.877-1.695c3.439-0.974,8.39-3.275,14.709-6.968l13.428-9.286
	c30.126-20.821,115.396-76.889,173.316-114.976c12.139-7.979,24.576-16.428,37.324-25.346c6.299-4.398,19.188-12.486,18.508-13.703
	c-2.359-4.223-5.459-7.854-9.219-10.979c-1.359-1.076-14.918-8.152-40.654-21.012c-11.299-5.67-24.847-12.674-40.664-21.088
	C778.871,356.254,740.577,337.379,702.822,317.471z"/>
</svg>
