<?xml version="1.0" encoding="utf-8"?>
<!-- Generator: Adobe Illustrator 16.0.0, SVG Export Plug-In . SVG Version: 6.00 Build 0)  -->
<!DOCTYPE svg PUBLIC "-//W3C//DTD SVG 1.1//EN" "http://www.w3.org/Graphics/SVG/1.1/DTD/svg11.dtd">
<svg version="1.1" id="Layer_1" xmlns="http://www.w3.org/2000/svg" xmlns:xlink="http://www.w3.org/1999/xlink" x="0px" y="0px"
	 width="850.395px" height="554.59px" viewBox="0 0 850.395 554.59" enable-background="new 0 0 850.395 554.59"
	 xml:space="preserve">
<path d="M646.111,270.697c-29.376-15.487-51.399-26.958-66.184-34.478c-92.677-47.173-185.164-94.729-276.99-143.533
	C246.895,62.904,155.058,14.1,130.801,11.604C110.804,9.547,90.824,7.367,70.86,5.036C47.352,2.296-0.671-3.305,0.009,2.613V2.612
	l0.34,3.005L94.556,188.04c30.166,58.412,59.78,117.101,89.188,175.897c8.259,16.521,17.479,35.104,27.565,55.545
	c16.048,32.539,32.326,64.968,48.154,97.612l8.628,17.782c1.79,3.637,5.68,8.48,11.646,14.467c0.771,0.42,2.303-0.763,4.938-0.562
	c14.896,1.131,195.686,3.763,293.528,5.794c5.368,0.111,10.311-0.45,14.878-1.695c3.438-0.974,8.391-3.275,14.709-6.968
	l13.429-9.286c30.126-20.821,115.396-76.889,173.313-114.977c12.142-7.979,24.576-16.428,37.324-25.346
	c6.299-4.398,19.188-12.486,18.508-13.703c-2.356-4.223-5.459-7.854-9.219-10.979c-1.359-1.076-14.918-8.152-40.654-21.012
	c-11.299-5.67-24.847-12.674-40.664-21.088C722.159,309.48,683.865,290.605,646.111,270.697z"/>
</svg>
