<?xml version="1.0" encoding="utf-8"?>
<!-- Generator: Adobe Illustrator 16.0.0, SVG Export Plug-In . SVG Version: 6.00 Build 0)  -->
<!DOCTYPE svg PUBLIC "-//W3C//DTD SVG 1.1//EN" "http://www.w3.org/Graphics/SVG/1.1/DTD/svg11.dtd">
<svg version="1.1" id="Layer_1" xmlns="http://www.w3.org/2000/svg" xmlns:xlink="http://www.w3.org/1999/xlink" x="0px" y="0px"
	 width="907.107px" height="601.363px" viewBox="0 0 907.107 601.363" enable-background="new 0 0 907.107 601.363"
	 xml:space="preserve">
<path fill="none" stroke="#000000" stroke-linejoin="round" stroke-miterlimit="10" d="M63.923,65.682
	c-4.405-5.143-7.196-10.334-14.711-9.059c-5.09,3.614-11.312,5.739-18.03,5.739C13.96,62.362,0,48.402,0,31.181
	C0,13.96,13.96,0,31.181,0c17.221,0,31.181,13.96,31.181,31.181c0,2.409-0.273,4.753-0.791,7.004
	c0.343,8.265,8.58,7.427,14.859,8.784c15.824,0.721,37.567,3.257,51.14,4.839c19.966,2.331,39.944,4.511,59.941,6.568
	c24.258,2.495,116.095,51.3,172.137,81.083c91.824,48.804,184.312,96.36,276.988,143.533c14.783,7.52,36.81,18.988,66.186,34.478
	c37.755,19.908,76.049,38.783,113.722,58.826c15.816,8.414,29.364,15.418,40.663,21.088c25.736,12.859,39.296,19.937,40.654,21.011
	c3.76,3.125,6.859,6.758,9.219,10.979c0.681,1.217-12.209,9.305-18.508,13.703c-12.748,8.918-25.186,17.367-37.324,25.346
	c-57.92,38.087-143.189,94.154-173.315,114.977l-13.428,9.285c-6.319,3.692-11.271,5.994-14.709,6.969
	c-4.568,1.245-9.509,1.808-14.877,1.694c-97.844-2.03-278.633-4.663-293.53-5.794c-2.638-0.2-4.168,0.982-4.938,0.562
	c-5.967-5.986-9.857-10.83-11.647-14.467l-8.628-17.782c-15.828-32.646-32.106-65.073-48.154-97.612
	c-10.088-20.439-19.308-39.022-27.566-55.545c-29.406-58.798-59.021-117.487-89.188-175.898L63.924,65.685L63.923,65.682z"/>
</svg>
