<?xml version="1.0" encoding="utf-8"?>
<!-- Generator: Adobe Illustrator 16.0.0, SVG Export Plug-In . SVG Version: 6.00 Build 0)  -->
<!DOCTYPE svg PUBLIC "-//W3C//DTD SVG 1.1//EN" "http://www.w3.org/Graphics/SVG/1.1/DTD/svg11.dtd">
<svg version="1.1" id="Layer_1" xmlns="http://www.w3.org/2000/svg" xmlns:xlink="http://www.w3.org/1999/xlink" x="0px" y="0px"
	 width="716.748px" height="1084.871px" viewBox="0 0 716.748 1084.871" enable-background="new 0 0 716.748 1084.871"
	 xml:space="preserve">
<path d="M521.279,908.635l90.209,176.236l72-597.04l19.957-191.932L716.22,143.66l0.526-128.163l-37.426,44.154L628.4,127.642
	l-55.651,65.861l-34.021,35.895l-34.814,35.065l-39.936,34.564c0,0-106.847,97.958-207.823,0.05
	c-100.985-97.906-101.376-98.356-101.376-98.356l-46.224-56.953L63.1,81.728L4.939,0L0.001,107.775l0.91,78.14l4.068,93.857
	l10.669,203.932l47.401,591.289l100.128-174.849l44.804,30.377l40.272,25.854l24.296,14.179l21.559,11.369l19.948,9.102
	l19.646,4.602l12.448,0.318l17.878-3.562l17.887-6.829l20.607-9.354l30.023-15.946l34.338-20.229l30.266-17.986L521.279,908.635z"/>
</svg>
