<?xml version="1.0" encoding="utf-8"?>
<!-- Generator: Adobe Illustrator 16.0.0, SVG Export Plug-In . SVG Version: 6.00 Build 0)  -->
<!DOCTYPE svg PUBLIC "-//W3C//DTD SVG 1.1//EN" "http://www.w3.org/Graphics/SVG/1.1/DTD/svg11.dtd">
<svg version="1.1" id="Layer_1" xmlns="http://www.w3.org/2000/svg" xmlns:xlink="http://www.w3.org/1999/xlink" x="0px" y="0px"
	 width="1390.289px" height="364.424px" viewBox="0 0 1390.289 364.424" enable-background="new 0 0 1390.289 364.424"
	 xml:space="preserve">
<path fill="none" stroke="#000000" stroke-linejoin="round" stroke-miterlimit="10" d="M1113.214,0l-6.666,1.162
	c14.912,6.772,27.431,19.148,34.125,35.676c13.687,33.778-2.094,72.059-35.225,85.48c-33.142,13.424-71.109-3.082-84.795-36.86
	c-10.39-25.645-3.781-53.866,14.498-71.853l-3.779,0.659l-106.48,34.979L60.987,313.924l930.212,50.5L1390.289,49.1L1113.214,0z
	 M1274.186,122.035c-36.486,1.51-57.646-50.525-30.654-74.823c18.063-21.903,55.592-18.185,70.113,5.654
	C1334.587,80.705,1308.955,126.451,1274.186,122.035z"/>
</svg>
