<?xml version="1.0" encoding="utf-8"?>
<!-- Generator: Adobe Illustrator 16.0.0, SVG Export Plug-In . SVG Version: 6.00 Build 0)  -->
<!DOCTYPE svg PUBLIC "-//W3C//DTD SVG 1.1//EN" "http://www.w3.org/Graphics/SVG/1.1/DTD/svg11.dtd">
<svg version="1.1" id="Layer_1" xmlns="http://www.w3.org/2000/svg" xmlns:xlink="http://www.w3.org/1999/xlink" x="0px" y="0px"
	 width="1329.301px" height="364.424px" viewBox="0 0 1329.301 364.424" enable-background="new 0 0 1329.301 364.424"
	 xml:space="preserve">
<path d="M1052.229,0l-6.666,1.162c14.91,6.772,27.43,19.148,34.125,35.676c13.686,33.778-2.096,72.059-35.227,85.48
	c-33.14,13.424-71.107-3.082-84.796-36.86c-10.389-25.645-3.78-53.866,14.498-71.853l-3.778,0.659L863.906,49.243L0.001,313.924
	l930.212,50.5L1329.301,49.1L1052.229,0z M1213.198,122.035c-36.485,1.51-57.645-50.525-30.655-74.823
	c18.065-21.903,55.594-18.185,70.114,5.654C1273.602,80.705,1247.967,126.451,1213.198,122.035z"/>
</svg>
