<?xml version="1.0" encoding="utf-8"?>
<!-- Generator: Adobe Illustrator 16.0.0, SVG Export Plug-In . SVG Version: 6.00 Build 0)  -->
<!DOCTYPE svg PUBLIC "-//W3C//DTD SVG 1.1//EN" "http://www.w3.org/Graphics/SVG/1.1/DTD/svg11.dtd">
<svg version="1.1" id="Layer_1" xmlns="http://www.w3.org/2000/svg" xmlns:xlink="http://www.w3.org/1999/xlink" x="0px" y="0px"
	 width="1625.371px" height="745.55px" viewBox="0 0 1625.371 745.55" enable-background="new 0 0 1625.371 745.55"
	 xml:space="preserve">
<path fill="none" stroke="#000000" stroke-linejoin="round" stroke-miterlimit="10" d="M190.676,166.962
	c-25.239,0.235-45.26-20.426-44.715-46.147c0.546-25.721,21.45-46.763,46.69-46.998s45.26,20.425,44.714,46.146
	C236.82,145.684,215.917,166.727,190.676,166.962z M275.382,612.093c-0.471,22.184-18.014,39.805-39.184,39.355
	c-21.169-0.449-37.949-18.797-37.479-40.98c0.471-22.184,18.014-39.805,39.184-39.355S275.852,589.91,275.382,612.093z
	 M1563.224,85.151c1.836-15.471,14.999-27.468,30.964-27.468c17.221,0,31.182,13.96,31.182,31.182
	c0,17.221-13.961,31.182-31.182,31.182c-10.398,0-19.607-5.089-25.271-12.912c-1.194-0.952-2.754-3.393-4.532-2.128
	c-0.567,0.403-0.895,1.001-1.378,1.479c-0.704,2.795-1.836,5.552-3.334,8.2c-5.759,10.181-14.926,15.79-23.279,23.426
	c-24.301,16.212-99.473,75-110.09,83.562c-19.909,16.054-56.76,45.734-59.698,48.2c-38.858,32.612-78.683,64.057-117.56,96.646
	c-4.103,3.437-8.204,6.875-12.312,10.304c-12.906,10.786-25.106,22.418-39.511,31.244c-20.926,12.82-43.242,12.59-66.938,11.244
	c-10.34-0.588-20.905-2.818-31.174-0.471c-14.34,3.281-28.547,7.354-42.76,11.145c-50.498,13.465-100.367,29.244-149.089,48.186
	c-15.104,5.873-24.976,9.48-29.688,11.037c-4.566,1.508-11.907,3.932-13.642,4.682c-25.729,11.119-45.67,20.928-59.891,29.338
	c-3.646,2.152-26.805,17.648-27.758,18.494c-10.681,9.471-23.31,16.867-32.688,27.77c-6.307,7.328-11.681,15.441-18.64,22.205
	l-81.61,89.15c-5.816,6.072-15.851,17.379-30.245,33.855c-9.327,10.678-18.302,21.135-30.368,28.824
	c-2.212,1.404-4.003,2.264-6.608,1.963c-13.713-1.582-27.091-4.916-40.588-7.762c-17.314-3.645-34.471-8.107-51.642-12.369
	c-45.062-11.182-74.949-17.938-89.517-20.406c-7.906-1.338-15.709-3.219-23.434-5.355c-13.61-3.764-26.979-8.336-40.544-12.256
	c-13.312-3.848-26.952-6.15-40.325-9.717c-12.948-3.455-25.912-6.842-38.867-10.266c-8.979-2.373-17.964-4.74-26.919-7.207
	c-5.726-1.637-10.954-3.041-15.609-4.293c-7.673-2.062-15.358-4.078-23.038-6.113c-9.416-2.496-18.817-5.047-28.217-7.605
	c-8.261-2.246-15.978-5.598-24.103-8.24c-5.978-1.943-14.166-2.352-19.055-6.658c-3.994-3.521-4.575-9.848-3.325-14.771
	c1.479-5.824,5.974-10.008,10.217-13.896c13.966-12.812,31.516-21.354,48.042-30.4c78.765-43.125,130.302-65.652,154.473-67.729
	c11.438-0.99,23.352-1.291,33.91,3.736c10.908,5.199,21.918,9.035,33.102,11.506c18.066,3.986,35.519,7.217,54.106,5.984
	c19.987-1.324,40.021-4.645,59.916-7.02c29.6-3.41,44.906-5.244,46.062-5.439c12.087-2.002,24.151-4.141,36.214-6.289
	c7.381-1.312,15.277-3.023,22.804-2.299c6.594,0.635,12.563,3.404,18.227,6.697c3.892,2.264,7.629,4.836,11.432,7.244
	c15.27,9.674,35.24,13.455,51.675,4.309c10.018-5.578,16.224-14.594,22.777-23.631c5.766-7.951,14.21-13.783,24.016-15.189
	l15.313-2.189c42.547-6.084,86.168-18.848,103.134-30.869c5.612-3.98,11.254-8.141,14.901-14.109
	c7.517-12.287,3.09-28.135-5.778-38.449c-4.625-5.378-11.82-8.207-18.209-10.939c-8.52-3.642-17.236-6.789-25.955-9.912
	c-19.648-7.04-34.309-11.812-43.829-14.319c-39.029-10.27-79.879-10.07-119.386-17.799l-62.757-12.276
	c-34.356-6.722-71.7-14.026-102.979-20.619l-29.252-6.167c-27.004-6.838-46.645-11.287-58.915-13.276
	c-20.174-3.269-39.827-8.969-59.389-14.799c-18.096-5.392-67.758-26.072-101.271-40.027c-19.64-8.178-69.481-32.446-103.955-49.231
	c-22.61-11.009-46.099-20.227-68.162-32.34c-12.605-6.922-24.653-14.881-35.418-24.444c-4.062-3.61-8.146-7.206-12.124-10.908
	c-4.89-4.549-9.613-9.215-14.363-13.901C2.62,96.672-3.847,80.397,2.749,71.632c6.775-9.002,18.169-12.304,28.669-14.287
	c19.089-3.605,38.323-6.326,57.555-9.055c21.118-2.998,42.275-5.734,63.418-8.563L449.29,0c5.243,4.072,8.993,7.249,11.25,9.457
	c11.202,10.953,22.619,21.851,36.021,30.074c9.244,5.669,18.875,9.834,28.975,12.569c11.529,3.053,29.436,4.297,53.646,3.657
	c46.035-1.214,101.066-2.667,138.119-3.048l128-1.32c11.232-0.368,64.732-0.741,97.098-0.967l249.492-0.674
	c34.862-0.093,69.704,1.151,104.519,2.812c50.322,2.402,143.427,6.839,150.97,7.303c10.723,0.659,21.459,1.31,32.176,2.071
	c13.532,0.961,27.549,1.648,40.931,3.923c8.01,1.362,16.106,1.628,23.243,5.933c4.064,2.453,7.91,5.471,11.238,8.937
	c1.175,1.224,2.285,2.502,3.322,3.831c0.954,0.658,2.564,2.766,3.863,1.868C1562.626,86.098,1562.854,85.57,1563.224,85.151z"/>
</svg>
