<?xml version="1.0" encoding="utf-8"?>
<!-- Generator: Adobe Illustrator 16.0.0, SVG Export Plug-In . SVG Version: 6.00 Build 0)  -->
<!DOCTYPE svg PUBLIC "-//W3C//DTD SVG 1.1//EN" "http://www.w3.org/Graphics/SVG/1.1/DTD/svg11.dtd">
<svg version="1.1" id="Layer_1" xmlns="http://www.w3.org/2000/svg" xmlns:xlink="http://www.w3.org/1999/xlink" x="0px" y="0px"
	 width="421.416px" height="338.348px" viewBox="0 0 421.416 338.348" enable-background="new 0 0 421.416 338.348"
	 xml:space="preserve">
<path d="M0,0.441c53.283,15.697,106.615,31.396,160.338,45.873c22.101,4.738,45.187,9.249,67.805,5.188
	C293.83,39.766,357.161,18.198,421.282,0c1.17,65.281-5.642,130.312-7.688,195.555c1.317,12.838-10.329,19.564-19.274,25.965
	c-52.713,35.814-105.208,72.068-158.431,107.105c-10.932,7.558-25.68,14.854-37.604,4.828
	C139.723,294.37,79.28,257.845,22.318,216.318C6.129,206.3,10.538,185.644,8.989,169.557C5.529,113.186,3.68,56.753,0,0.441z"/>
</svg>
