<?xml version="1.0" encoding="utf-8"?>
<!-- Generator: Adobe Illustrator 16.0.0, SVG Export Plug-In . SVG Version: 6.00 Build 0)  -->
<!DOCTYPE svg PUBLIC "-//W3C//DTD SVG 1.1//EN" "http://www.w3.org/Graphics/SVG/1.1/DTD/svg11.dtd">
<svg version="1.1" id="Layer_1" xmlns="http://www.w3.org/2000/svg" xmlns:xlink="http://www.w3.org/1999/xlink" x="0px" y="0px"
	 width="421.416px" height="400.71px" viewBox="0 0 421.416 400.71" enable-background="new 0 0 421.416 400.71"
	 xml:space="preserve">
<path fill="none" stroke="#000000" stroke-linejoin="round" stroke-miterlimit="10" d="M200.916,335.367
	c1.199,1.735,0.811,3.655-0.749,4.996c-11.766,4.461-20.13,15.836-20.13,29.166c0,17.221,13.96,31.182,31.181,31.182
	c17.222,0,31.183-13.961,31.183-31.182c0-13.111-8.093-24.332-19.558-28.941c-1.726-1.726-0.825-3.535,0.748-4.978
	c4.369-1.841,8.558-4.397,12.298-6.983c53.223-35.037,105.72-71.291,158.433-107.105c8.943-6.398,20.593-13.127,19.272-25.965
	c2.046-65.243,8.858-130.274,7.688-195.555C357.161,18.198,293.83,39.765,228.14,51.502c-22.618,4.06-45.704-0.45-67.803-5.189
	C106.615,31.836,53.283,16.137,0,0.44C3.68,56.753,5.529,113.185,8.989,169.556c1.549,16.088-2.86,36.744,13.328,46.762
	c56.962,41.528,117.404,78.053,175.967,117.137c0.862,0.726,1.738,1.358,2.627,1.908L200.916,335.367z"/>
</svg>
