<?xml version="1.0" encoding="utf-8"?>
<!-- Generator: Adobe Illustrator 16.0.0, SVG Export Plug-In . SVG Version: 6.00 Build 0)  -->
<!DOCTYPE svg PUBLIC "-//W3C//DTD SVG 1.1//EN" "http://www.w3.org/Graphics/SVG/1.1/DTD/svg11.dtd">
<svg version="1.1" id="Layer_1" xmlns="http://www.w3.org/2000/svg" xmlns:xlink="http://www.w3.org/1999/xlink" x="0px" y="0px"
	 width="1448.697px" height="720.464px" viewBox="0 0 1448.697 720.464" enable-background="new 0 0 1448.697 720.464"
	 xml:space="preserve">
<path fill="none" stroke="#000000" stroke-linejoin="round" stroke-miterlimit="10" d="M52.785,659.294
	c2.914,15.469,11.336,23.461,25.258,23.986l164.328,20.592c16.32,2.453,30.844-0.203,43.562-7.984
	c23.664-13.094,53.664-20.789,89.992-23.104l579.961-28.244c11.414-0.453,20.97-3.672,28.682-9.664
	c39.241-35.203,76.385-53.891,111.413-56.039l278.28,1.729c12.143,0.75,23.586-4.426,34.354-15.5l36.766-39.051
	c4.875-9.328,4.375-16.219-1.484-20.68L944.979,156.545c-28.344-25.376-29.68-49.743-4-73.079l50.781-40.398
	c10.844-9.227,9.914-14.921-2.781-17.094L823.815,1.546c-26.688-4.47-46.146,0.749-58.393,15.671L710.769,80.64
	c-13.521,15.844-38.711,15.93-75.555,0.243c-16.633-3.868-29.844-0.024-39.625,11.538l-535,531.516
	C52.472,632.046,49.871,643.833,52.785,659.294z"/>
</svg>
