<?xml version="1.0" encoding="utf-8"?>
<!-- Generator: Adobe Illustrator 16.0.0, SVG Export Plug-In . SVG Version: 6.00 Build 0)  -->
<!DOCTYPE svg PUBLIC "-//W3C//DTD SVG 1.1//EN" "http://www.w3.org/Graphics/SVG/1.1/DTD/svg11.dtd">
<svg version="1.1" id="Layer_1" xmlns="http://www.w3.org/2000/svg" xmlns:xlink="http://www.w3.org/1999/xlink" x="0px" y="0px"
	 width="1448.697px" height="720.464px" viewBox="0 0 1448.697 720.464" enable-background="new 0 0 1448.697 720.464"
	 xml:space="preserve">
<path fill="none" stroke="#000000" stroke-linejoin="round" stroke-miterlimit="10" d="M65.132,679.8
	c-2.435,0.041-2.989,1.492-3.31,3.668v-0.002c0.355,1.885,0.541,3.828,0.541,5.816c0,17.221-13.96,31.182-31.182,31.182
	c-17.223,0-31.183-13.961-31.183-31.182c0-17.223,13.96-31.184,31.183-31.184c7.071,0,13.593,2.355,18.824,6.322l-0.002-0.002
	c0.85-0.02,1.842,0.184,2.478-0.531c0.771-0.867,0.38-2.162,0.587-3.203v0.004c-0.101-0.459-0.193-0.924-0.282-1.396
	c-2.914-15.461-0.312-27.248,7.804-35.357L595.591,92.42c9.78-11.562,22.992-15.406,39.625-11.538
	c36.844,15.687,62.033,15.601,75.555-0.243l54.654-63.423c12.246-14.922,31.704-20.141,58.393-15.671L988.98,25.973
	c12.695,2.173,13.625,7.867,2.781,17.094L940.98,83.465c-25.68,23.336-24.344,47.703,4,73.079l498.918,348.792
	c5.859,4.461,6.359,11.352,1.484,20.68l-36.767,39.051c-10.769,11.074-22.212,16.25-34.354,15.5l-278.28-1.729
	c-35.028,2.148-72.173,20.836-111.413,56.039c-7.712,5.992-17.268,9.211-28.682,9.664l-579.961,28.244
	c-36.328,2.312-66.328,10.01-89.992,23.104c-12.719,7.781-27.242,10.438-43.562,7.984L78.043,683.281
	c-5.062-0.189-9.396-1.369-13.003-3.533L65.132,679.8z"/>
</svg>
