<?xml version="1.0" encoding="utf-8"?>
<!-- Generator: Adobe Illustrator 16.0.0, SVG Export Plug-In . SVG Version: 6.00 Build 0)  -->
<!DOCTYPE svg PUBLIC "-//W3C//DTD SVG 1.1//EN" "http://www.w3.org/Graphics/SVG/1.1/DTD/svg11.dtd">
<svg version="1.1" id="Layer_1" xmlns="http://www.w3.org/2000/svg" xmlns:xlink="http://www.w3.org/1999/xlink" x="0px" y="0px"
	 width="1460.375px" height="685.188px" viewBox="0 0 1460.375 685.188" enable-background="new 0 0 1460.375 685.188"
	 xml:space="preserve">
<path fill="none" stroke="#000000" stroke-linejoin="round" stroke-miterlimit="10" d="M1391.072,597.65L837.896,85.077
	c-10.181-11.214-23.517-14.604-40.005-10.161c-36.271,16.969-61.446,17.766-75.517,2.396l-56.831-61.481
	c-12.754-14.487-32.385-19.025-58.9-13.638L442.431,32.354c-12.607,2.62-13.343,8.345-2.185,17.188l52.157,38.607
	c26.476,22.428,25.985,46.826-1.455,73.172L4.478,527.264c-5.701,4.66-5.96,11.564-0.764,20.723l38.103,37.738
	c11.145,10.705,22.763,15.461,34.87,14.295l278.052-11.406c35.085,0.936,72.853,18.303,113.296,52.127
	c7.915,5.721,17.576,8.604,28.999,8.659l580.592,8.05c36.387,1.037,66.637,7.688,90.742,19.955
	c12.979,7.334,27.59,9.479,43.811,6.463l163.517-26.302c13.895-1.019,22.03-9.286,24.403-24.853
	C1402.476,617.164,1399.464,605.469,1391.072,597.65z"/>
</svg>
