<?xml version="1.0" encoding="utf-8"?>
<!-- Generator: Adobe Illustrator 16.0.0, SVG Export Plug-In . SVG Version: 6.00 Build 0)  -->
<!DOCTYPE svg PUBLIC "-//W3C//DTD SVG 1.1//EN" "http://www.w3.org/Graphics/SVG/1.1/DTD/svg11.dtd">
<svg version="1.1" id="Layer_1" xmlns="http://www.w3.org/2000/svg" xmlns:xlink="http://www.w3.org/1999/xlink" x="0px" y="0px"
	 width="2143.289px" height="1206.204px" viewBox="0 0 2143.289 1206.204" enable-background="new 0 0 2143.289 1206.204"
	 xml:space="preserve">
<path fill="none" stroke="#000000" stroke-linejoin="round" stroke-miterlimit="10" d="M1841.224,266.304l-11.016,15.984
	c0.125,16.164-3.854,29.5-11.922,40c-8.062,10.5-23.604,14.969-46.617,13.414c-3,0.875-71.242,53.602-77.781,66.016
	c-18.891,35.883-102.461,182.273-113.258,187.145c-7.875,3.586-41.156,5.238-99.852,4.977
	c-130.012-2.771-261.012-3.396-392.979-1.883c-36.359,2.438-78.891,38.769-82.375,60.804c-0.836,5.359,0.617,9.883,5.039,12.855
	c30.617,18.711,63.711,36.807,99.281,54.277c145.977,53.799,259.852,97.012,341.641,129.617
	c38.062,15.281,70.479,39.031,89.742,73.52c16.094,28.76,43.857,80.305,83.305,154.652l13.586,25.648
	c6.973,14.078,16.438,26.566,27.75,32.914c73.789,36.23,125.229,58.365,154.281,66.404c5.156,1.818,9.508,3.061,13.266,3.557h6.398
	c15.664-2.656,18.18-27.98,30.383-100.182l5.047-28.346c32.047-179.295,58.637-320.938,79.77-424.922l2.969-14.531
	c6.062-26.074,16.641-39.068,40.922-43.075c29.109-4.81,88.297,0.748,120.938,2.065c24.771,0.797,30-10.538,15.682-33.981
	c-49.664-89.905-100.164-179.336-151.492-268.292c-7.188-11.836-19.094-21.422-32.28-24.672l-74.642-17.32
	C1863.311,249.851,1849.513,254.562,1841.224,266.304z M1740.13,1077.676c0,21.672-17.578,39.242-39.25,39.242
	c-21.664,0-39.242-17.57-39.242-39.242c0-21.664,17.578-39.23,39.242-39.23C1722.552,1038.446,1740.13,1056.012,1740.13,1077.676z
	 M1124.045,652.754c0,21.664-17.578,39.242-39.242,39.242c-21.672,0-39.25-17.578-39.25-39.242s17.578-39.242,39.25-39.242
	C1106.466,613.512,1124.045,631.09,1124.045,652.754z M58.451,659.293c2.914,15.469,11.336,23.461,25.258,23.986l164.328,20.592
	c16.32,2.453,30.844-0.203,43.562-7.984c23.664-13.094,53.664-20.789,89.992-23.105l579.961-28.242
	c11.414-0.453,20.97-3.672,28.682-9.664c39.24-35.204,76.385-53.889,111.413-56.04l278.28,1.729
	c12.143,0.75,23.586-4.427,34.354-15.5l36.766-39.052c4.875-9.326,4.375-16.219-1.484-20.68L950.646,156.546
	c-28.346-25.376-29.682-49.743-4-73.079l50.779-40.398c10.846-9.227,9.914-14.921-2.779-17.094L829.482,1.546
	c-26.688-4.47-46.146,0.749-58.393,15.671L716.435,80.64c-13.521,15.844-38.711,15.93-75.555,0.243
	c-16.633-3.868-29.844-0.024-39.625,11.538l-535,531.515C58.138,632.045,55.538,643.833,58.451,659.293z"/>
</svg>
