<?xml version="1.0" encoding="utf-8"?>
<!-- Generator: Adobe Illustrator 16.0.0, SVG Export Plug-In . SVG Version: 6.00 Build 0)  -->
<!DOCTYPE svg PUBLIC "-//W3C//DTD SVG 1.1//EN" "http://www.w3.org/Graphics/SVG/1.1/DTD/svg11.dtd">
<svg version="1.1" id="Layer_1" xmlns="http://www.w3.org/2000/svg" xmlns:xlink="http://www.w3.org/1999/xlink" x="0px" y="0px"
	 width="2085.99px" height="1206.207px" viewBox="0 0 2085.99 1206.207" enable-background="new 0 0 2085.99 1206.207"
	 xml:space="preserve">
<path d="M1783.927,266.304l-11.019,15.984c0.125,16.164-3.854,29.5-11.923,40c-8.062,10.5-23.604,14.969-46.614,13.414
	c-3,0.875-71.242,53.602-77.781,66.016c-18.893,35.883-102.461,182.273-113.258,187.145c-7.875,3.586-41.156,5.237-99.854,4.977
	c-130.01-2.771-261.01-3.396-392.978-1.883c-36.359,2.438-78.894,38.77-82.375,60.805c-0.837,5.359,0.614,9.883,5.038,12.854
	c30.615,18.711,63.712,36.807,99.279,54.278c145.979,53.798,259.854,97.011,341.644,129.617
	c38.062,15.281,70.479,39.031,89.739,73.519c16.097,28.76,43.857,80.305,83.308,154.653l13.586,25.648
	c6.971,14.078,16.438,26.563,27.75,32.914c73.789,36.229,125.229,58.362,154.281,66.401c5.153,1.818,9.509,3.062,13.267,3.56h6.396
	c15.664-2.656,18.183-27.98,30.386-100.185l5.047-28.346c32.047-179.295,58.635-320.938,79.768-424.922l2.969-14.531
	c6.062-26.072,16.644-39.066,40.925-43.074c29.106-4.81,88.297,0.748,120.938,2.065c24.773,0.797,30-10.538,15.684-33.981
	c-49.664-89.904-100.164-179.335-151.491-268.292c-7.189-11.836-19.095-21.422-32.281-24.672l-74.641-17.319
	C1806.013,249.851,1792.217,254.562,1783.927,266.304z M1682.833,1077.675c0,21.672-17.578,39.242-39.25,39.242
	c-21.664,0-39.242-17.57-39.242-39.242c0-21.664,17.578-39.229,39.242-39.229
	C1665.255,1038.447,1682.833,1056.011,1682.833,1077.675z M1066.747,652.753c0,21.664-17.578,39.242-39.241,39.242
	c-21.673,0-39.25-17.578-39.25-39.242s17.577-39.242,39.25-39.242C1049.169,613.511,1066.747,631.089,1066.747,652.753z
	 M1.154,659.292c2.914,15.469,11.336,23.461,25.258,23.986L190.74,703.87c16.318,2.453,30.844-0.203,43.562-7.984
	c23.663-13.094,53.663-20.789,89.992-23.104l579.961-28.242c11.414-0.453,20.969-3.672,28.68-9.664
	c39.242-35.205,76.385-53.89,111.414-56.041l278.281,1.729c12.141,0.75,23.586-4.428,34.354-15.5l36.769-39.053
	c4.875-9.326,4.375-16.218-1.484-20.679l-498.92-348.787c-28.344-25.376-29.68-49.743-4-73.079l50.781-40.398
	c10.844-9.227,9.914-14.921-2.781-17.094L772.184,1.546c-26.688-4.47-46.146,0.749-58.391,15.671L659.137,80.64
	c-13.521,15.844-38.711,15.93-75.555,0.243c-16.636-3.868-29.847-0.024-39.625,11.538L8.957,623.935
	C0.841,632.044-1.759,643.833,1.154,659.292z"/>
</svg>
