<?xml version="1.0" encoding="utf-8"?>
<!-- Generator: Adobe Illustrator 16.0.0, SVG Export Plug-In . SVG Version: 6.00 Build 0)  -->
<!DOCTYPE svg PUBLIC "-//W3C//DTD SVG 1.1//EN" "http://www.w3.org/Graphics/SVG/1.1/DTD/svg11.dtd">
<svg version="1.1" id="Layer_1" xmlns="http://www.w3.org/2000/svg" xmlns:xlink="http://www.w3.org/1999/xlink" x="0px" y="0px"
	 width="2143.289px" height="1206.204px" viewBox="0 0 2143.289 1206.204" enable-background="new 0 0 2143.289 1206.204"
	 xml:space="preserve">
<path fill="none" stroke="#000001" stroke-linejoin="round" stroke-miterlimit="10" d="M1740.13,1077.676
	c0,21.672-17.578,39.242-39.25,39.242c-21.664,0-39.242-17.57-39.242-39.242c0-21.664,17.578-39.23,39.242-39.23
	C1722.552,1038.446,1740.13,1056.012,1740.13,1077.676z"/>
<path fill="none" stroke="#000001" stroke-linejoin="round" stroke-miterlimit="10" d="M1124.045,652.754
	c0,21.664-17.578,39.242-39.242,39.242c-21.672,0-39.25-17.578-39.25-39.242s17.578-39.242,39.25-39.242
	C1106.466,613.512,1124.045,631.09,1124.045,652.754z"/>
<path fill="none" stroke="#000001" stroke-linejoin="round" stroke-miterlimit="10" d="M1454.324,513.785
	c0,44.187,9.468,79.942,21.168,79.942c1.762,0.037,3.524,0.074,5.286,0.111c58.695,0.262,91.977-1.391,99.852-4.977
	c10.797-4.871,94.367-151.262,113.258-187.145c6.539-12.414,74.781-65.141,77.781-66.016c23.013,1.555,38.555-2.914,46.617-13.414
	c8.067-10.5,12.047-23.836,11.922-40l11.016-15.984c8.289-11.742,22.087-16.453,35.785-13.353l74.642,17.32
	c13.187,3.25,25.093,12.836,32.28,24.672c51.328,88.956,101.828,178.386,151.492,268.292c14.318,23.443,9.09,34.778-15.682,33.981
	c-32.642-1.317-91.829-6.875-120.938-2.065c-24.281,4.007-34.859,17-40.922,43.075l-2.969,14.531
	c-21.133,103.984-47.723,245.627-79.77,424.922l-5.047,28.346c-12.203,72.201-14.719,97.525-30.383,100.182h-6.398
	c-3.758-0.496-8.109-1.738-13.266-3.557c-29.052-8.039-80.492-30.174-154.281-66.404c-11.312-6.348-20.777-18.836-27.75-32.914
	l-13.586-25.648c-39.447-74.348-67.211-125.893-83.305-154.652c-19.263-34.488-51.68-58.238-89.742-73.52
	c-81.789-32.605-195.664-75.818-341.641-129.617c-35.57-17.471-68.664-35.566-99.281-54.277c-4.185-2.813-5.71-7.016-5.153-12.001
	l0.002,0.001c0-8.952-8.382-16.195-18.741-16.195l0.003,0.004c-7.011,4.361-15.349,6.731-25.021,7.115l-579.961,28.242
	c-36.328,2.316-66.328,10.012-89.992,23.105c-12.718,7.781-27.242,10.438-43.562,7.984L83.709,683.28
	c-5.221-0.197-9.668-1.444-13.341-3.741l0.179,0.107c-2.201,0-4.535,0.445-6.437,1.603c-2.323,1.414-3.119,4.725-3.995,7.113
	c-1.055,2.876-2.193,5.576-4.138,7.98c-3.719,4.597-8.791,8.439-14.389,10.395c-3.273,1.144-6.936,1.738-10.406,1.738
	C13.96,708.475,0,694.514,0,677.293s13.96-31.18,31.181-31.18c3.374,0,6.73,0.548,9.93,1.617c4.053,1.354,8.132,4.701,12.473,2.279
	c1.074-0.6,2.145-1.361,2.835-2.4c0.16-0.241,1.216-3.131,0.994-3.131c0.604-8.409,3.551-15.258,8.842-20.543l535-531.515
	c9.781-11.562,22.992-15.406,39.625-11.538c36.844,15.687,62.034,15.601,75.555-0.243l54.655-63.423
	c12.246-14.922,31.704-20.141,58.393-15.671l165.164,24.429c12.693,2.173,13.625,7.867,2.779,17.094l-50.779,40.398
	c-25.682,23.336-24.346,47.703,4,73.079l498.916,348.788c3.462,2.635,5.053,6.119,4.771,10.452L1454.324,513.785z"/>
</svg>
