<?xml version="1.0" encoding="utf-8"?>
<!-- Generator: Adobe Illustrator 16.0.0, SVG Export Plug-In . SVG Version: 6.00 Build 0)  -->
<!DOCTYPE svg PUBLIC "-//W3C//DTD SVG 1.1//EN" "http://www.w3.org/Graphics/SVG/1.1/DTD/svg11.dtd">
<svg version="1.1" id="Layer_1" xmlns="http://www.w3.org/2000/svg" xmlns:xlink="http://www.w3.org/1999/xlink" x="0px" y="0px"
	 width="1551.833px" height="486.484px" viewBox="0 0 1551.833 486.484" enable-background="new 0 0 1551.833 486.484"
	 xml:space="preserve">
<path fill="none" stroke="#000000" stroke-linejoin="round" stroke-miterlimit="10" d="M550.119,58.577
	C374.884,29.955,195.855,1.05,182.912,0.195c-35.374-2.325-67.227,16.457-95.254,39.44C72.204,52.308,48.353,71.807,70.836,86.038
	c220.093,139.306,451.53,267.534,565.386,382.882c11.631,11.789,30.124,29.211,39.489,6.512
	c23.63-57.303,30.51-56.543,16.901-71.496c-4.896-5.377-158.236-79.117-130.938-150.574c9.543-24.979,8.211-23.605-33.262-36.866
	c-45.287-14.462-7.426-28.942,24.533-27.79l19.177-0.474c0,0,9.594-11.797,10.085,3.981l168.104,159.353
	c5.65,5.336,14.736,3.572,14.736,3.572c53.172-27.896,282.79-128.696,345.768-156.033c6.16-2.674,22.938-14.136,24.469-22.084
	c3.412-17.682,6.834-2.695,6.834-2.695l357.506-0.071l52.207-68.987L550.119,58.577z"/>
</svg>
