<?xml version="1.0" encoding="utf-8"?>
<!-- Generator: Adobe Illustrator 16.0.0, SVG Export Plug-In . SVG Version: 6.00 Build 0)  -->
<!DOCTYPE svg PUBLIC "-//W3C//DTD SVG 1.1//EN" "http://www.w3.org/Graphics/SVG/1.1/DTD/svg11.dtd">
<svg version="1.1" id="Layer_1" xmlns="http://www.w3.org/2000/svg" xmlns:xlink="http://www.w3.org/1999/xlink" x="0px" y="0px"
	 width="611.087px" height="1049.7px" viewBox="0 0 611.087 1049.7" enable-background="new 0 0 611.087 1049.7"
	 xml:space="preserve">
<path fill="none" stroke="#020203" stroke-miterlimit="10" d="M606,979.158l-2.805-4.25
	c-21.561-32.658-59.356-89.936-60.249-100.691c-0.055-0.613-0.167-1.195-0.188-1.744c-0.059-1.617,2.129-21.445,3.193-32.168
	l0.415-4.178c1.109-8.096,1.698-15.777,1.832-23.086c0.399-22.703-4.251-45.295-8.845-67.572l-2.646-12.848l-2.55-12.811
	c-1.515-7.41-2.354-11.711-2.646-12.846l-5.016-20.729c-2.328-9.621-3.404-19.508-5.796-29.109
	c-0.182-0.717-5.244-22.055-15.104-63.98c-3.292-14.213-8.78-35.43-16.396-63.684c-5.32-19.732-10.206-39.586-14.169-59.643
	c-1.602-8.087-4.141-20.935-4.485-24.316l-1.086-10.561c-1.044-10.137-2.668-25.923-0.483-30.511l7.521-19.479
	c3.054-9.888,11.798-29.469,26.423-58.679c5.527-11.053,10.662-20.408,15.436-28c1.303-2.064-1.297-3.428-3.146-3.291
	c-5.604,0.418-11.172,1.239-16.783,1.562l-36.438,2.091c-4.519,0.259-13.155,0.213-13.548,0.827
	c-0.212,0.337-4.938,0.229-7.412,0.316l-5.479,0.201c-1.192,0.006-2.956-0.354-5.29-1.084c0.391-0.185,11.401-1.485,32.904-3.844
	c20.08-2.164,34.354-3.973,42.819-5.268c16.935-2.588,50.646-5.018,50.744-8.055c0.438-13.089-0.843-28.157-0.869-39.248
	c-0.062-27.435,0.454-50.826-0.412-77.21c-0.438-13.418-0.445-26.852-1.267-40.255c-0.168-2.754-1.836-5.598-0.559-8.258
	c1.482-3.091-3.461-12.38-6.841-11.102l-10.357,3.86c-3.443,1.309-13.861,4.878-31.322,10.9
	c-20.575,7.016-30.927,10.843-31.354,10.996c-18.668,6.647-35.742,13.015-56.47,19.199c-0.151,0.046-0.29,0.058-0.483,0.15
	l10.262-5.248l10.321-3.604c34.505-12.085,112.021-43.701,112.153-43.924c0.524-0.878,1.021-2.592,1.404-3.931
	c0.578-2.003-4.273-27.1-6.539-40.629c-1.692-10.146-11.229-19.541-19.263-27.449c-9.01-8.874-16.828-16.26-25.573-25.403
	c-0.794-0.83-13.979,5.369-20.189,7.93c-90.186,37.183-201.965,85.54-287.58,124.204c-16.25,7.338-24.252,12.301-37.469,20.553
	c-5.434,3.393-9.593,8.4-14.605,12.338c-10.658,8.371-31.437,28.854-78.092,81.899c-12.909,14.677-25.573,29.856-38.164,44.951
	c-5.124,6.144-14.723,17.429-15.321,18.471l-7.55,10.666l5.881,10.759c20.398,11.146,34.829,19.772,43.231,25.758l11.788,7.25
	c8.136,4.916,20.607,13.276,37.484,24.895c15.48,10.682,26.76,20.562,33.868,29.701l6.951,8.979l6.722,7.653l19.997,42.312
	c5.577,11.801,10.529,23.885,15.077,36.117c0.882,2.371,2.844,6.857,6.043,13.629c16.002,33.859,30.037,68.613,46.039,102.473
	l44.572,96c3.227,6.953,5.902,14.146,8.967,21.166c7.693,17.631,11.999,28.258,13.047,31.82c1.376,4.768,2.164,8.455,2.329,11.164
	c0.427,5.451,0.214,9.215-0.603,11.193c-1.53,3.67-9.914,11.375-25.213,22.98l-9.108,7.016c-1.998,1.504-4.442,4.25-7.398,8.271
	c-1.582,2.154,0.38,4.77,1.468,6.477c0.711,1.113,2.479,2.891,7.108,4.766c1.83,0.738,6.16,2.844,9.212,4.326
	c14.196,6.895,29.23,11.861,43.621,18.322c89.307,40.107,256.46,118.049,270.929,113.26c1.911-0.635,3.914,1.338,5.787,0.449
	c1.372-0.645,3.663,2.01,4.35-0.061C603.751,985.203,608.22,982.521,606,979.158z M456.888,781.256
	c-26.496,12.52-58.017,1.426-70.401-24.783c-12.388-26.209-0.944-57.607,25.552-70.129s58.017-1.426,70.398,24.783
	C494.822,737.336,483.384,768.732,456.888,781.256z"/>
</svg>
