<?xml version="1.0" encoding="utf-8"?>
<!-- Generator: Adobe Illustrator 16.0.0, SVG Export Plug-In . SVG Version: 6.00 Build 0)  -->
<!DOCTYPE svg PUBLIC "-//W3C//DTD SVG 1.1//EN" "http://www.w3.org/Graphics/SVG/1.1/DTD/svg11.dtd">
<svg version="1.1" id="Layer_1" xmlns="http://www.w3.org/2000/svg" xmlns:xlink="http://www.w3.org/1999/xlink" x="0px" y="0px"
	 width="911.775px" height="317.375px" viewBox="0 0 911.775 317.375" enable-background="new 0 0 911.775 317.375"
	 xml:space="preserve">
<path fill="none" stroke="#000000" stroke-linejoin="round" stroke-miterlimit="10" d="M863.562,92.043
	c0.771-19.781-0.479-33.538-3.343-37.146c-4.078-5.147-48.547-7.316-428.417-20.94C68.811,20.943,7.284,19.452,3.262,23.641
	c-6.591,6.888-2.552,38.291,6.39,49.663c3.948,4.998,26.66,22.909,50.475,39.777c74.325,52.625,115.398,97.271,150.891,164.051
	c12.025,22.63,17.222,28.688,28.643,33.521c7.675,3.246,22.529,6.259,33.031,6.688c18.856,0.763,186.822-12.231,291.001-22.514
	c29.508-2.914,85.32-8.41,124.01-12.199c38.707-3.791,73.428-8.312,77.172-10.017c19.959-9.12,50.016-52.442,82.9-119.454
	C860.717,126.806,862.499,119.904,863.562,92.043z"/>
</svg>
