<?xml version="1.0" encoding="utf-8"?>
<!-- Generator: Adobe Illustrator 16.0.0, SVG Export Plug-In . SVG Version: 6.00 Build 0)  -->
<!DOCTYPE svg PUBLIC "-//W3C//DTD SVG 1.1//EN" "http://www.w3.org/Graphics/SVG/1.1/DTD/svg11.dtd">
<svg version="1.1" id="Layer_1" xmlns="http://www.w3.org/2000/svg" xmlns:xlink="http://www.w3.org/1999/xlink" x="0px" y="0px"
	 width="911.775px" height="317.375px" viewBox="0 0 911.775 317.375" enable-background="new 0 0 911.775 317.375"
	 xml:space="preserve">
<path fill="none" stroke="#000000" stroke-linejoin="round" stroke-miterlimit="10" d="M869.56,60.354
	c3.43,1.298,7.147,2.008,11.033,2.008c17.221,0,31.182-13.96,31.182-31.181C911.774,13.96,897.813,0,880.594,0
	s-31.182,13.96-31.182,31.181c0,4.923,1.142,9.58,3.173,13.72c0.044,1.455,0.867,3.067-0.06,4.406
	c-1.252,1.808-4.028,1.646-5.905,2.244c-30.324-3.47-124.869-7.195-414.816-17.594C68.811,20.943,7.284,19.452,3.262,23.641
	c-6.592,6.888-2.553,38.291,6.39,49.663c3.948,4.998,26.66,22.909,50.475,39.777c74.325,52.625,115.398,97.271,150.892,164.051
	c12.024,22.63,17.222,28.688,28.643,33.521c7.675,3.246,22.529,6.26,33.031,6.688c18.855,0.763,186.822-12.231,291.001-22.514
	c29.508-2.914,85.32-8.41,124.01-12.199c38.707-3.791,73.429-8.312,77.173-10.017c19.959-9.12,50.016-52.442,82.899-119.456
	c12.941-26.351,14.724-33.253,15.787-61.114c0.396-10.173,0.259-18.753-0.359-25.179c0.316-1.87-0.262-4.261,1.438-5.625
	c1.325-1.064,3.34-0.884,4.923-0.884H869.56z"/>
</svg>
