<?xml version="1.0" encoding="utf-8"?>
<!-- Generator: Adobe Illustrator 16.0.0, SVG Export Plug-In . SVG Version: 6.00 Build 0)  -->
<!DOCTYPE svg PUBLIC "-//W3C//DTD SVG 1.1//EN" "http://www.w3.org/Graphics/SVG/1.1/DTD/svg11.dtd">
<svg version="1.1" id="Layer_1" xmlns="http://www.w3.org/2000/svg" xmlns:xlink="http://www.w3.org/1999/xlink" x="0px" y="0px"
	 width="1299.629px" height="541.838px" viewBox="0 0 1299.629 541.838" enable-background="new 0 0 1299.629 541.838"
	 xml:space="preserve">
<path d="M1143.729,491.291c3.043-1.211,6.027-2.713,8.621-4.938c2.143-1.828,3.916-4.215,5.186-6.93
	c1.354-3.006,2.144-6.34,2.619-9.676c0.648-4.379,0.849-8.793,0.986-13.205c0.197-5.854,0.197-11.67,0.254-17.521
	c0.057-5-0.084-9.971-0.254-14.973c-0.227-6.569-0.562-13.143-0.932-19.678c-0.984-16.836-2.255-33.64-3.636-50.408
	c-3.383-41.252-7.41-82.438-11.836-123.561c-2.197-20.301-4.479-40.6-6.901-60.867c-2.111-17.391-4.281-34.748-6.707-52.072
	c-1.72-12.454-3.521-24.875-5.804-37.199c-0.676-3.727-1.41-7.42-2.366-11.081c-0.281-1.112-0.619-2.256-1.015-3.334
	c-0.145-0.36-0.281-0.72-0.453-1.047c-0.108-0.228-0.252-0.489-0.42-0.653c-0.17-0.196-0.367-0.295-0.562-0.393
	c-0.312-0.195-0.621-0.326-0.935-0.426c-0.981-0.392-1.975-0.653-2.983-0.914c-3.408-0.85-6.816-1.472-10.258-2.062
	c-11.892-1.994-23.863-3.433-35.812-4.805c-39.533-4.544-79.15-7.879-118.771-10.919c-35.784-2.713-71.569-5.066-107.385-6.896
	c-55.731-2.877-111.521-4.969-167.287-7.158c-12.934-0.49-25.895-0.752-38.854-0.98c-18.568-0.328-37.139-0.557-55.707-0.752
	c-45.396-0.458-90.784-0.688-136.149-0.785c-42.149-0.065-84.305-0.033-126.432,0.327c-14.51,0.097-29.021,0.262-43.53,0.556
	c-4.648,0.098-9.324,0.229-14.005,0.424c-1.577,0.066-3.153,0.131-4.731,0.23c-1.017,0.064-2.06,0.13-3.07,0.229
	c-18.373,2.157-36.744,4.184-55.087,6.603c-10.003,1.308-20.034,2.616-29.896,5.099c-6.341,1.602-12.564,3.955-18.482,7.127
	c-7.103,3.792-13.919,8.336-20.822,12.617c-8.877,5.492-17.752,10.951-26.4,16.867c-5.86,4.021-11.608,8.27-16.904,13.207
	c-4.792,4.479-9.158,9.577-13.216,14.938c-5.326,7.094-10.285,14.578-15.244,22.064c-9.749,14.678-18.203,30.531-24.965,47.334
	c-7.47,18.534-12.904,38.113-16.99,58.021c-5.128,24.877-8.229,50.209-10.482,75.642c-2.931,33.31-4.396,66.75-5.323,100.188
	c-0.365,12.817-0.787,25.632-0.787,38.444c0,7.648,0.057,15.363,1.042,22.947c0.675,5.197,1.915,10.297,3.857,15.037
	c2.112,5.164,4.873,9.971,7.639,14.709c3.382,5.852,7.297,11.275,11.919,15.854c4.707,4.607,10.059,8.271,15.667,11.275
	c3.55,1.931,7.154,3.695,10.9,5.035c4.086,1.438,8.312,2.354,12.54,3.006c6.255,0.916,12.566,1.34,18.878,1.668
	c9.945,0.521,19.923,0.752,29.867,1.015c75.603,1.962,151.17,2.94,226.769,3.235c73.771,0.265,147.534-0.131,221.304-1.375
	c62.553-1.012,125.134-2.58,187.656-5.424c24.146-1.113,48.297-2.389,72.441-4.119c17.838-1.271,35.701-2.713,53.479-4.938
	c14.2-1.8,28.432-3.271,42.661-4.707c17.892-1.828,35.755-3.562,53.646-5.166c20.033-1.797,40.014-3.986,59.963-6.34
	c19.326-2.289,38.604-4.71,57.848-7.587c14.259-2.125,28.543-3.923,42.66-7.024C1135.136,494.101,1139.503,492.991,1143.729,491.291
	z M1186.069,1.563c-2.529,1.407-4.895,3.073-7.385,4.532c-8.982,5.215-17.75,11.11-24.865,18.675
	c-4.68,4.936-8.934,10.885-9.359,17.653c-0.096,1.315-0.018,2.624,0.033,3.941c0.097,2.432,0.236,4.825,0.388,7.247
	c0.479,7.603,1.071,15.182,1.666,22.763c1.817,22.363,3.868,44.708,6.059,67.027c6.43,65.971,12.887,131.939,19.313,197.913
	c2.531,25.769,5.013,51.547,7.373,77.317c0.773,8.238,1.521,16.453,2.212,24.707c0.202,2.41,0.405,4.82,0.584,7.236
	c0.053,0.711,0.104,1.422,0.153,2.158c0.013,0.348,0.054,0.713,0.031,1.062c-0.096,3.707,0.299,7.406,0.854,11.047
	c0.606,4.062,1.465,8.047,2.514,11.998c0.918,3.424,1.973,6.797,3.432,10.033c0.517,1.168,1.078,2.297,1.806,3.369
	c0.449,0.688,0.988,1.395,1.727,1.77c0.648,0.365,1.351,0.547,2.074,0.729c1.062,0.281,2.174,0.504,3.271,0.666
	c3.163,0.545,6.35,0.885,9.547,1.158c8.846,0.809,17.725,1.199,26.635,1.445c9.375,0.271,18.797,0.332,28.188,0.08
	c3.851-0.104,7.688-0.266,11.492-0.566c2.729-0.23,5.451-0.475,8.119-1.016c3.77-0.811,7.475-1.957,11.012-3.527
	c1.41-0.615,2.777-1.312,4.06-2.166c0.868-0.568,1.76-1.199,2.34-2.096c0.248-0.358,0.237-0.852,0.268-1.312
	c0.06-0.904-0.004-1.814-0.062-2.729c-0.215-3.354-0.703-6.668-1.201-10c-2.062-13.727-4.715-27.34-7.332-40.957
	c-12.146-62.826-25.455-125.396-38.633-188.026c-10.619-50.555-21.05-101.146-31.972-151.613
	c-3.229-14.826-6.479-29.646-10.012-44.389c-2.229-9.34-4.551-18.693-7.383-27.86c-1.578-5.058-3.168-10.169-5.84-14.757
	c-0.734-1.271-1.576-2.492-2.64-3.499c-0.768-0.689-1.649-1.238-2.646-1.451c-0.938-0.224-1.873-0.129-2.773,0.13
	C1188.039,0.549,1187.031,1.033,1186.069,1.563z"/>
</svg>
