<?xml version="1.0" encoding="utf-8"?>
<!-- Generator: Adobe Illustrator 16.0.0, SVG Export Plug-In . SVG Version: 6.00 Build 0)  -->
<!DOCTYPE svg PUBLIC "-//W3C//DTD SVG 1.1//EN" "http://www.w3.org/Graphics/SVG/1.1/DTD/svg11.dtd">
<svg version="1.1" id="Layer_1" xmlns="http://www.w3.org/2000/svg" xmlns:xlink="http://www.w3.org/1999/xlink" x="0px" y="0px"
	 width="1299.627px" height="603.035px" viewBox="0 0 1299.627 603.035" enable-background="new 0 0 1299.627 603.035"
	 xml:space="preserve">
<path fill="none" stroke="#000000" stroke-linejoin="round" stroke-miterlimit="10" d="M1151.462,548.272
	c0.301-0.232,0.597-0.474,0.888-0.724c2.145-1.829,3.916-4.215,5.188-6.93c1.352-3.006,2.141-6.34,2.619-9.676
	c0.646-4.379,0.846-8.793,0.984-13.205c0.197-5.854,0.197-11.67,0.256-17.521c0.057-5-0.084-9.97-0.256-14.972
	c-0.225-6.569-0.562-13.143-0.93-19.678c-0.986-16.836-2.254-33.639-3.635-50.408c-3.385-41.252-7.41-82.438-11.836-123.56
	c-2.197-20.301-4.48-40.6-6.902-60.867c-2.113-17.391-4.283-34.748-6.707-52.072c-1.719-12.454-3.521-24.875-5.803-37.199
	c-0.678-3.727-1.41-7.42-2.367-11.081c-0.283-1.112-0.621-2.256-1.014-3.334c-0.146-0.36-0.281-0.72-0.453-1.047
	c-0.111-0.228-0.252-0.489-0.42-0.653c-0.172-0.196-0.367-0.295-0.564-0.393c-0.311-0.195-0.621-0.326-0.932-0.426"/>
<path fill="none" stroke="#000000" stroke-linejoin="round" stroke-miterlimit="10" d="M1206.268,92.388
	c-1.019-3.809-2.095-7.6-3.256-11.36c-1.578-5.058-3.168-10.169-5.84-14.757c-0.734-1.271-1.576-2.492-2.637-3.499
	c-0.768-0.689-1.652-1.238-2.646-1.451c-0.938-0.224-1.873-0.129-2.771,0.13c-1.076,0.294-2.082,0.778-3.047,1.309
	c-2.529,1.407-4.896,3.073-7.387,4.532c-5.996,3.482-11.897,7.267-17.275,11.649"/>
<path fill="none" stroke="#000001" stroke-linejoin="round" stroke-miterlimit="10" d="M1144.494,107.561
	c0.094,2.432,0.236,4.825,0.385,7.247c0.482,7.603,1.074,15.182,1.666,22.763c1.82,22.363,3.869,44.708,6.059,67.027
	c6.432,65.971,12.889,131.939,19.314,197.912c2.533,25.769,5.012,51.547,7.373,77.318c0.775,8.238,1.521,16.453,2.211,24.707
	c0.203,2.41,0.408,4.82,0.584,7.236c0.053,0.711,0.104,1.422,0.156,2.158c0.01,0.348,0.051,0.713,0.031,1.062
	c-0.098,3.707,0.299,7.406,0.854,11.047c0.609,4.062,1.465,8.047,2.514,11.998c0.918,3.424,1.975,6.797,3.434,10.033
	c0.514,1.168,1.078,2.297,1.803,3.369c0.451,0.688,0.99,1.395,1.729,1.77c0.646,0.365,1.348,0.547,2.072,0.729"/>
</svg>
