<?xml version="1.0" encoding="utf-8"?>
<!-- Generator: Adobe Illustrator 16.0.0, SVG Export Plug-In . SVG Version: 6.00 Build 0)  -->
<!DOCTYPE svg PUBLIC "-//W3C//DTD SVG 1.1//EN" "http://www.w3.org/Graphics/SVG/1.1/DTD/svg11.dtd">
<svg version="1.1" id="Layer_1" xmlns="http://www.w3.org/2000/svg" xmlns:xlink="http://www.w3.org/1999/xlink" x="0px" y="0px"
	 width="1022.574px" height="622.4px" viewBox="0 0 1022.574 622.4" enable-background="new 0 0 1022.574 622.4"
	 xml:space="preserve">
<path fill="none" stroke="#000000" stroke-miterlimit="10" d="M937.374,387.371c21.017,0.944,39.616-14.779,37.366-23.028
	c0,0-17.49-190.562-20.184-204.882c-2.688-14.32-16.548-16.611-30.312-19.898c-13.765-3.288-166.73-33.564-261.369-53.402
	S250.72,0.674,250.72,0.674c-37.864-3.515-55.914,6.87-72.894,27.405C160.847,48.614,9.167,339.53,1.154,360.897
	c-8.013,21.364,27.868,48.123,41.006,47.332C55.298,407.438,916.356,386.425,937.374,387.371z M419.521,263.066
	c-26.886-2.495-159.521-10.865-170.114-10.342c-10.593,0.523-21.465,4.034-30.041,15.289c-8.576,11.255-41.559,74.474-46.731,81.525
	c-5.173,7.052-0.586,22.542,17.475,22.712c18.062,0.169,168.658,0.588,179.113,1.56c10.797,1.002,20.152,14.735,3.125,14.703
	c-16.565-0.029-276.665,6.981-291.738,7.09c-15.074,0.107-57.835-5.739-56.172-23.664c1.663-17.922,65.757-125.476,75.689-135.098
	c9.932-9.623,11.77-11.942,58.207-9.139c46.437,2.803,258.931,18.005,258.931,18.005
	C436.863,245.543,446.405,265.561,419.521,263.066z M473.637,92.77c0,0-97.338-6.222-124.236-8.518
	c-15.652-1.336-21.604,5.527-26.915,14.072c-5.312,8.546-41.832,63.554-50.13,71.821c-8.299,8.269-1.083,9.289,7.74,11.614
	c8.823,2.325,122.99,21.959,140.636,26.609c17.646,4.65,10.842,13.057-8.574,11.255c-19.417-1.803-211.8-22.669-241.671-25.441
	c-29.871-2.771-51.44-13.812-42.032-34.028c9.409-20.216,37.888-87.929,58.582-116.136c20.694-28.207,67.759-12.439,107.807-5.711
	c40.047,6.73,165.021,32.217,179.923,34.464C498.347,76.328,496.712,93.941,473.637,92.77z M1020.877,595.153
	c-4.414-11.346-20.748-70.938-26.677-95.403s-15.741-80.722-18.312-89.843c-2.566-9.122-1.45-13.803-10.319-13.941
	c-8.87-0.139-335.661,8.741-439.387,8.271c-136.524-0.619-419.098,24.113-419.098,24.113c-11.957,3.677-56.02,14.616-34.699,42.562
	c21.323,27.942,24.744,42.61,30.575,53.399c5.833,10.791,31.729,63.072,35.953,76.446c4.226,13.375,7.347,23.914,44.496,21.212
	c37.147-2.702,298.953-11.203,392.77-13.429c93.818-2.226,429.214-1.164,436.791-1.827
	C1020.548,606.055,1025.291,606.495,1020.877,595.153z"/>
</svg>
