<?xml version="1.0" encoding="utf-8"?>
<!-- Generator: Adobe Illustrator 16.0.0, SVG Export Plug-In . SVG Version: 6.00 Build 0)  -->
<!DOCTYPE svg PUBLIC "-//W3C//DTD SVG 1.1//EN" "http://www.w3.org/Graphics/SVG/1.1/DTD/svg11.dtd">
<svg version="1.1" id="Layer_1" xmlns="http://www.w3.org/2000/svg" xmlns:xlink="http://www.w3.org/1999/xlink" x="0px" y="0px"
	 width="590.064px" height="1772.32px" viewBox="0 0 590.064 1772.32" enable-background="new 0 0 590.064 1772.32"
	 xml:space="preserve">
<path d="M360.708,791.656c15.014,2.002,60.046,7.005,68.051-49.034s14.011-193.135,11.008-260.182
	c-3.003-67.047-10.009-342.24-15.013-392.275c-5.007-50.035-5.007-88.062-55.039-90.063C319.677-1.899,132.547,26.12,74.506,47.134
	c-58.041,21.015-57.041,35.023-63.045,97.067S2.457,553.49,1.456,610.529S-6.55,731.613,22.47,739.619
	c29.02,8.006,124.087,31.021,174.119,38.025C246.627,784.65,360.708,791.656,360.708,791.656z M25.513,1617.317
	c1.214,25.96,4.656,74.759,49.415,87.962c44.756,13.202,276.731,62.538,324.544,66.371c47.81,3.834,138.094-9.24,155.626-28.06
	c17.531-18.812,25.66-45.878,28.637-66.674c2.979-20.795,8.578-114.322,5.364-128.843c-3.214-14.521-9.221-134.979-12.448-151.577
	c-3.229-16.598-22.12-45.556-26.398-64.225c-4.281-18.671-86.054-437.781-89.303-457.496s-0.183-27.007-24.102-31
	c-23.918-3.994-356.526-33.955-356.526-33.955c-22.838,2.229-40.504,1.312-42.14,66.766c-1.64,65.453-6.036,337.642-8.536,429.068
	C27.146,1397.087,24.299,1591.355,25.513,1617.317z M105.26,1581.444c8.031-0.058,14.588,6.411,14.643,14.441
	c0.054,8.031-6.413,14.586-14.444,14.643c-8.03,0.054-14.585-6.413-14.64-14.444S97.229,1581.498,105.26,1581.444z"/>
</svg>
