<?xml version="1.0" encoding="utf-8"?>
<!-- Generator: Adobe Illustrator 16.0.0, SVG Export Plug-In . SVG Version: 6.00 Build 0)  -->
<!DOCTYPE svg PUBLIC "-//W3C//DTD SVG 1.1//EN" "http://www.w3.org/Graphics/SVG/1.1/DTD/svg11.dtd">
<svg version="1.1" id="Layer_1" xmlns="http://www.w3.org/2000/svg" xmlns:xlink="http://www.w3.org/1999/xlink" x="0px" y="0px"
	 width="564.84px" height="1764.232px" viewBox="0 0 564.84 1764.232" enable-background="new 0 0 564.84 1764.232"
	 xml:space="preserve">
<path fill="none" stroke="#000001" stroke-linejoin="round" stroke-miterlimit="10" d="M484.702,1573.357
	c8.031,0,14.542,6.51,14.542,14.542c0,8.03-6.511,14.542-14.542,14.542c-8.03,0-14.542-6.512-14.542-14.542
	C470.16,1579.867,476.672,1573.357,484.702,1573.357z M115.821,837.139c7.725,4.032,14.29,11.403,14.572,20.479
	c-0.354,2.688-0.725,5.704-1.28,9.079c-3.249,19.715-85.019,438.821-89.3,457.493c-4.277,18.668-23.173,47.627-26.397,64.229
	c-3.229,16.598-9.233,137.055-12.448,151.576c-3.214,14.521,2.39,108.049,5.364,128.844c2.978,20.795,11.104,47.857,28.637,66.674
	c17.533,18.817,107.812,31.896,155.626,28.062c47.811-3.834,279.789-53.172,324.544-66.371
	c44.756-13.203,48.201-62.002,49.416-87.963c1.213-25.965-1.633-220.231-4.133-311.659c-2.5-91.429-6.9-363.615-8.537-429.069
	c-0.81-32.229-5.498-48.365-12.78-56.711l-0.003,0.005c-11.997-15.477-17.738-60.772,0-74.425l0.003,0.002
	c22.938-14.029,16.75-73.501,15.812-126.844c-1.003-57.039-4.003-404.283-10.007-466.327s-5.004-76.052-63.045-97.067
	C423.823,26.12,236.694-1.899,186.659,0.102c-50.035,2.001-50.035,40.028-55.039,90.063S119.61,415.393,116.607,482.44
	c-3.003,67.047,3.003,204.143,11.012,260.182c1.255,8.787,3.421,16.073,6.234,22.104v-0.001c1.392,6.996-4.727,12.317-10.747,14.354
	l-0.001-0.007c-13.816,3.199-24.121,15.586-24.121,30.378c0,12.045,6.831,22.497,16.829,27.688L115.821,837.139L115.821,837.139z"/>
</svg>
