<?xml version="1.0" encoding="utf-8"?>
<!-- Generator: Adobe Illustrator 16.0.0, SVG Export Plug-In . SVG Version: 6.00 Build 0)  -->
<!DOCTYPE svg PUBLIC "-//W3C//DTD SVG 1.1//EN" "http://www.w3.org/Graphics/SVG/1.1/DTD/svg11.dtd">
<svg version="1.1" id="Layer_1" xmlns="http://www.w3.org/2000/svg" xmlns:xlink="http://www.w3.org/1999/xlink" x="0px" y="0px"
	 width="1868.902px" height="523.286px" viewBox="0 0 1868.902 523.286" enable-background="new 0 0 1868.902 523.286"
	 xml:space="preserve">
<path fill="none" stroke="#000000" stroke-miterlimit="10" d="M591.1,9.738c-1.087-5.392-6.477-9.775-11.976-9.738L27.543,3.541
	c-5.5,0.036-11.17,4.41-12.601,9.722c0,0-21.22,78.851-13.084,192.087C9.99,318.586,43.22,403.616,43.22,403.616
	c2.004,5.123,8.122,9.734,13.598,10.254l617.679,58.295c5.476,0.518,9.067-3.471,7.979-8.861L591.1,9.738z M142.96,373.706
	c-25.546,3.729-49.276-13.955-53.005-39.502c-3.731-25.545,13.955-49.272,39.5-53.004c25.544-3.73,49.276,13.952,53.005,39.5
	C186.189,346.245,168.505,369.975,142.96,373.706z M1862.963,415.153c-20.986-47.464-155.289-385.522-155.289-385.522
	s-0.537-11.899-26.619-13.82c-26.082-1.92-554.297-11.647-647.125-12.932c-92.828-1.286-286.542,7.956-304.748,11.403
	c-18.208,3.447-42.007,4.524-42.896,26.982c-0.895,22.458,3.439,307.97,11.276,349.352c7.834,41.381,18.755,71.891,43.183,74.123
	c24.426,2.232,325.686,8.637,421.199,5.982c95.514-2.652,607.574,3.273,645.559,4.654
	C1845.479,476.758,1883.951,462.618,1862.963,415.153z"/>
</svg>
