<?xml version="1.0" encoding="utf-8"?>
<!-- Generator: Adobe Illustrator 16.0.0, SVG Export Plug-In . SVG Version: 6.00 Build 0)  -->
<!DOCTYPE svg PUBLIC "-//W3C//DTD SVG 1.1//EN" "http://www.w3.org/Graphics/SVG/1.1/DTD/svg11.dtd">
<svg version="1.1" id="Layer_1" xmlns="http://www.w3.org/2000/svg" xmlns:xlink="http://www.w3.org/1999/xlink" x="0px" y="0px"
	 width="610.479px" height="1151.295px" viewBox="0 0 610.479 1151.295" enable-background="new 0 0 610.479 1151.295"
	 xml:space="preserve">
<path d="M596.871,447.844c-24.597-12.134-50.802-19.983-78.105-22.538c-14.467-1.352-28.966,2.1-43.236-1.639
	c-28.25-7.396-83.126-33.578-66.771-71.79c7.035-16.438,11.972-34.556,17.62-51.615c5.902-17.833,11.57-35.755,17.438-53.604
	c18.373-55.925,38.354-112.585,49.771-170.425c3.315-16.81,4.354-26.793-3.766-42.104c-4.758-8.971-9.989-17.68-15.653-26.099
	c-10.576-12.336-19.758-8.821-29.428-0.438c-9.66,8.375-109.432,84.009-136.442,99.032c-27.009,15.021-60.994,21.008-69.944,22.094
	c-8.945,1.085-13.42,1.625-32.896,14.932C185.972,156.957,23.346,242.609,6.774,251.29c-16.567,8.685,2.472,24.797,2.472,24.797
	s65.562,67.349,113.234,136.866c47.671,69.513,35.067,97.738,32.461,109.27c-2.605,11.524-17.851,26.727-16.617,39.125
	c1.232,12.4-9.337,244.606-5.761,263.155c4.237,21.98,10.781,44.392,23.432,63.109c15.276,22.611,42.234,32.178,65.087,44.971
	c18.688,10.465,37.208,21.217,55.865,31.729c43.436,24.468,87.688,48.634,129.851,75.222c20.277,12.789,41.177,24.539,57.989,41.939
	c15.24,15.771,28.954,33.062,43.651,49.339c5.296,5.864,10.586,12.573,17.09,17.188c12.852,9.125,17.021,1.674,6.673-52.867
	c-23.489-125.578-3.672-446.77,2.182-526.237c5.854-79.479,53.522-104.738,66.156-108.406
	C613.179,456.815,615.614,457.055,596.871,447.844z M156.558,299.125c-20.059,7.529-42.428-2.624-49.957-22.69
	c-7.528-20.053,2.629-42.426,22.691-49.958c20.057-7.524,42.421,2.637,49.951,22.688
	C186.774,269.232,176.618,291.595,156.558,299.125z"/>
</svg>
