<?xml version="1.0" encoding="utf-8"?>
<!-- Generator: Adobe Illustrator 16.0.0, SVG Export Plug-In . SVG Version: 6.00 Build 0)  -->
<!DOCTYPE svg PUBLIC "-//W3C//DTD SVG 1.1//EN" "http://www.w3.org/Graphics/SVG/1.1/DTD/svg11.dtd">
<svg version="1.1" id="Layer_1" xmlns="http://www.w3.org/2000/svg" xmlns:xlink="http://www.w3.org/1999/xlink" x="0px" y="0px"
	 width="610.479px" height="1208.464px" viewBox="0 0 610.479 1208.464" enable-background="new 0 0 610.479 1208.464"
	 xml:space="preserve">
<path fill="none" stroke="#000000" stroke-linejoin="round" stroke-miterlimit="10" d="M156.558,299.125
	c-20.059,7.529-42.428-2.624-49.957-22.69c-7.528-20.053,2.629-42.426,22.691-49.958c20.057-7.524,42.421,2.637,49.951,22.688
	C186.774,269.232,176.617,291.595,156.558,299.125z M518.34,1141.755c-3.479-3.521-6.688-7.389-9.9-10.945
	c-14.697-16.275-28.411-33.566-43.651-49.338c-16.814-17.4-37.712-29.15-57.991-41.939c-42.161-26.588-86.415-50.754-129.849-75.223
	c-18.66-10.512-37.181-21.264-55.868-31.729c-22.851-12.793-49.809-22.357-65.087-44.971c-12.648-18.721-19.192-41.131-23.43-63.109
	c-3.576-18.549,6.992-250.753,5.761-263.155c-1.233-12.398,14.01-27.601,16.617-39.125c2.606-11.53,15.21-39.757-32.461-109.27
	C74.806,343.436,9.243,276.087,9.243,276.087s-19.039-16.112-2.47-24.797c16.571-8.681,179.197-94.333,198.684-107.64
	c19.478-13.307,23.951-13.847,32.897-14.932c8.95-1.086,42.935-7.073,69.944-22.094c27.012-15.023,126.785-90.657,136.444-99.032
	c9.67-8.383,18.85-11.898,29.426,0.438c5.667,8.419,10.897,17.128,15.655,26.099c8.119,15.311,7.081,25.294,3.764,42.104
	c-11.417,57.84-31.397,114.5-49.771,170.425c-5.865,17.849-11.533,35.771-17.438,53.604c-5.646,17.059-10.585,35.177-17.62,51.615
	c-16.354,38.212,38.521,64.395,66.771,71.79c14.27,3.737,28.769,0.287,43.234,1.639c27.307,2.555,53.512,10.404,78.108,22.538
	c18.739,9.211,16.305,8.972,3.666,12.646c-12.635,3.668-60.303,28.929-66.159,108.406c-5.852,79.466-25.671,400.658-2.18,526.236
	c2.826,14.896,4.569,26.277,5.35,34.771c0.135,0.484,0.271,0.973,0.405,1.459c1.37,4.902,1.518,14.736,8.479,15.234
	c1.805-0.324,3.664-0.496,5.562-0.496c17.223,0,31.183,13.963,31.183,31.184s-13.96,31.182-31.183,31.182
	c-17.222,0-31.182-13.961-31.182-31.182c0-7.055,2.343-13.562,6.292-18.785c0.493-2.482,0.754-4.797-0.562-7.064
	c-1.717-2.957-4.596-5.475-6.809-8.076c-0.46-0.541-0.951-1.057-1.401-1.604H518.34z"/>
</svg>
