<?xml version="1.0" encoding="utf-8"?>
<!-- Generator: Adobe Illustrator 16.0.0, SVG Export Plug-In . SVG Version: 6.00 Build 0)  -->
<!DOCTYPE svg PUBLIC "-//W3C//DTD SVG 1.1//EN" "http://www.w3.org/Graphics/SVG/1.1/DTD/svg11.dtd">
<svg version="1.1" id="Layer_1" xmlns="http://www.w3.org/2000/svg" xmlns:xlink="http://www.w3.org/1999/xlink" x="0px" y="0px"
	 width="1771.625px" height="891.826px" viewBox="0 0 1771.625 891.826" enable-background="new 0 0 1771.625 891.826"
	 xml:space="preserve">
<path fill="none" stroke="#000000" stroke-linejoin="round" stroke-miterlimit="10" d="M1759.224,602.356
	c-20.338-16.375-196.149-100.34-277.329-134.662c-81.179-34.325-448.55-165.235-744.709-110.634
	c-346.96,56.364-717.927,273.9-717.927,273.9C3.202,644.444-5.709,653.48,4.082,659.645c9.792,6.163,181.08,91.842,290.55,142.047
	c23.41,8.569,49.363-9.355,66.129-18.281c16.767-8.926,85.45-55.23,437.322-72.883c351.872-17.654,498.063-8.586,704.504,38.979
	c39.295,11.769,53.654,15.707,67.375,8.269c13.719-7.445,150.025-82.64,177.238-103.365
	C1774.414,633.681,1779.566,618.731,1759.224,602.356z M1483.996,313.323c-12.055,0.438-452.434,11.35-592.047,13.707
	c-139.609,2.359-428.848,14.961-700.07,194.922c-17.05,13.188-23.14,17.268-22.488,5.063c0.647-12.198,1.549-31.045,1.549-31.045
	s118.475-116.438,134.439-129.489c11.238-6.941,13.404-7.215,23.161-8.457c9.755-1.247,21.414,0.94,21.414,0.94
	s3.436,1.03,5.587-5.119c2.162-6.145,2.162-6.145,2.162-6.145s2.52-3.261-4.447-6.044c-6.961-2.785-13.759-10.002-13.759-10.002
	s-5.609-3.691-5.584-12.139c0.029-8.447,6.018-94.045-3.17-120.049c-5.545-14.714-4.915-15.532-2.76-21.683
	c2.148-6.147,17.108-27.148,28.647-34.497c11.559-7.347,24.64-14.152,24.64-14.152L638.535,24.083
	c3.83,12.733,21.993,51.497,45.74,64.998c23.755,13.5,97.785,23.905,229.793,13.7c132-10.203,342.719-94.326,357.348-100.594
	c14.623-6.271,20.201,2.937,20.201,2.937s150.744,180.198,192.188,280.686C1489.652,297.176,1496.064,312.888,1483.996,313.323z
	 M1294.753,67.815c-15.562,1.981-26.578,16.208-24.602,31.775c1.985,15.567,16.215,26.578,31.784,24.596
	c15.562-1.981,26.572-16.208,24.593-31.779C1324.548,76.843,1310.322,65.828,1294.753,67.815z M598.482,875.429
	c0,0,290.395-28.43,558.963,11.896c40.682,3.346,17.363,14.85,88.205-20.107c70.846-34.955,130.405-49.848,198.828-49.037
	c25.936,0.584,41.25-20.354,37.27-28.428c-3.984-8.063-25.875-11.764-72.344-20.057c-46.469-8.297-180.953-32.261-394.299-28.467
	c-132.821-0.259-31.318,2.067-192.79,7.028c-161.477,4.961-145.818,5.043-161.477,4.961c-15.648-0.082-19.643-5.916-35.02,26.203
	c-15.375,32.121-27.226,56.922-36.634,77.174C579.781,876.854,579.242,877.075,598.482,875.429z"/>
</svg>
