<?xml version="1.0" encoding="utf-8"?>
<!-- Generator: Adobe Illustrator 16.0.0, SVG Export Plug-In . SVG Version: 6.00 Build 0)  -->
<!DOCTYPE svg PUBLIC "-//W3C//DTD SVG 1.1//EN" "http://www.w3.org/Graphics/SVG/1.1/DTD/svg11.dtd">
<svg version="1.1" id="Layer_1" xmlns="http://www.w3.org/2000/svg" xmlns:xlink="http://www.w3.org/1999/xlink" x="0px" y="0px"
	 width="1687.75px" height="1069.877px" viewBox="0 0 1687.75 1069.877" enable-background="new 0 0 1687.75 1069.877"
	 xml:space="preserve">
<path d="M1659.618,812.457c-64.938,4.433-800.335,10.43-843.512,8.445c-43.173-1.994-49.792-22.653-47.61-34.862
	c2.181-12.213-4.082-15.623,20.068-35.363c24.153-19.75,378.618-285.154,399.556-299.737c20.938-14.593,31.286-27.635,6.35-35.526
	c-96.614-29.867-331.679-79.917-339.849-79.086c-8.165,0.827-16.137,0.552-18.269-6.7C803.091,99.145,710.881,25.381,691.774,10.507
	c-19.104-14.872-28.064-9.6-28.064-9.6s-45.668,10.551-101.951,25.369c-20.068,5.282-39.174-6.947-62.868-14.585
	c-23.688-7.637-38.72-11.238-64.478-0.864c-25.76,10.374-140.592,72.98-153.577,86.226c-12.995,13.248-31.514,35.921-18.08,67.648
	c13.436,31.726,99.396,120.463,116.5,144.661c17.104,24.193,0.613,48.557,0.613,48.557c-25.25,47.489-68.534,115.644-96.923,158.021
	C243.879,574.258,33.49,853.97,15.407,878.232c-18.088,24.262-23.282,40.515,1.139,44.886
	c24.425,4.36,208.942,16.729,330.186,17.785c121.247,1.054,536.516,4.27,595.713-0.044c59.194-4.313,284.758-29.285,308.547-34.196
	c23.785-4.913,21.21,9.521,0.944,13.917c-20.25,4.396-237.332,33.184-264.457,37.495c-27.119,4.312-15.866,24.655-13.725,31.918
	c2.146,7.254,7.924,19.744,19.543,25.26c11.619,5.513,79.084,38.194,88.483,43.312c9.392,5.116,21.917,11.934,43.808,11.269
	c72.204-6.566,312.635-50.651,354.745-68.325c42.105-17.675,189.152-160.934,201.521-172.464
	C1694.234,817.496,1687.257,811.674,1659.618,812.457z"/>
</svg>
