<?xml version="1.0" encoding="utf-8"?>
<!-- Generator: Adobe Illustrator 16.0.0, SVG Export Plug-In . SVG Version: 6.00 Build 0)  -->
<!DOCTYPE svg PUBLIC "-//W3C//DTD SVG 1.1//EN" "http://www.w3.org/Graphics/SVG/1.1/DTD/svg11.dtd">
<svg version="1.1" id="Layer_1" xmlns="http://www.w3.org/2000/svg" xmlns:xlink="http://www.w3.org/1999/xlink" x="0px" y="0px"
	 width="1687.75px" height="1069.877px" viewBox="0 0 1687.75 1069.877" enable-background="new 0 0 1687.75 1069.877"
	 xml:space="preserve">
<path fill="none" stroke="#1D1D1B" stroke-miterlimit="10" d="M1678.052,813.342c11.598,2.056,12.703,7.399,3.803,15.702
	c-12.369,11.53-159.416,154.789-201.521,172.464c-42.11,17.674-282.541,61.759-354.745,68.325
	c-21.891,0.665-34.416-6.152-43.808-11.269c-9.399-5.117-76.864-37.799-88.483-43.312c0,0-160.942-71.694-302.924-72.295
	c-132.625-0.331-279.401-1.496-343.641-2.055c-121.243-1.057-305.761-13.425-330.186-17.785
	c-24.421-4.371-19.227-20.624-1.139-44.886C33.49,853.97,243.879,574.258,282.946,515.94
	c28.389-42.378,71.673-110.532,96.923-158.021c0,0,16.491-24.364-0.613-48.557c-17.104-24.198-103.064-112.935-116.5-144.661
	c-13.434-31.727,5.085-54.4,18.08-67.648c12.985-13.246,127.817-75.852,153.577-86.226c25.758-10.374,40.79-6.773,64.478,0.864
	c23.694,7.638,42.8,19.867,62.868,14.585C618.041,11.458,663.709,0.907,663.709,0.907s8.961-5.272,28.064,9.6
	c19.107,14.874,111.317,88.638,144.579,319.12c2.132,7.252,10.104,7.527,18.269,6.7c8.17-0.831,243.234,49.219,339.849,79.086
	c12.694,4.018,16.245,9.37,13.909,15.581c20.007,92.331,422.022,376.92,469.676,382.349L1678.052,813.342z"/>
</svg>
