<?xml version="1.0" encoding="utf-8"?>
<!-- Generator: Adobe Illustrator 16.0.0, SVG Export Plug-In . SVG Version: 6.00 Build 0)  -->
<!DOCTYPE svg PUBLIC "-//W3C//DTD SVG 1.1//EN" "http://www.w3.org/Graphics/SVG/1.1/DTD/svg11.dtd">
<svg version="1.1" id="Layer_1" xmlns="http://www.w3.org/2000/svg" xmlns:xlink="http://www.w3.org/1999/xlink" x="0px" y="0px"
	 width="646.43px" height="365.979px" viewBox="0 0 646.43 365.979" enable-background="new 0 0 646.43 365.979"
	 xml:space="preserve">
<path fill="none" stroke="#000000" stroke-linejoin="round" stroke-miterlimit="10" d="M33.209,62.338
	c0.777,0.049,1.509,0.247,2.156,0.881c0.483,0.473,0.856,1.088,1.096,1.718c0.131,0.346,0.64,1.844,0.385,2.159
	c-5.008,6.196-9.463,14.923-12.621,27.13c-13.402,51.842,29.272,78.336,29.272,78.336S254.53,333.528,318.995,365.565l14.436-14.438
	l14.859,14.854c63.541-31.06,266.283-193.533,266.283-193.533s42.666-26.511,29.242-78.348
	c-14.023-54.106-53.504-39.822-53.504-39.822l-96.693,52.979c-2.582,1.736-5.334,3.215-8.194,4.492L371.167,174.35
	c0,0-14.75,7.295-37.137,7.842c-22.386-0.536-37.137-7.825-37.137-7.825L77.714,54.381c0,0-7.191-2.598-16.523-1.37
	c0.009,0.027-1.589-0.331-1.744-0.406c-3.685-1.796-1.291-5.586-0.04-8.157c1.249-2.568,2.096-5.383,2.55-8.198
	c0.271-1.674,0.406-3.372,0.406-5.067C62.362,13.96,48.402,0,31.181,0C13.96,0,0,13.96,0,31.181s13.96,31.181,31.182,31.181
	C31.874,62.362,32.558,62.297,33.209,62.338z"/>
</svg>
