<?xml version="1.0" encoding="utf-8"?>
<!-- Generator: Adobe Illustrator 16.0.0, SVG Export Plug-In . SVG Version: 6.00 Build 0)  -->
<!DOCTYPE svg PUBLIC "-//W3C//DTD SVG 1.1//EN" "http://www.w3.org/Graphics/SVG/1.1/DTD/svg11.dtd">
<svg version="1.1" id="Layer_1" xmlns="http://www.w3.org/2000/svg" xmlns:xlink="http://www.w3.org/1999/xlink" x="0px" y="0px"
	 width="714.383px" height="864.665px" viewBox="0 0 714.383 864.665" enable-background="new 0 0 714.383 864.665"
	 xml:space="preserve">
<path fill="none" stroke="#000000" stroke-linejoin="round" stroke-miterlimit="10" d="M664.553,65.243
	c-0.197-13.202-5.028-15.754-24.576-16.184c-19.545-0.427-388.824,8.573-412.322,10.011c-23.491,1.442-33.786,2.681-40.736,51.903
	C175.028,251.988,96.641,482.469,94.554,488.29c-2.083,5.82,2.283,7.381,2.283,7.381s81.051-17.77,94.774-19.424
	c13.723-1.656,10.6,7.078,4.205,8.891c-6.395,1.816-88.956,21.52-96.337,23.791c-7.385,2.281-8.783-0.68-13.368,7.531
	c-4.577,8.213-80.948,324.775-85.165,338.859c-4.22,14.084,6.646,8.943,13.563,5.674c6.916-3.27,16.274-6.486,28.453-26.75
	c0,0,195.309-256.764,291.604-367.566c96.296-110.809,289.521-295.261,303.466-306.688c13.938-11.427,22.988-22.96,23.729-34.19
	C662.497,114.57,664.754,78.447,664.553,65.243z"/>
</svg>
