<?xml version="1.0" encoding="utf-8"?>
<!-- Generator: Adobe Illustrator 16.0.0, SVG Export Plug-In . SVG Version: 6.00 Build 0)  -->
<!DOCTYPE svg PUBLIC "-//W3C//DTD SVG 1.1//EN" "http://www.w3.org/Graphics/SVG/1.1/DTD/svg11.dtd">
<svg version="1.1" id="Layer_1" xmlns="http://www.w3.org/2000/svg" xmlns:xlink="http://www.w3.org/1999/xlink" x="0px" y="0px"
	 width="611.812px" height="287.207px" viewBox="0 0 611.812 287.207" enable-background="new 0 0 611.812 287.207"
	 xml:space="preserve">
<path fill="none" stroke="#000000" stroke-linejoin="round" stroke-miterlimit="10" d="M40.728,60.873
	c-3.009,0.967-6.217,1.489-9.547,1.489C13.96,62.362,0,48.402,0,31.181C0,13.96,13.96,0,31.181,0
	c17.221,0,31.181,13.96,31.181,31.181c0,5.598-1.475,10.851-4.057,15.392c0,4.34,1.961,7.852,4.386,7.853
	c26.061,5.468,529.72,111.147,540.193,114.012c10.752,2.94,8.787,11.584,8.787,11.584s-20.289,96.824-21.729,102.949
	c-1.438,6.127-12.312,3.803-12.312,3.803S46.929,175.33,35.507,172.355c-11.422-2.978-9.545-11.301-9.545-11.301
	s14.2-67.623,19.412-92.12C45.374,64.479,43.295,60.872,40.728,60.873z"/>
</svg>
