<?xml version="1.0" encoding="utf-8"?>
<!-- Generator: Adobe Illustrator 16.0.0, SVG Export Plug-In . SVG Version: 6.00 Build 0)  -->
<!DOCTYPE svg PUBLIC "-//W3C//DTD SVG 1.1//EN" "http://www.w3.org/Graphics/SVG/1.1/DTD/svg11.dtd">
<svg version="1.1" id="Layer_1" xmlns="http://www.w3.org/2000/svg" xmlns:xlink="http://www.w3.org/1999/xlink" x="0px" y="0px"
	 width="984.148px" height="514.238px" viewBox="0 0 984.148 514.238" enable-background="new 0 0 984.148 514.238"
	 xml:space="preserve">
<path fill="none" stroke="#000000" stroke-linejoin="round" stroke-miterlimit="10" d="M930.81,98.154
	c0-2.667,2.869-4.827,6.414-4.827l0.004,0.002c4.62,2.707,9.998,4.258,15.739,4.258c17.221,0,31.182-13.96,31.182-31.181
	c0-17.221-13.961-31.181-31.182-31.181c-17.222,0-31.183,13.96-31.183,31.181c0,3.195,0.48,6.277,1.373,9.18l-0.002-0.008
	c0,1.259-1.098,2.278-2.455,2.278l0.002,0.001c-7.886-5.772-21.382-10.499-43.834-12.25C801.596,59.742,61.028,1.973,29.748,0.119
	C-1.536-1.735,0.013,18.75,0.013,18.75s50.212,428.4,54.351,455.685c4.142,27.287,49.57,31.99,49.57,31.99
	s646.443,97.396,822.822-395.624c-0.001,0,3.525-5.465,4.052-12.624L930.81,98.154z"/>
</svg>
