<?xml version="1.0" encoding="utf-8"?>
<!-- Generator: Adobe Illustrator 16.0.0, SVG Export Plug-In . SVG Version: 6.00 Build 0)  -->
<!DOCTYPE svg PUBLIC "-//W3C//DTD SVG 1.1//EN" "http://www.w3.org/Graphics/SVG/1.1/DTD/svg11.dtd">
<svg version="1.1" id="Layer_1" xmlns="http://www.w3.org/2000/svg" xmlns:xlink="http://www.w3.org/1999/xlink" x="0px" y="0px"
	 width="693.023px" height="880.809px" viewBox="0 0 693.023 880.809" enable-background="new 0 0 693.023 880.809"
	 xml:space="preserve">
<path fill="none" stroke="#020203" stroke-linejoin="round" stroke-miterlimit="10" d="M692.42,0.5
	c0.072,0.36,0.146,1.296,0.072,2.88c-0.072,0.576-2.021,19.133-11.355,53.367c-11.936,43.765-29.658,116.816-39.787,153.177
	c-43.764,157.156-86.217,312.156-145.777,461.068c-13.873,34.688-23.062,78.611-44.396,109.279
	c-14.145,20.336-33.6,30.604-56.979,40.523c-16.631,7.057-33.119,9.504-58.895,9.572c-20.376,0-43.848-2.732-60.911-11.156
	c-19.179-9.471-35.625-23.467-49.32-39.814c-16.704-19.943-35.064-70.562-48.456-107.568
	C121.32,519.032,86.334,361.112,49.1,202.172c-8.228-35.12-18.216-69.768-26.352-104.832c-3.456-14.832-6.912-28.728-10.368-42.048
	C8.996,42.765,5.036,25.196,0.5,2.444C15.764,1.94,8.708,1.292,13.028,1.292c1.728,0,89.28,6.912,116.928,7.776
	c36,1.08,97.056,6.696,183.672,6.048c67.177-0.576,55.44,0,108.288,0c18.215,0,93.311-3.815,139.969-6.336
	c74.592-4.104,114.553-6.479,119.734-6.984l0,0L692.42,0.5L692.42,0.5"/>
</svg>
