<?xml version="1.0" encoding="utf-8"?>
<!-- Generator: Adobe Illustrator 16.0.0, SVG Export Plug-In . SVG Version: 6.00 Build 0)  -->
<!DOCTYPE svg PUBLIC "-//W3C//DTD SVG 1.1//EN" "http://www.w3.org/Graphics/SVG/1.1/DTD/svg11.dtd">
<svg version="1.1" id="Layer_1" xmlns="http://www.w3.org/2000/svg" xmlns:xlink="http://www.w3.org/1999/xlink" x="0px" y="0px"
	 width="583.053px" height="850.125px" viewBox="0 0 583.053 850.125" enable-background="new 0 0 583.053 850.125"
	 xml:space="preserve">
<path fill="none" stroke="#000001" stroke-linejoin="round" stroke-miterlimit="10" d="M514.618,789.256
	c0.643,3.116,5.714,6.032,8.488,6.591c4.853,0.978,8.858-2.229,12.818-4.49c4.692-2.68,10.043-4.093,15.447-4.093
	c17.221,0,31.181,13.961,31.181,31.182s-13.96,31.181-31.181,31.181c-5.158,0-10.276-1.286-14.815-3.738
	c-5.574-3.011-9.863-8.473-14.644-12.575c-6.069-3.853-12.083-7.794-17.854-12.177c-11.159-8.496-40.637-29.479-88.389-62.832
	c-18.589-12.937-38.942-27.933-61.299-45.062c-34.394-26.355-68.076-53.654-102.62-79.742c-9.344-7.055-28.983-22.996-59.159-47.6
	c-17.114-14.103-30.516-26.386-40.028-36.75c-13.498-14.799-20.736-22.883-21.782-24.236c-4.42-5.727-8.033-12.049-12.403-17.863
	c-11.156-14.701-17.518-23.396-19.136-26.012c-4.387-7.231-28.577-55.6-42.226-101.502c-6.321-21.261-14.564-53.27-24.571-95.995
	c-5.014-21.398-9.977-42.884-11.494-64.874c-1.807-26.017-7.579-76.934-17.264-152.839C0.9,44.115-3.603,8.608,8.422,1.03
	c8.844-5.579,127.344,34.296,190.057,54.469c69.105,22.219,201.581,64.286,204.15,75.751c1.313,5.837,2.794,20.142,4.773,42.976
	c3.415,38.87,8.975,92.535,16.887,160.937c11.535,99.372,29.875,202.018,55.129,308.057c10.865,45.556,21.884,91.14,33.094,136.595
	C513.192,782.576,513.905,785.796,514.618,789.256z"/>
</svg>
