<?xml version="1.0" encoding="utf-8"?>
<!-- Generator: Adobe Illustrator 16.0.0, SVG Export Plug-In . SVG Version: 6.00 Build 0)  -->
<!DOCTYPE svg PUBLIC "-//W3C//DTD SVG 1.1//EN" "http://www.w3.org/Graphics/SVG/1.1/DTD/svg11.dtd">
<svg version="1.1" id="Layer_1" xmlns="http://www.w3.org/2000/svg" xmlns:xlink="http://www.w3.org/1999/xlink" x="0px" y="0px"
	 width="1029.689px" height="458.04px" viewBox="0 0 1029.689 458.04" enable-background="new 0 0 1029.689 458.04"
	 xml:space="preserve">
<path fill="none" stroke="#000000" stroke-linejoin="round" stroke-miterlimit="10" d="M72.826,407.542
	c4.197,5.312,6.703,12.021,6.703,19.316c0,17.221-13.96,31.182-31.182,31.182c-17.222,0-31.182-13.961-31.182-31.182
	s13.96-31.182,31.182-31.182c1.849,0,3.661,0.16,5.422,0.47c5.561-0.054,7.47-5.483,9.641-9.628l-0.614-8.045
	c-0.929-13.23-1.619-20.469-1.928-21.635c-2.034-7.801-19.066-36.66-33.607-58.273l-6.365-9.291l-6.143-9.424
	c-0.205-0.225-5.146-5.848-14.753-16.795c6.786-8.42,22.311-23.807,46.86-46.074l15.952-15.222
	c29.274-28.042,60.066-54.574,94.863-75.524c40.945-24.715,84.782-51.247,125.729-69.476c30.878-13.773,62.689-25.917,95.876-33.174
	c7.209-1.627,28.179-6.539,62.938-15.167c38.621-9.612,78.519-8.932,118.104-7.761c68.224,2.218,136.29,8.032,204.303,15.069
	c73.678,7.649,147.702,27.059,220.376,46.05c12.463,3.288,26.044,7.491,40.732,12.752c5.085,15.431,5.256,37.709,0.585,66.761
	c-4.511,27.044-26.47,77.173-42.821,114.579c-12.025,27.432-19.264,44.553-21.724,51.293c-6.114,1.387-20.187,4.941-42.136,10.752
	c-27.705,7.281-36.729,7.604-53.672,7.721c-11.531,0.068-29.601-0.369-54.362-1.028c-14.971-0.517-40.327,0.888-76.073,4.14
	c-72.214,6.541-168.452,15.266-216.539,22.151c-75.429,10.797-151.127,19.563-227.106,26.444
	c-43.344,3.925-86.385,10.818-129.657,14.746c-26.485,2.393-53.035,3.515-79.496,6.135c-1.948,1.007-3.895,2.015-5.843,3.021
	c-2.51,1.299-5.179,3.066-4.062,6.301L72.826,407.542z"/>
</svg>
