<?xml version="1.0" encoding="utf-8"?>
<!-- Generator: Adobe Illustrator 16.0.0, SVG Export Plug-In . SVG Version: 6.00 Build 0)  -->
<!DOCTYPE svg PUBLIC "-//W3C//DTD SVG 1.1//EN" "http://www.w3.org/Graphics/SVG/1.1/DTD/svg11.dtd">
<svg version="1.1" id="Layer_1" xmlns="http://www.w3.org/2000/svg" xmlns:xlink="http://www.w3.org/1999/xlink" x="0px" y="0px"
	 width="1019.721px" height="592.523px" viewBox="0 0 1019.721 592.523" enable-background="new 0 0 1019.721 592.523"
	 xml:space="preserve">
<path d="M7.585,5.42c-28.08-0.288,29.088,274.319,53.138,410.109c0.07,0.435,12.742,12.964,15.552,15.267
	c9.792,7.92,57.022,31.176,86.256,45.576c30.023,14.76,70.992,29.664,122.615,44.713c49.466,14.328,163.729,33.188,246.098,46.799
	c68.185,11.229,136.94,18.289,205.92,22.683c76.393,4.821,131.616,1.802,186.77-21.237c36.071-15.05,51.983-28.656,69.336-49.466
	c12.1-14.327,17.495-28.366,21.1-48.743c6.265-35.783,9.573-73.438-4.752-107.497c-12.96-30.743-25.704-67.319-37.516-101.302
	c-10.009-28.584-25.416-65.089-46.367-109.297c-19.869-42.336-28.801-56.304-47.445-84.168c-8.93-13.392-15.336-21.888-19.367-25.56
	l0,0l-15.479-15.049l0,0c-7.701-7.848-29.018-17.495-37.729-20.159c-8.425-2.448-29.952-4.969-64.297-7.488
	c-7.128-0.576-21.743-0.648-43.703-0.576c-32.761,0.145-102.168,0.648-208.225,1.584c-7.2,0.072-29.092,0.146-65.664,0.216
	c-2.231,0-35.14,0.721-98.567,2.232c-66.39,1.582-143.068,2.158-230.045,1.943C71.88,5.852,42.647,5.708,7.585,5.42L7.585,5.42"/>
</svg>
