<?xml version="1.0" encoding="utf-8"?>
<!-- Generator: Adobe Illustrator 16.0.0, SVG Export Plug-In . SVG Version: 6.00 Build 0)  -->
<!DOCTYPE svg PUBLIC "-//W3C//DTD SVG 1.1//EN" "http://www.w3.org/Graphics/SVG/1.1/DTD/svg11.dtd">
<svg version="1.1" id="Layer_1" xmlns="http://www.w3.org/2000/svg" xmlns:xlink="http://www.w3.org/1999/xlink" x="0px" y="0px"
	 width="1551.143px" height="500.622px" viewBox="0 0 1551.143 500.622" enable-background="new 0 0 1551.143 500.622"
	 xml:space="preserve">
<path fill="none" stroke="#000000" stroke-linejoin="round" stroke-miterlimit="10" d="M1547.108,362.167
	c-1.729-1.729-45.938-26.063-132.984-72.865c-177.479-95.614-228.168-120.094-351.504-171.718
	C1040.3,108.292,776.204,3.82,746.972,0.292C736.963-1.004,726.596,2.02,715.94,9.22c-31.178,21.456-86.258,55.729-165.098,102.96
	c-24.264,14.544-55.655,32.544-94.03,53.784c-74.734,41.832-160.994,94.322-258.696,157.392
	c-2.376,1.514-122.472,82.801-138.888,102.098c-14.76,17.352,1.728,34.488,9.504,34.488l1405.583-0.648
	c3.891,0,12.168-7.631,25.347-22.604l7.416-8.855l7.771-8.424c2.595-2.882,5.188-5.689,7.776-8.496l7.849-8.642l8.207-8.063
	C1551.716,381.027,1554.524,370.374,1547.108,362.167z M637.532,213.772c67.968-3.744,290.088-8.568,310.392-10.008
	c20.305-1.512,23.904-5.112,13.824-12.096c-11.664-7.992-42.048-28.944-52.271-36.864c-10.297-7.92-30.456-14.976-45.145-14.688
	c-15.912,0.36-129.744,6.768-150.048,8.28c-20.308,1.44-12.24-6.696,4.896-8.352c26.208-2.448,101.736-8.712,132.912-11.592
	c23.041-2.088,48.312,1.224,65.16,8.136c16.848,6.984,97.561,40.032,125.496,53.568c23.904,11.52,27.504,15.696-7.488,16.56
	c-91.148,2.304-384.407,11.592-419.109,13.032C587.204,220.9,614.348,214.996,637.532,213.772z M1389.716,379.803
	c-76.681,1.801-741.168,7.271-926.062,8.783c-25.922,0.217-24.771-11.521,10.224-12.312c202.464-4.605,451.729-7.344,628.704-10.08
	c25.92-0.432,18.792-6.91,7.128-19.008c-13.464-13.971-52.776-54.07-75.456-77.477c-13.464-13.967-24.984-15.336-42.264-14.543
	c-123.842,5.764-274.752,2.02-406.656,3.312c-18.072,0.145-12.096-8.279,17.208-8.928l443.088-7.922
	c27.36-0.574,104.978,5.903,159.265,34.2c18.072,9.435,123.049,57.744,176.188,82.367
	C1402.171,367.999,1410.668,379.297,1389.716,379.803z"/>
</svg>
