<?xml version="1.0" encoding="utf-8"?>
<!-- Generator: Adobe Illustrator 16.0.0, SVG Export Plug-In . SVG Version: 6.00 Build 0)  -->
<!DOCTYPE svg PUBLIC "-//W3C//DTD SVG 1.1//EN" "http://www.w3.org/Graphics/SVG/1.1/DTD/svg11.dtd">
<svg version="1.1" id="Layer_1" xmlns="http://www.w3.org/2000/svg" xmlns:xlink="http://www.w3.org/1999/xlink" x="0px" y="0px"
	 width="1323.668px" height="900.928px" viewBox="0 0 1323.668 900.928" enable-background="new 0 0 1323.668 900.928"
	 xml:space="preserve">
<path d="M671.383,40.449c-48.312,11.088-95.185,29.807-140.688,56.015c-17.496,10.152-28.149,19.656-31.318,28.656
	c0.937,4.393,7.921,9,20.95,13.464c57.96,20.521,85.971,48.601,83.521,84.889c-1.729,25.775-20.016,41.688-54.574,48.239
	c-13.394,2.593-32.04,5.761-55.514,9.36c-26.496,4.032-42.408,8.424-47.376,13.32c-0.358,4.752,5.761,10.151,18.357,16.487
	c61.2,30.168,126.146,60.265,195.12,90l0,0l9.722,3.889l9.719,4.682l0,0c122.617,56.879,204.771,92.16,246.168,105.551
	c98.141,32.186,200.16,53.929,305.785,65.305c43.562,4.752,68.612,6.48,75.237,5.4c20.951-3.816,22.824-18.864,5.111-44.785
	c-8.137-11.951-30.744-29.375-67.895-52.344c-18.938-11.664-32.187-28.151-40.179-49.394l0,0l-3.887-10.15l-4.395-8.496l0,0
	c-1.804-3.527-3.677-14.328-5.688-32.111c-1.803-16.345,1.869-92.16,10.729-228.024c0.358-2.304,0.723-5.977,1.01-10.729
	c3.457-34.991,4.031-54.863,2.088-59.903c-3.168-1.656-6.266-2.664-9.791-2.592c-0.647-0.072-18.721,4.031-53.857,11.951
	c-40.752,9.504-65.95,13.032-75.743,10.656c-23.037-5.832-24.404-22.104-3.888-48.888c3.24-4.104,8.064-10.225,14.832-18
	c13.752-16.704,21.023-25.704,21.672-27.288c1.656-3.528,2.447-7.344,2.089-11.232c-7.634-4.104-25.486-5.184-54.357-3.815
	C874.28,9.488,749.864,22.665,671.383,40.449L671.383,40.449 M19.856,349.688c-1.224,0.359-2.229,0.863-3.312,1.439
	c-0.648,1.8-1.008,3.312-0.36,4.824l0,0l3.744,10.584l0,0c5.184,14.112-0.216,50.04-16.128,107.352
	c-4.104,14.04-4.824,22.752-2.448,26.064c0.864,1.438,17.855,7.92,50.4,19.438c107.136,38.521,218.733,83.021,334.584,133.775
	c42.264,18.647,100.729,47.377,175.176,86.328C693.127,808.4,781.688,857.289,826.76,885.44
	c15.336,9.792,24.979,14.899,28.438,15.336c7.488,1.147,18.646-4.248,33.047-15.911
	c138.677-112.971,245.093-197.713,319.685-254.449l0,0l8.711-6.623l0,0c7.348-5.4,11.664-10.944,12.961-16.92
	c-0.217-0.433-0.357-0.864-0.646-1.225c-3.814-2.16-14.543-3.24-31.533-3.893c-76.752-2.229-185.476-24.769-325.943-67.248
	c-52.199-16.128-106.271-36.216-162-60.624c-23.111-10.147-29.305-9.355-41.832-1.729c-1.943,1.008-5.328,3.096-10.225,6.336
	c-24.479,16.345-39.891,25.561-46.01,27.721c-10.872,3.816-24.694,2.593-42.12-3.096
	c-119.376-40.537-257.185-80.424-413.928-119.736l0,0l-10.15-2.592l0,0c-21.889-5.616-42.696-11.088-62.567-16.344
	C43.904,353.865,23.169,348.896,19.856,349.688L19.856,349.688"/>
</svg>
