<?xml version="1.0" encoding="utf-8"?>
<!-- Generator: Adobe Illustrator 16.0.0, SVG Export Plug-In . SVG Version: 6.00 Build 0)  -->
<!DOCTYPE svg PUBLIC "-//W3C//DTD SVG 1.1//EN" "http://www.w3.org/Graphics/SVG/1.1/DTD/svg11.dtd">
<svg version="1.1" id="Layer_1" xmlns="http://www.w3.org/2000/svg" xmlns:xlink="http://www.w3.org/1999/xlink" x="0px" y="0px"
	 width="2078.398px" height="970.979px" viewBox="0 0 2078.398 970.979" enable-background="new 0 0 2078.398 970.979"
	 xml:space="preserve">
<path fill="none" stroke="#000000" stroke-linejoin="round" stroke-miterlimit="10" d="M1369.465,40.45
	c-48.311,11.088-95.184,29.808-140.688,56.016c-17.496,10.152-28.152,19.656-31.32,28.656c0.938,4.392,7.92,9,20.953,13.464
	c57.959,20.52,85.967,48.6,83.52,84.888c-1.729,25.776-20.016,41.688-54.572,48.24c-13.396,2.592-32.041,5.76-55.516,9.36
	c-26.496,4.032-42.406,8.424-47.377,13.32c-0.355,4.752,5.762,10.152,18.361,16.488c61.199,30.168,126.143,60.264,195.119,90l0,0
	l9.721,3.888l9.719,4.683l0,0c122.617,56.88,204.771,92.16,246.168,105.551c98.141,32.188,200.16,53.929,305.785,65.305
	c43.562,4.752,68.615,6.48,75.24,5.4c20.951-3.816,22.824-18.864,5.109-44.785c-8.139-11.951-30.742-29.375-67.896-52.344
	c-18.938-11.664-32.184-28.151-40.176-49.395l0,0l-3.891-10.149l-4.393-8.496l0,0c-1.801-3.528-3.674-14.328-5.688-32.112
	c-1.803-16.344,1.869-92.16,10.727-228.024c0.361-2.304,0.723-5.976,1.01-10.728c3.457-34.992,4.031-54.864,2.088-59.904
	c-3.168-1.656-6.266-2.664-9.791-2.592c-0.646-0.072-18.723,4.032-53.854,11.952c-40.752,9.504-65.951,13.032-75.744,10.656
	c-23.039-5.832-24.406-22.104-3.887-48.888c3.236-4.104,8.062-10.224,14.832-18c13.752-16.704,21.021-25.704,21.672-27.288
	c1.656-3.528,2.447-7.344,2.088-11.232c-7.633-4.104-25.488-5.184-54.359-3.816C1572.364,9.489,1447.948,22.666,1369.465,40.45
	L1369.465,40.45 M717.939,349.688c-1.228,0.36-2.232,0.864-3.312,1.44c-0.646,1.8-1.008,3.312-0.36,4.824l0,0l3.744,10.584l0,0
	c5.188,14.112-0.216,50.04-16.128,107.352c-4.104,14.04-4.822,22.752-2.447,26.064c0.863,1.438,17.854,7.92,50.399,19.438
	c107.136,38.521,218.736,83.02,334.584,133.775c42.265,18.648,100.729,47.377,175.176,86.328
	c131.615,68.904,220.18,117.793,265.248,145.942c15.336,9.791,24.984,14.902,28.439,15.338c7.484,1.148,18.646-4.248,33.049-15.911
	c138.672-112.973,245.088-197.713,319.68-254.449l0,0l8.711-6.623l0,0c7.348-5.4,11.664-10.944,12.962-16.92
	c-0.218-0.435-0.358-0.864-0.646-1.228c-3.816-2.157-14.545-3.237-31.537-3.889c-76.752-2.229-185.471-24.769-325.942-67.248
	c-52.196-16.128-106.271-36.216-162-60.624c-23.108-10.148-29.304-9.356-41.832-1.728c-1.94,1.008-5.323,3.096-10.226,6.336
	c-24.479,16.344-39.887,25.56-46.008,27.72c-10.871,3.816-24.695,2.592-42.119-3.096
	c-119.377-40.537-257.184-80.424-413.928-119.736l0,0l-10.152-2.592l0,0c-21.888-5.616-42.696-11.088-62.564-16.344
	C741.987,353.866,721.25,348.896,717.939,349.688L717.939,349.688 M1493.811,873.202c-1.729-1.729-45.938-26.064-132.982-72.865
	c-177.479-95.615-228.168-120.096-351.503-171.719c-22.32-9.289-286.416-113.761-315.648-117.289
	c-10.008-1.295-20.376,1.729-31.03,8.928c-31.178,21.457-86.258,55.729-165.098,102.961c-24.264,14.544-55.656,32.544-94.032,53.783
	c-74.732,41.832-160.992,94.32-258.696,157.394c-2.376,1.515-122.472,82.803-138.888,102.099
	c-14.76,17.352,1.728,34.486,9.504,34.486l1405.583-0.646c3.892,0,12.168-7.631,25.349-22.606l7.416-8.854l7.771-8.425
	c2.596-2.88,5.188-5.688,7.777-8.496l7.848-8.643l8.207-8.062C1498.418,892.065,1501.227,881.409,1493.811,873.202z
	 M584.235,724.809c67.968-3.74,290.088-8.564,310.392-10.008c20.304-1.512,23.904-5.108,13.824-12.096
	c-11.664-7.992-42.048-28.944-52.272-36.864c-10.296-7.921-30.456-14.976-45.144-14.688c-15.912,0.356-129.744,6.768-150.048,8.276
	c-20.308,1.44-12.24-6.692,4.896-8.353c26.208-2.447,101.736-8.711,132.912-11.592c23.04-2.089,48.312,1.225,65.16,8.137
	c16.848,6.983,97.561,40.031,125.496,53.567c23.904,11.521,27.505,15.692-7.488,16.56c-91.15,2.305-384.408,11.593-419.112,13.033
	C533.907,731.938,561.05,726.034,584.235,724.809z M1336.418,890.84c-76.68,1.801-741.168,7.273-926.064,8.785
	c-25.921,0.215-24.769-11.521,10.227-12.312c202.464-4.605,451.729-7.346,628.705-10.078c25.92-0.436,18.791-6.912,7.127-19.012
	c-13.463-13.969-52.776-54.068-75.456-77.473c-13.464-13.967-24.984-15.336-42.267-14.543
	c-123.841,5.76-274.752,2.016-406.653,3.312c-18.072,0.146-12.099-8.276,17.208-8.928l443.088-7.921
	c27.361-0.575,104.977,5.904,159.266,34.201c18.072,9.432,123.047,57.744,176.186,82.367
	C1348.874,879.034,1357.372,890.336,1336.418,890.84z"/>
</svg>
