<?xml version="1.0" encoding="utf-8"?>
<!-- Generator: Adobe Illustrator 16.0.0, SVG Export Plug-In . SVG Version: 6.00 Build 0)  -->
<!DOCTYPE svg PUBLIC "-//W3C//DTD SVG 1.1//EN" "http://www.w3.org/Graphics/SVG/1.1/DTD/svg11.dtd">
<svg version="1.1" id="Layer_1" xmlns="http://www.w3.org/2000/svg" xmlns:xlink="http://www.w3.org/1999/xlink" x="0px" y="0px"
	 width="2078.398px" height="970.979px" viewBox="0 0 2078.398 970.979" enable-background="new 0 0 2078.398 970.979"
	 xml:space="preserve">
<path fill="none" stroke="#000000" stroke-linejoin="round" stroke-miterlimit="10" d="M1996.699,585.999
	c3.674,0.064,6.3-0.033,7.879-0.29c16.692-3.041,21.274-13.211,13.488-30.33"/>
<path fill="none" stroke="#000000" stroke-linejoin="round" stroke-miterlimit="10" d="M1927.684,606.87
	c-0.218-0.435-0.358-0.864-0.646-1.228c-3.816-2.157-14.545-3.237-31.537-3.889c-76.752-2.229-185.471-24.769-325.942-67.248
	c-52.196-16.128-106.271-36.216-162-60.624c-23.108-10.148-29.304-9.356-41.832-1.728c-1.94,1.008-5.323,3.096-10.226,6.336
	c-24.479,16.344-39.887,25.56-46.008,27.72c-10.871,3.816-24.695,2.592-42.119-3.096c-60.624-20.586-126.003-41.005-196.2-61.266"/>
<path fill="none" stroke="#000000" stroke-linejoin="round" stroke-miterlimit="10" d="M698.094,494.584
	c0.069,2.433,0.521,4.223,1.342,5.368c0.863,1.438,17.854,7.92,50.399,19.438c107.136,38.521,218.736,83.02,334.584,133.775
	c42.265,18.648,100.729,47.377,175.176,86.328c122.152,63.95,207.222,110.66,254.853,139.549"/>
<path fill="none" stroke="#000000" stroke-linejoin="round" stroke-miterlimit="10" d="M1494.049,894.571
	c5.14-8.392,5.061-15.506-0.238-21.369c-1.729-1.729-45.938-26.064-132.982-72.865c-177.479-95.615-228.168-120.096-351.503-171.719
	c-22.32-9.289-286.416-113.761-315.648-117.289c-2.858-0.37-5.747-0.388-8.662-0.056"/>
<path fill="none" stroke="#000001" stroke-linejoin="round" stroke-miterlimit="10" d="M1144.465,294.394
	c-0.355,4.752,5.762,10.152,18.361,16.488c61.199,30.168,126.143,60.265,195.119,90l9.721,3.888l9.719,4.684
	c122.617,56.88,204.771,92.16,246.168,105.551c98.141,32.188,200.16,53.929,305.785,65.305c3.719,0.405,7.303,0.789,10.752,1.151"/>
</svg>
