<?xml version="1.0" encoding="utf-8"?>
<!-- Generator: Adobe Illustrator 16.0.0, SVG Export Plug-In . SVG Version: 6.00 Build 0)  -->
<!DOCTYPE svg PUBLIC "-//W3C//DTD SVG 1.1//EN" "http://www.w3.org/Graphics/SVG/1.1/DTD/svg11.dtd">
<svg version="1.1" id="Layer_1" xmlns="http://www.w3.org/2000/svg" xmlns:xlink="http://www.w3.org/1999/xlink" x="0px" y="0px"
	 width="539.398px" height="735.555px" viewBox="0 0 539.398 735.555" enable-background="new 0 0 539.398 735.555"
	 xml:space="preserve">
<path fill="none" stroke="#000000" stroke-linejoin="round" stroke-miterlimit="10" d="M495.963,675.695
	c3.762-1.609,7.903-2.501,12.254-2.501c17.221,0,31.182,13.96,31.182,31.181s-13.961,31.181-31.182,31.181
	c-17.222,0-31.183-13.96-31.183-31.181c0-4.582,0.988-8.933,2.765-12.851c-0.093-1.705-1.002-2.25-2.611-1.897
	c-11.281,7.772-25.483,12.402-40.867,12.371l0,0l-370.297-0.863l0,0C29.664,700.995-0.072,674.858,0,642.887l0,0L1.225,57.96l0,0
	C1.296,25.994,31.104-0.143,67.536,0l0,0l370.295,0.864l0,0c36.359,0,66.169,26.28,66.097,58.248l0,0l-1.297,584.855l0,0
	c-0.023,10.841-3.452,20.997-9.39,29.688C493.312,675.428,494.38,675.746,495.963,675.695z"/>
</svg>
