<?xml version="1.0" encoding="utf-8"?>
<!-- Generator: Adobe Illustrator 16.0.0, SVG Export Plug-In . SVG Version: 6.00 Build 0)  -->
<!DOCTYPE svg PUBLIC "-//W3C//DTD SVG 1.1//EN" "http://www.w3.org/Graphics/SVG/1.1/DTD/svg11.dtd">
<svg version="1.1" id="Layer_1" xmlns="http://www.w3.org/2000/svg" xmlns:xlink="http://www.w3.org/1999/xlink" x="0px" y="0px"
	 width="2096.449px" height="973.393px" viewBox="0 0 2096.449 973.393" enable-background="new 0 0 2096.449 973.393"
	 xml:space="preserve">
<path fill="none" stroke="#000000" stroke-linejoin="round" stroke-miterlimit="10" d="M1059.962,433.278
	c-75.198,20.964-148.72,43.367-220.586,67.221c-19.655,6.408-34.271,8.64-43.848,6.695c-6.479-1.367-23.832-11.596-52.416-30.528
	c-12.099-7.92-21.312-11.808-28.08-11.664c-4.177,0.144-24.408,7.632-60.695,22.968c-80.28,33.192-177.265,62.424-290.88,87.336
	c-63.504,13.823-117.216,21.312-161.136,22.177c-16.56,0.359-27.072,1.803-31.824,3.963"/>
<path fill="none" stroke="#000000" stroke-linejoin="round" stroke-miterlimit="10" d="M581.412,877.946
	c72.748-46.47,311.418-168.254,388.503-204.358c94.604-44.353,315.142-131.904,412.917-163.297l0,0l10.369-3.527l0,0
	c2.229-0.721,5.039-3.096,7.988-6.84"/>
<path fill="none" stroke="#000000" stroke-linejoin="round" stroke-miterlimit="10" d="M59.786,554.149
	c-1.938,4.599-3.114,9.316-3.774,14.39c-2.088,14.112,6.624,21.24,25.488,21.24c0.192,0,0.522-0.016,0.986-0.046"/>
<path fill="none" stroke="#000000" stroke-linejoin="round" stroke-miterlimit="10" d="M1410.236,513.665
	c-7.088-0.206-14.945,1.699-25.678,5.334c-54.858,18-323.926,117.287-434.228,172.729
	c-144.146,72.217-256.32,131.396-336.312,177.553c-11.88,6.768-17.136,13.465-16.056,20.16c0.132,0.679,0.74,1.818,1.821,3.418"/>
<path fill="none" stroke="#000001" stroke-linejoin="round" stroke-miterlimit="10" d="M161.264,580.478
	c45.859-6.275,104.605-15.621,157.259-27.706c107.208-24.695,221.688-68.112,343.584-130.608
	c26.207-13.392,82.008-39.601,167.688-78.48c64.013-29.016,96.197-45.432,97.205-49.248l0,0l1.512-5.4"/>
</svg>
