<?xml version="1.0" encoding="utf-8"?>
<!-- Generator: Adobe Illustrator 16.0.0, SVG Export Plug-In . SVG Version: 6.00 Build 0)  -->
<!DOCTYPE svg PUBLIC "-//W3C//DTD SVG 1.1//EN" "http://www.w3.org/Graphics/SVG/1.1/DTD/svg11.dtd">
<svg version="1.1" id="Layer_1" xmlns="http://www.w3.org/2000/svg" xmlns:xlink="http://www.w3.org/1999/xlink" x="0px" y="0px"
	 width="1076.208px" height="404.747px" viewBox="0 0 1076.208 404.747" enable-background="new 0 0 1076.208 404.747"
	 xml:space="preserve">
<path fill="none" stroke="#000000" stroke-linejoin="round" stroke-miterlimit="10" d="M1029.801,221.737L1014,206.356
	c-28.992-28.329-59.52-55.165-94.109-76.458c-40.695-25.12-84.27-52.084-125.033-70.718c-30.738-14.077-62.434-26.536-95.543-34.12
	c-7.189-1.699-28.111-6.818-62.783-15.791c-38.523-9.992-78.426-9.708-118.023-8.929c-68.243,1.543-136.362,6.683-204.439,13.047
	c-73.75,6.918-147.963,25.594-220.82,43.865c-12.5,3.165-26.122,7.233-40.859,12.348c-5.239,15.379-5.629,37.654-1.247,66.753
	c4.241,27.087,25.703,77.431,41.685,114.993c11.749,27.551,18.821,44.744,21.214,51.506c6.102,1.447,20.132,5.146,42.023,11.17
	c27.634,7.555,36.654,7.967,53.594,8.252c11.533,0.182,29.606-0.076,54.375-0.492c14.973-0.367,40.315,1.287,76.027,4.891
	c72.146,7.262,168.291,16.938,216.309,24.299c75.32,11.547,150.93,21.062,226.836,28.691c43.301,4.355,86.271,11.672,129.502,16.027
	c28.916,2.902,57.926,4.287,86.789,7.766l10.707,1.291c0.141-0.076,0.449-3.688,1.139-10.918l0.932-10.766
	c1.061-13.221,1.818-20.451,2.145-21.613c2.107-7.781,19.428-36.471,34.182-57.939l6.457-9.227l6.234-9.361
	c0.209-0.225,5.205-5.799,14.92-16.646C1069.5,259.786,1054.129,244.247,1029.801,221.737z M87.05,170.209
	c-3.719,0-6.732-3.014-6.732-6.732c0-3.718,3.014-6.732,6.732-6.732c3.718,0,6.732,3.014,6.732,6.732
	C93.782,167.195,90.769,170.209,87.05,170.209z M87.05,118.209c-3.719,0-6.732-3.014-6.732-6.732c0-3.718,3.014-6.732,6.732-6.732
	c3.718,0,6.732,3.014,6.732,6.732C93.782,115.195,90.769,118.209,87.05,118.209z M143.62,274.209c-3.719,0-6.732-3.016-6.732-6.73
	s3.014-6.732,6.732-6.732c3.718,0,6.732,3.018,6.732,6.732S147.339,274.209,143.62,274.209z M143.62,222.209
	c-3.719,0-6.732-3.016-6.732-6.73c0-3.719,3.014-6.732,6.732-6.732c3.718,0,6.732,3.016,6.732,6.732S147.339,222.209,143.62,222.209
	z M143.62,170.209c-3.719,0-6.732-3.014-6.732-6.732c0-3.718,3.014-6.732,6.732-6.732c3.718,0,6.732,3.014,6.732,6.732
	C150.352,167.195,147.339,170.209,143.62,170.209z M143.62,118.209c-3.719,0-6.732-3.014-6.732-6.732
	c0-3.718,3.014-6.732,6.732-6.732c3.718,0,6.732,3.014,6.732,6.732C150.352,115.195,147.339,118.209,143.62,118.209z M143.62,66.209
	c-3.719,0-6.732-3.014-6.732-6.732c0-3.718,3.014-6.732,6.732-6.732c3.718,0,6.732,3.014,6.732,6.732
	C150.352,63.195,147.339,66.209,143.62,66.209z M200.191,274.209c-3.719,0-6.732-3.016-6.732-6.73s3.014-6.732,6.732-6.732
	c3.718,0,6.732,3.018,6.732,6.732S203.909,274.209,200.191,274.209z M200.191,222.209c-3.719,0-6.732-3.016-6.732-6.73
	c0-3.719,3.014-6.732,6.732-6.732c3.718,0,6.732,3.016,6.732,6.732S203.909,222.209,200.191,222.209z M200.191,170.209
	c-3.719,0-6.732-3.014-6.732-6.732c0-3.718,3.014-6.732,6.732-6.732c3.718,0,6.732,3.014,6.732,6.732
	C206.923,167.195,203.909,170.209,200.191,170.209z M200.191,118.209c-3.719,0-6.732-3.014-6.732-6.732
	c0-3.718,3.014-6.732,6.732-6.732c3.718,0,6.732,3.014,6.732,6.732C206.923,115.195,203.909,118.209,200.191,118.209z
	 M200.191,66.209c-3.719,0-6.732-3.014-6.732-6.732c0-3.718,3.014-6.732,6.732-6.732c3.718,0,6.732,3.014,6.732,6.732
	C206.923,63.195,203.909,66.209,200.191,66.209z M256.761,274.209c-3.719,0-6.732-3.016-6.732-6.73s3.014-6.732,6.732-6.732
	c3.718,0,6.732,3.018,6.732,6.732S260.48,274.209,256.761,274.209z M256.761,222.209c-3.719,0-6.732-3.016-6.732-6.73
	c0-3.719,3.014-6.732,6.732-6.732c3.718,0,6.732,3.016,6.732,6.732S260.48,222.209,256.761,222.209z M256.761,170.209
	c-3.719,0-6.732-3.014-6.732-6.732c0-3.718,3.014-6.732,6.732-6.732c3.718,0,6.732,3.014,6.732,6.732
	C263.493,167.195,260.48,170.209,256.761,170.209z M256.761,118.209c-3.719,0-6.732-3.014-6.732-6.732
	c0-3.718,3.014-6.732,6.732-6.732c3.718,0,6.732,3.014,6.732,6.732C263.493,115.195,260.48,118.209,256.761,118.209z
	 M256.761,66.209c-3.719,0-6.732-3.014-6.732-6.732c0-3.718,3.014-6.732,6.732-6.732c3.718,0,6.732,3.014,6.732,6.732
	C263.493,63.195,260.48,66.209,256.761,66.209z M313.331,274.209c-3.719,0-6.732-3.016-6.732-6.73s3.016-6.732,6.732-6.732
	s6.73,3.018,6.73,6.732S317.05,274.209,313.331,274.209z M313.331,222.209c-3.719,0-6.732-3.016-6.732-6.73
	c0-3.719,3.016-6.732,6.732-6.732s6.73,3.016,6.73,6.732C320.062,219.196,317.05,222.209,313.331,222.209z M313.331,170.209
	c-3.719,0-6.732-3.014-6.732-6.732c0-3.718,3.016-6.732,6.732-6.732s6.73,3.014,6.73,6.732
	C320.062,167.195,317.05,170.209,313.331,170.209z M313.331,118.209c-3.719,0-6.732-3.014-6.732-6.732
	c0-3.718,3.016-6.732,6.732-6.732s6.73,3.014,6.73,6.732C320.062,115.195,317.05,118.209,313.331,118.209z M313.331,66.209
	c-3.719,0-6.732-3.014-6.732-6.732c0-3.718,3.016-6.732,6.732-6.732s6.73,3.014,6.73,6.732
	C320.062,63.195,317.05,66.209,313.331,66.209z M369.901,274.209c-3.723,0-6.732-3.016-6.732-6.73s3.014-6.732,6.732-6.732
	c3.718,0,6.729,3.018,6.729,6.732S373.62,274.209,369.901,274.209z M369.901,222.209c-3.723,0-6.732-3.016-6.732-6.73
	c0-3.719,3.014-6.732,6.732-6.732c3.718,0,6.729,3.016,6.729,6.732C376.632,219.196,373.62,222.209,369.901,222.209z
	 M369.901,170.209c-3.723,0-6.732-3.014-6.732-6.732c0-3.718,3.014-6.732,6.732-6.732c3.718,0,6.729,3.014,6.729,6.732
	C376.633,167.195,373.62,170.209,369.901,170.209z M369.901,118.209c-3.723,0-6.732-3.014-6.732-6.732
	c0-3.718,3.014-6.732,6.732-6.732c3.718,0,6.729,3.014,6.729,6.732C376.633,115.195,373.62,118.209,369.901,118.209z
	 M369.901,66.209c-3.723,0-6.732-3.014-6.732-6.732c0-3.718,3.014-6.732,6.732-6.732c3.718,0,6.729,3.014,6.729,6.732
	C376.633,63.195,373.62,66.209,369.901,66.209z M426.472,326.209c-3.719,0-6.729-3.016-6.729-6.73s3.014-6.732,6.729-6.732
	c3.716,0,6.732,3.018,6.732,6.732S430.19,326.209,426.472,326.209z M426.472,274.209c-3.719,0-6.729-3.016-6.729-6.73
	s3.014-6.732,6.729-6.732c3.716,0,6.732,3.018,6.732,6.732S430.19,274.209,426.472,274.209z M426.472,222.209
	c-3.719,0-6.729-3.016-6.729-6.73c0-3.719,3.014-6.732,6.729-6.732c3.716,0,6.732,3.016,6.732,6.732S430.19,222.209,426.472,222.209
	z M426.472,170.209c-3.719,0-6.729-3.014-6.729-6.732c0-3.718,3.014-6.732,6.729-6.732c3.716,0,6.732,3.014,6.732,6.732
	C433.204,167.195,430.19,170.209,426.472,170.209z M426.472,118.209c-3.719,0-6.729-3.014-6.729-6.732
	c0-3.718,3.014-6.732,6.729-6.732c3.716,0,6.732,3.014,6.732,6.732C433.204,115.195,430.19,118.209,426.472,118.209z
	 M426.472,66.209c-3.719,0-6.729-3.014-6.729-6.732c0-3.718,3.014-6.732,6.729-6.732c3.716,0,6.732,3.014,6.732,6.732
	C433.204,63.195,430.19,66.209,426.472,66.209z M483.042,326.209c-3.719,0-6.732-3.016-6.732-6.73s3.018-6.732,6.732-6.732
	s6.729,3.018,6.729,6.732S486.761,326.209,483.042,326.209z M483.042,274.209c-3.719,0-6.732-3.016-6.732-6.73
	s3.018-6.732,6.732-6.732s6.729,3.018,6.729,6.732S486.761,274.209,483.042,274.209z M483.042,222.209
	c-3.719,0-6.732-3.016-6.732-6.73c0-3.719,3.018-6.732,6.732-6.732s6.729,3.016,6.729,6.732S486.761,222.209,483.042,222.209z
	 M483.042,170.209c-3.719,0-6.732-3.014-6.732-6.732c0-3.718,3.018-6.732,6.732-6.732s6.729,3.014,6.729,6.732
	C489.773,167.195,486.761,170.209,483.042,170.209z M483.042,118.209c-3.719,0-6.732-3.014-6.732-6.732
	c0-3.718,3.018-6.732,6.732-6.732s6.729,3.014,6.729,6.732C489.773,115.195,486.761,118.209,483.042,118.209z M483.042,66.209
	c-3.719,0-6.732-3.014-6.732-6.732c0-3.718,3.018-6.732,6.732-6.732s6.729,3.014,6.729,6.732
	C489.773,63.195,486.761,66.209,483.042,66.209z M539.612,326.209c-3.721,0-6.732-3.016-6.732-6.73s3.014-6.732,6.732-6.732
	c3.719,0,6.73,3.018,6.73,6.732S543.331,326.209,539.612,326.209z M539.612,274.209c-3.721,0-6.732-3.016-6.732-6.73
	s3.014-6.732,6.732-6.732c3.719,0,6.73,3.018,6.73,6.732S543.331,274.209,539.612,274.209z M539.612,222.209
	c-3.721,0-6.732-3.016-6.732-6.73c0-3.719,3.014-6.732,6.732-6.732c3.719,0,6.73,3.016,6.73,6.732S543.331,222.209,539.612,222.209z
	 M539.612,170.209c-3.721,0-6.732-3.014-6.732-6.732c0-3.718,3.014-6.732,6.732-6.732c3.719,0,6.73,3.014,6.73,6.732
	C546.344,167.195,543.331,170.209,539.612,170.209z M539.612,118.209c-3.721,0-6.732-3.014-6.732-6.732
	c0-3.718,3.014-6.732,6.732-6.732c3.719,0,6.73,3.014,6.73,6.732C546.344,115.195,543.331,118.209,539.612,118.209z M539.612,66.209
	c-3.721,0-6.732-3.014-6.732-6.732c0-3.718,3.014-6.732,6.732-6.732c3.719,0,6.73,3.014,6.73,6.732
	C546.344,63.195,543.331,66.209,539.612,66.209z M596.182,326.209c-3.719,0-6.729-3.016-6.729-6.73s3.014-6.732,6.729-6.732
	c3.721,0,6.732,3.018,6.732,6.732S599.901,326.209,596.182,326.209z M596.182,274.209c-3.719,0-6.729-3.016-6.729-6.73
	s3.014-6.732,6.729-6.732c3.721,0,6.732,3.018,6.732,6.732S599.901,274.209,596.182,274.209z M596.182,222.209
	c-3.719,0-6.729-3.016-6.729-6.73c0-3.719,3.014-6.732,6.729-6.732c3.721,0,6.732,3.016,6.732,6.732
	S599.901,222.209,596.182,222.209z M596.182,170.209c-3.719,0-6.729-3.014-6.729-6.732c0-3.718,3.014-6.732,6.729-6.732
	c3.721,0,6.732,3.014,6.732,6.732C602.915,167.195,599.901,170.209,596.182,170.209z M596.182,118.209
	c-3.719,0-6.729-3.014-6.729-6.732c0-3.718,3.014-6.732,6.729-6.732c3.721,0,6.732,3.014,6.732,6.732
	C602.915,115.195,599.901,118.209,596.182,118.209z M596.182,66.209c-3.719,0-6.729-3.014-6.729-6.732
	c0-3.718,3.014-6.732,6.729-6.732c3.721,0,6.732,3.014,6.732,6.732C602.915,63.195,599.901,66.209,596.182,66.209z M652.754,326.209
	c-3.719,0-6.732-3.016-6.732-6.73s3.016-6.732,6.732-6.732c3.715,0,6.732,3.018,6.732,6.732S656.471,326.209,652.754,326.209z
	 M652.754,274.209c-3.719,0-6.732-3.016-6.732-6.73s3.016-6.732,6.732-6.732c3.715,0,6.732,3.018,6.732,6.732
	S656.471,274.209,652.754,274.209z M652.754,222.209c-3.719,0-6.732-3.016-6.732-6.73c0-3.719,3.016-6.732,6.732-6.732
	c3.715,0,6.732,3.016,6.732,6.732S656.471,222.209,652.754,222.209z M652.754,170.209c-3.719,0-6.732-3.014-6.732-6.732
	c0-3.718,3.016-6.732,6.732-6.732c3.715,0,6.732,3.014,6.732,6.732C659.487,167.195,656.471,170.209,652.754,170.209z
	 M652.754,118.209c-3.719,0-6.732-3.014-6.732-6.732c0-3.718,3.016-6.732,6.732-6.732c3.715,0,6.732,3.014,6.732,6.732
	C659.487,115.195,656.471,118.209,652.754,118.209z M652.754,66.209c-3.719,0-6.732-3.014-6.732-6.732
	c0-3.718,3.016-6.732,6.732-6.732c3.715,0,6.732,3.014,6.732,6.732C659.487,63.195,656.471,66.209,652.754,66.209z M709.325,326.209
	c-3.723,0-6.732-3.016-6.732-6.73s3.016-6.732,6.732-6.732s6.729,3.018,6.729,6.732S713.043,326.209,709.325,326.209z
	 M709.325,274.209c-3.723,0-6.732-3.016-6.732-6.73s3.016-6.732,6.732-6.732s6.729,3.018,6.729,6.732
	S713.043,274.209,709.325,274.209z M709.325,222.209c-3.723,0-6.732-3.016-6.732-6.73c0-3.719,3.016-6.732,6.732-6.732
	s6.729,3.016,6.729,6.732C716.055,219.196,713.043,222.209,709.325,222.209z M709.325,170.209c-3.723,0-6.732-3.014-6.732-6.732
	c0-3.718,3.016-6.732,6.732-6.732s6.729,3.014,6.729,6.732C716.055,167.195,713.043,170.209,709.325,170.209z M709.325,118.209
	c-3.723,0-6.732-3.014-6.732-6.732c0-3.718,3.016-6.732,6.732-6.732s6.729,3.014,6.729,6.732
	C716.055,115.195,713.043,118.209,709.325,118.209z M709.325,66.209c-3.723,0-6.732-3.014-6.732-6.732
	c0-3.718,3.016-6.732,6.732-6.732s6.729,3.014,6.729,6.732C716.055,63.195,713.043,66.209,709.325,66.209z M765.893,326.209
	c-3.719,0-6.729-3.016-6.729-6.73s3.014-6.732,6.729-6.732c3.721,0,6.732,3.018,6.732,6.732S769.614,326.209,765.893,326.209z
	 M765.893,274.209c-3.719,0-6.729-3.016-6.729-6.73s3.014-6.732,6.729-6.732c3.721,0,6.732,3.018,6.732,6.732
	S769.614,274.209,765.893,274.209z M765.893,222.209c-3.719,0-6.729-3.016-6.729-6.73c0-3.719,3.014-6.732,6.729-6.732
	c3.721,0,6.732,3.016,6.732,6.732S769.614,222.209,765.893,222.209z M765.893,170.209c-3.719,0-6.729-3.014-6.729-6.732
	c0-3.718,3.014-6.732,6.729-6.732c3.721,0,6.732,3.014,6.732,6.732C772.625,167.195,769.614,170.209,765.893,170.209z
	 M765.893,118.209c-3.719,0-6.729-3.014-6.729-6.732c0-3.718,3.014-6.732,6.729-6.732c3.721,0,6.732,3.014,6.732,6.732
	C772.625,115.195,769.614,118.209,765.893,118.209z M822.463,326.209c-3.719,0-6.73-3.016-6.73-6.73s3.016-6.732,6.73-6.732
	c3.717,0,6.732,3.018,6.732,6.732S826.182,326.209,822.463,326.209z M822.463,274.209c-3.719,0-6.73-3.016-6.73-6.73
	s3.016-6.732,6.73-6.732c3.717,0,6.732,3.018,6.732,6.732S826.182,274.209,822.463,274.209z M822.463,222.209
	c-3.719,0-6.73-3.016-6.73-6.73c0-3.719,3.016-6.732,6.73-6.732c3.717,0,6.732,3.016,6.732,6.732S826.182,222.209,822.463,222.209z
	 M822.463,170.209c-3.719,0-6.73-3.014-6.73-6.732c0-3.718,3.016-6.732,6.73-6.732c3.717,0,6.732,3.014,6.732,6.732
	C829.196,167.195,826.182,170.209,822.463,170.209z M822.463,118.209c-3.719,0-6.73-3.014-6.73-6.732
	c0-3.718,3.016-6.732,6.73-6.732c3.717,0,6.732,3.014,6.732,6.732C829.196,115.195,826.182,118.209,822.463,118.209z
	 M879.036,378.209c-3.721,0-6.732-3.016-6.732-6.73s3.018-6.732,6.732-6.732s6.729,3.018,6.729,6.732
	S882.754,378.209,879.036,378.209z M879.036,326.209c-3.721,0-6.732-3.016-6.732-6.73s3.018-6.732,6.732-6.732
	s6.729,3.018,6.729,6.732S882.754,326.209,879.036,326.209z M879.036,274.209c-3.721,0-6.732-3.016-6.732-6.73
	s3.018-6.732,6.732-6.732s6.729,3.018,6.729,6.732S882.754,274.209,879.036,274.209z M879.036,222.209
	c-3.721,0-6.732-3.016-6.732-6.73c0-3.719,3.018-6.732,6.732-6.732s6.729,3.016,6.729,6.732
	C885.766,219.196,882.754,222.209,879.036,222.209z M879.036,170.209c-3.721,0-6.732-3.014-6.732-6.732
	c0-3.718,3.018-6.732,6.732-6.732s6.729,3.014,6.729,6.732C885.766,167.195,882.754,170.209,879.036,170.209z M935.604,378.209
	c-3.719,0-6.73-3.016-6.73-6.73s3.014-6.732,6.73-6.732c3.721,0,6.732,3.018,6.732,6.732S939.325,378.209,935.604,378.209z
	 M935.604,326.209c-3.719,0-6.73-3.016-6.73-6.73s3.014-6.732,6.73-6.732c3.721,0,6.732,3.018,6.732,6.732
	S939.325,326.209,935.604,326.209z M935.604,274.209c-3.719,0-6.73-3.016-6.73-6.73s3.014-6.732,6.73-6.732
	c3.721,0,6.732,3.018,6.732,6.732S939.325,274.209,935.604,274.209z M935.604,222.209c-3.719,0-6.73-3.016-6.73-6.73
	c0-3.719,3.014-6.732,6.73-6.732c3.721,0,6.732,3.016,6.732,6.732S939.325,222.209,935.604,222.209z M935.604,170.209
	c-3.719,0-6.73-3.014-6.73-6.732c0-3.718,3.014-6.732,6.73-6.732c3.721,0,6.732,3.014,6.732,6.732
	C942.336,167.195,939.325,170.209,935.604,170.209z M992.174,378.209c-3.719,0-6.73-3.016-6.73-6.73s3.016-6.732,6.73-6.732
	c3.717,0,6.732,3.018,6.732,6.732S995.893,378.209,992.174,378.209z M992.174,326.209c-3.719,0-6.73-3.016-6.73-6.73
	s3.016-6.732,6.73-6.732c3.717,0,6.732,3.018,6.732,6.732S995.893,326.209,992.174,326.209z M992.174,274.209
	c-3.719,0-6.73-3.016-6.73-6.73s3.016-6.732,6.73-6.732c3.717,0,6.732,3.018,6.732,6.732S995.893,274.209,992.174,274.209z
	 M992.174,222.209c-3.719,0-6.73-3.016-6.73-6.73c0-3.719,3.016-6.732,6.73-6.732c3.717,0,6.732,3.016,6.732,6.732
	S995.893,222.209,992.174,222.209z M1048.747,274.209c-3.719,0-6.732-3.016-6.732-6.73s3.018-6.732,6.732-6.732
	s6.729,3.018,6.729,6.732S1052.463,274.209,1048.747,274.209z"/>
</svg>
