<?xml version="1.0" encoding="utf-8"?>
<!-- Generator: Adobe Illustrator 16.0.0, SVG Export Plug-In . SVG Version: 6.00 Build 0)  -->
<!DOCTYPE svg PUBLIC "-//W3C//DTD SVG 1.1//EN" "http://www.w3.org/Graphics/SVG/1.1/DTD/svg11.dtd">
<svg version="1.1" id="Layer_1" xmlns="http://www.w3.org/2000/svg" xmlns:xlink="http://www.w3.org/1999/xlink" x="0px" y="0px"
	 width="354.094px" height="974.266px" viewBox="0 0 354.094 974.266" enable-background="new 0 0 354.094 974.266"
	 xml:space="preserve">
<path fill="none" stroke="#000000" stroke-linejoin="round" stroke-miterlimit="10" d="M354.016,940.872
	c-3.026-36.623-15.053-296.004-17.311-311.445l-13.092-89.535c-1.562-10.691-109.605-135.728-123.758-156.199
	c-13.199-19.098-77.941-72.038-140.73-303.303C52.372,55.513,23.394,62.232,21.06,66.617c-9.147,17.188-15.79,13.15-12.546,73.224
	c2.035,37.689,7.194,75.148,9.085,112.847c0.108,2.158,2.137,19.983,5.805,53.91l1.336,10.852l0.687,10.862l1.475,10.632
	c0.397,2.226,1.093,9.271,2.163,21.495c2.353,24.228,10.47,68.672,19.146,130.524c2.611,18.247,10.534,52.425,18.673,105.853
	c1.865,12.244,8.971,57.479,12.339,73.625c4.301,20.162,12.17,69.646,17.898,88.492c8.174,26.887,14.876,52.35,23.917,73.43
	c12.63,29.445,17.817,46.326,23.593,54.133c19.752,26.689,48.674,48.533,50.053,49.344c28.756,16.889,44.342,25.312,72.918,31.586
	c17.139,3.764,37.438,9.381,53.794,5.576c10.396-2.551,17.761-5.771,21.938-10.02C346.805,959.608,354.987,952.602,354.016,940.872z
	"/>
</svg>
