<?xml version="1.0" encoding="utf-8"?>
<!-- Generator: Adobe Illustrator 16.0.0, SVG Export Plug-In . SVG Version: 6.00 Build 0)  -->
<!DOCTYPE svg PUBLIC "-//W3C//DTD SVG 1.1//EN" "http://www.w3.org/Graphics/SVG/1.1/DTD/svg11.dtd">
<svg version="1.1" id="Layer_1" xmlns="http://www.w3.org/2000/svg" xmlns:xlink="http://www.w3.org/1999/xlink" x="0px" y="0px"
	 width="346.414px" height="911.904px" viewBox="0 0 346.414 911.904" enable-background="new 0 0 346.414 911.904"
	 xml:space="preserve">
<path d="M346.336,878.509c-3.028-36.623-15.054-296.004-17.312-311.444l-13.092-89.535
	c-1.562-10.691-109.604-135.729-123.757-156.198c-13.199-19.099-77.94-72.038-140.729-303.303
	C44.692-6.851,15.714-0.131,13.38,4.254C4.234,21.441-2.41,17.404,0.834,77.478c2.034,37.689,7.193,75.148,9.085,112.848
	c0.107,2.157,2.138,19.982,5.806,53.909l1.337,10.852l0.688,10.862l1.476,10.632c0.396,2.226,1.094,9.271,2.163,21.495
	c2.354,24.228,10.471,68.672,19.146,130.523c2.61,18.247,10.534,52.425,18.673,105.853c1.865,12.244,8.973,57.479,12.34,73.625
	c4.302,20.162,12.17,69.646,17.897,88.492c8.174,26.887,14.876,52.35,23.917,73.43c12.63,29.445,17.815,46.326,23.593,54.133
	c19.752,26.689,48.675,48.533,50.054,49.344c28.757,16.89,44.343,25.312,72.918,31.586c17.139,3.765,37.438,9.382,53.794,5.576
	c10.397-2.551,17.76-5.771,21.938-10.02C339.124,897.245,347.306,890.238,346.336,878.509z"/>
</svg>
