<?xml version="1.0" encoding="utf-8"?>
<!-- Generator: Adobe Illustrator 16.0.0, SVG Export Plug-In . SVG Version: 6.00 Build 0)  -->
<!DOCTYPE svg PUBLIC "-//W3C//DTD SVG 1.1//EN" "http://www.w3.org/Graphics/SVG/1.1/DTD/svg11.dtd">
<svg version="1.1" id="Layer_1" xmlns="http://www.w3.org/2000/svg" xmlns:xlink="http://www.w3.org/1999/xlink" x="0px" y="0px"
	 width="359.914px" height="970.84px" viewBox="0 0 359.914 970.84" enable-background="new 0 0 359.914 970.84"
	 xml:space="preserve">
<path fill="none" stroke="#000000" stroke-linejoin="round" stroke-miterlimit="10" d="M317.395,60.236
	c-11.614-4.536-19.843-15.834-19.843-29.055C297.552,13.96,311.512,0,328.733,0c17.221,0,31.181,13.96,31.181,31.181
	c0,13.222-8.229,24.521-19.845,29.056c-1.657,1.727-0.209,3.249,1.122,4.552c1.325,0.652,2.231,1.357,2.565,2.004
	c8.938,17.299,15.629,13.342,11.648,73.365c-2.496,37.661-8.116,75.055-10.472,112.727c-0.137,2.156-2.383,19.955-6.469,53.834
	L337,317.553l-0.82,10.854l-1.604,10.613c-0.424,2.221-1.205,9.257-2.426,21.467c-2.65,24.197-11.312,68.539-20.744,130.281
	c-2.836,18.215-11.181,52.291-19.973,105.613c-2.015,12.221-9.679,57.365-13.242,73.469c-4.545,20.108-13.021,69.493-18.98,88.266
	c-8.504,26.785-15.518,52.164-24.816,73.133c-12.99,29.289-18.385,46.109-24.256,53.838c-20.078,26.451-49.265,47.935-50.654,48.73
	c-28.962,16.534-44.648,24.766-73.3,30.688c-17.181,3.555-37.55,8.922-53.857,4.916c-10.365-2.68-17.689-5.988-21.813-10.285
	c-3.431-3.412-11.526-10.517-10.411-22.235c3.479-36.584,18.683-295.798,21.13-311.211l14.188-89.368
	c1.693-10.671,111.262-134.371,125.663-154.667c13.435-18.934,78.819-71.075,144.442-301.554c2.428-8.526,7.438-13.284,13.06-15.675
	c0.474-0.683,0.896-1.581,0.628-2.424c-0.276-0.877-1.2-1.175-1.817-1.76L317.395,60.236z"/>
</svg>
