<?xml version="1.0" encoding="utf-8"?>
<!-- Generator: Adobe Illustrator 16.0.0, SVG Export Plug-In . SVG Version: 6.00 Build 0)  -->
<!DOCTYPE svg PUBLIC "-//W3C//DTD SVG 1.1//EN" "http://www.w3.org/Graphics/SVG/1.1/DTD/svg11.dtd">
<svg version="1.1" id="Layer_1" xmlns="http://www.w3.org/2000/svg" xmlns:xlink="http://www.w3.org/1999/xlink" x="0px" y="0px"
	 width="1053.99px" height="419.977px" viewBox="0 0 1053.99 419.977" enable-background="new 0 0 1053.99 419.977"
	 xml:space="preserve">
<path fill="none" stroke="#000000" stroke-linejoin="round" stroke-miterlimit="10" d="M62.32,29.576
	C61.485,13.101,47.863,0,31.181,0C13.961,0,0.001,13.96,0.001,31.18s13.96,31.18,31.181,31.18c9.648,0,18.274-4.383,23.993-11.267
	c9.514-4.448,18.842,4.97,26.046,10.056c3.782,3.33,7.941,6.803,12.479,10.412c24.001,19.2,49.199,35.667,75.733,49.439
	c16.261,8.491,25.222,13.114,26.773,13.986c22.283,12.542,82.042,38.437,123.608,56.447
	c116.609,50.526,233.075,101.383,349.721,151.829c55.873,24.164,150.146,64.936,166.193,75.668c0.379,0.252,1.693,0.613,3.814,1.047
	c20.37-17.932,32.043-28.094,35.122-30.607c40.642-32.755,84.468-57.539,105.632-65.023c3.291-1.107,27.301-8.34,29.758-8.855
	l29.608-9.429c6.539-2.082,19.135-6.09,12.404-14.448l-9.191-11.403c-1.149-1.51-15.967-6.842-44.332-16.115l-14.997-4.934
	c-77.898-25.473-138.011-44.494-180.154-56.874C587.683,138.648,370.347,88.301,151.414,51.403
	c-21.03-3.545-41.747-9.22-62.906-11.855c-2.306-0.646-4.721-0.973-7.097-1.221c-6.896-0.721-15.671-1.671-19.09-8.72L62.32,29.576z
	"/>
</svg>
