<?xml version="1.0" encoding="utf-8"?>
<!-- Generator: Adobe Illustrator 16.0.0, SVG Export Plug-In . SVG Version: 6.00 Build 0)  -->
<!DOCTYPE svg PUBLIC "-//W3C//DTD SVG 1.1//EN" "http://www.w3.org/Graphics/SVG/1.1/DTD/svg11.dtd">
<svg version="1.1" id="Layer_1" xmlns="http://www.w3.org/2000/svg" xmlns:xlink="http://www.w3.org/1999/xlink" x="0px" y="0px"
	 width="1284.871px" height="358.598px" viewBox="0 0 1284.871 358.598" enable-background="new 0 0 1284.871 358.598"
	 xml:space="preserve">
<path fill="none" stroke="#000000" stroke-linejoin="round" stroke-miterlimit="10" d="M1277.873,246.916
	c-8.312-16.503-24.742-39.592-38.52-51.585c-73.435-63.938-208.023-185.6-222.312-189.474c-21.426-5.811-98.393-2.522-144.596-3.163
	c-23.75-0.324-103.513-2.618-172.427-2.69c-24.954-0.024-57.177,0.064-72.17,0.654C541.672,4.035,453.69,5.003,385.582,8.003
	c-0.525,0.021-146.902,140.053-224.299,195.834c-29.158,21.018-67.977,46.509-80.541,58.631
	c-17.398,16.792-16.75,25.191-18.24,35.891c-0.922,6.623,2.569,22.775,13.291,24.832l13.515,6.429
	c32.773,6.277,62.401,11.011,95.491,15.377c20.239,2.668,79.395,9.759,131.374,11.282c26.056,0.769,48.427,1.159,65.109,1.408
	c17.749,0.268,61.771,1.354,88.056,0.71c105.357-2.576,271.692-4.979,291.928-6.081c84.896-4.637,230.668-9.027,255.539-10.511
	c3.148-0.188,26.838-1.575,68.031-4.667c55.953-4.196,137.98-6.383,165.828-17.021l12.203-4.661
	C1296.083,306.747,1283.291,257.677,1277.873,246.916z"/>
</svg>
