<?xml version="1.0" encoding="utf-8"?>
<!-- Generator: Adobe Illustrator 16.0.0, SVG Export Plug-In . SVG Version: 6.00 Build 0)  -->
<!DOCTYPE svg PUBLIC "-//W3C//DTD SVG 1.1//EN" "http://www.w3.org/Graphics/SVG/1.1/DTD/svg11.dtd">
<svg version="1.1" id="Layer_1" xmlns="http://www.w3.org/2000/svg" xmlns:xlink="http://www.w3.org/1999/xlink" x="0px" y="0px"
	 width="1442.297px" height="675.386px" viewBox="0 0 1442.297 675.386" enable-background="new 0 0 1442.297 675.386"
	 xml:space="preserve">
<path fill="none" stroke="#000000" stroke-linejoin="round" stroke-miterlimit="10" d="M1381.598,263.998
	c-5.438-37.515-136.361-99.412-237.412-140.919c-6.969-2.862-82.104-39.16-119.854-41.326c-8.709-0.5,0.198,24.753-5.837,36.81
	c-9.47,18.923-39.878,66.992-92.618,34.321c-48.298-29.919-31.718-70.539-17.611-80.343c6.314-4.387,30.412-14.902,7.58-26.332
	C894.995,35.771,739.698,7.61,655.755,2.083c-13.844-0.912-49.177-2.852-62.784-1.756c-11.109,0.895-63.786,7.01-74.823,8.312
	c-18.419,2.171-42.828,3.522-67.093,13.505c-28.653,11.792-48.522,14.539-57.259,23.539c-3.604,3.538-12.74,47.29-36.168,90.244
	c-59.101,108.362-163.609,183.951-164.429,184.73c-52.948,44.807-60.238,52.395-86.907,68.934
	c-0.604,0.375-24.62,16.457-39.17,26.82c-7.415,5.283-9.965,4.455-36.647,28.631c-8.359,7.572-21.728,23.305-26.21,33.725
	c-8.566,19.918-3.471,33.344,8.539,51.873c6.125,9.451,18.928,22.961,35.493,41.127c15.756,17.277,37.444,42.521,47.654,50.35
	c5.632,4.312,33.63,26.758,35.398,28.387c20.549,18.945,37.427-5.17,44.361-16.422c8.115-13.166,23.814-26.719,57.32-14.389
	c9.185,3.381,48.055,27.27,76.249,52.938c7.062,6.436,30.052,0.244,40.856-4.674c18.828-8.369,24.29-14.057,47.99-24.482
	c24.331-10.697,65.094-27.68,99.142-35.09c35.719-7.77,77.768-11.117,94.779-11.682c37.271-1.232,41.95,3.941,78.579,10.578
	c18.715,3.391,45.104,19.479,52.575,18.729l29.163-2.93l37.651-43.104c14.842-21.164,40.582-49.385,58.693-67.461l72.834-72.688
	c-2.365,2.225,32.326-32.974,38.127-39.093c8.146-8.592,53.229-79.603,239.283-58.452l101.071,11.487
	C1400.875,341.835,1382.43,269.739,1381.598,263.998z"/>
</svg>
