<?xml version="1.0" encoding="utf-8"?>
<!-- Generator: Adobe Illustrator 16.0.0, SVG Export Plug-In . SVG Version: 6.00 Build 0)  -->
<!DOCTYPE svg PUBLIC "-//W3C//DTD SVG 1.1//EN" "http://www.w3.org/Graphics/SVG/1.1/DTD/svg11.dtd">
<svg version="1.1" id="Layer_1" xmlns="http://www.w3.org/2000/svg" xmlns:xlink="http://www.w3.org/1999/xlink" x="0px" y="0px"
	 width="533.18px" height="773.898px" viewBox="0 0 533.18 773.898" enable-background="new 0 0 533.18 773.898"
	 xml:space="preserve">
<path fill="none" stroke="#000000" stroke-linejoin="round" stroke-miterlimit="10" d="M495.277,65.238
	c0-1.803,0.944-2.506,2.481-3.163c1.388,0.188,2.802,0.286,4.24,0.286c17.221,0,31.181-13.96,31.181-31.181
	C533.181,13.96,519.221,0,502,0s-31.181,13.96-31.181,31.181c0,7.588,2.711,14.544,7.219,19.952
	c0.396,2.101-0.601,2.801-2.558,3.224c-1.825-0.302-3.699-0.459-5.61-0.459l0,0H34.13l0,0C15.28,53.898,0,69.178,0,88.027l0,0
	v651.741l0,0c0,18.851,15.28,34.132,34.13,34.132l0,0h435.74l0,0c18.849,0,34.13-15.281,34.131-34.133l0,0V88.027l0,0
	c0-8.757-3.299-16.744-8.722-22.787L495.277,65.238z"/>
</svg>
