<?xml version="1.0" encoding="utf-8"?>
<!-- Generator: Adobe Illustrator 16.0.0, SVG Export Plug-In . SVG Version: 6.00 Build 0)  -->
<!DOCTYPE svg PUBLIC "-//W3C//DTD SVG 1.1//EN" "http://www.w3.org/Graphics/SVG/1.1/DTD/svg11.dtd">
<svg version="1.1" id="Layer_1" xmlns="http://www.w3.org/2000/svg" xmlns:xlink="http://www.w3.org/1999/xlink" x="0px" y="0px"
	 width="1561.381px" height="932.083px" viewBox="0 0 1561.381 932.083" enable-background="new 0 0 1561.381 932.083"
	 xml:space="preserve">
<path d="M1560.805,336.172c-0.945-0.432-1.514-0.637-1.623-0.584l-13.111,0.776c-94.999,5.739-147.275,8.903-156.896,9.654
	c-51.312,3.787-81.807,6.001-91.559,6.612l-39.177,2.66c-29.963,1.763-51.764,3.258-65.381,4.677
	c-14.436,1.399-26.955,4.863-37.396,10.449c-8.7,4.564-18.739,12.587-30.061,23.907c-1.442-0.062-2.852-0.478-4.201-1.056
	c-7.829-23.807-20.646-55.644-38.234-95.614c-45.373-102.768-95.562-182.25-150.618-238.284c-35.598-36.284-72.408-58.25-81-59.329
	c-7.807-0.979-54.648,16.608-56.372,19.103c-1.863,2.628-2.74,5.062-2.63,7.301l0.446,14.275
	c1.103,32.565-8.846,59.41-17.804,71.305c-10.03,13.342-25.653,23.386-46.899,30.213c-14.521,4.665-30.32,8.651-45.526,4.784
	c-15.067-3.833-30.021-14.717-39.728-26.665c-7.674-9.446-11.666-29.929-26-31.574c-1.496-0.172-51.057,20.377-60.648,24.619
	c-27.927,12.395-43.914,19.375-48.021,21.104c-27.367,11.525-55.979,24.984-83.719,38.03c-20.743,9.756-32.031,16.412-33.753,19.917
	c-1.927,3.923,1.78,6.235,4.198,8.646c3.003,2.992,6.312,5.737,9.593,8.423c2.236,1.832,4.523,3.613,6.809,5.382
	c18.263,14.185,28.604,20.842,31.022,19.973l12.547-4.554c19.479-7.005,53.356-17.348,101.604-30.946
	c12.741-3.567,22.581-4.422,29.327-2.542c6.476,1.874,15.413,7.842,26.626,17.931c15.777,14.207,31.367,29.445,46.666,45.495
	c63.452,66.572,109.858,128.562,139.383,186.029c7.32,14.277,11.478,21.823,12.305,22.581c0.562,0.477,1.312,0.932,2.288,1.281
	c0.405,0.145,9.044-0.686,25.887-2.406c46.072-4.758,80.494-8.214,103.099-10.155c33.894-3.005,51.09-4.69,51.561-4.979
	l10.824-6.644c3.765-2.311,7.646-3.935,11.764-4.928c6.008-1.41,10.294-1.607,12.92-0.753l12.499,4.227
	c3.601,1.205,7.837,1.906,12.714,2.105c3.816,0.092,16.885-1.067,39.228-3.562c13.045-1.452,26.124-2.588,39.18-3.939
	c166.326-17.256,257.867-26.623,274.433-28.08l13.146-1.13c75.961-6.823,119.521-11.478,130.683-13.965
	c0.726-1.755,2.011-7.616,4.104-17.494c3.914-18.753,5.889-28.306,5.865-28.498C1561.539,345.326,1561.43,340.795,1560.805,336.172z
	 M72.696,749.913c8.541-3.814,16.404-5.178,25.688-4.867c2.896,0.061,7.312-0.01,13.195-0.145
	c3.583-4.205,15.361-25.617,35.22-64.227c10.25-19.928,20.668-39.768,30.939-59.684c16.763-32.496,31.945-59.996,45.435-82.486
	l6.954-11.518l9.121-9.951c12.961-14.064,22.165-23.84,27.803-29.291c13.354-12.885,26.19-25.521,38.454-37.836
	c18.796-18.928,28.271-28.49,28.564-28.589c3.172-2.125,7.27-3.752,12.271-5.004l12.812-3.167c3.71-4.651,6.198-8.287,7.447-11.027
	l5.652-12.09c12.79-27.356,43.44-88.059,65.572-131.884c1.229-2.43,2.271-6.312,3.046-11.819c-1.741-1.13-8.981-5.863-21.615-14.335
	c-1.008-0.67-4.627-3.038-10.913-7.032c-8.623-5.479-17.67-10.781-25.686-17.141c-4.836-3.839-1.673-8.782-0.09-13.417
	c0.484-1.415,0.951-3.304,0.234-4.714c-1.057-2.077-3.675-1.689-5.609-1.614c-5.889,0.229-10.527,2.77-15.495,5.583
	c-4.986,2.825-9.944,5.703-14.93,8.539c-4.021,2.288-8.035,4.583-12.053,6.874c-34.093,19.428-68.246,38.749-102.456,57.968
	c-45.544,25.587-68.37,38.449-68.422,38.518c-2.136,2.054-4.623,5.689-7.463,10.906c-2.484,4.619-34.446,94.917-38.869,112.321
	l-3.354,12.777c-0.811,3.302-6.426,8.439-16.776,15.476l-5.941,4.014c-0.959,0.675-4.483,27.063-10.562,79.278
	c-6.165,52.977-12.448,105.938-18.868,158.883c-3.119,25.721-4.687,39.012-4.661,39.684c0.19,4.4,1.056,8.777,2.562,12.891
	C65.723,751.717,70.003,751.114,72.696,749.913z M1522.28,410.473c-65.798,6.172-112.99,10.71-141.583,13.616
	c-8.63,0.877-51.521,4.719-77.288,7.027c-61.677,5.522-126.068,11.66-193.11,18.504c-17.15,1.751-34.44,2.153-51.503,4.719
	l-12.619,1.897l-2.623,0.014c12.781,12.278,18.926,26.194,18.586,41.86c-0.146,7.396-4.035,21.795-6.321,26.229
	c-1.88,3.539-4.639,7.113-8.164,10.562c-7.146,6.971-15.081,10.672-23.811,11.188c-34.479,2.045-61.469-47.279-34.206-85.86
	l-184.608,18.305c-2.749,0.256-15.355,110.539-15.229,113.525c0.336,4.424,1.224,8.672,2.733,12.846
	c3.036,0.664,4.993,0.979,5.957,0.959l13.241,0.211c163.375,2.908,304.405,10.076,423.16,21.604
	c8.425,0.834,25.774,3.191,51.938,7.23l12.967,1.912l12.266-1.867c1.499-0.631,14.82-11.76,39.768-33.244
	c16.341-14.072,32.881-27.91,49.431-41.732c52.677-44.006,85.938-71.572,99.869-82.691c24.938-19.826,38.178-30.969,39.682-33.258
	c3.008-4.581,7.697-20.685,7.211-34.474C1541.709,409.147,1533.093,409.506,1522.28,410.473z M470.109,535.698
	c-8.037-1.312-26.446-2.189-20.521-14.533c4.618-9.621,15.476-18.193,22.555-26.207l-2.405-0.953l-9.976-9.234
	c-1.092-0.988-8.413-6.393-21.993-16.127l-21.849-16.254c-21.062-16.127-35.702-26.93-43.952-32.33
	c-1.356-0.887-9.338,5.107-10.539,6.219c-2.923,2.709-4.896,6.312-7.05,9.625c-4.543,6.979-14.663,9.051-20.731,14.456
	c-7.698,6.854-13.795,16.887-20.318,24.86c-7.472,9.129-14.993,18.213-22.583,27.244c-13.625,16.215-27.438,32.273-41.562,48.057
	c-9.312,10.41-17.361,20.67-24.066,30.812c-23.08,34.637-45.721,69.598-69.144,104c-13.037,19.145-26.256,38.535-38.066,58.447
	c-11.945,20.137-31.664,28.936-54.323,30.295c-2.852,0.172-7.14,0.695-12.867,1.584c-3.78,4.16-6.314,7.516-7.441,10.129
	l-5.306,11.996l-5.675,11.756c-4.562,9.416-9.899,25.939-16.093,49.549C8.965,886.735,3.49,905.249,0,914.532
	c3.675,6.645,5.688,10.227,6.042,10.732c3.236,5.182,5.68,7.443,7.47,6.668l36.09-13.627c10.268-3.906,26.417-9.568,48.456-16.979
	l12.188-4.078c2.029-0.68,19.776-12.48,53.241-35.398c10.414-7.098,17.508-11.895,21.134-14.262l10.768-7.051
	c2.636-1.738,45.896-43.777,129.634-125.99c28.961-28.41,62.338-62.121,100.149-100.939c3.015-3.166,5.998-6.25,8.898-9.365
	c28.938-30.926,43.389-46.812,43.415-47.82c0.113-3.998,0.263-9.248,0.663-11.979l0.875-5.959
	C478.664,537.506,475.685,536.606,470.109,535.698z"/>
</svg>
