<?xml version="1.0" encoding="utf-8"?>
<!-- Generator: Adobe Illustrator 16.0.0, SVG Export Plug-In . SVG Version: 6.00 Build 0)  -->
<!DOCTYPE svg PUBLIC "-//W3C//DTD SVG 1.1//EN" "http://www.w3.org/Graphics/SVG/1.1/DTD/svg11.dtd">
<svg version="1.1" id="Layer_1" xmlns="http://www.w3.org/2000/svg" xmlns:xlink="http://www.w3.org/1999/xlink" x="0px" y="0px"
	 width="1691.07px" height="819.943px" viewBox="0 0 1691.07 819.943" enable-background="new 0 0 1691.07 819.943"
	 xml:space="preserve">
<path fill="none" stroke="#000001" stroke-linejoin="round" stroke-miterlimit="10" d="M882.035,275.972
	c0,25.752,4.816,46.59,10.77,46.59c0.521,0.061,0.937,0.126,1.235,0.196c6.81,1.586,11.06,3.611,12.746,6.047
	c1.68,2.426,3.239,4.689,6.411,4.959c2.638,0.225,5.222-0.855,7.857-0.854c17.22,0.003,31.175,13.964,31.175,31.181
	c0,17.221-13.961,31.181-31.182,31.181c-14.525,0-26.731-9.932-30.196-23.376c-4.373-11.788-14.041-23.905-28.08-21.472
	c-88.35,26.458-187.34,69.472-274.734,170.498c-45.738,52.922-85.997,119.882-120.8,200.691
	c-8.733,20.35-29.766,76.062-32.325,84.748l-3.477,12.168c-0.05,0.235-0.769,0.711-2.164,1.416
	c-4.25-0.824-8.257-2.221-12.113-4.023c-11.978-5.592-21.916-14.521-32.895-21.75c-2.355-1.551-6.336-3.066-12.016-4.502
	l-12.91-0.514c-17.343-0.694-34.623-2.503-51.966-3.188c-7.722-0.303-42.286-2.412-103.765-6.271
	c-17.282-1.084-34.591-1.661-51.874-2.73c-41.997-2.596-63.654-3.881-64.875-3.699l-12.596,1.855l-13.363-3.412l-13.868-0.402
	c-8.607-0.24-13.24-1.02-13.852-2.269c-1.081-2.281-1.764-3.485-2-3.843c2.091-4.049,3.656-8.269,4.936-12.611
	c1.726-6.18,2.6-10.668,2.482-13.683c-0.132-7.127-2.59-13.56-7.278-19.146c-3.15-3.71-6.143-6.079-9.03-6.868l-10.855-3.197
	c-6.347-1.825-9.85-3.242-10.489-4.06c-0.402-0.458-0.685-0.889-0.944-1.44c2.708-5.902,8.502-14.596,16.558-25.182
	c3.297-7.488,4.547-15.674,4.806-23.803c0.059-1.856,0.111-3.713,0.155-5.57c0.049-2.066,0.089-4.133,0.121-6.2
	c0.036-2.323,0.063-4.647,0.083-6.971c0.022-2.612,0.036-5.225,0.044-7.837c0.01-2.915,0.012-5.831,0.011-8.746
	c-0.001-3.22-0.007-6.439-0.016-9.658c-0.009-3.512-0.021-7.022-0.033-10.534c-0.013-3.783-0.027-7.565-0.04-11.348
	c-0.014-4.028-0.027-8.056-0.038-12.083c-0.012-4.244-0.022-8.487-0.029-12.731c-0.008-4.43-0.013-8.859-0.016-13.289
	c-0.003-4.586-0.004-9.173-0.003-13.76c0.001-4.716,0.004-9.431,0.009-14.146c0.005-4.817,0.011-9.635,0.017-14.452
	c0.007-4.894,0.014-9.786,0.021-14.679c0.007-4.943,0.014-9.886,0.02-14.828c0.006-4.968,0.011-9.936,0.015-14.902
	c0.004-4.969,0.007-9.938,0.008-14.905c0.001-4.948,0.002-9.896,0.001-14.843c-0.001-4.908-0.003-9.815-0.006-14.724
	c-0.003-4.852-0.006-9.704-0.01-14.555c-0.004-4.783-0.008-9.566-0.012-14.35c-0.004-4.704-0.008-9.407-0.011-14.11
	c-0.003-4.612-0.006-9.224-0.009-13.836c-0.002-4.507-0.003-9.014-0.004-13.521c-0.001-4.382-0.001-8.765,0-13.147
	c0-4.232,0.002-8.464,0.003-12.696c0.001-4.047,0.003-8.094,0.005-12.141c0.002-3.819,0.004-7.639,0.007-11.458
	c0.002-3.545,0.004-7.09,0.006-10.635c0.001-3.223,0.003-6.446,0.004-9.669c0.001-2.858,0.002-5.717,0.002-8.575
	c0-2.463,0.001-4.927,0.001-7.39c0-2.056,0-4.112-0.001-6.168c0-1.66-0.001-3.319-0.002-4.979c0-1.3-0.001-2.6-0.002-3.9
	c-0.001-1.004-0.001-2.007-0.002-3.011c0-0.793-0.001-1.586-0.001-2.38c0-0.659-0.001-1.318-0.001-1.978
	c1.895-3.978,4.341-7.601,7.29-10.939c7.848-9.03,125.915-94.585,129.711-95.895c3.987-1.334,25.443-0.504,64.463,2.635
	c37.131,2.956,75.762,4.9,116.136,5.879c64.003,1.489,102.847,2.045,116.308,1.503l12.959-0.517l12.914,0.034
	c2.917,0.011,7.05-0.798,12.543-2.522c0.349-1.795,0.03-3.349-0.979-4.54c-0.818-0.905-18.406-3.092-53.124-6.634
	c-31.22-3.185-62.419-6.575-93.557-10.483c-26.667-3.347-53.628-4.558-80.042-9.711c-2.871-0.56-7.227-1.161-13.042-1.922
	c-5.889-0.772-8.81-8.968-2.687-11.706c5.512-2.465,13.77-5.948,24.941-10.354c44.923-17.887,81.018-36.066,108.41-54.516
	c11.226-7.563,22.382-15.078,33.61-22.64l11.229-7.562L441.535,0l12.806,2.496l12.687,1.853c2.894,0.441,15.603,2.485,38.414,6.25
	c11.439,1.859,24.194,3.664,38.266,5.415l64.039,8.949l76.626,10.659c33.408,4.84,71.863,9.917,115.127,15.188
	c17.075,2.08,34.042,4.967,51.117,7.051c28.089,3.429,45.126,5.572,51.229,6.451l115.105,14.996
	c10.819,1.551,27.83,3.814,51.138,6.621c11.103,1.358,23.811,3.091,38.36,5.246l38.408,5.006c21.245,3.113,42.646,5.01,63.891,8.113
	c5.074,0.741,26.419,3.414,63.986,7.946c21.304,2.57,42.637,4.897,63.914,7.683l38.766,5.077
	c35.933,4.954,77.011,10.803,122.57,17.064c48.228,6.631,94.676,12.634,139.571,18.082c30.678,3.698,47.089,7.613,49.155,11.592
	l3.575,6.887c1.317,2.536,1.218,6.563-2.209,6.974c-16.673,2.006-158.698,10.431-266.861,16.665
	c-5.683,1.127-22.706,2.714-51.104,4.691c-139.163,9.631-250.521,17.481-334.074,23.546c-50.567,3.657-97.305,6.947-140.208,9.869
	C888.205,240.37,882.035,256.293,882.035,275.972z"/>
</svg>
