<?xml version="1.0" encoding="utf-8"?>
<!-- Generator: Adobe Illustrator 16.0.0, SVG Export Plug-In . SVG Version: 6.00 Build 0)  -->
<!DOCTYPE svg PUBLIC "-//W3C//DTD SVG 1.1//EN" "http://www.w3.org/Graphics/SVG/1.1/DTD/svg11.dtd">
<svg version="1.1" id="Layer_1" xmlns="http://www.w3.org/2000/svg" xmlns:xlink="http://www.w3.org/1999/xlink" x="0px" y="0px"
	 width="1694.938px" height="824.207px" viewBox="0 0 1694.938 824.207" enable-background="new 0 0 1694.938 824.207"
	 xml:space="preserve">
<path fill="none" stroke="#000000" stroke-linejoin="round" stroke-miterlimit="10" d="M800.978,243.963
	c117.905,7.151,206.423,11.69,265.469,13.561c34.233,1.085,68.463,2.283,102.698,3.337c50.395,1.551,101.644,1.498,153.866-0.184
	c15.02-0.491,32.113-1.776,51.12-3.76c60.848-6.414,129.016-11.698,204.552-15.924c26.948-1.477,48.278-2.126,63.971-1.759
	c15.426,0.297,24.032,0.42,25.709,0.392l1.43-2.156"/>
<path fill="none" stroke="#000000" stroke-linejoin="round" stroke-miterlimit="10" d="M784.815,337.906
	c-0.518,1.839,0.258,3.873,2.329,6.092c1.775,1.862,9.952,4.771,24.604,8.777c7.254,1.983,14.593,4.061,22.004,6.257"/>
<path fill="none" stroke="#000001" stroke-linejoin="round" stroke-miterlimit="10" d="M798.174,330.384
	c7.171-1.738,81.154-1.455,89.604-1.036l25.651,0.94c25.67,0.437,59.825,2.035,102.584,4.765
	c100.242,6.332,185.411,18.543,255.528,36.441c103.209,26.397,196.702,98.439,267.39,162.252
	c58.052,52.4,129.559,129.472,151.243,163.242"/>
</svg>
