<?xml version="1.0" encoding="utf-8"?>
<!-- Generator: Adobe Illustrator 16.0.0, SVG Export Plug-In . SVG Version: 6.00 Build 0)  -->
<!DOCTYPE svg PUBLIC "-//W3C//DTD SVG 1.1//EN" "http://www.w3.org/Graphics/SVG/1.1/DTD/svg11.dtd">
<svg version="1.1" id="Layer_1" xmlns="http://www.w3.org/2000/svg" xmlns:xlink="http://www.w3.org/1999/xlink" x="0px" y="0px"
	 width="2027.295px" height="1051.953px" viewBox="0 0 2027.295 1051.953" enable-background="new 0 0 2027.295 1051.953"
	 xml:space="preserve">
<path fill="none" stroke="#000000" stroke-linejoin="round" stroke-miterlimit="10" d="M84.125,25.886
	c6.787-0.209,16.901-0.258,30.341-0.113c114.959,1.014,184.214,26.167,256.73,61.825c8.282,4.016,16.152,7.744,23.692,11.277
	c0.419,0.202,75.288,38.264,81.102,41.767l11.127,6.714c13.037,7.88,20.806,11.861,23.122,12.104l4.64,0.398
	c4.807,0.497,10.744-1.694,17.637-6.501l6.983-4.888c0.182-0.16,2.769-0.072,7.771,0.093c1.039-0.017,8.793,4.222,23.271,12.458
	c15.288,8.694,31.053,16.562,45.957,25.915c26.162,16.417,54.128,29.693,80.771,45.288c30.558,17.885,61.866,34.452,92.396,52.381
	c25.016,14.69,59.86,35.151,75.881,42.599c2.379,1.105,29.008,15.781,79.82,43.979c33.495,18.539,60.005,33.237,79.723,44.122
	c119.613,65.99,198.846,111.135,237.557,135.333c4.701,2.907,8.354,5.2,11.015,6.811c98.639,59.683,134.418,71.527,164.076,77.203
	c-4.363,20.418-6.543,30.629-6.523,30.747c-0.489,4.991-0.407,10.064,0.228,15.095c1.149,1.522,2.646,2.235,4.49,2.137
	c2.032-0.073,3.92-1.604,5.582-4.645c0.37-0.688,4.434-18.072,4.852-20.818l3.053-16.941l7.131-2.206l12.939-0.13
	c21.424-0.215,42.834-1.104,64.258-1.364c41.029-0.497,120.154-2.021,180.225-3.175l12.918-0.247
	c16.482-0.106,33.658-0.474,51.604-1.041c32.012-0.974,49.229-0.782,51.51,0.466c0.976,0.558,1.972,1.241,2.847,1.945
	c1.592,18.746,2.875,28.928,3.885,30.658l7.772,13.369l11.961,5.574c4.675,1.107,35.234-0.332,91.699-4.209
	c42.513-2.875,64.361-4.118,65.576-3.6l11.535,5.283c2.854,1.326,3.198,14.104-2.379,17.199l-11.462,6.362
	c-17.697,9.828-36.631,20.692-56.65,32.692c-44.041,26.177-65.548,46.146-65.914,46.832l-125.002,266.568
	c-5.395,1.01-9.363,1.01-11.861-0.074l-11.778-4.928l-12.127-3.811c-2.572-0.822-4.22-2.995-4.849-6.35
	c-0.137-0.721-0.078-1.412,0.168-2.078c3.219-3.024,5.828-5,7.894-5.885l9.303-3.664c2.307-0.93,22.622-21.297,15.563-40.754
	c-1.523-4.177-4.275-7.943-7.613-10.855c-0.521-0.461-4.991-2.474-13.627-6.189c-8.901-3.832-18.428-5.605-27.812-8.064
	c-14.027-3.678-24.46-2.43-27.771,2.408l-8.135,11.885c-2.045,2.986-3.77,26.57-2.354,28.168c3.68,4.148,9.705,10.941,9.326,13.697
	l-3.646,6.699c-5.7,0.694-9.764,0.523-12.479-0.395l-12.289-4.336c-29.076-10.188-57.769-20.322-86.271-30.43l-36.938-13.057
	c-147.427-52.222-254.16-89.855-320.197-112.908c-125.215-43.603-190.793-67.174-196.731-70.404
	c-3.802-2.078-6.646-4.03-8.537-5.846c-2.317-2.229-10.563-16.854-15.447-25.52c-5.854-10.379-23.195-37.398-23.717-37.859
	l-14.11-21.361c-0.461-1.467-8.393-11.703-23.826-30.834c-23.698-29.494-49.989-58.25-78.893-86.396
	c-37.108-36.161-105.102-94.823-106.311-95.651l-22.084-19.718c-13.67-12.589-39.901-34.93-78.709-66.929
	c-19.562-16.183-46.461-37.615-80.604-64.461c-23.719-18.625-51.286-39.15-82.78-61.67c-41.625-29.858-82.013-55.052-121.062-75.748
	c-65.003-34.372-112.061-47.83-132.755-53.634l-12.546-3.611c-2.971-0.806-13.713-8.098-32.148-21.786
	c-32.835-24.425-53.666-39.744-62.488-46.042c-14.062-10.08-25.264-18.271-33.546-24.531c-3.565-1.443-6.932-3.103-10.414-4.72
	c-2.794-1.298-6.693-2.871-9.525-0.812C55.55,54.243,44.313,62.362,31.181,62.362C13.96,62.362,0,48.402,0,31.181
	C0,13.96,13.96,0,31.181,0c13.309,0,24.67,8.338,29.144,20.075c2.141,2.292,5.006,3.364,8.058,3.76
	c0.9,0.117,1.808,0.163,2.708,0.287c1.943,0.268,3.89,0.512,5.832,0.784c1.625,0.228,3.255,0.417,4.877,0.651
	c0.765,0.11,1.57,0.155,2.326,0.311c0.021,0.004,0.04,0.012,0.061,0.017L84.125,25.886z"/>
</svg>
