<?xml version="1.0" encoding="utf-8"?>
<!-- Generator: Adobe Illustrator 16.0.0, SVG Export Plug-In . SVG Version: 6.00 Build 0)  -->
<!DOCTYPE svg PUBLIC "-//W3C//DTD SVG 1.1//EN" "http://www.w3.org/Graphics/SVG/1.1/DTD/svg11.dtd">
<svg version="1.1" id="Layer_1" xmlns="http://www.w3.org/2000/svg" xmlns:xlink="http://www.w3.org/1999/xlink" x="0px" y="0px"
	 width="3538.508px" height="1376.361px" viewBox="0 0 3538.508 1376.361" enable-background="new 0 0 3538.508 1376.361"
	 xml:space="preserve">
<path fill="none" stroke="#000000" stroke-linejoin="round" stroke-miterlimit="10" d="M533.022,633.878
	c-1.354,1.107-2.226,2.055-2.612,2.843c-0.461,1.026-0.87,2.162-1.169,3.245c4.783,5.298,12.021,11.662,21.768,19.206
	c18.263,14.188,28.604,20.842,31.023,19.976l12.547-4.557c19.479-7.005,53.354-17.348,101.604-30.943
	c12.74-3.567,22.58-4.425,29.326-2.543c6.477,1.875,15.413,7.843,26.626,17.932c15.778,14.207,31.368,29.445,46.666,45.495
	c63.452,66.569,109.859,128.562,139.384,186.026c7.314,14.285,11.47,21.831,12.297,22.588c0.562,0.477,1.312,0.932,2.285,1.278
	c0.406,0.146,9.047-0.682,25.89-2.403c46.071-4.761,80.494-8.217,103.097-10.153c33.893-3.005,51.089-4.693,51.562-4.981
	l10.821-6.641c3.768-2.312,7.649-3.938,11.768-4.928c6.007-1.41,10.293-1.607,12.919-0.753l12.5,4.228
	c3.599,1.204,7.836,1.906,12.714,2.104c3.813,0.092,16.882-1.067,39.225-3.562c13.045-1.455,26.124-2.588,39.181-3.939
	c166.326-17.259,257.865-26.623,274.432-28.08l13.146-1.134c75.959-6.819,119.521-11.478,130.683-13.965
	c0.724-1.755,2.01-7.612,4.102-17.493c3.914-18.753,5.892-28.306,5.866-28.494c0.384-4.631,0.274-9.158-0.351-13.782
	c-0.945-0.436-1.516-0.638-1.623-0.585l-13.111,0.773c-94.999,5.739-147.279,8.903-156.896,9.654
	c-51.312,3.787-81.807,6.001-91.559,6.612l-39.176,2.659c-29.962,1.765-51.765,3.259-65.381,4.678
	c-14.438,1.396-26.955,4.861-37.398,10.449c-8.701,4.562-18.738,12.587-30.058,23.904c-1.444-0.062-2.854-0.478-4.202-1.056
	c-7.83-23.808-20.646-55.646-38.236-95.614c-45.373-102.768-95.56-182.25-150.617-238.284c-35.598-36.282-72.407-58.25-81-59.329
	c-0.559-0.07-1.317-0.045-2.244,0.063"/>
<path fill="none" stroke="#000000" stroke-linejoin="round" stroke-miterlimit="10" d="M199.413,1196.066
	c5.831-0.066,10.117-0.676,12.792-1.873l12.292-5.314l13.394,0.447c2.896,0.061,7.313-0.01,13.196-0.146
	c3.583-4.205,15.363-25.618,35.219-64.224c10.25-19.928,20.667-39.771,30.941-59.687c16.762-32.494,31.946-59.994,45.433-82.483
	l6.955-11.521l9.121-9.947c12.961-14.065,22.165-23.844,27.802-29.291c13.357-12.889,26.192-25.521,38.454-37.841
	c18.796-18.925,28.273-28.487,28.567-28.589c3.172-2.125,7.267-3.752,12.271-5.004l12.812-3.167
	c3.71-4.649,6.198-8.287,7.447-11.025l5.649-12.092c12.79-27.354,43.443-88.059,65.575-131.884c1.227-2.43,2.271-6.312,3.044-11.818
	c-1.742-1.131-8.979-5.861-21.616-14.336c-1.007-0.67-4.627-3.036-10.913-7.029c-17.022-11.108-25.886-16.987-26.546-17.825
	c-1.252-1.623-2.087-3.361-2.521-5.334c2.003-3.573,3.438-7.261,4.414-11.194"/>
<path fill="none" stroke="#000000" stroke-linejoin="round" stroke-miterlimit="10" d="M2503.896,904.332
	c-0.494-1.957-11.746-20.687-25.818-36.665c-72.307-82.431-371.081-347.35-523.708-463.854
	c-47.988-36.628-83.183-61.618-105.58-74.971c-140.711-83.744-282.57-71.053-399.044-57.35
	c-88.354,10.459-135.325,16.177-140.938,17.275c-55.672,10.897-112.547,12.86-168.809,19.388
	c-7.229,0.839-11.632,1.366-13.126,1.552c-22.868,2.31-35.964,3.942-39.317,4.817c-14.387,3.857-19.082,9.551-13.896,17.1
	c5.289,2.363,9.312,3.54,12.229,3.471l13.223-0.3c47.103-1.069,94.268,2.02,140.571,10.885
	c33.651,6.444,100.439,20.102,156.714,54.96c21.37,13.22,88.983,63.725,132.882,102.917
	c60.423,54.031,94.585,93.163,155.459,173.043c11.557,15.188,21.668,29.166,30.334,41.938l7.263,10.702
	c3.196,4.709,5.252,19.257,3.221,25.322l-4.059,12.444l-3.221,12.605l-3.63,12.466c-2.396,8.294-9.733,37.866-21.989,88.906
	l-3.054,12.698c-1.921,7.766-2.726,11.955-2.407,12.574"/>
<path fill="none" stroke="#000000" stroke-linejoin="round" stroke-miterlimit="10" d="M1573.805,130.461
	c-0.234,0.935-0.293,1.795-0.174,2.581c3.089,2.887,6.271,5.694,9.636,8.342c8.368,6.613,22.28,16.885,41.57,30.718
	c8.821,6.298,29.651,21.617,62.487,46.042c18.437,13.688,29.178,20.98,32.146,21.786l12.547,3.611
	c20.694,5.804,67.752,19.262,132.754,53.634c39.049,20.696,79.438,45.89,121.065,75.748c31.494,22.52,59.062,43.045,82.778,61.67
	c34.143,26.846,61.041,48.278,80.604,64.462c38.805,32,65.039,54.339,78.709,66.927l22.084,19.721
	c1.209,0.827,69.2,59.487,106.31,95.649c28.903,28.146,55.192,56.904,78.895,86.396c15.431,19.13,23.363,29.368,23.824,30.833
	l14.111,21.359c0.521,0.462,17.862,27.483,23.717,37.863c4.885,8.663,13.129,23.289,15.447,25.519
	c1.891,1.814,4.735,3.766,8.539,5.845c0.29,0.157,0.723,0.364,1.298,0.619"/>
<path fill="none" stroke="#000000" stroke-linejoin="round" stroke-miterlimit="10" d="M805.679,244.249
	c115.56,6.988,202.509,11.431,260.768,13.276c34.231,1.085,68.463,2.283,102.698,3.336c50.392,1.551,101.641,1.498,153.864-0.184
	c15.02-0.491,32.113-1.776,51.121-3.76c60.849-6.414,129.017-11.698,204.551-15.924c26.948-1.477,48.279-2.126,63.971-1.759
	c15.426,0.297,24.034,0.42,25.709,0.392l1.43-2.156c-1.923-3.965-4.396-7.57-7.368-10.887
	c-7.914-8.973-126.594-93.675-130.396-94.957c-3.997-1.306-25.446-0.32-64.442,3.099c-37.108,3.223-75.726,5.446-116.089,6.716
	c-63.992,1.95-102.827,2.786-116.292,2.34l-12.963-0.423l-12.914,0.127c-2.917,0.031-7.06-0.748-12.562-2.433
	c-0.361-1.792-0.057-3.348,0.945-4.546c0.812-0.911,18.382-3.226,53.073-7.017c31.193-3.41,62.37-7.025,93.479-11.158
	c26.646-3.539,53.596-4.944,79.971-10.287c2.867-0.581,7.221-1.213,13.027-2.017c5.882-0.813,8.744-9.03,2.604-11.724"/>
<path fill="none" stroke="#000000" stroke-linejoin="round" stroke-miterlimit="10" d="M1673.329,894.909
	c4.082-3.518,6.414-5.724,6.996-6.608c3.002-4.581,7.69-20.682,7.205-34.472c-6.312-0.405-14.928-0.046-25.738,0.92
	c-65.798,6.172-112.992,10.71-141.583,13.616c-8.63,0.877-51.522,4.719-77.29,7.024c-61.676,5.525-126.071,11.66-193.112,18.507
	c-17.148,1.75-34.438,2.15-51.502,4.719l-12.62,1.896l-2.623,0.018c12.783,12.273,18.929,26.188,18.586,41.854
	c-0.144,7.4-4.032,21.795-6.318,26.23c-1.88,3.54-4.641,7.11-8.164,10.562c-7.146,6.975-15.081,10.672-23.812,11.188
	c-34.479,2.045-61.469-47.279-34.207-85.858l-184.606,18.302c-2.749,0.259-15.359,110.539-15.229,113.529
	c0.338,4.421,1.227,8.669,2.735,12.842"/>
<path fill="none" stroke="#000000" stroke-linejoin="round" stroke-miterlimit="10" d="M785.763,336.134
	c-1.839,2.277-1.38,4.907,1.382,7.866c1.774,1.862,9.951,4.772,24.604,8.777c7.758,2.121,15.614,4.35,23.552,6.717"/>
<path fill="none" stroke="#000000" stroke-linejoin="round" stroke-miterlimit="10" d="M616.994,1000.7
	c0.112-3.998,0.261-9.248,0.663-11.979l0.875-5.959c-0.358-0.979-3.339-1.88-8.914-2.789c-7.354-1.196-20.3-3.31-21.461-5.989
	c-0.823-1.902-1.084-3.118-0.896-3.603l2.54-6.413l21.851-24.732l-2.405-0.953l-9.979-9.234c-1.092-0.989-8.411-6.392-21.99-16.127
	l-21.852-16.254c-21.062-16.129-35.706-26.934-43.955-32.332l-10.484,4.938l-7.104,10.911c-1.64,2.505-5.138,5.017-10.413,7.562
	l-10.718,7.163l-8.21,10.195c-27.261,33.722-52.534,63.594-75.851,89.691c-9.313,10.409-17.363,20.669-24.068,30.812
	c-58.039,87.1-94.097,141.636-108.173,163.604l-7.054,11.024c-1.608,2.423-4.383,5.685-8.596,9.766l-12.607,2.799l-12.056,4.688
	l-13.046,0.858c-2.85,0.173-7.139,0.699-12.868,1.584"/>
<path fill="none" stroke="#000001" stroke-linejoin="round" stroke-miterlimit="10" d="M801.159,330.002
	c15.737-1.308,78.853-1.038,86.618-0.653l25.651,0.94c25.67,0.437,59.825,2.035,102.584,4.765
	c100.242,6.332,185.411,18.543,255.529,36.441c103.209,26.398,196.701,98.441,267.389,162.253
	c63.56,57.368,143.24,144.308,156.007,171.617c-0.254,0.552-0.534,0.985-0.934,1.448c-0.632,0.821-4.126,2.266-10.459,4.134
	l-10.832,3.275c-2.881,0.81-5.857,3.2-8.975,6.939c-4.651,5.621-7.059,12.066-7.14,19.197c-0.1,3.015,0.808,7.496,2.579,13.664
	c1.31,4.33,2.906,8.539,5.025,12.571c-0.236,0.362-0.911,1.568-1.973,3.857c-0.604,1.253-5.231,2.064-13.835,2.367l-13.865,0.504
	l-13.339,3.508l-12.608-1.765c-1.223-0.175-22.87,1.265-64.848,4.167c-17.275,1.193-34.581,1.893-51.854,3.104
	c-61.446,4.305-95.997,6.662-103.717,7.021c-17.335,0.808-34.602,2.745-51.938,3.56l-12.906,0.607
	c-5.669,1.476-9.64,3.021-11.983,4.588c-10.924,7.304-20.798,16.307-32.733,21.984c-3.848,1.83-7.844,3.257-12.087,4.11
	c-1.399-0.695-2.123-1.163-2.176-1.401l-3.562-12.143c-2.624-8.664-24.059-64.226-32.937-84.513
	c-35.385-80.553-76.125-147.222-122.244-199.815c-36.307-41.363-74.511-72.864-113.079-97.415"/>
</svg>
