<?xml version="1.0" encoding="utf-8"?>
<!-- Generator: Adobe Illustrator 16.0.0, SVG Export Plug-In . SVG Version: 6.00 Build 0)  -->
<!DOCTYPE svg PUBLIC "-//W3C//DTD SVG 1.1//EN" "http://www.w3.org/Graphics/SVG/1.1/DTD/svg11.dtd">
<svg version="1.1" id="Layer_1" xmlns="http://www.w3.org/2000/svg" xmlns:xlink="http://www.w3.org/1999/xlink" x="0px" y="0px"
	 width="458.889px" height="709.199px" viewBox="0 0 458.889 709.199" enable-background="new 0 0 458.889 709.199"
	 xml:space="preserve">
<path d="M298.276,709.199l11.161-0.215l0,0c2.592,0,76.393-16.634,78.553-17.714c3.672-1.87,7.058-4.604,9.791-8.062
	c-8.854-122.039-7.849-240.337,3.099-354.889c10.297-107.496,26.93-202.896,49.969-286.2c6.336-23.256,8.931-36.144,7.772-38.735
	c-0.574-1.225-1.512-2.232-2.664-3.385c-4.246,0.576-8.205,2.089-11.879,4.465c-0.069,0.144-9.289,9.646-27.504,28.512
	c-29.019,30.022-121.97,117-142.99,135.216l0,0l-9.938,8.424l-9.938,8.712l-9.938,8.353l-9.791,8.64l-10.008,8.424l-9.505,9
	l-10.296,8.064l0,0c-2.16,1.728-15.407,12.888-40.031,33.696c-36.647,30.888-77.761,63-123.408,96.264l0,0l-10.438,7.705
	l-10.514,7.631l-10.868,7.418l0,0c-2.23,1.584-5.328,4.606-8.854,9.069c-0.072,0.793-0.072,1.656,0,2.521
	c0.504,4.896,52.775,67.249,65.88,81.938c27.647,30.604,51.479,56.521,71.496,77.688c36.359,38.305,79.991,82.149,130.967,131.258
	C286.541,700.561,296.478,709.199,298.276,709.199L298.276,709.199"/>
</svg>
