<?xml version="1.0" encoding="utf-8"?>
<!-- Generator: Adobe Illustrator 16.0.0, SVG Export Plug-In . SVG Version: 6.00 Build 0)  -->
<!DOCTYPE svg PUBLIC "-//W3C//DTD SVG 1.1//EN" "http://www.w3.org/Graphics/SVG/1.1/DTD/svg11.dtd">
<svg version="1.1" id="Layer_1" xmlns="http://www.w3.org/2000/svg" xmlns:xlink="http://www.w3.org/1999/xlink" x="0px" y="0px"
	 width="1432.275px" height="649.679px" viewBox="0 0 1432.275 649.679" enable-background="new 0 0 1432.275 649.679"
	 xml:space="preserve">
<path d="M882.755,142.28c-47.988-36.627-83.185-61.616-105.58-74.968C636.462-16.432,494.603-3.741,378.129,9.962
	c-88.354,10.459-135.325,16.179-140.938,17.276C181.52,38.135,124.645,40.098,68.383,46.626c-7.229,0.839-11.632,1.366-13.126,1.552
	c-22.867,2.31-35.964,3.942-39.317,4.817c-14.386,3.858-19.082,9.551-13.896,17.1c5.289,2.363,9.312,3.54,12.229,3.471l13.224-0.3
	c47.104-1.069,94.269,2.019,140.569,10.885c33.654,6.444,100.441,20.101,156.714,54.962c21.37,13.217,88.984,63.722,132.882,102.917
	c60.426,54.031,94.585,93.164,155.459,173.043c11.56,15.186,21.669,29.166,30.334,41.936l7.266,10.703
	c3.193,4.709,5.252,19.256,3.223,25.322l-4.061,12.447l-3.224,12.604l-3.629,12.465c-2.396,8.295-9.731,37.867-21.99,88.906
	l-3.053,12.699c-1.921,7.766-2.726,11.957-2.408,12.568c0.607,1.357,1.387,2.5,2.423,3.568c5.649,0.957,9.842,1.449,12.711,1.377
	l12.938-0.129c2.176-0.018,10.812-0.041,25.898-0.07c7.391-0.012,11.671,0,12.915-0.01c202.451-1.709,387.906-2.826,556.363-3.348
	c2.104,0.029,36.611-0.252,103.549-0.658c6.22-0.051,27.74,0.035,64.693,0.281c7.364,0.105,11.67,0,12.938-0.129
	c4.184-0.441,8.286-1.455,12.271-2.807c-0.494-1.957-11.744-20.686-25.817-36.664C1334.154,523.707,1035.382,258.788,882.755,142.28
	z M138.446,65.127c-3.719,0-6.73-3.014-6.73-6.732c0-3.718,3.015-6.732,6.73-6.732c3.72,0,6.732,3.014,6.732,6.732
	C145.178,62.113,142.165,65.127,138.446,65.127z M195.016,65.127c-3.72,0-6.73-3.014-6.73-6.732c0-3.718,3.014-6.732,6.73-6.732
	c3.716,0,6.731,3.014,6.731,6.732C201.748,62.113,198.735,65.127,195.016,65.127z M251.586,65.127c-3.719,0-6.731-3.014-6.731-6.732
	c0-3.718,3.016-6.732,6.731-6.732s6.73,3.014,6.73,6.732C258.318,62.113,255.305,65.127,251.586,65.127z M308.156,117.127
	c-3.719,0-6.729-3.014-6.729-6.732c0-3.718,3.014-6.732,6.729-6.732c3.721,0,6.73,3.014,6.73,6.732
	C314.889,114.113,311.876,117.127,308.156,117.127z M308.156,65.127c-3.719,0-6.729-3.014-6.729-6.732
	c0-3.718,3.014-6.732,6.729-6.732c3.721,0,6.73,3.014,6.73,6.732C314.889,62.113,311.876,65.127,308.156,65.127z M364.727,117.127
	c-3.719,0-6.73-3.014-6.73-6.732c0-3.718,3.017-6.732,6.73-6.732c3.72,0,6.732,3.014,6.732,6.732
	C371.46,114.113,368.446,117.127,364.727,117.127z M364.727,65.127c-3.719,0-6.73-3.014-6.73-6.732c0-3.718,3.017-6.732,6.73-6.732
	c3.72,0,6.732,3.014,6.732,6.732C371.46,62.113,368.446,65.127,364.727,65.127z M421.298,169.127c-3.722,0-6.73-3.014-6.73-6.732
	s3.014-6.732,6.73-6.732c3.716,0,6.729,3.014,6.729,6.732C428.029,166.113,425.016,169.127,421.298,169.127z M421.298,117.127
	c-3.722,0-6.73-3.014-6.73-6.732c0-3.718,3.014-6.732,6.73-6.732c3.716,0,6.729,3.014,6.729,6.732
	C428.029,114.113,425.016,117.127,421.298,117.127z M421.298,65.127c-3.722,0-6.73-3.014-6.73-6.732c0-3.718,3.014-6.732,6.73-6.732
	c3.716,0,6.729,3.014,6.729,6.732C428.029,62.113,425.016,65.127,421.298,65.127z M477.866,221.127
	c-3.719,0-6.729-3.014-6.729-6.732s3.016-6.732,6.729-6.732c3.719,0,6.73,3.014,6.73,6.732
	C484.6,218.113,481.587,221.127,477.866,221.127z M477.866,169.127c-3.719,0-6.729-3.014-6.729-6.732s3.016-6.732,6.729-6.732
	c3.719,0,6.73,3.014,6.73,6.732C484.6,166.113,481.587,169.127,477.866,169.127z M477.866,117.127c-3.719,0-6.729-3.014-6.729-6.732
	c0-3.718,3.016-6.732,6.729-6.732c3.719,0,6.73,3.014,6.73,6.732C484.6,114.113,481.587,117.127,477.866,117.127z M477.866,65.127
	c-3.719,0-6.729-3.014-6.729-6.732c0-3.718,3.016-6.732,6.729-6.732c3.719,0,6.73,3.014,6.73,6.732
	C484.6,62.113,481.587,65.127,477.866,65.127z M534.438,273.127c-3.719,0-6.73-3.014-6.73-6.732s3.017-6.732,6.73-6.732
	c3.72,0,6.732,3.014,6.732,6.732S538.156,273.127,534.438,273.127z M534.438,221.127c-3.719,0-6.73-3.014-6.73-6.732
	s3.017-6.732,6.73-6.732c3.72,0,6.732,3.014,6.732,6.732S538.156,221.127,534.438,221.127z M534.438,169.127
	c-3.719,0-6.73-3.014-6.73-6.732s3.017-6.732,6.73-6.732c3.72,0,6.732,3.014,6.732,6.732S538.156,169.127,534.438,169.127z
	 M534.438,117.127c-3.719,0-6.73-3.014-6.73-6.732c0-3.718,3.017-6.732,6.73-6.732c3.72,0,6.732,3.014,6.732,6.732
	C541.171,114.113,538.156,117.127,534.438,117.127z M534.438,65.127c-3.719,0-6.73-3.014-6.73-6.732c0-3.718,3.017-6.732,6.73-6.732
	c3.72,0,6.732,3.014,6.732,6.732C541.171,62.113,538.156,65.127,534.438,65.127z M591.009,325.127c-3.722,0-6.73-3.015-6.73-6.731
	c0-3.719,3.014-6.732,6.73-6.732c3.716,0,6.729,3.014,6.729,6.732C597.74,322.113,594.727,325.127,591.009,325.127z
	 M591.009,273.127c-3.722,0-6.73-3.014-6.73-6.732s3.014-6.732,6.73-6.732c3.716,0,6.729,3.014,6.729,6.732
	C597.74,270.113,594.727,273.127,591.009,273.127z M591.009,221.127c-3.722,0-6.73-3.014-6.73-6.732s3.014-6.732,6.73-6.732
	c3.716,0,6.729,3.014,6.729,6.732C597.74,218.113,594.727,221.127,591.009,221.127z M591.009,169.127
	c-3.722,0-6.73-3.014-6.73-6.732s3.014-6.732,6.73-6.732c3.716,0,6.729,3.014,6.729,6.732
	C597.74,166.113,594.727,169.127,591.009,169.127z M591.009,117.127c-3.722,0-6.73-3.014-6.73-6.732c0-3.718,3.014-6.732,6.73-6.732
	c3.716,0,6.729,3.014,6.729,6.732C597.74,114.113,594.727,117.127,591.009,117.127z M591.009,65.127c-3.722,0-6.73-3.014-6.73-6.732
	c0-3.718,3.014-6.732,6.73-6.732c3.716,0,6.729,3.014,6.729,6.732C597.74,62.113,594.727,65.127,591.009,65.127z M647.577,429.128
	c-3.719,0-6.729-3.016-6.729-6.732c0-3.714,3.016-6.73,6.729-6.73c3.719,0,6.73,3.019,6.73,6.73
	C654.309,426.113,651.298,429.128,647.577,429.128z M647.577,377.128c-3.719,0-6.729-3.019-6.729-6.731
	c0-3.717,3.016-6.731,6.729-6.731c3.719,0,6.73,3.019,6.73,6.731C654.31,374.111,651.298,377.128,647.577,377.128z M647.577,325.127
	c-3.719,0-6.729-3.015-6.729-6.731c0-3.719,3.016-6.732,6.729-6.732c3.719,0,6.73,3.014,6.73,6.732
	C654.311,322.113,651.298,325.127,647.577,325.127z M647.577,273.127c-3.719,0-6.729-3.014-6.729-6.732s3.016-6.732,6.729-6.732
	c3.719,0,6.73,3.014,6.73,6.732C654.311,270.113,651.298,273.127,647.577,273.127z M647.577,221.127
	c-3.719,0-6.729-3.014-6.729-6.732s3.016-6.732,6.729-6.732c3.719,0,6.73,3.014,6.73,6.732
	C654.311,218.113,651.298,221.127,647.577,221.127z M647.577,169.127c-3.719,0-6.729-3.014-6.729-6.732s3.016-6.732,6.729-6.732
	c3.719,0,6.73,3.014,6.73,6.732C654.311,166.113,651.298,169.127,647.577,169.127z M647.577,117.127
	c-3.719,0-6.729-3.014-6.729-6.732c0-3.718,3.016-6.732,6.729-6.732c3.719,0,6.73,3.014,6.73,6.732
	C654.311,114.113,651.298,117.127,647.577,117.127z M647.577,65.127c-3.719,0-6.729-3.014-6.729-6.732
	c0-3.718,3.016-6.732,6.729-6.732c3.719,0,6.73,3.014,6.73,6.732C654.311,62.113,651.298,65.127,647.577,65.127z M647.577,637.128
	c-3.719,0-6.729-3.016-6.729-6.732c0-3.715,3.016-6.73,6.729-6.73c3.719,0,6.73,3.016,6.73,6.73
	C654.309,634.113,651.298,637.128,647.577,637.128z M647.577,585.128c-3.719,0-6.729-3.016-6.729-6.732
	c0-3.715,3.016-6.73,6.729-6.73c3.719,0,6.73,3.016,6.73,6.73C654.309,582.113,651.298,585.128,647.577,585.128z M704.149,637.128
	c-3.721,0-6.732-3.016-6.732-6.732c0-3.715,3.017-6.73,6.732-6.73s6.73,3.016,6.73,6.73
	C710.88,634.113,707.866,637.128,704.149,637.128z M704.149,585.128c-3.721,0-6.732-3.016-6.732-6.732
	c0-3.715,3.017-6.73,6.732-6.73s6.73,3.016,6.73,6.73C710.88,582.113,707.866,585.128,704.149,585.128z M704.149,533.128
	c-3.721,0-6.732-3.016-6.732-6.732c0-3.715,3.017-6.73,6.732-6.73s6.73,3.016,6.73,6.73
	C710.88,530.113,707.866,533.128,704.149,533.128z M704.149,481.128c-3.721,0-6.732-3.016-6.732-6.732
	c0-3.715,3.017-6.73,6.732-6.73s6.73,3.016,6.73,6.73C710.88,478.113,707.866,481.128,704.149,481.128z M704.149,429.128
	c-3.721,0-6.732-3.016-6.732-6.732c0-3.714,3.017-6.73,6.732-6.73s6.73,3.019,6.73,6.73
	C710.88,426.113,707.866,429.128,704.149,429.128z M704.149,377.128c-3.721,0-6.732-3.019-6.732-6.731
	c0-3.717,3.017-6.731,6.732-6.731s6.73,3.019,6.73,6.731C710.881,374.111,707.866,377.128,704.149,377.128z M704.149,325.127
	c-3.721,0-6.732-3.015-6.732-6.731c0-3.719,3.017-6.732,6.732-6.732s6.73,3.014,6.73,6.732
	C710.882,322.113,707.866,325.127,704.149,325.127z M704.149,273.127c-3.721,0-6.732-3.014-6.732-6.732s3.017-6.732,6.732-6.732
	s6.73,3.014,6.73,6.732C710.882,270.113,707.866,273.127,704.149,273.127z M704.149,221.127c-3.721,0-6.732-3.014-6.732-6.732
	s3.017-6.732,6.732-6.732s6.73,3.014,6.73,6.732C710.882,218.113,707.866,221.127,704.149,221.127z M704.149,169.127
	c-3.721,0-6.732-3.014-6.732-6.732s3.017-6.732,6.732-6.732s6.73,3.014,6.73,6.732C710.882,166.113,707.866,169.127,704.149,169.127
	z M704.149,117.127c-3.721,0-6.732-3.014-6.732-6.732c0-3.718,3.017-6.732,6.732-6.732s6.73,3.014,6.73,6.732
	C710.882,114.113,707.866,117.127,704.149,117.127z M704.149,65.127c-3.721,0-6.732-3.014-6.732-6.732
	c0-3.718,3.017-6.732,6.732-6.732s6.73,3.014,6.73,6.732C710.882,62.113,707.866,65.127,704.149,65.127z M760.719,637.128
	c-3.719,0-6.73-3.016-6.73-6.732c0-3.715,3.017-6.73,6.73-6.73c3.719,0,6.729,3.016,6.729,6.73
	C767.449,634.113,764.438,637.128,760.719,637.128z M760.719,585.128c-3.719,0-6.73-3.016-6.73-6.732c0-3.715,3.017-6.73,6.73-6.73
	c3.719,0,6.729,3.016,6.729,6.73C767.449,582.113,764.438,585.128,760.719,585.128z M760.719,533.128
	c-3.719,0-6.73-3.016-6.73-6.732c0-3.715,3.017-6.73,6.73-6.73c3.719,0,6.729,3.016,6.729,6.73
	C767.449,530.113,764.438,533.128,760.719,533.128z M760.719,481.128c-3.719,0-6.73-3.016-6.73-6.732c0-3.715,3.017-6.73,6.73-6.73
	c3.719,0,6.729,3.016,6.729,6.73C767.449,478.113,764.438,481.128,760.719,481.128z M760.719,429.128
	c-3.719,0-6.73-3.016-6.73-6.732c0-3.714,3.017-6.73,6.73-6.73c3.719,0,6.729,3.019,6.729,6.73
	C767.449,426.113,764.438,429.128,760.719,429.128z M760.719,377.128c-3.719,0-6.73-3.019-6.73-6.731
	c0-3.717,3.017-6.731,6.73-6.731c3.719,0,6.729,3.019,6.729,6.731S764.438,377.128,760.719,377.128z M760.719,325.127
	c-3.719,0-6.73-3.015-6.73-6.731c0-3.719,3.017-6.732,6.73-6.732c3.719,0,6.729,3.014,6.729,6.732
	C767.449,322.113,764.438,325.127,760.719,325.127z M760.719,273.127c-3.719,0-6.73-3.014-6.73-6.732s3.017-6.732,6.73-6.732
	c3.719,0,6.729,3.014,6.729,6.732S764.438,273.127,760.719,273.127z M760.719,221.127c-3.719,0-6.73-3.014-6.73-6.732
	s3.017-6.732,6.73-6.732c3.719,0,6.729,3.014,6.729,6.732S764.438,221.127,760.719,221.127z M760.719,169.127
	c-3.719,0-6.73-3.014-6.73-6.732s3.017-6.732,6.73-6.732c3.719,0,6.729,3.014,6.729,6.732S764.438,169.127,760.719,169.127z
	 M760.719,117.127c-3.719,0-6.73-3.014-6.73-6.732c0-3.718,3.017-6.732,6.73-6.732c3.719,0,6.729,3.014,6.729,6.732
	C767.449,114.113,764.438,117.127,760.719,117.127z M817.287,637.128c-3.719,0-6.729-3.016-6.729-6.732
	c0-3.715,3.016-6.73,6.729-6.73c3.719,0,6.732,3.016,6.732,6.73C824.021,634.113,821.009,637.128,817.287,637.128z M817.287,585.128
	c-3.719,0-6.729-3.016-6.729-6.732c0-3.715,3.016-6.73,6.729-6.73c3.719,0,6.732,3.016,6.732,6.73
	C824.021,582.113,821.009,585.128,817.287,585.128z M817.287,533.128c-3.719,0-6.729-3.016-6.729-6.732
	c0-3.715,3.016-6.73,6.729-6.73c3.719,0,6.732,3.016,6.732,6.73C824.021,530.113,821.009,533.128,817.287,533.128z M817.287,481.128
	c-3.719,0-6.729-3.016-6.729-6.732c0-3.715,3.016-6.73,6.729-6.73c3.719,0,6.732,3.016,6.732,6.73
	C824.021,478.113,821.009,481.128,817.287,481.128z M817.287,429.128c-3.719,0-6.729-3.016-6.729-6.732
	c0-3.714,3.016-6.73,6.729-6.73c3.719,0,6.732,3.019,6.732,6.73C824.021,426.113,821.009,429.128,817.287,429.128z M817.287,377.128
	c-3.719,0-6.729-3.019-6.729-6.731c0-3.717,3.016-6.731,6.729-6.731c3.719,0,6.732,3.019,6.732,6.731
	S821.009,377.128,817.287,377.128z M817.287,325.127c-3.719,0-6.729-3.015-6.729-6.731c0-3.719,3.016-6.732,6.729-6.732
	c3.719,0,6.732,3.014,6.732,6.732C824.021,322.113,821.009,325.127,817.287,325.127z M817.287,273.127
	c-3.719,0-6.729-3.014-6.729-6.732s3.016-6.732,6.729-6.732c3.719,0,6.732,3.014,6.732,6.732
	C824.021,270.113,821.009,273.127,817.287,273.127z M817.287,221.127c-3.719,0-6.729-3.014-6.729-6.732s3.016-6.732,6.729-6.732
	c3.719,0,6.732,3.014,6.732,6.732C824.021,218.113,821.009,221.127,817.287,221.127z M817.287,169.127
	c-3.719,0-6.729-3.014-6.729-6.732s3.016-6.732,6.729-6.732c3.719,0,6.732,3.014,6.732,6.732
	C824.021,166.113,821.009,169.127,817.287,169.127z M873.859,637.128c-3.721,0-6.729-3.016-6.729-6.732
	c0-3.715,3.014-6.73,6.729-6.73s6.73,3.016,6.73,6.73C880.59,634.113,877.576,637.128,873.859,637.128z M873.859,585.128
	c-3.721,0-6.729-3.016-6.729-6.732c0-3.715,3.014-6.73,6.729-6.73s6.73,3.016,6.73,6.73
	C880.59,582.113,877.576,585.128,873.859,585.128z M873.859,533.128c-3.721,0-6.729-3.016-6.729-6.732
	c0-3.715,3.014-6.73,6.729-6.73s6.73,3.016,6.73,6.73C880.59,530.113,877.576,533.128,873.859,533.128z M873.859,481.128
	c-3.721,0-6.729-3.016-6.729-6.732c0-3.715,3.014-6.73,6.729-6.73s6.73,3.016,6.73,6.73
	C880.59,478.113,877.576,481.128,873.859,481.128z M873.859,429.128c-3.721,0-6.729-3.016-6.729-6.732
	c0-3.714,3.014-6.73,6.729-6.73s6.73,3.019,6.73,6.73C880.59,426.113,877.576,429.128,873.859,429.128z M873.859,377.128
	c-3.721,0-6.729-3.019-6.729-6.731c0-3.717,3.014-6.731,6.729-6.731s6.73,3.019,6.73,6.731
	C880.591,374.111,877.576,377.128,873.859,377.128z M873.859,325.127c-3.721,0-6.729-3.015-6.729-6.731
	c0-3.719,3.014-6.732,6.729-6.732s6.73,3.014,6.73,6.732C880.592,322.113,877.576,325.127,873.859,325.127z M873.859,273.127
	c-3.721,0-6.729-3.014-6.729-6.732s3.014-6.732,6.729-6.732s6.73,3.014,6.73,6.732C880.592,270.113,877.576,273.127,873.859,273.127
	z M873.859,221.127c-3.721,0-6.729-3.014-6.729-6.732s3.014-6.732,6.729-6.732s6.73,3.014,6.73,6.732
	C880.592,218.113,877.576,221.127,873.859,221.127z M873.859,169.127c-3.721,0-6.729-3.014-6.729-6.732s3.014-6.732,6.729-6.732
	s6.73,3.014,6.73,6.732C880.592,166.113,877.576,169.127,873.859,169.127z M930.43,637.128c-3.719,0-6.73-3.016-6.73-6.732
	c0-3.715,3.017-6.73,6.73-6.73c3.72,0,6.729,3.016,6.729,6.73C937.16,634.113,934.148,637.128,930.43,637.128z M930.43,585.128
	c-3.719,0-6.73-3.016-6.73-6.732c0-3.715,3.017-6.73,6.73-6.73c3.72,0,6.729,3.016,6.729,6.73
	C937.16,582.113,934.148,585.128,930.43,585.128z M930.43,533.128c-3.719,0-6.73-3.016-6.73-6.732c0-3.715,3.017-6.73,6.73-6.73
	c3.72,0,6.729,3.016,6.729,6.73C937.16,530.113,934.148,533.128,930.43,533.128z M930.43,481.128c-3.719,0-6.73-3.016-6.73-6.732
	c0-3.715,3.017-6.73,6.73-6.73c3.72,0,6.729,3.016,6.729,6.73C937.16,478.113,934.148,481.128,930.43,481.128z M930.43,429.128
	c-3.719,0-6.73-3.016-6.73-6.732c0-3.714,3.017-6.73,6.73-6.73c3.72,0,6.729,3.019,6.729,6.73
	C937.16,426.113,934.148,429.128,930.43,429.128z M930.43,377.128c-3.719,0-6.73-3.019-6.73-6.731c0-3.717,3.017-6.731,6.73-6.731
	c3.72,0,6.729,3.019,6.729,6.731S934.148,377.128,930.43,377.128z M930.43,325.127c-3.719,0-6.73-3.015-6.73-6.731
	c0-3.719,3.017-6.732,6.73-6.732c3.72,0,6.729,3.014,6.729,6.732C937.16,322.113,934.148,325.127,930.43,325.127z M930.43,273.127
	c-3.719,0-6.73-3.014-6.73-6.732s3.017-6.732,6.73-6.732c3.72,0,6.729,3.014,6.729,6.732S934.148,273.127,930.43,273.127z
	 M930.43,221.127c-3.719,0-6.73-3.014-6.73-6.732s3.017-6.732,6.73-6.732c3.72,0,6.729,3.014,6.729,6.732
	S934.148,221.127,930.43,221.127z M987.001,637.128c-3.722,0-6.732-3.016-6.732-6.732c0-3.715,3.016-6.73,6.732-6.73
	c3.716,0,6.729,3.016,6.729,6.73C993.732,634.113,990.719,637.128,987.001,637.128z M987.001,585.128
	c-3.722,0-6.732-3.016-6.732-6.732c0-3.715,3.016-6.73,6.732-6.73c3.716,0,6.729,3.016,6.729,6.73
	C993.732,582.113,990.719,585.128,987.001,585.128z M987.001,533.128c-3.722,0-6.732-3.016-6.732-6.732
	c0-3.715,3.016-6.73,6.732-6.73c3.716,0,6.729,3.016,6.729,6.73C993.732,530.113,990.719,533.128,987.001,533.128z M987.001,481.128
	c-3.722,0-6.732-3.016-6.732-6.732c0-3.715,3.016-6.73,6.732-6.73c3.716,0,6.729,3.016,6.729,6.73
	C993.732,478.113,990.719,481.128,987.001,481.128z M987.001,429.128c-3.722,0-6.732-3.016-6.732-6.732
	c0-3.714,3.016-6.73,6.732-6.73c3.716,0,6.729,3.019,6.729,6.73C993.732,426.113,990.719,429.128,987.001,429.128z M987.001,377.128
	c-3.722,0-6.732-3.019-6.732-6.731c0-3.717,3.016-6.731,6.732-6.731c3.716,0,6.729,3.019,6.729,6.731
	S990.719,377.128,987.001,377.128z M987.001,325.127c-3.722,0-6.732-3.015-6.732-6.731c0-3.719,3.016-6.732,6.732-6.732
	c3.716,0,6.729,3.014,6.729,6.732C993.732,322.113,990.719,325.127,987.001,325.127z M987.001,273.127
	c-3.722,0-6.732-3.014-6.732-6.732s3.016-6.732,6.732-6.732c3.716,0,6.729,3.014,6.729,6.732
	C993.732,270.113,990.719,273.127,987.001,273.127z M1043.57,637.128c-3.721,0-6.729-3.016-6.729-6.732
	c0-3.715,3.014-6.73,6.729-6.73s6.73,3.016,6.73,6.73C1050.301,634.113,1047.287,637.128,1043.57,637.128z M1043.57,585.128
	c-3.721,0-6.729-3.016-6.729-6.732c0-3.715,3.014-6.73,6.729-6.73s6.73,3.016,6.73,6.73
	C1050.301,582.113,1047.287,585.128,1043.57,585.128z M1043.57,533.128c-3.721,0-6.729-3.016-6.729-6.732
	c0-3.715,3.014-6.73,6.729-6.73s6.73,3.016,6.73,6.73C1050.301,530.113,1047.287,533.128,1043.57,533.128z M1043.57,481.128
	c-3.721,0-6.729-3.016-6.729-6.732c0-3.715,3.014-6.73,6.729-6.73s6.73,3.016,6.73,6.73
	C1050.301,478.113,1047.287,481.128,1043.57,481.128z M1043.57,429.128c-3.721,0-6.729-3.016-6.729-6.732
	c0-3.714,3.014-6.73,6.729-6.73s6.73,3.019,6.73,6.73C1050.301,426.113,1047.287,429.128,1043.57,429.128z M1043.57,377.128
	c-3.721,0-6.729-3.019-6.729-6.731c0-3.717,3.014-6.731,6.729-6.731s6.73,3.019,6.73,6.731
	C1050.302,374.111,1047.287,377.128,1043.57,377.128z M1043.57,325.127c-3.721,0-6.729-3.015-6.729-6.731
	c0-3.719,3.014-6.732,6.729-6.732s6.73,3.014,6.73,6.732C1050.302,322.113,1047.287,325.127,1043.57,325.127z M1100.141,637.128
	c-3.719,0-6.73-3.016-6.73-6.732c0-3.715,3.017-6.73,6.73-6.73c3.72,0,6.732,3.016,6.732,6.73
	C1106.874,634.113,1103.859,637.128,1100.141,637.128z M1100.141,585.128c-3.719,0-6.73-3.016-6.73-6.732
	c0-3.715,3.017-6.73,6.73-6.73c3.72,0,6.732,3.016,6.732,6.73C1106.874,582.113,1103.859,585.128,1100.141,585.128z
	 M1100.141,533.128c-3.719,0-6.73-3.016-6.73-6.732c0-3.715,3.017-6.73,6.73-6.73c3.72,0,6.732,3.016,6.732,6.73
	C1106.874,530.113,1103.859,533.128,1100.141,533.128z M1100.141,481.128c-3.719,0-6.73-3.016-6.73-6.732
	c0-3.715,3.017-6.73,6.73-6.73c3.72,0,6.732,3.016,6.732,6.73C1106.874,478.113,1103.859,481.128,1100.141,481.128z
	 M1100.141,429.128c-3.719,0-6.73-3.016-6.73-6.732c0-3.714,3.017-6.73,6.73-6.73c3.72,0,6.732,3.019,6.732,6.73
	C1106.874,426.113,1103.859,429.128,1100.141,429.128z M1100.141,377.128c-3.719,0-6.73-3.019-6.73-6.731
	c0-3.717,3.017-6.731,6.73-6.731c3.72,0,6.732,3.019,6.732,6.731S1103.859,377.128,1100.141,377.128z M1156.712,637.128
	c-3.722,0-6.732-3.016-6.732-6.732c0-3.715,3.016-6.73,6.732-6.73c3.716,0,6.729,3.016,6.729,6.73
	C1163.443,634.113,1160.43,637.128,1156.712,637.128z M1156.712,585.128c-3.722,0-6.732-3.016-6.732-6.732
	c0-3.715,3.016-6.73,6.732-6.73c3.716,0,6.729,3.016,6.729,6.73C1163.443,582.113,1160.43,585.128,1156.712,585.128z
	 M1156.712,533.128c-3.722,0-6.732-3.016-6.732-6.732c0-3.715,3.016-6.73,6.732-6.73c3.716,0,6.729,3.016,6.729,6.73
	C1163.443,530.113,1160.43,533.128,1156.712,533.128z M1156.712,481.128c-3.722,0-6.732-3.016-6.732-6.732
	c0-3.715,3.016-6.73,6.732-6.73c3.716,0,6.729,3.016,6.729,6.73C1163.443,478.113,1160.43,481.128,1156.712,481.128z
	 M1156.712,429.128c-3.722,0-6.732-3.016-6.732-6.732c0-3.714,3.016-6.73,6.732-6.73c3.716,0,6.729,3.019,6.729,6.73
	C1163.443,426.113,1160.43,429.128,1156.712,429.128z M1213.281,637.128c-3.719,0-6.729-3.016-6.729-6.732
	c0-3.715,3.014-6.73,6.729-6.73s6.73,3.016,6.73,6.73C1220.011,634.113,1217.001,637.128,1213.281,637.128z M1213.281,585.128
	c-3.719,0-6.729-3.016-6.729-6.732c0-3.715,3.014-6.73,6.729-6.73s6.73,3.016,6.73,6.73
	C1220.011,582.113,1217.001,585.128,1213.281,585.128z M1213.281,533.128c-3.719,0-6.729-3.016-6.729-6.732
	c0-3.715,3.014-6.73,6.729-6.73s6.73,3.016,6.73,6.73C1220.011,530.113,1217.001,533.128,1213.281,533.128z M1213.281,481.128
	c-3.719,0-6.729-3.016-6.729-6.732c0-3.715,3.014-6.73,6.729-6.73s6.73,3.016,6.73,6.73
	C1220.011,478.113,1217.001,481.128,1213.281,481.128z M1269.852,637.128c-3.719,0-6.73-3.016-6.73-6.732
	c0-3.715,3.017-6.73,6.73-6.73c3.72,0,6.732,3.016,6.732,6.73C1276.585,634.113,1273.57,637.128,1269.852,637.128z
	 M1269.852,585.128c-3.719,0-6.73-3.016-6.73-6.732c0-3.715,3.017-6.73,6.73-6.73c3.72,0,6.732,3.016,6.732,6.73
	C1276.585,582.113,1273.57,585.128,1269.852,585.128z M1269.852,533.128c-3.719,0-6.73-3.016-6.73-6.732
	c0-3.715,3.017-6.73,6.73-6.73c3.72,0,6.732,3.016,6.732,6.73C1276.585,530.113,1273.57,533.128,1269.852,533.128z
	 M1326.423,637.128c-3.722,0-6.732-3.016-6.732-6.732c0-3.715,3.016-6.73,6.732-6.73c3.716,0,6.729,3.016,6.729,6.73
	C1333.154,634.113,1330.141,637.128,1326.423,637.128z M1326.423,585.128c-3.722,0-6.732-3.016-6.732-6.732
	c0-3.715,3.016-6.73,6.732-6.73c3.716,0,6.729,3.016,6.729,6.73C1333.154,582.113,1330.141,585.128,1326.423,585.128z
	 M1382.99,637.128c-3.719,0-6.729-3.016-6.729-6.732c0-3.715,3.014-6.73,6.729-6.73s6.73,3.016,6.73,6.73
	C1389.722,634.113,1386.712,637.128,1382.99,637.128z"/>
</svg>
