<?xml version="1.0" encoding="utf-8"?>
<!-- Generator: Adobe Illustrator 16.0.0, SVG Export Plug-In . SVG Version: 6.00 Build 0)  -->
<!DOCTYPE svg PUBLIC "-//W3C//DTD SVG 1.1//EN" "http://www.w3.org/Graphics/SVG/1.1/DTD/svg11.dtd">
<svg version="1.1" id="Layer_1" xmlns="http://www.w3.org/2000/svg" xmlns:xlink="http://www.w3.org/1999/xlink" x="0px" y="0px"
	 width="3531.133px" height="1364.054px" viewBox="0 0 3531.133 1364.054" enable-background="new 0 0 3531.133 1364.054"
	 xml:space="preserve">
<path fill="none" stroke="#000000" stroke-linejoin="round" stroke-miterlimit="10" d="M2548.009,438.755
	c-2.692-0.569-4.777-0.833-5.961-0.676c-8.584,1.141-45.235,23.372-80.567,59.911c-54.654,56.43-104.27,136.271-148.898,239.365
	c-17.299,40.096-29.889,72.02-37.545,95.889c-1.346,0.586-2.751,1.012-4.195,1.084c-11.396-11.236-21.495-19.189-30.229-23.689
	c-10.484-5.51-23.029-8.883-37.477-10.18c-13.625-1.32-35.438-2.658-65.412-4.205l-39.191-2.377
	c-9.758-0.541-40.266-2.535-91.604-5.953c-9.624-0.682-61.926-3.469-156.964-8.521l-13.116-0.684
	c-0.108-0.051-0.677,0.158-1.615,0.596c-0.595,4.631-0.671,9.16-0.252,13.785c-0.021,0.191,2.021,9.73,6.069,28.453
	c2.163,9.863,3.491,15.715,4.229,17.465c11.178,2.406,54.771,6.748,130.777,13.023l13.152,1.035
	c16.574,1.338,108.18,10.045,274.626,26.102c13.064,1.26,26.15,2.299,39.207,3.66c22.36,2.33,35.436,3.395,39.249,3.275
	c4.876-0.234,9.108-0.971,12.698-2.197l12.469-4.316c2.619-0.873,6.906-0.707,12.925,0.66c4.121,0.963,8.021,2.559,11.8,4.842
	l10.873,6.562c0.474,0.285,17.681,1.85,51.595,4.605c22.614,1.777,57.062,4.984,103.168,9.41
	c16.854,1.605,25.498,2.369,25.901,2.225c0.973-0.357,1.722-0.816,2.278-1.303c0.821-0.762,4.923-8.338,12.143-22.666
	c29.107-57.68,75.064-120.002,138.038-187.025c15.182-16.162,30.662-31.511,46.337-45.833
	c11.141-10.169,20.037-16.203,26.496-18.123c6.73-1.931,16.577-1.146,29.345,2.33c48.345,13.25,82.296,23.348,101.825,30.213
	l12.575,4.464c2.428,0.852,12.721-5.88,30.878-20.196c6.386-5.017,12.489-10.273,18.333-15.905c0.883-0.852,2.027-1.535,2.646-2.618
	c0.802-1.401,0.104-2.772-0.543-4.073c-0.486-0.974-1.72-2.189-3.698-3.642"/>
<path fill="none" stroke="#000000" stroke-linejoin="round" stroke-miterlimit="10" d="M3014.146,622.85
	c-0.402,0.147-0.781,0.414-1.211,0.9c-0.927,1.049-1.847,2.033-1.242,3.524c0.64,1.581,1.193,3.186,1.869,4.752
	c0.644,1.489,1.897,2.885,1.985,4.562c0.039,0.733-0.723,1.994-0.989,2.691c-0.251,0.651-0.498,1.314-0.813,1.939
	c-0.277,0.553-0.482,0.854-0.979,1.153c-0.915,0.55-1.707,1.204-2.598,1.871c-3.937,2.952-8.252,5.551-12.368,8.246
	c-3.675,2.401-7.254,4.933-10.939,7.312c-6.257,4.04-9.859,6.435-10.863,7.11c-12.571,8.562-19.777,13.348-21.511,14.491
	c0.812,5.501,1.884,9.375,3.13,11.796c22.444,43.664,53.536,104.145,66.521,131.408l5.738,12.049
	c1.271,2.729,3.783,6.348,7.527,10.973l12.834,3.074c5.012,1.217,9.117,2.811,12.306,4.916c0.296,0.098,9.841,9.594,28.771,28.383
	c12.353,12.229,25.276,24.771,38.729,37.561c5.676,5.408,14.95,15.117,28.013,29.09l9.192,9.883l7.037,11.469
	c13.646,22.396,29.027,49.783,46.022,82.156c10.416,19.842,20.979,39.605,31.371,59.461c20.134,38.461,32.067,59.787,35.685,63.967
	c5.883,0.092,10.3,0.131,13.193,0.049c4.428-0.125,8.894-0.518,13.291,0.15c4.463,0.68,8.322,2.791,12.432,4.531
	c2.684,1.182,6.975,1.756,12.806,1.779c1.478-4.121,2.312-8.504,2.47-12.904"/>
<path fill="none" stroke="#000000" stroke-linejoin="round" stroke-miterlimit="10" d="M1002.128,902.684
	c7.168-2.737,12.023-4.669,14.563-5.794c1.917-0.85,4.554-6.559,5.846-8.318c2.306-3.141,4.681-6.23,7.146-9.246
	c3.708-4.535,7.206-9.217,10.571-13.992c7.793-11.061,14.873-22.631,22.163-34.023c0.923-1.441,1.837-3.613,3.136-4.781
	l13.958-21.463c0.45-1.469,8.312-11.764,23.604-31.006c23.482-29.66,49.565-58.607,78.269-86.961
	c36.846-36.429,104.413-95.582,105.615-96.417l21.942-19.876c13.575-12.687,39.648-35.213,78.224-67.49
	c19.446-16.325,46.192-37.95,80.138-65.042c23.584-18.798,51.002-39.521,82.333-62.269c41.413-30.157,81.618-55.641,120.52-76.618
	c64.754-34.84,111.712-48.637,132.363-54.589l12.521-3.702c2.965-0.827,13.655-8.197,31.99-22.017
	c32.655-24.661,53.378-40.129,62.152-46.492c19.189-13.971,33.026-24.343,41.352-31.017c3.346-2.671,6.506-5.501,9.573-8.411
	c0.113-0.787,0.051-1.647-0.192-2.58"/>
<path fill="none" stroke="#000000" stroke-linejoin="round" stroke-miterlimit="10" d="M2090.619,95.683
	c-6.123,2.738-3.202,10.934,2.688,11.706c5.813,0.761,10.173,1.362,13.043,1.922c26.414,5.153,53.375,6.364,80.043,9.711
	c31.138,3.908,62.336,7.298,93.557,10.483c34.718,3.542,52.306,5.729,53.124,6.634c1.01,1.191,1.327,2.745,0.979,4.54
	c-5.493,1.724-9.627,2.533-12.544,2.522l-12.914-0.034l-12.96,0.517c-13.461,0.542-52.301-0.014-116.305-1.503
	c-40.374-0.979-79.006-2.923-116.136-5.879c-39.021-3.139-60.479-3.969-64.463-2.635c-3.797,1.31-121.862,86.865-129.713,95.895
	c-2.948,3.338-5.396,6.961-7.288,10.939l1.442,2.146c1.674,0.017,10.282-0.168,25.705-0.577c15.688-0.481,37.021,0.015,63.979,1.298
	c75.562,3.682,143.77,8.474,204.659,14.45c19.021,1.846,36.125,3.008,51.146,3.391c52.236,1.306,103.482,0.989,153.864-0.925
	c34.226-1.3,68.444-2.745,102.672-4.077c58.949-2.293,147.271-7.459,264.883-15.442"/>
<path fill="none" stroke="#000000" stroke-linejoin="round" stroke-miterlimit="10" d="M2605.415,1042.496
	c1.479-4.186,2.339-8.438,2.642-12.861c0.11-2.986-13.295-113.176-16.045-113.412l-184.732-16.971
	c27.539,38.381,0.904,87.9-33.586,86.104c-8.734-0.451-16.692-4.096-23.894-11.016c-3.551-3.424-6.336-6.977-8.241-10.504
	c-2.314-4.418-6.312-18.785-6.51-26.184c-0.451-15.664,5.59-29.623,18.284-41.992l-2.623,0.006l-12.634-1.812
	c-17.08-2.438-34.373-2.719-51.534-4.346c-67.091-6.359-131.526-12.031-193.241-17.111c-25.781-2.123-68.701-5.65-77.338-6.471
	c-28.609-2.701-75.837-6.895-141.677-12.596c-10.818-0.889-19.438-1.186-25.744-0.734c-0.388,13.793,4.418,29.859,7.46,34.42
	c0.818,1.225,5.049,4.988,12.688,11.263"/>
<path fill="none" stroke="#000000" stroke-linejoin="round" stroke-miterlimit="10" d="M2693.745,353.194
	c9.095-2.822,18.086-5.457,26.95-7.949c14.624-4.111,22.779-7.08,24.541-8.955c2.407-2.617,3.039-4.967,1.898-7.035"/>
<path fill="none" stroke="#000000" stroke-linejoin="round" stroke-miterlimit="10" d="M3353.229,1212.951
	c-1.131-1.652-2.488-3.124-4.223-4.221c-6.62-4.188-18.126-2.424-25.77-3.463c-19.103-2.598-30.922-11.729-41.238-27.605
	c-14.234-21.867-50.688-76.141-109.353-162.82c-6.774-10.096-14.898-20.297-24.291-30.639
	c-23.503-25.932-48.989-55.619-76.491-89.143c-2.416-2.941-4.826-5.973-7.28-8.912c-2.94-3.525-7.977-5.812-11.772-8.312
	c-8.324-3.949-12.73-10.914-17.646-18.348l-10.521-4.861c-8.211,5.457-22.771,16.367-43.721,32.646l-21.731,16.41
	c-13.511,9.834-20.791,15.289-21.877,16.285l-9.906,9.309l-2.397,0.969c3.265,3.641,6.538,7.27,9.802,10.91
	c3.825,4.275,8.362,8.443,11.731,13.082c2.257,3.109,4.471,8.145,1.468,11.527c-2.767,3.119-8.604,2.771-12.379,3.668
	c-2.755,0.654-5.51,1.062-8.295,1.537c-5.566,0.949-8.545,1.871-8.893,2.852l0.918,5.951c0.421,2.729,0.604,7.979,0.748,11.975"/>
<path fill="none" stroke="#000000" stroke-linejoin="round" stroke-miterlimit="10" d="M1847.341,904.023
	c0.312-0.621-0.521-4.807-2.498-12.557l-3.143-12.678c-12.625-50.951-20.177-80.469-22.631-88.746l-3.721-12.439l-3.312-12.584
	l-4.15-12.416c-2.072-6.051-0.123-20.611,3.039-25.346l7.188-10.754c8.572-12.834,18.584-26.885,30.029-42.156
	c60.298-80.313,94.178-119.691,154.207-174.156c43.612-39.514,110.862-90.5,132.139-103.871
	c56.02-35.267,122.707-49.404,156.312-56.091c46.238-9.199,93.379-12.626,140.488-11.897l13.223,0.205
	c2.918,0.048,6.934-1.158,12.203-3.559c5.139-7.588,0.402-13.246-14.012-17.001c-3.359-0.85-16.467-2.388-39.354-4.533
	c-1.496-0.175-5.897-0.67-13.137-1.457c-56.307-6.122-113.195-7.675-168.94-18.17c-5.619-1.058-52.634-6.438-141.06-16.259
	c-116.57-12.863-258.516-24.532-398.621,60.224c-22.301,13.514-57.312,38.756-105.036,75.728
	c-77.058,59.705-151.065,123.556-224.132,188.042c-75.458,66.604-150.557,133.851-222.722,204.035
	c-14.854,14.447-29.562,29.084-44.168,43.779c-11.75,11.82-20.661,25.945-30.867,39.033c-1.914,2.451-24.271,29.504-24.012,29.59"/>
<path fill="none" stroke="#000001" stroke-linejoin="round" stroke-miterlimit="10" d="M2546.069,419.126
	c-40.29,25.333-80.209,58.149-117.965,101.793c-45.74,52.924-85.998,119.885-120.802,200.692
	c-8.731,20.35-29.765,76.062-32.323,84.746l-3.478,12.17c-0.05,0.236-0.769,0.711-2.164,1.416c-4.25-0.824-8.256-2.221-12.113-4.023
	c-11.978-5.592-21.916-14.523-32.896-21.75c-2.356-1.551-6.336-3.066-12.019-4.502l-12.907-0.514
	c-17.345-0.693-34.622-2.504-51.968-3.188c-7.723-0.303-42.287-2.414-103.766-6.27c-17.281-1.086-34.591-1.662-51.874-2.73
	c-28.407-1.633-56.99-3.246-85.432-3.783c-5.997-0.113-29.812,2.822-33.128-4.152c-1.077-2.275-1.762-3.475-1.995-3.834
	c2.09-4.049,3.655-8.268,4.938-12.611c1.724-6.18,2.599-10.668,2.479-13.684c-0.129-7.127-2.587-13.559-7.274-19.145
	c-3.15-3.711-6.144-6.08-9.03-6.869l-10.855-3.199c-6.344-1.822-9.847-3.24-10.486-4.057c-0.402-0.459-0.686-0.891-0.943-1.443
	c12.571-27.398,91.624-114.912,154.766-172.737c70.229-64.319,163.197-137.033,266.215-164.176
	c69.987-18.403,155.065-31.229,255.26-38.282c42.736-3.039,76.882-4.881,102.548-5.504l25.646-1.125
	c7.389-0.419,64.951-1.097,84.04-0.129"/>
</svg>
