<?xml version="1.0" encoding="utf-8"?>
<!-- Generator: Adobe Illustrator 16.0.0, SVG Export Plug-In . SVG Version: 6.00 Build 0)  -->
<!DOCTYPE svg PUBLIC "-//W3C//DTD SVG 1.1//EN" "http://www.w3.org/Graphics/SVG/1.1/DTD/svg11.dtd">
<svg version="1.1" id="Layer_1" xmlns="http://www.w3.org/2000/svg" xmlns:xlink="http://www.w3.org/1999/xlink" x="0px" y="0px"
	 width="3538.508px" height="1376.361px" viewBox="0 0 3538.508 1376.361" enable-background="new 0 0 3538.508 1376.361"
	 xml:space="preserve">
<path fill="none" stroke="#000000" stroke-miterlimit="10" d="M950.71,912.887c1.239,1.104,2.798,1.756,4.925,1.555
	c3.953-0.374,7.982-0.768,11.937-1.253c3.692-0.453,7.386-0.787,11.086-1.166c46.071-4.759,80.494-8.215,103.097-10.153
	c9.777-0.867,19.546-1.857,29.328-2.663c5.755-0.474,11.545-1.451,17.295-1.78c10.207-0.584,17.693-9.799,27.525-12.105
	c9.202-2.16,16.8,0.56,25.418,3.475c3.599,1.204,7.836,1.906,12.714,2.104c3.815,0.093,16.882-1.066,39.225-3.559
	c13.045-1.455,26.124-2.588,39.179-3.942c166.327-17.256,257.867-26.622,274.432-28.079l13.146-1.132
	c75.96-6.821,119.521-11.478,130.682-13.965c0.724-1.755,2.01-7.615,4.102-17.493c3.914-18.753,5.89-28.306,5.866-28.497
	c0.384-4.628,0.274-9.157-0.351-13.781c-0.945-0.434-1.514-0.638-1.623-0.585l-13.111,0.775
	c-94.999,5.739-147.279,8.903-156.897,9.654c-51.312,3.787-81.805,6.001-91.557,6.612l-39.176,2.659
	c-29.962,1.765-51.764,3.259-65.381,4.678c-14.436,1.398-26.955,4.862-37.398,10.448c-6.781,3.628-12.933,8.3-18.738,13.318
	c-2.295,1.984-4.536,4.03-6.736,6.119c-1.172,1.113-2.396,2.206-3.497,3.39c-0.914,0.983-2.265,1.361-3.547,0.948
	c-1.251-0.403-1.983-1.664-2.381-2.854c-0.494-1.478-0.994-2.95-1.501-4.423c-1.08-3.129-2.188-6.248-3.321-9.357
	c-2.535-6.963-5.186-13.885-7.905-20.778c-3.109-7.879-6.312-15.72-9.576-23.536c-3.673-8.796-7.424-17.561-11.228-26.301
	c-1.349-3.099-2.704-6.195-4.064-9.288c-45.373-102.768-95.56-182.25-150.62-238.284c-35.595-36.283-72.406-58.25-81-59.329
	c-7.804-0.979-54.647,16.608-56.371,19.104c-1.863,2.628-2.74,5.062-2.631,7.301l0.448,14.275
	c1.101,32.564-8.845,59.409-17.804,71.305c-10.03,13.342-25.654,23.386-46.901,30.213c-14.827,4.764-30.974,8.864-46.41,4.483
	c-15.251-4.329-29.548-15.271-39.279-27.603c-7.274-9.217-11.865-28.764-25.563-30.336c-1.497-0.172-51.056,20.377-60.65,24.619
	c-27.927,12.396-43.913,19.375-48.019,21.104c-27.368,11.524-55.981,24.983-83.719,38.029
	c-20.745,9.757-32.033,16.414-33.753,19.918c-0.646,1.438-1.382,2.564-0.444,4.085c0.955,1.547,2.678,2.681,3.994,3.899
	c3.305,3.063,6.613,6.036,10.091,8.909c2.29,1.892,4.613,3.734,6.958,5.557c18.261,14.185,28.603,20.842,31.023,19.973l12.547-4.554
	c19.479-7.005,53.355-17.348,101.604-30.946c12.741-3.566,22.581-4.422,29.327-2.542c6.475,1.874,15.413,7.843,26.626,17.932
	c15.778,14.207,31.368,29.444,46.666,45.495c63.452,66.571,109.859,128.562,139.382,186.028c2.915,5.686,6.02,11.271,8.947,16.943
	C948.143,909.482,949.183,911.526,950.71,912.887z M520.668,632.56c-1.7-0.745-3.734-0.258-5.508-0.146
	c-2.281,0.145-4.873,0.318-6.902,1.484c-0.001,0-11.397,6.552-34.033,19.45c-34.092,19.429-68.245,38.749-102.455,57.969
	c-45.545,25.587-68.37,38.447-68.423,38.518c-2.135,2.054-4.623,5.689-7.461,10.906c-2.485,4.618-34.447,94.917-38.87,112.321
	l-3.352,12.778c-0.81,3.3-6.425,8.439-16.777,15.474l-5.942,4.015c-0.959,0.675-4.485,27.061-10.562,79.277
	c-6.165,52.976-12.449,105.938-18.869,158.883c-3.119,25.72-4.685,39.011-4.661,39.683c0.191,4.401,1.056,8.777,2.562,12.889
	c5.831-0.065,10.117-0.673,12.792-1.873c3.867-1.734,7.809-3.534,11.983-4.466c4.573-1.02,9.075-0.557,13.704-0.4
	c2.896,0.061,7.313-0.011,13.196-0.145c3.583-4.205,15.363-25.618,35.219-64.224c10.25-19.928,20.667-39.768,30.941-59.684
	c16.762-32.495,31.946-59.996,45.433-82.486l6.955-11.519l9.121-9.949c12.961-14.065,22.165-23.842,27.803-29.291
	c13.356-12.887,26.191-25.521,38.453-37.839c18.797-18.925,28.273-28.489,28.567-28.589c3.172-2.125,7.267-3.752,12.271-5.004
	l12.812-3.167c3.71-4.65,6.198-8.287,7.447-11.026l5.651-12.091c12.79-27.355,43.443-88.059,65.575-131.884
	c1.228-2.43,2.271-6.312,3.044-11.819c-1.742-1.13-8.981-5.862-21.616-14.335c-1.007-0.67-4.627-3.038-10.912-7.031
	c-5.373-3.505-10.834-6.914-16.107-10.567c-1.723-1.194-3.513-2.271-5.251-3.439c-1.171-0.786-2.196-1.786-3.446-2.444
	c-1.674-0.882-2.923-2.896-3.625-4.632c-0.926-2.292,0.029-3.21,0.969-5.226c0.517-1.106,0.968-2.243,1.394-3.387
	c0.423-1.137,0.806-2.31,1.114-3.483c0.388-1.477-0.907-2.896-2.146-3.463C520.724,632.584,520.696,632.572,520.668,632.56z
	 M3536.489,780.838l-11.535-5.283c-1.215-0.518-23.062,0.723-65.578,3.598c-23.232,1.595-46.486,3.246-69.76,4.143
	c-12.283,0.474-27.834,1.229-36.43-9.154c-8.867-10.714-8.023-27.366-9.127-40.384c-0.875-0.704-1.871-1.387-2.846-1.947
	c-2.281-1.247-19.498-1.436-51.51-0.465c-17.945,0.57-35.121,0.934-51.602,1.042l-12.918,0.248
	c-60.074,1.155-139.199,2.675-180.227,3.173c-21.422,0.261-42.834,1.152-64.256,1.365l-12.941,0.129l-7.131,2.207l-3.053,16.944
	c-0.416,2.745-4.48,20.13-4.848,20.818c-1.662,3.041-3.549,4.572-5.58,4.644c-1.844,0.098-3.342-0.615-4.494-2.136
	c-0.633-5.03-0.715-10.102-0.223-15.094c-0.021-0.121,2.158-10.33,6.523-30.748c-29.658-5.674-65.436-17.521-164.076-77.203
	c-2.66-1.611-6.314-3.903-11.016-6.809c-38.711-24.199-117.941-69.343-237.553-135.335c-19.717-10.885-46.229-25.583-79.723-44.122
	c-50.812-28.198-77.441-42.874-79.82-43.979c-16.023-7.448-50.865-27.909-75.881-42.6c-30.529-17.929-61.84-34.496-92.395-52.381
	c-26.643-15.595-54.611-28.871-80.773-45.288c-14.904-9.353-30.668-17.221-45.955-25.915c-6.195-3.523-11.832-8.049-18.484-10.752
	c-7.867-3.196-12.9-1.561-19.543,3.088c-6.893,4.807-12.83,6.998-17.637,6.501l-4.641-0.398
	c-2.316-0.243-10.086-4.224-23.123-12.104l-11.127-6.714c-5.812-3.503-80.68-41.565-81.098-41.767
	c-7.539-3.533-15.412-7.261-23.697-11.277c-72.52-35.658-141.776-60.811-256.735-61.824c-22.885-0.247-36.129,0.069-39.721,0.777
	c-4.296,0.92-8.376,2.46-12.151,4.625c-0.235,0.935-0.293,1.795-0.175,2.581c3.09,2.887,6.271,5.694,9.636,8.342
	c8.369,6.613,22.28,16.885,41.571,30.718c8.821,6.298,29.652,21.617,62.487,46.042c18.436,13.688,29.177,20.98,32.148,21.786
	l12.546,3.611c20.695,5.804,67.752,19.262,132.754,53.634c39.049,20.696,79.438,45.89,121.066,75.748
	c31.494,22.52,59.061,43.045,82.777,61.67c34.143,26.846,61.041,48.278,80.605,64.462c38.805,32,65.039,54.339,78.709,66.927
	l22.084,19.719c1.209,0.828,69.201,59.489,106.309,95.651c28.904,28.146,55.193,56.904,78.895,86.396
	c15.43,19.13,23.363,29.368,23.824,30.833l14.111,21.361c0.521,0.461,17.863,27.483,23.717,37.863
	c4.885,8.663,13.129,23.289,15.447,25.518c1.891,1.815,4.736,3.765,8.537,5.844c5.939,3.229,71.518,26.802,196.734,70.404
	c66.037,23.053,172.77,60.688,320.197,112.909l36.934,13.058c28.504,10.106,57.199,20.239,86.275,30.427
	c0,0,12.182,4.299,12.289,4.336c5.668,1.976,16.934,0.858,16.195-7.661c-0.191-2.214-2.299-4.711-3.438-6.557
	c-2.385-3.866-7.342-9.021-7.27-13.87c0.367-24.662,14.416-40.969,39.568-34.379c9.383,2.458,18.91,4.233,27.811,8.063
	c11.766,5.063,23.652,12.282,22.883,26.867c-0.475,8.967-7.834,27.165-17.203,30.938c-4.689,1.889-10.465,2.997-14.432,6.296
	c-5.98,4.973-1.135,10.627,4.766,12.605c7.102,2.382,14.146,4.918,21.057,7.81c2.5,1.084,6.469,1.084,11.863,0.073l125.002-266.568
	c0.367-0.688,21.873-20.658,65.914-46.833c20.021-12,38.953-22.865,56.652-32.693l11.461-6.364
	C3539.688,794.939,3539.342,782.164,3536.489,780.838z M321.133,213.644c139.229,8.628,250.641,15.674,334.235,21.138
	c192.712,12.539,329.81,20.168,411.078,22.743c34.233,1.085,68.463,2.283,102.698,3.336c50.392,1.551,101.641,1.498,153.866-0.184
	c15.018-0.491,32.113-1.776,51.121-3.76c60.847-6.414,129.015-11.698,204.551-15.924c26.948-1.477,48.279-2.126,63.969-1.759
	c8.013,0.154,16.07,0.384,24.057,0.504c4.412,0.066,1.96-4.474,0.806-6.405c-1.443-2.417-3.233-4.644-5.092-6.75
	c-7.914-8.973-126.594-93.675-130.398-94.957c-3.997-1.306-25.446-0.32-64.442,3.099c-37.108,3.223-75.726,5.446-116.089,6.716
	c-63.992,1.95-102.827,2.786-116.292,2.34l-12.963-0.423l-12.914,0.127c-2.917,0.031-7.058-0.748-12.562-2.433
	c-0.363-1.792-0.057-3.348,0.945-4.546c0.811-0.911,18.382-3.226,53.073-7.017c31.195-3.41,62.37-7.025,93.479-11.158
	c26.644-3.539,53.594-4.944,79.97-10.287c2.868-0.581,7.22-1.213,13.028-2.017c5.882-0.813,8.744-9.03,2.603-11.724
	c-5.53-2.426-13.813-5.849-25.017-10.174c-45.05-17.563-81.276-35.481-108.799-53.733c-11.282-7.481-22.492-14.915-33.774-22.397
	l-11.281-7.481L1248.192,0l-12.788,2.59l-12.67,1.944c-2.894,0.462-15.586,2.597-38.367,6.526
	c-11.427,1.941-24.168,3.838-38.227,5.689l-63.973,9.412l-76.547,11.211c-33.373,5.08-71.791,10.434-115.015,16.017
	c-17.06,2.203-34.005,5.211-51.063,7.418c-28.066,3.631-45.089,5.897-51.185,6.821L673.366,83.454
	c-10.806,1.629-27.803,4.014-51.089,6.989c-11.094,1.438-23.787,3.262-38.322,5.522l-38.371,5.283
	c-21.22,3.266-42.609,5.317-63.831,8.573c-5.067,0.778-26.394,3.604-63.928,8.407c-21.284,2.723-42.601,5.204-63.856,8.144
	l-38.729,5.356c-35.898,5.212-76.934,11.358-122.443,17.947c-48.182,6.979-94.585,13.316-139.44,19.087
	c-30.65,3.918-47.033,7.952-49.07,11.946l-3.526,6.913c-1.298,2.545-1.171,6.571,2.258,6.959
	c16.687,1.885,158.77,9.286,266.974,14.74C275.687,210.407,292.718,211.872,321.133,213.644z M1233.083,191.431
	c5.752-24.12,24.478-43.775,55.722-38.782c17.153,2.685,29.229,11.312,36.176,25.955c12.447,26.238,3.116,60.164-26.162,68.938
	C1249.494,262.321,1226.265,219.81,1233.083,191.431z M1687.529,853.829c-6.312-0.405-14.928-0.046-25.738,0.92
	c-65.798,6.172-112.992,10.71-141.583,13.616c-8.63,0.877-51.522,4.719-77.29,7.026c-61.676,5.525-126.071,11.66-193.112,18.505
	c-17.15,1.75-34.439,2.152-51.502,4.719l-12.62,1.896l-2.623,0.016c12.783,12.275,18.927,26.19,18.586,41.856
	c-0.144,7.4-4.034,21.795-6.32,26.23c-1.88,3.54-4.64,7.112-8.164,10.562c-7.148,6.973-15.081,10.672-23.812,11.188
	c-34.478,2.045-61.468-47.279-34.207-85.858l-184.607,18.302c-2.749,0.257-15.359,110.539-15.229,113.529
	c0.336,4.421,1.225,8.669,2.735,12.842c3.037,0.664,4.995,0.979,5.959,0.96l13.241,0.211
	c163.375,2.907,304.404,10.076,423.16,21.604c8.425,0.833,25.773,3.19,51.936,7.229c10.961,1.691,21.099,3.332,30.51-3.872
	c6.321-4.839,12.228-10.329,18.312-15.462c5.428-4.58,10.796-9.23,16.177-13.865c16.34-14.072,32.88-27.909,49.43-41.733
	c52.678-44.005,85.938-71.573,99.869-82.69c24.94-19.826,38.176-30.971,39.682-33.261
	C1683.326,883.72,1688.015,867.619,1687.529,853.829z M1672.713,714.224l10.832-3.277c6.333-1.868,9.827-3.311,10.459-4.134
	c0.399-0.461,0.68-0.896,0.934-1.448c-12.767-27.308-92.449-114.249-156.007-171.617c-70.688-63.812-164.18-135.854-267.389-162.253
	c-70.118-17.898-155.287-30.109-255.529-36.441c-42.759-2.729-76.914-4.328-102.584-4.765l-25.653-0.94
	c-8.45-0.419-82.432-0.702-89.604,1.036c-12.867,3.095-16.551,7.696-11.029,13.614c1.775,1.862,9.952,4.772,24.604,8.777
	c92.884,25.389,199.74,66.345,293.85,173.56c46.119,52.594,86.859,119.263,122.244,199.815
	c8.878,20.287,30.312,75.849,32.935,84.513c0,0,3.557,12.126,3.562,12.143c0.233,0.794,1.586,1.237,2.291,1.274
	c1.244,0.062,2.625-0.503,3.803-0.84c2.807-0.803,5.534-1.892,8.167-3.145c11.936-5.678,21.81-14.681,32.735-21.986
	c2.344-1.567,6.313-3.112,11.983-4.588l12.905-0.607c17.337-0.816,34.604-2.752,51.941-3.561c7.72-0.358,42.268-2.715,103.717-7.02
	c17.273-1.211,34.579-1.91,51.854-3.104c27.722-1.915,55.411-4.38,83.174-5.655c7.16-0.329,14.322-0.509,21.485-0.759
	c3.207-0.112,6.621-0.133,9.776-0.778c4.573-0.938,6.404-4.43,4.474-8.599c-1.396-3.019-2.553-6.228-3.47-9.423
	c-1.77-6.167-2.677-10.648-2.58-13.664c0.081-7.129,2.491-13.575,7.141-19.196C1666.855,717.424,1669.832,715.033,1672.713,714.224z
	 M609.617,979.973c-4.089-0.667-8.161-1.36-12.204-2.276c-2.905-0.659-7.692-1.104-9.396-3.943
	c-2.112-3.521,0.615-8.301,2.827-10.936c1.708-2.034,3.489-4.032,5.26-6.014c4.223-4.724,8.44-9.456,12.599-14.236
	c0.208-0.24,2.714-3.428,2.949-3.334l-2.405-0.953l-9.977-9.234c-1.092-0.989-8.412-6.392-21.992-16.127l-21.85-16.254
	c-21.064-16.129-35.706-26.933-43.956-32.332c-2.801,1.319-6.03,1.974-8.625,3.714c-2.591,1.738-3.871,4.396-5.647,6.896
	c-3.851,5.411-8.362,9.839-14.199,13.084c-7.777,4.323-12.963,10.256-18.457,17.079c-27.261,33.721-52.534,63.593-75.851,89.692
	c-9.313,10.409-17.363,20.669-24.068,30.812c-58.039,87.1-94.097,141.636-108.173,163.604c0,0-7.038,10.997-7.055,11.025
	c-5.912,9.378-16.265,13.829-26.739,15.951c-5.259,1.064-10.564,1.555-15.91,1.924c-3.174,0.219-14.489-0.419-16.523,1.819
	c-3.78,4.16-6.314,7.517-7.441,10.13l-5.306,11.995l-5.674,11.757c-4.562,9.416-9.9,25.941-16.093,49.549
	c-7.236,27.646-12.71,46.158-16.2,55.441c3.674,6.647,5.688,10.229,6.042,10.737c3.237,5.178,5.679,7.442,7.469,6.668l36.09-13.627
	c10.266-3.91,26.417-9.572,48.456-16.983l12.187-4.076c2.031-0.681,19.778-12.48,53.242-35.398
	c10.415-7.099,17.507-11.895,21.133-14.262l10.767-7.051c2.637-1.738,45.896-43.778,129.635-125.99
	c28.961-28.411,62.338-62.122,100.148-100.939c3.016-3.166,5.998-6.25,8.901-9.367c28.936-30.924,43.386-46.811,43.415-47.819
	c0.112-3.998,0.261-9.248,0.663-11.979l0.875-5.959C618.174,981.783,615.193,980.882,609.617,979.973z M1954.372,403.812
	c-47.988-36.627-83.182-61.616-105.58-74.968c-140.712-83.744-282.572-71.053-399.046-57.35
	c-88.354,10.459-135.325,16.177-140.937,17.275c-55.671,10.897-112.546,12.86-168.808,19.388
	c-7.229,0.839-11.632,1.366-13.126,1.552c-22.868,2.31-35.964,3.942-39.318,4.817c-14.386,3.858-19.082,9.551-13.895,17.1
	c5.289,2.363,9.311,3.54,12.228,3.471l13.223-0.3c47.103-1.069,94.267,2.019,140.571,10.885
	c33.653,6.444,100.441,20.101,156.715,54.962c21.369,13.217,88.985,63.722,132.881,102.917
	c60.424,54.031,94.586,93.162,155.459,173.043c11.547,15.174,24.377,29.947,34.415,46.182c9.243,14.949,8.691,28.736,3.587,45.078
	c-2.535,8.115-5.732,16.052-8.092,24.219c-2.396,8.295-9.734,37.867-21.99,88.906c0,0-3.05,12.687-3.053,12.699
	c-0.927,3.851-3.522,8.964-1.983,12.94c1.926,4.979,10.271,4.691,14.706,4.58l12.938-0.129c2.177-0.019,10.812-0.041,25.9-0.07
	c7.389-0.012,11.67,0,12.914-0.01c202.454-1.709,387.909-2.826,556.366-3.348c2.104,0.03,36.611-0.253,103.547-0.658
	c6.219-0.052,27.742,0.035,64.695,0.28c7.365,0.107,11.67,0,12.936-0.129c4.184-0.44,8.287-1.455,12.271-2.805
	c-0.494-1.957-11.744-20.686-25.818-36.664C2405.772,785.236,2106.999,520.318,1954.372,403.812z M1210.062,326.659
	c-3.72,0-6.732-3.014-6.732-6.732c0-3.718,3.014-6.732,6.732-6.732c3.718,0,6.731,3.014,6.731,6.732
	C1216.794,323.645,1213.781,326.659,1210.062,326.659z M1266.633,326.659c-3.719,0-6.731-3.014-6.731-6.732
	c0-3.718,3.014-6.732,6.731-6.732c3.719,0,6.732,3.014,6.732,6.732C1273.365,323.645,1270.352,326.659,1266.633,326.659z
	 M1323.203,326.659c-3.719,0-6.732-3.014-6.732-6.732c0-3.718,3.015-6.732,6.732-6.732s6.732,3.014,6.732,6.732
	C1329.936,323.645,1326.922,326.659,1323.203,326.659z M1379.774,378.659c-3.72,0-6.732-3.014-6.732-6.732
	c0-3.718,3.014-6.732,6.732-6.732c3.718,0,6.731,3.014,6.731,6.732C1386.506,375.645,1383.493,378.659,1379.774,378.659z
	 M1379.774,326.659c-3.72,0-6.732-3.014-6.732-6.732c0-3.718,3.014-6.732,6.732-6.732c3.718,0,6.731,3.014,6.731,6.732
	C1386.506,323.645,1383.493,326.659,1379.774,326.659z M1436.345,378.659c-3.719,0-6.731-3.014-6.731-6.732
	c0-3.718,3.014-6.732,6.731-6.732s6.732,3.014,6.732,6.732C1443.077,375.645,1440.062,378.659,1436.345,378.659z M1436.345,326.659
	c-3.719,0-6.731-3.014-6.731-6.732c0-3.718,3.014-6.732,6.731-6.732s6.732,3.014,6.732,6.732
	C1443.077,323.645,1440.062,326.659,1436.345,326.659z M1492.915,430.659c-3.719,0-6.732-3.015-6.732-6.732s3.015-6.732,6.732-6.732
	s6.732,3.014,6.732,6.732S1496.634,430.659,1492.915,430.659z M1492.915,378.659c-3.719,0-6.732-3.014-6.732-6.732
	c0-3.718,3.015-6.732,6.732-6.732s6.732,3.014,6.732,6.732C1499.647,375.645,1496.634,378.659,1492.915,378.659z M1492.915,326.659
	c-3.719,0-6.732-3.014-6.732-6.732c0-3.718,3.015-6.732,6.732-6.732s6.732,3.014,6.732,6.732
	C1499.647,323.645,1496.634,326.659,1492.915,326.659z M1549.485,482.659c-3.72,0-6.732-3.015-6.732-6.732s3.014-6.731,6.732-6.731
	c3.718,0,6.731,3.014,6.731,6.731S1553.204,482.659,1549.485,482.659z M1549.485,430.659c-3.72,0-6.732-3.015-6.732-6.732
	s3.014-6.732,6.732-6.732c3.718,0,6.731,3.014,6.731,6.732S1553.204,430.659,1549.485,430.659z M1549.485,378.659
	c-3.72,0-6.732-3.014-6.732-6.732c0-3.718,3.014-6.732,6.732-6.732c3.718,0,6.731,3.014,6.731,6.732
	C1556.217,375.645,1553.204,378.659,1549.485,378.659z M1549.485,326.659c-3.72,0-6.732-3.014-6.732-6.732
	c0-3.718,3.014-6.732,6.732-6.732c3.718,0,6.731,3.014,6.731,6.732C1556.217,323.645,1553.204,326.659,1549.485,326.659z
	 M1606.056,534.659c-3.719,0-6.731-3.015-6.731-6.732s3.014-6.731,6.731-6.731c3.719,0,6.732,3.014,6.732,6.731
	S1609.774,534.659,1606.056,534.659z M1606.056,482.659c-3.719,0-6.731-3.015-6.731-6.732s3.014-6.731,6.731-6.731
	c3.719,0,6.732,3.014,6.732,6.731S1609.774,482.659,1606.056,482.659z M1606.056,430.659c-3.719,0-6.731-3.015-6.731-6.732
	s3.014-6.732,6.731-6.732c3.719,0,6.732,3.014,6.732,6.732S1609.774,430.659,1606.056,430.659z M1606.056,378.659
	c-3.719,0-6.731-3.014-6.731-6.732c0-3.718,3.014-6.732,6.731-6.732c3.719,0,6.732,3.014,6.732,6.732
	C1612.788,375.645,1609.774,378.659,1606.056,378.659z M1606.056,326.659c-3.719,0-6.731-3.014-6.731-6.732
	c0-3.718,3.014-6.732,6.731-6.732c3.719,0,6.732,3.014,6.732,6.732C1612.788,323.645,1609.774,326.659,1606.056,326.659z
	 M1662.626,586.659c-3.719,0-6.732-3.015-6.732-6.732s3.015-6.731,6.732-6.731s6.732,3.014,6.732,6.731
	S1666.345,586.659,1662.626,586.659z M1662.626,534.659c-3.719,0-6.732-3.015-6.732-6.732s3.015-6.731,6.732-6.731
	s6.732,3.014,6.732,6.731S1666.345,534.659,1662.626,534.659z M1662.626,482.659c-3.719,0-6.732-3.015-6.732-6.732
	s3.015-6.731,6.732-6.731s6.732,3.014,6.732,6.731S1666.345,482.659,1662.626,482.659z M1662.626,430.659
	c-3.719,0-6.732-3.015-6.732-6.732s3.015-6.732,6.732-6.732s6.732,3.014,6.732,6.732S1666.345,430.659,1662.626,430.659z
	 M1662.626,378.659c-3.719,0-6.732-3.014-6.732-6.732c0-3.718,3.015-6.732,6.732-6.732s6.732,3.014,6.732,6.732
	C1669.358,375.645,1666.345,378.659,1662.626,378.659z M1662.626,326.659c-3.719,0-6.732-3.014-6.732-6.732
	c0-3.718,3.015-6.732,6.732-6.732s6.732,3.014,6.732,6.732C1669.358,323.645,1666.345,326.659,1662.626,326.659z M1719.196,690.659
	c-3.72,0-6.732-3.016-6.732-6.732s3.015-6.731,6.732-6.731s6.731,3.015,6.731,6.731S1722.915,690.659,1719.196,690.659z
	 M1719.196,638.659c-3.72,0-6.732-3.016-6.732-6.732s3.015-6.731,6.732-6.731s6.731,3.015,6.731,6.731
	S1722.915,638.659,1719.196,638.659z M1719.196,586.659c-3.72,0-6.732-3.015-6.732-6.732s3.015-6.731,6.732-6.731
	s6.731,3.014,6.731,6.731S1722.915,586.659,1719.196,586.659z M1719.196,534.659c-3.72,0-6.732-3.015-6.732-6.732
	s3.015-6.731,6.732-6.731s6.731,3.014,6.731,6.731S1722.915,534.659,1719.196,534.659z M1719.196,482.659
	c-3.72,0-6.732-3.015-6.732-6.732s3.015-6.731,6.732-6.731s6.731,3.014,6.731,6.731S1722.915,482.659,1719.196,482.659z
	 M1719.196,430.659c-3.72,0-6.732-3.015-6.732-6.732s3.015-6.732,6.732-6.732s6.731,3.014,6.731,6.732
	S1722.915,430.659,1719.196,430.659z M1719.196,378.659c-3.72,0-6.732-3.014-6.732-6.732c0-3.718,3.015-6.732,6.732-6.732
	s6.731,3.014,6.731,6.732C1725.928,375.645,1722.915,378.659,1719.196,378.659z M1719.196,326.659c-3.72,0-6.732-3.014-6.732-6.732
	c0-3.718,3.015-6.732,6.732-6.732s6.731,3.014,6.731,6.732C1725.928,323.645,1722.915,326.659,1719.196,326.659z M1719.196,898.659
	c-3.72,0-6.732-3.016-6.732-6.732s3.015-6.731,6.732-6.731s6.731,3.015,6.731,6.731S1722.915,898.659,1719.196,898.659z
	 M1719.196,846.659c-3.72,0-6.732-3.016-6.732-6.732s3.015-6.731,6.732-6.731s6.731,3.015,6.731,6.731
	S1722.915,846.659,1719.196,846.659z M1775.766,898.659c-3.719,0-6.731-3.016-6.731-6.732s3.014-6.731,6.731-6.731
	c3.719,0,6.732,3.015,6.732,6.731S1779.485,898.659,1775.766,898.659z M1775.766,846.659c-3.719,0-6.731-3.016-6.731-6.732
	s3.014-6.731,6.731-6.731c3.719,0,6.732,3.015,6.732,6.731S1779.485,846.659,1775.766,846.659z M1775.766,794.659
	c-3.719,0-6.731-3.016-6.731-6.732s3.014-6.731,6.731-6.731c3.719,0,6.732,3.015,6.732,6.731S1779.485,794.659,1775.766,794.659z
	 M1775.766,742.659c-3.719,0-6.731-3.016-6.731-6.732s3.014-6.731,6.731-6.731c3.719,0,6.732,3.015,6.732,6.731
	S1779.485,742.659,1775.766,742.659z M1775.766,690.659c-3.719,0-6.731-3.016-6.731-6.732s3.014-6.731,6.731-6.731
	c3.719,0,6.732,3.015,6.732,6.731S1779.485,690.659,1775.766,690.659z M1775.766,638.659c-3.719,0-6.731-3.016-6.731-6.732
	s3.014-6.731,6.731-6.731c3.719,0,6.732,3.015,6.732,6.731S1779.485,638.659,1775.766,638.659z M1775.766,586.659
	c-3.719,0-6.731-3.015-6.731-6.732s3.014-6.731,6.731-6.731c3.719,0,6.732,3.014,6.732,6.731S1779.485,586.659,1775.766,586.659z
	 M1775.766,534.659c-3.719,0-6.731-3.015-6.731-6.732s3.014-6.731,6.731-6.731c3.719,0,6.732,3.014,6.732,6.731
	S1779.485,534.659,1775.766,534.659z M1775.766,482.659c-3.719,0-6.731-3.015-6.731-6.732s3.014-6.731,6.731-6.731
	c3.719,0,6.732,3.014,6.732,6.731S1779.485,482.659,1775.766,482.659z M1775.766,430.659c-3.719,0-6.731-3.015-6.731-6.732
	s3.014-6.732,6.731-6.732c3.719,0,6.732,3.014,6.732,6.732S1779.485,430.659,1775.766,430.659z M1775.766,378.659
	c-3.719,0-6.731-3.014-6.731-6.732c0-3.718,3.014-6.732,6.731-6.732c3.719,0,6.732,3.014,6.732,6.732
	C1782.499,375.645,1779.485,378.659,1775.766,378.659z M1775.766,326.659c-3.719,0-6.731-3.014-6.731-6.732
	c0-3.718,3.014-6.732,6.731-6.732c3.719,0,6.732,3.014,6.732,6.732C1782.499,323.645,1779.485,326.659,1775.766,326.659z
	 M1832.336,898.659c-3.719,0-6.732-3.016-6.732-6.732s3.014-6.731,6.732-6.731c3.717,0,6.732,3.015,6.732,6.731
	S1836.055,898.659,1832.336,898.659z M1832.336,846.659c-3.719,0-6.732-3.016-6.732-6.732s3.014-6.731,6.732-6.731
	c3.717,0,6.732,3.015,6.732,6.731S1836.055,846.659,1832.336,846.659z M1832.336,794.659c-3.719,0-6.732-3.016-6.732-6.732
	s3.014-6.731,6.732-6.731c3.717,0,6.732,3.015,6.732,6.731S1836.055,794.659,1832.336,794.659z M1832.336,742.659
	c-3.719,0-6.732-3.016-6.732-6.732s3.014-6.731,6.732-6.731c3.717,0,6.732,3.015,6.732,6.731S1836.055,742.659,1832.336,742.659z
	 M1832.336,690.659c-3.719,0-6.732-3.016-6.732-6.732s3.014-6.731,6.732-6.731c3.717,0,6.732,3.015,6.732,6.731
	S1836.055,690.659,1832.336,690.659z M1832.336,638.659c-3.719,0-6.732-3.016-6.732-6.732s3.014-6.731,6.732-6.731
	c3.717,0,6.732,3.015,6.732,6.731S1836.055,638.659,1832.336,638.659z M1832.336,586.659c-3.719,0-6.732-3.015-6.732-6.732
	s3.014-6.731,6.732-6.731c3.717,0,6.732,3.014,6.732,6.731S1836.055,586.659,1832.336,586.659z M1832.336,534.659
	c-3.719,0-6.732-3.015-6.732-6.732s3.014-6.731,6.732-6.731c3.717,0,6.732,3.014,6.732,6.731S1836.055,534.659,1832.336,534.659z
	 M1832.336,482.659c-3.719,0-6.732-3.015-6.732-6.732s3.014-6.731,6.732-6.731c3.717,0,6.732,3.014,6.732,6.731
	S1836.055,482.659,1832.336,482.659z M1832.336,430.659c-3.719,0-6.732-3.015-6.732-6.732s3.014-6.732,6.732-6.732
	c3.717,0,6.732,3.014,6.732,6.732S1836.055,430.659,1832.336,430.659z M1832.336,378.659c-3.719,0-6.732-3.014-6.732-6.732
	c0-3.718,3.014-6.732,6.732-6.732c3.717,0,6.732,3.014,6.732,6.732C1839.069,375.645,1836.055,378.659,1832.336,378.659z
	 M1888.907,898.659c-3.719,0-6.732-3.016-6.732-6.732s3.014-6.731,6.732-6.731c3.717,0,6.73,3.015,6.73,6.731
	S1892.625,898.659,1888.907,898.659z M1888.907,846.659c-3.719,0-6.732-3.016-6.732-6.732s3.014-6.731,6.732-6.731
	c3.717,0,6.73,3.015,6.73,6.731S1892.625,846.659,1888.907,846.659z M1888.907,794.659c-3.719,0-6.732-3.016-6.732-6.732
	s3.014-6.731,6.732-6.731c3.717,0,6.73,3.015,6.73,6.731S1892.625,794.659,1888.907,794.659z M1888.907,742.659
	c-3.719,0-6.732-3.016-6.732-6.732s3.014-6.731,6.732-6.731c3.717,0,6.73,3.015,6.73,6.731S1892.625,742.659,1888.907,742.659z
	 M1888.907,690.659c-3.719,0-6.732-3.016-6.732-6.732s3.014-6.731,6.732-6.731c3.717,0,6.73,3.015,6.73,6.731
	S1892.625,690.659,1888.907,690.659z M1888.907,638.659c-3.719,0-6.732-3.016-6.732-6.732s3.014-6.731,6.732-6.731
	c3.717,0,6.73,3.015,6.73,6.731S1892.625,638.659,1888.907,638.659z M1888.907,586.659c-3.719,0-6.732-3.015-6.732-6.732
	s3.014-6.731,6.732-6.731c3.717,0,6.73,3.014,6.73,6.731S1892.625,586.659,1888.907,586.659z M1888.907,534.659
	c-3.719,0-6.732-3.015-6.732-6.732s3.014-6.731,6.732-6.731c3.717,0,6.73,3.014,6.73,6.731S1892.625,534.659,1888.907,534.659z
	 M1888.907,482.659c-3.719,0-6.732-3.015-6.732-6.732s3.014-6.731,6.732-6.731c3.717,0,6.73,3.014,6.73,6.731
	S1892.625,482.659,1888.907,482.659z M1888.907,430.659c-3.719,0-6.732-3.015-6.732-6.732s3.014-6.732,6.732-6.732
	c3.717,0,6.73,3.014,6.73,6.732S1892.625,430.659,1888.907,430.659z M1945.477,898.659c-3.719,0-6.732-3.016-6.732-6.732
	s3.014-6.731,6.732-6.731s6.732,3.015,6.732,6.731S1949.196,898.659,1945.477,898.659z M1945.477,846.659
	c-3.719,0-6.732-3.016-6.732-6.732s3.014-6.731,6.732-6.731s6.732,3.015,6.732,6.731S1949.196,846.659,1945.477,846.659z
	 M1945.477,794.659c-3.719,0-6.732-3.016-6.732-6.732s3.014-6.731,6.732-6.731s6.732,3.015,6.732,6.731
	S1949.196,794.659,1945.477,794.659z M1945.477,742.659c-3.719,0-6.732-3.016-6.732-6.732s3.014-6.731,6.732-6.731
	s6.732,3.015,6.732,6.731S1949.196,742.659,1945.477,742.659z M1945.477,690.659c-3.719,0-6.732-3.016-6.732-6.732
	s3.014-6.731,6.732-6.731s6.732,3.015,6.732,6.731S1949.196,690.659,1945.477,690.659z M1945.477,638.659
	c-3.719,0-6.732-3.016-6.732-6.732s3.014-6.731,6.732-6.731s6.732,3.015,6.732,6.731S1949.196,638.659,1945.477,638.659z
	 M1945.477,586.659c-3.719,0-6.732-3.015-6.732-6.732s3.014-6.731,6.732-6.731s6.732,3.014,6.732,6.731
	S1949.196,586.659,1945.477,586.659z M1945.477,534.659c-3.719,0-6.732-3.015-6.732-6.732s3.014-6.731,6.732-6.731
	s6.732,3.014,6.732,6.731S1949.196,534.659,1945.477,534.659z M1945.477,482.659c-3.719,0-6.732-3.015-6.732-6.732
	s3.014-6.731,6.732-6.731s6.732,3.014,6.732,6.731S1949.196,482.659,1945.477,482.659z M1945.477,430.659
	c-3.719,0-6.732-3.015-6.732-6.732s3.014-6.732,6.732-6.732s6.732,3.014,6.732,6.732S1949.196,430.659,1945.477,430.659z
	 M2002.047,898.659c-3.719,0-6.732-3.016-6.732-6.732s3.014-6.731,6.732-6.731s6.732,3.015,6.732,6.731
	S2005.766,898.659,2002.047,898.659z M2002.047,846.659c-3.719,0-6.732-3.016-6.732-6.732s3.014-6.731,6.732-6.731
	s6.732,3.015,6.732,6.731S2005.766,846.659,2002.047,846.659z M2002.047,794.659c-3.719,0-6.732-3.016-6.732-6.732
	s3.014-6.731,6.732-6.731s6.732,3.015,6.732,6.731S2005.766,794.659,2002.047,794.659z M2002.047,742.659
	c-3.719,0-6.732-3.016-6.732-6.732s3.014-6.731,6.732-6.731s6.732,3.015,6.732,6.731S2005.766,742.659,2002.047,742.659z
	 M2002.047,690.659c-3.719,0-6.732-3.016-6.732-6.732s3.014-6.731,6.732-6.731s6.732,3.015,6.732,6.731
	S2005.766,690.659,2002.047,690.659z M2002.047,638.659c-3.719,0-6.732-3.016-6.732-6.732s3.014-6.731,6.732-6.731
	s6.732,3.015,6.732,6.731S2005.766,638.659,2002.047,638.659z M2002.047,586.659c-3.719,0-6.732-3.015-6.732-6.732
	s3.014-6.731,6.732-6.731s6.732,3.014,6.732,6.731S2005.766,586.659,2002.047,586.659z M2002.047,534.659
	c-3.719,0-6.732-3.015-6.732-6.732s3.014-6.731,6.732-6.731s6.732,3.014,6.732,6.731S2005.766,534.659,2002.047,534.659z
	 M2002.047,482.659c-3.719,0-6.732-3.015-6.732-6.732s3.014-6.731,6.732-6.731s6.732,3.014,6.732,6.731
	S2005.766,482.659,2002.047,482.659z M2058.618,898.659c-3.719,0-6.732-3.016-6.732-6.732s3.014-6.731,6.732-6.731
	c3.717,0,6.73,3.015,6.73,6.731S2062.336,898.659,2058.618,898.659z M2058.618,846.659c-3.719,0-6.732-3.016-6.732-6.732
	s3.014-6.731,6.732-6.731c3.717,0,6.73,3.015,6.73,6.731S2062.336,846.659,2058.618,846.659z M2058.618,794.659
	c-3.719,0-6.732-3.016-6.732-6.732s3.014-6.731,6.732-6.731c3.717,0,6.73,3.015,6.73,6.731S2062.336,794.659,2058.618,794.659z
	 M2058.618,742.659c-3.719,0-6.732-3.016-6.732-6.732s3.014-6.731,6.732-6.731c3.717,0,6.73,3.015,6.73,6.731
	S2062.336,742.659,2058.618,742.659z M2058.618,690.659c-3.719,0-6.732-3.016-6.732-6.732s3.014-6.731,6.732-6.731
	c3.717,0,6.73,3.015,6.73,6.731S2062.336,690.659,2058.618,690.659z M2058.618,638.659c-3.719,0-6.732-3.016-6.732-6.732
	s3.014-6.731,6.732-6.731c3.717,0,6.73,3.015,6.73,6.731S2062.336,638.659,2058.618,638.659z M2058.618,586.659
	c-3.719,0-6.732-3.015-6.732-6.732s3.014-6.731,6.732-6.731c3.717,0,6.73,3.014,6.73,6.731S2062.336,586.659,2058.618,586.659z
	 M2058.618,534.659c-3.719,0-6.732-3.015-6.732-6.732s3.014-6.731,6.732-6.731c3.717,0,6.73,3.014,6.73,6.731
	S2062.336,534.659,2058.618,534.659z M2115.188,898.659c-3.719,0-6.732-3.016-6.732-6.732s3.014-6.731,6.732-6.731
	s6.732,3.015,6.732,6.731S2118.907,898.659,2115.188,898.659z M2115.188,846.659c-3.719,0-6.732-3.016-6.732-6.732
	s3.014-6.731,6.732-6.731s6.732,3.015,6.732,6.731S2118.907,846.659,2115.188,846.659z M2115.188,794.659
	c-3.719,0-6.732-3.016-6.732-6.732s3.014-6.731,6.732-6.731s6.732,3.015,6.732,6.731S2118.907,794.659,2115.188,794.659z
	 M2115.188,742.659c-3.719,0-6.732-3.016-6.732-6.732s3.014-6.731,6.732-6.731s6.732,3.015,6.732,6.731
	S2118.907,742.659,2115.188,742.659z M2115.188,690.659c-3.719,0-6.732-3.016-6.732-6.732s3.014-6.731,6.732-6.731
	s6.732,3.015,6.732,6.731S2118.907,690.659,2115.188,690.659z M2115.188,638.659c-3.719,0-6.732-3.016-6.732-6.732
	s3.014-6.731,6.732-6.731s6.732,3.015,6.732,6.731S2118.907,638.659,2115.188,638.659z M2115.188,586.659
	c-3.719,0-6.732-3.015-6.732-6.732s3.014-6.731,6.732-6.731s6.732,3.014,6.732,6.731S2118.907,586.659,2115.188,586.659z
	 M2171.758,898.659c-3.719,0-6.732-3.016-6.732-6.732s3.014-6.731,6.732-6.731s6.732,3.015,6.732,6.731
	S2175.477,898.659,2171.758,898.659z M2171.758,846.659c-3.719,0-6.732-3.016-6.732-6.732s3.014-6.731,6.732-6.731
	s6.732,3.015,6.732,6.731S2175.477,846.659,2171.758,846.659z M2171.758,794.659c-3.719,0-6.732-3.016-6.732-6.732
	s3.014-6.731,6.732-6.731s6.732,3.015,6.732,6.731S2175.477,794.659,2171.758,794.659z M2171.758,742.659
	c-3.719,0-6.732-3.016-6.732-6.732s3.014-6.731,6.732-6.731s6.732,3.015,6.732,6.731S2175.477,742.659,2171.758,742.659z
	 M2171.758,690.659c-3.719,0-6.732-3.016-6.732-6.732s3.014-6.731,6.732-6.731s6.732,3.015,6.732,6.731
	S2175.477,690.659,2171.758,690.659z M2171.758,638.659c-3.719,0-6.732-3.016-6.732-6.732s3.014-6.731,6.732-6.731
	s6.732,3.015,6.732,6.731S2175.477,638.659,2171.758,638.659z M2228.329,898.659c-3.719,0-6.732-3.016-6.732-6.732
	s3.014-6.731,6.732-6.731c3.717,0,6.73,3.015,6.73,6.731S2232.047,898.659,2228.329,898.659z M2228.329,846.659
	c-3.719,0-6.732-3.016-6.732-6.732s3.014-6.731,6.732-6.731c3.717,0,6.73,3.015,6.73,6.731S2232.047,846.659,2228.329,846.659z
	 M2228.329,794.659c-3.719,0-6.732-3.016-6.732-6.732s3.014-6.731,6.732-6.731c3.717,0,6.73,3.015,6.73,6.731
	S2232.047,794.659,2228.329,794.659z M2228.329,742.659c-3.719,0-6.732-3.016-6.732-6.732s3.014-6.731,6.732-6.731
	c3.717,0,6.73,3.015,6.73,6.731S2232.047,742.659,2228.329,742.659z M2228.329,690.659c-3.719,0-6.732-3.016-6.732-6.732
	s3.014-6.731,6.732-6.731c3.717,0,6.73,3.015,6.73,6.731S2232.047,690.659,2228.329,690.659z M2284.899,898.659
	c-3.721,0-6.732-3.016-6.732-6.732s3.014-6.731,6.732-6.731c3.717,0,6.73,3.015,6.73,6.731S2288.618,898.659,2284.899,898.659z
	 M2284.899,846.659c-3.721,0-6.732-3.016-6.732-6.732s3.014-6.731,6.732-6.731c3.717,0,6.73,3.015,6.73,6.731
	S2288.618,846.659,2284.899,846.659z M2284.899,794.659c-3.721,0-6.732-3.016-6.732-6.732s3.014-6.731,6.732-6.731
	c3.717,0,6.73,3.015,6.73,6.731S2288.618,794.659,2284.899,794.659z M2284.899,742.659c-3.721,0-6.732-3.016-6.732-6.732
	s3.014-6.731,6.732-6.731c3.717,0,6.73,3.015,6.73,6.731S2288.618,742.659,2284.899,742.659z M2341.469,898.659
	c-3.719,0-6.732-3.016-6.732-6.732s3.014-6.731,6.732-6.731s6.732,3.015,6.732,6.731S2345.188,898.659,2341.469,898.659z
	 M2341.469,846.659c-3.719,0-6.732-3.016-6.732-6.732s3.014-6.731,6.732-6.731s6.732,3.015,6.732,6.731
	S2345.188,846.659,2341.469,846.659z M2341.469,794.659c-3.719,0-6.732-3.016-6.732-6.732s3.014-6.731,6.732-6.731
	s6.732,3.015,6.732,6.731S2345.188,794.659,2341.469,794.659z M2398.04,898.659c-3.719,0-6.732-3.016-6.732-6.732
	s3.014-6.731,6.732-6.731c3.717,0,6.732,3.015,6.732,6.731S2401.758,898.659,2398.04,898.659z M2398.04,846.659
	c-3.719,0-6.732-3.016-6.732-6.732s3.014-6.731,6.732-6.731c3.717,0,6.732,3.015,6.732,6.731S2401.758,846.659,2398.04,846.659z
	 M2454.61,898.659c-3.721,0-6.732-3.016-6.732-6.732s3.014-6.731,6.732-6.731c3.717,0,6.73,3.015,6.73,6.731
	S2458.329,898.659,2454.61,898.659z"/>
</svg>
