<?xml version="1.0" encoding="utf-8"?>
<!-- Generator: Adobe Illustrator 16.0.0, SVG Export Plug-In . SVG Version: 6.00 Build 0)  -->
<!DOCTYPE svg PUBLIC "-//W3C//DTD SVG 1.1//EN" "http://www.w3.org/Graphics/SVG/1.1/DTD/svg11.dtd">
<svg version="1.1" id="Layer_1" xmlns="http://www.w3.org/2000/svg" xmlns:xlink="http://www.w3.org/1999/xlink" x="0px" y="0px"
	 width="3538.508px" height="1376.36px" viewBox="0 0 3538.508 1376.36" enable-background="new 0 0 3538.508 1376.36"
	 xml:space="preserve">
<path d="M950.71,912.887c1.236,1.104,2.798,1.756,4.925,1.555c3.953-0.373,7.979-0.768,11.936-1.252
	c3.693-0.453,7.386-0.787,11.086-1.166c46.072-4.76,80.494-8.217,103.1-10.154c9.774-0.867,19.546-1.857,29.328-2.662
	c5.755-0.475,11.545-1.451,17.295-1.781c10.207-0.584,17.69-9.799,27.522-12.104c9.202-2.16,16.801,0.559,25.418,3.475
	c3.601,1.203,7.836,1.906,12.714,2.105c3.816,0.094,16.885-1.066,39.228-3.561c13.045-1.455,26.124-2.588,39.179-3.939
	c166.327-17.26,257.867-26.623,274.431-28.08l13.146-1.133c75.96-6.82,119.521-11.479,130.681-13.967
	c0.727-1.754,2.01-7.611,4.104-17.49c3.914-18.756,5.889-28.309,5.864-28.496c0.386-4.629,0.273-9.158-0.352-13.781
	c-0.945-0.438-1.513-0.639-1.623-0.586l-13.111,0.773c-94.998,5.738-147.276,8.902-156.896,9.654
	c-51.312,3.787-81.806,6-91.558,6.611l-39.178,2.66c-29.962,1.764-51.764,3.258-65.381,4.678
	c-14.435,1.396-26.955,4.861-37.396,10.447c-6.782,3.629-12.936,8.301-18.738,13.318c-2.295,1.984-4.537,4.029-6.737,6.119
	c-1.172,1.113-2.396,2.205-3.497,3.389c-0.914,0.984-2.264,1.361-3.547,0.949c-1.251-0.404-1.98-1.664-2.381-2.854
	c-0.494-1.48-0.994-2.951-1.501-4.424c-1.08-3.131-2.188-6.248-3.321-9.357c-2.535-6.963-5.185-13.885-7.902-20.777
	c-3.109-7.879-6.312-15.721-9.576-23.537c-3.674-8.795-7.424-17.561-11.229-26.301c-1.348-3.098-2.704-6.195-4.062-9.287
	c-45.373-102.768-95.562-182.25-150.62-238.284c-35.596-36.282-72.407-58.25-81-59.329c-7.805-0.979-54.648,16.607-56.372,19.104
	c-1.863,2.628-2.74,5.062-2.63,7.301L932.503,485c1.101,32.562-8.847,59.409-17.806,71.305
	c-10.029,13.342-25.652,23.387-46.899,30.213c-14.826,4.766-30.976,8.864-46.409,4.483c-15.251-4.329-29.548-15.271-39.28-27.604
	c-7.272-9.217-11.865-28.764-25.562-30.336c-1.496-0.172-51.058,20.377-60.649,24.619c-27.927,12.396-43.914,19.375-48.02,21.104
	c-27.367,11.522-55.981,24.981-83.721,38.028c-20.745,9.758-32.033,16.413-33.753,19.918c-0.646,1.438-1.382,2.563-0.442,4.085
	c0.954,1.548,2.679,2.682,3.992,3.898c3.308,3.062,6.613,6.036,10.093,8.909c2.289,1.892,4.611,3.732,6.958,5.557
	c18.262,14.187,28.603,20.842,31.021,19.975l12.547-4.556c19.479-7.005,53.356-17.348,101.604-30.944
	c12.739-3.566,22.581-4.423,29.326-2.542c6.475,1.874,15.412,7.843,26.625,17.932c15.777,14.207,31.368,29.444,46.666,45.496
	c63.452,66.57,109.858,128.561,139.384,186.027c2.915,5.686,6.019,11.27,8.945,16.941
	C948.141,909.483,949.181,911.526,950.71,912.887z M520.668,632.56c-1.7-0.743-3.734-0.258-5.511-0.146
	c-2.278,0.145-4.873,0.318-6.899,1.484c-0.001,0-11.398,6.552-34.033,19.448c-34.092,19.431-68.246,38.748-102.456,57.97
	c-45.544,25.588-68.37,38.445-68.422,38.518c-2.135,2.055-4.623,5.689-7.462,10.906c-2.485,4.619-34.447,94.918-38.87,112.322
	l-3.353,12.775c-0.812,3.299-6.426,8.439-16.776,15.477l-5.942,4.014c-0.959,0.676-4.483,27.061-10.562,79.275
	c-6.164,52.979-12.448,105.939-18.868,158.885c-3.119,25.721-4.686,39.012-4.661,39.684c0.19,4.4,1.058,8.777,2.562,12.889
	c5.831-0.064,10.117-0.674,12.792-1.873c3.867-1.734,7.81-3.533,11.981-4.467c4.573-1.02,9.075-0.557,13.704-0.398
	c2.896,0.061,7.312-0.012,13.195-0.146c3.583-4.205,15.363-25.617,35.22-64.223c10.25-19.928,20.668-39.768,30.941-59.684
	c16.762-32.496,31.943-59.996,45.433-82.486l6.955-11.52l9.121-9.949c12.961-14.064,22.165-23.842,27.802-29.291
	c13.357-12.887,26.192-25.521,38.454-37.838c18.796-18.926,28.271-28.49,28.566-28.59c3.173-2.125,7.268-3.752,12.271-5.004
	l12.812-3.168c3.711-4.648,6.196-8.287,7.445-11.025l5.652-12.092c12.79-27.354,43.441-88.059,65.575-131.883
	c1.227-2.43,2.27-6.312,3.044-11.818c-1.742-1.131-8.982-5.862-21.616-14.335c-1.007-0.671-4.627-3.038-10.913-7.03
	c-5.373-3.506-10.834-6.914-16.106-10.567c-1.724-1.193-3.514-2.271-5.252-3.438c-1.171-0.785-2.193-1.785-3.443-2.443
	c-1.675-0.882-2.923-2.896-3.625-4.632c-0.927-2.292,0.027-3.21,0.969-5.228c0.516-1.104,0.967-2.242,1.394-3.387
	c0.425-1.137,0.808-2.311,1.113-3.483c0.389-1.477-0.906-2.896-2.145-3.463C520.722,632.584,520.694,632.573,520.668,632.56z
	 M3536.487,780.838l-11.535-5.283c-1.215-0.518-23.062,0.723-65.578,3.598c-23.229,1.596-46.483,3.246-69.76,4.143
	c-12.283,0.477-27.834,1.23-36.43-9.154c-8.867-10.713-8.023-27.363-9.127-40.383c-0.875-0.705-1.871-1.387-2.846-1.945
	c-2.281-1.246-19.498-1.438-51.51-0.467c-17.945,0.57-35.121,0.936-51.604,1.041l-12.918,0.248
	c-60.072,1.156-139.197,2.678-180.228,3.174c-21.422,0.264-42.834,1.152-64.256,1.365l-12.938,0.129l-7.134,2.207l-3.053,16.943
	c-0.416,2.746-4.479,20.131-4.848,20.818c-1.662,3.041-3.547,4.572-5.58,4.645c-1.844,0.098-3.342-0.615-4.494-2.137
	c-0.633-5.029-0.715-10.102-0.223-15.094c-0.021-0.121,2.16-10.33,6.523-30.748c-29.658-5.674-65.438-17.521-164.076-77.202
	c-2.66-1.611-6.314-3.903-11.017-6.811c-38.711-24.199-117.94-69.343-237.553-135.335c-19.719-10.885-46.229-25.583-79.726-44.122
	c-50.812-28.198-77.439-42.874-79.818-43.979c-16.023-7.448-50.865-27.909-75.883-42.602
	c-30.528-17.929-61.839-34.496-92.395-52.381c-26.643-15.595-54.61-28.871-80.773-45.288c-14.903-9.353-30.668-17.221-45.955-25.915
	c-6.194-3.523-11.832-8.049-18.483-10.752c-7.866-3.196-12.899-1.561-19.543,3.088c-6.894,4.807-12.83,6.998-17.637,6.501
	l-4.642-0.397c-2.315-0.243-10.085-4.225-23.121-12.104l-11.127-6.714c-5.812-3.503-80.682-41.565-81.1-41.767
	c-7.54-3.533-15.412-7.262-23.696-11.277c-72.521-35.658-141.775-60.812-256.734-61.824c-22.886-0.247-36.129,0.069-39.722,0.777
	c-4.296,0.92-8.375,2.46-12.15,4.625c-0.234,0.935-0.293,1.795-0.175,2.581c3.09,2.887,6.271,5.693,9.636,8.342
	c8.369,6.613,22.28,16.885,41.571,30.718c8.82,6.298,29.651,21.617,62.486,46.042c18.437,13.688,29.177,20.98,32.147,21.786
	l12.546,3.611c20.694,5.804,67.751,19.262,132.754,53.634c39.05,20.696,79.438,45.89,121.063,75.748
	c31.494,22.52,59.062,43.045,82.779,61.67c34.143,26.846,61.041,48.278,80.604,64.462c38.806,32,65.039,54.339,78.709,66.928
	l22.085,19.72c1.209,0.828,69.201,59.487,106.309,95.649c28.904,28.147,55.193,56.905,78.896,86.397
	c15.431,19.129,23.362,29.367,23.823,30.832l14.111,21.361c0.521,0.461,17.863,27.48,23.717,37.861
	c4.886,8.662,13.129,23.289,15.447,25.52c1.894,1.812,4.736,3.766,8.539,5.844c5.938,3.229,71.519,26.803,196.732,70.404
	c66.037,23.053,172.771,60.688,320.195,112.91l36.936,13.057c28.504,10.104,57.199,20.24,86.275,30.428
	c0,0,12.182,4.299,12.287,4.336c5.67,1.977,16.936,0.857,16.196-7.662c-0.19-2.213-2.299-4.711-3.438-6.557
	c-2.388-3.865-7.345-9.02-7.271-13.869c0.367-24.662,14.416-40.969,39.568-34.379c9.383,2.457,18.91,4.232,27.812,8.062
	c11.768,5.061,23.651,12.279,22.885,26.865c-0.476,8.969-7.834,27.164-17.203,30.939c-4.689,1.889-10.467,2.998-14.434,6.297
	c-5.979,4.973-1.134,10.627,4.768,12.604c7.1,2.383,14.145,4.918,21.057,7.811c2.5,1.084,6.469,1.084,11.863,0.074l125.002-266.568
	c0.365-0.688,21.873-20.658,65.914-46.834c20.021-12,38.951-22.865,56.65-32.693l11.461-6.361
	C3539.686,794.94,3539.342,782.165,3536.487,780.838z M321.133,213.644c139.229,8.628,250.64,15.674,334.232,21.139
	c192.713,12.538,329.812,20.168,411.078,22.742c34.234,1.085,68.463,2.283,102.698,3.336c50.392,1.552,101.641,1.498,153.867-0.184
	c15.017-0.491,32.112-1.776,51.121-3.76c60.847-6.414,129.015-11.698,204.551-15.924c26.948-1.478,48.279-2.126,63.968-1.76
	c8.013,0.154,16.071,0.385,24.057,0.504c4.412,0.066,1.963-4.474,0.809-6.404c-1.444-2.417-3.234-4.645-5.092-6.75
	c-7.914-8.974-126.597-93.675-130.399-94.957c-3.997-1.307-25.446-0.32-64.442,3.099c-37.105,3.224-75.725,5.446-116.089,6.716
	c-63.989,1.95-102.827,2.786-116.292,2.341l-12.963-0.424l-12.914,0.127c-2.917,0.031-7.057-0.748-12.561-2.433
	c-0.363-1.792-0.06-3.348,0.942-4.546c0.812-0.911,18.382-3.227,53.073-7.017c31.196-3.41,62.37-7.025,93.479-11.158
	c26.643-3.539,53.594-4.944,79.97-10.287c2.868-0.581,7.219-1.213,13.027-2.018c5.883-0.812,8.742-9.029,2.603-11.724
	c-5.53-2.426-13.813-5.849-25.016-10.174c-45.053-17.563-81.277-35.481-108.802-53.733c-11.279-7.48-22.489-14.915-33.771-22.396
	l-11.282-7.481L1248.19,0l-12.788,2.59l-12.67,1.944c-2.893,0.462-15.586,2.597-38.367,6.525
	c-11.427,1.941-24.168,3.838-38.226,5.689l-63.973,9.412l-76.548,11.211c-33.373,5.08-71.791,10.434-115.017,16.017
	c-17.059,2.203-34.005,5.211-51.062,7.418c-28.066,3.631-45.091,5.897-51.187,6.821L673.364,83.455
	c-10.806,1.629-27.803,4.014-51.089,6.988c-11.093,1.438-23.787,3.263-38.322,5.522l-38.368,5.283
	c-21.223,3.266-42.609,5.316-63.831,8.572c-5.068,0.778-26.396,3.604-63.931,8.407c-21.282,2.724-42.6,5.204-63.854,8.145
	l-38.729,5.355c-35.896,5.212-76.934,11.358-122.441,17.947c-48.182,6.979-94.585,13.316-139.439,19.087
	c-30.648,3.918-47.031,7.952-49.068,11.946l-3.525,6.913c-1.299,2.545-1.172,6.57,2.258,6.959
	c16.688,1.885,158.771,9.286,266.976,14.739C275.685,210.408,292.717,211.873,321.133,213.644z M1233.08,191.431
	c5.752-24.12,24.479-43.774,55.725-38.782c17.15,2.686,29.228,11.312,36.175,25.955c12.448,26.238,3.117,60.164-26.162,68.938
	C1249.491,262.322,1226.263,219.81,1233.08,191.431z M1687.527,853.829c-6.311-0.404-14.927-0.045-25.737,0.92
	c-65.799,6.172-112.99,10.711-141.584,13.617c-8.63,0.877-51.521,4.719-77.289,7.025c-61.677,5.525-126.069,11.66-193.11,18.506
	c-17.151,1.75-34.44,2.15-51.502,4.719l-12.62,1.895l-2.623,0.02c12.783,12.271,18.926,26.188,18.586,41.854
	c-0.146,7.4-4.035,21.795-6.321,26.23c-1.88,3.539-4.639,7.111-8.163,10.561c-7.146,6.977-15.082,10.672-23.812,11.189
	c-34.479,2.045-61.468-47.279-34.207-85.859l-184.608,18.303c-2.749,0.26-15.356,110.539-15.229,113.529
	c0.336,4.42,1.224,8.668,2.732,12.842c3.037,0.664,4.995,0.98,5.959,0.959l13.241,0.213c163.375,2.906,304.405,10.074,423.16,21.605
	c8.425,0.832,25.774,3.188,51.938,7.229c10.962,1.691,21.1,3.332,30.511-3.871c6.318-4.84,12.227-10.33,18.311-15.463
	c5.43-4.58,10.797-9.23,16.18-13.865c16.34-14.072,32.88-27.908,49.43-41.732c52.677-44.006,85.938-71.574,99.869-82.688
	c24.938-19.826,38.176-30.975,39.681-33.264C1683.323,883.719,1688.013,867.62,1687.527,853.829z M1672.713,714.223l10.832-3.275
	c6.333-1.869,9.824-3.312,10.459-4.135c0.396-0.461,0.68-0.896,0.934-1.447c-12.767-27.309-92.45-114.249-156.007-171.617
	c-70.689-63.812-164.183-135.854-267.392-162.253c-70.115-17.898-155.284-30.109-255.526-36.441
	c-42.759-2.729-76.914-4.328-102.584-4.765l-25.654-0.94c-8.45-0.419-82.431-0.702-89.603,1.036
	c-12.867,3.095-16.553,7.696-11.029,13.614c1.775,1.861,9.952,4.771,24.604,8.776c92.886,25.39,199.739,66.346,293.852,173.561
	c46.119,52.594,86.858,119.263,122.244,199.814c8.878,20.287,30.312,75.85,32.934,84.514c0,0,3.559,12.125,3.562,12.143
	c0.23,0.795,1.586,1.236,2.291,1.273c1.243,0.062,2.625-0.502,3.803-0.84c2.806-0.803,5.534-1.893,8.167-3.145
	c11.936-5.678,21.809-14.682,32.734-21.986c2.345-1.566,6.312-3.111,11.981-4.588l12.906-0.607
	c17.337-0.816,34.604-2.752,51.938-3.561c7.723-0.357,42.271-2.715,103.72-7.02c17.271-1.211,34.578-1.91,51.853-3.105
	c27.725-1.916,55.411-4.381,83.174-5.654c7.16-0.328,14.322-0.508,21.485-0.758c3.207-0.113,6.622-0.137,9.777-0.779
	c4.57-0.939,6.401-4.43,4.474-8.6c-1.396-3.02-2.553-6.229-3.47-9.424c-1.771-6.168-2.679-10.646-2.58-13.664
	c0.081-7.129,2.49-13.572,7.14-19.193C1666.853,717.424,1669.83,715.034,1672.713,714.223z M609.615,979.973
	c-4.089-0.668-8.161-1.359-12.204-2.275c-2.902-0.66-7.689-1.105-9.396-3.943c-2.113-3.52,0.615-8.301,2.827-10.936
	c1.708-2.035,3.488-4.033,5.259-6.016c4.223-4.723,8.44-9.455,12.599-14.234c0.208-0.24,2.717-3.43,2.949-3.334l-2.405-0.953
	l-9.976-9.234c-1.092-0.99-8.413-6.393-21.993-16.127l-21.849-16.254c-21.065-16.129-35.706-26.934-43.956-32.332
	c-2.801,1.318-6.031,1.973-8.625,3.713c-2.591,1.738-3.871,4.396-5.648,6.896c-3.85,5.412-8.359,9.84-14.199,13.084
	c-7.774,4.322-12.963,10.256-18.454,17.08c-27.264,33.721-52.534,63.592-75.854,89.691c-9.312,10.408-17.363,20.668-24.068,30.812
	c-58.037,87.1-94.097,141.635-108.171,163.604c0,0-7.038,10.996-7.057,11.025c-5.912,9.377-16.266,13.828-26.738,15.951
	c-5.26,1.061-10.563,1.555-15.909,1.924c-3.176,0.219-14.489-0.42-16.522,1.816c-3.78,4.16-6.312,7.52-7.439,10.133l-5.308,11.992
	l-5.674,11.76c-4.562,9.416-9.9,25.938-16.094,49.549c-7.235,27.645-12.71,46.156-16.2,55.438c3.675,6.648,5.688,10.23,6.042,10.738
	c3.237,5.178,5.68,7.441,7.47,6.668l36.09-13.627c10.268-3.91,26.417-9.572,48.456-16.984l12.188-4.072
	c2.031-0.684,19.777-12.48,53.24-35.398c10.415-7.1,17.509-11.895,21.136-14.262l10.767-7.051
	c2.636-1.738,45.896-43.779,129.634-125.99c28.961-28.412,62.338-62.123,100.149-100.939c3.015-3.166,5.998-6.25,8.898-9.367
	c28.938-30.924,43.389-46.811,43.415-47.818c0.113-3.998,0.264-9.248,0.663-11.979l0.875-5.959
	C618.174,981.784,615.191,980.881,609.615,979.973z M1954.367,403.812c-47.985-36.627-83.182-61.616-105.578-74.968
	c-140.713-83.744-282.57-71.053-399.047-57.35c-88.354,10.459-135.322,16.177-140.936,17.274
	c-55.671,10.897-112.546,12.86-168.809,19.389c-7.229,0.839-11.634,1.365-13.125,1.552c-22.868,2.31-35.967,3.941-39.318,4.816
	c-14.386,3.858-19.082,9.552-13.896,17.101c5.289,2.362,9.312,3.54,12.229,3.471l13.222-0.3
	c47.104-1.069,94.27,2.019,140.571,10.885c33.654,6.444,100.442,20.102,156.715,54.962c21.369,13.217,88.986,63.723,132.881,102.917
	c60.424,54.031,94.586,93.162,155.459,173.043c11.547,15.174,24.377,29.948,34.415,46.182c9.243,14.949,8.692,28.736,3.587,45.078
	c-2.534,8.115-5.729,16.053-8.092,24.219c-2.396,8.295-9.733,37.867-21.99,88.906c0,0-3.05,12.688-3.053,12.699
	c-0.926,3.852-3.521,8.965-1.983,12.939c1.929,4.98,10.271,4.691,14.707,4.58l12.938-0.129c2.176-0.021,10.812-0.041,25.9-0.07
	c7.389-0.012,11.67,0,12.913-0.01c202.452-1.709,387.907-2.826,556.364-3.348c2.104,0.027,36.611-0.252,103.548-0.658
	c6.221-0.051,27.741,0.035,64.694,0.281c7.365,0.104,11.67,0,12.938-0.133c4.182-0.438,8.287-1.455,12.27-2.805
	c-0.492-1.957-11.742-20.686-25.815-36.664C2405.769,785.237,2106.996,520.319,1954.367,403.812z M1210.06,326.66
	c-3.719,0-6.732-3.015-6.732-6.732c0-3.717,3.017-6.731,6.732-6.731s6.732,3.015,6.732,6.731
	C1216.793,323.645,1213.779,326.66,1210.06,326.66z M1266.633,326.66c-3.721,0-6.732-3.015-6.732-6.732
	c0-3.717,3.016-6.731,6.732-6.731s6.729,3.015,6.729,6.731C1273.363,323.645,1270.35,326.66,1266.633,326.66z M1323.2,326.66
	c-3.719,0-6.729-3.015-6.729-6.732c0-3.717,3.014-6.731,6.729-6.731c3.721,0,6.732,3.015,6.732,6.731
	C1329.933,323.645,1326.922,326.66,1323.2,326.66z M1379.772,378.66c-3.719,0-6.732-3.015-6.732-6.732
	c0-3.717,3.017-6.732,6.732-6.732s6.732,3.015,6.732,6.732C1386.506,375.645,1383.49,378.66,1379.772,378.66z M1379.772,326.66
	c-3.719,0-6.732-3.015-6.732-6.732c0-3.717,3.017-6.731,6.732-6.731s6.732,3.015,6.732,6.731
	C1386.506,323.645,1383.49,326.66,1379.772,326.66z M1436.344,378.66c-3.721,0-6.732-3.015-6.732-6.732
	c0-3.717,3.016-6.732,6.732-6.732s6.729,3.015,6.729,6.732C1443.074,375.645,1440.061,378.66,1436.344,378.66z M1436.344,326.66
	c-3.721,0-6.732-3.015-6.732-6.732c0-3.717,3.016-6.731,6.732-6.731s6.729,3.015,6.729,6.731
	C1443.074,323.645,1440.061,326.66,1436.344,326.66z M1492.912,430.66c-3.719,0-6.729-3.017-6.729-6.732s3.014-6.732,6.729-6.732
	c3.721,0,6.732,3.015,6.732,6.732S1496.634,430.66,1492.912,430.66z M1492.912,378.66c-3.719,0-6.729-3.015-6.729-6.732
	c0-3.717,3.014-6.732,6.729-6.732c3.721,0,6.732,3.015,6.732,6.732C1499.645,375.645,1496.634,378.66,1492.912,378.66z
	 M1492.912,326.66c-3.719,0-6.729-3.015-6.729-6.732c0-3.717,3.014-6.731,6.729-6.731c3.721,0,6.732,3.015,6.732,6.731
	C1499.645,323.645,1496.634,326.66,1492.912,326.66z M1549.483,482.66c-3.719,0-6.732-3.017-6.732-6.732s3.017-6.729,6.732-6.729
	s6.732,3.014,6.732,6.729S1553.201,482.66,1549.483,482.66z M1549.483,430.66c-3.719,0-6.732-3.017-6.732-6.732
	s3.017-6.732,6.732-6.732s6.732,3.015,6.732,6.732S1553.201,430.66,1549.483,430.66z M1549.483,378.66
	c-3.719,0-6.732-3.015-6.732-6.732c0-3.717,3.017-6.732,6.732-6.732s6.732,3.015,6.732,6.732
	C1556.217,375.645,1553.201,378.66,1549.483,378.66z M1549.483,326.66c-3.719,0-6.732-3.015-6.732-6.732
	c0-3.717,3.017-6.731,6.732-6.731s6.732,3.015,6.732,6.731C1556.217,323.645,1553.201,326.66,1549.483,326.66z M1606.054,534.66
	c-3.72,0-6.732-3.017-6.732-6.732s3.017-6.729,6.732-6.729s6.729,3.014,6.729,6.729
	C1612.784,531.645,1609.772,534.66,1606.054,534.66z M1606.054,482.66c-3.72,0-6.732-3.017-6.732-6.732s3.017-6.729,6.732-6.729
	s6.729,3.014,6.729,6.729S1609.772,482.66,1606.054,482.66z M1606.054,430.66c-3.72,0-6.732-3.017-6.732-6.732
	s3.017-6.732,6.732-6.732s6.729,3.015,6.729,6.732S1609.772,430.66,1606.054,430.66z M1606.054,378.66
	c-3.72,0-6.732-3.015-6.732-6.732c0-3.717,3.017-6.732,6.732-6.732s6.729,3.015,6.729,6.732
	C1612.785,375.645,1609.772,378.66,1606.054,378.66z M1606.054,326.66c-3.72,0-6.732-3.015-6.732-6.732
	c0-3.717,3.017-6.731,6.732-6.731s6.729,3.015,6.729,6.731C1612.785,323.645,1609.772,326.66,1606.054,326.66z M1662.623,586.66
	c-3.719,0-6.729-3.017-6.729-6.732s3.014-6.729,6.729-6.729c3.721,0,6.732,3.014,6.732,6.729
	C1669.356,583.645,1666.344,586.66,1662.623,586.66z M1662.623,534.66c-3.719,0-6.729-3.017-6.729-6.732s3.014-6.729,6.729-6.729
	c3.721,0,6.732,3.014,6.732,6.729C1669.356,531.645,1666.344,534.66,1662.623,534.66z M1662.623,482.66
	c-3.719,0-6.729-3.017-6.729-6.732s3.014-6.729,6.729-6.729c3.721,0,6.732,3.014,6.732,6.729S1666.344,482.66,1662.623,482.66z
	 M1662.623,430.66c-3.719,0-6.729-3.017-6.729-6.732s3.014-6.732,6.729-6.732c3.721,0,6.732,3.015,6.732,6.732
	S1666.344,430.66,1662.623,430.66z M1662.623,378.66c-3.719,0-6.729-3.015-6.729-6.732c0-3.717,3.014-6.732,6.729-6.732
	c3.721,0,6.732,3.015,6.732,6.732C1669.356,375.645,1666.344,378.66,1662.623,378.66z M1662.623,326.66
	c-3.719,0-6.729-3.015-6.729-6.732c0-3.717,3.014-6.731,6.729-6.731c3.721,0,6.732,3.015,6.732,6.731
	C1669.356,323.645,1666.344,326.66,1662.623,326.66z M1719.194,690.659c-3.719,0-6.729-3.016-6.729-6.731s3.014-6.729,6.729-6.729
	c3.719,0,6.732,3.015,6.732,6.729S1722.912,690.659,1719.194,690.659z M1719.194,638.66c-3.719,0-6.729-3.018-6.729-6.732
	s3.014-6.729,6.729-6.729c3.719,0,6.732,3.015,6.732,6.729S1722.912,638.66,1719.194,638.66z M1719.194,586.66
	c-3.719,0-6.729-3.017-6.729-6.732s3.014-6.729,6.729-6.729c3.719,0,6.732,3.014,6.732,6.729
	C1725.927,583.645,1722.912,586.66,1719.194,586.66z M1719.194,534.66c-3.719,0-6.729-3.017-6.729-6.732s3.014-6.729,6.729-6.729
	c3.719,0,6.732,3.014,6.732,6.729C1725.927,531.645,1722.912,534.66,1719.194,534.66z M1719.194,482.66
	c-3.719,0-6.729-3.017-6.729-6.732s3.014-6.729,6.729-6.729c3.719,0,6.732,3.014,6.732,6.729S1722.912,482.66,1719.194,482.66z
	 M1719.194,430.66c-3.719,0-6.729-3.017-6.729-6.732s3.014-6.732,6.729-6.732c3.719,0,6.732,3.015,6.732,6.732
	S1722.912,430.66,1719.194,430.66z M1719.194,378.66c-3.719,0-6.729-3.015-6.729-6.732c0-3.717,3.014-6.732,6.729-6.732
	c3.719,0,6.732,3.015,6.732,6.732C1725.926,375.645,1722.912,378.66,1719.194,378.66z M1719.194,326.66
	c-3.719,0-6.729-3.015-6.729-6.732c0-3.717,3.014-6.731,6.729-6.731c3.719,0,6.732,3.015,6.732,6.731
	C1725.926,323.645,1722.912,326.66,1719.194,326.66z M1719.194,898.659c-3.719,0-6.729-3.016-6.729-6.732
	c0-3.715,3.014-6.729,6.729-6.729c3.719,0,6.732,3.016,6.732,6.729C1725.927,895.643,1722.912,898.659,1719.194,898.659z
	 M1719.194,846.659c-3.719,0-6.729-3.016-6.729-6.732c0-3.715,3.014-6.729,6.729-6.729c3.719,0,6.732,3.016,6.732,6.729
	C1725.927,843.643,1722.912,846.659,1719.194,846.659z M1775.765,898.659c-3.719,0-6.732-3.016-6.732-6.732
	c0-3.715,3.016-6.729,6.732-6.729s6.729,3.016,6.729,6.729C1782.494,895.643,1779.483,898.659,1775.765,898.659z M1775.765,846.659
	c-3.719,0-6.732-3.016-6.732-6.732c0-3.715,3.016-6.729,6.732-6.729s6.729,3.016,6.729,6.729
	C1782.494,843.643,1779.483,846.659,1775.765,846.659z M1775.765,794.659c-3.719,0-6.732-3.016-6.732-6.732
	c0-3.715,3.016-6.729,6.732-6.729s6.729,3.016,6.729,6.729C1782.494,791.643,1779.483,794.659,1775.765,794.659z M1775.765,742.659
	c-3.719,0-6.732-3.016-6.732-6.732c0-3.715,3.016-6.729,6.732-6.729s6.729,3.016,6.729,6.729
	C1782.494,739.643,1779.483,742.659,1775.765,742.659z M1775.765,690.659c-3.719,0-6.732-3.016-6.732-6.731s3.016-6.729,6.732-6.729
	s6.729,3.015,6.729,6.729S1779.483,690.659,1775.765,690.659z M1775.765,638.66c-3.719,0-6.732-3.018-6.732-6.732
	s3.016-6.729,6.732-6.729s6.729,3.015,6.729,6.729S1779.483,638.66,1775.765,638.66z M1775.765,586.66
	c-3.719,0-6.732-3.017-6.732-6.732s3.016-6.729,6.732-6.729s6.729,3.014,6.729,6.729
	C1782.494,583.645,1779.483,586.66,1775.765,586.66z M1775.765,534.66c-3.719,0-6.732-3.017-6.732-6.732s3.016-6.729,6.732-6.729
	s6.729,3.014,6.729,6.729C1782.494,531.645,1779.483,534.66,1775.765,534.66z M1775.765,482.66c-3.719,0-6.732-3.017-6.732-6.732
	s3.016-6.729,6.732-6.729s6.729,3.014,6.729,6.729S1779.483,482.66,1775.765,482.66z M1775.765,430.66
	c-3.719,0-6.732-3.017-6.732-6.732s3.016-6.732,6.732-6.732s6.729,3.015,6.729,6.732S1779.483,430.66,1775.765,430.66z
	 M1775.765,378.66c-3.719,0-6.732-3.015-6.732-6.732c0-3.717,3.016-6.732,6.732-6.732s6.729,3.015,6.729,6.732
	C1782.495,375.645,1779.483,378.66,1775.765,378.66z M1775.765,326.66c-3.719,0-6.732-3.015-6.732-6.732
	c0-3.717,3.016-6.731,6.732-6.731s6.729,3.015,6.729,6.731C1782.495,323.645,1779.483,326.66,1775.765,326.66z M1832.334,898.659
	c-3.721,0-6.731-3.016-6.731-6.732c0-3.715,3.014-6.729,6.731-6.729c3.719,0,6.73,3.016,6.73,6.729
	C1839.066,895.643,1836.053,898.659,1832.334,898.659z M1832.334,846.659c-3.721,0-6.731-3.016-6.731-6.732
	c0-3.715,3.014-6.729,6.731-6.729c3.719,0,6.73,3.016,6.73,6.729C1839.066,843.643,1836.053,846.659,1832.334,846.659z
	 M1832.334,794.659c-3.721,0-6.731-3.016-6.731-6.732c0-3.715,3.014-6.729,6.731-6.729c3.719,0,6.73,3.016,6.73,6.729
	C1839.066,791.643,1836.053,794.659,1832.334,794.659z M1832.334,742.659c-3.721,0-6.731-3.016-6.731-6.732
	c0-3.715,3.014-6.729,6.731-6.729c3.719,0,6.73,3.016,6.73,6.729C1839.066,739.643,1836.053,742.659,1832.334,742.659z
	 M1832.334,690.659c-3.721,0-6.731-3.016-6.731-6.731s3.014-6.729,6.731-6.729c3.719,0,6.73,3.015,6.73,6.729
	S1836.053,690.659,1832.334,690.659z M1832.334,638.66c-3.721,0-6.731-3.018-6.731-6.732s3.014-6.729,6.731-6.729
	c3.719,0,6.73,3.015,6.73,6.729S1836.053,638.66,1832.334,638.66z M1832.334,586.66c-3.721,0-6.731-3.017-6.731-6.732
	s3.014-6.729,6.731-6.729c3.719,0,6.73,3.014,6.73,6.729C1839.066,583.645,1836.053,586.66,1832.334,586.66z M1832.334,534.66
	c-3.721,0-6.731-3.017-6.731-6.732s3.014-6.729,6.731-6.729c3.719,0,6.73,3.014,6.73,6.729
	C1839.066,531.645,1836.053,534.66,1832.334,534.66z M1832.334,482.66c-3.721,0-6.731-3.017-6.731-6.732s3.014-6.729,6.731-6.729
	c3.719,0,6.73,3.014,6.73,6.729S1836.053,482.66,1832.334,482.66z M1832.334,430.66c-3.721,0-6.731-3.017-6.731-6.732
	s3.014-6.732,6.731-6.732c3.719,0,6.73,3.015,6.73,6.732S1836.053,430.66,1832.334,430.66z M1832.334,378.66
	c-3.721,0-6.731-3.015-6.731-6.732c0-3.717,3.014-6.732,6.731-6.732c3.719,0,6.73,3.015,6.73,6.732
	C1839.065,375.645,1836.053,378.66,1832.334,378.66z M1888.904,898.659c-3.719,0-6.729-3.016-6.729-6.732
	c0-3.715,3.014-6.729,6.729-6.729s6.732,3.016,6.732,6.729C1895.636,895.643,1892.623,898.659,1888.904,898.659z M1888.904,846.659
	c-3.719,0-6.729-3.016-6.729-6.732c0-3.715,3.014-6.729,6.729-6.729s6.732,3.016,6.732,6.729
	C1895.636,843.643,1892.623,846.659,1888.904,846.659z M1888.904,794.659c-3.719,0-6.729-3.016-6.729-6.732
	c0-3.715,3.014-6.729,6.729-6.729s6.732,3.016,6.732,6.729C1895.636,791.643,1892.623,794.659,1888.904,794.659z M1888.904,742.659
	c-3.719,0-6.729-3.016-6.729-6.732c0-3.715,3.014-6.729,6.729-6.729s6.732,3.016,6.732,6.729
	C1895.636,739.643,1892.623,742.659,1888.904,742.659z M1888.904,690.659c-3.719,0-6.729-3.016-6.729-6.731s3.014-6.729,6.729-6.729
	s6.732,3.015,6.732,6.729S1892.623,690.659,1888.904,690.659z M1888.904,638.66c-3.719,0-6.729-3.018-6.729-6.732
	s3.014-6.729,6.729-6.729s6.732,3.015,6.732,6.729S1892.623,638.66,1888.904,638.66z M1888.904,586.66
	c-3.719,0-6.729-3.017-6.729-6.732s3.014-6.729,6.729-6.729s6.732,3.014,6.732,6.729
	C1895.636,583.645,1892.623,586.66,1888.904,586.66z M1888.904,534.66c-3.719,0-6.729-3.017-6.729-6.732s3.014-6.729,6.729-6.729
	s6.732,3.014,6.732,6.729C1895.636,531.645,1892.623,534.66,1888.904,534.66z M1888.904,482.66c-3.719,0-6.729-3.017-6.729-6.732
	s3.014-6.729,6.729-6.729s6.732,3.014,6.732,6.729S1892.623,482.66,1888.904,482.66z M1888.904,430.66
	c-3.719,0-6.729-3.017-6.729-6.732s3.014-6.732,6.729-6.732s6.732,3.015,6.732,6.732S1892.623,430.66,1888.904,430.66z
	 M1945.475,898.659c-3.719,0-6.732-3.016-6.732-6.732c0-3.715,3.017-6.729,6.732-6.729s6.732,3.016,6.732,6.729
	C1952.207,895.643,1949.193,898.659,1945.475,898.659z M1945.475,846.659c-3.719,0-6.732-3.016-6.732-6.732
	c0-3.715,3.017-6.729,6.732-6.729s6.732,3.016,6.732,6.729C1952.207,843.643,1949.193,846.659,1945.475,846.659z M1945.475,794.659
	c-3.719,0-6.732-3.016-6.732-6.732c0-3.715,3.017-6.729,6.732-6.729s6.732,3.016,6.732,6.729
	C1952.207,791.643,1949.193,794.659,1945.475,794.659z M1945.475,742.659c-3.719,0-6.732-3.016-6.732-6.732
	c0-3.715,3.017-6.729,6.732-6.729s6.732,3.016,6.732,6.729C1952.207,739.643,1949.193,742.659,1945.475,742.659z M1945.475,690.659
	c-3.719,0-6.732-3.016-6.732-6.731s3.017-6.729,6.732-6.729s6.732,3.015,6.732,6.729S1949.193,690.659,1945.475,690.659z
	 M1945.475,638.66c-3.719,0-6.732-3.018-6.732-6.732s3.017-6.729,6.732-6.729s6.732,3.015,6.732,6.729
	S1949.193,638.66,1945.475,638.66z M1945.475,586.66c-3.719,0-6.732-3.017-6.732-6.732s3.017-6.729,6.732-6.729
	s6.732,3.014,6.732,6.729C1952.207,583.645,1949.193,586.66,1945.475,586.66z M1945.475,534.66c-3.719,0-6.732-3.017-6.732-6.732
	s3.017-6.729,6.732-6.729s6.732,3.014,6.732,6.729C1952.207,531.645,1949.193,534.66,1945.475,534.66z M1945.475,482.66
	c-3.719,0-6.732-3.017-6.732-6.732s3.017-6.729,6.732-6.729s6.732,3.014,6.732,6.729S1949.193,482.66,1945.475,482.66z
	 M1945.475,430.66c-3.719,0-6.732-3.017-6.732-6.732s3.017-6.732,6.732-6.732s6.732,3.015,6.732,6.732
	S1949.193,430.66,1945.475,430.66z M2002.046,898.659c-3.722,0-6.732-3.016-6.732-6.732c0-3.715,3.014-6.729,6.732-6.729
	c3.718,0,6.729,3.016,6.729,6.729C2008.777,895.643,2005.764,898.659,2002.046,898.659z M2002.046,846.659
	c-3.722,0-6.732-3.016-6.732-6.732c0-3.715,3.014-6.729,6.732-6.729c3.718,0,6.729,3.016,6.729,6.729
	C2008.777,843.643,2005.764,846.659,2002.046,846.659z M2002.046,794.659c-3.722,0-6.732-3.016-6.732-6.732
	c0-3.715,3.014-6.729,6.732-6.729c3.718,0,6.729,3.016,6.729,6.729C2008.777,791.643,2005.764,794.659,2002.046,794.659z
	 M2002.046,742.659c-3.722,0-6.732-3.016-6.732-6.732c0-3.715,3.014-6.729,6.732-6.729c3.718,0,6.729,3.016,6.729,6.729
	C2008.777,739.643,2005.764,742.659,2002.046,742.659z M2002.046,690.659c-3.722,0-6.732-3.016-6.732-6.731s3.014-6.729,6.732-6.729
	c3.718,0,6.729,3.015,6.729,6.729S2005.764,690.659,2002.046,690.659z M2002.046,638.66c-3.722,0-6.732-3.018-6.732-6.732
	s3.014-6.729,6.732-6.729c3.718,0,6.729,3.015,6.729,6.729S2005.764,638.66,2002.046,638.66z M2002.046,586.66
	c-3.722,0-6.732-3.017-6.732-6.732s3.014-6.729,6.732-6.729c3.718,0,6.729,3.014,6.729,6.729
	C2008.777,583.645,2005.764,586.66,2002.046,586.66z M2002.046,534.66c-3.722,0-6.732-3.017-6.732-6.732s3.014-6.729,6.732-6.729
	c3.718,0,6.729,3.014,6.729,6.729C2008.777,531.645,2005.764,534.66,2002.046,534.66z M2002.046,482.66
	c-3.722,0-6.732-3.017-6.732-6.732s3.014-6.729,6.732-6.729c3.718,0,6.729,3.014,6.729,6.729S2005.764,482.66,2002.046,482.66z
	 M2058.615,898.659c-3.719,0-6.729-3.016-6.729-6.732c0-3.715,3.014-6.729,6.729-6.729c3.718,0,6.732,3.016,6.732,6.729
	C2065.347,895.643,2062.334,898.659,2058.615,898.659z M2058.615,846.659c-3.719,0-6.729-3.016-6.729-6.732
	c0-3.715,3.014-6.729,6.729-6.729c3.718,0,6.732,3.016,6.732,6.729C2065.347,843.643,2062.334,846.659,2058.615,846.659z
	 M2058.615,794.659c-3.719,0-6.729-3.016-6.729-6.732c0-3.715,3.014-6.729,6.729-6.729c3.718,0,6.732,3.016,6.732,6.729
	C2065.347,791.643,2062.334,794.659,2058.615,794.659z M2058.615,742.659c-3.719,0-6.729-3.016-6.729-6.732
	c0-3.715,3.014-6.729,6.729-6.729c3.718,0,6.732,3.016,6.732,6.729C2065.347,739.643,2062.334,742.659,2058.615,742.659z
	 M2058.615,690.659c-3.719,0-6.729-3.016-6.729-6.731s3.014-6.729,6.729-6.729c3.718,0,6.732,3.015,6.732,6.729
	S2062.334,690.659,2058.615,690.659z M2058.615,638.66c-3.719,0-6.729-3.018-6.729-6.732s3.014-6.729,6.729-6.729
	c3.718,0,6.732,3.015,6.732,6.729S2062.334,638.66,2058.615,638.66z M2058.615,586.66c-3.719,0-6.729-3.017-6.729-6.732
	s3.014-6.729,6.729-6.729c3.718,0,6.732,3.014,6.732,6.729C2065.347,583.645,2062.334,586.66,2058.615,586.66z M2058.615,534.66
	c-3.719,0-6.729-3.017-6.729-6.732s3.014-6.729,6.729-6.729c3.718,0,6.732,3.014,6.732,6.729
	C2065.347,531.645,2062.334,534.66,2058.615,534.66z M2115.186,898.659c-3.719,0-6.732-3.016-6.732-6.732
	c0-3.715,3.017-6.729,6.732-6.729s6.732,3.016,6.732,6.729C2121.918,895.643,2118.904,898.659,2115.186,898.659z M2115.186,846.659
	c-3.719,0-6.732-3.016-6.732-6.732c0-3.715,3.017-6.729,6.732-6.729s6.732,3.016,6.732,6.729
	C2121.918,843.643,2118.904,846.659,2115.186,846.659z M2115.186,794.659c-3.719,0-6.732-3.016-6.732-6.732
	c0-3.715,3.017-6.729,6.732-6.729s6.732,3.016,6.732,6.729C2121.918,791.643,2118.904,794.659,2115.186,794.659z M2115.186,742.659
	c-3.719,0-6.732-3.016-6.732-6.732c0-3.715,3.017-6.729,6.732-6.729s6.732,3.016,6.732,6.729
	C2121.918,739.643,2118.904,742.659,2115.186,742.659z M2115.186,690.659c-3.719,0-6.732-3.016-6.732-6.731s3.017-6.729,6.732-6.729
	s6.732,3.015,6.732,6.729S2118.904,690.659,2115.186,690.659z M2115.186,638.66c-3.719,0-6.732-3.018-6.732-6.732
	s3.017-6.729,6.732-6.729s6.732,3.015,6.732,6.729S2118.904,638.66,2115.186,638.66z M2115.186,586.66
	c-3.719,0-6.732-3.017-6.732-6.732s3.017-6.729,6.732-6.729s6.732,3.014,6.732,6.729
	C2121.918,583.645,2118.904,586.66,2115.186,586.66z M2171.757,898.659c-3.72,0-6.732-3.016-6.732-6.732
	c0-3.715,3.015-6.729,6.732-6.729c3.717,0,6.729,3.016,6.729,6.729C2178.488,895.643,2175.475,898.659,2171.757,898.659z
	 M2171.757,846.659c-3.72,0-6.732-3.016-6.732-6.732c0-3.715,3.015-6.729,6.732-6.729c3.717,0,6.729,3.016,6.729,6.729
	C2178.488,843.643,2175.475,846.659,2171.757,846.659z M2171.757,794.659c-3.72,0-6.732-3.016-6.732-6.732
	c0-3.715,3.015-6.729,6.732-6.729c3.717,0,6.729,3.016,6.729,6.729C2178.488,791.643,2175.475,794.659,2171.757,794.659z
	 M2171.757,742.659c-3.72,0-6.732-3.016-6.732-6.732c0-3.715,3.015-6.729,6.732-6.729c3.717,0,6.729,3.016,6.729,6.729
	C2178.488,739.643,2175.475,742.659,2171.757,742.659z M2171.757,690.659c-3.72,0-6.732-3.016-6.732-6.731s3.015-6.729,6.732-6.729
	c3.717,0,6.729,3.015,6.729,6.729S2175.475,690.659,2171.757,690.659z M2171.757,638.66c-3.72,0-6.732-3.018-6.732-6.732
	s3.015-6.729,6.732-6.729c3.717,0,6.729,3.015,6.729,6.729S2175.475,638.66,2171.757,638.66z M2228.324,898.659
	c-3.719,0-6.729-3.016-6.729-6.732c0-3.715,3.014-6.729,6.729-6.729c3.719,0,6.732,3.016,6.732,6.729
	C2235.058,895.643,2232.045,898.659,2228.324,898.659z M2228.324,846.659c-3.719,0-6.729-3.016-6.729-6.732
	c0-3.715,3.014-6.729,6.729-6.729c3.719,0,6.732,3.016,6.732,6.729C2235.058,843.643,2232.045,846.659,2228.324,846.659z
	 M2228.324,794.659c-3.719,0-6.729-3.016-6.729-6.732c0-3.715,3.014-6.729,6.729-6.729c3.719,0,6.732,3.016,6.732,6.729
	C2235.058,791.643,2232.045,794.659,2228.324,794.659z M2228.324,742.659c-3.719,0-6.729-3.016-6.729-6.732
	c0-3.715,3.014-6.729,6.729-6.729c3.719,0,6.732,3.016,6.732,6.729C2235.058,739.643,2232.045,742.659,2228.324,742.659z
	 M2228.324,690.659c-3.719,0-6.729-3.016-6.729-6.731s3.014-6.729,6.729-6.729c3.719,0,6.732,3.015,6.732,6.729
	S2232.045,690.659,2228.324,690.659z M2284.896,898.659c-3.719,0-6.731-3.016-6.731-6.732c0-3.715,3.016-6.729,6.731-6.729
	s6.731,3.016,6.731,6.729C2291.627,895.643,2288.615,898.659,2284.896,898.659z M2284.896,846.659c-3.719,0-6.731-3.016-6.731-6.732
	c0-3.715,3.016-6.729,6.731-6.729s6.731,3.016,6.731,6.729C2291.627,843.643,2288.615,846.659,2284.896,846.659z M2284.896,794.659
	c-3.719,0-6.731-3.016-6.731-6.732c0-3.715,3.016-6.729,6.731-6.729s6.731,3.016,6.731,6.729
	C2291.627,791.643,2288.615,794.659,2284.896,794.659z M2284.896,742.659c-3.719,0-6.731-3.016-6.731-6.732
	c0-3.715,3.016-6.729,6.731-6.729s6.731,3.016,6.731,6.729C2291.627,739.643,2288.615,742.659,2284.896,742.659z M2341.467,898.659
	c-3.719,0-6.732-3.016-6.732-6.732c0-3.715,3.014-6.729,6.732-6.729c3.718,0,6.729,3.016,6.729,6.729
	C2348.198,895.643,2345.186,898.659,2341.467,898.659z M2341.467,846.659c-3.719,0-6.732-3.016-6.732-6.732
	c0-3.715,3.014-6.729,6.732-6.729c3.718,0,6.729,3.016,6.729,6.729C2348.198,843.643,2345.186,846.659,2341.467,846.659z
	 M2341.467,794.659c-3.719,0-6.732-3.016-6.732-6.732c0-3.715,3.014-6.729,6.732-6.729c3.718,0,6.729,3.016,6.729,6.729
	C2348.198,791.643,2345.186,794.659,2341.467,794.659z M2398.037,898.659c-3.721,0-6.731-3.016-6.731-6.732
	c0-3.715,3.014-6.729,6.731-6.729c3.719,0,6.73,3.016,6.73,6.729C2404.769,895.643,2401.757,898.659,2398.037,898.659z
	 M2398.037,846.659c-3.721,0-6.731-3.016-6.731-6.732c0-3.715,3.014-6.729,6.731-6.729c3.719,0,6.73,3.016,6.73,6.729
	C2404.769,843.643,2401.757,846.659,2398.037,846.659z M2454.607,898.659c-3.719,0-6.731-3.016-6.731-6.732
	c0-3.715,3.016-6.729,6.731-6.729s6.731,3.016,6.731,6.729C2461.338,895.643,2458.324,898.659,2454.607,898.659z"/>
</svg>
