<?xml version="1.0" encoding="utf-8"?>
<!-- Generator: Adobe Illustrator 16.0.0, SVG Export Plug-In . SVG Version: 6.00 Build 0)  -->
<!DOCTYPE svg PUBLIC "-//W3C//DTD SVG 1.1//EN" "http://www.w3.org/Graphics/SVG/1.1/DTD/svg11.dtd">
<svg version="1.1" id="Layer_1" xmlns="http://www.w3.org/2000/svg" xmlns:xlink="http://www.w3.org/1999/xlink" x="0px" y="0px"
	 width="1280.043px" height="1367.881px" viewBox="0 0 1280.043 1367.881" enable-background="new 0 0 1280.043 1367.881"
	 xml:space="preserve">
<path fill="none" stroke="#000001" stroke-linejoin="round" stroke-miterlimit="10" d="M899.55,83.058
	c0.079-1.429,0.271-2.434,0.595-2.933c0.944-1.454,3.208-1.706,4.774-1.672c1.368,0.029,2.725,0.241,4.05,0.578
	c3.106,0.791,5.954,2.317,8.729,3.883c0.87,0.491,1.756,0.954,2.644,1.413c2.04,1.055,4.061,2.226,6.028,3.409
	c3.045,1.83,6.096,3.64,8.999,5.692c1.143,0.808,2.264,1.652,3.324,2.564c13.564,11.816,28.305,33.471,44.275,64.832
	c14.031,27.551,30.66,53.682,45.217,80.951c19.053,35.691,40.266,70.158,61.816,104.382c4.48,7.116,7.115,11.104,7.9,11.962
	c5.711,6.243,13.119,10.481,20.684,14.129l6.355,3.063c4.113,1.905,11.146,0.581,21.193-4.008
	c4.607-2.095,13.436-6.473,26.352-13.035c11.154-5.73,31.084-15.065,59.686-28.133c3.391-1.562,7.771-3.687,13.176-6.437
	c15.951-8.056,24.885-11.822,26.725-11.494c3.357,0.66,5.455,3.108,6.191,7.382c1.084,6.278,1.543,12.641,1.625,19.008
	c0.58,44.882-0.537,90.305-3.453,136.139c-3.271,52.216-5.047,85.73-5.285,100.321c-0.332,19.584-4.662,143.949-10.721,222.159
	c-3.838,48.907-8.121,86.968-12.816,114.118c-12.852,73.896-26.729,132.189-41.768,174.816
	c-6.062,17.22-14.084,37.332-23.932,60.238c-12.322,28.673-24.316,57.484-36.857,86.062c-2.434,5.541-5.363,12.121-8.604,19.832
	c-2.338,5.347-12.459,27.164-30.459,65.326c-7.658,16.233-20.896,47.219-23.326,48.543c-5.716,3.126-7.636-4.574-6.398-8.918
	c0.459-1.617,2.68-8.54,6.758-20.646c7.068-20.97,17.26-58.181,30.689-111.731c5.662-22.688,13.012-58.151,22.012-106.327
	c1.348-7.269,3.205-16.763,5.613-28.39c6.082-29.356,11.469-60.256,15.992-92.684c4.99-35.753,8.545-71.688,13.141-107.488
	c0.061-0.451,1.838-24.532,5.404-72.051c2.523-33.615,3.453-67.322,5.439-100.97c1.604-27.202,1.243-68.062-1.184-122.548
	c-1.323-29.412-4.396-50.561-9.316-63.562c-4.82-12.715-16.275-27.75-23.527-30.448c-5.797-2.232-20.705-2.147-29.238,0.131
	c-0.16,0.002-2.398,0.842-6.918,2.579c-10.25,3.853-19.721,5.919-28.473,6.335c-30.508,1.438-47.721,2.488-51.609,3.094
	c-29.65,4.806-44.309,9.17-62.502,20.381c-11.045,6.823-17.637,9.721-19.711,8.72l-1.688-0.812
	c-10.372-5.805-20.736,2.684-29.525,7.503l-6.768,2.663l-6.625,2.882c-4.822,2.088-22.969,8.565-54.506,19.438
	c-1.941,0.648-4.176,1.513-6.768,2.592c-14.76,5.979-30.6,11.664-47.52,17.139c-2.521,0.792-4.824,1.438-6.984,2.016
	c-25.561,6.264-39.672,9.648-42.336,10.08c-19.73,3.744-34.057,6.12-42.912,7.2c-19.511,2.444-33.984,3.595-43.416,3.523
	l-49.463-0.504c-23.832-0.216-59.4-6.405-106.632-18.432c-39.672-10.152-60.624-15.624-62.856-16.344l-6.84-2.232
	c-1.512-0.504-3.888-1.08-6.984-1.8l-7.056-1.729l-6.768-2.304l-6.984-1.872c-15.336-4.104-30.528-11.16-45.576-21.096
	c-1.92-1.289-3.588-2.557-5.007-3.812h0.001l-15.175-7.477l-7.566,3.566l-1.686,0.812c-2.075,1.001-8.667-1.896-19.711-8.72
	c-18.194-11.211-32.848-15.575-62.502-20.381c-3.887-0.605-21.101-1.655-51.608-3.094c-8.753-0.416-18.223-2.482-28.473-6.335
	c-4.515-1.737-6.757-2.577-6.918-2.579c-8.533-2.278-23.442-2.363-29.238-0.131c-7.252,2.698-18.707,17.733-23.527,30.448
	c-4.921,13.001-7.994,34.149-9.319,63.562c-2.426,54.485-2.787,95.346-1.182,122.548c1.986,33.647,2.916,67.354,5.44,100.97
	c3.568,47.519,5.347,71.6,5.405,72.051c4.594,35.801,8.151,71.735,13.14,107.488c4.525,32.428,9.91,63.327,15.993,92.684
	c2.409,11.627,4.269,21.121,5.614,28.39c9.001,48.176,16.348,83.639,22.012,106.327c13.432,53.551,23.62,90.762,30.693,111.731
	c4.077,12.105,6.296,19.028,6.756,20.646c1.236,4.344-0.683,12.044-6.408,8.923c-2.43-1.324-15.667-32.31-23.325-48.543
	c-18.001-38.162-28.121-59.979-30.459-65.326c-3.238-7.711-6.171-14.291-8.603-19.832c-12.542-28.578-24.535-57.39-36.858-86.062
	c-9.847-22.905-17.866-43.019-23.93-60.237c-15.038-42.627-28.917-100.921-41.766-174.817
	c-4.698-27.149-8.982-65.211-12.819-114.118c-6.057-78.21-10.388-202.574-10.719-222.16c-0.241-14.591-2.014-48.105-5.288-100.32
	C0.686,429.904-0.433,384.482,0.148,339.6c0.082-6.367,0.542-12.73,1.627-19.012c0.738-4.273,2.834-6.722,6.193-7.382
	c1.84-0.328,10.771,3.438,26.724,11.494c5.403,2.75,9.784,4.875,13.175,6.437c28.601,13.067,48.529,22.402,59.686,28.133
	c12.915,6.562,21.74,10.94,26.347,13.035c10.045,4.589,17.079,5.913,21.196,4.008l6.356-3.063
	c7.564-3.647,14.972-7.886,20.684-14.129c0.785-0.858,3.419-4.846,7.901-11.962c21.553-34.225,42.765-68.691,61.816-104.382
	c14.556-27.269,31.184-53.4,45.217-80.951c15.972-31.361,30.713-53.016,44.277-64.832c1.111-0.956,2.287-1.831,3.487-2.672
	c3.075-2.156,6.283-4.106,9.537-5.976c5.899-3.389,12.339-7.823,19.18-8.88c0.607-0.094,1.286-0.163,1.974-0.166l0,0.008
	c51.171,0,93.799-7.835,103.657-18.266l-0.016-0.007c4.991-10.9,10.364-20.741,16.107-29.536c3.675-5.544,6.696-9.288,9-11.16
	c0.723-0.504,10.227-5.904,12.528-6.984c13.896-6.48,42.48-10.8,85.752-12.96c4.464-0.216,52.632-0.936,72.72,0.36
	c18.072,1.152,34.992,2.448,50.688,3.96l7.201,0.72l7.271,0.36c7.661,0.46,14.417,2.043,20.267,4.806
	c10.065,4.754,21.323,3.515,31.465-0.292c2.531-0.95,5.002-2.145,7.465-3.381C806.23,3.613,812.778,0,820.303,0
	c17.221,0,31.182,13.96,31.182,31.181c0,7.863-2.982,15.272-8.237,21.058c-2.546,2.804-5.524,5.218-8.95,6.863
	c-5.812,2.789-13.071,2.298-17.529,7.59c-4.488,5.327-6.292,12.275-6.292,19.155c0.845,1.926,1.703,3.917,2.574,5.971l-0.007,0.001
	c4.165,4.829,20.81,8.433,40.737,8.433c23.843,0,43.421-7.539,45.774-17.217L899.55,83.058z"/>
</svg>
