<?xml version="1.0" encoding="utf-8"?>
<!-- Generator: Adobe Illustrator 16.0.0, SVG Export Plug-In . SVG Version: 6.00 Build 0)  -->
<!DOCTYPE svg PUBLIC "-//W3C//DTD SVG 1.1//EN" "http://www.w3.org/Graphics/SVG/1.1/DTD/svg11.dtd">
<svg version="1.1" id="Layer_1" xmlns="http://www.w3.org/2000/svg" xmlns:xlink="http://www.w3.org/1999/xlink" x="0px" y="0px"
	 width="1594.578px" height="652.979px" viewBox="0 0 1594.578 652.979" enable-background="new 0 0 1594.578 652.979"
	 xml:space="preserve">
<path fill="none" stroke="#000000" stroke-linejoin="round" stroke-miterlimit="10" d="M60.233,320.646
	c-4.537-11.612-15.834-19.836-29.052-19.836C13.96,300.809,0,314.769,0,331.99c0,17.221,13.96,31.181,31.181,31.181
	c13.221,0,24.519-8.229,29.055-19.842c3.133-3.52,7.201-1.903,11.121-1.018l0.002,0.002c10.801,6.303,23.889,11.875,39.331,17.014
	c44.18,14.514,73.75,24.547,88.771,30.135c21.925,8.131,37.786,13.736,47.643,16.855c42.434,13.504,78.809,26.102,109.262,37.707
	c9.009,3.52,15.753,6.047,20.254,7.678c56.662,20.529,109.324,50.688,165.798,71.688c29.014,10.787,47.084,17.607,54.156,20.431
	c74.104,29.27,128.589,48.627,163.354,58.094c45.801,12.469,85.168,23.543,118.167,33.258c14.688,4.361,35.781,9.338,63.177,15.117
	c9.104,1.881,18.655,2.768,28.562,2.688c58.594-0.756,105.635-25.655,176.805-71.979c48.193-31.369,98.062-60.062,148.768-87.17
	c52.5-28.07,110.729-59.207,156.252-86.484c30.768-18.437,62.865-34.545,93.656-52.932c18.055-10.781,30.979-21.414,38.668-31.881
	c14.316-19.396,10.452-39.188,9.049-43.413c-4.398-12.792-19.166-22.713-23.062-24.77c-4.301-2.228-25.197-8.286-62.551-18
	c-49.535-12.881-99.191-25.292-148.64-38.519c-34.784-9.306-69.405-19.275-103.808-29.87
	c-156.166-48.097-314.771-87.904-470.819-136.387C722.561,12.437,688.091,2.223,680.544,0.978
	c-14.414-2.489-25.777-1.03-54.005,13.912c-5.452,2.871-9.729,4.95-12.783,6.435c-34.187,16.619-97.466,47.302-102.51,49.962
	c-46.396,24.475-91.54,51.293-138.34,75.007c-80.909,40.997-157.456,89.861-236.198,134.767
	c-35.374,20.172-57.138,33.053-65.318,38.684c-3.311,1.266-8.119,4.54-11.154,0.906L60.233,320.646z"/>
</svg>
