<?xml version="1.0" encoding="utf-8"?>
<!-- Generator: Adobe Illustrator 16.0.0, SVG Export Plug-In . SVG Version: 6.00 Build 0)  -->
<!DOCTYPE svg PUBLIC "-//W3C//DTD SVG 1.1//EN" "http://www.w3.org/Graphics/SVG/1.1/DTD/svg11.dtd">
<svg version="1.1" id="Layer_1" xmlns="http://www.w3.org/2000/svg" xmlns:xlink="http://www.w3.org/1999/xlink" x="0px" y="0px"
	 width="1530.846px" height="645.839px" viewBox="0 0 1530.846 645.839" enable-background="new 0 0 1530.846 645.839"
	 xml:space="preserve">
<path d="M1524.327,335.435c-5.562-4.562-27.756-18.514-66.613-41.898c-77.665-46.743-153.046-97.393-232.97-140.28
	c-46.229-24.807-90.729-52.679-136.54-78.237c-4.979-2.778-67.521-34.939-101.31-52.357c-3.021-1.556-7.243-3.734-12.629-6.733
	C946.405,0.327,935.074-1.4,920.607,0.75c-7.573,1.068-42.272,10.469-104.298,28.152C659.162,73.706,499.666,109.775,342.413,154.19
	c-34.641,9.783-69.484,18.936-104.479,27.422c-49.743,12.062-99.679,23.303-149.504,35.017
	c-37.57,8.832-58.604,14.398-62.956,16.524c-3.945,1.964-18.938,11.535-23.638,24.221c-1.505,4.191-5.834,23.888,8.022,43.61
	c7.445,10.643,20.114,21.578,37.909,32.78c30.354,19.104,62.063,35.965,92.391,55.116c44.867,28.341,102.352,60.836,154.178,90.133
	c50.053,28.295,99.229,58.146,146.676,90.643c70.062,47.979,116.504,73.979,175.062,76.109c9.9,0.312,19.477-0.352,28.619-2.018
	c27.521-5.133,48.729-9.613,63.514-13.627c33.218-8.939,72.834-19.082,118.914-30.477c34.979-8.645,89.905-26.721,164.68-54.236
	c7.136-2.648,25.36-9.045,54.62-19.146c56.949-19.666,110.309-48.58,167.438-67.771c4.537-1.523,11.341-3.896,20.429-7.199
	c30.72-10.887,67.379-22.625,110.119-35.129c9.926-2.887,25.913-8.117,48.022-15.729c15.146-5.23,44.944-14.566,89.454-28.039
	c15.728-4.824,29.062-10.152,40.072-16.281c3.479-1.896,5.459-3.072,5.756-3.422
	C1532.813,347.311,1531.688,341.617,1524.327,335.435z"/>
</svg>
