<?xml version="1.0" encoding="utf-8"?>
<!-- Generator: Adobe Illustrator 16.0.0, SVG Export Plug-In . SVG Version: 6.00 Build 0)  -->
<!DOCTYPE svg PUBLIC "-//W3C//DTD SVG 1.1//EN" "http://www.w3.org/Graphics/SVG/1.1/DTD/svg11.dtd">
<svg version="1.1" id="Layer_1" xmlns="http://www.w3.org/2000/svg" xmlns:xlink="http://www.w3.org/1999/xlink" x="0px" y="0px"
	 width="1492.061px" height="1185.191px" viewBox="0 0 1492.061 1185.191" enable-background="new 0 0 1492.061 1185.191"
	 xml:space="preserve">
<path fill="none" stroke="#000001" stroke-linejoin="round" stroke-miterlimit="10" d="M440.736,310.992
	c-5.099-3.654-4.322-10.578-4.236-16.054c0.013-0.829-0.03-1.661-0.001-2.486c-0.059-0.864-0.135-1.363-0.212-1.425l-6.312-8.948
	c-1.293-1.834-65.877-121.287-96.629-183.069c-16.751-33.654-29.034-58.009-35.763-67.33c-1.916-2.654-2.424-5.971-3.297-9.05
	c-0.886-3.125-2.28-6.186-4.105-8.875c-3.47-5.114-8.845-9.299-14.676-11.357c-3.354-1.184-7.277-1.898-10.842-1.898
	c-17.221,0-31.181,13.96-31.181,31.181c0,16.898,13.443,30.657,30.215,31.164c9.681,0,17.514,9.506,17.514,21.254
	c-26.064,84.156-72.804,236.489-72.553,237.78c-2.14,8.956-2.639,22.619-12.986,26.297c-32.233,5.163-58.736,26.145-80.039,50.263
	c-28.107,31.824-47.703,53.537-58.634,65.307c-23.066,24.772-37.648,41.124-43.795,49.104C4.007,524.896-0.181,534.682,0.59,542.256
	c0.416,4.119,3.312,10.747,8.688,19.888c24.086,40.943,84.544,100.779,131.292,147.044l0,0
	c82.535,81.685,168.326,159.972,255.303,236.898c57.477,50.849,151.295,133.839,175.49,148.979
	c0.908,0.569,12.421,9.581,34.57,26.896c26.85,21.077,59.167,42.459,62.729,44.348c6.477,3.41,45.273,17.74,51.789,18.285
	c2.598,0.273,6.2-0.041,10.704-0.748c39.559-6.213,77.018-21.354,116.036-29.984c99.241-21.946,152.417-33.873,159.688-35.743
	c26.686-6.875,56.769-12.157,85.361-17.179c32.205-5.655,64.266-12.143,96.539-17.381c38.827-6.301,63.961-10.002,75.439-11.246
	c20.291-2.106,31.119-3.42,32.555-3.916c3.185-1.074,6.266-2.682,9.062-5.018c16.011-13.365,25.894-32.332,40.04-47.461
	c9.437-10.094,21.158-24.551,35.092-43.387c12.103-16.363,47.144-57.736,71.232-86.175c15.104-17.839,44.97-53.103,38.442-58.354
	c-24.311-19.553-47.326-37.28-68.967-53.229c-51.789-38.112-92.854-67.978-123.328-89.698c-6.445-4.597-18.434-13.832-19.623-13.367
	l0,0l-10.068,3.906l0,0c-13.463,5.222-27.264,9.522-40.786,14.569c-27.375,10.213-51.475,17.898-72.329,23.275
	c-11.409,2.953-36.428,7.785-74.907,14.531c-35.889,6.291-72.345,8.679-108.271,14.731c-11.408,1.922-90.052-1.461-109.31-4.065
	c-14.68-1.968-36.542-8.824-65.603-20.506c-17.873-7.234-28.26-11.648-31.265-13.416c-22.264-13.079-61.254-35.979-66.345-39.979
	c-9.369-7.361-27.373-25.091-53.956-53.109c-27.303-28.763-46.366-50.414-57.074-64.774c-5.762-7.674-21.721-32.037-47.908-72.938
	l0,0l-39.409-65.326l0,0c-12.312-20.405-23.818-41.282-35.028-62.312c-6.367-11.944-16.402-30.77-25.725-35.3L440.736,310.992z"/>
</svg>
