<?xml version="1.0" encoding="utf-8"?>
<!-- Generator: Adobe Illustrator 16.0.0, SVG Export Plug-In . SVG Version: 6.00 Build 0)  -->
<!DOCTYPE svg PUBLIC "-//W3C//DTD SVG 1.1//EN" "http://www.w3.org/Graphics/SVG/1.1/DTD/svg11.dtd">
<svg version="1.1" id="Layer_1" xmlns="http://www.w3.org/2000/svg" xmlns:xlink="http://www.w3.org/1999/xlink" x="0px" y="0px"
	 width="443.768px" height="494.797px" viewBox="0 0 443.768 494.797" enable-background="new 0 0 443.768 494.797"
	 xml:space="preserve">
<path fill="none" stroke="#000000" stroke-linejoin="round" stroke-miterlimit="10" d="M388.85,432.464
	c0.454-0.02,0.91-0.029,1.368-0.029c17.222,0,31.183,13.962,31.183,31.183s-13.961,31.181-31.183,31.181
	c-17.221,0-31.181-13.96-31.181-31.181c0-8.604,3.485-16.396,9.121-22.037c0.42-2.785-0.939-3.311-3.307-4.133l-303.123-0.05l0,0
	c-40.764-0.53-57.548-290.183-57.542-290.084l0,0L0,76.602l0,0C0,34.296,34.296,0,76.602,0l0,0h287.58l0,0
	c42.312,0,76.604,34.296,76.604,76.602l0,0l2.979,70.71l0,0c0.085,1.988-15.911,231.745-58.312,280.933
	C385.263,430.663,386.521,431.986,388.85,432.464z"/>
</svg>
