<?xml version="1.0" encoding="utf-8"?>
<!-- Generator: Adobe Illustrator 16.0.0, SVG Export Plug-In . SVG Version: 6.00 Build 0)  -->
<!DOCTYPE svg PUBLIC "-//W3C//DTD SVG 1.1//EN" "http://www.w3.org/Graphics/SVG/1.1/DTD/svg11.dtd">
<svg version="1.1" id="Layer_1" xmlns="http://www.w3.org/2000/svg" xmlns:xlink="http://www.w3.org/1999/xlink" x="0px" y="0px"
	 width="1001.668px" height="567.957px" viewBox="0 0 1001.668 567.957" enable-background="new 0 0 1001.668 567.957"
	 xml:space="preserve">
<path d="M906.844,102.341c-60.19-14.125-120.181-29.118-179.969-44.862C646.942,36.431,557.965,18.197,459.68,2.933
	c-25.188-3.912-50.857-4.042-75.979,0.401c-26.622,4.708-39.797,12.633-58.854,26.113l-82.758,69.271
	c-2.247,2.101-21.022,18.848-56.42,50.295c-43.024,38.225-85.88,76.64-129.021,114.734c-23.428,20.685-42.309,37.257-56.646,50.015
	l797.886,254.185c2.905,0.926,29.711-62.209,44.446-95.275c2.686-6.021,6.579-17.426,1.45-19.324
	c-31.627-11.696-76.998-24.473-115.349-37.169c-28.896-9.562-81.262-26.897-86.079-30.425c-6.265-4.571-10.541-10.502-12.947-17.653
	l-7.604-20.824c-2.812-6.736-9.222-31.938-19.092-75.562c-1.041-4.355-3.216-15.315-6.718-32.711
	c-2.594-12.872-5.327-25.728-7.702-38.64c-1.979-10.774-4.5-22.781,5.709-30.237c8.747-6.391,20.223-6.251,30.446-4.696
	c6.179,0.939,12.345,2.224,18.438,3.597c47.146,10.651,90.06,21.855,128.604,33.873c35.263,10.995,70.771,21.158,106.312,31.218
	c21.896,6.198,39.63,11.256,53.212,15.399c6.976,2.082,10.979,3.256,12.052,3.157c7.224-14.577,17.188-35.512,29.611-62.877
	c18.188-39.715,27.896-60.791,28.987-63.334c-3.257-1.502-6.584-2.726-9.982-3.67C987.625,121.524,959.358,114.664,906.844,102.341z
	"/>
</svg>
