<?xml version="1.0" encoding="utf-8"?>
<!-- Generator: Adobe Illustrator 16.0.0, SVG Export Plug-In . SVG Version: 6.00 Build 0)  -->
<!DOCTYPE svg PUBLIC "-//W3C//DTD SVG 1.1//EN" "http://www.w3.org/Graphics/SVG/1.1/DTD/svg11.dtd">
<svg version="1.1" id="Layer_1" xmlns="http://www.w3.org/2000/svg" xmlns:xlink="http://www.w3.org/1999/xlink" x="0px" y="0px"
	 width="923.822px" height="761.922px" viewBox="0 0 923.822 761.922" enable-background="new 0 0 923.822 761.922"
	 xml:space="preserve">
<path fill="none" stroke="#000000" stroke-linejoin="round" stroke-miterlimit="10" d="M860.627,67.673
	c0.203,0.298-140.613-44.039-213.725-67.61c-1.734-0.56-7.745,2.615-18.047,10.043l-8.725,6.306
	C567.5,54.627,471.23,124.516,331.053,225.946C183.09,333.153,107.32,388.312,103.587,391.459
	c-21.964,18.52-49.069,41.377-62.215,59.529c-18.85,26.027-36.233,54.207-40.602,86.52c-1.452,10.742-0.827,21.438,1.68,31.959
	c3.325,13.955,14.208,32.945,23.127,48.51c18.305,31.939,43.654,59.039,64.531,89.238c6.462,9.346,19.824,27.4,39.89,54.707
	c2.001-4.643,4.391-11.338,7.119-19.875c9.725-29.844,17.492-46.031,32.681-67.342c3.345-4.709,5.476-7.625,6.462-8.732
	c1.769-1.965,29.005-25.662,81.467-70.998c26.743-23.145,77.386-69.258,152.085-138.383
	C544.604,331.863,822.741,95.966,824.872,94.477l36.588-25.583L860.627,67.673z"/>
</svg>
