<?xml version="1.0" encoding="utf-8"?>
<!-- Generator: Adobe Illustrator 16.0.0, SVG Export Plug-In . SVG Version: 6.00 Build 0)  -->
<!DOCTYPE svg PUBLIC "-//W3C//DTD SVG 1.1//EN" "http://www.w3.org/Graphics/SVG/1.1/DTD/svg11.dtd">
<svg version="1.1" id="Layer_1" xmlns="http://www.w3.org/2000/svg" xmlns:xlink="http://www.w3.org/1999/xlink" x="0px" y="0px"
	 width="703.781px" height="1000.893px" viewBox="0 0 703.781 1000.893" enable-background="new 0 0 703.781 1000.893"
	 xml:space="preserve">
<path fill="none" stroke="#000001" stroke-linejoin="round" stroke-miterlimit="10" d="M338.732,785.541
	c-1.924-2.302-3.944-4.529-5.892-6.814c-7.933-9.311-16.056-18.484-23.784-27.952c-9.074-11.119-22.67-8.209-28.855,3.951
	l-2.806,15.909l0,0c-0.981,5.566-26.824-25.605-39.312-39.312C201.41,691.07,159.678,655.24,127.42,611.154
	c-2.16-2.951-9.432-15.479-10.8-18.863c-2.088-4.752-5.074-15.256-9.072-31.536C75.528,430.368,41.403,299.959,9.556,167.851
	C-1.022,123.969-7.533,58.807,16.108,34.003c4.392-4.608,14.184-9.072,29.304-13.32C112.14,1.936,181.721-2.47,250.755,1.171
	c35.496,1.872,61.128,4.608,76.752,8.136c35.999,8.208,59.328,18.072,70.058,29.736c3.355,3.649,7.428,8.074,6.553,13.032l0,0
	l-14.893,84.45c0,60.492,132.551,78.478,166.131,48.715l-0.002-0.001c6.971-14.66,11.087-23.092,12.348-25.307
	c0.363-0.619,1.273-2.018,2.441-3.776c0-3.868,0.157-8.652-1.096-12.347c-1.675-4.937-7.297-4.647-11.529-6.463
	c-10.981-4.713-18.117-16.561-18.117-28.349c0-17.221,13.96-31.181,31.181-31.181s31.181,13.96,31.181,31.181
	c0,1.037-0.051,2.062-0.15,3.072c0,9.621,2.503,17.916,6.131,21.783c1.468,0.626,3,1.4,4.6,2.32l91.439,813.601
	c-4.104,2.951-10.008,7.703-17.785,14.259c-15.088,12.713-45.951,37.084-46.295,36.86c-25.354-16.253-53.264-35.621-80.137-53.062
	c-32.85-21.319-66.232-42.986-97.057-66.168c-26.424-19.871-49.316-36.722-68.832-50.474
	c-31.197-22.036-49.514-37.233-54.948-45.642L338.732,785.541z"/>
</svg>
