<?xml version="1.0" encoding="utf-8"?>
<!-- Generator: Adobe Illustrator 16.0.0, SVG Export Plug-In . SVG Version: 6.00 Build 0)  -->
<!DOCTYPE svg PUBLIC "-//W3C//DTD SVG 1.1//EN" "http://www.w3.org/Graphics/SVG/1.1/DTD/svg11.dtd">
<svg version="1.1" id="Layer_1" xmlns="http://www.w3.org/2000/svg" xmlns:xlink="http://www.w3.org/1999/xlink" x="0px" y="0px"
	 width="704.781px" height="1001.891px" viewBox="0 0 704.781 1001.891" enable-background="new 0 0 704.781 1001.891"
	 xml:space="preserve">
<path fill="none" stroke="#000000" stroke-linejoin="round" stroke-miterlimit="10" d="M100.771,132.287
	c1.532-0.342,2.98-0.487,4.349-0.437c0.432,0,10.656,1.656,18.864,10.224c0.648,0.72,10.656,15.408,12.096,17.856
	c0.514,0.903,1.503,2.841,2.967,5.813"/>
<path fill="none" stroke="#000000" stroke-linejoin="round" stroke-miterlimit="10" d="M423.418,753.818L312.25,123.442"/>
<path fill="none" stroke="#000001" stroke-linejoin="round" stroke-miterlimit="10" d="M146.505,181.205
	c6.304,13.215,15.357,32.424,27.158,57.637c24.768,52.92,47.808,110.232,69.12,172.08c18.947,54.984,46.833,106.69,62.784,162.717
	c2.809,9.865,12.384,41.188,28.8,94.033c0.646,2.088,9.576,29.736,26.712,83.088c5.256,16.348,7.055,27,5.397,31.971
	c-0.274,0.823-0.742,1.748-1.402,2.775"/>
</svg>
