<?xml version="1.0" encoding="utf-8"?>
<!-- Generator: Adobe Illustrator 16.0.0, SVG Export Plug-In . SVG Version: 6.00 Build 0)  -->
<!DOCTYPE svg PUBLIC "-//W3C//DTD SVG 1.1//EN" "http://www.w3.org/Graphics/SVG/1.1/DTD/svg11.dtd">
<svg version="1.1" id="Layer_1" xmlns="http://www.w3.org/2000/svg" xmlns:xlink="http://www.w3.org/1999/xlink" x="0px" y="0px"
	 width="722.367px" height="818.906px" viewBox="0 0 722.367 818.906" enable-background="new 0 0 722.367 818.906"
	 xml:space="preserve">
<path d="M579.277,227.605c-0.358,0.144-0.574,0.359-0.722,0.504c-0.217,0.216-0.287,0.432-0.358,0.647
	c-0.067,0.216-0.146,0.433-0.146,0.648c0,0.215,0.069,0.432,0.146,0.646c0.146,0.216,0.217,0.432,0.358,0.576
	c0.217,0.145,0.356,0.288,0.576,0.36c0.217,0.144,0.435,0.216,0.646,0.216s0.433,0,0.646-0.072c0.215-0.072,0.435-0.144,0.574-0.288
	c0.219-0.144,0.358-0.36,0.506-0.504c0.069-0.216,0.217-0.432,0.217-0.648c0.07-0.216,0.07-0.432,0-0.72
	c-0.071-0.216-0.146-0.432-0.217-0.647c-0.146-0.216-0.358-0.36-0.646-0.576l0,0l16.703-81.216l21.17-120.454l0,0
	c1.366-5.76,3.239-10.224,5.614-13.392c2.377-3.24,5.258-5.832,8.565-7.992c3.312-2.16,6.983-3.456,10.873-4.032
	c3.89-0.504,5.543-0.72,4.822-0.648l0,0h52.129l0,0c4.03,0.216,7.271,1.008,9.862,2.376c2.593,1.368,4.824,3.168,6.695,5.472
	c1.868,2.232,3.237,4.752,4.104,7.632c0.862,2.808,1.149,5.832,0.862,9.072c-15.912,167.112-54.724,328.68-116.496,484.632
	C576.386,578.46,542.258,639.8,503.376,693.226c-57.454,68.615-93.168,107.566-107.206,117c-5.688,4.031-10.585,6.555-14.832,7.562
	c-4.248,1.008-8.496,1.369-12.815,0.938c-4.246-0.434-8.208-1.729-11.879-3.889c-3.673-2.16-5.762-3.526-6.266-4.176
	c-17.427-13.105-54.938-55.08-112.537-125.928c-40.464-56.021-76.607-119.736-108.359-191.16
	C65.629,343.021,22.573,186.708,0.109,24.783c-0.288-4.176,0-7.56,0.864-10.296c0.938-2.664,2.304-5.112,4.104-7.272
	c1.872-2.233,4.031-3.962,6.624-5.184c2.592-1.296,5.398-1.944,8.424-2.016l0,0h42.479l0,0c5.903,0.288,10.8,1.224,14.832,2.88
	c3.96,1.656,7.487,4.032,10.512,7.128s5.112,6.84,6.266,11.088l0,0l7.271,39.024l41.544,154.8l0,0
	c-0.358,0.216-0.574,0.432-0.792,0.648c-0.145,0.144-0.216,0.432-0.288,0.648c-0.07,0.216-0.144,0.504-0.07,0.72
	c0,0.288,0.07,0.504,0.217,0.72c0.071,0.216,0.216,0.432,0.432,0.576c0.146,0.144,0.36,0.288,0.647,0.36
	c0.217,0.144,0.433,0.144,0.646,0.144c0.288,0,0.506-0.072,0.722-0.144s0.433-0.216,0.646-0.36c0.146-0.144,0.288-0.36,0.434-0.576
	c0.07-0.216,0.145-0.432,0.216-0.72c0-0.216,0-0.504-0.071-0.72c-0.072-0.216-0.217-0.433-0.36-0.648
	c-0.144-0.216-0.358-0.36-0.574-0.504c-0.218-0.144-0.504-0.216-0.938-0.288l0,0l-1.729-56.808l0,0
	c0.792-2.088,1.654-3.601,2.521-4.608c0.938-1.008,2.018-1.872,3.239-2.52c1.225-0.72,2.521-1.152,3.889-1.368
	c1.439-0.288,2.88-0.288,4.319,0c1.438,0.288,2.809,0.792,4.104,1.512c1.298,0.72,2.521,1.944,3.816,3.672
	c22.68,30.888,48.096,59.4,76.176,85.393c32.474,29.952,67.752,56.231,105.912,78.768c6.554,3.168,11.88,5.04,15.842,5.544
	c4.03,0.504,8.062,0.36,12.021-0.36c3.961-0.72,7.633-2.16,10.942-4.32c50.187-34.2,105.84-90,166.896-167.184
	c1.729-2.016,3.385-3.384,4.896-4.176c1.584-0.792,3.312-1.296,5.041-1.439c1.799-0.216,3.526-0.072,5.256,0.432
	c1.802,0.432,3.386,1.224,4.824,2.304c1.512,1.152,2.879,2.809,4.176,5.04l0,0L579.277,227.605L579.277,227.605"/>
</svg>
