<?xml version="1.0" encoding="utf-8"?>
<!-- Generator: Adobe Illustrator 16.0.0, SVG Export Plug-In . SVG Version: 6.00 Build 0)  -->
<!DOCTYPE svg PUBLIC "-//W3C//DTD SVG 1.1//EN" "http://www.w3.org/Graphics/SVG/1.1/DTD/svg11.dtd">
<svg version="1.1" id="Layer_1" xmlns="http://www.w3.org/2000/svg" xmlns:xlink="http://www.w3.org/1999/xlink" x="0px" y="0px"
	 width="1978.941px" height="928.883px" viewBox="0 0 1978.941 928.883" enable-background="new 0 0 1978.941 928.883"
	 xml:space="preserve">
<path d="M830.207,618.989l0.072-7.271l0,0c0.358-5.184-0.576-10.148-2.664-14.832c-2.16-4.752-5.256-8.713-9.357-11.881
	c-4.104-3.24-8.712-5.543-13.824-6.912c-5.11-1.366-10.296-1.939-15.694-1.65c-5.328,0.215-12.456,2.016-21.237,5.396
	C579.576,666.653,338.09,781.493,42.959,926.5c-3.168,1.512-6.408,2.305-9.792,2.377s-6.624-0.504-9.72-1.801
	c-3.096-1.229-5.832-3.023-8.208-5.256c-2.376-2.309-4.536-5.689-6.408-10.08l0,0l-7.2-19.799l0,0
	c-1.296-4.182-1.8-8.496-1.584-12.965c0.219-4.465,1.227-8.779,2.811-13.027c1.656-4.178,5.184-9.217,10.512-15.049
	c208.871-200.447,354.67-367.775,437.327-501.984c2.376-3.24,4.683-7.632,7.059-13.248s3.813-11.52,4.248-17.64
	c0.432-6.12-0.288-12.168-2.16-18.145c-1.803-5.976-5.832-11.952-12.022-17.855l0,0l-76.896-65.376l-144.291-95.688l0,0
	c-2.661-2.592-4.896-5.256-6.693-8.136c-1.8-2.808-3.24-5.76-4.32-8.928c-1.08-3.097-1.728-6.336-1.872-9.504
	c-0.216-3.24,0.288-6.265,1.368-9.145s2.952-5.112,5.616-6.768l0,0l102.6-60.121l0,0c22.683-13.824,47.448-19.8,74.376-18.072l0,0
	l321.12,22.608l241.487,9.864l0,0c46.44-1.152,91.368,6.696,134.711,23.544l0,0l3.1,1.368l857.95,382.684l0,0
	c0.071-0.071,2.16,1.225,6.336,3.889c4.104,2.733,7.562,6.12,10.227,10.296c2.664,4.104,4.605,8.568,5.688,13.463
	c1.011,4.824,0.792,10.873-0.722,17.928l0,0l-6.982,36.938l0,0c-3.525,5.76-7.128,10.151-10.941,13.176
	c-3.814,2.953-7.991,5.256-12.603,6.84c-4.536,1.656-9.217,2.449-14.04,2.521s-10.438-1.008-16.85-3.312
	c-249.267-125.279-530.566-211.824-843.982-259.56c-6.479-1.008-12.888-0.864-19.296,0.432c-6.407,1.224-12.385,3.6-17.928,7.128
	c-5.546,3.456-10.873,9.288-15.842,17.424l0,0L846.77,628.059l0,0c-1.08,0.509-2.229,0.938-3.384,1.152
	c-1.15,0.217-2.306,0.289-3.456,0.289c-1.15-0.072-2.305-0.217-3.384-0.435c-1.08-0.22-2.089-0.575-3.022-1.079
	c-0.938-0.436-1.729-1.08-2.447-1.871c-0.646-0.724-1.009-1.584-1.009-2.664l0,0L830.207,618.989L830.207,618.989"/>
</svg>
