<?xml version="1.0" encoding="utf-8"?>
<!-- Generator: Adobe Illustrator 16.0.0, SVG Export Plug-In . SVG Version: 6.00 Build 0)  -->
<!DOCTYPE svg PUBLIC "-//W3C//DTD SVG 1.1//EN" "http://www.w3.org/Graphics/SVG/1.1/DTD/svg11.dtd">
<svg version="1.1" id="Layer_1" xmlns="http://www.w3.org/2000/svg" xmlns:xlink="http://www.w3.org/1999/xlink" x="0px" y="0px"
	 width="613.191px" height="986.65px" viewBox="0 0 613.191 986.65" enable-background="new 0 0 613.191 986.65"
	 xml:space="preserve">
<path d="M217.19,978.127c-0.435,1.513-1.151,2.812-2.159,4.032c-0.938,1.148-2.16,2.16-3.456,2.952
	c-1.368,0.72-2.88,1.224-4.393,1.438c-1.584,0.216-3.168,0.071-4.752-0.289c-1.515-0.432-2.952-1.08-4.32-1.938
	c-1.367-0.938-2.811-2.448-4.248-4.608c-76.39-119.808-139.174-226.728-188.35-320.76c-1.729-3.096-3.24-7.85-4.683-14.256
	c-1.438-6.479-1.008-14.4,1.296-23.904l0,0l44.855-209.376l0,0c-0.071,0,0.646-1.728,2.229-5.111
	c1.515-3.456,3.744-6.406,6.624-8.854c2.88-2.448,6.841-4.392,11.811-5.76l0,0l24.189-5.328l0,0
	c4.536-1.656,8.427-4.248,11.664-7.704c3.24-3.456,5.763-7.704,7.632-12.672c53.787-138.89,106.853-257.259,159.195-355.178
	c0.432-0.864,1.512-2.16,3.096-3.96c1.656-1.729,3.528-3.24,5.616-4.32c2.16-1.152,4.395-1.872,6.84-2.304
	c2.376-0.36,4.752-0.288,7.128,0.216c2.448,0.576,4.971,1.943,7.635,4.104l0,0l70.271,69.553l0,0
	c4.537,4.535,7.635,9.792,9.358,15.768c1.802,6.048,1.941,12.168,0.646,18.432c-37.08,181.009-61.774,334.08-74.159,459.216
	c-12.387,125.142-24.696,208.944-36.864,251.354C257.798,861.199,240.23,914.335,217.19,978.127L217.19,978.127 M319.792,986.623
	l-41.543-3.096l0,0c-2.664-0.36-4.896-1.08-6.769-2.16c-1.872-1.008-3.456-2.305-4.823-3.96c-1.368-1.584-2.305-3.456-2.952-5.475
	c-0.576-2.019-0.646-4.395-0.145-7.059c49.536-214.92,85.104-375.479,106.633-481.752c21.526-106.2,56.375-228.096,104.543-365.544
	c1.297-3.96,3.239-7.56,5.832-10.8c2.594-3.168,5.762-5.76,9.435-7.632c3.743-1.8,8.062-2.664,13.104-2.521l0,0l97.991,6.624l0,0
	c0.722-0.07,1.94,0.146,3.813,0.722c1.802,0.646,3.312,1.728,4.463,3.239c1.228,1.584,2.16,3.312,2.736,5.328
	c0.646,2.018,1.008,4.176,1.08,6.408c0,2.304-0.435,5.4-1.515,9.432c-29.16,94.032-70.851,233.784-124.992,419.328
	c-54.216,185.473-101.376,325.01-141.623,418.465c-1.228,3.672-2.951,7.061-5.187,10.152c-2.306,3.096-5.039,5.615-8.353,7.561
	C328.217,985.903,324.258,986.767,319.792,986.623L319.792,986.623"/>
</svg>
