<?xml version="1.0" encoding="utf-8"?>
<!-- Generator: Adobe Illustrator 16.0.0, SVG Export Plug-In . SVG Version: 6.00 Build 0)  -->
<!DOCTYPE svg PUBLIC "-//W3C//DTD SVG 1.1//EN" "http://www.w3.org/Graphics/SVG/1.1/DTD/svg11.dtd">
<svg version="1.1" id="Layer_1" xmlns="http://www.w3.org/2000/svg" xmlns:xlink="http://www.w3.org/1999/xlink" x="0px" y="0px"
	 width="646.559px" height="988.985px" viewBox="0 0 646.559 988.985" enable-background="new 0 0 646.559 988.985"
	 xml:space="preserve">
<path fill="none" stroke="#000000" stroke-linejoin="round" stroke-miterlimit="10" d="M293.877,72.842
	c-3.818,3.971-6.626,8.591-8.33,13.764c-1.944,5.976-2.376,12.096-1.224,18.432c30.745,182.163,50.111,335.955,58.104,461.521
	c7.991,125.496,17.354,209.662,28.008,252.434c10.656,42.766,26.354,96.479,47.09,161.062l0,0c0.432,1.441,1.151,2.811,2.085,4.1
	c0.938,1.219,2.017,2.227,3.384,3.02c0.727,0.443,1.498,0.819,2.314,1.103"/>
<path fill="none" stroke="#000000" stroke-linejoin="round" stroke-miterlimit="10" d="M52.557,121.094
	c-0.864-4.104-1.224-7.271-1.08-9.504c0.072-2.304,0.504-4.392,1.224-6.408c0.72-1.944,1.656-3.672,2.952-5.184
	c1.225-1.512,2.736-2.52,4.608-3.096c1.8-0.504,3.096-0.72,3.744-0.576l0,0l18.609-0.614"/>
<path fill="none" stroke="#000001" stroke-linejoin="round" stroke-miterlimit="10" d="M356.033,987.325L356.033,987.325
	c2.592-0.287,4.898-0.936,6.77-1.871c1.945-1.004,3.529-2.299,4.969-3.816c1.439-1.584,2.447-3.379,3.168-5.395
	c0.649-2.021,0.793-4.326,0.434-7.062c-42.048-216.504-72-378.215-89.784-485.134c-17.784-106.92-48.384-229.896-91.8-369
	c-1.08-4.033-2.88-7.704-5.4-11.016c-2.52-3.313-5.544-5.904-9.216-7.92c-3.601-2.016-7.92-3.024-12.96-3.024"/>
</svg>
