<?xml version="1.0" encoding="utf-8"?>
<!-- Generator: Adobe Illustrator 16.0.0, SVG Export Plug-In . SVG Version: 6.00 Build 0)  -->
<!DOCTYPE svg PUBLIC "-//W3C//DTD SVG 1.1//EN" "http://www.w3.org/Graphics/SVG/1.1/DTD/svg11.dtd">
<svg version="1.1" id="Layer_1" xmlns="http://www.w3.org/2000/svg" xmlns:xlink="http://www.w3.org/1999/xlink" x="0px" y="0px"
	 width="1260.301px" height="870.771px" viewBox="0 0 1260.301 870.771" enable-background="new 0 0 1260.301 870.771"
	 xml:space="preserve">
<path d="M174.611,683.572c-5.04,1.8-9.432,2.52-13.176,2.159c-3.744-0.359-7.271-1.298-10.584-3.023
	c-3.312-1.656-6.191-3.889-8.642-6.695C74.244,595.444,28.668,536.692,5.483,499.756c-3.023-5.472-4.752-10.079-5.186-13.68
	c-0.504-3.673-0.358-7.272,0.36-10.872c0.72-3.527,2.016-6.84,3.96-9.864l0,0L141.49,272.668l0,0
	c4.176-5.832,9.432-10.224,15.84-13.104c6.407-2.88,13.104-4.032,20.231-3.528c235.872,24.552,547.344,14.328,934.2-30.672
	c1.149-0.072,2.16,0.144,2.952,0.646c0.861,0.576,1.584,1.224,2.159,2.016c0.574,0.864,1.078,1.728,1.438,2.736
	c0.287,0.938,0.576,2.017,0.646,3.096c0.146,1.08,0.146,2.16,0,3.24c-0.145,1.08-0.505,2.16-0.938,3.168
	c-83.016,63.648-139.823,110.376-170.352,140.328c-3.455,3.888-5.688,7.416-6.695,10.584c-1.008,3.24-1.44,6.48-1.297,9.72
	c0.145,3.312,0.861,6.408,2.16,9.432c1.225,2.952,2.733,5.472,4.465,7.56c53.424,67.75,152.639,171.501,297.504,311.185
	c0.791,1.008,1.15,2.088,1.08,3.312c0,1.228-0.289,2.448-0.865,3.603c-0.504,1.225-1.08,2.305-1.871,3.385
	c-0.793,1.08-1.656,2.088-2.664,3.022c-0.936,1.009-2.016,1.87-3.168,2.663c-1.149,0.723-2.447,1.367-3.744,1.871
	c-344.733,20.812-673.632-4.029-986.688-74.52c-15.408-3.604-30.602-3.312-45.722,0.864l0,0L174.611,683.572L174.611,683.572
	 M1033.644,834.771v27l0,0l0,0l0,0l-720.146,9l0,0l0,0l0,0v-72l0,0l0,0l0,0l720.146,9l0,0l0,0l0,0V834.771L1033.644,834.771
	 M252.084,39.028c0.434-7.488,1.514-13.32,3.24-17.424c1.655-4.104,4.031-7.848,6.911-11.16s6.336-5.904,10.296-7.776
	c3.961-1.872,8.137-2.736,12.528-2.664l0,0l950.616,33.984l0,0c4.896,0.432,8.641,1.224,11.16,2.304
	c2.445,1.008,4.752,2.448,6.768,4.104c1.944,1.656,3.601,3.601,4.752,5.761c1.152,2.231,1.801,4.535,1.944,6.912l0,0v30.527l0,0
	c-0.288,4.536-1.368,8.28-3.168,11.088c-1.872,2.88-4.104,5.256-6.841,7.2c-2.663,1.944-5.615,3.456-8.783,4.464
	c-3.099,1.008-6.338,1.656-9.648,1.8l0,0l-294.188,13.104L294.709,149.98l0,0c-7.487-0.071-13.752-1.439-18.646-4.031
	c-4.97-2.664-9.217-6.192-12.815-10.513c-3.528-4.319-6.265-9.071-8.137-14.399c-1.872-5.256-2.88-10.729-3.023-16.345l0,0
	L252.084,39.028L252.084,39.028"/>
</svg>
