<?xml version="1.0" encoding="utf-8"?>
<!-- Generator: Adobe Illustrator 16.0.0, SVG Export Plug-In . SVG Version: 6.00 Build 0)  -->
<!DOCTYPE svg PUBLIC "-//W3C//DTD SVG 1.1//EN" "http://www.w3.org/Graphics/SVG/1.1/DTD/svg11.dtd">
<svg version="1.1" id="Layer_1" xmlns="http://www.w3.org/2000/svg" xmlns:xlink="http://www.w3.org/1999/xlink" x="0px" y="0px"
	 width="1260.297px" height="870.771px" viewBox="0 0 1260.297 870.771" enable-background="new 0 0 1260.297 870.771"
	 xml:space="preserve">
<path fill="none" stroke="#000000" stroke-linejoin="round" stroke-miterlimit="10" d="M1044.904,753.773
	c-258.083,3.123-506.979-20.227-746.692-70.034 M300.641,265.357c217.754,10.905,488.171-2.426,811.121-39.993
	c1.147-0.072,2.16,0.144,2.951,0.646c0.86,0.576,1.584,1.224,2.16,2.016c0.571,0.864,1.075,1.728,1.438,2.736
	c0.285,0.938,0.572,2.017,0.646,3.096 M313.493,798.771L313.493,798.771L313.493,798.771L313.493,798.771l720.146,9
	 M286.658,149.333c-4.032-0.65-7.575-1.784-10.602-3.384c-4.968-2.664-9.216-6.192-12.812-10.513
	c-3.528-4.319-6.269-9.071-8.141-14.399 M1145.623,111.989l-207.954,9.263l-637.028,28.463"/>
</svg>
