<?xml version="1.0" encoding="utf-8"?>
<!-- Generator: Adobe Illustrator 16.0.0, SVG Export Plug-In . SVG Version: 6.00 Build 0)  -->
<!DOCTYPE svg PUBLIC "-//W3C//DTD SVG 1.1//EN" "http://www.w3.org/Graphics/SVG/1.1/DTD/svg11.dtd">
<svg version="1.1" id="Layer_1" xmlns="http://www.w3.org/2000/svg" xmlns:xlink="http://www.w3.org/1999/xlink" x="0px" y="0px"
	 width="483.23px" height="920.645px" viewBox="0 0 483.23 920.645" enable-background="new 0 0 483.23 920.645"
	 xml:space="preserve">
<path fill="none" stroke="#000000" stroke-linejoin="round" stroke-miterlimit="10" d="M437.512,181.515
	c-1.795-0.646-7.104,0.711-15.961,4.208c-22.922,9.097-49.971,20.826-81.063,35.13c-11.535,5.265-18.205,8.303-19.998,9.043
	l-6.92,2.78l-6.72,2.885c-17.572,7.527-26.615,11.287-27.326,11.177l-2.866-0.303l-1.457-0.009
	c-0.666-0.396-1.086-0.972-1.271-1.656c-0.146-1.406,6.91-12.984,7.531-13.688l4.967-5.199l4.033-6.22
	c2.215-3.443,5.158-7.355,8.771-11.819c7.574-9.309,16.479-21.034,26.626-35.116c6.147-8.584,10.508-14.536,13.075-17.923
	c13.664-18.414,22.188-30.49,25.683-36.065l3.817-6.253l4.228-6.044c1.783-3.947-1.652-13.667-3.328-15.532
	c-1.545-1.772-10.293-5.472-26.258-11.029c-18.045-6.247-27.156-9.493-27.23-9.504C298,63.795,270.786,54.22,234.26,41.73
	c-30.372-10.361-62.424-20.692-96.049-30.76C113.585,3.476,99.937-0.116,97.44,0.003c-5.3,0.338-9.724,2.999-13.119,7.933
	c-2.147,3.016-5.539,13.053-10.398,30.147c-3.634,12.987-6.314,32.462-4.551,93.879c1.003,35.064,0.039,66.396-3.045,94.043
	c-3.276,29.803-5.178,46.631-5.472,50.375c-1.659,17.595-2.887,29.646-3.51,35.962c-2.724,28.141-4.414,45.002-4.915,50.535
	c-1.901,20.545-6.358,56.505-13.502,107.785c-8.577,61.841-12.919,92.863-12.963,93.146c-1.725,15.69-3.12,26.479-4.137,32.516
	C6.133,692.03-1.062,741.771,0.126,745.819c0.707,2.006,2.005,3.958,3.954,5.938c3.561,3.326,17.01,8.198,40.275,14.605
	c62.46,17.196,97.263,26.724,104.195,28.536c57.288,14.857,98.833,26.459,124.783,34.812c4.584,1.445,9.155,2.963,13.752,4.337
	c36.889,11.089,59.781,18.021,68.889,20.829l6.947,2.18c10.566,3.256,60.115,15.89,63.189,14.399
	c0.313-0.169,3.911-4.053,3.51-5.208l-2.062-6.881c-2.737-9.028-6.879-20.314-12.594-34.107
	c-5.387-13.085-9.053-24.59-10.998-34.514c-1.664-8.936-4.576-20.61-8.842-35.271l-2.035-7.021
	c-3.594-12.44-9.221-43.563-16.977-93.238c-4.17-26.45-7.359-45.677-9.519-57.524c-1.571-8.559-2.485-15.77-2.797-21.721
	c-1.156-23.354-2.145-40.344-3.031-50.977c-2.312-31.334-3.043-53.238-2.278-65.58c2.061-32.763,5.379-58.625,9.926-77.445
	c7.553-30.592,11.633-47.371,12.254-50.408c1.162-4.628,1.754-7.014,1.715-7.238c1.623-5.721,6.195-17.25,13.814-34.277
	c1.1-2.379,2.035-4.637,2.973-6.896c22.934-53.912,35.693-83.326,38.152-88.334l3.365-6.615
	C442.355,185.041,441.252,182.755,437.512,181.515z"/>
</svg>
