<?xml version="1.0" encoding="utf-8"?>
<!-- Generator: Adobe Illustrator 16.0.0, SVG Export Plug-In . SVG Version: 6.00 Build 0)  -->
<!DOCTYPE svg PUBLIC "-//W3C//DTD SVG 1.1//EN" "http://www.w3.org/Graphics/SVG/1.1/DTD/svg11.dtd">
<svg version="1.1" id="Layer_1" xmlns="http://www.w3.org/2000/svg" xmlns:xlink="http://www.w3.org/1999/xlink" x="0px" y="0px"
	 width="1066.543px" height="576.471px" viewBox="0 0 1066.543 576.471" enable-background="new 0 0 1066.543 576.471"
	 xml:space="preserve">
<path fill="none" stroke="#000000" stroke-linejoin="round" stroke-miterlimit="10" d="M69.681,481.038
	c-3.619-1.053-6.117,0.035-7.832,3.404c-2.666,14.514-15.382,25.513-30.667,25.513C13.96,509.955,0,495.994,0,478.773
	c0-17.223,13.96-31.184,31.182-31.184c11.259,0,21.125,5.968,26.606,14.913c1.562,0.696,3.411,1.021,5.035,0.334
	c1.843-0.779,2.443-2.503,3.573-3.992L206.126,68.22l0,0c1.152-3.024,3.6-5.04,6.84-5.544l0,0l260.929-60.12l0,0
	c19.954-4.598,40.492-2.157,60.554,0.792l0,0l128.303,18.864L810.78,39.421l249.121,26.64l0,0c2.592,0.288,5.184,2.088,6.049,4.608
	c1.539,4.49-0.332,62.787-0.866,94.176l0,0l-4.752,280.226l0,0c-0.215,2.879-1.15,6.979-3.672,9.143
	c-1.941,1.73-22.824,17.137-24.049,17.641l0,0l-90.719,28.08l-126.219,26.646l0,0c-8.359,1.766-67.795,9.992-101.734,14.688l0,0
	l-36.938,5.111l-87.91,6.049l0,0c-30.709,2.111-86.233,5.935-92.161,5.761c-17.183-0.5-34.22,2.354-51.336,3.387l0,0
	l-246.888,14.899l0,0c-2.448-0.067-6.552-1.147-8.496-2.375l0,0l-120.527-93.06L69.681,481.038z"/>
</svg>
