<?xml version="1.0" encoding="utf-8"?>
<!-- Generator: Adobe Illustrator 16.0.0, SVG Export Plug-In . SVG Version: 6.00 Build 0)  -->
<!DOCTYPE svg PUBLIC "-//W3C//DTD SVG 1.1//EN" "http://www.w3.org/Graphics/SVG/1.1/DTD/svg11.dtd">
<svg version="1.1" id="Layer_1" xmlns="http://www.w3.org/2000/svg" xmlns:xlink="http://www.w3.org/1999/xlink" x="0px" y="0px"
	 width="1004.184px" height="576.472px" viewBox="0 0 1004.184 576.472" enable-background="new 0 0 1004.184 576.472"
	 xml:space="preserve">
<path d="M1.458,164.844L6.209,445.07l0,0c0.216,2.881,1.151,6.979,3.672,9.145c1.944,1.73,22.824,17.135,24.051,17.639l0,0
	l90.72,28.08l126.217,26.645l0,0c8.36,1.766,67.795,9.99,101.733,14.688l0,0l36.938,5.113l87.912,6.047l0,0
	c30.708,2.113,86.233,5.938,92.16,5.76c17.183-0.5,34.219,2.355,51.337,3.391l0,0l246.889,14.898l0,0
	c2.447-0.068,6.554-1.146,8.495-2.377l0,0l124.13-95.832l0,0c2.823-2.182,4.562-5.797,3.312-9.287l0,0L860.419,68.22l0,0
	c-1.151-3.024-3.603-5.04-6.843-5.544l0,0L592.65,2.556l0,0c-19.955-4.598-40.492-2.157-60.554,0.792l0,0l-128.3,18.864
	L255.762,39.42L6.642,66.06l0,0c-2.594,0.288-5.186,2.088-6.048,4.608C-0.945,75.158,0.926,133.455,1.458,164.844L1.458,164.844"/>
</svg>
