<?xml version="1.0" encoding="utf-8"?>
<!-- Generator: Adobe Illustrator 16.0.0, SVG Export Plug-In . SVG Version: 6.00 Build 0)  -->
<!DOCTYPE svg PUBLIC "-//W3C//DTD SVG 1.1//EN" "http://www.w3.org/Graphics/SVG/1.1/DTD/svg11.dtd">
<svg version="1.1" id="Layer_1" xmlns="http://www.w3.org/2000/svg" xmlns:xlink="http://www.w3.org/1999/xlink" x="0px" y="0px"
	 width="1279.857px" height="873.11px" viewBox="0 0 1279.857 873.11" enable-background="new 0 0 1279.857 873.11"
	 xml:space="preserve">
<path fill="none" stroke="#000000" stroke-linejoin="round" stroke-miterlimit="10" d="M427.528,326.032
	c-10.569-23.938-6.854-63.68-7.791-83.677c-0.914-25.789,22.513-50.79,37.146-57.215c2.479-1.098,6.051-2.514,10.042-3.956
	l121.55-46.084l0.729,1.686l-104.479,39.64c21.72-4.662,46.054-4.133,46.869,19.62c0.436,15.711,1.317,64.788,4.327,83.094
	c3.13,19.622,6.09,28.602,1.535,44.692c-1.607,5.658-47.291,74.972-62.915,93.278l187.674-97.313l1.123,1.5l-193.06,100.154
	c-7.852,3.84-9.271-3.666-24.78-33.375C438.778,375.042,434.249,341.602,427.528,326.032z M646.999,561.678
	c-42.911,27.947-81.768,60.887-81.905,61.066c-4.566,5.166-28.561,23.645-28.423,23.463c0.966-0.754-24.893,21.988-27.979,24.994
	c-0.415,0.285-16.102,14.957-20.072,17.438c-1.146,0.877-9.152,5.877-9.354,5.842c-1.167,0.719-10.176-0.676-10.858-1.164
	c-17.986-9.457-25.412-70.291-28.938-86.934c-4.083-19.227,1.942-43.33,11.231-60.674c3.229-6.344,6.425-9.07,10.371-10.832
	c0.219-0.062,24.271-21.998,59.093-45.062c40.651-26.914,93.098-55.495,97.273-57.938c22.396-12.921,25.348-12.33,24.357-11.475
	c-4.372,3.805-67.843,37.456-117.641,69.37c-35.842,22.98-58.521,43.615-58.418,43.635c4.296-1.127,9.607-2.172,16.647-5.279
	c23.741-10.348,46.17-20.311,59.578-7.346c55.905,53.887-18.487,128.754-68.161,170.992c-0.552,0.467,2.881,1.512,4.353,0.85
	c1.686-0.727,8.313-5.566,9.463-6.443c8.668-6.549,16.409-14.1,15.718-13.604c-0.227,0.189-0.342,0.289-0.333,0.275
	c0.171-0.15,0.276-0.236,0.333-0.275c3.346-2.857,30.818-26.736,31.835-27.521c0.118-0.082,53.3-47.629,104.045-82.729
	c8.196-5.742,69.985-42.082,73.465-41.859C718.239,520.655,684.117,537.375,646.999,561.678z M1248.676,547.934
	c17.221,0,31.183,13.961,31.183,31.182s-13.962,31.18-31.183,31.18s-31.181-13.959-31.181-31.18c0-9.199,3.983-17.467,10.317-23.174
	c3.182-5.057-1.17-5.191-4.756-7.135c-8.569-0.781-20.723-1.98-36.387-3.582c-8.879-0.955-18.592-1.34-29.357-1.348
	c-10.582,0.125-30.255,0.141-31.771,0.23c-20.33,1.338-38.5,1.631-59.041,4.689c-3.267,0.332-15.41,3.023-36.817,6.861
	c-30.31,5.523-59.976,13.746-89.385,23.105c-28.988,9.328-82.294,26.523-87.271,27.422c-2.91,0.605-10.301,3.08-21.934,7.52
	c-8.374,3.33-13.259,5.125-14.593,5.348l-77.029,28.836c-6.362,1.684-36.702,15.268-87.848,40.41
	c-20.312,9.992-38.247,23.684-56.04,37.447c-20.654,16.088-40.062,33.594-59.577,51.082c-14.802,13.539-31.163,28.244-45.256,39.891
	c-19.651,16.271-48.038,36.998-61.793,44.828c-10.351,5.918-16.465,10.748-34.726,11.541c-4.032,0.244-26.939-2.145-50.312-11.297
	c-25.445-9.998-57.048-36.648-83.021-58.445c-9.578-8.174-18.607-17.072-28.5-24.941c-10.679-8.377-19.157-15.213-25.014-20.531
	c-24.288-21.379-48.203-43.109-71.57-65.559c-19.066-18.248-35.961-35.639-50.926-52.248c-3.964-4.354-15.571-16.986-34.556-37.654
	C35.191,585.92,6.959,555.28,5.611,552.182c-5.2-11.721-6.387-24.723-5.175-37.545l2.829-17.959
	c2.014-12.674,9.608-32.35,15.666-48.164c10.273-26.944,18.252-54.933,30.05-81.444c9.734-22.026,26.275-59.158,30.87-65.303
	c0.881-1.133,5.789-6.444,14.924-15.897c10.964-11.241,24.05-22.196,38.943-32.56c23.011-15.966,39.279-26.492,48.659-31.915
	c63.29-34.926,177.634-98.171,189.54-105.511c6.367-3.957,13.019-7.5,19.819-10.704c16.667-7.916,31.751-18.763,48.729-26.105
	l61.79-26.454c1.771-0.607,4.205-1.764,4.933-2.615c4.397-5.922,2.354-13.958,3.479-20.946c0.231-0.683,0.217-1.462,0.085-2.159
	c2.191-0.634,6.861-1.848,14.255-4.063c3.821-1.06,10.781-2.889,21.188-5.432c6.346-1.581,13.385-3.552,21.097-5.812
	c7.312-2.074,22.332-6.049,21.688-7.358L596.639,0c3.144,2.905,14.357,12.312,33.924,28.376c4.034,3.69,11.467,10.022,22.021,19.359
	C704.39,93.78,758.45,137.131,813.05,179.497c65.832,51.152,134.102,98.87,200.979,148.247
	c27.082,19.978,53.474,40.604,80.396,60.604c46.292,34.625,97.147,62.432,142.771,97.869c8.573,6.59,13.907,11.66,16.224,15.398
	c0.945,1.623-5.688,22.816-8.72,34.264c-0.351,1.365-0.67,2.564-0.958,3.598c0,1.998-0.606,4.09,0.593,5.893
	C1245.284,546.799,1247.098,547.493,1248.676,547.934z"/>
</svg>
