<?xml version="1.0" encoding="utf-8"?>
<!-- Generator: Adobe Illustrator 16.0.0, SVG Export Plug-In . SVG Version: 6.00 Build 0)  -->
<!DOCTYPE svg PUBLIC "-//W3C//DTD SVG 1.1//EN" "http://www.w3.org/Graphics/SVG/1.1/DTD/svg11.dtd">
<svg version="1.1" id="Layer_1" xmlns="http://www.w3.org/2000/svg" xmlns:xlink="http://www.w3.org/1999/xlink" x="0px" y="0px"
	 width="1332.318px" height="498.838px" viewBox="0 0 1332.318 498.838" enable-background="new 0 0 1332.318 498.838"
	 xml:space="preserve">
<path fill="none" stroke="#000000" stroke-linejoin="round" stroke-miterlimit="10" d="M464.423,286.772
	c-23.517,17.256-58.202,9.412-75.21-13.489c-4.958-6.679-10.57-16.218-12.464-24.371c-0.754-3.246-1.213-6.576-1.361-9.96
	c-0.906-20.719,8.67-43.009,27.065-53.604c8.374-4.823,22.53-10.004,32.363-9.246c9.402,0.726,22.812,4.351,30.47,10.087
	C500.206,212.541,494.446,264.742,464.423,286.772z M61.589,460.727c0.506,2.229,0.773,4.55,0.773,6.932
	c0,17.221-13.96,31.181-31.181,31.181C13.96,498.839,0,484.878,0,467.657c0-17.222,13.96-31.183,31.181-31.183
	c6.718,0,12.941,2.125,18.032,5.739c0.978,0.256,2.432,0.98,2.512-0.64c-1.345-2.461-2.542-5.001-3.539-7.593
	c-6.624-17.209-7.2-37.584-7.776-56.736C37.242,262.19,31.842,70.959,47.682,32.078c3.168-7.775,7.487-13.319,12.744-16.775
	c8.136-5.256,17.496-7.992,27-10.152C127.89-3.776,638.298,1.336,913.77,2.63c20.233,0.071,37.227,0,50.763-0.218
	c30.457-0.504,94.821,1.008,193.104,4.32c13.031,0.433,20.375,0.792,21.814,1.225c6.981,1.728,23.616,15.191,23.901,15.624
	c5.259,7.488,2.521,14.184-8.062,19.8c-3.885,2.088-15.262,6.408-34.271,12.888c-7.561,2.664-23.543,8.712-47.879,18
	c-22.682,8.64-43.559,15.697-62.496,20.808l23.543,0.433c50.761,1.082,101.664,1.441,152.568,1.729
	c19.367,0.145,49.031,3.528,59.904,6.84c7.561,2.305,21.959,9.649,25.631,12.673c17.567,14.039,26.496,46.367,14.619,72.788
	c-4.104,9-11.521,21.096-22.32,36.432c-5.473,7.776-11.016,15.479-16.848,22.967c-11.595,15.121-25.851,33.553-36.289,43.919
	c-46.439,46.011-98.353,85.97-155.23,118.08c-54.217,30.673-81.434,46.078-81.721,46.226c-6.986,3.457-23.041,8.854-48.096,16.199
	c-24.41,7.129-40.972,11.231-49.396,12.385c-39.814,5.545-534.814-4.322-802.224-6.553c-13.032-0.144-24.624-2.734-34.848-7.775
	c-3.874-1.938-9.283-6.09-14.689-11.685C64.017,458.545,61.396,458.479,61.589,460.727z"/>
</svg>
