<?xml version="1.0" encoding="utf-8"?>
<!-- Generator: Adobe Illustrator 16.0.0, SVG Export Plug-In . SVG Version: 6.00 Build 0)  -->
<!DOCTYPE svg PUBLIC "-//W3C//DTD SVG 1.1//EN" "http://www.w3.org/Graphics/SVG/1.1/DTD/svg11.dtd">
<svg version="1.1" id="Layer_1" xmlns="http://www.w3.org/2000/svg" xmlns:xlink="http://www.w3.org/1999/xlink" x="0px" y="0px"
	 width="635.371px" height="1003.785px" viewBox="0 0 635.371 1003.785" enable-background="new 0 0 635.371 1003.785"
	 xml:space="preserve">
<path fill="none" stroke="#020203" stroke-linejoin="round" stroke-miterlimit="10" d="M58.995,112.344
	c39.538,83.636,103.417,220.468,143.809,308.12c26.788,58.132,54.881,116.714,98.666,164.062
	c4.828,5.221,12.398,13.403,17.562,11.546c4.372-1.575,9.258-5.61,14.735-11.36c23.42-24.516,49.226-58.604,70.724-105.457
	c61.502-134.038,116.483-248.354,171.61-366.277"/>
<path fill="none" stroke="#020203" stroke-linejoin="round" stroke-miterlimit="10" d="M344.087,926.869
	c-1.011,0.665-1.933,1.283-2.735,1.837c-7.356,5.082-19.771,13.654-23.848,12.011c-9.524-3.838-17.954-8.339-25.294-13.555"/>
<path fill="none" stroke="#000001" stroke-linejoin="round" stroke-miterlimit="10" d="M46.712,135.683
	c1.171,4.803,3.319,11.675,6.438,20.473c25.255,71.219,45.569,144.204,74.002,214.271l76.614,188.802
	c22.261,48.31,49.459,94.188,81.313,136.788c8.669,11.594,20.395,27.4,32.42,28.282c11.334-1.448,24.661-14.672,50.322-52.68
	c30.817-45.694,54.688-89.411,71.521-130.916c51.924-128.229,79.9-197.875,83.855-209.022c5.607-15.73,18.256-53.205,37.934-112.496
	c17.941-53.995,27.109-81.506,27.426-82.613"/>
</svg>
