<?xml version="1.0" encoding="utf-8"?>
<!-- Generator: Adobe Illustrator 16.0.0, SVG Export Plug-In . SVG Version: 6.00 Build 0)  -->
<!DOCTYPE svg PUBLIC "-//W3C//DTD SVG 1.1//EN" "http://www.w3.org/Graphics/SVG/1.1/DTD/svg11.dtd">
<svg version="1.1" id="Layer_1" xmlns="http://www.w3.org/2000/svg" xmlns:xlink="http://www.w3.org/1999/xlink" x="0px" y="0px"
	 width="789.625px" height="1324.887px" viewBox="0 0 789.625 1324.887" enable-background="new 0 0 789.625 1324.887"
	 xml:space="preserve">
<path fill="none" stroke="#000000" stroke-linejoin="round" stroke-miterlimit="10" d="M593.085,709.09
	c17.377-24.102,31.639-50.248,47.914-75.078c14.258-21.75,27.889-43.897,41.254-66.208c10.92-18.223,20.748-33.946,29.486-47.177
	c9.717-14.83,14.848-24.534,15.395-29.109c0.41-3.521-0.19-7.237-1.594-10.47c-4.404-3.618-13.045-8.252-25.844-14.016l0,0
	l-80.172-38.629l0,0c-3.65-1.833-17.804-4.49-21.191-4.098c-10.031,1.11-22.854,12.37-27.422,17.602
	c-1.648,1.918-13.766,20.078-36.391,54.537c-7.972,12.134-15.414,24.604-23.562,36.623c-8.129,11.981-14.77,24.891-20.307,38.262
	c-8.316,20.082-19.072,39.024-28.291,58.688c-3.793,8.097-15.574,26.405-35.189,54.962c-3.783,5.614-11.836,17.649-24.131,36.304
	c-31.955,48.48-65.139,96.141-97.144,144.59c-13.583,20.562-37.905,56.639-72.952,108.328c-5.24,7.76-30.306,43.389-75.197,106.887
	c-41.915,59.287-78.479,122.129-119.029,182.334c-12.041,17.875-22.646,36.705-35.258,54.197l0,0L0,1324.887l0,0
	c3.928-2.494,6.991-4.279,9.03-5.385c60.436-32.732,109.897-81.611,166.181-120.555c25.354-17.549,139.998-114.338,209.055-172.643
	c0.684-0.572,20.195-16.684,58.542-48.33c26.109-21.561,48.216-40.15,66.312-55.771c0.807-0.75,11.955-9.938,33.426-27.65
	c16.877-13.928,27.892-23.295,32.984-28.145c-0.537-3.316-1.097-6.734-1.631-10.055l0,0l-7.074-84.982l0,0
	c-0.019-11.553,1.916-22.23,5.865-31.896C574.666,734.641,585.951,718.988,593.085,709.09L593.085,709.09 M21.025,1161.92
	c9.423-11.504,24.844-31.533,46.124-60.258c68.738-92.783,130.221-190.641,196.042-285.469
	c84.359-121.535,216.747-312.271,244.93-370.066c6.143-12.604,17.611-26.485,34.494-41.536c7.856-6.988,18.803-16.572,32.774-28.705
	l0,0l22.552-23.3l0,0c8.301-9.147,14.084-18.153,17.405-27.065c2.312-6.085,4.884-18.69,4.836-20.534
	c-0.438-17.771,5.15-35.301,3.705-53.08c-2.653-32.654-3.432-65.443-1.86-98.171c0.862-18.055,1.848-38.562-2.908-54.008l0,0
	L603.808,45.52l0,0c-0.812-2.983-12.235-30.54-12.735-31.247C582.279,1.251,568.849-0.06,567.771,0.002l0,0l-10.783,0.604l0,0
	C438.517,7.241,288.741,26.534,155.095,43.749c-17.533,2.259-35.425,1.495-52.771,5.161c-13.109,2.771-43.832,9.264-33.146,20.548
	c0.843,0.89,15.437,28.413,16.349,30.281c25.188,51.56,43.14,106.244,65.978,158.833c4.818,11.095,24.017,59.302,30.347,80.134
	c7.206,23.719,10.667,48.341,12.152,73.048c0.905,15.056-14.264,82.796-23.442,123.79c-0.831,3.71-2.587,10.457-5.104,20.104
	c-2.573,9.688-5.938,23.25-10.161,40.819c-11.553,48.075-25.324,95.599-36.458,143.772c-4.4,19.039-11.897,46.141-22.334,81.268
	c-7.086,23.854-14.109,47.727-20.792,71.689c-12.321,44.189-27.071,87.662-39.814,131.729
	c-9.866,34.119-23.563,67.146-31.013,101.936l0,0l-4.726,25.88l0,0c-0.591,3.235,0.489,6.561,2.872,8.834
	c2.384,2.27,5.753,3.188,8.961,2.444l0,0L21.025,1161.92L21.025,1161.92"/>
</svg>
