<?xml version="1.0" encoding="utf-8"?>
<!-- Generator: Adobe Illustrator 16.0.0, SVG Export Plug-In . SVG Version: 6.00 Build 0)  -->
<!DOCTYPE svg PUBLIC "-//W3C//DTD SVG 1.1//EN" "http://www.w3.org/Graphics/SVG/1.1/DTD/svg11.dtd">
<svg version="1.1" id="Layer_1" xmlns="http://www.w3.org/2000/svg" xmlns:xlink="http://www.w3.org/1999/xlink" x="0px" y="0px"
	 width="789.625px" height="1324.887px" viewBox="0 0 789.625 1324.887" enable-background="new 0 0 789.625 1324.887"
	 xml:space="preserve">
<path fill="none" stroke="#000001" stroke-linejoin="round" stroke-miterlimit="10" d="M598.333,424.306
	c3.388-0.393,17.541,2.265,21.191,4.098l0,0l80.172,38.629l0,0c3.956,1.781,7.515,3.455,10.674,5.023l-0.008-0.003
	c7.988,2.978,17.079,2.01,23.818-3.357l-0.001-0.002c5.716-7.071,14.461-11.593,24.262-11.593c17.221,0,31.182,13.961,31.182,31.183
	c0,17.221-13.961,31.182-31.182,31.182c-8.582,0-16.354-3.466-21.991-9.075c-5.439-4.62-12.924-4.973-18.237,0
	c-1.867,3.086-4.025,6.499-6.474,10.237c-8.738,13.23-18.566,28.954-29.486,47.177c-13.365,22.311-26.996,44.458-41.254,66.208
	c-16.275,24.83-30.537,50.977-47.914,75.078l0,0c-7.134,9.898-18.419,25.551-20.395,30.385c-3.949,9.666-5.884,20.344-5.865,31.896
	l0,0l7.074,84.982l0,0c0.534,3.32,1.094,6.738,1.631,10.055c-5.093,4.85-16.107,14.217-32.984,28.145
	c-21.471,17.713-32.619,26.9-33.426,27.65c-18.097,15.621-40.203,34.211-66.312,55.771c-38.347,31.646-57.858,47.758-58.542,48.33
	c-69.057,58.305-183.701,155.094-209.055,172.643c-56.284,38.943-105.745,87.822-166.181,120.555
	c-2.039,1.105-5.102,2.891-9.03,5.385l0,0l3.46-7.269l0,0c12.612-17.492,23.217-36.322,35.258-54.197
	c7.926-11.769,15.7-23.638,23.391-35.561c6.752-15.021-12.021-25.682-21.464-33.829c-10.288-8.878-20.577-17.755-30.865-26.633
	c-2.25-1.941-4.499-3.882-6.749-5.823c-2.383-2.273-3.463-5.599-2.872-8.834l0,0l4.726-25.88l0,0
	c7.45-34.789,21.147-67.816,31.013-101.936c12.743-44.066,27.493-87.539,39.814-131.729c6.683-23.963,13.706-47.835,20.792-71.689
	c10.437-35.127,17.934-62.229,22.334-81.268c11.134-48.174,24.905-95.697,36.458-143.772c4.223-17.569,7.588-31.131,10.161-40.819
	c2.517-9.647,4.273-16.395,5.104-20.104c9.178-40.994,24.347-108.734,23.442-123.79c-1.485-24.707-4.946-49.329-12.152-73.048
	c-6.33-20.832-25.529-69.039-30.347-80.134c-22.838-52.589-40.79-107.273-65.978-158.833c-0.912-1.868-15.506-29.391-16.349-30.281
	C58.492,58.174,89.215,51.681,102.324,48.91c17.346-3.666,35.238-2.902,52.771-5.161C288.741,26.534,438.517,7.241,556.988,0.606
	l0,0l10.783-0.604l0,0c1.077-0.062,14.508,1.249,23.301,14.271c0.5,0.707,11.924,28.264,12.735,31.247l0,0l15.312,54.208l0,0
	c4.756,15.446,3.771,35.953,2.908,54.008c-1.571,32.728-0.793,65.517,1.86,98.171c1.445,17.779-4.144,35.309-3.705,53.08
	c0.048,1.844-2.523,14.449-4.836,20.535c-3.321,8.911-9.104,17.918-17.405,27.064l0,0l-22.552,23.3l0,0
	c-1.338,1.162-2.648,2.301-3.932,3.416c-6.313,8.543-4.612,19.667-0.481,28.737c2.215,4.864,5.281,9.542,9.796,12.532
	C585.944,423.997,592.332,424.266,598.333,424.306z"/>
</svg>
