<?xml version="1.0" encoding="utf-8"?>
<!-- Generator: Adobe Illustrator 16.0.0, SVG Export Plug-In . SVG Version: 6.00 Build 0)  -->
<!DOCTYPE svg PUBLIC "-//W3C//DTD SVG 1.1//EN" "http://www.w3.org/Graphics/SVG/1.1/DTD/svg11.dtd">
<svg version="1.1" id="Layer_1" xmlns="http://www.w3.org/2000/svg" xmlns:xlink="http://www.w3.org/1999/xlink" x="0px" y="0px"
	 width="732.312px" height="506.838px" viewBox="0 0 732.312 506.838" enable-background="new 0 0 732.312 506.838"
	 xml:space="preserve">
<path fill="none" stroke="#000000" stroke-linejoin="round" stroke-miterlimit="10" d="M357.196,506.838
	c0.221,0,2.588-2.156,8.664-5.916c2.764-1.656,29.939-17.354,81.43-47.096c26.518-15.367,59.664-35.269,99.328-59.92
	c14.475-8.955,43.201-25.429,86.398-49.416c15.58-8.734,24.859-14.705,27.846-17.91c6.738-7.519,12.707-22.664,26.959-130.123
	c5.303-39.91,9.502-73.187,12.375-99.609c2.318-21.447,0.332-33.387-6.076-35.819c-3.979,0.774-26.52,9.065-67.619,24.764
	c-15.469,5.97-60.547,22.553-135.127,49.86c-71.926,26.312-112.146,40.02-120.652,41.125c-7.375,0.907-14.305,1.384-20.794,1.43
	c-8.387,0.06-16.763-0.691-24.985-2.336c-2.884-0.576-30.24-9.288-51.268-16.92c-64.3-23.342-128.312-47.472-192.6-70.848
	c-13.452-4.891-26.783-10.103-40.104-15.336c-18.144-7.128-28.368-10.8-30.6-10.944c-1.224-0.072-2.376-0.072-3.6,0
	c-9.852,0.58-6.545,28.138-4.824,42.479c7.769,64.74,17,141.666,27.288,193.681c2.093,10.584,4.461,21.701,12.168,29.664
	c2.16,2.231,8.064,5.979,17.784,11.377c40.414,22.451,80.719,45.127,120.024,69.479c45.288,28.062,91.285,54.949,137.592,81.289
	c9.296,5.287,18.484,10.76,27.648,16.271C345.736,506.838,352.935,506.838,357.196,506.838L357.196,506.838"/>
</svg>
