<?xml version="1.0" encoding="utf-8"?>
<!-- Generator: Adobe Illustrator 16.0.0, SVG Export Plug-In . SVG Version: 6.00 Build 0)  -->
<!DOCTYPE svg PUBLIC "-//W3C//DTD SVG 1.1//EN" "http://www.w3.org/Graphics/SVG/1.1/DTD/svg11.dtd">
<svg version="1.1" id="Layer_1" xmlns="http://www.w3.org/2000/svg" xmlns:xlink="http://www.w3.org/1999/xlink" x="0px" y="0px"
	 width="525.779px" height="747.046px" viewBox="0 0 525.779 747.046" enable-background="new 0 0 525.779 747.046"
	 xml:space="preserve">
<path fill="none" stroke="#000000" stroke-miterlimit="10" d="M0.017,719.089c0.195,6.973,0.492,17.695,3.576,20.504l7.555,6.877
	c2.239,2.018,14.02-1.271,35.188-9.793c45.631-18.455,68.92-27.85,69.869-28.18c4.973-1.725,65.188-26.033,97.746-39.143
	c39.86-16.053,63.146-25.373,69.862-28.033c22.403-8.771,36.347-14.365,41.901-16.848c27.631-12.131,74.254-36.68,107.237-99.924
	c27.522-52.691,47.403-98.648,59.646-138.012c26.826-86.213,30.382-137.388,31.996-162.477
	c3.877-63.124-2.426-125.573-9.131-149.565c-1.237-4.284-2.343-8.672-4.007-12.815c-1.908-4.757-4.767-9.182-8.483-12.725
	c-3.748-3.576-8.346-5.833-12.961-8.071c-0.793-0.383-1.573-0.783-2.363-1.163c-3.551-1.629-13.889,1.633-31.014,9.787
	c-10.978,5.259-45.614,24.578-103.768,58.038c-30.182,17.379-85.433,50.142-165.825,98.358
	c-34.613,20.76-72.494,46.675-97.988,107.863c-19.865,47.684-54.871,200.912-61.213,231.68
	C19.528,585.738-0.644,695.365,0.017,719.089z"/>
</svg>
