<?xml version="1.0" encoding="utf-8"?>
<!-- Generator: Adobe Illustrator 16.0.0, SVG Export Plug-In . SVG Version: 6.00 Build 0)  -->
<!DOCTYPE svg PUBLIC "-//W3C//DTD SVG 1.1//EN" "http://www.w3.org/Graphics/SVG/1.1/DTD/svg11.dtd">
<svg version="1.1" id="Layer_1" xmlns="http://www.w3.org/2000/svg" xmlns:xlink="http://www.w3.org/1999/xlink" x="0px" y="0px"
	 width="2639.078px" height="698.019px" viewBox="0 0 2639.078 698.019" enable-background="new 0 0 2639.078 698.019"
	 xml:space="preserve">
<path fill="none" stroke="#000000" stroke-linejoin="round" stroke-miterlimit="10" d="M2576.549,408.144
	c-15.613-10.74-98.553-123.623-162.064-170.684l-17.207-12.75c0.281,0.21-32.875,13.737-49.695,19.607
	c-41.905,14.625-56.32,14.932-84.26,10.714c-24.438-3.689-58.496-8.832-72.877-13.537c-59.746-19.548-128.479-42.036-178.73-60.167
	c-39.691-14.321-80.134-26.409-120.572-38.42c-70.55-20.955-141.604-40.266-213.59-55.643
	c-54.604-11.664-108.537-26.228-163.024-38.402c-75.399-16.846-152.447-24.414-228.547-37.381
	C1181.092-6.391,930.947,0.681,753.42,5.7c-21.332,0.604-42.188,5.154-62.764,13.529c-6.938,2.851-16.447,8.125-28.433,15.733
	c-39.347,24.982-86.445,54.89-115.595,78.604C451.458,191.002,398.23,234.767,386.96,244.659
	c-70.77,62.13-141.214,124.803-206.016,193.213C126.199,495.667,64.591,547.041,14.515,609.14
	c-9.123,11.312-12.576,16.916-14.504,38.422c-0.84,9.379,48.858,7.867,73.59,7.117c67.913-2.061,157.904-4.789,203.801-2.039
	c10.535,0.635,21.182,1.176,32,1.58c16.225,0.611,26.808-0.545,31.764-3.566c0.225-0.184,12.452-11.756,13.319-12.631
	c12.207-12.312,29.082-18.875,46.398-17.896l539.463,26.865l20.818,2.564c11.703,1.176,65.629,17.23,81.808,23.219
	c9.031,3.342,32.612,14.84,48.717,22.688c10.683,5.209,27.732,2.584,39.098-9.039c3.02-3.143,8.772-12.328,17.277-27.656
	c30.031-54.145,62.523-107.096,101.869-155.02c22.668-27.609,46.493-54.469,74.501-76.775c0.13-0.102,0.257-0.199,0.387-0.305
	c39.896-31.756,81.521-61.932,128.501-82.255c47.521-20.561,99.668-25.579,151.05-22.915c57.547,2.983,115.257,3.287,172.651,8.714
	c40.985,3.875,82.055,6.837,123.055,10.56c31.827,2.89,63.499,7.301,95.337,10.082c52.737,4.604,105.384,10.342,157.743,18.201
	c72.979,10.953,172.851,25.943,218.419,36.126c15.845,3.541,96.058,19.229,103.646,19.661c4.411,0.205,25.76-2.732,64.043-8.832
	C2562.265,412.343,2578.557,409.527,2576.549,408.144z"/>
</svg>
