<?xml version="1.0" encoding="utf-8"?>
<!-- Generator: Adobe Illustrator 16.0.0, SVG Export Plug-In . SVG Version: 6.00 Build 0)  -->
<!DOCTYPE svg PUBLIC "-//W3C//DTD SVG 1.1//EN" "http://www.w3.org/Graphics/SVG/1.1/DTD/svg11.dtd">
<svg version="1.1" id="Layer_1" xmlns="http://www.w3.org/2000/svg" xmlns:xlink="http://www.w3.org/1999/xlink" x="0px" y="0px"
	 width="2639.078px" height="698.019px" viewBox="0 0 2639.078 698.019" enable-background="new 0 0 2639.078 698.019"
	 xml:space="preserve">
<path fill="none" stroke="#000000" stroke-linejoin="round" stroke-miterlimit="10" d="M2581.869,396.716
	c5.581-8.438,15.154-14.002,26.027-14.002c17.221,0,31.182,13.961,31.182,31.182s-13.961,31.182-31.182,31.182
	c-15.541,0-28.425-11.367-30.793-26.24c-2.979-4.512-8.644-4.498-13.469-4.889c-2.658-0.216-5.318-0.404-7.979-0.619
	c-4.873,0.83-10.404,1.727-16.392,2.68c-38.282,6.102-59.632,9.037-64.043,8.832c-7.588-0.432-87.801-16.121-103.646-19.661
	c-45.568-10.183-145.44-25.173-218.419-36.125c-52.359-7.859-105.007-13.599-157.743-18.201
	c-31.838-2.781-63.51-7.192-95.337-10.082c-41-3.723-82.069-6.685-123.056-10.56c-57.395-5.427-115.104-5.731-172.65-8.714
	c-51.382-2.664-103.529,2.354-151.051,22.915c-46.979,20.325-88.604,50.5-128.5,82.254c-0.131,0.105-0.258,0.203-0.388,0.305
	c-28.008,22.309-51.833,49.166-74.501,76.775c-39.346,47.924-71.838,100.875-101.869,155.02
	c-8.505,15.328-14.258,24.516-17.276,27.656c-11.365,11.623-28.415,14.248-39.099,9.039c-16.104-7.848-39.686-19.346-48.717-22.688
	c-16.179-5.988-70.104-22.043-81.808-23.219l-20.818-2.564l-539.463-26.865c-17.316-0.979-34.191,5.584-46.398,17.896
	c-0.866,0.875-13.095,12.447-13.318,12.631c-4.956,3.021-15.539,4.178-31.765,3.566c-10.817-0.404-21.464-0.945-32-1.58
	c-45.897-2.75-135.888-0.021-203.801,2.039c-24.732,0.75-74.43,2.262-73.59-7.117c1.928-21.506,5.381-27.109,14.504-38.422
	c50.076-62.1,111.684-113.473,166.429-171.268c64.802-68.41,135.247-131.083,206.016-193.213
	c11.271-9.892,64.498-53.657,159.669-131.093c29.148-23.714,76.248-53.622,115.595-78.604c11.985-7.608,21.495-12.882,28.434-15.733
	C711.232,10.854,732.088,6.304,753.42,5.7c177.527-5.019,427.672-12.091,532.562,5.781c76.1,12.967,153.146,20.535,228.547,37.381
	c54.486,12.174,108.421,26.738,163.023,38.402c71.985,15.377,143.04,34.688,213.59,55.643
	c40.438,12.011,80.883,24.099,120.572,38.42c50.252,18.131,118.984,40.619,178.73,60.167c14.381,4.705,48.438,9.848,72.877,13.537
	c27.938,4.218,42.354,3.911,84.26-10.714c16.82-5.87,49.977-19.397,49.695-19.607l17.207,12.75
	c51.179,37.922,114.973,118.584,145.988,154.103c0.488,0.269,0.979,0.535,1.467,0.802
	C2567.643,395.485,2575.39,401.003,2581.869,396.716z"/>
</svg>
