<?xml version="1.0" encoding="utf-8"?>
<!-- Generator: Adobe Illustrator 16.0.0, SVG Export Plug-In . SVG Version: 6.00 Build 0)  -->
<!DOCTYPE svg PUBLIC "-//W3C//DTD SVG 1.1//EN" "http://www.w3.org/Graphics/SVG/1.1/DTD/svg11.dtd">
<svg version="1.1" id="Layer_1" xmlns="http://www.w3.org/2000/svg" xmlns:xlink="http://www.w3.org/1999/xlink" x="0px" y="0px"
	 width="824.301px" height="1324.404px" viewBox="0 0 824.301 1324.404" enable-background="new 0 0 824.301 1324.404"
	 xml:space="preserve">
<path d="M824.219,1316.639l-25.908-164.384l-0.794,0.032c1.676-0.068-41.562-212.33-57.229-319.368
	c-14.633-99.981-36.162-198.823-51.187-298.742c-6.729-44.739-16.854-105.217-30.386-181.435
	c-13.74-77.814-21.331-138.599-22.771-182.356l-0.329-10.829c-0.073-1.445-1.829-18.401-15.979-26.742
	c-2.446-1.491-12.814-4.671-30.879-9.673c-59.058-16.354-118.58-30.981-177.493-47.85C310.719,46.5,209.584,19.203,106.358,1.892
	c-33.529-5.624-55.5,1.292-66.121,20.735C25.797,49.063,19.821,78.826,14.879,108.31C-1.173,204.042-4.266,291.333,5.744,370.26
	c1.748,14.216,5.384,35.445,10.818,63.976c6.111,32.381,18.035,81.342,35.566,146.653c5.537,20.676,13.867,51.939,24.989,93.797
	c7.753,29.799,13.973,54.183,18.585,73.151c6.699,27.726,10.046,41.729,10.255,41.886c1.351,3.312,3.225,6.217,5.546,8.854
	l9.972-3.397c4.693-11.808,10.677-36.597,17.732-74.312c10.358-54.994,16.678-90.871,19.311-107.686
	c11.773-77.706,18.812-128.179,21.271-151.63c5.296-48.758,8.531-77.792,9.854-87.027c5.373-37.22,8.933-62.492,10.604-75.889
	c2.262-19.496,3.877-30.301,5.062-32.405c1.604-3.236,3.896-5.862,6.816-8.097c1.381-0.219,2.892-0.145,4.312,0.285
	c2.543,2.505,4.343,5.477,5.472,8.921c0.995,3.149,1.938,24.894,2.83,65.164c0.965,43.441,2.975,86.855,3.722,130.303
	c1.562,90.835,5.521,166.728,11.801,227.808c5.185,50.44,8.861,101.033,14.352,151.442c3.721,34.142,9.551,69.315,58.122,111.873
	c5.666,4.966,10.979,9.771,16.016,14.347c44.774,40.638,113.286,92.54,205.325,155.559
	c53.188,36.413,103.646,76.633,156.517,113.493l123.15,85.87c2.208,1.54,5.124,1.608,7.406,0.186
	C823.427,1321.955,824.638,1319.299,824.219,1316.639z"/>
</svg>
