<?xml version="1.0" encoding="utf-8"?>
<!-- Generator: Adobe Illustrator 16.0.0, SVG Export Plug-In . SVG Version: 6.00 Build 0)  -->
<!DOCTYPE svg PUBLIC "-//W3C//DTD SVG 1.1//EN" "http://www.w3.org/Graphics/SVG/1.1/DTD/svg11.dtd">
<svg version="1.1" id="Layer_1" xmlns="http://www.w3.org/2000/svg" xmlns:xlink="http://www.w3.org/1999/xlink" x="0px" y="0px"
	 width="826.904px" height="1322.572px" viewBox="0 0 826.904 1322.572" enable-background="new 0 0 826.904 1322.572"
	 xml:space="preserve">
<path d="M812.441,108.487c-4.871-29.497-10.771-59.274-25.146-85.747C776.723,3.271,754.772-3.7,721.227,1.84
	c-103.268,17.055-204.47,44.099-305.09,72.639c-58.955,16.722-118.519,31.2-177.611,47.407c-18.075,4.957-28.451,8.111-30.904,9.596
	c-14.17,8.306-15.969,25.257-16.045,26.702l-0.354,10.829c-1.552,43.752-9.292,104.519-23.229,182.298
	c-13.722,76.184-24.001,136.636-30.84,181.356c-15.271,99.882-37.048,198.667-51.931,298.613
	c-15.936,107-59.701,319.149-58.027,319.227l-0.794-0.034L0.084,1314.79c-0.426,2.658,0.777,5.312,3.059,6.75
	c2.276,1.437,5.191,1.367,7.404-0.166l123.368-85.562c52.959-36.729,103.521-76.82,156.795-113.104
	c92.196-62.785,160.84-114.521,205.717-155.043c5.047-4.562,10.373-9.354,16.051-14.305c48.68-42.438,54.598-77.603,58.4-111.729
	c5.612-50.396,9.418-100.979,14.729-151.408c6.432-61.062,10.58-136.939,12.371-227.771c0.854-43.446,2.975-86.854,4.045-130.294
	c0.992-40.267,1.988-62.009,2.994-65.156c1.137-3.441,2.94-6.409,5.492-8.908c1.422-0.427,2.934-0.498,4.312-0.274
	c2.916,2.242,5.201,4.874,6.795,8.114c1.185,2.107,2.771,12.917,4.98,32.418c1.641,13.401,5.135,38.682,10.412,75.917
	c1.299,9.235,4.463,38.279,9.641,87.052c2.396,23.455,9.311,73.945,20.889,151.683c2.594,16.816,8.816,52.708,19.043,107.729
	c6.961,37.729,12.886,62.537,17.548,74.354l9.965,3.425c2.326-2.633,4.209-5.529,5.565-8.84c0.209-0.151,3.588-14.148,10.355-41.858
	c4.659-18.959,10.938-43.327,18.771-73.104c11.229-41.829,19.637-73.072,25.226-93.732c17.692-65.271,29.737-114.199,35.934-146.564
	c5.51-28.515,9.197-49.733,10.979-63.945C831.132,291.556,828.257,204.258,812.441,108.487z"/>
</svg>
