<?xml version="1.0" encoding="utf-8"?>
<!-- Generator: Adobe Illustrator 16.0.0, SVG Export Plug-In . SVG Version: 6.00 Build 0)  -->
<!DOCTYPE svg PUBLIC "-//W3C//DTD SVG 1.1//EN" "http://www.w3.org/Graphics/SVG/1.1/DTD/svg11.dtd">
<svg version="1.1" id="Layer_1" xmlns="http://www.w3.org/2000/svg" xmlns:xlink="http://www.w3.org/1999/xlink" x="0px" y="0px"
	 width="2263.304px" height="732.09px" viewBox="0 0 2263.304 732.09" enable-background="new 0 0 2263.304 732.09"
	 xml:space="preserve">
<path fill="none" stroke="#000000" stroke-linejoin="round" stroke-miterlimit="10" d="M1237.64,126.171
	c14.086,0.212,53.795,1.593,119.203,4.211c24.02,0.917,56.521,1.409,97.59,1.474c4.111,0.013,18.631,0.194,43.41,0.627
	c42.115,0.716,103.557,0.063,184.391-1.888c11.385-0.257,36.705-0.366,75.896-0.249c3.17-0.067,10.389-0.046,21.705-0.227
	c24.234-0.181,64.072-0.106,119.311,0.45c21.154,0.171,64.525-0.858,130.039-3.154c20.877-0.749,46.182-1.145,75.906-1.188
	c12.555-0.047,37.879-1.166,75.824-3.492c28.75-1.709,43.127-2.527,43.344-2.542c21.576,1.08,38.334,15.328,38.994,32.747
	c0.17,3.597-0.092,7.223-0.715,10.872c-1.514,8.688-10.648,36-27.482,82.013c-4.518,12.281-12.553,32.375-24.037,60.205
	c-2.055,4.901-7.361,18.317-15.852,40.246c-1.666,4.225-8.711,20.789-21.205,49.697c-1.062,2.449-6.521,15.808-16.434,40.211
	c-13.324,32.646-28.305,61.142-44.932,85.49c-14.266,20.799-25.547,24.729-43.621,28.537c-1.141,0.223-4.703,0.896-10.695,1.943
	c-12.828,2.375-26.994,5.271-42.576,8.553c-23.762,5.127-55.814,11.314-95.953,18.623c-9.48,1.719-34.338,6.629-74.564,14.736
	c-18.582,3.77-47.201,8.502-85.721,14.11c-16.646,2.484-48.771,7.738-96.438,15.771c-27.605,4.733-56.248,9.18-85.836,13.471
	c-11.217,1.689-46.887,7.832-106.99,18.643c-27.234,4.929-77.4,12.259-150.424,22.056c-73.062,9.805-146.367,17.61-219.73,24.787
	c-29.646,2.897-54.854,5.311-75.605,7.305l0,0l-10.77,1.061l-10.814,1.216l0,0c-0.427,0.063-25.597,2.252-75.64,6.649
	c-14.532,1.222-25.322,2.14-32.453,2.689c-1.87,0.149-16.251,1.422-43.209,3.817c-45.224,3.996-95.771,6.144-151.715,6.449
	c-3.717,0.01-10.972-0.223-21.669-0.559c-7.338-0.291-25.482-0.244-54.229,0.104c-22.919,0.297-55.453-0.278-97.598-1.66
	c-8.876-0.338-41.303-2.973-97.229-8.062c-15.248-1.436-25.984-2.934-32.094-4.656c-20.354-5.58-34.636-13.295-56.138-47.125
	c-4.764-7.479-10.129-16.904-16.014-28.217c-6.211-11.986-14.714-27.84-25.615-47.758c-8.668-15.974-20.059-38.508-34.184-67.683
	c-0.991-2.104-7.492-14.991-19.442-38.752c-1.482-2.897-14.15-28.879-38.005-77.938c-5.855-12.045-12.356-24.937-19.502-38.67
	c-2.416-4.647-11.804-24.222-28.224-58.644c-6.284-13.362-25.262-52.407-56.77-117.015c-13.849-28.405-47.336-109.102-50.3-119.931
	c-1.73-6.286-2.456-10.836-2.152-13.509c0.621-5.713,3.07-10.477,7.467-14.458c2.609-2.384,4.987-3.93,6.993-4.613
	c3.81-1.264,21.749,1.056,53.761,7.039c40.274,7.51,83.261,13.275,129.089,17.203c19.732,1.669,55.799,5.184,108.139,10.626
	c8.149,0.816,44.271,3.302,108.372,7.526c0.296,0.026,25.556,2.055,75.915,6.062c29.173,2.352,79.788,5.664,151.916,9.922
	c31.65,1.885,64.222,4.498,97.493,7.874c56.09,5.646,117.591,9.558,184.489,11.66c7.185,0.241,14.438,0.471,21.683,0.629
	c56.533,1.567,96.394,2.801,119.586,3.772C1156.246,126.963,1196.957,125.562,1237.64,126.171L1237.64,126.171"/>
</svg>
