<?xml version="1.0" encoding="utf-8"?>
<!-- Generator: Adobe Illustrator 16.0.0, SVG Export Plug-In . SVG Version: 6.00 Build 0)  -->
<!DOCTYPE svg PUBLIC "-//W3C//DTD SVG 1.1//EN" "http://www.w3.org/Graphics/SVG/1.1/DTD/svg11.dtd">
<svg version="1.1" id="Layer_1" xmlns="http://www.w3.org/2000/svg" xmlns:xlink="http://www.w3.org/1999/xlink" x="0px" y="0px"
	 width="1534.646px" height="647.399px" viewBox="0 0 1534.646 647.399" enable-background="new 0 0 1534.646 647.399"
	 xml:space="preserve">
<path fill="none" stroke="#000000" stroke-linejoin="round" stroke-miterlimit="10" d="M1475.246,262.312
	c0.228,2.595,0.394,4.811-2.171,6.18c-1.846,0.986-4.113,0.925-6.104,1.487c-15.213,0.96-58.742,3.064-84.006,4.313
	c-45.526,2.25-89.197,4.317-131.08,6.174l-43.623,3.963c-23.504,1.042-52.396,4.945-76.219,6.111
	c-29.384,1.44-55.824,4.979-89.147,4.916c-10.771-0.022-66.733-3.441-107.048-9.724c-63.437-9.764-128.01-25.573-193.69-47.495
	c-19.026-6.333-44.077-16.023-75.243-29.027c-7.229-3.062-10.94-4.633-11.143-4.714c-16.564-6.663-54.16-29.59-80.509-45.656
	c-29.165-17.786-44.896-27.296-47.167-28.596c-14.771-8.426-30.271-18.31-46.534-29.586c-48.136-33.332-75.293-52.25-81.445-56.821
	c-13.498-9.854-25.461-18.314-36.049-25.367c-11.297-7.594-15.769-10.9-20.38-14.181c-8.388-5.96-6.044-6.958-13.945,5.176
	c-7.688,11.81-20.006,28.862-40.625,62.385c-13.814,22.381-25.021,40.748-33.894,55.334
	c-28.062,46.136-54.672,93.588-81.059,140.922c-32.921,59.059-62.166,117.5-95.104,182.76
	c-21.188,41.979-20.109,40.477-37.763,77.078c-21.907,45.42-34.523,77.432-40.828,93.377c-1.217,3.068-0.08,7.156,3.557,7.555
	c12.713,1.391,35.728,3.719,69.023,6.924c28.713,2.771,57.486,4.893,86.305,6.158c8.235,0.363,29.853,1.609,64.851,3.738
	c13.183,0.801,34.773,1.338,64.748,1.676c41.515,0.404,95.363-3.623,161.428-11.971c19.444-2.424,37.297-4.166,53.584-5.297
	c17.175-1.191,100.693-9.854,150.862-14.621c14.202-1.352,38.695-3.809,74.335-8.871c111.711-15.904,179.141-24.945,202.45-27.133
	c32.226-3.023,64.334-7.293,96.634-9.48c26.93-1.82,53.948-2.221,80.854-4.414c60.195-4.908,120.869-3.684,180.803-11.705
	c24.021-3.217,48.299-4.055,72.369-6.871c16.812-1.967,45.793-4.625,60.518-6.182c6.328-0.67,10.201-6.361,11.396-12.268
	c0,0,49.046-243.053,49.045-243.053c0.966-2.152,1.251-4.799,3.032-6.518c1.448-1.396,3.524-1.25,5.384-1.095
	c3.646,1.494,7.635,2.317,11.818,2.318c17.221,0,31.182-13.96,31.182-31.181c0-17.221-13.961-31.181-31.182-31.181
	s-31.182,13.96-31.182,31.181c0,4.749,1.062,9.25,2.961,13.279L1475.246,262.312z"/>
</svg>
