<?xml version="1.0" encoding="utf-8"?>
<!-- Generator: Adobe Illustrator 16.0.0, SVG Export Plug-In . SVG Version: 6.00 Build 0)  -->
<!DOCTYPE svg PUBLIC "-//W3C//DTD SVG 1.1//EN" "http://www.w3.org/Graphics/SVG/1.1/DTD/svg11.dtd">
<svg version="1.1" id="Layer_1" xmlns="http://www.w3.org/2000/svg" xmlns:xlink="http://www.w3.org/1999/xlink" x="0px" y="0px"
	 width="796.029px" height="754.047px" viewBox="0 0 796.029 754.047" enable-background="new 0 0 796.029 754.047"
	 xml:space="preserve">
<path d="M774.103,602.104c-15.301-36.19-32.469-80.11-51.508-131.758c-11.029-30.174-33.49-87.584-67.355-172.394
	c-4.457-11.191-25.723-65.207-63.789-162.048c-27.258-69.4-42.008-106.46-44.317-111.156c-2.31-4.696-4.031-7.842-5.324-9.462
	C534.091,5.248,521.194,0.183,503.16,0c-1.436,0.019-12.317,0.354-32.631,1.077c-24.522,0.825-46.225,1.474-65.188,1.903
	c-29.986,0.583-80.653,3.299-152.066,8.17c-20.996,1.403-42.742,2.599-65.104,3.543C98.382,18.583,26.681,28.781,11.89,34.503
	c-12.854,4.931-17.845,15.301-1.834,22.445c2.501,1.145,33.861,7.009,42.17,7.828c4.231,0.421,22.195,1.082,53.889,1.982
	c19.512,0.529,37.381,1.827,53.771,3.918c8.146,1.023,15.25,1.861,21.304,2.515c11.154,1.167,36.076,4.533,74.7,10.12
	c69.646,10.197,124.11,26.321,163.533,48.554c28.987,16.354,54.975,40.601,77.889,72.764c11.752,16.515,25.164,41.958,40.172,76.354
	c4.523,10.485,19.267,43.379,44.074,98.727c33.277,74.312,57.336,130.588,72.24,169.037c2.854,7.475,12.125,30.949,27.803,70.354
	c2.375,6.041,11.514,29.562,27.275,70.607c5.45,14.199,9.522,24.229,12.147,30.107c8.737,19.104,13.446,28.77,14.105,29.151
	l8.957,5.08c1.598-0.225,2.552-0.541,2.733-0.904l5.33-9.565l1.623-11.381c3.594-25.15,12.801-45.48,27.479-60.949l7.812-8.271
	c1.666-1.841,4.041-4.744,6.965-8.744C795.692,653.208,788.429,635.817,774.103,602.104z"/>
</svg>
