<?xml version="1.0" encoding="utf-8"?>
<!-- Generator: Adobe Illustrator 16.0.0, SVG Export Plug-In . SVG Version: 6.00 Build 0)  -->
<!DOCTYPE svg PUBLIC "-//W3C//DTD SVG 1.1//EN" "http://www.w3.org/Graphics/SVG/1.1/DTD/svg11.dtd">
<svg version="1.1" id="Layer_1" xmlns="http://www.w3.org/2000/svg" xmlns:xlink="http://www.w3.org/1999/xlink" x="0px" y="0px"
	 width="1454.748px" height="534.434px" viewBox="0 0 1454.748 534.434" enable-background="new 0 0 1454.748 534.434"
	 xml:space="preserve">
<path d="M1446.698,201.375l-110.014-47.02c-4.41-1.984-20.271-11.062-47.559-27.164c-25.894-15.197-37.918-24.233-49.787-56.337
	c-8.916,0.122-41.081,4.53-96.531,13.322c-41.352,6.514-95.297,10.858-161.989,12.864c-27.826,0.967-63.845,0.428-107.809-1.406
	c-10.781-0.429-21.474-0.817-32.357-1.124c-18.044-0.45-28.839-0.717-32.505-0.908l-10.854-0.399l-10.723,0.092l-10.688-0.938
	l-10.779-0.428l-10.788-0.814c-2.385-0.103-5.981-0.32-10.771-0.59l-10.68,0.388l-10.671-1.099
	c-0.122-0.104-3.706-0.097-10.783-0.428c-31.507-1.323-81.732-5.465-150.594-12.229c-46.062-4.627-113.5-14.165-202.27-28.479
	c-24.256-3.949-48.854-8.534-73.847-13.503l-10.472-2.116c-19.979-4.167-30.425-6.218-31.472-6.483
	c-17.404-3.602-38.395-7.192-63.407-10.903c-6.419-0.996-13.458-2.357-20.98-4.14C138.208,6.739,96.044-1.458,94.249,0.223
	L93.96,0.656c-0.146,0.216-0.789,3.914-2.173,11.274c-3.919,22.45-7.853,37.186-11.738,44.338
	c-6.167,11.61-13.959,19.687-23.516,24.83c-3.094,1.753-10.243,3.87-21.532,6.538C16.128,92.132,5.714,95.215,3.73,96.82
	c-4.268,3.803-4.879,7.956-1.809,12.527c0.939,1.324,3.88,3.144,9.207,5.45c2.221,1.026,15.953,4.984,41.214,12.102
	c34.887,9.821,82.706,24.867,143.811,45.229c31.381,10.576,64.943,23.598,100.229,39.256c13.155,5.758,36.328,15.538,69.182,29.09
	c42.531,17.713,83.812,39.146,124.097,64.578c28.284,17.945,43.364,27.582,45.241,28.906c28.593,20.002,51.39,37.502,68.094,52.545
	c22.429,19.992,43.201,40.127,62.315,60.404c7.486,7.881,12.51,13.201,15.017,15.668c2.292,2.321,16.926,18.383,43.938,48.086
	c10.958,12.285,19.079,19.436,24.067,21.494c4.479,1.959,7.951,2.619,10.473,2.116c1.828-0.297,7.867-4.521,17.973-12.854
	c33.145-26.807,39.915-31.338,80.991-57.623c31.521-20.205,83.899-47.448,156.897-81.551l9.938-4.604
	c13.403-6.199,26.854-12.104,40.527-17.479c40.963-16.258,68.393-26.809,82.34-31.518c61.646-21.271,99.991-34.256,114.896-38.734
	c53.68-16.242,91.875-29.397,114.674-39.271l68.896-24.573c5.144-1.833,8.637-6.631,8.805-12.088
	C1454.91,208.519,1451.717,203.521,1446.698,201.375z"/>
</svg>
