<?xml version="1.0" encoding="utf-8"?>
<!-- Generator: Adobe Illustrator 16.0.0, SVG Export Plug-In . SVG Version: 6.00 Build 0)  -->
<!DOCTYPE svg PUBLIC "-//W3C//DTD SVG 1.1//EN" "http://www.w3.org/Graphics/SVG/1.1/DTD/svg11.dtd">
<svg version="1.1" id="Layer_1" xmlns="http://www.w3.org/2000/svg" xmlns:xlink="http://www.w3.org/1999/xlink" x="0px" y="0px"
	 width="3115.04px" height="1085.193px" viewBox="0 0 3115.04 1085.193" enable-background="new 0 0 3115.04 1085.193"
	 xml:space="preserve">
<path fill="none" stroke="#000000" stroke-linejoin="round" stroke-miterlimit="10" d="M744.091,763.274
	c1.594-0.228,2.551-0.54,2.734-0.904l0,0l5.33-9.571l1.623-11.381l0,0c3.594-25.148,12.8-45.479,27.479-60.948l0,0l7.812-8.268l0,0
	c1.666-1.84,4.042-4.748,6.966-8.748c-0.338-1.024-7.604-18.416-21.928-52.128c-15.302-36.195-32.47-80.114-51.508-131.757
	c-11.029-30.175-33.491-87.586-67.356-172.396c-4.457-11.191-25.721-65.207-63.79-162.048
	c-27.257-69.4-42.007-106.46-44.317-111.156c-2.31-4.696-4.031-7.842-5.328-9.462c-7.715-10.038-20.608-15.103-38.644-15.286
	c-1.435,0.019-12.319,0.354-32.63,1.077c-24.523,0.825-46.227,1.474-65.19,1.903c-29.985,0.583-80.653,3.299-152.069,8.17
	c-20.996,1.403-42.742,2.599-65.104,3.543C98.382,27.805,26.681,38.002,11.89,43.725C-0.964,48.656-5.954,59.026,10.056,66.17
	c2.501,1.145,33.862,7.009,42.17,7.828c4.233,0.421,22.196,1.082,53.888,1.982c19.511,0.529,37.381,1.827,53.77,3.918
	c8.148,1.023,15.25,1.861,21.304,2.515c11.154,1.167,36.076,4.533,74.7,10.12c69.646,10.197,124.111,26.321,163.535,48.554
	c28.988,16.354,54.972,40.601,77.886,72.764c11.752,16.515,25.165,41.958,40.174,76.354c4.524,10.485,19.265,43.379,44.073,98.725
	c33.278,74.312,57.336,130.589,72.243,169.037c2.852,7.479,12.124,30.95,27.799,70.357c2.376,6.04,11.517,29.561,27.277,70.604
	c5.451,14.198,9.523,24.229,12.148,30.108c8.738,19.103,13.448,28.769,14.107,29.156l0,0L744.091,763.274L744.091,763.274
	 M1780.92,725.523c4.342-2.141,19.879-11.765,46.584-28.807c25.348-16.091,37.049-25.539,47.793-58.035
	c8.918-0.188,41.215,3.1,96.939,9.951c41.551,5.07,95.617,7.534,162.342,7.216c27.842-0.002,63.818-1.795,107.688-5.156
	c10.766-0.807,21.434-1.564,32.305-2.25c18.018-1.078,28.797-1.724,32.451-2.039l0,0l10.83-0.777l10.721-0.281l10.645-1.309
	l10.762-0.804l10.752-1.19l0,0c2.377-0.185,5.971-0.528,10.746-0.964l0,0l10.688,0.014l10.627-1.469l0,0
	c0.119-0.109,3.699-0.227,10.762-0.804c31.441-2.418,81.492-8.311,150.076-17.468c45.871-6.229,112.938-18.106,201.154-35.506
	c24.104-4.791,48.525-10.229,73.33-16.062l0,0l10.393-2.481l0,0c19.822-4.856,30.189-7.271,31.23-7.575
	c17.27-4.204,38.115-8.522,62.986-13.104c6.379-1.219,13.365-2.824,20.824-4.868c19.982-5.492,61.836-15.153,63.689-13.534l0,0
	l0.303,0.422l0,0c0.15,0.212,0.924,3.889,2.564,11.192c4.697,22.301,9.141,36.89,13.273,43.903
	c6.568,11.389,14.637,19.188,24.367,23.996c3.145,1.645,10.371,3.511,21.746,5.78c19.018,3.837,29.529,6.559,31.568,8.093
	c4.396,3.648,5.152,7.778,2.24,12.456c-0.893,1.354-3.768,3.273-9.01,5.769c-2.184,1.104-15.77,5.536-40.77,13.528
	c-34.521,11.026-81.789,27.729-142.146,50.209c-30.992,11.663-64.084,25.846-98.805,42.723
	c-12.945,6.213-35.764,16.794-68.121,31.479c-41.893,19.186-82.396,42.044-121.773,68.859
	c-27.643,18.921-42.379,29.076-44.207,30.465c-27.879,20.986-50.053,39.271-66.223,54.888
	c-21.719,20.76-41.777,41.604-60.176,62.534c-7.211,8.14-12.043,13.632-14.461,16.185c-2.211,2.397-16.275,18.96-42.238,49.586
	c-10.521,12.66-18.389,20.09-23.303,22.319c-4.41,2.109-7.855,2.896-10.393,2.479c-1.838-0.229-8.02-4.244-18.406-12.221
	c-34.057-25.639-40.98-29.932-82.951-54.771c-32.205-19.096-85.502-44.496-159.643-76.037l0,0l-10.094-4.252l0,0
	c-13.615-5.729-27.264-11.162-41.113-16.058c-41.504-14.819-69.283-24.407-83.389-28.628
	c-62.352-19.112-101.123-30.753-116.172-34.714c-54.211-14.362-92.848-26.183-115.975-35.252l0,0l-69.711-22.159l0,0
	c-5.203-1.654-8.859-6.327-9.221-11.775c-0.357-5.446,2.658-10.559,7.605-12.877l0,0L1780.92,725.523L1780.92,725.523
	 M1812.864,585.417c-15.492-15.045-32.045-28.957-47.543-43.996c-22.422-21.758-42.32-42.375-59.695-61.852
	c-28.508-31.957-61.877-69.362-84.182-97.043c-35.422-43.96-59.568-74.844-72.52-92.792c-25.262-35.011-52.635-72.946-74.84-105.706
	c-16.15-23.829-34.289-46.263-50.122-70.312l0,0l-5.977-9.077l-9.146-5.489l0,0c-2.696-1.635-10.582,2.68-23.581,12.869l0,0
	l-8.871,6.974l-10.867,2.698l0,0c-3.273-1.599-6.352-3.499-9.157-5.705c-1.896-1.469-7.117-6.553-15.452-15.267
	c-30.46-31.5-45.864-41.361-111.114-65.064c-24.881-9.124-49.456-15.67-73.798-19.635c-34.551-5.708-59.8-9.182-75.762-10.639
	c-10.521-0.931-50.59-2.615-120.133-4.913c-25.158-0.884-54.279-0.51-87.513,1.06c-9.352,0.438-34.839,1.235-76.541,2.322
	c-10.729,0.309-47.116,2.146-109.232,5.516c-14.521,0.833-29.13,1.384-43.686,1.716c-34.726,0.723-54.399,3.321-59.034,7.722l0,0
	l-8.576,8.183l-0.788,11.663l4.229,9.979l0,0c18.37,43.345,34.022,87.769,51.275,131.56
	c24.432,62.011,108.641,283.958,162.563,426.088c11.312,29.81,18.409,46.463,21.216,49.82c7.259,8.781,17.794,10,18.434,9.816l0,0
	l9.938-2.568l0,0c8.587-2.268,29.312-3.127,62.028-2.499c43.599,0.837,101.174,1.941,130.693,5.408
	c50.556,5.938,112.191,13.177,151.326,20.426c60.737,11.251,121.973,19.822,182.446,32.479
	c42.69,8.936,85.354,18.013,127.952,27.365c35.507,7.797,71.108,15.165,106.557,23.219c11.709,2.66,18.861,4.018,21.395,4.146
	c3.98,0.188,7.143-0.013,9.342-0.582c4.189-1.057,19.012-10.995,44.447-29.896c17.375-12.915,40.65-29.516,69.828-49.805
	c20.549-14.289,40.738-29.104,60.178-44.875l0,0l37.854-30.709L1812.864,585.417L1812.864,585.417"/>
</svg>
