<?xml version="1.0" encoding="utf-8"?>
<!-- Generator: Adobe Illustrator 16.0.0, SVG Export Plug-In . SVG Version: 6.00 Build 0)  -->
<!DOCTYPE svg PUBLIC "-//W3C//DTD SVG 1.1//EN" "http://www.w3.org/Graphics/SVG/1.1/DTD/svg11.dtd">
<svg version="1.1" id="Layer_1" xmlns="http://www.w3.org/2000/svg" xmlns:xlink="http://www.w3.org/1999/xlink" x="0px" y="0px"
	 width="3139.479px" height="1087.961px" viewBox="0 0 3139.479 1087.961" enable-background="new 0 0 3139.479 1087.961"
	 xml:space="preserve">
<path fill="none" stroke="#000001" stroke-linejoin="round" stroke-miterlimit="10" d="M1353.112,628.663
	c3.719,0,6.731,3.014,6.731,6.729c0,3.719-3.015,6.731-6.731,6.731s-6.729-3.014-6.729-6.731
	C1346.381,631.677,1349.395,628.663,1353.112,628.663z M1353.112,576.663c3.719,0,6.731,3.014,6.731,6.729
	c0,3.719-3.015,6.731-6.731,6.731s-6.729-3.014-6.729-6.731C1346.381,579.677,1349.395,576.663,1353.112,576.663z M1409.682,680.663
	c3.717,0,6.729,3.014,6.729,6.729c0,3.719-3.014,6.731-6.729,6.731c-3.718,0-6.731-3.014-6.731-6.731
	C1402.949,683.677,1405.964,680.663,1409.682,680.663z M1409.682,628.663c3.717,0,6.729,3.014,6.729,6.729
	c0,3.719-3.014,6.731-6.729,6.731c-3.718,0-6.731-3.014-6.731-6.731C1402.949,631.677,1405.964,628.663,1409.682,628.663z
	 M1409.682,576.663c3.717,0,6.729,3.014,6.729,6.729c0,3.719-3.014,6.731-6.729,6.731c-3.718,0-6.731-3.014-6.731-6.731
	C1402.949,579.677,1405.964,576.663,1409.682,576.663z M1409.682,524.664c3.717,0,6.729,3.014,6.729,6.729
	c0,3.719-3.014,6.731-6.729,6.731c-3.718,0-6.731-3.014-6.731-6.731C1402.949,527.678,1405.964,524.664,1409.682,524.664z
	 M1466.252,680.663c3.717,0,6.729,3.014,6.729,6.729c0,3.719-3.014,6.731-6.729,6.731c-3.719,0-6.731-3.014-6.731-6.731
	C1459.521,683.677,1462.533,680.663,1466.252,680.663z M1466.252,628.663c3.717,0,6.729,3.014,6.729,6.729
	c0,3.719-3.014,6.731-6.729,6.731c-3.719,0-6.731-3.014-6.731-6.731C1459.521,631.677,1462.533,628.663,1466.252,628.663z
	 M1466.252,576.663c3.717,0,6.729,3.014,6.729,6.729c0,3.719-3.014,6.731-6.729,6.731c-3.719,0-6.731-3.014-6.731-6.731
	C1459.521,579.677,1462.533,576.663,1466.252,576.663z M1466.252,524.664c3.717,0,6.729,3.014,6.729,6.729
	c0,3.719-3.014,6.731-6.729,6.731c-3.719,0-6.731-3.014-6.731-6.731C1459.521,527.678,1462.533,524.664,1466.252,524.664z
	 M1466.252,472.664c3.717,0,6.729,3.014,6.729,6.729c0,3.719-3.014,6.731-6.729,6.731c-3.719,0-6.731-3.014-6.731-6.731
	C1459.521,475.678,1462.533,472.664,1466.252,472.664z M1522.823,732.663c3.719,0,6.731,3.014,6.731,6.729
	c0,3.719-3.015,6.731-6.731,6.731s-6.729-3.014-6.729-6.731C1516.092,735.677,1519.106,732.663,1522.823,732.663z M1522.823,680.663
	c3.719,0,6.731,3.014,6.731,6.729c0,3.719-3.015,6.731-6.731,6.731s-6.729-3.014-6.729-6.731
	C1516.092,683.677,1519.106,680.663,1522.823,680.663z M1522.823,628.663c3.719,0,6.731,3.014,6.731,6.729
	c0,3.719-3.015,6.731-6.731,6.731s-6.729-3.014-6.729-6.731C1516.092,631.677,1519.106,628.663,1522.823,628.663z M1522.823,576.663
	c3.719,0,6.731,3.014,6.731,6.729c0,3.719-3.015,6.731-6.731,6.731s-6.729-3.014-6.729-6.731
	C1516.092,579.677,1519.106,576.663,1522.823,576.663z M1522.823,524.664c3.719,0,6.731,3.014,6.731,6.729
	c0,3.719-3.015,6.731-6.731,6.731s-6.729-3.014-6.729-6.731C1516.092,527.678,1519.106,524.664,1522.823,524.664z M1522.823,472.664
	c3.719,0,6.731,3.014,6.731,6.729c0,3.719-3.015,6.731-6.731,6.731s-6.729-3.014-6.729-6.731
	C1516.092,475.678,1519.106,472.664,1522.823,472.664z M1522.823,420.664c3.719,0,6.731,3.014,6.731,6.729
	c0,3.719-3.015,6.731-6.731,6.731s-6.729-3.014-6.729-6.731C1516.092,423.678,1519.106,420.664,1522.823,420.664z M1579.393,694.125
	c-3.719,0-6.73-3.014-6.73-6.732c0-3.717,3.018-6.729,6.73-6.729c3.721,0,6.732,3.014,6.732,6.729
	C1586.125,691.112,1583.111,694.125,1579.393,694.125z M1579.393,642.125c-3.719,0-6.73-3.014-6.73-6.732
	c0-3.717,3.018-6.729,6.73-6.729c3.721,0,6.732,3.014,6.732,6.729C1586.125,639.112,1583.111,642.125,1579.393,642.125z
	 M1579.393,590.125c-3.719,0-6.73-3.014-6.73-6.732c0-3.717,3.018-6.729,6.73-6.729c3.721,0,6.732,3.014,6.732,6.729
	C1586.125,587.112,1583.111,590.125,1579.393,590.125z M1579.393,538.126c-3.719,0-6.73-3.015-6.73-6.732
	c0-3.717,3.018-6.729,6.73-6.729c3.721,0,6.732,3.015,6.732,6.729C1586.125,535.111,1583.111,538.126,1579.393,538.126z
	 M1579.393,486.126c-3.719,0-6.73-3.015-6.73-6.732c0-3.717,3.018-6.729,6.73-6.729c3.721,0,6.732,3.015,6.732,6.729
	C1586.125,483.111,1583.111,486.126,1579.393,486.126z M1579.393,434.126c-3.719,0-6.73-3.015-6.73-6.732
	c0-3.717,3.018-6.729,6.73-6.729c3.721,0,6.732,3.015,6.732,6.729C1586.125,431.111,1583.111,434.126,1579.393,434.126z
	 M1579.393,382.126c-3.719,0-6.73-3.014-6.73-6.732c0-3.718,3.018-6.731,6.73-6.731c3.721,0,6.732,3.014,6.732,6.731
	C1586.125,379.112,1583.111,382.126,1579.393,382.126z M1579.393,330.126c-3.719,0-6.73-3.014-6.73-6.732
	c0-3.718,3.018-6.731,6.73-6.731c3.721,0,6.732,3.014,6.732,6.731C1586.125,327.112,1583.111,330.126,1579.393,330.126z
	 M1635.963,680.663c3.717,0,6.729,3.014,6.729,6.729c0,3.719-3.014,6.731-6.729,6.731c-3.719,0-6.731-3.014-6.731-6.731
	C1629.232,683.677,1632.244,680.663,1635.963,680.663z M1635.963,628.663c3.717,0,6.729,3.014,6.729,6.729
	c0,3.719-3.014,6.731-6.729,6.731c-3.719,0-6.731-3.014-6.731-6.731C1629.232,631.677,1632.244,628.663,1635.963,628.663z
	 M1635.963,576.663c3.717,0,6.729,3.014,6.729,6.729c0,3.719-3.014,6.731-6.729,6.731c-3.719,0-6.731-3.014-6.731-6.731
	C1629.232,579.677,1632.244,576.663,1635.963,576.663z M1635.963,524.664c3.717,0,6.729,3.014,6.729,6.729
	c0,3.719-3.014,6.731-6.729,6.731c-3.719,0-6.731-3.014-6.731-6.731C1629.232,527.678,1632.244,524.664,1635.963,524.664z
	 M1635.963,472.664c3.717,0,6.729,3.014,6.729,6.729c0,3.719-3.014,6.731-6.729,6.731c-3.719,0-6.731-3.014-6.731-6.731
	C1629.232,475.678,1632.244,472.664,1635.963,472.664z M1635.963,420.664c3.717,0,6.729,3.014,6.729,6.729
	c0,3.719-3.014,6.731-6.729,6.731c-3.719,0-6.731-3.014-6.731-6.731C1629.232,423.678,1632.244,420.664,1635.963,420.664z
	 M1635.963,368.662c3.718,0,6.73,3.014,6.73,6.732c0,3.718-3.014,6.732-6.73,6.732c-3.72,0-6.732-3.014-6.732-6.732
	C1629.231,371.676,1632.243,368.662,1635.963,368.662z M1635.963,316.662c3.718,0,6.73,3.014,6.73,6.732
	c0,3.718-3.014,6.732-6.73,6.732c-3.72,0-6.732-3.014-6.732-6.732C1629.231,319.676,1632.243,316.662,1635.963,316.662z
	 M1635.963,264.662c3.718,0,6.73,3.014,6.73,6.732c0,3.718-3.014,6.732-6.73,6.732c-3.72,0-6.732-3.014-6.732-6.732
	C1629.231,267.676,1632.243,264.662,1635.963,264.662z M1692.531,680.663c3.718,0,6.731,3.014,6.731,6.729
	c0,3.719-3.015,6.731-6.731,6.731s-6.729-3.014-6.729-6.731C1685.8,683.677,1688.814,680.663,1692.531,680.663z M1692.531,628.663
	c3.718,0,6.731,3.014,6.731,6.729c0,3.719-3.015,6.731-6.731,6.731s-6.729-3.014-6.729-6.731
	C1685.8,631.677,1688.814,628.663,1692.531,628.663z M1692.531,576.663c3.718,0,6.731,3.014,6.731,6.729
	c0,3.719-3.015,6.731-6.731,6.731s-6.729-3.014-6.729-6.731C1685.8,579.677,1688.814,576.663,1692.531,576.663z M1692.531,524.664
	c3.718,0,6.731,3.014,6.731,6.729c0,3.719-3.015,6.731-6.731,6.731s-6.729-3.014-6.729-6.731
	C1685.8,527.678,1688.814,524.664,1692.531,524.664z M1692.531,472.664c3.718,0,6.731,3.014,6.731,6.729
	c0,3.719-3.015,6.731-6.731,6.731s-6.729-3.014-6.729-6.731C1685.8,475.678,1688.814,472.664,1692.531,472.664z M1692.531,420.664
	c3.718,0,6.731,3.014,6.731,6.729c0,3.719-3.015,6.731-6.731,6.731s-6.729-3.014-6.729-6.731
	C1685.8,423.678,1688.814,420.664,1692.531,420.664z M1692.531,368.662c3.718,0,6.732,3.014,6.732,6.732
	c0,3.718-3.015,6.732-6.732,6.732c-3.717,0-6.73-3.014-6.73-6.732C1685.799,371.676,1688.813,368.662,1692.531,368.662z
	 M1692.531,316.662c3.718,0,6.732,3.014,6.732,6.732c0,3.718-3.015,6.732-6.732,6.732c-3.717,0-6.73-3.014-6.73-6.732
	C1685.799,319.676,1688.813,316.662,1692.531,316.662z M1692.531,264.662c3.718,0,6.732,3.014,6.732,6.732
	c0,3.718-3.015,6.732-6.732,6.732c-3.717,0-6.73-3.014-6.73-6.732C1685.799,267.676,1688.813,264.662,1692.531,264.662z
	 M1692.531,212.662c3.718,0,6.732,3.014,6.732,6.732c0,3.718-3.015,6.732-6.732,6.732c-3.717,0-6.73-3.014-6.73-6.732
	C1685.799,215.676,1688.813,212.662,1692.531,212.662z M1692.531,160.662c3.718,0,6.732,3.014,6.732,6.732
	c0,3.718-3.015,6.732-6.732,6.732c-3.717,0-6.73-3.014-6.73-6.732C1685.799,163.676,1688.813,160.662,1692.531,160.662z
	 M1749.104,680.663c3.718,0,6.73,3.014,6.73,6.729c0,3.719-3.014,6.731-6.73,6.731s-6.73-3.014-6.73-6.731
	C1742.373,683.677,1745.386,680.663,1749.104,680.663z M1749.104,628.663c3.718,0,6.73,3.014,6.73,6.729
	c0,3.719-3.014,6.731-6.73,6.731s-6.73-3.014-6.73-6.731C1742.373,631.677,1745.386,628.663,1749.104,628.663z M1749.104,576.663
	c3.718,0,6.73,3.014,6.73,6.729c0,3.719-3.014,6.731-6.73,6.731s-6.73-3.014-6.73-6.731
	C1742.373,579.677,1745.386,576.663,1749.104,576.663z M1749.104,524.664c3.718,0,6.73,3.014,6.73,6.729
	c0,3.719-3.014,6.731-6.73,6.731s-6.73-3.014-6.73-6.731C1742.373,527.678,1745.386,524.664,1749.104,524.664z M1749.104,472.664
	c3.718,0,6.73,3.014,6.73,6.729c0,3.719-3.014,6.731-6.73,6.731s-6.73-3.014-6.73-6.731
	C1742.373,475.678,1745.386,472.664,1749.104,472.664z M1749.104,420.664c3.718,0,6.73,3.014,6.73,6.729
	c0,3.719-3.014,6.731-6.73,6.731s-6.73-3.014-6.73-6.731C1742.373,423.678,1745.386,420.664,1749.104,420.664z M1749.104,368.662
	c3.718,0,6.732,3.014,6.732,6.732c0,3.718-3.016,6.732-6.732,6.732s-6.732-3.014-6.732-6.732
	C1742.37,371.676,1745.386,368.662,1749.104,368.662z M1749.104,316.662c3.718,0,6.732,3.014,6.732,6.732
	c0,3.718-3.016,6.732-6.732,6.732s-6.732-3.014-6.732-6.732C1742.37,319.676,1745.386,316.662,1749.104,316.662z M1749.104,264.662
	c3.718,0,6.732,3.014,6.732,6.732c0,3.718-3.016,6.732-6.732,6.732s-6.732-3.014-6.732-6.732
	C1742.37,267.676,1745.386,264.662,1749.104,264.662z M1749.104,212.662c3.718,0,6.732,3.014,6.732,6.732
	c0,3.718-3.016,6.732-6.732,6.732s-6.732-3.014-6.732-6.732C1742.37,215.676,1745.386,212.662,1749.104,212.662z M1749.104,160.662
	c3.718,0,6.732,3.014,6.732,6.732c0,3.718-3.016,6.732-6.732,6.732s-6.732-3.014-6.732-6.732
	C1742.37,163.676,1745.386,160.662,1749.104,160.662z M1805.674,680.663c3.717,0,6.729,3.014,6.729,6.729
	c0,3.719-3.014,6.731-6.729,6.731c-3.719,0-6.731-3.014-6.731-6.731C1798.943,683.677,1801.955,680.663,1805.674,680.663z
	 M1805.674,628.663c3.717,0,6.729,3.014,6.729,6.729c0,3.719-3.014,6.731-6.729,6.731c-3.719,0-6.731-3.014-6.731-6.731
	C1798.943,631.677,1801.955,628.663,1805.674,628.663z M1805.674,576.663c3.717,0,6.729,3.014,6.729,6.729
	c0,3.719-3.014,6.731-6.729,6.731c-3.719,0-6.731-3.014-6.731-6.731C1798.943,579.677,1801.955,576.663,1805.674,576.663z
	 M1805.674,524.664c3.717,0,6.729,3.014,6.729,6.729c0,3.719-3.014,6.731-6.729,6.731c-3.719,0-6.731-3.014-6.731-6.731
	C1798.943,527.678,1801.955,524.664,1805.674,524.664z M1805.674,472.664c3.717,0,6.729,3.014,6.729,6.729
	c0,3.719-3.014,6.731-6.729,6.731c-3.719,0-6.731-3.014-6.731-6.731C1798.943,475.678,1801.955,472.664,1805.674,472.664z
	 M1805.674,420.664c3.717,0,6.729,3.014,6.729,6.729c0,3.719-3.014,6.731-6.729,6.731c-3.719,0-6.731-3.014-6.731-6.731
	C1798.943,423.678,1801.955,420.664,1805.674,420.664z M1805.674,368.662c3.718,0,6.73,3.014,6.73,6.732
	c0,3.718-3.014,6.732-6.73,6.732c-3.72,0-6.732-3.014-6.732-6.732C1798.942,371.676,1801.954,368.662,1805.674,368.662z
	 M1805.674,316.662c3.718,0,6.73,3.014,6.73,6.732c0,3.718-3.014,6.732-6.73,6.732c-3.72,0-6.732-3.014-6.732-6.732
	C1798.942,319.676,1801.954,316.662,1805.674,316.662z M1805.674,264.662c3.718,0,6.73,3.014,6.73,6.732
	c0,3.718-3.014,6.732-6.73,6.732c-3.72,0-6.732-3.014-6.732-6.732C1798.942,267.676,1801.954,264.662,1805.674,264.662z
	 M1805.674,212.662c3.718,0,6.73,3.014,6.73,6.732c0,3.718-3.014,6.732-6.73,6.732c-3.72,0-6.732-3.014-6.732-6.732
	C1798.942,215.676,1801.954,212.662,1805.674,212.662z M1805.674,160.662c3.718,0,6.73,3.014,6.73,6.732
	c0,3.718-3.014,6.732-6.73,6.732c-3.72,0-6.732-3.014-6.732-6.732C1798.942,163.676,1801.954,160.662,1805.674,160.662z
	 M1805.674,108.662c3.718,0,6.73,3.014,6.73,6.732c0,3.718-3.014,6.732-6.73,6.732c-3.72,0-6.732-3.014-6.732-6.732
	C1798.942,111.676,1801.954,108.662,1805.674,108.662z M1862.24,628.663c3.718,0,6.731,3.014,6.731,6.729
	c0,3.719-3.015,6.731-6.731,6.731s-6.729-3.014-6.729-6.731C1855.51,631.677,1858.524,628.663,1862.24,628.663z M1862.24,576.663
	c3.718,0,6.731,3.014,6.731,6.729c0,3.719-3.015,6.731-6.731,6.731s-6.729-3.014-6.729-6.731
	C1855.51,579.677,1858.524,576.663,1862.24,576.663z M1862.24,524.664c3.718,0,6.731,3.014,6.731,6.729
	c0,3.719-3.015,6.731-6.731,6.731s-6.729-3.014-6.729-6.731C1855.51,527.678,1858.524,524.664,1862.24,524.664z M1862.24,472.664
	c3.718,0,6.731,3.014,6.731,6.729c0,3.719-3.015,6.731-6.731,6.731s-6.729-3.014-6.729-6.731
	C1855.51,475.678,1858.524,472.664,1862.24,472.664z M1862.24,420.664c3.718,0,6.731,3.014,6.731,6.729
	c0,3.719-3.015,6.731-6.731,6.731s-6.729-3.014-6.729-6.731C1855.51,423.678,1858.524,420.664,1862.24,420.664z M1862.24,368.662
	c3.72,0,6.732,3.014,6.732,6.732c0,3.718-3.015,6.732-6.732,6.732s-6.73-3.014-6.73-6.732
	C1855.509,371.676,1858.523,368.662,1862.24,368.662z M1862.24,316.662c3.72,0,6.732,3.014,6.732,6.732
	c0,3.718-3.015,6.732-6.732,6.732s-6.73-3.014-6.73-6.732C1855.509,319.676,1858.523,316.662,1862.24,316.662z M1862.24,264.662
	c3.72,0,6.732,3.014,6.732,6.732c0,3.718-3.015,6.732-6.732,6.732s-6.73-3.014-6.73-6.732
	C1855.509,267.676,1858.523,264.662,1862.24,264.662z M1862.24,212.662c3.72,0,6.732,3.014,6.732,6.732
	c0,3.718-3.015,6.732-6.732,6.732s-6.73-3.014-6.73-6.732C1855.509,215.676,1858.523,212.662,1862.24,212.662z M1862.24,160.662
	c3.72,0,6.732,3.014,6.732,6.732c0,3.718-3.015,6.732-6.732,6.732s-6.73-3.014-6.73-6.732
	C1855.509,163.676,1858.523,160.662,1862.24,160.662z M1862.24,108.662c3.72,0,6.732,3.014,6.732,6.732
	c0,3.718-3.015,6.732-6.732,6.732s-6.73-3.014-6.73-6.732C1855.509,111.676,1858.523,108.662,1862.24,108.662z M1862.24,56.662
	c3.72,0,6.732,3.014,6.732,6.732c0,3.718-3.015,6.732-6.732,6.732s-6.73-3.014-6.73-6.732
	C1855.509,59.676,1858.523,56.662,1862.24,56.662z M1918.814,628.663c3.718,0,6.731,3.014,6.731,6.729
	c0,3.719-3.015,6.731-6.731,6.731s-6.731-3.014-6.731-6.731C1912.082,631.677,1915.096,628.663,1918.814,628.663z M1918.814,576.663
	c3.718,0,6.731,3.014,6.731,6.729c0,3.719-3.015,6.731-6.731,6.731s-6.731-3.014-6.731-6.731
	C1912.082,579.677,1915.096,576.663,1918.814,576.663z M1918.814,524.664c3.718,0,6.731,3.014,6.731,6.729
	c0,3.719-3.015,6.731-6.731,6.731s-6.731-3.014-6.731-6.731C1912.082,527.678,1915.096,524.664,1918.814,524.664z M1918.814,472.664
	c3.718,0,6.731,3.014,6.731,6.729c0,3.719-3.015,6.731-6.731,6.731s-6.731-3.014-6.731-6.731
	C1912.082,475.678,1915.096,472.664,1918.814,472.664z M1918.814,420.664c3.718,0,6.731,3.014,6.731,6.729
	c0,3.719-3.015,6.731-6.731,6.731s-6.731-3.014-6.731-6.731C1912.082,423.678,1915.096,420.664,1918.814,420.664z M1918.814,368.662
	c3.718,0,6.732,3.014,6.732,6.732c0,3.718-3.016,6.732-6.732,6.732s-6.732-3.014-6.732-6.732
	C1912.08,371.676,1915.096,368.662,1918.814,368.662z M1918.814,316.662c3.718,0,6.732,3.014,6.732,6.732
	c0,3.718-3.016,6.732-6.732,6.732s-6.732-3.014-6.732-6.732C1912.08,319.676,1915.096,316.662,1918.814,316.662z M1918.814,264.662
	c3.718,0,6.732,3.014,6.732,6.732c0,3.718-3.016,6.732-6.732,6.732s-6.732-3.014-6.732-6.732
	C1912.08,267.676,1915.096,264.662,1918.814,264.662z M1918.814,212.662c3.718,0,6.732,3.014,6.732,6.732
	c0,3.718-3.016,6.732-6.732,6.732s-6.732-3.014-6.732-6.732C1912.08,215.676,1915.096,212.662,1918.814,212.662z M1918.814,160.662
	c3.718,0,6.732,3.014,6.732,6.732c0,3.718-3.016,6.732-6.732,6.732s-6.732-3.014-6.732-6.732
	C1912.08,163.676,1915.096,160.662,1918.814,160.662z M1918.814,108.662c3.718,0,6.732,3.014,6.732,6.732
	c0,3.718-3.016,6.732-6.732,6.732s-6.732-3.014-6.732-6.732C1912.08,111.676,1915.096,108.662,1918.814,108.662z M1918.814,56.662
	c3.718,0,6.732,3.014,6.732,6.732c0,3.718-3.016,6.732-6.732,6.732s-6.732-3.014-6.732-6.732
	C1912.08,59.676,1915.096,56.662,1918.814,56.662z M1975.385,628.663c3.717,0,6.729,3.014,6.729,6.729
	c0,3.719-3.014,6.731-6.729,6.731c-3.719,0-6.731-3.014-6.731-6.731C1968.654,631.677,1971.666,628.663,1975.385,628.663z
	 M1975.385,576.663c3.717,0,6.729,3.014,6.729,6.729c0,3.719-3.014,6.731-6.729,6.731c-3.719,0-6.731-3.014-6.731-6.731
	C1968.654,579.677,1971.666,576.663,1975.385,576.663z M1975.385,524.664c3.717,0,6.729,3.014,6.729,6.729
	c0,3.719-3.014,6.731-6.729,6.731c-3.719,0-6.731-3.014-6.731-6.731C1968.654,527.678,1971.666,524.664,1975.385,524.664z
	 M1975.385,472.664c3.717,0,6.729,3.014,6.729,6.729c0,3.719-3.014,6.731-6.729,6.731c-3.719,0-6.731-3.014-6.731-6.731
	C1968.654,475.678,1971.666,472.664,1975.385,472.664z M1975.385,420.664c3.717,0,6.729,3.014,6.729,6.729
	c0,3.719-3.014,6.731-6.729,6.731c-3.719,0-6.731-3.014-6.731-6.731C1968.654,423.678,1971.666,420.664,1975.385,420.664z
	 M1975.385,368.662c3.718,0,6.73,3.014,6.73,6.732c0,3.718-3.014,6.732-6.73,6.732c-3.719,0-6.732-3.014-6.732-6.732
	C1968.653,371.676,1971.666,368.662,1975.385,368.662z M1975.385,316.662c3.718,0,6.73,3.014,6.73,6.732
	c0,3.718-3.014,6.732-6.73,6.732c-3.719,0-6.732-3.014-6.732-6.732C1968.653,319.676,1971.666,316.662,1975.385,316.662z
	 M1975.385,264.662c3.718,0,6.73,3.014,6.73,6.732c0,3.718-3.014,6.732-6.73,6.732c-3.719,0-6.732-3.014-6.732-6.732
	C1968.653,267.676,1971.666,264.662,1975.385,264.662z M1975.385,212.662c3.718,0,6.73,3.014,6.73,6.732
	c0,3.718-3.014,6.732-6.73,6.732c-3.719,0-6.732-3.014-6.732-6.732C1968.653,215.676,1971.666,212.662,1975.385,212.662z
	 M1975.385,160.662c3.718,0,6.73,3.014,6.73,6.732c0,3.718-3.014,6.732-6.73,6.732c-3.719,0-6.732-3.014-6.732-6.732
	C1968.653,163.676,1971.666,160.662,1975.385,160.662z M1975.385,108.662c3.718,0,6.73,3.014,6.73,6.732
	c0,3.718-3.014,6.732-6.73,6.732c-3.719,0-6.732-3.014-6.732-6.732C1968.653,111.676,1971.666,108.662,1975.385,108.662z
	 M1975.385,56.662c3.718,0,6.73,3.014,6.73,6.732c0,3.718-3.014,6.732-6.73,6.732c-3.719,0-6.732-3.014-6.732-6.732
	C1968.653,59.676,1971.666,56.662,1975.385,56.662z M2031.95,628.663c3.719,0,6.731,3.014,6.731,6.729
	c0,3.719-3.014,6.731-6.731,6.731c-3.717,0-6.729-3.014-6.729-6.731C2025.221,631.677,2028.235,628.663,2031.95,628.663z
	 M2031.95,576.663c3.719,0,6.731,3.014,6.731,6.729c0,3.719-3.014,6.731-6.731,6.731c-3.717,0-6.729-3.014-6.729-6.731
	C2025.221,579.677,2028.235,576.663,2031.95,576.663z M2031.95,524.664c3.719,0,6.731,3.014,6.731,6.729
	c0,3.719-3.014,6.731-6.731,6.731c-3.717,0-6.729-3.014-6.729-6.731C2025.221,527.678,2028.235,524.664,2031.95,524.664z
	 M2031.95,472.664c3.719,0,6.731,3.014,6.731,6.729c0,3.719-3.014,6.731-6.731,6.731c-3.717,0-6.729-3.014-6.729-6.731
	C2025.221,475.678,2028.235,472.664,2031.95,472.664z M2031.95,420.664c3.719,0,6.731,3.014,6.731,6.729
	c0,3.719-3.014,6.731-6.731,6.731c-3.717,0-6.729-3.014-6.729-6.731C2025.221,423.678,2028.235,420.664,2031.95,420.664z
	 M2031.95,368.662c3.72,0,6.732,3.014,6.732,6.732c0,3.718-3.014,6.732-6.732,6.732c-3.718,0-6.73-3.014-6.73-6.732
	C2025.22,371.676,2028.234,368.662,2031.95,368.662z M2031.95,316.662c3.72,0,6.732,3.014,6.732,6.732
	c0,3.718-3.014,6.732-6.732,6.732c-3.718,0-6.73-3.014-6.73-6.732C2025.22,319.676,2028.234,316.662,2031.95,316.662z
	 M2031.95,264.662c3.72,0,6.732,3.014,6.732,6.732c0,3.718-3.014,6.732-6.732,6.732c-3.718,0-6.73-3.014-6.73-6.732
	C2025.22,267.676,2028.234,264.662,2031.95,264.662z M2031.95,212.662c3.72,0,6.732,3.014,6.732,6.732
	c0,3.718-3.014,6.732-6.732,6.732c-3.718,0-6.73-3.014-6.73-6.732C2025.22,215.676,2028.234,212.662,2031.95,212.662z
	 M2031.95,160.662c3.72,0,6.732,3.014,6.732,6.732c0,3.718-3.014,6.732-6.732,6.732c-3.718,0-6.73-3.014-6.73-6.732
	C2025.22,163.676,2028.234,160.662,2031.95,160.662z M2031.95,108.662c3.72,0,6.732,3.014,6.732,6.732
	c0,3.718-3.014,6.732-6.732,6.732c-3.718,0-6.73-3.014-6.73-6.732C2025.22,111.676,2028.234,108.662,2031.95,108.662z
	 M2031.95,56.662c3.72,0,6.732,3.014,6.732,6.732c0,3.718-3.014,6.732-6.732,6.732c-3.718,0-6.73-3.014-6.73-6.732
	C2025.22,59.676,2028.234,56.662,2031.95,56.662z M2088.525,628.663c3.718,0,6.731,3.014,6.731,6.729
	c0,3.719-3.015,6.731-6.731,6.731s-6.731-3.014-6.731-6.731C2081.793,631.677,2084.807,628.663,2088.525,628.663z M2088.525,576.663
	c3.718,0,6.731,3.014,6.731,6.729c0,3.719-3.015,6.731-6.731,6.731s-6.731-3.014-6.731-6.731
	C2081.793,579.677,2084.807,576.663,2088.525,576.663z M2088.525,524.664c3.718,0,6.731,3.014,6.731,6.729
	c0,3.719-3.015,6.731-6.731,6.731s-6.731-3.014-6.731-6.731C2081.793,527.678,2084.807,524.664,2088.525,524.664z M2088.525,472.664
	c3.718,0,6.731,3.014,6.731,6.729c0,3.719-3.015,6.731-6.731,6.731s-6.731-3.014-6.731-6.731
	C2081.793,475.678,2084.807,472.664,2088.525,472.664z M2088.525,420.664c3.718,0,6.731,3.014,6.731,6.729
	c0,3.719-3.015,6.731-6.731,6.731s-6.731-3.014-6.731-6.731C2081.793,423.678,2084.807,420.664,2088.525,420.664z M2088.525,368.662
	c3.718,0,6.731,3.014,6.731,6.732c0,3.718-3.015,6.732-6.731,6.732s-6.731-3.014-6.731-6.732
	C2081.793,371.676,2084.807,368.662,2088.525,368.662z M2088.525,316.662c3.718,0,6.731,3.014,6.731,6.732
	c0,3.718-3.015,6.732-6.731,6.732s-6.731-3.014-6.731-6.732C2081.793,319.676,2084.807,316.662,2088.525,316.662z M2088.525,264.662
	c3.718,0,6.731,3.014,6.731,6.732c0,3.718-3.015,6.732-6.731,6.732s-6.731-3.014-6.731-6.732
	C2081.793,267.676,2084.807,264.662,2088.525,264.662z M2088.525,212.662c3.718,0,6.731,3.014,6.731,6.732
	c0,3.718-3.015,6.732-6.731,6.732s-6.731-3.014-6.731-6.732C2081.793,215.676,2084.807,212.662,2088.525,212.662z M2088.525,160.662
	c3.718,0,6.731,3.014,6.731,6.732c0,3.718-3.015,6.732-6.731,6.732s-6.731-3.014-6.731-6.732
	C2081.793,163.676,2084.807,160.662,2088.525,160.662z M2088.525,108.662c3.718,0,6.731,3.014,6.731,6.732
	c0,3.718-3.015,6.732-6.731,6.732s-6.731-3.014-6.731-6.732C2081.793,111.676,2084.807,108.662,2088.525,108.662z M2088.525,56.662
	c3.718,0,6.731,3.014,6.731,6.732c0,3.718-3.015,6.732-6.731,6.732s-6.731-3.014-6.731-6.732
	C2081.793,59.676,2084.807,56.662,2088.525,56.662z M2145.096,628.663c3.717,0,6.729,3.014,6.729,6.729
	c0,3.719-3.014,6.731-6.729,6.731c-3.719,0-6.731-3.014-6.731-6.731C2138.365,631.677,2141.377,628.663,2145.096,628.663z
	 M2145.096,576.663c3.717,0,6.729,3.014,6.729,6.729c0,3.719-3.014,6.731-6.729,6.731c-3.719,0-6.731-3.014-6.731-6.731
	C2138.365,579.677,2141.377,576.663,2145.096,576.663z M2145.096,524.664c3.717,0,6.729,3.014,6.729,6.729
	c0,3.719-3.014,6.731-6.729,6.731c-3.719,0-6.731-3.014-6.731-6.731C2138.365,527.678,2141.377,524.664,2145.096,524.664z
	 M2145.096,472.664c3.717,0,6.729,3.014,6.729,6.729c0,3.719-3.014,6.731-6.729,6.731c-3.719,0-6.731-3.014-6.731-6.731
	C2138.365,475.678,2141.377,472.664,2145.096,472.664z M2145.096,420.664c3.717,0,6.729,3.014,6.729,6.729
	c0,3.719-3.014,6.731-6.729,6.731c-3.719,0-6.731-3.014-6.731-6.731C2138.365,423.678,2141.377,420.664,2145.096,420.664z
	 M2145.096,368.662c3.718,0,6.73,3.014,6.73,6.732c0,3.718-3.014,6.732-6.73,6.732c-3.719,0-6.732-3.014-6.732-6.732
	C2138.364,371.676,2141.377,368.662,2145.096,368.662z M2145.096,316.662c3.718,0,6.73,3.014,6.73,6.732
	c0,3.718-3.014,6.732-6.73,6.732c-3.719,0-6.732-3.014-6.732-6.732C2138.364,319.676,2141.377,316.662,2145.096,316.662z
	 M2145.096,264.662c3.718,0,6.73,3.014,6.73,6.732c0,3.718-3.014,6.732-6.73,6.732c-3.719,0-6.732-3.014-6.732-6.732
	C2138.364,267.676,2141.377,264.662,2145.096,264.662z M2145.096,212.662c3.718,0,6.73,3.014,6.73,6.732
	c0,3.718-3.014,6.732-6.73,6.732c-3.719,0-6.732-3.014-6.732-6.732C2138.364,215.676,2141.377,212.662,2145.096,212.662z
	 M2145.096,160.662c3.718,0,6.73,3.014,6.73,6.732c0,3.718-3.014,6.732-6.73,6.732c-3.719,0-6.732-3.014-6.732-6.732
	C2138.364,163.676,2141.377,160.662,2145.096,160.662z M2145.096,108.662c3.718,0,6.73,3.014,6.73,6.732
	c0,3.718-3.014,6.732-6.73,6.732c-3.719,0-6.732-3.014-6.732-6.732C2138.364,111.676,2141.377,108.662,2145.096,108.662z
	 M2145.096,56.662c3.718,0,6.73,3.014,6.73,6.732c0,3.718-3.014,6.732-6.73,6.732c-3.719,0-6.732-3.014-6.732-6.732
	C2138.364,59.676,2141.377,56.662,2145.096,56.662z M2201.666,628.663c3.717,0,6.729,3.014,6.729,6.729
	c0,3.719-3.014,6.731-6.729,6.731c-3.719,0-6.731-3.014-6.731-6.731C2194.935,631.677,2197.948,628.663,2201.666,628.663z
	 M2201.666,576.663c3.717,0,6.729,3.014,6.729,6.729c0,3.719-3.014,6.731-6.729,6.731c-3.719,0-6.731-3.014-6.731-6.731
	C2194.935,579.677,2197.948,576.663,2201.666,576.663z M2201.666,524.664c3.717,0,6.729,3.014,6.729,6.729
	c0,3.719-3.014,6.731-6.729,6.731c-3.719,0-6.731-3.014-6.731-6.731C2194.935,527.678,2197.948,524.664,2201.666,524.664z
	 M2201.666,472.664c3.717,0,6.729,3.014,6.729,6.729c0,3.719-3.014,6.731-6.729,6.731c-3.719,0-6.731-3.014-6.731-6.731
	C2194.935,475.678,2197.948,472.664,2201.666,472.664z M2201.666,420.664c3.717,0,6.729,3.014,6.729,6.729
	c0,3.719-3.014,6.731-6.729,6.731c-3.719,0-6.731-3.014-6.731-6.731C2194.935,423.678,2197.948,420.664,2201.666,420.664z
	 M2201.666,368.662c3.718,0,6.73,3.014,6.73,6.732c0,3.718-3.014,6.732-6.73,6.732c-3.72,0-6.732-3.014-6.732-6.732
	C2194.934,371.676,2197.948,368.662,2201.666,368.662z M2201.666,316.662c3.718,0,6.73,3.014,6.73,6.732
	c0,3.718-3.014,6.732-6.73,6.732c-3.72,0-6.732-3.014-6.732-6.732C2194.934,319.676,2197.948,316.662,2201.666,316.662z
	 M2201.666,264.662c3.718,0,6.73,3.014,6.73,6.732c0,3.718-3.014,6.732-6.73,6.732c-3.72,0-6.732-3.014-6.732-6.732
	C2194.934,267.676,2197.948,264.662,2201.666,264.662z M2201.666,212.662c3.718,0,6.73,3.014,6.73,6.732
	c0,3.718-3.014,6.732-6.73,6.732c-3.72,0-6.732-3.014-6.732-6.732C2194.934,215.676,2197.948,212.662,2201.666,212.662z
	 M2201.666,160.662c3.718,0,6.73,3.014,6.73,6.732c0,3.718-3.014,6.732-6.73,6.732c-3.72,0-6.732-3.014-6.732-6.732
	C2194.934,163.676,2197.948,160.662,2201.666,160.662z M2201.666,108.662c3.718,0,6.73,3.014,6.73,6.732
	c0,3.718-3.014,6.732-6.73,6.732c-3.72,0-6.732-3.014-6.732-6.732C2194.934,111.676,2197.948,108.662,2201.666,108.662z
	 M2201.666,56.662c3.718,0,6.73,3.014,6.73,6.732c0,3.718-3.014,6.732-6.73,6.732c-3.72,0-6.732-3.014-6.732-6.732
	C2194.934,59.676,2197.948,56.662,2201.666,56.662z M2258.236,628.663c3.718,0,6.731,3.014,6.731,6.729
	c0,3.719-3.014,6.731-6.731,6.731c-3.717,0-6.729-3.014-6.729-6.731C2251.504,631.677,2254.518,628.663,2258.236,628.663z
	 M2258.236,576.663c3.718,0,6.731,3.014,6.731,6.729c0,3.719-3.014,6.731-6.731,6.731c-3.717,0-6.729-3.014-6.729-6.731
	C2251.504,579.677,2254.518,576.663,2258.236,576.663z M2258.236,524.664c3.718,0,6.731,3.014,6.731,6.729
	c0,3.719-3.014,6.731-6.731,6.731c-3.717,0-6.729-3.014-6.729-6.731C2251.504,527.678,2254.518,524.664,2258.236,524.664z
	 M2258.236,472.664c3.718,0,6.731,3.014,6.731,6.729c0,3.719-3.014,6.731-6.731,6.731c-3.717,0-6.729-3.014-6.729-6.731
	C2251.504,475.678,2254.518,472.664,2258.236,472.664z M2258.236,420.664c3.718,0,6.731,3.014,6.731,6.729
	c0,3.719-3.014,6.731-6.731,6.731c-3.717,0-6.729-3.014-6.729-6.731C2251.504,423.678,2254.518,420.664,2258.236,420.664z
	 M2258.236,368.662c3.718,0,6.732,3.014,6.732,6.732c0,3.718-3.015,6.732-6.732,6.732c-3.717,0-6.73-3.014-6.73-6.732
	C2251.504,371.676,2254.518,368.662,2258.236,368.662z M2258.236,316.662c3.718,0,6.732,3.014,6.732,6.732
	c0,3.718-3.015,6.732-6.732,6.732c-3.717,0-6.73-3.014-6.73-6.732C2251.504,319.676,2254.518,316.662,2258.236,316.662z
	 M2258.236,264.662c3.718,0,6.732,3.014,6.732,6.732c0,3.718-3.015,6.732-6.732,6.732c-3.717,0-6.73-3.014-6.73-6.732
	C2251.504,267.676,2254.518,264.662,2258.236,264.662z M2258.236,212.662c3.718,0,6.732,3.014,6.732,6.732
	c0,3.718-3.015,6.732-6.732,6.732c-3.717,0-6.73-3.014-6.73-6.732C2251.504,215.676,2254.518,212.662,2258.236,212.662z
	 M2258.236,160.662c3.718,0,6.732,3.014,6.732,6.732c0,3.718-3.015,6.732-6.732,6.732c-3.717,0-6.73-3.014-6.73-6.732
	C2251.504,163.676,2254.518,160.662,2258.236,160.662z M2258.236,108.662c3.718,0,6.732,3.014,6.732,6.732
	c0,3.718-3.015,6.732-6.732,6.732c-3.717,0-6.73-3.014-6.73-6.732C2251.504,111.676,2254.518,108.662,2258.236,108.662z
	 M2258.236,56.662c3.718,0,6.732,3.014,6.732,6.732c0,3.718-3.015,6.732-6.732,6.732c-3.717,0-6.73-3.014-6.73-6.732
	C2251.504,59.676,2254.518,56.662,2258.236,56.662z M2314.807,576.663c3.717,0,6.729,3.014,6.729,6.729
	c0,3.719-3.014,6.731-6.729,6.731c-3.719,0-6.731-3.014-6.731-6.731C2308.074,579.677,2311.089,576.663,2314.807,576.663z
	 M2314.807,524.664c3.717,0,6.729,3.014,6.729,6.729c0,3.719-3.014,6.731-6.729,6.731c-3.719,0-6.731-3.014-6.731-6.731
	C2308.074,527.678,2311.089,524.664,2314.807,524.664z M2314.807,472.664c3.717,0,6.729,3.014,6.729,6.729
	c0,3.719-3.014,6.731-6.729,6.731c-3.719,0-6.731-3.014-6.731-6.731C2308.074,475.678,2311.089,472.664,2314.807,472.664z
	 M2314.807,420.664c3.717,0,6.729,3.014,6.729,6.729c0,3.719-3.014,6.731-6.729,6.731c-3.719,0-6.731-3.014-6.731-6.731
	C2308.074,423.678,2311.089,420.664,2314.807,420.664z M2314.807,368.662c3.718,0,6.73,3.014,6.73,6.732
	c0,3.718-3.014,6.732-6.73,6.732c-3.719,0-6.732-3.014-6.732-6.732C2308.073,371.676,2311.088,368.662,2314.807,368.662z
	 M2314.807,316.662c3.718,0,6.73,3.014,6.73,6.732c0,3.718-3.014,6.732-6.73,6.732c-3.719,0-6.732-3.014-6.732-6.732
	C2308.073,319.676,2311.088,316.662,2314.807,316.662z M2314.807,264.662c3.718,0,6.73,3.014,6.73,6.732
	c0,3.718-3.014,6.732-6.73,6.732c-3.719,0-6.732-3.014-6.732-6.732C2308.073,267.676,2311.088,264.662,2314.807,264.662z
	 M2314.807,212.662c3.718,0,6.73,3.014,6.73,6.732c0,3.718-3.014,6.732-6.73,6.732c-3.719,0-6.732-3.014-6.732-6.732
	C2308.073,215.676,2311.088,212.662,2314.807,212.662z M2314.807,160.662c3.718,0,6.73,3.014,6.73,6.732
	c0,3.718-3.014,6.732-6.73,6.732c-3.719,0-6.732-3.014-6.732-6.732C2308.073,163.676,2311.088,160.662,2314.807,160.662z
	 M2314.807,108.662c3.718,0,6.73,3.014,6.73,6.732c0,3.718-3.014,6.732-6.73,6.732c-3.719,0-6.732-3.014-6.732-6.732
	C2308.073,111.676,2311.088,108.662,2314.807,108.662z M2314.807,56.662c3.718,0,6.73,3.014,6.73,6.732
	c0,3.718-3.014,6.732-6.73,6.732c-3.719,0-6.732-3.014-6.732-6.732C2308.073,59.676,2311.088,56.662,2314.807,56.662z
	 M2371.377,420.664c3.717,0,6.729,3.014,6.729,6.729c0,3.719-3.014,6.731-6.729,6.731c-3.719,0-6.731-3.014-6.731-6.731
	C2364.646,423.678,2367.658,420.664,2371.377,420.664z M2371.377,368.662c3.718,0,6.73,3.014,6.73,6.732
	c0,3.718-3.014,6.732-6.73,6.732c-3.72,0-6.732-3.014-6.732-6.732C2364.645,371.676,2367.657,368.662,2371.377,368.662z
	 M2371.377,316.662c3.718,0,6.73,3.014,6.73,6.732c0,3.718-3.014,6.732-6.73,6.732c-3.72,0-6.732-3.014-6.732-6.732
	C2364.645,319.676,2367.657,316.662,2371.377,316.662z M2371.377,264.662c3.718,0,6.73,3.014,6.73,6.732
	c0,3.718-3.014,6.732-6.73,6.732c-3.72,0-6.732-3.014-6.732-6.732C2364.645,267.676,2367.657,264.662,2371.377,264.662z
	 M2371.377,212.662c3.718,0,6.73,3.014,6.73,6.732c0,3.718-3.014,6.732-6.73,6.732c-3.72,0-6.732-3.014-6.732-6.732
	C2364.645,215.676,2367.657,212.662,2371.377,212.662z M2371.377,160.662c3.718,0,6.73,3.014,6.73,6.732
	c0,3.718-3.014,6.732-6.73,6.732c-3.72,0-6.732-3.014-6.732-6.732C2364.645,163.676,2367.657,160.662,2371.377,160.662z
	 M2371.377,108.662c3.718,0,6.73,3.014,6.73,6.732c0,3.718-3.014,6.732-6.73,6.732c-3.72,0-6.732-3.014-6.732-6.732
	C2364.645,111.676,2367.657,108.662,2371.377,108.662z M2371.377,56.662c3.718,0,6.73,3.014,6.73,6.732
	c0,3.718-3.014,6.732-6.73,6.732c-3.72,0-6.732-3.014-6.732-6.732C2364.645,59.676,2367.657,56.662,2371.377,56.662z
	 M2427.947,264.662c3.718,0,6.732,3.014,6.732,6.732c0,3.718-3.015,6.732-6.732,6.732c-3.717,0-6.73-3.014-6.73-6.732
	C2421.215,267.676,2424.229,264.662,2427.947,264.662z M2427.947,212.662c3.718,0,6.732,3.014,6.732,6.732
	c0,3.718-3.015,6.732-6.732,6.732c-3.717,0-6.73-3.014-6.73-6.732C2421.215,215.676,2424.229,212.662,2427.947,212.662z
	 M2427.947,160.662c3.718,0,6.732,3.014,6.732,6.732c0,3.718-3.015,6.732-6.732,6.732c-3.717,0-6.73-3.014-6.73-6.732
	C2421.215,163.676,2424.229,160.662,2427.947,160.662z M2427.947,108.662c3.718,0,6.732,3.014,6.732,6.732
	c0,3.718-3.015,6.732-6.732,6.732c-3.717,0-6.73-3.014-6.73-6.732C2421.215,111.676,2424.229,108.662,2427.947,108.662z
	 M2427.947,56.662c3.718,0,6.732,3.014,6.732,6.732c0,3.718-3.015,6.732-6.732,6.732c-3.717,0-6.73-3.014-6.73-6.732
	C2421.215,59.676,2424.229,56.662,2427.947,56.662z M2484.518,160.662c3.718,0,6.732,3.014,6.732,6.732
	c0,3.718-3.016,6.732-6.732,6.732s-6.732-3.014-6.732-6.732C2477.784,163.676,2480.8,160.662,2484.518,160.662z M2484.518,108.662
	c3.718,0,6.732,3.014,6.732,6.732c0,3.718-3.016,6.732-6.732,6.732s-6.732-3.014-6.732-6.732
	C2477.784,111.676,2480.8,108.662,2484.518,108.662z M2484.518,56.662c3.718,0,6.732,3.014,6.732,6.732
	c0,3.718-3.016,6.732-6.732,6.732s-6.732-3.014-6.732-6.732C2477.784,59.676,2480.8,56.662,2484.518,56.662z M1446.517,779.369
	c1.413-0.5,2.761-1.229,4.151-1.796c6.508-2.666,12.812-5.729,19.252-8.549c6.291-2.762,13.099-5.08,20.062-4.231l-0.001,0.003
	c2.095,0.401,4.851,0.55,8.18,0.438c2.535-0.104,9.706-1.367,21.446-3.887c35.548-7.604,71.236-14.525,106.839-21.883
	c42.715-8.812,85.483-17.355,128.285-25.764c60.629-11.898,121.965-19.701,182.84-30.191
	c39.224-6.758,100.942-13.227,151.568-18.523c29.562-3.104,87.146-3.48,130.752-3.771c32.729-0.219,53.438,0.9,61.992,3.275
	l9.902,2.688c0.479,0.146,6.53-0.431,12.64-4.395l0.407-0.276c12.064-6.295,22.396,2.998,28.759,12.571
	c2.854,4.047,5.187,6.994,6.821,8.861l7.675,8.395c14.424,15.705,23.295,36.188,26.478,61.393l1.438,11.402l5.172,9.658
	c0.18,0.366,1.125,0.698,2.712,0.948c12.244,1.928,10.379,7.647,16.087,17.217c5.547,9.295,15.257,15.362,26.187,15.362
	c17.224,0,31.184-13.961,31.184-31.186c0-17.219-13.955-31.178-31.173-31.183c-3.319-0.001-6.097,0.021-8.318-0.396
	c-4.471-0.843-6.726-3.481-6.726-11.77c2.42-5.612,5.438-12.88,9.031-21.812c16.438-40.782,25.955-64.147,28.435-70.147
	c16.315-39.147,25.979-62.467,28.944-69.896c15.533-38.193,40.513-94.07,75-167.831c25.713-54.931,40.99-87.578,45.688-97.989
	c15.563-34.147,29.396-59.368,41.416-75.688c23.437-31.783,49.812-55.602,79.062-71.479c39.785-21.584,94.509-36.814,164.312-45.87
	c38.707-4.954,63.682-7.911,74.854-8.896c6.066-0.554,13.181-1.275,21.347-2.165c16.42-1.823,34.311-2.828,53.821-3.037
	c31.703-0.382,49.677-0.749,53.914-1.101c8.32-0.682,39.771-6.032,42.293-7.136c16.125-6.882,11.306-17.332-1.467-22.472
	c-14.697-5.964-86.223-17.334-175.935-22.694c-22.345-1.31-44.063-2.862-65.037-4.609c-71.321-6.038-121.938-9.584-151.914-10.657
	c-18.957-0.74-40.646-1.745-65.149-2.972c-20.295-1.053-31.173-1.568-32.604-1.61c-11.152-0.069-20.371,1.76-27.646,5.51
	c-20.817,6.32-42.728,3.224-61.313-7.95c-2.065-1.779-4.596-3.15-7.604-3.956c-16.104-4.312-34.791-4.017-51.276-4.567
	c-14.548-0.513-29.146-1.247-43.654-2.263c-62.07-4.147-98.438-6.44-109.158-6.882c-41.688-1.609-67.158-2.724-76.504-3.28
	c-33.209-1.985-62.322-2.723-87.49-2.155c-69.562,1.428-109.652,2.611-120.186,3.41c-15.979,1.257-41.271,4.416-75.894,9.69
	c-24.391,3.659-49.045,9.898-74.036,18.709c-65.543,22.885-81.064,32.551-111.922,63.668c-4.354,4.443-8.714,8.929-13.345,13.09
	c-3.562,3.202-6.719,6.926-11.808,7.339c-5.588,0.453-10.979-2.889-15.149-6.265c-7.281-5.885-14.481-12.784-23.346-16.205
	c-8.97-3.462-15.499,7.995-19.562,13.998c-16.135,23.848-34.551,46.054-51,69.679c-22.608,32.479-50.459,70.069-76.153,104.76
	c-13.174,17.785-37.703,48.364-73.678,91.877c-22.646,27.399-56.48,64.386-85.39,95.981c-17.616,19.257-37.771,39.623-60.465,61.099
	c-15.688,14.85-32.412,28.552-48.093,43.399l-33.979,32.184c-11.032,9.432-24.555,16.404-39.149,17.784
	c-8.918,0.123-41.082,4.531-96.532,13.322c-41.353,6.514-95.297,10.855-161.989,12.864c-27.826,0.968-63.845,0.429-107.808-1.405
	c-10.783-0.433-21.477-0.818-32.358-1.125c-18.043-0.449-28.839-0.717-32.505-0.908l0,0l-10.854-0.396l-10.723,0.094l-10.688-0.938
	l-10.778-0.428l-10.789-0.816l0,0c-2.384-0.102-5.98-0.314-10.771-0.59l0,0l-10.679,0.395l-10.672-1.104l0,0
	c-0.122-0.104-3.706-0.096-10.783-0.428c-31.507-1.322-81.73-5.465-150.594-12.229c-46.062-4.627-113.501-14.166-202.271-28.479
	c-24.255-3.949-48.854-8.533-73.846-13.502l0,0l-10.473-2.117l0,0c-19.979-4.168-30.424-6.217-31.471-6.482
	c-17.404-3.602-38.396-7.188-63.407-10.896c-6.419-0.996-13.458-2.357-20.981-4.146c-20.163-4.793-62.327-12.984-64.123-11.309l0,0
	l-0.288,0.432l0,0c-0.145,0.223-0.786,3.916-2.173,11.275c-3.919,22.449-7.852,37.186-11.735,44.338
	c-6.167,11.609-13.959,19.688-23.519,24.83c-3.093,1.754-10.243,3.869-21.532,6.537c-18.87,4.496-29.284,7.58-31.271,9.186
	c-4.268,3.809-4.879,7.955-1.809,12.525c0.938,1.324,3.88,3.146,9.207,5.451c2.221,1.021,15.95,4.979,41.214,12.102
	c34.887,9.82,82.706,24.867,143.81,45.229c31.381,10.575,64.945,23.598,100.23,39.256c13.153,5.758,36.325,15.539,69.18,29.09
	c42.53,17.713,83.812,39.146,124.097,64.578c28.284,17.947,43.363,27.584,45.241,28.908c28.593,20.002,51.39,37.5,68.095,52.543
	c22.428,19.991,43.2,40.127,62.315,60.403c7.483,7.884,12.509,13.196,15.017,15.666c2.291,2.319,16.925,18.386,43.938,48.091
	c10.959,12.282,19.075,19.436,24.064,21.491c4.479,1.957,7.95,2.616,10.475,2.112c1.825-0.293,7.865-4.52,17.973-12.854
	c33.144-26.812,39.914-31.339,80.993-57.623c31.521-20.207,83.896-47.449,156.896-81.553l0,0l9.938-4.604l0,0
	c13.402-6.201,26.854-12.104,40.527-17.479c40.964-16.259,68.394-26.809,82.341-31.52c61.646-21.271,99.988-34.254,114.896-38.734
	c53.679-16.238,91.875-29.396,114.673-39.271l0,0l68.897-24.572L1446.517,779.369z"/>
</svg>
