<?xml version="1.0" encoding="utf-8"?>
<!-- Generator: Adobe Illustrator 16.0.0, SVG Export Plug-In . SVG Version: 6.00 Build 0)  -->
<!DOCTYPE svg PUBLIC "-//W3C//DTD SVG 1.1//EN" "http://www.w3.org/Graphics/SVG/1.1/DTD/svg11.dtd">
<svg version="1.1" id="Layer_1" xmlns="http://www.w3.org/2000/svg" xmlns:xlink="http://www.w3.org/1999/xlink" x="0px" y="0px"
	 width="3115.039px" height="1085.196px" viewBox="0 0 3115.039 1085.196" enable-background="new 0 0 3115.039 1085.196"
	 xml:space="preserve">
<path d="M744.092,763.276c1.594-0.229,2.551-0.539,2.731-0.904l0,0l5.33-9.57l1.623-11.381l0,0
	c3.594-25.148,12.8-45.479,27.479-60.949l0,0l7.809-8.268l0,0c1.666-1.84,4.042-4.748,6.966-8.748
	c-0.338-1.023-7.603-18.416-21.928-52.127c-15.299-36.195-32.467-80.115-51.505-131.757
	c-11.032-30.175-33.494-87.586-67.359-172.396c-4.457-11.191-25.721-65.207-63.79-162.048
	c-27.257-69.4-42.007-106.46-44.314-111.156c-2.312-4.696-4.033-7.842-5.328-9.462c-7.715-10.037-20.611-15.102-38.646-15.285
	c-1.434,0.019-12.316,0.354-32.63,1.077c-24.521,0.825-46.224,1.474-65.188,1.903c-29.988,0.583-80.655,3.299-152.069,8.17
	c-20.996,1.403-42.741,2.599-65.104,3.543c-89.786,3.89-161.487,14.087-176.278,19.81c-12.854,4.931-17.844,15.301-1.834,22.445
	c2.501,1.145,33.862,7.009,42.17,7.828c4.233,0.421,22.196,1.082,53.889,1.982c19.513,0.529,37.383,1.827,53.771,3.918
	c8.148,1.023,15.25,1.861,21.304,2.515c11.154,1.167,36.076,4.533,74.7,10.12c69.646,10.197,124.108,26.321,163.535,48.554
	c28.985,16.354,54.972,40.601,77.886,72.764c11.752,16.515,25.165,41.958,40.171,76.354c4.527,10.485,19.265,43.379,44.076,98.725
	c33.278,74.312,57.336,130.589,72.243,169.037c2.849,7.477,12.124,30.949,27.799,70.357c2.376,6.039,11.514,29.561,27.276,70.604
	c5.449,14.197,9.521,24.23,12.147,30.107c8.74,19.104,13.45,28.77,14.109,29.156l0,0L744.092,763.276L744.092,763.276
	 M1780.921,725.526c4.342-2.143,19.879-11.766,46.584-28.809c25.348-16.09,37.049-25.539,47.793-58.035
	c8.918-0.188,41.216,3.102,96.938,9.951c41.551,5.07,95.616,7.535,162.342,7.217c27.843-0.002,63.817-1.795,107.689-5.156
	c10.763-0.807,21.431-1.564,32.303-2.25c18.019-1.078,28.796-1.725,32.453-2.039l0,0l10.829-0.777l10.719-0.281l10.646-1.309
	l10.762-0.803l10.752-1.191l0,0c2.377-0.184,5.969-0.527,10.746-0.963l0,0l10.686,0.014l10.627-1.469l0,0
	c0.119-0.109,3.699-0.227,10.764-0.805c31.439-2.418,81.49-8.311,150.074-17.467c45.871-6.23,112.939-18.107,201.153-35.508
	c24.104-4.791,48.528-10.229,73.331-16.061l0,0l10.395-2.482l0,0c19.82-4.857,30.188-7.27,31.228-7.574
	c17.271-4.205,38.119-8.523,62.99-13.104c6.379-1.219,13.366-2.824,20.825-4.869c19.98-5.492,61.836-15.152,63.688-13.534l0,0
	l0.303,0.423l0,0c0.15,0.211,0.927,3.888,2.564,11.191c4.696,22.3,9.141,36.89,13.271,43.904
	c6.567,11.389,14.638,19.188,24.366,23.996c3.15,1.645,10.371,3.51,21.746,5.781c19.02,3.836,29.533,6.557,31.572,8.092
	c4.396,3.646,5.154,7.777,2.242,12.455c-0.896,1.354-3.771,3.273-9.013,5.77c-2.184,1.102-15.77,5.535-40.77,13.527
	c-34.521,11.025-81.789,27.729-142.146,50.209c-30.989,11.664-64.084,25.846-98.805,42.723
	c-12.945,6.213-35.764,16.795-68.122,31.479c-41.893,19.186-82.396,42.045-121.771,68.861
	c-27.645,18.92-42.379,29.076-44.209,30.465c-27.877,20.986-50.053,39.271-66.223,54.887c-21.719,20.76-41.774,41.604-60.177,62.535
	c-7.21,8.139-12.042,13.631-14.461,16.184c-2.21,2.398-16.272,18.959-42.237,49.586c-10.521,12.66-18.389,20.09-23.303,22.318
	c-4.41,2.111-7.854,2.896-10.393,2.48c-1.838-0.23-8.021-4.244-18.406-12.221c-34.057-25.639-40.98-29.932-82.951-54.771
	c-32.206-19.096-85.502-44.496-159.643-76.037l0,0l-10.096-4.252l0,0c-13.613-5.729-27.265-11.164-41.111-16.059
	c-41.506-14.818-69.283-24.406-83.392-28.627c-62.348-19.113-101.123-30.754-116.172-34.715
	c-54.211-14.361-92.844-26.182-115.971-35.252l0,0l-69.711-22.158l0,0c-5.203-1.654-8.861-6.328-9.22-11.775
	c-0.357-5.447,2.656-10.559,7.603-12.877l0,0L1780.921,725.526L1780.921,725.526 M1812.864,585.417
	c-15.49-15.045-32.045-28.957-47.543-43.995c-22.422-21.758-42.317-42.375-59.692-61.852
	c-28.511-31.957-61.877-69.361-84.185-97.043c-35.422-43.96-59.565-74.844-72.52-92.792c-25.264-35.011-52.637-72.946-74.84-105.706
	c-16.147-23.824-34.283-46.255-50.113-70.299c-4.285-6.509-10.384-16.039-19.417-14.762c-7.274,1.028-13.769,8.722-19.289,13.049
	c-7.114,5.576-15.974,10.961-25.001,6.505c-7.516-3.71-13.694-11.888-19.351-17.803c-30.462-31.5-45.865-41.361-111.115-65.062
	c-24.88-9.124-49.456-15.67-73.797-19.635c-34.552-5.708-59.802-9.182-75.763-10.639c-10.521-0.931-50.592-2.615-120.134-4.913
	c-25.157-0.884-54.277-0.51-87.511,1.059c-9.352,0.438-34.839,1.235-76.541,2.322c-10.729,0.309-47.116,2.146-109.235,5.516
	c-14.521,0.833-29.13,1.384-43.683,1.716c-11.627,0.242-23.197,0.856-34.79,1.78c-6.336,0.504-13.766,1.173-19.807,3.34
	c-6.947,2.492-12.396,8.103-13.382,15.544c-1.188,8.933,3.661,16.47,6.949,24.369c4.153,9.974,8.166,20.006,12.106,30.065
	c7.905,20.185,15.499,40.489,23.198,60.752c4.22,11.106,8.473,22.201,12.828,33.256C654.67,242.2,738.879,464.147,792.802,606.278
	c11.312,29.809,18.409,46.463,21.215,49.818c7.259,8.781,17.793,10,18.435,9.816l9.938-2.568c8.587-2.268,29.312-3.127,62.029-2.498
	c43.598,0.836,101.174,1.941,130.691,5.408c50.558,5.939,112.193,13.176,151.326,20.426c60.739,11.25,121.975,19.822,182.448,32.48
	c42.688,8.936,85.354,18.014,127.951,27.365c35.508,7.797,71.106,15.166,106.558,23.219c11.709,2.66,18.862,4.018,21.396,4.145
	c3.979,0.189,7.141-0.012,9.342-0.58c4.189-1.059,19.009-10.998,44.448-29.896c17.374-12.914,40.648-29.516,69.827-49.805
	c20.549-14.289,40.737-29.105,60.178-44.875l37.851-30.709L1812.864,585.417z M653.089,159.714c-3.722,0-6.732-3.014-6.732-6.732
	c0-3.718,3.014-6.732,6.732-6.732c3.718,0,6.729,3.014,6.729,6.732C659.821,156.701,656.808,159.714,653.089,159.714z
	 M653.089,107.714c-3.722,0-6.732-3.014-6.732-6.732c0-3.718,3.014-6.732,6.732-6.732c3.718,0,6.729,3.014,6.729,6.732
	C659.821,104.701,656.808,107.714,653.089,107.714z M653.089,55.714c-3.722,0-6.732-3.014-6.732-6.732
	c0-3.718,3.014-6.732,6.732-6.732c3.718,0,6.729,3.014,6.729,6.732C659.821,52.701,656.808,55.714,653.089,55.714z M709.657,315.714
	c-3.719,0-6.729-3.014-6.729-6.732c0-3.718,3.014-6.732,6.729-6.732c3.721,0,6.732,3.014,6.732,6.732
	C716.392,312.701,713.378,315.714,709.657,315.714z M709.657,263.714c-3.719,0-6.729-3.014-6.729-6.732
	c0-3.718,3.014-6.732,6.729-6.732c3.721,0,6.732,3.014,6.732,6.732C716.392,260.701,713.378,263.714,709.657,263.714z
	 M709.657,211.714c-3.719,0-6.729-3.014-6.729-6.732c0-3.718,3.014-6.732,6.729-6.732c3.721,0,6.732,3.014,6.732,6.732
	C716.392,208.701,713.378,211.714,709.657,211.714z M709.657,159.714c-3.719,0-6.729-3.014-6.729-6.732
	c0-3.718,3.014-6.732,6.729-6.732c3.721,0,6.732,3.014,6.732,6.732C716.392,156.701,713.378,159.714,709.657,159.714z
	 M709.657,107.714c-3.719,0-6.729-3.014-6.729-6.732c0-3.718,3.014-6.732,6.729-6.732c3.721,0,6.732,3.014,6.732,6.732
	C716.392,104.701,713.378,107.714,709.657,107.714z M709.657,55.714c-3.719,0-6.729-3.014-6.729-6.732
	c0-3.718,3.014-6.732,6.729-6.732c3.721,0,6.732,3.014,6.732,6.732C716.392,52.701,713.378,55.714,709.657,55.714z M766.23,471.714
	c-3.719,0-6.732-3.014-6.732-6.729c0-3.721,3.017-6.732,6.732-6.732s6.732,3.014,6.732,6.732
	C772.962,468.701,769.948,471.714,766.23,471.714z M766.23,419.714c-3.719,0-6.732-3.014-6.732-6.732
	c0-3.718,3.017-6.732,6.732-6.732s6.732,3.014,6.732,6.732C772.962,416.701,769.948,419.714,766.23,419.714z M766.23,367.714
	c-3.719,0-6.732-3.014-6.732-6.732c0-3.718,3.017-6.732,6.732-6.732s6.732,3.014,6.732,6.732
	C772.962,364.701,769.948,367.714,766.23,367.714z M766.23,315.714c-3.719,0-6.732-3.014-6.732-6.732
	c0-3.718,3.017-6.732,6.732-6.732s6.732,3.014,6.732,6.732C772.962,312.701,769.948,315.714,766.23,315.714z M766.23,263.714
	c-3.719,0-6.732-3.014-6.732-6.732c0-3.718,3.017-6.732,6.732-6.732s6.732,3.014,6.732,6.732
	C772.962,260.701,769.948,263.714,766.23,263.714z M766.23,211.714c-3.719,0-6.732-3.014-6.732-6.732
	c0-3.718,3.017-6.732,6.732-6.732s6.732,3.014,6.732,6.732C772.962,208.701,769.948,211.714,766.23,211.714z M766.23,159.714
	c-3.719,0-6.732-3.014-6.732-6.732c0-3.718,3.017-6.732,6.732-6.732s6.732,3.014,6.732,6.732
	C772.962,156.701,769.948,159.714,766.23,159.714z M766.23,107.714c-3.719,0-6.732-3.014-6.732-6.732
	c0-3.718,3.017-6.732,6.732-6.732s6.732,3.014,6.732,6.732C772.962,104.701,769.948,107.714,766.23,107.714z M766.23,55.714
	c-3.719,0-6.732-3.014-6.732-6.732c0-3.718,3.017-6.732,6.732-6.732s6.732,3.014,6.732,6.732
	C772.962,52.701,769.948,55.714,766.23,55.714z M822.8,627.713c-3.722,0-6.732-3.014-6.732-6.729c0-3.723,3.014-6.732,6.732-6.732
	c3.718,0,6.729,3.014,6.729,6.732C829.531,624.702,826.519,627.713,822.8,627.713z M822.8,575.713c-3.722,0-6.732-3.014-6.732-6.729
	c0-3.723,3.014-6.732,6.732-6.732c3.718,0,6.729,3.014,6.729,6.732C829.531,572.702,826.519,575.713,822.8,575.713z M822.8,523.714
	c-3.722,0-6.732-3.014-6.732-6.729c0-3.721,3.014-6.732,6.732-6.732c3.718,0,6.729,3.014,6.729,6.732
	C829.531,520.701,826.519,523.714,822.8,523.714z M822.8,471.714c-3.722,0-6.732-3.014-6.732-6.729c0-3.721,3.014-6.732,6.732-6.732
	c3.718,0,6.729,3.014,6.729,6.732C829.531,468.701,826.519,471.714,822.8,471.714z M822.8,419.714c-3.722,0-6.732-3.014-6.732-6.732
	c0-3.718,3.014-6.732,6.732-6.732c3.718,0,6.729,3.014,6.729,6.732C829.531,416.701,826.519,419.714,822.8,419.714z M822.8,367.714
	c-3.722,0-6.732-3.014-6.732-6.732c0-3.718,3.014-6.732,6.732-6.732c3.718,0,6.729,3.014,6.729,6.732
	C829.531,364.701,826.519,367.714,822.8,367.714z M822.8,315.714c-3.722,0-6.732-3.014-6.732-6.732c0-3.718,3.014-6.732,6.732-6.732
	c3.718,0,6.729,3.014,6.729,6.732C829.531,312.701,826.519,315.714,822.8,315.714z M822.8,263.714c-3.722,0-6.732-3.014-6.732-6.732
	c0-3.718,3.014-6.732,6.732-6.732c3.718,0,6.729,3.014,6.729,6.732C829.531,260.701,826.519,263.714,822.8,263.714z M822.8,211.714
	c-3.722,0-6.732-3.014-6.732-6.732c0-3.718,3.014-6.732,6.732-6.732c3.718,0,6.729,3.014,6.729,6.732
	C829.531,208.701,826.519,211.714,822.8,211.714z M822.8,159.714c-3.722,0-6.732-3.014-6.732-6.732c0-3.718,3.014-6.732,6.732-6.732
	c3.718,0,6.729,3.014,6.729,6.732C829.531,156.701,826.519,159.714,822.8,159.714z M822.8,107.714c-3.722,0-6.732-3.014-6.732-6.732
	c0-3.718,3.014-6.732,6.732-6.732c3.718,0,6.729,3.014,6.729,6.732C829.531,104.701,826.519,107.714,822.8,107.714z M822.8,55.714
	c-3.722,0-6.732-3.014-6.732-6.732c0-3.718,3.014-6.732,6.732-6.732c3.718,0,6.729,3.014,6.729,6.732
	C829.531,52.701,826.519,55.714,822.8,55.714z M879.368,627.713c-3.719,0-6.729-3.014-6.729-6.729c0-3.723,3.014-6.732,6.729-6.732
	c3.721,0,6.732,3.014,6.732,6.732C886.103,624.702,883.089,627.713,879.368,627.713z M879.368,575.713
	c-3.719,0-6.729-3.014-6.729-6.729c0-3.723,3.014-6.732,6.729-6.732c3.721,0,6.732,3.014,6.732,6.732
	C886.103,572.702,883.089,575.713,879.368,575.713z M879.368,523.714c-3.719,0-6.729-3.014-6.729-6.729
	c0-3.721,3.014-6.732,6.729-6.732c3.721,0,6.732,3.014,6.732,6.732C886.103,520.701,883.089,523.714,879.368,523.714z
	 M879.368,471.714c-3.719,0-6.729-3.014-6.729-6.729c0-3.721,3.014-6.732,6.729-6.732c3.721,0,6.732,3.014,6.732,6.732
	C886.103,468.701,883.089,471.714,879.368,471.714z M879.368,419.714c-3.719,0-6.729-3.014-6.729-6.732
	c0-3.718,3.014-6.732,6.729-6.732c3.721,0,6.732,3.014,6.732,6.732C886.103,416.701,883.089,419.714,879.368,419.714z
	 M879.368,367.714c-3.719,0-6.729-3.014-6.729-6.732c0-3.718,3.014-6.732,6.729-6.732c3.721,0,6.732,3.014,6.732,6.732
	C886.103,364.701,883.089,367.714,879.368,367.714z M879.368,315.714c-3.719,0-6.729-3.014-6.729-6.732
	c0-3.718,3.014-6.732,6.729-6.732c3.721,0,6.732,3.014,6.732,6.732C886.103,312.701,883.089,315.714,879.368,315.714z
	 M879.368,263.714c-3.719,0-6.729-3.014-6.729-6.732c0-3.718,3.014-6.732,6.729-6.732c3.721,0,6.732,3.014,6.732,6.732
	C886.103,260.701,883.089,263.714,879.368,263.714z M879.368,211.714c-3.719,0-6.729-3.014-6.729-6.732
	c0-3.718,3.014-6.732,6.729-6.732c3.721,0,6.732,3.014,6.732,6.732C886.103,208.701,883.089,211.714,879.368,211.714z
	 M879.368,159.714c-3.719,0-6.729-3.014-6.729-6.732c0-3.718,3.014-6.732,6.729-6.732c3.721,0,6.732,3.014,6.732,6.732
	C886.103,156.701,883.089,159.714,879.368,159.714z M879.368,107.714c-3.719,0-6.729-3.014-6.729-6.732
	c0-3.718,3.014-6.732,6.729-6.732c3.721,0,6.732,3.014,6.732,6.732C886.103,104.701,883.089,107.714,879.368,107.714z
	 M879.368,55.714c-3.719,0-6.729-3.014-6.729-6.732c0-3.718,3.014-6.732,6.729-6.732c3.721,0,6.732,3.014,6.732,6.732
	C886.103,52.701,883.089,55.714,879.368,55.714z M935.941,627.713c-3.719,0-6.731-3.014-6.731-6.729
	c0-3.723,3.016-6.732,6.731-6.732s6.732,3.014,6.732,6.732C942.673,624.702,939.657,627.713,935.941,627.713z M935.941,575.713
	c-3.719,0-6.731-3.014-6.731-6.729c0-3.723,3.016-6.732,6.731-6.732s6.732,3.014,6.732,6.732
	C942.673,572.702,939.657,575.713,935.941,575.713z M935.941,523.714c-3.719,0-6.731-3.014-6.731-6.729
	c0-3.721,3.016-6.732,6.731-6.732s6.732,3.014,6.732,6.732C942.673,520.701,939.657,523.714,935.941,523.714z M935.941,471.714
	c-3.719,0-6.731-3.014-6.731-6.729c0-3.721,3.016-6.732,6.731-6.732s6.732,3.014,6.732,6.732
	C942.673,468.701,939.657,471.714,935.941,471.714z M935.941,419.714c-3.719,0-6.731-3.014-6.731-6.732
	c0-3.718,3.016-6.732,6.731-6.732s6.732,3.014,6.732,6.732C942.673,416.701,939.657,419.714,935.941,419.714z M935.941,367.714
	c-3.719,0-6.731-3.014-6.731-6.732c0-3.718,3.016-6.732,6.731-6.732s6.732,3.014,6.732,6.732
	C942.673,364.701,939.657,367.714,935.941,367.714z M935.941,315.714c-3.719,0-6.731-3.014-6.731-6.732
	c0-3.718,3.016-6.732,6.731-6.732s6.732,3.014,6.732,6.732C942.673,312.701,939.657,315.714,935.941,315.714z M935.941,263.714
	c-3.719,0-6.731-3.014-6.731-6.732c0-3.718,3.016-6.732,6.731-6.732s6.732,3.014,6.732,6.732
	C942.673,260.701,939.657,263.714,935.941,263.714z M935.941,211.714c-3.719,0-6.731-3.014-6.731-6.732
	c0-3.718,3.016-6.732,6.731-6.732s6.732,3.014,6.732,6.732C942.673,208.701,939.657,211.714,935.941,211.714z M935.941,159.714
	c-3.719,0-6.731-3.014-6.731-6.732c0-3.718,3.016-6.732,6.731-6.732s6.732,3.014,6.732,6.732
	C942.673,156.701,939.657,159.714,935.941,159.714z M935.941,107.714c-3.719,0-6.731-3.014-6.731-6.732
	c0-3.718,3.016-6.732,6.731-6.732s6.732,3.014,6.732,6.732C942.673,104.701,939.657,107.714,935.941,107.714z M935.941,55.714
	c-3.719,0-6.731-3.014-6.731-6.732c0-3.718,3.016-6.732,6.731-6.732s6.732,3.014,6.732,6.732
	C942.673,52.701,939.657,55.714,935.941,55.714z M992.511,627.713c-3.72,0-6.732-3.014-6.732-6.729c0-3.723,3.015-6.732,6.732-6.732
	s6.729,3.014,6.729,6.732C999.24,624.702,996.23,627.713,992.511,627.713z M992.511,575.713c-3.72,0-6.732-3.014-6.732-6.729
	c0-3.723,3.015-6.732,6.732-6.732s6.729,3.014,6.729,6.732C999.24,572.702,996.23,575.713,992.511,575.713z M992.511,523.714
	c-3.72,0-6.732-3.014-6.732-6.729c0-3.721,3.015-6.732,6.732-6.732s6.729,3.014,6.729,6.732
	C999.24,520.701,996.23,523.714,992.511,523.714z M992.511,471.714c-3.72,0-6.732-3.014-6.732-6.729
	c0-3.721,3.015-6.732,6.732-6.732s6.729,3.014,6.729,6.732C999.24,468.701,996.23,471.714,992.511,471.714z M992.511,419.714
	c-3.72,0-6.732-3.014-6.732-6.732c0-3.718,3.015-6.732,6.732-6.732s6.729,3.014,6.729,6.732
	C999.24,416.701,996.23,419.714,992.511,419.714z M992.511,367.714c-3.72,0-6.732-3.014-6.732-6.732
	c0-3.718,3.015-6.732,6.732-6.732s6.729,3.014,6.729,6.732C999.24,364.701,996.23,367.714,992.511,367.714z M992.511,315.714
	c-3.72,0-6.732-3.014-6.732-6.732c0-3.718,3.015-6.732,6.732-6.732s6.729,3.014,6.729,6.732
	C999.24,312.701,996.23,315.714,992.511,315.714z M992.511,263.714c-3.72,0-6.732-3.014-6.732-6.732
	c0-3.718,3.015-6.732,6.732-6.732s6.729,3.014,6.729,6.732C999.24,260.701,996.23,263.714,992.511,263.714z M992.511,211.714
	c-3.72,0-6.732-3.014-6.732-6.732c0-3.718,3.015-6.732,6.732-6.732s6.729,3.014,6.729,6.732
	C999.24,208.701,996.23,211.714,992.511,211.714z M992.511,159.714c-3.72,0-6.732-3.014-6.732-6.732
	c0-3.718,3.015-6.732,6.732-6.732s6.729,3.014,6.729,6.732C999.24,156.701,996.23,159.714,992.511,159.714z M992.511,107.714
	c-3.72,0-6.732-3.014-6.732-6.732c0-3.718,3.015-6.732,6.732-6.732s6.729,3.014,6.729,6.732
	C999.24,104.701,996.23,107.714,992.511,107.714z M992.511,55.714c-3.72,0-6.732-3.014-6.732-6.732c0-3.718,3.015-6.732,6.732-6.732
	s6.729,3.014,6.729,6.732C999.24,52.701,996.23,55.714,992.511,55.714z M1049.079,627.713c-3.719,0-6.729-3.014-6.729-6.729
	c0-3.723,3.014-6.732,6.729-6.732c3.721,0,6.732,3.014,6.732,6.732C1055.814,624.702,1052.8,627.713,1049.079,627.713z
	 M1049.079,575.713c-3.719,0-6.729-3.014-6.729-6.729c0-3.723,3.014-6.732,6.729-6.732c3.721,0,6.732,3.014,6.732,6.732
	C1055.814,572.702,1052.8,575.713,1049.079,575.713z M1049.079,523.714c-3.719,0-6.729-3.014-6.729-6.729
	c0-3.721,3.014-6.732,6.729-6.732c3.721,0,6.732,3.014,6.732,6.732C1055.814,520.701,1052.8,523.714,1049.079,523.714z
	 M1049.079,471.714c-3.719,0-6.729-3.014-6.729-6.729c0-3.721,3.014-6.732,6.729-6.732c3.721,0,6.732,3.014,6.732,6.732
	C1055.814,468.701,1052.8,471.714,1049.079,471.714z M1049.079,419.714c-3.719,0-6.729-3.014-6.729-6.732
	c0-3.718,3.014-6.732,6.729-6.732c3.721,0,6.732,3.014,6.732,6.732C1055.814,416.701,1052.8,419.714,1049.079,419.714z
	 M1049.079,367.714c-3.719,0-6.729-3.014-6.729-6.732c0-3.718,3.014-6.732,6.729-6.732c3.721,0,6.732,3.014,6.732,6.732
	C1055.814,364.701,1052.8,367.714,1049.079,367.714z M1049.079,315.714c-3.719,0-6.729-3.014-6.729-6.732
	c0-3.718,3.014-6.732,6.729-6.732c3.721,0,6.732,3.014,6.732,6.732C1055.814,312.701,1052.8,315.714,1049.079,315.714z
	 M1049.079,263.714c-3.719,0-6.729-3.014-6.729-6.732c0-3.718,3.014-6.732,6.729-6.732c3.721,0,6.732,3.014,6.732,6.732
	C1055.814,260.701,1052.8,263.714,1049.079,263.714z M1049.079,211.714c-3.719,0-6.729-3.014-6.729-6.732
	c0-3.718,3.014-6.732,6.729-6.732c3.721,0,6.732,3.014,6.732,6.732C1055.814,208.701,1052.8,211.714,1049.079,211.714z
	 M1049.079,159.714c-3.719,0-6.729-3.014-6.729-6.732c0-3.718,3.014-6.732,6.729-6.732c3.721,0,6.732,3.014,6.732,6.732
	C1055.814,156.701,1052.8,159.714,1049.079,159.714z M1049.079,107.714c-3.719,0-6.729-3.014-6.729-6.732
	c0-3.718,3.014-6.732,6.729-6.732c3.721,0,6.732,3.014,6.732,6.732C1055.814,104.701,1052.8,107.714,1049.079,107.714z
	 M1049.079,55.714c-3.719,0-6.729-3.014-6.729-6.732c0-3.718,3.014-6.732,6.729-6.732c3.721,0,6.732,3.014,6.732,6.732
	C1055.814,52.701,1052.8,55.714,1049.079,55.714z M1105.652,627.713c-3.719,0-6.731-3.014-6.731-6.729
	c0-3.723,3.016-6.732,6.731-6.732s6.732,3.014,6.732,6.732C1112.384,624.702,1109.368,627.713,1105.652,627.713z M1105.652,575.713
	c-3.719,0-6.731-3.014-6.731-6.729c0-3.723,3.016-6.732,6.731-6.732s6.732,3.014,6.732,6.732
	C1112.384,572.702,1109.368,575.713,1105.652,575.713z M1105.652,523.714c-3.719,0-6.731-3.014-6.731-6.729
	c0-3.721,3.016-6.732,6.731-6.732s6.732,3.014,6.732,6.732C1112.384,520.701,1109.368,523.714,1105.652,523.714z M1105.652,471.714
	c-3.719,0-6.731-3.014-6.731-6.729c0-3.721,3.016-6.732,6.731-6.732s6.732,3.014,6.732,6.732
	C1112.384,468.701,1109.368,471.714,1105.652,471.714z M1105.652,419.714c-3.719,0-6.731-3.014-6.731-6.732
	c0-3.718,3.016-6.732,6.731-6.732s6.732,3.014,6.732,6.732C1112.384,416.701,1109.368,419.714,1105.652,419.714z M1105.652,367.714
	c-3.719,0-6.731-3.014-6.731-6.732c0-3.718,3.016-6.732,6.731-6.732s6.732,3.014,6.732,6.732
	C1112.384,364.701,1109.368,367.714,1105.652,367.714z M1105.652,315.714c-3.719,0-6.731-3.014-6.731-6.732
	c0-3.718,3.016-6.732,6.731-6.732s6.732,3.014,6.732,6.732C1112.384,312.701,1109.368,315.714,1105.652,315.714z M1105.652,263.714
	c-3.719,0-6.731-3.014-6.731-6.732c0-3.718,3.016-6.732,6.731-6.732s6.732,3.014,6.732,6.732
	C1112.384,260.701,1109.368,263.714,1105.652,263.714z M1105.652,211.714c-3.719,0-6.731-3.014-6.731-6.732
	c0-3.718,3.016-6.732,6.731-6.732s6.732,3.014,6.732,6.732C1112.384,208.701,1109.368,211.714,1105.652,211.714z M1105.652,159.714
	c-3.719,0-6.731-3.014-6.731-6.732c0-3.718,3.016-6.732,6.731-6.732s6.732,3.014,6.732,6.732
	C1112.384,156.701,1109.368,159.714,1105.652,159.714z M1105.652,107.714c-3.719,0-6.731-3.014-6.731-6.732
	c0-3.718,3.016-6.732,6.731-6.732s6.732,3.014,6.732,6.732C1112.384,104.701,1109.368,107.714,1105.652,107.714z M1105.652,55.714
	c-3.719,0-6.731-3.014-6.731-6.732c0-3.718,3.016-6.732,6.731-6.732s6.732,3.014,6.732,6.732
	C1112.384,52.701,1109.368,55.714,1105.652,55.714z M1162.222,627.713c-3.719,0-6.732-3.014-6.732-6.729
	c0-3.723,3.015-6.732,6.732-6.732s6.729,3.014,6.729,6.732C1168.951,624.702,1165.941,627.713,1162.222,627.713z M1162.222,575.713
	c-3.719,0-6.732-3.014-6.732-6.729c0-3.723,3.015-6.732,6.732-6.732s6.729,3.014,6.729,6.732
	C1168.951,572.702,1165.941,575.713,1162.222,575.713z M1162.222,523.714c-3.719,0-6.732-3.014-6.732-6.729
	c0-3.721,3.015-6.732,6.732-6.732s6.729,3.014,6.729,6.732C1168.951,520.701,1165.941,523.714,1162.222,523.714z M1162.222,471.714
	c-3.719,0-6.732-3.014-6.732-6.729c0-3.721,3.015-6.732,6.732-6.732s6.729,3.014,6.729,6.732
	C1168.951,468.701,1165.941,471.714,1162.222,471.714z M1162.222,419.714c-3.719,0-6.732-3.014-6.732-6.732
	c0-3.718,3.015-6.732,6.732-6.732s6.729,3.014,6.729,6.732C1168.951,416.701,1165.941,419.714,1162.222,419.714z M1162.222,367.714
	c-3.719,0-6.732-3.014-6.732-6.732c0-3.718,3.015-6.732,6.732-6.732s6.729,3.014,6.729,6.732
	C1168.951,364.701,1165.941,367.714,1162.222,367.714z M1162.222,315.714c-3.719,0-6.732-3.014-6.732-6.732
	c0-3.718,3.015-6.732,6.732-6.732s6.729,3.014,6.729,6.732C1168.951,312.701,1165.941,315.714,1162.222,315.714z M1162.222,263.714
	c-3.719,0-6.732-3.014-6.732-6.732c0-3.718,3.015-6.732,6.732-6.732s6.729,3.014,6.729,6.732
	C1168.951,260.701,1165.941,263.714,1162.222,263.714z M1162.222,211.714c-3.719,0-6.732-3.014-6.732-6.732
	c0-3.718,3.015-6.732,6.732-6.732s6.729,3.014,6.729,6.732C1168.951,208.701,1165.941,211.714,1162.222,211.714z M1162.222,159.714
	c-3.719,0-6.732-3.014-6.732-6.732c0-3.718,3.015-6.732,6.732-6.732s6.729,3.014,6.729,6.732
	C1168.951,156.701,1165.941,159.714,1162.222,159.714z M1162.222,107.714c-3.719,0-6.732-3.014-6.732-6.732
	c0-3.718,3.015-6.732,6.732-6.732s6.729,3.014,6.729,6.732C1168.951,104.701,1165.941,107.714,1162.222,107.714z M1162.222,55.714
	c-3.719,0-6.732-3.014-6.732-6.732c0-3.718,3.015-6.732,6.732-6.732s6.729,3.014,6.729,6.732
	C1168.951,52.701,1165.941,55.714,1162.222,55.714z M1218.791,679.713c-3.721,0-6.731-3.014-6.731-6.729
	c0-3.723,3.014-6.732,6.731-6.732c3.719,0,6.73,3.014,6.73,6.732C1225.524,676.702,1222.511,679.713,1218.791,679.713z
	 M1218.791,627.713c-3.721,0-6.731-3.014-6.731-6.729c0-3.723,3.014-6.732,6.731-6.732c3.719,0,6.73,3.014,6.73,6.732
	C1225.524,624.702,1222.511,627.713,1218.791,627.713z M1218.791,575.713c-3.721,0-6.731-3.014-6.731-6.729
	c0-3.723,3.014-6.732,6.731-6.732c3.719,0,6.73,3.014,6.73,6.732C1225.524,572.702,1222.511,575.713,1218.791,575.713z
	 M1218.791,523.714c-3.721,0-6.731-3.014-6.731-6.729c0-3.721,3.014-6.732,6.731-6.732c3.719,0,6.73,3.014,6.73,6.732
	C1225.524,520.701,1222.511,523.714,1218.791,523.714z M1218.791,471.714c-3.721,0-6.731-3.014-6.731-6.729
	c0-3.721,3.014-6.732,6.731-6.732c3.719,0,6.73,3.014,6.73,6.732C1225.524,468.701,1222.511,471.714,1218.791,471.714z
	 M1218.791,419.714c-3.721,0-6.731-3.014-6.731-6.732c0-3.718,3.014-6.732,6.731-6.732c3.719,0,6.73,3.014,6.73,6.732
	C1225.524,416.701,1222.511,419.714,1218.791,419.714z M1218.791,367.714c-3.721,0-6.731-3.014-6.731-6.732
	c0-3.718,3.014-6.732,6.731-6.732c3.719,0,6.73,3.014,6.73,6.732C1225.524,364.701,1222.511,367.714,1218.791,367.714z
	 M1218.791,315.714c-3.721,0-6.731-3.014-6.731-6.732c0-3.718,3.014-6.732,6.731-6.732c3.719,0,6.73,3.014,6.73,6.732
	C1225.524,312.701,1222.511,315.714,1218.791,315.714z M1218.791,263.714c-3.721,0-6.731-3.014-6.731-6.732
	c0-3.718,3.014-6.732,6.731-6.732c3.719,0,6.73,3.014,6.73,6.732C1225.524,260.701,1222.511,263.714,1218.791,263.714z
	 M1218.791,211.714c-3.721,0-6.731-3.014-6.731-6.732c0-3.718,3.014-6.732,6.731-6.732c3.719,0,6.73,3.014,6.73,6.732
	C1225.524,208.701,1222.511,211.714,1218.791,211.714z M1218.791,159.714c-3.721,0-6.731-3.014-6.731-6.732
	c0-3.718,3.014-6.732,6.731-6.732c3.719,0,6.73,3.014,6.73,6.732C1225.524,156.701,1222.511,159.714,1218.791,159.714z
	 M1218.791,107.714c-3.721,0-6.731-3.014-6.731-6.732c0-3.718,3.014-6.732,6.731-6.732c3.719,0,6.73,3.014,6.73,6.732
	C1225.524,104.701,1222.511,107.714,1218.791,107.714z M1218.791,55.714c-3.721,0-6.731-3.014-6.731-6.732
	c0-3.718,3.014-6.732,6.731-6.732c3.719,0,6.73,3.014,6.73,6.732C1225.524,52.701,1222.511,55.714,1218.791,55.714z
	 M1275.362,679.713c-3.719,0-6.729-3.014-6.729-6.729c0-3.723,3.014-6.732,6.729-6.732s6.732,3.014,6.732,6.732
	C1282.094,676.702,1279.078,679.713,1275.362,679.713z M1275.362,627.713c-3.719,0-6.729-3.014-6.729-6.729
	c0-3.723,3.014-6.732,6.729-6.732s6.732,3.014,6.732,6.732C1282.094,624.702,1279.078,627.713,1275.362,627.713z M1275.362,575.713
	c-3.719,0-6.729-3.014-6.729-6.729c0-3.723,3.014-6.732,6.729-6.732s6.732,3.014,6.732,6.732
	C1282.094,572.702,1279.078,575.713,1275.362,575.713z M1275.362,523.714c-3.719,0-6.729-3.014-6.729-6.729
	c0-3.721,3.014-6.732,6.729-6.732s6.732,3.014,6.732,6.732C1282.094,520.701,1279.078,523.714,1275.362,523.714z M1275.362,471.714
	c-3.719,0-6.729-3.014-6.729-6.729c0-3.721,3.014-6.732,6.729-6.732s6.732,3.014,6.732,6.732
	C1282.094,468.701,1279.078,471.714,1275.362,471.714z M1275.362,419.714c-3.719,0-6.729-3.014-6.729-6.732
	c0-3.718,3.014-6.732,6.729-6.732s6.732,3.014,6.732,6.732C1282.094,416.701,1279.078,419.714,1275.362,419.714z M1275.362,367.714
	c-3.719,0-6.729-3.014-6.729-6.732c0-3.718,3.014-6.732,6.729-6.732s6.732,3.014,6.732,6.732
	C1282.094,364.701,1279.078,367.714,1275.362,367.714z M1275.362,315.714c-3.719,0-6.729-3.014-6.729-6.732
	c0-3.718,3.014-6.732,6.729-6.732s6.732,3.014,6.732,6.732C1282.094,312.701,1279.078,315.714,1275.362,315.714z M1275.362,263.714
	c-3.719,0-6.729-3.014-6.729-6.732c0-3.718,3.014-6.732,6.729-6.732s6.732,3.014,6.732,6.732
	C1282.094,260.701,1279.078,263.714,1275.362,263.714z M1275.362,211.714c-3.719,0-6.729-3.014-6.729-6.732
	c0-3.718,3.014-6.732,6.729-6.732s6.732,3.014,6.732,6.732C1282.094,208.701,1279.078,211.714,1275.362,211.714z M1275.362,159.714
	c-3.719,0-6.729-3.014-6.729-6.732c0-3.718,3.014-6.732,6.729-6.732s6.732,3.014,6.732,6.732
	C1282.094,156.701,1279.078,159.714,1275.362,159.714z M1275.362,107.714c-3.719,0-6.729-3.014-6.729-6.732
	c0-3.718,3.014-6.732,6.729-6.732s6.732,3.014,6.732,6.732C1282.094,104.701,1279.078,107.714,1275.362,107.714z M1331.933,679.713
	c-3.719,0-6.732-3.014-6.732-6.729c0-3.723,3.017-6.732,6.732-6.732s6.731,3.014,6.731,6.732
	C1338.663,676.702,1335.651,679.713,1331.933,679.713z M1331.933,627.713c-3.719,0-6.732-3.014-6.732-6.729
	c0-3.723,3.017-6.732,6.732-6.732s6.731,3.014,6.731,6.732C1338.663,624.702,1335.651,627.713,1331.933,627.713z M1331.933,575.713
	c-3.719,0-6.732-3.014-6.732-6.729c0-3.723,3.017-6.732,6.732-6.732s6.731,3.014,6.731,6.732
	C1338.663,572.702,1335.651,575.713,1331.933,575.713z M1331.933,523.714c-3.719,0-6.732-3.014-6.732-6.729
	c0-3.721,3.017-6.732,6.732-6.732s6.731,3.014,6.731,6.732C1338.663,520.701,1335.651,523.714,1331.933,523.714z M1331.933,471.714
	c-3.719,0-6.732-3.014-6.732-6.729c0-3.721,3.017-6.732,6.732-6.732s6.731,3.014,6.731,6.732
	C1338.663,468.701,1335.651,471.714,1331.933,471.714z M1331.933,419.714c-3.719,0-6.732-3.014-6.732-6.732
	c0-3.718,3.017-6.732,6.732-6.732s6.731,3.014,6.731,6.732C1338.663,416.701,1335.651,419.714,1331.933,419.714z M1331.933,367.714
	c-3.719,0-6.732-3.014-6.732-6.732c0-3.718,3.017-6.732,6.732-6.732s6.731,3.014,6.731,6.732
	C1338.663,364.701,1335.651,367.714,1331.933,367.714z M1331.933,315.714c-3.719,0-6.732-3.014-6.732-6.732
	c0-3.718,3.017-6.732,6.732-6.732s6.731,3.014,6.731,6.732C1338.663,312.701,1335.651,315.714,1331.933,315.714z M1331.933,263.714
	c-3.719,0-6.732-3.014-6.732-6.732c0-3.718,3.017-6.732,6.732-6.732s6.731,3.014,6.731,6.732
	C1338.663,260.701,1335.651,263.714,1331.933,263.714z M1331.933,211.714c-3.719,0-6.732-3.014-6.732-6.732
	c0-3.718,3.017-6.732,6.732-6.732s6.731,3.014,6.731,6.732C1338.663,208.701,1335.651,211.714,1331.933,211.714z M1331.933,159.714
	c-3.719,0-6.732-3.014-6.732-6.732c0-3.718,3.017-6.732,6.732-6.732s6.731,3.014,6.731,6.732
	C1338.663,156.701,1335.651,159.714,1331.933,159.714z M1388.503,679.713c-3.722,0-6.732-3.014-6.732-6.729
	c0-3.723,3.014-6.732,6.732-6.732c3.718,0,6.729,3.014,6.729,6.732C1395.235,676.702,1392.222,679.713,1388.503,679.713z
	 M1388.503,627.713c-3.722,0-6.732-3.014-6.732-6.729c0-3.723,3.014-6.732,6.732-6.732c3.718,0,6.729,3.014,6.729,6.732
	C1395.235,624.702,1392.222,627.713,1388.503,627.713z M1388.503,575.713c-3.722,0-6.732-3.014-6.732-6.729
	c0-3.723,3.014-6.732,6.732-6.732c3.718,0,6.729,3.014,6.729,6.732C1395.235,572.702,1392.222,575.713,1388.503,575.713z
	 M1388.503,523.714c-3.722,0-6.732-3.014-6.732-6.729c0-3.721,3.014-6.732,6.732-6.732c3.718,0,6.729,3.014,6.729,6.732
	C1395.235,520.701,1392.222,523.714,1388.503,523.714z M1388.503,471.714c-3.722,0-6.732-3.014-6.732-6.729
	c0-3.721,3.014-6.732,6.732-6.732c3.718,0,6.729,3.014,6.729,6.732C1395.235,468.701,1392.222,471.714,1388.503,471.714z
	 M1388.503,419.714c-3.722,0-6.732-3.014-6.732-6.732c0-3.718,3.014-6.732,6.732-6.732c3.718,0,6.729,3.014,6.729,6.732
	C1395.235,416.701,1392.222,419.714,1388.503,419.714z M1388.503,367.714c-3.722,0-6.732-3.014-6.732-6.732
	c0-3.718,3.014-6.732,6.732-6.732c3.718,0,6.729,3.014,6.729,6.732C1395.235,364.701,1392.222,367.714,1388.503,367.714z
	 M1388.503,315.714c-3.722,0-6.732-3.014-6.732-6.732c0-3.718,3.014-6.732,6.732-6.732c3.718,0,6.729,3.014,6.729,6.732
	C1395.235,312.701,1392.222,315.714,1388.503,315.714z M1388.503,263.714c-3.722,0-6.732-3.014-6.732-6.732
	c0-3.718,3.014-6.732,6.732-6.732c3.718,0,6.729,3.014,6.729,6.732C1395.235,260.701,1392.222,263.714,1388.503,263.714z
	 M1388.503,211.714c-3.722,0-6.732-3.014-6.732-6.732c0-3.718,3.014-6.732,6.732-6.732c3.718,0,6.729,3.014,6.729,6.732
	C1395.235,208.701,1392.222,211.714,1388.503,211.714z M1388.503,159.714c-3.722,0-6.732-3.014-6.732-6.732
	c0-3.718,3.014-6.732,6.732-6.732c3.718,0,6.729,3.014,6.729,6.732C1395.235,156.701,1392.222,159.714,1388.503,159.714z
	 M1445.073,679.713c-3.719,0-6.729-3.014-6.729-6.729c0-3.723,3.014-6.732,6.729-6.732s6.732,3.014,6.732,6.732
	C1451.805,676.702,1448.791,679.713,1445.073,679.713z M1445.073,627.713c-3.719,0-6.729-3.014-6.729-6.729
	c0-3.723,3.014-6.732,6.729-6.732s6.732,3.014,6.732,6.732C1451.805,624.702,1448.791,627.713,1445.073,627.713z M1445.073,575.713
	c-3.719,0-6.729-3.014-6.729-6.729c0-3.723,3.014-6.732,6.729-6.732s6.732,3.014,6.732,6.732
	C1451.805,572.702,1448.791,575.713,1445.073,575.713z M1445.073,523.714c-3.719,0-6.729-3.014-6.729-6.729
	c0-3.721,3.014-6.732,6.729-6.732s6.732,3.014,6.732,6.732C1451.805,520.701,1448.791,523.714,1445.073,523.714z M1445.073,471.714
	c-3.719,0-6.729-3.014-6.729-6.729c0-3.721,3.014-6.732,6.729-6.732s6.732,3.014,6.732,6.732
	C1451.805,468.701,1448.791,471.714,1445.073,471.714z M1445.073,419.714c-3.719,0-6.729-3.014-6.729-6.732
	c0-3.718,3.014-6.732,6.729-6.732s6.732,3.014,6.732,6.732C1451.805,416.701,1448.791,419.714,1445.073,419.714z M1445.073,367.714
	c-3.719,0-6.729-3.014-6.729-6.732c0-3.718,3.014-6.732,6.729-6.732s6.732,3.014,6.732,6.732
	C1451.805,364.701,1448.791,367.714,1445.073,367.714z M1445.073,315.714c-3.719,0-6.729-3.014-6.729-6.732
	c0-3.718,3.014-6.732,6.729-6.732s6.732,3.014,6.732,6.732C1451.805,312.701,1448.791,315.714,1445.073,315.714z M1445.073,263.714
	c-3.719,0-6.729-3.014-6.729-6.732c0-3.718,3.014-6.732,6.729-6.732s6.732,3.014,6.732,6.732
	C1451.805,260.701,1448.791,263.714,1445.073,263.714z M1445.073,211.714c-3.719,0-6.729-3.014-6.729-6.732
	c0-3.718,3.014-6.732,6.729-6.732s6.732,3.014,6.732,6.732C1451.805,208.701,1448.791,211.714,1445.073,211.714z M1501.644,731.713
	c-3.719,0-6.732-3.014-6.732-6.729c0-3.723,3.017-6.732,6.732-6.732s6.732,3.014,6.732,6.732
	C1508.375,728.702,1505.362,731.713,1501.644,731.713z M1501.644,679.713c-3.719,0-6.732-3.014-6.732-6.729
	c0-3.723,3.017-6.732,6.732-6.732s6.732,3.014,6.732,6.732C1508.375,676.702,1505.362,679.713,1501.644,679.713z M1501.644,627.713
	c-3.719,0-6.732-3.014-6.732-6.729c0-3.723,3.017-6.732,6.732-6.732s6.732,3.014,6.732,6.732
	C1508.375,624.702,1505.362,627.713,1501.644,627.713z M1501.644,575.713c-3.719,0-6.732-3.014-6.732-6.729
	c0-3.723,3.017-6.732,6.732-6.732s6.732,3.014,6.732,6.732C1508.375,572.702,1505.362,575.713,1501.644,575.713z M1501.644,523.714
	c-3.719,0-6.732-3.014-6.732-6.729c0-3.721,3.017-6.732,6.732-6.732s6.732,3.014,6.732,6.732
	C1508.375,520.701,1505.362,523.714,1501.644,523.714z M1501.644,471.714c-3.719,0-6.732-3.014-6.732-6.729
	c0-3.721,3.017-6.732,6.732-6.732s6.732,3.014,6.732,6.732C1508.375,468.701,1505.362,471.714,1501.644,471.714z M1501.644,419.714
	c-3.719,0-6.732-3.014-6.732-6.732c0-3.718,3.017-6.732,6.732-6.732s6.732,3.014,6.732,6.732
	C1508.375,416.701,1505.362,419.714,1501.644,419.714z M1501.644,367.714c-3.719,0-6.732-3.014-6.732-6.732
	c0-3.718,3.017-6.732,6.732-6.732s6.732,3.014,6.732,6.732C1508.375,364.701,1505.362,367.714,1501.644,367.714z M1501.644,315.714
	c-3.719,0-6.732-3.014-6.732-6.732c0-3.718,3.017-6.732,6.732-6.732s6.732,3.014,6.732,6.732
	C1508.375,312.701,1505.362,315.714,1501.644,315.714z M1501.644,263.714c-3.719,0-6.732-3.014-6.732-6.732
	c0-3.718,3.017-6.732,6.732-6.732s6.732,3.014,6.732,6.732C1508.375,260.701,1505.362,263.714,1501.644,263.714z M1558.214,731.713
	c-3.722,0-6.732-3.014-6.732-6.729c0-3.723,3.014-6.732,6.732-6.732c3.718,0,6.729,3.014,6.729,6.732
	C1564.946,728.702,1561.933,731.713,1558.214,731.713z M1558.214,679.713c-3.722,0-6.732-3.014-6.732-6.729
	c0-3.723,3.014-6.732,6.732-6.732c3.718,0,6.729,3.014,6.729,6.732C1564.946,676.702,1561.933,679.713,1558.214,679.713z
	 M1558.214,627.713c-3.722,0-6.732-3.014-6.732-6.729c0-3.723,3.014-6.732,6.732-6.732c3.718,0,6.729,3.014,6.729,6.732
	C1564.946,624.702,1561.933,627.713,1558.214,627.713z M1558.214,575.713c-3.722,0-6.732-3.014-6.732-6.729
	c0-3.723,3.014-6.732,6.732-6.732c3.718,0,6.729,3.014,6.729,6.732C1564.946,572.702,1561.933,575.713,1558.214,575.713z
	 M1558.214,523.714c-3.722,0-6.732-3.014-6.732-6.729c0-3.721,3.014-6.732,6.732-6.732c3.718,0,6.729,3.014,6.729,6.732
	C1564.946,520.701,1561.933,523.714,1558.214,523.714z M1558.214,471.714c-3.722,0-6.732-3.014-6.732-6.729
	c0-3.721,3.014-6.732,6.732-6.732c3.718,0,6.729,3.014,6.729,6.732C1564.946,468.701,1561.933,471.714,1558.214,471.714z
	 M1558.214,419.714c-3.722,0-6.732-3.014-6.732-6.732c0-3.718,3.014-6.732,6.732-6.732c3.718,0,6.729,3.014,6.729,6.732
	C1564.946,416.701,1561.933,419.714,1558.214,419.714z M1558.214,367.714c-3.722,0-6.732-3.014-6.732-6.732
	c0-3.718,3.014-6.732,6.732-6.732c3.718,0,6.729,3.014,6.729,6.732C1564.946,364.701,1561.933,367.714,1558.214,367.714z
	 M1614.781,731.713c-3.719,0-6.729-3.014-6.729-6.729c0-3.723,3.014-6.732,6.729-6.732s6.732,3.014,6.732,6.732
	C1621.516,728.702,1618.503,731.713,1614.781,731.713z M1614.781,679.713c-3.719,0-6.729-3.014-6.729-6.729
	c0-3.723,3.014-6.732,6.729-6.732s6.732,3.014,6.732,6.732C1621.516,676.702,1618.503,679.713,1614.781,679.713z M1614.781,627.713
	c-3.719,0-6.729-3.014-6.729-6.729c0-3.723,3.014-6.732,6.729-6.732s6.732,3.014,6.732,6.732
	C1621.516,624.702,1618.503,627.713,1614.781,627.713z M1614.781,575.713c-3.719,0-6.729-3.014-6.729-6.729
	c0-3.723,3.014-6.732,6.729-6.732s6.732,3.014,6.732,6.732C1621.516,572.702,1618.503,575.713,1614.781,575.713z M1614.781,523.714
	c-3.719,0-6.729-3.014-6.729-6.729c0-3.721,3.014-6.732,6.729-6.732s6.732,3.014,6.732,6.732
	C1621.516,520.701,1618.503,523.714,1614.781,523.714z M1614.781,471.714c-3.719,0-6.729-3.014-6.729-6.729
	c0-3.721,3.014-6.732,6.729-6.732s6.732,3.014,6.732,6.732C1621.516,468.701,1618.503,471.714,1614.781,471.714z M1614.781,419.714
	c-3.719,0-6.729-3.014-6.729-6.732c0-3.718,3.014-6.732,6.729-6.732s6.732,3.014,6.732,6.732
	C1621.516,416.701,1618.503,419.714,1614.781,419.714z M1671.355,731.713c-3.719,0-6.732-3.014-6.732-6.729
	c0-3.723,3.017-6.732,6.732-6.732s6.732,3.014,6.732,6.732C1678.087,728.702,1675.073,731.713,1671.355,731.713z M1671.355,679.713
	c-3.719,0-6.732-3.014-6.732-6.729c0-3.723,3.017-6.732,6.732-6.732s6.732,3.014,6.732,6.732
	C1678.087,676.702,1675.073,679.713,1671.355,679.713z M1671.355,627.713c-3.719,0-6.732-3.014-6.732-6.729
	c0-3.723,3.017-6.732,6.732-6.732s6.732,3.014,6.732,6.732C1678.087,624.702,1675.073,627.713,1671.355,627.713z M1671.355,575.713
	c-3.719,0-6.732-3.014-6.732-6.729c0-3.723,3.017-6.732,6.732-6.732s6.732,3.014,6.732,6.732
	C1678.087,572.702,1675.073,575.713,1671.355,575.713z M1671.355,523.714c-3.719,0-6.732-3.014-6.732-6.729
	c0-3.721,3.017-6.732,6.732-6.732s6.732,3.014,6.732,6.732C1678.087,520.701,1675.073,523.714,1671.355,523.714z M1727.925,679.713
	c-3.722,0-6.732-3.014-6.732-6.729c0-3.723,3.015-6.732,6.732-6.732s6.729,3.014,6.729,6.732
	C1734.656,676.702,1731.644,679.713,1727.925,679.713z M1727.925,627.713c-3.722,0-6.732-3.014-6.732-6.729
	c0-3.723,3.015-6.732,6.732-6.732s6.729,3.014,6.729,6.732C1734.656,624.702,1731.644,627.713,1727.925,627.713z M1727.925,575.713
	c-3.722,0-6.732-3.014-6.732-6.729c0-3.723,3.015-6.732,6.732-6.732s6.729,3.014,6.729,6.732
	C1734.656,572.702,1731.644,575.713,1727.925,575.713z M1784.492,627.713c-3.719,0-6.729-3.014-6.729-6.729
	c0-3.723,3.014-6.732,6.729-6.732c3.721,0,6.732,3.014,6.732,6.732C1791.227,624.702,1788.214,627.713,1784.492,627.713z"/>
</svg>
