<?xml version="1.0" encoding="utf-8"?>
<!-- Generator: Adobe Illustrator 16.0.0, SVG Export Plug-In . SVG Version: 6.00 Build 0)  -->
<!DOCTYPE svg PUBLIC "-//W3C//DTD SVG 1.1//EN" "http://www.w3.org/Graphics/SVG/1.1/DTD/svg11.dtd">
<svg version="1.1" id="Layer_1" xmlns="http://www.w3.org/2000/svg" xmlns:xlink="http://www.w3.org/1999/xlink" x="0px" y="0px"
	 width="700.004px" height="328.693px" viewBox="0 0 700.004 328.693" enable-background="new 0 0 700.004 328.693"
	 xml:space="preserve">
<path fill="none" stroke="#000000" stroke-linejoin="round" stroke-miterlimit="10" d="M640.631,47.62
	C640,37.424,629.51,31.671,609.112,30.449c-27.105-1.731-33.73-1.968-64.351,1.062c-4.934,0.488-50.117,4.197-75.18,6.258
	c-5.73,0.472-9.334,0.742-10.73,0.866c-27.354,2.861-52.348,5.83-74.975,8.902c-35.612,4.836-71.4,8.41-106.898,14.062
	c-21.107,3.361-31.808,5.052-31.946,5.094l-10.717,1.393c-1.027,0.088-25.747,4.932-74.091,14.506
	c-21.723,4.304-46.259,9.991-73.678,17.09c-4.38,1.188-7.886,2.031-10.407,2.65c-34.483,8.125-55.173,14.823-62.16,20.044
	c-6.267,4.625-10.47,10.577-12.592,17.926c-1.125,3.958-1.562,7.705-1.33,11.174c0.204,3.042,5.666,16.356,8.951,24.367l11.8,28.771
	l16.62,54.396l14.344,54.343c0.89,3.374,2.167,8.21,5.011,9.01c4.365,1.226,7.645,2.104,9.745,2.816
	c6.758,2.298,13.879,4.572,21.015,2.989l10.788-2.394c2.128-0.424,9.388-1.062,21.728-1.819c13.596-0.84,28.126-0.838,43.614,0.076
	l76.349,2.498l32.73-2.773c12.49-1.256,30.536-4.284,54.139-9.087c7.308-1.479,31.986-8.417,74.049-20.812
	c15.625-4.547,32.473-11.502,50.584-20.727c10.61-5.427,16.985-8.954,18.989-10.771l16.66-13.976
	c6.814-5.545,34.092-37.742,81.746-96.646c22.207-27.45,45.738-56.536,63.273-84.904C637.993,57.462,640.842,51.02,640.631,47.62z"
	/>
</svg>
