<?xml version="1.0" encoding="utf-8"?>
<!-- Generator: Adobe Illustrator 16.0.0, SVG Export Plug-In . SVG Version: 6.00 Build 0)  -->
<!DOCTYPE svg PUBLIC "-//W3C//DTD SVG 1.1//EN" "http://www.w3.org/Graphics/SVG/1.1/DTD/svg11.dtd">
<svg version="1.1" id="Layer_1" xmlns="http://www.w3.org/2000/svg" xmlns:xlink="http://www.w3.org/1999/xlink" x="0px" y="0px"
	 width="571.467px" height="311.279px" viewBox="0 0 571.467 311.279" enable-background="new 0 0 571.467 311.279"
	 xml:space="preserve">
<path fill="none" stroke="#000000" stroke-linejoin="round" stroke-miterlimit="10" d="M569.36,107.671
	c-5.808-20.601-14.909-25.312-28.808-31.069c-6.843-2.854-17.65-5.336-32.454-7.386c-23.618-3.337-49.048-7.151-76.32-11.309
	c-83.396-12.729-148.921-21.776-196.44-27.11c-14.595-1.64-30.604-3.437-43.848-4.289c-12.301-0.793-26.938-2.056-43.837-3.767
	c-18.537-1.992-36.831-2.654-54.914-2.146c-6.01,0.197-9.715,0.412-10.957,0.604c-4.534,0.812-7.867,1.867-10.03,3.009
	c-6.652,3.755-9.933,8.847-9.914,15.255c0.019,6.551,1.91,14.547,9.218,15.842c1.792,0.315,9.796,10.831,14.221,16.641
	c4.203,5.521,8.521,10.954,13.074,16.189c16.391,18.854,30.007,34.963,40.849,48.328c18.57,23.004,39.703,46.461,63.396,70.371
	c18.575,18.764,28.727,28.815,30.368,30.221c16.264,13.979,31.863,22.864,46.76,26.805l10.58,2.795
	c28.193,7.451,56.315,14.883,84.508,22.332c13.296,3.515,34.385,8.268,63.483,14.244c18.287,3.79,45.307,7.504,53.525,7.963
	c15.271,0.834,32.484-4.299,40.382-10.774c7.417-6.084,12.794-15.163,16.032-27.413c2.703-10.243,3.299-20.938,6.006-31.182
	c1.396-5.291,13.284-72.822,14.033-77.911C572.106,137.291,572.515,118.558,569.36,107.671z"/>
</svg>
