<?xml version="1.0" encoding="utf-8"?>
<!-- Generator: Adobe Illustrator 16.0.0, SVG Export Plug-In . SVG Version: 6.00 Build 0)  -->
<!DOCTYPE svg PUBLIC "-//W3C//DTD SVG 1.1//EN" "http://www.w3.org/Graphics/SVG/1.1/DTD/svg11.dtd">
<svg version="1.1" id="Layer_1" xmlns="http://www.w3.org/2000/svg" xmlns:xlink="http://www.w3.org/1999/xlink" x="0px" y="0px"
	 width="539.399px" height="495.871px" viewBox="0 0 539.399 495.871" enable-background="new 0 0 539.399 495.871"
	 xml:space="preserve">
<path fill="none" stroke="#000000" stroke-linejoin="round" stroke-miterlimit="10" d="M482.719,49.134
	c0,2.927-2.414,3.391-4.811,3.812v-0.001c-2.002-0.121-3.771-0.019-5.033,0.206l0,0l-58.826,7.875l0,0
	c-11.666,0.81-23.352,1.621-34.879,3.647c-1.668,0.293-9.543,0.771-23.689,1.501c-12.852,0.638-20.801,1.184-23.695,1.5
	c-14.285,1.562-28.666,1.772-43.023,1.952c-13.74,0.172-27.478,0.637-41.214,1.043c-3.894-0.098-8.173-0.187-12.832-0.261
	c-29.645-0.678-55.395-1.695-77.248-3.051c-26.596-1.781-40.825-2.713-42.858-3.052c-6.946-0.932-12.621-1.61-17.11-2.034
	c-11.012-0.933-18.126-1.611-21.345-2.035c-36.337-4.832-54.802-7.206-55.395-7.29c-5.422-0.51-18.72,1.016-20.668,14.324
	c-0.762,5.256,3.219,27.973,11.858,68.069l0,0l0.847,4.153l0,0c4.49,20.768,9.233,42.977,14.061,66.626
	c17.618,85.272,32.017,151.813,43.198,199.623c12.705,54.25,17.703,71.203,32.271,81.037c10.334,6.946,33.542,9.916,69.709,8.896
	c21.136-0.641,46.282-0.979,75.511-1.084l0,0c9.274,0.076,17.682-0.265,24.644-0.484c36.778-1.186,74.112,5.375,110.358-2.784
	c10.326-2.326,18.582-8.771,24.555-19.339c4.26-7.396,10.355-28.265,18.359-62.604c22.338-95.824,41.123-192.427,62.072-288.556
	c6.707-30.788,9.582-48.688,8.561-53.772c-0.027-0.146-0.059-0.29-0.088-0.432v0.004c0.623-3.458,1.781-5.179,5.502-4.984
	l-0.004-0.001c2.16,0.474,4.406,0.724,6.711,0.724c17.221,0,31.182-13.96,31.182-31.181C539.399,13.96,525.438,0,508.217,0
	s-31.182,13.96-31.182,31.181c0,6.687,2.104,12.881,5.688,17.958L482.719,49.134z"/>
</svg>
