<?xml version="1.0" encoding="utf-8"?>
<!-- Generator: Adobe Illustrator 16.0.0, SVG Export Plug-In . SVG Version: 6.00 Build 0)  -->
<!DOCTYPE svg PUBLIC "-//W3C//DTD SVG 1.1//EN" "http://www.w3.org/Graphics/SVG/1.1/DTD/svg11.dtd">
<svg version="1.1" id="Layer_1" xmlns="http://www.w3.org/2000/svg" xmlns:xlink="http://www.w3.org/1999/xlink" x="0px" y="0px"
	 width="1208.523px" height="604.062px" viewBox="0 0 1208.523 604.062" enable-background="new 0 0 1208.523 604.062"
	 xml:space="preserve">
<path d="M386.802,541.632c6.677-3.069,15.854-8.172,27.526-15.146c34.81-20.947,68.875-39.388,102.118-55.11
	c12.771-6.042,25.591-12.108,38.729-17.203c16.755-6.501,26.854-10.157,30.371-10.938l20.188-5.188
	c26.383-7.525,54.412-10.126,84.146-7.926l32.227,2.455c27.373,3.582,45.225,6.027,53.332,7.312
	c44.008,6.98,75.844,12.577,95.514,16.95c19.873,4.417,70.541,14.273,105.863,21.146c52.998,10.311,141.84,27.594,158.707,32.352
	c4.203,1.188,40.092,7.427,42.488,7.717c5.793,0.646,9.381,0.916,10.82,0.697c11.922-1.729,18.495-8.953,19.602-21.727
	c0.434-4.464-0.754-11.64-3.492-21.322c-3.131-11.444-5.271-18.256-6.354-20.403l-7.16-18.792c-1.23-4.27-5.832-9.661-13.826-16.271
	c-8.193-6.698-30.406-19.092-66.801-37.172c-53.597-26.621-107.605-52.396-161.062-79.305c-6.051-3.045-32.811-17.097-80.148-42.249
	c-52.424-27.851-104.562-56.262-155.434-86.876c-17.828-10.729-30.463-18.089-37.906-22.079L552.706,81.493l-94.772-58.324
	c-2.25-1.489-24.372-13.209-35.44-16.86c-31.934-10.459-63.411-7.916-94.6,7.634c-22.135,11.036-42.688,24.904-64.199,37.069
	c-4.647,2.629-48.422,30.233-72.563,45.458c-18.325,11.558-29.575,20.384-33.719,26.414c-4.237,6.065-6.784,14.159-7.48,24.112
	c-0.601,7.628-0.324,18.574,0.752,32.646c2.498,32.674,4.388,65.455,2.687,98.211l-0.567,10.882
	c-0.809,15.274-1.688,26.332-2.611,33.102c-3.809,28.222-6.979,42.431-15.803,64.438c-7.884,19.744-12.078,30.098-12.624,30.953
	l-11.709,19.124c-2.505,4.32-23.423,33.354-32.972,45.234c-27.638,34.292-46.771,57.096-57.274,68.471l-7.569,8.196
	c-0.403,0.37-11.655,18.832-11.709,19.124c-2.396,11.085,3.366,18.979,17.312,23.609c5.686,1.932,12.909,2.896,21.615,3.038
	c12.544,0.209,26.985-0.462,43.362-1.92c7.673-0.729,14.87-1.271,21.591-1.638c46.537-2.521,92.439-11.229,138.723-16.314
	C293.169,578.654,341.188,562.599,386.802,541.632z M1144.251,433.838c1.712-3.301,5.773-4.589,9.074-2.877
	c3.303,1.713,4.589,5.775,2.877,9.076c-1.713,3.302-5.772,4.589-9.074,2.877C1143.825,441.203,1142.538,437.139,1144.251,433.838z
	 M1120.309,479.999c1.713-3.301,5.771-4.589,9.074-2.877c3.303,1.713,4.59,5.774,2.877,9.076c-1.711,3.302-5.773,4.589-9.074,2.877
	C1119.885,487.363,1118.596,483.299,1120.309,479.999z M1094.032,407.791c1.713-3.301,5.775-4.588,9.076-2.876
	s4.59,5.772,2.877,9.076c-1.713,3.301-5.773,4.589-9.076,2.876C1093.609,415.156,1092.32,411.093,1094.032,407.791z
	 M1070.092,453.952c1.713-3.301,5.772-4.588,9.073-2.876c3.304,1.712,4.592,5.771,2.877,9.076c-1.713,3.301-5.771,4.589-9.073,2.876
	C1069.667,461.316,1068.379,457.253,1070.092,453.952z M1043.816,381.746c1.711-3.305,5.773-4.589,9.076-2.877
	c3.301,1.712,4.588,5.773,2.877,9.074c-1.715,3.304-5.775,4.591-9.076,2.879C1043.391,389.107,1042.103,385.046,1043.816,381.746z
	 M1019.872,427.906c1.713-3.301,5.775-4.589,9.076-2.877c3.303,1.713,4.588,5.771,2.877,9.076c-1.713,3.302-5.772,4.589-9.075,2.877
	C1019.448,435.27,1018.161,431.207,1019.872,427.906z M993.598,355.699c1.713-3.303,5.772-4.592,9.076-2.876
	c3.301,1.712,4.588,5.772,2.877,9.073c-1.713,3.304-5.775,4.588-9.076,2.877C993.176,363.062,991.885,359,993.598,355.699z
	 M969.655,401.857c1.713-3.303,5.773-4.588,9.076-2.875c3.301,1.711,4.59,5.771,2.877,9.074s-5.773,4.59-9.076,2.875
	C969.232,409.225,967.943,405.161,969.655,401.857z M957.667,454.219c-1.715,3.306-5.772,4.589-9.075,2.877
	c-3.304-1.713-4.588-5.771-2.877-9.071c1.713-3.307,5.772-4.594,9.073-2.882C958.092,446.855,959.381,450.918,957.667,454.219z
	 M943.383,329.65c1.711-3.301,5.771-4.588,9.075-2.877c3.302,1.715,4.589,5.773,2.875,9.076c-1.713,3.301-5.772,4.59-9.075,2.877
	C942.954,337.018,941.67,332.954,943.383,329.65z M919.439,375.812c1.711-3.301,5.773-4.588,9.074-2.877
	c3.303,1.713,4.59,5.772,2.877,9.073c-1.713,3.306-5.773,4.593-9.074,2.88C919.014,383.176,917.727,379.114,919.439,375.812z
	 M907.448,428.172c-1.711,3.302-5.772,4.589-9.076,2.877c-3.301-1.712-4.588-5.771-2.877-9.076c1.715-3.301,5.775-4.589,9.076-2.875
	C907.872,420.811,909.161,424.872,907.448,428.172z M893.163,303.604c1.716-3.298,5.775-4.586,9.076-2.875
	c3.303,1.713,4.588,5.775,2.877,9.078c-1.713,3.303-5.772,4.59-9.074,2.877C892.739,310.973,891.45,306.907,893.163,303.604z
	 M869.221,349.768c1.713-3.303,5.772-4.588,9.076-2.875c3.301,1.711,4.588,5.771,2.877,9.073c-1.713,3.304-5.773,4.591-9.076,2.876
	C868.799,357.13,867.51,353.066,869.221,349.768z M857.232,402.126c-1.713,3.301-5.775,4.589-9.076,2.876
	c-3.301-1.712-4.59-5.771-2.877-9.075c1.713-3.302,5.773-4.589,9.076-2.877C857.655,394.764,858.945,398.825,857.232,402.126z
	 M842.947,277.56c1.711-3.301,5.773-4.589,9.076-2.876c3.301,1.712,4.588,5.775,2.875,9.076c-1.711,3.301-5.772,4.589-9.076,2.876
	C842.521,284.923,841.234,280.861,842.947,277.56z M819.006,323.723c1.711-3.305,5.771-4.592,9.073-2.88
	c3.304,1.714,4.591,5.775,2.875,9.076c-1.711,3.304-5.771,4.589-9.073,2.877C818.579,331.083,817.292,327.021,819.006,323.723z
	 M807.014,376.08c-1.713,3.302-5.773,4.589-9.074,2.877c-3.303-1.712-4.59-5.773-2.877-9.076c1.711-3.302,5.773-4.589,9.074-2.877
	C807.439,368.716,808.727,372.777,807.014,376.08z M792.728,251.513c1.713-3.301,5.775-4.589,9.076-2.876
	c3.301,1.713,4.59,5.775,2.877,9.076c-1.713,3.301-5.775,4.588-9.076,2.876C792.303,258.877,791.016,254.814,792.728,251.513z
	 M783.072,422.24c-1.711,3.301-5.772,4.589-9.076,2.877c-3.301-1.712-4.588-5.776-2.877-9.076c1.714-3.3,5.775-4.589,9.076-2.877
	C783.497,414.876,784.784,418.939,783.072,422.24z M768.786,297.673c1.715-3.301,5.775-4.589,9.076-2.876
	c3.301,1.712,4.588,5.775,2.877,9.077c-1.713,3.301-5.772,4.588-9.076,2.876C768.363,305.038,767.073,300.975,768.786,297.673z
	 M756.799,350.034c-1.714,3.301-5.773,4.589-9.076,2.876c-3.301-1.712-4.59-5.771-2.877-9.076c1.713-3.301,5.772-4.589,9.076-2.876
	C757.221,342.669,758.51,346.73,756.799,350.034z M742.51,225.467c1.713-3.301,5.772-4.589,9.076-2.876
	c3.303,1.712,4.59,5.775,2.877,9.076c-1.711,3.301-5.773,4.589-9.076,2.876C742.088,232.83,740.801,228.768,742.51,225.467z
	 M732.855,396.193c-1.711,3.301-5.775,4.59-9.076,2.877s-4.588-5.775-2.877-9.075c1.713-3.304,5.773-4.589,9.076-2.877
	C733.279,388.83,734.566,392.895,732.855,396.193z M718.57,271.627c1.711-3.301,5.773-4.588,9.076-2.876
	c3.301,1.712,4.588,5.775,2.875,9.076c-1.711,3.301-5.773,4.589-9.076,2.876C718.145,278.991,716.857,274.928,718.57,271.627z
	 M706.579,323.984c-1.713,3.304-5.772,4.592-9.073,2.88c-3.304-1.716-4.589-5.775-2.877-9.076c1.713-3.304,5.772-4.589,9.073-2.877
	C707.006,316.623,708.292,320.688,706.579,323.984z M692.295,199.42c1.713-3.301,5.772-4.589,9.073-2.876
	c3.304,1.712,4.592,5.775,2.877,9.076c-1.713,3.301-5.772,4.589-9.073,2.877C691.868,206.784,690.581,202.721,692.295,199.42z
	 M682.637,370.146c-1.711,3.303-5.773,4.59-9.074,2.877c-3.303-1.711-4.59-5.774-2.877-9.074c1.711-3.303,5.773-4.59,9.074-2.879
	C683.062,362.784,684.35,366.85,682.637,370.146z M668.352,245.581c1.713-3.301,5.775-4.589,9.076-2.876
	c3.303,1.712,4.588,5.775,2.877,9.076c-1.713,3.301-5.775,4.589-9.076,2.876C667.927,252.945,666.639,248.882,668.352,245.581z
	 M658.695,416.309c-1.711,3.303-5.772,4.59-9.076,2.877c-3.301-1.713-4.588-5.772-2.877-9.074c1.713-3.303,5.775-4.59,9.076-2.877
	C659.12,408.943,660.407,413.007,658.695,416.309z M656.363,297.94c-1.713,3.301-5.772,4.588-9.076,2.876
	c-3.301-1.712-4.59-5.775-2.877-9.076c1.713-3.301,5.775-4.588,9.076-2.876C656.786,290.577,658.073,294.639,656.363,297.94z
	 M642.075,173.374c1.713-3.301,5.775-4.589,9.076-2.876c3.303,1.712,4.59,5.775,2.877,9.076c-1.711,3.301-5.772,4.588-9.076,2.876
	C641.652,180.738,640.364,176.675,642.075,173.374z M632.422,344.104c-1.714,3.299-5.773,4.588-9.076,2.875
	c-3.301-1.711-4.588-5.772-2.877-9.076c1.711-3.299,5.772-4.588,9.076-2.875C632.844,336.734,634.133,340.8,632.422,344.104z
	 M618.135,219.534c1.711-3.301,5.771-4.589,9.076-2.876c3.301,1.712,4.588,5.775,2.875,9.076c-1.713,3.301-5.773,4.589-9.076,2.876
	C617.711,226.898,616.424,222.835,618.135,219.534z M608.478,390.264c-1.713,3.299-5.774,4.588-9.076,2.875
	c-3.303-1.714-4.588-5.774-2.876-9.074c1.712-3.301,5.772-4.59,9.075-2.877C608.902,382.896,610.189,386.96,608.478,390.264z
	 M606.145,271.894c-1.711,3.301-5.773,4.589-9.075,2.876c-3.303-1.712-4.588-5.775-2.876-9.076c1.712-3.301,5.772-4.588,9.076-2.876
	C606.57,264.53,607.857,268.593,606.145,271.894z M591.86,147.327c1.713-3.301,5.773-4.589,9.076-2.876
	c3.302,1.712,4.587,5.775,2.877,9.076c-1.714,3.301-5.775,4.589-9.076,2.876C591.437,154.69,590.148,150.628,591.86,147.327z
	 M582.202,318.057c-1.711,3.301-5.772,4.588-9.073,2.877c-3.304-1.714-4.591-5.774-2.876-9.076c1.712-3.301,5.772-4.59,9.073-2.877
	C582.63,310.688,583.917,314.754,582.202,318.057z M567.919,193.488c1.712-3.301,5.772-4.589,9.073-2.877
	c3.304,1.712,4.591,5.775,2.876,9.076c-1.712,3.301-5.772,4.589-9.073,2.876C567.492,200.852,566.204,196.789,567.919,193.488z
	 M558.262,364.214c-1.712,3.304-5.773,4.591-9.075,2.877c-3.302-1.712-4.589-5.774-2.877-9.073c1.713-3.303,5.775-4.592,9.076-2.877
	C558.687,356.854,559.974,360.915,558.262,364.214z M555.929,245.847c-1.712,3.301-5.773,4.589-9.076,2.877
	c-3.301-1.712-4.589-5.775-2.875-9.076c1.713-3.301,5.774-4.589,9.075-2.877C556.353,238.483,557.641,242.546,555.929,245.847z
	 M541.643,121.281c1.712-3.301,5.775-4.589,9.076-2.876c3.302,1.712,4.588,5.775,2.876,9.076c-1.712,3.301-5.773,4.588-9.076,2.876
	C541.219,128.645,539.931,124.582,541.643,121.281z M534.32,410.375c-1.711,3.3-5.772,4.588-9.076,2.876
	c-3.301-1.712-4.588-5.774-2.876-9.076c1.712-3.3,5.775-4.589,9.076-2.876C534.743,403.011,536.031,407.075,534.32,410.375z
	 M531.986,292.008c-1.711,3.3-5.772,4.589-9.076,2.876c-3.301-1.712-4.588-5.776-2.876-9.076c1.712-3.3,5.775-4.589,9.076-2.876
	C532.411,284.645,533.698,288.707,531.986,292.008z M517.699,167.441c1.712-3.301,5.773-4.589,9.076-2.876
	c3.301,1.713,4.589,5.775,2.876,9.076c-1.712,3.301-5.773,4.589-9.076,2.876C517.276,174.805,515.988,170.742,517.699,167.441z
	 M510.379,456.536c-1.715,3.3-5.775,4.588-9.076,2.876s-4.588-5.775-2.876-9.076c1.711-3.3,5.772-4.589,9.076-2.876
	C510.802,449.171,512.09,453.235,510.379,456.536z M508.045,338.168c-1.715,3.3-5.775,4.588-9.076,2.876s-4.588-5.772-2.876-9.073
	c1.711-3.303,5.772-4.592,9.076-2.879C508.469,330.807,509.757,334.868,508.045,338.168z M505.712,219.801
	c-1.715,3.301-5.773,4.589-9.076,2.876c-3.301-1.712-4.589-5.775-2.877-9.076c1.712-3.301,5.772-4.589,9.076-2.877
	C506.136,212.437,507.424,216.5,505.712,219.801z M491.426,95.234c1.712-3.301,5.772-4.589,9.075-2.876
	c3.302,1.712,4.59,5.775,2.878,9.076c-1.715,3.301-5.775,4.589-9.076,2.876C491.002,102.598,489.714,98.536,491.426,95.234z
	 M484.102,384.329c-1.711,3.3-5.773,4.589-9.074,2.876c-3.303-1.712-4.588-5.773-2.876-9.076c1.712-3.3,5.773-4.589,9.074-2.876
	C484.527,376.964,485.814,381.025,484.102,384.329z M481.769,265.961c-1.712,3.3-5.773,4.589-9.074,2.876
	c-3.303-1.712-4.588-5.776-2.876-9.076c1.712-3.3,5.773-4.589,9.074-2.876C482.194,258.597,483.481,262.661,481.769,265.961z
	 M467.483,141.395c1.712-3.301,5.773-4.589,9.074-2.876c3.303,1.713,4.591,5.775,2.876,9.076c-1.713,3.301-5.773,4.589-9.074,2.876
	C467.058,148.758,465.771,144.696,467.483,141.395z M460.158,430.489c-1.712,3.3-5.772,4.589-9.073,2.876
	c-3.304-1.712-4.591-5.775-2.879-9.076c1.714-3.3,5.775-4.588,9.076-2.876C460.585,423.124,461.87,427.188,460.158,430.489z
	 M457.825,312.122c-1.712,3.3-5.772,4.589-9.074,2.877c-3.303-1.713-4.59-5.774-2.879-9.076c1.715-3.301,5.775-4.589,9.076-2.877
	C458.252,304.757,459.537,308.82,457.825,312.122z M455.492,193.754c-1.712,3.301-5.772,4.589-9.073,2.877
	c-3.304-1.712-4.592-5.775-2.88-9.076c1.715-3.301,5.775-4.589,9.076-2.877C455.919,186.391,457.204,190.454,455.492,193.754z
	 M441.206,69.188c1.715-3.301,5.775-4.589,9.076-2.876c3.304,1.712,4.589,5.775,2.876,9.076c-1.712,3.301-5.772,4.589-9.073,2.877
	C440.782,76.552,439.494,72.489,441.206,69.188z M436.219,476.649c-1.711,3.3-5.773,4.589-9.076,2.877
	c-3.301-1.714-4.588-5.776-2.876-9.076c1.712-3.301,5.772-4.589,9.076-2.877C436.643,469.285,437.93,473.348,436.219,476.649z
	 M433.885,358.282c-1.712,3.301-5.773,4.589-9.076,2.877c-3.301-1.716-4.588-5.776-2.876-9.076c1.714-3.301,5.772-4.589,9.076-2.877
	C434.31,350.918,435.597,354.98,433.885,358.282z M431.552,239.915c-1.712,3.301-5.773,4.589-9.076,2.877
	c-3.301-1.712-4.588-5.776-2.876-9.076c1.714-3.3,5.775-4.589,9.076-2.876C431.976,232.551,433.264,236.615,431.552,239.915z
	 M417.266,115.348c1.712-3.301,5.772-4.589,9.076-2.876c3.301,1.712,4.589,5.775,2.876,9.076c-1.713,3.301-5.773,4.589-9.076,2.876
	C416.842,122.712,415.554,118.649,417.266,115.348z M409.943,404.441c-1.712,3.302-5.772,4.59-9.076,2.877
	c-3.301-1.713-4.588-5.775-2.877-9.075c1.712-3.304,5.773-4.589,9.076-2.877C410.365,397.079,411.654,401.143,409.943,404.441z
	 M407.609,286.075c-1.711,3.3-5.772,4.589-9.076,2.876c-3.301-1.712-4.588-5.776-2.877-9.076c1.712-3.3,5.773-4.589,9.076-2.876
	C408.032,278.711,409.321,282.775,407.609,286.075z M405.276,167.708c-1.712,3.301-5.772,4.589-9.076,2.876
	c-3.301-1.712-4.588-5.775-2.876-9.076c1.712-3.301,5.773-4.589,9.076-2.876C405.699,160.345,406.989,164.407,405.276,167.708z
	 M390.99,43.142c1.712-3.301,5.773-4.589,9.076-2.876c3.301,1.712,4.589,5.775,2.876,9.076c-1.712,3.301-5.772,4.589-9.076,2.877
	C390.566,50.505,389.278,46.442,390.99,43.142z M65.419,577.218c-1.712,3.302-5.773,4.589-9.074,2.877
	c-3.303-1.713-4.591-5.771-2.878-9.075c1.714-3.303,5.775-4.59,9.076-2.878C65.845,569.854,67.131,573.917,65.419,577.218z
	 M89.362,531.058c-1.712,3.306-5.774,4.594-9.075,2.876c-3.302-1.712-4.589-5.771-2.876-9.071c1.712-3.306,5.774-4.589,9.075-2.876
	C89.786,523.694,91.074,527.756,89.362,531.058z M113.305,484.898c-1.714,3.3-5.775,4.589-9.076,2.876
	c-3.301-1.714-4.588-5.775-2.876-9.076c1.711-3.3,5.773-4.589,9.076-2.876C113.729,477.534,115.017,481.597,113.305,484.898z
	 M125.293,432.538c1.712-3.3,5.774-4.589,9.076-2.876c3.301,1.712,4.588,5.771,2.876,9.075c-1.711,3.301-5.773,4.589-9.076,2.877
	C124.869,439.902,123.581,435.838,125.293,432.538z M139.579,557.104c-1.712,3.303-5.773,4.59-9.076,2.878
	c-3.301-1.717-4.589-5.775-2.877-9.076s5.774-4.589,9.076-2.877C140.003,549.741,141.291,553.803,139.579,557.104z M149.236,386.377
	c1.711-3.3,5.775-4.589,9.076-2.877c3.301,1.713,4.588,5.773,2.876,9.076c-1.712,3.301-5.774,4.589-9.076,2.877
	C148.811,393.741,147.524,389.68,149.236,386.377z M163.522,510.944c-1.712,3.301-5.774,4.589-9.076,2.877
	c-3.301-1.712-4.588-5.776-2.876-9.076c1.711-3.301,5.775-4.589,9.076-2.877C163.947,503.581,165.234,507.644,163.522,510.944z
	 M170.845,221.85c1.712-3.3,5.773-4.589,9.074-2.876c3.303,1.712,4.588,5.776,2.876,9.076c-1.711,3.3-5.773,4.588-9.074,2.876
	C170.42,229.214,169.132,225.15,170.845,221.85z M173.178,340.217c1.712-3.301,5.773-4.589,9.074-2.877
	c3.303,1.715,4.588,5.776,2.876,9.076c-1.711,3.301-5.773,4.589-9.074,2.877C172.753,347.581,171.466,343.52,173.178,340.217z
	 M187.463,464.784c-1.712,3.301-5.773,4.589-9.074,2.877c-3.303-1.713-4.59-5.776-2.877-9.076c1.712-3.301,5.773-4.589,9.074-2.877
	C187.889,457.419,189.175,461.484,187.463,464.784z M386.001,450.602c-1.715,3.306-5.775,4.594-9.076,2.882
	c-3.304-1.717-4.588-5.775-2.876-9.076c1.712-3.3,5.772-4.589,9.073-2.877C386.426,443.24,387.713,447.302,386.001,450.602z
	 M383.665,332.234c-1.712,3.302-5.772,4.591-9.073,2.875c-3.304-1.711-4.588-5.772-2.876-9.073c1.711-3.302,5.772-4.589,9.073-2.876
	C384.093,324.872,385.38,328.938,383.665,332.234z M381.335,213.868c-1.715,3.3-5.775,4.589-9.076,2.877s-4.588-5.776-2.876-9.076
	c1.711-3.3,5.772-4.589,9.075-2.876C381.76,206.504,383.047,210.568,381.335,213.868z M367.05,89.302
	c1.712-3.301,5.772-4.589,9.076-2.876c3.301,1.712,4.589,5.775,2.877,9.076c-1.715,3.301-5.775,4.589-9.076,2.876
	C366.622,96.666,365.337,92.603,367.05,89.302z M362.058,496.763c-1.711,3.305-5.773,4.589-9.074,2.876
	c-3.303-1.712-4.59-5.771-2.877-9.071c1.712-3.305,5.773-4.594,9.074-2.876C362.483,489.399,363.771,493.462,362.058,496.763z
	 M359.725,378.396c-1.711,3.299-5.773,4.588-9.074,2.875c-3.303-1.711-4.589-5.773-2.876-9.076c1.712-3.299,5.773-4.588,9.074-2.875
	S361.437,375.098,359.725,378.396z M357.392,260.029c-1.711,3.3-5.773,4.589-9.074,2.876c-3.303-1.712-4.59-5.776-2.876-9.076
	c1.712-3.3,5.773-4.589,9.074-2.876C357.817,252.665,359.104,256.728,357.392,260.029z M343.106,135.462
	c1.712-3.301,5.773-4.588,9.074-2.876c3.303,1.712,4.59,5.775,2.876,9.076c-1.712,3.301-5.773,4.589-9.074,2.876
	C342.682,142.826,341.394,138.763,343.106,135.462z M338.115,542.923c-1.712,3.3-5.772,4.589-9.076,2.876
	c-3.301-1.712-4.588-5.771-2.876-9.076c1.715-3.3,5.775-4.589,9.076-2.876C338.539,535.559,339.826,539.623,338.115,542.923z
	 M335.781,424.556c-1.712,3.305-5.772,4.594-9.076,2.876c-3.301-1.712-4.588-5.771-2.876-9.072c1.713-3.303,5.775-4.59,9.076-2.877
	C336.205,417.191,337.493,421.255,335.781,424.556z M333.448,306.188c-1.712,3.302-5.772,4.588-9.076,2.877
	c-3.301-1.713-4.588-5.774-2.876-9.074c1.714-3.301,5.775-4.589,9.076-2.877C333.872,298.825,335.16,302.891,333.448,306.188z
	 M331.115,187.822c-1.712,3.3-5.772,4.589-9.075,2.877c-3.302-1.712-4.589-5.776-2.877-9.076s5.775-4.589,9.076-2.877
	C331.539,180.458,332.827,184.521,331.115,187.822z M316.829,63.255c1.715-3.301,5.775-4.589,9.076-2.876
	c3.301,1.712,4.589,5.775,2.877,9.076c-1.712,3.301-5.772,4.588-9.076,2.876C316.406,70.619,315.117,66.557,316.829,63.255z
	 M311.842,470.716c-1.711,3.3-5.773,4.589-9.076,2.877c-3.301-1.713-4.588-5.771-2.876-9.076c1.712-3.301,5.772-4.589,9.076-2.877
	C312.266,463.352,313.553,467.416,311.842,470.716z M309.509,352.352c-1.711,3.301-5.775,4.588-9.076,2.877
	c-3.303-1.713-4.588-5.774-2.876-9.076c1.712-3.301,5.772-4.59,9.076-2.877C309.933,344.982,311.22,349.049,309.509,352.352z
	 M307.176,233.982c-1.712,3.3-5.775,4.588-9.076,2.876c-3.303-1.712-4.588-5.776-2.876-9.076c1.712-3.3,5.772-4.589,9.076-2.876
	C307.6,226.618,308.887,230.682,307.176,233.982z M292.889,109.416c1.712-3.301,5.772-4.589,9.076-2.876
	c3.301,1.713,4.589,5.775,2.876,9.076c-1.713,3.301-5.775,4.589-9.076,2.876C292.463,116.78,291.177,112.717,292.889,109.416z
	 M287.899,516.876c-1.712,3.301-5.774,4.589-9.076,2.877c-3.301-1.713-4.588-5.775-2.876-9.076s5.775-4.589,9.076-2.877
	C288.323,509.512,289.611,513.577,287.899,516.876z M285.566,398.509c-1.712,3.302-5.774,4.591-9.075,2.878
	c-3.302-1.713-4.589-5.775-2.877-9.074c1.712-3.301,5.775-4.59,9.076-2.877C285.99,391.146,287.277,395.209,285.566,398.509z
	 M283.233,280.143c-1.712,3.3-5.774,4.589-9.075,2.876c-3.302-1.712-4.589-5.776-2.878-9.076c1.713-3.3,5.775-4.589,9.076-2.876
	C283.656,272.779,284.944,276.842,283.233,280.143z M268.947,155.576c1.713-3.3,5.775-4.588,9.076-2.876s4.588,5.776,2.877,9.076
	c-1.712,3.3-5.774,4.589-9.075,2.876C268.522,162.94,267.235,158.876,268.947,155.576z M263.956,563.037
	c-1.711,3.301-5.773,4.589-9.076,2.877c-3.301-1.712-4.588-5.776-2.876-9.076c1.712-3.301,5.774-4.589,9.076-2.877
	C264.38,555.673,265.667,559.737,263.956,563.037z M261.623,444.669c-1.711,3.301-5.773,4.589-9.076,2.877
	c-3.301-1.712-4.588-5.771-2.876-9.076c1.712-3.3,5.774-4.589,9.076-2.877C262.047,437.306,263.334,441.37,261.623,444.669z
	 M259.29,326.303c-1.712,3.303-5.773,4.59-9.076,2.879c-3.301-1.715-4.588-5.773-2.876-9.076c1.712-3.301,5.774-4.59,9.076-2.877
	C259.714,318.938,261.001,323.002,259.29,326.303z M256.956,207.936c-1.712,3.3-5.773,4.588-9.076,2.876
	c-3.301-1.712-4.588-5.776-2.876-9.076c1.711-3.3,5.774-4.589,9.076-2.876C257.381,200.572,258.668,204.635,256.956,207.936z
	 M194.787,175.69c1.711-3.3,5.774-4.589,9.075-2.877c3.302,1.712,4.589,5.776,2.877,9.076c-1.713,3.3-5.775,4.589-9.076,2.877
	S193.075,178.99,194.787,175.69z M197.12,294.057c1.711-3.3,5.774-4.588,9.075-2.876c3.302,1.712,4.589,5.776,2.877,9.076
	c-1.713,3.304-5.775,4.591-9.076,2.877C196.696,301.42,195.408,297.357,197.12,294.057z M199.453,412.424
	c1.712-3.301,5.774-4.589,9.075-2.877c3.302,1.712,4.589,5.773,2.876,9.076c-1.712,3.3-5.774,4.589-9.075,2.877
	S197.741,415.725,199.453,412.424z M213.739,536.991c-1.712,3.3-5.774,4.589-9.075,2.876c-3.302-1.712-4.588-5.775-2.876-9.076
	c1.712-3.3,5.774-4.589,9.075-2.876C214.163,529.626,215.45,533.69,213.739,536.991z M218.729,129.529
	c1.712-3.3,5.773-4.588,9.076-2.876c3.301,1.712,4.588,5.776,2.876,9.076c-1.711,3.3-5.774,4.589-9.076,2.876
	C218.305,136.894,217.018,132.83,218.729,129.529z M221.062,247.896c1.712-3.3,5.773-4.589,9.076-2.876
	c3.301,1.712,4.588,5.776,2.876,9.076c-1.711,3.3-5.775,4.589-9.076,2.876C220.638,255.26,219.351,251.197,221.062,247.896z
	 M223.395,366.266c1.712-3.303,5.773-4.592,9.076-2.877c3.301,1.713,4.588,5.773,2.877,9.074c-1.712,3.303-5.774,4.589-9.076,2.876
	C222.971,373.627,221.684,369.562,223.395,366.266z M237.682,490.831c-1.712,3.3-5.774,4.588-9.076,2.876
	c-3.301-1.712-4.588-5.775-2.876-9.076c1.711-3.3,5.773-4.589,9.076-2.876C238.106,483.466,239.393,487.53,237.682,490.831z
	 M242.671,83.369c1.712-3.301,5.774-4.589,9.076-2.876c3.301,1.712,4.588,5.775,2.876,9.076c-1.712,3.301-5.773,4.589-9.076,2.876
	C242.246,90.732,240.958,86.67,242.671,83.369z"/>
</svg>
