<?xml version="1.0" encoding="utf-8"?>
<!-- Generator: Adobe Illustrator 16.0.0, SVG Export Plug-In . SVG Version: 6.00 Build 0)  -->
<!DOCTYPE svg PUBLIC "-//W3C//DTD SVG 1.1//EN" "http://www.w3.org/Graphics/SVG/1.1/DTD/svg11.dtd">
<svg version="1.1" id="Layer_1" xmlns="http://www.w3.org/2000/svg" xmlns:xlink="http://www.w3.org/1999/xlink" x="0px" y="0px"
	 width="1092.003px" height="638.907px" viewBox="0 0 1092.003 638.907" enable-background="new 0 0 1092.003 638.907"
	 xml:space="preserve">
<path fill="none" stroke="#000000" stroke-linejoin="round" stroke-miterlimit="10" d="M1077.494,427.393l-9.732-5.645
	c-6.479-3.73-16.188-9.439-29.059-17.101c-3.258-1.912-6.449-3.799-9.709-5.713l-29.637-16.642l-47.25-28.082
	c-23.045-13.693-47.371-25.078-70.684-38.295c-14.256-8.084-43.156-23.322-86.596-45.593
	c-33.064-16.953-88.654-45.452-99.809-49.648c-29.938-11.267-57.498-27.888-86.922-40.342l-95.478-40.418
	c-14.033-5.94-39.981-16.968-42.107-17.809c-21.098-8.332-41.544-18.283-62.942-25.841c-33.542-11.844-95.724-33.499-100.5-35.885
	c-36.653-18.322-78.98-24.812-112.751-48.751l-12.126-9.065c-1.636-1.312-3.628-2.146-5.976-2.506
	c-5.027-0.858-19.805,7.39-44.334,24.744c-6.827,4.829-13.81,9.456-21.213,13.357c-5.612,2.959-15.416,8.84-29.414,17.651
	c-7.837,4.912-14.165,9.208-18.893,12.847l1.993,0.835c25.241,10.582,35.885,60.475,43.221,94.862l2.396,11.231
	c2.955,13.809,4.652,25.215,4.999,34.262l0.479,11.52c1.157,27.85-11.679,57.504,1.807,83.591
	c4.225,8.172,13.581,17.328,15.003,17.845c29.572,10.771,84.301,30.654,88.655,32.479c14.387,6.031,40.957,17.307,43.161,18.094
	l163.646,58.455c49.123,17.547,98.277,34.998,147.485,52.305c25.402,8.939,72.385,25.529,76.264,26.662
	c9.25,2.707,34.152,11.273,74.518,25.617c29.26,10.471,54.014,19.209,74.33,26.242c10.574,3.662,21.516,6.287,31.852,10.619
	c7.844,3.289,15.979,5.777,24.135,8.168c4.938,1.441,15.627,4.439,32.064,8.992l10.688,2.996
	c14.482,4.062,28.994,8.027,43.604,11.643l23.016,5.434c14.203,3.355,26.803,11.324,40.73,15.518
	c11.061,3.326,21.146,9.967,32.48,12.838c1.41,0.354,10.197-1.424,15.229-5.406c4.012-3.234,6.662-7.512,8.074-12.93
	c0.928-3.52-0.021-14.842-2.66-34.057c-1.408-10.264-4.137-18.854-13.439-24.369c-4.678-2.775-9.299-5.646-13.926-8.506
	c-6.639-4.098-13.258-8.227-20.006-12.137c-4.932-2.854-10.355-5.365-14.293-9.602c-2.6-2.795-8.617-12.721-3.246-15.695
	c2.096-1.16,6.68-0.02,8.701,0.828l27.889,11.691c6.557,2.746,14.221,2.299,19.455-3.135c4.635-4.812,4.432-11.176,4-17.248
	c-0.797-11.223,6.311-20.646,14.641-27.521l8.271-6.826c0.664,0.279,8.334-6.656,9.766-8.395
	C1092.373,459.315,1097.828,439.042,1077.494,427.393z"/>
</svg>
