<?xml version="1.0" encoding="utf-8"?>
<!-- Generator: Adobe Illustrator 16.0.0, SVG Export Plug-In . SVG Version: 6.00 Build 0)  -->
<!DOCTYPE svg PUBLIC "-//W3C//DTD SVG 1.1//EN" "http://www.w3.org/Graphics/SVG/1.1/DTD/svg11.dtd">
<svg version="1.1" id="Layer_1" xmlns="http://www.w3.org/2000/svg" xmlns:xlink="http://www.w3.org/1999/xlink" x="0px" y="0px"
	 width="1261.912px" height="525.449px" viewBox="0 0 1261.912 525.449" enable-background="new 0 0 1261.912 525.449"
	 xml:space="preserve">
<path d="M1259.885,290.293c-1.946-32.742-3.834-65.494-4.853-98.279c-0.842-27.143-1.373-41.736-1.647-43.733
	c-0.688-4.36-1.521-7.807-2.634-10.501c-6.314-15.235-21.93-22.285-36.78-22.884c-0.715-0.029-4.291,0.232-10.73,0.791
	c-35.818,3.086-77.062,6.641-107.657,6.15c-46.029-0.735-74.895-1.441-86.541-1.962c-18.814-0.861-33.166-1.339-42.954-1.224
	l-76.082-1.032c-7.188,0.066-21.688-0.366-43.464-1.245c-21.365-0.861-39.347-2.301-54.146-4.223
	c-28.046-3.643-56.129-7.019-84.3-9.517c-9.494-0.842-16.647-1.59-21.36-2.237c-23.271-3.204-78.429-8.065-117.694-11.526
	c-39.271-3.462-96.675-8.521-117.771-10.866c-28.053-3.118-45.907-5.062-53.37-5.72c-7.06-0.642-10.662-0.938-10.662-0.938
	c-17.815-1.476-34.949-7.024-52.476-10.271c-15.123-2.802-25.641-4.855-31.504-6.01c-9.348-1.957-16.369-3.412-20.974-4.259
	C230.953,41.14,181.91,31.721,135.355,22.454c-31.44-6.26-63.016-11.807-94.451-18.078L30.341,2.269
	c-11.22-2.286-18.18-2.822-20.873-1.707C4.127,2.843-1.601,10.967,0.413,19.101c0.928,3.552,4.812,8.295,11.812,14.183
	c5.517,4.706,29.772,21.021,30.125,21.188l77.778,46.091c26.964,15.979,54.62,30.798,81.025,47.701l9.09,5.819
	c0.399,0.22,6.841,3.486,19.376,9.749c29.01,14.494,72.116,36.031,87.67,42.161c26.881,10.591,53.29,22.326,79.977,33.393
	c31.725,13.15,74.515,32.351,128.319,57.556c24.307,11.375,37.247,17.654,38.938,18.742l9.087,5.92
	c12.066,7.773,21.486,12.994,28.464,15.67c10.031,3.854,20.699,5.607,30.984,8.643c27.479,8.102,55.14,15.584,82.604,23.715
	c52.015,15.396,144.891,42.18,278.63,80.337c56.923,16.258,91.323,26.154,103.262,29.646c40.784,12.039,68.334,20.026,82.545,23.965
	c17.188,4.766,34.091,10.5,51.188,15.568l21.268,6.303l0.435-26.314l-0.485-0.528c1.104-7.089,1.898-14.291,2.397-21.605
	c1.999-29.301,3.036-58.666,5.586-87.926C1262.571,365.1,1262.37,332.174,1259.885,290.293z"/>
</svg>
