<?xml version="1.0" encoding="utf-8"?>
<!-- Generator: Adobe Illustrator 16.0.0, SVG Export Plug-In . SVG Version: 6.00 Build 0)  -->
<!DOCTYPE svg PUBLIC "-//W3C//DTD SVG 1.1//EN" "http://www.w3.org/Graphics/SVG/1.1/DTD/svg11.dtd">
<svg version="1.1" id="Layer_1" xmlns="http://www.w3.org/2000/svg" xmlns:xlink="http://www.w3.org/1999/xlink" x="0px" y="0px"
	 width="670.016px" height="586.402px" viewBox="0 0 670.016 586.402" enable-background="new 0 0 670.016 586.402"
	 xml:space="preserve">
<path d="M335.909,586.402l-20.343-4.479l0,0c-13.834-3.043-33.522-15.354-59.068-36.938
	c-34.645-29.271-69.063-60.229-103.267-92.875c-7.206-6.88-18.354-16.668-33.438-29.371c-21.271-17.91-36.521-31.92-45.744-42.024
	c-7.418-8.127-12.54-15.942-15.364-23.448c-1.687-4.479-4.561-17.986-8.623-40.521C38.171,250.812,23.454,157.999,5.907,38.308
	C3.708,23.311,2.067,12.539,0.981,5.993C0.634,3.912,0.309,1.915,0,0l0,0l8.722,2.373l0,0c4.967,1.508,12.052,3.466,21.255,5.876
	l0,0l3.65,1.026l0,0h0.001c8.917,2.506,14.515,4.129,16.791,4.869c18.385,5.975,42.579,13.008,72.586,21.099
	c30.325,8.176,52.285,13.567,65.879,16.173c27.688,5.309,49.09,9.587,64.201,12.839c24.249,5.219,42.772,8.196,55.576,8.937
	c4.136,0.238,10.073,0.358,17.821,0.358l0,0h17.049l0,0l0,0c7.748,0,13.688-0.12,17.82-0.358
	c12.805-0.739,31.326-3.717,55.576-8.937c15.11-3.252,36.514-7.531,64.199-12.839c13.596-2.605,35.559-7.997,65.881-16.173
	c30.01-8.091,54.201-15.124,72.584-21.099c2.274-0.74,7.875-2.363,16.793-4.869l0,0h0.002l3.647-1.026l0,0
	c9.203-2.41,16.287-4.369,21.257-5.876l0,0L670.015,0l0,0c-0.31,1.914-0.633,3.912-0.98,5.993
	c-1.086,6.546-2.729,17.317-4.928,32.314c-17.545,119.691-32.264,212.503-44.149,278.436c-4.062,22.53-6.938,36.039-8.621,40.521
	c-2.824,7.506-7.947,15.322-15.365,23.449c-9.228,10.104-24.475,24.112-45.744,42.022c-15.088,12.703-26.23,22.491-33.438,29.371
	c-34.199,32.646-68.623,63.604-103.269,92.875c-25.6,21.629-45.279,33.94-59.045,36.938c-0.078,0.019-0.158,0.034-0.238,0.057l0,0
	L335.909,586.402L335.909,586.402"/>
</svg>
