<?xml version="1.0" encoding="utf-8"?>
<!-- Generator: Adobe Illustrator 16.0.0, SVG Export Plug-In . SVG Version: 6.00 Build 0)  -->
<!DOCTYPE svg PUBLIC "-//W3C//DTD SVG 1.1//EN" "http://www.w3.org/Graphics/SVG/1.1/DTD/svg11.dtd">
<svg version="1.1" id="Layer_1" xmlns="http://www.w3.org/2000/svg" xmlns:xlink="http://www.w3.org/1999/xlink" x="0px" y="0px"
	 width="1564.141px" height="459.746px" viewBox="0 0 1564.141 459.746" enable-background="new 0 0 1564.141 459.746"
	 xml:space="preserve">
<path fill="none" stroke="#000000" stroke-linejoin="round" stroke-miterlimit="10" d="M1477.27,190.142
	c-8.911-4.316-18.745-7.507-29.653-9.745c-0.16-0.012-20.713-2.81-61.732-8.271c-87.531-11.654-175.026-23.57-262.551-35.29
	c-85.41-11.437-243.439-32.486-256.23-34.364c-11.932-1.752-23.961-2.8-35.879-4.656L423.575,34.319
	c-10.12-1.576-57.45-10.903-86.135-16.557c-18.391-3.624-49.437-9.742-55.083-11.261c-19.351-5.203-36.433-7.337-48.548-6.207
	c-7.563,0.647-12.966,1.674-16.289,2.942c-3.901,1.493-24.878,16.08-27.388,18.998L141.098,59.08
	c-30.728,22.842-59.668,48.009-90.609,70.57L0.353,166.206c-1.758,1.282,3.477,9.783,6.199,14.203
	c0.709,1.152,1.474,1.825,2.255,2.078c20.305,6.567,40.189,14.406,60.634,20.543l80.634,24.205
	c5.436,1.569,24.937,7.588,57.569,18.525c62.943,20.986,110.809,35.904,143.66,44.789c91.952,24.873,183.598,50.885,275.623,75.471
	c71.146,19.008,141.781,39.888,213.021,58.541c40.807,10.688,80.283,26.744,122.078,33.326c13.815,2.181,33.202,5.23,39.37-9.188
	c2.111-4.943,4.353-9.812,6.746-14.67c1.185-2.398,14.517-28.232,14.871-28.691c0.148-0.246,3.439-4.487,9.914-12.524
	c12.035-14.953,23.211-26.646,33.396-34.988c13.239-10.795,44.85-30.156,54.646-33.361c2.404-0.787,32.699-8.304,49.07-12.373
	l14.971-3.725l15.021-3.104c49.643-10.262,98.637-23.438,148.274-33.713c41.027-8.491,105.795-21.896,122.188-29.34
	c7.02-3.188,12.102-5.938,15.192-8.031C1508.812,218.206,1507.872,204.896,1477.27,190.142z"/>
</svg>
