<?xml version="1.0" encoding="utf-8"?>
<!-- Generator: Adobe Illustrator 16.0.0, SVG Export Plug-In . SVG Version: 6.00 Build 0)  -->
<!DOCTYPE svg PUBLIC "-//W3C//DTD SVG 1.1//EN" "http://www.w3.org/Graphics/SVG/1.1/DTD/svg11.dtd">
<svg version="1.1" id="Layer_1" xmlns="http://www.w3.org/2000/svg" xmlns:xlink="http://www.w3.org/1999/xlink" x="0px" y="0px"
	 width="1563.546px" height="467.811px" viewBox="0 0 1563.546 467.811" enable-background="new 0 0 1563.546 467.811"
	 xml:space="preserve">
<path fill="none" stroke="#000000" stroke-linejoin="round" stroke-miterlimit="10" d="M1563.183,163.575l-50.531-36.006
	c-31.188-22.22-60.4-47.069-91.375-69.574l-49.438-36.307c-2.541-2.891-23.678-17.247-27.594-18.698
	c-3.336-1.231-8.75-2.199-16.32-2.764c-12.127-0.998-29.186,1.324-48.477,6.738c-5.637,1.581-36.609,8.038-54.955,11.863
	c-28.623,5.966-75.854,15.811-85.951,17.498l-406.928,67.947c-11.896,1.986-23.914,3.166-35.827,5.049
	c-12.77,2.018-170.555,24.793-255.836,37.163c-87.392,12.676-174.751,25.548-262.15,38.158c-40.956,5.909-61.477,8.932-61.637,8.946
	c-10.882,2.356-20.683,5.654-29.547,10.068c-30.44,15.089-31.235,28.408-7.942,44.116c3.118,2.061,8.229,4.756,15.284,7.864
	c16.47,7.265,81.381,19.962,122.498,28.003c49.75,9.729,98.887,22.372,148.64,32.092l15.056,2.938l15.01,3.561
	c16.414,3.893,46.789,11.076,49.204,11.836c9.832,3.101,41.647,22.117,55.007,32.767c10.271,8.229,21.576,19.799,33.771,34.62
	c6.564,7.968,9.898,12.173,10.053,12.419c0.36,0.454,13.977,26.141,15.184,28.525c2.451,4.829,4.741,9.676,6.909,14.596
	c6.325,14.354,25.674,11.09,39.471,8.762c41.723-7.039,81.021-23.527,121.704-34.659c71.034-19.433,141.44-41.082,212.37-60.865
	c91.756-25.595,183.104-52.604,274.783-78.479c32.75-9.244,80.451-24.686,143.16-46.355c32.512-11.292,51.941-17.523,57.361-19.152
	l80.363-25.084c20.375-6.361,40.174-14.417,60.404-21.206c0.779-0.26,1.537-0.941,2.234-2.101
	C1559.814,173.395,1564.955,164.837,1563.183,163.575z"/>
</svg>
