<?xml version="1.0" encoding="utf-8"?>
<!-- Generator: Adobe Illustrator 16.0.0, SVG Export Plug-In . SVG Version: 6.00 Build 0)  -->
<!DOCTYPE svg PUBLIC "-//W3C//DTD SVG 1.1//EN" "http://www.w3.org/Graphics/SVG/1.1/DTD/svg11.dtd">
<svg version="1.1" id="Layer_1" xmlns="http://www.w3.org/2000/svg" xmlns:xlink="http://www.w3.org/1999/xlink" x="0px" y="0px"
	 width="1501.184px" height="467.977px" viewBox="0 0 1501.184 467.977" enable-background="new 0 0 1501.184 467.977"
	 xml:space="preserve">
<path d="M1500.82,163.575l-50.531-36.006c-31.188-22.22-60.399-47.069-91.375-69.574l-49.438-36.307
	c-2.541-2.891-23.681-17.247-27.596-18.698c-3.337-1.231-8.75-2.199-16.318-2.764c-12.127-0.998-29.188,1.324-48.479,6.738
	c-5.633,1.581-36.606,8.038-54.954,11.863c-28.623,5.966-75.851,15.811-85.949,17.498l-406.93,67.947
	c-11.896,1.986-23.914,3.166-35.828,5.049c-65.582,10.363-131.445,19.154-197.156,28.662
	c-82.854,11.979-165.684,24.12-248.521,36.176c-24.101,3.507-48.201,7.004-72.306,10.482c-40.956,5.909-61.478,8.932-61.638,8.946
	c-10.882,2.356-20.684,5.654-29.547,10.068c-30.439,15.089-31.234,28.408-7.941,44.121c3.117,2.06,8.229,4.754,15.283,7.865
	c16.471,7.264,81.382,19.959,122.498,28.002c46.854,9.164,93.189,20.764,139.956,30.354c48.8,10.007,102.95,19.199,142.861,51.365
	c17.021,13.717,30.789,31.037,42.348,49.486c8.869,14.157,15.801,39.953,30.093,49.354c9.429,6.201,22.709,3.292,33.044,1.548
	c41.721-7.04,81.019-23.527,121.704-34.659c71.031-19.434,141.438-41.082,212.37-60.864c91.755-25.595,183.105-52.604,274.78-78.479
	c32.752-9.244,80.452-24.688,143.161-46.356c32.514-11.292,51.941-17.522,57.363-19.155l80.36-25.084
	c20.377-6.361,40.175-14.417,60.404-21.206c0.777-0.26,1.535-0.941,2.232-2.101C1497.45,173.395,1502.591,164.836,1500.82,163.575z
	 M42.954,243.343c-3.569,1.043-7.31-1.006-8.351-4.573c-1.042-3.568,1.007-7.309,4.576-8.351s7.308,1.007,8.35,4.577
	C48.573,238.562,46.524,242.302,42.954,243.343z M97.258,227.494c-3.57,1.042-7.308-1.007-8.35-4.577s1.007-7.307,4.576-8.349
	s7.308,1.007,8.35,4.577S100.828,226.452,97.258,227.494z M151.562,211.644c-3.568,1.042-7.307-1.007-8.349-4.577
	s1.006-7.307,4.575-8.349s7.308,1.007,8.35,4.577C157.18,206.865,155.132,210.602,151.562,211.644z M166.132,261.562
	c-3.57,1.043-7.308-1.006-8.35-4.576c-1.043-3.567,1.007-7.31,4.576-8.348c3.569-1.046,7.308,1.006,8.35,4.572
	C171.751,256.78,169.702,260.521,166.132,261.562z M205.867,195.793c-3.569,1.042-7.309-1.007-8.351-4.577
	c-1.042-3.57,1.008-7.307,4.577-8.349s7.308,1.007,8.35,4.577C211.487,191.015,209.437,194.751,205.867,195.793z M220.437,245.71
	c-3.568,1.042-7.307-1.007-8.349-4.576c-1.042-3.567,1.007-7.307,4.575-8.349c3.569-1.042,7.309,1.007,8.35,4.574
	C226.055,240.934,224.006,244.668,220.437,245.71z M274.741,229.86c-3.57,1.042-7.308-1.007-8.35-4.577
	c-1.042-3.57,1.007-7.307,4.575-8.349c3.57-1.042,7.309,1.007,8.351,4.577C280.361,225.082,278.312,228.818,274.741,229.86z
	 M289.312,279.773c-3.569,1.043-7.309-1.006-8.351-4.573c-1.042-3.569,1.007-7.31,4.576-8.353c3.569-1.041,7.31,1.008,8.352,4.575
	C294.928,274.997,292.879,278.732,289.312,279.773z M329.044,214.01c-3.568,1.042-7.308-1.007-8.35-4.577s1.006-7.307,4.577-8.349
	c3.565-1.042,7.307,1.007,8.349,4.577C334.663,209.231,332.615,212.968,329.044,214.01z M343.615,263.927
	c-3.568,1.046-7.309-1.007-8.351-4.573c-1.043-3.568,1.008-7.311,4.574-8.353c3.569-1.041,7.311,1.007,8.353,4.576
	C349.234,259.146,347.185,262.885,343.615,263.927z M991.497,60.799c3.57-1.042,7.308,1.006,8.351,4.576
	c1.041,3.57-1.008,7.308-4.574,8.349c-3.568,1.042-7.311-1.006-8.352-4.576C985.877,65.58,987.925,61.841,991.497,60.799z
	 M937.193,76.649c3.566-1.042,7.308,1.007,8.351,4.577c1.041,3.569-1.009,7.307-4.576,8.349c-3.568,1.042-7.31-1.007-8.351-4.577
	C931.573,81.429,933.622,77.691,937.193,76.649z M882.885,92.5c3.569-1.042,7.311,1.007,8.354,4.577
	c1.041,3.57-1.006,7.307-4.576,8.349c-3.569,1.042-7.309-1.007-8.352-4.577C877.269,97.28,879.318,93.542,882.885,92.5z
	 M828.584,108.351c3.569-1.042,7.311,1.007,8.352,4.577c1.041,3.57-1.008,7.307-4.576,8.349c-3.57,1.042-7.309-1.007-8.352-4.577
	C822.964,113.129,825.013,109.393,828.584,108.351z M774.279,124.201c3.568-1.042,7.31,1.007,8.351,4.577
	c1.043,3.57-1.007,7.307-4.576,8.349c-3.566,1.042-7.308-1.007-8.351-4.577C768.661,128.979,770.709,125.243,774.279,124.201z
	 M719.974,140.05c3.567-1.042,7.309,1.006,8.351,4.576c1.042,3.57-1.006,7.307-4.576,8.349c-3.567,1.042-7.307-1.007-8.349-4.576
	C714.356,144.831,716.404,141.092,719.974,140.05z M611.365,171.75c3.568-1.042,7.309,1.006,8.351,4.576
	c1.042,3.57-1.008,7.307-4.577,8.349c-3.566,1.042-7.308-1.006-8.35-4.576C605.746,176.529,607.794,172.792,611.365,171.75z
	 M557.06,187.602c3.568-1.042,7.309,1.007,8.351,4.577c1.042,3.569-1.007,7.307-4.575,8.349s-7.309-1.006-8.351-4.576
	C551.442,192.381,553.49,188.644,557.06,187.602z M542.49,137.685c3.568-1.042,7.309,1.006,8.35,4.576
	c1.042,3.57-1.007,7.307-4.574,8.349c-3.568,1.042-7.31-1.007-8.352-4.576C536.871,142.463,538.92,138.727,542.49,137.685z
	 M488.187,153.535c3.567-1.042,7.308,1.006,8.35,4.576c1.042,3.57-1.007,7.307-4.576,8.349c-3.568,1.042-7.308-1.006-8.35-4.576
	C482.568,158.313,484.615,154.577,488.187,153.535z M383.35,198.16c-3.568,1.042-7.309-1.006-8.352-4.576
	c-1.042-3.57,1.008-7.307,4.577-8.349c3.57-1.042,7.308,1.007,8.35,4.577S386.918,197.119,383.35,198.16z M397.918,248.077
	c-3.568,1.041-7.308-1.011-8.35-4.577s1.007-7.311,4.576-8.352c3.566-1.041,7.308,1.009,8.35,4.576
	C403.537,243.297,401.49,247.034,397.918,248.077z M412.49,297.993c-3.569,1.043-7.312-1.009-8.352-4.576
	c-1.044-3.565,1.007-7.31,4.575-8.353c3.569-1.041,7.311,1.011,8.353,4.576C418.108,293.213,416.059,296.952,412.49,297.993z
	 M437.655,182.31c-3.569,1.042-7.311-1.006-8.353-4.576c-1.042-3.57,1.009-7.307,4.577-8.349s7.311,1.007,8.353,4.576
	C443.273,177.531,441.224,181.268,437.655,182.31z M452.224,232.228c-3.567,1.042-7.31-1.007-8.352-4.577
	c-1.042-3.57,1.007-7.307,4.576-8.349s7.308,1.007,8.35,4.577C457.841,227.449,455.793,231.186,452.224,232.228z M466.793,282.146
	c-3.568,1.043-7.308-1.006-8.35-4.576c-1.042-3.568,1.007-7.31,4.577-8.353c3.566-1.041,7.307,1.011,8.349,4.576
	C472.411,277.364,470.364,281.104,466.793,282.146z M481.364,332.062c-3.569,1.041-7.31-1.008-8.351-4.578
	c-1.044-3.567,1.008-7.311,4.574-8.35c3.569-1.045,7.311,1.008,8.353,4.574C486.982,327.281,484.933,331.021,481.364,332.062z
	 M495.933,381.979c-3.568,1.043-7.31-1.006-8.352-4.576c-1.042-3.566,1.008-7.307,4.577-8.348c3.57-1.043,7.308,1.006,8.35,4.573
	C501.55,377.198,499.502,380.938,495.933,381.979z M506.529,216.376c-3.569,1.042-7.311-1.007-8.353-4.577
	c-1.042-3.57,1.008-7.307,4.577-8.349c3.568-1.042,7.311,1.007,8.353,4.577C512.148,211.598,510.098,215.334,506.529,216.376z
	 M521.098,266.294c-3.567,1.041-7.31-1.008-8.352-4.577c-1.042-3.566,1.007-7.308,4.576-8.349c3.57-1.042,7.308,1.006,8.35,4.573
	C526.714,261.516,524.668,265.251,521.098,266.294z M535.666,316.21c-3.567,1.043-7.307-1.006-8.349-4.576
	c-1.042-3.565,1.007-7.307,4.577-8.349c3.566-1.042,7.307,1.007,8.349,4.572C541.285,311.434,539.238,315.169,535.666,316.21z
	 M550.238,366.128c-3.569,1.042-7.311-1.007-8.353-4.573c-1.042-3.57,1.008-7.311,4.576-8.353c3.569-1.042,7.31,1.007,8.353,4.573
	C555.856,361.352,553.807,365.086,550.238,366.128z M564.807,416.045c-3.568,1.042-7.31-1.007-8.352-4.574
	c-1.042-3.566,1.007-7.31,4.576-8.351c3.57-1.043,7.308,1.006,8.35,4.573C570.424,411.268,568.375,415.003,564.807,416.045z
	 M575.403,250.439c-3.57,1.043-7.311-1.006-8.353-4.573c-1.042-3.569,1.01-7.31,4.577-8.353c3.569-1.041,7.311,1.008,8.353,4.577
	C581.021,245.664,578.972,249.398,575.403,250.439z M589.972,300.357c-3.567,1.041-7.31-1.006-8.352-4.573
	c-1.042-3.57,1.007-7.31,4.576-8.353c3.568-1.041,7.308,1.006,8.35,4.574C595.589,295.581,593.541,299.314,589.972,300.357z
	 M604.541,350.275c-3.568,1.041-7.308-1.008-8.35-4.574c-1.042-3.569,1.007-7.311,4.575-8.352c3.568-1.043,7.309,1.006,8.351,4.576
	S608.112,349.232,604.541,350.275z M619.112,400.191c-3.57,1.043-7.312-1.006-8.353-4.573c-1.042-3.568,1.008-7.31,4.577-8.353
	c3.568-1.041,7.311,1.008,8.353,4.576C624.73,395.415,622.681,399.15,619.112,400.191z M629.706,234.593
	c-3.567,1.042-7.308-1.006-8.35-4.576s1.007-7.307,4.577-8.349c3.566-1.042,7.307,1.007,8.349,4.577
	C635.324,229.814,633.277,233.551,629.706,234.593z M644.277,284.511c-3.57,1.041-7.311-1.007-8.353-4.573
	c-1.042-3.568,1.009-7.311,4.576-8.353c3.57-1.042,7.312,1.006,8.353,4.576C649.896,279.729,647.844,283.468,644.277,284.511z
	 M658.844,334.432c-3.566,1.041-7.308-1.011-8.35-4.578s1.006-7.31,4.576-8.352c3.568-1.042,7.309,1.007,8.35,4.577
	C664.463,329.646,662.416,333.389,658.844,334.432z M661.092,164.25c-1.042-3.57,1.008-7.307,4.576-8.349
	c3.569-1.042,7.309,1.006,8.351,4.576s-1.006,7.307-4.575,8.349C665.871,169.869,662.133,167.819,661.092,164.25z M673.416,384.348
	c-3.568,1.043-7.308-1.011-8.35-4.576c-1.042-3.568,1.007-7.311,4.575-8.353c3.568-1.041,7.309,1.011,8.351,4.576
	C679.033,379.562,676.986,383.307,673.416,384.348z M684.01,218.744c-3.566,1.042-7.308-1.007-8.35-4.577s1.008-7.307,4.577-8.349
	c3.57-1.042,7.308,1.007,8.35,4.577S687.58,217.702,684.01,218.744z M698.58,268.66c-3.569,1.042-7.308-1.008-8.349-4.577
	c-1.042-3.565,1.006-7.31,4.573-8.351c3.568-1.043,7.31,1.009,8.352,4.576C704.198,263.881,702.151,267.618,698.58,268.66z
	 M713.151,318.577c-3.57,1.042-7.311-1.007-8.353-4.576c-1.042-3.567,1.009-7.31,4.577-8.353c3.569-1.041,7.31,1.011,8.353,4.576
	C718.769,313.797,716.719,317.536,713.151,318.577z M727.719,368.495c-3.566,1.041-7.308-1.011-8.35-4.577s1.008-7.311,4.576-8.352
	c3.568-1.043,7.309,1.01,8.351,4.576C733.337,363.715,731.289,367.452,727.719,368.495z M738.316,202.894
	c-3.569,1.042-7.311-1.006-8.353-4.576c-1.042-3.57,1.006-7.307,4.575-8.349c3.57-1.042,7.309,1.007,8.352,4.577
	C743.933,198.116,741.885,201.852,738.316,202.894z M752.885,252.812c-3.568,1.043-7.309-1.006-8.351-4.576
	c-1.042-3.568,1.008-7.31,4.577-8.353c3.57-1.041,7.309,1.011,8.352,4.577C758.503,248.03,756.456,251.771,752.885,252.812z
	 M767.456,302.729c-3.569,1.041-7.307-1.006-8.35-4.576c-1.041-3.567,1.008-7.308,4.576-8.352c3.565-1.04,7.309,1.008,8.35,4.576
	C773.075,297.948,771.027,301.688,767.456,302.729z M782.027,352.646c-3.57,1.041-7.311-1.008-8.354-4.578
	c-1.041-3.566,1.01-7.31,4.575-8.348c3.57-1.046,7.312,1.006,8.353,4.573C787.642,347.863,785.594,351.604,782.027,352.646z
	 M792.622,187.042c-3.569,1.042-7.309-1.006-8.35-4.576c-1.043-3.57,1.006-7.307,4.574-8.349c3.567-1.042,7.309,1.006,8.352,4.576
	C798.24,182.264,796.191,186,792.622,187.042z M807.191,236.96c-3.568,1.042-7.311-1.007-8.352-4.577
	c-1.043-3.57,1.008-7.307,4.575-8.349c3.57-1.042,7.31,1.007,8.353,4.577C812.808,232.182,810.759,235.918,807.191,236.96z
	 M821.759,286.877c-3.566,1.042-7.308-1.007-8.351-4.576c-1.041-3.566,1.008-7.308,4.578-8.349c3.565-1.043,7.308,1.006,8.349,4.573
	C827.378,282.102,825.331,285.835,821.759,286.877z M836.331,336.794c-3.569,1.042-7.311-1.007-8.35-4.573
	c-1.043-3.568,1.006-7.31,4.574-8.353c3.567-1.041,7.309,1.008,8.352,4.573C841.948,332.018,839.9,335.753,836.331,336.794z
	 M846.925,171.192c-3.566,1.042-7.31-1.006-8.351-4.576c-1.041-3.57,1.006-7.307,4.576-8.349c3.567-1.042,7.307,1.006,8.35,4.576
	C852.543,166.414,850.495,170.15,846.925,171.192z M861.495,221.11c-3.569,1.042-7.309-1.007-8.35-4.577
	c-1.043-3.57,1.008-7.307,4.576-8.349c3.567-1.042,7.309,1.007,8.35,4.577C867.115,216.332,865.066,220.068,861.495,221.11z
	 M876.066,271.023c-3.57,1.043-7.311-1.006-8.354-4.573c-1.041-3.569,1.009-7.31,4.575-8.353c3.57-1.041,7.312,1.008,8.353,4.575
	C881.683,266.247,879.634,269.982,876.066,271.023z M890.634,320.941c-3.566,1.041-7.31-1.008-8.351-4.573
	c-1.041-3.57,1.006-7.312,4.576-8.353c3.567-1.043,7.307,1.008,8.35,4.576C896.252,316.164,894.204,319.898,890.634,320.941z
	 M901.23,155.342c-3.568,1.042-7.311-1.006-8.352-4.576c-1.044-3.57,1.006-7.308,4.575-8.349c3.57-1.042,7.309,1.006,8.353,4.576
	C906.847,150.563,904.798,154.3,901.23,155.342z M915.798,205.259c-3.568,1.042-7.308-1.006-8.349-4.576
	c-1.043-3.57,1.006-7.307,4.576-8.349c3.564-1.042,7.307,1.007,8.348,4.576C921.418,200.48,919.37,204.218,915.798,205.259z
	 M930.37,255.177c-3.569,1.046-7.309-1.007-8.352-4.573c-1.041-3.568,1.008-7.311,4.574-8.353c3.569-1.042,7.311,1.007,8.354,4.576
	C935.988,250.396,933.939,254.135,930.37,255.177z M944.939,305.098c-3.568,1.038-7.311-1.011-8.352-4.576
	c-1.043-3.568,1.008-7.312,4.575-8.353c3.57-1.043,7.31,1.006,8.353,4.576C950.556,300.312,948.507,304.052,944.939,305.098z
	 M955.534,139.493c-3.567,1.042-7.309-1.007-8.35-4.577c-1.043-3.57,1.008-7.307,4.574-8.349c3.569-1.042,7.311,1.007,8.352,4.577
	C961.154,134.713,959.103,138.451,955.534,139.493z M970.103,189.41c-3.568,1.042-7.309-1.006-8.352-4.576
	c-1.041-3.57,1.01-7.307,4.577-8.349c3.568-1.042,7.31,1.006,8.351,4.576C975.722,184.63,973.673,188.368,970.103,189.41z
	 M984.673,239.327c-3.568,1.041-7.308-1.011-8.351-4.577c-1.041-3.569,1.006-7.307,4.576-8.349c3.567-1.042,7.307,1.007,8.35,4.577
	C990.293,234.547,988.243,238.284,984.673,239.327z M999.243,289.243c-3.569,1.043-7.309-1.011-8.35-4.576
	c-1.043-3.565,1.008-7.31,4.576-8.353c3.567-1.041,7.309,1.011,8.35,4.576C1004.863,284.463,1002.812,288.202,999.243,289.243z
	 M1009.837,123.643c-3.566,1.042-7.308-1.007-8.349-4.577c-1.043-3.57,1.006-7.307,4.574-8.349c3.566-1.042,7.309,1.007,8.35,4.577
	C1015.459,118.864,1013.409,122.601,1009.837,123.643z M1024.409,173.56c-3.569,1.042-7.309-1.006-8.352-4.576
	c-1.041-3.57,1.008-7.307,4.574-8.349c3.569-1.042,7.311,1.006,8.354,4.576C1030.027,168.781,1027.978,172.518,1024.409,173.56z
	 M1038.978,223.478c-3.568,1.042-7.312-1.007-8.353-4.577c-1.043-3.57,1.007-7.307,4.576-8.349c3.57-1.042,7.31,1.007,8.353,4.577
	C1044.595,218.698,1042.546,222.436,1038.978,223.478z M1053.546,273.396c-3.566,1.043-7.308-1.011-8.349-4.576
	c-1.043-3.568,1.006-7.311,4.576-8.353c3.565-1.041,7.307,1.011,8.348,4.576C1059.168,268.614,1057.118,272.354,1053.546,273.396z
	 M1064.142,107.792c-3.568,1.042-7.31-1.007-8.353-4.577c-1.041-3.57,1.011-7.307,4.578-8.349c3.566-1.042,7.31,1.007,8.351,4.577
	C1069.761,103.014,1067.712,106.75,1064.142,107.792z M1078.712,157.709c-3.568,1.042-7.308-1.007-8.351-4.577
	c-1.041-3.569,1.008-7.307,4.576-8.349c3.566-1.042,7.309,1.006,8.35,4.576C1084.332,152.931,1082.282,156.667,1078.712,157.709z
	 M1093.282,207.626c-3.567,1.042-7.309-1.006-8.35-4.576c-1.043-3.57,1.006-7.307,4.576-8.349c3.567-1.042,7.309,1.007,8.35,4.577
	C1098.902,202.848,1096.851,206.584,1093.282,207.626z M1107.851,257.544c-3.568,1.041-7.31-1.008-8.353-4.577
	c-1.041-3.566,1.011-7.308,4.578-8.349c3.566-1.042,7.31,1.007,8.351,4.573C1113.47,252.768,1111.421,256.501,1107.851,257.544z
	 M1118.448,91.942c-3.569,1.042-7.309-1.007-8.352-4.577c-1.041-3.57,1.01-7.307,4.576-8.349c3.567-1.042,7.311,1.007,8.352,4.577
	C1124.068,87.164,1122.017,90.9,1118.448,91.942z M1133.017,141.859c-3.568,1.042-7.312-1.007-8.353-4.577
	c-1.041-3.57,1.006-7.307,4.576-8.349s7.31,1.007,8.353,4.577C1138.634,137.081,1136.586,140.817,1133.017,141.859z
	 M1147.586,191.776c-3.566,1.042-7.308-1.006-8.349-4.576c-1.043-3.57,1.006-7.307,4.574-8.349c3.566-1.042,7.309,1.006,8.353,4.576
	C1153.204,186.998,1151.157,190.734,1147.586,191.776z M1162.157,241.689c-3.569,1.043-7.309-1.006-8.352-4.573
	c-1.041-3.569,1.01-7.307,4.573-8.349c3.57-1.042,7.312,1.007,8.354,4.577C1167.775,236.913,1165.726,240.648,1162.157,241.689z
	 M1172.752,76.091c-3.568,1.042-7.308-1.006-8.351-4.576c-1.041-3.57,1.008-7.307,4.574-8.349c3.567-1.042,7.311,1.006,8.352,4.576
	C1178.37,71.312,1176.323,75.049,1172.752,76.091z M1187.322,126.009c-3.567,1.042-7.309-1.007-8.35-4.577
	c-1.043-3.57,1.006-7.307,4.574-8.349c3.569-1.042,7.311,1.007,8.354,4.577C1192.939,121.229,1190.89,124.967,1187.322,126.009z
	 M1201.89,175.926c-3.568,1.042-7.31-1.006-8.351-4.576c-1.043-3.57,1.007-7.307,4.576-8.349c3.566-1.042,7.308,1.006,8.349,4.576
	C1207.509,171.146,1205.461,174.884,1201.89,175.926z M1216.461,225.843c-3.568,1.042-7.308-1.007-8.351-4.577
	c-1.041-3.569,1.009-7.307,4.574-8.349c3.568-1.042,7.312,1.007,8.353,4.577C1222.077,221.064,1220.031,224.801,1216.461,225.843z
	 M1227.056,60.242c-3.568,1.042-7.31-1.006-8.353-4.576c-1.041-3.57,1.009-7.307,4.576-8.349c3.568-1.042,7.308,1.006,8.351,4.576
	C1232.673,55.462,1230.627,59.2,1227.056,60.242z M1241.625,110.16c-3.566,1.042-7.308-1.007-8.349-4.577
	c-1.043-3.57,1.006-7.307,4.576-8.349c3.566-1.042,7.307,1.007,8.35,4.577C1247.243,105.38,1245.197,109.118,1241.625,110.16z
	 M1256.197,160.077c-3.569,1.042-7.309-1.007-8.354-4.576c-1.041-3.57,1.012-7.308,4.576-8.349c3.569-1.042,7.312,1.006,8.354,4.576
	C1261.814,155.296,1259.765,159.035,1256.197,160.077z M1270.765,209.994c-3.568,1.042-7.312-1.007-8.353-4.576
	s1.006-7.307,4.576-8.349s7.31,1.007,8.351,4.577C1276.382,205.213,1274.334,208.952,1270.765,209.994z M1281.363,44.392
	c-3.569,1.042-7.312-1.006-8.354-4.576c-1.043-3.57,1.008-7.308,4.576-8.349c3.569-1.042,7.311,1.006,8.354,4.576
	C1286.978,39.612,1284.929,43.35,1281.363,44.392z M1295.929,94.309c-3.565,1.042-7.309-1.006-8.35-4.576
	c-1.043-3.57,1.007-7.307,4.576-8.349c3.566-1.042,7.308,1.007,8.349,4.577C1301.548,89.53,1299.5,93.268,1295.929,94.309z
	 M1310.5,144.227c-3.568,1.042-7.308-1.007-8.351-4.577c-1.041-3.57,1.008-7.307,4.576-8.349s7.309,1.007,8.35,4.577
	C1316.118,139.447,1314.072,143.185,1310.5,144.227z M1325.07,194.144c-3.567,1.042-7.309-1.007-8.35-4.576s1.006-7.307,4.573-8.349
	c3.57-1.042,7.31,1.007,8.353,4.576C1330.687,189.364,1328.638,193.102,1325.07,194.144z M1364.804,128.375
	c-3.567,1.042-7.309-1.007-8.352-4.577c-1.041-3.57,1.009-7.307,4.576-8.349c3.568-1.042,7.31,1.007,8.351,4.577
	C1370.421,123.597,1368.375,127.333,1364.804,128.375z M1379.375,178.292c-3.566,1.042-7.308-1.007-8.349-4.576
	c-1.043-3.569,1.006-7.307,4.574-8.349c3.567-1.042,7.309,1.007,8.352,4.576C1384.993,173.514,1382.945,177.25,1379.375,178.292z
	 M1433.677,162.442c-3.564,1.042-7.308-1.007-8.349-4.576c-1.043-3.569,1.006-7.308,4.576-8.349
	c3.565-1.042,7.308,1.007,8.351,4.576C1439.296,157.663,1437.25,161.4,1433.677,162.442z"/>
</svg>
