<?xml version="1.0" encoding="utf-8"?>
<!-- Generator: Adobe Illustrator 16.0.0, SVG Export Plug-In . SVG Version: 6.00 Build 0)  -->
<!DOCTYPE svg PUBLIC "-//W3C//DTD SVG 1.1//EN" "http://www.w3.org/Graphics/SVG/1.1/DTD/svg11.dtd">
<svg version="1.1" id="Layer_1" xmlns="http://www.w3.org/2000/svg" xmlns:xlink="http://www.w3.org/1999/xlink" x="0px" y="0px"
	 width="1637.904px" height="1022.018px" viewBox="0 0 1637.904 1022.018" enable-background="new 0 0 1637.904 1022.018"
	 xml:space="preserve">
<path d="M1017.856,450.623c-27.295-7.566-54.866-14.083-82.234-21.371l-163.315-43.497c-63.784-16.987-127.923-32.643-191.504-50.39
	l-162.904-45.47c-2.088-0.583-16.922-5.769-25.36-8.718l-15.224-5.322c-8.058-2.808-33.367-11.735-75.84-26.836
	c-24.958-8.873-50.222-16.879-75.07-26.051c0,0-92.5-34.145-92.509-34.141c-60.563,28.75,60.365,99.484,78.252,112.497
	c62.146,45.211,189.507,82.31,183.224,178.246c-5.711,87.188-89.203,146.42-152.282,194.917
	c-19.094,14.682-37.789,29.85-56.066,45.535c-32.236,27.656-63.833,56.062-96.405,83.336
	c-23.663,19.812-39.903,33.598-48.823,41.479c-8.799,7.689-16.898,14.66-24.376,20.896l-12.25,10.245l-2.683,2.45
	c-3.895,3.561-3.259,10.5,2.266,11.834l163.29,39.408l12.651,3.129l167.958,41.527c2.912,0.721,5.825,1.438,8.737,2.16
	l49.483,12.234c5.326-4.389,9.413-8.432,12.229-12.281c10.884-14.891,38.863-25.717,55.094-32.219
	c32.153-12.879,67.296-17.406,101.707-13.83c40.829,4.244,77.133,22.93,116.625,32.098c4.863,1.129,12.532,2.909,14.538,3.594
	l44.674,15.199c9.345,3.178,31.229,9.854,46.893,14.635l71.793,21.904c20.24,6.176,45.376,7.771,58.817-11.119l13.482-26.631
	c1.49-4.527,10.09-28.211,25.748-71.143c24.518-67.064,38.338-104.961,41.389-113.701c6.327-17.793,9.708-27.266,10.159-28.488
	c13.491-36.566,20.462-55.461,20.947-56.824l10.353-28.369c16.321-41.896,30.28-84.666,45.896-126.828
	c8.313-22.455,16.279-45.04,23.938-67.728c0.832-2.465,1.087-4.997,0.819-7.513L1017.856,450.623z M937.563,838.698
	c-3.838,25.383-16.964,53.188-38.426,65.213c-46.588,26.084-98.021-6.188-142.278-19.189c-31.097-9.137-67.664-13.854-91.354-38.575
	c-12.366-12.901-17.525-34.188-15.85-51.839c1.195-12.562,2.614-27.486,7.172-37.1c38.822-81.859,146.02-26.074,206.248-7.76
	c33.323,10.135,75.409,34.727,75.665,73.566C938.774,828.02,938.381,833.303,937.563,838.698z M1028.283,637.579
	c-3.182,25.469-15.229,45.408-36.146,59.812c-16.667,11.48-36.991,18.152-57.076,13.479c-38.904-9.055-77.235-20.357-115.47-31.869
	c-53.154-16.004-126.455-24.697-131.911-94.414c-1.409-18,3.803-35.18,8.393-42.945c2.058-3.477,5.218-6.396,6.207-10.404
	c0.406-1.645,6.604-8.145,10.222-11.938c8.41-8.824,17.736-15.343,27.905-19.579c12.734-5.306,31.521-6.892,34.106-6.252
	l60.179,14.879c5.634,1.396,39.388,11.1,59.05,16.752c18.42,5.296,28.104,8.137,29.08,8.375
	c34.394,9.689,53.633,15.562,57.881,17.574C1000.634,560.43,1034.392,589.471,1028.283,637.579z M1613.391,190.142
	c-8.912-4.316-18.747-7.507-29.654-9.745c-0.161-0.012-20.713-2.81-61.729-8.271c-87.531-11.654-175.027-23.57-262.554-35.29
	c-85.41-11.437-243.438-32.486-256.228-34.364c-11.936-1.752-23.962-2.8-35.88-4.656L559.699,34.32
	c-10.12-1.576-57.448-10.903-86.135-16.557c-18.387-3.624-49.433-9.742-55.083-11.261c-19.351-5.203-36.433-7.337-48.548-6.207
	c-7.563,0.647-12.966,1.674-16.289,2.942c-3.901,1.493-24.878,16.08-27.388,18.998l-49.035,36.846
	c-30.729,22.842-59.669,48.009-90.609,70.57l-50.136,36.556c-1.761,1.282,3.477,9.783,6.196,14.203
	c0.709,1.152,1.477,1.825,2.258,2.078c20.305,6.567,40.188,14.406,60.634,20.543l80.634,24.205
	c5.436,1.569,24.938,7.588,57.569,18.525c62.942,20.987,110.809,35.906,143.66,44.791c91.952,24.872,183.594,50.881,275.623,75.469
	c71.146,19.008,141.778,39.886,213.021,58.542c40.804,10.688,80.277,26.741,122.069,33.325c14.754,2.324,29.395,4.535,39.312-8.521
	c11.701-15.402,15.954-35.028,27.062-50.867c51.831-73.929,146.795-86.777,228.273-105.979
	c30.498-7.188,60.959-14.625,91.646-20.977c41.026-8.492,105.794-21.896,122.186-29.339c7.021-3.188,12.104-5.939,15.195-8.032
	C1644.935,218.206,1643.995,204.897,1613.391,190.142z"/>
</svg>
