<?xml version="1.0" encoding="utf-8"?>
<!-- Generator: Adobe Illustrator 16.0.0, SVG Export Plug-In . SVG Version: 6.00 Build 0)  -->
<!DOCTYPE svg PUBLIC "-//W3C//DTD SVG 1.1//EN" "http://www.w3.org/Graphics/SVG/1.1/DTD/svg11.dtd">
<svg version="1.1" id="Layer_1" xmlns="http://www.w3.org/2000/svg" xmlns:xlink="http://www.w3.org/1999/xlink" x="0px" y="0px"
	 width="1637.902px" height="1022.018px" viewBox="0 0 1637.902 1022.018" enable-background="new 0 0 1637.902 1022.018"
	 xml:space="preserve">
<path fill="none" stroke="#000001" stroke-linejoin="round" stroke-miterlimit="10" d="M233.855,266.173
	c3.718,0,6.73,3.014,6.73,6.732c0,3.718-3.014,6.73-6.73,6.73s-6.732-3.014-6.732-6.73
	C227.123,269.187,230.137,266.173,233.855,266.173z M288.263,281.666c3.718,0,6.73,3.014,6.73,6.732c0,3.718-3.014,6.732-6.73,6.732
	c-3.72,0-6.732-3.014-6.732-6.732C281.531,284.68,284.545,281.666,288.263,281.666z M342.675,297.157c3.718,0,6.73,3.014,6.73,6.732
	c0,3.718-3.014,6.732-6.73,6.732c-3.72,0-6.732-3.014-6.732-6.732C335.941,300.171,338.955,297.157,342.675,297.157z
	 M62.963,866.316c3.72,0,6.732,3.014,6.732,6.73s-3.014,6.732-6.732,6.732c-3.718,0-6.73-3.016-6.73-6.732
	S59.245,866.316,62.963,866.316z M1049.969,498.56c3.719,0,6.731,3.016,6.731,6.733s-3.014,6.733-6.731,6.733
	c-3.719,0-6.733-3.016-6.733-6.733S1046.251,498.56,1049.969,498.56z M1029.256,553.463c1.018-3.577,4.737-5.65,8.313-4.632
	c3.576,1.018,5.646,4.742,4.631,8.318c-1.021,3.569-4.738,5.646-8.313,4.632C1030.305,560.763,1028.233,557.04,1029.256,553.463z
	 M989.088,487.958c1.02-3.577,4.737-5.649,8.315-4.632c3.576,1.019,5.646,4.742,4.631,8.312c-1.021,3.576-4.738,5.649-8.313,4.639
	C990.139,495.258,988.067,491.535,989.088,487.958z M941.153,467.577c3.718,0,6.732,3.014,6.732,6.73
	c0,3.72-3.016,6.732-6.732,6.732s-6.73-3.014-6.73-6.732C934.423,470.591,937.435,467.577,941.153,467.577z M880.27,456.972
	c1.02-3.575,4.742-5.646,8.318-4.631c3.571,1.021,5.646,4.742,4.631,8.319c-1.021,3.576-4.74,5.646-8.318,4.631
	C881.324,464.273,879.256,460.549,880.27,456.972z M825.864,441.48c1.021-3.576,4.742-5.649,8.318-4.639
	c3.576,1.021,5.646,4.741,4.631,8.318c-1.02,3.576-4.742,5.646-8.318,4.631C826.917,448.781,824.844,445.056,825.864,441.48z
	 M771.454,425.988c1.021-3.577,4.742-5.65,8.319-4.632s5.647,4.739,4.631,8.315c-1.021,3.577-4.742,5.65-8.317,4.632
	C772.51,433.288,770.438,429.564,771.454,425.988z M717.052,410.495c1.021-3.576,4.737-5.649,8.314-4.631
	c3.577,1.018,5.646,4.742,4.631,8.315c-1.021,3.576-4.738,5.649-8.314,4.635C718.104,417.794,716.029,414.072,717.052,410.495z
	 M702.807,460.506c1.021-3.576,4.742-5.646,8.318-4.631c3.573,1.015,5.646,4.742,4.632,8.318c-1.021,3.569-4.742,5.646-8.319,4.632
	C703.861,467.807,701.787,464.083,702.807,460.506z M662.64,395.001c1.021-3.576,4.742-5.649,8.319-4.631
	c3.572,1.018,5.646,4.742,4.631,8.319c-1.021,3.573-4.743,5.646-8.318,4.631C663.695,402.302,661.621,398.579,662.64,395.001z
	 M668.402,605.912c3.574,1.018,5.646,4.742,4.631,8.318c-1.021,3.568-4.742,5.646-8.314,4.631c-3.577-1.021-5.646-4.742-4.636-8.318
	C661.098,606.967,664.825,604.892,668.402,605.912z M648.399,445.014c1.018-3.569,4.739-5.646,8.315-4.632
	c3.577,1.021,5.646,4.743,4.631,8.319c-1.021,3.576-4.741,5.646-8.316,4.631C649.453,452.314,647.385,448.59,648.399,445.014z
	 M654.16,655.923c3.577,1.021,5.646,4.742,4.631,8.318c-1.015,3.576-4.737,5.646-8.314,4.632c-3.574-1.021-5.646-4.743-4.631-8.319
	C646.861,656.979,650.589,654.905,654.16,655.923z M634.157,495.026c1.021-3.576,4.742-5.649,8.316-4.64
	c3.577,1.021,5.646,4.742,4.634,8.319c-1.021,3.576-4.743,5.649-8.319,4.631C635.217,502.327,633.14,498.602,634.157,495.026z
	 M614.705,374.622c3.719,0,6.731,3.014,6.731,6.731s-3.014,6.731-6.731,6.731c-3.717,0-6.729-3.014-6.729-6.731
	S610.988,374.622,614.705,374.622z M593.991,429.521c1.021-3.576,4.742-5.649,8.316-4.639c3.576,1.021,5.646,4.742,4.634,8.318
	c-1.021,3.576-4.742,5.646-8.318,4.632C595.05,436.822,592.973,433.098,593.991,429.521z M586.225,474.644
	c3.718,0,6.73,3.016,6.73,6.732s-3.014,6.732-6.73,6.732s-6.732-3.016-6.732-6.732S582.509,474.644,586.225,474.644z
	 M553.824,364.016c1.021-3.575,4.742-5.648,8.319-4.631c3.574,1.019,5.646,4.742,4.631,8.318c-1.021,3.577-4.742,5.648-8.319,4.632
	C554.884,371.317,552.807,367.593,553.824,364.016z M539.588,414.029c1.019-3.577,4.737-5.65,8.314-4.632
	c3.574,1.018,5.647,4.739,4.631,8.316c-1.021,3.576-4.741,5.649-8.314,4.631C540.638,421.329,538.566,417.605,539.588,414.029z
	 M525.344,464.041c1.021-3.577,4.742-5.65,8.314-4.631c3.576,1.018,5.646,4.742,4.635,8.312c-1.021,3.576-4.741,5.649-8.318,4.639
	C526.396,471.341,524.324,467.617,525.344,464.041z M519.425,509.42c3.574,1.021,5.646,4.743,4.631,8.319
	c-1.021,3.576-4.742,5.646-8.315,4.631c-3.577-1.021-5.646-4.742-4.633-8.318S515.844,508.403,519.425,509.42z M499.422,348.524
	c1.018-3.576,4.737-5.649,8.313-4.632c3.574,1.019,5.647,4.742,4.631,8.318c-1.021,3.576-4.738,5.649-8.314,4.631
	C500.471,355.824,498.399,352.1,499.422,348.524z M485.177,398.536c1.021-3.577,4.742-5.649,8.314-4.631
	c3.577,1.018,5.646,4.744,4.636,8.317c-1.021,3.577-4.742,5.649-8.319,4.635C486.231,405.836,484.157,402.112,485.177,398.536z
	 M470.936,448.547c1.021-3.576,4.742-5.646,8.319-4.631c3.572,1.015,5.646,4.742,4.631,8.319c-1.021,3.568-4.742,5.646-8.316,4.631
	C471.99,455.848,469.916,452.125,470.936,448.547z M465.014,493.928c3.576,1.021,5.646,4.743,4.631,8.318
	c-1.018,3.576-4.739,5.65-8.315,4.632c-3.572-1.018-5.646-4.743-4.632-8.318C457.717,494.984,461.438,492.91,465.014,493.928z
	 M445.01,333.032c1.021-3.577,4.742-5.65,8.314-4.632c3.577,1.018,5.646,4.741,4.636,8.317c-1.021,3.577-4.742,5.65-8.318,4.632
	C446.066,340.332,443.991,336.608,445.01,333.032z M448.929,543.683c3.717,0,6.729,3.015,6.729,6.731s-3.014,6.729-6.729,6.729
	c-3.718,0-6.731-3.013-6.731-6.729S445.213,543.683,448.929,543.683z M430.769,383.042c1.021-3.576,4.742-5.649,8.319-4.631
	c3.572,1.018,5.646,4.742,4.631,8.319c-1.021,3.575-4.742,5.648-8.316,4.631C431.823,390.343,429.755,386.62,430.769,383.042z
	 M416.528,433.055c1.021-3.577,4.739-5.646,8.315-4.632c3.577,1.021,5.646,4.742,4.631,8.319c-1.021,3.576-4.739,5.646-8.316,4.631
	C417.582,440.355,415.51,436.631,416.528,433.055z M382.841,362.663c3.718,0,6.73,3.014,6.73,6.732c0,3.718-3.014,6.732-6.73,6.732
	c-3.72,0-6.732-3.014-6.732-6.732C376.107,365.677,379.121,362.663,382.841,362.663z M395.234,325.857
	c-3.577-1.02-5.646-4.742-4.633-8.318c1.021-3.577,4.742-5.649,8.319-4.632c3.572,1.019,5.646,4.743,4.631,8.318
	C402.533,324.802,398.811,326.875,395.234,325.857z M373.805,583.09c1.02-3.576,4.742-5.646,8.314-4.631
	c3.576,1.021,5.649,4.743,4.636,8.319c-1.021,3.576-4.742,5.646-8.319,4.631C374.859,590.391,372.786,586.667,373.805,583.09z
	 M117.37,881.809c3.718,0,6.732,3.016,6.732,6.732s-3.016,6.732-6.732,6.732s-6.73-3.016-6.73-6.732S113.652,881.809,117.37,881.809
	z M131.612,831.796c3.718,0,6.732,3.015,6.732,6.732c0,3.717-3.016,6.73-6.732,6.73s-6.732-3.014-6.732-6.73
	C124.88,834.811,127.894,831.796,131.612,831.796z M152.327,790.36c-1.019,3.568-4.742,5.646-8.319,4.632
	c-3.573-1.021-5.646-4.743-4.631-8.319c1.021-3.576,4.743-5.646,8.318-4.631C151.272,783.059,153.346,786.784,152.327,790.36z
	 M178.253,905.876c-1.02,3.576-4.738,5.649-8.315,4.631c-3.577-1.018-5.649-4.742-4.631-8.317c1.019-3.57,4.738-5.646,8.315-4.633
	C177.198,898.577,179.271,902.299,178.253,905.876z M186.019,847.288c3.718,0,6.731,3.015,6.731,6.733
	c0,3.718-3.015,6.731-6.731,6.731c-3.72,0-6.733-3.015-6.733-6.731C179.286,850.303,182.301,847.288,186.019,847.288z
	 M206.735,805.854c-1.021,3.574-4.741,5.648-8.318,4.638c-3.577-1.021-5.646-4.742-4.631-8.318c1.021-3.576,4.741-5.647,8.318-4.632
	C205.681,798.552,207.753,802.277,206.735,805.854z M212.657,760.472c-3.577-1.019-5.65-4.743-4.632-8.312
	c1.019-3.576,4.742-5.649,8.319-4.634c3.572,1.021,5.646,4.737,4.631,8.313C219.958,759.417,216.233,761.49,212.657,760.472z
	 M232.66,921.37c-1.02,3.576-4.742,5.646-8.319,4.631c-3.573-1.018-5.646-4.742-4.631-8.319c1.021-3.568,4.742-5.646,8.318-4.631
	C231.606,914.069,233.679,917.792,232.66,921.37z M246.901,871.357c-1.021,3.569-4.741,5.646-8.318,4.632
	c-3.577-1.021-5.646-4.742-4.631-8.319c1.021-3.576,4.741-5.646,8.318-4.631S247.92,867.781,246.901,871.357z M254.667,812.77
	c3.719,0,6.732,3.016,6.732,6.732s-3.016,6.732-6.732,6.732s-6.73-3.016-6.73-6.732S250.949,812.77,254.667,812.77z
	 M267.064,775.964c-3.577-1.019-5.648-4.742-4.631-8.317c1.02-3.569,4.739-5.646,8.315-4.633c3.577,1.021,5.648,4.743,4.631,8.319
	C274.365,774.909,270.641,776.983,267.064,775.964z M287.068,936.862c-1.021,3.575-4.741,5.646-8.318,4.632
	c-3.577-1.021-5.646-4.742-4.631-8.319c1.021-3.576,4.741-5.646,8.318-4.631C286.013,929.561,288.086,933.286,287.068,936.862z
	 M281.306,725.953c-3.577-1.021-5.648-4.743-4.635-8.319c1.021-3.576,4.742-5.646,8.319-4.631c3.576,1.021,5.648,4.743,4.631,8.319
	C288.607,724.898,284.882,726.971,281.306,725.953z M294.834,878.275c3.72,0,6.732,3.014,6.732,6.73s-3.014,6.732-6.732,6.732
	c-3.718,0-6.73-3.016-6.73-6.732S291.116,878.275,294.834,878.275z M295.547,675.941c-3.573-1.021-5.646-4.743-4.632-8.318
	c1.021-3.576,4.743-5.65,8.318-4.632c3.576,1.019,5.649,4.743,4.631,8.312C302.847,674.885,299.122,676.959,295.547,675.941z
	 M315.552,836.837c-1.021,3.576-4.742,5.65-8.317,4.632c-3.579-1.018-5.646-4.743-4.631-8.312c1.019-3.575,4.742-5.649,8.319-4.638
	C314.495,829.537,316.568,833.261,315.552,836.837z M321.472,791.458c-3.575-1.019-5.647-4.743-4.631-8.319
	c1.02-3.568,4.737-5.646,8.314-4.631c3.577,1.021,5.647,4.743,4.631,8.318C328.772,790.402,325.052,792.476,321.472,791.458z
	 M341.475,952.354c-1.021,3.577-4.74,5.65-8.317,4.64c-3.577-1.021-5.646-4.742-4.631-8.318c1.021-3.577,4.74-5.646,8.316-4.632
	C340.424,945.054,342.493,948.778,341.475,952.354z M335.717,741.446c-3.576-1.021-5.647-4.743-4.636-8.319
	c1.021-3.576,4.742-5.649,8.318-4.631c3.575,1.018,5.648,4.742,4.632,8.318C343.014,740.39,339.289,742.463,335.717,741.446z
	 M355.719,902.342c-1.021,3.577-4.742,5.65-8.317,4.632c-3.577-1.018-5.646-4.734-4.633-8.312c1.021-3.576,4.742-5.649,8.319-4.631
	C354.661,895.042,356.734,898.766,355.719,902.342z M351.801,678.229c3.717,0,6.729,3.014,6.729,6.73s-3.014,6.731-6.729,6.731
	c-3.719,0-6.731-3.015-6.731-6.731S348.082,678.229,351.801,678.229z M363.482,843.755c3.718,0,6.732,3.015,6.732,6.732
	c0,3.717-3.016,6.73-6.732,6.73s-6.73-3.014-6.73-6.73C356.752,846.77,359.764,843.755,363.482,843.755z M364.195,641.421
	c-3.577-1.019-5.646-4.743-4.631-8.317c1.018-3.569,4.74-5.646,8.317-4.633c3.571,1.021,5.646,4.743,4.631,8.319
	C371.495,640.366,367.771,642.44,364.195,641.421z M375.884,806.95c-3.577-1.021-5.648-4.742-4.637-8.318
	c1.021-3.576,4.742-5.646,8.319-4.631c3.574,1.019,5.647,4.742,4.631,8.318C383.18,805.895,379.455,807.968,375.884,806.95z
	 M389.407,959.271c3.72,0,6.732,3.015,6.732,6.731s-3.014,6.732-6.732,6.732c-3.718,0-6.73-3.016-6.73-6.732
	S385.689,959.271,389.407,959.271z M391.968,743.733c3.717,0,6.729,3.013,6.729,6.729s-3.014,6.731-6.729,6.731
	c-3.719,0-6.731-3.015-6.731-6.731S388.249,743.733,391.968,743.733z M410.123,917.835c-1.018,3.576-4.737,5.649-8.314,4.632
	c-3.576-1.02-5.646-4.743-4.631-8.312c1.021-3.577,4.737-5.65,8.313-4.638C409.069,910.535,411.142,914.259,410.123,917.835z
	 M406.204,693.719c3.72,0,6.732,3.016,6.732,6.732s-3.014,6.73-6.732,6.73c-3.718,0-6.73-3.014-6.73-6.73
	S402.486,693.719,406.204,693.719z M424.365,867.824c-1.021,3.576-4.742,5.646-8.314,4.631c-3.577-1.021-5.646-4.742-4.636-8.318
	c1.021-3.577,4.743-5.646,8.319-4.632C423.31,860.523,425.385,864.247,424.365,867.824z M418.603,656.914
	c-3.573-1.018-5.646-4.742-4.631-8.318c1.021-3.576,4.742-5.646,8.313-4.631c3.577,1.021,5.649,4.743,4.636,8.318
	C425.903,655.859,422.179,657.933,418.603,656.914z M438.605,817.811c-1.021,3.576-4.742,5.649-8.318,4.64
	c-3.572-1.021-5.646-4.743-4.631-8.319c1.021-3.575,4.742-5.646,8.316-4.631C437.552,810.511,439.623,814.235,438.605,817.811z
	 M432.844,606.903c-3.577-1.021-5.646-4.743-4.631-8.319c1.021-3.576,4.737-5.649,8.314-4.631c3.577,1.018,5.646,4.742,4.631,8.318
	C440.144,605.847,436.424,607.92,432.844,606.903z M446.37,759.227c3.718,0,6.73,3.015,6.73,6.73s-3.014,6.729-6.73,6.729
	c-3.716,0-6.729-3.013-6.729-6.729S442.653,759.227,446.37,759.227z M464.531,933.328c-1.021,3.577-4.742,5.65-8.314,4.632
	c-3.577-1.018-5.647-4.743-4.636-8.319c1.021-3.572,4.742-5.646,8.319-4.631C463.477,926.028,465.552,929.751,464.531,933.328z
	 M458.769,722.418c-3.574-1.019-5.646-4.742-4.631-8.318c1.021-3.568,4.742-5.646,8.314-4.632c3.577,1.021,5.65,4.743,4.636,8.319
	C466.07,721.364,462.346,723.438,458.769,722.418z M478.772,883.316c-1.021,3.568-4.742,5.646-8.319,4.632
	c-3.572-1.021-5.646-4.742-4.631-8.319c1.021-3.576,4.742-5.646,8.316-4.631C477.719,876.015,479.79,879.74,478.772,883.316z
	 M473.01,672.407c-3.576-1.021-5.646-4.742-4.631-8.319c1.021-3.575,4.737-5.646,8.314-4.631s5.646,4.743,4.631,8.319
	C480.311,671.352,476.591,673.425,473.01,672.407z M486.538,824.73c3.719,0,6.731,3.013,6.731,6.729s-3.014,6.731-6.731,6.731
	c-3.717,0-6.729-3.015-6.729-6.731S482.821,824.73,486.538,824.73z M489.094,609.19c3.717,0,6.729,3.013,6.729,6.729
	s-3.014,6.731-6.729,6.731c-3.718,0-6.731-3.015-6.731-6.731S485.378,609.19,489.094,609.19z M500.779,774.717
	c3.718,0,6.732,3.016,6.732,6.732s-3.016,6.73-6.732,6.73s-6.73-3.014-6.73-6.73S497.061,774.717,500.779,774.717z M501.491,572.383
	c-3.577-1.019-5.646-4.743-4.631-8.312c1.021-3.576,4.739-5.649,8.316-4.639c3.577,1.021,5.646,4.742,4.631,8.318
	C508.797,571.327,505.069,573.402,501.491,572.383z M513.177,737.912c-3.577-1.021-5.646-4.743-4.631-8.319
	c1.021-3.576,4.737-5.646,8.314-4.631c3.577,1.021,5.646,4.743,4.631,8.319C520.477,736.856,516.757,738.93,513.177,737.912z
	 M533.18,898.809c-1.021,3.576-4.742,5.649-8.316,4.639c-3.577-1.021-5.646-4.742-4.631-8.318c1.021-3.577,4.74-5.648,8.316-4.632
	C532.126,891.508,534.198,895.232,533.18,898.809z M527.422,687.9c-3.577-1.021-5.65-4.743-4.637-8.319
	c1.021-3.576,4.743-5.649,8.319-4.631c3.573,1.019,5.646,4.742,4.631,8.317C534.719,686.844,530.993,688.917,527.422,687.9z
	 M547.425,848.797c-1.021,3.576-4.742,5.649-8.319,4.631c-3.574-1.018-5.646-4.743-4.631-8.312c1.021-3.576,4.742-5.649,8.315-4.638
	C546.366,841.496,548.439,845.22,547.425,848.797z M543.506,624.684c3.717,0,6.729,3.015,6.729,6.73s-3.013,6.729-6.729,6.729
	c-3.717,0-6.73-3.013-6.73-6.729S539.788,624.684,543.506,624.684z M561.661,798.785c-1.021,3.576-4.738,5.646-8.314,4.632
	c-3.576-1.019-5.646-4.743-4.631-8.319c1.021-3.568,4.737-5.646,8.314-4.631C560.608,791.485,562.68,795.208,561.661,798.785z
	 M555.9,587.875c-3.577-1.019-5.646-4.742-4.631-8.318c1.018-3.568,4.739-5.646,8.316-4.632c3.572,1.021,5.646,4.743,4.631,8.319
	C563.199,586.821,559.477,588.894,555.9,587.875z M575.903,748.773c-1.021,3.568-4.742,5.646-8.314,4.631
	c-3.576-1.021-5.649-4.742-4.636-8.318c1.021-3.576,4.743-5.648,8.318-4.631C574.848,741.472,576.925,745.197,575.903,748.773z
	 M570.141,537.864c-3.574-1.021-5.646-4.743-4.631-8.319c1.021-3.576,4.742-5.646,8.313-4.631c3.577,1.019,5.65,4.743,4.636,8.319
	C577.441,536.809,573.719,538.882,570.141,537.864z M583.672,690.188c3.717,0,6.729,3.014,6.729,6.73s-3.014,6.731-6.729,6.731
	c-3.719,0-6.731-3.015-6.731-6.731S579.953,690.188,583.672,690.188z M595.354,855.715c3.718,0,6.732,3.016,6.732,6.732
	s-3.016,6.73-6.732,6.73s-6.732-3.014-6.732-6.73S591.636,855.715,595.354,855.715z M596.066,653.38
	c-3.577-1.019-5.65-4.743-4.634-8.319c1.021-3.567,4.742-5.646,8.318-4.631c3.572,1.021,5.646,4.743,4.632,8.319
	C603.366,652.326,599.643,654.399,596.066,653.38z M609.594,805.703c3.718,0,6.73,3.014,6.73,6.73c0,3.72-3.014,6.732-6.73,6.732
	s-6.732-3.014-6.732-6.732C602.862,808.717,605.878,805.703,609.594,805.703z M610.307,603.369
	c-3.574-1.021-5.646-4.743-4.631-8.319c1.021-3.576,4.742-5.646,8.314-4.631c3.577,1.021,5.647,4.743,4.635,8.318
	C617.61,602.312,613.885,604.387,610.307,603.369z M630.311,764.265c-1.021,3.576-4.739,5.65-8.316,4.64
	c-3.572-1.021-5.646-4.743-4.631-8.318c1.021-3.576,4.74-5.65,8.316-4.632C629.26,756.965,631.328,760.69,630.311,764.265z
	 M624.552,553.357c-3.577-1.021-5.647-4.743-4.634-8.319c1.019-3.576,4.74-5.649,8.317-4.631c3.574,1.018,5.647,4.742,4.631,8.312
	C631.848,552.301,628.126,554.375,624.552,553.357z M636.232,718.885c-3.576-1.019-5.649-4.743-4.634-8.312
	c1.021-3.576,4.742-5.649,8.318-4.638c3.572,1.021,5.646,4.741,4.631,8.318C643.532,717.83,639.809,719.904,636.232,718.885z
	 M649.761,871.207c3.718,0,6.73,3.014,6.73,6.732c0,3.718-3.014,6.73-6.73,6.73c-3.718,0-6.732-3.014-6.732-6.73
	C643.029,874.221,646.045,871.207,649.761,871.207z M696.402,945.287c-1.021,3.577-4.742,5.646-8.319,4.632
	c-3.572-1.019-5.646-4.742-4.631-8.319c1.021-3.568,4.742-5.646,8.319-4.631C695.348,937.987,697.425,941.71,696.402,945.287z
	 M704.174,886.701c3.717,0,6.729,3.014,6.729,6.729c0,3.719-3.014,6.731-6.729,6.731c-3.719,0-6.731-3.014-6.731-6.731
	C697.441,889.715,700.455,886.701,704.174,886.701z M744.34,952.206c3.717,0,6.729,3.014,6.729,6.731
	c0,3.717-3.014,6.729-6.729,6.729c-3.719,0-6.731-3.014-6.731-6.729C737.607,955.22,740.621,952.206,744.34,952.206z
	 M765.052,910.767c-1.021,3.577-4.742,5.65-8.316,4.64c-3.577-1.021-5.646-4.743-4.633-8.319c1.021-3.575,4.742-5.646,8.318-4.631
	C763.995,903.467,766.069,907.191,765.052,910.767z M805.219,976.273c-1.021,3.568-4.742,5.646-8.316,4.631
	c-3.577-1.021-5.646-4.742-4.634-8.319c1.021-3.576,4.742-5.649,8.318-4.631C804.162,968.972,806.236,972.696,805.219,976.273z
	 M812.983,917.685c3.718,0,6.732,3.016,6.732,6.732s-3.016,6.732-6.732,6.732s-6.732-3.016-6.732-6.732
	S809.265,917.685,812.983,917.685z M859.626,991.765c-1.021,3.576-4.739,5.649-8.317,4.639c-3.576-1.021-5.648-4.742-4.631-8.318
	c1.02-3.577,4.741-5.65,8.313-4.632C858.571,984.464,860.643,988.189,859.626,991.765z M873.865,941.753
	c-1.018,3.576-4.742,5.649-8.313,4.631c-3.576-1.018-5.646-4.742-4.635-8.312c1.021-3.576,4.741-5.65,8.317-4.64
	C872.811,934.452,874.885,938.177,873.865,941.753z M928.274,957.246c-1.02,3.576-4.742,5.646-8.318,4.632
	c-3.573-1.02-5.646-4.743-4.633-8.319c1.021-3.568,4.742-5.646,8.318-4.631C927.219,949.945,929.292,953.669,928.274,957.246z
	 M929.026,869.39c-13.227,30.995-44.959,50.443-76.283,45.146c-25.604-4.332-49.383-15.389-74.167-22.789l-15.889-4.743
	c-38.742-11.583-59.838-17.763-63.399-18.644c-2.938-0.729-5.521-2.526-8.49-3.146c-12.562-2.586-44.704-33.377-41.139-70.913
	c1.192-12.562,2.612-27.483,7.168-37.092c3.873-8.165,6.774-13.307,8.779-15.407l11.979-12.762
	c4.002-4.263,8.963-7.456,14.294-9.812l16.984-7.521l19.083-1.587l18.714,4.106l14.228,3.666c6.87,2.515,21.938,7.271,45.059,14.255
	c58.059,17.47,88.234,26.786,90.335,27.896c4.097,2.053,8.412,4.979,13.031,8.786c12.109,10.114,20.49,23.019,25.002,38.667
	c3.188,11.1,3.715,25.172,3.049,31.163C937.022,841.848,930.501,865.824,929.026,869.39z M700.251,676.047
	c1.021-3.576,4.74-5.65,8.317-4.632c3.574,1.018,5.646,4.743,4.631,8.319c-1.021,3.568-4.743,5.646-8.314,4.631
	C701.305,683.347,699.231,679.624,700.251,676.047z M754.656,691.54c1.021-3.576,4.742-5.649,8.316-4.631
	c3.576,1.018,5.646,4.742,4.634,8.312c-1.021,3.576-4.742,5.649-8.318,4.64C755.716,698.84,753.639,695.116,754.656,691.54z
	 M809.065,707.033c1.021-3.576,4.739-5.65,8.316-4.632c3.58,1.018,5.647,4.735,4.628,8.312c-1.021,3.576-4.741,5.65-8.315,4.632
	C810.119,714.333,808.051,710.608,809.065,707.033z M863.473,722.525c1.018-3.576,4.742-5.649,8.318-4.631
	c3.571,1.018,5.646,4.734,4.631,8.312c-1.021,3.576-4.742,5.65-8.318,4.631C864.528,729.826,862.453,726.101,863.473,722.525z
	 M917.883,738.018c1.02-3.568,4.737-5.646,8.315-4.632c3.576,1.021,5.646,4.743,4.631,8.319c-1.021,3.576-4.737,5.646-8.315,4.631
	C918.934,745.318,916.862,741.594,917.883,738.018z M936.039,898.659c3.72,0,6.732,3.014,6.732,6.73c0,3.72-3.014,6.732-6.732,6.732
	c-3.718,0-6.73-3.014-6.73-6.732C929.307,901.673,932.321,898.659,936.039,898.659z M950.28,848.646
	c3.719,0,6.732,3.015,6.732,6.731s-3.016,6.732-6.732,6.732s-6.73-3.016-6.73-6.732S946.562,848.646,950.28,848.646z
	 M970.996,807.21c-1.018,3.575-4.737,5.649-8.313,4.631c-3.572-1.018-5.646-4.742-4.631-8.319c1.021-3.568,4.737-5.646,8.313-4.631
	C969.942,799.91,972.014,803.634,970.996,807.21z M985.237,757.198c-1.018,3.576-4.742,5.646-8.313,4.632
	c-3.576-1.021-5.646-4.743-4.636-8.319c1.021-3.576,4.742-5.646,8.318-4.631C984.182,749.898,986.26,753.622,985.237,757.198z
	 M992.135,697.393c-16.675,11.486-37.015,18.158-57.104,13.479l-37.021-8.635c-4.246-0.99-8.98-2.73-13.392-4.354
	c-7.411-2.721-37.686-11.688-90.735-26.884c-34.985-9.985-55.019-16.271-60.176-18.812c-4.757-2.358-9.182-5.158-13.434-8.361
	c-18.83-14.188-30.762-35.729-32.602-59.236c-1.409-18,3.803-35.179,8.396-42.943c2.056-3.478,5.216-6.396,6.207-10.399
	c0.403-1.646,6.604-8.146,10.22-11.938c8.412-8.82,17.736-15.344,27.907-19.575c12.731-5.31,31.521-6.896,34.104-6.256
	l60.179,14.883c5.635,1.396,39.389,11.102,59.051,16.751c18.42,5.299,28.104,8.14,29.08,8.377
	c34.392,9.688,53.633,15.562,57.881,17.57c19.937,9.381,53.691,38.422,47.584,86.527
	C1025.102,663.046,1013.052,682.985,992.135,697.393z M207.93,150.655c3.718,0,6.73,3.014,6.73,6.73c0,3.718-3.014,6.732-6.73,6.732
	c-3.72,0-6.732-3.014-6.732-6.732C201.198,153.669,204.212,150.655,207.93,150.655z M262.337,166.149
	c3.72,0,6.732,3.014,6.732,6.732c0,3.718-3.014,6.732-6.732,6.732c-3.718,0-6.73-3.014-6.73-6.732
	C255.605,169.163,258.619,166.149,262.337,166.149z M276.578,116.135c3.719,0,6.733,3.015,6.733,6.733
	c0,3.718-3.016,6.733-6.733,6.733s-6.731-3.015-6.731-6.733C269.845,119.149,272.859,116.135,276.578,116.135z M290.819,66.125
	c3.718,0,6.73,3.014,6.73,6.732c0,3.718-3.014,6.732-6.73,6.732s-6.732-3.014-6.732-6.732
	C284.087,69.139,287.101,66.125,290.819,66.125z M323.22,190.217c-1.021,3.576-4.742,5.649-8.317,4.631
	c-3.577-1.018-5.646-4.742-4.633-8.319c1.021-3.576,4.742-5.649,8.319-4.631C322.164,182.917,324.238,186.64,323.22,190.217z
	 M337.465,140.205c-1.021,3.577-4.742,5.649-8.319,4.632c-3.575-1.019-5.648-4.743-4.631-8.319c1.021-3.577,4.742-5.649,8.314-4.631
	C336.406,132.905,338.479,136.628,337.465,140.205z M345.227,81.617c3.718,0,6.732,3.014,6.732,6.732
	c0,3.718-3.016,6.732-6.732,6.732s-6.732-3.014-6.732-6.732C338.495,84.631,341.51,81.617,345.227,81.617z M359.469,31.605
	c3.718,0,6.73,3.014,6.73,6.732c0,3.718-3.014,6.732-6.73,6.732s-6.732-3.014-6.732-6.732
	C352.737,34.619,355.753,31.605,359.469,31.605z M377.631,205.709c-1.021,3.576-4.743,5.649-8.319,4.631
	c-3.575-1.019-5.647-4.741-4.631-8.318c1.021-3.577,4.742-5.65,8.314-4.631C376.573,198.409,378.646,202.133,377.631,205.709z
	 M385.393,147.123c3.718,0,6.732,3.014,6.732,6.732s-3.016,6.732-6.732,6.732s-6.732-3.014-6.732-6.732
	S381.677,147.123,385.393,147.123z M406.109,105.685c-1.021,3.577-4.742,5.65-8.319,4.632c-3.572-1.018-5.646-4.742-4.631-8.319
	c1.021-3.576,4.742-5.649,8.316-4.631C405.055,98.385,407.132,102.109,406.109,105.685z M413.879,47.098
	c3.718,0,6.73,3.014,6.73,6.732c0,3.718-3.014,6.732-6.73,6.732c-3.72,0-6.732-3.014-6.732-6.732
	C407.145,50.112,410.159,47.098,413.879,47.098z M432.034,221.202c-1.021,3.577-4.743,5.65-8.314,4.632
	c-3.576-1.019-5.646-4.742-4.631-8.318c1.019-3.577,4.737-5.65,8.313-4.632C430.98,213.902,433.053,217.625,432.034,221.202z
	 M446.276,171.19c-1.021,3.576-4.742,5.65-8.319,4.632c-3.572-1.018-5.646-4.742-4.631-8.319c1.021-3.576,4.742-5.649,8.315-4.631
	C445.221,163.89,447.298,167.614,446.276,171.19z M454.047,112.604c3.717,0,6.729,3.014,6.729,6.731s-3.014,6.731-6.729,6.731
	c-3.719,0-6.731-3.014-6.731-6.731S450.328,112.604,454.047,112.604z M466.439,75.797c-3.577-1.019-5.65-4.742-4.635-8.318
	c1.021-3.576,4.743-5.65,8.314-4.631c3.576,1.018,5.649,4.742,4.636,8.318C473.74,74.743,470.016,76.816,466.439,75.797z
	 M486.442,236.695c-1.021,3.576-4.742,5.649-8.319,4.631c-3.572-1.018-5.646-4.742-4.631-8.318c1.021-3.576,4.742-5.649,8.316-4.632
	C485.388,229.395,487.465,233.118,486.442,236.695z M1544.749,206.916c3.72,0,6.732,3.014,6.732,6.732
	c0,3.718-3.014,6.732-6.732,6.732c-3.718,0-6.73-3.014-6.73-6.732C1538.017,209.93,1541.031,206.916,1544.749,206.916z
	 M1490.344,191.423c3.718,0,6.731,3.015,6.731,6.733c0,3.718-3.015,6.733-6.731,6.733c-3.719,0-6.733-3.015-6.733-6.733
	C1483.61,194.438,1486.626,191.423,1490.344,191.423z M1469.626,246.324c1.021-3.576,4.74-5.649,8.316-4.632
	c3.576,1.02,5.646,4.743,4.631,8.319c-1.021,3.576-4.74,5.649-8.313,4.631C1470.68,253.625,1468.608,249.9,1469.626,246.324z
	 M1435.933,175.929c3.719,0,6.733,3.014,6.733,6.733c0,3.718-3.016,6.733-6.733,6.733s-6.733-3.015-6.733-6.733
	C1429.2,178.943,1432.216,175.929,1435.933,175.929z M1421.693,225.942c3.719,0,6.733,3.015,6.733,6.733
	c0,3.719-3.016,6.733-6.733,6.733s-6.733-3.015-6.733-6.733C1414.96,228.957,1417.974,225.942,1421.693,225.942z M1367.285,210.449
	c3.72,0,6.732,3.014,6.732,6.732c0,3.718-3.014,6.732-6.732,6.732c-3.718,0-6.73-3.014-6.73-6.732
	C1360.553,213.463,1363.567,210.449,1367.285,210.449z M1353.044,260.462c3.72,0,6.732,3.014,6.732,6.732
	c0,3.718-3.014,6.732-6.732,6.732c-3.718,0-6.73-3.014-6.73-6.732C1346.312,263.476,1349.326,260.462,1353.044,260.462z
	 M494.214,178.109c3.717,0,6.729,3.014,6.729,6.731c0,3.718-3.014,6.731-6.729,6.731c-3.719,0-6.731-3.013-6.731-6.731
	C487.481,181.123,490.495,178.109,494.214,178.109z M514.927,136.671c-1.021,3.576-4.742,5.649-8.316,4.631
	c-3.576-1.019-5.646-4.742-4.634-8.319c1.021-3.576,4.742-5.649,8.319-4.631C513.869,129.37,515.943,133.094,514.927,136.671z
	 M520.847,91.291c-3.577-1.019-5.646-4.742-4.631-8.319c1.021-3.576,4.743-5.649,8.314-4.631c3.577,1.019,5.65,4.742,4.634,8.318
	C528.146,90.236,524.427,92.309,520.847,91.291z M534.376,243.613c3.719,0,6.731,3.014,6.731,6.73c0,3.718-3.014,6.731-6.731,6.731
	c-3.717,0-6.729-3.014-6.729-6.731C527.645,246.626,530.659,243.613,534.376,243.613z M555.094,202.175
	c-1.021,3.577-4.742,5.65-8.319,4.632c-3.574-1.018-5.646-4.743-4.631-8.319c1.021-3.576,4.742-5.649,8.317-4.631
	C554.035,194.875,556.109,198.599,555.094,202.175z M569.331,152.164c-1.021,3.576-4.737,5.649-8.314,4.632
	c-3.577-1.02-5.646-4.742-4.631-8.319c1.021-3.576,4.738-5.649,8.314-4.631C568.277,144.863,570.351,148.587,569.331,152.164z
	 M577.098,93.575c3.719,0,6.731,3.014,6.731,6.733c0,3.718-3.014,6.733-6.731,6.733s-6.733-3.015-6.733-6.733
	C570.365,96.589,573.381,93.575,577.098,93.575z M588.781,259.105c3.718,0,6.732,3.014,6.732,6.732c0,3.718-3.016,6.732-6.732,6.732
	s-6.73-3.014-6.73-6.732C582.051,262.119,585.063,259.105,588.781,259.105z M609.498,217.668c-1.019,3.576-4.737,5.649-8.314,4.631
	c-3.574-1.018-5.646-4.742-4.631-8.318c1.021-3.576,4.741-5.65,8.314-4.632C608.445,210.367,610.517,214.091,609.498,217.668z
	 M617.264,159.082c3.718,0,6.73,3.014,6.73,6.732c0,3.718-3.014,6.732-6.73,6.732s-6.732-3.014-6.732-6.732
	C610.532,162.096,613.548,159.082,617.264,159.082z M631.509,109.069c3.718,0,6.73,3.014,6.73,6.732c0,3.718-3.014,6.732-6.73,6.732
	c-3.718,0-6.732-3.014-6.732-6.732C624.775,112.083,627.79,109.069,631.509,109.069z M649.664,283.173
	c-1.019,3.576-4.737,5.649-8.314,4.631c-3.576-1.019-5.646-4.742-4.631-8.318c1.021-3.577,4.737-5.65,8.314-4.632
	S650.683,279.596,649.664,283.173z M645.745,59.056c3.72,0,6.732,3.014,6.732,6.732c0,3.718-3.014,6.732-6.732,6.732
	c-3.718,0-6.73-3.014-6.73-6.732C639.013,62.07,642.027,59.056,645.745,59.056z M657.431,224.586c3.718,0,6.73,3.014,6.73,6.732
	c0,3.718-3.014,6.732-6.73,6.732s-6.732-3.014-6.732-6.732C650.699,227.6,653.715,224.586,657.431,224.586z M678.146,183.149
	c-1.021,3.577-4.741,5.65-8.318,4.631c-3.573-1.021-5.646-4.742-4.631-8.318c1.021-3.576,4.742-5.649,8.316-4.631
	C677.094,175.849,679.167,179.573,678.146,183.149z M684.069,137.769c-3.577-1.02-5.65-4.743-4.634-8.319
	c1.021-3.577,4.742-5.649,8.319-4.631c3.571,1.018,5.646,4.742,4.631,8.318C691.369,136.713,687.646,138.787,684.069,137.769z
	 M704.072,298.666c-1.021,3.576-4.742,5.649-8.314,4.631c-3.577-1.018-5.646-4.742-4.636-8.318c1.021-3.576,4.742-5.649,8.319-4.631
	S705.094,295.089,704.072,298.666z M698.31,87.756c-3.574-1.019-5.646-4.742-4.631-8.318c1.021-3.577,4.743-5.65,8.319-4.632
	c3.571,1.019,5.646,4.743,4.631,8.319C705.611,86.701,701.887,88.775,698.31,87.756z M718.312,248.654
	c-1.021,3.576-4.741,5.649-8.318,4.631c-3.572-1.018-5.646-4.742-4.631-8.318c1.021-3.577,4.742-5.649,8.316-4.632
	C717.26,241.353,719.331,245.077,718.312,248.654z M726.08,190.067c3.719,0,6.731,3.014,6.731,6.731
	c0,3.718-3.014,6.731-6.731,6.731c-3.717,0-6.729-3.013-6.729-6.731C719.349,193.081,722.363,190.067,726.08,190.067z
	 M740.32,140.054c3.718,0,6.732,3.014,6.732,6.732c0,3.718-3.016,6.732-6.732,6.732s-6.73-3.014-6.73-6.732
	C733.59,143.068,736.602,140.054,740.32,140.054z M758.48,314.158c-1.021,3.577-4.743,5.649-8.319,4.632
	c-3.572-1.02-5.646-4.742-4.631-8.318c1.021-3.577,4.742-5.65,8.316-4.632C757.427,306.858,759.497,310.582,758.48,314.158z
	 M754.562,90.042c3.719,0,6.733,3.015,6.733,6.733c0,3.719-3.016,6.733-6.733,6.733s-6.733-3.014-6.733-6.733
	C747.829,93.057,750.844,90.042,754.562,90.042z M766.246,255.571c3.72,0,6.732,3.014,6.732,6.731c0,3.718-3.014,6.732-6.732,6.732
	c-3.718,0-6.73-3.014-6.73-6.732C759.514,258.585,762.528,255.571,766.246,255.571z M786.966,214.134
	c-1.021,3.577-4.742,5.649-8.319,4.632c-3.574-1.019-5.646-4.742-4.631-8.319c1.021-3.576,4.742-5.649,8.315-4.631
	C785.906,206.834,787.98,210.558,786.966,214.134z M792.885,168.753c-3.577-1.019-5.647-4.742-4.631-8.318
	c1.021-3.576,4.737-5.649,8.314-4.631s5.647,4.742,4.631,8.318C800.184,167.698,796.465,169.772,792.885,168.753z M812.888,329.651
	c-1.021,3.576-4.741,5.648-8.316,4.631c-3.576-1.019-5.646-4.742-4.634-8.318c1.021-3.576,4.742-5.648,8.318-4.632
	C811.832,322.351,813.906,326.075,812.888,329.651z M808.969,105.535c3.718,0,6.73,3.014,6.73,6.732c0,3.718-3.014,6.732-6.73,6.732
	s-6.732-3.014-6.732-6.732C802.237,108.549,805.253,105.535,808.969,105.535z M827.131,279.639
	c-1.021,3.576-4.742,5.649-8.321,4.631c-3.574-1.018-5.646-4.742-4.631-8.318c1.021-3.577,4.743-5.65,8.316-4.631
	C826.074,272.338,828.147,276.063,827.131,279.639z M841.369,229.627c-1.02,3.576-4.737,5.649-8.313,4.631
	c-3.576-1.019-5.646-4.742-4.631-8.318c1.021-3.577,4.737-5.649,8.313-4.632C840.315,222.327,842.387,226.05,841.369,229.627z
	 M849.135,171.04c3.718,0,6.73,3.014,6.73,6.732s-3.014,6.732-6.73,6.732s-6.732-3.014-6.732-6.732
	C842.403,174.054,845.419,171.04,849.135,171.04z M860.82,336.567c3.719,0,6.733,3.015,6.733,6.733c0,3.719-3.016,6.733-6.733,6.733
	s-6.731-3.015-6.731-6.733C854.089,339.582,857.101,336.567,860.82,336.567z M863.376,121.028c3.72,0,6.732,3.014,6.732,6.732
	c0,3.718-3.014,6.732-6.732,6.732c-3.718,0-6.73-3.014-6.73-6.732C856.644,124.042,859.658,121.028,863.376,121.028z
	 M1312.881,194.957c3.718,0,6.73,3.014,6.73,6.732c0,3.718-3.014,6.732-6.73,6.732c-3.72,0-6.732-3.014-6.732-6.732
	C1306.147,197.971,1309.161,194.957,1312.881,194.957z M1298.637,244.968c3.718,0,6.73,3.014,6.73,6.732
	c0,3.718-3.014,6.732-6.73,6.732c-3.719,0-6.732-3.014-6.732-6.732C1291.905,247.982,1294.919,244.968,1298.637,244.968z
	 M1258.47,179.464c3.718,0,6.731,3.015,6.731,6.733c0,3.718-3.015,6.733-6.731,6.733c-3.72,0-6.733-3.015-6.733-6.733
	C1251.737,182.479,1254.753,179.464,1258.47,179.464z M1244.229,229.476c3.718,0,6.732,3.014,6.732,6.732s-3.016,6.732-6.732,6.732
	s-6.732-3.014-6.732-6.732S1240.511,229.476,1244.229,229.476z M1223.512,284.376c1.02-3.576,4.742-5.649,8.315-4.631
	c3.576,1.019,5.646,4.742,4.636,8.318c-1.021,3.577-4.742,5.649-8.32,4.632C1224.567,291.677,1222.494,287.954,1223.512,284.376z
	 M1204.063,163.971c3.718,0,6.732,3.014,6.732,6.732c0,3.718-3.016,6.732-6.732,6.732s-6.732-3.014-6.732-6.732
	C1197.331,166.985,1200.345,163.971,1204.063,163.971z M1189.822,213.983c3.72,0,6.733,3.015,6.733,6.733
	c0,3.719-3.016,6.733-6.733,6.733s-6.731-3.015-6.731-6.733C1183.091,216.998,1186.104,213.983,1189.822,213.983z M1175.58,263.995
	c3.72,0,6.732,3.014,6.732,6.732c0,3.718-3.014,6.732-6.732,6.732c-3.718,0-6.73-3.014-6.73-6.732
	C1168.848,267.009,1171.862,263.995,1175.58,263.995z M1161.343,314.007c3.718,0,6.73,3.014,6.73,6.732
	c0,3.718-3.014,6.731-6.73,6.731c-3.719,0-6.732-3.014-6.732-6.731C1154.609,317.021,1157.624,314.007,1161.343,314.007z
	 M1149.655,148.48c3.719,0,6.732,3.014,6.732,6.732c0,3.718-3.014,6.732-6.732,6.732c-3.718,0-6.73-3.014-6.73-6.732
	C1142.925,151.494,1145.937,148.48,1149.655,148.48z M1147.098,364.019c3.718,0,6.732,3.014,6.732,6.732s-3.016,6.732-6.732,6.732
	s-6.732-3.014-6.732-6.732S1143.382,364.019,1147.098,364.019z M1135.414,198.49c3.72,0,6.732,3.014,6.732,6.732
	c0,3.718-3.014,6.732-6.732,6.732c-3.718,0-6.73-3.014-6.73-6.732C1128.682,201.504,1131.696,198.49,1135.414,198.49z
	 M1121.177,248.502c3.718,0,6.731,3.015,6.731,6.733c0,3.719-3.015,6.733-6.731,6.733c-3.719,0-6.733-3.014-6.733-6.733
	C1114.442,251.517,1117.458,248.502,1121.177,248.502z M1106.932,298.515c3.718,0,6.732,3.014,6.732,6.732s-3.016,6.732-6.732,6.732
	s-6.732-3.014-6.732-6.732S1103.216,298.515,1106.932,298.515z M1095.249,132.986c3.72,0,6.733,3.015,6.733,6.733
	c0,3.719-3.015,6.733-6.733,6.733c-3.718,0-6.731-3.015-6.731-6.733C1088.516,136,1091.531,132.986,1095.249,132.986z
	 M1094.535,348.784c3.576,1.019,5.648,4.742,4.632,8.318c-1.021,3.576-4.738,5.649-8.314,4.632
	c-3.572-1.019-5.646-4.742-4.633-8.318C1087.235,349.838,1090.958,347.766,1094.535,348.784z M1081.01,182.998
	c3.718,0,6.73,3.014,6.73,6.732s-3.014,6.732-6.73,6.732c-3.72,0-6.732-3.014-6.732-6.732
	C1074.276,186.012,1077.29,182.998,1081.01,182.998z M1078.449,398.539c3.718,0,6.732,3.014,6.732,6.732s-3.015,6.732-6.732,6.732
	c-3.717,0-6.73-3.014-6.73-6.732S1074.731,398.539,1078.449,398.539z M1060.292,237.899c1.021-3.577,4.741-5.65,8.317-4.632
	c3.576,1.019,5.648,4.742,4.631,8.318c-1.02,3.577-4.741,5.65-8.313,4.632C1061.344,245.199,1059.272,241.475,1060.292,237.899z
	 M1054.367,283.279c3.578,1.019,5.65,4.742,4.634,8.319c-1.021,3.576-4.738,5.649-8.312,4.631c-3.574-1.019-5.646-4.742-4.635-8.318
	C1047.069,284.334,1050.792,282.26,1054.367,283.279z M1040.844,117.493c3.718,0,6.73,3.014,6.73,6.732
	c0,3.718-3.014,6.732-6.73,6.732c-3.72,0-6.732-3.014-6.732-6.732C1034.11,120.507,1037.124,117.493,1040.844,117.493z
	 M1038.283,333.035c3.718,0,6.732,3.014,6.732,6.732c0,3.718-3.015,6.732-6.732,6.732c-3.717,0-6.73-3.014-6.73-6.732
	C1031.552,336.049,1034.565,333.035,1038.283,333.035z M1026.599,167.505c3.719,0,6.733,3.015,6.733,6.733
	c0,3.718-3.016,6.733-6.733,6.733s-6.733-3.015-6.733-6.733C1019.866,170.52,1022.882,167.505,1026.599,167.505z M1024.042,383.045
	c3.72,0,6.732,3.014,6.732,6.732c0,3.718-3.014,6.732-6.732,6.732c-3.718,0-6.73-3.014-6.73-6.732
	C1017.31,386.059,1020.324,383.045,1024.042,383.045z M1012.358,217.518c3.718,0,6.732,3.014,6.732,6.732s-3.016,6.732-6.732,6.732
	s-6.732-3.014-6.732-6.732S1008.64,217.518,1012.358,217.518z M998.116,267.527c3.72,0,6.733,3.015,6.733,6.733
	c0,3.719-3.015,6.733-6.733,6.733c-3.718,0-6.731-3.015-6.731-6.733C991.385,270.542,994.398,267.527,998.116,267.527z
	 M983.876,317.541c3.72,0,6.732,3.014,6.732,6.732c0,3.718-3.014,6.732-6.732,6.732c-3.718,0-6.73-3.014-6.73-6.732
	C977.144,320.555,980.158,317.541,983.876,317.541z M972.192,152.012c3.718,0,6.732,3.014,6.732,6.732
	c0,3.718-3.016,6.732-6.732,6.732s-6.73-3.014-6.73-6.732C965.462,155.026,968.474,152.012,972.192,152.012z M969.635,367.553
	c3.718,0,6.73,3.014,6.73,6.732c0,3.718-3.014,6.732-6.73,6.732s-6.732-3.014-6.732-6.732
	C962.903,370.567,965.919,367.553,969.635,367.553z M957.95,202.025c3.72,0,6.733,3.015,6.733,6.733
	c0,3.719-3.015,6.733-6.733,6.733c-3.718,0-6.731-3.015-6.731-6.733C951.219,205.04,954.232,202.025,957.95,202.025z
	 M943.713,252.036c3.718,0,6.73,3.014,6.73,6.732c0,3.718-3.014,6.732-6.73,6.732c-3.72,0-6.732-3.014-6.732-6.732
	C936.979,255.05,939.993,252.036,943.713,252.036z M929.469,302.048c3.718,0,6.73,3.014,6.73,6.732c0,3.718-3.014,6.73-6.73,6.73
	s-6.732-3.014-6.732-6.73C922.737,305.062,925.753,302.048,929.469,302.048z M917.783,136.521c3.719,0,6.732,3.014,6.732,6.732
	c0,3.718-3.015,6.732-6.732,6.732c-3.717,0-6.73-3.014-6.73-6.732S914.065,136.521,917.783,136.521z M915.227,352.061
	c3.718,0,6.732,3.014,6.732,6.732s-3.016,6.732-6.732,6.732s-6.732-3.014-6.732-6.732S911.51,352.061,915.227,352.061z
	 M903.547,186.531c3.718,0,6.73,3.014,6.73,6.732c0,3.718-3.014,6.732-6.73,6.732c-3.72,0-6.732-3.014-6.732-6.732
	C896.813,189.545,899.827,186.531,903.547,186.531z M889.302,236.543c3.718,0,6.731,3.015,6.731,6.733
	c0,3.719-3.015,6.733-6.731,6.733c-3.72,0-6.733-3.014-6.733-6.733C882.569,239.558,885.585,236.543,889.302,236.543z
	 M881.535,295.131c-1.018,3.577-4.741,5.65-8.313,4.632c-3.576-1.018-5.646-4.742-4.631-8.318c1.021-3.577,4.737-5.65,8.313-4.632
	S882.555,291.555,881.535,295.131z M117.188,208.779c-1.882,33.375,80.896,82.303,94.961,92.546
	c57.834,42.123,146.776,69.447,174.888,142.073c15.281,39.479-2.146,94.63-27.979,126.018
	c-32.021,38.898-74.266,67.146-111.917,100.052c-19.722,17.229-40.245,33.504-60.115,50.562
	c-32.235,27.652-63.833,56.062-96.404,83.337c-23.663,19.811-39.9,33.597-48.823,41.478c-8.799,7.689-16.896,14.66-24.376,20.896
	l-12.25,10.247l-2.684,2.445c-3.892,3.562-3.259,10.5,2.267,11.832l163.29,39.409l12.65,3.128l167.958,41.528
	c2.912,0.721,5.825,1.438,8.735,2.16l49.481,12.229c5.402-4.442,9.53-8.547,12.354-12.44c1.331-1.851,7.142-5.729,10.939-8.271
	l12.8-8.555c1.762-1.123,6.228-3.578,13.527-7.335c10.188-5.195,19.569-9.253,28.05-12.051c28.945-9.688,59.396-12.834,91.396-9.672
	c6.218,0.646,27.583,3.932,30.657,4.688c4,0.916,15.013,4.379,32.893,10.356c30.396,10.261,48.062,15.891,53.043,17.048
	c4.862,1.129,12.531,2.907,14.538,3.594l44.674,15.199c9.349,3.179,31.229,9.854,46.895,14.635l71.793,21.903
	c20.24,6.178,45.377,7.771,58.813-11.118l13.482-26.63c1.49-4.527,10.09-28.213,25.748-71.146
	c24.518-67.062,38.338-104.961,41.389-113.7c6.326-17.791,9.707-27.265,10.158-28.483c13.49-36.567,20.461-55.463,20.947-56.825
	l10.352-28.368c16.322-41.896,30.281-84.667,45.896-126.828c8.313-22.456,16.278-45.04,23.938-67.729
	c0.832-2.469,1.088-4.997,0.818-7.517c0.618-11.873,10.003-20.392,15.331-30.304l0.003,0.002c0.071-0.158,0.145-0.317,0.213-0.479
	c2.113-4.942,4.354-9.812,6.756-14.685c45.502-92.168,140.877-116.804,232.933-138.271c35.661-8.318,71.37-16.779,107.229-24.2
	c41.024-8.492,105.797-21.896,122.188-29.34c7.021-3.188,12.104-5.938,15.192-8.032c23.119-15.963,22.183-29.272-8.428-44.027
	c-8.908-4.316-18.742-7.507-29.65-9.745c-0.157-0.012-20.713-2.81-61.729-8.271c-87.531-11.654-175.025-23.57-262.552-35.29
	c-85.409-11.438-243.438-32.486-256.229-34.364c-11.935-1.752-23.961-2.8-35.881-4.656l-87.676-13.66
	c-1.226,0.392-2.568,0.442-3.896,0.063c-0.758-0.216-1.439-0.56-2.051-0.991L559.698,34.32c-10.12-1.576-57.45-10.903-86.135-16.557
	c-18.39-3.624-49.436-9.742-55.084-11.262c-19.353-5.202-36.435-7.337-48.549-6.207c-7.562,0.647-12.966,1.674-16.289,2.942
	c-3.899,1.493-24.878,16.079-27.388,18.998L277.222,59.08c-30.729,22.843-59.668,48.01-90.609,70.57l-34.539,25.184
	c-6.982,2.446-15.265,4.351-21.109-1.611l-0.173-0.263c-5.604-8.294-15.094-13.747-25.854-13.748
	c-17.225,0-31.185,13.96-31.185,31.181s13.96,31.181,31.185,31.181c0.258,0,0.516-0.003,0.771-0.009l-0.001-0.002
	c5.713,0.773,10.152,3.318,11.469,9.201L117.188,208.779z"/>
</svg>
