<?xml version="1.0" encoding="utf-8"?>
<!-- Generator: Adobe Illustrator 16.0.0, SVG Export Plug-In . SVG Version: 6.00 Build 0)  -->
<!DOCTYPE svg PUBLIC "-//W3C//DTD SVG 1.1//EN" "http://www.w3.org/Graphics/SVG/1.1/DTD/svg11.dtd">
<svg version="1.1" id="Layer_1" xmlns="http://www.w3.org/2000/svg" xmlns:xlink="http://www.w3.org/1999/xlink" x="0px" y="0px"
	 width="727.957px" height="982.15px" viewBox="0 0 727.957 982.15" enable-background="new 0 0 727.957 982.15"
	 xml:space="preserve">
<path fill="none" stroke="#000000" stroke-linejoin="round" stroke-miterlimit="10" d="M721.955,8.474l-2.846-1.458
	c-2.334-1.195-4.846-1.792-7.527-1.792c-4.113,0-7.932,1.287-11.455,3.862l-7.99,5.839
	c-15.559,11.368-91.508,51.136-227.846,119.304l-3.127,1.563c-24.812,12.405-54.447,18.608-88.908,18.608
	c-17.507,0-34.49-1.691-50.946-5.074c-16.365-3.364-30.51-8.048-42.433-14.052L67.114,28.633c-0.015-0.008-0.03-0.016-0.045-0.023
	c-4.652-2.385-11.177-6.529-19.574-12.436c-6.923-4.869-12.15-8.281-15.683-10.235C26.378,2.932,21.21,0.952,16.309,0
	c-0.989,0.002-3.273,0.131-6.854,0.385C7.713,0.509,5.138,2.184,1.728,5.409C0.576,6.499,0,7.812,0,9.349
	c0,0.123,0.004,0.246,0.013,0.369c0,0.003,0.001,0.006,0.001,0.009l1.613,23.117c0,0.001,0,0.002,0,0.003
	C3.229,55.954,4.103,68.121,4.248,69.35C5.45,79.5,10.211,143.16,18.53,260.328c2.303,32.421,8.714,93.299,19.234,182.634
	c3.869,32.858,5.939,51.565,6.211,56.12l2.364,5.707l30.367,44.881c0,0,0.001,0.002,0.002,0.004
	c91.238,135.008,154.994,228.947,191.266,281.816c25.773,37.562,41.648,60.492,47.625,68.783c0.021,0.023,0.038,0.055,0.062,0.082
	l3.488,4.977c0.01,0.014,0.019,0.027,0.024,0.041c4.589,6.646,8.146,11.146,10.657,13.502c3.5,3.279,7.095,4.959,10.783,5.045
	c7.148,0.162,17.831,0.326,32.037,0.492l0.367,0.002c5.223-0.004,9.861-1.711,13.932-5.123c2.92-2.449,7.268-7.613,13.045-15.49
	c0.002-0.002,0.002-0.002,0.002-0.002l1.188-1.621c0.143-0.229,0.434-0.719,0.875-1.469c14.32-24.166,28.951-46.553,43.896-67.158
	c35.303-48.682,82.068-114.729,140.293-198.137c53.068-76.018,82.557-118.791,88.465-128.32c0.178-0.402,0.469-1.297,0.871-2.674
	c0.033-0.104,0.061-0.211,0.094-0.311c0.188-1.379,0.611-4.455,1.275-9.23c15.355-110.517,24.904-188.533,28.633-234.051
	l0.029-0.339c9.438-115.213,16.088-187.168,19.938-215.862v-0.002c1.545-11.498,2.35-18.056,2.402-19.673
	c-0.408-5.723-0.729-9.104-0.959-10.143C726.068,11.831,724.387,9.72,721.955,8.474z"/>
</svg>
