<?xml version="1.0" encoding="utf-8"?>
<!-- Generator: Adobe Illustrator 16.0.0, SVG Export Plug-In . SVG Version: 6.00 Build 0)  -->
<!DOCTYPE svg PUBLIC "-//W3C//DTD SVG 1.1//EN" "http://www.w3.org/Graphics/SVG/1.1/DTD/svg11.dtd">
<svg version="1.1" id="Layer_1" xmlns="http://www.w3.org/2000/svg" xmlns:xlink="http://www.w3.org/1999/xlink" x="0px" y="0px"
	 width="651.004px" height="706.843px" viewBox="0 0 651.004 706.843" enable-background="new 0 0 651.004 706.843"
	 xml:space="preserve">
<path fill="none" stroke="#000000" stroke-linejoin="round" stroke-miterlimit="10" d="M648.307,678.591
	c-2.409-14.895-7.448-37.766-15.116-68.602l-0.017-0.059c0-0.002,0-0.002,0-0.004c-8.488-34.131-19.822-85.398-34.004-153.811
	c-12.965-62.55-23.193-109.25-30.686-140.104l-0.015-0.05c-6.125-24.811-9.828-39.275-11.104-43.394
	c-4.021-9.718-10.801-17.829-20.342-24.333c-6.074-4.143-16.242-8.089-30.511-11.84c-16.676-4.386-58.778-17.145-126.312-38.276
	c-27.635-8.646-48.562-15.52-62.782-20.622c-51.667-18.536-93.074-34.179-124.217-46.93c-42.05-17.218-73.947-32.247-95.689-45.089
	c-27.44-16.207-44.968-24.914-52.583-26.12c-4.095,1.133-6.408,4.285-6.935,9.452c-0.07,0.686-0.028,1.503,0.125,2.452
	c1.912,11.815,7.78,30.023,17.605,54.626c6.185,15.484,10.623,27.362,13.315,35.633c1.083,3.329,3.276,8.749,6.579,16.26
	c5.169,11.759,8.738,21.14,10.705,28.141c1.982,6.937,12.652,33.143,32.012,78.617c9.762,22.93,17.678,40.904,23.749,53.923
	c20.396,43.738,39.552,79.341,57.47,106.816c25.972,39.822,66.352,82.037,121.14,126.639c18.992,15.461,50.56,33.109,94.705,52.947
	c45.301,20.354,78.532,34.721,99.698,43.094c0.089,0.035,0.175,0.07,0.263,0.104l19.946,8.072c0.089,0.035,0.181,0.072,0.269,0.107
	c45.025,18.643,73.275,28.842,84.752,30.598c4.676-0.744,11.035-1.299,19.076-1.662c5.377-0.244,9.041-0.52,10.99-0.842
	c0.211-0.033,0.411-0.068,0.604-0.104C651.083,698.74,650.184,690.195,648.307,678.591z"/>
</svg>
