<?xml version="1.0" encoding="utf-8"?>
<!-- Generator: Adobe Illustrator 16.0.0, SVG Export Plug-In . SVG Version: 6.00 Build 0)  -->
<!DOCTYPE svg PUBLIC "-//W3C//DTD SVG 1.1//EN" "http://www.w3.org/Graphics/SVG/1.1/DTD/svg11.dtd">
<svg version="1.1" id="Layer_1" xmlns="http://www.w3.org/2000/svg" xmlns:xlink="http://www.w3.org/1999/xlink" x="0px" y="0px"
	 width="613.041px" height="647.48px" viewBox="0 0 613.041 647.48" enable-background="new 0 0 613.041 647.48"
	 xml:space="preserve">
<path d="M610.345,619.231c-2.41-14.896-7.449-37.767-15.117-68.603l-0.016-0.058c0-0.002,0-0.002,0-0.004
	c-8.488-34.132-19.822-85.399-34.005-153.812c-12.967-62.551-23.192-109.25-30.688-140.104l-0.012-0.05
	c-6.125-24.811-9.828-39.274-11.107-43.394c-4.021-9.718-10.801-17.829-20.342-24.333c-6.074-4.144-16.242-8.089-30.508-11.84
	c-16.677-4.387-58.781-17.146-126.314-38.276c-27.635-8.646-48.56-15.52-62.779-20.622C227.79,99.603,186.384,83.96,155.24,71.209
	C113.189,53.991,81.293,38.962,59.552,26.12C32.111,9.913,14.583,1.206,6.969,0C2.873,1.133,0.56,4.285,0.033,9.452
	c-0.07,0.686-0.028,1.503,0.125,2.451c1.91,11.816,7.778,30.024,17.604,54.627c6.186,15.483,10.623,27.361,13.314,35.633
	c1.083,3.329,3.274,8.749,6.578,16.26c5.17,11.759,8.737,21.14,10.704,28.141c1.982,6.938,12.652,33.144,32.014,78.617
	c9.763,22.93,17.679,40.903,23.749,53.923c20.396,43.738,39.553,79.341,57.471,106.816c25.972,39.821,66.352,82.037,121.14,126.639
	c18.992,15.461,50.562,33.109,94.706,52.947c45.301,20.354,78.533,34.721,99.699,43.094c0.088,0.035,0.174,0.07,0.262,0.104
	l19.947,8.072c0.088,0.034,0.18,0.071,0.268,0.106c45.025,18.644,73.275,28.842,84.752,30.599c4.678-0.744,11.035-1.3,19.076-1.662
	c5.377-0.244,9.041-0.521,10.99-0.842c0.211-0.033,0.412-0.068,0.604-0.104C613.118,639.381,612.222,630.836,610.345,619.231z"/>
</svg>
