<?xml version="1.0" encoding="utf-8"?>
<!-- Generator: Adobe Illustrator 16.0.0, SVG Export Plug-In . SVG Version: 6.00 Build 0)  -->
<!DOCTYPE svg PUBLIC "-//W3C//DTD SVG 1.1//EN" "http://www.w3.org/Graphics/SVG/1.1/DTD/svg11.dtd">
<svg version="1.1" id="Layer_1" xmlns="http://www.w3.org/2000/svg" xmlns:xlink="http://www.w3.org/1999/xlink" x="0px" y="0px"
	 width="685.598px" height="677.783px" viewBox="0 0 685.598 677.783" enable-background="new 0 0 685.598 677.783"
	 xml:space="preserve">
<path fill="none" stroke="#000000" stroke-linejoin="round" stroke-miterlimit="10" d="M630.153,52.648
	c-7.656,0.916-25.502,8.95-53.539,24.102c-22.215,12.006-54.66,25.812-97.334,41.417c-31.605,11.558-73.576,25.615-125.912,42.174
	c-14.407,4.559-35.58,10.632-63.52,18.221c-68.29,18.548-110.851,29.696-127.683,33.445c-14.395,3.205-24.706,6.763-30.935,10.671
	c-9.782,6.138-16.865,13.985-21.249,23.543c-1.438,4.066-5.688,18.38-12.752,42.939l-0.015,0.05
	c-8.658,30.546-20.654,76.824-35.989,138.833c-16.772,67.822-30.048,118.626-39.828,152.408v0.003l-0.016,0.056
	c-8.836,30.521-14.742,53.185-17.717,67.979C1.349,660.008,0.127,668.516,0,674.011c0.192,0.043,0.392,0.086,0.6,0.128
	c1.938,0.392,5.589,0.811,10.952,1.258c8.022,0.671,14.355,1.467,19,2.388c11.534-1.316,40.152-10.438,85.854-27.354
	c0.09-0.03,0.18-0.063,0.27-0.101l20.241-7.309c0.088-0.031,0.177-0.062,0.266-0.096c21.468-7.562,55.223-20.651,101.266-39.271
	c44.867-18.146,77.083-34.579,96.646-49.309c56.446-42.484,98.401-83.133,125.868-121.938
	c18.949-26.773,39.447-61.625,61.49-104.557c6.561-12.778,15.156-30.439,25.781-52.981c21.073-44.705,32.731-70.485,34.979-77.342
	c2.232-6.922,6.154-16.159,11.771-27.714c3.586-7.38,5.979-12.713,7.188-15.998c3.006-8.163,7.896-19.863,14.66-35.102
	c10.754-24.211,17.311-42.184,19.67-53.917c0.189-0.942,0.262-1.758,0.219-2.445C636.393,57.173,634.202,53.937,630.153,52.648z"/>
</svg>
