<?xml version="1.0" encoding="utf-8"?>
<!-- Generator: Adobe Illustrator 16.0.0, SVG Export Plug-In . SVG Version: 6.00 Build 0)  -->
<!DOCTYPE svg PUBLIC "-//W3C//DTD SVG 1.1//EN" "http://www.w3.org/Graphics/SVG/1.1/DTD/svg11.dtd">
<svg version="1.1" id="Layer_1" xmlns="http://www.w3.org/2000/svg" xmlns:xlink="http://www.w3.org/1999/xlink" x="0px" y="0px"
	 width="1187.232px" height="664.954px" viewBox="0 0 1187.232 664.954" enable-background="new 0 0 1187.232 664.954"
	 xml:space="preserve">
<path fill="none" stroke="#000000" stroke-linejoin="round" stroke-miterlimit="10" d="M1139.188,601.208
	c4.862-3.133,10.65-4.949,16.863-4.949c17.223,0,31.184,13.961,31.184,31.182s-13.961,31.182-31.184,31.182
	c-17.221,0-31.182-13.961-31.182-31.182c0-2.752,0.357-5.424,1.027-7.967c-0.141-1.418-0.877-2.389-2.424-2.072
	c-5.744,4.916-13.031,8.232-20.838,9.389c-0.002,0-0.004,0-0.006,0l-37.277,5.018c-4.717,0.584-34.99,3.785-90.832,9.6l-0.053,0.004
	c-69.871,7.27-120.029,11.758-150.476,13.467c-119.288,6.68-190.431,10.039-213.436,10.08l-237.215-2.893
	c-24.492-0.303-88.138-4.326-190.938-12.09h-0.008c-37.795-2.848-60.858-5.344-69.19-7.482
	c-21.951-5.639-47.761-12.268-64.009-22.535c-9.017-5.701-17.874-13.262-26.568-22.68c-3.177-3.447-8.271-12.285-15.28-26.52
	C2.45,560.807,0,549.252,0,536.096c0-27.1,13.034-65.256,39.102-114.467c18.662-35.229,40.362-71.551,65.102-108.973
	c6.403-9.685,16.915-24.276,31.537-43.776c55.535-74.064,109.176-132.504,160.92-175.32c17.365-14.366,28.621-23.39,33.768-27.072
	C360.86,44.737,393.116,28.561,427.2,17.96c15.635-4.862,50.049-10.22,103.243-16.072l1.001-0.095
	C546.381,0.598,563.243,0,582.019,0c15.854,0,40.107,0.611,72.772,1.831h0.002C718.049,4.196,785.01,8.997,855.675,16.23
	c29.2,2.989,47.733,5.818,55.604,8.485c21.896,8.294,35.068,13.986,39.521,17.077c22.744,15.796,39.095,38.995,54.996,61.563
	c11.992,17.017,23.362,46.051,34.096,87.104l79.168,302.667c2.437,9.312,5.166,24.904,8.191,46.777
	c2.377,17.176,8.427,33.857,8.531,51.301c0.014,2.361-0.216,4.648-0.664,6.85C1135.321,600.409,1136.735,601.944,1139.188,601.208z"
	/>
</svg>
