<?xml version="1.0" encoding="utf-8"?>
<!-- Generator: Adobe Illustrator 16.0.0, SVG Export Plug-In . SVG Version: 6.00 Build 0)  -->
<!DOCTYPE svg PUBLIC "-//W3C//DTD SVG 1.1//EN" "http://www.w3.org/Graphics/SVG/1.1/DTD/svg11.dtd">
<svg version="1.1" id="Layer_1" xmlns="http://www.w3.org/2000/svg" xmlns:xlink="http://www.w3.org/1999/xlink" x="0px" y="0px"
	 width="1673.684px" height="531.98px" viewBox="0 0 1673.684 531.98" enable-background="new 0 0 1673.684 531.98"
	 xml:space="preserve">
<path d="M1671.198,407.953c-2.915-3.729-9.547-8.368-19.896-13.926l0,0c-51.268-27.523-80.604-42.877-88.021-46.057
	c-44.105-18.926-107.852-50.207-191.224-93.861c-60.256-31.545-105.53-54.435-135.832-68.667
	c-74.98-35.222-152.062-65.729-230.325-92.845c-36.89-12.779-71.104-23.183-102.651-31.208c-10.584-2.693-26.95-6.453-49.104-11.278
	c-0.067-0.016-0.143-0.031-0.213-0.047l-26.444-5.845c-0.144-0.031-0.283-0.062-0.428-0.095
	c-70.906-16.119-140.572-27.513-209-34.175l-28.397-2.623c-99.688-8.682-186.51-9.648-260.468-2.899l-100.785,9.197
	c-23.867,2.178-49.412,5.402-76.639,9.671c-25.871,4.058-47.507,8.694-64.904,13.91c-5.537,1.659-15.714,6.783-30.528,15.369
	c-11.646,6.75-20.816,11.788-27.511,15.113c-4.354,2.163-10.084,7.726-17.198,16.69C5.346,92.295,1.542,98.159,0.222,101.969
	c-0.071,0.428-0.125,0.854-0.162,1.276c-0.043,0.492-0.062,0.976-0.06,1.454c2.153,1.043,6.393,2.757,12.712,5.14
	c21.629,8.154,38.421,16.812,50.377,25.97c0.024,0.019,0.049,0.038,0.07,0.054c35.633,8.704,314.401,131.201,836.311,367.497
	l45.073,20.4c9.648,4.368,16.222,7.106,19.714,8.22c2.022-0.375,5.399-1.223,10.131-2.533c5.924-1.649,19.102-22.151,27.008-34.454
	c10.703-16.656,23.647-34.15,38.832-52.482c19.76-23.854,36.953-38.584,51.583-44.185c57.458-21.995,119.816-23.924,180.312-15.395
	c87.905,12.396,145.406,21.092,172.5,26.098l0.493,0.091c42.646,7.604,84.479,19.639,127.481,25.188
	c24.229,3.128,40.094,5.062,47.59,5.807c15.962-1.873,26.562-3.834,31.808-5.886c12.038-4.701,19.268-9.475,21.677-14.306
	C1673.788,417.417,1672.965,413.427,1671.198,407.953z"/>
</svg>
