<?xml version="1.0" encoding="utf-8"?>
<!-- Generator: Adobe Illustrator 16.0.0, SVG Export Plug-In . SVG Version: 6.00 Build 0)  -->
<!DOCTYPE svg PUBLIC "-//W3C//DTD SVG 1.1//EN" "http://www.w3.org/Graphics/SVG/1.1/DTD/svg11.dtd">
<svg version="1.1" id="Layer_1" xmlns="http://www.w3.org/2000/svg" xmlns:xlink="http://www.w3.org/1999/xlink" x="0px" y="0px"
	 width="1742.317px" height="520.996px" viewBox="0 0 1742.317 520.996" enable-background="new 0 0 1742.317 520.996"
	 xml:space="preserve">
<path fill="none" stroke="#000000" stroke-linejoin="round" stroke-miterlimit="10" d="M1682.083,120.623
	c-3.369-3.781-9.477-2.393-13.893-1.984c-0.348,0.124-0.701,0.249-1.062,0.376c-21.795,7.697-38.768,15.998-50.914,24.903
	c-0.021,0.018-0.049,0.036-0.066,0.052c-35.812,7.949-317.104,124.542-843.874,349.776l-45.492,19.451
	c-9.741,4.164-16.368,6.764-19.886,7.799c-2.015-0.416-5.375-1.334-10.071-2.748c-5.889-1.777-18.629-22.549-26.275-35.016
	c-10.35-16.879-22.923-34.646-37.717-53.291c-19.251-24.271-36.131-39.357-50.644-45.262
	c-56.979-23.201-119.281-26.441-179.944-19.189c-88.15,10.535-145.821,18.021-173.013,22.455l-0.496,0.076
	c-42.799,6.705-84.872,17.852-127.987,22.496c-24.288,2.616-40.189,4.219-47.699,4.801c-15.919-2.209-26.477-4.396-31.675-6.555
	c-11.938-4.957-19.062-9.878-21.371-14.761c-0.064-2.508,0.845-6.478,2.728-11.914c2.993-3.663,9.721-8.163,20.185-13.502
	c51.834-26.435,81.492-41.168,88.972-44.188c44.497-17.986,108.884-47.922,193.158-89.802
	c60.907-30.268,106.656-52.199,137.249-65.789c75.709-33.632,153.414-62.508,232.232-87.966
	c37.146-11.999,71.576-21.678,103.286-29.037c10.642-2.469,27.081-5.883,49.33-10.24c0.07-0.014,0.146-0.029,0.218-0.043
	l26.562-5.287c0.146-0.027,0.284-0.057,0.428-0.086c71.234-14.624,141.119-24.546,209.677-29.765l28.443-2.023
	c99.852-6.578,186.672-5.713,260.475,2.594l100.568,11.32c23.812,2.681,49.285,6.443,76.414,11.286
	c25.783,4.602,47.316,9.693,64.604,15.274c5.5,1.777,15.562,7.113,30.193,16.009c11.5,6.994,20.566,12.224,27.188,15.69
	c4.307,2.254,9.92,7.937,16.842,17.049c0.635,0.833,1.24,1.644,1.822,2.432l-0.004-0.002c3.795,1.993,7.508,5.382,11.51,1.93
	c4.535-11.613,15.834-19.84,29.055-19.84c17.221,0,31.18,13.959,31.18,31.18c0,17.22-13.959,31.18-31.18,31.18
	c-13.221,0-24.518-8.225-29.053-19.835L1682.083,120.623z"/>
</svg>
