<?xml version="1.0" encoding="utf-8"?>
<!-- Generator: Adobe Illustrator 16.0.0, SVG Export Plug-In . SVG Version: 6.00 Build 0)  -->
<!DOCTYPE svg PUBLIC "-//W3C//DTD SVG 1.1//EN" "http://www.w3.org/Graphics/SVG/1.1/DTD/svg11.dtd">
<svg version="1.1" id="Layer_1" xmlns="http://www.w3.org/2000/svg" xmlns:xlink="http://www.w3.org/1999/xlink" x="0px" y="0px"
	 width="1771.07px" height="733.05px" viewBox="0 0 1771.07 733.05" enable-background="new 0 0 1771.07 733.05"
	 xml:space="preserve">
<path d="M1767.124,572.554c-3.071-3.055-9.057-7.145-17.942-12.27c-24.219-13.963-199.471-129.746-298.739-195.333l-149.543-98.797
	c-63.992-42.139-100.541-66.498-109.646-73.078c-21.681-15.663-40.464-32.907-56.354-51.734
	c-13.334-15.796-24.47-34.132-33.4-55.008c-2.44-5.704-5.407-13.617-8.899-23.74c-3.354-9.713-5.698-15.682-7.049-17.905
	c-14.022-23.149-35.487-43.627-63.655-44.672c-5.099-0.19-10.949,1.209-17.556,4.196C856.228,71.195,734.259,122.97,638.415,159.541
	c-120.204,45.866-236.987,100.167-356.708,147.251c-47.977,18.868-117.562,49.106-208.758,90.713
	c-24.902,11.361-41.64,20.271-50.209,26.732c-13.235,9.979-20.729,21.465-22.479,34.453c-0.503,3.725-0.283,12.699,0.657,26.938
	c0.462,6.982,7.875,31.08,12.59,46.404l0.001,0.002c14.794,48.164,25.109,78.438,30.952,90.83c0.025,0.041,0.065,0.102,0.122,0.178
	l0,0l0,0c25.948,12.041,46.084,22.395,60.409,31.068c5.945,3.6,10.674,6.373,14.184,8.314c8.837-7.107,19.271-13.471,31.307-19.076
	c10.328-4.811,24.473-9.729,42.433-14.77c9.341-2.619,33.946-7.297,73.816-14.033c15.979-2.701,40.266-7.402,72.854-14.104
	c43.719-8.996,87.773-16.279,131.468-25.414c39.729-8.311,83.349-14.803,125.212-21.031c24.315-3.619,52.702-5.67,85.152-6.15
	c15.519-0.229,32.47,0.859,50.853,3.271c17.044,2.229,32.74,5.021,47.096,8.391c9.037,2.117,22.892,5.15,41.559,9.105
	c15.543,3.289,38.635,8.178,46.545,10.268c13.089,3.457,37.312,9.824,39.262,10.385c84.128,24.107,171.843,55.498,263.146,94.178
	c12.324,5.223,31.236,12.846,56.736,22.865c20.062,7.889,35.164,13.912,45.313,18.078l0.065,0.027
	c12.377,5.039,20.027,7.91,22.957,8.607c1.724,0.414,22.896-4.264,34.33-6.477c0.021-0.004,0.035-0.008,0.062-0.014l0.08-0.021
	c32.067-7.643,151.846-37.072,359.326-88.293l0.271-0.061c22.957-5.744,45.888-14.439,62.332-31.998
	c7.074-7.559,19.979-21.332,19.716-23.943C1770.839,579.955,1769.525,576.734,1767.124,572.554z M1257.197,504.109
	c-1.724,7.34-4.25,14.379-7.59,21.111c-8.22,16.574-20.291,30.371-36.226,41.393c-28.961,20.025-64.157,29.061-105.59,27.096
	c-6.976-0.33-13.854-1.291-20.646-2.883c-13.433-3.148-24.267-6.439-32.496-9.865c-19.021-7.926-34.67-18.098-46.938-30.518
	c-0.824-0.836-1.629-1.689-2.41-2.562c-2.957-3.303-6.808-8.164-11.551-14.584c-6.457-8.74-10.72-18.441-12.781-29.111l-0.555-2.863
	c-3.974-18.316-4.351-34.352-1.128-48.096c0.466-1.979,0.997-3.934,1.599-5.857c6.127-19.662,17.582-36.896,34.367-51.703
	c18.565-16.381,39.692-26.102,63.379-29.157c10.634-1.372,20.078-2.306,28.338-2.8c14.55-0.872,29.373,0.463,44.479,4.001
	c28.064,6.578,52.066,18.979,72.01,37.207c21.131,19.316,33.043,41.252,35.738,65.807
	C1260.437,481.994,1259.77,493.123,1257.197,504.109z"/>
</svg>
