<?xml version="1.0" encoding="utf-8"?>
<!-- Generator: Adobe Illustrator 16.0.0, SVG Export Plug-In . SVG Version: 6.00 Build 0)  -->
<!DOCTYPE svg PUBLIC "-//W3C//DTD SVG 1.1//EN" "http://www.w3.org/Graphics/SVG/1.1/DTD/svg11.dtd">
<svg version="1.1" id="Layer_1" xmlns="http://www.w3.org/2000/svg" xmlns:xlink="http://www.w3.org/1999/xlink" x="0px" y="0px"
	 width="2858.96px" height="1177.766px" viewBox="0 0 2858.96 1177.766" enable-background="new 0 0 2858.96 1177.766"
	 xml:space="preserve">
<path fill="none" stroke="#000000" stroke-linejoin="round" stroke-miterlimit="10" d="M426.931,648.468
	c-3.621,2.152-6.433,3.782-8.328,4.822c-8.993,4.938-15.062,8.899-18.199,11.891c-2.488,4.127-3.869,7.318-4.145,9.572
	c-0.031,0.26,0.065,0.633,0.272,1.102"/>
<path fill="none" stroke="#000000" stroke-linejoin="round" stroke-miterlimit="10" d="M1185.277,104.699
	c2.152,1.043,6.392,2.757,12.712,5.14c21.628,8.154,38.42,16.812,50.377,25.97c0.025,0.019,0.048,0.038,0.07,0.054
	c35.633,8.704,314.401,131.201,836.309,367.496l45.072,20.403c9.648,4.368,16.223,7.107,19.715,8.221"/>
<path fill="none" stroke="#000000" stroke-linejoin="round" stroke-miterlimit="10" d="M866.29,847.359
	c-0.033-0.121-0.08-0.264-0.144-0.428c-4.177-2.735-11.955-5.481-23.334-8.231c-160.73-38.855-288.387-73.059-382.965-102.604
	c-22.714-7.096-40.65-8.496-53.809-4.195"/>
<path fill="none" stroke="#000001" stroke-linejoin="round" stroke-miterlimit="10" d="M2139.422,548.044
	c-9.363-5.936-23.206-13.318-41.53-22.152c-90.299-43.521-159.23-75.22-206.799-95.095
	c-118.699-49.598-234.311-106.35-353.523-154.74c-94.453-38.34-214.384-92.236-359.797-161.688"/>
<path fill="none" stroke="#000001" stroke-linejoin="round" stroke-miterlimit="10" d="M416.307,700.034
	c16.019,17.293,38.365,26.257,60.8,32.379l0.27,0.072c206.355,55.584,325.484,87.531,357.386,95.852l0.081,0.021
	c0.023,0.007,0.043,0.011,0.061,0.013c11.385,2.455,32.458,7.576,34.187,7.199c0.816-0.179,2-0.517,3.55-1.013"/>
</svg>
