<?xml version="1.0" encoding="utf-8"?>
<!-- Generator: Adobe Illustrator 16.0.0, SVG Export Plug-In . SVG Version: 6.00 Build 0)  -->
<!DOCTYPE svg PUBLIC "-//W3C//DTD SVG 1.1//EN" "http://www.w3.org/Graphics/SVG/1.1/DTD/svg11.dtd">
<svg version="1.1" id="Layer_1" xmlns="http://www.w3.org/2000/svg" xmlns:xlink="http://www.w3.org/1999/xlink" x="0px" y="0px"
	 width="2858.96px" height="1177.766px" viewBox="0 0 2858.96 1177.766" enable-background="new 0 0 2858.96 1177.766"
	 xml:space="preserve">
<path fill="none" stroke="#000001" stroke-linejoin="round" stroke-miterlimit="10" d="M416.313,700.032
	c6.958,11.209,0.521,25.849-10.273,31.871l-0.001-0.003c-0.529,0.173-1.05,0.355-1.563,0.547
	c-15.023,5.594-25.104,8.953-30.236,10.07h-0.001c-20.166,4.4-36.214,6.01-48.144,4.82c-22.66-2.254-39.19-4.693-49.592-7.312
	c-0.617-0.154-1.23-0.318-1.842-0.488l-76.688-21.482c-0.385-0.105-0.769-0.219-1.152-0.334l-19.418-5.789
	C85.236,686.786,34.008,671.559,23.72,666.249c-2.419-1.25-6.332-2.217-11.738-2.904c-0.022-0.002-0.044-0.006-0.065-0.008
	c-3.273,2.045-6.691,3.814-10.252,5.312c-0.162,0.094-0.388,0.254-0.679,0.479c-0.114,0.088-0.199,0.156-0.254,0.209
	c-0.209,0.248-0.421,0.494-0.634,0.738c-0.01,0.066-0.02,0.141-0.029,0.217c-0.049,0.387-0.072,0.674-0.067,0.861
	c0.294,2.947,0.406,5.904,0.334,8.866c6.125,8.743,13.03,18.071,20.714,27.981c8.718,11.244,22.43,28.127,41.134,50.65
	c15.758,18.975,27.551,33.389,35.38,43.238c0.106,0.137,0.213,0.27,0.318,0.402l4.497,5.742c0.071,0.09,0.141,0.18,0.211,0.271
	c7.52,9.695,22.562,29.512,45.127,59.438c13.261,17.588,42.051,61.467,86.368,131.637c10.522,16.658,19.273,34.729,26.252,54.211
	c1.577,4.402,4.189,11.275,7.835,20.615c0.036,0.094,0.072,0.188,0.108,0.279l5.766,14.957c0.071,0.186,0.143,0.371,0.213,0.557
	c14.442,38.408,21.707,66.053,21.792,82.938c0.071,0.096,0.15,0.201,0.238,0.312l3.087,3.98c0,0.002,0,0,0,0.002
	c1.212,0.322,2.131,0.502,2.758,0.531c0.401-0.209,0.939-0.564,1.614-1.076c2.658-2.004,5.442-3.812,8.353-5.436
	c1.772-0.984,3.646-2.146,5.616-3.484c38.491-26.143,64.547-43.309,78.17-51.496l10-6.01c3.804-2.285,9.983-6.391,18.544-12.314
	c11.961-8.279,21.457-14.488,28.486-18.625c62.138-36.574,115.191-67.385,159.158-92.43c23.179-13.205,62.557-34.521,118.136-63.952
	c0.008-0.005,0.018-0.011,0.025-0.017l20.572-10.885c0.006,0,0.01-0.004,0.014-0.006c63.081-33.357,101.146-53.734,114.199-61.131
	c0.135-0.273,0.276-0.6,0.435-0.975c0.476-1.146,0.754-2.006,0.834-2.566c1.172-4.602,2.179-9.909,6.351-12.804
	c4.037-1.292,10.566-3.665,19.583-7.114l0.07-0.026c10.235-3.951,25.464-9.656,45.685-17.117
	c25.706-9.481,44.776-16.705,57.209-21.666c92.101-36.744,180.454-66.279,265.07-88.606c1.963-0.519,26.313-6.372,39.474-9.554
	c7.951-1.924,31.144-6.321,46.75-9.282c18.747-3.56,32.659-6.302,41.738-8.228c14.422-3.062,30.176-5.525,47.258-7.396
	c18.434-2.021,35.4-2.75,50.91-2.192c32.438,1.164,60.771,3.811,85.004,7.944c41.729,7.11,85.193,14.521,124.742,23.666
	c43.488,10.054,87.383,18.265,130.902,28.179c32.438,7.391,56.617,12.604,72.537,15.641c39.721,7.576,64.223,12.771,73.506,15.586
	c17.85,5.416,31.887,10.638,42.107,15.662c11.914,5.857,22.217,12.438,30.898,19.732c3.549-1.873,8.332-4.545,14.354-8.021
	c14.504-8.367,34.855-18.299,61.055-29.789c0.055-0.071,0.098-0.135,0.123-0.176c6.104-12.262,17.059-42.312,32.859-90.158
	c5.037-15.221,12.955-39.153,13.562-46.129c1.242-14.211,1.65-23.184,1.23-26.917c-1.473-13.021-8.721-24.661-21.744-34.916
	c-2.166-1.705-4.867-3.583-8.103-5.634c-5.177-7.762,2.402-15.108,10.11-16.062c2.021-0.375,5.402-1.224,10.131-2.536
	c5.924-1.649,19.102-22.151,27.008-34.455c10.703-16.656,23.646-34.15,38.832-52.482c19.76-23.854,36.953-38.584,51.582-44.185
	c57.459-21.995,119.818-23.92,180.314-15.393c87.906,12.394,145.408,21.092,172.5,26.098l0.494,0.089
	c42.645,7.604,84.477,19.639,127.48,25.189c24.23,3.128,40.094,5.062,47.588,5.805c15.963-1.873,26.564-3.833,31.811-5.883
	c12.039-4.704,19.266-9.475,21.676-14.307c0.117-2.506-0.707-6.496-2.475-11.97c-2.916-3.729-9.547-8.368-19.896-13.924l0,0
	c-51.266-27.525-80.605-42.877-88.021-46.059c-44.104-18.922-107.85-50.207-191.221-93.855
	c-60.256-31.545-105.533-54.435-135.832-68.667c-74.979-35.222-152.061-65.729-230.328-92.845
	c-36.887-12.779-71.104-23.183-102.648-31.208c-10.584-2.693-26.951-6.453-49.105-11.278c-0.068-0.016-0.143-0.031-0.213-0.047
	l-26.447-5.845c-0.141-0.031-0.281-0.063-0.426-0.095c-70.904-16.124-140.57-27.518-208.998-34.18l-28.396-2.623
	c-99.689-8.682-186.512-9.648-260.471-2.899l-100.787,9.197c-23.866,2.178-49.411,5.402-76.639,9.671
	c-25.871,4.058-47.507,8.694-64.904,13.91c-5.536,1.659-15.714,6.783-30.527,15.369c-11.646,6.75-20.817,11.788-27.511,15.113
	c-4.354,2.163-10.084,7.726-17.198,16.69c-6.282,7.917-10.084,13.781-11.406,17.591c-0.071,0.428-0.125,0.854-0.162,1.276
	c-0.043,0.492-0.062,0.976-0.059,1.454c0.076,4.584-2.532,9.286-7.501,9.672l-0.003-0.001c-0.92-0.439-1.841-0.879-2.763-1.32
	c-6.541-3.126-12.361-4.649-17.462-4.566c-28.187,0.452-50.074,20.472-64.585,43.321c-1.396,2.195-3.869,8.112-7.424,17.753
	c-3.706,10.047-6.838,17.896-9.399,23.547c-9.372,20.682-20.891,38.779-34.555,54.291c-16.286,18.488-35.434,35.333-57.437,50.535
	c-9.244,6.386-46.299,29.969-111.164,70.749l-151.592,95.622c-92.846,58.568-251.264,158.496-294.462,184.166
	c-7.42,0-13.425-4.662-13.418-10.423c-0.404-16.867-14.205-30.419-31.171-30.419c-17.221,0-31.181,13.961-31.181,31.182
	c0,17.216,13.953,31.174,31.17,31.181c3.678,0.001,6.723-0.361,9.233,0.556c1.968,0.72,3.608,2.226,4.967,5.311
	c1.869,4.241,12.708,16.317,18.932,23.253c0.279,0.312,0.561,0.62,0.844,0.927L416.313,700.032z"/>
</svg>
