<?xml version="1.0" encoding="utf-8"?>
<!-- Generator: Adobe Illustrator 16.0.0, SVG Export Plug-In . SVG Version: 6.00 Build 0)  -->
<!DOCTYPE svg PUBLIC "-//W3C//DTD SVG 1.1//EN" "http://www.w3.org/Graphics/SVG/1.1/DTD/svg11.dtd">
<svg version="1.1" id="Layer_1" xmlns="http://www.w3.org/2000/svg" xmlns:xlink="http://www.w3.org/1999/xlink" x="0px" y="0px"
	 width="2888.699px" height="1194.371px" viewBox="0 0 2888.699 1194.371" enable-background="new 0 0 2888.699 1194.371"
	 xml:space="preserve">
<path fill="none" stroke="#000000" stroke-miterlimit="10" d="M2030.975,838.483l0.079-0.021
	c32.07-7.643,151.847-37.074,359.328-88.293l0.271-0.067c22.955-5.741,45.887-14.437,62.33-31.998
	c7.074-7.554,19.979-21.33,19.717-23.939c-0.229-2.261-1.539-5.48-3.941-9.658c-3.07-3.056-9.057-7.146-17.941-12.271
	c-24.221-13.965-199.475-129.747-298.74-195.331l-149.543-98.797c-63.99-42.139-100.539-66.498-109.646-73.078
	c-21.678-15.663-40.463-32.907-56.354-51.734c-13.334-15.796-24.468-34.132-33.402-55.008c-2.438-5.704-5.405-13.617-8.896-23.74
	c-3.354-9.713-5.701-15.682-7.049-17.906c-14.025-23.149-35.488-43.627-63.656-44.672c-5.101-0.19-10.949,1.209-17.558,4.197
	c-148.103,66.981-270.071,118.757-365.916,155.327c-120.204,45.866-236.987,100.168-356.707,147.252
	c-47.978,18.868-117.562,49.104-208.76,90.713c-24.899,11.361-41.639,20.271-50.209,26.731
	c-13.233,9.979-20.729,21.464-22.479,34.449c-0.502,3.728-0.283,12.704,0.658,26.938c0.463,6.98,7.875,31.081,12.59,46.402
	l0.001,0.003c14.793,48.163,25.107,78.439,30.952,90.828c0.024,0.041,0.064,0.104,0.122,0.181c0,0,0,0,0,0.001v-0.001
	c25.946,12.041,46.084,22.396,60.408,31.065c5.945,3.603,10.675,6.373,14.185,8.32c8.836-7.112,19.271-13.471,31.306-19.077
	c10.328-4.81,24.473-9.731,42.433-14.769c9.343-2.619,33.946-7.299,73.816-14.033c15.981-2.701,40.268-7.403,72.854-14.107
	c43.719-8.995,87.773-16.276,131.468-25.413c39.729-8.307,83.347-14.799,125.212-21.028c24.316-3.62,52.702-5.672,85.152-6.15
	c15.519-0.229,32.47,0.859,50.853,3.266c17.043,2.229,32.741,5.026,47.095,8.394c9.036,2.117,22.89,5.149,41.558,9.104
	c15.543,3.29,38.635,8.18,46.545,10.27c13.088,3.457,37.312,9.823,39.262,10.385c84.127,24.106,171.843,55.499,263.146,94.176
	c12.326,5.225,31.238,12.847,56.738,22.868c20.062,7.886,35.164,13.911,45.313,18.077l0.067,0.026
	c12.377,5.039,20.029,7.908,22.957,8.611c1.722,0.414,22.896-4.262,34.33-6.476C2030.932,838.493,2030.951,838.489,2030.975,838.483
	z M1958.83,616.057c-1.721,7.344-4.25,14.381-7.59,21.116c-8.217,16.574-20.291,30.371-36.225,41.392
	c-28.961,20.026-64.156,29.062-105.59,27.096c-6.973-0.331-13.854-1.291-20.645-2.883c-13.436-3.148-24.27-6.438-32.498-9.866
	c-19.023-7.925-34.67-18.097-46.938-30.521c-0.823-0.835-1.629-1.688-2.41-2.562c-2.957-3.302-6.809-8.163-11.553-14.584
	c-6.457-8.739-10.717-18.443-12.779-29.111l-0.555-2.868c-3.973-18.313-4.348-34.346-1.127-48.09
	c0.465-1.979,0.996-3.935,1.598-5.863c6.125-19.66,17.582-36.896,34.367-51.701c18.568-16.381,39.695-26.101,63.379-29.155
	c10.631-1.372,20.078-2.306,28.338-2.8c14.548-0.872,29.373,0.463,44.48,4.003c28.065,6.577,52.067,18.979,72.006,37.206
	c21.131,19.314,33.045,41.253,35.742,65.807C1962.072,593.941,1961.404,605.071,1958.83,616.057z M726.782,513.197l45.494-19.451
	c526.771-225.235,808.062-341.827,843.872-349.777c0.021-0.016,0.045-0.034,0.068-0.052c12.146-8.905,29.119-17.206,50.914-24.903
	c6.371-2.25,10.643-3.873,12.818-4.87c0.014-0.478,0.004-0.963-0.027-1.455c-0.029-0.424-0.074-0.85-0.137-1.28
	c-1.24-3.837-4.918-9.779-11.031-17.827c-6.922-9.112-12.537-14.795-16.842-17.049c-6.623-3.466-15.688-8.696-27.188-15.69
	c-14.631-8.896-24.693-14.232-30.193-16.009c-17.285-5.581-38.818-10.672-64.602-15.274c-27.129-4.843-52.602-8.605-76.416-11.286
	l-100.571-11.32c-73.8-8.307-160.623-9.172-260.472-2.594l-28.446,2.023C995.47,11.602,925.58,21.524,854.35,36.148
	c-0.143,0.029-0.282,0.059-0.427,0.086l-26.562,5.287c-0.071,0.014-0.146,0.029-0.217,0.043c-22.249,4.357-38.689,7.771-49.33,10.24
	c-31.71,7.359-66.14,17.038-103.286,29.037c-78.819,25.458-156.524,54.334-232.233,87.966
	c-30.593,13.59-76.342,35.521-137.249,65.789c-84.274,41.882-148.661,71.816-193.158,89.804
	c-7.48,3.023-37.138,17.754-88.972,44.191c-10.464,5.336-17.192,9.837-20.185,13.501c-1.883,5.437-2.792,9.407-2.728,11.915
	c2.309,4.882,9.433,9.802,21.371,14.76c5.198,2.158,15.756,4.344,31.675,6.553c7.51-0.582,23.411-2.183,47.699-4.798
	c43.115-4.646,85.188-15.794,127.987-22.5l0.496-0.078c27.192-4.434,84.863-11.919,173.013-22.455
	c60.663-7.251,122.966-4.011,179.945,19.19c14.512,5.907,31.392,20.995,50.643,45.262c14.794,18.646,27.367,36.412,37.717,53.29
	c7.646,12.467,20.387,33.239,26.275,35.016c4.697,1.416,8.058,2.332,10.072,2.749C710.414,519.961,717.041,517.361,726.782,513.197z
	 M2888.645,692.666c-0.009-0.077-0.017-0.149-0.022-0.218c-0.209-0.249-0.414-0.5-0.619-0.751c-0.055-0.057-0.139-0.125-0.25-0.216
	c-0.287-0.231-0.51-0.396-0.668-0.493c-3.532-1.568-6.916-3.409-10.146-5.521c-0.021,0.003-0.043,0.005-0.066,0.007
	c-5.418,0.578-9.348,1.472-11.793,2.669c-10.391,5.105-61.912,19.312-154.562,42.609l-19.531,5.401
	c-0.385,0.104-0.771,0.209-1.158,0.31l-77.102,19.946c-0.615,0.159-1.232,0.311-1.854,0.453
	c-10.452,2.411-27.028,4.516-49.729,6.312c-11.949,0.947-27.963-0.981-48.039-5.797h-0.002c-5.109-1.225-15.123-4.789-30.035-10.688
	c-13.188-5.223-31.666-4.375-55.438,2.531c-95.146,27.656-223.459,59.304-384.937,94.936c-11.433,2.521-19.262,5.114-23.494,7.771
	c-0.063,0.162-0.114,0.306-0.149,0.424c0.067,0.564,0.33,1.43,0.782,2.59c0.146,0.377,0.285,0.705,0.414,0.979
	c12.904,7.664,50.564,28.823,112.978,63.479c0.004,0.002,0.009,0.004,0.013,0.006l20.354,11.308c0.011,0.005,0.02,0.009,0.025,0.015
	c54.987,30.572,93.938,52.699,116.854,66.384c43.466,25.948,95.902,57.852,157.312,95.704c6.944,4.279,16.314,10.687,28.112,19.213
	c8.442,6.103,14.543,10.336,18.302,12.699l9.879,6.217c13.459,8.469,39.174,26.171,77.143,53.105
	c1.945,1.379,3.793,2.58,5.545,3.604c2.879,1.679,5.627,3.547,8.244,5.604c0.666,0.522,1.195,0.896,1.594,1.108
	c0.627-0.021,1.55-0.179,2.77-0.479l3.166-3.922c0.09-0.109,0.172-0.216,0.243-0.312c0.42-16.894,8.229-44.408,23.429-82.548
	c0.073-0.188,0.146-0.371,0.225-0.558l6.062-14.85c0.037-0.093,0.073-0.187,0.11-0.276c3.83-9.271,6.577-16.098,8.241-20.472
	c7.363-19.354,16.47-37.259,27.318-53.716c45.697-69.321,75.351-112.646,88.955-129.979c23.154-29.489,38.586-49.012,46.295-58.562
	c0.072-0.092,0.146-0.181,0.217-0.271l4.609-5.652c0.105-0.134,0.217-0.268,0.325-0.396c8.021-9.7,20.101-23.885,36.229-42.554
	c19.146-22.16,33.188-38.778,42.129-49.854c7.881-9.762,14.969-18.956,21.268-27.583c-0.016-2.965,0.154-5.921,0.51-8.866
	C2888.705,693.343,2888.688,693.055,2888.645,692.666z"/>
</svg>
