<?xml version="1.0" encoding="utf-8"?>
<!-- Generator: Adobe Illustrator 16.0.0, SVG Export Plug-In . SVG Version: 6.00 Build 0)  -->
<!DOCTYPE svg PUBLIC "-//W3C//DTD SVG 1.1//EN" "http://www.w3.org/Graphics/SVG/1.1/DTD/svg11.dtd">
<svg version="1.1" id="Layer_1" xmlns="http://www.w3.org/2000/svg" xmlns:xlink="http://www.w3.org/1999/xlink" x="0px" y="0px"
	 width="1773.176px" height="727.111px" viewBox="0 0 1773.176 727.111" enable-background="new 0 0 1773.176 727.111"
	 xml:space="preserve">
<path d="M1751.275,445.198c-8.436-6.645-24.979-15.902-49.636-27.787c-90.3-43.521-159.229-75.22-206.8-95.095
	c-118.697-49.598-234.312-106.35-353.521-154.74c-95.052-38.583-215.901-92.918-362.562-163.007
	c-6.541-3.126-12.359-4.649-17.462-4.566c-28.185,0.452-50.073,20.472-64.585,43.321c-1.395,2.195-3.869,8.112-7.425,17.753
	c-3.706,10.047-6.838,17.896-9.398,23.547c-9.37,20.682-20.892,38.779-34.556,54.291c-16.285,18.488-35.432,35.333-57.436,50.535
	c-9.242,6.386-46.3,29.969-111.162,70.749L325.14,355.821C224.513,419.297,46.856,531.363,22.351,544.81
	c-8.995,4.938-15.062,8.898-18.201,11.895c-2.488,4.125-3.87,7.314-4.143,9.572c-0.316,2.604,12.292,16.646,19.202,24.354
	c16.07,17.904,38.812,27.078,61.645,33.306l0.27,0.071c206.355,55.584,325.484,87.533,357.386,95.854l0.081,0.021
	c0.022,0.006,0.043,0.01,0.062,0.013c11.384,2.454,32.458,7.575,34.187,7.198c2.94-0.641,10.652-3.352,23.133-8.127l0.069-0.024
	c10.236-3.948,25.465-9.655,45.688-17.116c25.705-9.482,44.774-16.705,57.209-21.666c92.1-36.742,180.452-66.279,265.068-88.607
	c1.963-0.518,26.313-6.373,39.474-9.553c7.952-1.922,31.146-6.322,46.752-9.283c18.746-3.559,32.657-6.299,41.736-8.227
	c14.423-3.062,30.178-5.525,47.262-7.396c18.433-2.02,35.398-2.75,50.909-2.19c32.438,1.164,60.771,3.812,85.005,7.942
	c41.729,7.113,85.191,14.523,124.74,23.666c43.488,10.056,87.385,18.267,130.901,28.181c32.438,7.392,56.616,12.604,72.537,15.644
	c39.722,7.574,64.224,12.771,73.506,15.586c17.851,5.414,31.888,10.635,42.108,15.662c11.914,5.854,22.215,12.434,30.896,19.729
	c3.549-1.872,8.332-4.545,14.354-8.02c14.504-8.367,34.854-18.297,61.052-29.787l0,0h0.002c0.056-0.074,0.099-0.135,0.123-0.176
	c6.104-12.268,17.06-42.314,32.859-90.156v-0.002c5.036-15.221,12.954-39.156,13.562-46.129c1.242-14.211,1.649-23.188,1.229-26.918
	C1771.545,467.089,1764.295,455.452,1751.275,445.198z M56.853,571.124c-3.718,0-6.73-3.016-6.73-6.732
	c0-3.716,3.016-6.729,6.73-6.729c3.719,0,6.73,3.016,6.73,6.729C63.584,568.109,60.571,571.124,56.853,571.124z M113.423,623.124
	c-3.72,0-6.731-3.016-6.731-6.732c0-3.716,3.015-6.729,6.731-6.729c3.719,0,6.729,3.016,6.729,6.729
	C120.155,620.109,117.142,623.124,113.423,623.124z M113.423,571.124c-3.72,0-6.731-3.016-6.731-6.732
	c0-3.716,3.015-6.729,6.731-6.729c3.719,0,6.729,3.016,6.729,6.729C120.155,568.109,117.142,571.124,113.423,571.124z
	 M113.423,519.124c-3.72,0-6.731-3.016-6.731-6.732c0-3.716,3.015-6.729,6.731-6.729c3.719,0,6.729,3.016,6.729,6.729
	C120.155,516.109,117.142,519.124,113.423,519.124z M169.993,623.124c-3.719,0-6.729-3.016-6.729-6.732
	c0-3.716,3.014-6.729,6.729-6.729c3.719,0,6.731,3.016,6.731,6.729C176.725,620.109,173.711,623.124,169.993,623.124z
	 M169.993,571.124c-3.719,0-6.729-3.016-6.729-6.732c0-3.716,3.014-6.729,6.729-6.729c3.719,0,6.731,3.016,6.731,6.729
	C176.725,568.109,173.711,571.124,169.993,571.124z M169.993,519.124c-3.719,0-6.729-3.016-6.729-6.732
	c0-3.716,3.014-6.729,6.729-6.729c3.719,0,6.731,3.016,6.731,6.729C176.725,516.109,173.711,519.124,169.993,519.124z
	 M226.564,623.124c-3.718,0-6.73-3.016-6.73-6.732c0-3.716,3.016-6.729,6.73-6.729c3.72,0,6.731,3.016,6.731,6.729
	C233.296,620.109,230.282,623.124,226.564,623.124z M226.564,571.124c-3.718,0-6.73-3.016-6.73-6.732
	c0-3.716,3.016-6.729,6.73-6.729c3.72,0,6.731,3.016,6.731,6.729C233.296,568.109,230.282,571.124,226.564,571.124z
	 M226.564,519.124c-3.718,0-6.73-3.016-6.73-6.732c0-3.716,3.016-6.729,6.73-6.729c3.72,0,6.731,3.016,6.731,6.729
	C233.296,516.109,230.282,519.124,226.564,519.124z M226.564,467.124c-3.718,0-6.73-3.016-6.73-6.732
	c0-3.716,3.016-6.729,6.73-6.729c3.72,0,6.731,3.016,6.731,6.729C233.296,464.109,230.282,467.124,226.564,467.124z
	 M283.132,623.124c-3.719,0-6.73-3.016-6.73-6.732c0-3.716,3.015-6.729,6.73-6.729c3.72,0,6.731,3.016,6.731,6.729
	C289.865,620.109,286.853,623.124,283.132,623.124z M283.132,571.124c-3.719,0-6.73-3.016-6.73-6.732
	c0-3.716,3.015-6.729,6.73-6.729c3.72,0,6.731,3.016,6.731,6.729C289.865,568.109,286.853,571.124,283.132,571.124z
	 M283.132,519.124c-3.719,0-6.73-3.016-6.73-6.732c0-3.716,3.015-6.729,6.73-6.729c3.72,0,6.731,3.016,6.731,6.729
	C289.865,516.109,286.853,519.124,283.132,519.124z M283.132,467.124c-3.719,0-6.73-3.016-6.73-6.732
	c0-3.716,3.015-6.729,6.73-6.729c3.72,0,6.731,3.016,6.731,6.729C289.865,464.109,286.853,467.124,283.132,467.124z
	 M283.132,415.124c-3.719,0-6.73-3.018-6.73-6.73c0-3.718,3.015-6.73,6.73-6.73c3.72,0,6.731,3.016,6.731,6.73
	C289.865,412.106,286.853,415.124,283.132,415.124z M339.703,675.124c-3.719,0-6.731-3.016-6.731-6.732
	c0-3.716,3.018-6.729,6.731-6.729c3.715,0,6.73,3.016,6.73,6.729C346.436,672.109,343.421,675.124,339.703,675.124z
	 M339.703,623.124c-3.719,0-6.731-3.016-6.731-6.732c0-3.716,3.018-6.729,6.731-6.729c3.715,0,6.73,3.016,6.73,6.729
	C346.436,620.109,343.421,623.124,339.703,623.124z M339.703,571.124c-3.719,0-6.731-3.016-6.731-6.732
	c0-3.716,3.018-6.729,6.731-6.729c3.715,0,6.73,3.016,6.73,6.729C346.436,568.109,343.421,571.124,339.703,571.124z
	 M339.703,519.124c-3.719,0-6.731-3.016-6.731-6.732c0-3.716,3.018-6.729,6.731-6.729c3.715,0,6.73,3.016,6.73,6.729
	C346.436,516.109,343.421,519.124,339.703,519.124z M339.703,467.124c-3.719,0-6.731-3.016-6.731-6.732
	c0-3.716,3.018-6.729,6.731-6.729c3.715,0,6.73,3.016,6.73,6.729C346.436,464.109,343.421,467.124,339.703,467.124z
	 M339.703,415.124c-3.719,0-6.731-3.018-6.731-6.73c0-3.718,3.018-6.73,6.731-6.73c3.715,0,6.73,3.016,6.73,6.73
	C346.436,412.106,343.421,415.124,339.703,415.124z M396.276,675.124c-3.723,0-6.731-3.016-6.731-6.732
	c0-3.716,3.016-6.729,6.731-6.729s6.729,3.016,6.729,6.729C403.005,672.109,399.993,675.124,396.276,675.124z M396.276,623.124
	c-3.723,0-6.731-3.016-6.731-6.732c0-3.716,3.016-6.729,6.731-6.729s6.729,3.016,6.729,6.729
	C403.005,620.109,399.993,623.124,396.276,623.124z M396.276,571.124c-3.723,0-6.731-3.016-6.731-6.732
	c0-3.716,3.016-6.729,6.731-6.729s6.729,3.016,6.729,6.729C403.005,568.109,399.993,571.124,396.276,571.124z M396.276,519.124
	c-3.723,0-6.731-3.016-6.731-6.732c0-3.716,3.016-6.729,6.731-6.729s6.729,3.016,6.729,6.729
	C403.005,516.109,399.993,519.124,396.276,519.124z M396.276,467.124c-3.723,0-6.731-3.016-6.731-6.732
	c0-3.716,3.016-6.729,6.731-6.729s6.729,3.016,6.729,6.729C403.005,464.109,399.993,467.124,396.276,467.124z M396.276,415.124
	c-3.723,0-6.731-3.018-6.731-6.73c0-3.718,3.016-6.73,6.731-6.73s6.729,3.016,6.729,6.73
	C403.005,412.106,399.993,415.124,396.276,415.124z M396.276,363.124c-3.723,0-6.731-3.014-6.731-6.732
	c0-3.718,3.016-6.732,6.731-6.732s6.729,3.014,6.729,6.732C403.005,360.11,399.993,363.124,396.276,363.124z M452.843,675.124
	c-3.72,0-6.729-3.016-6.729-6.732c0-3.716,3.015-6.729,6.729-6.729c3.718,0,6.731,3.016,6.731,6.729
	C459.576,672.109,456.564,675.124,452.843,675.124z M452.843,623.124c-3.72,0-6.729-3.016-6.729-6.732
	c0-3.716,3.015-6.729,6.729-6.729c3.718,0,6.731,3.016,6.731,6.729C459.576,620.109,456.564,623.124,452.843,623.124z
	 M452.843,571.124c-3.72,0-6.729-3.016-6.729-6.732c0-3.716,3.015-6.729,6.729-6.729c3.718,0,6.731,3.016,6.731,6.729
	C459.576,568.109,456.564,571.124,452.843,571.124z M452.843,519.124c-3.72,0-6.729-3.016-6.729-6.732
	c0-3.716,3.015-6.729,6.729-6.729c3.718,0,6.731,3.016,6.731,6.729C459.576,516.109,456.564,519.124,452.843,519.124z
	 M452.843,467.124c-3.72,0-6.729-3.016-6.729-6.732c0-3.716,3.015-6.729,6.729-6.729c3.718,0,6.731,3.016,6.731,6.729
	C459.576,464.109,456.564,467.124,452.843,467.124z M452.843,415.124c-3.72,0-6.729-3.018-6.729-6.73c0-3.718,3.015-6.73,6.729-6.73
	c3.718,0,6.731,3.016,6.731,6.73C459.576,412.106,456.564,415.124,452.843,415.124z M452.843,363.124
	c-3.72,0-6.729-3.014-6.729-6.732c0-3.718,3.015-6.732,6.729-6.732c3.718,0,6.731,3.014,6.731,6.732
	C459.576,360.11,456.564,363.124,452.843,363.124z M452.843,311.124c-3.72,0-6.729-3.014-6.729-6.732
	c0-3.718,3.015-6.732,6.729-6.732c3.718,0,6.731,3.014,6.731,6.732C459.576,308.11,456.564,311.124,452.843,311.124z
	 M509.414,675.124c-3.719,0-6.729-3.016-6.729-6.732c0-3.716,3.016-6.729,6.729-6.729c3.715,0,6.73,3.016,6.73,6.729
	C516.147,672.109,513.132,675.124,509.414,675.124z M509.414,623.124c-3.719,0-6.729-3.016-6.729-6.732
	c0-3.716,3.016-6.729,6.729-6.729c3.715,0,6.73,3.016,6.73,6.729C516.147,620.109,513.132,623.124,509.414,623.124z
	 M509.414,571.124c-3.719,0-6.729-3.016-6.729-6.732c0-3.716,3.016-6.729,6.729-6.729c3.715,0,6.73,3.016,6.73,6.729
	C516.147,568.109,513.132,571.124,509.414,571.124z M509.414,519.124c-3.719,0-6.729-3.016-6.729-6.732
	c0-3.716,3.016-6.729,6.729-6.729c3.715,0,6.73,3.016,6.73,6.729C516.147,516.109,513.132,519.124,509.414,519.124z
	 M509.414,467.124c-3.719,0-6.729-3.016-6.729-6.732c0-3.716,3.016-6.729,6.729-6.729c3.715,0,6.73,3.016,6.73,6.729
	C516.147,464.109,513.132,467.124,509.414,467.124z M509.414,415.124c-3.719,0-6.729-3.018-6.729-6.73
	c0-3.718,3.016-6.73,6.729-6.73c3.715,0,6.73,3.016,6.73,6.73C516.147,412.106,513.132,415.124,509.414,415.124z M509.414,363.124
	c-3.719,0-6.729-3.014-6.729-6.732c0-3.718,3.016-6.732,6.729-6.732c3.715,0,6.73,3.014,6.73,6.732
	C516.148,360.11,513.132,363.124,509.414,363.124z M509.414,311.124c-3.719,0-6.729-3.014-6.729-6.732
	c0-3.718,3.016-6.732,6.729-6.732c3.715,0,6.73,3.014,6.73,6.732C516.148,308.11,513.132,311.124,509.414,311.124z M565.987,675.124
	c-3.721,0-6.731-3.016-6.731-6.732c0-3.716,3.016-6.729,6.731-6.729s6.729,3.016,6.729,6.729
	C572.715,672.109,569.703,675.124,565.987,675.124z M565.987,623.124c-3.721,0-6.731-3.016-6.731-6.732
	c0-3.716,3.016-6.729,6.731-6.729s6.729,3.016,6.729,6.729C572.715,620.109,569.703,623.124,565.987,623.124z M565.987,571.124
	c-3.721,0-6.731-3.016-6.731-6.732c0-3.716,3.016-6.729,6.731-6.729s6.729,3.016,6.729,6.729
	C572.715,568.109,569.703,571.124,565.987,571.124z M565.987,519.124c-3.721,0-6.731-3.016-6.731-6.732
	c0-3.716,3.016-6.729,6.731-6.729s6.729,3.016,6.729,6.729C572.715,516.109,569.703,519.124,565.987,519.124z M565.987,467.124
	c-3.721,0-6.731-3.016-6.731-6.732c0-3.716,3.016-6.729,6.731-6.729s6.729,3.016,6.729,6.729
	C572.715,464.109,569.703,467.124,565.987,467.124z M565.987,415.124c-3.721,0-6.731-3.018-6.731-6.73
	c0-3.718,3.016-6.73,6.731-6.73s6.729,3.016,6.729,6.73C572.716,412.106,569.703,415.124,565.987,415.124z M565.987,363.124
	c-3.721,0-6.731-3.014-6.731-6.732c0-3.718,3.016-6.732,6.731-6.732s6.729,3.014,6.729,6.732
	C572.716,360.11,569.703,363.124,565.987,363.124z M565.987,311.124c-3.721,0-6.731-3.014-6.731-6.732
	c0-3.718,3.016-6.732,6.731-6.732s6.729,3.014,6.729,6.732C572.716,308.11,569.703,311.124,565.987,311.124z M565.987,259.124
	c-3.721,0-6.731-3.014-6.731-6.732c0-3.718,3.016-6.732,6.731-6.732s6.729,3.014,6.729,6.732
	C572.716,256.11,569.703,259.124,565.987,259.124z M622.554,623.124c-3.719,0-6.729-3.016-6.729-6.732
	c0-3.716,3.015-6.729,6.729-6.729c3.721,0,6.731,3.016,6.731,6.729C629.286,620.109,626.275,623.124,622.554,623.124z
	 M622.554,571.124c-3.719,0-6.729-3.016-6.729-6.732c0-3.716,3.015-6.729,6.729-6.729c3.721,0,6.731,3.016,6.731,6.729
	C629.286,568.109,626.275,571.124,622.554,571.124z M622.554,519.124c-3.719,0-6.729-3.016-6.729-6.732
	c0-3.716,3.015-6.729,6.729-6.729c3.721,0,6.731,3.016,6.731,6.729C629.286,516.109,626.275,519.124,622.554,519.124z
	 M622.554,467.124c-3.719,0-6.729-3.016-6.729-6.732c0-3.716,3.015-6.729,6.729-6.729c3.721,0,6.731,3.016,6.731,6.729
	C629.286,464.109,626.275,467.124,622.554,467.124z M622.554,415.124c-3.719,0-6.729-3.018-6.729-6.73
	c0-3.718,3.015-6.73,6.729-6.73c3.721,0,6.731,3.016,6.731,6.73C629.286,412.106,626.275,415.124,622.554,415.124z M622.554,363.124
	c-3.719,0-6.729-3.014-6.729-6.732c0-3.718,3.015-6.732,6.729-6.732c3.721,0,6.731,3.014,6.731,6.732
	C629.286,360.11,626.275,363.124,622.554,363.124z M622.554,311.124c-3.719,0-6.729-3.014-6.729-6.732
	c0-3.718,3.015-6.732,6.729-6.732c3.721,0,6.731,3.014,6.731,6.732C629.286,308.11,626.275,311.124,622.554,311.124z
	 M622.554,259.124c-3.719,0-6.729-3.014-6.729-6.732c0-3.718,3.015-6.732,6.729-6.732c3.721,0,6.731,3.014,6.731,6.732
	C629.286,256.11,626.275,259.124,622.554,259.124z M622.554,207.124c-3.719,0-6.729-3.014-6.729-6.732
	c0-3.718,3.015-6.732,6.729-6.732c3.721,0,6.731,3.014,6.731,6.732C629.286,204.11,626.275,207.124,622.554,207.124z
	 M679.125,623.124c-3.719,0-6.729-3.016-6.729-6.732c0-3.716,3.016-6.729,6.729-6.729c3.715,0,6.732,3.016,6.732,6.729
	C685.86,620.109,682.843,623.124,679.125,623.124z M679.125,571.124c-3.719,0-6.729-3.016-6.729-6.732
	c0-3.716,3.016-6.729,6.729-6.729c3.715,0,6.732,3.016,6.732,6.729C685.86,568.109,682.843,571.124,679.125,571.124z
	 M679.125,519.124c-3.719,0-6.729-3.016-6.729-6.732c0-3.716,3.016-6.729,6.729-6.729c3.715,0,6.732,3.016,6.732,6.729
	C685.86,516.109,682.843,519.124,679.125,519.124z M679.125,467.124c-3.719,0-6.729-3.016-6.729-6.732
	c0-3.716,3.016-6.729,6.729-6.729c3.715,0,6.732,3.016,6.732,6.729C685.86,464.109,682.843,467.124,679.125,467.124z
	 M679.125,415.124c-3.719,0-6.729-3.018-6.729-6.73c0-3.718,3.016-6.73,6.729-6.73c3.715,0,6.732,3.016,6.732,6.73
	C685.86,412.106,682.843,415.124,679.125,415.124z M679.125,363.124c-3.719,0-6.729-3.014-6.729-6.732
	c0-3.718,3.016-6.732,6.729-6.732c3.715,0,6.732,3.014,6.732,6.732C685.86,360.11,682.843,363.124,679.125,363.124z
	 M679.125,311.124c-3.719,0-6.729-3.014-6.729-6.732c0-3.718,3.016-6.732,6.729-6.732c3.715,0,6.732,3.014,6.732,6.732
	C685.86,308.11,682.843,311.124,679.125,311.124z M679.125,259.124c-3.719,0-6.729-3.014-6.729-6.732
	c0-3.718,3.016-6.732,6.729-6.732c3.715,0,6.732,3.014,6.732,6.732C685.86,256.11,682.843,259.124,679.125,259.124z
	 M679.125,207.124c-3.719,0-6.729-3.014-6.729-6.732c0-3.718,3.016-6.732,6.729-6.732c3.715,0,6.732,3.014,6.732,6.732
	C685.86,204.11,682.843,207.124,679.125,207.124z M679.125,155.124c-3.719,0-6.729-3.014-6.729-6.732
	c0-3.718,3.016-6.732,6.729-6.732c3.715,0,6.732,3.014,6.732,6.732C685.86,152.11,682.843,155.124,679.125,155.124z
	 M735.698,571.124c-3.721,0-6.731-3.016-6.731-6.732c0-3.716,3.016-6.729,6.731-6.729s6.729,3.016,6.729,6.729
	C742.426,568.109,739.414,571.124,735.698,571.124z M735.698,519.124c-3.721,0-6.731-3.016-6.731-6.732
	c0-3.716,3.016-6.729,6.731-6.729s6.729,3.016,6.729,6.729C742.426,516.109,739.414,519.124,735.698,519.124z M735.698,467.124
	c-3.721,0-6.731-3.016-6.731-6.732c0-3.716,3.016-6.729,6.731-6.729s6.729,3.016,6.729,6.729
	C742.426,464.109,739.414,467.124,735.698,467.124z M735.698,415.124c-3.721,0-6.731-3.018-6.731-6.73
	c0-3.718,3.016-6.73,6.731-6.73s6.729,3.016,6.729,6.73C742.427,412.106,739.414,415.124,735.698,415.124z M735.698,363.124
	c-3.721,0-6.731-3.014-6.731-6.732c0-3.718,3.016-6.732,6.731-6.732s6.729,3.014,6.729,6.732
	C742.427,360.11,739.414,363.124,735.698,363.124z M735.698,311.124c-3.721,0-6.731-3.014-6.731-6.732
	c0-3.718,3.016-6.732,6.731-6.732s6.729,3.014,6.729,6.732C742.427,308.11,739.414,311.124,735.698,311.124z M735.698,259.124
	c-3.721,0-6.731-3.014-6.731-6.732c0-3.718,3.016-6.732,6.731-6.732s6.729,3.014,6.729,6.732
	C742.427,256.11,739.414,259.124,735.698,259.124z M735.698,207.124c-3.721,0-6.731-3.014-6.731-6.732
	c0-3.718,3.016-6.732,6.731-6.732s6.729,3.014,6.729,6.732C742.427,204.11,739.414,207.124,735.698,207.124z M735.698,155.124
	c-3.721,0-6.731-3.014-6.731-6.732c0-3.718,3.016-6.732,6.731-6.732s6.729,3.014,6.729,6.732
	C742.427,152.11,739.414,155.124,735.698,155.124z M735.698,103.124c-3.721,0-6.731-3.014-6.731-6.732
	c0-3.718,3.016-6.732,6.731-6.732s6.729,3.014,6.729,6.732C742.427,100.11,739.414,103.124,735.698,103.124z M735.698,51.124
	c-3.721,0-6.731-3.014-6.731-6.732c0-3.718,3.016-6.732,6.731-6.732s6.729,3.014,6.729,6.732
	C742.427,48.11,739.414,51.124,735.698,51.124z M792.266,571.124c-3.72,0-6.729-3.016-6.729-6.732c0-3.716,3.015-6.729,6.729-6.729
	c3.721,0,6.73,3.016,6.73,6.729C798.997,568.109,795.987,571.124,792.266,571.124z M792.266,519.124
	c-3.72,0-6.729-3.016-6.729-6.732c0-3.716,3.015-6.729,6.729-6.729c3.721,0,6.73,3.016,6.73,6.729
	C798.997,516.109,795.987,519.124,792.266,519.124z M792.266,467.124c-3.72,0-6.729-3.016-6.729-6.732
	c0-3.716,3.015-6.729,6.729-6.729c3.721,0,6.73,3.016,6.73,6.729C798.997,464.109,795.987,467.124,792.266,467.124z
	 M792.266,415.124c-3.72,0-6.729-3.018-6.729-6.73c0-3.718,3.015-6.73,6.729-6.73c3.721,0,6.73,3.016,6.73,6.73
	C798.997,412.106,795.987,415.124,792.266,415.124z M792.266,363.124c-3.72,0-6.729-3.014-6.729-6.732
	c0-3.718,3.015-6.732,6.729-6.732c3.721,0,6.73,3.014,6.73,6.732C798.997,360.11,795.987,363.124,792.266,363.124z M792.266,311.124
	c-3.72,0-6.729-3.014-6.729-6.732c0-3.718,3.015-6.732,6.729-6.732c3.721,0,6.73,3.014,6.73,6.732
	C798.997,308.11,795.987,311.124,792.266,311.124z M792.266,259.124c-3.72,0-6.729-3.014-6.729-6.732
	c0-3.718,3.015-6.732,6.729-6.732c3.721,0,6.73,3.014,6.73,6.732C798.997,256.11,795.987,259.124,792.266,259.124z M792.266,207.124
	c-3.72,0-6.729-3.014-6.729-6.732c0-3.718,3.015-6.732,6.729-6.732c3.721,0,6.73,3.014,6.73,6.732
	C798.997,204.11,795.987,207.124,792.266,207.124z M792.266,155.124c-3.72,0-6.729-3.014-6.729-6.732
	c0-3.718,3.015-6.732,6.729-6.732c3.721,0,6.73,3.014,6.73,6.732C798.997,152.11,795.987,155.124,792.266,155.124z M792.266,103.124
	c-3.72,0-6.729-3.014-6.729-6.732c0-3.718,3.015-6.732,6.729-6.732c3.721,0,6.73,3.014,6.73,6.732
	C798.997,100.11,795.987,103.124,792.266,103.124z M792.266,51.124c-3.72,0-6.729-3.014-6.729-6.732
	c0-3.718,3.015-6.732,6.729-6.732c3.721,0,6.73,3.014,6.73,6.732C798.997,48.11,795.987,51.124,792.266,51.124z M848.836,571.124
	c-3.72,0-6.73-3.016-6.73-6.732c0-3.716,3.016-6.729,6.73-6.729c3.714,0,6.731,3.016,6.731,6.729
	C855.57,568.109,852.554,571.124,848.836,571.124z M848.836,519.124c-3.72,0-6.73-3.016-6.73-6.732c0-3.716,3.016-6.729,6.73-6.729
	c3.714,0,6.731,3.016,6.731,6.729C855.57,516.109,852.554,519.124,848.836,519.124z M848.836,467.124c-3.72,0-6.73-3.016-6.73-6.732
	c0-3.716,3.016-6.729,6.73-6.729c3.714,0,6.731,3.016,6.731,6.729C855.57,464.109,852.554,467.124,848.836,467.124z
	 M848.836,415.124c-3.72,0-6.73-3.018-6.73-6.73c0-3.718,3.016-6.73,6.73-6.73c3.714,0,6.731,3.016,6.731,6.73
	C855.57,412.106,852.554,415.124,848.836,415.124z M848.836,363.124c-3.72,0-6.73-3.014-6.73-6.732c0-3.718,3.016-6.732,6.73-6.732
	c3.714,0,6.731,3.014,6.731,6.732C855.57,360.11,852.554,363.124,848.836,363.124z M848.836,311.124c-3.72,0-6.73-3.014-6.73-6.732
	c0-3.718,3.016-6.732,6.73-6.732c3.714,0,6.731,3.014,6.731,6.732C855.57,308.11,852.554,311.124,848.836,311.124z M848.836,259.124
	c-3.72,0-6.73-3.014-6.73-6.732c0-3.718,3.016-6.732,6.73-6.732c3.714,0,6.731,3.014,6.731,6.732
	C855.57,256.11,852.554,259.124,848.836,259.124z M848.836,207.124c-3.72,0-6.73-3.014-6.73-6.732c0-3.718,3.016-6.732,6.73-6.732
	c3.714,0,6.731,3.014,6.731,6.732C855.57,204.11,852.554,207.124,848.836,207.124z M848.836,155.124c-3.72,0-6.73-3.014-6.73-6.732
	c0-3.718,3.016-6.732,6.73-6.732c3.714,0,6.731,3.014,6.731,6.732C855.57,152.11,852.554,155.124,848.836,155.124z M848.836,103.124
	c-3.72,0-6.73-3.014-6.73-6.732c0-3.718,3.016-6.732,6.73-6.732c3.714,0,6.731,3.014,6.731,6.732
	C855.57,100.11,852.554,103.124,848.836,103.124z M905.407,571.124c-3.722,0-6.731-3.016-6.731-6.732
	c0-3.716,3.017-6.729,6.731-6.729s6.729,3.016,6.729,6.729C912.136,568.109,909.125,571.124,905.407,571.124z M905.407,519.124
	c-3.722,0-6.731-3.016-6.731-6.732c0-3.716,3.017-6.729,6.731-6.729s6.729,3.016,6.729,6.729
	C912.136,516.109,909.125,519.124,905.407,519.124z M905.407,467.124c-3.722,0-6.731-3.016-6.731-6.732
	c0-3.716,3.017-6.729,6.731-6.729s6.729,3.016,6.729,6.729C912.136,464.109,909.125,467.124,905.407,467.124z M905.407,415.124
	c-3.722,0-6.731-3.018-6.731-6.73c0-3.718,3.017-6.73,6.731-6.73s6.729,3.016,6.729,6.73
	C912.136,412.106,909.125,415.124,905.407,415.124z M905.407,363.124c-3.722,0-6.731-3.014-6.731-6.732
	c0-3.718,3.017-6.732,6.731-6.732s6.729,3.014,6.729,6.732C912.136,360.11,909.125,363.124,905.407,363.124z M905.407,311.124
	c-3.722,0-6.731-3.014-6.731-6.732c0-3.718,3.017-6.732,6.731-6.732s6.729,3.014,6.729,6.732
	C912.136,308.11,909.125,311.124,905.407,311.124z M905.407,259.124c-3.722,0-6.731-3.014-6.731-6.732
	c0-3.718,3.017-6.732,6.731-6.732s6.729,3.014,6.729,6.732C912.136,256.11,909.125,259.124,905.407,259.124z M905.407,207.124
	c-3.722,0-6.731-3.014-6.731-6.732c0-3.718,3.017-6.732,6.731-6.732s6.729,3.014,6.729,6.732
	C912.136,204.11,909.125,207.124,905.407,207.124z M905.407,155.124c-3.722,0-6.731-3.014-6.731-6.732
	c0-3.718,3.017-6.732,6.731-6.732s6.729,3.014,6.729,6.732C912.136,152.11,909.125,155.124,905.407,155.124z M905.407,103.124
	c-3.722,0-6.731-3.014-6.731-6.732c0-3.718,3.017-6.732,6.731-6.732s6.729,3.014,6.729,6.732
	C912.136,100.11,909.125,103.124,905.407,103.124z M961.978,519.124c-3.721,0-6.731-3.016-6.731-6.732
	c0-3.716,3.015-6.729,6.731-6.729c3.719,0,6.729,3.016,6.729,6.729C968.709,516.109,965.698,519.124,961.978,519.124z
	 M961.978,467.124c-3.721,0-6.731-3.016-6.731-6.732c0-3.716,3.015-6.729,6.731-6.729c3.719,0,6.729,3.016,6.729,6.729
	C968.709,464.109,965.698,467.124,961.978,467.124z M961.978,415.124c-3.721,0-6.731-3.018-6.731-6.73
	c0-3.718,3.015-6.73,6.731-6.73c3.719,0,6.729,3.016,6.729,6.73C968.709,412.106,965.698,415.124,961.978,415.124z M961.978,363.124
	c-3.721,0-6.731-3.014-6.731-6.732c0-3.718,3.015-6.732,6.731-6.732c3.719,0,6.729,3.014,6.729,6.732
	C968.71,360.11,965.698,363.124,961.978,363.124z M961.978,311.124c-3.721,0-6.731-3.014-6.731-6.732
	c0-3.718,3.015-6.732,6.731-6.732c3.719,0,6.729,3.014,6.729,6.732C968.71,308.11,965.698,311.124,961.978,311.124z
	 M961.978,259.124c-3.721,0-6.731-3.014-6.731-6.732c0-3.718,3.015-6.732,6.731-6.732c3.719,0,6.729,3.014,6.729,6.732
	C968.71,256.11,965.698,259.124,961.978,259.124z M961.978,207.124c-3.721,0-6.731-3.014-6.731-6.732
	c0-3.718,3.015-6.732,6.731-6.732c3.719,0,6.729,3.014,6.729,6.732C968.71,204.11,965.698,207.124,961.978,207.124z
	 M961.978,155.124c-3.721,0-6.731-3.014-6.731-6.732c0-3.718,3.015-6.732,6.731-6.732c3.719,0,6.729,3.014,6.729,6.732
	C968.71,152.11,965.698,155.124,961.978,155.124z M1018.546,519.124c-3.72,0-6.73-3.016-6.73-6.732c0-3.716,3.015-6.729,6.73-6.729
	c3.715,0,6.731,3.016,6.731,6.729C1025.281,516.109,1022.266,519.124,1018.546,519.124z M1018.546,467.124
	c-3.72,0-6.73-3.016-6.73-6.732c0-3.716,3.015-6.729,6.73-6.729c3.715,0,6.731,3.016,6.731,6.729
	C1025.281,464.109,1022.266,467.124,1018.546,467.124z M1018.546,415.124c-3.72,0-6.73-3.018-6.73-6.73
	c0-3.718,3.015-6.73,6.73-6.73c3.715,0,6.731,3.016,6.731,6.73C1025.281,412.106,1022.266,415.124,1018.546,415.124z
	 M1018.546,363.124c-3.72,0-6.73-3.014-6.73-6.732c0-3.718,3.015-6.732,6.73-6.732c3.715,0,6.731,3.014,6.731,6.732
	C1025.281,360.11,1022.266,363.124,1018.546,363.124z M1018.546,311.124c-3.72,0-6.73-3.014-6.73-6.732
	c0-3.718,3.015-6.732,6.73-6.732c3.715,0,6.731,3.014,6.731,6.732C1025.281,308.11,1022.266,311.124,1018.546,311.124z
	 M1018.546,259.124c-3.72,0-6.73-3.014-6.73-6.732c0-3.718,3.015-6.732,6.73-6.732c3.715,0,6.731,3.014,6.731,6.732
	C1025.281,256.11,1022.266,259.124,1018.546,259.124z M1018.546,207.124c-3.72,0-6.73-3.014-6.73-6.732
	c0-3.718,3.015-6.732,6.73-6.732c3.715,0,6.731,3.014,6.731,6.732C1025.281,204.11,1022.266,207.124,1018.546,207.124z
	 M1018.546,155.124c-3.72,0-6.73-3.014-6.73-6.732c0-3.718,3.015-6.732,6.73-6.732c3.715,0,6.731,3.014,6.731,6.732
	C1025.281,152.11,1022.266,155.124,1018.546,155.124z M1075.118,519.124c-3.72,0-6.731-3.016-6.731-6.732
	c0-3.716,3.017-6.729,6.731-6.729c3.716,0,6.729,3.016,6.729,6.729C1081.848,516.109,1078.836,519.124,1075.118,519.124z
	 M1075.118,467.124c-3.72,0-6.731-3.016-6.731-6.732c0-3.716,3.017-6.729,6.731-6.729c3.716,0,6.729,3.016,6.729,6.729
	C1081.848,464.109,1078.836,467.124,1075.118,467.124z M1075.118,415.124c-3.72,0-6.731-3.018-6.731-6.73
	c0-3.718,3.017-6.73,6.731-6.73c3.716,0,6.729,3.016,6.729,6.73C1081.848,412.106,1078.836,415.124,1075.118,415.124z
	 M1075.118,363.124c-3.72,0-6.731-3.014-6.731-6.732c0-3.718,3.017-6.732,6.731-6.732c3.716,0,6.729,3.014,6.729,6.732
	C1081.848,360.11,1078.836,363.124,1075.118,363.124z M1075.118,311.124c-3.72,0-6.731-3.014-6.731-6.732
	c0-3.718,3.017-6.732,6.731-6.732c3.716,0,6.729,3.014,6.729,6.732C1081.848,308.11,1078.836,311.124,1075.118,311.124z
	 M1075.118,259.124c-3.72,0-6.731-3.014-6.731-6.732c0-3.718,3.017-6.732,6.731-6.732c3.716,0,6.729,3.014,6.729,6.732
	C1081.848,256.11,1078.836,259.124,1075.118,259.124z M1075.118,207.124c-3.72,0-6.731-3.014-6.731-6.732
	c0-3.718,3.017-6.732,6.731-6.732c3.716,0,6.729,3.014,6.729,6.732C1081.848,204.11,1078.836,207.124,1075.118,207.124z
	 M1131.689,519.124c-3.721,0-6.731-3.016-6.731-6.732c0-3.716,3.015-6.729,6.731-6.729c3.719,0,6.729,3.016,6.729,6.729
	C1138.42,516.109,1135.407,519.124,1131.689,519.124z M1131.689,467.124c-3.721,0-6.731-3.016-6.731-6.732
	c0-3.716,3.015-6.729,6.731-6.729c3.719,0,6.729,3.016,6.729,6.729C1138.42,464.109,1135.407,467.124,1131.689,467.124z
	 M1131.689,415.124c-3.721,0-6.731-3.018-6.731-6.73c0-3.718,3.015-6.73,6.731-6.73c3.719,0,6.729,3.016,6.729,6.73
	C1138.42,412.106,1135.407,415.124,1131.689,415.124z M1131.689,363.124c-3.721,0-6.731-3.014-6.731-6.732
	c0-3.718,3.015-6.732,6.731-6.732c3.719,0,6.729,3.014,6.729,6.732C1138.42,360.11,1135.407,363.124,1131.689,363.124z
	 M1131.689,311.124c-3.721,0-6.731-3.014-6.731-6.732c0-3.718,3.015-6.732,6.731-6.732c3.719,0,6.729,3.014,6.729,6.732
	C1138.42,308.11,1135.407,311.124,1131.689,311.124z M1131.689,259.124c-3.721,0-6.731-3.014-6.731-6.732
	c0-3.718,3.015-6.732,6.731-6.732c3.719,0,6.729,3.014,6.729,6.732C1138.42,256.11,1135.407,259.124,1131.689,259.124z
	 M1131.689,207.124c-3.721,0-6.731-3.014-6.731-6.732c0-3.718,3.015-6.732,6.731-6.732c3.719,0,6.729,3.014,6.729,6.732
	C1138.42,204.11,1135.407,207.124,1131.689,207.124z M1188.257,519.124c-3.72,0-6.73-3.016-6.73-6.732
	c0-3.716,3.015-6.729,6.73-6.729c3.718,0,6.731,3.016,6.731,6.729C1194.99,516.109,1191.978,519.124,1188.257,519.124z
	 M1188.257,467.124c-3.72,0-6.73-3.016-6.73-6.732c0-3.716,3.015-6.729,6.73-6.729c3.718,0,6.731,3.016,6.731,6.729
	C1194.99,464.109,1191.978,467.124,1188.257,467.124z M1188.257,415.124c-3.72,0-6.73-3.018-6.73-6.73c0-3.718,3.015-6.73,6.73-6.73
	c3.718,0,6.731,3.016,6.731,6.73C1194.99,412.106,1191.978,415.124,1188.257,415.124z M1188.257,363.124
	c-3.72,0-6.73-3.014-6.73-6.732c0-3.718,3.015-6.732,6.73-6.732c3.718,0,6.731,3.014,6.731,6.732
	C1194.991,360.11,1191.978,363.124,1188.257,363.124z M1188.257,311.124c-3.72,0-6.73-3.014-6.73-6.732
	c0-3.718,3.015-6.732,6.73-6.732c3.718,0,6.731,3.014,6.731,6.732C1194.991,308.11,1191.978,311.124,1188.257,311.124z
	 M1188.257,259.124c-3.72,0-6.73-3.014-6.73-6.732c0-3.718,3.015-6.732,6.73-6.732c3.718,0,6.731,3.014,6.731,6.732
	C1194.991,256.11,1191.978,259.124,1188.257,259.124z M1244.828,519.124c-3.719,0-6.731-3.016-6.731-6.732
	c0-3.716,3.017-6.729,6.731-6.729c3.716,0,6.731,3.016,6.731,6.729C1251.562,516.109,1248.546,519.124,1244.828,519.124z
	 M1244.828,467.124c-3.719,0-6.731-3.016-6.731-6.732c0-3.716,3.017-6.729,6.731-6.729c3.716,0,6.731,3.016,6.731,6.729
	C1251.562,464.109,1248.546,467.124,1244.828,467.124z M1244.828,415.124c-3.719,0-6.731-3.018-6.731-6.73
	c0-3.718,3.017-6.73,6.731-6.73c3.716,0,6.731,3.016,6.731,6.73C1251.562,412.106,1248.546,415.124,1244.828,415.124z
	 M1244.828,363.124c-3.719,0-6.731-3.014-6.731-6.732c0-3.718,3.017-6.732,6.731-6.732c3.716,0,6.731,3.014,6.731,6.732
	C1251.562,360.11,1248.546,363.124,1244.828,363.124z M1244.828,311.124c-3.719,0-6.731-3.014-6.731-6.732
	c0-3.718,3.017-6.732,6.731-6.732c3.716,0,6.731,3.014,6.731,6.732C1251.562,308.11,1248.546,311.124,1244.828,311.124z
	 M1244.828,259.124c-3.719,0-6.731-3.014-6.731-6.732c0-3.718,3.017-6.732,6.731-6.732c3.716,0,6.731,3.014,6.731,6.732
	C1251.562,256.11,1248.546,259.124,1244.828,259.124z M1301.4,571.124c-3.723,0-6.73-3.016-6.73-6.732
	c0-3.716,3.016-6.729,6.73-6.729s6.729,3.016,6.729,6.729C1308.129,568.109,1305.118,571.124,1301.4,571.124z M1301.4,519.124
	c-3.723,0-6.73-3.016-6.73-6.732c0-3.716,3.016-6.729,6.73-6.729s6.729,3.016,6.729,6.729
	C1308.129,516.109,1305.118,519.124,1301.4,519.124z M1301.4,467.124c-3.723,0-6.73-3.016-6.73-6.732
	c0-3.716,3.016-6.729,6.73-6.729s6.729,3.016,6.729,6.729C1308.129,464.109,1305.118,467.124,1301.4,467.124z M1301.4,415.124
	c-3.723,0-6.73-3.018-6.73-6.73c0-3.718,3.016-6.73,6.73-6.73s6.729,3.016,6.729,6.73
	C1308.129,412.106,1305.118,415.124,1301.4,415.124z M1301.4,363.124c-3.723,0-6.73-3.014-6.73-6.732
	c0-3.718,3.016-6.732,6.73-6.732s6.729,3.014,6.729,6.732C1308.129,360.11,1305.118,363.124,1301.4,363.124z M1301.4,311.124
	c-3.723,0-6.73-3.014-6.73-6.732c0-3.718,3.016-6.732,6.73-6.732s6.729,3.014,6.729,6.732
	C1308.129,308.11,1305.118,311.124,1301.4,311.124z M1357.968,571.124c-3.72,0-6.729-3.016-6.729-6.732
	c0-3.716,3.015-6.729,6.729-6.729c3.721,0,6.731,3.016,6.731,6.729C1364.701,568.109,1361.689,571.124,1357.968,571.124z
	 M1357.968,519.124c-3.72,0-6.729-3.016-6.729-6.732c0-3.716,3.015-6.729,6.729-6.729c3.721,0,6.731,3.016,6.731,6.729
	C1364.701,516.109,1361.689,519.124,1357.968,519.124z M1357.968,467.124c-3.72,0-6.729-3.016-6.729-6.732
	c0-3.716,3.015-6.729,6.729-6.729c3.721,0,6.731,3.016,6.731,6.729C1364.701,464.109,1361.689,467.124,1357.968,467.124z
	 M1357.968,415.124c-3.72,0-6.729-3.018-6.729-6.73c0-3.718,3.015-6.73,6.729-6.73c3.721,0,6.731,3.016,6.731,6.73
	C1364.701,412.106,1361.689,415.124,1357.968,415.124z M1357.968,363.124c-3.72,0-6.729-3.014-6.729-6.732
	c0-3.718,3.015-6.732,6.729-6.732c3.721,0,6.731,3.014,6.731,6.732C1364.701,360.11,1361.689,363.124,1357.968,363.124z
	 M1357.968,311.124c-3.72,0-6.729-3.014-6.729-6.732c0-3.718,3.015-6.732,6.729-6.732c3.721,0,6.731,3.014,6.731,6.732
	C1364.701,308.11,1361.689,311.124,1357.968,311.124z M1414.539,571.124c-3.719,0-6.729-3.016-6.729-6.732
	c0-3.716,3.015-6.729,6.729-6.729c3.716,0,6.731,3.016,6.731,6.729C1421.273,568.109,1418.257,571.124,1414.539,571.124z
	 M1414.539,519.124c-3.719,0-6.729-3.016-6.729-6.732c0-3.716,3.015-6.729,6.729-6.729c3.716,0,6.731,3.016,6.731,6.729
	C1421.273,516.109,1418.257,519.124,1414.539,519.124z M1414.539,467.124c-3.719,0-6.729-3.016-6.729-6.732
	c0-3.716,3.015-6.729,6.729-6.729c3.716,0,6.731,3.016,6.731,6.729C1421.273,464.109,1418.257,467.124,1414.539,467.124z
	 M1414.539,415.124c-3.719,0-6.729-3.018-6.729-6.73c0-3.718,3.015-6.73,6.729-6.73c3.716,0,6.731,3.016,6.731,6.73
	C1421.273,412.106,1418.257,415.124,1414.539,415.124z M1414.539,363.124c-3.719,0-6.729-3.014-6.729-6.732
	c0-3.718,3.015-6.732,6.729-6.732c3.716,0,6.731,3.014,6.731,6.732C1421.273,360.11,1418.257,363.124,1414.539,363.124z
	 M1414.539,311.124c-3.719,0-6.729-3.014-6.729-6.732c0-3.718,3.015-6.732,6.729-6.732c3.716,0,6.731,3.014,6.731,6.732
	C1421.273,308.11,1418.257,311.124,1414.539,311.124z M1471.112,571.124c-3.724,0-6.731-3.016-6.731-6.732
	c0-3.716,3.014-6.729,6.731-6.729c3.717,0,6.729,3.016,6.729,6.729C1477.839,568.109,1474.828,571.124,1471.112,571.124z
	 M1471.112,519.124c-3.724,0-6.731-3.016-6.731-6.732c0-3.716,3.014-6.729,6.731-6.729c3.717,0,6.729,3.016,6.729,6.729
	C1477.839,516.109,1474.828,519.124,1471.112,519.124z M1471.112,467.124c-3.724,0-6.731-3.016-6.731-6.732
	c0-3.716,3.014-6.729,6.731-6.729c3.717,0,6.729,3.016,6.729,6.729C1477.839,464.109,1474.828,467.124,1471.112,467.124z
	 M1471.112,415.124c-3.724,0-6.731-3.018-6.731-6.73c0-3.718,3.014-6.73,6.731-6.73c3.717,0,6.729,3.016,6.729,6.73
	C1477.839,412.106,1474.828,415.124,1471.112,415.124z M1471.112,363.124c-3.724,0-6.731-3.014-6.731-6.732
	c0-3.718,3.014-6.732,6.731-6.732c3.717,0,6.729,3.014,6.729,6.732C1477.839,360.11,1474.828,363.124,1471.112,363.124z
	 M1527.679,623.124c-3.72,0-6.729-3.016-6.729-6.732c0-3.716,3.015-6.729,6.729-6.729c3.721,0,6.731,3.016,6.731,6.729
	C1534.411,620.109,1531.4,623.124,1527.679,623.124z M1527.679,571.124c-3.72,0-6.729-3.016-6.729-6.732
	c0-3.716,3.015-6.729,6.729-6.729c3.721,0,6.731,3.016,6.731,6.729C1534.411,568.109,1531.4,571.124,1527.679,571.124z
	 M1527.679,519.124c-3.72,0-6.729-3.016-6.729-6.732c0-3.716,3.015-6.729,6.729-6.729c3.721,0,6.731,3.016,6.731,6.729
	C1534.411,516.109,1531.4,519.124,1527.679,519.124z M1527.679,467.124c-3.72,0-6.729-3.016-6.729-6.732
	c0-3.716,3.015-6.729,6.729-6.729c3.721,0,6.731,3.016,6.731,6.729C1534.411,464.109,1531.4,467.124,1527.679,467.124z
	 M1527.679,415.124c-3.72,0-6.729-3.018-6.729-6.73c0-3.718,3.015-6.73,6.729-6.73c3.721,0,6.731,3.016,6.731,6.73
	C1534.411,412.106,1531.4,415.124,1527.679,415.124z M1527.679,363.124c-3.72,0-6.729-3.014-6.729-6.732
	c0-3.718,3.015-6.732,6.729-6.732c3.721,0,6.731,3.014,6.731,6.732C1534.412,360.11,1531.4,363.124,1527.679,363.124z
	 M1584.25,623.124c-3.719,0-6.729-3.016-6.729-6.732c0-3.716,3.015-6.729,6.729-6.729c3.716,0,6.732,3.016,6.732,6.729
	C1590.985,620.109,1587.968,623.124,1584.25,623.124z M1584.25,571.124c-3.719,0-6.729-3.016-6.729-6.732
	c0-3.716,3.015-6.729,6.729-6.729c3.716,0,6.732,3.016,6.732,6.729C1590.985,568.109,1587.968,571.124,1584.25,571.124z
	 M1584.25,519.124c-3.719,0-6.729-3.016-6.729-6.732c0-3.716,3.015-6.729,6.729-6.729c3.716,0,6.732,3.016,6.732,6.729
	C1590.985,516.109,1587.968,519.124,1584.25,519.124z M1584.25,467.124c-3.719,0-6.729-3.016-6.729-6.732
	c0-3.716,3.015-6.729,6.729-6.729c3.716,0,6.732,3.016,6.732,6.729C1590.985,464.109,1587.968,467.124,1584.25,467.124z
	 M1584.25,415.124c-3.719,0-6.729-3.018-6.729-6.73c0-3.718,3.015-6.73,6.729-6.73c3.716,0,6.732,3.016,6.732,6.73
	C1590.985,412.106,1587.968,415.124,1584.25,415.124z M1640.823,623.124c-3.723,0-6.731-3.016-6.731-6.732
	c0-3.716,3.016-6.729,6.731-6.729c3.717,0,6.729,3.016,6.729,6.729C1647.55,620.109,1644.539,623.124,1640.823,623.124z
	 M1640.823,571.124c-3.723,0-6.731-3.016-6.731-6.732c0-3.716,3.016-6.729,6.731-6.729c3.717,0,6.729,3.016,6.729,6.729
	C1647.55,568.109,1644.539,571.124,1640.823,571.124z M1640.823,519.124c-3.723,0-6.731-3.016-6.731-6.732
	c0-3.716,3.016-6.729,6.731-6.729c3.717,0,6.729,3.016,6.729,6.729C1647.55,516.109,1644.539,519.124,1640.823,519.124z
	 M1640.823,467.124c-3.723,0-6.731-3.016-6.731-6.732c0-3.716,3.016-6.729,6.731-6.729c3.717,0,6.729,3.016,6.729,6.729
	C1647.55,464.109,1644.539,467.124,1640.823,467.124z M1640.823,415.124c-3.723,0-6.731-3.018-6.731-6.73
	c0-3.718,3.016-6.73,6.731-6.73c3.717,0,6.729,3.016,6.729,6.73C1647.55,412.106,1644.539,415.124,1640.823,415.124z
	 M1697.391,623.124c-3.72,0-6.73-3.016-6.73-6.732c0-3.716,3.015-6.729,6.73-6.729c3.72,0,6.73,3.016,6.73,6.729
	C1704.123,620.109,1701.112,623.124,1697.391,623.124z M1697.391,571.124c-3.72,0-6.73-3.016-6.73-6.732
	c0-3.716,3.015-6.729,6.73-6.729c3.72,0,6.73,3.016,6.73,6.729C1704.123,568.109,1701.112,571.124,1697.391,571.124z
	 M1697.391,519.124c-3.72,0-6.73-3.016-6.73-6.732c0-3.716,3.015-6.729,6.73-6.729c3.72,0,6.73,3.016,6.73,6.729
	C1704.123,516.109,1701.112,519.124,1697.391,519.124z M1697.391,467.124c-3.72,0-6.73-3.016-6.73-6.732
	c0-3.716,3.015-6.729,6.73-6.729c3.72,0,6.73,3.016,6.73,6.729C1704.123,464.109,1701.112,467.124,1697.391,467.124z
	 M1753.961,519.124c-3.72,0-6.73-3.016-6.73-6.732c0-3.716,3.016-6.729,6.73-6.729s6.731,3.016,6.731,6.729
	C1760.695,516.109,1757.679,519.124,1753.961,519.124z"/>
</svg>
