<?xml version="1.0" encoding="utf-8"?>
<!-- Generator: Adobe Illustrator 16.0.0, SVG Export Plug-In . SVG Version: 6.00 Build 0)  -->
<!DOCTYPE svg PUBLIC "-//W3C//DTD SVG 1.1//EN" "http://www.w3.org/Graphics/SVG/1.1/DTD/svg11.dtd">
<svg version="1.1" id="Layer_1" xmlns="http://www.w3.org/2000/svg" xmlns:xlink="http://www.w3.org/1999/xlink" x="0px" y="0px"
	 width="1466.621px" height="505.51px" viewBox="0 0 1466.621 505.51" enable-background="new 0 0 1466.621 505.51"
	 xml:space="preserve">
<path fill="none" stroke="#000000" stroke-linejoin="round" stroke-miterlimit="10" d="M1391.327,68.468
	c-15.913-17.64-45.233-44.066-82.405-54.864c-80.146-23.532-241.014-26.371-684.562,73.464
	c-299.073,67.706-492.07,117.297-578.964,148.84c-25.811,9.588-92.197,53.444,8.665,99.69c19.372,8.729,63.7,22.946,132.853,42.713
	c89.73,25.635,146.615,52.426,170.407,80.717l39.136,46.479L1389.664,90.99c5.681-0.763,12.188-2.093,15.849,3.592
	c3.796,12.941,15.757,22.391,29.925,22.391c17.223,0,31.183-13.96,31.183-31.181s-13.96-31.181-31.183-31.181
	c-12.378,0-23.07,7.212-28.104,17.665c-5.67,3.85-10.851-1.092-16.004-3.806L1391.327,68.468z"/>
</svg>
