<?xml version="1.0" encoding="utf-8"?>
<!-- Generator: Adobe Illustrator 16.0.0, SVG Export Plug-In . SVG Version: 6.00 Build 0)  -->
<!DOCTYPE svg PUBLIC "-//W3C//DTD SVG 1.1//EN" "http://www.w3.org/Graphics/SVG/1.1/DTD/svg11.dtd">
<svg version="1.1" id="Layer_1" xmlns="http://www.w3.org/2000/svg" xmlns:xlink="http://www.w3.org/1999/xlink" x="0px" y="0px"
	 width="1248.508px" height="453.17px" viewBox="0 0 1248.508 453.17" enable-background="new 0 0 1248.508 453.17"
	 xml:space="preserve">
<path fill="none" stroke="#000000" stroke-linejoin="round" stroke-miterlimit="10" d="M1180.438,276.817
	c-1.74-1.498-3.93-2.836-6.632-3.91c-174.997-70.169-260.771-102.164-410.342-143.491c-21.719-6.017-152.393-44.248-356.276-86.001
	c-28.729-5.882-58.938-19.842-65.772-23.405c-11.656-6.088-34-20.01-34-20.01L0,453.17c0,0,41.828-27.802,57.87-38.354
	c118.059-77.465,189.849-112.373,213.269-123.03c91.333-41.521,161.991-42.115,194.275-42.772
	c216.286-3.979,476.867,32.067,655.349,80.979c12.712,3.472,15.031,4.521,24.201-2.263c9.093-6.813,24.878-19.705,35.478-28.186
	c3.456-1.097,5.121-1.893,7.969,0.788c4.624,11.43,15.829,19.494,28.917,19.494c17.221,0,31.181-13.961,31.181-31.183
	c0-17.221-13.96-31.181-31.181-31.181c-13.354,0-24.745,8.394-29.189,20.19c-2.615,2.084-5.134,0.38-7.696-0.834L1180.438,276.817z"
	/>
</svg>
