<?xml version="1.0" encoding="utf-8"?>
<!-- Generator: Adobe Illustrator 16.0.0, SVG Export Plug-In . SVG Version: 6.00 Build 0)  -->
<!DOCTYPE svg PUBLIC "-//W3C//DTD SVG 1.1//EN" "http://www.w3.org/Graphics/SVG/1.1/DTD/svg11.dtd">
<svg version="1.1" id="Layer_1" xmlns="http://www.w3.org/2000/svg" xmlns:xlink="http://www.w3.org/1999/xlink" x="0px" y="0px"
	 width="1718.436px" height="972.406px" viewBox="0 0 1718.436 972.406" enable-background="new 0 0 1718.436 972.406"
	 xml:space="preserve">
<path fill="none" stroke="#000001" stroke-linejoin="round" stroke-miterlimit="10" d="M727.852,745.88
	c-0.396-0.281-0.801-0.544-1.188-0.838c-17.945-13.65-35.122-28.587-52.514-42.938c-36.55-30.156-73.399-60.093-110.539-89.52
	c-43.186-34.218-86.647-68.751-128.573-104.491c-19.588-16.699-39.822-32.321-60.086-48.172
	c-16.98-13.285-32.396-28.393-49.445-41.618c-15.938-12.363-29.795-28.141-48.429-36.606c-12.204-5.544-26.208-5.608-39.349-6.667
	c-69.204,2.412-159.521-7.254-227.08-63.879c-12.514-10.511-15.946-20.147,0.428-33.821
	c58.928-49.289,168.769-85.187,272.825-117.172c26.211-8.126,294.097-70.787,534.849-134.128
	C870.593,12.349,936.715,5.232,957.11,3.974c52.6-3.454,221.8-11.154,387.004,12.765c4.863,0.702,8.674,1.813,11.37,3.29
	c3.653,2,6.541,4.715,10.642,5.934c3.777,1.123,7.781,1.187,11.689,1.188c17.219,0.001,31.179,13.96,31.179,31.181
	c0,17.221-13.96,31.181-31.181,31.181c-16.146,0-29.422-12.269-31.021-27.992l-0.008-0.094c0-4.995-5.475-9.036-12.24-9.035
	c-93.111,68.598-220.312,106.33-330.819,142.389c-39.666,12.932-86.235,26.983-136.324,41.312
	c-19.256,16.285-3.309,38.8,11.286,51.373c26.146,22.523,53.954,42.663,80.292,64.989c58.347,49.458,119.962,95.708,179.953,143.199
	c13.473,10.666,26.983,23.156,41.389,32.485l0.005-0.007c2.271,2.021,3.786,5.253,4.104,9.93
	c1.629,24.514,5.508,37.213,25.375,52.277c22.301,17.004,52.644,38.525,81.392,54.63
	c110.881,62.271,283.763,150.487,421.315,224.679c9.321,5.053,8.26,20.096-7.64,24.5c-126.074,34.803-221.574,60.818-269.524,73.888
	c-21.315,5.79-25.897,5.886-36.562-0.058c-97.318-54.146-209.354-110.838-311.271-155.926
	c-129.149-57.049-196.286-60.391-351.259-63.48c-3.592-0.078-6.233-0.99-8.039-2.379L727.852,745.88z M1362.314,872.035
	c-48.108,22.59-105.577,1.684-128.325-46.678c-22.697-48.312-2.048-105.826,46.062-128.417
	c48.213-22.596,105.681-1.688,128.431,46.676C1431.179,791.929,1410.528,849.441,1362.314,872.035L1362.314,872.035
	L1362.314,872.035L1362.314,872.035L1362.314,872.035"/>
</svg>
