<?xml version="1.0" encoding="utf-8"?>
<!-- Generator: Adobe Illustrator 16.0.0, SVG Export Plug-In . SVG Version: 6.00 Build 0)  -->
<!DOCTYPE svg PUBLIC "-//W3C//DTD SVG 1.1//EN" "http://www.w3.org/Graphics/SVG/1.1/DTD/svg11.dtd">
<svg version="1.1" id="Layer_1" xmlns="http://www.w3.org/2000/svg" xmlns:xlink="http://www.w3.org/1999/xlink" x="0px" y="0px"
	 width="986.539px" height="671.285px" viewBox="0 0 986.539 671.285" enable-background="new 0 0 986.539 671.285"
	 xml:space="preserve">
<path fill="none" stroke="#000000" stroke-linejoin="round" stroke-miterlimit="10" d="M728.787,442.878l-4.396,4.682
	l-73.584,68.902c0,0-12.096,11.305-20.229,13.824c-8.496,2.664-24.841-4.896-24.841-4.896s-35.783-19.584-78.695-43.195
	c-42.84-23.689-127.368-74.091-127.368-74.091s-28.728-12.744-32.76-30.601c-4.104-17.854,21.312-33.121,21.312-33.121
	l100.367-70.126c0,0,6.27-4.104,9.938-0.864c3.672,3.168-0.289,8.136-0.289,8.136l-72.938,75.384c0,0-10.296,7.344-10.438,17.207
	c-0.216,9.939,7.632,15.553,7.632,15.553s34.416,24.84,78.479,50.256c44.063,25.488,103.247,57.391,103.247,57.391
	s12.101,5.896,16.776,6.4c4.752,0.506,14.76-5.326,14.76-5.326l86.04-61.771c0,0,5.478-1.801,7.776,0.07
	C731.809,438.56,728.787,442.878,728.787,442.878z M926.299,506.616c4.534,11.618,15.836,19.849,29.06,19.849
	c17.221,0,31.182-13.961,31.182-31.182c0-17.223-13.961-31.184-31.182-31.184c-13.462,0-24.931,8.529-29.298,20.479
	c-1.172,1.517-2.442,3.562-4.492,3.921c-2.447,0.429-4.967-1.414-7.169-2.148c-3.104-3.139-6.978-7.104-9.787-10.138
	c-5.478-5.901-0.648-10.367,0.72-11.807c1.368-1.369,3.312-5.761,2.016-9.289c-1.296-3.527,2.232-7.631,2.232-7.631
	s7.632-9.438,12.312-15.625c4.685-6.119,0.726-11.736,0.726-11.736s-32.188-33.551-125.064-120.456
	c-92.809-86.832-190.225-163.008-190.225-163.008s-41.188-33.191-45.725-36.936c-4.464-3.744-10.224-1.44-10.224-1.44
	s-12.24,10.656-20.448,18.072c-8.208,7.488-12.6,2.736-12.6,2.736S395.066,18.584,382.394,7.93
	C369.721-2.728,365.62,0.44,365.62,0.44L150.411,103.474c0,0-79.344,32.832-89.568,59.112
	c-10.152,26.28,14.184,35.928,14.184,35.928l162.936,91.224c0,0,16.776,12.24,30.816,12.816
	c28.152,1.296,51.917-14.904,51.917-14.904l120.739-63.288c0,0,8.429-4.032,12.456,0.504c4.032,4.536-0.72,9-0.72,9l-124.56,82.224
	c0,0-20.16,17.712-38.667,20.878c-18.432,3.171-37.008-6.982-37.008-6.982S33.266,206.504,24.985,201.682
	c-8.352-4.752-12.888-11.304-12.888-11.304s-2.52-4.176-6.264-3.6c-3.672,0.648-4.32,4.68-4.32,4.68S0.145,307.09,0.001,327.538
	c-0.144,20.375,10.872,15.694,10.872,15.694s6.768-1.08,29.736-0.574c22.968,0.504,66.672,24.625,66.672,24.625l85.68,45.576
	c0,0,233.064,122.396,237.24,124.771c4.104,2.377,7.488,0.438,7.488,0.438s20.016-7.775,42.623-11.375
	c22.532-3.604,48.524,14.688,48.524,14.688s167.33,107.711,172.298,110.59c5.04,2.881,5.765,1.656,5.765,1.656
	s1.513-0.791,4.177-1.512c2.592-0.725,6.84,3.455,6.84,3.455l15.696,11.229c0,0,3.812,3.896,9.646,4.465
	c3.604,0.359,7.704-3.811,7.704-3.811s165.06-159.311,165.06-159.31c3.563-2.333,6.539-5.501,10.279-1.521L926.299,506.616z"/>
</svg>
