<?xml version="1.0" encoding="utf-8"?>
<!-- Generator: Adobe Illustrator 16.0.0, SVG Export Plug-In . SVG Version: 6.00 Build 0)  -->
<!DOCTYPE svg PUBLIC "-//W3C//DTD SVG 1.1//EN" "http://www.w3.org/Graphics/SVG/1.1/DTD/svg11.dtd">
<svg version="1.1" id="Layer_1" xmlns="http://www.w3.org/2000/svg" xmlns:xlink="http://www.w3.org/1999/xlink" x="0px" y="0px"
	 width="3426.535px" height="1186.172px" viewBox="0 0 3426.535 1186.172" enable-background="new 0 0 3426.535 1186.172"
	 xml:space="preserve">
<path d="M16.708,682.259l-8.712-3.022l0,0c0,0-9.792-1.297-7.704-13.179c2.16-11.807,3.456-29.375,3.456-29.375
	s1.943-7.772,11.376-6.049c9.504,1.656,95.399,10.801,95.399,10.801l0,0l377.928,30.816l301.179,21.744l0,0
	c0,0,8.928-1.73,12.168,10.942c3.312,12.673,8.854,28.513,8.854,28.513s1.44,7.848,9.288,6.408c7.851-1.367,20.304-7.06,20.304-7.06
	s4.467-1.584,1.944-7.055c-2.52-5.545-11.592-27.939-11.592-27.939s-3.816-6.91,6.264-13.68c10.08-6.84,53.496-34.848,53.496-34.848
	s34.488-24.267,46.729-34.347c12.237-10.149,15.336-12.385,15.336-12.385s3.6-5.328,11.592-0.936
	c7.992,4.317,25.2,17.137,25.2,17.137s5.688,3.312,12.237,10.943c6.48,7.702,189.288,200.229,189.288,200.229
	s5.616,5.256,14.187,11.664c8.64,6.48,16.56,12.816,16.56,12.816s8.643,5.108-0.216,14.612
	c-8.784,9.576-108.504,101.812-108.504,101.812s-9.072,8.563-16.632-8.713c-7.562-17.207-82.08-159.048-82.08-159.048
	s-15.48-32.831-47.736-34.272c-32.184-1.512-186.982-3.527-186.982-3.527l0,0l-48.602,0.724l0,0c0,0-33.624-0.146-59.04,28.147
	c-25.416,28.297-22.104,48.816-22.104,48.816s1.584,33.336,11.664,64.584c10.148,31.248,11.664,35.713,11.664,35.713
	s4.533,17.496,25.128,19.943c7.848,0.86,85.176-16.416,85.176-16.416l0,0l68.688-13.535l0,0c0,0,12.456-5.689,27.794,12.168
	c15.336,17.854,44.854,57.24,44.854,57.24s32.76,44.276,46.872,57.311c14.184,13.105,16.56,12.816,16.56,12.816
	s9.36,5.108-0.861,14.612c-10.152,9.509-53.713,50.765-53.713,50.765l0,0l-4.97,5.899l0,0c0,0-4.392,9.361-18.936,7.201
	c-14.544-2.231-103.752-14.184-103.752-14.184s-19.656-0.724-49.824,5.76c-30.096,6.408-109.08,21.601-109.08,21.601
	s-26.928,3.526-41.112,10.803c-14.184,7.344-20.375,9.86-20.375,9.86s-6.625,4.824-14.04-5.977
	c-7.486-10.73-39.96-71.642-39.96-71.642s-6.049-12.098-7.198-18.288c-1.152-6.117-8.208-17.929-8.208-17.929
	s-47.307-83.881-115.776-165.021c-68.472-81.219-138.888-117.939-138.888-117.939s-50.904-29.938-117.794-58.811
	C76.54,700.691,16.708,682.259,16.708,682.259L16.708,682.259 M3401.356,336.73c0,0,16.775,0.504,22.68-6.192
	c5.904-6.696-0.504-27-0.504-27l0,0l-7.344-26.208l0,0c0,0-3.168-13.32-20.232-22.464c-16.988-9.216-59.9-20.232-59.9-20.232l0,0
	l-243.864-54.072L2769.63,117.13l-316.01-56.016L2191.325,24.61L2008.732,1.931l0,0c0,0-78.336-7.344-133.056,6.624
	c-43.128,11.088-88.851,40.896-88.851,40.896l0,0l-138.457,90.072l0,0c0,0-8.565,3.6-5.76,10.584
	c1.44,3.672,15.48,10.008,15.48,10.008l0,0l305.78,150.624l0,0c0,0,20.881,9.504,21.604,28.368c0.792,18.864,0.72,52.56,0.72,52.56
	l0,0l0.146,119.52l0,0c0,0-0.864,10.011,2.733,12.744c3.603,2.736,10.584,5.763,10.584,5.763s45,14.544,104.978,61.701
	c59.901,47.16,199.584,158.188,199.584,158.188s23.901,18.432,57.385,26.711c33.552,8.209,87.479,19.225,87.479,19.225
	s6.553,2.447,11.23-1.942c4.752-4.394,6.408-12.455,6.408-12.455s25.632-84.023,104.396-196.632
	c54.938-78.48,159.049-159.984,159.049-159.984s36.434-25.704,75.387-41.112c31.176-12.312,72.936-18.216,72.936-18.216
	s5.4-1.44,5.832-6.192c0.436-4.824-10.225-4.752-10.225-4.752s-244.584-34.92-342.938-45.432
	c-98.354-10.512-164.736-16.848-164.736-16.848s-6.84-1.584-5.688-6.264c1.513-6.624,10.729-7.704,10.729-7.704
	s31.682-4.032,99.647-3.816c67.896,0.144,224.928,6.192,224.928,6.192s196.776,9,389.882,26.352
	C3224.669,319.234,3401.356,336.73,3401.356,336.73L3401.356,336.73 M1971.006,359.194c0,0-0.648-4.032-4.396-4.68
	c-3.672-0.648-6.188,3.6-6.188,3.6s-4.608,6.48-12.892,11.304c-8.352,4.824-228.021,128.304-228.021,128.304
	s-18.504,10.152-37.009,6.912c-18.434-3.168-38.664-20.88-38.664-20.88l-124.487-82.224c0,0-4.752-4.392-0.722-8.928
	c4.031-4.536,12.386-0.576,12.386-0.576l120.813,63.289c0,0,23.762,16.199,51.841,14.978c14.111-0.648,30.89-12.816,30.89-12.816
	l162.863-91.295c0,0,24.406-9.648,14.185-35.928c-10.152-26.208-89.568-59.112-89.568-59.112l-215.208-102.96
	c0,0-4.031-3.24-16.704,7.416c-12.743,10.656-135.936,111.168-135.936,111.168s-4.464,4.752-12.601-2.664
	c-8.209-7.488-20.447-18.144-20.447-18.144s-5.762-2.232-10.227,1.44c-4.535,3.744-45.792,36.936-45.792,36.936
	s-97.344,76.176-190.224,163.08c-92.808,86.832-124.992,120.384-124.992,120.384s-3.96,5.617,0.721,11.808
	c4.682,6.119,12.312,15.554,12.312,15.554s3.456,4.104,2.16,7.633c-1.296,3.525,0.72,7.92,2.088,9.356
	c1.368,1.441,6.192,5.832,0.72,11.736c-5.472,5.979-14.976,15.336-14.976,15.336s-4.032,4.537-2.521,8.138
	c1.44,3.526,5.832,8.206,5.832,8.206l165.24,159.556c0,0,4.176,4.176,7.776,3.813c5.76-0.504,9.646-4.393,9.646-4.393l15.624-11.307
	c0,0,4.32-4.104,6.912-3.384c2.664,0.648,4.176,1.439,4.176,1.439s0.723,1.225,5.688-1.656
	c5.04-2.879,172.296-110.52,172.296-110.52s25.992-18.359,48.6-14.763c22.608,3.601,42.624,11.447,42.624,11.447
	s3.312,1.945,7.488-0.432c4.176-2.447,237.24-124.776,237.24-124.776l85.68-45.576c0,0,43.704-24.12,66.673-24.693
	c22.97-0.507,29.735,0.573,29.735,0.573s11.017,4.752,10.872-15.693C1972.371,474.827,1971.006,359.194,1971.006,359.194z
	 M1605.604,545.17c-4.104,17.928-32.76,30.6-32.76,30.6s-84.528,50.475-127.368,74.09c-42.912,23.614-78.696,43.198-78.696,43.198
	s-16.344,7.634-24.912,4.97c-8.062-2.521-20.16-13.824-20.16-13.824l-73.584-68.978l-4.392-4.682c0,0-3.024-4.318-0.792-6.189
	c2.232-1.801,7.704,0,7.704,0l86.112,61.703c0,0,10.008,5.832,14.688,5.328c4.752-0.506,16.848-6.336,16.848-6.336
	s59.187-31.969,103.248-57.385c44.064-25.488,78.48-50.329,78.48-50.329s7.848-5.616,7.632-15.479
	c-0.144-9.938-10.512-17.209-10.512-17.209l-72.864-75.455c0,0-3.96-4.896-0.288-8.139c3.672-3.237,9.938,0.938,9.938,0.938
	l100.366,70.056C1584.292,512.051,1609.708,527.312,1605.604,545.17z"/>
</svg>
