<?xml version="1.0" encoding="utf-8"?>
<!-- Generator: Adobe Illustrator 16.0.0, SVG Export Plug-In . SVG Version: 6.00 Build 0)  -->
<!DOCTYPE svg PUBLIC "-//W3C//DTD SVG 1.1//EN" "http://www.w3.org/Graphics/SVG/1.1/DTD/svg11.dtd">
<svg version="1.1" id="Layer_1" xmlns="http://www.w3.org/2000/svg" xmlns:xlink="http://www.w3.org/1999/xlink" x="0px" y="0px"
	 width="1188.997px" height="1146.801px" viewBox="0 0 1188.997 1146.801" enable-background="new 0 0 1188.997 1146.801"
	 xml:space="preserve">
<path fill="none" stroke="#000000" stroke-linejoin="round" stroke-miterlimit="10" d="M145.62,818.358
	c-16.344-20.811-31.536-40.824-45.648-60.051c-8.542-11.637-17.777-24.217-25.416-35.062c-3.6-5.113-10.08-13.824-19.296-25.992
	c-46.944-61.92-53.64-72.434-55.152-91.08c-0.432-4.896,0.433-12.24,2.664-22.104l0,0l2.592-10.803l0,0
	c0.216-1.009,2.664-11.88,7.2-32.761c3.937-18.122,7.98-36.222,12.168-54.288l0,0l4.752-21.888l0,0
	c0.504-2.376,2.088-5.616,4.68-9.72c1.872-0.938,3.672-1.297,5.616-1.152c3.096,1.8,5.832,3.888,8.352,6.48
	c1.584,1.584,3.672,4.464,6.336,8.64c15.469,24.248,32.391,47.516,49.392,70.704c25.128,34.271,68.904,91.438,131.472,171.646
	c17.424,22.395,35.928,44.354,55.584,65.881c14.457,15.834,29.688,30.938,45.072,45.863c7.271,7.057,14.688,14.615,22.605,22.752
	c27.504,28.439,52.704,53.93,75.456,76.178c39.456,38.88,66.168,62.711,79.992,71.137l0,0l8.928,5.615l9,5.977l0,0
	c19.368,12.814,38.448,16.487,38.595,16.416c2.661-0.359,6.336-2.088,10.728-5.039l0,0l4.536-3.096l0,0
	c0.144-0.072,10.44-2.736,17.208,0.355l0,0l9.145,4.248l0,0c3.959,1.873,7.199,2.812,9.576,2.812
	c7.703-0.146,20.879-5.979,39.455-17.644c17.279-10.869,36.939-26.639,58.969-47.158c44.141-41.328,97.637-94.248,160.637-158.832
	c31.104-32.039,63.504-70.346,96.979-115.127c0.146-0.146,17.646-22.896,52.703-68.328c40.969-52.991,74.594-99.721,100.945-140.042
	c6.623-10.08,11.23-15.623,13.607-16.632c1.512-0.646,3.24-1.009,4.896-0.937l0,0l8.135,6.912l0,0
	c0.434,0.287,7.561,30.096,21.24,89.352c5.688,24.771,8.854,39.745,9.355,45c1.439,14.258-2.088,28.01-10.584,41.4
	c-3.098,4.967-16.057,22.391-38.881,52.271c-2.879,3.744-9.145,12.672-18.857,26.642c-39.24,56.39-80.066,111.804-126.438,162.573
	c-15.912,17.427-46.873,47.595-92.953,90.576c-13.211,12.322-25.891,25.224-39.521,37.08c-3.312,2.881-13.896,12.816-31.686,29.521
	c-31.465,29.521-59.256,52.848-83.305,69.911c-5.688,4.104-8.713,6.118-9,6.19c-1.943,0.504-6.408,1.008-6.479,0.938l0,0
	l-11.305-6.408l-7.92-10.729l0,0c-1.729-2.303-4.682-5.832-8.566-10.295l0,0l-11.811-5.398l0,0
	c-0.432-0.219-6.119,1.512-6.336,1.654l0,0l-8.713,7.635l0,0c-4.967,4.316-7.848,6.908-8.639,7.631l0,0l-8.496,7.848l0,0
	c-4.176,3.816-16.488,13.105-37.227,27.865c-10.438,7.561-16.99,11.592-19.654,12.312c-5.832,1.729-11.737,1.15-17.785-1.438
	c-5.328-2.306-43.92-30.312-61.562-45.289c-10.728-9.144-16.271-13.822-16.704-14.111c-4.605-2.446-7.92-3.743-10.225-3.672
	c-1.224,0.072-2.592,0.433-4.176,0.863l0,0l-9.648,7.201l-6.768,10.151l0,0c-1.44,2.229-4.032,5.543-7.272,9.72l0,0l-11.016,4.895
	l0,0c-4.536-1.871-7.704-3.672-9.647-5.184l0,0l-8.496-6.84l-8.854-6.554l0,0c-24.408-17.854-44.063-34.127-59.04-48.89
	c-13.824-13.317-29.664-28.295-47.88-44.711c-9-8.281-30.097-28.369-63.216-60.408c-3.888-3.672-6.48-6.264-7.848-7.561
	C214.086,897.899,178.047,859.641,145.62,818.358L145.62,818.358 M69.658,45.053l-0.72-13.68l0,0
	c-0.144-2.808-0.864-7.776-2.088-14.832l0,0l-1.296-7.416l0,0c-0.145-0.576,1.439-7.776,9-7.704c2.16,0.072,5.544,1.296,10.08,3.744
	c1.08,0.504,20.808,16.272,59.328,46.944c1.512,1.224,4.392,3.384,8.496,6.624l0,0l8.64,6.624l8.352,6.84l0,0
	c11.376,9.216,36.72,29.448,75.816,60.336l0,0l8.424,6.912l0,0c5.76,4.68,14.256,11.304,25.488,20.088
	c0.072-0.072,2.808,2.304,8.208,6.696l0,0l8.424,6.84l8.712,6.408l8.352,6.84l8.424,6.84l8.712,6.408l8.354,6.84l8.496,6.912
	l8.352,6.768l8.64,6.408l8.354,6.768l8.496,6.912l8.352,6.84l0,0c26.712,21.816,49.248,39.816,67.608,54.072
	c4.392,3.384,10.08,7.848,16.92,13.464l0,0l8.424,6.84l8.712,6.408l0,0c0.504,0.432,3.312,2.736,8.28,6.984l0,0l8.136,7.128
	l8.496,6.84l0,0c12.888,10.296,26.568,22.104,41.04,35.424c4.104,3.744,6.84,6.192,8.064,7.272l0,0l8.424,6.84l8.136,7.271l0,0
	c3.96,3.528,6.84,5.904,8.354,6.77c3.021,1.872,6.19,3.24,9.573,4.104c10.08-7.056,29.449-23.112,58.033-48.456
	c12.744-11.088,32.111-27.288,58.248-48.24c0.287-0.216,3.023-2.592,8.279-6.912c31.824-26.784,82.152-67.68,150.912-122.976
	c0.721-0.576,3.6-2.88,8.424-6.769c42.553-34.56,70.561-57.168,84.023-67.824l0,0l8.568-6.696l0,0
	c18.145-14.256,29.447-23.184,33.768-26.928l0,0l8.281-6.912l8.566-6.48l0,0c11.377-8.64,22.682-17.712,33.77-27.072l0,0
	l8.352-6.912l8.496-6.552l7.992-7.344l0,0c9-8.352,25.057-22.752,32.184-20.016c4.104,1.656,6.191,4.824,6.336,9.792
	c0.072,1.368-3.383,57.384-5.111,65.52c-2.229,10.656-2.881,11.232-10.512,18.36c-0.504,0.504-12.096,9-34.92,25.776
	c-7.129,5.328-15.697,12.024-25.416,20.16c-5.328,4.464-16.777,13.392-34.129,26.712c-29.809,22.752-68.111,60.624-79.92,73.152
	c-4.967,5.256-18.576,22.32-40.752,50.832c-17.711,22.824-37.225,48.744-58.752,77.832c-4.752,6.408-15.912,20.592-33.553,42.768
	c-10.225,12.744-18.936,24.264-26.279,34.561l0,0l-6.336,8.712l-6.912,8.496l-6.408,8.713l0,0c-4.248,5.688-6.479,8.714-6.551,8.783
	c-8.785,11.376-17.568,22.969-26.209,34.632l0,0l-6.408,8.643l-8.928,6.12l-9.791-1.01l-9.576-2.375l0,0
	c-4.465-1.151-7.633-1.439-9.721-1.151c-0.863,0.216-10.512,6.12-29.088,17.712c-15.553,9.792-28.656,17.353-39.457,22.824
	c-5.83,2.88-9.287,4.392-10.439,4.536c-1.729,0.216-3.168,0.357-4.32,0.285c-0.504-0.069-23.328-12.454-50.328-30.021
	c-17.928-11.736-27.573-18.072-28.8-19.008c-4.104,0.72-7.056,1.368-9,1.941l0,0l-9,2.521l0,0c-5.111,1.438-8.136,2.16-9,2.088
	c-2.376-0.216-5.397-2.088-9.357-5.328c-1.656-1.296-8.209-9.936-19.515-25.848c-7.704-10.656-18.72-24.984-33.048-42.84
	c-0.216-0.288-9.072-11.811-26.28-34.417c-41.76-54.504-70.416-91.584-86.04-111.24c-0.069-0.072-2.305-2.952-6.552-8.568
	c-33.048-43.344-40.248-52.56-62.712-74.592c-36.288-35.712-60.479-57.6-72.432-65.592l0,0l-9-6.048l-8.28-6.696l0,0
	c-11.376-9.288-22.824-18.144-34.344-26.712l0,0l-8.784-6.48l-8.424-6.84l0,0c-1.728-1.44-4.752-3.528-8.928-5.976l0,0l-9.288-5.616
	l0,0c-3.24-2.016-5.832-4.392-7.561-7.416c-1.872-3.023-3.456-10.008-5.111-21.24C70.738,56.212,69.874,49.013,69.658,45.053
	L69.658,45.053"/>
</svg>
