<?xml version="1.0" encoding="utf-8"?>
<!-- Generator: Adobe Illustrator 16.0.0, SVG Export Plug-In . SVG Version: 6.00 Build 0)  -->
<!DOCTYPE svg PUBLIC "-//W3C//DTD SVG 1.1//EN" "http://www.w3.org/Graphics/SVG/1.1/DTD/svg11.dtd">
<svg version="1.1" id="Layer_1" xmlns="http://www.w3.org/2000/svg" xmlns:xlink="http://www.w3.org/1999/xlink" x="0px" y="0px"
	 width="1827.957px" height="1086.889px" viewBox="0 0 1827.957 1086.889" enable-background="new 0 0 1827.957 1086.889"
	 xml:space="preserve">
<path fill="none" stroke="#000001" stroke-linejoin="round" stroke-miterlimit="10" d="M1235.547,192.966
	c-2.245,0.829-4.396,1.726-6.445,2.683c-12.095,5.65-52.799,31.921-88.342,59.543c-88.799,68.999-183.584,155.964-284.242,260.778
	l0,0c-12.841,13.372-29.397,30.612-39.133,39.52c-18.957,17.357-60.312,61.785-123.99,133.224
	c-11.648,13.08-28.402,36.382-50.183,69.854l0,0l-12.243,17.646l0,0c-7.384,10.441-11.371,16.528-11.87,18.132
	c-0.871,2.792-1.038,5.747-0.661,8.99l0,0l1.226,9.017l0,0c0.24,2.065,0.583,5.015,1,9.062l0,0l-4.284-0.56l0,0
	c-2.681-8.409-5.393-14.353-8.216-17.77c-22.105,5.257-36.293,8.858-42.501,10.809c-2.613,0.821-35.395,9.002-53.089,13.495
	c-42.35,10.756-70.694,17.668-85.034,20.74c-13.892,2.987-21.001,4.603-21.324,4.851c-5.869,4.518-8.18,11.976-12.681,17.663
	c-1.325,1.676-6.149-6.271-8.425-10.024c-2.152-3.547-3.307-5.295-3.376-5.306l0,0l-10.856-2.501l0,0
	c-6.761-1.606-24.478-7.179-53.018-16.628c-33.757-11.216-76.555-23.244-128.395-36.088
	c-43.184-10.698-86.529-20.732-129.739-31.326c-21.46-5.262-32.307-7.834-32.378-7.843l0,0l-12.179,4.877l-9.325,9.171l0,0
	c-5.127,7.609-7.474,17.832-4.605,28.152c1.824,6.627,7.421,16.067,16.728,28.24c14.275,18.629,25.142,33.33,32.608,44.027
	c12.475,17.883,25.612,35.287,38.261,53.043c16.951,23.797,34.763,46.958,52.034,70.521c28.242,38.524,46.049,61.825,53.554,69.989
	c6.04,6.591,11.688,11.175,16.873,13.736c13.024,6.49,30.021,4.199,36.983,1.475c37.03-14.492,74.522-27.766,112.21-40.439
	c61.654-20.73,96.004-31.945,103.059-33.714c28.961-7.257,76.954-20.466,115.343-31.028c25.981-7.146,117.651-31.453,136.678-35.946
	c56.415-13.327,112.647-27.401,168.706-42.164c61.34-16.156,123.574-28.521,185.929-40.066c35.287-6.538,56.779-10.612,64.57-12.271
	c18.559-3.879,39.98-8.205,64.22-13.063c71.173-14.236,106.862-21.322,107.228-21.28c2.755,0.131,20.028,7.1,51.859,20.78
	c13.707,5.829,27.414,11.658,41.143,17.42c78.917,33.08,136.889,58.616,173.826,76.654l0,0l10.076,4.893l0,0
	c1.625,0.824,5.214,0.236,10.774-1.536c6.329-2.054,12.18-6.152,17.641-12.341c6.181-7.013,17.39-29.961,33.586-68.696
	c31.881-76.255,81.086-187.64,122.386-281.125c19.283-43.646,33.353-73.387,42.096-89.108l0,0l5.33-9.557l3.613-10.334
	c0.084-0.721,0.283-1.435,0.41-2.149c0.573-3.239,1.127-6.492,1.77-9.717c0.699-3.503,1.062-7.224,2.995-10.324
	c1.958-0.304,3.417-1.795,4.229-4.398c-1.61-2.903-19.597-30.837-53.787-84.148l0,0l-5.941-9.355l0,0
	c-4.502-7.181-16.237-26.025-35.203-56.607c-11.476-18.469-23.14-37.31-35.225-56.322c-12.665-20.054-23.728-39.288-33.499-57.434
	l0,0l-5.108-10.021l-1.691-9.589l-2.706-10.588l0,0c-0.944-3.221-4.019-23.816-4.04-32.581l0,0l0.323-10.827l-0.168-10.929
	l0.535-10.741l0.265-10.974l0.116-10.911l0,0c0.162-7.101,0.268-14.419,0.166-21.898c0.17-15.147-0.82-23.326-2.732-24.884l0,0
	l-8.263-6.773l0,0c-4.811-0.089-8.47-0.106-10.925,0.098l0,0l-10.608,0.765l0,0c-3.832,0.404-65.51,1.165-185.198,2.49
	c-10.857,0.174-21.752,0.92-32.629,2.53l0,0l-10.796,1.471l0,0c-15.728,2.236-26.446,3.569-32.312,4.346l0,0l-10.933,1.319l0,0
	c-42.86,5.33-64.646,7.901-64.875,8.102c-26.96,3.751-44.786,6.213-54.194,7.341c-6.804,0.789-10.416,1.136-10.782,1.256
	c-2.95,1.178-5.018,2.053-6.304,3.121c-9.757,6.658-21.348,13.726-33.304,8.058l0.004-0.006c-4.823-3.059-10.543-4.83-16.677-4.83
	c-17.221,0-31.181,13.96-31.181,31.181c0,17.221,13.96,31.181,31.181,31.181c7.161,0,13.758-2.414,19.022-6.472l-0.004-0.005
	c8.631-6.076,18.019-5.298,26.727,0l-0.001-0.002c2.289,3.774,4.516,7.456,4.924,8.101l0,0l22.662,47.05l0,0
	c5.426,14.12,16.876,34.239,0.755,45.811L1235.547,192.966z"/>
</svg>
