<?xml version="1.0" encoding="utf-8"?>
<!-- Generator: Adobe Illustrator 16.0.0, SVG Export Plug-In . SVG Version: 6.00 Build 0)  -->
<!DOCTYPE svg PUBLIC "-//W3C//DTD SVG 1.1//EN" "http://www.w3.org/Graphics/SVG/1.1/DTD/svg11.dtd">
<svg version="1.1" id="Layer_1" xmlns="http://www.w3.org/2000/svg" xmlns:xlink="http://www.w3.org/1999/xlink" x="0px" y="0px"
	 width="1823.908px" height="1099.906px" viewBox="0 0 1823.908 1099.906" enable-background="new 0 0 1823.908 1099.906"
	 xml:space="preserve">
<path fill="none" stroke="#000000" stroke-linejoin="round" stroke-miterlimit="10" d="M971.186,520.667
	C871.938,414.514,778.325,326.29,690.456,256.11c-35.17-28.096-75.519-54.908-87.536-60.72c-20.5-9.918-51.493-13.767-84.566-5.46
	c-1.572,0.396-20.698,6.331-31.052,9.496c-2.823,0.863-25.43,12.37-67.753,34.499c-105.897,55.37-212.761,108.87-319.132,163.324
	c-13.15,6.732-32.441,16.772-57.853,30.19c-18.142,9.61-27.547,15.05-28.147,16.284l0,0l-4.447,9.344l3.476,10.382l5.203,9.627l0,0
	c8.532,15.837,22.202,45.765,40.897,89.664c40.045,94.031,87.756,206.062,118.614,282.733
	c15.677,38.951,26.578,62.044,32.665,69.146c5.377,6.26,11.172,10.437,17.473,12.576c5.534,1.846,9.116,2.479,10.753,1.68l0,0
	l10.14-4.757l0,0c37.176-17.543,95.483-42.302,174.836-74.323c13.805-5.576,27.588-11.223,41.372-16.868
	c32.012-13.253,49.376-19.993,52.134-20.084c0.365-0.036,35.956,7.526,106.933,22.713c24.172,5.186,45.535,9.792,64.039,13.921
	c7.77,1.77,29.204,6.131,64.4,13.137c62.189,12.379,124.258,25.572,185.377,42.55c55.853,15.512,111.895,30.337,168.126,44.418
	c18.965,4.749,110.301,30.279,136.183,37.772c38.243,11.073,86.059,24.923,114.916,32.566c7.031,1.863,41.229,13.536,102.602,35.091
	c37.516,13.177,74.823,26.949,111.657,41.938c6.927,2.813,23.893,5.335,37-0.979c5.221-2.491,10.929-7,17.056-13.513
	c7.612-8.062,25.729-31.123,54.485-69.267c17.584-23.327,35.703-46.251,52.974-69.815c12.887-17.585,26.255-34.812,38.968-52.526
	c7.608-10.6,18.671-25.15,33.194-43.59c9.47-12.05,15.188-21.414,17.104-28.017c3.006-10.281,0.797-20.534-4.229-28.212l0,0
	l-9.201-9.294l-12.112-5.04l0,0c-0.072,0.009-10.952,2.437-32.479,7.409c-43.351,10.013-86.823,19.468-130.146,29.588
	c-52.008,12.146-94.962,23.604-128.865,34.365c-28.662,9.065-46.451,14.4-53.231,15.916l0,0l-10.892,2.354l0,0
	c-0.069,0.009-1.248,1.74-3.444,5.259c-2.328,3.727-7.257,11.604-8.561,9.913c-4.426-5.746-6.637-13.237-12.442-17.831
	c-0.317-0.254-7.403-1.965-21.259-5.135c-14.298-3.264-42.547-10.557-84.748-21.876c-17.637-4.73-50.302-13.349-52.9-14.205
	c-6.184-2.034-20.323-5.823-42.354-11.375c-2.868,3.378-5.659,9.285-8.452,17.656l0,0l-4.291,0.5l0,0
	c0.473-4.042,0.854-6.985,1.119-9.046l0,0l1.346-9l0,0c0.421-3.238,0.291-6.196-0.541-8.998c-0.479-1.611-4.385-7.753-11.627-18.29
	l0,0l-12.008-17.812l0,0c-21.328-33.759-37.771-57.286-49.241-70.52c-62.716-72.283-103.476-117.261-122.196-134.868
	C1000.171,551.67,983.846,534.209,971.186,520.667L971.186,520.667 M621.424,38.144c-1.273-1.083-3.332-1.983-6.266-3.197
	c-0.364-0.125-3.977-0.516-10.769-1.39c-9.395-1.244-27.188-3.926-54.102-8.01c-0.228-0.203-21.978-3.043-64.771-8.901l0,0
	l-10.911-1.453l0,0c-5.858-0.85-16.56-2.314-32.26-4.744l0,0l-10.774-1.604l0,0c-10.855-1.744-21.74-2.625-32.597-2.934
	C279.319,3.11,217.652,1.589,213.825,1.138l0,0l-10.598-0.896l0,0c-2.453-0.233-6.114-0.263-10.924-0.233l0,0l-8.345,6.671l0,0
	c-1.932,1.534-3.022,9.701-3.04,24.848c-0.193,7.476-0.179,14.796-0.104,21.899l0,0l-0.019,10.911l0.129,10.977l0.404,10.747
	l-0.304,10.926l0.194,10.829l0,0c-0.128,8.764-3.459,29.321-4.443,32.529l0,0L173.94,150.9l-1.81,9.567l-5.235,9.957l0,0
	c-9.992,18.024-21.293,37.121-34.205,57.017c-12.318,18.861-24.215,37.557-35.914,55.884c-19.341,30.345-31.31,49.045-35.899,56.17
	l0,0l-6.06,9.281l0,0C19.974,401.662,1.647,429.372,0,432.256c0.778,2.616,2.219,4.121,4.174,4.453
	c3.461-1.11,6.695-2.424,9.852-3.876c0.276-0.229,21.969-12.606,64.933-37.192c11.865-6.635,21.286-11.924,27.92-15.564
	c6.215-3.403,12.348-7.019,18.631-10.497l0,0l9.052-5.486l9.504-5.079l9.202-5.35l0,0c29.837-17.386,57.989-32.603,84.454-45.724
	c3.997-1.855,13.297-6.708,28.618-14.524c75.12-38.716,113.17-58.315,113.732-58.559c11.54-5.972,27.186-14.45,46.952-25.22
	c18.574-10.136,34.776-17.565,48.609-22.219c36.195-12.325,60.229-18.288,72.73-17.993l0,0l10.705,0.172l0,0
	c7.475,0.192,14.297-1.159,20.814-4.22c8.543-4.168,16.041-12.016,16.768-13.272l0,0l23.239-46.768l0,0
	c0.866-1.336,9.819-15.79,10.559-16.833l0,0l5.993-7.771l0,0c0.95-1.054,2.062-3.192,3.325-6.559
	c-2.496-5.329-4.568-9.386-5.985-11.826l0,0l-6.986-11.703L621.424,38.144L621.424,38.144"/>
</svg>
