<?xml version="1.0" encoding="utf-8"?>
<!-- Generator: Adobe Illustrator 16.0.0, SVG Export Plug-In . SVG Version: 6.00 Build 0)  -->
<!DOCTYPE svg PUBLIC "-//W3C//DTD SVG 1.1//EN" "http://www.w3.org/Graphics/SVG/1.1/DTD/svg11.dtd">
<svg version="1.1" id="Layer_1" xmlns="http://www.w3.org/2000/svg" xmlns:xlink="http://www.w3.org/1999/xlink" x="0px" y="0px"
	 width="796.965px" height="510.848px" viewBox="0 0 796.965 510.848" enable-background="new 0 0 796.965 510.848"
	 xml:space="preserve">
<path fill="none" stroke="#000000" stroke-linejoin="round" stroke-miterlimit="10" d="M61.587,38.118
	c0.507-2.231,0.775-4.553,0.775-6.937C62.362,13.96,48.402,0,31.181,0C13.96,0,0,13.96,0,31.181
	c0,17.221,13.96,31.181,31.181,31.181c6.639,0,12.793-2.075,17.85-5.612c5.586-1.77,9.898,5.265,13.136,8.597
	c2.419,3.369,6.075,8.164,11.01,14.405c4.056,5.137,12.107,14.662,24.113,28.419c15.75,17.943,112.218,121.903,125.006,132
	c13.095,10.382,53.083,35.494,119.775,75.515c20.566,12.273,180.866,99.023,249.082,135.025
	c8.596,4.562,21.365,11.637,38.104,21.178c28.021,16.002,51.025,26.516,69.146,31.641c33.117,9.357,57.84,9.781,74.139,1.045
	c4.992-2.688,12.943-9.236,24.014-19.684c0.691-3.236,0.517-6.885-0.571-10.062c0.014-0.07-34.406-43.65-103.139-130.64
	c-36.979-46.776-60.895-79.571-71.854-98.556c-14.141-24.446-21.568-37.226-22.345-38.422c-10.12-13.28-25.968-21.82-47.438-25.379
	c-16.119-2.782-26.812-4.772-32.146-5.986c-9.305-2.283-23.439-5.378-42.404-9.652c-3.188-0.606-24.271-5.628-63.381-14.87
	c-1.973-0.421-5.492-1.174-10.604-2.413c-7.393-1.58-14.475-3.241-21.188-4.896c-6.98-1.786-31.854-6.661-74.356-14.491
	c-30.004-5.676-90.619-21.428-125.486-36.389c-11.473-4.882-27.937-12.597-49.757-23.15c-26.857-13.083-45.9-20.876-57.149-23.535
	c-3.071-1.027-6.18-1.979-9.226-3.076C63,42.471,61.888,40.695,61.587,38.118z"/>
</svg>
