<?xml version="1.0" encoding="utf-8"?>
<!-- Generator: Adobe Illustrator 16.0.0, SVG Export Plug-In . SVG Version: 6.00 Build 0)  -->
<!DOCTYPE svg PUBLIC "-//W3C//DTD SVG 1.1//EN" "http://www.w3.org/Graphics/SVG/1.1/DTD/svg11.dtd">
<svg version="1.1" id="Layer_1" xmlns="http://www.w3.org/2000/svg" xmlns:xlink="http://www.w3.org/1999/xlink" x="0px" y="0px"
	 width="506.085px" height="855.639px" viewBox="0 0 506.085 855.639" enable-background="new 0 0 506.085 855.639"
	 xml:space="preserve">
<path fill="none" stroke="#000000" stroke-linejoin="round" stroke-miterlimit="10" d="M264.908,588.141
	c-19.193,7.43-41.463-7.684-43.276-27.119c-1.993-21.354,20.594-39.408,41.655-31.763
	C289.736,538.812,291.88,577.703,264.908,588.141z M169.848,66.626c0.653-0.931,1.354-2.025,1.25-3.209
	c-0.105-1.198-1.043-1.844-1.803-2.668h0.002c-12.357-4.144-21.26-15.816-21.26-29.568C148.037,13.96,161.997,0,179.218,0
	c17.221,0,31.181,13.96,31.181,31.181c0,12.684-7.573,23.599-18.444,28.47c-1.896,2.673-1.316,4.711,0.571,7.237l0.002,0.001
	c7.354,3.816,17.717,10.043,31.081,18.679c33.848,21.811,55.639,35.598,65.473,41.602c54.369,33.264,91.865,56.592,112.32,70.093
	l9.211,6.165c30.504,19.182,49.072,31.176,55.719,35.909c9.457,6.733,14.383,11.91,14.695,15.289
	c0.465,4.37-1.703,9.355-6.648,14.924c-1.047,1.101-3.744,3.396-8.365,6.753l-8.861,6.351
	c-19.449,14.176-22.127,27.74-29.279,68.105c-9.402,52.253-14.738,81.005-15.889,86.062c-5.902,23.088-1.377,41.047,6.541,63.094
	c10.785,30.141,22.838,68.495,35.969,114.89c13.297,46.649,21.303,74.645,24.17,84.312c18.479,61.673,27.498,93.195,27.424,94.579
	l-0.426,3.37c-0.062,0.28-0.094,0.789,0.006,1.687c-2.408,2.65-5.146,4.789-8.33,6.245c-1.99,1.048-9.156,2.533-21.299,4.577
	c-38.168,6.345-59.709,9.99-64.34,10.987l-10.643,2.219l-10.859,1.579l-10.539,2.461c-7.186,1.56-28.59,5.965-64.082,12.884
	c-24.853,4.997-46.211,8.825-64.312,11.879c-13.813,2.277-21.003,3.536-21.456,3.589c-24.462,2.502-52.895-5.709-61.563-12.349
	l-8.542-6.538c-6.781-5.13-12.627-9.475-17.467-13.01c-22.764-16.131-48.688-35.736-77.872-58.685
	c-10.651-8.389-16.396-12.855-17.01-13.43c-10.011-7.588-15.485-12.291-16.336-14.166l-4.32-9.759
	c-2.427-5.523-3.897-8.639-4.662-9.536c-0.876-1.069-3.642-3.28-8.341-6.79l-8.854-6.456L0.116,695.2
	c-1.82-8.709,17.94-68.097,18.116-68.575c1.486-3.509,3.24-6.889,5.244-10.069c3.803,0.814,14.435,4.119,31.727,10.021l10.517,3.499
	c2.333,0.794,9.42,3.118,21.134,6.872c12.654,4.18,19.811,6.52,21.089,7.085l10.115,4.002c2.304,0.936,5.91,1.633,10.919,1.967
	c6.355-10.79,10.486-23.231,12.465-37.312l-0.704-0.15l-104.32-36.21c0.552-2.236,7.761-24.258,21.557-66.071
	c1.547-4.823,2.781-8.536,3.62-11.081c6.952-21.852,10.416-32.891,10.547-33.16c1.472-3.438,3.154-6.835,5.244-10.066l2.832,0.531
	c0,0,103.268,35.938,103.615,36.059c3.284,1.143,6.377-13.987,6.841-16.169c1.611-7.562,4.748-14.984,7.279-22.338
	c-7.354-3.486-29.032-10.917-64.722-22.373c-22.653-7.344-37.048-12.335-43.069-15.168c0.466-4.244,2.133-8.601,4.891-13.238
	c6.064-10.116,15.45-15.105,28.102-15.051c19.104,0.081,40.377,15.982,58.987,9.502c19.499-6.793,22.438-31.205,26.96-48.559
	c5.536-21.424,14.471-49.113,26.823-83.138c4.614-12.634,9.856-27.859,3.759-49.63c-3.956-13.878-11.178-26.244-21.74-37.115
	c-2.536-2.604-10.832-9.604-24.833-20.916l-8.412-6.804c-23.998-20.001-37.124-32.304-39.45-36.924
	c-1.525-3.197-2.578-6.883-2.319-10.508l0.161-1.438l-0.131-0.765c-0.056-1.117,1.864-4.241,5.969-9.327l6.864-8.693l6.487-8.995
	l7.423-8.206L169.848,66.626z"/>
</svg>
