<?xml version="1.0" encoding="utf-8"?>
<!-- Generator: Adobe Illustrator 16.0.0, SVG Export Plug-In . SVG Version: 6.00 Build 0)  -->
<!DOCTYPE svg PUBLIC "-//W3C//DTD SVG 1.1//EN" "http://www.w3.org/Graphics/SVG/1.1/DTD/svg11.dtd">
<svg version="1.1" id="Layer_1" xmlns="http://www.w3.org/2000/svg" xmlns:xlink="http://www.w3.org/1999/xlink" x="0px" y="0px"
	 width="661.117px" height="791.843px" viewBox="0 0 661.117 791.843" enable-background="new 0 0 661.117 791.843"
	 xml:space="preserve">
<path fill="none" stroke="#000000" stroke-linejoin="round" stroke-miterlimit="10" d="M367.986,500.007
	c-4.084,15.572-19.578,27.699-38.91,22.09c-7.812-2.27-16.726-9.215-20.3-16.725c-3.162-6.637-3.823-13.627-1.847-20.998
	c1.811-6.381,8.804-20.26,25.605-22.883C356.514,457.658,373.498,478.714,367.986,500.007z M381.384,369.81
	c-11.518,2.426-20.807,2.43-28.711-7.408c-0.688-0.89-2.414-3.997-5.18-9.392c-2.272-4.392-7.438-20.688-15.676-48.705
	c-11.484-39.116-19.229-70.903-23.519-95.303c-4.512-26.633,0.107-36.219,26.265-53.778l9.011-5.985
	c4.604-3.049,19.401-13.495,44.797-31.195c27.736-19.564,52.143-35.232,73.424-47.046c9.713-5.412,20.646-13.797,32.438-10.209
	c9.928,3.021,17.815,14.78,24.026,22.352c12.396,14.999,21.188,26.678,26.367,34.968c5.59,8.869,9.346,15.168,10.982,18.952
	c4.883,10.846,7.477,27.142,7.924,48.858c1.199,61.142,1.912,93.746,1.896,97.715c0.271,19.261,6.156,48.79-18.838,54.052
	c-9.055,1.907-18.426,2.696-27.592,3.9c-6.426,0.917-24.104,4.301-53.063,10.38c-2.476,0.494-5.984,1.27-10.574,2.187
	C444.994,356.295,420.324,361.443,381.384,369.81z M597.845,596.804c-6.291,2.104-13.508,2.537-19.666,3.115
	c-2.092,0.197-5.562-1.018-10.42-3.645c-0.256-0.174-8.896-7.035-25.819-20.834c-2.822-2.373-17.66-13.439-44.314-33.297
	c-11.295-8.393-19.539-15.85-24.594-22.396c-6.722-8.646-11.998-18.529-15.609-29.627l-8.578-26.775l-3.049-10.479
	c-0.984-3.479-1.975-6.947-2.963-10.422c-1.043-3.395-2.031-6.861-3.021-10.336c0,0-3.047-10.48-3.049-10.482
	c-3.856-13.803-0.75-24.865,13.355-30.366c14.229-5.55,31.467-6.875,46.401-9.762c10.521-2.103,21.832-6.133,32.688-5.427
	c31.994,2.082,17.184,48.599,18.34,68.132c0.73,12.35,5.369,23.898,11.088,34.729c1.299,2.457,5.42,9.123,12.295,20.014
	c8.131,12.766,17.884,29.613,29.33,50.895l5.377,10.381c0,0,5.308,9.744,5.336,9.805c2.945,5.297,2.433,11.5-0.319,16.719
	C607.861,592.033,603.188,595.019,597.845,596.804z M57.246,692.16c-5.575-8.469-15.167-14.061-26.065-14.061
	c-17.222,0-31.182,13.961-31.182,31.182s13.96,31.182,31.182,31.182c15.759,0,28.789-11.691,30.886-26.875
	c1.636-3.9,5.916-2.678,9.118-2.049v0.002c6.57,2.709,17.271,5.996,32.045,9.809c26.432,6.98,53.936,14.562,82.698,22.541
	c6.763,1.881,17.155,4.648,31.035,7.979c18.919,4.664,36.188,9.145,51.832,13.582l10.321,2.775
	c55.645,15.396,86.75,23.355,93.397,23.562c4.9,0.27,9.742-0.479,14.191-2.102c10.252-3.811,47.48-27.691,111.598-71.703
	c19.435-13.354,31.646-21.668,36.508-24.914l9.191-6.168l5.594-9.488c2.076-3.572,4.211-6.494,6.431-8.627
	c3.315-3.232,27.934-19.312,73.973-48.33c17.729-11.25,26.834-17.477,27.387-18.76l3.729-9.996
	c-0.029-0.508-8.044-13.078-23.911-37.734c-12.025-18.672-19.916-31.34-23.656-37.934c-6.436-11.641-12.19-25.396-17.16-41.066
	l-3.33-10.789c-10.241-32.535-15.051-72.764-14.643-120.717l0.213-11.056c0.451-51.413,0.57-80.953,0.191-88.732
	c-0.027-0.142-1.144-14.897-3.354-44.339c-0.338-4.631-0.928-15.673-1.77-33.126c-1.269-27.648-10.326-44.341-22.978-61.345
	c-8.809-11.75-25.014-32.229-48.688-61.42c-13.691-17.089-20.723-25.817-20.961-26.283l-6.916-8.897
	c-6.41-8.191-8.23-9.223-18.779-7.63c-3.854,0.55-10.646,3.302-20.361,8.326c-15.508,8.017-31.646,16.161-48.834,24.587
	c-6.411,3.189-22.606,11.418-48.637,24.473c-31.916,16.288-48.128,24.445-48.651,24.77l-9.645,5.01
	c-8.12,4.192-37.338,18.913-87.881,44.134c-23.754,11.785-36.702,18.262-39.067,19.402c-7.933,3.823-16.398,8.907-12.948,19.035
	c0.17,0.48,7.99,8.39,23.393,23.743c26.117,26.002,25.857,65.297,27.44,99.512c0.155,3.346,1.69,18.018,4.649,43.858
	s4.029,40.386,3.633,43.916c-0.297,3.29-2.841,10.038-7.531,20.374l-4.535,10.013c-12.178,26.516-21.092,46.578-26.856,59.988
	c-11.401,26.729-20.175,46.764-26.307,60.178l-4.492,9.854l-4.055,10.207l-4.549,9.941l-4.056,10.207l-4.492,9.854l-4.605,10.025
	l-4.069,10.137l-4.479,9.924l-4.069,10.143l-4.605,10.02c-1.278,2.766-19.137,43.133-24.23,57.475
	c-1.82,2.754-5.289,4.93-8.294,2.424H57.246z"/>
</svg>
