<?xml version="1.0" encoding="utf-8"?>
<!-- Generator: Adobe Illustrator 16.0.0, SVG Export Plug-In . SVG Version: 6.00 Build 0)  -->
<!DOCTYPE svg PUBLIC "-//W3C//DTD SVG 1.1//EN" "http://www.w3.org/Graphics/SVG/1.1/DTD/svg11.dtd">
<svg version="1.1" id="Layer_1" xmlns="http://www.w3.org/2000/svg" xmlns:xlink="http://www.w3.org/1999/xlink" x="0px" y="0px"
	 width="662.734px" height="498.514px" viewBox="0 0 662.734 498.514" enable-background="new 0 0 662.734 498.514"
	 xml:space="preserve">
<path fill="none" stroke="#000000" stroke-linejoin="round" stroke-miterlimit="10" d="M116.392,72.971
	c-0.985,7.093-4.358,14.632-9.49,19.64c-6.489,6.332-16.364,9.811-25.378,8.066c-2.78-0.538-5.686-1.712-8.139-3.122
	c-6.023-3.461-10.652-8.043-13.494-14.447c-1.11-2.501-1.905-5.038-2.376-7.734c-3.759-21.521,16.583-38.557,36.399-34.776
	C104.403,42.417,119.311,51.945,116.392,72.971z M604.576,436.153c-6.209-1.853-14.185-4.679-23.946-8.464
	c-3.937-1.548-17.268-7.585-39.832-18.104c-8.83-4.095-15.578-6.904-20.242-8.425c-8.068-2.392-22.263-6.103-42.814-10.796
	c-25.893-5.893-44.848-8.463-57.02-7.649c-21.815,1.576-43.872,9.197-66.104,23.083c-17.332,10.514-27.202,16.024-30.052,16.565
	c-1.607,0.331-5.344,0.021-11.113-1.065c-3.571-0.587-7.041-1.6-10.719-2.771l-10.173-4.541
	c-39.364-17.5-63.582-26.972-72.361-28.466c-6.215-0.974-9.951-1.209-11.137-0.705c-0.517,0.182-1.969,1.461-4.329,3.404
	l-4.188,3.483c-1.973,1.536-3.967,2.274-6.487,2.188c-3.175,0.014-30.845-5.059-32.893-5.766
	c-11.939-4.003-14.629-8.213-23.282-21.964l-5.898-9.394l-5.831-9.312l-6.06-9.114l-5.897-9.392
	c-15.398-24.566-35.223-55.548-59.134-92.628c-24.782-38.147-39.923-63.347-45.729-75.33c-7.954-16.808-9.898-27.104-9.205-50.579
	c0.032-0.503,0.896-18.701,2.862-54.288l0.549-10.93c0.145-2.3,0.377-5.964,0.61-10.783l0.473-10.864
	c0.4-6.323,0.633-9.988,0.759-10.846C6.33,9.156,7.684,5.995,9.685,2.876c4.173-2.116,7.408-3.066,9.775-2.844l10.886,1.265
	c7.948,0.937,54.906,4.49,140.745,10.431c8.551,0.542,19.531,1.454,32.676,2.359c6.229,0.492,12.438,1.212,18.678,1.555
	c6.32,0.347,12.659,0.406,18.961,1.045c11.397,1.155,62.445,5.039,153.003,11.64c1.722,0.11,38.265,1.775,109.492,4.917l10.863,0.4
	c7.123,0.307,10.783,0.611,10.998,0.625c4.119,1.054,7.404,2.705,9.447,4.638c1.619,1.762,3.377,4.759,5.174,9.418
	c0.185,0.517,1.685,7.61,4.492,21.351c2.791,12.874,6.859,30.663,12.201,53.366l2.496,10.691l2.35,10.754
	c5.839,26.199,12.695,54.697,20.355,85.266c2.014,8.066,7.508,32.943,16.832,74.801c0.816,4.092,5.241,21.975,12.789,53.188
	c8.406,33.789,13.747,57.829,13.55,69.359c0.322,2.107,0.072,4.405,1.257,6.288c0.978,1.557,2.617,2.292,4.332,2.768
	c0.171-0.003,0.342-0.004,0.513-0.004c17.221,0,31.183,13.96,31.183,31.181s-13.962,31.181-31.183,31.181
	s-31.181-13.96-31.181-31.181c0-8.782,3.631-16.717,9.473-22.383c1.61-4.018-2.658-6.68-5.27-8.798H604.576z"/>
</svg>
