<?xml version="1.0" encoding="utf-8"?>
<!-- Generator: Adobe Illustrator 16.0.0, SVG Export Plug-In . SVG Version: 6.00 Build 0)  -->
<!DOCTYPE svg PUBLIC "-//W3C//DTD SVG 1.1//EN" "http://www.w3.org/Graphics/SVG/1.1/DTD/svg11.dtd">
<svg version="1.1" id="Layer_1" xmlns="http://www.w3.org/2000/svg" xmlns:xlink="http://www.w3.org/1999/xlink" x="0px" y="0px"
	 width="1834.012px" height="806.783px" viewBox="0 0 1834.012 806.783" enable-background="new 0 0 1834.012 806.783"
	 xml:space="preserve">
<path fill="none" stroke="#000000" stroke-linejoin="round" stroke-miterlimit="10" d="M1037.433,770.76
	c3.521,0.058,6.554-2.426,9.161-4.785c3.529-15.106,10.684-46.355,21.34-93.629c1.922-8.522,16.335,41.293,22.506,62.621
	c5.36,18.531,8.762,28.771,10.123,30.698c2.4,3.453,5.03,5.922,7.908,7.337c2.56,1.24,11.792,2.808,27.844,4.518
	c16.395,1.815,27.168,3.028,32.518,3.773c20.146,2.596,34.601,4.342,43.316,5.146c20.446,1.858,56.328,7.428,107.733,16.646
	c35.695,6.412,46.5,5.826,83.545-12.661c68.062-33.966,136.37-81.021,201.688-126.018c41.363-28.495,81.656-58.501,121.771-88.729
	c24.833-18.713,38.625-30.207,41.279-34.662c1.956-3.164,3.104-6.648,3.479-10.305c0.36-3.557-14.515-15.179-22.784-21.645
	c-30.904-24.146-50.644-39.806-59.115-47.016c-20.945-17.837-37.474-31.674-49.562-41.58
	c-111.252-91.165-239.286-196.082-330.288-277.641c-36.655-32.854-69.164-61.338-97.289-85.457
	c-29.699-25.359-46.073-39.45-49.056-42.253l0,0l-7.931-7.268l0,0c-3-2.733-6.005-4.716-9.02-5.945
	c-7.243-2.96-43.678-1.777-65.521-1.068c-43.99,1.428-69.554,1.983-76.642,1.756l0,0L993.564,2.18l0,0
	c-1.116-0.044-1.688,1.062-1.748,3.228l0,0l-0.216,10.709l0,0c-0.979,49.171-2.946,148.074-17.987,146.048
	c-3.629-0.488-3.907-14.679-4.061-22.272c-0.309-15.616-2.916-41.36-7.734-77.28c-3.192-23.362-5.203-41.764-6.056-55.136
	c-0.146-2.33-23.748,2.334-35.521,4.266c-16.586,2.721-37.942,7.963-64.236,15.527c-26.193,7.225-43.755,12.801-64.4,19.407
	c-39.298,12.595-76.26,25.684-110.938,38.948c-80.963,31.164-137.581,53.261-169.626,66.283
	c-76.176,30.958-155.766,54.031-228.703,92.444c-27.985,14.738-62.48,35.16-93.327,53.421
	c-37.239,22.045-75.501,48.145-114.671,78.409C51.73,393.651,9.82,425.878,6.769,428.89c-2.383,2.354-4.783,5.007-6.77,7.782
	c1.391,3.066,4.094,4.804,8.176,5.008c139.58,6.967,462.262,14.354,418.729,21.16c-16.861,2.636-45.83,5.687-86.994,9.188
	c-69.199,5.891-138.356,12.286-207.388,19.9c-75.036,8.278-114.963,13.146-119.717,14.395c-3.124,0.845-6.237,2.145-9.234,3.557
	c11.385,9.991,52.794,38.435,62.509,45.046c60.895,41.449,128.623,70.962,196.417,99.229
	c60.971,25.418,170.752,71.185,183.285,75.354c27.468,9.148,54.979,18.391,82.448,27.537c14.452,4.686,28.604,7.916,42.393,9.38
	c15.292,1.479,33.29-1.666,54.073-1.633C766.048,765.024,889.561,768.413,1037.433,770.76L1037.433,770.76"/>
</svg>
