<?xml version="1.0" encoding="utf-8"?>
<!-- Generator: Adobe Illustrator 16.0.0, SVG Export Plug-In . SVG Version: 6.00 Build 0)  -->
<!DOCTYPE svg PUBLIC "-//W3C//DTD SVG 1.1//EN" "http://www.w3.org/Graphics/SVG/1.1/DTD/svg11.dtd">
<svg version="1.1" id="Layer_1" xmlns="http://www.w3.org/2000/svg" xmlns:xlink="http://www.w3.org/1999/xlink" x="0px" y="0px"
	 width="656.461px" height="759.433px" viewBox="0 0 656.461 759.433" enable-background="new 0 0 656.461 759.433"
	 xml:space="preserve">
<path d="M566.938,10.768l-0.281,71.279l-1.69,64.074c-0.04,1.552-0.108,4.105-1.456,4.314c-18.588,2.878-30.642,9.815-36.155,20.953
	c-5.239,10.58-0.071,22.014,5.419,31.558c1.287,2.237,10.317,13.073,14.19,16.832c1.543,1.498,3.168,2.92,4.835,4.279
	c1.017,0.829,3.646,2.104,3.824,3.542c0.597,4.776-5.894,4.494-8.899,4.3c-3.213-0.207-6.427-0.193-9.646-0.214
	c-6.229-0.04-12.46-0.035-18.688-0.068c-1.386-0.008-2.772-0.006-4.158-0.016c-10.616-0.042-22.972,4.98-30.004,12.982
	c-3.489,3.971-5.607,9.044-5.165,14.39c1.359,16.443,21.113,22.745,32.926,30.292l36.415,22.392c0,0,8.771,5.85,8.903,5.938
	c4.525,3.021,15.4,9.833,11.262,16.542c-3.229,5.232-12.312,6.797-17.807,7.818c-7.35,1.366-14.761,1.797-22.214,2.095
	c-8.857,0.325-19.875,0.785-32.911,1.525c-4.395,0.271-15.41,0.66-32.98,1.166c-9.937,0.249-20.955,0.709-32.979,1.382
	c-16.132,0.873-71.075,2.672-164.83,5.398c-7.922,0.186-37.228,0.645-87.918,1.237c-6.337,0.047-17.354,0.364-32.979,0.806
	c-10.585,0.319-25.273,0.477-43.993,0.403l-11.018-0.043l-5.522-4.989l-5.378-5.566c-12.229-12.655-25.002-24.778-37.147-37.515
	C24.892,291.088,11.265,277.713,0,267.733c0.002-0.504,0.003-0.936,0.005-1.44c0.076-0.863,1.814-3.953,5.364-9.194l6.085-9.121
	c3.621-5.458,7.771-16.673,8.288-20.343l1.41-11.083c0.893-6.836,6.186-16.248,16.021-28.088c3.302-3.974,7.374-7.631,9.343-12.514
	c1.604-3.978,0.062-7.779-1.681-11.397c-1.845-3.832-3.156-7.531-4.408-11.598c-1.187-3.85-3.94-9.17-3.926-13.237
	c-0.131-3.169,0.379-4.823,1.459-5.035l10.665-2.045c16.354-3.176,69.617-16.502,159.927-39.979
	c7.136-1.916,17.874-4.394,32.142-7.506c13.692-2.969,35.025-8.285,63.927-15.875c26.6-7.023,43.187-13.87,49.834-20.612
	l15.538-14.627c1.539-1.448,9.018-11.222,13.389-16.939c4.258-5.566,3.15-17.546,12.233-17.088
	c58.812,2.969,88.398,4.525,88.76,4.526c22.235,0.088,44.365,2.474,66.438,5.015l10.363,1.193L566.938,10.768 M596.052,446.482
	c-0.901,2.264-1.491,3.938-1.813,5.088l-1.231,5.301c-1.562,6.447-7.817,12.84-18.777,19.178
	c-3.046,1.762-13.155,5.873-19.828,8.586c-23.992,9.758-68.298,28.025-71.984,29.252c-12.868,4.279-25.815,11.289-39.854,8.938
	c-13.372-2.24-23.349-13.846-33.161-22.254c-10.739-9.205-21.433-18.467-32.163-27.684c-2.461-2.111-4.921-4.23-7.381-6.348
	c-14.128-12.154-35.066-30.168-44.179-34.207c-3.312-1.467-6.585-3.627-10.266-4.229c-4.153-0.68-8.021,0.986-12.021,1.865
	c-10.438,2.287-17.872,15.201-23.725,25.369c-13.818,24.016-26.713,46.068-38.729,66.219c-24.31,40.77-48.183,81.795-71.146,123.334
	c-4.063,7.354-18.104,31.648-27.225,47.436c-3.885,6.725-4.749,13.58-2.496,20.457c1.529,4.73,10.938,15.77,28.125,33.217
	c4.863,4.945,7.404,7.512,7.779,7.738c10.438,7.076,33.535,8.049,51.271,0.131l9.832-4.363
	c25.895-11.492,52.264-21.865,78.915-31.457c9.975-3.588,19.257-8.957,29.427-12.014c2.942-0.885,6.312-1.602,10.008-2.027
	l20.772-1.408l62.64-2.15c5.94-0.396,12.973-0.617,21.028-0.713l63.157-0.66c9.91,0.072,20.367-0.049,31.226-0.305
	c20.922-0.486,41.938,4.061,62.756,0.801c15.038-2.354,24.517-14.146,25.872-17.156c0.734-1.74,3.84-37.254,9.25-106.584
	c3.44-43.197,4.793-68.061,4.191-74.652c-0.873-9.582-2.767-16.436-5.577-20.561c-9.659-14.189-25.598-21.59-40.974-28.219
	L596.052,446.482"/>
</svg>
