<?xml version="1.0" encoding="utf-8"?>
<!-- Generator: Adobe Illustrator 16.0.0, SVG Export Plug-In . SVG Version: 6.00 Build 0)  -->
<!DOCTYPE svg PUBLIC "-//W3C//DTD SVG 1.1//EN" "http://www.w3.org/Graphics/SVG/1.1/DTD/svg11.dtd">
<svg version="1.1" id="Layer_1" xmlns="http://www.w3.org/2000/svg" xmlns:xlink="http://www.w3.org/1999/xlink" x="0px" y="0px"
	 width="1297.361px" height="795.89px" viewBox="0 0 1297.361 795.89" enable-background="new 0 0 1297.361 795.89"
	 xml:space="preserve">
<path d="M1297.108,635.164c-3.086-7.555-8.479-16.879-16.252-27.959c-16.352-23.32-33.115-46.352-49.994-69.291
	c-14.692-19.973-39.662-49.535-74.871-88.475c-30.354-33.579-61.215-67.708-97.178-94.654l-58.272-43.664
	c-7.242-5.099-12.177-9.967-14.88-14.665c-6.561-11.404-10.35-24.921-5.977-37.703c3.393-9.917,5.461-20.24,8.902-30.142
	c3.104-8.924,3.34-15.925,0.547-21.117c-3.25-6.062-15.433-12.88-36.463-20.471c-19.884-7.174-39.609-14.767-59.506-21.903
	c-43.322-15.542-86.802-30.651-130.47-45.195c-44.278-14.747-89.059-27.927-134.083-40.202
	c-72.83-19.854-144.338-44.694-218.16-60.763L326.581,0.704c-5.47-0.668-9.097-0.874-10.796-0.56l-24.773,4.602
	c-3.258,0.604-6.58,2.027-10.113,4.296c-2.038,1.257-9.989,8.518-23.913,21.869c-20.827,19.969-47.45,45.496-63.846,58.432
	c-17.141,13.524-31.897,29.744-48.354,44.058c-18.974,16.503-37.676,33.316-55.83,50.718l-7.771,7.448l-0.344,10.389
	c5.523,2.929,19.024,8.989,40.506,18.183c52.896,22.617,82.606,35.115,89.212,37.55c3.069,9.828,4.979,15.772,5.684,17.985
	l15.062,45.182c7.811,17.72,27.482,83.25,40.091,125.235c10.264,34.182,16.696,55.092,19.378,62.785
	c10.345,30.365,21.799,60.717,30.475,91.617c3.54,12.604,3.701,25.311,3.294,38.287l-1.691,11.727
	c-3.422,23.682-29.366,32.094-50.428,26.074c-3.406-0.979-6.849-2.672-10.396-5.154c-10.133-7.09-16.073-18.205-20.924-29.338
	c-1.073-2.465-2.837-6.217-5.199-11.119c-1.821-0.543-9.435,1.689-22.924,6.57c-40.997,14.828-83.271,25.887-124.159,41.025
	c-20.458,7.578-41.689,12.854-62.234,20.176c-12.463,4.443-19.146,7.059-20.063,7.77c-2.604,2.182-4.479,4.846-5.679,8.215
	c-0.695,1.771-0.929,5.293-0.815,10.73l0.813,43.514c0.122,6.598-1.048,13.223-0.123,19.793l1.005,7.129l17.33-0.836
	c36.135-1.75,73.75-7.539,109.589-12.115c329.562-42.078,665.187-82.008,997.666-123.082c25.812-3.189,43.969-4.578,54.184-5.963
	c-1.174-5.127-2.852-8.414-3.961-10.846l-5.041-9.824c-4.463-9.572-5.709-20.881-2.434-31.029
	c3.104-9.633,6.108-15.375,21.553-22.85c14.578-7.057,31.041-8.006,43.844-0.184c12.041,7.354,18.572,19.846,17.593,38.213
	c-0.84,15.771-11.488,26.598-8.994,26.367c5.225-0.488,12.451-0.775,23.031-2.154c7.655-0.998,15.354-1.605,23.062-2.012
	C1292.331,639.402,1298.702,639.064,1297.108,635.164z"/>
</svg>
