<?xml version="1.0" encoding="utf-8"?>
<!-- Generator: Adobe Illustrator 16.0.0, SVG Export Plug-In . SVG Version: 6.00 Build 0)  -->
<!DOCTYPE svg PUBLIC "-//W3C//DTD SVG 1.1//EN" "http://www.w3.org/Graphics/SVG/1.1/DTD/svg11.dtd">
<svg version="1.1" id="Layer_1" xmlns="http://www.w3.org/2000/svg" xmlns:xlink="http://www.w3.org/1999/xlink" x="0px" y="0px"
	 width="1061.365px" height="403.425px" viewBox="0 0 1061.365 403.425" enable-background="new 0 0 1061.365 403.425"
	 xml:space="preserve">
<path fill="none" stroke="#000000" stroke-linejoin="round" stroke-miterlimit="10" d="M62.362,37.498v4.319l0,0
	c0,0.576,2.376,3.24,7.056,7.849c5.76,5.688,14.544,11.664,26.424,17.928c38.236,20.161,78.444,36.606,115.416,59.112
	c7.833,4.769,108.168,56.92,162.36,85.176c73.087,38.107,145.155,78.145,218.304,116.137
	c44.263,22.986,95.353,49.521,131.979,70.486c10.438,5.979,31.176,4.896,31.822,4.752c3.312-0.721,6.624-2.375,9.862-4.752
	c6.623-4.822,24.336-27.217,53.354-67.104c26.625-36.604,60.409-79.155,91.366-118.149c7.485-9.435,11.881-14.979,13.317-16.706
	c41.104-49.32,102.445-122.937,127.438-144.359c3.526-3.023,12.168-16.416,9.938-26.208c-0.646-2.88-2.088-5.328-4.393-7.488
	c-1.871-1.728-3.022-2.593-3.526-2.593l0,0h-10.801l0,0c-31.178,0-59.978,0.359-86.398,1.151c-8.93,0.217-34.129,0.576-75.602,0.864
	c-86.414,0.601-180.122,1.251-259.199,4.607c-15.265,0.647-72.863,1.151-172.801,1.656c-71.393,0.361-248.16,0.361-372.24,0.361
	c-4.32,0-9.864,3.312-11.808,6.191C63.01,32.602,62.362,34.905,62.362,37.498L62.362,37.498"/>
</svg>
