<?xml version="1.0" encoding="utf-8"?>
<!-- Generator: Adobe Illustrator 21.0.2, SVG Export Plug-In . SVG Version: 6.00 Build 0)  -->
<svg version="1.1" id="Layer_1" xmlns="http://www.w3.org/2000/svg" xmlns:xlink="http://www.w3.org/1999/xlink" x="0px" y="0px"
	 width="1208.126px" height="711.13px" viewBox="0 0 1208.126 711.13" enable-background="new 0 0 1208.126 711.13"
	 xml:space="preserve">
<path fill-rule="evenodd" clip-rule="evenodd" fill="none" stroke="#000000" stroke-miterlimit="10" d="M854.521,516.898
	l-3.615-3.209c-0.549-0.498-3.596-4.238-9.066-11.207c-8.807-11.371-26.691-31.068-53.646-59.09
	c-16.762-17.516-37.482-37.725-62.301-60.961c-39.07-36.615-54.004-50.893-76.928-76.867c-17.977-20.236-38.107-47.407-60.217-81.62
	c-6.297-9.454-10.408-15.292-12.696-17.526c-2.482-0.135-4.753-0.221-7.252-0.286l-7.129-0.184l-7.128-0.184
	c-2.203-0.07-6.99-0.151-14.333-0.681l-7.133-0.481l-7.199-0.2l-7.181-0.27l-7.199-0.201l-7.2-0.2
	c-3.965-0.112-6.308-0.215-7.095-0.324l-7.257-0.584l-7.075-0.098l-7.095-0.324c-4.77-0.15-7.129-0.184-7.215-0.129l-7.187-0.567
	c-6.189-0.41-10.911,0.19-14.099,1.811l-6.393,3.315c-1.436,0.774-3.69,1.876-6.532,3.283l-6.569,3.125
	c-1.265,0.668-0.575,3.416,1.949,8.44l3.695,7.294c0.812,1.594,1.778,4.111,2.741,7.588l-76.528,40.928
	c-1.941,1.026-9.411-5.299-22.444-18.838c-5.88-0.779-11.16,2.203-19.951,7.25c-38.756,21.939-71.632,42.439-98.451,61.691
	c-53.537,38.083-103.202,72.56-149.412,103.628c-40.991,27.404-67.284,45.67-69.29,73.297c-1.039,14.914,7.17,28.215,24.92,39.6
	c8.487,5.453,58.988,33.646,69.72,38.662c13.73,6.75,33.536,15.658,59.268,27.059c6.118,2.609,23.693,10.627,52.566,24.088
	c0.437,0.027,18.163,7.711,53.364,22.576c65.515,27.85,132.683,45.435,201.242,52.629c32.608,3.465,66.053,2.394,100.271-2.934
	c65.956-10.492,100.575-24.523,163.69-53.275c3.227-1.467,22.565-11.15,58.346-28.902c17.139-8.498,27.846-14.135,31.939-16.801
	c16.285-10.545,27.262-19.889,32.879-28.117c6.768-10.322,11.041-21.672,12.328-34.164c0.477-5.211,0.279-10.064-0.84-14.463
	C859.054,527.566,854.821,517.189,854.521,516.898z M372.09,520.627c-6.429-3.498-16.783-9.83-31.526-18.889
	c-10.195-6.371-16.713-9.812-19.252-10.33c-2.979-0.549-5.304-0.721-7.269-0.217c-9.606,2.195-47.435,38.545-48.456,47.99
	c-0.231,1.943,1.272,6.584,4.554,14.076c1.939,4.373,2.936,6.748,3.114,6.936c2.173,2.727,28.082,21.928,58.976,38.449l6.958,3.768
	c4.932,2.627,8.197,9.23,8.182,11.52c0.012,1.852-1.94,5.461-3.961,6.838c-1.347,1.018-3.685,1.211-7.132,0.777
	c-9.429-1.092-67.871-32.316-93.209-48.574c-20.31-13.094-30.898-20-31.448-20.498c-5.995-4.727-7.456-9.871-4.33-15.354
	c0.813-1.584,8.294-8.932,22.162-22.109c0.963-0.961,2.752-2.613,5.316-5.047c26.142-25.545,60.837-55.75,103.985-90.49
	c56.701-45.623,112.683-83.729,167.945-114.313c18.491-10.178,32.011-14.566,40.539-13.094
	c15.077,2.555,54.831,31.493,61.957,37.073c19.458,15.482,37.731,33.496,54.452,53.734c4.307,5.293,7.236,9.227,8.607,11.914
	c2.144,4.203,5.404,11.23,2.523,15.816c-3.744,5.965-11.896,1.416-16.08-1.457l-6.326-3.619
	c-6.008-3.396-15.938-10.592-29.717-21.568c-1.277-1.186-8.914-7.105-22.719-18.605c-28.203-22.993-46.469-35.016-54.884-36.018
	c-2.099-0.193-4.454,0.071-7.132,0.777c-1.549,0.304-45.538,21.54-50.827,32.802c-2.989,6.473-1.598,9.385,1.982,13.695
	c0.549,0.498,10.524,8.443,30.326,23.707c22.315,17.182,42.118,35.922,59.416,56.223c11.587,13.717,17.19,24.562,16.481,32.676
	c-7.623,9.535-28.56,6.426-62.71-9.449c-11.683-5.387-26.277-13.818-44.085-25.588c-19.128-12.445-37.801-23.678-56.353-33.844
	c-9.442-5.16-16.048-7.586-20.119-7.576c-9.307-0.027-21.612,7.084-37.068,21.371c-3.235,3.088-4.94,4.688-5.109,5.094
	c-1.622,3.467-0.262,15.391,11.498,26.783c0.743,0.615,16.595,13.482,47.606,38.385c30.001,24.148,46.785,40.633,50.364,49.379
	c-2.236,3.248-6.936,5.33-14.052,6.039c-15.832,1.631-40.623-7.777-74.181-28.096C384.358,527.629,378.085,524.094,372.09,520.627z
	 M821.495,584.484c-23.533,21.348-38.752,29.85-67.066,42.836c-50.959,23.232-86.885,37.477-107.826,42.943
	c-25.518,6.693-51.367,11.973-77.522,15.705c-8.558,1.185-22.985,2.182-43.355,2.977c-15.672,0.633-37.069-1.772-64.407-7.555
	c-22.426-4.641-49.128-19.814-58.784-27.537c-9.184-7.539-11.879-13.416-7.881-17.883l4.891-5.438l4.751-5.471
	c2.506-2.818,14.801-10.523,36.853-22.975c35.418-19.982,60.767-33.885,76.289-41.797c12.319-6.221,29.465-15.381,51.268-27.078
	c8.205-4.445,27.718-14.238,58.177-29.459c19.723-9.744,78.912-35.938,99.762-42.904c15.947-5.299,23.051-4.68,34.197,2.357
	c7.568,4.648,16.928,12.377,28.129,22.68l5.334,5.014c12.641,11.746,23.377,21.496,32.186,29.391
	c7.791,6.844,12.43,12.953,13.959,18.117C843.224,547.113,840.058,567.668,821.495,584.484z M1203.905,449.184
	c-0.637-0.368-1.227-0.841-1.732-1.429c-0.791-0.917-1.285-1.986-1.504-3.094c-0.193-0.246-0.371-0.482-0.572-0.734
	c-6.375-8.021-10.715-13.9-13.129-17.54c-2.469-3.591-3.801-5.495-4.078-6.019c-4.115-5.307-9.531-10.117-16.363-14.135
	c-10.393-6.134-23.484-12.354-39.375-18.666c-8.992-3.617-17.984-7.233-26.816-10.994c-11.42-5.015-19.746-9.719-24.807-14.461
	c-6.82-6.26-15.502-18.017-26.152-35.176c-33.277-53.48-50.053-80.533-50.246-80.746c-21.422-32.947-38.268-59.646-51.156-79.927
	c-15.846-25.273-26.121-41.8-31.07-49.749c-7.746-12.118-13.533-23.677-17.363-34.576c-2.496-7.06-6.658-25.52-7.125-31.406
	l-0.668-7.935l-0.51-0.995l-0.607,0.938l-0.367-0.834l-0.408-9.044l-0.316-8.835c-0.715-18.082-7.113-23.554-51.084-23.031
	c-9.482,0.028-16.771,0.015-21.812-0.087c-41.527-1.393-77.908-0.739-109.397,1.997c-32.463,2.84-51.773,4.664-58.039,5.57
	c-14.58,2.014-23.473,5.488-26.568,10.224c-0.774,1.185-1.775,5.875-2.969,14.328c-2.019,13.661-4.56,25.563-7.923,35.588
	c-5.768,17.244-13.917,32.174-24.339,44.696c-0.166,0.247-5.374,5.438-15.721,15.465c-6.009,5.914-9.636,12.102-10.576,18.58
	c-0.596,4.711-0.059,14.219,0.328,14.647l298.671,338.85l1.605,3.496c-0.059,0.15,0.084,1.381,0.371,3.741
	c0.266,3.836,0.703,6.254,1.145,7.602c2.932,1.524,5.029,2.346,6.695,2.685l7.178,1.18c3.603,0.336,6.017,0.969,6.967,1.373
	c2.49,1.147,6.156,4.238,11.037,9.531c12.715,13.644,19.332,20.861,19.977,21.252c1.531,0.944,3.732,1.77,6.705,2.48
	c0.207-0.092,2.691,0.188,7.15,0.72c16.637,1.659,33.564,2.568,50.826,2.985c19.047,0.354,38.598,0.835,58.498,1.488
	c4.527,0.179,6.967,0.302,7.271,0.317c32.803,0.542,54.596,1.035,65.578,1.592c8.451,0.225,15.535-0.741,21.274-3.306
	c6.144-2.543,13.31-8.144,21.283-16.609c5.914-6.021,10.033-9.839,12.871-11.531c1.004-0.713,6.559-1.655,16.781-3.227
	c4.264-0.65,6.635-1.142,6.998-1.276c2.18-0.938,5.41-3.464,7.971-6.463c0.305-1.361,1.025-2.641,2.162-3.622
	c0.209-0.18,0.428-0.34,0.65-0.489c2.982-6.58,6.166-30.142,6.889-44.401C1208.446,460.428,1207.902,455.494,1203.905,449.184z"/>
</svg>
