<?xml version="1.0" encoding="utf-8"?>
<!-- Generator: Adobe Illustrator 21.0.2, SVG Export Plug-In . SVG Version: 6.00 Build 0)  -->
<svg version="1.1" id="Layer_1" xmlns="http://www.w3.org/2000/svg" xmlns:xlink="http://www.w3.org/1999/xlink" x="0px" y="0px"
	 width="1208.126px" height="711.13px" viewBox="0 0 1208.126 711.13" enable-background="new 0 0 1208.126 711.13"
	 xml:space="preserve">
<path fill="none" stroke="#000000" stroke-miterlimit="10" d="M860.054,531.632c0.877,4.088,1.005,8.548,0.569,13.306
	c-1.287,12.492-5.56,23.842-12.328,34.164c-5.617,8.228-16.594,17.572-32.879,28.117c-4.093,2.666-14.8,8.303-31.939,16.801
	c-35.781,17.752-55.119,27.435-58.346,28.902c-63.115,28.752-97.734,42.783-163.69,53.275c-34.218,5.328-67.663,6.399-100.271,2.934
	c-68.559-7.194-135.727-24.779-201.242-52.629c-35.201-14.865-52.927-22.549-53.364-22.576
	c-28.873-13.461-46.448-21.479-52.566-24.088c-25.732-11.401-45.538-20.309-59.268-27.059c-10.732-5.016-61.233-33.209-69.72-38.662
	c-17.75-11.385-25.959-24.686-24.92-39.6c2.006-27.627,28.299-45.893,69.29-73.297c38.832-26.107,80.103-54.622,124.061-85.661
	c12.024-8.474,8.725-32.559,3.124-47.516l-0.003,0.001c-2.661-4.591-4.184-9.924-4.184-15.612c0-17.221,13.96-31.181,31.181-31.181
	c13.065,0,24.253,8.035,28.892,19.433l-0.001,0.002c0,0,15.023,23.654,37.536,10.984c8.735-5.173,17.821-10.429,27.256-15.769
	c8.791-5.047,14.071-8.029,19.951-7.25c13.033,13.539,20.503,19.864,22.444,18.838l76.528-40.928
	c-0.963-3.477-1.929-5.994-2.741-7.588l-3.695-7.294c-2.524-5.024-3.214-7.772-1.949-8.44l6.569-3.125
	c2.842-1.407,5.096-2.509,6.532-3.283l6.393-3.315c3.188-1.621,7.91-2.221,14.099-1.811l7.187,0.567
	c0.086-0.055,2.445-0.021,7.215,0.129l7.095,0.324l7.075,0.098l7.257,0.584c0.787,0.109,3.13,0.212,7.095,0.324l7.2,0.2l7.199,0.201
	l7.181,0.27l7.199,0.2l7.133,0.481c5.319,0.384,9.296,0.532,11.922,0.611c17.79,1.007,18.254-31.575,11.97-40.871l-2.662-3.02
	c-0.387-0.428-0.924-9.936-0.328-14.647c0.94-6.478,4.567-12.666,10.576-18.58c10.347-10.027,15.555-15.218,15.721-15.465
	c10.422-12.522,18.571-27.452,24.339-44.696c3.363-10.025,5.904-21.927,7.923-35.588c1.194-8.453,2.195-13.143,2.969-14.328
	c3.095-4.736,11.988-8.21,26.568-10.224c6.266-0.906,25.576-2.73,58.039-5.57c31.489-2.736,67.87-3.39,109.397-1.997
	c5.041,0.102,12.33,0.115,21.812,0.087c43.971-0.523,50.369,4.949,51.084,23.031l0.316,8.835l0.408,9.044l0.367,0.834l0.607-0.938
	l0.51,0.995l0.668,7.935c0.467,5.886,4.629,24.346,7.125,31.406c3.83,10.899,9.617,22.458,17.363,34.576
	c4.949,7.949,15.224,24.476,31.07,49.749c12.888,20.281,29.734,46.98,51.156,79.927c0.193,0.213,16.969,27.266,50.246,80.746
	c10.65,17.159,19.332,28.916,26.152,35.176c5.061,4.742,13.387,9.446,24.807,14.461c8.832,3.761,17.824,7.377,26.816,10.994
	c15.891,6.312,28.982,12.532,39.375,18.666c6.832,4.018,12.248,8.828,16.363,14.135c0.277,0.524,1.609,2.428,4.078,6.019
	c2.414,3.64,6.754,9.519,13.129,17.54c0.201,0.252,0.379,0.488,0.572,0.734c0.219,1.108,0.713,2.177,1.504,3.094
	c0.505,0.588,1.095,1.061,1.732,1.429c3.997,6.31,4.541,11.244,4.089,20.988c-0.723,14.259-3.907,37.821-6.889,44.401
	c-0.222,0.149-0.441,0.309-0.65,0.489c-1.137,0.981-1.857,2.261-2.162,3.622c-2.561,2.999-5.791,5.525-7.971,6.463
	c-0.363,0.134-2.734,0.626-6.998,1.276c-10.222,1.572-15.777,2.514-16.781,3.227c-2.838,1.692-6.957,5.51-12.871,11.531
	c-7.973,8.465-15.139,14.066-21.283,16.609c-5.739,2.565-12.823,3.531-21.274,3.306c-10.982-0.557-32.775-1.05-65.578-1.592
	c-0.304-0.015-2.744-0.138-7.271-0.317c-19.9-0.653-39.451-1.134-58.498-1.488c-17.262-0.417-34.189-1.326-50.826-2.985
	c-4.459-0.532-6.943-0.812-7.15-0.72c-2.973-0.71-5.174-1.536-6.705-2.48c-0.645-0.391-7.262-7.608-19.977-21.252
	c-4.881-5.293-8.547-8.384-11.037-9.531c-0.95-0.404-3.364-1.037-6.967-1.373c0,0-2.118-0.348-2.118-0.348
	c-4.751,0-15.531,1.434-14.936,12.628L860.054,531.632z"/>
</svg>
