<?xml version="1.0" encoding="utf-8"?>
<!-- Generator: Adobe Illustrator 16.0.0, SVG Export Plug-In . SVG Version: 6.00 Build 0)  -->
<!DOCTYPE svg PUBLIC "-//W3C//DTD SVG 1.1//EN" "http://www.w3.org/Graphics/SVG/1.1/DTD/svg11.dtd">
<svg version="1.1" id="Layer_1" xmlns="http://www.w3.org/2000/svg" xmlns:xlink="http://www.w3.org/1999/xlink" x="0px" y="0px"
	 width="1816.014px" height="1129.789px" viewBox="0 0 1816.014 1129.789" enable-background="new 0 0 1816.014 1129.789"
	 xml:space="preserve">
<path fill="none" stroke="#020203" stroke-linejoin="round" stroke-miterlimit="10" d="M284.453,219.493
	c0.483,4.974-0.036,14.841-7.142,23.998c-1.216,1.446-4.737,4.815-10.634,9.679c-7.859,6.656-12.691,11.778-14.743,15.628
	c-1.534,2.595-2.477,4.799-2.853,6.469c-0.797,3.931,0.629,13.256,4.54,28.222c5.795,22.68,10.02,40.806,10.717,77.854
	c-0.05,4.899-0.141,19.081-0.701,42.612c-0.727,41.158-2.999,79.218-6.875,114.262c-6.284,57.137-10.93,97.567-14.045,121.53l0,0
	l-0.945,6.951l0,0c-0.08,1.688-1.163,11.293-3.048,28.697c-0.174,1.561-3.684,30.116-11.036,85.684l0,0l-0.968,7.246l-1.242,6.926
	l-0.78,7.068l0,0c-0.351,2.25-0.725,4.795-0.922,7.092c-0.315,2.463-0.629,4.926-1.039,7.258c-0.327,2.396-0.594,4.701-0.839,7.15
	l0,0l-0.946,6.951l-0.661,7.34l-0.85,7.08l0,0c-2.709,20.964-4.573,40.644-5.59,59.052"/>
<path fill="none" stroke="#020203" stroke-linejoin="round" stroke-miterlimit="10" d="M1639.871,1107.977L1639.871,1107.977
	c-4.229-4.363-6.66-7.759-7.375-10.099l0,0l0.43-7.381l0,0c0.068-1.303,0.145-6.211,0.359-14.736
	c0.081-5.341,0.409-12.302,0.967-20.882"/>
<path fill="none" stroke="#020203" stroke-linejoin="round" stroke-miterlimit="10" d="M842.102,662.696
	c0.408,0.414,0.807,0.928,1.143,1.484c0.948,1.354,4.747,22.659,11.681,64.055c0.672,3.84,5.399,34.77,14.229,92.846
	c9.512,62.996,14.731,110.682,15.743,142.916l0,0l0.218,7.271l0,0c0.328,9.901,1.011,29.147,2.14,57.395
	c0.22,6.09,0.668,32.496,1.374,79.021c0.226,12.864-0.411,19.973-2.024,21.299l0,0"/>
<path fill="none" stroke="#020203" stroke-linejoin="round" stroke-miterlimit="10" d="M700.612,916.829
	c-0.062-3.039,0.188-13.021,0.97-30.121c0.837-18.688-0.438-30.77-3.758-36.297c-1.272-2.018-9.945-10.975-25.813-26.846
	c-11.256-11.15-31.004-33.396-59.417-66.951c-6.354-7.469-9.544-11.281-9.588-11.338l0,0l-5.025-4.314l0,0
	c-0.131-0.172-3.021-3.94-8.854-11.444l0,0l-4.438-5.677l-4.435-5.672l0,0c-28.806-36.797-50.505-65.611-65.286-86.578
	c-39.553-56.045-92.137-133.849-157.596-233.44c-28.688-43.51-53.116-79.21-73.483-107.233c-5.562-7.621-8.323-11.583-8.283-11.886
	c0.054-0.404,0.195-0.693,0.481-0.911l0,0l27.932-26.645"/>
<path fill="none" stroke="#020203" stroke-linejoin="round" stroke-miterlimit="10" d="M915.067,1119.564
	c-0.347-6.457-0.315-16.091,0.019-29.053l0,0l0.131-7.293l0,0c0.697-24.137,1.346-48.221,1.938-72.452l0,0l0.288-7.146l0,0
	c0.679-29.131,2.593-55.666,5.444-79.392c9.134-74.562,16.363-124.526,21.654-149.637c1.506-7.305,5.75-28.491,12.535-63.453
	c6.26-31.93,9.756-48.239,10.729-49.2"/>
<path fill="none" stroke="#020203" stroke-linejoin="round" stroke-miterlimit="10" d="M1105.894,925.574
	c1.027-7.893,1.466-18.197,0.856-32.197c-0.545-12.102-0.758-19.127-0.82-21.623c0.057-8.919,1.63-15.871,4.984-20.607
	c0.764-1.153,4.075-4.666,9.975-10.487c3.312-3.41,4.967-5.117,5.066-5.222c14.73-14.627,32.5-34.285,53.404-58.975
	c37.457-44.187,57.685-68.033,60.771-71.941c38.92-47.926,64.691-79.969,77.068-95.969c11.311-14.724,26.855-36.218,46.525-64.57
	c68.449-98.386,117.75-167.057,147.855-205.868c12.328-15.945,19.594-25.496,22.053-28.614
	c9.746-13.332,15.574-20.984,17.308-23.202l0,0l-30.111-27.036l0,0c-0.373-0.34-1.189-0.406-2.357-0.302"/>
<path fill="none" stroke="#000001" stroke-linejoin="round" stroke-miterlimit="10" d="M1638.13,925.573
	c-3.796-37.321-7.145-65.226-10.041-83.623c-2.555-16.438-8.711-52.354-18.545-107.89c-2.526-14.709-4.963-29.137-7.164-43.215
	c-3.244-20.799-5.604-35.151-6.948-43.299l-1.282-7.137c-16.287-95.255-17.49-107.084-22.568-159.003
	c-0.795-7.382-1.229-12.261-1.578-14.548c-1.584-12.168-2.812-36.767-3.565-74.007c-0.422-20.604,1.013-42.829,4.369-66.612
	c2.604-18.187,3.901-27.998,3.965-29.444c0.479-16.328-5.457-31.414-17.815-45.327c-2.16-2.396-5.539-5.876-10.207-10.433
	c-7.412-7.227-10.435-10.711-8.994-17.572"/>
</svg>
