<?xml version="1.0" encoding="utf-8"?>
<!-- Generator: Adobe Illustrator 16.0.0, SVG Export Plug-In . SVG Version: 6.00 Build 0)  -->
<!DOCTYPE svg PUBLIC "-//W3C//DTD SVG 1.1//EN" "http://www.w3.org/Graphics/SVG/1.1/DTD/svg11.dtd">
<svg version="1.1" id="Layer_1" xmlns="http://www.w3.org/2000/svg" xmlns:xlink="http://www.w3.org/1999/xlink" x="0px" y="0px"
	 width="727px" height="429.814px" viewBox="0 0 727 429.814" enable-background="new 0 0 727 429.814" xml:space="preserve">
<path fill="none" stroke="#000000" stroke-linejoin="round" stroke-miterlimit="10" d="M663.52,63.358
	c-1.961-3.003-27.66-11.186-33.52-12.745c-29.375-7.585-57.424-13.094-84.012-16.443c-30.889-3.821-52.146-6.094-63.834-7.184
	l-7.24-0.675c-63.852-5.451-111.492-8.666-142.845-9.783c-52.197-1.688-99.887-4.402-143.213-8.154
	c-12.051-1.052-21.455-1.785-28.573-2.232c-10.063-0.649-19.461-1.455-28.494-2.297C83.751-0.563,45.489-1.241,17.19,2.122
	C10.604,2.954,6.215,4.278,4.007,6.243C1.081,8.935-0.287,13.506,0.05,19.976c-0.081,0.859,11.226,79.65,20.702,110.617
	c3.927,12.948,16.17,34.41,36.809,64.321c23.959,34.631,40.245,58.495,48.981,71.819c4.377,6.556,9.782,14.509,16.285,23.863
	c18.367,26.37,27.994,40.215,28.884,41.524c30.713,45.168,47.377,68.851,49.999,70.976c2.772,2.065,18.56,8.021,47.303,17.721
	c25.304,8.579,32.523,10.267,35.969,8.198c2.919-1.822,5.118-8.345,6.689-19.768c3.005-22.142,5.177-36.104,6.611-42.19
	c9.771-41.974,17.349-56.521,57.146-87.811c31.752-24.878,61.195-45.922,88.117-63.227c36.998-23.736,63.133-41.11,78.311-51.846
	c58.256-41.568,102.746-70.464,133.115-86.722l6.312-3.316C664.706,72.364,665.614,66.519,663.52,63.358z"/>
</svg>
