<?xml version="1.0" encoding="utf-8"?>
<!-- Generator: Adobe Illustrator 16.0.0, SVG Export Plug-In . SVG Version: 6.00 Build 0)  -->
<!DOCTYPE svg PUBLIC "-//W3C//DTD SVG 1.1//EN" "http://www.w3.org/Graphics/SVG/1.1/DTD/svg11.dtd">
<svg version="1.1" id="Layer_1" xmlns="http://www.w3.org/2000/svg" xmlns:xlink="http://www.w3.org/1999/xlink" x="0px" y="0px"
	 width="727px" height="429.814px" viewBox="0 0 727 429.814" enable-background="new 0 0 727 429.814" xml:space="preserve">
<path fill="none" stroke="#000000" stroke-linejoin="round" stroke-miterlimit="10" d="M666.569,78.12
	c-1.88-1.834-4.396-1.701-6.767-1.143c-2.771,0.652-5.485,1.712-8.191,2.587c-0.433,0.14-0.863,0.279-1.295,0.418
	c-30.19,16.645-73.113,44.699-128.461,84.192c-15.179,10.735-41.312,28.109-78.312,51.847
	c-26.922,17.305-56.365,38.349-88.117,63.227c-39.797,31.289-47.375,45.837-57.146,87.811c-1.434,6.086-3.606,20.049-6.611,42.19
	c-1.571,11.423-3.77,17.945-6.689,19.768c-3.446,2.068-10.665,0.383-35.969-8.196c-28.743-9.7-44.531-15.656-47.303-17.723
	c-2.622-2.125-19.286-25.808-49.999-70.976c-0.89-1.31-10.517-15.154-28.884-41.524c-6.503-9.354-11.908-17.308-16.285-23.863
	c-8.736-13.323-25.022-37.188-48.981-71.818c-20.639-29.911-32.882-51.373-36.809-64.321C11.276,99.626-0.031,20.835,0.05,19.976
	c-0.337-6.47,1.031-11.041,3.957-13.733c2.208-1.965,6.597-3.289,13.183-4.121c28.299-3.363,66.561-2.685,114.599,1.723
	c9.033,0.842,18.431,1.648,28.494,2.297c7.118,0.447,16.522,1.18,28.573,2.232c43.326,3.752,91.016,6.466,143.213,8.154
	c31.353,1.117,78.993,4.332,142.845,9.783l7.24,0.675c11.688,1.09,32.944,3.363,63.834,7.184
	c26.588,3.349,54.637,8.858,84.012,16.443c3.317,0.883,12.994,3.888,21.122,6.875l0.002,0.001c0.579,0.003,1.158-0.001,1.737-0.002
	c2.5-0.005,5,0.032,7.499,0.012c2.327-0.019,4.888-0.304,6.604-2.052c4.662-11.348,15.825-19.338,28.854-19.338
	c17.221,0,31.181,13.96,31.181,31.181c0,17.221-13.96,31.181-31.181,31.181c-13.412,0-24.847-8.468-29.248-20.348L666.569,78.12z"/>
</svg>
