<?xml version="1.0" encoding="utf-8"?>
<!-- Generator: Adobe Illustrator 16.0.0, SVG Export Plug-In . SVG Version: 6.00 Build 0)  -->
<!DOCTYPE svg PUBLIC "-//W3C//DTD SVG 1.1//EN" "http://www.w3.org/Graphics/SVG/1.1/DTD/svg11.dtd">
<svg version="1.1" id="Layer_1" xmlns="http://www.w3.org/2000/svg" xmlns:xlink="http://www.w3.org/1999/xlink" x="0px" y="0px"
	 width="721.93px" height="445.846px" viewBox="0 0 721.93 445.846" enable-background="new 0 0 721.93 445.846"
	 xml:space="preserve">
<path fill="none" stroke="#000000" stroke-linejoin="round" stroke-miterlimit="10" d="M76.497,123.194
	c31.437,14.292,76.628,39.37,135.373,75.126c15.764,9.7,43.122,25.016,81.797,46.053c28.153,15.297,58.898,34.207,92.445,56.636
	c41.98,28.34,50.557,42.276,63.371,83.483c1.838,5.876,4.971,19.792,9.607,41.724c2.312,11.188,4.947,17.692,8.078,19.069
	c3.467,1.771,10.688-0.366,35.285-10.752c28.008-11.648,43.271-18.779,45.768-21.025c2.553-2.396,17.455-27.022,44.896-74.27
	c0.848-1.478,9.381-16.019,25.764-43.57c5.896-9.812,10.58-18.187,14.49-25.088c7.832-13.733,22.312-38.896,43.645-75.068
	c18.479-31.348,29.168-53.604,32.127-66.849c7.212-31.639,12.812-111,12.785-111.867c-0.237-6.423-1.913-10.868-5.096-13.326
	c-2.232-1.771-6.787-2.911-13.34-3.167c-28.576-1.405-66.732,2.069-114.223,10.103c-8.979,1.329-18.299,2.843-28.223,4.136
	c-7.131,1.043-16.457,2.485-28.346,4.368c-42.98,6.86-90.398,13-142.25,18.421c-31.066,3.378-78.496,10.027-141.908,20.121
	l-6.968,1.168c-11.743,1.867-32.812,5.827-63.285,11.819c-26.211,5.207-53.824,12.752-82.634,22.465
	c-3.048,1.048-11.582,4.38-19.158,7.745c-0.373,0.092-0.746,0.184-1.119,0.275c-4.684,1.147-11.463,4.09-15.07-0.78
	c-4.485-11.716-15.836-20.036-29.13-20.036C13.96,80.107,0,94.067,0,111.288c0,17.221,13.96,31.181,31.181,31.181
	c13.221,0,24.519-8.228,29.054-19.842c3.616-5.305,11.765-0.606,16.265,0.569L76.497,123.194z"/>
</svg>
