<?xml version="1.0" encoding="utf-8"?>
<!-- Generator: Adobe Illustrator 21.0.2, SVG Export Plug-In . SVG Version: 6.00 Build 0)  -->
<svg version="1.1" id="Layer_1" xmlns="http://www.w3.org/2000/svg" xmlns:xlink="http://www.w3.org/1999/xlink" x="0px" y="0px"
	 width="481.068px" height="791.517px" viewBox="0 0 481.068 791.517" enable-background="new 0 0 481.068 791.517"
	 xml:space="preserve">
<path fill="none" stroke="#000000" stroke-miterlimit="10" d="M315.752,769.28c-5.29-12.972-16.763-24.221-45.99-22.731
	c-15.25,2.097-43.653,3.45-79.647-6.483c-24.751-6.83-50.126-13.182-74.089-22.551c-21.721-8.491-45.422-18.729-52.199-43.124
	c-1.451-5.224-2.051-10.695-2.928-16.038L47.983,576.26l-13.361-85.037L17.526,310.457L8.239,195.824c0,0-7.296-87.63-7.33-88.036
	C0.254,99.931-0.83,91.884,1.057,84.119c2.098-8.632,9.236-13.875,17.68-17.555c8.787-3.829,18.988-5.964,26.396-8.463
	c16.693-5.63,33.409-11.196,50.089-16.865c3.971-1.35,7.947-2.685,11.922-4.021l30.354-9.752l32.894-9.809l25.804-6.943
	l21.487-5.168l16.549-3.518l7.828-1.18L251.025,0l8.405,0.135l12.021,1.66l12.251,2.889l90.535,25.768l43.096,13.826
	c0,0,37.244,13.242,37.44,13.312c15.678,5.574,26.775,13.285,26.278,31.297c-0.728,26.386-1.65,52.644-3.203,78.994l-4.301,58.373
	l-3.281,34.197l-3.699,40.34l-3.94,38.988l-4.82,38.731l-8.055,49.803l-15.385,91.658c0,0-11.484,63.548-11.496,63.615
	c-6.186,34.232-8.704,73.826-24.295,105.391c-4.225,8.554-9.557,14.722-15.961,19.515l-0.002-0.002
	c-14.961,13.885-7.095,42.965-7.095,42.965l0.004,0c0.835,2.815,1.283,5.796,1.283,8.882c0,17.221-13.96,31.181-31.181,31.181
	c-14.112,0-26.034-9.374-29.879-22.236L315.752,769.28z"/>
</svg>
