<?xml version="1.0" encoding="utf-8"?>
<!-- Generator: Adobe Illustrator 16.0.0, SVG Export Plug-In . SVG Version: 6.00 Build 0)  -->
<!DOCTYPE svg PUBLIC "-//W3C//DTD SVG 1.1//EN" "http://www.w3.org/Graphics/SVG/1.1/DTD/svg11.dtd">
<svg version="1.1" id="Layer_1" xmlns="http://www.w3.org/2000/svg" xmlns:xlink="http://www.w3.org/1999/xlink" x="0px" y="0px"
	 width="1041px" height="632.465px" viewBox="0 0 1041 632.465" enable-background="new 0 0 1041 632.465" xml:space="preserve">
<path fill="none" stroke="#000000" stroke-linejoin="round" stroke-miterlimit="10" d="M973.615,587.826
	c-2.005-4.499-4.188-9.283-5.687-13.281c-0.938-2.498-9.586-24.121-14.484-36.129l-6.211-15.213
	c-5.916-14.385-11.936-29.771-18.084-46.01c-7.551-19.916-15.992-39.482-23.355-59.477c-0.43-1.162-2.633-7.289-6.506-18.502
	c-11.238-32.543-27.029-63.338-38.158-95.92c-1.082-3.164-2.156-6.331-3.273-9.482c-2.996-8.426-6.762-17.721-15.217-22.004
	c-3.225-1.633-6.607-3.004-9.896-4.518c-0.941-0.434-1.896-0.85-2.836-1.284c-3.691-1.704-7.527-3.111-11.074-5.115
	c-20.359-11.496-21.152-38.152-28.846-57.615c-2.471-6.242-5.93-14.436-3.471-21.271c1.357-3.782,5.611-4.017,8.994-4.686
	c2.662-0.525,5.312-1.128,7.979-1.628c2.391-0.448,4.773-0.958,7.174-1.37c4.453-0.765,8.631-1.896,11.469-5.666
	c5.033-6.688,5.172-13.771,3.404-21.633c-1.543-6.855-3.717-13.611-5.9-20.286c-1.146-3.514-2.33-7.018-3.514-10.521
	c-2.719-8.06-3.926-16.78-6.484-25.663c-1.191-4.154-2.961-10.637-3.115-11.229C802.196,63.261,723.6,27.512,678.747,8.062
	c-6.539-2.835-15.139-5.19-22.857-7.304c-7.982-2.187-20.141,0.813-29.924,3.229c-12.33,3.044-28.188,6.167-47.686,9.488
	c-40.811,6.951-81.986,11.498-122.786,18.487c-3.915,0.67-41.495,6.188-62.249,9.234c-74.01,10.863-148.51,17.848-223.114,23.116
	c-17.306,1.223-34.615,2.331-51.896,3.875c-8.826,0.789-17.99,1.291-26.15,5.069c-9.92,4.594-13.596,12.771-17.842,22.283
	C66.84,112.118,25.855,216.021,2.236,277.007c-3.266,8.433-3.16,15.633,1.689,22.185c18.645,2.791,36.448,0.395,50.759,5.463
	C351.66,409.827,512.25,471.918,943.442,625.93c2.466,0.881,17.131-8.302,26.969-15.975c3.63-1.295,6.966-3.08,9.722,0.898
	c4.039,12.539,15.803,21.611,29.687,21.611c17.221,0,31.181-13.96,31.181-31.181s-13.96-31.183-31.181-31.183
	c-12.632,0-23.509,7.512-28.408,18.311c-1.216,1.011-2.304,2.188-4.015,1.875c-1.521-0.277-2.638-1.535-3.783-2.467L973.615,587.826
	z"/>
</svg>
