<?xml version="1.0" encoding="utf-8"?>
<!-- Generator: Adobe Illustrator 16.0.0, SVG Export Plug-In . SVG Version: 6.00 Build 0)  -->
<!DOCTYPE svg PUBLIC "-//W3C//DTD SVG 1.1//EN" "http://www.w3.org/Graphics/SVG/1.1/DTD/svg11.dtd">
<svg version="1.1" id="Layer_1" xmlns="http://www.w3.org/2000/svg" xmlns:xlink="http://www.w3.org/1999/xlink" x="0px" y="0px"
	 width="753.984px" height="486.965px" viewBox="0 0 753.984 486.965" enable-background="new 0 0 753.984 486.965"
	 xml:space="preserve">
<path d="M750.667,464.283l-3.962-15.713l-3.22-15.728l-9.896-12.288c-1.116-1.421-10.213-7.308-27.254-17.726
	c-22.51-13.757-80.914-50.099-121.315-75.229c-27.727-17.25-78.566-48.882-82.649-52.582c-6.332-5.74-96.925-59.396-145.642-88.679
	c-57.167-34.358-115.438-66.826-174.142-98.479l-13.182-7.108c-13.255-7.146-67.218-35.539-100.862-53.241
	C49.004,17.231,19.883,1.91,8.244,0.232C5.967-0.095,3.68-0.103,1.378,0.375l-1.379,14.39c-0.01,0.322,6.736,19.667,20.174,58.159
	l5.06,14.588l4.601,14.831c5.539,17.793,11.523,31.573,18.115,41.345c3.379,5.008,10.028,15.06,10.958,14.416
	c5.373-3.716,12.437-8.766,18.055-13.606c5.4-4.652,11.354-9.458,18.812-6.141c14.983,6.664,24.082,18.896,27.852,34.595
	c1.871,7.791,2.443,15.487,1.829,23.465c-0.561,7.26-2.872,19.523,0.827,26.223c3.86,6.987,13.797,6.017,20.546,6.95
	c10.581,1.463,21.128,3.809,31.554,6.105l15.137,3.334l17.372,4.952l16.731,4.769c14.816,4.229,25.908,8.08,33.241,11.625
	l31.431,13.922l33.876,17.121c8.289,4.473,113.722,53.188,170.696,79.525l88.268,40.807
	c49.091,22.695,132.928,61.453,146.859,68.967c7.416,3.998,12.021,6.072,13.66,6.226c1.673,0.084,2.965-0.037,3.883-0.523
	c1.642-0.916,3.088-2.998,4.417-6.371C754.197,479.277,753.137,473.958,750.667,464.283z"/>
</svg>
