<?xml version="1.0" encoding="utf-8"?>
<!-- Generator: Adobe Illustrator 16.0.0, SVG Export Plug-In . SVG Version: 6.00 Build 0)  -->
<!DOCTYPE svg PUBLIC "-//W3C//DTD SVG 1.1//EN" "http://www.w3.org/Graphics/SVG/1.1/DTD/svg11.dtd">
<svg version="1.1" id="Layer_1" xmlns="http://www.w3.org/2000/svg" xmlns:xlink="http://www.w3.org/1999/xlink" x="0px" y="0px"
	 width="882.4px" height="379.457px" viewBox="0 0 882.4 379.457" enable-background="new 0 0 882.4 379.457" xml:space="preserve">
<path fill="none" stroke="#000000" stroke-linejoin="round" stroke-miterlimit="10" d="M415.372,157.409l20.993-0.324l0,0
	c40.01-0.362,80.039,1.264,120.033-0.338c18.799-0.752,34.445-3.119,46.869-7.246c6.504-2.168,21.182-8.289,43.889-18.361
	c6.688-2.969,19.061-8.459,20.104-8.806c20.66-6.824,39.199-18.554,58.951-27.505c14.465-6.555,24.836-12.299,31.98-15.6
	c16.584-7.664,33.822-14.781,50.547-22.115c5.926-2.6,12.352-3.983,18.695-5.217c0.998,1.018,1.996,2.035,2.994,3.053
	c-1.67,8.913-5.27,16.077-10.795,21.496l0,0l-24.67,34.032l0,0c-52.33,72.188-101.045,143.104-149.074,216.354
	c-3.143,4.793-10.541,12.535-21.402,24.127c-4.975,5.309-11.771,8.881-17.266,12.938c-8.379,6.188-17.236,9.006-26.949,9.525l0,0
	l-112.023,6.033l-52.875-0.271l-53.581-0.119l0,0c-18.864-0.041-62.069-1.43-74.781-3.021l0,0l-38.899-2.012l0,0
	c-1.224-0.012-22.162-5.035-35.546-17.104l0,0l-18.779-18.443l0,0c-1.772-2.824-15.039-20.273-18.779-25.82
	c-39.57-58.686-91.383-136.87-120.388-175.384l0,0l-12.553-16.666l0,0C42.052,119.427,8.52,74.094,5.538,70.665
	c-1.776-2.042-4.324-8.35-5.219-11.63c-0.734-2.689-0.225-7.073,1.789-6.856c5.97,0.634,13.39,3.006,18.976,5.292
	c7.377,3.018,20.121,7.713,46.613,19.783c20.635,9.403,71.771,35.042,112.003,52.983l0,0l27.163,11.402l20.121,7.712l0,0
	c13.842,5.479,32.877,7.925,49.27,7.673l0,0L415.372,157.409L415.372,157.409"/>
</svg>
