<?xml version="1.0" encoding="utf-8"?>
<!-- Generator: Adobe Illustrator 16.0.0, SVG Export Plug-In . SVG Version: 6.00 Build 0)  -->
<!DOCTYPE svg PUBLIC "-//W3C//DTD SVG 1.1//EN" "http://www.w3.org/Graphics/SVG/1.1/DTD/svg11.dtd">
<svg version="1.1" id="Layer_1" xmlns="http://www.w3.org/2000/svg" xmlns:xlink="http://www.w3.org/1999/xlink" x="0px" y="0px"
	 width="830.43px" height="327.559px" viewBox="0 0 830.43 327.559" enable-background="new 0 0 830.43 327.559"
	 xml:space="preserve">
<path d="M415.371,105.512l20.993-0.324l0,0c40.013-0.36,80.039,1.266,120.033-0.338c18.799-0.752,34.447-3.119,46.871-7.246
	c6.502-2.168,21.18-8.289,43.887-18.359c6.688-2.971,19.062-8.459,20.104-8.808c20.66-6.824,39.199-18.554,58.951-27.505
	c14.465-6.555,24.836-12.299,31.979-15.6c16.584-7.664,33.824-14.781,50.547-22.115c5.926-2.6,12.354-3.983,18.697-5.217
	c0.998,1.018,1.996,2.035,2.994,3.053c-1.67,8.913-5.271,16.077-10.795,21.496l0,0l-24.67,34.032l0,0
	c-52.33,72.188-101.045,143.104-149.074,216.354c-3.146,4.793-10.541,12.535-21.404,24.127c-4.973,5.31-11.771,8.881-17.264,12.938
	c-8.379,6.188-17.238,9.006-26.951,9.524l0,0l-112.021,6.033l-52.875-0.271l-53.581-0.119l0,0
	c-18.864-0.041-62.069-1.43-74.781-3.021l0,0l-38.898-2.012l0,0c-1.225-0.012-22.162-5.035-35.547-17.104l0,0l-18.778-18.443l0,0
	c-1.771-2.824-15.039-20.273-18.777-25.82c-39.57-58.686-91.385-136.871-120.39-175.383l0,0L42.067,68.718l0,0
	C42.052,67.531,8.52,22.198,5.538,18.768c-1.774-2.042-4.324-8.35-5.22-11.63C-0.415,4.45,0.094,0.065,2.108,0.283
	c5.971,0.634,13.391,3.006,18.977,5.292c7.377,3.018,20.121,7.713,46.612,19.781C88.332,34.76,139.468,60.399,179.7,78.34l0,0
	l27.162,11.402l20.121,7.712l0,0c13.843,5.479,32.877,7.925,49.271,7.673l0,0L415.371,105.512L415.371,105.512"/>
</svg>
