<?xml version="1.0" encoding="utf-8"?>
<!-- Generator: Adobe Illustrator 16.0.0, SVG Export Plug-In . SVG Version: 6.00 Build 0)  -->
<!DOCTYPE svg PUBLIC "-//W3C//DTD SVG 1.1//EN" "http://www.w3.org/Graphics/SVG/1.1/DTD/svg11.dtd">
<svg version="1.1" id="Layer_1" xmlns="http://www.w3.org/2000/svg" xmlns:xlink="http://www.w3.org/1999/xlink" x="0px" y="0px"
	 width="1037.895px" height="647.191px" viewBox="0 0 1037.895 647.191" enable-background="new 0 0 1037.895 647.191"
	 xml:space="preserve">
<path fill="none" stroke="#000000" stroke-linejoin="round" stroke-miterlimit="10" d="M962.627,89.607
	c-1.938-5.194-4.227-10.241-7.699-14.44c-9.538-11.521-24.499-11.106-37.957-12.188c-17.104-1.375-34.249-2.296-51.377-3.338
	c-74.649-4.542-149.217-10.8-223.328-20.942c-20.78-2.844-58.414-7.994-62.334-8.626c-40.865-6.591-82.088-10.737-122.96-17.29
	c-19.527-3.131-35.417-6.1-47.774-9.023c-9.809-2.32-21.987-5.202-29.953-2.937c-7.697,2.188-16.275,4.627-22.786,7.526
	C311.794,28.234,233.55,64.747,229.384,80.854c-0.154,0.595-1.856,7.096-3.011,11.261c-2.471,8.907-3.594,17.639-6.236,25.729
	c-3.125,9.567-6.307,19.148-8.618,28.951c-3.234,13.713,3.195,24.857,16.534,29.185c6.17,2.002,15.872,1.327,20.24,6.825
	c5.373,6.767,0.236,17.393-2.339,24.26c-3.984,10.626-7.334,21.428-10.731,32.248c-7.565,24.1-33.12,25.822-48.313,42.339
	c-5.738,6.237-7.356,15.855-9.95,23.697c-10.812,32.691-26.302,63.637-37.223,96.29c-3.763,11.25-5.907,17.398-6.324,18.565
	c-7.168,20.058-15.424,39.706-22.775,59.695c-5.995,16.301-11.86,31.737-17.635,46.183l-6.063,15.271
	c-4.786,12.06-13.223,33.767-14.135,36.271c-3.774,10.376-12.074,26.053-10.161,28.35c5.714,6.86,31.807,24.023,35.149,22.793
	C527.461,470.558,687.44,406.907,983.376,298.848c14.264-5.208,32.089-2.984,50.704-5.957c4.783-6.597,4.821-13.792,1.479-22.186
	c-11.748-29.513-23.643-58.969-35.565-88.411c-10.498-25.913-20.83-51.935-31.865-77.625
	C966.099,99.948,964.53,94.707,962.627,89.607z M90.121,608.199c-3.719,0-6.732-3.019-6.732-6.732s3.014-6.729,6.732-6.729
	c3.718,0,6.732,3.015,6.732,6.729S93.84,608.199,90.121,608.199z M146.692,556.199c-3.719,0-6.732-3.019-6.732-6.732
	s3.014-6.729,6.732-6.729c3.718,0,6.732,3.015,6.732,6.729S150.41,556.199,146.692,556.199z M146.692,504.199
	c-3.719,0-6.732-3.019-6.732-6.732s3.014-6.729,6.732-6.729c3.718,0,6.732,3.015,6.732,6.729S150.41,504.199,146.692,504.199z
	 M146.692,452.199c-3.719,0-6.732-3.019-6.732-6.732s3.014-6.729,6.732-6.729c3.718,0,6.732,3.015,6.732,6.729
	S150.41,452.199,146.692,452.199z M203.262,556.199c-3.719,0-6.732-3.019-6.732-6.732s3.014-6.729,6.732-6.729
	c3.718,0,6.732,3.015,6.732,6.729S206.981,556.199,203.262,556.199z M203.262,504.199c-3.719,0-6.732-3.019-6.732-6.732
	s3.014-6.729,6.732-6.729c3.718,0,6.732,3.015,6.732,6.729S206.981,504.199,203.262,504.199z M203.262,452.199
	c-3.719,0-6.732-3.019-6.732-6.732s3.014-6.729,6.732-6.729c3.718,0,6.732,3.015,6.732,6.729S206.981,452.199,203.262,452.199z
	 M203.262,400.199c-3.719,0-6.732-3.018-6.732-6.732c0-3.714,3.014-6.732,6.732-6.732c3.718,0,6.732,3.019,6.732,6.732
	C209.994,397.182,206.981,400.199,203.262,400.199z M203.262,348.199c-3.719,0-6.732-3.016-6.732-6.732
	c0-3.716,3.014-6.732,6.732-6.732c3.718,0,6.732,3.019,6.732,6.732C209.994,345.184,206.981,348.199,203.262,348.199z
	 M259.833,556.199c-3.719,0-6.732-3.019-6.732-6.732s3.014-6.729,6.732-6.729s6.732,3.015,6.732,6.729
	S263.551,556.199,259.833,556.199z M259.833,504.199c-3.719,0-6.732-3.019-6.732-6.732s3.014-6.729,6.732-6.729
	s6.732,3.015,6.732,6.729S263.551,504.199,259.833,504.199z M259.833,452.199c-3.719,0-6.732-3.019-6.732-6.732
	s3.014-6.729,6.732-6.729s6.732,3.015,6.732,6.729S263.551,452.199,259.833,452.199z M259.833,400.199
	c-3.719,0-6.732-3.018-6.732-6.732c0-3.714,3.014-6.732,6.732-6.732s6.732,3.019,6.732,6.732
	C266.565,397.182,263.551,400.199,259.833,400.199z M259.833,348.199c-3.719,0-6.732-3.016-6.732-6.732
	c0-3.716,3.014-6.732,6.732-6.732s6.732,3.019,6.732,6.732C266.564,345.184,263.551,348.199,259.833,348.199z M259.833,296.199
	c-3.719,0-6.732-3.014-6.732-6.732c0-3.718,3.014-6.732,6.732-6.732s6.732,3.014,6.732,6.732
	C266.564,293.185,263.551,296.199,259.833,296.199z M259.833,244.199c-3.719,0-6.732-3.014-6.732-6.732
	c0-3.718,3.014-6.732,6.732-6.732s6.732,3.014,6.732,6.732C266.564,241.185,263.551,244.199,259.833,244.199z M259.833,140.199
	c-3.719,0-6.732-3.014-6.732-6.732c0-3.718,3.014-6.732,6.732-6.732s6.732,3.014,6.732,6.732
	C266.564,137.185,263.551,140.199,259.833,140.199z M259.833,88.199c-3.719,0-6.732-3.014-6.732-6.732
	c0-3.718,3.014-6.732,6.732-6.732s6.732,3.014,6.732,6.732C266.564,85.185,263.551,88.199,259.833,88.199z M316.403,504.199
	c-3.721,0-6.732-3.019-6.732-6.732s3.014-6.729,6.732-6.729c3.718,0,6.73,3.015,6.73,6.729S320.121,504.199,316.403,504.199z
	 M316.403,452.199c-3.721,0-6.732-3.019-6.732-6.732s3.014-6.729,6.732-6.729c3.718,0,6.73,3.015,6.73,6.729
	S320.121,452.199,316.403,452.199z M316.403,400.199c-3.721,0-6.732-3.018-6.732-6.732c0-3.714,3.014-6.732,6.732-6.732
	c3.718,0,6.73,3.019,6.73,6.732C323.134,397.182,320.121,400.199,316.403,400.199z M316.403,348.199
	c-3.721,0-6.732-3.016-6.732-6.732c0-3.716,3.014-6.732,6.732-6.732c3.718,0,6.73,3.019,6.73,6.732
	C323.135,345.184,320.121,348.199,316.403,348.199z M316.403,296.199c-3.721,0-6.732-3.014-6.732-6.732
	c0-3.718,3.014-6.732,6.732-6.732c3.718,0,6.73,3.014,6.73,6.732C323.135,293.185,320.121,296.199,316.403,296.199z
	 M316.403,244.199c-3.721,0-6.732-3.014-6.732-6.732c0-3.718,3.014-6.732,6.732-6.732c3.718,0,6.73,3.014,6.73,6.732
	C323.135,241.185,320.121,244.199,316.403,244.199z M316.403,192.199c-3.721,0-6.732-3.014-6.732-6.732
	c0-3.718,3.014-6.732,6.732-6.732c3.718,0,6.73,3.014,6.73,6.732C323.135,189.185,320.121,192.199,316.403,192.199z
	 M316.403,140.199c-3.721,0-6.732-3.014-6.732-6.732c0-3.718,3.014-6.732,6.732-6.732c3.718,0,6.73,3.014,6.73,6.732
	C323.135,137.185,320.121,140.199,316.403,140.199z M316.403,88.199c-3.721,0-6.732-3.014-6.732-6.732
	c0-3.718,3.014-6.732,6.732-6.732c3.718,0,6.73,3.014,6.73,6.732C323.135,85.185,320.121,88.199,316.403,88.199z M372.974,504.199
	c-3.721,0-6.73-3.019-6.73-6.732s3.014-6.729,6.73-6.729c3.72,0,6.73,3.015,6.73,6.729S376.692,504.199,372.974,504.199z
	 M372.974,452.199c-3.721,0-6.73-3.019-6.73-6.732s3.014-6.729,6.73-6.729c3.72,0,6.73,3.015,6.73,6.729
	S376.692,452.199,372.974,452.199z M372.974,400.199c-3.721,0-6.73-3.018-6.73-6.732c0-3.714,3.014-6.732,6.73-6.732
	c3.72,0,6.73,3.019,6.73,6.732C379.704,397.182,376.692,400.199,372.974,400.199z M372.974,348.199c-3.721,0-6.73-3.016-6.73-6.732
	c0-3.716,3.014-6.732,6.73-6.732c3.72,0,6.73,3.019,6.73,6.732C379.704,345.184,376.692,348.199,372.974,348.199z M372.974,296.199
	c-3.721,0-6.73-3.014-6.73-6.732c0-3.718,3.014-6.732,6.73-6.732c3.72,0,6.73,3.014,6.73,6.732
	C379.705,293.185,376.692,296.199,372.974,296.199z M372.974,244.199c-3.721,0-6.73-3.014-6.73-6.732
	c0-3.718,3.014-6.732,6.73-6.732c3.72,0,6.73,3.014,6.73,6.732C379.705,241.185,376.692,244.199,372.974,244.199z M372.974,192.199
	c-3.721,0-6.73-3.014-6.73-6.732c0-3.718,3.014-6.732,6.73-6.732c3.72,0,6.73,3.014,6.73,6.732
	C379.705,189.185,376.692,192.199,372.974,192.199z M372.974,140.199c-3.721,0-6.73-3.014-6.73-6.732
	c0-3.718,3.014-6.732,6.73-6.732c3.72,0,6.73,3.014,6.73,6.732C379.705,137.185,376.692,140.199,372.974,140.199z M372.974,88.199
	c-3.721,0-6.73-3.014-6.73-6.732c0-3.718,3.014-6.732,6.73-6.732c3.72,0,6.73,3.014,6.73,6.732
	C379.705,85.185,376.692,88.199,372.974,88.199z M372.974,36.199c-3.721,0-6.73-3.014-6.73-6.732c0-3.718,3.014-6.732,6.73-6.732
	c3.72,0,6.73,3.014,6.73,6.732C379.705,33.185,376.692,36.199,372.974,36.199z M429.543,452.199c-3.719,0-6.73-3.019-6.73-6.732
	s3.016-6.729,6.73-6.729c3.72,0,6.732,3.015,6.732,6.729S433.263,452.199,429.543,452.199z M429.543,400.199
	c-3.719,0-6.73-3.018-6.73-6.732c0-3.714,3.016-6.732,6.73-6.732c3.72,0,6.732,3.019,6.732,6.732
	C436.275,397.182,433.263,400.199,429.543,400.199z M429.543,348.199c-3.719,0-6.73-3.016-6.73-6.732
	c0-3.716,3.016-6.732,6.73-6.732c3.72,0,6.732,3.019,6.732,6.732C436.275,345.184,433.263,348.199,429.543,348.199z
	 M429.543,296.199c-3.719,0-6.73-3.014-6.73-6.732c0-3.718,3.016-6.732,6.73-6.732c3.72,0,6.732,3.014,6.732,6.732
	C436.275,293.185,433.263,296.199,429.543,296.199z M429.543,244.199c-3.719,0-6.73-3.014-6.73-6.732
	c0-3.718,3.016-6.732,6.73-6.732c3.72,0,6.732,3.014,6.732,6.732C436.275,241.185,433.263,244.199,429.543,244.199z
	 M429.543,192.199c-3.719,0-6.73-3.014-6.73-6.732c0-3.718,3.016-6.732,6.73-6.732c3.72,0,6.732,3.014,6.732,6.732
	C436.275,189.185,433.263,192.199,429.543,192.199z M429.543,140.199c-3.719,0-6.73-3.014-6.73-6.732
	c0-3.718,3.016-6.732,6.73-6.732c3.72,0,6.732,3.014,6.732,6.732C436.275,137.185,433.263,140.199,429.543,140.199z M429.543,88.199
	c-3.719,0-6.73-3.014-6.73-6.732c0-3.718,3.016-6.732,6.73-6.732c3.72,0,6.732,3.014,6.732,6.732
	C436.275,85.185,433.263,88.199,429.543,88.199z M429.543,36.199c-3.719,0-6.73-3.014-6.73-6.732c0-3.718,3.016-6.732,6.73-6.732
	c3.72,0,6.732,3.014,6.732,6.732C436.275,33.185,433.263,36.199,429.543,36.199z M486.113,452.199c-3.721,0-6.732-3.019-6.732-6.732
	s3.018-6.729,6.732-6.729s6.73,3.015,6.73,6.729S489.832,452.199,486.113,452.199z M486.113,400.199
	c-3.721,0-6.732-3.018-6.732-6.732c0-3.714,3.018-6.732,6.732-6.732s6.73,3.019,6.73,6.732
	C492.844,397.182,489.832,400.199,486.113,400.199z M486.113,348.199c-3.721,0-6.732-3.016-6.732-6.732
	c0-3.716,3.018-6.732,6.732-6.732s6.73,3.019,6.73,6.732C492.846,345.184,489.832,348.199,486.113,348.199z M486.113,296.199
	c-3.721,0-6.732-3.014-6.732-6.732c0-3.718,3.018-6.732,6.732-6.732s6.73,3.014,6.73,6.732
	C492.846,293.185,489.832,296.199,486.113,296.199z M486.113,244.199c-3.721,0-6.732-3.014-6.732-6.732
	c0-3.718,3.018-6.732,6.732-6.732s6.73,3.014,6.73,6.732C492.846,241.185,489.832,244.199,486.113,244.199z M486.113,192.199
	c-3.721,0-6.732-3.014-6.732-6.732c0-3.718,3.018-6.732,6.732-6.732s6.73,3.014,6.73,6.732
	C492.846,189.185,489.832,192.199,486.113,192.199z M486.113,140.199c-3.721,0-6.732-3.014-6.732-6.732
	c0-3.718,3.018-6.732,6.732-6.732s6.73,3.014,6.73,6.732C492.846,137.185,489.832,140.199,486.113,140.199z M486.113,88.199
	c-3.721,0-6.732-3.014-6.732-6.732c0-3.718,3.018-6.732,6.732-6.732s6.73,3.014,6.73,6.732
	C492.846,85.185,489.832,88.199,486.113,88.199z M542.685,400.199c-3.721,0-6.73-3.018-6.73-6.732c0-3.714,3.016-6.732,6.73-6.732
	c3.718,0,6.73,3.019,6.73,6.732C549.415,397.182,546.402,400.199,542.685,400.199z M542.685,348.199c-3.721,0-6.73-3.016-6.73-6.732
	c0-3.716,3.016-6.732,6.73-6.732c3.718,0,6.73,3.019,6.73,6.732C549.415,345.184,546.402,348.199,542.685,348.199z M542.685,296.199
	c-3.721,0-6.73-3.014-6.73-6.732c0-3.718,3.016-6.732,6.73-6.732c3.718,0,6.73,3.014,6.73,6.732
	C549.416,293.185,546.402,296.199,542.685,296.199z M542.685,244.199c-3.721,0-6.73-3.014-6.73-6.732
	c0-3.718,3.016-6.732,6.73-6.732c3.718,0,6.73,3.014,6.73,6.732C549.416,241.185,546.402,244.199,542.685,244.199z M542.685,192.199
	c-3.721,0-6.73-3.014-6.73-6.732c0-3.718,3.016-6.732,6.73-6.732c3.718,0,6.73,3.014,6.73,6.732
	C549.416,189.185,546.402,192.199,542.685,192.199z M542.685,140.199c-3.721,0-6.73-3.014-6.73-6.732
	c0-3.718,3.016-6.732,6.73-6.732c3.718,0,6.73,3.014,6.73,6.732C549.416,137.185,546.402,140.199,542.685,140.199z M542.685,88.199
	c-3.721,0-6.73-3.014-6.73-6.732c0-3.718,3.016-6.732,6.73-6.732c3.718,0,6.73,3.014,6.73,6.732
	C549.416,85.185,546.402,88.199,542.685,88.199z M599.254,400.199c-3.719,0-6.729-3.018-6.729-6.732
	c0-3.714,3.014-6.732,6.729-6.732c3.72,0,6.732,3.019,6.732,6.732C605.986,397.182,602.973,400.199,599.254,400.199z
	 M599.254,348.199c-3.719,0-6.729-3.016-6.729-6.732c0-3.716,3.014-6.732,6.729-6.732c3.72,0,6.732,3.019,6.732,6.732
	C605.986,345.184,602.973,348.199,599.254,348.199z M599.254,296.199c-3.719,0-6.729-3.014-6.729-6.732
	c0-3.718,3.014-6.732,6.729-6.732c3.72,0,6.732,3.014,6.732,6.732C605.986,293.185,602.973,296.199,599.254,296.199z
	 M599.254,244.199c-3.719,0-6.729-3.014-6.729-6.732c0-3.718,3.014-6.732,6.729-6.732c3.72,0,6.732,3.014,6.732,6.732
	C605.986,241.185,602.973,244.199,599.254,244.199z M599.254,192.199c-3.719,0-6.729-3.014-6.729-6.732
	c0-3.718,3.014-6.732,6.729-6.732c3.72,0,6.732,3.014,6.732,6.732C605.986,189.185,602.973,192.199,599.254,192.199z
	 M599.254,140.199c-3.719,0-6.729-3.014-6.729-6.732c0-3.718,3.014-6.732,6.729-6.732c3.72,0,6.732,3.014,6.732,6.732
	C605.986,137.185,602.973,140.199,599.254,140.199z M599.254,88.199c-3.719,0-6.729-3.014-6.729-6.732
	c0-3.718,3.014-6.732,6.729-6.732c3.72,0,6.732,3.014,6.732,6.732C605.986,85.185,602.973,88.199,599.254,88.199z M655.824,400.199
	c-3.719,0-6.73-3.018-6.73-6.732c0-3.714,3.016-6.732,6.73-6.732s6.73,3.019,6.73,6.732
	C662.555,397.182,659.543,400.199,655.824,400.199z M655.824,348.199c-3.719,0-6.73-3.016-6.73-6.732
	c0-3.716,3.016-6.732,6.73-6.732s6.73,3.019,6.73,6.732C662.557,345.184,659.543,348.199,655.824,348.199z M655.824,296.199
	c-3.719,0-6.73-3.014-6.73-6.732c0-3.718,3.016-6.732,6.73-6.732s6.73,3.014,6.73,6.732
	C662.557,293.185,659.543,296.199,655.824,296.199z M655.824,244.199c-3.719,0-6.73-3.014-6.73-6.732
	c0-3.718,3.016-6.732,6.73-6.732s6.73,3.014,6.73,6.732C662.557,241.185,659.543,244.199,655.824,244.199z M655.824,192.199
	c-3.719,0-6.73-3.014-6.73-6.732c0-3.718,3.016-6.732,6.73-6.732s6.73,3.014,6.73,6.732
	C662.557,189.185,659.543,192.199,655.824,192.199z M655.824,140.199c-3.719,0-6.73-3.014-6.73-6.732
	c0-3.718,3.016-6.732,6.73-6.732s6.73,3.014,6.73,6.732C662.557,137.185,659.543,140.199,655.824,140.199z M655.824,88.199
	c-3.719,0-6.73-3.014-6.73-6.732c0-3.718,3.016-6.732,6.73-6.732s6.73,3.014,6.73,6.732
	C662.557,85.185,659.543,88.199,655.824,88.199z M712.395,348.199c-3.719,0-6.73-3.016-6.73-6.732c0-3.716,3.016-6.732,6.73-6.732
	c3.718,0,6.73,3.019,6.73,6.732C719.125,345.184,716.113,348.199,712.395,348.199z M712.395,296.199c-3.719,0-6.73-3.014-6.73-6.732
	c0-3.718,3.016-6.732,6.73-6.732c3.718,0,6.73,3.014,6.73,6.732C719.126,293.185,716.113,296.199,712.395,296.199z M712.395,244.199
	c-3.719,0-6.73-3.014-6.73-6.732c0-3.718,3.016-6.732,6.73-6.732c3.718,0,6.73,3.014,6.73,6.732
	C719.126,241.185,716.113,244.199,712.395,244.199z M712.395,192.199c-3.719,0-6.73-3.014-6.73-6.732
	c0-3.718,3.016-6.732,6.73-6.732c3.718,0,6.73,3.014,6.73,6.732C719.126,189.185,716.113,192.199,712.395,192.199z M712.395,140.199
	c-3.719,0-6.73-3.014-6.73-6.732c0-3.718,3.016-6.732,6.73-6.732c3.718,0,6.73,3.014,6.73,6.732
	C719.126,137.185,716.113,140.199,712.395,140.199z M712.395,88.199c-3.719,0-6.73-3.014-6.73-6.732c0-3.718,3.016-6.732,6.73-6.732
	c3.718,0,6.73,3.014,6.73,6.732C719.126,85.185,716.113,88.199,712.395,88.199z M768.965,348.199c-3.719,0-6.729-3.016-6.729-6.732
	c0-3.716,3.014-6.732,6.729-6.732c3.72,0,6.732,3.019,6.732,6.732C775.697,345.184,772.684,348.199,768.965,348.199z
	 M768.965,296.199c-3.719,0-6.729-3.014-6.729-6.732c0-3.718,3.014-6.732,6.729-6.732c3.72,0,6.732,3.014,6.732,6.732
	C775.697,293.185,772.684,296.199,768.965,296.199z M768.965,244.199c-3.719,0-6.729-3.014-6.729-6.732
	c0-3.718,3.014-6.732,6.729-6.732c3.72,0,6.732,3.014,6.732,6.732C775.697,241.185,772.684,244.199,768.965,244.199z
	 M768.965,192.199c-3.719,0-6.729-3.014-6.729-6.732c0-3.718,3.014-6.732,6.729-6.732c3.72,0,6.732,3.014,6.732,6.732
	C775.697,189.185,772.684,192.199,768.965,192.199z M768.965,140.199c-3.719,0-6.729-3.014-6.729-6.732
	c0-3.718,3.014-6.732,6.729-6.732c3.72,0,6.732,3.014,6.732,6.732C775.697,137.185,772.684,140.199,768.965,140.199z
	 M768.965,88.199c-3.719,0-6.729-3.014-6.729-6.732c0-3.718,3.014-6.732,6.729-6.732c3.72,0,6.732,3.014,6.732,6.732
	C775.697,85.185,772.684,88.199,768.965,88.199z M825.535,296.199c-3.719,0-6.73-3.014-6.73-6.732c0-3.718,3.016-6.732,6.73-6.732
	s6.73,3.014,6.73,6.732C832.268,293.185,829.254,296.199,825.535,296.199z M825.535,244.199c-3.719,0-6.73-3.014-6.73-6.732
	c0-3.718,3.016-6.732,6.73-6.732s6.73,3.014,6.73,6.732C832.268,241.185,829.254,244.199,825.535,244.199z M825.535,192.199
	c-3.719,0-6.73-3.014-6.73-6.732c0-3.718,3.016-6.732,6.73-6.732s6.73,3.014,6.73,6.732
	C832.268,189.185,829.254,192.199,825.535,192.199z M825.535,140.199c-3.719,0-6.73-3.014-6.73-6.732
	c0-3.718,3.016-6.732,6.73-6.732s6.73,3.014,6.73,6.732C832.268,137.185,829.254,140.199,825.535,140.199z M825.535,88.199
	c-3.719,0-6.73-3.014-6.73-6.732c0-3.718,3.016-6.732,6.73-6.732s6.73,3.014,6.73,6.732
	C832.268,85.185,829.254,88.199,825.535,88.199z M882.105,296.199c-3.721,0-6.732-3.014-6.732-6.732
	c0-3.718,3.016-6.732,6.732-6.732c3.716,0,6.729,3.014,6.729,6.732C888.837,293.185,885.824,296.199,882.105,296.199z
	 M882.105,244.199c-3.721,0-6.732-3.014-6.732-6.732c0-3.718,3.016-6.732,6.732-6.732c3.716,0,6.729,3.014,6.729,6.732
	C888.837,241.185,885.824,244.199,882.105,244.199z M882.105,192.199c-3.721,0-6.732-3.014-6.732-6.732
	c0-3.718,3.016-6.732,6.732-6.732c3.716,0,6.729,3.014,6.729,6.732C888.837,189.185,885.824,192.199,882.105,192.199z
	 M882.105,140.199c-3.721,0-6.732-3.014-6.732-6.732c0-3.718,3.016-6.732,6.732-6.732c3.716,0,6.729,3.014,6.729,6.732
	C888.837,137.185,885.824,140.199,882.105,140.199z M882.105,88.199c-3.721,0-6.732-3.014-6.732-6.732
	c0-3.718,3.016-6.732,6.732-6.732c3.716,0,6.729,3.014,6.729,6.732C888.837,85.185,885.824,88.199,882.105,88.199z M938.676,296.199
	c-3.721,0-6.73-3.014-6.73-6.732c0-3.718,3.014-6.732,6.73-6.732c3.719,0,6.73,3.014,6.73,6.732
	C945.407,293.185,942.395,296.199,938.676,296.199z M938.676,244.199c-3.721,0-6.73-3.014-6.73-6.732
	c0-3.718,3.014-6.732,6.73-6.732c3.719,0,6.73,3.014,6.73,6.732C945.407,241.185,942.395,244.199,938.676,244.199z M938.676,192.199
	c-3.721,0-6.73-3.014-6.73-6.732c0-3.718,3.014-6.732,6.73-6.732c3.719,0,6.73,3.014,6.73,6.732
	C945.407,189.185,942.395,192.199,938.676,192.199z M938.676,140.199c-3.721,0-6.73-3.014-6.73-6.732
	c0-3.718,3.014-6.732,6.73-6.732c3.719,0,6.73,3.014,6.73,6.732C945.407,137.185,942.395,140.199,938.676,140.199z M995.246,244.199
	c-3.719,0-6.73-3.014-6.73-6.732c0-3.718,3.016-6.732,6.73-6.732c3.719,0,6.73,3.014,6.73,6.732
	C1001.979,241.185,998.965,244.199,995.246,244.199z"/>
</svg>
