<?xml version="1.0" encoding="utf-8"?>
<!-- Generator: Adobe Illustrator 16.0.0, SVG Export Plug-In . SVG Version: 6.00 Build 0)  -->
<!DOCTYPE svg PUBLIC "-//W3C//DTD SVG 1.1//EN" "http://www.w3.org/Graphics/SVG/1.1/DTD/svg11.dtd">
<svg version="1.1" id="Layer_1" xmlns="http://www.w3.org/2000/svg" xmlns:xlink="http://www.w3.org/1999/xlink" x="0px" y="0px"
	 width="975.531px" height="628.83px" viewBox="0 0 975.531 628.83" enable-background="new 0 0 975.531 628.83"
	 xml:space="preserve">
<path d="M900.265,89.607c-1.938-5.194-4.229-10.241-7.699-14.44c-9.538-11.521-24.499-11.106-37.957-12.188
	c-17.104-1.375-34.249-2.296-51.377-3.338C728.581,55.1,654.015,48.841,579.904,38.7c-20.782-2.844-58.414-7.994-62.334-8.626
	c-40.867-6.591-82.088-10.737-122.96-17.29c-19.529-3.131-35.417-6.1-47.775-9.023c-9.808-2.32-21.985-5.202-29.953-2.937
	c-7.695,2.188-16.273,4.627-22.784,7.526c-44.664,19.885-122.91,56.398-127.076,72.505c-0.152,0.595-1.854,7.096-3.011,11.261
	c-2.472,8.907-3.595,17.639-6.234,25.729c-3.125,9.567-6.31,19.148-8.618,28.951c-3.234,13.713,3.193,24.857,16.534,29.185
	c6.17,2.002,15.87,1.327,20.238,6.825c5.373,6.767,0.235,17.393-2.34,24.26c-3.981,10.626-7.334,21.428-10.729,32.248
	c-7.565,24.1-33.12,25.822-48.313,42.339c-5.737,6.237-7.354,15.855-9.949,23.697c-10.812,32.69-26.303,63.635-37.224,96.29
	c-3.763,11.25-5.906,17.397-6.323,18.564c-7.168,20.058-15.425,39.706-22.773,59.695c-5.995,16.301-11.86,31.736-17.637,46.183
	l-6.062,15.271c-4.786,12.061-13.225,33.768-14.135,36.271C6.67,588-1.63,603.677,0.283,605.974
	c5.714,6.86,31.807,24.023,35.147,22.793c429.669-158.209,589.646-221.858,885.582-329.917c14.266-5.208,32.091-2.984,50.704-5.957
	c4.782-6.597,4.82-13.792,1.479-22.186c-11.748-29.513-23.645-58.969-35.567-88.411c-10.497-25.913-20.829-51.935-31.863-77.625
	C903.736,99.949,902.167,94.708,900.265,89.607z M27.758,608.199c-3.719,0-6.729-3.02-6.729-6.732s3.014-6.729,6.729-6.729
	c3.717,0,6.732,3.015,6.732,6.729S31.476,608.199,27.758,608.199z M84.329,556.199c-3.719,0-6.731-3.02-6.731-6.732
	s3.016-6.729,6.731-6.729s6.73,3.015,6.73,6.729S88.047,556.199,84.329,556.199z M84.329,504.199c-3.719,0-6.731-3.02-6.731-6.732
	s3.016-6.729,6.731-6.729s6.73,3.015,6.73,6.729S88.047,504.199,84.329,504.199z M84.329,452.199c-3.719,0-6.731-3.02-6.731-6.732
	s3.016-6.729,6.731-6.729s6.73,3.015,6.73,6.729S88.047,452.199,84.329,452.199z M140.899,556.199c-3.721,0-6.732-3.02-6.732-6.732
	s3.015-6.729,6.732-6.729s6.729,3.015,6.729,6.729S144.618,556.199,140.899,556.199z M140.899,504.199
	c-3.721,0-6.732-3.02-6.732-6.732s3.015-6.729,6.732-6.729s6.729,3.015,6.729,6.729S144.618,504.199,140.899,504.199z
	 M140.899,452.199c-3.721,0-6.732-3.02-6.732-6.732s3.015-6.729,6.732-6.729s6.729,3.015,6.729,6.729
	S144.618,452.199,140.899,452.199z M140.899,400.199c-3.721,0-6.732-3.019-6.732-6.732c0-3.713,3.015-6.731,6.732-6.731
	s6.729,3.019,6.729,6.731C147.629,397.181,144.618,400.199,140.899,400.199z M140.899,348.199c-3.721,0-6.732-3.017-6.732-6.732
	c0-3.715,3.015-6.731,6.732-6.731s6.729,3.019,6.729,6.731C147.631,345.185,144.618,348.199,140.899,348.199z M197.469,556.199
	c-3.72,0-6.73-3.02-6.73-6.732s3.014-6.729,6.73-6.729c3.716,0,6.731,3.015,6.731,6.729S201.187,556.199,197.469,556.199z
	 M197.469,504.199c-3.72,0-6.73-3.02-6.73-6.732s3.014-6.729,6.73-6.729c3.716,0,6.731,3.015,6.731,6.729
	S201.187,504.199,197.469,504.199z M197.469,452.199c-3.72,0-6.73-3.02-6.73-6.732s3.014-6.729,6.73-6.729
	c3.716,0,6.731,3.015,6.731,6.729S201.187,452.199,197.469,452.199z M197.469,400.199c-3.72,0-6.73-3.019-6.73-6.732
	c0-3.713,3.014-6.731,6.73-6.731c3.716,0,6.731,3.019,6.731,6.731C204.201,397.181,201.187,400.199,197.469,400.199z
	 M197.469,348.199c-3.72,0-6.73-3.017-6.73-6.732c0-3.715,3.014-6.731,6.73-6.731c3.716,0,6.731,3.019,6.731,6.731
	C204.201,345.185,201.187,348.199,197.469,348.199z M197.469,296.2c-3.72,0-6.73-3.014-6.73-6.732c0-3.718,3.014-6.732,6.73-6.732
	c3.716,0,6.731,3.014,6.731,6.732C204.201,293.186,201.187,296.2,197.469,296.2z M197.469,244.2c-3.72,0-6.73-3.014-6.73-6.732
	c0-3.718,3.014-6.732,6.73-6.732c3.716,0,6.731,3.014,6.731,6.732C204.201,241.186,201.187,244.2,197.469,244.2z M197.469,140.2
	c-3.72,0-6.73-3.014-6.73-6.732c0-3.718,3.014-6.732,6.73-6.732c3.716,0,6.731,3.014,6.731,6.732
	C204.201,137.186,201.187,140.2,197.469,140.2z M197.469,88.2c-3.72,0-6.73-3.014-6.73-6.732c0-3.718,3.014-6.732,6.73-6.732
	c3.716,0,6.731,3.014,6.731,6.732C204.201,85.186,201.187,88.2,197.469,88.2z M254.04,504.199c-3.719,0-6.729-3.02-6.729-6.732
	s3.014-6.729,6.729-6.729s6.732,3.015,6.732,6.729S257.758,504.199,254.04,504.199z M254.04,452.199
	c-3.719,0-6.729-3.02-6.729-6.732s3.014-6.729,6.729-6.729s6.732,3.015,6.732,6.729S257.758,452.199,254.04,452.199z
	 M254.04,400.199c-3.719,0-6.729-3.019-6.729-6.732c0-3.713,3.014-6.731,6.729-6.731s6.732,3.019,6.732,6.731
	C260.772,397.181,257.758,400.199,254.04,400.199z M254.04,348.199c-3.719,0-6.729-3.017-6.729-6.732
	c0-3.715,3.014-6.731,6.729-6.731s6.732,3.019,6.732,6.731C260.772,345.185,257.758,348.199,254.04,348.199z M254.04,296.2
	c-3.719,0-6.729-3.014-6.729-6.732c0-3.718,3.014-6.732,6.729-6.732s6.732,3.014,6.732,6.732
	C260.772,293.186,257.758,296.2,254.04,296.2z M254.04,244.2c-3.719,0-6.729-3.014-6.729-6.732c0-3.718,3.014-6.732,6.729-6.732
	s6.732,3.014,6.732,6.732C260.772,241.186,257.758,244.2,254.04,244.2z M254.04,192.2c-3.719,0-6.729-3.014-6.729-6.732
	c0-3.718,3.014-6.732,6.729-6.732s6.732,3.014,6.732,6.732C260.772,189.186,257.758,192.2,254.04,192.2z M254.04,140.2
	c-3.719,0-6.729-3.014-6.729-6.732c0-3.718,3.014-6.732,6.729-6.732s6.732,3.014,6.732,6.732
	C260.772,137.186,257.758,140.2,254.04,140.2z M254.04,88.2c-3.719,0-6.729-3.014-6.729-6.732c0-3.718,3.014-6.732,6.729-6.732
	s6.732,3.014,6.732,6.732C260.772,85.186,257.758,88.2,254.04,88.2z M310.611,504.199c-3.721,0-6.731-3.02-6.731-6.732
	s3.016-6.729,6.731-6.729s6.729,3.015,6.729,6.729S314.329,504.199,310.611,504.199z M310.611,452.199
	c-3.721,0-6.731-3.02-6.731-6.732s3.016-6.729,6.731-6.729s6.729,3.015,6.729,6.729S314.329,452.199,310.611,452.199z
	 M310.611,400.199c-3.721,0-6.731-3.019-6.731-6.732c0-3.713,3.016-6.731,6.731-6.731s6.729,3.019,6.729,6.731
	C317.341,397.181,314.329,400.199,310.611,400.199z M310.611,348.199c-3.721,0-6.731-3.017-6.731-6.732
	c0-3.715,3.016-6.731,6.731-6.731s6.729,3.019,6.729,6.731C317.342,345.185,314.329,348.199,310.611,348.199z M310.611,296.2
	c-3.721,0-6.731-3.014-6.731-6.732c0-3.718,3.016-6.732,6.731-6.732s6.729,3.014,6.729,6.732
	C317.343,293.186,314.329,296.2,310.611,296.2z M310.611,244.2c-3.721,0-6.731-3.014-6.731-6.732c0-3.718,3.016-6.732,6.731-6.732
	s6.729,3.014,6.729,6.732C317.343,241.186,314.329,244.2,310.611,244.2z M310.611,192.2c-3.721,0-6.731-3.014-6.731-6.732
	c0-3.718,3.016-6.732,6.731-6.732s6.729,3.014,6.729,6.732C317.343,189.186,314.329,192.2,310.611,192.2z M310.611,140.2
	c-3.721,0-6.731-3.014-6.731-6.732c0-3.718,3.016-6.732,6.731-6.732s6.729,3.014,6.729,6.732
	C317.343,137.186,314.329,140.2,310.611,140.2z M310.611,88.2c-3.721,0-6.731-3.014-6.731-6.732c0-3.718,3.016-6.732,6.731-6.732
	s6.729,3.014,6.729,6.732C317.343,85.186,314.329,88.2,310.611,88.2z M310.611,36.2c-3.721,0-6.731-3.014-6.731-6.732
	c0-3.718,3.016-6.732,6.731-6.732s6.729,3.014,6.729,6.732C317.343,33.186,314.329,36.2,310.611,36.2z M367.181,452.199
	c-3.721,0-6.73-3.02-6.73-6.732s3.015-6.729,6.73-6.729c3.72,0,6.729,3.015,6.729,6.729S370.9,452.199,367.181,452.199z
	 M367.181,400.199c-3.721,0-6.73-3.019-6.73-6.732c0-3.713,3.015-6.731,6.73-6.731c3.72,0,6.729,3.019,6.729,6.731
	C373.911,397.181,370.9,400.199,367.181,400.199z M367.181,348.199c-3.721,0-6.73-3.017-6.73-6.732c0-3.715,3.015-6.731,6.73-6.731
	c3.72,0,6.729,3.019,6.729,6.731C373.912,345.185,370.9,348.199,367.181,348.199z M367.181,296.2c-3.721,0-6.73-3.014-6.73-6.732
	c0-3.718,3.015-6.732,6.73-6.732c3.72,0,6.729,3.014,6.729,6.732C373.912,293.186,370.9,296.2,367.181,296.2z M367.181,244.2
	c-3.721,0-6.73-3.014-6.73-6.732c0-3.718,3.015-6.732,6.73-6.732c3.72,0,6.729,3.014,6.729,6.732
	C373.912,241.186,370.9,244.2,367.181,244.2z M367.181,192.2c-3.721,0-6.73-3.014-6.73-6.732c0-3.718,3.015-6.732,6.73-6.732
	c3.72,0,6.729,3.014,6.729,6.732C373.912,189.186,370.9,192.2,367.181,192.2z M367.181,140.2c-3.721,0-6.73-3.014-6.73-6.732
	c0-3.718,3.015-6.732,6.73-6.732c3.72,0,6.729,3.014,6.729,6.732C373.912,137.186,370.9,140.2,367.181,140.2z M367.181,88.2
	c-3.721,0-6.73-3.014-6.73-6.732c0-3.718,3.015-6.732,6.73-6.732c3.72,0,6.729,3.014,6.729,6.732
	C373.912,85.186,370.9,88.2,367.181,88.2z M367.181,36.2c-3.721,0-6.73-3.014-6.73-6.732c0-3.718,3.015-6.732,6.73-6.732
	c3.72,0,6.729,3.014,6.729,6.732C373.912,33.186,370.9,36.2,367.181,36.2z M423.751,452.199c-3.72,0-6.73-3.02-6.73-6.732
	s3.016-6.729,6.73-6.729c3.714,0,6.731,3.015,6.731,6.729S427.469,452.199,423.751,452.199z M423.751,400.199
	c-3.72,0-6.73-3.019-6.73-6.732c0-3.713,3.016-6.731,6.73-6.731c3.714,0,6.731,3.019,6.731,6.731
	C430.482,397.181,427.469,400.199,423.751,400.199z M423.751,348.199c-3.72,0-6.73-3.017-6.73-6.732c0-3.715,3.016-6.731,6.73-6.731
	c3.714,0,6.731,3.019,6.731,6.731C430.483,345.185,427.469,348.199,423.751,348.199z M423.751,296.2c-3.72,0-6.73-3.014-6.73-6.732
	c0-3.718,3.016-6.732,6.73-6.732c3.714,0,6.731,3.014,6.731,6.732C430.483,293.186,427.469,296.2,423.751,296.2z M423.751,244.2
	c-3.72,0-6.73-3.014-6.73-6.732c0-3.718,3.016-6.732,6.73-6.732c3.714,0,6.731,3.014,6.731,6.732
	C430.483,241.186,427.469,244.2,423.751,244.2z M423.751,192.2c-3.72,0-6.73-3.014-6.73-6.732c0-3.718,3.016-6.732,6.73-6.732
	c3.714,0,6.731,3.014,6.731,6.732C430.483,189.186,427.469,192.2,423.751,192.2z M423.751,140.2c-3.72,0-6.73-3.014-6.73-6.732
	c0-3.718,3.016-6.732,6.73-6.732c3.714,0,6.731,3.014,6.731,6.732C430.483,137.186,427.469,140.2,423.751,140.2z M423.751,88.2
	c-3.72,0-6.73-3.014-6.73-6.732c0-3.718,3.016-6.732,6.73-6.732c3.714,0,6.731,3.014,6.731,6.732
	C430.483,85.186,427.469,88.2,423.751,88.2z M480.322,400.199c-3.721,0-6.731-3.019-6.731-6.732c0-3.713,3.018-6.731,6.731-6.731
	s6.729,3.019,6.729,6.731C487.052,397.181,484.039,400.199,480.322,400.199z M480.322,348.199c-3.721,0-6.731-3.017-6.731-6.732
	c0-3.715,3.018-6.731,6.731-6.731s6.729,3.019,6.729,6.731C487.052,345.185,484.039,348.199,480.322,348.199z M480.322,296.2
	c-3.721,0-6.731-3.014-6.731-6.732c0-3.718,3.018-6.732,6.731-6.732s6.729,3.014,6.729,6.732
	C487.053,293.186,484.039,296.2,480.322,296.2z M480.322,244.2c-3.721,0-6.731-3.014-6.731-6.732c0-3.718,3.018-6.732,6.731-6.732
	s6.729,3.014,6.729,6.732C487.053,241.186,484.039,244.2,480.322,244.2z M480.322,192.2c-3.721,0-6.731-3.014-6.731-6.732
	c0-3.718,3.018-6.732,6.731-6.732s6.729,3.014,6.729,6.732C487.053,189.186,484.039,192.2,480.322,192.2z M480.322,140.2
	c-3.721,0-6.731-3.014-6.731-6.732c0-3.718,3.018-6.732,6.731-6.732s6.729,3.014,6.729,6.732
	C487.053,137.186,484.039,140.2,480.322,140.2z M480.322,88.2c-3.721,0-6.731-3.014-6.731-6.732c0-3.718,3.018-6.732,6.731-6.732
	s6.729,3.014,6.729,6.732C487.053,85.186,484.039,88.2,480.322,88.2z M536.892,400.199c-3.721,0-6.73-3.019-6.73-6.732
	c0-3.713,3.015-6.731,6.73-6.731c3.72,0,6.729,3.019,6.729,6.731C543.622,397.181,540.61,400.199,536.892,400.199z M536.892,348.199
	c-3.721,0-6.73-3.017-6.73-6.732c0-3.715,3.015-6.731,6.73-6.731c3.72,0,6.729,3.019,6.729,6.731
	C543.623,345.185,540.61,348.199,536.892,348.199z M536.892,296.2c-3.721,0-6.73-3.014-6.73-6.732c0-3.718,3.015-6.732,6.73-6.732
	c3.72,0,6.729,3.014,6.729,6.732C543.623,293.186,540.61,296.2,536.892,296.2z M536.892,244.2c-3.721,0-6.73-3.014-6.73-6.732
	c0-3.718,3.015-6.732,6.73-6.732c3.72,0,6.729,3.014,6.729,6.732C543.623,241.186,540.61,244.2,536.892,244.2z M536.892,192.2
	c-3.721,0-6.73-3.014-6.73-6.732c0-3.718,3.015-6.732,6.73-6.732c3.72,0,6.729,3.014,6.729,6.732
	C543.623,189.186,540.61,192.2,536.892,192.2z M536.892,140.2c-3.721,0-6.73-3.014-6.73-6.732c0-3.718,3.015-6.732,6.73-6.732
	c3.72,0,6.729,3.014,6.729,6.732C543.623,137.186,540.61,140.2,536.892,140.2z M536.892,88.2c-3.721,0-6.73-3.014-6.73-6.732
	c0-3.718,3.015-6.732,6.73-6.732c3.72,0,6.729,3.014,6.729,6.732C543.623,85.186,540.61,88.2,536.892,88.2z M593.462,400.199
	c-3.72,0-6.729-3.019-6.729-6.732c0-3.713,3.014-6.731,6.729-6.731c3.715,0,6.731,3.019,6.731,6.731
	C600.193,397.181,597.181,400.199,593.462,400.199z M593.462,348.199c-3.72,0-6.729-3.017-6.729-6.732
	c0-3.715,3.014-6.731,6.729-6.731c3.715,0,6.731,3.019,6.731,6.731C600.194,345.185,597.181,348.199,593.462,348.199z
	 M593.462,296.2c-3.72,0-6.729-3.014-6.729-6.732c0-3.718,3.014-6.732,6.729-6.732c3.715,0,6.731,3.014,6.731,6.732
	C600.194,293.186,597.181,296.2,593.462,296.2z M593.462,244.2c-3.72,0-6.729-3.014-6.729-6.732c0-3.718,3.014-6.732,6.729-6.732
	c3.715,0,6.731,3.014,6.731,6.732C600.194,241.186,597.181,244.2,593.462,244.2z M593.462,192.2c-3.72,0-6.729-3.014-6.729-6.732
	c0-3.718,3.014-6.732,6.729-6.732c3.715,0,6.731,3.014,6.731,6.732C600.194,189.186,597.181,192.2,593.462,192.2z M593.462,140.2
	c-3.72,0-6.729-3.014-6.729-6.732c0-3.718,3.014-6.732,6.729-6.732c3.715,0,6.731,3.014,6.731,6.732
	C600.194,137.186,597.181,140.2,593.462,140.2z M593.462,88.2c-3.72,0-6.729-3.014-6.729-6.732c0-3.718,3.014-6.732,6.729-6.732
	c3.715,0,6.731,3.014,6.731,6.732C600.194,85.186,597.181,88.2,593.462,88.2z M650.032,348.199c-3.719,0-6.731-3.017-6.731-6.732
	c0-3.715,3.018-6.731,6.731-6.731s6.73,3.019,6.73,6.731C656.762,345.185,653.751,348.199,650.032,348.199z M650.032,296.2
	c-3.719,0-6.731-3.014-6.731-6.732c0-3.718,3.018-6.732,6.731-6.732s6.73,3.014,6.73,6.732
	C656.762,293.186,653.751,296.2,650.032,296.2z M650.032,244.2c-3.719,0-6.731-3.014-6.731-6.732c0-3.718,3.018-6.732,6.731-6.732
	s6.73,3.014,6.73,6.732C656.762,241.186,653.751,244.2,650.032,244.2z M650.032,192.2c-3.719,0-6.731-3.014-6.731-6.732
	c0-3.718,3.018-6.732,6.731-6.732s6.73,3.014,6.73,6.732C656.762,189.186,653.751,192.2,650.032,192.2z M650.032,140.2
	c-3.719,0-6.731-3.014-6.731-6.732c0-3.718,3.018-6.732,6.731-6.732s6.73,3.014,6.73,6.732
	C656.762,137.186,653.751,140.2,650.032,140.2z M650.032,88.2c-3.719,0-6.731-3.014-6.731-6.732c0-3.718,3.018-6.732,6.731-6.732
	s6.73,3.014,6.73,6.732C656.762,85.186,653.751,88.2,650.032,88.2z M706.603,348.199c-3.721,0-6.729-3.017-6.729-6.732
	c0-3.715,3.015-6.731,6.729-6.731c3.72,0,6.729,3.019,6.729,6.731C713.335,345.185,710.321,348.199,706.603,348.199z M706.603,296.2
	c-3.721,0-6.729-3.014-6.729-6.732c0-3.718,3.015-6.732,6.729-6.732c3.72,0,6.729,3.014,6.729,6.732
	C713.335,293.186,710.321,296.2,706.603,296.2z M706.603,244.2c-3.721,0-6.729-3.014-6.729-6.732c0-3.718,3.015-6.732,6.729-6.732
	c3.72,0,6.729,3.014,6.729,6.732C713.335,241.186,710.321,244.2,706.603,244.2z M706.603,192.2c-3.721,0-6.729-3.014-6.729-6.732
	c0-3.718,3.015-6.732,6.729-6.732c3.72,0,6.729,3.014,6.729,6.732C713.335,189.186,710.321,192.2,706.603,192.2z M706.603,140.2
	c-3.721,0-6.729-3.014-6.729-6.732c0-3.718,3.015-6.732,6.729-6.732c3.72,0,6.729,3.014,6.729,6.732
	C713.335,137.186,710.321,140.2,706.603,140.2z M706.603,88.2c-3.721,0-6.729-3.014-6.729-6.732c0-3.718,3.015-6.732,6.729-6.732
	c3.72,0,6.729,3.014,6.729,6.732C713.335,85.186,710.321,88.2,706.603,88.2z M763.173,296.2c-3.72,0-6.729-3.014-6.729-6.732
	c0-3.718,3.014-6.732,6.729-6.732s6.731,3.014,6.731,6.732C769.905,293.186,766.892,296.2,763.173,296.2z M763.173,244.2
	c-3.72,0-6.729-3.014-6.729-6.732c0-3.718,3.014-6.732,6.729-6.732s6.731,3.014,6.731,6.732
	C769.905,241.186,766.892,244.2,763.173,244.2z M763.173,192.2c-3.72,0-6.729-3.014-6.729-6.732c0-3.718,3.014-6.732,6.729-6.732
	s6.731,3.014,6.731,6.732C769.905,189.186,766.892,192.2,763.173,192.2z M763.173,140.2c-3.72,0-6.729-3.014-6.729-6.732
	c0-3.718,3.014-6.732,6.729-6.732s6.731,3.014,6.731,6.732C769.905,137.186,766.892,140.2,763.173,140.2z M763.173,88.2
	c-3.72,0-6.729-3.014-6.729-6.732c0-3.718,3.014-6.732,6.729-6.732s6.731,3.014,6.731,6.732
	C769.905,85.186,766.892,88.2,763.173,88.2z M819.742,296.2c-3.719,0-6.731-3.014-6.731-6.732c0-3.718,3.018-6.732,6.731-6.732
	s6.729,3.014,6.729,6.732C826.475,293.186,823.462,296.2,819.742,296.2z M819.742,244.2c-3.719,0-6.731-3.014-6.731-6.732
	c0-3.718,3.018-6.732,6.731-6.732s6.729,3.014,6.729,6.732C826.475,241.186,823.462,244.2,819.742,244.2z M819.742,192.2
	c-3.719,0-6.731-3.014-6.731-6.732c0-3.718,3.018-6.732,6.731-6.732s6.729,3.014,6.729,6.732
	C826.475,189.186,823.462,192.2,819.742,192.2z M819.742,140.2c-3.719,0-6.731-3.014-6.731-6.732c0-3.718,3.018-6.732,6.731-6.732
	s6.729,3.014,6.729,6.732C826.475,137.186,823.462,140.2,819.742,140.2z M819.742,88.2c-3.719,0-6.731-3.014-6.731-6.732
	c0-3.718,3.018-6.732,6.731-6.732s6.729,3.014,6.729,6.732C826.475,85.186,823.462,88.2,819.742,88.2z M876.314,296.2
	c-3.723,0-6.731-3.014-6.731-6.732c0-3.718,3.015-6.732,6.731-6.732s6.729,3.014,6.729,6.732
	C883.045,293.186,880.032,296.2,876.314,296.2z M876.314,244.2c-3.723,0-6.731-3.014-6.731-6.732c0-3.718,3.015-6.732,6.731-6.732
	s6.729,3.014,6.729,6.732C883.045,241.186,880.032,244.2,876.314,244.2z M876.314,192.2c-3.723,0-6.731-3.014-6.731-6.732
	c0-3.718,3.015-6.732,6.731-6.732s6.729,3.014,6.729,6.732C883.045,189.186,880.032,192.2,876.314,192.2z M876.314,140.2
	c-3.723,0-6.731-3.014-6.731-6.732c0-3.718,3.015-6.732,6.731-6.732s6.729,3.014,6.729,6.732
	C883.045,137.186,880.032,140.2,876.314,140.2z M932.884,244.2c-3.72,0-6.729-3.014-6.729-6.732c0-3.718,3.015-6.732,6.729-6.732
	c3.721,0,6.731,3.014,6.731,6.732C939.616,241.186,936.603,244.2,932.884,244.2z"/>
</svg>
