<?xml version="1.0" encoding="utf-8"?>
<!-- Generator: Adobe Illustrator 16.0.0, SVG Export Plug-In . SVG Version: 6.00 Build 0)  -->
<!DOCTYPE svg PUBLIC "-//W3C//DTD SVG 1.1//EN" "http://www.w3.org/Graphics/SVG/1.1/DTD/svg11.dtd">
<svg version="1.1" id="Layer_1" xmlns="http://www.w3.org/2000/svg" xmlns:xlink="http://www.w3.org/1999/xlink" x="0px" y="0px"
	 width="1037.895px" height="647.191px" viewBox="0 0 1037.895 647.191" enable-background="new 0 0 1037.895 647.191"
	 xml:space="preserve">
<path fill="none" stroke="#000000" stroke-linejoin="round" stroke-miterlimit="10" d="M90.121,608.199
	c-3.719,0-6.732-3.02-6.732-6.732s3.014-6.729,6.732-6.729c3.718,0,6.732,3.015,6.732,6.729S93.84,608.199,90.121,608.199z
	 M146.692,556.199c-3.719,0-6.732-3.02-6.732-6.732s3.014-6.729,6.732-6.729c3.718,0,6.732,3.015,6.732,6.729
	S150.41,556.199,146.692,556.199z M146.692,504.199c-3.719,0-6.732-3.02-6.732-6.732s3.014-6.729,6.732-6.729
	c3.718,0,6.732,3.015,6.732,6.729S150.41,504.199,146.692,504.199z M146.692,452.199c-3.719,0-6.732-3.02-6.732-6.732
	s3.014-6.729,6.732-6.729c3.718,0,6.732,3.015,6.732,6.729S150.41,452.199,146.692,452.199z M203.262,556.199
	c-3.719,0-6.732-3.02-6.732-6.732s3.014-6.729,6.732-6.729c3.718,0,6.732,3.015,6.732,6.729S206.981,556.199,203.262,556.199z
	 M203.262,504.199c-3.719,0-6.732-3.02-6.732-6.732s3.014-6.729,6.732-6.729c3.718,0,6.732,3.015,6.732,6.729
	S206.981,504.199,203.262,504.199z M203.262,452.199c-3.719,0-6.732-3.02-6.732-6.732s3.014-6.729,6.732-6.729
	c3.718,0,6.732,3.015,6.732,6.729S206.981,452.199,203.262,452.199z M203.262,400.199c-3.719,0-6.732-3.02-6.732-6.732
	s3.014-6.732,6.732-6.732c3.718,0,6.732,3.02,6.732,6.732S206.981,400.199,203.262,400.199z M203.262,334.734
	c3.718,0,6.732,3.015,6.732,6.732c0,3.719-3.014,6.732-6.732,6.732c-3.718,0-6.732-3.014-6.732-6.732
	C196.53,337.749,199.544,334.734,203.262,334.734z M259.833,556.199c-3.719,0-6.732-3.02-6.732-6.732s3.014-6.729,6.732-6.729
	s6.732,3.015,6.732,6.729S263.551,556.199,259.833,556.199z M259.833,504.199c-3.719,0-6.732-3.02-6.732-6.732
	s3.014-6.729,6.732-6.729s6.732,3.015,6.732,6.729S263.551,504.199,259.833,504.199z M259.833,452.199
	c-3.719,0-6.732-3.02-6.732-6.732s3.014-6.729,6.732-6.729s6.732,3.015,6.732,6.729S263.551,452.199,259.833,452.199z
	 M259.833,400.199c-3.719,0-6.732-3.02-6.732-6.732s3.014-6.732,6.732-6.732s6.732,3.02,6.732,6.732
	S263.551,400.199,259.833,400.199z M259.833,334.734c3.718,0,6.732,3.015,6.732,6.732c0,3.719-3.014,6.732-6.732,6.732
	s-6.732-3.014-6.732-6.732C253.101,337.749,256.115,334.734,259.833,334.734z M259.833,282.735c3.718,0,6.732,3.014,6.732,6.732
	c0,3.718-3.014,6.732-6.732,6.732s-6.732-3.014-6.732-6.732C253.101,285.749,256.115,282.735,259.833,282.735z M259.833,230.735
	c3.718,0,6.732,3.014,6.732,6.732c0,3.718-3.014,6.732-6.732,6.732s-6.732-3.014-6.732-6.732
	C253.101,233.749,256.115,230.735,259.833,230.735z M259.833,126.735c3.718,0,6.732,3.014,6.732,6.732
	c0,3.718-3.014,6.732-6.732,6.732s-6.732-3.014-6.732-6.732C253.101,129.749,256.115,126.735,259.833,126.735z M259.833,74.735
	c3.718,0,6.732,3.014,6.732,6.732c0,3.718-3.014,6.732-6.732,6.732s-6.732-3.014-6.732-6.732
	C253.101,77.749,256.115,74.735,259.833,74.735z M316.403,504.199c-3.722,0-6.732-3.02-6.732-6.732s3.014-6.729,6.732-6.729
	c3.718,0,6.729,3.015,6.729,6.729S320.121,504.199,316.403,504.199z M316.403,452.199c-3.722,0-6.732-3.02-6.732-6.732
	s3.014-6.729,6.732-6.729c3.718,0,6.729,3.015,6.729,6.729S320.121,452.199,316.403,452.199z M316.403,400.199
	c-3.722,0-6.732-3.02-6.732-6.732s3.014-6.732,6.732-6.732c3.718,0,6.729,3.02,6.729,6.732S320.121,400.199,316.403,400.199z
	 M316.403,334.734c3.718,0,6.731,3.015,6.731,6.732c0,3.719-3.014,6.732-6.731,6.732c-3.719,0-6.732-3.014-6.732-6.732
	C309.671,337.749,312.685,334.734,316.403,334.734z M316.403,282.735c3.718,0,6.731,3.014,6.731,6.732
	c0,3.718-3.014,6.732-6.731,6.732c-3.719,0-6.732-3.014-6.732-6.732C309.671,285.749,312.685,282.735,316.403,282.735z
	 M316.403,230.735c3.718,0,6.731,3.014,6.731,6.732c0,3.718-3.014,6.732-6.731,6.732c-3.719,0-6.732-3.014-6.732-6.732
	C309.671,233.749,312.685,230.735,316.403,230.735z M316.403,178.735c3.718,0,6.731,3.014,6.731,6.732
	c0,3.718-3.014,6.732-6.731,6.732c-3.719,0-6.732-3.014-6.732-6.732C309.671,181.749,312.685,178.735,316.403,178.735z
	 M316.403,126.735c3.718,0,6.731,3.014,6.731,6.732c0,3.718-3.014,6.732-6.731,6.732c-3.719,0-6.732-3.014-6.732-6.732
	C309.671,129.749,312.685,126.735,316.403,126.735z M316.403,74.735c3.718,0,6.731,3.014,6.731,6.732
	c0,3.718-3.014,6.732-6.731,6.732c-3.719,0-6.732-3.014-6.732-6.732C309.671,77.749,312.685,74.735,316.403,74.735z
	 M372.974,504.199c-3.721,0-6.729-3.02-6.729-6.732s3.014-6.729,6.729-6.729c3.721,0,6.73,3.015,6.73,6.729
	S376.692,504.199,372.974,504.199z M372.974,452.199c-3.721,0-6.729-3.02-6.729-6.732s3.014-6.729,6.729-6.729
	c3.721,0,6.73,3.015,6.73,6.729S376.692,452.199,372.974,452.199z M372.974,400.199c-3.721,0-6.729-3.02-6.729-6.732
	s3.014-6.732,6.729-6.732c3.721,0,6.73,3.02,6.73,6.732S376.692,400.199,372.974,400.199z M372.974,348.199
	c-3.721,0-6.729-3.016-6.729-6.732c0-3.716,3.014-6.732,6.729-6.732c3.721,0,6.73,3.02,6.73,6.732
	C379.704,345.184,376.692,348.199,372.974,348.199z M372.974,296.199c-3.721,0-6.729-3.014-6.729-6.732
	c0-3.718,3.014-6.732,6.729-6.732c3.721,0,6.73,3.014,6.73,6.732C379.705,293.185,376.692,296.199,372.974,296.199z
	 M372.974,244.199c-3.721,0-6.729-3.014-6.729-6.732c0-3.718,3.014-6.732,6.729-6.732c3.721,0,6.73,3.014,6.73,6.732
	C379.705,241.185,376.692,244.199,372.974,244.199z M372.974,192.199c-3.721,0-6.729-3.014-6.729-6.732
	c0-3.718,3.014-6.732,6.729-6.732c3.721,0,6.73,3.014,6.73,6.732C379.705,189.185,376.692,192.199,372.974,192.199z
	 M372.974,140.199c-3.721,0-6.729-3.014-6.729-6.732c0-3.718,3.014-6.732,6.729-6.732c3.721,0,6.73,3.014,6.73,6.732
	C379.705,137.185,376.692,140.199,372.974,140.199z M372.974,88.199c-3.721,0-6.729-3.014-6.729-6.732
	c0-3.718,3.014-6.732,6.729-6.732c3.721,0,6.73,3.014,6.73,6.732C379.705,85.185,376.692,88.199,372.974,88.199z M372.974,36.199
	c-3.721,0-6.729-3.014-6.729-6.732c0-3.718,3.014-6.732,6.729-6.732c3.721,0,6.73,3.014,6.73,6.732
	C379.705,33.185,376.692,36.199,372.974,36.199z M429.543,452.199c-3.719,0-6.73-3.02-6.73-6.732s3.017-6.729,6.73-6.729
	c3.72,0,6.732,3.015,6.732,6.729S433.263,452.199,429.543,452.199z M429.543,400.199c-3.719,0-6.73-3.02-6.73-6.732
	s3.017-6.732,6.73-6.732c3.72,0,6.732,3.02,6.732,6.732S433.263,400.199,429.543,400.199z M429.543,334.734
	c3.718,0,6.732,3.015,6.732,6.732c0,3.719-3.015,6.732-6.732,6.732s-6.732-3.014-6.732-6.732
	C422.811,337.749,425.825,334.734,429.543,334.734z M429.543,282.735c3.718,0,6.732,3.014,6.732,6.732
	c0,3.718-3.015,6.732-6.732,6.732s-6.732-3.014-6.732-6.732C422.811,285.749,425.825,282.735,429.543,282.735z M429.543,230.735
	c3.718,0,6.732,3.014,6.732,6.732c0,3.718-3.015,6.732-6.732,6.732s-6.732-3.014-6.732-6.732
	C422.811,233.749,425.825,230.735,429.543,230.735z M429.543,178.735c3.718,0,6.732,3.014,6.732,6.732
	c0,3.718-3.015,6.732-6.732,6.732s-6.732-3.014-6.732-6.732C422.811,181.749,425.825,178.735,429.543,178.735z M429.543,126.735
	c3.718,0,6.732,3.014,6.732,6.732c0,3.718-3.015,6.732-6.732,6.732s-6.732-3.014-6.732-6.732
	C422.811,129.749,425.825,126.735,429.543,126.735z M429.543,74.735c3.718,0,6.732,3.014,6.732,6.732
	c0,3.718-3.015,6.732-6.732,6.732s-6.732-3.014-6.732-6.732C422.811,77.749,425.825,74.735,429.543,74.735z M429.543,22.735
	c3.718,0,6.732,3.014,6.732,6.732c0,3.718-3.015,6.732-6.732,6.732s-6.732-3.014-6.732-6.732
	C422.811,25.749,425.825,22.735,429.543,22.735z M486.113,452.199c-3.722,0-6.732-3.02-6.732-6.732s3.019-6.729,6.732-6.729
	s6.729,3.015,6.729,6.729S489.832,452.199,486.113,452.199z M486.113,400.199c-3.722,0-6.732-3.02-6.732-6.732
	s3.019-6.732,6.732-6.732s6.729,3.02,6.729,6.732S489.832,400.199,486.113,400.199z M486.113,348.199
	c-3.722,0-6.732-3.016-6.732-6.732c0-3.716,3.019-6.732,6.732-6.732s6.729,3.02,6.729,6.732
	C492.846,345.184,489.832,348.199,486.113,348.199z M486.113,296.199c-3.722,0-6.732-3.014-6.732-6.732
	c0-3.718,3.019-6.732,6.732-6.732s6.729,3.014,6.729,6.732C492.846,293.185,489.832,296.199,486.113,296.199z M486.113,244.199
	c-3.722,0-6.732-3.014-6.732-6.732c0-3.718,3.019-6.732,6.732-6.732s6.729,3.014,6.729,6.732
	C492.846,241.185,489.832,244.199,486.113,244.199z M486.113,192.199c-3.722,0-6.732-3.014-6.732-6.732
	c0-3.718,3.019-6.732,6.732-6.732s6.729,3.014,6.729,6.732C492.846,189.185,489.832,192.199,486.113,192.199z M486.113,140.199
	c-3.722,0-6.732-3.014-6.732-6.732c0-3.718,3.019-6.732,6.732-6.732s6.729,3.014,6.729,6.732
	C492.846,137.185,489.832,140.199,486.113,140.199z M486.113,88.199c-3.722,0-6.732-3.014-6.732-6.732
	c0-3.718,3.019-6.732,6.732-6.732s6.729,3.014,6.729,6.732C492.846,85.185,489.832,88.199,486.113,88.199z M542.685,400.199
	c-3.721,0-6.729-3.02-6.729-6.732s3.016-6.732,6.729-6.732c3.719,0,6.73,3.02,6.73,6.732S546.402,400.199,542.685,400.199z
	 M542.685,348.199c-3.721,0-6.729-3.016-6.729-6.732c0-3.716,3.016-6.732,6.729-6.732c3.719,0,6.73,3.02,6.73,6.732
	C549.415,345.184,546.402,348.199,542.685,348.199z M542.685,296.199c-3.721,0-6.729-3.014-6.729-6.732
	c0-3.718,3.016-6.732,6.729-6.732c3.719,0,6.73,3.014,6.73,6.732C549.416,293.185,546.402,296.199,542.685,296.199z
	 M542.685,244.199c-3.721,0-6.729-3.014-6.729-6.732c0-3.718,3.016-6.732,6.729-6.732c3.719,0,6.73,3.014,6.73,6.732
	C549.416,241.185,546.402,244.199,542.685,244.199z M542.685,192.199c-3.721,0-6.729-3.014-6.729-6.732
	c0-3.718,3.016-6.732,6.729-6.732c3.719,0,6.73,3.014,6.73,6.732C549.416,189.185,546.402,192.199,542.685,192.199z
	 M542.685,140.199c-3.721,0-6.729-3.014-6.729-6.732c0-3.718,3.016-6.732,6.729-6.732c3.719,0,6.73,3.014,6.73,6.732
	C549.416,137.185,546.402,140.199,542.685,140.199z M542.685,88.199c-3.721,0-6.729-3.014-6.729-6.732
	c0-3.718,3.016-6.732,6.729-6.732c3.719,0,6.73,3.014,6.73,6.732C549.416,85.185,546.402,88.199,542.685,88.199z M599.254,400.199
	c-3.719,0-6.729-3.02-6.729-6.732s3.014-6.732,6.729-6.732c3.72,0,6.732,3.02,6.732,6.732S602.973,400.199,599.254,400.199z
	 M599.254,348.199c-3.719,0-6.729-3.016-6.729-6.732c0-3.716,3.014-6.732,6.729-6.732c3.72,0,6.732,3.02,6.732,6.732
	C605.986,345.184,602.973,348.199,599.254,348.199z M599.254,296.199c-3.719,0-6.729-3.014-6.729-6.732
	c0-3.718,3.014-6.732,6.729-6.732c3.72,0,6.732,3.014,6.732,6.732C605.986,293.185,602.973,296.199,599.254,296.199z
	 M599.254,244.199c-3.719,0-6.729-3.014-6.729-6.732c0-3.718,3.014-6.732,6.729-6.732c3.72,0,6.732,3.014,6.732,6.732
	C605.986,241.185,602.973,244.199,599.254,244.199z M599.254,192.199c-3.719,0-6.729-3.014-6.729-6.732
	c0-3.718,3.014-6.732,6.729-6.732c3.72,0,6.732,3.014,6.732,6.732C605.986,189.185,602.973,192.199,599.254,192.199z
	 M599.254,140.199c-3.719,0-6.729-3.014-6.729-6.732c0-3.718,3.014-6.732,6.729-6.732c3.72,0,6.732,3.014,6.732,6.732
	C605.986,137.185,602.973,140.199,599.254,140.199z M599.254,88.199c-3.719,0-6.729-3.014-6.729-6.732
	c0-3.718,3.014-6.732,6.729-6.732c3.72,0,6.732,3.014,6.732,6.732C605.986,85.185,602.973,88.199,599.254,88.199z M655.824,400.199
	c-3.719,0-6.73-3.02-6.73-6.732s3.017-6.732,6.73-6.732s6.729,3.02,6.729,6.732S659.543,400.199,655.824,400.199z M655.824,334.734
	c3.718,0,6.731,3.015,6.731,6.732c0,3.719-3.014,6.732-6.731,6.732s-6.732-3.014-6.732-6.732
	C649.092,337.749,652.106,334.734,655.824,334.734z M655.824,282.735c3.718,0,6.731,3.014,6.731,6.732
	c0,3.718-3.014,6.732-6.731,6.732s-6.732-3.014-6.732-6.732C649.092,285.749,652.106,282.735,655.824,282.735z M655.824,230.735
	c3.718,0,6.731,3.014,6.731,6.732c0,3.718-3.014,6.732-6.731,6.732s-6.732-3.014-6.732-6.732
	C649.092,233.749,652.106,230.735,655.824,230.735z M655.824,178.735c3.718,0,6.731,3.014,6.731,6.732
	c0,3.718-3.014,6.732-6.731,6.732s-6.732-3.014-6.732-6.732C649.092,181.749,652.106,178.735,655.824,178.735z M655.824,126.735
	c3.718,0,6.731,3.014,6.731,6.732c0,3.718-3.014,6.732-6.731,6.732s-6.732-3.014-6.732-6.732
	C649.092,129.749,652.106,126.735,655.824,126.735z M655.824,74.735c3.718,0,6.731,3.014,6.731,6.732
	c0,3.718-3.014,6.732-6.731,6.732s-6.732-3.014-6.732-6.732C649.092,77.749,652.106,74.735,655.824,74.735z M712.395,334.734
	c3.719,0,6.732,3.015,6.732,6.732c0,3.719-3.014,6.732-6.732,6.732c-3.718,0-6.731-3.014-6.731-6.732
	C705.663,337.749,708.677,334.734,712.395,334.734z M712.395,282.735c3.719,0,6.732,3.014,6.732,6.732
	c0,3.718-3.014,6.732-6.732,6.732c-3.718,0-6.731-3.014-6.731-6.732C705.663,285.749,708.677,282.735,712.395,282.735z
	 M712.395,230.735c3.719,0,6.732,3.014,6.732,6.732c0,3.718-3.014,6.732-6.732,6.732c-3.718,0-6.731-3.014-6.731-6.732
	C705.663,233.749,708.677,230.735,712.395,230.735z M712.395,178.735c3.719,0,6.732,3.014,6.732,6.732
	c0,3.718-3.014,6.732-6.732,6.732c-3.718,0-6.731-3.014-6.731-6.732C705.663,181.749,708.677,178.735,712.395,178.735z
	 M712.395,126.735c3.719,0,6.732,3.014,6.732,6.732c0,3.718-3.014,6.732-6.732,6.732c-3.718,0-6.731-3.014-6.731-6.732
	C705.663,129.749,708.677,126.735,712.395,126.735z M712.395,74.735c3.719,0,6.732,3.014,6.732,6.732
	c0,3.718-3.014,6.732-6.732,6.732c-3.718,0-6.731-3.014-6.731-6.732C705.663,77.749,708.677,74.735,712.395,74.735z
	 M768.965,348.199c-3.719,0-6.729-3.016-6.729-6.732c0-3.716,3.014-6.732,6.729-6.732c3.72,0,6.732,3.02,6.732,6.732
	C775.697,345.184,772.684,348.199,768.965,348.199z M768.965,296.199c-3.719,0-6.729-3.014-6.729-6.732
	c0-3.718,3.014-6.732,6.729-6.732c3.72,0,6.732,3.014,6.732,6.732C775.697,293.185,772.684,296.199,768.965,296.199z
	 M768.965,244.199c-3.719,0-6.729-3.014-6.729-6.732c0-3.718,3.014-6.732,6.729-6.732c3.72,0,6.732,3.014,6.732,6.732
	C775.697,241.185,772.684,244.199,768.965,244.199z M768.965,192.199c-3.719,0-6.729-3.014-6.729-6.732
	c0-3.718,3.014-6.732,6.729-6.732c3.72,0,6.732,3.014,6.732,6.732C775.697,189.185,772.684,192.199,768.965,192.199z
	 M768.965,140.199c-3.719,0-6.729-3.014-6.729-6.732c0-3.718,3.014-6.732,6.729-6.732c3.72,0,6.732,3.014,6.732,6.732
	C775.697,137.185,772.684,140.199,768.965,140.199z M768.965,88.199c-3.719,0-6.729-3.014-6.729-6.732
	c0-3.718,3.014-6.732,6.729-6.732c3.72,0,6.732,3.014,6.732,6.732C775.697,85.185,772.684,88.199,768.965,88.199z M825.535,282.735
	c3.718,0,6.731,3.014,6.731,6.732c0,3.718-3.014,6.732-6.731,6.732s-6.732-3.014-6.732-6.732
	C818.803,285.749,821.817,282.735,825.535,282.735z M825.535,230.735c3.718,0,6.731,3.014,6.731,6.732
	c0,3.718-3.014,6.732-6.731,6.732s-6.732-3.014-6.732-6.732C818.803,233.749,821.817,230.735,825.535,230.735z M825.535,178.735
	c3.718,0,6.731,3.014,6.731,6.732c0,3.718-3.014,6.732-6.731,6.732s-6.732-3.014-6.732-6.732
	C818.803,181.749,821.817,178.735,825.535,178.735z M825.535,126.735c3.718,0,6.731,3.014,6.731,6.732
	c0,3.718-3.014,6.732-6.731,6.732s-6.732-3.014-6.732-6.732C818.803,129.749,821.817,126.735,825.535,126.735z M825.535,74.735
	c3.718,0,6.731,3.014,6.731,6.732c0,3.718-3.014,6.732-6.731,6.732s-6.732-3.014-6.732-6.732
	C818.803,77.749,821.817,74.735,825.535,74.735z M882.105,296.199c-3.722,0-6.732-3.014-6.732-6.732
	c0-3.718,3.016-6.732,6.732-6.732c3.716,0,6.729,3.014,6.729,6.732C888.837,293.185,885.824,296.199,882.105,296.199z
	 M882.105,244.199c-3.722,0-6.732-3.014-6.732-6.732c0-3.718,3.016-6.732,6.732-6.732c3.716,0,6.729,3.014,6.729,6.732
	C888.837,241.185,885.824,244.199,882.105,244.199z M882.105,192.199c-3.722,0-6.732-3.014-6.732-6.732
	c0-3.718,3.016-6.732,6.732-6.732c3.716,0,6.729,3.014,6.729,6.732C888.837,189.185,885.824,192.199,882.105,192.199z
	 M882.105,140.199c-3.722,0-6.732-3.014-6.732-6.732c0-3.718,3.016-6.732,6.732-6.732c3.716,0,6.729,3.014,6.729,6.732
	C888.837,137.185,885.824,140.199,882.105,140.199z M882.105,88.199c-3.722,0-6.732-3.014-6.732-6.732
	c0-3.718,3.016-6.732,6.732-6.732c3.716,0,6.729,3.014,6.729,6.732C888.837,85.185,885.824,88.199,882.105,88.199z M938.676,296.199
	c-3.721,0-6.729-3.014-6.729-6.732c0-3.718,3.014-6.732,6.729-6.732c3.719,0,6.73,3.014,6.73,6.732
	C945.407,293.185,942.395,296.199,938.676,296.199z M938.676,244.199c-3.721,0-6.729-3.014-6.729-6.732
	c0-3.718,3.014-6.732,6.729-6.732c3.719,0,6.73,3.014,6.73,6.732C945.407,241.185,942.395,244.199,938.676,244.199z
	 M938.676,192.199c-3.721,0-6.729-3.014-6.729-6.732c0-3.718,3.014-6.732,6.729-6.732c3.719,0,6.73,3.014,6.73,6.732
	C945.407,189.185,942.395,192.199,938.676,192.199z M938.676,140.199c-3.721,0-6.729-3.014-6.729-6.732
	c0-3.718,3.014-6.732,6.729-6.732c3.719,0,6.73,3.014,6.73,6.732C945.407,137.185,942.395,140.199,938.676,140.199z
	 M995.246,230.735c3.718,0,6.732,3.014,6.732,6.732c0,3.718-3.015,6.732-6.732,6.732s-6.732-3.014-6.732-6.732
	C988.514,233.749,991.528,230.735,995.246,230.735z M56.084,597.247c2.677,1.692,5.58,2.608,8.324,0.483
	c2.35-5.98,6.165-13.972,8.397-20.106c0.912-2.505,9.349-24.212,14.135-36.271l6.063-15.271
	c5.775-14.445,11.64-29.882,17.635-46.183c7.351-19.989,15.607-39.639,22.775-59.695c0.417-1.167,2.561-7.315,6.324-18.565
	c10.921-32.652,26.411-63.599,37.223-96.29c2.594-7.842,4.212-17.46,9.95-23.697c15.193-16.517,40.748-18.239,48.313-42.339
	c3.397-10.82,6.747-21.622,10.731-32.248c2.575-6.867,7.712-17.493,2.339-24.26c-4.368-5.498-14.07-4.823-20.24-6.825
	c-13.339-4.328-19.768-15.472-16.534-29.185c2.311-9.803,5.493-19.384,8.618-28.951c2.642-8.09,3.765-16.822,6.236-25.729
	c1.155-4.165,2.857-10.666,3.011-11.261c4.166-16.107,82.41-52.62,127.074-72.505c6.511-2.899,15.089-5.338,22.786-7.526
	c7.966-2.265,20.145,0.617,29.953,2.937c12.356,2.923,28.247,5.892,47.773,9.023c40.872,6.553,82.096,10.699,122.96,17.29
	c3.92,0.632,41.555,5.782,62.334,8.626c74.111,10.142,148.68,16.4,223.328,20.942c17.128,1.042,34.273,1.963,51.377,3.338
	c13.458,1.082,28.419,0.667,37.957,12.188c3.474,4.199,5.763,9.246,7.699,14.44c1.903,5.1,3.472,10.341,5.501,15.062
	c11.035,25.69,21.367,51.712,31.865,77.625c11.923,29.442,23.816,58.898,35.564,88.411c3.344,8.394,3.306,15.589-1.479,22.186
	c-18.615,2.973-36.44,0.749-50.704,5.957C687.44,406.907,527.461,470.558,97.793,628.767c-2.074,0.765-12.911-5.557-22.201-12.104
	c-4.731-1.847-11.214-5.319-13.316,1.688c-1.197,16.128-14.661,28.843-31.094,28.843C13.96,647.192,0,633.231,0,616.011
	c0-17.22,13.96-31.181,31.181-31.181c10.174,0,19.21,4.873,24.902,12.413L56.084,597.247z"/>
</svg>
