<?xml version="1.0" encoding="utf-8"?>
<!-- Generator: Adobe Illustrator 16.0.0, SVG Export Plug-In . SVG Version: 6.00 Build 0)  -->
<!DOCTYPE svg PUBLIC "-//W3C//DTD SVG 1.1//EN" "http://www.w3.org/Graphics/SVG/1.1/DTD/svg11.dtd">
<svg version="1.1" id="Layer_1" xmlns="http://www.w3.org/2000/svg" xmlns:xlink="http://www.w3.org/1999/xlink" x="0px" y="0px"
	 width="1041px" height="635.464px" viewBox="0 0 1041 635.464" enable-background="new 0 0 1041 635.464" xml:space="preserve">
<path fill="none" stroke="#000000" stroke-linejoin="round" stroke-miterlimit="10" d="M953.442,538.417l-6.212-15.213
	c-5.916-14.385-11.934-29.771-18.084-46.01c-7.549-19.916-15.991-39.482-23.354-59.477c-0.43-1.161-2.633-7.289-6.506-18.502
	c-11.238-32.543-27.029-63.338-38.158-95.918c-2.428-7.107-4.24-14.554-8.146-21.046c-4.658-7.737-11.855-11.058-19.877-14.495
	c-4.021-1.72-8.025-3.498-11.841-5.646c-7.146-4.028-14.719-9.834-17.061-18.082c-0.918-3.23-1.943-6.443-2.885-9.664
	c-0.931-3.164-2.355-8.035-4.236-14.521c-1.131-3.902-3.451-7.334-4.781-11.164c-2.319-6.679-6.209-15.001-6.078-22.219
	c0.164-8.957,10.688-9.535,17.271-10.77c26.77-5.019,24.104-23.369,17.334-45.05c-1.51-4.833-3.088-9.628-4.705-14.424
	c-2.719-8.06-3.926-16.78-6.484-25.663c-1.192-4.154-2.961-10.637-3.12-11.231C802.196,63.26,723.6,27.511,678.747,8.062
	c-6.539-2.835-15.141-5.19-22.859-7.304c-7.983-2.187-20.139,0.813-29.922,3.229c-12.33,3.044-28.188,6.167-47.688,9.488
	c-40.81,6.951-81.984,11.498-122.785,18.487c-3.915,0.67-41.495,6.188-62.249,9.234c-74.01,10.863-148.51,17.848-223.114,23.116
	c-17.122,1.21-34.253,2.344-51.353,3.836c-9.312,0.812-19.757,0.808-28.281,5.142C81.318,77.957,78.2,86.673,74.242,95.54
	C66.84,112.116,25.855,216.019,2.236,277.005c-3.266,8.433-3.16,15.633,1.689,22.185c18.645,2.791,36.448,0.395,50.759,5.463
	C351.66,409.826,512.25,471.917,943.442,625.929c3.354,1.197,29.272-16.219,34.924-23.135c1.891-2.316-6.562-17.912-10.438-28.25
	C966.995,572.046,958.346,550.423,953.442,538.417z M45.493,241.727c-3.719,0-6.732-3.014-6.732-6.732
	c0-3.718,3.014-6.732,6.732-6.732c3.718,0,6.732,3.014,6.732,6.732C52.225,238.712,49.211,241.727,45.493,241.727z M102.063,293.727
	c-3.719,0-6.732-3.014-6.732-6.732c0-3.718,3.014-6.732,6.732-6.732c3.718,0,6.732,3.014,6.732,6.732
	C108.795,290.712,105.782,293.727,102.063,293.727z M102.063,241.727c-3.719,0-6.732-3.014-6.732-6.732
	c0-3.718,3.014-6.732,6.732-6.732c3.718,0,6.732,3.014,6.732,6.732C108.795,238.712,105.782,241.727,102.063,241.727z
	 M102.063,189.727c-3.719,0-6.732-3.014-6.732-6.732c0-3.718,3.014-6.732,6.732-6.732c3.718,0,6.732,3.014,6.732,6.732
	C108.795,186.712,105.782,189.727,102.063,189.727z M102.063,137.727c-3.719,0-6.732-3.014-6.732-6.732
	c0-3.718,3.014-6.732,6.732-6.732c3.718,0,6.732,3.014,6.732,6.732C108.795,134.712,105.782,137.727,102.063,137.727z
	 M158.633,293.727c-3.719,0-6.732-3.014-6.732-6.732c0-3.718,3.014-6.732,6.732-6.732c3.718,0,6.732,3.014,6.732,6.732
	C165.365,290.712,162.352,293.727,158.633,293.727z M158.633,241.727c-3.719,0-6.732-3.014-6.732-6.732
	c0-3.718,3.014-6.732,6.732-6.732c3.718,0,6.732,3.014,6.732,6.732C165.365,238.712,162.352,241.727,158.633,241.727z
	 M158.633,189.727c-3.719,0-6.732-3.014-6.732-6.732c0-3.718,3.014-6.732,6.732-6.732c3.718,0,6.732,3.014,6.732,6.732
	C165.365,186.712,162.352,189.727,158.633,189.727z M158.633,137.727c-3.719,0-6.732-3.014-6.732-6.732
	c0-3.718,3.014-6.732,6.732-6.732c3.718,0,6.732,3.014,6.732,6.732C165.365,134.712,162.352,137.727,158.633,137.727z
	 M215.204,345.727c-3.719,0-6.732-3.015-6.732-6.731c0-3.72,3.014-6.729,6.732-6.729c3.718,0,6.732,3.015,6.732,6.729
	C221.936,342.712,218.922,345.727,215.204,345.727z M215.204,293.727c-3.719,0-6.732-3.014-6.732-6.732
	c0-3.718,3.014-6.732,6.732-6.732c3.718,0,6.732,3.014,6.732,6.732C221.936,290.712,218.922,293.727,215.204,293.727z
	 M215.204,241.727c-3.719,0-6.732-3.014-6.732-6.732c0-3.718,3.014-6.732,6.732-6.732c3.718,0,6.732,3.014,6.732,6.732
	C221.936,238.712,218.922,241.727,215.204,241.727z M215.204,189.727c-3.719,0-6.732-3.014-6.732-6.732
	c0-3.718,3.014-6.732,6.732-6.732c3.718,0,6.732,3.014,6.732,6.732C221.936,186.712,218.922,189.727,215.204,189.727z
	 M215.204,137.727c-3.719,0-6.732-3.014-6.732-6.732c0-3.718,3.014-6.732,6.732-6.732c3.718,0,6.732,3.014,6.732,6.732
	C221.936,134.712,218.922,137.727,215.204,137.727z M215.204,85.727c-3.719,0-6.732-3.014-6.732-6.732
	c0-3.718,3.014-6.732,6.732-6.732c3.718,0,6.732,3.014,6.732,6.732C221.936,82.712,218.922,85.727,215.204,85.727z M271.774,345.727
	c-3.719,0-6.732-3.015-6.732-6.731c0-3.72,3.014-6.729,6.732-6.729c3.718,0,6.732,3.015,6.732,6.729
	C278.506,342.712,275.493,345.727,271.774,345.727z M271.774,293.727c-3.719,0-6.732-3.014-6.732-6.732
	c0-3.718,3.014-6.732,6.732-6.732c3.718,0,6.732,3.014,6.732,6.732C278.506,290.712,275.493,293.727,271.774,293.727z
	 M271.774,241.727c-3.719,0-6.732-3.014-6.732-6.732c0-3.718,3.014-6.732,6.732-6.732c3.718,0,6.732,3.014,6.732,6.732
	C278.506,238.712,275.493,241.727,271.774,241.727z M271.774,189.727c-3.719,0-6.732-3.014-6.732-6.732
	c0-3.718,3.014-6.732,6.732-6.732c3.718,0,6.732,3.014,6.732,6.732C278.506,186.712,275.493,189.727,271.774,189.727z
	 M271.774,137.727c-3.719,0-6.732-3.014-6.732-6.732c0-3.718,3.014-6.732,6.732-6.732c3.718,0,6.732,3.014,6.732,6.732
	C278.506,134.712,275.493,137.727,271.774,137.727z M271.774,85.727c-3.719,0-6.732-3.014-6.732-6.732
	c0-3.718,3.014-6.732,6.732-6.732c3.718,0,6.732,3.014,6.732,6.732C278.506,82.712,275.493,85.727,271.774,85.727z M328.344,345.727
	c-3.719,0-6.729-3.015-6.729-6.731c0-3.72,3.014-6.729,6.729-6.729s6.732,3.015,6.732,6.729
	C335.076,342.712,332.062,345.727,328.344,345.727z M328.344,293.727c-3.719,0-6.729-3.014-6.729-6.732
	c0-3.718,3.014-6.732,6.729-6.732s6.732,3.014,6.732,6.732C335.076,290.712,332.062,293.727,328.344,293.727z M328.344,241.727
	c-3.719,0-6.729-3.014-6.729-6.732c0-3.718,3.014-6.732,6.729-6.732s6.732,3.014,6.732,6.732
	C335.076,238.712,332.062,241.727,328.344,241.727z M328.344,189.727c-3.719,0-6.729-3.014-6.729-6.732
	c0-3.718,3.014-6.732,6.729-6.732s6.732,3.014,6.732,6.732C335.076,186.712,332.062,189.727,328.344,189.727z M328.344,137.727
	c-3.719,0-6.729-3.014-6.729-6.732c0-3.718,3.014-6.732,6.729-6.732s6.732,3.014,6.732,6.732
	C335.076,134.712,332.062,137.727,328.344,137.727z M328.344,85.727c-3.719,0-6.729-3.014-6.729-6.732
	c0-3.718,3.014-6.732,6.729-6.732s6.732,3.014,6.732,6.732C335.076,82.712,332.062,85.727,328.344,85.727z M384.915,397.726
	c-3.719,0-6.732-3.014-6.732-6.73c0-3.72,3.018-6.729,6.732-6.729s6.732,3.015,6.732,6.729
	C391.647,394.712,388.633,397.726,384.915,397.726z M384.915,345.727c-3.719,0-6.732-3.015-6.732-6.731
	c0-3.72,3.018-6.729,6.732-6.729s6.732,3.015,6.732,6.729C391.647,342.712,388.633,345.727,384.915,345.727z M384.915,293.727
	c-3.719,0-6.732-3.014-6.732-6.732c0-3.718,3.018-6.732,6.732-6.732s6.732,3.014,6.732,6.732
	C391.647,290.712,388.633,293.727,384.915,293.727z M384.915,241.727c-3.719,0-6.732-3.014-6.732-6.732
	c0-3.718,3.018-6.732,6.732-6.732s6.732,3.014,6.732,6.732C391.647,238.712,388.633,241.727,384.915,241.727z M384.915,189.727
	c-3.719,0-6.732-3.014-6.732-6.732c0-3.718,3.018-6.732,6.732-6.732s6.732,3.014,6.732,6.732
	C391.647,186.712,388.633,189.727,384.915,189.727z M384.915,137.727c-3.719,0-6.732-3.014-6.732-6.732
	c0-3.718,3.018-6.732,6.732-6.732s6.732,3.014,6.732,6.732C391.647,134.712,388.633,137.727,384.915,137.727z M384.915,85.727
	c-3.719,0-6.732-3.014-6.732-6.732c0-3.718,3.018-6.732,6.732-6.732s6.732,3.014,6.732,6.732
	C391.647,82.712,388.633,85.727,384.915,85.727z M441.485,397.726c-3.723,0-6.732-3.014-6.732-6.73c0-3.72,3.014-6.729,6.732-6.729
	c3.718,0,6.729,3.015,6.729,6.729C448.217,394.712,445.204,397.726,441.485,397.726z M441.485,345.727
	c-3.723,0-6.732-3.015-6.732-6.731c0-3.72,3.014-6.729,6.732-6.729c3.718,0,6.729,3.015,6.729,6.729
	C448.217,342.712,445.204,345.727,441.485,345.727z M441.485,293.727c-3.723,0-6.732-3.014-6.732-6.732
	c0-3.718,3.014-6.732,6.732-6.732c3.718,0,6.729,3.014,6.729,6.732C448.217,290.712,445.204,293.727,441.485,293.727z
	 M441.485,241.727c-3.723,0-6.732-3.014-6.732-6.732c0-3.718,3.014-6.732,6.732-6.732c3.718,0,6.729,3.014,6.729,6.732
	C448.217,238.712,445.204,241.727,441.485,241.727z M441.485,189.727c-3.723,0-6.732-3.014-6.732-6.732
	c0-3.718,3.014-6.732,6.732-6.732c3.718,0,6.729,3.014,6.729,6.732C448.217,186.712,445.204,189.727,441.485,189.727z
	 M441.485,137.727c-3.723,0-6.732-3.014-6.732-6.732c0-3.718,3.014-6.732,6.732-6.732c3.718,0,6.729,3.014,6.729,6.732
	C448.217,134.712,445.204,137.727,441.485,137.727z M441.485,85.727c-3.723,0-6.732-3.014-6.732-6.732
	c0-3.718,3.014-6.732,6.732-6.732c3.718,0,6.729,3.014,6.729,6.732C448.217,82.712,445.204,85.727,441.485,85.727z M498.055,449.726
	c-3.719,0-6.729-3.014-6.729-6.73c0-3.715,3.014-6.732,6.729-6.732c3.721,0,6.732,3.02,6.732,6.732
	C504.788,446.712,501.774,449.726,498.055,449.726z M498.055,397.726c-3.719,0-6.729-3.014-6.729-6.73
	c0-3.72,3.014-6.729,6.729-6.729c3.721,0,6.732,3.015,6.732,6.729C504.788,394.712,501.774,397.726,498.055,397.726z
	 M498.055,345.727c-3.719,0-6.729-3.015-6.729-6.731c0-3.72,3.014-6.729,6.729-6.729c3.721,0,6.732,3.015,6.732,6.729
	C504.788,342.712,501.774,345.727,498.055,345.727z M498.055,293.727c-3.719,0-6.729-3.014-6.729-6.732
	c0-3.718,3.014-6.732,6.729-6.732c3.721,0,6.732,3.014,6.732,6.732C504.788,290.712,501.774,293.727,498.055,293.727z
	 M498.055,241.727c-3.719,0-6.729-3.014-6.729-6.732c0-3.718,3.014-6.732,6.729-6.732c3.721,0,6.732,3.014,6.732,6.732
	C504.788,238.712,501.774,241.727,498.055,241.727z M498.055,189.727c-3.719,0-6.729-3.014-6.729-6.732
	c0-3.718,3.014-6.732,6.729-6.732c3.721,0,6.732,3.014,6.732,6.732C504.788,186.712,501.774,189.727,498.055,189.727z
	 M498.055,137.727c-3.719,0-6.729-3.014-6.729-6.732c0-3.718,3.014-6.732,6.729-6.732c3.721,0,6.732,3.014,6.732,6.732
	C504.788,134.712,501.774,137.727,498.055,137.727z M498.055,85.727c-3.719,0-6.729-3.014-6.729-6.732
	c0-3.718,3.014-6.732,6.729-6.732c3.721,0,6.732,3.014,6.732,6.732C504.788,82.712,501.774,85.727,498.055,85.727z M554.625,449.726
	c-3.719,0-6.732-3.014-6.732-6.73c0-3.715,3.017-6.732,6.732-6.732s6.732,3.02,6.732,6.732
	C561.358,446.712,558.344,449.726,554.625,449.726z M554.625,397.726c-3.719,0-6.732-3.014-6.732-6.73
	c0-3.72,3.017-6.729,6.732-6.729s6.732,3.015,6.732,6.729C561.358,394.712,558.344,397.726,554.625,397.726z M554.625,345.727
	c-3.719,0-6.732-3.015-6.732-6.731c0-3.72,3.017-6.729,6.732-6.729s6.732,3.015,6.732,6.729
	C561.358,342.712,558.344,345.727,554.625,345.727z M554.625,293.727c-3.719,0-6.732-3.014-6.732-6.732
	c0-3.718,3.017-6.732,6.732-6.732s6.732,3.014,6.732,6.732C561.358,290.712,558.344,293.727,554.625,293.727z M554.625,241.727
	c-3.719,0-6.732-3.014-6.732-6.732c0-3.718,3.017-6.732,6.732-6.732s6.732,3.014,6.732,6.732
	C561.358,238.712,558.344,241.727,554.625,241.727z M554.625,189.727c-3.719,0-6.732-3.014-6.732-6.732
	c0-3.718,3.017-6.732,6.732-6.732s6.732,3.014,6.732,6.732C561.358,186.712,558.344,189.727,554.625,189.727z M554.625,137.727
	c-3.719,0-6.732-3.014-6.732-6.732c0-3.718,3.017-6.732,6.732-6.732s6.732,3.014,6.732,6.732
	C561.358,134.712,558.344,137.727,554.625,137.727z M554.625,85.727c-3.719,0-6.732-3.014-6.732-6.732
	c0-3.718,3.017-6.732,6.732-6.732s6.732,3.014,6.732,6.732C561.358,82.712,558.344,85.727,554.625,85.727z M611.196,449.726
	c-3.724,0-6.732-3.014-6.732-6.73c0-3.715,3.014-6.732,6.732-6.732c3.717,0,6.729,3.02,6.729,6.732
	C617.926,446.712,614.915,449.726,611.196,449.726z M611.196,397.726c-3.724,0-6.732-3.014-6.732-6.73
	c0-3.72,3.014-6.729,6.732-6.729c3.717,0,6.729,3.015,6.729,6.729C617.926,394.712,614.915,397.726,611.196,397.726z
	 M611.196,345.727c-3.724,0-6.732-3.015-6.732-6.731c0-3.72,3.014-6.729,6.732-6.729c3.717,0,6.729,3.015,6.729,6.729
	C617.926,342.712,614.915,345.727,611.196,345.727z M611.196,293.727c-3.724,0-6.732-3.014-6.732-6.732
	c0-3.718,3.014-6.732,6.732-6.732c3.717,0,6.729,3.014,6.729,6.732C617.926,290.712,614.915,293.727,611.196,293.727z
	 M611.196,241.727c-3.724,0-6.732-3.014-6.732-6.732c0-3.718,3.014-6.732,6.732-6.732c3.717,0,6.729,3.014,6.729,6.732
	C617.926,238.712,614.915,241.727,611.196,241.727z M611.196,189.727c-3.724,0-6.732-3.014-6.732-6.732
	c0-3.718,3.014-6.732,6.732-6.732c3.717,0,6.729,3.014,6.729,6.732C617.926,186.712,614.915,189.727,611.196,189.727z
	 M611.196,137.727c-3.724,0-6.732-3.014-6.732-6.732c0-3.718,3.014-6.732,6.732-6.732c3.717,0,6.729,3.014,6.729,6.732
	C617.926,134.712,614.915,137.727,611.196,137.727z M611.196,85.727c-3.724,0-6.732-3.014-6.732-6.732
	c0-3.718,3.014-6.732,6.732-6.732c3.717,0,6.729,3.014,6.729,6.732C617.926,82.712,614.915,85.727,611.196,85.727z M611.196,33.727
	c-3.724,0-6.732-3.014-6.732-6.732c0-3.718,3.014-6.732,6.732-6.732c3.717,0,6.729,3.014,6.729,6.732
	C617.926,30.712,614.915,33.727,611.196,33.727z M667.766,501.726c-3.719,0-6.729-3.014-6.729-6.73c0-3.715,3.014-6.732,6.729-6.732
	c3.721,0,6.732,3.02,6.732,6.732C674.499,498.712,671.485,501.726,667.766,501.726z M667.766,449.726
	c-3.719,0-6.729-3.014-6.729-6.73c0-3.715,3.014-6.732,6.729-6.732c3.721,0,6.732,3.02,6.732,6.732
	C674.499,446.712,671.485,449.726,667.766,449.726z M667.766,397.726c-3.719,0-6.729-3.014-6.729-6.73
	c0-3.72,3.014-6.729,6.729-6.729c3.721,0,6.732,3.015,6.732,6.729C674.499,394.712,671.485,397.726,667.766,397.726z
	 M667.766,345.727c-3.719,0-6.729-3.015-6.729-6.731c0-3.72,3.014-6.729,6.729-6.729c3.721,0,6.732,3.015,6.732,6.729
	C674.499,342.712,671.485,345.727,667.766,345.727z M667.766,293.727c-3.719,0-6.729-3.014-6.729-6.732
	c0-3.718,3.014-6.732,6.729-6.732c3.721,0,6.732,3.014,6.732,6.732C674.499,290.712,671.485,293.727,667.766,293.727z
	 M667.766,241.727c-3.719,0-6.729-3.014-6.729-6.732c0-3.718,3.014-6.732,6.729-6.732c3.721,0,6.732,3.014,6.732,6.732
	C674.499,238.712,671.485,241.727,667.766,241.727z M667.766,189.727c-3.719,0-6.729-3.014-6.729-6.732
	c0-3.718,3.014-6.732,6.729-6.732c3.721,0,6.732,3.014,6.732,6.732C674.499,186.712,671.485,189.727,667.766,189.727z
	 M667.766,137.727c-3.719,0-6.729-3.014-6.729-6.732c0-3.718,3.014-6.732,6.729-6.732c3.721,0,6.732,3.014,6.732,6.732
	C674.499,134.712,671.485,137.727,667.766,137.727z M667.766,85.727c-3.719,0-6.729-3.014-6.729-6.732
	c0-3.718,3.014-6.732,6.729-6.732c3.721,0,6.732,3.014,6.732,6.732C674.499,82.712,671.485,85.727,667.766,85.727z M667.766,33.727
	c-3.719,0-6.729-3.014-6.729-6.732c0-3.718,3.014-6.732,6.729-6.732c3.721,0,6.732,3.014,6.732,6.732
	C674.499,30.712,671.485,33.727,667.766,33.727z M780.907,72.261c3.719,0,6.729,3.014,6.729,6.732c0,3.718-3.014,6.732-6.729,6.732
	c-3.72,0-6.732-3.014-6.732-6.732C774.174,75.275,777.188,72.261,780.907,72.261z M780.907,124.261c3.719,0,6.729,3.014,6.729,6.732
	c0,3.718-3.014,6.732-6.729,6.732c-3.72,0-6.732-3.014-6.732-6.732C774.174,127.275,777.188,124.261,780.907,124.261z
	 M724.336,501.726c-3.719,0-6.732-3.014-6.732-6.73c0-3.715,3.017-6.732,6.732-6.732s6.732,3.02,6.732,6.732
	C731.069,498.712,728.055,501.726,724.336,501.726z M724.336,449.726c-3.719,0-6.732-3.014-6.732-6.73
	c0-3.715,3.017-6.732,6.732-6.732s6.732,3.02,6.732,6.732C731.069,446.712,728.055,449.726,724.336,449.726z M724.336,397.726
	c-3.719,0-6.732-3.014-6.732-6.73c0-3.72,3.017-6.729,6.732-6.729s6.732,3.015,6.732,6.729
	C731.069,394.712,728.055,397.726,724.336,397.726z M724.336,345.727c-3.719,0-6.732-3.015-6.732-6.731
	c0-3.72,3.017-6.729,6.732-6.729s6.732,3.015,6.732,6.729C731.069,342.712,728.055,345.727,724.336,345.727z M724.336,293.727
	c-3.719,0-6.732-3.014-6.732-6.732c0-3.718,3.017-6.732,6.732-6.732s6.732,3.014,6.732,6.732
	C731.069,290.712,728.055,293.727,724.336,293.727z M724.336,241.727c-3.719,0-6.732-3.014-6.732-6.732
	c0-3.718,3.017-6.732,6.732-6.732s6.732,3.014,6.732,6.732C731.069,238.712,728.055,241.727,724.336,241.727z M724.336,189.727
	c-3.719,0-6.732-3.014-6.732-6.732c0-3.718,3.017-6.732,6.732-6.732s6.732,3.014,6.732,6.732
	C731.069,186.712,728.055,189.727,724.336,189.727z M724.336,137.727c-3.719,0-6.732-3.014-6.732-6.732
	c0-3.718,3.017-6.732,6.732-6.732s6.732,3.014,6.732,6.732C731.069,134.712,728.055,137.727,724.336,137.727z M724.336,85.727
	c-3.719,0-6.732-3.014-6.732-6.732c0-3.718,3.017-6.732,6.732-6.732s6.732,3.014,6.732,6.732
	C731.069,82.712,728.055,85.727,724.336,85.727z M780.907,553.726c-3.72,0-6.732-3.014-6.732-6.73c0-3.715,3.017-6.732,6.732-6.732
	s6.729,3.02,6.729,6.732C787.637,550.712,784.625,553.726,780.907,553.726z M780.907,501.726c-3.72,0-6.732-3.014-6.732-6.73
	c0-3.715,3.017-6.732,6.732-6.732s6.729,3.02,6.729,6.732C787.637,498.712,784.625,501.726,780.907,501.726z M780.907,449.726
	c-3.72,0-6.732-3.014-6.732-6.73c0-3.715,3.017-6.732,6.732-6.732s6.729,3.02,6.729,6.732
	C787.637,446.712,784.625,449.726,780.907,449.726z M780.907,397.726c-3.72,0-6.732-3.014-6.732-6.73
	c0-3.72,3.017-6.729,6.732-6.729s6.729,3.015,6.729,6.729C787.637,394.712,784.625,397.726,780.907,397.726z M780.907,345.727
	c-3.72,0-6.732-3.015-6.732-6.731c0-3.72,3.017-6.729,6.732-6.729s6.729,3.015,6.729,6.729
	C787.637,342.712,784.625,345.727,780.907,345.727z M780.907,293.727c-3.72,0-6.732-3.014-6.732-6.732
	c0-3.718,3.017-6.732,6.732-6.732s6.729,3.014,6.729,6.732C787.637,290.712,784.625,293.727,780.907,293.727z M780.907,241.727
	c-3.72,0-6.732-3.014-6.732-6.732c0-3.718,3.017-6.732,6.732-6.732s6.729,3.014,6.729,6.732
	C787.637,238.712,784.625,241.727,780.907,241.727z M837.477,553.726c-3.719,0-6.729-3.014-6.729-6.73
	c0-3.715,3.014-6.732,6.729-6.732c3.721,0,6.732,3.02,6.732,6.732C844.209,550.712,841.196,553.726,837.477,553.726z
	 M837.477,501.726c-3.719,0-6.729-3.014-6.729-6.73c0-3.715,3.014-6.732,6.729-6.732c3.721,0,6.732,3.02,6.732,6.732
	C844.209,498.712,841.196,501.726,837.477,501.726z M837.477,449.726c-3.719,0-6.729-3.014-6.729-6.73
	c0-3.715,3.014-6.732,6.729-6.732c3.721,0,6.732,3.02,6.732,6.732C844.209,446.712,841.196,449.726,837.477,449.726z
	 M837.477,397.726c-3.719,0-6.729-3.014-6.729-6.73c0-3.72,3.014-6.729,6.729-6.729c3.721,0,6.732,3.015,6.732,6.729
	C844.209,394.712,841.196,397.726,837.477,397.726z M837.477,345.727c-3.719,0-6.729-3.015-6.729-6.731
	c0-3.72,3.014-6.729,6.729-6.729c3.721,0,6.732,3.015,6.732,6.729C844.209,342.712,841.196,345.727,837.477,345.727z
	 M894.047,553.726c-3.719,0-6.729-3.014-6.729-6.73c0-3.715,3.014-6.732,6.729-6.732s6.732,3.02,6.732,6.732
	C900.78,550.712,897.766,553.726,894.047,553.726z M894.047,501.726c-3.719,0-6.729-3.014-6.729-6.73
	c0-3.715,3.014-6.732,6.729-6.732s6.732,3.02,6.732,6.732C900.78,498.712,897.766,501.726,894.047,501.726z M894.047,449.726
	c-3.719,0-6.729-3.014-6.729-6.73c0-3.715,3.014-6.732,6.729-6.732s6.732,3.02,6.732,6.732
	C900.78,446.712,897.766,449.726,894.047,449.726z M950.618,605.726c-3.72,0-6.732-3.014-6.732-6.73
	c0-3.715,3.017-6.732,6.732-6.732s6.729,3.02,6.729,6.732C957.348,602.712,954.336,605.726,950.618,605.726z"/>
</svg>
