<?xml version="1.0" encoding="utf-8"?>
<!-- Generator: Adobe Illustrator 16.0.0, SVG Export Plug-In . SVG Version: 6.00 Build 0)  -->
<!DOCTYPE svg PUBLIC "-//W3C//DTD SVG 1.1//EN" "http://www.w3.org/Graphics/SVG/1.1/DTD/svg11.dtd">
<svg version="1.1" id="Layer_1" xmlns="http://www.w3.org/2000/svg" xmlns:xlink="http://www.w3.org/1999/xlink" x="0px" y="0px"
	 width="1041px" height="635.464px" viewBox="0 0 1041 635.464" enable-background="new 0 0 1041 635.464" xml:space="preserve">
<path fill="none" stroke="#000000" stroke-linejoin="round" stroke-miterlimit="10" d="M45.493,228.263
	c3.718,0,6.732,3.014,6.732,6.732c0,3.718-3.014,6.732-6.732,6.732c-3.718,0-6.732-3.014-6.732-6.732
	C38.761,231.277,41.775,228.263,45.493,228.263z M102.063,280.263c3.718,0,6.732,3.014,6.732,6.732c0,3.718-3.014,6.732-6.732,6.732
	s-6.732-3.014-6.732-6.732C95.331,283.277,98.345,280.263,102.063,280.263z M102.063,228.263c3.718,0,6.732,3.014,6.732,6.732
	c0,3.718-3.014,6.732-6.732,6.732s-6.732-3.014-6.732-6.732C95.331,231.277,98.345,228.263,102.063,228.263z M102.063,176.263
	c3.718,0,6.732,3.014,6.732,6.732c0,3.718-3.014,6.732-6.732,6.732s-6.732-3.014-6.732-6.732
	C95.331,179.277,98.345,176.263,102.063,176.263z M102.063,124.263c3.718,0,6.732,3.014,6.732,6.732
	c0,3.718-3.014,6.732-6.732,6.732s-6.732-3.014-6.732-6.732C95.331,127.277,98.345,124.263,102.063,124.263z M158.633,280.263
	c3.718,0,6.732,3.014,6.732,6.732c0,3.718-3.014,6.732-6.732,6.732c-3.718,0-6.732-3.014-6.732-6.732
	C151.901,283.277,154.915,280.263,158.633,280.263z M158.633,228.263c3.718,0,6.732,3.014,6.732,6.732
	c0,3.718-3.014,6.732-6.732,6.732c-3.718,0-6.732-3.014-6.732-6.732C151.901,231.277,154.915,228.263,158.633,228.263z
	 M158.633,176.263c3.718,0,6.732,3.014,6.732,6.732c0,3.718-3.014,6.732-6.732,6.732c-3.718,0-6.732-3.014-6.732-6.732
	C151.901,179.277,154.915,176.263,158.633,176.263z M158.633,124.263c3.718,0,6.732,3.014,6.732,6.732
	c0,3.718-3.014,6.732-6.732,6.732c-3.718,0-6.732-3.014-6.732-6.732C151.901,127.277,154.915,124.263,158.633,124.263z
	 M215.204,332.267c3.717,0,6.73,3.014,6.73,6.73s-3.013,6.729-6.73,6.729s-6.73-3.013-6.73-6.729S211.487,332.267,215.204,332.267z
	 M215.204,280.263c3.718,0,6.732,3.014,6.732,6.732c0,3.718-3.014,6.732-6.732,6.732c-3.718,0-6.732-3.014-6.732-6.732
	C208.472,283.277,211.486,280.263,215.204,280.263z M215.204,228.263c3.718,0,6.732,3.014,6.732,6.732
	c0,3.718-3.014,6.732-6.732,6.732c-3.718,0-6.732-3.014-6.732-6.732C208.472,231.277,211.486,228.263,215.204,228.263z
	 M215.204,176.263c3.718,0,6.732,3.014,6.732,6.732c0,3.718-3.014,6.732-6.732,6.732c-3.718,0-6.732-3.014-6.732-6.732
	C208.472,179.277,211.486,176.263,215.204,176.263z M215.204,124.263c3.718,0,6.732,3.014,6.732,6.732
	c0,3.718-3.014,6.732-6.732,6.732c-3.718,0-6.732-3.014-6.732-6.732C208.472,127.277,211.486,124.263,215.204,124.263z
	 M215.204,72.263c3.718,0,6.732,3.014,6.732,6.732c0,3.718-3.014,6.732-6.732,6.732c-3.718,0-6.732-3.014-6.732-6.732
	C208.472,75.277,211.486,72.263,215.204,72.263z M271.774,332.267c3.717,0,6.73,3.014,6.73,6.73s-3.013,6.729-6.73,6.729
	s-6.73-3.013-6.73-6.729S268.057,332.267,271.774,332.267z M271.774,280.263c3.718,0,6.732,3.014,6.732,6.732
	c0,3.718-3.014,6.732-6.732,6.732c-3.718,0-6.732-3.014-6.732-6.732C265.042,283.277,268.056,280.263,271.774,280.263z
	 M271.774,228.263c3.718,0,6.732,3.014,6.732,6.732c0,3.718-3.014,6.732-6.732,6.732c-3.718,0-6.732-3.014-6.732-6.732
	C265.042,231.277,268.056,228.263,271.774,228.263z M271.774,176.263c3.718,0,6.732,3.014,6.732,6.732
	c0,3.718-3.014,6.732-6.732,6.732c-3.718,0-6.732-3.014-6.732-6.732C265.042,179.277,268.056,176.263,271.774,176.263z
	 M271.774,124.263c3.718,0,6.732,3.014,6.732,6.732c0,3.718-3.014,6.732-6.732,6.732c-3.718,0-6.732-3.014-6.732-6.732
	C265.042,127.277,268.056,124.263,271.774,124.263z M271.774,72.263c3.718,0,6.732,3.014,6.732,6.732
	c0,3.718-3.014,6.732-6.732,6.732c-3.718,0-6.732-3.014-6.732-6.732C265.042,75.277,268.056,72.263,271.774,72.263z
	 M328.344,332.267c3.717,0,6.73,3.014,6.73,6.73s-3.014,6.729-6.73,6.729s-6.729-3.013-6.729-6.729S324.627,332.267,328.344,332.267
	z M328.344,280.263c3.718,0,6.732,3.014,6.732,6.732c0,3.718-3.015,6.732-6.732,6.732s-6.731-3.014-6.731-6.732
	C321.612,283.277,324.626,280.263,328.344,280.263z M328.344,228.263c3.718,0,6.732,3.014,6.732,6.732
	c0,3.718-3.015,6.732-6.732,6.732s-6.731-3.014-6.731-6.732C321.612,231.277,324.626,228.263,328.344,228.263z M328.344,176.263
	c3.718,0,6.732,3.014,6.732,6.732c0,3.718-3.015,6.732-6.732,6.732s-6.731-3.014-6.731-6.732
	C321.612,179.277,324.626,176.263,328.344,176.263z M328.344,124.263c3.718,0,6.732,3.014,6.732,6.732
	c0,3.718-3.015,6.732-6.732,6.732s-6.731-3.014-6.731-6.732C321.612,127.277,324.626,124.263,328.344,124.263z M328.344,72.263
	c3.718,0,6.732,3.014,6.732,6.732c0,3.718-3.015,6.732-6.732,6.732s-6.731-3.014-6.731-6.732
	C321.612,75.277,324.626,72.263,328.344,72.263z M384.915,397.726c-3.719,0-6.732-3.014-6.732-6.73c0-3.72,3.019-6.729,6.732-6.729
	s6.732,3.014,6.732,6.729C391.647,394.712,388.633,397.726,384.915,397.726z M384.915,345.727c-3.719,0-6.732-3.015-6.732-6.731
	c0-3.72,3.019-6.729,6.732-6.729s6.732,3.014,6.732,6.729C391.647,342.712,388.633,345.727,384.915,345.727z M384.915,293.727
	c-3.719,0-6.732-3.014-6.732-6.732c0-3.718,3.019-6.732,6.732-6.732s6.732,3.014,6.732,6.732
	C391.647,290.712,388.633,293.727,384.915,293.727z M384.915,241.727c-3.719,0-6.732-3.014-6.732-6.732
	c0-3.718,3.019-6.732,6.732-6.732s6.732,3.014,6.732,6.732C391.647,238.712,388.633,241.727,384.915,241.727z M384.915,189.727
	c-3.719,0-6.732-3.014-6.732-6.732c0-3.718,3.019-6.732,6.732-6.732s6.732,3.014,6.732,6.732
	C391.647,186.712,388.633,189.727,384.915,189.727z M384.915,137.727c-3.719,0-6.732-3.014-6.732-6.732
	c0-3.718,3.019-6.732,6.732-6.732s6.732,3.014,6.732,6.732C391.647,134.712,388.633,137.727,384.915,137.727z M384.915,85.727
	c-3.719,0-6.732-3.014-6.732-6.732c0-3.718,3.019-6.732,6.732-6.732s6.732,3.014,6.732,6.732
	C391.647,82.712,388.633,85.727,384.915,85.727z M441.485,397.726c-3.724,0-6.732-3.014-6.732-6.73c0-3.72,3.014-6.729,6.732-6.729
	c3.718,0,6.729,3.014,6.729,6.729C448.217,394.712,445.204,397.726,441.485,397.726z M441.485,345.727
	c-3.724,0-6.732-3.015-6.732-6.731c0-3.72,3.014-6.729,6.732-6.729c3.718,0,6.729,3.014,6.729,6.729
	C448.217,342.712,445.204,345.727,441.485,345.727z M441.485,293.727c-3.724,0-6.732-3.014-6.732-6.732
	c0-3.718,3.014-6.732,6.732-6.732c3.718,0,6.729,3.014,6.729,6.732C448.217,290.712,445.204,293.727,441.485,293.727z
	 M441.485,241.727c-3.724,0-6.732-3.014-6.732-6.732c0-3.718,3.014-6.732,6.732-6.732c3.718,0,6.729,3.014,6.729,6.732
	C448.217,238.712,445.204,241.727,441.485,241.727z M441.485,189.727c-3.724,0-6.732-3.014-6.732-6.732
	c0-3.718,3.014-6.732,6.732-6.732c3.718,0,6.729,3.014,6.729,6.732C448.217,186.712,445.204,189.727,441.485,189.727z
	 M441.485,137.727c-3.724,0-6.732-3.014-6.732-6.732c0-3.718,3.014-6.732,6.732-6.732c3.718,0,6.729,3.014,6.729,6.732
	C448.217,134.712,445.204,137.727,441.485,137.727z M441.485,85.727c-3.724,0-6.732-3.014-6.732-6.732
	c0-3.718,3.014-6.732,6.732-6.732c3.718,0,6.729,3.014,6.729,6.732C448.217,82.712,445.204,85.727,441.485,85.727z M498.055,449.726
	c-3.719,0-6.729-3.014-6.729-6.73c0-3.715,3.014-6.732,6.729-6.732c3.722,0,6.732,3.021,6.732,6.732
	C504.788,446.712,501.774,449.726,498.055,449.726z M498.055,397.726c-3.719,0-6.729-3.014-6.729-6.73
	c0-3.72,3.014-6.729,6.729-6.729c3.722,0,6.732,3.014,6.732,6.729C504.788,394.712,501.774,397.726,498.055,397.726z
	 M498.055,345.727c-3.719,0-6.729-3.015-6.729-6.731c0-3.72,3.014-6.729,6.729-6.729c3.722,0,6.732,3.014,6.732,6.729
	C504.788,342.712,501.774,345.727,498.055,345.727z M498.055,293.727c-3.719,0-6.729-3.014-6.729-6.732
	c0-3.718,3.014-6.732,6.729-6.732c3.722,0,6.732,3.014,6.732,6.732C504.788,290.712,501.774,293.727,498.055,293.727z
	 M498.055,241.727c-3.719,0-6.729-3.014-6.729-6.732c0-3.718,3.014-6.732,6.729-6.732c3.722,0,6.732,3.014,6.732,6.732
	C504.788,238.712,501.774,241.727,498.055,241.727z M498.055,189.727c-3.719,0-6.729-3.014-6.729-6.732
	c0-3.718,3.014-6.732,6.729-6.732c3.722,0,6.732,3.014,6.732,6.732C504.788,186.712,501.774,189.727,498.055,189.727z
	 M498.055,137.727c-3.719,0-6.729-3.014-6.729-6.732c0-3.718,3.014-6.732,6.729-6.732c3.722,0,6.732,3.014,6.732,6.732
	C504.788,134.712,501.774,137.727,498.055,137.727z M498.055,85.727c-3.719,0-6.729-3.014-6.729-6.732
	c0-3.718,3.014-6.732,6.729-6.732c3.722,0,6.732,3.014,6.732,6.732C504.788,82.712,501.774,85.727,498.055,85.727z M554.625,449.726
	c-3.719,0-6.732-3.014-6.732-6.73c0-3.715,3.018-6.732,6.732-6.732s6.732,3.021,6.732,6.732
	C561.358,446.712,558.344,449.726,554.625,449.726z M554.625,397.726c-3.719,0-6.732-3.014-6.732-6.73
	c0-3.72,3.018-6.729,6.732-6.729s6.732,3.014,6.732,6.729C561.358,394.712,558.344,397.726,554.625,397.726z M554.625,332.267
	c3.717,0,6.73,3.014,6.73,6.73s-3.014,6.729-6.73,6.729s-6.73-3.013-6.73-6.729S550.908,332.267,554.625,332.267z M554.625,280.263
	c3.718,0,6.732,3.014,6.732,6.732c0,3.718-3.015,6.732-6.732,6.732s-6.732-3.014-6.732-6.732
	C547.893,283.277,550.907,280.263,554.625,280.263z M554.625,228.263c3.718,0,6.732,3.014,6.732,6.732
	c0,3.718-3.015,6.732-6.732,6.732s-6.732-3.014-6.732-6.732C547.893,231.277,550.907,228.263,554.625,228.263z M554.625,176.263
	c3.718,0,6.732,3.014,6.732,6.732c0,3.718-3.015,6.732-6.732,6.732s-6.732-3.014-6.732-6.732
	C547.893,179.277,550.907,176.263,554.625,176.263z M554.625,124.263c3.718,0,6.732,3.014,6.732,6.732
	c0,3.718-3.015,6.732-6.732,6.732s-6.732-3.014-6.732-6.732C547.893,127.277,550.907,124.263,554.625,124.263z M554.625,72.263
	c3.718,0,6.732,3.014,6.732,6.732c0,3.718-3.015,6.732-6.732,6.732s-6.732-3.014-6.732-6.732
	C547.893,75.277,550.907,72.263,554.625,72.263z M611.196,449.726c-3.725,0-6.732-3.014-6.732-6.73c0-3.715,3.014-6.732,6.732-6.732
	c3.717,0,6.729,3.021,6.729,6.732C617.926,446.712,614.915,449.726,611.196,449.726z M611.196,397.726
	c-3.725,0-6.732-3.014-6.732-6.73c0-3.72,3.014-6.729,6.732-6.729c3.717,0,6.729,3.014,6.729,6.729
	C617.926,394.712,614.915,397.726,611.196,397.726z M611.196,345.727c-3.725,0-6.732-3.015-6.732-6.731
	c0-3.72,3.014-6.729,6.732-6.729c3.717,0,6.729,3.014,6.729,6.729C617.926,342.712,614.915,345.727,611.196,345.727z
	 M611.196,293.727c-3.725,0-6.732-3.014-6.732-6.732c0-3.718,3.014-6.732,6.732-6.732c3.717,0,6.729,3.014,6.729,6.732
	C617.926,290.712,614.915,293.727,611.196,293.727z M611.196,241.727c-3.725,0-6.732-3.014-6.732-6.732
	c0-3.718,3.014-6.732,6.732-6.732c3.717,0,6.729,3.014,6.729,6.732C617.926,238.712,614.915,241.727,611.196,241.727z
	 M611.196,189.727c-3.725,0-6.732-3.014-6.732-6.732c0-3.718,3.014-6.732,6.732-6.732c3.717,0,6.729,3.014,6.729,6.732
	C617.926,186.712,614.915,189.727,611.196,189.727z M611.196,137.727c-3.725,0-6.732-3.014-6.732-6.732
	c0-3.718,3.014-6.732,6.732-6.732c3.717,0,6.729,3.014,6.729,6.732C617.926,134.712,614.915,137.727,611.196,137.727z
	 M611.196,85.727c-3.725,0-6.732-3.014-6.732-6.732c0-3.718,3.014-6.732,6.732-6.732c3.717,0,6.729,3.014,6.729,6.732
	C617.926,82.712,614.915,85.727,611.196,85.727z M611.196,33.727c-3.725,0-6.732-3.014-6.732-6.732c0-3.718,3.014-6.732,6.732-6.732
	c3.717,0,6.729,3.014,6.729,6.732C617.926,30.712,614.915,33.727,611.196,33.727z M667.766,501.726c-3.719,0-6.729-3.014-6.729-6.73
	c0-3.715,3.014-6.732,6.729-6.732c3.722,0,6.732,3.021,6.732,6.732C674.499,498.712,671.485,501.726,667.766,501.726z
	 M667.766,449.726c-3.719,0-6.729-3.014-6.729-6.73c0-3.715,3.014-6.732,6.729-6.732c3.722,0,6.732,3.021,6.732,6.732
	C674.499,446.712,671.485,449.726,667.766,449.726z M667.766,397.726c-3.719,0-6.729-3.014-6.729-6.73
	c0-3.72,3.014-6.729,6.729-6.729c3.722,0,6.732,3.014,6.732,6.729C674.499,394.712,671.485,397.726,667.766,397.726z
	 M667.766,345.727c-3.719,0-6.729-3.015-6.729-6.731c0-3.72,3.014-6.729,6.729-6.729c3.722,0,6.732,3.014,6.732,6.729
	C674.499,342.712,671.485,345.727,667.766,345.727z M667.766,293.727c-3.719,0-6.729-3.014-6.729-6.732
	c0-3.718,3.014-6.732,6.729-6.732c3.722,0,6.732,3.014,6.732,6.732C674.499,290.712,671.485,293.727,667.766,293.727z
	 M667.766,241.727c-3.719,0-6.729-3.014-6.729-6.732c0-3.718,3.014-6.732,6.729-6.732c3.722,0,6.732,3.014,6.732,6.732
	C674.499,238.712,671.485,241.727,667.766,241.727z M667.766,189.727c-3.719,0-6.729-3.014-6.729-6.732
	c0-3.718,3.014-6.732,6.729-6.732c3.722,0,6.732,3.014,6.732,6.732C674.499,186.712,671.485,189.727,667.766,189.727z
	 M667.766,137.727c-3.719,0-6.729-3.014-6.729-6.732c0-3.718,3.014-6.732,6.729-6.732c3.722,0,6.732,3.014,6.732,6.732
	C674.499,134.712,671.485,137.727,667.766,137.727z M667.766,85.727c-3.719,0-6.729-3.014-6.729-6.732
	c0-3.718,3.014-6.732,6.729-6.732c3.722,0,6.732,3.014,6.732,6.732C674.499,82.712,671.485,85.727,667.766,85.727z M667.766,33.727
	c-3.719,0-6.729-3.014-6.729-6.732c0-3.718,3.014-6.732,6.729-6.732c3.722,0,6.732,3.014,6.732,6.732
	C674.499,30.712,671.485,33.727,667.766,33.727z M780.907,72.261c3.719,0,6.729,3.014,6.729,6.732c0,3.718-3.014,6.732-6.729,6.732
	c-3.72,0-6.732-3.014-6.732-6.732C774.174,75.275,777.188,72.261,780.907,72.261z M780.907,124.261c3.719,0,6.729,3.014,6.729,6.732
	c0,3.718-3.014,6.732-6.729,6.732c-3.72,0-6.732-3.014-6.732-6.732C774.174,127.275,777.188,124.261,780.907,124.261z
	 M724.336,501.726c-3.719,0-6.732-3.014-6.732-6.73c0-3.715,3.018-6.732,6.732-6.732s6.732,3.021,6.732,6.732
	C731.069,498.712,728.055,501.726,724.336,501.726z M724.336,449.726c-3.719,0-6.732-3.014-6.732-6.73
	c0-3.715,3.018-6.732,6.732-6.732s6.732,3.021,6.732,6.732C731.069,446.712,728.055,449.726,724.336,449.726z M724.336,397.726
	c-3.719,0-6.732-3.014-6.732-6.73c0-3.72,3.018-6.729,6.732-6.729s6.732,3.014,6.732,6.729
	C731.069,394.712,728.055,397.726,724.336,397.726z M724.336,332.267c3.717,0,6.73,3.014,6.73,6.73s-3.014,6.729-6.73,6.729
	s-6.729-3.013-6.729-6.729S720.619,332.267,724.336,332.267z M724.336,280.263c3.718,0,6.732,3.014,6.732,6.732
	c0,3.718-3.015,6.732-6.732,6.732s-6.732-3.014-6.732-6.732C717.604,283.277,720.618,280.263,724.336,280.263z M724.336,228.263
	c3.718,0,6.732,3.014,6.732,6.732c0,3.718-3.015,6.732-6.732,6.732s-6.732-3.014-6.732-6.732
	C717.604,231.277,720.618,228.263,724.336,228.263z M724.336,176.263c3.718,0,6.732,3.014,6.732,6.732
	c0,3.718-3.015,6.732-6.732,6.732s-6.732-3.014-6.732-6.732C717.604,179.277,720.618,176.263,724.336,176.263z M724.336,124.263
	c3.718,0,6.732,3.014,6.732,6.732c0,3.718-3.015,6.732-6.732,6.732s-6.732-3.014-6.732-6.732
	C717.604,127.277,720.618,124.263,724.336,124.263z M724.336,72.263c3.718,0,6.732,3.014,6.732,6.732
	c0,3.718-3.015,6.732-6.732,6.732s-6.732-3.014-6.732-6.732C717.604,75.277,720.618,72.263,724.336,72.263z M780.907,553.726
	c-3.72,0-6.732-3.014-6.732-6.73c0-3.715,3.018-6.732,6.732-6.732s6.729,3.021,6.729,6.732
	C787.637,550.712,784.625,553.726,780.907,553.726z M780.907,501.726c-3.72,0-6.732-3.014-6.732-6.73
	c0-3.715,3.018-6.732,6.732-6.732s6.729,3.021,6.729,6.732C787.637,498.712,784.625,501.726,780.907,501.726z M780.907,449.726
	c-3.72,0-6.732-3.014-6.732-6.73c0-3.715,3.018-6.732,6.732-6.732s6.729,3.021,6.729,6.732
	C787.637,446.712,784.625,449.726,780.907,449.726z M780.907,397.726c-3.72,0-6.732-3.014-6.732-6.73
	c0-3.72,3.018-6.729,6.732-6.729s6.729,3.014,6.729,6.729C787.637,394.712,784.625,397.726,780.907,397.726z M780.907,332.267
	c3.717,0,6.729,3.014,6.729,6.73s-3.013,6.729-6.729,6.729s-6.73-3.013-6.73-6.729S777.19,332.267,780.907,332.267z
	 M780.907,280.263c3.718,0,6.731,3.014,6.731,6.732c0,3.718-3.014,6.732-6.731,6.732s-6.732-3.014-6.732-6.732
	C774.175,283.277,777.189,280.263,780.907,280.263z M780.907,228.263c3.718,0,6.731,3.014,6.731,6.732
	c0,3.718-3.014,6.732-6.731,6.732s-6.732-3.014-6.732-6.732C774.175,231.277,777.189,228.263,780.907,228.263z M837.477,553.726
	c-3.719,0-6.729-3.014-6.729-6.73c0-3.715,3.014-6.732,6.729-6.732c3.722,0,6.732,3.021,6.732,6.732
	C844.209,550.712,841.196,553.726,837.477,553.726z M837.477,501.726c-3.719,0-6.729-3.014-6.729-6.73
	c0-3.715,3.014-6.732,6.729-6.732c3.722,0,6.732,3.021,6.732,6.732C844.209,498.712,841.196,501.726,837.477,501.726z
	 M837.477,449.726c-3.719,0-6.729-3.014-6.729-6.73c0-3.715,3.014-6.732,6.729-6.732c3.722,0,6.732,3.021,6.732,6.732
	C844.209,446.712,841.196,449.726,837.477,449.726z M837.477,397.726c-3.719,0-6.729-3.014-6.729-6.73
	c0-3.72,3.014-6.729,6.729-6.729c3.722,0,6.732,3.014,6.732,6.729C844.209,394.712,841.196,397.726,837.477,397.726z
	 M837.477,345.727c-3.719,0-6.729-3.015-6.729-6.731c0-3.72,3.014-6.729,6.729-6.729c3.722,0,6.732,3.014,6.732,6.729
	C844.209,342.712,841.196,345.727,837.477,345.727z M894.047,553.726c-3.719,0-6.729-3.014-6.729-6.73
	c0-3.715,3.014-6.732,6.729-6.732s6.732,3.021,6.732,6.732C900.78,550.712,897.766,553.726,894.047,553.726z M894.047,501.726
	c-3.719,0-6.729-3.014-6.729-6.73c0-3.715,3.014-6.732,6.729-6.732s6.732,3.021,6.732,6.732
	C900.78,498.712,897.766,501.726,894.047,501.726z M894.047,449.726c-3.719,0-6.729-3.014-6.729-6.73
	c0-3.715,3.014-6.732,6.729-6.732s6.732,3.021,6.732,6.732C900.78,446.712,897.766,449.726,894.047,449.726z M950.618,605.726
	c-3.72,0-6.732-3.014-6.732-6.73c0-3.715,3.018-6.732,6.732-6.732s6.729,3.021,6.729,6.732
	C957.348,602.712,954.336,605.726,950.618,605.726z M979.581,611.935c3.412,13.521,15.656,23.529,30.237,23.529
	c17.221,0,31.182-13.961,31.182-31.182c0-17.223-13.961-31.184-31.182-31.184c-11.916,0-22.271,6.686-27.521,16.506
	c-3.313,2.645-6.251,0.404-8.823-2.096l-0.002-0.002c-1.966-4.406-4.082-9.061-5.546-12.965
	c-0.933-2.498-9.582-24.121-14.485-36.127l-6.211-15.213c-5.916-14.385-11.935-29.771-18.084-46.01
	c-7.55-19.916-15.991-39.482-23.354-59.477c-0.43-1.162-2.633-7.289-6.506-18.502c-11.238-32.543-27.029-63.338-38.158-95.918
	c-2.428-7.107-4.24-14.554-8.146-21.046c-4.658-7.737-11.855-11.058-19.877-14.495c-4.021-1.72-8.025-3.498-11.842-5.646
	c-7.146-4.028-14.719-9.834-17.061-18.082c-0.918-3.23-1.943-6.443-2.885-9.664c-0.932-3.164-2.355-8.035-4.236-14.521
	c-1.131-3.902-3.451-7.334-4.781-11.164c-2.318-6.679-6.209-15.001-6.078-22.219c0.164-8.957,10.688-9.535,17.271-10.77
	c26.77-5.019,24.104-23.369,17.334-45.05c-1.51-4.833-3.088-9.628-4.705-14.424c-2.719-8.06-3.926-16.78-6.484-25.663
	c-1.191-4.154-2.961-10.637-3.12-11.231C802.196,63.26,723.6,27.511,678.747,8.062c-6.539-2.835-15.141-5.19-22.859-7.304
	c-7.982-2.187-20.139,0.813-29.922,3.229c-12.33,3.044-28.188,6.167-47.688,9.488c-40.811,6.951-81.984,11.498-122.785,18.487
	c-3.915,0.67-41.495,6.188-62.249,9.234c-74.01,10.863-148.51,17.848-223.114,23.116c-17.122,1.21-34.253,2.344-51.353,3.836
	c-9.312,0.812-19.757,0.808-28.281,5.142C81.318,77.957,78.2,86.673,74.242,95.54C66.84,112.116,25.855,216.019,2.236,277.005
	c-3.266,8.433-3.16,15.633,1.689,22.185c18.645,2.791,36.448,0.395,50.759,5.463C351.66,409.826,512.25,471.917,943.442,625.929
	c2.509,0.896,17.644-8.625,27.477-16.373c1.722-0.537,3.24-1.539,5.108-0.951c1.598,0.502,2.803,1.898,3.557,3.336L979.581,611.935z
	"/>
</svg>
