<?xml version="1.0" encoding="utf-8"?>
<!-- Generator: Adobe Illustrator 16.0.0, SVG Export Plug-In . SVG Version: 6.00 Build 0)  -->
<!DOCTYPE svg PUBLIC "-//W3C//DTD SVG 1.1//EN" "http://www.w3.org/Graphics/SVG/1.1/DTD/svg11.dtd">
<svg version="1.1" id="Layer_1" xmlns="http://www.w3.org/2000/svg" xmlns:xlink="http://www.w3.org/1999/xlink" x="0px" y="0px"
	 width="1988.578px" height="711.949px" viewBox="0 0 1988.578 711.949" enable-background="new 0 0 1988.578 711.949"
	 xml:space="preserve">
<path fill="none" stroke="#000000" stroke-linejoin="round" stroke-miterlimit="10" d="M57.322,663.766
	c-5.563-8.534-15.193-14.178-26.141-14.178C13.96,649.588,0,663.548,0,680.769c0,17.223,13.96,31.183,31.181,31.183
	c15.574,0,28.48-11.418,30.807-26.339c1.221-4.304,6.093-1.772,8.659-0.601c2.548,2.368,4.659,3.919,6.332,4.654
	c12.779,5.612,21.17,8.588,25.172,8.927l0.642,0.034c4.282,0.084,21.619-1.661,52.011-5.234
	c32.362-3.807,65.916-7.239,100.66-10.307c70.68-6.236,120.312-9.877,148.895-10.925c23.881-0.874,59.987-1.222,108.323-1.037h0.009
	c1.094,0.005,5.538,0.308,13.337,0.911c0.004,0,0.007,0,0.011,0.001l64.135,5.058c2.104-1.704,5.901-5.674,11.402-11.91
	c18.12-20.542,36.929-38.804,56.427-54.778c25.562-20.949,52.055-35.675,79.479-44.17c50.534-15.654,101.334-22.971,152.396-21.938
	c7.792,0.157,16.864,0.638,27.22,1.438c14.527,1.122,31.729,2.892,51.603,5.307c26.988,3.279,67.375,8.775,121.152,16.489
	c54.771,7.854,95.869,13.438,123.312,16.747c52.334,6.312,102.877,14.424,151.627,24.334c16.221,3.298,40.756,7.42,73.604,12.362
	c17.565,2.646,30.739,4.693,39.521,6.146c6.072,1.005,11.354,1.68,15.85,2.028c6.818,0.522,11.398,0.338,13.738-0.568
	c6.494-2.516,12.756-9.525,18.783-21.027c10.771-20.561,20.104-38.914,27.983-55.061c10.263-21.008,23.496-44.699,39.714-71.07
	c3.27-5.312,6.146-9.557,8.639-12.729l7.068-9.015c8.197-10.444,15.938-19.166,23.221-26.147
	c12.354-11.862,22.137-20.588,29.332-26.178c19.197-14.918,36.176-26.508,50.93-34.771c22.318-12.502,42.551-22.016,60.693-28.541
	c0.063-0.023,0.131-0.045,0.194-0.067l66.798-21.862c0.002-0.001,0.006-0.001,0.008-0.002c7.029-2.294,17.627-5.307,31.785-9.038
	l17.025-4.59c3.438-0.964,12.029-3.001,25.787-6.112c17.098-3.864,31.276-6.81,42.553-8.836l0,0
	c13.926-2.504,24.111-4.658,30.562-6.463l-33.47-12.673c-113.767-43.084-177.256-67.351-190.478-72.801
	c-25.689-10.593-45.016-18.357-57.969-23.292c-21.676-8.26-40.576-14.646-56.701-19.16c-6.963-1.949-24.357-7.773-52.188-17.472
	c-53.696-18.714-91.562-31.307-113.584-37.776c-10.608-3.116-21.075-6.323-31.403-9.621l-101.742-28.69
	c-30.547-8.117-67.246-17.235-110.104-27.353c-35.187-8.306-63.317-14.465-84.405-18.479c-30.986-5.897-59.302-9.838-84.941-11.824
	l-15.656-0.999c-8.212-0.411-18.163-1.068-29.857-1.973c-0.004,0-0.011,0-0.016-0.001l-26.068-2.065
	c-15.996-1.236-29.295-2.031-39.9-2.384C922.001-0.758,884.9,0.338,848.79,3.797c-72.856,6.979-144.978,32.954-216.353,77.923
	c-1.598,1.004-13.979,8.039-37.151,21.106l-0.086,0.048c-5.132,2.894-12.901,7.014-23.311,12.358
	c-15.652,8.042-27.148,14.394-34.485,19.059c-21.921,13.937-38.061,27.504-48.411,40.702c-6.442,8.213-11.586,14.292-15.429,18.237
	c-8.091,8.303-15.011,12.231-20.762,11.787c-2.06-0.159-3.937-0.802-5.629-1.927c-0.996-0.662-2.799-1.572-5.398-2.728
	c-5.415-2.403-9.368-4.926-11.859-7.567c-0.726-0.421-1.497-0.69-2.312-0.807c-0.521,0.293-1.263,0.761-2.215,1.404
	c-6.271,4.231-12.556,9.915-18.839,17.049c-4.014,4.556-9.507,11.576-16.479,21.057c-48.727,66.256-145.919,196.536-291.588,390.837
	l-5.952,8.035c-6.563,8.913-11.622,15.537-15.175,19.869c-1.039,1.266-2.708,3.159-5.01,5.684c-2.418,2.651-4.383,4.978-5.894,6.978
	c-2.794,1.642-6.209,3.185-9.127,0.87L57.322,663.766z"/>
</svg>
