<?xml version="1.0" encoding="utf-8"?>
<!-- Generator: Adobe Illustrator 16.0.0, SVG Export Plug-In . SVG Version: 6.00 Build 0)  -->
<!DOCTYPE svg PUBLIC "-//W3C//DTD SVG 1.1//EN" "http://www.w3.org/Graphics/SVG/1.1/DTD/svg11.dtd">
<svg version="1.1" id="Layer_1" xmlns="http://www.w3.org/2000/svg" xmlns:xlink="http://www.w3.org/1999/xlink" x="0px" y="0px"
	 width="1987.585px" height="705.464px" viewBox="0 0 1987.585 705.464" enable-background="new 0 0 1987.585 705.464"
	 xml:space="preserve">
<path fill="none" stroke="#000000" stroke-linejoin="round" stroke-miterlimit="10" d="M1924.917,672.068
	c-0.238-2.525-3.443-7.189-9.619-13.992c-2.295-2.527-3.961-4.426-4.996-5.695c-3.541-4.34-8.584-10.977-15.125-19.908l-5.932-8.049
	c-145.184-194.666-242.049-325.188-290.605-391.566c-6.945-9.499-12.424-16.533-16.426-21.098
	c-6.268-7.151-12.533-12.85-18.795-17.097c-0.953-0.646-1.689-1.116-2.211-1.41c-0.816,0.114-1.588,0.382-2.316,0.801
	c-2.496,2.635-6.457,5.147-11.877,7.538c-2.605,1.15-4.41,2.055-5.41,2.714c-1.693,1.121-3.57,1.759-5.633,1.913
	c-5.752,0.431-12.662-3.516-20.729-11.839c-3.832-3.954-8.959-10.046-15.385-18.275c-10.318-13.225-26.426-26.832-48.311-40.824
	c-7.326-4.683-18.807-11.065-34.439-19.145c-10.395-5.371-18.148-9.51-23.273-12.417l-0.086-0.048
	c-23.143-13.125-35.508-20.192-37.1-21.2c-71.268-45.148-143.314-71.304-216.156-78.466c-36.104-3.55-73.197-4.739-111.295-3.566
	c-10.605,0.326-23.91,1.088-39.904,2.284l-26.074,2c-0.005,0-0.009,0-0.014,0.001C951.51,5.598,941.555,6.23,933.343,6.62
	l-15.661,0.959c-25.646,1.921-53.97,5.791-84.971,11.61c-21.099,3.96-49.25,10.049-84.453,18.267
	c-42.882,10.01-79.604,19.035-110.171,27.076L536.271,92.966c-10.338,3.271-20.812,6.452-31.43,9.542
	c-22.042,6.415-59.936,18.912-113.68,37.491c-27.855,9.63-45.268,15.41-52.236,17.342c-16.135,4.473-35.051,10.811-56.749,19.017
	c-12.964,4.902-32.307,12.618-58.027,23.146c-13.232,5.417-76.784,29.524-190.656,72.323L0,284.415
	c6.446,1.821,16.628,4.001,30.547,6.54h0.001c11.266,2.055,25.442,5.037,42.525,8.943c13.751,3.146,22.342,5.204,25.773,6.177
	l17.016,4.633c14.152,3.768,24.739,6.807,31.764,9.118c0.001,0.001,0.003,0.002,0.005,0.002l66.742,22.03
	c0.066,0.022,0.131,0.045,0.197,0.068c18.128,6.57,38.336,16.136,60.621,28.693c14.734,8.303,31.682,19.937,50.844,34.896
	c7.182,5.607,16.937,14.357,29.267,26.25c7.261,7.008,14.979,15.742,23.151,26.211l7.047,9.027c2.483,3.18,5.351,7.432,8.606,12.752
	c16.146,26.412,29.323,50.137,39.529,71.172c7.847,16.166,17.126,34.541,27.853,55.129c5.999,11.521,12.242,18.543,18.729,21.074
	c2.337,0.912,6.917,1.113,13.737,0.604c4.493-0.336,9.778-0.998,15.854-1.988c8.782-1.43,21.96-3.445,39.534-6.047
	c32.863-4.863,57.409-8.924,73.641-12.182c48.772-9.789,99.338-17.771,151.688-23.953c27.446-3.24,68.563-8.723,123.354-16.438
	c53.798-7.578,94.193-12.973,121.193-16.186c19.877-2.365,37.082-4.094,51.613-5.182c10.354-0.771,19.43-1.229,27.221-1.367
	c51.064-0.902,101.844,6.531,152.34,22.314c27.404,8.566,53.859,23.355,79.367,44.367c19.459,16.029,38.221,34.338,56.289,54.926
	c5.486,6.25,9.275,10.23,11.371,11.939l64.145-4.898c0.006,0,0.012,0,0.016,0c7.799-0.584,12.244-0.877,13.338-0.877h0.008
	c48.336-0.061,84.443,0.375,108.322,1.312c28.578,1.115,78.197,4.885,148.859,11.297c34.736,3.15,68.281,6.672,100.639,10.561
	c30.381,3.65,47.715,5.439,51.996,5.365l0.643-0.033c4.002-0.328,12.396-3.283,25.193-8.863c2.729-1.188,6.635-4.553,11.703-10.084
	c1.312-1.428,2.291-2.543,2.945-3.348L1924.917,672.068z"/>
</svg>
