<?xml version="1.0" encoding="utf-8"?>
<!-- Generator: Adobe Illustrator 16.0.0, SVG Export Plug-In . SVG Version: 6.00 Build 0)  -->
<!DOCTYPE svg PUBLIC "-//W3C//DTD SVG 1.1//EN" "http://www.w3.org/Graphics/SVG/1.1/DTD/svg11.dtd">
<svg version="1.1" id="Layer_1" xmlns="http://www.w3.org/2000/svg" xmlns:xlink="http://www.w3.org/1999/xlink" x="0px" y="0px"
	 width="1755.301px" height="536.445px" viewBox="0 0 1755.301 536.445" enable-background="new 0 0 1755.301 536.445"
	 xml:space="preserve">
<path d="M1753.14,6.318c-2.362-1.138-5.416-0.894-7.979-1.083c-4.094-0.302-8.187-0.599-12.278-0.897
	c-4.502-0.328-9.007-0.659-13.509-0.987c-3.728-0.272-7.455-0.544-11.182-0.816c-1.734-0.127-3.471-0.253-5.203-0.38
	c-0.061-0.004-0.117-0.009-0.179-0.013c-48.888-3.571-109.838-2.714-146.713,2.843c-24.022,3.621-47.522,4.4-76.923,6.224
	c-3.623,0.224-7.259,0.709-10.838,1.301c-5.632,0.932-10.226,1.833-14.252,6.108c-4.168,4.426-8.146,9.023-12.099,13.644
	c-4.879,5.708-10.002,11.202-15.285,16.538c-18.157,18.34-35.231,37.706-51.938,57.373l-7.564,8.908
	c-11.34,13.353-25.088,29.538-35.106,39.095l-15.864,16.023c-11.334,12.145-29.474,25.131-54.354,38.982
	c-10.729,6.009-24.571,11.513-41.434,16.694c-22.598,6.868-48.271,9.952-55.229,9.741c-3.712-0.11-7.435-0.608-11.056-1.605
	c-2.287-0.63-3.199-3.319-1.927-5.282c3.767-5.801,10.791-4.276,16.734-5.325c7.1-1.252,14.13-2.913,21.188-4.371
	c18.104-3.74,33.029-8.011,44.736-12.904c19.702-8.234,36.981-20.998,52.938-35.053c18.926-16.671,49.508-51.676,73.051-78.624
	c16.057-18.376,30.619-38.106,48.148-55.138c3.77-3.661,16.491-15.821,5.766-18.467c-3.66-0.903-8.285-0.986-12.012-0.54
	c-0.799,0.096-4.515,0.212-11.076,0.376c-11.896,0.312-22.937,1.007-33.162,1.995c-53.303,5.232-86.362,7.799-99.228,7.609
	c-11.043-0.147-17.971-1.95-20.807-5.343l-4.539-5.459c-1.961-2.356-4.451-5.354-6.449-6.529c-4.356-2.562-9.401-1.087-15.051,4.609
	c-6.141,6.197-14.197,14.327-17.067,19.799c-2.375,4.521-25.314,28.928-38.479,42.933l-7.687,8.176
	c-21.495,22.951-34.448,36.196-38.884,39.803l-8.612,6.925c-7.084,5.695-20.067,17.429-21.44,16.848
	c-2.801-1.184-5.812-1.932-8.857-1.917c-2.657,0.013-5.981,0.351-7.664,2.691c-1.194,1.663-1.659,3.691-2.274,5.604
	c-0.946,2.944-2.545,5.666-3.938,8.415c-0.209,0.414-0.489,0.838-0.646,1.276c-0.832,2.317-1.635,4.658-1.187,7.149
	c0.438,2.429,1.013,4.834,1.599,7.231c0,0,2.504,10.524,2.526,10.628c4.312,17.976-9.377,29.385-24.744,33.21
	c-22.045,5.488-45.026,4.224-67.44,2.375c-21.071-1.738-42.104-2.426-63.185-3.794c-76.062-4.938-152.312-6.436-228.36-11.611
	C568.73,204,461.041,201.193,353.776,191.972l-87.071-7.485c-67.166-7.241-134.868-5.383-202.269-8.882
	c-10.643-0.552-21.277-1.232-31.924-1.755c-4.792-0.235-9.574-0.633-14.354-1.003c-2.113-0.164-19.535-2.167-18.07,2.735
	c5.899,19.74,1.31,32.475,17.569,35.35l20.608,3.646l124.17,19.03c29.433,4.512,87.978,16.52,131.819,25.513
	c0,0,77.661,15.931,77.805,15.96c126.74,25.998,254.954,67.211,360.336,144.646c28.753,21.124,55.08,45.812,78.357,72.865l8.2,9.532
	c7.521,8.737,21.409,24.88,22.658,26.132c7.495,7.516,19.286,9.53,29.376,7.377c5.685-1.213,10.672-4.289,15.786-6.91
	c4.477-2.294,8.977-4.541,13.477-6.779c11.57-5.765,23.176-11.46,34.767-17.184c6.021-2.971,12.041-5.941,18.049-8.939
	c29.006-14.479,58.532-27.904,87.328-42.808c7.239-3.746,13.603-6.967,19.129-9.566c44.127-20.775,73.51-34.384,88.194-40.96
	c46.593-20.866,95.754-47.262,146.422-56.24c67.646-11.989,136.191,3.145,203.55,10.143c20.849,2.166,42.233-0.109,61.043-9.83
	c21.428-11.072,32.476-31.602,43.862-51.834c5.896-10.474,11.683-20.979,17.479-31.51c5.17-9.387,10.188-18.84,15.285-28.265
	c2.948-5.456,5.744-10.968,8.6-16.472c0.152-0.299,0.334-0.592,0.473-0.898c1.728-3.775,4.185-7.153,6.177-10.786
	c3.662-6.677,7.297-13.369,10.938-20.057c3.931-7.22,7.854-14.445,11.769-21.674c4.239-7.832,8.471-15.669,12.692-23.511
	c4.354-8.082,8.699-16.168,13.041-24.258c4.252-7.925,8.498-15.853,12.738-23.783c4.023-7.521,8.046-15.043,12.062-22.568
	c3.648-6.839,7.297-13.68,10.938-20.525c3.021-5.676,6.031-11.355,9.031-17.041c2.172-4.115,4.338-8.234,6.481-12.363
	c1.453-2.795,2.896-5.598,4.328-8.404c0.767-1.501,0.993-3.407,0.074-4.887C1754.283,7.05,1753.748,6.61,1753.14,6.318z"/>
</svg>
