<?xml version="1.0" encoding="utf-8"?>
<!-- Generator: Adobe Illustrator 16.0.0, SVG Export Plug-In . SVG Version: 6.00 Build 0)  -->
<!DOCTYPE svg PUBLIC "-//W3C//DTD SVG 1.1//EN" "http://www.w3.org/Graphics/SVG/1.1/DTD/svg11.dtd">
<svg version="1.1" id="Layer_1" xmlns="http://www.w3.org/2000/svg" xmlns:xlink="http://www.w3.org/1999/xlink" x="0px" y="0px"
	 width="1809.059px" height="538.564px" viewBox="0 0 1809.059 538.564" enable-background="new 0 0 1809.059 538.564"
	 xml:space="preserve">
<path fill="none" stroke="#000000" stroke-linejoin="round" stroke-miterlimit="10" d="M1747.707,169.691
	c-0.66-2.525-1.012-5.176-1.012-7.908c0-17.222,13.96-31.182,31.182-31.182c17.223,0,31.182,13.96,31.182,31.182
	c0,17.221-13.959,31.182-31.182,31.182c-6.292,0-12.147-1.863-17.048-5.068c-2.166,0-4.401-0.002-6.085,1.575
	c-1.636,1.533-2.24,3.825-3.214,5.773c-0.607,2.192-1.2,4.127-1.501,5.481c-1.729,7.777-5.043,12.843-13.357,14.292
	c-0.053,0.009-20.619,3.594-20.619,3.594l-124.219,18.718c-29.443,4.437-88.016,16.298-131.883,25.181
	c-58.781,11.903-117.799,23.155-175.654,39.104c-130.86,36.075-259.563,98.395-349.654,202.58
	c-7.541,8.721-21.477,24.832-22.725,26.074l-3.967,4.094l-10.852,3.873c-3.39,1.209-19.517-1.14-22.522-3.354
	c-3.345-2.461-49.333-24.93-74.028-37.334c-28.969-14.549-58.462-28.049-87.219-43.021c-7.229-3.765-13.583-7-19.104-9.617
	c-44.073-20.887-73.424-34.57-88.093-41.185c-85.568-38.578-169.868-73.748-265.773-56.651c-16.867,3.008-34.024,3.789-51.001,5.973
	c-10.379,1.334-21.422,2.523-33.08,3.705c-81.704,8.021-118.524-77.903-146.388-139.18c-1.719-3.779-4.167-7.162-6.148-10.799
	c-0.91-1.669-1.813-3.342-2.72-5.013c-8.144-15.013-16.266-30.039-24.347-45.086c-9.052-16.855-18.066-33.731-27.061-50.617
	C41.259,90.372,32.92,74.68,24.608,58.973c-6.172-11.664-12.342-23.33-18.439-35.034c-1.728-3.317-3.45-6.637-5.133-9.977
	c-4.613-9.157,7.348-8.894,13.061-9.294C26.75,3.781,39.4,2.882,52.05,1.996c48.897-3.448,109.845-2.438,146.707,3.212
	c24.013,3.681,47.51,4.52,76.904,6.416c2.658,0.171,17.251,1.639,21.818,4.367c1.385,0.882,6.488,6.399,15.316,16.78
	c4.865,5.721,9.973,11.227,15.244,16.576c18.113,18.385,35.139,37.794,51.793,57.503l7.544,8.927
	c11.307,13.381,25.014,29.601,35.01,39.183l15.825,16.063c11.302,12.173,29.409,25.204,54.252,39.118
	c10.717,6.037,24.544,11.575,41.395,16.799c22.576,6.925,48.24,10.073,55.205,9.88c3.711-0.101,7.437-0.59,11.06-1.577
	c2.29-0.624,3.209-3.312,1.938-5.278c-3.856-5.968-8.984-4.173-14.981-5.05c-2.227-0.325-4.437-0.837-6.634-1.289
	c-5.435-1.117-10.851-2.315-16.278-3.451c-18.095-3.786-33.011-8.094-44.707-13.017c-19.681-8.285-36.928-21.091-52.848-35.186
	c-18.888-16.72-49.381-51.801-72.854-78.807c-16.008-18.417-30.521-38.185-48.011-55.26l-7.51-7.335
	c-1.434-1.432-2.541-7.803-1.604-9.515c2.082-3.805,11.867-2.066,15.408-2.141c0.799,0.097,4.514,0.223,11.076,0.404
	c11.894,0.341,22.932,1.064,33.154,2.078c53.29,5.366,86.347,8.016,99.208,7.858c11.045-0.119,17.976-1.905,20.817-5.29l4.554-5.448
	c1.969-2.351,4.47-5.343,6.47-6.513c4.361-2.552,9.402-1.064,15.034,4.647c9.62,9.756,17.508,20.52,26.306,30.968
	c9.271,11.012,19.259,21.391,29.088,31.901c0.001,0,7.667,8.196,7.667,8.196c21.435,23.005,34.354,36.282,38.781,39.901l8.596,6.946
	c7.07,5.714,20.023,17.48,21.398,16.902c4.01-1.685,10.662-3.347,14.618-0.793c2.169,1.401,2.95,4.01,3.859,6.284
	c1.455,3.637,3.098,7.144,4.864,10.642l1.452,4.068c0.745,2.103-0.928,6.408-1.335,8.516c-0.718,3.674-1.423,7.35-1.854,11.07
	c-0.83,7.147-0.967,15.061,2.896,21.431c8.115,13.383,31.375,17.892,45.546,18.412c18.792,0.69,37.642-1.425,56.38-2.426
	c32.767-1.751,65.528-3.588,98.297-5.352c123.656-6.655,247.422-11.215,371.029-18.813c140.149-8.611,279.809-18.006,420.041-24.932
	c15.25-0.753,30.557-1.285,45.786-2.375c0.837-0.061,1.689-0.141,2.551-0.228c4.301-0.967,9.363-1.962,9.363-7.372L1747.707,169.691
	z"/>
</svg>
