<?xml version="1.0" encoding="utf-8"?>
<!-- Generator: Adobe Illustrator 16.0.0, SVG Export Plug-In . SVG Version: 6.00 Build 0)  -->
<!DOCTYPE svg PUBLIC "-//W3C//DTD SVG 1.1//EN" "http://www.w3.org/Graphics/SVG/1.1/DTD/svg11.dtd">
<svg version="1.1" id="Layer_1" xmlns="http://www.w3.org/2000/svg" xmlns:xlink="http://www.w3.org/1999/xlink" x="0px" y="0px"
	 width="1575.844px" height="695.463px" viewBox="0 0 1575.844 695.463" enable-background="new 0 0 1575.844 695.463"
	 xml:space="preserve">
<path fill="none" stroke="#000000" stroke-linejoin="round" stroke-miterlimit="10" d="M61.993,669.091
	c2.761-4.609,6.137-3.139,10.377-2.179l-0.003-0.001c9.602,4.34,26.424,6.528,51.791,5.817
	c43.812-1.273,262.3-17.989,297.576-20.197c35.347-2.195,143.896-0.293,166.656,3.312c12.312,1.898,19.876,0.903,27.65-8.684
	c81.668-100.214,150.41-108.023,212.75-111.928c61.834-3.921,418.646,45.799,626.646,84.77c11.326,2.09,17.297-0.213,20.27-11.604
	c18.908-70.938,48.029-123.238,93.367-170.099c8.154-8.416,9.921-13.001-0.156-29.127
	c-77.385-123.679-119.68-193.436-193.654-313.656c-10.781-17.495-25.561-24.877-44.188-29.507
	c-98.762-24.88-254.771-54.75-298.811-59.219C934.745-3.242,864.657-3.495,767.729,15.17
	c-32.435,6.371-84.496,23.217-122.451,50.764c-38.456,27.897-64.679,50.729-82.909,67.306
	c-12.661,11.568-40.646,36.501-79.026,38.084c-17.101,0.76-29.814,1.131-38.146,2.722c-23.845,4.535-26.072,9.257-34.583,20.103
	C389.295,221.07,196.969,472.652,67.986,641.531c-1.095,1.428-2.036,2.82-2.819,4.179c-1.117,0.95-1.936,2.457-3.443,2.851
	c-1.562,0.408-3.084-0.507-4.388-1.26l-0.001-0.003c-5.561-8.546-15.197-14.197-26.154-14.197C13.96,633.101,0,647.062,0,664.282
	s13.96,31.181,31.181,31.181c15.606,0,28.535-11.465,30.822-26.432L61.993,669.091z"/>
</svg>
