<?xml version="1.0" encoding="utf-8"?>
<!-- Generator: Adobe Illustrator 16.0.0, SVG Export Plug-In . SVG Version: 6.00 Build 0)  -->
<!DOCTYPE svg PUBLIC "-//W3C//DTD SVG 1.1//EN" "http://www.w3.org/Graphics/SVG/1.1/DTD/svg11.dtd">
<svg version="1.1" id="Layer_1" xmlns="http://www.w3.org/2000/svg" xmlns:xlink="http://www.w3.org/1999/xlink" x="0px" y="0px"
	 width="1453.691px" height="534.012px" viewBox="0 0 1453.691 534.012" enable-background="new 0 0 1453.691 534.012"
	 xml:space="preserve">
<path fill="none" stroke="#000000" stroke-linejoin="round" stroke-miterlimit="10" d="M1387.713,55.233
	c3.312-3.313,7.577-6.406,11.961-2.822c5.693,6.12,13.817,9.949,22.835,9.949c17.222,0,31.182-13.959,31.182-31.18
	c0-17.221-13.962-31.18-31.182-31.18s-31.18,13.96-31.18,31.18c0,0.105,0.001,0.21,0.002,0.314
	c-1.845,4.735-8.441,3.171-12.365,3.171h-0.002c-13.86-2.008-42.125-5.03-77.21-2.555c-35.635,2.583-135.527,5.438-170.186,7.464
	c-26.982,1.636-52.888,0.466-88.228-2.309c-19.1-1.57-38.385,0.777-51.653,3.024c-49.58,8.221-111.105,12.048-130.716,11.268
	c-19.418-0.603-26.524,4.422-31.389,11.602c-5.475,8.167-20.117,37.448-78.271,83.999c-13.442,10.626-17.055,20.223-15.143,31.678
	c1.556,9.345,2.763,16.946,3.068,24.68c0.354,11.545-1.937,12.089-10.039,15.326c-25.631,10.067-9.98,21.992-2.451,20.771
	c7.685-1.266,95.141-9.038,102.685-10.329c7.612-1.279,14.612,0.479,33.666-7.541c6.479-2.724,20.372-12.172,25.573-15.927
	c4.285-3.114,9.781-8.938,15.019-5.886c7.012,4.173,13.146,10.383,15.114,17.388c2.443,9.285-9.776,18.811-17.451,23.296
	c-44.312,26.27-84.098,29.577-99.294,28.264c-57.234-5.062-134.717-10.214-146.677-12.048c-11.876-1.894-12.53-1.499-12.438-13.11
	c0.193-10.568,1.772-18.625,0.939-29.158c-0.838-12.142-7.727-16.584-15.271-16.903c-58.23-1.947-111.885-3.739-145.978-4.904
	c-12.148-0.333-28.431,1.964-50.915,6.667c-15.507,3.312-41.181-1.183-58.184-3.037c-24.771-2.578-41.355-11.304-72.446-12.886
	c-37.243-1.944-64.986-3.442-104.672-6.04c-19.234-1.228-26.942-1.063-35.716,3.446c-15.664,7.891-135.977,69.639-150.965,77.432
	c-14.417,7.454-14.921,10.289,12.796,18.511c200.28,58.516,257.736,83.729,316.167,116.204
	c79.078,44.271,148.812,106.914,176.146,134.957c9.401,9.646,19.881,6.242,33.979-0.246
	c79.195-36.149,160.461-73.254,339.271-150.188c22.103-9.525,55.646-20.086,84.361-17.102
	c109.93,11.438,173.494,19.157,200.316,22.539c15.096,1.881,30.307,6.416,43.789-17.587
	c80.354-142.571,160.397-288.78,169.006-305.896c0.726-1.453,1.451-2.884,2.132-4.282L1387.713,55.233z"/>
</svg>
