<?xml version="1.0" encoding="utf-8"?>
<!-- Generator: Adobe Illustrator 16.0.0, SVG Export Plug-In . SVG Version: 6.00 Build 0)  -->
<!DOCTYPE svg PUBLIC "-//W3C//DTD SVG 1.1//EN" "http://www.w3.org/Graphics/SVG/1.1/DTD/svg11.dtd">
<svg version="1.1" id="Layer_1" xmlns="http://www.w3.org/2000/svg" xmlns:xlink="http://www.w3.org/1999/xlink" x="0px" y="0px"
	 width="3217.035px" height="1215.111px" viewBox="0 0 3217.035 1215.111" enable-background="new 0 0 3217.035 1215.111"
	 xml:space="preserve">
<path fill="none" stroke="#000000" stroke-linejoin="round" stroke-miterlimit="10" d="M68.371,885.682
	c-6.082-5.666-4.521-16.61-8.997-31.587c-0.677-2.265,3.521-2.089,3.952-3.694c6.875,0.688,20.993,1.595,42.421,2.765"/>
<path fill="none" stroke="#000000" stroke-linejoin="round" stroke-miterlimit="10" d="M1818.638,677.09
	c0,0-64.135-5.058-64.146-5.059c-7.798-0.604-12.243-0.906-13.345-0.911c-48.337-0.185-84.443,0.163-108.324,1.037
	c-28.582,1.048-78.213,4.688-148.896,10.925c-34.741,3.062-68.297,6.5-100.659,10.307c-26.808,3.151-52.239,7.517-77.821-3.726
	c-6.164-2.709-13.021-8.646-14.175-15.546c-0.105-0.63-0.158-1.247-0.164-1.853"/>
<path fill="none" stroke="#000001" stroke-linejoin="round" stroke-miterlimit="10" d="M1282.477,688.248
	c1.511-0.002,2.957,0.404,4.333,1.214c1.997,1.175,4.49,4.173,6.45,6.529l4.54,5.459c2.835,3.393,9.761,5.195,20.804,5.344
	c12.863,0.189,45.928-2.377,99.229-7.606c10.226-0.986,21.266-1.687,33.162-1.994c6.561-0.164,10.273-0.28,11.077-0.376
	c2.468-0.294,5.035-0.326,7.521-0.392c2.396-0.061,5.801-0.045,7.633,1.88c2.145,2.252,0.094,6.398-1.094,8.591
	c-1.913,3.535-4.969,6.164-7.816,8.927c-17.526,17.03-32.097,36.763-48.146,55.139c-23.542,26.948-54.125,61.952-73.052,78.624
	c-15.955,14.056-33.234,26.818-52.938,35.054c-11.708,4.896-26.635,9.163-44.739,12.903c-5.768,1.191-11.436,2.832-17.229,3.91
	c-6.884,1.28-16.25-1.048-20.691,5.786c-1.741,2.68,1.371,5.349,3.492,6.039c3.423,1.114,7.492,0.871,11.045,0.797
	c10.234-0.213,20.554-2.021,30.574-3.979c7.763-1.518,15.524-3.408,23.097-5.711c16.862-5.182,30.703-10.686,41.438-16.689
	c24.878-13.854,43.018-26.838,54.35-38.982l15.865-16.021c10.02-9.562,23.768-25.743,35.104-39.101l7.566-8.904
	c16.704-19.668,33.778-39.032,51.938-57.372c5.28-5.337,10.403-10.83,15.283-16.537c8.854-10.359,13.975-15.863,15.358-16.742
	c4.573-2.716,19.17-4.147,21.829-4.312c29.396-1.818,52.896-2.603,76.921-6.224c36.875-5.558,97.826-6.414,146.718-2.844
	c14.785,1.08,29.571,2.141,44.354,3.242c2.266,0.169,5.099,0.726,6.574,2.616c0.475,0.607,0.743,1.249,0.86,1.908"/>
</svg>
