<?xml version="1.0" encoding="utf-8"?>
<!-- Generator: Adobe Illustrator 25.4.6, SVG Export Plug-In . SVG Version: 6.00 Build 0)  -->
<svg version="1.1" id="Layer_1" xmlns="http://www.w3.org/2000/svg" xmlns:xlink="http://www.w3.org/1999/xlink" x="0px" y="0px"
	 width="141.732px" height="141.732px" viewBox="0 0 141.732 141.732" enable-background="new 0 0 141.732 141.732"
	 xml:space="preserve">
<g>
	<g>
		<path fill="#FFFFFF" d="M140.542,16.55v108.633c0,8.478-6.874,15.353-15.353,15.353H16.546c-8.478,0-15.353-6.874-15.353-15.353
			V16.55c0-8.478,6.874-15.353,15.353-15.353h108.643C133.667,1.197,140.542,8.072,140.542,16.55z"/>
		<path fill="#1E4581" d="M125.177,141.732H16.556C7.427,141.732,0,134.305,0,125.177V16.555C0,7.427,7.427,0,16.556,0h108.621
			c9.129,0,16.556,7.427,16.556,16.555v108.622C141.732,134.305,134.306,141.732,125.177,141.732z M16.556,2.388
			c-7.812,0-14.167,6.355-14.167,14.167v108.622c0,7.812,6.355,14.167,14.167,14.167h108.621c7.812,0,14.167-6.355,14.167-14.167
			V16.555c0-7.812-6.355-14.167-14.167-14.167H16.556z"/>
	</g>
	<g>
		<g>
			<g>
				<g>
					<path fill="#1E4581" d="M98.99,81.064c0.048-0.046,0.07-0.067,0.118-0.113c-0.04-1.325-0.126-12.765,10.855-12.075
						c9.152,0.574,9.24,7.846,10.364,11.282c0.079,0.241,0.27,0.435,0.517,0.493c0.364,0.086,0.806,0.063,1.495,0.077h1.047
						c1.113,0,2.015-0.902,2.015-2.015v-4.178c-0.01-0.523-0.435-0.958-0.968-0.958h-0.049c-0.059,0-0.109-0.059-0.109-0.119
						l0.02-0.474c0-0.01,0-0.02,0-0.02c-0.326-4.751-1.314-6.805-1.748-7.506c-0.119-0.178-0.267-0.336-0.454-0.444
						c-4.859-2.864-22.114-3.941-22.983-3.99c-0.01,0-0.039-0.01-0.049-0.03c-11.605-8.652-14.993-9.096-14.993-9.096
						c-14.015-1.709-23.27-1.077-26.065-0.8c-0.583,0.059-1.086,0.405-1.323,0.928c-0.533,1.166-1.422,4.563-1.679,8.069
						c-0.03,0.306-0.277,0.543-0.593,0.543l-34.282-0.267c-0.83,0-1.501,0.662-1.501,1.482v11.822c0,0.06-0.049,0.109-0.109,0.109
						h-1.373c-0.454,0-0.81,0.366-0.81,0.81v1.6c0,1.225,0.968,2.232,2.183,2.291c0.059,0,0.109,0.049,0.109,0.109
						c0,0.425,0.346,0.761,0.761,0.761h3.131c0.217,0.069,2.607,0.79,7.467,1.402c0.079,0.01,0.138-0.049,0.138-0.119
						c-0.099-1.403-0.533-13.067,10.479-12.968c11.042,0.109,10.943,12.277,10.894,13.679c0,0.069,0.049,0.128,0.128,0.119
						l6.183-0.8L98.99,81.064z M68.283,61.34c-0.01,0.138-0.128,0.257-0.277,0.257h-6.44c-0.197,0-0.356-0.168-0.346-0.365
						l0.612-8.553c0.02-0.138,0.128-0.247,0.267-0.247h6.183c0.178,0,0.336,0.148,0.326,0.346L68.283,61.34z M73.597,61.597
						c-0.296,0-0.533-0.237-0.533-0.523v-8.366c0-0.158,0.128-0.267,0.277-0.267c1.412,0.059,7.842,0.385,10.045,1.482
						c2.035,0.997,5.363,3.96,6.904,5.314c0.416,0.366,0.629,1.153,0.728,1.897c0.082,0.619-0.423,1.159-1.047,1.134L73.597,61.597z
						"/>
				</g>
				<g>
					<path fill="#1E4581" d="M40.401,72.639c-5.008,0-9.057,4.069-9.057,9.067c0,5.008,4.049,9.057,9.057,9.057
						s9.067-4.049,9.067-9.057C49.468,76.708,45.409,72.639,40.401,72.639z M40.401,86.407c-2.588,0-4.691-2.114-4.691-4.701
						c0-2.588,2.104-4.701,4.691-4.701c2.598,0,4.701,2.114,4.701,4.701C45.103,84.293,42.999,86.407,40.401,86.407z"/>
				</g>
				<g>
					<path fill="#1E4581" d="M109.617,72.856c-5.008,0-9.057,4.059-9.057,9.067c0,5.008,4.049,9.057,9.057,9.057
						c4.998,0,9.067-4.049,9.067-9.057C118.684,76.915,114.615,72.856,109.617,72.856z M109.617,86.624
						c-2.588,0-4.691-2.114-4.691-4.701c0-2.597,2.104-4.701,4.691-4.701c2.588,0,4.701,2.104,4.701,4.701
						C114.319,84.511,112.205,86.624,109.617,86.624z"/>
				</g>
			</g>
		</g>
	</g>
</g>
</svg>
