<?xml version="1.0" encoding="utf-8"?>
<!-- Generator: Adobe Illustrator 25.4.6, SVG Export Plug-In . SVG Version: 6.00 Build 0)  -->
<svg version="1.1" id="Layer_1" xmlns="http://www.w3.org/2000/svg" xmlns:xlink="http://www.w3.org/1999/xlink" x="0px" y="0px"
	 width="141.732px" height="141.732px" viewBox="0 0 141.732 141.732" enable-background="new 0 0 141.732 141.732"
	 xml:space="preserve">
<g>
	<g>
		<path fill="#FFFFFF" d="M140.54,16.344v109.041c0,8.366-6.783,15.148-15.148,15.148H16.34c-8.366,0-15.148-6.782-15.148-15.148
			V16.344c0-8.366,6.783-15.148,15.148-15.148h109.051C133.757,1.196,140.54,7.978,140.54,16.344z"/>
		<path fill="#1E4581" d="M125.177,141.732H16.555C7.427,141.732,0,134.306,0,125.176V16.555C0,7.427,7.427,0,16.555,0h108.622
			c9.128,0,16.555,7.427,16.555,16.555v108.621C141.732,134.306,134.305,141.732,125.177,141.732z M16.555,2.388
			c-7.812,0-14.167,6.355-14.167,14.167v108.621c0,7.812,6.355,14.168,14.167,14.168h108.622c7.812,0,14.167-6.355,14.167-14.168
			V16.555c0-7.812-6.355-14.167-14.167-14.167H16.555z"/>
	</g>
	<g>
		<g>
			<path fill="#1E4581" d="M122.625,70.333c-1.15-1.42-2.95-2.39-2.95-2.39c-5.57-2.39-22.28-5.62-26.53-6.42
				c-0.66-0.13-1.32-0.11-1.96,0.07l-1.18,0.32c0,0-11.88-4.7-15.44-6.27c-3.55-1.57-10.64-1.3-10.64-1.3s-19.12,2.09-27.36,5.31
				c-0.85,0.34-1.68,0.64-2.48,0.9l-2.22-2.48l0.44-0.08c0,0,0.76-0.12,0.65-0.75c-0.1-0.52-3.6-0.33-3.6-0.33
				s-9.45,0.79-10.06,0.88c-0.61,0.1-1.08,0.66-0.82,0.79c1.02,0.49,3.57,0.62,3.57,0.62l2.16,3.42c-0.54,0.04-0.98,0.05-1.31,0.07
				c-0.37,0.01-0.68,0.29-0.73,0.67l-0.13,1.1c-0.58,2.22-0.77,4.64-0.73,6.85l-0.89,0.18c-0.36,0.07-0.64,0.37-0.68,0.74l-0.2,1.85
				c-0.09,0.87,0.2,1.74,0.8,2.38l4.01,4.28c1.09,1.04,2.64,1.44,3.51,1.6c-0.1-0.03-0.23-0.05-0.36-0.1
				c-0.25-0.06-0.54-0.15-0.84-0.27c0.3,0.12,0.59,0.2,0.84,0.27c0.13,0.03,0.26,0.07,0.36,0.09c0.16,0.03,0.8,0.15,1.54,0.27
				c-0.44-1.07-0.68-2.24-0.68-3.47c0-5.12,4.16-9.28,9.28-9.28c5.11,0,9.27,4.16,9.27,9.28c0,1.28-0.26,2.5-0.73,3.6h50.54
				c-0.47-1.1-0.73-2.32-0.73-3.6c0-5.12,4.16-9.28,9.28-9.28c5.12,0,9.28,4.16,9.28,9.28c0,1.56-0.39,3.03-1.07,4.32h2.58
				l3.15-0.08c0.77-0.02,1.36-0.68,1.3-1.45l-0.15-1.69c-0.04-0.59,0.05-1.19,0.29-1.74l2.02-4.66
				C123.535,72.693,123.415,71.313,122.625,70.333z M27.705,62.163l-2.9-3.12l4.79-0.54l1.93,2.82
				C30.125,61.693,28.845,61.972,27.705,62.163z M45.815,62.193c0,0-0.38-0.56-0.13-0.87c0.26-0.31,1.88-2.18,3.63-2.8
				c0.77-0.28,2.62-0.74,4.83-1.19l1.3,5.44C51.085,62.553,47.085,62.342,45.815,62.193z M82.155,63.943
				c-1.65-0.03-13.71-0.52-23.59-0.99l-1.54-6.16c2.07-0.36,4.2-0.65,5.96-0.78c4.67-0.3,8.03-0.06,9.26,0.38
				c1.24,0.44,10.75,5.24,12.32,6.67C84.565,63.063,84.825,64.003,82.155,63.943z M92.975,70.483c-0.39,0.97-3,6.19-4.23,8.65
				l2.84-8.3c0,0,0.85-1.34-3.17-4.83c0.02-0.04,0.03-0.07,0.05-0.09l3.9,2.83C92.365,68.743,93.495,69.173,92.975,70.483z
				 M105.625,71.853c-4.01,0-7.28,3.26-7.28,7.28c0,4.01,3.27,7.27,7.28,7.27c4.01,0,7.28-3.26,7.28-7.27
				C112.905,75.113,109.635,71.853,105.625,71.853z"/>
		</g>
		<g>
			<path fill="#1E4581" d="M45.265,79.133c0,1.31-0.35,2.54-0.96,3.6c-1.25,2.19-3.61,3.67-6.31,3.67c-2.71,0-5.07-1.48-6.32-3.67
				c-0.61-1.06-0.96-2.29-0.96-3.6c0-4.02,3.26-7.28,7.28-7.28C42.005,71.853,45.265,75.113,45.265,79.133z"/>
		</g>
		<g>
			<path fill="#1E4581" d="M112.905,79.133c0,4.01-3.27,7.27-7.28,7.27c-4.01,0-7.28-3.26-7.28-7.27c0-4.02,3.27-7.28,7.28-7.28
				C109.635,71.853,112.905,75.113,112.905,79.133z"/>
		</g>
	</g>
</g>
</svg>
