<?xml version="1.0" encoding="utf-8"?>
<!-- Generator: Adobe Illustrator 25.4.6, SVG Export Plug-In . SVG Version: 6.00 Build 0)  -->
<svg version="1.1" id="Layer_1" xmlns="http://www.w3.org/2000/svg" xmlns:xlink="http://www.w3.org/1999/xlink" x="0px" y="0px"
	 width="141.732px" height="141.732px" viewBox="0 0 141.732 141.732" enable-background="new 0 0 141.732 141.732"
	 xml:space="preserve">
<g>
	<g>
		<path fill="#FFFFFF" d="M140.54,16.146v109.44c0,8.264-6.691,14.954-14.954,14.954H16.146c-8.264,0-14.954-6.691-14.954-14.954
			V16.146c0-8.264,6.691-14.954,14.954-14.954h109.44C133.849,1.192,140.54,7.882,140.54,16.146z"/>
		<path fill="#1E4581" d="M125.177,141.732H16.555C7.427,141.732,0,134.306,0,125.176V16.555C0,7.427,7.427,0,16.555,0h108.622
			c9.128,0,16.555,7.427,16.555,16.555v108.621C141.732,134.306,134.305,141.732,125.177,141.732z M16.555,2.388
			c-7.812,0-14.167,6.355-14.167,14.167v108.621c0,7.812,6.355,14.168,14.167,14.168h108.622c7.812,0,14.167-6.355,14.167-14.168
			V16.555c0-7.812-6.355-14.167-14.167-14.167H16.555z"/>
	</g>
	<g>
		<path fill="#1E4581" d="M69.938,64.198l-9.107-3.284c-2.18-0.788-4.536-0.893-6.778-0.28c-8.985,2.452-25.255,7.776-30.614,9.536
			c-1.042,0.333-1.69,1.331-1.594,2.417c0.026,0.245,0.053,0.517,0.07,0.788c0.131,1.401-1.471,1.664-3.468,1.638
			c-0.867-0.009-1.708-0.026-2.391-0.026c-0.955,0-1.839,0.447-2.408,1.2l-2.075,2.785c0,0,10.175-0.123,17.023,2.522
			c86.062-4.536,92.306-12.295,98.979-16.27c-38.103,2.457-97.353,8.221-85.45,5.855c0.666-0.132,1.34-0.222,2.018-0.269
			c30.203-2.095,66.26-5.747,85.385-7.056c0,0,0,0,0.009,0c0.622-0.666,0.622-1.042,0.622-1.042
			C115.771,61.562,69.938,64.198,69.938,64.198z M52.196,65.293c-1.06,0.053-2.119,0-3.161-0.175l-2.951-0.482l9.93-3.179
			c1.007-0.324,2.093-0.307,3.091,0.044l8.433,2.96L52.196,65.293z"/>
	</g>
</g>
</svg>
