<?xml version="1.0" encoding="utf-8"?>
<!-- Generator: Adobe Illustrator 25.4.6, SVG Export Plug-In . SVG Version: 6.00 Build 0)  -->
<svg version="1.1" id="Layer_1" xmlns="http://www.w3.org/2000/svg" xmlns:xlink="http://www.w3.org/1999/xlink" x="0px" y="0px"
	 width="141.732px" height="141.732px" viewBox="0 0 141.732 141.732" enable-background="new 0 0 141.732 141.732"
	 xml:space="preserve">
<g>
	<g>
		<path fill="#FFFFFF" d="M140.54,16.332v109.072c0,8.356-6.783,15.138-15.138,15.138H16.33c-8.356,0-15.138-6.782-15.138-15.138
			V16.332c0-8.356,6.783-15.138,15.138-15.138h109.072C133.757,1.194,140.54,7.976,140.54,16.332z"/>
		<path fill="#1E4581" d="M125.177,141.732H16.555C7.427,141.732,0,134.306,0,125.176V16.556C0,7.427,7.427,0,16.555,0h108.622
			c9.128,0,16.555,7.427,16.555,16.556v108.621C141.732,134.306,134.305,141.732,125.177,141.732z M16.555,2.388
			c-7.812,0-14.167,6.355-14.167,14.167v108.621c0,7.812,6.355,14.168,14.167,14.168h108.622c7.812,0,14.167-6.355,14.167-14.168
			V16.556c0-7.812-6.355-14.167-14.167-14.167H16.555z"/>
	</g>
	<path fill="#1E4581" d="M68.929,55.417c2.255-0.872,2.655-0.734,2.976-0.603c-0.311,0.866-0.923,1.601-1.733,2.119
		c-7.128,4.51-11.281,7.128-12.335,7.778c-0.923,0.565-3.541,0.782-7.203,0.603c-0.772-0.038-1.544-0.198-2.288-0.452L30.85,58.778
		c-0.141-0.047-0.273-0.122-0.377-0.217c1.168-1.337,2.853-1.092,2.853-1.092s12.869,1.233,19.993,1.828
		c2.905,0.242,5.822-0.167,8.548-1.201L68.929,55.417z M24.305,65.013l2.634-0.07c0.415-0.011,0.829,0.034,1.231,0.133l8.791,2.167
		l-3.931-1.898c-0.803-0.388-1.838-0.763-3.157-1.159l-3.559-1.071c-1.114-0.352-1.542-0.722-1.913-1.489l-0.826-1.622
		c-0.255-0.529-0.14-1.162,0.285-1.567l0.286-0.272c0.379-0.362,0.92-0.499,1.426-0.363l3.912,1.052
		c0.245,0.377,0.621,0.669,1.055,0.819l17.495,6.083c0.829,0.282,1.685,0.452,2.552,0.499c0.763,0.038,1.591,0.056,2.42,0.056
		c2.156,0,4.313-0.179,5.32-0.8c1.064-0.65,5.217-3.267,12.354-7.778c1.149-0.734,1.949-1.836,2.269-3.117
		c0.015-0.064,0.256-0.33,0.541-0.636c0.634-0.68,1.565-1.002,2.483-0.856l7.541,1.2l-2.241-3.898l-1.836-0.104l-0.132-0.151
		c-0.226-0.264-0.48-0.556-0.706-0.819c-0.047,0.009-0.085,0.009-0.132,0.009c-0.518,0-0.998-0.188-1.365-0.508
		c-0.433,0.066-0.923,0.141-1.375,0.226l-0.132,0.019l-0.122-0.047c-0.066-0.019-0.603-0.245-0.829-0.81
		c-0.104-0.264-0.179-0.687,0.085-1.234l0.094-0.198l1.789-0.527c0.33-0.631,0.97-1.064,1.714-1.111
		c0.028-0.006,0.056-0.005,0.084-0.006l-0.357-0.239c-0.235-0.245-0.386-0.565-0.386-0.923c0-0.8,0.716-1.459,1.591-1.243
		c0.019-0.038,0.047-0.085,0.075-0.122c0.546-0.725,1.535-0.65,2.034-0.49l2.429,0.395l0.113-0.038l-2.6-3.262
		c0,0,0.79-0.269,1.504,0.097c1.599,0.82,4.505,2.167,5.945,5.048c0.245,0.49,0.348,1.008,0.348,1.516
		c0,0.998-0.386,1.987-0.857,2.815c-0.001,0.002-0.003,0.004-0.004,0.007c0.523,0.727,0.91,1.67,0.992,2.905
		c0.099,1.491,0.133,2.428,0.582,3.832l2.938,0.607c0.627,0.146,1.025,0.275,1.423,0.632c1.576,1.416,4.024,3.009,8.721,6.32
		c2.9,2.043,3.898,4.887,4.218,7.025c0,0.001,0,0.002,0,0.002l1.61-0.037l0-0.003v0.003l0.179-0.004
		c0.273-1.092,0.725-2.08,1.45-2.777c0.631-0.603,1.751-1.252,3.541-0.904l1.789,0.377c0.132,0.038,0.584,0.207,0.847,0.716
		c0.151,0.282,0.282,0.753,0.075,1.422c-0.169,0.509-1.243,4.51-2.128,7.816c-0.49-0.377-1.008-0.716-1.544-1.026
		c0.122-0.45,0.253-0.919,0.375-1.406c-0.862-0.277-2.023-0.61-3.03-0.76c0,0.32,0.009,0.65,0.019,0.951
		c-0.424-0.16-0.866-0.292-1.309-0.396c-0.151-0.047-0.311-0.085-0.461-0.113c-0.377-0.085-0.753-0.151-1.13-0.207
		c-0.725-0.104-1.46-0.16-2.213-0.16c-1.083,0-2.137,0.113-3.164,0.32c0,0.009,0,0.009-0.009,0c-3.776,0.8-7.053,2.966-9.275,5.97
		c-0.687,0.932-1.271,1.949-1.742,3.032c-0.377,0.866-0.678,1.77-0.885,2.712H85.85c-0.831,0-1.662,0.726-2.162,1.262
		c-0.341,0.365-0.822,0.565-1.321,0.565H64.41c-1.387,0-2.768-0.191-4.104-0.567l-3.072-0.865l-2.589,2.599h-1.93
		c-0.198-3.201-1.422-6.121-3.333-8.456c-0.094-0.122-0.198-0.245-0.301-0.358c-0.104-0.122-0.207-0.245-0.311-0.358l-0.179-0.179
		c-0.188-0.198-0.377-0.386-0.584-0.584c-0.292-0.264-0.593-0.527-0.904-0.772c-0.141-0.113-0.283-0.226-0.424-0.33
		c-0.056-0.038-0.104-0.075-0.16-0.113c-0.395-0.283-0.8-0.546-1.224-0.791c-0.132-0.085-0.273-0.16-0.414-0.235
		c-0.141-0.075-0.282-0.151-0.433-0.217c0.047-0.32,0.085-0.763,0.113-1.299l-17.375-4.037c-0.602-0.14-1.17-0.399-1.67-0.761
		l-2.189-1.587c-0.291-0.211-0.423-0.579-0.334-0.927l0.49-1.899C23.579,65.291,23.915,65.023,24.305,65.013z M110.379,71.707
		c0,0.002,0,0.003,0,0.005c1.148,0.154,2.44,0.517,3.4,0.822c0.085-0.338,0.179-0.667,0.263-0.987V71.54
		c-0.869-0.293-2.288-0.731-3.483-0.91c0,0.001,0,0.001-0.001,0.002C110.482,70.972,110.426,71.339,110.379,71.707z M111.198,68.957
		c-0.001,0.001-0.001,0.002-0.002,0.003c1.195,0.216,2.463,0.602,3.306,0.883c0,0,0-0.001,0-0.001
		c0.207-0.744,0.358-1.299,0.424-1.507l-1.375-0.282c-0.857-0.169-1.488-0.028-1.977,0.443
		C111.433,68.627,111.311,68.787,111.198,68.957z M88.299,51.695c-0.057-0.857-0.29-1.54-0.612-2.097
		c-0.421,0.587-0.822,1.026-1.009,1.223l1.94,3.192l0.006,0.01C88.465,53.239,88.35,52.454,88.299,51.695z M118.769,89.004
		c0,7.495-6.083,13.578-13.578,13.578c-7.505,0-13.578-6.083-13.578-13.578c0-7.505,6.073-13.578,13.578-13.578
		C112.686,75.426,118.769,81.499,118.769,89.004z M112.516,89.004c0-4.04-3.286-7.335-7.326-7.335c-4.04,0-7.335,3.296-7.335,7.335
		c0,4.04,3.296,7.326,7.335,7.326C109.23,96.33,112.516,93.044,112.516,89.004z M105.191,83.552c-3.004,0-5.452,2.448-5.452,5.452
		s2.448,5.443,5.452,5.443c3.004,0,5.443-2.439,5.443-5.443S108.194,83.552,105.191,83.552z M50.868,89.541
		c0,7.203-5.838,13.041-13.041,13.041c-7.203,0-13.041-5.838-13.041-13.041c0-7.203,5.838-13.032,13.041-13.032
		C45.03,76.509,50.868,82.337,50.868,89.541z M45.153,89.541c0-4.04-3.286-7.326-7.326-7.326c-4.04,0-7.326,3.286-7.326,7.326
		c0,4.04,3.286,7.335,7.326,7.335C41.867,96.876,45.153,93.58,45.153,89.541z M37.827,84.098c-3.004,0-5.443,2.439-5.443,5.443
		c0,3.004,2.439,5.452,5.443,5.452s5.443-2.448,5.443-5.452C43.27,86.537,40.831,84.098,37.827,84.098z"/>
</g>
</svg>
