<?xml version="1.0" encoding="utf-8"?>
<!-- Generator: Adobe Illustrator 21.0.2, SVG Export Plug-In . SVG Version: 6.00 Build 0)  -->
<svg version="1.1" id="Layer_1" xmlns="http://www.w3.org/2000/svg" xmlns:xlink="http://www.w3.org/1999/xlink" x="0px" y="0px"
	 width="1187.055px" height="430.295px" viewBox="0 0 1187.055 430.295" enable-background="new 0 0 1187.055 430.295"
	 xml:space="preserve">
<path fill="none" stroke="#000000" stroke-linejoin="round" stroke-miterlimit="10" d="M93.905,2.38
	c1.44-2.52,3.6-3.023,6.552-1.584c66.024,12.24,115.848,21.816,149.688,28.584c21.456,6.696,31.176,21.024,29.16,42.84
	c-0.288,11.376,2.376,17.712,7.848,19.08c186.411,48.528,358.128,81.432,502.56,104.328l0,0
	c66.456,25.201,118.01,44.209,154.797,57.021c3.386,1.078,6.478,0.574,9.286-1.514c35.784-21.168,59.475-34.128,71.138-39.024
	c79.49,51.407,133.13,85.536,160.85,102.167c2.592,3.099,1.222,4.542-4.176,4.396c-15.912,0.58-44.496,6.988-85.536,19.226
	C985.48,369.506,909.88,391.396,869.2,403.562c-48.022,15.555-78.408,24.339-91.151,26.208c-8.783,1.946-17.065-1.51-24.841-10.438
	c-22.896-25.774-49.968-36.289-81.216-31.537c-39.456,2.81-73.656,6.195-102.672,10.009c-6.048,0.504-10.51-0.504-13.32-3.168
	c-56.446-36.649-124.776-82.224-204.984-136.728c-43.199-29.664-77.759-53.352-103.607-71.208
	c-36.23-29.181-69.774-55.676-100.577-79.484c-35.494-21.199-67.158-27.264-93.134-10.853l0.006,0.006
	c-5.676,5.927-13.669,9.618-22.524,9.618C13.96,105.988,0,92.028,0,74.807c0-13.349,8.389-24.739,20.182-29.186l0.001,0.003
	c27.875-9.597,52.238-23.944,73.088-43.039L93.905,2.38z"/>
</svg>
