<?xml version="1.0" encoding="utf-8"?>
<!-- Generator: Adobe Illustrator 21.0.2, SVG Export Plug-In . SVG Version: 6.00 Build 0)  -->
<svg version="1.1" id="Layer_1" xmlns="http://www.w3.org/2000/svg" xmlns:xlink="http://www.w3.org/1999/xlink" x="0px" y="0px"
	 width="1190.058px" height="430.336px" viewBox="0 0 1190.058 430.336" enable-background="new 0 0 1190.058 430.336"
	 xml:space="preserve">
<path fill="none" stroke="#000000" stroke-linejoin="round" stroke-miterlimit="10" d="M1091.878,0.831
	c25.937,17.472,49.798,30.72,66.998,30.421c17.221,0,31.181,13.96,31.181,31.181s-13.96,31.181-31.181,31.181
	c-1.757,0-3.481-0.145-5.159-0.425l0.002,0c-50.412-9.753-82.241-10.241-94.188-0.816c-35.942,27.49-75.938,58.932-119.881,94.327
	c-25.85,17.856-60.406,41.544-103.682,71.208c-80.207,54.504-148.463,100.08-204.912,136.728c-2.809,2.664-7.27,3.672-13.316,3.168
	c-29.019-3.815-63.219-7.128-102.673-10.009c-31.247-4.752-58.319,5.762-81.218,31.537c-7.773,8.928-16.056,12.384-24.84,10.512
	c-12.813-1.941-43.2-10.729-91.224-26.277c-40.608-12.17-116.208-34.059-226.8-65.666c-41.112-12.168-69.624-18.646-85.536-19.225
	c-5.4,0.145-6.768-1.297-4.176-4.393c27.72-16.631,81.36-50.688,160.848-102.167c11.664,4.896,35.352,17.856,71.136,39.024
	c2.808,2.088,5.832,2.592,9.216,1.512c36.789-12.816,88.413-31.822,154.869-57.024l0,0c144.435-22.896,316.151-55.8,502.563-104.328
	c5.473-1.368,8.137-7.704,7.848-19.08c-2.016-21.816,7.705-36.072,29.16-42.84c33.768-6.769,83.664-16.344,149.688-28.584
	c2.135-1.067,3.913-1.067,5.278,0.031L1091.878,0.831z"/>
</svg>
