<?xml version="1.0" encoding="utf-8"?>
<!-- Generator: Adobe Illustrator 16.0.0, SVG Export Plug-In . SVG Version: 6.00 Build 0)  -->
<!DOCTYPE svg PUBLIC "-//W3C//DTD SVG 1.1//EN" "http://www.w3.org/Graphics/SVG/1.1/DTD/svg11.dtd">
<svg version="1.1" id="Layer_1" xmlns="http://www.w3.org/2000/svg" xmlns:xlink="http://www.w3.org/1999/xlink" x="0px" y="0px"
	 width="657.641px" height="481.891px" viewBox="0 0 657.641 481.891" enable-background="new 0 0 657.641 481.891"
	 xml:space="preserve">
<path fill="none" stroke="#000000" stroke-linejoin="round" stroke-miterlimit="10" d="M361.215,0.001L166.94,1.241
	c-29.411,0.823-44.793,11.389-51.427,35.336c-3.771,13.614-50.933,203.086-52.925,216.015c-0.937,6.821,1.185,12.395,3.416,17.484
	c9.648,18.792,44.335,74.152,46.885,77.818c2.549,3.664,5.542,5.85,9.885,9.498c4.245,3.565,117.964,102.422,124.855,107.897
	c2.234,1.777,4.176,3.455,5.888,4.934c7.861,6.789,12.191,10.531,29.374,11.188c20.391,0.781,72.737,0.379,78.64,0.328
	c5.938,0.039,58.268,0.373,78.672-0.438c17.188-0.684,21.51-4.43,29.357-11.229c1.709-1.48,3.646-3.162,5.879-4.941
	c6.887-5.494,118.266-101.735,121.885-105.021c4.438-4.021,7.771-5.988,10.677-11.055c3.11-5.416,36.541-60.716,46.062-79.392
	c2.443-5.099,4.172-10.263,3.385-17.483c-2.008-12.923-46.744-202.345-50.537-215.958c-6.672-23.935-22.062-34.48-51.475-35.26
	C524.238,0.139,362.67-0.016,361.215,0.001z"/>
</svg>
