<?xml version="1.0" encoding="utf-8"?>
<!-- Generator: Adobe Illustrator 21.0.2, SVG Export Plug-In . SVG Version: 6.00 Build 0)  -->
<svg version="1.1" id="Layer_1" xmlns="http://www.w3.org/2000/svg" xmlns:xlink="http://www.w3.org/1999/xlink" x="0px" y="0px"
	 width="849.368px" height="550.742px" viewBox="0 0 849.368 550.742" enable-background="new 0 0 849.368 550.742"
	 xml:space="preserve">
<path fill="none" stroke="#000000" stroke-linejoin="round" stroke-miterlimit="10" d="M57.325,88.693
	c14.04,13.267,29.999,15.502,47.472,9.038c0,0,190.077-95.993,190.077-95.993L308.257,0l347.696,62.242
	c0,0,8.493,2.783,14.014,8.494c5.527,5.711,169.832,182.711,174.922,188.194c5.094,5.484,4.454,13.082,4.454,13.082
	s-25.571,142.848-26.76,149.494c-1.189,6.642-9.168,10.199-9.168,10.199S587.702,545.696,581.813,548.671
	c-5.895,2.974-13.268,1.87-13.268,1.87S227.69,489.527,220.846,488.3c-6.845-1.225-13.46-8.146-13.46-8.146
	S35.824,295.578,31.145,290.544c-4.679-5.039-3.687-12.019-3.687-12.019s10.466-58.462,18.366-102.594
	c3.449-15.341-9.261-29.468-29.817-43.007l-0.004,0.002C6.456,127.596,0,117.393,0,105.682c0-17.221,13.96-31.181,31.181-31.181
	c10.952,0,20.586,5.647,26.148,14.187L57.325,88.693z"/>
</svg>
