<?xml version="1.0" encoding="utf-8"?>
<!-- Generator: Adobe Illustrator 21.0.2, SVG Export Plug-In . SVG Version: 6.00 Build 0)  -->
<svg version="1.1" id="Layer_1" xmlns="http://www.w3.org/2000/svg" xmlns:xlink="http://www.w3.org/1999/xlink" x="0px" y="0px"
	 width="954.541px" height="785.196px" viewBox="0 0 954.541 785.196" enable-background="new 0 0 954.541 785.196"
	 xml:space="preserve">
<path fill="none" stroke="#000000" stroke-linejoin="round" stroke-miterlimit="10" d="M14.079,57.258
	C5.599,51.685,0,42.087,0,31.181C0,13.96,13.96,0,31.181,0C44.706,0,56.22,8.611,60.539,20.65l-0.001,0
	c9.591,18.722,25.516,26.456,45.897,26.46c0,0,799.678-33.362,799.678-33.362s18-0.188,19.174,17.778s28.521,683.405,29.234,700.726
	c0.713,17.318-17.688,17.863-17.688,17.863l-840.84,35.08c0,0-18.105,0.311-19.172-17.662C75.883,751.7,54.524,234.787,48.949,99.77
	c0.232-8.619-11.265-22.733-34.861-42.514L14.079,57.258z"/>
</svg>
