<?xml version="1.0" encoding="utf-8"?>
<!-- Generator: Adobe Illustrator 16.0.0, SVG Export Plug-In . SVG Version: 6.00 Build 0)  -->
<!DOCTYPE svg PUBLIC "-//W3C//DTD SVG 1.1//EN" "http://www.w3.org/Graphics/SVG/1.1/DTD/svg11.dtd">
<svg version="1.1" id="Layer_1" xmlns="http://www.w3.org/2000/svg" xmlns:xlink="http://www.w3.org/1999/xlink" x="0px" y="0px"
	 width="1331.408px" height="836.059px" viewBox="0 0 1331.408 836.059" enable-background="new 0 0 1331.408 836.059"
	 xml:space="preserve">
<path fill="none" stroke="#000000" stroke-linejoin="round" stroke-miterlimit="10" d="M1238.864,353.581
	c-8.161-8.571-672.258-314.827-735.011-342.406c-62.754-27.579-162.878,4.57-162.878,4.57L88.208,146.998
	c0,0-56.359,33.647-62.846,72.553C18.877,258.457,0.059,371.348,0.059,371.348s-2.813,69.827,30.464,104.733
	C63.8,510.989,251.682,708.067,251.682,708.067s43.573,41.396,97.669,50.416c54.094,9.016,448.098,74.688,448.098,74.688
	s63.812,12.629,116.957-14.965c53.146-27.596,276.488-143.572,276.488-143.572s59.191-32.928,69.549-88.727
	c10.354-55.797,10.507-48.688,21.005-126.012C1291.946,382.572,1247.026,362.153,1238.864,353.581z"/>
</svg>
