<?xml version="1.0" encoding="utf-8"?>
<!-- Generator: Adobe Illustrator 21.0.2, SVG Export Plug-In . SVG Version: 6.00 Build 0)  -->
<svg version="1.1" id="Layer_1" xmlns="http://www.w3.org/2000/svg" xmlns:xlink="http://www.w3.org/1999/xlink" x="0px" y="0px"
	 width="708.661px" height="708.661px" viewBox="0 0 708.661 708.661" enable-background="new 0 0 708.661 708.661"
	 xml:space="preserve">
<path fill="none" stroke="#000000" stroke-linejoin="round" stroke-miterlimit="10" d="M110.109,59.56
	c10.456,11.46,22.601,14.58,36.822,7.451C205.237,24.85,276.883,0,354.332,0c195.702,0,354.329,158.643,354.329,354.332
	c0,195.72-158.627,354.329-354.329,354.329C158.643,708.661,0,550.051,0,354.332c0-80.564,26.888-154.848,72.18-214.369
	c6.359-11.726,4.686-24.494-7.661-38.647l0.001,0.003c-6.811-5.72-11.14-14.298-11.14-23.888c0-17.22,13.96-31.18,31.18-31.18
	c10.569,0,19.91,5.259,25.549,13.303L110.109,59.56z"/>
</svg>
