<?xml version="1.0" encoding="utf-8"?>
<!-- Generator: Adobe Illustrator 21.0.2, SVG Export Plug-In . SVG Version: 6.00 Build 0)  -->
<svg version="1.1" id="Layer_1" xmlns="http://www.w3.org/2000/svg" xmlns:xlink="http://www.w3.org/1999/xlink" x="0px" y="0px"
	 width="795.918px" height="545.584px" viewBox="0 0 795.918 545.584" enable-background="new 0 0 795.918 545.584"
	 xml:space="preserve">
<path fill="none" stroke="#000000" stroke-linejoin="round" stroke-miterlimit="10" d="M733.613,56.939
	c5.603-8.294,15.093-13.747,25.856-13.747c17.221,0,31.181,13.96,31.181,31.181c0,9.175-3.963,17.425-10.271,23.131
	c-17.358,20.465-27.623,43.286-20.91,71.744l0,0.003c6.032,20.228,14.596,42.762,25.824,65.526
	c12.965,21.852,11.235,56.909,9.276,73.31c-7.011,58.462-40.203,87.873-80.845,124.682c-20.049,18.16-41.325,34.605-61.02,49.121
	c-47.144,34.746-80.769,61.777-83.053,62.613c-5.728,2.094-37.744,0.847-43.39-1.206c-4.449-1.617-72.59-54.962-107.602-76.229
	c-8.655-5.256-27.057-5.984-34.766-1.776c-35.821,19.554-112.405,74.348-116.968,76.005c-5.648,2.053-40.95-2.727-46.674-4.823
	c-2.928-1.071-138.659-80.51-170.659-127.177s-51.396-75.421-49.46-139.629c12.064-62.996,36.49-73.991,34.409-137.894
	c-0.659-8.849,12.956-24.625,19.634-29.222C95.16,74.34,233.273-6.936,400.231,0.476c116.611,3.013,218.677,37.526,282.352,67.201
	l0.006,0.003c23.098,8.48,39.831,4.202,51.152-10.922L733.613,56.939z"/>
</svg>
