<?xml version="1.0" encoding="utf-8"?>
<!-- Generator: Adobe Illustrator 21.0.2, SVG Export Plug-In . SVG Version: 6.00 Build 0)  -->
<svg version="1.1" id="Layer_1" xmlns="http://www.w3.org/2000/svg" xmlns:xlink="http://www.w3.org/1999/xlink" x="0px" y="0px"
	 width="1409.351px" height="609.613px" viewBox="0 0 1409.351 609.613" enable-background="new 0 0 1409.351 609.613"
	 xml:space="preserve">
<path fill="none" stroke="#000000" stroke-linejoin="round" stroke-miterlimit="10" d="M400.09,385.833
	c-7.65,23.975-33.283,37.21-57.263,29.564c-23.971-7.646-37.206-33.274-29.57-57.249c7.649-23.978,33.278-37.211,57.263-29.565
	C394.491,336.228,407.731,361.862,400.09,385.833L400.09,385.833z M1150.639,261.912c-0.239,0.135-0.472,0.265-0.699,0.39
	c-7.821,3.89-16.893,0.897-16.893,0.897s-129.899-31.666-162.256-41.421c-2.475-0.71-2.881,0.588-1.182,2.242
	c22.309,9.933,153.428,49.449,153.428,49.449s9.239,2.166,6.279,7.506 M679.468,517.521c-12.275,3.171-14.703-7.385-14.703-7.385
	s-43.307-102.624-43.676-103.732c-0.381-1.117-1.952-0.76-1.479,0.455c0.479,1.217,31.921,94.115,36.541,106.367
	c3.48,9.207-2.975,12.964-6.395,14.262 M110.866,510.974c-21.066,18.955-37.849,28.806-42.657,31.975
	c-11.928,7.857-18.001,29.712,5.098,27.649c5.156-0.46,32.763-1.078,72.536-1.761"/>
</svg>
