<?xml version="1.0" encoding="utf-8"?>
<!-- Generator: Adobe Illustrator 16.0.0, SVG Export Plug-In . SVG Version: 6.00 Build 0)  -->
<!DOCTYPE svg PUBLIC "-//W3C//DTD SVG 1.1//EN" "http://www.w3.org/Graphics/SVG/1.1/DTD/svg11.dtd">
<svg version="1.1" id="Layer_1" xmlns="http://www.w3.org/2000/svg" xmlns:xlink="http://www.w3.org/1999/xlink" x="0px" y="0px"
	 width="768.896px" height="612.578px" viewBox="0 0 768.896 612.578" enable-background="new 0 0 768.896 612.578"
	 xml:space="preserve">
<path fill="none" stroke="#000000" stroke-miterlimit="10" d="M646.85,551.845c12.806,4.171,21.641,15.872,21.641,29.552
	c0,17.222-13.96,31.183-31.18,31.183c-4.116,0-8.655-0.847-12.433-2.479c-6.283-2.71-12.476-8.38-15.539-14.52
	c-1.683-3.369-2.159-7.026-2.699-10.705c-0.929-6.324-3.093-10.74-6.813-15.86c-1.929-2.652-3.81-5.345-5.737-7.997
	c-9.054-12.762-13.968-51.033-17.594-61.393c-4.372-12.488-22.479-11.238-41.211-4.371c-18.731,6.869-114.27,31.846-161.1,31.846
	c-46.832,0-116.146-17.479-153.61-31.221c-37.466-13.736-33.094,12.488-36.216,35.592c-3.122,23.105-17.483,34.347-23.729,35.592
	c-6.24,1.25-8.738-2.495-23.728-24.977c-14.985-22.479-19.981-38.713-58.071-114.271C40.74,352.264,15.764,274.212,4.524,247.361
	c-11.24-26.849,0-28.098,16.856-39.338c16.858-11.24,68.062-46.207,81.178-55.574c1.638-1.168,3.101-2.009,4.411-2.554
	c9.188-3.839,10.965,6.612,13.693,17.539l20.606,101.157c16.855,66.188,21.854,81.177,27.476,79.302
	c5.62-1.873-2.499-56.823-6.868-96.785c-4.372-39.963-8.114-159.851-8.74-189.823c-0.624-29.972,8.115-29.349,45.583-38.091
	C236.186,14.453,302.373,1.34,367.938,0.09c65.565-1.248,149.862,10.616,207.307,23.729c57.447,13.112,34.972,36.215,34.972,68.061
	c0,31.847-7.494,138.623-8.744,187.952c-1.246,49.328-6.867,69.311-1.871,68.061c4.994-1.25,12.488-23.728,20.604-55.575
	c8.119-31.843,21.23-108.647,24.979-128.628c3.746-19.981,12.487-12.489,30.598-1.874c18.107,10.614,49.953,33.719,77.429,53.076
	c27.475,19.355,14.36,23.104-4.994,70.559c-19.357,47.457-80.552,179.833-103.652,226.041
	c-5.608,11.216-10.334,20.148-14.462,27.251c-0.065,0.793-0.099,1.607-0.099,2.44c0,4.958,3.438,7.104,7.506,8.368
	C640.687,550.545,644.255,551,646.85,551.845z"/>
</svg>
