<?xml version="1.0" encoding="utf-8"?>
<!-- Generator: Adobe Illustrator 21.0.2, SVG Export Plug-In . SVG Version: 6.00 Build 0)  -->
<svg version="1.1" id="Layer_1" xmlns="http://www.w3.org/2000/svg" xmlns:xlink="http://www.w3.org/1999/xlink" x="0px" y="0px"
	 width="940.824px" height="587.601px" viewBox="0 0 940.824 587.601" enable-background="new 0 0 940.824 587.601"
	 xml:space="preserve">
<path fill="none" stroke="#000000" stroke-linejoin="round" stroke-miterlimit="10" d="M91.853,378.978l-22.154-22.471
	c-9.273-9.406-8.92-23-3.575-34.326l9.129-19.346 M699.755,587.518c-0.529-0.078-1.062-0.215-1.599-0.417
	c-4.482-1.688-5.537-6.447-5.482-10.713v-0.055l0.006-0.055c0.166-5.27,0.359-10.531,0.559-15.797
	c0.043-1.207,0.182-2.896,0.133-4.207l-25.354-47.783l-0.033-1.33c-0.021-0.793-0.166-1.639-0.646-2.295
	c-2.814-3.881-14.59-1.918-18.336-1.094l-0.635,0.139l-0.65-0.008c-49.225-0.617-98.229,4.438-147.463,3.816
	c-49.23-0.613-98.095-6.896-147.315-7.518l-0.523-0.006l-0.514-0.104c-3.937-0.783-13.728-2.926-17.293-0.543
	c-1.341,0.896-1.869,2.609-2.142,4.115l-0.178,0.979l-27.34,47.096c-0.108,1.258-0.076,2.797-0.095,3.959
	c-0.083,5.254-0.088,10.518-0.102,15.771l-0.001,0.057c-0.053,4.264-1.227,8.998-5.75,10.57c-0.981,0.341-1.945,0.468-2.886,0.424"
	/>
</svg>
