<?xml version="1.0" encoding="utf-8"?>
<!-- Generator: Adobe Illustrator 21.0.2, SVG Export Plug-In . SVG Version: 6.00 Build 0)  -->
<svg version="1.1" id="Layer_1" xmlns="http://www.w3.org/2000/svg" xmlns:xlink="http://www.w3.org/1999/xlink" x="0px" y="0px"
	 width="824.515px" height="734.934px" viewBox="0 0 824.515 734.934" enable-background="new 0 0 824.515 734.934"
	 xml:space="preserve">
<path fill="none" stroke="#000000" stroke-linejoin="round" stroke-miterlimit="10" d="M162.885,76.175
	c64.274,22.406,193.168,66.532,212.173,66.804c25.48,0.363,244.601-75.075,257.265-79.456c12.664-4.38,16.76,5.048,16.76,5.048
	s127.62,226.265,139.024,252.02c1.877,4.237,2.549,8.032,2.362,11.417l-0.006-0.001c0,51.016,12.322,92.297,27.55,92.297l0-0.001
	c10.546,0.551,5.093,11.962,5.093,11.962s-25.674,71.433-29.883,82.896s-14.514,13.025-14.514,13.025s-31.27,7.977-67.129,15.707
	c-35.859,7.726-45.004,37.244-45.004,37.244s-42.853,83.408-51.23,99.789c-10.194,19.93-26.854,28.469-26.854,28.469
	s-41.951,20.014-43.838,20.83c-0.728,0.318-2.049,0.731-3.237,0.711l0-0.002l-350.921-6.57l0.001,0.003
	c-1.042,0.027-2.507-0.456-4.386-1.351c-5.789-2.75-51.866-25.768-58.683-29.08c-6.82-3.317-9.769-10.887-9.769-10.887
	S17.225,450.883,5.439,413.424s-0.748-71.385-0.748-71.385s61.77-159.885,91.057-235.174c1.512-6.55,1.795-13.39-0.516-19.796
	c-1.056-2.927-2.112-5.855-3.167-8.782c-4.074-11.294-8.147-22.589-12.221-33.883c-1.887-4.012-2.939-8.495-2.939-13.224
	C76.905,13.96,90.865,0,108.086,0c14.558,0,26.786,9.977,30.219,23.466c-0.105,0.039,5.096,15.771,5.414,16.755
	c2.233,6.909,4.466,13.819,6.699,20.728c2.307,7.139,5.882,11.498,12.49,15.186L162.885,76.175z"/>
</svg>
