<?xml version="1.0" encoding="utf-8"?>
<!-- Generator: Adobe Illustrator 16.0.0, SVG Export Plug-In . SVG Version: 6.00 Build 0)  -->
<!DOCTYPE svg PUBLIC "-//W3C//DTD SVG 1.1//EN" "http://www.w3.org/Graphics/SVG/1.1/DTD/svg11.dtd">
<svg version="1.1" id="Layer_1" xmlns="http://www.w3.org/2000/svg" xmlns:xlink="http://www.w3.org/1999/xlink" x="0px" y="0px"
	 width="1075.691px" height="659.894px" viewBox="0 0 1075.691 659.894" enable-background="new 0 0 1075.691 659.894"
	 xml:space="preserve">
<path fill="none" stroke="#000000" stroke-linejoin="round" stroke-miterlimit="10" d="M1018.251,582.126
	c0,0-213.515-258.536-257.156-309.202c-43.649-50.672-95.479-102.178-105.4-108.172c-9.921-5.998-12.937-6.421-12.937-6.421
	s-12.464,7.79-20.62,15.568c-8.153,7.775,0.471,12.053,0.471,12.053s191.408,212.101,196.625,227.583
	c5.214,15.48-11.158,11.66-11.158,11.66S690.512,283.05,677.119,268.883c-13.395-14.167-34.03-5.06-36.989,11.741
	c-2.967,16.8-38.332,133.597-43.887,149.116c-5.544,15.518-20.163,23.312-33.552,9.146c-13.394-14.166-28.958-34.787-56.293-101.006
	c-27.335-66.223-34.376-102.155-39.147-126.897l-15.526-80.433c-3.652-18.928-17.22-24.261-40.629-29.048
	C277.143,74.107,148.067,38.841,16.646,1.421c-25.424-7.24-14.16,15.546-14.16,15.546S17.369,93.13,23.925,125.402
	c6.56,32.274,7.479,52.075,66.312,139.298c58.831,87.221,146.146,195.016,179.001,237.112c32.855,42.092,66.102,70.404,99.705,78.48
	c33.61,8.072,137.45,30.568,266.245,48.248c128.797,17.678,282.986,31.834,303.651,31.34c20.666-0.496,24.08-9.549,24.08-9.549
	s20.628-13.414,39.52-29.834C1021.336,604.078,1018.251,582.126,1018.251,582.126z"/>
</svg>
