<?xml version="1.0" encoding="utf-8"?>
<!-- Generator: Adobe Illustrator 16.0.0, SVG Export Plug-In . SVG Version: 6.00 Build 0)  -->
<!DOCTYPE svg PUBLIC "-//W3C//DTD SVG 1.1//EN" "http://www.w3.org/Graphics/SVG/1.1/DTD/svg11.dtd">
<svg version="1.1" id="Layer_1" xmlns="http://www.w3.org/2000/svg" xmlns:xlink="http://www.w3.org/1999/xlink" x="0px" y="0px"
	 width="807.266px" height="913.188px" viewBox="0 0 807.266 913.188" enable-background="new 0 0 807.266 913.188"
	 xml:space="preserve">
<path fill="none" stroke="#000000" stroke-linejoin="round" stroke-miterlimit="10" d="M801.39,93.418
	c-6.105-16.066,3.922-31.445-9.693-34.699c-13.425-3.212-381.999,296.045-525.11,440.003c-2.005,2.02-0.949,0.958-0.949,0.958
	c-20.896,20.622,21.169,67.541,21.169,67.541c22.259,21.809,22.625,57.521,0.823,79.776c-21.808,22.258-50.938,15.93-50.938,15.93
	c-54.798-15.104-74.744-42.172-90.662-20.764v0.001C62.992,755.723,4.03,865.764,0.552,876.567
	c-4.936,15.332,24.881,26.06,24.881,26.06c-12.771-4.112,37.518,16.591,53.562,8.786c16.047-7.803,94.637-41.713,192.729-76.67
	c98.1-34.961,90.604-20.453,145.312-65.998c54.701-45.547,287.11-226.176,296.298-240.7c9.188-14.521,0.303-53.476,4.357-71.341
	C721.759,438.838,813.059,155.259,801.39,93.418z"/>
</svg>
