<?xml version="1.0" encoding="utf-8"?>
<!-- Generator: Adobe Illustrator 16.0.0, SVG Export Plug-In . SVG Version: 6.00 Build 0)  -->
<!DOCTYPE svg PUBLIC "-//W3C//DTD SVG 1.1//EN" "http://www.w3.org/Graphics/SVG/1.1/DTD/svg11.dtd">
<svg version="1.1" id="Layer_1" xmlns="http://www.w3.org/2000/svg" xmlns:xlink="http://www.w3.org/1999/xlink" x="0px" y="0px"
	 width="828.312px" height="688.02px" viewBox="0 0 828.312 688.02" enable-background="new 0 0 828.312 688.02"
	 xml:space="preserve">
<path fill="none" stroke="#000000" stroke-linejoin="round" stroke-miterlimit="10" d="M825.635,394.6
	c-7.604-38.689-49.438-302.215-53.159-332.702c-3.725-30.494-18.975-45.281-49.712-41.557
	c-30.74,3.725-111.814,15.885-217.436,19.006c-39.965,1.176-68.416,2.003-92.416,2.478v-0.06c-23-0.472-51.08-1.307-91.792-2.506
	c-105.619-3.12-185.223-15.28-215.965-19.007C74.417,16.528,59.41,31.315,55.691,61.809c-3.728,30.489-45.44,294.013-53.038,332.705
	c-7.604,38.693,2.229,54.615,13.599,80.83c11.368,26.211,98.938,212.588,98.938,212.588s66.448-201.799,83.212-250.115
	c16.762-48.32,44.421-50.391,85.012-52.271c21.593-1,73.5-1.109,128.5-1.059v0.092c56-0.061,109.516,0.047,131.219,1.057
	c40.592,1.885,69.634,3.947,86.396,52.268c16.77,48.318,83.43,250.121,83.43,250.121s87.655-186.375,99.023-212.59
	C823.348,449.22,833.236,433.293,825.635,394.6z"/>
</svg>
