<?xml version="1.0" encoding="utf-8"?>
<!-- Generator: Adobe Illustrator 16.0.0, SVG Export Plug-In . SVG Version: 6.00 Build 0)  -->
<!DOCTYPE svg PUBLIC "-//W3C//DTD SVG 1.1//EN" "http://www.w3.org/Graphics/SVG/1.1/DTD/svg11.dtd">
<svg version="1.1" id="Layer_1" xmlns="http://www.w3.org/2000/svg" xmlns:xlink="http://www.w3.org/1999/xlink" x="0px" y="0px"
	 width="1371.885px" height="1671.082px" viewBox="0 0 1371.885 1671.082" enable-background="new 0 0 1371.885 1671.082"
	 xml:space="preserve">
<path d="M285.546,601.321c-1.088,6.491,0.025,11.333,6.958,13.806c6.93,2.47,239.576,87.653,246.276,90.024
	c6.7,2.367,7.901,1.513,11.832-10.029c3.928-11.541,41.76-47.415,79.541-64.811c37.78-17.396,162.465-55.065,343.931-87.847
	c181.466-32.785,356.399-16.406,368.403-16.693c12-0.29,17.714-10.225,17.714-10.225s4.717-9.544,10.078-21.84
	c5.362-12.297-4.436-13.257-4.436-13.257S966.152,342.013,798.885,282.31c-167.269-59.705-426.768-177.039-433.796-179.276
	c-7.033-2.238-13.391,4.103-13.391,4.103s-15.488,17.529-26.39,30.267c-10.9,12.739-22.208,6.35-22.208,6.35
	s-67.341-32.775-117.438-63.859C135.562,48.81,77.676,9.954,68.59,4.046c-9.086-5.907-15.743-7.353-22.228,9.743
	c0,0-41.167,109.007-44.131,115.17c-2.963,6.164-4,12.338,3.471,18.634c7.472,6.298,62.953,79.652,181.969,262.646
	C281.387,550.183,289.645,576.859,285.546,601.321L285.546,601.321z M1150.379,1471.547
	c-247.563-275.316-405.491-453.46-570.547-679.378c-34.25-46.88-33.938-72.106-33.938-72.106s2.076-11.51-11.095-15.303
	c-13.17-3.791-243.02-88.515-243.02-88.515s-5.875-4.078-13.627,3.628c-7.753,7.703-35.528,30.344-69.227,47.689
	c-33.696,17.346-79.032,36.459-79.032,36.459c-12.289,4.325-16.914,10.596-5.272,25.502
	c11.641,14.904,540.109,636.828,558.616,657.178c18.507,20.349,41.849,42.191,58.059,54.199
	c8.255,6.114,89.97,69.566,173.271,125.691c80.333,54.123,162.502,101.096,162.502,101.096s13.833,8.729,17.446-1.812
	c3.613-10.538,57.483-165.074,59.404-171.052C1155.839,1488.848,1159.191,1481.347,1150.379,1471.547L1150.379,1471.547z"/>
</svg>
