<?xml version="1.0" encoding="utf-8"?>
<!-- Generator: Adobe Illustrator 22.1.0, SVG Export Plug-In . SVG Version: 6.00 Build 0)  -->
<svg version="1.1" id="Layer_1" xmlns="http://www.w3.org/2000/svg" xmlns:xlink="http://www.w3.org/1999/xlink" x="0px" y="0px"
	 width="1272.838px" height="879.41px" viewBox="0 0 1272.838 879.41" enable-background="new 0 0 1272.838 879.41"
	 xml:space="preserve">
<path fill="none" stroke="#000000" stroke-miterlimit="10" d="M1050.265,34.198c0,0,7.367,27.626,37.403,23.139
	c15.3-2.21,30.856-4.575,46.668-7.097c35.539-5.668,78.839-13.2,129.902-22.592c0.095-0.018,0.187-0.04,0.278-0.07
	c0.908-0.296,1.751-0.46,2.525-0.493c1.697-0.071,3.047,0.495,4.047,1.702c0.788,0.952,1.205,1.891,1.251,2.819v0.087
	c-0.121,21.089-3.203,42.556-9.25,64.401c-5.543,20.034-13.687,40.754-24.434,62.161c-9.528,18.98-21.441,39.142-35.736,60.485
	c-11.71,17.48-26.047,37.232-43.014,59.258c-25.297,25.143-49.398,50.35-72.302,75.62c-17.307,19.096-33.981,38.277-50.019,57.554
	c-54.157,65.083-102.553,133.224-145.186,204.423c-14.062,23.483-27.829,47.82-41.304,73.006L438.932,875.096l-416.24,3.814
	c-14.263-0.205-21.651-6.328-22.163-18.37c-0.327-7.68,2.083-17.592,7.234-29.729c0.006-0.014,0.013-0.03,0.018-0.047
	c13.638-34.358,37.663-73.167,72.076-116.425c14.426-18.138,31.488-38.113,51.186-59.927c15.013-16.626,33.936-36.898,56.761-60.816
	l26.735-27.905c25.13-26.182,43.861-45.859,56.194-59.032c41.188-44,87.159-89.528,137.914-136.59
	c35.59-32.998,78.849-71.521,129.787-115.566c33.837-8.308,63.282-16.342,88.332-24.103c30.679-9.507,57.348-19.354,80.008-29.545
	c18.66-8.392,37.713-18.757,57.162-31.096c12.188-7.732,29.071-19.334,50.648-34.808l2.242-1.608
	c17.744-12.727,31.296-22.221,40.655-28.48c15.459-10.34,30.232-19.373,44.317-27.1c20.078-1.522,39.881-3.229,59.411-5.121
	c29.392-2.69,27.093-36.765,27.093-36.765l-0.009,0.001c-0.185-1.373-0.28-2.773-0.28-4.197c0-17.221,13.96-31.181,31.181-31.181
	c17.221,0,31.181,13.96,31.181,31.181L1050.265,34.198z"/>
</svg>
