<?xml version="1.0" encoding="utf-8"?>
<!-- Generator: Adobe Illustrator 22.1.0, SVG Export Plug-In . SVG Version: 6.00 Build 0)  -->
<svg version="1.1" id="Layer_1" xmlns="http://www.w3.org/2000/svg" xmlns:xlink="http://www.w3.org/1999/xlink" x="0px" y="0px"
	 width="1272.839px" height="880.412px" viewBox="0 0 1272.839 880.412" enable-background="new 0 0 1272.839 880.412"
	 xml:space="preserve">
<path fill="none" stroke="#000000" stroke-miterlimit="10" d="M1265.056,831.766c-13.638-34.358-37.663-73.168-72.076-116.425
	c-14.425-18.138-31.487-38.113-51.186-59.927c-15.012-16.625-33.935-36.898-56.761-60.816l-26.734-27.905
	c-25.13-26.182-43.861-45.859-56.194-59.032c-41.188-43.999-87.159-89.528-137.914-136.59
	c-35.59-32.998-78.849-71.521-129.787-115.566c-33.837-8.307-63.281-16.342-88.332-24.103
	c-30.679-9.507-57.348-19.354-80.008-29.545c-18.66-8.392-37.713-18.757-57.162-31.096c-12.188-7.732-29.071-19.333-50.648-34.808
	l-2.242-1.608c-17.744-12.727-31.295-22.221-40.655-28.48c-15.46-10.34-30.233-19.373-44.317-27.1
	c-36.787-2.789-72.654-6.198-107.604-10.228c-39.699-4.578-81.343-10.343-124.933-17.295C102.964,45.573,59.664,38.041,8.601,28.65
	c-0.095-0.018-0.187-0.041-0.278-0.07c-0.908-0.296-1.75-0.46-2.524-0.493c-1.698-0.071-3.047,0.495-4.047,1.702
	c-0.789,0.952-1.206,1.891-1.251,2.819L0.5,32.695c0.121,21.089,3.204,42.556,9.25,64.401c5.543,20.034,13.688,40.754,24.435,62.161
	c9.528,18.979,21.441,39.141,35.736,60.485c11.71,17.481,26.047,37.232,43.014,59.258c25.297,25.143,49.398,50.35,72.302,75.62
	c17.307,19.096,33.981,38.277,50.019,57.554c54.157,65.083,102.553,133.223,145.186,204.423
	c14.061,23.483,27.829,47.819,41.304,73.006l412.161,186.495l416.24,3.814c14.262-0.205,21.651-6.328,22.163-18.37
	c0.327-7.681-2.083-17.592-7.234-29.729C1265.069,831.798,1265.062,831.782,1265.056,831.766z M728.168,345.332
	c-23.129,24.094-55.485,27.517-73.37,10.345c-17.872-17.174-16.204-50.674,6.93-74.757c23.119-24.094,55.047-30.454,72.931-13.295
	C752.531,284.799,751.3,321.247,728.168,345.332z"/>
</svg>
