<?xml version="1.0" encoding="utf-8"?>
<!-- Generator: Adobe Illustrator 21.0.2, SVG Export Plug-In . SVG Version: 6.00 Build 0)  -->
<svg version="1.1" id="Layer_1" xmlns="http://www.w3.org/2000/svg" xmlns:xlink="http://www.w3.org/1999/xlink" x="0px" y="0px"
	 width="1604.578px" height="786.296px" viewBox="0 0 1604.578 786.296" enable-background="new 0 0 1604.578 786.296"
	 xml:space="preserve">
<path fill-rule="evenodd" clip-rule="evenodd" fill="none" stroke="#000000" stroke-miterlimit="10" d="M1594.065,302.112
	c-25.524-6.782-34.725-12.167-45.293-19.152c-95.474-8.731-203.488-14.859-297.481-21.901l-140.933,39.733l146.161-45.773
	c25.866-8.101,64.561-34.199,72.494-38.525c8.665-4.727,20.222-11.853,20.843-25.397c2.721-59.314,6.636-119.55,11.647-177.916
	c1.002-11.668,0.549-17.098-31.195-10.016c-73.5,16.398-147.637,32.287-222.096,47.283c-3.562,18.414-8.861,35.823-18.471,52.371
	c-11.942,20.565-30.294,41.743-53.591,49.155c-94.452,30.052-193.363,41.505-289.992,62.21c-13.006,2.786-26.085,5.195-39.022,8.309
	c-23.849,5.742-49.818,14.334-66.573,33.258L269.219,675.153c3.367,6.21,9.567,11.208,20.17,14.193
	c110.754,31.189,222.323,57.309,335.31,81.971c96.933,21.158,218.248,23.324,329.875-16.029
	c158.297-55.807,325.047-123.606,469.192-217.459c35.713-23.253,73.406-42.953,96.128-81.271
	c26.122-44.049,58.409-83.622,78.912-130.55C1602.455,317.656,1611.887,306.849,1594.065,302.112z M1131.026,72.321
	c18.256-2.418,35.021,10.425,37.439,28.681c2.418,18.255-10.425,35.021-28.682,37.439c-18.255,2.418-35.02-10.426-37.438-28.681
	C1099.927,91.504,1112.771,74.739,1131.026,72.321z M456.338,713.133c-18.255,2.418-35.02-10.425-37.438-28.681
	c-2.419-18.255,10.425-35.021,28.68-37.439c18.256-2.417,35.021,10.426,37.439,28.681
	C487.437,693.95,474.594,710.715,456.338,713.133z M975.853,199.139C821.069,278.619,679.3,343.321,533.217,431.945
	c-9.526,5.779-32.112,2.725-14.197-16.983c45.903-50.497,93.077-105.782,142.26-153.089c9.955-9.575,21.495-13.56,34.822-17.187
	c88.78-24.17,175.989-45.288,265.844-65.082C975.883,176.533,991.846,190.927,975.853,199.139z M744.97,208.641
	c96.417-20.659,195.232-32.088,289.461-62.068c21.849-6.951,39.22-27.333,50.407-46.599c8.877-15.287,13.925-31.374,17.356-48.314
	c-98.657,19.801-197.867,38.015-296.896,53.748c-16.195,2.573-32.066-5.07-46.475-11.45c-10.119-4.481-29.967-11.98-54.198-10.427
	c-86.145,5.523-158.55,12.154-236.208,14.273l5.028,37.96l-1.544,0.205l-5.05-38.124c-30.026,0.795-60.855,0.912-93.583,0.025
	C259.511,94.785,145.151,82.585,34.165,67.961c-7.236-0.953-13.261-3.011-19.838,4.514C9.966,77.464,3.828,82.932,1.771,89.23
	c-1.688,5.169-4.5,10.991,4.639,16.048c102.29,56.608,192.61,107.644,295.113,172.495c17.035,10.777,26.258,22.538,21.289,56.286
	c-14.671,99.648-30.383,197.826-52.485,296.821c-2.913,13.047-6.383,27.015-3.425,38.339l369.415-417.224
	C662.298,222.651,708.494,216.457,744.97,208.641z M535.408,273c-0.593,1.8-1.547,3.415-2.824,4.814
	c-27.885,30.521-54.233,62.42-82.111,92.964c-13.21,14.475-26.753,28.669-40.904,42.23c-2.334,2.237-5.305,3.839-8.621,3.154
	c-6.928-1.429-10.188-11.214-10.784-17.318c-0.266-2.726-0.172-5.548,0.418-8.228c0.899-4.083,2-8.119,3.236-12.112
	c7.421-23.949,20.019-46.702,23.343-71.777c1.438-10.848,1.07-21.817-5.931-30.773c-3.702-4.736-8.749-8.406-13.717-11.704
	c-47.591-31.592-100.344-54.751-150.852-81.161c-2.434-1.273-4.478-3.272-4.736-6.136c-0.31-3.455,2.085-6.751,4.545-8.925
	c2.333-2.063,6.446-4.524,9.696-3.799c28.193,6.282,56.243,13.157,84.136,20.663c58.421,15.724,115.909,34.23,173.034,54.117
	c5.439,1.894,10.526,5.959,14.29,10.251C532.881,255.254,538.105,264.821,535.408,273z M296.741,282.262L15.519,114.68
	c19.757,31.115,50.538,56.419,62.045,91.436l31.932,97.171c30.97,115.118,61.939,230.236,90.411,345.549
	c1.912,7.743,6.607,17.667,14.475,18.966l30.977,5.115c6.17,1.019,13.977-5.069,15.033-11.234l55.688-325.236
	C319.424,316.908,313.77,292.411,296.741,282.262z"/>
</svg>
