<?xml version="1.0" encoding="utf-8"?>
<!-- Generator: Adobe Illustrator 21.0.2, SVG Export Plug-In . SVG Version: 6.00 Build 0)  -->
<svg version="1.1" id="Layer_1" xmlns="http://www.w3.org/2000/svg" xmlns:xlink="http://www.w3.org/1999/xlink" x="0px" y="0px"
	 width="1604.578px" height="786.296px" viewBox="0 0 1604.578 786.296" enable-background="new 0 0 1604.578 786.296"
	 xml:space="preserve">
<path fill-rule="evenodd" clip-rule="evenodd" fill="none" stroke="#000000" stroke-miterlimit="10" d="M1131.026,72.321
	c18.256-2.418,35.021,10.425,37.439,28.681c2.418,18.255-10.425,35.021-28.682,37.439c-18.255,2.418-35.02-10.426-37.438-28.681
	C1099.927,91.504,1112.771,74.739,1131.026,72.321z M456.338,713.133c-18.255,2.418-35.02-10.425-37.438-28.681
	c-2.419-18.255,10.425-35.021,28.68-37.439c18.256-2.417,35.021,10.426,37.439,28.681
	C487.437,693.95,474.594,710.715,456.338,713.133z M975.853,199.139C821.069,278.619,679.3,343.321,533.217,431.945
	c-9.526,5.779-32.112,2.725-14.197-16.983c45.903-50.497,93.077-105.782,142.26-153.089c9.955-9.575,21.495-13.56,34.822-17.187
	c88.78-24.17,175.989-45.288,265.844-65.082C975.883,176.533,991.846,190.927,975.853,199.139z M535.408,273
	c-0.593,1.8-1.547,3.415-2.824,4.814c-27.885,30.521-54.233,62.42-82.111,92.964c-13.21,14.475-26.753,28.669-40.904,42.23
	c-2.334,2.237-5.305,3.839-8.621,3.154c-6.928-1.429-10.188-11.214-10.784-17.318c-0.266-2.726-0.172-5.548,0.418-8.228
	c0.899-4.083,2-8.119,3.236-12.112c7.421-23.949,20.019-46.702,23.343-71.777c1.438-10.848,1.07-21.817-5.931-30.773
	c-3.702-4.736-8.749-8.406-13.717-11.704c-47.591-31.592-100.344-54.751-150.852-81.161c-2.434-1.273-4.478-3.272-4.736-6.136
	c-0.31-3.455,2.085-6.751,4.545-8.925c2.333-2.063,6.446-4.524,9.696-3.799c28.193,6.282,56.243,13.157,84.136,20.663
	c58.421,15.724,115.909,34.23,173.034,54.117c5.439,1.894,10.526,5.959,14.29,10.251C532.881,255.254,538.105,264.821,535.408,273z
	 M223.937,689.007c-4.011,5.247-6.395,11.806-6.395,18.921c0,17.221,13.96,31.181,31.181,31.181s31.181-13.96,31.181-31.181
	c0-1.115-0.059-2.216-0.173-3.301c8.486-11.346,22.575-11.667,22.575-11.667c106.511,29.603,213.797,54.654,322.393,78.357
	c96.933,21.158,218.248,23.324,329.875-16.029c158.297-55.807,325.047-123.606,469.192-217.459
	c35.713-23.253,73.406-42.953,96.128-81.271c26.122-44.049,58.409-83.622,78.912-130.55c3.649-8.352,13.081-19.158-4.741-23.895
	c-25.524-6.782-34.725-12.167-45.293-19.152c-50.261-4.596-103.997-8.471-157.333-12.138
	c-57.834-22.467-52.085-60.951-52.085-60.951l0.001,0.001c5.511-4.424,10.116-10.361,10.502-18.774
	c2.721-59.314,6.636-119.55,11.647-177.916c1.002-11.668,0.549-17.098-31.195-10.016c-73.5,16.398-147.637,32.287-222.096,47.283
	c-0.058,0.302-0.117,0.604-0.177,0.905c-3.722,1.425-6.028,1.218-6.028,1.218c0.063-0.304,0.125-0.608,0.187-0.913
	c-98.657,19.801-197.867,38.015-296.896,53.748c-16.195,2.573-32.066-5.07-46.475-11.45c-10.119-4.481-29.967-11.98-54.198-10.427
	c-86.145,5.523-158.55,12.154-236.208,14.273c0,0,0.055,0.413,0.055,0.413c0,0-1.563,0.06-1.563,0.06l-0.057-0.431
	c-30.026,0.795-60.855,0.912-93.583,0.025C259.511,94.785,145.151,82.585,34.165,67.961c-7.236-0.953-13.261-3.011-19.838,4.514
	C9.966,77.464,3.828,82.932,1.771,89.23c-1.688,5.169-4.5,10.991,4.639,16.048c3.109,1.721,6.207,3.436,9.295,5.147
	c3.038,3.412,0.894,4.899,0.894,4.899l0.002,0.001l-1.082-0.645c19.757,31.115,50.538,56.419,62.045,91.436l31.932,97.171
	c30.97,115.118,61.939,230.236,90.411,345.549c1.912,7.743,6.607,17.667,14.475,18.966l1.926,0.318c0,0,12.41,9.661,7.632,20.889
	L223.937,689.007z"/>
</svg>
