<?xml version="1.0" encoding="utf-8"?>
<!-- Generator: Adobe Illustrator 21.0.2, SVG Export Plug-In . SVG Version: 6.00 Build 0)  -->
<svg version="1.1" id="Layer_1" xmlns="http://www.w3.org/2000/svg" xmlns:xlink="http://www.w3.org/1999/xlink" x="0px" y="0px"
	 width="1333.085px" height="867.902px" viewBox="0 0 1333.085 867.902" enable-background="new 0 0 1333.085 867.902"
	 xml:space="preserve">
<path fill="none" stroke="#000000" stroke-linejoin="round" stroke-miterlimit="10" d="M210.901,307.077
	c27.097-5.208,48.131-44.855,48.131-93.071c-1.876-8.082-2.367-17.352-2.579-27.683c-1.252-61.211-9.8-124.657-14.486-186.323
	c83.497,14.759,166.195,30.953,248.642,47.694l36.703,69.994c7.69,14.666,25.76,21.895,41.005,25.69l339.589,84.532
	c30.256,7.531,49.911,30.591,69.83,52.873l355.35,397.474c-4.26,2.093-9.104,3.717-13.939,5.12
	c-121.207,35.174-233.8,75.744-355.717,108.853c-3.667,0.997-6.609,3.525-7.465,7.326c-1.238,5.497,1.281,11.276,2.506,16.541
	c1.016,4.368,2.032,8.736,3.051,13.1c0.597,2.409,0.914,4.93,0.914,7.524c0,17.221-13.96,31.181-31.181,31.181
	c-14.816,0-27.218-10.333-30.387-24.192c-1.334-4.938-2.667-9.877-4.001-14.815c-1.06-3.926-1.303-9.112-3.693-12.505
	c-3.409-4.84-11.143-3.111-16.3-3.181c-19.705,3.392-41.152,5.529-59.008,4.699c-73.598-3.422-178.795-9.103-242.176-36.901
	c-138.632-60.803-240.401-106.648-373.892-178.033c-46.592-24.914-99.334-49.446-124.531-88.964
	c-23.594-37.002-46.974-82.639-70.458-121.079c-2.595-4.249-4.207-7.699-3.968-10.027l0.006,0.001L0,338.298
	c44.86-14.06,127.163-23.165,210.901-31.228L210.901,307.077z"/>
</svg>
