<?xml version="1.0" encoding="utf-8"?>
<!-- Generator: Adobe Illustrator 21.0.2, SVG Export Plug-In . SVG Version: 6.00 Build 0)  -->
<svg version="1.1" id="Layer_1" xmlns="http://www.w3.org/2000/svg" xmlns:xlink="http://www.w3.org/1999/xlink" x="0px" y="0px"
	 width="1610.328px" height="840.451px" viewBox="0 0 1610.328 840.451" enable-background="new 0 0 1610.328 840.451"
	 xml:space="preserve">
<path fill-rule="evenodd" clip-rule="evenodd" d="M953.68,276.16c-11.295-8.473-23.01-15.292-36.034-20.746
	c-7.555-3.163-15.327-5.809-23.174-8.212c3.409,37.144-0.202,76.408-30.472,99.057c-30.327,22.693-64.369,20.639-97.76,11.959
	c-28.337-7.366-52.219-30.557-68.663-54.784c-14.822-21.839-22.416-54.63-15.877-80.201c2.933-11.471,7.171-22.01,12.438-31.89
	l-95.821-26.63c-22.386-6.222-48.9-16.4-61.013-37.585L503.548,68.09C419.569,46.963,338.132,24.037,255.395,0
	c2.474,35.076,4.948,70.151,7.422,105.226l32.204,11.711l-32.326-2.532c-0.861,35.006-2.092,66.9-0.587,101.884
	c0.231,5.374,3.144,13.799,7.913,16.283c31.739,16.527,52.692,33.831,80.193,56.402c5.366,4.405,14.699,8.634,21.871,10.635
	c60.549,20.374,118.006,38.337,174.887,65.85c-61.705-10.606-125.303-28.275-184.479-45.959
	c-20.254-6.052-39.355-5.444-61.774-0.586c-78.958,17.111-159.874,26.567-240.313,36.8c-12.873,1.637-9.643,8.488-6.079,10.229
	c34.332,16.774,63.545,35.727,93.049,57.324c-41.817-10.345-80.39-27.396-118.52-37.416c-20.916-5.496-36.648,2.867-24.757,17.058
	c28.088,40.529,45.782,84.693,74.457,123.49c38.539,52.146,100.667,80.34,156.251,112.374
	c121.037,69.756,229.962,111.252,354.164,169.759c21.562,10.157,63.856,19.619,84.593,22.183
	c50.872,6.29,97.32,10.464,148.572,9.629c46.425-0.757,93.796-4.312,138.102-18.202c124.948-39.17,249.098-76.611,373.128-116.552
	c7.621-2.454,12.683-5.49,15.962-8.898l-354.009-381.82C982.517,301.066,968.766,287.478,953.68,276.16z M478.337,149.733
	c-19.265-2.007-33.261-19.258-31.254-38.523c2.007-19.265,19.258-33.262,38.523-31.255c19.265,2.007,33.262,19.259,31.254,38.524
	C514.854,137.744,497.602,151.74,478.337,149.733z M1253.881,642.405c19.265,2.007,33.261,19.259,31.254,38.524
	c-2.007,19.265-19.259,33.26-38.523,31.253c-19.265-2.007-33.261-19.258-31.254-38.523
	C1217.364,654.394,1234.615,640.398,1253.881,642.405z M599.649,159.107l97.144,26.998c11.459-19.702,27.002-36.85,44.309-53.739
	c6.483-6.326,0.186-11.824-7.801-13.347c-77.588-14.798-150.91-31.326-222.316-49.164l31.055,54.314
	C553.264,143.802,578.918,153.346,599.649,159.107z M1584.573,89.047c-144.767,12.06-311.123,34.715-434.988,36.574l-7.716,25.936
	l-6.186-28.846c-90.547-2.469-182.638-6.145-273.753-11.18c10.956,33.87,20.905,62.463,27.777,102.332
	c1.487,8.624,2.91,17.754,3.953,27.086c8.8,2.64,17.522,5.549,25.987,9.093c13.457,5.633,25.579,12.686,37.247,21.44
	c15.365,11.526,29.357,25.332,42.394,39.394l353.216,380.964c3.4-6.798,1.897-14.547,0.256-21.954
	c-23.742-107.179-55.702-206.151-72.5-306.704c-8.561-51.249,17.547-70.02,62.016-97.991
	c81.443-51.228,165.091-90.132,247.6-138.822C1623.528,106.509,1611.285,86.821,1584.573,89.047z M1402.237,174.921l-168.903,97.301
	c-33.392,19.236-67.991,33.328-52.261,68.508l45.068,100.791l64.925,78.626l-184.392-187.168
	c-41.714-42.343-61.435-66.543,32.637-92.696l335.61-93.303L1402.237,174.921z M1286.842,362.381l73.834,323.292
	c1.727,7.564,11.316,14.099,18.997,12.495l32.719-6.832c9.447-1.973,13.987-13.554,15.568-22.022
	c21.857-117.091,42.099-234.5,66.38-351.127l26.273-98.771c3.247-12.21,7.675-22.495,15.234-32.646
	c4.607-6.187,9.922-11.898,15.083-17.624c6.839-7.587,13.385-15.214,19.547-23.372l8.621-11.412l-269.501,158.826
	C1290.959,304.17,1282.295,342.473,1286.842,362.381z"/>
</svg>
