<?xml version="1.0" encoding="utf-8"?>
<!-- Generator: Adobe Illustrator 21.0.2, SVG Export Plug-In . SVG Version: 6.00 Build 0)  -->
<svg version="1.1" id="Layer_1" xmlns="http://www.w3.org/2000/svg" xmlns:xlink="http://www.w3.org/1999/xlink" x="0px" y="0px"
	 width="1349.328px" height="894.184px" viewBox="0 0 1349.328 894.184" enable-background="new 0 0 1349.328 894.184"
	 xml:space="preserve">
<path fill-rule="evenodd" clip-rule="evenodd" fill="none" stroke="#000000" stroke-miterlimit="10" d="M953.68,276.16
	c-11.295-8.473-23.01-15.292-36.035-20.746c-7.555-3.163-15.327-5.809-23.174-8.212c3.409,37.144-0.202,76.408-30.472,99.057
	c-30.327,22.693-64.369,20.639-97.76,11.959c-28.338-7.366-52.219-30.557-68.663-54.783c-14.822-21.839-22.416-54.63-15.877-80.201
	c2.933-11.471,7.171-22.01,12.438-31.89l-95.821-26.63c-22.386-6.222-48.9-16.4-61.013-37.585L503.548,68.09
	C419.569,46.963,338.132,24.037,255.395,0c2.474,35.076,4.948,70.151,7.422,105.226l32.204,11.711l-32.326-2.532
	c-0.861,35.006-2.092,66.9-0.587,101.884c0.231,5.374,3.144,13.799,7.913,16.283c31.739,16.527,52.692,33.831,80.193,56.402
	c5.366,4.405,14.699,8.634,21.871,10.635c60.549,20.374,118.006,38.337,174.887,65.85c-61.705-10.606-125.303-28.275-184.479-45.959
	c-20.254-6.052-39.355-5.444-61.774-0.586c-78.958,17.111-159.874,26.567-240.313,36.8c-12.873,1.637-9.643,8.488-6.079,10.229
	c34.333,16.774,63.545,35.727,93.049,57.324c-41.817-10.345-80.39-27.396-118.52-37.416c-20.916-5.496-36.648,2.867-24.757,17.058
	c28.088,40.529,45.782,84.693,74.457,123.49c38.54,52.146,100.667,80.339,156.251,112.374
	c121.037,69.756,229.962,111.252,354.164,169.759c21.562,10.157,63.856,19.619,84.593,22.183
	c50.872,6.29,97.32,10.464,148.572,9.629c46.426-0.757,93.796-4.312,138.102-18.202c124.948-39.17,249.098-76.611,373.128-116.552
	c7.621-2.454,12.683-5.49,15.962-8.898l-354.009-381.82C982.518,301.066,968.767,287.478,953.68,276.16z M478.337,149.733
	c-19.265-2.007-33.261-19.258-31.254-38.523c2.007-19.265,19.258-33.262,38.523-31.255c19.265,2.007,33.262,19.259,31.254,38.524
	C514.854,137.744,497.602,151.74,478.337,149.733z M1253.881,642.405c19.265,2.007,33.261,19.259,31.254,38.524
	c-2.007,19.265-19.259,33.26-38.523,31.253c-19.265-2.007-33.261-19.258-31.254-38.523
	C1217.364,654.394,1234.615,640.398,1253.881,642.405z"/>
</svg>
