<?xml version="1.0" encoding="utf-8"?>
<!-- Generator: Adobe Illustrator 21.0.2, SVG Export Plug-In . SVG Version: 6.00 Build 0)  -->
<svg version="1.1" id="Layer_1" xmlns="http://www.w3.org/2000/svg" xmlns:xlink="http://www.w3.org/1999/xlink" x="0px" y="0px"
	 width="1582.1px" height="691.38px" viewBox="0 0 1582.1 691.38" enable-background="new 0 0 1582.1 691.38" xml:space="preserve">
<path fill="none" stroke="#231F20" stroke-linejoin="round" stroke-miterlimit="10" d="M7.829,571.375
	c-0.83-7.006-1.66-14.011-2.49-21.017c-0.854-7.212-1.754-14.622-2.678-21.904C1.754,521.301,0,514.232,0,506.984
	c0-17.221,13.96-31.181,31.181-31.181c11.949,0,20.614,7.663,27.686,16.491c7.485,9.344,12.775,19.993,26.449,13.251l99.467-73.975
	c0,0,13.05-6.436,19.093-5.843c18.443,1.812,60.563,2.96,99.058-17.49c46.671-24.793,660.88-348.312,767.145-404.282
	c10.1-5.32,20.768-5.13,29.695-0.279c25.47,13.843,81.639,42.006,136.324,53.524c73.851,15.555,235.447,33.666,270.932,40.057
	c23.78,4.282,46.223,21.614,44.92,37.949h-0.003c0,51.153,10.957,92.546,24.498,92.546l0.002-0.009
	c7.907,0.982,7.576,7.977-1.342,19.583c-23.589,30.704-66.207,83.191-112.622,126.03
	c-70.277,64.862-128.518,112.284-224.819,178.796s-117.46,78.229-180.753,84.78c-63.292,6.55-219.858,32.85-447.983,40.788
	S82.315,690.451,64.303,691.209s-36.394-0.689-47.656-11.041C11.56,675.493,5.9,667.953,1.222,661.091
	c-5.679-8.331,10.281-19.863,10.281-19.863c3.937,0,7.122-14.638,7.122-32.728c0-18.369-3.185-33.233-7.122-33.233l0.001,0.006
	c-2.272-0.846-3.307-2.288-3.591-3.963L7.829,571.375z"/>
</svg>
