<?xml version="1.0" encoding="utf-8"?>
<!-- Generator: Adobe Illustrator 21.0.2, SVG Export Plug-In . SVG Version: 6.00 Build 0)  -->
<svg version="1.1" id="Layer_1" xmlns="http://www.w3.org/2000/svg" xmlns:xlink="http://www.w3.org/1999/xlink" x="0px" y="0px"
	 width="1582.1px" height="691.38px" viewBox="0 0 1582.1 691.38" enable-background="new 0 0 1582.1 691.38" xml:space="preserve">
<path fill="none" stroke="#231F20" stroke-linejoin="round" stroke-miterlimit="10" d="M11.504,575.273
	c1.671,0.622,4.011,0.922,7.214,0.755c38.887-2.026,118.444-8.528,250.811-29.24c146.645-22.945,235.444-38,272.731-44.462
	c13.81-2.393,2.909-11.065,2.909-11.065l-104.197-44.045c0,0-9.105-9.998,9.242-10.27c25.754-0.382,61.877-0.082,86.728,3.571
	c42.553,6.255,141.855,21.32,141.855,21.32s180.114-48.724,330.536-96.877S1485.18,174.765,1530.1,156.928
	c14.816-5.883,21.209-13.682,21.85-21.722 M85.316,505.545l-72.762,54.114c0,0-5.463,6.804-4.641,11.651 M11.503,641.228
	l538.176-111.891c0,0,19.223,2.197,16.705,12.087c-6.65,26.118-19.2,75.591-22.436,89.62c-4.46,19.342,6.145,33.886,25.082,8.938
	c18.937-24.948,111.615-164.315,111.615-164.315s233.038-75.877,373.561-113.993c117.366-31.835,415.457-108.263,510.517-132.589
	c4.964-1.27,8.878-1.696,11.724-1.342"/>
</svg>
