<?xml version="1.0" encoding="utf-8"?>
<!-- Generator: Adobe Illustrator 16.0.0, SVG Export Plug-In . SVG Version: 6.00 Build 0)  -->
<!DOCTYPE svg PUBLIC "-//W3C//DTD SVG 1.1//EN" "http://www.w3.org/Graphics/SVG/1.1/DTD/svg11.dtd">
<svg version="1.1" id="Layer_1" xmlns="http://www.w3.org/2000/svg" xmlns:xlink="http://www.w3.org/1999/xlink" x="0px" y="0px"
	 width="925.582px" height="802.986px" viewBox="0 0 925.582 802.986" enable-background="new 0 0 925.582 802.986"
	 xml:space="preserve">
<path id="K" fill="none" stroke="#000000" stroke-miterlimit="10" d="M722.942,1.581c0,0-8.863,0.003-6.755,11.59
	s26.829,136.473,32.421,311.97c1.646,39.203,3.183,77.733-1.396,120.663c-4.58,42.931-31.584,334.422-32.997,346.871
	c-0.354,3.111-0.334,5.422,0.021,7.06 M233.903,0.596c-4.095,1.039-8.421,3.756-9.252,10.485
	c-1.652,13.375-20.697,146.275-22.601,220.669s-3.403,134.873,2.333,146.689c5.734,11.814,10.535,12.208,13.714-1.375
	s21.932-83.943,23.929-91.736c2-7.792,6.479-13.741,15.289-11.965c8.812,1.772,127.703,32.316,200.575,34.428
	c1.616,0.046,3.255,0.05,4.904,0.034c1.649,0.016,3.291,0.012,4.905-0.034c72.87-2.112,191.765-32.654,200.575-34.428
	c8.812-1.776,13.289,4.172,15.288,11.965c1.998,7.792,20.75,78.153,23.931,91.736c3.174,13.582,7.976,13.189,13.708,1.375
	c5.735-11.816,4.236-72.294,2.333-146.689c-1.901-74.396-20.946-207.295-22.601-220.669c-0.801-6.471-4.833-9.231-8.782-10.357
	 M202.64,1.58c0,0,8.863,0.003,6.754,11.59c-2.106,11.587-26.829,136.473-32.421,311.969c-1.643,39.203-3.182,77.737,1.399,120.663
	c4.579,42.931,31.585,334.422,32.997,346.869c0.409,3.621,0.315,6.154-0.226,7.805"/>
</svg>
