<?xml version="1.0" encoding="utf-8"?>
<!-- Generator: Adobe Illustrator 16.0.0, SVG Export Plug-In . SVG Version: 6.00 Build 0)  -->
<!DOCTYPE svg PUBLIC "-//W3C//DTD SVG 1.1//EN" "http://www.w3.org/Graphics/SVG/1.1/DTD/svg11.dtd">
<svg version="1.1" id="Layer_1" xmlns="http://www.w3.org/2000/svg" xmlns:xlink="http://www.w3.org/1999/xlink" x="0px" y="0px"
	 width="925.582px" height="802.986px" viewBox="0 0 925.582 802.986" enable-background="new 0 0 925.582 802.986"
	 xml:space="preserve">
<path id="Shape" fill="none" stroke="#000000" stroke-miterlimit="10" d="M910.655,231.137
	c-8.878-17.975-92.13-181.934-102.087-202.157c-9.955-20.224-24.5-24.108-32.627-24.885c-8.127-0.776-53-2.515-53-2.515
	s-8.863,0.003-6.755,11.59s26.829,136.473,32.421,311.97c1.646,39.203,3.184,77.734-1.396,120.664
	c-4.58,42.931-31.584,334.42-32.997,346.869s3.135,12.064,11.345,7.017c8.21-5.049,28.155-18.882,43.396-28.775
	C784.199,761.019,789.843,746,789.843,746s124.372-383.282,132.806-424.296C931.085,280.686,919.533,249.113,910.655,231.137z
	 M721.203,378.439c5.735-11.816,4.236-72.294,2.333-146.689c-1.901-74.396-20.946-207.295-22.601-220.669
	c-1.654-13.373-17.111-10.9-17.111-10.9S522.482,24.122,462.793,24.122c-59.688,0-221.031-23.941-221.031-23.941
	s-15.459-2.472-17.111,10.9c-1.652,13.375-20.697,146.275-22.601,220.669s-3.403,134.873,2.333,146.689
	c5.734,11.814,10.535,12.208,13.714-1.375s21.932-83.943,23.929-91.736c2-7.792,6.479-13.741,15.289-11.965
	c8.812,1.772,127.703,32.316,200.575,34.428c1.616,0.046,3.255,0.05,4.904,0.034c1.649,0.016,3.291,0.012,4.905-0.034
	c72.87-2.112,191.765-32.654,200.575-34.428c8.812-1.776,13.289,4.172,15.288,11.965c1.998,7.792,20.75,78.153,23.931,91.736
	C710.669,390.646,715.47,390.253,721.203,378.439z M178.373,445.802c-4.581-42.926-3.042-81.459-1.399-120.663
	c5.592-175.497,30.313-300.382,32.421-311.969c2.109-11.587-6.754-11.59-6.754-11.59s-44.873,1.739-52.999,2.515
	c-8.125,0.777-22.673,4.661-32.629,24.884S23.807,213.162,14.928,231.137C6.051,249.113-5.5,280.686,2.933,321.701
	c8.437,41.014,132.806,424.296,132.806,424.296s5.644,15.02,20.89,24.914c15.243,9.895,35.185,23.729,43.396,28.774
	c8.209,5.05,12.76,5.437,11.347-7.016C209.958,780.224,182.952,488.732,178.373,445.802z"/>
</svg>
