<?xml version="1.0" encoding="utf-8"?>
<!-- Generator: Adobe Illustrator 21.0.2, SVG Export Plug-In . SVG Version: 6.00 Build 0)  -->
<svg version="1.1" id="Layer_1" xmlns="http://www.w3.org/2000/svg" xmlns:xlink="http://www.w3.org/1999/xlink" x="0px" y="0px"
	 width="1427.061px" height="786.466px" viewBox="0 0 1427.061 786.466" enable-background="new 0 0 1427.061 786.466"
	 xml:space="preserve">
<path fill="none" stroke="#000000" stroke-linejoin="round" stroke-miterlimit="10" d="M1416.387,280.312
	c-0.88-0.135-1.826-0.224-2.845-0.263c-22.546-0.847-272.875,15.298-272.875,15.298s-23.771,3.453-26.357-10.305
	s9.479-20.016,9.479-20.016l186.283-141.883c0,0,5.547-4.774,8.896-11.764 M584.907,755.116c-14.685-2.324-6.306-14.59-6.306-14.59
	s33.703-31.775,38.861-36.814c5.158-5.041,24.416-8.16,30.312-9.264c5.9-1.109,38.281-29.08,46.51-36.732
	c8.23-7.652,31.927-30.428,39.722-43.088c7.793-12.66,2.556-20.66,2.556-20.66c-16.807-28.041-52.218-7.137-54.185-6.768
	c-1.966,0.373-223.597,80.727-254.836,91.354c-31.238,10.629-30.521-18-30.521-18s-3.002-23.178-30.938-27.418
	c-34.181-5.186-45.359,22.105-49.277,44.545c-3.918,22.443-18.734,20.822-18.734,20.822 M211.755,677.916
	c0.527-6.405,6.549-13.589,6.549-13.589l157.365-229.043c36.221-53.715-8.036-85.997-8.036-85.997s-206.364-134.16-221.729-145.515
	s4.108-16.036,4.108-16.036s18.699-2.864,51.156-7.955 M900.159,140.226C864.18,165.31,784.535,217.943,693.528,269.66
	c-91.01,51.719-201.481,108.116-201.481,108.116s-16.339,5.108-26.479-0.105c-10.141-5.217-179.684-100.513-179.684-100.513
	s-28.82-17.981,10.73-29.494L893.14,119.16C893.142,119.159,936.142,115.14,900.159,140.226z M1020.636,164.025
	c-22.437,4.221-43.982-10.25-48.142-32.322c-4.149-22.072,10.666-43.388,33.104-47.609c22.438-4.219,43.986,10.252,48.143,32.324
	C1057.89,138.491,1043.07,159.805,1020.636,164.025z M192.991,669.064c1.571-0.759,3.141-1.777,4.505-3.141
	c5.166-5.167,9.635-11.814,9.635-11.814s136.757-191.711,156.771-226.946c23.229-40.883-8.894-65.413-8.894-65.413L136.35,218.848
	c-5.394-3.145-10.762-1.412-15.986-0.998l-17.776,2.625L11.43,239.053"/>
</svg>
