<?xml version="1.0" encoding="utf-8"?>
<!-- Generator: Adobe Illustrator 16.0.0, SVG Export Plug-In . SVG Version: 6.00 Build 0)  -->
<!DOCTYPE svg PUBLIC "-//W3C//DTD SVG 1.1//EN" "http://www.w3.org/Graphics/SVG/1.1/DTD/svg11.dtd">
<svg version="1.1" id="Layer_1" xmlns="http://www.w3.org/2000/svg" xmlns:xlink="http://www.w3.org/1999/xlink" x="0px" y="0px"
	 width="1282.461px" height="716.718px" viewBox="0 0 1282.461 716.718" enable-background="new 0 0 1282.461 716.718"
	 xml:space="preserve">
<path fill="none" stroke="#000000" stroke-linejoin="round" stroke-miterlimit="10" d="M1225.508,307.648
	c-1.358-0.738-2.451,0.002-2.953,1.334l0.001,0.001c0.608,8.694-0.241,16.242-0.552,20.954
	c-0.855,13.01-61.104,113.271-94.057,165.521c-32.955,52.252-114.396,172.102-138.539,196.721
	c-24.146,24.623-69.791,24.539-69.791,24.539s-368.338-12.629-398.351-13.299c-30.007-0.668-145.784-33.035-159.442-39.24
	c-13.657-6.197-2.105-20.502,5.851-35.125c7.956-14.621-1.354-48.281-30.909-60.602c-29.548-12.322-65.031,8.248-66.429,30.678
	c-1.398,22.426-16.329,18.064-16.329,18.064s-90.426-48.537-94.979-50.605c-4.553-2.062-17.249-6.516-19.504-18.961
	c-2.258-12.447,20.09-13.283,65.01-68.666s58.307-116.299,59.159-129.306c0.857-13.01,9.836-36.171-50.33-29.444
	c-60.16,6.724-192.708,64.491-206.824,69.938c-14.118,5.449-5.117-5.18,24.538-25.98c29.652-20.794,104.354-69.687,278.621-136.621
	C483.97,160.618,802.71,55.615,802.71,55.615c12.841-3.614,20.527,10.421,20.527,10.421s20.967,34.123,59.018,22.408
	c38.044-11.716,28.083-50.726,27.271-60.542c-0.812-9.814,7.562-13.26,7.562-13.26s34.541-9.795,52.729-14.054
	c18.188-4.261-0.775,15.244-3.054,38.152c-2.272,22.909,9.983,51.54,23.353,73.864c13.365,22.325,171.727,128.285,204.717,148.979
	c11.63,7.292,18.543,16.318,22.582,25.518c1.289,0.937,2.401,0.021,2.968-1.193c2.048-15.239,15.102-26.99,30.899-26.99
	c17.222,0,31.182,13.96,31.182,31.18c0,17.22-13.96,31.18-31.182,31.18c-10.71,0-20.158-5.4-25.771-13.626L1225.508,307.648z"/>
</svg>
