<?xml version="1.0" encoding="utf-8"?>
<!-- Generator: Adobe Illustrator 16.0.0, SVG Export Plug-In . SVG Version: 6.00 Build 0)  -->
<!DOCTYPE svg PUBLIC "-//W3C//DTD SVG 1.1//EN" "http://www.w3.org/Graphics/SVG/1.1/DTD/svg11.dtd">
<svg version="1.1" id="Layer_1" xmlns="http://www.w3.org/2000/svg" xmlns:xlink="http://www.w3.org/1999/xlink" x="0px" y="0px"
	 width="1232.939px" height="756.223px" viewBox="0 0 1232.939 756.223" enable-background="new 0 0 1232.939 756.223"
	 xml:space="preserve">
<path fill="none" stroke="#000000" stroke-linejoin="round" stroke-miterlimit="10" d="M1158.381,367.378
	c-134.613-76.18-640.842-305.542-640.842-305.542s-27.438,51.856-78.229,33.958c-50.791-17.896-35.229-79.031-35.229-79.031
	L357.897,0c0,0,14.479,30.438-11.027,76.421C321.364,122.406,98.144,251.052,98.144,251.052s-54.805,22.149-37.258,75.815
	c17.543,53.667,52.306,130.631,98.144,218.144c45.839,87.511,73.862,144.251,73.862,144.251s22.952,53.532,76.681,55.546
	c53.73,2.018,383.121,11.415,383.121,11.415s61.536-1.926,89.705-7.188c28.167-5.271,209.262-70.045,209.262-70.045
	s5.479-14.284-5.604-24.831c-11.078-10.55-0.121-72.822,40.595-75.482c40.717-2.662,73.756,4.021,59.073-17.677
	c-14.682-21.694-85.479-142.718-50.494-175.617c34.98-32.9,168.994,35.807,168.994,35.807S1292.993,443.56,1158.381,367.378z"/>
</svg>
