<?xml version="1.0" encoding="utf-8"?>
<!-- Generator: Adobe Illustrator 16.0.0, SVG Export Plug-In . SVG Version: 6.00 Build 0)  -->
<!DOCTYPE svg PUBLIC "-//W3C//DTD SVG 1.1//EN" "http://www.w3.org/Graphics/SVG/1.1/DTD/svg11.dtd">
<svg version="1.1" id="Layer_1" xmlns="http://www.w3.org/2000/svg" xmlns:xlink="http://www.w3.org/1999/xlink" x="0px" y="0px"
	 width="1175.52px" height="756.223px" viewBox="0 0 1175.52 756.223" enable-background="new 0 0 1175.52 756.223"
	 xml:space="preserve">
<path d="M1100.959,367.378C966.346,291.198,460.116,61.836,460.116,61.836s-27.438,51.856-78.229,33.958
	c-50.791-17.896-35.229-79.031-35.229-79.031L300.476,0c0,0,14.479,30.438-11.026,76.421
	C263.943,122.406,40.723,251.052,40.723,251.052s-54.805,22.149-37.258,75.815c17.543,53.667,52.306,130.631,98.144,218.144
	c45.839,87.511,73.862,144.251,73.862,144.251s22.952,53.532,76.681,55.546c53.731,2.018,383.122,11.415,383.122,11.415
	s61.537-1.926,89.705-7.188c28.167-5.271,209.262-70.045,209.262-70.045s5.479-14.284-5.604-24.831
	c-11.078-10.55-0.121-72.822,40.594-75.482c40.717-2.662,73.756,4.021,59.074-17.677c-14.683-21.694-85.479-142.721-50.494-175.617
	c34.979-32.9,168.994,35.809,168.994,35.809S1235.572,443.56,1100.959,367.378z"/>
</svg>
