<?xml version="1.0" encoding="utf-8"?>
<!-- Generator: Adobe Illustrator 16.0.0, SVG Export Plug-In . SVG Version: 6.00 Build 0)  -->
<!DOCTYPE svg PUBLIC "-//W3C//DTD SVG 1.1//EN" "http://www.w3.org/Graphics/SVG/1.1/DTD/svg11.dtd">
<svg version="1.1" id="Layer_1" xmlns="http://www.w3.org/2000/svg" xmlns:xlink="http://www.w3.org/1999/xlink" x="0px" y="0px"
	 width="910.738px" height="755.718px" viewBox="0 0 910.738 755.718" enable-background="new 0 0 910.738 755.718"
	 xml:space="preserve">
<path fill="none" stroke="#000000" stroke-linejoin="round" stroke-miterlimit="10" d="M192.209,145.877
	c-6.336-2.664-10.513-5.112-12.672-7.271c-2.664-2.521-5.04-6.769-7.128-12.672c-12.097-32.4,6.407-57.672,38.088-52.92
	c18.863,2.808,29.521,13.32,31.752,31.536C247.073,142.277,215.897,156.029,192.209,145.877z M539.033,301.613
	c-6.407,10.656-18.721,14.256-37.08,11.088c-1.801-0.36-23.76-8.136-35.566-12.168c-100.081-34.632-154.657-54.288-163.943-59.112
	c-28.655-14.688-32.185-21.096-40.896-38.664c-13.104-26.208-19.008-44.064-17.712-53.928c1.225-9.144,6.191-15.696,14.832-19.512
	c11.592-5.256,41.903-0.648,90.721,13.68c10.008,2.88,20.02,5.544,30.022,7.92c27.646,6.84,103.538,33.624,108.145,37.512
	c0.438,0.288,3.312,4.32,8.713,11.736c15.406,21.168,25.774,37.728,31.031,49.464l12.743,26.64
	C544.218,285.053,543.858,293.477,539.033,301.613z M850.438,528.605c-2.559-4.055-7.669-0.91-10.694,0.705
	c-0.999,0.887-1.896,1.682-2.552,2.346c-10.012,10.154-21.1,19.08-32.764,27.217c-76.68,53.496-171,113.758-262.369,172.438
	l-23.975,15.846c-8.281,5.686-17.209,8.562-26.713,8.562c-1.225,0-6.049-0.793-14.328-2.229c-17.783-3.312-36.432-7.992-56.086-14.4
	c-75.528-24.475-151.345-48.168-227.448-70.703c-8.425-2.588-34.992-39.957-45.792-57.811
	C113.733,554.199,78.885,498.25,43.245,442.808C17.397,402.416,4.365,381.9,3.862,380.96c-8.856-21.312-1.368-53.063,11.304-69.266
	c3.601-4.68,17.784-17.568,42.624-38.448c1.943-1.656,5.76-4.608,11.448-8.784c16.92-12.528,27.863-21.888,33.119-28.008
	c8.28-9.72,9.937-12.024,12.601-26.496c6.12-33.408-8.567-53.784-21.527-71.64c-13.32-18.36-18-28.512-13.896-30.816l12.527-7.128
	c20.952-11.808,40.607-25.848,58.319-42.192c7.92-7.272,11.881-11.088,11.952-11.232c5.688-17.064-24.191-21.024-23.616-37.224
	c0.433-9.433,13.32-10.584,17.856-9.288c37.8,11.304,87.191,26.208,113.04,34.704c119.521,39.96,350.424,111.168,362.881,113.544
	l15.119,2.88c5.686,1.152,17.779,16.416,36.068,45.936c5.83,9.36,41.111,58.896,61.99,88.128
	c27.504,38.592,57.672,75.24,84.672,114.193c14.764,21.311,22.033,33.479,22.033,36.432c0,2.359-0.682,5.168-2.242,6.982
	c-2.229,2.594-6.304,4.086-9.39,5.273c-1.052,0.406-2.114,0.852-3.179,1.326c-10.405,4.668-21.041,12.775-21.875,24.855
	c-0.686,9.859,4.558,20.695,13.004,25.857c3.802,2.328,8.154,3.725,11.782,6.332l0.001,0.002c1.51,0.713,3.021,1.686,4.732,1.758
	c2.074,0.094,3.916-1.09,5.288-2.553c4.535-11.613,15.835-19.842,29.056-19.842c17.221,0,31.182,13.961,31.182,31.182
	c0,17.223-13.961,31.184-31.182,31.184c-13.281,0-24.624-8.307-29.118-20.004v-0.004H850.438z"/>
</svg>
