<?xml version="1.0" encoding="utf-8"?>
<!-- Generator: Adobe Illustrator 16.0.0, SVG Export Plug-In . SVG Version: 6.00 Build 0)  -->
<!DOCTYPE svg PUBLIC "-//W3C//DTD SVG 1.1//EN" "http://www.w3.org/Graphics/SVG/1.1/DTD/svg11.dtd">
<svg version="1.1" id="Layer_1" xmlns="http://www.w3.org/2000/svg" xmlns:xlink="http://www.w3.org/1999/xlink" x="0px" y="0px"
	 width="623.572px" height="523.729px" viewBox="0 0 623.572 523.729" enable-background="new 0 0 623.572 523.729"
	 xml:space="preserve">
<path d="M620.481,362.522c-10.009-31.25-71.279-320.042-71.279-320.042s-1.225-36.216-53.713-37.513
	C442.927,3.744,339.177,0,312.969,0h-2.376c-26.209,0-129.961,3.744-182.521,5.04C75.584,6.264,74.36,42.479,74.36,42.479
	S13.089,331.272,3.081,362.522c-10.008,31.246,7.562,44.996,7.562,44.996l126.215,102.457c0,0,12.529,13.753,45,13.753l26.281-1.226
	c0,0,8.711-7.488,7.486-24.983c-1.297-17.491-1.297-26.274-1.297-26.274s55.008-1.229,75.022-1.229l22.429-1.355l-0.105-0.006h0.217
	l-0.105,0.006l22.431,1.355c20.018,0,75.021,1.229,75.021,1.229s0,8.783-1.297,26.274c-1.228,17.495,7.483,24.983,7.483,24.983
	l26.278,1.226c32.474,0,45-13.753,45-13.753L612.99,407.521C612.992,407.521,630.489,393.771,620.481,362.522z M311.24,151.272
	c-14.184,0-25.633-11.736-25.633-26.28c0-14.472,11.449-26.208,25.633-26.208c14.109,0,25.631,11.736,25.631,26.208
	C336.876,139.536,325.353,151.272,311.24,151.272z"/>
</svg>
