<?xml version="1.0" encoding="utf-8"?>
<!-- Generator: Adobe Illustrator 16.0.0, SVG Export Plug-In . SVG Version: 6.00 Build 0)  -->
<!DOCTYPE svg PUBLIC "-//W3C//DTD SVG 1.1//EN" "http://www.w3.org/Graphics/SVG/1.1/DTD/svg11.dtd">
<svg version="1.1" id="Layer_1" xmlns="http://www.w3.org/2000/svg" xmlns:xlink="http://www.w3.org/1999/xlink" x="0px" y="0px"
	 width="623.572px" height="564.91px" viewBox="0 0 623.572 564.91" enable-background="new 0 0 623.572 564.91"
	 xml:space="preserve">
<path fill="none" stroke="#000000" stroke-linejoin="round" stroke-miterlimit="10" d="M620.482,403.704
	c-10.009-31.249-71.279-320.042-71.279-320.042s-1.225-36.216-53.713-37.512c-52.562-1.224-156.312-4.968-182.52-4.968h-2.377
	c-26.208,0-129.96,3.744-182.521,5.04C75.585,47.446,74.36,83.661,74.36,83.661S13.09,372.454,3.082,403.704
	c-10.008,31.247,7.562,44.997,7.562,44.997l126.215,102.457c0,0,12.529,13.752,45,13.752l26.281-1.225c0,0,8.711-7.488,7.487-24.984
	c-1.297-17.491-1.297-26.274-1.297-26.274s55.008-1.229,75.022-1.229l22.429-1.356l-0.106-0.006h0.217l-0.105,0.006l22.431,1.356
	c20.018,0,75.021,1.229,75.021,1.229s0,8.783-1.297,26.274c-1.228,17.496,7.483,24.984,7.483,24.984l26.279,1.225
	c32.473,0,45-13.752,45-13.752l126.287-102.457C612.993,448.701,630.49,434.951,620.482,403.704z M311.241,192.454
	c-14.184,0-25.633-11.736-25.633-26.28c0-14.472,11.449-26.208,25.633-26.208c14.109,0,25.632,11.736,25.632,26.208
	C336.876,180.718,325.354,192.454,311.241,192.454z"/>
</svg>
