<?xml version="1.0" encoding="utf-8"?>
<!-- Generator: Adobe Illustrator 16.0.0, SVG Export Plug-In . SVG Version: 6.00 Build 0)  -->
<!DOCTYPE svg PUBLIC "-//W3C//DTD SVG 1.1//EN" "http://www.w3.org/Graphics/SVG/1.1/DTD/svg11.dtd">
<svg version="1.1" id="Layer_1" xmlns="http://www.w3.org/2000/svg" xmlns:xlink="http://www.w3.org/1999/xlink" x="0px" y="0px"
	 width="937.594px" height="490.674px" viewBox="0 0 937.594 490.674" enable-background="new 0 0 937.594 490.674"
	 xml:space="preserve">
<path d="M935.942,340.479c-5.979-3.875-12.51-7.836-12.51-7.836l-2.793-1.646c0,0-110.668-75.785-160.976-102.729
	C709.397,201.27,541.24,115.183,466.372,79.625C391.531,44.17,309.303,5.323,309.303,5.323S296.305-7.053,270.38,5.936
	c-25.944,12.889-128.854,61.941-162.277,78.835c-33.463,16.956-67.901,30.426-83.35,46.603
	C9.368,147.59-12.062,179.71,8.406,201.629c20.452,22.078,57.812,50.229,104.342,76.017c0,0,194.454,102.558,316.491,141.002
	c122.063,38.548,199.976,67.688,235.786,70.312c35.812,2.629,41.32,8.5,119.924-39.604c78.564-48.044,137.201-92.771,137.201-92.771
	l7.57-6.062C929.722,350.521,941.927,344.358,935.942,340.479z M712.978,445.071c-4.664,15.315-20.5,24.055-35.275,19.473
	c-14.754-4.484-22.92-20.559-18.151-35.902c4.627-15.258,20.461-23.99,35.178-19.445
	C709.539,413.714,717.705,429.788,712.978,445.071z"/>
</svg>
