<?xml version="1.0" encoding="utf-8"?>
<!-- Generator: Adobe Illustrator 16.0.0, SVG Export Plug-In . SVG Version: 6.00 Build 0)  -->
<!DOCTYPE svg PUBLIC "-//W3C//DTD SVG 1.1//EN" "http://www.w3.org/Graphics/SVG/1.1/DTD/svg11.dtd">
<svg version="1.1" id="Layer_1" xmlns="http://www.w3.org/2000/svg" xmlns:xlink="http://www.w3.org/1999/xlink" x="0px" y="0px"
	 width="1285.93px" height="885.024px" viewBox="0 0 1285.93 885.024" enable-background="new 0 0 1285.93 885.024"
	 xml:space="preserve">
<path fill="none" stroke="#000000" stroke-linejoin="round" stroke-miterlimit="10" d="M62.287,338.095
	c0.049-0.714,0.073-1.435,0.073-2.161c0-17.22-13.959-31.18-31.18-31.18C13.959,304.754,0,318.714,0,335.934
	c0,17.22,13.96,31.18,31.181,31.18c8.21,0,15.68-3.174,21.248-8.36c1.653-0.848,3.023-0.472,3.078,1.53
	c-5.395,21.662,3.215,45.918,12.049,65.773c8.248,18.509,20.429,35.453,33.354,50.757l0,0l9.527,11.332l16.845,18.729l9.985,9.146
	l20.258,18.676l6.968,6.174l11.432,9.631l11.531,9.117l10.695,8.535l0,0c14.612,11.639,29.418,23.535,44.809,34.111
	c6.232,4.271,12.532,8.41,18.668,12.877c7.067,5.016,14.037,10.223,21.104,15.396c5.236,3.852,10.538,7.568,15.871,11.227
	c9.769,6.695,19.729,13.17,29.657,19.705c5.912,3.945,11.888,7.928,17.8,11.873l0,0l33,21.23l24.066,16.08l33.646,21.553
	l22.724,13.471l15.718,9.291l25.936,15.57l25.745,14.508l30.536,16.521l27.838,14.84l0,0l34.107,17.432
	c12.277,6.352,24.56,12.701,37.163,18.408c15.597,7.135,30.372,17.811,47.427,21.562c9.59,2.096,19.273,3.828,28.895,5.691l0,0
	l19.412,1.785l0,0l24.564,1.656l22.248,0.168l33.385,1.91l23.057-0.795l26.021-0.271l34.422-1.113l0,0l28.986-2
	c22.604-1.506,45.279-2.49,67.824-3.869c14.521-0.816,29.021-3.188,43.451-4.941l26.857-2.105
	c6.438-0.463,13.367-1.566,19.686-2.736c6.959-1.33,13.248-4.209,15.459-11.48c3.025-10.326-5.993-17.537-8.411-26.814
	c-1.653-6.15-2.696-11.764-1.646-18.158c1.707-10.107,7.375-20.719,16.344-26.031c5.131-3.145,11.447-5.277,17.406-5.74
	c4.479-0.404,8.373-0.455,12.75,0.783c8.877,2.539,16.756,5.945,23.172,13.049c5.682,6.17,8.422,14.646,9.426,22.895
	c0.689,6.15,0.283,12.234-1.439,18.223c-1.307,4.664-2.736,9.584,0.891,13.59c3.656,4.105,9.324,4.062,14.412,4.039
	c7.342-0.17,14.715-0.082,22.09-0.15c3.314-0.021,6.605-0.145,9.916-0.16c1.064-0.025,3.48-0.506,4.48-0.08l0,0l18.062-0.98l0,0
	c5.638-0.143,11.238-0.221,16.777-0.33c5.25-0.18,12.946-0.729,13.453-7.488c0.37-5.375-6.188-10.449-9.777-13.561
	c-11.529-9.76-23.25-19.297-34.877-29.021c-16.699-13.896-33.461-27.828-50.16-41.73c-9.311-7.76-18.303-16.158-28.035-23.402
	c-3.92-2.939-8.098-5.049-11.145-9.084c-6.093-8.066-4.574-18.756,1.405-26.305c5.142-6.52,12.466-11.293,18.944-16.488
	c4.166-3.303,8.435-6.639,12.625-10.006l0,0l41.961-31.744l0,0c7.455-5.354,14.943-10.77,22.438-16.188
	c8.326-6.125,17.645-11.664,24.725-19.309c4.98-5.396,5.16-12.154-1.75-16.361c-5.623-3.396-12.67-4.611-18.812-6.502
	c-6.947-2.211-13.934-4.195-20.91-6.188c-14.99-4.328-29.918-8.787-44.844-13.246c-3.314-0.943-6.658-1.984-10.037-2.967
	c-12.191-3.645-29.061-6.178-35.137-18.916c-4.57-9.479-6.5-21.178-9.492-31.229c-3.662-12.406-7.23-24.854-10.859-37.32
	c-3.855-13.311-7.738-26.559-11.527-39.833c-3.219-10.896-6.396-21.854-9.555-32.714c-1.467-5.093-2.963-10.122-4.428-15.212
	c-0.033-0.096-0.064-0.193-0.102-0.29l0,0l-41.754-152.953l-2.256-9.441l0,0c-1.582-9.183-7.131-16.091-16.104-19.082
	c-17.562-5.788-35.938-9.485-53.729-14.501c-11.967-3.291-23.9-6.484-35.74-10.354c-14.25-4.683-28.364-9.784-42.455-14.788l0,0
	l-18.592-6.467l-11.061-4.286l-9.066-3.441l-18.914-6.791l-25.791-9.936l-16.463-6.847l-15.309-5.941l-32.447-13.209l-36.338-15.573
	l-21.672-9.632l-14.473-6.809l-26.461-12.289l0,0c0,0-3.438-1.169-3.506-1.202c-2.439-0.748-6.539,0.495-8.021,2.646
	c-1.428,2.024-1.271,4.923-1.188,7.306c0.812,18.549-16.961,37.812-34.581,39.816c-19.483,2.192-41.312-9.052-45.309-29.286
	c-2.82-13.919,0.033-30.299,8.346-41.832c0.841-1.189,1.586-2.346,2.521-3.406c2.166-2.375,4.042-4.978,5.724-7.677
	c0.812-1.285,1.557-2.764,2.203-4.21c0.261-0.676,0.485-1.448,0.62-2.188l0,0l0.004-1.61l-0.188-1.384l0,0
	c-0.672-1.549-1.31-3.482-2.562-4.678c-0.771-0.711-1.572-1.519-2.375-2.165c-2.604-2.198-5.171-4.3-7.807-6.434
	c-1.38-1.098-2.729-2.101-4.109-3.2c-1.188-0.841-2.344-1.907-3.695-2.427c-1.543-0.617-3.187-0.558-4.799-0.08
	c-0.998,0.219-2.222,0.408-3.222,0.79l0,0l-3.481,1.631l-5.709,3.008l-34.036,20.496L458.09,58.336l0,0
	c-18.744,11.274-42.219,21.374-55.959,38.878c-18.171,23.255-34.963,48.574-51.239,73.188l0,0l-33.574,47.097l0,0
	c-16.81,20.715-33.843,50.832-57.582,63.861c-12.259,6.723-28.265,7.927-41.637,10.621c-22.199,4.534-44.785,8.55-66.952,12.698
	c-31.042,5.844-65.782,9.17-85.544,35.17C64.044,340.949,62.642,339.664,62.287,338.095z"/>
</svg>
