<?xml version="1.0" encoding="utf-8"?>
<!-- Generator: Adobe Illustrator 16.0.0, SVG Export Plug-In . SVG Version: 6.00 Build 0)  -->
<!DOCTYPE svg PUBLIC "-//W3C//DTD SVG 1.1//EN" "http://www.w3.org/Graphics/SVG/1.1/DTD/svg11.dtd">
<svg version="1.1" id="Layer_1" xmlns="http://www.w3.org/2000/svg" xmlns:xlink="http://www.w3.org/1999/xlink" x="0px" y="0px"
	 width="1340.289px" height="885.5px" viewBox="0 0 1340.289 885.5" enable-background="new 0 0 1340.289 885.5"
	 xml:space="preserve">
<path fill="none" stroke="#000000" stroke-linejoin="round" stroke-miterlimit="10" d="M155.171,761.834
	c0.142,16.174-12.89,29.336-29.062,29.479c-16.104,0.135-29.336-12.893-29.405-29.067c-0.14-16.172,12.892-29.336,29.062-29.479
	C141.876,732.707,155.111,745.723,155.171,761.834z M420.841,467.842c-55.909,97.799-62.546,106.503-106.686,182.588
	c-4.091,7.066-14.099,11.638-19.095,14.533c-6.689,3.846-26.29,15.032-33.917,18.926c-6.808,3.498-8.599-1.352-4.35-7.198
	c56.07-77.562,84.127-117.589,156.854-215.024C418.528,455.075,425.995,458.897,420.841,467.842z M918.396,139.668
	c0.116,14.869-11.818,26.945-26.617,27.052c-14.867,0.116-26.944-11.82-27.062-26.688c-0.104-14.797,11.816-26.946,26.688-27.062
	C906.203,112.862,918.363,124.86,918.396,139.668z M57.395,804.146c-0.555-0.411-1.04-0.919-1.432-1.445
	c-1.398-1.899-2.762-3.587-4.632-5.053c-3.73-2.929-7.556-5.057-12.14-6.348c-2.604-0.731-5.31-1.051-8.012-1.051
	C13.96,790.251,0,804.211,0,821.432c0,17.223,13.96,31.184,31.183,31.184c2.862,0,6.022-0.649,8.784-1.368
	c2.812-0.731,5.5-1.874,7.963-3.421c4.903-3.081,8.887-7.572,11.268-12.857c0.673-1.494,1.223-3.039,1.701-4.604
	c0.66-2.166,0.734-4.774,2.477-6.481c1.358-1.331,3.271-1.452,5.044-1.073c0.794,0.171,2.409,0.419,3.023,0.968
	c17.677,15.755,55.928,34.962,66.688,36.044c239.478,24.223,464.25,57.688,732.18-40.564
	c16.013-5.854,191.724-68.972,257.607-131.328c94.99-89.808,128.604-116.68,152.543-150.354
	c17.367-24.479,29.688-52.573,56.729-111.054c6.121-13.277,3.189-19.068-8.838-33.991
	c-46.123-57.176-171.682-209.385-245.209-298.142c-6.116-7.41-7.821-11.037-21.254-19.964
	c-39.043-26.15-61.688-42.304-98.771-68.418c-7.75-5.455-11.828-8.337-25.017-3.648c-112.92,40.078-155.931,57.207-226.727,84.552
	c-18.327,7.028-32.289,19.732-51.657,31.032C476.839,224.775,109.782,628.344,64.168,802.506c-0.3,1.146-2.248,2.254-3.287,2.514
	C59.631,805.332,58.404,804.896,57.395,804.146z"/>
</svg>
