<?xml version="1.0" encoding="utf-8"?>
<!-- Generator: Adobe Illustrator 16.0.0, SVG Export Plug-In . SVG Version: 6.00 Build 0)  -->
<!DOCTYPE svg PUBLIC "-//W3C//DTD SVG 1.1//EN" "http://www.w3.org/Graphics/SVG/1.1/DTD/svg11.dtd">
<svg version="1.1" id="Layer_1" xmlns="http://www.w3.org/2000/svg" xmlns:xlink="http://www.w3.org/1999/xlink" x="0px" y="0px"
	 width="1198.742px" height="873.613px" viewBox="0 0 1198.742 873.613" enable-background="new 0 0 1198.742 873.613"
	 xml:space="preserve">
<path fill="none" stroke="#000000" stroke-linejoin="round" stroke-miterlimit="10" d="M1152.99,751.345
	c-43.521-114.038-341.621-490.86-413.818-572.472c-14.889-16.824-36.875-34.848-54.582-43.248
	c-69.543-33.28-126.991-61.049-285.476-132.096c-12.736-5.747-29.773-4.333-41.356,3.206
	C258.503,70.824,183.001,130.224,70.105,219.369c-15.676,12.398-22.98,26.895-23.86,30.112
	c-10.167,21.765-36.284,71.406-41.12,82.44c-7.679,17.582-6.011,30.52,0.272,43.223c56.971,114.834,54.666,120.174,183.026,229.159
	c71.819,60.998,232.717,149.398,254.896,162.962c21.396,13.038,27.962,12.78,43.628,19.398
	c253.544,106.242,569.541,52.326,650.541,40.106C1153.18,824.458,1158.643,766.121,1152.99,751.345z M433.041,139.494
	c-4.729,12.406-18.654,18.728-31.205,14.068c-12.554-4.661-18.876-18.516-14.221-30.924c4.729-12.405,18.651-18.654,31.205-13.995
	C431.37,113.302,437.697,127.088,433.041,139.494z M1094.158,798.88c-4.652,12.406-18.65,18.654-31.131,13.997
	c-12.555-4.661-18.951-18.447-14.225-30.854c4.655-12.405,18.655-18.729,31.139-14.068
	C1092.49,772.617,1098.887,786.474,1094.158,798.88z"/>
</svg>
