<?xml version="1.0" encoding="utf-8"?>
<!-- Generator: Adobe Illustrator 16.0.0, SVG Export Plug-In . SVG Version: 6.00 Build 0)  -->
<!DOCTYPE svg PUBLIC "-//W3C//DTD SVG 1.1//EN" "http://www.w3.org/Graphics/SVG/1.1/DTD/svg11.dtd">
<svg version="1.1" id="Layer_1" xmlns="http://www.w3.org/2000/svg" xmlns:xlink="http://www.w3.org/1999/xlink" x="0px" y="0px"
	 width="1295.781px" height="710.109px" viewBox="0 0 1295.781 710.109" enable-background="new 0 0 1295.781 710.109"
	 xml:space="preserve">
<path d="M144.674,704.721c-32.687,3.386-52.89,5.367-63.468,5.39c-23.086,0.045-44.892-8.056-68.666-27.021
	c-23.771-18.975-6.44-38.584-6.44-38.584S218.043,318.451,223.4,310.947c5.355-7.502,16.047-11.467,16.047-11.467
	s26.084-7.145,49.296-21.449c23.208-14.309,57.608-46.982,57.608-46.982S532.711,55.326,549.523,37.917
	c13.225-13.692,30.762-13.823,48.385-15.484c14.913-1.406,29.837-2.682,44.771-3.881c54.806-4.405,109.69-7.782,164.606-10.461
	c38.318-1.869,76.658-3.378,115.008-4.554c209.982-6.436,326.665-2.123,326.665-2.123c55.221,0.656,46.291,34.486,46.291,34.486
	s-1.418,29.24-4.979,45.621c-3.562,16.379-20.008,45.953-31.182,67.027c-11.183,21.072-61.07,69.682-113.506,123.541
	c-52.437,53.855-269.435,232.779-341.062,285.334c-71.625,52.551-131.675,65.924-172.979,75.623
	c-41.303,9.695-312.81,49.908-366.331,57.685c-2.691,0.395-5.525,0.793-8.478,1.2c0,0-16.888-1.098-19.491-18.192l-4.168-28.416
	c-3.155-19.629-21.011-33.756-41.119-31.967c-21.025,1.868-36.556,20.432-34.687,41.457c0.028,0.315,0.062,0.631,0.099,0.944
	l2.929,32.949c0,0,1.383,12.332-8.193,14.268L144.674,704.721z"/>
</svg>
