<?xml version="1.0" encoding="utf-8"?>
<!-- Generator: Adobe Illustrator 16.0.0, SVG Export Plug-In . SVG Version: 6.00 Build 0)  -->
<!DOCTYPE svg PUBLIC "-//W3C//DTD SVG 1.1//EN" "http://www.w3.org/Graphics/SVG/1.1/DTD/svg11.dtd">
<svg version="1.1" id="Layer_1" xmlns="http://www.w3.org/2000/svg" xmlns:xlink="http://www.w3.org/1999/xlink" x="0px" y="0px"
	 width="1373.512px" height="917.5px" viewBox="0 0 1373.512 917.5" enable-background="new 0 0 1373.512 917.5"
	 xml:space="preserve">
<path fill="none" stroke="#000000" stroke-linejoin="round" stroke-miterlimit="10" d="M1368.714,252.521
	c-4.93-8.307-13.021-13.993-21.938-17.438c-44.029-17.003-77.646-22.871-117.998-27.867c-7.059-0.873-14.095-1.887-21.125-2.948
	c-5.312-0.8-14.748-1.954-28.307-3.457c-11.737-1.301-24.782-2.75-34.978-5.514c-4.379-1.188-38.832-2.935-42.793-2.963
	c-4.604-0.03-16.551,0.72-35.967,2.148c-34.772,2.601-60.759,0.237-77.959-7.094c-6.119-2.571-10.181-6.013-12.211-10.23
	l-1.806-3.767c-0.354-0.707-1.846-8.661-1.723-14.68c0.373-21.284,13.27-50.049,38.74-86.162
	c13.19-18.684,23.45-32.602,30.787-41.751c10.424-13.112,15.182-21.456,14.344-25.222c-0.354-1.353-0.937-2.512-1.711-3.413
	c-1.578-1.704-4.188-2.25-6.474-2.152c-1.229-0.031-27.168,12.48-77.961,37.438c-32.285,15.929-69.785,32.217-112.312,48.926
	c-1.354,0.517-8.049,3.225-20.119,8.065c-71.85,28.738-86.561,34.094-290.78,107.555c-66.538,23.906-100.98,36.971-103.396,39.065
	c-1.896,1.675-3.378,3.705-4.473,6.025c-1.225,2.706-3.497,17.776-6.766,45.18c-0.694,5.859-1.926,16.161,0.366,17.612l6.25,3.956
	c1.19,0.772,8.438-1.164,21.729-5.971c38.019-13.648,59.587-21.068,64.575-22.36c7.082-1.776,12.104-2.52,14.938-2.167
	c13.651,1.536,20.395,14.99,14.057,26.618c-0.225,0.354-18.306,21.008-60.812,62.67c-21.816,21.395-56.41,52.009-103.586,91.905
	c-15.157,12.82-24.717,20.271-28.739,22.363c-8.634,4.496-18.376,5.992-28.042,6.072c-12.428,0.105-20.479,1.238-24.083,3.527
	c-3.766,2.287-7.595,6.059-11.485,11.311c-4.346,5.797-26.571,38.271-66.875,97.516c-4.454,6.547-8.706,13.225-13.067,19.831
	C171.426,694.212,126.9,763.983,80.933,832.802c-11.31,16.938-17.314,27.311-18.148,31.18c-1.095,4.857-0.083,9.469,3,13.758
	c1.938,2.834,7.353,7.713,16.18,14.668c6.626,5.271,29.858,20.977,36.848,23.072c7.273,2.195,29.104,2.617,65.457,1.188
	c7.389-0.309,96.427-5.053,131.46-8.49c14.804-1.436,27.384-5.629,39.795-6.938c9.756,0.186,58.021-5.064,144.727-15.562
	c33.771-4.086,67.413-9.225,101.228-13.014c126.343-14.16,199.771-42.32,293.396-100.893
	c47.378-29.689,118.82-83.516,214.271-161.602c36.72-30.064,70.924-60.646,102.715-91.711c13.078-12.772,64.714-65.097,96.951-97.76
	c19.015-19.271,30.275-31.834,33.686-37.73c2.959-5.185,8.195-21.096,15.775-47.924c9.573-34.105,14.612-55.071,15.155-62.831
	C1373.906,265.139,1372.324,258.603,1368.714,252.521z M242.604,893.396c-18.648-12.112-23.936-40.696-3.542-57.937
	c15.258-12.955,44.39-12.717,56.682,11.51C311.688,878.526,275.219,914.448,242.604,893.396z M898.344,192.274
	c-17.553,2.326-47.4-7.251-54.957-50.652c-2.909-17.74,3.524-46.869,37.192-52.965c11.149-2.03,21.244-0.407,30.217,5.017
	c6.146,3.608,10.06,7.031,11.725,10.343l5.556,11.06C936.887,132.617,940.615,186.79,898.344,192.274z"/>
</svg>
