<?xml version="1.0" encoding="utf-8"?>
<!-- Generator: Adobe Illustrator 16.0.0, SVG Export Plug-In . SVG Version: 6.00 Build 0)  -->
<!DOCTYPE svg PUBLIC "-//W3C//DTD SVG 1.1//EN" "http://www.w3.org/Graphics/SVG/1.1/DTD/svg11.dtd">
<svg version="1.1" id="Layer_1" xmlns="http://www.w3.org/2000/svg" xmlns:xlink="http://www.w3.org/1999/xlink" x="0px" y="0px"
	 width="527.857px" height="403.791px" viewBox="0 0 527.857 403.791" enable-background="new 0 0 527.857 403.791"
	 xml:space="preserve">
<path d="M453.417,0H74.441C74.441,0,0,2.256,0,85.723c0,83.466,0,239.115,0,239.115s4.513,78.953,76.696,78.953
	c72.186,0,181.593-0.385,181.593-0.385h11.277c0,0,109.405,0.385,181.596,0.385c72.187,0,76.695-78.953,76.695-78.953
	s0-155.651,0-239.117C527.861,2.256,453.417,0,453.417,0z M263.928,113.226c-21.123,0-38.248-17.125-38.248-38.248
	c0-21.125,17.125-38.25,38.248-38.25c21.125,0,38.25,17.125,38.25,38.25C302.178,96.101,285.053,113.226,263.928,113.226z"/>
</svg>
