<?xml version="1.0" encoding="utf-8"?>
<!-- Generator: Adobe Illustrator 16.0.0, SVG Export Plug-In . SVG Version: 6.00 Build 0)  -->
<!DOCTYPE svg PUBLIC "-//W3C//DTD SVG 1.1//EN" "http://www.w3.org/Graphics/SVG/1.1/DTD/svg11.dtd">
<svg version="1.1" id="Layer_1" xmlns="http://www.w3.org/2000/svg" xmlns:xlink="http://www.w3.org/1999/xlink" x="0px" y="0px"
	 width="562.041px" height="430.722px" viewBox="0 0 562.041 430.722" enable-background="new 0 0 562.041 430.722"
	 xml:space="preserve">
<path fill="none" stroke="#000000" stroke-linejoin="round" stroke-miterlimit="10" d="M298.108,63.658
	c21.124,0,38.249,17.125,38.249,38.249s-17.125,38.249-38.249,38.249s-38.249-17.125-38.249-38.249S276.984,63.658,298.108,63.658z
	 M60.938,40.527c0.926-2.951,1.425-6.09,1.425-9.346C62.363,13.96,48.403,0,31.182,0S0.001,13.96,0.001,31.181
	c0,17.221,13.96,31.181,31.181,31.181c5.699,0,11.041-1.529,15.637-4.198c0.926-0.219,2.384-0.749,2.275,0.772
	C40.33,71.383,34.181,88.665,34.18,112.654c0,83.465,0,239.115,0,239.115s4.512,78.953,76.696,78.953
	c72.186,0,181.593-0.385,181.593-0.385h11.277c0,0,109.405,0.385,181.596,0.385c72.188,0,76.695-78.953,76.695-78.953
	s0-155.652,0-239.117c0.001-83.465-74.44-85.721-74.44-85.721H108.621c0,0-22.968,0.696-43.388,15.619
	C63.478,43.25,60.945,42.886,60.938,40.527z"/>
</svg>
