<?xml version="1.0" encoding="utf-8"?>
<!-- Generator: Adobe Illustrator 16.0.0, SVG Export Plug-In . SVG Version: 6.00 Build 0)  -->
<!DOCTYPE svg PUBLIC "-//W3C//DTD SVG 1.1//EN" "http://www.w3.org/Graphics/SVG/1.1/DTD/svg11.dtd">
<svg version="1.1" id="Layer_1" xmlns="http://www.w3.org/2000/svg" xmlns:xlink="http://www.w3.org/1999/xlink" x="0px" y="0px"
	 width="900.742px" height="480.752px" viewBox="0 0 900.742 480.752" enable-background="new 0 0 900.742 480.752"
	 xml:space="preserve">
<path fill="none" stroke="#000000" stroke-linejoin="round" stroke-miterlimit="10" d="M840.89,43.454
	c-1.614-3.767-2.509-7.916-2.509-12.273C838.382,13.96,852.343,0,869.563,0s31.182,13.96,31.182,31.181
	c0,17.221-13.961,31.181-31.182,31.181c-4.595,0-8.957-0.994-12.884-2.778c-2.932,0.026-5.365,2.038-5.972,4.908
	c1.119,13.809-7.949,31.7-7.949,31.7s-26.268,53.233-46.076,86.211c-19.809,32.98-108.76,121.708-162.162,160.948
	c-53.406,39.244-108.492,91.182-167.066,121.857c-58.571,30.68-115.229,6.477-115.229,6.477S44.161,321.226,11.536,305.874
	c-32.626-15.35,14.316-34.338,14.316-34.338s227.501-95.261,266.562-111.826c39.061-16.566,93.206-35.229,93.206-35.229
	l442.612-75.587c2.266-0.18,4.32-0.189,6.182-0.045c1.552-0.172,3.253,0.039,4.688-0.682c1.928-0.968,1.786-2.799,1.786-4.715
	L840.89,43.454z"/>
</svg>
