<?xml version="1.0" encoding="utf-8"?>
<!-- Generator: Adobe Illustrator 16.0.0, SVG Export Plug-In . SVG Version: 6.00 Build 0)  -->
<!DOCTYPE svg PUBLIC "-//W3C//DTD SVG 1.1//EN" "http://www.w3.org/Graphics/SVG/1.1/DTD/svg11.dtd">
<svg version="1.1" id="Layer_1" xmlns="http://www.w3.org/2000/svg" xmlns:xlink="http://www.w3.org/1999/xlink" x="0px" y="0px"
	 width="1419.143px" height="703.21px" viewBox="0 0 1419.143 703.21" enable-background="new 0 0 1419.143 703.21"
	 xml:space="preserve">
<path fill="none" stroke="#000000" stroke-linejoin="round" stroke-miterlimit="10" d="M1351.406,193.028
	c-14.545-5.687-107.951-36.013-121.443-42.754c-13.494-6.745-48.281-26.759-48.714-49.105c-0.431-22.345,0.829-39.633,5.252-51.652
	c4.423-12.017,14.11-37.741,14.11-37.741s4.635-13.495-7.385-11.593c-12.015,1.901-24.24,3.17-24.24,3.17
	s-11.809,0.425-11.381,12.231c0.426,11.807,3.184,60.083-38.768,71.271c-41.949,11.187-46.398-59.015-46.398-59.015
	s-3.803-17.707-13.707-7.374s-22.127,22.143-29.297,23.832c-7.168,1.689-129.227,19.228-129.227,19.228s-24.453,2.539-34.361-1.885
	c-9.91-4.424-14.551-7.795-14.551-7.795s-6.464-3.094-16.092-1.122c0,0-299.615,62.714-384.132,86.443
	c-84.52,23.731-114.453,33.017-129.629,41.242c-15.178,8.227-54.062,37.019-80.3,59.479
	c-26.238,22.461-105.27,98.382-133.403,130.962c-28.134,32.579-69.227,80.03-69.227,80.03s-28.868,41.963-15.162,43.014
	c13.7,1.049,25.717-0.854,38.365-2.967c12.65-2.109,48.274-9.082,57.976,3.145c9.704,12.223-7.787,33.521-36.872,57.984
	c-29.084,24.469-77.979,71.705-80.506,76.77c-2.529,5.059-4.212,18.975,1.696,21.924c5.903,2.949,17.08,13.277,19.4,20.23
	c2.319,6.957,3.383,31.197,15.607,32.039c12.229,0.84,29.097-1.273,39.212-2.545c10.121-1.268,411.292-44.83,540.307-65.746
	c129.015-20.912,367.435-67.799,384.192-71.277c16.759-3.484,43.952-10.453,55.755-21.418
	c11.803-10.969,92.824-111.451,141.822-173.131c48.994-61.681,79.022-91.731,101.152-110.713
	c22.133-18.981,44.891-42.391,44.891-42.391S1365.953,198.716,1351.406,193.028z M354.378,304.361c0,0-15.492,4.119-22.241,0.744
	c-6.748-3.37-13.494-4.632-24.245,1.062c-10.75,5.698-108.763,53.165-108.763,53.165s114.656-79.729,153.859-109.678
	c39.202-29.949,92.521-76.558,124.773-85.212c32.251-8.655,183.396-44.336,183.396-44.336s10.329-2.742,23.612,1.257
	c13.281,4.003,22.771,9.271,31.836,6.947c9.062-2.32,62.713-16.359,62.713-16.359L354.378,304.361z"/>
</svg>
