<?xml version="1.0" encoding="utf-8"?>
<!-- Generator: Adobe Illustrator 16.0.0, SVG Export Plug-In . SVG Version: 6.00 Build 0)  -->
<!DOCTYPE svg PUBLIC "-//W3C//DTD SVG 1.1//EN" "http://www.w3.org/Graphics/SVG/1.1/DTD/svg11.dtd">
<svg version="1.1" id="Layer_1" xmlns="http://www.w3.org/2000/svg" xmlns:xlink="http://www.w3.org/1999/xlink" x="0px" y="0px"
	 width="1564.725px" height="687.969px" viewBox="0 0 1564.725 687.969" enable-background="new 0 0 1564.725 687.969"
	 xml:space="preserve">
<path d="M398.888,683.977c-32.752,2.654-52.997,4.188-63.572,3.974c-23.083-0.469-44.697-9.051-68.047-28.543
	c-23.344-19.498-5.582-38.72-5.582-38.72s219.155-321.252,224.676-328.636c5.524-7.38,16.298-11.105,16.298-11.105
	s26.237-6.562,49.763-20.346c23.521-13.788,58.644-45.688,58.644-45.688S801.287,43.384,818.489,26.355
	c17.197-17.03,32.122-13.135,32.122-13.135S981.853,2.043,1191.929,0.286c210.076-1.758,326.631,5.153,326.631,5.153
	c55.192,1.886,45.512,35.509,45.512,35.509s-2.065,29.202-5.994,45.499c-3.926,16.295-21.024,45.497-32.668,66.316
	c-11.645,20.818-62.604,68.304-116.225,120.983c-53.621,52.673-274.556,226.722-347.332,277.667
	c-72.779,50.942-133.109,62.975-174.623,71.75c-41.506,8.771-313.84,42.93-367.524,49.51c-2.698,0.334-5.543,0.67-8.501,1.014
	c0,0-16.856-1.475-19.083-18.622l-3.531-28.503c-2.72-19.692-20.255-34.215-40.396-32.875c-21.062,1.4-37.002,19.609-35.6,40.677
	c0.021,0.313,0.045,0.631,0.075,0.944l2.193,33.009c0,0,1.106,12.356-8.511,14.08L398.888,683.977z M231.128,621.622L575.45,84.87
	c0,0,6.437-19.951,3.269-29.748c-3.164-9.798-11.642-23.697-27.112-17.574C536.131,43.672,56.002,235.491,56.002,235.491
	s-27.342,12.023-37.391,24.233C9.23,271.125,3.584,284.282,3.584,284.282S-3.999,307.25,2.896,318.8
	c6.901,11.553,184.081,312.475,184.081,312.475s23.383,15.813,30.028,7.95C223.651,631.358,231.128,621.622,231.128,621.622z"/>
</svg>
