<?xml version="1.0" encoding="utf-8"?>
<!-- Generator: Adobe Illustrator 16.0.0, SVG Export Plug-In . SVG Version: 6.00 Build 0)  -->
<!DOCTYPE svg PUBLIC "-//W3C//DTD SVG 1.1//EN" "http://www.w3.org/Graphics/SVG/1.1/DTD/svg11.dtd">
<svg version="1.1" id="Layer_1" xmlns="http://www.w3.org/2000/svg" xmlns:xlink="http://www.w3.org/1999/xlink" x="0px" y="0px"
	 width="1561.828px" height="700.196px" viewBox="0 0 1561.828 700.196" enable-background="new 0 0 1561.828 700.196"
	 xml:space="preserve">
<path d="M1109.451,692.772c-45.092,1.223-93.41-6.045-132.813-10.26c-104.826-11.213-282.438-32.4-332.763-47.291
	c-50.32-14.887-123.629-54.17-123.629-54.17s-110.957-76.943-243.243-186.889C144.714,284.225,70.57,198.059,48.958,174.539
	c-21.615-23.516-39.438-61.983-47.5-109.644C-6.607,17.238,38.91,15.524,38.91,15.524S232.601,2.608,365.155,0.698
	c132.548-1.906,371.788,10.521,371.788,10.521c24.423,4.075,40.563,24.081,40.563,24.081s48.062,58.057,70.424,79.923
	c34.424,33.659,90.354,84.979,134.742,121.165c44.391,36.193,79.108,47.75,92.467,51.572c16.312,4.67,22.881,18.537,22.881,18.537
	s208.512,313.328,219.176,329.826c10.668,16.486-1.336,26.174-22.221,43.684c-20.883,17.516-45.203,19.297-45.203,19.297
	s-8.711,1.48-32.793,1.395c-26.078-0.09-9.041-47.229-9.041-47.229c2.604-15.17-3.846-31.125-17.615-39.957
	c-18.362-11.77-42.801-6.432-54.571,11.934c-3.035,4.732-4.933,9.869-5.769,15.092l-3.578,36.531
	C1126.405,677.063,1123.01,692.405,1109.451,692.772z M1055.412,153.496l276.957,474.819c0,0,13.67,18.119,26.47,7.598
	c12.793-10.525,200.202-290.389,200.202-290.389s8.566-12.673-1.959-25.468c-10.521-12.793-38.963-43.738-38.963-43.738
	s-13.737-7.51-29.604-15.037c-15.859-7.525-420.91-189.375-420.91-189.375s-27.533-6.541-25.521,10.442
	C1044.098,99.332,1041.781,129.013,1055.412,153.496z"/>
</svg>
