<?xml version="1.0" encoding="utf-8"?>
<!-- Generator: Adobe Illustrator 16.0.0, SVG Export Plug-In . SVG Version: 6.00 Build 0)  -->
<!DOCTYPE svg PUBLIC "-//W3C//DTD SVG 1.1//EN" "http://www.w3.org/Graphics/SVG/1.1/DTD/svg11.dtd">
<svg version="1.1" id="Layer_1" xmlns="http://www.w3.org/2000/svg" xmlns:xlink="http://www.w3.org/1999/xlink" x="0px" y="0px"
	 width="1546.148px" height="743.85px" viewBox="0 0 1546.148 743.85" enable-background="new 0 0 1546.148 743.85"
	 xml:space="preserve">
<path d="M1539.719,230.265c0,0-70.127-22.464-96.479-30.168c-26.354-7.704-51.625-19.872-72-41.257
	c-20.377-21.455-4.248-81.504,9-104.039c13.177-22.465-17.646-15.84-29.953-14.616c-12.312,1.151-14.832,5.832-14.832,5.832
	s3.097,69.912-38.879,73.944c-42.049,4.031-43.272-68.977-43.272-68.977s0-1.439-1.008-3.24c-0.938-1.871-4.607-2.016-4.607-2.016
	c-2.305-1.296-6.84,5.04-12.743,12.168c-5.832,7.128-29.089,16.704-39.959,17.784c-10.873,1.008-96.979,10.08-119.377,12.96
	c-22.394,2.88-28.226-11.88-30.522-20.448c-2.232-8.567-9.793-3.456-9.793-3.456s-222.984,45.721-259.632,52.92
	c-36.577,7.2-204.84,51.984-246.103,71.28c-41.256,19.368-141.69,108.072-176.897,144.36
	c-35.281,36.287-193.18,202.967-200.09,214.561c-6.912,11.663-1.08,11.811,2.664,12.891c3.812,1.146,74.732-21.814,87.336-27.438
	c12.601-5.609,20.808,3.816,13.031,14.113c-7.774,10.229-93.312,101.158-115.92,124.562c-22.608,23.396-25.85,42.689-25.85,42.689
	l14.832,2.232l-10.439,12.672c10.01,20.305,48.023,12.961,54.646,13.033c6.553,0.064,97.991-22.609,127.656-25.488
	c29.734-2.881,224.137-26.785,308.881-34.992c84.744-8.209,390.021-50.107,390.021-50.107s44.854-5.039,122.543-18.438
	c77.688-13.317,105.408-29.16,105.408-29.16c12.385-7.771,59.474-57.672,101.306-116.562
	c41.832-58.896,201.526-215.496,212.832-226.8C1552.897,229.76,1539.719,230.265,1539.719,230.265z M186.551,730.736
	c-20.303,1.939-38.229-11.951-40.104-31.031c-1.801-19.08,13.104-36.146,33.408-38.088c20.306-1.945,38.23,11.879,40.104,30.959
	C221.76,711.656,206.854,728.72,186.551,730.736z M846.216,193.4c-34.055,11.88-292.032,114.696-292.032,114.696
	s-29.305-4.608-11.81-22.32C559.87,268.064,674.569,184.4,696.169,175.904c21.6-8.496,171.576-35.783,184.752-31.752
	c0,0,12.6,1.801,13.319,5.904c0.72,4.104,0.72,6.624,0.72,6.624S880.272,181.592,846.216,193.4z M139.334,501.968
	c0,0-33.191,50.479-38.019,50.904c-4.823,0.504-42.266,6.84-42.266,6.84l0,0L66.18,543.8l0,0c0,0-9,2.521-10.152-3.889
	c0,0-0.071-21.023,4.031-30.527c4.104-9.432,55.943-159.118,62.783-181.87c6.842-22.752,25.057-104.905,22.682-118.728
	c-2.377-13.824-9.793-49.248-31.682-68.257C91.883,121.521,7.211,56.433,7.211,56.433S-9.205,52.977,7.5,38.29
	C24.131,23.601,40.043,11,40.043,11l0,0L143.436,0.057l0,0c0,0,11.951-1.152,20.734,6.984c8.854,8.207,66.744,45.791,92.809,55.367
	c25.992,9.504,50.04,19.297,102.024,16.272c51.911-3.024,640.366-47.808,640.366-47.808s34.634,4.68,1.151,11.879
	c-33.479,7.272-272.021,54.433-286.774,57.889c-14.762,3.456-170.784,41.615-200.521,56.52
	c-29.664,14.977-118.728,80.856-133.344,96.336C365.341,268.904,139.334,501.968,139.334,501.968L139.334,501.968"/>
</svg>
