<?xml version="1.0" encoding="utf-8"?>
<!-- Generator: Adobe Illustrator 16.0.0, SVG Export Plug-In . SVG Version: 6.00 Build 0)  -->
<!DOCTYPE svg PUBLIC "-//W3C//DTD SVG 1.1//EN" "http://www.w3.org/Graphics/SVG/1.1/DTD/svg11.dtd">
<svg version="1.1" id="Layer_1" xmlns="http://www.w3.org/2000/svg" xmlns:xlink="http://www.w3.org/1999/xlink" x="0px" y="0px"
	 width="1424.363px" height="783.93px" viewBox="0 0 1424.363 783.93" enable-background="new 0 0 1424.363 783.93"
	 xml:space="preserve">
<path fill="none" stroke="#000000" stroke-linejoin="round" stroke-miterlimit="10" d="M434.983,692.85
	c-8.441-7.361-12.603-17.053-13.009-29.305c-0.227-26.068,21.281-41.508,40.188-41.84c20.271-0.445,39.136,16.354,41.062,37.074
	C506.868,695.973,463.003,717.75,434.983,692.85z M407.177,289.812c-79.393,76.719-124.159,118.14-133.93,124.448
	c-3.522,2.076-5.518,3.389-6.518,3.535c-2.667,0.998-5.016,1.469-7.312,1.646c-3.47-0.023-5.819-0.564-7.189-1.475
	c-1.363-0.836-2.573-2.475-3.583-4.35c-0.566-1.762-0.851-5.42,0.166-10.986c0.581-2.789,1.555-6.109,3.312-10.509
	c0.712-2.003,5.948-11.865,15.268-29.695c32.362-60.976,57.24-106.574,74.688-137.017c3.745-6.714,7.361-13.202,10.704-19.523
	c32.245-58.729,40.905-65.387,107.956-72.416l10.968-1.058l10.809-1.264c1.501-0.187,5.09-0.462,11.121-0.925
	c12.065-0.855,19.309-1.555,21.746-1.743l11.085-1.428c5.719-0.729,9.381-1.011,10.835-0.905c5.875,0.001,14.115,0.423,15.104,7.951
	c1.438,10.957-8.52,18.756-14.88,26.251c-10.264,12.085-22.151,23.314-33.352,34.533c-9.033,9.051-18.079,18.096-27.024,27.232
	C474.472,224.853,451.01,247.524,407.177,289.812z M631.045,258.042c-0.19,0.652-0.423,1.243-0.706,1.741
	c-0.636,1.109-0.609,2.738-1.05,3.948c-2.492,6.877-5.727,13.461-10.942,18.694c-7.517,7.438-23.572,12.715-47.962,16.754
	c-26.023,4.309-45.105-2.53-56.73-20.34c-4.67-7.224-12.651-24.663-5.747-43.824c5.58-15.737,18.224-26.024,23.775-28.905
	c7.977-4.295,23.324-7.497,45.716-9.36c7.779-0.598,14.021-0.577,21.605,1.446c6.529,1.741,12.577,4.581,17.508,9.285
	c8.221,7.84,13.584,19.194,15.27,30.356c0.555,3.667,0.649,7.38,0.337,11.075C631.907,251.34,631.858,255.246,631.045,258.042z
	 M94.515,604.583L94.515,604.583c-0.152,0.271-0.302,0.351-0.445,0.276c-0.93-0.479-1.656-7.395-1.972-10.396
	c-2.087-19.883-6.754-45.094-14.055-75.381c-9.442-39.166-17.159-78.738-26.798-117.854C41.855,363.126,7.354,254.182,6.865,252.75
	c-3.971-12.015-6.274-19.022-6.859-21.064c-0.4-1.399,14.023-2.362,21.115-2.888c2.346-0.173,68.451-9.508,105.923-17.174
	c35.939-7.381,70.819-15.641,104.799-24.829c20.237-5.472,73.473-30.066,109.506-46.712c6.865-3.171,13.521-6.037,19.919-8.655l0,0
	c0.979,0.469,1.979,0.895,2.971,1.346c7.619,3.487,17.595,7.75,24.628,0.746c8.866-14.335,13.643-22.054,14.136-22.934l5.545-9.598
	c1.668-2.729,6.027-3.35,13.425-1.968l4.312,0.725h-0.001c7.267,0,13.145-5.519,13.145-12.339l0.055-0.124
	c4.587-8.034,132.453-31.95,185.434-41.862c10.639-1.99,21.278-4.028,31.729-6.858c12.023-3.256,60.681-12.341,74.564-14.443
	C793.162,14.837,881.759,5.67,925.198,3.33c32.48-1.749,68.375-3.682,97.529-3.276c37.51,0.523,66.445,0.816,86.801,0.949
	c16.17,0.097,26.994,0.214,32.549,0.283c75.924,0.95,195.746,2.449,227.674,6.809l23.227,3.171
	c8.008,1.055,15.057,4.201,21.305,9.306c8.621,7.095,9.271,9.89,10.006,19.919c0.852,12.343-5.816,34.068-20.062,65.101
	c-9.818,21.41-15.82,34.593-17.779,39.353c-5.572,13.217-21.51,45.562-47.814,97.035c-22.971,44.871-47.641,78.996-91.652,118.555
	c-20.699,18.604-100.914,81.01-151.98,120.738c-22.287,17.339-42.428,32.17-60.424,44.494
	c-23.68,16.215-46.586,33.508-69.244,51.109c-21.045,16.348-87.146,62.67-131.092,93.471
	c-55.486,38.885-142.083,99.572-172.271,107.611c-3.559,0.947-10.124,2.697-10.688,2.783c-25.944,3.979-41.848,4.125-108.335,1.062
	c-32.816-1.457-68.977-3.607-108.484-6.311c-57.831-3.904-101.155-6.754-130.053-8.488c-21.798-1.295-43.596-2.582-65.389-3.955
	c-23.789-1.498-47.686-2.381-71.437-4.35c-4.225-0.349-8.958-0.211-13.075-0.744c-4.015-0.521-5.466-3.525-5.344-7.043h0.006
	c-2.031-8.811-12.938-15.526-26.104-15.526c-1.447,0.457-2.886,0.823-4.308,1.069c-0.108-0.435-2.998,0.794-3.235,0.941
	c-1.081,0.668-2.019,1.639-2.724,2.688c-2.547,3.796-1.945,8.343-1.945,12.659c0,17.221-13.96,31.181-31.181,31.181
	c-17.22,0-31.181-13.96-31.181-31.181c0-17.22,13.961-31.18,31.181-31.18c4.242,0,7.995,0.843,11.895-1.396
	c2.561-1.47,5.348-4.361,5.037-7.618c-0.21-2.208-0.312-4.568-0.232-7.008c0.21-11.354,4.73-28.672,13.343-51.936
	c1.632-4.377,3.452-9.082,5.441-14.067c0-19.173-9.428-34.688-21.079-34.688L94.515,604.583z"/>
</svg>
