<?xml version="1.0" encoding="utf-8"?>
<!-- Generator: Adobe Illustrator 16.0.0, SVG Export Plug-In . SVG Version: 6.00 Build 0)  -->
<!DOCTYPE svg PUBLIC "-//W3C//DTD SVG 1.1//EN" "http://www.w3.org/Graphics/SVG/1.1/DTD/svg11.dtd">
<svg version="1.1" id="Layer_1" xmlns="http://www.w3.org/2000/svg" xmlns:xlink="http://www.w3.org/1999/xlink" x="0px" y="0px"
	 width="838.957px" height="629.028px" viewBox="0 0 838.957 629.028" enable-background="new 0 0 838.957 629.028"
	 xml:space="preserve">
<path fill="none" stroke="#000000" stroke-linejoin="round" stroke-miterlimit="10" d="M419.237,629.026
	c0,0,77.996-4.082,152.974-27.162c53.803-16.562,117.953-42.125,130.949-47.143c12.994-5.014,19.977-22.018,19.977-22.018
	s94.768-220.104,108.742-243.123c13.977-23.013,2.949-48.001,2.949-48.001S808.679,102.61,801.65,75.618
	c-7.028-26.994-33.021-16.965-33.021-16.965s-83.977,24.088-175.945,51.187c-91.971,27.099-173.96,36.183-173.96,36.183l-2.25,0.003
	c0,0-82.01-8.912-174.04-35.816C150.406,83.312,66.382,59.4,66.382,59.4s-26.01-9.972-32.982,17.034
	C26.428,103.443,4.084,242.468,4.084,242.468s-10.974,25.01,3.051,47.996c14.022,22.985,105.75,242.886,105.75,242.886
	s7.019,16.994,20.022,21.979c13.006,4.986,77.212,30.414,131.052,46.861c75.021,22.922,153.026,26.838,153.026,26.838
	L419.237,629.026z"/>
</svg>
