<?xml version="1.0" encoding="utf-8"?>
<!-- Generator: Adobe Illustrator 16.0.0, SVG Export Plug-In . SVG Version: 6.00 Build 0)  -->
<!DOCTYPE svg PUBLIC "-//W3C//DTD SVG 1.1//EN" "http://www.w3.org/Graphics/SVG/1.1/DTD/svg11.dtd">
<svg version="1.1" id="Layer_1" xmlns="http://www.w3.org/2000/svg" xmlns:xlink="http://www.w3.org/1999/xlink" x="0px" y="0px"
	 width="858.961px" height="442.86px" viewBox="0 0 858.961 442.86" enable-background="new 0 0 858.961 442.86"
	 xml:space="preserve">
<path d="M580.019,351.807c16.614-12.574,32.55-25.801,47.731-39.65c63.43-57.715,102.179-93.807,116.069-108.381
	c44.812-46.644,63.083-68.086,98.827-140.82l7.824-19.596c5.896-13.627,8.759-22.719,8.47-27.172
	c-0.165-4.559-2.079-8.088-5.64-10.768c-3.938-3.029-18.271-5.187-20.476-5.382c-7.298-0.417-35.243,2.656-49.53,5.161
	c-19.463,3.491-61.717,9.295-126.828,17.133c-53.92,6.62-112.51,15.362-175.915,26.19c-50.467,8.583-76.074,13.004-77.192,13.281
	c-21.683,5.302-70.894,24.033-147.597,56.036C227.329,129.711,162.6,154.961,61.4,193.482
	C27.796,206.34,8.901,215.107,4.754,219.919c-3.747,4.341-5.362,9.19-4.551,14.554c0.498,4.402,2.708,8.23,6.457,11.68
	c10.415,9.658,24.94,16.326,37.058,23.502c16.946,10.037,34.254,19.424,51.486,28.949c9.917,5.48,20.963,8.438,31.122,13.41
	c14.163,6.934,28.062,15.035,42.259,22.172c14.463,7.271,28.77,14.854,42.958,22.648c8.75,4.811,17.454,9.703,26.118,14.668
	c24.141,13.895,50.014,26.688,77.667,38.303c29.243,12.334,47.062,19.561,53.708,21.846c16.457,5.637,27.979,9.012,34.385,10.021
	c28.055,4.838,49.062-4.973,93.625-31.377C513.693,400.522,541.268,380.999,580.019,351.807"/>
</svg>
