<?xml version="1.0" encoding="utf-8"?>
<!-- Generator: Adobe Illustrator 16.0.0, SVG Export Plug-In . SVG Version: 6.00 Build 0)  -->
<!DOCTYPE svg PUBLIC "-//W3C//DTD SVG 1.1//EN" "http://www.w3.org/Graphics/SVG/1.1/DTD/svg11.dtd">
<svg version="1.1" id="Layer_1" xmlns="http://www.w3.org/2000/svg" xmlns:xlink="http://www.w3.org/1999/xlink" x="0px" y="0px"
	 width="1770.625px" height="763.131px" viewBox="0 0 1770.625 763.131" enable-background="new 0 0 1770.625 763.131"
	 xml:space="preserve">
<path fill="none" stroke="#000000" stroke-linejoin="round" stroke-miterlimit="10" d="M251.353,182.451
	c-3.385,19.656,9.434,38.16,28.584,41.472c19.151,3.384,37.512-9.864,40.896-29.448c3.386-19.584-9.433-38.16-28.654-41.472
	C273.024,149.691,254.735,162.867,251.353,182.451L251.353,182.451z M1473.262,368.93c6.625,20.521,28.943,31.684,49.754,24.912l0,0
	l38.447-12.457l0,0c20.812-6.768,32.328-28.872,25.703-49.318l0,0l0,0l0,0c-6.623-20.521-28.943-31.682-49.752-24.912l0,0
	l-38.447,12.385l0,0C1478.158,326.306,1466.639,348.411,1473.262,368.93L1473.262,368.93L1473.262,368.93L1473.262,368.93z
	 M1066.533,658.444L1256.4,763.131l74.377-184.221c-0.104-0.062,2.425-1.749,2.67-1.851c1.216-0.492,2.562-0.896,3.604-0.095
	c0.146,0.114,0.29,0.253,0.425,0.419c0.716,0.884,0.903,2.147,1.309,3.187c0.554,1.412,1.16,2.809,1.859,4.16
	c2.58,4.985,6.436,9.344,11.253,12.267c4.676,2.837,10.804,4.475,16.289,4.475c17.22,0,31.18-13.96,31.18-31.181
	c0-17.22-13.96-31.18-31.18-31.18c-5.619,0-10.892,1.484-15.445,4.088c0.001,0.002-9.361,4.509-9.361,4.509l-3.644,1.457
	c-2.461,0.345-5.968-0.765-7.891-2.271c-7.467-5.847-10.24-20.081-2.7-26.909l153.482-61.411l279-83.736l5.832-2.376l3.168-2.809
	l-4.465-5.543l-12.959-6.984l-285.697-124.416l-6.769-3.889l-5.903-5.039l-17.136-21.961l0,0c0,0-4.177-3.384-7.578-3.313
	c-3.385,0.073-11.949,6.769-11.949,6.769l0,0l-140.11,74.52l-20.021,53.424l0,0c0,0-4.68,11.376-9.574,8.496
	c-4.969-2.88,0.287-13.536,0.287-13.536s19.295-41.256,20.664-45.144c1.295-3.816-0.068-7.416-0.068-7.416l0,0l-15.268-17.496
	l-217.584-9.217l-12.24,12.097l0,0c0,0,4.972-13.32,1.584-17.28c-3.38-3.96-3.524-10.8-3.524-10.8l0,0l6.051-42.912l0,0
	c0,0,1.438-4.464-1.656-9.792c-3.167-5.256-7.771-6.048-7.771-6.048l0,0l-118.011-41.328L743.174,86.618l0,0
	c0,0-27.505,29.737-29.811,31.392c-2.299,1.656-9.646,1.08-9.646,1.08l0,0l-50.396-1.944l0,0c0,0-6.769,0.145-10.942,0.793
	c-4.178,0.647-6.12,7.703-6.12,7.703l0,0l-35.562,53.424l0,0c0,0-3.527,4.824-2.377,5.688c1.225,0.864,7.702,2.664,7.702,2.664l0,0
	l220.461,29.521l0,0c0,0,75.887,9.504,75.312,12.743c-0.575,3.312-75.812-7.92-75.812-7.92l0,0l-247.104-30.239l-20.881-23.904l0,0
	c0,0-3.743-2.017-7.416-3.961c-3.745-2.015-11.521-1.943-11.521-1.943l0,0l-93.235-12.672l-80.932-12.168l0,0
	c0,0-7.485-0.936-12.021,0.792c-4.535,1.655-8.566,5.903-8.566,5.903l0,0l-10.367,9.072l0,0c0,0-12.741,3.168-18.069-1.152
	c-5.327-4.248-0.218-14.256-0.218-14.256l0,0l33.551-37.439l0,0c0,0,5.257-3.168,9.862-6.408c4.61-3.313,12.603-2.592,12.603-2.592
	s9.217-0.073,25.128-0.432c82.942,1.512,308.735,18.216,308.735,18.216s17.207-33.912,6.84-36.864
	C650.88,54.291,465.84,31.322,465.84,31.322l0,0L250.057,0.074l0,0c0,0-6.048-0.359-8.928,0.505c-2.81,0.864-4.32,5.327-4.32,5.327
	s-6.19,8.424-11.304,10.944c-5.187,2.448-13.896,5.688-13.896,5.688l0,0L70.344,65.162l0,0c0,0-6.697-0.505-20.808,10.584
	C35.496,86.834,30.815,98.21,30.815,98.21l0,0L1.008,149.259L0,155.163l4.824,3.527l0,0c0,0,35.062,16.199,58.752,27.72
	c23.76,11.52,51.624,38.016,51.624,38.016l0,0L223.848,331.85l151.488,135.359L550.367,611.5l29.31,21.964l0,0
	c0,0,8.351,6.837,13.606,7.775c5.256,0.857,21.455-3.102,21.455-3.102l0,0l29.019-7.129l262.438-73.367l255.385-76.393l0,0
	c0,0,36-12.959,37.653-6.84c1.584,6.125-31.896,15.479-31.896,15.479l0,0l-291.744,97.488l0,0c0,0-9.645,1.943-9.067,6.336
	c0.501,4.322,6.979,5.689,6.979,5.689l0,0l126.502,46.801l0,0c0,0,6.912,2.807,10.943,2.879c3.959,0.072,11.881-3.24,11.881-3.24
	l0,0l3.883-1.593c6.995-1.559,12.75-1.631,19.021,2.11c5.549,3.309,11.219,6.444,16.809,9.691
	C1063.879,656.827,1065.142,657.784,1066.533,658.444z"/>
</svg>
