<?xml version="1.0" encoding="utf-8"?>
<!-- Generator: Adobe Illustrator 16.0.0, SVG Export Plug-In . SVG Version: 6.00 Build 0)  -->
<!DOCTYPE svg PUBLIC "-//W3C//DTD SVG 1.1//EN" "http://www.w3.org/Graphics/SVG/1.1/DTD/svg11.dtd">
<svg version="1.1" id="Layer_1" xmlns="http://www.w3.org/2000/svg" xmlns:xlink="http://www.w3.org/1999/xlink" x="0px" y="0px"
	 width="2030.984px" height="617.396px" viewBox="0 0 2030.984 617.396" enable-background="new 0 0 2030.984 617.396"
	 xml:space="preserve">
<path fill="none" stroke="#000000" stroke-linejoin="round" stroke-miterlimit="10" d="M2008.776,159.354
	C1906.884,108.055,1797.574,58.85,1688.198,9.667c-23.374-11.354-43.268-12.704-59.381-4.063
	c-288.948,85.979-577.757,171.915-866.546,257.92c-32.438,9.144-64.769,18.405-97.203,27.549
	c-19.521,2.374-37.223,1.791-43.167-19.58c5.641-14.421,2.926-26.614-8.072-36.599c-28.875-16.609-57.883-33.404-86.777-50.083
	c-15.473-6.374-29.172-8.395-38.844-0.577c-12.504,18.831-35.421,23.889-63.044,22.849c-15.796-12.67-31.262-14.306-46.771-11.116
	c-84.048,42.674-168.146,85.439-252.24,128.202c-19.948,9.65-33.766,24.141-48.275,38.087
	c-27.396,23.565-20.931,35.229,1.035,41.438c65.522,15.896,130.953,31.743,196.364,47.521c31.796,4.146,62.201,3.438,90.813-4.174
	c47.941-13.839,89.807-13.725,127.481-4.067c33.624,7.195,67.296,14.309,100.831,21.454
	c263.717,49.101,527.207,98.188,790.809,147.396c41.567,12.312,79.578,3.438,116.479-18.791
	c185.658-127.229,357.118-259.857,519.824-398.791C2037.488,180.15,2033.26,168.416,2008.776,159.354z M385.262,323.599
	c-3.772,21.076-24.048,35.113-45.104,31.408l-33.338-6.005c-20.988-3.728-35.166-23.958-31.32-45.058
	c3.727-20.988,23.958-35.163,44.897-31.347l33.477,5.963C374.93,282.266,388.989,302.61,385.262,323.599z M1589.495,108.072
	c-19.272,5.158-39.154-6.35-44.455-25.584c-5.021-19.318,6.396-39.25,25.726-44.498c19.246-5.001,39.182,6.418,44.34,25.693
	C1620.26,82.96,1608.754,102.844,1589.495,108.072z"/>
</svg>
