<?xml version="1.0" encoding="utf-8"?>
<!-- Generator: Adobe Illustrator 16.0.0, SVG Export Plug-In . SVG Version: 6.00 Build 0)  -->
<!DOCTYPE svg PUBLIC "-//W3C//DTD SVG 1.1//EN" "http://www.w3.org/Graphics/SVG/1.1/DTD/svg11.dtd">
<svg version="1.1" id="Layer_1" xmlns="http://www.w3.org/2000/svg" xmlns:xlink="http://www.w3.org/1999/xlink" x="0px" y="0px"
	 width="1971.205px" height="617.396px" viewBox="0 0 1971.205 617.396" enable-background="new 0 0 1971.205 617.396"
	 xml:space="preserve">
<path d="M1948.997,159.353c-101.893-51.299-211.201-100.504-320.578-149.687c-23.373-11.354-43.267-12.704-59.381-4.063
	c-288.947,85.979-577.757,171.915-866.546,257.92c-32.438,9.144-64.768,18.405-97.203,27.549
	c-19.52,2.374-37.222,1.791-43.167-19.58c5.642-14.421,2.927-26.614-8.071-36.599c-28.875-16.609-57.884-33.404-86.777-50.083
	c-15.473-6.374-29.172-8.395-38.844-0.577c-12.504,18.831-35.421,23.889-63.044,22.849c-15.796-12.67-31.263-14.306-46.771-11.116
	c-84.048,42.674-168.146,85.439-252.24,128.202c-19.948,9.649-33.766,24.142-48.274,38.087
	c-27.396,23.564-20.932,35.229,1.034,41.438c65.522,15.896,130.953,31.743,196.364,47.521c31.796,4.146,62.201,3.438,90.813-4.174
	c47.94-13.839,89.807-13.725,127.48-4.067c33.624,7.195,67.297,14.309,100.831,21.454c263.718,49.101,527.207,98.188,790.81,147.396
	c41.566,12.312,79.578,3.438,116.479-18.791c185.658-127.229,357.118-259.857,519.824-398.791
	C1977.71,180.149,1973.481,168.415,1948.997,159.353z M325.483,323.599c-3.772,21.075-24.048,35.112-45.105,31.407l-33.338-6.005
	c-20.988-3.729-35.165-23.958-31.319-45.058c3.727-20.988,23.958-35.163,44.897-31.347l33.477,5.963
	C315.151,282.265,329.211,302.609,325.483,323.599z M1529.717,108.071c-19.272,5.158-39.154-6.35-44.455-25.584
	c-5.021-19.318,6.396-39.25,25.726-44.498c19.246-5.001,39.182,6.418,44.34,25.693
	C1560.481,82.959,1548.974,102.843,1529.717,108.071z"/>
</svg>
