<?xml version="1.0" encoding="utf-8"?>
<!-- Generator: Adobe Illustrator 16.0.0, SVG Export Plug-In . SVG Version: 6.00 Build 0)  -->
<!DOCTYPE svg PUBLIC "-//W3C//DTD SVG 1.1//EN" "http://www.w3.org/Graphics/SVG/1.1/DTD/svg11.dtd">
<svg version="1.1" id="Layer_1" xmlns="http://www.w3.org/2000/svg" xmlns:xlink="http://www.w3.org/1999/xlink" x="0px" y="0px"
	 width="1174.518px" height="760.543px" viewBox="0 0 1174.518 760.543" enable-background="new 0 0 1174.518 760.543"
	 xml:space="preserve">
<path fill="none" stroke="#000000" stroke-linejoin="round" stroke-miterlimit="10" d="M1173.652,754.071
	c-0.709-0.681-1.463-0.994-2.055-0.933c-0.812,0.109-1.766-0.381-2.277-0.887c-0.312-0.332-0.504-0.576-1.336-1.414
	c-0.76-0.828-2.24-2.266-6.938-6.232c-4.695-3.973-12.771-10.432-27.359-22.407c-14.582-12.058-35.699-29.562-52.826-43.771
	c-17.047-14.27-29.963-25.229-37.938-32.328c-7.984-7.102-11.037-10.342-14.412-14.428c-3.455-4.021-7.234-8.887-10.912-13.959
	c-3.682-5.068-7.258-10.344-10.377-15.268c-3.107-4.99-5.834-9.57-9.652-17.933c-3.883-8.438-8.908-20.807-13.244-31.268
	c-4.396-10.543-8.021-19.238-11.717-28.021c-3.619-8.766-7.369-17.623-10.844-24.77c-3.463-7.223-6.566-12.795-9.854-18.105
	c-3.28-5.307-6.596-10.396-9.65-14.662c-2.99-4.25-5.729-7.668-8.576-10.811c-2.838-3.215-5.725-6.072-11.961-11.555
	c-6.312-5.498-15.9-13.611-27.979-23.229c-12.077-9.604-26.562-20.771-41.846-32.485c-15.354-11.721-31.498-24.057-43.688-33.392
	c-12.181-9.406-20.336-15.729-36.868-28.408c-16.466-12.669-41.371-31.699-66.3-50.587l-0.149,0.052
	c-15.486-11.811-30.978-23.623-42.781-32.543c-11.879-8.929-20.064-15.04-25.184-19.141c-5.045-4.089-7.029-6.1-8.632-7.695
	c-1.604-1.595-2.834-2.705-8.854-8.742c-5.947-6.028-16.703-16.841-23.771-24.255c-7.149-7.351-10.625-11.231-13.938-14.726
	c-3.301-3.566-6.351-6.81-8.334-8.818c-1.912-2-2.823-2.776-4.347-4.433c-1.521-1.657-3.812-4.071-7.311-7.809
	c-3.572-3.676-8.436-8.614-13.661-14.037c-5.157-5.414-10.681-11.384-22.179-23.169c-11.415-11.846-28.795-29.577-39.588-40.104
	c-10.723-10.519-14.859-13.762-17.146-15.667c-2.367-1.843-2.964-2.286-4.136-3.314c-1.25-0.967-3.062-2.59-6.153-4.458
	c-3.021-1.858-7.311-4.031-12.356-6.452c-4.979-2.411-10.795-5.08-15.646-7.401c-4.781-2.239-8.657-4.211-19.729-9.4
	c-11.003-5.18-29.2-13.578-39.562-18.091c-10.362-4.513-12.969-5.153-14.724-5.605c-1.837-0.392-2.889-0.678-3.652-0.926
	c-0.85-0.188-1.396-0.405-2.553-0.487c-1.158-0.01-2.911,0.045-4.191,0.962c-1.356,0.908-2.319,2.667-3.144,4.447
	c-0.748,1.787-1.496,3.577-1.974,4.965c-0.561,1.451-0.996,2.554-2.18,5.954c-1.191,3.474-3.188,9.162-4.303,12.574
	c-1.04,3.419-1.245,4.409-1.886,7.011c-0.647,2.674-1.724,6.889-2.659,10.613c-1.015,3.787-1.976,7.146-3.054,11.94
	c-1.066,4.724-2.352,11.017-4.062,15.146c-1.786,4.12-4.026,6.215-11.983,11.905c-7.966,5.761-21.719,15.176-35.492,24.152
	c-13.771,8.978-27.627,17.509-38.282,23.272c-23.041,12.611-47.946,16.522-73.892,16.896c-6.841,0.1-9.296-0.011-11.697,0.029
	c-3.707,0.012-7.129,0.062-11.254-0.056c-2.751-0.078-5.865-0.133-8.555-0.128c-2.682-0.07-5.021,0.052-13.352-0.121
	c-8.4-0.181-22.752-0.436-37.125-1.056l-9.105-0.349c-7.649-0.373-15.27-0.449-20.34-0.548c-5.072-0.099-7.545-0.068-9.867-0.089
	c-2.242-0.082-4.41-0.156-8.181-0.225c-3.775,0.002-9.172,0.15-13.061,0.428c-3.958,0.268-6.267,0.685-8.005,1.179
	c-3.481,1.06-4.55,2.517-5.501,4.205c1.664,6.543,4.314,12.782,9.385,21.017c5.07,8.236,12.625,18.546,18.908,26.943
	c6.203,8.459,11.38,14.822,16.16,21.418c23.885,33.713,50.573,67.076,68.01,88.739c15.944,19.791,24.592,29.521,29.654,35.649
	c4.99,6.114,6.396,8.631,13.561,16.419c71.645,77.906,150.372,148.783,227.798,220.796c30.131,28.021,60.074,56.242,90.408,84.043
	c12.162,11.146,16.133,14.584,21.604,19.314c5.456,4.801,12.426,10.815,18.264,16.03c5.848,5.146,10.508,9.398,14.55,12.853
	c4.104,3.524,7.525,6.164,9.833,7.928c2.314,1.691,3.519,2.504,4.846,3.41c1.271,0.822,2.604,1.729,3.524,2.434
	c0.931,0.636,1.374,1.133,3.276,2.111c1.896,0.979,5.188,2.438,8.021,3.545c2.822,1.178,5.104,2.064,7.562,2.686
	c2.521,0.699,5.147,1.128,9.021,1.503c3.864,0.44,8.896,0.829,13.36,1.143c4.382,0.371,8.271,0.602,13.593,1.02
	c5.389,0.438,12.219,0.986,24.516,1.906c12.224,0.986,29.896,2.41,41.841,3.285c11.938,0.877,18.073,1.189,26.81,1.635
	c8.791,0.523,20.039,1.16,28.475,1.642c8.354,0.534,13.742,0.975,16.995,1.112c8.438,0.172,8.938-6.178,5.735-12.448
	c-0.964-2.021-2.273-4.15-5.38-8.644c-3.095-4.555-7.987-11.385-11.56-16.223c-3.489-4.826-5.653-7.66-7.991-10.812
	c-2.408-3.151-5.007-6.555-6.392-8.698c-1.455-2.154-1.697-3.062-1.886-3.812c-0.267-1.268-0.644-2.26,0.473-3.051
	c3.312-2.355,14.414,11.021,17.062,13.684c4.675,4.693,8.807,9.105,11.866,12.271c3.062,3.172,5.057,5.104,9.069,9.276
	c4.02,4.173,10.066,10.505,13.489,14.23c3.495,3.733,4.289,4.854,5.243,5.854c0.957,1,2.003,1.865,2.598,2.312
	c0.598,0.438,0.736,0.461,1.004,0.643c0.194,0.179,0.518,0.511,1.912,0.91c1.473,0.416,3.948,0.896,10.726,1.293
	c6.703,0.394,17.569,0.611,24.307,0.791c11.973,0.295,23.765-0.412,35.765,0.361c6.27,0.404,10.36,0.729,35.358,1.764
	c24.983,1.103,70.939,3.482,116.854,4.56c23.467,0.526,46.424,1.062,70.674,1.7c14.478,0.416,29.607,0.771,37.877,0.863
	c8.197,0.084,9.609-0.164,12.959-0.223c3.277-0.07,8.506-0.021,13.697,0.233l7.354,0.404c3.465,0.172,7,0.355,9.316,0.377
	c2.396,0.031,3.641-0.02,4.652-0.022c1.091,0,1.944,0.106,2.444,0.182c0.562,0.146,0.756,0.318,1.021,0.5
	c0.192,0.174,0.53,0.361,1.163,0.521c0.646,0.084,1.66,0.072,2.615-0.018c0.948-0.018,1.771-0.197,2.392-0.479
	c0.688-0.271,1.188-0.713,1.547-1.245c0.438-0.521,0.733-1.138,0.887-1.695C1174.697,756.026,1174.546,754.989,1173.652,754.071z
	 M647.13,336.809c-0.072,0.194-0.146,0.388-0.225,0.579c-3.021,7.596-8.394,14.439-13.592,20.673
	c-2.938,3.527-5.961,6.537-8.736,8.853c-2.779,2.315-5.4,3.998-8.602,5.604c-3.266,1.598-7.039,3.196-10.812,4.287
	c-3.788,1.163-7.527,1.97-10.701,2.343c-3.175,0.372-5.791,0.387-8.29,0.051c-13.896-1.853-20.32-14.076-21.7-26.781
	c-0.375-3.451-0.553-7.017-0.439-10.487c0.117-3.595,0.57-7.3,1.351-10.812c1.32-5.995,4.257-11.55,7.065-16.958
	c2.544-4.89,5.382-10.322,7.983-14.042c17.798-25.41,66.16-15.25,68.417,17.457C649.281,323.858,649.342,330.811,647.13,336.809z"/>
</svg>
