<?xml version="1.0" encoding="utf-8"?>
<!-- Generator: Adobe Illustrator 16.0.0, SVG Export Plug-In . SVG Version: 6.00 Build 0)  -->
<!DOCTYPE svg PUBLIC "-//W3C//DTD SVG 1.1//EN" "http://www.w3.org/Graphics/SVG/1.1/DTD/svg11.dtd">
<svg version="1.1" id="Layer_1" xmlns="http://www.w3.org/2000/svg" xmlns:xlink="http://www.w3.org/1999/xlink" x="0px" y="0px"
	 width="1479.297px" height="860.282px" viewBox="0 0 1479.297 860.282" enable-background="new 0 0 1479.297 860.282"
	 xml:space="preserve">
<path fill="none" stroke="#000000" stroke-linejoin="round" stroke-miterlimit="10" d="M1094.152,797.372
	c11.907,0.35,18.613,0.545,18.613,0.545s13.723,0.303,13.77-5.852 M1126.088,754.405c-0.109-0.006-0.221-0.014-0.329-0.023
	c-7.968-0.736-16.739-7.754-16.739-7.754c-9.07-8.707-55.562-59.979-64.097-71.299c-8.521-11.318-12.315-22.498-12.315-22.498
	s-7.959-20.566-35.402-81.475c-29.006-64.371-95.872-189.646-159.144-287.675C774.787,185.652,624.783,48.027,585.038,18.259
	c-7.759-5.81-11.907-9.892-13.562-12.7 M412.362,163.464c59.51,31.274,146.877,80.05,234.348,139.164
	C801.66,407.357,930.386,524.815,930.386,524.815c11.373,9.414,17.461,26.92,17.461,26.92s24.561,56.984,35.153,79.838
	c0.946,2.039,1.778,3.803,2.468,5.23c8.487,17.482,10.108,32.076,42.069,67.27c29.721,32.723,57.557,52.516,82.429,70.832"/>
</svg>
