<?xml version="1.0" encoding="utf-8"?>
<!-- Generator: Adobe Illustrator 16.0.0, SVG Export Plug-In . SVG Version: 6.00 Build 0)  -->
<!DOCTYPE svg PUBLIC "-//W3C//DTD SVG 1.1//EN" "http://www.w3.org/Graphics/SVG/1.1/DTD/svg11.dtd">
<svg version="1.1" id="Layer_1" xmlns="http://www.w3.org/2000/svg" xmlns:xlink="http://www.w3.org/1999/xlink" x="0px" y="0px"
	 width="1527.988px" height="896.104px" viewBox="0 0 1527.988 896.104" enable-background="new 0 0 1527.988 896.104"
	 xml:space="preserve">
<path fill="none" stroke="#000000" stroke-linejoin="round" stroke-miterlimit="10" d="M865.984,505.346
	c-11.901-15.422-25.396-29.497-38.871-43.539c-20.256-21.109-50.859-53.013-61.687-62.438
	c-23.016-20.044-44.457-41.81-67.139-62.222c-15.943-14.354-32.175-28.395-48.958-41.759c-14.061-11.197-27.932-22.63-41.938-33.891
	c-9.437-7.583-32.902-25.425-49.455-38.008c-11.479-8.726-28.979-22.029-35.043-25.352c-2.146-1.175-5.112-2.802-7.087-4.292
	c-2.169-1.435-3.442-2.707-4.186-3.605c-0.578-0.891-0.589-1.473-0.599-2.053c0.113-0.511,0.267-1.085,0.736-1.647
	c0.506-0.626,1.329-1.078,3.068-1.109c1.681-0.066,4.265,0.611,9.131,1.47c68.747,12.137,138.01,21.057,206.995,31.7
	c10.206,1.573,29.089,4.491,30.633,4.628c2.235,0.198,5.009,0.445,6.589,1.311c1.198,0.657,2.935,1.688,4.705,3.398
	c3.396,3.275,6.146,7.131,9.269,10.658c13.619,15.403,25.608,32.146,36.45,49.603c12.359,19.903,22.964,40.864,31.188,62.809
	c3.366,8.987,7.581,21.229,10.966,31.538c5.681,17.304,10.06,35.013,15.857,52.279c2.992,8.904,11.479,41.521,16.896,62.371
	c1.722,6.604,4.142,15.978,5.757,22.771c1.396,5.904,3.375,14.214,3.518,17.854c0.094,2.317-1.021,4.669-3.268,5.518
	c-2.107,0.795-5.904-3.479-8.188-6.044C886.046,531.338,874.292,516.109,865.984,505.346L865.984,505.346 M1103.423,798.712
	c-12.932-12.426-25.279-25.619-34.578-41.026c-2.266-3.755-5.889-10.088-10.637-20.439c-10.812-23.587-19.049-48.238-28.922-72.215
	c-12.385-30.078-25.369-59.902-38.408-89.7c-2.787-6.357-4.111-9.584-7.428-16.902c-20.898-46.132-43.438-91.494-66.117-136.771
	c-20.242-40.411-42.857-79.564-66.221-118.242c-5.222-8.638-13.185-21.794-30.451-44.981c-17.31-23.126-43.922-56.283-57.537-73.199
	c-13.609-16.916-14.25-17.688-14.95-18.495c-1.869-1.963-3.644-3.952-5.564-6.109c-3.735-4.083-8.145-8.879-12.369-13.406
	c-2.085-2.165-3.888-4.251-5.325-5.807c-1.349-1.419-2.237-2.333-2.912-3.044c-1.368-1.678-2.239-2.333-3.269-3.738
	c-0.765-0.844-1.562-1.624-5.459-5.717c-3.929-4.028-10.823-11.298-15.304-15.966c-4.514-4.605-6.536-6.735-8.712-9.035
	c-2.236-2.334-4.634-4.837-6.896-7.27c-2.303-2.369-4.45-4.57-5.925-6.061c-1.351-1.419-2.084-2.166-3.688-3.728
	c-1.997-2.031-5.409-5.357-8.459-8.312c-3.873-3.833-7.713-7.728-10.568-10.577c-2.982-2.918-4.927-4.755-7.826-7.379
	c-2.775-2.553-6.484-5.8-9.146-8.121c-2.692-2.259-4.238-3.626-5.818-4.928l-3.491-3.04c-3.835-3.315-7.602-6.756-9.974-9
	c-2.371-2.243-3.315-3.354-4.183-4.169c-1.812-1.765-3.067-2.471-4.464-4.249c-0.692-0.968-1.409-2.197-2.024-3.453
	c-1.029-1.984-2.166-3.781-2.893-5.428c-1.361-3.162-1.706-5.338-1.562-7.651c0.369-3.595,2.113-6.989,5.38-10.44
	c4.391,1.896,8.222,4.614,13.062,5.2c9.285,1.124,18.158-2.55,26.822-5.306c24.648,8.751,49.259,17.729,65.372,23.741
	c16.018,6.041,23.604,9.153,33.631,13.062c9.966,3.874,22.212,8.537,33.575,12.865c11.324,4.394,21.541,8.407,51.709,19.687
	c30.207,11.218,80.212,29.532,109.423,40.023c71.059,25.525,141.623,52.439,213.021,77.021
	c15.127,5.208,29.698,11.971,45.028,16.586c14.198,4.274,28.366,8.614,39.061,11.492c10.59,2.904,17.609,4.377,24.633,5.851
	c3.065,0.642,4.115,5.941,4.819,9.488c1.429,7.188-3.97,16.1,2.089,21.831c2.625,2.481,6.696,1.992,9.09-0.586
	c4.308-4.641,6.955-10.723,11.879-14.795c2.748-2.271,5.966-4.069,9.563-4.367c2.943-0.241,7.59-0.271,12.547-0.125
	c20.912,0.618,41.854,0.626,62.722-1.05c8.222-0.661,19.228-1.571,26.196-2.358c6.244-0.706,12.354-2.621,18.664-2.631
	c3.209-0.006,6.771-0.012,9.396,1.654c5.938,3.766,7.535,12.57,14.481,14.928c4.522,1.535,10.979-0.272,16.271-1.75
	c2.229-0.624,4.967-1.391,6.86-0.598c2.938,1.227,5.862,2.745,7.832,5.316c1.663,2.177,3.967,5.869,6.691,10.71
	c9.722,17.245,20.91,37.091,30.979,50.65l4.326,5.82c2.938,3.958,8.193,11.039,8.596,12.028c1.074,2.659,3.22,7.978,0.812,8.389
	c-37.938,6.49-75.709,14.729-100.9,21.616c-25.256,6.853-37.91,12.454-50.684,17.825c-12.743,5.466-25.543,10.738-35.5,16.536
	c-9.893,5.834-16.941,12.194-22.889,19.091c-6.109,6.889-11.179,14.282-15.539,22.321c-4.324,7.977-7.894,16.376-9.315,24.334
	c-1.521,7.98-0.892,15.522,0.69,22.693c1.547,7.231,4.185,14.004,7.676,20.271c3.4,6.292,7.826,12.085,12.932,17.104
	c0.955,1.529,1.683,3.18,2.271,4.916c1.518,5.23,1.062,10.593-1.407,15.565c-0.759,1.639-1.767,3.138-2.927,4.467
	c-5.189,13.77-10.469,27.404-14.412,37.494c-14.582,37.305-31.579,73.619-46.154,110.926c-2.066,5.279-2.762,6.955-3.896,9.704
	c-6.925,16.786-15.332,37.164-17.867,51.414c-0.531,3.004-1.133,6.715-1.578,10.594c-0.514,3.847-0.746,7.929-0.779,11.953
	c-0.061,6.107,0.183,12.253,1.65,18.2c1.051,4.242,0.604,8.979-2.562,12.188c-3.5,3.55-9.094,9.218-11.612,9.328
	c-1.847,0.084-7.275-2.248-10.773-3.753c-4.389-1.885-8.943-3.423-13.699-3.992c-4.104-0.488-7.561-0.367-11.271,0.354
	c-5.74,1.115-11.146,3.554-15.76,7.158c-2.951,2.306-5.289,5.282-7.343,8.344c-1.078,1.624-1.987,3.095-2.5,4.294
	c-1.121,2.643-2.424,5.701-5.069,6.812C1139.994,833.856,1116.601,811.377,1103.423,798.712 M1151.402,889.742
	c-0.692-0.693-1.439-1.029-2.033-0.979c-0.814,0.089-1.754-0.424-2.256-0.938c-0.312-0.341-0.489-0.588-1.306-1.445
	c-0.735-0.847-2.184-2.313-6.782-6.396c-4.603-4.084-12.517-10.732-26.812-23.062c-14.291-12.396-34.982-30.407-51.764-45.021
	c-16.7-14.68-29.353-25.939-37.159-33.229c-7.812-7.288-10.784-10.604-14.06-14.768c-3.358-4.104-7.021-9.062-10.576-14.221
	c-3.56-5.151-7.008-10.515-10.006-15.511c-2.99-5.062-5.604-9.709-9.226-18.155c-3.682-8.526-8.401-21.016-12.487-31.576
	c-4.146-10.646-7.562-19.427-11.041-28.285c-3.408-8.854-6.947-17.797-10.246-25.024c-3.289-7.302-6.26-12.949-9.412-18.333
	c-3.157-5.385-6.348-10.557-9.307-14.89c-2.891-4.32-5.544-7.808-8.312-11.018c-2.76-3.277-5.577-6.206-11.684-11.839
	c-6.179-5.646-15.568-13.984-27.412-23.886c-11.847-9.896-26.06-21.408-41.06-33.482c-15.065-12.085-30.912-24.804-42.871-34.428
	c-11.946-9.695-19.955-16.214-36.181-29.284c-16.152-13.059-40.599-32.682-65.062-52.161l-0.154,0.05
	c-15.199-12.179-30.398-24.358-41.989-33.561c-11.66-9.212-19.7-15.517-24.719-19.74c-4.943-4.209-6.881-6.267-8.442-7.899
	c-1.562-1.633-2.77-2.772-8.642-8.952c-5.801-6.168-16.293-17.237-23.183-24.818c-6.976-7.521-10.354-11.483-13.578-15.056
	c-3.216-3.645-6.188-6.96-8.12-9.016c-1.863-2.044-2.756-2.842-4.239-4.535c-1.479-1.693-3.713-4.161-7.115-7.981
	c-3.483-3.76-8.227-8.813-13.323-14.36c-5.025-5.536-10.399-11.637-21.611-23.693c-11.127-12.116-28.078-30.259-38.615-41.042
	c-10.466-10.772-14.526-14.114-16.77-16.073c-2.324-1.9-2.907-2.355-4.054-3.413c-1.228-0.997-3.004-2.663-6.051-4.604
	c-2.975-1.93-7.207-4.205-12.197-6.747c-4.92-2.53-10.671-5.337-15.462-7.773c-4.729-2.354-8.559-4.418-19.501-9.872
	c-10.875-5.442-28.866-14.273-39.118-19.034c-10.252-4.76-12.839-5.462-14.583-5.957c-1.824-0.437-2.87-0.747-3.629-1.013
	c-0.846-0.208-1.392-0.439-2.539-0.548c-1.16-0.038-2.912-0.025-4.221,0.861c-1.377,0.875-2.381,2.61-3.242,4.371
	c-0.791,1.769-1.582,3.54-2.094,4.917c-0.592,1.437-1.058,2.53-2.318,5.9c-1.274,3.443-3.408,9.083-4.603,12.467
	c-1.122,3.393-1.353,4.377-2.053,6.963c-0.716,2.658-1.89,6.845-2.912,10.546c-1.104,3.761-2.146,7.096-3.339,11.863
	c-1.187,4.697-2.613,10.958-4.429,15.044c-1.888,4.076-4.18,6.117-12.27,11.615c-8.102,5.568-22.078,14.65-36.062,23.294
	c-13.981,8.645-28.04,16.841-38.827,22.347c-10.8,5.578-18.399,8.454-25.284,10.498c-6.967,2.103-13.229,3.442-22.079,4.079
	c-8.779,0.65-20.071,0.609-26.914,0.544c-6.841-0.064-9.293-0.234-11.696-0.251c-3.706-0.077-7.126-0.109-11.248-0.326
	c-2.749-0.144-5.86-0.274-8.55-0.333c-2.677-0.134-5.019-0.068-13.344-0.441c-8.396-0.382-22.734-0.979-37.089-1.945l-9.097-0.567
	c-7.639-0.557-15.252-0.815-20.319-1.036c-5.068-0.22-7.542-0.248-9.862-0.325c-2.24-0.136-4.406-0.262-8.172-0.42
	c-3.777-0.089-9.174-0.07-13.066,0.115c-3.964,0.172-6.28,0.534-8.029,0.986c-3.509,0.974-4.609,2.404-5.604,4.069
	C1.5,267.592,4,273.893,8.871,282.247s12.176,18.844,18.255,27.389c5.999,8.606,11.021,15.089,15.646,21.799
	c23.066,34.276,48.951,68.27,65.863,90.343c15.465,20.167,23.876,30.102,28.79,36.35c4.844,6.234,6.188,8.781,13.163,16.739
	c6.905,7.947,19.513,21.318,60.738,63.357c29.983,30.572,60.062,61.06,90.16,91.519c15.801,15.989,31.611,31.968,47.433,47.937
	c18.914,19.097,36.969,38.646,56.83,56.812c14.307,13.082,28.492,26.283,42.358,39.831c4.42,4.314,8.843,8.635,13.287,12.93
	c11.892,11.438,15.776,14.969,21.133,19.828c5.341,4.929,12.161,11.112,17.873,16.466c5.723,5.281,10.278,9.648,14.237,13.193
	c4.018,3.625,7.377,6.345,9.641,8.161c2.275,1.747,3.454,2.59,4.764,3.522c1.25,0.854,2.561,1.791,3.465,2.521
	c0.916,0.651,1.349,1.162,3.228,2.188c1.877,1.027,5.134,2.564,7.938,3.738c2.792,1.244,5.048,2.185,7.489,2.863
	c2.506,0.762,5.125,1.251,8.987,1.717c3.854,0.537,8.874,1.044,13.329,1.457c4.371,0.476,8.257,0.8,13.562,1.351
	c5.378,0.562,12.189,1.277,24.463,2.493c12.189,1.277,29.83,3.127,41.746,4.288c11.918,1.161,18.041,1.622,26.761,2.271
	c8.774,0.736,20.007,1.646,28.427,2.321c8.339,0.739,13.718,1.301,16.964,1.523c3.186,0.14,4.227,0.015,4.921-0.239
	c0.758-0.172,1.229-0.389,1.652-0.76c0.362-0.452,0.748-1.047,0.969-1.522c0.35-0.815,0.438-1.389,0.469-2.04
	c0.011-0.509,0.471-0.649-0.02-2.626c-0.317-1.218-0.973-3.066-1.959-5.123c-0.916-2.04-2.178-4.208-5.171-8.767
	c-2.983-4.628-7.714-11.574-11.163-16.495c-3.375-4.908-5.471-7.793-7.732-10.994c-2.333-3.214-4.847-6.675-6.178-8.854
	c-1.402-2.191-1.623-3.104-1.794-3.857c-0.234-1.276-0.587-2.28,0.556-3.046c0.413-0.299,1.051-0.636,1.676-0.901
	c5.316,5.071,10.483,10.192,15.043,14.998c4.562,4.809,8.584,9.312,11.569,12.554c2.982,3.24,4.93,5.229,8.848,9.492
	c3.916,4.27,9.813,10.741,13.146,14.555c3.402,3.815,4.171,4.961,5.104,5.98c0.933,1.021,1.958,1.914,2.541,2.371
	c0.582,0.456,0.728,0.479,0.986,0.666c0.188,0.178,0.5,0.521,1.891,0.957c1.459,0.45,3.926,0.986,10.688,1.549
	c6.69,0.551,17.551,1.033,24.274,1.372c6.652,0.325,9.248,0.521,10.654,0.376c1.406-0.141,1.631-0.615,6.062-0.496
	c4.354,0.107,12.775,0.786,19.03,1.342c6.254,0.558,10.342,0.982,35.308,2.609c24.955,1.697,70.84,5.186,116.715,7.354
	c23.444,1.094,46.384,2.18,70.608,3.396c14.459,0.764,29.58,1.482,37.849,1.773c8.188,0.274,9.608,0.062,12.961,0.087
	c3.279,0.009,8.5,0.182,13.688,0.562l7.347,0.584c3.457,0.255,6.985,0.523,9.31,0.603c2.392,0.09,3.634,0.062,4.651,0.083
	c1.09,0.023,1.94,0.161,2.438,0.238c0.56,0.161,0.75,0.338,1.01,0.523c0.189,0.177,0.524,0.375,1.151,0.548
	c0.642,0.104,1.657,0.117,2.616,0.05c0.946,0.005,1.774-0.151,2.399-0.421c0.697-0.255,1.201-0.685,1.576-1.209
	c0.446-0.512,0.762-1.117,0.922-1.675C1152.4,891.724,1152.271,890.684,1151.402,889.742z M634.384,459.71
	c-6.704,16.37-19.7,30.313-36.143,37.178c-5.204,2.172-11.263,3.631-16.875,4.154c-3.184,0.297-5.798,0.246-8.289-0.148
	c-16.622-2.635-22.069-20.396-21.345-35.006c0.247-4.976,1.067-10.221,2.55-14.984c1.633-5.262,3.979-10.537,6.635-15.357
	c2.659-4.827,5.625-10.188,8.317-13.845c2.691-3.655,4.964-5.557,7.342-7.221c2.316-1.744,4.755-3.326,7.269-4.46
	c8.099-3.647,16.438-3.214,24.733-0.599c3.266,1.029,6.646,2.221,9.597,3.855c2.888,1.552,5.293,3.391,7.702,5.668
	c2.34,2.266,4.681,4.97,6.345,7.349c1.665,2.378,2.629,4.572,3.452,6.743C639.069,442.001,637.876,451.182,634.384,459.71z"/>
</svg>
