<?xml version="1.0" encoding="utf-8"?>
<!-- Generator: Adobe Illustrator 16.0.0, SVG Export Plug-In . SVG Version: 6.00 Build 0)  -->
<!DOCTYPE svg PUBLIC "-//W3C//DTD SVG 1.1//EN" "http://www.w3.org/Graphics/SVG/1.1/DTD/svg11.dtd">
<svg version="1.1" id="Layer_1" xmlns="http://www.w3.org/2000/svg" xmlns:xlink="http://www.w3.org/1999/xlink" x="0px" y="0px"
	 width="1665.625px" height="877.432px" viewBox="0 0 1665.625 877.432" enable-background="new 0 0 1665.625 877.432"
	 xml:space="preserve">
<path fill="none" stroke="#000000" stroke-linejoin="round" stroke-miterlimit="10" d="M1152.99,751.346
	c-43.521-114.039-341.622-490.861-413.818-572.472c-14.89-16.824-36.874-34.848-54.582-43.248
	c-69.543-33.28-126.99-61.049-285.477-132.096c-12.737-5.747-29.772-4.333-41.355,3.206
	C270.888,63.279,188.688,125.958,107.28,190.021c-26.711,21.02-50.937,39.519-66.389,70.57
	c-11.814,23.745-25.12,47.033-35.768,71.331c-7.68,17.582-6.012,30.52,0.271,43.223c56.972,114.833,54.666,120.174,183.028,229.16
	c56.557,48.034,120.525,85.973,184.704,122.729c61.365,35.146,125.521,65.7,193.021,87.188
	c38.504,12.257,78.612,21.122,118.633,26.754c92.768,13.058,187.601,12.413,280.89,6.156c26.049-1.748,52.062-4.086,78.021-6.883
	c31.479-3.393,62.519-8.757,93.793-13.477C1153.179,824.457,1158.642,766.121,1152.99,751.346z M433.039,139.494
	c-4.729,12.406-18.654,18.728-31.205,14.068c-12.554-4.661-18.879-18.516-14.221-30.924c4.729-12.405,18.652-18.654,31.205-13.995
	C431.368,113.302,437.696,127.088,433.039,139.494z M1094.156,798.881c-4.652,12.406-18.65,18.654-31.131,13.996
	c-12.554-4.66-18.951-18.447-14.224-30.854c4.655-12.404,18.655-18.729,31.138-14.068
	C1092.49,772.617,1098.886,786.475,1094.156,798.881z M1644.013,437.737C1413.366,388.689,804.26,181.25,778.662,173.112
	c-11.867-3.79-11.945,4.982-4.799,13.219c88.312,101.699,223.546,276.956,307.582,399.397
	c13.416,19.661,109.455,172.478,99.418,230.433c-1.631,9.434,4.442,11.479,14.259,13.602
	c75.233,16.582,159.563,33.412,224.222,45.916c15.053,2.943,18.012,3.604,23.267-9.629
	c75.056-189.832,145.883-289.748,219.729-403.714C1670.72,449.44,1662.515,441.715,1644.013,437.737L1644.013,437.737
	L1644.013,437.737L1644.013,437.737L1644.013,437.737"/>
</svg>
