<?xml version="1.0" encoding="utf-8"?>
<!-- Generator: Adobe Illustrator 16.0.0, SVG Export Plug-In . SVG Version: 6.00 Build 0)  -->
<!DOCTYPE svg PUBLIC "-//W3C//DTD SVG 1.1//EN" "http://www.w3.org/Graphics/SVG/1.1/DTD/svg11.dtd">
<svg version="1.1" id="Layer_1" xmlns="http://www.w3.org/2000/svg" xmlns:xlink="http://www.w3.org/1999/xlink" x="0px" y="0px"
	 width="1665.625px" height="877.432px" viewBox="0 0 1665.625 877.432" enable-background="new 0 0 1665.625 877.432"
	 xml:space="preserve">
<path d="M1152.99,751.344c-43.521-114.039-341.622-490.86-413.817-572.471c-14.891-16.824-36.874-34.848-54.582-43.248
	c-69.543-33.28-126.99-61.049-285.478-132.096c-12.736-5.747-29.771-4.333-41.354,3.206
	C270.89,63.277,188.69,125.957,107.281,190.02c-26.711,21.02-50.937,39.519-66.389,70.57c-11.813,23.745-25.12,47.033-35.768,71.331
	c-7.681,17.582-6.013,30.52,0.271,43.223c56.973,114.832,54.666,120.174,183.028,229.159
	c56.557,48.034,120.524,85.972,184.704,122.729c61.364,35.146,125.521,65.7,193.021,87.188
	c38.504,12.257,78.614,21.122,118.633,26.754c92.769,13.057,187.602,12.413,280.891,6.156c26.05-1.748,52.062-4.086,78.021-6.883
	c31.479-3.394,62.52-8.757,93.793-13.478C1153.181,824.455,1158.644,766.119,1152.99,751.344z M433.04,139.493
	c-4.729,12.406-18.653,18.728-31.204,14.068c-12.555-4.661-18.88-18.516-14.222-30.924c4.729-12.405,18.654-18.654,31.205-13.995
	C431.369,113.3,437.698,127.086,433.04,139.493z M1094.157,798.879c-4.653,12.406-18.65,18.654-31.132,13.996
	c-12.552-4.66-18.95-18.447-14.221-30.854c4.656-12.404,18.655-18.728,31.136-14.068
	C1092.49,772.615,1098.889,786.473,1094.157,798.879z M1644.015,437.736c-230.647-49.048-839.753-256.487-865.352-264.625
	c-11.866-3.79-11.944,4.982-4.799,13.219c88.312,101.699,223.546,276.956,307.582,399.396
	c13.415,19.663,109.455,172.479,99.418,230.434c-1.631,9.434,4.444,11.479,14.257,13.602
	c75.235,16.582,159.566,33.412,224.225,45.916c15.053,2.943,18.012,3.604,23.264-9.629
	c75.057-189.832,145.883-289.748,219.729-403.714C1670.722,449.438,1662.518,441.713,1644.015,437.736L1644.015,437.736
	L1644.015,437.736L1644.015,437.736L1644.015,437.736"/>
</svg>
