<?xml version="1.0" encoding="utf-8"?>
<!-- Generator: Adobe Illustrator 16.0.0, SVG Export Plug-In . SVG Version: 6.00 Build 0)  -->
<!DOCTYPE svg PUBLIC "-//W3C//DTD SVG 1.1//EN" "http://www.w3.org/Graphics/SVG/1.1/DTD/svg11.dtd">
<svg version="1.1" id="Layer_1" xmlns="http://www.w3.org/2000/svg" xmlns:xlink="http://www.w3.org/1999/xlink" x="0px" y="0px"
	 width="1665.625px" height="877.432px" viewBox="0 0 1665.625 877.432" enable-background="new 0 0 1665.625 877.432"
	 xml:space="preserve">
<path fill="none" stroke="#000000" stroke-linejoin="round" stroke-miterlimit="10" d="M433.039,139.494
	c-4.729,12.406-18.654,18.728-31.205,14.068c-12.554-4.661-18.879-18.516-14.221-30.924c4.729-12.405,18.651-18.654,31.205-13.995
	C431.368,113.302,437.696,127.088,433.039,139.494z M1094.156,798.881c-4.652,12.406-18.65,18.654-31.131,13.996
	c-12.555-4.66-18.951-18.447-14.225-30.854c4.654-12.404,18.654-18.729,31.139-14.068
	C1092.49,772.617,1098.886,786.475,1094.156,798.881z M771.589,183.33c-1.064-1.634-1.818-3.226-2.225-4.671
	c-1.909-6.807-4.08-13.553-6.584-20.163c-1.751-4.623-3.274-9.357-3.274-14.354c0-17.221,13.96-31.181,31.181-31.181
	s31.181,13.96,31.181,31.181c0,5.053-1.275,9.964-3.517,14.477c-2.275,4.584-5.784,7.741-9.576,11.033
	c-3.708,3.22-3.132,7.495-0.508,11.224c0.656,0.932,1.854,2.72,2.997,3.103c133.333,44.642,629.701,210.579,832.75,253.758
	c18.502,3.978,26.707,11.703,18.327,24.599c-73.848,113.966-144.674,213.882-219.729,403.714
	c-5.256,13.233-8.215,12.572-23.268,9.629c-64.656-12.504-148.986-29.334-224.221-45.916c-8.182-1.77-13.762-3.482-14.449-9.465
	h0.002c0-3.737-7.848-6.762-17.546-6.762c-9.153,0-16.562,1.872-16.562,4.186c-2.496,5.123-5.525,8.526-9.085,9.052
	c-31.273,4.721-62.312,10.084-93.793,13.478c-25.959,2.797-51.973,5.135-78.021,6.883c-93.289,6.257-188.122,6.9-280.89-6.156
	c-40.021-5.632-80.129-14.497-118.633-26.754c-67.499-21.485-131.653-52.042-193.021-87.188
	c-64.179-36.758-128.147-74.695-184.704-122.729C60.062,495.319,62.366,489.978,5.396,375.145
	c-6.283-12.702-7.951-25.641-0.271-43.223c10.646-24.298,23.952-47.586,35.768-71.331c15.452-31.051,39.678-49.55,66.389-70.57
	C188.688,125.958,270.888,63.279,357.756,6.736c11.583-7.539,28.619-8.953,41.355-3.206
	c158.484,71.047,215.934,98.816,285.477,132.096c17.708,8.4,39.692,26.424,54.582,43.248c4.422,4.999,9.689,11.105,15.696,18.19
	l-0.001-0.003c1.644,1.437,4.751,2.456,6.886,2.699c4.065,0.464,8.163-1.912,10.165-5.421c1.855-3.254,1.312-7.733-0.323-11.006
	L771.589,183.33z"/>
</svg>
