<?xml version="1.0" encoding="utf-8"?>
<!-- Generator: Adobe Illustrator 16.0.0, SVG Export Plug-In . SVG Version: 6.00 Build 0)  -->
<!DOCTYPE svg PUBLIC "-//W3C//DTD SVG 1.1//EN" "http://www.w3.org/Graphics/SVG/1.1/DTD/svg11.dtd">
<svg version="1.1" id="Layer_1" xmlns="http://www.w3.org/2000/svg" xmlns:xlink="http://www.w3.org/1999/xlink" x="0px" y="0px"
	 width="1565.508px" height="861px" viewBox="0 0 1565.508 861" enable-background="new 0 0 1565.508 861" xml:space="preserve">
<path fill="none" stroke="#000000" stroke-linejoin="round" stroke-miterlimit="10" d="M781.01,226.763
	c-34.875,32.512-74.238,72.906-118.568,123.566C533.012,498.238,422.11,681.432,422.11,681.432s-9.855,17.417,2.028,22.204
	c8.86,3.572,19.518,3.49,28.771,1.925c9.047-1.525,17.502-5.354,25.498-9.753c7.437-4.092,15.083-8.347,21.443-14.021
	c3.331-2.972,6.62-6.618,8.862-10.506c6.908-11.979,52.229-92.521,93.032-154.812c17.483-26.688,35.294-53.974,55.53-78.676
	c9.312-11.368,18.313-23.208,28.099-34.169c7.483-8.384,16.704-14.621,25.002-22.105c8.521-7.686,23.082-7.886,28.264,3.708
	c3.271,7.323,0.649,16.989-3.587,23.506L600.122,673.66c0,0-6.722,16.22-41.823,38.979c-13.021,8.444-27.773,14.075-42.562,18.566
	c-12.688,3.854-25.615,6.672-38.646,9.06c-7.062,1.294-13.554,1.572-19.971,5.084c-3.354,1.835-6.954,3.911-9.288,7.025
	c-2.637,3.521-3.014,8.154-3.444,12.382c-0.462,4.531-1.303,8.969-1.976,13.477c-0.905,6.073-1.632,12.306-1.611,18.503
	 M759.146,203.33c-5.115-6.69-10.379-1.032-14.644,0.491c-1.092,0.389-8.783,3.778-21.072,9.126 M762.03,209.585
	c1.289,10.413-15.886,21.943-36.885,41.537c-23.123,21.57-104.13,101.131-167.894,176.487
	c-63.764,75.354-127.068,176.918-127.068,176.918c-56.75,86.458-79.435,182.416-79.435,182.416
	c-0.242,1.145-0.535,2.256-0.878,3.336"/>
</svg>
