<?xml version="1.0" encoding="utf-8"?>
<!-- Generator: Adobe Illustrator 16.0.0, SVG Export Plug-In . SVG Version: 6.00 Build 0)  -->
<!DOCTYPE svg PUBLIC "-//W3C//DTD SVG 1.1//EN" "http://www.w3.org/Graphics/SVG/1.1/DTD/svg11.dtd">
<svg version="1.1" id="Layer_1" xmlns="http://www.w3.org/2000/svg" xmlns:xlink="http://www.w3.org/1999/xlink" x="0px" y="0px"
	 width="1734.178px" height="841.109px" viewBox="0 0 1734.178 841.109" enable-background="new 0 0 1734.178 841.109"
	 xml:space="preserve">
<path fill="none" stroke="#000000" stroke-linejoin="round" stroke-miterlimit="10" d="M511.66,391.314
	c0.678,0.555,2.761,0.198,6.287-1.165c14.118-5.451,146.664-63.216,206.825-69.939c60.166-6.726,51.188,16.435,50.33,29.445
	c-0.854,13.01-14.239,73.927-59.159,129.31c-44.919,55.381-67.268,56.217-65.01,68.666c0.698,3.855,2.398,6.944,4.55,9.434
	 M67.668,425.794c-6.964,2.31-13.184,7.153-11.198,17.252 M437.05,450.622c0,0,190.144,120.783,190.181,120.803
	c1.388,0.884,2.548,2.216,3.456,3.684"/>
</svg>
