<?xml version="1.0" encoding="utf-8"?>
<!-- Generator: Adobe Illustrator 16.0.0, SVG Export Plug-In . SVG Version: 6.00 Build 0)  -->
<!DOCTYPE svg PUBLIC "-//W3C//DTD SVG 1.1//EN" "http://www.w3.org/Graphics/SVG/1.1/DTD/svg11.dtd">
<svg version="1.1" id="Layer_1" xmlns="http://www.w3.org/2000/svg" xmlns:xlink="http://www.w3.org/1999/xlink" x="0px" y="0px"
	 width="552.801px" height="451.165px" viewBox="0 0 552.801 451.165" enable-background="new 0 0 552.801 451.165"
	 xml:space="preserve">
<path fill="none" stroke="#000000" stroke-linejoin="round" stroke-miterlimit="10" d="M61.728,37.464
	c0.416-2.03,0.633-4.131,0.633-6.284C62.361,13.96,48.401,0,31.181,0S0.001,13.96,0.001,31.18c0,17.22,13.96,31.18,31.181,31.18
	c1.515,0,3.005-0.108,4.463-0.317c3.219,0.113,5.078,1.97,4.608,5.243c-12.89,17.349-17.719,39.292-17.569,61.823l1.502,225.646
	c0.414,62.135,30.436,96.41,93.524,96.41h340.064c63.084,0,93.109-34.275,93.521-96.412l1.502-225.645
	c0.203-30.558-8.754-60.037-34.559-78.436c-17.504-12.484-39.25-17.242-60.471-17.242H117.71l0,0
	c-17.188,0-34.725,3.122-50.069,10.945c-4.37,0.162-6.54-2.443-5.953-6.722L61.728,37.464z"/>
</svg>
