<?xml version="1.0" encoding="utf-8"?>
<!-- Generator: Adobe Illustrator 16.0.0, SVG Export Plug-In . SVG Version: 6.00 Build 0)  -->
<!DOCTYPE svg PUBLIC "-//W3C//DTD SVG 1.1//EN" "http://www.w3.org/Graphics/SVG/1.1/DTD/svg11.dtd">
<svg version="1.1" id="Layer_1" xmlns="http://www.w3.org/2000/svg" xmlns:xlink="http://www.w3.org/1999/xlink" x="0px" y="0px"
	 width="545.66px" height="429.758px" viewBox="0 0 545.66 429.758" enable-background="new 0 0 545.66 429.758"
	 xml:space="preserve">
<path fill="none" stroke="#000000" stroke-linejoin="round" stroke-miterlimit="10" d="M61.346,39.101
	c0.661-2.529,1.015-5.184,1.015-7.92C62.361,13.96,48.401,0,31.181,0C13.961,0,0.001,13.96,0.001,31.18
	c0,17.22,13.96,31.18,31.182,31.18c1.507,0,2.988-0.107,4.439-0.314c2.604,0.132,5.895,0.125,5.726,3.572l-2.151,3.18L36.9,72.662
	l-2.103,4.066l-1.899,4.268l-1.695,4.471l-1.48,4.675l-1.266,4.879l-1.039,5.086l-0.811,5.294l-0.572,5.502l-0.332,5.713
	l-0.084,5.897l1.473,215.208l0.129,5.623l0.31,5.469l0.488,5.291l0.668,5.117l0.85,4.942l1.029,4.767l1.211,4.592l1.393,4.416
	l1.574,4.244l1.756,4.065l1.938,3.89l2.118,3.711l2.3,3.533l2.479,3.354l2.66,3.17l2.838,2.986l3.018,2.805l3.187,2.617l3.361,2.436
	l3.529,2.248l3.696,2.062l3.861,1.877l4.024,1.69l4.188,1.51l4.346,1.328l4.506,1.149l4.664,0.965l4.82,0.789l4.978,0.608
	l5.133,0.438l5.289,0.259l5.42,0.086h196.373H452.43l5.422-0.086l5.287-0.259l5.133-0.438l4.979-0.608l4.82-0.789l4.662-0.967
	l4.508-1.147l4.347-1.328l4.188-1.51l4.025-1.69l3.859-1.877l3.697-2.062l3.529-2.248l3.357-2.436l3.189-2.617l3.014-2.805
	l2.838-2.986l2.66-3.17l2.482-3.354l2.299-3.533l2.119-3.711l1.938-3.89l1.756-4.067l1.572-4.242l1.394-4.416l1.212-4.592
	l1.027-4.767l0.852-4.942l0.67-5.117l0.486-5.291l0.311-5.469l0.127-5.623l1.473-215.208l-0.082-5.896l-0.332-5.714l-0.57-5.502
	l-0.812-5.294l-1.039-5.086l-1.264-4.879l-1.482-4.675l-1.693-4.471l-1.9-4.268l-2.102-4.066l-2.293-3.864l-2.48-3.665l-2.66-3.465
	l-2.83-3.266l-2.99-3.069l-3.15-2.873l-3.297-2.679l-3.439-2.488l-3.568-2.297l-3.697-2.11l-3.814-1.926l-3.924-1.743l-4.028-1.564
	l-4.125-1.388l-4.216-1.214l-4.297-1.043l-4.373-0.875l-4.441-0.71l-4.509-0.548l-4.562-0.388l-4.615-0.231l-4.637-0.076H276.02
	H118.851l-4.636,0.077l-4.614,0.231l-4.562,0.387l-4.508,0.548l-4.443,0.711l-4.373,0.874l-4.297,1.044l-4.215,1.213l-4.125,1.388
	l-4.029,1.564l-3.924,1.744l-3.813,1.925c0,0-1.826,1.042-1.827,1.042C62.491,44.57,61.326,41.596,61.346,39.101z"/>
</svg>
