<?xml version="1.0" encoding="utf-8"?>
<!-- Generator: Adobe Illustrator 16.0.0, SVG Export Plug-In . SVG Version: 6.00 Build 0)  -->
<!DOCTYPE svg PUBLIC "-//W3C//DTD SVG 1.1//EN" "http://www.w3.org/Graphics/SVG/1.1/DTD/svg11.dtd">
<svg version="1.1" id="Layer_1" xmlns="http://www.w3.org/2000/svg" xmlns:xlink="http://www.w3.org/1999/xlink" x="0px" y="0px"
	 width="859.816px" height="454.633px" viewBox="0 0 859.816 454.633" enable-background="new 0 0 859.816 454.633"
	 xml:space="preserve">
<path d="M504.045,70.122l-0.267,0.003l-0.239-0.009l-0.212-0.023l-0.188-0.032l-0.168-0.041l-0.054-0.017l-0.053-0.311l-0.06-0.424
	l-0.048-0.491l-0.04-0.549l-0.03-0.598l-0.021-0.639l-0.018-0.673l-0.012-0.702l-0.003-0.725l-0.001-0.744l0.004-0.757l0.003-0.436
	l0.005-0.446l0.002-0.453l0.002-0.457l0.002-0.461l0.001-0.465l0.003-0.467l-0.003-0.465l-0.003-0.466l-0.004-0.465l-0.007-0.464
	l-0.009-0.458l-0.011-0.454l-0.014-0.449l-0.018-0.442l-0.019-0.434l-0.021-0.426l-0.021-0.419l-0.027-0.41l-0.031-0.398
	l-0.034-0.39l-0.041-0.38l-0.051-0.37l-0.056-0.358l-0.062-0.354l-0.075-0.352l-0.089-0.35l-0.106-0.356l-0.142-0.374l-0.188-0.402
	l-0.271-0.444l-0.312-0.366l-1.271-1.25l-1.149-1.114l-1.116-1.067l-1.089-1.02l-1.055-0.975l-1.024-0.931l-0.996-0.89l-0.969-0.847
	l-0.938-0.808l-0.914-0.771l-0.89-0.733l-0.862-0.697l-0.842-0.664l-0.812-0.629l-0.797-0.599l-0.771-0.568l-0.755-0.538
	l-0.729-0.511l-0.719-0.484l-0.696-0.459l-0.681-0.434l-0.665-0.412l-0.646-0.391l-0.638-0.37l-0.617-0.35l-0.604-0.332
	l-0.593-0.315l-0.578-0.3l-0.562-0.286l-0.556-0.272l-0.542-0.26l-0.548-0.256l-0.365-0.165l-0.389-0.16l-0.394-0.148l-0.396-0.135
	l-0.399-0.123l-0.402-0.109l-0.412-0.096l-0.416-0.083l-0.422-0.069l-0.43-0.054l-0.43-0.041l-0.435-0.027l-0.438-0.012
	l-0.438,0.001l-0.441,0.015l-0.448,0.029l-0.452,0.042l-0.453,0.055l-0.456,0.068l-0.47,0.08l-0.469,0.094l-0.475,0.104
	l-0.479,0.116l-0.485,0.13l-0.492,0.141l-0.499,0.152l-0.512,0.165l-0.517,0.175l-0.522,0.188l-0.533,0.199l-0.544,0.21
	l-0.548,0.218l-0.295,0.119l-0.28,0.114l-0.287,0.114l-0.288,0.114l-0.288,0.113l-0.288,0.112l-0.289,0.111l-0.293,0.112
	l-0.292,0.111l-0.29,0.11l-0.291,0.109l-0.291,0.109l-0.292,0.109l-0.292,0.108l-0.287,0.106l-0.291,0.107l-0.29,0.107l-0.283,0.105
	l-0.284,0.104l-0.285,0.105l-0.284,0.104l-0.33,0.12l-0.508,0.186l-0.278,0.102l-0.271,0.1l-0.271,0.099l-0.267,0.098l-0.271,0.099
	l-0.263,0.097l-0.26,0.096l-0.262,0.097l-0.429,0.161l-0.425,0.16l-0.432,0.163l-0.438,0.163l-0.438,0.167l-0.442,0.168
	l-0.442,0.169l-0.45,0.171l-0.454,0.174l-0.46,0.174l-0.461,0.177l-0.47,0.178l-0.472,0.181l-0.473,0.182l-0.479,0.184l-0.476,0.183
	l-3.742,1.423L436.95,40.4l-4.021,1.458l-4.145,1.474l-4.257,1.487l-4.359,1.498l-4.45,1.509l-4.526,1.516l-4.6,1.521l-4.652,1.525
	l-4.698,1.527l-4.732,1.527l-4.755,1.525l-4.769,1.521l-4.761,1.511l-4.756,1.506l-4.729,1.497l-4.701,1.485l-4.653,1.471
	l-4.6,1.457l-4.529,1.438l-4.452,1.419l-4.36,1.397l-4.265,1.374l-4.147,1.349l-4.024,1.323l-3.896,1.293l-3.749,1.263l-3.594,1.231
	l-3.426,1.197l-3.248,1.161l-3.051,1.121l-3.255,1.208l-3.262,1.199l-3.276,1.193l-3.292,1.188l-3.307,1.183l-3.32,1.177L285,91.302
	l-3.349,1.167l-3.36,1.162l-3.374,1.157l-3.386,1.152l-3.398,1.147l-3.408,1.142l-3.421,1.137l-3.433,1.133l-3.442,1.127
	l-3.451,1.123l-3.465,1.119l-3.474,1.114l-3.482,1.11l-3.489,1.105l-3.5,1.101l-3.508,1.097l-3.518,1.094l-3.521,1.088l-3.53,1.085
	l-3.538,1.08l-3.543,1.078l-3.55,1.073l-3.556,1.069l-3.562,1.066l-3.564,1.062l-5.395,1.596l-5.403,1.589l-5.409,1.58l-5.418,1.573
	l-5.426,1.566l-5.43,1.559l-5.434,1.551l-5.438,1.546l-5.437,1.538l-5.438,1.533l-5.437,1.527l-5.436,1.521l-5.429,1.515
	l-5.427,1.51l-5.418,1.506l-5.412,1.5l-5.402,1.496l-5.396,1.491l-5.384,1.487l-5.372,1.484l-5.356,1.479l-5.345,1.477l-5.329,1.473
	l-5.312,1.47l-5.293,1.466l-5.273,1.465l-5.255,1.462l-5.231,1.46l-5.211,1.458l-5.188,1.457l-5.162,1.455l-5.25,1.486l-1.018,0.383
	l-1.02,0.592l-0.895,0.721l-0.769,0.813l-0.658,0.879l-0.568,0.929l-0.492,0.97l-0.434,1.005l-0.384,1.035l-0.347,1.061
	l-0.312,1.083l-0.289,1.103l-0.268,1.114l-0.253,1.12l-0.242,1.121l-0.47,2.199l-0.238,1.102l-0.241,1.054l-0.249,1.019l-0.26,0.972
	l-0.271,0.92l-0.283,0.856L16.38,190.2l-0.311,0.7l-0.318,0.607l-0.315,0.506l-0.312,0.4l-0.291,0.299l-0.269,0.209l-0.251,0.142
	l-0.728,0.262l-1.765,1.033l-1.492,0.98l-1.385,1.022l-1.281,1.064l-1.176,1.103l-1.075,1.141l-0.973,1.179l-0.871,1.212
	l-0.771,1.242l-0.673,1.271l-0.573,1.292l-0.479,1.312l-0.385,1.326l-0.299,1.337l-0.212,1.344l-0.129,1.35l-0.049,1.355
	l0.021,1.349l0.091,1.344l0.154,1.341l0.216,1.333l0.271,1.328l0.324,1.317l0.374,1.309l0.421,1.296l0.461,1.286l0.502,1.271
	l0.535,1.26l0.57,1.242l0.599,1.229l0.625,1.209l0.861,1.584l1.883,1.727l3.322,2.162l4.772,2.756l6.252,3.396l7.666,4.004
	l8.999,4.584l10.244,5.123l11.404,5.621l12.476,6.082l13.454,6.498l14.349,6.875l15.146,7.213l15.86,7.51l16.479,7.763l17.015,7.979
	l17.453,8.148l17.808,8.278l18.065,8.373l18.237,8.423l18.319,8.43l18.312,8.396l18.213,8.324l18.023,8.209l17.744,8.059
	l17.376,7.854l16.917,7.619l16.367,7.342l15.729,7.021l15.001,6.659l14.185,6.265l13.271,5.813l12.285,5.34l2.9,1.228l2.916,1.17
	l2.922,1.108l2.928,1.054l2.93,0.994l2.935,0.934l2.937,0.875l2.938,0.814l2.938,0.754l2.938,0.692l2.938,0.633l2.938,0.574
	l2.937,0.512l2.933,0.447l2.933,0.394l2.926,0.325l2.923,0.265l2.916,0.203l2.911,0.139l2.903,0.078l2.896,0.014l2.894-0.049
	l2.882-0.113l2.873-0.178l2.863-0.24l2.854-0.305l2.844-0.371l2.83-0.434l2.817-0.498l2.807-0.564l2.793-0.631l2.78-0.695
	l2.234-0.625l2.292-0.703l2.339-0.791l2.39-0.86l2.438-0.945l2.479-1.02l2.526-1.101l2.574-1.168l2.618-1.24l2.661-1.311
	l2.706-1.379l2.746-1.443l2.785-1.514l2.824-1.574l2.86-1.639l2.901-1.697l2.938-1.76l2.973-1.818l3.007-1.873l3.038-1.928
	l3.066-1.984l3.1-2.035l3.129-2.088l3.153-2.135l3.185-2.184l3.205-2.23l3.229-2.275l3.253-2.315l3.272-2.362l3.295-2.398
	l3.312-2.439l3.334-2.479l6.866-5.189l6.933-5.328l6.977-5.453l7.017-5.565l7.039-5.672l7.055-5.761l7.058-5.834l7.052-5.896
	l7.028-5.946l7.005-5.986l6.964-6.014l6.908-6.021l6.854-6.025l6.774-6.014l6.691-5.986l6.597-5.955l6.491-5.897l6.377-5.835
	l6.246-5.762l6.107-5.668l5.96-5.57l5.8-5.452l5.628-5.324l5.442-5.188l5.251-5.037l5.046-4.866l4.831-4.688l4.604-4.503
	l4.367-4.299l4.116-4.082l3.856-3.854l3.604-3.627l1.66-1.742l1.656-1.86l1.639-1.955l1.608-2.041l1.59-2.124l1.562-2.195
	l1.528-2.26l1.499-2.321l1.464-2.372l1.429-2.417l1.386-2.457l1.349-2.485l1.3-2.509l1.252-2.526l1.2-2.535l1.146-2.537l1.093-2.532
	l1.029-2.522l0.975-2.5l0.902-2.477l0.839-2.442l0.771-2.406l0.689-2.357l0.616-2.305l0.538-2.25l0.454-2.183l0.37-2.115l0.275-2.04
	l0.187-1.961l0.084-1.881l-0.021-1.797l-0.138-1.689l-0.337-2.327l-0.452-2.234l-0.562-2.162l-0.661-2.095l-0.771-2.019
	l-0.874-1.949l-0.967-1.882l-1.056-1.817l-1.135-1.755l-1.213-1.696l-1.282-1.64l-1.352-1.587l-1.41-1.54l-1.468-1.494l-1.521-1.454
	l-1.562-1.415l-1.608-1.383l-1.647-1.354l-1.687-1.329l-1.715-1.307l-1.741-1.29l-1.769-1.275l-1.784-1.265l-1.801-1.257
	l-1.812-1.254l-1.818-1.254l-1.821-1.257l-1.822-1.264l-1.819-1.274l-1.812-1.287l-1.802-1.305l-1.801-1.331l-1.132-0.845
	l-1.146-0.842l-1.147-0.832l-1.147-0.821l-1.15-0.812l-1.15-0.803l-1.148-0.793l-1.15-0.784l-1.146-0.776l-1.146-0.769l-1.146-0.761
	l-1.145-0.754l-1.14-0.747l-1.136-0.74l-1.13-0.735l-1.123-0.729l-1.117-0.723l-1.116-0.725l-1.104-0.714l-1.099-0.709l-1.089-0.706
	l-1.079-0.702l-1.065-0.698l-1.062-0.694l-1.05-0.693l-1.035-0.69l-1.022-0.688l-1.015-0.687l-1-0.686l-0.981-0.684l-0.975-0.684
	l-0.956-0.681l-1.062-0.774l-1.045-0.774l-1.022-0.774l-0.999-0.775l-0.977-0.776l-0.952-0.779l-0.928-0.78l-0.898-0.782
	l-0.874-0.786l-0.847-0.789l-0.818-0.792l-0.789-0.794l-0.758-0.799l-0.729-0.803l-0.697-0.81l-0.666-0.812l-0.632-0.817
	l-0.604-0.824l-0.565-0.83l-0.532-0.835l-0.5-0.842l-0.464-0.85l-0.433-0.857l-0.396-0.864l-0.355-0.875l-0.321-0.885l-0.286-0.896
	l-0.249-0.908c0,0-0.216-0.919-0.218-0.921c-0.53-2.288-0.448-4.54,0.15-6.795l0.147-0.517l0.166-0.534l0.184-0.551l0.197-0.566
	l0.216-0.583l0.229-0.597l0.244-0.61l0.263-0.624l0.271-0.637l0.288-0.648l0.302-0.659l0.313-0.669l0.327-0.681l0.341-0.689
	l0.353-0.699l0.363-0.707l0.372-0.715l0.387-0.723l0.396-0.729l0.401-0.736l0.415-0.742l0.414-0.734l0.786-1.337l0.801-1.285
	l0.822-1.249l0.844-1.213l0.855-1.179l0.872-1.146l0.884-1.114l0.896-1.083l0.896-1.054l0.901-1.027l0.9-1l0.902-0.972l0.9-0.949
	l0.895-0.926l0.884-0.903l0.873-0.883l0.86-0.865l0.846-0.847l0.824-0.832l0.807-0.816l0.782-0.806l0.757-0.793l0.729-0.786
	l0.697-0.781l0.669-0.778l0.631-0.777l0.597-0.782l0.555-0.789l0.513-0.802l0.462-0.818l0.404-0.841l0.782-1.962l-1.45-2.801
	l-2.666-0.54l-2.229,0.018l-2.743,0.24l-3.371,0.438l-4.006,0.627l-4.613,0.806l-5.191,0.977l-5.734,1.137l-6.248,1.28l-6.718,1.429
	l-7.149,1.562l-7.547,1.683L724.101,12l-8.225,1.897l-8.508,1.992l-8.751,2.073l-8.956,2.147l-9.122,2.21l-9.252,2.265l-9.344,2.308
	l-9.396,2.342l-9.409,2.367l-9.384,2.381l-9.32,2.384l-9.221,2.38l-9.081,2.365l-8.903,2.341l-8.688,2.306l-8.435,2.261
	l-8.144,2.207l-7.809,2.144l-2.124,0.587l-2.097,0.582l-2.062,0.575l-2.03,0.569l-1.998,0.562l-1.966,0.556l-1.932,0.548
	l-1.896,0.542l-1.859,0.533l-1.822,0.527l-1.786,0.517l-1.75,0.51l-1.711,0.501l-1.671,0.494l-1.631,0.484l-1.59,0.475l-1.548,0.466
	l-1.504,0.457l-1.46,0.448l-1.416,0.438l-1.37,0.427l-1.325,0.418l-1.272,0.407l-1.229,0.397l-1.181,0.386l-1.133,0.376
	l-1.083,0.364l-1.032,0.354l-0.979,0.343l-0.933,0.331l-0.879,0.32l-0.65,0.244l-0.455,0.109l-0.641,0.164l-0.625,0.17l-0.614,0.175
	l-0.602,0.178l-0.59,0.181l-0.578,0.181l-0.562,0.18l-0.551,0.177l-0.537,0.173l-0.521,0.167l-0.51,0.161l-0.491,0.153l-0.479,0.144
	l-0.465,0.134l-0.442,0.121l-0.425,0.107l-0.405,0.095l-0.387,0.08l-0.363,0.064l-0.345,0.048l-0.314,0.034L504.045,70.122z"/>
</svg>
