<?xml version="1.0" encoding="utf-8"?>
<!-- Generator: Adobe Illustrator 16.0.0, SVG Export Plug-In . SVG Version: 6.00 Build 0)  -->
<!DOCTYPE svg PUBLIC "-//W3C//DTD SVG 1.1//EN" "http://www.w3.org/Graphics/SVG/1.1/DTD/svg11.dtd">
<svg version="1.1" id="Layer_1" xmlns="http://www.w3.org/2000/svg" xmlns:xlink="http://www.w3.org/1999/xlink" x="0px" y="0px"
	 width="1370.412px" height="768.93px" viewBox="0 0 1370.412 768.93" enable-background="new 0 0 1370.412 768.93"
	 xml:space="preserve">
<path d="M1363.034,639.991c-41.397-87.584-95.387-216.162-145.264-302.142c-57.32-115.357-96.002-195.988-125.465-237.522
	c-8.543-14.784-32.229-44.59-50.117-53.79C961.76,5.179,805.741,0.965,714.095,0.117c-70.982-0.656-155.11,1.39-232.735,7.253
	C275.298,22.934,52,55.111,15.026,80.415C-0.537,91.065-3.89,120.223,4.406,136.98c28.779,61.553,78.97,127.016,115.352,183.257
	c20.138,31.127,42.956,61.963,75.502,88.738C325.41,516.028,443.808,590.18,587.185,682.543
	c25.673,16.539,82.775,44.842,108.478,60.85c32.23,19.42,65.97,30.354,119.978,23.472c65.371-8.34,109.938-8.043,169.639-18.345
	c0.531-0.09-16.012-16.098-2.117-22.254c25.398-11.258,68.884-36.608,109.701-56.332c31.021-14.985,61.336-26.014,76.211-29.26
	c14.857-3.242,37.24-7.221,53.479-0.787c17.477,6.926,52.188,32.078,74.078,44.424c6.811,3.847,13.469,7.927,20.182,11.935
	c13.65,8.146,28.672,4.883,40.326-4.771c9.063-7.508,14.188-17.069,13.139-29.057
	C1369.577,654.489,1366.401,647.112,1363.034,639.991z M1199.895,365.088c-20.643,8.05-61.779-19.001-102.9-58.28
	c-54.473-60.499-48.553-44.571-243.221-264.711c-5.758-6.511-1.113-8.928,5.316-7.76c55.639,2.324,94.928,9.75,151.961,24.505
	c35.615,11.454,67.561,56.857,107.264,133.176C1156.833,266.059,1221.879,363.046,1199.895,365.088z M1224.782,609.758
	c-17.133,21.402-38.076,33.279-57.172,17.994s-12.09-38.322,5.043-59.725c17.135-21.404,35.234-35.562,57.176-17.994
	C1251.763,567.594,1241.919,588.354,1224.782,609.758z"/>
</svg>
