<?xml version="1.0" encoding="utf-8"?>
<!-- Generator: Adobe Illustrator 16.0.0, SVG Export Plug-In . SVG Version: 6.00 Build 0)  -->
<!DOCTYPE svg PUBLIC "-//W3C//DTD SVG 1.1//EN" "http://www.w3.org/Graphics/SVG/1.1/DTD/svg11.dtd">
<svg version="1.1" id="Layer_1" xmlns="http://www.w3.org/2000/svg" xmlns:xlink="http://www.w3.org/1999/xlink" x="0px" y="0px"
	 width="1470.221px" height="787.942px" viewBox="0 0 1470.221 787.942" enable-background="new 0 0 1470.221 787.942"
	 xml:space="preserve">
<path fill="none" stroke="#000000" stroke-linejoin="round" stroke-miterlimit="10" d="M549.69,650.415
	c4.586,24.137-11.849,47.67-36.58,52.381c-24.73,4.713-48.646-11.131-53.23-35.266c-4.585-24.139,11.847-47.67,36.583-52.381
	C521.193,610.438,545.105,626.278,549.69,650.415z M344.693,416.719c-13.603,6.852-29.642,3.139-27.938-12.734
	c6.958-19.007,34.396-57.516,45.273-74.677c40.222-63.795,64.171-99.769,104.392-163.563c14.562-21.767,32.946-30.385,53.066-33.03
	c25.009-2.38,50.02-4.763,75.023-7.145c26.827-0.568,22.981,11.831,10.021,29.893C556.487,223.501,412.201,382.705,344.693,416.719z
	 M692.765,236.279c9.229,37.609-6.397,50.883-43.89,59.315c-40.702,9.153-60.539,13.247-72.922-37.695
	c-12.482-51.358,20.756-54.22,48.531-61.588C667.469,184.906,681.445,190.145,692.765,236.279z M237.65,727.366
	c-0.884,1.707-0.974,3.168-0.186,4.355c162.366,24.572,265.386,53.314,436.563,55.754c49.057,7.871,185.553-86.203,223.062-117.164
	c114.896-77.633,269.388-211.148,373.125-301.295c23.306-20.252,65.46-62.677,81.085-93.332
	c43.954-75.579,73.346-120.307,108.476-199.709c11.985-23.489,18.347-63.448-7.485-64.942l-103.155-6.802
	C1148.526-6.97,964.596,3.921,752.538,38.664c-42.16,5.443-97.754,23.203-189.355,39.008c-4.066,0.702-3.443,2.139-1.494,3.467
	c6.575,6.309-9.18,16.083-14.366,16.4c-12.429-2.521-24.896-4.668-37.28-6.192c-14.053,2.426-20.824,5.52-25.104,10.354
	c-4.493,2.949-16.703,0.314-14.297-6.932c0.455-0.709,0.909-1.419,1.363-2.129c-23.429,4.182-61.688,11.73-85.229,15.839
	c-130.942,22.859-201.237,41.803-332.172,64.858c-66.698,11.714-60.266,13.825-43.132,92.047l0,0
	c8.012,25.207,21.817,34.278,34.895,45.697c23.973,29.578,45.655,60.487,59.182,96.152c14.53,45.969,45.284,197.502,54.979,216.449
	c0.659-1.24,1.318-2.482,1.979-3.723c2.974-3.094,7.846-2.037,11.261-0.41c3.324,1.582,8.288,4.234,7.756,8.711
	c-5.062,10.279-9.124,18.713-11.979,24.854c-9.502,21.178-13.518,37.566-11.268,48.732c-0.396,2.99-3.132,4.484-5.964,4.375
	c-2.478-0.635-5.074-0.971-7.748-0.971c-17.221,0-31.181,13.959-31.181,31.18s13.96,31.182,31.181,31.182
	c17.222,0,31.183-13.961,31.183-31.182c0-4.801-1.086-9.35-3.023-13.41c0-2.525,1.959-4.074,4.312-4.451v0.002
	c4.798,0.828,10.521,0.908,17.208,0.219c1.544-0.838,3.218-1.738,5.017-2.697c9.269-2.719,18.914-0.277,27.91,1.822
	c4.16,0.971,13.404,3.279,10.484,9.453L237.65,727.366z"/>
</svg>
