<?xml version="1.0" encoding="utf-8"?>
<!-- Generator: Adobe Illustrator 16.0.0, SVG Export Plug-In . SVG Version: 6.00 Build 0)  -->
<!DOCTYPE svg PUBLIC "-//W3C//DTD SVG 1.1//EN" "http://www.w3.org/Graphics/SVG/1.1/DTD/svg11.dtd">
<svg version="1.1" id="Layer_1" xmlns="http://www.w3.org/2000/svg" xmlns:xlink="http://www.w3.org/1999/xlink" x="0px" y="0px"
	 width="1556.619px" height="681.438px" viewBox="0 0 1556.619 681.438" enable-background="new 0 0 1556.619 681.438"
	 xml:space="preserve">
<path fill="none" stroke="#000000" stroke-linejoin="round" stroke-miterlimit="10" d="M1501.307,204.667
	c-4.346-1.107-8.691-2.409-12.994-3.682c-6.184-1.831-12.354-3.712-18.515-5.615c-3.867-1.195-7.729-2.401-11.594-3.618
	c-23.607-7.445-47.131-15.6-70.068-24.917c-7.655-3.109-15.35-6.234-22.891-9.614c-4.769-2.136-9.435-4.396-13.982-6.963
	c-3.35-1.888-6.612-3.913-9.857-5.97c-2.714-1.719-5.301-3.636-7.706-5.76c-22.566-19.896-19.687-52.378-11.654-78.497
	c2.286-7.438,4.936-14.681,7.932-21.858c2.787-6.675,5.82-13.248,8.853-19.816c0.916-1.989,1.956-4.103,2.681-6.166
	c0.451-1.292,0.896-2.924,0.005-4.138c-1.073-1.46-3.493-1.328-5.11-1.258l-50.116-0.061c-5.113-0.006-6.896,0.666-7.772,5.956
	l-0.011,0.059l-0.005,0.059c-1.5,18.712-4.729,45.211-17.043,59.92c-5.691,6.799-13.23,11.753-22.396,9.75
	c-3.672-0.803-7.196-1.594-10.673-3.085c-4.368-1.874-8.04-4.574-11.326-7.997c-6.062-6.315-8.404-20.222-9.564-28.548
	c-1.288-9.248-2.146-18.549-3.334-27.81c-0.181-1.391-0.409-3.254-1.744-4.035c-1.672-0.978-3.942,0.421-5.37,1.289
	c-3.062,1.859-6.111,3.735-9.179,5.589c-1.893,1.143-3.78,2.283-5.688,3.404c-1.104,0.65-2.309,1.399-3.458,1.958
	c-19.782,9.625-43.557,14.243-65.322,16.47c-12.339,1.263-24.771,1.818-37.176,1.811c-11.227-0.007-22.484-0.472-33.67-1.448
	c-7.738-0.675-15.619-1.775-23.145-3.741c-3.645-0.953-6.926-2.709-10.186-4.544c-3.927-2.211-4.867-7.813-5.17-11.889
	c-0.227-3.041-0.137-6.072-0.073-9.116c0.032-1.572,0.208-4.898-0.627-6.243c-0.938-1.517-2.327-4.392-4.323-4.537
	c-1.572-0.114-2.638,1.296-3.344,2.505c-2.949,5.049-8.299,9.719-12.949,13.182c-4.014,2.987-8.354,5.715-12.785,8.035
	c-2.526,1.322-6.381,3.242-9.188,3.792c-5.834,0.972-11.674,1.92-17.519,2.842c-19.062,3.008-38.163,5.729-57.318,8.049
	l-0.036,0.004l-0.036,0.006c-21.54,3.742-43.126,7.281-64.708,10.774c-30.061,4.865-60.144,9.596-90.242,14.21
	c-37.946,5.817-75.745,12.867-113.313,20.77c-45.135,9.494-90.017,20.263-134.587,32.112c-28.78,7.651-55.522,19.325-81.061,34.598
	c-30.213,18.073-57.626,40.396-84.097,63.494c-0.051,0.043-0.104,0.091-0.156,0.136l-33.181,29.904
	c-32.891,29.68-66.154,58.94-99.039,88.626c-33.735,30.456-67.177,61.37-99.192,93.638l-21.95,22.526
	c-0.721,0.758-1.403,1.714-2.017,2.552c-1.021,1.396-2.006,2.817-2.983,4.24c-2.605,3.791-5.157,7.624-7.706,11.454
	c-2.542,3.817-5.072,7.643-7.64,11.444c-0.953,1.408-1.912,2.82-2.895,4.221c-0.546,0.777-1.127,1.63-1.739,2.354
	c-1.109,1.308-3.943,4.376-2.561,6.224c0.683,0.901,1.856,0.916,2.871,0.768c2.589-0.381,5.41-1.143,7.958-1.768
	c4.626-1.14,9.242-2.315,13.862-3.479c12.59-3.169,25.2-6.262,37.893-8.997c8.952-1.931,17.979-3.711,27.038-5.063
	c7.178-1.076,14.9-2.034,22.165-1.905c2.218,0.039,7.076-0.104,8.781,1.511c0.38,0.359,0.623,0.795,0.778,1.292
	c0.035,0.114,0.081,0.221,0.134,0.312c-0.054,0.184-0.065,0.394-0.024,0.64c0.505,3.048-2.994,7.838-4.729,10.053
	c-2.053,2.621-4.34,5.104-6.669,7.479c-3.146,3.211-6.445,6.289-9.796,9.287l-64.69,54.416l-5.29,4.449
	c-9.33,7.85-18.5,16.004-27.339,24.396c-5.049,4.795-10.021,9.705-14.771,14.8c-3.909,4.197-7.883,8.69-11.159,13.404
	c-4.364,6.271-9.062,13.585-11.729,20.779c-2.356,6.353-3.03,13.048-0.303,19.398c2.943,6.861,9.145,11.66,15.586,15.053
	c7.632,4.02,16.482,6.524,24.898,8.269c9.782,2.021,19.841,3.159,29.801,3.837c15.239,1.036,30.702,1.017,45.96,0.296
	c5.641-0.267,11.288-0.631,16.911-1.146c3.111-0.285,6.442-0.576,9.522-1.137c170.242-10.412,340.446-21.489,510.312-37.023
	c79.717-7.289,159.375-15.538,238.812-25.419c74.016-9.206,148.001-19.793,221.408-33.03c17.349-3.129,33.356-7.836,48.425-17.201
	c7.137-4.436,13.692-9.643,20.009-15.172c7.479-6.55,14.648-13.509,21.829-20.385l0.021-0.021l0.021-0.021
	c17.726-18.445,35.019-37.36,52.291-56.229c20.201-22.062,40.354-44.172,60.743-66.062c2.839-3.049,5.684-6.094,8.529-9.133
	c21.487-22.938,43.282-45.699,65.828-67.604c9.929-9.643,20.021-19.136,30.401-28.291c8.793-7.757,17.845-15.345,27.268-22.329
	c10.12-7.501,19.972-15.294,29.852-23.103c3.668-2.898,7.344-5.801,11.084-8.604c2.718-2.036,5.528-4.094,8.438-5.849l0.668-0.403
	l0.02-0.78c0.259-11.947,0.921-23.912,1.959-35.817l0.104-1.2L1501.307,204.667z M75.237,650.89
	c-13.216,0-23.933-10.718-23.933-23.933c0-13.216,10.717-23.933,23.933-23.933c13.215,0,23.933,10.717,23.933,23.933
	C99.169,640.172,88.453,650.89,75.237,650.89z M804.259,116.033c-46.037,12.385-120.704,16.74-171.061,41.113L509.006,217.26
	l0.072,0.104c-16.799,10.375-32.603,20.045-46.652,27.013c-2.597,1.421-4.289,12.384-9.552,7.957c-0.983-2.6-2.63-4.767-1.5-8.023
	c0.568-1.636,1.584-3.558,3.241-5.381c14.397-15.837,30.596-27.557,48.152-39.76c61.071-42.438,99.438-66.735,146.997-75.987
	c27.979-5.442,62.945-11.975,95.896-15.307c22.097-2.234,43.283-3.03,60.848-1.093c2.45,0.271,4.481,1.04,5.989,1.89
	c3.004,1.694,3.203,4.407,4.187,7.008C815.667,122.479,807.143,115.381,804.259,116.033z"/>
</svg>
