<?xml version="1.0" encoding="utf-8"?>
<!-- Generator: Adobe Illustrator 21.0.2, SVG Export Plug-In . SVG Version: 6.00 Build 0)  -->
<svg version="1.1" id="Layer_1" xmlns="http://www.w3.org/2000/svg" xmlns:xlink="http://www.w3.org/1999/xlink" x="0px" y="0px"
	 width="1579.858px" height="755.647px" viewBox="0 0 1579.858 755.647" enable-background="new 0 0 1579.858 755.647"
	 xml:space="preserve">
<path fill="none" stroke="#000000" stroke-miterlimit="10" d="M1418.612,575.007c-14.342-8.094-191.612-111.311-207.104-135.055
	c-15.488-23.738,6.381-26.027,34.854-22.666c28.479,3.361,95.146,12.807,103.25,7.895c8.103-4.912,20.343-16.508,1.279-29.309
	c-19.059-12.803-155.938-117.418-200.233-146.924c-44.302-29.503-98.722-51.438-160.681-63.244
	c-61.955-11.809-437.006-59.338-437.006-59.338s-20.004-6.076-28.479,1.477c-8.479,7.553-25.25,16.623-43.354,16.078
	c-18.102-0.544-94.286-4.604-104.188-6.007c-9.899-1.403-33.758-4.111-38.755-6.837c-5.004-2.73-23.494-14.773-23.494-14.773
	s-15.099-12.24-16.504-2.34c-1.402,9.901-1.996,66.374-43.106,61.898c-41.112-4.474-39.939-50.77-39.939-50.77
	s4.113-29.046-13.989-29.589c-18.104-0.544-38.092-2.028-29.302,16.723c8.789,18.752,27.597,57.103,20.658,91.807
	c-6.934,34.702-75.042,82.96-91.061,91.465c-16.02,8.503-88.471,49.413-88.471,49.413s-11.118,7.177-12.808,14.344
	c-1.688,7.168,9.121,18.799,9.121,18.799S236.42,614.245,274.366,652.95c37.947,38.705,82.263,82.352,119.75,88.674
	c37.48,6.318,114.562,11.18,160.946,11.688c46.39,0.518,146.933,10.73,396.142-16.072c249.213-26.812,427.989-59.053,427.989-59.053
	s26.714-3.979,33.847-30.572c7.135-26.598,9.582-29.613,14.285-39.055C1432.028,599.126,1432.951,583.097,1418.612,575.007z
	 M1166.955,355.204c-3.601,7.825-168.047-32.896-250.662-55.711c-82.617-22.814-353.266-115.692-353.266-115.692
	s84.861,6.97,91.3,7.883c6.434,0.91,12.937-2.207,17.527-6.103c4.595-3.893,18.072-4.003,18.072-4.003
	s172.078,11.583,184.054,12.605s27.354,11.282,27.354,11.282s130.76,75.082,145.668,83.929
	c14.906,8.845,17.078,12.519,16.051,19.778c-1.027,7.262,13.379,13.496,13.379,13.496S1170.554,347.38,1166.955,355.204z"/>
<path fill="none" stroke="#000000" stroke-miterlimit="10" d="M1244.918,70.359l-231.178-7.738c0,0-226.149-11.19-239.849-11.979
	c-13.697-0.788-13.73,11.267-13.73,11.267l-3.162,35.171c0,0-2.196,15.905,16.529,19.699
	c18.724,3.794,190.614,33.126,292.729,62.852c28.027,8.159,81.816,26.888,114.379,54.102
	c32.564,27.214,290.188,243.644,290.188,243.644s14.977,11.477,28.661,15.459c13.683,3.982,62.411,12.646,62.411,12.646
	s21.647,4.742,17.413-7.045c-4.229-11.789-82.063-183.981-82.063-183.981s-33.336-72.059-25.527-124.566
	c5.599-37.639,32.229-54.945,32.229-54.945s10.129-11.423,4.506-22.675c-5.623-11.251-32.117-36.851-31.197-53.505
	c0.916-16.656,13.908-33.499,13.908-33.499s5.781-11.503-8.219-12.167c-14-0.666-43.265-2.786-43.265-2.786
	s-8.627-0.823-12.262,2.179s-3.289,6.383-9.734,3.76c-6.444-2.623-32.336-15-32.336-15s-7.364-0.031-10.145,1.042
	c-2.781,1.075-50.949,42.69-50.949,42.69s-9.924,5.751-8.914,9.195c1.015,3.445,6.863,29.312,6.863,29.312s0.758,6.1-4.144,8.312
	c-4.896,2.212-20.797,7.394-26.957,8.813c-6.161,1.422-25.506,7.613-28.252,1.324C1260.101,95.65,1255.632,70.377,1244.918,70.359z"
	/>
</svg>
