<?xml version="1.0" encoding="utf-8"?>
<!-- Generator: Adobe Illustrator 21.0.2, SVG Export Plug-In . SVG Version: 6.00 Build 0)  -->
<svg version="1.1" id="Layer_1" xmlns="http://www.w3.org/2000/svg" xmlns:xlink="http://www.w3.org/1999/xlink" x="0px" y="0px"
	 width="1579.858px" height="755.647px" viewBox="0 0 1579.858 755.647" enable-background="new 0 0 1579.858 755.647"
	 xml:space="preserve">
<path fill="none" stroke="#000000" stroke-miterlimit="10" d="M1166.955,355.204c-3.601,7.825-168.047-32.896-250.662-55.711
	c-82.617-22.814-353.266-115.692-353.266-115.692s84.861,6.97,91.3,7.883c6.434,0.91,12.937-2.207,17.527-6.103
	c4.595-3.893,18.072-4.003,18.072-4.003s172.078,11.583,184.054,12.605s27.354,11.282,27.354,11.282s130.76,75.082,145.668,83.929
	c14.906,8.845,17.078,12.519,16.051,19.778c-1.027,7.262,13.379,13.496,13.379,13.496S1170.554,347.38,1166.955,355.204z
	 M1244.918,70.359l-231.178-7.738c0,0-162.3-8.031-220.243-10.965c-2.527-0.128-4.855-0.246-6.963-0.354l-0.001,0.001
	c-4.232-1.39-8.035-4.409-10.565-8.088c-2.601-3.783-4.075-8.141-4.929-12.641l0.001,0c-0.045-2.346-0.349-4.629-0.885-6.82
	C766.823,10.118,754.525,0,739.864,0c-17.221,0-31.181,13.96-31.181,31.181c0,60.8-18.029,109.999-40.309,109.999
	c-65.954-8.548-115.403-14.814-115.403-14.814s-20.004-6.076-28.479,1.477c-8.479,7.553-25.25,16.623-43.354,16.078
	c-18.102-0.544-94.286-4.604-104.188-6.007c-9.899-1.403-33.758-4.111-38.755-6.837c-5.004-2.73-23.494-14.773-23.494-14.773
	s-6.752-5.473-11.645-6.14l-0.001,0.007l-99.96-14.487l0-0.005c-0.614-0.096-1.258-0.156-1.932-0.176
	c-18.104-0.544-38.092-2.028-29.302,16.723c8.789,18.752,27.597,57.103,20.658,91.807c-6.934,34.702-75.042,82.96-91.061,91.465
	c-16.02,8.503-88.471,49.413-88.471,49.413s-11.118,7.177-12.808,14.344c-1.688,7.168,9.121,18.799,9.121,18.799
	S236.42,614.245,274.366,652.95c37.947,38.705,82.263,82.352,119.75,88.674c37.48,6.318,114.562,11.18,160.946,11.688
	c46.39,0.518,146.933,10.73,396.142-16.072c249.213-26.812,427.989-59.053,427.989-59.053s26.714-3.979,33.847-30.572
	c7.135-26.598,9.582-29.613,14.285-39.055c3.391-6.801,4.816-17.031-0.025-25.242l-0.003-0.002c0-49.65,33.359-89.827,74.585-89.827
	l0.001,0.001c16.204,4.202,60.013,11.991,60.013,11.991s21.647,4.742,17.413-7.045c-4.229-11.789-82.063-183.981-82.063-183.981
	s-33.336-72.059-25.527-124.566c5.599-37.639,32.229-54.945,32.229-54.945s10.129-11.423,4.506-22.675
	c-5.623-11.251-32.117-36.851-31.197-53.505c0.916-16.656,13.908-33.499,13.908-33.499s5.781-11.503-8.219-12.167
	c-14-0.666-43.265-2.786-43.265-2.786s-8.627-0.823-12.262,2.179s-3.289,6.383-9.734,3.76c-6.444-2.623-32.336-15-32.336-15
	s-7.364-0.031-10.145,1.042c-2.781,1.075-50.949,42.69-50.949,42.69s-5.146,2.982-7.65,5.938
	c-20.207,15.302-46.482,22.398-71.678,19.358L1244.918,70.359z"/>
</svg>
