<?xml version="1.0" encoding="utf-8"?>
<!-- Generator: Adobe Illustrator 21.0.2, SVG Export Plug-In . SVG Version: 6.00 Build 0)  -->
<svg version="1.1" id="Layer_1" xmlns="http://www.w3.org/2000/svg" xmlns:xlink="http://www.w3.org/1999/xlink" x="0px" y="0px"
	 width="1579.858px" height="755.647px" viewBox="0 0 1579.858 755.647" enable-background="new 0 0 1579.858 755.647"
	 xml:space="preserve">
<path fill="none" stroke="#000000" stroke-miterlimit="10" d="M1427.3,583.318c-1.874-3.178-4.687-6.054-8.688-8.311
	c-14.342-8.094-191.612-111.311-207.104-135.055c-15.488-23.738,6.381-26.027,34.854-22.666
	c28.479,3.361,95.146,12.807,103.25,7.895c8.103-4.912,20.343-16.508,1.279-29.309c-19.059-12.803-155.938-117.418-200.233-146.924
	c-44.302-29.503-98.722-51.438-160.681-63.244c-39.459-7.521-205.919-29.531-321.603-44.524 M203.095,95.679
	c15.869,2.491,12.057,29.413,12.057,29.413s-1.173,46.296,39.939,50.77c41.11,4.476,41.704-51.997,43.106-61.898
	c0.465-3.28,2.434-4.13,4.859-3.8 M1316.605,50.922c-0.973,1.149-1.547,2.293-1.264,3.257c1.015,3.445,6.863,29.312,6.863,29.312
	s0.758,6.1-4.144,8.312c-4.896,2.212-20.797,7.394-26.957,8.813c-6.161,1.422-25.506,7.613-28.252,1.324
	c-2.75-6.29-7.219-31.563-17.933-31.581 M786.534,51.302c-6.613-0.337-11.055-0.568-12.643-0.66
	c-13.697-0.788-13.73,11.267-13.73,11.267l-3.162,35.171c0,0-2.196,15.905,16.529,19.699
	c18.724,3.794,190.614,33.126,292.729,62.852c28.027,8.159,81.816,26.888,114.379,54.102
	c32.564,27.214,290.188,243.644,290.188,243.644s14.977,11.477,28.661,15.459c0.709,0.206,1.512,0.425,2.398,0.655"/>
</svg>
