<?xml version="1.0" encoding="utf-8"?>
<!-- Generator: Adobe Illustrator 16.0.0, SVG Export Plug-In . SVG Version: 6.00 Build 0)  -->
<!DOCTYPE svg PUBLIC "-//W3C//DTD SVG 1.1//EN" "http://www.w3.org/Graphics/SVG/1.1/DTD/svg11.dtd">
<svg version="1.1" id="Layer_1" xmlns="http://www.w3.org/2000/svg" xmlns:xlink="http://www.w3.org/1999/xlink" x="0px" y="0px"
	 width="873.762px" height="670.699px" viewBox="0 0 873.762 670.699" enable-background="new 0 0 873.762 670.699"
	 xml:space="preserve">
<path fill="none" stroke="#000000" stroke-miterlimit="10" d="M73.213,66.663c5.35,1.943,10.741,3.697,16.268,5.222
	c39.271,10.832,77.98,23.109,115.999,35.041c25.436,7.982,50.561,15.809,75.335,22.946c11.5,2.884,22.832,5.925,33.929,9.35
	c21.329,5.575,42.379,10.437,63.125,14.229c19.887,3.636,39.579,5.589,59.015,5.916c19.438-0.327,39.125-2.28,59.011-5.916
	c20.745-3.792,41.8-8.654,63.128-14.229c11.102-3.425,22.431-6.466,33.931-9.35c24.773-7.138,49.896-14.964,75.334-22.946
	c38.021-11.932,76.729-24.209,115.999-35.041c7.711-2.127,15.16-4.701,22.598-7.612c5.647-2.212,16.459-6.375,21.229,14.076
	c1.544,6.626,3.068,13.195,4.582,19.727c8.592,32.264,15.625,64.927,22.358,97.666c5.105,22.38,10.288,45.019,15.723,68.431
	c2.023,8.744,3.021,15.914,2.969,22.532c0.037,0.675,0.021,1.312-0.047,1.953c-0.424,10.433-3.553,19.708-9.48,31.999
	c-18.577,38.498-37.154,76.997-55.729,115.495c-22.209,49.189-44.438,98.377-66.289,147.77c-2.967,6.705-2.727,5.604-9.756,7.635
	L478.46,665.588c-6.88,1.229-13.021,2.234-18.621,3.025c-7.497,1.547-14.732,2.223-22.958,2.062
	c-8.222,0.156-15.46-0.518-22.958-2.062c-5.6-0.791-11.744-1.799-18.621-3.025l-253.977-74.033c-7.033-2.035-6.789-0.93-9.757-7.633
	c-21.851-49.391-44.075-98.57-66.282-147.762c-18.579-38.502-37.158-77.002-55.737-115.503c-5.931-12.292-9.061-21.566-9.482-31.999
	c-0.069-0.642-0.084-1.277-0.047-1.953c-0.055-6.618,0.941-13.788,2.969-22.532c5.433-23.412,10.612-46.05,15.72-68.431
	c6.736-32.739,13.771-65.402,22.36-97.666c1.514-6.532,3.038-13.102,4.584-19.727c0.448-1.92,0.95-3.624,1.496-5.132
	c1.064-2.943,1.559-6.735-0.465-9.388c-2.614-3.428-7.187-2.406-10.768-3.858c-3.729-1.511-7.104-3.842-9.983-6.636
	c-5.87-5.695-9.222-13.936-9.222-22.154C16.71,13.96,30.67,0,47.891,0s31.181,13.96,31.181,31.181
	c0,5.254-1.333,10.463-3.876,15.059c-1.804,3.26-5.09,5.728-6.365,9.284C67.265,59.881,69.831,64.002,73.213,66.663z"/>
</svg>
