<?xml version="1.0" encoding="utf-8"?>
<!-- Generator: Adobe Illustrator 16.0.0, SVG Export Plug-In . SVG Version: 6.00 Build 0)  -->
<!DOCTYPE svg PUBLIC "-//W3C//DTD SVG 1.1//EN" "http://www.w3.org/Graphics/SVG/1.1/DTD/svg11.dtd">
<svg version="1.1" id="Layer_1" xmlns="http://www.w3.org/2000/svg" xmlns:xlink="http://www.w3.org/1999/xlink" x="0px" y="0px"
	 width="1188.133px" height="733.969px" viewBox="0 0 1188.133 733.969" enable-background="new 0 0 1188.133 733.969"
	 xml:space="preserve">
<path d="M530.216,95.214c-0.384,2.153-0.581,4.2-0.554,6.382c0.06,4.208-0.279,8.209-0.708,12.418
	c-1.454,14.38-2.175,28.981-3.065,43.409c-1.16,18.753-2.639,37.492-4.021,56.23c-1.433,19.444-2.895,38.897-4.541,58.325
	c-1.365,16.145-2.681,32.29-4.126,48.428c-0.141,1.569-0.265,3.139-0.415,4.707c-6.112,63.876-56.291,107.087-56.291,107.087
	L220.706,669.296c0,0-13.667,16.945-11.52,21.824c2.148,4.883,16.43,5.881,16.43,5.881s75.521,6.09,91.091,5.059
	c15.569-1.024,14.547-16.598,14.547-16.598s0.188-16.109,7.312-39.641c4.166-13.763,19.994-21.689,32.84-24.438
	c15.812-3.381,31.744,1.277,43.567,12.342c6.446,6.029,12.737,15.41,14.56,24.22c1.578,7.62,1.683,15.735-0.602,23.213
	c-2.161,7.076-6.445,15.143-3.654,22.645c3.445,9.261,18.376,13.265,26.896,14.633c7.721,1.24,15.563,1.214,23.319,2.125
	c16.671,1.957,33.51,2.888,50.239,4.271c22.897,1.893,45.868,3.51,68.803,4.869c22.992,1.363,45.98,2.799,69,3.555
	c17.11,0.562,34.228,1.15,51.335,0.256c1.395-0.069,2.79-0.123,4.182-0.231c54.846-4.48,114.843-59.302,171.69-113.824
	c56.851-54.527,264.912-289.25,288.486-322.572c23.57-33.324-7.113-55.873-7.113-55.873S901.219,12.812,895.76,5.382
	c-5.455-7.434-13.186-5.125-23.946-4.756c-10.765,0.367-22.15,4.288-28.774,11.575c-6.625,7.287-15.7,18.931-36.534,23.73
	c-11.416,2.631-22.67-0.493-32.684-6.077c-9.913-5.529-17.893-13.586-29.34-15.998c-6.018-1.267-12.346-1.3-18.377-0.122
	c-13.436,2.625-26.694,6.7-39.825,10.508c-13.436,3.896-26.79,8.045-40.103,12.34c-65.06,20.99-93.673,31.902-93.673,31.902
	c-6.951,2.637-14.438,6.457-18.959,12.616c-2.182,2.969-2.644,10.295-3.311,13.988C530.229,95.131,530.222,95.173,530.216,95.214z
	 M502.445,60.638c-8.703-3.779-44.824,15.734-44.824,15.734s-124.824,67.413-234.896,182.292
	C180.985,302.228,76.37,418.021,31.033,537.037c-17.062,44.791-32.694,79.748-30.893,93.459c0.734,5.609,3.185,11.731,6.794,16.109
	c5.023,6.094,10.75,6.524,18.25,7.186c59.763,5.281,125.637,9.596,125.637,9.596s21.312-2.633,31.07-10.807
	c9.757-8.174,260.626-257.039,260.626-257.039s37.795-35.812,47.075-72.637c9.273-36.825,12.4-89.25,12.4-89.25l5.353-142.062
	C507.348,91.59,511.145,64.417,502.445,60.638z M463.101,241.479c-2.333,26.407-25.632,45.923-52.039,43.588
	c-26.306-2.323-38.379-20.124-46.304-51.61c-4.198-13.084-6.913-20.211-5.874-31.974c2.334-26.408,25.631-45.921,52.037-43.588
	c26.307,2.323,38.688,24.167,44.664,47.451C460.327,219.819,464.141,229.716,463.101,241.479z"/>
</svg>
