<?xml version="1.0" encoding="utf-8"?>
<!-- Generator: Adobe Illustrator 16.0.0, SVG Export Plug-In . SVG Version: 6.00 Build 0)  -->
<!DOCTYPE svg PUBLIC "-//W3C//DTD SVG 1.1//EN" "http://www.w3.org/Graphics/SVG/1.1/DTD/svg11.dtd">
<svg version="1.1" id="Layer_1" xmlns="http://www.w3.org/2000/svg" xmlns:xlink="http://www.w3.org/1999/xlink" x="0px" y="0px"
	 width="1756.281px" height="802.832px" viewBox="0 0 1756.281 802.832" enable-background="new 0 0 1756.281 802.832"
	 xml:space="preserve">
<path fill="none" stroke="#000000" stroke-linejoin="round" stroke-miterlimit="10" d="M1071.764,59.868
	c2.764,93.068-0.066,180.09-1.715,270.547c0.52,33.822-4.603,63.46-16.91,90.798c-13.104,29.104-34.125,55.537-57.197,79.604
	c-81.051,84.313-162.1,168.638-243.147,252.958c6.417,0.575,12.777,1.144,19.085,1.701 M712.728,738.537
	c4.675,0.135,9.308,0.224,13.898,0.267c10.674-0.551,19.442-5.414,26.312-14.59c90.528-91.312,181.293-181.896,269.111-281.705
	c26.097-22.032,37.613-63.312,34.559-123.839c5.096-86.06,3.307-169.923,0.088-253.331"/>
</svg>
