<?xml version="1.0" encoding="utf-8"?>
<!-- Generator: Adobe Illustrator 16.0.0, SVG Export Plug-In . SVG Version: 6.00 Build 0)  -->
<!DOCTYPE svg PUBLIC "-//W3C//DTD SVG 1.1//EN" "http://www.w3.org/Graphics/SVG/1.1/DTD/svg11.dtd">
<svg version="1.1" id="Layer_1" xmlns="http://www.w3.org/2000/svg" xmlns:xlink="http://www.w3.org/1999/xlink" x="0px" y="0px"
	 width="1756.281px" height="802.832px" viewBox="0 0 1756.281 802.832" enable-background="new 0 0 1756.281 802.832"
	 xml:space="preserve">
<path fill="none" stroke="#000000" stroke-linejoin="round" stroke-miterlimit="10" d="M1726.121,242.707
	c-40.818-31.423-80.743-59.339-121.564-90.764c-31.75-24.442-64.399-52.392-96.147-76.833
	c-26.115-22.904-46.979-47.469-64.343-75.11c-18.702,6.037-37.258,9.003-55.961,15.041c-5.366,36.419-22.215,42.933-38.221,47.396
	c-10.145,2.828-21.172,3.229-30.996-2.56c-14.354-8.461-21.892-27.703-33.771-53.735c-69.711,15.796-146.879,35.022-213.353,53.726
	c2.763,93.068-0.067,180.09-1.715,270.547c0.519,33.822-4.604,63.46-16.91,90.798c-13.104,29.104-34.125,55.537-57.198,79.604
	c-81.05,84.313-162.099,168.638-243.146,252.958c273.754,24.565,447.577,33.618,521.469,27.149
	c35.517,2.435,63.694-10.396,88.539-30.158c46.851-34.385,115.773-109.768,219.84-230.914
	c45.601-53.084,103.957-118.012,160.035-186.988C1765.251,300.6,1759.732,270.547,1726.121,242.707z M957.449,762.788
	c-21.375,5.479-43.273-7.488-48.754-28.865c-5.476-21.377,7.491-43.271,28.866-48.752c21.375-5.477,43.277,7.49,48.753,28.867
	C991.795,735.411,978.824,757.312,957.449,762.788z M242.101,226.012c-10.488,1.546-20.649,6.325-30.481,14.338
	C143.036,285.757,75.383,333.393,9.776,385.934c-12.239,16.955-14.773,30.171,2.828,39.426
	c90.099,27.395,180.199,54.791,270.298,82.186c30.943,7.258,61.106,18.812,89.883,38.006
	c47.201,45.729,94.042,94.599,140.406,147.617c19.004,20.312,36.259,26.781,52.956,28.836
	c58.297,10.742,111.79,16.342,160.479,16.799c10.674-0.551,19.441-5.414,26.312-14.59
	c90.529-91.312,181.293-181.896,269.112-281.705c26.096-22.032,37.612-63.312,34.558-123.839
	c5.096-86.06,3.307-169.923,0.088-253.331C687.861,156.007,430.432,204.185,242.101,226.012z M483.761,364.675
	c-9.847,24.619-37.954,36.667-62.571,26.826c-14.162-5.666-24.163-17.374-28.229-30.984c-2.642-8.83-6.61-21.842-8.143-30.559
	c-1.496-8.505-0.725-17.506,2.707-26.084c9.845-24.619,37.952-36.667,62.571-26.822c12.979,5.19,22.468,15.46,27.09,27.617
	c3.165,8.324,6.021,20.897,8.405,29.932C488.138,344.239,487.733,354.742,483.761,364.675z M1026.564,299.249
	c-2.302,26.414-25.722,46.083-52.132,43.783c-15.196-1.326-28.157-9.639-35.989-21.491c-5.08-7.688-12.646-18.996-16.636-26.897
	c-3.893-7.708-5.758-16.546-4.952-25.752c2.299-26.416,25.719-46.081,52.133-43.779c13.93,1.213,25.979,8.299,33.922,18.601
	c5.438,7.051,11.812,18.26,16.709,26.217C1024.844,278.422,1027.494,288.593,1026.564,299.249z"/>
</svg>
