<?xml version="1.0" encoding="utf-8"?>
<!-- Generator: Adobe Illustrator 16.0.0, SVG Export Plug-In . SVG Version: 6.00 Build 0)  -->
<!DOCTYPE svg PUBLIC "-//W3C//DTD SVG 1.1//EN" "http://www.w3.org/Graphics/SVG/1.1/DTD/svg11.dtd">
<svg version="1.1" id="Layer_1" xmlns="http://www.w3.org/2000/svg" xmlns:xlink="http://www.w3.org/1999/xlink" x="0px" y="0px"
	 width="1336.91px" height="1044.559px" viewBox="0 0 1336.91 1044.559" enable-background="new 0 0 1336.91 1044.559"
	 xml:space="preserve">
<path fill="none" stroke="#000000" stroke-linejoin="round" stroke-miterlimit="10" d="M1324.357,779.766
	c-3.199-3.354-6.396-6.715-9.593-10.068c-116.178-122.01-232.354-244.018-348.53-366.021c-8.787-9.229-17.574-18.457-26.357-27.684
	c-36.527-37.353-65.521-61.627-109.199-89.829c-12.549-8.131-25.104-16.261-37.649-24.393
	c-20.92-13.552-41.836-27.105-62.759-40.657c-61.489-35.285-122.979-70.57-184.47-105.855c0.086,0.137-2.356,2.264-5.873,5.216
	c-17.648,14.825-31.314,26.746-56.042,17.866c-8.036-2.885-12.818-9.2-15.393-16.938c-4.312-12.978-1.802-27.529-0.997-40.997
	c0.965-16.097,2.906-32.139,4.619-48.214C455.363,21.36,439.048,10.829,422.298,0c-9.312,5.929-18.624,11.859-27.938,17.789
	c-2.604,1.66-5.216,3.321-7.822,4.98c-23.146,16.289-33.935,19.501-61.456,24.28c-52.495,9.114-104.662,20.387-157.484,27.342
	c-8.152,1.072-13.072,1.398-16.378,2.891c-8.78,3.965-8.433,14.27-5.524,21.25c7.916,19.01,14.021,38.11,17.295,57.721
	c3.689,22.098,5.098,46.586,0.768,69.628c-1.82,9.702-4.657,19.148-8.77,28.051c-9.251,20.029-21.9,30.125-38.708,42.646
	c-9.396,7.001-18.791,14.001-28.188,21c-20.44,15.23-40.437,30.593-60.317,46.441c-7.927,6.319-13.271,11.136-17.047,15.711
	c-8.229,9.969-13.044,24.542-9.604,36.944c1.632,5.877,4.396,11.551,7.163,17.118C52.3,522.366,98.677,611.357,146.84,699.119
	c26.415,48.137,52.728,96.059,78.864,143.896c19.826,36.285,39.778,62.654,62.618,83.244c35.63,32.125,78.286,50.188,138.444,69.922
	c12.688,4.16,25.302,8.377,37.729,12.666c40.011,11.904,80.021,23.811,120.022,35.712c-17.301-97.731-34.604-195.47-51.904-293.198
	c-16.484-59.748-31.514-120.242-47.996-179.99c-9.062-2.996-19.06-6.01-28.117-9.006l28.126,8.432l6.427-18.389
	c0.351-1.041,0.684-2,0.98-2.818l-0.98,2.818c-1.938,5.756-4.49,14.272-6.161,18.812c57.099,62.732,106.683,124.664,156.342,200.275
	c33.979,51.738,67.993,109.881,104.479,179.07c0.718,0.494,1.433,0.984,2.146,1.48c1.546-0.564,3.093-1.135,4.64-1.703
	c3.932-0.262,7.856-0.521,11.793-0.789c26.115-5.736,52.229-11.479,78.35-17.221c129.986-27.924,259.979-55.846,389.968-83.768
	c35.948-8.783,71.045-18.775,99.889-43.539C1340.089,798.502,1338.208,794.143,1324.357,779.766z M992.607,869.168
	c-9.244,13.381-27.699,16.754-41.08,7.51c-13.382-9.244-16.756-27.695-7.515-41.082c9.248-13.381,27.701-16.756,41.082-7.512
	C998.479,837.328,1001.854,855.785,992.607,869.168z"/>
</svg>
