<?xml version="1.0" encoding="utf-8"?>
<!-- Generator: Adobe Illustrator 16.0.0, SVG Export Plug-In . SVG Version: 6.00 Build 0)  -->
<!DOCTYPE svg PUBLIC "-//W3C//DTD SVG 1.1//EN" "http://www.w3.org/Graphics/SVG/1.1/DTD/svg11.dtd">
<svg version="1.1" id="Layer_1" xmlns="http://www.w3.org/2000/svg" xmlns:xlink="http://www.w3.org/1999/xlink" x="0px" y="0px"
	 width="1336.91px" height="1044.559px" viewBox="0 0 1336.91 1044.559" enable-background="new 0 0 1336.91 1044.559"
	 xml:space="preserve">
<path d="M1324.357,779.766c-3.199-3.354-6.396-6.715-9.592-10.069C1198.59,647.688,1082.41,525.68,966.234,403.674
	c-8.787-9.229-17.574-18.457-26.356-27.684c-36.527-37.353-65.521-61.627-109.199-89.829c-12.549-8.131-25.104-16.261-37.652-24.393
	c-20.92-13.552-41.836-27.105-62.756-40.657c-61.491-35.285-122.979-70.57-184.471-105.855c0.086,0.137-2.358,2.264-5.873,5.216
	c-17.65,14.825-31.316,26.746-56.042,17.866c-8.036-2.885-12.82-9.2-15.394-16.938c-4.312-12.978-1.802-27.529-0.997-40.997
	c0.966-16.097,2.906-32.139,4.619-48.214C455.363,21.36,439.048,10.829,422.298,0c-9.312,5.929-18.624,11.859-27.938,17.789
	c-2.604,1.66-5.214,3.321-7.822,4.98c-23.144,16.289-33.933,19.501-61.456,24.28c-52.494,9.114-104.661,20.387-157.483,27.342
	c-8.152,1.072-13.072,1.398-16.377,2.891c-8.781,3.965-8.434,14.27-5.525,21.25c7.916,19.01,14.021,38.11,17.295,57.721
	c3.689,22.098,5.099,46.586,0.77,69.628c-1.821,9.702-4.658,19.148-8.771,28.051c-9.251,20.029-21.899,30.125-38.708,42.646
	c-9.396,7.001-18.791,14.001-28.187,21c-20.441,15.23-40.438,30.593-60.318,46.441c-7.927,6.319-13.271,11.136-17.047,15.711
	c-8.229,9.969-13.044,24.541-9.604,36.944c1.632,5.877,4.396,11.551,7.163,17.118C52.3,522.366,98.677,611.357,146.84,699.119
	c26.415,48.137,52.728,96.059,78.864,143.896c19.825,36.285,39.777,62.654,62.617,83.244c35.63,32.125,78.284,50.188,138.444,69.922
	c12.688,4.16,25.3,8.377,37.729,12.666c40.012,11.904,80.021,23.81,120.024,35.712c-17.301-97.732-34.604-195.47-51.906-293.199
	c-16.483-59.748-31.512-120.242-47.996-179.99c-9.062-2.996-19.058-6.01-28.117-9.006l28.128,8.432l6.426-18.389
	c0.349-1.041,0.682-2,0.979-2.818l-0.979,2.818c-1.939,5.756-4.49,14.273-6.161,18.812
	c57.097,62.732,106.681,124.664,156.341,200.275c33.979,51.738,67.993,109.881,104.478,179.07c0.719,0.494,1.434,0.985,2.146,1.481
	c1.545-0.565,3.09-1.135,4.637-1.703c3.933-0.262,7.859-0.522,11.793-0.789c26.115-5.737,52.232-11.479,78.351-17.221
	c129.985-27.924,259.979-55.846,389.967-83.768c35.949-8.783,71.045-18.775,99.889-43.539
	C1340.09,798.502,1338.21,794.143,1324.357,779.766z M992.607,869.168c-9.244,13.381-27.699,16.754-41.08,7.51
	s-16.756-27.696-7.514-41.082c9.248-13.381,27.701-16.756,41.082-7.512C998.479,837.328,1001.854,855.785,992.607,869.168z"/>
</svg>
