<?xml version="1.0" encoding="utf-8"?>
<!-- Generator: Adobe Illustrator 16.0.0, SVG Export Plug-In . SVG Version: 6.00 Build 0)  -->
<!DOCTYPE svg PUBLIC "-//W3C//DTD SVG 1.1//EN" "http://www.w3.org/Graphics/SVG/1.1/DTD/svg11.dtd">
<svg version="1.1" id="Layer_1" xmlns="http://www.w3.org/2000/svg" xmlns:xlink="http://www.w3.org/1999/xlink" x="0px" y="0px"
	 width="1321.102px" height="888.622px" viewBox="0 0 1321.102 888.622" enable-background="new 0 0 1321.102 888.622"
	 xml:space="preserve">
<path fill="none" stroke="#000000" stroke-linejoin="round" stroke-miterlimit="10" d="M975.094,787.842
	c-8.047,20.012-30.928,29.77-50.938,21.725c-20.014-8.043-29.771-30.926-21.729-50.938c8.045-20.012,30.928-29.771,50.938-21.727
	C973.379,744.948,983.137,767.829,975.094,787.842z M1275.084,743.706c0.926-0.385,1.846-0.781,2.767-1.178
	c0.908-0.381,1.836-0.717,2.776-1.012c1.058-0.33,2.131-0.607,3.218-0.822c0.866-0.174,1.739-0.309,2.616-0.404
	c1.147-0.127,2.304-0.191,3.459-0.191c17.222,0,31.182,13.965,31.182,31.186s-13.96,31.182-31.182,31.182
	c-1.611,0-3.34-0.369-4.93-0.619c-1.604-0.254-3.201-0.58-4.763-1.033c-3.076-0.896-5.976-2.303-8.579-4.17
	c-2.601-1.863-4.917-4.145-6.825-6.715c-1.911-2.576-3.368-5.455-4.321-8.518c-0.641-2.047-1.053-4.152-1.375-6.271
	c-0.295-1.922-0.364-3.877-0.762-5.785c-0.179-0.861-0.523-1.762-1.198-2.365c-1.513-1.35-3.171-0.213-4.827,0.215
	c-4.276,2.121-9.171,3.361-14.439,4.066c-113.498,8.609-312.17,45.35-560.705,98.559c-161.719,27.426-212.742,19.688-254.39,8.973
	c20.3-103.082,40.598-206.164,60.896-309.242c-53.517,92.656-107.022,185.314-160.539,277.971
	c-25.973-23.43-53.353-57.574-75.492-93.777C200.15,675.29,153.318,595.95,107.078,518.268
	C71.988,459.313,35.602,402.257,2.92,343.096c-5.604-22.31-3.8-43.277,11.202-61.852c56.564-51.724,101.794-89.76,139.432-118.641
	s67.69-48.606,93.908-63.704C323.108,45.124,357.976,16.084,369.19,0c15.736,6.976,29.622,13.697,45.356,20.674
	c-17.147,61.019,48.249,88.182,79.623,39.816c92.247,47.353,212.337,114.05,301.007,157.362
	c70.062,33.379,95.804,63.679,122.229,94.026c122.396,124.74,197.696,225.177,300.687,346.042
	c35.334,42.484,46.133,62.512,50.979,77.094c-0.052,1.973-0.177,3.84-0.371,5.611c0.451,1.576,0.337,3.584,2.231,4.119
	c0.751,0.211,1.482,0.029,2.188-0.246C1273.778,744.243,1274.433,743.975,1275.084,743.706z"/>
</svg>
