<?xml version="1.0" encoding="utf-8"?>
<!-- Generator: Adobe Illustrator 16.0.0, SVG Export Plug-In . SVG Version: 6.00 Build 0)  -->
<!DOCTYPE svg PUBLIC "-//W3C//DTD SVG 1.1//EN" "http://www.w3.org/Graphics/SVG/1.1/DTD/svg11.dtd">
<svg version="1.1" id="Layer_1" xmlns="http://www.w3.org/2000/svg" xmlns:xlink="http://www.w3.org/1999/xlink" x="0px" y="0px"
	 width="1334.449px" height="856.511px" viewBox="0 0 1334.449 856.511" enable-background="new 0 0 1334.449 856.511"
	 xml:space="preserve">
<path fill="none" stroke="#000000" stroke-linejoin="round" stroke-miterlimit="10" d="M868.553,92.058
	c13.979-6.435,31.811,2.28,39.688,19.404c7.887,17.124,2.914,36.336-11.062,42.771c-13.979,6.435-31.811-2.281-39.689-19.403
	C849.606,117.706,854.576,98.492,868.553,92.058z M52.89,788.263c-1.045-0.357-2.048-1.123-2.854-1.742
	c-0.722-0.553-1.517-1.004-2.284-1.486c-3.161-1.988-6.568-3.375-10.228-4.145c-2.09-0.438-4.208-0.656-6.345-0.656
	C13.96,780.234,0,794.195,0,811.416s13.96,31.18,31.182,31.18c17.221,0,31.181-13.959,31.181-31.18c0-1.703-0.682-3.623,0.517-5.096
	c0.796-0.979,2.921-1.387,4.022-0.639c11.581,7.85,29.338,8.887,41.529,12.752l0.16,0.053l0.166,0.025
	c26.943,4.811,53.889,9.615,80.832,14.424l0.056,0.01l0.058,0.01c35.638,4.896,71.273,9.797,106.91,14.695l0.105,0.014l0.107,0.008
	c33.915,2.076,67.832,4.154,101.748,6.23l0.041,0.002h0.041c26.938,0.867,53.874,1.736,80.812,2.604l0.104,0.004l0.104-0.004
	c26.349-1.084,52.688-2.166,79.034-3.248l0.067-0.004l0.064-0.006c21.903-1.961,43.812-3.922,65.718-5.881l0.115-0.012l0.114-0.021
	c23.808-4.145,47.608-8.295,71.413-12.438l0.113-0.021l0.104-0.029c27.986-7.213,55.979-14.428,83.963-21.643l0.062-0.02l0.062-0.02
	c35.025-10.73,70.055-21.463,105.08-32.191l0.156-0.049l0.152-0.066c29.828-13.119,59.658-26.24,89.488-39.365l0.104-0.045
	l0.1-0.055c20.827-11.18,41.652-22.355,62.48-33.539l0.066-0.033l0.064-0.041c23.555-14.369,47.104-28.74,70.656-43.109l0.15-0.094
	l0.143-0.109c25.688-20.502,51.377-41.004,77.062-61.504l0.127-0.104l0.112-0.111c17.038-17.129,34.075-34.258,51.114-51.385
	l0.021-0.023l0.021-0.023c17.162-18.096,34.322-36.189,51.484-54.275l0.143-0.15l0.115-0.166
	c13.672-19.387,27.344-38.77,41.014-58.156l4.07-5.771L851.937,527.39l447.104-162.656l-11.526-14.17l-75.844-77.857
	c-56.252-57.391-112.507-114.781-168.755-172.169l-0.2-0.204l-0.23-0.16c-20.76-14.028-41.521-28.056-62.271-42.084
	c-21.894-16.794-43.78-33.589-65.67-50.385L905.362,0l-13.369,5.535L607.838,132.652l-0.115,0.064
	c-4.625,2.607-9.252,5.215-13.878,7.822l-0.297,0.167l-0.25,0.233c-36.785,34.479-73.565,68.959-110.354,103.438l-0.022,0.022
	c-25.284,24.252-50.565,48.504-75.852,72.755l-0.021,0.023l-0.021,0.023c-25.706,25.818-51.413,51.637-77.119,77.456l-0.062,0.06
	l-0.058,0.063c-23.278,26.359-46.561,52.718-69.84,79.079l-0.036,0.041l-0.034,0.041c-14.855,18.162-29.714,36.326-44.569,54.49
	l-0.033,0.041l-0.03,0.041c-18.124,23.857-36.248,47.717-54.372,71.576l-0.039,0.051l-0.036,0.057
	c-20.42,29.566-40.84,59.139-61.261,88.709l-3.188,4.613l43.118-1.33l86.101-34.662l37.721-64.355
	c15.136-21.775,30.271-43.553,45.406-65.328c13.909-18.225,27.818-36.449,41.729-54.674c11.17-13.738,22.342-27.475,33.513-41.213
	c8.86-9.408,17.723-18.815,26.579-28.223c14.565-12.268,29.139-24.529,43.707-36.798c3.729-2.732,8.363-5.843,12.99-6.541
	c2.524,6.542-7.872,18.954-10.862,24.123c-5.307,9.171-10.613,18.336-15.925,27.509c-10.508,18.148-20.958,36.34-31.523,54.459
	l-0.021,0.025c-17.087,30.318-34.177,60.641-51.265,90.961c0,0-0.017,0.025-0.03,0.049c-8.213,15.355-16.422,30.719-24.631,46.072
	c-6.586,11.939-13.172,23.869-19.758,35.807c-10.317,18.693-24.482,33.359-45.429,39.346c-27.518,7.855-54.812,16.369-82.271,24.434
	c-15.701,4.611-31.34,9.436-47.009,14.148l-2.322,0.697l0.331,2.396c1.321,9.613,0.986,20.283-3.781,28.982
	c-3.495,6.377-8.979,10.893-15.86,13.197c-4.339,1.457-8.987,1.945-13.543,1.604c-9.122-0.695-18.516-4.854-24.165-12.229
	c-2.301-3.008-3.873-6.426-4.601-10.145l-2.178-11.146l-12.61,41.318l-0.029,0.207c-0.512,3.389-2.136,8.645-2.854,13.416
	c-0.149,1-0.481,1.729-1.332,2.338C54.689,788.578,53.774,788.566,52.89,788.263z"/>
</svg>
