<?xml version="1.0" encoding="utf-8"?>
<!-- Generator: Adobe Illustrator 16.0.0, SVG Export Plug-In . SVG Version: 6.00 Build 0)  -->
<!DOCTYPE svg PUBLIC "-//W3C//DTD SVG 1.1//EN" "http://www.w3.org/Graphics/SVG/1.1/DTD/svg11.dtd">
<svg version="1.1" id="Layer_1" xmlns="http://www.w3.org/2000/svg" xmlns:xlink="http://www.w3.org/1999/xlink" x="0px" y="0px"
	 width="1334.449px" height="856.511px" viewBox="0 0 1334.449 856.511" enable-background="new 0 0 1334.449 856.511"
	 xml:space="preserve">
<path fill="none" stroke="#000000" stroke-linejoin="round" stroke-miterlimit="10" d="M851.946,527.386l447.104-162.658
	l-11.529-14.17l-75.842-77.857c-56.252-57.391-112.506-114.781-168.754-172.169l-0.201-0.204l-0.232-0.16
	c-20.758-14.028-41.52-28.056-62.271-42.084c-21.894-16.794-43.781-33.589-65.67-50.385L905.362,0l-13.369,5.535L607.838,132.652
	l-0.115,0.064c-4.625,2.607-9.252,5.215-13.878,7.822l-0.297,0.167l-0.25,0.233c-36.785,34.479-73.566,68.959-110.354,103.438
	l-0.022,0.022c-25.284,24.252-50.565,48.504-75.852,72.755l-0.021,0.023l-0.021,0.023c-25.706,25.818-51.413,51.637-77.119,77.456
	l-0.061,0.06l-0.058,0.063c-23.278,26.359-46.561,52.718-69.839,79.079l-0.037,0.041l-0.034,0.041
	c-14.855,18.162-29.714,36.326-44.569,54.49l-0.033,0.041l-0.03,0.041c-18.124,23.857-36.248,47.717-54.372,71.576l-0.039,0.051
	l-0.036,0.057c-20.42,29.566-40.84,59.139-61.261,88.709l-3.188,4.613l43.119-1.33l86.1-34.662l37.721-64.355
	c15.136-21.775,30.271-43.553,45.406-65.328c13.909-18.225,27.819-36.449,41.729-54.674c11.17-13.738,22.342-27.475,33.513-41.213
	c8.86-9.408,17.722-18.815,26.579-28.224c14.567-12.267,29.138-24.529,43.707-36.798c3.729-2.732,8.363-5.843,12.99-6.541
	c2.524,6.542-7.872,18.954-10.862,24.123c-5.307,9.171-10.614,18.337-15.925,27.509c-10.508,18.149-20.958,36.341-31.524,54.46
	l-0.02,0.025c-17.087,30.318-34.175,60.641-51.265,90.961l-0.017,0.025l-0.015,0.021c-8.211,15.355-16.42,30.721-24.629,46.072
	c-6.588,11.939-13.174,23.869-19.76,35.809c-10.317,18.691-24.481,33.357-45.429,39.346c-27.518,7.854-54.812,16.369-82.271,24.434
	c-15.701,4.611-31.34,9.432-47.009,14.148l-2.322,0.697l0.331,2.395c1.322,9.613,0.986,20.283-3.781,28.982
	c-3.495,6.377-8.979,10.893-15.86,13.201c-4.339,1.457-8.987,1.945-13.543,1.6c-9.122-0.695-18.516-4.85-24.165-12.225
	c-2.301-3.008-3.873-6.426-4.601-10.146l-2.178-11.145L59.76,772.003l-0.029,0.207c-0.829,5.504-4.594,15.926-2.651,21.209
	c7.26,19.732,34.575,19.693,51.353,25.014l0.16,0.053l0.166,0.025c26.943,4.811,53.889,9.615,80.832,14.424l0.056,0.01l0.058,0.01
	c35.638,4.896,71.273,9.797,106.91,14.695l0.105,0.014l0.107,0.008c33.915,2.076,67.832,4.154,101.748,6.23l0.041,0.002h0.041
	c26.938,0.867,53.874,1.736,80.812,2.604l0.104,0.004l0.104-0.004c26.348-1.084,52.688-2.166,79.035-3.248l0.066-0.004l0.065-0.006
	c21.903-1.961,43.812-3.922,65.718-5.881l0.115-0.012l0.115-0.021c23.807-4.146,47.606-8.295,71.411-12.439l0.113-0.02l0.104-0.029
	c27.986-7.213,55.979-14.428,83.963-21.643l0.062-0.02l0.062-0.02c35.025-10.73,70.055-21.463,105.08-32.191l0.156-0.049
	l0.152-0.066c29.83-13.119,59.66-26.24,89.49-39.365l0.102-0.045l0.1-0.055c20.826-11.18,41.652-22.355,62.48-33.539l0.068-0.033
	l0.064-0.041c23.554-14.369,47.104-28.74,70.656-43.109l0.15-0.094l0.143-0.109c25.688-20.502,51.377-41.004,77.062-61.504
	l0.127-0.104l0.112-0.111c17.039-17.129,34.076-34.258,51.115-51.385l0.022-0.023l0.021-0.025
	c17.162-18.094,34.322-36.188,51.484-54.275l0.143-0.15l0.115-0.166c13.672-19.387,27.344-38.77,41.014-58.156l4.07-5.771
	L851.946,527.386z M868.553,92.058c13.979-6.435,31.811,2.28,39.688,19.404c7.887,17.124,2.914,36.336-11.062,42.771
	c-13.979,6.435-31.811-2.281-39.689-19.403C849.606,117.706,854.576,98.492,868.553,92.058z"/>
</svg>
