<?xml version="1.0" encoding="utf-8"?>
<!-- Generator: Adobe Illustrator 16.0.0, SVG Export Plug-In . SVG Version: 6.00 Build 0)  -->
<!DOCTYPE svg PUBLIC "-//W3C//DTD SVG 1.1//EN" "http://www.w3.org/Graphics/SVG/1.1/DTD/svg11.dtd">
<svg version="1.1" id="Layer_1" xmlns="http://www.w3.org/2000/svg" xmlns:xlink="http://www.w3.org/1999/xlink" x="0px" y="0px"
	 width="846.041px" height="886.476px" viewBox="0 0 846.041 886.476" enable-background="new 0 0 846.041 886.476"
	 xml:space="preserve">
<path fill="none" stroke="#000000" stroke-linejoin="round" stroke-miterlimit="10" d="M122.179,25.233
	c1.962,6.106,8.581,8.47,14.067,10.388c2.049,0.506,4.181,1.309,6.362,2.303c87.483,40.691,172.852,72.914,256.625,98.756
	c12.271,2.943,23.565,2.014,34.602,0c104.945-17.147,189.506-53.653,269.695-98.034c12.959-6.205,20.812-4.521,23.562,5.053
	c40.455,119.398,77.659,237.871,111.616,356.808c8.872,31.758,9.155,62.7,3.714,82.598
	c-26.16,109.225-51.232,219.844-83.121,327.676c-32.305,23.975-64.604,47.949-96.908,71.922c-7.945,5.91-9.975,5.324-9.713-4.939
	c2.562-101.543,5.129-203.084,7.689-304.625c-1.029-12.895-3.354-25.787-8.508-38.682c-11.748-36.133-24.438-71.998-41-106.751
	c-4.449-7.896-10.121-12.279-19.729-15.084c-50.716-14.5-109.086-22.599-164.746-29.826
	c-65.735,4.757-125.047,17.695-186.695,34.435c-7.135,2.468-9.443,5.397-12.064,11.757c-17.336,49.323-30.842,99.614-40.752,151.417
	c-2.214,12.02-1.952,24.045,0.784,36.064c8.769,84.896,17.536,169.793,26.308,254.689c1.656,11.65-2.176,19.359-13.047,10.729
	c-33.271-19.35-66.254-38.973-99.522-58.311C66.924,721.062,34.915,607.099,4.15,464.976c-7.423-32.798-4.945-47.347,7.894-73.11
	C45.64,282.941,79.238,174.015,112.835,65.092c0.366-1.187-0.604-3.185-1.212-4.18c-2.909-4.744-8.946-0.343-12.651,0.654
	c-2.407,0.648-4.922,0.794-7.405,0.794c-17.22,0-31.18-13.959-31.18-31.18C60.387,13.959,74.347,0,91.567,0
	C106.753,0,119.404,10.857,122.179,25.233z"/>
</svg>
