<?xml version="1.0" encoding="utf-8"?>
<!-- Generator: Adobe Illustrator 16.0.0, SVG Export Plug-In . SVG Version: 6.00 Build 0)  -->
<!DOCTYPE svg PUBLIC "-//W3C//DTD SVG 1.1//EN" "http://www.w3.org/Graphics/SVG/1.1/DTD/svg11.dtd">
<svg version="1.1" id="Layer_1" xmlns="http://www.w3.org/2000/svg" xmlns:xlink="http://www.w3.org/1999/xlink" x="0px" y="0px"
	 width="1217.686px" height="784.917px" viewBox="0 0 1217.686 784.917" enable-background="new 0 0 1217.686 784.917"
	 xml:space="preserve">
<path fill="none" stroke="#000000" stroke-linejoin="round" stroke-miterlimit="10" d="M423.835,135.379
	c-9.473,17.884-31.833,24.38-49.632,14.957c-17.796-9.424-24.987-31.573-15.521-49.455c9.475-17.883,31.831-24.382,49.636-14.957
	C426.111,95.348,433.307,117.497,423.835,135.379z M1155.948,720.228c-0.85-2.828-2.021-5.633-2.972-8.191
	c-4.812-12.967-11.236-25.209-16.197-38.088c-0.976-2.521-1.928-5.055-2.937-7.562l-0.477-1.168l-0.482-1.17l-0.495-1.16
	l-0.507-1.156l-0.521-1.152l-0.539-1.15l-0.558-1.143l-0.59-1.156l-0.588-1.105l-0.625-1.135l-0.625-1.064l-8.223-13.539l-1.17-1.93
	l-8.189-13.486l-1.171-1.928l-8.187-13.484l-1.172-1.926l-8.188-13.484l-1.207-1.986l-3.684-5.678l-1.22-1.873l-3.646-5.625
	l-4.862-7.498l-1.214-1.875l-1.217-1.875l-1.22-1.875l-3.647-5.623l-2.432-3.75l-1.222-1.873l-1.213-1.873l-1.223-1.879
	l-1.213-1.873l-2.436-3.748l-3.646-5.621l-2.436-3.75l-1.215-1.873l-1.271-1.953l-7.604-10.689l-1.888-2.652l-18.86-26.512
	l-1.888-2.652l-1.889-2.646l-5.654-7.955l-1.891-2.65l-5.656-7.951l-7.545-10.605l-1.889-2.65l-5.66-7.973l-10.597-14.354
	l-7.911-10.73l-2.646-3.574l-2.633-3.576l-15.834-21.454l-2.639-3.576l-2.641-3.574l-15.83-21.455l-2.64-3.577l-2.641-3.577
	l-15.83-21.452l-2.714-3.682l-7.136-8.598l-2.351-2.834l-7.041-8.498l-2.349-2.832l-7.052-8.496l-2.349-2.836l-2.35-2.832
	l-2.354-2.834l-11.738-14.164l-2.354-2.833l-2.35-2.833l-14.096-16.998l-2.349-2.833l-4.694-5.667l-2.353-2.834l-2.467-2.973
	l-2.365-2.428l-1.117-1.148l-1.118-1.152l-1.13-1.15l-1.107-1.144L821.9,232.2l-1.116-1.148l-1.125-1.151l-2.232-2.297l-4.479-4.596
	l-1.121-1.149l-2.234-2.298l-2.243-2.298l-1.114-1.146l-2.243-2.3l-1.116-1.149l-1.12-1.149l-2.24-2.299l-1.12-1.146l-3.44-3.536
	l-1.176-1.08l-1.091-1.003l-1.087-0.998l-2.17-1.995l-1.082-1.001l-1.09-1.002l-2.168-1.997l-1.091-1.001l-1.089-0.997l-1.079-0.998
	l-1.089-1.001l-1.089-0.999l-1.084-1l-2.168-1.999l-1.084-1l-1.093-1l-1.082-0.997l-1.086-1l-1.087-0.999l-1.081-0.999l-1.089-1.001
	l-1.088-0.999l-3.255-2.999l-1.084-1l-3.252-2.994l-3.091-2.881l-1.034-0.969l-3.104-2.9l-1.034-0.969l-1.031-0.965l-2.069-1.933
	l-1.035-0.967l-2.068-1.936l-1.031-0.965l-1.034-0.968l-1.039-0.968l-2.064-1.932l-1.033-0.968l-3.104-2.901l-1.034-0.967
	l-3.104-2.898l-1.037-0.969l-1.033-0.967l-1.034-0.967l-1.036-0.967l-1.104-1.028l-0.763-0.658l-1.394-1.203l-0.7-0.603l-0.69-0.598
	l-0.701-0.604l-0.693-0.599l-0.691-0.599l-0.7-0.604l-0.692-0.597l-0.69-0.602l-1.396-1.203l-0.692-0.6l-0.695-0.602l-1.394-1.2
	l-0.704-0.604l-1.392-1.2l-0.697-0.602l-0.688-0.598l-0.701-0.602l-0.688-0.598l-1.396-1.206l-0.699-0.599l-0.688-0.597
	l-0.697-0.604l-0.701-0.603l-0.692-0.601l-0.796-0.685l-1.731-1.327l-1.646-1.23l-1.636-1.19l-1.614-1.15l-1.607-1.114l-1.604-1.079
	l-1.584-1.044l-1.592-1.014l-1.578-0.982l-1.58-0.954l-1.566-0.926l-1.579-0.902l-1.57-0.878l-1.578-0.855l-1.588-0.839
	l-1.578-0.814l-1.602-0.802l-1.605-0.787l-1.604-0.771l-1.619-0.763l-1.646-0.754l-1.646-0.742l-1.66-0.738l-1.688-0.735L664.09,99
	l-1.724-0.73l-1.746-0.733l-1.768-0.735l-1.801-0.742l-1.82-0.748l-1.854-0.758l-2.046-0.832l-44.56-14.412l-17.766-5.743
	l-8.881-2.875l-8.882-2.872l-8.882-2.87l-8.878-2.873l-8.884-2.873l-8.883-2.872l-17.765-5.745l-17.756-5.746l-17.762-5.742
	l-8.884-2.874l-8.88-2.871l-8.882-2.875l-8.887-2.87l-8.88-2.875l-8.88-2.871l-8.886-2.871l-8.879-2.874l-17.766-5.743l-8.882-2.873
	l-8.879-2.873l-9.188-2.969L357.131,0l-7.992,2.634l-11.541,10.262l-10.459,9.686l-10.428,9.657l-3.479,3.219l-3.479,3.218
	l-3.479,3.217l-3.475,3.22l-3.477,3.219l-6.949,6.436l-3.479,3.22l-3.476,3.216l-3.477,3.219l-13.898,12.873l-3.479,3.22
	l-6.951,6.439l-3.478,3.218l-3.473,3.217l-3.479,3.216l-13.901,12.875l-3.477,3.219l-3.309,3.062l-0.814,0.616l-0.998,0.749
	l-1.003,0.758l-0.992,0.747l-1.002,0.753l-1.999,1.502l-1.002,0.757l-0.999,0.755L215.7,123.9l-0.998,0.75l-4,3.013l-1,0.753
	l-0.999,0.752l-1,0.752l-0.998,0.75l-0.998,0.754l-1.999,1.503l-1,0.75l-1.003,0.755l-4.993,3.762l-2.009,1.512l-1.475,1.126
	l-8.675,6.663l-2.89,2.221l-4.339,3.326l-1.448,1.112l-2.894,2.22l-1.442,1.108l-1.448,1.112l-1.444,1.109l-1.443,1.109
	l-1.448,1.111l-1.448,1.113l-2.889,2.217l-1.447,1.108l-7.229,5.55l-2.895,2.222l-1.648,1.266l-1.632,1.574l-1.44,1.395
	l-1.441,1.395l-1.438,1.392l-1.446,1.396l-4.325,4.18l-1.44,1.395l-4.329,4.182l-1.44,1.394l-2.886,2.788l-7.214,6.97l-5.771,5.574
	l-1.439,1.396l-4.328,4.181l-4.325,4.181l-1.588,1.535l-2.866,3.31l-4.559,5.259l-2.734,3.156l-0.912,1.051l-2.734,3.157l-0.91,1.05
	l-2.738,3.157l-0.911,1.056l-2.732,3.152l-3.647,4.208l-3.646,4.207l-1.01,1.162l-1.286,1.69l-2.392,3.153l-1.197,1.575
	l-3.594,4.728l-1.198,1.576l-3.592,4.726l-1.195,1.574l-3.596,4.73l-4.788,6.301l-1.194,1.572l-3.595,4.729l-2.392,3.149l-1.2,1.573
	l-1.197,1.579l-1.197,1.578l-3.593,4.723l-1.198,1.576l-4.066,5.386l-1.013,1.343l-3.051,4.032l-1.014,1.343l-3.049,4.031
	l-4.06,5.374l-4.062,5.376l-1.015,1.342l-3.049,4.033l-1.016,1.346l-3.047,4.027l-1.019,1.35L0,349.662l3.729,11.837l7.979,15.358
	l24.043,37.564l3.345,4.363l1.074,1.398l3.229,4.207l1.073,1.402l3.229,4.211l1.075,1.404l3.229,4.211l1.074,1.404l3.229,4.213
	l1.076,1.4l3.23,4.213l4.303,5.611l1.075,1.402l1.073,1.402l2.153,2.812l1.147,1.5l0.922,1.08l0.844,0.979l0.841,0.98l0.845,0.986
	l0.842,0.986l1.686,1.973l0.847,0.982l0.845,0.982l0.838,0.98l0.841,0.984l0.849,0.986l0.84,0.984l0.845,0.984l0.843,0.982
	l0.837,0.98l0.848,0.992l0.841,0.98l0.849,0.986l1.683,1.973l0.842,0.98l2.526,2.959l1.688,1.969l0.841,0.984l0.846,0.984
	l0.835,0.982l0.853,0.99l0.844,0.986l0.766,0.891l2.278,2.645l0.759,0.879l2.274,2.643l0.76,0.881l7.581,8.797l0.76,0.883
	l2.273,2.639l0.758,0.883l0.764,0.883l1.512,1.756l0.757,0.881l2.278,2.645l0.873,1.016l1.112,1.104c0,0,1.844,1.83,1.959,1.941
	c21.384,21.229,44.594,40.148,68.822,58.01l13.835,10.191l1.803,1.332l1.274,0.857l1.19,0.811l1.2,0.811l1.194,0.809l2.395,1.619
	l1.194,0.812l2.396,1.617l2.393,1.615l1.194,0.812l1.198,0.809l1.19,0.811l1.2,0.811l1.198,0.812l1.194,0.811l1.198,0.812
	l1.195,0.811l1.195,0.809l1.195,0.811l1.197,0.812l1.196,0.809l1.194,0.811l1.197,0.812l1.193,0.811l1.199,0.812l6.159,4.17
	l1.979,1.078l5.362,2.928l1.787,0.98l1.791,0.979l1.786,0.979l1.785,0.979l1.796,0.98l3.569,1.949l5.364,2.93l3.578,1.953
	l1.788,0.977l1.789,0.98l1.786,0.977l3.58,1.953l1.786,0.977l1.786,0.98l1.785,0.977l3.578,1.953l1.788,0.979l1.789,0.977
	l1.784,0.979l1.791,0.98l3.587,1.957l4.968,2.625l1.644,0.869l1.646,0.869l3.278,1.73l1.64,0.869l1.646,0.869l1.643,0.869
	l1.646,0.867l1.636,0.861l3.285,1.738l1.641,0.867l1.646,0.869l1.642,0.865l1.646,0.863l3.278,1.74l1.646,0.867l1.642,0.867
	l3.282,1.732l1.646,0.869l1.644,0.867l3.279,1.736l1.646,0.869l1.64,0.861l1.644,0.871l1.812,0.959l2.513,1.062l2.328,0.994
	l4.656,1.979l4.661,1.986l4.663,1.98l4.659,1.98l2.328,0.994l4.664,1.98l2.327,0.994l2.333,0.988l2.325,0.992l2.333,0.988
	l2.325,0.992l2.335,0.99l4.657,1.982l9.322,3.971l2.327,0.994l2.333,0.988l4.657,1.982l2.332,0.99l4.731,2.018l6.218,2.395
	l4.104,1.582l2.054,0.789l4.094,1.582l4.104,1.576l2.043,0.791l2.053,0.795l2.054,0.785l4.096,1.582l8.195,3.158l4.101,1.58
	l2.051,0.791l2.055,0.789l2.043,0.791l2.051,0.789l2.051,0.791l2.055,0.791l2.049,0.791l2.05,0.785l2.047,0.795l2.055,0.791
	l2.057,0.791l6.155,2.344l4.608,1.756l1.531,0.59l4.614,1.756l6.146,2.342l1.536,0.586l4.614,1.756l6.145,2.342l1.535,0.586
	l4.612,1.758l1.536,0.586l1.533,0.584l3.07,1.174l1.708,0.645l8.837,2.566l1.236,0.357l1.241,0.355l2.474,0.721l6.188,1.799
	l1.241,0.354l3.703,1.078l3.712,1.08l1.238,0.355l3.709,1.078l1.238,0.354l3.707,1.078l1.438,0.422l1.108,0.215l0.896,0.174
	l0.902,0.176l0.896,0.178l0.899,0.176l0.898,0.176l0.903,0.172l0.896,0.172l0.904,0.178l0.896,0.172l0.905,0.176l0.896,0.176
	l0.899,0.176l0.896,0.178l0.909,0.176l1.8,0.348l0.896,0.176l0.906,0.174l0.896,0.174l0.907,0.178l1.8,0.352l0.897,0.176l2.707,0.52
	l0.9,0.172l3.606,0.703l4.804,0.854l1.58,0.277l4.745,0.846l1.572,0.279l4.746,0.846l6.324,1.125l1.582,0.279l4.74,0.846
	l6.324,1.123l1.581,0.279l4.74,0.846l1.58,0.277l1.586,0.277l3.16,0.562l1.682,0.301l0.998,0.129l0.896,0.117l0.896,0.115
	l0.891,0.115l1.021,0.135l1.664,0.215l0.889,0.117l0.898,0.115l0.887,0.115l0.896,0.117l4.456,0.58l1.789,0.234l0.896,0.113
	l0.885,0.113l0.906,0.117l2.668,0.354l2.682,0.352l0.896,0.111l3.776,0.496l1.617,0.061l2.795,0.092l2.783,0.094l2.794,0.092
	l1.396,0.049l1.396,0.045l2.785,0.096l1.396,0.045l4.184,0.145l1.396,0.045l1.396,0.049l5.584,0.189l2.787,0.092l1.396,0.047
	l4.187,0.141l1.396,0.049l1.396,0.043l2.791,0.1l1.592,0.053l3.562-0.193l3.354-0.188l3.357-0.188l3.354-0.188l3.959-0.219
	l6.113-0.334l7.021-0.389l6.408-0.355l6.719-0.369l10.072-0.555l6.716-0.369l3.356-0.188l3.354-0.186l4.372-0.242l5.702-0.311
	l7.021-0.389l6.414-0.352l3.354-0.188l3.953-0.219l6.117-0.336l3.428-0.188l19.668-1.676l6.527-0.555l6.534-0.562l6.527-0.559
	l6.531-0.557l6.533-0.557l6.532-0.561l6.528-0.559l13.063-1.109l6.533-0.559l6.526-0.561l6.529-0.557l6.537-0.561l19.594-1.67
	l6.531-0.555l6.535-0.559l6.53-0.561l6.532-0.557l6.528-0.562l6.525-0.557l6.541-0.557l6.525-0.561l6.53-0.557l6.533-0.561
	l6.53-0.557l6.534-0.559l13.612-1.16l-7.336-12.803l-2.729-6.115l-1.828-5.762l-1.011-5.395l-0.268-5.035l0.406-4.689l1.008-4.344
	l1.566-4.021l2.069-3.717l2.538-3.395l2.964-3.066l3.349-2.73l3.674-2.361l3.943-1.979l4.163-1.58l4.318-1.166l4.41-0.73
	l4.438-0.277l4.411,0.178l4.318,0.645l4.16,1.104l3.963,1.584l3.711,2.061l3.42,2.559l3.09,3.061l2.728,3.596l2.312,4.17
	l1.852,4.781l1.326,5.439l0.729,6.123l0.059,6.836l-1.286,14.188c6.192-1.604,12.602-2.551,18.524-5.059
	c2.25-0.947,4.435-2.07,6.637-3.119c0.117-0.057,0.231-0.111,0.346-0.166c1.604-0.299,3.269-0.057,3.938,1.621
	c1.005,16.312,14.554,29.234,31.122,29.234c17.222,0,31.183-13.961,31.183-31.184c0-17.221-13.961-31.182-31.183-31.182
	c-10.65,0-20.053,5.34-25.678,13.486c-1.692,1.475-3.827,0.727-4.875-1.088L1155.948,720.228z"/>
</svg>
