<?xml version="1.0" encoding="utf-8"?>
<!-- Generator: Adobe Illustrator 16.0.0, SVG Export Plug-In . SVG Version: 6.00 Build 0)  -->
<!DOCTYPE svg PUBLIC "-//W3C//DTD SVG 1.1//EN" "http://www.w3.org/Graphics/SVG/1.1/DTD/svg11.dtd">
<svg version="1.1" id="Layer_1" xmlns="http://www.w3.org/2000/svg" xmlns:xlink="http://www.w3.org/1999/xlink" x="0px" y="0px"
	 width="1583.699px" height="783.256px" viewBox="0 0 1583.699 783.256" enable-background="new 0 0 1583.699 783.256"
	 xml:space="preserve">
<path fill="none" stroke="#000000" stroke-linejoin="round" stroke-miterlimit="10" d="M1158.742,722.731
	c-0.448-4.15-1.725-8.328-2.881-11.128c-4.721-11.431-9.896-22.639-14.832-33.974c-2.776-6.385-4.988-13.002-7.854-19.351
	c-3.359-7.45-8.072-14.381-12.312-21.294l-1.176-1.927l-8.25-13.448l-1.181-1.923l-8.245-13.448l-1.182-1.924l-8.243-13.447
	l-1.216-1.98l-3.709-5.664l-1.223-1.865l-3.676-5.607l-4.896-7.479l-1.221-1.867l-1.228-1.869l-1.228-1.871l-3.674-5.605
	l-2.447-3.734l-1.228-1.869l-1.222-1.869l-1.229-1.873l-1.226-1.865l-2.447-3.734l-3.672-5.609l-2.446-3.738l-1.226-1.868
	l-1.276-1.948l-7.646-10.65l-1.895-2.646l-18.98-26.435l-1.895-2.645l-1.898-2.646l-5.69-7.932l-1.901-2.646l-5.688-7.93
	l-7.591-10.572l-1.895-2.643l-5.699-7.941l-10.656-14.309l-7.961-10.692l-2.655-3.563l-2.651-3.562l-15.922-21.39l-2.654-3.565
	l-2.652-3.562l-15.924-21.387l-2.653-3.566l-2.651-3.567l-15.926-21.383l-2.729-3.669l-7.166-8.566l-2.36-2.824l-7.079-8.467
	l-2.357-2.824l-7.086-8.467l-2.359-2.824l-2.359-2.822l-2.357-2.823l-11.807-14.113l-2.359-2.823l-2.361-2.822l-14.166-16.937
	l-2.359-2.822l-4.717-5.646l-2.363-2.824l-2.479-2.963l-2.379-2.417l-1.121-1.144l-1.125-1.147l-1.133-1.145l-1.117-1.14
	l-2.254-2.291l-1.121-1.146l-1.131-1.146l-2.246-2.287l-4.5-4.577l-1.127-1.144l-2.248-2.289l-2.252-2.289l-1.121-1.142
	l-2.252-2.291l-1.123-1.143l-1.125-1.144l-2.252-2.291l-1.127-1.144l-3.459-3.52l-1.178-1.076l-1.093-0.998l-1.09-0.993
	l-2.182-1.986l-1.087-0.996l-1.093-0.998l-2.18-1.988l-1.095-0.997l-1.092-0.993l-1.085-0.993l-1.091-0.997l-1.093-0.994
	l-1.092-0.996l-2.181-1.989l-1.087-0.996l-1.095-0.995l-1.086-0.993l-1.092-0.995l-1.094-0.995l-1.087-0.994l-1.092-0.997
	l-1.091-0.994l-3.271-2.985l-1.087-0.994l-3.267-2.98l-3.104-2.869l-1.039-0.963l-3.114-2.888l-1.041-0.964l-1.036-0.962
	l-2.08-1.924l-1.038-0.963l-2.082-1.926l-1.037-0.96l-1.037-0.963l-1.046-0.964l-2.069-1.922l-1.043-0.964l-3.115-2.888
	l-1.041-0.962l-3.114-2.885l-1.039-0.964l-1.039-0.963l-1.04-0.961l-1.041-0.963l-1.104-1.024l-0.771-0.654l-1.396-1.197
	l-0.702-0.601l-0.694-0.595l-0.703-0.601l-0.698-0.595l-0.694-0.596l-0.703-0.601l-0.695-0.594l-0.695-0.599l-1.401-1.196
	l-0.696-0.597l-0.7-0.598l-1.396-1.195l-0.706-0.601l-1.396-1.193l-0.701-0.599l-0.693-0.595l-0.704-0.599l-0.689-0.595
	l-1.401-1.199l-0.702-0.597l-0.691-0.594l-0.699-0.6l-0.703-0.6l-0.696-0.597l-0.8-0.682l-1.737-1.32l-1.65-1.224l-1.641-1.184
	l-1.622-1.143l-1.616-1.108l-1.604-1.072l-1.594-1.037l-1.596-1.008l-1.583-0.975l-1.583-0.947l-1.572-0.918l-1.587-0.897
	l-1.573-0.87l-1.582-0.849l-1.592-0.833l-1.582-0.807l-1.604-0.795l-1.611-0.779l-1.608-0.765l-1.624-0.756l-1.645-0.747
	l-1.648-0.735l-1.667-0.729l-1.688-0.729l-1.706-0.723l-1.728-0.723l-1.749-0.725l-1.771-0.728l-1.801-0.734l-1.826-0.741
	l-1.854-0.75l-2.049-0.823l-44.623-14.22l-17.788-5.666l-8.894-2.837l-8.894-2.833l-8.896-2.832l-8.894-2.834l-8.894-2.834
	l-8.896-2.834l-17.785-5.668l-17.785-5.669l-17.791-5.66l-8.896-2.835l-8.892-2.833l-8.896-2.838l-8.895-2.831l-8.896-2.836
	l-8.891-2.833l-8.896-2.832l-8.893-2.836l-17.787-5.667l-8.892-2.834l-8.896-2.833l-9.199-2.93L355.626,0l-7.982,2.668
	l-11.495,10.311c0,0-10.265,9.586-10.43,9.741c-32.39,30.254-64.265,61.706-97.448,91.031
	c-59.781,52.83-121.28,95.148-170.161,160.034c-9.484,12.591-19,25.162-28.437,37.789l-1.009,1.348l-3.031,4.046l-1.008,1.348
	l-3.029,4.042l-4.037,5.393l-4.04,5.393l-1.008,1.346l-3.029,4.046l-1.01,1.349l-3.029,4.042L4.43,345.28L0,351.195l3.782,11.821
	l8.045,15.323l24.205,37.46l3.362,4.353l1.082,1.396l3.248,4.195l1.08,1.396l3.248,4.197l1.082,1.398l3.247,4.193l1.079,1.4
	l3.248,4.199l1.082,1.395l3.249,4.199l4.327,5.598l1.081,1.396l1.08,1.397l2.166,2.804l1.154,1.492l0.927,1.074l0.849,0.98
	l0.846,0.979l0.848,0.984l0.846,0.98l1.693,1.967l0.851,0.979l0.848,0.982l0.843,0.979l0.845,0.982l0.853,0.984l0.845,0.979
	l0.848,0.984l0.847,0.979l0.842,0.979l0.854,0.985l0.843,0.979l0.853,0.981l1.69,1.964l0.847,0.979l2.54,2.947l1.693,1.963
	l0.845,0.98l0.85,0.98l0.84,0.979l0.854,0.984l0.847,0.985l0.771,0.886l2.29,2.634l0.762,0.875l2.287,2.631l0.765,0.878l7.619,8.763
	l0.765,0.882l2.282,2.625l0.763,0.877l0.77,0.881l1.519,1.748l0.761,0.877l2.291,2.634l0.876,1.011l1.118,1.098l1.974,1.939
	l0.995,0.974l0.985,0.968l0.983,0.969l0.992,0.978l0.986,0.97l0.99,0.974l1.976,1.938l0.989,0.973l0.985,0.971l0.992,0.975
	l0.983,0.969l0.99,0.972l0.988,0.971l1.978,1.938l0.985,0.971l0.994,0.975l0.983,0.967l0.986,0.971l0.984,0.975l0.998,0.977
	l0.983,0.965l0.986,0.975l0.986,0.971l1.979,1.942l2.21,2.171l26.289,19.196l1.736,1.271l12.144,8.869l13.879,10.135l1.808,1.322
	l1.277,0.854l1.195,0.807l1.204,0.807l1.199,0.803l2.398,1.609l1.198,0.805l2.404,1.609l2.397,1.604l1.201,0.809l1.2,0.805
	l1.194,0.803l1.203,0.811l1.203,0.805l1.197,0.805l1.201,0.809l1.201,0.805l1.198,0.803l1.2,0.807l1.2,0.807l1.201,0.803
	l1.197,0.806l1.201,0.81l1.197,0.803l1.205,0.806l6.177,4.146l1.983,1.068l5.374,2.9l1.793,0.97l1.796,0.974l1.789,0.967l1.79,0.971
	l1.801,0.971l3.579,1.938l5.377,2.906l3.586,1.938l1.792,0.971l1.794,0.968l1.79,0.97l3.587,1.938l1.791,0.97l1.792,0.97
	l1.791,0.969l3.586,1.938l1.793,0.97l1.794,0.969l1.789,0.968l1.794,0.976l3.596,1.938l4.979,2.605l1.646,0.858l1.647,0.862
	l3.287,1.722l1.645,0.862l1.647,0.861l1.646,0.861l1.646,0.857l1.642,0.859l3.293,1.723l1.646,0.863l1.646,0.857l1.646,0.859
	l1.646,0.861l3.291,1.727l1.646,0.857l1.646,0.857l3.29,1.729l1.646,0.858l1.646,0.858l3.288,1.726l1.646,0.86l1.645,0.859
	l1.646,0.859l1.815,0.949l2.515,1.056l2.332,0.983l4.669,1.961l4.669,1.967l4.67,1.964l4.668,1.968l2.333,0.98l4.676,1.963
	l2.332,0.982l2.338,0.98l2.33,0.98l2.339,0.979l2.331,0.98l2.338,0.979l4.667,1.967l9.339,3.93l2.333,0.984l2.337,0.979l4.668,1.965
	l2.338,0.982l4.739,1.992l6.229,2.37l4.104,1.562l2.055,0.781l4.104,1.562l4.107,1.562l2.047,0.78l2.055,0.784l2.059,0.775
	l4.103,1.565l8.211,3.122l4.104,1.562l2.053,0.783l2.059,0.775l2.047,0.779l2.056,0.781l2.053,0.78l2.055,0.782l2.054,0.779
	l2.052,0.779l2.055,0.782l2.056,0.78l2.057,0.782l6.169,2.317l4.618,1.733l1.533,0.584l4.622,1.731l6.155,2.313l1.539,0.575
	l4.619,1.735l6.151,2.314l1.538,0.578l4.621,1.734l1.538,0.58l1.541,0.577l3.077,1.157l1.711,0.643l8.85,2.528l1.236,0.354
	l1.244,0.354l2.477,0.704l6.189,1.773l1.246,0.352l3.708,1.062l3.718,1.062l1.241,0.354l3.714,1.062l1.239,0.354l3.714,1.062
	l1.438,0.413l1.108,0.207l0.896,0.173l0.907,0.168l0.896,0.172l0.904,0.17l0.898,0.173l0.905,0.169l0.896,0.17l0.908,0.17
	l0.896,0.171l0.907,0.17l0.896,0.17l0.903,0.17l0.896,0.173l0.909,0.17l1.803,0.338l0.896,0.175l0.907,0.168l0.896,0.173
	l0.907,0.168l1.802,0.341l0.9,0.172l2.709,0.509l0.899,0.17l3.614,0.688l4.805,0.831l1.58,0.271l4.748,0.819l1.581,0.273
	l4.748,0.823l6.328,1.1l1.583,0.271l4.746,0.822l6.33,1.099l1.581,0.272l4.747,0.82l1.581,0.273l1.587,0.271l3.163,0.551
	l1.683,0.293l0.999,0.125l0.895,0.109l0.896,0.113l0.89,0.111l1.02,0.127l1.663,0.209l0.894,0.117l0.896,0.109l0.89,0.111
	l0.897,0.113l4.461,0.562l1.786,0.229l0.896,0.109l0.885,0.109l0.903,0.113l2.671,0.34l2.683,0.338l0.896,0.111l3.783,0.479
	l1.614,0.049l2.8,0.078l2.783,0.082l2.791,0.079l1.396,0.041l1.396,0.039l2.787,0.079l1.396,0.041l4.188,0.121l1.395,0.041
	l1.397,0.041l5.582,0.162l2.787,0.077l1.396,0.041l4.187,0.12l1.396,0.044l1.396,0.038l2.79,0.082l1.595,0.045l3.56-0.211
	l3.355-0.197l3.354-0.199l3.355-0.195l3.958-0.235l6.112-0.36l7.021-0.418l6.408-0.379l6.717-0.397l10.069-0.599l6.714-0.396
	l3.355-0.199l3.354-0.195l4.375-0.266l5.698-0.334l7.021-0.416l6.412-0.379l3.354-0.201l3.955-0.232l6.117-0.359l3.424-0.203
	l19.66-1.761l6.525-0.584l6.527-0.586l6.531-0.584l6.531-0.584l6.524-0.582l6.53-0.586l6.529-0.586l13.062-1.166l6.53-0.584
	l6.527-0.584l6.528-0.587l6.53-0.586l19.588-1.752l6.529-0.582l6.531-0.584l6.528-0.584l6.53-0.586l6.527-0.588l6.521-0.582
	l6.537-0.584l6.525-0.584l6.531-0.584l6.525-0.584l6.529-0.584l6.531-0.586l13.609-1.221l-7.395-12.771l-2.75-6.104l-1.854-5.752
	l-1.03-5.395l-0.285-5.034l0.383-4.688l0.99-4.352l1.549-4.028l2.055-3.725l2.523-3.405l2.953-3.08l3.332-2.742l3.663-2.383l3.938-2
	l4.154-1.597l4.315-1.187l4.405-0.746l4.439-0.297l4.413,0.152l4.315,0.623l4.168,1.091l3.969,1.563l3.725,2.048l3.432,2.541
	l3.103,3.048l2.738,3.584l2.332,4.159l1.866,4.772l1.354,5.432l0.754,6.121l0.088,6.834l-1.23,14.192
	c5.207-1.373,10.457-2.604,15.604-4.211c4.201-1.312,9.944-2.733,13.037-6.087C1158.778,731.451,1159.218,727.106,1158.742,722.731z
	 M422.909,135.091c-9.396,17.924-31.729,24.517-49.563,15.17c-17.836-9.348-25.125-31.466-15.73-49.389
	c9.396-17.923,31.729-24.518,49.563-15.169C425.015,95.05,432.303,117.167,422.909,135.091z M1572.145,358.199
	c0,0-225.422-52.344-381.955-94.447c-156.535-42.107-389.547-116.526-389.547-116.526s-31.315-10.839-36.839-3.458
	c-5.522,7.382,75.203,78.912,161.638,181.544c86.438,102.633,170.297,230.43,204.748,297.534
	c34.445,67.107,18.875,91.896,60.359,99.646c41.482,7.748,187.189,25.221,187.189,25.221s22.346-0.891,28.744-19.945
	c6.408-19.053,24.076-92.258,68.297-173.232c44.219-80.98,106.923-181.047,106.923-181.047S1590.196,361.956,1572.145,358.199z"/>
</svg>
