<?xml version="1.0" encoding="utf-8"?>
<!-- Generator: Adobe Illustrator 16.0.0, SVG Export Plug-In . SVG Version: 6.00 Build 0)  -->
<!DOCTYPE svg PUBLIC "-//W3C//DTD SVG 1.1//EN" "http://www.w3.org/Graphics/SVG/1.1/DTD/svg11.dtd">
<svg version="1.1" id="Layer_1" xmlns="http://www.w3.org/2000/svg" xmlns:xlink="http://www.w3.org/1999/xlink" x="0px" y="0px"
	 width="1654.787px" height="970.564px" viewBox="0 0 1654.787 970.564" enable-background="new 0 0 1654.787 970.564"
	 xml:space="preserve">
<path d="M1648.137,360.464c-2.792-4.416-6.094-8.581-9.495-12.538c-4.464-5.191-9.233-10.158-14.068-15.001l-13.903-13.936
	l-9.451-10.642l-54.513-49.104c-32.131-30.073-64.261-60.147-96.391-90.222c-22.253-20.83-42.363-43.925-65.859-63.405
	c-24.094-19.975-52.694-32.922-78.211-50.808c-22.592-15.837-45.181-31.676-67.771-47.512L1228.966,0l-13.121,6.105L937.424,145.333
	l-0.111,0.069c-4.509,2.804-9.021,5.607-13.527,8.41l-0.291,0.18l-0.235,0.245c-35.27,36.031-70.536,72.061-105.806,108.091
	l-0.021,0.023c-24.214,25.318-48.434,50.637-72.646,75.955l-0.021,0.023l-0.021,0.023c-24.571,26.9-49.144,53.801-73.715,80.702
	l-0.057,0.062l-0.056,0.066c-22.122,27.337-44.25,54.674-66.375,82.01l-0.031,0.041l-0.033,0.043
	c-14.062,18.787-28.122,37.575-42.187,56.36l-0.028,0.039l-0.029,0.041c-17.08,24.617-34.16,49.234-51.241,73.854l-0.036,0.053
	l-0.034,0.055c-19.129,30.42-38.258,60.845-57.387,91.265l-2.984,4.75l43.021-3.188l84.529-38.336l34.915-65.92
	c14.185-22.404,28.367-44.812,42.553-67.219c13.112-18.812,26.227-37.613,39.338-56.42c10.57-14.205,21.139-28.412,31.707-42.619
	c8.448-9.781,16.896-19.562,25.342-29.341c14.025-12.881,28.053-25.76,42.079-38.641c2.975-2.402,5.949-4.803,8.925-7.205
	c1.616-0.259,3.233-0.518,4.853-0.778c-0.645,2.768-1.284,5.535-1.926,8.302c-17.615,33.695-35.23,67.39-52.849,101.086
	l-0.014,0.029c-15.771,31.024-31.535,62.054-47.301,93.082l-0.017,0.022l-0.014,0.029c-7.541,15.697-15.083,31.396-22.626,47.092
	c-6.063,12.205-12.128,24.408-18.195,36.613c-14.748,29.672-34.983,37.979-65.058,48.404c-35.396,12.271-70.762,24.64-106.14,36.973
	l-2.29,0.797l0.436,2.387c1.734,9.548,1.859,20.224-2.531,29.119c-3.21,6.508-8.516,11.273-15.274,13.871
	c-4.273,1.643-8.896,2.332-13.464,2.183c-9.144-0.304-18.704-4.048-24.667-11.177c-2.426-2.896-4.146-6.256-5.031-9.934
	l-2.656-11.045l-10.821,41.813l-0.021,0.209c-0.005,0.044-0.01,0.088-0.017,0.133c-2.047,19.196-2.819,22.364,13.998,32.678
	c38.12,23.366,83.604,23.981,126.888,29.8l0.057,0.008l0.056,0.006c35.814,3.359,71.63,6.723,107.443,10.082l0.104,0.008
	l0.105,0.002c33.977,0.615,67.949,1.232,101.924,1.851h0.041h0.041c26.95-0.291,53.9-0.582,80.852-0.879h0.104l0.104-0.011
	c26.272-2.215,52.55-4.43,78.82-6.646l0.068-0.004l0.066-0.01c21.802-2.9,43.602-5.804,65.399-8.699l0.115-0.021l0.116-0.022
	c23.604-5.166,47.207-10.334,70.811-15.502l0.109-0.025l0.108-0.031c220.209-66.994,396.278-225.596,544.474-395.952l0.135-0.152
	l0.111-0.173c5.431-8.452,11.171-16.663,17.141-24.742c4.625-6.257,9.399-12.405,14.012-18.669
	c6.082-8.255,13.478-18.483,14.19-29.046C1655.257,374.062,1652.228,366.932,1648.137,360.464z M1245.501,146.544
	c-2.575,3.677-5.965,6.652-9.959,8.7c-3.921,2.009-8.277,3.03-12.683,3.012c-11.896-0.051-22.572-7.354-27.95-17.797
	c-5.342-10.372-5.125-23.19,1.655-32.868c2.575-3.676,5.963-6.651,9.96-8.7c3.917-2.008,8.28-3.029,12.684-3.01
	c11.896,0.051,22.568,7.354,27.947,17.797C1252.496,124.047,1252.279,136.867,1245.501,146.544z M372.987,884.307
	c0,0,15.904-97.312,66.458-187.535c0,0,56.03-105.745,114.359-185.387c58.329-79.637,133.561-164.678,155.114-187.818
	c21.554-23.141,39.167-36.206,32.692-47.075c-6.474-10.867-12.03-3.511-16.696-1.466c-4.673,2.046-132.894,71.04-220.321,106.544
	C417.161,417.075,57.477,551.033,57.477,551.033l-42.126,13.311c0,0-20.854,7.631-13.952,20.453
	c6.896,12.82,60.018,87.188,90.18,150.197s87.25,216.352,87.25,216.352s6.533,25.189,30.529,17.894s99.032-33.947,120.434-43.748
	C351.189,915.688,370.212,904.361,372.987,884.307z"/>
</svg>
