<?xml version="1.0" encoding="utf-8"?>
<!-- Generator: Adobe Illustrator 16.0.0, SVG Export Plug-In . SVG Version: 6.00 Build 0)  -->
<!DOCTYPE svg PUBLIC "-//W3C//DTD SVG 1.1//EN" "http://www.w3.org/Graphics/SVG/1.1/DTD/svg11.dtd">
<svg version="1.1" id="Layer_1" xmlns="http://www.w3.org/2000/svg" xmlns:xlink="http://www.w3.org/1999/xlink" x="0px" y="0px"
	 width="971.621px" height="1148.41px" viewBox="0 0 971.621 1148.41" enable-background="new 0 0 971.621 1148.41"
	 xml:space="preserve">
<path fill="none" stroke="#000000" stroke-linejoin="round" stroke-miterlimit="10" d="M49.087,69.345
	c-2.356-0.734-3.884-3.285-4.098-5.632c-0.295-3.243,1.15-5.079,3.829-6.739c1.412-0.875,2.617-1.964,3.814-3.104
	c3.848-3.654,6.745-8.36,8.32-13.416c0.938-3.001,1.407-6.129,1.407-9.273C62.362,13.96,48.402,0,31.181,0C13.96,0,0,13.96,0,31.181
	c0,8.159,3.133,15.585,8.265,21.14c2.01,2.515,4.036,5.106,5.18,8.151c15.049,41.287,30.771,82.871,47.077,124.71
	c89.887,230.65,217.312,458.8,342.125,689.947l568.977,273.281C882.02,1014.652,792.31,885.74,702.474,761.812
	C614.275,640.146,525.96,523.284,437.533,411.354L857.845,493.3c-106.389-64.537-211.295-133.688-315.076-206.352
	c-85.479-59.852-166.99-123.737-248.834-188.926c-31.463,11.623-42.578,19.802-80.657,15.132
	C186.651,109.887,141.234,97.995,49.087,69.345z"/>
</svg>
