<?xml version="1.0" encoding="utf-8"?>
<!-- Generator: Adobe Illustrator 16.0.0, SVG Export Plug-In . SVG Version: 6.00 Build 0)  -->
<!DOCTYPE svg PUBLIC "-//W3C//DTD SVG 1.1//EN" "http://www.w3.org/Graphics/SVG/1.1/DTD/svg11.dtd">
<svg version="1.1" id="Layer_1" xmlns="http://www.w3.org/2000/svg" xmlns:xlink="http://www.w3.org/1999/xlink" x="0px" y="0px"
	 width="1291.854px" height="789.672px" viewBox="0 0 1291.854 789.672" enable-background="new 0 0 1291.854 789.672"
	 xml:space="preserve">
<path fill="none" stroke="#000000" stroke-linejoin="round" stroke-miterlimit="10" d="M31.652,545.125l-12.049-6.812l0.001,0.006
	C8.115,533.719,0,522.484,0,509.354c0-17.221,13.96-31.182,31.181-31.182s31.181,13.961,31.181,31.182
	c0,3.795-0.677,7.431-1.917,10.791h-0.002c0,3.541,3.021,6.405,6.753,6.405l127.838-61.146c9.7-4.727,10.796-4.645,20.614-4.562
	l365.5,3.045c8.794,0.078,8.233,1.021,14.354-5.271c71.427-73.465,141.169-147.482,209.279-222.031
	c70.445-77.098,139.15-154.767,206.181-232.982l0,0c4.119-4.809,3.666-3.667,9.89-2.911l265.447,32.256
	c7.009,0.852,6.586-0.363,3.119,5.592c-65.462,112.501-141.223,224.14-225.033,335.101
	c-103.99,137.667-220.583,273.407-345.104,409.323c-6.844,7.471-5.444,7.914-14.508,5.162c-1.228-0.371-2.445-0.76-3.668-1.141
	c-122.571-38.117-242.886-77.512-360.758-120.438c-101.528-36.975-201.099-75.928-298.353-117.223
	c-5.668-2.406-9.253-3.382-10.407-4.238L31.652,545.125z"/>
</svg>
