<?xml version="1.0" encoding="utf-8"?>
<!-- Generator: Adobe Illustrator 16.0.0, SVG Export Plug-In . SVG Version: 6.00 Build 0)  -->
<!DOCTYPE svg PUBLIC "-//W3C//DTD SVG 1.1//EN" "http://www.w3.org/Graphics/SVG/1.1/DTD/svg11.dtd">
<svg version="1.1" id="Layer_1" xmlns="http://www.w3.org/2000/svg" xmlns:xlink="http://www.w3.org/1999/xlink" x="0px" y="0px"
	 width="1325.506px" height="776.136px" viewBox="0 0 1325.506 776.136" enable-background="new 0 0 1325.506 776.136"
	 xml:space="preserve">
<path fill="none" stroke="#000000" stroke-linejoin="round" stroke-miterlimit="10" d="M345.75,84.928
	c5.683,3.652,14.36-3.2,12.087-9.542c-2.075-3.603-1.596-5.188,2.124-4.239c3.893,0.995,11.323,4.446,22.868,11.567l0,0
	l59.824,36.757c107.975,57.008,216.039,113.807,324.229,170.375c57.254,29.936,114.541,59.807,171.869,89.61
	c31.441,16.344,62.352,33.074,93.229,50.325c4.104,2.289,8.196,4.588,12.299,6.895c16.223,7.842,13.768,11.119,6.688,12.246
	c-5.802,1.576-6.29,9.791-0.276,11.369l30.019-0.156l11.573-0.271l8.912,0.754l10.062,2.854l18.607,9.152l37.586,17.865
	l52.727,26.309c0,0,33.377,15.416,33.385,15.42c0.892,0.412,1.821,0.771,2.729,1.17l-0.003-0.002
	c1.449,0.273,2.98,0.873,4.471,0.588c1.809-0.346,2.38-1.857,3.271-3.26c3.317-13.654,15.625-23.791,30.3-23.791
	c17.221,0,31.182,13.959,31.182,31.18c0,17.223-13.96,31.182-31.182,31.182c-13.312,0-24.681-8.346-29.149-20.092v-0.002
	c-2.444-2.002-5.102-2.221-8.12-1.652l-0.667,0.299c-1.287,0.553-2.576,1.104-3.863,1.662c-2.568,1.104-5.142,2.209-7.712,3.311
	c-0.526,0.23-1.059,0.516-1.604,0.691c-0.001,0-40.273,13.262-40.273,13.262l-110.127,38.342L907.96,669.08l-290.15,97.537
	l-15.762,8.32l-10.575,1.199l-10.883-5.787l-89.184-95.207l-72.396-75.518L256.708,411.833l-94.789-119.48L105.112,208.6
	l-63.849-92.455L7.58,60.282L1.745,48.881L0,43.333l1.062-3.915l3.089-2.381l44.696-7.726l46.273-6.409l57.048-7.597l58.554-8.622
	l34.576-5.198L254.407,0l6.379,0.151l5.447,1.266l6.442,4.875l22.977,22.842l28.292,31.668l21.808,24.128L345.75,84.928z"/>
</svg>
