<?xml version="1.0" encoding="utf-8"?>
<!-- Generator: Adobe Illustrator 16.0.0, SVG Export Plug-In . SVG Version: 6.00 Build 0)  -->
<!DOCTYPE svg PUBLIC "-//W3C//DTD SVG 1.1//EN" "http://www.w3.org/Graphics/SVG/1.1/DTD/svg11.dtd">
<svg version="1.1" id="Layer_1" xmlns="http://www.w3.org/2000/svg" xmlns:xlink="http://www.w3.org/1999/xlink" x="0px" y="0px"
	 width="1262.99px" height="776.133px" viewBox="0 0 1262.99 776.133" enable-background="new 0 0 1262.99 776.133"
	 xml:space="preserve">
<path d="M880.155,82.713l-59.827,36.757c-107.97,57.008-216.034,113.807-324.226,170.375
	c-57.254,29.938-114.543,59.807-171.871,89.61c-31.443,16.346-62.351,33.072-93.23,50.323c-4.1,2.289-8.199,4.588-12.297,6.896
	c-23.25,11.24-8.131,13.102,3.979,12.701c22.549-1.408,45.2-2.594,67.936-3.617c79.191-3.562,159.759-4.291,239.65-6.406
	c29.242-0.771,25.812,2.855,47.637-19.91L889.419,94.459c4.157-4.472,7.684-8.433,10.418-11.77
	c6.996-8.529,8.869-12.993,3.188-11.543C899.134,72.141,891.7,75.592,880.155,82.713L880.155,82.713z M1157.874,208.6l63.854-92.455
	l33.682-55.863l5.836-11.401l1.746-5.549l-1.062-3.915l-3.089-2.381l-44.695-7.726l-46.272-6.409l-57.048-7.597l-58.555-8.622
	l-34.576-5.198L1008.578,0l-6.379,0.151l-5.446,1.266l-6.443,4.875L967.33,29.134l-28.291,31.668l-65.881,72.897l-52.155,57.837
	l-49.695,54.294l-37.201,38.358l-40.838,41.188l-42.428,41.599l-32.069,31.23l-37.637,35.568l-16.17,15.559l-6.271,4.111
	l-9.591,3.195l-18.229,0.191l-63.11,3.213l-40.062-0.387l-109.164,0.262l-99.986,0.404l-36.271-0.189l-11.575-0.273l-8.91,0.754
	l-10.062,2.854l-18.607,9.152l-37.59,17.866l-52.727,26.309c0,0-33.384,15.419-33.385,15.42c-2.304,1.063-4.646,2.089-6.712,3.585
	c-0.798,0.578-1.561,1.268-1.985,2.17c-0.589,1.253-0.946,2.711-0.568,4.078c0.35,1.271,1.312,2.271,2.146,3.248
	c0.689,0.81,1.629,1.283,2.564,1.749c1.379,0.688,2.821,1.217,4.226,1.859c2.878,1.317,5.826,2.525,8.745,3.76
	c0.646,0.271,1.292,0.552,1.938,0.829l40.278,13.262l110.127,38.342l184.848,63.975l290.147,97.545l15.762,8.318l10.574,1.199
	l10.882-5.787l89.183-95.207l72.396-75.518l162.311-187.789l94.789-119.481L1157.874,208.6z"/>
</svg>
