<?xml version="1.0" encoding="utf-8"?>
<!-- Generator: Adobe Illustrator 16.0.0, SVG Export Plug-In . SVG Version: 6.00 Build 0)  -->
<!DOCTYPE svg PUBLIC "-//W3C//DTD SVG 1.1//EN" "http://www.w3.org/Graphics/SVG/1.1/DTD/svg11.dtd">
<svg version="1.1" id="Layer_1" xmlns="http://www.w3.org/2000/svg" xmlns:xlink="http://www.w3.org/1999/xlink" x="0px" y="0px"
	 width="911.896px" height="789.406px" viewBox="0 0 911.896 789.406" enable-background="new 0 0 911.896 789.406"
	 xml:space="preserve">
<path fill="none" stroke="#000000" stroke-linejoin="round" stroke-miterlimit="10" d="M481.06,151.093l-0.088,1.457l-0.146,1.437
	l-0.2,1.413l-0.255,1.387l-0.309,1.361l-0.357,1.332l-0.406,1.302l-0.455,1.268l-0.502,1.235l-0.545,1.197l-0.594,1.159
	l-0.629,1.119l-0.672,1.078l-0.709,1.033l-0.748,0.988l-0.779,0.939l-0.812,0.891l-0.847,0.839l-0.875,0.788l-0.903,0.732
	l-0.933,0.677l-0.955,0.619l-0.979,0.562l-1.002,0.5l-1.021,0.438l-1.041,0.375l-1.062,0.312l-1.078,0.244l-1.094,0.176
	l-1.109,0.107l-1.125,0.036l-1.125-0.036l-1.107-0.107l-1.094-0.176l-1.078-0.244l-1.062-0.312l-1.043-0.375l-1.021-0.438
	l-1.002-0.5l-0.979-0.562l-0.957-0.62l-0.933-0.677l-0.902-0.732l-0.875-0.788l-0.85-0.839l-0.812-0.891l-0.781-0.939l-0.743-0.988
	l-0.71-1.033l-0.672-1.078l-0.632-1.119l-0.589-1.159l-0.549-1.197l-0.502-1.235l-0.456-1.268l-0.405-1.302l-0.356-1.332
	l-0.309-1.362l-0.256-1.387l-0.201-1.413l-0.146-1.437l-0.089-1.458l-0.029-1.477l0.029-1.479l0.089-1.458l0.146-1.437l0.201-1.412
	l0.256-1.388l0.309-1.361l0.356-1.331l0.405-1.301l0.456-1.271l0.502-1.234l0.549-1.197l0.589-1.159l0.632-1.12l0.672-1.076
	l0.71-1.034l0.743-0.987l0.781-0.94l0.812-0.891l0.85-0.84l0.876-0.787l0.901-0.733l0.933-0.676l0.957-0.62l0.979-0.561l1.002-0.5
	l1.021-0.438l1.043-0.375l1.062-0.311l1.078-0.244l1.092-0.176l1.109-0.107l1.125-0.036l1.125,0.036l1.109,0.107l1.094,0.176
	l1.078,0.244l1.062,0.311l1.041,0.375l1.021,0.438l1.002,0.5l0.979,0.561l0.957,0.62l0.931,0.676l0.903,0.733l0.875,0.787
	l0.847,0.84l0.812,0.891l0.779,0.94l0.748,0.987l0.709,1.033l0.672,1.076l0.629,1.12l0.594,1.159l0.545,1.197l0.502,1.234
	l0.455,1.269l0.406,1.302l0.357,1.331l0.309,1.361l0.255,1.388l0.2,1.412l0.146,1.437l0.088,1.458l0.029,1.479L481.06,151.093z
	 M539.021,628.847c1.373-6.305,4.339-14.842,10.148-16.096c6.18-1.334,12.703,6.477,15.756,10.791l0.092,0.131l0.785,0.881
	L539.021,628.847z M151.386,58.137c-1.129,0.09-2.303,0.739-3.329,1.275c-1.871,0.975-3.788,1.767-5.861,2.193
	c-2.302,0.473-4.815,0.756-7.167,0.756c-17.221,0-31.181-13.96-31.181-31.181c0-17.22,13.96-31.18,31.181-31.18
	c16.432,0,29.893,12.709,31.094,28.833c0,1.981,1.229,3.584,2.749,3.584l2.214,0.459c33.055,6.852,65.604,16.018,98.085,25.141
	c31.698,8.903,63.463,17.851,95.696,24.629c31.326,6.587,63.228,11.125,95.291,11.08c38.035-0.054,75.851-5.683,112.938-13.785
	c38.207-8.345,75.822-19.315,113.354-30.229c19.667-5.718,39.335-11.439,59.104-16.8l2.381-0.646l159.83,374.212
	c0.97,2.268,2.041,4.514,2.968,6.787c0.672,1.646,1.23,3.326,1.15,5.137c-0.065,1.67-0.651,3.158-1.408,4.627
	c-0.977,1.891-2.166,3.754-3.271,5.576l-48.121,79.504l-0.893,0.352c-10.98,4.322-21.598,9.746-32.312,14.691
	c-6.52,3.006-12.805,6.422-18.834,10.316c-5.391,3.479-10.507,7.303-15.479,11.357c-7.209,5.883-14.103,12.162-21.127,18.26
	c-7.457,6.463-16.072,11.295-24.709,15.984l-0.089,0.049l-5.647,2.561l2.289-0.566l0.076-0.02
	c8.377-1.604,16.818-3.711,25.104-5.758c11.603-2.865,23.164-5.863,34.715-8.906c5.388-1.42,10.769-2.852,16.146-4.293l0.048-0.014
	l11.433-2.854c3.019-0.896,6.166-1.9,9.258-2.463c2.612-0.475,5.88-0.734,7.888,1.379c3.154,3.322,0.145,9.219-1.62,12.494
	l-0.341,0.623l-28,55.342l-0.021,0.044c-0.854,1.558-1.802,3.036-2.996,4.358c-3.146,3.484-8.274,5.701-12.494,7.601
	L474.268,786.109c-1.543,0.674-2.967,1.453-4.448,2.229c-1.371,0.719-2.778,1.352-4.365,0.934c-2.558-0.676-3.66-3.812-4.617-5.992
	c-2.916-6.65-8.775-15.75-17.005-15.896c-7.477-0.137-13.048,7.307-16.138,13.229c-0.47,0.895-0.853,1.787-1.264,2.705
	c-0.51,1.135-1.1,2.119-2.334,2.609c-1.248,0.492-2.418,0.166-3.562-0.383c-0.959-0.461-1.898-0.984-2.854-1.455l-45.812-22.482
	c-1.701-0.838-3.419-1.744-5.149-2.512c-0.729-0.32-1.604-0.688-2.409-0.746c-1.671-0.119-5.48,1.391-7.292,2.049
	c-2.482,1.477-5.408,3.096-8.378,2.615c-1.604-0.26-2.956-1.053-4.294-1.922c-1.605-1.043-3.146-2.104-4.806-3.074l-202.217-118.22
	c-4.372-2.557-8.82-5.006-13.166-7.604c-3.281-1.961-6.485-4.037-9.36-6.568c-6.363-5.604-10.6-13.299-14.42-20.754L7.164,422.949
	c-1.713-3.342-3.579-6.705-5.144-10.113c-1.064-2.318-1.96-4.693-2.019-7.273c-0.057-2.598,0.75-5.049,1.722-7.424
	c1.439-3.528,3.182-7.021,4.768-10.495c0,0,148.056-323.889,148.252-324.318c0.67-1.464-0.128-3.307-1.169-4.371
	C152.909,58.276,152.159,58.075,151.386,58.137z"/>
</svg>
