<?xml version="1.0" encoding="utf-8"?>
<!-- Generator: Adobe Illustrator 16.0.0, SVG Export Plug-In . SVG Version: 6.00 Build 0)  -->
<!DOCTYPE svg PUBLIC "-//W3C//DTD SVG 1.1//EN" "http://www.w3.org/Graphics/SVG/1.1/DTD/svg11.dtd">
<svg version="1.1" id="Layer_1" xmlns="http://www.w3.org/2000/svg" xmlns:xlink="http://www.w3.org/1999/xlink" x="0px" y="0px"
	 width="1449.656px" height="716.613px" viewBox="0 0 1449.656 716.613" enable-background="new 0 0 1449.656 716.613"
	 xml:space="preserve">
<path fill="none" stroke="#000000" stroke-linejoin="round" stroke-miterlimit="10" d="M410.067,471.537
	c-3.928,7.562-10.84,13.057-19.079,15.219c-15.854,4.164-32.307-5.119-36.487-21.049c-1.853-7.055-0.994-14.57,2.362-21.041
	c3.927-7.566,10.837-13.055,19.08-15.219c15.853-4.16,32.304,5.121,36.485,21.051C414.28,457.552,413.427,465.066,410.067,471.537z
	 M54.072,664.26c-5.695-6.152-13.843-10.009-22.891-10.009C13.96,654.251,0,668.211,0,685.432c0,17.223,13.96,31.184,31.182,31.184
	c17.221,0,31.181-13.961,31.181-31.184c1.771-7.188,10.84-7.583,16.656-9.043c0.326-0.021,0.649-0.041,0.97-0.061
	c2.298-0.146,4.599-0.299,6.896-0.418c179.081-9.187,358.313-18.922,536.521-39.479c7.146-0.819,14.387-1.592,21.407-3.188
	c6.674-1.519,12.84-3.771,18.979-6.777c50.771-24.891,101.282-50.289,151.352-76.562c47.426-24.896,94.43-50.564,140.887-77.226
	c68.904-39.528,136.229-81.819,200.793-128.136c40.262-28.883,79.803-58.754,119.025-89.024
	c31.4-24.231,62.682-48.629,93.857-73.148c16.539-13.002,34.104-24.643,51.221-36.862c9.285-6.63,17.191-15.01,23.713-24.346
	c2.928-4.19,4.582-9.05,4.984-14.132c0.396-4.911-2.717-8.58-6.777-10.908c-0.664-0.382-1.359-0.703-2.088-0.962
	c-4.066-1.457-9.514-0.887-13.816-0.843c-15.584-0.326-31.174-0.542-46.76-0.657c-50.184-0.37-100.365,0.312-150.521,1.823
	c-16.846,0.507-33.854,0.614-50.672-0.565c-14.248-1-29.297-2.95-42.908-7.416c-1.547-0.508-3.062-1.113-4.532-1.815
	c-5.396-2.581-9.881-6.363-13.896-10.757c-5.36-5.871-9.973-12.806-14.154-19.549c-10.562-17.031-19.098-35.077-27.518-53.229
	l-1-2.153l-2.295,0.602C953.873,31.793,838.221,72.643,723.662,116.729l-0.766,0.296l-27.003,36.232
	c-5.466,5.017-11.301,9.083-17.777,12.689c-7.903,4.397-16.312,8.021-24.429,12.022L500.272,253.58L256.447,412.438l-0.333,0.53
	c-17.124,27.443-31.688,56.176-46.667,84.812c-8.863,16.938-17.892,33.803-27.7,50.225c-4.978,8.33-9.982,16.688-15.554,24.637
	c-5.392,7.693-11.258,14.812-17.679,21.664c-11.899,12.701-24.937,24.611-38.146,35.938c-12.656,10.849-25.7,21.296-38.989,31.362
	c-5.132,2.804-11.739,6.875-17.312,2.655L54.072,664.26L54.072,664.26z"/>
</svg>
