<?xml version="1.0" encoding="utf-8"?>
<!-- Generator: Adobe Illustrator 16.0.0, SVG Export Plug-In . SVG Version: 6.00 Build 0)  -->
<!DOCTYPE svg PUBLIC "-//W3C//DTD SVG 1.1//EN" "http://www.w3.org/Graphics/SVG/1.1/DTD/svg11.dtd">
<svg version="1.1" id="Layer_1" xmlns="http://www.w3.org/2000/svg" xmlns:xlink="http://www.w3.org/1999/xlink" x="0px" y="0px"
	 width="1304.979px" height="409.666px" viewBox="0 0 1304.979 409.666" enable-background="new 0 0 1304.979 409.666"
	 xml:space="preserve">
<path fill="none" stroke="#000000" stroke-linejoin="round" stroke-miterlimit="10" d="M178.588,223.431
	c-18.193,0.039-33.064-14.768-33.104-32.958c-0.04-18.192,14.769-33.063,32.959-33.103c18.193-0.04,33.064,14.766,33.104,32.959
	C211.586,208.521,196.78,223.392,178.588,223.431z M715.38,371.552c-18.273,0.039-33.211-14.834-33.252-33.107
	c-0.037-18.271,14.834-33.211,33.105-33.246c18.273-0.041,33.211,14.828,33.25,33.104
	C748.525,356.576,733.654,371.511,715.38,371.552z M1255.86,59.704c5.298,3.664,11.478,5.688,17.938,5.688
	c17.221,0,31.182-13.961,31.182-31.182c0-17.221-13.962-31.18-31.183-31.18c-1.775,0-3.519,0.146-5.211,0.433
	c-2.562,0.005-4.64-1.546-4.64-3.463l-200.053,37.122l-115.883-2.377l-87.121,121.89l4.855-1.076l1.277-0.217l1.338-0.166
	l1.396-0.113l1.454-0.064l1.507-0.011l1.557,0.038l1.604,0.088l1.651,0.139l1.695,0.187l1.73,0.235l1.773,0.284l1.809,0.33
	l1.842,0.377l1.87,0.422l1.897,0.468l1.924,0.512l1.949,0.555l1.967,0.598l1.988,0.639l2,0.681l2.016,0.72l2.025,0.762l2.035,0.8
	l2.041,0.837l2.047,0.876l2.045,0.913l2.047,0.948l2.043,0.982l2.037,1.017l2.028,1.051l2.021,1.084l0.732,0.405l0.721,0.409
	l0.711,0.413l0.697,0.416l0.684,0.421l0.672,0.424l0.658,0.43l0.646,0.434l0.633,0.438l0.619,0.443l0.604,0.447l0.592,0.454
	l0.578,0.458l0.562,0.464l0.551,0.47l0.533,0.477l0.522,0.482l0.506,0.487l0.491,0.495l0.479,0.501l0.465,0.508l0.447,0.514
	l0.432,0.522l0.418,0.53l0.402,0.537l0.389,0.545l0.371,0.553l0.359,0.564l0.34,0.571l0.326,0.579l0.311,0.589l0.295,0.602
	l0.148,0.317l0.139,0.321l0.135,0.323l0.125,0.327l0.119,0.331l0.111,0.333l0.104,0.336l0.098,0.341l0.092,0.343l0.08,0.347
	l0.076,0.352l0.062,0.355l0.06,0.359l0.054,0.365l0.043,0.369l0.033,0.375l0.025,0.38l-1.057,0.383l-1.066,0.389v0.395l1.068,0.4
	l0.522,0.406l0.242,0.412l0.103,0.419l0.021,0.425l-0.017,0.428l-0.048,0.436l-0.065,0.443l-0.076,0.451l-0.088,0.457l-0.102,0.462
	l-0.109,0.452l-0.055,0.197l-0.066,0.182l-0.08,0.183l-0.096,0.188l-0.113,0.192l-0.133,0.196l-0.146,0.199l-0.17,0.202
	l-0.188,0.206l-0.207,0.208l-0.227,0.212l-0.248,0.213l-0.27,0.213l-0.286,0.216l-0.306,0.215l-0.326,0.217l-0.344,0.217
	l-0.365,0.217l-0.381,0.215l-0.401,0.217l-0.418,0.216l-0.438,0.215l-0.455,0.213l-0.473,0.214l-0.49,0.212l-0.508,0.213
	l-0.525,0.21l-0.541,0.21l-0.559,0.208l-0.574,0.207l-0.59,0.208l-0.598,0.201l-1.008,0.312l-1.09,0.289l-1.184,0.266l-1.277,0.248
	l-1.367,0.226l-1.457,0.203l-1.547,0.179l-1.633,0.157l-1.721,0.136l-1.809,0.108l-1.893,0.088l-1.979,0.063l-2.059,0.041
	l-2.144,0.019l-2.226-0.006l-2.305-0.029l-2.388-0.053l-2.468-0.078l-2.545-0.101l-2.627-0.123l-2.701-0.147l-2.78-0.17
	l-2.856-0.194l-2.935-0.22l-3.009-0.241l-3.086-0.267l-3.159-0.289l-3.231-0.312l-3.308-0.335l-3.381-0.36l-3.449-0.383l-3.547-0.41
	L581.036,179.72l-4.232-0.364l-4.196-0.413l-4.167-0.456l-4.139-0.5l-4.111-0.545l-4.084-0.588l-4.059-0.632l-4.032-0.674
	l-4.005-0.716l-3.979-0.757l-3.955-0.797l-3.933-0.836l-3.905-0.876l-3.883-0.915l-3.859-0.952l-3.835-0.988l-3.812-1.027
	l-3.792-1.062l-3.77-1.098l-3.749-1.131l-3.729-1.166l-3.706-1.199l-3.688-1.232l-3.666-1.264l-3.647-1.295l-3.628-1.326
	l-3.609-1.357l-3.593-1.384l-3.573-1.415l-3.558-1.444l-3.541-1.471l-3.493-1.483L190.185,16.551l-1.043-0.634l-1.128-0.612
	l-1.129-0.542l-1.132-0.471l-1.134-0.4l-1.136-0.328l-1.136-0.26l-1.136-0.188l-1.136-0.12l-1.136-0.049l-1.132,0.019l-1.128,0.086
	l-1.123,0.153l-1.119,0.219l-1.112,0.283l-1.107,0.347l-1.101,0.408l-1.097,0.468l-1.088,0.527l-1.083,0.587l-1.076,0.642
	l-1.069,0.7l-1.064,0.755l-1.059,0.808l-1.056,0.861l-1.049,0.914l-1.044,0.964l-1.042,1.017l-1.036,1.065l-1.031,1.115
	l-1.029,1.163l-1.021,1.203L12.795,197.092l-0.359,0.439l-0.35,0.433l-0.349,0.431l-0.345,0.43l-0.34,0.429l-0.337,0.426
	l-0.335,0.425l-0.333,0.426l-0.33,0.422l-0.328,0.422l-0.326,0.42l-0.321,0.42l-0.323,0.418l-0.32,0.417l-0.321,0.417l-0.317,0.416
	l-0.318,0.415l-0.315,0.415l-0.317,0.414l-0.317,0.414l-0.315,0.414l-0.615,0.801l-0.339,0.438l-0.318,0.414l-0.321,0.412
	l-0.319,0.414l-0.324,0.414l-0.324,0.412l-0.327,0.412l-0.328,0.416l-0.345,0.434l-0.493,0.646l-0.44,0.648L1,212.464l-0.32,0.639
	l-0.261,0.635l-0.199,0.631l-0.136,0.627l-0.071,0.625L0,216.229l0.058,0.604l0.119,0.584l0.175,0.562l0.229,0.541l0.271,0.52
	l0.312,0.494l0.347,0.473l0.38,0.455l0.407,0.438l0.434,0.427l0.457,0.416l0.48,0.403l0.498,0.399l0.518,0.394l0.533,0.396
	l0.549,0.392l0.562,0.39L6.9,224.51l0.583,0.394l0.594,0.397l0.597,0.404l0.602,0.408l0.688,0.473l48.754,24.687l23.154,8.065
	l77.689,19.3l635.61,131.03l55.957-0.121L1215.396,48.17c2.746-2.703,6.975-5.06,10.604-6.278c6.547-2.198,12.92-0.363,17.668,4.519
	c1.375,1.413,2.643,2.985,3.901,4.58C1250.084,54.166,1252.575,57.433,1255.86,59.704z"/>
</svg>
