<?xml version="1.0" encoding="utf-8"?>
<!-- Generator: Adobe Illustrator 16.0.0, SVG Export Plug-In . SVG Version: 6.00 Build 0)  -->
<!DOCTYPE svg PUBLIC "-//W3C//DTD SVG 1.1//EN" "http://www.w3.org/Graphics/SVG/1.1/DTD/svg11.dtd">
<svg version="1.1" id="Layer_1" xmlns="http://www.w3.org/2000/svg" xmlns:xlink="http://www.w3.org/1999/xlink" x="0px" y="0px"
	 width="1349.262px" height="644.894px" viewBox="0 0 1349.262 644.894" enable-background="new 0 0 1349.262 644.894"
	 xml:space="preserve">
<path fill="none" stroke="#000000" stroke-linejoin="round" stroke-miterlimit="10" d="M187.633,597.746
	c-11.802,6.221-26.417,1.691-32.638-10.107c-6.223-11.803-1.694-26.418,10.106-32.639s26.418-1.693,32.64,10.107
	C203.96,576.908,199.434,591.525,187.633,597.746z M1293.531,50.408c-2.84-2.381-7.005-1.951-9.323,0.952
	c-1.408,2.451-3.361,5.271-5.845,8.523l-374.89,453.232c-16.174,20.902-21.129,25.145-43.836,28.705L17.432,644.699
	c-12.626,0.814-26.331-0.305-9.863-15.814c126.54-114.102,267.904-238.375,398.18-362.446
	C507.073,169.935,592.506,97.325,683.375,4.055c97.073,7.143,375.075,20.588,579.842,30.616c6.56,0.456,11.71,1.058,15.509,2.014
	l0.001,0.001c4.052,0.762,7.424-1.45,8.174-5.505C1286.9,13.96,1300.86,0,1318.079,0c17.223,0,31.183,13.96,31.183,31.181
	c0,17.221-13.96,31.181-31.183,31.181c-9.969,0-18.845-4.678-24.552-11.958L1293.531,50.408z"/>
</svg>
