<?xml version="1.0" encoding="utf-8"?>
<!-- Generator: Adobe Illustrator 16.0.0, SVG Export Plug-In . SVG Version: 6.00 Build 0)  -->
<!DOCTYPE svg PUBLIC "-//W3C//DTD SVG 1.1//EN" "http://www.w3.org/Graphics/SVG/1.1/DTD/svg11.dtd">
<svg version="1.1" id="Layer_1" xmlns="http://www.w3.org/2000/svg" xmlns:xlink="http://www.w3.org/1999/xlink" x="0px" y="0px"
	 width="1349.262px" height="644.894px" viewBox="0 0 1349.262 644.894" enable-background="new 0 0 1349.262 644.894"
	 xml:space="preserve">
<path fill="none" stroke="#000000" stroke-linejoin="round" stroke-miterlimit="10" d="M1263.217,34.671
	C1058.45,24.643,780.448,11.198,683.375,4.055c-90.869,93.27-176.302,165.88-277.628,262.381
	C275.473,390.509,134.109,514.783,7.569,628.884c-16.468,15.51-2.763,16.629,9.863,15.814L859.639,541.82
	c22.707-3.561,27.662-7.803,43.836-28.705l374.889-453.232C1293.084,40.598,1289.225,36.478,1263.217,34.671z M187.633,597.746
	c-11.802,6.221-26.417,1.691-32.638-10.107c-6.223-11.803-1.694-26.418,10.106-32.639s26.418-1.693,32.64,10.107
	C203.96,576.908,199.434,591.525,187.633,597.746z"/>
</svg>
