<?xml version="1.0" encoding="utf-8"?>
<!-- Generator: Adobe Illustrator 16.0.0, SVG Export Plug-In . SVG Version: 6.00 Build 0)  -->
<!DOCTYPE svg PUBLIC "-//W3C//DTD SVG 1.1//EN" "http://www.w3.org/Graphics/SVG/1.1/DTD/svg11.dtd">
<svg version="1.1" id="Layer_1" xmlns="http://www.w3.org/2000/svg" xmlns:xlink="http://www.w3.org/1999/xlink" x="0px" y="0px"
	 width="1293.006px" height="756.221px" viewBox="0 0 1293.006 756.221" enable-background="new 0 0 1293.006 756.221"
	 xml:space="preserve">
<path fill="none" stroke="#000000" stroke-linejoin="round" stroke-miterlimit="10" d="M1268.274,402.985
	c-56.816-48-115.613-88.105-177.978-134.367l-61.072-44.649c-40.45-26.628-58.621-34.104-105.252-44.594L859,168.465L157.851,51.818
	l-53.976-9.297c-43.388-5.08-68.099,6.481-44.385,52.98c92.135,161.106,187.883,296.727,303.97,435.423
	c61.003,69.062,122.626,137.121,187.34,202.678c27.192,27.552,45.131,24.97,81.646,17.955
	c119.081-27.309,233.32-56.424,350.445-98.342l127.729-46.824c50.832-20.414,96.178-45.438,142.797-74.096
	C1298.358,492.734,1307.406,457.275,1268.274,402.985z M835.25,602.475c-20.684-3.561-34.758-22.651-31.34-42.51
	c3.418-19.852,23.072-33.139,43.752-29.576c20.682,3.563,34.76,22.658,31.34,42.513C875.581,592.75,855.927,606.037,835.25,602.475z
	"/>
</svg>
