<?xml version="1.0" encoding="utf-8"?>
<!-- Generator: Adobe Illustrator 16.0.0, SVG Export Plug-In . SVG Version: 6.00 Build 0)  -->
<!DOCTYPE svg PUBLIC "-//W3C//DTD SVG 1.1//EN" "http://www.w3.org/Graphics/SVG/1.1/DTD/svg11.dtd">
<svg version="1.1" id="Layer_1" xmlns="http://www.w3.org/2000/svg" xmlns:xlink="http://www.w3.org/1999/xlink" x="0px" y="0px"
	 width="1517.898px" height="808.367px" viewBox="0 0 1517.898 808.367" enable-background="new 0 0 1517.898 808.367"
	 xml:space="preserve">
<path fill="none" stroke="#000000" stroke-linejoin="round" stroke-miterlimit="10" d="M642.056,69.776L682.01,0l338.95,172.752
	l496.938,234.964l-4.647,11.918l-471.259-104.299l-3.815-0.866l-3.634-0.712l-3.487-0.568l-3.334-0.424l-3.179-0.282l-3.01-0.141
	l-2.838-0.002l-2.652,0.136l-2.467,0.272l-2.268,0.401l-2.062,0.527l-1.85,0.643l-1.635,0.752l-1.423,0.851l-1.211,0.945
	l-1.016,1.032l-0.828,1.128l-0.656,1.241l-0.487,1.372l-0.316,1.524l-0.127,1.698l0.076,1.882l0.299,2.065l0.537,2.248l0.789,2.431
	l1.051,2.605l1.322,2.78l1.598,2.944l1.884,3.109l2.176,3.268l2.473,3.431l2.769,3.577l193.948,231.512l-2.588,13.485l-2.24,11.646
	l-2.118,11.141l-1.964,10.633l-1.786,10.129l-1.572,9.63l-1.336,9.137l-1.064,8.647l-0.771,8.158l-0.447,7.668l-0.098,7.185
	l0.276,6.704l0.672,6.22l1.095,5.74l1.526,5.28l1.986,4.812l2.461,4.387l2.971,3.979l3.521,3.592l4.116,3.241l4.765,2.882
	l5.457,2.535l6.182,2.18l6.947,1.826l7.734,1.471l8.557,1.106l9.397,0.75l10.269,0.392l11.164,0.039l12.084-0.308l13.032-0.657
	l15.636-1.107l41.498,59.135l-643.608-4.231l-108.12-75.536l-128.296-106.58L373.274,518.062L238.633,386.802L122.665,261.251
	L61.331,184.29l-1.41-3.417l-1.024-3.055l-0.759-2.98l-0.508-2.901l-0.256-2.821l-0.013-2.74l0.227-2.652l0.454-2.56l0.672-2.461
	l0.881-2.357l1.074-2.248l1.259-2.138l1.426-2.022l1.582-1.912l1.726-1.797l1.856-1.69l1.978-1.575l2.087-1.468l2.185-1.364
	l2.276-1.257l2.356-1.155l2.43-1.053l2.49-0.953l2.544-0.854l2.592-0.753l2.627-0.657l2.655-0.559l2.674-0.463l2.685-0.366
	l2.686-0.27l2.682-0.172l2.374-0.07l111.437-22.135L341.48,95.617L642.056,69.776z"/>
</svg>
