<?xml version="1.0" encoding="utf-8"?>
<!-- Generator: Adobe Illustrator 16.0.0, SVG Export Plug-In . SVG Version: 6.00 Build 0)  -->
<!DOCTYPE svg PUBLIC "-//W3C//DTD SVG 1.1//EN" "http://www.w3.org/Graphics/SVG/1.1/DTD/svg11.dtd">
<svg version="1.1" id="Layer_1" xmlns="http://www.w3.org/2000/svg" xmlns:xlink="http://www.w3.org/1999/xlink" x="0px" y="0px"
	 width="865.775px" height="763.714px" viewBox="0 0 865.775 763.714" enable-background="new 0 0 865.775 763.714"
	 xml:space="preserve">
<path fill="none" stroke="#000000" stroke-linejoin="round" stroke-miterlimit="10" d="M174.375,703.667
	c-1.331-0.994-1.076-2.723,0.207-3.625c4.983-1.203,10.107-3.262,15.426-6.291c13.812-10.016,34.027-16.463,59.742-16.459
	l91.979-1.521v0.006l0.027-0.006c27.654,0.006,54.877-0.152,81.842-0.395v-0.184c33.039,0.344,66.41,0.586,100.433,0.572
	l0.024,0.014v-0.014l91.979,1.521c25.713-0.004,45.93,6.443,59.742,16.459c35.658,20.309,62.553-2.994,97.221-35.467
	c71.688-92.705,70.145-182.064,81.604-296.226l8.623-106.979l2.553-67.891l-0.445-65.395c-7.049-32.245-14.945-43.536-43.572-60.671
	l-69.811-37.722c-48.333-20.22-82.938-19.792-134.883-21L514.177,0l-90.582,0.041V0.033L351.6,0L248.71,2.395
	c-51.943,1.208-86.549,0.779-134.882,21.004L44.02,61.121l0,0C15.394,78.256,7.494,89.547,0.447,121.792L0,187.187l2.549,67.891
	l8.631,106.98C22.64,476.222,21.098,565.58,92.787,658.285c20.604,19.299,38.46,35.357,57.043,40.949h-0.006
	c1.982,1.105,1.377,3.486,0,4.828c-10.872,4.871-18.446,15.787-18.446,28.471c0,17.221,13.961,31.182,31.184,31.182
	c17.221,0,31.182-13.961,31.182-31.182c0-13.041-8.007-24.213-19.374-28.867L174.375,703.667z"/>
</svg>
