<?xml version="1.0" encoding="utf-8"?>
<!-- Generator: Adobe Illustrator 16.0.0, SVG Export Plug-In . SVG Version: 6.00 Build 0)  -->
<!DOCTYPE svg PUBLIC "-//W3C//DTD SVG 1.1//EN" "http://www.w3.org/Graphics/SVG/1.1/DTD/svg11.dtd">
<svg version="1.1" id="Layer_1" xmlns="http://www.w3.org/2000/svg" xmlns:xlink="http://www.w3.org/1999/xlink" x="0px" y="0px"
	 width="793.387px" height="554.777px" viewBox="0 0 793.387 554.777" enable-background="new 0 0 793.387 554.777"
	 xml:space="preserve">
<path d="M141.068,539.361L141.068,539.361c12.73,16.676,25.807,14.713,39.114,0c0.987-3.699,31.515-27.89,36.71-33.189
	c28.768-29.387,61.95-32.666,100.53-36.645c26.114-2.695,71.826-0.707,98.72,0.016c17.639,0.18,41.604-0.797,56.602,1.002
	c38.211,4.588,72,8.84,99.904,38.318c5.104,5.393,35.229,30.08,36.152,33.795c13.061,14.934,26.104,17.104,39.106,0.645
	c1.605-2.928,16.478-16.903,20.062-20.348c5.623-5.385,14.229-15.242,18.735-21.715c5.101-7.318,33.132-41.443,33.248-48.461
	l0.021-1.283c0.061-3.785-3.353-5.551-5.652-7.148c-21.088-0.352-16.071-2.42-18.399-20.053c-1.229-9.326-3.281-25.641-3.117-35.469
	c0.125-7.568,12.621-24.211,16.771-29.623c3.373-4.396,6.998-8.479,10.336-12.796c2.271-2.935,9.556-10.487,10.707-12.407
	c2.998-4.986,16.961-20.535,21.396-24.836c3.315-3.212,19.436-24.221,22.039-24.177c5.646,0.095,7.1,3.321,12.127,3.407l0.688,0.015
	c0.775,0.013,1.613,0.093,2.394,0.009c8.524-0.941,1.5-29.422-0.521-32.707l-2.479-13.336l-6.441-28.5l-1.205-6.923l-9.037-38.135
	c0.188-11.2-25.637-93.533-30.471-103.013c-1.396-2.736-0.824-4.125-1.979-6.292c-1.229-2.324-1.734-2.12-2.931-5.369
	c-0.979-2.678-3.717-8.48-5.268-11.309c-3.531-6.446-9.486-14.385-14.486-19.423C703.893,12.774,686.891,4.52,665.866,4.169
	l-1.922-0.032c-17.104-0.286-49.285,4.525-63.36,8.188c-3.188,0.828-11.771,1.717-15.445,2.292
	c-5.104,0.799-11.043,1.59-15.683,2.701c-6.34,1.518-25.491,4.063-32.854,3.848l-1.867,1.344
	c-6.785-0.112-19.643,1.948-26.842,2.904c-8.332,1.106-17.824,2.174-25.836,2.639c-9.605,0.556-19.455-0.097-28.834,0.842
	c-6.697,0.672-21,1.895-28.31,1.435c-8.297-0.522-19.506-0.004-26.832,0.396c-3.802,0.208-10.645-0.099-17.72-0.511
	c-2.812-0.176-5.427-0.156-7.8-0.046c-7.313,0.336-21.594-1.123-28.281-1.907c-9.356-1.095-19.225-0.604-28.812-1.322
	c-8-0.597-17.478-1.824-25.788-3.068c-7.185-1.076-20-3.351-26.787-3.351l-1.846-1.376c-7.361,0.093-26.47-2.77-32.783-4.394
	c-4.62-1.188-10.54-2.077-15.633-2.961c-3.667-0.636-12.236-1.668-15.405-2.549C183.215,5.346,151.123,0,134.014,0h-1.924
	c-21.029,0-38.166,7.971-48.901,18.43c-5.084,4.955-11.17,12.793-14.81,19.178c-1.597,2.804-4.429,8.559-5.454,11.22
	c-1.246,3.229-1.749,3.018-3.018,5.319c-1.188,2.149-0.638,3.546-2.077,6.259c-4.993,9.398-32.186,91.29-32.186,102.492
	l-9.671,37.98l-1.319,6.9l-6.919,28.39L5.043,249.46c-2.12,3.314-9.876,32.726-0.557,32.726h2.565c5.032,0,6.534-3.205,12.183-3.205
	c2.605,0,18.369,21.271,21.635,24.541c4.365,4.373,18.067,20.149,20.98,25.188c1.122,1.938,8.281,9.617,10.5,12.588
	c3.269,4.371,6.823,8.519,10.121,12.968c4.062,5.479,16.274,22.323,16.274,29.896c0,9.828-2.321,26.104-3.708,35.412
	c-2.623,17.592,2.355,19.744-18.734,19.744c-2.178,1.457-5.203,2.295-5.587,5.483c-0.026,0.23-0.062,1.525-0.052,1.879
	c0.011,7.127,27.329,42.572,32.303,49.98c4.396,6.549,12.842,16.547,18.376,22.02C124.878,522.177,139.505,536.404,141.068,539.361
	L141.068,539.361z M141.068,539.361L141.068,539.361L141.068,539.361L141.068,539.361z"/>
</svg>
