<?xml version="1.0" encoding="utf-8"?>
<!-- Generator: Adobe Illustrator 16.0.0, SVG Export Plug-In . SVG Version: 6.00 Build 0)  -->
<!DOCTYPE svg PUBLIC "-//W3C//DTD SVG 1.1//EN" "http://www.w3.org/Graphics/SVG/1.1/DTD/svg11.dtd">
<svg version="1.1" id="Layer_1" xmlns="http://www.w3.org/2000/svg" xmlns:xlink="http://www.w3.org/1999/xlink" x="0px" y="0px"
	 width="793.385px" height="612.859px" viewBox="0 0 793.385 612.859" enable-background="new 0 0 793.385 612.859"
	 xml:space="preserve">
<path fill="none" stroke="#000000" stroke-linejoin="round" stroke-miterlimit="10" d="M141.066,597.442L141.066,597.442
	c12.73,16.676,25.806,14.713,39.114,0c0.987-3.699,31.515-27.888,36.71-33.189c28.767-29.387,61.95-32.666,100.53-36.645
	c26.115-2.695,71.827-0.707,98.72,0.016c17.64,0.18,41.604-0.797,56.603,1.002c38.211,4.588,72,8.84,99.903,38.318
	c5.104,5.393,35.229,30.08,36.152,33.795c13.062,14.934,26.104,17.106,39.107,0.646c1.606-2.928,16.477-16.905,20.062-20.348
	c5.623-5.385,14.23-15.242,18.736-21.715c5.1-7.318,33.132-41.443,33.248-48.461l0.021-1.283c0.062-3.785-3.352-5.551-5.651-7.148
	c-21.088-0.352-16.072-2.42-18.4-20.053c-1.229-9.326-3.281-25.641-3.117-35.469c0.125-7.568,12.621-24.211,16.771-29.623
	c3.373-4.396,6.998-8.479,10.336-12.797c2.27-2.934,9.555-10.486,10.707-12.406c2.998-4.986,16.961-20.535,21.397-24.836
	c3.316-3.213,19.435-24.221,22.039-24.178c5.646,0.096,7.099,3.322,12.127,3.408l0.689,0.014c0.774,0.014,1.613,0.094,2.393,0.009
	c8.525-0.94,1.5-29.422-0.522-32.706l-2.478-13.336l-6.442-28.5l-1.205-6.923l-9.037-38.135
	c0.188-11.2-25.637-93.533-30.471-103.013c-1.396-2.736-0.824-4.125-1.978-6.292c-1.229-2.324-1.734-2.12-2.93-5.369
	c-0.979-2.678-3.717-8.48-5.269-11.309c-3.53-6.446-9.485-14.385-14.485-19.423c-10.558-10.637-27.56-18.891-48.582-19.242
	l-1.922-0.032c-17.104-0.286-49.285,4.525-63.362,8.188c-3.187,0.828-11.771,1.717-15.444,2.292
	c-5.104,0.799-11.043,1.59-15.683,2.701c-6.339,1.518-25.491,4.063-32.854,3.848l-1.866,1.344
	c-6.785-0.112-19.644,1.948-26.843,2.904c-8.332,1.106-17.823,2.174-25.836,2.639c-9.604,0.556-19.455-0.097-28.834,0.842
	c-6.696,0.672-21,1.895-28.308,1.435c-8.298-0.522-19.507-0.004-26.832,0.396c-3.803,0.208-10.646-0.099-17.721-0.511
	c-2.812-0.176-5.427-0.156-7.8-0.046c-7.313,0.336-21.594-1.123-28.281-1.907c-9.357-1.095-19.225-0.604-28.812-1.322
	c-8-0.597-17.477-1.824-25.788-3.068c-7.185-1.076-20-3.351-26.787-3.351l-1.846-1.376c-7.361,0.093-26.47-2.77-32.783-4.394
	c-4.62-1.188-10.54-2.077-15.633-2.961c-3.667-0.636-12.236-1.668-15.405-2.549c-14.014-3.895-46.105-9.241-63.214-9.241h-1.924
	c-21.029,0-38.166,7.971-48.901,18.43c-5.084,4.955-11.17,12.793-14.81,19.178c-1.597,2.804-4.429,8.559-5.454,11.22
	c-1.246,3.229-1.749,3.018-3.018,5.319c-1.187,2.149-0.637,3.546-2.077,6.259c-4.993,9.398-32.185,91.29-32.185,102.492
	l-9.671,37.98l-1.319,6.9l-6.919,28.39L5.04,307.543c-2.12,3.314-9.876,32.725-0.556,32.725H7.05c5.032,0,6.534-3.205,12.183-3.205
	c2.605,0,18.369,21.271,21.634,24.541c4.366,4.373,18.068,20.15,20.981,25.188c1.122,1.938,8.281,9.617,10.5,12.588
	c3.268,4.371,6.823,8.519,10.121,12.968c4.061,5.479,16.274,22.323,16.274,29.896c0,9.828-2.321,26.104-3.708,35.412
	c-2.623,17.592,2.356,19.744-18.734,19.744c-2.178,1.457-5.203,2.295-5.587,5.485c-0.026,0.229-0.062,1.525-0.052,1.879
	c0.011,7.127,27.329,42.572,32.303,49.979c4.397,6.549,12.842,16.547,18.376,22.021C124.875,580.26,139.502,594.485,141.066,597.442
	L141.066,597.442z M141.066,597.442L141.066,597.442L141.066,597.442L141.066,597.442z"/>
</svg>
