<?xml version="1.0" encoding="utf-8"?>
<!-- Generator: Adobe Illustrator 16.0.0, SVG Export Plug-In . SVG Version: 6.00 Build 0)  -->
<!DOCTYPE svg PUBLIC "-//W3C//DTD SVG 1.1//EN" "http://www.w3.org/Graphics/SVG/1.1/DTD/svg11.dtd">
<svg version="1.1" id="Layer_1" xmlns="http://www.w3.org/2000/svg" xmlns:xlink="http://www.w3.org/1999/xlink" x="0px" y="0px"
	 width="1480.508px" height="714.825px" viewBox="0 0 1480.508 714.825" enable-background="new 0 0 1480.508 714.825"
	 xml:space="preserve">
<path fill="none" stroke="#000000" stroke-linejoin="round" stroke-miterlimit="10" d="M400.75,634.042
	c13.343,0,24.158,10.816,24.158,24.16s-10.815,24.16-24.158,24.16c-13.345,0-24.16-10.816-24.16-24.16
	S387.406,634.042,400.75,634.042z M223.333,709.331c0-7.732-5.846-13.99-13.065-13.99l-7.247,6.713l0,0
	c-16.469-24.979-34.603-39.627-54.746-41.797C130.045,511.375,78.363,384.377,1.478,273.87c-2.965-5.967-1.306-9.861,3.52-12.337
	L850.857,66.895c4.647-2.371,7.694-6.359,7.693-10.883c-7.485-5.695-12.318-14.698-12.318-24.831C846.232,13.96,860.192,0,877.411,0
	c17.223,0,31.183,13.96,31.183,31.181c0,0.476-0.013,0.949-0.032,1.419c-0.354,5.322-2.382,13.085,3.977,15.758l199.89-14.183
	c7.058,23.816,11.445,41.69,48.51,48.559c88.168,2.23,197.271,8.77,297.188,13.368c26.026,1.447,27.793,2.717,13.343,22.202
	l-364.143,467.224c-9.834,12.445-11.011,15.625-30.174,18.49L238.033,714.67c-7.905,0.621-14.721-0.523-14.703-5.34H223.333
	L223.333,709.331z"/>
</svg>
