<?xml version="1.0" encoding="utf-8"?>
<!-- Generator: Adobe Illustrator 16.0.0, SVG Export Plug-In . SVG Version: 6.00 Build 0)  -->
<!DOCTYPE svg PUBLIC "-//W3C//DTD SVG 1.1//EN" "http://www.w3.org/Graphics/SVG/1.1/DTD/svg11.dtd">
<svg version="1.1" id="Layer_1" xmlns="http://www.w3.org/2000/svg" xmlns:xlink="http://www.w3.org/1999/xlink" x="0px" y="0px"
	 width="1610.648px" height="815.167px" viewBox="0 0 1610.648 815.167" enable-background="new 0 0 1610.648 815.167"
	 xml:space="preserve">
<path fill="none" stroke="#000000" stroke-linejoin="round" stroke-miterlimit="10" d="M1564.76,637.992
	c-10.365-12.354-29.42-22.375-47.167-32.926c-51.589-30.672-121.461-63.445-178.272-101.992c-6.57-4.461-11.67-7.889-14.835-10.527
	c-7.838-6.543-5.925-9.451-5.67-12.02c0.021-0.232-62.572-16.059-62.519-16.271c0.085-0.336,62.972,15.346,63.191,15.088
	c1.708-2.01,4.603-3.094,9.872-2.051c12.354,2.449,33.709,7.861,55.408,13.125c32.23,7.818,75.555,12.457,86.36,13.896
	c0.334,0.045-2.985-13.865-3.694-17.479c-0.177-0.885-0.467-1.619-0.962-2.113c-10.857-9.131-20.815-16.719-31.874-25.26
	c-72.205-55.77-148.005-100.673-219.121-156.897c-0.053-0.039-0.104-0.08-0.156-0.12c-53.5-40.756-111.428-74.573-178.448-84.922
	c-151.501-23.397-317.059-37.98-469.688-36.519c-12.216,0.117-23.671-3.77-34.615-6.007c-6.831-0.859-24.812-15.969-32.716-27.647
	c-2.354-3.473-7.864-1.905-9.679,1.505c-1.519,2.851,9.522,24.103,0.725,29.861c-3.072,2.008-6.374,4.095-10.188,5.368
	c-6.776,2.262-14.597,4.015-23.074,5.327c-39.402,6.096-99.78-5.124-139.537-21.297c-2.429-0.988-16.867-8.591-19.125-9.765
	c-4.146-2.155-4.642-1.381-4.852,2.041c-0.567,9.336-0.805,18.643-1.479,27.986c-1.045,14.475-0.698,30.379-5.269,35.82
	c-7.466,8.889-15.132,11.008-21.905,12.969c-9.046,2.618-17.303-1.198-24.406-8.623c-13.108-13.697-20.135-43.29-23.166-63.834
	c-1.001-4.259-1.975-4.655-6.676-4.336l-50.035,3.391c-5.646,0.134-5.062,1.171-0.476,9.603
	c7.726,14.195,14.785,29.39,22.231,44.085c11.715,23.116,15.087,58.996-4.73,78.959c-2.237,2.256-4.914,4.166-7.477,6.405
	c-20.005,17.474-45.896,34.683-67.923,50.31c-25.375,18.001-51.899,35.927-79.121,56.417c-13.404,10.09-21.483,19.279-22.076,21.223
	c-0.817,2.684-1.865,4.842-1.567,7.844c0.423,4.242,1.783,8.531,4.396,12.006c7.841,10.434,55.45,54.379,113.77,107.092
	c95.811,86.6,220.529,196.871,245.321,221.113c33.283,27.881,37.411,32.205,79.339,34.25c27.189,1.324,55.81,0.154,85.975,1.225
	c77.726,2.762,165.744-1.143,266.699-10.135c73.67-6.561,154.229-15.832,242.702-27.195
	c113.372-14.561,231.288-30.496,342.979-53.549c22.673-4.682,40.587-6.639,63.386-10.291c4.328,0.496,23.638,6.049,38.955,13.211
	c22.746-12.619,57.659-26.912,78.107-39.473C1579.24,676.07,1576.949,652.513,1564.76,637.992z M1059.073,346.531
	c-5.166-9.675-66.623-36.641-76.351-39.952c-81.52-27.757-178.276-54.254-263.728-54.678c-10.654-0.052-21.58,0.754-30.041,0.957
	c-1.03,0.024-1.809-0.965-2.225-2.633c0.729-2.684,1.191-6.644,4.018-8.617c1.42-0.99,4.55-2.165,6.985-2.545
	c27.229-4.251,53.905-5.055,80.623-4.526c25.097,0.497,50.259,1.603,75.885,3.267c11.688,0.759,19.951,1.534,29.481,4.023
	c12.258,3.201,26.608,9.234,53.041,21.711c27.336,12.905,58.938,31.011,100.418,52.477c8.146,4.702,17.878,10.94,21.138,13.425
	c1.935,1.476,4.779,3.9,6.812,6.213C1070.15,341.371,1063.792,342.864,1059.073,346.531z M1494.979,661.572
	c-13.153,1.252-24.842-8.398-26.096-21.557c-1.251-13.152,8.399-24.84,21.557-26.096c13.154-1.254,24.843,8.4,26.096,21.555
	C1517.789,648.63,1508.136,660.316,1494.979,661.572z M1041.222,196.64l-11.958-2.38l-12.571-2.242l-13.173-2.115l-13.718-1.994
	l-14.229-1.88l-14.689-1.773l-15.119-1.672l-15.501-1.578l-15.842-1.49l-16.146-1.408l-16.399-1.333l-16.617-1.264l-16.789-1.202
	l-16.923-1.145l-17.016-1.094l-17.062-1.05l-17.063-1.014l-17.027-0.982l-16.949-0.958l-16.828-0.938l-16.664-0.927l-16.46-0.919
	l-16.212-0.92l-15.919-0.926l-15.562-0.937l-32.489-0.932l-14.816-0.984l-14.331-1.013l-7.982-0.607l-0.285-0.168
	c-2.824-1.674-6.635-4.554-7.448-7.936l-0.31-1.289l1.265-0.395c2.903-0.908,5.626-2.631,7.968-4.544l0.259-0.21l0.322-0.074
	c5.589-1.286,10.754-5.915,14.355-10.164c2.374-2.8,4.7-5.733,7.168-8.441c1.496-1.64,3.105-3.228,5.141-4.183
	c2.213-1.039,4.764-1.238,7.171-1.363c4.279-0.223,8.568-0.275,12.857-0.509l570.656-31.054c8.157-0.505,14.812,1.523,21.782,5.602
	c5.111,2.993,10.232,7.156,15.765,9.219c3.021,1.128,6.082,1.55,9.295,1.179c26.418-3.05,52.054-8.039,75.844-20.404
	c14.037-7.294,26.671-16.659,38.803-26.747c7.316-6.084,14.442-12.411,21.505-18.79c8.432-7.616,16.775-15.323,25.146-23.002
	c3.438-3.154,6.829-6.466,10.364-9.5c2.26-1.938,4.646-3.771,7.441-4.854c2.729-1.054,5.591-1.299,8.488-1.331
	c4.446-0.049,9.034,0.311,13.479,0.569c11.771,0.687,23.549,1.323,35.336,1.708c2.177,0.071,4.584,0.114,6.729,0.474
	c1.415,0.238,3.017,0.688,3.762,2.038c1.188,2.15-0.794,5.736-1.735,7.699c-2.368,4.93-4.614,9.672-6.573,14.8
	c-7.177,18.776-5.839,36.975,3,54.857c3.571,7.224,7.54,13.793,12.471,20.156c1.372,1.772,2.832,3.517,4.137,5.337
	c1.03,1.443,1.959,2.961,2.438,4.686c1.015,3.641-0.304,7.554-1.646,10.932c-1.17,2.945-2.549,5.845-3.931,8.696
	c-2.032,4.202-4.141,8.373-6.233,12.545c-4.248,8.464-8.342,17.068-11.781,25.895c-5.673,14.536-8.395,29.692-8.445,45.281
	c-0.062,17.652,3.287,35.166,8.506,51.981c5.437,17.521,12.912,34.459,21.196,50.808c6.97,13.755,14.568,27.183,22.337,40.5
	c7.35,12.598,14.873,25.098,22.092,37.77l62.804,110.272l-12.375,13.398l-84.783-21.145c-7.778-1.938-16.029-4.146-22.795-8.604
	c-2.463-1.619-4.731-3.494-6.963-5.418c-2.918-2.521-5.774-5.1-8.688-7.604l-1.229-1.02l-1.371-1.113l-1.521-1.209l-8.553-6.734
	l-7.328-5.758l-2.695-2.232l-8.444-6.941l-8.565-6.979l-8.672-7.021l-8.771-7.047l-8.854-7.068l-8.932-7.08l-8.992-7.094
	l-9.044-7.09l-9.083-7.09l-9.113-7.077l-9.131-7.058l-9.135-7.034l-9.13-7.002l-9.111-6.964l-9.084-6.919l-9.044-6.868l-8.991-6.808
	l-8.926-6.741l-8.854-6.672l-8.77-6.593l-8.673-6.506l-8.562-6.412l-8.438-6.315l-8.309-6.21l-8.165-6.096l-8.036-5.994
	l-5.479-3.943l-5.445-3.852l-5.437-3.771l-5.428-3.692l-5.421-3.614l-5.419-3.534l-5.419-3.455l-5.422-3.375l-5.433-3.296
	l-5.438-3.217l-5.449-3.137l-5.467-3.057l-5.482-2.978l-5.507-2.898l-5.528-2.818l-5.56-2.737l-5.584-2.659l-5.621-2.578
	l-5.652-2.498l-5.691-2.417l-5.732-2.337l-5.78-2.256l-5.827-2.176l-5.878-2.095l-5.932-2.014l-5.982-1.934l-6.045-1.853
	l-6.104-1.773l-6.171-1.691l-6.237-1.61l-6.312-1.529L1041.222,196.64L1041.222,196.64z"/>
</svg>
