<?xml version="1.0" encoding="utf-8"?>
<!-- Generator: Adobe Illustrator 16.0.0, SVG Export Plug-In . SVG Version: 6.00 Build 0)  -->
<!DOCTYPE svg PUBLIC "-//W3C//DTD SVG 1.1//EN" "http://www.w3.org/Graphics/SVG/1.1/DTD/svg11.dtd">
<svg version="1.1" id="Layer_1" xmlns="http://www.w3.org/2000/svg" xmlns:xlink="http://www.w3.org/1999/xlink" x="0px" y="0px"
	 width="1604.168px" height="830.357px" viewBox="0 0 1604.168 830.357" enable-background="new 0 0 1604.168 830.357"
	 xml:space="preserve">
<path fill="none" stroke="#000000" stroke-linejoin="round" stroke-miterlimit="10" d="M1563.734,658.112
	c-10.305-12.403-29.311-22.522-47.002-33.162c-51.438-30.929-121.143-64.054-177.762-102.888
	c-6.549-4.493-11.631-7.946-14.779-10.604c-7.806-6.584-5.875-9.48-5.608-12.048c0.021-0.231-62.491-16.369-62.435-16.584
	c0.087-0.335,62.893,15.662,63.113,15.404c1.722-2.002,4.619-3.07,9.885-2c12.341,2.509,33.671,8.027,55.343,13.399
	c32.192,7.98,75.491,12.836,86.293,14.33c0.332,0.046-2.918-13.881-3.607-17.497c-0.172-0.888-0.457-1.621-0.951-2.119
	c-10.812-9.184-20.731-16.819-31.746-25.419c-71.924-56.131-147.497-101.414-218.329-157.995c-0.054-0.04-0.104-0.08-0.158-0.121
	c-53.293-41.024-111.056-75.131-178.021-85.817c-151.38-24.156-316.866-39.571-469.501-38.876
	c-12.214,0.055-23.647-3.889-34.584-6.181c-6.827-0.894-24.729-16.093-32.577-27.811c-2.332-3.483-7.854-1.944-9.686,1.457
	c-1.53,2.843,9.402,24.151,0.573,29.864c-3.08,1.992-6.394,4.062-10.213,5.317c-6.79,2.227-14.618,3.941-23.103,5.21
	c-39.436,5.899-99.756-5.624-139.43-21.997c-2.426-1-16.823-8.676-19.077-9.861c-4.131-2.175-4.632-1.404-4.859,2.017
	c-0.617,9.332-0.896,18.638-1.621,27.979c-1.118,14.469-0.85,30.375-5.447,35.793c-7.51,8.85-15.186,10.93-21.971,12.858
	c-9.058,2.573-17.295-1.284-24.363-8.745c-13.037-13.762-19.917-43.39-22.845-63.95c-0.979-4.264-1.95-4.665-6.655-4.371
	l-50.051,3.14c-5.645,0.106-5.066,1.146-0.521,9.6c7.652,14.235,14.637,29.465,22.01,44.197
	c11.598,23.175,14.791,59.072-5.127,78.935c-2.25,2.245-4.936,4.142-7.509,6.368c-20.093,17.372-46.067,34.451-68.174,49.968
	c-25.467,17.875-52.078,35.668-79.403,56.019c-13.454,10.023-21.579,19.171-22.184,21.113c-0.829,2.678-1.89,4.83-1.605,7.834
	c0.397,4.245,1.739,8.54,4.333,12.028c7.788,10.474,55.176,54.654,113.228,107.666c95.375,87.079,219.538,197.976,244.208,222.343
	c33.146,28.047,37.25,32.392,79.167,34.646c27.184,1.461,55.811,0.437,85.968,1.658c77.71,3.151,165.747-0.312,266.745-8.796
	c73.702-6.194,154.311-15.058,242.838-25.977c113.44-13.993,231.437-29.334,343.239-51.826c22.696-4.568,40.62-6.438,63.438-9.977
	c4.326,0.52,23.605,6.167,38.889,13.406c22.812-12.504,57.793-26.62,78.31-39.08C1578.021,696.263,1575.85,672.697,1563.734,658.112
	z M1059.513,364.112c-5.116-9.701-66.438-36.975-76.147-40.335c-81.377-28.165-178.002-55.147-263.447-56.001
	c-10.653-0.106-21.584,0.645-30.045,0.806c-1.03,0.02-1.805-0.974-2.212-2.644c0.743-2.679,1.227-6.638,4.062-8.596
	c1.425-0.983,4.561-2.142,6.998-2.51c27.25-4.114,53.933-4.785,80.646-4.121c25.096,0.623,50.253,1.856,75.87,3.648
	c11.686,0.818,19.941,1.634,29.463,4.171c12.239,3.263,26.562,9.369,52.934,21.978c27.27,13.041,58.775,31.305,100.15,52.98
	c8.123,4.742,17.821,11.029,21.062,13.528c1.924,1.486,4.758,3.924,6.778,6.248C1070.615,359.008,1064.248,360.469,1059.513,364.112
	z M1493.836,681.337c-13.162,1.188-24.799-8.521-25.986-21.685c-1.186-13.161,8.525-24.801,21.688-25.987
	c13.162-1.188,24.801,8.524,25.985,21.686C1516.712,668.513,1507,680.148,1493.836,681.337z M552.247,179.087
	c167.895,5.748,336.515,9.763,498.65,29.204c44.228,6.93,79.021,24.418,120.715,52.39
	c55.071,38.938,208.983,140.085,310.043,227.992c22.096,4.63,44.901,9.564,68.104,14.637c13.23,1.905,26.474,2.982,33.603-0.26
	c6.029-2.931,11.767-6.428,17.797-9.355c3.865-2.347,3.695-4.729,1.263-7.951c-29.054-43.461-58.108-86.92-87.161-130.381
	c-35.807-66.781-80.143-127.653-26.219-233.106c4.512-7.319,2.73-11.721-1.943-14.97c-45.938-38.351-34.509-70.167-28.035-92.681
	c2.024-5.53,1.828-15.05-8.312-14.27c-13.514-0.11-27.027-0.22-40.545-0.33c-9.926-0.018-16.162,6.759-20.797,13.123
	c-35.125,42.404-98.156,89.112-120.877,92.202c-28.433,3.105-56.858,6.21-85.289,9.315c-2.528-10.874-6.176-25.593-8.705-36.467
	c-198.654,18.157-396.047,36.364-594.705,54.521c0.1,8.243,0.048,20.282,0.146,28.524c-3.618,0.703-7.37,0.768-10.988,1.47
	C560.771,164.572,555.745,170.028,552.247,179.087L552.247,179.087z"/>
</svg>
