<?xml version="1.0" encoding="utf-8"?>
<!-- Generator: Adobe Illustrator 16.0.0, SVG Export Plug-In . SVG Version: 6.00 Build 0)  -->
<!DOCTYPE svg PUBLIC "-//W3C//DTD SVG 1.1//EN" "http://www.w3.org/Graphics/SVG/1.1/DTD/svg11.dtd">
<svg version="1.1" id="Layer_1" xmlns="http://www.w3.org/2000/svg" xmlns:xlink="http://www.w3.org/1999/xlink" x="0px" y="0px"
	 width="1604.168px" height="830.357px" viewBox="0 0 1604.168 830.357" enable-background="new 0 0 1604.168 830.357"
	 xml:space="preserve">
<path fill="none" stroke="#000000" stroke-linejoin="round" stroke-miterlimit="10" d="M1465.646,503.857
	c-10.59-8.969-20.351-16.485-31.17-24.932c-71.924-56.131-147.497-101.414-218.329-157.995c-0.054-0.04-0.104-0.08-0.157-0.121
	c-53.293-41.024-111.057-75.131-178.021-85.817c-151.38-24.156-316.866-39.571-469.501-38.876
	c-9.333,0.042-18.209-2.251-26.757-4.358 M590.463,131.727c-3.542,0.324-7.085,0.648-10.628,0.972
	c0.043,3.604,0.057,7.935,0.066,12.355 M552.248,179.087c167.894,5.748,336.514,9.763,498.65,29.204
	c44.228,6.93,79.021,24.418,120.715,52.39c55.071,38.938,208.982,140.084,310.043,227.992"/>
</svg>
