<?xml version="1.0" encoding="utf-8"?>
<!-- Generator: Adobe Illustrator 16.0.0, SVG Export Plug-In . SVG Version: 6.00 Build 0)  -->
<!DOCTYPE svg PUBLIC "-//W3C//DTD SVG 1.1//EN" "http://www.w3.org/Graphics/SVG/1.1/DTD/svg11.dtd">
<svg version="1.1" id="Layer_1" xmlns="http://www.w3.org/2000/svg" xmlns:xlink="http://www.w3.org/1999/xlink" x="0px" y="0px"
	 width="1605.014px" height="763.17px" viewBox="0 0 1605.014 763.17" enable-background="new 0 0 1605.014 763.17"
	 xml:space="preserve">
<path fill="none" stroke="#000000" stroke-linejoin="round" stroke-miterlimit="10" d="M608.363,252.479
	c57.752-46.855,94.207-73.934,140.949-86.691c27.494-7.504,61.885-16.615,94.491-22.384c21.867-3.868,42.938-6.235,60.6-5.607
	c2.463,0.088,4.547,0.704,6.111,1.44c3.119,1.466,3.521,4.156,4.691,6.677c-0.508,6.858-9.535,0.412-12.363,1.275
	c-44.986,15.768-119.127,25.654-167.53,53.698l-119.392,69.17l0.08,0.097c-15.979,11.594-31.021,22.41-44.521,30.401
	c-2.481,1.61-3.356,12.667-8.938,8.645c-1.177-2.519-2.979-4.558-2.093-7.89c0.446-1.673,1.315-3.666,2.833-5.607
	C576.479,278.841,591.757,265.951,608.363,252.479L608.363,252.479z M211.992,686.959c13.179-0.98,24.661,8.912,25.644,22.092
	c0.981,13.178-8.911,24.66-22.089,25.646c-13.178,0.979-24.663-8.91-25.646-22.096C188.921,699.426,198.813,687.941,211.992,686.959
	L211.992,686.959z M166.344,577.169c-0.178,0.901,0.467,1.054,1.65,0.79c9.188-2.061,77.085-27.566,107.27-29.277
	c5.364-0.303,9.706-0.615,11.139,2.979c0.126,0.312,53.936-36.928,54.066-36.607c0.085,0.205-53.883,37.52-53.828,37.738
	c0.611,2.51-0.658,6.258-4.168,11.5c-3.183,4.754-8.21,10.738-15.346,18.152l-60.483,59.086l-4.945,4.83
	c-13.75,13.434-39.493,40.049-48.985,56.115c-5.16,8.736-8.41,15.705-10.015,21.27c-4.515,15.645,3.172,25.518,17.005,31.53
	c36.587,15.905,116.07,3.313,126.653,0.562c281.592-38.362,673.264-93.021,960.688-167.248
	c42.701-11.024,56.354-26.608,85.396-58.889c29.916-36.164,70.433-89.188,111.461-140.074
	c41.026-50.888,82.574-99.637,114.562-127.245c21.883-18.891,37.312-34.646,46.553-41.201c-0.854-16.098-0.791-29.562-0.709-35.958
	c-7.479-1.321-27.723-5.859-44.02-9.695c-25.938-6.106-50.332-12.753-71.836-19.678c-28.494-9.173-34.769-11.769-48.517-19.113
	c-3-1.604-5.767-3.373-8.299-5.294c-22.425-16.984-25.192-47.166-17.979-78.859c3.657-16.062,8.037-27.848,13.69-42.987
	c3.356-8.993,3.791-10.101-1.813-9.442l-50.017,3.664c-4.699,0.346-5.605,0.874-5.998,5.23l0,0
	c-0.121,20.766-1.765,46.438-12.814,61.838c-5.995,8.35-13.633,13.286-22.957,11.962c-6.98-0.991-14.868-2.014-23.508-9.767
	c-5.289-4.747-9.033-14.329-12.104-28.515c-1.979-9.156-3.521-18.337-5.395-27.501c-0.688-3.358-1.287-4.055-5.088-1.34
	c-2.069,1.479-15.299,11.033-17.565,12.353c-37.093,21.59-95.399,27.594-135.271,27.087c-8.578-0.108-16.563-0.748-23.598-2.036
	c-3.952-0.725-7.518-2.328-10.837-3.886c-9.521-4.466-6.521-24.574-8.425-27.185c-2.271-3.122-3.534-5.438-5.377-1.67
	c-6.188,12.672-27.248,26.474-33.891,28.283c-4.22,1.03-8.433,2.045-12.645,3.045c-3.053,0-5.521-3.624-5.521-8.102l0.182-0.876
	c0.254-1.211,0.168-2.468-0.473-3.55c-1.48-2.487-4.857-2.602-7.393-2.228c-6.41,0.947-13.682-3.584-18.35-7.498
	c-2.807-2.359-5.594-4.859-8.487-7.113c-1.75-1.364-3.604-2.656-5.771-3.255c-2.361-0.651-4.905-0.418-7.301-0.135
	c-4.249,0.501-8.473,1.17-12.729,1.663c0,0-589.076,41.276-589.1,41.279c-5.594,0.605-10.54,2.462-15.403,5.237
	c-6.295,3.591-11.881,8.3-18.118,12.011c-7.382,4.394-14.636,6.739-23.274,7c-9.772,0.296-20.027,0.362-29.733-0.942
	c-6.798-0.914-13.139-2.543-19.344-5.506c-4.303-2.057-8.308-4.625-12.186-7.392c-4.754-3.394-9.352-7.063-13.944-10.672
	c-6.147-4.83-12.316-9.602-18.62-14.226c-8.559-6.274-17.308-12.268-26.224-18.021c-3.92-2.528-7.821-5.221-11.817-7.616
	c-2.553-1.529-5.213-2.933-8.156-3.529c-2.862-0.58-5.729-0.339-8.593,0.119c-4.373,0.698-8.815,1.819-13.137,2.821l-107.5,16.742
	C41.921,40.596,38.083,38.6,25.59,52.346l-0.028,0.03l-0.023,0.032c-1.312,1.618-2.702,3.17-4.14,4.677
	c-4.586,4.818-9.662,9.133-14.24,13.93c-3.22,3.371-7.362,8.16-7.149,13.134C0.21,88.83,4.101,92.133,7.8,94.4
	c12.079,7.405,24.236,14.683,36.286,22.138c10.716,6.624,21.382,13.397,31.674,20.668c17.645,12.465,34.554,26.661,46.782,44.67
	c10.35,15.243,16.375,31.817,19.163,49.99c3.601,23.489,1.68,48.342-2.095,71.686c-2.646,16.375-6.034,32.646-9.801,48.799
	c-3.924,16.829-8.268,33.562-12.782,50.242c-7.053,26.063-14.549,52.009-21.604,78.073c-4.995,18.447-9.867,37.107-13.845,55.87
	c-0.584,2.756-1.771,4.567-4.371,5.935c-2.288,1.202-4.583,1.055-6.697,0.188c-1.747-0.715-3.371-1.919-4.764-3.254
	c-3.428-3.282-7.793-5.564-12.325-6.898c-2.879-0.848-5.825-1.287-8.831-1.287c-17.221,0-31.181,13.961-31.181,31.184
	c0,17.221,13.96,31.181,31.181,31.181c7.963,0,15.228-2.984,20.737-7.896c5.807-4.262,12.396-7.322,19.198-9.616
	c2.312-0.692,4.688-1.759,6.764-2.73c0,0,48.057-22.495,48.058-22.495c14.924,0,27.001,11.775,27.001,26.328h-0.005V577.169z"/>
</svg>
