<?xml version="1.0" encoding="utf-8"?>
<!-- Generator: Adobe Illustrator 16.0.0, SVG Export Plug-In . SVG Version: 6.00 Build 0)  -->
<!DOCTYPE svg PUBLIC "-//W3C//DTD SVG 1.1//EN" "http://www.w3.org/Graphics/SVG/1.1/DTD/svg11.dtd">
<svg version="1.1" id="Layer_1" xmlns="http://www.w3.org/2000/svg" xmlns:xlink="http://www.w3.org/1999/xlink" x="0px" y="0px"
	 width="1273.377px" height="868.637px" viewBox="0 0 1273.377 868.637" enable-background="new 0 0 1273.377 868.637"
	 xml:space="preserve">
<path fill="none" stroke="#000000" stroke-linejoin="round" stroke-miterlimit="10" d="M672.973,127.325l93.455,51.408
	c1.009,0.432,1.728,0.936,2.16,1.224c44.781,24.624,89.062,60.48,122.328,90.216c31.605,28.368,53.136,51.12,55.296,53.424
	c10.081,8.496,16.561,16.56,20.52,22.536c3.384,5.184,4.968,8.856,5.4,10.008l26.854,51.408c0.575,0.792,1.151,1.584,1.584,2.376
	c0.505,0.864,0.864,1.729,1.151,2.736c0.216,0.647,0.359,1.368,0.359,2.16c0,0.863-0.217,1.872-0.646,2.808
	c-4.812,11.585-9.714,26.306-0.738,37.248c0.001,0.001,260.296,202.729,260.296,202.729c6.05,4.247,8.784,6.909,9,7.127l0.218,0.289
	l0.287,0.284c0.863,1.227,1.655,2.521,2.159,3.816c0.434,1.368,0.722,2.809,0.727,4.176c0,2.16-0.649,4.104-1.515,5.761
	c-0.936,1.584-2.016,2.883-3.168,3.962c-2.304,2.089-4.752,3.454-6.405,4.317c-0.649,0.288-1.153,0.503-1.515,0.647
	c-4.031,2.377-7.271,5.11-9.937,7.99c-2.664,2.883-4.681,5.978-6.265,8.784c-3.099,5.688-4.179,10.584-4.394,11.663
	c0,0.146-0.071,0.146-0.071,0.216v0.289l-0.146,0.359c-0.359,1.296-0.576,2.519-0.576,3.744c0,2.16,0.576,4.391,1.584,6.479
	c1.008,2.159,2.448,4.248,3.89,6.048c2.809,3.387,5.903,5.688,6.336,6.051c4.969,3.237,8.278,5.902,10.655,8.136
	c2.306,2.161,3.603,3.888,4.394,5.185c0.434,0.791,0.721,1.439,0.793,1.943c0.07,0,0.07,0,0.07,0.072
	c0.504,1.871,0.791,3.599,0.791,5.328c0,1.584-0.216,3.096-0.72,4.532c-0.432,1.44-1.08,2.736-1.942,3.816
	c-1.656,2.305-3.816,3.889-5.978,5.04c-1.513,0.72-3.022,1.296-4.537,1.728c-2.088,0.577-4.104,0.938-6.047,1.228
	c-2.593,0.288-4.969,0.356-6.912,0.356c-2.304,0-3.961-0.069-4.319-0.144l-75.91-4.822c-23.43,0-42.387,40.318-42.387,90.146
	l-2.304,1.942c-1.512,1.226-3.167,1.944-4.896,2.521c-1.802,0.576-3.673,0.936-5.616,1.296c-4.032,0.576-8.496,0.72-13.177,0.72
	c-7.2,0-14.762-0.432-20.521-0.936c-5.543-0.504-9.432-1.008-9.72-1.008c-3.744-0.361-8.496-1.228-14.04-2.308
	c-5.615-1.15-12.097-2.664-19.009-4.392c-13.896-3.456-29.735-7.776-44.712-12.024c-28.872-8.136-54.435-15.982-56.306-16.56
	c-35.062-9.072-83.664-22.683-136.941-38.089c-53.354-15.407-111.312-32.615-164.882-48.672
	c-107.207-32.112-196.92-59.688-196.92-59.688h-0.07l-0.072-0.072c-11.304-3.812-18.647-9.503-23.112-14.396
	c-3.743-4.104-5.472-7.562-5.976-8.784c-0.647-1.008-1.225-2.232-1.872-3.456c-0.72-1.368-1.44-2.88-2.088-4.248
	c-1.008-2.16-1.801-4.033-2.088-4.68c-19.297-32.543-44.496-72.146-71.713-113.688c-27.359-41.615-56.809-85.248-84.527-125.712
	c-55.368-80.928-103.752-149.256-114.408-164.232c-1.366-2.016-2.088-3.024-2.158-3.024l-0.071-0.216l-0.146-0.144
	c-3.888-6.624-6.264-13.248-7.632-19.296c-1.368-6.12-1.8-11.592-1.8-15.984c0-5.328,0.576-9.072,0.864-10.296
	c0-0.504,0-0.936,0-1.368c0-2.952-0.503-6.048-1.44-9c-0.864-3.024-2.088-5.904-3.312-8.424c-2.376-4.968-4.97-8.496-5.04-8.568
	l-0.072-0.144l-0.072-0.144c-14.397-22.392-23.04-41.184-23.472-42.048c0,0-17.46-36.535-17.476-36.563
	c-4.854-9.805-15.808-14.01-24.646-19.308c-6.187-3.708-12.451-7.302-18.686-10.93c-1.378-0.802-2.738-1.637-4.108-2.443
	C5.972,52.312,0,42.444,0,31.181C0,13.96,13.96,0,31.181,0c8.645,0,15.938,3.737,22.535,8.992
	c9.768,7.78,18.015,18.886,26.862,26.123c5.5,4.499,11.425,8.514,18.042,11.188c3.777,1.528,7.894,2.369,11.973,2.369l7.404,0.533
	c71.64,3.6,178.704,12.6,267.909,20.736c89.28,8.136,160.635,15.336,160.635,15.336l0.069,0.072
	c39.744,4.392,58.608,11.448,58.969,11.592l0.146,0.072l67.104,30.24L672.973,127.325z"/>
</svg>
