<?xml version="1.0" encoding="utf-8"?>
<!-- Generator: Adobe Illustrator 16.0.0, SVG Export Plug-In . SVG Version: 6.00 Build 0)  -->
<!DOCTYPE svg PUBLIC "-//W3C//DTD SVG 1.1//EN" "http://www.w3.org/Graphics/SVG/1.1/DTD/svg11.dtd">
<svg version="1.1" id="Layer_1" xmlns="http://www.w3.org/2000/svg" xmlns:xlink="http://www.w3.org/1999/xlink" x="0px" y="0px"
	 width="1277.061px" height="864.796px" viewBox="0 0 1277.061 864.796" enable-background="new 0 0 1277.061 864.796"
	 xml:space="preserve">
<path fill="none" stroke="#000000" stroke-linejoin="round" stroke-miterlimit="10" d="M1222.416,52.708
	c-0.721-1.872-1.87-3.312-2.881-4.104c-0.72-0.648-1.365-1.008-1.8-1.224c-0.792-0.504-1.584-0.792-2.376-1.08
	c-1.584-0.576-3.312-0.936-5.256-1.296c-2.88-0.432-6.12-0.72-9.576-0.936c-3.527-0.144-7.199-0.216-10.872-0.216
	c-12.813,0-25.2,0.864-25.271,0.864l0,0l0,0l-9.072,0.576l0,0c-71.567,3.6-178.632,12.672-267.912,20.808
	c-89.208,8.064-160.56,15.336-160.56,15.336l0,0h-0.072l0,0l0,0c-39.816,4.392-58.607,11.448-59.04,11.592l0,0l-0.144,0.072
	l-67.032,30.24l-0.216,0.144l0,0c-4.608,2.592-7.776,5.328-9.722,8.28c-1.008,1.44-1.728,2.88-2.158,4.32
	c-0.434,1.368-0.576,2.736-0.576,3.96c0,1.584,0.288,2.88,0.576,3.816c0.144,0.504,0.286,0.864,0.432,1.224
	c3.815,11.448,5.184,20.88,5.184,28.584c0,11.808-3.168,19.584-6.189,24.552c-1.514,2.448-3.024,4.176-4.032,5.256
	c-0.576,0.504-1.008,0.864-1.224,1.152c-0.146,0.072-0.217,0.144-0.288,0.216c-3.384,2.232-6.554,3.744-9.576,4.752
	c-3.024,0.936-5.904,1.368-8.64,1.368c-5.545,0-10.802-1.728-15.625-4.536c-3.601-2.16-6.911-4.824-9.937-7.704
	c-4.464-4.32-8.063-9.072-10.512-12.672c-1.227-1.8-2.16-3.312-2.811-4.392c-0.288-0.576-0.504-0.936-0.646-1.224
	c-0.146-0.144-0.146-0.216-0.216-0.288l0,0v-0.072l0,0l-0.146-0.288l-0.144-0.216l0,0c-1.44-2.088-3.168-3.744-5.112-4.824
	c-1.944-1.008-3.96-1.44-5.76-1.44c-1.296,0-2.521,0.216-3.602,0.504c-1.512,0.432-2.734,1.008-3.672,1.512
	c-0.504,0.288-0.863,0.576-1.15,0.792c-44.856,24.624-89.138,60.48-122.328,90.216c-31.608,28.296-53.137,51.048-55.296,53.352
	c-10.08,8.568-16.562,16.56-20.521,22.608c-3.456,5.112-5.04,8.784-5.472,9.936l0,0l-26.784,51.408l0,0
	c-0.864,1.152-1.512,2.232-2.088,3.312c-0.288,0.576-0.504,1.152-0.721,1.8c-0.145,0.648-0.287,1.368-0.287,2.16
	c0,0.504,0.071,1.08,0.216,1.656c0.216,1.008,0.792,1.944,1.439,2.736c0.504,0.504,1.079,0.936,1.584,1.224
	c0.863,0.432,1.584,0.648,2.159,0.792c0.648,0.072,1.226,0.144,1.656,0.144c0.864-0.072,1.584-0.144,2.088-0.216
	c0.576-0.072,0.864-0.216,1.008-0.216l0,0l0.434-0.144l0.432-0.216l0,0c1.08-0.504,2.521-1.224,4.176-2.16
	c6.266-3.312,16.85-9.288,29.16-16.344c36.938-21.168,89.784-52.272,89.784-52.272l0,0l0.216-0.144l4.907-3.46l0.632,0.8
	L12.312,653.693l0,0c-6.048,4.318-8.784,6.982-8.929,7.127l0,0l-0.287,0.289l-0.217,0.285l0,0c-0.938,1.227-1.655,2.521-2.159,3.891
	C0.216,666.652,0,668.021,0,669.388c0,1.441,0.288,2.809,0.721,4.033c0.792,2.16,2.088,3.814,3.384,5.111
	c1.943,2.016,4.104,3.385,5.832,4.316c1.151,0.648,2.088,1.08,2.592,1.299c4.394,2.52,7.849,5.545,10.584,8.641
	c4.248,4.824,6.77,9.863,8.28,13.752c0.72,1.873,1.151,3.527,1.439,4.607c0.145,0.572,0.288,1.008,0.288,1.225
	c0.071,0.145,0.071,0.289,0.071,0.289l0,0v0.07l0,0l0.072,0.357l0.071,0.359l0,0c0.433,1.225,0.576,2.447,0.576,3.672
	c0,2.232-0.576,4.537-1.656,6.768c-1.584,3.312-4.176,6.408-6.336,8.568c-1.08,1.08-2.088,1.943-2.81,2.521
	c-0.359,0.217-0.575,0.434-0.792,0.574l0,0l-0.145,0.146l0,0c-6.624,4.393-10.439,7.703-12.672,10.148
	c-1.151,1.297-1.872,2.307-2.376,3.17c-0.433,0.861-0.721,1.439-0.863,1.941l0,0l0,0l0,0v0.072v0.072l0,0l0,0l0,0
	c-0.505,1.801-0.792,3.6-0.792,5.328c0,1.799,0.287,3.6,0.936,5.256c0.576,1.439,1.297,2.736,2.232,3.816
	c1.584,1.943,3.6,3.311,5.615,4.32c3.023,1.512,6.265,2.303,9.217,2.732c3.023,0.436,5.903,0.574,8.063,0.574
	c2.376,0,4.031-0.143,4.392-0.215l0,0l258.408-16.344l0,0l0,0c3.312-0.289,6.191-0.361,8.713-0.361
	c6.479,0,10.728,0.648,13.248,1.297c1.296,0.287,2.158,0.648,2.663,0.791c0.217,0.146,0.358,0.219,0.433,0.219l0,0l0,0l0,0l0,0l0,0
	l0,0c4.824,2.662,7.704,5.109,9.216,7.127c0.792,1.012,1.224,1.873,1.512,2.596c0.218,0.791,0.36,1.438,0.36,2.088
	c0,1.008-0.288,2.016-0.792,3.021c-0.72,1.584-1.944,3.098-3.024,4.105c-0.574,0.576-1.08,0.936-1.366,1.225
	c-0.218,0.145-0.36,0.215-0.435,0.287l0,0l-0.072,0.072l0,0l-0.216,0.145l-0.216,0.215l0,0c-0.072,0.072-0.432,0.289-0.864,0.576
	c-0.792,0.576-2.088,1.369-3.672,2.232c-3.022,1.729-7.271,3.814-12.24,6.189c-17.424,8.355-44.279,20.02-66.814,29.596
	c-11.231,4.752-21.385,9-28.729,12.02c-3.673,1.516-6.624,2.736-8.641,3.604c-1.08,0.432-1.872,0.793-2.376,1.008
	c-0.359,0.145-0.576,0.217-0.721,0.289c-11.159,4.031-20.304,6.98-26.64,9c-3.168,1.008-5.688,1.799-7.345,2.303
	c-0.863,0.217-1.512,0.432-1.872,0.504c-0.216,0.072-0.432,0.145-0.504,0.145l0,0l-0.145,0.072l0,0l-0.288,0.072l-0.216,0.072l0,0
	c-3.097,1.295-5.256,2.879-6.553,4.535c-1.367,1.584-1.8,3.096-1.943,3.744l0,0l-0.575,2.949l2.304,1.873l0,0
	c1.513,1.295,3.168,2.018,4.896,2.594c2.593,0.791,5.544,1.297,8.712,1.584c3.168,0.285,6.553,0.432,10.009,0.432
	c7.271,0,14.832-0.504,20.521-1.008c5.615-0.504,9.432-0.939,9.72-1.008c3.815-0.359,8.568-1.152,14.112-2.309
	c9.863-2.016,22.248-5.107,35.279-8.562c38.16-10.152,82.296-23.689,84.744-24.408c34.992-9.072,83.664-22.684,136.944-38.088
	c159.909-46.227,361.8-108.361,361.8-108.361l0,0h0.071h0.071l0,0c11.306-3.816,18.647-9.576,23.039-14.4
	c3.744-4.104,5.474-7.559,6.049-8.855c0.575-1.008,1.226-2.16,1.871-3.455c1.008-2.088,2.088-4.32,2.952-6.121
	c0.576-1.295,1.009-2.303,1.225-2.734c20.521-34.773,47.81-77.473,77.186-122.109c44.208-67.031,93.096-138.167,130.968-192.602
	c18.864-27.144,35.064-50.184,46.44-66.384c5.76-8.136,10.296-14.544,13.392-18.864c1.512-2.232,2.736-3.888,3.528-5.04
	s1.224-1.728,1.224-1.728l0,0l0.146-0.144l0.071-0.216l0,0c3.959-6.624,6.266-13.248,7.703-19.296
	c1.368-6.048,1.729-11.52,1.729-15.984c0-5.328-0.576-9.072-0.792-10.296c0-0.432-0.072-0.936-0.072-1.368
	c0-2.952,0.576-6.12,1.513-9.144c1.367-4.536,3.455-8.856,5.186-11.952c0.936-1.512,1.728-2.808,2.23-3.6
	c0.287-0.432,0.504-0.792,0.647-1.008c0.07-0.072,0.144-0.144,0.216-0.216l0,0v-0.072l0,0l0.07-0.072l0.146-0.144l0,0
	c14.257-22.32,22.896-40.968,23.4-42.048l0,0l27.358-57.168l0,0l0,0c1.584-3.384,2.306-6.336,2.306-9
	C1223.136,55.444,1222.848,54.004,1222.416,52.708L1222.416,52.708"/>
</svg>
