<?xml version="1.0" encoding="utf-8"?>
<!-- Generator: Adobe Illustrator 16.0.0, SVG Export Plug-In . SVG Version: 6.00 Build 0)  -->
<!DOCTYPE svg PUBLIC "-//W3C//DTD SVG 1.1//EN" "http://www.w3.org/Graphics/SVG/1.1/DTD/svg11.dtd">
<svg version="1.1" id="Layer_1" xmlns="http://www.w3.org/2000/svg" xmlns:xlink="http://www.w3.org/1999/xlink" x="0px" y="0px"
	 width="1185.918px" height="855.613px" viewBox="0 0 1185.918 855.613" enable-background="new 0 0 1185.918 855.613"
	 xml:space="preserve">
<path fill="none" stroke="#000000" stroke-linejoin="round" stroke-miterlimit="10" d="M1120.602,810.109
	c-6.524-6.238-37.528-32.402-54.543-49.279c-17.067-16.961-63.021-62.229-71.729-73.314c-8.777-11.1-26.055-38.68-30.646-52.682
	c-4.506-14.059-29.694-92.668-36.881-110.57c-7.127-17.814-21.233-32.715-37.188-48.643
	c-15.972-15.857-237.375-214.065-248.599-224.705c0,0-9.149-7.062-18.396-17.303c-9.258-10.169-19.055-20.227-24.744-27.325
	c-5.606-7.155-92.302-112.945-103.521-125.052c-11.219-12.107-21.021-23.93-28.021-27.472c0,0-90.566-48.397-96.209-51.373
	c-5.629-3.046-12.374-4.921-16.912,5.548c-4.523,10.398-15.499,52.033-40.894,70.486c-25.393,18.452-66.75,34.123-66.75,34.123
	s-38.617,14.46-60.025,15.722c-21.423,1.331-99.379-0.008-109.688-0.621c-10.319-0.541-55.358-3.022-62.12-4.093
	c0,0-7.564-2.555-12.144,7.024c-4.521,9.665,1.606,17.879,5.773,24.89c0,0,26.298,44.018,35.496,57.04
	c9.253,13.107,109.242,152.357,129.676,176.684c20.375,24.237,106.501,123.011,137.606,154.851
	c31.191,31.783,164.565,170.135,180.819,184.947c16.254,14.812,20.624,19.002,59.261,24.812
	c38.727,5.766,152.265,22.949,157.953,23.516c5.688,0.561,7.646-4.406,4.365-9.623c-3.27-5.285-31.203-48.459-33.438-53.396
	c-2.25-4.857,2.69-4.965,6.706-0.479c4.021,4.479,44.087,53.773,47.727,57.963c3.636,4.188,7.189,4.758,12.134,5.389
	c4.955,0.562,375.133,41.424,375.133,41.424S1127.129,816.347,1120.602,810.109L1120.602,810.109 M614.777,300.754
	c21.004,7.75,28.957,22.896,21.311,53.447c-7.771,31.029-52.919,48.494-72.764,39.975c-22.455-9.639-21.417-36.843-7.884-65.278
	C568.502,301.443,591.854,292.295,614.777,300.754L614.777,300.754"/>
</svg>
