<?xml version="1.0" encoding="utf-8"?>
<!-- Generator: Adobe Illustrator 16.0.0, SVG Export Plug-In . SVG Version: 6.00 Build 0)  -->
<!DOCTYPE svg PUBLIC "-//W3C//DTD SVG 1.1//EN" "http://www.w3.org/Graphics/SVG/1.1/DTD/svg11.dtd">
<svg version="1.1" id="Layer_1" xmlns="http://www.w3.org/2000/svg" xmlns:xlink="http://www.w3.org/1999/xlink" x="0px" y="0px"
	 width="824.227px" height="571.356px" viewBox="0 0 824.227 571.356" enable-background="new 0 0 824.227 571.356"
	 xml:space="preserve">
<path fill="none" stroke="#000000" stroke-linejoin="round" stroke-miterlimit="10" d="M86.043,53.925
	c-6.255-5.854-9.857-14.18-9.857-22.745C76.186,13.96,90.146,0,107.366,0c17.22,0,31.18,13.96,31.18,31.18
	c0,10.011-4.678,19.517-1.979,29.598c1.777,6.636,7.358,9.895,12.521,13.748c53.664,24.314,206.234,91.427,263.013,95.002
	c69.512-4.28,282.108-103.67,282.108-103.67s16.049-11.646,23.291,2.268C724.74,82.04,822.902,417.25,822.902,417.25
	s6.082,15.615-7.82,30.564C760.74,503.243,683.56,558.69,669.732,568.233c-13.899,9.473-16.717-5.621-16.717-5.621l-32.654-113.732
	c0,0-1.729-16.721-27.803-23.926c-41.392-13.816-117.943-27.637-180.433-37.394c-62.453,9.771-139.021,23.479-180.412,37.476
	c-26.096,7.135-27.828,23.77-27.828,23.77l-32.699,113.744c0,0-2.729,15.1-16.715,5.621C140.627,558.62,63.469,503.174,9.08,447.711
	c-13.844-15.021-7.741-30.539-7.741-30.539S76.568,160.547,100.227,87.08c3.497-10.859-2.711-21.209-9.931-28.923
	C88.903,56.67,87.466,55.257,86.043,53.925z"/>
</svg>
