<?xml version="1.0" encoding="utf-8"?>
<!-- Generator: Adobe Illustrator 16.0.0, SVG Export Plug-In . SVG Version: 6.00 Build 0)  -->
<!DOCTYPE svg PUBLIC "-//W3C//DTD SVG 1.1//EN" "http://www.w3.org/Graphics/SVG/1.1/DTD/svg11.dtd">
<svg version="1.1" id="Layer_1" xmlns="http://www.w3.org/2000/svg" xmlns:xlink="http://www.w3.org/1999/xlink" x="0px" y="0px"
	 width="1333.951px" height="693.387px" viewBox="0 0 1333.951 693.387" enable-background="new 0 0 1333.951 693.387"
	 xml:space="preserve">
<path fill="none" stroke="#000000" stroke-linejoin="round" stroke-miterlimit="10" d="M59.732,621.888
	c2.283,2.356,5.427-0.572,7.312-1.993c2.179-2.056,4.292-3.432,4.292-3.432l0,0l51.84-34.199l0,0c0,0,11.882-8.062,13.608,10.729
	c24.336,82.08,145.872,20.52,54.432-40.32c-16.56-11.665,4.032-23.977,4.032-23.977s397.007-272.88,469.44-299.88
	c16.846-7.416,28.726-10.44,36.862-30.168c8.063-19.728,15.769-25.632,28.729-29.952l0,0
	C775.495,153.36,1041.536,32.112,1077.042,7.92c22.896-15.624,41.832-3.312,41.832-3.312s118.151,55.944,168.479,80.928
	c36.938,18.288,57.385,50.184,40.752,65.304c-12.673,12.456-86.188,77.472-96.554,94.248c-4.248,6.408-10.729,14.4-21.891,7.056
	c-11.088-7.272-25.345-17.136-37.871-22.824c-12.527-5.544-29.81,12.312-16.922,22.248c12.958,10.008,29.16,19.368,40.104,26.424
	c10.938,7.128,3.237,15.264,3.237,15.264s-85.752,126.215-96.625,141.047c-11.018,14.832-27.721,24.408-27.721,24.408
	s-102.961,65.809-206.209,98.928C764.48,590.688,579.8,660.887,476.552,688.68c-28.942,6.771-56.446,4.248-56.446,4.248
	s-319.969-51.553-345.458-56.809c-1.295-0.264-2.467-0.549-3.526-0.856l-0.005-0.002c-3-0.608-7.487-1.374-8.907,2.244
	c-1.544,15.777-14.847,28.107-31.028,28.107C13.96,665.612,0,651.652,0,634.431c0-17.22,13.96-31.18,31.182-31.18
	c12.759,0,23.729,7.664,28.556,18.641L59.732,621.888z"/>
</svg>
