<?xml version="1.0" encoding="utf-8"?>
<!-- Generator: Adobe Illustrator 16.0.0, SVG Export Plug-In . SVG Version: 6.00 Build 0)  -->
<!DOCTYPE svg PUBLIC "-//W3C//DTD SVG 1.1//EN" "http://www.w3.org/Graphics/SVG/1.1/DTD/svg11.dtd">
<svg version="1.1" id="Layer_1" xmlns="http://www.w3.org/2000/svg" xmlns:xlink="http://www.w3.org/1999/xlink" x="0px" y="0px"
	 width="1613.289px" height="810.339px" viewBox="0 0 1613.289 810.339" enable-background="new 0 0 1613.289 810.339"
	 xml:space="preserve">
<path fill="none" stroke="#000000" stroke-linejoin="round" stroke-miterlimit="10" d="M1091.38,722.441
	c14.031,2.861,23.188,16.41,20.381,30.154c-2.809,13.746-16.543,22.621-30.571,19.754c-14.031-2.863-23.188-16.412-20.382-30.156
	C1063.616,728.447,1077.349,719.574,1091.38,722.441z M1131.96,453.542c-3.758,14.254-4.684,17.805-14.158,29.027l75.551,23.17
	l-81.858-18.158c-20.146-2.375-19.828-2.309-34.66-16.475l-29.98-102.47c7.321-35.759,35.621-37.908,57.532-20.075l226.532,56.434
	l-224.627-51.054L1131.96,453.542z M1067.86,181.449l23.004,91.469c-3.761,14.252-4.688,17.807-14.162,29.025l283.686,75.431
	l-289.994-70.416c-20.146-2.375-19.823-2.311-34.659-16.474l-29.979-102.465c7.321-35.761,37.513-41.859,61.245-11.74
	l405.553,102.748L1067.86,181.449z M1553.215,299.176c-1.399-1.889-3.519-2.131-5.464-0.95l0.002,0.002
	c-2.933,3.834-7.984,7.581-15.547,11.037l-139.289,101.682c-92.902,66.734-181.851,137.447-271.828,208.096
	c-26,18.457-37.576,27.066-11.389,55.211c36.262,25.648,69.332,53.012,103.516,81.439c20.816,15.613,15.554,23.072-4.303,28.385
	l-85.588,13.098c-124.875,8.752-247.94,10.15-373.162,11.672c-74.28,1.184-78.365,8.562-149.046-25.268
	c-120.043-55.568-224.252-120.229-330.299-188.154C161.183,516.267,79.74,459.822,15.659,360.547
	c-21.223-45.667-26.428-78.159,20.23-114.979c51.947-20.608,86.465-27.689,142.041-35.057c17.02-2.827,19.088-3.27,32.367-14.114
	l96.283-126.112l505.745,182.651L331.238,73.613l27.198-33.218l57.694,22.739c16.79,5.87,14.239,8.421,27.651-3.352l23.574-22.365
	c9.265-10.277,22.108-7.782,25.273,3.149c30.896,51.687,86.26,9.742,74.562-25.405C565.88,4.66,573.665-6.097,595.184,4.109
	l208.963,74.414c80.295,26.462,158.756,47.067,241.204,66.41c160.576,39.952,314.666,78.792,466.923,117.401
	c15.443,3.445,27.948,9.679,34.237,16.963c1.88,1.497,3.673,2.655,5.44,0.168c3.522-13.359,15.688-23.209,30.153-23.209
	c17.221,0,31.181,13.96,31.181,31.181s-13.96,31.181-31.181,31.181c-13.067,0-24.257-8.038-28.896-19.439v-0.003H1553.215z"/>
</svg>
