<?xml version="1.0" encoding="utf-8"?>
<!-- Generator: Adobe Illustrator 16.0.0, SVG Export Plug-In . SVG Version: 6.00 Build 0)  -->
<!DOCTYPE svg PUBLIC "-//W3C//DTD SVG 1.1//EN" "http://www.w3.org/Graphics/SVG/1.1/DTD/svg11.dtd">
<svg version="1.1" id="Layer_1" xmlns="http://www.w3.org/2000/svg" xmlns:xlink="http://www.w3.org/1999/xlink" x="0px" y="0px"
	 width="1230.352px" height="807.146px" viewBox="0 0 1230.352 807.146" enable-background="new 0 0 1230.352 807.146"
	 xml:space="preserve">
<path d="M330.426,48.375l10.141,4.612l97.847,48.18l168.635,66.462c53.191,20.73,104.541,42.114,156.492,65.76l41.854,19.229
	c9.342,0.346,11.161,2.893,5.672-4.767l-55.662-25.486c-53.881-21.835-107.541-43.433-162.01-63.73
	c-93.252-32.725-172.45-62.918-247.979-109.524l29.938-23.937c4.965-2.7,8.527-2.643,16.27,3.07
	c20.022,13.631,38.229,20.427,54.915,8.08l30.593-23.832c10.771-3.473,9.741-4.034,14.889,6.014
	c1.603,10.736,15.101,25.729,32.152,29.116c20.58,4.087,45.641-7.225,52.073-43.631c3.271-5.914,4.158-3.779,10.916-2.793
	l390.912,125.179c20.021,7.735,15.788,14.745,20.771,35.506l123.7,416.771c2.375,10.377-0.998,15.731-7.104,23.405
	c-10.31,42.416-0.479,41,25.302,66.197l79.419,55.818c19.14,12.221,8.216,22.549-7.31,28.319l-77.721,10.732
	c28.337-38.703,6.562-73.289-34.925-72.184c-29.948,0.797-51.354,53.633-11.75,78.631l-287.825,32.8
	c-123.555,14.777-160.925-4.662-273.183-60.123L330.174,628.3C199.312,546.046-22.164,405.039,1.794,299.959
	c8.864-30.328,31.245-38.321,67.231-50.421l149.489-37.114L330.426,48.375L330.426,48.375z"/>
</svg>
