<?xml version="1.0" encoding="utf-8"?>
<!-- Generator: Adobe Illustrator 16.0.0, SVG Export Plug-In . SVG Version: 6.00 Build 0)  -->
<!DOCTYPE svg PUBLIC "-//W3C//DTD SVG 1.1//EN" "http://www.w3.org/Graphics/SVG/1.1/DTD/svg11.dtd">
<svg version="1.1" id="Layer_1" xmlns="http://www.w3.org/2000/svg" xmlns:xlink="http://www.w3.org/1999/xlink" x="0px" y="0px"
	 width="1181.998px" height="731.867px" viewBox="0 0 1181.998 731.867" enable-background="new 0 0 1181.998 731.867"
	 xml:space="preserve">
<path fill="none" stroke="#000000" stroke-linejoin="round" stroke-miterlimit="10" d="M1108.745,311.93
	c1.201,0.641,2.861,1.037,4.695,1.037c2.157,0,4.372-0.596,6.068-1.97c2.062-1.672,2.852-4.023,4.004-6.321
	c1.124-2.24,2.425-4.406,4.157-6.231c3.729-3.924,8.473-7.113,13.646-8.749c3.021-0.955,6.33-1.443,9.5-1.443
	c17.221,0,31.181,13.96,31.181,31.181c0,17.222-13.96,31.182-31.181,31.182c-2.968,0-5.936-0.418-8.781-1.254
	c-2.182-0.641-4.188-1.802-6.428-2.255c-2.492-0.504-5.062-0.15-7.413,0.785c-1.28,0.509-2.574,1.14-3.485,2.206
	c-0.162,0.19-1.495,2.917-1.222,2.917c-2.094,15.119-11.388,29.405-20.618,43.203c-31.445,49.062-78.531,74.543-138.672,111.648
	c-70.021,43.193-117.857,65.855-192.227,104.092c-74.746,37.406-140.334,65.621-207.938,92.438
	c-77.239,32.188-102.57,29.801-190.396,23.867l-108.656-7.518l-82.41-6.078c25.606-20.035,15.588-62.547-11.162-68.4
	c-40.538-8.859-68.029,21.023-46.025,63.646L10.159,703.39c-12.481-1.445-15.039-6.495,1.331-17.229l74.843-59.812
	c29.37-20.898-17.3-62.891-45.666-89.547c-4.846-8.523-7.35-14.342-3.396-24.227c56.477-135.152,109.613-268.601,159.466-406.297
	c8.14-19.739,5.451-24.694,26.428-29.237L644.354,1.133c6.932-1.026,8.4-3.04,10.716,3.309
	c-15.356,22.407,0.925,49.911,23.024,58.087c16.308,6.033,40.859-4.9,44.101-15.259c6.662-8.995,9.78-26.695,15.343-12.527
	l31.453,49.448c1.182,2.538,4.562,4.197,15.352,1.768c7.229-1.627,39.486-6.447,50.437-8.27c7.892-1.636,11.196-0.837,15.685,2.601
	l11.054,14.881l57.929,79.739c25.166,33.438,42.851,50.136,79.951,71.611l15.278,7.451c46.229,17.266,69.323,26.322,94.11,57.933
	L1108.745,311.93z"/>
</svg>
