<?xml version="1.0" encoding="utf-8"?>
<!-- Generator: Adobe Illustrator 16.0.0, SVG Export Plug-In . SVG Version: 6.00 Build 0)  -->
<!DOCTYPE svg PUBLIC "-//W3C//DTD SVG 1.1//EN" "http://www.w3.org/Graphics/SVG/1.1/DTD/svg11.dtd">
<svg version="1.1" id="Layer_1" xmlns="http://www.w3.org/2000/svg" xmlns:xlink="http://www.w3.org/1999/xlink" x="0px" y="0px"
	 width="1123.924px" height="731.865px" viewBox="0 0 1123.924 731.865" enable-background="new 0 0 1123.924 731.865"
	 xml:space="preserve">
<path d="M861.512,95.171L850.457,80.29c-4.485-3.438-7.795-4.237-15.685-2.601c-10.948,1.823-43.205,6.643-50.436,8.27
	c-10.789,2.429-14.17,0.77-15.353-1.768l-31.453-49.448c-5.562-14.168-8.681,3.532-15.343,12.527
	c-3.239,10.359-27.793,21.292-44.1,15.259c-22.103-8.176-38.384-35.68-23.025-58.087c-2.313-6.349-3.784-4.335-10.715-3.309
	L223.165,77.04c-20.978,4.543-18.288,9.498-26.429,29.237C146.885,243.973,93.748,377.421,37.272,512.574
	c-3.954,9.885-1.45,15.701,3.396,24.227c28.366,26.656,75.036,68.646,45.666,89.547L11.49,686.16
	c-16.37,10.732-13.812,15.783-1.331,17.229l115.225,6.523c-22.004-42.623,5.487-72.508,46.025-63.646
	c26.75,5.854,36.77,48.365,11.161,68.4l82.41,6.078l108.656,7.518c87.824,5.934,113.155,8.32,190.395-23.869
	c67.604-26.814,133.192-55.029,207.938-92.438c74.367-38.234,122.205-60.896,192.226-104.092
	c60.142-37.105,107.228-62.586,138.673-111.648c15.382-22.991,30.938-47.338,13.062-74.637
	c-27.75-39.633-50.627-48.696-101.262-67.607l-15.279-7.451c-37.104-21.475-54.785-38.173-79.951-71.611L861.512,95.171
	L861.512,95.171z"/>
</svg>
