<?xml version="1.0" encoding="utf-8"?>
<!-- Generator: Adobe Illustrator 16.0.0, SVG Export Plug-In . SVG Version: 6.00 Build 0)  -->
<!DOCTYPE svg PUBLIC "-//W3C//DTD SVG 1.1//EN" "http://www.w3.org/Graphics/SVG/1.1/DTD/svg11.dtd">
<svg version="1.1" id="Layer_1" xmlns="http://www.w3.org/2000/svg" xmlns:xlink="http://www.w3.org/1999/xlink" x="0px" y="0px"
	 width="778.631px" height="481.582px" viewBox="0 0 778.631 481.582" enable-background="new 0 0 778.631 481.582"
	 xml:space="preserve">
<path fill="none" stroke="#000000" stroke-linejoin="round" stroke-miterlimit="10" d="M210.357,2.935
	c0,0-22.875-9.378-38.354,10.959C152.75,39.181,67.206,154.989,67.206,154.989s-12.538,14.677,2.729,29.944
	c15.271,15.269,252.062,251.562,252.062,251.562s10.151,9.545,19.181,12.328c9.025,2.785,102.729,28.512,114.44,31.438
	c11.711,2.934,26.654,0.066,26.654,0.066s119.357-25.256,134.932-28.771c15.57-3.512,28.082-16.438,28.082-16.438
	s56.75-62.494,69.182-76.025c12.433-13.53,8.221-32.188,8.221-32.188l-33.562-178.767c0,0-9.149-32.416,18.491-56.165
	c27.646-23.749,47.438-40.063,62.853-53.031c15.409-12.968,4.271-25.735,4.271-25.735S762.866-7.489,735.698,2.934
	c-28.465,10.702-187.672,69.863-260.959,69.863S210.357,2.935,210.357,2.935z"/>
</svg>
