<?xml version="1.0" encoding="utf-8"?>
<!-- Generator: Adobe Illustrator 16.0.0, SVG Export Plug-In . SVG Version: 6.00 Build 0)  -->
<!DOCTYPE svg PUBLIC "-//W3C//DTD SVG 1.1//EN" "http://www.w3.org/Graphics/SVG/1.1/DTD/svg11.dtd">
<svg version="1.1" id="Layer_1" xmlns="http://www.w3.org/2000/svg" xmlns:xlink="http://www.w3.org/1999/xlink" x="0px" y="0px"
	 width="1341.963px" height="659.179px" viewBox="0 0 1341.963 659.179" enable-background="new 0 0 1341.963 659.179"
	 xml:space="preserve">
<path fill="none" stroke="#000000" stroke-linejoin="round" stroke-miterlimit="10" d="M485.059,548.291
	c-21.57,2.949-41.345-11.525-44.256-32.449c-2.913-20.922,12.266-40.295,33.771-43.312c21.569-2.949,41.345,11.52,44.256,32.441
	C521.666,525.888,506.562,545.265,485.059,548.291z M408.566,551.902c-1.766-1.15-4.616-1.896-7.834-1.896
	c-4.688,0-8.484,1.332-8.484,2.979c-42.132-17.854-79.535-36.867-127.939-64.605c-74.009-42.447-120.271-78.426-153.726-103.894
	c-33.31-25.399-57.326-46.924-82.501-72.818c-13.098-13.375-39.41-59.407-22.687-102.308c12.964-35.6,36.782-43.075,56.461-53.008
	c102.622-40.248,128.595-49.944,207.284-79.743c4.572-2.894,9.405-5.584,13.175-9.539c4.18-4.383,6.279-9.186,6.104-14.371
	c-0.091-2.69-0.795-5.483-2.142-8.373c-1.909-4.107-2.897-8.614-2.897-13.144C283.38,13.96,297.34,0,314.561,0
	s31.181,13.96,31.181,31.181c0,8.367-3.397,16.395-9.359,22.243c-6.65,6.522-15.743,7.724-20.596,16.194
	c-3.893,6.797-5.17,15.083-3.823,22.792c0.009,0.052,1.538,8.821,4.167,23.906c0,2.431,4.126,4.398,9.227,4.398
	c5.943,0,10.752-2.324,10.752-5.195c0.808-7.095,7.253-7.082,16.096-8.733c44.639-8.197,52.989-14.598,55.779-38.314
	c1.471-12.683,8.05-14.347,21.604-15.639c191.273-18.406,376.674-22.85,454.185-12.047c42.298,5.881,61.437,5.324,76.751,4.779
	c71.09-2.593,270.725,7.211,342.27,24.328c22.492,5.393,37.269,18.95,38.582,29.331c2.021,16.043-1.264,24.807-8.108,36.841
	C1276.47,236.19,776.08,635.328,763.948,643.763c-25.559,17.945-43.479,18.715-66.013,10.002
	c-95.153-36.627-176.487-66.098-270.806-91.436c-9.6-2.6-15.182-4.232-18.567-10.422L408.566,551.902z"/>
</svg>
