<?xml version="1.0" encoding="utf-8"?>
<!-- Generator: Adobe Illustrator 16.0.0, SVG Export Plug-In . SVG Version: 6.00 Build 0)  -->
<!DOCTYPE svg PUBLIC "-//W3C//DTD SVG 1.1//EN" "http://www.w3.org/Graphics/SVG/1.1/DTD/svg11.dtd">
<svg version="1.1" id="Layer_1" xmlns="http://www.w3.org/2000/svg" xmlns:xlink="http://www.w3.org/1999/xlink" x="0px" y="0px"
	 width="1310.426px" height="804.613px" viewBox="0 0 1310.426 804.613" enable-background="new 0 0 1310.426 804.613"
	 xml:space="preserve">
<path fill="none" stroke="#000000" stroke-linejoin="round" stroke-miterlimit="10" d="M72.729,768.752c0,0-7.883,0.236-9.885-5.672
	c-2-5.908,2.871-11.225,2.871-11.225l676.739-610.979L1047.311,0.968c0,0,7.051-3.863,10.811,3.842
	c1.607,3.291,11.986,23.593,13.16,26c4.357,8.937-3.229,12.206-3.229,12.206l-81.615,40.486c0,0-22.264,14.945-14.676,36.666
	c7.588,21.722,36.404,25.179,36.404,25.179l289.268,16.93c0,0,8.434,1.663,12.191,8.143c3.037,6.545-3.529,14.697-3.529,14.697
	L948.084,634.189c0,0-6.479,9.112-14.143,13.229c-7.662,4.111-19.611,6.666-19.611,6.666l-634.373,93.545
	c0,0-9.815,1.871-15.004-4.229c-5.187-6.107-0.271-13.619,1.814-14.785c19.083-7.105,22.195-71.705-31.2-66.826
	c-55.521,10.922-39.854,65.037-23.435,72.137c8.667,3.521,9.944,12.177,8.849,16.172c-2.963,7.576-13.99,6.886-13.99,6.886
	L72.729,768.752z"/>
</svg>
