<?xml version="1.0" encoding="utf-8"?>
<!-- Generator: Adobe Illustrator 16.0.0, SVG Export Plug-In . SVG Version: 6.00 Build 0)  -->
<!DOCTYPE svg PUBLIC "-//W3C//DTD SVG 1.1//EN" "http://www.w3.org/Graphics/SVG/1.1/DTD/svg11.dtd">
<svg version="1.1" id="Layer_1" xmlns="http://www.w3.org/2000/svg" xmlns:xlink="http://www.w3.org/1999/xlink" x="0px" y="0px"
	 width="1519.855px" height="824.028px" viewBox="0 0 1519.855 824.028" enable-background="new 0 0 1519.855 824.028"
	 xml:space="preserve">
<path fill="none" stroke="#000000" stroke-linejoin="round" stroke-miterlimit="10" d="M1234.645,759.709
	c0,0,5.912,4.682,5.143,11.082c-0.771,6.398-11.814,5.926-11.814,5.926l-136.986-15.75c0,0-9.357-1.266-8.449-10.014
	c0.752-5.428,2.604-5.242,8.049-9.646c21.023-11.164,28.439-68.729-18.902-74.125c-55.943-4.736-48.4,56.174-35.188,66.443
	c1.176,2.494,5.967,7.879,3.998,13.766c-1.967,5.891-11.801,5.199-11.801,5.199L373.27,686.75c0,0-8.747-1.881-13.071-4.205
	c-4.323-2.322-9.646-8.047-9.646-8.047L2.116,210.177c0,0-4.914-9.239,0.235-15.501c5.147-6.26,13.27-6.726,13.27-6.726
	l182.541-19.007c0,0,109.488-11.278,126.477-42.139c15.814-27.956-3.008-40.173-3.008-40.173l-66.709-51.275
	c0,0-8.235-4.489-4.346-9.664c3.709-5.496,9.289-13.448,14.217-21.52c4.929-8.07,13.594-1.947,13.594-1.947L583.11,160.233
	L1234.645,759.709z M658.251,208.962c0,0-8.848-6.802-6.633-15.008c2.365-9.72,14.017-6.834,14.017-6.834l844.116,194.936
	c0,0,8.028,1.91,9.819,6.794c1.787,4.887-5.412,10.45-5.412,10.45s-67.441,45.455-114.662,172.951
	c-47.219,127.498-58.301,240.516-58.301,240.516s-1.295,7.686-5.649,10.393c-6.308,3.219-12.793-3.451-12.793-3.451L658.251,208.962
	z"/>
</svg>
