<?xml version="1.0" encoding="utf-8"?>
<!-- Generator: Adobe Illustrator 16.0.0, SVG Export Plug-In . SVG Version: 6.00 Build 0)  -->
<!DOCTYPE svg PUBLIC "-//W3C//DTD SVG 1.1//EN" "http://www.w3.org/Graphics/SVG/1.1/DTD/svg11.dtd">
<svg version="1.1" id="Layer_1" xmlns="http://www.w3.org/2000/svg" xmlns:xlink="http://www.w3.org/1999/xlink" x="0px" y="0px"
	 width="1499.359px" height="760.277px" viewBox="0 0 1499.359 760.277" enable-background="new 0 0 1499.359 760.277"
	 xml:space="preserve">
<path d="M1497.245,349.199C1493.68,347.566,739.348,5.893,733.513,3.252c-5.835-2.638-8.479-3.926-14.089-2.898
	C653.56,12.447,313.612,20.499,21.528,68.984c-30.329,5.033-25.83,38.248-3.741,65.883
	c234.13,292.926,420.553,415.239,623.219,586.395c10.142,8.564,24.051,11.203,37.863,12.049
	c207.099,12.681,531.271,36.459,613.362,22.931c10.298-1.697,16.962-13.957,4.761-29.771c-6.198-8.026-16.422-20.742-18.047-22.811
	c-1.627-2.074-4.033-3.623-7.867-3.576c-3.836,0.043-83.19,0.16-92.09,0.129c-12.465-0.041-22.748-2.947-32.343-10.168
	c-7.841-5.902-10.307-8.471-14.823-13.68c-4.256-4.908-5.312-8.277-5.364-15.377c-0.284-39.033,17.312-132.248,18.153-136.097
	c0.845-3.838,0.709-5.252-2.438-8.735c-84.229-93.357-180.893-218.17-193.93-234.179c-25.01-30.708-17.561-45.009,14.248-38.207
	c96.973,20.735,380.634,92.657,532.136,112.237c2.334,0.304,2.799,0.104,3.34-1.092c0.541-1.198,0.844-1.886,1.227-2.81
	C1499.571,351.186,1499.45,350.209,1497.245,349.199z"/>
</svg>
