<?xml version="1.0" encoding="utf-8"?>
<!-- Generator: Adobe Illustrator 16.0.0, SVG Export Plug-In . SVG Version: 6.00 Build 0)  -->
<!DOCTYPE svg PUBLIC "-//W3C//DTD SVG 1.1//EN" "http://www.w3.org/Graphics/SVG/1.1/DTD/svg11.dtd">
<svg version="1.1" id="Layer_1" xmlns="http://www.w3.org/2000/svg" xmlns:xlink="http://www.w3.org/1999/xlink" x="0px" y="0px"
	 width="898.492px" height="757.797px" viewBox="0 0 898.492 757.797" enable-background="new 0 0 898.492 757.797"
	 xml:space="preserve">
<path d="M894.202,329.491C882.775,305.089,766.385,56.323,766.385,56.323s42.279,66.375,47.375,74.375c2.11,3.317,3.983,3.311,6,0
	c7.578-12.453,22.904-37.594,29.875-48.875c6.479-10.48,4.991-18.795-3.5-33c-5.849-9.779-19.906-33.203-22.836-38.062
	c-6.5-10.779-12.24-11.565-26.832-10.318C756.154,3.89,599.676,15.235,447.213,15.235h-0.052
	c-152.466,0-242.931-11.979-253.939-13.246c-10.63-1.223-21.068-0.903-26.833,10.287C162.646,19.537,7.18,324.47,4.635,329.491
	c-6.386,12.604-6.168,16.127,0.622,27.877c25.225,43.646,198.879,320.082,266.796,385.541c14.956,14.416,21.625,16.688,39.782,7.563
	c34.301-17.233,100.044-57.1,108.801-62.149c11.267-6.5,17.729-7.575,26.522-7.575h0.052c8.795,0,15.259,1.075,26.524,7.575
	c8.756,5.058,93.088,57.896,107.385,66.813c6.07,3.789,7.517,3.177,7.517,0.371c0-3.687,0-10.162,0-15.938
	c0-2.42-1.021-3.592-7.517-7.5c-2.391-1.44-78.596-50.827-82.733-53.5c-9.479-6.116-9.332-17.25,7-48
	c3.979-7.489,68.027-120.396,76.803-132.937c3.311-4.729,6.197-4.707,6.352,2.031c0.57,25.93,3.996,102.409,5.955,148.141
	c0.188,4.492,2.396,5.586,5.302,2.81c4.36-4.188,36.223-28.562,40.848-32.045c15.148-11.414,36-1.582,36.834,19.334
	c1.693,42.541-1.127,63.168-1.416,65.834c-0.5,4.586,1.785,4.771,5.582,3.582c7.297-2.282,11.422-5.778,18.375-16.25
	c64.615-97.313,173.777-295.459,193.57-329.6C899.831,350.696,900.198,342.29,894.202,329.491z M397.885,673.519
	c-3.348,2.736-91.765,54.761-94.018,56.068c-4.391,2.555-5.974,1.584-6.306-2.715c-1.884-24.355,4.321-195.927,10.379-231.498
	c1.438-8.433,2.686-8.504,7.676-0.439c31.479,50.861,82.453,165.345,84.271,169.423
	C401.713,668.435,401.229,670.784,397.885,673.519z M450.33,203.759c-24.006,0-43.468-22.154-43.468-49.482
	c0-27.329,19.462-49.482,43.468-49.482c24.01,0,43.473,22.153,43.473,49.482C493.8,181.604,474.337,203.759,450.33,203.759z
	 M799.864,482.354l-17.6,24.347c-3.072,4.257-9.021,5.212-13.271,2.136l-13.043-9.429c-4.256-3.073-5.211-9.021-2.137-13.274
	l17.598-24.344c3.076-4.255,9.021-5.211,13.271-2.138l13.043,9.431C801.983,472.155,802.938,478.101,799.864,482.354z"/>
</svg>
