<?xml version="1.0" encoding="utf-8"?>
<!-- Generator: Adobe Illustrator 16.0.0, SVG Export Plug-In . SVG Version: 6.00 Build 0)  -->
<!DOCTYPE svg PUBLIC "-//W3C//DTD SVG 1.1//EN" "http://www.w3.org/Graphics/SVG/1.1/DTD/svg11.dtd">
<svg version="1.1" id="Layer_1" xmlns="http://www.w3.org/2000/svg" xmlns:xlink="http://www.w3.org/1999/xlink" x="0px" y="0px"
	 width="898.492px" height="813.786px" viewBox="0 0 898.492 813.786" enable-background="new 0 0 898.492 813.786"
	 xml:space="preserve">
<path fill="none" stroke="#000000" stroke-linejoin="round" stroke-miterlimit="10" d="M894.203,385.478
	c-11.428-24.402-127.818-273.167-127.818-273.167s42.28,66.375,47.375,74.375c2.111,3.317,3.984,3.31,6,0
	c7.578-12.453,22.905-37.594,29.875-48.875c6.479-10.481,4.991-18.795-3.5-33c-5.848-9.78-19.906-33.203-22.836-38.062
	c-6.5-10.779-12.24-11.565-26.832-10.318c-40.312,3.447-196.791,14.792-349.255,14.792h-0.051
	c-152.466,0-242.931-11.98-253.94-13.246c-10.629-1.223-21.068-0.904-26.833,10.287C162.646,75.525,7.18,380.457,4.635,385.478
	c-6.386,12.604-6.168,16.127,0.622,27.878c25.225,43.646,198.879,320.082,266.796,385.541c14.956,14.416,21.625,16.689,39.782,7.564
	c34.301-17.234,100.044-57.1,108.801-62.15c11.267-6.5,17.729-7.576,26.523-7.576h0.051c8.796,0,15.26,1.076,26.525,7.576
	c8.756,5.057,93.088,57.895,107.385,66.814c6.07,3.789,7.516,3.176,7.516,0.371c0-3.688,0-10.162,0-15.939
	c0-2.42-1.021-3.592-7.516-7.5c-2.391-1.439-78.596-50.826-82.734-53.5c-9.479-6.115-9.332-17.25,7-48
	c3.979-7.488,68.028-120.395,76.803-132.936c3.311-4.729,6.197-4.707,6.352,2.031c0.57,25.93,3.996,102.41,5.955,148.141
	c0.188,4.492,2.396,5.586,5.301,2.809c4.361-4.188,36.223-28.561,40.848-32.045c15.148-11.414,36-1.582,36.834,19.334
	c1.693,42.541-1.127,63.168-1.416,65.834c-0.5,4.586,1.785,4.771,5.582,3.582c7.297-2.281,11.422-5.777,18.375-16.25
	c64.615-97.312,173.777-295.459,193.57-329.6C899.832,406.683,900.198,398.277,894.203,385.478z M397.885,729.506
	c-3.347,2.736-91.764,54.76-94.017,56.068c-4.391,2.555-5.974,1.584-6.306-2.715c-1.884-24.355,4.321-195.928,10.379-231.498
	c1.438-8.434,2.685-8.504,7.676-0.439c31.479,50.861,82.453,165.344,84.271,169.422
	C401.712,724.422,401.229,726.772,397.885,729.506z M450.331,259.746c-24.007,0-43.469-22.154-43.469-49.482
	c0-27.329,19.462-49.483,43.469-49.483c24.009,0,43.472,22.154,43.472,49.483C493.8,237.591,474.337,259.746,450.331,259.746z
	 M799.864,538.342l-17.6,24.346c-3.072,4.256-9.021,5.211-13.271,2.135l-13.043-9.428c-4.256-3.074-5.211-9.021-2.137-13.275
	l17.598-24.344c3.076-4.254,9.021-5.211,13.271-2.137l13.043,9.43C801.983,528.143,802.938,534.088,799.864,538.342z"/>
</svg>
