<?xml version="1.0" encoding="utf-8"?>
<!-- Generator: Adobe Illustrator 16.0.0, SVG Export Plug-In . SVG Version: 6.00 Build 0)  -->
<!DOCTYPE svg PUBLIC "-//W3C//DTD SVG 1.1//EN" "http://www.w3.org/Graphics/SVG/1.1/DTD/svg11.dtd">
<svg version="1.1" id="Layer_1" xmlns="http://www.w3.org/2000/svg" xmlns:xlink="http://www.w3.org/1999/xlink" x="0px" y="0px"
	 width="1280.703px" height="1092.871px" viewBox="0 0 1280.703 1092.871" enable-background="new 0 0 1280.703 1092.871"
	 xml:space="preserve">
<path fill="none" stroke="#000000" stroke-linejoin="round" stroke-miterlimit="10" d="M1224.294,995.849
	c-0.621-9.766-8.943-95.062-9.684-101.188c-0.686-5.662-2.832-11.104-6.827-15.509C1098.656,758.841,648.409,280.565,426.977,8.235
	C420.868,0.723,417.553-0.02,409.221,0C403.593,0.015,136.96,1.795,132.8,1.873c-6.144,0.115-8.974,5.644-4.369,10.928
	c3.08,3.54,123.835,140.861,150.86,171.613c53.812,61.224,31.254,78.432-41.501,63.546c-36.575-7.483-185.291-57.983-209.511-65.678
	c-24.22-7.692-36.439-3.306-22.238,40.075c31.12,95.066,230.204,459.273,284.854,540.34c16.333,24.229,48.303,65.327,75.591,92.697
	c12.903,12.94,231.854,209.06,257.906,232.198c5.12,4.552,10.854,5.312,16.729,5.274c5.876-0.035,331.984-6.566,396.407-11.669
	c4.211-0.333,7.67-4.388,8.674-6.729c5.13-11.943,98.86-28.064,165.845-60.312C1219.883,1010.39,1224.89,1005.188,1224.294,995.849z
	 M351.995,357.335c-11.341,27.881-38.063,43.443-59.573,34.695c-21.508-8.749-29.777-38.547-18.438-66.432
	c11.341-27.881,38.064-43.448,59.573-34.699C355.065,299.652,363.339,329.455,351.995,357.335z M758.11,622.284
	c-0.759,1.858-1.615,3.717-2.555,5.519c-6.364,12.251-16.188,21.817-27.646,26.938c-11.744,5.246-23.809,5.223-33.965-0.06
	c-19.059-9.903-25.912-35.852-15.947-60.35c0.761-1.863,1.616-3.721,2.554-5.521c6.368-12.254,16.188-21.815,27.646-26.938
	c11.742-5.244,23.807-5.223,33.964,0.058C761.219,571.837,768.076,597.784,758.11,622.284z M1184.679,968.071
	c-3.271,8.039-8.47,15.627-15.037,21.952c-21.481,20.681-52.556,23.378-69.271,6.019c-11.065-11.498-13.514-29.521-6.391-47.033
	c3.271-8.043,8.473-15.635,15.041-21.957c21.479-20.677,52.55-23.373,69.266-6.016
	C1189.354,932.534,1191.803,950.556,1184.679,968.071z"/>
</svg>
