<?xml version="1.0" encoding="utf-8"?>
<!-- Generator: Adobe Illustrator 16.0.0, SVG Export Plug-In . SVG Version: 6.00 Build 0)  -->
<!DOCTYPE svg PUBLIC "-//W3C//DTD SVG 1.1//EN" "http://www.w3.org/Graphics/SVG/1.1/DTD/svg11.dtd">
<svg version="1.1" id="Layer_1" xmlns="http://www.w3.org/2000/svg" xmlns:xlink="http://www.w3.org/1999/xlink" x="0px" y="0px"
	 width="1733.412px" height="1092.872px" viewBox="0 0 1733.412 1092.872" enable-background="new 0 0 1733.412 1092.872"
	 xml:space="preserve">
<path d="M1373.365,888.545c-23.125-24.145-29.021-36.592-46.037-77.02c-24.512-58.242-97.471-264.197-115.735-332.084
	c-3.828-14.229-10.135-46.228-11.144-54.412c-1.006-8.189-2.762-11.709-16.112-8.979c-13.354,2.73-97.465,19.676-109.365,22.395
	c-11.9,2.716-14.457,4.643-20.127,18.271c-14.215,34.176-57.57,94.645-116.467,76.529c-17.105-5.263-23.463,6.077-15.07,15.969
	c8.392,9.893,286.459,323.529,292.826,330.439c6.365,6.906,14.877,15.078,20.399,20.176c18.246,16.83,41.812,59.105,45.556,69.809
	c3.744,10.701,6.219,12.711,20.215,20.639c7.445,4.221,84.041,45.521,91.537,49.65c7.498,4.127,14.479,3.719,18.656-9.646
	c5.895-18.865,10.313-29.549,21.506-49.703c9.33-16.812,3.366-28.201-6.849-38.477S1384.415,900.083,1373.365,888.545z
	 M1398.558,958.606c-7.771,19.1-29.549,28.279-48.648,20.516c-19.1-7.771-28.282-29.549-20.514-48.648s29.549-28.285,48.647-20.516
	C1397.142,917.721,1406.325,939.502,1398.558,958.606z M1728.29,727.944c-10.327-12.203-100.391-117.1-108.104-126.137
	c-7.563-8.854-12.229-17.895-12.525-26.57c-0.297-8.691-2.391-67.496-2.813-80.43c-0.42-12.729-2.469-17.416-13.701-20.422
	c-12.896-3.447-126.143-34.076-132.293-35.252c-6.15-1.175-10.193,0.459-15.176,6.023c-5.66,6.315-19.019,20.216-38.5,16.424
	c-29.604-5.762-29.76-35.703-30.545-41.592c-0.787-5.889-3.478-6.451-8.168-7.3c-4.691-0.849-60.556-10.843-77.824-13.362
	c-17.271-2.518-23.258,6.982-23.832,19.476c-0.572,12.493,1.709,43.386,3.225,57.26c1.519,13.875,8.185,35.941,12.486,48.828
	c4.305,12.891,96.764,262.095,104.428,285.63c7.662,23.531,17.779,40.377,29.699,53.445c11.92,13.066,50.504,50.979,61.283,61.727
	c10.737,10.707,13.521,9.594,24.389,1.133c12.697-9.885,216.564-169.273,226.047-176.729
	C1735.363,743.026,1735.456,736.415,1728.29,727.944z M1214.611,894.663c-0.684-5.662-2.832-11.105-6.828-15.51
	C1098.654,758.84,648.407,280.565,426.976,8.235C420.866,0.723,417.552-0.02,409.22,0C403.592,0.015,136.96,1.795,132.8,1.873
	c-6.144,0.115-8.974,5.644-4.37,10.928c3.08,3.54,123.835,140.861,150.861,171.613c53.812,61.224,31.253,78.432-41.501,63.546
	c-36.575-7.483-185.291-57.983-209.512-65.678c-24.22-7.692-36.438-3.306-22.236,40.075
	c31.12,95.066,230.204,459.274,284.853,540.341c16.333,24.229,48.303,65.328,75.591,92.699
	c12.903,12.939,231.854,209.059,257.906,232.197c5.12,4.553,10.854,5.312,16.728,5.275c5.876-0.035,331.986-6.566,396.407-11.67
	c4.211-0.332,7.67-4.387,8.674-6.727c5.13-11.947,98.863-28.068,165.846-60.312c7.843-3.775,12.851-8.979,12.255-18.314
	C1223.672,986.083,1215.349,900.788,1214.611,894.663z M351.993,357.335c-11.341,27.881-38.062,43.443-59.571,34.695
	c-21.508-8.749-29.778-38.547-18.438-66.429c11.343-27.882,38.064-43.448,59.573-34.699
	C355.064,299.652,363.338,329.455,351.993,357.335z M758.109,622.286c-0.758,1.861-1.615,3.717-2.552,5.518
	c-6.367,12.252-16.189,21.818-27.646,26.938c-11.741,5.246-23.808,5.223-33.965-0.057c-19.056-9.906-25.912-35.852-15.947-60.35
	c0.762-1.863,1.616-3.721,2.555-5.521c6.369-12.252,16.188-21.816,27.646-26.936c11.743-5.244,23.809-5.223,33.964,0.057
	C761.219,571.836,768.074,597.786,758.109,622.286z M1184.679,968.073c-3.271,8.039-8.472,15.627-15.037,21.951
	c-21.484,20.682-52.558,23.379-69.271,6.02c-11.065-11.498-13.516-29.521-6.391-47.033c3.271-8.043,8.473-15.635,15.041-21.957
	c21.479-20.678,52.549-23.373,69.266-6.016C1189.353,932.536,1191.802,950.555,1184.679,968.073z"/>
</svg>
