<?xml version="1.0" encoding="utf-8"?>
<!-- Generator: Adobe Illustrator 16.0.0, SVG Export Plug-In . SVG Version: 6.00 Build 0)  -->
<!DOCTYPE svg PUBLIC "-//W3C//DTD SVG 1.1//EN" "http://www.w3.org/Graphics/SVG/1.1/DTD/svg11.dtd">
<svg version="1.1" id="Layer_1" xmlns="http://www.w3.org/2000/svg" xmlns:xlink="http://www.w3.org/1999/xlink" x="0px" y="0px"
	 width="1299.141px" height="1111.887px" viewBox="0 0 1299.141 1111.887" enable-background="new 0 0 1299.141 1111.887"
	 xml:space="preserve">
<path fill="none" stroke="#000000" stroke-linejoin="round" stroke-miterlimit="10" d="M1271.375,185.901
	c-24.543,6.582-181.858,55.647-218.393,63.355c-71.6,15.105-82.146-12.56-33.293-66.432
	c27.446-30.273,126.594-138.167,144.012-163.864c5.416-7.991,3.688-15.376-5.221-15.716C1147.44,2.82,932.188,2.328,886.276,0.023
	c-5.433-0.213-10.129,1.029-13.726,5.182C603.224,315.876,132.281,810.891,79.455,866.604c-4.094,4.312-7.944,11.193-9.21,18.549
	c-3.712,21.521-14.707,89.451-15.653,95.051c-1.076,6.363,1.659,10.785,7.613,12.449c5.952,1.66,207.541,41.213,213.996,42.438
	c10.562,2,16.265,5.303,6.15,28.873c-1.006,2.342-1.053,4.949,3.039,6.002c128.146,32.914,303.707,41.586,309.572,41.887
	c5.865,0.309,11.271-1.273,15.021-3.67c29.386-18.729,288.262-251.127,301.465-263.766c12.795-12.248,44-45.188,61.42-68.646
	c58.281-78.49,283.479-455.271,318.896-548.824C1307.926,184.254,1295.916,179.315,1271.375,185.901z M158.349,982.549
	c-23.333,8.273-49.049-3.977-57.325-27.309c-8.274-23.334,3.979-49.051,27.312-57.324c23.332-8.275,49.051,3.975,57.325,27.309
	C193.934,948.557,181.683,974.276,158.349,982.549z M456.871,1060.911c-10.98,6.776-28.342-2.094-39.521-20.201
	c-2.344-3.803-4.254-7.762-5.672-11.76c-5.188-14.621-3.097-27.427,5.328-32.625c10.979-6.779,28.342,2.096,39.521,20.203
	c2.342,3.801,4.252,7.756,5.672,11.756C467.385,1042.901,465.294,1055.709,456.871,1060.911z"/>
</svg>
