<?xml version="1.0" encoding="utf-8"?>
<!-- Generator: Adobe Illustrator 16.0.0, SVG Export Plug-In . SVG Version: 6.00 Build 0)  -->
<!DOCTYPE svg PUBLIC "-//W3C//DTD SVG 1.1//EN" "http://www.w3.org/Graphics/SVG/1.1/DTD/svg11.dtd">
<svg version="1.1" id="Layer_1" xmlns="http://www.w3.org/2000/svg" xmlns:xlink="http://www.w3.org/1999/xlink" x="0px" y="0px"
	 width="1378.742px" height="1103.549px" viewBox="0 0 1378.742 1103.549" enable-background="new 0 0 1378.742 1103.549"
	 xml:space="preserve">
<path fill="none" stroke="#000000" stroke-linejoin="round" stroke-miterlimit="10" d="M354.162,366.831
	c-14.663,24.728-41.551,35.887-60.045,24.922c-18.493-10.966-21.6-39.913-6.938-64.641c14.663-24.729,41.551-35.887,60.045-24.922
	C365.719,313.157,368.826,342.103,354.162,366.831z M763.496,633.062c-13.633,23.421-39.158,33.672-57.006,22.896
	c-17.851-10.771-21.27-38.504-7.638-61.922c13.636-23.42,39.158-33.673,57.009-22.902
	C773.708,581.915,777.126,609.641,763.496,633.062z M1187.599,986.592c-14.489,24.899-41.631,35.799-60.604,24.353
	c-18.974-11.453-22.605-40.938-8.113-65.83c14.49-24.897,41.631-35.806,60.604-24.353
	C1198.458,932.215,1202.093,961.696,1187.599,986.592z M1323.34,1022.223c1.636-0.497,2.657-2.186,3.784-3.35
	c1.643-1.694,3.688-2.781,5.746-3.88c2.098-1.118,4.222-2.088,6.527-2.688c2.641-0.687,5.433-1.055,8.163-1.055
	c17.22,0,31.18,13.96,31.18,31.18c0,17.223-13.96,31.183-31.18,31.183c-17.221,0-31.181-13.96-31.181-31.183
	c0-0.516,0.012-1.026,0.035-1.537c0.001-1.584-1.387-2.863-3.103-2.863c-3.251,4.856-7.799,9.238-13.568,13.171l-158.562,51.006
	c-12.687,3.166-26.235,0.5-40.271-5.438c-15.322-5.606-30.554-6.534-45.732-4.265l-397.731,9.109
	c-7.473-1.208-13.502-4.604-18.729-9.229c-87.938-74.702-174.841-150.645-260.938-227.559
	c-44.174-54.202-85.863-109.756-122.329-168.351C160.761,545.636,79.792,378.568,1.447,208.398
	c-4.264-15.569,0.752-23.198,16.97-21.248c12.729,3.671,25.419,7.474,38.153,11.121c52.343,14.989,104.468,30.852,156.847,45.643
	c19.948,5.633,40.314,13.465,60.28,18.258c27.226,6.536,50.459-15.938,30.419-41.673c-1.396-1.794-162.888-209.177-162.888-209.177
	L417.86,0c273.064,312.419,554.307,615.379,836.774,916.92l59.146,78.611c3.561,7.925,5.357,15.202,5.495,21.867
	c0.031,1.514,0.647,3.322,1.841,4.306C1321.893,1022.34,1322.637,1022.436,1323.34,1022.223z"/>
</svg>
