<?xml version="1.0" encoding="utf-8"?>
<!-- Generator: Adobe Illustrator 16.0.0, SVG Export Plug-In . SVG Version: 6.00 Build 0)  -->
<!DOCTYPE svg PUBLIC "-//W3C//DTD SVG 1.1//EN" "http://www.w3.org/Graphics/SVG/1.1/DTD/svg11.dtd">
<svg version="1.1" id="Layer_1" xmlns="http://www.w3.org/2000/svg" xmlns:xlink="http://www.w3.org/1999/xlink" x="0px" y="0px"
	 width="1370.105px" height="1126.801px" viewBox="0 0 1370.105 1126.801" enable-background="new 0 0 1370.105 1126.801"
	 xml:space="preserve">
<path fill="none" stroke="#000000" stroke-linejoin="round" stroke-miterlimit="10" d="M246.536,989.292
	c-15.571,17.281-42.001,18.865-59.021,3.531c-17.021-15.334-18.193-41.787-2.622-59.068c15.569-17.283,42.001-18.863,59.02-3.531
	C260.933,945.557,262.107,972.008,246.536,989.292z M688.763,613.557c14.67,22.783,12.502,50.645-4.845,62.201
	c-17.346,11.564-43.311,2.469-57.979-20.312c-14.674-22.781-12.506-50.643,4.842-62.201
	C648.126,581.678,674.093,590.776,688.763,613.557z M1088.017,328.39c15.762,24.044,13.959,53.104-4.021,64.89
	c-17.979,11.786-45.346,1.848-61.104-22.195c-15.763-24.045-13.955-53.104,4.021-64.888
	C1044.896,294.405,1072.26,304.346,1088.017,328.39z M57.393,1041.84c0.115-2.307,0.563-4.793,1.354-7.465l49.248-103.67
	L119,914.645L941.661,17.878c12.312-12.083,26.934-18.625,44.613-17.81l230.043,9.874c12.259,2.079,15.857,8.006,12.278,17.125
	c0,0-172.398,204.807-172.402,204.811c-13.508,16.043,7.111,33.021,21.318,34.234c19.641,1.677,38.459-8.413,56.965-13.275
	c23.424-6.152,46.738-12.683,69.951-19.569c47.705-14.152,94.973-29.777,141.797-46.608c20.498-6.324,26.596,1.44,22.834,18.838
	c-83.354,183.602-186.951,373.098-297.129,555.66c-17.869,24.76-35.081,50.172-58.771,71.719L726.274,1095.57
	c-19.918,20.996-40.869,33.893-63.864,30.768c-102.278-9.402-204.02-21.854-304.894-39.219c-17.125-5.33-33.59-3.712-49.387,4.85
	l-13.684,17.109c-3.634,3.068-7.222,4.17-10.757,3.293l-201.532-48.248c-6.81-1.172-12.292-3.063-16.353-5.729
	c-0.616-0.401-2.433,0.469-2.94,0.833c-0.827,0.595-0.939,1.688-0.814,2.619c0.196,1.461,0.312,2.925,0.312,4.399
	c0,17.221-13.96,31.181-31.181,31.181c-17.223,0-31.183-13.96-31.183-31.181c0-17.223,13.96-31.183,31.183-31.183
	c6.858,0,13.689,2.271,19.076,6.529c0.845,0.667,1.617,1.34,2.365,2.115c0.778,0.807,1.849,1.928,3.08,1.354
	c1.068-0.497,1.658-2.122,1.658-3.228L57.393,1041.84z"/>
</svg>
