<?xml version="1.0" encoding="utf-8"?>
<!-- Generator: Adobe Illustrator 16.0.0, SVG Export Plug-In . SVG Version: 6.00 Build 0)  -->
<!DOCTYPE svg PUBLIC "-//W3C//DTD SVG 1.1//EN" "http://www.w3.org/Graphics/SVG/1.1/DTD/svg11.dtd">
<svg version="1.1" id="Layer_1" xmlns="http://www.w3.org/2000/svg" xmlns:xlink="http://www.w3.org/1999/xlink" x="0px" y="0px"
	 width="1312.742px" height="1126.801px" viewBox="0 0 1312.742 1126.801" enable-background="new 0 0 1312.742 1126.801"
	 xml:space="preserve">
<path d="M1158.954,9.941L928.911,0.067c-17.68-0.815-32.301,5.727-44.612,17.81L61.638,914.644l-11.005,16.062l-49.247,103.67
	c-4.979,16.842,3.6,26.338,23.409,29.748l201.531,48.248c3.535,0.877,7.123-0.223,10.757-3.293l13.685-17.109
	c15.797-8.562,32.262-10.18,49.387-4.85c100.875,17.365,202.614,29.816,304.895,39.219c22.995,3.125,43.945-9.771,63.863-30.768
	l286.886-262.693c23.69-21.547,40.901-46.959,58.771-71.719c110.176-182.562,213.772-372.06,297.129-555.661
	c3.761-17.398-2.336-25.162-22.834-18.838c-46.826,16.831-94.092,32.456-141.797,46.608c-23.213,6.886-46.529,13.417-69.951,19.569
	c-18.506,4.862-37.326,14.952-56.965,13.275c-14.207-1.213-34.826-18.191-21.32-34.234c0.005-0.004,172.404-204.811,172.404-204.811
	C1174.814,17.947,1171.214,12.02,1158.954,9.941z M189.174,989.291c-15.57,17.281-42.001,18.865-59.021,3.531
	c-17.021-15.334-18.193-41.787-2.622-59.068c15.57-17.283,42.001-18.863,59.021-3.531
	C203.571,945.556,204.744,972.007,189.174,989.291z M631.401,613.556c14.67,22.783,12.502,50.644-4.845,62.201
	c-17.346,11.564-43.312,2.469-57.979-20.312c-14.672-22.781-12.504-50.642,4.843-62.201
	C590.763,581.677,616.73,590.775,631.401,613.556z M1030.655,328.389c15.76,24.044,13.959,53.102-4.022,64.888
	c-17.979,11.786-45.347,1.848-61.104-22.195c-15.763-24.045-13.955-53.104,4.021-64.888
	C987.533,294.404,1014.898,304.345,1030.655,328.389z"/>
</svg>
