<?xml version="1.0" encoding="utf-8"?>
<!-- Generator: Adobe Illustrator 16.0.0, SVG Export Plug-In . SVG Version: 6.00 Build 0)  -->
<!DOCTYPE svg PUBLIC "-//W3C//DTD SVG 1.1//EN" "http://www.w3.org/Graphics/SVG/1.1/DTD/svg11.dtd">
<svg version="1.1" id="Layer_1" xmlns="http://www.w3.org/2000/svg" xmlns:xlink="http://www.w3.org/1999/xlink" x="0px" y="0px"
	 width="915.027px" height="588.668px" viewBox="0 0 915.027 588.668" enable-background="new 0 0 915.027 588.668"
	 xml:space="preserve">
<path fill="none" stroke="#000000" stroke-linejoin="round" stroke-miterlimit="10" d="M57.945,288.452
	c1.791-0.84,3.772-1.245,5.78-1.059c4.198,0.39,7.229,3.167,10.081,6.003c17.262,32.403,51.405,93.141,83.889,131.272
	c46,54,56.666,60,123.334,96c66.667,36,182.333,68,207.667,68c25.332,0,140.998-32,207.666-68c66.666-36,77.332-42,123.332-96
	s95.334-153.334,95.334-153.334c-72.666-90-160-176-160-176C627.028,42,488.696,0,488.696,0S350.362,42,222.362,95.334
	c0,0-73.75,72.625-142.097,154.24c-5.986,7.148-18.85,8.646-24.942,0.826c-1.413-1.814-3.027-3.441-4.854-4.843
	c-3.476-2.668-7.536-4.748-11.814-5.74c-2.401-0.557-5.004-0.899-7.473-0.899C13.96,238.917,0,252.877,0,270.098
	c0,17.221,13.96,31.181,31.182,31.181c5.367,0,10.741-1.383,15.396-4.07c2.657-1.537,5.152-3.359,7.209-5.651
	C54.95,290.259,56.374,289.188,57.945,288.452z"/>
</svg>
