<?xml version="1.0" encoding="utf-8"?>
<!-- Generator: Adobe Illustrator 16.0.0, SVG Export Plug-In . SVG Version: 6.00 Build 0)  -->
<!DOCTYPE svg PUBLIC "-//W3C//DTD SVG 1.1//EN" "http://www.w3.org/Graphics/SVG/1.1/DTD/svg11.dtd">
<svg version="1.1" id="Layer_1" xmlns="http://www.w3.org/2000/svg" xmlns:xlink="http://www.w3.org/1999/xlink" x="0px" y="0px"
	 width="2440.223px" height="841.6px" viewBox="0 0 2440.223 841.6" enable-background="new 0 0 2440.223 841.6"
	 xml:space="preserve">
<path d="M2391.812,0.343c34.404-2.828,68.491,12.303,34.108,27.73c-42.763,19.188-155.271,67.159-233.932,103.582
	c-22.637,10.479-181.259,58.896-262.83,87.907c-21.521,7.653-152.561,62.433-257.184,131.023
	c-24.171,15.846-123.098,87.654-225.486,150.326C1228.293,634.466,952.254,811.866,926.1,831.542
	c-14.58,10.973-19.281,11.346-30.155,8.68c-31.771-7.789-60.044-13.039-85.194-19.48c-8.089-2.069-9.881-7.22-1.411-15.064
	c33.046-30.641,548.804-493.149,624.95-551.698c20.354-15.649,7.389-32.083,18.111-42.724
	c28.812-28.582,32.708-29.531,90.941-90.427c7.104-7.431,21.187-17.146,38.435-19.778
	C1838.854,61.787,2129.861,21.871,2391.812,0.343z M1154.632,245.116c15.015-3.781,23.552-7.453,35.396-1.561
	c15.175,7.55,29.359,12.393,63.113,28.472c31.974,15.23,35.829,5.561,49.661,3.026c46.021-8.434,72.382-18.681,104.224-24.71
	c11.71-2.219,28.688-2.021,12.576,10.411c-97.906,75.521-402.004,346.043-619.229,546.051
	c-23.154,21.318-31.807,23.562-61.995,14.562C650,795.003,571.906,778.475,502.738,759.161
	C257.495,690.676,110.134,679.922,21.84,658.034c-20.031-4.967-38.731-8.795,4.043-25.688
	c31.07-12.271,179.029-65.086,280.639-87.886c41.002-9.2,45.499-21.851,44.67-59.03c-0.305-13.73,5.133-22.027,23.168-24.814
	C474.627,445.115,934.705,300.473,1154.632,245.116z"/>
</svg>
