<?xml version="1.0" encoding="utf-8"?>
<!-- Generator: Adobe Illustrator 16.0.0, SVG Export Plug-In . SVG Version: 6.00 Build 0)  -->
<!DOCTYPE svg PUBLIC "-//W3C//DTD SVG 1.1//EN" "http://www.w3.org/Graphics/SVG/1.1/DTD/svg11.dtd">
<svg version="1.1" id="Layer_1" xmlns="http://www.w3.org/2000/svg" xmlns:xlink="http://www.w3.org/1999/xlink" x="0px" y="0px"
	 width="2502.584px" height="860.326px" viewBox="0 0 2502.584 860.326" enable-background="new 0 0 2502.584 860.326"
	 xml:space="preserve">
<path fill="none" stroke="#000000" stroke-linejoin="round" stroke-miterlimit="10" d="M803.84,834.127
	c-1.203-3.354-4.308-6.266-8.012-4.498c-19.89,17.478-29.315,18.854-57.449,10.465C650,813.73,571.907,797.202,502.738,777.889
	C257.495,709.403,110.134,698.649,21.84,676.762c-20.031-4.967-38.731-8.795,4.043-25.687
	c31.07-12.271,179.029-65.086,280.639-87.886c41.002-9.2,45.499-21.853,44.67-59.03c-0.305-13.731,5.133-22.028,23.168-24.815
	c100.269-15.501,560.348-160.143,780.272-215.5c15.015-3.781,23.552-7.453,35.397-1.561c15.175,7.55,29.357,12.393,63.113,28.472
	c31.974,15.23,35.827,5.561,49.659,3.026c46.021-8.434,72.384-18.681,104.226-24.71c8.371-1.586,19.436-1.938,19.179,2.534h-0.004
	c0,2.438,1.725,4.412,3.854,4.412c1.534-1.216,2.946-2.321,4.232-3.311c20.354-15.649,7.388-32.083,18.111-42.724
	c28.812-28.582,32.708-29.531,90.938-90.427c7.104-7.431,21.188-17.146,38.438-19.778C1838.852,80.516,2129.86,40.6,2391.811,19.072
	c17.378-1.428,34.675,1.726,43.105,7.185l0.006,0.004c2.479,1.067,4.486,1.292,5.929-1.347C2443.754,10.697,2456.327,0,2471.403,0
	c17.221,0,31.18,13.96,31.18,31.18c0,17.22-13.959,31.18-31.18,31.18c-13.637,0-25.229-8.753-29.463-20.948l0.001,0.003
	c-1.562-2.356-3.753-1.919-5.905-0.602c-2.306,1.965-5.627,3.974-10.114,5.987c-42.763,19.188-155.271,67.159-233.931,103.582
	c-22.64,10.48-181.261,58.897-262.829,87.907c-21.521,7.653-152.562,62.433-257.188,131.022
	c-24.171,15.847-123.098,87.653-225.483,150.325C1228.291,653.192,952.253,830.593,926.1,850.27
	c-14.579,10.974-19.28,11.347-30.154,8.681c-31.771-7.789-60.044-13.039-85.195-19.481c-4.044-1.034-6.514-2.839-6.913-5.366
	L803.84,834.127z"/>
</svg>
