<?xml version="1.0" encoding="utf-8"?>
<!-- Generator: Adobe Illustrator 16.0.0, SVG Export Plug-In . SVG Version: 6.00 Build 0)  -->
<!DOCTYPE svg PUBLIC "-//W3C//DTD SVG 1.1//EN" "http://www.w3.org/Graphics/SVG/1.1/DTD/svg11.dtd">
<svg version="1.1" id="Layer_1" xmlns="http://www.w3.org/2000/svg" xmlns:xlink="http://www.w3.org/1999/xlink" x="0px" y="0px"
	 width="1470.465px" height="696.119px" viewBox="0 0 1470.465 696.119" enable-background="new 0 0 1470.465 696.119"
	 xml:space="preserve">
<path fill="none" stroke="#000000" stroke-linejoin="round" stroke-miterlimit="10" d="M1395.527,186.444
	c-36.688-14.469-108.557-32.264-140.291-52.197c-38.621-24.267-29.521-69.467-26.189-84.474c3.34-15.019,5.873-16.85,14.221-40.602
	c1.855-5.387,3.854-10.235-5.562-8.968c-19.479,2.64-10.881,0.673-33.562,3.399c-10.076,1.208-5.188-0.379-5.5,12.424
	c-1.178,47.266-13.729,67.522-42.953,66.546c-41.443-1.402-40.229-53.777-40.541-62.772c-0.176-5.092,0.951-11.838-5.555-7.967
	c-8.25,4.924-9.277,6.533-16.096,10.433c-12.512,7.167-26.998,13.781-37.068,16.075c-40.686,9.287-101.637,16.464-126.877,17.551
	c-16.094,0.691-23.173-1.804-29.752-9.452c-8.01-9.318-3.973-11.749-26.898-8.131c-11.705,1.858-114.211,26.134-205.752,46.464
	c-137.725,30.577-277.128,60.896-327.759,93.19c-59.062,37.67-104.358,89.546-137.009,121.531
	c-59.657,58.471-160.49,156.862-189.686,186.229c-15.889,15.988-21.351,18.054,10.544,9.441
	c78.351-21.143,82.146-23.336,111.516-26.008c21.938-1.986,37.415,9.373,13.896,31.483c-10.354,9.742-75.688,72.099-122.022,114.894
	c-18.498,17.09-15.928,14.514,5.228,17.793c10.869,1.686,20.278,8.951,25.127,22.082c3.845,10.416,2.812,21.658-3.134,30.912
	c-3.916,6.092-16.764,12.168,10.035,8.867c54.802-6.742,900.538-116.312,976.437-130.541c31.033-5.826,33.303-7.388,53.117-20.658
	c33.641-22.535,242.99-294.586,305.881-335.851C1414.947,197.883,1407.213,191.057,1395.527,186.444z M768.799,124.919
	c0,0-16.83,4.889-16.889,4.912c-6.125,1.162-8.812,5.568-11.191,9.117c-5.912,7.796-13.242,10.997-13.244,11.082
	c-9.041,6.111-54.029,34.001-144.834,67.451c-86.073,31.715-145.423,53.244-176.938,64.717c-18.202,6.631-22.339,0.826-24.295-1.014
	c-2.756-2.594-5.379-1.953-6.562-1.514l-34.451,16.385c-1.02,0.441-2.188-0.048-2.618-1.058c-0.334-0.817-0.1-1.729,0.528-2.28
	c0.163-0.138,0.34-0.26,0.537-0.343c0,0,33.76-16.356,34.354-16.732c0.968-0.626,4.338-2.049,4.911-4.736
	c1.631-7.665,7.796-12.699,11.194-15.327c25.127-19.492,132.197-95.277,152.967-106.991c15.705-8.858,144.22-26.343,175.064-28.987
	c3.312-0.281,11.459-1.27,18.217,0.469c6.729,1.736,9.292,6.648,14.221,5.791c1.615-0.287,17.416-4.609,17.416-4.609
	c1.008-0.439,2.188,0.018,2.637,1.033C770.271,123.291,769.806,124.479,768.799,124.919z"/>
</svg>
