<?xml version="1.0" encoding="utf-8"?>
<!-- Generator: Adobe Illustrator 16.0.0, SVG Export Plug-In . SVG Version: 6.00 Build 0)  -->
<!DOCTYPE svg PUBLIC "-//W3C//DTD SVG 1.1//EN" "http://www.w3.org/Graphics/SVG/1.1/DTD/svg11.dtd">
<svg version="1.1" id="Layer_1" xmlns="http://www.w3.org/2000/svg" xmlns:xlink="http://www.w3.org/1999/xlink" x="0px" y="0px"
	 width="1411.34px" height="677.684px" viewBox="0 0 1411.34 677.684" enable-background="new 0 0 1411.34 677.684"
	 xml:space="preserve">
<path d="M1411.229,186.314c-1.346-6.57-8.623-6.45-8.623-6.45s-77.967-21.918-107.061-36.955
	c-29.095-15.038-53.808-30.972-60.81-47.337c-7.002-16.365-7.057-27.766-7.057-27.766l-56.287,1.485c0,0-30.402,5.312-39.217-4.294
	C1123.368,55.392,1117.506,0,1117.506,0s-36.474,20.247-49.871,23.903c-13.4,3.656-135.517,11.314-135.517,11.314
	s-15.776,0.949-25.438-1.638c-9.654-2.587-16.211-16.762-16.211-16.762S693.615,56.208,593.32,79.025
	c-100.3,22.817-185.182,48.11-229.085,66.984c-60.824,26.145-152.238,112.405-204.077,166.833C108.318,367.271,0,477.983,0,477.983
	l143.772-26.695c0,0,14.366-3.398,19.313,5.174c4.949,8.57-3.688,17.641-3.688,17.641L9.901,611.049c0,0,36.578,2.551,45.96,21.625
	c9.382,19.072-5.846,45.01-5.846,45.01s331.576-32.282,528.668-57.118c197.098-24.842,391.693-59.656,391.693-59.656
	s90.312-20.314,114.023-31.562c23.711-11.244,59.635-56.479,59.635-56.479s55.08-74.259,102.98-125.601
	c47.906-51.341,154.086-150.208,154.086-150.208S1412.573,192.885,1411.229,186.314z M787.803,116.108
	c-3.726,1.489-7.438,2.995-11.158,4.485c-8.684,3.477-17.373,6.942-26.061,10.41c-14.132,5.64-28.261,11.282-42.386,16.934
	c-17.207,6.884-34.405,13.782-51.603,20.684c-18.6,7.463-37.191,14.926-55.798,22.368c-19.198,7.68-38.406,15.334-57.614,22.989
	c-18.626,7.423-37.25,14.851-55.855,22.322c-16.254,6.526-32.489,13.093-48.73,19.653c-12.206,4.93-24.411,9.865-36.676,14.645
	c-8.303,3.235-16.641,6.367-25.021,9.391c-4.805,1.735-7.519,1.794-12.521,0.47c-4.396-1.161-9.433-3.204-11.975-7.207
	c-2.372-3.735-1.686-8.88-0.772-12.96c2.585-11.613,16.537-19.564,25.5-26.096c14.753-10.751,29.899-21.025,44.745-31.679
	c17.578-12.618,35.003-25.461,52.558-38.119c14.854-10.711,29.81-21.292,44.661-32.007c7.104-5.125,14.056-10.559,21.314-15.454
	c0.098-0.064,0.264-0.214,0.378-0.231c0.062-0.008,241.643-34.641,241.643-34.641s10.225-0.095,13.994,11.512
	C800.195,105.185,787.803,116.108,787.803,116.108z"/>
</svg>
