<?xml version="1.0" encoding="utf-8"?>
<!-- Generator: Adobe Illustrator 16.0.0, SVG Export Plug-In . SVG Version: 6.00 Build 0)  -->
<!DOCTYPE svg PUBLIC "-//W3C//DTD SVG 1.1//EN" "http://www.w3.org/Graphics/SVG/1.1/DTD/svg11.dtd">
<svg version="1.1" id="Layer_1" xmlns="http://www.w3.org/2000/svg" xmlns:xlink="http://www.w3.org/1999/xlink" x="0px" y="0px"
	 width="1438.223px" height="645.969px" viewBox="0 0 1438.223 645.969" enable-background="new 0 0 1438.223 645.969"
	 xml:space="preserve">
<path fill="none" stroke="#000000" stroke-miterlimit="10" d="M1389.155,178.973c5.063,3.552,11.231,5.637,17.887,5.638
	c17.222,0,31.182-13.959,31.182-31.18c0-17.221-13.96-31.18-31.182-31.18c-10.308,0-19.446,5.002-25.125,12.712
	c-3.946,3.333-8.923,4.949-13.949,5.779c-10.072,1.663-20.374,0.95-30.395-0.75c-62.638-17.865-135.744-37.067-133.577-86.184
	c0.492-23.277-28.75-26.751-43.961-8.131c-15.211,18.62-63.52-3.922-66.316-32.444c-1.25-4.499,1.857-17.816-17.962-11.617
	C973,28.375,888.67,24.163,888.67,24.163s-8.201,0.945-12.367-7.62c-4.164-8.563-17.785-7.97-17.785-7.97
	S525.244,73.388,514.206,77.351c-11.032,3.964-8.203,13.655,1.763,11.042c9.965-2.612,226.885-35.69,272.312-36.038
	c45.427-0.345,30.58,27.759,14.202,36.25c-16.381,8.492-71.897,31.512-71.897,31.512s-18.15,7.957-26.473-6.97
	c-8.318-14.928-23.359-7.574-23.359-7.574L413.34,211.689c0,0-17.982,9.406-12.596,28.584c6.468,20.034-15.235,24.735-15.235,24.735
	L253.548,312c0,0-24.17,4.496-4.5-11.461c19.672-15.954,107.338-48.55,107.338-48.55s18.845-8.283,6.226-11.717
	c-10.36-2.96,3.481-14.335,3.481-14.335s74.482-68.475,137.984-107.085c18.668-11.93-1.816-11.523-1.816-11.523
	s-92.771,15.829-130.87,24.62c-38.098,8.792-57.604,26.196-57.604,26.196S141.955,289.663,3.781,469.368
	c-12.244,20.965,9.176,13.852,9.176,13.852s41.145-9.883,65.85-16.145s33.388-17.789,44.621-26.41
	c33.447-19.494,39.044-10.164,34.742,8.713c-6.006,26.359-10.217,8.984-20.788,6.299c-10.571-2.685-28.311,15.242-28.311,15.242
	L11.836,562.55c0,0-22.072,20.625,8.635,26.144c48.346,3.723,39.066,44.139,39.066,44.139s-1.187,13.088,13.247,13.141
	c196.117-5.731,944.969-117.006,944.969-117.006s51.463-7.395,74.09-33.719c14.573-17.812-8.578-25.654-8.578-25.654
	s-228.65-106.867-351.737-118.59c-6.377-0.24-7.225-7.486,0.659-9.121c164.825,15.467,365.646,97.18,365.646,97.18
	s29.262,7.867,42.912-11.549c104.563-140.138,173.45-211.713,206.478-242.903c12.192-8.137,28.208-12.981,41.938-5.635
	L1389.155,178.973z"/>
</svg>
