<?xml version="1.0" encoding="utf-8"?>
<!-- Generator: Adobe Illustrator 21.0.2, SVG Export Plug-In . SVG Version: 6.00 Build 0)  -->
<svg version="1.1" id="Layer_1" xmlns="http://www.w3.org/2000/svg" xmlns:xlink="http://www.w3.org/1999/xlink" x="0px" y="0px"
	 width="1532.841px" height="794.701px" viewBox="0 0 1532.841 794.701" enable-background="new 0 0 1532.841 794.701"
	 xml:space="preserve">
<path fill="none" stroke="#000000" stroke-miterlimit="10" d="M1417.518,625.044l-212.486-126.178c0,0-30.361-20.602-2.127-32.969
	c9.596-2.943,31.486-18.842,154.811,7.938c12.424,2.979,17.58-4.959,4.643-14.736c-12.939-9.777-219.373-166.134-258.566-187.72
	c-39.191-21.587-82.549-26.712-82.549-26.712s-117.756-7.05-131.279-7.404c-13.521-0.353-15.277,9.87-1.547,15.023
	c84.824,32.324,157.691,82.137,157.691,82.137s14.932,9.448,10.314,17.695c-6.996,13.784,17.201,18.297,17.201,18.297
	s133.15,33.735,143.609,36.338c10.465,2.604,7.365,11.352-1.713,9.513c-9.082-1.837-170.76-34.926-170.76-34.926
	s-28.27-4.984-23.855-23.828c3.543-15.354-21.604-20.76-21.604-20.76L732.24,249.36c0,0-20.792-8.023-27.702,10.134
	c-9.073,22.009-34.761,7.262-34.761,7.262s-86.43-40.434-98.488-47.912c-12.062-7.48-6.792-20.772,6.035-20.457
	c12.827,0.316,253.849,7.775,267.96,7.728c14.117-0.049,11.562-9.053,0.617-10.13c-10.949-1.079-298.852-44.157-298.852-44.157
	s-19.612-3.031-22.962,11.341c-3.347,14.372-23.146,12.32-23.146,12.32l-111.065-11.257c0,0-32.347-2.215-62.896-18.599
	c-6.014-4.092-23.956-12.684-21.829,11.255c-2.436,43.057-36.727,46.251-49.822,45.778c-13.096-0.474-11.342-13.929-26.428-14.074
	c-11.688-0.408-15.057-0.843-15.057-0.843s-11.441-2.791-12.777,13.79c-5.143,37.571-41.957,55.598-41.957,55.598L13.692,344.018
	c0,0-26.767,14.27-5.45,38.117c21.316,23.851,162.264,189.43,178.428,208.946c16.168,19.518,35.975,15.084,35.975,15.084
	s440.333-22.166,449.128-23.027c6.237-0.834,10.406,6.557,1.441,8.393s-412.477,62.689-435.605,71.764
	c-23.127,9.078-6.188,20.732-6.188,20.732s83.021,67.786,112.771,89.488c23.802,18.75,57.839,21.186,57.839,21.186
	s347.872-2.783,363.702-3.316c13.945,0.23,15.447-16.629,15.447-16.629s26.525-178.348,27.172-185.936
	c0.645-7.589,7.875-5.699,7.83,1.493c-0.047,7.19-4.34,186.438-4.34,186.438s0.006,14.814,18.961,13.865
	c18.957-0.949,551.104-80.052,569.852-82.562c18.746-2.51,11.043-10.062,8.441-17.664c-4.662-18.131,0.527-32.559,13.643-44.361
	C1435.859,634.222,1417.518,625.044,1417.518,625.044z"/>
<path fill="none" stroke="#000000" stroke-miterlimit="10" d="M1529.725,500.808c0,0-131.414-185.939-122.531-304.265
	c-0.178-6.857,1.049-13.963-9.756-13.33c-10.805,0.632-50.73,2.6-50.73,2.6s-17.351,1.258-10.072,18.453
	c15.674,36.707-29.049,13.107-21.682-28.037c9.168-46.301,34.604-48.849,21.584-18.293c-4.242,18.414,15.172,14.893,15.172,14.893
	s49.057-3.948,60.151-5.316c9.837-1.19,14.913-11.164,14.913-11.164l6.857-10.375c0,0,8.379-10.788-3.529-21.485
	c-2.35-2.639-39.467-45.334-20.104-94.807c3.771-9.05-9.041-8.283-9.041-8.283l-39.992-1.292c0,0-13.359,1.489-17.379-7.874
	c-7.334-15.328-16.875-14.873-27.389-6.212c-9.947,7.991-62.986,46.966-69.361,52.366c-10.789,9.148-3.283,22.35-3.283,22.35
	l6.08,11.868c0,0,5.711,9.593-4.938,16.244c-16.821,9.552-19.593-6.994-19.593-6.994s-2.114-10.36-3.193-14.286
	c-3.9-13.723-25.449-10.428-25.449-10.428s-612.282,31.061-645.938,33.607c-29.294,0.677-24.359,32.879-0.755,33.176
	c67.654-1.563,341.043,24.746,586.24,87.251c8.949,2.017,23.174,14.94-4.19,14.707c-12.81-0.19-34.873-3.812-15.358,7.612
	c122.307,80.145,271.528,216.896,271.528,216.896s25.418,23.996,63.968,32.969c38.549,8.973,51.828,12.902,70.162,13.137
	C1540.445,516.728,1529.725,500.808,1529.725,500.808z"/>
</svg>
