<?xml version="1.0" encoding="utf-8"?>
<!-- Generator: Adobe Illustrator 16.0.0, SVG Export Plug-In . SVG Version: 6.00 Build 0)  -->
<!DOCTYPE svg PUBLIC "-//W3C//DTD SVG 1.1//EN" "http://www.w3.org/Graphics/SVG/1.1/DTD/svg11.dtd">
<svg version="1.1" id="Layer_1" xmlns="http://www.w3.org/2000/svg" xmlns:xlink="http://www.w3.org/1999/xlink" x="0px" y="0px"
	 width="1509.863px" height="714.965px" viewBox="0 0 1509.863 714.965" enable-background="new 0 0 1509.863 714.965"
	 xml:space="preserve">
<path fill="none" stroke="#000000" stroke-linejoin="round" stroke-miterlimit="10" d="M982.745,79.475
	c-55.08,10.729-324.629,63.319-334.535,66.876c-11.034,3.964-8.205,13.655,1.761,11.042c9.965-2.612,226.883-35.69,272.308-36.038
	c45.428-0.345,30.579,27.759,14.202,36.25c-16.379,8.492-71.897,31.512-71.897,31.512s-18.149,7.957-26.473-6.97
	c-8.318-14.928-23.357-7.574-23.357-7.574L547.341,280.689c0,0-17.979,9.406-12.595,28.584
	c6.467,20.031-15.236,24.732-15.236,24.732L387.55,381c0,0-24.17,4.496-4.5-11.461c19.672-15.954,107.338-48.55,107.338-48.55
	s18.848-8.283,6.229-11.717c-10.361-2.96,3.479-14.335,3.479-14.335s74.483-68.475,137.985-107.085
	c18.668-11.93-1.817-11.523-1.817-11.523s-92.771,15.829-130.87,24.62c-38.098,8.792-57.602,26.196-57.602,26.196
	s-171.836,131.517-310.01,311.223 M991.86,52.361c1.729-5.165,0.844-10.854-2.979-14.916 M979.6,63.991
	c-1.473,0.47-3.062,0.807-4.766,0.986c-83.453,5.755-354.204,61.953-575.752,140.707c-8.727,2.828-22.561,21.204,4.666,18.458
	c12.738-1.365,19.509,0.824,1.125,13.99c-114.432,91.039-287.494,278.61-287.494,278.61s-0.289,0.313-0.827,0.859"/>
</svg>
