<?xml version="1.0" encoding="utf-8"?>
<!-- Generator: Adobe Illustrator 16.0.0, SVG Export Plug-In . SVG Version: 6.00 Build 0)  -->
<!DOCTYPE svg PUBLIC "-//W3C//DTD SVG 1.1//EN" "http://www.w3.org/Graphics/SVG/1.1/DTD/svg11.dtd">
<svg version="1.1" id="Layer_1" xmlns="http://www.w3.org/2000/svg" xmlns:xlink="http://www.w3.org/1999/xlink" x="0px" y="0px"
	 width="1263.619px" height="714.561px" viewBox="0 0 1263.619 714.561" enable-background="new 0 0 1263.619 714.561"
	 xml:space="preserve">
<path d="M44.688,3.694C-5.305,10.661,0.177,44.11,0.177,44.11l6.437,63.392c0,0,1.95,22.889,23.12,55.52
	c81.375,109.232,403.745,389.197,423.83,405.201s31.856-0.112,31.856-0.112s167.302-231.092,173.053-239.941
	c4.188-5.96,8.069-4.054,4.874,2.119c-3.193,6.174-146.688,255.61-146.688,255.61s-10.252,18.463,8.646,31.407
	c133.608,69.898,526.391,78.855,526.391,78.855s28.685-0.529,23.824-19.904c-13.846-86.069,128.775-75.791,100.75,9.479
	c-3.227,8.397-9.299,23.61,13.906,28.022c23.201,4.416,46.938-10.039,64.574-28.258c17.641-18.217,3.515-36.711,3.515-36.711
	l-220.702-340.477c0,0-4.062-8.896-26.471-15.709c-16.604-4.38-24.021-13.504-24.021-13.504S846.475,156.815,772.83,61.857
	c-27.099-27.957-58.979-27.991-58.979-27.991S217.543-13.304,44.688,3.694z"/>
</svg>
