<?xml version="1.0" encoding="utf-8"?>
<!-- Generator: Adobe Illustrator 16.0.0, SVG Export Plug-In . SVG Version: 6.00 Build 0)  -->
<!DOCTYPE svg PUBLIC "-//W3C//DTD SVG 1.1//EN" "http://www.w3.org/Graphics/SVG/1.1/DTD/svg11.dtd">
<svg version="1.1" id="Layer_1" xmlns="http://www.w3.org/2000/svg" xmlns:xlink="http://www.w3.org/1999/xlink" x="0px" y="0px"
	 width="1326.742px" height="730.463px" viewBox="0 0 1326.742 730.463" enable-background="new 0 0 1326.742 730.463"
	 xml:space="preserve">
<path fill="none" stroke="#000000" stroke-linejoin="round" stroke-miterlimit="10" d="M1277.008,59.717
	c0-1.286,0.74-2.326,1.657-2.326h-0.003c4.869,3.146,10.671,4.971,16.898,4.971c17.222,0,31.182-13.96,31.182-31.181
	c0-17.221-13.96-31.181-31.182-31.181s-31.182,13.96-31.182,31.181c0,4.471,0.939,8.722,2.637,12.567l0.002,0.001
	c0,1.319-1.654,2.387-3.699,2.387l-0.002-0.001c-8.938-5.082-17.58-5.386-17.58-5.386s-598.64,17.107-631.997,16.599
	c-33.361-0.508-52.825,13.861-52.825,13.861l-68.516,50.686c0,0-14.238,9.472-14.896,28.129
	c-0.65,18.657-17.581,29.549-17.581,29.549S307.53,313.975,262.303,318.991c-19.769,3.932-30.852,18.15-30.852,18.15L2.799,674.96
	c0,0-6.279,7.531-0.024,23.717c24.152,38.342,123.142,31.273,123.142,31.273s20.871-0.086,13.3-20.229
	c-32.792-95.006,116.7-116.564,94.405-10.812c-2.395,25.033,22.274,19.469,22.274,19.469s343.465-40.869,364.499-46.275
	c21.034-5.4,18.211-27.646,18.211-27.646s-24.092-231.76-24.896-241.466c-0.889-6.022,6.046-8.327,7.273-1.896
	c2.086,9.43,53.521,234.064,53.521,234.064s0.146,13.123,21.801,16.465c4.273,0.373,26.889-4.717,59.003-25.396
	c32.116-20.68,508.207-375.813,527.06-533.896c1.445-14.626-1.07-25.108-5.361-32.62L1277.008,59.717z"/>
</svg>
