<?xml version="1.0" encoding="utf-8"?>
<!-- Generator: Adobe Illustrator 16.0.0, SVG Export Plug-In . SVG Version: 6.00 Build 0)  -->
<!DOCTYPE svg PUBLIC "-//W3C//DTD SVG 1.1//EN" "http://www.w3.org/Graphics/SVG/1.1/DTD/svg11.dtd">
<svg version="1.1" id="Layer_1" xmlns="http://www.w3.org/2000/svg" xmlns:xlink="http://www.w3.org/1999/xlink" x="0px" y="0px"
	 width="1503.055px" height="715.747px" viewBox="0 0 1503.055 715.747" enable-background="new 0 0 1503.055 715.747"
	 xml:space="preserve">
<path d="M1495.75,484.85c0,0-77.438-52.346-122.398-80.71c-44.959-28.363-63.871-41.347-63.871-41.347
	c-4.086-2.799-11.207-6.529-15.836-8.287l-40.188-15.255c-4.63-1.757-4.531-2.056,0.226-0.662c0,0,47.095,13.815,50.127,11.51
	c3.028-2.299,19.136-0.589,30.271,0.982c11.354,1.603,105.076,20.352,105.076,20.352c4.836,1.049,7.689-1.994,6.34-6.762
	l-1.153-4.078c-1.351-4.764-5.578-11.235-9.396-14.391c0,0-142.062-113.205-248.795-190.307
	c-106.564-76.979-155.029-76.157-189.436-83.088c-34.404-6.929-154.535-21.566-179.771-24.885
	c-25.236-3.315-268.743-31.501-276.451-32.778l-4.139-0.78c-4.14-0.776-6.438,1.596-6.438,1.596l-9.468,8.062c0,0,0,0-11.539,8.841
	c-11.538,8.84-20.573,7.291-20.573,7.291l-98.121-2.616c-9.933-0.289-36.11-3.359-55.142-9.747
	c-19.027-6.388-29.729-14.883-29.729-14.883c-3.879-3.076-7.412-1.562-7.854,3.368c0,0-3.414,29.655-3.236,34.602
	c0,0-2.95,32.319-32.276,31.563c-31.91-0.821-36.229-26.854-36.229-26.854c-0.907-4.867-6.074-47.402-6.074-47.402
	c-0.472-4.925-6.381-7.814-11.327-7.611L170.997,0c-4.206,0.805-6.252,2.198-6.884,3.881c-0.429,1.14-1.324,3.944,0.317,7.778
	c15.845,36.951,28.854,69.45,28.854,69.45c3.217,14.241-1.707,42.105-31.938,69.139L7.441,258.271
	c-3.746,3.234-13.873,16.804-1.416,32.175l82.004,75.905l111.631,112.235l156.532,145.557c0,0,22.259,18.479,30.306,20.018
	c15.79,3.023,45.14,5.902,45.14,5.902s116.357,8.174,240.741,5.494c139.696-3.002,289.842-16.715,303.034-13.145
	c6.062,1.641,21.789,11.004,41.459,17.555c20.533,6.838,65.867,13.459,90.464,21.855c48.848,16.682,74.362,30.152,74.362,30.152
	c4.683,1.619,12.136,4.021,16.324,3.748c4.187-0.27,12.53-2.555,17.053-4.564l253.205-107.143c0,0,14.494-8.652,12.517-19.607
	c-1.972-10.957-12.576-13.258-12.576-13.258s-25.845-6.605-25.957-32.135c-0.115-25.52,23.926-32.568,23.926-32.568
	c4.896-0.746,23.979-3.889,23.979-3.889s9.678-0.77,12.633-7.09C1504.657,491.506,1495.75,484.85,1495.75,484.85z M1034.702,203.689
	l-328.615-96.816c0,0-23.514-8.983-22.423-18.333c1.087-9.352,25.146-7.786,25.146-7.786l141.673,11.242
	c0,0,20.69,2.231,33.354,5.149c12.659,2.921,28.748,11.034,28.748,11.034l134.694,72.813c0,0,18.711,9.708,16.262,20.342
	C1061.091,211.973,1034.702,203.689,1034.702,203.689z M1348.096,624.856l-111.389,46.547c0,0-12.178,4.496-21.236,5.479
	c-9.062,0.98-29.405-4.094-29.405-4.094l-46.668-14.215c0,0-19.699-4.328-19.982-14.98c-0.373-13.951,24.41-20.881,24.41-20.881
	l179.097-28.635c0,0,29.827-2.73,34.405,14.08C1358.957,617.752,1348.096,624.856,1348.096,624.856z"/>
</svg>
