<?xml version="1.0" encoding="utf-8"?>
<!-- Generator: Adobe Illustrator 16.0.0, SVG Export Plug-In . SVG Version: 6.00 Build 0)  -->
<!DOCTYPE svg PUBLIC "-//W3C//DTD SVG 1.1//EN" "http://www.w3.org/Graphics/SVG/1.1/DTD/svg11.dtd">
<svg version="1.1" id="Layer_1" xmlns="http://www.w3.org/2000/svg" xmlns:xlink="http://www.w3.org/1999/xlink" x="0px" y="0px"
	 width="1569.854px" height="728.744px" viewBox="0 0 1569.854 728.744" enable-background="new 0 0 1569.854 728.744"
	 xml:space="preserve">
<path d="M107.62,579.099l-24.071,4.771c-4.242-0.601-2.833-4.162-2.833-4.162l7.996-15.824l-15.684-9.848
	c-4.335-3.131-2.347-8.42-2.347-8.42c27.595-85.137,90.562-259.132,71.476-328.351C123.864,150.92,2.48,71.226,0,69.441
	L37.391,37.29c0,0,4.803-4.527,13.769-6.102l123.536-14.152c0,0,6.948-0.984,10.394-5.549l6.413-9.875
	c3.105-3.383,7.546-0.39,7.546-0.39s34.815,24.553,88.933,49.788c0,0,19.5,11.439,66.948,9.18c0,0,278.895-17.053,336.497-23.36
	c30.102-3.296,331.685-10.137,331.685-10.137l2.81,30.909c0,0-135.103,27.483-272.305,57.803c0,0-112.654,28.281-206.516,57.271
	c0,0-57.188,20.434-108.801,66.155c0,0-69.53,59.99-139.556,132.007c0,0-53.188,55.797-133.043,143.748
	c0,0-35.928,38.051-45.74,54.48C119.958,569.07,114.095,577.736,107.62,579.099z M1565.623,225.063L1445.74,183.44
	c-4.688-1.573-13.764-7.484-18.354-9.333c-18.468-7.439-39.138-34.12-34.104-64.446c7.729-46.553,22.506-70.772,22.506-70.772
	c2.111-4.475-0.209-8.132-5.157-8.125l-41.593,0.062c-4.946,0.011-9.037,4.066-9.09,9.014l-0.274,27.572
	c-0.05,4.95-0.554,13.022-1.117,17.939c0,0-3.644,31.729-36.416,31.778c-32.779,0.049-35.256-28.224-35.256-28.224
	c-0.267-4.943-5.67-37.233-5.67-37.233c-0.558-4.916-5.341-1.501-8.359,0.75c-8.287,6.18-29.729,18.511-74.166,24.231
	c-60.631,7.803-109,11.03-109,11.03c-4.938,0.321-12.572-1.315-17.18-3.127l-20.705-14.167c-4.605-1.815-9.031-4.482-13.845-3.329
	c0,0-144.118,27.089-232.381,49.463c-88.26,22.37-178.844,48.995-178.844,48.995c-4.812,1.152-12.716,2.918-17.562,3.925
	c0,0-111.889,21.258-229.835,141.844C274.406,418.56,167.812,528.896,144.778,561.93c-2.381,3.418-6.521,10.293-1.721,9.084
	l159.111-44.506c4.802-1.207,6.781,1.088,2.283,3.152c0,0-44.774,26.363-48.929,27.029c-8.35,8.443-16.712,16.881-25.051,25.338
	c-14.214,14.414-28.437,28.818-42.706,43.18c-2.919,2.939-5.749,5.967-8.719,8.854c-2.816,2.736-6.433,5.109-7.73,9.016
	c-1.263,3.799-0.522,8.682,1.548,12.062c5.27,8.605,15.433,12.822,24.869,14.922c0,0,10.705,2.236,18.795,19.576
	c8.088,17.342,2.681,31.365,2.681,31.365c-1.464,4.729,1.368,8.189,6.292,7.691c0,0,362.248-38.566,490.692-55.234
	c128.446-16.668,463.146-60.639,521.288-90.17c45.287-23.004,128.584-136.248,161.506-175.509
	c43.562-51.946,168.701-173.596,168.701-173.596C1571.248,230.745,1570.318,226.637,1565.623,225.063z M878.554,174.625
	c-21.105,8.859-322.796,130.421-322.796,130.421s-20.875,3.729-10.699-12.073l139.332-99.483c0,0,12.7-6.184,48.959-15.308
	c36.258-9.124,117.466-26.3,155.427-27.437C901.306,150.131,901.448,164.807,878.554,174.625z"/>
</svg>
