<?xml version="1.0" encoding="utf-8"?>
<!-- Generator: Adobe Illustrator 16.0.0, SVG Export Plug-In . SVG Version: 6.00 Build 0)  -->
<!DOCTYPE svg PUBLIC "-//W3C//DTD SVG 1.1//EN" "http://www.w3.org/Graphics/SVG/1.1/DTD/svg11.dtd">
<svg version="1.1" id="Layer_1" xmlns="http://www.w3.org/2000/svg" xmlns:xlink="http://www.w3.org/1999/xlink" x="0px" y="0px"
	 width="1313.029px" height="819.547px" viewBox="0 0 1313.029 819.547" enable-background="new 0 0 1313.029 819.547"
	 xml:space="preserve">
<path fill="none" stroke="#000000" stroke-linejoin="round" stroke-miterlimit="10" d="M320.758,716.409
	c-4.968,7.77-12.431,12.975-21.435,14.951c-9.004,1.979-17.96,0.387-25.728-4.582c-7.769-4.97-12.974-12.433-14.952-21.435
	c-1.979-9.004-0.386-17.963,4.583-25.729c4.967-7.771,12.428-12.976,21.432-14.949c9.004-1.979,17.962-0.389,25.729,4.582
	c7.767,4.967,12.972,12.43,14.952,21.434C327.318,699.684,325.723,708.643,320.758,716.409z M1241.651,33.625
	c-0.47-0.23-0.952-0.437-1.464-0.626l-1.479-0.49l-11.799-2.759l-6.291-1.321c-17.662-2.747-33.873-4.283-51.732-4.905
	l-32.946-1.482c-0.962,0.048-1.843,0.009-2.798-0.126c-0.784-0.193-1.529-0.233-2.334-0.125l-20.012-0.55h-0.619l-19.834-0.373
	c-0.982-0.072-1.881-0.105-2.866-0.109l-6.888,0.024c-0.561-0.057-1.062-0.086-1.625-0.1l-39.196,0.122
	c-0.952-0.101-1.829-0.087-2.778,0.048c-0.896,0.092-1.73,0.043-2.613-0.16c-0.184-0.014-0.34-0.072-0.479-0.177
	c-0.597,0.231-1.175,0.344-1.812,0.35l-0.732-0.017l-24.771,0.16l-1.021-0.083l-44.41,0.394l-2.037-0.062l-97.966,1.957
	l-0.534-0.012l-9.645,0.305l-6.035-0.027l-7.854,0.262l-70.808,4.035l-23.619,2.149l-9.623,0.987l-70.381,8.467l-43.037,5.697
	L536.99,59.431l-12.327,2.513l-0.604,0.143l-9.712,1.934l-0.312,0.11l-249.267,49.951c-1.984,0.394-3.763,0.888-5.665,1.574
	c-0.915,0.361-1.524,1.227-1.559,2.21c-0.016,0.491,0.104,0.944,0.36,1.364c0.257,0.42,0.604,0.732,1.051,0.941
	c1.593,0.728,3.162,1.127,4.909,1.245l23.209,2.409l149.136,20.122c6.461,1.092,12.224,2.757,18.271,5.28
	c1.545,0.583,2.929,1.173,4.419,1.886c3.196,1.46,5.998,3.025,8.917,4.985l6.426,4.398c1.729,1.245,3.218,2.508,4.721,4.024
	l1.771,1.853l1.888,2.093c1.403,1.606,2.604,3.133,3.84,4.877l2.388,3.649l0.242,0.355l0.568,0.878l0.967,1.628
	c1.937,3.013,3.449,5.909,4.832,9.214l0.104,0.185l5.796,13.548l1.087,3.354l1.496,5.07l4.188,18.102l0.038,0.416l0.07,0.607
	l0.195,1.194l10.139,46.425l0.071,0.381l1.253,6.02c-0.049-0.01-0.096,0.011-0.117,0.052l22.521,117.686l0.098,2.354l-0.115,5.504
	c-0.25,5.146-0.771,9.812-1.646,14.896c-0.693,4.312-1.542,8.198-2.705,12.414l-1.748,5.358l-0.737,2.029l-2.888,6.93
	c-3.478,8.254-7.836,15.261-13.712,22.021l-5.671,6.246l-2.459,2.596c-1.896,1.895-3.729,3.516-5.829,5.176
	c-4.569,3.656-8.926,6.734-13.898,9.822L5.93,772.555c-2.021,1.229-3.612,2.754-4.928,4.724c-0.978,1.45-1.253,3.188-0.774,4.875
	l0.101,0.396l0.038,0.129c0.16,0.525,0.362,0.984,0.64,1.459c0.55,1.012,1.427,1.726,2.522,2.058
	c0.663,0.146,1.271,0.237,1.946,0.312l237.773,20.824l1.853,0.104l0.269,0.031l160.918,11.816l0.318-0.021l11.312,0.142
	c1.416-0.064,2.702-0.076,4.118-0.029c1.556,0.133,2.972,0.188,4.526,0.178l6.312-0.062l8.175-0.271l10.591-0.965l1.168-0.162
	l17.985-2.936l3.656-0.746l0.796-0.189l12.322-3.332l21.332-6.984l12.125-4.827l7.52-3.187l5.642-2.561
	c0.688-0.396,1.33-0.713,2.06-1.025l0.499-0.211l5.111-2.465c0.469-0.209,0.913-0.354,1.416-0.459l4.905-2.717
	c2.271-1.188,4.286-2.355,6.441-3.738c0.726-0.408,1.371-0.805,2.062-1.271l29.912-20.688l0.656-0.479l117.529-81.934l-0.037-0.088
	l3.875-2.521l5.93-3.909l33.131-23.035c20.99-13.438,39.582-26.408,59.429-41.482c7.979-5.584,15.007-10.481,22.896-16.166
	l10.023-7.434l5.129-3.949l2.215-1.814l60.954-46.036c21.475-17.312,33.475-25.937,64.543-52.117l7.263-5.789l0.92-0.805
	l26.061-22.056l6.604-5.793l13.521-11.854c8.221-7.896,15.959-14.785,24.742-22.043l16.455-14.788
	c2.978-2.849,5.707-5.398,8.738-8.181l0.5-0.452l15.186-14.744l0.766-0.791l7.75-7.674c6.693-6.543,12.146-13.146,17.307-20.961
	l3.173-4.345l12.36-17.699c0.537-0.92,1.062-1.736,1.664-2.612l0.146-0.212l6.471-9.972l0.762-1.327l6.774-11.107
	c5.321-8.818,9.864-17.011,14.522-26.198l63.5-130.41l10.41-22.534l2.922-6.819l0.49-1.302l10.354-24.489l0.133-0.276l4.844-11.411
	c0.659-1.771,1.146-3.424,1.538-5.273c0.291-1.102,0.435-2.161,0.437-3.26c0.005-2.919,2.385-5.424,5.165-5.939
	c3.741-0.693,6.916,2.124,10.365,2.927c2.31,0.538,4.771,0.762,7.143,0.762c17.222,0,31.183-13.96,31.183-31.181
	S1299.072,0,1281.85,0c-16.077,0-29.312,12.168-30.998,27.797C1250.85,31.022,1246.737,33.632,1241.651,33.625z"/>
</svg>
