<?xml version="1.0" encoding="utf-8"?>
<!-- Generator: Adobe Illustrator 16.0.0, SVG Export Plug-In . SVG Version: 6.00 Build 0)  -->
<!DOCTYPE svg PUBLIC "-//W3C//DTD SVG 1.1//EN" "http://www.w3.org/Graphics/SVG/1.1/DTD/svg11.dtd">
<svg version="1.1" id="Layer_1" xmlns="http://www.w3.org/2000/svg" xmlns:xlink="http://www.w3.org/1999/xlink" x="0px" y="0px"
	 width="1530.297px" height="799.031px" viewBox="0 0 1530.297 799.031" enable-background="new 0 0 1530.297 799.031"
	 xml:space="preserve">
<path fill="none" stroke="#000000" stroke-linejoin="round" stroke-miterlimit="10" d="M1530.075,42.976
	c0.302-24.345-21.004-34.088-42.077-36.673c-7.524-0.923-15.101-1-22.638-1.694c-8.439-0.777-16.896-1.219-25.357-1.6l-32.947-1.482
	c-0.961,0.048-1.842,0.009-2.797-0.126c-0.785-0.193-1.53-0.233-2.334-0.125l-20.013-0.55h-0.618l-19.834-0.373
	c-0.983-0.072-1.882-0.105-2.867-0.109l-6.887,0.024c-0.559-0.057-1.062-0.086-1.625-0.1l-39.197,0.122
	c-0.952-0.101-1.829-0.087-2.776,0.048c-0.9,0.092-1.734,0.043-2.619-0.16c-0.178-0.014-0.336-0.072-0.479-0.177
	c-0.596,0.231-1.174,0.344-1.812,0.35l-0.73-0.017l-24.771,0.16l-1.021-0.083l-44.41,0.394l-2.034-0.062L1132.257,2.7l-0.532-0.008
	l-9.646,0.305l-6.034-0.027l-7.854,0.262l-70.806,4.035l-23.618,2.149l-9.623,0.987l-70.382,8.467l-43.036,5.697l-82.621,14.352
	l-12.328,2.513l-0.604,0.143l-9.713,1.934l-0.312,0.11L535.885,93.568c-1.981,0.394-3.764,0.888-5.665,1.574
	c-0.915,0.361-1.521,1.227-1.559,2.21c-0.016,0.491,0.104,0.944,0.36,1.364s0.604,0.732,1.051,0.941
	c1.594,0.728,3.162,1.127,4.909,1.245l23.209,2.409l149.135,20.122c6.461,1.092,12.225,2.757,18.271,5.28
	c1.545,0.583,2.93,1.173,4.419,1.886c3.198,1.46,5.998,3.025,8.917,4.985l6.427,4.398c1.73,1.245,3.215,2.508,4.717,4.024
	l1.773,1.853l1.888,2.093c1.403,1.606,2.604,3.133,3.838,4.877l2.389,3.649l0.241,0.355l0.57,0.878l0.965,1.628
	c1.936,3.013,3.451,5.909,4.832,9.214l0.104,0.187l5.796,13.548l1.087,3.354l1.496,5.07l4.188,18.102l0.039,0.416l0.07,0.607
	l0.198,1.194l10.136,46.425l0.073,0.381l1.252,6.02c-0.047-0.01-0.095,0.011-0.117,0.052l22.521,117.684l0.098,2.354l-0.116,5.504
	c-0.25,5.146-0.771,9.814-1.648,14.896c-0.693,4.312-1.542,8.199-2.704,12.412l-1.748,5.361l-0.738,2.029l-2.887,6.93
	c-3.476,8.254-7.836,15.26-13.713,22.018l-5.671,6.246l-2.459,2.596c-1.896,1.896-3.728,3.519-5.829,5.179
	c-4.569,3.653-8.925,6.731-13.898,9.819L277.06,752.041c-2.02,1.229-3.611,2.754-4.926,4.721c-0.979,1.453-1.253,3.189-0.776,4.875
	l0.103,0.396l0.038,0.129c0.159,0.525,0.36,0.984,0.64,1.459c0.548,1.01,1.425,1.723,2.521,2.055
	c0.662,0.146,1.271,0.24,1.945,0.312l237.775,20.825l1.852,0.104l0.271,0.031l160.918,11.813l0.319-0.016l11.312,0.137
	c1.416-0.062,2.704-0.072,4.12-0.026c1.554,0.133,2.97,0.188,4.526,0.178l6.312-0.064l8.175-0.271l10.593-0.965l1.168-0.162
	l17.983-2.937l3.658-0.745l0.796-0.188l12.32-3.332l21.333-6.988l12.125-4.827l7.519-3.183l5.643-2.561
	c0.688-0.394,1.331-0.712,2.058-1.025l0.499-0.211l5.11-2.465c0.47-0.209,0.915-0.355,1.417-0.459l4.908-2.716
	c2.271-1.188,4.284-2.356,6.44-3.739c0.728-0.408,1.372-0.805,2.062-1.271l29.914-20.688l0.654-0.48l117.531-81.932l-0.037-0.088
	l3.875-2.521l5.93-3.907l33.13-23.039c20.99-13.437,39.581-26.408,59.426-41.482c7.979-5.584,15.008-10.486,22.896-16.166
	l10.023-7.434l5.13-3.949l2.213-1.818l60.955-46.037c21.474-17.311,33.474-25.932,64.543-52.115l7.263-5.788l0.918-0.808
	l26.059-22.051l6.604-5.793l13.521-11.854c8.221-7.896,15.959-14.788,24.744-22.044l16.453-14.787
	c2.979-2.848,5.707-5.399,8.741-8.18l0.5-0.453l15.185-14.746l0.764-0.789l7.75-7.674c6.695-6.543,12.146-13.146,17.307-20.961
	l3.171-4.344l12.362-17.7c0.537-0.919,1.062-1.736,1.664-2.612l0.146-0.212l6.47-9.971l0.762-1.328l6.775-11.105
	c5.319-8.818,9.863-17.011,14.524-26.198l63.5-130.41l10.41-22.534l2.922-6.819l0.49-1.302l10.354-24.489l0.132-0.276
	c0,0,4.84-11.407,4.842-11.412C1529.482,49.552,1530.035,46.281,1530.075,42.976z M591.877,695.895
	c-4.968,7.771-12.431,12.978-21.435,14.951c-9.004,1.979-17.96,0.39-25.729-4.582c-7.769-4.967-12.974-12.43-14.952-21.432
	c-1.979-9.004-0.384-17.963,4.583-25.729c4.97-7.771,12.431-12.976,21.435-14.951c9.004-1.979,17.962-0.39,25.729,4.582
	c7.77,4.967,12.973,12.43,14.952,21.434C598.44,679.17,596.844,688.129,591.877,695.895z M598.706,674.411
	c-0.009,0.047-0.021,0.09-0.032,0.137c-0.016,0.049-0.023,0.09-0.043,0.135c-0.083,0.234-0.188,0.438-0.338,0.642l-0.355-0.42
	l0.359-1.283l-0.062-0.346l-0.059-0.541l-0.021-0.414c0.152,0.139,0.271,0.293,0.36,0.479l0.123,0.348l0.075,0.279l0.023,0.146
	C598.781,673.854,598.774,674.125,598.706,674.411z M186.752,679.338c1.877-5.062,5.229-13.662,6.547-17.037
	c2.637-6.754,8.412-21.498,10.211-25.807c3.6-8.619,21.785-50.277,41.183-89.098c0.442-1.021,0.876-1.933,1.386-2.914
	c0.879-1.683,1.681-3.203,2.562-4.886c1.474-2.612,2.72-5.049,6.065-11.872c1.401-2.822,2.688-5.392,4.116-8.203
	c0.152-0.355,0.306-0.677,1.894-3.916c0.654-1.269,1.245-2.412,1.894-3.685c0.887-1.674,1.688-3.199,14.584-27.619
	c0.979-1.805,1.834-3.465,2.737-5.311c0.492-1.168,1.014-2.195,1.669-3.281c1.088-1.92,2.042-3.688,3.051-5.651
	c1.487-2.968,2.872-5.646,4.432-8.572c0.81-1.537,1.542-2.939,2.341-4.48c0.643-1.268,1.244-2.412,1.92-3.66
	c0.463-1.008,0.922-1.897,1.466-2.86c1.156-2.07,2.138-3.992,3.139-6.146c0.874-1.68,1.672-3.207,8.322-15.865
	c0.707-1.414,1.354-2.692,2.075-4.104c1.242-2.383,2.357-4.554,3.576-6.949c0.552-0.957,1.021-1.84,1.51-2.83
	c0.883-1.854,1.725-3.518,2.701-5.325c1.395-2.654,2.665-5.082,4.06-7.738c1.271-2.546,2.455-4.847,3.791-7.354
	c0.734-1.398,1.385-2.682,2.082-4.1c0.81-1.537,1.542-2.938,2.341-4.479c1.227-2.389,2.375-4.539,3.681-6.884
	c0.816-1.531,1.568-2.919,2.405-4.44c0.851-1.513,1.604-2.896,2.419-4.431c0.625-1.096,1.182-2.102,1.772-3.216
	c0.97-1.81,1.845-3.455,2.801-5.271c0.579-0.938,1.076-1.812,1.589-2.789c0.698-1.417,1.372-2.685,13.706-25.47
	c0.977-1.804,1.876-3.436,2.88-5.225c1.182-2.053,2.239-3.92,10.497-18.298c0.73-1.22,1.358-2.349,3.996-7.229
	c0.864-1.502,1.645-2.874,2.492-4.387c0.898-1.482,1.686-2.849,5.493-9.536c0.69-1.237,1.341-2.352,2.076-3.566
	c0.505-0.982,0.982-1.864,1.542-2.819c1.669-2.856,3.189-5.452,4.867-8.305c0.678-1.247,1.327-2.362,2.079-3.563l3.595-5.864
	c1.193-2.04,2.271-3.901,6.872-11.916c0.763-1.197,1.419-2.309,2.097-3.555c1.466-2.61,2.855-4.952,4.452-7.486
	c0.616-1.1,1.19-2.092,1.838-3.175c0.669-1.067,1.266-2.05,1.896-3.139c0.874-1.499,1.649-2.87,2.492-4.386
	c0.771-1.378,1.469-2.627,2.241-4c0.953-1.636,1.819-3.12,2.773-4.751c1.884-3.463,3.66-6.576,5.688-9.955
	c0.688-1.24,1.328-2.36,4.081-7.175c0.8-1.36,1.524-2.592,2.335-3.946c0.604-1.108,1.173-2.105,1.818-3.187
	c0.855-1.508,1.638-2.877,2.499-4.383c0.863-1.503,1.656-2.865,12.241-20.991c0.801-1.36,1.513-2.603,2.279-3.98
	c1.347-2.316,2.596-4.407,3.988-6.693c0.75-1.204,1.417-2.307,4.468-7.479c1.188-2.042,2.312-3.875,3.595-5.861
	c0.679-1.246,1.329-2.36,2.08-3.562l3.354-5.473c1.127-1.896,2.175-3.605,3.354-5.472c1.312-1.967,2.46-3.785,10.054-15.88
	c0.72-1.224,1.412-2.313,2.216-3.482c0.599-0.927,1.147-1.766,4.809-7.806c0.349-0.51,1.149-2.363-0.938-2.23
	c-1.014,0.044-1.931,0.162-2.922,0.377c-1.479,0.274-2.819,0.544-441.663,100.356c-3.011,0.627-5.738,1.241-23.664,5.282
	c-9.347,2.425-16.558,9.458-19.216,18.738c-2.328,8.647-1.77,17.258,1.661,25.529C4,256.993,4.868,259.144,171.3,671.315
	c0.918,2.354,2.342,5.883,3.503,8.516c0.549,1.19,1.378,2.129,2.498,2.812c1.12,0.688,2.331,1,3.642,0.945
	c1.312-0.055,2.493-0.469,3.554-1.242C185.555,681.573,186.307,680.573,186.752,679.338z M714.28,491.61
	c2.334-1.281,4.452-2.453,6.777-3.75c2.626-1.479,5.028-2.808,7.684-4.238c2.674-1.354,5.078-2.633,7.688-4.107
	c1.216-0.723,2.349-1.332,3.616-1.946c5.572-3.06,8.215-4.642,10.914-6.646c1-0.846,1.928-1.592,2.963-2.393
	c1.417-1.072,2.679-2.082,4.034-3.23c2.062-1.74,3.88-3.396,5.811-5.287c1.388-1.352,2.639-2.592,4.002-3.965
	c3.023-3.158,5.612-6.186,8.268-9.664c1.369-1.74,2.562-3.354,3.817-5.178c1.396-1.873,2.582-3.644,3.787-5.644
	c0.724-1.649,1.474-3.114,2.39-4.672c0.504-1.1,0.915-2.121,1.319-3.26c0.664-1.572,1.209-3.029,1.736-4.654
	c0.533-1.407,0.952-2.719,1.338-4.18c0.367-0.937,0.646-1.812,0.885-2.785c0.195-1.127,0.42-2.143,0.729-3.243
	c0.247-1.107,0.472-2.123,0.716-3.238c0.064-1.115,0.189-2.129,0.396-3.229c0.354-1.727,0.562-3.316,0.666-5.076
	c0.183-2.213,0.271-4.229,0.277-6.445c-0.023-1.105-0.062-2.11-0.116-3.217c0.019-1.104-0.016-2.109-0.098-3.215
	c-0.184-0.938-0.32-1.797-0.439-2.745c-0.103-1.604-0.401-3.051-0.951-4.562c-0.205-0.384-0.212-0.831-0.016-1.219
	c0.013-0.054,0.062-0.086,0.109-0.078c0.009,0.248,0.227,0.453,0.475,0.442c-0.342-1.919-0.655-3.66-1.016-5.575
	c-0.335-2.222-0.738-4.224-1.295-6.396c-0.469-1.698-0.771-3.275-0.965-5.026c-0.045-0.636-0.127-1.209-0.266-1.831
	c0.021-0.203-0.05-0.401-0.199-0.547c-0.01-0.696-0.086-1.334-0.248-2.014c-0.928-5.032-1.126-5.584-1.228-6.211
	c-0.235-1.422-0.495-2.709-0.813-4.115C765.418,228.462,765,226.175,764.56,223.659c-0.65-4.173-0.854-5.467-1.208-6.859
	c-1.084-6.128-1.299-7.127-1.523-8.228c-0.078-0.801-0.232-1.521-0.494-2.283c-0.25-1.431-0.56-2.717-0.984-4.105
	c-0.085-0.796-0.219-1.514-0.424-2.287c-0.271-0.77-0.486-1.481-0.682-2.277c-0.489-2.034-0.912-3.887-1.349-5.935
	c-0.644-2.374-1.31-4.51-2.122-6.829c-0.508-1.238-0.94-2.375-1.395-3.635c-0.298-1.124-0.652-2.124-1.14-3.182
	c-0.494-1.113-0.991-2.105-1.584-3.168c-2.412-4.83-2.935-5.734-3.562-6.693c-0.764-1.057-1.419-2.042-2.104-3.152
	c-1.276-2.084-2.546-3.916-4.044-5.848c-2.646-3.197-5.213-5.967-8.201-8.844c-1.499-1.11-2.854-2.13-4.331-3.265
	c-1.655-1.313-3.28-2.358-5.163-3.321c-1.424-0.65-2.732-1.202-4.191-1.762c-1.237-0.547-2.405-0.95-3.72-1.284
	c-1.121-0.265-2.136-0.522-3.246-0.821c-3.017-0.677-5.764-1.26-8.794-1.869c-1.103-0.303-2.115-0.526-3.242-0.715
	c-1.43-0.24-2.729-0.457-4.158-0.695c-1.904-0.326-3.64-0.611-5.547-0.919c-0.955-0.059-1.82-0.149-2.771-0.293
	c-171.85-25.29-172.86-25.481-173.966-25.739c-1.081-0.286-2.11-0.375-3.229-0.282c-1.104,0.089-2.106,0.111-3.215,0.072
	c-1.108,0-2.121,0.13-3.195,0.41c-0.786,0.369-1.433,0.865-1.985,1.53c-0.247,0.289-0.498,0.525-0.802,0.752
	c-1.309,2.758-1.774,3.269-2.262,3.854c-0.811,1.114-1.523,2.14-2.298,3.279c-8.193,12.899-8.827,13.889-9.653,14.866
	l-40.604,67.919c-1.163,2.095-2.229,3.995-3.402,6.084c-0.729,1.101-1.354,2.128-2.001,3.282c-0.984,1.77-1.886,3.378-2.872,5.147
	l-7.567,13.574c-1.165,2.095-2.229,3.995-3.404,6.084c-0.836,1.253-1.543,2.426-2.262,3.749
	c-18.932,32.504-19.56,33.53-20.237,34.664c-0.782,1.492-1.568,2.813-2.502,4.218c-1.632,2.722-3.088,5.209-4.661,7.963
	c-0.731,1.101-1.356,2.127-2.005,3.281c-0.985,1.771-1.884,3.38-2.874,5.148c-17.119,29.409-18.021,31.019-19.018,32.786
	c-0.836,1.253-1.544,2.426-2.262,3.75l-3.134,5.616c-32.307,59.172-32.829,60.193-33.467,61.287
	c-6.068,11.438-6.589,12.462-7.201,13.562c-0.642,1.111-1.197,2.135-1.78,3.275c-0.705,1.475-1.397,2.791-2.214,4.209l-3.917,7.02
	c-0.903,1.601-1.711,3.062-2.586,4.68c-0.863,1.808-1.711,3.412-2.712,5.146l-4.438,7.957c-0.814,1.438-1.539,2.754-2.317,4.211
	c-0.684,1.479-1.372,2.799-2.195,4.207c-1.361,2.371-2.531,4.562-3.743,7.016c-0.802,1.447-1.53,2.767-2.33,4.213
	c-11.617,22.982-12.273,24.304-13.083,25.701c-0.838,1.398-1.521,2.717-2.188,4.205c-1.033,2.082-1.964,3.979-2.978,6.072
	c-16.532,32.789-17.215,34.104-18.032,35.514c-0.692,1.469-1.367,2.783-2.155,4.205c-4.571,9.561-5.242,11.016-6.019,12.604
	c-0.729,1.608-1.414,3.065-2.184,4.668c-0.746,1.606-1.438,3.063-2.213,4.668c-5.396,11.842-5.851,12.856-6.331,13.987
	c-1.279,2.875-2.423,5.498-3.659,8.396c-1.304,3.045-2.492,5.811-3.798,8.854c-0.968,2.25-1.86,4.289-2.856,6.525
	c-1.402,3.021-2.63,5.791-3.922,8.861c-0.659,1.438-1.258,2.756-1.917,4.194c-1.24,2.734-2.387,5.218-3.666,7.937
	c-0.627,1.459-1.229,2.771-1.931,4.199c-0.933,2.09-1.79,3.979-2.748,6.062c-1.253,2.707-2.354,5.188-3.522,7.928
	c-1.229,2.697-2.291,5.179-3.396,7.929c-9.486,23.381-10.667,26.436-11.946,29.805c-4.021,10.582-4.63,12.184-5.261,13.959
	c-0.648,1.586-1.206,3.039-1.784,4.654c-0.55,1.438-1.054,2.752-1.616,4.188c-0.884,2.385-1.654,4.564-2.466,6.975
	c-0.78,2.416-1.539,4.599-2.425,6.978c-2.966,11.182-3.121,12.479-3.366,13.897c-0.132,1.425-0.229,2.722-0.314,4.146
	c-0.065,1.914,0.17,3.666,0.734,5.494c0.791,2.471,1.812,4.621,3.229,6.795c0.902,1.281,1.787,2.404,2.812,3.588
	c1.227,1.479,2.465,2.711,3.94,3.938c1.38,1.005,2.665,1.871,4.108,2.773c0.9,0.582,1.76,1.047,2.736,1.48
	c1.124,0.332,2.141,0.647,3.251,1.021c1.104,0.314,2.118,0.564,3.244,0.795c0.93,0.283,1.805,0.443,2.776,0.508
	c1.267,0.115,2.418,0.22,3.688,0.322c1.414,0.174,2.72,0.181,4.138,0.021c6.051-1.427,11.374-3.482,16.808-6.498
	c465.029-252.771,468.983-254.92,473.348-257.269C711.03,493.374,712.584,492.547,714.28,491.61z M432.515,375.578
	c-18.793,18.786-21.022,20.925-23.521,23.234c-1.487,1.431-2.876,2.695-4.438,4.047c-11.333,10.02-22.266,18.42-34.864,26.797
	c-3.132,2.02-5.947,3.899-9.005,6.033c-14.172,9.008-15.161,9.582-16.229,10.241c-1.036,0.574-2.038,0.99-3.18,1.318
	c-0.559,0.115-1.088,0.127-1.374-0.611c-0.321-0.836-0.43-1.672-0.329-2.562c0.104-0.826,0.312-1.564,0.658-2.32
	c3.026-9.006,6.262-17.025,10.329-25.613c13.396-29.438,14.253-31.188,15.187-33.124c15.354-30.279,16.827-32.911,18.461-35.804
	c0.736-1.271,1.383-2.439,2.065-3.744l3.916-7.021c0.969-1.817,1.921-3.429,3.045-5.153c1.087-1.928,2.069-3.683,3.146-5.618
	c0.885-1.648,1.757-3.115,2.785-4.685c1.542-2.766,2.987-5.254,4.632-7.963c0.792-1.489,1.574-2.812,2.5-4.217
	c0.837-1.438,1.583-2.753,2.381-4.213c12.072-20.32,12.602-21.201,13.247-22.12c0.653-1.125,1.246-2.148,1.894-3.278
	c1.47-2.452,2.854-4.651,4.427-7.037c1.256-2.106,2.411-4.01,3.701-6.095c1.942-3.048,3.688-5.833,5.59-8.912
	c1.114-1.772,2.125-3.383,3.229-5.16c1.677-2.765,3.229-5.257,4.981-7.974c0.905-1.435,1.712-2.755,2.571-4.219
	c1.505-2.435,2.895-4.634,4.44-7.038c0.93-1.457,1.771-2.774,2.71-4.223c0.728-1.143,1.399-2.17,2.166-3.287
	c1.232-1.938,2.356-3.697,3.602-5.631c1.586-2.407,3.009-4.606,4.554-7.041c0.921-1.472,1.785-2.793,2.768-4.226
	c1.904-2.892,3.616-5.533,5.479-8.449c1.267-1.961,2.444-3.722,3.777-5.637c0.965-1.498,1.898-2.823,2.989-4.233
	c1.155-1.614,2.201-3.083,3.35-4.703c0.92-1.244,1.771-2.358,2.73-3.572c0.646-0.77,1.298-1.413,2.078-2.046
	c1.569-1.571,3.119-2.881,4.926-4.171c0.864-0.649,1.722-1.146,2.707-1.579c1.234-0.668,2.366-1.259,3.621-1.889
	c1.988-0.961,3.833-1.755,5.896-2.541c2.044-0.695,3.893-1.359,5.908-2.126c1.835-0.733,3.547-1.291,5.462-1.775
	c2.001-0.695,3.854-1.222,5.923-1.682c1.085-0.278,2.088-0.463,3.201-0.591c1.261-0.254,2.399-0.511,3.649-0.82
	c35.939-8.972,69.688-12.956,106.729-12.599c2.488,0.087,4.756,0.146,7.25,0.192l-3.234,3.5
	c-17.159,18.743-18.324,19.949-19.581,21.299c-108.895,117.466-109.408,117.941-82.89,89.74
	C485.32,322.587,460.644,348.301,432.515,375.578z M683.389,308.074c-0.892,0.326-1.729,0.55-26.367,4.817
	c-2.966,0.188-3.021,0.216-9.084-0.126c-1.953-0.302-3.705-0.757-5.562-1.438c-1.416-0.597-2.726-1.085-4.188-1.563
	c-1.52-0.485-2.846-1.102-4.197-1.944c-0.939-0.566-1.818-1.045-2.81-1.53c-1.146-0.641-2.176-1.256-3.277-1.969
	c-1.333-0.896-2.493-1.785-3.699-2.845c-0.98-0.853-1.872-1.632-8.837-10.387c-0.557-0.897-1.002-1.75-1.425-2.714
	c-2.148-4.828-3.475-9.503-4.169-14.743c-0.987-5.966-1.038-11.536-0.157-17.52c0.763-5.411,2.555-10.188,5.536-14.765
	c4.382-7.231,10.074-12.794,17.402-17.009c1.373-0.823,2.643-1.536,4.059-2.28c1.437-0.622,2.71-1.255,4.072-2.021
	c1.658-0.834,3.229-1.475,4.992-2.043c11.585-3.701,22.788-5.026,34.917-4.134c7.83,0.485,14.834,3.14,21.021,7.965
	c0.771,0.602,1.479,1.143,2.266,1.73c6.567,6.482,11.163,13.804,14.137,22.542c0.415,1.065,0.706,2.067,2.709,10.029
	c0.259,1.098,0.488,2.096,0.742,3.194c0.252,1.083,0.355,2.097,0.126,7.814c-0.19,1.623-0.396,3.094-0.646,4.709
	c-0.525,3.298-1.404,6.237-2.775,9.284c-0.511,1.12-0.97,2.139-1.47,3.265c-2.943,5.532-6.784,9.958-11.848,13.657
	C698.335,303.036,691.399,306.279,683.389,308.074z"/>
</svg>
