<?xml version="1.0" encoding="utf-8"?>
<!-- Generator: Adobe Illustrator 16.0.0, SVG Export Plug-In . SVG Version: 6.00 Build 0)  -->
<!DOCTYPE svg PUBLIC "-//W3C//DTD SVG 1.1//EN" "http://www.w3.org/Graphics/SVG/1.1/DTD/svg11.dtd">
<svg version="1.1" id="Layer_1" xmlns="http://www.w3.org/2000/svg" xmlns:xlink="http://www.w3.org/1999/xlink" x="0px" y="0px"
	 width="1300.564px" height="995.406px" viewBox="0 0 1300.564 995.406" enable-background="new 0 0 1300.564 995.406"
	 xml:space="preserve">
<path d="M1289.313,910.477l-225.893-354.812c0,0-3.334,11.909-17.6,10.687c-13.29-1.139-50.876-31.707-78.813-57.562
	c-27.5-25.45-104.356-102.609-121.995-124.164c-17.637-21.555-10.156-39.732,13.033-38.025
	c23.191,1.707,100.688,42.408,100.688,42.408l-2.829-79.855c0,0-87.089-28.908-141.188-55.128
	c-54.104-26.222-180.171-87.694-257.979-130.875C478.931,79.966,371.568,3.837,371.568,3.837s-5.836-5.914-8.901-3.058
	c-3.855,3.594-0.765,7.907-0.765,7.907s32.808,55.513,50.478,101.25c17.667,45.737,5.708,101.06,5.708,101.06l235.177,47.694
	c0,0,10.05,2.561,8.32,9.631c-1.729,7.071-9.171,5.995-9.171,5.995l-400.509-70.551c0,0-165.85,34.187-208.335,47.572
	C7.809,262.605-1.606,270.192,0.213,336.522C1.37,378.693,27.82,446.606,209.698,610.066
	c109.481,98.396,268.702,234.5,325.979,263.971c95.706,49.252,277.56,78.328,398.061,95.047s251.172,25.18,263.673,25.955
	c28.338,1.764,57.388-2.262,89.314-24.479C1316.274,949.998,1289.313,910.477,1289.313,910.477z M550.798,176.899
	c-7.055,26.679-29.869,43.874-50.961,38.403c-21.096-5.47-32.479-31.532-25.429-58.211c7.056-26.68,29.868-43.874,50.961-38.404
	C546.466,124.157,557.848,150.22,550.798,176.899z M1173.141,956.795c-9.036,15.857-29.34,21.424-45.197,12.387
	c-15.857-9.03-21.425-29.34-12.389-45.194c9.035-15.859,29.339-21.427,45.195-12.392
	C1176.612,920.631,1182.177,940.936,1173.141,956.795z"/>
</svg>
