<?xml version="1.0" encoding="utf-8"?>
<!-- Generator: Adobe Illustrator 16.0.0, SVG Export Plug-In . SVG Version: 6.00 Build 0)  -->
<!DOCTYPE svg PUBLIC "-//W3C//DTD SVG 1.1//EN" "http://www.w3.org/Graphics/SVG/1.1/DTD/svg11.dtd">
<svg version="1.1" id="Layer_1" xmlns="http://www.w3.org/2000/svg" xmlns:xlink="http://www.w3.org/1999/xlink" x="0px" y="0px"
	 width="1327.654px" height="919.979px" viewBox="0 0 1327.654 919.979" enable-background="new 0 0 1327.654 919.979"
	 xml:space="preserve">
<path d="M1120.4,228.47c-44.19-5.584-178.146-14.358-193.414-46.037c-11.746-24.374,9.765-60.93,20.146-83.424
	c20.543-44.519,58.022-86.054,58.022-86.054s1.861-8.295-1.76-12.128c-2.877-3.045-10.506,3.295-10.506,3.295
	s-148.611,81.29-293.104,134.473c-83.503,30.737-140.688,53.396-198.675,72.397c-57.128,18.721-118.617,39.5-118.617,39.5
	l-0.202,78.285c0,0,81.146-38.879,104.396-39.105c23.254-0.227,17.388,25.701,0.374,47.747
	c-17.71,22.947-102.398,94.49-131.465,118.136c-29.529,24.025-48.834,34.377-61.218,39.332c-14.857,5.947-42.233,5.281-42.233,5.281
	L44.225,786.625c0,0-63.844,75.938-38.116,96.891c30.161,24.566,48.208,36.418,76.601,36.463
	c12.524,0.021,129.546-8.094,250.56-20.541c122.055-12.553,302.729-20.793,400.989-64.717
	c83.725-37.428,230.336-148.133,345.86-239.354c89.13-70.381,177.125-153.66,207.127-201.04
	c28.029-44.264,36.865-96.58,40.195-118.928C1333.307,236.013,1216.888,240.661,1120.4,228.47z M208.787,891.686
	c-17.149,6.248-36.233-2.641-42.482-19.789c-6.249-17.146,2.644-36.229,19.792-42.479c17.147-6.25,36.231,2.641,42.48,19.789
	C234.826,866.352,225.936,885.436,208.787,891.686z M852.67,193.831c-22.47,6.113-46.41-10.567-53.478-37.258
	c-7.062-26.689,5.43-53.283,27.898-59.396c22.472-6.114,46.414,10.567,53.479,37.256
	C887.635,161.123,875.141,187.716,852.67,193.831z"/>
</svg>
