<?xml version="1.0" encoding="utf-8"?>
<!-- Generator: Adobe Illustrator 16.0.0, SVG Export Plug-In . SVG Version: 6.00 Build 0)  -->
<!DOCTYPE svg PUBLIC "-//W3C//DTD SVG 1.1//EN" "http://www.w3.org/Graphics/SVG/1.1/DTD/svg11.dtd">
<svg version="1.1" id="Layer_1" xmlns="http://www.w3.org/2000/svg" xmlns:xlink="http://www.w3.org/1999/xlink" x="0px" y="0px"
	 width="1387.941px" height="919.979px" viewBox="0 0 1387.941 919.979" enable-background="new 0 0 1387.941 919.979"
	 xml:space="preserve">
<path fill="none" stroke="#000000" stroke-linejoin="round" stroke-miterlimit="10" d="M269.074,891.686
	c-17.15,6.248-36.234-2.641-42.483-19.789c-6.249-17.146,2.644-36.229,19.792-42.479s36.232,2.641,42.481,19.789
	C295.113,866.352,286.223,885.436,269.074,891.686z M912.956,193.831c-22.469,6.113-46.41-10.567-53.479-37.258
	c-7.062-26.689,5.432-53.283,27.898-59.396c22.472-6.114,46.412,10.567,53.479,37.256
	C947.922,161.123,935.428,187.716,912.956,193.831z M53.229,863.384c-5.645-5.643-13.438-9.133-22.048-9.133
	C13.96,854.251,0,868.211,0,885.432c0,17.223,13.96,31.184,31.183,31.184c15.843,0,28.926-11.816,30.918-27.116
	c0.857-3.708,5.082-4.175,8.087-2.912c27.927,22.485,45.627,33.353,72.811,33.396c12.524,0.021,129.546-8.096,250.559-20.541
	c122.057-12.555,302.729-20.793,400.989-64.719c83.725-37.428,230.336-148.133,345.861-239.354
	c89.129-70.381,177.125-153.66,207.127-201.04c28.029-44.264,36.865-96.58,40.193-118.928
	c5.867-39.384-110.553-34.736-207.039-46.927c-44.189-5.584-178.146-14.358-193.413-46.037
	c-11.746-24.374,9.764-60.93,20.146-83.424c20.543-44.519,58.023-86.054,58.023-86.054s1.859-8.295-1.762-12.128
	c-2.877-3.045-10.506,3.295-10.506,3.295s-148.609,81.29-293.103,134.473c-83.503,30.737-140.688,53.396-198.675,72.397
	c-57.128,18.721-118.617,39.5-118.617,39.5l-0.201,78.285c0,0,81.145-38.879,104.396-39.105
	c23.256-0.227,17.391,25.701,0.374,47.747c-17.71,22.947-102.396,94.49-131.465,118.136c-29.527,24.025-48.834,34.377-61.217,39.332
	c-14.858,5.947-42.234,5.281-42.234,5.281L104.512,786.625c0,0-38.292,45.547-43.614,75.824c-1.469,2.993-4.88,3.482-7.332,1.276
	L53.229,863.384z"/>
</svg>
