<?xml version="1.0" encoding="utf-8"?>
<!-- Generator: Adobe Illustrator 16.0.0, SVG Export Plug-In . SVG Version: 6.00 Build 0)  -->
<!DOCTYPE svg PUBLIC "-//W3C//DTD SVG 1.1//EN" "http://www.w3.org/Graphics/SVG/1.1/DTD/svg11.dtd">
<svg version="1.1" id="Layer_1" xmlns="http://www.w3.org/2000/svg" xmlns:xlink="http://www.w3.org/1999/xlink" x="0px" y="0px"
	 width="1308.832px" height="750.672px" viewBox="0 0 1308.832 750.672" enable-background="new 0 0 1308.832 750.672"
	 xml:space="preserve">
<path d="M1160.023,435.657c-67.354-110.809-139.916-218.69-195.229-313.688C890.679,83.902,815.137,49.662,737.948,19.836
	L347.313,1.808c-39.117-1.745-78.505-1.343-117.659-1.65c-40.265-0.316-80.534-0.2-120.792,0.734
	C86.398,1.413,64.192,0.751,41.962,4.83c-13.917,2.553-30.848,6.033-37.771,20c-6.072,12.25-4.455,25.25-1.918,38.176
	c2.902,14.796,6.205,29.521,9.903,44.139c6.926,27.364,13.426,55.792,33.17,77.35l46.081,50.282l82.24,85.597
	c94.83,89.386,191.329,174.285,289.849,253.772c57.106,48.229,124.302,81.412,202.561,98.07
	c72.328,17.293,147.547,32.938,231.822,43.398c109.674,15.76,218.714,32.229,339.905,35.057c13.781-3.9,29.045-10.195,47.553-21.731
	c22.162-17.572,26.201-31.568,22.005-43.938L1160.023,435.657z M1041.828,302.849c-12.228-9.116-24.571-18.047-36.529-27.522
	c-13.034-10.329-25.691-21.121-38.044-32.257c-13.653-12.312-26.957-25.013-39.979-37.994
	c-14.143-14.099-27.923-28.553-41.394-43.294c-14.28-15.631-28.205-31.584-42.066-47.587c-3.519-4.059-6.568-7.321-7.88-12.735
	c-1.009-4.156-0.292-8.902,2.215-12.397c3.168-4.418,8.622-4.34,13.535-3.417c10.236,0.771,54.104,20.392,97.591,43.931
	c36.284,52.938,74.596,106.982,104.828,156.626C1068.366,313.993,1065.423,320.438,1041.828,302.849z M1182.269,705.325
	c-6.493,17.424-25.631,26.381-42.745,20.004c-17.116-6.375-25.729-25.672-19.234-43.098c6.492-17.429,25.631-26.386,42.745-20.011
	C1180.148,668.604,1188.76,687.899,1182.269,705.325z"/>
</svg>
