<?xml version="1.0" encoding="utf-8"?>
<!-- Generator: Adobe Illustrator 16.0.0, SVG Export Plug-In . SVG Version: 6.00 Build 0)  -->
<!DOCTYPE svg PUBLIC "-//W3C//DTD SVG 1.1//EN" "http://www.w3.org/Graphics/SVG/1.1/DTD/svg11.dtd">
<svg version="1.1" id="Layer_1" xmlns="http://www.w3.org/2000/svg" xmlns:xlink="http://www.w3.org/1999/xlink" x="0px" y="0px"
	 width="1571.074px" height="750.676px" viewBox="0 0 1571.074 750.676" enable-background="new 0 0 1571.074 750.676"
	 xml:space="preserve">
<path fill="none" stroke="#000000" stroke-linejoin="round" stroke-miterlimit="10" d="M1042.544,302.851
	c-60.596-41.923-128.084-106.596-202.158-192.978c-5.084-8.048-5.934-15.642-1.004-21.354c2.133-2.998,6.271-4.141,13.021-2.872
	c10.23,0.771,54.104,20.392,97.59,43.931c36.285,52.938,74.598,106.982,104.828,156.626
	C1069.083,313.995,1066.135,320.44,1042.544,302.851z M1182.983,705.326c-6.494,17.425-25.631,26.381-42.746,20.005
	s-25.727-25.672-19.232-43.099c6.492-17.43,25.629-26.386,42.744-20.011C1180.862,668.606,1189.473,687.901,1182.983,705.326z
	 M1366.267,686.773c0.646-0.383,1.298-0.818,1.948-1.316c8.268-6.334,10.375-17.155,14.328-26.191
	c4.146-9.476,9.113-18.211,14.51-27.003c0.02-0.024,170.811-278.433,170.811-278.433c5.996-14.811,4.617-28.183-12.982-38.401
	l-517.812-211.224c-3.139,12.087-4.404,24.845-3.076,38.532c-1.15,4.942-5.793,7.402-10.439,5.311
	c-5.533-2.488-11.062-4.987-16.598-7.47c-6.105-2.74-12.217-5.474-18.32-8.218c-5.262-2.365-10.521-4.732-15.784-7.093
	c-2.335-1.047-4.672-2.089-7.004-3.142c-0.112-0.051-0.226-0.102-0.337-0.152c-74.117-38.069-149.66-72.309-226.85-102.135
	L348.027,1.81C252.238,0.24,156.89-1.708,54.076,2.724C21.574,7.112-2.8,16.696,0.259,48.368
	c5.005,28.167,11.478,56.177,19.417,84.028c2.973,15.544,11.364,32.87,26.383,52.1l46.082,50.282l82.239,85.597
	c94.83,89.386,191.332,174.285,289.849,253.773c57.109,48.229,124.304,81.407,202.563,98.068
	c72.326,17.293,147.547,32.938,231.821,43.398c109.674,15.759,218.713,32.229,339.904,35.056
	c13.783-3.899,29.045-10.195,47.553-21.729c3.82-2.385,7.591-5.679,10.968-9.354c3.088-2.509,7.275-3.468,9.549,0.593l-0.004,0.002
	c2.707,14.466,15.398,25.41,30.647,25.41c17.221,0,31.182-13.96,31.182-31.181c0-5.979-1.683-11.564-4.6-16.312l-0.002,0.001
	C1361.89,693.977,1362.437,689.543,1366.267,686.773z"/>
</svg>
