<?xml version="1.0" encoding="utf-8"?>
<!-- Generator: Adobe Illustrator 16.0.0, SVG Export Plug-In . SVG Version: 6.00 Build 0)  -->
<!DOCTYPE svg PUBLIC "-//W3C//DTD SVG 1.1//EN" "http://www.w3.org/Graphics/SVG/1.1/DTD/svg11.dtd">
<svg version="1.1" id="Layer_1" xmlns="http://www.w3.org/2000/svg" xmlns:xlink="http://www.w3.org/1999/xlink" x="0px" y="0px"
	 width="1583.197px" height="692.027px" viewBox="0 0 1583.197 692.027" enable-background="new 0 0 1583.197 692.027"
	 xml:space="preserve">
<path d="M1535.536,15.238C1423.165,1.736,1322.023,2.624,1244.943,1.835L834.458,0.109C755.446,24.7,703.417,53,626.92,86.023
	c-61.546,91.08-146.506,196.178-221.126,302.228l-160.98,228.498c-5.015,12.061-11.325,17.594,9.61,36.609
	c9.88,17.477,48.001,35.916,67.969,36.819c46.812,7.119,169.271-9.055,323.111-22.461c84.603-7.373,184.661-20.227,257.982-32.641
	c59.67-12.637,91.396-25.773,163.323-69.32c103.615-72.713,214.848-155.697,315.447-238.537l87.783-79.898l49.348-47.084
	c16.271-18.181,33.85-33.118,38.729-48.172c8.928-27.551,17.331-66.488,24.209-94.258
	C1587.499,26.414,1567.673,21.793,1535.536,15.238z M455.912,664.225c-19.762,5.877-40.604-5.506-46.557-25.42
	c-5.95-19.916,5.246-40.821,25.008-46.701c19.762-5.875,40.604,5.509,46.558,25.425C486.87,637.442,475.673,658.35,455.912,664.225z
	 M745.525,82.315c-76.633,83.747-135.286,132.969-199.604,169.877c-24.718,15.97-40.537,20.804-24.447-5.971
	C553.892,197.313,604.31,141.128,647.017,94.6c39.377-10.858,81.097-31.136,91.363-31.219c6.817-0.813,9.356-3.114,11.283,0.02
	C754.199,69.43,751.134,74.625,745.525,82.315z M551.357,102.507L18.217,271.332c-18.367,8.77-20.818,21.988-16.035,37.23
	l147.826,291.284c8.199,14.289,13.851,31.689,18.97,49.732c13.173,15.906,26.371,11.184,39.587-7.65l117.263-166.811
	l208.821-289.814C552.207,154.473,555.72,127.428,551.357,102.507z"/>
</svg>
