<?xml version="1.0" encoding="utf-8"?>
<!-- Generator: Adobe Illustrator 16.0.0, SVG Export Plug-In . SVG Version: 6.00 Build 0)  -->
<!DOCTYPE svg PUBLIC "-//W3C//DTD SVG 1.1//EN" "http://www.w3.org/Graphics/SVG/1.1/DTD/svg11.dtd">
<svg version="1.1" id="Layer_1" xmlns="http://www.w3.org/2000/svg" xmlns:xlink="http://www.w3.org/1999/xlink" x="0px" y="0px"
	 width="1317.521px" height="668.92px" viewBox="0 0 1317.521 668.92" enable-background="new 0 0 1317.521 668.92"
	 xml:space="preserve">
<path fill="none" stroke="#000000" stroke-linejoin="round" stroke-miterlimit="10" d="M1255.385,616.455
	c0,4.348-4.771,7.867-10.669,7.866c-118.164-106.441-242.871-219.549-363.35-334.066C779.946,193.852,678.881,95.265,589.885,0
	C492.816,7.237,228.429,49.096,23.673,59.324C-2.332,61.156-6.187,65.28,8.554,84.55l362.562,479.779
	c16.192,20.889,21.153,25.129,43.864,28.664l852.858,75.824c8.24,0.521,15.271-0.852,14.575-6.178
	c-0.395-3.021,1.386-6.702,3.434-8.8c1.043-1.07,2.301-1.977,3.693-2.528c2.972-1.175,6.225-1.375,9.191-2.554
	c2.701-1.072,5.196-2.562,7.417-4.438c4.372-3.693,7.998-8.626,9.732-14.111c0.987-3.128,1.638-6.737,1.638-10.027
	c0-17.221-13.96-31.181-31.183-31.181C1270.383,589,1257.221,600.991,1255.385,616.455z"/>
</svg>
