<?xml version="1.0" encoding="utf-8"?>
<!-- Generator: Adobe Illustrator 16.0.0, SVG Export Plug-In . SVG Version: 6.00 Build 0)  -->
<!DOCTYPE svg PUBLIC "-//W3C//DTD SVG 1.1//EN" "http://www.w3.org/Graphics/SVG/1.1/DTD/svg11.dtd">
<svg version="1.1" id="Layer_1" xmlns="http://www.w3.org/2000/svg" xmlns:xlink="http://www.w3.org/1999/xlink" x="0px" y="0px"
	 width="1183.43px" height="747.208px" viewBox="0 0 1183.43 747.208" enable-background="new 0 0 1183.43 747.208"
	 xml:space="preserve">
<path fill="none" stroke="#000000" stroke-linejoin="round" stroke-miterlimit="10" d="M1137.396,741.692
	c-111.816-105.25-139.761-97.592-189.791-274.654c-3.123-11.053-0.803-12.053-10.678-21.146
	C827.984,345.576,624.684,185.035,487.865,78.278c-5.384-4.199-10.309-8.827-15.833-12.344
	C402.307,21.56,330.925-10.135,329.307,2.994c-2.188,17.772-2.764,35.927-21.582,46.981c-43.535,25.578-68.891,37.753-86.85,45.083
	c-13.792,5.628-23.708,6.587-48.555,9.577c-54.354,6.541-130.09-0.066-157.276-3.861c-9.125-1.271-24.407,2.342-7.315,27.101
	C140.96,320.893,499.575,674.098,531.164,700.192c5.389,4.439,10.146,7.049,18.659,7.523
	c234.023,13.33,353.271,15.416,585.584,39.277C1142.459,747.729,1142.74,746.721,1137.396,741.692z M628.161,322.657
	c-15.438,23.43-48.12,29.053-61.087,20.588c-13.446-8.785-20.604-40.831-5.155-64.258c15.438-23.42,42.785-32.646,61.076-20.586
	C641.286,270.456,643.604,299.223,628.161,322.657z"/>
</svg>
