<?xml version="1.0" encoding="utf-8"?>
<!-- Generator: Adobe Illustrator 16.0.0, SVG Export Plug-In . SVG Version: 6.00 Build 0)  -->
<!DOCTYPE svg PUBLIC "-//W3C//DTD SVG 1.1//EN" "http://www.w3.org/Graphics/SVG/1.1/DTD/svg11.dtd">
<svg version="1.1" id="Layer_1" xmlns="http://www.w3.org/2000/svg" xmlns:xlink="http://www.w3.org/1999/xlink" x="0px" y="0px"
	 width="914.098px" height="498.293px" viewBox="0 0 914.098 498.293" enable-background="new 0 0 914.098 498.293"
	 xml:space="preserve">
<path fill="none" stroke="#000000" stroke-linejoin="round" stroke-miterlimit="10" d="M913.264,320.354
	c0,0-33.166-90.678-72.27-163.975C801.9,83.083,758.051,20.344,758.051,20.344s-10.97-18.007-25.129-19.872
	c-14.16-1.865-29.301,4.113-29.301,4.113S607.303,37.376,496.811,39.98c-3.401,0.043-6.812,0.064-10.232,0.04
	c-114.459-0.829-216.43-35.546-216.43-35.546s-15.138-5.979-29.299-4.113c-14.159,1.863-25.13,19.872-25.13,19.872
	s-43.85,62.739-82.946,136.035c-39.015,73.14-72.125,163.587-72.267,163.977c-6.173,16.887,14.073,29.7,25.67,37.539
	c15.426,10.426,30.865,20.959,45.972,31.866c36.823,26.591,75.592,51.562,115.016,74.126c14.693,8.406,30.481,17.738,47.019,22.021
	c34.754,8.998,115.002,11.471,161.458,12.141v0.068c16.737,0.254,27.531,0.279,27.531,0.279s146.03,0.67,196.418-12.377
	c31.009-8.029,60.607-29.506,87.25-46.424c34.672-22.021,68.491-45.281,102.154-68.803c6.916-4.832,13.721-9.818,20.625-14.666
	c9.039-6.34,20.771-10.777,23.648-22.523C915.137,325.877,913.264,320.354,913.264,320.354z"/>
</svg>
