<?xml version="1.0" encoding="utf-8"?>
<!-- Generator: Adobe Illustrator 16.0.0, SVG Export Plug-In . SVG Version: 6.00 Build 0)  -->
<!DOCTYPE svg PUBLIC "-//W3C//DTD SVG 1.1//EN" "http://www.w3.org/Graphics/SVG/1.1/DTD/svg11.dtd">
<svg version="1.1" id="Layer_1" xmlns="http://www.w3.org/2000/svg" xmlns:xlink="http://www.w3.org/1999/xlink" x="0px" y="0px"
	 width="1387.328px" height="803.747px" viewBox="0 0 1387.328 803.747" enable-background="new 0 0 1387.328 803.747"
	 xml:space="preserve">
<path fill="none" stroke="#000000" stroke-linejoin="round" stroke-miterlimit="10" d="M1320.09,462.377
	c11.465-28.275,1.28-62.812-15.612-82.769c-12.4-14.67-30.215-28.057-53.391-40.216c-9.463-4.856-67.409-36.298-173.779-94.179
	c-3.596-1.989-16.421-9.112-38.332-21.43c-21.541-12.197-36.037-19.124-43.396-20.892c-11.079-2.827-18.898-1.694-43.2,2.136
	c-30.962,4.813-70.033,9.764-117.166,14.898c-20.811,2.252-36.271,2.511-67.98-11.467c-6.963-3.13-18.538-9.389-34.6-19.044
	c-9-5.407-25.363-15.035-49.146-28.93c-19.216-11.272-51.812-30.795-97.97-58.809C567.079,90.49,536.7,70.009,494.54,40.375
	c-3.867-2.785-6.319-4.565-7.229-5.049c-4.018-2.721-10.017-7.11-17.859-12.77C446.868,6.008,436.01-2,418.539,0.426
	c-6.16,0.838-12.932,3.515-20.052,8.064C349.804,38.949,283.05,78.477,198.229,127.176c-57.755,33.08-94.445,54.432-110.006,64.204
	c-31.373,19.617-52.806,34.801-64.389,45.662c-17.603,16.335-25.452,34.947-23.56,55.736c0.696,8.677,3.598,16.86,8.448,24.517
	c0.997,1.497,3.783,4.782,8.581,10.042l2.943,3.323c18.945,21.211,118.558,128.167,135.551,144.538
	c11.254,10.783,39.319,38.818,84.203,84.109c46.61,46.936,96.108,93.002,148.443,138.164c12.091,10.453,30.73,25.766,55.979,45.975
	c3.021,2.443,9.836,7.988,20.441,16.633c51.242,41.984,88.087,50.311,141.294,39.186c29.114-6.086,76.114-20.457,140.957-43.061
	c97.575-34.109,207.946-79.85,330.983-137.51c88.271-41.279,126.938-63.414,162.336-86.141
	C1288.624,501.676,1309.828,487.997,1320.09,462.377z M850.829,619.516c-19.229-15.613-22.176-43.877-6.562-63.104
	c15.614-19.23,43.877-22.176,63.159-6.514c19.229,15.607,22.131,43.93,6.519,63.154
	C898.376,632.235,870.115,635.178,850.829,619.516z"/>
</svg>
