<?xml version="1.0" encoding="utf-8"?>
<!-- Generator: Adobe Illustrator 16.0.0, SVG Export Plug-In . SVG Version: 6.00 Build 0)  -->
<!DOCTYPE svg PUBLIC "-//W3C//DTD SVG 1.1//EN" "http://www.w3.org/Graphics/SVG/1.1/DTD/svg11.dtd">
<svg version="1.1" id="Layer_1" xmlns="http://www.w3.org/2000/svg" xmlns:xlink="http://www.w3.org/1999/xlink" x="0px" y="0px"
	 width="819.633px" height="841.236px" viewBox="0 0 819.633 841.236" enable-background="new 0 0 819.633 841.236"
	 xml:space="preserve">
<path d="M816.029,384.067c-1.688-8.843-4.354-17.949-6.313-25.951c-8.669-35.396-16.74-68.786-24.875-103.481
	c-3.99-17.026-9.638-33.416-14.24-49.583c-14.312-50.228-28.935-99.466-43.053-148.353c-4.703-16.277-8.131-33.061-15.558-48.012
	c-12.467,4.852-23.979,10.459-35.631,15.9c-11.895,5.555-23.725,10.415-36.416,15.243c-50.098,19.055-99.182,37.702-153.512,54.411
	c-12.605,3.876-27.176,7.405-42.305,10.322c-14.957,2.884-31.455,5.039-45.179,2.587c-6.854-1.227-13.42-2.012-19.911-3.307
	c-6.222-1.239-12.161-3.746-18.302-5.626c-23.841-7.315-48.588-15.451-71.833-23.364c-24.023-8.178-45.046-18.47-67.896-28.074
	c-5.262-2.209-16.631-7.23-16.631-7.23l-8.758-4.442l-28.443-13.519l-12.43-5.668L138.03,8.633l-16.567-6.708l-4.784-1.923
	c0,0-4.266,8.684-5.583,11.928c-2.891,7.134-4.825,15.194-7.043,22.79C88.209,88.974,72.814,142.998,57.166,196.927
	C40.247,255.242,22.812,312.586,6.534,370.005c-1.062,3.73-3.304,11.785-3.304,11.785s-3.688,19.555-3.183,29.479
	c0.409,7.902,1.96,15.953,3.178,23.328c1.237,7.513,2.564,14.83,4.16,22.146c20.995,96.323,41.806,203.196,62.354,299.194
	c2.062,9.633,3.742,14.151,10.482,19.771c19.202,15.979,57.19,46.467,57.19,46.467l10.438,7.058l9.654,6.403
	c0,0,5.646,4.14,9.798,1.854c1.715-0.948,3.695-3.461,3.998-5.995c0.671-5.625,0.463-11.738,0.615-17.49
	c0.486-18.576,0.83-35.461,1.454-52.801c1.438-39.972,0.873-79.992,0.176-119.977c-0.841-48.229-6.483-92.896,8.558-139.809
	c10.75-33.529,21.062-65.203,31.892-98.388c2.193-6.731,3.85-14.268,6.61-19.479c1.537-2.9,6.478-8.607,8.955-9.521
	c14.49-5.32,29.567-10.59,45.228-14.216c16.407-3.802,32.86-8.14,49.185-10.573c23.951-3.572,46.081-9.479,70.64-10.312
	c8.801-0.297,17.899-1.346,26.106-0.518c8.146,0.821,16.117,1.872,23.848,2.59c8.104,0.753,15.394,2.52,23.246,4.098
	c23.326,4.677,66.742,15.309,87.691,21.944c14.252,4.372,28.521,8.08,42.268,13.652c7.344,16.123,11.926,34.727,17.447,52.93
	c5.465,18.002,11.078,36.119,15.381,54.203c2.168,9.104,4.613,18.661,6.871,28.082c11.772,49.092,1.463,103.979-1.062,153.698
	c-2.299,45.217-5.328,90.438-8.146,135.625c-0.603,9.581-1.025,19.181-1.576,28.763c0,0-0.652,4.493,0.146,5.73
	c0.803,1.234,3.608,1.686,4.854,1.443c7.084-1.345,25.275-13.886,25.275-13.886s36.209-28.646,54.311-42.638
	c3.705-2.86,8.277-5.541,10.854-8.598c3.856-4.58,8.291-13.356,9.889-19.412c26.248-99.469,53.104-196.778,79.248-295.873
	c4.086-15.479,8.026-32.135,8.356-48.695C819.795,403.515,817.813,393.405,816.029,384.067z"/>
</svg>
