<?xml version="1.0" encoding="utf-8"?>
<!-- Generator: Adobe Illustrator 16.0.0, SVG Export Plug-In . SVG Version: 6.00 Build 0)  -->
<!DOCTYPE svg PUBLIC "-//W3C//DTD SVG 1.1//EN" "http://www.w3.org/Graphics/SVG/1.1/DTD/svg11.dtd">
<svg version="1.1" id="Layer_1" xmlns="http://www.w3.org/2000/svg" xmlns:xlink="http://www.w3.org/1999/xlink" x="0px" y="0px"
	 width="1005.941px" height="624.191px" viewBox="0 0 1005.941 624.191" enable-background="new 0 0 1005.941 624.191"
	 xml:space="preserve">
<path d="M1005.352,64.237c-1.314-10.381-16.09-23.938-38.584-29.331C895.225,17.791,695.592,7.985,624.501,10.579
	c-15.313,0.545-34.452,1.102-76.75-4.779C470.242-5.003,284.841-0.56,93.569,17.847c-13.554,1.292-20.133,2.956-21.607,15.639
	C69.172,57.202,60.823,63.603,16.184,71.8C5.694,73.758-1.425,73.375,0.242,85.292c1.599,11.837,38.746,207.221,68.688,418.654
	c2.502,17.801,7.89,19.528,22.175,23.397c94.316,25.336,175.65,54.81,270.806,91.437c22.531,8.713,40.454,7.94,66.01-10.002
	c12.136-8.437,512.524-407.574,569.321-507.698C1004.09,89.044,1007.372,80.281,1005.352,64.237z M149.038,513.303
	c-21.575,2.949-41.346-11.522-44.256-32.449c-2.913-20.922,12.261-40.295,33.767-43.317c21.574-2.949,41.347,11.522,44.258,32.449
	C185.646,490.9,170.542,510.277,149.038,513.303z"/>
</svg>
