<?xml version="1.0" encoding="utf-8"?>
<!-- Generator: Adobe Illustrator 16.0.0, SVG Export Plug-In . SVG Version: 6.00 Build 0)  -->
<!DOCTYPE svg PUBLIC "-//W3C//DTD SVG 1.1//EN" "http://www.w3.org/Graphics/SVG/1.1/DTD/svg11.dtd">
<svg version="1.1" id="Layer_1" xmlns="http://www.w3.org/2000/svg" xmlns:xlink="http://www.w3.org/1999/xlink" x="0px" y="0px"
	 width="1246.742px" height="724.953px" viewBox="0 0 1246.742 724.953" enable-background="new 0 0 1246.742 724.953"
	 xml:space="preserve">
<path d="M1217.315,358.5C1034.919,222.966,993.62,193.068,919.477,144.92c-10.699-6.953-28.562-16.639-41.799-19.412
	c-162.8-33.878-340.31-73.028-444.222-83.581C370.008,35.507,68.721-8.241,37.473,1.375C15.318,8.218-4.065,31.421,0.738,44.424
	C39.01,147.96,315.071,522.645,513.779,705.629c28.645,26.277,32.907,20.028,56.392,14.15
	c243.5-61.201,559.508-174.949,630.166-219.396C1212.82,492.514,1286.938,410.201,1217.315,358.5z M847.195,543.394
	c-9.504,22.9-38.354,34.073-64.367,24.943c-26.034-9.196-39.375-35.173-29.875-58.073c9.505-22.897,38.354-34.07,64.369-24.941
	C843.358,494.519,856.766,520.474,847.195,543.394z"/>
</svg>
