<?xml version="1.0" encoding="utf-8"?>
<!-- Generator: Adobe Illustrator 16.0.0, SVG Export Plug-In . SVG Version: 6.00 Build 0)  -->
<!DOCTYPE svg PUBLIC "-//W3C//DTD SVG 1.1//EN" "http://www.w3.org/Graphics/SVG/1.1/DTD/svg11.dtd">
<svg version="1.1" id="Layer_1" xmlns="http://www.w3.org/2000/svg" xmlns:xlink="http://www.w3.org/1999/xlink" x="0px" y="0px"
	 width="1100.309px" height="817.645px" viewBox="0 0 1100.309 817.645" enable-background="new 0 0 1100.309 817.645"
	 xml:space="preserve">
<path d="M1092.062,798.461c-5.298-4.887-137.082-94.135-159.003-244.777c-0.842-8.727-12.531-17.66-12.531-17.66
	S670.862,316.253,599.512,274.197c-11.608-8.028-13.116-17.993-4.022-20.398c9.096-2.415,5.938-11.235,5.938-11.235
	s-7.447-17.692-11.338-24.815c-3.889-7.132-11.859-12.777-11.859-12.777s-71.822-55.556-79.346-65.062
	c-6.954-8.997-6.206-16.919-6.206-16.919s3.146-36.125,3.146-52.851s-16.333-22.465-16.333-22.465L353.851,1.053
	c0,0-9.435-4.646-11.688,5.585c-2.236,10.225-6.392,23.051-15.177,73.473c-8.797,50.418-29.22,61.41-29.22,61.41
	s-43.221,27.639-70.587,43.546c-27.367,15.906-40.241,18.442-87,18.76c-46.75,0.33-64.195,2.854-125.521-4.159
	c-16.205-3.166-18.646,9.065-8.939,21.739c9.695,12.671,116.553,162.012,224.219,273.84S503.904,767.508,514.409,777.37
	c10.509,9.854,17.6,10.154,17.6,10.154l187.244,18.131c0,0,16.899,1.61,3.991-11.279c-55.312-61.277-35.229-95.334-35.229-95.334
	s19.074-49.826,73.922-51.613c9.199,0.541,11.115,6.994,0.143,11.056c-103.021,27.131-44.905,102.604-9.788,132.521
	c10.067,8.287,16.68,6.574,16.68,6.574s307.016,19.828,320.424,20.062C1102.788,817.875,1104.062,806.988,1092.062,798.461z
	 M623.721,404.409c-14.906,23.741-53.44,51.768-73.732,39.021c-20.281-12.735-14.636-61.422,0.272-85.148
	c14.909-23.741,41.357-26.176,61.644-13.438C632.196,357.579,638.632,380.667,623.721,404.409z"/>
</svg>
