<?xml version="1.0" encoding="utf-8"?>
<!-- Generator: Adobe Illustrator 16.0.0, SVG Export Plug-In . SVG Version: 6.00 Build 0)  -->
<!DOCTYPE svg PUBLIC "-//W3C//DTD SVG 1.1//EN" "http://www.w3.org/Graphics/SVG/1.1/DTD/svg11.dtd">
<svg version="1.1" id="Layer_1" xmlns="http://www.w3.org/2000/svg" xmlns:xlink="http://www.w3.org/1999/xlink" x="0px" y="0px"
	 width="1775.703px" height="1006.125px" viewBox="0 0 1775.703 1006.125" enable-background="new 0 0 1775.703 1006.125"
	 xml:space="preserve">
<path fill="none" stroke="#000000" stroke-linejoin="round" stroke-miterlimit="10" d="M1044.68,271.995
	C891.547,382.164,761.469,509.21,657.84,602.51c-4.548,4.101-9.686,16.59-11.505,23.812
	c-34.805,138.145-42.382,154.074-130.346,260.281c-1.264,1.523-2.221,2.737-2.809,3.664 M824.013,299.55
	c-1.304,1.084-2.495,2.443-3.64,4.193c-10.387,15.912-45.219,59.023-149.647,274.021c-4.49,9.25,2.32,7.541,6.938,3.187
	c231.046-218.17,343.128-296.638,355.586-307.085c3.803-3.188,6.166-5.376,7.041-6.806 M1043.798,14.595
	c2.474,8.445,3.42,11.263-1.331,17.154 M811.557,288.324c-38.152,55.485-78.184,125.882-124.741,225.714
	c-63.901,137.02-72.202,229.943-121.904,298.709c-2.777,3.841-21.581,29.161-56.344,73.363"/>
</svg>
