<?xml version="1.0" encoding="utf-8"?>
<!-- Generator: Adobe Illustrator 16.0.0, SVG Export Plug-In . SVG Version: 6.00 Build 0)  -->
<!DOCTYPE svg PUBLIC "-//W3C//DTD SVG 1.1//EN" "http://www.w3.org/Graphics/SVG/1.1/DTD/svg11.dtd">
<svg version="1.1" id="Layer_1" xmlns="http://www.w3.org/2000/svg" xmlns:xlink="http://www.w3.org/1999/xlink" x="0px" y="0px"
	 width="865.697px" height="484.922px" viewBox="0 0 865.697 484.922" enable-background="new 0 0 865.697 484.922"
	 xml:space="preserve">
<path d="M128.474,84.796c-4.107,6.979-10.727,18.43-14.705,25.446c-3.979,7.016-9.611,16.871-12.52,21.901
	c-10.109,17.511-15.42,26.745-24.247,42.175c-4.887,8.541-10.29,17.837-12.008,20.659c-2.444,4.018-12.121,20.738-16.562,28.622
	c-1.271,2.26-15.929,27.417-20.357,34.951c-7.685,13.06-27.403,46.988-28.077,48.185c1.921,1.432,11.271,8.143,13.159,9.434
	c3.924,2.682,10.495,7.234,14.604,10.125c31.865,22.4,44.715,31.451,59.015,41.562c9.031,6.39,18.695,13.195,21.476,15.133
	l7.509,5.104c1.354,0.873,10.854,7.549,21.11,14.83c10.259,7.283,20.506,14.523,22.771,16.096
	c2.268,1.566,8.979,6.347,14.915,10.609c5.938,4.27,14.164,10.102,18.28,12.961c6.707,4.656,18.563,13.199,46.143,33.242
	c4.902,3.561,9.694,7.08,10.646,7.809c14.707,1.33,29.263,1.168,43.604,1.275c3.682,0.027,11.539-0.006,17.462-0.074
	c5.922-0.07,12.979-0.129,15.688-0.133c2.706-0.004,10.163-0.043,16.569-0.086c12.466-0.084,16.76-0.088,27.284-0.021
	c3.684,0.025,9.115,0.027,12.072,0.009c2.958-0.021,9.598-0.019,14.753,0.014c5.155,0.021,15.229,0,22.379-0.062
	c19.589-0.161,39.556-0.303,42.563-0.301l27.742-0.057l31.771-0.074c3.688-0.008,13.146,0.002,21.015,0.02
	c7.867,0.021,19.731,0.035,26.373,0.037c6.642,0.004,17.093,0.054,23.227,0.107c6.135,0.055,19.931,0.115,30.657,0.131l19.509,0.027
	l11.346-9.59l23.647-19.992c6.771-5.726,17.364-14.816,23.549-20.207c6.187-5.396,16.406-14.257,22.72-19.695
	c6.312-5.44,12.018-10.364,12.677-10.94c13.764-12.062,30.94-26.979,37.016-32.131c4.276-3.632,10.146-8.64,13.045-11.13
	c5.688-4.889,22.315-19.145,30.869-26.463c2.908-2.487,12.396-10.641,21.079-18.116l15.121-13.021l0.177-0.148l5.99-5.051
	l6.166-5.201l-0.068-0.129c-31.521-51.854-67.242-100.937-99.841-152.062c-3.25-5.098-11.112-17.166-15.02-23.052
	c-4.477-6.741-5.467-8.258-11.573-17.728c-2.572-3.986-8.22-12.573-12.543-19.081c-4.325-6.508-7.994-12.092-8.15-12.41
	c-0.156-0.318-1.85-2.882-3.762-5.697c-1.912-2.816-4.184-6.213-5.04-7.551c-0.859-1.336-7.805-11.772-15.427-23.189
	C686.652,20.45,678.818,8.61,676.87,5.556l-3.547-5.555l-30.92,8.853c-17.008,4.869-33.087,9.396-35.732,10.061
	c-20.656,5.19-33.683,8.399-44.455,10.921c-13.842,3.156-27.297,6.032-39.894,8.526c-1.938,0.271-6.067,0.978-10.604,1.82
	c-5.971,1.109-16.079,2.725-22.474,3.59c-6.391,0.865-13.52,1.889-15.842,2.275c-2.321,0.387-6.283,0.877-8.801,1.088
	c-2.521,0.212-6.441,0.562-8.719,0.778c-4.453,0.422-9.319,0.496-27.396,0.413c-24.845-0.113-50.718-2.089-66.331-5.065
	c-22.858-4.357-31.91-6.155-40.456-8.038c-4.864-1.071-13.982-2.996-20.268-4.276c-27.662-5.639-56.143-11.815-83.61-17.611
	l-6.53-1.411c-11.831-2.639-23.646-5.273-35.324-8.524l-3.26,5.324c-2.926,4.772-12.382,21.048-30.587,52.642
	C138.728,67.272,132.581,77.816,128.474,84.796L128.474,84.796z"/>
</svg>
