<?xml version="1.0" encoding="utf-8"?>
<!-- Generator: Adobe Illustrator 16.0.0, SVG Export Plug-In . SVG Version: 6.00 Build 0)  -->
<!DOCTYPE svg PUBLIC "-//W3C//DTD SVG 1.1//EN" "http://www.w3.org/Graphics/SVG/1.1/DTD/svg11.dtd">
<svg version="1.1" id="Layer_1" xmlns="http://www.w3.org/2000/svg" xmlns:xlink="http://www.w3.org/1999/xlink" x="0px" y="0px"
	 width="931.709px" height="579.695px" viewBox="0 0 931.709 579.695" enable-background="new 0 0 931.709 579.695"
	 xml:space="preserve">
<path fill="none" stroke="#000000" stroke-linejoin="round" stroke-miterlimit="10" d="M931.688,317.229
	c-7.961-71.71-28.686-133.88-46.246-170.583C867.938,109.997,791.426,0,791.426,0l0,0L684.592,186.509l1.58-106.834l0,0
	c0,0-3.162-17.505-23.888-6.381c-20.723,11.181-100.45,30.323-148.278,30.323l0,0h-33.483l0,0
	c-47.827,0-127.5-19.142-148.224-30.323c-20.726-11.124-23.942,6.381-23.942,6.381l0,0l1.582,106.834L203.162,0l0,0
	c0,0-76.568,109.997-94.073,146.643c-17.562,36.703-38.284,98.873-46.246,170.585c0,0-17.505,36.703,44.665,103.611
	c62.17,66.973,143.479,153.082,143.479,153.082s19.088,23.885,19.088-25.521l0,0v-43.027l0,0c0,0-6.325-36.704,31.9-31.903
	c38.284,4.803,175.383,9.542,175.383,9.542l0,0h39.812l0,0c0,0,137.153-4.739,175.383-9.542
	c38.283-4.801,31.901,31.903,31.901,31.903l0,0V548.4l0,0c0,49.405,19.146,25.521,19.146,25.521l0,0l54.207-68.551l0,0
	c0,0,14.342-12.762,14.342-43.086c0-30.267-3.219-35.064,20.723-54.207c23.89-19.084,94.019-81.254,94.019-81.254
	S932.079,321.011,931.688,317.229L931.688,317.229"/>
</svg>
