<?xml version="1.0" encoding="utf-8"?>
<!-- Generator: Adobe Illustrator 16.0.0, SVG Export Plug-In . SVG Version: 6.00 Build 0)  -->
<!DOCTYPE svg PUBLIC "-//W3C//DTD SVG 1.1//EN" "http://www.w3.org/Graphics/SVG/1.1/DTD/svg11.dtd">
<svg version="1.1" id="Layer_1" xmlns="http://www.w3.org/2000/svg" xmlns:xlink="http://www.w3.org/1999/xlink" x="0px" y="0px"
	 width="871.139px" height="579.695px" viewBox="0 0 871.139 579.695" enable-background="new 0 0 871.139 579.695"
	 xml:space="preserve">
<path d="M871.115,317.229c-7.962-71.711-28.686-133.881-46.246-170.584C807.365,109.997,730.854,0,730.854,0l0,0L624.021,186.509
	l1.58-106.834l0,0c0,0-3.162-17.505-23.885-6.381c-20.725,11.181-100.453,30.323-148.281,30.323l0,0h-33.483l0,0
	c-47.825,0-127.498-19.142-148.224-30.323c-20.723-11.124-23.94,6.381-23.94,6.381l0,0l1.582,106.834L142.591,0l0,0
	c0,0-76.568,109.997-94.073,146.643c-17.561,36.703-38.284,98.873-46.246,170.585c0,0-17.505,36.703,44.665,103.612
	c62.17,66.972,143.481,153.082,143.481,153.082s19.085,23.885,19.085-25.521l0,0v-43.027l0,0c0,0-6.325-36.704,31.903-31.903
	c38.282,4.802,175.381,9.542,175.381,9.542l0,0h39.812l0,0c0,0,137.155-4.74,175.383-9.542
	c38.283-4.801,31.904,31.903,31.904,31.903l0,0V548.4l0,0c0,49.406,19.142,25.521,19.142,25.521l0,0l54.208-68.551l0,0
	c0,0,14.342-12.762,14.342-43.086c0-30.266-3.219-35.064,20.725-54.207c23.886-19.084,94.016-81.254,94.016-81.254
	S871.512,321.011,871.115,317.229L871.115,317.229"/>
</svg>
