<?xml version="1.0" encoding="utf-8"?>
<!-- Generator: Adobe Illustrator 16.0.0, SVG Export Plug-In . SVG Version: 6.00 Build 0)  -->
<!DOCTYPE svg PUBLIC "-//W3C//DTD SVG 1.1//EN" "http://www.w3.org/Graphics/SVG/1.1/DTD/svg11.dtd">
<svg version="1.1" id="Layer_1" xmlns="http://www.w3.org/2000/svg" xmlns:xlink="http://www.w3.org/1999/xlink" x="0px" y="0px"
	 width="1202.4px" height="1018.6px" viewBox="0 0 1202.4 1018.6" enable-background="new 0 0 1202.4 1018.6" xml:space="preserve">
<path d="M55.3,911.8c-20,6.5-30.899,28.101-24.3,48c6.5,20,28.101,30.9,48,24.3c20-6.5,30.9-28.1,24.3-48
	C96.7,916.2,75.2,905.3,55.3,911.8L55.3,911.8 M0.3,943.7c0,0,10.101-58.9,40.801-95.101C71.7,812.4,261.4,603.2,261.4,603.2
	s43.4-37.101,82.8-56.601c39.4-19.5,830.601-337.6,830.601-337.6s54.2-24.2,10.6,42.3c-43.5,66.6-292.2,494.5-292.2,494.5
	s-11.899,23.5-54.1,14.5c-42.2-9.1-193.5-2-352.1,92.5C328.301,947.3,283,978.5,283,978.5s-48.399,51.8-134.7,37.6
	C61.9,1002,31.5,989,31.5,989S-3.8,990.8,0.3,943.7L0.3,943.7 M770.9,25.6c-142.3,158-448.2,464-479,491.9
	c-30.9,28,9.3,32.3,9.3,32.3S969.1,268.3,1005.301,253s10.2-21.4,10.2-21.4L942.2,249.8c-66,0.1-26.8-48.4-26.8-48.4
	s47.8-58.6,116.4-138.7c18.8-21.9,40-42.8,61-61.6L792.9,0C781.001,16.9,770.9,25.6,770.9,25.6z"/>
</svg>
