<?xml version="1.0" encoding="utf-8"?>
<!-- Generator: Adobe Illustrator 16.0.0, SVG Export Plug-In . SVG Version: 6.00 Build 0)  -->
<!DOCTYPE svg PUBLIC "-//W3C//DTD SVG 1.1//EN" "http://www.w3.org/Graphics/SVG/1.1/DTD/svg11.dtd">
<svg version="1.1" id="Layer_1" xmlns="http://www.w3.org/2000/svg" xmlns:xlink="http://www.w3.org/1999/xlink" x="0px" y="0px"
	 width="1180.4px" height="1073.1px" viewBox="0 0 1180.4 1073.1" enable-background="new 0 0 1180.4 1073.1" xml:space="preserve">
<path d="M301.801,313.4c-19.2-8.5-41.7,0.2-50.2,19.4C243.1,352.1,251.8,374.5,271,383s41.7-0.2,50.2-19.4
	C329.7,344.4,321.001,321.9,301.801,313.4L301.801,313.4 M712.9,566.4c-19.2-8.5-41.7,0.199-50.2,19.399
	c-8.5,19.3,0.2,41.8,19.4,50.2c19.3,8.5,41.7-0.2,50.2-19.5C740.801,597.4,732.1,575,712.9,566.4L712.9,566.4 M1122.4,930.8
	c-19.2-8.5-41.7,0.2-50.2,19.4s0.2,41.7,19.4,50.2s41.7-0.2,50.2-19.4C1150.301,961.7,1141.6,939.2,1122.4,930.8L1122.4,930.8
	 M0,174.1l892.001,394.2L1136.4,852.9l0,0c0,0,33.8,38.699,39.9,78.8c6.1,40,11.5,66.2-30.7,84.899c-42.2,18.7-176.1,68.2-346.4,54
	c-170.399-14.199-158.699-2.199-158.699-2.199S613.4,1083.6,559.4,1029.2C505.301,974.7,360.001,842.6,360.001,842.6
	S285.8,772.4,268.6,734.3C251.5,696.2,11.8,216.7,11.8,216.7l0,0L0,174.1L0,174.1 M884.4,521.8c-30.5-28.3-332.7-337.9-473.1-497.7
	c0,0-8.601-7.6-19.101-22.2L94.4,0c19.2,17.9,38.5,37.6,55.6,58.1c67.601,80.9,114.7,140,114.7,140s38.601,49-27.4,48.1l-73.1-19
	c0,0-26.1,5.7,9.9,21.5c36,15.7,700.5,305.399,700.5,305.399S914.9,550.1,884.4,521.8z"/>
</svg>
