<?xml version="1.0" encoding="utf-8"?>
<!-- Generator: Adobe Illustrator 16.0.0, SVG Export Plug-In . SVG Version: 6.00 Build 0)  -->
<!DOCTYPE svg PUBLIC "-//W3C//DTD SVG 1.1//EN" "http://www.w3.org/Graphics/SVG/1.1/DTD/svg11.dtd">
<svg version="1.1" id="Layer_1" xmlns="http://www.w3.org/2000/svg" xmlns:xlink="http://www.w3.org/1999/xlink" x="0px" y="0px"
	 width="858.201px" height="448.678px" viewBox="0 0 858.201 448.678" enable-background="new 0 0 858.201 448.678"
	 xml:space="preserve">
<path d="M853.998,68.076l-66-63c0,0-6.979-5.801-17-5c-125.916,10.43-244.799,14.891-341.896,16.5
	c-97.104-1.609-215.98-6.07-341.896-16.5c-10.018-0.801-17,5-17,5l-66,63c0,0-6.924,5.857-3,27
	c59.684,150.397,185.537,306.921,195,318s12.221,3.729,11-4c-1.22-7.732-43.038-196.233-46.521-213.656
	c-3.484-17.425,7.622-18.094,12.521-3.344c4.901,14.748,72,233,72,233s2.854,14.746,23,18c64.794,4.188,117.844,5.684,160.896,5.6
	c43.056,0.084,96.104-1.412,160.896-5.6c20.15-3.254,23-18,23-18s67.103-218.251,72-233c4.9-14.75,16.009-14.081,12.523,3.344
	c-3.484,17.423-45.307,205.923-46.523,213.656c-1.221,7.729,1.537,15.078,11,4c9.464-11.078,135.318-167.603,195-318
	C860.921,73.934,853.998,68.076,853.998,68.076z"/>
</svg>
