<?xml version="1.0" encoding="utf-8"?>
<!-- Generator: Adobe Illustrator 16.0.0, SVG Export Plug-In . SVG Version: 6.00 Build 0)  -->
<!DOCTYPE svg PUBLIC "-//W3C//DTD SVG 1.1//EN" "http://www.w3.org/Graphics/SVG/1.1/DTD/svg11.dtd">
<svg version="1.1" id="Layer_1" xmlns="http://www.w3.org/2000/svg" xmlns:xlink="http://www.w3.org/1999/xlink" x="0px" y="0px"
	 width="1230.65px" height="901.433px" viewBox="0 0 1230.65 901.433" enable-background="new 0 0 1230.65 901.433"
	 xml:space="preserve">
<path d="M11.286,2.062C1.044-2.423-2.798,0.775,2.142,8.113C7.08,15.452,238.777,331.98,238.777,331.98s6.77,8.284,3.95,15.839
	c-2.82,7.553,2.978,15.607,2.978,15.607s172.591,212.58,190.766,231.281c18.177,18.699,333.989,301.227,333.989,301.227
	s14.604,14.26,19.245-3.143c19.267-61.719,96.052-30.145,103.94-9.258c4.361,9.77,15.146-1.031,15.146-1.031
	s29.644-36.135-2.471-74.07c-32.108-37.938-36.418-93.428-34.394-106.309c2.026-12.881-9.674-17.711-9.674-17.711
	s-55.429-30.621-61.291-34.068c-5.861-3.441-3.158-10.512,3.312-7.438c6.463,3.074,57.229,29.508,57.229,29.508
	s12.097,7.496,18.271-3.373c6.176-10.867,35.926-27.963,35.926-27.963s15.48-13.283,26.525,7.318
	c11.041,20.605,26.203,10.844,26.203,10.844l248.854-111.062c0,0,19.562-6.662,11.354-24.023c-2.25-5.674-4.479-9.283-4.479-9.283
	s-6.31-10.232-23.385-18.396c-17.076-8.156-181.518-77.488-181.518-77.488s-18.885-7.053-10.426-29.708
	c11.51-31.188-20.533-43.412-20.533-43.412l-388.171-168.14c0,0-25.513-13.761-40.4,18.679
	c-14.893,32.439-44.317,15.694-44.317,15.694S21.527,6.546,11.286,2.062z"/>
</svg>
