<?xml version="1.0" encoding="utf-8"?>
<!-- Generator: Adobe Illustrator 16.0.0, SVG Export Plug-In . SVG Version: 6.00 Build 0)  -->
<!DOCTYPE svg PUBLIC "-//W3C//DTD SVG 1.1//EN" "http://www.w3.org/Graphics/SVG/1.1/DTD/svg11.dtd">
<svg version="1.1" id="Layer_1" xmlns="http://www.w3.org/2000/svg" xmlns:xlink="http://www.w3.org/1999/xlink" x="0px" y="0px"
	 width="1284.125px" height="935.094px" viewBox="0 0 1284.125 935.094" enable-background="new 0 0 1284.125 935.094"
	 xml:space="preserve">
<path fill="none" stroke="#000000" stroke-linejoin="round" stroke-miterlimit="10" d="M1228.157,57.915
	c0.158-0.36,0.956-0.704,1.283-0.871c0.554-0.282,1.146-0.492,1.744-0.649c1.272-0.333,2.721-0.39,3.897,0.301
	c1.297,0.76,2.498,1.647,3.846,2.33c2.74,1.389,5.649,2.351,8.68,2.876c1.765,0.306,3.544,0.46,5.334,0.46
	c17.221,0,31.181-13.96,31.181-31.181c0-17.221-13.959-31.181-31.181-31.181c-17.221,0-31.182,13.96-31.182,31.181
	c0,3.21,0.484,6.428,1.469,9.485c0.433,1.35,0.615,2.831,0.079,4.18c-0.478,1.194-1.229,2.399-2.214,3.235
	c-0.551,0.466-1.221,0.882-1.885,1.165c-1.729,0.274-2.982,0.627-2.982,0.627s-530.722,218.939-547.851,225.45
	c-17.13,6.507-22.995-6.796-23.216-8.361c-0.219-1.564-7.969-21.725-7.969-21.725s-5.888-15.688-25.44-12.274
	c-19.562,3.41-384.445,150.304-384.445,150.304s-22.501,6.564-14.093,38.33c7.073,26.54-15.646,37.724-15.646,37.724
	S20.658,535.817,8.187,540.948c-12.473,5.137-9.104,12.178-0.468,15.389c8.637,3.207,272.701,113.961,272.701,113.961
	s45.983,21.086,55.608,35.346c6.449,9.976,14.779,6.138,14.779,6.138s43.648-14.732,48.646-16.406
	c4.995-1.674,8.077,4.521,2.84,6.477c-5.24,1.953-33.552,15.416-40.28,17.896c-6.729,2.479-7.573,7.043-7.15,11.877
	c-1.428,57.516-26.395,79.637-40.396,82.27c-14,2.629-8.435,14.236-8.435,14.236s31.468,78.334,35.584,86.564
	c4.116,8.229,14.441,10.653,14.441,10.653l37.926,9.642c0,0,6.882,1.617,15.787-7.427c8.904-9.049,630.07-616.5,815.844-865.064
	C1226.738,60.766,1227.573,59.247,1228.157,57.915z"/>
</svg>
