<?xml version="1.0" encoding="utf-8"?>
<!-- Generator: Adobe Illustrator 16.0.0, SVG Export Plug-In . SVG Version: 6.00 Build 0)  -->
<!DOCTYPE svg PUBLIC "-//W3C//DTD SVG 1.1//EN" "http://www.w3.org/Graphics/SVG/1.1/DTD/svg11.dtd">
<svg version="1.1" id="Layer_1" xmlns="http://www.w3.org/2000/svg" xmlns:xlink="http://www.w3.org/1999/xlink" x="0px" y="0px"
	 width="867.352px" height="640.896px" viewBox="0 0 867.352 640.896" enable-background="new 0 0 867.352 640.896"
	 xml:space="preserve">
<path fill="none" stroke="#000000" stroke-linejoin="round" stroke-miterlimit="10" d="M866.192,253.845L823.606,65.523
	c0,0-3.011-15.36-22.714-8.518c-11.575,4.021-272.342,94.934-367.218,94.934S78.035,61.027,66.458,57.005
	c-19.703-6.843-22.713,8.518-22.713,8.518L1.162,253.845c0,0-5.267,20.178,6.623,46.371
	c11.887,26.192,104.098,229.019,104.098,229.019s9.453,18.799,27.444,24.604c17.989,5.805,236.364,87.062,280.116,87.062
	c3.468,0,24.995,0,28.464,0c43.752,0,262.127-81.263,280.117-87.062c17.987-5.807,27.438-24.604,27.438-24.604
	s92.211-202.822,104.103-229.019C871.452,274.023,866.192,253.845,866.192,253.845z"/>
</svg>
