<?xml version="1.0" encoding="utf-8"?>
<!-- Generator: Adobe Illustrator 16.0.0, SVG Export Plug-In . SVG Version: 6.00 Build 0)  -->
<!DOCTYPE svg PUBLIC "-//W3C//DTD SVG 1.1//EN" "http://www.w3.org/Graphics/SVG/1.1/DTD/svg11.dtd">
<svg version="1.1" id="Layer_1" xmlns="http://www.w3.org/2000/svg" xmlns:xlink="http://www.w3.org/1999/xlink" x="0px" y="0px"
	 width="1756.215px" height="823.264px" viewBox="0 0 1756.215 823.264" enable-background="new 0 0 1756.215 823.264"
	 xml:space="preserve">
<path fill="none" stroke="#000000" stroke-linejoin="round" stroke-miterlimit="10" d="M1734.341,292.08
	c-42.485-34.676-248.25-193.881-248.25-193.881s-36.371-26.76-11.021-54.826c12.111-13.12-0.979-24.449-0.979-24.449l-7.248-9.261
	c0,0-10.1-13.782-24.646-8.428c-14.553,5.354-21.021,7.496-21.021,7.496s-15.23,5.926-15.143,18.666
	c4.34,152.512-84.396,86.961-99.822,42.976c-11.414-20.612-32.758-14.807-32.758-14.807L1120.39,94.512
	c0,0-17.338,3.076-18.86,20.626c-1.522,17.549-34.454,334.337-34.454,334.337s-3.964,20.967-25.433,44.289
	c-21.468,23.329-240.755,243.916-256.252,258.491c-15.496,14.575-9.754,24.869,7.596,25.727c21.65,1.034,80.988,2.55,80.988,2.55
	s26.584,3.064,20.382-15.481c-27.595-82.649,136.062-98.115,100.219,4.055c-13.428,26.408,19.092,27.636,19.092,27.636
	l222.574,26.139c0,0,95.021,9.843,177.365-69.567c82.34-79.408,330.729-388.028,330.729-388.028S1776.827,326.756,1734.341,292.08z
	 M1041.511,122.949c-26.912,4.143-742.018,115.482-786.116,123.307c-53.079,9.249-66.972,20.958-66.972,20.958
	S37.855,372,14.523,388.248c-23.333,16.249-15.59,41.635,2.432,48.275c25.917,8.883,152.58,50.09,152.58,50.09
	s16.106,7.057,40.098-0.087c49.093-18.163,115.815,18.685,147.168,30.269c39.767,14.42,62.719,43.953,62.719,43.953l157.97,187.062
	c0,0,9.359,11.829,24.176,13.854c14.815,2.023,90.516,10.044,103.57,11.104c13.055,1.062,23.217-6.198,32.667-15.254
	c9.45-9.054,277.675-285.104,277.675-285.104s35.27-41.883,37.967-87.252c2.691-45.368,11.383-242.966,11.383-242.966
	S1068.421,118.806,1041.511,122.949z M458.312,416.875l-6.602,1.612c-25.484,6.223-51.188-9.396-57.411-34.879l-10.556-43.226
	c-6.223-25.484,9.395-51.189,34.878-57.412l6.601-1.611c25.485-6.222,51.188,9.393,57.411,34.878l10.554,43.225
	C499.41,384.952,483.796,410.653,458.312,416.875z M992.87,390.844l-6.6,1.611c-25.484,6.223-51.188-9.394-57.411-34.878
	l-10.556-43.227c-6.223-25.483,9.395-51.188,34.88-57.411l6.6-1.612c25.484-6.223,51.188,9.394,57.411,34.878l10.553,43.225
	C1033.973,358.917,1018.356,384.621,992.87,390.844z"/>
</svg>
