<?xml version="1.0" encoding="utf-8"?>
<!-- Generator: Adobe Illustrator 16.0.0, SVG Export Plug-In . SVG Version: 6.00 Build 0)  -->
<!DOCTYPE svg PUBLIC "-//W3C//DTD SVG 1.1//EN" "http://www.w3.org/Graphics/SVG/1.1/DTD/svg11.dtd">
<svg version="1.1" id="Layer_1" xmlns="http://www.w3.org/2000/svg" xmlns:xlink="http://www.w3.org/1999/xlink" x="0px" y="0px"
	 width="1309.742px" height="865.434px" viewBox="0 0 1309.742 865.434" enable-background="new 0 0 1309.742 865.434"
	 xml:space="preserve">
<path fill="none" stroke="#000000" stroke-linejoin="round" stroke-miterlimit="10" d="M7.324,399.227
	c8.159-8.568,271.569-285.229,280.42-294.148c8.854-8.923,22.341-13.163,22.341-13.163L861.477,0l21.145,2.993l364.342,189.189
	c0,0,12.504,7.393,13.684,14.463c1.182,7.071,39.791,238.706,39.791,238.706s1.438,11.052-6.062,18.916
	c-7.5,7.869-282.537,296.37-282.537,296.37s-10.602,10.814-21.455,12.623c-10.854,1.812-551.396,91.914-551.396,91.914
	s-11.69,1.611-20.954-3.199C408.763,857.166,53.8,672.846,53.8,672.846s-12.559-5.77-14.312-16.291
	C37.735,646.034,0.026,419.822,0.026,419.822S-0.838,407.799,7.324,399.227z"/>
</svg>
