<?xml version="1.0" encoding="utf-8"?>
<!-- Generator: Adobe Illustrator 16.0.0, SVG Export Plug-In . SVG Version: 6.00 Build 0)  -->
<!DOCTYPE svg PUBLIC "-//W3C//DTD SVG 1.1//EN" "http://www.w3.org/Graphics/SVG/1.1/DTD/svg11.dtd">
<svg version="1.1" id="Layer_1" xmlns="http://www.w3.org/2000/svg" xmlns:xlink="http://www.w3.org/1999/xlink" x="0px" y="0px"
	 width="1291.395px" height="982.731px" viewBox="0 0 1291.395 982.731" enable-background="new 0 0 1291.395 982.731"
	 xml:space="preserve">
<path d="M1289.921,921.647c-4.538-12.613-46.469-74.943-71.075-111.531c-28.66-42.611-73.589-110.572-86.322-127.285
	c-0.479-0.633-11.674-16.285-29.662-43.748c-19.031-29.076-34.899-54.371-41.201-65.865c-4.438-8.818-12.315-15.963-22.354-17.115
	l-8.688-0.99c-10.173-1.102-15.736-2.037-16.605-2.689l0,0l-3.731-2.842l-3.705-2.742c-45.271-40.104-77.94-69.853-97.073-89.491
	c-40.957-41.922-64.265-66.819-70.041-74.767c-13.519-18.696-15.3-34.225-8.597-39.729c4.021-3.324,13.535-3.361,28.58-0.015
	c16.086,3.541,40.565,14.552,73.479,32.969l6.375,3.631c1.409,0.736,3.565,0.745,6.593-0.158c0.844-1.01,1.45-2.068,1.922-3.294
	c0.104-0.189,0.354-2.623,0.764-7.468c0.439-3.905,0.92-8.874,1.572-14.99c2.235-21.852,2.828-34.326,1.842-37.484
	c-0.938-2.962-2.188-5.104-3.81-6.466c-0.282-0.244-4.817-1.888-13.594-4.833c-21.396-7.299-140.729-57.642-153.517-63.423
	c-43.894-19.845-87.577-40.42-128.272-66.296c-4.678-2.974-17-10.565-37.018-22.805c-14.158-8.58-77.215-48.881-189.188-120.843
	C394.21,10.604,377.886,0.18,377.822,0.144c-3.354-0.536-5.575,0.417-6.626,2.802c1.046,5.355,8.747,23.166,23.251,53.597
	c3.871,8.083,10.836,23.715,20.938,46.835c8.812,20.202,13.182,39.152,13.047,56.814c-0.062,7.542-0.311,12.396-0.74,14.723
	c-3.052,14.961-13.557,23.417-31.579,25.33c-7.371,0.788-12.293,0.668-50.104-6.614c-6.655-1.294-16.118-3.223-28.436-5.813
	c-27.108-5.632-43.828-7.956-50.051-7c-3.225,0.536-12.199,3.802-26.863,9.67c-15.783,6.378-31.881,11.413-48.07,15.056
	c-25.862,5.813-57.644,12.966-77.676,16.972c-19.788,3.963-42.565,8.603-73.92,26.984c-46.29,27.003-45.439,38.989-35.453,83.032
	c8.688,38.122,14.795,61.826,18.372,70.988c1.87,4.922,4.081,9.291,6.45,13.086c3.104,4.963,7.381,9.027,10.963,13.628
	c7.724,9.908,33.729,39.045,78.136,87.475c32.801,35.758,75.659,79.287,128.523,130.646c23.841,23.164,48.094,45.9,72.604,68.352
	c1.26,1.148,8.486,7.607,21.655,19.441c56.853,51.098,112.562,92.285,131.035,104.459l10.953,8.213
	c0.943,0.801,13.525,7.795,37.811,21.02c29.266,15.961,100.222,42.963,141.804,51.939c8.144,1.746,55.422,10.211,141.625,25.354
	c25.586,4.494,71.058,11.398,106.631,16.799c24.183,3.68,38.41,5.555,42.761,5.664l6.89,0.188
	c30.758,3.039,62.911,2.676,92.346,4.594c11.178,0.729,47.771,3.646,71.656,5.551c16.629,1.328,38.051,2.244,64.588,2.695
	c39.229,0.691,49.371-1.064,84.926-30.344c8.367-6.848,13.232-12.104,14.752-15.654
	C1291.875,931.999,1291.857,927.008,1289.921,921.647z"/>
</svg>
