<?xml version="1.0" encoding="utf-8"?>
<!-- Generator: Adobe Illustrator 16.0.0, SVG Export Plug-In . SVG Version: 6.00 Build 0)  -->
<!DOCTYPE svg PUBLIC "-//W3C//DTD SVG 1.1//EN" "http://www.w3.org/Graphics/SVG/1.1/DTD/svg11.dtd">
<svg version="1.1" id="Layer_1" xmlns="http://www.w3.org/2000/svg" xmlns:xlink="http://www.w3.org/1999/xlink" x="0px" y="0px"
	 width="1830.723px" height="1060.533px" viewBox="0 0 1830.723 1060.533" enable-background="new 0 0 1830.723 1060.533"
	 xml:space="preserve">
<path d="M831.468,629.663c19.649-30.371,76.385-105.523,142.514-171.002c66.132-65.483,148.89-107.728,233.185-149.964
	c84.295-42.235,462.947-220.733,536.195-247.187c73.253-26.445,57.432-31.399,25.768-35.213
	c-31.664-3.812-136.475-3.107-160.804-11.757c-13.745-4.888-19.323-9.346-21.577-12.297c-1.519-1.993-4.043-2.743-6.402-1.905
	C1516.111,23.26,841.85,263.846,794.19,279.856c-50.047,16.814-48.835,18.041-75.622,13.032
	c-26.778-5.004-337.372-38.218-366.591-43.236c-29.223-5.019-40.209-2.638-71.942,8.174
	c-31.733,10.814-236.707,59.77-248.906,62.148c-12.195,2.375-24.439,13.284-28.167,27.886c-3.725,14.606-9.825,15.799,24.252,24.495
	c34.083,8.697,335.896,90.614,405.176,128.73c69.275,38.115,99.753,34.613,88.398,113.771
	c-11.354,79.153-30.107,175.336-38.797,206.977c-8.685,31.641-12.475,58.432-13.746,69.395c-1.271,10.962-3.088,32.199,26.773,7.443
	c52.619-43.613,246.104-191.115,282.78-215.309C814.48,659.171,811.818,660.028,831.468,629.663z M1524.031,38.096
	c23.283-2.839,44.691,15.642,47.817,41.278c3.127,25.637-13.213,48.721-36.495,51.561c-23.282,2.839-44.689-15.642-47.816-41.279
	C1484.41,64.021,1500.75,40.936,1524.031,38.096z M835.396,350.737c10.13-17.604,12.039-14.034-9.607-10.843
	c-25.485,3.756-59.653,14.206-16.362-5.518c43.435-19.788,131.505-59.467,178.175-77.372c46.354-17.783,66.312,5.615,38.315,38.221
	c-27.615,32.163-96.582,90.929-145.551,131.378c-18.533,15.308-63.354,56.571-86.92,59.938
	c-13.558,1.936-10.034-14.234-10.034-14.234C780.58,449.096,818.521,380.062,835.396,350.737z M1830.101,273.048
	c-0.677-1.889-1.793-3.355-2.784-4.17c-0.703-0.665-1.343-1.04-1.77-1.266c-0.78-0.522-1.564-0.829-2.352-1.135
	c-1.57-0.613-3.288-1.013-5.225-1.419c-2.867-0.499-6.102-0.863-9.551-1.16c-3.523-0.227-7.192-0.384-10.863-0.471
	c-12.813-0.3-25.215,0.273-25.285,0.271l0,0l0,0l-9.083,0.363l0,0c-71.633,1.922-178.881,8.482-268.326,14.524
	c-89.373,5.971-160.876,11.569-160.876,11.569l0,0l-0.072-0.001l0,0l0,0c-39.908,3.458-58.858,10.071-59.294,10.205l0,0
	l-0.146,0.069l-67.724,28.66l-0.218,0.139l0,0c-4.669,2.483-7.9,5.145-9.912,8.05c-1.042,1.416-1.796,2.838-2.261,4.268
	c-0.464,1.357-0.641,2.722-0.669,3.945c-0.037,1.583,0.221,2.886,0.486,3.828c0.133,0.508,0.268,0.871,0.401,1.234
	c3.548,11.535,4.693,20.996,4.513,28.698c-0.275,11.805-3.625,19.504-6.765,24.4c-1.569,2.412-3.121,4.104-4.153,5.161
	c-0.588,0.49-1.027,0.84-1.252,1.123c-0.146,0.069-0.219,0.139-0.291,0.209c-3.437,2.153-6.64,3.59-9.686,4.527
	c-3.047,0.865-5.936,1.229-8.671,1.165c-5.542-0.13-10.757-1.981-15.513-4.901c-3.549-2.243-6.799-4.984-9.754-7.934
	c-4.36-4.424-7.85-9.259-10.213-12.916c-1.182-1.828-2.081-3.361-2.703-4.456c-0.273-0.583-0.482-0.948-0.618-1.239
	c-0.142-0.147-0.141-0.22-0.21-0.293l0,0l0.002-0.072l0,0l-0.139-0.291l-0.138-0.219l0,0c-1.392-2.122-3.079-3.817-4.999-4.943
	c-1.919-1.053-3.924-1.532-5.725-1.574c-1.294-0.031-2.523,0.157-3.61,0.419c-1.521,0.397-2.759,0.944-3.706,1.426
	c-0.511,0.276-0.878,0.556-1.171,0.765c-45.42,23.566-90.529,58.375-124.408,87.324c-32.262,27.549-54.316,49.788-56.53,52.042
	c-10.276,8.328-16.942,16.166-21.045,22.12c-3.573,5.029-5.243,8.663-5.702,9.806l0,0l-27.982,50.767l0,0
	c-0.89,1.132-1.563,2.196-2.164,3.263c-0.301,0.569-0.531,1.141-0.762,1.781c-0.159,0.646-0.32,1.362-0.34,2.152
	c-0.013,0.504,0.047,1.082,0.179,1.661c0.189,1.013,0.745,1.962,1.375,2.77c0.491,0.516,1.058,0.961,1.555,1.262
	c0.854,0.451,1.568,0.684,2.143,0.842c0.646,0.088,1.219,0.174,1.651,0.184c0.864-0.052,1.586-0.107,2.092-0.168
	c0.578-0.059,0.868-0.194,1.014-0.191l0,0l0.435-0.134l0.438-0.207l0,0c1.091-0.479,2.548-1.163,4.226-2.062
	c6.339-3.163,17.062-8.891,29.534-15.656c37.423-20.296,90.985-50.152,90.985-50.152l0,0l0.219-0.14l11.982-8.036l0.552,0.363
	l-412.98,306.312l0,0c-6.146,4.178-8.943,6.776-9.093,6.916l0,0l-0.293,0.282l-0.224,0.282l0,0c-0.964,1.202-1.716,2.48-2.251,3.837
	c-0.535,1.354-0.783,2.719-0.815,4.085c-0.034,1.44,0.222,2.813,0.625,4.049c0.742,2.179,1.998,3.862,3.265,5.189
	c1.896,2.061,4.022,3.479,5.729,4.455c1.137,0.676,2.062,1.13,2.561,1.355c4.332,2.623,7.717,5.729,10.38,8.886
	c4.134,4.923,6.534,10.021,7.955,13.942c0.676,1.89,1.067,3.554,1.331,4.64c0.131,0.58,0.265,1.016,0.26,1.231
	c0.068,0.146,0.064,0.291,0.064,0.291l0,0l-0.002,0.07l0,0l0.064,0.361l0.062,0.361l0,0c0.404,1.234,0.521,2.46,0.49,3.685
	c-0.053,2.231-0.683,4.522-1.813,6.728c-1.66,3.273-4.324,6.309-6.534,8.418c-1.104,1.054-2.135,1.894-2.866,2.452
	c-0.365,0.209-0.587,0.421-0.808,0.558l0,0l-0.146,0.143l0,0c-6.726,4.235-10.619,7.455-12.906,9.853
	c-1.182,1.268-1.926,2.258-2.45,3.111c-0.451,0.853-0.753,1.422-0.908,1.923l0,0l0,0l0,0l-0.001,0.072l-0.003,0.071l0,0l0,0l0,0
	c-0.546,1.788-0.877,3.58-0.916,5.309c-0.044,1.799,0.203,3.604,0.812,5.275c0.541,1.452,1.231,2.767,2.142,3.868
	c1.538,1.979,3.522,3.395,5.516,4.45c2.986,1.582,6.207,2.449,9.147,2.95c3.014,0.504,5.89,0.714,8.05,0.765
	c2.375,0.056,4.032-0.048,4.396-0.112l0,0l258.72-10.282l0,0l0,0c3.317-0.211,6.199-0.217,8.719-0.157
	c6.479,0.152,10.71,0.9,13.214,1.606c1.29,0.317,2.145,0.698,2.645,0.854c0.214,0.148,0.354,0.225,0.427,0.227l0,0l0,0l0,0l0,0l0,0
	l0,0c4.762,2.776,7.584,5.29,9.049,7.342c0.767,1.027,1.179,1.9,1.449,2.629c0.198,0.796,0.325,1.446,0.312,2.096
	c-0.024,1.007-0.335,2.008-0.862,3.004c-0.758,1.566-2.016,3.049-3.119,4.031c-0.589,0.562-1.102,0.91-1.396,1.191
	c-0.22,0.141-0.365,0.206-0.438,0.276l0,0l-0.073,0.071l0,0l-0.22,0.14l-0.222,0.209l0,0c-0.073,0.07-0.438,0.279-0.877,0.557
	c-0.805,0.558-2.119,1.319-3.723,2.146c-3.064,1.657-7.36,3.646-12.384,5.902c-17.613,7.942-44.735,18.975-67.489,28.02
	c-11.342,4.487-21.591,8.497-29.002,11.348c-3.707,1.426-6.688,2.58-8.724,3.396c-1.09,0.406-1.89,0.749-2.397,0.952
	c-0.363,0.136-0.581,0.203-0.728,0.271c-11.252,3.77-20.463,6.505-26.844,8.373c-3.191,0.934-5.729,1.665-7.396,2.13
	c-0.868,0.196-1.521,0.396-1.883,0.461c-0.219,0.066-0.435,0.134-0.507,0.133l0,0l-0.146,0.067l0,0l-0.288,0.065l-0.22,0.066l0,0
	c-3.125,1.223-5.321,2.756-6.655,4.382c-1.405,1.551-1.872,3.053-2.031,3.696l0,0l-0.646,2.938l2.261,1.927l0,0
	c1.48,1.33,3.119,2.089,4.835,2.706c2.571,0.853,5.511,1.426,8.671,1.787c3.161,0.361,6.541,0.585,9.995,0.666
	c7.271,0.171,14.84-0.156,20.539-0.526c5.626-0.372,9.45-0.714,9.739-0.778c3.824-0.271,8.594-0.951,14.162-1.975
	c9.909-1.784,22.361-4.589,35.473-7.736c38.388-9.256,82.826-21.755,85.293-22.416c35.194-8.25,84.173-20.715,137.798-34.867
	c160.951-42.465,364.239-99.854,364.239-99.854l0,0l0.072,0.002l0.072,0.002l0,0c11.391-3.551,18.867-9.137,23.37-13.855
	c3.839-4.016,5.647-7.43,6.255-8.712c0.6-0.994,1.274-2.131,1.951-3.41c1.057-2.063,2.188-4.271,3.096-6.05
	c0.606-1.281,1.062-2.278,1.289-2.707c21.328-34.285,49.608-76.329,80.023-120.27c45.766-65.978,96.309-135.947,135.443-189.478
	c19.496-26.694,36.231-49.35,47.984-65.277c5.949-7.999,10.633-14.299,13.829-18.545c1.562-2.196,2.827-3.823,3.646-4.956
	s1.263-1.699,1.263-1.699l0,0l0.148-0.141l0.077-0.214l0,0c4.113-6.53,6.572-13.098,8.152-19.11
	c1.512-6.015,1.998-11.477,2.104-15.938c0.125-5.327-0.363-9.083-0.55-10.312c0.011-0.432-0.051-0.938-0.04-1.369
	c0.068-2.951,0.72-6.105,1.726-9.106c1.473-4.503,3.662-8.772,5.463-11.828c0.971-1.49,1.793-2.767,2.315-3.547
	c0.298-0.424,0.521-0.78,0.672-0.992c0.074-0.07,0.146-0.141,0.22-0.21l0,0l0.002-0.072l0,0l0.074-0.07l0.146-0.141l0,0
	c14.775-21.98,23.852-40.42,24.38-41.488l0,0l28.691-56.511l0,0l0,0c1.663-3.346,2.452-6.28,2.515-8.943
	C1830.757,275.8,1830.502,274.354,1830.101,273.048L1830.101,273.048"/>
</svg>
