<?xml version="1.0" encoding="utf-8"?>
<!-- Generator: Adobe Illustrator 16.0.0, SVG Export Plug-In . SVG Version: 6.00 Build 0)  -->
<!DOCTYPE svg PUBLIC "-//W3C//DTD SVG 1.1//EN" "http://www.w3.org/Graphics/SVG/1.1/DTD/svg11.dtd">
<svg version="1.1" id="Layer_1" xmlns="http://www.w3.org/2000/svg" xmlns:xlink="http://www.w3.org/1999/xlink" x="0px" y="0px"
	 width="1462.23px" height="582.932px" viewBox="0 0 1462.23 582.932" enable-background="new 0 0 1462.23 582.932"
	 xml:space="preserve">
<path fill="none" stroke="#000000" stroke-linejoin="round" stroke-miterlimit="10" d="M1377.611,72.844l-249.875-11.008
	c-43.539,0.031-75.511-20.578-95.894-61.836C935.78,13.242,815.718,44.914,671.655,95.001
	c-144.047,50.088-302.165,129.102-474.36,237.031c-8.857,16.75-17.844,32.711-26.891,47.938
	C118.36,467.422,63.205,529.633,4.893,566.555c-8.251,5.375-5.618,16.75,4.539,16.367l570.539-18.43
	c130.625-57.664,255.25-119.18,373.904-184.523C1108.175,295,1252.36,203.54,1386.425,105.579
	C1406.589,91.415,1410.705,76.406,1377.611,72.844z M330.907,418.461c-21.249,7.086-44.233-4.373-51.336-25.625
	c-1.421-4.267-2.101-8.594-2.101-12.867c-0.01-16.977,10.732-32.805,27.719-38.483c21.25-7.086,44.242,4.375,51.344,25.625
	c1.422,4.27,2.086,8.598,2.086,12.858C358.619,396.931,347.892,412.774,330.907,418.461z"/>
</svg>
