<?xml version="1.0" encoding="utf-8"?>
<!-- Generator: Adobe Illustrator 21.0.2, SVG Export Plug-In . SVG Version: 6.00 Build 0)  -->
<svg version="1.1" id="Layer_1" xmlns="http://www.w3.org/2000/svg" xmlns:xlink="http://www.w3.org/1999/xlink" x="0px" y="0px"
	 width="1301.396px" height="423.861px" viewBox="0 0 1301.396 423.861" enable-background="new 0 0 1301.396 423.861"
	 xml:space="preserve">
<path fill="none" stroke="#020203" stroke-linejoin="round" stroke-miterlimit="10" d="M46.044,58.599
	c-4.418,2.4-9.481,3.763-14.863,3.763C13.96,62.362,0,48.402,0,31.181S13.96,0,31.181,0h13.483l198.793,43.214l115.901,1.178
	l83.334,124.5c24.085,29.562,49.734,42.218,91.514,42.243l187.514-10.542l4.242-0.232l4.207-0.281l4.182-0.328l4.15-0.373
	l4.127-0.418l4.103-0.463l4.073-0.51l4.054-0.549l4.022-0.594l4.002-0.637l3.979-0.676l3.957-0.715l3.932-0.756l3.908-0.795
	l3.889-0.832l3.865-0.871l3.842-0.908l3.824-0.945l3.801-0.982l3.781-1.016l3.762-1.051l3.74-1.084l3.723-1.119l3.705-1.15
	l3.688-1.182l3.666-1.215l3.647-1.246l3.635-1.273l3.613-1.305l3.603-1.334l3.584-1.361l3.536-1.375l271.84-123.528l1.061-0.602
	l1.146-0.576l1.146-0.508l1.146-0.436l1.146-0.365l1.146-0.293l1.146-0.225l1.144-0.152l1.139-0.086l1.135-0.014l1.133,0.053
	l1.125,0.121l1.115,0.188l1.113,0.254l1.104,0.316l1.099,0.381l1.09,0.441l1.078,0.502l1.067,0.562l1.064,0.621l1.057,0.674
	l1.049,0.732l1.041,0.787l1.031,0.84l1.027,0.893l1.021,0.945l1.017,0.996l1.012,1.049l1.002,1.096l0.998,1.146l0.996,1.195
	l0.979,1.232l137.192,174.111l0.348,0.449l0.339,0.44l0.334,0.439l0.329,0.438l0.326,0.438l0.324,0.438l0.32,0.438l0.317,0.438
	l0.314,0.435l0.313,0.432l0.312,0.433l0.311,0.432l0.312,0.43l0.311,0.428l0.31,0.429l0.309,0.426l0.307,0.424l0.306,0.427
	l0.305,0.424l0.308,0.426l0.307,0.422l0.59,0.818l0.326,0.447l0.305,0.426l0.312,0.422l0.307,0.424l0.312,0.422l0.312,0.428
	l0.312,0.424l0.313,0.426l0.33,0.441l0.476,0.658l0.422,0.664l0.358,0.656l0.304,0.646l0.237,0.646l0.183,0.637l0.114,0.633
	l0.054,0.627l-0.015,0.611l-0.073,0.604l-0.14,0.58l-0.19,0.561l-0.242,0.533l-0.287,0.511l-0.326,0.481l-0.361,0.463l-0.395,0.439
	l-0.42,0.428l-0.445,0.412l-0.471,0.398l-0.492,0.391l-0.51,0.387l-0.529,0.377l-0.545,0.377l-0.562,0.373l-0.571,0.373
	l-0.586,0.375l-0.599,0.377l-0.604,0.379l-0.609,0.387l-0.613,0.393l-0.701,0.45l-49.487,23.181l-23.394,7.354l-78.246,16.901
	L500.652,423.861l-55.93-1.84c0,0-344.392-363.299-344.391-363.298c-14.54-9.863-32.681-9.881-54.423-0.052L46.044,58.599z"/>
</svg>
