<?xml version="1.0" encoding="utf-8"?>
<!-- Generator: Adobe Illustrator 21.0.2, SVG Export Plug-In . SVG Version: 6.00 Build 0)  -->
<svg version="1.1" id="Layer_1" xmlns="http://www.w3.org/2000/svg" xmlns:xlink="http://www.w3.org/1999/xlink" x="0px" y="0px"
	 width="1341.585px" height="426.829px" viewBox="0 0 1341.585 426.829" enable-background="new 0 0 1341.585 426.829"
	 xml:space="preserve">
<path fill="none" stroke="#000000" stroke-linejoin="round" stroke-miterlimit="10" d="M1198.656,280.225l-681.48,131.543
	c0,0-67.68,23.185-86.832,12.023c-19.224-11.23-49.464-37.439-49.464-37.439L0,0c0,0,162.432,11.376,213.768,52.848
	c51.408,41.4,104.976,135.288,117.792,146.52c12.744,11.232,43.848,15.263,43.848,15.263l365.328-25.774L1111.39,29.736
	l111.64,134.151c29.515,25.608,58.574,35.022,87.374,35.215c17.22,0,31.18,13.96,31.18,31.18s-13.96,31.18-31.18,31.18
	C1292.469,261.043,1243.304,271.415,1198.656,280.225z"/>
</svg>
