<?xml version="1.0" encoding="utf-8"?>
<!-- Generator: Adobe Illustrator 16.0.0, SVG Export Plug-In . SVG Version: 6.00 Build 0)  -->
<!DOCTYPE svg PUBLIC "-//W3C//DTD SVG 1.1//EN" "http://www.w3.org/Graphics/SVG/1.1/DTD/svg11.dtd">
<svg version="1.1" id="Layer_1" xmlns="http://www.w3.org/2000/svg" xmlns:xlink="http://www.w3.org/1999/xlink" x="0px" y="0px"
	 width="1341.516px" height="426.83px" viewBox="0 0 1341.516 426.83" enable-background="new 0 0 1341.516 426.83"
	 xml:space="preserve">
<path fill="none" stroke="#000000" stroke-linejoin="round" stroke-miterlimit="10" d="M1127.743,52.848
	c-51.406,41.4-104.977,135.288-117.721,146.52c-12.812,11.304-43.918,15.335-43.918,15.335L600.85,188.928L230.194,29.808
	l-167.832,201.6l80.496,48.887l681.479,131.474c0,0,67.68,23.188,86.902,12.022c19.15-11.16,49.463-37.367,49.463-37.367L1341.515,0
	C1341.515,0,1179.154,11.448,1127.743,52.848z M255.466,251.929c-23.04,2.446-43.703-14.328-46.151-37.369
	c-2.447-23.04,14.328-43.704,37.368-46.149c23.111-2.448,43.775,14.328,46.151,37.368
	C295.282,228.815,278.578,249.479,255.466,251.929z M799.57,396.358c-23.041,2.377-43.705-14.327-46.15-37.366
	c-2.445-23.113,14.326-43.777,37.365-46.226c23.041-2.375,43.705,14.326,46.152,37.365v0.074
	C839.388,373.248,822.611,393.912,799.57,396.358z"/>
</svg>
