<?xml version="1.0" encoding="utf-8"?>
<!-- Generator: Adobe Illustrator 21.0.2, SVG Export Plug-In . SVG Version: 6.00 Build 0)  -->
<svg version="1.1" id="Layer_1" xmlns="http://www.w3.org/2000/svg" xmlns:xlink="http://www.w3.org/1999/xlink" x="0px" y="0px"
	 width="1626.66px" height="462.25px" viewBox="0 0 1626.66 462.25" enable-background="new 0 0 1626.66 462.25"
	 xml:space="preserve">
<path fill="none" stroke="#000000" stroke-linejoin="round" stroke-miterlimit="10" d="M955.763,383.473L955.763,383.473
	c5.904,5.4,16.488,4.465,16.488,4.461l0,0l0.217,0.146l-89.713,19.872l0,0L656.099,458.35l0,0c0,0-21.743,6.479-37.08,2.735
	c-15.407-3.672-48.456-24.336-48.456-24.336l0,0L102.272,125.147l-0.001-0.001c-25.049-12.717-50.559-23.921-77.336-30.958
	l-0.001,0.001C10.707,91.296,0,78.715,0,63.634c0-17.221,13.96-31.181,31.181-31.181c5.138,0,9.985,1.243,14.258,3.444L45.428,35.9
	c31.071,11.97,60.443,19.36,88.115,22.169c0,0,677.069,41.65,677.069,41.65l9,2.16l95.547,13.68l0,0l244.078,35.784L1295.1,80.568
	l85.681-43.344l0,0L1453.067,0l0,0c0,0,154.514,169.704,164.089,182.736c8.425,11.52,19.226,23.544-7.198,45.36l-92.088,39.964
	c-20.736,4.896-36.146,6.912-36.146,6.912l0,0L972.468,388.08L955.763,383.473z"/>
</svg>
