<?xml version="1.0" encoding="utf-8"?>
<!-- Generator: Adobe Illustrator 21.0.2, SVG Export Plug-In . SVG Version: 6.00 Build 0)  -->
<svg version="1.1" id="Layer_1" xmlns="http://www.w3.org/2000/svg" xmlns:xlink="http://www.w3.org/1999/xlink" x="0px" y="0px"
	 width="773.281px" height="529.986px" viewBox="0 0 773.281 529.986" enable-background="new 0 0 773.281 529.986"
	 xml:space="preserve">
<path fill="none" stroke="#000000" stroke-linejoin="round" stroke-miterlimit="10" d="M95.756,433.66
	c-13.466-23.485-30.744-54.64-45.066-83.8C22.68,292.765,0,244.525,0,244.525l0,0l104.256-80.64
	c24.419-22.435,40.803-65.919,52.776-120.96c0,0,135.72-39.744,219.672-42.696c83.952-2.88,221.905,22.32,221.905,22.32
	c10.984,43.285,34.305,97.049,63.071,115.848l0,0l111.603,73.152l0,0c0,0-35.064,84.24-51.48,129.888
	c-16.416,45.576-47.305,106.704-47.305,106.704s-217.367,79.634-278.279,81.792c-40.099,1.374-147.757-24.307-216.787-42.056
	c-19.271-4.297-37.696,4.825-55.274,27.366l0.002,0.001c-5.67,7.774-14.849,12.825-25.208,12.825
	c-17.221,0-31.181-13.96-31.181-31.181c0-11.199,5.904-21.02,14.77-26.518l0.002,0.003c10.793-8.721,16.48-20.254,13.209-36.719
	L95.756,433.66z"/>
</svg>
