<?xml version="1.0" encoding="utf-8"?>
<!-- Generator: Adobe Illustrator 21.0.2, SVG Export Plug-In . SVG Version: 6.00 Build 0)  -->
<svg version="1.1" id="Layer_1" xmlns="http://www.w3.org/2000/svg" xmlns:xlink="http://www.w3.org/1999/xlink" x="0px" y="0px"
	 width="1218.57px" height="783.7px" viewBox="0 0 1218.57 783.7" enable-background="new 0 0 1218.57 783.7" xml:space="preserve">
<path fill="none" stroke="#000000" stroke-linejoin="round" stroke-miterlimit="10" d="M1187.388,445.1
	c17.221,0,31.182,13.961,31.182,31.182s-13.961,31.182-31.182,31.182c-34.485,1.44-61.309,7.697-80.472,18.771
	c-120.15,102.268-246.35,181.449-378.228,237.679c-56.541,24.135-59.699,25.412-113.888,8.076
	c-122.929-39.333-231.086-78.407-324.503-117.645c-34.966-14.684-55.805-26.795-62.619-36.352l-38.958-54.635
	c-13.083-18.349-27.662-41.646-43.6-70.076c-45.61-80.58-79.204-145.675-101.124-195.393C13.97,229.985-0.678,189.848,0.026,177.939
	c0.363-4.328,5.42-15.095,15.645-32.998l4.468-7.873c12.841-22.421,20.434-35.706,22.848-39.638
	c2.859-5.045,4.459-7.513,4.602-8.057c7.804-13.61,12.614-21.374,14.457-23.13c4.975-4.432,15.982-5.737,32.771-4.267
	c129.555,12.409,215.611,4.988,219.312,3.233c6.85-3.292,10.164-13.526,9.625-30.651l-0.05-9.868
	c-0.206-4.629,1.069-7.925,3.808-10.409c2.696-2.542,15.085-6.248,37.397-11.545c17.47-4.146,20.155-3.85,35.209,2.749
	c5.79,2.416,14.3,5.544,25.713,8.901c115.467,35.189,339.013,71.394,384.415,76.78c24.546,2.924,39.233,6.158,44.176,9.619
	c3.271,2.354,22.549,25.923,58.105,70.697c3.21,4.255,14.766,18.476,34.413,42.932c68.453,84.715,115.061,141.15,140.072,169.653
	c8.313,9.439,15.788,17.942,22.422,25.511C1133.865,430.124,1159.679,442.923,1187.388,445.1z"/>
</svg>
