<?xml version="1.0" encoding="utf-8"?>
<!-- Generator: Adobe Illustrator 21.0.2, SVG Export Plug-In . SVG Version: 6.00 Build 0)  -->
<svg version="1.1" id="Layer_1" xmlns="http://www.w3.org/2000/svg" xmlns:xlink="http://www.w3.org/1999/xlink" x="0px" y="0px"
	 width="855.92px" height="663.477px" viewBox="0 0 855.92 663.477" enable-background="new 0 0 855.92 663.477"
	 xml:space="preserve">
<path fill="none" stroke="#000000" stroke-linejoin="round" stroke-miterlimit="10" d="M827.127,118.506
	c-21.208,3.086-32.559,13.47-34.054,31.153c-4.089,96.379-15.775,292.263-24.517,360.069c-3.888,29.519-12.239,52.2-25.416,68.112
	c-9.575,11.519-36.648,31.176-81.504,58.823l0,0l-7.632,4.752l-7.56,5.113l0,0c-27.072,18.285-36.216,19.584-78.48,14.108
	c-23.977-3.168-88.416-5.184-193.104-6.048c-21.384-0.216-36.432,0.147-45.36,1.296c-0.578,0-3.888,0.146-9.938,0.146
	c-54.36,1.44-86.904,3.312-97.704,5.471l0,0l-9.504,1.873h-23.256l0,0c-9.504,0-18.504-2.232-26.712-6.625
	c-2.736-1.659-10.44-6.551-23.112-14.976c-4.032-2.952-19.368-12.815-46.08-30.024c-41.4-26.567-58.608-41.972-67.176-93.239
	c-6.048-36.072-14.112-156.312-24.336-361.224c-2.016-42.12-2.232-65.736-0.576-70.488c4.968-14.112,7.488-20.88,84.385-66.31
	c10.224-6.048,21.815-9.504,34.416-10.8C311.498-7.305,643.922,1.12,687.843,11.707c7.761,1.994,23.76,10.606,48.205,25.836
	l0.003,0.003c26.714,15.241,56.824,19.7,88.686,18.598c17.221,0,31.181,13.96,31.181,31.181c0,16.419-12.691,29.875-28.799,31.091
	L827.127,118.506z"/>
</svg>
