<?xml version="1.0" encoding="utf-8"?>
<!-- Generator: Adobe Illustrator 21.0.2, SVG Export Plug-In . SVG Version: 6.00 Build 0)  -->
<svg version="1.1" id="Layer_1" xmlns="http://www.w3.org/2000/svg" xmlns:xlink="http://www.w3.org/1999/xlink" x="0px" y="0px"
	 width="1252.938px" height="718.364px" viewBox="0 0 1252.938 718.364" enable-background="new 0 0 1252.938 718.364"
	 xml:space="preserve">
<path fill="none" stroke="#000000" stroke-linejoin="round" stroke-miterlimit="10" d="M37.464,260.758
	c46.5,4.426,109.527,1.039,169.964-9.665L1092.581,0c-17.549,17.865-24.461,46.897-3.914,57.865l74.131,51.062
	c-63.672,66.714-21.289,108.72,33.148,145.771c70.533,39.724,60.688,75.74,48.013,96.546L1095.73,581.348
	c-12.656,22.937-33.574,42.433-61.66,51.525l-245.922,80.672c-24.125,7.643-42.902,7.129-62.964-8.365
	C559.689,566.24,380.248,458.815,195.178,360.82l0.005,0.003c-58.924-21.781-116.01-39.68-164-38.358
	C13.961,322.465,0,308.504,0,291.283s13.961-31.182,31.182-31.182c2.153,0,4.254,0.218,6.284,0.634L37.464,260.758z"/>
</svg>
