<?xml version="1.0" encoding="utf-8"?>
<!-- Generator: Adobe Illustrator 21.0.2, SVG Export Plug-In . SVG Version: 6.00 Build 0)  -->
<svg version="1.1" id="Layer_1" xmlns="http://www.w3.org/2000/svg" xmlns:xlink="http://www.w3.org/1999/xlink" x="0px" y="0px"
	 width="1252.938px" height="718.364px" viewBox="0 0 1252.938 718.364" enable-background="new 0 0 1252.938 718.364"
	 xml:space="preserve">
<path fill="none" stroke="#000000" stroke-linejoin="round" stroke-miterlimit="10" d="M207.428,251.093L62.364,292.244
	c44.515,22.524,88.823,45.284,132.814,68.576 M428.609,463.944c-7.8,11.338-23.408,14.223-34.745,6.424
	c-11.337-7.801-14.223-23.408-6.423-34.746c7.801-11.336,23.408-14.221,34.744-6.422
	C433.524,436.999,436.409,452.608,428.609,463.944z M995.457,150.439c-4.502,11.92-21.264,47.66-55.42,58.453
	c-65.188,23.033-146.588,50.81-213.467,68.895c-15.902,3.723-36.556-2.151-15.619-29.874l49.299-61.991
	c10-9.301,21.218-16.18,39-20.818l167.58-34.817C992.476,124.024,1002.875,130.305,995.457,150.439z M1065.278,115.383
	c-8.652,12.579-25.97,15.78-38.55,7.126c-12.577-8.654-15.778-25.971-7.127-38.55c8.655-12.579,25.974-15.78,38.554-7.126
	C1070.73,85.487,1073.938,102.805,1065.278,115.383z"/>
</svg>
