<?xml version="1.0" encoding="utf-8"?>
<!-- Generator: Adobe Illustrator 21.0.2, SVG Export Plug-In . SVG Version: 6.00 Build 0)  -->
<svg version="1.1" id="Layer_1" xmlns="http://www.w3.org/2000/svg" xmlns:xlink="http://www.w3.org/1999/xlink" x="0px" y="0px"
	 width="922.539px" height="822.363px" viewBox="0 0 922.539 822.363" enable-background="new 0 0 922.539 822.363"
	 xml:space="preserve">
<path fill="none" stroke="#000000" stroke-linejoin="round" stroke-miterlimit="10" d="M57.341,14.218
	c16.606,21.933,38.012,34.599,63.661,39.074c0,0,783.885,32.703,783.885,32.703s18.372,1.331,17.632,19.314
	c-0.743,17.984-28.115,681.419-29.18,699.391c-1.067,17.973-19.172,17.662-19.172,17.662l-840.84-35.08
	c0,0-18.401-0.545-17.688-17.863c0.604-14.682,20.346-495.057,27.062-652.017c-0.165-14.59-12.09-36.571-34.489-65.135l-0.003,0
	C3.112,46.716,0,39.312,0,31.181C0,13.96,13.96,0,31.181,0c10.964,0,20.606,5.659,26.166,14.215L57.341,14.218z"/>
</svg>
