<?xml version="1.0" encoding="utf-8"?>
<!-- Generator: Adobe Illustrator 16.0.0, SVG Export Plug-In . SVG Version: 6.00 Build 0)  -->
<!DOCTYPE svg PUBLIC "-//W3C//DTD SVG 1.1//EN" "http://www.w3.org/Graphics/SVG/1.1/DTD/svg11.dtd">
<svg version="1.1" id="Layer_1" xmlns="http://www.w3.org/2000/svg" xmlns:xlink="http://www.w3.org/1999/xlink" x="0px" y="0px"
	 width="847.34px" height="403.701px" viewBox="0 0 847.34 403.701" enable-background="new 0 0 847.34 403.701"
	 xml:space="preserve">
<path d="M847.261,229.287l-0.177-1.056l-0.288-1.103l-0.407-1.147l-0.53-1.203l-0.663-1.26l-0.802-1.312l-0.938-1.371l-1.083-1.428
	l-1.23-1.486l-1.385-1.547l-1.51-1.574l-4.754-4.127l-4.872-4.066l-4.945-3.977l-5.021-3.883l-5.095-3.794l-5.166-3.707l-5.232-3.62
	l-5.305-3.538l-5.365-3.456l-5.436-3.377l-5.497-3.298l-5.562-3.224l-5.613-3.148l-5.68-3.077l-5.73-3.007l-5.788-2.939
	l-5.843-2.872l-5.896-2.81l-5.942-2.746l-5.994-2.687l-6.042-2.627l-6.089-2.572l-6.136-2.516l-6.178-2.465l-6.216-2.413
	l-12.553-4.683l-12.698-4.503l-12.833-4.339l-6.438-2.105c-6.822-1.932-13.664-3.793-20.522-5.595
	c-10.464-2.716-20.957-5.294-31.48-7.759c-11.229-2.606-22.487-5.09-33.771-7.476c-5.236-1.098-10.479-2.178-15.72-3.239
	l8.885-16.131c2.683,0.364,5.394,0.65,8.062,1.125c0.854,0.158,1.697,0.288,2.408,0.818l2.966,2.702l4.778-13.538
	c-24.976-3.388-49.949-6.777-74.919-10.165l1.055,3.757c0.152,1.145-0.389,2.389-0.854,3.399L490.52,93.806
	c-0.896,1.465-1.967,2.903-3.369,3.922c-0.175-1.001-0.243-2.017-0.271-3.028l-0.261-9.417c1.328,0.03,2.604-0.249,3.852-0.707
	c0.881-0.374,1.671-0.809,2.435-1.386c1.404-1.154,2.381-2.585,3.27-4.156l4.88-8.934c0.333-0.783,0.598-1.523,0.821-2.348
	l0.219-1.565l-0.105-1.561l-0.188-0.762l-0.285-0.732l-0.378-0.69l-0.459-0.636l-1.124-1.091c-0.581-0.41-1.129-0.769-1.778-1.058
	c-2.183-0.889-4.534-1.282-6.854-1.607c-22.525-3.056-45.056-6.113-67.575-9.169l1.058,3.757c0.151,1.145-0.39,2.389-0.854,3.399
	l-1.834,0.833l0.216-1.565l-0.105-1.562l-0.188-0.762l-0.287-0.732l-0.38-0.689l-0.458-0.634l-1.123-1.089
	c-0.578-0.406-1.123-0.763-1.771-1.053c-2.003-0.822-46.357-6.939-48.486-7.259l-33.141-4.496c-1.438-0.188-2.896-0.381-4.351-0.392
	c-1.743-0.034-3.381,0.166-5.062,0.628c-1.389,0.419-2.62,0.97-3.867,1.704c-1.646,1.057-2.929,2.232-4.138,3.764l-0.727,1.044
	l-6.074,10.946l-0.812,1.696c-0.021,0.057-0.043,0.113-0.063,0.169l-16.521-2.127c0.238-0.525,0.447-1.062,0.626-1.621
	c0.469-1.601,0.604-3.067,0.214-4.713l-0.381-0.99c-0.271-0.493-0.544-0.887-0.901-1.318c-0.981-0.981-1.977-1.527-3.279-1.961
	c-1.395-0.427-2.812-0.701-4.243-0.945c-4.627-0.744-9.292-1.226-13.925-1.924c0.053-0.094,0.434-0.905,0.62-0.955
	c0.396-0.07,0.803-0.04,1.205-0.006l16.301,2.206c1.332,0.16,2.843,0.224,4.09,0.809c0.307,0.167,0.567,0.382,0.833,0.612
	l3.103,3.033l4.636-14.1l-32.745-4.443c-2.149-0.291-4.268-0.536-6.437-0.411c-1.602,0.132-3.069,0.452-4.577,0.996
	c-1.342,0.524-2.521,1.172-3.688,1.999c-1.671,1.28-3.167,2.854-4.188,4.702l3.104-9.429L221.59,21.51
	c-1.15-0.15-2.307-0.29-3.461-0.361c-1.747-0.098-3.418,0.011-5.124,0.383c-2.12,0.52-3.94,1.355-5.729,2.615l-0.97,0.779
	c-0.955,0.868-1.746,1.76-2.504,2.802c-0.979,1.462-1.77,3.033-2.617,4.572c0.229-0.475,0.448-0.951,0.655-1.436
	c0.625-1.536,1.07-3.032,1.12-4.705l-0.097-1.113c-0.247-1.183-0.633-2.05-1.321-3.042l-0.732-0.848
	c-0.856-0.814-1.729-1.432-2.767-1.989c-1.49-0.744-2.974-1.189-4.606-1.473l-27.273-3.706c-3.861-0.496-7.857,0.059-11.418,1.626
	c-1.099,0.518-2.072,1.081-3.052,1.797c-1.539,1.235-2.749,2.584-3.908,4.174l-0.438-3.53l-0.105-1.562l-0.19-0.761L146.755,15
	l-0.379-0.69l-0.458-0.635l-1.123-1.091c-0.581-0.41-1.13-0.769-1.776-1.058c-2.186-0.889-4.535-1.283-6.855-1.607
	c-23.896-3.241-47.788-6.483-71.682-9.725C63.508,0.072,62.551,0.007,61.566,0c-1.62,0.024-3.154,0.212-4.733,0.593
	c-3.16,0.806-6.312,2.392-8.677,4.646c-1.435,1.432-2.523,3.115-3.527,4.865l-8.62,15.622c-1.479-0.146-2.966-0.295-4.447-0.442
	L28.658,26l-2.974,0.845l-2.821,0.917l-2.66,0.99L17.7,29.817l-2.343,1.136l-2.179,1.208l-2.017,1.281l-1.849,1.354L7.63,36.221
	L6.12,37.72l-1.348,1.572L3.594,40.94l-1.019,1.724L1.725,44.47L1.04,46.36l-0.518,1.981l-0.351,2.074l-0.174,2.173L0,54.861
	l0.182,2.377l0.361,2.481l0.554,2.589l0.74,2.696l0.938,2.803l1.136,2.912l1.335,3.021l1.535,3.128l1.743,3.238l1.95,3.347
	l2.162,3.458l2.323,3.495l8.916,9.972l9.332,9.967l9.688,9.896l10.037,9.825l10.385,9.757l10.728,9.687l11.065,9.619l11.403,9.551
	l11.736,9.484l12.064,9.418l12.392,9.353l12.714,9.289l13.033,9.224l13.349,9.159l13.656,9.099l13.968,9.03l14.271,8.976
	l14.572,8.914l14.869,8.854l15.158,8.791L273.751,287l15.737,8.676l16.022,8.617l16.298,8.562l16.577,8.506l16.851,8.451
	l17.114,8.396l17.384,8.34l17.646,8.289l17.898,8.234l18.154,8.188l18.424,8.141l5.039,2.314l4.989,2.209l4.957,2.104l4.929,1.998
	l4.895,1.896l4.854,1.781l4.823,1.668l4.787,1.555l4.751,1.438l4.715,1.313l4.678,1.191l4.637,1.063l4.602,0.938l4.56,0.812
	l4.52,0.682l4.478,0.543l4.438,0.402l4.389,0.269l4.35,0.125l4.304-0.021l4.259-0.168l4.212-0.312l4.167-0.469l4.119-0.623
	l4.07-0.777l4.023-0.938l3.979-1.103l3.929-1.263l3.884-1.432l3.831-1.599l3.784-1.769l11.064-5.729
	c7.289-3.806,14.56-7.646,21.812-11.522l14.472-7.881l14.416-8.046l14.357-8.215l14.297-8.387l14.237-8.562l14.175-8.743
	l14.111-8.933l14.048-9.115l13.979-9.312l13.913-9.514l13.843-9.715l13.772-9.922l13.697-10.135l13.687-10.393
	c2.054-1.295,4.084-2.605,6.097-3.97l2.633-1.89c1.16-0.896,2.278-1.812,3.388-2.778l0.965-0.918l0.877-0.916l0.788-0.911
	l0.689-0.908l0.604-0.91l0.507-0.912l0.411-0.916l0.314-0.92l0.225-0.938l0.129-0.95l0.03-0.979L847.261,229.287z M80.136,38.125
	c-0.98,1.603-2.071,2.98-3.604,4.091l-0.966,0.615l7.076-9.256L80.136,38.125z M94.832,11.441L82.711,33.455l-6.025,0.976
	c-2.438,0.372-4.863,0.342-7.311,0.087c-3.874-0.441-7.755-0.978-11.61-1.578c-0.387-0.064-0.818-0.115-1.188-0.256
	c0.097-0.407,0.27-0.776,0.449-1.147l8.918-16.177c0.664-1.204,1.393-3.006,2.993-3.075c0.804-0.016,1.618,0.1,2.408,0.205
	l9.669,1.312c1.471,0.203,2.964,0.415,4.399,0.8c0.606,0.175,1.122,0.465,1.622,0.856l3.104,3.038L94.74,4.671l0.947,3.373
	C95.839,9.187,95.298,10.431,94.832,11.441z M121.857,22.849c-0.181,0.29-0.361,0.564-0.569,0.837
	c-0.108,0.131-0.222,0.261-0.352,0.374c-0.533,0.155-1.153,0.101-1.697,0.044l-6.657-0.901l2.628-4.763l7.755,1.052
	c0.225,0.03,0.445,0.059,0.669,0.098C123.09,20.696,122.472,21.782,121.857,22.849z M179.169,28.344l-9.161,16.613
	c-0.438,0.78-0.896,1.578-1.502,2.243c-0.048,0.047-0.097,0.099-0.146,0.143c-0.812,0.397-1.792,0.346-2.659,0.256l-6.502-0.88
	c-0.365-0.051-0.736-0.103-1.093-0.203c0.163-0.374,0.35-0.736,0.537-1.095l9.163-16.617c0.419-0.749,0.854-1.501,1.415-2.153
	c0.084-0.089,0.162-0.175,0.256-0.252c0.527-0.403,1.464-0.362,2.083-0.307l7.061,0.954c0.362,0.051,0.729,0.102,1.088,0.201
	C179.541,27.618,179.357,27.981,179.169,28.344z M218.231,54.662c-0.74-0.031-1.484-0.14-2.22-0.235
	c-5.303-0.719-10.631-1.353-15.912-2.188c-1.482-0.244-3.059-0.457-4.434-1.088c-1.278-0.629-2.378-1.606-3.51-2.45l4.825-8.748
	c-0.561,1.094-0.913,2.229-1.174,3.425l-0.116,1.642l0.084,0.816l0.188,0.802l0.31,0.771l0.419,0.717l0.519,0.647l0.604,0.564
	l0.664,0.482l0.718,0.402c2.297,1.005,4.85,1.396,7.316,1.756l12.297,1.671C218.622,53.988,218.439,54.333,218.231,54.662z
	 M223.932,34.406c0.053-0.094,0.431-0.905,0.62-0.955c0.396-0.07,0.803-0.04,1.202-0.006c6.072,0.729,12.116,1.705,18.195,2.434
	c0.868,0.129,1.789,0.285,2.53,0.792c1.063,0.795,1.979,1.845,2.922,2.772l-2.522,4.576c0.041-0.68,0.008-1.288-0.097-1.959
	c-0.13-0.542-0.28-0.999-0.504-1.507c-0.271-0.492-0.544-0.887-0.9-1.317c-0.982-0.981-1.978-1.527-3.28-1.961
	c-1.393-0.426-2.812-0.701-4.241-0.944C233.229,35.586,228.562,35.104,223.932,34.406z M266.769,61.247
	c-0.742-0.032-1.485-0.14-2.221-0.235c-5.303-0.72-10.63-1.353-15.913-2.189c-1.677-0.275-3.42-0.505-4.92-1.345
	c-0.796-0.471-1.512-1.066-2.245-1.615l2.771-5.029l-0.015,0.771l0.085,0.816l0.19,0.802l0.31,0.771l0.419,0.717l0.519,0.647
	l0.601,0.564l0.666,0.482l0.717,0.402c2.296,1.005,4.849,1.396,7.314,1.756l12.301,1.671
	C267.16,60.574,266.977,60.919,266.769,61.247z M395.895,61.158c-0.46,0.817-0.938,1.679-1.574,2.375
	c-0.262,0.263-0.771,0.285-1.122,0.312c-0.533,0.021-1.043-0.011-1.57-0.069l-5.828-0.79l4.021-7.286l8.395,1.139
	C397.549,58.323,396.677,59.743,395.895,61.158z M449.573,59.574L434.88,86.258c-0.979,1.603-2.072,2.98-3.604,4.091l-1.748,1.102
	c-0.065-0.22-0.107-0.38-0.127-0.605c-0.009-1.079,0.448-2.137,0.896-3.096l14.706-26.7c0.968-1.597,2.057-3,3.589-4.095
	l1.768-1.072C450.697,57.086,450.067,58.504,449.573,59.574z M476.602,70.982c-0.182,0.29-0.362,0.564-0.569,0.837
	c-0.109,0.13-0.225,0.26-0.352,0.374c-0.536,0.154-1.155,0.1-1.697,0.044l-6.658-0.901l2.627-4.763l7.76,1.052
	c0.221,0.03,0.44,0.058,0.667,0.098C477.831,68.83,477.216,69.914,476.602,70.982z M530.97,90.858
	c-4.407-0.846-8.816-1.671-13.229-2.489l6.315-11.473c1.877-0.561,3.764-1.204,5.667-1.662c1.479-0.303,2.925-0.141,4.409,0.048
	l5.049,0.684L530.97,90.858z"/>
</svg>
