<?xml version="1.0" encoding="utf-8"?>
<!-- Generator: Adobe Illustrator 16.0.0, SVG Export Plug-In . SVG Version: 6.00 Build 0)  -->
<!DOCTYPE svg PUBLIC "-//W3C//DTD SVG 1.1//EN" "http://www.w3.org/Graphics/SVG/1.1/DTD/svg11.dtd">
<svg version="1.1" id="Layer_1" xmlns="http://www.w3.org/2000/svg" xmlns:xlink="http://www.w3.org/1999/xlink" x="0px" y="0px"
	 width="961.217px" height="5594.09px" viewBox="0 0 961.217 5594.09" enable-background="new 0 0 961.217 5594.09"
	 xml:space="preserve">
<path fill="none" stroke="#000000" stroke-linejoin="round" stroke-miterlimit="10" d="M60.178,43.477
	c0.054-0.646,0.186-1.297,0.398-1.947c1.104-3.371,1.784-6.789,1.784-10.349C62.362,13.96,48.402,0,31.181,0S0,13.96,0,31.181
	c0,17.221,13.96,31.181,31.181,31.181c3.019,0,6.035-0.434,8.929-1.296c3.001-0.895,5.951-3.139,9.197-1.89
	c2.75,1.058,4.823,3.875,4.823,6.869v3302.847h907.086V52.357c0,0-892.215,0-892.441,0c-2.383,0.005-4.803-0.978-6.421-2.736
	C60.747,47.874,59.993,45.712,60.178,43.477z"/>
</svg>
