<?xml version="1.0" encoding="utf-8"?>
<!-- Generator: Adobe Illustrator 16.0.0, SVG Export Plug-In . SVG Version: 6.00 Build 0)  -->
<!DOCTYPE svg PUBLIC "-//W3C//DTD SVG 1.1//EN" "http://www.w3.org/Graphics/SVG/1.1/DTD/svg11.dtd">
<svg version="1.1" id="Layer_1" xmlns="http://www.w3.org/2000/svg" xmlns:xlink="http://www.w3.org/1999/xlink" x="0px" y="0px"
	 width="1397.043px" height="175.863px" viewBox="0 0 1397.043 175.863" enable-background="new 0 0 1397.043 175.863"
	 xml:space="preserve">
<path fill="none" stroke="#000000" stroke-linejoin="round" stroke-miterlimit="10" d="M39.011,61.536
	c-2.608,0.139-5.215,0.826-7.83,0.826C13.96,62.362,0,48.402,0,31.181C0,13.96,13.96,0,31.181,0s31.181,13.96,31.181,31.182
	c0,2.538-0.371,5.138-0.94,7.653c-0.675,2.984-1.3,6.336,0.472,9.071c1.511,2.334,3.971,4.255,6.599,5.154
	c1.6,0.547,3.506,0.914,5.2,0.914h1320.518c1.56,0,2.834,1.275,2.836,2.835v116.218c0,1.562-1.274,2.837-2.835,2.837H53.421
	c-1.56,0-2.834-1.274-2.834-2.837c0,0,0-101.767,0-101.815c0-4.514-3.816-8.447-8.091-9.424
	C41.333,61.521,40.172,61.474,39.011,61.536z"/>
</svg>
