<?xml version="1.0" encoding="utf-8"?>
<!-- Generator: Adobe Illustrator 16.0.0, SVG Export Plug-In . SVG Version: 6.00 Build 0)  -->
<!DOCTYPE svg PUBLIC "-//W3C//DTD SVG 1.1//EN" "http://www.w3.org/Graphics/SVG/1.1/DTD/svg11.dtd">
<svg version="1.1" id="Layer_1" xmlns="http://www.w3.org/2000/svg" xmlns:xlink="http://www.w3.org/1999/xlink" x="0px" y="0px"
	 width="3738.859px" height="165.725px" viewBox="0 0 3738.859 165.725" enable-background="new 0 0 3738.859 165.725"
	 xml:space="preserve">
<path fill="none" stroke="#000000" stroke-linejoin="round" stroke-miterlimit="10" d="M36.828,62.154
	c2.738-0.05,5.426,0.198,7.9,1.718c3.39,2.081,6.403,5.521,7.826,9.245c0.843,2.206,1.266,4.782,1.266,7.145v85.464H3738.86V52.338
	H78.655c-9.041,0-16.355-8.582-16.354-19.188c0.041-0.65,0.061-1.308,0.061-1.969C62.362,13.96,48.402,0,31.181,0S0,13.96,0,31.181
	s13.96,31.181,31.181,31.181C33.053,62.362,34.953,62.188,36.828,62.154z"/>
</svg>
