<?xml version="1.0" encoding="utf-8"?>
<!-- Generator: Adobe Illustrator 16.0.0, SVG Export Plug-In . SVG Version: 6.00 Build 0)  -->
<!DOCTYPE svg PUBLIC "-//W3C//DTD SVG 1.1//EN" "http://www.w3.org/Graphics/SVG/1.1/DTD/svg11.dtd">
<svg version="1.1" id="Layer_1" xmlns="http://www.w3.org/2000/svg" xmlns:xlink="http://www.w3.org/1999/xlink" x="0px" y="0px"
	 width="3737.914px" height="223.438px" viewBox="0 0 3737.914 223.438" enable-background="new 0 0 3737.914 223.438"
	 xml:space="preserve">
<path fill="none" stroke="#000000" stroke-linejoin="round" stroke-miterlimit="10" d="M61.765,38.374
	c-0.113,1.955-0.012,3.892,0.726,5.773c1.207,3.084,3.928,6.396,6.931,7.852c1.718,0.833,3.997,1.358,5.911,1.358h3662.582v170.078
	H52.874c0,0,0-149.146,0-149.218c0-3.433-1.494-6.845-4.042-9.142c-2.129-1.918-4.774-3.382-7.653-3.725
	c-3.377-0.401-6.634,1.008-9.998,1.008C13.96,62.362,0,48.402,0,31.181S13.96,0,31.181,0s31.181,13.96,31.181,31.181
	C62.362,33.556,61.903,35.978,61.765,38.374z"/>
</svg>
