<?xml version="1.0" encoding="utf-8"?>
<!-- Generator: Adobe Illustrator 16.0.0, SVG Export Plug-In . SVG Version: 6.00 Build 0)  -->
<!DOCTYPE svg PUBLIC "-//W3C//DTD SVG 1.1//EN" "http://www.w3.org/Graphics/SVG/1.1/DTD/svg11.dtd">
<svg version="1.1" id="Layer_1" xmlns="http://www.w3.org/2000/svg" xmlns:xlink="http://www.w3.org/1999/xlink" x="0px" y="0px"
	 width="849.486px" height="1449.243px" viewBox="0 0 849.486 1449.243" enable-background="new 0 0 849.486 1449.243"
	 xml:space="preserve">
<g>
	<g>
		<path fill="none" stroke="#000000" stroke-linejoin="round" stroke-miterlimit="10" d="M845.619,122.347
			c10.252,29.937-2.697,55.027-6.461,63.22C822.67,221.4,738.068,314.88,670.637,613.311c-3.998,17.716-0.961,19.061-11.342,31.354
			c-36.33,43.01-61.289,85.19-81.266,117.678c-10.855,17.65-11.578,17.352-14.59,0.953c-6.453-35.139,10.33-464.354,226.619-755.079
			c12.305-16.539,12.166-4.001,13.625,2.582C808.43,32.347,838.156,100.516,845.619,122.347z"/>
		<path fill="none" stroke="#000000" stroke-linejoin="round" stroke-miterlimit="10" d="M59.462,8.194
			C275.691,298.964,292.389,728.18,285.93,763.321c-3.016,16.395-3.736,16.691-14.592-0.959
			c-19.979-32.492-44.927-74.677-81.249-117.694c-10.367-12.296-7.34-13.641-11.336-31.354
			C111.394,314.871,26.81,221.372,10.327,185.535c-3.771-8.194-16.707-33.284-6.461-63.22c7.479-21.83,37.213-89.993,41.971-111.54
			C47.298,4.192,47.159-8.349,59.462,8.194z"/>
	</g>
	<path fill="none" stroke="#000000" stroke-linejoin="round" stroke-miterlimit="10" d="M704.666,774.114
		c-7.596-23.191-31.146-92.998-34.18-113.959c-0.239-1.682-0.551-3.17-0.93-4.411c-0.15-0.498-0.32-0.959-0.49-1.377
		c-0.18-0.422-0.371-0.804-0.568-1.144c-0.213-0.33-0.432-0.63-0.66-0.871c-1.459-1.56-3.5-1.277-6.34,1.459
		c-0.148,0.142-0.289,0.289-0.439,0.44c-0.441,0.449-0.9,0.96-1.379,1.53c-10.646,12.637-19.396,22.902-27,32.133
		c-0.99,1.199-1.961,2.39-2.91,3.559c-0.631,0.78-1.26,1.552-1.881,2.32c-0.621,0.77-1.23,1.529-1.84,2.289
		c-10.273,12.887-18.506,24.346-27.09,38.645c-0.16,0.26-0.32,0.539-0.492,0.818c-1.5,2.539-3.32,5.779-5.514,9.49
		c-0.01,0.02-0.027,0.049-0.049,0.078c-13.018,22.008-38.865,60.42-85.678,66.809c-0.029,0-0.07,0.002-0.109,0.01
		c-0.488,0.08-0.992,0.143-1.488,0.199c-0.021,0-0.041,0-0.062,0.012c-0.43,0.059-0.869,0.141-1.32,0.229
		c-0.721,0.141-1.438,0.279-2.148,0.41c-0.021,0.01-0.039,0.01-0.051,0.01c-2.262,0.43-4.479,0.838-6.682,1.248
		c-27.938,5.031-51.182,7.588-70.621,8.342c-19.447-0.766-42.688-3.33-70.629-8.379c-2.199-0.41-4.43-0.82-6.688-1.252
		c-0.029-0.01-0.061-0.01-0.09-0.02c-0.699-0.131-1.4-0.26-2.102-0.4c-0.439-0.08-0.871-0.16-1.281-0.23
		c-0.039,0-0.076-0.01-0.107-0.01c-0.521-0.059-1.039-0.131-1.549-0.209c-0.021,0-0.029,0-0.039,0
		c-46.67-6.383-72.48-44.59-85.525-66.645c-2.258-3.828-4.137-7.182-5.678-9.779c-0.158-0.271-0.33-0.551-0.488-0.822
		c-5.049-8.41-9.977-15.841-15.265-23.162c-1.059-1.461-2.129-2.92-3.219-4.381c-0.539-0.729-1.09-1.461-1.65-2.201
		c-3.887-5.12-8.027-10.321-12.584-15.881c-1.631-1.991-3.311-4.021-5.049-6.123c-0.701-0.84-1.41-1.68-2.121-2.54
		c-0.719-0.858-1.449-1.729-2.178-2.608c-1.48-1.763-3-3.562-4.561-5.423c-1.568-1.852-3.178-3.762-4.84-5.729
		c-2.078-2.462-4.238-5.021-6.479-7.683c-0.898-1.061-1.811-2.142-2.738-3.24c-0.479-0.571-0.939-1.081-1.379-1.532
		c-0.15-0.147-0.289-0.298-0.441-0.438c-2.848-2.75-4.877-3.021-6.338-1.462c-0.229,0.238-0.451,0.539-0.662,0.87
		c-0.197,0.34-0.389,0.721-0.568,1.141c-0.168,0.421-0.342,0.879-0.488,1.38c-0.381,1.239-0.691,2.729-0.932,4.409
		c-3.049,20.96-26.635,90.753-34.238,113.941c-7.498,22.867-7.738,32.648-2.984,53.1c7.471,32.15,70.707,397.668,81.621,423.32
		c0.881,2.061,1.971,4.23,3.238,6.49c7.025,12.422,19.825,27.637,35.7,43.229c12.047,11.814,25.861,23.855,40.27,35.082
		c1.41,1.1,2.82,2.189,4.242,3.271c2.816,2.15,5.668,4.27,8.516,6.34c1.432,1.031,2.859,2.062,4.291,3.072
		c1.719,1.162,3.459,2.311,5.238,3.451c0.889,0.568,1.789,1.141,2.688,1.701c12.668,7.893,26.877,15.205,42.445,21.061
		c1.129,0.43,2.27,0.85,3.42,1.26c4.479,1.604,9.068,3.084,13.771,4.424c0.01,0,0.027,0.014,0.049,0.021
		c2.309,0.648,4.648,1.281,7.01,1.871c4.1,1.01,8.26,1.922,12.5,2.703c3.289,0.609,6.617,1.15,9.988,1.611
		c2.561,0.344,5.141,0.65,7.75,0.9h0.01c2.609-0.25,5.188-0.559,7.75-0.895c3.369-0.461,6.701-1,9.992-1.609
		c4.209-0.77,8.34-1.668,12.398-2.676c2.398-0.6,4.771-1.23,7.109-1.887c0.02-0.002,0.039-0.014,0.051-0.021
		c3.539-1.008,7.021-2.1,10.439-3.258c2.279-0.771,4.529-1.578,6.752-2.418c6.67-2.51,13.1-5.275,19.262-8.256
		c4.062-1.957,8.012-4.008,11.84-6.115c0.041-0.021,0.082-0.041,0.121-0.07c3.861-2.139,7.611-4.348,11.232-6.596
		c0.908-0.562,1.809-1.121,2.688-1.701c1.781-1.139,3.531-2.289,5.242-3.447c5.74-4.049,11.451-8.309,17.072-12.686
		c14.414-11.217,28.227-23.242,40.27-35.051c2.4-2.371,4.73-4.709,6.98-7.039c0.01,0,0.01,0,0.012-0.012
		c12.633-13.074,22.756-25.623,28.729-36.162c1.28-2.26,2.36-4.428,3.241-6.486c2.992-7.01,9.898-39.439,18.521-83.508
		c0.742-3.777,1.492-7.639,2.252-11.578c0.771-3.939,1.543-7.959,2.324-12.039c1.561-8.17,3.174-16.609,4.807-25.258
		c0.551-2.881,1.09-5.791,1.641-8.709c0.822-4.396,1.652-8.822,2.494-13.291c0.83-4.471,1.672-8.971,2.523-13.51
		c0.561-3.021,1.121-6.053,1.692-9.104c2.821-15.217,5.679-30.688,8.5-46.064c0.562-3.08,1.12-6.158,1.69-9.223
		c3.938-21.486,7.812-42.697,11.467-62.746c0.521-2.869,1.033-5.709,1.554-8.52c11.022-60.518,19.856-108.936,22.368-119.732
		C712.389,806.764,712.15,796.985,704.666,774.114z"/>
</g>
</svg>
