<?xml version="1.0" encoding="utf-8"?>
<!-- Generator: Adobe Illustrator 16.0.0, SVG Export Plug-In . SVG Version: 6.00 Build 0)  -->
<!DOCTYPE svg PUBLIC "-//W3C//DTD SVG 1.1//EN" "http://www.w3.org/Graphics/SVG/1.1/DTD/svg11.dtd">
<svg version="1.1" id="Layer_1" xmlns="http://www.w3.org/2000/svg" xmlns:xlink="http://www.w3.org/1999/xlink" x="0px" y="0px"
	 width="1518.52px" height="748.462px" viewBox="0 0 1518.52 748.462" enable-background="new 0 0 1518.52 748.462"
	 xml:space="preserve">
<path fill-rule="evenodd" clip-rule="evenodd" d="M140.8,579.328c5.462,15.146,16.193,42.547,32.549,82.146
	c5.174,12.566,8.271,19.273,9.22,20.137c5.154,4.172,10.584,1.289,16.385-8.516c0.626-1.057,29.157-59.432,85.715-174.854
	c37.955-77.479,84.727-171.184,139.928-280.758c5.338-10.387,18.33-36.076,39.412-77.066c14.941-29.301,22.89-45.455,23.751-48.593
	c1.778-6.796,1.817-13.957-0.036-21.093c-1.949-8.141-4.121-11.938-6.239-11.51l-10.697,1.941
	c-50.085,9.134-89.516,16.044-118.263,20.503c-89.936,13.951-179.29,31.471-269.329,44.76c-2.861,0.422-5.766,0.729-8.606,1.272
	c-4.157,0.795-10.118,4.076-10.917,8.327c-1.091,5.807,0.322,13.379,1.065,19.197c0.229,1.727,0.458,3.454,0.687,5.181
	c0.153,1.156,0.471,2.404,0.478,3.57c0.024,4.354-4.47,7.887-7.301,10.721c-1.971,1.973-3.981,3.905-5.957,5.873
	c-2.193,2.185-4.199,4.068-7.163,5.126c-2.612,0.933-5.371,1.327-8.052,2.001c-4.115,1.034-8.239,2.033-12.364,3.024
	c-14.602,3.473-22.211,5.553-22.803,6.381c-0.861,0.949-1.512,1.861-1.913,2.949c-1.358,3.223,8.747,30.803,18.002,51.588
	c6.896,15.854,13.644,28.666,20.249,38.875c7.959,12.301,13.182,26.049,18.344,39.703C87.94,412.197,111.074,496.898,140.8,579.328"
	/>
</svg>
