<?xml version="1.0" encoding="utf-8"?>
<!-- Generator: Adobe Illustrator 16.0.0, SVG Export Plug-In . SVG Version: 6.00 Build 0)  -->
<!DOCTYPE svg PUBLIC "-//W3C//DTD SVG 1.1//EN" "http://www.w3.org/Graphics/SVG/1.1/DTD/svg11.dtd">
<svg version="1.1" id="Layer_1" xmlns="http://www.w3.org/2000/svg" xmlns:xlink="http://www.w3.org/1999/xlink" x="0px" y="0px"
	 width="1518.469px" height="748.347px" viewBox="0 0 1518.469 748.347" enable-background="new 0 0 1518.469 748.347"
	 xml:space="preserve">
<path d="M372.99,404.793c-98.506,178.258-151.867,274.838-151.867,274.838s-0.295,32.801,82.834,36.965
	c20.105,1.008,49.967,2.293,84.719,5.266c16.588,1.42,14.066-12.969,14.066-12.969l1.254-30.783c0,0,5.402-37.691,44.266-40.268
	c38.863-2.578,43.564,30.33,43.564,30.33s1.385,29.035,0.002,47.01c-1.381,17.975,17.461,15.295,17.461,15.295
	c116.564,8.594,233.225,17.773,233.225,17.773s67.303,3.699,158.893-65.639c91.586-69.34,436.002-324.963,436.002-324.963
	s45.479-45.304,68.191-83.772s99.629-188.728,99.629-188.728s44.289-65.783-29.748-67.95
	c-74.037-2.163-634.812,15.026-634.812,15.026s-45.281,3.021-79.943,39.139c-17.33,18.059-92.416,94.274-209.121,206.716
	c0,0-47.025,52.712-75.23,66.817c-28.203,14.104-64.576,31.333-64.576,31.333S382.697,387.223,372.99,404.793z"/>
</svg>
