<?xml version="1.0" encoding="utf-8"?>
<!-- Generator: Adobe Illustrator 16.0.0, SVG Export Plug-In . SVG Version: 6.00 Build 0)  -->
<!DOCTYPE svg PUBLIC "-//W3C//DTD SVG 1.1//EN" "http://www.w3.org/Graphics/SVG/1.1/DTD/svg11.dtd">
<svg version="1.1" id="Layer_1" xmlns="http://www.w3.org/2000/svg" xmlns:xlink="http://www.w3.org/1999/xlink" x="0px" y="0px"
	 width="1539.5px" height="828.964px" viewBox="0 0 1539.5 828.964" enable-background="new 0 0 1539.5 828.964"
	 xml:space="preserve">
<path fill="none" stroke="#000000" stroke-linejoin="round" stroke-miterlimit="10" d="M1367.52,684.126
	c-0.359-3.744-1.297-7.199-2.664-10.584c-0.217-0.504-4.248-6.768-11.881-18.504c-1.15-1.656-3.096-4.68-5.975-9.215
	c-37.803-60.555-100.873-159.48-114.193-181.297c-0.504-1.08-17.352-28.367-26.566-42.266
	c-6.912-10.584-14.615-22.752-23.111-36.647c-12.816-20.809-28.729-45.36-47.594-73.225c-15.84-23.472-37.654-57.096-65.52-101.088
	c-4.033-6.336-10.008-15.552-18.072-27.432c-9.145-13.465-22.969-34.92-41.545-64.297l-5.832-9.287
	c-3.812-6.049-8.928-10.297-15.264-12.744c-4.393-1.801-11.447-2.88-21.312-3.385l-10.801-0.575l-10.729-1.152
	c-21.602-2.376-50.4-4.464-86.473-6.264c-39.961-1.872-82.943-4.681-129.168-8.136c-60.768-4.608-156.672-11.809-181.799-18.217
	c-25.416-6.552-50.904-12.744-76.536-18.576c-18.071-4.176-36.646-6.336-54.646-11.304c-1.44-0.432-12.312-3.023-32.761-7.776
	c-27.359-6.479-45.575-10.871-54.434-13.176l-10.8-2.951l-10.872-2.592l-10.942-2.809c-2.376-0.576-5.978-0.792-10.943-0.504
	c-1.584,5.111-2.592,8.928-3.168,11.592l-2.231,11.736c-2.446,12.24-11.377,30.672-15.911,36.576
	c-8.209,10.655-19.655,19.296-34.416,25.992c-1.872,0.863-15.266,5.976-40.248,15.407c-6.05,2.232-9.434,3.601-10.151,3.816
	l-10.512,3.168c-3.456,1.08-6.841,2.304-10.152,3.743l-9.72,4.32l-10.297,3.024l-10.151,3.744c-7.775,2.88-14.4,5.256-20.232,7.2
	l-10.079,3.455c-6.982,2.232-12.814,6.336-17.712,12.168l-7.057,8.425c-7.977,9.532-14.18,16.364-26.135,20.519
	c-13.752,4.752-30.889,10.656-37.226,21.96l-4.536,6.48c-0.862,1.512-1.654,2.951-2.446,4.535
	c-4.032,8.353-5.475,18.937-4.32,31.824c0.576,5.545,1.008,9.072,1.368,10.729c0.938,3.6,4.104,9.936,9.144,18.936
	c6.555,11.448,11.811,20.952,15.771,28.44c5.544,10.368,12.888,22.752,21.96,37.151l5.76,9.145
	c13.608,21.312,31.752,49.68,42.12,63.144c2.088,2.736,4.248,5.688,6.479,8.786c19.729,27.721,29.159,39.889,41.258,50.4
	c15.694,13.895,38.88,31.537,69.336,53.281c47.447,33.621,95.039,67.314,143.565,99.572c51.408,34.127,57.744,38.307,110.81,70.348
	c53.425,32.256,108.071,62.564,163.079,92.156c21.602,11.596,43.562,22.535,65.665,33.191c14.904,7.127,28.729,11.447,41.473,12.959
	c16.416,1.873,37.872,0.865,64.367-3.238c70.198-10.941,116.138-18.938,137.882-23.9c24.551-5.545,49.391-9.436,74.088-14.256
	c27.576-5.26,39.887-8.568,40.605-8.645c85.395-17.352,241.775-48.168,266.256-56.664c2.018-0.721,6.912-1.801,10.439-2.592
	l10.873-2.592c7.127-1.584,13.176-5.473,18.358-11.664C1367.159,697.232,1368.672,694.568,1367.52,684.126z M1023.739,313.313
	c-68.473-56.231-135.646-113.832-200.592-173.952c-8.424-7.848-13.465-13.032-15.121-15.625c-1.361-2.13-4.043-5.941-3.945-8.549
	c0.141-3.71,5.094-6.15,8.121-7.362c2.521-1.008,38.811-0.72,53.932,0.36c7.773,0.504,22.176,1.729,43.127,3.672
	c19.15,1.8,33.479,2.952,43.129,3.384l10.727,0.648c8.496,0.36,16.059,3.239,22.609,8.424c3.311,2.735,5.832,5.328,7.416,7.848
	l5.902,9.072c3.602,5.616,20.09,29.448,49.393,71.424c0.217,0.36,8.137,12.384,23.688,36.288
	c12.673,19.439,35.354,51.984,67.97,97.704c3.385,4.824,9.646,13.752,18.721,26.64c7.416,10.801,10.799,17.064,9.937,18.721
	c-0.146,0.216-0.288,0.432-0.358,0.647c-23.689,0.792-48.457-7.128-74.232-23.688
	C1085.442,363.354,1062.041,344.85,1023.739,313.313z M1245.842,649.873c-1.152,24.768-20.811,46.223-43.992,48.096
	c-23.111,1.943-40.896-16.633-39.816-41.328c1.152-24.768,20.811-46.297,43.992-48.236
	C1229.137,606.599,1246.993,625.105,1245.842,649.873z"/>
</svg>
