<?xml version="1.0" encoding="utf-8"?>
<!-- Generator: Adobe Illustrator 16.0.0, SVG Export Plug-In . SVG Version: 6.00 Build 0)  -->
<!DOCTYPE svg PUBLIC "-//W3C//DTD SVG 1.1//EN" "http://www.w3.org/Graphics/SVG/1.1/DTD/svg11.dtd">
<svg version="1.1" id="Layer_1" xmlns="http://www.w3.org/2000/svg" xmlns:xlink="http://www.w3.org/1999/xlink" x="0px" y="0px"
	 width="1539.496px" height="828.964px" viewBox="0 0 1539.496 828.964" enable-background="new 0 0 1539.496 828.964"
	 xml:space="preserve">
<path d="M1269.289,713.281c0.49-0.015,1.24-0.086,2.283-0.307c29.055-6.164,37.609-8.623,39.389-9.175l2.744-1.417l2.223,0.375
	c9.238-0.439,20.211-4.068,21.697-7.188c0.322-0.678,0.227-4.981-6.148-13.639c-30.377-41.251-154.176-220.636-163.879-234.7
	c-1.568-1.768-10.027-10.753-23.314-14.834c-17.734-5.447-34.264-18.65-67.193-44.953c-9.982-7.974-21.297-17.012-34.76-27.541
	c-41.711-32.63-98.656-82.319-136.34-115.2c-12.098-10.557-22.547-19.674-30.273-26.301c-32.348-27.739-104.16-94.45-107.201-97.276
	l-1.447-1.345l-0.621-1.015c-1.359-1.689-13.333-15.411-44.219-16.521c-17.839-0.641-42.316-4.08-68.233-7.72
	C624.157,90.333,593.304,86,572.579,86c-3.244,0-6.146,0.11-8.642,0.326L36.307,195.089c-6.333,3.615-19.427,13.066-23.23,24.845
	c-1.994,6.174-1.226,12.551,2.349,19.496c19.541,37.967,79.928,146.711,86.225,158.043c5.306,6.911,43.628,56.221,76.146,81.824
	c33.073,26.041,376.598,256.751,445.399,289.564c58.127,27.722,87.922,41.047,129.784,41.047c8.208,0,16.747-0.515,26.106-1.573
	c11.016-1.245,20.826-2.232,30.314-3.188c44.844-4.512,83.572-8.408,221.76-36.052c26.424-5.286,44.592-9.823,62.162-14.212
	c13.994-3.495,27.213-6.797,43.877-10.333c3.098-0.657,4.355-1.489,4.715-1.777c0.027-0.319,0.014-0.918,0.012-0.921l-0.475-1.242
	l-10.557-55.214c-0.951-4.237-1.486-8.598-1.59-12.965c-0.855-36.381,28.045-66.679,64.426-67.539
	c0.529-0.013,1.055-0.019,1.582-0.019c14.979,0,29.656,5.171,41.326,14.56c11.525,9.272,19.686,22.282,22.977,36.633l0.164,0.818
	l9.398,54.812l-0.053,0.725C1269.154,712.689,1269.215,712.999,1269.289,713.281z"/>
</svg>
