<?xml version="1.0" encoding="utf-8"?>
<!-- Generator: Adobe Illustrator 16.0.0, SVG Export Plug-In . SVG Version: 6.00 Build 0)  -->
<!DOCTYPE svg PUBLIC "-//W3C//DTD SVG 1.1//EN" "http://www.w3.org/Graphics/SVG/1.1/DTD/svg11.dtd">
<svg version="1.1" id="Layer_1" xmlns="http://www.w3.org/2000/svg" xmlns:xlink="http://www.w3.org/1999/xlink" x="0px" y="0px"
	 width="475.818px" height="479.279px" viewBox="0 0 475.818 479.279" enable-background="new 0 0 475.818 479.279"
	 xml:space="preserve">
<path fill="none" stroke="#181716" stroke-linejoin="round" stroke-miterlimit="10" d="M57.833,48.086
	c-0.02,0.192-0.031,0.386-0.031,0.583c-0.008,2.931,2.213,5.414,5.233,5.414h409.587c1.766,0,3.197,1.62,3.197,3.619V475.66
	c0,1.999-1.432,3.619-3.197,3.619H53.818c-1.766,0-3.198-1.62-3.198-3.619c0,0,0-409.25,0-409.895c0-2.052-0.64-4.951-2.362-6.255
	c-2.664-2.017-5.903,0.753-8.398,1.647c-2.828,1.014-5.7,1.204-8.679,1.204C13.96,62.362,0,48.402,0,31.181
	C0,13.96,13.96,0,31.181,0c17.221,0,31.181,13.96,31.181,31.181c0,3.312-0.527,6.608-1.559,9.754
	C60.01,43.352,58.101,45.516,57.833,48.086z"/>
</svg>
