<?xml version="1.0" encoding="utf-8"?>
<!-- Generator: Adobe Illustrator 16.0.0, SVG Export Plug-In . SVG Version: 6.00 Build 0)  -->
<!DOCTYPE svg PUBLIC "-//W3C//DTD SVG 1.1//EN" "http://www.w3.org/Graphics/SVG/1.1/DTD/svg11.dtd">
<svg version="1.1" id="Layer_1" xmlns="http://www.w3.org/2000/svg" xmlns:xlink="http://www.w3.org/1999/xlink" x="0px" y="0px"
	 width="536.941px" height="2942.582px" viewBox="0 0 536.941 2942.582" enable-background="new 0 0 536.941 2942.582"
	 xml:space="preserve">
<path fill="none" stroke="#000000" stroke-linejoin="round" stroke-miterlimit="10" d="M61.778,38.445
	c-0.084,2.285,0.241,4.568,1.65,6.461c1.747,2.35,4.326,4.46,7.104,5.434c1.716,0.602,3.705,0.904,5.524,0.904h460.885v2891.338
	H55.05c0,0,0-2870.229,0-2870.612c0-4.539-3.295-9.902-7.905-11.022c-2.957-0.718-5.647-0.18-8.536,0.526
	c-2.427,0.593-4.928,0.888-7.426,0.888C13.96,62.362,0,48.402,0,31.181C0,13.96,13.96,0,31.181,0
	c17.221,0,31.181,13.96,31.181,31.181c0,1.462-0.101,2.924-0.305,4.373C61.924,36.498,61.814,37.472,61.778,38.445z"/>
</svg>
