<?xml version="1.0" encoding="utf-8"?>
<!-- Generator: Adobe Illustrator 16.0.0, SVG Export Plug-In . SVG Version: 6.00 Build 0)  -->
<!DOCTYPE svg PUBLIC "-//W3C//DTD SVG 1.1//EN" "http://www.w3.org/Graphics/SVG/1.1/DTD/svg11.dtd">
<svg version="1.1" id="Layer_1" xmlns="http://www.w3.org/2000/svg" xmlns:xlink="http://www.w3.org/1999/xlink" x="0px" y="0px"
	 width="1978.238px" height="5597.074px" viewBox="0 0 1978.238 5597.074" enable-background="new 0 0 1978.238 5597.074"
	 xml:space="preserve">
<path fill="none" stroke="#000000" stroke-linejoin="round" stroke-miterlimit="10" d="M58.206,47.29
	c-0.192,0.894-0.214,1.806,0.062,2.744c0.872,2.964,3.938,5.307,7.02,5.307H1978.24v3316.535H50.68c0,0,0-3301.005,0-3302.671
	c0-3.163-2.349-7.602-5.462-8.622c-1.87-0.613-3.82,0.156-5.638,0.602c-2.707,0.664-5.604,1.177-8.399,1.177
	C13.96,62.362,0,48.402,0,31.181C0,13.96,13.96,0,31.181,0s31.181,13.96,31.181,31.181c0,3.404-0.552,6.808-1.646,10.031
	C60.043,43.193,58.656,45.19,58.206,47.29z"/>
</svg>
